<?xml version="1.0" encoding="UTF-8" standalone="no"?>
<svg
   ffdec:objectType="frame"
   height="27.456522"
   width="28.160204"
   version="1.1"
   id="svg5"
   sodipodi:docname="STATUS_Grappled_Icon.svg"
   xmlns:inkscape="http://www.inkscape.org/namespaces/inkscape"
   xmlns:sodipodi="http://sodipodi.sourceforge.net/DTD/sodipodi-0.dtd"
   xmlns:xlink="http://www.w3.org/1999/xlink"
   xmlns="http://www.w3.org/2000/svg"
   xmlns:svg="http://www.w3.org/2000/svg"
   xmlns:ffdec="https://www.free-decompiler.com/flash">
  <sodipodi:namedview
     id="namedview5"
     pagecolor="#ffffff"
     bordercolor="#000000"
     borderopacity="0.25"
     inkscape:showpageshadow="2"
     inkscape:pageopacity="0.0"
     inkscape:pagecheckerboard="0"
     inkscape:deskcolor="#d1d1d1" />
  <g
     transform="translate(13.929592,13.9)"
     id="g1">
    <use
       ffdec:characterId="3245"
       height="27.5"
       width="28.200001"
       xlink:href="#shape0"
       id="use1" />
  </g>
  <defs
     id="defs5">
    <g
       id="shape0">
      <path
         d="m 1.8,-13.9 1.1,0.1 0.2,0.05 1.55,0.3 q 2,0.45 3.6,1.5 3.2,1.8 4.75,5.4 l 0.1,0.2 0.35,0.75 0.15,0.25 0.1,0.4 0.2,0.55 q 0.9,4.25 -0.65,8.3 -1.75,4.4 -5.55,7.25 l -1.55,0.9 Q 5.7,12.5 5,12.75 3.1,13.55 1.05,13.45 -1.4,13.8 -4,13 -5.85,12.4 -7.45,11.4 L -7.95,11.05 -10.3,9.1 q -0.8,-0.6 -2.45,-3.75 -1.7,-3.1 -0.95,-7.45 0.8,-4.35 3.4,-7.1 v -0.05 q 1.55,-1.95 3.65,-2.95 1.2,-0.75 2.6,-1.05 l 2.2,-0.55 h 0.15 l 3.5,-0.1 M 3.15,-5.35 5.8,-7.55 6.4,-8 Q 2,-10.4 -3,-9.15 l -1.3,0.4 -0.85,0.35 -1.25,0.8 -0.7,0.6 q -1.55,1.55 -2.35,3.8 -1.3,3.55 -0.05,6.8 L -9.1,4 -8.75,3.8 -8.65,3.65 -8.1,3.25 -7.25,2.6 -6.5,2 -6.3,1.85 -1.35,-1.9 1.2,-3.85 1.75,-4.3 l 0.4,-0.25 1,-0.8 m 6.35,-1.3 0.35,0.45 0.95,2.6 Q 11.6,-0.15 10.4,3.1 9.45,5.65 7.75,7.45 L 7.3,7.9 4.55,9.7 q -3,1.5 -6.25,0.95 -3.9,-0.6 -6.5,-3.45 L -7.15,6.55 -6,5.75 -5.75,5.6 -4.95,5 -3.5,3.9 1.35,-0.05 1.8,-0.4 2.75,-1.1 3.6,-1.75 3.85,-1.95 9.5,-6.65 M 7.95,-8.45 8.65,-7.8 5.4,-5.5 3.1,-3.6 2,-2.7 1.4,-2.2 1.05,-1.95 -1.6,0.2 -6.5,4 -6.95,4.35 -7.4,4.7 H -7.45 V 4.75 L -8.3,5.35 -8.75,5.7 -9.15,6 q -1.7,-2.4 -1.95,-5.3 -0.35,-3.95 2.05,-7.1 2.55,-3.4 6.8,-4.15 3.85,-0.7 7.4,0.6 1.35,0.35 2.55,1.3 l 0.15,0.1 0.1,0.1 m -3.45,7.6 -0.75,0.6 -0.05,0.05 -2,1.55 -5,3.8 -0.75,0.6 -0.25,0.2 -1.05,0.75 -0.15,0.15 -0.8,0.6 Q -3.35,10.2 1,9.55 L 1.65,9.3 q 2,-0.5 3.6,-1.5 L 6.35,6.95 6.95,6.4 7.95,5.2 8.25,4.7 8.55,4.25 9.15,3 Q 10.9,-0.9 9.3,-4.7 L 8.7,-4.3 5.3,-1.5 4.5,-0.85 M 10.35,-8.4 9.3,-9.35 Q 5.75,-12.4 1,-12.6 q -4.7,-0.25 -8.55,2.35 L -9.9,-8.1 q -3,3.6 -2.85,8.35 0.25,4.65 3.6,8.1 l 2.05,1.85 q 3.85,2.65 8.45,2.05 4.6,-0.65 7.85,-4.05 3.2,-3.4 3.6,-8.05 0.35,-4.8 -2.45,-8.55"
         fill="#2b0000"
         fill-rule="evenodd"
         stroke="none"
         id="path1" />
      <path
         d="m -4.3,-8.75 1.75,-0.1 1.45,0.15 1.45,0.3 1.2,0.55 1.15,0.8 0.05,0.15 0.05,0.05 v 0.05 l 0.1,0.1 0.1,0.1 0.05,0.1 v 0.05 l 0.15,0.15 -0.1,0.85 0.05,0.1 -1,0.8 L 2.2,-5.6 H 2.15 L 2.2,-5.65 V -5.8 -5.9 L 2.15,-6 q -0.7,-1 -1.9,-1.3 l -1.3,-0.3 -1.25,-0.1 -3.2,0.55 V -7.2 l -0.7,0.3 -0.05,0.05 -0.15,0.8 h 0.05 l -0.15,1 -0.5,4.95 -0.25,2.7 -0.85,0.65 0.35,-3.4 0.5,-5.65 0.15,-1.2 0.7,-0.6 1.25,-0.8 0.85,-0.35 M 1.1,-5.85 1,-5.9 0.85,-6.05 1.1,-5.85 M -5.5,-6.2 -5.55,-6.15 V -6.2 H -5.5 M 6.25,5.85 6.2,5.95 6.15,6.05 h -0.1 l 0.2,-0.2 M -4.3,5.95 4.35,6.8 4.8,6.85 5.8,6.9 6.35,6.95 5.25,7.8 4.95,7.7 4.9,7.75 -5.35,6.7 -4.3,5.95 M 6.95,6.4 Q 7.5,4.85 7.65,3.25 L 7.5,2.35 q -0.6,-2.5 -3,-3.2 L 5.3,-1.5 6.75,-0.75 Q 8.7,0.6 8.6,2.9 v 0.45 0.3 l -0.05,0.6 -0.3,0.45 -0.3,0.5 -1,1.2"
         fill="#ffffff"
         fill-rule="evenodd"
         stroke="none"
         id="path2" />
      <path
         d="M 2.15,-4.55 1.75,-4.3 1.2,-3.85 v -0.1 L 1.25,-4.25 1.35,-5.1 1.4,-5.25 1.35,-5.35 1.4,-5.5 1.35,-5.6 1.15,-5.8 1.1,-5.85 0.85,-6.05 0.7,-6.1 q -2.2,-1 -4.6,-0.6 l -0.45,0.15 h -0.1 L -5.5,-6.2 h -0.05 v 0.05 0.05 L -5.85,-2.6 -6.3,1.85 -6.5,2 -7.25,2.6 -7,-0.1 l 0.5,-4.95 0.15,-1 H -6.4 l 0.15,-0.8 0.05,-0.05 0.7,-0.3 v 0.05 l 3.2,-0.55 1.25,0.1 1.3,0.3 q 1.2,0.3 1.9,1.3 l 0.05,0.1 v 0.1 0.15 L 2.15,-5.6 H 2.2 L 2.15,-4.55 M 3.7,-0.2 3.75,-0.25 4.5,-0.85 q 2.4,0.7 3,3.2 l 0.15,0.9 Q 7.5,4.85 6.95,6.4 L 6.35,6.95 5.8,6.9 4.8,6.85 4.35,6.8 -4.3,5.95 l 0.25,-0.2 0.75,-0.6 8.55,0.9 h 0.8 0.1 L 6.2,5.95 6.25,5.85 V 5.8 Q 6.8,4.25 6.75,2.6 6.7,1.85 6.2,1.3 5.25,0.1 3.7,-0.2"
         fill="#a77503"
         fill-rule="evenodd"
         stroke="none"
         id="path3" />
      <path
         d="m 1.2,-3.85 -2.55,1.95 -4.95,3.75 0.45,-4.45 0.3,-3.5 v -0.05 l 0.05,-0.05 1.05,-0.35 h 0.1 L -3.9,-6.7 q 2.4,-0.4 4.6,0.6 l 0.15,0.05 0.15,0.15 0.1,0.05 0.05,0.05 0.2,0.2 0.05,0.1 -0.05,0.15 0.05,0.1 -0.05,0.15 -0.1,0.85 -0.05,0.3 v 0.1 M 3.7,-0.2 Q 5.25,0.1 6.2,1.3 6.7,1.85 6.75,2.6 6.8,4.25 6.25,5.8 v 0.05 l -0.2,0.2 h -0.8 l -8.55,-0.9 5,-3.8 2,-1.55"
         fill="#fefd92"
         fill-rule="evenodd"
         stroke="none"
         id="path4" />
      <path
         d="m 7.95,-8.45 -0.1,-0.1 -0.15,-0.1 q -1.2,-0.95 -2.55,-1.3 -3.55,-1.3 -7.4,-0.6 -4.25,0.75 -6.8,4.15 -2.4,3.15 -2.05,7.1 0.25,2.9 1.95,5.3 l 0.4,-0.3 0.45,-0.35 0.85,-0.6 V 4.7 H -7.4 L -6.95,4.35 -6.5,4 -1.6,0.2 1.05,-1.95 1.4,-2.2 2,-2.7 3.1,-3.6 5.4,-5.5 8.65,-7.8 7.95,-8.45 M 9.5,-6.65 3.85,-1.95 3.6,-1.75 2.75,-1.1 1.8,-0.4 1.35,-0.05 -3.5,3.9 -4.95,5 -5.75,5.6 -6,5.75 -7.15,6.55 -8.2,7.2 q 2.6,2.85 6.5,3.45 Q 1.55,11.2 4.55,9.7 L 7.3,7.9 7.75,7.45 q 1.7,-1.8 2.65,-4.35 1.2,-3.25 0.4,-6.7 L 9.85,-6.2 9.5,-6.65 m 0.85,-1.75 q 2.8,3.75 2.45,8.55 Q 12.4,4.8 9.2,8.2 5.95,11.6 1.35,12.25 -3.25,12.85 -7.1,10.2 L -9.15,8.35 Q -12.5,4.9 -12.75,0.25 -12.9,-4.5 -9.9,-8.1 l 2.35,-2.15 q 3.85,-2.6 8.55,-2.35 4.75,0.2 8.3,3.25 l 1.05,0.95"
         fill="#c084ca"
         fill-rule="evenodd"
         stroke="none"
         id="path5" />
    </g>
  </defs>
</svg>
