<?xml version="1.0" encoding="UTF-8" standalone="no"?>
<svg
   ffdec:objectType="frame"
   height="31.713911"
   width="28.15867"
   version="1.1"
   id="svg6"
   sodipodi:docname="STATUS_Magic_Weakness_Icon.svg"
   xmlns:inkscape="http://www.inkscape.org/namespaces/inkscape"
   xmlns:sodipodi="http://sodipodi.sourceforge.net/DTD/sodipodi-0.dtd"
   xmlns:xlink="http://www.w3.org/1999/xlink"
   xmlns="http://www.w3.org/2000/svg"
   xmlns:svg="http://www.w3.org/2000/svg"
   xmlns:ffdec="https://www.free-decompiler.com/flash">
  <sodipodi:namedview
     id="namedview6"
     pagecolor="#ffffff"
     bordercolor="#000000"
     borderopacity="0.25"
     inkscape:showpageshadow="2"
     inkscape:pageopacity="0.0"
     inkscape:pagecheckerboard="0"
     inkscape:deskcolor="#d1d1d1" />
  <g
     transform="translate(14.113825,15.971967)"
     id="g1">
    <use
       ffdec:characterId="3113"
       height="59.599998"
       transform="matrix(0.5323,0,0,0.5323,-12.65,-8.4)"
       width="52.900002"
       xlink:href="#shape0"
       id="use1" />
  </g>
  <defs
     id="defs6">
    <g
       id="shape0">
      <path
         d="M 11.15,36.45 Q -0.25,26.35 -0.25,7.7 q 0,-7.4 2.35,-8.25 5.5,-1.4 8.7,-2.55 3.2,-1.2 6.5,-3.75 2.7,-2.15 4.8,-4.05 1.6,-1.65 3.25,0 l 4.75,4.05 q 3.3,2.55 6.5,3.75 3.2,1.15 8.7,2.55 2.35,0.85 2.35,8.25 0,18.65 -11.4,28.75 -4.75,4.2 -9.5,5.8 -3.05,1.25 -6.05,0 -4.8,-1.6 -9.55,-5.8"
         fill="#ffffff"
         fill-rule="evenodd"
         stroke="none"
         id="path1" />
      <path
         d="M 11.15,36.45 Q -0.25,26.35 -0.25,7.7 q 0,-7.4 2.35,-8.25 5.5,-1.4 8.7,-2.55 3.2,-1.2 6.5,-3.75 2.7,-2.15 4.8,-4.05 1.6,-1.65 3.25,0 l 4.75,4.05 q 3.3,2.55 6.5,3.75 3.2,1.15 8.7,2.55 2.35,0.85 2.35,8.25 0,18.65 -11.4,28.75 -4.75,4.2 -9.5,5.8 -3.05,1.25 -6.05,0 -4.8,-1.6 -9.55,-5.8 z"
         fill="none"
         stroke="#ffffff"
         stroke-linecap="round"
         stroke-linejoin="round"
         stroke-width="5"
         id="path2" />
      <path
         d="M 23.45,32.5 23.8,38 q 0.05,0.75 0.4,1.15 l -0.1,0.2 -0.15,0.05 Q 22.95,38.25 21.3,37.75 19.55,37.2 17.95,36.25 12.8,33.1 9.3,28.15 L 8.2,26.4 Q 7.4,24.95 6,24.35 L 5.8,24.4 H 5.75 L 5.6,23.85 4.05,19.85 Q 3.15,17.1 2.85,14.35 L 2.7,13.7 2.55,13.25 2.4,12.65 2.2,11.9 2.05,9.95 Q 2,8.9 2.1,7.85 L 2.25,7.1 V 6.5 L 2.4,5.45 2.6,4.9 V 4.85 L 2.15,4.4 1.75,3.8 1.65,3.5 V 3.05 2.6 L 1.95,2 2.1,1.85 2.25,1.7 2.4,1.55 4.35,0.65 Q 4.5,1.5 5.55,1.7 8.9,2.4 12.25,1.3 L 15.4,0.15 q 4.9,-1.95 8.15,-5.85 l -1,3.05 q -1.2,1.8 -2,3.75 Q 20.3,1.2 20,1.45 l -0.8,0.8 -2.4,2.9 -0.5,0.55 Q 16,6.25 16.15,6.9 l 0.5,1.1 q 1.25,2.1 2.45,3.15 1.5,1.4 3.35,2 l 0.7,0.2 -0.05,0.5 -0.8,0.1 q -0.4,0.2 -0.95,0.95 l -2.95,4.55 -1.7,2.9 -0.3,0.6 q -0.25,0.45 -0.45,1.8 -0.2,1.35 2.7,3.9 l 4.1,3.4 0.7,0.45 m -0.4,-16.55 -0.05,1.4 -0.9,1.2 -1.2,1.3 -0.65,0.9 q -1,1.5 -1.4,2.65 -0.3,0.75 -0.15,1.25 0.1,0.5 0.95,1.25 2.15,1.8 2.7,2.65 l 0.45,0.65 -4.8,-4.4 -0.45,-0.4 1,-1.2 1.25,-1.95 1.15,-1.8 2.1,-3.5 m 0.3,13.75 h 0.05 v 0.05 L 23.35,29.7 M 43.45,4 h -0.9 l -0.4,7.65 q -0.45,5.95 -2.9,11.4 -1.85,4.05 -4.6,7.45 l -0.6,0.55 q -3.7,3.45 -7.8,6.4 l -0.1,-5.9 -0.05,-0.95 -0.1,-0.25 -2.05,-5 -0.3,-1.15 q -0.4,-1.75 -0.25,-1.8 l 0.05,-0.55 0.9,-1.1 3,-2.55 v -0.05 l 1.2,-1.8 0.95,-1.15 q 0.65,-0.8 0.7,-1.4 l -5,-4.9 Q 23.7,7.3 23.6,6.15 23.5,5.05 24.45,3.3 l 1.15,-2.25 0.6,-1 q 0.45,-0.5 -0.95,-2.35 1.7,1.1 1.6,0.5 L 26.5,-2.1 q -1.6,-1.3 0.3,0.1 l -0.05,-0.15 0.4,0.35 1.15,0.9 Q 32.2,1.95 34.7,2.75 39,4.1 43.45,4"
         fill="#7293e7"
         fill-rule="evenodd"
         stroke="none"
         id="path3" />
      <path
         d="m 23.45,32.5 -0.7,-0.45 -4.1,-3.4 q -2.9,-2.55 -2.7,-3.9 0.2,-1.35 0.45,-1.8 l 0.3,-0.6 1.7,-2.9 2.95,-4.55 q 0.55,-0.75 0.95,-0.95 l 0.8,-0.1 0.35,0.4 0.05,0.55 -0.35,0.9 -0.1,0.25 -2.1,3.5 -1.15,1.8 -1.25,1.95 -1,1.2 0.45,0.4 4.8,4.4 0.55,0.5 0.05,0.05 0.2,0.15 q 1.05,0.95 1.25,1.7 0.2,0.8 -0.35,1.1 l -0.9,-0.1 -0.15,-0.1"
         fill="#000000"
         fill-rule="evenodd"
         stroke="none"
         id="path4" />
      <path
         d="M 11.15,36.5 Q -0.25,26.4 -0.25,7.75 q 0,-7.4 2.35,-8.25 5.5,-1.4 8.7,-2.55 3.2,-1.2 6.5,-3.75 2.7,-2.15 4.8,-4.05 l 3.15,-0.05 q 0.3,0.75 -0.5,3.2 -0.85,2.45 -0.85,1.75 L 22.2,-6.5 q -3.2,3.75 -9.4,6.25 -5.05,2.05 -9.45,2.5 -0.2,18.3 5.45,25.9 5.6,7.6 11.75,10.55 l 1.65,0.8 V 29.05 l 3,1.6 v 8.85 l 1.65,-0.8 Q 33,35.75 38.6,28.15 44.25,20.55 44.05,2.25 39.65,1.8 34.6,-0.25 29.2,-2.4 26.1,-5.5 L 26.8,-8 q 0.35,-1.1 1.25,-0.45 l 0.15,0.1 1.9,1.55 q 3.3,2.55 6.5,3.75 3.2,1.15 8.7,2.55 2.35,0.85 2.35,8.25 0,18.65 -11.4,28.75 -4.75,4.2 -9.5,5.8 -3.05,1.25 -6.05,0 -4.8,-1.6 -9.55,-5.8"
         fill="#000000"
         fill-rule="evenodd"
         stroke="none"
         id="path5" />
      <path
         d="m 23.35,-9.2 0.9,1.05 Q 24.8,-7.7 23.7,-5 l -2.5,5.4 -4.4,6.8 3.95,3.3 4.4,3.45 0.2,0.15 -6.5,10.4 2.5,2.25 2.65,2.9 Q 23.95,28 22.95,26.5 l -1.9,-2.25 1.85,-2.35 3.1,-4.4 2.55,-4.35 -7.65,-7 q 3.05,-5.35 4.7,-10.35 1.6,-4.95 1.65,-2.85 0,0.95 0.15,1.7 l 0.15,-0.3 0.8,-1 0.7,-0.05 0.5,0.35 v 0.7 l -0.8,2.95 Q 27.2,2.15 25.3,5.45 l 1.9,2.2 4.2,5.1 q 0.6,0.65 0.3,1.6 l -2.35,3.85 -3.8,6.1 0.25,0.45 q 1.05,1.95 1.35,4.2 l 0.05,0.8 -0.25,0.95 -0.4,0.95 -0.6,1 -0.85,0.95 q -0.2,0.15 -0.35,0.25 l -0.15,0.3 0.05,-0.25 -0.75,0.05 q -0.35,-0.05 -0.6,-0.3 l -0.25,-0.6 q 0,-0.4 0.75,-1.25 l -1,-1.25 -1.5,-1.65 -1.95,-1.6 -2.2,-1.7 Q 16.2,24.85 17.2,23.55 L 22.1,15.9 21.85,15.75 18.35,13 15.45,10.55 13.75,8.85 Q 12.7,7.65 13.5,6.3 14.25,4.9 14.75,4.25 l 1.8,-2.75 2,-3.35 1.85,-3.55 0.65,-0.9 q 0.35,-0.3 0.65,-0.2 l 1.35,-3.2 0.3,0.5"
         fill="#000000"
         fill-rule="evenodd"
         stroke="none"
         id="path6" />
    </g>
  </defs>
</svg>
