<?xml version="1.0" encoding="UTF-8" standalone="no"?>
<svg
   ffdec:objectType="frame"
   height="25.525776"
   width="33.519817"
   version="1.1"
   id="svg6"
   sodipodi:docname="STATUS Attraction Icon.svg"
   xmlns:inkscape="http://www.inkscape.org/namespaces/inkscape"
   xmlns:sodipodi="http://sodipodi.sourceforge.net/DTD/sodipodi-0.dtd"
   xmlns:xlink="http://www.w3.org/1999/xlink"
   xmlns="http://www.w3.org/2000/svg"
   xmlns:svg="http://www.w3.org/2000/svg"
   xmlns:ffdec="https://www.free-decompiler.com/flash">
  <sodipodi:namedview
     id="namedview6"
     pagecolor="#ffffff"
     bordercolor="#000000"
     borderopacity="0.25"
     inkscape:showpageshadow="2"
     inkscape:pageopacity="0.0"
     inkscape:pagecheckerboard="0"
     inkscape:deskcolor="#d1d1d1" />
  <g
     transform="translate(17.005276,12.839165)"
     id="g1">
    <use
       ffdec:characterId="3236"
       height="27.549999"
       transform="matrix(0.9263,0,0,0.9263,-0.25,-0.05)"
       width="36.25"
       xlink:href="#sprite0"
       id="use1" />
  </g>
  <defs
     id="defs6">
    <g
       id="sprite0">
      <use
         ffdec:characterId="3235"
         height="27.549999"
         width="36.25"
         xlink:href="#shape0"
         id="use2" />
    </g>
    <g
       id="shape0">
      <path
         d="m 14.25,-2.5 1.25,-3.25 q 0.4,-1.8 -0.6,-3.25 -1.8,-2.45 -4.8,-2.3 L 8.45,-11 Q 6.15,-9.8 5.25,-7.4 3.8,-9.6 1,-9.15 l -0.65,0.1 q -2.6,1.25 -3,3.85 -2.5,-1 -4.9,0.5 L -8,-4.15 q -1.85,2.1 -0.75,4.5 -2.5,-0.5 -4.75,0.8 l -1.1,1.2 q -1.7,2.45 -0.6,5.3 0.65,1.65 2.35,2.3 l 3.5,0.6 m 0.5,-0.05 1.65,-0.05 0.95,-0.1 2.15,-0.15 2.5,0.2 2.25,0.4 1.3,0.45 L 2.1,11.2 2.2,11.05 2.35,10.7 2.75,9.35 Q 2.7,9.1 2.8,8.9 L 3.05,7.1 3.1,5.55 3.15,5.35 3.1,5.25 3.25,5.3 3.4,5.4 4.75,6.15 6.4,6.9 6.85,7.1 8.15,7.5 8.5,7.55 H 8.65 L 8.85,7.4 9.15,6.1 9.95,4 11.2,1.75 12.45,0 13,-0.75 l 1,-1.4"
         fill="none"
         stroke="#ffffff"
         stroke-linecap="round"
         stroke-linejoin="round"
         stroke-width="5"
         id="path2" />
      <path
         d="m -2.65,-5.2 q 0.4,-2.6 3,-3.85 L 1,-9.15 q 2.8,-0.45 4.25,1.75 0.9,-2.4 3.2,-3.6 l 1.65,-0.3 q 3,-0.15 4.8,2.3 1,1.45 0.6,3.25 l -1.25,3.25 -0.05,0.1 -0.15,0.25 H 14 L 13,-0.75 12.45,0 11.2,1.75 9.95,4 9.15,6.1 8.85,7.4 8.65,7.55 H 8.5 L 8.15,7.5 6.85,7.1 6.4,6.9 4.75,6.15 3.4,5.4 3.25,5.3 3.1,5.25 3,5.1 2.75,4.95 1.85,4.2 2.75,4.95 3,5.1 3.1,5.25 3.15,5.35 3.1,5.55 3.05,7.1 2.8,8.9 Q 2.7,9.1 2.75,9.35 L 2.35,10.7 2.2,11.05 2.1,11.2 1.95,11.25 0.65,10.8 -1.6,10.4 l -2.5,-0.2 -2.15,0.15 -0.95,0.1 -1.65,0.05 -0.5,0.05 -3.5,-0.6 q -1.7,-0.65 -2.35,-2.3 -1.1,-2.85 0.6,-5.3 l 1.1,-1.2 q 2.25,-1.3 4.75,-0.8 -1.1,-2.4 0.75,-4.5 l 0.45,-0.55 q 2.4,-1.5 4.9,-0.5 l -0.1,0.35 V -4.7 H -2.8 v 0.45 l -0.05,0.4 v 0.1 -0.1 l 0.05,-0.4 V -4.7 h 0.05 v -0.15 l 0.1,-0.35 M 1.85,4.2 0.85,3.4 -0.55,1.8 -0.9,1.25 -0.95,1.15 -1.45,0.4 -1.75,-0.25 -2.4,-1.7 -2.6,-2.4 -2.85,-3.5 v -0.25 l -0.25,-0.1 -2.8,0.1 -1.1,1 -0.6,1.3 -0.05,0.8 0.15,0.6 0.55,1 V 1 l 0.25,0.2 0.1,0.15 0.4,0.4 L -5.95,2.1 -6.5,1.95 -7.45,1.8 -9.05,1.5 -9.55,1.45 h -1.25 l -0.75,0.2 q -0.6,0.25 -1.05,0.65 l -1.1,1.25 -0.5,1.4 V 5 5.3 l -0.05,0.3 0.1,0.5 0.2,0.6 q 0.4,0.95 1.35,1.5 0.85,0.55 1.85,0.75 l 1.8,0.2 2.45,-0.15 2.7,-0.1 0.95,0.05 0.8,0.05 1.5,0.25 0.1,0.05 1.65,0.35 0.2,-1.1 0.05,-0.1 0.4,-2.7 V 4.2 m -3,-7.05 -0.05,0.2 0.55,1.6 0.65,1.3 0.95,1.4 1,1.1 q 1,1 2.3,1.7 L 6.75,5.5 6.8,5.55 7.9,5.9 8.45,4.35 V 4.25 L 9.05,2.85 9.4,2.2 9.85,1.35 l 1.55,-2.3 1.45,-1.95 0.8,-1.7 0.35,-1.95 -0.55,-1.9 -0.5,-0.5 -0.35,-0.3 -0.2,-0.2 -0.3,-0.1 L 12.05,-9.6 10.6,-9.9 9,-9.65 7.85,-9.1 7.3,-8.6 6.65,-7.5 6.45,-7.05 5.85,-5.55 5.4,-4.65 5.25,-4.1 5.1,-4.5 4.95,-5.05 4.9,-5.25 4.85,-5.55 V -5.6 L 4.3,-6.6 3.8,-7 3.15,-7.4 1.65,-7.55 0.3,-7.2 q -1.35,0.8 -1.65,2.4 -0.15,1 0.2,1.95 m 14.4,1.25 -0.15,0.25 -0.15,0.15 -0.15,0.15 -0.1,0.2 -0.1,0.1 v 0.25 l 0.1,-0.1 0.45,-0.7 0.3,-0.5 -0.2,0.2 M -8.1,10.25 -8.65,10.3 h 0.1 l 0.8,-0.05 h 0.85 0.1 L -7,10.1 -7.15,10.15 -7.3,10.1 -7.6,10.15 -7.8,10.2 -8.1,10.25 M -9,10.3 -8.95,10.35 H -8.9 L -9,10.3"
         fill="#000000"
         fill-rule="evenodd"
         stroke="none"
         id="path3" />
      <path
         d="M -1.15,-2.85 Q -1.5,-3.8 -1.35,-4.8 -1.05,-6.4 0.3,-7.2 l 1.35,-0.35 1.5,0.15 0.65,0.4 0.5,0.4 0.55,1 v 0.05 l 0.05,0.3 0.05,0.2 0.15,0.55 0.15,0.4 0.15,-0.55 0.45,-0.9 0.6,-1.5 0.2,-0.45 0.65,-1.1 0.55,-0.5 1.15,-0.55 1.6,-0.25 1.45,0.3 0.05,0.05 0.3,0.1 0.2,0.2 0.35,0.3 0.5,0.5 0.55,1.9 -0.35,1.95 -0.8,1.7 L 11.4,-0.95 9.85,1.35 9.4,2.2 9.05,2.85 8.45,4.25 v 0.1 L 7.9,5.9 6.8,5.55 6.75,5.5 4.25,4.45 q -1.3,-0.7 -2.3,-1.7 l -1,-1.1 -0.95,-1.4 -0.65,-1.3 -0.55,-1.6 0.05,-0.2"
         fill="#b17271"
         fill-rule="evenodd"
         stroke="none"
         id="path4" />
      <path
         d="m -2.85,-3.75 v 0.25 l 0.25,1.1 0.2,0.7 0.65,1.45 0.3,0.65 0.5,0.75 0.05,0.1 0.35,0.55 1.4,1.6 1,0.8 V 5.75 L 1.45,8.45 1.4,8.55 1.2,9.65 -0.45,9.3 -0.55,9.25 -2.05,9 -2.85,8.95 -3.8,8.9 -6.5,9 l -2.45,0.15 -1.8,-0.2 q -1,-0.2 -1.85,-0.75 -0.95,-0.55 -1.35,-1.5 l -0.2,-0.6 -0.1,-0.5 0.05,-0.3 V 5 4.95 l 0.5,-1.4 1.1,-1.25 q 0.45,-0.4 1.05,-0.65 l 0.75,-0.2 h 1.25 l 0.5,0.05 1.6,0.3 L -6.5,1.95 -5.95,2.1 -6.2,1.75 -6.6,1.35 -6.7,1.2 -6.95,1 V 0.95 l -0.55,-1 -0.15,-0.6 0.05,-0.8 0.6,-1.3 1.1,-1 2.8,-0.1 0.25,0.1"
         fill="#e09a98"
         fill-rule="evenodd"
         stroke="none"
         id="path5" />
      <path
         d="M 3.1,5.25 3.25,5.3 3.4,5.4 4.75,6.15 6.4,6.9 6.85,7.1 8.15,7.5 8.5,7.55 H 8.65 L 8.85,7.4 9.15,6.1 9.95,4 11.2,1.75 12.45,0 13,-0.75 l 1,-1.4 h 0.05 l 0.15,-0.25 0.05,-0.1 1.25,-3.25 q 0.4,-1.8 -0.6,-3.25 -1.8,-2.45 -4.8,-2.3 L 8.45,-11 Q 6.15,-9.8 5.25,-7.4 3.8,-9.6 1,-9.15 l -0.65,0.1 q -2.6,1.25 -3,3.85 l -0.1,0.35 V -4.7 H -2.8 v 0.45 l -0.05,0.4 v 0.1 0.25 l 0.25,1.1 0.2,0.7 0.65,1.45 0.3,0.65 0.5,0.75 0.05,0.1 0.35,0.55 1.4,1.6 1,0.8 0.9,0.75 L 3,5.1 3.1,5.25 3.15,5.35 3.1,5.55 3.05,7.1 2.8,8.9 Q 2.7,9.1 2.75,9.35 L 2.35,10.7 2.2,11.05 2.1,11.2 1.95,11.25 0.65,10.8 -1.6,10.4 l -2.5,-0.2 -2.15,0.15 -0.95,0.1 -1.65,0.05 -0.35,0.1 -0.15,-0.05 -3.5,-0.6 q -1.7,-0.65 -2.35,-2.3 -1.1,-2.85 0.6,-5.3 l 1.1,-1.2 q 2.25,-1.3 4.75,-0.8 -1.1,-2.4 0.75,-4.5 l 0.45,-0.55 q 2.4,-1.5 4.9,-0.5 m 16.7,3.05 0.15,-0.2 V -2.4 m -23.05,12.9 -0.5,0.05"
         fill="none"
         stroke="#000000"
         stroke-linecap="round"
         stroke-linejoin="round"
         stroke-width="2"
         id="path6" />
    </g>
  </defs>
</svg>
