<?xml version="1.0" encoding="UTF-8" standalone="no"?>
<svg
   ffdec:objectType="frame"
   height="32.879742"
   width="34.322861"
   version="1.1"
   id="svg7"
   sodipodi:docname="UI_Broken_Icon.svg"
   xmlns:inkscape="http://www.inkscape.org/namespaces/inkscape"
   xmlns:sodipodi="http://sodipodi.sourceforge.net/DTD/sodipodi-0.dtd"
   xmlns:xlink="http://www.w3.org/1999/xlink"
   xmlns="http://www.w3.org/2000/svg"
   xmlns:svg="http://www.w3.org/2000/svg"
   xmlns:ffdec="https://www.free-decompiler.com/flash">
  <sodipodi:namedview
     id="namedview7"
     pagecolor="#ffffff"
     bordercolor="#000000"
     borderopacity="0.25"
     inkscape:showpageshadow="2"
     inkscape:pageopacity="0.0"
     inkscape:pagecheckerboard="0"
     inkscape:deskcolor="#d1d1d1" />
  <g
     transform="translate(16.422862,17.57701)"
     id="g1">
    <use
       ffdec:characterId="3338"
       height="32.900002"
       transform="translate(-15.25,-10.95)"
       width="34.349998"
       xlink:href="#sprite0"
       id="use1" />
  </g>
  <defs
     id="defs7">
    <g
       id="sprite0">
      <use
         ffdec:characterId="3337"
         height="32.900002"
         width="34.349998"
         xlink:href="#shape0"
         id="use2" />
    </g>
    <g
       id="shape0">
      <path
         d="m 21.85,11.2 q 1.4,1.05 2,2.45 l 0.3,0.9 3.15,-0.1 0.6,-1 1.55,-0.15 q 1,0.2 1.5,1 0.5,0.75 0.7,2 l -0.15,2.75 -0.5,1.4 q -0.6,1.1 -1.95,1.2 -1,-0.05 -1.65,-0.9 l -0.25,-0.35 -0.1,-0.1 -3,-0.3 q -0.5,2.35 -2.5,3.5 l -0.25,0.2 q -1.75,1.05 -3.35,1.05 -1.8,0.05 -3.65,-0.8 l 1,-2.35 -0.1,-0.25 -1.1,-1.6 -0.6,-0.85 q -0.15,-0.2 0.3,-0.85 l 0.8,-1 1.2,-1.45 0.05,-0.1 -0.3,-0.55 -1.35,-1.65 q -0.8,-0.6 -0.05,-1.45 l 0.3,-0.3 1.5,-1.3 0.85,-0.3 h 0.1 L 17.6,9.8 h 1.5 l 2.05,0.9 0.15,0.1 0.55,0.4 m -9.65,-1 0.1,0.65 -0.05,0.45 -0.35,0.95 -0.75,1.35 0.1,0.1 0.9,1.05 1.35,1.85 -0.4,0.95 -1.8,1.6 0.55,0.6 1.15,1.15 0.2,0.25 q 0.3,0.3 0.1,0.65 L 13,22.45 q -0.75,1.95 -1.55,2.3 L 10.7,24.55 7.2,24.2 5.3,24.1 H 3.25 Q 2.5,24.05 1.9,23.2 L 1.25,22.15 Q 0.45,20.45 0.35,17.8 0.25,16 0.65,15.05 l 0.2,-0.3 Q 1.2,14 2.5,13.6 l 2.8,-1 0.8,-0.4 Q 7,11.75 7.85,11.4 l 1.2,-0.5 0.9,-0.35 0.45,-0.3 0.5,-0.15 1.15,-0.05 0.15,0.15"
         fill="none"
         stroke="#ffffff"
         stroke-linecap="round"
         stroke-linejoin="round"
         stroke-width="3"
         id="path2" />
      <path
         d="M 7.85,11.4 7.2,10.4 Q 6.9,9.8 7.05,9.2 L 7.7,8.25 11.45,4.5 7.75,0.75 7.25,0.05 7.05,-0.4 q 0,-1.1 0.85,-1.95 1,-1 2.05,-0.75 0.55,0.1 1,0.65 l 3.75,3.7 3.75,-3.7 0.7,-0.55 0.45,-0.1 q 1.15,-0.05 1.95,0.75 1.1,1.05 0.75,2.15 l -0.65,0.95 -3.75,3.75 3.8,3.75 0.5,0.7 0.1,0.45 q 0.05,1 -0.45,1.8 l -0.1,0.05 -0.15,0.15 -0.15,0.15 q -1.05,0.85 -2,0.55 l -1,-0.6 L 16.9,9.95 14.7,7.7 12.2,10.2 10.9,11.5 10.25,12 9.8,12.15 8.3,11.75 Z"
         fill="none"
         stroke="#ffffff"
         stroke-linecap="round"
         stroke-linejoin="round"
         stroke-width="7"
         id="path3" />
      <path
         d="m 29.05,21.65 q -1,-0.05 -1.65,-0.9 l -0.25,-0.35 -0.1,-0.1 -3,-0.3 q -0.5,2.35 -2.5,3.5 l -0.25,0.2 q -1.75,1.05 -3.35,1.05 -1.8,0.05 -3.65,-0.8 l 1,-2.35 -0.1,-0.25 -1.1,-1.6 -0.6,-0.85 q -0.15,-0.2 0.3,-0.85 l 0.8,-1 1.2,-1.45 0.05,-0.1 -0.3,-0.55 -1.35,-1.65 q -0.8,-0.6 -0.05,-1.45 l 0.3,-0.3 Q 15.6,10.2 16.8,9.95 L 19.1,9.8 q 1.05,0.25 2.2,1 2.35,1.55 2.85,3.75 l 3.15,-0.1 0.6,-1 1.55,-0.15 q 1,0.2 1.5,1 0.5,0.75 0.7,2 l -0.15,2.75 -0.5,1.4 q -0.6,1.1 -1.95,1.2 m -7.9,-4.35 -1.2,-1.2 -0.8,0.95 0.95,1.05 0.25,0.35 -0.1,0.4 Q 19.7,18.7 18.9,17.8 l -0.2,-0.2 -0.3,0.4 -1,1 -0.3,0.05 0.05,-0.3 1.1,-1.6 -0.85,-0.95 -0.95,0.8 -1.5,1.65 0.9,1.3 0.25,0.3 0.6,0.8 -0.75,1.85 0.4,0.1 1.15,0.2 1.15,-0.05 1.65,-0.6 -0.15,-0.05 Q 20,22.3 19.55,22.25 l -0.6,0.45 -0.3,0.2 -0.35,-0.25 0.4,-0.5 0.15,-0.15 -1.3,-0.75 -0.15,-0.35 0.4,-0.05 1.55,0.6 0.6,-0.6 0.2,-0.2 0.25,0.05 v 0.35 l -0.25,0.5 -0.1,0.2 0.65,0.3 0.15,0.15 0.05,-0.05 q 1.25,-1 1.85,-2.7 L 22.4,19.4 22.3,18.95 q 0.1,-0.35 0.65,-0.4 l 1.6,0.05 2.85,0.45 0.05,-0.3 q 0.3,-0.55 0.35,-0.3 l 0.4,0.8 q 0.35,0.7 0.75,0.75 0.3,0.2 0.75,-0.45 l 0.55,-1.25 q 0.2,-0.7 0.05,-1.5 l -0.5,-1.4 q -0.45,-0.8 -0.9,-0.55 -0.4,0.1 -0.7,0.8 l -0.4,0.8 Q 27.65,16.6 27.3,15.8 l -0.05,-0.2 -2.8,0.5 -1.55,-0.05 -0.6,-0.4 q -0.1,-0.3 0.25,-0.5 -0.45,-1.7 -1.6,-2.75 -1.3,-1.1 -3.15,-1.15 H 17.65 L 17.1,11.3 q -1.45,0.65 -1.75,1.15 l 0.2,0.25 1.15,1.45 0.55,1.05 0.45,-0.45 0.6,-0.55 -1.15,-1.3 -0.3,-0.25 -0.15,-0.2 q 0,-0.25 0.25,-0.25 l 0.35,0.2 1.45,1.35 1.55,-1.15 0.25,0.25 -1.25,1.45 0.8,0.85 q 0.45,-0.45 0.75,-0.4 l -0.3,0.6 -0.15,0.15 1.1,1.15 0.25,0.4 q 0.1,0.3 -0.15,0.4 L 21.15,17.3 m 8.35,-1.2 0.25,0.35 0.25,1 -0.25,0.9 -0.4,0.4 q -0.2,0 -0.3,-0.45 -0.25,-0.35 -0.15,-0.9 -0.1,-0.5 0.1,-0.9 0.15,-0.45 0.5,-0.4 M 7.2,24.2 5.3,24.1 H 3.25 Q 2.5,24.05 1.9,23.2 L 1.25,22.15 Q 0.45,20.45 0.35,17.8 0.25,16 0.65,15.05 l 0.2,-0.3 Q 1.2,14 2.5,13.6 3.85,13.2 6.1,12.2 8.25,11.15 9.95,10.55 l 0.45,-0.3 0.5,-0.15 q 1.6,-0.45 1.4,0.75 l -0.05,0.45 -1.1,2.3 0.1,0.1 0.9,1.05 1.35,1.85 -0.4,0.95 -1.8,1.6 0.55,0.6 1.15,1.15 0.2,0.25 q 0.3,0.3 0.1,0.65 L 13,22.45 q -0.75,1.95 -1.55,2.3 L 10.7,24.55 7.2,24.2 m 0.9,-8.65 0.1,0.1 0.05,0.2 L 8.1,15.95 7.7,15.85 7.25,15.65 6.35,16.5 6.1,16.45 V 16.1 L 6.7,15.3 6.25,15.05 6.2,14.9 6.35,14.7 h 0.2 l 0.5,0.25 0.2,-0.2 q 0.2,-0.2 0.35,-0.25 l 0.3,-0.15 q 0.3,0 0.2,0.35 l -0.3,0.4 -0.2,0.2 0.5,0.25 m 0.45,-2.7 -2.25,1.05 -3.8,1.45 -0.05,0.1 q -0.6,1.3 -0.45,2.9 0.35,2.55 1.5,4.15 l 0.05,0.05 4.05,0.25 2.7,0.3 0.55,0.05 0.65,-1.2 0.1,-0.05 -1.9,-2.3 0.05,-0.4 Q 9.9,18.6 10.5,17.85 l 1.05,-0.95 0.1,-0.1 -0.3,-0.65 -1.1,-1.4 -0.8,-1.1 0.3,-0.6 0.45,-0.85 -0.8,0.3 -0.85,0.35 M 3.05,21.35 3.2,21 4.15,20.25 2.85,18.75 2.75,18.55 2.85,18.4 3,18.45 4.65,19.8 5.1,19.4 4.35,18.55 4.3,18.35 q 0,-0.1 0.2,-0.1 l 0.2,0.1 0.8,0.75 1.4,-1.15 0.3,-0.1 L 7.35,18 5.9,19.45 6,19.5 l 0.45,0.45 0.65,-0.5 0.35,-0.2 0.4,0.1 -0.25,0.3 -0.75,0.7 0.25,0.3 0.15,0.3 -0.2,0.25 q -0.1,0 -0.25,-0.15 l -0.35,-0.4 -0.35,0.3 0.5,0.5 0.05,0.6 L 6.1,21.9 5.45,21.4 5.4,21.45 l -1.55,1 Q 3.7,22.3 3.8,22.15 l 0.25,-0.25 1,-0.8 -0.5,-0.5 -1.25,0.75 H 3.05 M 5.55,19.8 5.1,20.15 5.65,20.55 5.7,20.6 6.05,20.3 5.55,19.8 M 19.5,15.55 18.8,14.8 17.85,15.75 18.7,16.6 19.55,15.7 19.5,15.55"
         fill="#000000"
         fill-rule="evenodd"
         stroke="none"
         id="path4" />
      <path
         d="m 21.15,17.3 0.45,0.15 q 0.25,-0.1 0.15,-0.4 l -0.25,-0.4 -1.1,-1.15 0.15,-0.15 0.3,-0.6 q -0.3,-0.05 -0.75,0.4 L 19.3,14.3 20.55,12.85 20.3,12.6 18.75,13.75 17.3,12.4 16.95,12.2 q -0.25,0 -0.25,0.25 l 0.15,0.2 0.3,0.25 1.15,1.3 -0.6,0.55 -0.45,0.45 -0.55,-1.05 -1.15,-1.45 -0.2,-0.25 q 0.3,-0.5 1.75,-1.15 l 0.55,-0.05 h 0.15 q 1.85,0.05 3.15,1.15 1.15,1.05 1.6,2.75 -0.35,0.2 -0.25,0.5 l 0.6,0.4 1.55,0.05 2.8,-0.5 0.05,0.2 q 0.35,0.8 0.5,0.65 l 0.4,-0.8 q 0.3,-0.7 0.7,-0.8 0.45,-0.25 0.9,0.55 l 0.5,1.4 q 0.15,0.8 -0.05,1.5 L 29.7,19.55 Q 29.25,20.2 28.95,20 28.55,19.95 28.2,19.25 l -0.4,-0.8 q -0.05,-0.25 -0.35,0.3 l -0.05,0.3 -2.85,-0.45 -1.6,-0.05 q -0.55,0.05 -0.65,0.4 l 0.1,0.45 0.35,0.05 q -0.6,1.7 -1.85,2.7 l -0.05,0.05 -0.15,-0.15 -0.65,-0.3 0.1,-0.2 0.25,-0.5 V 20.7 l -0.25,-0.05 -0.2,0.2 -0.6,0.6 -1.55,-0.6 -0.4,0.05 0.15,0.35 1.3,0.75 -0.15,0.15 -0.4,0.5 0.35,0.25 0.3,-0.2 0.6,-0.45 q 0.45,0.05 0.6,0.25 l 0.15,0.05 -1.65,0.6 -1.15,0.05 -1.15,-0.2 -0.4,-0.1 0.75,-1.85 -0.6,-0.8 -0.25,-0.3 -0.9,-1.3 1.5,-1.65 0.95,-0.8 0.85,0.95 -1.1,1.6 -0.05,0.3 0.3,-0.05 1,-1 0.3,-0.4 0.2,0.2 q 0.8,0.9 1.35,1.05 l 0.1,-0.4 -0.25,-0.35 -0.95,-1.05 0.8,-0.95 1.2,1.2 m 8.35,-1.2 q -0.35,-0.05 -0.5,0.4 -0.2,0.4 -0.1,0.9 -0.1,0.55 0.15,0.9 0.1,0.45 0.3,0.45 l 0.4,-0.4 0.25,-0.9 -0.25,-1 L 29.5,16.1 M 8.1,15.55 7.6,15.3 7.8,15.1 8.1,14.7 Q 8.2,14.35 7.9,14.35 L 7.6,14.5 q -0.15,0.05 -0.35,0.25 l -0.2,0.2 -0.5,-0.25 H 6.35 L 6.2,14.9 6.25,15.05 6.7,15.3 6.1,16.1 v 0.35 l 0.25,0.05 0.9,-0.85 0.45,0.2 0.4,0.1 0.15,-0.1 -0.05,-0.2 -0.1,-0.1 m 0.45,-2.7 0.85,-0.35 0.8,-0.3 -0.45,0.85 -0.3,0.6 0.8,1.1 1.1,1.4 0.3,0.65 -0.1,0.1 -1.05,0.95 Q 9.9,18.6 9.75,19.2 l -0.05,0.4 1.9,2.3 -0.1,0.05 -0.65,1.2 L 10.3,23.1 7.6,22.8 3.55,22.55 3.5,22.5 Q 2.35,20.9 2,18.35 1.85,16.75 2.45,15.45 L 2.5,15.35 6.3,13.9 8.55,12.85 m 10.95,2.7 0.05,0.15 -0.85,0.9 -0.85,-0.85 0.95,-0.95 0.7,0.75 M 5.55,19.8 6.05,20.3 5.7,20.6 5.65,20.55 5.1,20.15 5.55,19.8 m -2.5,1.55 H 3.3 l 1.25,-0.75 0.5,0.5 -1,0.8 -0.25,0.25 q -0.1,0.15 0.05,0.3 l 1.55,-1 0.05,-0.05 0.65,0.5 0.55,0.15 -0.05,-0.6 -0.5,-0.5 0.35,-0.3 0.35,0.4 q 0.15,0.15 0.25,0.15 l 0.2,-0.25 -0.15,-0.3 -0.25,-0.3 0.75,-0.7 0.25,-0.3 -0.4,-0.1 -0.35,0.2 -0.65,0.5 L 6,19.5 5.9,19.45 7.35,18 7.2,17.85 6.9,17.95 5.5,19.1 4.7,18.35 4.5,18.25 q -0.2,0 -0.2,0.1 L 4.35,18.55 5.1,19.4 4.65,19.8 3,18.45 2.85,18.4 l -0.1,0.15 0.1,0.2 1.3,1.5 L 3.2,21 3.05,21.35"
         fill="#3d6938"
         fill-rule="evenodd"
         stroke="none"
         id="path5" />
      <path
         d="m 21.65,8.25 0.5,0.7 0.1,0.45 q 0.05,1.1 -0.7,1.95 -1.1,1.05 -2.15,0.75 L 18.45,11.45 14.65,7.7 10.9,11.45 10.2,12 9.8,12.1 q -1.15,0.05 -2.05,-0.75 -1,-1.1 -0.7,-2.2 l 0.6,-0.9 3.8,-3.8 L 7.7,0.7 7.2,0 Q 7.05,-0.1 7.05,-0.45 7,-1.55 7.85,-2.4 q 1,-1 2.1,-0.75 l 0.95,0.65 3.75,3.75 3.75,-3.75 0.7,-0.55 0.5,-0.1 q 1.15,0 1.9,0.75 1.1,1.1 0.8,2.15 L 21.6,0.7 17.9,4.45 Z"
         fill="none"
         stroke="#000000"
         stroke-linecap="round"
         stroke-linejoin="round"
         stroke-width="4"
         id="path6" />
      <path
         d="m 21.7,8.2 0.5,0.7 0.1,0.45 q 0.05,1.15 -0.7,1.95 -1.1,1.05 -2.15,0.75 -0.5,-0.15 -1,-0.65 L 14.7,7.65 10.9,11.4 10.25,11.95 9.8,12.1 Q 8.65,12.1 7.85,11.3 6.8,10.25 7.05,9.1 L 7.7,8.2 11.45,4.4 7.75,0.7 7.25,0 7.05,-0.45 q 0,-1.1 0.85,-2 1,-0.95 2.05,-0.7 l 1,0.6 3.75,3.75 3.75,-3.75 0.7,-0.55 0.45,-0.05 q 1.15,-0.05 1.95,0.7 1.1,1.1 0.75,2.2 L 21.65,0.7 17.9,4.4 21.7,8.2"
         fill="#a60000"
         fill-rule="evenodd"
         stroke="none"
         id="path7" />
    </g>
  </defs>
</svg>
