<?xml version="1.0" encoding="UTF-8" standalone="no"?>
<svg
   ffdec:objectType="frame"
   height="18.200001"
   width="37.814892"
   version="1.1"
   id="svg4"
   sodipodi:docname="STATUS_Blind_Icon.svg"
   xmlns:inkscape="http://www.inkscape.org/namespaces/inkscape"
   xmlns:sodipodi="http://sodipodi.sourceforge.net/DTD/sodipodi-0.dtd"
   xmlns:xlink="http://www.w3.org/1999/xlink"
   xmlns="http://www.w3.org/2000/svg"
   xmlns:svg="http://www.w3.org/2000/svg"
   xmlns:ffdec="https://www.free-decompiler.com/flash">
  <sodipodi:namedview
     id="namedview4"
     pagecolor="#ffffff"
     bordercolor="#000000"
     borderopacity="0.25"
     inkscape:showpageshadow="2"
     inkscape:pageopacity="0.0"
     inkscape:pagecheckerboard="0"
     inkscape:deskcolor="#d1d1d1" />
  <g
     transform="translate(21.864894,9)"
     id="g1">
    <use
       ffdec:characterId="3170"
       height="18.200001"
       transform="translate(-30.65,-13.15)"
       width="37.799999"
       xlink:href="#sprite0"
       id="use1" />
  </g>
  <defs
     id="defs4">
    <g
       id="sprite0">
      <use
         ffdec:characterId="3169"
         height="18.200001"
         width="37.799999"
         xlink:href="#shape0"
         id="use2" />
    </g>
    <g
       id="shape0">
      <path
         d="m 46.6,13.25 q 0,3.55 -1.95,6.1 -2.2,2.9 -5.35,2.8 -3.1,0.1 -5.3,-2.8 l -0.55,-0.85 -0.9,1.15 q -2.55,2.7 -6.1,2.7 -3.6,0 -6.1,-2.7 -1.05,-1.15 -1.75,-2.7 l -2.35,0.3 -0.05,0.1 -0.75,2.25 q -0.25,0.75 -1.85,1.25 h -0.05 l -1.9,0.2 Q 10.05,20.95 9.3,19.8 8.2,19.05 9.45,15.4 l 0.9,-2.35 0.15,-0.35 0.15,-0.3 0.1,-0.1 0.05,-0.05 0.05,-0.1 0.2,-0.2 0.2,-0.2 0.35,-0.3 q 0.35,-0.25 0.85,-0.4 v 0.05 q 0.65,-0.3 2,-0.45 h 0.1 l 3.85,-0.5 q 0.6,-1.8 1.95,-3.3 2.5,-2.7 6.1,-2.7 3.55,0 6.1,2.7 L 33.45,8 34.05,7.1 H 34 q 2.2,-2.9 5.3,-2.8 3.15,-0.1 5.35,2.8 1.95,2.55 1.95,6.15"
         fill="#ffffff"
         fill-rule="evenodd"
         stroke="none"
         id="path2" />
      <path
         d="m 44.6,13.25 q 0,2.85 -1.55,4.9 -1.55,2.05 -3.75,2.05 -2.15,0 -3.7,-2.05 -1.3,-1.7 -1.5,-4 h -0.6 l -0.55,0.05 q -0.25,2.35 -1.85,4.1 -1.95,2.05 -4.65,2.05 -2.75,0 -4.65,-2.05 -1.3,-1.4 -1.9,-3.5 l -5.2,0.65 -0.4,1.45 -0.5,1.6 -0.8,0.45 -1.25,0.15 q -0.55,-0.05 -0.9,-0.45 -0.3,-0.45 0.5,-2.6 l 0.95,-2.5 V 13.5 l 0.05,-0.05 0.1,-0.1 V 13.3 l 0.2,-0.2 0.45,-0.2 1.65,-0.3 5.2,-0.65 H 20 q 0.3,-2.1 1.8,-3.75 1.9,-2.1 4.65,-2.1 2.7,0 4.65,2.1 1.15,1.3 1.6,2.9 h 1.2 0.4 q 0.35,-1.6 1.3,-2.8 1.55,-2.05 3.7,-2.05 2.2,0 3.75,2.05 1.55,2.05 1.55,4.95"
         fill="#000000"
         fill-rule="evenodd"
         stroke="none"
         id="path3" />
      <path
         d="m 21.3,15 7.3,-6.95 0.35,0.1 1.4,1.15 -7.75,7.9 Q 21.75,16.4 21.35,15.3 L 21.3,15 m 4.1,4.25 q -0.95,0 -1.55,-0.7 l 7.35,-7.7 0.35,1.15 0.1,0.55 -6.25,6.7 m 9.85,-3.7 -0.1,-0.65 6.1,-7.1 0.15,0.1 0.9,0.85 0.25,0.4 -6.75,7.7 -0.55,-1.3 m 3.1,3.5 Q 37.6,18.9 37.1,18.3 l 6.2,-7.55 0.35,1.45 -5.3,6.85"
         fill="#ffffff"
         fill-rule="evenodd"
         stroke="none"
         id="path4" />
    </g>
  </defs>
</svg>
