<?xml version="1.0" encoding="UTF-8" standalone="no"?>
<svg
   ffdec:objectType="frame"
   height="33.254402"
   width="30.336353"
   version="1.1"
   id="svg6"
   sodipodi:docname="STATUS_Wet_Icon.svg"
   xmlns:inkscape="http://www.inkscape.org/namespaces/inkscape"
   xmlns:sodipodi="http://sodipodi.sourceforge.net/DTD/sodipodi-0.dtd"
   xmlns:xlink="http://www.w3.org/1999/xlink"
   xmlns="http://www.w3.org/2000/svg"
   xmlns:svg="http://www.w3.org/2000/svg"
   xmlns:ffdec="https://www.free-decompiler.com/flash">
  <sodipodi:namedview
     id="namedview6"
     pagecolor="#ffffff"
     bordercolor="#000000"
     borderopacity="0.25"
     inkscape:showpageshadow="2"
     inkscape:pageopacity="0.0"
     inkscape:pagecheckerboard="0"
     inkscape:deskcolor="#d1d1d1" />
  <g
     transform="translate(15.221761,16.554405)"
     id="g1">
    <use
       ffdec:characterId="3182"
       height="33.25"
       transform="translate(-14.25,-14.55)"
       width="30.4"
       xlink:href="#sprite0"
       id="use1" />
  </g>
  <defs
     id="defs6">
    <g
       id="sprite0">
      <use
         ffdec:characterId="3181"
         height="33.25"
         width="30.4"
         xlink:href="#shape0"
         id="use2" />
    </g>
    <g
       id="shape0">
      <path
         d="m 25.05,2.5 q 0.25,0.9 1.1,2.2 l 1.25,2.2 q 1.1,2.6 -0.3,5.25 l -1.05,1.35 q -1.05,0.9 -2.6,1 -1.5,0 -2.6,-0.85 Q 19.45,12.6 19.1,10.7 18.75,9.25 19.3,7.3 19.75,5.85 21.4,2.9 L 23,0.15 q 0.45,-0.75 0.85,-0.65 l 0.4,0.35 q 0.35,0.45 0.5,1.25 l 0.3,1.4 m -8.6,11.9 q 0.5,-1.75 1.25,-1.6 0.8,0.15 3.15,6.45 l 1.25,3.2 0.25,2.1 -0.2,1.3 q -0.5,1.8 -2.25,3.05 L 18.25,29.65 17,29.75 Q 15.45,29.5 14.25,28.3 13.1,27.15 12.85,26 q -0.3,-1.15 -0.15,-2.2 0.1,-1.1 1.15,-3.2 l 1.6,-3.3 1,-2.9 M 10.5,7.85 q 2.3,4.4 2.6,6.4 Q 13.35,16 12.85,17.8 12.3,19.55 11.4,20.65 10.45,21.7 8.55,22.25 6.65,22.8 4.15,21.9 1.6,20.95 0.9,18.3 0.15,15.65 0.9,13.45 1.65,11.2 2.45,9.6 L 4,6.4 6.35,1.15 6.75,0.6 q 0.15,-0.15 0.4,0 l 0.4,0.7 Q 8.5,4.05 10.5,7.85"
         fill="#ffffff"
         fill-rule="evenodd"
         stroke="none"
         id="path2" />
      <path
         d="m 25.05,2.5 q 0.25,0.9 1.1,2.2 l 1.25,2.2 q 1.1,2.6 -0.3,5.25 l -1.05,1.35 q -1.05,0.9 -2.6,1 -1.5,0 -2.6,-0.85 Q 19.45,12.6 19.1,10.7 18.75,9.25 19.3,7.3 19.75,5.85 21.4,2.9 L 23,0.15 q 0.45,-0.75 0.85,-0.65 l 0.4,0.35 q 0.35,0.45 0.5,1.25 l 0.3,1.4 m -8.6,11.9 q 0.5,-1.75 1.25,-1.6 0.8,0.15 3.15,6.45 l 1.25,3.2 0.25,2.1 -0.2,1.3 q -0.5,1.8 -2.25,3.05 L 18.25,29.65 17,29.75 Q 15.45,29.5 14.25,28.3 13.1,27.15 12.85,26 q -0.3,-1.15 -0.15,-2.2 0.1,-1.1 1.15,-3.2 l 1.6,-3.3 1,-2.9 M 10.5,7.85 q 2.3,4.4 2.6,6.4 Q 13.35,16 12.85,17.8 12.3,19.55 11.4,20.65 10.45,21.7 8.55,22.25 6.65,22.8 4.15,21.9 1.6,20.95 0.9,18.3 0.15,15.65 0.9,13.45 1.65,11.2 2.45,9.6 L 4,6.4 6.35,1.15 6.75,0.6 q 0.15,-0.15 0.4,0 l 0.4,0.7 Q 8.5,4.05 10.5,7.85 Z"
         fill="none"
         stroke="#ffffff"
         stroke-linecap="round"
         stroke-linejoin="round"
         stroke-width="3"
         id="path3" />
      <path
         d="m 25.35,12.65 q -1.1,0.7 -2.2,0.6 L 22.3,13.1 20.95,11.95 20.5,11.25 Q 20.3,10.8 20.4,9.8 20.5,8.35 20.85,6.95 21.45,4.55 22.8,2.4 l 0.45,-0.45 0.55,-0.05 0.4,0.4 0.1,0.35 0.2,0.25 0.65,1.5 0.9,2.5 q 0.55,1.5 0.6,2.55 l -0.25,1.8 -0.4,0.8 -0.65,0.6 m -2.6,-4 -0.05,-1.2 Q 22.6,6.85 22.25,6.8 h -0.1 q -0.25,0 -0.5,0.3 -0.3,0.35 -0.45,1 -0.15,0.65 0,1.15 l 0.35,0.6 0.1,0.05 q 0.3,0.1 0.6,-0.3 l 0.5,-0.95 m -3,10.2 1.05,2.8 0.3,1 q 0.65,2.6 -1,4.8 l -0.85,0.75 q -1.15,0.8 -3.2,0 L 15.1,27.6 14.3,26.25 q -0.55,-1.2 -0.55,-2 -0.05,-0.6 0.35,-1.7 l 1.4,-2.8 1.3,-2.85 0.4,-1.75 q 0.2,-0.25 0.5,-0.35 l 0.45,0.2 0.75,1.1 0.2,0.95 0.65,1.8 M 1.95,17.65 Q 1.35,16 2.1,13 L 2.9,10.4 6.3,4.3 6.75,3.65 q 0.45,-0.3 0.75,0 l 0.3,0.45 0.6,0.55 0.9,1.6 1,2.7 0.6,1.15 0.75,1.65 0.3,1.35 q 0.2,1.65 0,3.1 -0.05,1.3 -0.55,2.3 l -0.3,0.6 -0.55,0.85 Q 10,20.45 8.75,20.8 l -2,0.2 H 6.65 Q 4.7,20.95 3.55,20.05 2.65,19.35 2.2,18.1 L 1.95,17.65 m 15.1,5.05 V 21.6 L 16.5,21 h -0.15 q -0.3,0 -0.6,0.3 -0.35,0.3 -0.5,0.9 -0.2,0.6 0,1.05 l 0.4,0.55 0.1,0.05 0.75,-0.25 0.55,-0.9 M 6.85,11.9 Q 7.05,11 6.8,10.3 6.55,9.5 6,9.4 H 5.75 q -0.4,0 -0.85,0.4 -0.55,0.5 -0.8,1.4 -0.25,0.85 0,1.55 l 0.6,0.8 0.2,0.1 q 0.55,0.1 1.1,-0.4 L 6.85,11.9"
         fill="#9ab2d9"
         fill-rule="evenodd"
         stroke="none"
         id="path4" />
      <path
         d="m 22.75,8.65 -0.5,0.95 q -0.3,0.4 -0.6,0.3 L 21.55,9.85 21.2,9.25 q -0.15,-0.5 0,-1.15 0.15,-0.65 0.45,-1 0.25,-0.3 0.5,-0.3 h 0.1 q 0.35,0.05 0.45,0.65 l 0.05,1.2 M 6.85,11.9 6,13.25 q -0.55,0.5 -1.1,0.4 L 4.7,13.55 4.1,12.75 Q 3.85,12.05 4.1,11.2 4.35,10.3 4.9,9.8 5.35,9.4 5.75,9.4 H 6 q 0.55,0.1 0.8,0.9 0.25,0.7 0.05,1.6 m 10.2,10.8 -0.55,0.9 -0.75,0.25 -0.1,-0.05 -0.4,-0.55 q -0.2,-0.45 0,-1.05 0.15,-0.6 0.5,-0.9 0.3,-0.3 0.6,-0.3 h 0.15 l 0.55,0.6 v 1.1"
         fill="#ffffff"
         fill-rule="evenodd"
         stroke="none"
         id="path5" />
      <path
         d="m 25.05,2.5 q 0.25,0.9 1.1,2.2 l 1.25,2.2 q 1.1,2.6 -0.3,5.25 l -1.05,1.35 q -1.05,0.9 -2.6,1 -1.5,0 -2.6,-0.85 Q 19.45,12.6 19.1,10.7 18.75,9.25 19.3,7.3 19.75,5.85 21.4,2.9 L 23,0.15 q 0.45,-0.75 0.85,-0.65 l 0.4,0.35 q 0.35,0.45 0.5,1.25 l 0.3,1.4 m -3.3,9.7 0.7,0.4 1,0.2 q 1.45,0 2.25,-1.55 Q 26.45,9.7 26,8.05 L 24.95,6.05 24.35,5 Q 23.8,4.15 23.6,3.55 L 23.4,2.55 21.6,6 Q 21.15,7.1 20.85,8.15 L 20.7,9.4 q 0,1.15 0.5,2 l 0.55,0.8 m -5.3,2.2 q 0.5,-1.75 1.25,-1.6 0.8,0.15 3.15,6.45 l 1.25,3.2 0.25,2.1 -0.2,1.3 q -0.5,1.8 -2.25,3.05 L 18.25,29.65 17,29.75 Q 15.45,29.5 14.25,28.3 13.1,27.15 12.85,26 q -0.3,-1.15 -0.15,-2.2 0.1,-1.1 1.15,-3.2 l 1.6,-3.3 1,-2.9 M 10.5,7.85 q 2.3,4.4 2.6,6.4 Q 13.35,16 12.85,17.8 12.3,19.55 11.4,20.65 10.45,21.7 8.55,22.25 6.65,22.8 4.15,21.9 1.6,20.95 0.9,18.3 0.15,15.65 0.9,13.45 1.65,11.2 2.45,9.6 L 4,6.4 6.35,1.15 6.75,0.6 q 0.15,-0.15 0.4,0 l 0.4,0.7 Q 8.5,4.05 10.5,7.85 m -2.75,12.3 q 1.2,-0.25 2.35,-1.45 1.2,-1.25 1.25,-3.35 0,-2.1 -1.6,-4.85 Q 7.75,7 7.4,5.9 L 7.3,5.65 6.85,4.35 6.05,6.45 3.6,11.75 q -1.3,2.8 -1.1,4.35 0.2,1.55 0.95,2.65 0.65,1.05 1.9,1.35 l 2.4,0.05 m 9.1,-2.55 -1.3,3.35 -0.8,1.9 q -0.35,0.85 -0.3,2.25 0.05,1.35 1.2,2.2 0.9,0.75 2,0.75 0.6,-0.15 1.5,-0.85 1.15,-1.2 1.3,-2.7 l -0.3,-1.85 -1.2,-3.2 L 18.8,19.1 18.75,19 18.4,18.3 17.55,15.9 17.5,15.6 l -0.65,2"
         fill="#000000"
         fill-rule="evenodd"
         stroke="none"
         id="path6" />
    </g>
  </defs>
</svg>
