<?xml version="1.0" encoding="UTF-8" standalone="no"?>
<svg
   ffdec:objectType="frame"
   height="31.524805"
   width="22.110117"
   version="1.1"
   id="svg7"
   sodipodi:docname="UI_Brittle_Icon.svg"
   xmlns:inkscape="http://www.inkscape.org/namespaces/inkscape"
   xmlns:sodipodi="http://sodipodi.sourceforge.net/DTD/sodipodi-0.dtd"
   xmlns:xlink="http://www.w3.org/1999/xlink"
   xmlns="http://www.w3.org/2000/svg"
   xmlns:svg="http://www.w3.org/2000/svg"
   xmlns:ffdec="https://www.free-decompiler.com/flash">
  <sodipodi:namedview
     id="namedview7"
     pagecolor="#ffffff"
     bordercolor="#000000"
     borderopacity="0.25"
     inkscape:showpageshadow="2"
     inkscape:pageopacity="0.0"
     inkscape:pagecheckerboard="0"
     inkscape:deskcolor="#d1d1d1" />
  <g
     transform="translate(10.950677,15.024805)"
     id="g1">
    <use
       ffdec:characterId="3316"
       height="31.549999"
       transform="translate(-5,-6)"
       width="22.1"
       xlink:href="#sprite0"
       id="use1" />
  </g>
  <defs
     id="defs7">
    <g
       id="sprite0">
      <use
         ffdec:characterId="3315"
         height="31.549999"
         width="22.1"
         xlink:href="#shape0"
         id="use2" />
    </g>
    <g
       id="shape0">
      <path
         d="m 0.5,-5 q 0,1.05 0.85,1.75 L 1.7,-3 v 0.05 l 0.3,3 q -2.25,0.5 -3.55,2.5 L -1.7,2.8 q -1.15,1.7 -1.2,3.4 l 0.15,1.85 V 8.1 l 1.8,6.35 0.2,0.8 0.4,2.05 q 0.15,0.7 1.1,1.2 l 1.1,0.45 4.35,0.25 2.7,-0.7 0.35,-0.25 q 0.6,-0.5 0.8,-1.8 L 10.95,12.7 12,8.7 12.15,8.1 12.3,6.25 Q 12.25,4.55 11.1,2.85 9.65,0.6 7.45,0.1 l 0.25,-3 V -2.95 L 8.1,-3.2 Q 8.9,-3.9 8.9,-4.95 8.8,-6.2 7.75,-6.8 7.15,-7.2 6.1,-7.4 H 6.05 q -1.55,-0.25 -2.9,0 L 1.7,-6.85 Q 0.6,-6.25 0.5,-5 M 0.3,19.7 Q 0.6,19.35 0.35,19.15 L -1,17.85 -1.1,17.75 h -0.15 q -1.7,0.35 -2.4,0.65 l -0.6,0.3 q -0.35,0.3 -0.1,0.6 l 1.05,1.2 0.05,0.05 1.1,0.15 H -2.1 L -0.2,19.95 0.3,19.7 M 11.25,21 13.7,20.85 h 0.05 l 0.85,-0.45 0.05,-0.05 q 0.15,-0.3 -1.2,-1.25 -1.4,-0.95 -1.9,-0.5 v 0.05 L 10,19.95 9.95,20.05 9.9,20.15 9.85,20.2 9.9,20.05 Q 9.7,20.3 9.75,20.5 l 0.3,0.35 z"
         fill="none"
         stroke="#ffffff"
         stroke-linecap="round"
         stroke-linejoin="round"
         stroke-width="3"
         id="path2" />
      <path
         d="M 0.5,-4.9 Q 0.6,-6.15 1.7,-6.75 L 3.15,-7.3 q 1.35,-0.25 2.9,0 H 6.1 q 1.05,0.2 1.65,0.6 1.05,0.6 1.15,1.85 0,1.05 -0.8,1.75 l -0.4,0.25 v 0.05 l -0.25,3 q 2.2,0.5 3.65,2.75 1.15,1.7 1.2,3.4 L 12.15,8.2 12,8.8 l -1.05,4 -0.9,3.75 q -0.2,1.3 -0.8,1.8 L 8.9,18.6 6.2,19.3 1.85,19.05 0.75,18.6 q -0.95,-0.5 -1.1,-1.2 l -0.4,-2.05 -0.2,-0.8 -1.8,-6.35 V 8.15 L -2.9,6.3 q 0.05,-1.7 1.2,-3.4 l 0.15,-0.25 q 1.3,-2 3.55,-2.5 l -0.3,-3 V -2.9 L 1.35,-3.15 Q 0.5,-3.85 0.5,-4.9 M 6,-5.1 q 0,0.25 -0.35,0.4 L 4.7,-4.55 3.8,-4.7 Q 3.4,-4.85 3.4,-5.1 L 3.8,-5.5 4.7,-5.65 5.65,-5.5 6,-5.1 M 2.55,-5.45 Q 1.95,-5.1 2.1,-4.7 L 2.85,-4 3.7,-3.55 3.15,-3.1 3.05,-3.05 3.45,-0.3 V 1.3 Q 3.35,1.85 3.05,1.9 2.75,1.95 2.55,1.65 L 2.5,1.5 Q 0.9,2.05 -0.2,3.35 -1.25,4.7 -1.25,6.4 l 0.15,1.45 0.1,0.4 0.15,0.6 0.2,0.7 0.2,0.7 0.65,2.5 0.85,4.1 0.1,0.05 q 1.75,0.9 4.4,0.85 1.55,-0.2 2.7,-0.8 L 8.35,16.9 Q 8.55,15.2 9.2,12.8 L 9.85,10.45 10.1,9.5 10.4,8.3 V 8.25 L 10.65,6.7 V 6.45 Q 10.65,4.75 9.6,3.4 8.5,2.1 6.9,1.55 L 6.85,1.7 Q 6.65,2 6.35,1.95 6.05,1.9 5.95,1.35 v -1.6 L 6.35,-3 6.25,-3.05 Q 5.5,-3.35 5.6,-3.45 L 6.45,-3.9 7.3,-4.65 Q 7.45,-5.05 6.75,-5.5 6.1,-5.95 5.3,-6.05 L 3.8,-6 2.55,-5.45"
         fill="#000000"
         fill-rule="evenodd"
         stroke="none"
         id="path3" />
      <path
         d="M 2.55,-5.45 3.8,-6 5.3,-6.05 q 0.8,0.1 1.45,0.55 0.7,0.45 0.55,0.85 L 6.45,-3.9 5.6,-3.45 q -0.1,0.1 0.65,0.4 l 0.1,0.05 -0.4,2.75 v 1.6 Q 6.05,1.9 6.35,1.95 6.65,2 6.85,1.7 L 6.9,1.55 Q 8.5,2.1 9.6,3.4 10.65,4.75 10.65,6.45 V 6.7 L 10.4,8.25 V 8.3 L 10.1,9.5 9.85,10.45 9.2,12.8 q -0.65,2.4 -0.85,4.1 l -0.1,0.05 Q 7.1,17.55 5.55,17.75 2.9,17.8 1.15,16.9 L 1.05,16.85 0.2,12.75 -0.45,10.25 -0.65,9.55 -0.85,8.85 -1,8.25 -1.1,7.85 -1.25,6.4 q 0,-1.7 1.05,-3.05 1.1,-1.3 2.7,-1.85 l 0.05,0.15 q 0.2,0.3 0.5,0.25 0.3,-0.05 0.4,-0.6 V -0.3 L 3.05,-3.05 3.15,-3.1 3.7,-3.55 2.85,-4 2.1,-4.7 Q 1.95,-5.1 2.55,-5.45 M 6,-5.1 5.65,-5.5 4.7,-5.65 3.8,-5.5 3.4,-5.1 q 0,0.25 0.4,0.4 L 4.7,-4.55 5.65,-4.7 Q 6,-4.85 6,-5.1"
         fill="#3d6938"
         fill-rule="evenodd"
         stroke="none"
         id="path4" />
      <path
         d="m 5.5,-0.8 1.25,0.05 -0.1,0.3 H 6.55 5.8 5.6 L 5.5,-0.3 4.7,0.5 3.3,1.15 3.2,0.7 q 1.4,-0.5 2,-1.2 L 4.75,-0.7 4.45,-1 3.05,-2.3 2.8,-2.55 2.85,-2.8 2.7,-3.25 4.8,-1.2 5.5,-0.8 M 3.9,5.25 4.2,4.75 4.65,4.35 q 0.8,-0.5 1.9,-0.7 L 7.1,2.5 8.1,2.35 8.35,1.95 8.45,1.65 Q 9,1.7 8.9,2.15 L 8.5,2.75 8,2.95 7.5,3 7,4 6.7,4.15 7.05,5.25 7.2,5.5 7.4,5.65 7.95,5.9 8.35,6.3 8.9,9.35 v 0.2 l 1.25,0.7 -0.15,0.55 -0.05,-0.05 -1.3,-0.7 -2.4,2.05 -0.15,0.15 0.3,1.25 0.15,1 v 0.1 l 0.1,0.4 1.2,0.85 -0.1,1.4 L 7,18.3 V 17.5 L 7.3,16.1 6,15.15 5.3,15.1 4.8,15.05 3.3,16.8 l 0.5,1.05 -0.25,0.5 -1.5,-2.7 -1.4,0.2 -0.15,-0.5 1.3,-0.15 0.55,0.15 0.2,0.25 0.35,0.55 1.25,-1.25 -0.2,-1.1 h -0.5 q -0.35,0 -0.4,-0.2 L 3.1,11.5 2.95,11.35 2.3,10.9 0.9,10.25 0.75,10.4 -0.4,11.55 -0.6,10.95 0.05,10.25 0.55,9.8 0.6,9.55 0.65,9.35 1.05,8.3 1.35,7.75 1.45,7.6 1.5,7.55 1.8,7.4 3.3,6.5 2.65,5.45 1.6,5.35 1,5.2 0.85,4.95 0.35,4.4 -0.2,3.95 -0.9,3.7 -1.5,3.6 -1.2,3.15 -0.25,3.4 0.2,3.55 0.5,3.8 1.25,4.55 1.4,4.75 1.6,4.8 2.3,4.85 3.9,5.25 M 4.95,4.8 4.6,5.1 4.4,5.5 3.95,6.6 3.9,6.7 3.25,7.1 1.95,7.95 1.7,8.15 1.2,9.7 v 0.05 l 2.35,1.2 0.05,2.2 2.2,0.4 L 5.6,12.25 5.65,11.9 8.25,9.35 7.8,6.8 7.7,6.55 7.5,6.4 7.1,6.2 6.75,5.95 6.55,5.55 6.25,4.3 4.95,4.8 M 2.8,5.5 H 2.75 2.8 M 2.95,5.9 2.7,5.45 2.95,5.9 M 11.15,21 9.95,20.85 9.65,20.5 9.8,20.05 9.75,20.2 9.8,20.15 l 0.05,-0.1 0.05,-0.1 1.55,-1.3 V 18.6 q 0.5,-0.45 1.9,0.5 1.35,0.95 1.2,1.25 L 14.5,20.4 13.65,20.85 H 13.6 L 11.15,21 M 0.2,19.7 -0.3,19.95 -2.2,20.7 H -2.25 L -3.35,20.55 -3.4,20.5 -4.45,19.3 Q -4.7,19 -4.35,18.7 l 0.6,-0.3 2.4,-0.65 h 0.15 l 0.1,0.1 1.35,1.3 Q 0.5,19.35 0.2,19.7 m 13.2,0.35 -1.5,-0.55 -0.1,-0.05 -0.15,0.1 -0.1,0.1 -0.4,0.3 -0.15,0.15 0.2,-0.05 h 2.2 m -16.8,-0.9 0.1,0.3 0.45,0.4 1.4,-0.35 0.7,-0.25 -0.75,-0.75 -1.9,0.65"
         fill="#000000"
         fill-rule="evenodd"
         stroke="none"
         id="path5" />
      <path
         d="m -3.4,19.15 1.9,-0.65 0.75,0.75 -0.7,0.25 -1.4,0.35 -0.45,-0.4 -0.1,-0.3 m 16.8,0.9 h -2.2 l -0.2,0.05 0.15,-0.15 0.4,-0.3 0.1,-0.1 0.15,-0.1 0.1,0.05 1.5,0.55"
         fill="#3d6938"
         fill-rule="evenodd"
         stroke="none"
         id="path6" />
      <path
         d="M 5.5,-0.8 4.8,-1.2 2.7,-3.25 2.85,-2.8 2.8,-2.55 3.05,-2.3 4.45,-1 4.75,-0.7 5.2,-0.5 Q 4.6,0.2 3.2,0.7 L 3.3,1.15 4.7,0.5 5.5,-0.3 5.6,-0.45 h 0.2 0.75 0.1 L 6.75,-0.75 5.5,-0.8 M 3.9,5.25 4.2,4.75 4.65,4.35 q 0.8,-0.5 1.9,-0.7 L 7.1,2.5 8.1,2.35 8.35,1.95 8.45,1.65 Q 9,1.7 8.9,2.15 L 8.5,2.75 8,2.95 7.5,3 7,4 6.7,4.15 7.05,5.25 7.2,5.5 7.4,5.65 7.95,5.9 8.35,6.3 8.9,9.35 v 0.2 l 1.25,0.7 -0.15,0.55 -0.05,-0.05 -1.3,-0.7 -2.4,2.05 -0.15,0.15 0.3,1.25 0.15,1 v 0.1 l 0.1,0.4 1.2,0.85 -0.1,1.4 L 7,18.3 V 17.5 L 7.3,16.1 6,15.15 5.3,15.1 4.8,15.05 3.3,16.8 l 0.5,1.05 -0.25,0.5 -1.5,-2.7 -1.4,0.2 -0.15,-0.5 1.3,-0.15 0.55,0.15 0.2,0.25 0.35,0.55 1.25,-1.25 -0.2,-1.1 h -0.5 q -0.35,0 -0.4,-0.2 L 3.1,11.5 2.95,11.35 2.3,10.9 0.9,10.25 0.75,10.4 -0.4,11.55 -0.6,10.95 0.05,10.25 0.55,9.8 0.6,9.55 0.65,9.35 1.05,8.3 1.35,7.75 1.45,7.6 1.5,7.55 1.8,7.4 3.3,6.5 2.65,5.45 1.6,5.35 1,5.2 0.85,4.95 0.35,4.4 -0.2,3.95 -0.9,3.7 -1.5,3.6 -1.2,3.15 -0.25,3.4 0.2,3.55 0.5,3.8 1.25,4.55 1.4,4.75 1.6,4.8 2.3,4.85 3.9,5.25 M 4.95,4.8 4.6,5.1 4.4,5.5 3.95,6.6 3.9,6.7 3.25,7.1 1.95,7.95 1.7,8.15 1.2,9.7 v 0.05 l 2.35,1.2 0.05,2.2 2.2,0.4 L 5.6,12.25 5.65,11.9 8.25,9.35 7.8,6.8 7.7,6.55 7.5,6.4 7.1,6.2 6.75,5.95 6.55,5.55 6.25,4.3 4.95,4.8 M 2.8,5.5 H 2.75 2.8 M 2.95,5.9 2.7,5.45 2.95,5.9 M 0.2,19.7 q 0.3,-0.35 0.05,-0.55 l -1.35,-1.3 -0.1,-0.1 h -0.15 l -2.4,0.65 -0.6,0.3 q -0.35,0.3 -0.1,0.6 l 1.05,1.2 0.05,0.05 1.1,0.15 H -2.2 L -0.3,19.95 0.2,19.7 M 11.15,21 13.6,20.85 h 0.05 l 0.85,-0.45 0.05,-0.05 q 0.15,-0.3 -1.2,-1.25 -1.4,-0.95 -1.9,-0.5 v 0.05 l -1.55,1.3 -0.05,0.1 -0.05,0.1 -0.05,0.05 0.05,-0.15 -0.15,0.45 0.3,0.35 z"
         ffdec:has-small-stroke="true"
         ffdec:original-stroke-width="0.5"
         fill="none"
         stroke="#000000"
         stroke-linecap="round"
         stroke-linejoin="round"
         stroke-width="1"
         id="path7" />
    </g>
  </defs>
</svg>
