<?xml version="1.0" encoding="UTF-8" standalone="no"?>
<svg
   ffdec:objectType="frame"
   height="34.273048"
   width="37.076019"
   version="1.1"
   id="svg8"
   sodipodi:docname="STATUS_Soul Link_Icon.svg"
   xmlns:inkscape="http://www.inkscape.org/namespaces/inkscape"
   xmlns:sodipodi="http://sodipodi.sourceforge.net/DTD/sodipodi-0.dtd"
   xmlns:xlink="http://www.w3.org/1999/xlink"
   xmlns="http://www.w3.org/2000/svg"
   xmlns:svg="http://www.w3.org/2000/svg"
   xmlns:ffdec="https://www.free-decompiler.com/flash">
  <sodipodi:namedview
     id="namedview8"
     pagecolor="#ffffff"
     bordercolor="#000000"
     borderopacity="0.25"
     inkscape:showpageshadow="2"
     inkscape:pageopacity="0.0"
     inkscape:pagecheckerboard="0"
     inkscape:deskcolor="#d1d1d1" />
  <g
     transform="translate(18.306731,16.573048)"
     id="g1">
    <use
       ffdec:characterId="3184"
       height="34.599998"
       transform="translate(-15.2,-14.65)"
       width="37.049999"
       xlink:href="#sprite0"
       id="use1" />
  </g>
  <defs
     id="defs8">
    <g
       id="sprite0">
      <use
         ffdec:characterId="3183"
         height="34.599998"
         width="37.049999"
         xlink:href="#shape0"
         id="use2" />
    </g>
    <g
       id="shape0">
      <path
         d="m 18.15,3.3 1.15,-1 q 0.45,-0.45 0.95,-0.55 l 1.2,0.1 q 0.6,0.2 1.2,0.7 L 23.6,3.5 23.65,3.45 Q 26,1 26.55,1.15 q 0.45,0.05 1.5,1.1 1.05,1.05 1.1,1.5 0.15,0.55 -2.3,2.9 l -0.05,0.05 1,1 0.7,1.2 q 0.2,0.6 0.05,1.15 l -0.5,1 -1.55,1.65 -3.3,3.3 -1.6,1.5 -1.05,0.55 -1.1,-0.1 -1.2,-0.7 -1,-0.9 -0.4,0.3 -0.1,0.1 -0.1,0.1 -0.1,0.1 0.95,1.05 0.7,1.2 q 0.2,0.6 0.05,1.15 l -0.5,1 -1.5,1.6 -0.5,0.5 h 0.05 q 1.1,-0.05 2.3,-0.7 l 1.85,-1.2 0.9,-0.95 1.55,-1.8 q 1.35,-1.4 2.15,-1.8 0.85,-0.4 1.65,-0.55 l 2.05,0.3 q 1.25,0.35 2.45,1.5 1.3,1.15 1.65,2.95 0.35,1.75 -0.3,3.35 -0.65,1.6 -1.4,2.4 L 28.25,29 q -1.95,1.3 -4.85,1.85 l -6,-0.35 q -2.9,-1 -4.85,-3.35 l -0.2,-0.25 -1.05,0.9 -1,0.5 -1.15,-0.05 Q 8.5,28 7.95,27.55 L 6.9,26.6 Q 4.55,29.05 3.95,28.95 3.55,28.85 2.5,27.8 1.45,26.75 1.35,26.35 1.25,25.75 3.7,23.4 L 2.8,22.4 2.1,21.2 Q 1.85,20.55 2,20 2.1,19.5 2.55,19.05 L 4,17.4 7.35,14.05 9,12.6 q 0.45,-0.45 0.95,-0.55 l 1.2,0.1 q 0.6,0.2 1.2,0.7 l 1,0.9 0.25,-0.25 0.4,-0.4 -0.9,-1 q -0.5,-0.6 -0.7,-1.2 -0.25,-0.65 -0.15,-1.15 0.15,-0.55 0.6,-1 L 14.05,7.4 12.7,7.9 Q 11.45,8.55 10.9,9.15 L 10,10 8.4,11.8 Q 7.1,13.25 6.25,13.7 L 4.6,14.2 2.55,13.9 Q 1.3,13.5 0.05,12.4 -1.15,11.25 -1.45,9.5 -1.85,7.7 -1.25,6.1 -0.65,4.55 0.2,3.7 l 2.4,-2 q 1.85,-1.35 4.75,-1.9 3.25,-0.6 6.05,0.4 2.7,0.9 4.75,3.1 L 17.6,3.8 14.3,7.1 14.05,7.4 14.9,7.2 Q 16,7.05 17.05,7.8 l 1.8,1.6 1.1,1.3 q 0.3,0.45 0.55,0.25 L 20.85,10.5 20.9,9.55 20.85,9.1 V 8.85 Q 20.25,5.8 18.3,3.5 L 18.15,3.3 18.3,3.5 q 1.95,2.3 2.55,5.35 V 9.1 l 0.05,0.45 -0.05,0.95 -0.35,0.45 q -0.25,0.2 -0.55,-0.25 L 18.85,9.4 17.05,7.8 Q 16,7.05 14.9,7.2 L 14.05,7.4 14.3,7.1 17.6,3.8 18.15,3.3 m -2.4,20.15 -2.85,2.85 -0.55,0.6 q -1.8,-2.25 -2.4,-5.1 v -0.2 -0.55 -0.9 q 0.1,-0.4 0.35,-0.5 0.35,-0.1 0.6,0.3 l 1.05,1.25 q 0.75,0.95 1.8,1.7 1,0.7 2,0.55 -1,0.15 -2,-0.55 -1.05,-0.75 -1.8,-1.7 L 10.9,19.95 q -0.25,-0.4 -0.6,-0.3 -0.25,0.1 -0.35,0.5 v 0.9 0.55 0.2 q 0.6,2.85 2.4,5.1 l 0.55,-0.6 2.85,-2.85"
         fill="#ffffff"
         fill-rule="evenodd"
         stroke="none"
         id="path2" />
      <path
         d="m 18.15,3.3 1.15,-1 q 0.45,-0.45 0.95,-0.55 l 1.2,0.1 q 0.6,0.2 1.2,0.7 L 23.6,3.5 23.65,3.45 Q 26,1 26.55,1.15 q 0.45,0.05 1.5,1.1 1.05,1.05 1.1,1.5 0.15,0.55 -2.3,2.9 l -0.05,0.05 1,1 0.7,1.2 q 0.2,0.6 0.05,1.15 l -0.5,1 -1.55,1.65 -3.3,3.3 -1.6,1.5 -1.05,0.55 -1.1,-0.1 -1.2,-0.7 -1,-0.9 -0.4,0.3 -0.1,0.1 -0.1,0.1 -0.1,0.1 0.95,1.05 0.7,1.2 q 0.2,0.6 0.05,1.15 l -0.5,1 -1.5,1.6 -0.5,0.5 h 0.05 q 1.1,-0.05 2.3,-0.7 l 1.85,-1.2 0.9,-0.95 1.55,-1.8 q 1.35,-1.4 2.15,-1.8 0.85,-0.4 1.65,-0.55 l 2.05,0.3 q 1.25,0.35 2.45,1.5 1.3,1.15 1.65,2.95 0.35,1.75 -0.3,3.35 -0.65,1.6 -1.4,2.4 L 28.25,29 q -1.95,1.3 -4.85,1.85 l -6,-0.35 q -2.9,-1 -4.85,-3.35 l -0.2,-0.25 -1.05,0.9 -1,0.5 -1.15,-0.05 Q 8.5,28 7.95,27.55 L 6.9,26.6 Q 4.55,29.05 3.95,28.95 3.55,28.85 2.5,27.8 1.45,26.75 1.35,26.35 1.25,25.75 3.7,23.4 L 2.8,22.4 2.1,21.2 Q 1.85,20.55 2,20 2.1,19.5 2.55,19.05 L 4,17.4 7.35,14.05 9,12.6 q 0.45,-0.45 0.95,-0.55 l 1.2,0.1 q 0.6,0.2 1.2,0.7 l 1,0.9 0.25,-0.25 0.4,-0.4 -0.9,-1 q -0.5,-0.6 -0.7,-1.2 -0.25,-0.65 -0.15,-1.15 0.15,-0.55 0.6,-1 L 14.05,7.4 12.7,7.9 Q 11.45,8.55 10.9,9.15 L 10,10 8.4,11.8 Q 7.1,13.25 6.25,13.7 L 4.6,14.2 2.55,13.9 Q 1.3,13.5 0.05,12.4 -1.15,11.25 -1.45,9.5 -1.85,7.7 -1.25,6.1 -0.65,4.55 0.2,3.7 l 2.4,-2 q 1.85,-1.35 4.75,-1.9 3.25,-0.6 6.05,0.4 2.7,0.9 4.75,3.1 l 0.15,0.2 q 1.95,2.3 2.55,5.35 V 9.1 l 0.05,0.45 -0.05,0.95 -0.35,0.45 q -0.25,0.2 -0.55,-0.25 L 18.85,9.4 17.05,7.8 Q 16,7.05 14.9,7.2 L 14.05,7.4 14.3,7.1 17.6,3.8 18.15,3.3 m -2.4,20.15 q -1,0.15 -2,-0.55 -1.05,-0.75 -1.8,-1.7 L 10.9,19.95 q -0.25,-0.4 -0.6,-0.3 -0.25,0.1 -0.35,0.5 v 0.9 0.55 0.2 q 0.6,2.85 2.4,5.1 l 0.55,-0.6 z"
         fill="none"
         stroke="#ffffff"
         stroke-linecap="round"
         stroke-linejoin="round"
         stroke-width="3"
         id="path3" />
      <path
         d="M 20.95,8.6 V 8.85 L 21,9.3 20.95,10.25 20.6,10.7 q -0.25,0.2 -0.55,-0.25 l -1.1,-1.3 Q 18.25,8.25 17.15,7.55 16.1,6.8 15,6.95 14,7.05 12.8,7.65 11.55,8.3 11,8.9 l -0.9,0.85 -1.6,1.8 Q 7.2,13 6.35,13.45 l -1.65,0.5 -2.05,-0.3 q -1.25,-0.4 -2.5,-1.5 -1.2,-1.15 -1.5,-2.9 -0.4,-1.8 0.2,-3.4 0.6,-1.55 1.45,-2.4 0.5,-0.7 2.4,-2 1.85,-1.35 4.75,-1.9 3.25,-0.6 6.05,0.4 2.85,0.95 4.9,3.3 1.95,2.3 2.55,5.35 M 0.4,6.25 0.3,6.55 0.2,6.9 0.05,7.75 0.1,8.75 0.4,9.8 1.05,10.9 2.3,11.95 3.9,12.4 5.55,12.1 Q 6.3,11.75 7.1,10.9 L 8.7,9.05 9.7,7.85 12.2,6.2 14.55,5.4 Q 15.9,5.3 16.9,5.75 l 1.7,1.3 0.75,0.85 Q 18.5,5.7 17,4.1 15.2,1.95 12.55,1.25 L 7.55,1.1 Q 5.2,1.65 3.15,3.1 1.05,4.5 0.4,6.25 m 3,1 Q 3.3,7.8 2.85,8.1 L 1.9,8.3 Q 1.35,8.2 1.05,7.75 0.7,7.25 0.85,6.75 0.9,6.1 1.4,5.8 1.85,5.45 2.4,5.55 l 0.75,0.6 Q 3.5,6.65 3.4,7.25 M 7.75,6.6 Q 7.75,7.3 7.3,7.8 6.95,8.25 6.35,8.3 H 6.25 Q 5.6,8.3 5.15,7.85 4.7,7.4 4.7,6.7 V 6.65 q 0,-0.7 0.65,-1.3 L 5.2,5.5 Q 5.6,5.05 6.25,5 h 0.1 Q 6.95,5.05 7.3,5.45 7.75,5.9 7.75,6.6 M 3.55,11.05 3,11.35 2.65,11.3 Q 2.45,11.05 2.55,10.3 2.65,9.25 3.4,8.8 3.7,8.6 4,8.55 l 0.75,0.15 0.85,0.85 0.2,0.9 -0.05,0.6 Q 5.7,11.2 5.45,11.2 5.15,11.2 4.8,11 L 4.15,10.8 q -0.3,0 -0.6,0.25"
         fill="#0a0a25"
         fill-rule="evenodd"
         stroke="none"
         id="path4" />
      <path
         d="M 0.4,6.25 Q 1.05,4.5 3.15,3.1 5.2,1.65 7.55,1.1 l 5,0.15 Q 15.2,1.95 17,4.1 18.5,5.7 19.35,7.9 L 18.6,7.05 16.9,5.75 Q 15.9,5.3 14.55,5.4 L 12.2,6.2 9.7,7.85 8.7,9.05 7.1,10.9 Q 6.3,11.75 5.55,12.1 L 3.9,12.4 2.3,11.95 1.05,10.9 0.4,9.8 0.1,8.75 0.05,7.75 0.2,6.9 0.3,6.55 0.4,6.25 M 7.75,6.6 Q 7.75,5.9 7.3,5.45 6.95,5.05 6.35,5 H 6.25 Q 5.6,5.05 5.2,5.5 L 5.35,5.35 Q 4.7,5.95 4.7,6.65 V 6.7 q 0,0.7 0.45,1.15 0.45,0.45 1.1,0.45 h 0.1 Q 6.95,8.25 7.3,7.8 7.75,7.3 7.75,6.6 M 3.4,7.25 Q 3.5,6.65 3.15,6.15 L 2.4,5.55 Q 1.85,5.45 1.4,5.8 0.9,6.1 0.85,6.75 0.7,7.25 1.05,7.75 1.35,8.2 1.9,8.3 L 2.85,8.1 Q 3.3,7.8 3.4,7.25 m 0.15,3.8 Q 3.85,10.8 4.15,10.8 L 4.8,11 q 0.35,0.2 0.65,0.2 0.25,0 0.3,-0.15 L 5.8,10.45 5.6,9.55 4.75,8.7 4,8.55 Q 3.7,8.6 3.4,8.8 2.65,9.25 2.55,10.3 q -0.1,0.75 0.1,1 L 3,11.35 3.55,11.05"
         fill="#e7f5ff"
         fill-rule="evenodd"
         stroke="none"
         id="path5" />
      <path
         d="M 1.45,26.1 Q 1.35,25.5 3.8,23.15 l -0.9,-1 -0.7,-1.2 Q 1.95,20.3 2.1,19.75 2.2,19.25 2.65,18.8 L 4.1,17.15 7.45,13.8 9.1,12.35 Q 9.55,11.9 10.05,11.8 l 1.2,0.1 1.2,0.7 1,0.9 0.25,-0.25 0.4,-0.4 -0.9,-1 Q 12.7,11.25 12.5,10.65 12.25,10 12.35,9.5 q 0.15,-0.55 0.6,-1 l 1.45,-1.65 3.3,-3.3 1.7,-1.5 0.95,-0.55 1.2,0.1 1.2,0.7 0.95,0.95 0.05,-0.05 q 2.35,-2.45 2.9,-2.3 l 1.5,1.1 1.1,1.5 q 0.15,0.55 -2.3,2.9 l -0.05,0.05 1,1 0.7,1.2 q 0.2,0.6 0.05,1.15 l -0.5,1 -1.55,1.65 -3.3,3.3 -1.6,1.5 -1.05,0.55 -1.1,-0.1 Q 18.9,17.45 18.35,17 l -1,-0.9 -0.4,0.3 -0.1,0.1 -0.1,0.1 -0.1,0.1 0.95,1.05 0.7,1.2 q 0.2,0.6 0.05,1.15 l -0.5,1 -1.5,1.6 -3.35,3.35 -1.6,1.5 -1,0.5 L 9.25,28 Q 8.6,27.75 8.05,27.3 L 7,26.35 Q 4.65,28.8 4.05,28.7 L 2.6,27.55 Q 1.55,26.5 1.45,26.1 m 5.4,-6.65 q -0.4,0.35 0.45,0.7 l 0.55,-0.25 0.6,0.2 0.85,0.75 0.75,0.85 0.2,0.6 -0.2,0.6 q 0.3,0.8 0.7,0.45 l 2.85,-2.9 q 0.4,-0.4 -0.4,-0.7 L 12.6,19.95 12,19.75 11.15,19 10.4,18.15 10.2,17.55 10.45,17 Q 10.1,16.15 9.7,16.55 l -2.85,2.9 M 17.1,9.15 q -0.35,0.35 0.5,0.7 0.2,-0.2 0.55,-0.25 l 0.6,0.2 0.85,0.75 0.75,0.85 0.2,0.6 -0.2,0.6 q 0.3,0.8 0.65,0.45 l 2.9,-2.9 Q 24.25,9.8 23.45,9.5 L 22.9,9.65 22.25,9.5 21.45,8.7 20.65,7.9 Q 20.5,7.65 20.5,7.25 l 0.2,-0.5 Q 20.35,5.9 20,6.25 l -2.9,2.9"
         fill="#000000"
         fill-rule="evenodd"
         stroke="none"
         id="path6" />
      <path
         d="M 30.55,24.4 31.1,22.5 V 21.3 L 30.75,20.2 30,19.25 28.75,18.2 l -1.6,-0.45 -1.6,0.3 q -0.85,0.25 -1.7,1.2 l -1.5,1.8 -1.05,1.25 q -1,0.95 -2.5,1.6 L 16.45,24.75 14.2,24.4 q -1,-0.45 -1.75,-1.3 l -0.8,-0.85 q 0.85,2.15 2.35,3.85 1.85,2.1 4.5,2.85 2.35,0.65 5,0.1 2.35,-0.5 4.4,-2 2.1,-1.45 2.65,-2.65 m -20.5,-2.85 v -0.2 -0.55 -0.9 q 0.1,-0.4 0.35,-0.5 0.35,-0.1 0.6,0.3 l 1.05,1.25 q 0.75,0.95 1.8,1.7 1.05,0.7 2.05,0.55 1.1,-0.05 2.3,-0.7 l 1.85,-1.2 0.9,-0.95 1.55,-1.8 2.15,-1.8 1.65,-0.55 2.05,0.3 q 1.25,0.35 2.45,1.5 1.3,1.15 1.65,2.95 0.35,1.75 -0.3,3.35 -0.65,1.6 -1.4,2.4 l -2.4,2.05 q -1.95,1.3 -4.85,1.85 l -6,-0.35 q -2.9,-1 -4.85,-3.35 -1.95,-2.3 -2.6,-5.35 m 20,-0.7 q 0,0.6 -0.35,1 -0.4,0.4 -0.9,0.4 -0.55,-0.05 -0.9,-0.45 -0.4,-0.4 -0.4,-1 0,-0.6 0.4,-1 0.35,-0.4 0.9,-0.35 0.5,0 0.9,0.4 0.35,0.4 0.35,1 m -3.7,1.35 q 0,0.65 -0.45,1.1 -0.45,0.45 -1.05,0.45 -0.6,0 -1.05,-0.45 -0.45,-0.45 -0.45,-1.1 0,-0.65 0.45,-1.1 0.45,-0.45 1.05,-0.45 0.6,0 1.05,0.45 0.45,0.45 0.45,1.1 m 3.1,1.95 q 0.2,0.95 -0.15,1.15 l -0.85,-0.1 q -0.5,-0.35 -1,0.4 l -0.95,0.85 q -0.45,0.1 -0.55,-0.9 -0.15,-1 0.55,-1.95 0.7,-0.95 1.75,-0.65 1,0.25 1.2,1.2"
         fill="#0a0a25"
         fill-rule="evenodd"
         stroke="none"
         id="path7" />
      <path
         d="m 30.55,24.4 q -0.55,1.2 -2.65,2.65 -2.05,1.5 -4.4,2 -2.65,0.55 -5,-0.1 Q 15.85,28.2 14,26.1 12.5,24.4 11.65,22.25 l 0.8,0.85 q 0.75,0.85 1.75,1.3 l 2.25,0.35 2.35,-0.85 q 1.5,-0.65 2.5,-1.6 l 1.05,-1.25 1.5,-1.8 q 0.85,-0.95 1.7,-1.2 l 1.6,-0.3 1.6,0.45 1.25,1.05 0.75,0.95 0.35,1.1 v 1.2 l -0.55,1.9 m -4.2,-2.2 q 0,-0.65 -0.45,-1.1 -0.45,-0.45 -1.05,-0.45 -0.6,0 -1.05,0.45 -0.45,0.45 -0.45,1.1 0,0.65 0.45,1.1 0.45,0.45 1.05,0.45 0.6,0 1.05,-0.45 0.45,-0.45 0.45,-1.1 m 3.7,-1.35 q 0,-0.6 -0.35,-1 -0.4,-0.4 -0.9,-0.4 -0.55,-0.05 -0.9,0.35 -0.4,0.4 -0.4,1 0,0.6 0.4,1 0.35,0.4 0.9,0.45 0.5,0 0.9,-0.4 0.35,-0.4 0.35,-1 m -0.6,3.3 q -0.2,-0.95 -1.2,-1.2 -1.05,-0.3 -1.75,0.65 -0.7,0.95 -0.55,1.95 0.1,1 0.55,0.9 l 0.95,-0.85 q 0.5,-0.75 1,-0.4 l 0.85,0.1 q 0.35,-0.2 0.15,-1.15"
         fill="#e7f5ff"
         fill-rule="evenodd"
         stroke="none"
         id="path8" />
    </g>
  </defs>
</svg>
