<?xml version="1.0" encoding="UTF-8" standalone="no"?>
<svg
   ffdec:objectType="frame"
   height="31.49962"
   width="26.167856"
   version="1.1"
   id="svg6"
   sodipodi:docname="STATUS_Energized_Icon.svg"
   xmlns:inkscape="http://www.inkscape.org/namespaces/inkscape"
   xmlns:sodipodi="http://sodipodi.sourceforge.net/DTD/sodipodi-0.dtd"
   xmlns:xlink="http://www.w3.org/1999/xlink"
   xmlns="http://www.w3.org/2000/svg"
   xmlns:svg="http://www.w3.org/2000/svg"
   xmlns:ffdec="https://www.free-decompiler.com/flash">
  <sodipodi:namedview
     id="namedview6"
     pagecolor="#ffffff"
     bordercolor="#000000"
     borderopacity="0.25"
     inkscape:showpageshadow="2"
     inkscape:pageopacity="0.0"
     inkscape:pagecheckerboard="0"
     inkscape:deskcolor="#d1d1d1" />
  <g
     transform="translate(13.153571,17.395455)"
     id="g1">
    <use
       ffdec:characterId="3226"
       height="31.5"
       transform="translate(-25.05,-35.7)"
       width="26.15"
       xlink:href="#sprite0"
       id="use1" />
  </g>
  <defs
     id="defs6">
    <g
       id="sprite0">
      <use
         ffdec:characterId="3225"
         height="31.5"
         width="26.15"
         xlink:href="#shape0"
         id="use2" />
    </g>
    <g
       id="shape0">
      <path
         d="M 20.15,38.2 H 19.8 q -0.55,0 -0.95,-0.35 -0.4,-0.45 -0.4,-1.05 V 36.5 L 18.4,32.8 H 17.75 L 16.9,32.55 h -0.05 l -0.8,0.15 h -0.3 l -0.1,4.15 -0.25,0.75 -0.65,0.55 -0.15,1.55 v 3.7 l 0.05,2.75 v 0.25 0.45 h 0.8 l 9.6,-0.1 10.4,0.1 L 35.4,46.4 V 46.15 L 35.45,43.4 V 39.7 L 35.35,38.15 34.7,37.65 34.45,37 34.2,36.25 v -3.6 h -0.4 l -0.7,-0.1 -0.8,0.25 h -0.65 l -0.05,3.7 v 0.3 q 0,0.6 -0.4,1.05 -0.4,0.35 -0.9,0.35 h -0.35 -9.8 m 8.6,-8.6 q 2.65,-1.35 3.75,-1.65 l -0.15,-0.55 -0.5,-1 -0.2,-0.25 V 26.1 l -0.4,0.05 -0.3,0.4 -0.85,0.95 -0.85,0.45 -0.9,-0.2 -0.65,-0.7 -2.15,-4.85 -0.4,-0.55 0.05,0.05 -0.5,-0.25 H 24.6 24.15 24.1 l -0.55,0.55 -2.1,4.05 -0.6,0.6 -0.8,0.2 -0.75,-0.25 -0.2,-0.1 q -0.35,0.1 -0.7,0.7 l -0.1,0.15 -0.45,0.7 0.95,0.35 0.25,-0.05 q 0.55,-0.05 1,0.25 l 0.8,0.4 H 20.9 L 21.1,28.95 21.05,29 21.9,27.75 q 0.25,-0.6 0.85,-0.8 L 22.9,26.9 q -0.2,-0.5 0,-1 0.2,-0.6 0.8,-0.85 l 1.15,-0.05 0.8,0.8 q 1.4,2.95 2.55,4.55 l 0.35,0.1 0.2,-0.05 v -0.8 m -15.1,1.1 0.55,-0.6 q -0.15,-1.05 0.3,-2.3 0.45,-1.25 1.65,-2.9 1.15,-1.75 3.2,-1.4 H 19.4 L 21,20.45 q 0.8,-1.3 1.85,-1.7 H 22.8 q 1.35,-0.7 2.65,-0.3 1.25,0.4 1.6,0.8 0.75,0.75 1.1,1.45 l 1.4,3.15 q 0.85,-0.75 1.55,-0.7 l 1.6,0.2 q 0.95,0.35 1.6,0.95 0.65,0.6 1.15,1.85 0.45,1.2 0.45,3.95 l 0.75,0.55 q 0.5,0.35 0.55,5.35 0.65,0.6 0.75,1.7 l 0.1,8.4 q 0.1,1.8 -0.5,2.65 -0.65,1.1 -2.15,1.05 H 14.65 q -1.5,0.05 -2.15,-0.5 -0.65,-0.6 -0.6,-2.1 0.15,-9.05 0.25,-9.55 0.1,-1.15 0.9,-1.8 l 0.1,-3.15 q -0.05,-1.3 0.5,-2 M 30.4,36.8 H 19.6 l 0.05,-4.65 -0.05,4.65 h 10.8"
         fill="#ffffff"
         fill-rule="evenodd"
         stroke="none"
         id="path2" />
      <path
         d="M 19.65,32.15 19.6,36.8 h 10.8"
         fill="none"
         stroke="#ffffff"
         stroke-linecap="round"
         stroke-linejoin="round"
         stroke-width="1"
         id="path3" />
      <path
         d="m 24.45,21.15 q -0.55,0 -1.2,1 L 20.5,27.4 q -1.4,-1.1 -1.85,-0.7 l -0.95,1.2 q -0.5,0.8 -0.6,1.55 -0.1,0.7 0.65,0.1 l 1.5,-1.55 0.6,0.55 0.95,0.35 0.75,-0.55 2.75,-4.2 Q 24.35,24 24.45,24.1 l 0.9,1.55 q 2.35,4.6 2.8,4.85 0.5,0.25 1.35,-0.65 l 1.75,-1.9 0.85,1.15 q 1.05,1.5 1.05,0.8 L 32.7,28 31.9,26.25 Q 31.6,26 31.05,26.4 l -2.25,2.25 -3.4,-6.9 q -0.45,-0.65 -0.95,-0.6 m 10.15,10 q 1.1,0 1,1.55 l 0.1,4 q 0.85,0.35 0.95,1.15 l 0.05,8.4 q 0.15,1.9 -1.3,2.1 H 14.65 q -1.45,0 -1.4,-1.2 l 0.05,-9.3 q 0.05,-0.7 1.05,-1.15 l 0.1,-4 q -0.1,-1.55 1,-1.55 l 0.75,0.05 0.05,-0.85 -0.1,-0.05 q -0.7,-0.35 -0.2,-1.65 0.3,-0.95 1.15,-2.2 0.95,-1.65 2.2,-1.45 h 0.05 l 0.75,0.35 2.15,-4.1 q 0.55,-0.85 1.2,-1.15 l 1.65,-0.1 1.15,0.65 0.6,0.8 2.2,5 0.85,-0.95 q 0.85,-0.85 1.35,-0.85 l 0.9,0.1 q 0.55,0.2 0.95,0.8 l 0.7,1.5 0.5,1.85 q 0.25,1.25 -0.3,1.85 l -0.35,0.15 v 0.3 l 0.95,-0.05 m -15,5.65 h 10.8 l -0.05,-4.65 q 0.05,-0.75 1.3,-0.85 h 0.65 v -0.25 q -0.6,-0.2 -1.15,-0.8 L 30,31.5 29,31.9 h -0.05 q -1,0.2 -1.85,-0.5 -1.25,-1.65 -2.8,-5 l -1.05,1.95 -1.15,1.7 -1.15,0.45 q -0.7,0.05 -1.75,-0.65 l -0.75,0.8 -0.25,0.2 -0.25,0.1 h -0.2 v 0.35 h 0.65 q 1.25,0.1 1.3,0.85 L 19.6,36.8 M 15.5,36.7 18.55,36.65 18.6,32.6 15.55,32.55 15.5,36.7 m -0.8,9.8 0.15,0.1 17.45,0.05 v -1.2 l -0.5,0.05 q -1.25,0 -2.15,-0.9 -0.9,-0.9 -0.9,-2.15 0,-1.05 0.65,-1.85 V 38.3 H 18.05 v 1.15 L 18.4,39.4 q 1.25,0 2.15,0.9 0.9,0.9 0.9,2.15 0,1.25 -0.9,2.15 -0.9,0.9 -2.15,0.9 -1.25,0 -2.15,-0.9 -0.7,-0.7 -0.85,-1.55 h -0.7 v 3.45 m 2.65,-8.05 v -0.1 H 16 l -1.2,0.05 -0.15,0.55 0.05,3.4 h 0.65 q 0.05,-1.2 0.9,-2.05 0.5,-0.5 1.1,-0.7 v -0.75 -0.4 M 16.5,42.4 q 0,0.85 0.55,1.45 0.6,0.55 1.4,0.55 0.8,0 1.35,-0.55 0.6,-0.6 0.6,-1.45 0,-0.85 -0.6,-1.4 -0.55,-0.6 -1.35,-0.6 -0.8,0 -1.4,0.6 -0.55,0.55 -0.55,1.4 m 16.45,-11.35 0.1,-0.15 -0.1,0.15 m 1.6,5.65 -0.05,-4.15 -3.05,0.05 0.05,4.05 3.05,0.05 m -1.6,8.9 v 0.1 0.95 L 34.8,46.6 q 0.65,-0.05 0.6,-0.95 V 39.1 L 35.3,38.4 34.05,38.35 31.15,38.3 H 30.2 30.1 v 1.65 q 0.75,-0.55 1.7,-0.55 1.25,0 2.15,0.9 0.9,0.9 0.9,2.15 0,1.25 -0.9,2.15 l -1,0.7 v 0.3 H 33 32.95 m 0.75,-3.2 q 0,-0.85 -0.55,-1.4 -0.6,-0.6 -1.4,-0.6 -0.8,0 -1.35,0.6 -0.6,0.55 -0.6,1.4 0,0.85 0.6,1.45 0.55,0.55 1.35,0.55 0.8,0 1.4,-0.55 0.55,-0.6 0.55,-1.45"
         fill="#000000"
         fill-rule="evenodd"
         stroke="none"
         id="path4" />
      <path
         d="m 24.45,21.15 q 0.5,-0.05 0.95,0.6 l 3.4,6.9 2.25,-2.25 Q 31.6,26 31.9,26.25 l 0.8,1.75 0.45,1.9 q 0,0.7 -1.05,-0.8 l -0.85,-1.15 -1.75,1.9 q -0.85,0.9 -1.35,0.65 -0.45,-0.25 -2.8,-4.85 L 24.45,24.1 Q 24.35,24 24.3,24.15 l -2.75,4.2 -0.75,0.55 -0.95,-0.35 -0.6,-0.55 -1.5,1.55 Q 17,30.15 17.1,29.45 17.2,28.7 17.7,27.9 l 0.95,-1.2 q 0.45,-0.4 1.85,0.7 l 2.75,-5.25 q 0.65,-1 1.2,-1 M 16.5,42.4 q 0,-0.85 0.55,-1.4 0.6,-0.6 1.4,-0.6 0.8,0 1.35,0.6 0.6,0.55 0.6,1.4 0,0.85 -0.6,1.45 -0.55,0.55 -1.35,0.55 -0.8,0 -1.4,-0.55 -0.55,-0.6 -0.55,-1.45 m 17.2,0 q 0,0.85 -0.55,1.45 -0.6,0.55 -1.4,0.55 -0.8,0 -1.35,-0.55 -0.6,-0.6 -0.6,-1.45 0,-0.85 0.6,-1.4 0.55,-0.6 1.35,-0.6 0.8,0 1.4,0.6 0.55,0.55 0.55,1.4"
         fill="#ffed69"
         fill-rule="evenodd"
         stroke="none"
         id="path5" />
      <path
         d="m 17.35,38.45 v 0.4 0.75 q -0.6,0.2 -1.1,0.7 -0.85,0.85 -0.9,2.05 H 14.7 L 14.65,38.95 14.8,38.4 16,38.35 h 1.35 v 0.1 M 14.7,46.5 v -3.45 h 0.7 q 0.15,0.85 0.85,1.55 0.9,0.9 2.15,0.9 1.25,0 2.15,-0.9 0.9,-0.9 0.9,-2.15 0,-1.25 -0.9,-2.15 -0.9,-0.9 -2.15,-0.9 l -0.35,0.05 V 38.3 H 29.4 v 2.3 q -0.65,0.8 -0.65,1.85 0,1.25 0.9,2.15 0.9,0.9 2.15,0.9 l 0.5,-0.05 v 1.2 L 14.85,46.6 14.7,46.5 m 0.8,-9.8 0.05,-4.15 3.05,0.05 -0.05,4.05 -3.05,0.05 m 19.05,0 -3.05,-0.05 -0.05,-4.05 3.05,-0.05 0.05,4.15 m -1.6,8.9 H 33 32.95 v -0.3 l 1,-0.7 q 0.9,-0.9 0.9,-2.15 0,-1.25 -0.9,-2.15 -0.9,-0.9 -2.15,-0.9 -0.95,0 -1.7,0.55 V 38.3 h 0.1 0.95 l 2.9,0.05 1.25,0.05 0.1,0.7 v 6.55 q 0.05,0.9 -0.6,0.95 l -1.85,0.05 V 45.7 45.6"
         fill="#9a9a9a"
         fill-rule="evenodd"
         stroke="none"
         id="path6" />
    </g>
  </defs>
</svg>
