<?xml version="1.0" encoding="UTF-8" standalone="no"?>
<svg
   ffdec:objectType="frame"
   height="29.536526"
   width="28.28129"
   version="1.1"
   id="svg6"
   sodipodi:docname="STATUS_Free_Spell_Icon.svg"
   xmlns:inkscape="http://www.inkscape.org/namespaces/inkscape"
   xmlns:sodipodi="http://sodipodi.sourceforge.net/DTD/sodipodi-0.dtd"
   xmlns:xlink="http://www.w3.org/1999/xlink"
   xmlns="http://www.w3.org/2000/svg"
   xmlns:svg="http://www.w3.org/2000/svg"
   xmlns:ffdec="https://www.free-decompiler.com/flash">
  <sodipodi:namedview
     id="namedview6"
     pagecolor="#ffffff"
     bordercolor="#000000"
     borderopacity="0.25"
     inkscape:showpageshadow="2"
     inkscape:pageopacity="0.0"
     inkscape:pagecheckerboard="0"
     inkscape:deskcolor="#d1d1d1" />
  <g
     transform="translate(14.456082,14.599999)"
     id="g1">
    <use
       ffdec:characterId="3193"
       height="29.6"
       transform="translate(-13.6,-14.45)"
       width="28.299999"
       xlink:href="#sprite0"
       id="use1" />
  </g>
  <defs
     id="defs6">
    <g
       id="sprite0">
      <use
         ffdec:characterId="3192"
         height="29.6"
         width="28.299999"
         xlink:href="#shape0"
         id="use2" />
    </g>
    <g
       id="shape0">
      <path
         d="m 19.5,1.35 q 1.4,0.2 2.25,0.75 0.9,0.5 1.55,1.55 Q 24.15,5 24.25,7 l 0.05,1.8 -0.2,2.05 -0.4,2.2 -1,2.6 -1.1,1.95 0.5,-0.1 0.7,0.05 q 1.05,0.15 1.75,0.75 0.95,0.8 1.25,2.1 0.3,1.2 -0.1,2.4 -0.7,2.3 -3.15,3.6 -1.9,0.95 -4.75,1.3 Q 11.65,28.45 5.6,26.2 3.05,25.25 2.35,23.85 1.8,22.9 1.8,21.4 1.8,20.1 2.3,18.6 2.7,17.35 3.9,15.3 L 5.1,13.2 5.65,12.1 V 12.05 L 5.15,11.95 3.9,11.7 2.25,11.15 Q 1.5,10.8 1.1,10.1 0.65,9.4 0.65,8.5 0.6,7.6 1,6.25 1.4,4.85 2.1,3.65 2.8,2.45 3.85,2.5 l 2.5,0.1 H 7 L 9.45,2.55 h 0.1 L 12,2.4 16.05,1.65 19.5,1.35"
         fill="#ffffff"
         fill-rule="evenodd"
         stroke="none"
         id="path2" />
      <path
         d="m 19.5,1.35 q 1.4,0.2 2.25,0.75 0.9,0.5 1.55,1.55 Q 24.15,5 24.25,7 l 0.05,1.8 -0.2,2.05 -0.4,2.2 -1,2.6 -1.1,1.95 0.5,-0.1 0.7,0.05 q 1.05,0.15 1.75,0.75 0.95,0.8 1.25,2.1 0.3,1.2 -0.1,2.4 -0.7,2.3 -3.15,3.6 -1.9,0.95 -4.75,1.3 Q 11.65,28.45 5.6,26.2 3.05,25.25 2.35,23.85 1.8,22.9 1.8,21.4 1.8,20.1 2.3,18.6 2.7,17.35 3.9,15.3 L 5.1,13.2 5.65,12.1 V 12.05 L 5.15,11.95 3.9,11.7 2.25,11.15 Q 1.5,10.8 1.1,10.1 0.65,9.4 0.65,8.5 0.6,7.6 1,6.25 1.4,4.85 2.1,3.65 2.8,2.45 3.85,2.5 l 2.5,0.1 H 7 L 9.45,2.55 h 0.1 L 12,2.4 16.05,1.65 Z"
         fill="none"
         stroke="#ffffff"
         stroke-linecap="round"
         stroke-linejoin="round"
         stroke-width="3"
         id="path3" />
      <path
         d="M 17.75,3.55 18.15,3.2 18.4,3.05 H 19 l 0.75,0.05 0.45,0.1 h 0.05 0.15 l 0.2,0.15 0.2,0.05 0.4,0.05 h 0.05 l 0.1,0.05 0.25,0.25 0.1,0.05 0.1,0.15 0.05,-0.05 0.1,0.15 0.2,0.2 0.05,0.1 0.1,0.1 0.1,0.2 0.05,0.05 0.05,0.05 V 4.9 5 l 0.05,0.05 0.05,0.35 0.05,0.05 v 0.1 L 22.7,5.7 22.8,6.2 23,6 23.15,6.05 Q 23.5,6.45 23.4,6.9 L 23.3,7.4 23.1,7.9 23,8.15 22.7,8.55 q -1.6,1.9 -4.4,2.3 l -0.7,0.1 h -0.3 q -0.35,-0.1 -0.2,-0.5 L 17.25,10.3 17.05,9.85 Q 17,9.4 17.4,9.05 L 17.6,9 17.55,8.95 16.8,7.55 16.65,6.85 16.6,6.45 16.8,4.9 17,4.45 l 0.35,-0.6 0.4,-0.3 m 1.35,17.25 0.1,-0.25 0.45,-0.25 0.45,-0.05 0.25,-0.15 0.05,-0.05 0.15,-0.2 0.4,-0.4 0.15,-0.1 0.4,-0.15 0.3,-0.05 h 0.3 l 0.6,0.05 0.1,-0.2 0.5,-0.1 0.45,0.25 q 0.5,0.5 0.7,1.15 l 0.1,0.5 0.05,0.05 v 0.25 0.35 l 0.05,0.4 -0.15,1 -0.1,0.35 -0.7,1.25 -0.8,0.6 -0.2,0.15 -0.85,0.35 -0.6,0.05 h -0.1 l -0.55,0.2 -0.1,0.05 -0.5,0.25 -3.05,0.6 -1,0.1 -3.1,-0.1 -1.8,-0.35 q -0.7,-0.2 -1,-0.55 L 9.95,25.65 H 9.8 L 7.95,25.3 Q 6,24.7 4.8,23.65 l -0.3,-0.4 v -0.1 l -1,-0.7 Q 2.5,21.7 3.1,20.6 l 0.45,0.35 3.15,1.75 q 2.05,0.9 5.7,1.3 l 6.35,-0.5 0.65,-0.05 q 0.55,-0.2 0.1,-0.3 L 19.15,23 l 0.1,-0.05 q 0.25,-0.2 0.05,-0.85 l -0.2,-1.3"
         fill="#8f7d6a"
         fill-rule="evenodd"
         stroke="none"
         id="path4" />
      <path
         d="M 23.1,7.9 V 7.95 L 23.05,8.4 23.35,8.2 23,8.5 22.95,8.55 22.8,8.85 V 8.9 L 22.75,9 22.7,9.1 V 9.55 9.7 l 0.15,0.15 0.05,0.25 -0.1,0.75 v 0.05 l -0.5,2.2 -1.1,2.95 -0.35,0.65 -0.9,1.1 -0.2,0.05 -0.25,0.5 -0.3,0.9 -0.1,0.65 v 0.9 l 0.2,1.3 q 0.2,0.65 -0.05,0.85 l -0.1,0.05 0.35,0.15 q 0.45,0.1 -0.1,0.3 L 18.75,23.5 12.4,24 Q 8.75,23.6 6.7,22.7 L 3.55,20.95 3.1,20.6 Q 2.65,20.2 3.2,20.45 V 19.2 Q 3.05,18.1 5,15.8 6.9,13.5 7.25,12.55 L 7.35,12.15 8.1,12.2 8.4,11.15 7.8,11.1 7.1,11 5.2,10.95 4.4,10.8 Q 3.2,10.45 2.75,9.15 L 2.7,9.1 V 9 Q 2.3,7.9 2.8,6.55 L 3.35,5.45 3.4,5.3 3.5,5.2 4.1,4.4 4.5,4.05 H 4.75 V 4 Q 5,3.75 5.6,3.75 l 0.3,0.1 0.35,0.4 H 7 l 0.65,-0.3 3,-0.65 3.4,-0.3 1.8,-0.35 H 16 16.05 q 0.3,-0.45 0.8,-0.3 l 0.25,0.3 v 0.3 h 0.05 0.1 q 0.3,0 0.3,0.2 l -0.05,0.25 -0.1,0.1 0.35,0.05 -0.4,0.3 -0.35,0.6 -0.2,0.45 -0.2,1.55 0.05,0.4 0.15,0.7 0.75,1.4 L 17.6,9 17.4,9.05 Q 17,9.4 17.05,9.85 l 0.2,0.45 -0.15,0.15 q -0.15,0.4 0.2,0.5 h 0.3 l 0.7,-0.1 q 2.8,-0.4 4.4,-2.3 L 23,8.15 23.1,7.9"
         fill="#b4a08a"
         fill-rule="evenodd"
         stroke="none"
         id="path5" />
      <path
         d="m 19.5,1.3 q 1.4,0.2 2.25,0.75 0.9,0.5 1.55,1.55 0.85,1.35 0.95,3.35 l 0.05,1.8 -0.2,2.05 -0.4,2.2 -1,2.6 -1.1,1.95 0.5,-0.1 0.7,0.05 q 1.05,0.15 1.75,0.75 0.95,0.8 1.25,2.1 0.3,1.2 -0.1,2.4 -0.7,2.3 -3.15,3.6 -1.9,0.95 -4.75,1.3 Q 11.65,28.4 5.6,26.15 3.05,25.2 2.35,23.8 1.8,22.85 1.8,21.35 q 0,-1.3 0.5,-2.8 0.4,-1.25 1.6,-3.3 l 1.2,-2.1 0.55,-1.1 V 12 L 5.15,11.9 3.9,11.65 2.25,11.1 Q 1.5,10.75 1.1,10.05 0.65,9.35 0.65,8.45 0.6,7.55 1,6.2 1.4,4.8 2.1,3.6 2.8,2.4 3.85,2.45 l 2.5,0.1 H 7 L 9.45,2.5 h 0.1 L 12,2.35 16.05,1.6 19.5,1.3 m 2.2,3.55 -1,-0.9 -1.1,-0.35 q -0.8,0 -1.4,0.5 -0.6,0.5 -0.95,1.35 l 1.2,-0.05 1.35,-0.15 1,0.15 0.2,1.2 -0.25,1.85 q -0.25,0.95 -1.15,1.7 -0.95,0.7 -2.8,1.15 l -2.45,0.45 0.15,0.05 1.4,1 0.3,-0.2 q 0.9,-0.55 1.5,-0.55 0.6,0 0.8,0.7 0.15,0.7 -0.55,1.25 L 17.1,14.7 Q 17,14.8 17.05,15 v 1.6 q -0.1,1 -0.55,1.7 -1.15,2.2 -3.55,2.7 L 11.2,21.15 9.5,20.75 8.8,20.05 Q 8.65,19.7 8.85,19.5 l 0.7,0.05 1.8,0.25 q 1.3,-0.05 2.15,-0.7 l 1.2,-1.65 q 0.35,-0.75 0.25,-1.7 L 13.3,16.7 Q 8.55,19.2 7.95,19.65 L 6.8,20.2 5.85,20.35 Q 5.4,20.35 5.3,19.9 5.25,19.55 5.6,19.25 6.1,18.6 7.9,17.55 7.45,17.15 7.3,16.35 7.15,15.55 7.35,15 7.5,14.45 8,13.65 8.45,12.85 9.4,12.3 L 7.5,12.25 5.55,16.2 Q 4,19.25 3.9,20.15 L 3.8,21.6 q 0.05,0.6 0.4,1.15 0.35,0.55 1.5,1.1 4.6,1.95 9.7,2.05 h 0.35 l 1.05,-0.05 2.75,-0.3 -0.1,-0.1 q -0.85,-0.85 -1.2,-2.8 -0.4,-2.65 1.4,-6.1 l 1.95,-4.2 0.75,-3 V 6.7 Q 22.2,5.5 21.7,4.85 m 1.85,18.25 q 0.75,-0.85 0.5,-2 -0.25,-1.2 -0.85,-1.45 -0.5,0.35 -0.3,1.6 l 0.2,0.7 0.2,0.7 -0.35,0.5 -0.8,0.1 -1.15,-0.15 -1.15,-0.3 0.6,1.15 q 0.6,0.7 1.5,0.35 0.8,-0.35 1.6,-1.2 m -3,-2.95 -0.4,0.8 0.4,0.15 1.15,0.4 q -0.25,-0.25 -0.2,-2.1 -0.6,0.15 -0.95,0.75 M 15.6,8.85 q -1,-1.5 -0.35,-4.05 l 0.5,-1.25 -3.5,0.55 Q 9.95,4.4 4.55,4.2 3.6,4.4 3.1,6.4 2.55,8.4 2.8,9.1 3,9.8 5.1,10.25 l 5,0.2 6.1,-0.9 -0.6,-0.7 m 3.7,-1.75 -2.15,0.15 0.2,0.8 Q 17.6,8.6 18.2,8.55 18.8,8.5 19.05,8 L 19.3,7.1 m -5.35,6.8 q -0.35,-0.6 -1.75,-0.4 -1.4,0.2 -2.05,0.8 l -0.9,1.25 q -0.25,0.7 0,1.05 l 4.7,-2.7"
         fill="#000000"
         fill-rule="evenodd"
         stroke="none"
         id="path6" />
    </g>
  </defs>
</svg>
