<?xml version="1.0" encoding="UTF-8" standalone="no"?>
<svg
   ffdec:objectType="frame"
   height="28.15148"
   width="32.808689"
   version="1.1"
   id="svg6"
   sodipodi:docname="STATUS Delayed Pain Icon.svg"
   xmlns:inkscape="http://www.inkscape.org/namespaces/inkscape"
   xmlns:sodipodi="http://sodipodi.sourceforge.net/DTD/sodipodi-0.dtd"
   xmlns:xlink="http://www.w3.org/1999/xlink"
   xmlns="http://www.w3.org/2000/svg"
   xmlns:svg="http://www.w3.org/2000/svg"
   xmlns:ffdec="https://www.free-decompiler.com/flash">
  <sodipodi:namedview
     id="namedview6"
     pagecolor="#ffffff"
     bordercolor="#000000"
     borderopacity="0.25"
     inkscape:showpageshadow="2"
     inkscape:pageopacity="0.0"
     inkscape:pagecheckerboard="0"
     inkscape:deskcolor="#d1d1d1" />
  <g
     transform="translate(15.999853,13.80153)"
     id="g1">
    <use
       ffdec:characterId="3286"
       height="28.15"
       transform="translate(-13.1,-14.1)"
       width="32.799999"
       xlink:href="#sprite0"
       id="use1" />
  </g>
  <defs
     id="defs6">
    <g
       id="sprite0">
      <use
         ffdec:characterId="3285"
         height="28.15"
         width="32.799999"
         xlink:href="#shape0"
         id="use2" />
    </g>
    <g
       id="shape0">
      <path
         d="M 2.45,14.85 Q 2.5,16.9 -1.9,19.6 1.45,20.55 3.05,21.95 4.6,23.3 2.6,26.75 4.5,25.1 6.7,25.7 q 2.15,0.55 3.5,1.75 0.8,-1.2 2.55,-1.85 1.75,-0.7 4.35,1.25 1.95,-3.25 6.75,-0.4 -4.35,-5.9 3.05,-6.25 -5.05,-4.05 2,-5.85 -4.3,0.2 -4.4,-1.75 Q 24.35,10.65 27.75,8.7 25.1,9.9 22.8,9.05 20.5,8.15 22.2,3.9 15.8,9.6 15.45,2.2 11.3,9.85 6.4,4.65 q 1.3,4.75 -0.1,5.6 -1.75,1.4 -7.15,-0.4 3.2,2.85 3.3,5 z"
         fill="none"
         stroke="#ffffff"
         stroke-linecap="round"
         stroke-linejoin="round"
         stroke-width="2"
         id="path2" />
      <path
         d="m 2.45,14.85 q -0.1,-2.15 -3.3,-5 5.4,1.8 7.15,0.4 1.4,-0.85 0.1,-5.6 4.9,5.2 9.05,-2.45 0.35,7.4 6.75,1.7 -1.7,4.25 0.6,5.15 2.3,0.85 4.95,-0.35 -3.4,1.95 -3.25,3.9 0.1,1.95 4.4,1.75 -7.05,1.8 -2,5.85 -7.4,0.35 -3.05,6.25 -4.8,-2.85 -6.75,0.4 Q 14.5,24.9 12.75,25.6 11,26.25 10.2,27.45 8.85,26.25 6.7,25.7 4.5,25.1 2.6,26.75 4.6,23.3 3.05,21.95 1.45,20.55 -1.9,19.6 2.5,16.9 2.45,14.85"
         fill="#ffc148"
         fill-rule="evenodd"
         stroke="none"
         id="path3" />
      <path
         d="m 18,19.1 q 2.15,-3.1 2.95,-2.95 0.8,0.2 2,0.85 l 1.35,-1.1 0.25,-0.15 q 2.25,-1.6 3.3,-1.6 1.3,-0.15 1,0.25 l -2.6,3.7 q -1.8,2.45 -2.25,3.3 -0.5,0.9 -1.2,0.35 l -1.95,-1.2 q -3.15,2.2 -4.5,3.7 Q 15.8,22.1 18,19.1 M 8.2,14.8 q 0,-1.95 0.75,-5.5 0.8,-3.65 2.1,-5.6 1.45,-2.05 2.25,-2.35 0.6,-0.4 0.45,2.3 -0.15,2.75 0.2,5.3 0.25,-0.2 1.55,-0.6 L 18.8,7.5 Q 20.25,7.3 19.6,9 l -1.95,5.05 q -1.6,3.6 -1.85,4.8 l -1.15,2.7 q -1.4,-1.3 -1.7,-3.6 -0.3,-2.3 0,-3.3 l -3.2,1.45 -0.9,0.6 Q 8.15,16.65 8.2,14.8 M 1.6,21.15 0.9,20 Q -0.75,16.9 -1,15.2 -1.15,14 -0.9,14.1 l 3.6,3.05 1.45,1.2 0.95,-0.7 1.2,-0.75 1,-0.1 q 0.7,0.15 2.2,2.95 1.4,2.8 1,5.75 L 6.75,21.6 q -0.55,0 -1.4,0.7 L 4.3,23.25 3.85,23.5 3.1,23 Z"
         fill="none"
         stroke="#ffffff"
         stroke-linecap="round"
         stroke-linejoin="round"
         stroke-width="2"
         id="path4" />
      <path
         d="m 18.85,19.6 q -0.5,0.65 -1.25,2.2 l 3.05,-2.4 2.35,1.35 3.05,-4.2 0.7,-0.95 q -1.9,0.85 -3.7,2.95 l -2.25,-1 q -0.65,0.3 -1.95,2.05 M 18,19.1 q 2.15,-3.1 2.95,-2.95 0.8,0.2 2,0.85 l 1.35,-1.1 0.25,-0.15 q 2.25,-1.6 3.3,-1.6 1.3,-0.15 1,0.25 l -2.6,3.7 q -1.8,2.45 -2.25,3.3 -0.5,0.9 -1.2,0.35 l -1.95,-1.2 q -3.15,2.2 -4.5,3.7 Q 15.8,22.1 18,19.1 M 8.2,14.8 q 0,-1.95 0.75,-5.5 0.8,-3.65 2.1,-5.6 1.45,-2.05 2.25,-2.35 0.6,-0.4 0.45,2.3 -0.15,2.75 0.2,5.3 0.25,-0.2 1.55,-0.6 L 18.8,7.5 Q 20.25,7.3 19.6,9 l -1.95,5.05 q -1.6,3.6 -1.85,4.8 l -1.15,2.7 q -1.4,-1.3 -1.7,-3.6 -0.3,-2.3 0,-3.3 l -3.2,1.45 -0.9,0.6 Q 8.15,16.65 8.2,14.8 m 1.2,-0.45 v 0.8 q 0.4,-0.5 2.2,-1.3 1.9,-0.75 2.5,-0.75 -0.25,3.25 -0.1,4.55 l 0.3,1.7 0.2,0.4 Q 15.4,16.6 17.7,11 l 0.8,-2.15 -2.15,0.5 -3.55,1.1 Q 12.4,8.2 12.4,6.3 L 12.6,3.4 Q 9.9,7.75 9.4,14.35 M 1.6,21.15 0.9,20 Q -0.75,16.9 -1,15.2 -1.15,14 -0.9,14.1 l 3.6,3.05 1.45,1.2 0.95,-0.7 1.2,-0.75 1,-0.1 q 0.7,0.15 2.2,2.95 1.4,2.8 1,5.75 L 6.75,21.6 q -0.55,0 -1.4,0.7 L 4.3,23.25 3.85,23.5 3.1,23 1.6,21.15 M 1.95,19.4 2.4,20.2 4,22.25 q 1.05,-1.3 2.4,-1.8 0.4,-0.2 0.9,0.35 l 2.45,2.8 Q 9.25,21.25 8.25,19.45 7.1,17.7 6.7,18.1 5.4,18.65 4.1,19.8 2.85,19 1,17.05 l -0.55,-0.5 1.5,2.85"
         fill="#000000"
         fill-rule="evenodd"
         stroke="none"
         id="path5" />
      <path
         d="m 18.85,19.6 q 1.3,-1.75 1.95,-2.05 l 2.25,1 q 1.8,-2.1 3.7,-2.95 l -0.7,0.95 -3.05,4.2 -2.35,-1.35 -3.05,2.4 q 0.75,-1.55 1.25,-2.2 M 9.4,14.35 Q 9.9,7.75 12.6,3.4 l -0.2,2.9 q 0,1.9 0.4,4.15 L 16.35,9.35 18.5,8.85 17.7,11 q -2.3,5.6 -3.2,8.75 l -0.2,-0.4 -0.3,-1.7 q -0.15,-1.3 0.1,-4.55 -0.6,0 -2.5,0.75 -1.8,0.8 -2.2,1.3 v -0.8 M 1.95,19.4 0.45,16.55 1,17.05 q 1.85,1.95 3.1,2.75 1.3,-1.15 2.6,-1.7 0.4,-0.4 1.55,1.35 1,1.8 1.5,4.15 L 7.3,20.8 Q 6.8,20.25 6.4,20.45 5.05,20.95 4,22.25 L 2.4,20.2 1.95,19.4"
         fill="#e70000"
         fill-rule="evenodd"
         stroke="none"
         id="path6" />
    </g>
  </defs>
</svg>
