<?xml version="1.0" encoding="UTF-8" standalone="no"?>
<svg
   ffdec:objectType="frame"
   height="30.649996"
   width="30.65"
   version="1.1"
   id="svg8"
   sodipodi:docname="STATUS_Poisonous_Icon.svg"
   xmlns:inkscape="http://www.inkscape.org/namespaces/inkscape"
   xmlns:sodipodi="http://sodipodi.sourceforge.net/DTD/sodipodi-0.dtd"
   xmlns:xlink="http://www.w3.org/1999/xlink"
   xmlns="http://www.w3.org/2000/svg"
   xmlns:svg="http://www.w3.org/2000/svg"
   xmlns:ffdec="https://www.free-decompiler.com/flash">
  <sodipodi:namedview
     id="namedview8"
     pagecolor="#ffffff"
     bordercolor="#000000"
     borderopacity="0.25"
     inkscape:showpageshadow="2"
     inkscape:pageopacity="0.0"
     inkscape:pagecheckerboard="0"
     inkscape:deskcolor="#d1d1d1" />
  <g
     transform="translate(15.5,15.249998)"
     id="g1">
    <use
       ffdec:characterId="3303"
       height="30.65"
       transform="translate(-5.1,-4.4)"
       width="30.700001"
       xlink:href="#sprite0"
       id="use1" />
  </g>
  <defs
     id="defs8">
    <g
       id="sprite0">
      <use
         ffdec:characterId="3302"
         height="30.65"
         width="30.700001"
         xlink:href="#shape0"
         id="use2" />
    </g>
    <g
       id="shape0">
      <path
         d="m -0.5,-4.55 q 1.35,-0.95 2.45,-1.2 l 1.25,-0.1 2.2,-0.3 q 2,0.05 4.4,1.35 l 0.5,0.3 -3.3,3.2 -1.2,1.2 1.2,-1.2 3.3,-3.2 1.2,0.8 q 1.15,1 1.75,2.8 l 0.2,0.7 0.25,0.6 q 0.95,2.1 0.9,4.65 L 14.35,6.35 14,7.15 12.9,8.9 12.25,9.55 11.5,9.95 11.45,10 l -0.6,0.35 -0.75,0.3 0.2,0.8 0.05,1.4 L 7.05,9.6 6.6,9.2 l 0.45,0.4 3.3,3.25 -0.1,0.3 q -0.3,1.05 -1.15,1.1 l -0.7,-0.1 -0.6,0.1 H 7.25 L 7.2,12.45 7.25,12.4 V 12 L 7.2,11.95 H 6.9 l -0.05,1 -0.1,0.6 -0.2,0.45 v 0.3 h -0.4 l -0.5,0.25 -0.3,0.1 L 4.6,14.7 3.75,14.35 H 3.55 V 13.8 12.85 12.8 L 3.4,12.35 V 12.7 Q 3.3,13.75 2.75,14.2 L 2.7,14.25 V 14.3 H 2.65 L 0.8,14.45 0.15,14.05 -0.05,13.55 -0.25,13.3 -0.2,12.55 0.15,11.2 V 11 Q -2,10.6 -3.3,9.1 L -3.85,8.45 Q -5.3,6.15 -5,3.3 l 0.35,-1.6 0.1,-0.35 0.9,-2.45 0.5,-0.95 0.05,-0.1 0.7,-0.75 0.2,-0.3 0.8,-0.65 0.75,-0.65 0.15,-0.05 3.25,3.2 1.15,1.2 -1.15,-1.2 -3.25,-3.2 M 0,2.5 -0.55,1.95 -3.65,-1.1 -0.55,1.95 0,2.5 l -0.8,0.75 -1.45,1.4 -0.3,0.85 0.15,0.35 0.25,0.2 0.1,0.3 0.8,0.7 0.2,0.1 Q -0.2,7.6 0.5,7.55 L 1.05,7.45 2,6.95 2.75,6.35 3.35,5.45 3.7,4.8 3.9,3.5 V 3.1 1.75 L 3.85,1.2 Q 3.65,0.65 3,0.65 L 0.1,2.45 0,2.5 M -3.3,9.1 -1.25,7.05 -3.3,9.1 m 6.45,0.1 -0.4,0.35 -2.95,3 2.95,-3 0.4,-0.35 Q 3.4,9.45 3.6,9.35 L 4.2,8.85 4.55,8.55 4.9,7.9 l 0.3,0.35 0.4,0.4 0.15,0.3 q 0.1,0.2 0.3,0.25 H 6.55 6.6 Q 6.9,9 6.7,8.5 L 6.1,7.85 5.4,7.1 Q 5.3,6.85 5,6.85 4.8,6.85 4.75,6.95 4.5,7 4.35,7.2 L 4.2,7.45 4,7.6 3.75,7.95 3.35,8.35 3,8.75 3.15,9.2 M 11,7 12.9,8.9 11,7 11.6,6.5 11.8,6.35 12.15,4.75 V 3.85 L 12,2.95 10.3,2.1 H 10.25 L 7.9,1.05 Q 7.15,0.55 6.85,0.9 L 6.75,1.35 6.7,1.45 6.65,1.9 6.75,4.05 7.05,5 7.85,6.5 Q 8.45,7.25 9.3,7.45 L 10.1,7.55 10.85,7.1 11,7 M 13.25,-0.9 10.3,2 10.25,2.1 10.3,2 13.25,-0.9 M -0.95,5.4 H -0.9 V 5.45 L -0.95,5.4"
         fill="#434343"
         fill-rule="evenodd"
         stroke="none"
         id="path2" />
      <path
         d="m -0.95,-5 q 2.2,-1.55 4.6,-1.7 h 0.2 L 5,-6.75 6.3,-6.7 h 0.2 q 2.3,0.15 4.35,1.55 L 10.9,-5.2 10.8,-5.3 q -0.25,-0.5 -0.2,-1.4 0,-0.85 0.75,-1.6 0.75,-0.8 1.85,-0.95 l 1.1,0.1 0.15,0.05 q 0.95,0.3 1.5,1.5 l 0.1,0.9 0.9,0.1 q 1.2,0.55 1.6,1.55 l 0.15,1.2 v 0.1 q -0.2,1.05 -1,1.75 -0.85,0.8 -1.65,0.8 -0.8,0.1 -1.35,-0.3 l -0.45,-0.15 0.5,0.8 Q 16,1.5 16.1,4 q 0.1,1.9 -0.6,3.55 -0.65,1.4 -1.7,2.2 l 0.85,0.8 0.1,-0.05 1.35,-0.3 q 0.8,0 1.65,0.75 0.8,0.75 0.95,1.85 l 0.05,0.65 -0.15,0.65 q -0.4,0.95 -1.6,1.45 l -0.9,0.1 -0.1,0.95 q -0.55,1.2 -1.5,1.5 l -0.8,0.2 -0.45,-0.05 Q 12.1,18.1 11.4,17.3 10.65,16.55 10.65,15.65 10.6,14.9 10.8,14.45 l -0.1,0.1 -0.95,0.65 q -0.7,0.3 -1.5,0 L 7,14.5 6,15.3 q -0.9,0.25 -1.8,0 -0.8,-0.25 -1.1,-0.8 l -1.25,0.7 q -0.8,0.3 -1.45,0 l -0.95,-0.65 -0.5,-1.1 -0.3,0.3 0.25,0.5 q 0.35,0.5 0.35,1.35 0,0.9 -0.75,1.65 -0.8,0.8 -1.9,0.95 l -0.2,0.05 -1,-0.2 q -1.05,-0.3 -1.55,-1.5 L -6.25,15.6 -7.2,15.55 Q -8.35,15 -8.75,14.05 l -0.1,-0.8 v -0.5 q 0.15,-1.1 1,-1.8 0.8,-0.8 1.6,-0.8 l 1.35,0.3 0.1,0.05 0.95,-0.9 Q -4.8,8.8 -5.35,7.55 -6.1,5.9 -6,4 -5.9,1.5 -4.6,-0.85 l 0.4,-0.7 -0.2,-0.25 -0.55,0.3 -1.35,0.25 q -0.8,0 -1.6,-0.8 -0.85,-0.7 -1,-1.75 v -0.55 l 0.1,-0.75 q 0.4,-1 1.55,-1.55 l 0.95,-0.05 0.1,-0.9 q 0.55,-1.25 1.55,-1.55 l 0.85,-0.2 0.35,0.05 q 1.15,0.15 1.9,1 0.75,0.75 0.75,1.6 0.05,0.85 -0.3,1.35 l -0.05,0.15 0.2,0.2 0.45,0.45 3.25,3.2 1.15,1.2 m 6.4,-4.35 0.55,-0.65 0.2,0.15 -0.15,-0.2 0.7,-0.65 M 10.3,-4.5 7,-1.3 5.8,-0.1 m 5.25,-4.9 0.35,0.25 q 1.65,1.25 2.75,2.95 l 0.75,-0.7 m -1.65,1.6 0.9,-0.9 0.1,0.15 M 12.9,8.9 l 0.9,0.85 -0.7,0.45 -2.05,0.75 q -0.15,0.3 0.05,1.3 l 0.1,0.45 v 0.55 l -0.05,0.4 0.1,0.15 0.4,0.4 m -12.8,-19.4 -0.1,0.45 0.3,-0.25 m -0.9,-0.9 0.7,0.7 m -2.5,4.1 -0.55,-0.45 q 1.15,-1.9 2.95,-3.2 M -4.4,-1.8 -5.2,-2.55 m 1.55,1.45 3.1,3.05 L 0,2.5 0.6,3.2 M -1.25,7.05 -3.3,9.1 -3.85,9.6 -3,10.2 l 2.05,0.75 q 0.15,0.3 -0.05,1.3 l -0.1,0.45 v 0.55 l 0.05,0.2 0.85,-0.9 2.95,-3 L 3.15,9.2 3.8,8.55 m 2.8,0.65 0.45,0.4 3.3,3.25 0.8,0.8 -0.3,0.65 0.4,-0.5 M 12.9,8.9 11,7 10.35,6.35 9.3,5.25 M 10.25,2.1 10.3,2 13.25,-0.9 M 0.65,5.05 -0.5,6.3 -1.25,7.05 m -3.15,3.65 -0.4,-0.2 -0.35,0.3 m 3.35,3.35 0.45,-0.4 m 15.6,-3 0.4,-0.2 0.25,0.3 M 6.6,9.2 5.8,8.45 m 5,6 0.05,-0.15 M 9.15,3.25 10.25,2.1"
         fill="none"
         stroke="#ffffff"
         stroke-linecap="round"
         stroke-linejoin="round"
         stroke-width="3"
         id="path3" />
      <path
         d="M 5.9,0.65 5.85,0.55 5.9,0.5 7,-0.6 11.35,-4.9 11,-5.4 q -0.25,-0.5 -0.2,-1.4 0,-0.8 0.75,-1.6 0.75,-0.85 1.85,-1 l 1.3,0.15 q 1,0.35 1.5,1.55 l 0.15,0.9 0.9,0.1 q 1.2,0.55 1.55,1.55 l 0.15,1.3 q -0.15,1.1 -1,1.8 -0.8,0.8 -1.6,0.8 L 14.9,-1.5 14.5,-1.75 10.1,2.5 9.05,3.65 9,3.7 8.85,3.55 8.15,2.85 8.6,2.45 9.3,1.7 13.55,-2.5 q 1.15,-1 1.8,-0.35 1.3,0.7 2,-0.5 0.9,-1.35 -0.95,-2.2 h -0.6 l -0.45,-0.05 -0.1,-0.05 -0.1,-0.15 -0.1,-0.5 v -0.5 q -0.8,-1.85 -2.15,-1 -1.2,0.7 -0.5,2 0.6,0.6 -0.35,1.8 L 7.85,0.25 7.55,0.5 6.75,1.4 5.9,0.65 m 3.3,4.9 0.95,1.05 4.35,4.3 0.45,-0.3 q 0.6,-0.35 1.45,-0.25 0.8,0 1.6,0.75 0.8,0.75 1,1.85 0.1,0.65 -0.15,1.3 -0.35,1 -1.55,1.55 l -0.9,0.1 -0.15,0.9 q -0.5,1.25 -1.5,1.6 l -1.3,0.1 q -1.1,-0.1 -1.85,-0.95 -0.8,-0.85 -0.8,-1.65 0,-0.85 0.25,-1.4 L 11.4,14.05 7.05,9.7 5.9,8.55 6.75,7.7 7.9,8.8 l 4.2,4.3 q 0.95,1.15 0.35,1.85 -0.7,1.25 0.45,1.95 1.4,0.85 2.2,-1 v -0.5 l 0.1,-0.45 0.05,-0.15 0.15,-0.1 0.4,-0.05 0.65,-0.05 q 1.85,-0.8 0.95,-2.1 -0.75,-1.25 -2,-0.6 -0.65,0.7 -1.8,-0.3 L 9.35,7.45 8.2,6.25 9.05,5.4 v 0.05 l 0.15,0.1 m -5.2,3.1 -1,1 -4.3,4.35 0.25,0.45 q 0.35,0.55 0.35,1.4 0,0.85 -0.8,1.65 -0.8,0.85 -1.9,0.95 l -1.25,-0.1 q -1,-0.35 -1.55,-1.6 l -0.1,-0.9 -1,-0.05 q -1.15,-0.6 -1.55,-1.55 l -0.1,-1.35 q 0.15,-1.1 1,-1.8 0.8,-0.8 1.65,-0.8 0.85,-0.1 1.4,0.25 l 0.45,0.3 L -0.1,6.55 0.95,5.4 1,5.35 1.1,5.45 1.85,6.2 0.75,7.4 -3.5,11.55 q -1.15,1 -1.85,0.35 -1.2,-0.7 -1.95,0.55 -0.9,1.3 0.95,2.15 h 0.6 l 0.4,0.05 0.1,0.1 0.1,0.15 0.1,0.45 v 0.55 q 0.8,1.8 2.15,0.95 1.25,-0.7 0.55,-1.95 -0.7,-0.65 0.3,-1.8 L 2.1,8.75 3.35,7.65 4.2,8.5 4.15,8.55 4,8.65 M 1.15,3.5 0.95,3.65 V 3.6 l -1.1,-1.1 -4.35,-4.3 -0.45,0.3 -1.4,0.2 Q -7.2,-1.3 -8,-2.1 -8.85,-2.8 -9,-3.9 l 0.1,-1.3 q 0.4,-1 1.6,-1.55 l 0.95,-0.05 0.1,-0.95 q 0.55,-1.2 1.55,-1.55 l 1.25,-0.15 q 1.15,0.15 1.95,1 0.75,0.8 0.75,1.65 0.05,0.85 -0.35,1.35 l -0.25,0.5 4.3,4.35 1.15,1.1 H 4.15 L 4,0.65 3.3,1.35 2.05,0.2 -2.1,-4.05 q -1,-1.2 -0.25,-1.8 0.65,-1.3 -0.6,-2 -1.3,-0.85 -2.15,1 v 0.5 l -0.1,0.5 -0.05,0.15 -0.15,0.1 h -0.4 l -0.6,0.05 q -1.85,0.8 -0.9,2.15 0.7,1.2 1.9,0.5 0.7,-0.6 1.85,0.4 L 0.7,1.65 1.8,2.8 1.15,3.5"
         fill="#000000"
         fill-rule="evenodd"
         stroke="none"
         id="path4" />
      <path
         d="m 8.85,3.55 q -0.1,0.8 0.1,1.55 L 9.2,5.55 9.05,5.45 V 5.4 L 8.2,6.25 9.35,7.45 13.6,11.6 q 1.15,1 1.8,0.3 1.25,-0.65 2,0.6 0.9,1.3 -0.95,2.1 l -0.65,0.05 -0.4,0.05 -0.15,0.1 -0.05,0.15 -0.1,0.45 v 0.5 q -0.8,1.85 -2.2,1 -1.15,-0.7 -0.45,-1.95 0.6,-0.7 -0.35,-1.85 L 7.9,8.8 6.75,7.7 5.9,8.55 5.4,8.4 4.4,8.5 4,8.65 4.15,8.55 4.2,8.5 3.35,7.65 2.1,8.75 -2.05,13.1 q -1,1.15 -0.3,1.8 0.7,1.25 -0.55,1.95 -1.35,0.85 -2.15,-0.95 v -0.55 l -0.1,-0.45 -0.1,-0.15 -0.1,-0.1 -0.4,-0.05 h -0.6 q -1.85,-0.85 -0.95,-2.15 0.75,-1.25 1.95,-0.55 0.7,0.65 1.85,-0.35 L 0.75,7.4 1.85,6.2 1.1,5.45 1.2,5.25 1.25,4.85 1.15,3.7 V 3.5 L 1.8,2.8 0.7,1.65 -3.55,-2.5 q -1.15,-1 -1.85,-0.4 -1.2,0.7 -1.9,-0.5 -0.95,-1.35 0.9,-2.15 l 0.6,-0.05 h 0.4 l 0.15,-0.1 0.05,-0.15 0.1,-0.5 v -0.5 q 0.85,-1.85 2.15,-1 1.25,0.7 0.6,2 -0.75,0.6 0.25,1.8 L 2.05,0.2 3.3,1.35 4,0.65 5.3,0.8 5.9,0.65 6.75,1.4 7.55,0.5 7.85,0.25 12.05,-4 q 0.95,-1.2 0.35,-1.8 -0.7,-1.3 0.5,-2 1.35,-0.85 2.15,1 v 0.5 l 0.1,0.5 0.1,0.15 0.1,0.05 0.45,0.05 h 0.6 q 1.85,0.85 0.95,2.2 -0.7,1.2 -2,0.5 -0.65,-0.65 -1.8,0.35 L 9.3,1.7 8.6,2.45 l -0.45,0.4 0.7,0.7"
         fill="#91c168"
         fill-rule="evenodd"
         stroke="none"
         id="path5" />
      <path
         d="M 5.9,0.65 6.75,1.4 7.55,0.5 7.85,0.25 12.05,-4 q 0.95,-1.2 0.35,-1.8 -0.7,-1.3 0.5,-2 1.35,-0.85 2.15,1 v 0.5 l 0.1,0.5 0.1,0.15 0.1,0.05 0.45,0.05 h 0.6 q 1.85,0.85 0.95,2.2 -0.7,1.2 -2,0.5 -0.65,-0.65 -1.8,0.35 L 9.3,1.7 8.6,2.45 8.15,2.85 8.85,3.55 M 4,0.65 3.3,1.35 2.05,0.2 -2.1,-4.05 q -1,-1.2 -0.25,-1.8 0.65,-1.3 -0.6,-2 -1.3,-0.85 -2.15,1 v 0.5 l -0.1,0.5 -0.05,0.15 -0.15,0.1 h -0.4 l -0.6,0.05 q -1.85,0.8 -0.9,2.15 0.7,1.2 1.9,0.5 0.7,-0.6 1.85,0.4 L 0.7,1.65 1.8,2.8 1.15,3.5 M 4,8.65 4.15,8.55 4.2,8.5 3.35,7.65 2.1,8.75 -2.05,13.1 q -1,1.15 -0.3,1.8 0.7,1.25 -0.55,1.95 -1.35,0.85 -2.15,-0.95 v -0.55 l -0.1,-0.45 -0.1,-0.15 -0.1,-0.1 -0.4,-0.05 h -0.6 q -1.85,-0.85 -0.95,-2.15 0.75,-1.25 1.95,-0.55 0.7,0.65 1.85,-0.35 L 0.75,7.4 1.85,6.2 1.1,5.45 m 4.8,3.1 0.85,-0.85 1.15,1.1 4.2,4.3 q 0.95,1.15 0.35,1.85 -0.7,1.25 0.45,1.95 1.4,0.85 2.2,-1 v -0.5 l 0.1,-0.45 0.05,-0.15 0.15,-0.1 0.4,-0.05 0.65,-0.05 q 1.85,-0.8 0.95,-2.1 -0.75,-1.25 -2,-0.6 -0.65,0.7 -1.8,-0.3 L 9.35,7.45 8.2,6.25 9.05,5.4 v 0.05 l 0.15,0.1"
         ffdec:has-small-stroke="true"
         ffdec:original-stroke-width="0.5"
         fill="none"
         stroke="#91c168"
         stroke-linecap="round"
         stroke-linejoin="round"
         stroke-width="1"
         id="path6" />
      <path
         d="m -1.1,9.95 q 1.5,0.15 1.15,2.1 -0.3,1.9 1.25,1.9 Q 2.85,13.9 3,11.4 3.8,10.85 3.8,11.8 L 3.75,13 q 0.15,1.1 0.95,1.4 l 0.1,0.05 0.3,0.05 0.35,-0.1 Q 6.2,14.1 6.35,13 L 6.3,11.8 q 0,-0.95 0.8,-0.4 0.15,2.5 1.7,2.55 1.6,0 1.25,-1.9 Q 9.75,10.1 11.2,9.95 13.05,9.7 14.15,7.4 15.1,5.5 14.65,2.75 14.05,-0.2 11.2,-3 8.8,-5.35 5.15,-5.45 1.3,-5.35 -1.1,-3 -3.95,-0.2 -4.5,2.75 -5,5.5 -4.05,7.4 q 1.1,2.3 2.95,2.55 m 7.15,-6.45 5.9,-4.1 0.75,0.35 0.7,1.45 0.2,1.75 -0.1,1 L 13.3,4.8 12.5,6.35 10.95,7.55 9.6,7.9 H 8.85 Q 7.7,7.75 6.9,7.05 6.15,6.3 5.75,5.2 5.4,4.45 5.7,3.95 5.8,3.65 6.05,3.5 m -4.2,11.85 q -0.8,0.25 -1.45,0 L -0.55,14.7 -1.1,13.4 V 12.85 L -1,12.4 q 0.2,-1 0.05,-1.3 L -3,10.35 Q -4.55,9.55 -5.35,7.65 -6.1,6.05 -6,4.15 -5.9,1.6 -4.6,-0.7 q 1.25,-2.35 3.35,-3.9 2.3,-1.85 4.9,-1.95 h 0.2 L 5,-6.6 6.3,-6.55 h 0.2 q 2.55,0.1 4.9,1.95 2.1,1.55 3.35,3.9 1.25,2.3 1.35,4.85 0.1,1.9 -0.6,3.5 -0.8,1.9 -2.4,2.7 l -2.05,0.75 q -0.15,0.3 0.05,1.3 l 0.1,0.45 v 0.55 l -0.5,1.3 -0.95,0.65 q -0.7,0.25 -1.5,0 Q 7.45,15.05 7,14.6 6.75,15.2 6,15.45 5.1,15.7 4.2,15.45 3.4,15.2 3.1,14.6 2.7,15.05 1.85,15.35 M 5.1,7.95 4.4,8.95 3.9,9.35 3.65,9.3 3.55,9.2 V 8.65 l 0.2,-0.4 Q 4.6,6.95 4.95,6.8 H 5 5.2 5.25 q 0.4,0.15 1.2,1.45 L 6.7,8.65 6.65,9.2 6.5,9.35 H 6.25 L 5.8,8.95 5.25,8.1 5.1,7.9 V 7.95 M 3.95,3.5 4.45,4.1 4.3,5.2 3.1,7.05 Q 2.35,7.75 1.15,7.9 H 0.5 L -0.95,7.55 -2.45,6.35 Q -3.05,5.55 -3.25,4.8 L -3.4,4.1 -3.55,2.95 -3.35,1.2 q 0.15,-0.7 0.7,-1.45 l 0.7,-0.35 5.9,4.1"
         fill="#000000"
         fill-rule="evenodd"
         stroke="none"
         id="path7" />
      <path
         d="M 6.05,3.5 Q 5.8,3.65 5.7,3.95 5.4,4.45 5.75,5.2 6.15,6.3 6.9,7.05 7.7,7.75 8.85,7.9 H 9.6 L 10.95,7.55 12.5,6.35 13.3,4.8 13.5,3.95 13.6,2.95 13.4,1.2 12.7,-0.25 11.95,-0.6 6.05,3.5 M -1.1,9.95 Q -2.95,9.7 -4.05,7.4 -5,5.5 -4.5,2.75 -3.95,-0.2 -1.1,-3 1.3,-5.35 5.15,-5.45 8.8,-5.35 11.2,-3 q 2.85,2.8 3.45,5.75 0.45,2.75 -0.5,4.65 -1.1,2.3 -2.95,2.55 -1.45,0.15 -1.15,2.1 0.35,1.9 -1.25,1.9 Q 7.25,13.9 7.1,11.4 6.3,10.85 6.3,11.8 L 6.35,13 Q 6.2,14.1 5.45,14.4 L 5.1,14.5 4.8,14.45 4.7,14.4 Q 3.9,14.1 3.75,13 L 3.8,11.8 q 0,-0.95 -0.8,-0.4 -0.15,2.5 -1.7,2.55 -1.55,0 -1.25,-1.9 Q 0.4,10.1 -1.1,9.95 m 5.05,-6.45 -5.9,-4.1 -0.7,0.35 Q -3.2,0.5 -3.35,1.2 l -0.2,1.75 0.15,1.15 0.15,0.7 q 0.2,0.75 0.8,1.55 l 1.5,1.2 L 0.5,7.9 H 1.15 Q 2.35,7.75 3.1,7.05 L 4.3,5.2 4.45,4.1 3.95,3.5 m 1.3,4.6 0.55,0.85 0.45,0.4 H 6.5 L 6.65,9.2 6.7,8.65 6.45,8.25 Q 5.65,6.95 5.25,6.8 H 5.2 5 4.95 Q 4.6,6.95 3.75,8.25 l -0.2,0.4 V 9.2 l 0.1,0.1 0.25,0.05 0.5,-0.4 0.7,-1 0.15,0.15"
         fill="#66953d"
         fill-rule="evenodd"
         stroke="none"
         id="path8" />
    </g>
  </defs>
</svg>
