<?xml version="1.0" encoding="UTF-8" standalone="no"?>
<svg
   ffdec:objectType="frame"
   height="32.10783"
   width="23.080166"
   version="1.1"
   id="svg5"
   sodipodi:docname="STATUS_Poison_Icon.svg"
   xmlns:inkscape="http://www.inkscape.org/namespaces/inkscape"
   xmlns:sodipodi="http://sodipodi.sourceforge.net/DTD/sodipodi-0.dtd"
   xmlns:xlink="http://www.w3.org/1999/xlink"
   xmlns="http://www.w3.org/2000/svg"
   xmlns:svg="http://www.w3.org/2000/svg"
   xmlns:ffdec="https://www.free-decompiler.com/flash">
  <sodipodi:namedview
     id="namedview5"
     pagecolor="#ffffff"
     bordercolor="#000000"
     borderopacity="0.25"
     inkscape:showpageshadow="2"
     inkscape:pageopacity="0.0"
     inkscape:pagecheckerboard="0"
     inkscape:deskcolor="#d1d1d1" />
  <g
     transform="translate(11.58037,15.874345)"
     id="g1">
    <use
       ffdec:characterId="3081"
       height="59.950001"
       transform="matrix(0.5366,0,0,0.5366,-15.9,-13.45)"
       width="43"
       xlink:href="#shape0"
       id="use1" />
  </g>
  <defs
     id="defs5">
    <g
       id="shape0">
      <path
         d="M 11.55,35.05 Q 11.55,29.7 14.45,24 17.3,18.25 21.25,12.95 25.2,7.6 27.1,4 l 2.2,-4.2 q 0.85,-1.3 1.5,-0.8 l 1.15,1.3 0.8,1.35 3.6,6.7 4.15,7.65 4.05,6.75 q 2.55,5.15 2.9,8.75 0.35,3.55 -0.4,7.9 -0.8,4.35 -5.65,8.3 -4.9,3.9 -11.25,4.1 Q 23.8,52 20.2,49.85 16.6,47.7 14.75,45.05 L 12.7,41.4 q -1.15,-2.45 -1.15,-6.35"
         fill="#ffffff"
         fill-rule="evenodd"
         stroke="none"
         id="path1" />
      <path
         d="m 11.55,35.05 q 0,3.9 1.15,6.35 l 2.05,3.65 q 1.85,2.65 5.45,4.8 3.6,2.15 9.95,1.95 6.35,-0.2 11.25,-4.1 4.85,-3.95 5.65,-8.3 0.75,-4.35 0.4,-7.9 -0.35,-3.6 -2.9,-8.75 L 40.5,16 36.35,8.35 32.75,1.65 31.95,0.3 30.8,-1 q -0.65,-0.5 -1.5,0.8 L 27.1,4 q -1.9,3.6 -5.85,8.95 -3.95,5.3 -6.8,11.05 -2.9,5.7 -2.9,11.05 z"
         fill="none"
         stroke="#ffffff"
         stroke-linecap="round"
         stroke-linejoin="round"
         stroke-width="7"
         id="path2" />
      <path
         d="m 30.9,5.95 q 5.85,9.75 11.45,17.6 2.55,3.95 2.55,8.1 0.15,5.4 -0.8,9.2 -1,3.75 -4.8,6.3 -4.7,3.15 -9.95,3.15 -5.4,0 -9.7,-4.25 -4.6,-4.55 -4.6,-11.25 0,-6 4.2,-12.9 L 30,5.9 30.9,5.95 m -0.55,40 -0.05,-0.4 -0.35,-0.2 L 29,45 27.75,44.9 Q 25.1,44.85 22.4,42.6 L 22,42.2 21.2,41.45 q -0.35,-0.05 -0.75,0.3 -0.35,0.45 -0.15,1.2 L 20.9,44 q 1.35,1.65 3.6,2.55 1.35,0.55 2.65,0.55 1.55,0 2.6,-0.7 l 0.6,-0.45 m 1.3,-33.6 q -0.8,-0.4 -1.3,0 -0.3,0.35 -0.2,0.85 l 0.4,0.8 5.05,8.2 1.25,1.75 q 0.6,0.6 1.1,0.6 0.85,-0.1 0.95,-1.05 l -0.35,-1.45 q -0.9,-2.1 -2.6,-4.45 l -2.85,-3.8 -0.05,-0.05 -1.4,-1.4 m -1.15,33.2 h -0.15 0.15"
         fill="#91c168"
         fill-rule="evenodd"
         stroke="none"
         id="path3" />
      <path
         d="m 31.65,12.35 1.4,1.4 0.05,0.05 2.85,3.8 q 1.7,2.35 2.6,4.45 l 0.35,1.45 q -0.1,0.95 -0.95,1.05 -0.5,0 -1.1,-0.6 L 35.6,22.2 30.55,14 30.15,13.2 q -0.1,-0.5 0.2,-0.85 0.5,-0.4 1.3,0 m -1.3,33.6 -0.6,0.45 q -1.05,0.7 -2.6,0.7 -1.3,0 -2.65,-0.55 -2.25,-0.9 -3.6,-2.55 l -0.6,-1.05 q -0.2,-0.75 0.15,-1.2 0.4,-0.35 0.75,-0.3 l 0.8,0.75 0.4,0.4 q 2.7,2.25 5.35,2.3 L 29,45 l 0.95,0.35 0.35,0.2 0.05,0.4"
         fill="#ffffff"
         fill-rule="evenodd"
         stroke="none"
         id="path4" />
      <path
         d="m 11.55,34.9 q 0,-5.35 2.9,-11.05 Q 17.3,18.1 21.25,12.8 25.2,7.45 27.1,3.85 l 2.2,-4.2 q 0.85,-1.3 1.5,-0.8 l 1.15,1.3 0.8,1.35 3.6,6.7 4.15,7.65 4.05,6.75 q 2.55,5.15 2.9,8.75 0.35,3.55 -0.4,7.9 -0.8,4.35 -5.65,8.3 -4.9,3.9 -11.25,4.1 -6.35,0.2 -9.95,-1.95 -3.6,-2.15 -5.45,-4.8 L 12.7,41.25 Q 11.55,38.8 11.55,34.9 M 30.5,6.65 q -1.55,3 -9.8,14.8 -5.1,7.25 -5.1,12.95 l 0.15,2.15 q 0.35,2.5 1.4,4.6 3.3,6.6 12.1,6.6 6.9,0 10.8,-4.15 3.4,-3.7 3.4,-9 l -0.1,-2.75 -0.1,-0.65 q -0.45,-2.7 -1.5,-5 -1.05,-2.35 -4.2,-7.45 -4.15,-6.7 -7.05,-12.1"
         fill="#000000"
         fill-rule="evenodd"
         stroke="none"
         id="path5" />
    </g>
  </defs>
</svg>
