<?xml version="1.0" encoding="UTF-8" standalone="no"?>
<svg
   ffdec:objectType="frame"
   height="34.557049"
   width="30.950701"
   version="1.1"
   id="svg7"
   sodipodi:docname="STATUS_Hex_Icon.svg"
   xmlns:inkscape="http://www.inkscape.org/namespaces/inkscape"
   xmlns:sodipodi="http://sodipodi.sourceforge.net/DTD/sodipodi-0.dtd"
   xmlns:xlink="http://www.w3.org/1999/xlink"
   xmlns="http://www.w3.org/2000/svg"
   xmlns:svg="http://www.w3.org/2000/svg"
   xmlns:ffdec="https://www.free-decompiler.com/flash">
  <sodipodi:namedview
     id="namedview7"
     pagecolor="#ffffff"
     bordercolor="#000000"
     borderopacity="0.25"
     inkscape:showpageshadow="2"
     inkscape:pageopacity="0.0"
     inkscape:pagecheckerboard="0"
     inkscape:deskcolor="#d1d1d1" />
  <g
     transform="translate(15.426,13.3674)"
     id="g1">
    <use
       ffdec:characterId="3158"
       height="37.849998"
       transform="matrix(0.913,0,0,0.913,-13.6,-13.55)"
       width="33.900002"
       xlink:href="#sprite0"
       id="use1" />
  </g>
  <defs
     id="defs7">
    <g
       id="sprite0">
      <use
         ffdec:characterId="3157"
         height="37.849998"
         width="33.900002"
         xlink:href="#shape0"
         id="use2" />
    </g>
    <g
       id="shape0">
      <path
         d="M 8.8,26.7 Q 6.4,25.75 4.35,24 0,20.25 0,15 0,9.7 4.35,5.9 8,2.9 12.8,2.35 L 14.95,2.2 q 6.15,0 10.55,3.7 4.4,3.8 4.4,9.1 0,5.25 -4.4,9 -4.4,3.8 -10.55,3.8 L 12.8,27.65 11.15,27.4 10.95,27.35 8.95,26.75 8.8,26.7"
         fill="none"
         stroke="#ffffff"
         stroke-linecap="round"
         stroke-linejoin="round"
         stroke-width="4"
         id="path2" />
      <path
         d="M 11.15,27.4 11.6,30 Q 12.5,34.95 9.85,35.05 7.2,35.05 8,30.8 l 0.8,-4.1 0.15,-1.15 m 0,1.2 0.05,-0.5 0.4,-0.3 0.4,-0.2 0.55,-0.4 0.7,-0.2 -0.15,0.25 -0.05,0.75 0.3,1.25 m -0.3,-1.25 0.1,1.2 m 9.3,7.75 q -0.2,1.4 -1.05,1.45 L 17.8,36.35 17.2,35.7 Q 16.9,35 17,33.8 q 1.5,-6.5 2.8,-1.6 0.65,1.45 0.45,2.9 z"
         fill="none"
         stroke="#ffffff"
         stroke-linecap="round"
         stroke-linejoin="round"
         stroke-width="3"
         id="path3" />
      <path
         d="m 29.9,15 q 0,5.25 -4.4,9 -4.4,3.8 -10.55,3.8 L 12.8,27.65 Q 8,27.1 4.35,24 0,20.25 0,15 0,9.7 4.35,5.9 8,2.9 12.8,2.35 L 14.95,2.2 q 6.15,0 10.55,3.7 4.4,3.8 4.4,9.1"
         fill="#000000"
         fill-rule="evenodd"
         stroke="none"
         id="path4" />
      <path
         d="m 29.9,15 q 0,5.25 -4.4,9 -4.4,3.8 -10.55,3.8 L 12.8,27.65 Q 8,27.1 4.35,24 0,20.25 0,15 0,9.7 4.35,5.9 8,2.9 12.8,2.35 L 14.95,2.2 q 6.15,0 10.55,3.7 4.4,3.8 4.4,9.1 z"
         ffdec:has-small-stroke="true"
         ffdec:original-stroke-width="1.0"
         fill="none"
         stroke="#000000"
         stroke-linecap="round"
         stroke-linejoin="round"
         stroke-width="1.09526"
         id="path5" />
      <path
         d="m 19.95,13.7 q -1.25,-1.05 -2.75,-1.05 -1.75,0 -2.6,1.3 -0.55,0.8 -0.2,1.4 0.1,0.45 0.8,0.7 l 0.65,0.05 0.85,-0.9 0.8,-0.1 0.65,0.55 q 0.3,0.8 -0.15,1.75 l -1.05,1.15 -2.5,-0.05 q -2.05,-0.85 -2.6,-2.25 -0.6,-1.55 0.55,-3.5 1.1,-1.75 2.7,-2.4 l 2.4,-0.25 q 3,0.35 4.85,2.45 2.05,2.35 1.35,5.15 -0.4,1.8 -2,3.35 -1.25,1.15 -3.3,1.95 -2.05,0.75 -3.65,0.7 l -2.6,-0.55 Q 8.5,21.8 6.8,18.6 5.95,16.95 5.9,15.15 5.85,13.25 6.2,12.15 6.5,11.05 7.7,9.4 8.9,7.7 11.55,6.55 14.2,5.4 16.15,5.9 18.1,6.35 18.5,6.6 l 0.8,0.75 q 0.4,0.7 0.05,1.05 l -1,0.05 Q 16.55,8 14.75,8.45 12.9,8.85 11.5,10 l -1.35,1.4 q -1,1.25 -1.2,1.85 -0.65,1.6 0.15,3.45 0.6,1.6 2.1,2.75 1.65,1.2 3.2,1.4 1.7,0.25 3.9,-0.8 1.65,-0.8 2.35,-1.75 1.05,-1.4 0.55,-2.95 -0.25,-0.9 -1.25,-1.65"
         fill="#ffffff"
         fill-rule="evenodd"
         stroke="none"
         id="path6" />
      <path
         d="M 10.95,24.15 Q 10.7,25 11.65,29.95 12.55,34.9 9.9,35 7.25,35 8.05,30.75 l 1,-5.75 0.4,-0.3 0.4,-0.2 0.55,-0.4 0.7,-0.2 -0.15,0.25 m 9.3,10.7 q -0.3,1.25 -1.1,1.5 l -1.3,-0.05 -0.6,-0.65 q -0.3,-0.7 -0.2,-1.9 1.5,-6.5 2.8,-1.6 0.65,1.45 0.4,2.7"
         fill="#000000"
         fill-rule="evenodd"
         stroke="none"
         id="path7" />
    </g>
  </defs>
</svg>
