<?xml version="1.0" encoding="UTF-8" standalone="no"?>
<svg
   ffdec:objectType="frame"
   height="25.875021"
   width="30.070974"
   version="1.1"
   id="svg6"
   sodipodi:docname="STATUS_Insight_Icon.svg"
   xmlns:inkscape="http://www.inkscape.org/namespaces/inkscape"
   xmlns:sodipodi="http://sodipodi.sourceforge.net/DTD/sodipodi-0.dtd"
   xmlns:xlink="http://www.w3.org/1999/xlink"
   xmlns="http://www.w3.org/2000/svg"
   xmlns:svg="http://www.w3.org/2000/svg"
   xmlns:ffdec="https://www.free-decompiler.com/flash">
  <sodipodi:namedview
     id="namedview6"
     pagecolor="#ffffff"
     bordercolor="#000000"
     borderopacity="0.25"
     inkscape:showpageshadow="2"
     inkscape:pageopacity="0.0"
     inkscape:pagecheckerboard="0"
     inkscape:deskcolor="#d1d1d1" />
  <g
     transform="translate(15.048725,13.046448)"
     id="g1">
    <use
       ffdec:characterId="3232"
       height="20.4"
       transform="matrix(1.2715,0,0,1.2715,0.4,0.05)"
       width="23.65"
       xlink:href="#sprite0"
       id="use1" />
  </g>
  <defs
     id="defs6">
    <g
       id="sprite0">
      <use
         ffdec:characterId="3231"
         height="20.4"
         width="23.65"
         xlink:href="#shape0"
         id="use2" />
    </g>
    <g
       id="shape0">
      <path
         d="m -10.6,-0.9 0.7,-1.1 0.2,-1 0.95,-1.55 1.05,-1.2 0.9,-0.7 0.5,-0.2 0.2,-0.15 0.1,-0.05 0.5,-0.35 0.75,-0.9 q 0.55,-0.55 1.45,-0.8 l 0.6,-0.15 2.4,0.25 2.35,-0.25 1,0.25 1.05,0.7 0.8,0.9 0.05,0.05 0.15,0.1 0.2,0.15 0.2,0.1 0.5,0.25 0.15,0.1 1.2,1 0.75,0.9 0.95,1.55 0.25,1 0.65,1.1 q 0.3,0.45 0.3,1.7 l -0.1,1.8 Q 9.85,4.05 8.5,5.05 7.45,5.8 6.05,6.1 L 5.7,6.85 Q 5.15,7.75 4.25,8.25 L 2.1,8.8 0.1,8.6 -0.3,8.4 -0.75,8.6 -2.7,8.8 -4.9,8.25 Q -5.8,7.75 -6.35,6.85 L -6.7,6.1 q -1.4,-0.3 -2.45,-1.05 -1.3,-1 -1.6,-2.45 L -10.9,0.8 q 0.05,-1.25 0.3,-1.7"
         fill="#ffffff"
         fill-rule="evenodd"
         stroke="none"
         id="path2" />
      <path
         d="m -10.6,-0.9 0.7,-1.1 0.2,-1 0.95,-1.55 1.05,-1.2 0.9,-0.7 0.5,-0.2 0.2,-0.15 0.1,-0.05 0.5,-0.35 0.75,-0.9 q 0.55,-0.55 1.45,-0.8 l 0.6,-0.15 2.4,0.25 2.35,-0.25 1,0.25 1.05,0.7 0.8,0.9 0.05,0.05 0.15,0.1 0.2,0.15 0.2,0.1 0.5,0.25 0.15,0.1 1.2,1 0.75,0.9 0.95,1.55 0.25,1 0.65,1.1 q 0.3,0.45 0.3,1.7 l -0.1,1.8 Q 9.85,4.05 8.5,5.05 7.45,5.8 6.05,6.1 L 5.7,6.85 Q 5.15,7.75 4.25,8.25 L 2.1,8.8 0.1,8.6 -0.3,8.4 -0.75,8.6 -2.7,8.8 -4.9,8.25 Q -5.8,7.75 -6.35,6.85 L -6.7,6.1 q -1.4,-0.3 -2.45,-1.05 -1.3,-1 -1.6,-2.45 L -10.9,0.8 q 0.05,-1.25 0.3,-1.7 z"
         fill="none"
         stroke="#ffffff"
         stroke-linecap="round"
         stroke-linejoin="round"
         stroke-width="2.5"
         id="path3" />
      <path
         d="m -10.5,-0.85 0.7,-1.1 0.2,-1 0.95,-1.55 1.05,-1.2 0.85,-0.65 0.7,-0.35 0.15,-0.1 0.5,-0.35 0.75,-0.9 Q -4.1,-8.6 -3.2,-8.85 L -2.6,-9 -0.2,-8.75 2.15,-9 l 1,0.25 q 0.65,0.25 1.05,0.7 l 0.8,0.9 0.05,0.05 1.05,0.6 0.15,0.1 1.2,1 0.75,0.9 0.95,1.55 0.25,1 0.65,1.1 q 0.3,0.45 0.3,1.7 l -0.1,1.8 Q 9.95,4.1 8.6,5.1 7.55,5.85 6.15,6.15 L 5.8,6.9 Q 5.25,7.8 4.35,8.3 L 2.2,8.85 0.2,8.65 -0.2,8.45 -0.65,8.65 -2.6,8.85 -4.8,8.3 Q -5.7,7.8 -6.25,6.9 L -6.6,6.15 -9.05,5.1 q -1.3,-1 -1.6,-2.45 l -0.15,-1.8 q 0.05,-1.25 0.3,-1.7 M 3.3,-6.5 3.25,-6.55 2.25,-7.3 0.9,-7.45 0.5,-7.35 v 0.45 0.1 1.5 0.3 0.1 0.25 0.1 0.3 0.1 0.05 0.1 0.15 0.1 0.05 0.1 0.1 0.1 0.1 0.1 0.05 0.1 0.1 0.1 0.05 0.1 0.15 0.1 0.05 0.1 0.05 0.1 0.15 0.1 0.05 0.1 0.05 0.1 0.1 0.05 0.1 0.05 0.1 0.1 0.1 0.1 0.1 0.05 0.1 0.1 0.1 0.1 0.1 0.1 0.1 V 0 0.1 0.2 0.3 0.4 0.5 0.55 0.65 0.8 0.9 1.35 1.45 1.5 1.6 1.65 1.75 1.9 2 2.05 2.15 2.25 2.35 2.4 2.45 2.55 2.6 2.7 2.8 2.9 2.95 3.05 3.2 3.3 3.35 3.45 3.5 3.6 3.75 3.85 3.9 L 0.7,4 1.3,3.95 2.15,3.8 2.35,3.75 3.65,3.9 4.35,4.2 4.75,4.3 5.8,4.25 Q 6.9,4.05 7.65,3.35 L 8.15,2.7 8.25,2.45 8.45,1.5 8.25,-0.15 7.8,-0.75 7.45,-1.4 7.3,-2.35 6.9,-3.1 6.5,-3.65 5.6,-4.6 4.75,-5.15 4.15,-5.45 3.6,-5.85 3.3,-6.5 m -2.75,0.85 v 0.25 -0.25 m -1.2,0.4 v -1.5 -0.1 -0.45 l -0.7,-0.15 -1.35,0.15 -1,0.75 v 0.05 l -0.35,0.65 -0.5,0.4 -0.65,0.3 -0.65,0.45 -1.25,1.35 -0.2,0.25 -0.45,0.75 -0.1,0.95 -0.4,0.65 -0.45,0.6 -0.15,0.55 v 1.1 l 0.25,1.2 0.5,0.65 q 0.75,0.7 1.85,0.9 L -5.2,4.3 -4.7,4.15 -4.1,3.9 -2.8,3.75 -2.3,3.85 -1.5,4 -0.65,3.95 V 3.85 3.8 3.7 3.55 3.45 3.4 3.3 3.2 3.1 3 2.9 2.85 2.75 2.65 2.55 2.5 2.45 2.35 2.25 2.15 2.1 2 1.7 1.6 0.75 0.65 0.6 0.5 0.45 v -0.1 -0.1 -0.1 -0.1 -0.1 -0.1 -0.1 -0.05 -0.1 -0.1 -0.1 -0.1 -0.1 -0.05 -0.1 -0.15 -0.1 -0.05 -0.1 -0.05 -0.1 -0.15 -0.1 -0.05 -0.1 -0.05 -0.1 -0.15 -0.1 -0.05 -0.1 -0.1 -0.1 -0.1 -0.1 V -2.9 -3 -3.1 -3.2 -3.3 -3.4 -3.5 -3.6 -3.65 -3.75 -3.8 -3.9 -4.05 -4.15 -4.2 -4.3 -4.35 -4.45 -4.55 -4.6 -4.7 -4.75 -4.85 -5 -5.1 -5.25"
         fill="#000000"
         fill-rule="evenodd"
         stroke="none"
         id="path4" />
      <path
         d="m 0.5,-5.3 v -1.5 -0.1 -0.45 l 0.4,-0.1 1.35,0.15 1,0.75 0.05,0.05 q -0.95,0.1 -1.85,0.55 l -0.9,0.6 -0.05,0.05 m 5.1,0.7 0.9,0.95 -1.1,-0.5 -0.95,-0.3 q -0.9,-0.15 -1.8,0.3 -0.9,0.45 -1.3,1.25 -0.45,0.8 -0.3,1.75 0.15,0.95 0.8,1.6 L 2.75,1.1 4.3,1.15 5.65,0.35 Q 6.2,-0.35 5.95,-1.1 L 5.6,-1.75 5,-2.35 l -1.05,-0.1 -0.6,0.2 -0.1,0.45 q 0,0.25 0.25,0.35 l 0.5,0.1 0.5,0.6 q -0.3,0.5 -0.9,0.4 l -0.8,-0.6 q -0.35,-0.55 0,-1.15 0.3,-0.6 1,-0.65 l 1.15,0.25 q 0.75,0.35 1.15,0.7 0.7,0.7 0.8,2.4 L 6.8,1.3 6.3,1.7 4.7,2.35 2.95,2.25 Q 2.25,1.9 1.4,0.7 L 1,0 Q 0.75,-0.65 0.9,-1.85 0.95,-2.75 1.25,-3.25 1.6,-4.05 2.5,-4.45 L 4.3,-4.7 5,-4.55 5.6,-4.6 M 8.25,2.45 8.15,2.7 7.65,3.35 Q 6.9,4.05 5.8,4.25 L 4.75,4.3 4.35,4.2 4.55,4.15 Q 6.2,4 7.75,2.9 L 8.25,2.45 M 2.15,3.8 1.3,3.95 0.7,4 0.5,3.9 V 3.85 3.75 3.6 3.5 3.45 3.35 3.3 3.2 3.05 2.95 2.9 2.8 2.7 2.6 2.55 2.45 2.4 L 1.3,3.25 2.15,3.8 M 0.55,-5.65 V -5.4 -5.65 M -3.7,-6.5 v -0.05 l 1,-0.75 1.35,-0.15 0.7,0.15 v 0.45 0.1 1.5 L -0.7,-5.3 -1.6,-5.95 q -1,-0.55 -2.1,-0.55 m 3.05,9 v 0.05 0.1 0.1 0.1 V 2.9 3 3.1 3.2 3.3 3.4 3.45 3.55 3.7 3.8 3.85 3.95 L -1.5,4 -2.3,3.85 -1.4,3.25 -0.65,2.5 M -4.7,4.15 -5.2,4.3 -6.25,4.25 Q -7.35,4.05 -8.1,3.35 L -8.6,2.7 -8.85,1.5 V 0.4 1.1 l 0.3,1.15 0.7,0.65 Q -6.3,4 -4.7,4.15 m -2.4,-7.5 1.25,-1.35 0.05,0.05 0.65,0.1 0.75,-0.15 1.8,0.25 q 0.85,0.4 1.25,1.2 0.25,0.5 0.35,1.4 0.15,1.2 -0.15,1.85 L -1.5,0.7 Q -2.4,1.9 -3.05,2.25 L -4.8,2.35 -6.45,1.7 -6.9,1.3 -7.05,0.6 q 0.1,-1.7 0.85,-2.4 l 1.15,-0.7 1.15,-0.25 q 0.7,0.05 1,0.65 0.3,0.6 0,1.15 -0.3,0.5 -0.85,0.6 -0.55,0.1 -0.85,-0.4 l 0.45,-0.6 0.5,-0.1 0.3,-0.35 -0.1,-0.45 -0.6,-0.2 -1.05,0.1 -0.6,0.6 -0.35,0.65 q -0.25,0.75 0.3,1.45 0.45,0.6 1.35,0.8 L -2.85,1.1 -1.95,0.45 Q -1.3,-0.2 -1.15,-1.15 -1,-2.1 -1.45,-2.9 -1.9,-3.7 -2.75,-4.15 l -1.85,-0.3 -0.95,0.3 -1.45,0.7 -0.1,0.1"
         fill="#475563"
         fill-rule="evenodd"
         stroke="none"
         id="path5" />
      <path
         d="m 3.3,-6.5 0.3,0.65 0.55,0.4 0.6,0.3 L 5.6,-4.6 5,-4.55 4.3,-4.7 2.5,-4.45 q -0.9,0.4 -1.25,1.2 -0.3,0.5 -0.35,1.4 Q 0.75,-0.65 1,0 L 1.4,0.7 Q 2.25,1.9 2.95,2.25 L 4.7,2.35 6.3,1.7 6.8,1.3 6.9,0.6 Q 6.8,-1.1 6.1,-1.8 5.7,-2.15 4.95,-2.5 L 3.8,-2.75 q -0.7,0.05 -1,0.65 -0.35,0.6 0,1.15 l 0.8,0.6 q 0.6,0.1 0.9,-0.4 L 4,-1.35 3.5,-1.45 Q 3.25,-1.55 3.25,-1.8 l 0.1,-0.45 0.6,-0.2 1.05,0.1 0.6,0.6 0.35,0.65 Q 6.2,-0.35 5.65,0.35 L 4.3,1.15 2.75,1.1 1.85,0.45 Q 1.2,-0.2 1.05,-1.15 0.9,-2.1 1.35,-2.9 q 0.4,-0.8 1.3,-1.25 0.9,-0.45 1.8,-0.3 l 0.95,0.3 1.1,0.5 0.4,0.55 0.4,0.75 0.15,0.95 0.35,0.65 0.45,0.6 0.2,1.65 -0.2,0.95 -0.5,0.45 Q 6.2,4 4.55,4.15 L 4.35,4.2 3.65,3.9 2.35,3.75 2.15,3.8 1.3,3.25 0.5,2.4 V 2.35 2.25 2.15 2.05 2 1.9 1.75 1.65 1.6 1.5 1.45 1.35 0.9 0.8 0.65 0.55 0.5 0.4 0.3 0.2 0.1 0 v -0.05 -0.1 -0.1 -0.1 -0.1 -0.1 -0.1 -0.1 V -0.8 -0.9 -1 -1.1 -1.2 -1.3 -1.35 -1.45 -1.5 -1.6 -1.7 -1.75 -1.85 -1.9 -2 -2.15 -2.25 -2.3 -2.4 -2.45 -2.55 -2.7 -2.8 -2.85 -2.95 -3.05 -3.15 -3.2 -3.3 -3.4 -3.5 -3.6 -3.7 -3.75 -3.85 -4 -4.1 -4.15 -4.25 -4.55 -4.65 -4.9 -5 -5.3 l 0.05,-0.05 0.9,-0.6 Q 2.35,-6.4 3.3,-6.5 m -7,0 q 1.1,0 2.1,0.55 l 0.9,0.65 0.05,0.05 v 0.15 0.1 0.15 0.1 0.05 0.1 0.05 0.1 0.1 0.05 0.1 0.05 0.1 0.15 0.1 0.05 0.1 0.05 0.1 0.1 0.1 0.1 0.1 0.1 0.1 0.05 0.1 0.1 0.1 0.1 0.1 0.05 0.1 0.15 0.1 0.05 0.1 0.05 0.1 0.15 0.1 0.05 0.1 0.05 0.1 0.15 0.1 0.05 0.1 0.1 0.1 0.1 0.1 0.05 0.1 0.1 0.1 0.1 0.1 0.1 0.1 0.05 0.1 0.05 0.1 0.85 0.1 0.3 0.1 0.05 0.1 0.1 0.1 0.05 L -1.4,3.25 -2.3,3.85 -2.8,3.75 -4.1,3.9 -4.7,4.15 Q -6.3,4 -7.85,2.9 L -8.55,2.25 -8.85,1.1 V 0.4 l 0.15,-0.55 0.45,-0.6 0.4,-0.65 0.1,-0.95 0.45,-0.75 0.2,-0.25 0.1,-0.1 1.45,-0.7 0.95,-0.3 1.85,0.3 q 0.85,0.45 1.3,1.25 0.45,0.8 0.3,1.75 -0.15,0.95 -0.8,1.6 L -2.85,1.1 -4.4,1.15 q -0.9,-0.2 -1.35,-0.8 -0.55,-0.7 -0.3,-1.45 l 0.35,-0.65 0.6,-0.6 1.05,-0.1 0.6,0.2 0.1,0.45 -0.3,0.35 -0.5,0.1 -0.45,0.6 q 0.3,0.5 0.85,0.4 0.55,-0.1 0.85,-0.6 0.3,-0.55 0,-1.15 -0.3,-0.6 -1,-0.65 l -1.15,0.25 -1.15,0.7 q -0.75,0.7 -0.85,2.4 l 0.15,0.7 0.45,0.4 1.65,0.65 1.75,-0.1 Q -2.4,1.9 -1.5,0.7 L -1.15,0 q 0.3,-0.65 0.15,-1.85 -0.1,-0.9 -0.35,-1.4 -0.4,-0.8 -1.25,-1.2 l -1.8,-0.25 -0.75,0.15 -0.65,-0.1 -0.05,-0.05 0.65,-0.45 0.65,-0.3 0.5,-0.4 0.35,-0.65"
         fill="#617890"
         fill-rule="evenodd"
         stroke="none"
         id="path6" />
    </g>
  </defs>
</svg>
