<?xml version="1.0" encoding="UTF-8" standalone="no"?>
<svg
   ffdec:objectType="frame"
   height="31.113459"
   width="31.852165"
   version="1.1"
   id="svg9"
   sodipodi:docname="STATUS_Damage_Up_Icon.svg"
   xmlns:inkscape="http://www.inkscape.org/namespaces/inkscape"
   xmlns:sodipodi="http://sodipodi.sourceforge.net/DTD/sodipodi-0.dtd"
   xmlns:xlink="http://www.w3.org/1999/xlink"
   xmlns="http://www.w3.org/2000/svg"
   xmlns:svg="http://www.w3.org/2000/svg"
   xmlns:ffdec="https://www.free-decompiler.com/flash">
  <sodipodi:namedview
     id="namedview9"
     pagecolor="#ffffff"
     bordercolor="#000000"
     borderopacity="0.25"
     inkscape:showpageshadow="2"
     inkscape:pageopacity="0.0"
     inkscape:pagecheckerboard="0"
     inkscape:deskcolor="#d1d1d1" />
  <g
     transform="translate(15.52776,16.05677)"
     id="g2">
    <use
       ffdec:characterId="3124"
       height="79.599998"
       transform="matrix(-0.4088,-0.0627,-0.0627,0.4088,23.15,-3.6)"
       width="73.25"
       xlink:href="#shape0"
       id="use1" />
    <use
       ffdec:characterId="3115"
       height="27"
       transform="matrix(0.4028,0,0,0.4028,-15.85,-15.25)"
       width="28.25"
       xlink:href="#shape1"
       id="use2" />
  </g>
  <defs
     id="defs9">
    <g
       id="shape0">
      <path
         d="m 30.15,1.55 0.1,-0.05 2,-0.75 0.45,-0.15 q 1.25,-0.55 1.05,-2.05 l -0.8,-4.45 h 0.25 v -0.05 l 0.05,0.05 5.25,3.2 q 1.75,1 3.75,1 1.2,-0.85 2.25,-1.95 l 0.85,-1.75 0.3,-0.75 3.1,-7.7 1.65,-3.95 0.35,-1.3 0.95,-2.4 0.05,-0.15 0.5,-0.8 h 0.05 q 0.25,1.55 0.75,3.05 l 0.9,2.55 1.05,4.1 0.75,3.1 1.8,7.25 v 0.05 l 0.1,0.1 0.1,0.25 q 0.6,0.95 1.5,1.65 L 60.75,0 60.9,-0.05 q 3.9,-0.2 8.4,-2.55 l 6.3,-3.1 q 1.8,-1.2 4,-2 -5.9,8.45 -9.65,15.15 l -0.1,0.2 -0.1,0.15 -0.05,0.1 -1.5,4.1 -0.1,1.3 V 14 q 0.6,0.85 1.55,1.05 l 0.35,0.1 q 3.75,0.15 7.2,-0.8 l 1.25,-0.3 6.1,-1.7 v 0.05 l -4,4.5 -5.95,6.35 q -1.9,1.9 -1.1,0.25 -0.8,0.95 -0.95,2.45 -0.2,0.6 -0.25,1.35 v 0.1 L 64.2,13.85 56.8,1.3 h 0.05 l -2.25,-3.75 -4.35,-1.35 -4.9,-1.6 4.9,1.6 4.35,1.35 2.25,3.75 H 56.8 l 7.4,12.55 8.1,13.55 q -0.05,1.25 0.8,2.15 1.45,1.6 3.3,2.2 l 0.25,0.15 3.4,0.7 1.3,0.3 0.35,0.05 -0.55,0.45 q -1.3,3.4 -3,4.15 -2.6,1.1 -5.1,2.35 l -3.45,1.75 h -0.1 l -1.25,0.6 -0.3,0.2 -0.2,0.55 -0.45,1.4 -0.65,2.75 -0.3,1.2 -0.2,1.1 q -1.7,0.85 -2,0.3 l -0.55,-1 0.5,1 -0.5,-0.9 -0.4,-0.7 -1.25,-2.1 -0.55,-1 Q 59.8,42.35 58.25,42.2 L 56.75,42 h -0.4 q -0.2,0.05 -0.6,0.25 l -1.35,0.7 -0.85,0.55 -0.25,0.3 -0.4,0.35 q -2.2,2.2 -3.55,5.1 l -0.9,2.05 -0.3,-1.35 Q 47.4,47 44.7,42.2 43.4,38.9 40.15,39.05 H 40.1 l -0.2,0.05 -1.45,0.35 Q 34.2,40.3 30.15,42 l -4.8,1.95 q 0.05,-0.55 0.45,-1 2.5,-2.8 4.65,-5.95 2.75,-4.05 3.9,-8.7 l -0.1,-0.85 -0.1,-0.65 q -0.5,-1.15 -1.5,-2.05 l -0.4,-0.3 -0.3,-0.3 -0.5,-0.2 Q 25.95,22.9 20.4,22.9 l -7.3,0.65 v -0.1 l 2.7,-1.35 q 4.6,-2.2 8.9,-4.95 l 0.15,-0.1 2.95,-2.25 q 1.45,-1.5 1.95,-2.95 -0.5,-2.05 -1.9,-3.6 L 25.9,6.5 22.8,4.45 20.95,3.2 V 3.15 L 20.85,3 q 4.7,-0.2 9.3,-1.45 l 1.3,10.1 0.45,4.55 3.2,2.9 0.05,-0.05 10.9,9.7 11.75,10.7 -3.35,2.8 H 54.4 l -1.45,1.4 -0.05,0.05 -0.05,0.1 -0.05,0.2 v 0.05 l 0.1,0.1 -0.1,-0.1 V 44 l 0.05,-0.2 0.05,-0.1 0.05,-0.05 1.45,-1.4 h 0.05 l 3.35,-2.8 -11.75,-10.7 -10.9,-9.7 -0.05,0.05 -3.2,-2.9 -0.45,-4.55 -1.3,-10.1 m 36.5,45.6 -1.1,-0.9 -2.35,1.9 2.35,-1.9 1.1,0.9 m 14.5,-13.75 -3.6,3 0.6,1.15 -0.6,-1.15 3.6,-3"
         fill="#ffffff"
         fill-rule="evenodd"
         stroke="none"
         id="path2" />
      <path
         d="M 45.35,-5.4 38.9,-7.6 33.45,-9.4 q -1.15,-0.3 -2.2,-0.75 l -2.45,-0.7 1.1,10.3 0.05,0.75 0.2,1.35 1.3,10.1 0.45,4.55 3.2,2.9 0.05,-0.05 10.9,9.7 11.75,10.7 -3.35,2.8 H 54.4 l -1.45,1.4 -0.05,0.05 -0.05,0.1 -0.05,0.2 v 0.05 l 0.1,0.1 0.85,0.85 4.3,3.95 0.3,0.25 0.3,0.25 1.3,1.1 H 60 60.3 l 0.6,-0.5 0.05,-0.05 0.15,-0.15 2.1,-1.7 2.35,-1.9 1.1,0.9 1.4,1.2 0.75,0.65 0.15,0.15 4,3.55 2.15,1.9 0.15,0.05 0.55,-0.35 1.4,-1.15 2.4,-2 2.4,-1.95 1.4,-1.15 0.45,-0.5 V 47.4 l -1.4,-2.5 -2.75,-4.6 -1.55,-2.75 -0.6,-1.15 3.6,-3 0.55,-0.45 0.25,-0.2 0.15,-0.1 0.05,-0.05 0.6,-0.5 0.1,-0.25 v -0.1 L 82.1,30.4 82,30.25 81.85,29.9 81.65,29.6 78.6,24.6 77.85,23.5 77.8,23.45 h -0.2 l -0.1,0.05 -0.1,0.05 -1.6,1.15 H 75.75 L 72.4,27.5 72.3,27.4 64.2,13.85 56.8,1.3 h 0.05 L 54.6,-2.45 50.25,-3.8 Z"
         fill="none"
         stroke="#ffffff"
         stroke-linecap="round"
         stroke-linejoin="round"
         stroke-width="5"
         id="path3" />
      <path
         d="m 66.35,35.3 -4,2.35 -0.25,0.85 q -1.3,1.05 -2.6,0.65 l -1.2,0.6 -0.15,0.05 Q 58,37.95 56.45,37.2 l 0.1,-0.55 -6.3,-6.6 Q 46.4,26.95 42.9,23.5 L 38.55,19 Q 37.4,18.7 36.3,17.45 l -0.9,-1.25 -0.45,-1.3 -0.8,-1 q -1.1,-1.3 -1.05,-2.85 l 0.1,-0.45 0.25,-0.3 0.1,-0.05 Q 32.4,6.2 31.6,2.1 l -0.55,-5.4 v -1.95 q 0.05,-1.7 1.75,-1.9 2.15,0.05 2.6,1.55 L 35.45,-5.65 35.7,-5.7 H 36 v -0.05 q 4.1,0.85 8,2.4 l 0.65,-0.45 0.55,-0.15 q 1.15,0.25 1.95,1.1 0.35,-0.25 0.85,-0.3 1,-0.05 1.6,0.75 l 0.4,0.9 0.65,0.9 0.25,0.3 0.05,0.1 0.2,0.3 0.15,0.1 -0.2,-0.35 Q 50.75,-0.75 51,-1.4 l 0.25,-0.3 0.55,-0.45 0.25,-0.1 0.25,-0.05 h 0.3 v -0.05 l 1.15,0.45 0.55,0.6 8.3,13.65 q 4.35,7.05 7.65,14.6 l 0.1,0.15 q 1.95,0.7 0.4,2.8 l -0.25,0.3 -0.25,0.45 0.05,0.25 v 0.35 l -0.2,1.05 -0.5,0.35 -0.6,0.55 -1.3,1.1 -1.35,1"
         fill="#b6b6b6"
         fill-rule="evenodd"
         stroke="none"
         id="path4" />
      <path
         d="m 67.7,34.3 2.15,-1.55 5.4,-4 0.25,-0.05 h 0.05 l 0.8,-0.9 q 0.55,-0.55 1.25,-0.55 1.8,0.3 1.8,2.1 l -0.3,1.35 -0.4,0.45 -0.35,0.25 -0.2,0.2 -0.95,0.95 -3.65,3.55 q 0.55,0.15 0.95,0.55 l 0.55,0.55 q 1.15,0.2 1.65,1.25 l 0.3,0.6 q 1.9,1.45 2.4,4.25 l 0.1,0.5 0.75,1.25 q 0.85,1.35 0.4,2.3 0,0.9 -0.55,1.75 l -0.25,0.3 -0.65,0.45 q -2.05,2.9 -5,1.95 -1.65,0.35 -3.25,-1.5 L 65.4,43.45 65,43.8 63.75,44.7 v 0.25 L 63.5,45.7 q -1.9,1.5 -2.8,0.15 l -0.45,0.3 0.05,0.35 q 0.1,0.65 -0.2,1.2 -2.1,1.85 -3,-0.75 L 56.75,46.7 q -1.85,-1.8 0.2,-3.65 4.5,-4.1 9.4,-7.75 l 1.35,-1 m 3.75,3.8 -0.3,0.25 0.3,-0.05 v -0.2"
         fill="#5a5a5a"
         fill-rule="evenodd"
         stroke="none"
         id="path5" />
      <path
         d="m 53.35,1.35 -1.6,5 -2.2,6.55 0.05,0.05 -0.1,0.2 0.4,0.5 0.9,1.25 5.3,6.45 5.25,6.4 4.4,5.3 4.25,-3.6 -1,-1.7 -3.1,-5.1 -6.65,-11.3 -5.9,-10 M 43.1,-2.35 32.9,-5.7 l 1.35,10.6 0.9,9.4 5.85,-1 6.8,-0.9 2.2,-6.45 2.1,-5.55 -9,-2.75 m -11.85,-7.8 q 1.05,0.45 2.2,0.75 l 5.45,1.8 11.35,3.8 4.35,1.35 2.25,3.75 H 56.8 l 7.4,12.55 8.2,13.65 3.35,-2.8 h 0.05 l 1.6,-1.15 0.1,-0.05 0.1,-0.05 h 0.2 l 0.05,0.05 0.75,1.1 3.05,5 0.2,0.3 0.15,0.35 0.85,1.5 v 0.1 l -0.1,0.25 -0.6,0.5 -0.05,0.05 -0.15,0.1 -4.4,3.65 2.15,3.9 2.75,4.6 1.4,2.5 v 0.15 l -0.45,0.5 -1.4,1.15 -2.4,1.95 -2.4,2 -1.4,1.15 -0.55,0.35 -0.15,-0.05 -2.15,-1.9 -4,-3.55 -3.4,-2.9 -4.45,3.6 -0.15,0.15 -0.05,0.05 -0.6,0.5 H 60 59.95 l -1.3,-1.1 -0.3,-0.25 -0.3,-0.25 L 53.75,45 52.8,44.05 V 44 l 0.05,-0.2 0.05,-0.1 0.05,-0.05 1.45,-1.4 h 0.05 L 57.8,39.45 46.05,28.75 35.15,19.05 35.1,19.1 31.9,16.2 31.45,11.65 29.95,0.2 29.9,-0.55 l -1.1,-10.3 2.45,0.7 m 17.1,24.45 h -0.3 l -0.1,-0.1 -6.85,0.9 -5.25,0.6 8.7,7.7 9.75,8.75 4.4,4.05 1.5,1.3 4.3,-3.45 -4.75,-5.9 -5.25,-6.4 -5.35,-6.35 -0.8,-1.1 m 11.35,32.05 0.05,-0.1 h 0.05 l 6.95,-5.65 5,-4.1 6.9,-5.75 0.1,-0.1 0.1,-0.1 -0.15,-0.25 -1.2,-2 h -0.15 l -0.15,0.1 v 0.05 l -4.45,3.75 v 0.05 l -1.3,1.05 -7.8,6.4 -1.3,1.05 -4.55,3.6 h -0.05 l -0.1,0.15 -0.05,0.15 1.7,1.55 0.25,0.2 0.15,-0.05 m 12.55,-5.5 -0.15,0.15 -0.4,0.25 -0.1,0.05 -0.05,0.05 -0.05,0.05 -0.1,0.1 -0.3,0.3 -0.2,0.1 v 0.05 l -3.2,2.55 5.45,5.2 1,1 0.25,0.2 1.5,-1.2 3,-2.45 L 80.35,46 80.2,45.7 79.45,44.55 75.4,38.2 72.25,40.85"
         fill="#000000"
         fill-rule="evenodd"
         stroke="none"
         id="path6" />
    </g>
    <g
       id="shape1">
      <path
         d="m 27.85,20.45 0.05,0.05 q 0.2,0.6 -0.3,0.95 l -0.3,0.15 0.1,0.6 0.05,0.5 q 0.25,0.6 0,1.1 l 0.1,0.45 q 0,0.95 -1.05,0.65 -4.05,-1.1 -7.85,-2.95 l -3.4,-1.6 -0.35,0.15 q -4.05,1.85 -8.35,3.1 l -1.9,0.65 -1.2,0.3 Q 3.2,24.95 2.5,24.8 L 2.2,24.5 2.05,24.4 Q 1.85,23.55 2,22.75 L 2.5,20.25 2.7,20.1 2.85,20 3,19.55 3.3,19.35 3.55,19.3 q 0.55,-0.75 1.6,-1.1 l 0.2,-0.05 q 0.75,-0.5 1.55,-0.85 3.45,-1.45 6.7,-3.25 l 0.15,0.05 0.3,-0.25 0.05,-0.3 0.2,-0.15 q 0.15,-0.15 0.4,-0.15 l 0.15,0.05 h 0.1 l 0.05,0.05 0.05,0.05 q 0.35,0.05 0.5,0.4 l 0.05,0.05 1.2,0.8 2.2,1 7.25,3.65 0.65,0.55 q 0.6,0.1 0.95,0.6 M 26.15,9.4 q 0.9,0.05 1.1,0.95 0.45,1.45 0.55,2.95 l 0.2,0.45 v 0.45 0.3 q 0.4,0.95 0.05,1.95 -0.55,1.65 -2.2,1.05 l -1.35,-0.6 -10.45,-5.4 -3.2,2.35 q -2.4,1.6 -5.05,1.95 -0.9,0.6 -1.7,1.35 l -0.5,0.2 Q 2.55,17.5 2.45,16.95 L 2,16.65 Q 1.75,16.15 1.8,15.6 L 2,15 1.95,13.2 Q 1.9,12.25 2.2,11.4 L 2.25,10.95 2.35,10.5 2.5,10.2 2.85,9.9 Q 3.2,9.6 3.7,9.6 L 4.25,9.8 4.75,9.3 9.1,5.3 Q 11.3,3.2 13.9,2.05 V 1.8 L 14.25,1.5 Q 14.6,1.2 15.1,1.2 l 0.3,0.05 0.25,0.05 0.2,0.1 4.35,4 5.95,4"
         fill="#49f849"
         fill-rule="evenodd"
         stroke="none"
         id="path7" />
      <path
         d="m 15.45,-0.25 h 0.1 l 0.9,0.7 3.1,2.65 3.3,2.55 0.95,0.75 1.2,0.95 3,2.1 0.05,0.05 0.2,0.2 0.4,0.45 0.1,0.2 0.05,0.2 0.05,0.2 0.05,0.35 v 0.35 0.05 l 0.1,0.9 0.05,4.2 v 0.3 0.65 L 28.9,21.2 28.75,24.35 28.7,24.6 v 0.15 l -0.05,0.6 0.05,0.25 -0.05,0.25 v 0.05 l -0.4,0.6 -0.6,0.2 -0.25,-0.05 -2.6,-0.8 -1.45,-0.5 -2,-0.8 -1.25,-0.45 -4.05,-1.6 -1.1,-0.5 -1.15,0.5 -4.05,1.6 -1.25,0.45 -2,0.8 -1.4,0.5 -2.65,0.8 L 2.2,26.7 1.6,26.5 1.2,25.9 V 25.85 25.6 25.35 L 1.15,24.75 V 24.6 24.35 L 0.95,21.2 0.8,17.55 V 16.9 16.6 l 0.05,-4.2 0.1,-0.9 V 11.45 11.1 L 1,10.75 1.05,10.55 1.15,10.35 1.2,10.15 1.6,9.7 1.8,9.5 1.85,9.45 4.9,7.35 6.05,6.4 7,5.65 10.3,3.1 l 3.1,-2.65 0.95,-0.7 h 0.05 0.55 0.5 m 7,18.15 -1.1,-0.5 -3.65,-2.2 -0.75,-0.45 -1.2,-0.7 -0.1,-0.1 -0.7,-0.45 -0.75,0.5 -0.1,0.05 -1.2,0.7 -0.75,0.45 -3.65,2.2 -1.05,0.5 -1.7,0.9 -0.55,0.25 -2.15,1.1 v 2.6 0.45 L 3.2,24.45 10.05,21.8 14.3,20 h 0.05 l 0.1,-0.05 0.35,-0.05 h 0.2 0.05 0.05 l 0.3,0.05 0.1,0.05 h 0.05 l 4.25,1.8 6.9,2.65 0.1,-1.25 v -0.45 -2.6 L 24.65,19.05 24.1,18.8 22.45,17.9 M 24.65,9.4 24.1,9 22.45,7.8 22.25,7.7 21.35,7.1 18.15,4.45 17.45,3.9 16,2.75 15.8,2.55 15.75,2.5 14.95,1.8 14.1,2.5 14.05,2.55 13.85,2.75 12.4,3.9 11.75,4.45 8.5,7.1 7.6,7.7 7.45,7.8 5.75,9 5.2,9.4 3.15,10.8 3.1,11.25 3.05,15.4 3.1,16.85 10.05,13.2 q 2.2,-1.15 4.25,-2.5 h 0.05 q 0.2,-0.15 0.45,-0.15 h 0.25 l 0.45,0.15 h 0.05 q 2.05,1.35 4.25,2.5 l 7,3.65 V 15.4 L 26.75,11.25 26.7,10.8 24.65,9.4"
         fill="#000000"
         fill-rule="evenodd"
         stroke="none"
         id="path8" />
      <path
         d="m 24.65,9.4 2.05,1.4 0.05,0.45 0.05,4.15 v 1.45 l -7,-3.65 Q 17.6,12.05 15.55,10.7 H 15.5 L 15.05,10.55 H 14.8 q -0.25,0 -0.45,0.15 H 14.3 q -2.05,1.35 -4.25,2.5 L 3.1,16.85 3.05,15.4 3.1,11.25 3.15,10.8 5.2,9.4 5.75,9 7.45,7.8 7.6,7.7 8.5,7.1 11.75,4.45 12.4,3.9 l 1.45,-1.15 0.2,-0.2 0.05,-0.05 0.85,-0.7 0.8,0.7 0.05,0.05 0.2,0.2 1.45,1.15 0.7,0.55 3.2,2.65 0.9,0.6 0.2,0.1 1.65,1.2 0.55,0.4 m -2.2,8.5 1.65,0.9 0.55,0.25 2.15,1.1 v 2.6 0.45 L 26.7,24.45 19.8,21.8 15.55,20 H 15.5 L 15.4,19.95 15.1,19.9 H 15.05 15 14.8 L 14.45,19.95 14.35,20 H 14.3 L 10.05,21.8 3.2,24.45 3.05,23.2 v -0.45 -2.6 l 2.15,-1.1 0.55,-0.25 1.7,-0.9 1.05,-0.5 3.65,-2.2 0.75,-0.45 1.2,-0.7 0.1,-0.05 0.75,-0.5 0.7,0.45 0.1,0.1 1.2,0.7 0.75,0.45 3.65,2.2 1.1,0.5"
         fill="#8fde8f"
         fill-rule="evenodd"
         stroke="none"
         id="path9" />
    </g>
  </defs>
</svg>
