<?xml version="1.0" encoding="UTF-8" standalone="no"?>
<svg
   ffdec:objectType="frame"
   height="38.582203"
   width="35.651283"
   version="1.1"
   id="svg3"
   sodipodi:docname="STATUS_Webbed_Icon.svg"
   xmlns:inkscape="http://www.inkscape.org/namespaces/inkscape"
   xmlns:sodipodi="http://sodipodi.sourceforge.net/DTD/sodipodi-0.dtd"
   xmlns:xlink="http://www.w3.org/1999/xlink"
   xmlns="http://www.w3.org/2000/svg"
   xmlns:svg="http://www.w3.org/2000/svg"
   xmlns:ffdec="https://www.free-decompiler.com/flash">
  <sodipodi:namedview
     id="namedview3"
     pagecolor="#ffffff"
     bordercolor="#000000"
     borderopacity="0.25"
     inkscape:showpageshadow="2"
     inkscape:pageopacity="0.0"
     inkscape:pagecheckerboard="0"
     inkscape:deskcolor="#d1d1d1" />
  <g
     transform="translate(16.943718,19.337991)"
     id="g1">
    <use
       ffdec:characterId="3142"
       height="74.099998"
       transform="matrix(0.5208,0,0,0.5208,-10.1,-13.75)"
       width="68.449997"
       xlink:href="#shape0"
       id="use1" />
  </g>
  <defs
     id="defs3">
    <g
       id="shape0">
      <path
         d="m -1.6,32.8 q -0.35,-2.6 -1.5,-3.2 l -4.05,-1.45 -0.2,-0.05 q -5.8,-1.1 -5.7,-3.25 -0.8,-2.75 5.45,-3.6 L -4.95,20.6 H -5 l 2.6,-1.75 q 1.3,-1.2 2,-2.9 Q 0.9,11.75 0.15,9 -0.9,5.8 -2.3,3.2 V 3.15 l -1.65,-3.1 q -0.4,-0.75 -0.25,-1.55 0.05,-0.85 0.75,-1.35 0.65,-0.6 1.5,-0.6 Q 0.3,-3.9 4.4,0.7 7,3.6 8.65,4.6 10.35,5.35 12.7,5.1 15.05,4.85 16.65,4 17.85,3.3 18.35,2.1 L 18.4,2.05 q 0.6,-1.9 1.1,-5.3 0.4,-4.05 0.85,-4.95 l 0.95,-1.6 q 0.6,-0.7 1.75,-0.9 1.1,-0.2 2,0.95 0.9,1.1 1.05,2.5 l 0.2,5.15 q 0.1,5.55 1.6,7 2.4,2.05 5.25,2 L 34.3,6.75 37.85,5.35 H 37.9 Q 40.35,4 44,2.15 46.1,1 47.1,0.8 l 3,0.15 q 1.5,0.55 0.85,2.55 -0.7,2 -1.8,2.9 l -2.5,1.95 q -2.4,1.75 -3.25,3.35 -0.85,1.6 -1.2,3.15 v 0.05 q -0.35,1.6 -0.2,4.55 v 0.05 q 0.1,1.3 0.3,1.8 l 0.4,0.9 1,0.9 q 0.75,0.5 2.55,0.6 l 5.35,0.6 q 0.9,0.1 1.9,0.55 0.95,0.45 1.55,1.35 0.65,0.85 -0.3,1.95 -0.95,1.1 -3.6,1.65 l -3.75,0.9 -0.1,0.05 q -0.9,0.15 -2.05,0.8 L 45.2,31.6 q -1.3,0.65 -2.45,1.65 L 42.7,33.3 q -1.15,0.95 -2.1,2.2 l -0.05,0.1 q -0.9,1.15 -1.45,2.65 -0.55,1.5 -0.65,2.35 -0.15,0.8 0,1.75 0.15,0.95 1.35,2.95 l 1.45,2.35 -0.05,-0.05 q 1.2,1.8 1.45,3.75 0.3,1.8 -1.3,2.05 l -2.9,-0.45 Q 37.05,52.3 36.5,51.8 l -1.75,-1.3 q -1.1,-0.85 -2.05,-1 H 32.6 L 30.75,49.35 H 29.4 q -0.7,0.05 -2.1,0.6 -0.9,0.35 -1.8,1 l -0.8,0.6 -0.6,0.65 q -1.35,1.75 -2.05,3.55 l -0.05,0.1 -1.35,4.2 V 60.1 Q 20.1,61.7 19.6,62.2 18.4,63.6 17.1,63.3 16.05,63.25 15.25,61.75 14.6,60.8 14.4,56.4 l -0.05,-0.85 -0.25,-1.4 -0.4,-1.4 Q 13.5,51.95 12.25,50.5 11.05,49.1 9.4,48.3 7.75,47.5 5.9,47.5 4,47.45 2.35,48.2 l -0.2,0.1 -3.5,2.15 q -4.25,2.65 -5.5,3.05 -3.05,1.05 -3.9,-0.75 -0.5,-1.25 0.65,-3.4 1.4,-2.65 4.6,-5.5 3.25,-2.95 3.7,-5.3 0.5,-3.3 0.2,-5.75"
         fill="#ffffff"
         fill-rule="evenodd"
         stroke="none"
         id="path1" />
      <path
         d="m -6.1,1.1 h 0.05 V 1.15 L -6.1,1.1"
         fill="#383838"
         fill-rule="evenodd"
         stroke="none"
         id="path2" />
      <path
         d="m -3.35,44.95 q 3.4,-3.1 3.45,-3.6 1.1,-5.2 0.65,-8.9 -0.5,-3.95 -2.1,-6.15 L -6.9,25.8 q -6.95,-1.3 -0.3,-2.25 l 3.1,-0.8 Q -2.8,22.25 -0.85,20.6 0.95,19.05 1.8,16.8 3.45,11.65 2.4,8.3 1.3,4.85 -0.2,2.05 l -1.7,-3.2 q 1.5,-0.05 4.6,3.4 3.1,3.4 5.05,4.45 2.2,1 5.2,0.75 2.95,-0.3 4.9,-1.4 1.95,-1.15 2.75,-3.15 0.75,-2.05 1.25,-5.85 0.4,-3.85 1.25,-5.1 0.8,-1.3 0.95,6 0.1,7.2 2.6,8.9 Q 29.15,8.5 31.1,9 33,9.4 34.8,9.05 36.55,8.65 38.95,7.4 L 45.1,4.2 q 3.65,-1.9 3.35,-0.95 -0.4,1 -3.2,3.2 -2.85,2.2 -3.9,4.15 -1,1.9 -1.4,3.8 -0.4,1.8 -0.25,5.2 0.1,1.7 0.5,2.85 0.3,1.05 1.55,2.25 1.2,1.1 4.35,1.35 l 5.2,0.55 q 2.05,0.3 -0.7,0.9 l -3.85,0.95 q -1.1,0.25 -2.6,1.05 l -2.9,2 q -1.35,1.1 -2.45,2.6 -1.2,1.45 -2,3.55 -0.65,1.8 -0.7,3.7 0.3,2.8 1.75,5.15 l 1.45,2.35 q 1.75,2.7 0.5,2.05 -1.2,-0.6 -3.3,-2.1 -2.1,-1.5 -3.5,-1.65 l -1.95,-0.2 -1.2,-0.05 Q 28,47.1 26.4,47.8 l -2.2,1.2 -0.8,0.6 -1.05,1.1 q -1.6,2.1 -2.45,4.15 l -1.45,4.5 q -1.3,4.1 -1.65,-3.1 V 56.1 q -0.2,-2.95 -0.75,-4.7 -0.3,-1.3 -0.8,-2.25 -1,-1.4 -2.55,-2.3 Q 10.5,45.6 9,45.2 L 6.15,44.7 3.4,44.9 q -1.4,0.25 -7,4.1 -5.7,3.85 -4.35,1.45 1.25,-2.35 4.6,-5.5 m 29.5,-29.65 4.35,0.25 h 0.05 l 3.4,-3.4 h -0.4 q -4.65,0 -7.7,-1.75 -1.5,-0.9 -2.6,-2.15 L 23,13 q 0.9,1.7 3.15,2.3 m -9,0.3 q 2.45,-0.9 3.2,-2.75 V 12.8 l 0.2,-4.1 -1.95,0.85 q -3.25,1.2 -6.7,1.25 l -4.2,-0.4 4.55,5.15 q 2.4,0.95 4.9,0.05 m 5.4,4.55 -0.35,3.75 5.35,-5.35 h -0.2 q -2.15,-0.25 -3.7,-1.1 l -0.9,-0.55 -0.2,3.25 M 35.9,25.9 38.55,26 q -0.6,-0.95 -1.05,-2.1 -0.85,-2.4 -0.8,-6.05 0.1,-3.15 0.85,-5.7 l -4.55,4.6 -0.6,0.65 -0.2,0.4 -0.15,0.65 q -0.45,3.1 0.95,5.9 0.5,1.05 1.1,1.5 l 1.8,0.05 M 8.45,22.35 q 1.15,-1.5 0.6,-4.5 -0.55,-3 -3.55,-5.3 -0.2,2.85 -1.55,5.9 -1.45,3 -3.5,5.1 L 6.2,23.8 q 1.1,0 2.25,-1.45 m 2.85,2 4.85,0.45 -4.6,-5.5 -0.15,2 q -0.55,1.8 -2,2.9 l 1.9,0.15 m 8.15,-0.25 0.6,-6.9 -1.9,0.75 -3.35,0.55 4.65,5.6 m -0.85,6.65 -5.75,5.2 q 2.7,0.5 4.45,2 l 0.8,0.8 0.5,-8 m -2.3,-2.9 -6.9,-0.6 0.15,0.35 q 0.7,1.45 0.85,3.4 0.15,1.55 -0.05,2.7 l 6.4,-5.8 -0.45,-0.05 M 8.1,30.6 Q 7.5,27.5 6.25,27 L 1.15,26.5 2.4,29 q 0.95,2.05 0.95,5.25 -0.05,3.2 -0.65,5.95 l 4.75,-3.8 q 1.2,-2.75 0.65,-5.8 m 7.6,9.75 q -1.5,-1.2 -2.75,-1.6 l -2.9,-0.5 -4.2,3.6 1.2,0.1 q 3.1,0.55 6.45,2.5 2.5,1.5 3.9,3.3 l 0.5,-4.8 -0.05,-0.05 V 42.85 L 17.8,42.8 q -0.75,-1.4 -2.1,-2.45 m 18,-11.25 q -0.6,0.15 -1.15,0.6 -1.6,1.25 -1.8,3.85 -0.1,1.65 0.4,4.35 l 0.1,0.55 1.8,2.3 q 0.1,-1.5 0.55,-2.95 1.4,-4.95 6,-8.75 l 0.15,-0.15 -5.25,0.05 -0.8,0.15 m -10.35,-0.6 4.8,6 -0.05,-0.5 0.2,-1.9 q 0.4,-1.95 1.45,-3.25 l -6.4,-0.35 m -1.4,3.4 -0.6,8 1.4,-0.95 Q 24.6,38 26.65,37.85 H 26.7 L 21.95,31.9 m 7.6,9.7 -1.1,-0.9 -0.9,-0.1 -1.6,0.1 q -2.8,0.45 -4.9,3.25 V 44 l -0.45,4.6 q 1.7,-1.65 4.2,-3 3.35,-1.7 6.45,-1.9 v -0.05 l -1.7,-2.05 m -5.25,-16.2 6.2,0.3 -0.25,-0.5 q -1,-2.4 -0.95,-4.75 l -5,4.95"
         fill="#000000"
         fill-rule="evenodd"
         stroke="none"
         id="path3" />
    </g>
  </defs>
</svg>
