<?xml version="1.0" encoding="UTF-8" standalone="no"?>
<svg
   ffdec:objectType="frame"
   height="32.699997"
   width="23.299999"
   version="1.1"
   id="svg4"
   sodipodi:docname="STATUS_Holy_Shield_Icon.svg"
   xmlns:inkscape="http://www.inkscape.org/namespaces/inkscape"
   xmlns:sodipodi="http://sodipodi.sourceforge.net/DTD/sodipodi-0.dtd"
   xmlns:xlink="http://www.w3.org/1999/xlink"
   xmlns="http://www.w3.org/2000/svg"
   xmlns:svg="http://www.w3.org/2000/svg"
   xmlns:ffdec="https://www.free-decompiler.com/flash">
  <sodipodi:namedview
     id="namedview4"
     pagecolor="#ffffff"
     bordercolor="#000000"
     borderopacity="0.25"
     inkscape:showpageshadow="2"
     inkscape:pageopacity="0.0"
     inkscape:pagecheckerboard="0"
     inkscape:deskcolor="#d1d1d1" />
  <g
     transform="translate(11.55,16.549998)"
     id="g1">
    <use
       ffdec:characterId="3299"
       height="33.400002"
       transform="translate(-8.4,-11.9)"
       width="23.35"
       xlink:href="#sprite0"
       id="use1" />
  </g>
  <defs
     id="defs4">
    <g
       id="sprite0">
      <use
         ffdec:characterId="3298"
         height="33.400002"
         width="23.35"
         xlink:href="#shape0"
         id="use2" />
    </g>
    <g
       id="shape0">
      <path
         d="M 18.15,11.75 V 7.55 5.8 L 17.95,5.25 17.4,4.5 15.65,2.75 9.9,-2.4 9.65,-2.6 7.55,-2.65 7.1,-2.3 1.45,2.8 -0.5,4.55 q -0.55,0.45 -0.6,1 l -0.05,2.1 v 3.9 0.1 4.2 1.75 l 0.2,0.55 0.55,0.75 1.75,1.75 5.75,5.15 0.25,0.2 2.1,0.05 0.45,-0.35 5.65,-5.1 1.95,-1.75 q 0.55,-0.45 0.6,-1 l 0.05,-2.1 v -3.9 z"
         fill="none"
         stroke="#ffffff"
         stroke-linecap="round"
         stroke-linejoin="round"
         stroke-width="4"
         id="path2" />
      <path
         d="m 18.1,11.8 v 0.1 3.9 l -0.05,2.1 -0.6,1 -1.95,1.75 -5.65,5.1 L 9.4,26.1 7.3,26.05 7.05,25.85 1.3,20.7 -0.45,18.95 -1,18.2 -1.2,17.65 V 15.9 11.7 11.6 7.7 l 0.05,-2.1 q 0.05,-0.55 0.6,-1 L 1.4,2.85 7.05,-2.25 7.5,-2.6 l 2.1,0.05 0.25,0.2 5.75,5.15 1.75,1.75 0.55,0.75 0.2,0.55 v 1.75 4.2 m -6.25,-4.65 1,0.9 1.9,-1.7 L 15.6,5.6 13.8,3.95 8.95,-0.6 v 5.15 l 0.15,0.1 2.75,2.5 m 1.35,6.95 v 0.15 0.45 l 2.75,2.4 0.1,0.1 V 6.2 L 15.95,6.3 13.2,8.65 V 9.1 9.25 14.1 M 5.9,7.85 4.8,8.95 v 5.65 l 1.1,1.1 2.55,2.4 2.55,-2.45 1.1,-1.1 V 8.9 L 11,7.8 8.5,5.45 5.9,7.85 M 9,18.8 8.95,18.85 V 24.1 L 13.8,19.5 15.6,17.85 14.75,17.1 12.8,15.45 q -0.35,0.25 -0.95,0.8 L 9,18.8 M 3.1,19.55 7.95,24.1 V 18.95 L 7.8,18.85 5.05,16.35 4.1,15.5 2.15,17.15 1.3,17.9 3.1,19.55 M 3.7,9.4 V 9.25 8.8 L 0.95,6.4 0.85,6.35 V 17.3 L 0.95,17.2 3.7,14.85 V 14.4 14.25 9.4 m -1.55,-3 2,1.7 L 5.05,7.25 7.9,4.7 7.95,4.65 V -0.6 L 3.1,4 1.3,5.65 2.15,6.4"
         fill="#333366"
         fill-rule="evenodd"
         stroke="none"
         id="path3" />
      <path
         d="M 13.2,14.1 V 9.25 9.1 8.65 l 2.75,-2.35 0.1,-0.1 v 11 L 15.95,17.1 13.2,14.7 V 14.25 14.1 M 11.85,7.15 9.1,4.65 8.95,4.55 V -0.6 l 4.85,4.55 1.8,1.65 -0.85,0.75 -1.9,1.7 -1,-0.9 M 5.9,7.85 8.5,5.45 11,7.8 12.1,8.9 v 5.65 L 11,15.65 8.45,18.1 5.9,15.7 4.8,14.6 V 8.95 L 5.9,7.85 M 2.15,6.4 1.3,5.65 3.1,4 7.95,-0.6 V 4.65 L 7.9,4.7 5.05,7.25 4.15,8.1 2.15,6.4 m 1.55,3 v 4.85 0.15 0.45 L 0.95,17.2 0.85,17.3 V 6.35 L 0.95,6.4 3.7,8.8 V 9.25 9.4 M 3.1,19.55 1.3,17.9 2.15,17.15 4.1,15.5 l 0.95,0.85 2.75,2.5 0.15,0.1 V 24.1 L 3.1,19.55 M 9,18.8 11.85,16.25 q 0.6,-0.55 0.95,-0.8 l 1.95,1.65 0.85,0.75 -1.8,1.65 -4.85,4.6 V 18.85 L 9,18.8"
         fill="#66ccff"
         fill-rule="evenodd"
         stroke="none"
         id="path4" />
    </g>
  </defs>
</svg>
