<?xml version="1.0" encoding="UTF-8" standalone="no"?>
<svg
   ffdec:objectType="frame"
   height="29.724804"
   width="19.13467"
   version="1.1"
   id="svg6"
   sodipodi:docname="UI_Metal_Icon.svg"
   xmlns:inkscape="http://www.inkscape.org/namespaces/inkscape"
   xmlns:sodipodi="http://sodipodi.sourceforge.net/DTD/sodipodi-0.dtd"
   xmlns:xlink="http://www.w3.org/1999/xlink"
   xmlns="http://www.w3.org/2000/svg"
   xmlns:svg="http://www.w3.org/2000/svg"
   xmlns:ffdec="https://www.free-decompiler.com/flash">
  <sodipodi:namedview
     id="namedview6"
     pagecolor="#ffffff"
     bordercolor="#000000"
     borderopacity="0.25"
     inkscape:showpageshadow="2"
     inkscape:pageopacity="0.0"
     inkscape:pagecheckerboard="0"
     inkscape:deskcolor="#d1d1d1" />
  <g
     transform="translate(9.9346702,14.974805)"
     id="g1">
    <use
       ffdec:characterId="3318"
       height="29.85"
       transform="translate(-7.3,-13.1)"
       width="19.15"
       xlink:href="#sprite0"
       id="use1" />
  </g>
  <defs
     id="defs6">
    <g
       id="sprite0">
      <use
         ffdec:characterId="3317"
         height="29.85"
         width="19.15"
         xlink:href="#shape0"
         id="use2" />
    </g>
    <g
       id="shape0">
      <path
         d="m 1,9.95 q -1.15,1.7 -1.2,3.4 l 0.15,1.85 v 0.05 l 1.8,6.35 0.2,0.8 0.4,2.05 q 0.15,0.7 1.1,1.2 l 1.1,0.45 4.35,0.25 q 1.8,-0.2 2.7,-0.7 l 0.35,-0.25 q 0.6,-0.5 0.8,-1.8 l 0.9,-3.75 1.05,-4 0.15,-0.6 L 15,13.4 Q 14.95,11.7 13.8,10 12.35,7.75 10.15,7.25 l 0.25,-3 V 4.2 L 10.8,3.95 Q 11.6,3.25 11.6,2.2 11.5,0.95 10.45,0.35 L 8.8,-0.25 H 8.75 q -1.55,-0.25 -2.9,0 L 4.4,0.3 Q 3.3,0.9 3.2,2.15 3.2,3.2 4.05,3.9 L 4.4,4.15 V 4.2 l 0.3,3 Q 2.6,7.65 1.3,9.5 L 1.15,9.7"
         fill="none"
         stroke="#ffffff"
         stroke-linecap="round"
         stroke-linejoin="round"
         stroke-width="3"
         id="path2" />
      <path
         d="M 14,8.1 14.35,8.15 14.1,6.7 14.05,6.25 14.6,6.1 Q 15.8,5.85 15.3,5.5 L 14.4,5.45 13.8,5.6 13.4,4.4 Q 12.95,3.4 12.8,3.75 L 13,5.05 13.1,5.7 Q 11.65,5.95 11.75,6.15 L 12.5,6.4 h 0.8 L 13.45,6.95 14,8.1 M 1.3,8.75 Q 1.1,9.25 0.95,8.95 0.7,8.5 0.55,6.9 L 0.5,6.35 -0.35,6.45 Q -2.05,6.6 -1.5,6 L -0.3,5.5 0.5,5.35 V 3.75 Q 0.65,2.25 0.95,2.65 1.2,2.95 1.3,4.4 L 1.4,5.25 2,5.2 2.85,5.25 3.25,5.5 2.5,5.95 1.45,6.25 1.5,7 Z"
         fill="none"
         stroke="#ffffff"
         stroke-linecap="round"
         stroke-linejoin="round"
         stroke-width="2"
         id="path3" />
      <path
         d="M 3.2,2.2 Q 3.3,0.95 4.4,0.35 4.9,0 5.85,-0.2 q 1.35,-0.25 2.9,0 H 8.8 l 1.65,0.6 Q 11.5,1 11.6,2.25 11.6,3.3 10.8,4 L 10.4,4.25 V 4.3 l -0.25,3 q 2.2,0.5 3.65,2.75 1.15,1.7 1.2,3.4 l -0.15,1.85 -0.15,0.6 -1.05,4 -0.9,3.75 q -0.2,1.3 -0.8,1.8 L 11.6,25.7 q -0.9,0.5 -2.7,0.7 L 4.55,26.15 3.45,25.7 Q 2.7,25.3 2.5,24.85 L 2.35,24.5 1.95,22.45 1.75,21.65 -0.05,15.3 V 15.25 L -0.2,13.4 Q -0.15,11.7 1,10 L 1.15,9.75 q 1.3,-2 3.55,-2.5 l -0.3,-3 V 4.2 L 4.05,3.95 Q 3.2,3.25 3.2,2.2 M 13.25,12.4 12.3,10.5 12.05,10.2 Q 11.35,9.5 10.5,9.05 10.05,8.8 9.6,8.65 L 9.55,8.8 Q 9.35,9.1 9.05,9.05 8.75,9 8.65,8.45 V 6.85 L 8.95,4.75 9.05,4.1 8.95,4.05 8.4,3.8 8.3,3.65 Q 8.4,3.5 9.15,3.2 L 10,2.45 Q 10.15,2.05 9.45,1.6 L 9.3,1.5 Q 8.7,1.15 8,1.05 L 6.5,1.1 Q 5.8,1.25 5.25,1.65 4.65,2 4.8,2.4 4.9,2.75 5.55,3.1 L 6.2,3.45 6.4,3.55 5.85,4 5.75,4.05 6,5.35 6.1,6.25 6.15,6.8 V 8.4 Q 6.05,8.95 5.75,9 5.45,9.05 5.25,8.75 L 5.2,8.6 Q 3.6,9.15 2.5,10.45 1.45,11.8 1.45,13.5 l 0.15,1.3 v 0.15 l 0.1,0.4 0.15,0.6 0.2,0.7 0.05,0.1 0.15,0.6 0.45,1.7 0.2,0.8 0.05,0.1 0.8,3.15 L 4,24 4.3,24.2 q 1.6,0.7 3.95,0.65 l 1.15,-0.15 1.2,-0.3 0.5,-0.5 q 0.15,-1.6 0.8,-4 l 0.65,-2.35 0.2,-0.75 0.05,-0.2 0.3,-1.2 v -0.05 l 0.25,-1.55 v -0.25 -0.1 L 13.25,12.4 M 8.5,1.5 8.7,1.8 8.35,2.2 7.4,2.35 6.5,2.2 6.1,1.8 6,1.75 6.15,1.7 6.5,1.4 7.4,1.25 8.35,1.4 8.5,1.5"
         fill="#000000"
         fill-rule="evenodd"
         stroke="none"
         id="path4" />
      <path
         d="M 12.05,10.2 2.1,16.75 2.05,16.65 1.85,15.95 1.7,15.35 1.6,14.95 V 14.8 l 8.9,-5.75 q 0.85,0.45 1.55,1.15 m -9.35,8.85 5.4,-3.45 5.15,-3.2 0.1,1.05 -10.4,6.5 -0.05,-0.1 -0.2,-0.8 m 10.05,-2.25 -0.2,0.75 -0.65,2.35 q -0.65,2.4 -0.8,4 l -0.5,0.5 -1.2,0.3 -1.15,0.15 Q 5.9,24.9 4.3,24.2 l 1.6,0.05 2.25,-0.1 q 1.8,-0.25 2.1,-0.6 l 2.5,-6.75 M 6,1.75 Q 5.25,1.95 5.55,2.65 L 6.2,3.45 5.55,3.1 Q 4.9,2.75 4.8,2.4 4.65,2 5.25,1.65 5.8,1.25 6.5,1.1 L 8,1.05 Q 8.7,1.15 9.3,1.5 H 8.5 L 8.35,1.4 7.4,1.25 6.5,1.4 6.15,1.7 6,1.75 M 6,5.35 8.4,3.8 8.95,4.05 9.05,4.1 8.95,4.75 6.1,6.25 6,5.35"
         fill="#d0d0d0"
         fill-rule="evenodd"
         stroke="none"
         id="path5" />
      <path
         d="M 13.85,7.85 13.3,6.75 13.15,6.2 h -0.8 L 11.55,5.95 Q 11.5,5.7 12.95,5.5 l -0.1,-0.7 -0.2,-1.25 q 0.1,-0.35 0.6,0.65 l 0.4,1.15 0.55,-0.1 0.95,0.05 q 0.55,0.3 -0.7,0.6 l -0.55,0.15 0.05,0.4 0.25,1.5 q -0.1,0.3 -0.35,-0.1 m -1.8,2.35 0.25,0.3 0.95,1.9 -5.15,3.2 -5.4,3.45 -0.45,-1.7 -0.15,-0.6 9.95,-6.55 m 1.3,3.25 v 0.1 0.25 l -0.25,1.55 v 0.05 l -0.3,1.2 -0.05,0.2 -2.5,6.75 q -0.3,0.35 -2.1,0.6 L 5.9,24.25 4.3,24.2 4,24 3.75,23.1 2.95,19.95 13.35,13.45 M 10.5,9.05 1.6,14.8 1.45,13.5 Q 1.45,11.8 2.5,10.45 3.6,9.15 5.2,8.6 L 5.25,8.75 Q 5.45,9.05 5.75,9 6.05,8.95 6.15,8.4 V 6.8 L 6.1,6.25 8.95,4.75 8.65,6.85 v 1.6 Q 8.75,9 9.05,9.05 9.35,9.1 9.55,8.8 L 9.6,8.65 q 0.45,0.15 0.9,0.4 M 6,1.75 6.1,1.8 6.5,2.2 7.4,2.35 8.35,2.2 8.7,1.8 8.5,1.5 H 9.3 L 9.45,1.6 Q 10.15,2.05 10,2.45 L 9.15,3.2 Q 8.4,3.5 8.3,3.65 L 8.4,3.8 6,5.35 5.75,4.05 5.85,4 6.4,3.55 6.2,3.45 5.55,2.65 Q 5.25,1.95 6,1.75 M 1.25,8.5 Q 1.05,9 0.9,8.65 L 0.55,6.65 0.5,6.1 -0.4,6.2 Q -2.1,6.35 -1.55,5.7 -1.4,5.5 -0.35,5.25 L 0.45,5.05 0.5,3.45 Q 0.6,1.95 0.9,2.35 L 1.3,4.1 1.35,5 1.95,4.95 2.8,5 Q 3.1,5.05 3.25,5.2 L 2.5,5.65 1.45,6 v 0.7 l -0.2,1.8"
         fill="#707070"
         fill-rule="evenodd"
         stroke="none"
         id="path6" />
    </g>
  </defs>
</svg>
