<?xml version="1.0" encoding="UTF-8" standalone="no"?>
<svg
   ffdec:objectType="frame"
   height="32.264755"
   width="31.459724"
   version="1.1"
   id="svg4"
   sodipodi:docname="STATUS_Charmed_Icon.svg"
   xmlns:inkscape="http://www.inkscape.org/namespaces/inkscape"
   xmlns:sodipodi="http://sodipodi.sourceforge.net/DTD/sodipodi-0.dtd"
   xmlns:xlink="http://www.w3.org/1999/xlink"
   xmlns="http://www.w3.org/2000/svg"
   xmlns:svg="http://www.w3.org/2000/svg"
   xmlns:ffdec="https://www.free-decompiler.com/flash">
  <sodipodi:namedview
     id="namedview4"
     pagecolor="#ffffff"
     bordercolor="#000000"
     borderopacity="0.25"
     inkscape:showpageshadow="2"
     inkscape:pageopacity="0.0"
     inkscape:pagecheckerboard="0"
     inkscape:deskcolor="#d1d1d1" />
  <g
     transform="translate(15.573615,15.937979)"
     id="g1">
    <use
       ffdec:characterId="3107"
       height="76.199997"
       transform="matrix(0.4237,0,0,0.4237,-13.9,-13.65)"
       width="74.25"
       xlink:href="#shape0"
       id="use1" />
  </g>
  <defs
     id="defs4">
    <g
       id="shape0">
      <path
         d="m 18.05,47.45 q 1.4,-1.4 3.4,-1.95 l 0.45,-0.1 1.55,-0.1 q 4.8,0.2 5.75,5.1 v 0.1 l 0.15,2.05 Q 29.3,56.4 27.2,59.45 L 24.5,63 23.25,64.3 q -0.7,0.8 -3.05,2.6 l -0.5,0.35 H 19.1 L 18.6,66.9 Q 17.45,65.25 15.5,63.75 13.55,62.2 12.05,61.7 10.55,61.15 8.4,59.9 6.25,58.7 5.25,56.25 q -1,-2.45 -0.2,-5.15 0.8,-2.7 3.3,-4.1 2.5,-1.45 4.45,-1.25 l 2.9,0.45 q 0.85,0.25 2.35,1.25 m 35.35,-9.6 q 3.55,-0.05 5.3,1.75 1.75,1.8 1.55,5.1 3.7,0.65 5.25,2.25 1.3,1.35 1.3,3.85 0,4.15 -2.55,6.05 -2.55,1.9 -6.2,1.8 -3.65,-0.1 -6.9,0.8 -3.3,0.9 -4.1,1.45 -0.8,0.55 -1.85,-2.45 -1.15,-3.3 -1.15,-6.35 0,-5.65 2.9,-9.9 2.9,-4.3 6.45,-4.35 M 16.55,34.65 Q 7.8,31.1 3.5,26.6 -0.45,22.55 -0.45,17.95 l 0.4,-3 q 0.5,-2.25 1.8,-4.45 1.3,-2.25 3.7,-4.15 2.35,-1.9 6.6,-2.2 l 6.75,0.4 q 3.35,1 4.25,2.15 0.95,-3.25 3.85,-5.65 2.9,-2.45 8.6,-2.95 6.75,0.65 10.35,6.25 3.4,5.25 3.25,12.9 -0.15,7.65 -2.65,14.25 -2.55,6.6 -6.4,11.35 -3.9,4.75 -5.25,3.85 L 31.5,44.05 Q 27.7,40.55 21.45,37.1 l -4.9,-2.45"
         fill="#ffffff"
         fill-rule="evenodd"
         stroke="none"
         id="path1" />
      <path
         d="m 16.55,34.65 4.9,2.45 q 6.25,3.45 10.05,6.95 l 3.3,2.65 q 1.35,0.9 5.25,-3.85 Q 43.9,38.1 46.45,31.5 48.95,24.9 49.1,17.25 49.25,9.6 45.85,4.35 42.25,-1.25 35.5,-1.9 29.8,-1.4 26.9,1.05 24,3.45 23.05,6.7 22.15,5.55 18.8,4.55 l -6.75,-0.4 q -4.25,0.3 -6.6,2.2 -2.4,1.9 -3.7,4.15 -1.3,2.2 -1.8,4.45 l -0.4,3 q 0,4.6 3.95,8.65 4.3,4.5 13.05,8.05 m 36.85,3.2 q -3.55,0.05 -6.45,4.35 -2.9,4.25 -2.9,9.9 0,3.05 1.15,6.35 1.05,3 1.85,2.45 0.8,-0.55 4.1,-1.45 3.25,-0.9 6.9,-0.8 3.65,0.1 6.2,-1.8 2.55,-1.9 2.55,-6.05 0,-2.5 -1.3,-3.85 -1.55,-1.6 -5.25,-2.25 0.2,-3.3 -1.55,-5.1 -1.75,-1.8 -5.3,-1.75 m -35.35,9.6 q -1.5,-1 -2.35,-1.25 l -2.9,-0.45 q -1.95,-0.2 -4.45,1.25 -2.5,1.4 -3.3,4.1 -0.8,2.7 0.2,5.15 1,2.45 3.15,3.65 2.15,1.25 3.65,1.8 1.5,0.5 3.45,2.05 1.95,1.5 3.1,3.15 l 0.5,0.35 h 0.6 l 0.5,-0.35 q 2.35,-1.8 3.05,-2.6 L 24.5,63 27.2,59.45 q 2.1,-3.05 2.15,-6.9 L 29.2,50.5 v -0.1 q -0.95,-4.9 -5.75,-5.1 l -1.55,0.1 -0.45,0.1 q -2,0.55 -3.4,1.95 z"
         fill="none"
         stroke="#ffffff"
         stroke-linecap="round"
         stroke-linejoin="round"
         stroke-width="7"
         id="path2" />
      <path
         d="M 16.55,34.65 Q 7.8,31.1 3.5,26.6 -0.45,22.55 -0.45,17.95 l 0.4,-3 Q 0.45,12.7 1.8,10.5 3.1,8.3 5.8,6.55 8.45,4.8 12.35,4.35 q 3.9,-0.5 8.7,1.1 l 2.15,0.8 q 1,-3 3.7,-5.2 2.9,-2.45 8.6,-2.95 6.75,0.65 10.35,6.25 3.4,5.25 3.25,12.9 -0.15,7.65 -2.65,14.25 -2.55,6.6 -6.4,11.35 -3.9,4.75 -5.25,3.85 l -3.95,-3.45 q -2.6,-2.5 -9.4,-6.15 l -4.9,-2.45 m 18.5,-31.6 q -4.2,0 -6.45,3.1 -1.7,2.3 -1.7,4.6 l 0.25,3.2 q -2.1,-1.8 -5.6,-3.3 Q 18.05,9.1 13.9,9.4 9.75,9.7 7.7,12.1 q -2.05,2.35 -2.25,4.7 -0.25,2.35 1,5.1 1.25,2.75 7.7,5.85 6.4,3.05 11.9,6.75 l 9.35,6.3 q 4.05,-5.55 6.4,-10.2 2.3,-4.65 2.7,-11.85 0.35,-7.2 -2.2,-11.3 -2.75,-4.4 -7.25,-4.4 m 18.7,38.4 q -3.15,0 -4.7,3 -1.55,3 -1.65,5.95 -0.1,2.9 0.3,4.45 l 0.55,2 q 1.55,-1.1 9.2,-1.65 5.8,-0.4 5.8,-4.15 0.1,-1.15 -0.8,-2.05 -1.8,-1.8 -6.8,-0.65 l 0.85,-1.85 0.3,-1.55 q 0,-3.5 -3.05,-3.5 m -35.7,6 q 1.4,-1.4 3.4,-1.95 l 0.45,-0.1 1.55,-0.1 q 4.8,0.2 5.75,5.1 v 0.1 l 0.15,2.05 Q 29.3,56.4 27.2,59.45 L 24.5,63 23.25,64.3 q -0.7,0.8 -3.05,2.6 l -0.5,0.35 H 19.1 L 18.6,66.9 Q 17.45,65.25 15.5,63.75 13.55,62.2 12.05,61.7 10.55,61.15 8.4,59.9 6.25,58.7 5.25,56.25 q -1,-2.45 -0.2,-5.15 0.8,-2.7 3.3,-4.1 2.5,-1.45 4.45,-1.25 l 2.9,0.45 q 0.85,0.25 2.35,1.25 m 35.35,-9.6 q 3.55,-0.05 5.3,1.75 1.75,1.8 1.55,5.1 3.7,0.65 5.25,2.25 1.3,1.35 1.3,3.85 0,4.15 -2.55,6.05 -2.55,1.9 -6.2,1.8 -3.65,-0.1 -6.9,0.8 -3.3,0.9 -4.1,1.45 -0.8,0.55 -1.85,-2.45 -1.15,-3.3 -1.15,-6.35 0,-5.65 2.9,-9.9 2.9,-4.3 6.45,-4.35 M 9.05,53.15 Q 8.9,54.3 9.4,55.3 l 0.3,0.55 0.25,0.25 4.2,2.45 q 1.15,0.55 3.2,2.25 l 2.25,1.95 2.05,-2.1 2.8,-3.45 0.45,-0.7 0.6,-1.35 0.55,-2 Q 26.2,51.85 25.9,51.1 L 25.2,49.8 Q 24.75,49.25 23.65,48.9 22.5,48.55 21,49.4 q -1.5,0.85 -2.5,2.4 l -0.35,0.8 -0.2,-0.15 Q 15.8,49.7 12.4,49.5 q -3,0.6 -3.35,3.65"
         fill="#000000"
         fill-rule="evenodd"
         stroke="none"
         id="path3" />
      <path
         d="m 53.75,41.45 q 3.05,0 3.05,3.5 l -0.3,1.55 -0.85,1.85 q 5,-1.15 6.8,0.65 0.9,0.9 0.8,2.05 0,3.75 -5.8,4.15 -7.65,0.55 -9.2,1.65 l -0.55,-2 q -0.4,-1.55 -0.3,-4.45 0.1,-2.95 1.65,-5.95 1.55,-3 4.7,-3 M 35.05,3.05 q 4.5,0 7.25,4.4 2.55,4.1 2.2,11.3 -0.4,7.2 -2.7,11.85 -2.35,4.65 -6.4,10.2 l -9.35,-6.3 q -5.5,-3.7 -11.9,-6.75 -6.45,-3.1 -7.7,-5.85 -1.25,-2.75 -1,-5.1 0.2,-2.35 2.25,-4.7 2.05,-2.4 6.2,-2.7 4.15,-0.3 7.65,1.25 3.5,1.5 5.6,3.3 l -0.25,-3.2 q 0,-2.3 1.7,-4.6 2.25,-3.1 6.45,-3.1 m -26,50.1 Q 9.4,50.1 12.4,49.5 q 3.4,0.2 5.55,2.95 l 0.2,0.15 0.35,-0.8 q 1,-1.55 2.5,-2.4 1.5,-0.85 2.65,-0.5 1.1,0.35 1.55,0.9 l 0.7,1.3 q 0.3,0.75 0.15,2.05 l -0.55,2 -0.6,1.35 -0.45,0.7 -2.8,3.45 -2.05,2.1 -2.25,-1.95 Q 15.3,59.1 14.15,58.55 L 9.95,56.1 9.7,55.85 9.4,55.3 q -0.5,-1 -0.35,-2.15"
         fill="#e1adac"
         fill-rule="evenodd"
         stroke="none"
         id="path4" />
    </g>
  </defs>
</svg>
