<?xml version="1.0" encoding="UTF-8" standalone="no"?>
<svg
   ffdec:objectType="frame"
   height="32.719219"
   width="27.705616"
   version="1.1"
   id="svg6"
   sodipodi:docname="STATUS_Luck_Down_Icon.svg"
   xmlns:inkscape="http://www.inkscape.org/namespaces/inkscape"
   xmlns:sodipodi="http://sodipodi.sourceforge.net/DTD/sodipodi-0.dtd"
   xmlns:xlink="http://www.w3.org/1999/xlink"
   xmlns="http://www.w3.org/2000/svg"
   xmlns:svg="http://www.w3.org/2000/svg"
   xmlns:ffdec="https://www.free-decompiler.com/flash">
  <sodipodi:namedview
     id="namedview6"
     pagecolor="#ffffff"
     bordercolor="#000000"
     borderopacity="0.25"
     inkscape:showpageshadow="2"
     inkscape:pageopacity="0.0"
     inkscape:pagecheckerboard="0"
     inkscape:deskcolor="#d1d1d1" />
  <g
     transform="translate(15.05762,16.091021)"
     id="g2">
    <use
       ffdec:characterId="3133"
       height="40.299999"
       transform="matrix(0.7941,-0.2128,0.2128,0.7941,-16.35,-9.6)"
       width="33"
       xlink:href="#shape0"
       id="use1" />
    <use
       ffdec:characterId="3127"
       height="26.950001"
       transform="matrix(0.4028,0,0,0.4028,-15.4,-14.7)"
       width="28.25"
       xlink:href="#shape1"
       id="use2" />
  </g>
  <defs
     id="defs6">
    <g
       id="shape0">
      <path
         d="M 12.15,-3.35 12.9,-3.5 H 13 q 3.85,-0.25 5.8,2.5 1.3,-0.85 2.9,-0.9 4.5,-0.15 7.3,3.25 l 0.3,0.4 0.15,0.2 1.8,3.1 0.7,1.65 0.25,0.6 q 0.7,1.9 0.6,3.9 -0.05,2.7 -2.4,4.3 l -0.35,0.25 0.05,0.3 q 0.4,0.5 0.6,1.3 0.8,2.95 -0.5,5.65 -0.7,1.5 -2,2.5 L 23.95,28 q -1.85,1 -4.05,1.4 l -1.05,0.1 q 0.3,2.15 -0.4,4.3 Q 18,35.3 16.65,36.1 14.15,37.65 12,35.75 11.1,35 10.9,33.85 10.3,30.55 10.1,27.2 L 8.25,26.95 q -3.35,-0.9 -5.4,-3.7 -1.2,-1.65 -2.15,-3.5 -1.75,-3.4 -0.1,-6.7 0.3,-0.6 0.75,-1.1 0.75,-0.8 1.6,-1.3 L 2.05,9.8 1.45,8.7 Q 0.75,6.7 1.8,4.8 2.8,2.9 4.3,1.5 4.55,1.1 4.95,0.8 l 0.1,-0.05 0.2,-0.25 1.1,-0.85 q 1.8,-1.5 3.9,-2.35 l 1.9,-0.65 m 2.15,31.7 0.4,2.2 0.3,1.05 q 0.05,-1.1 -0.3,-2.2 l -0.4,-1.05"
         fill="#bf9393"
         fill-rule="evenodd"
         stroke="none"
         id="path2" />
      <path
         d="m 22.6,1.1 q 0.9,0.05 1.25,0.8 2.05,0.45 3.5,2.3 1.5,2 1.9,4.35 L 29.9,10 q 0.25,0.65 -0.05,1.3 -0.55,1.05 -1.7,1.15 L 28,12.65 q -0.4,0.9 -1.15,0.65 L 25.25,13.75 24.6,14 q 0.35,0.25 0.45,0.85 l -0.15,0.65 0.6,0.55 0.15,0.4 q 0.8,0 1.1,0.75 l 0.05,0.45 q 0.45,0.25 0.45,0.9 v 0.05 q 0.8,1.4 -0.9,2.8 l -1.2,1.05 -1.3,1.3 Q 23,24.55 21.95,25 l -0.3,0.15 q -2.45,1.3 -4.9,0.25 l -0.4,-0.25 q -0.75,0 -1.1,-0.7 L 15.2,23.95 15.05,23.9 H 14.7 l -0.5,-0.15 -1.35,0.4 -1.85,0.2 q -0.5,0.2 -0.85,-0.15 L 8.3,23.45 Q 7.65,23.5 7.25,22.85 L 7.15,22.45 6.9,22.15 6.8,22.1 6.45,21.8 Q 5.75,21.5 5.75,20.85 L 4.8,19.65 Q 3.85,18.25 3.8,16.7 L 3.75,16.65 Q 3.15,16.3 3.15,15.3 l 0.1,-0.45 0.05,-1 Q 3.45,13.2 4.05,13.05 4.45,12.4 5.25,12 l 1.25,-0.15 1.8,0.1 0.35,0.15 q 0.5,-1 1.55,-0.7 l 0.5,0.35 0.3,-0.2 -0.35,-0.1 -1.55,-0.2 Q 7.15,12.15 6.85,10.3 6.75,9.95 6.9,9.6 L 6.8,9.55 4.85,9.45 Q 4.35,9.15 4.5,8.6 L 5,7.15 V 7.05 Q 4.95,5.55 5.9,4.35 8.15,1.5 11.4,0.4 q 0.8,-0.6 1.7,-1.05 1.1,-0.05 1.8,0.65 1.5,0.5 2,2.25 1.15,0.45 1.1,2 l -0.35,1.25 0.4,0.2 Q 18.4,4.95 18.9,4.25 19.55,3.35 20.4,2.75 21.35,1.6 22.6,1.1 m -8.95,20.2 0.3,-0.65 -0.1,-0.05 -0.1,-0.1 v -0.05 l -0.8,1.5 0.75,-0.35 -0.05,-0.3"
         fill="#5b695b"
         fill-rule="evenodd"
         stroke="none"
         id="path3" />
      <path
         d="m 16.55,-0.5 0.95,1.25 0.05,0.05 0.15,0.3 0.6,2.05 Q 18.75,2.3 19.4,1.6 19.85,1 20.5,0.75 L 20.65,0.7 Q 21.1,0.35 21.7,0.4 h 0.05 L 21.8,0.35 q 0.85,0.1 1.75,0.55 2.55,1.3 4.3,3.65 2.35,3.1 2.6,6.85 L 29.6,13.25 28.35,14.2 H 28.3 l -0.3,0.15 -2.05,0.6 1.55,1.15 0.8,1.05 0.1,0.15 0.3,1.05 v 0.05 l 0.05,0.1 -0.6,1.75 q -1.3,2.55 -3.6,4.3 -3.1,2.35 -6.85,2.55 -1.05,-0.2 -1.85,-0.85 l -0.05,-0.05 0.6,6.05 q 0.1,2.15 -1.95,1.65 -0.5,-0.1 -0.8,-0.5 -0.4,-0.5 -0.4,-1.15 -1.05,-2.75 -0.8,-5.8 l 0.25,-2 -0.8,0.55 -0.15,0.05 q -0.45,0.35 -1,0.35 l -0.05,-0.05 -0.1,0.1 Q 9.75,25.25 8.85,24.85 6.3,23.5 4.55,21.25 2.2,18.1 2,14.4 2.15,13.35 2.85,12.55 3.3,11.9 4.05,11.6 L 4.15,11.55 4.4,11.4 q 1,-0.45 2.05,-0.6 L 4.9,9.7 4.1,8.6 4.05,8.45 Q 3.7,8 3.7,7.4 V 7.35 L 3.65,7.3 q 0.15,-0.9 0.6,-1.75 1.3,-2.6 3.6,-4.3 3.1,-2.4 6.85,-2.6 1.05,0.2 1.85,0.85 m 4.2,3.6 q -1.85,2.6 -2.6,5.6 l -0.25,1.3 -0.05,0.25 -0.05,0.4 -0.05,0.3 0.05,0.25 q 0,0.4 0.15,0.8 l 0.1,0.05 0.15,0.1 0.25,0.15 h 0.1 l 0.05,0.05 0.15,0.05 H 18.9 L 19,12.45 23.3,13 q 2.3,0 4.45,-0.8 l 0.15,-0.05 0.3,-0.3 0.1,-0.05 0.1,-0.3 0.1,-0.75 0.05,-0.3 Q 27.75,7.35 25.75,4.95 24.4,3.4 22.6,2.7 L 22.4,2.6 h -0.45 l -0.4,0.05 Q 21.2,2.75 20.9,2.95 L 20.75,3.1 M 26.15,17.55 26,17.45 Q 23.4,15.6 20.35,14.85 L 19.1,14.6 18.8,14.55 18.4,14.5 18.15,14.45 h -0.3 l -0.75,0.2 -0.05,0.1 -0.1,0.15 -0.15,0.25 -0.05,0.05 v 0.1 l -0.05,0.1 -0.05,0.15 v 0.15 q -0.5,2.1 -0.55,4.25 v 0.65 l 0.05,0.8 q 0.2,1.55 0.75,3 l 0.05,0.2 0.3,0.3 0.05,0.05 0.25,0.1 0.8,0.15 h 0.3 q 3.05,-0.75 5.5,-2.75 1.5,-1.35 2.25,-3.2 l 0.05,-0.15 0.05,-0.5 -0.05,-0.4 -0.3,-0.65 M 15.5,1.35 V 1.2 L 15.15,0.85 V 0.8 l -0.3,-0.1 -0.8,-0.15 h -0.3 Q 10.7,1.3 8.3,3.35 6.75,4.65 6,6.5 L 5.95,6.7 5.9,7.15 6,7.55 6.25,8.2 6.4,8.35 q 2.6,1.8 5.65,2.55 l 1.25,0.3 0.3,0.05 H 14 l 0.25,0.1 0.3,-0.05 0.75,-0.15 0.1,-0.1 0.05,-0.15 0.2,-0.3 v -0.05 -0.1 l 0.05,-0.1 0.05,-0.15 v -0.1 q 0.5,-2.15 0.6,-4.3 0,-2.3 -0.85,-4.45 m -11.65,14 q 0.8,3.05 2.8,5.45 1.35,1.55 3.15,2.25 l 0.2,0.1 h 0.45 l 0.4,-0.05 0.65,-0.25 0.15,-0.15 q 1.8,-2.65 2.6,-5.65 l 0.25,-1.3 0.05,-0.25 0.05,-0.4 0.05,-0.25 -0.05,-0.3 -0.15,-0.75 -0.1,-0.1 -0.15,-0.05 -0.25,-0.2 H 13.85 13.8 L 13.7,13.4 13.55,13.35 H 13.4 L 9.15,12.75 Q 6.8,12.75 4.7,13.6 H 4.5 L 4.2,13.95 H 4.15 l -0.15,0.3 -0.1,0.8 -0.05,0.3"
         fill="#000000"
         fill-rule="evenodd"
         stroke="none"
         id="path4" />
    </g>
    <g
       id="shape1">
      <path
         d="m 28.1,10.9 -0.2,0.6 0.05,1.8 Q 28,14.25 27.7,15.1 l -0.05,0.45 -0.1,0.45 -0.15,0.3 -0.35,0.3 -0.85,0.3 -0.5,-0.2 -0.55,0.5 -4.35,4 q -2.2,2.1 -4.75,3.3 L 16,24.7 15.65,25 q -0.35,0.3 -0.85,0.3 l -0.3,-0.05 -0.25,-0.05 -0.2,-0.1 q -2,-2.15 -4.3,-3.95 Q 6.6,19.4 3.75,17.1 2.85,17.05 2.65,16.15 2.2,14.7 2.1,13.2 L 1.9,12.75 V 12.3 12 Q 1.5,11.05 1.85,10.05 2.4,8.4 4.05,9 l 1.35,0.6 10.5,5.45 3.15,-2.4 q 2.4,-1.6 5.05,-1.95 l 1.7,-1.35 0.5,-0.2 Q 27.35,9 27.5,9.6 l 0.4,0.25 0.2,1.05 M 27.85,2.1 q 0.2,0.85 0.05,1.65 L 27.4,6.25 27.2,6.4 27.05,6.5 26.9,6.95 26.6,7.15 26.4,7.25 24.75,8.3 24.55,8.4 23,9.2 q -3.45,1.45 -6.7,3.25 l -0.1,-0.05 -0.3,0.3 -0.1,0.25 -0.2,0.15 -0.4,0.15 -0.15,-0.05 h -0.1 L 14.9,13.15 H 14.85 L 14.35,12.7 V 12.65 L 13.1,11.9 10.9,10.85 3.65,7.2 3.05,6.65 Q 2.4,6.55 2.05,6.05 L 2,6 Q 1.8,5.4 2.3,5.05 L 2.65,4.9 2.5,4.3 2.45,3.8 Q 2.2,3.2 2.45,2.7 L 2.35,2.25 Q 2.35,1.3 3.4,1.6 7.45,2.7 11.25,4.55 l 3.4,1.6 Q 14.8,6.1 15,6 19.05,4.15 23.35,2.9 l 1.9,-0.65 1.2,-0.3 Q 26.7,1.55 27.4,1.7 l 0.3,0.3 0.15,0.1"
         fill="#d15b4b"
         fill-rule="evenodd"
         stroke="none"
         id="path5" />
      <path
         d="M 26.85,11.1 V 9.7 q -3.55,1.75 -7,3.6 -2.2,1.15 -4.25,2.5 H 15.55 L 15.1,15.95 H 14.85 L 14.4,15.8 H 14.35 L 10.1,13.3 3.15,9.7 3.1,11.1 l 0.05,4.15 0.05,0.45 2.05,1.4 0.55,0.4 1.7,1.2 0.15,0.1 0.9,0.6 3.25,2.65 0.65,0.55 1.45,1.2 v -0.05 l 0.2,0.2 0.05,0.05 0.85,0.75 0.8,-0.75 0.05,-0.05 0.2,-0.2 v 0.05 l 1.45,-1.2 0.7,-0.55 3.2,-2.65 0.9,-0.6 0.2,-0.1 1.65,-1.2 0.55,-0.4 2.05,-1.4 0.05,-0.45 0.05,-4.15 m 0,-7.35 V 3.3 l -0.1,-1.2 q -3.5,1.25 -6.9,2.6 L 15.6,6.5 H 15.55 L 15.45,6.55 15.1,6.6 H 14.95 14.85 14.8 L 14.5,6.55 14.4,6.5 H 14.35 L 10.1,4.7 3.25,2.1 3.1,3.3 V 3.75 6.4 q 1.1,0.45 2.15,1.05 l 0.55,0.3 1.7,0.85 1.05,0.5 3.65,2.25 0.75,0.45 1.2,0.7 v -0.05 l 0.15,0.1 0.7,0.5 0.7,-0.5 0.1,-0.1 L 17,11.8 17.75,11.35 21.4,9.1 22.5,8.6 Q 23.3,8.15 24.15,7.75 L 24.7,7.45 Q 25.75,6.85 26.85,6.4 V 3.75 m 0.6,-3.9 H 27.7 L 28.3,0 28.7,0.65 28.75,0.9 28.7,1.15 28.75,1.75 V 1.9 L 28.8,2.2 28.95,5.3 29.1,9 V 9.65 9.9 l -0.05,4.2 -0.1,0.95 v 0.4 l -0.05,0.3 -0.05,0.2 -0.05,0.25 -0.1,0.15 -0.4,0.45 -0.2,0.2 -0.05,0.05 -3,2.15 -1.2,0.9 -0.95,0.75 -3.3,2.55 -3.1,2.65 -0.9,0.7 H 15.5 15 14.45 14.4 L 13.45,26.05 10.35,23.4 7.05,20.85 6.1,20.1 4.95,19.2 1.9,17.05 1.85,17 1.65,16.8 1.25,16.35 1.2,16.2 1.1,15.95 1.05,15.75 1,15.45 v -0.4 L 0.9,14.1 0.85,9.9 V 9.65 9 Q 0.85,7.1 1,5.3 L 1.2,2.2 V 1.9 1.75 L 1.25,1.15 V 0.9 0.65 Q 1.3,0.25 1.65,0 l 0.6,-0.15 H 2.5 Q 3.85,0.1 5.15,0.7 l 1.4,0.45 2,0.8 L 9.8,2.4 13.85,4 15,4.55 16.1,4 20.15,2.4 21.4,1.95 l 2,-0.8 1.45,-0.45 q 1.25,-0.6 2.6,-0.85"
         fill="#000000"
         fill-rule="evenodd"
         stroke="none"
         id="path6" />
    </g>
  </defs>
</svg>
