<?xml version="1.0" encoding="UTF-8" standalone="no"?>
<svg
   ffdec:objectType="frame"
   height="28.01288"
   width="26.767715"
   version="1.1"
   id="svg5"
   sodipodi:docname="STATUS 111 Icon.svg"
   xmlns:inkscape="http://www.inkscape.org/namespaces/inkscape"
   xmlns:sodipodi="http://sodipodi.sourceforge.net/DTD/sodipodi-0.dtd"
   xmlns:xlink="http://www.w3.org/1999/xlink"
   xmlns="http://www.w3.org/2000/svg"
   xmlns:svg="http://www.w3.org/2000/svg"
   xmlns:ffdec="https://www.free-decompiler.com/flash">
  <sodipodi:namedview
     id="namedview5"
     pagecolor="#ffffff"
     bordercolor="#000000"
     borderopacity="0.25"
     inkscape:showpageshadow="2"
     inkscape:pageopacity="0.0"
     inkscape:pagecheckerboard="0"
     inkscape:deskcolor="#d1d1d1" />
  <g
     transform="translate(13.012281,14.25)"
     id="g1">
    <use
       ffdec:characterId="3244"
       height="28"
       transform="translate(-11.5,-12.75)"
       width="26.75"
       xlink:href="#sprite0"
       id="use1" />
  </g>
  <defs
     id="defs5">
    <g
       id="sprite0">
      <use
         ffdec:characterId="3243"
         height="28"
         width="26.75"
         xlink:href="#shape0"
         id="use2" />
    </g>
    <g
       id="shape0">
      <path
         d="m 8.9,0 4.45,0.5 2.6,0.4 1.75,-0.1 1.2,0.05 q 0.3,0.2 0.3,0.55 L 18.8,2.2 17.4,3.6 15,5.85 q 0.8,0.5 0.7,1.6 L 15.5,8 h 0.1 l 3.1,2.15 q 3.3,2.05 4.7,5.45 0.4,1.1 0.35,2.3 -0.4,3.75 -3.9,5.8 -1.15,0.7 -2.65,1.05 -1.55,0.3 -2.95,0 l -3.65,0.1 Q 8.4,25.2 6.35,24.8 5,24.55 3.85,23.9 0.3,21.8 0,18.1 q -0.1,-1.2 0.75,-3.2 0.9,-2 4.1,-4.1 3.2,-2.15 3.9,-3.1 L 8.55,7.15 Q 8.3,6.25 9,5.6 9.15,5.05 6.95,3.9 4.75,2.7 4.8,2.05 4.8,1.35 5.9,0.7 6.95,0.05 8.9,0 Z"
         fill="none"
         stroke="#ffffff"
         stroke-linecap="round"
         stroke-linejoin="round"
         stroke-width="3"
         id="path2" />
      <path
         d="m 8.9,0 4.45,0.5 2.6,0.4 1.75,-0.1 1.2,0.05 q 0.3,0.2 0.3,0.55 L 18.8,2.2 17.4,3.6 15,5.85 q 0.8,0.5 0.7,1.6 L 15.5,8 h 0.1 l 3.1,2.15 q 3.3,2.05 4.7,5.45 0.4,1.1 0.35,2.3 -0.4,3.75 -3.9,5.8 -1.15,0.7 -2.65,1.05 -1.55,0.3 -2.95,0 l -3.65,0.1 Q 8.4,25.2 6.35,24.8 5,24.55 3.85,23.9 0.3,21.8 0,18.1 q -0.1,-1.2 0.75,-3.2 0.9,-2 4.1,-4.1 3.2,-2.15 3.9,-3.1 L 8.55,7.15 Q 8.3,6.25 9,5.6 9.15,5.05 6.95,3.9 4.75,2.7 4.8,2.05 4.8,1.35 5.9,0.7 6.95,0.05 8.9,0 M 4.05,13.15 q -1.7,1.4 -2.3,3.5 -0.65,2.1 0.8,4.15 1.45,2.05 3.4,2.65 l 4.25,0.1 5.2,-0.25 q 2.9,0.2 5.2,-2.2 2.9,-3 0.55,-6.5 L 20.5,13.8 Q 18,11.55 15.2,9.65 L 14.05,8.55 11.65,8.4 10.2,8.15 Q 9.75,9.3 7.7,10.55 5.65,11.8 4.05,13.15 m 7.8,-9.4 0.75,1.6 1.05,0.2 L 14,5.25 17.4,2.15 14.8,2.25 11.5,1.6 Q 9.6,1.1 7.3,1.55 L 6.6,1.7 Q 5.85,1.95 7.1,2.5 8.35,3.05 9.05,3.6 L 10.4,5 10.55,5.2 h 0.7 0.45 Q 11.6,4.35 10.95,3.75 L 10.2,2.85 q -0.05,-0.3 0.65,0.1 l 1,0.8 m -1,2.3 -0.8,0.15 Q 9.6,6.35 9.6,6.85 q 0,0.45 0.7,0.5 L 12.4,7.7 14.6,7.5 Q 15.15,7 14.6,6.75 14.05,6.4 12.65,6.3 l -1.8,-0.25"
         fill="#000000"
         fill-rule="evenodd"
         stroke="none"
         id="path3" />
      <path
         d="m 11.85,3.75 -1,-0.8 q -0.7,-0.4 -0.65,-0.1 l 0.75,0.9 q 0.65,0.6 0.75,1.45 h -0.45 -0.7 L 10.4,5 9.05,3.6 Q 8.35,3.05 7.1,2.5 5.85,1.95 6.6,1.7 L 7.3,1.55 Q 9.6,1.1 11.5,1.6 l 3.3,0.65 2.6,-0.1 -3.4,3.1 -0.35,0.3 -1.05,-0.2 -0.75,-1.6 m -7.8,9.4 Q 5.65,11.8 7.7,10.55 9.75,9.3 10.2,8.15 l 1.45,0.25 2.4,0.15 1.15,1.1 q 2.8,1.9 5.3,4.15 l 0.65,0.8 q 2.35,3.5 -0.55,6.5 -2.3,2.4 -5.2,2.2 l -5.2,0.25 -4.25,-0.1 Q 4,22.85 2.55,20.8 1.1,18.75 1.75,16.65 q 0.6,-2.1 2.3,-3.5 m 12.25,2.7 0.85,-0.8 Q 17.6,14.5 16.4,14.45 l -2.7,-0.2 q -1.7,-4.2 -2,-3.5 L 10,14.3 8.15,14.45 q -1.35,0.05 -1.3,0.4 l 1.35,1.8 0.6,0.65 q -0.65,2.45 -0.5,3.5 0.2,0.4 1.25,-0.35 l 2.6,-1.85 2.8,1.9 q 1.35,0.85 0.8,-0.8 l -0.8,-2.75 1.35,-1.1"
         fill="#937b98"
         fill-rule="evenodd"
         stroke="none"
         id="path4" />
      <path
         d="m 10.85,6.05 1.8,0.25 q 1.4,0.1 1.95,0.45 0.55,0.25 0,0.75 L 12.4,7.7 10.3,7.35 Q 9.6,7.3 9.6,6.85 9.6,6.35 10.05,6.2 l 0.8,-0.15 m 5.45,9.8 -1.35,1.1 0.8,2.75 q 0.55,1.65 -0.8,0.8 l -2.8,-1.9 -2.6,1.85 Q 8.5,21.2 8.3,20.8 8.15,19.75 8.8,17.3 L 8.2,16.65 6.85,14.85 Q 6.8,14.5 8.15,14.45 L 10,14.3 11.7,10.75 q 0.3,-0.7 2,3.5 l 2.7,0.2 q 1.2,0.05 0.75,0.6 l -0.85,0.8"
         fill="#fff9c9"
         fill-rule="evenodd"
         stroke="none"
         id="path5" />
    </g>
  </defs>
</svg>
