<?xml version="1.0" encoding="UTF-8" standalone="no"?>
<svg
   ffdec:objectType="frame"
   height="30.956842"
   width="31.958595"
   version="1.1"
   id="svg10"
   sodipodi:docname="STATUS_Dexterity_Down_Icon.svg"
   xmlns:inkscape="http://www.inkscape.org/namespaces/inkscape"
   xmlns:sodipodi="http://sodipodi.sourceforge.net/DTD/sodipodi-0.dtd"
   xmlns:xlink="http://www.w3.org/1999/xlink"
   xmlns="http://www.w3.org/2000/svg"
   xmlns:svg="http://www.w3.org/2000/svg"
   xmlns:ffdec="https://www.free-decompiler.com/flash">
  <sodipodi:namedview
     id="namedview10"
     pagecolor="#ffffff"
     bordercolor="#000000"
     borderopacity="0.25"
     inkscape:showpageshadow="2"
     inkscape:pageopacity="0.0"
     inkscape:pagecheckerboard="0"
     inkscape:deskcolor="#d1d1d1" />
  <g
     transform="translate(16.784444,14.76042)"
     id="g2">
    <use
       ffdec:characterId="3128"
       height="38.849998"
       transform="matrix(0.7931,0,0,0.7931,-13.85,-12.95)"
       width="40.25"
       xlink:href="#shape0"
       id="use1" />
    <use
       ffdec:characterId="3127"
       height="26.950001"
       transform="matrix(0.4028,0,0,0.4028,-15.4,-14.7)"
       width="28.25"
       xlink:href="#shape1"
       id="use2" />
  </g>
  <defs
     id="defs10">
    <g
       id="shape0">
      <path
         d="m 26.85,9.35 q 5.6,8.05 0.3,25.05 l -0.35,0.65 -0.75,0.2 Q 25.65,35.2 25.4,34.9 L 14,21.25 l 1.45,-1.35 9.9,11.8 q 0.55,-11.4 -3.1,-18.1 3.65,6.7 3.1,18.1 l -9.9,-11.8 6.8,-6.3 4.6,-4.25 M 11.9,18.75 -0.45,3.95 -0.55,3.8 H -0.6 L -0.7,3.5 V 3.45 3.35 3.2 L -0.45,2.65 -0.35,2.55 -0.2,2.45 -0.15,2.4 0.2,2.3 Q 17.55,0.25 24.7,6.85 l -4.3,4 -7,6.55 -1.5,1.35 m 8.5,-7.9 Q 14.55,4.1 2.4,4.25 L 13.4,17.4 2.4,4.25 q 12.15,-0.15 18,6.6"
         fill="#bf9393"
         fill-rule="evenodd"
         stroke="none"
         id="path2" />
      <path
         d="M 24.7,6.85 26.45,5.2 23.35,4.45 23.05,4.2 22.95,3.8 23.1,3.3 Q 23.25,2.95 24.35,2.45 25.5,2 28.55,1.1 l 4.7,-1.5 1.45,-0.1 0.15,0.35 0.1,0.05 q 0.25,0.4 -0.1,1.4 l -1.95,4.55 -1.65,4.1 -0.8,1.3 -0.6,0.1 L 29.5,11.2 29.15,10.85 28.7,7.6 26.85,9.35 q 5.6,8.05 0.3,25.05 l -0.35,0.65 -0.75,0.2 Q 25.65,35.2 25.4,34.9 L 14,21.25 l -0.45,0.4 -0.4,3.95 -0.25,2.85 -6.55,6 -0.25,0.05 v 0.05 L 5.9,34.65 5.75,34.55 5.4,34.2 5.35,33 5.4,31.45 5.55,28.65 5.6,26.7 H 3.85 L 1.05,26.65 -0.55,26.6 -1.7,26.4 -2.1,26.1 -2.2,26 -2.05,25.7 H -2.1 l 0.2,-0.25 6.5,-6.05 2.8,-0.05 3.95,-0.1 0.55,-0.5 L -0.45,3.95 -0.55,3.8 H -0.6 L -0.7,3.5 V 3.45 3.35 3.2 L -0.45,2.65 -0.35,2.55 -0.2,2.45 -0.15,2.4 0.2,2.3 Q 17.55,0.25 24.7,6.85 l 1.3,1.4 0.85,1.1 -4.6,4.25 q 3.65,6.7 3.1,18.1 L 15.45,19.9 14,21.25 11.9,18.75 13.4,17.4 2.4,4.25 q 12.15,-0.15 18,6.6 l 4.3,-4 m -4.3,4 v 0.05 l 1.85,2.7 -6.8,6.3 -2.05,-2.5 z"
         fill="none"
         stroke="#bf9393"
         stroke-linecap="round"
         stroke-linejoin="round"
         stroke-width="3"
         id="path3" />
      <path
         d="M 0.3,3.3 Q 37.2,-1.05 26.15,34.25 29.05,1.75 0.3,3.3"
         fill="#473b3b"
         fill-rule="evenodd"
         stroke="none"
         id="path4" />
      <path
         d="M 0.3,3.3 Q 37.2,-1.05 26.15,34.25 L 0.3,3.3 Q 29.05,1.75 26.15,34.25"
         fill="none"
         stroke="#000000"
         stroke-linecap="round"
         stroke-linejoin="round"
         stroke-width="2"
         id="path5" />
      <path
         d="m 25.75,3.45 7.15,-2 -2.5,7 q -0.2,-2.2 -0.8,-3.9 -1.7,-0.7 -3.85,-1.1 m -8.7,13.1 -2.45,2.3 q -0.8,0.7 -1.45,1.35 l -6.4,6.1 -0.25,-0.4 6.4,-6 1.45,-1.35 1.4,-1.35 5.5,-5.15 1.45,-1.4 L 24.2,9.2 25.65,7.85 27.9,5.7 q 0.7,-0.2 0.4,0.4 L 26,8.25 24.55,9.6 23,11.05 l -1.5,1.4 -4.45,4.1 M 15.15,4.5 q 5,1.05 8.05,3.75 l -1.4,1.3 Q 19.15,6.3 15.15,4.5 M 27.3,25.1 Q 26.75,17.3 23.75,12.25 l 1.6,-1.5 q 3.3,5.2 1.95,14.35 m -26.45,0 -0.2,-0.05 4.45,-4.1 H 5.15 9 L 9.6,20.9 4.95,25.25 0.85,25.1 m 6.1,6.55 0.15,-4 4.7,-4.35 -0.05,0.55 L 11.3,28 6.95,31.9 v -0.25"
         fill="#473b3b"
         fill-rule="evenodd"
         stroke="none"
         id="path6" />
      <path
         d="M -0.45,3.95 -0.55,3.8 H -0.6 L -0.7,3.5 V 3.45 3.35 3.2 L -0.45,2.65 -0.35,2.55 -0.2,2.45 -0.15,2.4 0.2,2.3 Q 17.55,0.25 24.7,6.85 L 26.45,5.2 23.35,4.45 23.05,4.2 22.95,3.8 23.1,3.3 Q 23.25,2.95 24.35,2.45 25.5,2 28.55,1.1 l 4.7,-1.5 1.45,-0.1 0.15,0.35 0.1,0.05 q 0.25,0.4 -0.1,1.4 l -1.95,4.55 -1.65,4.1 -0.8,1.3 -0.6,0.1 L 29.5,11.2 29.15,10.85 28.7,7.6 26.85,9.35 q 5.6,8.05 0.3,25.05 l -0.35,0.65 -0.75,0.2 Q 25.65,35.2 25.4,34.9 L 14,21.25 l -0.45,0.4 -0.4,3.95 -0.25,2.85 -6.85,6.2 H 6 5.9 L 5.75,34.55 5.4,34.2 5.35,33 5.4,31.45 5.55,28.65 5.6,26.7 H 3.85 L 1.05,26.65 -0.55,26.6 -1.7,26.4 -2.1,26.1 -2.2,26 -2.05,25.7 H -2.1 l 0.2,-0.25 6.5,-6.05 2.8,-0.05 3.95,-0.1 0.55,-0.5 -12.35,-14.8 m 26.2,-0.5 q 2.15,0.4 3.85,1.1 0.6,1.7 0.8,3.9 l 2.5,-7 -7.15,2 M 27.3,25.1 q 1.35,-9.15 -1.95,-14.35 l -1.6,1.5 q 3,5.05 3.55,12.85 M 15.15,4.5 q 4,1.8 6.65,5.05 l 1.4,-1.3 Q 20.15,5.55 15.15,4.5 m 1.9,12.05 4.45,-4.1 L 23,11.05 24.55,9.6 26,8.25 28.3,6.1 Q 28.6,5.5 27.9,5.7 l -2.25,2.15 -1.45,1.35 -1.5,1.45 -1.45,1.4 -5.5,5.15 -1.4,1.35 -1.45,1.35 -6.4,6 0.25,0.4 6.4,-6.1 q 0.65,-0.65 1.45,-1.35 l 2.45,-2.3 M 0.85,25.1 4.95,25.25 9.6,20.9 9,20.95 H 5.15 5.1 l -4.45,4.1 0.2,0.05 m 6.1,6.55 v 0.25 l 4.35,-3.9 0.45,-4.15 0.05,-0.55 -4.7,4.35 -0.15,4 M 2.4,4.25 l 11,13.15 7,-6.5 Q 14.55,4.1 2.4,4.25 M 25.35,31.7 Q 25.9,20.3 22.25,13.6 l -6.8,6.3 9.9,11.8"
         fill="#000000"
         fill-rule="evenodd"
         stroke="none"
         id="path7" />
      <path
         d="m 2.4,4.25 q 12.15,-0.15 18,6.65 l -7,6.5 -11,-13.15"
         fill="#bf9393"
         fill-rule="evenodd"
         stroke="none"
         id="path8" />
    </g>
    <g
       id="shape1">
      <path
         d="m 28.1,10.9 -0.2,0.6 0.05,1.8 Q 28,14.25 27.7,15.1 l -0.05,0.45 -0.1,0.45 -0.15,0.3 -0.35,0.3 -0.85,0.3 -0.5,-0.2 -0.55,0.5 -4.35,4 q -2.2,2.1 -4.75,3.3 L 16,24.7 15.65,25 q -0.35,0.3 -0.85,0.3 l -0.3,-0.05 -0.25,-0.05 -0.2,-0.1 q -2,-2.15 -4.3,-3.95 Q 6.6,19.4 3.75,17.1 2.85,17.05 2.65,16.15 2.2,14.7 2.1,13.2 L 1.9,12.75 V 12.3 12 Q 1.5,11.05 1.85,10.05 2.4,8.4 4.05,9 l 1.35,0.6 10.5,5.45 3.15,-2.4 q 2.4,-1.6 5.05,-1.95 l 1.7,-1.35 0.5,-0.2 Q 27.35,9 27.5,9.6 l 0.4,0.25 0.2,1.05 M 27.85,2.1 q 0.2,0.85 0.05,1.65 L 27.4,6.25 27.2,6.4 27.05,6.5 26.9,6.95 26.6,7.15 26.4,7.25 24.75,8.3 24.55,8.4 23,9.2 q -3.45,1.45 -6.7,3.25 l -0.1,-0.05 -0.3,0.3 -0.1,0.25 -0.2,0.15 -0.4,0.15 -0.15,-0.05 h -0.1 L 14.9,13.15 H 14.85 L 14.35,12.7 V 12.65 L 13.1,11.9 10.9,10.85 3.65,7.2 3.05,6.65 Q 2.4,6.55 2.05,6.05 L 2,6 Q 1.8,5.4 2.3,5.05 L 2.65,4.9 2.5,4.3 2.45,3.8 Q 2.2,3.2 2.45,2.7 L 2.35,2.25 Q 2.35,1.3 3.4,1.6 7.45,2.7 11.25,4.55 l 3.4,1.6 Q 14.8,6.1 15,6 19.05,4.15 23.35,2.9 l 1.9,-0.65 1.2,-0.3 Q 26.7,1.55 27.4,1.7 l 0.3,0.3 0.15,0.1"
         fill="#d15b4b"
         fill-rule="evenodd"
         stroke="none"
         id="path9" />
      <path
         d="M 26.85,11.1 V 9.7 q -3.55,1.75 -7,3.6 -2.2,1.15 -4.25,2.5 H 15.55 L 15.1,15.95 H 14.85 L 14.4,15.8 H 14.35 L 10.1,13.3 3.15,9.7 3.1,11.1 l 0.05,4.15 0.05,0.45 2.05,1.4 0.55,0.4 1.7,1.2 0.15,0.1 0.9,0.6 3.25,2.65 0.65,0.55 1.45,1.2 v -0.05 l 0.2,0.2 0.05,0.05 0.85,0.75 0.8,-0.75 0.05,-0.05 0.2,-0.2 v 0.05 l 1.45,-1.2 0.7,-0.55 3.2,-2.65 0.9,-0.6 0.2,-0.1 1.65,-1.2 0.55,-0.4 2.05,-1.4 0.05,-0.45 0.05,-4.15 m 0,-7.35 V 3.3 l -0.1,-1.2 q -3.5,1.25 -6.9,2.6 L 15.6,6.5 H 15.55 L 15.45,6.55 15.1,6.6 H 14.95 14.85 14.8 L 14.5,6.55 14.4,6.5 H 14.35 L 10.1,4.7 3.25,2.1 3.1,3.3 V 3.75 6.4 q 1.1,0.45 2.15,1.05 l 0.55,0.3 1.7,0.85 1.05,0.5 3.65,2.25 0.75,0.45 1.2,0.7 v -0.05 l 0.15,0.1 0.7,0.5 0.7,-0.5 0.1,-0.1 L 17,11.8 17.75,11.35 21.4,9.1 22.5,8.6 Q 23.3,8.15 24.15,7.75 L 24.7,7.45 Q 25.75,6.85 26.85,6.4 V 3.75 m 0.6,-3.9 H 27.7 L 28.3,0 28.7,0.65 28.75,0.9 28.7,1.15 28.75,1.75 V 1.9 L 28.8,2.2 28.95,5.3 29.1,9 V 9.65 9.9 l -0.05,4.2 -0.1,0.95 v 0.4 l -0.05,0.3 -0.05,0.2 -0.05,0.25 -0.1,0.15 -0.4,0.45 -0.2,0.2 -0.05,0.05 -3,2.15 -1.2,0.9 -0.95,0.75 -3.3,2.55 -3.1,2.65 -0.9,0.7 H 15.5 15 14.45 14.4 L 13.45,26.05 10.35,23.4 7.05,20.85 6.1,20.1 4.95,19.2 1.9,17.05 1.85,17 1.65,16.8 1.25,16.35 1.2,16.2 1.1,15.95 1.05,15.75 1,15.45 v -0.4 L 0.9,14.1 0.85,9.9 V 9.65 9 Q 0.85,7.1 1,5.3 L 1.2,2.2 V 1.9 1.75 L 1.25,1.15 V 0.9 0.65 Q 1.3,0.25 1.65,0 l 0.6,-0.15 H 2.5 Q 3.85,0.1 5.15,0.7 l 1.4,0.45 2,0.8 L 9.8,2.4 13.85,4 15,4.55 16.1,4 20.15,2.4 21.4,1.95 l 2,-0.8 1.45,-0.45 q 1.25,-0.6 2.6,-0.85"
         fill="#000000"
         fill-rule="evenodd"
         stroke="none"
         id="path10" />
    </g>
  </defs>
</svg>
