<?xml version="1.0" encoding="UTF-8" standalone="no"?>
<svg
   ffdec:objectType="frame"
   height="25.405542"
   width="25.299999"
   version="1.1"
   id="svg6"
   sodipodi:docname="STATUS_Health_Regen_(Diminishing)_Icon.svg"
   xmlns:inkscape="http://www.inkscape.org/namespaces/inkscape"
   xmlns:sodipodi="http://sodipodi.sourceforge.net/DTD/sodipodi-0.dtd"
   xmlns:xlink="http://www.w3.org/1999/xlink"
   xmlns="http://www.w3.org/2000/svg"
   xmlns:svg="http://www.w3.org/2000/svg"
   xmlns:ffdec="https://www.free-decompiler.com/flash">
  <sodipodi:namedview
     id="namedview6"
     pagecolor="#ffffff"
     bordercolor="#000000"
     borderopacity="0.25"
     inkscape:showpageshadow="2"
     inkscape:pageopacity="0.0"
     inkscape:pagecheckerboard="0"
     inkscape:deskcolor="#d1d1d1" />
  <g
     transform="translate(12.8,12.502922)"
     id="g1">
    <use
       ffdec:characterId="3278"
       height="25.4"
       transform="translate(-12.6,-12.8)"
       width="25.299999"
       xlink:href="#sprite0"
       id="use1" />
  </g>
  <defs
     id="defs6">
    <g
       id="sprite0">
      <use
         ffdec:characterId="3277"
         height="25.4"
         width="25.299999"
         xlink:href="#shape0"
         id="use2" />
    </g>
    <g
       id="shape0">
      <path
         d="m 9.05,1.8 h 3.2 0.4 0.95 2.3 0.3 Q 18.15,1.7 17.9,4 v 0.1 0.2 0.1 0.25 0.1 0.25 0.1 0.25 0.1 0.25 0.1 0.05 0.1 0.1 0.1 0.05 0.1 0.25 0.1 0.1 0.1 V 6.9 7 7.1 7.2 7.25 7.35 7.5 h 0.15 0.1 0.05 0.1 0.1 0.1 0.05 0.1 0.1 0.1 0.05 0.1 0.1 0.1 0.05 0.1 0.1 0.1 0.05 0.1 0.25 0.1 0.25 0.1 0.25 0.1 0.25 0.1 0.2 0.1 0.25 q 1.7,-0.05 1.9,0.9 l 0.05,0.2 v 4.15 0.4 0.9 2.3 0.55 q -0.15,1.6 -2.4,1.5 h -0.1 -0.1 -0.25 -0.1 -0.25 -0.1 -0.25 -0.1 -0.25 -0.1 -0.05 -0.1 -0.1 -0.1 -0.05 -0.1 -0.1 -0.1 -0.05 -0.1 -0.1 -0.1 -0.05 -0.1 -0.1 -0.1 -0.05 -0.1 -0.15 v 0.05 0.1 0.25 0.1 0.25 0.1 0.05 0.1 0.1 0.1 0.05 0.1 0.1 0.1 0.05 0.1 0.1 0.1 0.05 0.1 0.1 0.1 0.05 0.1 0.25 0.1 0.25 0.1 0.2 0.1 0.25 0.1 0.1 q 0.05,2 -1.65,1.95 H 15.9 12.65 12.25 11.35 9.05 8.9 Q 6.9,24.3 7,21.8 v -0.1 -0.2 -0.1 -0.25 -0.1 -0.25 -0.1 -0.05 -0.1 -0.1 -0.1 -0.05 -0.1 -0.25 -0.1 -0.1 -0.1 -0.05 -0.1 -0.1 -0.1 -0.05 -0.1 -0.25 -0.1 -0.3 H 6.85 6.75 6.7 6.6 6.5 6.4 6.35 6.25 6 5.9 5.65 5.55 5.3 5.2 4.95 4.85 4.6 4.5 4.45 4.35 4.25 4.15 4.1 q -2.85,0.15 -2.75,-2 L 1.3,13.25 V 12.8 11.9 L 1.35,9.2 Q 1.35,7.55 2.5,7.6 L 3.9,7.55 H 4 4.1 4.15 4.25 4.35 4.45 4.5 4.6 4.85 4.95 5.2 5.3 5.55 5.65 5.9 6 6.25 6.35 6.4 6.5 6.6 6.7 6.75 6.85 7 V 7.35 7.25 7.2 7.1 7 6.9 6.85 6.75 6.65 6.55 6.3 6.2 6.15 6.05 5.95 5.85 5.8 5.7 5.45 5.35 5.1 5 4.75 4.65 4.4 4.3 4.1 L 7.05,3 Q 7.1,1.9 8.7,1.8 Z"
         fill="none"
         stroke="#ffffff"
         stroke-linecap="round"
         stroke-linejoin="round"
         stroke-width="3"
         id="path2" />
      <path
         d="m 5.7,9.05 q 0.65,0 1,0.35 L 6.8,9.55 7.65,9.5 Q 7.55,7 8.45,4.85 8.7,4.15 9,3.8 9.65,3.05 10.75,3.15 L 12.1,3.4 q 1,-0.15 1.2,0 l 0.25,0.15 0.4,-0.15 q 0.35,-0.3 0.85,-0.25 0.5,0.05 0.8,0.4 l 0.5,1.3 0.45,3.2 h 2.7 q 1.2,0.1 1.75,0.5 0.95,0.55 1.3,1.75 0.25,0.9 0,2.2 l -0.15,0.6 0.15,0.85 q 0.2,0.8 -0.25,1.6 l -1.15,1.2 q -1.3,0.75 -3.25,0.4 -0.4,1.65 -1.25,2.05 0.75,0.65 0.5,1.5 l -0.45,0.8 -1,0.95 -1.6,0.4 -1.8,-0.05 -0.9,-0.25 -0.8,0.2 -0.8,0.15 -1,-0.75 Q 8.3,21.75 8.2,20.85 8.1,19.25 8.25,17.9 L 8.2,17.6 5.2,16.95 H 4.4 L 3.65,16.35 Q 3.2,15.85 2.8,14.35 L 2.55,13.4 q -0.2,-1.1 0.1,-2.3 L 3,10.1 3.85,9.35 5.7,9.05"
         fill="#383838"
         fill-rule="evenodd"
         stroke="none"
         id="path3" />
      <path
         d="m 12.65,4.05 h 2.15 q 0.85,-0.1 0.85,0.9 V 5.05 5.3 5.4 5.65 5.75 6 6.1 6.35 6.45 6.5 6.6 6.65 6.75 7 v 0.1 0.25 0.1 0.05 0.1 0.1 0.1 0.05 0.1 0.1 0.1 0.05 0.1 0.1 0.1 0.05 0.1 0.05 q 0.1,1.1 1.2,1.05 h 0.05 0.1 0.1 0.1 0.05 0.1 0.1 0.1 0.05 0.1 0.1 0.1 0.05 0.1 0.25 0.1 0.25 0.1 0.2 0.1 0.25 0.1 0.25 0.1 0.25 0.1 0.25 0.1 0.2 q 0.75,0.05 0.7,0.9 v 2.1 0.4 2.3 q 0.05,0.75 -0.6,0.7 H 20.6 20.5 20.45 20.35 20.1 20 h -0.25 -0.1 -0.25 -0.1 -0.25 -0.1 -0.2 -0.1 -0.25 -0.1 -0.25 -0.1 -0.05 -0.1 -0.1 -0.1 -0.05 -0.1 -0.1 -0.1 -0.05 -0.1 -0.1 -0.1 -0.05 -0.1 q -1.2,0 -1.1,1.35 v 0.1 0.05 0.1 0.1 0.1 0.05 0.1 0.1 0.1 0.05 0.1 0.1 0.1 0.05 0.1 0.1 0.1 0.05 0.1 0.2 0.1 0.1 0.1 0.05 0.1 0.25 0.1 0.25 0.1 0.3 q 0.05,0.9 -0.3,1.1 l -0.15,0.05 h -0.3 -2.25 -0.4 -2.1 q -1,0 -0.9,-0.7 v -0.05 -0.1 -0.25 -0.1 -0.25 -0.1 -0.25 -0.1 -0.25 -0.1 -0.05 -0.1 -0.1 -0.1 -0.2 -0.1 -0.05 -0.1 -0.1 -0.1 -0.05 -0.1 -0.1 -0.1 -0.05 -0.1 -0.1 -0.1 -0.05 -0.1 -0.1 -0.1 -0.05 -0.1 Q 9.35,16.3 8.1,16.25 H 8 7.9 7.8 7.7 7.65 7.55 7.3 7.2 6.95 6.85 6.6 6.5 6.25 6.15 5.95 5.85 5.6 5.5 5.25 5.15 5.1 5 4.9 4.8 4.75 4.65 4.55 4.45 4.4 4.3 4.2 4.1 Q 3.5,16.3 3.55,15.6 v -2.35 -0.45 -2 Q 3.5,9.95 4.3,9.8 h 0.15 0.1 0.1 0.1 0.05 0.1 0.1 0.1 0.05 0.1 0.25 0.1 0.25 0.1 0.2 0.1 0.25 0.1 0.25 0.1 0.25 0.1 0.25 0.1 0.05 0.1 0.1 0.1 0.05 0.1 0.1 q 1,0 1,-1.15 V 8.55 8.5 8.4 8.3 8.2 8.15 8.05 7.95 7.85 7.8 7.7 7.6 7.5 7.45 7.35 7.1 7 6.75 6.65 6.6 6.5 6.45 6.35 6.1 6 5.75 5.65 5.4 5.3 5.05 4.95 4.9 4.45 q 0,-0.4 0.7,-0.4 h 2.3 0.4"
         fill="#777777"
         fill-rule="evenodd"
         stroke="none"
         id="path4" />
      <path
         d="m 9.05,1.8 h 3.2 0.4 0.95 2.3 0.3 Q 18.15,1.7 17.9,4 v 0.1 0.2 0.1 0.25 0.1 0.25 0.1 0.25 0.1 0.25 0.1 0.05 0.1 0.1 0.1 0.05 0.1 0.25 0.1 0.1 0.1 V 6.9 7 7.1 7.2 7.25 7.35 7.5 h 0.15 0.1 0.05 0.1 0.1 0.1 0.05 0.1 0.1 0.1 0.05 0.1 0.1 0.1 0.05 0.1 0.1 0.1 0.05 0.1 0.25 0.1 0.25 0.1 0.25 0.1 0.25 0.1 0.2 0.1 0.25 q 1.7,-0.05 1.9,0.9 l 0.05,0.2 v 4.15 0.4 0.9 2.3 0.55 q -0.15,1.6 -2.4,1.5 h -0.1 -0.1 -0.25 -0.1 -0.25 -0.1 -0.25 -0.1 -0.25 -0.1 -0.05 -0.1 -0.1 -0.1 -0.05 -0.1 -0.1 -0.1 -0.05 -0.1 -0.1 -0.1 -0.05 -0.1 -0.1 -0.1 -0.05 -0.1 -0.15 v 0.05 0.1 0.25 0.1 0.25 0.1 0.05 0.1 0.1 0.1 0.05 0.1 0.1 0.1 0.05 0.1 0.1 0.1 0.05 0.1 0.1 0.1 0.05 0.1 0.25 0.1 0.25 0.1 0.2 0.1 0.25 0.1 0.1 q 0.05,2 -1.65,1.95 H 15.9 12.65 12.25 11.35 9.05 8.9 Q 6.9,24.3 7,21.8 v -0.1 -0.2 -0.1 -0.25 -0.1 -0.25 -0.1 -0.05 -0.1 -0.1 -0.1 -0.05 -0.1 -0.25 -0.1 -0.1 -0.1 -0.05 -0.1 -0.1 -0.1 -0.05 -0.1 -0.25 -0.1 -0.3 H 6.85 6.75 6.7 6.6 6.5 6.4 6.35 6.25 6 5.9 5.65 5.55 5.3 5.2 4.95 4.85 4.6 4.5 4.45 4.35 4.25 4.15 4.1 q -2.85,0.15 -2.75,-2 L 1.3,13.25 V 12.8 11.9 L 1.35,9.2 Q 1.35,7.55 2.5,7.6 L 3.9,7.55 H 4 4.1 4.15 4.25 4.35 4.45 4.5 4.6 4.85 4.95 5.2 5.3 5.55 5.65 5.9 6 6.25 6.35 6.4 6.5 6.6 6.7 6.75 6.85 7 V 7.35 7.25 7.2 7.1 7 6.9 6.85 6.75 6.65 6.55 6.3 6.2 6.15 6.05 5.95 5.85 5.8 5.7 5.45 5.35 5.1 5 4.75 4.65 4.4 4.3 4.1 L 7.05,3 Q 7.1,1.9 8.7,1.8 h 0.35 m 3.6,2.25 h -0.4 -2.3 q -0.7,0 -0.7,0.4 V 4.9 4.95 5.05 5.3 5.4 5.65 5.75 6 6.1 6.35 6.45 6.5 6.6 6.65 6.75 7 v 0.1 0.25 0.1 0.05 0.1 0.1 0.1 0.05 0.1 0.1 0.1 0.05 0.1 0.1 0.1 0.05 0.1 q 0,1.15 -1,1.15 H 8.15 8.05 8 7.9 7.8 7.7 7.65 7.55 7.3 7.2 6.95 6.85 6.6 6.5 6.25 6.15 5.95 5.85 5.6 5.5 5.25 5.15 5.1 5 4.9 4.8 4.75 4.65 4.55 4.45 4.3 q -0.8,0.15 -0.75,1 v 2 0.45 2.35 Q 3.5,16.3 4.1,16.25 h 0.1 0.1 0.1 0.05 0.1 0.1 0.1 H 4.8 4.9 5 5.1 5.15 5.25 5.5 5.6 5.85 5.95 6.15 6.25 6.5 6.6 6.85 6.95 7.2 7.3 7.55 7.65 7.7 7.8 7.9 8 8.1 q 1.25,0.05 1.15,1.25 v 0.1 0.05 0.1 0.1 0.1 0.05 0.1 0.1 0.1 0.05 0.1 0.1 0.1 0.05 0.1 0.1 0.1 0.05 0.1 0.2 0.1 0.1 0.1 0.05 0.1 0.25 0.1 0.25 0.1 0.25 0.1 0.25 0.1 0.05 q -0.1,0.7 0.9,0.7 h 2.1 0.4 2.25 0.3 l 0.15,-0.05 q 0.35,-0.2 0.3,-1.1 v -0.3 -0.1 -0.25 -0.1 -0.25 -0.1 -0.05 -0.1 -0.1 -0.1 -0.2 -0.1 -0.05 -0.1 -0.1 -0.1 -0.05 -0.1 -0.1 -0.1 -0.05 -0.1 -0.1 -0.1 -0.05 -0.1 -0.1 -0.1 -0.05 -0.1 q -0.1,-1.35 1.1,-1.35 h 0.1 0.05 0.1 0.1 0.1 0.05 0.1 0.1 0.1 0.05 0.1 0.1 0.1 0.05 0.1 0.25 0.1 0.25 0.1 0.2 0.1 0.25 0.1 0.25 0.1 0.25 0.1 0.25 0.1 0.05 0.1 0.15 q 0.65,0.05 0.6,-0.7 v -2.3 -0.4 -2.1 Q 21.4,9.8 20.65,9.75 h -0.2 -0.1 -0.25 -0.1 -0.25 -0.1 -0.25 -0.1 -0.25 -0.1 -0.2 -0.1 -0.25 -0.1 -0.25 -0.1 -0.05 -0.1 -0.1 -0.1 -0.05 -0.1 -0.1 -0.1 H 17.2 17.1 17 16.9 16.85 Q 15.75,9.8 15.65,8.7 V 8.65 8.55 8.5 8.4 8.3 8.2 8.15 8.05 7.95 7.85 7.8 7.7 7.6 7.5 7.45 7.35 7.1 7 6.75 6.65 6.6 6.5 6.45 6.35 6.1 6 5.75 5.65 5.4 5.3 5.05 4.95 q 0,-1 -0.85,-0.9 h -2.15"
         fill="#4d4d4d"
         fill-rule="evenodd"
         stroke="none"
         id="path5" />
      <path
         d="m 11.35,10.2 q 0.65,0.2 1.15,1.3 0.5,-1.1 1.15,-1.3 l 1.2,-0.1 q 0.55,0.05 1.2,0.65 0.75,0.55 0.75,1.65 l -0.3,1.7 -1.75,1.75 q -1.45,1.1 -2.2,1.9 L 10.2,15.8 Q 8.6,14.65 8.35,14.05 8.05,13.45 8.15,12.4 8.2,11.3 8.95,10.75 9.6,10.15 10.15,10.1 l 1.2,0.1"
         fill="#a3a3a3"
         fill-rule="evenodd"
         stroke="none"
         id="path6" />
    </g>
  </defs>
</svg>
