<?xml version="1.0" encoding="UTF-8" standalone="no"?>
<svg
   ffdec:objectType="frame"
   height="33.349998"
   width="29.771809"
   version="1.1"
   id="svg8"
   sodipodi:docname="UI_Worn_Icon.svg"
   xmlns:inkscape="http://www.inkscape.org/namespaces/inkscape"
   xmlns:sodipodi="http://sodipodi.sourceforge.net/DTD/sodipodi-0.dtd"
   xmlns:xlink="http://www.w3.org/1999/xlink"
   xmlns="http://www.w3.org/2000/svg"
   xmlns:svg="http://www.w3.org/2000/svg"
   xmlns:ffdec="https://www.free-decompiler.com/flash">
  <sodipodi:namedview
     id="namedview8"
     pagecolor="#ffffff"
     bordercolor="#000000"
     borderopacity="0.25"
     inkscape:showpageshadow="2"
     inkscape:pageopacity="0.0"
     inkscape:pagecheckerboard="0"
     inkscape:deskcolor="#d1d1d1" />
  <g
     transform="translate(15.134017,17.85)"
     id="g1">
    <use
       ffdec:characterId="3336"
       height="33.349998"
       transform="translate(-14.9,-11.4)"
       width="29.799999"
       xlink:href="#sprite0"
       id="use1" />
  </g>
  <defs
     id="defs8">
    <g
       id="sprite0">
      <use
         ffdec:characterId="3335"
         height="33.349998"
         width="29.799999"
         xlink:href="#shape0"
         id="use2" />
    </g>
    <g
       id="shape0">
      <path
         d="m 18.7,11.7 0.3,0.6 q 1.05,1.1 1.4,2.7 l 3.05,-0.25 0.05,-0.05 0.35,-0.35 q 0.55,-0.9 1.6,-0.85 1.3,0 1.9,1.15 l 0.5,1.45 q 0.35,1.35 0.05,2.95 l -0.55,1.65 q -0.6,1 -1.8,1.15 Q 24.5,21.9 23.8,21.1 l -0.3,-0.45 -3.05,-0.2 q -0.5,2.2 -2.7,3.7 -1.75,1.1 -3.4,1.25 L 12.5,25.25 11.95,25.1 7.9,24.1 4.1,23.15 Q 2.9,23 2.3,22.4 L 2.1,22.1 Q 1.6,21.2 1.35,19.4 1.1,16.85 1.6,15 L 2,13.95 q 0.5,-1 1.15,-1.15 L 5.2,12.4 6.05,12.2 8,11.6 8.2,11.55 8.45,11.45 12.4,10.3 h 0.05 0.25 l 0.15,-0.05 1.4,-0.05 q 1.6,0.05 3.3,1 l 0.15,0.1 0.45,0.05"
         fill="none"
         stroke="#ffffff"
         stroke-linecap="round"
         stroke-linejoin="round"
         stroke-width="3"
         id="path2" />
      <path
         d="M 8.45,11.45 7.3,10.35 Q 6.4,9 6.05,7.85 4.55,3 4.55,-0.45 q 0,-1.35 0.3,-1.9 0.45,-1.1 1.75,-1.1 1.25,0 1.85,1 0.65,1.2 0.8,3.5 0.2,3.3 1.3,5 l 1.5,-2.5 q 1.65,-2.45 2.7,-2.4 h 0.1 q 1.05,-0.05 2.7,2.4 l 1.5,2.5 q 1.1,-1.7 1.3,-5 0.15,-2.3 0.8,-3.5 0.6,-1 1.85,-1 1.3,0 1.75,1.1 0.3,0.55 0.3,1.9 0,3.45 -1.5,8.3 Q 23.2,9 22.3,10.35 L 21.1,11.5 Q 20.45,12 19.25,11.85 L 18.7,11.7 18.15,11.35 16.6,9.6 16.55,9.55 16.5,9.45 14.8,6.85 13.1,9.45 13.05,9.55 13,9.6 12.45,10.3 q -1.3,1.6 -2.1,1.55 L 8.5,11.5 Z"
         fill="none"
         stroke="#ffffff"
         stroke-linecap="round"
         stroke-linejoin="round"
         stroke-width="6"
         id="path3" />
      <path
         d="m 25.35,13.45 q 1.3,0 1.9,1.15 l 0.5,1.45 Q 28.1,17.4 27.8,19 l -0.55,1.65 q -0.6,1 -1.8,1.15 -1.05,0.05 -1.75,-0.75 L 23.4,20.6 20.35,20.4 q -0.5,2.2 -2.7,3.7 -1.75,1.1 -3.4,1.25 L 12.4,25.2 11.85,25.05 q -1.8,-0.3 -4.05,-1 L 4,23.1 Q 2.8,22.95 2.2,22.35 L 2,22.05 Q 1.5,21.15 1.25,19.35 1,16.8 1.5,14.95 q 0.1,-0.6 0.4,-1.05 0.5,-1 1.15,-1.15 l 2.05,-0.4 0.85,-0.2 6.35,-1.9 1.85,-0.1 q 1.7,0.05 3.45,1.1 l 0.3,0.15 q 1.9,1.3 2.4,3.55 l 3.05,-0.25 0.05,-0.05 0.35,-0.35 q 0.55,-0.9 1.6,-0.85 m 0.3,5.5 -0.45,-0.45 -0.15,-0.95 0.15,-0.8 0.4,-0.45 0.4,0.4 0.15,0.85 -0.1,1 -0.4,0.4 m 0.3,-3.45 q -0.35,-0.65 -0.8,-0.4 -0.25,-0.05 -0.6,0.65 l -0.5,0.9 q -0.1,0.2 -0.45,-0.55 L 23.5,16 20.8,16.4 19.25,16.45 Q 18.7,16.3 18.65,16 18.55,15.75 18.9,15.5 L 19,15.4 q -0.5,-1.45 -1.85,-2.6 -1.3,-1.05 -3.1,-1.05 l -1.45,0.15 -0.4,0.15 -0.55,0.15 q -0.3,0.05 -0.75,0.25 l -0.7,0.2 -2.4,0.65 -4.1,0.9 -0.1,0.05 q -0.95,1.75 -0.8,4.4 0.2,1.6 0.85,2.7 v 0.1 l 4.15,0.8 2.3,0.65 1,0.25 1.2,0.25 1.85,0.35 q 1.75,-0.05 3,-1.15 1.3,-1.15 1.8,-2.7 l -0.1,-0.05 Q 18.55,19.6 18.6,19.35 18.65,19 19.2,18.9 h 1.65 l 2.65,0.4 0.05,-0.1 0.4,-0.7 0.45,0.8 q 0.4,0.75 0.8,0.9 0.4,0.15 0.8,-0.6 l 0.65,-1.4 -0.1,-1.5 -0.6,-1.2"
         fill="#000000"
         fill-rule="evenodd"
         stroke="none"
         id="path4" />
      <path
         d="m 25.95,15.5 0.6,1.2 0.1,1.5 -0.65,1.4 q -0.4,0.75 -0.8,0.6 -0.4,-0.15 -0.8,-0.9 l -0.45,-0.8 -0.4,0.7 -0.05,0.1 -2.65,-0.4 H 19.2 q -0.55,0.1 -0.6,0.45 -0.05,0.25 0.25,0.5 l 0.1,0.05 q -0.5,1.55 -1.8,2.7 -1.25,1.1 -3,1.15 L 12.3,23.4 11.1,23.15 10.1,22.9 7.8,22.25 3.65,21.45 v -0.1 Q 3,20.25 2.8,18.65 2.65,16 3.6,14.25 l 0.1,-0.05 4.1,-0.9 2.4,-0.65 0.7,-0.2 q 0.45,-0.2 0.75,-0.25 l 0.55,-0.15 0.4,-0.15 1.45,-0.15 q 1.8,0 3.1,1.05 1.35,1.15 1.85,2.6 l -0.1,0.1 q -0.35,0.25 -0.25,0.5 0.05,0.3 0.6,0.45 l 1.55,-0.05 2.7,-0.4 0.1,0.1 q 0.35,0.75 0.45,0.55 l 0.5,-0.9 q 0.35,-0.7 0.6,-0.65 0.45,-0.25 0.8,0.4 m -0.3,3.45 0.4,-0.4 0.1,-1 -0.15,-0.85 -0.4,-0.4 -0.4,0.45 -0.15,0.8 0.15,0.95 0.45,0.45"
         fill="#3d6938"
         fill-rule="evenodd"
         stroke="none"
         id="path5" />
      <path
         d="m 9.15,14.85 0.1,0.1 0.05,0.2 -0.15,0.1 -0.4,-0.1 L 8.3,14.95 7.4,15.8 Q 7.3,16.05 7.15,15.75 V 15.4 L 7.75,14.6 7.3,14.35 7.25,14.2 7.4,14 h 0.2 l 0.5,0.25 0.2,-0.2 0.35,-0.25 0.3,-0.15 q 0.3,0 0.2,0.35 l -0.3,0.4 -0.2,0.2 0.5,0.25 M 3.85,19.8 Q 3.8,19.65 4,19.45 L 4.95,18.7 3.65,17.2 3.55,17 3.65,16.85 3.8,16.9 5.45,18.25 5.9,17.85 5.7,17.65 5.15,17 5.1,16.8 q 0,-0.1 0.2,-0.1 L 5.5,16.8 6.3,17.55 7.7,16.4 8,16.3 8.15,16.45 6.7,17.9 6.8,17.95 7.25,18.4 7.9,17.9 8.25,17.7 8.65,17.8 8.4,18.1 7.65,18.8 7.9,19.1 8.05,19.4 7.85,19.65 7.6,19.5 7.25,19.1 6.9,19.4 7.4,19.9 7.45,20.5 6.9,20.35 6.25,19.85 6.2,19.9 q -0.7,0.6 -1.55,1 l -0.05,-0.3 0.25,-0.25 1,-0.8 -0.5,-0.5 L 4.1,19.8 H 3.85 m 2.5,-1.55 -0.45,0.35 0.55,0.4 0.05,0.05 0.35,-0.3 -0.5,-0.5 m 10.7,-0.7 -1.2,-1.2 -0.8,0.95 0.95,1.05 0.25,0.35 -0.1,0.4 Q 15.6,18.95 14.8,18.05 l -0.2,-0.2 -0.3,0.4 -1,1 -0.3,0.05 0.05,-0.3 1.1,-1.6 -0.85,-0.95 -1.4,1.2 -0.45,0.1 1.3,-1.85 -0.9,-1 v -0.3 q 0.25,0 0.7,0.35 l 0.6,0.5 0.45,-0.45 0.6,-0.55 -1.15,-1.3 -0.3,-0.25 -0.15,-0.2 q 0,-0.25 0.25,-0.25 l 0.35,0.2 1.45,1.35 q 0.9,-0.75 1.55,-1.15 l 0.25,0.25 -1.25,1.45 0.8,0.85 q 0.45,-0.45 0.75,-0.4 l -0.3,0.6 -0.15,0.15 1.1,1.15 0.25,0.4 q 0.1,0.3 -0.15,0.4 L 17.05,17.55 M 15.4,15.8 14.7,15.05 13.75,16 14.6,16.85 15.45,15.95 15.4,15.8 m 0.3,6.85 h -0.4 l -0.35,-0.1 -0.6,-0.25 -0.6,0.45 -0.3,0.2 -0.35,-0.25 0.4,-0.5 0.15,-0.15 -1.3,-0.75 -0.15,-0.35 0.4,-0.05 1.55,0.6 0.6,-0.6 0.2,-0.2 0.25,0.05 v 0.35 l -0.25,0.5 -0.1,0.2 0.65,0.3 0.2,0.2 q 0.2,0.2 0,0.35"
         fill="#000000"
         fill-rule="evenodd"
         stroke="none"
         id="path6" />
      <path
         d="M 14.8,7.05 13.1,9.65 13.05,9.75 13,9.8 q -1.7,2.3 -2.65,2.25 L 8.5,11.7 7.3,10.55 Q 6.4,9.2 6.05,8.05 4.55,3.2 4.55,-0.25 q 0,-1.35 0.3,-1.9 0.45,-1.1 1.75,-1.1 1.25,0 1.85,1 0.65,1.2 0.8,3.5 0.2,3.3 1.3,5 l 1.5,-2.5 Q 13.7,1.3 14.75,1.35 15.8,1.3 17.5,3.75 l 1.55,2.5 q 1.1,-1.7 1.3,-5 0.15,-2.3 0.8,-3.5 0.6,-1 1.85,-1 1.3,0 1.75,1.1 0.3,0.55 0.3,1.9 0,3.45 -1.5,8.3 -0.35,1.15 -1.25,2.5 L 21.1,11.7 Q 20.45,12.2 19.25,12.05 18.3,12.1 16.6,9.8 L 16.55,9.75 16.5,9.65 Z"
         fill="none"
         stroke="#000000"
         stroke-linecap="round"
         stroke-linejoin="round"
         stroke-width="3"
         id="path7" />
      <path
         d="M 14.8,7.2 13.1,9.8 13.05,9.9 13,9.95 q -1.7,2.3 -2.65,2.25 L 8.5,11.85 7.3,10.7 Q 6.4,9.35 6.05,8.2 4.55,3.35 4.55,-0.1 q 0,-1.35 0.3,-1.9 0.45,-1.1 1.75,-1.1 1.25,0 1.85,1 0.65,1.2 0.8,3.5 0.2,3.3 1.3,5 l 1.5,-2.5 q 1.65,-2.45 2.7,-2.4 h 0.1 q 1.05,-0.05 2.7,2.4 l 1.5,2.5 q 1.1,-1.7 1.3,-5 0.15,-2.3 0.8,-3.5 0.6,-1 1.85,-1 1.3,0 1.75,1.1 0.3,0.55 0.3,1.9 0,3.45 -1.5,8.3 -0.35,1.15 -1.25,2.5 l -1.2,1.15 Q 20.45,12.35 19.25,12.2 18.3,12.25 16.6,9.95 L 16.55,9.9 16.5,9.8 14.8,7.2"
         fill="#743c28"
         fill-rule="evenodd"
         stroke="none"
         id="path8" />
    </g>
  </defs>
</svg>
