<?xml version="1.0" encoding="UTF-8" standalone="no"?>
<svg
   ffdec:objectType="frame"
   height="29.99622"
   width="29.127056"
   version="1.1"
   id="svg6"
   sodipodi:docname="STATUS_Intelligence_Down_Icon.svg"
   xmlns:inkscape="http://www.inkscape.org/namespaces/inkscape"
   xmlns:sodipodi="http://sodipodi.sourceforge.net/DTD/sodipodi-0.dtd"
   xmlns:xlink="http://www.w3.org/1999/xlink"
   xmlns="http://www.w3.org/2000/svg"
   xmlns:svg="http://www.w3.org/2000/svg"
   xmlns:ffdec="https://www.free-decompiler.com/flash">
  <sodipodi:namedview
     id="namedview6"
     pagecolor="#ffffff"
     bordercolor="#000000"
     borderopacity="0.25"
     inkscape:showpageshadow="2"
     inkscape:pageopacity="0.0"
     inkscape:pagecheckerboard="0"
     inkscape:deskcolor="#d1d1d1" />
  <g
     transform="translate(15.05762,14.76042)"
     id="g2">
    <use
       ffdec:characterId="3130"
       height="35.150002"
       transform="matrix(0.8333,0,0,0.8333,-11.7,-12.4)"
       width="34.349998"
       xlink:href="#shape0"
       id="use1" />
    <use
       ffdec:characterId="3127"
       height="26.950001"
       transform="matrix(0.4028,0,0,0.4028,-15.4,-14.7)"
       width="28.25"
       xlink:href="#shape1"
       id="use2" />
  </g>
  <defs
     id="defs6">
    <g
       id="shape0">
      <path
         d="M 9.9,-1.55 10,-1.6 h 0.15 l 0.45,-0.1 1.4,-0.1 1.1,-0.1 3.15,0.1 0.6,0.05 0.5,0.1 h 0.1 l 0.15,0.05 1.8,0.45 q 2.35,1 4.3,2.55 l 0.25,-0.3 0.2,-0.35 q 1.55,-2.35 4.3,-2.5 l 1.25,0.45 0.15,0.1 0.65,0.75 Q 31.6,1.7 29.85,3.4 L 27.2,5.45 27.8,7 q 1.2,4.05 -0.05,8.15 l -0.95,2.25 2.4,2.05 0.1,0.2 0.6,1.2 q 0.7,1.7 -0.3,3.1 -0.65,0.85 -1.65,0.85 -2.7,0.05 -4.6,-1.55 v 0.9 l -0.15,2.15 -0.75,4.15 q -0.3,1.4 -1.7,1.8 -3.2,1 -6.55,0.85 Q 10.35,33.4 6.7,32.3 5.3,31.9 5,30.5 L 4.25,26.35 4.1,24.2 v -0.9 q -1.9,1.6 -4.6,1.55 -1,0 -1.65,-0.85 -1,-1.4 -0.3,-3.1 0.2,-0.8 0.65,-1.2 l 0.1,-0.2 q 1.05,-1.2 2.4,-2.05 l -1,-2.25 Q -1.55,11.1 -0.35,7.05 L 0.3,5.5 -2.4,3.45 Q -4.15,1.75 -3.05,-0.4 L -2.4,-1.15 -2.25,-1.25 -1,-1.7 q 2.75,0.15 4.3,2.5 L 3.55,1.15 3.8,1.45 Q 5.7,-0.1 8.05,-1.1 L 9.9,-1.55 M 22.35,4.2 21.25,3.25 20.15,3.3 19.35,3.05 17.85,2.35 Q 17.8,3 17.15,3.65 L 16.4,3.95 Q 15.15,3.85 14.85,2.7 L 14.65,2.45 14.2,2.4 13.7,2.2 13.25,2.35 12.85,2.4 12.6,2.65 Q 12.3,3.8 11.05,3.9 L 10.3,3.6 Q 9.7,3 9.65,2.4 L 8.1,3.1 7.3,3.35 6.25,3.3 5.1,4.25 5,4.75 4.75,5.8 4,6.35 3.95,6.4 3.25,6.7 Q 2.75,7.55 2.4,8.55 2.05,9.5 2,10.55 1.9,14.8 4.75,17.8 5.7,17.05 6.6,17.45 L 6.8,17.4 q 0.65,-0.05 0.9,0.55 0.45,0.95 0.05,1.7 l 1.35,0.2 q 1.55,0.1 2.45,1.2 0.3,0.4 0.15,0.9 -0.55,1.7 -2.4,1.15 L 7.1,22.5 q -0.05,3.55 0.8,7 v 0.1 l 2.15,0.4 h 3.3 q 2,-0.15 4.05,-0.05 l 2.15,-0.4 v -0.1 q 0.85,-3.45 0.8,-7 l -2.2,0.6 Q 16.3,23.6 15.75,21.9 15.6,21.4 15.9,21 q 0.9,-1.1 2.45,-1.2 l 1.4,-0.2 q -0.45,-0.75 0,-1.7 0.25,-0.6 0.9,-0.55 l 0.25,0.05 q 0.85,-0.4 1.85,0.35 2.8,-3 2.7,-7.25 l -0.4,-2 -0.8,-1.85 q -0.45,0 -0.7,-0.3 L 23.45,6.3 Q 22.9,6.25 22.7,5.75 L 22.5,4.7 22.35,4.2"
         fill="#bf9393"
         fill-rule="evenodd"
         stroke="none"
         id="path2" />
      <path
         d="m 22.75,5.9 0.5,0.6 0.45,0.6 q 1.9,2.9 1.8,6.3 -0.05,2.2 -1.75,3.7 -1.6,1.5 -3.55,2.35 v 0.2 q 0.75,4.1 -0.65,7.8 -0.85,2.2 -3.2,1.85 -1.35,2.05 -3.65,0.75 l -0.3,-0.2 Q 8.8,30.7 8.35,27.35 L 7.75,23.25 6.8,18.65 Q 4.75,18.05 3.5,15.55 1.15,10.9 3.85,6.55 4.4,5.7 5.15,5 5.75,4.45 6.45,4.05 L 6.9,3.55 q 3,-3 7.1,-3.5 5.2,0.05 7.6,4.2 l 0.15,0.25 0.75,1.1 0.25,0.3"
         fill="#7c6783"
         fill-rule="evenodd"
         stroke="none"
         id="path3" />
      <path
         d="M 24.3,10.8 Q 24.1,9 23.1,7.45 21.7,5.35 19.65,3.8 L 17.95,2.85 15.2,2.15 13.95,2 12.7,2.15 10,2.85 8.25,3.8 Q 6.2,5.35 4.8,7.45 3.8,9 3.65,10.8 l -0.1,0.4 q -0.15,1.3 0.2,2.35 0.3,1.75 2,3.25 l 0.75,0.7 0.4,0.3 0.75,0.6 0.45,0.65 q 0.4,1.25 0.4,2.6 l 0.05,0.8 0.3,0.1 0.25,0.1 1.7,0.35 1.15,0.1 0.9,0.05 0.75,0.05 h 0.65 0.4 0.05 l 1.25,-0.1 1.15,-0.1 1.7,-0.35 0.25,-0.1 0.35,-0.1 v -0.8 q 0,-1.35 0.4,-2.6 L 20.25,18.4 21,17.8 q 0.2,-0.2 0.45,-0.3 l 0.7,-0.7 q 1.7,-1.5 2,-3.25 0.35,-1.05 0.2,-2.35 L 24.3,10.8 M 28.8,0.05 q 1.1,0.6 0.15,1.45 l -3.3,2.4 q -0.6,0 -0.8,-0.6 V 2.65 l 3,-2.55 0.95,-0.05 M 13.6,-0.1 14.95,-0.05 15.9,0 16.2,0.05 h 0.1 l 1.3,0.3 q 1.25,0.3 2.3,0.95 L 20,1.35 q 1.5,0.8 2.75,1.95 2.9,2.6 4,6.3 l 0.15,1.35 q -0.15,5.15 -4.4,8.3 l -0.65,0.5 q -0.5,0.3 -0.55,1.05 v 2.45 l -0.25,3.8 v 0.5 L 21,28.15 v 0.3 l -0.05,0.5 v 0.25 l -0.1,0.3 -0.1,0.25 q -0.15,0.55 -0.9,0.8 l -5.9,0.8 q -3,0.05 -5.9,-0.8 Q 7.3,30.3 7.15,29.75 L 7.05,29.5 7,29.2 H 6.95 V 28.95 L 6.9,28.45 v -0.3 -0.6 L 6.85,27.05 6.65,23.25 6.6,20.8 Q 6.55,20.05 6.1,19.75 L 5.4,19.25 Q 1.15,16.1 1,10.95 0.95,10.25 1.15,9.6 2.25,5.9 5.15,3.3 6.4,2.15 7.9,1.35 L 8,1.3 Q 9.05,0.65 10.35,0.35 l 1.25,-0.3 h 0.25 L 11.95,0 13.6,-0.1 m 10.3,19.4 q 0.2,-0.6 0.8,-0.6 l 3.3,2.4 q 0.95,0.85 -0.15,1.45 L 26.9,22.5 23.9,19.95 V 19.3 M 13.65,3.95 h 0.1 L 14.2,3.9 Q 14.95,4 15.25,4.75 16.1,6.6 16,8.65 L 15.95,8.8 15.9,9.3 v 0.05 l -0.3,3.55 -0.1,0.5 -0.05,0.3 -0.05,0.2 -0.1,0.6 -0.1,0.4 -0.05,0.15 -0.4,1.95 -0.1,0.25 v 0.05 l -0.1,0.3 v 0.05 L 14.35,17.9 13.4,17.85 V 17.8 l -0.1,-0.15 -0.1,-0.3 V 17.3 l -0.1,-0.25 -0.4,-1.95 -0.05,-0.15 -0.05,-0.4 -0.15,-0.6 -0.05,-0.2 -0.05,-0.3 -0.05,-0.5 Q 11.95,11.2 11.95,9.4 V 9.35 8.85 L 11.9,8.7 Q 11.75,6.65 12.6,4.8 12.9,4.05 13.65,3.95 M 1.7,3.9 -1.6,1.5 Q -2.55,0.65 -1.45,0.05 l 0.95,0.05 3,2.55 V 3.3 Q 2.3,3.9 1.7,3.9 m 6.75,20.6 v 0.05 l -0.05,0.35 0.15,3.4 0.15,0.15 0.1,0.05 1.05,0.45 2.55,0.45 h 0.15 l 0.8,0.1 0.6,0.05 0.6,-0.05 0.85,-0.1 h 0.15 l 2.55,-0.45 1,-0.45 0.1,-0.05 0.2,-0.15 0.1,-3.4 v -0.35 l -0.05,-0.05 -1,0.3 -0.2,0.05 -4.3,0.25 -4.25,-0.25 -0.25,-0.05 -1,-0.3 m -5.7,-5.8 q 0.6,0 0.8,0.6 v 0.65 l -3,2.55 -0.95,0.05 q -1.1,-0.6 -0.15,-1.45 l 3.3,-2.4 m 10.3,0.55 0.9,-0.3 q 2,0.2 1.35,2.05 -0.2,0.5 -0.75,0.65 Q 13.3,22 12.55,21 l -0.1,-0.35 Q 12.4,20.2 12.6,19.8 l 0.15,-0.3 0.3,-0.25"
         fill="#000000"
         fill-rule="evenodd"
         stroke="none"
         id="path4" />
    </g>
    <g
       id="shape1">
      <path
         d="m 28.1,10.9 -0.2,0.6 0.05,1.8 Q 28,14.25 27.7,15.1 l -0.05,0.45 -0.1,0.45 -0.15,0.3 -0.35,0.3 -0.85,0.3 -0.5,-0.2 -0.55,0.5 -4.35,4 q -2.2,2.1 -4.75,3.3 L 16,24.7 15.65,25 q -0.35,0.3 -0.85,0.3 l -0.3,-0.05 -0.25,-0.05 -0.2,-0.1 q -2,-2.15 -4.3,-3.95 Q 6.6,19.4 3.75,17.1 2.85,17.05 2.65,16.15 2.2,14.7 2.1,13.2 L 1.9,12.75 V 12.3 12 Q 1.5,11.05 1.85,10.05 2.4,8.4 4.05,9 l 1.35,0.6 10.5,5.45 3.15,-2.4 q 2.4,-1.6 5.05,-1.95 l 1.7,-1.35 0.5,-0.2 Q 27.35,9 27.5,9.6 l 0.4,0.25 0.2,1.05 M 27.85,2.1 q 0.2,0.85 0.05,1.65 L 27.4,6.25 27.2,6.4 27.05,6.5 26.9,6.95 26.6,7.15 26.4,7.25 24.75,8.3 24.55,8.4 23,9.2 q -3.45,1.45 -6.7,3.25 l -0.1,-0.05 -0.3,0.3 -0.1,0.25 -0.2,0.15 -0.4,0.15 -0.15,-0.05 h -0.1 L 14.9,13.15 H 14.85 L 14.35,12.7 V 12.65 L 13.1,11.9 10.9,10.85 3.65,7.2 3.05,6.65 Q 2.4,6.55 2.05,6.05 L 2,6 Q 1.8,5.4 2.3,5.05 L 2.65,4.9 2.5,4.3 2.45,3.8 Q 2.2,3.2 2.45,2.7 L 2.35,2.25 Q 2.35,1.3 3.4,1.6 7.45,2.7 11.25,4.55 l 3.4,1.6 Q 14.8,6.1 15,6 19.05,4.15 23.35,2.9 l 1.9,-0.65 1.2,-0.3 Q 26.7,1.55 27.4,1.7 l 0.3,0.3 0.15,0.1"
         fill="#d15b4b"
         fill-rule="evenodd"
         stroke="none"
         id="path5" />
      <path
         d="M 26.85,11.1 V 9.7 q -3.55,1.75 -7,3.6 -2.2,1.15 -4.25,2.5 H 15.55 L 15.1,15.95 H 14.85 L 14.4,15.8 H 14.35 L 10.1,13.3 3.15,9.7 3.1,11.1 l 0.05,4.15 0.05,0.45 2.05,1.4 0.55,0.4 1.7,1.2 0.15,0.1 0.9,0.6 3.25,2.65 0.65,0.55 1.45,1.2 v -0.05 l 0.2,0.2 0.05,0.05 0.85,0.75 0.8,-0.75 0.05,-0.05 0.2,-0.2 v 0.05 l 1.45,-1.2 0.7,-0.55 3.2,-2.65 0.9,-0.6 0.2,-0.1 1.65,-1.2 0.55,-0.4 2.05,-1.4 0.05,-0.45 0.05,-4.15 m 0,-7.35 V 3.3 l -0.1,-1.2 q -3.5,1.25 -6.9,2.6 L 15.6,6.5 H 15.55 L 15.45,6.55 15.1,6.6 H 14.95 14.85 14.8 L 14.5,6.55 14.4,6.5 H 14.35 L 10.1,4.7 3.25,2.1 3.1,3.3 V 3.75 6.4 q 1.1,0.45 2.15,1.05 l 0.55,0.3 1.7,0.85 1.05,0.5 3.65,2.25 0.75,0.45 1.2,0.7 v -0.05 l 0.15,0.1 0.7,0.5 0.7,-0.5 0.1,-0.1 L 17,11.8 17.75,11.35 21.4,9.1 22.5,8.6 Q 23.3,8.15 24.15,7.75 L 24.7,7.45 Q 25.75,6.85 26.85,6.4 V 3.75 m 0.6,-3.9 H 27.7 L 28.3,0 28.7,0.65 28.75,0.9 28.7,1.15 28.75,1.75 V 1.9 L 28.8,2.2 28.95,5.3 29.1,9 V 9.65 9.9 l -0.05,4.2 -0.1,0.95 v 0.4 l -0.05,0.3 -0.05,0.2 -0.05,0.25 -0.1,0.15 -0.4,0.45 -0.2,0.2 -0.05,0.05 -3,2.15 -1.2,0.9 -0.95,0.75 -3.3,2.55 -3.1,2.65 -0.9,0.7 H 15.5 15 14.45 14.4 L 13.45,26.05 10.35,23.4 7.05,20.85 6.1,20.1 4.95,19.2 1.9,17.05 1.85,17 1.65,16.8 1.25,16.35 1.2,16.2 1.1,15.95 1.05,15.75 1,15.45 v -0.4 L 0.9,14.1 0.85,9.9 V 9.65 9 Q 0.85,7.1 1,5.3 L 1.2,2.2 V 1.9 1.75 L 1.25,1.15 V 0.9 0.65 Q 1.3,0.25 1.65,0 l 0.6,-0.15 H 2.5 Q 3.85,0.1 5.15,0.7 l 1.4,0.45 2,0.8 L 9.8,2.4 13.85,4 15,4.55 16.1,4 20.15,2.4 21.4,1.95 l 2,-0.8 1.45,-0.45 q 1.25,-0.6 2.6,-0.85"
         fill="#000000"
         fill-rule="evenodd"
         stroke="none"
         id="path6" />
    </g>
  </defs>
</svg>
