<?xml version="1.0" encoding="UTF-8" standalone="no"?>
<svg
   ffdec:objectType="frame"
   height="29.349998"
   width="33"
   version="1.1"
   id="svg10"
   sodipodi:docname="STATUS Empty Mind Icon.svg"
   xmlns:inkscape="http://www.inkscape.org/namespaces/inkscape"
   xmlns:sodipodi="http://sodipodi.sourceforge.net/DTD/sodipodi-0.dtd"
   xmlns:xlink="http://www.w3.org/1999/xlink"
   xmlns="http://www.w3.org/2000/svg"
   xmlns:svg="http://www.w3.org/2000/svg"
   xmlns:ffdec="https://www.free-decompiler.com/flash">
  <sodipodi:namedview
     id="namedview10"
     pagecolor="#ffffff"
     bordercolor="#000000"
     borderopacity="0.25"
     inkscape:showpageshadow="2"
     inkscape:pageopacity="0.0"
     inkscape:pagecheckerboard="0"
     inkscape:deskcolor="#d1d1d1" />
  <g
     transform="translate(16.65,14.899999)"
     id="g1">
    <use
       ffdec:characterId="3290"
       height="29.35"
       transform="translate(-13.5,-12.4)"
       width="33"
       xlink:href="#sprite0"
       id="use1" />
  </g>
  <defs
     id="defs10">
    <g
       id="sprite0">
      <use
         ffdec:characterId="3289"
         height="29.35"
         width="33"
         xlink:href="#shape0"
         id="use2" />
    </g>
    <g
       id="shape0">
      <path
         d="m 28.35,13.25 q 0,5.05 -4.3,8.55 -4.3,3.55 -10.4,3.55 H 13.4 13.3 13.1 q -6.15,0 -10.4,-3.55 -4.35,-3.5 -4.35,-8.55 0,-2.6 1.15,-4.85 Q -0.9,7.2 -0.8,5.6 L -0.65,4.3 -0.55,3.65 0.2,0.45 Q 0.5,-0.4 0.9,-0.7 L 2.1,-1 Q 3.3,-0.95 5,0.45 l 2.1,1.7 Q 9.85,1.1 13.1,1.1 h 0.2 0.1 0.25 q 3.25,0 6,1.05 l 2.05,-1.7 q 1.75,-1.4 2.9,-1.45 l 1.2,0.3 0.7,1.15 q 0.6,1.6 0.8,3.2 l 0.1,0.65 0.1,1.3 q 0.1,1.6 -0.3,2.8 1.15,2.25 1.15,4.85 M 3.65,7.35 q -1.6,1.6 -2.15,3.15 -0.8,2.2 0.4,3.65 l 1.15,1.15 1.25,1.3 q 1.35,1.2 3.25,1.75 l 3.7,0.35 q 3.2,-0.2 7,-2.45 0.2,0.55 0.85,0.8 0.6,0.2 1.2,0 0.95,-0.4 1.8,-1.65 L 24.05,12 Q 24.8,9.95 24.15,8.2 23.45,6.3 21.45,5.25 19.9,4.4 17.6,3.95 11.3,2.65 7.5,4.4 5.55,5.35 3.65,7.35"
         fill="#ffffff"
         fill-rule="evenodd"
         stroke="none"
         id="path2" />
      <path
         d="m 3.65,7.35 q 1.9,-2 3.85,-2.95 3.8,-1.75 10.1,-0.45 2.3,0.45 3.85,1.3 2,1.05 2.7,2.95 0.65,1.75 -0.1,3.8 l -1.95,3.4 q -0.85,1.25 -1.8,1.65 -0.6,0.2 -1.2,0 -0.65,-0.25 -0.85,-0.8 -3.8,2.25 -7,2.45 L 7.55,18.35 Q 5.65,17.8 4.3,16.6 L 3.05,15.3 1.9,14.15 Q 0.7,12.7 1.5,10.5 2.05,8.95 3.65,7.35"
         fill="#978f9f"
         fill-rule="evenodd"
         stroke="none"
         id="path3" />
      <path
         d="m 28.35,13.25 q 0,5.05 -4.3,8.55 -4.3,3.55 -10.4,3.55 H 13.4 13.3 13.1 q -6.15,0 -10.4,-3.55 -4.35,-3.5 -4.35,-8.55 0,-2.6 1.15,-4.85 Q -0.9,7.2 -0.8,5.6 L -0.65,4.3 -0.55,3.65 0.2,0.45 Q 0.5,-0.4 0.9,-0.7 L 2.1,-1 Q 3.3,-0.95 5,0.45 l 2.1,1.7 Q 9.85,1.1 13.1,1.1 h 0.2 0.1 0.25 q 3.25,0 6,1.05 l 2.05,-1.7 q 1.75,-1.4 2.9,-1.45 l 1.2,0.3 0.7,1.15 q 0.6,1.6 0.8,3.2 l 0.1,0.65 0.1,1.3 q 0.1,1.6 -0.3,2.8 1.15,2.25 1.15,4.85 z"
         fill="none"
         stroke="#ffffff"
         stroke-linecap="round"
         stroke-linejoin="round"
         stroke-width="3"
         id="path4" />
      <path
         d="m 28.35,13.25 q 0,5.05 -4.3,8.55 -4.3,3.55 -10.4,3.55 H 13.4 13.3 13.1 q -6.15,0 -10.4,-3.55 -4.35,-3.5 -4.35,-8.55 0,-2.6 1.15,-4.85 Q -0.9,7.2 -0.8,5.6 L -0.65,4.3 -0.55,3.65 0.2,0.45 Q 0.5,-0.4 0.9,-0.7 L 2.1,-1 Q 3.3,-0.95 5,0.45 l 2.1,1.7 Q 9.85,1.1 13.1,1.1 h 0.2 0.1 0.25 q 3.25,0 6,1.05 l 2.05,-1.7 q 1.75,-1.4 2.9,-1.45 l 1.2,0.3 0.7,1.15 q 0.6,1.6 0.8,3.2 l 0.1,0.65 0.1,1.3 q 0.1,1.6 -0.3,2.8 1.15,2.25 1.15,4.85 M 25.4,10.3 25.15,8.7 24.2,7.05 Q 23.4,6.05 22.05,5.2 L 21.85,5 Q 20.35,4.1 18.6,3.55 L 17.9,3.35 13.4,2.8 8.95,3.35 8.6,3.45 7.85,3.7 Q 6.3,4.15 4.9,5 3.25,6.05 2.35,7.35 L 2.15,7.6 Q 1.4,8.85 1.4,10.3 q 0,2 1.5,3.65 l 0.15,0.15 q 0.75,0.75 1.85,1.45 l 0.55,0.35 q 3.1,1.75 7.35,1.85 h 0.6 q 4.95,0 8.45,-2.2 l 0.45,-0.3 0.8,-0.6 q 2.3,-1.95 2.3,-4.35"
         fill="#000000"
         fill-rule="evenodd"
         stroke="none"
         id="path5" />
      <path
         d="m 25.4,10.3 q 0,2.4 -2.3,4.35 l -0.8,0.6 -0.45,0.3 q -3.5,2.2 -8.45,2.2 H 12.8 Q 8.55,17.65 5.45,15.9 L 4.9,15.55 Q 3.8,14.85 3.05,14.1 L 2.9,13.95 Q 1.4,12.3 1.4,10.3 1.4,8.85 2.15,7.6 L 2.35,7.35 Q 3.25,6.05 4.9,5 6.3,4.15 7.85,3.7 L 8.6,3.45 8.95,3.35 13.4,2.8 l 4.5,0.55 0.7,0.2 Q 20.35,4.1 21.85,5 l 0.2,0.2 q 1.35,0.85 2.15,1.85 l 0.95,1.65 0.25,1.6"
         fill="#978f9f"
         fill-rule="evenodd"
         stroke="none"
         id="path6" />
      <path
         d="m 15.7,20.65 q 0.05,-0.2 0.4,-0.2 l 0.4,0.05 0.75,0.15 1.95,-0.05 0.75,-0.1 q 2.25,-0.55 4,-1.85 0.25,-0.15 0.45,-0.15 l 0.3,0.15 q 0.25,0.35 -0.35,1.1 l -0.95,0.9 -1.15,0.8 -1.65,0.65 -0.55,0.1 H 19 L 18.45,22.15 H 18.4 L 16.35,21.5 Q 15.6,20.95 15.7,20.65 m -4.6,0 q 0.1,0.3 -0.65,0.85 L 8.4,22.15 6.15,22.1 4.55,21.45 3.4,20.65 2.4,19.75 Q 1.8,19 2.1,18.65 q 0.3,-0.3 0.7,0 1.8,1.3 4,1.85 l 0.75,0.1 2.7,-0.1 Q 11,20.35 11.1,20.65"
         fill="#ffffff"
         fill-rule="evenodd"
         stroke="none"
         id="path7" />
      <path
         d="m 12.95,22.5 0.45,-0.15 0.4,0.15 2.2,1.2 q 0.5,0.25 0.55,0.65 l -0.4,0.25 H 16.1 L 14.95,24.3 13.4,23.5 h -0.05 l -1.55,0.8 -1.2,0.3 q -0.5,0 -0.45,-0.25 0.05,-0.4 0.55,-0.65 l 2.25,-1.2"
         fill="#000000"
         fill-rule="evenodd"
         stroke="none"
         id="path8" />
      <path
         d="m 10.7,14.5 -0.35,0.3 Q 9.95,15.25 9.45,15.2 8.5,14.9 8.25,14 8.15,13.45 8.55,13 L 8.85,12.65 9.25,12.3 11.55,9.95 9.3,7.7 9.2,7.55 8.85,7.2 8.55,6.95 8.2,6.35 V 5.7 Q 8.5,4.85 9.2,4.75 L 9.45,4.7 q 0.55,0 0.9,0.35 l 0.3,0.3 0.45,0.45 2.3,2.3 2.3,-2.35 0.5,-0.4 0.25,-0.25 Q 17,4.65 17.5,4.65 q 1.05,0.2 1.2,1.15 0.05,0.6 -0.4,1.15 l -0.3,0.2 -0.4,0.5 -2.35,2.3 2.35,2.35 0.4,0.4 0.3,0.3 0.35,0.75 v 0.45 q -0.1,0.85 -0.95,1 L 17,15.15 16.4,14.8 16.1,14.5 15.75,14.15 13.4,11.75 11.05,14.1 Z"
         fill="none"
         stroke="#ffffff"
         stroke-linecap="round"
         stroke-linejoin="round"
         stroke-width="1.55"
         id="path9" />
      <path
         d="m 10.7,14.5 -0.35,0.3 Q 9.95,15.25 9.45,15.2 8.5,14.9 8.25,14 8.15,13.45 8.55,13 L 8.85,12.65 9.25,12.3 11.55,9.95 9.3,7.7 9.2,7.55 8.85,7.2 8.55,6.95 8.2,6.35 V 5.7 Q 8.5,4.85 9.2,4.75 L 9.45,4.7 q 0.55,0 0.9,0.35 l 0.3,0.3 0.45,0.45 2.3,2.3 3,-3.05 1.1,-0.4 q 1.05,0.2 1.2,1.15 0.05,0.6 -0.4,1.15 l -0.75,0.8 0.05,-0.1 -2.35,2.3 2.35,2.35 0.4,0.4 0.3,0.3 0.35,0.75 v 0.45 q -0.1,0.85 -0.95,1 L 17,15.15 16.4,14.8 16.1,14.5 15.75,14.15 13.4,11.75 11.05,14.1 10.7,14.5"
         fill="#3c86ff"
         fill-rule="evenodd"
         stroke="none"
         id="path10" />
    </g>
  </defs>
</svg>
