<?xml version="1.0" encoding="UTF-8" standalone="no"?>
<svg
   ffdec:objectType="frame"
   height="31.858225"
   width="34.558327"
   version="1.1"
   id="svg7"
   sodipodi:docname="STATUS_Mana_Leeches_Icon.svg"
   xmlns:inkscape="http://www.inkscape.org/namespaces/inkscape"
   xmlns:sodipodi="http://sodipodi.sourceforge.net/DTD/sodipodi-0.dtd"
   xmlns:xlink="http://www.w3.org/1999/xlink"
   xmlns="http://www.w3.org/2000/svg"
   xmlns:svg="http://www.w3.org/2000/svg"
   xmlns:ffdec="https://www.free-decompiler.com/flash">
  <sodipodi:namedview
     id="namedview7"
     pagecolor="#ffffff"
     bordercolor="#000000"
     borderopacity="0.25"
     inkscape:showpageshadow="2"
     inkscape:pageopacity="0.0"
     inkscape:pagecheckerboard="0"
     inkscape:deskcolor="#d1d1d1" />
  <g
     transform="translate(17.457947,15.37814)"
     id="g1">
    <use
       ffdec:characterId="3152"
       height="67.550003"
       transform="matrix(0.4716,0,0,0.4716,-17.35,-14.6)"
       width="73.349998"
       xlink:href="#sprite0"
       id="use1" />
  </g>
  <defs
     id="defs7">
    <g
       id="sprite0">
      <use
         ffdec:characterId="3151"
         height="67.550003"
         width="73.349998"
         xlink:href="#shape0"
         id="use2" />
    </g>
    <g
       id="shape0">
      <path
         d="m 70.45,10.65 -2.15,0.4 q -2.6,0.75 -3.45,1.6 -0.6,0.55 -1.3,1.85 l -0.3,0.6 q -0.75,1.6 -1.5,3.95 V 17.2 l -0.15,-2.8 -0.2,-0.85 -0.1,-0.7 q -0.5,-1.8 -1.4,-2.8 L 56.4,8.1 q 5,0.55 7.05,-2.7 Q 64.4,4 64.8,1.1 l 0.45,5.75 q 0.75,1.95 5.2,3.8 M 19.1,3.1 q 1.65,0.2 3.9,1.6 2.35,1.45 3.75,3.65 l 1.05,1.85 1.35,1.7 q 1.2,1.05 3.25,1.4 l 3.75,0.25 q 4.9,0.1 8.65,1.45 4.65,1.75 7.15,5.05 2.05,2.7 3.1,6.3 l 1.3,0.35 q 1.85,0.55 3.15,1.2 l 2.05,1.25 q 0.8,0.6 1.8,1.9 1.05,1.35 1.45,2.7 l 0.4,2.5 -0.1,2.35 -0.55,2.65 q 0.6,1.9 0.7,3.55 l -0.1,1.4 -0.8,1 -1.55,-0.05 -0.9,-0.6 -2.4,3 q -0.95,1.1 -2.9,2.45 l -0.15,0.1 v 0.05 q 0.35,4.25 -0.45,5 l -1.7,0.1 q -1.45,-0.4 -2.95,-1.4 -3.4,1.95 -6.85,2.8 0.55,0.9 0.45,1.45 L 44.4,61 42.65,61.4 Q 41.3,61.45 40,60.85 l -3.25,-1.8 -2.4,-0.5 q -3.05,-0.95 -4.9,-3.3 -1.8,-2.3 -2,-4.6 -0.2,-2.35 0.3,-3.75 l -0.8,-1.7 Q 26.2,43.15 26.6,39.5 27,35.85 26.7,34.45 26.5,33.35 25.8,32.7 25.2,32.2 24.15,32.25 l -1.8,0.3 q -1.85,0.3 -3.35,0 -3.4,-0.75 -5.3,-4.1 -1.25,-2.05 -1.1,-4.1 0.05,-1 0.9,-3.6 0.75,-2.25 0.55,-3.6 Q 13.9,15.9 12.9,14.45 L 12.4,13.7 10.5,11.65 Q 7.6,9.05 5.15,8.05 4,7.6 4.25,6.85 5.4,5.05 8.9,4 12.4,2.85 14.9,2.85 L 19.1,3.1 M 8.6,40.9 q 4.45,8.6 10.1,7 -7.2,2.65 -4.45,13 Q 11.4,51.95 3.65,52.75 10.7,49.6 8.6,40.9"
         fill="#ffffff"
         fill-rule="evenodd"
         stroke="none"
         id="path2" />
      <path
         d="m 19.1,3.1 q 1.65,0.2 3.9,1.6 2.35,1.45 3.75,3.65 l 1.05,1.85 1.35,1.7 q 1.2,1.05 3.25,1.4 l 3.75,0.25 q 4.9,0.1 8.65,1.45 4.65,1.75 7.15,5.05 2.05,2.7 3.1,6.3 l 1.3,0.35 q 1.85,0.55 3.15,1.2 l 2.05,1.25 q 0.8,0.6 1.8,1.9 1.05,1.35 1.45,2.7 l 0.4,2.5 -0.1,2.35 -0.55,2.65 q 0.6,1.9 0.7,3.55 l -0.1,1.4 -0.8,1 -1.55,-0.05 -0.9,-0.6 -2.4,3 q -0.95,1.1 -2.9,2.45 l -0.15,0.1 v 0.05 q 0.35,4.25 -0.45,5 l -1.7,0.1 q -1.45,-0.4 -2.95,-1.4 -3.4,1.95 -6.85,2.8 0.55,0.9 0.45,1.45 L 44.4,61 42.65,61.4 Q 41.3,61.45 40,60.85 l -3.25,-1.8 -2.4,-0.5 q -3.05,-0.95 -4.9,-3.3 -1.8,-2.3 -2,-4.6 -0.2,-2.35 0.3,-3.75 l -0.8,-1.7 Q 26.2,43.15 26.6,39.5 27,35.85 26.7,34.45 26.5,33.35 25.8,32.7 25.2,32.2 24.15,32.25 l -1.8,0.3 q -1.85,0.3 -3.35,0 -3.4,-0.75 -5.3,-4.1 -1.25,-2.05 -1.1,-4.1 0.05,-1 0.9,-3.6 0.75,-2.25 0.55,-3.6 Q 13.9,15.9 12.9,14.45 L 12.4,13.7 10.5,11.65 Q 7.6,9.05 5.15,8.05 4,7.6 4.25,6.85 5.4,5.05 8.9,4 q 3.5,-1.15 6,-1.15 l 4.2,0.25"
         fill="none"
         stroke="#ffffff"
         stroke-linecap="round"
         stroke-linejoin="round"
         stroke-width="9"
         id="path3" />
      <path
         d="M 70.45,10.65 Q 66,8.8 65.25,6.85 L 64.8,1.1 Q 64.4,4 63.45,5.4 61.4,8.65 56.4,8.1 l 3.5,1.95 q 0.9,1 1.4,2.8 l 0.1,0.7 0.2,0.85 0.15,2.8 v 1.85 q 0.75,-2.35 1.5,-3.95 l 0.3,-0.6 q 0.7,-1.3 1.3,-1.85 0.85,-0.85 3.45,-1.6 l 2.15,-0.4 M 8.6,40.9 q 2.1,8.7 -4.95,11.85 7.75,-0.8 10.6,8.15 -2.75,-10.35 4.45,-13 -5.65,1.6 -10.1,-7 z"
         fill="none"
         stroke="#ffffff"
         stroke-linecap="round"
         stroke-linejoin="round"
         stroke-width="5.2"
         id="path4" />
      <path
         d="m 60.2,38.25 1.05,0.9 Q 62.55,40 63,40.8 l 0.15,0.5 0.65,0.5 0.35,0.6 0.35,0.65 0.05,0.1 q 0.45,0.55 0.4,1.35 -0.05,0.85 -0.65,1.35 -0.6,0.6 -1.5,0.4 H 62.75 L 61.7,46.2 Q 60.75,45.95 60.2,45.15 59.7,44.5 59.5,43.35 L 58.95,43 58.4,42.6 57,42.85 q -0.85,0 -2.35,-0.7 -0.5,-0.2 -0.7,-0.4 Q 52.9,41 52.8,39.8 q 0,-0.55 0.3,-1 l 0.15,-0.1 -0.05,-0.1 0.1,-0.65 Q 53.7,37 54.65,36.6 l 1.65,-0.2 0.5,0.15 h 0.1 l 0.75,0.25 q 0.5,0.2 1.45,0.75 l 0.65,0.4 0.45,0.3 m -23.4,10.9 0.5,-0.55 q 0.45,-0.4 0.95,-0.55 l 0.55,-0.2 0.4,0.1 0.4,0.1 q 0.8,0.25 1.2,0.9 l 0.3,0.7 0.3,1.15 0.2,0.2 0.3,0.45 q 0.45,0.8 0.55,1.95 v 0.1 0.55 l 0.1,1 0.8,0.75 0.7,1 0.3,0.6 0.1,0.5 Q 44.6,59 44,59.85 q -0.55,0.8 -1.5,1.05 l -1.35,-0.05 -0.95,-0.45 -0.45,-0.35 -0.2,-0.15 -0.2,-0.15 -1.1,-0.95 -0.7,-0.75 -0.15,-0.2 -0.05,-0.05 -0.9,-0.9 -0.4,-0.4 -0.4,-0.55 -0.25,-0.6 v -0.1 L 35.2,54.8 35.15,54.65 q -0.3,-1.2 -0.25,-1.85 0.15,-1.2 0.8,-1.85 l 0.15,-0.35 0.2,-0.35 0.45,-0.6 0.15,-0.25 0.15,-0.25 m 7.6,-3.5 -0.9,-0.7 -0.75,-0.8 q -0.9,-1.3 -0.1,-3 0.65,-1.4 2.2,-2.2 0.55,-0.3 0.65,-0.3 L 46.9,38.5 H 47 q 0.9,-0.05 1.65,0.4 0.8,0.5 1.15,1.3 0.35,0.8 0.15,1.7 l -0.1,0.35 0.9,1 0.3,0.5 q 0.85,0.7 1.15,1.65 0.25,0.75 0.15,1.4 0.95,0.05 1.7,0.85 l 0.4,0.6 0.9,1.7 0.25,0.65 q 0.4,1.5 -0.55,2.55 v 0.05 0.15 q 0.1,1.2 -0.95,1.85 L 52,55.1 51.7,54.8 51,54.25 l -0.35,-0.5 -1.05,-2.1 -0.15,-0.5 q -0.25,-0.85 -0.2,-1.5 l 0.1,-0.4 L 48.9,49.2 47.85,48.85 47,48.25 Q 45.8,47.7 45.15,46.6 l -0.4,-0.8 -0.35,-0.15"
         fill="#ffffff"
         fill-rule="evenodd"
         stroke="none"
         id="path5" />
      <path
         d="m 70.5,10.65 -2.15,0.45 q -2.6,0.65 -3.5,1.55 -0.6,0.55 -1.3,1.85 L 63.3,15.15 61.8,19 V 17.2 L 61.65,14.4 61.45,13.55 61.3,12.8 Q 60.85,11 59.95,10.05 l -3.5,-1.9 q 5,0.5 7.05,-2.7 0.95,-1.45 1.35,-4.3 l 0.4,5.65 q 0.8,2.05 5.25,3.85 M 35.2,54.8 35.1,54.85 q -0.6,0.5 -1.4,0.25 -0.75,-0.2 -1.25,-1 -1.15,-1.65 -1.2,-5.15 l -0.2,-0.35 q -0.65,-1.2 -1.1,-3.25 -0.85,-3.6 -1.05,-6.4 l -0.05,-3 -0.3,-3 q -0.4,-1.6 -1.3,-2.75 l -0.8,-0.85 H 26.4 l -2.7,-0.7 -0.55,0.1 -3.4,-0.2 q -1.35,-0.35 -2.05,-1 -1.25,-1.2 -1,-3.1 L 16.85,23.8 16.2,22.4 q -0.9,-2.3 -1,-3.55 -0.15,-2.25 1.2,-4.15 l 0.05,-0.4 0.15,-0.6 q -0.7,-1.75 -1.7,-2.95 l -1.05,-0.2 Q 12.25,10 12.05,8.8 L 10.85,8.35 Q 9.9,7.9 9.6,7.55 9.15,7 9.3,6.2 9.55,5.5 10.3,5.25 l 1.6,0.1 0.95,0.25 1.2,0.2 q 1.2,-0.9 3.45,-0.5 3.9,0.75 8.75,4.95 1.8,1.55 2.6,2.65 1.2,1.7 1.8,4.35 2.7,-0.95 6.15,-0.85 3.45,0.15 6.45,1.15 4.55,1.45 6.55,4.35 l 1.35,2.6 1.15,2.7 0.8,1.8 0.1,0.5 0.15,0.05 0.6,0.15 h 1.45 l 0.45,0.1 1.1,0.15 0.25,-0.05 1.15,0.1 q 1.15,0.4 2,1.25 l 1.35,1.95 q 1.15,2.1 0.85,3.55 -0.15,0.75 -0.7,1.15 l -1.3,0.35 H 60.2 l -0.45,-0.3 -0.65,-0.4 -0.15,-0.2 -0.65,-1.1 -0.8,-0.6 -0.45,-0.4 -0.8,-0.35 -2.8,0.15 -2.3,0.4 q -1.75,0.4 -4.1,1.6 l -4.3,2.55 q -2.85,2.75 -4.5,5.65 -0.8,1.4 -1.05,2.55 l -0.4,1.35 -0.15,0.25 -0.15,0.1 -0.45,0.2 v 0.55 l -0.2,0.35 -0.15,0.35 q -0.65,0.65 -0.8,1.85 -0.05,0.65 0.25,1.85 L 35.2,54.8 M 41.6,51 q 0.15,-0.65 0.75,-1 0.25,-0.1 0.45,-0.25 L 43.15,49.4 Q 43.7,48.85 44.5,49 l 0.55,0.15 0.45,-0.2 1.1,-0.1 q 0.55,0.15 0.9,0.6 l 0.5,1.05 0.2,0.6 0.35,1.45 -0.3,1.45 -1.05,0.75 -0.65,0.15 -0.4,0.2 -1.05,0.25 -0.65,0.1 q -0.6,0.1 -1.1,-0.3 -0.55,-0.35 -0.7,-0.95 l -0.2,-0.8 Q 42.35,52.25 41.9,51.45 L 41.6,51 m 12.2,-3.7 -1.1,-0.9 q -0.25,-0.25 -0.35,-0.8 v -0.55 q 0.1,-0.8 0.3,-1.15 0.25,-0.55 0.95,-0.8 l 1.25,-0.2 0.3,-0.05 0.9,0.15 1.2,0.25 0.8,0.25 q 0.9,0.4 0.9,1.5 0,1 -0.85,1.5 l -0.35,0.2 -0.15,0.35 q -0.35,1 -1.5,1.1 L 54.9,47.8 53.8,47.3 M 8.6,40.9 q 4.45,8.6 10.1,7 -7.2,2.65 -4.45,13 Q 11.4,51.95 3.65,52.75 10.7,49.6 8.6,40.9"
         fill="#7293e7"
         fill-rule="evenodd"
         stroke="none"
         id="path6" />
      <path
         d="M 47.45,21.5 Q 46,20.15 43.65,19.35 L 39.7,18.3 37.8,18.1 35.75,18 33.85,17.95 q -2.8,0.15 -4.65,0.8 -1.85,0.6 -2.65,1.1 -0.75,0.5 -1.25,0.2 -0.5,-0.35 0.2,-1.55 0.7,-1.2 2.05,-2.1 -1.1,-0.7 -2,-1.8 l -1.9,-2.85 Q 22.5,10 20.75,8.3 18.95,6.6 15.6,6.6 q -3.4,0 -5.15,0.7 4.7,1.95 6.6,5.25 1.1,1.85 1.4,3.95 0.35,2.2 -0.25,4.2 l -0.75,2.25 q -0.4,1.25 -0.25,2.2 0.1,1.05 0.85,1.85 0.8,0.85 1.85,1.1 l 2.85,-0.2 3.9,0.2 q 1.55,0.5 2.7,1.85 1.05,1.25 1.55,3 0.75,2.55 0.15,6.6 l -0.1,1.15 -0.1,0.9 q -0.3,2.45 0.35,4.05 L 31.9,47 q -0.55,1.55 -0.15,3.1 0.4,1.55 1.15,2.65 0.75,1 1.5,1.3 -0.25,-1.05 -0.15,-1.8 0.25,-1.45 0.9,-1.8 -0.05,-0.7 0.25,-1.6 0.45,-1.75 3.35,-5.3 2.9,-3.5 6.75,-5.95 3.8,-2.45 5.65,-3.1 1.95,-0.65 4,-0.45 2.1,0.2 2.6,1.55 1.3,0.5 3.05,1.75 L 60.85,36.8 60.5,35.1 Q 60.2,34.15 59.3,33 58.4,31.8 56.8,31.15 55.15,30.45 52.55,30.4 h -0.1 L 51.6,28.35 49.9,24.7 Q 48.85,22.85 47.45,21.5 M 19.1,3.1 q 1.65,0.2 3.9,1.6 2.35,1.45 3.75,3.65 l 1.05,1.85 1.35,1.7 q 1.2,1.05 3.25,1.4 l 3.75,0.25 q 4.9,0.1 8.65,1.45 4.65,1.75 7.15,5.05 2.05,2.7 3.1,6.3 l 1.3,0.35 q 1.85,0.55 3.15,1.2 l 2.05,1.25 q 0.8,0.6 1.8,1.9 1.05,1.35 1.45,2.7 l 0.4,2.5 -0.1,2.35 -0.55,2.65 q 0.6,1.9 0.7,3.55 l -0.1,1.4 -0.8,1 -1.55,-0.05 -0.9,-0.6 -2.4,3 q -0.95,1.1 -2.9,2.45 l -0.15,0.1 v 0.05 q 0.35,4.25 -0.45,5 l -1.7,0.1 q -1.45,-0.4 -2.95,-1.4 -3.4,1.95 -6.85,2.8 0.55,0.9 0.45,1.45 L 44.4,61 42.65,61.4 Q 41.3,61.45 40,60.85 l -3.25,-1.8 -2.4,-0.5 q -3.05,-0.95 -4.9,-3.3 -1.8,-2.3 -2,-4.6 -0.2,-2.35 0.3,-3.75 l -0.8,-1.7 Q 26.2,43.15 26.6,39.5 27,35.85 26.7,34.45 26.5,33.35 25.8,32.7 25.2,32.2 24.15,32.25 l -1.8,0.3 q -1.85,0.3 -3.35,0 -3.4,-0.75 -5.3,-4.1 -1.25,-2.05 -1.1,-4.1 0.05,-1 0.9,-3.6 0.75,-2.25 0.55,-3.6 Q 13.9,15.9 12.9,14.45 L 12.4,13.7 10.5,11.65 Q 7.6,9.05 5.15,8.05 4,7.6 4.25,6.85 5.4,5.05 8.9,4 q 3.5,-1.15 6,-1.15 l 4.2,0.25 m 43.8,41.7 q 0.4,0.15 0.5,-0.4 0.2,-0.55 -0.2,-1.3 -0.75,-2.2 -2.7,-4 -1.15,-1.2 -2.65,-1.85 L 56.9,37 56.6,37.05 q -0.85,0.1 -1.5,0.65 l -0.35,0.25 -0.35,0.4 q -0.5,1.2 -0.1,2.05 l 0.05,0.25 0.7,0.4 0.75,0.15 q 3.2,1.05 6.15,2.9 l 0.4,0.35 0.2,0.1 0.2,0.15 h 0.05 l 0.1,0.1 m -13,0.1 q -0.35,-1.65 -1.5,-4.25 l -0.6,-1 -0.05,-0.15 h -0.1 L 47.6,39.4 47.5,39.35 47,39.15 46.9,39.2 h -0.15 l -1,0.3 q -1.15,0.55 -2.25,1.7 -0.4,0.5 -0.45,1.2 l 0.1,0.6 0.05,0.1 0.95,1.25 0.65,0.75 2.45,1.95 2.15,1.15 q 0.65,0.2 0.8,-0.65 L 49.9,44.9 m 3.25,1.6 q 1.05,0.3 1.75,1.05 l 1.85,-2 0.95,-1.25 -1.45,-0.4 -0.5,-0.1 -2.75,2.65 0.15,0.05 m -1.85,2.8 q -0.75,0.65 -1.2,0.6 l -0.35,0.05 h -0.3 l 0.05,0.65 0.1,0.3 0.5,0.85 1.45,1.5 0.85,0.75 0.1,0.05 0.3,0.25 0.4,0.25 1.05,0.6 0.55,0.15 -0.05,-2.65 -0.45,-2.45 q -0.25,-1.3 -0.75,-1.85 -0.5,-0.6 -1.5,-0.85 -0.25,1.3 -0.75,1.8 M 38.35,50.6 37.8,50.55 37,50.8 q -0.45,0.25 -0.9,1.15 -0.5,0.85 -0.15,2.05 0.3,1.2 1.25,2.4 l 1.25,1.35 1.1,0.75 1.35,0.5 0.85,0.25 h 0.6 0.1 l 0.3,-0.05 0.2,-0.2 V 58.45 L 42.65,57.9 41.5,56.15 41.45,56 40.25,52.25 39.7,51.35 q -0.5,-0.6 -1.15,-0.7 l -0.2,-0.05 m 4.7,3.7 v 0.1 q 2.65,-0.7 5.15,-2 L 47.85,51.85 47.6,50.9 47.55,50.2 47.5,50.3 q -2.55,1.5 -5.25,2.1 l 0.8,1.9"
         fill="#000000"
         fill-rule="evenodd"
         stroke="none"
         id="path7" />
    </g>
  </defs>
</svg>
