<?xml version="1.0" encoding="UTF-8" standalone="no"?>
<svg
   ffdec:objectType="frame"
   height="31.870714"
   width="31.030416"
   version="1.1"
   id="svg5"
   sodipodi:docname="STATUS_Confusion_Icon.svg"
   xmlns:inkscape="http://www.inkscape.org/namespaces/inkscape"
   xmlns:sodipodi="http://sodipodi.sourceforge.net/DTD/sodipodi-0.dtd"
   xmlns:xlink="http://www.w3.org/1999/xlink"
   xmlns="http://www.w3.org/2000/svg"
   xmlns:svg="http://www.w3.org/2000/svg"
   xmlns:ffdec="https://www.free-decompiler.com/flash">
  <sodipodi:namedview
     id="namedview5"
     pagecolor="#ffffff"
     bordercolor="#000000"
     borderopacity="0.25"
     inkscape:showpageshadow="2"
     inkscape:pageopacity="0.0"
     inkscape:pagecheckerboard="0"
     inkscape:deskcolor="#d1d1d1" />
  <g
     transform="translate(15.628476,16.592883)"
     id="g1">
    <use
       ffdec:characterId="3141"
       height="68.550003"
       transform="matrix(0.4654,0,0,0.4647,-14.1,-4.95)"
       width="66.75"
       xlink:href="#shape0"
       id="use1" />
  </g>
  <defs
     id="defs5">
    <g
       id="shape0">
      <path
         d="M 14.7,39.95 Q 3.1,41.95 1.3,36.9 -1.55,32.35 7.25,24.55 l 0.8,-0.7 -2.4,-1.95 Q -3.4,14.2 -0.7,9.7 1,4.65 12.7,6.75 q 6.2,1.05 13.4,3.8 l 2.25,0.85 Q 38.75,6.6 47.3,5.15 58.9,3.1 60.75,8.1 v 0.05 q 2.8,4.55 -6,12.35 l -0.05,0.05 -3.8,3.1 2.6,2.1 h 0.05 q 9.1,7.65 6.35,12.2 -1.7,5 -13.4,3 -6.9,-1.2 -14.95,-4.4 L 29.2,35.6 q -7.85,3.15 -14.5,4.35"
         fill="#ffffff"
         fill-rule="evenodd"
         stroke="none"
         id="path1" />
      <path
         d="m 24.7,3.85 q 2.2,0.3 2.4,-1.4 0.25,-1 -0.8,-3.1 l -0.05,-0.05 -2.2,-3.75 2,-2.3 0.1,-0.1 q 1.4,-2.2 0.3,-3.25 -0.7,-1.1 -3.35,-1 H 23.05 L 20,-10.8 16.9,-15.25 16.85,-15.3 Q 15.2,-17.35 14,-17 q -1.45,0 -2.05,2.5 l -0.05,0.2 -0.3,4.45 -4.55,1.2 -0.1,0.05 q -2.2,0.85 -2.2,2.05 -0.4,1.25 1.55,2.5 l 0.15,0.05 4.4,2.1 -0.25,5.25 q -0.25,1.9 1,2.35 0.9,0.75 2.75,-0.75 V 4.9 l 4,-3.4 6.1,2.3 0.25,0.05 m 25.75,-25 q -0.65,-2.3 -2.4,-1.85 l -0.9,0.35 L 42,-17 38.75,-18.15 H 38.6 q -2.8,-0.6 -3.45,0.95 -0.8,1.1 0.45,3.85 v 0.05 l 1.55,3.05 -3.45,5.25 -0.05,0.05 q -1.4,2.45 -0.6,3.55 0.5,1.4 3.3,1.05 l 0.15,-0.05 5.05,-1.55 3.15,4.4 0.1,0.1 q 1.7,1.85 2.9,1.4 1.35,-0.15 1.9,-2.6 v -0.1 l 0.4,-5.55 5.9,-2 h -0.05 q 1.8,-0.5 1.85,-1.8 v -0.05 q 0.25,-1.25 -1.9,-2.5 l -5.35,-2.85 v -7.4 -0.25 M 14.7,39.95 q 6.65,-1.2 14.5,-4.35 l 2.35,0.95 q 8.05,3.2 14.95,4.4 11.7,2 13.4,-3 2.75,-4.55 -6.35,-12.2 H 53.5 l -2.6,-2.1 3.8,-3.1 0.05,-0.05 q 8.8,-7.8 6,-12.35 V 8.1 Q 58.9,3.1 47.3,5.15 38.75,6.6 28.35,11.4 L 26.1,10.55 Q 18.9,7.8 12.7,6.75 1,4.65 -0.7,9.7 -3.4,14.2 5.65,21.9 l 2.4,1.95 -0.8,0.7 q -8.8,7.8 -5.95,12.35 1.8,5.05 13.4,3.05 z"
         fill="none"
         stroke="#ffffff"
         stroke-linecap="round"
         stroke-linejoin="round"
         stroke-width="4"
         id="path2" />
      <path
         d="M 13.35,2.5 13.8,-3.6 9.25,-6.05 q 1.05,-0.1 5.25,-1.75 l 0.5,-5.5 3.6,5.75 5.3,-0.95 -3.2,3.55 3.35,5.7 -6.35,-2.5 -4.35,4.25 m 40.55,-11.2 -6.65,2.05 -0.65,5.8 q -0.55,-1.05 -4,-4.8 l -6,1.75 4.5,-6.15 -3.1,-5.2 5.05,1.95 4.6,-5.9 -0.05,7.75 6.3,2.75"
         fill="#fce8a7"
         fill-rule="evenodd"
         stroke="none"
         id="path3" />
      <path
         d="m 13.95,34.95 q 4.15,-0.75 8.9,-2.35 l -9.7,-5.4 0.05,0.05 -0.8,-0.5 -1.7,1.45 v 0.05 q -5.2,4.55 -4.8,6.4 v 0.05 l 8.05,0.25 m -2.3,-14.8 0.6,0.45 Q 16.65,17.4 22.3,14.4 16.8,12.45 11.95,11.65 L 11.9,11.6 Q 5.1,10.4 3.95,11.75 3.65,13.5 9,18.05 l 2.65,2.1 m 22.2,7.9 H 33.8 l 8.25,-4.4 q -4.45,-2.7 -9.9,-5.2 l -0.05,-0.05 -1.5,-0.7 -2,-0.9 -0.2,0.1 q -6.65,3.2 -11.7,6.65 4.6,2.8 10.3,5.5 l 0.25,0.1 2.05,0.95 4.55,-2.05 m 2.15,4.5 -0.3,0.15 q 6.25,2.3 11.75,3.25 6.8,1.15 8,-0.15 0.3,-1.8 -5.05,-6.25 V 29.5 l -2.95,-2.3 v -0.05 l -0.75,-0.5 q -4.75,3 -10.7,5.9 M 48.25,10.05 Q 42,11.1 34.7,14.1 q 6.15,2.85 11.05,5.95 L 45.7,20 l 0.95,0.6 4.85,-3.85 q 5.15,-4.6 4.85,-6.5 -1.3,-1.4 -8.1,-0.2 M 14.8,39.9 Q 3.2,41.9 1.4,36.85 -1.45,32.3 7.35,24.5 l 0.8,-0.7 -2.4,-1.95 Q -3.3,14.15 -0.6,9.65 1.1,4.6 12.8,6.7 19,7.75 26.2,10.5 l 2.25,0.85 Q 38.85,6.55 47.4,5.1 59,3.05 60.85,8.05 V 8.1 q 2.8,4.55 -6,12.35 l -0.05,0.05 -3.8,3.1 2.6,2.1 h 0.05 q 9.1,7.65 6.35,12.2 -1.7,5 -13.4,3 -6.9,-1.2 -14.95,-4.4 L 29.3,35.55 Q 21.45,38.7 14.8,39.9"
         fill="#000000"
         fill-rule="evenodd"
         stroke="none"
         id="path4" />
      <path
         d="m 24.8,3.8 -0.25,-0.05 -6.1,-2.3 -4,3.4 V 4.9 Q 12.6,6.4 11.7,5.65 10.45,5.2 10.7,3.3 L 10.95,-1.95 6.55,-4.05 6.4,-4.1 q -1.95,-1.25 -1.55,-2.5 0,-1.2 2.2,-2.05 l 0.1,-0.05 4.55,-1.2 0.3,-4.45 0.05,-0.2 q 0.6,-2.5 2.05,-2.5 1.2,-0.35 2.85,1.7 l 0.05,0.05 3.1,4.45 3.05,-0.3 h 0.05 q 2.65,-0.1 3.35,1 1.1,1.05 -0.3,3.25 l -0.1,0.1 -2,2.3 2.2,3.75 0.05,0.05 q 1.05,2.1 0.8,3.1 -0.2,1.7 -2.4,1.4 m -11.45,-1.3 4.35,-4.25 6.35,2.5 -3.35,-5.7 3.2,-3.55 -5.3,0.95 -3.6,-5.75 -0.5,5.5 q -4.2,1.65 -5.25,1.75 l 4.55,2.45 -0.45,6.1 m 37.2,-23.7 v 0.25 7.4 l 5.35,2.85 q 2.15,1.25 1.9,2.5 v 0.05 q -0.05,1.3 -1.85,1.8 H 56 l -5.9,2 -0.4,5.55 V 1.3 Q 49.15,3.75 47.8,3.9 46.6,4.35 44.9,2.5 L 44.8,2.4 41.65,-2 36.6,-0.45 36.45,-0.4 q -2.8,0.35 -3.3,-1.05 -0.8,-1.1 0.6,-3.55 l 0.05,-0.05 3.45,-5.25 -1.55,-3.05 v -0.05 q -1.25,-2.75 -0.45,-3.85 0.65,-1.55 3.45,-0.95 h 0.15 l 3.25,1.15 5.15,-5.65 0.9,-0.35 q 1.75,-0.45 2.4,1.85 m 3.35,12.5 -6.3,-2.75 0.05,-7.75 -4.6,5.9 -5.05,-1.95 3.1,5.2 -4.5,6.15 6,-1.75 q 3.45,3.75 4,4.8 l 0.65,-5.8 6.65,-2.05"
         fill="#271f13"
         fill-rule="evenodd"
         stroke="none"
         id="path5" />
    </g>
  </defs>
</svg>
