<?xml version="1.0" encoding="UTF-8" standalone="no"?>
<svg
   ffdec:objectType="frame"
   height="29.147335"
   width="29.865232"
   version="1.1"
   id="svg5"
   sodipodi:docname="STATUS_Immobile_Icon.svg"
   xmlns:inkscape="http://www.inkscape.org/namespaces/inkscape"
   xmlns:sodipodi="http://sodipodi.sourceforge.net/DTD/sodipodi-0.dtd"
   xmlns:xlink="http://www.w3.org/1999/xlink"
   xmlns="http://www.w3.org/2000/svg"
   xmlns:svg="http://www.w3.org/2000/svg"
   xmlns:ffdec="https://www.free-decompiler.com/flash">
  <sodipodi:namedview
     id="namedview5"
     pagecolor="#ffffff"
     bordercolor="#000000"
     borderopacity="0.25"
     inkscape:showpageshadow="2"
     inkscape:pageopacity="0.0"
     inkscape:pagecheckerboard="0"
     inkscape:deskcolor="#d1d1d1" />
  <g
     transform="translate(14.75458,14.746025)"
     id="g1">
    <use
       ffdec:characterId="3109"
       height="58.049999"
       transform="matrix(0.5029,0,0,0.5029,-6.9,-11.1)"
       width="59.349998"
       xlink:href="#shape0"
       id="use1" />
  </g>
  <defs
     id="defs5">
    <g
       id="shape0">
      <path
         d="m 14.5,4.35 q 1.45,0.4 2.55,1.2 1.35,0.55 2.35,1.75 l 0.15,0.3 0.05,0.1 0.05,0.05 0.25,0.25 0.2,0.2 0.05,0.2 v 0.05 l 0.3,0.3 -0.15,1.9 Q 20.7,13 20.1,15.4 l -0.1,0.5 -0.05,0.5 -0.05,1.25 q 4.4,0.4 8.05,2.9 4.15,2.8 3.95,7.7 v 0.9 l -0.05,0.65 q -0.25,4.15 -1.8,7.85 l -0.05,0.3 -0.35,0.5 -0.1,0.15 -0.2,0.05 -0.4,0.1 -1.5,-0.1 -2.15,-0.1 -1.15,-0.2 -0.1,0.05 -27,-2.75 Q -3.75,35.55 -3.75,35 V 34.85 34.8 l -0.05,-0.75 0.1,-0.6 0.1,-0.3 L -3.45,30.8 -2.6,21.75 -1.55,9.9 -1.2,7.4 -0.85,5.65 -0.8,5.6 -0.75,5.45 0.95,4.7 0.9,4.75 Q 4.5,3.3 8.35,3.4 l 3.05,0.35 3.1,0.6"
         fill="#ffffff"
         fill-rule="evenodd"
         stroke="none"
         id="path1" />
      <path
         d="m 25.65,35.55 -24,-1.65 q -1,-0.05 -1.7,-0.8 -1.6,-1.75 -0.35,-4.25 L -0.05,26.9 Q 0,25.85 0.3,25.25 0.45,19.75 1,14.25 1.05,12.7 1.5,11.25 0.95,10.2 1.95,9.35 L 2.4,8.4 2.55,8.35 2.8,8.2 3.3,8.05 h 0.2 0.35 l 0.35,0.1 0.15,0.1 q 4.25,-1.6 8.7,-0.35 1.6,0.5 2.85,1.75 l 0.8,0.55 0.45,0.7 -0.05,0.15 0.15,0.3 q 0.75,1.3 -0.3,2.45 l -0.1,0.05 Q 16.6,17.5 16.7,21.3 h 0.75 l 5.85,0.55 q 3.1,0.25 4.2,2.85 l 0.7,2.45 Q 29.3,32 26.15,35.4 l -0.5,0.15"
         fill="#fefd92"
         fill-rule="evenodd"
         stroke="none"
         id="path2" />
      <path
         d="m 27.95,27.6 q -0.1,-1.55 -1.15,-2.7 -2.1,-2.75 -5.65,-3.35 -1.2,-0.15 -2.35,0 l -1.3,0.25 -1.3,0.35 -0.25,-0.1 -0.05,-0.35 0.05,-0.5 -0.05,-2.05 0.2,-3.35 0.1,-1.2 0.1,-0.8 0.1,-0.7 0.2,-1.8 L 16.7,11 16.65,10.8 16.7,10.5 16.65,10.3 16.15,9.85 15.25,9.2 Q 10.6,7.2 5.55,8 3.7,8.35 2.05,9.05 l -0.6,7.6 -1.1,10.45 -0.55,5.2 25.05,2.55 1.7,0.05 h 0.15 v -0.05 l 0.15,-0.2 0.1,-0.15 v -0.1 q 1.1,-3.3 1,-6.8 m -9.7,-18.2 0.1,0.2 v 0.3 l 0.05,0.3 -0.1,0.1 h 0.05 l -0.7,9.65 q 2.65,-0.55 5.3,0.35 5.3,1.35 6.65,6.7 0.3,0.95 0.25,1.9 -0.25,3.6 -1.6,6.9 L 28.1,36 27.85,36.5 27.7,36.65 Q 27.65,36.6 27.55,36.7 h -0.4 l -1.2,-0.05 -2.1,-0.1 -0.9,-0.1 L 22.9,36.4 -1.2,34 Q -1.85,33.85 -1.95,33.35 V 33.2 H -2 l 0.05,-0.7 0.05,-0.45 0.05,-0.2 L -1.7,29.7 -0.95,21.85 0,11.5 0.3,9.35 H 0.25 L 0.6,7.7 0.65,7.55 2.15,6.95 2.1,7 Q 5.35,5.75 8.85,5.85 l 2.65,0.25 2.8,0.6 q 2.55,0.7 3.95,2.7"
         fill="#a77503"
         fill-rule="evenodd"
         stroke="none"
         id="path3" />
      <path
         d="M 5.5,-0.55 4.8,-0.6 2.65,0.3 q 1.1,-0.5 2.4,-0.8 l 0.05,0.1 0.4,-0.15 m 12.05,-6.7 2.35,0.3 0.4,0.1 3.25,0.55 q 4.15,1 7.55,3.2 6.8,3.8 10.1,11.35 l 0.15,0.4 0.75,1.65 0.35,0.55 0.15,0.85 0.45,1.1 Q 45,21.75 41.65,30.3 38,39.6 29.95,45.6 L 26.7,47.55 Q 25.75,48.45 24.35,49 20.3,50.65 16,50.5 10.75,51.2 5.35,49.55 1.35,48.2 -1.9,46.1 L -3.05,45.35 -8,41.25 q -1.65,-1.2 -5.15,-7.8 -3.6,-6.65 -1.95,-15.8 1.65,-9.2 7.1,-14.95 l 0.05,-0.15 q 3.3,-4.05 7.65,-6.2 2.55,-1.5 5.55,-2.2 2.2,-0.9 4.55,-1.2 h 0.3 l 7.45,-0.2 M 31.1,8.4 30.2,7.9 30.15,7.8 18.8,16.5 6.75,25.9 Q 6.1,28.1 3.6,29.35 0.25,30.9 -2.65,33.05 l -0.95,0.7 -0.35,0.3 0.15,0.1 q 0.35,-0.4 1.1,-0.25 l 0.55,0.2 Q -1.8,33.55 -0.9,33 l 8.25,-6 q 7.6,-5.6 14.9,-11.75 4.3,-3.65 8.95,-6.85 h -0.1 m 2.6,-2 H 33.65 L 33.7,6.6 33.85,6.55 33.7,6.4 M 27.25,5.25 Q 17.9,0.2 7.45,2.8 5.1,3.4 2.85,4.45 L 0.2,6.05 q -4.35,3.5 -6.4,9.3 -2.75,7.55 -0.1,14.35 l 0.85,0.8 0.75,-0.4 0.25,-0.35 L 10.9,18.1 25.95,6.2 27.25,5.25 m 10.95,16.2 -0.35,3.35 1,-3.35 H 38.45 38.2 M 33.35,12.2 Q 32.6,12.5 32.1,13 L 17.35,25 2.1,36.5 0.4,37.85 q 6.35,5.8 15.45,4.4 L 17.3,41.7 q 8.4,-2.1 13.2,-8.65 0.2,-0.75 0.6,-1 l 2,-3.6 Q 36.75,20.2 33.35,12.2 m 3,17.45 -1.95,3.7 -1.45,2.2 -0.6,1.55 0.5,0.1 0.6,0.35 q 2.3,-2.9 3.9,-6.4 l -0.75,-0.9 -0.25,-0.6 M -7.45,7.2 q -3.3,4.7 -4.2,10.6 l 0.3,-0.95 Q -10,11.7 -7.05,7.65 L -7.45,7.2 M -9.8,31 q -1.35,-2.55 -1.9,-5.15 0.4,3.2 1.6,6.2 h 0.1 0.5 L -9.3,31.95 -9.8,31"
         fill="#2b0000"
         fill-rule="evenodd"
         stroke="none"
         id="path4" />
      <path
         d="M 30.55,4.25 30.3,4.05 30,3.85 Q 27.45,1.9 24.65,1.1 17.1,-1.6 9,-0.2 0.05,1.4 -5.3,8.6 q -5.05,6.65 -4.35,15 0.55,6.1 4.1,11.2 L -4.7,34.1 10.35,22.5 25.2,10.45 Q 28.45,7.7 32,5.7 L 30.55,4.25 M 33.8,8.1 q -6,5.3 -12.5,10.25 -7.65,5.85 -14.95,11.95 -4.8,3.85 -9.9,6.95 5.45,6.1 13.65,7.35 6.9,1.05 13.2,-2 Q 32.25,38.15 35.7,28.65 38.2,21.8 36.45,14.5 35.85,11.6 34.5,9.05 L 33.8,8.1 m 1.8,-3.65 q 5.9,7.9 5.15,17.95 -0.85,9.85 -7.6,17 -6.8,7.15 -16.5,8.5 -9.75,1.25 -17.8,-4.3 -2.4,-1.75 -4.4,-3.9 -7.05,-7.25 -7.55,-17.1 -0.35,-9.95 6,-17.55 Q -4.95,2.4 -2.15,0.5 6,-4.95 15.9,-4.45 25.9,-4 33.35,2.4 l 2.25,2.05"
         fill="#c10000"
         fill-rule="evenodd"
         stroke="none"
         id="path5" />
    </g>
  </defs>
</svg>
