<?xml version="1.0" encoding="UTF-8" standalone="no"?>
<svg
   ffdec:objectType="frame"
   height="33.502708"
   width="33.502708"
   version="1.1"
   id="svg6"
   sodipodi:docname="STATUS_Heat_Wave_Icon.svg"
   xmlns:inkscape="http://www.inkscape.org/namespaces/inkscape"
   xmlns:sodipodi="http://sodipodi.sourceforge.net/DTD/sodipodi-0.dtd"
   xmlns:xlink="http://www.w3.org/1999/xlink"
   xmlns="http://www.w3.org/2000/svg"
   xmlns:svg="http://www.w3.org/2000/svg"
   xmlns:ffdec="https://www.free-decompiler.com/flash">
  <sodipodi:namedview
     id="namedview6"
     pagecolor="#ffffff"
     bordercolor="#000000"
     borderopacity="0.25"
     inkscape:showpageshadow="2"
     inkscape:pageopacity="0.0"
     inkscape:pagecheckerboard="0"
     inkscape:deskcolor="#d1d1d1" />
  <g
     transform="translate(16.951354,17.201354)"
     id="g1">
    <use
       ffdec:characterId="3340"
       height="33.599998"
       transform="translate(-7.45,-5.3)"
       width="33.599998"
       xlink:href="#sprite0"
       id="use1" />
  </g>
  <defs
     id="defs6">
    <g
       id="sprite0">
      <use
         ffdec:characterId="3339"
         height="33.599998"
         width="33.599998"
         xlink:href="#shape0"
         id="use2" />
    </g>
    <g
       id="shape0">
      <path
         d="m 6.15,-8.25 1.4,-1.1 q 0.4,-0.2 0.75,0 Q 8.5,-9.2 7.65,-8.5 6.1,-7.05 7.3,-6.05 l 0.4,0.3 q 0.8,0.55 1.2,1.3 0.35,0.85 0.05,1.6 L 8.75,-2.4 8.2,-1.8 7.25,-1.6 q -0.6,-0.05 -0.7,-0.35 -0.1,-0.3 0.5,-0.75 L 7.7,-3.5 7.4,-4.15 6.75,-4.7 6.35,-4.95 Q 5.1,-5.9 5.7,-7.45 l 0.45,-0.8 m -9,4.65 Q -2.9,-4.55 -2.6,-5.35 l 0.5,-0.5 q 0.25,-0.05 0.15,1.05 -0.1,2.1 1.5,2 l 0.5,-0.1 1.75,0.05 Q 2.65,-2.5 3,-1.75 L 3.15,-1.3 3.2,-0.45 2.65,0.3 Q 2.2,0.75 1.95,0.6 1.6,0.45 1.75,-0.3 l -0.1,-1 Q 1.4,-1.55 0.95,-1.6 l -1.3,0.2 q -1.55,0.25 -2.2,-1.3 l -0.3,-0.9 m 18.65,-1.65 1.8,0.2 0.55,0.55 -1.15,0.1 q -2.1,-0.05 -1.95,1.5 l 0.1,0.5 q 0.15,0.95 -0.1,1.8 Q 14.7,0.25 14,0.55 l -0.5,0.2 H 12.7 Q 12.2,0.65 11.9,0.25 11.5,-0.25 11.65,-0.5 L 12.5,-0.65 13.55,-0.8 13.8,-1.45 13.75,-2.3 13.6,-2.75 Q 13.4,-4.35 14.95,-5 l 0.85,-0.25 m 4.55,9.05 q 0.75,0.6 1.1,1.4 0.2,0.4 0,0.75 L 20.6,5.3 Q 19.15,3.75 18.15,4.95 l -0.3,0.4 -1.3,1.2 L 14.95,6.6 14.5,6.4 13.9,5.85 q -0.25,-0.4 -0.2,-0.95 0.05,-0.6 0.35,-0.7 0.3,-0.1 0.75,0.5 0.5,0.6 0.8,0.65 L 16.25,5.05 16.8,4.4 17.05,4 Q 18,2.75 19.55,3.35 l 0.8,0.45 m -3,9.5 q 0.1,1 -0.25,1.75 l -0.55,0.55 q -0.25,0.05 -0.15,-1.05 0.1,-2.1 -1.45,-1.95 l -0.45,0.05 -1.8,-0.1 Q 11.85,12.2 11.55,11.5 L 11.35,11 V 10.2 Q 11.4,9.75 11.85,9.4 12.3,9.05 12.6,9.15 12.85,9.3 12.75,10 12.7,10.85 12.9,11.05 l 0.65,0.25 0.85,-0.05 0.45,-0.15 q 1.55,-0.15 2.25,1.35 l 0.25,0.85 M -5.85,6.1 q -0.75,-0.6 -1.1,-1.4 -0.2,-0.4 0,-0.75 0.15,-0.2 0.85,0.65 1.45,1.55 2.45,0.35 l 0.3,-0.4 q 0.55,-0.8 1.3,-1.2 L -0.4,2.9 0,3.5 0.6,4.05 0.8,5 0.45,5.7 -0.3,5.2 q -0.5,-0.6 -0.8,-0.65 -0.35,0 -0.65,0.3 L -2.3,5.5 -2.55,5.9 Q -3.5,7.15 -5.05,6.55 L -5.85,6.1 M -1.1,14.95 -2.85,14.7 -3.4,14.15 -2.35,14 q 2.1,0.1 2,-1.5 L -0.4,12.05 q -0.2,-1 0.05,-1.75 Q 0,9.45 0.75,9.1 L 1.2,8.95 2.05,8.9 2.8,9.45 q 0.45,0.45 0.3,0.7 -0.2,0.3 -0.9,0.2 l -1,0.1 -0.3,0.7 0.2,1.3 q 0.2,1.5 -1.3,2.2 l -0.9,0.3 m 9.55,3 q -0.6,0.75 -1.4,1.1 -0.4,0.2 -0.75,0 Q 6.1,18.9 6.95,18.2 8.5,16.75 7.3,15.75 L 6.9,15.45 5.7,14.15 Q 5.35,13.3 5.65,12.55 L 5.85,12.1 6.4,11.5 7.35,11.3 q 0.6,0.05 0.7,0.35 0.1,0.3 -0.5,0.75 -0.6,0.5 -0.65,0.8 l 0.3,0.65 0.65,0.55 0.4,0.25 q 1.25,0.95 0.65,2.5 z"
         fill="none"
         stroke="#ffffff"
         stroke-linecap="round"
         stroke-linejoin="round"
         stroke-width="5"
         id="path2" />
      <path
         d="m 6.15,-8.25 1.4,-1.1 q 0.4,-0.2 0.75,0 Q 8.5,-9.2 7.65,-8.5 6.1,-7.05 7.3,-6.05 l 0.4,0.3 q 0.8,0.55 1.2,1.3 0.35,0.85 0.05,1.6 L 8.75,-2.4 8.2,-1.8 7.25,-1.6 q -0.6,-0.05 -0.7,-0.35 -0.1,-0.3 0.5,-0.75 L 7.7,-3.5 7.4,-4.15 6.75,-4.7 6.35,-4.95 Q 5.1,-5.9 5.7,-7.45 l 0.45,-0.8 m -9,4.65 Q -2.9,-4.55 -2.6,-5.35 l 0.5,-0.5 q 0.25,-0.05 0.15,1.05 -0.1,2.1 1.5,2 l 0.5,-0.1 1.75,0.05 Q 2.65,-2.5 3,-1.75 L 3.15,-1.3 3.2,-0.45 2.65,0.3 Q 2.2,0.75 1.95,0.6 1.6,0.45 1.75,-0.3 l -0.1,-1 Q 1.4,-1.55 0.95,-1.6 l -1.3,0.2 q -1.55,0.25 -2.2,-1.3 l -0.3,-0.9 m 18.65,-1.65 1.8,0.2 0.55,0.55 -1.15,0.1 q -2.1,-0.05 -1.95,1.5 l 0.1,0.5 q 0.15,0.95 -0.1,1.8 Q 14.7,0.25 14,0.55 l -0.5,0.2 H 12.7 Q 12.2,0.65 11.9,0.25 11.5,-0.25 11.65,-0.5 L 12.5,-0.65 13.55,-0.8 13.8,-1.45 13.75,-2.3 13.6,-2.75 Q 13.4,-4.35 14.95,-5 l 0.85,-0.25 m 4.55,9.05 q 0.75,0.6 1.1,1.4 0.2,0.4 0,0.75 L 20.6,5.3 Q 19.15,3.75 18.15,4.95 l -0.3,0.4 -1.3,1.2 L 14.95,6.6 14.5,6.4 13.9,5.85 q -0.25,-0.4 -0.2,-0.95 0.05,-0.6 0.35,-0.7 0.3,-0.1 0.75,0.5 0.5,0.6 0.8,0.65 L 16.25,5.05 16.8,4.4 17.05,4 Q 18,2.75 19.55,3.35 l 0.8,0.45 m -3,9.5 q 0.1,1 -0.25,1.75 l -0.55,0.55 q -0.25,0.05 -0.15,-1.05 0.1,-2.1 -1.45,-1.95 l -0.45,0.05 -1.8,-0.1 Q 11.85,12.2 11.55,11.5 L 11.35,11 V 10.2 Q 11.4,9.75 11.85,9.4 12.3,9.05 12.6,9.15 12.85,9.3 12.75,10 12.7,10.85 12.9,11.05 l 0.65,0.25 0.85,-0.05 0.45,-0.15 q 1.55,-0.15 2.25,1.35 l 0.25,0.85 M -5.85,6.1 q -0.75,-0.6 -1.1,-1.4 -0.2,-0.4 0,-0.75 0.15,-0.2 0.85,0.65 1.45,1.55 2.45,0.35 l 0.3,-0.4 q 0.55,-0.8 1.3,-1.2 L -0.45,3.3 0,3.5 0.6,4.05 0.8,5 0.45,5.7 -0.3,5.2 q -0.5,-0.6 -0.8,-0.65 -0.35,0 -0.65,0.3 L -2.3,5.5 -2.55,5.9 Q -3.5,7.15 -5.05,6.55 L -5.85,6.1 M -1.1,14.95 -2.85,14.7 -3.4,14.15 -2.35,14 q 2.1,0.1 2,-1.5 L -0.4,12.05 q -0.2,-1 0.05,-1.75 Q 0,9.45 0.75,9.1 L 1.2,8.95 2.05,8.9 2.8,9.45 q 0.45,0.45 0.3,0.7 -0.2,0.3 -0.9,0.2 l -1,0.1 -0.3,0.7 0.2,1.3 q 0.2,1.5 -1.3,2.2 l -0.9,0.3 m 9.55,3 q -0.6,0.75 -1.4,1.1 -0.4,0.2 -0.75,0 Q 6.1,18.9 6.95,18.2 8.5,16.75 7.3,15.75 L 6.9,15.45 5.7,14.15 Q 5.35,13.3 5.65,12.55 L 5.85,12.1 6.4,11.5 7.35,11.3 q 0.6,0.05 0.7,0.35 0.1,0.3 -0.5,0.75 -0.6,0.5 -0.65,0.8 l 0.3,0.65 0.65,0.55 0.4,0.25 q 1.25,0.95 0.65,2.5 z"
         fill="none"
         stroke="#000000"
         stroke-linecap="round"
         stroke-linejoin="round"
         stroke-width="2.5"
         id="path3" />
      <path
         d="m 6.05,-8.25 q 0.6,-0.75 1.4,-1.1 0.4,-0.2 0.75,0 Q 8.4,-9.2 7.55,-8.5 6,-7.05 7.2,-6.05 l 0.4,0.3 q 0.8,0.55 1.2,1.3 0.35,0.85 0.05,1.6 L 8.65,-2.4 8.1,-1.8 7.15,-1.6 q -0.6,-0.05 -0.7,-0.35 -0.1,-0.3 0.5,-0.75 L 7.6,-3.5 7.3,-4.15 6.65,-4.7 6.25,-4.95 Q 5,-5.9 5.6,-7.45 l 0.45,-0.8 m -9,4.65 Q -3,-4.55 -2.7,-5.35 l 0.5,-0.5 q 0.25,-0.05 0.15,1.05 -0.1,2.1 1.5,2 l 0.5,-0.1 1.75,0.05 q 0.85,0.35 1.2,1.1 L 3.05,-1.3 3.1,-0.45 2.55,0.3 Q 2.1,0.75 1.85,0.6 1.5,0.45 1.65,-0.3 l -0.1,-1 Q 1.3,-1.55 0.85,-1.6 l -1.3,0.2 Q -2,-1.15 -2.65,-2.7 l -0.3,-0.9 m 18.65,-1.65 1.8,0.2 0.55,0.55 -1.15,0.1 q -2.1,-0.05 -1.95,1.5 l 0.1,0.5 q 0.15,0.95 -0.1,1.8 -0.35,0.85 -1.05,1.15 l -0.5,0.2 H 12.6 L 11.8,0.25 Q 11.4,-0.25 11.55,-0.5 L 12.4,-0.65 13.45,-0.8 13.7,-1.45 13.65,-2.3 13.5,-2.75 Q 13.3,-4.35 14.85,-5 l 0.85,-0.25 m 4.55,9.05 q 0.75,0.6 1.1,1.4 0.2,0.4 0,0.75 Q 21.2,6.15 20.5,5.3 19.05,3.75 18.05,4.95 l -0.3,0.4 q -0.55,0.8 -1.3,1.2 L 14.85,6.6 14.4,6.4 13.8,5.85 Q 13.55,5.45 13.6,4.9 13.65,4.3 13.95,4.2 14.25,4.1 14.7,4.7 L 15.5,5.35 16.15,5.05 16.7,4.4 16.95,4 q 0.95,-1.25 2.5,-0.65 l 0.8,0.45 m -3,9.5 q 0.1,1 -0.25,1.75 l -0.55,0.55 q -0.25,0.05 -0.15,-1.05 0.1,-2.1 -1.45,-1.95 l -0.45,0.05 -1.8,-0.1 Q 11.75,12.2 11.45,11.5 L 11.25,11 V 10.2 Q 11.3,9.75 11.75,9.4 12.2,9.05 12.5,9.15 12.75,9.3 12.65,10 12.6,10.85 12.8,11.05 l 0.65,0.25 0.85,-0.05 0.45,-0.15 Q 16.3,10.95 17,12.45 l 0.25,0.85 M -5.95,6.1 q -0.75,-0.6 -1.1,-1.4 -0.2,-0.4 0,-0.75 0.15,-0.2 0.85,0.65 1.45,1.55 2.45,0.35 l 0.3,-0.4 1.3,-1.2 L -0.55,3.3 -0.1,3.5 0.5,4.05 0.7,5 0.35,5.7 -0.4,5.2 -1.2,4.55 q -0.35,0 -0.65,0.3 L -2.4,5.5 -2.65,5.9 Q -3.6,7.15 -5.15,6.55 L -5.95,6.1 M -1.2,14.95 -2.95,14.7 -3.5,14.15 -2.45,14 q 2.1,0.1 2,-1.5 L -0.5,12.05 q -0.2,-1 0.05,-1.75 0.35,-0.85 1.1,-1.2 L 1.1,8.95 1.95,8.9 Q 2.35,9 2.7,9.45 3.15,9.9 3,10.15 q -0.2,0.3 -0.9,0.2 l -1,0.1 -0.3,0.7 0.2,1.3 q 0.2,1.5 -1.3,2.2 l -0.9,0.3 m 9.55,3 -1.4,1.1 q -0.4,0.2 -0.75,0 Q 6,18.9 6.85,18.2 8.4,16.75 7.2,15.75 L 6.8,15.45 Q 6,14.9 5.6,14.15 5.25,13.3 5.55,12.55 L 5.75,12.1 6.3,11.5 7.25,11.3 q 0.6,0.05 0.7,0.35 l -0.5,0.75 -0.65,0.8 0.3,0.65 0.65,0.55 0.4,0.25 q 1.25,0.95 0.65,2.5 l -0.45,0.8"
         fill="#ff7e00"
         fill-rule="evenodd"
         stroke="none"
         id="path4" />
      <path
         d="M 12.7,4.75 Q 12.7,7.1 11,8.8 9.3,10.5 7,10.5 4.65,10.5 3,8.8 1.3,7.1 1.3,4.75 1.3,2.35 3,0.65 4.65,-1 7,-1 q 2.3,0 4,1.65 1.7,1.7 1.7,4.1 z"
         fill="none"
         stroke="#000000"
         stroke-linecap="round"
         stroke-linejoin="round"
         stroke-width="2.5"
         id="path5" />
      <path
         d="M 12.7,4.75 Q 12.7,7.1 11,8.8 9.3,10.5 7,10.5 4.65,10.5 3,8.8 1.3,7.1 1.3,4.75 1.3,2.35 3,0.65 4.65,-1 7,-1 q 2.3,0 4,1.65 1.7,1.7 1.7,4.1"
         fill="#ffb600"
         fill-rule="evenodd"
         stroke="none"
         id="path6" />
    </g>
  </defs>
</svg>
