<?xml version="1.0" encoding="UTF-8" standalone="no"?>
<svg
   ffdec:objectType="frame"
   height="29.06863"
   width="30.600048"
   version="1.1"
   id="svg3"
   sodipodi:docname="STATUS_Ostracized_Icon.svg"
   xmlns:inkscape="http://www.inkscape.org/namespaces/inkscape"
   xmlns:sodipodi="http://sodipodi.sourceforge.net/DTD/sodipodi-0.dtd"
   xmlns:xlink="http://www.w3.org/1999/xlink"
   xmlns="http://www.w3.org/2000/svg"
   xmlns:svg="http://www.w3.org/2000/svg"
   xmlns:ffdec="https://www.free-decompiler.com/flash">
  <sodipodi:namedview
     id="namedview3"
     pagecolor="#ffffff"
     bordercolor="#000000"
     borderopacity="0.25"
     inkscape:showpageshadow="2"
     inkscape:pageopacity="0.0"
     inkscape:pagecheckerboard="0"
     inkscape:deskcolor="#d1d1d1" />
  <g
     transform="translate(15.443149,13.71)"
     id="g1">
    <use
       ffdec:characterId="3108"
       height="62.099998"
       transform="matrix(0.47,0,0,0.47,-12.7,-7.6)"
       width="65.099998"
       xlink:href="#shape0"
       id="use1" />
  </g>
  <defs
     id="defs3">
    <g
       id="shape0">
      <path
         d="m 27,-8.1 q 4.3,-3.65 9.7,-4.9 l 4.05,0.1 1.95,0.05 1,0.1 q 10.95,3.6 14.45,14.8 1.4,4.45 1.05,8.9 -0.4,5.4 -3.5,10.95 -3.2,5.65 -8.5,9.7 -1.85,1.45 -3.05,2.1 l -1.7,0.9 q -4.35,2.15 -8,5.5 -3.5,3.15 -5.95,7.25 L 27.85,48.4 Q 26.6,49.5 25.6,47.9 23,43.55 19.1,40.6 L 11.15,35.2 Q 8.4,33.55 8,33.4 L 6.2,31.95 3.55,29.35 Q 0.05,26.1 -2.3,21.95 -5.4,16.4 -5.75,11 -6.15,6.55 -4.7,2.15 -1.25,-9.05 9.7,-12.7 l 1.05,-0.1 h 3.15 0.4 q 7.25,-0.05 12.7,4.7 m -1.05,37 -0.15,-0.1 -0.3,0.5 v 0.05 l 0.45,-0.45 m 3.9,10.4 v 0.1 L 29.9,39.35 29.85,39.3"
         fill="#ffffff"
         fill-rule="evenodd"
         stroke="none"
         id="path1" />
      <path
         d="m 16.55,-6.25 1.5,0.25 q 0.45,-0.65 1.35,-0.7 3.1,0.65 4.35,4.15 L 24.5,-0.9 Q 25.1,0.6 25.15,2.15 25.5,2.85 25,3.9 L 24.35,6 q -1.05,2.65 -3.2,4.4 l -0.05,0.15 -0.35,0.5 -0.05,0.05 q 1,0.9 1.8,2.15 l 2.35,3.15 0.65,0.8 1.3,1.35 0.25,0.35 q 1.1,0.85 0.15,2.8 l -0.85,1.15 -3.2,2.7 0.2,0.45 0.55,1.35 0.15,0.3 v 0.05 q 1.45,1.5 2.6,3.25 1.2,-3.5 3.85,-6.15 2.15,-2.15 4.5,-3.85 l -0.2,-0.25 0.05,-1.35 -1.7,-2.55 q -2.05,-3.05 -1.4,-6.55 0.3,-1.75 1.85,-1.9 l 0.65,0.05 1.1,-2.35 -0.4,-0.8 Q 34,3.1 32.6,1.3 L 32.55,1.15 32.5,1 32.45,0.8 31.15,-0.85 q -0.6,-1 -0.15,-2.1 l 0.55,-0.65 0.4,-0.25 q 0.25,-1.05 1.15,-1.8 1.6,-1.4 3.5,-1.7 4.75,-0.1 8.35,2.05 3.85,1.65 5.8,6 2.25,3.8 2.1,8.6 -0.15,4.1 -1.65,7.45 l -1.25,2.75 q -1.65,3 -4.15,5.3 -2.85,2.55 -6.3,3.95 l -1.3,0.4 -2.05,1.6 -4.15,3.15 -2.4,3.5 -0.15,0.65 0.1,0.75 Q 29.7,39.6 29,40.05 26.85,41.4 25.5,39.2 L 24.6,38.3 23.9,36.75 Q 22.95,36.4 22.5,35.3 21.7,34.65 20.75,34.15 L 18.25,32.6 Q 14.55,30.1 10.75,27.9 5.2,24.7 2.95,18.3 L 2.4,16.35 Q 1.6,14.6 1.1,12.65 -0.1,8.1 1.85,4 2.6,2.4 3.85,1.7 L 4.45,0.8 Q 5.9,-1.6 8,-3.35 q 1.15,-1.45 3.15,-2.1 1.05,-0.6 2.25,-1 l 3.15,0.2"
         fill="#9a3f62"
         fill-rule="evenodd"
         stroke="none"
         id="path2" />
      <path
         d="m 7.1,-1.15 q -3.7,4 -4.5,9.55 -0.75,4.05 1.35,7.95 4,8.35 12.1,12.6 l 1.9,1.25 q 1.5,0.8 2.85,1.9 l 0.3,0.2 0.8,0.55 0.5,0.5 0.05,0.05 0.15,0.1 1.6,1.8 0.15,0.2 0.05,0.05 1.6,1.9 0.95,1.45 0.05,0.05 0.55,-0.65 1.1,-1.6 0.75,-0.95 1.2,-1.4 q 2.85,-2.8 6.1,-4.9 l 2.25,-1.3 q 2.55,-1.4 4.4,-3.6 Q 47,21.1 49.35,16.3 51.4,12.4 50.7,8.35 49.85,2.8 46.2,-1.2 40.85,-7 33.55,-3.2 l -1.6,1.2 -0.1,0.1 1.35,2.35 0.2,0.3 0.25,0.35 1.9,2.65 0.35,0.55 0.45,0.8 0.55,1.1 -1.8,1.9 -3.25,3.05 q -0.25,0.2 -0.05,0.55 2.55,3.8 4.6,8 l 0.35,0.6 0.05,0.25 0.05,0.2 -2.2,2.45 -4.35,4.45 -0.15,0.15 -0.7,0.7 -1.25,1.25 -0.75,0.8 v 0.05 q 0.3,3.2 -0.45,6.35 V 37 l -0.65,-1.95 -0.4,-1.25 q -1.1,-3.05 -2.8,-5.7 L 21.6,25.95 V 25.8 l 1.75,-1.8 1.55,-1.75 0.5,-0.55 0.45,-0.55 0.4,-0.6 q -3.5,-3.6 -6.45,-7.5 L 19.6,12.8 18.8,11.7 18.65,11.35 18.4,11 18.1,10.3 19.8,8.7 23.25,5.25 24.15,4.1 Q 23.55,2.2 22.6,0.4 l -1.85,-2.75 -1.1,-0.8 q -7.3,-3.75 -12.55,2 m 5.45,-8.15 q 7.2,-0.65 11.85,4.9 l 1.4,3.95 0.55,1.3 Q 27,2.7 27.8,4.55 l 0.1,0.2 -2.05,2.1 -3.4,3.45 q -0.4,0.35 -0.25,0.55 v 0.1 l 0.85,1.15 3.9,4.35 2.4,2.4 0.9,1 0.2,0.25 -0.65,1 -3.1,4.15 -0.75,1.2 -0.35,0.6 -0.05,0.05 0.4,-0.4 0.6,-0.45 0.5,-0.5 1.2,-1.1 q 2,-2 3.6,-4.3 l 0.5,-0.55 -1.4,-2.25 -0.65,-1.05 -3.4,-4.9 1.15,-1.3 q 0.05,-0.1 0.15,-0.1 l 3.75,-3.85 0.55,-0.5 0.1,-0.15 -2.75,-5.05 -1.3,-2.8 -0.25,-0.55 0.45,-1 q 1,-1.7 2.4,-3 4.05,-3.15 9.6,-2.65 l 0.85,0.1 q 9.7,3.1 12.75,12.8 1.25,3.8 0.95,7.65 -0.35,4.7 -3.1,9.5 -2.8,4.85 -7.45,8.35 L 42,30.85 40.5,31.6 q -3.8,1.9 -7.05,4.8 -3.05,2.7 -5.25,6.25 l -0.55,0.9 q -1.1,1 -2,-0.4 -2.3,-3.75 -5.75,-6.3 l -7,-4.7 L 10.15,30.6 8.55,29.35 6.2,27.15 Q 3.1,24.3 1.05,20.75 -1.7,15.95 -2,11.25 -2.35,7.4 -1.1,3.6 1.95,-6.1 11.6,-9.2 l 0.95,-0.1"
         fill="#000000"
         fill-rule="evenodd"
         stroke="none"
         id="path3" />
    </g>
  </defs>
</svg>
