<?xml version="1.0" encoding="UTF-8" standalone="no"?>
<svg
   ffdec:objectType="frame"
   height="35.326321"
   width="33.191448"
   version="1.1"
   id="svg8"
   sodipodi:docname="STATUS_Madness_Icon.svg"
   xmlns:inkscape="http://www.inkscape.org/namespaces/inkscape"
   xmlns:sodipodi="http://sodipodi.sourceforge.net/DTD/sodipodi-0.dtd"
   xmlns:xlink="http://www.w3.org/1999/xlink"
   xmlns="http://www.w3.org/2000/svg"
   xmlns:svg="http://www.w3.org/2000/svg"
   xmlns:ffdec="https://www.free-decompiler.com/flash">
  <sodipodi:namedview
     id="namedview8"
     pagecolor="#ffffff"
     bordercolor="#000000"
     borderopacity="0.25"
     inkscape:showpageshadow="2"
     inkscape:pageopacity="0.0"
     inkscape:pagecheckerboard="0"
     inkscape:deskcolor="#d1d1d1" />
  <g
     transform="translate(16.88168,15.54084)"
     id="g1">
    <use
       ffdec:characterId="3176"
       height="35.400002"
       transform="translate(-16.65,-16.65)"
       width="33.150002"
       xlink:href="#sprite0"
       id="use1" />
  </g>
  <defs
     id="defs8">
    <g
       id="sprite0">
      <use
         ffdec:characterId="3175"
         height="73.349998"
         transform="matrix(0.4826,0,0,0.4826,3.05,2.75)"
         width="68.800003"
         xlink:href="#shape0"
         id="use2" />
    </g>
    <g
       id="shape0">
      <path
         d="M 23.1,0.6 23.6,0.55 24.25,0.45 25.4,0.4 25.8,0.35 h 0.35 l 1.3,-0.15 h 0.1 0.4 1.65 l 1.35,0.1 0.4,0.05 0.65,0.1 1.05,0.15 h 0.1 l 2.55,0.5 1.05,0.3 q 0,-0.4 0.15,-0.75 l 0.8,-1 0.7,-0.75 q 1.35,-1.1 3.6,-1.75 l 3,-0.55 q 1.75,0 2.9,0.75 l 1,0.65 0.8,0.75 q 0.35,0.35 3,-0.45 2.65,-0.8 5.5,3.2 2.65,4.8 1,9.6 l -1.95,2.05 q -2.4,2.6 -2.15,3 1.25,2.65 2.15,5.35 l 0.5,1.45 0.9,4.35 v 0.05 l 0.1,1.5 v 0.05 1.4 0.05 1.4 0.05 l -0.1,1.5 v 0.05 l -0.6,2.95 q 0.85,0.1 1.65,0.55 1.15,0.7 1.75,1.85 1,2 0.1,4.6 -0.55,1.55 -1.3,2.45 l -0.75,0.75 -0.25,2.25 q -0.7,1.9 -3.1,3.75 -0.1,3.2 -2.25,5.4 -1.4,1.35 -3.1,1.8 -1.95,0.35 -3.55,-0.55 -1.1,-0.65 -2.1,-2.2 -0.55,-0.9 -0.6,-1.55 l -2,1.25 q -3.2,2.05 -5.6,2.6 l -1.4,0.3 -2.4,0.45 -0.1,0.05 -1.05,0.2 -0.65,0.05 -0.4,0.05 -1.15,0.05 h -0.2 -1.65 l -0.4,0.05 h -0.1 L 26.15,60.3 H 25.8 25.4 L 24.25,60.2 23.6,60.1 23.1,60.05 20.8,59.6 q 0.35,1.8 0.2,3.35 -0.2,3.85 -2.85,5.95 -0.8,0.7 -1.7,0.9 L 13.2,69.6 10.85,68.3 Q 9.65,67.4 9.05,66.25 8.15,64.55 8.6,61.1 L 7.1,60.4 Q 5.45,59.4 4.15,57.8 3.2,56.65 2.9,55.75 L 2.75,55 q -1.6,-0.9 -2.5,-2.35 -1.05,-1.8 -0.9,-4.45 0.1,-2.75 1.55,-4.5 -1.25,-2.2 -2,-4.5 L -1.65,37.7 -2.5,33.35 V 33.3 l -0.1,-1.5 v -0.05 -1.4 -0.05 -1.4 -0.05 l 0.1,-1.5 V 27.3 l 0.85,-4.35 0.55,-1.45 0.8,-2.2 -2.25,0.15 q -1.4,0 -2.15,-0.4 -1.05,-0.6 -1.55,-2 L -6.65,14.45 -6.8,11.5 -6.7,10.45 -6.5,9 q 0.85,-2.55 3.15,-3.2 l 1.3,-0.1 V 5.45 q 0,-1.1 0.5,-2.05 0.55,-0.95 1.5,-1.5 0.75,-0.45 2.2,-0.75 2.5,-0.4 5,0 l 0.3,0.1 1.2,0.15 0.7,0.2 0.7,0.3 q 1.25,0.6 1.9,1.8 l 0.4,1.05 q 3.6,-2.3 8.15,-3.65 l 2.6,-0.5 m 21.5,4.65 3.95,2.7 -0.05,-0.4 V 6.95 L 47.75,6.5 46.75,5.25 45.85,3.8 45.15,2.75 44.3,1.85 Q 43.6,1.4 42.5,1.6 l -1.7,0.5 q -0.35,0.05 -0.4,0.25 l 0.05,0.3 0.2,0.5 3.95,2.1 M 4.95,11.2 v 0.05 L 5.3,10.9 5.4,10.75 4.35,10.6 4.15,10.55 2.85,10.05 2.2,10.9 2,11 q 0.65,0.85 0.8,1.85 l 0.1,1 2.05,-2.65 M 5.3,49.75 3.9,48.2 4.1,49.4 q 0.3,0.9 1.05,1.45 L 5.4,51.1 Q 5.9,50.85 6.45,50.85 L 5.3,49.75 M 3.5,40.85 3.45,40.8 v 0.05 H 3.5"
         fill="#ffffff"
         fill-rule="evenodd"
         stroke="none"
         id="path2" />
      <path
         d="m 30.65,56.25 4.4,-0.15 q -3.5,1.15 -7.5,0.8 Q 20.9,56.3 15.8,52.55 L 14.25,51.9 16,52.25 17.65,53 v 0.1 q 0,0.6 0.55,0.65 l 2.25,0.2 1.95,0.55 q 2.95,1.65 6.8,1.1 h 0.15 q 0.5,0.6 1.3,0.65"
         fill="#cb7085"
         fill-rule="evenodd"
         stroke="none"
         id="path3" />
      <path
         d="m 52.95,24.65 q 1.95,5.8 0.7,11.95 l -0.4,1.85 -0.15,0.65 V 39 L 52.9,38.4 Q 52.5,38 51.8,37.8 47.15,36.25 40.5,36.7 l -5.7,0.55 -5.65,0.75 -5,0.8 -3.1,0.85 -3.05,0.8 -4.55,0.75 q -2.35,0.55 -6.1,2.95 L 7.3,44.1 7.2,44.2 7.15,44.25 5.65,41.7 Q 4.75,39.85 4.15,38 2.15,34.45 2.15,30.35 2.2,23.3 6.5,17.7 11.35,11.3 18.4,7.35 19.1,6.9 19.85,6.65 21.8,5.45 24.1,4.95 l 4.4,-0.7 q 7.75,0.6 14,5.45 3.1,2.4 5.35,5.45 4.45,3.85 5.1,9.5"
         fill="#d75454"
         fill-rule="evenodd"
         stroke="none"
         id="path4" />
      <path
         d="m 42.9,8.25 2.25,1.8 2.1,1.85 q 1.9,1.9 3.6,4.3 2.2,3.05 3.35,6.55 l 0.5,1.35 0.75,3.9 v 0.05 l 0.1,1.35 v 0.05 1.25 0.05 1.25 0.05 l -0.1,1.35 v 0.05 l -0.75,3.9 -0.5,1.35 q -1.15,3.5 -3.35,6.6 l -3.6,4.25 -2.1,1.85 -2.25,1.8 -1.9,1.25 q -2.95,1.8 -5.05,2.3 l -1.3,0.3 -2.1,0.4 -0.15,0.05 -0.9,0.15 -0.6,0.05 -0.35,0.05 -1.1,0.05 h -0.1 -1.5 L 27.5,57.85 H 27.35 L 26.2,57.7 h -0.3 -0.35 l -1,-0.05 -0.65,-0.1 -0.4,-0.05 Q 17.75,56.6 13.05,53.2 L 10.7,51.4 7.4,48.25 5.05,45.3 Q 2.8,42.2 1.65,38.7 L 1.2,37.35 0.45,33.45 V 33.4 L 0.35,32.05 V 32 30.75 30.7 29.45 29.4 l 0.1,-1.35 V 28 L 1.2,24.1 1.65,22.75 q 1.15,-3.5 3.4,-6.55 1.1,-1.6 2.35,-2.95 l 3.3,-3.2 2.35,-1.8 Q 17.75,4.85 23.5,4 l 0.4,-0.1 0.65,-0.05 1,-0.1 0.35,-0.05 h 0.3 l 1.15,-0.05 h 0.15 0.35 1.5 l 1.2,0.05 h 0.35 l 0.6,0.1 0.9,0.2 h 0.15 l 2.25,0.45 1.15,0.3 q 2.1,0.45 5,2.25 l 1.95,1.25 m -3.1,1.8 Q 35.7,7.7 33,7.2 L 29.45,6.65 27.95,6.6 H 27.9 27.5 27.3 26.6 L 26.25,6.65 H 26 L 25.35,6.8 H 25 Q 20.35,7.55 16.15,10.05 13.8,11.4 11.8,13.1 8.85,15.85 6.85,19.4 L 5.8,21.25 v 0.1 L 5.75,21.4 v 0.05 l -1.3,2.75 -0.05,0.25 -0.1,0.2 -0.4,1.4 -0.1,0.45 -0.4,3.4 v 0.05 0.75 0.05 0.7 0.05 l 0.4,3.45 0.1,0.5 0.4,1.35 0.1,0.2 0.05,0.25 1.3,2.8 V 40.1 H 5.8 v 0.1 l 1.05,1.9 q 2,3.5 4.95,6.2 2,1.75 4.35,3.1 4.2,2.5 8.85,3.25 l 0.35,0.05 0.65,0.1 h 0.25 l 0.35,0.05 h 0.7 l 0.2,0.05 0.4,-0.05 h 0.05 1.5 L 33,54.25 q 2.7,-0.5 6.8,-2.85 l 4.3,-3.1 q 2.95,-2.7 4.95,-6.2 l 1.05,-1.9 v -0.05 l 0.05,-0.05 v -0.05 h 0.05 l 1.2,-2.8 0.1,-0.25 0.05,-0.2 0.4,-1.35 0.1,-0.5 0.4,-3.45 v -0.05 l 0.05,-0.7 V 30.7 L 52.45,29.95 V 29.9 l -0.4,-3.4 -0.1,-0.45 -0.4,-1.4 L 51.5,24.45 51.4,24.2 50.2,21.45 50.15,21.4 V 21.35 L 50.1,21.3 V 21.25 L 49.05,19.4 q -2,-3.55 -4.95,-6.3 l -4.3,-3.05"
         fill="#000000"
         fill-rule="evenodd"
         stroke="none"
         id="path5" />
      <path
         d="M 43.5,29.85 Q 44.35,29.1 44.8,28.1 45.25,27 45,26 l -0.65,-1.15 q -0.4,-0.6 -0.8,-0.85 -1.1,-0.75 -2.4,-0.25 -1.15,0.4 -1.8,1.6 -0.65,1.05 0,1.5 l 1.1,0.05 0.5,-0.15 0.6,-0.1 Q 42,26.7 42.3,27 l 0.3,0.8 q 0.05,0.85 -0.7,1.5 -0.7,0.45 -1.65,0.55 -1.7,0.1 -2.9,-0.8 -1.45,-1.25 -1.15,-3.45 0.35,-1.8 1.9,-3.25 2.2,-1.95 4.5,-1.7 1.3,0.15 2.45,0.9 2.4,1.6 2.8,4.35 0.5,2.85 -1.2,5.05 L 44.8,32.6 q -1.5,1.1 -2.85,1.5 l -2,0.15 -2.8,-0.15 Q 35.2,33.7 33.65,32.4 32.1,31.05 31.4,29.2 30.75,27.65 30.8,25.95 l -2.5,1.2 -1.75,0.15 Q 26.1,27.05 26,26.45 q -0.1,-0.6 0.2,-1.1 0.35,-0.6 1.65,-1.35 7.1,-4.15 14.15,-9.2 0.8,-0.65 1.35,-0.7 0.9,-0.3 1.4,0.35 0.4,0.55 0.15,1.3 l -0.8,1.1 -5.55,4.3 -4.3,2.8 q -0.65,1.85 0,3.7 l 0.9,1.55 1.2,1.2 q 0.9,0.6 2.85,0.7 l 2.2,-0.15 q 1,-0.25 2.1,-1.1 M 11.1,40.25 Q 17.4,38.1 28.55,36.3 L 42.3,35.5 q 6.2,0.1 10.65,1.05 L 52.2,39 l -0.15,0.4 -9.6,-0.75 0.05,0.6 q 0.55,5.9 0.55,8.85 l -0.1,4.3 q 0,0.65 -0.35,0.95 H 42 Q 41.65,53.2 41.25,52.45 40.95,52 40.75,52.15 41.65,50.05 40,38.55 L 28.35,39.4 31.25,54.55 31.3,57 31,57.2 30.45,57.15 Q 29.95,56.95 29.6,56.1 29.1,55 28.85,53.35 l -0.5,-3 L 27.3,45 26.1,39.7 q -4.65,0.65 -8.9,1.75 l 3.8,10.9 0.85,2.15 0.3,1.05 q 0.1,0.7 -0.35,1.05 L 20.75,56.55 20,55.75 q -1.1,-1.6 -2.25,-4.85 l -1.7,-5.25 Q 15.4,43.7 15.2,42.3 v -0.35 q -4.15,1.1 -7.85,2.65 L 7.3,44.4 7.2,44.05 6.9,43.55 6.65,43.15 5.8,42.4 q 2.3,-1.2 5.3,-2.15 M 56,43.1 q 0.55,-0.4 0.65,-1.3 0.1,-0.9 -0.15,-1.5 L 56.35,40.05 56.2,39.9 53.4,39.8 q -0.4,-0.5 0.05,-1 l 0.1,-0.15 q -0.35,-0.35 0.1,-0.85 0.3,-0.25 0.9,-0.35 l 2.25,0.1 q 1.1,0.25 1.85,1.05 0.7,0.75 0.6,2.1 -0.2,1.3 -0.6,2.1 l -1.35,1.6 q 0.3,2.25 -0.75,3.3 -1.1,1 -2.2,1.2 L 52.6,48.75 q -0.1,0.85 0.15,1.65 l 0.3,1.15 q 0.3,1.3 0,2.5 l -0.1,0.45 -0.55,0.75 -0.65,0.65 -0.8,0.2 L 49,55.85 q -0.9,-0.4 -1.35,-1.4 -0.35,-0.9 -0.25,-2.15 l 0.5,-4.35 0.15,0.45 q 0.1,-0.75 -0.2,-1.35 l -0.2,-0.55 q 0,-0.45 0.3,-0.75 l 0.75,-0.1 0.45,0.05 0.35,1.45 q 0.35,1.45 0.1,3.15 l -0.25,2.6 q 0,0.6 0.15,0.85 l 0.75,0.5 q 0.5,0 0.75,-0.35 l 0.3,-0.95 -0.05,-1.35 -0.2,-1.1 Q 50.9,49.85 50.9,49.05 50.85,48.2 51.4,47.7 q 0.55,-0.55 1,-0.6 l 1.1,-0.05 q 0.6,-0.05 1.05,-0.6 0.5,-0.6 0.55,-1.45 0,-0.9 0.2,-1.15 L 56,43.1 M 16.2,27.65 q -0.8,-0.4 -1.4,-0.35 -1.5,0 -2.7,1.7 l -0.2,0.4 0.4,0.4 1.55,0.75 q 0.75,0.4 0.7,0.85 L 14.2,32 11.6,32.15 Q 10.2,31.75 9.55,30.9 8.8,29.8 9.3,28.35 q 0.45,-1.25 1.55,-2.2 1.35,-1.3 2.95,-1.6 1.55,-0.3 3.05,0.4 l -0.3,-0.25 -1.8,-1.35 h -0.5 q -1.35,-0.05 -2.9,0.9 l -1.85,1.5 q -1.9,1.8 -1.95,3.7 -0.05,1.35 0.7,2.5 0.7,1.1 1.9,1.7 l 5.1,0.25 q 1.55,-0.5 2.15,-1.4 0.95,-1.1 0.5,-2.7 -0.45,-1.45 -1.7,-2.15 m 4,0.6 q 0.8,1.7 0.55,3.4 -0.4,2.85 -3,4.45 -2.3,1.4 -5.3,1.15 Q 9.6,37.05 7.6,35.6 5.3,34 4.75,31.4 q -0.6,-2.65 0.9,-5.15 1.2,-2.15 3.7,-3.75 1.6,-0.95 2.8,-1.1 l 0.25,-0.05 -1.85,-1.9 q -0.75,-0.9 -0.7,-1.5 0.1,-0.65 0.7,-0.85 l 1.15,0.1 0.95,0.75 4.3,3.25 4.3,3.2 q 1.5,1.3 2,2.2 0.35,0.5 0.35,0.95 0,0.7 -0.45,0.9 L 22.5,28.6 q -0.85,-0.05 -2.05,-1 l -1.25,-0.9 1,1.55 M 8.95,54.8 q 0.65,0.65 1.75,0.3 l 1.75,-0.2 q 0.6,0.15 1,1.2 l 0.4,1.6 -0.1,2.65 -0.1,1.5 q -0.1,1.3 0.2,2.05 l 0.4,0.4 0.6,-0.1 0.4,-0.5 Q 16,62.4 15.7,60.2 L 15,56.7 q -0.15,-1.05 0.15,-2 0.3,-1.15 1.15,-1.65 L 17,52.8 q 0.5,0.1 0.55,0.5 l -0.3,0.75 Q 16.65,55 17,56.7 l 0.75,4.05 q 0.2,2.4 -0.75,3.95 l -0.7,0.95 -1.15,0.75 -1.25,-0.05 q -1.15,-0.3 -1.8,-1.3 L 11.75,64.2 q -0.35,-0.75 -0.2,-2.25 l 0.3,-2.4 Q 12.1,57.7 11.8,56.6 9.95,57.9 8.05,56.85 6.9,56.15 6.2,54.55 L 6.05,54.1 Q 5.85,53.5 5.95,52.75 L 5.8,52.7 Q 4.25,52.45 3.05,50.75 l -0.3,-0.4 Q 2.2,49.4 2.3,48.1 2.35,47.05 2.9,45.9 3.6,44.5 4.6,44.2 h 0.6 l 0.4,0.4 v 0.3 L 6.2,45 q 0.4,0.2 0.3,0.6 l -0.35,0.35 q -1.45,1.1 -1.4,2.7 0.1,1.55 1.95,1.9 1.75,0.3 1.65,1.95 -0.2,1.6 0.6,2.3"
         fill="#000000"
         fill-rule="evenodd"
         stroke="none"
         id="path6" />
      <path
         d="M 43.8,5.9 43.7,5.4 H 43.45 L 43.1,5.25 42.95,5.2 42.8,5.1 42.6,4.75 42.5,4.45 V 3.95 3.9 Q 42.1,3.5 42.15,3 42.25,2.05 43.4,1.6 l 1.9,0.15 Q 46.15,2.1 46.55,2.65 47,3.1 47,3.8 l 0.6,1.1 0.05,-0.15 q 1.5,-0.9 3.1,-0.7 L 51,3.95 h 0.65 l 0.4,-0.1 h 0.5 l 0.95,0.6 0.55,0.8 0.3,0.6 q 0.4,0.95 0.3,2.1 L 54.5,8.6 54.3,8.95 53.65,9.4 h -0.8 Q 52.15,9.15 52,8.6 L 51.85,8.65 Q 51,9 50.25,9.6 l -0.1,0.1 -0.2,0.6 -0.1,0.2 0.05,0.05 0.15,0.65 q 0.55,1.3 1.25,2.4 l 0.1,0.2 h 0.05 l 0.35,0.2 0.3,0.4 0.2,0.45 q 0.1,0.45 -0.15,0.9 L 51.6,16.4 50.65,17.3 Q 50,17.75 49.15,17.85 L 48.7,17.9 q -0.85,0 -1.35,-0.6 l -0.1,-0.25 q -0.2,-0.4 -0.05,-0.95 l 0.3,-0.4 -0.05,-0.1 q -0.1,-0.5 0.2,-0.95 l -1.7,-2.75 -0.3,0.1 -0.25,0.05 -0.35,0.05 -0.35,-0.05 -0.1,-0.1 -0.15,-0.1 -0.15,0.05 -0.35,0.15 -0.3,0.05 -0.4,0.3 0.05,0.4 v 0.3 l -0.05,0.15 -0.15,0.2 -0.05,0.2 H 42.9 l -0.4,0.2 -0.7,0.05 h -0.15 l -0.3,-0.25 H 41.2 q -0.8,0.3 -1.6,-0.5 L 38.9,12.2 q -0.4,-1 -0.35,-1.7 0.1,-1.05 0.9,-1.4 0.4,-0.15 0.85,0 l 0.1,0.05 0.05,-0.05 1,-0.15 H 41.6 L 41.7,8.9 V 8.8 L 41.9,8.4 42.6,7.55 43.4,6.9 43.5,6.6 43.8,5.9 M 3.8,8.95 3.95,8.45 3.75,8.35 3.55,8.1 3.35,7.9 3.25,7.8 3.3,7.4 3.35,7.1 3.3,7.05 Q 3.65,6.45 4.1,6.25 L 4.35,5.95 5,5.8 6.05,5.85 Q 6.85,6 7.4,6.5 l 0.2,3.25 0.15,-0.1 q 1.75,-0.1 3.1,0.75 l 0.2,0.05 0.2,-0.15 0.2,-0.3 1.1,-0.05 0.8,0.8 q 0.55,0.9 0.6,1.95 0.05,1.1 -0.5,2 L 12.3,15.45 11.5,15.2 H 11.45 11.3 11.05 L 9.8,15 7.9,15.15 7.85,15.2 l -0.5,0.4 -0.1,0.15 -0.1,0.1 -0.2,0.7 v 0.7 l 0.1,1.55 v 0.3 q 0.5,-0.05 0.85,0.3 0.4,0.45 0.35,0.9 0,0.9 -1.2,1.35 L 4.45,21.5 Q 3.65,21.2 3.35,20.7 L 3.15,20.55 2.95,20.2 2.7,19.95 V 19.7 19.5 19.25 q 0.2,-0.5 0.55,-0.8 L 3.2,16.35 2.8,16.15 1.55,15.85 0.6,15.75 -0.4,15.5 h -0.1 -0.4 l -0.65,-0.3 -0.1,-0.05 -0.3,-0.35 Q -2.6,13.75 -2.5,12.6 v -0.05 q -0.05,-2.1 1.95,-2.2 0.55,0 0.9,0.25 l 0.2,0.05 V 10.7 L 0.65,10.55 1,10.35 2.05,9.95 3,9.7 3.25,9.45 3.8,8.95"
         fill="#a53030"
         fill-rule="evenodd"
         stroke="none"
         id="path7" />
      <path
         d="m 49.85,3.15 q 1.2,-0.35 2.3,-1.2 L 52.75,1.5 Q 53.2,1.3 53.6,1.05 l 0.45,-0.1 Q 54.5,0.9 54.8,1.4 l -0.05,0.9 q -0.25,1 -1.45,1.9 -1.4,1.2 -3.25,1.6 l -1.1,0.05 Q 48.15,5.8 47.15,5.05 45.25,3.5 44.55,1.4 l -0.2,-1.15 q 0.15,-0.75 0.7,-0.85 0.45,-0.1 0.8,0.2 l 0.55,0.6 1.05,1.75 1.2,1 0.5,0.3 0.7,-0.1 m -6.4,-0.65 0.6,1.1 q 1.1,2.05 0.75,3.4 -0.3,1.55 -1.95,2.4 -1,0.6 -3,0.85 L 38.7,10.3 q -0.65,-0.25 -0.9,-0.65 -0.45,-0.45 0,-1 0.15,-0.25 0.85,-0.35 1.65,-0.45 3,-1.3 l 0.5,-0.45 -0.1,-0.6 Q 41.4,4.15 40.4,2.5 L 39.9,1.6 39.75,0.6 39.9,0.1 q 0.2,-0.3 0.55,-0.35 l 0.7,0.15 0.95,0.95 1.35,1.65 m 8.35,9.6 0.45,1 0.85,1.15 q 0.55,0.65 0.55,1.1 0,0.5 -0.35,0.9 L 52.45,16.4 Q 52.1,16.35 51.4,15.75 50.15,14.55 49.65,13.45 48.9,11.9 49.4,10.6 49.75,9.7 50.9,8.65 l 2.5,-1.2 0.95,-0.3 1.3,-0.4 q 1,0 1.2,0.65 l -0.15,1 -0.65,0.7 -1.4,0.8 -1.55,0.65 -0.9,0.6 q -0.45,0.55 -0.4,0.95 m -7.2,1.8 -1,-0.25 q -0.9,0 -1.55,0.35 L 40.8,14.9 40,15.45 39.35,15.3 39,14.7 39.1,14.1 q 0.8,-1.8 2.35,-2.55 l 1.75,-0.5 0.65,-0.05 1.3,0.25 0.9,0.3 0.65,0.65 1.25,1.85 0.4,1.35 q 0.45,2 0.05,3.1 -0.3,0.85 -0.8,1.1 l -1,0.15 Q 46.05,19.55 45.95,19 L 46,18.1 q 0.35,-1.9 -0.95,-3.8 L 44.6,13.9 M 10.55,9.2 12.2,8.85 l 1.05,-0.1 0.7,0.15 q 0.4,0.25 0.3,0.7 l -0.35,0.75 -0.45,0.4 -0.6,0.35 -2.8,0.45 Q 8.7,11.55 7.5,10.7 L 6.85,10.05 6.6,9.3 Q 6.15,7.95 6.3,6.9 L 6.65,5.6 7.15,4.85 7.95,4.75 Q 8.45,4.8 8.65,5.25 8.9,5.9 8.5,7.05 L 8.7,8.1 9.05,8.75 q 0.35,0.3 0.8,0.4 l 0.7,0.05 M -1.65,9.3 H 0.3 L 1.1,9.05 1.55,8.5 V 8.05 L 1.05,5.8 0.9,4.5 Q 1.15,3.7 1.8,3.65 2.4,3.65 2.9,4.4 L 3.7,6 4.25,7.7 Q 4.4,8.75 4.2,9.55 3.75,10.8 2.3,11.55 L -0.4,12 -2.05,11.7 -2.6,11.5 -3.2,11.3 -3.85,11 -4.35,10.4 q -0.2,-0.6 0.2,-0.9 0.3,-0.45 0.9,-0.4 l 0.4,0.05 0.45,0.05 0.75,0.1 m 15.2,7.05 -0.5,0.35 -1.7,-0.2 L 9.95,16.25 9.8,16.3 9.25,16.6 8.6,17.1 8.45,17.5 q -0.2,0.95 0.15,2.05 L 8.95,20.4 8.8,21.3 Q 8.35,21.95 7.55,21.5 7.1,21.3 6.7,20.55 L 6.15,18.9 6.05,17.45 6.35,16.1 Q 6.65,15.3 7.55,14.45 8.8,13.5 10.1,13.6 l 1.15,0.1 1.15,0.45 0.7,0.5 0.5,0.65 0.05,0.6 -0.1,0.45 M 1.2,17.3 l -4.35,-0.2 -0.5,-0.15 -0.45,-0.2 -0.3,-0.5 0.25,-0.35 0.9,-0.7 1.55,-0.5 1.1,-0.1 h 1.35 q 1.8,0.1 2.45,0.65 1.05,0.7 1.3,2.45 L 4.25,20.45 3.8,21.7 3.25,22.35 2.2,22.6 Q 1.7,22.5 1.6,21.85 L 1.75,20.8 2,19.35 1.9,17.95 1.6,17.45 1.2,17.3"
         fill="#000000"
         fill-rule="evenodd"
         stroke="none"
         id="path8" />
    </g>
  </defs>
</svg>
