<?xml version="1.0" encoding="UTF-8" standalone="no"?>
<svg
   ffdec:objectType="frame"
   height="30.263485"
   width="30.689732"
   version="1.1"
   id="svg11"
   sodipodi:docname="STATUS_Range Up Icon.svg"
   xmlns:inkscape="http://www.inkscape.org/namespaces/inkscape"
   xmlns:sodipodi="http://sodipodi.sourceforge.net/DTD/sodipodi-0.dtd"
   xmlns:xlink="http://www.w3.org/1999/xlink"
   xmlns="http://www.w3.org/2000/svg"
   xmlns:svg="http://www.w3.org/2000/svg"
   xmlns:ffdec="https://www.free-decompiler.com/flash">
  <sodipodi:namedview
     id="namedview11"
     pagecolor="#ffffff"
     bordercolor="#000000"
     borderopacity="0.25"
     inkscape:showpageshadow="2"
     inkscape:pageopacity="0.0"
     inkscape:pagecheckerboard="0"
     inkscape:deskcolor="#d1d1d1" />
  <g
     transform="translate(14.97776,15.311621)"
     id="g2">
    <use
       ffdec:characterId="3280"
       height="30.25"
       transform="translate(-13.05,-14.3)"
       width="30.25"
       xlink:href="#sprite0"
       id="use1" />
    <use
       ffdec:characterId="3115"
       height="27"
       transform="matrix(0.4028,0,0,0.4028,-15.3,-14.9)"
       width="28.25"
       xlink:href="#shape1"
       id="use2" />
  </g>
  <defs
     id="defs11">
    <g
       id="sprite0">
      <use
         ffdec:characterId="3279"
         height="30.25"
         width="30.25"
         xlink:href="#shape0"
         id="use3" />
    </g>
    <g
       id="shape0">
      <path
         d="m 15.6,3.95 q 0.65,-0.65 1.1,-1 V 2.35 Q 16.9,0.55 18.55,0.5 19.65,0.4 21.2,1.25 22.45,2 23.75,3.3 l 0.55,0.55 2.25,2.75 q 0.8,1.5 0.7,2.6 -0.05,1.65 -1.85,1.85 h -0.6 l -1,1.1 -4,3.6 q -1.5,1.2 -2.25,0.95 L 14,19.85 q -1.8,1.6 -2.75,1.45 l -0.7,-0.2 -4.6,4.1 -0.15,0.15 q 0.3,1.7 -1.25,2.25 l -0.3,0.1 0.05,0.05 H 3.9 Q 2.75,27.8 1.5,26.45 L 1.25,26.2 Q 0,24.95 0.05,23.8 L 0,23.45 0.05,23.5 0.15,23.2 Q 0.75,21.7 2.4,21.95 L 2.55,21.8 Q 6.1,17.75 6.7,17.25 L 6.45,16.5 Q 6.3,15.55 7.9,13.75 L 11.05,10.2 Q 10.8,9.45 12,7.95 Z"
         fill="none"
         stroke="#ffffff"
         stroke-linecap="round"
         stroke-linejoin="round"
         stroke-width="3"
         id="path3" />
      <path
         d="m 20.45,2.4 0.95,0.25 q 1.5,0.8 2.3,1.7 l 1.4,2 0.4,1 Q 25.85,8.9 24.4,9 H 24.35 Q 23.35,8.9 22.6,8.35 21.1,7.3 19.95,5.9 L 19.5,5.35 19.4,5.15 Q 18.85,4.4 18.8,3.45 L 18.85,3.3 q 0.05,-1.4 1.6,-0.9 m 0.2,-0.7 Q 19.65,1.2 18.9,1.45 18.1,1.75 18,2.85 17.85,3.9 18.8,5.35 19.75,6.8 18.75,6 l -1.5,-1.7 q -2.4,2.3 -4.75,5.15 l 0.15,0.45 q 1.6,3.7 5.15,5.15 l 0.5,0.2 5.2,-4.7 -1.8,-1.6 q -0.5,-0.7 1.1,0.3 1.55,0.95 2.35,0.65 Q 26,9.65 26.3,8.85 26.55,8.1 26.15,7 25.7,5.95 24.65,4.7 l -2,-1.9 Q 21.7,2.15 20.65,1.7 M 20.55,3.35 20.1,3.4 20,3.5 20.05,3.55 q 0.2,0.75 1.35,1.95 l 1.05,1.2 -0.55,-0.65 0.4,0.4 1.9,1.3 h 0.05 L 24.3,7.8 V 7.6 7.55 Q 24.25,6.7 22.9,5.15 L 22.7,4.95 22.65,4.9 Q 21,3.45 20.55,3.35 m -4.95,0.6 q 0.65,-0.65 1.1,-1 v -0.6 q 0.2,-1.8 1.85,-1.85 l 2.1,0.3 q 0.95,0.35 2.3,1.2 1.35,0.85 2.45,2.35 l 1.5,2.6 q 0.5,1.1 0.4,2.5 -0.1,1.4 -1.9,1.6 h -0.6 l -1,1.1 -4,3.6 q -1.5,1.2 -2.25,0.95 L 14,19.85 q -1.8,1.6 -2.75,1.45 l -0.7,-0.2 -4.6,4.1 -0.15,0.15 q 0.3,1.7 -1.25,2.25 L 4.5,27.65 4.4,27.7 H 4.25 L 3.9,27.75 Q 2.75,27.8 1.5,26.45 L 1.25,26.2 Q 0.35,25.3 0.15,24.45 L 0.05,23.5 0.15,23.2 Q 0.75,21.7 2.4,21.95 L 2.55,21.8 Q 6.1,17.75 6.7,17.25 L 6.45,16.5 Q 6.3,15.55 7.9,13.75 L 11.05,10.2 Q 10.8,9.45 12,7.95 l 3.6,-4 M 7.55,16.1 q -0.05,0.65 1.7,2.5 1.75,1.65 2.4,1.6 0.15,0.35 5.15,-4.25 l -1.05,-0.55 -1.85,-1.55 -1.5,-1.8 -0.6,-1.1 q -4.6,5 -4.25,5.15 m -0.05,2.45 -0.3,-0.4 -4.5,4.8 q -0.2,0.7 0.6,1.6 0.9,0.75 1.5,0.5 L 9.65,20.6 9.2,20.25 7.5,18.55 m -5.7,4.2 q -0.1,0.1 -0.25,0.15 l -0.4,0.4 q -0.3,1 0.4,2 l 0.45,0.45 0.6,0.6 q 0.9,0.6 1.9,0.3 L 4.9,26.25 5,25.95 H 4.8 4.7 L 4.1,25.85 3.4,25.65 2.35,24.7 Q 1.75,24.1 1.85,23 V 22.8 L 1.8,22.75"
         fill="#000000"
         fill-rule="evenodd"
         stroke="none"
         id="path4" />
      <path
         d="m 20.65,1.7 q 1.05,0.45 2,1.1 l 2,1.9 q 1.05,1.25 1.5,2.3 0.4,1.1 0.15,1.85 -0.3,0.8 -1.15,1.05 -0.8,0.3 -2.35,-0.65 -1.6,-1 -1.1,-0.3 l 1.8,1.6 -5.2,4.7 -0.5,-0.2 Q 14.25,13.6 12.65,9.9 L 12.5,9.45 Q 14.85,6.6 17.25,4.3 l 1.5,1.7 q 1,0.8 0.05,-0.65 Q 17.85,3.9 18,2.85 18.1,1.75 18.9,1.45 19.65,1.2 20.65,1.7 m -0.2,0.7 Q 18.9,1.9 18.85,3.3 L 18.8,3.45 q 0.05,0.95 0.6,1.7 l 0.1,0.2 0.45,0.55 Q 21.1,7.3 22.6,8.35 23.35,8.9 24.35,9 h 0.05 q 1.45,-0.1 1.1,-1.65 l -0.4,-1 -1.4,-2 Q 22.9,3.45 21.4,2.65 L 20.45,2.4 M 7.55,16.1 Q 7.2,15.95 11.8,10.95 l 0.6,1.1 1.5,1.8 1.85,1.55 1.05,0.55 q -5,4.6 -5.15,4.25 Q 11,20.25 9.25,18.6 7.5,16.75 7.55,16.1 M 1.8,22.75 1.85,22.8 V 23 q -0.1,1.1 0.5,1.7 l 1.05,0.95 0.7,0.2 0.6,0.1 H 4.8 5 l -0.1,0.3 -0.4,0.4 q -1,0.3 -1.9,-0.3 L 2,25.75 1.55,25.3 q -0.7,-1 -0.4,-2 l 0.4,-0.4 Q 1.7,22.85 1.8,22.75"
         fill="#bb7e22"
         fill-rule="evenodd"
         stroke="none"
         id="path5" />
      <path
         d="m 7.5,18.55 1.7,1.7 0.45,0.35 -4.85,4.45 Q 4.2,25.3 3.3,24.55 2.5,23.65 2.7,22.95 l 4.5,-4.8 0.3,0.4"
         fill="#7b5214"
         fill-rule="evenodd"
         stroke="none"
         id="path6" />
      <path
         d="m 20.55,3.35 q 0.45,0.1 2.1,1.55 l 0.05,0.05 0.2,0.2 q 1.35,1.55 1.4,2.4 V 7.6 7.8 L 24.25,7.75 H 24.2 L 22.3,6.45 21.9,6.05 22.45,6.7 21.4,5.5 Q 20.25,4.3 20.05,3.55 L 20,3.5 20.1,3.4 20.55,3.35"
         fill="#ffffff"
         fill-rule="evenodd"
         stroke="none"
         id="path7" />
      <path
         d="m 15.6,3.95 q 0.65,-0.65 1.1,-1 v -0.6 q 0.2,-1.8 1.85,-1.85 l 2.1,0.3 q 0.95,0.35 2.3,1.2 1.35,0.85 2.45,2.35 l 1.5,2.6 q 0.5,1.1 0.4,2.5 -0.1,1.4 -1.9,1.6 h -0.6 l -1,1.1 -4,3.6 q -1.5,1.2 -2.25,0.95 L 14,19.85 q -1.8,1.6 -2.75,1.45 l -0.7,-0.2 -4.6,4.1 -0.15,0.15 q 0.3,1.7 -1.25,2.25 L 4.5,27.65 4.4,27.7 H 4.25 L 3.9,27.75 Q 2.75,27.8 1.5,26.45 L 1.25,26.2 Q 0.35,25.3 0.15,24.45 L 0.05,23.5 0.15,23.2 Q 0.75,21.7 2.4,21.95 L 2.55,21.8 Q 6.1,17.75 6.7,17.25 L 6.45,16.5 Q 6.3,15.55 7.9,13.75 L 11.05,10.2 Q 10.8,9.45 12,7.95 Z"
         ffdec:has-small-stroke="true"
         ffdec:original-stroke-width="0.5"
         fill="none"
         stroke="#000000"
         stroke-linecap="round"
         stroke-linejoin="round"
         stroke-width="1"
         id="path8" />
    </g>
    <g
       id="shape1">
      <path
         d="m 27.85,20.45 0.05,0.05 q 0.2,0.6 -0.3,0.95 l -0.3,0.15 0.1,0.6 0.05,0.5 q 0.25,0.6 0,1.1 l 0.1,0.45 q 0,0.95 -1.05,0.65 -4.05,-1.1 -7.85,-2.95 l -3.4,-1.6 -0.35,0.15 q -4.05,1.85 -8.35,3.1 l -1.9,0.65 -1.2,0.3 Q 3.2,24.95 2.5,24.8 L 2.2,24.5 2.05,24.4 Q 1.85,23.55 2,22.75 L 2.5,20.25 2.7,20.1 2.85,20 3,19.55 3.3,19.35 3.55,19.3 q 0.55,-0.75 1.6,-1.1 l 0.2,-0.05 q 0.75,-0.5 1.55,-0.85 3.45,-1.45 6.7,-3.25 l 0.15,0.05 0.3,-0.25 0.05,-0.3 0.2,-0.15 q 0.15,-0.15 0.4,-0.15 l 0.15,0.05 h 0.1 l 0.05,0.05 0.05,0.05 q 0.35,0.05 0.5,0.4 l 0.05,0.05 1.2,0.8 2.2,1 7.25,3.65 0.65,0.55 q 0.6,0.1 0.95,0.6 M 26.15,9.4 q 0.9,0.05 1.1,0.95 0.45,1.45 0.55,2.95 l 0.2,0.45 v 0.45 0.3 q 0.4,0.95 0.05,1.95 -0.55,1.65 -2.2,1.05 l -1.35,-0.6 -10.45,-5.4 -3.2,2.35 q -2.4,1.6 -5.05,1.95 -0.9,0.6 -1.7,1.35 l -0.5,0.2 Q 2.55,17.5 2.45,16.95 L 2,16.65 Q 1.75,16.15 1.8,15.6 L 2,15 1.95,13.2 Q 1.9,12.25 2.2,11.4 L 2.25,10.95 2.35,10.5 2.5,10.2 2.85,9.9 Q 3.2,9.6 3.7,9.6 L 4.25,9.8 4.75,9.3 9.1,5.3 Q 11.3,3.2 13.9,2.05 V 1.8 L 14.25,1.5 Q 14.6,1.2 15.1,1.2 l 0.3,0.05 0.25,0.05 0.2,0.1 4.35,4 5.95,4"
         fill="#49f849"
         fill-rule="evenodd"
         stroke="none"
         id="path9" />
      <path
         d="m 15.45,-0.25 h 0.1 l 0.9,0.7 3.1,2.65 3.3,2.55 0.95,0.75 1.2,0.95 3,2.1 0.05,0.05 0.2,0.2 0.4,0.45 0.1,0.2 0.05,0.2 0.05,0.2 0.05,0.35 v 0.35 0.05 l 0.1,0.9 0.05,4.2 v 0.3 0.65 L 28.9,21.2 28.75,24.35 28.7,24.6 v 0.15 l -0.05,0.6 0.05,0.25 -0.05,0.25 v 0.05 l -0.4,0.6 -0.6,0.2 -0.25,-0.05 -2.6,-0.8 -1.45,-0.5 -2,-0.8 -1.25,-0.45 -4.05,-1.6 -1.1,-0.5 -1.15,0.5 -4.05,1.6 -1.25,0.45 -2,0.8 -1.4,0.5 -2.65,0.8 L 2.2,26.7 1.6,26.5 1.2,25.9 V 25.85 25.6 25.35 L 1.15,24.75 V 24.6 24.35 L 0.95,21.2 0.8,17.55 V 16.9 16.6 l 0.05,-4.2 0.1,-0.9 V 11.45 11.1 L 1,10.75 1.05,10.55 1.15,10.35 1.2,10.15 1.6,9.7 1.8,9.5 1.85,9.45 4.9,7.35 6.05,6.4 7,5.65 10.3,3.1 l 3.1,-2.65 0.95,-0.7 h 0.05 0.55 0.5 m 7,18.15 -1.1,-0.5 -3.65,-2.2 -0.75,-0.45 -1.2,-0.7 -0.1,-0.1 -0.7,-0.45 -0.75,0.5 -0.1,0.05 -1.2,0.7 -0.75,0.45 -3.65,2.2 -1.05,0.5 -1.7,0.9 -0.55,0.25 -2.15,1.1 v 2.6 0.45 L 3.2,24.45 10.05,21.8 14.3,20 h 0.05 l 0.1,-0.05 0.35,-0.05 h 0.2 0.05 0.05 l 0.3,0.05 0.1,0.05 h 0.05 l 4.25,1.8 6.9,2.65 0.1,-1.25 v -0.45 -2.6 L 24.65,19.05 24.1,18.8 22.45,17.9 M 24.65,9.4 24.1,9 22.45,7.8 22.25,7.7 21.35,7.1 18.15,4.45 17.45,3.9 16,2.75 15.8,2.55 15.75,2.5 14.95,1.8 14.1,2.5 14.05,2.55 13.85,2.75 12.4,3.9 11.75,4.45 8.5,7.1 7.6,7.7 7.45,7.8 5.75,9 5.2,9.4 3.15,10.8 3.1,11.25 3.05,15.4 3.1,16.85 10.05,13.2 q 2.2,-1.15 4.25,-2.5 h 0.05 q 0.2,-0.15 0.45,-0.15 h 0.25 l 0.45,0.15 h 0.05 q 2.05,1.35 4.25,2.5 l 7,3.65 V 15.4 L 26.75,11.25 26.7,10.8 24.65,9.4"
         fill="#000000"
         fill-rule="evenodd"
         stroke="none"
         id="path10" />
      <path
         d="m 24.65,9.4 2.05,1.4 0.05,0.45 0.05,4.15 v 1.45 l -7,-3.65 Q 17.6,12.05 15.55,10.7 H 15.5 L 15.05,10.55 H 14.8 q -0.25,0 -0.45,0.15 H 14.3 q -2.05,1.35 -4.25,2.5 L 3.1,16.85 3.05,15.4 3.1,11.25 3.15,10.8 5.2,9.4 5.75,9 7.45,7.8 7.6,7.7 8.5,7.1 11.75,4.45 12.4,3.9 l 1.45,-1.15 0.2,-0.2 0.05,-0.05 0.85,-0.7 0.8,0.7 0.05,0.05 0.2,0.2 1.45,1.15 0.7,0.55 3.2,2.65 0.9,0.6 0.2,0.1 1.65,1.2 0.55,0.4 m -2.2,8.5 1.65,0.9 0.55,0.25 2.15,1.1 v 2.6 0.45 L 26.7,24.45 19.8,21.8 15.55,20 H 15.5 L 15.4,19.95 15.1,19.9 H 15.05 15 14.8 L 14.45,19.95 14.35,20 H 14.3 L 10.05,21.8 3.2,24.45 3.05,23.2 v -0.45 -2.6 l 2.15,-1.1 0.55,-0.25 1.7,-0.9 1.05,-0.5 3.65,-2.2 0.75,-0.45 1.2,-0.7 0.1,-0.05 0.75,-0.5 0.7,0.45 0.1,0.1 1.2,0.7 0.75,0.45 3.65,2.2 1.1,0.5"
         fill="#8fde8f"
         fill-rule="evenodd"
         stroke="none"
         id="path11" />
    </g>
  </defs>
</svg>
