<?xml version="1.0" encoding="UTF-8" standalone="no"?>
<svg
   ffdec:objectType="frame"
   height="28.360811"
   width="27.056171"
   version="1.1"
   id="svg7"
   sodipodi:docname="STATUS 55 Icon.svg"
   xmlns:inkscape="http://www.inkscape.org/namespaces/inkscape"
   xmlns:sodipodi="http://sodipodi.sourceforge.net/DTD/sodipodi-0.dtd"
   xmlns:xlink="http://www.w3.org/1999/xlink"
   xmlns="http://www.w3.org/2000/svg"
   xmlns:svg="http://www.w3.org/2000/svg"
   xmlns:ffdec="https://www.free-decompiler.com/flash">
  <sodipodi:namedview
     id="namedview7"
     pagecolor="#ffffff"
     bordercolor="#000000"
     borderopacity="0.25"
     inkscape:showpageshadow="2"
     inkscape:pageopacity="0.0"
     inkscape:pagecheckerboard="0"
     inkscape:deskcolor="#d1d1d1" />
  <g
     transform="translate(13.595239,14.440625)"
     id="g1">
    <use
       ffdec:characterId="3140"
       height="67.199997"
       transform="matrix(0.4221,0,0,0.4221,-15.25,-1.25)"
       width="64.099998"
       xlink:href="#shape0"
       id="use1" />
  </g>
  <defs
     id="defs7">
    <g
       id="shape0">
      <path
         d="m 28.6,-28.75 q 6.55,0.25 11.05,1.25 l 6.45,1 4.35,-0.25 3,0.1 q 0.75,0.5 0.75,1.4 0,0.75 -1,1.95 l -3.5,3.5 -5.95,5.6 q 2,1.25 1.75,4 L 45,-8.85 h 0.25 q 3.6,2.85 7.7,5.35 8.2,5.1 11.7,13.55 1,2.75 0.85,5.7 -1,9.35 -9.7,14.45 -2.85,1.75 -6.6,2.6 -3.85,0.75 -7.3,0 l -9.1,0.25 Q 27.35,33.9 22.25,32.9 18.9,32.3 16,30.7 7.2,25.45 6.45,16.25 6.2,13.3 8.3,8.3 10.55,3.35 18.5,-1.9 q 7.95,-5.35 9.7,-7.7 -0.35,-0.6 -0.5,-1.35 -0.6,-2.25 1.15,-3.85 0.35,-1.4 -5.1,-4.25 -5.5,-3 -5.35,-4.6 0,-1.75 2.7,-3.35 2.65,-1.65 7.5,-1.75"
         fill="#ffffff"
         fill-rule="evenodd"
         stroke="none"
         id="path1" />
      <path
         d="m 28.6,-28.75 q 6.55,0.25 11.05,1.25 l 6.45,1 4.35,-0.25 3,0.1 q 0.75,0.5 0.75,1.4 0,0.75 -1,1.95 l -3.5,3.5 -5.95,5.6 q 2,1.25 1.75,4 L 45,-8.85 h 0.25 q 3.6,2.85 7.7,5.35 8.2,5.1 11.7,13.55 1,2.75 0.85,5.7 -1,9.35 -9.7,14.45 -2.85,1.75 -6.6,2.6 -3.85,0.75 -7.3,0 l -9.1,0.25 Q 27.35,33.9 22.25,32.9 18.9,32.3 16,30.7 7.2,25.45 6.45,16.25 6.2,13.3 8.3,8.3 10.55,3.35 18.5,-1.9 q 7.95,-5.35 9.7,-7.7 -0.35,-0.6 -0.5,-1.35 -0.6,-2.25 1.15,-3.85 0.35,-1.4 -5.1,-4.25 -5.5,-3 -5.35,-4.6 0,-1.75 2.7,-3.35 2.65,-1.65 7.5,-1.75 z"
         fill="none"
         stroke="#ffffff"
         stroke-linecap="round"
         stroke-linejoin="round"
         stroke-width="5"
         id="path2" />
      <path
         d="m 28.55,-28.75 q 6.55,0.25 11.05,1.25 l 6.45,1 4.35,-0.25 3,0.1 q 0.75,0.5 0.75,1.4 0,0.75 -1,1.95 l -3.5,3.5 -5.95,5.6 q 2,1.25 1.75,4 l -0.5,1.35 h 0.25 q 3.6,2.85 7.7,5.35 8.2,5.1 11.7,13.55 1,2.75 0.85,5.7 -1,9.35 -9.7,14.45 -2.85,1.75 -6.6,2.6 -3.85,0.75 -7.3,0 l -9.1,0.25 Q 27.3,33.9 22.2,32.9 18.85,32.3 15.95,30.7 7.15,25.45 6.4,16.25 6.15,13.3 8.25,8.3 10.5,3.35 18.45,-1.9 q 7.95,-5.35 9.7,-7.7 l -0.5,-1.35 q -0.6,-2.25 1.15,-3.85 0.35,-1.4 -5.1,-4.25 -5.5,-3 -5.35,-4.6 0,-1.75 2.7,-3.35 2.65,-1.65 7.5,-1.75 m 7.3,9.35 q 0.9,0.95 1.9,3.95 l 2.6,0.5 0.85,-0.75 q 3.6,-2.6 8.45,-7.7 l -6.45,0.25 Q 39.6,-23.55 35,-24.75 30.25,-26 24.55,-24.9 l -1.75,0.4 q -1.85,0.6 1.25,1.95 l 4.85,2.75 q 1.6,1.25 3.35,3.5 l 0.4,0.5 h 1.75 1.1 q -0.25,-2.15 -1.85,-3.6 -1.75,-1.5 -1.9,-2.25 -0.1,-0.75 1.65,0.25 1.6,0.85 2.45,2 m -2.45,5.7 -2,0.35 q -1.15,0.4 -1.15,1.65 0,1.1 1.75,1.25 l 5.25,0.85 q 3.95,0.6 5.45,-0.5 1.4,-1.25 0,-1.85 -1.35,-0.9 -4.85,-1.15 L 33.4,-13.7 M 16.45,3.95 q -4.2,3.5 -5.7,8.7 -1.6,5.25 2,10.35 3.6,5.05 8.45,6.55 4.85,1.25 10.55,0.25 L 44.7,29.2 q 7.2,0.5 12.95,-5.5 7.2,-7.45 1.35,-16.15 l -1.6,-2 q -6.25,-5.6 -13.2,-10.3 l -2.85,-2.75 -6,-0.35 -3.6,-0.65 q -1.1,2.9 -6.2,6 -5.1,3.1 -9.1,6.45"
         fill="#000000"
         fill-rule="evenodd"
         stroke="none"
         id="path3" />
      <path
         d="m 35.85,-19.4 q -0.85,-1.15 -2.45,-2 -1.75,-1 -1.65,-0.25 0.15,0.75 1.9,2.25 1.6,1.45 1.85,3.6 h -1.1 -1.75 l -0.4,-0.5 q -1.75,-2.25 -3.35,-3.5 l -4.85,-2.75 q -3.1,-1.35 -1.25,-1.95 l 1.75,-0.4 q 5.7,-1.1 10.45,0.15 4.6,1.2 8.2,1.6 l 6.45,-0.25 q -4.85,5.1 -8.45,7.7 l -0.85,0.75 -2.6,-0.5 q -1,-3 -1.9,-3.95 M 16.45,3.95 q 4,-3.35 9.1,-6.45 5.1,-3.1 6.2,-6 l 3.6,0.65 6,0.35 2.85,2.75 q 6.95,4.7 13.2,10.3 l 1.6,2 q 5.85,8.7 -1.35,16.15 -5.75,6 -12.95,5.5 l -12.95,0.6 q -5.7,1 -10.55,-0.25 -4.85,-1.5 -8.45,-6.55 -3.6,-5.1 -2,-10.35 1.5,-5.2 5.7,-8.7"
         fill="#7b5040"
         fill-rule="evenodd"
         stroke="none"
         id="path4" />
      <path
         d="m 33.4,-13.7 4.45,0.6 q 3.5,0.25 4.85,1.15 1.4,0.6 0,1.85 -1.5,1.1 -5.45,0.5 L 32,-10.45 q -1.75,-0.15 -1.75,-1.25 0,-1.25 1.15,-1.65 l 2,-0.35"
         fill="#fff29c"
         fill-rule="evenodd"
         stroke="none"
         id="path5" />
      <path
         d="m 36.6,-5.1 q 1.1,0.25 1.1,1.75 -0.05,1.45 0.05,2.45 2,0 3.15,0.8 1.65,1.15 2.05,3.05 l -0.6,0.6 q -0.65,0.3 -0.95,0 L 40.25,2.3 Q 39.35,1.45 37.8,1.65 l 0.15,6.55 q 3.65,1.05 5.45,2.75 1.75,1.65 1.75,3.95 -0.05,2.25 -2.15,4.3 -2.1,2.05 -4.9,2.25 l -0.05,2.2 -0.35,1.6 -1.05,0.15 q -0.7,-0.2 -0.75,-1.35 l -0.1,-2.5 -3.25,-0.45 q -2.05,-0.55 -2.65,-2.25 -0.65,-1.7 0.25,-1.9 0.9,-0.25 1.6,0.75 0.65,0.95 1.6,1.15 l 2.25,0.25 v -6.05 -3 Q 32.95,9.1 30.85,7.3 29.15,5.8 29.9,3.75 30.4,2.35 31.6,1.4 33.25,0.05 35.3,-0.45 35.2,-2.9 35.35,-4 35.5,-5.4 36.6,-5.1 m 4.45,17.45 q -1.8,-1.35 -3,-1.65 l 0.05,4 v 4.05 q 3,-0.25 3.9,-2.65 0.85,-2.4 -0.95,-3.75 M 32.75,6.1 q 0.85,0.85 2.65,1.35 l 0.2,-5.3 q -2.45,0.45 -3.1,1.8 -0.65,1.3 0.25,2.15"
         fill="#fff29c"
         fill-rule="evenodd"
         stroke="none"
         id="path6" />
      <path
         d="m 36.6,-5.1 q 1.1,0.25 1.1,1.75 -0.05,1.45 0.05,2.45 2,0 3.15,0.8 1.65,1.15 2.05,3.05 l -0.6,0.6 q -0.65,0.3 -0.95,0 L 40.25,2.3 Q 39.35,1.45 37.8,1.65 l 0.15,6.55 q 3.65,1.05 5.45,2.75 1.75,1.65 1.75,3.95 -0.05,2.25 -2.15,4.3 -2.1,2.05 -4.9,2.25 l -0.05,2.2 -0.35,1.6 -1.05,0.15 q -0.7,-0.2 -0.75,-1.35 l -0.1,-2.5 -3.25,-0.45 q -2.05,-0.55 -2.65,-2.25 -0.65,-1.7 0.25,-1.9 0.9,-0.25 1.6,0.75 0.65,0.95 1.6,1.15 l 2.25,0.25 v -6.05 -3 Q 32.95,9.1 30.85,7.3 29.15,5.8 29.9,3.75 30.4,2.35 31.6,1.4 33.25,0.05 35.3,-0.45 35.2,-2.9 35.35,-4 35.5,-5.4 36.6,-5.1 m 4.45,17.45 q -1.8,-1.35 -3,-1.65 l 0.05,4 v 4.05 q 3,-0.25 3.9,-2.65 0.85,-2.4 -0.95,-3.75 M 32.75,6.1 q 0.85,0.85 2.65,1.35 l 0.2,-5.3 q -2.45,0.45 -3.1,1.8 -0.65,1.3 0.25,2.15 z"
         ffdec:has-small-stroke="true"
         ffdec:original-stroke-width="1.0"
         fill="none"
         stroke="#fff29c"
         stroke-linecap="round"
         stroke-linejoin="round"
         stroke-width="2.369"
         id="path7" />
    </g>
  </defs>
</svg>
