<?xml version="1.0" encoding="UTF-8" standalone="no"?>
<svg
   ffdec:objectType="frame"
   height="31.468569"
   width="29.237974"
   version="1.1"
   id="svg5"
   sodipodi:docname="STATUS_Doomed_Icon.svg"
   xmlns:inkscape="http://www.inkscape.org/namespaces/inkscape"
   xmlns:sodipodi="http://sodipodi.sourceforge.net/DTD/sodipodi-0.dtd"
   xmlns:xlink="http://www.w3.org/1999/xlink"
   xmlns="http://www.w3.org/2000/svg"
   xmlns:svg="http://www.w3.org/2000/svg"
   xmlns:ffdec="https://www.free-decompiler.com/flash">
  <sodipodi:namedview
     id="namedview5"
     pagecolor="#ffffff"
     bordercolor="#000000"
     borderopacity="0.25"
     inkscape:showpageshadow="2"
     inkscape:pageopacity="0.0"
     inkscape:pagecheckerboard="0"
     inkscape:deskcolor="#d1d1d1" />
  <g
     transform="translate(13.937251,16.099999)"
     id="g1">
    <use
       ffdec:characterId="3230"
       height="31.450001"
       transform="translate(-12.75,-14.55)"
       width="29.25"
       xlink:href="#sprite0"
       id="use1" />
  </g>
  <defs
     id="defs5">
    <g
       id="sprite0">
      <use
         ffdec:characterId="3229"
         height="31.450001"
         width="29.25"
         xlink:href="#shape0"
         id="use2" />
    </g>
    <g
       id="shape0">
      <path
         d="M 22,24.85 Q 18.7,27.65 14.25,27.9 10.95,28.05 8.15,27 5.6,25.85 4,24.15 2.35,22.35 1.75,21 1.15,19.5 0.85,17.85 0.55,13.65 2.6,10.05 3.55,8.3 5.1,7 6.35,6 7.7,5.2 L 7.2,4.2 Q 6.8,3.4 6.9,2.9 7,2.35 7.2,2.15 l 1.05,-0.7 q 0.85,-0.4 2,-0.65 l 2.7,-0.35 2.3,0.25 1,0.55 0.45,0.95 v 1.6 q 3.05,0.35 6.2,3.6 3.2,3.25 3.15,8.75 -0.05,5.4 -4.05,8.7 z"
         fill="none"
         stroke="#ffffff"
         stroke-linecap="round"
         stroke-linejoin="round"
         stroke-width="4"
         id="path2" />
      <path
         d="M 8.15,3.15 Q 8.45,2.25 9.95,1.8 L 13.2,1.25 q 1.7,-0.15 2.6,1 0.85,1.1 0.2,2.15 l 1,0.35 q 3.1,0.95 5.75,3.45 2.6,2.45 2.6,8.5 -0.05,6 -4.9,8.75 -3.45,1.95 -8.4,1.95 -5.7,0 -8.3,-4.15 Q 1.1,19.1 1.55,15.25 2,11.4 4.3,8.95 6.55,6.5 8.75,5.6 7.8,4.05 8.15,3.15"
         fill="#4f3f6a"
         fill-rule="evenodd"
         stroke="none"
         id="path3" />
      <path
         d="m 6.7,9.7 q 0.9,-1.1 2.95,-2.1 2.05,-1 4.25,-0.95 2.2,0 4.2,1.05 2.05,1.1 3.2,2.95 l 0.65,1.4 q 0.55,1.65 0.2,3.55 -0.35,1.8 -1.6,3.2 l -0.65,0.8 0.1,2.15 q 0.05,0.85 -0.6,1.2 l -1.25,0.1 q -0.6,-0.2 -1.45,-2.6 0.2,2.2 -0.1,3 -0.3,0.8 -1.2,0.85 -0.95,0.05 -1.4,-0.45 -0.5,-0.45 -1.1,-2.7 L 12.6,23.4 Q 12.45,24.65 10.95,24.5 9.45,24.35 9.1,22.75 L 8.55,20.45 Q 7.05,19.65 6.1,18.3 4.9,16.8 4.85,14.95 4.75,13.1 5.3,11.95 5.8,10.75 6.7,9.7 m 8.55,6.1 q 0.05,0.65 0.8,0.9 l 1.45,0.1 1.3,-0.45 1.15,-1.1 q 0.6,-0.85 0.55,-1.6 l -0.2,-1.2 -0.5,-0.7 Q 19.4,11.45 18.7,11.4 18,11.35 17.25,12.45 l -1.4,1.8 Q 15.1,15 15.25,15.8 m -2.2,0 q 0.2,-1 -0.7,-1.5 l -1.9,-1.6 Q 9.15,11.5 8.25,12.25 7.5,12.8 7.55,14 q 0,1.15 0.85,2.15 0.85,0.9 1.9,1.1 l 1.8,-0.05 q 0.8,-0.3 0.95,-1.4"
         fill="#776694"
         fill-rule="evenodd"
         stroke="none"
         id="path4" />
      <path
         d="m 24.4,14.25 q -0.6,-4 -2.9,-6.2 Q 19.15,5.95 16.85,5.5 L 13.15,5.2 11.3,5.5 10.35,5.75 9,6.3 7.3,7.3 4.85,9.5 q -1.65,1.6 -2.3,4.65 -0.65,3 0.5,5.65 1.05,2.6 2.7,4 1.6,1.3 3.9,2.1 l 5.25,0.4 q 2.9,-0.35 4.95,-1.65 1.95,-1.3 3.6,-3.85 1.6,-2.55 0.95,-6.55 m -4.75,-0.7 h 1.3 q 0.55,0.15 0.6,0.45 0.05,0.35 -0.4,0.6 -0.5,0.4 -1.2,0.5 h -1.3 l -0.6,-0.45 Q 18,14.35 18.5,14 18.95,13.7 19.65,13.55 M 22,24.95 Q 18.7,27.75 14.25,28 10.95,28.15 8.15,27.1 5.6,25.95 4,24.25 2.35,22.45 1.75,21.1 1.15,19.6 0.85,17.95 0.55,13.75 2.6,10.15 3.55,8.4 5.1,7.1 6.35,6.1 7.7,5.3 L 7.2,4.3 Q 6.8,3.5 6.9,3 7,2.45 7.2,2.25 l 1.05,-0.7 q 0.85,-0.4 2,-0.65 l 2.7,-0.35 2.3,0.25 1,0.55 0.45,0.95 v 1.6 q 3.05,0.35 6.2,3.6 3.2,3.25 3.15,8.75 Q 26,21.65 22,24.95 M 15,2.7 Q 14.8,2.3 14.2,2.3 L 10.95,2.4 Q 9.85,2.65 9.05,3.3 L 9.3,4.15 9.4,4.45 11.65,3.9 15.05,3.75 15,2.7 m -1.4,6 -0.05,1.25 Q 13.4,10.5 13.05,10.5 L 12.4,10.1 Q 12.05,9.65 11.95,8.9 l 0.1,-1.25 q 0.2,-0.55 0.5,-0.6 0.35,-0.05 0.7,0.5 L 13.6,8.7 m 2.95,3.15 1.85,-1.7 q 0.9,-0.9 1.45,-0.95 0.5,-0.05 0.7,0.2 0.4,0.9 -0.7,1.75 -2.45,1.55 -4.9,4.1 L 15,15.6 q 0,0.55 -0.4,0.95 l -0.7,0.4 Q 13.2,17.1 12.55,16.6 L 12.2,16.2 12.05,15.85 q -0.2,-0.5 0,-0.95 l 0.35,-0.6 0.45,-0.35 0.5,-0.1 0.3,0.05 1.5,-1 1.4,-1.05 M 8.9,11.45 8.65,12.05 8.05,12.3 7.45,12.05 7.2,11.45 q 0,-0.35 0.25,-0.6 0.25,-0.25 0.6,-0.25 l 0.6,0.25 0.25,0.6 M 6.85,15.9 q 0.75,-0.15 1.3,0 0.5,0.15 0.6,0.45 0.05,0.35 -0.45,0.7 L 7.15,17.5 5.9,17.45 Q 5.35,17.3 5.3,17 5.2,16.65 5.7,16.3 L 6.85,15.9 M 10.2,21.3 9.95,21.95 9.3,22.2 q -0.35,0 -0.6,-0.25 L 8.45,21.3 8.7,20.65 Q 8.95,20.4 9.3,20.4 l 0.65,0.25 0.25,0.65 m 5.15,0.75 -0.05,1.25 -0.5,0.55 -0.6,-0.4 -0.4,-1.25 q -0.1,-0.7 0.1,-1.2 0.15,-0.55 0.45,-0.6 0.3,-0.05 0.6,0.4 0.3,0.5 0.4,1.25 M 20.1,19.6 19.9,20.2 19.3,20.45 18.75,20.2 18.5,19.6 q 0,-0.3 0.25,-0.55 l 0.55,-0.25 0.6,0.25 0.2,0.55"
         fill="#000000"
         fill-rule="evenodd"
         stroke="none"
         id="path5" />
    </g>
  </defs>
</svg>
