<?xml version="1.0" encoding="UTF-8" standalone="no"?>
<svg
   ffdec:objectType="frame"
   height="34.387764"
   width="32.793274"
   version="1.1"
   id="svg8"
   sodipodi:docname="STATUS_Kinetic_Spikes_Icon.svg"
   xmlns:inkscape="http://www.inkscape.org/namespaces/inkscape"
   xmlns:sodipodi="http://sodipodi.sourceforge.net/DTD/sodipodi-0.dtd"
   xmlns:xlink="http://www.w3.org/1999/xlink"
   xmlns="http://www.w3.org/2000/svg"
   xmlns:svg="http://www.w3.org/2000/svg"
   xmlns:ffdec="https://www.free-decompiler.com/flash">
  <sodipodi:namedview
     id="namedview8"
     pagecolor="#ffffff"
     bordercolor="#000000"
     borderopacity="0.25"
     inkscape:showpageshadow="2"
     inkscape:pageopacity="0.0"
     inkscape:pagecheckerboard="0"
     inkscape:deskcolor="#d1d1d1" />
  <g
     transform="translate(16.08079,18.730877)"
     id="g1">
    <use
       ffdec:characterId="3164"
       height="30.200001"
       transform="matrix(1.1387,0,0,1.1387,-12.95,-15.6)"
       width="28.799999"
       xlink:href="#sprite0"
       id="use1" />
  </g>
  <defs
     id="defs8">
    <g
       id="sprite0">
      <use
         ffdec:characterId="3163"
         height="30.200001"
         width="28.799999"
         xlink:href="#shape0"
         id="use2" />
    </g>
    <g
       id="shape0">
      <path
         d="m 13.5,26.15 q 2.65,-3.85 2.4,-9.8 l 3.75,1.45 -6.15,8.35 M 4.7,7.3 l 9,-4.4 q 1,10.7 -3.55,23.55 Q 9.35,16.25 4.7,7.3"
         fill="#ffffff"
         fill-rule="evenodd"
         stroke="none"
         id="path2" />
      <path
         d="m 7.05,26.4 q -2.1,-3.1 -1.9,-7.85 l -3,1.2 4.9,6.65 m 6.45,-0.25 q 2.65,-3.85 2.4,-9.8 l 3.75,1.45 -6.15,8.35 M 4.7,7.3 Q 9.35,16.25 10.15,26.45 14.7,13.6 13.7,2.9 Z"
         fill="none"
         stroke="#ffffff"
         stroke-linecap="round"
         stroke-linejoin="round"
         stroke-width="2"
         id="path3" />
      <path
         d="M 13.9,3.15 V 3.2 L 12.2,6.1 15.4,9.9 10.55,8.95 7.9,13.1 7.3,8.2 2.5,7 7,4.95 6.7,0 10.05,3.65 14.65,1.8 13.9,3.15 M 7,17.5 5.55,19.9 7.25,22.2 4.5,21.5 2.9,23.85 2.7,21 0,20.25 2.6,19.15 2.55,16.3 4.35,18.45 7,17.5 m 12.35,4.1 -2.1,-3.1 -3.65,0.75 2.3,-2.9 -1.95,-3.25 3.5,1.3 2.5,-2.8 -0.15,3.75 3.5,1.5 -3.65,0.95 -0.3,3.8"
         fill="#ffffff"
         fill-rule="evenodd"
         stroke="none"
         id="path4" />
      <path
         d="M 13.9,3.2 12.2,6.1 15.4,9.9 10.55,8.95 7.9,13.1 7.3,8.2 2.5,7 7,4.95 6.7,0 10.05,3.65 14.65,1.8 13.9,3.15 M 7,17.5 5.55,19.9 7.25,22.2 4.5,21.5 2.9,23.85 2.7,21 0,20.25 2.6,19.15 2.55,16.3 4.35,18.45 7,17.5 m 12.35,4.1 -2.1,-3.1 -3.65,0.75 2.3,-2.9 -1.95,-3.25 3.5,1.3 2.5,-2.8 -0.15,3.75 3.5,1.5 -3.65,0.95 z"
         fill="none"
         stroke="#ffffff"
         stroke-linecap="round"
         stroke-linejoin="round"
         stroke-width="5.5"
         id="path5" />
      <path
         d="M 13.9,3.2 12.2,6.1 15.4,9.9 10.55,8.95 7.9,13.1 7.3,8.2 2.5,7 7,4.95 6.7,0 10.05,3.65 14.65,1.8 13.9,3.15 V 3.2 M 7,17.5 5.55,19.9 7.25,22.2 4.5,21.5 2.9,23.85 2.7,21 0,20.25 2.6,19.15 2.55,16.3 4.35,18.45 7,17.5 m 12.35,4.1 -2.1,-3.1 -3.65,0.75 2.3,-2.9 -1.95,-3.25 3.5,1.3 2.5,-2.8 -0.15,3.75 3.5,1.5 -3.65,0.95 -0.3,3.8"
         fill="#ffffff"
         fill-rule="evenodd"
         stroke="none"
         id="path6" />
      <path
         d="M 13.8,20.25 13.2,20.2 12.75,19.8 12.6,19.2 q 0.05,-0.35 0.25,-0.55 l 1.85,-2.35 -1.6,-2.65 -0.15,-0.6 q 0,-0.35 0.25,-0.55 l 0.5,-0.35 0.6,0.05 2.85,1.05 2.05,-2.3 0.55,-0.3 0.6,0.05 0.45,0.4 0.15,0.55 -0.1,3.05 2.85,1.25 0.45,0.4 0.15,0.6 -0.25,0.55 -0.5,0.35 -2.95,0.75 -0.25,3.1 -0.2,0.55 -0.55,0.35 -0.6,-0.05 -0.45,-0.4 -1.75,-2.55 -3,0.65 m 2.4,-11 0.2,0.6 -0.15,0.55 -0.45,0.45 -0.6,0.05 -4.15,-0.85 -2.3,3.6 L 8.3,14.05 7.7,14.1 7.15,13.8 6.9,13.25 6.4,9 2.25,8 1.75,7.65 1.5,7.1 1.65,6.5 Q 1.8,6.25 2.1,6.1 L 5.95,4.35 5.7,0.05 5.85,-0.5 6.3,-0.9 6.95,-0.95 q 0.25,0.05 0.5,0.3 l 2.85,3.15 4,-1.6 0.6,-0.05 0.5,0.3 0.25,0.55 -0.1,0.6 -2.1,3.7 2.75,3.25 M 13.9,3.2 V 3.15 L 14.65,1.8 10.05,3.65 6.7,0 7,4.95 2.5,7 7.3,8.2 7.9,13.1 10.55,8.95 15.4,9.9 12.2,6.1 13.9,3.2 M 8.05,21.6 8.25,22.2 8.1,22.75 7.6,23.15 7,23.2 4.95,22.65 3.75,24.45 3.25,24.8 2.65,24.85 2.15,24.5 1.9,23.95 1.75,21.75 -0.25,21.2 -0.75,20.9 -1,20.3 -0.85,19.75 q 0.15,-0.3 0.45,-0.4 l 2,-0.85 -0.05,-2.15 0.2,-0.6 0.45,-0.35 0.6,-0.05 0.5,0.3 1.4,1.65 1.95,-0.7 0.6,-0.05 q 0.3,0.05 0.55,0.35 l 0.2,0.55 -0.15,0.6 -1.1,1.8 1.3,1.75 m 11.3,0 0.3,-3.8 3.65,-0.95 -3.5,-1.5 0.15,-3.75 -2.5,2.8 -3.5,-1.3 1.95,3.25 -2.3,2.9 3.65,-0.75 2.1,3.1 M 7,17.5 4.35,18.45 2.55,16.3 2.6,19.15 0,20.25 2.7,21 2.9,23.85 4.5,21.5 7.25,22.2 5.55,19.9 7,17.5"
         fill="#000000"
         fill-rule="evenodd"
         stroke="none"
         id="path7" />
      <path
         d="M 16.2,9.25 13.45,6 15.55,2.3 15.65,1.7 15.4,1.15 14.9,0.85 14.3,0.9 10.3,2.5 7.45,-0.65 Q 7.2,-0.9 6.95,-0.95 L 6.3,-0.9 5.85,-0.5 5.7,0.05 5.95,4.35 2.1,6.1 Q 1.8,6.25 1.65,6.5 L 1.5,7.1 1.75,7.65 2.25,8 6.4,9 l 0.5,4.25 0.25,0.55 0.55,0.3 0.6,-0.05 0.45,-0.4 2.3,-3.6 4.15,0.85 0.6,-0.05 0.45,-0.45 0.15,-0.55 -0.2,-0.6 m -2.4,11 3,-0.65 1.75,2.55 0.45,0.4 0.6,0.05 0.55,-0.35 0.2,-0.55 0.25,-3.1 2.95,-0.75 0.5,-0.35 0.25,-0.55 -0.15,-0.6 -0.45,-0.4 -2.85,-1.25 0.1,-3.05 -0.15,-0.55 -0.45,-0.4 -0.6,-0.05 -0.55,0.3 -2.05,2.3 -2.85,-1.05 -0.6,-0.05 -0.5,0.35 q -0.25,0.2 -0.25,0.55 l 0.15,0.6 1.6,2.65 -1.85,2.35 q -0.2,0.2 -0.25,0.55 l 0.15,0.6 0.45,0.4 0.6,0.05 M 8.05,21.6 6.75,19.85 7.85,18.05 8,17.45 7.8,16.9 Q 7.55,16.6 7.25,16.55 L 6.65,16.6 4.7,17.3 3.3,15.65 2.8,15.35 2.2,15.4 l -0.45,0.35 -0.2,0.6 0.05,2.15 -2,0.85 q -0.3,0.1 -0.45,0.4 L -1,20.3 l 0.25,0.6 0.5,0.3 2,0.55 0.15,2.2 0.25,0.55 0.5,0.35 0.6,-0.05 0.5,-0.35 1.2,-1.8 L 7,23.2 7.6,23.15 8.1,22.75 8.25,22.2 Z"
         fill="none"
         stroke="#000000"
         stroke-linecap="round"
         stroke-linejoin="round"
         stroke-width="1"
         id="path8" />
    </g>
  </defs>
</svg>
