<?xml version="1.0" encoding="UTF-8" standalone="no"?>
<svg
   ffdec:objectType="frame"
   height="33.481655"
   width="34.034409"
   version="1.1"
   id="svg4"
   sodipodi:docname="STATUS_Bleed_Thorns_Icon.svg"
   xmlns:inkscape="http://www.inkscape.org/namespaces/inkscape"
   xmlns:sodipodi="http://sodipodi.sourceforge.net/DTD/sodipodi-0.dtd"
   xmlns:xlink="http://www.w3.org/1999/xlink"
   xmlns="http://www.w3.org/2000/svg"
   xmlns:svg="http://www.w3.org/2000/svg"
   xmlns:ffdec="https://www.free-decompiler.com/flash">
  <sodipodi:namedview
     id="namedview4"
     pagecolor="#ffffff"
     bordercolor="#000000"
     borderopacity="0.25"
     inkscape:showpageshadow="2"
     inkscape:pageopacity="0.0"
     inkscape:pagecheckerboard="0"
     inkscape:deskcolor="#d1d1d1" />
  <g
     transform="translate(16.695452,16.616717)"
     id="g1">
    <use
       ffdec:characterId="3160"
       height="69.650002"
       transform="matrix(0.481,0,0,0.481,-13.45,-10.8)"
       width="70.800003"
       xlink:href="#shape0"
       id="use1" />
  </g>
  <defs
     id="defs4">
    <g
       id="shape0">
      <path
         d="M 27.85,-5.75 22.05,10.4 6.9,3.6 5.25,3 4.3,2.9 Q 3.9,3.1 5.1,5.3 l 7.7,13 Q -0.15,23.35 -2,24.15 -3.75,25 -3.05,25.7 q 0.7,0.7 8.45,2.65 l 7.9,2 -8.7,13.6 q -0.4,0.65 -0.1,1 L 5.9,45 23.1,37.65 v 0.05 q 3.25,14.65 3.65,15.65 0.4,1 1.15,0.6 l 0.75,-0.8 0.5,-0.95 5,-14.45 15.5,6.05 1.85,0.6 q 0.85,0.2 0.75,-0.25 L 51.95,43.35 42.1,28.2 q 17.65,-7.3 18.2,-7.75 0.75,-0.8 -0.95,-1.15 L 44.6,16.2 50.9,4.9 Q 51.55,3.35 51.25,3.05 50.95,2.7 50.75,2.7 L 50.1,2.8 34.8,9.2 30.9,-6.3 Q 30.55,-7.95 29.95,-8.45 29.4,-8.9 28.9,-8.15 Z"
         fill="none"
         stroke="#ffffff"
         stroke-linecap="round"
         stroke-linejoin="round"
         stroke-width="7"
         id="path1" />
      <path
         d="m 27.9,-5.9 1.05,-2.4 q 0.5,-0.75 1.05,-0.3 0.6,0.5 0.95,2.15 l 3.9,15.5 q 15,-6.35 15.3,-6.4 l 0.65,-0.1 0.5,0.35 q 0.3,0.3 -0.35,1.85 l -6.3,11.3 14.75,3.1 q 1.7,0.35 0.95,1.15 L 42.15,28.05 52,43.2 52.3,44 q 0.1,0.45 -0.75,0.25 L 49.7,43.65 34.2,37.6 29.2,52.05 28.7,53 27.95,53.8 Q 27.2,54.2 26.8,53.2 26.4,52.2 23.15,37.55 V 37.5 L 5.95,44.85 4.55,44.8 q -0.3,-0.35 0.1,-1 l 8.7,-13.6 -7.9,-2 Q -2.3,26.25 -3,25.55 -3.7,24.85 -1.95,24 -0.1,23.2 12.85,18.15 l -7.7,-13 q -1.2,-2.2 -0.8,-2.4 l 0.95,0.1 1.65,0.6 15.15,6.8 5.8,-16.15 m 19.25,12.7 -14.4,7.35 q -3.2,1.5 -2.05,0.25 L 31.85,13.2 29.15,0 24.5,13.5 q 3.5,2.6 1.05,1.75 l -15,-6.6 q 8.85,11.95 9.15,13 0.4,1.55 -3.05,-1.5 l -11.2,4.4 11.6,2.3 0.75,-0.7 Q 18.4,25.6 18.85,25.6 19.2,25.55 18.8,26.55 L 10.9,39.5 25.45,33.05 q 2.9,-1.05 0.5,1.35 L 27.9,45 31.45,34.65 31,34.2 30.35,33.3 q -0.2,-0.45 0.4,-0.3 l 15.95,6.8 -9.25,-14 q -0.35,-0.65 0,-0.8 0.3,-0.15 1.3,0.75 L 51.8,20.7 h -0.05 l -10.8,-1.65 -1.6,1.5 -1.3,1 q -0.95,0.6 -1,0.4 -0.1,-0.25 0.5,-1.25 l 9.6,-13.9"
         fill="#000000"
         fill-rule="evenodd"
         stroke="none"
         id="path2" />
      <path
         d="m 47.15,6.8 -9.6,13.9 q -0.6,1 -0.5,1.25 0.05,0.2 1,-0.4 l 1.3,-1 1.6,-1.5 10.8,1.65 h 0.05 l -13.05,5.05 q -1,-0.9 -1.3,-0.75 -0.35,0.15 0,0.8 L 46.7,39.8 30.75,33 q -0.6,-0.15 -0.4,0.3 L 31,34.2 31.45,34.65 27.9,45 25.95,34.4 q 2.4,-2.4 -0.5,-1.35 L 10.9,39.5 18.8,26.55 q 0.4,-1 0.05,-0.95 -0.45,0 -1.05,0.55 l -0.75,0.7 -11.6,-2.3 11.2,-4.4 q 3.45,3.05 3.05,1.5 -0.3,-1.05 -9.15,-13 l 15,6.6 Q 28,16.1 24.5,13.5 L 29.15,0 l 2.7,13.2 -1.15,1.2 q -1.15,1.25 2.05,-0.25 L 47.15,6.8"
         fill="#9e3c3c"
         fill-rule="evenodd"
         stroke="none"
         id="path3" />
      <path
         d="M 27.9,-5.9 22.1,10.25 6.95,3.45 5.3,2.85 4.35,2.75 q -0.4,0.2 0.8,2.4 l 7.7,13 Q -0.1,23.2 -1.95,24 -3.7,24.85 -3,25.55 q 0.7,0.7 8.45,2.65 l 7.9,2 -8.7,13.6 q -0.4,0.65 -0.1,1 l 1.4,0.05 17.2,-7.35 v 0.05 q 3.25,14.65 3.65,15.65 0.4,1 1.15,0.6 l 0.75,-0.8 0.5,-0.95 5,-14.45 15.5,6.05 1.85,0.6 Q 52.4,44.45 52.3,44 L 52,43.2 42.15,28.05 60.35,20.3 Q 61.1,19.5 59.4,19.15 l -14.75,-3.1 6.3,-11.3 Q 51.6,3.2 51.3,2.9 l -0.5,-0.35 -0.65,0.1 q -0.3,0.05 -15.3,6.4 l -3.9,-15.5 Q 30.6,-8.1 30,-8.6 29.45,-9.05 28.95,-8.3 Z"
         ffdec:has-small-stroke="true"
         ffdec:original-stroke-width="1.0"
         fill="none"
         stroke="#000000"
         stroke-linecap="round"
         stroke-linejoin="round"
         stroke-width="2.07879"
         id="path4" />
    </g>
  </defs>
</svg>
