<?xml version="1.0" encoding="UTF-8" standalone="no"?>
<svg
   ffdec:objectType="frame"
   height="29.110531"
   width="28.999998"
   version="1.1"
   id="svg6"
   sodipodi:docname="STATUS 87 Icon.svg"
   xmlns:inkscape="http://www.inkscape.org/namespaces/inkscape"
   xmlns:sodipodi="http://sodipodi.sourceforge.net/DTD/sodipodi-0.dtd"
   xmlns:xlink="http://www.w3.org/1999/xlink"
   xmlns="http://www.w3.org/2000/svg"
   xmlns:svg="http://www.w3.org/2000/svg"
   xmlns:ffdec="https://www.free-decompiler.com/flash">
  <sodipodi:namedview
     id="namedview6"
     pagecolor="#ffffff"
     bordercolor="#000000"
     borderopacity="0.25"
     inkscape:showpageshadow="2"
     inkscape:pageopacity="0.0"
     inkscape:pagecheckerboard="0"
     inkscape:deskcolor="#d1d1d1" />
  <g
     transform="translate(14.55,14.701004)"
     id="g1">
    <use
       ffdec:characterId="3195"
       height="29.15"
       transform="translate(-14.25,-13.95)"
       width="29.049999"
       xlink:href="#sprite0"
       id="use1" />
  </g>
  <defs
     id="defs6">
    <g
       id="sprite0">
      <use
         ffdec:characterId="3194"
         height="29.15"
         width="29.049999"
         xlink:href="#shape0"
         id="use2" />
    </g>
    <g
       id="shape0">
      <path
         d="m 8.75,14.2 q 0,-0.95 0.6,-1.75 L 9.95,11.35 10,10.4 Q 9.85,7.3 11.65,4.85 13.4,2.4 16.3,1.35 q 2.5,-1 4.85,-0.35 1.7,0.5 3.1,2.05 l 0.3,0.35 q 1.15,1.3 2.05,3.65 l 0.45,1.35 0.15,0.85 -0.35,2.25 q -1.25,3.95 -4.45,5.8 l -1.45,0.75 -2.6,0.1 -1.55,-0.35 q -0.4,-0.05 -0.65,0.5 -0.25,0.5 -1.85,1.1 l -0.5,0.1 -0.2,0.15 q -2.2,1.7 -2.3,2.1 l -0.65,1.65 -1,1.95 -1.75,1.3 Q 6.6,27.25 5.45,26.4 4.25,25.55 4,24.5 L 3.95,24.15 V 23.7 L 3.2,23.65 2.9,23.55 2.2,23.2 q -0.8,-0.7 -1,-1.6 v -1.25 q 0.2,-1.3 1,-2.1 0.8,-0.95 2.05,-1.1 l 2.5,0.4 0.6,0.1 L 7.9,17.3 9.25,15.7 Q 8.7,15.1 8.75,14.2"
         fill="#ffffff"
         fill-rule="evenodd"
         stroke="none"
         id="path2" />
      <path
         d="m 8.75,14.2 q 0,-0.95 0.6,-1.75 L 9.95,11.35 10,10.4 Q 9.85,7.3 11.65,4.85 13.4,2.4 16.3,1.35 q 2.5,-1 4.85,-0.35 1.7,0.5 3.1,2.05 l 0.3,0.35 q 1.15,1.3 2.05,3.65 l 0.45,1.35 0.15,0.85 -0.35,2.25 q -1.25,3.95 -4.45,5.8 l -1.45,0.75 -2.6,0.1 -1.55,-0.35 q -0.4,-0.05 -0.65,0.5 -0.25,0.5 -1.85,1.1 l -0.5,0.1 -0.2,0.15 q -2.2,1.7 -2.3,2.1 l -0.65,1.65 -1,1.95 -1.75,1.3 Q 6.6,27.25 5.45,26.4 4.25,25.55 4,24.5 L 3.95,24.15 V 23.7 L 3.2,23.65 2.9,23.55 2.2,23.2 q -0.8,-0.7 -1,-1.6 v -1.25 q 0.2,-1.3 1,-2.1 0.8,-0.95 2.05,-1.1 l 2.5,0.4 0.6,0.1 L 7.9,17.3 9.25,15.7 Q 8.7,15.1 8.75,14.2 Z"
         fill="none"
         stroke="#ffffff"
         stroke-linecap="round"
         stroke-linejoin="round"
         stroke-width="3"
         id="path3" />
      <path
         d="m 8.75,14.25 q 0,-0.95 0.6,-1.75 L 9.95,11.4 10,10.45 Q 9.85,7.35 11.65,4.9 13.4,2.45 16.3,1.4 q 2.5,-1 4.85,-0.35 1.7,0.5 3.1,2.05 l 0.3,0.35 q 1.15,1.3 2.05,3.65 l 0.45,1.35 0.15,0.85 -0.35,2.25 q -1.25,3.95 -4.45,5.8 l -1.45,0.75 -2.6,0.1 -1.55,-0.35 q -0.4,-0.05 -0.65,0.5 -0.25,0.5 -1.85,1.1 l -0.5,0.1 -0.2,0.15 q -2.2,1.7 -2.3,2.1 l -0.65,1.65 -1,1.95 -1.75,1.3 Q 6.6,27.3 5.45,26.45 4.25,25.6 4,24.55 L 3.95,24.2 V 23.75 L 3.2,23.7 2.9,23.6 2.2,23.25 q -0.8,-0.7 -1,-1.6 V 20.4 q 0.2,-1.3 1,-2.1 0.8,-0.95 2.05,-1.1 l 2.5,0.4 0.6,0.1 0.55,-0.35 1.35,-1.6 q -0.55,-0.6 -0.5,-1.5 m 6.75,-2.3 1.15,0.05 1,0.45 1.1,0.1 q 0.5,-0.1 1.45,-0.75 l 1.3,-1.25 0.65,-1.6 q 0.4,-1.4 0.55,-1.3 l 0.2,0.7 v 1.2 q 0,0.75 -0.55,1.75 -0.55,1 -1.7,2 -0.75,0.65 -1.85,0.8 l -1.15,-0.1 -1.1,-0.4 -0.6,-0.1 q -0.9,0.2 -1,-0.75 -0.05,-0.55 0.55,-0.8 m -2.5,6 h 0.6 l 0.9,-0.25 0.8,-0.8 q 0.35,-0.55 0.8,-0.7 l 1.55,-0.05 1.15,0.05 q 1.95,0 3.45,-1.45 1.3,-1.2 2.1,-3.05 0.5,-1.05 0.45,-1.85 Q 24.9,8.7 23.95,6.9 22.25,3.8 20.35,3.3 18.75,2.85 16.85,3.75 14.9,4.6 13.7,6.3 12.55,7.8 12.4,8.85 l -0.1,1.8 v 1.2 l -0.6,1.2 -0.5,0.65 q -0.3,0.5 -0.15,0.9 0.15,0.3 0.55,0.4 l 0.75,-0.05 q 0.8,-0.45 1.25,-0.55 l 0.55,0.1 0.1,0.55 -0.4,0.7 -1.3,0.95 -0.7,0.15 -0.8,-0.05 -2.4,2.75 q -0.55,0.5 -1,0.6 l -1.2,-0.3 -1.25,-0.5 q -0.85,-0.2 -1.25,0.2 -0.3,0.2 -0.55,0.95 l -0.1,0.65 q 0.2,0.55 1.2,0.5 l 1.35,0.1 0.4,0.35 0.05,0.4 -0.15,0.7 Q 6.1,24.15 6.5,24.55 l 1.1,-0.05 0.9,-1.15 0.7,-1.4 q 0.15,-0.5 0.95,-1.65 0.8,-1.15 2.8,-2.35 V 18 17.95 H 13"
         fill="#000000"
         fill-rule="evenodd"
         stroke="none"
         id="path4" />
      <path
         d="m 12.55,16.7 1.3,-0.95 0.4,-0.7 -0.1,-0.55 -0.55,-0.1 q -0.45,0.1 -1.25,0.55 L 11.6,15 Q 11.2,14.9 11.05,14.6 10.9,14.2 11.2,13.7 l 0.5,-0.65 0.6,-1.2 v -1.2 l 0.1,-1.8 q 0.15,-1.05 1.3,-2.55 1.2,-1.7 3.15,-2.55 1.9,-0.9 3.5,-0.45 1.9,0.5 3.6,3.6 0.95,1.8 0.85,2.95 0.05,0.8 -0.45,1.85 -0.8,1.85 -2.1,3.05 -1.5,1.45 -3.45,1.45 L 17.65,16.15 16.1,16.2 q -0.45,0.15 -0.8,0.7 l -0.8,0.8 -0.9,0.25 H 13 12.95 l -0.35,-1 -0.05,-0.25 m 2.95,-4.75 q -0.6,0.25 -0.55,0.8 0.1,0.95 1,0.75 l 0.6,0.1 1.1,0.4 1.15,0.1 q 1.1,-0.15 1.85,-0.8 1.15,-1 1.7,-2 0.55,-1 0.55,-1.75 v -1.2 l -0.2,-0.7 q -0.15,-0.1 -0.55,1.3 l -0.65,1.6 -1.3,1.25 q -0.95,0.65 -1.45,0.75 l -1.1,-0.1 -1,-0.45 -1.15,-0.05 m -2.55,6 V 18 17.95"
         fill="#865d55"
         fill-rule="evenodd"
         stroke="none"
         id="path5" />
      <path
         d="m 12.55,16.7 0.05,0.25 0.35,1 H 13 12.95 q -2,1.2 -2.8,2.35 -0.8,1.15 -0.95,1.65 L 8.5,23.35 7.6,24.5 6.5,24.55 Q 6.1,24.15 6.15,23.2 L 6.3,22.5 6.25,22.1 5.85,21.75 4.5,21.65 q -1,0.05 -1.2,-0.5 L 3.4,20.5 q 0.25,-0.75 0.55,-0.95 0.4,-0.4 1.25,-0.2 l 1.25,0.5 1.2,0.3 q 0.45,-0.1 1,-0.6 l 2.4,-2.75 0.8,0.05 0.7,-0.15"
         fill="#827a78"
         fill-rule="evenodd"
         stroke="none"
         id="path6" />
    </g>
  </defs>
</svg>
