<?xml version="1.0" encoding="UTF-8" standalone="no"?>
<svg
   ffdec:objectType="frame"
   height="33.337688"
   width="31.999905"
   version="1.1"
   id="svg5"
   sodipodi:docname="STATUS_Bruise_Icon.svg"
   xmlns:inkscape="http://www.inkscape.org/namespaces/inkscape"
   xmlns:sodipodi="http://sodipodi.sourceforge.net/DTD/sodipodi-0.dtd"
   xmlns:xlink="http://www.w3.org/1999/xlink"
   xmlns="http://www.w3.org/2000/svg"
   xmlns:svg="http://www.w3.org/2000/svg"
   xmlns:ffdec="https://www.free-decompiler.com/flash">
  <sodipodi:namedview
     id="namedview5"
     pagecolor="#ffffff"
     bordercolor="#000000"
     borderopacity="0.25"
     inkscape:showpageshadow="2"
     inkscape:pageopacity="0.0"
     inkscape:pagecheckerboard="0"
     inkscape:deskcolor="#d1d1d1" />
  <g
     transform="translate(15.537498,16.572632)"
     id="g1">
    <use
       ffdec:characterId="3096"
       height="65.949997"
       transform="matrix(0.4834,0.1295,-0.1295,0.4834,-9.1,-17.1)"
       width="64.849998"
       xlink:href="#shape0"
       id="use1" />
  </g>
  <defs
     id="defs5">
    <g
       id="shape0">
      <path
         d="m 41.1,1.6 3.3,-0.25 0.8,0.5 -0.05,-0.05 q 0.6,0.4 1,1.15 1.25,1.8 0.6,3.2 l -0.3,0.6 -0.8,1.15 -0.75,0.95 -1.3,2.2 -0.9,1.7 q -1,1.95 -1.4,5.7 -0.45,3.7 1.55,5.25 l 0.5,0.3 1.85,0.75 h -0.05 l 3.9,1.1 1.2,0.2 3.6,0.15 q 5.6,-0.2 5.7,2.8 0.5,2.2 -0.4,3.4 l -1.5,1.6 -2.1,1.15 q -1.55,0.75 -2.1,2.4 -0.6,2.6 -0.55,4.55 0.05,1.9 -0.45,2.75 l -0.95,1.1 -1.3,0.5 -1.3,0.25 h -0.05 -0.4 q -1.9,-0.35 -2.9,-1.1 -3.5,-1.95 -7.4,-2.95 H 37.7 q -2.25,0.15 -2.9,2.75 v 0.05 q -1,3.85 -0.65,6.2 l 0.6,3.35 v 0.2 l 0.15,0.9 0.05,0.45 -0.05,0.7 -0.2,0.75 -0.25,0.65 q -0.3,0.8 -1.1,1.25 l -2.1,0.75 -0.75,0.05 H 30.2 Q 28.05,60.4 26.85,58.95 L 26.7,58.75 26.45,58.4 v 0.05 L 26.15,58.1 Q 25.4,57.3 24.3,56.9 l -0.45,-0.2 -2.7,-1.35 -1.85,-0.55 -2.35,-0.1 -4.6,0.9 Q 9,55.8 8.15,54.4 7.05,52.6 8.8,49.75 L 9.05,49.4 12.25,45 q 1.4,-3.2 1.05,-5.5 v 0.05 L 13,38.25 Q 12.2,36.15 11,35.15 9.8,34.1 8.15,33.55 L 5.25,32.95 3.4,33.1 0.35,33.3 h -0.1 q -4.7,0 -4.3,-3.7 0.1,-1.8 1.75,-3.45 3.05,-2.45 1.6,-6.1 -2.85,-3.95 -0.15,-6.9 1.5,-1.45 2.8,-1.35 1.7,0 2.7,1.15 l 1.05,0.8 1.6,0.9 2.3,0.9 2.6,0.45 3.8,0.2 q 2.25,0.05 2.85,-0.65 0.5,-0.6 1.1,-3.05 0.85,-3.65 0.6,-6.9 V 5.4 L 20.5,3.7 V 3.65 L 20.4,1.6 v 0.1 q -0.3,-1.8 0.3,-3.05 0.9,-2.35 3.1,-2.9 2.45,-0.05 3.55,1.2 l 1.15,1.45 q 3.35,3.35 7.75,3.95 h 2.7 L 41.1,1.6 M 30.7,55.75 H 30.75 30.7 M 25.45,2.4 25.35,1.1 V 1 0.5 q 0.6,-1.6 -1.25,0.1 l 0.15,0.15 h 0.1 Q 25.55,0.2 25.2,0.6 l -0.65,0.45 0.3,0.3 L 24.45,1.1 24.3,1.15 24.25,1 24.15,0.8 H 24.1 V 0.75 l -0.05,-0.1 -0.65,0.65 0.9,-0.15 0.35,0.45 0.8,0.8 0.05,1.05 0.05,1.8 q 0.25,4 -0.75,8.4 -1.35,5.5 -4.2,6.55 l -0.05,0.05 q -2.55,1.15 -5.1,1 L 11.75,21 h -0.1 L 8.3,20.4 8.25,20.35 Q 6.85,20 4.45,18.75 6.15,23.45 2.9,28.1 l 1.9,-0.1 1.75,0.25 1.2,0.2 v 0.05 l 1.65,0.45 q 1.05,0.25 1.95,0.7 2.8,0.95 4.3,2.95 1.8,2.35 2.55,5.95 v 0.05 q 0.75,3.6 -1.5,8.75 l -0.15,0.25 -1.45,2.2 2,-0.15 2.55,0.1 0.2,0.05 q 1.6,0.3 3.1,0.9 H 23 q 1.7,0.65 3.3,1.6 1.9,0.75 3.3,2.1 l 0.05,0.35 0.2,0.15 0.4,0.3 0.25,0.3 0.1,0.15 h 0.05 L 30.25,55.2 29.6,54.4 29.25,52.55 q -0.65,-3.15 0.7,-8.35 1.65,-6.6 7.7,-6.55 h 0.75 l 0.6,0.1 q 4.75,1.15 9,3.45 -0.3,-1.5 0.5,-4.25 0.95,-3.45 2.6,-4.75 l 1.15,-1 -4.35,-0.5 h -0.05 l -4.3,-1.2 -0.05,-0.05 q -1.95,-0.7 -2.65,-1.15 l -1.3,-0.75 -0.1,-0.1 Q 38.5,26.8 37.8,25.8 36.45,24.35 35.95,22.1 L 35.9,22 q -0.25,-1.45 -0.2,-2.5 l 0.05,-0.7 q 0.1,-1.75 0.7,-3.25 l 0.3,-1.15 q 1,-3.3 2.5,-5.8 V 8.55 l 0.7,-1.2 H 39.8 36 35.8 Q 29.95,6.65 25.45,2.4 M 12.3,50.75 h -0.05 -0.1 Q 11.8,50.75 12,51 l 0.1,-0.1 V 50.85 L 12.25,50.8 12.3,50.75 12.45,50.7 12.3,50.75 M 11.9,51.1 11.95,51 11.8,51.15 11.9,51.1"
         fill="#ffffff"
         fill-rule="evenodd"
         stroke="none"
         id="path1" />
      <path
         d="m 41.1,1.6 -2.15,0.75 h -2.7 Q 31.85,1.75 28.5,-1.6 l -1.15,-1.45 q -1.1,-1.25 -3.55,-1.2 -2.2,0.55 -3.1,2.9 -0.6,1.25 -0.3,3.05 V 1.6 l 0.1,2.05 V 3.7 l 0.05,1.7 v 0.2 q 0.25,3.25 -0.6,6.9 -0.6,2.45 -1.1,3.05 -0.6,0.7 -2.85,0.65 L 12.2,16 9.6,15.55 7.3,14.65 5.7,13.75 4.65,12.95 q -1,-1.15 -2.7,-1.15 -1.3,-0.1 -2.8,1.35 -2.7,2.95 0.15,6.9 1.45,3.65 -1.6,6.1 -1.65,1.65 -1.75,3.45 -0.4,3.7 4.3,3.7 h 0.1 l 3.05,-0.2 1.85,-0.15 2.9,0.6 q 1.65,0.55 2.85,1.6 1.2,1 2,3.1 l 0.3,1.3 V 39.5 q 0.35,2.3 -1.05,5.5 L 9.05,49.4 8.8,49.75 Q 7.05,52.6 8.15,54.4 9,55.8 12.35,55.6 l 4.6,-0.9 2.35,0.1 1.85,0.55 2.7,1.35 0.45,0.2 q 1.1,0.4 1.85,1.2 l 0.3,0.35 V 58.4 l 0.25,0.35 0.15,0.2 q 1.2,1.45 3.35,1.75 h 0.3 l 0.75,-0.05 2.1,-0.75 q 0.8,-0.45 1.1,-1.25 L 34.7,58 34.9,57.25 34.95,56.55 34.9,56.1 34.75,55.2 V 55 l -0.6,-3.35 Q 33.8,49.3 34.8,45.45 V 45.4 q 0.65,-2.6 2.9,-2.75 h 0.45 q 3.9,1 7.4,2.95 1,0.75 2.9,1.1 h 0.4 0.05 l 1.3,-0.25 1.3,-0.5 0.95,-1.1 Q 52.95,44 52.9,42.1 52.85,40.15 53.45,37.55 54,35.9 55.55,35.15 l 2.1,-1.15 1.5,-1.6 q 0.9,-1.2 0.4,-3.4 -0.1,-3 -5.7,-2.8 l -3.6,-0.15 -1.2,-0.2 -3.9,-1.1 H 45.2 L 43.35,24 42.85,23.7 q -2,-1.55 -1.55,-5.25 0.4,-3.75 1.4,-5.7 l 0.9,-1.7 1.3,-2.2 0.75,-0.95 0.8,-1.15 0.3,-0.6 q 0.65,-1.4 -0.6,-3.2 -0.4,-0.75 -1,-1.15 l 0.05,0.05 -0.8,-0.5 z"
         ffdec:has-small-stroke="true"
         ffdec:original-stroke-width="1.0"
         fill="none"
         stroke="#ffffff"
         stroke-linecap="round"
         stroke-linejoin="round"
         stroke-width="1.99811"
         id="path2" />
      <path
         d="M 2.35,26.25 3,25.8 2.35,26.25"
         fill="#ffffff"
         fill-rule="evenodd"
         stroke="none"
         id="path3" />
      <path
         d="m 1.95,18.95 0.8,0.5 q 3.45,1.85 7.3,2.3 L 11.9,22.1 Q 19,22.95 22.25,20.4 25.45,17.8 26.4,13.45 27,9.7 27.1,5.9 l 0.1,-1.4 -0.45,-4.15 -0.2,-0.5 q 4.15,4.35 9.65,5 h 3.5 l 2,-0.75 -0.05,0.05 -1.55,1.8 q -2.35,2.95 -3.8,6.35 -0.7,1.7 -1.1,3.5 -0.55,1.95 -0.7,4.65 v 0.05 l 0.05,0.55 q 0.05,3.45 2.8,5.95 3.95,3.4 9.3,4.3 l 4.05,0.7 4.4,0.2 h 0.3 l -2.55,1.85 q -1.2,1.05 -2.2,3.85 -1,2.75 -0.55,3.4 -1.4,-1.95 -3.8,-2.9 -4.05,-1.7 -8.45,-2.5 -3.55,-0.5 -5.35,0.95 -1.85,1.45 -2.8,3.6 -0.95,2.15 -1.4,4.9 -0.45,2.75 -0.2,6.1 l 0.45,5 -3.3,-1.9 Q 23.8,53.65 22.15,53 L 19.5,52.25 17.2,52.15 14.95,52.4 H 14.7 l -0.3,0.1 1.45,-1.2 1.85,-3.4 q 1.15,-2.7 1.5,-6.05 0.35,-3.35 0,-5.5 Q 18.8,34.2 18.1,33 L 15.8,30.35 Q 14.2,28.8 11.85,28 9.5,27.2 8.05,27 q -1.5,-0.2 -4,0.05 L 1.1,27.3 0.55,27.45 0.3,27.5 q 3.45,-4.25 1.65,-8.55 m 40.4,-15.3 0.8,-0.15 0.15,0.05 h -0.05 l -0.9,0.1 M 2.35,26.25 3,25.8 2.35,26.25"
         fill="#7c5991"
         fill-rule="evenodd"
         stroke="none"
         id="path4" />
      <path
         d="M 1.95,18.95 1.9,18.85 V 18.9 Q -0.05,16.5 1.45,14.8 2.2,13.85 2.95,14.7 l 2.1,1.45 q 2.55,1.4 3.95,1.8 l 3.05,0.55 3.6,0.25 q 2,0.1 3.95,-0.8 1.9,-0.9 2.85,-4.9 0.95,-4 0.7,-7.65 L 23.1,3.55 22.95,1.35 Q 22.8,0.3 23.1,-0.45 l 0.4,-0.75 q 1.2,-1.2 2.55,0.3 l 0.2,0.2 0.3,0.55 0.2,0.5 0.45,4.15 -0.1,1.4 Q 27,9.7 26.4,13.45 25.45,17.8 22.25,20.4 19,22.95 11.9,22.1 L 10.05,21.75 Q 6.2,21.3 2.75,19.45 l -0.8,-0.5 M 41.7,4.1 Q 42,3.8 42.35,3.65 l 0.9,-0.1 h 0.05 q 0.2,0.05 0.45,0.25 l 0.35,0.4 q 0.5,0.7 0.35,1.2 l -0.9,1.3 q -0.75,0.8 -2.05,3.1 -1.35,2.3 -2.25,5.3 l -0.35,1.2 q -0.5,1.3 -0.55,2.8 l -0.05,0.55 0.15,1.85 q 0.4,1.65 1.35,2.7 l 1.15,1.2 1.25,0.75 2.25,0.95 4.1,1.15 5.45,0.45 q 2.95,-0.1 3.2,0.9 0.25,1 -0.15,1.6 l -1.3,0.95 -0.35,0.05 H 55.1 L 50.7,32 46.65,31.3 Q 41.3,30.4 37.35,27 34.6,24.5 34.55,21.05 L 34.5,20.5 v -0.05 q 0.15,-2.7 0.7,-4.65 0.4,-1.8 1.1,-3.5 1.45,-3.4 3.8,-6.35 L 41.65,4.15 41.7,4.1 m 8.4,37.2 q 0.85,0.85 0,2.2 -0.4,0.5 -1.1,0.7 h -0.05 q -1.25,-0.2 -1.9,-0.7 -4,-2.25 -8.55,-3.35 h -0.75 q -4.15,0.05 -5.3,4.65 -1.15,4.55 -0.65,7.3 l 0.55,3.3 0.2,1.15 -0.05,0.4 V 57 l -0.3,0.75 -0.9,0.4 h -1.15 q -0.75,-0.1 -1.05,-0.5 l -0.4,-0.75 -0.15,-0.45 -0.45,-5 q -0.25,-3.35 0.2,-6.1 0.45,-2.75 1.4,-4.9 0.95,-2.15 2.8,-3.6 1.8,-1.45 5.35,-0.95 4.4,0.8 8.45,2.5 2.4,0.95 3.8,2.9 m -35.7,11.2 -0.65,0.35 -0.1,0.05 -0.2,0.1 -1.05,0.25 H 12.35 Q 9.6,53.35 11,51.05 l 3.5,-4.75 q 1.9,-4.25 1.35,-7.25 -0.6,-3 -2.1,-4.95 Q 12.65,32.65 10.5,31.95 9.7,31.55 8.7,31.3 L 7.3,30.9 6.05,30.65 4.65,30.5 3.1,30.6 0.35,30.8 q -1.8,0 -1.8,-1.2 0,-1.25 0.9,-1.7 L 0.3,27.5 0.55,27.45 1.1,27.3 4.05,27.05 q 2.5,-0.25 4,-0.05 1.45,0.2 3.8,1 2.35,0.8 3.95,2.35 L 18.1,33 q 0.7,1.2 1.1,3.35 0.35,2.15 0,5.5 -0.35,3.35 -1.5,6.05 l -1.85,3.4 -1.45,1.2"
         fill="#000000"
         fill-rule="evenodd"
         stroke="none"
         id="path5" />
    </g>
  </defs>
</svg>
