<?xml version="1.0" encoding="UTF-8" standalone="no"?>
<svg
   ffdec:objectType="frame"
   height="25.452274"
   width="29.721577"
   version="1.1"
   id="svg4"
   sodipodi:docname="STATUS_The_Alpha_Icon.svg"
   xmlns:inkscape="http://www.inkscape.org/namespaces/inkscape"
   xmlns:sodipodi="http://sodipodi.sourceforge.net/DTD/sodipodi-0.dtd"
   xmlns:xlink="http://www.w3.org/1999/xlink"
   xmlns="http://www.w3.org/2000/svg"
   xmlns:svg="http://www.w3.org/2000/svg"
   xmlns:ffdec="https://www.free-decompiler.com/flash">
  <sodipodi:namedview
     id="namedview4"
     pagecolor="#ffffff"
     bordercolor="#000000"
     borderopacity="0.25"
     inkscape:showpageshadow="2"
     inkscape:pageopacity="0.0"
     inkscape:pagecheckerboard="0"
     inkscape:deskcolor="#d1d1d1" />
  <g
     transform="translate(15.118553,12.252277)"
     id="g1">
    <use
       ffdec:characterId="3172"
       height="25.450001"
       transform="translate(-14.9,-13.25)"
       width="29.700001"
       xlink:href="#sprite0"
       id="use1" />
  </g>
  <defs
     id="defs4">
    <g
       id="sprite0">
      <use
         ffdec:characterId="3171"
         height="25.450001"
         width="29.700001"
         xlink:href="#shape0"
         id="use2" />
    </g>
    <g
       id="shape0">
      <path
         d="M 22.25,7.75 23,5.15 q 0.15,-0.9 2.3,-0.75 2.15,0.15 2.2,1.45 0.05,1.3 -1.7,4.85 -1.75,3.6 -3.8,5.8 L 21.55,17 q -0.25,2.25 0.55,3.15 0.75,0.9 1.5,0.7 0.7,-0.2 1.5,-0.8 0.8,-0.65 1.25,-0.6 0.4,0 0.25,1.35 -0.2,1.3 -1.7,2.6 -1.25,0.95 -2.55,1 l -1,-0.2 Q 19.5,23.25 18.75,20 l -0.65,0.65 q -2.6,2.65 -4.8,3.3 L 9.65,24.45 7.5,24.1 6.35,23.75 Q 4.3,22.9 3.1,20.7 1.85,18.45 1.8,16.6 1.75,14.75 1.85,13.9 l 0.3,-1.65 Q 2.5,10.35 4.05,7.95 5.5,5.55 8,4.3 10.45,3.05 12.7,3 q 2.05,-0.05 3.9,0.95 3.15,1.8 4.4,6.8 l 1.25,-3"
         fill="#ffffff"
         fill-rule="evenodd"
         stroke="none"
         id="path2" />
      <path
         d="M 22.25,7.75 23,5.15 q 0.15,-0.9 2.3,-0.75 2.15,0.15 2.2,1.45 0.05,1.3 -1.7,4.85 -1.75,3.6 -3.8,5.8 L 21.55,17 q -0.25,2.25 0.55,3.15 0.75,0.9 1.5,0.7 0.7,-0.2 1.5,-0.8 0.8,-0.65 1.25,-0.6 0.4,0 0.25,1.35 -0.2,1.3 -1.7,2.6 -1.25,0.95 -2.55,1 l -1,-0.2 Q 19.5,23.25 18.75,20 l -0.65,0.65 q -2.6,2.65 -4.8,3.3 L 9.65,24.45 7.5,24.1 6.35,23.75 Q 4.3,22.9 3.1,20.7 1.85,18.45 1.8,16.6 1.75,14.75 1.85,13.9 l 0.3,-1.65 Q 2.5,10.35 4.05,7.95 5.5,5.55 8,4.3 10.45,3.05 12.7,3 q 2.05,-0.05 3.9,0.95 3.15,1.8 4.4,6.8 z"
         fill="none"
         stroke="#ffffff"
         stroke-linecap="round"
         stroke-linejoin="round"
         stroke-width="4"
         id="path3" />
      <path
         d="M 22.25,7.75 23,5.15 q 0.15,-0.9 2.3,-0.75 2.15,0.15 2.2,1.45 0.05,1.3 -1.7,4.85 -1.75,3.6 -3.8,5.8 L 21.55,17 q -0.25,2.25 0.55,3.15 0.75,0.9 1.5,0.7 0.7,-0.2 1.5,-0.8 0.8,-0.65 1.25,-0.6 0.4,0 0.25,1.35 -0.2,1.3 -1.7,2.6 -1.25,0.95 -2.55,1 l -1,-0.2 Q 19.5,23.25 18.75,20 l -0.65,0.65 q -2.6,2.65 -4.8,3.3 L 9.65,24.45 7.5,24.1 6.35,23.75 Q 4.3,22.9 3.1,20.7 1.85,18.45 1.8,16.6 1.75,14.75 1.85,13.9 l 0.3,-1.65 Q 2.5,10.35 4.05,7.95 5.5,5.55 8,4.3 10.45,3.05 12.7,3 q 2.05,-0.05 3.9,0.95 3.15,1.8 4.4,6.8 l 1.25,-3 m -14.6,3.8 Q 7,12.6 6.6,14.45 q -0.4,1.8 0.4,3.4 0.75,1.55 2.4,2.1 l 3.55,-0.25 q 1.9,-0.75 3,-1.95 1.1,-1.25 1.25,-2.2 Q 16.9,11.85 15.8,10 14.7,8.1 13.2,7.95 l -2.3,0.3 q -0.85,0.4 -1.75,1.35 -0.9,0.9 -1.5,1.95"
         fill="#000000"
         fill-rule="evenodd"
         stroke="none"
         id="path4" />
    </g>
  </defs>
</svg>
