<?xml version="1.0" encoding="UTF-8" standalone="no"?>
<svg
   ffdec:objectType="frame"
   height="28.049999"
   width="34.599995"
   version="1.1"
   id="svg6"
   sodipodi:docname="STATUS_Captured_Familiar_Icon.svg"
   xmlns:inkscape="http://www.inkscape.org/namespaces/inkscape"
   xmlns:sodipodi="http://sodipodi.sourceforge.net/DTD/sodipodi-0.dtd"
   xmlns:xlink="http://www.w3.org/1999/xlink"
   xmlns="http://www.w3.org/2000/svg"
   xmlns:svg="http://www.w3.org/2000/svg"
   xmlns:ffdec="https://www.free-decompiler.com/flash">
  <sodipodi:namedview
     id="namedview6"
     pagecolor="#ffffff"
     bordercolor="#000000"
     borderopacity="0.25"
     inkscape:showpageshadow="2"
     inkscape:pageopacity="0.0"
     inkscape:pagecheckerboard="0"
     inkscape:deskcolor="#d1d1d1" />
  <g
     transform="translate(17.249993,13.6)"
     id="g1">
    <use
       ffdec:characterId="3166"
       height="28.200001"
       transform="translate(-16.3,-12.6)"
       width="34.599998"
       xlink:href="#sprite0"
       id="use1" />
  </g>
  <defs
     id="defs6">
    <g
       id="sprite0">
      <use
         ffdec:characterId="3165"
         height="28.200001"
         width="34.599998"
         xlink:href="#shape0"
         id="use2" />
    </g>
    <g
       id="shape0">
      <path
         d="m 3.5,12.65 q 1.7,-1.95 6.2,-4.9 4.5,-3 9.35,-4.8 Q 23.9,1.15 25.5,1 l 2.35,0.1 q 0.75,0.3 2.3,2.8 1.5,2.45 1.5,3.2 l -0.15,1.1 -0.8,1.2 -2.3,2.6 -3.1,3.2 -0.35,0.35 0.35,0.75 0.15,0.45 0.05,0.1 q 0.65,1.95 0.45,3.2 l -0.75,2 -1.55,1.6 -2.2,1.25 -2.55,0.15 Q 17.45,24.9 16.45,24.3 15.4,23.65 14.6,22.55 l -0.2,-0.3 -0.3,-0.7 -1.6,0.6 -1.3,0.4 L 6.85,23.4 4.3,23.2 Q 3.65,22.8 2.85,21.4 2.05,20 1.35,18.05 L 1.05,16.7 1.45,15.45 Q 1.8,14.6 3.5,12.65"
         fill="#ffffff"
         fill-rule="evenodd"
         stroke="none"
         id="path2" />
      <path
         d="m 3.5,12.65 q 1.7,-1.95 6.2,-4.9 4.5,-3 9.35,-4.8 Q 23.9,1.15 25.5,1 l 2.35,0.1 q 0.75,0.3 2.3,2.8 1.5,2.45 1.5,3.2 l -0.15,1.1 -0.8,1.2 -2.3,2.6 -3.1,3.2 -0.35,0.35 0.35,0.75 0.15,0.45 0.05,0.1 q 0.65,1.95 0.45,3.2 l -0.75,2 -1.55,1.6 -2.2,1.25 -2.55,0.15 Q 17.45,24.9 16.45,24.3 15.4,23.65 14.6,22.55 l -0.2,-0.3 -0.3,-0.7 -1.6,0.6 -1.3,0.4 L 6.85,23.4 4.3,23.2 Q 3.65,22.8 2.85,21.4 2.05,20 1.35,18.05 L 1.05,16.7 1.45,15.45 Q 1.8,14.6 3.5,12.65 Z"
         fill="none"
         stroke="#ffffff"
         stroke-linecap="round"
         stroke-linejoin="round"
         stroke-width="4"
         id="path3" />
      <path
         d="M 3.5,12.7 Q 5.2,10.75 9.7,7.8 14.2,4.8 19.05,3 23.9,1.2 25.5,1.05 l 2.35,0.1 q 0.75,0.3 2.3,2.8 1.5,2.45 1.5,3.2 l -0.15,1.1 -0.8,1.2 -2.3,2.6 -3.1,3.2 -0.35,0.35 0.35,0.75 0.15,0.45 0.05,0.1 q 0.65,1.95 0.45,3.2 l -0.75,2 -1.55,1.6 -2.2,1.25 -2.55,0.15 Q 17.45,24.95 16.45,24.35 15.4,23.7 14.6,22.6 l -0.2,-0.3 -0.3,-0.7 -1.6,0.6 -1.3,0.4 -4.35,0.85 -2.55,-0.2 Q 3.65,22.85 2.85,21.45 2.05,20.05 1.35,18.1 L 1.05,16.75 1.45,15.5 Q 1.8,14.65 3.5,12.7 M 22.05,5.95 25.25,5.2 q 1.35,-1.3 1.55,-2.05 -1.9,-0.2 -4.9,0.8 -3.05,0.95 -4.8,2 L 17.75,7.8 Q 20,6.5 22.05,5.95 M 26.2,7.9 Q 17.95,15 7.45,18.2 L 7,18.35 5.65,18.65 4.4,18.75 H 4.35 q 0.7,1.4 1.4,1.7 l 1.4,0.1 3.6,-0.6 3.15,-1 q 0.55,-2.8 3.15,-4.2 0.8,-0.45 1.05,-0.55 l 2.75,-0.5 h 0.1 l 2,0.25 3.35,-2.75 Q 28.6,8.95 28.9,8.05 29.15,7.15 29,6.75 L 28.15,5.25 27.25,6.8 26.2,7.9 m -2.6,11.3 q 0,-1.55 -1.05,-2.45 -1.1,-0.9 -2.5,-0.75 -1.45,0.15 -2.45,1.15 -1.05,1 -1.15,2.4 -0.05,0.75 0.2,1.3 l 0.6,1 0.95,0.8 1.9,0.3 q 1.25,-0.1 2.4,-1.15 1.1,-1.05 1.1,-2.6 M 19.25,9.55 20.2,8.9 Q 18,9.85 16.85,10.5 l -3.2,2.25 -0.5,0.4 q 2.9,-1.5 6.1,-3.6 m -10.15,4.1 2.3,-1.9 q 1.35,-1.1 5.05,-3.3 L 15.85,6.7 q -9.3,5 -12.6,9.85 Q 5.2,16.6 7.6,15.3 l 1.5,-1.65"
         fill="#000000"
         fill-rule="evenodd"
         stroke="none"
         id="path4" />
      <path
         d="m 26.2,7.9 1.05,-1.1 0.9,-1.55 0.85,1.5 q 0.15,0.4 -0.1,1.3 -0.3,0.9 -2.6,3.15 l -3.35,2.75 -2,-0.25 h -0.1 l -2.75,0.5 q -0.25,0.1 -1.05,0.55 -2.6,1.4 -3.15,4.2 l -3.15,1 -3.6,0.6 -1.4,-0.1 q -0.7,-0.3 -1.4,-1.7 H 4.4 L 5.65,18.65 7,18.35 7.45,18.2 Q 17.95,15 26.2,7.9 M 22.05,5.95 Q 20,6.5 17.75,7.8 L 17.1,5.95 q 1.75,-1.05 4.8,-2 3,-1 4.9,-0.8 -0.2,0.75 -1.55,2.05 l -3.2,0.75 M 9.1,13.65 7.6,15.3 Q 5.2,16.6 3.25,16.55 6.55,11.7 15.85,6.7 l 0.6,1.75 q -3.7,2.2 -5.05,3.3 l -2.3,1.9"
         fill="#6e6262"
         fill-rule="evenodd"
         stroke="none"
         id="path5" />
      <path
         d="m 23.6,19.2 q 0,1.55 -1.1,2.6 -1.15,1.05 -2.4,1.15 l -1.9,-0.3 -0.95,-0.8 -0.6,-1 q -0.25,-0.55 -0.2,-1.3 0.1,-1.4 1.15,-2.4 1,-1 2.45,-1.15 1.4,-0.15 2.5,0.75 1.05,0.9 1.05,2.45"
         fill="#c6c6c6"
         fill-rule="evenodd"
         stroke="none"
         id="path6" />
    </g>
  </defs>
</svg>
