<?xml version="1.0" encoding="UTF-8" standalone="no"?>
<svg
   ffdec:objectType="frame"
   height="32.060513"
   width="28.854637"
   version="1.1"
   id="svg5"
   sodipodi:docname="STATUS_Zombie_Icon.svg"
   xmlns:inkscape="http://www.inkscape.org/namespaces/inkscape"
   xmlns:sodipodi="http://sodipodi.sourceforge.net/DTD/sodipodi-0.dtd"
   xmlns:xlink="http://www.w3.org/1999/xlink"
   xmlns="http://www.w3.org/2000/svg"
   xmlns:svg="http://www.w3.org/2000/svg"
   xmlns:ffdec="https://www.free-decompiler.com/flash">
  <sodipodi:namedview
     id="namedview5"
     pagecolor="#ffffff"
     bordercolor="#000000"
     borderopacity="0.25"
     inkscape:showpageshadow="2"
     inkscape:pageopacity="0.0"
     inkscape:pagecheckerboard="0"
     inkscape:deskcolor="#d1d1d1" />
  <g
     transform="translate(14.181,16.420513)"
     id="g1">
    <use
       ffdec:characterId="3162"
       height="32.049999"
       transform="translate(-12.85,-14.25)"
       width="28.85"
       xlink:href="#sprite0"
       id="use1" />
  </g>
  <defs
     id="defs5">
    <g
       id="sprite0">
      <use
         ffdec:characterId="3161"
         height="32.049999"
         width="28.85"
         xlink:href="#shape0"
         id="use2" />
    </g>
    <g
       id="shape0">
      <path
         d="m 3.7,25.45 0.1,0.05 0.45,0.15 h 0.1 l 1,0.4 q 0.45,0.35 0.5,0.95 0,-0.2 0.2,-0.15 l 2.2,-0.25 0.55,-0.35 0.7,-0.15 0.7,0.2 0.8,0.4 h 1.15 l 1.65,-0.5 0.95,0.05 0.8,0.25 0.7,0.05 -0.2,-0.05 1.2,-0.05 0.5,-0.1 0.05,-0.05 0.4,-0.25 v 0.05 l 0.1,-0.3 0.55,-0.75 q 0.35,-0.3 0.85,-0.3 h 1 l 1.2,-0.05 0.9,-0.15 h 0.1 V 24.5 L 23,24.35 23.55,24 24.2,23.9 q -0.15,-0.15 0.1,-0.45 h 0.2 0.05 L 23.95,22.7 23.9,22.65 22,22.25 h -0.05 q -0.95,0.05 -1.6,0.5 l -0.9,0.25 -0.9,-0.35 q -0.4,-0.3 -0.5,-0.75 -0.6,-2.35 -0.65,-4.95 0,-0.4 0.15,-0.7 0.25,-0.6 1.45,-2.1 V 14.1 q 2.75,-3.85 2.9,-5.6 -0.1,-1.8 -1,-3.3 V 5.25 Q 20.4,4.45 19.55,4.8 L 18.6,4.85 17.8,4.4 17.45,3.55 16.9,2.15 V 2.2 Q 16.4,1.35 15.35,1.05 H 15.3 L 13.85,0.95 13.75,1.2 13.7,2.15 13.1,2.85 12.15,3.05 11.3,2.7 10.2,2.2 H 10.15 L 8.6,2.05 H 8.5 Q 7.85,2.1 7.5,2.35 L 7.45,2.4 6.95,2.85 V 2.9 L 6.9,3.1 6.95,3.25 q 0.2,0.55 1.25,1.3 l 0.15,0.1 Q 9.5,5.45 9.2,7.85 V 7.9 Q 8.9,9.5 8.15,9.7 7,10.8 5.65,9.1 L 5.35,8.4 4.85,7.4 4.1,7.35 3.95,7.45 Q 3.2,8.1 3.1,9.6 2.95,11.2 3.5,12.2 v -0.05 l 1.7,2 0.8,0.6 1.25,0.8 0.55,0.6 0.1,0.2 0.15,0.5 q 0.2,1.35 -0.25,3.9 L 7.4,21.5 6.7,21.9 H 5.85 L 4.15,21.65 H 4.1 Q 3.25,21.6 2.7,21.95 h 0.05 l -0.8,0.65 v 0.05 L 1.85,22.8 1.7,23.35 q 0.05,-0.2 0.2,-0.1 l -0.1,-0.1 0.55,0.25 0.55,0.35 0.05,0.1 0.35,0.55 0.4,1.05 V 25.4 l 0.05,0.05 H 3.7 M -0.65,21.15 -0.8,21.5 -0.65,21.25 -0.4,20.8 1,19.5 V 19.45 Q 2.3,18.5 4.35,18.65 H 4.4 L 5.05,18.75 5.1,17.7 4.45,17.3 3.2,16.4 V 16.35 Q 1.95,15.25 1,13.85 -0.15,12.2 0.1,9.35 0.4,6.35 2.15,5.05 L 2.25,4.95 2.6,4.75 2.75,4.65 4.1,4.25 4,3.65 3.9,3.15 Q 3.9,2 4.4,1.3 4.9,0.45 5.85,-0.15 6.65,-0.7 8.1,-0.9 H 8.05 l 3,0.25 V -0.7 l 0.15,0.05 1,-0.9 q 1.45,-1.1 4,-0.25 v -0.05 q 2.3,0.7 3.3,2.6 h 0.05 l 0.4,0.85 Q 22,1.45 23.4,3.6 h 0.05 Q 24.8,5.8 24.9,8.35 V 8.4 q 0.2,2.4 -3.45,7.5 H 21.4 l -1,1.4 0.2,2.15 1.15,-0.2 Q 23.4,19.1 25.3,20 l 0.4,0.3 0.25,0.2 -0.1,-0.1 1.15,1.35 v 0.05 q 1.2,1.45 -0.35,3.5 v 0.05 q -1.05,1.3 -1.95,1.55 l -0.25,0.2 -0.35,0.2 -0.3,0.1 -1.65,0.3 H 22 l -1.05,0.05 H 20.8 20.7 q -0.55,0.8 -1.7,1.35 l -0.3,0.1 -0.85,0.25 H 17.5 l -1.45,0.05 h -0.2 L 15.15,29.45 14.2,29.25 13,29.6 H 12.95 L 9.85,29.5 9.65,29.35 9.55,29.3 9.35,29.4 Q 7.05,30.1 5.5,29.8 H 5.45 Q 3.7,29.45 3.15,28.45 L 2.6,28.2 2.35,28.1 Q 1.25,27.45 0.95,26.6 L 0.9,26.55 0.7,26 0.45,25.85 0.35,25.8 q -2.05,-1.25 -1.6,-2.85 0.1,-1.15 0.6,-1.8"
         fill="#ffffff"
         fill-rule="evenodd"
         stroke="none"
         id="path2" />
      <path
         d="M 1.75,24.85 1,24.55 Q 0,23.95 0.1,23.2 0.2,22.45 0.5,22 l 0.15,-0.25 1.1,-1 Q 2.7,20.1 4.15,20.2 L 6.2,20.5 Q 6.6,18.25 6.45,17.05 L 6.35,16.85 5.1,16.05 4.1,15.3 2.15,13.05 Q 1.3,11.75 1.5,9.5 1.7,7.25 2.95,6.25 L 3.3,6.05 5.4,6.1 Q 6.45,6.6 6.7,8.2 7.35,9 7.6,7.65 7.8,6.3 7.25,5.8 5.5,4.6 5.35,3.5 L 5.3,3.2 q 0,-0.65 0.25,-1.05 0.35,-0.6 1,-1 0.6,-0.4 1.65,-0.55 l 2.3,0.2 q 1.2,0.35 1.7,0.8 -0.3,-1.2 0.7,-1.85 l 2.75,-0.1 q 1.7,0.5 2.45,1.85 l 0.75,1.95 q 2,-0.85 3.2,1 1.15,1.85 1.25,4 0.05,2.1 -3.2,6.6 l -1.3,1.9 q 0.05,2.45 0.6,4.6 1,-0.65 2.35,-0.75 1.3,-0.1 2.8,0.6 l 0.25,0.2 0.85,1.05 q 0.5,0.75 -0.3,1.8 -0.85,1.05 -1.4,1 L 23.55,25.4 Q 23.2,25.35 22.85,25.1 L 22.7,24.95 V 24.6 l 1.1,-0.75 q 0.75,-0.6 -0.4,-1.25 -1.2,-0.65 -2.65,0 0.5,0.75 -0.25,0.65 l -1.9,0.2 0.25,0.4 q 0.1,0.95 -0.8,0.3 l -0.2,-0.1 Q 16.8,23.45 16,23.6 q -0.85,0.15 -1.1,0.7 -0.3,0.5 -0.25,0.95 0.05,0.4 0.65,0.65 l 1.25,0.15 1.3,-0.5 q 0.7,-0.35 0.45,0.55 -0.75,0.8 -1.8,0.9 -1.6,0.15 -2.4,-0.5 -0.85,-0.7 -0.65,-1.4 L 12,24.85 h -0.35 q -0.95,0 -1.85,0.8 L 9.45,26 Q 9.8,26.35 9.8,27.1 L 9.35,27.65 8.75,28 5.65,28.35 Q 4.35,28.1 4.25,27.2 4.2,26.15 5.4,25.5 l 2.5,-0.3 0.25,0.05 Q 8.3,24.7 7.2,24 6.05,23.25 5.05,23.2 4,23.2 4.55,22.7 q 0.4,-0.4 1,-0.55 l -2,-0.25 Q 2.4,22 2,22.95 q -0.05,0.8 0.9,0.9 l 0.9,0.1 Q 3.95,25 2.2,24.9 L 1.75,24.85 M 17.2,5.7 16.95,3.6 16.25,2.4 15.35,1.6 14.3,1.45 Q 13.7,1.6 13.95,2.3 L 14.2,4.2 Q 14.25,5.4 13.9,5.85 13.55,6.2 13.35,6.1 13.15,6 13.1,5.6 L 12.85,4.9 Q 12.1,3.65 10.65,3 L 7.6,3.05 Q 7.35,3.65 8.25,4.2 l 1.3,1.4 q 0.5,0.9 -0.2,2.75 L 8.9,9.5 Q 8.8,9.65 9.2,10.4 9.6,11.2 8.4,11.05 7.2,10.85 6.2,10.15 5.2,9.4 5.1,8.7 5,7.95 4.6,7.65 4.15,7.4 3.75,8.05 q -0.4,0.6 -0.4,2.05 0,1.4 0.9,2.35 L 7,14.75 7.8,15.4 q 0.25,0.35 0.3,2.8 0,2.4 -0.4,4.2 l 0.55,0.3 1.2,0.95 L 9.7,24 q 0.55,-0.35 1.3,-0.6 l 2.35,0.05 0.35,0.05 0.2,-0.15 q 1.05,-1.3 2.75,-1 h 0.4 l 0.25,-0.05 -0.15,-1 q -0.4,-3.45 -0.25,-5.25 l 3.05,-4.6 q 1.25,-2 1.15,-3.5 -0.1,-1.55 -0.65,-2.1 -0.6,-0.55 -1.1,-0.3 -0.5,0.2 -0.6,1 Q 18.6,7.3 17.7,8.05 16.8,8.75 17,7.9 L 17.2,5.7 M 7.75,26.1 5.65,26.5 Q 5.3,26.8 5.5,27.15 5.65,27.5 6.8,27.4 L 8.35,27 Q 8.75,26.7 8.5,26.45 8.25,26.2 7.75,26.1"
         fill="#000000"
         fill-rule="evenodd"
         stroke="none"
         id="path3" />
      <path
         d="m 23.95,25.45 -0.1,0.15 -0.2,0.2 -0.35,0.2 -1.4,0.25 -1.2,0.05 h -1.1 l -0.1,0.3 q -0.25,0.7 -1.25,1.15 L 17.4,28 15.95,28.05 15.25,28 14.1,27.7 12.45,28.2 10.25,28.1 9.35,27.65 9.8,27.1 Q 9.8,26.35 9.45,26 L 9.8,25.65 q 0.9,-0.8 1.85,-0.8 H 12 l 1.45,0.25 q -0.2,0.7 0.65,1.4 0.8,0.65 2.4,0.5 1.05,-0.1 1.8,-0.9 0.25,-0.9 -0.45,-0.55 l -1.3,0.5 L 15.3,25.9 Q 14.7,25.65 14.65,25.25 14.6,24.8 14.9,24.3 q 0.25,-0.55 1.1,-0.7 0.8,-0.15 1.85,0.45 l 0.2,0.1 q 0.9,0.65 0.8,-0.3 l -0.25,-0.4 1.9,-0.2 q 0.75,0.1 0.25,-0.65 1.45,-0.65 2.65,0 1.15,0.65 0.4,1.25 l -1.1,0.75 v 0.35 l 0.15,0.15 q 0.35,0.25 0.7,0.3 l 0.4,0.05 M 4.25,27.2 3.75,27.15 3,26.85 2.2,26.05 1.8,24.95 1.75,24.85 2.2,24.9 Q 3.95,25 3.8,23.95 L 2.9,23.85 Q 1.95,23.75 2,22.95 2.4,22 3.55,21.9 l 2,0.25 q -0.6,0.15 -1,0.55 -0.55,0.5 0.5,0.5 1,0.05 2.15,0.8 1.1,0.7 0.95,1.25 L 7.9,25.2 5.4,25.5 q -1.2,0.65 -1.15,1.7 m 3.5,-1.1 Q 8.25,26.2 8.5,26.45 8.75,26.7 8.35,27 L 6.8,27.4 Q 5.65,27.5 5.5,27.15 5.3,26.8 5.65,26.5 l 2.1,-0.4"
         fill="#715656"
         fill-rule="evenodd"
         stroke="none"
         id="path4" />
      <path
         d="M 17.2,5.7 17,7.9 q -0.2,0.85 0.7,0.15 0.9,-0.75 1.05,-1.5 0.1,-0.8 0.6,-1 0.5,-0.25 1.1,0.3 0.55,0.55 0.65,2.1 0.1,1.5 -1.15,3.5 l -3.05,4.6 q -0.15,1.8 0.25,5.25 l 0.15,1 -0.25,0.05 h -0.4 q -1.7,-0.3 -2.75,1 L 13.7,23.5 13.35,23.45 11,23.4 Q 10.25,23.65 9.7,24 L 9.45,23.65 8.25,22.7 7.7,22.4 Q 8.1,20.6 8.1,18.2 8.05,15.75 7.8,15.4 L 7,14.75 4.25,12.45 Q 3.35,11.5 3.35,10.1 3.35,8.65 3.75,8.05 4.15,7.4 4.6,7.65 5,7.95 5.1,8.7 q 0.1,0.7 1.1,1.45 1,0.7 2.2,0.9 Q 9.6,11.2 9.2,10.4 8.8,9.65 8.9,9.5 L 9.35,8.35 Q 10.05,6.5 9.55,5.6 L 8.25,4.2 Q 7.35,3.65 7.6,3.05 L 10.65,3 q 1.45,0.65 2.2,1.9 L 13.1,5.6 Q 13.15,6 13.35,6.1 13.55,6.2 13.9,5.85 14.25,5.4 14.2,4.2 L 13.95,2.3 Q 13.7,1.6 14.3,1.45 l 1.05,0.15 0.9,0.8 0.7,1.2 0.25,2.1"
         fill="#636d60"
         fill-rule="evenodd"
         stroke="none"
         id="path5" />
    </g>
  </defs>
</svg>
