<?xml version="1.0" encoding="UTF-8" standalone="no"?>
<svg
   ffdec:objectType="frame"
   height="28.703321"
   width="28.12776"
   version="1.1"
   id="svg9"
   sodipodi:docname="STATUS_Health_Regen_Icon.svg"
   xmlns:inkscape="http://www.inkscape.org/namespaces/inkscape"
   xmlns:sodipodi="http://sodipodi.sourceforge.net/DTD/sodipodi-0.dtd"
   xmlns:xlink="http://www.w3.org/1999/xlink"
   xmlns="http://www.w3.org/2000/svg"
   xmlns:svg="http://www.w3.org/2000/svg"
   xmlns:ffdec="https://www.free-decompiler.com/flash">
  <sodipodi:namedview
     id="namedview9"
     pagecolor="#ffffff"
     bordercolor="#000000"
     borderopacity="0.25"
     inkscape:showpageshadow="2"
     inkscape:pageopacity="0.0"
     inkscape:pagecheckerboard="0"
     inkscape:deskcolor="#d1d1d1" />
  <g
     transform="translate(15.52776,15.3507)"
     id="g2">
    <use
       ffdec:characterId="3206"
       height="25.4"
       transform="translate(-12.5,-12.35)"
       width="25.299999"
       xlink:href="#sprite0"
       id="use1" />
    <use
       ffdec:characterId="3115"
       height="27"
       transform="matrix(0.4028,0,0,0.4028,-15.85,-15.25)"
       width="28.25"
       xlink:href="#shape1"
       id="use2" />
  </g>
  <defs
     id="defs9">
    <g
       id="sprite0">
      <use
         ffdec:characterId="3205"
         height="25.4"
         width="25.299999"
         xlink:href="#shape0"
         id="use3" />
    </g>
    <g
       id="shape0">
      <path
         d="m 9.05,1.8 h 3.2 0.4 0.95 2.3 0.3 Q 18.15,1.7 17.9,4 v 0.1 0.2 0.1 0.25 0.1 0.25 0.1 0.25 0.1 0.25 0.1 0.05 0.1 0.1 0.1 0.05 0.1 0.25 0.1 0.1 0.1 V 6.9 7 7.1 7.2 7.25 7.35 7.5 h 0.15 0.1 0.05 0.1 0.1 0.1 0.05 0.1 0.1 0.1 0.05 0.1 0.1 0.1 0.05 0.1 0.1 0.1 0.05 0.1 0.25 0.1 0.25 0.1 0.25 0.1 0.25 0.1 0.2 0.1 0.25 q 1.7,-0.05 1.9,0.9 l 0.05,0.2 v 4.15 0.4 0.9 2.3 0.55 q -0.15,1.6 -2.4,1.5 h -0.1 -0.1 -0.25 -0.1 -0.25 -0.1 -0.25 -0.1 -0.25 -0.1 -0.05 -0.1 -0.1 -0.1 -0.05 -0.1 -0.1 -0.1 -0.05 -0.1 -0.1 -0.1 -0.05 -0.1 -0.1 -0.1 -0.05 -0.1 -0.15 v 0.05 0.1 0.25 0.1 0.25 0.1 0.05 0.1 0.1 0.1 0.05 0.1 0.1 0.1 0.05 0.1 0.1 0.1 0.05 0.1 0.1 0.1 0.05 0.1 0.25 0.1 0.25 0.1 0.2 0.1 0.25 0.1 0.1 q 0.05,2 -1.65,1.95 H 15.9 12.65 12.25 11.35 9.05 8.9 Q 6.9,24.3 7,21.8 v -0.1 -0.2 -0.1 -0.25 -0.1 -0.25 -0.1 -0.05 -0.1 -0.1 -0.1 -0.05 -0.1 -0.25 -0.1 -0.1 -0.1 -0.05 -0.1 -0.1 -0.1 -0.05 -0.1 -0.25 -0.1 -0.3 H 6.85 6.75 6.7 6.6 6.5 6.4 6.35 6.25 6 5.9 5.65 5.55 5.3 5.2 4.95 4.85 4.6 4.5 4.45 4.35 4.25 4.15 4.1 q -2.85,0.15 -2.75,-2 L 1.3,13.25 V 12.8 11.9 L 1.35,9.2 Q 1.35,7.55 2.5,7.6 L 3.9,7.55 H 4 4.1 4.15 4.25 4.35 4.45 4.5 4.6 4.85 4.95 5.2 5.3 5.55 5.65 5.9 6 6.25 6.35 6.4 6.5 6.6 6.7 6.75 6.85 7 V 7.35 7.25 7.2 7.1 7 6.9 6.85 6.75 6.65 6.55 6.3 6.2 6.15 6.05 5.95 5.85 5.8 5.7 5.45 5.35 5.1 5 4.75 4.65 4.4 4.3 4.1 L 7.05,3 Q 7.1,1.9 8.7,1.8 Z"
         fill="none"
         stroke="#ffffff"
         stroke-linecap="round"
         stroke-linejoin="round"
         stroke-width="3"
         id="path3" />
      <path
         d="m 5.7,9.05 q 0.65,0 1,0.35 L 6.8,9.55 7.65,9.5 Q 7.55,7 8.45,4.85 8.7,4.15 9,3.8 9.65,3.05 10.75,3.15 L 12.1,3.4 q 1,-0.15 1.2,0 l 0.25,0.15 0.4,-0.15 q 0.35,-0.3 0.85,-0.25 0.5,0.05 0.8,0.4 l 0.5,1.3 0.45,3.2 h 2.7 q 1.2,0.1 1.75,0.5 0.95,0.55 1.3,1.75 0.25,0.9 0,2.2 l -0.15,0.6 0.15,0.85 q 0.2,0.8 -0.25,1.6 l -1.15,1.2 q -1.3,0.75 -3.25,0.4 -0.4,1.65 -1.25,2.05 0.75,0.65 0.5,1.5 l -0.45,0.8 -1,0.95 -1.6,0.4 -1.8,-0.05 -0.9,-0.25 -0.8,0.2 -0.8,0.15 -1,-0.75 Q 8.3,21.75 8.2,20.85 8.1,19.25 8.25,17.9 L 8.2,17.6 5.2,16.95 H 4.4 L 3.65,16.35 Q 3.2,15.85 2.8,14.35 L 2.55,13.4 q -0.2,-1.1 0.1,-2.3 L 3,10.1 3.85,9.35 5.7,9.05"
         fill="#383838"
         fill-rule="evenodd"
         stroke="none"
         id="path4" />
      <path
         d="m 9.05,1.8 h 3.2 0.4 0.95 2.3 0.3 Q 18.15,1.7 17.9,4 v 0.1 0.2 0.1 0.25 0.1 0.25 0.1 0.25 0.1 0.25 0.1 0.05 0.1 0.1 0.1 0.05 0.1 0.25 0.1 0.1 0.1 V 6.9 7 7.1 7.2 7.25 7.35 7.5 h 0.15 0.1 0.05 0.1 0.1 0.1 0.05 0.1 0.1 0.1 0.05 0.1 0.1 0.1 0.05 0.1 0.1 0.1 0.05 0.1 0.25 0.1 0.25 0.1 0.25 0.1 0.25 0.1 0.2 0.1 0.25 q 1.7,-0.05 1.9,0.9 l 0.05,0.2 v 4.15 0.4 0.9 2.3 0.55 q -0.15,1.6 -2.4,1.5 h -0.1 -0.1 -0.25 -0.1 -0.25 -0.1 -0.25 -0.1 -0.25 -0.1 -0.05 -0.1 -0.1 -0.1 -0.05 -0.1 -0.1 -0.1 -0.05 -0.1 -0.1 -0.1 -0.05 -0.1 -0.1 -0.1 -0.05 -0.1 -0.15 v 0.05 0.1 0.25 0.1 0.25 0.1 0.05 0.1 0.1 0.1 0.05 0.1 0.1 0.1 0.05 0.1 0.1 0.1 0.05 0.1 0.1 0.1 0.05 0.1 0.25 0.1 0.25 0.1 0.2 0.1 0.25 0.1 0.1 q 0.05,2 -1.65,1.95 H 15.9 12.65 12.25 11.35 9.05 8.9 Q 6.9,24.3 7,21.8 v -0.1 -0.2 -0.1 -0.25 -0.1 -0.25 -0.1 -0.05 -0.1 -0.1 -0.1 -0.05 -0.1 -0.25 -0.1 -0.1 -0.1 -0.05 -0.1 -0.1 -0.1 -0.05 -0.1 -0.25 -0.1 -0.3 H 6.85 6.75 6.7 6.6 6.5 6.4 6.35 6.25 6 5.9 5.65 5.55 5.3 5.2 4.95 4.85 4.6 4.5 4.45 4.35 4.25 4.15 4.1 q -2.85,0.15 -2.75,-2 L 1.3,13.25 V 12.8 11.9 L 1.35,9.2 Q 1.35,7.55 2.5,7.6 L 3.9,7.55 H 4 4.1 4.15 4.25 4.35 4.45 4.5 4.6 4.85 4.95 5.2 5.3 5.55 5.65 5.9 6 6.25 6.35 6.4 6.5 6.6 6.7 6.75 6.85 7 V 7.35 7.25 7.2 7.1 7 6.9 6.85 6.75 6.65 6.55 6.3 6.2 6.15 6.05 5.95 5.85 5.8 5.7 5.45 5.35 5.1 5 4.75 4.65 4.4 4.3 4.1 L 7.05,3 Q 7.1,1.9 8.7,1.8 h 0.35 m 3.6,2.25 h -0.4 -2.3 q -0.7,0 -0.7,0.4 V 4.9 4.95 5.05 5.3 5.4 5.65 5.75 6 6.1 6.35 6.45 6.5 6.6 6.65 6.75 7 v 0.1 0.25 0.1 0.05 0.1 0.1 0.1 0.05 0.1 0.1 0.1 0.05 0.1 0.1 0.1 0.05 0.1 q 0,1.15 -1,1.15 H 8.15 8.05 8 7.9 7.8 7.7 7.65 7.55 7.3 7.2 6.95 6.85 6.6 6.5 6.25 6.15 5.95 5.85 5.6 5.5 5.25 5.15 5.1 5 4.9 4.8 4.75 4.65 4.55 4.45 4.3 q -0.8,0.15 -0.75,1 v 2 0.45 2.35 Q 3.5,16.3 4.1,16.25 h 0.1 0.1 0.1 0.05 0.1 0.1 0.1 H 4.8 4.9 5 5.1 5.15 5.25 5.5 5.6 5.85 5.95 6.15 6.25 6.5 6.6 6.85 6.95 7.2 7.3 7.55 7.65 7.7 7.8 7.9 8 8.1 q 1.25,0.05 1.15,1.25 v 0.1 0.05 0.1 0.1 0.1 0.05 0.1 0.1 0.1 0.05 0.1 0.1 0.1 0.05 0.1 0.1 0.1 0.05 0.1 0.2 0.1 0.1 0.1 0.05 0.1 0.25 0.1 0.25 0.1 0.25 0.1 0.25 0.1 0.05 q -0.1,0.7 0.9,0.7 h 2.1 0.4 2.25 0.3 l 0.15,-0.05 q 0.35,-0.2 0.3,-1.1 v -0.3 -0.1 -0.25 -0.1 -0.25 -0.1 -0.05 -0.1 -0.1 -0.1 -0.2 -0.1 -0.05 -0.1 -0.1 -0.1 -0.05 -0.1 -0.1 -0.1 -0.05 -0.1 -0.1 -0.1 -0.05 -0.1 -0.1 -0.1 -0.05 -0.1 q -0.1,-1.35 1.1,-1.35 h 0.1 0.05 0.1 0.1 0.1 0.05 0.1 0.1 0.1 0.05 0.1 0.1 0.1 0.05 0.1 0.25 0.1 0.25 0.1 0.2 0.1 0.25 0.1 0.25 0.1 0.25 0.1 0.25 0.1 0.05 0.1 0.15 q 0.65,0.05 0.6,-0.7 v -2.3 -0.4 -2.1 Q 21.4,9.8 20.65,9.75 h -0.2 -0.1 -0.25 -0.1 -0.25 -0.1 -0.25 -0.1 -0.25 -0.1 -0.2 -0.1 -0.25 -0.1 -0.25 -0.1 -0.05 -0.1 -0.1 -0.1 -0.05 -0.1 -0.1 -0.1 H 17.2 17.1 17 16.9 16.85 Q 15.75,9.8 15.65,8.7 V 8.65 8.55 8.5 8.4 8.3 8.2 8.15 8.05 7.95 7.85 7.8 7.7 7.6 7.5 7.45 7.35 7.1 7 6.75 6.65 6.6 6.5 6.45 6.35 6.1 6 5.75 5.65 5.4 5.3 5.05 4.95 q 0,-1 -0.85,-0.9 h -2.15"
         fill="#000000"
         fill-rule="evenodd"
         stroke="none"
         id="path5" />
      <path
         d="m 11.35,10.2 q 0.65,0.2 1.15,1.3 0.5,-1.1 1.15,-1.3 l 1.2,-0.1 q 0.55,0.05 1.2,0.65 0.75,0.55 0.75,1.65 l -0.3,1.7 -1.75,1.75 q -1.45,1.1 -2.2,1.9 L 10.2,15.8 Q 8.6,14.65 8.35,14.05 8.05,13.45 8.15,12.4 8.2,11.3 8.95,10.75 9.6,10.15 10.15,10.1 l 1.2,0.1"
         fill="#ff5858"
         fill-rule="evenodd"
         stroke="none"
         id="path6" />
    </g>
    <g
       id="shape1">
      <path
         d="m 27.85,20.45 0.05,0.05 q 0.2,0.6 -0.3,0.95 l -0.3,0.15 0.1,0.6 0.05,0.5 q 0.25,0.6 0,1.1 l 0.1,0.45 q 0,0.95 -1.05,0.65 -4.05,-1.1 -7.85,-2.95 l -3.4,-1.6 -0.35,0.15 q -4.05,1.85 -8.35,3.1 l -1.9,0.65 -1.2,0.3 Q 3.2,24.95 2.5,24.8 L 2.2,24.5 2.05,24.4 Q 1.85,23.55 2,22.75 L 2.5,20.25 2.7,20.1 2.85,20 3,19.55 3.3,19.35 3.55,19.3 q 0.55,-0.75 1.6,-1.1 l 0.2,-0.05 q 0.75,-0.5 1.55,-0.85 3.45,-1.45 6.7,-3.25 l 0.15,0.05 0.3,-0.25 0.05,-0.3 0.2,-0.15 q 0.15,-0.15 0.4,-0.15 l 0.15,0.05 h 0.1 l 0.05,0.05 0.05,0.05 q 0.35,0.05 0.5,0.4 l 0.05,0.05 1.2,0.8 2.2,1 7.25,3.65 0.65,0.55 q 0.6,0.1 0.95,0.6 M 26.15,9.4 q 0.9,0.05 1.1,0.95 0.45,1.45 0.55,2.95 l 0.2,0.45 v 0.45 0.3 q 0.4,0.95 0.05,1.95 -0.55,1.65 -2.2,1.05 l -1.35,-0.6 -10.45,-5.4 -3.2,2.35 q -2.4,1.6 -5.05,1.95 -0.9,0.6 -1.7,1.35 l -0.5,0.2 Q 2.55,17.5 2.45,16.95 L 2,16.65 Q 1.75,16.15 1.8,15.6 L 2,15 1.95,13.2 Q 1.9,12.25 2.2,11.4 L 2.25,10.95 2.35,10.5 2.5,10.2 2.85,9.9 Q 3.2,9.6 3.7,9.6 L 4.25,9.8 4.75,9.3 9.1,5.3 Q 11.3,3.2 13.9,2.05 V 1.8 L 14.25,1.5 Q 14.6,1.2 15.1,1.2 l 0.3,0.05 0.25,0.05 0.2,0.1 4.35,4 5.95,4"
         fill="#49f849"
         fill-rule="evenodd"
         stroke="none"
         id="path7" />
      <path
         d="m 15.45,-0.25 h 0.1 l 0.9,0.7 3.1,2.65 3.3,2.55 0.95,0.75 1.2,0.95 3,2.1 0.05,0.05 0.2,0.2 0.4,0.45 0.1,0.2 0.05,0.2 0.05,0.2 0.05,0.35 v 0.35 0.05 l 0.1,0.9 0.05,4.2 v 0.3 0.65 L 28.9,21.2 28.75,24.35 28.7,24.6 v 0.15 l -0.05,0.6 0.05,0.25 -0.05,0.25 v 0.05 l -0.4,0.6 -0.6,0.2 -0.25,-0.05 -2.6,-0.8 -1.45,-0.5 -2,-0.8 -1.25,-0.45 -4.05,-1.6 -1.1,-0.5 -1.15,0.5 -4.05,1.6 -1.25,0.45 -2,0.8 -1.4,0.5 -2.65,0.8 L 2.2,26.7 1.6,26.5 1.2,25.9 V 25.85 25.6 25.35 L 1.15,24.75 V 24.6 24.35 L 0.95,21.2 0.8,17.55 V 16.9 16.6 l 0.05,-4.2 0.1,-0.9 V 11.45 11.1 L 1,10.75 1.05,10.55 1.15,10.35 1.2,10.15 1.6,9.7 1.8,9.5 1.85,9.45 4.9,7.35 6.05,6.4 7,5.65 10.3,3.1 l 3.1,-2.65 0.95,-0.7 h 0.05 0.55 0.5 m 7,18.15 -1.1,-0.5 -3.65,-2.2 -0.75,-0.45 -1.2,-0.7 -0.1,-0.1 -0.7,-0.45 -0.75,0.5 -0.1,0.05 -1.2,0.7 -0.75,0.45 -3.65,2.2 -1.05,0.5 -1.7,0.9 -0.55,0.25 -2.15,1.1 v 2.6 0.45 L 3.2,24.45 10.05,21.8 14.3,20 h 0.05 l 0.1,-0.05 0.35,-0.05 h 0.2 0.05 0.05 l 0.3,0.05 0.1,0.05 h 0.05 l 4.25,1.8 6.9,2.65 0.1,-1.25 v -0.45 -2.6 L 24.65,19.05 24.1,18.8 22.45,17.9 M 24.65,9.4 24.1,9 22.45,7.8 22.25,7.7 21.35,7.1 18.15,4.45 17.45,3.9 16,2.75 15.8,2.55 15.75,2.5 14.95,1.8 14.1,2.5 14.05,2.55 13.85,2.75 12.4,3.9 11.75,4.45 8.5,7.1 7.6,7.7 7.45,7.8 5.75,9 5.2,9.4 3.15,10.8 3.1,11.25 3.05,15.4 3.1,16.85 10.05,13.2 q 2.2,-1.15 4.25,-2.5 h 0.05 q 0.2,-0.15 0.45,-0.15 h 0.25 l 0.45,0.15 h 0.05 q 2.05,1.35 4.25,2.5 l 7,3.65 V 15.4 L 26.75,11.25 26.7,10.8 24.65,9.4"
         fill="#000000"
         fill-rule="evenodd"
         stroke="none"
         id="path8" />
      <path
         d="m 24.65,9.4 2.05,1.4 0.05,0.45 0.05,4.15 v 1.45 l -7,-3.65 Q 17.6,12.05 15.55,10.7 H 15.5 L 15.05,10.55 H 14.8 q -0.25,0 -0.45,0.15 H 14.3 q -2.05,1.35 -4.25,2.5 L 3.1,16.85 3.05,15.4 3.1,11.25 3.15,10.8 5.2,9.4 5.75,9 7.45,7.8 7.6,7.7 8.5,7.1 11.75,4.45 12.4,3.9 l 1.45,-1.15 0.2,-0.2 0.05,-0.05 0.85,-0.7 0.8,0.7 0.05,0.05 0.2,0.2 1.45,1.15 0.7,0.55 3.2,2.65 0.9,0.6 0.2,0.1 1.65,1.2 0.55,0.4 m -2.2,8.5 1.65,0.9 0.55,0.25 2.15,1.1 v 2.6 0.45 L 26.7,24.45 19.8,21.8 15.55,20 H 15.5 L 15.4,19.95 15.1,19.9 H 15.05 15 14.8 L 14.45,19.95 14.35,20 H 14.3 L 10.05,21.8 3.2,24.45 3.05,23.2 v -0.45 -2.6 l 2.15,-1.1 0.55,-0.25 1.7,-0.9 1.05,-0.5 3.65,-2.2 0.75,-0.45 1.2,-0.7 0.1,-0.05 0.75,-0.5 0.7,0.45 0.1,0.1 1.2,0.7 0.75,0.45 3.65,2.2 1.1,0.5"
         fill="#8fde8f"
         fill-rule="evenodd"
         stroke="none"
         id="path9" />
    </g>
  </defs>
</svg>
