<?xml version="1.0" encoding="UTF-8" standalone="no"?>
<svg
   ffdec:objectType="frame"
   height="26.601168"
   width="29.16638"
   version="1.1"
   id="svg6"
   sodipodi:docname="STATUS_Poison_Lace_Icon.svg"
   xmlns:inkscape="http://www.inkscape.org/namespaces/inkscape"
   xmlns:sodipodi="http://sodipodi.sourceforge.net/DTD/sodipodi-0.dtd"
   xmlns:xlink="http://www.w3.org/1999/xlink"
   xmlns="http://www.w3.org/2000/svg"
   xmlns:svg="http://www.w3.org/2000/svg"
   xmlns:ffdec="https://www.free-decompiler.com/flash">
  <sodipodi:namedview
     id="namedview6"
     pagecolor="#ffffff"
     bordercolor="#000000"
     borderopacity="0.25"
     inkscape:showpageshadow="2"
     inkscape:pageopacity="0.0"
     inkscape:pagecheckerboard="0"
     inkscape:deskcolor="#d1d1d1" />
  <g
     transform="translate(14.71638,13.451169)"
     id="g1">
    <use
       ffdec:characterId="3228"
       height="26.65"
       transform="translate(-14.55,-13.65)"
       width="29.15"
       xlink:href="#sprite0"
       id="use1" />
  </g>
  <defs
     id="defs6">
    <g
       id="sprite0">
      <use
         ffdec:characterId="3227"
         height="26.65"
         width="29.15"
         xlink:href="#shape0"
         id="use2" />
    </g>
    <g
       id="shape0">
      <path
         d="M 3.3,24.9 Q 2.25,24.4 1.75,23 q -0.5,-1.4 -0.4,-2.8 0.05,-1.45 1,-4 L 3.3,13.8 4.75,10.35 5.15,9.5 Q 5.3,9.25 4.3,9.85 L 12.05,2.35 13.1,1.7 q 0.3,-0.1 0.55,0.15 l 0.8,0.8 q 0.6,0.6 -0.85,1.95 l 2.7,2.6 q 7.9,1.4 9.3,2.2 1.05,0.45 1.5,0.8 0.4,0.35 0.4,1.4 -0.05,1 -1.55,2.7 l -2.2,2.55 -1.65,1.65 -0.05,0.05 -0.2,0.2 L 21.6,19 18,22.25 q -2.15,1.8 -3.05,1.85 -0.9,0.05 -1.35,-0.35 -0.45,-0.4 -0.95,-1.4 Q 11.9,20.9 10.5,13 L 7.85,10.35 Q 6.7,11.6 6.1,11.25 l 1,2.55 0.95,2.4 q 0.95,2.55 1.05,4 0.05,1.4 -0.35,2.6 -0.45,1.2 -1.3,1.8 -0.85,0.55 -2,0.7 L 3.3,24.9 M 9,16.45 v -0.2 L 8.9,16.2 8.95,16.1 8.85,16 8.9,15.95 8.85,15.9 8.7,15.25 8.6,14.95 v -0.2 l -0.1,-0.3 -0.05,-0.3 -0.1,-0.1 0.05,-0.1 -0.1,-0.1 V 13.7 l -0.2,-0.45 -0.05,-0.2 -0.1,-0.1 0.1,-0.1 v -0.1 L 8.15,12.65 8.6,12.6 8.95,12.7 9,12.75 8.95,12.8 9.05,12.85 9,12.9 h 0.1 l -0.05,0.1 0.1,0.05 -0.05,0.1 0.05,0.05 0.15,0.4 v 0.05 l 0.15,0.25 0.05,0.05 -0.05,0.1 0.1,0.05 -0.05,0.1 0.05,0.05 0.1,0.3 0.05,0.05 -0.05,0.1 0.1,0.05 -0.05,0.1 0.05,0.05 0.1,0.25 0.05,0.05 -0.05,0.05 h 0.1 l -0.05,0.1 0.1,0.05 0.1,0.45 0.1,0.5 v 0.2 0.35 L 9.95,17.15 10,17.2 H 9.8 L 9.3,17.1 9.25,17.05 9.1,16.7 9.05,16.6 V 16.5 L 9,16.45"
         fill="#ffffff"
         fill-rule="evenodd"
         stroke="none"
         id="path2" />
      <path
         d="M 3.3,24.9 Q 2.25,24.4 1.75,23 q -0.5,-1.4 -0.4,-2.8 0.05,-1.45 1,-4 L 3.3,13.8 4.75,10.35 5.15,9.5 Q 5.3,9.25 4.3,9.85 L 12.05,2.35 13.1,1.7 q 0.3,-0.1 0.55,0.15 l 0.8,0.8 q 0.6,0.6 -0.85,1.95 l 2.7,2.6 q 7.9,1.4 9.3,2.2 1.05,0.45 1.5,0.8 0.4,0.35 0.4,1.4 -0.05,1 -1.55,2.7 l -2.2,2.55 -1.65,1.65 -0.05,0.05 -0.2,0.2 L 21.6,19 18,22.25 q -2.15,1.8 -3.05,1.85 -0.9,0.05 -1.35,-0.35 -0.45,-0.4 -0.95,-1.4 Q 11.9,20.9 10.5,13 L 7.85,10.35 Q 6.7,11.6 6.1,11.25 l 1,2.55 0.95,2.4 q 0.95,2.55 1.05,4 0.05,1.4 -0.35,2.6 -0.45,1.2 -1.3,1.8 -0.85,0.55 -2,0.7 z"
         fill="none"
         stroke="#ffffff"
         stroke-linecap="round"
         stroke-linejoin="round"
         stroke-width="3"
         id="path3" />
      <path
         d="M 9.35,9.85 9.3,9.8 9.25,9.75 Q 8.05,9.35 7.55,8.9 L 7.4,8.55 l 6.15,1 2.65,0.5 h -0.15 q -0.7,0.2 -0.95,0.6 -0.4,0.65 0.2,1.25 0.4,0.5 1.2,0.65 l 2.2,0.3 1.2,-0.25 q 0.65,-0.3 0.65,-1.05 -0.05,-0.6 -0.7,-0.95 l 2.45,0.2 q 2.7,0.05 1.3,-0.15 L 23.65,10.6 H 23.6 l 0.1,-0.05 h -0.05 l 0.1,-0.05 q -0.1,-0.1 0.1,-0.1 h 0.5 0.1 l 0.6,0.35 h 0.1 q 0.45,0.15 0.55,0.65 l 0.1,0.5 v 0.05 0.1 l -0.05,0.15 v 0.05 l -0.05,0.25 -0.05,0.05 -0.2,0.5 -0.25,0.25 -0.1,0.25 -0.95,0.95 -0.85,0.55 -1.05,1 -1.65,1.75 -1.7,1.7 -0.1,0.05 -0.35,0.35 -0.15,0.15 -0.3,0.25 -0.75,0.75 -1.4,0.9 0.05,-0.05 -0.95,0.25 h -0.1 Q 14.3,22.15 13.9,21 V 20.95 Q 12.3,16.15 12.15,13.7 L 12.1,13.05 11.8,12.1 H 11.75 L 11.6,11.95 11.5,11.85 10.85,11.2 9.95,10.4 9.4,9.95 9.35,9.85"
         fill="#91c168"
         fill-rule="evenodd"
         stroke="none"
         id="path4" />
      <path
         d="M 3.95,16.3 5.2,13 l 1.25,3.3 0.45,1.35 0.3,1.4 0.05,1.45 -0.1,0.65 Q 6.8,22.55 6.4,22.95 L 5.35,23.4 Q 4.75,23.45 4.2,23.05 3.6,22.55 3.25,21.15 L 3.15,20.5 3.2,19.05 3.5,17.65 3.95,16.3 m 1.4,2.15 -0.2,-1 L 4.55,17 Q 4.2,17 4,17.45 q -0.25,0.4 -0.25,1 0,0.6 0.25,1.05 0.2,0.4 0.55,0.4 l 0.6,-0.4 0.2,-1.05"
         fill="#91c168"
         fill-rule="evenodd"
         stroke="none"
         id="path5" />
      <path
         d="M 12.3,12.35 13.15,17 q 0.8,4.3 1.7,4.6 1.25,0.45 4.65,-3.05 l 2.7,-2.7 0.45,-0.45 Q 25.3,12.65 24.95,11.5 24.6,10.65 20.3,9.85 L 15.7,8.95 14.15,7.6 12.4,5.85 12.35,5.9 10.7,7.55 9.25,9 9.2,9.05 l 1.75,1.75 1.35,1.55 m -9,12.5 q -1.05,-0.5 -1.55,-1.9 -0.5,-1.4 -0.4,-2.8 0.05,-1.45 1,-4 L 3.3,13.75 4.75,10.3 5.15,9.45 5.6,8.75 12.05,2.3 13.1,1.65 q 0.3,-0.1 0.55,0.15 l 0.8,0.8 q 0.6,0.6 -0.85,1.95 l 2.7,2.6 q 7.9,1.4 9.3,2.2 1.05,0.45 1.5,0.8 0.4,0.35 0.4,1.4 -0.05,1 -1.55,2.7 l -2.2,2.55 -1.65,1.65 -0.05,0.05 -0.2,0.2 L 21.6,18.95 18,22.2 Q 15.85,24 14.95,24.05 14.05,24.1 13.6,23.7 13.15,23.3 12.65,22.3 11.9,20.85 10.5,12.95 L 7.85,10.3 Q 6.7,11.55 6.1,11.2 l 1,2.55 0.95,2.4 q 0.95,2.55 1.05,4 0.05,1.4 -0.35,2.6 -0.45,1.2 -1.3,1.8 -0.85,0.55 -2,0.7 L 3.3,24.85 m 0.65,-8.55 -0.45,1.35 -0.3,1.4 -0.05,1.45 0.1,0.65 q 0.35,1.4 0.95,1.9 0.55,0.4 1.15,0.35 L 6.4,22.95 q 0.4,-0.4 0.75,-1.8 L 7.25,20.5 7.2,19.05 6.9,17.65 6.45,16.3 5.2,13 3.95,16.3"
         fill="#000000"
         fill-rule="evenodd"
         stroke="none"
         id="path6" />
    </g>
  </defs>
</svg>
