<?xml version="1.0" encoding="UTF-8" standalone="no"?>
<svg
   ffdec:objectType="frame"
   height="31.251131"
   width="29.750492"
   version="1.1"
   id="svg7"
   sodipodi:docname="UI_Cleave_Icon.svg"
   xmlns:inkscape="http://www.inkscape.org/namespaces/inkscape"
   xmlns:sodipodi="http://sodipodi.sourceforge.net/DTD/sodipodi-0.dtd"
   xmlns:xlink="http://www.w3.org/1999/xlink"
   xmlns="http://www.w3.org/2000/svg"
   xmlns:svg="http://www.w3.org/2000/svg"
   xmlns:ffdec="https://www.free-decompiler.com/flash">
  <sodipodi:namedview
     id="namedview7"
     pagecolor="#ffffff"
     bordercolor="#000000"
     borderopacity="0.25"
     inkscape:showpageshadow="2"
     inkscape:pageopacity="0.0"
     inkscape:pagecheckerboard="0"
     inkscape:deskcolor="#d1d1d1" />
  <g
     transform="translate(14.450494,15.798485)"
     id="g1">
    <use
       ffdec:characterId="3320"
       height="31.25"
       transform="translate(-18.45,-15.4)"
       width="29.75"
       xlink:href="#sprite0"
       id="use1" />
  </g>
  <defs
     id="defs7">
    <g
       id="sprite0">
      <use
         ffdec:characterId="3319"
         height="31.25"
         width="29.75"
         xlink:href="#shape0"
         id="use2" />
    </g>
    <g
       id="shape0">
      <path
         d="m 16.05,14.5 q 2.7,-4.7 3.85,-12.4 0.2,-1.75 1.75,-1.05 4.1,1.7 8.35,4.5 1.4,0.9 2.15,1.75 l 0.15,0.2 0.2,1 q -0.5,4.7 -2.25,7.8 l -1.85,3 q -2.65,3.45 -4.15,4.7 -1.5,1.2 -2,0.9 l -1.2,-1.35 q -0.75,-1 -2.6,-2.25 l -2.7,3.25 q -2,2.3 -4.2,3.7 Q 9.3,29.65 8.2,29.6 7.05,29.55 5.95,28.45 4.85,27.3 5.45,26.5 L 6.9,25.15 10.75,21.6 q 2.55,-2.4 5.3,-7.1 z"
         fill="none"
         stroke="#ffffff"
         stroke-linecap="round"
         stroke-linejoin="round"
         stroke-width="2.5"
         id="path2" />
      <path
         d="M 28,5.05 Q 29.5,5.8 30.35,6.9 31,6.9 31.4,7.65 31.7,8.2 31.6,9.2 L 31.25,11 q -0.9,3.25 -2.25,5.1 l -1.05,1.45 -0.6,1.1 -1.8,2.45 -1.5,1.7 q -1,0.9 -1.55,0.8 -0.5,-0.05 -1.05,-0.8 l 0.05,-0.4 q 0,-9.1 -0.45,-14.95 l 0.9,-3.3 Q 24.4,5 25.85,5.6 l 2.5,1.05 1.1,0.55 H 29.5 L 29.85,7 29.65,6.5 28.2,5.2 28,5.05 M 20.3,21.55 18.65,20 18.5,15.3 18.4,12.85 18.35,12.7 18.8,11.65 19.95,10 20,12.85 l 0.3,8.7 M 17.65,19.1 q -0.55,-0.4 -1.1,-0.5 l -1.1,-0.3 Q 15.2,18 15.35,17.7 l -0.1,-0.35 q 0,-0.35 0.55,-0.8 l 1.8,-2.35 0.05,4.9 M 20.75,3.65 20.7,3.35 20.8,3.4 20.75,3.65 m 0.05,-1.2 0.1,-0.1 1.5,-0.05 1.4,0.85 -0.85,-0.3 -1.15,-0.2 -0.4,-0.3 q -0.2,0 -0.3,0.15 L 20.8,2.45 m 3.45,6.35 -0.2,-0.45 -0.5,-0.2 -0.5,0.2 -0.2,0.45 0.2,0.45 q 0.2,0.2 0.5,0.2 l 0.5,-0.2 0.2,-0.45"
         fill="#727272"
         fill-rule="evenodd"
         stroke="none"
         id="path3" />
      <path
         d="m 21.45,22.8 -0.3,0.35 Q 20.8,23.3 20.6,22.9 20.3,22.55 20.3,21.7 V 21.55 L 20,12.85 19.95,10 l -1.15,1.65 -0.4,0.55 -0.2,0.15 0.05,0.05 0.1,0.3 0.05,0.15 0.1,2.45 0.15,4.7 v 0.4 L 18.5,21.15 18.25,21.3 17.95,21.15 17.8,20.5 17.65,19.7 V 19.1 L 17.6,14.2 17.55,12.85 17.7,12.4 q 0.1,-0.1 0.25,-0.1 l -0.05,-0.15 0.1,-0.3 0.85,-1.9 1.05,-2.6 0.05,-2.6 0.1,-0.5 Q 20.15,4 20.45,4 l 0.2,0.1 0.1,-0.45 L 20.8,3.4 20.7,3.35 20.6,3.3 20.1,2.9 20.35,2.5 20.8,2.45 21.1,2.5 q 0.1,-0.15 0.3,-0.15 l 0.4,0.3 1.15,0.2 0.85,0.3 q 1.15,0.35 2.15,0.8 1.3,0.55 2.05,1.1 L 28.2,5.2 29.65,6.5 29.85,7 29.5,7.2 H 29.45 L 28.35,6.65 25.85,5.6 Q 24.4,5 21.95,4.15 l -0.9,3.3 Q 21.5,13.3 21.5,22.4 l -0.05,0.4"
         fill="#ffffff"
         fill-rule="evenodd"
         stroke="none"
         id="path4" />
      <path
         d="m 24.25,8.8 -0.2,0.45 -0.5,0.2 q -0.3,0 -0.5,-0.2 l -0.2,-0.45 0.2,-0.45 0.5,-0.2 0.5,0.2 0.2,0.45"
         fill="#482121"
         fill-rule="evenodd"
         stroke="none"
         id="path5" />
      <path
         d="m 16.05,14.5 q 2.7,-4.7 3.85,-12.4 0.2,-1.75 1.75,-1.05 4.1,1.7 8.35,4.5 1.4,0.9 2.15,1.75 l 0.15,0.2 0.2,1 q -0.5,4.7 -2.25,7.8 l -1.85,3 q -2.65,3.45 -4.15,4.7 -1.5,1.2 -2,0.9 l -1.2,-1.35 q -0.75,-1 -2.6,-2.25 l -2.7,3.25 q -2,2.3 -4.2,3.7 Q 9.3,29.65 8.2,29.6 7.05,29.55 5.95,28.45 4.85,27.3 5.45,26.5 L 6.9,25.15 10.75,21.6 q 2.55,-2.4 5.3,-7.1 m 6.15,7.9 0.45,0.55 0.3,-0.3 0.85,-0.75 1.45,-1.5 1.15,-1.35 0.05,-0.05 q 2.25,-2.95 3.15,-4.85 l 1.25,-3.5 0.3,-2.2 L 29.9,7.55 29.05,7 q -3.3,-2.2 -7.75,-4.45 -0.1,6 -4.35,13.35 l -1.3,2.05 q 1.5,0.55 3.6,1.9 1.8,1.1 2.95,2.55 m 1.45,-17.35 -0.2,0.6 -0.6,0.2 q -0.35,0 -0.55,-0.2 l -0.25,-0.6 q 0,-0.35 0.25,-0.55 0.2,-0.25 0.55,-0.25 0.35,0 0.6,0.25 l 0.2,0.55 M 7.1,26.85 q -0.35,0.4 0.45,0.85 0.75,0.45 2.3,-0.3 1.5,-0.8 3.35,-2.45 1.8,-1.65 3.85,-4.6 l -2.1,-1 q -2.75,3.3 -5.1,5.2 l -2.75,2.3"
         fill="#000000"
         fill-rule="evenodd"
         stroke="none"
         id="path6" />
      <path
         d="m 29.05,7 0.85,0.55 1.25,0.9 -0.3,2.2 -1.25,3.5 q -0.9,1.9 -3.15,4.85 l -0.05,0.05 -1.15,1.35 -1.45,1.5 -0.85,0.75 -0.3,0.3 -0.45,-0.55 0.5,-0.7 0.05,-0.05 v -0.9 q 0.15,-0.8 0.65,-1.05 l 0.85,-0.15 Q 24.8,19.5 24.8,18.7 v -0.95 q 0.2,-1.05 1.1,-1.4 l 0.2,-0.05 q 1.1,-0.05 0.65,-1.2 l -0.8,-2 q -0.5,-1.3 -0.3,-2.05 0.2,-0.8 0.35,-0.9 L 26.3,9.5 Q 26.5,8.95 25.25,7.7 23.95,6.45 23.95,5.8 l 1.25,0.05 q 1.25,0.7 1.6,2 0.35,1.25 0.9,1.4 l 1,-0.15 Q 29.15,8.75 28.95,8 28.75,7.2 29.05,7 m -3.45,7.2 q 0.45,0.65 -1.35,0 l -0.4,-0.15 q -0.3,-0.1 -0.3,-0.45 0,-0.25 0.25,-0.4 l 0.45,-0.05 q 0.55,0.05 1.35,1.05 m -0.6,1.6 -0.75,0.3 q -0.65,0.1 -1.15,0.6 -0.5,0.45 -1,0.15 -0.55,-0.35 -0.55,-0.8 0,-0.45 0.55,-0.75 0.5,-0.35 1.25,-0.35 0.75,0 1.3,0.35 0.5,0.3 0.35,0.5 M 7.1,26.85 9.85,24.55 q 2.35,-1.9 5.1,-5.2 l 2.1,1 Q 15,23.3 13.2,24.95 11.35,26.6 9.85,27.4 8.3,28.15 7.55,27.7 6.75,27.25 7.1,26.85"
         fill="#482121"
         fill-rule="evenodd"
         stroke="none"
         id="path7" />
    </g>
  </defs>
</svg>
