<?xml version="1.0" encoding="UTF-8" standalone="no"?>
<svg
   ffdec:objectType="frame"
   height="31.780954"
   width="26.506405"
   version="1.1"
   id="svg3"
   sodipodi:docname="STATUS_Bonus_Attack_Icon.svg"
   xmlns:inkscape="http://www.inkscape.org/namespaces/inkscape"
   xmlns:sodipodi="http://sodipodi.sourceforge.net/DTD/sodipodi-0.dtd"
   xmlns:xlink="http://www.w3.org/1999/xlink"
   xmlns="http://www.w3.org/2000/svg"
   xmlns:svg="http://www.w3.org/2000/svg"
   xmlns:ffdec="https://www.free-decompiler.com/flash">
  <sodipodi:namedview
     id="namedview3"
     pagecolor="#ffffff"
     bordercolor="#000000"
     borderopacity="0.25"
     inkscape:showpageshadow="2"
     inkscape:pageopacity="0.0"
     inkscape:pagecheckerboard="0"
     inkscape:deskcolor="#d1d1d1" />
  <g
     transform="translate(13.219745,16.57595)"
     id="g1">
    <use
       ffdec:characterId="3139"
       height="73.599998"
       transform="matrix(0.4321,0,0,0.4321,-16.05,-8.15)"
       width="61.349998"
       xlink:href="#shape0"
       id="use1" />
  </g>
  <defs
     id="defs3">
    <g
       id="shape0">
      <path
         d="m 19.4,-19.25 0.05,0.1 0.85,0.95 h 0.05 v 0.05 l 2.25,2.95 2.55,3.8 2.45,3.8 0.8,1.35 0.2,0.05 1.95,-4.35 0.2,-0.45 0.05,-0.1 0.15,-0.3 0.3,-0.35 0.75,-0.45 0.25,-0.1 1.05,0.4 1.05,1.35 3.8,5.35 2,2.95 0.1,0.1 0.3,0.65 v 0.35 L 40.5,-1 l -0.1,1.3 -0.45,1.3 0.2,0.5 0.35,0.55 0.15,0.25 0.25,-0.1 1.25,-0.4 2,0.1 0.7,0.2 Q 45.5,2.85 46,3.25 l 0.8,0.55 0.45,0.5 0.55,0.6 2.45,3.7 1.2,1.75 2.1,3.5 1.25,1.85 1.7,2.8 4.7,7.3 2.35,3.85 0.05,0.05 2.5,3.85 q 2.3,3.7 1.65,7.9 -0.95,2.55 -2.65,4.8 -4.15,5.3 -10,6.95 l -1.85,0.5 -0.95,0.15 -3.1,0.2 -0.55,-0.1 -0.8,-0.1 q -1.5,-0.25 -2.65,-1.2 l -0.25,-0.2 -0.9,-0.75 -0.9,-0.75 q -4.05,1.5 -8.3,1.95 l -0.6,0.15 q -8.75,1.8 -16.15,-2.3 -1.8,-1.05 -3.2,-2.45 -2.55,-1.65 -4.1,-4.45 -2.7,-4.7 -1.45,-9.9 0.75,-3.3 2.7,-6.1 L 12.5,27 l 0.55,-0.8 0.3,-0.35 0.8,-1.7 1.1,-2.25 0.65,-2.45 -2.85,-4 Q 11.55,13.9 10.7,11.8 9.45,8.9 11.1,6.15 11.65,5.25 12.4,4.7 L 12.35,4.65 9.8,1.15 9.4,0.5 8.2,-1.35 7.05,-3.6 6.8,-4 V -4.15 L 6.55,-5.2 q 0,-1.3 1.3,-1.5 l 4.1,0.55 -0.55,-1 -1.55,-2.75 -0.3,-0.5 -0.4,-0.7 -0.2,-0.45 Q 8.45,-12.2 8.35,-13 l 0.05,-0.4 q 0.05,-0.55 0.55,-0.85 l 0.45,-0.1 h 0.1 l 3.4,0.4 1.15,0.25 0.15,0.05 1.1,0.15 1.35,-3.75 0.45,-0.85 0.15,-0.35 q 0.35,-0.85 0.8,-0.95 l 0.45,-0.1 0.3,0.05 0.6,0.2 m 0,56.05 0.1,0.65 0.15,0.75 v 0.05 l 1.05,2.65 1.5,1.2 q 5.55,2.6 12.05,0.7 L 35.35,42.45 35.3,42.3 33.95,40.65 28.4,34.5 23.1,28.35 21.8,31.1 q -1.2,2.4 -2.25,4.9 l -0.15,0.8"
         fill="#ffffff"
         fill-rule="evenodd"
         stroke="none"
         id="path1" />
      <path
         d="m 18.25,-13.65 0.05,-0.2 0.6,-0.15 0.7,0.35 h 0.1 l 1.2,0.95 0.9,1.3 0.1,0.15 1.25,1.55 0.4,1.3 q 0.35,1.3 -0.45,2.65 l -0.1,0.2 -0.45,0.35 -0.25,0.25 q 0.1,1 -0.95,1.55 1.6,2.9 -0.35,5.2 -0.4,0.45 -0.9,0.35 L 19.9,2.1 q 0.15,1 -1.2,1.9 l -2.65,-0.1 -2.6,-2 -2.4,-3.85 -0.35,-0.5 0.1,-0.15 0.4,-0.75 1.9,0.45 1.3,0.35 0.9,-0.05 1.8,1.4 -0.45,-2 -1.1,-2 Q 15.35,-5.75 15.4,-6.3 L 14.85,-6.95 Q 12.9,-8 13.4,-10 l 0.5,-1.1 q 1.35,0.85 3.05,0.95 l 0.15,-0.05 q 1,-1.6 1.15,-3.45 m -1.95,2.35 h -0.1 0.05 0.05 m 12.75,8.4 V -3 l 1.9,0.65 q -0.25,-1.05 -0.1,-2.1 0.2,-1.75 1.95,-1.85 1.45,-0.05 2.15,1.25 l 0.2,0.5 0.65,0.8 q 0.35,0.55 0.3,1.15 1.05,1.35 0.75,2.3 1.35,2.1 -1.15,3.65 l -1.1,0.1 q -0.65,0.3 -1.65,0 Q 31.45,3 30.1,2.35 29.7,1.5 29,1 L 28.75,0.65 27,-1.65 l 0.05,-0.15 0.6,-0.7 q 0.6,-0.5 1.4,-0.4 M 43.8,9.25 q 2.05,0.15 1.65,2.05 2.2,1.35 3.9,3.6 1.25,1.65 0.7,3.45 L 53.8,24 55,25.4 q 2.95,3.8 5.2,8 1,1.85 1.35,3.8 0.6,1.4 0.6,2.95 0,1.65 -1.3,2.65 L 59,44.05 q -1.5,2.2 -4.3,3.8 l -0.55,0.2 Q 51.45,48.1 49.4,46.9 47.25,46.85 46,44.85 L 44.65,43 V 42.9 L 44.6,42.85 v -0.1 L 44.55,42.7 43.9,42.15 42.85,40.9 40.5,38.35 Q 37.05,35.1 34.15,31.4 l -0.1,-0.2 Q 33.2,31.7 32.3,30.9 31.45,30.2 31.9,29.15 l 0.05,-0.1 -3.05,-3.35 -1,-1.3 q -3.2,-3.15 -5.85,-6.65 l -0.4,-0.95 q -2.2,-2.05 -3.75,-4.55 -0.55,-0.75 -0.4,-1.7 0.15,-1.2 1.3,-1.4 h 0.5 l 0.15,0.05 h 0.15 0.1 l 0.95,0.15 0.25,-0.05 0.15,0.1 4.9,0.65 1.8,0.3 2.5,0.25 0.35,-0.15 1.05,0.3 1.45,0.2 2.75,-0.5 5.95,-1.65 q 0.8,0.05 1.35,0.55 l 0.65,-0.1"
         fill="#825a33"
         fill-rule="evenodd"
         stroke="none"
         id="path2" />
      <path
         d="m 19.45,-13.3 -0.45,2.35 -0.15,0.7 -0.05,0.4 0.75,1.05 2.55,3.6 0.1,0.05 h 0.1 l 0.4,-1.4 V -6.6 l 0.05,-0.15 0.35,-1.5 -0.05,-0.05 -0.3,-0.35 -0.05,-0.05 v -0.05 l -3.05,-4.2 -0.2,-0.35 m 0.8,11.4 -2.2,-2.95 h 0.05 l -0.15,-0.2 -0.2,-0.3 -0.1,0.4 -0.3,1.4 -0.15,1.05 2.2,3.3 1.05,1.45 0.2,-1.3 0.35,-1.75 -0.05,-0.05 -0.7,-1 V -1.9 m -8.2,-0.4 h -0.1 l 0.85,1.4 0.65,1 1.9,2.6 0.15,0.25 2.4,0.45 -0.1,-0.1 H 18 V 3.25 l -3,-4.3 V -1.1 l -0.3,-0.4 -2.65,-0.8 m 3.85,-4.55 0.55,-1.8 0.1,-0.15 0.15,-0.3 h 0.15 l 2.5,3.3 1.45,1.9 L 21,-3.95 20.95,-4.1 17.2,-9.15 V -9.2 l -0.05,-0.1 -3.05,-0.6 -0.4,-0.05 0.15,0.2 h 0.05 v 0.05 l 0.1,0.15 1.2,1.7 0.7,1 m 1.6,-7.55 0.7,-2.2 0.3,-0.65 1.75,2.15 1,1.3 1.3,1.75 2.05,3.15 -0.2,0.8 q -0.25,0.55 -0.4,1.7 l -0.35,1.8 q -0.15,0.65 0,1.05 l 0.45,0.6 2.25,3.25 5.3,7.8 4.9,-0.4 L 36.35,7.4 35.25,5.85 35.15,5.7 35.1,5.65 34.75,5.3 34.7,5.15 34,5.05 31.95,4.75 30.3,4.5 27.55,0.45 26,-1.8 24.6,-3.9 q -0.5,-0.8 -0.4,-1 l 0.6,0.05 1.25,0.25 1.7,0.4 h 0.15 l 0.25,0.05 0.4,0.1 0.5,0.15 1.05,0.2 0.2,-0.05 0.1,-0.2 0.75,-3 0.7,-2.15 0.3,-0.65 1.5,1.95 0.8,1.1 1.4,1.9 2.4,3.4 -0.2,0.75 q -0.25,0.6 -0.4,1.75 L 37.3,2.9 q -0.15,0.65 0,1.05 l 0.45,0.6 1.65,2.4 0.95,-0.4 V 6.5 l 1.7,-0.65 0.9,-0.15 0.8,0.45 1,1 V 7.2 l 0.2,0.2 3.3,4.95 3.75,5.7 10.95,16 1.5,2.35 v 0.05 l 0.3,1.05 0.05,0.7 -0.25,1.05 -0.65,1.8 -0.75,1.55 v -0.05 q -2.7,4.6 -7.95,6.8 L 53.3,50.05 50,50.6 H 48.7 L 48,50.5 47,50.25 46.3,49.75 44.25,47.35 43.8,46.8 q -2.25,1.5 -4.95,2.3 l -4.6,1.15 q -8,1.8 -15.1,-1.6 l -2.6,-1.7 q -6.2,-5.3 -4.1,-13.15 0.85,-3.35 2.95,-6.15 3.25,-4.25 4,-9.4 l -5,-5.9 Q 12.3,9.9 13.85,8.45 V 8.4 L 14.15,8.15 14.2,8.1 14.3,8.05 Q 16.9,6.4 19.85,6.25 L 19.8,6.15 19.75,6.05 19.4,5.7 19.35,5.6 18.65,5.45 16.6,5.15 14.95,4.95 12.2,0.9 10.65,-1.35 9.25,-3.45 q -0.5,-0.8 -0.4,-1 l 0.6,0.05 1.25,0.25 1.7,0.35 0.15,0.05 0.25,0.05 0.1,0.05 h 0.05 l 0.45,0.1 0.3,0.1 1.05,0.15 h 0.2 l 0.1,-0.25 0.35,-1.25 -1.5,-2.2 -1.55,-2.3 -1.4,-2.05 q -0.5,-0.85 -0.4,-1 h 0.6 l 1.25,0.25 1.7,0.4 0.15,0.05 0.25,0.05 h 0.1 l 0.05,0.05 0.5,0.1 0.25,0.05 1.05,0.2 0.2,-0.05 0.1,-0.2 0.75,-2.95 m 4.55,8.55 -0.05,-0.05 0.05,0.05 m 0.6,5.75 -0.35,1.65 -0.35,1.75 q -0.2,0.65 0,1.1 l 0.45,0.55 1.15,1.65 1.15,0.35 3.5,0.8 -0.95,-1.3 -4.55,-6.5 -0.05,-0.05 m 4.9,-2.1 1.3,1.85 1.85,2.65 0.15,0.2 2.4,0.45 L 32,1.1 31.85,0.85 31.5,0.4 30.2,-1.6 28.35,-2 27.6,-2.25 H 27.55 V -2.2 M 32.5,-2.6 35.8,1.8 36,0.5 36.35,-1.25 Q 34.75,-3.3 33.3,-5.5 l -0.2,-0.3 -0.45,2.35 -0.15,0.75 v 0.1 m 8.15,13.65 q -2.75,0.95 -5.5,1.3 l -4.1,0.15 Q 27.6,12.3 24.1,11.2 l -4.75,-0.45 0.1,0.2 q 4.35,6.1 9.2,11.9 l 0.2,-0.2 1,-1.05 q 2.65,-2.9 5.85,-5.25 3.4,-2.5 7.25,-3.85 l -1.35,-1.9 -0.95,0.45 m 4.7,4.95 -1.6,-2.35 q -3.55,1.2 -6.7,3.4 -3.45,2.4 -6.2,5.6 l -1.15,1.4 1.8,2.15 0.2,0.2 2.5,-2.8 q 3.25,-3.2 7.15,-5.5 l 4,-2.1 M 49.2,46.15 50.55,46.1 Q 56.9,45 60.1,39.6 l 0.25,-0.55 0.1,-0.45 -0.15,-0.3 -8.4,-12.75 -5.75,-8.4 q -3,1.3 -5.75,3.2 -3.5,2.4 -6.4,5.5 l -1.4,1.6 11.8,13.3 2.85,3.45 0.25,0.25 1.35,1.55 0.35,0.15 M 17.05,41.6 q 0.8,1.6 2.4,2.8 l 1.3,0.95 q 6.4,2.8 13.45,0.85 3.6,-0.95 7.05,-2.45 L 39.45,41.65 26.7,26.8 22.6,22.05 q -1.65,5.4 -5.2,10 l -0.15,0.15 -0.6,1.15 q -1.6,4.2 0.4,8.25"
         fill="#000000"
         fill-rule="evenodd"
         stroke="none"
         id="path3" />
    </g>
  </defs>
</svg>
