<?xml version="1.0" encoding="UTF-8" standalone="no"?>
<svg
   ffdec:objectType="frame"
   height="32.830227"
   width="34.962711"
   version="1.1"
   id="svg5"
   sodipodi:docname="STATUS_Stun_Icon.svg"
   xmlns:inkscape="http://www.inkscape.org/namespaces/inkscape"
   xmlns:sodipodi="http://sodipodi.sourceforge.net/DTD/sodipodi-0.dtd"
   xmlns:xlink="http://www.w3.org/1999/xlink"
   xmlns="http://www.w3.org/2000/svg"
   xmlns:svg="http://www.w3.org/2000/svg"
   xmlns:ffdec="https://www.free-decompiler.com/flash">
  <sodipodi:namedview
     id="namedview5"
     pagecolor="#ffffff"
     bordercolor="#000000"
     borderopacity="0.25"
     inkscape:showpageshadow="2"
     inkscape:pageopacity="0.0"
     inkscape:pagecheckerboard="0"
     inkscape:deskcolor="#d1d1d1" />
  <g
     transform="translate(16.868239,16.505594)"
     id="g1">
    <use
       ffdec:characterId="3075"
       height="76.150002"
       transform="matrix(0.431,0,0,0.431,-14.15,-13.4)"
       width="81.099998"
       xlink:href="#shape0"
       id="use1" />
  </g>
  <defs
     id="defs5">
    <g
       id="shape0">
      <path
         d="m 63.3,46.55 -0.05,6.2 q 0,3.1 -0.7,6.2 -0.45,2.9 -1.95,5 -2.3,3.3 -4.05,2.75 Q 55.4,66.25 54,63.5 l -1.65,-3 V 60.45 Q 48.45,53.95 46.3,51.1 44.15,48.4 42.45,46.85 L 42.4,46.8 38.9,43.85 38.75,43.7 q -4.35,3.8 -9.6,6.35 h 0.05 l -1.5,0.75 -0.2,0.05 -2.35,0.5 H 25 q -1.95,0 -3.05,-1 -1.15,-0.6 -1.85,-4.1 L 17.5,38 v 0.05 Q 15.8,33.2 13.95,29.35 L 8.15,17.75 2.7,7.85 0.4,3.95 -0.4,2.6 -0.9,1.9 -1.05,1.7 Q -2.8,-0.3 -1.9,-1.8 -1,-2.95 1.55,-2.9 l 4.75,0.8 q 6.45,1.5 12.3,5.45 h -0.05 q 5.6,3.75 9.55,7.5 h 0.05 q 4,3.8 6,6.75 l 0.7,1.05 2.9,-2.85 v 0.05 l 6.3,-7 Q 46.8,5.5 50.2,7.5 53.65,8.95 57.05,15.9 61,24.1 62.3,32 v 0.05 q 1.15,7.7 1,14.4 v 0.1 M 51.25,46.2 q 1.7,2.4 2.65,4.3 l 2.75,5.4 0.15,-1.45 Q 57.1,46.75 56.15,39 55.1,31.25 52.3,24.1 q -1.75,-4.6 -4.65,-8.45 -4.4,5.8 -8.4,8.95 l -5,3.75 -1.2,0.1 Q 22.15,13.1 8.2,5.6 l 1.2,1.95 q 5.4,8.6 9.1,15.95 3.65,7.4 5.3,12.35 l 2.5,7.85 4.1,-2.15 q 3.4,-2.05 7.75,-6 5.65,2.7 8.55,5.45 2.85,2.75 4.55,5.2"
         fill="#ffffff"
         fill-rule="evenodd"
         stroke="none"
         id="path1" />
      <path
         d="m 66.85,50.7 q 0.05,-0.7 1.8,-0.55 l 4.1,0.8 q 2.8,0.35 1.8,2.4 -0.5,0.45 -1.35,0.45 l -1.1,-0.15 -0.6,-0.15 -1.9,-0.6 -1.45,-0.65 -0.8,-0.5 q -0.5,-0.5 -0.5,-1.05"
         fill="#ede9c7"
         fill-rule="evenodd"
         stroke="none"
         id="path2" />
      <path
         d="m 63.3,46.55 v -0.1 q 0.15,-6.7 -1,-14.4 V 32 Q 61,24.1 57.05,15.9 53.65,8.95 50.2,7.5 46.8,5.5 44.05,8.85 l -6.3,7 V 15.8 l -2.9,2.85 -0.7,-1.05 q -2,-2.95 -6,-6.75 H 28.1 Q 24.15,7.1 18.55,3.35 H 18.6 Q 12.75,-0.6 6.3,-2.1 L 1.55,-2.9 Q -1,-2.95 -1.9,-1.8 q -0.9,1.5 0.85,3.5 l 0.15,0.2 0.5,0.7 0.8,1.35 2.3,3.9 5.45,9.9 5.8,11.6 q 1.85,3.85 3.55,8.7 V 38 l 2.6,8.25 q 0.7,3.5 1.85,4.1 1.1,1 3.05,1 h 0.15 l 2.35,-0.5 0.2,-0.05 1.5,-0.75 h -0.05 q 5.25,-2.55 9.6,-6.35 l 0.15,0.15 3.5,2.95 0.05,0.05 q 1.7,1.55 3.85,4.25 2.15,2.85 6.05,9.35 v 0.05 l 1.65,3 q 1.4,2.75 2.55,3.2 1.75,0.55 4.05,-2.75 1.5,-2.1 1.95,-5 0.7,-3.1 0.7,-6.2 z"
         ffdec:has-small-stroke="true"
         ffdec:original-stroke-width="2.0"
         fill="none"
         stroke="#ffffff"
         stroke-linecap="round"
         stroke-linejoin="round"
         stroke-width="2.32043"
         id="path3" />
      <path
         d="m 33.2,8.5 q -0.55,-0.05 -0.4,-4.05 0.15,-4 0.75,-7.05 0.6,-3.05 1.2,-3.8 0.6,-0.8 1.25,-0.8 0.6,-0.05 1.1,0.35 0.45,0.35 0.55,1.55 0,1.15 -1.05,5 L 34.75,5.55 33.85,8 Q 33.7,8.5 33.2,8.5 M 67.25,2.8 q 0.7,-0.55 1.35,-0.6 0.9,-0.1 1.3,0.5 0.35,0.6 0,1.55 -0.35,0.95 -3.55,3 l -5.15,3.1 q -1.95,1.05 -1.95,0.2 0,-0.65 0.55,-1.4 l 0.4,-0.5 7.05,-5.85 m 4.75,23.15 -1.15,0.3 -2.3,0.25 -2.3,0.05 q -0.6,0 -0.95,-0.35 -0.35,-0.35 -0.05,-0.95 1.65,-0.85 3.55,-1.4 l 2.5,-0.55 0.6,0.1 0.5,0.2 0.55,0.45 0.25,0.55 -0.2,0.6 -0.3,0.4 -0.7,0.35 M 58.95,48.9 q 0.4,1.9 0.2,3.7 l 0.2,1.85 q 0.1,1.6 -0.15,2.4 -0.55,1.45 -1.75,1.5 Q 56.2,58.5 55.5,57.1 52.1,56.25 52.3,52.4 L 50.9,51.5 50.2,50.7 Q 49.8,50.15 49.55,49.45 48.5,46.65 46.4,44.6 L 39.75,37.95 38.9,38.8 q -4,3.6 -9.25,3.6 l -1,0.65 0.1,1.7 q -0.05,0.5 -0.65,0.35 l -1.15,-0.35 -0.1,0.15 q -0.6,0.65 -1.55,0.2 -1.25,-0.8 -0.95,-2.2 L 24.6,42.5 Q 24.2,41.75 24.05,40.85 L 23.6,38.6 Q 22.95,37.9 22.55,36.8 19.9,29.55 15.9,22.7 12.75,17.45 10.4,12.15 L 7.95,9.05 7.75,8.5 V 7.9 L 7.8,7.85 7.5,7.5 Q 6.95,6.85 6.95,6.25 7,5.65 7.6,5.3 8.1,4.95 8.7,5.05 q 0.8,0.1 2.1,1.1 l 6.5,4.35 q 4.25,2.75 6.45,4.45 4.6,3.55 7.05,7.4 l 4.5,3.8 1.95,-1.95 7.35,-7.25 -0.05,-1.05 q 0,-0.65 0.7,-1 0.65,-0.35 1.25,-0.45 l 0.45,0.15 q 1.15,-0.9 2.1,-0.7 1.05,0.15 1.95,1.8 l 3,4.95 q 1.55,2.85 2.35,5.25 1.45,4.4 1.65,12.85 l -0.05,5.15 -0.15,1.75 0.1,0.4 q 0.7,1.2 1.05,2.85 M 3.75,17.15 q 0.35,0.5 0.2,0.85 -0.15,0.35 -0.6,0.45 l -1.65,0.2 -4.8,0.3 -1.45,-0.1 Q -5.4,18.75 -5.9,18.25 L -6.25,17.7 q -0.25,-0.85 0.6,-1.5 0.7,-0.4 1.65,-0.5 l 3.85,0.15 Q 2.35,16 3.4,16.8 l 0.35,0.35 M 6.5,59.15 5.2,60 Q 4.3,60.15 3.85,59.25 3.55,58.5 3.8,57.65 L 4.5,56 Q 5.05,54.95 6.15,53.75 L 9.3,50.5 q 2.05,-2.05 4,-3.3 1.95,-1.3 2.1,-0.45 l -0.3,1.2 -3.2,4.7 -5.4,6.5 M -3.5,38.2 q -0.65,-0.05 -1.15,-0.6 -0.5,-0.55 -0.5,-1.2 0,-0.8 0.6,-1.55 l 1.3,-1.05 q 2.3,-1.55 5.6,-2.9 3.25,-1.35 4.2,-1.55 L 8.2,29.3 q 0.65,0.2 0.7,0.7 l -0.85,1.15 -3.65,2.6 -4.95,3.15 q -2.2,1.35 -2.95,1.3 m 31.15,16.95 q 0.45,-1.3 0.9,-1.35 l 0.75,0.15 q 0.25,0.2 0.3,1.55 l -0.4,7.05 -0.3,2.2 q -0.2,1.05 -0.6,1.45 -0.5,0.5 -1.15,0.5 -0.65,0 -1.15,-0.5 l -0.5,-1.15 q -0.25,-1.2 0.25,-3.25 l 0.9,-3.7 1,-2.95 m 18.1,3.35 q 0.4,-0.35 0.7,0.1 0.3,0.4 -0.15,3.4 0.4,-2.15 0.2,-0.9 l -1.2,6.85 -0.4,0.6 q -0.45,0.5 -1.15,0.4 -0.6,-0.05 -0.95,-0.7 L 42.6,67.2 44,62.85 q 1.3,-4.05 1.75,-4.35"
         fill="#ede9c7"
         fill-rule="evenodd"
         stroke="none"
         id="path4" />
      <path
         d="m 51.3,46.2 2.65,4.3 2.75,5.4 0.15,-1.45 Q 57.15,46.75 56.2,39 55.15,31.25 52.35,24.1 50.6,19.5 47.7,15.65 q -4.4,5.8 -8.4,8.95 l -5,3.75 -1.2,0.1 Q 22.2,13.1 8.25,5.6 l 1.2,1.95 q 5.4,8.6 9.1,15.95 3.65,7.4 5.3,12.35 l 2.5,7.85 4.1,-2.15 q 3.4,-2.05 7.75,-6 5.65,2.7 8.55,5.45 2.85,2.75 4.55,5.2 m 8.55,-13.8 q 1.15,7.55 1,14.1 l -0.05,6.1 q 0,2.9 -0.65,5.8 -0.35,2.4 -1.55,4.1 -0.9,1.3 -1.3,1.2 -0.4,-0.1 -1.05,-1.35 l -1.7,-3.15 q -4,-6.75 -6.25,-9.65 l -4.15,-4.6 -3.7,-3.1 -1.85,-1.4 q -4.65,4.5 -10.5,7.35 l -1.5,0.75 -1.55,0.3 -1.5,-0.45 q -0.55,-0.45 -1,-2.9 v 0.05 L 19.9,37.2 Q 18.15,32.25 16.25,28.25 L 10.4,16.6 5.1,6.75 3.35,3.95 2,1.75 Q 0.95,0.2 2.4,-0.3 q 1.5,-0.15 4.55,0.7 5.15,1.35 10.4,5 5.25,3.65 9.1,7.25 3.8,3.6 6.9,7.75 l 1.25,1.8 5,-4.65 6.55,-7 Q 47.1,9.5 48,9.55 51,9.1 54.85,17 q 3.8,7.85 5,15.4"
         fill="#000000"
         fill-rule="evenodd"
         stroke="none"
         id="path5" />
    </g>
  </defs>
</svg>
