<?xml version="1.0" encoding="UTF-8" standalone="no"?>
<svg
   ffdec:objectType="frame"
   height="34.650002"
   width="33.450001"
   version="1.1"
   id="svg5"
   sodipodi:docname="STATUS Sentry Mode Icon.svg"
   xmlns:inkscape="http://www.inkscape.org/namespaces/inkscape"
   xmlns:sodipodi="http://sodipodi.sourceforge.net/DTD/sodipodi-0.dtd"
   xmlns:xlink="http://www.w3.org/1999/xlink"
   xmlns="http://www.w3.org/2000/svg"
   xmlns:svg="http://www.w3.org/2000/svg"
   xmlns:ffdec="https://www.free-decompiler.com/flash">
  <sodipodi:namedview
     id="namedview5"
     pagecolor="#ffffff"
     bordercolor="#000000"
     borderopacity="0.25"
     inkscape:showpageshadow="2"
     inkscape:pageopacity="0.0"
     inkscape:pagecheckerboard="0"
     inkscape:deskcolor="#d1d1d1" />
  <g
     transform="translate(16.65,18.9)"
     id="g1">
    <use
       ffdec:characterId="3268"
       height="34.650002"
       transform="translate(-2.05,-1.05)"
       width="33.450001"
       xlink:href="#sprite0"
       id="use1" />
  </g>
  <defs
     id="defs5">
    <g
       id="sprite0">
      <use
         ffdec:characterId="3267"
         height="34.650002"
         width="33.450001"
         xlink:href="#shape0"
         id="use2" />
    </g>
    <g
       id="shape0">
      <path
         d="m -2.1,-12.3 q 3.15,0.95 6.8,-5.55 0.3,7.2 3.5,6.85 3.05,-0.6 10.65,-4 -9.8,9.15 -7.75,11.3 1.15,1.2 6.25,0.75 -3.85,1.7 -5.55,3.55 -1.85,1.6 -1.3,2.9 0.4,1.2 2.25,2.75 l 2.15,1.6 Q 4.5,7.05 9.2,16.55 5.25,13.3 3.35,13.85 2.4,14 1.7,15.55 0.95,13.4 -0.75,13.65 q -1.8,0.2 -4.7,3.15 1.05,-3.35 0.95,-5 Q -4.7,9.95 -6.75,9.35 L -11.25,9 Q -8.05,5.9 -7.45,4.35 -7,2.65 -8.2,0.8 q -1.4,-2 -6.4,-4.25 6.65,0.15 7.6,-2.8 0.8,-3.1 -3.05,-11.35 5.1,4.35 7.95,5.3"
         fill="#ffffff"
         fill-rule="evenodd"
         stroke="none"
         id="path2" />
      <path
         d="M 6.25,15 Q 6.2,15.65 5.7,16.15 L 4.5,16.6 h -4.85 q -0.7,0 -1.2,-0.45 L -2.1,15 -2.4,10.95 -2.2,10 -1.75,9.45 -1.95,9.3 -2.5,8.15 -3.95,-13.5 -3.7,-14.55 q 0.3,-0.45 0.8,-0.7 l 1,-0.1 8.65,1.45 q 0.65,0.1 1.1,0.65 0.4,0.5 0.35,1.2 L 6.65,8.15 6.1,9.3 5.9,9.45 6.35,10 6.55,10.95 6.25,15"
         fill="#ffffff"
         fill-rule="evenodd"
         stroke="none"
         id="path3" />
      <path
         d="m 0.2,7 -1.3,-19.45 6.5,1.1 L 4,7 H 0.2 m 3.55,4.8 -0.15,2.05 h -3 L 0.45,11.8 h 3.3"
         fill="#bb0000"
         fill-rule="evenodd"
         stroke="none"
         id="path4" />
      <path
         d="M 5.5,14.95 5.2,15.6 4.5,15.85 H -0.35 L -1,15.6 l -0.35,-0.65 -0.3,-4.05 0.1,-0.55 0.4,-0.4 0.5,-0.15 H 4.8 l 0.55,0.15 0.35,0.4 0.1,0.55 -0.3,4.05 m -8.7,-28.5 0.15,-0.6 0.45,-0.4 0.6,-0.05 8.65,1.45 0.6,0.35 0.2,0.7 L 5.9,8.1 5.6,8.75 4.9,9 H -0.75 L -1.4,8.75 -1.75,8.1 -3.2,-13.55 M 3.75,11.8 h -3.3 l 0.15,2.05 h 3 L 3.75,11.8 M 0.2,7 H 4 L 5.4,-11.35 -1.1,-12.45 0.2,7"
         fill="#000000"
         fill-rule="evenodd"
         stroke="none"
         id="path5" />
    </g>
  </defs>
</svg>
