<?xml version="1.0" encoding="UTF-8" standalone="no"?>
<svg
   ffdec:objectType="frame"
   height="28.988073"
   width="28.106001"
   version="1.1"
   id="svg3"
   sodipodi:docname="STATUS_Burn_Icon.svg"
   xmlns:inkscape="http://www.inkscape.org/namespaces/inkscape"
   xmlns:sodipodi="http://sodipodi.sourceforge.net/DTD/sodipodi-0.dtd"
   xmlns:xlink="http://www.w3.org/1999/xlink"
   xmlns="http://www.w3.org/2000/svg"
   xmlns:svg="http://www.w3.org/2000/svg"
   xmlns:ffdec="https://www.free-decompiler.com/flash">
  <sodipodi:namedview
     id="namedview3"
     pagecolor="#ffffff"
     bordercolor="#000000"
     borderopacity="0.25"
     inkscape:showpageshadow="2"
     inkscape:pageopacity="0.0"
     inkscape:pagecheckerboard="0"
     inkscape:deskcolor="#d1d1d1" />
  <g
     transform="translate(14.1825,14.38226)"
     id="g1">
    <use
       ffdec:characterId="3076"
       height="73.699997"
       transform="matrix(0.47,0,0,0.3932,-11.95,-12.2)"
       width="59.799999"
       xlink:href="#shape0"
       id="use1" />
  </g>
  <defs
     id="defs3">
    <g
       id="shape0">
      <path
         d="m 20.65,-3.05 2.95,-1.5 2.35,-0.75 1.6,-0.25 q 2.8,0.7 4.25,3.5 l -0.05,0.85 -0.3,3.9 V 3.15 4 4.85 l 0.1,2.65 v 0.35 l 0.1,0.95 q 0.7,3.15 1.85,6.15 L 33.95,16 34,15.95 q 1.05,-1.35 2.6,-2.2 1.15,-0.65 2.45,-1.05 1.05,-0.5 2.25,-0.7 l 1.25,0.05 0.85,-0.2 1.3,0.3 0.35,0.2 q 0.75,0.9 1.15,2.05 v 0.15 q 0.05,3.5 1.35,6.55 l 1.5,4.65 1.3,3.75 0.95,1.75 q 1.5,2.75 2.5,5.85 l 0.65,2.85 0.05,0.2 v 0.25 l 0.1,1.4 0.35,1.7 0.1,2.75 -0.05,1.3 Q 54,52.2 51.55,56.25 50,59.5 47.3,62.05 41.85,67.3 34.45,67.9 h -0.2 Q 28,68.85 22.25,66.5 18.15,67.75 13.7,67.65 11.25,67.6 9,66.7 6.7,65.75 4.75,64.4 q -1.9,-0.7 -3.4,-2 l -2.1,-2.35 Q -2.2,58.35 -3.1,56.25 L -4.45,52.8 v -0.15 -0.2 -0.2 -0.15 L -4.5,51.9 -4.55,51.7 -4.6,51.5 -4.7,51.35 -4.75,45.95 v -0.1 l 0.25,-3.55 0.85,-5 0.25,-1.7 0.15,-1.8 0.2,-3.1 0.05,-0.2 q 0.2,-0.95 0.05,-1.7 L -2.9,26.4 -3,25.35 q 0,-0.9 -0.3,-1.6 v -0.1 l -0.05,-0.1 -0.05,-0.2 -0.05,-0.15 -0.1,-0.3 V 22.8 22.45 21.5 20.8 l 0.1,-0.3 0.25,-0.55 0.25,-0.65 0.5,-0.55 Q -1.85,18.1 -1.1,18 h 0.05 l 0.3,-0.15 0.1,0.05 0.55,-0.15 Q 2.25,17.7 4.1,19.1 l 0.25,0.2 Q 4.9,16.75 5.75,14.3 6.2,12.95 6.9,11.7 7.75,9.5 9.1,7.45 L 10.5,5.5 q 2.15,-2.6 4.65,-4.85 2.5,-2.1 5.5,-3.7 m 28,44.25 0.2,-0.4 -0.9,-0.9 0.75,2.3 v -0.05 -0.1 l -0.05,-0.1 v -0.1 l -0.05,-0.1 0.05,-0.55 m -9.6,-20.6 0.5,-0.1 0.15,-0.75 -0.9,0.95 0.25,-0.1 M 2.55,16.1 v 0.1 L 2.5,16.15 2.55,16.1 m 10.05,43.3 0.75,0.5 0.3,-0.1 -1.05,-0.4"
         fill="#ffffff"
         fill-rule="evenodd"
         stroke="none"
         id="path1" />
      <path
         d="m 41.5,20.5 0.1,0.4 0.1,0.55 -0.15,0.7 -0.4,0.75 -0.4,0.6 -0.05,0.35 -0.1,0.35 -0.05,0.35 0.25,0.6 0.15,1.1 V 27 l 0.5,1.3 0.9,2.2 0.05,0.2 2.55,4.25 q 1,1.75 1.4,3.7 l 0.1,2.4 -0.25,2.65 v 0.05 l 0.05,0.2 0.05,0.2 0.05,0.15 v 0.2 0.2 l 0.3,1.45 -0.05,2.25 v 0.75 l -0.05,0.15 -0.05,0.2 -0.05,0.2 -0.1,0.15 v 0.2 0.2 0.2 0.15 l -0.5,1.7 q -0.4,1.3 -1.2,2.4 l -0.15,0.15 -0.2,0.55 -0.55,0.75 -0.35,0.55 q -3.3,3 -7.65,2.75 -1.95,1.8 -5.3,1.65 L 28.4,60.7 q -1,-0.4 -1.85,-1 l -4.6,-0.35 q -4.3,1.65 -9.25,0.2 -1.35,-0.4 -2.5,-1.3 L 8.35,56.55 Q 5.5,54.1 4,50.6 L 3.4,48.65 2.95,47.3 V 47.1 46.9 46.75 L 2.75,46.15 2.65,45.8 2.45,45.25 2.4,45.05 V 44.5 43.95 43.2 L 2.35,43.05 2.25,42.85 2.2,42.65 v -0.9 -1.5 -0.75 l 0.15,-1.85 q -0.1,-1.35 0.4,-2.6 l 0.2,-0.35 q 0.2,-2 0.85,-3.9 L 4.15,30 4,29.5 3.85,29.05 3.4,28.65 3,28.15 2.95,27.95 v -0.1 -0.2 -0.15 -0.2 L 3,27.2 V 27.1 L 3.05,27 3.1,26.95 3.4,26.55 Q 3.7,26.35 4,26.3 h 0.2 l 0.75,0.15 0.6,0.4 0.3,0.6 Q 6.3,27.15 6.9,27.1 l 1.05,0.3 0.35,0.2 q 0.05,-1.55 0.35,-3 0.7,-3.65 2.4,-7.05 Q 13.3,13.2 16.5,9.5 17.9,7.85 19.45,6.4 l 0.2,-0.15 1.1,-0.85 2.8,-1.45 0.7,0.15 0.45,0.35 0.1,0.2 0.05,0.2 0.1,0.25 v 0.1 l -0.05,0.2 -0.05,0.15 -0.1,0.3 -0.05,0.1 -0.45,0.25 0.2,0.45 0.2,0.55 V 8.1 L 24.55,8.5 24.4,8.85 24.05,9.4 23.9,9.6 v 0.2 0.15 0.2 0.2 q 0.75,3.7 2,7.35 l 1.7,3.85 0.5,0.5 1.35,1.65 1.85,1.25 q 0.75,0.45 1.3,1.2 l 2.65,1.65 0.25,-4.1 0.8,-2.55 q 0.65,-1.95 2.65,-2.2 l 1.3,0.3 0.95,0.7 0.3,0.55 m -23.4,21.2 -0.9,1 -0.55,0.75 q -0.5,0.5 -0.85,1.25 L 15.5,45.65 15.45,45.6 15.15,45.15 15.1,45.05 15.05,44.95 15,44.85 V 44.8 44.7 L 14.95,44.65 14.9,44.55 14.85,44.5 V 44.4 44.3 44.25 L 14.8,44.2 V 44 L 14.75,43.75 V 43.5 L 14.7,43.45 V 43.4 42.8 42.65 l -0.35,0.25 -1.1,1.25 -0.6,1.05 q -0.35,1.15 -0.4,2.35 -0.2,2.1 0.5,4.2 l -0.1,-0.3 Q 14,56.5 18.7,58.3 l 2.15,0.65 -0.55,-0.2 0.1,0.05 2.25,0.5 h 0.75 l 1,0.15 q 2.7,0.25 4.95,-1 l -0.75,0.4 0.45,-0.05 q 2.45,-0.15 4.15,-2.05 1.8,-2 2.9,-4.4 1.15,-2.65 0.9,-5.6 l -0.25,-0.8 -0.15,-0.4 V 45.5 l -0.1,-0.3 -0.35,-0.65 -0.55,-1.15 -0.2,-0.3 -1,-1.05 -0.1,0.4 -0.4,1.3 -0.55,0.95 -0.05,0.05 -0.1,0.05 -0.05,0.05 v 0.05 l -0.05,0.05 -0.1,0.1 h -0.05 l -0.05,0.1 -0.05,-0.2 -0.2,-0.65 -0.05,-0.1 V 44.15 44.1 q -1.2,-3.25 -3.45,-6.05 l -2.25,-2.2 -1,-1 -2.1,-1.25 -0.35,-0.2 -2.1,-0.9 q 0.3,1.4 -0.15,2.9 l -0.3,1.15 q -0.75,2.8 -2.8,5.15"
         fill="#d96a5b"
         fill-rule="evenodd"
         stroke="none"
         id="path2" />
      <path
         d="m 42.8,16.1 0.3,0.15 q -0.7,1.25 -0.85,2.9 -0.45,5.05 2.15,9.3 l 3.85,6.5 0.15,0.25 0.75,2.1 0.05,0.1 0.85,3.1 v 0.05 q 1.15,7.1 -2.1,13.4 l -2.85,4.35 -1.55,1.4 q -3.5,3.1 -8.85,3.85 L 27.1,63.35 24.85,62.95 24.65,62.9 23.7,62.65 23.55,62.6 23.05,62.45 23,62.5 22.95,62.45 22.2,62.15 20.75,62.6 19.6,62.9 q -9,1 -15,-5.45 Q 1.2,53.75 0.3,48.8 L 0.05,47.3 0,45.95 0.05,43.05 0.1,42.35 V 42.3 41.95 L 0.45,38.4 Q 0.6,37.1 0.9,35.85 L 0.95,35.25 1,34.9 1.05,34.5 V 34.4 H 1.1 V 34.3 34.2 34.15 34 33.95 l 0.1,-0.6 0.05,-0.8 V 32.5 L 1.3,32.45 V 32.35 32.1 L 1.35,31.25 1.4,30.95 Q 1.8,28 1.25,25.2 L 1.2,25.05 1.1,24.5 0.95,23.9 0.9,23.75 0.85,23.55 v -0.1 L 0.8,23.15 Q 0.9,23.05 1.05,23 L 1.6,22.85 q 2.2,0.05 4.05,1.4 l 1.45,1.1 V 25.3 24.5 L 7.15,23.55 7.2,23.4 V 23.25 L 7.25,23.2 V 23.05 22.9 L 7.3,22.85 v -0.1 L 7.35,22.5 v -0.1 l 0.1,-0.35 0.2,-0.7 v -0.1 -0.1 l 0.1,-0.3 V 20.8 H 7.8 v -0.1 -0.05 l 0.05,-0.1 0.4,-1.35 0.1,-0.25 0.05,-0.2 q 2.35,-7.55 8.1,-13.1 4.2,-4 9.6,-5.65 l 1.2,0.15 q 0.5,0.15 0.9,0.5 l -0.6,1.4 -0.55,2.15 -0.1,0.4 q -0.2,1.2 -0.15,2.5 l -0.05,0.15 0.15,1.15 0.05,1.2 q 0.3,2.95 1.4,5.75 1.15,2.75 2.8,5.2 l 0.2,0.3 q 0.4,0.9 1.1,1.75 l 1.1,1.2 0.4,0.3 0.9,-1.75 q 1,-1.85 2.35,-3.5 1.8,-2.25 4.4,-3 l 1.2,0.25 m -2.15,12 Q 40.1,25.7 40.1,23.15 v -0.3 L 40.05,22 V 20.45 L 40.1,20.3 v -0.05 l 0.05,-0.1 v -0.1 l -0.1,-0.1 -0.15,0.1 -0.5,0.45 -0.45,0.75 -0.1,0.1 -0.1,0.1 Q 36.3,25.1 35.35,29.3 L 32.7,27.8 31.2,26.45 30.45,25.65 29.5,24.6 29.2,24.2 26.5,20.05 26.4,19.9 26.35,19.75 26.25,19.6 26.1,19.25 25.95,18.95 25.75,18.7 25.65,18.4 25.45,18 25.25,17.45 24.75,16.1 24.25,13.9 24.2,13.75 V 13.65 13.6 L 24.15,13.5 24.1,13.2 23.65,11 Q 23.3,9.55 23.35,8.05 L 23.45,6.6 23.5,6.5 V 6.05 L 23.55,5.8 V 5.6 5.5 5.45 l -1.5,0.6 q -3,1.65 -5.25,4.45 -2.65,3.2 -4.4,6.95 -1.25,2.7 -1.75,5.55 l -0.1,0.35 Q 9.9,27 10.2,30.75 l 0.2,1.55 v 0.05 0.35 l -0.1,0.7 -0.05,0.1 -0.2,-0.1 L 9,31.95 7.8,30.55 7.4,30 7.1,29.65 5.85,28.3 4.05,26.85 v 0.05 l 0.25,1.15 q 0.2,2 0.05,3.95 L 4.15,33.6 3.9,36 3.8,36.65 v 0.2 L 3.75,37.1 v 0.2 0.15 L 3.7,38 3.55,38.5 v 0.15 L 3.35,39.8 3.25,40.65 3.2,41.1 3.05,42.9 3,44.85 3.05,45.3 q 0.3,2.4 1.25,4.65 0.65,1.5 1.65,2.7 L 6.6,53.5 q 0.9,1.15 2.1,1.95 1.8,1.5 4.35,2.45 2.05,0.75 4.2,0.75 l 2.25,-0.05 4.1,-0.9 0.15,-0.05 0.05,-0.05 0.8,0.35 1.8,0.5 2.85,0.7 q 6.6,1.4 11.35,-2.6 l 1.3,-1.5 0.2,-0.25 0.9,-1.2 1.3,-2.3 0.85,-1.9 0.15,-0.85 0.65,-3.3 v -1 -0.6 -0.5 -0.5 V 42 L 45.9,41.8 45.85,41.65 V 41.5 l -0.05,-0.15 -0.05,-0.2 q -0.5,-3.25 -2,-6.2 V 34.9 L 41.3,29.75 41.15,29.3 40.9,28.8 v -0.05 l -0.1,-0.1 -0.05,-0.1 v -0.1 L 40.7,28.35 V 28.3 28.25 L 40.65,28.1"
         fill="#000000"
         fill-rule="evenodd"
         stroke="none"
         id="path3" />
    </g>
  </defs>
</svg>
