<?xml version="1.0" encoding="UTF-8" standalone="no"?>
<svg
   ffdec:objectType="frame"
   height="30.81209"
   width="28.9993"
   version="1.1"
   id="svg5"
   sodipodi:docname="STATUS_Weakness_Icon.svg"
   xmlns:inkscape="http://www.inkscape.org/namespaces/inkscape"
   xmlns:sodipodi="http://sodipodi.sourceforge.net/DTD/sodipodi-0.dtd"
   xmlns:xlink="http://www.w3.org/1999/xlink"
   xmlns="http://www.w3.org/2000/svg"
   xmlns:svg="http://www.w3.org/2000/svg"
   xmlns:ffdec="https://www.free-decompiler.com/flash">
  <sodipodi:namedview
     id="namedview5"
     pagecolor="#ffffff"
     bordercolor="#000000"
     borderopacity="0.25"
     inkscape:showpageshadow="2"
     inkscape:pageopacity="0.0"
     inkscape:pagecheckerboard="0"
     inkscape:deskcolor="#d1d1d1" />
  <g
     transform="translate(15.2212,14.85205)"
     id="g1">
    <use
       ffdec:characterId="3095"
       height="68.349998"
       transform="matrix(0.451,0,0,0.451,-1.15,-12.8)"
       width="64.300003"
       xlink:href="#shape0"
       id="use1" />
  </g>
  <defs
     id="defs5">
    <g
       id="shape0">
      <path
         d="m 10.8,30.85 0.2,-0.1 0.2,-0.15 q 0,-0.1 0.15,-0.1 0.45,0 0.5,0.45 l -0.1,0.3 q -1.35,1.2 -2.65,2.5 l 0.1,0.15 -0.15,0.2 -0.5,2.25 q -0.35,2.8 -2.9,5.25 -0.8,0.55 -1.6,0.6 L 2.95,41.95 Q 0.85,41.2 0.5,39.7 h -1 q -1.65,-0.1 -2.15,-1.45 -0.45,-1.1 -0.2,-2.2 l 0.1,-0.3 q 0.15,-0.15 0.35,-0.2 l 0.25,-0.35 0.15,-0.3 -4.45,0.3 -0.9,0.1 q -2.95,2.25 -4.55,-0.8 -1.15,-1.15 -1.3,-2.3 l -0.1,-0.4 v -0.05 l 0.05,-0.25 v -0.2 q -0.05,-0.9 0.3,-1.8 l 0.45,-0.9 0.05,-0.15 0.05,-0.05 0.25,-0.45 0.65,-1.1 0.1,-0.1 0.3,-0.35 1.8,-1.55 q 1,-0.55 2.2,-0.85 l 0.25,-0.15 1.55,-0.2 2.75,0.2 q 2.85,0.15 6.5,1.6 2.1,0.8 3.35,2.75 l 0.3,0.35 q 1,1.85 1.4,3.9 V 32.5 L 9.5,32 10.2,31.2 q 0.15,-0.35 0.6,-0.35 m 0.25,21.85 q 0.5,1.4 -0.55,2.7 l -1.25,1.4 q 4.25,1.15 8.35,-1.4 0.9,-0.55 1.6,0.2 1.55,1.75 -0.5,2.9 -6.5,3.75 -12.4,0.8 -4.3,2.95 -10,3.35 -7.8,0.55 -13.8,-4.55 l -3.1,-2.75 q -2.15,-2.1 -1.15,-4.7 0.4,-1.15 1.55,-1.2 1.45,0 1.85,1.35 l 0.05,0.05 0.05,0.1 0.05,-0.95 0.25,-0.3 0.55,-0.45 0.25,-0.1 0.25,-0.05 h 0.3 v -0.05 q 1,0.05 1.5,0.9 l 0.2,0.35 0.3,-0.05 q 4.75,2.2 10,3.4 L 1.95,52.9 5,52.05 5.35,51.6 Q 5.9,51.05 6.6,51.05 l 0.45,0.2 2.6,-1.3 q 0.65,-0.4 1.2,0.25 1.1,1.4 0.2,2.5"
         fill="#ffffff"
         fill-rule="evenodd"
         stroke="none"
         id="path1" />
      <path
         d="m 10.55,-4.55 7.35,0.15 q 3.7,0.3 7,1.8 l 1.55,0.9 0.05,0.05 1.45,1.35 2.3,3 1,1.25 0.5,0.9 0.7,2.1 0.65,6.8 v 0.15 0.1 0.15 1.7 l -0.35,9.65 q -0.55,8.6 -1.35,14.9 -0.7,5.1 -1.7,9.45 v 0.05 q -0.05,2.9 -1.65,5.55 l -1.55,2 -0.95,0.95 -0.4,0.35 -1.45,1.05 q -4.55,2.85 -11,2.25 Q 9.15,61.7 6.85,60.2 L 5.9,59.4 H 5.8 l -0.45,0.3 q -7.4,4.9 -15.15,3.9 -4.1,-0.5 -7.5,-2.75 -3.5,-2.35 -5.25,-5.9 l -0.65,-1.7 -2.35,-1.45 q -2.65,-1.95 -4.3,-4.8 -0.65,-1.1 -0.8,-2.25 l -0.15,-0.45 -0.15,-0.45 -0.25,-3.35 0.5,-3.5 0.5,-1.65 0.6,-1.5 0.9,-1.2 q 2,-3.1 5.2,-5.1 3.35,-2.1 7.15,-2.45 3.3,-0.25 6.5,0.9 0.8,-1.15 2.2,-1.95 1.9,-1 4.45,-1.15 4.3,-0.25 8.1,1.9 1.6,0.9 2.9,2.1 L 8.1,26.35 8.5,25.15 9.7,21 Q 6.2,20.7 3,19.35 l -3,-1.7 -0.65,-0.5 Q -3.35,15.3 -4.3,11.3 -5.35,7.05 -4.7,4.2 L -4.45,2.9 -3.8,0.6 q 0.5,-1.6 2.4,-3.15 1.9,-1.55 5.95,-1.8 l 6,-0.2 m 8.5,28.65 0.3,-0.05 0.6,-0.1 V 23.9 q 1.45,0.65 2.3,1.55 0.15,-4.3 -0.05,-8.55 l -0.8,0.45 0.05,0.25 q 0.05,1.05 -1.65,1.8 l -0.75,4.7 M 17.85,10.6 Q 19.4,9.85 21,9.85 20.6,7.1 19.45,4.55 13.45,2.05 6.9,3.1 L 5.6,3.7 q -5.5,1.55 -3.95,6.85 3.65,3 7.75,2.95 L 9.25,11.65 q -0.15,-0.8 0.55,-1.4 1.05,-0.9 2.3,-0.9 l 0.35,0.15 q 0.7,-1.25 2.4,-1.35 2,0.85 3,2.45 M -2,28.65 q 1.3,0.5 2.45,1.2 1.8,0.95 3.3,2.35 H 3.8 l 0.05,0.05 0.5,-0.6 H 4.4 L 4.65,31.3 4.8,31.1 5.05,30.75 5.55,30.1 Q 4.35,28.9 2.7,28.05 0.15,26.7 -2.75,26.6 l -3,0.4 -1,0.5 q 0.2,0.1 0.45,0.3 2.35,0.1 4.3,0.85 m 11.65,12.95 0.1,0.3 0.95,1.4 0.1,0.3 0.35,0.9 v 0.9 L 10.7,46.85 9.45,47.9 q -3.55,1.35 -5.4,-1.85 -1.35,0.7 -2.9,1.05 -1.35,0.3 -2.1,-0.9 l -0.35,-0.55 -1.4,0.7 q -2.3,1.15 -4.65,0.9 -3,-0.35 -2.85,-3.35 l 0.25,-1.2 1.85,-1.4 q -4.25,-0.9 -6.85,-4.15 L -15,37.1 l -3.45,0.1 -0.3,0.15 q -2.05,1.4 -4.25,0.35 l -0.45,-0.2 -0.2,0.05 -0.5,0.65 -0.1,0.3 -0.2,0.9 -0.25,0.8 0.3,0.3 0.75,1.15 q 4.35,3.4 9.1,5.7 l 3.25,-0.1 q 1.15,-0.15 2.3,0 l 3.7,0.65 q 2.95,-0.45 6.25,1.8 l 0.85,0.6 3.95,0.25 Q 7.05,49.75 8.2,50.1 L 8.55,49.4 9.1,48.9 q 0.7,-0.2 1.1,0.75 l 0.4,1.25 4.05,0.25 1.2,0.15 1.15,-0.6 0.25,-0.6 0.2,-0.6 0.25,-0.55 Q 17.6,48 17.75,47.1 l 0.65,-3.2 0.45,-0.6 1.1,-0.85 0.2,-0.1 0.05,-0.05 -1.05,-3.5 -0.4,-1.15 -2.4,0.95 q -2.8,1.85 -6.25,2.55 L 9.65,41.6 m -17.5,16.35 -3.35,-1 -6.6,-1.7 h -0.1 l 2.85,2.3 q 3.85,2.4 9.05,1.9 l 2.9,-0.55 -4.75,-0.95"
         fill="#ffffff"
         fill-rule="evenodd"
         stroke="none"
         id="path2" />
      <path
         d="m 25.45,7.55 q 1.85,4.4 1.15,9.15 0.45,2.85 0.5,5.8 0.05,4.45 -1.6,8.55 l -0.25,4.35 -0.75,5 -0.6,2.75 -0.65,4.1 -0.8,3.05 -0.25,0.85 q -1.65,4.6 -6.55,4.35 L 7.9,54.85 5.25,54.6 4.4,54.5 q -6.2,3.6 -13.85,0.85 -2.9,-1 -4.9,-3.1 l -1.05,-1 q -0.75,-0.8 -0.85,-1.7 l -0.4,-0.15 q -3.3,-1.15 -5.9,-3.5 -1.7,-1.5 -2.5,-3.5 l -0.2,-1.5 q 0,-1.75 0.85,-3.35 0.6,-1.2 1.6,-2 1.35,-1.25 3.15,-1.45 h 0.15 l 0.25,-0.1 q 2.45,-0.8 4.95,-1.05 l 3.5,0.35 q -0.35,0.9 0.75,2.3 L -8,37.45 q 2.25,1.35 4.55,1.7 3.45,1.2 7.2,-0.6 L 5,39.05 7.15,40 q 2.1,-3.15 3.85,-6.5 1.45,-2.8 3.15,-5.45 l 1,-7.3 0.7,-6.65 -1.4,-0.4 -3.65,-0.75 -3.4,0.9 q -1.45,0.3 -2.8,0 Q 1.85,13.1 1.15,10.3 0.45,7.35 0.75,4.4 0.9,2.55 2.5,1.7 3.1,1.05 4,0.95 L 4.35,1 6.6,0.5 Q 8.2,0.15 9.2,0.9 h 0.1 l 1.65,-0.4 q 5.2,-0.15 9.85,2.15 3.2,1.6 4.65,4.9 M 4.6,29.15 4.95,29.2 q 0.9,0.3 0.75,1.3 L 5.05,31.8 2.7,35.15 2.35,35.3 2.25,35.35 H 2.1 Q 1.4,35.15 1.35,34.7 L 1.6,34.1 3,31.85 4.1,29.75 4.6,29.15 M 0.05,27.6 0,29.35 q -0.05,1.65 -0.5,3.8 l -0.3,0.2 q -1.3,0.1 -1.25,-1.25 l 0.5,-4.7 0.1,-0.15 q 0.15,-0.15 0.3,-0.2 L -1,27 -0.9,26.95 h 0.15 q 0.55,0.05 0.65,0.3 l 0.15,0.35 m -6.35,-0.2 0.35,1.35 0.55,2.35 q 0.3,1.3 0.3,2.2 l -0.05,0.15 Q -6.4,34.4 -6.8,32.8 l -1.15,-4.15 q -0.2,-0.8 0.25,-1.4 0.25,-0.3 0.6,-0.3 0.65,0.05 0.8,0.45"
         fill="#d78282"
         fill-rule="evenodd"
         stroke="none"
         id="path3" />
      <path
         d="m 15.6,-0.45 3.25,-0.35 3.55,1.05 4.45,5.45 0.7,1.3 v 0.2 l 0.5,8 q 0.3,6.2 -0.45,13.45 l -1.05,9.95 -0.45,4 -0.35,2.35 -0.4,2.5 -0.6,3.05 q -0.65,5.25 -6.2,6.05 l -1.25,0.1 -0.55,0.1 Q 13.15,57.1 9.8,56.1 8.5,55.45 7.2,54.9 L 7.1,54.95 5.2,56 5.1,56.05 q -2.45,1.25 -5,1.8 l -0.15,0.05 -1.15,0.2 q -2.95,0.45 -6.05,0.05 l -1.9,-0.25 q -2.1,-0.5 -4,-1.65 -1.7,-1.1 -3.05,-2.6 l -2.45,-3.25 -0.15,-0.3 -0.2,-0.25 -2.95,-1.5 -1.8,-1.45 -0.95,-1.1 -0.7,-1 -0.1,-0.15 -0.05,-0.05 q -2.55,-4 0.3,-8.75 2.75,-4.8 8.2,-5.5 l 1.65,-0.1 0.1,-0.05 h 0.1 l 2.4,0.45 0.4,0.2 q 2.2,0.85 3.4,3.3 l 0.4,0.95 0.3,0.55 q 0.85,1.2 2.1,1.9 l 0.2,0.1 q 1,0.6 2.2,0.8 l 3.05,0.05 2.6,-0.35 q 2.1,-0.4 3.9,-1.6 l 1.2,-0.85 1.6,-1.75 1.95,-2.6 1.4,-2.55 1.65,-3.9 Q 14.6,22.1 14.9,20.15 L 15.2,17.2 15.25,15.8 15.2,14.65 11.1,14.2 9.95,14.65 8.45,14.75 8,14.8 4.05,14.3 3,13.65 Q 1.5,12.3 0.55,10.5 L 0.3,9.75 Q -0.45,7.35 -0.35,4.9 -0.1,3.25 0.55,1.6 L 0.6,1.55 0.75,1.3 0.85,1.2 Q 1.85,0.05 3,-0.65 l 4.1,-0.55 10.5,0.25 -2,0.5 m 5.1,3.5 Q 19.55,2.45 18.1,2.3 L 8.3,1.8 5.15,2 5.05,1.95 3.6,2.2 3.55,2.25 3.1,2.7 Q 1.85,5.05 2.45,7.6 2.8,9.25 3.55,10.8 l 0.3,0.4 0.85,0.7 0.2,0.15 q 1.85,0.5 3.85,0.05 L 7.2,10.35 7.05,10.05 5.35,9.7 5.05,9.05 5.1,8.85 q 0.2,-0.3 0.55,-0.5 l 1.8,0.3 0.85,0.3 0.7,1.1 q 0.6,1.05 3.15,1.8 l 4.15,0.3 3.6,-0.65 1,-0.4 0.1,0.25 -0.25,0.5 q -1.25,1.1 -2.8,1.7 l -0.4,0.15 v 0.05 0.3 0.15 0.65 l 0.05,1.05 v 0.6 l -0.5,4.4 -0.7,3.75 -0.95,2.95 -0.1,0.3 -0.2,0.45 -0.8,1.95 -0.1,0.25 -0.2,0.4 -0.9,1.65 v 0.05 l -2.05,3.2 -0.9,1.5 q -1,1.5 -1.65,3.25 -1.1,2.3 -1.35,4.85 V 45.7 Q 6.15,44.9 5.75,43.7 L 5.65,42.9 Q 5.55,42.4 5.6,41.9 V 41.75 L 5.9,40.2 5.5,40.15 4.4,40.7 q -4.3,2.4 -9.45,1.55 -1.85,-0.3 -3.35,-1.5 -2.75,-2.1 -3.75,-5.2 l -0.2,-0.25 v -0.05 l -0.05,-0.05 -0.1,-0.15 q -0.5,-0.3 -1.05,-0.45 l -0.2,-0.05 -2.65,-0.3 -0.25,0.05 h -0.05 l -0.5,0.1 q -2.45,0.4 -4.2,2.35 l -0.8,1.45 -0.35,1.45 0.05,1.25 0.8,1.9 q 0.65,1.25 3.05,2.75 l 1.2,0.75 0.9,0.5 0.45,1.2 1.5,2.45 1.35,1.65 q 1.9,1.95 4.55,2.45 l 0.3,0.05 0.3,0.05 2.25,0.25 3.9,-0.15 q 2.95,-0.3 5.75,-1.4 1.95,-0.75 3.65,-2 1.2,0.7 2.5,1.2 2.1,0.75 4.3,0.8 l 0.5,0.1 3.75,-0.25 0.15,-0.05 0.35,-0.1 q 2.1,-1.05 2.45,-3.4 l 0.2,-2.35 0.45,-1.95 V 45.2 l 0.5,-2.55 0.4,-2.45 0.45,-2.6 0.55,-4 0.6,-5.3 0.25,-2.25 v -0.3 L 25.2,21.1 24.95,12.9 24.55,7.95 23.8,6.6 21.3,3.7 20.7,3.05 M 1.65,47.3 Q 1.75,47.85 1.2,48 l -4.1,1.05 Q -4.95,49.4 -7,49 -9.05,48.6 -10.5,47.2 v -0.45 q 0.1,-0.25 0.35,-0.25 l 0.05,-0.05 0.3,0.15 0.15,0.2 q 2.55,1.9 5.8,1.5 l 2.4,-0.4 1.8,-0.6 1.05,-0.2 q 0.2,0.05 0.25,0.2"
         fill="#000000"
         fill-rule="evenodd"
         stroke="none"
         id="path4" />
      <path
         d="M 17.6,-0.95 7.1,-1.2 3,-0.65 Q 1.85,0.05 0.85,1.2 L 0.75,1.3 0.6,1.55 0.55,1.6 Q -0.1,3.25 -0.35,4.9 -0.45,7.35 0.3,9.75 L 0.55,10.5 Q 1.5,12.3 3,13.65 l 1.05,0.65 3.95,0.5 0.45,-0.05 1.5,-0.1 1.15,-0.45 4.1,0.45 0.05,1.15 -0.05,1.4 -0.3,2.95 q -0.3,1.95 -1.35,4.75 l -1.65,3.9 -1.4,2.55 -1.95,2.6 -1.6,1.75 -1.2,0.85 q -1.8,1.2 -3.9,1.6 L -0.75,38.5 -3.8,38.45 Q -5,38.25 -6,37.65 l -0.2,-0.1 q -1.25,-0.7 -2.1,-1.9 L -8.6,35.1 -9,34.15 q -1.2,-2.45 -3.4,-3.3 l -0.4,-0.2 -2.4,-0.45 h -0.1 l -0.1,0.05 -1.65,0.1 q -5.45,0.7 -8.2,5.5 -2.85,4.75 -0.3,8.75 l 0.05,0.05 0.1,0.15 0.7,1 0.95,1.1 1.8,1.45 2.95,1.5 0.2,0.25 0.15,0.3 2.45,3.25 q 1.35,1.5 3.05,2.6 1.9,1.15 4,1.65 l 1.9,0.25 q 3.1,0.4 6.05,-0.05 l 1.15,-0.2 0.15,-0.05 q 2.55,-0.55 5,-1.8 L 5.2,56 7.1,54.95 7.2,54.9 q 1.3,0.55 2.6,1.2 3.35,1 6.95,0.65 l 0.55,-0.1 1.25,-0.1 q 5.55,-0.8 6.2,-6.05 l 0.6,-3.05 0.4,-2.5 0.35,-2.35 0.45,-4 1.05,-9.95 Q 28.35,21.4 28.05,15.2 l -0.5,-8 V 7 L 26.85,5.7 22.4,0.25 18.85,-0.8 15.6,-0.45"
         ffdec:has-small-stroke="true"
         ffdec:original-stroke-width="2.0"
         fill="none"
         stroke="#000000"
         stroke-linecap="round"
         stroke-linejoin="round"
         stroke-width="2.2172"
         id="path5" />
    </g>
  </defs>
</svg>
