<?xml version="1.0" encoding="UTF-8" standalone="no"?>
<svg
   ffdec:objectType="frame"
   height="29.378414"
   width="26.08499"
   version="1.1"
   id="svg7"
   sodipodi:docname="STATUS 10 Icon.svg"
   xmlns:inkscape="http://www.inkscape.org/namespaces/inkscape"
   xmlns:sodipodi="http://sodipodi.sourceforge.net/DTD/sodipodi-0.dtd"
   xmlns:xlink="http://www.w3.org/1999/xlink"
   xmlns="http://www.w3.org/2000/svg"
   xmlns:svg="http://www.w3.org/2000/svg"
   xmlns:ffdec="https://www.free-decompiler.com/flash">
  <sodipodi:namedview
     id="namedview7"
     pagecolor="#ffffff"
     bordercolor="#000000"
     borderopacity="0.25"
     inkscape:showpageshadow="2"
     inkscape:pageopacity="0.0"
     inkscape:pagecheckerboard="0"
     inkscape:deskcolor="#d1d1d1" />
  <g
     transform="translate(12.955335,14.512278)"
     id="g1">
    <use
       ffdec:characterId="3084"
       height="59.599998"
       transform="matrix(0.4931,0,0,0.4931,-11.55,-7.35)"
       width="52.900002"
       xlink:href="#shape0"
       id="use1" />
  </g>
  <defs
     id="defs7">
    <g
       id="shape0">
      <path
         d="M 11.05,36.15 Q -0.35,26.05 -0.35,7.4 -0.35,0 2,-0.85 q 5.5,-1.4 8.7,-2.55 3.2,-1.2 6.5,-3.75 L 22,-11.2 q 1.6,-1.65 3.25,0 L 30,-7.15 q 3.3,2.55 6.5,3.75 3.2,1.15 8.7,2.55 2.35,0.85 2.35,8.25 0,18.65 -11.4,28.75 -4.75,4.2 -9.5,5.8 -3.05,1.25 -6.05,0 -4.8,-1.6 -9.55,-5.8 z"
         fill="none"
         stroke="#ffffff"
         stroke-linecap="round"
         stroke-linejoin="round"
         stroke-width="5"
         id="path1" />
      <path
         d="m 5,23.4 0.2,0.55 H 5.15 L 5,23.4"
         fill="#1f2729"
         fill-rule="evenodd"
         stroke="none"
         id="path2" />
      <path
         d="m 5,23.4 -1.5,-4 Q 2.65,16.65 2.35,13.9 L 2.2,13.25 2.05,12.8 1.9,12.2 1.7,11.45 1.55,9.5 Q 1.5,8.45 1.6,7.4 L 1.75,6.65 V 6.05 Q 1.75,5.5 1.9,5 L 2.1,4.45 V 4.4 L 1.65,3.95 1.25,3.35 1.2,3.05 V 2.6 2.15 L 1.45,1.55 1.6,1.4 1.75,1.25 1.9,1.1 3.8,0.2 Q 3.95,1.05 4.95,1.25 L 5.7,1.4 H 5.75 Q 9.2,0.85 12.4,-0.45 15.6,-1.75 18.35,-4 l 1.9,-1.5 0.15,-0.1 0.6,-0.5 0.4,-0.4 V -5 l 1.05,-1.2 0.4,0.5 V 1.95 L 22.8,2.65 22.9,-1.6 22.7,-1.9 22.1,9.35 21.7,23.6 q -0.1,2.85 0.4,5.65 v -0.3 l 0.15,-1.4 q -0.05,5.05 0.4,10 0.05,0.75 0.4,1.15 l -0.1,0.2 -0.15,0.05 q -0.6,-0.7 -1.35,-1.1 l -0.1,1.45 -2.85,-1.75 -1.1,-0.65 -1.75,-1.3 -0.3,-0.3 -0.6,-0.5 -0.8,-0.85 -0.3,-0.3 -0.4,-0.35 q -2.4,-2.35 -4.3,-5.1 L 8.6,27.7 7.55,25.95 Q 6.75,24.5 5.4,23.9 L 5.2,23.95 5,23.4 M 25.3,-7.05 25.2,-7.2 25.6,-6.6 25.35,-7 25.3,-7.05 m 14.4,6.65 q 1.15,0.2 2,0.9 l -0.55,0.2 -0.1,0.1 H 40.9 L 36.35,0.6 33.8,-0.15 33.75,-0.55 36,0 37.7,0.45 37.8,0.3 39.05,-0.2 39.7,-0.4 m -17.85,35.25 0.3,-0.15 v -0.05 -0.2 l -0.3,0.15 v 0.25 m 5.05,4.7 q -0.7,1.1 -1.85,1.2 L 27,39.4 26.9,39.55"
         fill="#819aa3"
         fill-rule="evenodd"
         stroke="none"
         id="path3" />
      <path
         d="M 23.55,8.35 23.5,7.2 23.6,-1.05 V -6.6 l 0.6,0.55 0.7,0.55 1.9,1.5 q 2.75,2.25 5.95,3.55 3.25,1.3 6.75,1.85 l 1.25,0.2 h 0.3 l 0.85,0.1 0.2,3.1 0.15,3.55 -0.15,3.55 -0.05,0.45 -0.25,1.9 -0.15,0.85 -0.45,2.3 -0.6,1.9 q -1.3,3.7 -3.3,7.1 -2.25,3.85 -5.45,6.9 l -0.6,0.65 H 31.2 l -1.75,1.65 -1.7,1.3 -1.1,0.65 -0.6,0.4 -0.2,0.1 -2.1,1.25 -0.05,-2.85 -0.1,-19.6 V 16.4 15.95 15.5 L 23.55,8.35"
         fill="#8facb6"
         fill-rule="evenodd"
         stroke="none"
         id="path4" />
      <path
         d="m 20.45,38.3 1.65,0.8 v -46 q -3.2,3.75 -9.4,6.25 -5.05,2.05 -9.45,2.5 -0.2,18.3 5.45,25.9 5.6,7.6 11.75,10.55 m 6.3,0 Q 32.9,35.35 38.5,27.75 44.15,20.15 43.95,1.85 39.55,1.4 34.5,-0.65 28.3,-3.15 25.1,-6.9 v 46 l 1.65,-0.8 M 11.05,36.1 Q -0.35,26 -0.35,7.35 q 0,-7.4 2.35,-8.25 5.5,-1.4 8.7,-2.55 3.2,-1.2 6.5,-3.75 l 4.8,-4.05 q 1.6,-1.65 3.25,0 L 30,-7.2 q 3.3,2.55 6.5,3.75 3.2,1.15 8.7,2.55 2.35,0.85 2.35,8.25 0,18.65 -11.4,28.75 -4.75,4.2 -9.5,5.8 -3.05,1.25 -6.05,0 -4.8,-1.6 -9.55,-5.8"
         fill="#000000"
         fill-rule="evenodd"
         stroke="none"
         id="path5" />
      <path
         d="m 26.75,38.3 -1.65,0.8 v -46 q 3.2,3.75 9.4,6.25 5.05,2.05 9.45,2.5 0.2,18.3 -5.45,25.9 -5.6,7.6 -11.75,10.55"
         fill="#aaaaaa"
         fill-rule="evenodd"
         stroke="none"
         id="path6" />
      <path
         d="M 20.45,38.3 Q 14.3,35.35 8.7,27.75 3.05,20.15 3.25,1.85 q 4.4,-0.45 9.45,-2.5 6.2,-2.5 9.4,-6.25 v 46 l -1.65,-0.8"
         fill="#cacaca"
         fill-rule="evenodd"
         stroke="none"
         id="path7" />
    </g>
  </defs>
</svg>
