<?xml version="1.0" encoding="UTF-8" standalone="no"?>
<svg
   ffdec:objectType="frame"
   height="30.56142"
   width="31.496019"
   version="1.1"
   id="svg7"
   sodipodi:docname="STATUS_Crit_Chance_Up_Icon.svg"
   xmlns:inkscape="http://www.inkscape.org/namespaces/inkscape"
   xmlns:sodipodi="http://sodipodi.sourceforge.net/DTD/sodipodi-0.dtd"
   xmlns:xlink="http://www.w3.org/1999/xlink"
   xmlns="http://www.w3.org/2000/svg"
   xmlns:svg="http://www.w3.org/2000/svg"
   xmlns:ffdec="https://www.free-decompiler.com/flash">
  <sodipodi:namedview
     id="namedview7"
     pagecolor="#ffffff"
     bordercolor="#000000"
     borderopacity="0.25"
     inkscape:showpageshadow="2"
     inkscape:pageopacity="0.0"
     inkscape:pagecheckerboard="0"
     inkscape:deskcolor="#d1d1d1" />
  <g
     transform="translate(17.242145,16.57353)"
     id="g1">
    <use
       ffdec:characterId="3148"
       height="65.449997"
       transform="matrix(0.4673,0,0,0.4673,-13.2,-9.05)"
       width="67.400002"
       xlink:href="#sprite0"
       id="use1" />
  </g>
  <defs
     id="defs7">
    <g
       id="sprite0">
      <use
         ffdec:characterId="3147"
         height="65.449997"
         width="67.400002"
         xlink:href="#shape0"
         id="use2" />
    </g>
    <g
       id="shape0">
      <path
         d="m 11.15,-2.4 q 8.6,8.1 12.8,11.05 4.45,3.15 5.65,3.05 1.15,-0.15 1.65,-1 0.5,-0.85 0.85,-3.2 L 32.25,2.95 Q 32.05,0.8 30.95,-2.9 29.85,-6.6 30.7,-5.2 l 3.45,5.1 q 4,5.7 5.9,7.15 1.9,1.45 2.85,1.5 1.75,0.2 3.55,-1.8 2,-2.15 3.85,-6.2 1.85,-4.05 3.4,-9.4 1.55,-5.3 1.75,-0.5 l -0.05,2.2 V 29.7 L 55.45,46 3.2,45.95 q -6.45,-0.1 -1.65,-1.05 4.8,-0.95 8.7,-2.4 3.9,-1.45 4.3,-2.7 0.35,-1.3 0.15,-2.45 -0.3,-1.8 -3.05,-3.7 Q 8.85,31.7 3.8,30.3 -1.3,28.85 3.4,28.9 q 4.75,-0.05 9.95,-1.55 5.15,-1.55 6.4,-2.8 1.25,-1.3 0.9,-3.4 -0.4,-2.1 -2.9,-7.45 -2.5,-5.35 -5.9,-9.9 l -3.2,-4.25"
         fill="none"
         stroke="#ffffff"
         stroke-linecap="round"
         stroke-linejoin="round"
         stroke-width="6.6"
         id="path2" />
      <path
         d="m 13.7,31.15 -1.1,-0.7 3.65,-0.95 q 3.6,-0.95 6.25,-3.05 2.65,-2.15 0.55,-8.2 -2.1,-6.05 -8.55,-14.15 5.85,5.8 8.8,7.65 l 4.35,2.45 3.35,0.2 q 1.9,-0.45 2.85,-2.95 0.95,-2.55 0.85,-5.6 1.75,2.3 4.4,4.3 2.65,1.95 4.45,1.9 1.75,-0.1 3.6,-1.25 1.8,-1.15 3.15,-3.05 l 1.85,-3.2 1.3,-2.75 V 1.85 L 53.2,43.45 14.3,43.85 16.35,42 q 0.95,-1.2 1.2,-2.85 0.25,-1.55 -0.2,-3.1 -0.85,-2.85 -3.65,-4.9"
         fill="#ffed69"
         fill-rule="evenodd"
         stroke="none"
         id="path3" />
      <path
         d="m 10.25,42.5 q 3.9,-1.45 4.3,-2.7 0.35,-1.3 0.15,-2.45 -0.3,-1.8 -3.05,-3.7 Q 8.85,31.7 3.8,30.3 -1.3,28.85 3.4,28.9 q 4.75,-0.05 9.95,-1.55 5.15,-1.55 6.4,-2.8 1.25,-1.3 0.9,-3.4 -0.4,-2.1 -2.9,-7.45 -2.5,-5.35 -5.9,-9.9 l -3.2,-4.25 h 2.5 V -2.4 q 8.6,8.1 12.8,11.05 4.45,3.15 5.65,3.05 1.15,-0.15 1.65,-1 0.5,-0.85 0.85,-3.2 L 32.25,2.95 Q 32.05,0.8 30.95,-2.9 29.85,-6.6 30.7,-5.2 l 3.45,5.1 q 4,5.7 5.9,7.15 1.9,1.45 2.85,1.5 1.75,0.2 3.55,-1.8 2,-2.15 3.85,-6.2 1.85,-4.05 3.4,-9.4 1.55,-5.3 1.75,-0.5 l -0.05,2.2 V 46 H 3.95 L 3.2,45.95 q -6.45,-0.1 -1.65,-1.05 4.8,-0.95 8.7,-2.4 M 13.7,31.15 q 2.8,2.05 3.65,4.9 0.45,1.55 0.2,3.1 -0.25,1.65 -1.2,2.85 l -2.05,1.85 38.9,-0.4 0.25,-41.6 V 1.8 l -1.3,2.75 -1.85,3.2 q -1.35,1.9 -3.15,3.05 -1.85,1.15 -3.6,1.25 -1.8,0.05 -4.45,-1.9 -2.65,-2 -4.4,-4.3 0.1,3.05 -0.85,5.6 Q 32.9,13.95 31,14.4 L 27.65,14.2 23.3,11.75 Q 20.35,9.9 14.5,4.1 q 6.45,8.1 8.55,14.15 2.1,6.05 -0.55,8.2 -2.65,2.1 -6.25,3.05 l -3.65,0.95 1.1,0.7"
         fill="#de5726"
         fill-rule="evenodd"
         stroke="none"
         id="path4" />
      <path
         d="M 9.3,-12.8 H 8.8 8.25 8.2 l -0.95,0.7 -3.1,2.65 -3.3,2.55 -0.95,0.75 -1.15,0.95 -3.05,2.1 -0.05,0.05 -0.2,0.2 -0.4,0.45 -0.05,0.2 -0.1,0.2 -0.05,0.2 -0.05,0.35 v 0.35 0.05 l -0.1,0.9 -0.05,4.2 V 4.35 5 L -5.2,8.65 -5,11.8 v 0.25 0.15 l 0.05,0.6 v 0.25 0.25 0.05 l 0.4,0.6 0.6,0.2 0.25,-0.05 2.65,-0.8 1.4,-0.5 2,-0.8 1.25,-0.45 4.05,-1.6 1.15,-0.5 1.1,0.5 4.05,1.6 1.25,0.45 2,0.8 1.45,0.5 q 1.25,0.55 2.6,0.8 l 0.25,0.05 0.6,-0.2 0.4,-0.6 V 13.3 L 22.55,13.05 22.5,12.8 22.55,12.2 V 12.05 L 22.6,11.8 22.75,8.65 22.9,5 V 4.35 4.05 l -0.05,-4.2 -0.1,-0.9 V -1.1 -1.45 L 22.7,-1.8 22.65,-2 22.6,-2.2 l -0.1,-0.2 -0.4,-0.45 -0.2,-0.2 -0.05,-0.05 -3,-2.1 -1.2,-0.95 -0.95,-0.75 -3.3,-2.55 -3.1,-2.65 -0.9,-0.7 z"
         fill="none"
         stroke="#ffffff"
         stroke-linecap="round"
         stroke-linejoin="round"
         stroke-width="6.6"
         id="path5" />
      <path
         d="m 9.3,-12.85 h 0.1 l 0.9,0.7 3.1,2.65 3.3,2.55 0.95,0.75 1.2,0.95 3,2.1 0.05,0.05 0.2,0.2 0.4,0.45 0.1,0.2 0.05,0.2 0.05,0.2 0.05,0.35 v 0.35 0.05 l 0.1,0.9 L 22.9,4 V 4.3 4.95 L 22.75,8.6 22.6,11.75 22.55,12 v 0.15 l -0.05,0.6 0.05,0.25 -0.05,0.25 v 0.05 l -0.4,0.6 -0.6,0.2 -0.25,-0.05 q -1.35,-0.25 -2.6,-0.8 l -1.45,-0.5 -2,-0.8 L 13.95,11.5 9.9,9.9 8.8,9.4 7.65,9.9 3.6,11.5 l -1.25,0.45 -2,0.8 -1.4,0.5 -2.65,0.8 -0.25,0.05 -0.6,-0.2 -0.4,-0.6 V 13.25 13 12.75 L -5,12.15 V 12 11.75 L -5.2,8.6 -5.35,4.95 V 4.3 4 l 0.05,-4.2 0.1,-0.9 V -1.15 -1.5 l 0.05,-0.35 0.05,-0.2 0.1,-0.2 0.05,-0.2 0.4,-0.45 0.2,-0.2 0.05,-0.05 3.05,-2.1 1.15,-0.95 0.95,-0.75 3.3,-2.55 3.1,-2.65 0.95,-0.7 H 8.25 8.8 9.3 M 16.3,5.3 15.2,4.8 11.55,2.6 10.8,2.15 9.6,1.45 9.5,1.35 8.8,0.9 8.05,1.4 7.95,1.45 6.75,2.15 6,2.6 2.35,4.8 1.3,5.3 -0.4,6.2 -0.95,6.45 -3.1,7.55 v 2.6 0.45 L -2.95,11.85 3.9,9.2 8.15,7.4 H 8.2 L 8.3,7.35 8.65,7.3 h 0.2 0.1 l 0.3,0.05 0.1,0.05 H 9.4 l 4.25,1.8 6.9,2.65 0.1,-1.25 V 10.15 7.55 L 18.5,6.45 17.95,6.2 16.3,5.3 M 18.5,-3.2 17.95,-3.6 16.3,-4.8 16.1,-4.9 15.2,-5.5 12,-8.15 11.3,-8.7 9.85,-9.85 9.65,-10.05 9.6,-10.1 8.8,-10.8 7.95,-10.1 7.9,-10.05 7.7,-9.85 6.25,-8.7 5.6,-8.15 2.35,-5.5 l -0.9,0.6 -0.15,0.1 -1.7,1.2 -0.55,0.4 q -1,0.75 -2.05,1.4 L -3.05,-1.35 -3.1,2.8 -3.05,4.25 3.9,0.6 8.15,-1.9 H 8.2 L 8.65,-2.05 H 8.9 L 9.35,-1.9 H 9.4 q 2.05,1.35 4.25,2.5 l 7,3.65 V 2.8 L 20.6,-1.35 20.55,-1.8 Q 19.5,-2.45 18.5,-3.2"
         fill="#345bd2"
         fill-rule="evenodd"
         stroke="none"
         id="path6" />
      <path
         d="m 18.5,-3.2 q 1,0.75 2.05,1.4 l 0.05,0.45 0.05,4.15 v 1.45 l -7,-3.65 Q 11.45,-0.55 9.4,-1.9 H 9.35 L 8.9,-2.05 H 8.65 L 8.2,-1.9 H 8.15 L 3.9,0.6 -3.05,4.25 -3.1,2.8 -3.05,-1.35 -3,-1.8 q 1.05,-0.65 2.05,-1.4 l 0.55,-0.4 1.7,-1.2 0.15,-0.1 0.9,-0.6 3.25,-2.65 0.65,-0.55 1.45,-1.15 0.2,-0.2 0.05,-0.05 0.85,-0.7 0.8,0.7 0.05,0.05 0.2,0.2 1.45,1.15 0.7,0.55 3.2,2.65 0.9,0.6 0.2,0.1 1.65,1.2 0.55,0.4 m -2.2,8.5 1.65,0.9 0.55,0.25 2.15,1.1 v 2.6 0.45 L 20.55,11.85 13.65,9.2 9.4,7.4 H 9.35 L 9.25,7.35 8.95,7.3 H 8.85 8.65 L 8.3,7.35 8.2,7.4 H 8.15 L 3.9,9.2 -2.95,11.85 -3.1,10.6 V 10.15 7.55 L -0.95,6.45 -0.4,6.2 1.3,5.3 2.35,4.8 6,2.6 6.75,2.15 7.95,1.45 8.05,1.4 8.8,0.9 l 0.7,0.45 0.1,0.1 1.2,0.7 0.75,0.45 3.65,2.2 1.1,0.5"
         fill="#95b0ff"
         fill-rule="evenodd"
         stroke="none"
         id="path7" />
    </g>
  </defs>
</svg>
