<?xml version="1.0" encoding="UTF-8" standalone="no"?>
<svg xmlns:ffdec="https://www.free-decompiler.com/flash" xmlns:xlink="http://www.w3.org/1999/xlink" ffdec:objectType="shape" height="22.8px" width="33.75px" xmlns="http://www.w3.org/2000/svg">
  <g transform="matrix(1.0, 0.0, 0.0, 1.0, 4.4, 3.0)">
    <path d="M6.25 3.85 Q7.5 1.3 10.15 -0.3 11.05 -0.85 11.8 -1.0 L16.75 -1.25 Q19.25 -0.65 21.2 1.15 23.3 3.05 24.15 5.8 L24.35 6.5 24.5 7.25 24.6 9.55 27.15 9.45 Q27.85 9.25 27.85 10.25 27.85 11.0 26.85 11.95 25.8 13.05 24.05 13.3 L25.0 15.1 25.1 15.55 Q25.25 16.05 25.05 16.55 L24.55 17.2 23.5 17.65 22.3 17.9 21.35 18.0 20.05 17.95 Q19.35 17.8 18.85 17.3 18.5 16.9 18.4 15.9 L18.4 14.3 11.75 14.35 12.0 15.9 12.1 17.0 Q12.1 17.55 11.4 17.9 L9.85 18.3 7.25 18.05 Q5.5 17.65 5.2 16.9 4.9 16.1 5.25 15.25 L6.1 13.7 3.95 13.6 Q2.4 13.4 -0.05 12.1 -2.5 10.75 -2.85 7.9 -3.2 5.0 -1.35 3.55 0.45 2.05 2.1 2.55 3.7 3.05 4.5 4.1 L5.55 5.55 6.25 3.85 Z" fill="none" stroke="#ffffff" stroke-linecap="round" stroke-linejoin="round" stroke-width="3.0"/>
    <path d="M6.2 3.85 Q7.45 1.3 10.1 -0.3 11.0 -0.85 11.75 -1.0 L16.7 -1.25 Q19.2 -0.65 21.15 1.15 23.25 3.05 24.1 5.8 L24.3 6.5 24.45 7.25 24.55 9.55 27.1 9.45 Q27.8 9.25 27.8 10.25 27.8 11.0 26.8 11.95 25.75 13.05 24.0 13.3 L24.95 15.1 25.05 15.55 Q25.2 16.05 25.0 16.55 L24.5 17.2 23.45 17.65 22.25 17.9 21.3 18.0 20.0 17.95 Q19.3 17.8 18.8 17.3 18.45 16.9 18.35 15.9 L18.35 14.3 11.7 14.35 11.95 15.9 12.05 17.0 Q12.05 17.55 11.35 17.9 L9.8 18.3 7.2 18.05 Q5.45 17.65 5.15 16.9 4.85 16.1 5.2 15.25 L6.05 13.7 3.9 13.6 Q2.35 13.4 -0.1 12.1 -2.55 10.75 -2.9 7.9 -3.25 5.0 -1.4 3.55 0.4 2.05 2.05 2.55 3.65 3.05 4.45 4.1 L5.5 5.55 6.2 3.85 M22.6 6.75 L22.4 6.15 21.25 3.9 19.9 2.35 19.75 2.2 19.55 2.05 18.7 1.45 18.55 1.35 Q16.2 0.0 13.85 0.3 L12.4 0.6 11.55 0.95 11.15 1.15 10.65 1.45 10.1 1.9 Q8.9 2.8 7.9 4.25 7.1 5.25 6.6 7.35 L6.5 8.0 6.5 8.55 6.55 10.25 6.6 10.95 6.65 11.15 7.05 12.1 12.05 12.75 14.65 12.8 14.8 12.8 15.3 12.8 15.4 12.8 17.0 12.75 17.05 12.75 17.1 12.75 18.8 12.65 22.6 11.95 22.95 9.45 22.95 9.2 22.6 6.75 M24.3 11.35 L24.1 12.05 25.55 11.5 Q26.3 11.05 26.7 10.5 L24.5 10.5 24.3 11.35 M22.2 13.75 L19.55 14.2 19.85 16.1 20.0 16.35 20.25 16.5 21.7 16.5 23.3 16.25 23.8 15.95 Q24.0 15.75 23.45 14.75 L22.75 13.65 22.2 13.75 M-1.3 6.8 Q-1.5 8.75 -0.2 9.95 1.05 11.15 2.9 11.7 L5.45 12.15 5.55 12.15 5.45 11.5 5.25 8.4 Q4.2 5.95 3.45 5.2 2.65 4.45 1.95 4.2 L0.1 4.4 Q-1.1 4.8 -1.3 6.8 M1.65 7.1 L1.5 8.3 1.05 8.8 Q0.8 8.8 0.65 8.3 L0.45 7.1 0.65 5.85 Q0.8 5.35 1.05 5.35 1.3 5.35 1.5 5.85 L1.65 7.1 M9.15 14.1 L7.2 13.65 6.45 15.9 6.45 16.1 7.4 16.75 9.5 17.1 Q10.5 17.0 10.6 16.65 L10.45 14.25 9.15 14.1" fill="#000000" fill-rule="evenodd" stroke="none"/>
    <path d="M19.9 2.35 L21.25 3.9 22.4 6.15 22.6 6.75 21.25 6.6 Q21.0 4.8 20.05 3.55 L19.9 2.55 19.9 2.35 M22.95 9.2 L22.95 9.45 22.6 11.95 18.8 12.65 17.1 12.75 17.0 12.7 17.05 12.75 17.0 12.75 Q16.45 12.15 16.5 11.5 L18.9 10.2 19.9 9.35 20.65 8.2 20.85 7.9 Q22.0 7.65 22.95 9.2 M14.8 12.8 L14.65 12.8 12.05 12.75 7.05 12.1 6.65 11.15 6.6 10.95 Q6.55 10.3 7.1 9.25 7.7 8.1 10.0 7.65 11.05 9.6 12.5 10.35 L14.1 11.05 Q14.9 11.3 14.95 12.15 L14.8 12.8 M6.6 7.35 Q7.1 5.25 7.9 4.25 8.9 2.8 10.1 1.9 L10.25 2.35 10.8 3.5 Q9.7 4.7 9.8 6.15 L9.25 6.5 7.05 7.25 6.6 7.35 M11.55 0.95 L12.4 0.6 13.85 0.3 Q16.2 0.0 18.55 1.35 L18.7 1.45 18.4 2.0 17.85 2.4 17.6 2.35 Q14.95 1.3 12.8 2.45 L12.65 2.5 12.25 2.2 Q11.65 1.65 11.55 0.95 M11.45 6.75 Q11.4 6.1 12.0 5.1 12.55 4.05 14.05 3.6 L16.5 3.5 18.3 4.25 Q19.1 4.65 19.45 6.45 L19.45 6.85 19.15 7.8 18.35 8.8 17.7 9.3 16.9 9.7 16.15 9.85 15.15 9.85 14.3 9.65 12.8 8.9 Q12.0 8.4 11.75 7.9 11.45 7.4 11.45 6.75" fill="#1f3f1c" fill-rule="evenodd" stroke="none"/>
    <path d="M19.9 2.35 L19.9 2.55 20.05 3.55 Q21.0 4.8 21.25 6.6 L22.6 6.75 22.95 9.2 Q22.0 7.65 20.85 7.9 L20.65 8.2 19.9 9.35 18.9 10.2 16.5 11.5 Q16.45 12.15 17.0 12.75 L15.4 12.8 15.3 12.8 14.8 12.8 14.95 12.15 Q14.9 11.3 14.1 11.05 L12.5 10.35 Q11.05 9.6 10.0 7.65 7.7 8.1 7.1 9.25 6.55 10.3 6.6 10.95 L6.55 10.25 6.5 8.55 6.5 8.0 6.6 7.35 7.05 7.25 9.25 6.5 9.8 6.15 Q9.7 4.7 10.8 3.5 L10.25 2.35 10.1 1.9 10.65 1.45 11.15 1.15 11.55 0.95 Q11.65 1.65 12.25 2.2 L12.65 2.5 12.8 2.45 Q14.95 1.3 17.6 2.35 L17.85 2.4 18.4 2.0 18.7 1.45 19.55 2.05 19.75 2.2 19.9 2.35 M17.1 12.75 L17.05 12.75 17.0 12.7 17.1 12.75 M22.2 13.75 L22.75 13.65 23.45 14.75 Q24.0 15.75 23.8 15.95 L23.3 16.25 21.7 16.5 20.25 16.5 20.0 16.35 19.85 16.1 19.55 14.2 22.2 13.75 M24.3 11.35 L24.5 10.5 26.7 10.5 Q26.3 11.05 25.55 11.5 L24.1 12.05 24.3 11.35 M11.45 6.75 Q11.45 7.4 11.75 7.9 12.0 8.4 12.8 8.9 L14.3 9.65 15.15 9.85 16.15 9.85 16.9 9.7 17.7 9.3 18.35 8.8 19.15 7.8 19.45 6.85 19.45 6.45 Q19.1 4.65 18.3 4.25 L16.5 3.5 14.05 3.6 Q12.55 4.05 12.0 5.1 11.4 6.1 11.45 6.75 M9.15 14.1 L10.45 14.25 10.6 16.65 Q10.5 17.0 9.5 17.1 L7.4 16.75 6.45 16.1 6.45 15.9 7.2 13.65 9.15 14.1 M1.65 7.1 L1.5 5.85 Q1.3 5.35 1.05 5.35 0.8 5.35 0.65 5.85 L0.45 7.1 0.65 8.3 Q0.8 8.8 1.05 8.8 L1.5 8.3 1.65 7.1 M-1.3 6.8 Q-1.1 4.8 0.1 4.4 L1.95 4.2 Q2.65 4.45 3.45 5.2 4.2 5.95 5.25 8.4 L5.45 11.5 5.55 12.15 5.45 12.15 2.9 11.7 Q1.05 11.15 -0.2 9.95 -1.5 8.75 -1.3 6.8" fill="#466643" fill-rule="evenodd" stroke="none"/>
  </g>
</svg>
