<?xml version="1.0" encoding="UTF-8" standalone="no"?>
<svg
   ffdec:objectType="frame"
   height="32.083855"
   width="38.72625"
   version="1.1"
   id="svg5"
   sodipodi:docname="STATUS_Brace_Icon.svg"
   xmlns:inkscape="http://www.inkscape.org/namespaces/inkscape"
   xmlns:sodipodi="http://sodipodi.sourceforge.net/DTD/sodipodi-0.dtd"
   xmlns:xlink="http://www.w3.org/1999/xlink"
   xmlns="http://www.w3.org/2000/svg"
   xmlns:svg="http://www.w3.org/2000/svg"
   xmlns:ffdec="https://www.free-decompiler.com/flash">
  <sodipodi:namedview
     id="namedview5"
     pagecolor="#ffffff"
     bordercolor="#000000"
     borderopacity="0.25"
     inkscape:showpageshadow="2"
     inkscape:pageopacity="0.0"
     inkscape:pagecheckerboard="0"
     inkscape:deskcolor="#d1d1d1" />
  <g
     transform="translate(20.05965,17.0828)"
     id="g1">
    <use
       ffdec:characterId="3106"
       height="71.449997"
       transform="matrix(0.449,0,0,0.449,-32.25,-13.85)"
       width="86.25"
       xlink:href="#shape0"
       id="use1" />
  </g>
  <defs
     id="defs5">
    <g
       id="shape0">
      <path
         d="m 53.95,-5.9 q 1.3,2.9 2.85,5.7 1.2,2.35 3.1,4.3 2.45,3.45 6.7,3.75 3.8,0.2 7.05,-3.15 3.2,-3.35 4.05,-5.25 l 1.1,-2.9 0.8,-3.75 q 0.6,5.5 3.1,9.25 2.65,4.1 5.25,5.9 l 3.5,2.15 3.15,0.6 q 2.15,0.2 5.35,-0.7 l 5,-1.8 Q 103.8,9.3 103,10.55 l -2.2,2.6 q -0.7,0.8 -1.65,2.85 -1,1.95 -0.5,5.95 0.45,3.95 3.05,6.1 l 0.45,0.35 0.85,0.65 0.8,0.4 1.35,0.6 0.1,0.05 q 2.7,1.25 5.65,1.75 l 2.5,0.45 -1.1,0.3 -0.6,0.15 -0.75,0.2 -1.15,0.3 -0.4,0.15 0.25,0.15 q -2.15,0.4 -4.15,1.25 -0.95,0.35 -1.6,0.95 -2.3,1.65 -2.6,4.55 l -0.05,0.6 q -0.15,2.85 0.75,5.6 0.55,1.6 1.6,3.05 -2.05,-1.8 -4.7,-2.5 l -5.8,-0.2 q -1.05,0.25 -1.5,0.6 l -0.75,0.75 -1.35,1.5 q -0.8,1 -1.3,3 l -0.45,1.5 -2.85,1.65 -3.05,1 -0.5,-0.55 q -2.3,-3.1 -6.3,-3.25 -3.7,-0.2 -6.75,2.95 -2.2,2.15 -3.2,3.65 L 60.8,59.6 h -0.55 l -0.65,-1 q -2.75,-3.85 -5.3,-5.45 -2.6,-1.6 -3.55,-1.9 l -3.05,-0.5 q -2.2,-0.25 -5.4,0.65 -3.2,0.9 -4.85,1.75 L 39.3,50.9 41.35,48.45 42.9,45.7 q 0.85,-1.95 0.2,-5.8 -0.7,-4 -3.4,-6.1 L 39.15,33.45 38.3,32.8 37.4,32.35 36,31.75 h -0.1 q -2.95,-1.3 -6.05,-1.8 l -2.7,-0.6 1.15,-0.2 0.65,-0.15 0.8,-0.25 1.1,-0.35 0.4,-0.1 -0.3,-0.1 4.4,-1.3 1.55,-1 q 2.3,-1.75 2.55,-4.65 v -0.7 q 0,-3.05 -1.15,-5.95 l -1.8,-3.4 q 2.2,2 5.1,2.85 l 6.2,0.2 q 1.05,-0.3 1.5,-0.6 l 0.8,-0.75 1.35,-1.7 Q 52.2,10.1 52.8,8 53.55,5.15 53.9,2.15 l 0.15,-4.95 -0.2,-2.2 -0.2,-1.5 0.3,0.6"
         fill="#ffffff"
         fill-rule="evenodd"
         stroke="none"
         id="path1" />
      <path
         d="M 77.55,62.25 Q 77.4,61.7 76.25,60.1 L 70.7,53.5 64.05,45.95 61.2,42.55 59.9,41 58.9,39.85 58.85,39.7 58.8,39.65 q 0,-0.1 -0.8,-0.3 l -1.1,-0.3 Q 50.45,37.3 45.15,33.7 L 44.1,32.95 q -1.3,-1.15 -1.05,-2.85 0,-0.4 0.15,-0.75 0.1,-0.5 0.35,-0.9 l 0.1,-0.15 0.2,0.15 1.3,1 0.5,0.05 0.3,-0.3 q 0.1,-0.3 -0.4,-0.8 L 44.85,27.7 44.5,27.3 44.2,26.85 43.85,25.9 q -0.2,-0.7 0.4,-2.25 0.3,-0.75 0.75,-1.35 l 0.1,-0.15 0.2,-0.2 0.05,-0.05 0.05,-0.05 1.4,1.05 q 0.65,0.45 0.9,0.3 L 47.85,22.85 47.25,22 46.6,21.2 46.55,21.15 46.35,20.8 46,20.2 45.95,20.05 q -0.1,-0.6 0.15,-1 l 0.6,-1 Q 47.35,17 48.3,16.6 l 0.55,-0.35 0.75,0.25 0.9,0.8 q 0.3,0.35 0.6,0.15 h 0.15 l 0.2,-0.3 V 17.1 L 51.4,16.85 51.25,16.6 50,14.95 l -0.05,-0.4 0.15,-0.35 0.05,-0.1 0.05,-0.15 0.15,-0.2 0.65,-0.8 q 1.8,-1.65 3.4,-0.85 l 0.85,0.45 0.15,0.15 0.4,0.25 0.25,0.2 q 2,1.4 3.8,3.25 l 2.45,2.85 0.2,0.25 q 0.7,-0.1 0.9,-1 L 63.2,18.2 61.35,15.3 60.5,14.25 60.05,13.7 62.4,14 l 1.1,0.4 q 0.6,0.15 1.3,1.15 l 1.2,1.9 0.75,1.35 0.45,0.9 0.3,1.2 0.25,2.8 q 0.1,2.05 -0.5,5.1 l 2.8,2.65 3.85,3.8 7.4,7.2 5.3,4.65 0.5,0.45 0.35,0.35 1.95,1.75 q 1.9,1.7 3.65,2.5 l -4.55,4.15 -1.75,1.3 q -1.95,1.55 -4.15,2.55 l -0.25,0.1 -2.9,1.35 -1.55,0.35 -0.35,0.3"
         fill="#9d9d9d"
         fill-rule="evenodd"
         stroke="none"
         id="path2" />
      <path
         d="m 77.55,62.25 -0.05,0.2 q -1.15,1.95 -2.6,0.3 l -9.1,-10.35 -6.45,-7.45 -2.3,-2.6 -3.7,-1.15 q -3.35,-1 -6.85,-3 -3.55,-2.1 -5,-3.5 L 40.75,33.4 40.7,33.35 40.4,32.5 40.35,32.25 40.25,31.8 q -0.45,-2.7 1.1,-4.95 -0.35,-0.5 -0.4,-1.25 0,-2.85 1.6,-5 l 0.8,-0.9 v -0.5 q 0.1,-1.85 1.1,-3.25 1.3,-1.9 2.8,-2 0.5,-1.3 1.25,-2.35 1.45,-1.85 3.6,-2.3 1,-0.2 1.95,0 h 0.05 l 0.4,0.1 1.2,0.5 0.9,0.55 h 0.45 l 0.5,-0.1 1.7,0.1 3.95,0.75 2.15,0.8 1.15,1.15 0.9,1.35 0.65,1.1 0.75,1.2 0.5,0.95 0.45,1.2 0.3,1.9 0.1,3 -0.4,3.4 1.05,1 1.9,1.85 6.85,6.35 7.7,7.35 2.9,2.75 0.6,0.45 0.5,0.45 1.45,1.2 2,1.85 0.05,0.25 V 50.8 L 94.7,51.65 V 51.7 L 94.45,52 q -0.35,0.6 -1.3,0.2 l -0.1,-0.05 Q 91.3,51.35 89.4,49.65 L 87.45,47.9 87.1,47.55 86.6,47.1 l -5.3,-4.65 -7.4,-7.2 -3.85,-3.8 -2.8,-2.65 q 0.6,-3.05 0.5,-5.1 L 67.5,20.9 67.2,19.7 66.75,18.8 66,17.45 64.8,15.55 q -0.7,-1 -1.3,-1.15 l -1.1,-0.4 -2.35,-0.3 0.45,0.55 0.85,1.05 1.85,2.9 0.2,0.3 q -0.2,0.9 -0.9,1 L 62.3,19.25 59.85,16.4 q -1.8,-1.85 -3.8,-3.25 L 55.8,12.95 55.4,12.7 55.25,12.55 54.4,12.1 Q 52.8,11.3 51,12.95 l -0.65,0.8 -0.15,0.2 -0.05,0.15 -0.05,0.1 -0.15,0.35 0.05,0.4 1.25,1.65 0.15,0.25 0.05,0.25 v 0.05 l -0.2,0.3 H 51.1 q -0.3,0.2 -0.6,-0.15 L 49.6,16.5 48.85,16.25 48.3,16.6 q -0.95,0.4 -1.6,1.45 l -0.6,1 q -0.25,0.4 -0.15,1 l 0.05,0.15 0.35,0.6 0.2,0.35 0.05,0.05 0.65,0.8 0.6,0.85 -0.15,0.35 q -0.25,0.15 -0.9,-0.3 l -1.4,-1.05 -0.05,0.05 -0.05,0.05 -0.2,0.2 -0.1,0.15 q -0.45,0.6 -0.75,1.35 -0.6,1.55 -0.4,2.25 l 0.35,0.95 0.3,0.45 0.35,0.4 0.7,0.7 q 0.5,0.5 0.4,0.8 l -0.3,0.3 -0.5,-0.05 -1.3,-1 -0.2,-0.15 -0.1,0.15 q -0.25,0.4 -0.35,0.9 -0.15,0.35 -0.15,0.75 -0.25,1.7 1.05,2.85 l 1.05,0.75 q 5.3,3.6 11.75,5.35 l 1.1,0.3 q 0.8,0.2 0.8,0.3 l 0.05,0.05 0.05,0.15 1,1.15 1.3,1.55 2.85,3.4 6.65,7.55 5.55,6.6 q 1.15,1.6 1.3,2.15"
         fill="#000000"
         fill-rule="evenodd"
         stroke="none"
         id="path3" />
      <path
         d="m 81.6,13.15 q 0.5,0.05 0.95,0.45 l 0.2,0.6 0.1,0.55 3.85,-1.85 q 3.35,-1.65 6,0.95 0.55,1.3 0.3,2.6 1.55,0.55 2.7,1.85 l 0.15,0.2 q 0.75,1 0.7,2.25 L 96.5,21.6 v 0.1 l 1.25,1.1 q 1.25,2.6 0.55,4.85 0.1,-0.1 0.25,-0.15 0.6,0.3 0.75,1 l 0.15,1.05 v 0.85 q 0.35,0.75 0.1,1.65 L 99.1,33.5 q -0.7,1.7 -2.45,2.15 l -0.9,0.25 -0.35,0.05 Q 92,38.4 87.85,39.35 86.9,39.5 86,40 l -1,0.55 -0.15,0.2 -0.2,0.2 q -0.15,0.05 -0.2,0.15 -0.15,0 -0.25,0.1 l -0.1,0.05 -0.1,0.1 -0.1,0.1 -0.05,0.1 -0.2,0.2 -3.25,3.95 -3.1,3.35 -2.75,3.2 -2.95,2.65 -3.05,4.05 -0.9,1.35 q -0.65,0.95 -1.3,1.15 l 0.3,1.15 q -0.8,1.5 -2.1,0.5 L 64,62.7 62.5,62.35 59.55,61 59.35,60.9 q -2.25,-1 -4.2,-2.55 L 53.4,57.05 Q 50.7,54.85 48.3,52.25 47.6,51.5 48.15,51.1 V 51 q 0.05,-0.7 0.7,-0.7 h 0.1 l 0.1,0.05 0.5,0.35 0.1,0.1 q 0.05,-0.6 0.75,-0.85 l 0.3,0.05 0.25,-0.25 q 0.95,-1 2.15,-1.7 0.25,-0.55 0.9,-0.5 l 0.4,-0.2 0.2,0.05 1.05,-1.25 9.55,-9.35 q 0.55,-1.05 1.55,-1.85 l 2.6,-2 1.45,-1.3 2.25,-2.35 0.5,-0.6 Q 73.1,25.95 73.35,23.15 L 73.2,21.7 73.45,19.25 q 0.7,-1.3 1.8,-2.35 1.25,-1.4 2.8,-2.2 0.6,-0.65 1.4,-0.9 l 1.5,-0.6 0.65,-0.05"
         fill="#9d9d9d"
         fill-rule="evenodd"
         stroke="none"
         id="path4" />
      <path
         d="m 87.4,10.15 0.4,-0.1 h 0.05 q 0.95,-0.2 1.95,0 2.15,0.45 3.6,2.3 l 1.3,2.35 q 1.45,0.1 2.8,2 0.95,1.4 1.1,3.25 v 0.5 l 0.75,0.9 q 1.6,2.15 1.6,5 l -0.4,1.25 q 1.55,2.25 1.1,4.95 l -0.1,0.45 -0.05,0.25 -0.3,0.85 v 0.05 l -0.75,1.3 q -1.5,1.4 -5,3.5 -3.55,2 -6.9,3 L 84.9,43.1 q -0.4,0.15 -2.35,2.6 L 76.1,53.15 67,63.5 q -1.45,1.65 -2.6,-0.3 -0.2,-0.35 1.25,-2.35 1.5,-2.1 5.6,-6.6 L 77.9,46.7 80.75,43.3 82.05,41.75 83,40.6 83.1,40.45 V 40.4 q 0,-0.1 0.8,-0.3 L 85,39.8 q 6.45,-1.75 11.75,-5.35 2.75,-1.45 2,-4.35 l -0.35,-0.9 -0.1,-0.15 -0.25,0.15 -1.25,1 -0.55,0.05 -0.3,-0.3 q -0.1,-0.3 0.4,-0.8 l 0.7,-0.7 0.35,-0.4 0.35,-0.45 0.35,-0.95 q 0.15,-0.7 -0.45,-2.25 L 96.95,23.05 96.8,22.9 96.6,22.7 96.55,22.65 96.5,22.6 95.15,23.65 q -0.7,0.45 -0.9,0.3 -0.25,-0.1 -0.2,-0.35 0.05,-0.25 0.65,-0.85 l 0.65,-0.8 V 21.9 l 0.25,-0.35 0.35,-0.6 0.05,-0.15 -0.2,-1 -0.55,-1 q -0.7,-1.05 -1.6,-1.45 L 93.05,17 q -0.35,0.05 -0.7,0.25 l -0.9,0.8 Q 91.1,18.4 90.8,18.2 H 90.7 L 90.5,17.9 V 17.85 17.6 L 90.7,17.35 91.9,15.7 92,15.3 91.85,14.95 91.8,14.85 91.7,14.7 91.55,14.5 90.95,13.7 Q 89.1,12.05 87.5,12.85 l -0.8,0.45 -0.2,0.15 -0.4,0.25 -0.25,0.2 q -2,1.4 -3.75,3.25 L 79.65,20 79.4,20.25 q -0.7,-0.1 -0.9,-1 l 0.2,-0.3 q 1.25,-2.2 1.9,-2.9 l 0.8,-1.05 0.5,-0.55 -2.4,0.3 -1.1,0.4 q -0.6,0.15 -1.25,1.15 l -1.25,1.9 -0.75,1.35 -0.4,0.9 -0.35,1.2 -0.25,2.8 q -0.1,2.05 0.5,5.1 L 71.85,32.2 68,36 l -7.35,7.2 -5.3,4.65 -0.5,0.45 -0.35,0.35 -2,1.75 q -2,1.75 -3.75,2.55 -0.95,0.4 -1.3,-0.2 L 47.25,52.45 47.2,52.4 Q 46.95,52.05 47.15,51.55 V 51.5 l 0.1,-0.25 2,-1.85 1.45,-1.2 0.5,-0.45 0.55,-0.45 2.9,-2.75 7.75,-7.35 q 3.35,-3.25 6.85,-6.35 L 71.1,29 72.15,28 q -0.25,-1.7 -0.35,-3.4 -0.15,-1.55 0.1,-3 0,-1.2 0.25,-1.9 l 0.5,-1.2 0.45,-0.95 0.75,-1.2 0.7,-1.1 0.9,-1.35 Q 76,13 76.6,12.75 l 2.1,-0.8 4,-0.75 1.65,-0.1 0.55,0.1 h 0.45 l 0.85,-0.55 1.2,-0.5"
         fill="#000000"
         fill-rule="evenodd"
         stroke="none"
         id="path5" />
    </g>
  </defs>
</svg>
