<?xml version="1.0" encoding="UTF-8" standalone="no"?>
<svg
   ffdec:objectType="frame"
   height="59.25"
   width="75.939651"
   version="1.1"
   id="svg4"
   sodipodi:docname="ITEM Spider Hat.svg"
   xmlns:inkscape="http://www.inkscape.org/namespaces/inkscape"
   xmlns:sodipodi="http://sodipodi.sourceforge.net/DTD/sodipodi-0.dtd"
   xmlns:xlink="http://www.w3.org/1999/xlink"
   xmlns="http://www.w3.org/2000/svg"
   xmlns:svg="http://www.w3.org/2000/svg"
   xmlns:ffdec="https://www.free-decompiler.com/flash">
  <sodipodi:namedview
     id="namedview4"
     pagecolor="#ffffff"
     bordercolor="#000000"
     borderopacity="0.25"
     inkscape:showpageshadow="2"
     inkscape:pageopacity="0.0"
     inkscape:pagecheckerboard="0"
     inkscape:deskcolor="#d1d1d1"
     fit-margin-top="5"
     fit-margin-left="5"
     fit-margin-right="5"
     fit-margin-bottom="5" />
  <g
     transform="translate(39.389655,30.65)"
     id="g1">
    <use
       ffdec:characterId="17"
       height="119.15"
       id="rarity"
       transform="translate(-58.5,-60.65)"
       width="119.15"
       xlink:href="#sprite0" />
    <use
       ffdec:characterId="1232"
       height="59.349998"
       transform="translate(-39.4,-30.65)"
       width="75.949997"
       xlink:href="#shape0"
       id="use1" />
  </g>
  <defs
     id="defs4">
    <g
       id="shape0"
       transform="translate(38.1,28.75)">
      <path
         d="M 4.55,19.15 H 3 L 3.75,19.8 4.45,21 5,21.9 Q 5.3,22.7 4.7,23.4 4.15,24 3.3,23.85 L 2.55,23.55 1.8,23.4 0.85,23.05 0.05,22.6 -0.4,22.1 l -1.05,-0.8 -0.95,-1 -0.85,-0.75 -0.25,-0.4 -0.9,0.3 q -6.4,1.9 -11.5,0.85 l 3.6,7.6 q 0.45,1 0.4,1.4 -0.1,0.75 -0.85,1.1 l -1.45,0.1 q -1,-0.35 -2.2,-1.85 -2.45,-3.3 -4.05,-6.85 l -1.7,-3.1 -0.85,-0.95 -0.65,-1.05 -0.1,-0.45 -2.15,-2.5 q -2.2,-3 -3.15,-6.65 l -2.5,1.05 q 3.25,7.7 4.15,11.3 0.4,1.65 0.1,2.55 l -0.7,1.05 q -0.55,0.45 -1.15,0.35 -1,-0.15 -1.7,-1.8 l -5,-10.75 Q -36.4,9.35 -36.9,8.6 l -1.05,-1.9 q -0.45,-1.35 0.55,-2.35 0.6,-0.6 2.35,-1.25 l 5.15,-2 q -0.15,-4.25 1,-9.1 0.7,-3 1.65,-5.05 2.45,-5.6 7.9,-9.6 5.05,-3.7 11.5,-5.2 5.1,-1.2 10.2,-0.8 5.3,0.45 9.8,2.55 3.1,1.5 6.05,3.85 l 4,3.7 q 2.2,2.65 3.4,6.05 l 0.85,3.35 1.4,0.6 q 6.2,3.15 8.75,5.9 1.25,1.35 1.25,2.5 l -0.25,1.2 -0.5,1.15 -0.6,2.55 -0.8,2.7 q -2.25,6.7 -4.5,9.95 L 30,18.45 29.1,18.55 28.3,18 q -0.3,-0.4 -0.2,-1.3 0.1,-1.55 1,-3.7 l 1.4,-3.6 1.75,-7.15 q 0.2,-0.95 0,-1.35 l -0.7,-0.65 q -2.1,-1.5 -5.1,-2.95 l -0.9,3.85 0.8,0.75 2.15,2.4 1,1.7 q 0.25,1.1 -0.8,3.2 l -4.15,7.9 -2.15,4.45 -0.85,1.8 Q 20.7,24.3 19.75,24 18.95,23.7 18.7,22.75 l 0.05,-1.7 q 0.55,-2.9 3,-8.65 L 23.7,8 23.85,7.4 23.4,6.85 22.95,6.5 l -0.7,1 q -1.85,2.65 -4.1,4.35 l -2,1.15 -1.1,1.5 0.35,1.15 0.15,1.45 -0.25,1.7 -0.7,0.9 -2.75,2.4 q -1.2,0.75 -1.8,0.8 -1.1,0.1 -1.8,-0.8 -0.75,-0.8 -0.4,-1.9 0.2,-0.7 1.3,-1.85 l -4.6,0.8 m 8.1,-25.5 0.6,0.5 q 1,0.9 2.3,3.1 1.9,3.35 2.35,5.55 l 0.1,0.75 1.55,-3 q 2,-4.8 0.9,-9.55 -1,-4.15 -4.55,-7.45 l -1.95,-1.6 Q 11.4,-19.9 8.2,-21.1 q -2.4,-0.95 -5.05,-1.35 -6.25,-0.95 -12.95,1.6 -2.3,0.85 -4.2,2 -3.65,2.15 -5.85,5.25 l -0.85,1.35 q -1.15,2 -2.05,5.35 l -0.5,2.35 -0.35,2.4 -0.05,0.7 0.2,-0.1 h 0.1 l 1.45,-0.35 1.75,0.05 0.25,0.05 q 1.55,0.6 1.85,2.15 v 0.1 q 0.2,1.45 -0.7,2.55 l -0.3,0.25 Q -19.8,3.9 -21.6,4.4 l -1.6,0.55 q 0.55,2.35 1.85,4.35 l 0.55,0.8 q 1.5,-2.35 3,-4.15 1.05,-1.25 1.8,-1.65 l 0.05,-0.05 2.3,-0.15 0.9,0.35 0.9,0.95 q 0.7,1.15 0.35,2.2 l -0.8,1.3 -1.1,1.1 -1.65,2.15 -1.1,1.65 q 1.8,0.75 3.9,0.9 l 5.5,-0.55 h 0.1 Q -7.9,12.3 -8.35,9.8 -8.8,7.15 -8.2,3.6 l 0.05,-0.2 -0.1,-0.1 -0.8,-0.85 -0.8,-2.05 -0.3,-1.3 -0.1,-0.75 -0.1,-1.1 q 0,-1.4 0.95,-3.4 1.35,-2.9 3.45,-4.25 1.05,-0.65 3.35,-1.35 l 2.75,-0.5 2.2,0.55 q 2.75,1.2 3.8,3.45 l 1.9,0.15 q 2.8,0.45 4.6,1.75 M 11.3,2.2 10.1,-0.1 8.9,-1.55 6.85,-1.9 4.95,-1.95 3.6,-1.85 1.05,-0.9 -0.7,0.15 -1.45,1.4 -1.95,2.8 -2.25,4 -2.5,5.6 q -0.4,3 0.7,4.55 0.6,1 2.4,1.9 1.5,0.75 2.85,0.95 2.5,0.25 5.3,-1.3 l 1.8,-1.35 Q 11.3,9.4 11.8,7 12.2,5.1 12,4.15 L 11.45,2.5 11.3,2.2 M -1.45,-6.45 0.65,-7.4 -1.4,-7.1 q -1.5,0.5 -2.2,1.1 -0.75,0.65 -1.55,2.6 1.5,-1.8 3.7,-3.05"
         fill="#000000"
         fill-rule="evenodd"
         stroke="none"
         id="path1" />
      <path
         d="m 13.95,-18.05 q 1.1,1.95 1.35,4 0.3,2.35 -0.6,4.6 -0.75,1.85 -2.05,3.1 -1.8,-1.3 -4.6,-1.75 L 6.15,-8.25 Q 5.1,-10.5 2.35,-11.7 l -2.2,-0.55 -2.75,0.5 q -2.3,0.7 -3.35,1.35 -2.1,1.35 -3.45,4.25 -0.95,2 -0.95,3.4 l 0.1,1.1 0.1,0.75 0.3,1.3 0.8,2.05 0.8,0.85 -0.55,0.3 q -0.85,0.45 -2.35,0.65 l -1.6,0.2 -0.9,-0.35 -2.3,0.15 L -16,4.3 q -1.3,-0.4 -2.75,-1.3 0.9,-1.1 0.7,-2.55 v -0.1 q -0.3,-1.55 -1.85,-2.15 l -0.25,-0.05 -1.75,-0.05 -1.45,0.35 -0.25,-0.6 0.35,-2.4 0.5,-2.35 q 0.9,-3.35 2.05,-5.35 l 0.85,-1.35 q 2.2,-3.1 5.85,-5.25 1.9,-1.15 4.2,-2 6.7,-2.55 12.95,-1.6 2.65,0.4 5.05,1.35 3.2,1.2 5.75,3.05 M -2.25,4 -1.95,2.8 -1.45,1.4 -0.7,0.15 1.05,-0.9 3.6,-1.85 l 1.35,-0.1 1.9,0.05 2.05,0.35 1.2,1.45 1.2,2.3 -0.65,1.55 Q 9.85,5 8.2,6.05 L 6.45,6.85 4.1,7.05 1.75,6.9 Q -0.8,6.6 -1.7,5.35 L -2.25,4 m 0.8,-10.45 q -2.2,1.25 -3.7,3.05 0.8,-1.95 1.55,-2.6 0.7,-0.6 2.2,-1.1 l 2.05,-0.3 -2.1,0.95"
         fill="#444444"
         fill-rule="evenodd"
         stroke="none"
         id="path2" />
      <path
         d="m 12.65,-6.35 q 1.3,-1.25 2.05,-3.1 0.9,-2.25 0.6,-4.6 -0.25,-2.05 -1.35,-4 l 1.95,1.6 q 3.55,3.3 4.55,7.45 1.1,4.75 -0.9,9.55 L 18,3.55 17.9,2.8 q -0.45,-2.2 -2.35,-5.55 -1.3,-2.2 -2.3,-3.1 l -0.6,-0.5 m -36.25,4.2 0.25,0.6 h -0.1 l -0.2,0.1 0.05,-0.7 M -18.75,3 q 1.45,0.9 2.75,1.3 -0.75,0.4 -1.8,1.65 -1.5,1.8 -3,4.15 l -0.55,-0.8 q -1.3,-2 -1.85,-4.35 l 1.6,-0.55 q 1.8,-0.5 2.55,-1.15 L -18.75,3 m 6,1.45 1.6,-0.2 q 1.5,-0.2 2.35,-0.65 l 0.55,-0.3 0.1,0.1 -0.05,0.2 q -0.6,3.55 -0.15,6.2 0.45,2.5 1.7,4.35 h -0.1 l -5.5,0.55 q -2.1,-0.15 -3.9,-0.9 l 1.1,-1.65 1.65,-2.15 1.1,-1.1 0.8,-1.3 q 0.35,-1.05 -0.35,-2.2 l -0.9,-0.95 M -2.25,4 -1.7,5.35 Q -0.8,6.6 1.75,6.9 L 4.1,7.05 6.45,6.85 8.2,6.05 Q 9.85,5 10.65,3.75 L 11.3,2.2 11.45,2.5 12,4.15 Q 12.2,5.1 11.8,7 11.3,9.4 10.55,10.35 L 8.75,11.7 Q 5.95,13.25 3.45,13 2.1,12.8 0.6,12.05 -1.2,11.15 -1.8,10.15 -2.9,8.6 -2.5,5.6 L -2.25,4"
         fill="#2e2e2e"
         fill-rule="evenodd"
         stroke="none"
         id="path3" />
    </g>
    <g
       id="sprite1"
       transform="translate(17.4,15.85)">
      <use
         ffdec:characterId="31"
         height="57.200001"
         transform="matrix(0.5366,0,0,0.5366,-16.6582,-14.546)"
         width="70.75"
         xlink:href="#sprite2"
         id="use3" />
    </g>
    <g
       id="sprite2"
       transform="translate(-8.65,-10.35)">
      <use
         ffdec:characterId="30"
         height="57.200001"
         transform="translate(8.65,10.35)"
         width="70.75"
         xlink:href="#shape1"
         id="use4" />
    </g>
    <g
       id="shape1"
       transform="translate(-8.65,-10.35)">
      <path
         d="m 14.8,41.7 q 0.65,-1.75 2.65,-2.5 1.8,-0.8 3.7,-0.25 1.15,0.45 2.25,1.2 l 0.9,0.4 q 1.65,0.9 2.85,2.5 L 37.8,30.1 q 2.35,-2.8 3.75,-3.95 1.5,-1.15 4.25,-2.4 18.2,-8.85 27.65,-12.6 2.15,-0.8 3.25,-0.8 h 0.8 l 1.9,2.4 -0.2,0.8 q -0.2,1.1 -1.55,3 -5.85,8.25 -18.85,23.8 -1.85,2.35 -3.35,3.5 -1.4,1.15 -4.75,2.75 l -15.15,7.15 q 1.2,1.6 1.75,3.4 l 0.2,1 0.55,2.5 q 0.1,1.95 -1.1,3.55 -1.2,1.65 -3.05,1.9 l -1.3,0.05 q -1.65,0.2 -3.45,-0.65 -1.85,-0.9 -3,-2.6 L 25,60.95 23.8,62.1 q -2.6,2.85 -4.3,3.95 -2.85,1.8 -5.5,1.45 l -1.65,-0.5 -1.2,-0.7 -0.2,-0.2 q -1,-0.85 -1.6,-1.9 L 9.25,64 9.15,63.8 8.75,62.4 q -0.2,-0.8 -0.05,-1.7 0.25,-2.65 2.7,-5.05 1.5,-1.3 4.9,-3.15 L 17.7,51.55 16.05,50 q -1.35,-1.5 -1.8,-3.6 -0.4,-1.85 0.25,-3.45 l 0.3,-1.25"
         fill="#000000"
         fill-opacity="0.372549"
         fill-rule="evenodd"
         stroke="none"
         id="path4" />
    </g>
  </defs>
</svg>
