<?xml version="1.0" encoding="UTF-8" standalone="no"?>
<svg
   ffdec:objectType="frame"
   height="52.712502"
   width="75.172501"
   version="1.1"
   id="svg5"
   xmlns:xlink="http://www.w3.org/1999/xlink"
   xmlns="http://www.w3.org/2000/svg"
   xmlns:svg="http://www.w3.org/2000/svg"
   xmlns:ffdec="https://www.free-decompiler.com/flash">
  <g
     transform="translate(38.9,22.95)"
     id="g1">
    <use
       ffdec:characterId="17"
       height="119.15"
       id="rarity"
       transform="translate(-58.5,-60.65)"
       width="119.15"
       xlink:href="#sprite0" />
    <use
       ffdec:characterId="358"
       height="52.75"
       transform="translate(-38.9,-23)"
       width="75.150002"
       xlink:href="#shape0"
       id="use1" />
  </g>
  <defs
     id="defs5">
    <g
       id="shape0"
       transform="translate(38.6,25.5)">
      <path
         d="m -12.5,21.75 q -6.2,1.3 -11,-0.6 -2.7,-1.1 -4.65,-3.1 -2.05,-2.15 -2.75,-4.75 -0.35,-1.4 -0.35,-3.55 L -31.8,9.8 -33.85,9.4 Q -35,8.8 -35.25,7.85 L -35.5,6.8 -35.9,6.05 -36.3,4.9 -36.55,3.75 Q -36.7,3.25 -37.2,2.5 L -38,1.25 q -0.85,-1.45 -0.45,-2.45 l -0.15,-0.7 0.35,-1.5 0.8,-1 1.05,-0.5 q 2.3,-0.85 3.45,-0.75 l 1.8,0.3 1.6,0.2 1.6,0.3 2,1.15 h 0.05 l 3.5,-3.35 q 2.3,-1.7 4.9,-2.45 l 0.7,-0.2 1.6,-10.35 q 0.65,-2.75 1.2,-3.75 l 1,-1.2 1.5,-0.15 q 0.6,0.25 0.9,1.15 l 0.1,1.55 0.2,2.4 -0.05,5.2 -0.05,4.95 v 0.3 l 2,0.6 1.8,0.7 2.4,-2.5 q 1.95,-1.9 3.3,-2.75 l 0.2,-0.1 -0.15,-1.15 v -4.05 l 0.1,-2.15 0.1,-0.8 -0.1,-1.05 q -0.05,-0.9 0.6,-1.65 0.6,-0.8 1.55,-0.95 l 1.75,0.35 q 0.85,0.5 1.1,1.4 0.2,0.7 0,2.45 l -0.25,2.2 -0.1,1.9 -0.15,1.8 0.9,-0.25 q 3.85,-0.95 5.65,-0.75 l 2.35,0.6 q -0.05,-0.8 0.05,-1.4 l 0.3,-1.95 -0.1,-1.4 q -0.1,-0.9 0.05,-1.4 0.2,-0.8 0.9,-1.4 0.7,-0.55 1.5,-0.55 0.85,0 1.55,0.55 l 0.9,1.35 0.1,1.4 -0.1,1.8 -0.15,1.5 -0.3,1.25 -0.15,1.5 -0.1,0.9 0.55,0.35 0.95,-0.7 2.1,-1.5 2.25,-1.75 q 0.65,-0.45 1.45,-0.6 l 1.55,0.15 q 0.95,0.45 1.3,1.65 l 0.2,2.15 -0.1,1.05 5.1,-0.1 q 2.5,0 3.4,0.9 0.85,0.85 0.7,1.9 -0.1,1.25 -1.95,2.8 -4.65,3.9 -9.75,7.2 L 21,2.05 17.7,4.3 14.9,5.6 15.2,6.4 q 0.9,2.75 1.2,4.8 3.55,0.55 6.5,2.85 2.95,2.3 4.35,5.6 0.8,1.9 0.85,3.4 0,2.6 -1.6,3.65 -1.1,0.75 -2.75,0.5 L 20.9,26.7 17.5,26.3 15.15,25.7 12.85,24.95 7.95,23.9 2.8,22.95 0.55,22.3 q -1.25,-0.7 -1.4,-1.8 l 0.1,-1.45 q 0.15,-1.3 -0.45,-3 L -1.55,15.2 q -3.1,5 -10.95,6.55 M -29.45,1.3 -29,0.6 l -0.25,-0.15 -1.1,-0.6 q -1.3,-0.7 -2.85,-0.85 l -1.25,0.05 1.7,3.05 q 0.5,0.85 0.65,1.6 l 1.5,-0.05 1.15,-2.35 m 25.2,3.1 V 4.15 L -4.35,3.4 Q -4.7,1.35 -6.25,-0.75 l -1.2,-1.3 -1.45,-0.7 -1.7,-0.6 q -0.25,1.25 -0.8,2 -0.55,0.7 -1.5,1.05 l -1.8,0.1 q -0.9,-0.2 -1.6,-0.85 -0.65,-0.7 -0.85,-1.6 l -0.05,-0.7 q -1.5,0.5 -2.7,1.45 l -1.45,1.45 q -1.15,1.45 -2.4,4.4 l -0.6,1.55 -0.2,0.6 -0.2,1.4 0.05,2.6 0.25,1.8 1.25,1.75 q 2.7,2.4 7.1,2.4 3.7,-0.1 6.9,-1.65 2.45,-1.2 3.35,-2.9 l 0.55,-1.65 0.2,-0.8 q 0.85,-2.8 0.85,-4.65 m -11.8,7.7 0.2,-0.4 0.4,-0.6 0.15,-0.65 0.15,-0.6 0.2,-0.25 -0.2,-0.2 -0.5,-0.55 Q -16.3,8 -15.95,7.1 -15.65,6.15 -14.6,6.05 -14,6 -13.35,6.4 q 0.15,0.05 0.6,0.4 l 0.55,-0.7 q 0.5,-0.6 0.95,-0.85 L -10.35,5 -10.25,4.9 -9.8,5 q 0.85,0.2 1.3,1.05 0.55,1.05 -0.1,2.1 l -1,1.15 q 0.6,0.75 0.65,1.25 0.15,1.05 -0.9,1.6 l -1.9,-0.05 -0.3,0.2 -1.5,0.8 -0.85,0.5 q -0.85,0.25 -1.4,-0.45 -0.4,-0.55 -0.25,-1.05 m 32.6,-16.8 -0.2,-0.35 -1.7,-2.15 H 14.5 q -0.55,0 -0.95,-0.4 -0.3,-0.3 -0.5,-0.9 l -0.1,-0.2 Q 11.3,-10 9.45,-10.35 l -4.55,0.3 -2.3,0.6 -0.5,0.5 -1,0.15 H 1 q -1.8,0.9 -3.75,2.8 l 0.05,0.05 q 1.45,1.45 2.5,4.2 L 0.65,1 1.05,3.15 v 0.4 l 0.1,1.35 5,-1.75 q 5.3,-2 9.05,-3.85 l 1.1,-0.65 0.65,-0.8 Q 17.2,-2.7 17.1,-3.35 L 16.55,-4.7 m 5.75,-2.5 0.65,2.9 5.6,-3.95 -1.8,-0.1 Q 25.65,-8.4 25.05,-8.8 24.3,-9.3 24.15,-10 l -0.3,-0.55 -0.25,-1.25 -2.2,1.65 -0.65,0.35 1.55,2.6 M 11.2,13.4 V 13.15 L 11.3,11.45 10.75,9.7 9.9,8 9.75,7.65 5,9.55 1.85,10.8 Q 3.7,14 3.8,15.95 3.9,17 4.15,17.25 l 1.1,0.3 q 5.7,0.4 11,1.95 l 2.95,0.8 3,0.1 L 20,18.15 Q 18.7,17 17.35,16.65 l -1.6,-0.2 -1.65,-0.1 q -1.3,-0.1 -2,-0.7 l -0.7,-0.9 -0.2,-1.35"
         fill="#000000"
         fill-rule="evenodd"
         stroke="none"
         id="path1" />
      <path
         d="m -24.75,7.5 0.2,-1.4 0.2,-0.6 0.6,-1.55 q 1.25,-2.95 2.4,-4.4 l 1.45,-1.45 q 1.2,-0.95 2.7,-1.45 l 0.05,0.7 q 0.2,0.9 0.85,1.6 0.7,0.65 1.6,0.85 l 1.8,-0.1 q 0.95,-0.35 1.5,-1.05 0.55,-0.75 0.8,-2 l 1.7,0.6 1.45,0.7 1.2,1.3 q 1.55,2.1 1.9,4.15 l 0.1,0.75 V 4.4 L -4.7,5.75 q -0.9,2.15 -2.7,3.7 l -1.55,1.1 Q -9,10.05 -9.6,9.3 l 1,-1.15 Q -7.95,7.1 -8.5,6.05 -8.95,5.2 -9.8,5 l -0.45,-0.1 -0.1,0.1 -0.9,0.25 Q -11.7,5.5 -12.2,6.1 l -0.55,0.7 Q -13.2,6.45 -13.35,6.4 -14,6 -14.6,6.05 q -1.05,0.1 -1.35,1.05 -0.35,0.9 0.3,1.75 l 0.5,0.55 0.2,0.2 -0.2,0.25 -0.15,0.6 -0.15,0.65 -0.4,0.6 -0.2,0.4 -3.25,-0.5 q -1.75,-0.6 -3.35,-2 l -2.1,-2.1 m -4.7,-6.2 -1.15,2.35 -1.5,0.05 q -0.15,-0.75 -0.65,-1.6 l -1.7,-3.05 1.25,-0.05 q 1.55,0.15 2.85,0.85 l 1.1,0.6 0.25,0.15 -0.45,0.7 M 0.65,1 2.85,0.4 6.15,-0.45 q 4.65,-1.3 10.1,-4.1 l 0.3,-0.15 0.55,1.35 q 0.1,0.65 -0.15,1.2 l -0.65,0.8 -1.1,0.65 Q 11.45,1.15 6.15,3.15 L 1.15,4.9 1.05,3.55 V 3.15 L 0.65,1 m 21.65,-8.2 -1.55,-2.6 0.65,-0.35 2.2,-1.65 0.25,1.25 0.3,0.55 q 0.15,0.7 0.9,1.2 0.6,0.4 1.7,0.45 l 1.8,0.1 -5.6,3.95 -0.65,-2.9 M 5,9.55 l 0.3,0.3 1.45,2.05 0.95,1.05 1,0.35 2.45,0.1 h 0.05 l 0.2,1.35 0.7,0.9 q 0.7,0.6 2,0.7 l 1.65,0.1 1.6,0.2 Q 18.7,17 20,18.15 l 2.2,2.25 -3,-0.1 -2.95,-0.8 q -5.3,-1.55 -11,-1.95 l -1.1,-0.3 Q 3.9,17 3.8,15.95 3.7,14 1.85,10.8 L 5,9.55"
         fill="#53895b"
         fill-rule="evenodd"
         stroke="none"
         id="path2" />
      <path
         d="m -24.75,7.5 2.1,2.1 q 1.6,1.4 3.35,2 l 3.25,0.5 q -0.15,0.5 0.25,1.05 0.55,0.7 1.4,0.45 l 0.85,-0.5 1.5,-0.8 0.3,-0.2 1.9,0.05 q 1.05,-0.55 0.9,-1.6 L -7.4,9.45 Q -5.6,7.9 -4.7,5.75 L -4.25,4.4 q 0,1.85 -0.85,4.65 l -0.2,0.8 -0.55,1.65 q -0.9,1.7 -3.35,2.9 -3.2,1.55 -6.9,1.65 -4.4,0 -7.1,-2.4 l -1.25,-1.75 -0.25,-1.8 -0.05,-2.6"
         fill="#436d4a"
         fill-rule="evenodd"
         stroke="none"
         id="path3" />
      <path
         d="M 0.65,1 -0.2,-1.75 Q -1.25,-4.5 -2.7,-5.95 L -2.75,-6 Q -0.8,-7.9 1,-8.8 h 0.1 l 1,-0.15 0.5,-0.5 2.3,-0.6 4.55,-0.3 q 1.85,0.35 3.5,1.65 l 0.1,0.2 q 0.2,0.6 0.5,0.9 0.4,0.4 0.95,0.4 h 0.15 l 1.7,2.15 0.2,0.35 -0.3,0.15 q -5.45,2.8 -10.1,4.1 L 2.85,0.4 0.65,1 M 5,9.55 9.75,7.65 9.9,8 l 0.85,1.7 0.55,1.75 -0.1,1.7 V 13.4 H 11.15 L 8.7,13.3 7.7,12.95 6.75,11.9 5.3,9.85 5,9.55"
         fill="#884141"
         fill-rule="evenodd"
         stroke="none"
         id="path4" />
    </g>
    <g
       id="sprite1"
       transform="translate(17.4,15.85)">
      <use
         ffdec:characterId="31"
         height="57.200001"
         transform="matrix(0.5366,0,0,0.5366,-16.6582,-14.546)"
         width="70.75"
         xlink:href="#sprite2"
         id="use4" />
    </g>
    <g
       id="sprite2"
       transform="translate(-8.65,-10.35)">
      <use
         ffdec:characterId="30"
         height="57.200001"
         transform="translate(8.65,10.35)"
         width="70.75"
         xlink:href="#shape1"
         id="use5" />
    </g>
    <g
       id="shape1"
       transform="translate(-8.65,-10.35)">
      <path
         d="m 14.8,41.7 q 0.65,-1.75 2.65,-2.5 1.8,-0.8 3.7,-0.25 1.15,0.45 2.25,1.2 l 0.9,0.4 q 1.65,0.9 2.85,2.5 L 37.8,30.1 q 2.35,-2.8 3.75,-3.95 1.5,-1.15 4.25,-2.4 18.2,-8.85 27.65,-12.6 2.15,-0.8 3.25,-0.8 h 0.8 l 1.9,2.4 -0.2,0.8 q -0.2,1.1 -1.55,3 -5.85,8.25 -18.85,23.8 -1.85,2.35 -3.35,3.5 -1.4,1.15 -4.75,2.75 l -15.15,7.15 q 1.2,1.6 1.75,3.4 l 0.2,1 0.55,2.5 q 0.1,1.95 -1.1,3.55 -1.2,1.65 -3.05,1.9 l -1.3,0.05 q -1.65,0.2 -3.45,-0.65 -1.85,-0.9 -3,-2.6 L 25,60.95 23.8,62.1 q -2.6,2.85 -4.3,3.95 -2.85,1.8 -5.5,1.45 l -1.65,-0.5 -1.2,-0.7 -0.2,-0.2 q -1,-0.85 -1.6,-1.9 L 9.25,64 9.15,63.8 8.75,62.4 q -0.2,-0.8 -0.05,-1.7 0.25,-2.65 2.7,-5.05 1.5,-1.3 4.9,-3.15 L 17.7,51.55 16.05,50 q -1.35,-1.5 -1.8,-3.6 -0.4,-1.85 0.25,-3.45 l 0.3,-1.25"
         fill="#000000"
         fill-opacity="0.372549"
         fill-rule="evenodd"
         stroke="none"
         id="path5" />
    </g>
  </defs>
</svg>
