<?xml version="1.0" encoding="UTF-8" standalone="no"?>
<svg
   ffdec:objectType="frame"
   height="72.077629"
   width="75.106522"
   version="1.1"
   id="svg4"
   xmlns:xlink="http://www.w3.org/1999/xlink"
   xmlns="http://www.w3.org/2000/svg"
   xmlns:svg="http://www.w3.org/2000/svg"
   xmlns:ffdec="https://www.free-decompiler.com/flash">
  <g
     transform="translate(38.3,34.351064)"
     id="g1">
    <use
       ffdec:characterId="17"
       height="119.15"
       id="rarity"
       transform="translate(-58.5,-60.65)"
       width="119.15"
       xlink:href="#sprite0" />
    <use
       ffdec:characterId="852"
       height="72.099998"
       transform="translate(-38.3,-34.35)"
       width="75.099998"
       xlink:href="#shape0"
       id="use1" />
  </g>
  <defs
     id="defs4">
    <g
       id="shape0"
       transform="translate(38.85,35.1)">
      <path
         d="m -27.5,-5.7 q -0.65,-5.15 1.75,-13 l -0.25,0.65 0.7,-1.9 q 0.8,-1.7 2.5,-3.9 1.85,-3.4 5.2,-5.8 3.35,-2.4 6.25,-3.35 5.8,-1.9 11.1,-2.1 2.75,-0.05 11.6,2.25 l 4.75,2.85 3.4,2.6 q 5.6,7.45 5.55,14.95 Q 25,-5 23.35,-0.2 l 2.6,0.4 q 1,0.3 2.8,1.2 2.1,1.2 3.05,1.95 2.9,2.25 3.9,5.85 0.8,2.7 0.45,7.15 -0.2,3.25 -1.5,4.55 l -0.7,0.6 -2.65,5.55 -0.15,0.25 -2.85,3.05 q -1.4,0.95 -2.9,1.45 l -0.05,0.15 -4.75,0.1 q -0.75,0.95 -2.15,1.55 -1.8,0.8 -4.35,0.8 l -2.45,-0.1 -2,-0.25 h -0.9 l -1.6,0.5 -13,2.35 q -3.05,0.35 -8.95,-0.9 -4.5,-0.55 -4.75,-4.35 l -1.25,-0.15 -6.55,-1.95 -3.2,-0.9 -1.95,-0.5 -2.15,-1.6 -1.25,-1.4 -0.6,-0.55 q -1.85,-2.1 -2.35,-5.05 l 0.1,-4.85 0.15,-0.75 q 0.8,-3.6 3,-6.7 2.1,-3.1 5.2,-5.15 2.1,-1.35 3.85,-1.6 -0.35,-1.1 -0.95,-6.2 m 14.8,11.95 q 2.65,1.85 4.55,2.6 3.35,1.35 9.2,1.05 L 6.6,9.1 q 5,-1.45 8.7,-6.45 2.1,-2.8 3,-5.75 0.85,-2.9 0.85,-6.85 0,-4.5 -0.75,-7.2 -1,-3.85 -3.4,-6.35 -1.6,-1.55 -4.3,-2.85 l -4.1,-1.6 q -6.15,-1.65 -14.95,1 -2.85,0.9 -4.2,1.85 l -3.05,2.9 -2.95,4 q -2.6,4.7 -2.35,11.95 0.1,3.45 1.05,5.55 0.9,2.05 3.05,3.95 l 4.1,3 m 21.55,8.6 -4.95,0.9 -8.05,0.35 q -4.4,-0.25 -7.65,-1.8 L -16.65,11.45 -19,10 q -3.5,5.25 -4.4,9.1 l -0.2,1.65 q 0.05,0.9 0.7,2.1 l 1.35,1.85 2.5,1.4 q 0.55,0.25 0.95,0.55 l 0.65,-0.95 q 3.7,-4.85 12.05,-6.55 8.05,-1.65 16.95,0 1.4,0.35 1.75,0.6 l 0.1,0.1 0.55,0.15 2.15,1.5 1.8,2 q 2.15,2.65 4.2,3 2.1,0.35 3.65,-1.2 1.5,-1.6 1.1,-3.6 -0.3,-1.7 -2.15,-3.45 -3.8,-3.6 -9.15,-4.1 h -4 L 10.4,14.2 8.85,14.85 m -38.4,7.55 q -0.3,-1.8 0.3,-4.25 1.5,-5.9 5.85,-10.3 l 0.75,-0.65 -1.8,-2.3 -1.1,0.35 q -1.65,0.65 -3.3,2.3 -3.25,3.4 -4.2,7.7 -0.9,3.8 1,5.7 l 1.4,1 q 0.65,0.3 1.15,0.55 l -0.05,-0.1 M 2.9,23.5 q -4.65,0.55 -8.35,1.6 -5.75,1.75 -7.6,5 1.45,1.45 4.65,1.35 l 7.15,-0.8 7.05,-1.55 3.75,0.2 0.15,0.1 2,-0.05 1.75,0.2 2.35,-0.15 -1.65,-2 -2.9,-3.85 -0.5,-0.65 -7.85,0.6 M 18.5,8.25 18,8.75 22.1,10.1 q 5.85,2.65 8.45,6.65 l 0.9,1.65 v -0.15 l 0.1,-3.2 Q 31.35,11.6 30.4,10 29.35,8.1 26.4,6.7 25.2,6.05 24,5.85 L 22.15,5.6 20.8,5.25 l -2.3,3"
         fill="#000000"
         fill-rule="evenodd"
         stroke="none"
         id="path1" />
      <path
         d="m -12.7,6.25 -4.1,-3 q -2.15,-1.9 -3.05,-3.95 -0.95,-2.1 -1.05,-5.55 -0.25,-7.25 2.35,-11.95 l 2.95,-4 3.05,-2.9 q 1.35,-0.95 4.2,-1.85 8.8,-2.65 14.95,-1 l 4.1,1.6 q 2.7,1.3 4.3,2.85 2.4,2.5 3.4,6.35 0.75,2.7 0.75,7.2 0,3.95 -0.85,6.85 -0.9,2.95 -3,5.75 -3.7,5 -8.7,6.45 L 1.05,9.9 q -5.85,0.3 -9.2,-1.05 -1.9,-0.75 -4.55,-2.6 m -2.1,-21.2 q -1.85,0.9 -2.25,2.95 -0.3,2.1 1.1,3.6 1.5,1.5 3.45,1.25 2.05,-0.25 3.1,-2.05 0.65,-1.1 0.5,-2.5 -0.15,-1.4 -1.05,-2.35 -0.9,-1 -2.25,-1.25 l -2.6,0.35 m 1.35,17.2 2.5,1.55 3.8,0.95 3.35,0.35 q 3.55,0.3 5.75,0.05 5.4,-0.7 9.5,-4.25 l 1.6,-1.75 0.6,-1.65 q 0.3,-0.9 0.05,-1.45 -0.4,-0.85 -1.4,-1 L 10.55,-4.9 -12.05,-5 q -1.65,-0.1 -2.4,0.45 -1,0.8 -0.9,3.35 l 0.45,2.05 1.45,1.4 m 29.25,-14.6 q -0.55,-1.45 -2.1,-2.25 -1.5,-0.75 -3,-0.35 -1.5,0.45 -2.35,1.95 -0.9,1.45 -0.55,2.95 0.25,1.1 1.05,2 0.8,0.85 1.95,1.15 1.1,0.3 2.25,0 1.15,-0.35 1.9,-1.2 0.8,-0.8 1,-2 0.25,-1.15 -0.15,-2.25 m 2.7,20.6 2.3,-3 1.35,0.35 1.85,0.25 q 1.2,0.2 2.4,0.85 2.95,1.4 4,3.3 0.95,1.6 1.15,5.05 l -0.1,3.2 v 0.15 l -0.9,-1.65 q -2.6,-4 -8.45,-6.65 L 18,8.75 18.5,8.25 M 2.9,23.5 l 7.85,-0.6 0.5,0.65 2.9,3.85 1.65,2 -2.35,0.15 -1.75,-0.2 -2,0.05 -0.15,-0.1 -3.75,-0.2 -7.05,1.55 -7.15,0.8 q -3.2,0.1 -4.65,-1.35 1.85,-3.25 7.6,-5 3.7,-1.05 8.35,-1.6 m -32.45,-1.1 0.05,0.1 q -0.5,-0.25 -1.15,-0.55 l -1.4,-1 q -1.9,-1.9 -1,-5.7 0.95,-4.3 4.2,-7.7 1.65,-1.65 3.3,-2.3 l 1.1,-0.35 1.8,2.3 -0.75,0.65 q -4.35,4.4 -5.85,10.3 -0.6,2.45 -0.3,4.25 m 38.4,-7.55 1.55,-0.65 1.15,-0.05 h 4 q 5.35,0.5 9.15,4.1 1.85,1.75 2.15,3.45 0.4,2 -1.1,3.6 -1.55,1.55 -3.65,1.2 -2.05,-0.35 -4.2,-3 l -1.8,-2 -2.15,-1.5 -0.55,-0.15 -0.1,-0.1 q -0.35,-0.25 -1.75,-0.6 -8.9,-1.65 -16.95,0 -8.35,1.7 -12.05,6.55 l -0.65,0.95 q -0.4,-0.3 -0.95,-0.55 l -2.5,-1.4 -1.35,-1.85 q -0.65,-1.2 -0.7,-2.1 l 0.2,-1.65 q 0.9,-3.85 4.4,-9.1 l 2.35,1.45 4.85,2.85 q 3.25,1.55 7.65,1.8 L 3.9,15.75 8.85,14.85 M 5.65,-0.75 Q 1.85,1.1 -4.5,0.35 L -8.75,-0.4 5.65,-0.75"
         fill="#121212"
         fill-rule="evenodd"
         stroke="none"
         id="path2" />
      <path
         d="m 15.8,-12.35 q 0.4,1.1 0.15,2.25 -0.2,1.2 -1,2 -0.75,0.85 -1.9,1.2 -1.15,0.3 -2.25,0 -1.15,-0.3 -1.95,-1.15 -0.8,-0.9 -1.05,-2 -0.35,-1.5 0.55,-2.95 0.85,-1.5 2.35,-1.95 1.5,-0.4 3,0.35 1.55,0.8 2.1,2.25 m -29.25,14.6 -1.45,-1.4 -0.45,-2.05 q -0.1,-2.55 0.9,-3.35 0.75,-0.55 2.4,-0.45 l 22.6,0.1 1.75,-0.05 q 1,0.15 1.4,1 0.25,0.55 -0.05,1.45 l -0.6,1.65 -1.6,1.75 Q 7.35,4.45 1.95,5.15 -0.25,5.4 -3.8,5.1 l -3.35,-0.35 -3.8,-0.95 -2.5,-1.55 m -1.35,-17.2 2.6,-0.35 q 1.35,0.25 2.25,1.25 0.9,0.95 1.05,2.35 0.15,1.4 -0.5,2.5 -1.05,1.8 -3.1,2.05 -1.95,0.25 -3.45,-1.25 -1.4,-1.5 -1.1,-3.6 0.4,-2.05 2.25,-2.95 M 5.65,-0.75 -8.75,-0.4 -4.5,0.35 Q 1.85,1.1 5.65,-0.75"
         fill="#ffffff"
         fill-rule="evenodd"
         stroke="none"
         id="path3" />
    </g>
    <g
       id="sprite1"
       transform="translate(17.4,15.85)">
      <use
         ffdec:characterId="31"
         height="57.200001"
         transform="matrix(0.5366,0,0,0.5366,-16.6582,-14.546)"
         width="70.75"
         xlink:href="#sprite2"
         id="use3" />
    </g>
    <g
       id="sprite2"
       transform="translate(-8.65,-10.35)">
      <use
         ffdec:characterId="30"
         height="57.200001"
         transform="translate(8.65,10.35)"
         width="70.75"
         xlink:href="#shape1"
         id="use4" />
    </g>
    <g
       id="shape1"
       transform="translate(-8.65,-10.35)">
      <path
         d="m 14.8,41.7 q 0.65,-1.75 2.65,-2.5 1.8,-0.8 3.7,-0.25 1.15,0.45 2.25,1.2 l 0.9,0.4 q 1.65,0.9 2.85,2.5 L 37.8,30.1 q 2.35,-2.8 3.75,-3.95 1.5,-1.15 4.25,-2.4 18.2,-8.85 27.65,-12.6 2.15,-0.8 3.25,-0.8 h 0.8 l 1.9,2.4 -0.2,0.8 q -0.2,1.1 -1.55,3 -5.85,8.25 -18.85,23.8 -1.85,2.35 -3.35,3.5 -1.4,1.15 -4.75,2.75 l -15.15,7.15 q 1.2,1.6 1.75,3.4 l 0.2,1 0.55,2.5 q 0.1,1.95 -1.1,3.55 -1.2,1.65 -3.05,1.9 l -1.3,0.05 q -1.65,0.2 -3.45,-0.65 -1.85,-0.9 -3,-2.6 L 25,60.95 23.8,62.1 q -2.6,2.85 -4.3,3.95 -2.85,1.8 -5.5,1.45 l -1.65,-0.5 -1.2,-0.7 -0.2,-0.2 q -1,-0.85 -1.6,-1.9 L 9.25,64 9.15,63.8 8.75,62.4 q -0.2,-0.8 -0.05,-1.7 0.25,-2.65 2.7,-5.05 1.5,-1.3 4.9,-3.15 L 17.7,51.55 16.05,50 q -1.35,-1.5 -1.8,-3.6 -0.4,-1.85 0.25,-3.45 l 0.3,-1.25"
         fill="#000000"
         fill-opacity="0.372549"
         fill-rule="evenodd"
         stroke="none"
         id="path4" />
    </g>
  </defs>
</svg>
