<?xml version="1.0" encoding="UTF-8" standalone="no"?>
<svg
   ffdec:objectType="frame"
   height="72.362503"
   width="60.579613"
   version="1.1"
   id="svg5"
   xmlns:xlink="http://www.w3.org/1999/xlink"
   xmlns="http://www.w3.org/2000/svg"
   xmlns:svg="http://www.w3.org/2000/svg"
   xmlns:ffdec="https://www.free-decompiler.com/flash">
  <g
     transform="translate(31.601613,34.15)"
     id="g1">
    <use
       ffdec:characterId="17"
       height="119.15"
       id="rarity"
       transform="translate(-58.5,-60.65)"
       width="119.15"
       xlink:href="#sprite0" />
    <use
       ffdec:characterId="174"
       height="72.349998"
       transform="translate(-31.6,-34.15)"
       width="60.599998"
       xlink:href="#shape0"
       id="use1" />
  </g>
  <defs
     id="defs5">
    <g
       id="shape0"
       transform="translate(31.3,36.65)">
      <path
         d="m 13.6,-19.05 q 3.8,1.55 7,4.4 3.1,2.85 5.15,6.5 4.2,7.3 3.4,16 -0.8,9 -7.25,18.45 -2.7,3.85 -4.85,5.5 -4.25,3.15 -11.8,3.8 -5.35,0.45 -8.75,-0.9 -3.45,-1.45 -6.3,-4.95 -2.65,-3.35 -3.1,-6.4 -4.25,0.8 -9.5,-1.7 -3.9,-1.9 -5.8,-4.6 -1.35,-2 -2.15,-5.25 -0.9,-3.65 -0.95,-7.15 -0.05,-4.4 1.45,-8.7 1.45,-4.25 4.2,-7.85 4.1,-5.3 10,-8.35 l -0.55,-1.15 -1.15,-1.85 -1.15,-1.8 q -1.25,-2.35 -0.5,-4.1 0.6,-1.45 3,-2.75 4.9,-2.7 8.45,-2.75 2.35,-0.05 4.4,0.95 2.15,1.1 3.1,3.05 1,-2.75 1.7,-3.6 Q 3,-35.8 5.3,-36.3 l 4.25,-0.35 3.3,0.45 2.65,1.65 q 2.35,2.05 4.05,4.55 l 1.15,2.5 q 0.35,1.5 -0.45,2.6 l -1.05,0.95 -1.25,0.7 q -2.85,1.55 -4.5,4.15 l 0.15,0.05 M 9.25,-31 H 7.5 q -0.95,0.1 -1.4,0.5 -0.5,0.45 -0.8,1.9 l -0.85,3.85 -1.3,4.3 -0.35,0.95 -0.6,1.2 -0.1,0.15 q -0.85,1.05 -1.85,1.1 -1.55,0.15 -2.55,-1.35 l -0.05,-0.05 -0.7,-1.5 -0.4,-1.4 -0.95,-4.15 q -0.4,-1.85 -1.2,-2.55 -0.65,-0.55 -1.6,-0.6 l -1.8,0.3 -3.3,1.45 2.7,4.75 0.05,0.1 0.45,0.65 0.05,0.25 q 0.4,0.85 0.45,1.55 0,1.25 -0.75,2.05 l -0.25,0.3 -0.5,0.3 q -0.35,0.2 -0.75,0.3 l -0.8,0.1 -1.05,-0.15 -0.7,0.5 -3.2,2.45 q -4.65,3.95 -6.85,9.9 -1.15,3.05 -1.45,6.15 -0.3,2.9 0.15,5.8 0.55,3.25 1.9,5 1.45,2 4.5,3.2 2.15,0.9 3.55,0.65 l 2.7,-0.85 2.6,-0.15 q 1.2,0.5 1.75,2.15 l 0.7,3.05 q 0.75,3.2 3.45,5.5 2.6,2.25 5.95,2.8 3.2,0.5 6.5,-0.55 3.2,-1 5.8,-3.25 4.65,-4 7,-11.1 Q 24.4,6.3 22.3,-0.9 21.15,-4.8 18.6,-7.8 15.95,-11 12.4,-12.45 l -1.9,-0.7 Q 9.35,-13.6 8.65,-14.05 7.75,-14.7 7.3,-15.6 v -0.05 Q 6.95,-16.3 6.9,-16.9 l 0.05,-0.6 q 0.2,-0.95 1.05,-1.6 l 0.7,-0.4 q 0.5,-2.2 1.8,-4.15 1.3,-1.95 3.2,-3.15 l 0.95,-0.6 -0.7,-1.1 q -0.9,-1.1 -2.3,-1.8 L 9.25,-31 m -9.3,21.05 q -2.7,1.45 -4.25,4.2 l -0.9,1.5 -0.9,1.3 -0.7,1.8 -1.65,7.65 -0.35,2.8 0.05,1.5 -0.2,1.5 q -0.6,1.4 -2.15,1.5 -1.45,0.1 -2.25,-1.3 -0.45,-0.75 -0.35,-2.3 0.05,-1.9 0.85,-5.5 l 0.2,-0.9 1.3,-4.75 -0.35,-2.3 q 0,-0.9 -0.3,-2.6 l -0.55,-3.3 q 0,-1 0.5,-1.45 l 0.9,-0.3 1,0.25 q 0.75,0.45 1.3,1.55 l 0.9,1.9 0.1,0.2 0.35,-0.35 3.7,-2.85 1.95,-1.15 2.2,0.05 0.4,0.5 -0.1,0.3 -0.5,0.45 -0.2,0.1"
         fill="#000000"
         fill-rule="evenodd"
         stroke="none"
         id="path1" />
      <path
         d="m 4.45,-24.75 0.85,-1.65 2.1,-3.25 1.85,-1.35 2.4,0.7 q 1.4,0.7 2.3,1.8 l -0.25,1.65 v 0.05 q -1.9,1.2 -3.2,3.15 -1.3,1.95 -1.8,4.15 L 8,-19.1 q -0.85,0.65 -1.05,1.6 l -0.05,0.6 q -0.9,0.35 -1.9,0.35 -0.9,0 -1.7,-0.4 L 3.2,-17 q -0.75,-0.45 -1.1,-1.15 l 0.1,-0.15 0.6,-1.2 0.35,-0.95 1.3,-4.3 M -24.9,2.3 q 0.3,-3.1 1.45,-6.15 2.2,-5.95 6.85,-9.9 l 3.2,-2.45 0.7,-0.5 1.05,0.15 0.8,-0.1 q 0.4,-0.1 0.75,-0.3 l 0.5,-0.3 0.25,-0.3 q 0.75,-0.8 0.75,-2.05 -0.05,-0.7 -0.45,-1.55 l -0.05,-0.25 -0.45,-0.65 -0.05,-0.1 -2.7,-4.75 3.3,-1.45 1.8,-0.3 q 0.95,0.05 1.6,0.6 0.8,0.7 1.2,2.55 l 0.95,4.15 0.4,1.4 0.7,1.5 0.05,0.05 -0.25,0.75 q -0.8,2.05 -2.05,2.55 l -1.55,0.15 -1.05,-0.4 0.4,1.85 v 0.05 q 0.2,2.1 -0.5,4.3 l -0.55,1.65 -0.1,0.3 -0.9,-1.9 q -0.55,-1.1 -1.3,-1.55 l -1,-0.25 -0.9,0.3 q -0.5,0.45 -0.5,1.45 l 0.55,3.3 q 0.3,1.7 0.3,2.6 l 0.35,2.3 -1.3,4.75 q -2.45,2.1 -4.55,2.5 l -2.5,0.2 q -1.9,0 -2.8,-0.55 -1.45,-0.85 -2.3,-3.4 L -24.9,2.3 M 0.65,-10.5 q 1.45,-1.1 2.85,-1.9 2,-1.15 3.45,-0.9 l 1.65,0.7 1.65,0.9 2.1,0.7 q 3.4,1.3 4.5,6 Q 18,0.2 15.3,5.75 14.5,7.45 13.5,8.65 L 10.8,11 Q 8.25,12.9 6.25,13.7 3.55,14.85 1,14.4 l -1.35,-0.35 0.2,-0.5 -0.15,-1.05 q -0.3,-0.8 -0.7,-1.1 -0.7,-0.55 -1.6,-0.2 -0.75,0.3 -1,0.85 L -4.9,10.6 Q -6,8.95 -6.25,6.2 L -6.3,2.6 q 0,-3.8 0.7,-5.75 1.15,-3.3 5.55,-6.8 l 0.2,-0.1 0.5,-0.45 m -1.85,6.4 q -0.1,0.95 0.5,1.85 0.55,0.85 1.45,1.35 1.1,0.6 2.15,0.45 Q 3.85,-0.6 5.15,-1.8 L 7.2,-4.2 Q 8.35,-5.8 8.55,-7.1 L 8.3,-8.7 Q 7.95,-9.55 7.25,-9.9 5.85,-10.65 3.6,-9.3 1.65,-8.1 0.05,-6.35 -1.1,-5.15 -1.2,-4.1"
         fill="#deb6b6"
         fill-rule="evenodd"
         stroke="none"
         id="path2" />
      <path
         d="M 4.45,-24.75 5.3,-28.6 q 0.3,-1.45 0.8,-1.9 0.45,-0.4 1.4,-0.5 h 1.75 l -1.85,1.35 -2.1,3.25 -0.85,1.65 m 9.5,-3.75 0.7,1.1 -0.95,0.6 v -0.05 l 0.25,-1.65 M 6.9,-16.9 q 0.05,0.6 0.4,1.25 v 0.05 q 0.45,0.9 1.35,1.55 0.7,0.45 1.85,0.9 l 1.9,0.7 q 3.55,1.45 6.2,4.65 2.55,3 3.7,6.9 2.1,7.2 -0.65,15.45 -2.35,7.1 -7,11.1 -2.6,2.25 -5.8,3.25 -3.3,1.05 -6.5,0.55 Q -1,28.9 -3.6,26.65 -6.3,24.35 -7.05,21.15 L -7.75,18.1 Q -8.3,16.45 -9.5,15.95 l -2.6,0.15 -2.7,0.85 q -1.4,0.25 -3.55,-0.65 -3.05,-1.2 -4.5,-3.2 -1.35,-1.75 -1.9,-5 -0.45,-2.9 -0.15,-5.8 l 0.1,0.25 q 0.85,2.55 2.3,3.4 0.9,0.55 2.8,0.55 l 2.5,-0.2 q 2.1,-0.4 4.55,-2.5 l -0.2,0.9 q -0.8,3.6 -0.85,5.5 -0.1,1.55 0.35,2.3 0.8,1.4 2.25,1.3 1.55,-0.1 2.15,-1.5 l 0.2,-1.5 -0.05,-1.5 0.35,-2.8 1.65,-7.65 0.7,-1.8 0.9,-1.3 0.9,-1.5 q 1.55,-2.75 4.25,-4.2 -4.4,3.5 -5.55,6.8 -0.7,1.95 -0.7,5.75 l 0.05,3.6 Q -6,8.95 -4.9,10.6 l 1.3,1.45 -0.1,0.2 -0.05,0.8 q 0.2,1.2 0.8,1.6 l 1.7,0.05 q 0.6,-0.25 0.9,-0.65 L 1,14.4 q 2.55,0.45 5.25,-0.7 2,-0.8 4.55,-2.7 l 2.7,-2.35 q 1,-1.2 1.8,-2.9 Q 18,0.2 16.85,-5 q -1.1,-4.7 -4.5,-6 l -2.1,-0.7 -1.65,-0.9 -1.65,-0.7 q -1.45,-0.25 -3.45,0.9 -1.4,0.8 -2.85,1.9 l 0.1,-0.3 -0.4,-0.5 -2.2,-0.05 -1.95,1.15 -3.7,2.85 -0.35,0.35 -0.1,-0.2 0.1,-0.3 0.55,-1.65 q 0.7,-2.2 0.5,-4.3 v -0.05 l -0.4,-1.85 1.05,0.4 1.55,-0.15 q 1.25,-0.5 2.05,-2.55 l 0.25,-0.75 q 1,1.5 2.55,1.35 1,-0.05 1.85,-1.1 0.35,0.7 1.1,1.15 l 0.1,0.05 q 0.8,0.4 1.7,0.4 1,0 1.9,-0.35"
         fill="#c3a0a0"
         fill-rule="evenodd"
         stroke="none"
         id="path3" />
      <path
         d="m -0.35,14.05 q -0.3,0.4 -0.9,0.65 l -1.7,-0.05 q -0.6,-0.4 -0.8,-1.6 l 0.05,-0.8 0.1,-0.2 q 0.25,-0.55 1,-0.85 0.9,-0.35 1.6,0.2 0.4,0.3 0.7,1.1 l 0.15,1.05 -0.2,0.5 M -1.2,-4.1 q 0.1,-1.05 1.25,-2.25 1.6,-1.75 3.55,-2.95 2.25,-1.35 3.65,-0.6 0.7,0.35 1.05,1.2 l 0.25,1.6 Q 8.35,-5.8 7.2,-4.2 L 5.15,-1.8 Q 3.85,-0.6 2.9,-0.45 1.85,-0.3 0.75,-0.9 -0.15,-1.4 -0.7,-2.25 -1.3,-3.15 -1.2,-4.1"
         fill="#ffffff"
         fill-rule="evenodd"
         stroke="none"
         id="path4" />
    </g>
    <g
       id="sprite1"
       transform="translate(17.4,15.85)">
      <use
         ffdec:characterId="31"
         height="57.200001"
         transform="matrix(0.5366,0,0,0.5366,-16.6582,-14.546)"
         width="70.75"
         xlink:href="#sprite2"
         id="use4" />
    </g>
    <g
       id="sprite2"
       transform="translate(-8.65,-10.35)">
      <use
         ffdec:characterId="30"
         height="57.200001"
         transform="translate(8.65,10.35)"
         width="70.75"
         xlink:href="#shape1"
         id="use5" />
    </g>
    <g
       id="shape1"
       transform="translate(-8.65,-10.35)">
      <path
         d="m 14.8,41.7 q 0.65,-1.75 2.65,-2.5 1.8,-0.8 3.7,-0.25 1.15,0.45 2.25,1.2 l 0.9,0.4 q 1.65,0.9 2.85,2.5 L 37.8,30.1 q 2.35,-2.8 3.75,-3.95 1.5,-1.15 4.25,-2.4 18.2,-8.85 27.65,-12.6 2.15,-0.8 3.25,-0.8 h 0.8 l 1.9,2.4 -0.2,0.8 q -0.2,1.1 -1.55,3 -5.85,8.25 -18.85,23.8 -1.85,2.35 -3.35,3.5 -1.4,1.15 -4.75,2.75 l -15.15,7.15 q 1.2,1.6 1.75,3.4 l 0.2,1 0.55,2.5 q 0.1,1.95 -1.1,3.55 -1.2,1.65 -3.05,1.9 l -1.3,0.05 q -1.65,0.2 -3.45,-0.65 -1.85,-0.9 -3,-2.6 L 25,60.95 23.8,62.1 q -2.6,2.85 -4.3,3.95 -2.85,1.8 -5.5,1.45 l -1.65,-0.5 -1.2,-0.7 -0.2,-0.2 q -1,-0.85 -1.6,-1.9 L 9.25,64 9.15,63.8 8.75,62.4 q -0.2,-0.8 -0.05,-1.7 0.25,-2.65 2.7,-5.05 1.5,-1.3 4.9,-3.15 L 17.7,51.55 16.05,50 q -1.35,-1.5 -1.8,-3.6 -0.4,-1.85 0.25,-3.45 l 0.3,-1.25"
         fill="#000000"
         fill-opacity="0.372549"
         fill-rule="evenodd"
         stroke="none"
         id="path5" />
    </g>
  </defs>
</svg>
