<?xml version="1.0" encoding="UTF-8" standalone="no"?>
<svg
   ffdec:objectType="frame"
   height="96.853333"
   width="58.695168"
   version="1.1"
   id="svg5"
   xmlns:xlink="http://www.w3.org/1999/xlink"
   xmlns="http://www.w3.org/2000/svg"
   xmlns:svg="http://www.w3.org/2000/svg"
   xmlns:ffdec="https://www.free-decompiler.com/flash">
  <g
     transform="translate(25.514286,50.103333)"
     id="g1">
    <use
       ffdec:characterId="17"
       height="119.15"
       id="rarity"
       transform="translate(-58.5,-60.65)"
       width="119.15"
       xlink:href="#sprite0" />
    <use
       ffdec:characterId="286"
       height="96.949997"
       transform="translate(-25.5,-50.1)"
       width="58.700001"
       xlink:href="#shape0"
       id="use1" />
  </g>
  <defs
     id="defs5">
    <g
       id="shape0"
       transform="translate(25.2,52.6)">
      <path
         d="m -16,-20.6 q 0,-1.65 0.45,-2.45 0.5,-1 2.55,-1.9 l 1.75,-0.7 -0.05,-0.8 0.1,-1.7 q 0.15,-1 0.9,-1.45 l 0.95,-0.4 0.6,-0.2 -1.8,-13.55 q -0.6,-5.4 -0.1,-8 l 0.5,-0.8 q 0.4,-0.2 0.85,0.35 0.6,0.7 0.8,2.5 0.55,4.95 3.35,15.6 l 0.65,2.6 0.75,-0.15 q 0.7,0 1.5,0.45 l 0.8,0.85 0.2,1.05 0.95,-0.25 2.35,-0.45 1.55,-0.15 q 1.15,0.1 2.05,1 0.9,0.9 0.95,2.1 v 0.35 l 0.85,6.2 q 1.05,6.05 3.95,17.55 2.95,11.7 4,17.5 l 1,0.1 3.05,0.25 q 4.45,0.1 8.1,-2.35 0.9,-0.6 1.05,-1.2 0.15,-0.65 -0.5,-1.15 l -1.25,-0.1 -0.6,0.65 -0.5,0.8 q -0.65,0.95 -1.9,0.95 -1.3,0.05 -1.95,-0.9 -0.6,-0.8 -0.45,-2 0.1,-1.1 0.8,-2 1.3,-1.9 3.75,-2.4 2.4,-0.55 4.4,0.6 2,1.1 2.75,3.5 0.75,2.35 -0.2,4.45 -1.3,2.9 -5.6,4.6 -4.5,1.75 -9.3,1.45 l -3.7,-0.15 -3.05,0.5 -4.1,1 0.1,0.6 q 1,7.05 3.45,14.45 l 2.85,-0.65 2.8,0.2 q 0.85,0.5 1.2,1.5 0.3,1.05 -0.15,1.95 -0.5,0.95 -2.15,1.7 l -2.55,1 -2.55,0.55 -5.25,1.6 -2.85,0.2 Q 0.85,43.75 0.5,42.65 0.1,41.45 0.75,40.4 1.2,39.7 2.1,39.25 L 3.85,38.5 4.4,38.1 V 37.25 Q 3.8,35.2 3.35,31.8 L 2.55,26.35 1.85,22.4 0.4,22.7 q -6.15,1.45 -9.1,3.4 l -2.25,1.65 -2.35,1.5 q -2.1,1 -4.55,0.7 -2.4,-0.25 -4.4,-1.6 -1.8,-1.2 -2.45,-2.65 -0.6,-1.25 -0.5,-3.05 0.2,-2.8 2.05,-5.15 1.85,-2.3 4.55,-3.15 l 2.65,-0.15 q 1.5,0.35 1.9,1.7 0.15,0.65 -0.15,1.3 l -0.95,0.85 -1.45,0.1 q -0.65,0.05 -1.4,0.65 -1.55,1.15 -2.1,3.2 -0.2,0.8 0,1.35 0.25,0.65 1.1,1.1 1.2,0.6 2.6,0.35 1.05,-0.15 2.2,-0.95 l 2,-1.45 q 1.75,-1.3 4.1,-2.3 L -8.15,19.95 -9.7,12.6 -11.05,5.2 q -0.9,-4.3 -3.1,-12.8 -1.75,-7.6 -1.85,-13 m 17.6,-3.25 -0.15,-0.75 -0.6,0.15 -2.85,0.75 -5.15,1.65 -2.75,1.05 -0.85,0.55 q -0.3,0.4 -0.2,1.3 l 0.5,3.95 0.9,5.15 2.15,8.95 1,4.2 1.1,-0.5 h 0.05 L -4.5,2.3 0.4,0.25 0.55,0.15 2.7,-0.8 4.5,-1.3 6.05,-1.75 6.3,-1.8 6.05,-2.95 4.8,-8.15 q -2.05,-8.7 -3.2,-15.7 M -3.5,17.8 0.9,16.85 0.55,14.35 q -0.3,-2.4 -1.7,-7.1 l -0.15,-0.7 -0.8,0.2 -2.5,1 -0.75,0.2 q 1,4.9 1.85,9.85 M 10.3,14.2 8.75,8.1 7.55,3.15 6.7,3.3 4.7,4 3.15,4.75 v 0.1 l 1.45,5.3 0.6,3.3 0.35,2.2 4.75,-1.45"
         fill="#000000"
         fill-rule="evenodd"
         stroke="none"
         id="path1" />
      <path
         d="m -2,-23.7 -0.4,0.75 -0.7,0.65 -0.65,1.05 -0.35,1.05 q -0.1,1.3 0.75,2.15 l 0.75,0.55 0.85,0.45 q 1.15,0.65 2,1.85 1.15,1.6 1.65,4.15 0.55,2.8 -0.15,4.7 l -0.6,1.3 -0.65,1.3 q -0.75,1.6 -0.5,2.8 L 0.4,0.25 -4.5,2.3 Q -5.15,1.35 -5.35,0 q -0.4,-2.95 1,-5.5 l 1.1,-1.85 0.2,-0.55 q 0.3,-1.1 0.1,-2.25 Q -3.1,-11.2 -3.6,-12 L -4.15,-12.7 -6,-14.3 q -1.95,-1.95 -1.85,-4.75 0.05,-1.6 0.7,-3 L -2,-23.7"
         fill="#c5bdbd"
         fill-rule="evenodd"
         stroke="none"
         id="path2" />
      <path
         d="m 0.85,-24.45 0.75,0.6 q 1.15,7 3.2,15.7 l 1.25,5.2 v 0.2 1 L 4.5,-1.3 2.7,-0.8 0.55,0.15 0.4,0.25 0,-0.95 q -0.25,-1.2 0.5,-2.8 l 0.65,-1.3 0.6,-1.3 q 0.7,-1.9 0.15,-4.7 -0.5,-2.55 -1.65,-4.15 -0.85,-1.2 -2,-1.85 L -2.6,-17.5 -3.35,-18.05 Q -4.2,-18.9 -4.1,-20.2 l 0.35,-1.05 0.65,-1.05 0.7,-0.65 0.4,-0.75 2.85,-0.75 m -11.3,9.25 -0.5,-3.95 q -0.1,-0.9 0.2,-1.3 l 0.85,-0.55 2.75,-1.05 q -0.65,1.4 -0.7,3 -0.1,2.8 1.85,4.75 l 1.85,1.6 0.55,0.7 q 0.5,0.8 0.65,1.85 0.2,1.15 -0.1,2.25 l -0.2,0.55 -1.1,1.85 q -1.4,2.55 -1,5.5 0.2,1.35 0.85,2.3 L -5.25,2.6 -5.9,0.95 -10.45,-15.2"
         fill="#eaeaea"
         fill-rule="evenodd"
         stroke="none"
         id="path3" />
      <path
         d="M 10.3,14.2 5.55,15.65 5.2,13.45 4.6,10.15 3.15,4.85 V 4.75 L 4.7,4 6.7,3.3 7.55,3.15 8.75,8.1 10.3,14.2 M -3.5,17.8 Q -4.35,12.85 -5.35,7.95 l 0.75,-0.2 2.5,-1 0.8,-0.2 0.15,0.7 q 1.4,4.7 1.7,7.1 l 0.35,2.5 -4.4,0.95"
         fill="#ffffff"
         fill-opacity="0"
         fill-rule="evenodd"
         stroke="none"
         id="path4" />
    </g>
    <g
       id="sprite1"
       transform="translate(17.4,15.85)">
      <use
         ffdec:characterId="31"
         height="57.200001"
         transform="matrix(0.5366,0,0,0.5366,-16.6582,-14.546)"
         width="70.75"
         xlink:href="#sprite2"
         id="use4" />
    </g>
    <g
       id="sprite2"
       transform="translate(-8.65,-10.35)">
      <use
         ffdec:characterId="30"
         height="57.200001"
         transform="translate(8.65,10.35)"
         width="70.75"
         xlink:href="#shape1"
         id="use5" />
    </g>
    <g
       id="shape1"
       transform="translate(-8.65,-10.35)">
      <path
         d="m 14.8,41.7 q 0.65,-1.75 2.65,-2.5 1.8,-0.8 3.7,-0.25 1.15,0.45 2.25,1.2 l 0.9,0.4 q 1.65,0.9 2.85,2.5 L 37.8,30.1 q 2.35,-2.8 3.75,-3.95 1.5,-1.15 4.25,-2.4 18.2,-8.85 27.65,-12.6 2.15,-0.8 3.25,-0.8 h 0.8 l 1.9,2.4 -0.2,0.8 q -0.2,1.1 -1.55,3 -5.85,8.25 -18.85,23.8 -1.85,2.35 -3.35,3.5 -1.4,1.15 -4.75,2.75 l -15.15,7.15 q 1.2,1.6 1.75,3.4 l 0.2,1 0.55,2.5 q 0.1,1.95 -1.1,3.55 -1.2,1.65 -3.05,1.9 l -1.3,0.05 q -1.65,0.2 -3.45,-0.65 -1.85,-0.9 -3,-2.6 L 25,60.95 23.8,62.1 q -2.6,2.85 -4.3,3.95 -2.85,1.8 -5.5,1.45 l -1.65,-0.5 -1.2,-0.7 -0.2,-0.2 q -1,-0.85 -1.6,-1.9 L 9.25,64 9.15,63.8 8.75,62.4 q -0.2,-0.8 -0.05,-1.7 0.25,-2.65 2.7,-5.05 1.5,-1.3 4.9,-3.15 L 17.7,51.55 16.05,50 q -1.35,-1.5 -1.8,-3.6 -0.4,-1.85 0.25,-3.45 l 0.3,-1.25"
         fill="#000000"
         fill-opacity="0.372549"
         fill-rule="evenodd"
         stroke="none"
         id="path5" />
    </g>
  </defs>
</svg>
