<?xml version="1.0" encoding="UTF-8" standalone="no"?>
<svg
   ffdec:objectType="frame"
   height="76.087502"
   width="73.518684"
   version="1.1"
   id="svg5"
   sodipodi:docname="ITEM Mage's Robe.svg"
   xmlns:inkscape="http://www.inkscape.org/namespaces/inkscape"
   xmlns:sodipodi="http://sodipodi.sourceforge.net/DTD/sodipodi-0.dtd"
   xmlns:xlink="http://www.w3.org/1999/xlink"
   xmlns="http://www.w3.org/2000/svg"
   xmlns:svg="http://www.w3.org/2000/svg"
   xmlns:ffdec="https://www.free-decompiler.com/flash">
  <sodipodi:namedview
     id="namedview5"
     pagecolor="#ffffff"
     bordercolor="#000000"
     borderopacity="0.25"
     inkscape:showpageshadow="2"
     inkscape:pageopacity="0.0"
     inkscape:pagecheckerboard="0"
     inkscape:deskcolor="#d1d1d1"
     fit-margin-top="5"
     fit-margin-left="5"
     fit-margin-right="5"
     fit-margin-bottom="5" />
  <g
     transform="translate(38.761538,34.7375)"
     id="g1">
    <use
       ffdec:characterId="17"
       height="119.15"
       id="rarity"
       transform="translate(-58.5,-60.65)"
       width="119.15"
       xlink:href="#sprite0" />
    <use
       ffdec:characterId="1013"
       height="76.25"
       transform="translate(-38.75,-34.75)"
       width="73.5"
       xlink:href="#shape0"
       id="use1" />
  </g>
  <defs
     id="defs5">
    <g
       id="shape0"
       transform="translate(85.55,36.1)">
      <path
         d="m -81.5,-16.9 q 0.6,-1.2 2.2,-2.65 5.85,-5.3 15.15,-8.95 5.85,-2.25 17,-4.85 8.4,-2 13.55,-2.55 7.6,-0.75 12.1,1.5 1.9,0.9 4.25,3 3.95,3.45 4.35,6.7 0.2,1.35 -0.1,2.8 l 0.6,0.8 q 0.5,0.9 0.3,2.15 -0.15,1.1 -0.75,2.45 l 0.2,2.25 q -0.2,10.5 -5.65,24.65 -1.3,3.15 -2.35,4.65 l -2.55,2.75 -2.7,2.6 -2.15,2.4 q -1.3,1.25 -2.65,1.5 l -1.65,0.15 -1.65,0.2 q -1.6,0.55 -3.05,3.45 -1.65,3 -3.1,4.25 -1.05,0.9 -2.8,1.65 l -3.1,1.15 -6.25,2.7 q -3.8,1.6 -6.45,2.15 l -3.45,-0.25 q -1.35,-0.65 -2.4,-3.45 -3.55,-9.15 -8.55,-17.35 -1.25,-2.2 -1.25,-3.3 l 0.1,-0.75 -1.6,-0.3 Q -78.65,14.05 -80.25,12.95 -81.55,12 -83.1,9.45 -84.8,6.8 -85.25,5 -85.7,3.4 -85.5,0.55 L -85.1,-5 q 0.5,-6.35 1.9,-9.35 0.65,-1.35 1.45,-1.95 l 0.25,-0.6 m 36.55,-11 -3.15,0.8 q -9.25,2.6 -13.85,4.45 l -1.6,0.65 -4.05,1.95 q -3.85,2.05 -6.8,4.5 -2.2,1.9 -1.55,3.4 0.4,0.85 2.05,1.45 l 0.25,0.1 0.2,0.05 q 4.25,1.35 9.8,1.8 l 6.1,0.3 0.4,-0.5 0.15,-0.15 0.15,-0.4 q 0.5,-0.95 2.2,-1.85 l 3.4,-1.7 5.75,-2.4 q 8.95,-3.3 19,-4.3 l -5.2,-0.75 q -11.75,-0.25 -22.4,3.8 l -1.15,0.25 q -0.7,-0.1 -0.8,-0.75 0,-0.45 0.7,-0.95 2.25,-1.6 4.6,-2.8 3.8,-1.95 8,-2.95 l 1.35,-0.3 1.6,-0.3 4.95,-0.55 4.8,-0.2 3.65,0.3 1.75,0.4 q 3.1,0.85 5.15,2.75 0.55,-0.95 0.55,-1.5 0.05,-0.5 -0.2,-1.05 l -0.6,-1.05 q -1.95,-2.65 -5.4,-3.9 l -1.75,-0.5 -0.45,-0.1 -7.05,-0.2 -1,0.1 -9.55,2.1 m -30.3,23.2 q -1.4,-0.45 -2.7,-1.05 l -1.8,-0.95 q 0.05,2.7 -0.05,3.45 l -0.35,2.5 -0.1,2.55 0.05,0.1 0.05,0.45 q 0.3,1.55 1.6,3.6 0.95,1.6 2.05,2.35 1.05,0.7 3.25,1 l 7.55,0.95 3.35,0.35 1.7,0.15 4.05,0.3 1.25,0.1 q 4.4,0.3 6.25,0 2.55,-0.35 6.2,-2 4.75,-2.2 9.2,-4.9 L -32.05,3.1 -33,3.6 q -9.15,4.6 -19.6,3.8 -1.55,-0.1 -2.3,-0.6 L -55.15,6.6 -55.4,6.25 -55.45,5.8 -54.85,5.35 -52.3,5 q 9.25,-0.3 17.65,-4.85 6.75,-3.7 11.5,-9.35 l 0.35,-0.65 q -4.95,3.3 -11.8,5.2 l -6.3,1.35 -4.55,0.6 -0.3,0.05 -5.85,0.35 q -3.2,0.1 -6.7,0.05 l -7.15,-0.4 -1.75,-0.2 h -0.2 l -0.95,-0.15 -2.95,-0.55 -0.65,-0.15 -3.3,-1 m 29.95,-4.1 5.85,-1.15 q 7.6,-1.75 11.4,-3.85 1.85,-1 3.45,-2.25 -13.8,2.2 -24.3,7.55 l 3.6,-0.3 m 23,13.45 1.95,-6.2 0.3,-0.95 0.05,-0.3 -0.15,0.35 Q -22,0.75 -23.75,3 l -1.45,1.7 -3.45,3.1 -0.95,0.7 -3.75,2.35 q -3.2,1.75 -9.4,4.35 -3.65,1.5 -5.45,1.8 -1.8,0.3 -5.35,0 l -15.1,-1.3 -1,-0.1 1.1,1.55 1.1,1.65 0.9,1.3 1,1.5 0.05,0.1 1.3,2.15 0.1,0.2 0.9,1.8 1.8,4 1.4,3.2 q 0.4,1 0.9,1.15 l 1.2,-0.15 12.2,-5.25 1.15,-0.6 0.1,-0.25 2.3,-4.2 0.25,-0.4 0.2,-0.4 1.65,-2.7 0.85,-1.2 0.15,-0.15 1.15,-1.5 1.5,-1.75 1.4,-1.05 2.2,-2.1 q 1.3,-1.25 2.35,-1.8 l 0.25,-0.1 0.15,-0.1 q 1,-0.45 1.45,0.2 l 0.1,0.2 q 0.2,0.5 -0.25,1.4 -0.95,1.7 -2.25,2.9 l -2.45,2.25 -1.1,1.4 0.7,-0.05 0.5,-0.05 1,-0.2 q 0.7,-0.3 1.4,-1 l 1.2,-1.35 3.45,-3.4 1.3,-1.8 1,-2 0.85,-2 0.85,-2.35"
         fill="#000000"
         fill-rule="evenodd"
         stroke="none"
         id="path1" />
      <path
         d="m -42.75,-23.9 q -1.1,-0.1 -1.45,-1.1 l -0.25,-1.25 -0.25,-0.7 -0.25,-0.75 v -0.2 l 9.55,-2.1 1,-0.1 -0.05,0.4 -0.15,1.2 -0.1,1.4 q -0.1,0.75 -0.5,1.2 -1,1.05 -3.15,0.15 l -1.55,-0.2 -0.5,0.45 -0.35,0.6 -0.65,0.7 -1.35,0.3 m -20.8,1.9 0.7,0.75 0.6,0.45 0.65,-0.15 0.65,-0.35 1.25,0.1 q 0.6,0.3 0.8,1 0.2,0.6 -0.1,1.3 -0.25,0.6 -0.8,1 l 0.15,0.15 q 0.85,1 0.85,1.85 0,1.4 -1.55,1.95 l -2.6,0.25 q -0.5,1.4 -0.9,1.9 -0.9,1 -1.85,0.6 -1.15,-0.35 -1.35,-2.65 -0.95,0.3 -1.6,-0.4 l -0.05,-0.05 q -0.75,-0.75 -0.4,-1.7 0.35,-0.95 1.9,-1.75 l -0.4,-2.3 4.05,-1.95 m 22.65,18.7 q 0.4,1.6 0.3,2.45 -0.1,0.7 -0.5,1.3 -0.45,0.6 -1.1,0.75 -1.3,0.35 -2.55,-1.1 -0.7,-0.85 -0.9,-1.75 l -0.1,-0.65 -0.5,0.75 -0.75,1.3 -1.4,0.95 -1.6,-0.15 q -0.7,-0.4 -1.15,-1.35 l -0.45,-1.5 5.85,-0.35 0.3,-0.05 4.55,-0.6 m -24.55,0.65 v 0.25 q 0,0.75 -0.4,1.3 -0.45,0.6 -1.2,0.85 0.25,1.45 0.15,2.25 -0.1,0.75 -0.45,1.25 -0.65,0.9 -1.75,0.9 -1.15,-0.1 -1.65,-1.05 -0.3,-0.55 -0.4,-1.7 V 1.1 l -1.6,0.95 -1.45,0.4 q -0.9,0 -1.25,-0.75 -0.45,-0.85 0.75,-2.3 l 1.05,-1.2 -0.2,-0.1 q -0.9,-0.5 -1.3,-0.95 -0.55,-0.75 -0.35,-1.45 l 0.25,-0.4 3.3,1 0.65,0.15 2.95,0.55 0.95,0.15 h 0.2 l 1.75,0.2 m 14.2,-10.4 0.05,-0.6 0.45,-1.4 1.15,-1.75 0.9,-0.5 1.05,0.1 0.9,0.65 q 0.95,0.6 1.15,0.9 l 0.1,0.2 -5.75,2.4 m 26.1,-16.25 0.7,1.15 q 0.6,1.45 0.25,2.75 l -0.45,0.85 -1.75,-0.4 -3.65,-0.3 0.05,-0.75 0.85,-2.45 q 0.7,-1.2 1.8,-1.45 l 0.45,0.1 1.75,0.5 m 1.4,32.3 0.2,0.1 q 0.45,0.2 0.85,0.75 l 0.4,0.8 L -23.15,7 -24,9 h -1.1 l -3.15,-0.3 h -0.1 l -0.7,-0.1 -0.55,-0.1 0.95,-0.7 3.45,-3.1 1.45,-1.7 m -12.65,12.65 -1.5,1.75 -1.15,1.5 -0.2,0.05 0.05,0.1 -0.85,1.2 -1.65,2.7 -0.2,0.4 q -0.75,-0.7 -1.2,-2.05 l -0.35,-2.1 0.2,-1.85 q 0.2,-1.2 0.9,-1.7 0.5,-0.35 1.8,-0.45 l 3.95,0.35 0.2,0.1 m -27.7,8.4 -0.1,-0.2 -1.3,-2.15 0.05,-0.1 h -0.1 l -1,-1.5 -0.9,-1.3 -1.1,-1.65 0.55,-0.1 1.2,0.1 1.5,-0.05 1.5,-0.1 q 1.95,0.1 2.5,1.35 0.35,0.8 0,1.85 l -0.2,0.5 -0.55,1.2 -0.7,1.6 q -0.4,0.45 -1.05,0.5 l -0.3,0.05 m -1.6,-13.8 -0.25,-0.55 q -0.3,-1 0.2,-1.9 0.55,-0.9 1.55,-1.15 l 1,0.05 q 0.45,0.2 0.95,0.75 l 0.95,1.4 1.45,-1.45 q 1.05,-0.75 2.05,-0.7 1.25,0.1 1.75,1.2 0.2,0.55 0,1.4 L -56.6,11 v 0.05 l -4.05,-0.3 -1.7,-0.15 -3.35,-0.35 m 14.15,10.75 1.15,0.4 q 0.6,0.25 0.9,0.95 0.3,0.7 0.1,1.35 l -0.55,1.15 q -0.2,0.65 0,2.05 0.25,1.35 -0.05,2 -0.6,1.2 -2.3,1.2 -0.9,-0.05 -2.6,-0.85 -0.45,0.65 -1.3,0.8 -0.8,0.15 -1.45,-0.3 -0.65,-0.45 -0.75,-1.3 -0.15,-0.8 0.3,-1.45 -1.15,-0.9 -1.5,-1.95 -0.15,-0.6 0.05,-1.25 l 0.75,-0.95 0.9,-0.25 0.9,-0.3 q 0.5,-0.25 0.9,-1.2 l 0.15,-0.35 q 0.5,-1.25 1.05,-1.6 0.85,-0.5 1.65,0 l 0.8,0.9 0.75,0.9 0.15,0.05"
         fill="#ffffff"
         fill-rule="evenodd"
         stroke="none"
         id="path2" />
      <path
         d="m -44.95,-27.9 v 0.2 l 0.25,0.75 0.25,0.7 0.25,1.25 q 0.35,1 1.45,1.1 -4.2,1 -8,2.95 l -8.9,3.2 -0.15,-0.15 q 0.55,-0.4 0.8,-1 0.3,-0.7 0.1,-1.3 -0.2,-0.7 -0.8,-1 l -1.25,-0.1 -0.65,0.35 -0.65,0.15 -0.6,-0.45 -0.7,-0.75 1.6,-0.65 q 4.6,-1.85 13.85,-4.45 l 3.15,-0.8 m 3.55,3.7 0.65,-0.7 0.35,-0.6 0.5,-0.45 1.55,0.2 q 2.15,0.9 3.15,-0.15 0.4,-0.45 0.5,-1.2 l 0.1,-1.4 0.15,-1.2 0.05,-0.4 7.05,0.2 q -1.1,0.25 -1.8,1.45 L -30,-26 l -0.05,0.75 -4.8,0.2 -4.95,0.55 -1.6,0.3 m -26.2,4.15 0.4,2.3 q -1.55,0.8 -1.9,1.75 -0.35,0.95 0.4,1.7 l 0.05,0.05 -1.6,0.6 q -2.65,0.95 -3.1,2.4 l -0.1,0.7 -0.2,-0.05 -0.25,-0.1 q -1.65,-0.6 -2.05,-1.45 -0.65,-1.5 1.55,-3.4 2.95,-2.45 6.8,-4.5 m -12.6,21.95 -0.05,-0.1 0.1,-2.55 0.35,-2.5 q 0.1,-0.75 0.05,-3.45 l 1.8,0.95 q 1.3,0.6 2.7,1.05 l -0.25,0.4 q -0.2,0.7 0.35,1.45 0.4,0.45 1.3,0.95 l 0.2,0.1 -1.05,1.2 q -1.2,1.45 -0.75,2.3 0.35,0.75 1.25,0.75 l 1.45,-0.4 1.6,-0.95 v 0.3 q 0.1,1.15 0.4,1.7 0.5,0.95 1.65,1.05 1.1,0 1.75,-0.9 0.35,-0.5 0.45,-1.25 0.1,-0.8 -0.15,-2.25 0.75,-0.25 1.2,-0.85 0.4,-0.55 0.4,-1.3 v -0.25 l 7.15,0.4 q 3.5,0.05 6.7,-0.05 l 0.45,1.5 q 0.45,0.95 1.15,1.35 l 1.6,0.15 1.4,-0.95 0.75,-1.3 0.5,-0.75 0.1,0.65 q 0.2,0.9 0.9,1.75 1.25,1.45 2.55,1.1 0.65,-0.15 1.1,-0.75 0.4,-0.6 0.5,-1.3 0.1,-0.85 -0.3,-2.45 l 6.3,-1.35 q 6.85,-1.9 11.8,-5.2 l -0.35,0.65 Q -27.9,-3.55 -34.65,0.15 -43.05,4.7 -52.3,5 l -2.55,0.35 -0.6,0.45 0.05,0.45 L -60.95,6 -72,4.45 -76.7,3.2 -78.05,2.6 -79.4,2.05 -80.2,1.9 m 55.55,-26.45 0.45,-0.85 q 0.35,-1.3 -0.25,-2.75 l -0.7,-1.15 q 3.45,1.25 5.4,3.9 l 0.6,1.05 q 0.25,0.55 0.2,1.05 0,0.55 -0.55,1.5 -2.05,-1.9 -5.15,-2.75 m -17.25,47.9 -0.25,0.4 -2.3,4.2 -0.1,0.25 -1.15,0.6 -12.2,5.25 -1.2,0.15 q -0.5,-0.15 -0.9,-1.15 l -1.4,-3.2 -1.8,-4 -0.9,-1.8 0.3,-0.05 q 0.65,-0.05 1.05,-0.5 l 0.7,-1.6 0.55,-1.2 5.25,0.4 h 0.15 q -0.4,0.95 -0.9,1.2 l -0.9,0.3 -0.9,0.25 -0.75,0.95 q -0.2,0.65 -0.05,1.25 0.35,1.05 1.5,1.95 -0.45,0.65 -0.3,1.45 0.1,0.85 0.75,1.3 0.65,0.45 1.45,0.3 0.85,-0.15 1.3,-0.8 1.7,0.8 2.6,0.85 1.7,0 2.3,-1.2 0.3,-0.65 0.05,-2 -0.2,-1.4 0,-2.05 l 0.55,-1.15 q 0.2,-0.65 -0.1,-1.35 -0.3,-0.7 -0.9,-0.95 l -1.15,-0.4 1.7,-0.2 q 3.25,-0.45 6.4,-1.6 l 0.35,2.1 q 0.45,1.35 1.2,2.05"
         fill="#8693aa"
         fill-rule="evenodd"
         stroke="none"
         id="path3" />
      <path
         d="m -59.65,-17.75 8.9,-3.2 q -2.35,1.2 -4.6,2.8 -0.7,0.5 -0.7,0.95 0.1,0.65 0.8,0.75 l 1.15,-0.25 q 10.65,-4.05 22.4,-3.8 l 5.2,0.75 q -10.05,1 -19,4.3 l -0.1,-0.2 q -0.2,-0.3 -1.15,-0.9 l -0.9,-0.65 -1.05,-0.1 -0.9,0.5 -1.15,1.75 -0.45,1.4 -0.05,0.6 -3.4,1.7 q -1.7,0.9 -2.2,1.85 l -0.15,0.4 -0.15,0.15 -0.4,0.5 -6.1,-0.3 q -5.55,-0.45 -9.8,-1.8 l 0.1,-0.7 q 0.45,-1.45 3.1,-2.4 l 1.6,-0.6 q 0.65,0.7 1.6,0.4 0.2,2.3 1.35,2.65 0.95,0.4 1.85,-0.6 0.4,-0.5 0.9,-1.9 l 2.6,-0.25 q 1.55,-0.55 1.55,-1.95 0,-0.85 -0.85,-1.85 M -80.2,1.9 l 0.8,0.15 1.35,0.55 1.35,0.6 4.7,1.25 11.05,1.55 5.55,0.25 0.25,0.35 0.25,0.2 q 0.75,0.5 2.3,0.6 10.45,0.8 19.6,-3.8 l 0.95,-0.5 -1.65,1.15 q -4.45,2.7 -9.2,4.9 -3.65,1.65 -6.2,2 -1.85,0.3 -6.25,0 l -1.25,-0.1 V 11 l 0.55,-1.7 q 0.2,-0.85 0,-1.4 -0.5,-1.1 -1.75,-1.2 -1,-0.05 -2.05,0.7 l -1.45,1.45 -0.95,-1.4 Q -62.75,6.9 -63.2,6.7 l -1,-0.05 q -1,0.25 -1.55,1.15 -0.5,0.9 -0.2,1.9 l 0.25,0.55 -7.55,-0.95 q -2.2,-0.3 -3.25,-1 -1.1,-0.75 -2.05,-2.35 -1.3,-2.05 -1.6,-3.6 L -80.2,1.9 M -23.75,3 q 1.75,-2.25 3.6,-5.45 l 0.15,-0.35 -0.05,0.3 -0.3,0.95 -1.95,6.2 -0.4,-0.8 Q -23.1,3.3 -23.55,3.1 L -23.75,3 m -0.25,6 -1,2 -1.3,1.8 -3.45,3.4 -1.2,1.35 q -0.7,0.7 -1.4,1 l -1,0.2 -0.5,0.05 -0.7,0.05 1.1,-1.4 2.45,-2.25 q 1.3,-1.2 2.25,-2.9 0.45,-0.9 0.25,-1.4 l -0.1,-0.2 q -0.45,-0.65 -1.45,-0.2 l -0.15,0.1 -0.25,0.1 q -1.05,0.55 -2.35,1.8 l -2.2,2.1 -1.4,1.05 -0.2,-0.1 -3.95,-0.35 q -1.3,0.1 -1.8,0.45 -0.7,0.5 -0.9,1.7 l -0.2,1.85 q -3.15,1.15 -6.4,1.6 l -1.7,0.2 -0.15,-0.05 -0.75,-0.9 -0.8,-0.9 q -0.8,-0.5 -1.65,0 -0.55,0.35 -1.05,1.6 l -0.15,0.35 h -0.15 l -5.25,-0.4 0.2,-0.5 q 0.35,-1.05 0,-1.85 -0.55,-1.25 -2.5,-1.35 l -1.5,0.1 -1.5,0.05 -1.2,-0.1 -0.55,0.1 -1.1,-1.55 1,0.1 15.1,1.3 q 3.55,0.3 5.35,0 1.8,-0.3 5.45,-1.8 6.2,-2.6 9.4,-4.35 l 3.75,-2.35 0.55,0.1 0.7,0.1 h 0.1 L -25.1,9 h 1.1"
         fill="#666e7d"
         fill-rule="evenodd"
         stroke="none"
         id="path4" />
    </g>
    <g
       id="sprite1"
       transform="translate(17.4,15.85)">
      <use
         ffdec:characterId="31"
         height="57.200001"
         transform="matrix(0.5366,0,0,0.5366,-16.6582,-14.546)"
         width="70.75"
         xlink:href="#sprite2"
         id="use4" />
    </g>
    <g
       id="sprite2"
       transform="translate(-8.65,-10.35)">
      <use
         ffdec:characterId="30"
         height="57.200001"
         transform="translate(8.65,10.35)"
         width="70.75"
         xlink:href="#shape1"
         id="use5" />
    </g>
    <g
       id="shape1"
       transform="translate(-8.65,-10.35)">
      <path
         d="m 14.8,41.7 q 0.65,-1.75 2.65,-2.5 1.8,-0.8 3.7,-0.25 1.15,0.45 2.25,1.2 l 0.9,0.4 q 1.65,0.9 2.85,2.5 L 37.8,30.1 q 2.35,-2.8 3.75,-3.95 1.5,-1.15 4.25,-2.4 18.2,-8.85 27.65,-12.6 2.15,-0.8 3.25,-0.8 h 0.8 l 1.9,2.4 -0.2,0.8 q -0.2,1.1 -1.55,3 -5.85,8.25 -18.85,23.8 -1.85,2.35 -3.35,3.5 -1.4,1.15 -4.75,2.75 l -15.15,7.15 q 1.2,1.6 1.75,3.4 l 0.2,1 0.55,2.5 q 0.1,1.95 -1.1,3.55 -1.2,1.65 -3.05,1.9 l -1.3,0.05 q -1.65,0.2 -3.45,-0.65 -1.85,-0.9 -3,-2.6 L 25,60.95 23.8,62.1 q -2.6,2.85 -4.3,3.95 -2.85,1.8 -5.5,1.45 l -1.65,-0.5 -1.2,-0.7 -0.2,-0.2 q -1,-0.85 -1.6,-1.9 L 9.25,64 9.15,63.8 8.75,62.4 q -0.2,-0.8 -0.05,-1.7 0.25,-2.65 2.7,-5.05 1.5,-1.3 4.9,-3.15 L 17.7,51.55 16.05,50 q -1.35,-1.5 -1.8,-3.6 -0.4,-1.85 0.25,-3.45 l 0.3,-1.25"
         fill="#000000"
         fill-opacity="0.372549"
         fill-rule="evenodd"
         stroke="none"
         id="path5" />
    </g>
  </defs>
</svg>
