<?xml version="1.0" encoding="UTF-8" standalone="no"?>
<svg
   ffdec:objectType="frame"
   height="84.551514"
   width="60.483334"
   version="1.1"
   id="svg5"
   sodipodi:docname="ITEM Broken Mirror (1).svg"
   xmlns:inkscape="http://www.inkscape.org/namespaces/inkscape"
   xmlns:sodipodi="http://sodipodi.sourceforge.net/DTD/sodipodi-0.dtd"
   xmlns:xlink="http://www.w3.org/1999/xlink"
   xmlns="http://www.w3.org/2000/svg"
   xmlns:svg="http://www.w3.org/2000/svg"
   xmlns:ffdec="https://www.free-decompiler.com/flash">
  <sodipodi:namedview
     id="namedview1"
     pagecolor="#ffffff"
     bordercolor="#000000"
     borderopacity="0.25"
     inkscape:showpageshadow="2"
     inkscape:pageopacity="0.0"
     inkscape:pagecheckerboard="0"
     inkscape:deskcolor="#d1d1d1"
     fit-margin-top="5"
     fit-margin-left="5"
     fit-margin-right="5"
     fit-margin-bottom="5" />
  <g
     transform="translate(33.133333,43.051515)"
     id="g1">
    <use
       ffdec:characterId="17"
       height="119.15"
       id="rarity"
       transform="translate(-58.5,-60.65)"
       width="119.15"
       xlink:href="#sprite0" />
    <use
       ffdec:characterId="1258"
       height="84.550003"
       transform="translate(-33.15,-43.05)"
       width="60.5"
       xlink:href="#shape0"
       id="use1" />
  </g>
  <defs
     id="defs5">
    <g
       id="shape0"
       transform="translate(31.85,41.15)">
      <path
         d="m -20,15.45 -4.25,-2.95 -2.7,-3.15 -2.35,-3.5 q -1.3,-2.35 -2,-6.25 -1.2,-7.15 0.3,-14.15 1.55,-7.25 5.7,-12.85 1.95,-2.6 5.25,-5.85 2,-2 3.4,-2.95 1.6,-1.1 3.9,-2 l 4.2,-1.4 q 5.5,-1.6 8.35,-1.55 l 4.65,0.6 6.3,1.4 q 3.4,0.95 5.85,2.35 2.5,1.4 4.65,3.75 2.7,3 5.05,8.55 1.4,3.2 1.95,6.1 0.4,2.45 0.4,5.55 0,7.75 -1.25,12.65 -1.65,6.8 -5.9,11.1 l -4.45,3.5 -3.25,1.9 0.15,0.6 q 1.25,5.35 1.15,10.75 -0.1,3.95 -1,6.8 l -1.45,3.45 -1.8,2.55 q -2.65,2.95 -7.1,2.95 -3.1,-0.05 -5.8,-1.85 -2.7,-1.8 -3.9,-4.65 -1.45,-3.5 -0.7,-10 L -5.6,19.95 Q -11.8,20 -20,15.45 m 34.15,-47.65 -2.5,-1.1 -6.15,-1.5 -7.4,-0.55 q -1.9,0.2 -5.6,1.4 -2.95,0.95 -4.7,1.85 -2.45,1.35 -5.6,4.8 -3.6,3.95 -5.25,7.2 -1.1,2.2 -2.4,6.9 -0.7,2.6 -0.8,3.9 l 0.1,2.9 0.2,1.85 0.55,3.55 0.75,3.15 q 1.15,3.1 4.3,5.95 3,2.75 6.8,4.35 3.75,1.6 7.8,1.85 l 1.9,0.2 0.8,0.25 0.7,-0.05 0.85,0.35 0.45,-0.25 q 4.4,-2.25 8.6,-1.15 l 0.95,0.25 1.15,0.2 0.75,-0.3 h 0.2 l 1.5,-0.95 q 4.05,-2.1 7,-5.8 2.95,-3.7 4.05,-8.15 0.55,-2.4 0.85,-6.5 0.5,-6.1 -0.25,-9.6 -0.5,-2.7 -2.2,-6.4 -1.95,-4.35 -4.5,-6.65 -1.25,-1.1 -2.9,-1.95 m -36,20.5 q 0.45,-5.25 2.9,-9.6 l 2.2,-3.4 q 2,-2.8 5.7,-4.85 3.65,-2.1 8.5,-2.85 3.9,-0.65 7.95,0.5 l 2,0.65 q 5.1,1.9 7.25,3.7 3.2,2.8 5.05,8.05 2.8,8.05 0.95,16.25 -0.55,2.3 -1.25,3.65 -0.95,1.8 -3.6,4.35 l -3.75,3 q -4.75,2.95 -12.9,2.85 -6.65,-0.1 -11.1,-2 -5.85,-2.45 -8.2,-7.45 -0.9,-1.95 -1.4,-4.9 -0.65,-4.2 -0.3,-7.95 M -3.5,-28.25 h -0.05 q -2.85,0.3 -5.35,1.85 l 0.35,1.3 0.5,2 0.65,2.35 0.15,0.45 0.4,1.8 0.4,2.1 H -4.5 -2.05 0 l 0.6,-0.1 0.45,-0.55 q 2.25,-3.8 6.3,-8.65 l 0.6,-0.65 -1.7,-0.55 -2.1,-0.5 -3.2,-0.55 -0.55,-0.1 -2,-0.2 h -1.9 m -8.3,4.1 q -3.3,3.3 -4.7,8.25 -1.05,3.6 -0.8,7.45 l 0.05,0.7 0.3,-0.1 1.15,-0.15 q -0.35,-0.55 -0.4,-1.55 v -0.95 q -0.05,-4.05 2.1,-7.9 1.25,-2.1 2.6,-3.1 l 0.4,-0.2 -0.6,-2.3 -0.05,-0.2 -0.05,0.05 m -4,22.45 1.2,1.85 1.4,1.45 0.55,-0.65 0.1,-1.65 0.05,-0.45 0.15,-1.55 0.1,-1.65 v -1.4 l -1.95,0.6 -1.95,0.6 -0.55,0.3 q 0.25,1.2 0.7,2.1 l 0.2,0.45 M -2,-6.1 -2.3,-7.55 -8.45,1.2 l -1.8,2.5 q 1.3,0.7 2.85,1.2 l 3.25,0.7 2.75,0.15 H 0.55 L 0.5,5.55 0.15,3.85 -0.5,0.85 -1.15,-2.1 -2,-6.1 m 18.1,-11.65 -0.45,-1 -0.45,-1.05 -0.15,-0.35 h -0.1 l -1.3,0.15 -2.55,0.45 -1.25,0.2 0.4,5.7 v 0.4 q 0.1,2.05 0.5,3 l 0.2,0.6 0.1,0.05 0.95,0.4 0.95,0.5 0.2,0.1 1.05,0.75 0.4,0.4 0.15,0.8 -0.25,0.75 -0.05,0.35 0.15,0.75 0.05,0.45 v 2.3 Q 14.6,-1.1 14.7,-0.2 L 16,-1.95 q 0.8,-1.4 1.15,-3.85 l 0.15,-2 0.05,-3.9 -0.25,-2.55 -0.05,-0.25 -0.95,-3.25 M 9.6,-22.2 H 9.65 L 11.5,-22.65 13,-23 h 0.15 l -1.3,-1.2 -1.65,-1.1 -0.35,0.55 L 8,-22 9.6,-22.2 M 10.75,-6.45 10.4,-6.65 10.15,-6.4 7.8,-3.65 7.75,-3.6 8.1,-2.9 v 0.05 l 1.2,2.2 0.75,1.2 0.2,0.25 0.8,1.35 L 11.3,2.9 13.7,0.8 13.55,0 13.45,-1.4 13.4,-2.95 13.35,-4.4 13.15,-5 l -0.1,-0.6 -0.5,-0.15 -1.5,-0.6 -0.3,-0.1 M 4,5.45 8,4.6 7.8,4.1 7.4,2.95 6.8,3.45 4.95,4.25 2.85,4.3 3.05,5.35 3.1,5.55 4,5.45 m 0.65,15.3 2.2,0.15 1,0.2 1.2,0.25 -0.5,-2.8 -0.2,-1.7 L 7.7,16.8 H 6.05 L 4.3,17.05 4.2,17.1 2.85,17.4 q -1.4,0.35 -2.3,0.95 H 0.5 l -0.9,0.55 v 1.6 L -0.5,22 2.1,21.15 2.95,21 4.65,20.75 m -0.05,2.9 -2.4,0.5 -0.65,0.15 q -1.45,0.5 -2.2,1.05 l -0.1,0.1 -0.3,3.85 -0.05,0.45 4.1,-0.9 H 3.9 L 6.05,28.8 8.2,28.95 9.2,29.3 9.4,29.4 9.55,26.25 9.35,23.3 8,23.2 5.95,23.45 4.6,23.65 m -1.35,8 -1.3,0.2 Q 0.9,32.1 -0.35,32.7 l -0.55,0.25 0.1,0.4 q 0.25,1.2 0.9,2.05 1.15,1.55 2.9,1.9 1.9,0.35 3.3,-0.75 Q 7.4,35.8 8.25,33.8 L 8.9,32 8.2,31.8 3.9,31.55 3.25,31.65"
         fill="#000000"
         fill-rule="evenodd"
         stroke="none"
         id="path1" />
      <path
         d="m -25.95,-4.55 -0.2,-1.85 -0.1,-2.9 q 0.1,-1.3 0.8,-3.9 1.3,-4.7 2.4,-6.9 1.65,-3.25 5.25,-7.2 3.15,-3.45 5.6,-4.8 1.75,-0.9 4.7,-1.85 3.7,-1.2 5.6,-1.4 l 7.4,0.55 6.15,1.5 2.5,1.1 -0.95,0.25 -2.6,0.2 L 8,-31.9 H 5.4 q -4.05,-1.15 -7.95,-0.5 -4.85,0.75 -8.5,2.85 -3.7,2.05 -5.7,4.85 l -2.2,3.4 q -2.45,4.35 -2.9,9.6 l -2.3,5.35 q -0.85,1.6 -1.8,1.8 m 17.9,-18.55 4.55,-5.15 h 1.9 l -0.35,0.5 -1.9,2.85 -1.8,2.6 -0.45,0.5 -0.35,0.65 -0.6,0.55 -0.2,0.3 -0.15,-0.45 -0.65,-2.35 m 8.45,-4.95 0.55,0.1 3.2,0.55 -8.65,11 h -1.95 l -0.4,-2.1 3.1,-3.95 4.15,-5.6 m -12.65,23.7 -0.45,0.35 -1.75,1.4 -1.3,0.85 -0.05,0.05 -0.2,-0.45 q -0.45,-0.9 -0.7,-2.1 l 0.55,-0.3 1.95,-0.6 1.95,-0.6 v 1.4 m 3.8,5.55 5.5,-6.4 0.95,-0.9 0.85,4 L -3.7,0.85 -7.05,4.55 -7.4,4.9 Q -8.95,4.4 -10.25,3.7 l 1.8,-2.5 m 23.65,-21 0.45,1.05 0.45,1 -1.9,3.6 -1.8,2.9 -1.35,1.65 -0.1,-0.05 -0.2,-0.6 q -0.4,-0.95 -0.5,-3 v -0.4 l 0.9,-1.3 3.2,-4.3 0.65,-0.5 0.2,-0.05 m 1.9,5.55 0.25,2.55 -2.75,4.25 -0.4,-0.4 -1.05,-0.75 -0.2,-0.1 3.6,-5.35 0.55,-0.2 M 8.1,-2.9 Q 8.75,-4.65 10.2,-6 l 0.55,-0.45 0.3,0.1 1.5,0.6 v 0.15 l -0.4,1.05 -0.9,1.55 Q 10.2,-1.3 9.3,-0.65 L 8.1,-2.85 V -2.9 m -3.9,20 0.15,1.3 0.2,1.6 0.1,0.75 L 2.95,21 2.1,21.15 -0.5,22 -0.4,20.5 v -1.6 l 0.9,-0.55 h 0.05 q 0.9,-0.6 2.3,-0.95 L 4.2,17.1 M 3.9,28.85 H 3 l -4.1,0.9 0.05,-0.45 0.3,-3.85 0.1,-0.1 Q 0.1,24.8 1.55,24.3 l 0.65,-0.15 2.4,-0.5 q -0.15,2.3 -0.7,5.2 m -4.7,4.5 -0.1,-0.4 0.55,-0.25 q 1.25,-0.6 2.3,-0.85 l 1.3,-0.2 -0.4,0.75 q -0.9,1.45 -2.3,1.45 -0.75,0 -1.35,-0.5"
         fill="#ffffff"
         fill-rule="evenodd"
         stroke="none"
         id="path2" />
      <path
         d="m 6.25,-26.9 1.7,0.55 -0.6,0.65 q -4.05,4.85 -6.3,8.65 L 0.6,-16.5 0,-16.4 h -2.05 l 0.05,-0.3 0.75,-1.25 4.4,-5.5 3.1,-3.45 m -18.05,2.75 0.05,-0.05 0.05,0.2 0.6,2.3 -0.4,0.2 q -1.35,1 -2.6,3.1 -2.15,3.85 -2.1,7.9 v 0.95 q 0.05,1 0.4,1.55 l -1.15,0.15 -0.3,0.1 -0.05,-0.7 q -0.25,-3.85 0.8,-7.45 1.4,-4.95 4.7,-8.25 m -2.8,24.3 0.45,-0.5 q 0.85,-0.75 1.55,-0.8 h 0.1 l -0.05,0.45 -0.1,1.65 -0.55,0.65 -1.4,-1.45 m 14.1,0.7 0.65,3 L -1.4,5.75 -4.15,5.6 -4.1,5.35 -3,3.45 -1.55,1.75 -0.5,0.85 M 17.15,-5.8 Q 16.8,-3.35 16,-1.95 l -1.3,1.75 q -0.1,-0.9 -0.05,-1.85 v -2.3 l 1.05,-0.9 1.4,-0.55 h 0.05 m -5.3,-18.4 1.3,1.2 H 13 l -1.5,0.35 -1.85,0.45 H 9.6 l 0.05,-0.4 0.75,-0.7 1,-0.55 0.45,-0.35 M 13.4,-2.95 13.45,-1.4 13.55,0 13.7,0.8 11.3,2.9 11.05,2.15 10.25,0.8 V 0.75 l 0.8,-1 2.35,-2.7 M 4.2,17.1 4.3,17.05 6.05,16.8 H 7.7 l 0.65,0.05 0.2,1.7 0.5,2.8 -1.2,-0.25 -1,-0.2 L 4.65,20.75 4.55,20 4.35,18.4 4.2,17.1 M 4,5.45 3.1,5.55 3.05,5.35 2.85,4.3 4.95,4.25 6.8,3.45 7.4,2.95 7.8,4.1 8,4.6 4,5.45 m -0.1,23.4 q 0.55,-2.9 0.7,-5.2 L 5.95,23.45 8,23.2 9.35,23.3 9.55,26.25 9.4,29.4 9.2,29.3 8.2,28.95 6.05,28.8 3.9,28.85 m -4.7,4.5 q 0.6,0.5 1.35,0.5 1.4,0 2.3,-1.45 L 3.25,31.65 3.9,31.55 8.2,31.8 8.9,32 8.25,33.8 Q 7.4,35.8 6.3,36.55 4.9,37.65 3,37.3 1.25,36.95 0.1,35.4 -0.55,34.55 -0.8,33.35"
         fill="#9f9f9f"
         fill-rule="evenodd"
         stroke="none"
         id="path3" />
      <path
         d="m -25.95,-4.55 q 0.95,-0.2 1.8,-1.8 l 2.3,-5.35 q -0.35,3.75 0.3,7.95 0.5,2.95 1.4,4.9 2.35,5 8.2,7.45 4.45,1.9 11.1,2 8.15,0.1 12.9,-2.85 l 3.75,-3 q 2.65,-2.55 3.6,-4.35 0.7,-1.35 1.25,-3.65 1.85,-8.2 -0.95,-16.25 -1.85,-5.25 -5.05,-8.05 -2.15,-1.8 -7.25,-3.7 l -2,-0.65 H 8 l 2.6,0.15 2.6,-0.2 0.95,-0.25 q 1.65,0.85 2.9,1.95 2.55,2.3 4.5,6.65 1.7,3.7 2.2,6.4 0.75,3.5 0.25,9.6 -0.3,4.1 -0.85,6.5 -1.1,4.45 -4.05,8.15 -2.95,3.7 -7,5.8 L 10.6,13.8 H 10.4 L 9.65,14.1 8.5,13.9 7.55,13.65 q -4.2,-1.1 -8.6,1.15 l -0.45,0.25 -0.85,-0.35 -0.7,0.05 -0.8,-0.25 -1.9,-0.2 q -4.05,-0.25 -7.8,-1.85 -3.8,-1.6 -6.8,-4.35 -3.15,-2.85 -4.3,-5.95 L -25.4,-1 -25.95,-4.55 m 17.9,-18.55 -0.5,-2 -0.35,-1.3 q 2.5,-1.55 5.35,-1.85 h 0.05 l -4.55,5.15 m 6.45,-5.15 2,0.2 -4.15,5.6 -3.1,3.95 -0.4,-1.8 0.2,-0.3 0.6,-0.55 0.35,-0.65 0.45,-0.5 1.8,-2.6 1.9,-2.85 0.35,-0.5 m 5.75,0.85 2.1,0.5 -3.1,3.45 -4.4,5.5 -0.75,1.25 -0.05,0.3 H -4.5 l 8.65,-11 m -19.95,25.7 0.05,-0.05 1.3,-0.85 1.75,-1.4 0.45,-0.35 -0.1,1.65 -0.15,1.55 h -0.1 q -0.7,0.05 -1.55,0.8 l -0.45,0.5 -1.2,-1.85 m 7.35,2.9 6.15,-8.75 0.3,1.45 -0.95,0.9 -5.5,6.4 m 7.3,-3.3 0.65,2.95 -1.05,0.9 L -3,3.45 -4.1,5.35 -4.15,5.6 -7.4,4.9 -7.05,4.55 -3.7,0.85 -1.15,-2.1 m 1.3,5.95 0.35,1.7 0.05,0.2 H -1.4 l 1.55,-1.9 m 15.05,-23.65 -0.2,0.05 -0.65,0.5 -3.2,4.3 -0.9,1.3 -0.4,-5.7 1.25,-0.2 2.55,-0.45 1.3,-0.15 h 0.1 l 0.15,0.35 m -4.15,10.2 1.35,-1.65 1.8,-2.9 1.9,-3.6 0.95,3.25 0.05,0.25 -0.55,0.2 -3.6,5.35 L 12,-9.2 11.05,-9.6 m 6.3,-2.1 -0.05,3.9 -0.15,2 H 17.1 l -1.4,0.55 -1.05,0.9 -0.05,-0.45 -0.15,-0.75 0.05,-0.35 0.25,-0.75 -0.15,-0.8 2.75,-4.25 m -5.5,-12.5 -0.45,0.35 -1,0.55 -0.75,0.7 -0.05,0.4 -1.6,0.2 1.85,-2.75 0.35,-0.55 1.65,1.1 M 8.1,-2.9 7.75,-3.6 7.8,-3.65 10.15,-6.4 10.4,-6.65 10.75,-6.45 10.2,-6 q -1.45,1.35 -2.1,3.1 m 4.45,-2.85 0.5,0.15 0.1,0.6 0.2,0.6 0.05,1.45 -2.35,2.7 -0.8,1 V 0.8 L 10.05,0.55 9.3,-0.65 Q 10.2,-1.3 11.25,-3 l 0.9,-1.55 0.4,-1.05 v -0.15"
         fill="#d5d5d5"
         fill-rule="evenodd"
         stroke="none"
         id="path4" />
    </g>
    <g
       id="sprite1"
       transform="translate(17.4,15.85)">
      <use
         ffdec:characterId="31"
         height="57.200001"
         transform="matrix(0.5366,0,0,0.5366,-16.6582,-14.546)"
         width="70.75"
         xlink:href="#sprite2"
         id="use4" />
    </g>
    <g
       id="sprite2"
       transform="translate(-8.65,-10.35)">
      <use
         ffdec:characterId="30"
         height="57.200001"
         transform="translate(8.65,10.35)"
         width="70.75"
         xlink:href="#shape1"
         id="use5" />
    </g>
    <g
       id="shape1"
       transform="translate(-8.65,-10.35)">
      <path
         d="m 14.8,41.7 q 0.65,-1.75 2.65,-2.5 1.8,-0.8 3.7,-0.25 1.15,0.45 2.25,1.2 l 0.9,0.4 q 1.65,0.9 2.85,2.5 L 37.8,30.1 q 2.35,-2.8 3.75,-3.95 1.5,-1.15 4.25,-2.4 18.2,-8.85 27.65,-12.6 2.15,-0.8 3.25,-0.8 h 0.8 l 1.9,2.4 -0.2,0.8 q -0.2,1.1 -1.55,3 -5.85,8.25 -18.85,23.8 -1.85,2.35 -3.35,3.5 -1.4,1.15 -4.75,2.75 l -15.15,7.15 q 1.2,1.6 1.75,3.4 l 0.2,1 0.55,2.5 q 0.1,1.95 -1.1,3.55 -1.2,1.65 -3.05,1.9 l -1.3,0.05 q -1.65,0.2 -3.45,-0.65 -1.85,-0.9 -3,-2.6 L 25,60.95 23.8,62.1 q -2.6,2.85 -4.3,3.95 -2.85,1.8 -5.5,1.45 l -1.65,-0.5 -1.2,-0.7 -0.2,-0.2 q -1,-0.85 -1.6,-1.9 L 9.25,64 9.15,63.8 8.75,62.4 q -0.2,-0.8 -0.05,-1.7 0.25,-2.65 2.7,-5.05 1.5,-1.3 4.9,-3.15 L 17.7,51.55 16.05,50 q -1.35,-1.5 -1.8,-3.6 -0.4,-1.85 0.25,-3.45 l 0.3,-1.25"
         fill="#000000"
         fill-opacity="0.372549"
         fill-rule="evenodd"
         stroke="none"
         id="path5" />
    </g>
  </defs>
</svg>
