<?xml version="1.0" encoding="UTF-8" standalone="no"?>
<svg
   ffdec:objectType="frame"
   height="79.169823"
   width="76.064606"
   version="1.1"
   id="svg6"
   sodipodi:docname="ITEM Miner Mask.svg"
   xmlns:inkscape="http://www.inkscape.org/namespaces/inkscape"
   xmlns:sodipodi="http://sodipodi.sourceforge.net/DTD/sodipodi-0.dtd"
   xmlns:xlink="http://www.w3.org/1999/xlink"
   xmlns="http://www.w3.org/2000/svg"
   xmlns:svg="http://www.w3.org/2000/svg"
   xmlns:ffdec="https://www.free-decompiler.com/flash">
  <sodipodi:namedview
     id="namedview6"
     pagecolor="#ffffff"
     bordercolor="#000000"
     borderopacity="0.25"
     inkscape:showpageshadow="2"
     inkscape:pageopacity="0.0"
     inkscape:pagecheckerboard="0"
     inkscape:deskcolor="#d1d1d1"
     fit-margin-top="5"
     fit-margin-left="5"
     fit-margin-right="5"
     fit-margin-bottom="5" />
  <g
     transform="translate(39.841349,38.75)"
     id="g1">
    <use
       ffdec:characterId="17"
       height="119.15"
       id="rarity"
       transform="translate(-58.5,-60.65)"
       width="119.15"
       xlink:href="#sprite0" />
    <use
       ffdec:characterId="967"
       height="79.150002"
       transform="translate(-39.85,-38.75)"
       width="76.050003"
       xlink:href="#shape0"
       id="use1" />
  </g>
  <defs
     id="defs6">
    <g
       id="shape0"
       transform="translate(86.65,40.1)">
      <path
         d="m -54.4,-25 3.8,-0.2 1.45,-2.7 q 1.8,-3.6 4.55,-6.55 1.25,-2 3.35,-3.4 2.95,-1.95 6.45,-2.25 10.35,0.5 13.4,10.15 1.25,4 1.45,8.1 l 1.8,-0.3 q 5.55,1.6 7.05,7.6 1.5,5.9 -1.3,11.05 -1.05,1.9 -3.1,2.8 1.4,2.05 2.25,4.75 3.1,9.4 0.3,18.9 -4.1,13.8 -18.55,15.85 -12.7,1.75 -20.2,-7.85 -2.95,-1 -3,-2.65 -7.95,1.1 -13.7,-3.55 -7.15,2.45 -13.7,-1.25 -1.35,-0.7 -2.05,-2.1 -6,-11.1 2.45,-20.45 5.9,-6.5 14.55,-6.05 -0.15,-2.2 0.4,-4.75 l 0.4,-1.05 q 0.25,-2.9 1.65,-5.45 3.5,-6.5 10.3,-8.65 m 0.25,5.15 -1.4,0.35 -0.8,0.1 q -2.3,2.1 -3.7,4.9 l -1.6,3.45 -0.3,3.05 -0.2,3.6 0.1,0.2 0.2,0.45 0.1,0.2 0.2,0.45 q 4.85,6.45 12.35,3 1.95,-0.85 3.15,-2.6 1.1,-1.45 1.95,-3.05 V -6.4 l 0.15,-1.1 0.4,-1.05 q 0.15,-3.95 -1.55,-7.45 -1.3,-2.7 -4.25,-3.85 -2.4,-0.9 -4.8,0 M -39,10.25 q -1,-2.3 -0.55,-4.9 0.35,-2.1 1.6,-4.45 3.85,-7.15 11.65,-8.4 l 1.9,0.1 0.1,-1.7 -0.2,-0.45 -0.1,-1.3 v -1.7 -0.65 q -0.45,-2.95 -0.55,-6 -0.25,-5.45 -2.1,-10.5 l -0.15,-0.25 -0.2,-0.4 -0.15,-0.45 -0.15,-0.4 q -1.55,-1.75 -3.65,-2.7 -2.7,-1.25 -5.8,-0.1 -3.45,2.25 -5.9,5.6 l -3,4.3 q 3.3,1.55 5.45,5.2 1.25,2.1 1.55,4.55 l 0.15,0.45 q 0.5,1.75 0.55,3.65 0.05,2.45 -0.7,4.7 Q -41.9,4.55 -52.2,6.3 -56.4,7 -60.1,5 l -1.75,-1.1 -0.45,0.9 -3,4.75 -0.2,0.35 q -2.3,3.45 -2.3,7.6 1.3,2.6 3.9,4 l 1.1,0.7 q 1.4,0 2.6,0.65 l 21.9,-2 q 2.9,-0.25 5.45,0.8 l 0.05,-0.15 q 0.45,-1.1 0.2,-2.3 l -0.1,-0.85 -0.45,-0.85 -0.7,-1.3 -0.55,-0.85 q -3.4,-2.3 -4.6,-5.1 m -12.4,-28.8 q 3.95,1.55 0.85,4.4 -0.95,0.85 -1.9,0 -2.65,-2.3 0.25,-4.25 l 0.2,-0.05 0.6,-0.1 M -56,-6 q 4.8,2.2 0.4,4.95 -0.9,0.5 -1.65,-0.25 -2.85,-2.7 0.75,-4.5 L -56,-6 m 7.75,-4.25 q 4.75,2.15 0.35,4.9 -0.85,0.55 -1.65,-0.2 -2.85,-2.75 0.75,-4.55 l 0.55,-0.15 M -31.7,8.9 -31.45,8.6 q 1.75,-1.8 4.05,-2.65 l 0.15,-0.2 0.2,-0.2 0.4,-0.15 0.3,-0.1 1.2,-0.5 1.5,-0.5 q 2.1,-0.05 4.25,0.05 -1.9,-4.15 -5,-7.4 l -4.35,1.5 q -1.8,0.75 -3.1,2.35 v 0.05 q -2.6,3.1 -2.75,7.1 l 0.15,0.25 0.1,0.2 0.2,0.4 0.35,0.45 q 0.6,0.35 1.2,0.8 l 0.9,-1.15 m 12.8,-26.1 -0.7,-0.15 0.05,0.5 0.15,2.6 0.1,2.75 q 0.6,2.85 -0.15,5.75 l -0.3,0.9 0.5,0.35 0.35,-0.25 2.3,-1.3 q 0.95,-2.8 0.25,-6 -0.6,-2.8 -2.3,-5.1 l -0.25,-0.05 m -4.5,23.9 -0.35,0.2 -0.4,0.2 q -1.3,0.7 -2.45,1.55 -0.5,0.4 -1.15,0.6 l -0.7,0.85 q -1.05,1.1 -1.55,2.45 1.35,1.75 2,3.95 1.8,-0.95 3.7,-1.55 l 2.65,-0.7 q 2.6,-0.35 4.5,1.15 0.1,-4.6 -1.4,-8.95 L -23.4,6.7 m 3.75,18.1 q 1.65,-2.8 2.2,-6.05 -1.5,-0.6 -3,-1.55 -0.85,-0.6 -1.9,-0.45 -2.9,0.35 -5.2,1.9 l 0.05,0.9 0.05,1.05 -0.1,1.3 q 2.5,2.55 3.55,6 l 0.5,1.6 1.45,-1.5 q 1.4,-1.5 2.4,-3.2 m -5.75,5.6 -2.55,-4.8 -0.55,-0.9 q -1.3,2.15 -4.15,3.2 l -0.75,1.35 -0.85,1.8 q 0.05,0.7 -0.15,1.3 l -0.3,1.3 0.1,0.2 q 5.25,0 9.5,-3.05 l -0.3,-0.4 m -9.75,-4.1 -0.05,-0.25 0.05,-0.1 -5.5,0.3 -1.3,1.45 -0.8,0.7 -0.4,1.05 -0.2,0.9 0.05,0.2 0.1,0.25 0.1,0.2 v 0.5 q 1.3,1.1 3,1.55 l 3.4,0.65 -0.1,-1.15 q -0.1,-0.7 0.25,-1.25 0.25,-2.35 1.2,-4.45 l 0.25,-0.4 -0.05,-0.15 M -67.85,3.95 -65.1,0.8 -65.6,0.05 -66.3,0.1 h -1.05 l -1.85,0.15 q -3.3,0.4 -6,2.15 1.3,0.5 2.5,1.5 0.9,0.7 1.9,1.2 l 0.75,0.9 0.4,0.5 1.8,-2.55 M -70.95,8.3 -72.1,7.25 -73.75,6.2 Q -75.8,5.15 -78,4.7 l -1.25,1.4 q -1.85,2.65 -2.2,5.8 -0.2,1.5 0.25,2.95 l 0.05,0.2 0.15,-0.15 0.2,-0.15 0.15,-0.05 q 0.8,-0.45 1.65,-0.75 l 0.55,-0.25 0.15,-0.05 0.35,-0.05 v -0.05 l 2.7,-0.25 h 0.6 l 2,0.25 q 0.55,-2.65 1.85,-5.1 L -70.95,8.3 m -8.75,8.7 -0.8,0.7 0.1,0.4 v 0.25 l 0.2,0.2 0.15,0.2 0.35,0.45 0.2,0.45 q 3.6,2.25 8.1,2.1 -1.9,-2.7 -1.6,-6.15 h -0.45 -0.15 l -2.6,0.1 -0.45,0.05 h -0.95 l -0.3,0.2 -0.35,0.2 -0.9,0.35 -0.25,0.2 -0.2,0.2 -0.1,0.1 m 30.9,10.2 q 1.95,1.25 3.75,2.7 l 0.4,-1.9 0.55,-1.45 -4.7,0.65"
         fill="#000000"
         fill-rule="evenodd"
         stroke="none"
         id="path1" />
      <path
         d="m -54.15,-19.85 q 2.4,-0.9 4.8,0 2.95,1.15 4.25,3.85 1.7,3.5 1.55,7.45 l -0.4,1.05 -0.15,1.1 v 0.65 q -0.85,1.6 -1.95,3.05 -1.2,1.75 -3.15,2.6 -7.5,3.45 -12.35,-3 l -0.2,-0.45 -0.1,-0.2 -0.2,-0.45 -0.1,-0.2 0.2,-3.6 0.3,-3.05 1.6,-3.45 q 1.4,-2.8 3.7,-4.9 l 0.8,-0.1 1.4,-0.35 m 22.3,20.7 V 0.8 q 1.3,-1.6 3.1,-2.35 l 4.35,-1.5 q 3.1,3.25 5,7.4 -2.15,-0.1 -4.25,-0.05 l -1.5,0.5 -1.2,0.5 -0.3,0.1 -0.4,0.15 -0.2,0.2 -0.15,0.2 q -2.3,0.85 -4.05,2.65 l -0.25,0.3 q -0.85,-3.05 -0.6,-6.25 l 0.45,-1.8 m -16.4,-11.1 -0.55,0.15 q -3.6,1.8 -0.75,4.55 0.8,0.75 1.65,0.2 4.4,-2.75 -0.35,-4.9 M -56,-6 l -0.5,0.2 q -3.6,1.8 -0.75,4.5 0.75,0.75 1.65,0.25 Q -51.2,-3.8 -56,-6 m 4.6,-12.55 -0.6,0.1 -0.2,0.05 q -2.9,1.95 -0.25,4.25 0.95,0.85 1.9,0 3.1,-2.85 -0.85,-4.4 m 31.85,1.7 0.25,-0.25 0.4,-0.1 0.25,0.05 q 1.7,2.3 2.3,5.1 0.7,3.2 -0.25,6 l -2.3,1.3 -0.35,0.25 -0.5,-0.35 0.3,-0.9 q 0.75,-2.9 0.15,-5.75 l -0.1,-2.75 -0.15,-2.6 m -7.9,37.45 -0.05,-1.05 -0.05,-0.9 q 2.3,-1.55 5.2,-1.9 1.05,-0.15 1.9,0.45 1.5,0.95 3,1.55 -0.55,3.25 -2.2,6.05 l -0.25,0.1 q -5.05,-0.2 -7.55,-4.3 m 4.05,-13.9 4.85,-0.25 q 1.5,4.35 1.4,8.95 -1.9,-1.5 -4.5,-1.15 l -2.65,0.7 q -1.9,0.6 -3.7,1.55 -0.65,-2.2 -2,-3.95 0.5,-1.35 1.55,-2.45 l 0.7,-0.85 q 0.65,-0.2 1.15,-0.6 1.15,-0.85 2.45,-1.55 l 0.4,-0.2 0.35,-0.2 m -43.95,-6.6 0.1,0.1 0.2,0.2 0.35,0.5 0.05,0.3 v 0.2 0.5 0.25 l -1.2,1.8 -1.8,2.55 -0.4,-0.5 -0.75,-0.9 q -1,-0.5 -1.9,-1.2 -1.2,-1 -2.5,-1.5 2.7,-1.75 6,-2.15 l 1.85,-0.15 m -7.3,13.2 h -0.6 l -2.7,0.25 v 0.05 l -0.35,0.05 -0.15,0.05 -0.55,0.25 q -0.85,0.3 -1.65,0.75 l -0.15,0.05 -0.2,0.15 -0.15,0.15 -0.05,-0.2 q -0.45,-1.45 -0.25,-2.95 0.35,-3.15 2.2,-5.8 L -78,4.7 q 2.2,0.45 4.25,1.5 l 1.65,1.05 1.15,1.05 -3.7,5 m -2,2.45 q -1.4,1.35 -3.05,1.25 l 0.1,-0.1 0.2,-0.2 0.25,-0.2 0.9,-0.35 0.35,-0.2 0.3,-0.2 h 0.95"
         fill="#7f7f7f"
         fill-rule="evenodd"
         stroke="none"
         id="path2" />
      <path
         d="m -65.5,9.9 0.2,-0.35 3,-4.75 0.45,-0.9 1.75,1.1 q 3.7,2 7.9,1.3 10.3,-1.75 12.95,-11.85 0.75,-2.25 0.7,-4.7 -0.05,-1.9 -0.55,-3.65 l -0.15,-0.45 q -0.3,-2.45 -1.55,-4.55 -2.15,-3.65 -5.45,-5.2 l 3,-4.3 q 2.45,-3.35 5.9,-5.6 3.1,-1.15 5.8,0.1 2.1,0.95 3.65,2.7 l 0.15,0.4 0.15,0.45 0.2,0.4 0.15,0.25 q 1.85,5.05 2.1,10.5 0.1,3.05 0.55,6 v 0.65 1.7 l 0.1,1.3 0.2,0.45 -0.1,1.7 -1.9,-0.1 q -7.8,1.25 -11.65,8.4 -1.25,2.35 -1.6,4.45 -0.45,2.6 0.55,4.9 -4.55,5.1 -12.35,6.1 -8.45,1.05 -13.15,-5 l -1,-1.45"
         fill="#393939"
         fill-rule="evenodd"
         stroke="none"
         id="path3" />
      <path
         d="m -65.5,9.9 1,1.45 q 4.7,6.05 13.15,5 7.8,-1 12.35,-6.1 1.2,2.8 4.6,5.1 l 0.55,0.85 0.7,1.3 0.45,0.85 0.1,0.85 q 0.25,1.2 -0.2,2.3 l -0.05,0.15 q -2.55,-1.05 -5.45,-0.8 l -21.9,2 q -1.2,-0.65 -2.6,-0.65 l -1.1,-0.7 q -2.6,-1.4 -3.9,-4 0,-4.15 2.3,-7.6"
         fill="#2c2c2c"
         fill-rule="evenodd"
         stroke="none"
         id="path4" />
      <path
         d="m -31.85,0.85 -0.45,1.8 q -0.25,3.2 0.6,6.25 l -0.9,1.15 q -0.6,-0.45 -1.2,-0.8 l -0.35,-0.45 -0.2,-0.4 -0.1,-0.2 -0.15,-0.25 q 0.15,-4 2.75,-7.1 m 4.4,19.75 q 2.5,4.1 7.55,4.3 l 0.25,-0.1 q -1,1.7 -2.4,3.2 l -1.45,1.5 -0.5,-1.6 q -1.05,-3.45 -3.55,-6 l 0.1,-1.3 M -67.35,0.1 h 1.05 l 0.7,-0.05 0.5,0.75 -2.75,3.15 1.2,-1.8 V 1.9 1.4 1.2 l -0.05,-0.3 -0.35,-0.5 -0.2,-0.2 -0.1,-0.1 m 32.2,26.2 0.05,0.15 -0.25,0.4 q -0.95,2.1 -1.2,4.45 -0.35,0.55 -0.25,1.25 l 0.1,1.15 -3.4,-0.65 q -1.7,-0.45 -3,-1.55 V 31 l -0.1,-0.2 -0.1,-0.25 -0.05,-0.2 0.2,-0.9 0.4,-1.05 0.8,-0.7 1.3,-1.45 5.5,-0.3 -0.05,0.1 0.05,0.25 m 9.75,4.1 0.3,0.4 q -4.25,3.05 -9.5,3.05 l -0.1,-0.2 0.3,-1.3 q 0.2,-0.6 0.15,-1.3 l 0.85,-1.8 0.75,-1.35 q 2.85,-1.05 4.15,-3.2 l 0.55,0.9 2.55,4.8 m -49.25,-17.1 3.7,-5 0.15,0.15 q -1.3,2.45 -1.85,5.1 l -2,-0.25 m -2,2.45 0.45,-0.05 2.6,-0.1 h 0.15 0.45 q -0.3,3.45 1.6,6.15 -4.5,0.15 -8.1,-2.1 l -0.2,-0.45 -0.35,-0.45 -0.15,-0.2 -0.2,-0.2 V 18.1 l -0.1,-0.4 0.8,-0.7 q 1.65,0.1 3.05,-1.25 m 27.85,11.45 4.7,-0.65 -0.55,1.45 -0.4,1.9 q -1.8,-1.45 -3.75,-2.7"
         fill="#686868"
         fill-rule="evenodd"
         stroke="none"
         id="path5" />
    </g>
    <g
       id="sprite1"
       transform="translate(17.4,15.85)">
      <use
         ffdec:characterId="31"
         height="57.200001"
         transform="matrix(0.5366,0,0,0.5366,-16.6582,-14.546)"
         width="70.75"
         xlink:href="#sprite2"
         id="use5" />
    </g>
    <g
       id="sprite2"
       transform="translate(-8.65,-10.35)">
      <use
         ffdec:characterId="30"
         height="57.200001"
         transform="translate(8.65,10.35)"
         width="70.75"
         xlink:href="#shape1"
         id="use6" />
    </g>
    <g
       id="shape1"
       transform="translate(-8.65,-10.35)">
      <path
         d="m 14.8,41.7 q 0.65,-1.75 2.65,-2.5 1.8,-0.8 3.7,-0.25 1.15,0.45 2.25,1.2 l 0.9,0.4 q 1.65,0.9 2.85,2.5 L 37.8,30.1 q 2.35,-2.8 3.75,-3.95 1.5,-1.15 4.25,-2.4 18.2,-8.85 27.65,-12.6 2.15,-0.8 3.25,-0.8 h 0.8 l 1.9,2.4 -0.2,0.8 q -0.2,1.1 -1.55,3 -5.85,8.25 -18.85,23.8 -1.85,2.35 -3.35,3.5 -1.4,1.15 -4.75,2.75 l -15.15,7.15 q 1.2,1.6 1.75,3.4 l 0.2,1 0.55,2.5 q 0.1,1.95 -1.1,3.55 -1.2,1.65 -3.05,1.9 l -1.3,0.05 q -1.65,0.2 -3.45,-0.65 -1.85,-0.9 -3,-2.6 L 25,60.95 23.8,62.1 q -2.6,2.85 -4.3,3.95 -2.85,1.8 -5.5,1.45 l -1.65,-0.5 -1.2,-0.7 -0.2,-0.2 q -1,-0.85 -1.6,-1.9 L 9.25,64 9.15,63.8 8.75,62.4 q -0.2,-0.8 -0.05,-1.7 0.25,-2.65 2.7,-5.05 1.5,-1.3 4.9,-3.15 L 17.7,51.55 16.05,50 q -1.35,-1.5 -1.8,-3.6 -0.4,-1.85 0.25,-3.45 l 0.3,-1.25"
         fill="#000000"
         fill-opacity="0.372549"
         fill-rule="evenodd"
         stroke="none"
         id="path6" />
    </g>
  </defs>
</svg>
