<?xml version="1.0" encoding="UTF-8" standalone="no"?>
<svg
   ffdec:objectType="frame"
   height="101.9"
   width="92.61261"
   version="1.1"
   id="svg7"
   xmlns:xlink="http://www.w3.org/1999/xlink"
   xmlns="http://www.w3.org/2000/svg"
   xmlns:svg="http://www.w3.org/2000/svg"
   xmlns:ffdec="https://www.free-decompiler.com/flash">
  <g
     transform="translate(43.062613,52.95)"
     id="g1">
    <use
       ffdec:characterId="17"
       height="119.15"
       id="rarity"
       transform="translate(-58.5,-60.65)"
       width="119.15"
       xlink:href="#sprite0" />
    <use
       ffdec:characterId="675"
       height="101.95"
       transform="translate(-43.05,-53)"
       width="92.599998"
       xlink:href="#shape0"
       id="use1" />
  </g>
  <defs
     id="defs7">
    <g
       id="shape0"
       transform="translate(42.65,52.2)">
      <path
         d="m -35.6,29.15 q -3.8,-4.05 -5.7,-11.2 -2.75,-10.75 0.05,-21.05 2.85,-10.55 10.75,-18 l 5.85,-4.7 Q -12,-34.95 2.5,-40.45 q 6.4,-2.4 11,-3.2 6.15,-1 10.25,0.45 2.9,1.05 5.9,3.7 l 2.3,-1.25 q 1.5,-0.85 2.55,-0.9 1.65,-0.1 2.25,1.15 0.45,0.95 -0.35,2.75 l -0.8,1.85 -0.85,2 q 4.2,5.45 6.75,12.05 1.2,3.2 2,6.45 l 0.85,-0.1 0.85,0.05 q 1.1,0.35 1.4,2.35 l 0.15,2.6 -0.1,1.4 0.1,1 q -0.05,0.8 -0.85,1.5 l -1.2,0.7 v 1.8 q 0,4.05 -0.8,7.1 -2.1,8.1 -10.35,14.95 V 18 q 0.8,1.4 1,4.35 0.1,2 -0.2,3.15 -0.55,1.8 -2.15,3.4 -2.65,2.85 -7,4.9 -3.1,1.45 -8.15,2.9 l -4.2,0.8 Q 11.1,37.6 9.9,36.8 9.1,36.3 8.25,34.95 l -0.45,-0.9 -2.45,0.85 0.6,1.5 q 1,3.2 -0.4,5.4 -0.95,1.5 -3.95,3 -4.55,2.3 -8.1,3.45 -4.55,1.5 -8.55,1.5 -3.1,0 -5.75,-0.95 -2.95,-1.05 -4.9,-3.1 -1.4,-1.45 -2.6,-3.8 -2.55,-4.95 -3.4,-10.6 -1.9,-0.05 -3.9,-2.15 M 4.4,-8.7 v -0.05 q -0.2,-2 -0.15,-4.45 0,-10.7 3.55,-16.9 1.75,-3.05 3.95,-4.35 2.4,-1.35 5.45,-1 h 0.15 l 0.6,0.1 0.6,0.15 0.4,0.1 0.45,0.1 0.1,0.05 0.45,0.15 0.1,0.05 0.1,0.05 0.15,0.05 0.15,0.05 0.55,0.25 0.3,0.15 1.35,-0.95 0.2,-0.15 0.25,-0.15 0.8,-0.55 -0.25,-0.15 -0.15,-0.1 -0.1,-0.05 -0.65,-0.3 -1.95,-0.7 -0.3,-0.1 h -0.15 l -0.4,-0.1 h -0.1 l -0.65,-0.1 -5.4,0.5 -0.75,0.2 -0.45,0.1 q -4.2,1.1 -9.95,3.5 -7.7,3.15 -13.95,6.85 l -7.4,4.85 q -5.55,3.9 -8.1,6.5 -5.9,6.05 -8.05,14.85 l -0.05,0.2 -0.05,0.25 -0.05,0.2 -0.05,0.2 v 0.15 l -0.05,0.2 -0.05,0.2 -0.05,0.2 q -0.85,4.4 -0.55,8.75 l 0.05,0.6 0.05,0.65 0.75,4.4 0.25,0.95 q 0.95,3.7 2.7,5.85 l 0.5,-3.65 q 1.05,-5.25 3.5,-8.5 l 2.3,-2.4 0.2,-0.15 0.15,-0.1 0.15,-0.1 0.15,-0.1 0.15,-0.1 0.1,-0.1 0.4,-0.25 0.1,-0.05 q 1.55,-0.9 3.4,-1.15 l 0.6,-0.1 q 4.3,-0.35 8.3,2.95 2.75,2.25 5.7,7 l 0.15,0.25 0.2,-0.7 0.45,-2.2 0.3,-2.25 1.35,-6.3 Q -3.45,3.35 -2.9,2.6 -2.1,1.6 -1,1.75 -0.3,1.9 0.35,2.7 L 1,4.3 2.6,9.05 2.8,8.95 Q 3.55,8.5 4.6,8.15 6.7,7.5 7.45,8.6 7.8,9.05 7.8,9.85 v 1.35 l 0.3,1.85 0.45,3.8 v 2.05 l 0.65,3.5 -0.1,1.7 q -0.6,1.3 -2.55,1.4 l -2.2,-0.2 -2.15,-0.9 -4.55,-2.3 0.95,1.55 4.65,7.7 q 9.8,-6 20.3,-13.2 6.1,-4.2 8.75,-6.9 l 2.15,-2.4 q 2.7,-3.4 3.65,-7.05 0.65,-2.35 0.7,-5.35 l -3.5,1.4 -0.55,3.15 -0.05,0.25 -0.3,1.1 -0.15,0.5 -0.1,0.2 Q 33,6.2 30.8,8.3 l -0.45,0.45 -1.6,1.15 q -2.9,1.85 -6.55,1.9 -3.55,0 -6.65,-1.7 Q 9.75,6.9 6.25,-1.95 5.1,-4.8 4.6,-7.25 L 4.4,-8.7 m 22.15,-20.85 1.15,1.65 0.55,-1.25 0.7,-1.2 0.4,-0.75 -0.35,-0.45 -1.55,-1.65 -2.55,1.75 1.65,1.9 m -4.05,3.3 -1.5,-1.75 -0.5,-0.45 -0.7,0.45 -0.9,0.75 -0.35,0.45 q -0.05,0.3 0.25,0.6 l 0.05,0.05 v 0.05 l 0.8,0.85 0.75,0.7 0.05,0.05 0.25,0.25 1.8,2.05 q 0.6,0.85 0.95,0.75 l 0.65,-0.45 0.8,-0.45 -0.8,-1.45 -1.6,-2.45 m 13.75,7.7 q -1.7,-4.7 -4.35,-8.9 l -0.4,0.85 -1.45,2.9 1.75,3.9 0.2,0.5 0.15,0.3 0.15,0.35 1.25,3.65 0.15,0.55 v 0.05 l 2.25,-0.5 h 0.15 l 0.4,-0.05 0.3,-0.05 0.3,-0.05 0.25,-0.05 -0.3,-1.05 -0.4,-1.25 -0.1,-0.3 -0.1,-0.35 -0.2,-0.5 M 14.55,-29.9 q -0.95,0.45 -1.9,2.05 l -0.3,0.6 -0.1,0.2 -0.05,0.15 q -1.25,2.6 -1.85,6.15 l -0.05,0.5 -0.05,0.45 -0.05,0.15 0.6,-0.45 0.45,-0.35 q 1.9,-1.35 3.7,-2.05 l 0.6,-0.25 -1.1,-1.3 q -1.7,-1.9 -1.35,-3.15 0.2,-0.85 1.9,-2.15 l 0.95,-0.75 0.15,-0.1 -0.9,0.1 -0.65,0.2 m 4.35,11.2 -1.4,-1.7 -0.25,0.25 -1.35,1.05 -5.35,3.9 -0.7,0.45 -0.05,1.55 v 1.05 l 1.6,-1.6 q 1.3,-1.2 1.95,-1.45 h 0.1 l 0.05,-0.05 h 0.1 l 0.05,-0.05 h 0.05 l 0.05,-0.05 1.4,0.15 0.45,0.3 0.75,1.3 q 0.55,1.15 1.9,2.75 l 0.7,1 0.45,0.8 0.35,-0.4 1.5,-1.1 -0.05,-0.55 -0.4,-4.05 v -1.25 l -0.75,-0.95 -1.15,-1.35 m -5.7,17.85 0.05,0.1 v 0.05 l 3.2,-4.55 0.85,-1.15 -0.15,-0.2 -0.6,-0.8 -0.3,-0.4 -1.8,-2.5 -0.1,-0.1 -0.35,-0.25 -0.3,0.2 -1.65,2.2 -1.25,1.45 -0.15,0.15 0.65,1.8 0.35,0.85 0.1,0.15 0.05,0.2 1.2,2.45 0.2,0.35 m 6.85,-2.45 -0.2,0.4 v 0.05 l -0.1,0.15 -1.1,1.8 -0.15,0.2 -0.2,0.25 Q 17.25,1.1 16.85,2.1 L 16.3,3.4 q 1.5,1.4 3.15,2.15 1.25,0.55 2.6,0.7 L 22.95,6.3 22.7,5.8 Q 22.35,5 22.25,3.7 l -0.05,-0.45 -0.9,-8.2 -0.6,0.5 -0.65,1.15 m 4.25,-5.35 0.85,5.1 0.1,0.7 V -3.3 q 0.1,-2.75 0.4,-4.15 l 0.3,-1.85 -0.05,-1.4 q 0,-0.8 0.3,-1.3 0.35,-0.65 1.35,-0.9 l 1.3,-0.2 -1.85,-5.05 -1.9,1.55 -0.7,0.5 -0.05,1 -0.2,3.05 -0.25,2.2 0.4,1.2 m 5.5,1.6 q -0.3,1.45 -0.25,2.2 l 0.6,-0.1 -0.2,-2.8 -0.15,0.7 m 5.3,-1.2 0.05,0.65 0.1,0.6 0.1,-0.05 3.2,-1.35 v -0.2 l -0.4,-2.65 -3.45,0.75 0.1,0.6 0.2,1.05 0.1,0.6 m -48.15,-29.05 -4.15,-2.15 -2.3,-1.5 q -1.15,-0.75 -1.4,-1.3 l -0.2,-1.4 q 0,-1.4 0.3,-2 l 1.65,-1.55 6.9,-4.35 1.3,-0.6 1.4,0.15 q 0.8,0.5 1,2 l 0.75,5.5 0.25,4.9 q -0.1,2.05 -0.75,2.75 -0.6,0.6 -1.5,0.7 l -1.65,-0.2 q -0.7,-0.3 -1.6,-0.95 m 0,-9.25 -3.8,2.4 1.1,0.95 1.3,0.55 1.45,0.55 2,0.75 q 0.15,-0.6 -0.05,-1.4 l -0.25,-1.6 -0.5,-3 -1.25,0.8 m 11.8,85.05 0.95,-0.8 q 0.1,-0.4 -0.1,-1 -0.7,-2.05 -2.65,-5.05 l -5.65,-8.8 -1.7,-2.6 q -2.4,-3.5 -4.05,-5.3 l -1.2,-1.2 0.4,0.7 0.2,0.2 q 0.85,0.75 2,2.55 2.9,4.5 6.05,11.2 l 2.15,4.8 1.5,2.45 1.1,2.15 q 0.2,0.55 0.25,1.05 L -1.25,38.5 M 1.4,13.25 0.9,13.1 0.8,13.05 Q -0.4,12.4 -1.1,10.15 L -1.5,13.8 -1.95,16.4 -2,17 l 0.6,0.45 1.3,0.5 q 2.55,1 4.7,2.1 L 4.75,20.1 4.7,19.85 3.45,12.9 3.4,12.95 2.35,13.25 H 1.4 M -20.7,12.3 q -1.25,0.5 -2.15,1.9 l -0.4,0.7 -0.1,0.2 -0.45,1 -0.1,0.3 -0.5,1.6 1.45,0.05 q 0.1,-0.9 0.6,-2.05 l 0.25,-0.5 1.9,-2.85 0.55,-0.55 -1.05,0.2 m -1.8,12.4 q 0.2,-1.4 -0.85,-1.7 l -1.05,0.1 -0.95,0.5 v 3.2 l 1.8,-0.45 q 0.9,-0.5 1.05,-1.65 m 72,4.25 q -0.45,0.6 -1.6,1.05 l -4.1,1.85 -2.3,1.2 -1.8,1.3 q -1.2,0.75 -2.15,0.4 -1,-0.35 -1.45,-1.55 -0.2,-0.5 -0.3,-2.15 -0.15,-6.35 0.1,-11.4 0.1,-1.65 0.6,-2.3 0.9,-1.05 2.55,-0.7 1.2,0.25 3,1.95 l 3.8,3.75 2.75,2.75 0.9,1.05 q 0.9,1.55 0,2.8 M 39.75,28.4 v 0.75 l 5,-2.4 -0.1,-0.1 -1.2,-1.3 -0.35,-0.3 -3.4,-2.95 0.05,6.3 M 27.15,4.3 27.65,3.65 28.6,2.2 29.2,0.9 29.4,0.4 29.5,0.15 28.1,0.5 Q 26.8,0.6 26.15,0 25.7,-0.4 25.45,-1.15 L 26,5.4 27.15,4.3 M 26.85,25 q 0.9,-0.65 1.25,-1.55 0.2,-0.6 0.05,-1.6 l -1.9,1.25 0.3,1 0.1,1.1 0.2,-0.2"
         fill="#000000"
         fill-rule="evenodd"
         stroke="none"
         id="path1" />
      <path
         d="m 29,-31.55 -2.45,2 -1.65,-1.9 2.55,-1.75 1.55,1.65 m -8.6,7 -0.75,-0.7 -0.8,-0.85 v -0.05 L 18.8,-26.2 q -0.3,-0.3 -0.25,-0.6 l 0.35,-0.45 0.9,-0.75 0.7,-0.45 0.5,0.45 1.5,1.75 -2.1,1.7 m -5.25,9.35 -1.4,-0.15 -0.05,0.05 h -0.05 l -0.05,0.05 h -0.1 l -0.05,0.05 h -0.1 q -0.65,0.25 -1.95,1.45 l -1.6,1.6 v -1.05 l 0.05,-1.55 0.7,-0.45 5.35,-3.9 1.35,-1.05 0.25,-0.25 1.4,1.7 -3.75,3.5 m 1.4,7.8 -2.05,4.3 q -0.65,1.45 -1.3,2.25 L 13,-1.2 11.8,-3.65 11.75,-3.85 11.65,-4 11.3,-4.85 l 1,-2.2 q 1,-2.1 1.75,-2.9 l 0.4,-0.35 1.8,2.5 0.3,0.4 m 1.95,6.7 0.15,-0.2 1.1,-1.8 0.1,-0.15 V -2.9 l 0.2,-0.4 q 1,1.25 1.55,3.75 l 0.6,2.8 0.05,0.45 q 0.1,1.3 0.45,2.1 l 0.25,0.5 -0.9,-0.05 Q 20.7,6.1 19.45,5.55 18.85,3.75 18.6,0.85 L 18.5,-0.7 m 20.05,-7.9 h -0.1 l -3.35,0.35 -0.1,-0.6 -0.2,-1.05 -0.1,-0.6 3.45,-0.75 0.4,2.65 M -13,-42.1 l 0.05,-1.3 0.05,-1.45 -0.15,-1.2 v -0.5 l 1.25,-0.8 0.5,3 0.25,1.6 q 0.2,0.8 0.05,1.4 l -2,-0.75 M -0.1,17.95 -1.4,17.45 -2,17 l 0.05,-0.6 0.45,-2.6 0.4,-3.65 q 0.7,2.25 1.9,2.9 l 0.1,0.05 0.5,0.15 q -0.55,2.35 -1.5,4.7 m 43.2,7.1 -0.2,0.8 -0.9,1.4 -1.05,1 -1.2,0.15 -0.05,-6.3 3.4,2.95"
         fill="#ffffff"
         fill-rule="evenodd"
         stroke="none"
         id="path2" />
      <path
         d="m -35.7,10.7 -0.05,-0.6 q -0.3,-4.35 0.55,-8.75 l 0.05,-0.2 0.05,-0.2 0.05,-0.2 V 0.6 l 0.05,-0.2 0.05,-0.2 0.05,-0.25 0.05,-0.2 q 2.15,-8.8 8.05,-14.85 2.55,-2.6 8.1,-6.5 l 7.4,-4.85 q 6.25,-3.7 13.95,-6.85 5.75,-2.4 9.95,-3.5 l 0.45,-0.1 0.75,-0.2 5.4,-0.5 0.65,0.1 h 0.1 l 0.4,0.1 h 0.15 l 0.3,0.1 1.95,0.7 0.65,0.3 0.1,0.05 0.15,0.1 0.25,0.15 -0.8,0.55 -0.25,0.15 -0.2,0.15 -1.35,0.95 -0.3,-0.15 -0.55,-0.25 -0.15,-0.05 -0.15,-0.05 -0.1,-0.05 -0.1,-0.05 -0.45,-0.15 -0.1,-0.05 -0.45,-0.1 -0.4,-0.1 -0.6,-0.15 -0.6,-0.1 H 17.2 q -3.05,-0.35 -5.45,1 -2.2,1.3 -3.95,4.35 -3.55,6.2 -3.55,16.9 -0.05,2.45 0.15,4.45 v 0.05 l -1.1,1.15 v -0.1 L 3.15,-9.7 2.6,-11.5 1.75,-12.7 0,-14.45 q -1.05,-0.65 -2.45,-0.75 -1.45,-0.1 -2.25,0.45 l -0.75,0.9 q -0.2,0.6 0,1.1 l 0.45,0.8 v 1 l 0.2,1.5 0.25,2.8 0.35,1.1 0.05,1.05 q -0.1,1 0.25,1.8 l -1.45,0.75 -0.1,0.05 0.2,-0.55 Q -5.1,-3.35 -5.7,-4 -6.4,-4.7 -7.25,-4.45 l -1.1,0.4 L -8.8,-5.4 V -5.7 L -7.85,-6.2 -7,-7 q 0.35,-0.7 0,-1.35 -0.35,-0.7 -1.2,-0.7 l -0.85,0.25 -0.1,-0.45 -0.1,-0.45 q 0.25,-0.15 0.4,-0.25 l 1.35,-0.4 q 0.95,-0.45 0.75,-1.5 -0.05,-0.85 -1,-1.25 l -1.6,-0.1 q -1.15,0.1 -2.1,0.8 l -0.8,0.7 -0.25,1.05 0.2,0.85 0.25,3.65 0.25,2.25 0.3,1.55 0.3,0.85 0.4,0.7 q 0.6,0.8 1.7,0.85 -6.4,3.35 -11.75,5.85 -1.85,0.25 -3.4,1.15 l -0.1,0.05 -0.4,0.25 -0.1,0.1 -0.15,0.1 -0.15,0.1 -0.15,0.1 -0.15,0.1 -0.2,0.15 -4.6,1.85 q -2.35,0.95 -3.8,1 L -35.7,10.7 m 35.05,-21.2 q 1,1.35 1,2.55 L 0,-6.6 -1.2,-5.25 Q -1.15,-6 -1.55,-7.4 l -0.7,-4.35 q 0.9,0.3 1.6,1.25 m -22.3,12.8 q 0.35,0.35 0.95,0.3 0.6,-0.05 0.9,-0.4 0.45,-0.55 0.45,-1.5 0.05,-2.05 -0.45,-3.9 l -0.45,-1.6 -0.15,-1 -0.7,-0.85 -0.75,0.1 -0.55,0.6 -0.3,1.55 0.1,1.95 0.35,3.45 q 0.2,0.95 0.6,1.3 m 9.1,-2.7 q 0.45,0 0.9,-0.3 l 0.6,-0.8 q 0.3,-1.05 -0.45,-1.85 -0.25,-0.3 -0.95,-0.8 -0.5,-0.35 -0.8,-0.65 L -14,-6.35 q 0.65,-1.45 0.75,-2.05 0.25,-1.3 -0.35,-2.15 v -0.05 l -0.2,-0.5 q -0.4,-0.6 -1.1,-0.6 -0.75,0.1 -1.05,0.7 l -0.05,0.3 -0.55,1.15 -0.2,1.4 -0.35,0.85 -3,-2 -0.65,-0.35 q -0.65,-0.1 -1.05,0.4 -0.4,0.5 -0.2,1.05 l 0.35,0.55 0.85,1.15 1.15,0.9 1.1,0.85 0.6,0.55 -0.05,0.3 -0.05,0.9 -0.25,0.8 -0.25,1.85 0.1,1.1 0.6,0.75 0.9,0.2 q 1.1,-0.1 1.3,-1.15 v -1.2 l 0.2,-0.75 0.2,0.2 q 0.7,0.75 1.4,0.8 m -15.25,-2.3 0.05,-0.4 0.45,-0.2 2.6,-1.5 1.05,-0.6 q 0.2,-0.3 0.1,-0.65 L -25.2,-6.7 q -0.5,-0.45 -1.3,-0.45 -1.5,0 -3.7,1.35 l -0.4,0.3 -0.6,0.15 -0.7,0.65 -0.35,0.85 -0.15,2.2 -0.3,2.4 0.2,4.3 0.1,1.75 q 0.4,1.1 1.3,1 0.7,-0.1 1.05,-0.85 0.15,-0.45 0.15,-1.45 l 0.2,-3.75 0.75,-0.2 L -26,0 l 0.9,-0.8 q 0.45,-0.75 0,-1.45 -0.45,-0.7 -1.35,-0.6 l -1.15,0.45 q -0.9,0.45 -1.6,0.5 l 0.1,-0.8 m 3.8,-10.7 q -0.7,0.25 -1.2,0.85 -0.5,0.7 -0.5,1.45 0,0.8 0.5,1.45 0.5,0.6 1.2,0.85 l 1.55,-0.05 q 0.75,-0.3 1.2,-0.95 0.4,-0.65 0.35,-1.45 -0.05,-0.85 -0.55,-1.4 -0.45,-0.55 -1.15,-0.75 -0.7,-0.2 -1.4,0"
         fill="#505050"
         fill-rule="evenodd"
         stroke="none"
         id="path3" />
      <path
         d="m -35.7,10.7 1.65,0.15 q 1.45,-0.05 3.8,-1 l 4.6,-1.85 -2.3,2.4 q -2.45,3.25 -3.5,8.5 l -0.5,3.65 q -1.75,-2.15 -2.7,-5.85 l -0.25,-0.95 -0.75,-4.4 -0.05,-0.65 M -20.85,5.9 Q -15.5,3.4 -9.1,0.05 h 0.2 Q -7.85,0 -6.95,-0.6 q 1.1,-0.6 1.5,-1.3 l 0.1,-0.05 1.45,-0.75 0.1,0.2 q 0.45,1.05 1.45,1.3 l 1.6,-0.2 1.3,-0.95 1.2,-1.15 Q 2.8,-4.55 3.15,-5.7 L 3.3,-7.55 4.4,-8.7 4.6,-7.25 q 0.5,2.45 1.65,5.3 3.5,8.85 9.3,12.05 3.1,1.7 6.65,1.7 3.65,-0.05 6.55,-1.9 L 30.35,8.75 30.8,8.3 Q 33,6.2 34.15,3.05 l 0.1,-0.2 0.15,-0.5 0.3,-1.1 0.05,-0.25 0.55,-3.15 3.5,-1.4 q -0.05,3 -0.7,5.35 -0.95,3.65 -3.65,7.05 l -2.15,2.4 q -2.65,2.7 -8.75,6.9 -10.5,7.2 -20.3,13.2 l -4.65,-7.7 -0.95,-1.55 4.55,2.3 2.15,0.9 2.2,0.2 Q 8.5,25.4 9.1,24.1 L 9.2,22.4 8.55,18.9 V 16.85 L 8.1,13.05 7.8,11.2 V 9.85 Q 7.8,9.05 7.45,8.6 6.7,7.5 4.6,8.15 3.55,8.5 2.8,8.95 L 2.6,9.05 1,4.3 0.35,2.7 Q -0.3,1.9 -1,1.75 -2.1,1.6 -2.9,2.6 -3.45,3.35 -3.8,4.55 l -1.35,6.3 -0.3,2.25 -0.45,2.2 -0.2,0.7 -0.15,-0.25 q -2.95,-4.75 -5.7,-7 -4,-3.3 -8.3,-2.95 l -0.6,0.1 M 29,-31.55 l 0.35,0.45 -0.4,0.75 -0.7,1.2 -0.55,1.25 -1.15,-1.65 2.45,-2 m 7.25,13 0.2,0.5 0.1,0.35 0.1,0.3 0.4,1.25 0.3,1.05 -0.25,0.05 -0.3,0.05 -0.3,0.05 -0.4,0.05 h -0.15 l -2.25,0.5 v -0.05 L 33.55,-15 32.3,-18.65 32.15,-19 32,-19.3 l -0.2,-0.5 -1.75,-3.9 1.45,-2.9 0.4,-0.85 q 2.65,4.2 4.35,8.9 m -1.15,10.3 3.35,-0.35 h 0.1 v 0.2 l -3.2,1.35 -0.1,0.05 -0.1,-0.6 -0.05,-0.65 m -35.2,26.2 q 0.95,-2.35 1.5,-4.7 h 0.95 l 1.05,-0.3 0.05,-0.05 1.25,6.95 -0.1,0.2 q -2.15,-1.1 -4.7,-2.1"
         fill="#3c3c3c"
         fill-rule="evenodd"
         stroke="none"
         id="path4" />
      <path
         d="m 20.4,-24.55 2.1,-1.7 1.6,2.45 0.8,1.45 -0.8,0.45 -0.65,0.45 q -0.35,0.1 -0.95,-0.75 l -1.8,-2.05 -0.25,-0.25 -0.05,-0.05 m -5.85,-5.35 0.65,-0.2 0.9,-0.1 -0.15,0.1 -0.95,0.75 q -1.7,1.3 -1.9,2.15 -0.35,1.25 1.35,3.15 l 1.1,1.3 -0.6,0.25 q -1.8,0.7 -3.7,2.05 l -0.45,0.35 -0.6,0.45 0.05,-0.15 0.05,-0.45 0.05,-0.5 q 0.6,-3.55 1.85,-6.15 l 0.05,-0.15 0.1,-0.2 0.3,-0.6 q 0.95,-1.6 1.9,-2.05 m 0.6,14.7 3.75,-3.5 1.15,1.35 0.75,0.95 v 1.25 l 0.4,4.05 0.05,0.55 -1.5,1.1 -0.35,0.4 -0.45,-0.8 -0.7,-1 q -1.35,-1.6 -1.9,-2.75 l -0.75,-1.3 -0.45,-0.3 m 1.4,7.8 0.6,0.8 0.15,0.2 -0.85,1.15 -3.2,4.55 v -0.05 l -0.05,-0.1 q 0.65,-0.8 1.3,-2.25 l 2.05,-4.3 m -5.25,2.55 -0.65,-1.8 0.15,-0.15 1.25,-1.45 1.65,-2.2 0.3,-0.2 0.35,0.25 0.1,0.1 -0.4,0.35 q -0.75,0.8 -1.75,2.9 l -1,2.2 m 7.2,4.15 0.1,1.55 q 0.25,2.9 0.85,4.7 Q 17.8,4.8 16.3,3.4 l 0.55,-1.3 q 0.4,-1 1.45,-2.55 l 0.2,-0.25 m 3.7,3.95 -0.6,-2.8 q -0.55,-2.5 -1.55,-3.75 l 0.65,-1.15 0.6,-0.5 0.9,8.2 m 7.6,-10.3 0.15,-0.7 0.2,2.8 -0.6,0.1 Q 29.5,-5.6 29.8,-7.05 m -5.5,-1.6 -0.4,-1.2 0.25,-2.2 0.2,-3.05 0.05,-1 0.7,-0.5 1.9,-1.55 1.85,5.05 -1.3,0.2 q -1,0.25 -1.35,0.9 -0.3,0.5 -0.3,1.3 l 0.05,1.4 -0.3,1.85 q -0.3,1.4 -0.4,4.15 v 0.45 l -0.1,-0.7 -0.85,-5.1 M -1.25,38.5 -2,38.85 Q -2.05,38.35 -2.25,37.8 L -3.35,35.65 -4.85,33.2 -7,28.4 q -3.15,-6.7 -6.05,-11.2 -1.15,-1.8 -2,-2.55 l -0.2,-0.2 -0.4,-0.7 1.2,1.2 q 1.65,1.8 4.05,5.3 l 1.7,2.6 5.65,8.8 q 1.95,3 2.65,5.05 0.2,0.6 0.1,1 l -0.95,0.8 m -19.45,-26.2 1.05,-0.2 -0.55,0.55 -1.9,2.85 -0.25,0.5 q -0.5,1.15 -0.6,2.05 L -24.4,18 l 0.5,-1.6 0.1,-0.3 0.45,-1 0.1,-0.2 0.4,-0.7 q 0.9,-1.4 2.15,-1.9 m -1.8,12.4 q -0.15,1.15 -1.05,1.65 l -1.8,0.45 v -3.2 l 0.95,-0.5 1.05,-0.1 q 1.05,0.3 0.85,1.7 M 28.6,2.2 28.05,2.55 27.5,3.4 27.15,4.3 26,5.4 25.45,-1.15 Q 25.7,-0.4 26.15,0 26.8,0.6 28.1,0.5 L 29.5,0.15 29.4,0.4 29.2,0.9 28.6,2.2 m -1.75,22.8 -0.2,0.2 -0.1,-1.1 -0.3,-1 1.9,-1.25 q 0.15,1 -0.05,1.6 -0.35,0.9 -1.25,1.55"
         fill="#262626"
         fill-rule="evenodd"
         stroke="none"
         id="path5" />
      <path
         d="M -9.1,0.05 Q -10.2,0 -10.8,-0.8 l -0.4,-0.7 -0.3,-0.85 -0.3,-1.55 -0.25,-2.25 -0.25,-3.65 -0.2,-0.85 0.25,-1.05 0.8,-0.7 q 0.95,-0.7 2.1,-0.8 l 1.6,0.1 q 0.95,0.4 1,1.25 0.2,1.05 -0.75,1.5 l -1.35,0.4 q -0.15,0.1 -0.4,0.25 l 0.1,0.45 0.1,0.45 0.85,-0.25 q 0.85,0 1.2,0.7 0.35,0.65 0,1.35 l -0.85,0.8 -0.95,0.5 v 0.3 l 0.45,1.35 1.1,-0.4 Q -6.4,-4.7 -5.7,-4 q 0.6,0.65 0.45,1.55 l -0.2,0.55 q -0.4,0.7 -1.5,1.3 -0.9,0.6 -1.95,0.65 h -0.2 m 5.2,-2.75 q -0.35,-0.8 -0.25,-1.8 l -0.05,-1.05 -0.35,-1.1 -0.25,-2.8 -0.2,-1.5 v -1 l -0.45,-0.8 q -0.2,-0.5 0,-1.1 l 0.75,-0.9 q 0.8,-0.55 2.25,-0.45 1.4,0.1 2.45,0.75 l 1.75,1.75 0.85,1.2 0.55,1.8 0.15,2.05 v 0.1 L 3.15,-5.7 q -0.35,1.15 -1.4,2.2 l -1.2,1.15 -1.3,0.95 -1.6,0.2 q -1,-0.25 -1.45,-1.3 l -0.1,-0.2 m 3.25,-7.8 q -0.7,-0.95 -1.6,-1.25 l 0.7,4.35 q 0.4,1.4 0.35,2.15 L 0,-6.6 0.35,-7.95 q 0,-1.2 -1,-2.55 m -24.65,-2.9 q 0.7,-0.2 1.4,0 0.7,0.2 1.15,0.75 0.5,0.55 0.55,1.4 0.05,0.8 -0.35,1.45 -0.45,0.65 -1.2,0.95 l -1.55,0.05 q -0.7,-0.25 -1.2,-0.85 -0.5,-0.65 -0.5,-1.45 0,-0.75 0.5,-1.45 0.5,-0.6 1.2,-0.85 m -3.8,10.7 -0.1,0.8 q 0.7,-0.05 1.6,-0.5 l 1.15,-0.45 q 0.9,-0.1 1.35,0.6 0.45,0.7 0,1.45 L -26,0 l -2.95,1.55 -0.75,0.2 -0.2,3.75 q 0,1 -0.15,1.45 -0.35,0.75 -1.05,0.85 -0.9,0.1 -1.3,-1 l -0.1,-1.75 -0.2,-4.3 0.3,-2.4 0.15,-2.2 0.35,-0.85 0.7,-0.65 0.6,-0.15 0.4,-0.3 q 2.2,-1.35 3.7,-1.35 0.8,0 1.3,0.45 l 0.35,0.65 q 0.1,0.35 -0.1,0.65 l -1.05,0.6 -2.6,1.5 -0.45,0.2 -0.05,0.4 m 15.25,2.3 q -0.7,-0.05 -1.4,-0.8 l -0.2,-0.2 -0.2,0.75 v 1.2 q -0.2,1.05 -1.3,1.15 l -0.9,-0.2 -0.6,-0.75 -0.1,-1.1 0.25,-1.85 0.25,-0.8 0.05,-0.9 0.05,-0.3 -0.6,-0.55 -1.1,-0.85 -1.15,-0.9 -0.85,-1.15 L -22,-8.2 q -0.2,-0.55 0.2,-1.05 0.4,-0.5 1.05,-0.4 l 0.65,0.35 3,2 0.35,-0.85 0.2,-1.4 0.55,-1.15 0.05,-0.3 q 0.3,-0.6 1.05,-0.7 0.7,0 1.1,0.6 l 0.2,0.5 v 0.05 q 0.6,0.85 0.35,2.15 -0.1,0.6 -0.75,2.05 l -0.55,1.55 q 0.3,0.3 0.8,0.65 0.7,0.5 0.95,0.8 0.75,0.8 0.45,1.85 l -0.6,0.8 q -0.45,0.3 -0.9,0.3 m -9.1,2.7 q -0.4,-0.35 -0.6,-1.3 l -0.35,-3.45 -0.1,-1.95 0.3,-1.55 0.55,-0.6 0.75,-0.1 0.7,0.85 0.15,1 0.45,1.6 q 0.5,1.85 0.45,3.9 0,0.95 -0.45,1.5 -0.3,0.35 -0.9,0.4 -0.6,0.05 -0.95,-0.3"
         fill="#351b1b"
         fill-rule="evenodd"
         stroke="none"
         id="path6" />
    </g>
    <g
       id="sprite1"
       transform="translate(17.4,15.85)">
      <use
         ffdec:characterId="31"
         height="57.200001"
         transform="matrix(0.5366,0,0,0.5366,-16.6582,-14.546)"
         width="70.75"
         xlink:href="#sprite2"
         id="use6" />
    </g>
    <g
       id="sprite2"
       transform="translate(-8.65,-10.35)">
      <use
         ffdec:characterId="30"
         height="57.200001"
         transform="translate(8.65,10.35)"
         width="70.75"
         xlink:href="#shape1"
         id="use7" />
    </g>
    <g
       id="shape1"
       transform="translate(-8.65,-10.35)">
      <path
         d="m 14.8,41.7 q 0.65,-1.75 2.65,-2.5 1.8,-0.8 3.7,-0.25 1.15,0.45 2.25,1.2 l 0.9,0.4 q 1.65,0.9 2.85,2.5 L 37.8,30.1 q 2.35,-2.8 3.75,-3.95 1.5,-1.15 4.25,-2.4 18.2,-8.85 27.65,-12.6 2.15,-0.8 3.25,-0.8 h 0.8 l 1.9,2.4 -0.2,0.8 q -0.2,1.1 -1.55,3 -5.85,8.25 -18.85,23.8 -1.85,2.35 -3.35,3.5 -1.4,1.15 -4.75,2.75 l -15.15,7.15 q 1.2,1.6 1.75,3.4 l 0.2,1 0.55,2.5 q 0.1,1.95 -1.1,3.55 -1.2,1.65 -3.05,1.9 l -1.3,0.05 q -1.65,0.2 -3.45,-0.65 -1.85,-0.9 -3,-2.6 L 25,60.95 23.8,62.1 q -2.6,2.85 -4.3,3.95 -2.85,1.8 -5.5,1.45 l -1.65,-0.5 -1.2,-0.7 -0.2,-0.2 q -1,-0.85 -1.6,-1.9 L 9.25,64 9.15,63.8 8.75,62.4 q -0.2,-0.8 -0.05,-1.7 0.25,-2.65 2.7,-5.05 1.5,-1.3 4.9,-3.15 L 17.7,51.55 16.05,50 q -1.35,-1.5 -1.8,-3.6 -0.4,-1.85 0.25,-3.45 l 0.3,-1.25"
         fill="#000000"
         fill-opacity="0.372549"
         fill-rule="evenodd"
         stroke="none"
         id="path7" />
    </g>
  </defs>
</svg>
