<?xml version="1.0" encoding="UTF-8" standalone="no"?>
<svg
   ffdec:objectType="frame"
   height="57.367039"
   width="66.738647"
   version="1.1"
   id="svg4"
   xmlns:xlink="http://www.w3.org/1999/xlink"
   xmlns="http://www.w3.org/2000/svg"
   xmlns:svg="http://www.w3.org/2000/svg"
   xmlns:ffdec="https://www.free-decompiler.com/flash">
  <g
     transform="translate(36.638095,30.95)"
     id="g1">
    <use
       ffdec:characterId="17"
       height="119.15"
       id="rarity"
       transform="translate(-58.5,-60.65)"
       width="119.15"
       xlink:href="#sprite0" />
    <use
       ffdec:characterId="762"
       height="57.349998"
       transform="translate(-36.65,-30.95)"
       width="66.75"
       xlink:href="#shape0"
       id="use1" />
  </g>
  <defs
     id="defs4">
    <g
       id="shape0"
       transform="translate(37.2,31.7)">
      <path
         d="m 20.3,-25.15 -0.5,-0.35 -2.05,-1.15 -1.35,-0.05 -0.1,0.05 -0.35,0.3 q -5.65,4.5 -12.65,3.3 -1.65,-0.3 -3,-1.3 l -0.85,-0.55 h -2.5 q -5.75,2.8 -9.5,7.75 l -0.8,1.05 -1.3,2 q -4.95,8.65 -4.85,18.7 0.35,6.3 4.8,10.6 l 0.35,0.3 q 4.95,4.55 11.7,4.75 6.55,0.2 12.7,-1.3 4.85,-1.15 6.7,-5.2 V 13.3 12.85 12.45 L 16.15,11.2 15.2,9.65 14.9,9.25 Q 6.45,4.6 -3.35,6.9 l -0.55,0.2 -0.2,0.85 0.35,1.1 0.1,0.6 0.05,0.1 q 0.8,1.4 2.2,2.3 l 2.4,1.6 0.5,0.1 0.5,0.1 0.25,0.25 0.15,0.2 0.1,0.25 v 0.2 0.2 l -0.05,0.2 -0.1,0.2 -0.1,0.25 Q -2.1,16.25 -5.6,12.9 l -0.3,-0.3 q -3,-1.45 -2.85,-6.3 L -8.7,5.55 -8.8,5.15 -8.55,4.4 -8.5,3.95 -8.35,3.8 q 2.05,-5.9 7.5,-9.25 L 1.35,-6.3 3.4,-6.35 16.2,-6.8 18.15,-7.35 q 3.2,-1.25 5.1,-4.3 0.55,-1.05 0.75,-2.15 l 0.4,-1.95 0.3,-0.85 0.05,-0.2 -0.25,-1.35 -0.15,-0.55 -0.4,-0.9 q -0.2,-0.4 -0.25,-0.85 l -2.2,-3.4 -1.2,-1.3 m -4.6,-6.55 q 7.6,0.2 11.6,6.9 3.2,5.4 1.85,11.3 Q 26.8,-3 15.7,-0.9 8.85,0.35 2.4,-1.35 q -1.25,0.2 -2.25,0.9 -1.4,0.9 -2.4,2.2 l -0.1,0.1 q 12.4,-2.55 21.45,5.2 1.25,1.05 1.7,2.6 2.7,9 -6.3,12.95 -10.45,4.55 -22.25,2.35 -5.45,-1 -9.55,-4.35 -0.85,0.6 -2.5,0.85 -1.75,0.25 -3.35,1.1 -4.9,2.55 -10.05,1.55 -2.85,-0.55 -3.7,-3.35 -0.55,-1.75 -0.05,-3.6 3.7,-5.15 9.85,-6.8 L -24,9.5 q -1.85,-8.45 0.75,-16.95 2.1,-6.95 6.65,-12.8 2.65,-3.45 5.85,-6.35 6.65,-5.9 14.5,-1.65 l 1.35,0.7 q 3.9,-0.05 7.1,-2.5 1.65,-1.2 3.5,-1.65 m 1.45,18.75 q -2.55,2.3 -6.6,3.15 -8.6,1.85 -13.5,-3.7 l 0.55,1.85 -0.1,0.4 -0.2,0.45 -0.2,0.45 q -3.65,1.2 -4.25,-2.95 -0.35,-2.4 0.8,-4.3 3.6,-1.95 7.5,-2.05 l 1.4,0.3 0.85,0.4 0.1,0.2 0.15,0.25 0.05,0.2 0.05,0.2 -0.05,0.2 -0.05,0.25 -0.15,0.2 -0.1,0.2 -2.85,1.15 3,0.9 q 5.05,1.45 9.45,-1.35 l 0.55,-0.3 -0.15,-0.05 -0.35,-0.2 -0.2,-0.2 -0.15,-0.25 -0.2,-0.6 -0.05,-0.25 0.05,-0.2 q 0.25,-1.2 1.35,-1.7 l 1.35,-0.35 q 4.2,-1.3 6.1,1.85 0.6,1 0.55,2.15 l 0.05,0.2 0.15,0.2 0.1,0.25 0.1,0.2 v 0.2 l -0.05,1.1 -0.5,1.25 -0.25,0.15 -0.25,0.05 -0.45,-0.1 -0.15,-0.25 -0.7,-1.05 q -0.45,-0.35 -0.75,-0.8 l -1.4,1.75 -0.6,0.55 m -39.45,27.7 -1,-2.45 q -4.7,1.55 -8.55,4.8 -0.8,0.7 -1.3,1.65 l 0.25,0.4 0.2,0.2 0.35,0.45 0.2,0.2 q 3.8,0.35 7.6,-1.8 1.75,-1.05 3.6,-1.35 l -1.35,-2.1"
         fill="#000000"
         fill-rule="evenodd"
         stroke="none"
         id="path1" />
      <path
         d="m 15.95,-26.35 q 2.55,0.25 4.35,1.2 l 1.2,1.3 2.2,3.4 q 0.05,0.45 0.25,0.85 l 0.4,0.9 0.05,1.45 q 0,7.1 -6.25,9.9 L 16.2,-6.8 3.4,-6.35 1.35,-6.3 q -6.6,-1.15 -11.9,-5.25 l -2.4,4.45 -1.85,4.8 -0.45,3.45 q -0.1,1.05 -0.7,1.95 v 1.05 l -0.35,1.05 0.05,2.4 q 0.05,0.75 -0.05,1.5 0.85,1.85 1.2,3.85 l 0.4,2.15 v 0.1 q -4.45,-4.3 -4.8,-10.6 -0.1,-10.05 4.85,-18.7 l 1.3,-2 0.75,-0.85 0.05,-0.2 q 3.75,-4.95 9.5,-7.75 h 2.5 l 0.85,0.55 q 1.35,1 3,1.3 7,1.2 12.65,-3.3 M -3.6,9.75 -3.65,9.65 -3.75,9.05 -4.1,7.95 -3.9,7.1 -3.35,6.9 Q 6.45,4.6 14.9,9.25 l 0.3,0.4 0.95,1.55 0.6,1.25 v 0.4 0.45 0.45 l -3.4,-1.1 q -3.15,-1.4 -6.1,-3 l -7.5,-0.35 -1.3,-0.05 -0.3,0.1 -0.65,0.1 -1.1,0.3 m 21.35,-23.25 1.4,-1.75 q 0.3,0.45 0.75,0.8 l 0.7,1.05 0.15,0.25 0.45,0.1 0.25,-0.05 0.25,-0.15 0.5,-1.25 0.05,-1.1 v -0.2 l -0.1,-0.2 -0.1,-0.25 -0.15,-0.2 -0.05,-0.2 q 0.05,-1.15 -0.55,-2.15 -1.9,-3.15 -6.1,-1.85 l -1.35,0.35 q -1.1,0.5 -1.35,1.7 l -0.05,0.2 0.05,0.25 0.2,0.6 0.15,0.25 0.2,0.2 0.35,0.2 0.15,0.05 -0.55,0.3 q -4.4,2.8 -9.45,1.35 l -3,-0.9 2.85,-1.15 0.1,-0.2 0.15,-0.2 0.05,-0.25 0.05,-0.2 -0.05,-0.2 -0.05,-0.2 -0.15,-0.25 -0.1,-0.2 -0.85,-0.4 -1.4,-0.3 q -3.9,0.1 -7.5,2.05 -1.15,1.9 -0.8,4.3 0.6,4.15 4.25,2.95 l 0.2,-0.45 0.2,-0.45 0.1,-0.4 -0.55,-1.85 q 4.9,5.55 13.5,3.7 4.05,-0.85 6.6,-3.15 l 1.65,-1.05 -1.05,0.5 m -50.45,32.85 -0.2,-0.2 -0.25,-0.4 q 0.5,-0.95 1.3,-1.65 3.85,-3.25 8.55,-4.8 l 1,2.45 q -2.15,1.55 -5.15,2.25 -2.9,0.65 -5.25,2.35"
         fill="#af9292"
         fill-rule="evenodd"
         stroke="none"
         id="path2" />
      <path
         d="m 1.35,-6.3 -2.2,0.85 Q -6.3,-2.1 -8.35,3.8 L -8.5,3.95 -8.55,4.4 -8.8,5.15 -8.7,5.55 -8.75,6.3 q -0.15,4.85 2.85,6.3 l 0.3,0.3 q 3.5,3.35 7.85,2.7 l 0.1,-0.25 0.1,-0.2 0.05,-0.2 v -0.2 -0.2 L 2.4,14.3 2.25,14.1 2,13.85 1.5,13.75 1,13.65 -1.4,12.05 q -1.4,-0.9 -2.2,-2.3 l 1.1,-0.3 0.65,-0.1 0.3,-0.1 1.3,0.05 7.5,0.35 q 2.95,1.6 6.1,3 l 3.4,1.1 q -1.85,4.05 -6.7,5.2 -6.15,1.5 -12.7,1.3 -6.75,-0.2 -11.7,-4.75 l -0.35,-0.3 v -0.1 l -0.4,-2.15 q -0.35,-2 -1.2,-3.85 0.1,-0.75 0.05,-1.5 L -16.3,5.2 -15.95,4.15 V 3.1 q 0.6,-0.9 0.7,-1.95 l 0.45,-3.45 1.85,-4.8 2.4,-4.45 q 5.3,4.1 11.9,5.25 M -32.7,19.35 q 2.35,-1.7 5.25,-2.35 3,-0.7 5.15,-2.25 l 1.35,2.1 q -1.85,0.3 -3.6,1.35 -3.8,2.15 -7.6,1.8 l -0.2,-0.2 -0.35,-0.45"
         fill="#927b7b"
         fill-rule="evenodd"
         stroke="none"
         id="path3" />
    </g>
    <g
       id="sprite1"
       transform="translate(17.4,15.85)">
      <use
         ffdec:characterId="31"
         height="57.200001"
         transform="matrix(0.5366,0,0,0.5366,-16.6582,-14.546)"
         width="70.75"
         xlink:href="#sprite2"
         id="use3" />
    </g>
    <g
       id="sprite2"
       transform="translate(-8.65,-10.35)">
      <use
         ffdec:characterId="30"
         height="57.200001"
         transform="translate(8.65,10.35)"
         width="70.75"
         xlink:href="#shape1"
         id="use4" />
    </g>
    <g
       id="shape1"
       transform="translate(-8.65,-10.35)">
      <path
         d="m 14.8,41.7 q 0.65,-1.75 2.65,-2.5 1.8,-0.8 3.7,-0.25 1.15,0.45 2.25,1.2 l 0.9,0.4 q 1.65,0.9 2.85,2.5 L 37.8,30.1 q 2.35,-2.8 3.75,-3.95 1.5,-1.15 4.25,-2.4 18.2,-8.85 27.65,-12.6 2.15,-0.8 3.25,-0.8 h 0.8 l 1.9,2.4 -0.2,0.8 q -0.2,1.1 -1.55,3 -5.85,8.25 -18.85,23.8 -1.85,2.35 -3.35,3.5 -1.4,1.15 -4.75,2.75 l -15.15,7.15 q 1.2,1.6 1.75,3.4 l 0.2,1 0.55,2.5 q 0.1,1.95 -1.1,3.55 -1.2,1.65 -3.05,1.9 l -1.3,0.05 q -1.65,0.2 -3.45,-0.65 -1.85,-0.9 -3,-2.6 L 25,60.95 23.8,62.1 q -2.6,2.85 -4.3,3.95 -2.85,1.8 -5.5,1.45 l -1.65,-0.5 -1.2,-0.7 -0.2,-0.2 q -1,-0.85 -1.6,-1.9 L 9.25,64 9.15,63.8 8.75,62.4 q -0.2,-0.8 -0.05,-1.7 0.25,-2.65 2.7,-5.05 1.5,-1.3 4.9,-3.15 L 17.7,51.55 16.05,50 q -1.35,-1.5 -1.8,-3.6 -0.4,-1.85 0.25,-3.45 l 0.3,-1.25"
         fill="#000000"
         fill-opacity="0.372549"
         fill-rule="evenodd"
         stroke="none"
         id="path4" />
    </g>
  </defs>
</svg>
