<?xml version="1.0" encoding="UTF-8" standalone="no"?>
<svg
   ffdec:objectType="frame"
   height="97.476669"
   width="99.774071"
   version="1.1"
   id="svg11"
   xmlns:xlink="http://www.w3.org/1999/xlink"
   xmlns="http://www.w3.org/2000/svg"
   xmlns:svg="http://www.w3.org/2000/svg"
   xmlns:ffdec="https://www.free-decompiler.com/flash">
  <g
     transform="translate(47.434416,49.876667)"
     id="g1">
    <use
       ffdec:characterId="17"
       height="119.15"
       id="rarity"
       transform="translate(-58.5,-60.65)"
       width="119.15"
       xlink:href="#sprite0" />
    <use
       ffdec:characterId="623"
       height="0.64999998"
       transform="translate(35.1,-14.6)"
       width="0.1"
       xlink:href="#shape0"
       id="use1" />
    <use
       ffdec:characterId="630"
       height="102.75"
       id="part_1"
       transform="translate(-50.1,-51.75)"
       width="99.900002"
       xlink:href="#sprite1" />
    <use
       ffdec:characterId="637"
       height="86.400002"
       id="part_0"
       transform="translate(-42.5,-55.5)"
       width="103.85"
       xlink:href="#sprite2" />
  </g>
  <defs
     id="defs11">
    <g
       id="shape0"
       transform="translate(-35.5,13.8)">
      <path
         d="m 35.5,-13.45 0.1,-0.35 v 0.65 l -0.1,-0.3"
         fill="#686868"
         fill-rule="evenodd"
         stroke="none"
         id="path1" />
    </g>
    <g
       id="sprite1"
       transform="translate(6,16.85)">
      <use
         ffdec:characterId="624"
         height="90"
         transform="translate(-3.35,-7.45)"
         width="84.449997"
         xlink:href="#shape1"
         id="use2" />
    </g>
    <g
       id="shape1"
       transform="translate(3.35,7.45)">
      <path
         d="m 73.05,5.45 q 1.55,1.35 1.7,2.7 0.2,1.1 -0.9,2.95 L 69.45,18.4 62.8,27.95 54.85,39 51.9,42.9 q -1.55,1.95 -3.05,2.35 l -3.25,-0.1 q -2,-0.25 -2.95,0.45 l -1.45,1.3 q -0.8,0.8 -2.45,1.15 l -1.95,0.6 -0.75,0.25 q -0.45,0.2 -0.9,0.55 -0.75,0.5 -1.45,1.3 -0.7,0.6 -1.65,2 l -0.25,0.3 -7.55,10.75 -2.75,3.6 -2.05,2.7 -1.05,2.05 -0.95,2.05 q -1.3,2.25 -3.7,3.6 -2.4,1.35 -5,1.15 -2.1,-0.1 -3.95,-1.1 -1.85,-1.1 -2.95,-2.8 -0.7,-1.1 -1.45,-3.6 -0.75,-3.1 -0.1,-4.9 0.45,-1.2 1.65,-2.35 L 4.2,62.3 Q 10,57.9 16.25,50.35 l 10.4,-13.6 q 1,-1.35 1.85,-2.05 L 29,34.3 q 0.8,-0.55 2.65,-1.1 l 2.7,-0.95 0.5,-0.3 2.75,-3.15 Q 39.45,26.2 41,25.55 L 43.25,25 45.4,24.3 47.1,22.55 47.25,22.3 53.1,13.9 Q 57.65,7.15 60.05,2.8 61.5,0.3 62.9,0.05 q 0.8,-0.2 2.05,0.35 l 0.65,0.3 1.1,0.6 q 4.15,2.15 6.35,4.15 m -6.55,2.05 -2.2,-1 -2.15,3.75 1.05,0.6 3.15,1.9 L 68.6,9 Q 67.9,8.4 67.2,7.95 L 66.5,7.5 m -10.65,15 0.95,0.25 1.15,0.25 0.85,-0.1 0.6,0.05 0.5,-0.65 4.5,-6.45 L 64.25,15.8 63.1,15.4 61,14.45 60.75,14.35 59.8,13.9 58.15,16.3 54.2,22 55.85,22.5 M 54,26.05 53.3,25.95 51.75,25.45 51.5,25.8 q -1.45,2.3 -2.7,3.1 l -2.75,0.95 0.45,0.6 1,1.5 0.35,0.75 0.35,1 0.1,0.65 q 0.4,2.15 0.4,3.55 v 0.05 L 57,26.3 55.6,26.25 54,26.05 M 34.5,40.7 34.85,41.85 35,43.6 q 1.85,-0.45 2.7,-0.95 l 1.35,-1.15 1.25,-1.15 q 1.7,-1.2 4.75,-0.8 v -1.3 l -0.5,-2.15 -0.1,-0.25 -0.3,-0.9 -0.55,-1.1 -1.45,-1.4 -0.2,-0.15 -0.15,0.1 -1.2,1.7 q -2.55,3.3 -6.35,4.35 l -0.45,0.15 0.15,0.4 0.55,1.7 m -3.55,2.4 -0.75,-1.6 -7.85,10.3 1.2,0.4 2.75,0.85 3.3,-4.75 q 1.15,-1.7 2.25,-2.8 l -0.2,-0.35 -0.7,-2 V 43.1 m -17.9,20.7 2.05,0.5 1.75,0.35 1,0.25 3.8,-5.2 2.5,-3.55 -3.3,-0.65 -1.15,-0.25 h -0.1 q -3.9,4.85 -7.55,8.3 h 0.1 l 0.9,0.25 M 6.1,69.65 q 0.6,2.95 2.55,3.4 1.15,0.4 2.6,-0.5 L 13.2,70.65 15.5,67.8 13.75,67.55 11.45,67.2 10,67.15 8.55,66.95 8.05,66.85 7,67.65 Q 6.4,68 6.15,68.5 6,68.8 6.1,69.5 v 0.15"
         fill="#000000"
         fill-rule="evenodd"
         stroke="none"
         id="path2" />
      <path
         d="M 63.2,10.85 63.95,9.8 q 1.3,-1.75 2.55,-2.3 l 0.7,0.45 Q 67.9,8.4 68.6,9 l -2.25,3.75 -3.15,-1.9 m -2.45,3.5 0.25,0.1 2.1,0.95 1.15,0.4 0.15,0.05 -4.5,6.45 -0.5,0.65 L 58.8,22.9 57.95,23 56.8,22.75 55.85,22.5 q 1.75,-3.55 4.9,-8.15 m -13.25,17.6 2.65,-2.3 q 2.45,-1.8 3.15,-2.6 l 0.7,-1 1.6,0.2 1.4,0.05 -8.3,11.65 V 37.9 q 0,-1.4 -0.4,-3.55 l -0.1,-0.65 -0.35,-1 -0.35,-0.75 m -3.35,3 0.3,0.9 0.1,0.25 0.5,2.15 v 1.3 Q 42,39.15 40.3,40.35 L 39.05,41.5 37.7,42.65 Q 36.85,43.15 35,43.6 L 34.85,41.85 34.5,40.7 35.9,39.95 q 4.85,-2.5 6.1,-3.35 l 2.15,-1.65 m -20.6,17.25 3.9,-5.15 q 1.7,-2.3 2.75,-3.3 l 0.75,-0.65 v 0.05 l 0.7,2 0.2,0.35 q -1.1,1.1 -2.25,2.8 l -3.3,4.75 -2.75,-0.85 m -2.7,3.3 3.3,0.65 -2.5,3.55 -3.8,5.2 -1,-0.25 -1.75,-0.35 -2.05,-0.5 1.4,-1.35 q 2.9,-2.8 6.4,-6.95 M 6.1,69.65 V 69.5 Q 6,68.8 6.15,68.5 6.4,68 7,67.65 l 1.05,-0.8 0.5,0.1 1.45,0.2 1.45,0.05 2.3,0.35 1.75,0.25 -2.3,2.85 -1.95,1.9 Q 9.8,73.45 8.65,73.05 6.7,72.6 6.1,69.65"
         fill="#6b5b5b"
         fill-rule="evenodd"
         stroke="none"
         id="path3" />
      <path
         d="m 63.2,10.85 -1.05,-0.6 2.15,-3.75 2.2,1 q -1.25,0.55 -2.55,2.3 l -0.75,1.05 m -2.45,3.5 q -3.15,4.6 -4.9,8.15 L 54.2,22 l 3.95,-5.7 1.65,-2.4 0.95,0.45 m -6.75,11.7 -0.7,1 q -0.7,0.8 -3.15,2.6 l -2.65,2.3 -1,-1.5 -0.45,-0.6 2.75,-0.95 q 1.25,-0.8 2.7,-3.1 l 0.25,-0.35 1.55,0.5 0.7,0.1 M 44.15,34.95 42,36.6 q -1.25,0.85 -6.1,3.35 L 34.5,40.7 33.95,39 33.8,38.6 34.25,38.45 q 3.8,-1.05 6.35,-4.35 l 1.2,-1.7 0.15,-0.1 0.2,0.15 1.45,1.4 0.55,1.1 m -13.2,8.15 -0.75,0.65 q -1.05,1 -2.75,3.3 l -3.9,5.15 -1.2,-0.4 7.85,-10.3 0.75,1.6 m -10.1,12.4 q -3.5,4.15 -6.4,6.95 l -1.4,1.35 -0.9,-0.25 h -0.1 q 3.65,-3.45 7.55,-8.3 h 0.1 l 1.15,0.25"
         fill="#867474"
         fill-rule="evenodd"
         stroke="none"
         id="path4" />
      <path
         d="m 32.25,30.55 q 1.25,-0.75 2.5,-2.25 l 2.05,-2.8 q 2.6,-3.55 5.2,-4.15 l 1.7,-0.2 1.05,-0.15 q -0.4,-0.7 -0.4,-1.8 l 0.25,-1.9 0.4,-2 0.55,-1 q 1.4,-2.05 3.75,-2.2 l 1.15,0.05 0.8,0.1 1.55,-3.15 q 3.4,-6.95 5.15,-9.75 1.2,-1.85 2.15,-2.5 1.2,-0.85 2.95,-0.95 l 0.15,-1 q 0.45,-1.2 1.65,-1.85 1.15,-0.6 2.5,-0.45 l 1.3,0.25 1.05,0.65 q 1.2,0.85 1.7,1.8 0.7,1.45 0.2,3.05 l 0.15,0.05 Q 74,-0.3 75.7,1.55 l -0.1,-1.2 q 0.15,-1.5 1.4,-2.2 l 2.5,-0.05 q 1.2,0.65 1.45,2 L 80.8,1.7 79.75,2.95 78.25,3.4 q -0.7,0 -1.25,-0.3 1.1,1.5 1.6,2.9 0.75,2.55 -0.35,5.65 -0.55,1.6 -2.65,5.1 l -5.45,8.2 -3.9,5.5 1.2,1 0.6,1 q 0.8,1.9 -0.25,3.7 -0.65,1.05 -1.95,1.9 l -1.55,0.8 -1.6,0.2 -1.6,-0.25 -0.85,-0.45 -6.35,8.1 Q 52.35,48.3 51.25,48.6 L 49.05,48.45 46.8,48.3 q -0.8,0.2 -1.7,0.95 l -1.4,1.35 q -1.35,1.2 -2.95,1.75 0.3,1.2 0.1,2.1 -0.25,1.35 -1.1,2.05 l -0.7,0.5 -0.9,0.5 -1.75,0.25 Q 34.75,57.65 33.6,57 l -0.25,-0.2 q -6.55,8.8 -13.2,19.1 l -2.1,3.05 q -1.3,1.6 -2.75,2.45 -1.7,0.95 -4.1,1.1 L 6.85,82.35 q -2.9,-0.3 -4.5,-1.1 -1.5,-0.8 -3.1,-2.85 -1.45,-2 -2,-3.55 -1.5,-4.4 0.85,-9.3 Q -0.3,62.1 3.9,58 l 3.5,-3.25 3.35,-3.4 5.1,-6.5 q 2.35,-3.1 6.45,-7.85 2.2,-2.6 3.55,-3.6 1.5,-1.05 4.35,-2.2 1.1,-0.45 1.9,-0.55 l 0.15,-0.1 M 73.05,5.45 Q 70.85,3.45 66.7,1.3 L 65.6,0.7 64.95,0.4 Q 63.7,-0.15 62.9,0.05 61.5,0.3 60.05,2.8 57.65,7.15 53.1,13.9 L 47.25,22.3 47.1,22.55 45.4,24.3 43.25,25 41,25.55 q -1.55,0.65 -3.4,3.25 l -2.75,3.15 -0.5,0.3 -2.7,0.95 Q 29.8,33.75 29,34.3 l -0.5,0.4 q -0.85,0.7 -1.85,2.05 l -10.4,13.6 Q 10,57.9 4.2,62.3 l -2.25,1.9 q -1.2,1.15 -1.65,2.35 -0.65,1.8 0.1,4.9 0.75,2.5 1.45,3.6 1.1,1.7 2.95,2.8 1.85,1 3.95,1.1 2.6,0.2 5,-1.15 2.4,-1.35 3.7,-3.6 l 0.95,-2.05 1.05,-2.05 2.05,-2.7 2.75,-3.6 7.55,-10.75 0.25,-0.3 q 0.95,-1.4 1.65,-2 0.7,-0.8 1.45,-1.3 0.45,-0.35 0.9,-0.55 l 0.75,-0.25 1.95,-0.6 Q 40.4,47.7 41.2,46.9 l 1.45,-1.3 q 0.95,-0.7 2.95,-0.45 l 3.25,0.1 q 1.5,-0.4 3.05,-2.35 L 54.85,39 62.8,27.95 69.45,18.4 73.85,11.1 Q 74.95,9.25 74.75,8.15 74.6,6.8 73.05,5.45 M 42.4,6.65 Q 42.05,5.95 42.2,5.15 42.35,4.3 42.9,3.75 43.45,3.2 44.25,3 l 1.5,0.15 q 1.6,0.65 1.7,2.45 L 47,7.05 l -1.2,1 q -0.95,0.4 -2,0 -1,-0.45 -1.4,-1.4 M 80.9,29.2 q 0.3,0.7 0.15,1.55 -0.15,0.85 -0.7,1.4 l -1.4,0.75 -1.55,-0.15 -1.3,-0.9 q -0.8,-0.95 -0.8,-2.2 0,-1.25 1.05,-2 0.65,-0.45 1.55,-0.4 0.8,0 1.6,0.45 0.95,0.55 1.4,1.5 m -42,-10.8 q -0.8,1.05 -2.3,1.05 -1.25,0 -2.05,-0.95 Q 34,17.9 33.9,17 q -0.1,-0.9 0.3,-1.6 0.4,-0.75 1.2,-1.15 l 1.6,-0.3 q 1.7,0.25 2.25,1.7 0.65,1.5 -0.35,2.75 m -1.65,41.65 q 0.7,0.75 0.75,1.9 0.05,1.15 -0.6,1.95 -0.65,0.8 -1.75,1.05 l -2,-0.25 q -1.2,-0.55 -1.5,-1.8 -0.4,-1.25 0.25,-2.3 0.7,-1.15 2,-1.4 1.65,-0.35 2.85,0.85 m 19.6,-5.9 q 1.4,-0.4 2.45,0.65 1.05,1 0.65,2.45 -0.35,1.4 -1.8,1.75 -1.35,0.4 -2.4,-0.65 -1,-1 -0.65,-2.4 0.35,-1.4 1.75,-1.8"
         fill="#bcfca7"
         fill-opacity="0.498039"
         fill-rule="evenodd"
         stroke="none"
         id="path5" />
    </g>
    <g
       id="sprite2"
       transform="translate(30.85,6.75)">
      <use
         ffdec:characterId="631"
         height="68.699997"
         transform="translate(-11.9,-1.15)"
         width="75.900002"
         xlink:href="#shape2"
         id="use5" />
    </g>
    <g
       id="shape2"
       transform="translate(11.9,1.15)">
      <path
         d="m 20.3,46.55 q -0.9,0 -1.7,-0.35 -1.3,-0.5 -3.15,-2.15 l -5.4,-4.8 -2,-1.8 -1.05,-1 Q 3.6,33.15 1.4,30.2 0.1,28.55 0,27.25 v -0.1 Q -0.05,25.9 1.15,24 L 3.2,21.05 3.35,20.9 5.95,17.7 6,17.6 7.1,16.3 7,16.25 6.4,15.55 5.45,14.4 3.4,12 Q 2.35,10.6 2.2,9.3 2.15,7.9 2.75,6.6 3.75,4.3 6.8,1.8 L 7,1.65 q 2.2,-1.9 3.9,-1.6 0.95,0.15 2.45,1.35 l 8.35,6.05 1.4,1.1 3.45,1.6 1.1,0.25 Q 28.2,10.35 29,9.65 31.2,7.65 34.05,6.9 36.4,6.25 38,6.85 q 1.4,0.5 3.05,2.35 l 0.3,0.4 0.05,0.05 12.85,14.9 q 2.3,2.6 1.75,4.35 -0.3,1.05 -2.15,2.4 l -1.25,0.95 1.5,1.5 4.7,4.75 q 1.9,1.65 2.25,2.7 0.65,1.55 -0.15,3.45 l -1.85,3.05 -1.55,2.1 -1.55,1.85 q -1.05,0.9 -2.2,0.9 -1.3,0 -3.25,-1.65 l -6.35,-5.55 v 0.2 q 0.2,2.4 -1.6,5.25 -1.35,2.1 -4.85,5.7 l -1.15,1.05 q -1.05,0.7 -1.85,0.75 -1.25,0.05 -3,-1.6 L 30.05,55.05 Q 26.75,51.6 24.2,47.55 23.6,46.5 22.9,46.3 l -1.4,0.1 -1.2,0.15 m 22.25,-13.8 7.1,-6.15 -12.5,-13.15 -1.05,-0.8 -1.45,0.2 q -0.9,0.4 -2.5,1.85 -1.5,1.35 -2.5,1.7 L 26.25,16.55 24.75,16.1 24.6,16 22.9,15.3 19,13.5 18.1,13.3 q -0.4,0 -1.05,0.75 l -4.5,5.5 -5.2,6.3 L 7,26.5 6.9,26.85 7,27.15 7.3,27.6 q 2.35,3 5.85,6.15 l 6.55,5.55 q 0.85,0.65 1.25,0.75 l 1.5,0.05 q 2.05,-0.2 3.3,0.35 1.05,0.45 2.05,1.6 l 1.55,2.15 q 2.2,3.35 5.25,6.55 1.5,-1.25 2.5,-2.7 0.75,-1.1 0.75,-1.95 0,-0.75 -0.6,-1.7 l -0.9,-1.6 q -0.55,-1.45 0.25,-3.3 0.55,-1.2 1.9,-2.75 l 4.05,-4 m -28.3,-9.15 0.4,-0.15 1.85,-0.05 q 0.95,0.3 1.55,1.1 0.6,0.8 0.65,1.8 0.1,0.95 -0.45,1.8 l -0.5,0.65 q -0.4,0.4 -0.95,0.6 l -2.2,0.05 q -1.15,-0.35 -1.75,-1.3 -0.5,-0.8 -0.4,-1.85 0.05,-1 0.6,-1.75 0.5,-0.6 1.2,-0.9 m 22.9,3 q -0.35,-0.6 -0.3,-1.25 0.05,-0.9 0.7,-1.6 0.65,-0.7 1.5,-0.8 1.4,-0.15 2.3,0.95 0.85,1.15 0.35,2.45 -0.35,0.85 -1.15,1.3 l -1.7,0.25 -0.65,-0.25 -0.8,-0.7 -0.25,-0.35 m 8.65,12.65 2.2,2.2 1.2,-1.8 1.1,-1.85 0.25,-0.35 -1.7,-2.05 -0.05,-0.1 q -1.9,1.6 -3.65,3.3 l 0.65,0.65 m 7.35,6.65 0.5,0.15 0.3,-0.25 1.8,-2.75 -2.7,-2.8 -2.15,3.8 2.25,1.85 M 13.15,8.95 13.9,8.15 10.95,6.25 10.5,6.1 q -0.25,0 -0.55,0.3 l -1.4,1.45 q -0.4,0.4 -0.45,0.7 0,0.4 0.4,0.9 l 2.2,2.35 0.05,0.05 2.4,-2.9"
         fill="#000000"
         fill-rule="evenodd"
         stroke="none"
         id="path6" />
      <path
         d="m 24.75,16.1 1.5,0.45 3.4,-0.15 q 1,-0.35 2.5,-1.7 1.6,-1.45 2.5,-1.85 l 1.45,-0.2 1.05,0.8 12.5,13.15 -7.1,6.15 q -1,-0.5 -2.1,-2 l -2.15,-2.95 -0.1,-0.15 0.65,0.25 1.7,-0.25 q 0.8,-0.45 1.15,-1.3 0.5,-1.3 -0.35,-2.45 -0.9,-1.1 -2.3,-0.95 -0.85,0.1 -1.5,0.8 -0.65,0.7 -0.7,1.6 -0.05,0.65 0.3,1.25 L 37,26.5 35.85,26.25 34.6,26 Q 34.25,26.6 34,28.2 33.75,29.65 33.2,30.25 32,31.7 29.35,30.9 L 25.4,29.4 q -2.35,-0.95 -4,-0.8 l -1.8,0.3 -1.8,-0.15 h -0.05 l 0.5,-0.65 q 0.55,-0.85 0.45,-1.8 -0.05,-1 -0.65,-1.8 -0.6,-0.8 -1.55,-1.1 l -1.85,0.05 -0.4,0.15 -1.1,-2.25 q -0.45,-1 -0.6,-1.8 l 4.5,-5.5 Q 17.7,13.3 18.1,13.3 l 0.9,0.2 3.9,1.8 1.7,0.7 v 0.1 h 0.15"
         fill="#888888"
         fill-rule="evenodd"
         stroke="none"
         id="path7" />
      <path
         d="m 53.15,45.9 -2.25,-1.85 2.15,-3.8 2.7,2.8 -1.8,2.75 -0.3,0.25 -0.5,-0.15 M 45.8,39.25 45.15,38.6 q 1.75,-1.7 3.65,-3.3 l 0.05,0.1 1.7,2.05 -0.25,0.35 -1.1,1.85 -1.2,1.8 -2.2,-2.2 M 13.15,8.95 10.75,11.85 10.7,11.8 8.5,9.45 Q 8.1,8.95 8.1,8.55 8.15,8.25 8.55,7.85 L 9.95,6.4 q 0.3,-0.3 0.55,-0.3 l 0.45,0.15 2.95,1.9 -0.75,0.8"
         fill="#6b5b5b"
         fill-rule="evenodd"
         stroke="none"
         id="path8" />
      <path
         d="m 12.55,19.55 q 0.15,0.8 0.6,1.8 l 1.1,2.25 q -0.7,0.3 -1.2,0.9 -0.55,0.75 -0.6,1.75 -0.1,1.05 0.4,1.85 0.6,0.95 1.75,1.3 l 2.2,-0.05 q 0.55,-0.2 0.95,-0.6 h 0.05 l 1.8,0.15 1.8,-0.3 q 1.65,-0.15 4,0.8 l 3.95,1.5 Q 32,31.7 33.2,30.25 33.75,29.65 34,28.2 34.25,26.6 34.6,26 l 1.25,0.25 1.15,0.25 0.15,0.1 0.25,0.35 0.8,0.7 0.1,0.15 2.15,2.95 q 1.1,1.5 2.1,2 l -4.05,4 q -1.35,1.55 -1.9,2.75 -0.8,1.85 -0.25,3.3 l 0.9,1.6 q 0.6,0.95 0.6,1.7 0,0.85 -0.75,1.95 -1,1.45 -2.5,2.7 -3.05,-3.2 -5.25,-6.55 L 27.8,42.05 q -1,-1.15 -2.05,-1.6 -1.25,-0.55 -3.3,-0.35 l -1.5,-0.05 Q 20.55,39.95 19.7,39.3 L 13.15,33.75 Q 9.65,30.6 7.3,27.6 L 7,27.15 V 26.5 l 0.35,-0.65 5.2,-6.3"
         fill="#686868"
         fill-rule="evenodd"
         stroke="none"
         id="path9" />
      <path
         d="m 10.05,39.25 q -2.6,0.4 -5.4,-0.9 -2.35,-1.15 -4.5,-3.5 -2,-2.2 -2.7,-4.2 -0.7,-2.05 -0.25,-4.4 -1.6,-1.05 -2,-2.85 -0.4,-1.6 0.5,-4.1 l 0.5,-1.05 0.9,-0.85 1.1,-0.8 q 2.6,-1.35 5,-0.7 L 3.4,15.65 Q 1.6,13.95 1,11.4 0.4,8.85 1.3,6.55 1.8,5.1 3.1,3.5 4.8,1.1 6.6,0 q 2.25,-1.3 5.2,-1.1 2.65,0.15 5.3,1.5 l 4.55,2.95 4.4,3.25 q 1.3,0.9 2.2,0.85 l 2,-1.05 q 1.9,-1.4 4,-1.7 3.9,-0.6 7.9,2.85 1.3,-1.1 2.85,-1.25 1.4,-0.05 2.95,0.85 l -0.1,-0.8 Q 47.9,5.5 48.5,4.8 49.05,4.15 49.9,3.95 l 1.65,0.2 q 0.85,0.35 1.25,1.1 0.45,0.7 0.35,1.6 Q 53,7.75 52.45,8.4 51.85,9 50.95,9.15 L 49.7,9.1 49.95,10.35 Q 50,11.5 49.5,12.55 l -0.4,0.75 q 3.4,3.4 6.85,8.7 1.65,2.4 2.45,4.35 0.9,2.3 0.35,3.9 -0.3,1 -1.4,2 -0.5,0.5 -0.5,0.9 l 0.3,0.65 1.75,1.8 1.95,1.6 q 2.5,2.1 3,4 0.45,1.75 -0.55,4.8 -0.8,2.5 -1.95,4.8 Q 60.2,53.3 59,54.4 57.25,56 54.55,55.95 52,55.85 49.95,54.35 L 48.2,52.8 46.4,51.3 q -0.7,4.25 -4.15,7.05 -2.65,2.15 -6,2.5 l -0.8,1.25 -0.9,0.65 -1.65,0.75 -1.4,0.1 -1.55,-0.15 q -0.65,-0.2 -1.4,-0.7 l -1.05,-0.7 q -0.95,-0.9 -1.05,-2.1 V 58.8 L 26.7,57.6 Q 26.95,56.8 27.65,56.2 25.6,53.4 24.1,50.65 22.55,47.85 21.25,47 l -0.95,-0.45 1.2,-0.15 1.4,-0.1 q 0.7,0.2 1.3,1.25 2.55,4.05 5.85,7.5 l 1.65,1.65 q 1.75,1.65 3,1.6 0.8,-0.05 1.85,-0.75 L 37.7,56.5 q 3.5,-3.6 4.85,-5.7 1.8,-2.85 1.6,-5.25 v -0.2 l 6.35,5.55 q 1.95,1.65 3.25,1.65 1.15,0 2.2,-0.9 l 1.55,-1.85 1.55,-2.1 1.85,-3.05 q 0.8,-1.9 0.15,-3.45 -0.35,-1.05 -2.25,-2.7 l -4.7,-4.75 -1.5,-1.5 1.25,-0.95 Q 55.7,29.95 56,28.9 56.55,27.15 54.25,24.55 L 41.4,9.65 41.35,9.6 41.05,9.2 Q 39.4,7.35 38,6.85 36.4,6.25 34.05,6.9 31.2,7.65 29,9.65 28.2,10.35 27.65,10.4 L 26.55,10.15 23.1,8.55 21.7,7.45 13.35,1.4 Q 11.85,0.2 10.9,0.05 9.2,-0.25 7,1.65 L 6.8,1.8 Q 3.75,4.3 2.75,6.6 2.15,7.9 2.2,9.3 2.35,10.6 3.4,12 L 5.45,14.4 6.4,15.55 7,16.25 7.1,16.3 6,17.6 5.95,17.7 3.35,20.9 3.2,21.05 1.15,24 Q -0.05,25.9 0,27.15 v 0.1 q 0.1,1.3 1.4,2.95 2.2,2.95 5.6,6.25 l 1.05,1 2,1.8 M 31.3,0.65 q 1,0.6 1.15,1.7 0.1,1.25 -0.75,1.95 -0.5,0.5 -1.35,0.6 L 29,4.55 Q 28.35,4.15 28.1,3.5 27.85,2.85 28,2.15 28.15,1.4 28.65,0.95 29.15,0.45 29.9,0.4 l 1.4,0.25 m 7.15,63.3 q 0.4,-0.8 1.3,-1.15 l 1.75,-0.05 1.15,0.9 q 0.45,0.65 0.45,1.4 0.05,0.7 -0.4,1.4 l -1.15,0.9 -1.45,0.1 Q 39.35,67.3 38.8,66.75 38.3,66.2 38.2,65.4 38.1,64.6 38.45,63.95 m 10.4,-5.25 q 0.55,-0.3 1,-0.3 0.7,0 1.4,0.6 1.05,0.95 0.6,2.3 -0.4,1.4 -1.85,1.5 -0.75,0.1 -1.4,-0.4 -0.65,-0.5 -0.85,-1.2 -0.2,-0.7 0.15,-1.45 0.3,-0.7 0.95,-1.05 M -0.6,8.35 q 0.1,0.9 -0.35,1.75 -0.45,0.8 -1.25,1.25 -0.75,0.45 -1.7,0.45 -0.95,-0.05 -1.7,-0.55 -0.75,-0.5 -1.1,-1.4 Q -7.05,9 -6.9,8.1 -6.55,6.4 -4.95,5.85 L -2.8,5.8 q 1.1,0.3 1.6,0.9 0.6,0.7 0.6,1.65 m -9.65,16.45 1.8,-0.1 q 0.95,0.2 1.55,1.1 0.6,0.85 0.5,1.85 -0.1,1 -0.85,1.7 -0.8,0.7 -1.75,0.75 -0.95,0.1 -1.8,-0.55 -0.8,-0.6 -1.05,-1.55 -0.2,-0.95 0.25,-1.9 0.5,-0.9 1.35,-1.3"
         fill="#bcfca7"
         fill-opacity="0.498039"
         fill-rule="evenodd"
         stroke="none"
         id="path10" />
    </g>
    <g
       id="sprite3"
       transform="translate(17.4,15.85)">
      <use
         ffdec:characterId="31"
         height="57.200001"
         transform="matrix(0.5366,0,0,0.5366,-16.6582,-14.546)"
         width="70.75"
         xlink:href="#sprite4"
         id="use10" />
    </g>
    <g
       id="sprite4"
       transform="translate(-8.65,-10.35)">
      <use
         ffdec:characterId="30"
         height="57.200001"
         transform="translate(8.65,10.35)"
         width="70.75"
         xlink:href="#shape3"
         id="use11" />
    </g>
    <g
       id="shape3"
       transform="translate(-8.65,-10.35)">
      <path
         d="m 14.8,41.7 q 0.65,-1.75 2.65,-2.5 1.8,-0.8 3.7,-0.25 1.15,0.45 2.25,1.2 l 0.9,0.4 q 1.65,0.9 2.85,2.5 L 37.8,30.1 q 2.35,-2.8 3.75,-3.95 1.5,-1.15 4.25,-2.4 18.2,-8.85 27.65,-12.6 2.15,-0.8 3.25,-0.8 h 0.8 l 1.9,2.4 -0.2,0.8 q -0.2,1.1 -1.55,3 -5.85,8.25 -18.85,23.8 -1.85,2.35 -3.35,3.5 -1.4,1.15 -4.75,2.75 l -15.15,7.15 q 1.2,1.6 1.75,3.4 l 0.2,1 0.55,2.5 q 0.1,1.95 -1.1,3.55 -1.2,1.65 -3.05,1.9 l -1.3,0.05 q -1.65,0.2 -3.45,-0.65 -1.85,-0.9 -3,-2.6 L 25,60.95 23.8,62.1 q -2.6,2.85 -4.3,3.95 -2.85,1.8 -5.5,1.45 l -1.65,-0.5 -1.2,-0.7 -0.2,-0.2 q -1,-0.85 -1.6,-1.9 L 9.25,64 9.15,63.8 8.75,62.4 q -0.2,-0.8 -0.05,-1.7 0.25,-2.65 2.7,-5.05 1.5,-1.3 4.9,-3.15 L 17.7,51.55 16.05,50 q -1.35,-1.5 -1.8,-3.6 -0.4,-1.85 0.25,-3.45 l 0.3,-1.25"
         fill="#000000"
         fill-opacity="0.372549"
         fill-rule="evenodd"
         stroke="none"
         id="path11" />
    </g>
  </defs>
</svg>
