<?xml version="1.0" encoding="UTF-8" standalone="no"?>
<svg
   ffdec:objectType="frame"
   height="87.748001"
   width="66.235687"
   version="1.1"
   id="svg6"
   xmlns:xlink="http://www.w3.org/1999/xlink"
   xmlns="http://www.w3.org/2000/svg"
   xmlns:svg="http://www.w3.org/2000/svg"
   xmlns:ffdec="https://www.free-decompiler.com/flash">
  <g
     transform="translate(41.933333,42.098)"
     id="g1">
    <use
       ffdec:characterId="17"
       height="119.15"
       id="rarity"
       transform="translate(-58.5,-60.65)"
       width="119.15"
       xlink:href="#sprite0" />
    <use
       ffdec:characterId="293"
       height="87.800003"
       transform="translate(-41.95,-42.1)"
       width="66.25"
       xlink:href="#sprite1"
       id="use1" />
  </g>
  <defs
     id="defs6">
    <g
       id="sprite1">
      <use
         ffdec:characterId="292"
         height="87.800003"
         width="66.25"
         xlink:href="#shape0"
         id="use2" />
    </g>
    <g
       id="shape0">
      <path
         d="m 15.95,18.2 q 3.95,-4.3 9.15,-6.75 2.5,-1.2 5.8,-2.2 2.9,-0.9 4.9,-1.15 2.1,-0.3 5.15,-0.05 l 5.4,0.75 Q 47.2,6.35 46.95,3.6 V 1.8 q 0.35,-1.3 1.6,-1.7 1.3,-0.35 2.25,0.55 l 0.9,1.4 2.1,4.5 q 0.75,2.1 0.9,5.05 l 1.45,1.05 q 1.35,1.2 2.8,3.5 3.2,4.95 4.1,8.7 l 0.65,3.75 q 0.7,5.45 0.25,8.55 Q 63.4,41 61.5,43.5 l 0.7,1.05 q 4.15,7.05 4.05,15.25 -0.1,8.15 -4.45,14.15 -2.3,3.1 -5.55,5.05 -3.35,2.05 -7.05,2.4 l -1.8,0.25 Q 46.5,82 45.5,83 q -4.1,3.45 -7.1,4.35 l -4.2,0.4 q -2.25,-0.25 -3.8,-1.55 -1.45,-1.1 -1.9,-2.8 -0.4,-1.35 0.1,-2.9 0.45,-1.4 1.5,-2.6 l 0.55,-0.55 -1,-0.4 q -1.65,-0.8 -3.5,-3.55 -2.7,-4.05 -2.7,-7.5 0,-2.75 2.3,-7.45 l 0.35,-0.7 -2.95,-0.4 -1.95,-0.45 q -2.75,-0.7 -5.1,-2.15 -1.75,-1.05 -3.55,-2.8 -2.5,-2.2 -3.5,-4.1 Q 7.8,45.35 7.7,41 L 7.8,38 7.2,37.9 Q 5.9,37.55 4.7,36.35 2.45,34.3 1.1,31.8 L 0.35,30.1 Q -0.15,28.4 0.1,25.65 0.2,24.3 0.55,23.7 0.95,22.95 1.9,22.65 l 1.65,0.15 1,1 1.3,1.6 q 0.75,1 1.4,1.4 l 1.7,0.6 1.1,0.15 q 2,-5.15 5.9,-9.35 M 48.2,21.95 47.5,21.85 46.55,21.6 Q 45.75,21.25 44.7,20.2 43.55,18.95 43.35,18.1 L 43.3,17.9 q -0.2,-0.6 -0.1,-1.45 0.1,-1.1 0.75,-2.5 -4.65,-0.7 -8.4,-0.1 -4.05,0.7 -8.85,3.2 -4.1,2.1 -6.15,4.4 -1.2,1.25 -2.7,3.7 -2.25,3.5 -3.1,6.15 l -0.05,0.25 q -0.75,2.3 -1.1,5.85 l -0.2,2.5 q -0.1,3.7 0.8,5.5 l 1.05,1.4 1.4,2.25 0.05,0.1 v 1 q 0.25,1.45 1.2,2.35 1.1,0.9 2.85,0.9 l 2.45,-0.4 0.9,0.2 4.9,0.6 5.3,-0.75 5.15,-1.8 q 4.5,-1.8 6.9,-3.1 l 1.05,-0.6 0.35,-0.2 1.5,-0.8 q 0.85,-0.45 1.6,-0.4 0.9,0.1 1.05,0.75 0.05,0.5 -0.5,1.05 -2.05,2.3 -5.35,4.1 l -0.8,0.45 -5.4,2.4 -4.95,1.85 -3,0.8 q -0.65,0.8 -1.25,2.15 l -1.05,2.6 q -0.7,1.7 -0.75,2.6 -0.1,0.9 0.25,1.95 v 0.95 l 0.1,1.35 0.5,1.2 0.3,0.5 0.85,1.25 q 2.1,2.5 5.4,2.75 l 2.7,-0.2 q 0.45,0.5 0.55,1.15 v 0.1 0.65 l -0.2,0.05 -1.65,0.5 -2,0.6 -1.1,0.4 q -0.4,0.2 -1.05,0.75 -0.9,0.7 -1.15,1.5 Q 31.8,81.8 33,83 q 0.75,0.7 1.8,0.9 h 0.85 q 1.1,-0.05 2.9,-0.9 l 1.3,-0.8 1.7,-1.25 1.75,-1.5 2.05,-2.55 1.4,-0.3 2,-0.2 q 3.35,-0.45 6.25,-2.7 2.75,-2.2 4.35,-5.4 2.95,-5.95 1.5,-13.6 -0.8,-4.3 -2.8,-7.65 l -0.25,-0.45 -0.6,0.2 -1.7,0.15 q -1.05,-0.3 -1.05,-1.2 0.05,-0.55 0.6,-1.1 l 1.35,-1.2 1.05,-0.8 1.2,-1.35 0.55,-0.95 q 0.65,-1.95 0.8,-4.3 0.1,-2.9 -0.8,-7.4 l -1.15,-4.2 -2.4,-4.15 -1.9,-2.55 -0.35,0.55 -1,1.8 q -0.6,1 -1.4,1.4 l -2.2,0.45 h -0.6"
         fill="#000000"
         fill-rule="evenodd"
         stroke="none"
         id="path2" />
      <path
         d="m 14.2,45.4 q -0.9,-1.8 -0.8,-5.5 l 0.2,-2.5 q 0.35,-3.55 1.1,-5.85 l 0.05,-0.25 q 0.85,-2.65 3.1,-6.15 1.5,-2.45 2.7,-3.7 2.05,-2.3 6.15,-4.4 4.8,-2.5 8.85,-3.2 3.75,-0.6 8.4,0.1 -0.65,1.4 -0.75,2.5 -0.1,0.85 0.1,1.45 l 0.05,0.2 q 0.2,0.85 1.35,2.1 1.05,1.05 1.85,1.4 l 0.95,0.25 0.7,0.1 v 2.6 q 0.65,3.55 -0.05,7.2 l -0.85,3.35 -2.05,0.1 -1.2,0.5 -1.9,1.3 q -0.85,1.15 -0.85,2.85 -0.1,1.6 0.5,2.9 l 0.35,0.6 -1.1,1.05 q -2.65,2.5 -5.45,3.65 -2.45,1.1 -6.05,1.45 l -3.95,0.25 v -1.6 l -0.25,-0.9 -0.8,-1.1 Q 23.4,45 22.6,44.85 l -1.15,-0.05 -1.2,0.05 q -0.65,0.1 -1.65,0.9 l -0.6,0.5 -0.85,1.3 -0.05,0.15 Q 15.55,46.8 14.3,45.5 L 14.2,45.4 M 34.8,83.9 Q 33.75,83.7 33,83 q -1.2,-1.2 -0.65,-2.65 0.25,-0.8 1.15,-1.5 0.65,-0.55 1.05,-0.75 l 1.1,-0.4 2,-0.6 1.65,-0.5 0.2,-0.05 V 75.9 75.8 l 0.35,0.3 q 0.95,0.85 0.7,2.15 -0.15,0.8 -1.3,2.05 l -2.65,2.55 -1,0.6 -0.8,0.45 M 30,70.85 29.7,70.35 29.2,69.15 29.1,67.8 V 66.85 Q 28.75,65.8 28.85,64.9 28.9,64 29.6,62.3 l 1.05,-2.6 q 0.6,-1.35 1.25,-2.15 l 3,-0.8 4.95,-1.85 5.4,-2.4 0.35,0.15 q 2.05,1.15 2.7,4.7 1,5.7 -1.65,10.1 -1.4,2.3 -3.6,3.8 Q 40.8,72.8 38.25,73 L 35.2,72.95 32.6,72.5 Q 31.2,72.05 30.2,71.05 L 30,70.85"
         fill="#242424"
         fill-rule="evenodd"
         stroke="none"
         id="path3" />
      <path
         d="m 14.2,45.4 0.1,0.1 q 1.25,1.3 2.8,2.2 l -0.4,1.45 -0.05,-0.1 -1.4,-2.25 -1.05,-1.4 m 11.4,4.35 3.95,-0.25 q 3.6,-0.35 6.05,-1.45 2.8,-1.15 5.45,-3.65 l 1.1,-1.05 q 0.7,1.05 1.8,1.35 l 1.6,0.15 q 1.95,0 3,-0.8 0.95,-0.7 1.6,-2.35 0.7,-1.8 0.6,-2.7 -0.1,-1 -0.55,-1.6 L 49.55,36.55 48.7,35.8 q -0.65,-0.55 -1.4,-0.7 l 0.85,-3.35 q 0.7,-3.65 0.05,-7.2 v -2.6 h 0.6 L 51,21.5 q 0.8,-0.4 1.4,-1.4 l 1,-1.8 0.35,-0.55 1.9,2.55 2.4,4.15 1.15,4.2 q 0.9,4.5 0.8,7.4 -0.15,2.35 -0.8,4.3 l -0.55,0.95 -1.2,1.35 -1.05,0.8 -1.35,1.2 q -0.55,0.55 -0.6,1.1 0,0.9 1.05,1.2 l 1.7,-0.15 0.6,-0.2 0.25,0.45 q 2,3.35 2.8,7.65 1.45,7.65 -1.5,13.6 -1.6,3.2 -4.35,5.4 -2.9,2.25 -6.25,2.7 l -2,0.2 -1.4,0.3 -2.05,2.55 -1.75,1.5 -1.7,1.25 -1.3,0.8 q -1.8,0.85 -2.9,0.9 H 34.8 l 0.8,-0.45 1,-0.6 2.65,-2.55 q 1.15,-1.25 1.3,-2.05 0.25,-1.3 -0.7,-2.15 L 39.5,75.8 q -0.1,-0.65 -0.55,-1.15 l -2.7,0.2 Q 32.95,74.6 30.85,72.1 L 30,70.85 l 0.2,0.2 q 1,1 2.4,1.45 l 2.6,0.45 3.05,0.05 q 2.55,-0.2 4.8,-1.75 2.2,-1.5 3.6,-3.8 2.65,-4.4 1.65,-10.1 -0.65,-3.55 -2.7,-4.7 l -0.35,-0.15 0.8,-0.45 q 3.3,-1.8 5.35,-4.1 0.55,-0.55 0.5,-1.05 -0.15,-0.65 -1.05,-0.75 -0.75,-0.05 -1.6,0.4 l -1.5,0.8 -0.35,0.2 -1.05,0.6 q -2.4,1.3 -6.9,3.1 L 34.3,53.05 29,53.8 24.1,53.2 23.2,53 24.3,52.25 q 1.05,-1 1.3,-2.5"
         fill="#191919"
         fill-rule="evenodd"
         stroke="none"
         id="path4" />
      <path
         d="m 17.1,47.7 0.05,-0.15 0.85,-1.3 0.6,-0.5 q 1,-0.8 1.65,-0.9 l 1.2,-0.05 1.15,0.05 q 0.8,0.15 1.95,1.3 l 0.8,1.1 0.25,0.9 v 1.6 q -0.25,1.5 -1.3,2.5 L 23.2,53 20.75,53.4 Q 19,53.4 17.9,52.5 16.95,51.6 16.7,50.15 v -1 l 0.4,-1.45 m 25.05,-4.35 -0.35,-0.6 q -0.6,-1.3 -0.5,-2.9 0,-1.7 0.85,-2.85 l 1.9,-1.3 1.2,-0.5 2.05,-0.1 q 0.75,0.15 1.4,0.7 l 0.85,0.75 0.65,0.85 q 0.45,0.6 0.55,1.6 0.1,0.9 -0.6,2.7 -0.65,1.65 -1.6,2.35 -1.05,0.8 -3,0.8 l -1.6,-0.15 q -1.1,-0.3 -1.8,-1.35"
         fill="#744c4c"
         fill-rule="evenodd"
         stroke="none"
         id="path5" />
    </g>
    <g
       id="sprite2"
       transform="translate(17.4,15.85)">
      <use
         ffdec:characterId="31"
         height="57.200001"
         transform="matrix(0.5366,0,0,0.5366,-16.6582,-14.546)"
         width="70.75"
         xlink:href="#sprite3"
         id="use5" />
    </g>
    <g
       id="sprite3"
       transform="translate(-8.65,-10.35)">
      <use
         ffdec:characterId="30"
         height="57.200001"
         transform="translate(8.65,10.35)"
         width="70.75"
         xlink:href="#shape1"
         id="use6" />
    </g>
    <g
       id="shape1"
       transform="translate(-8.65,-10.35)">
      <path
         d="m 14.8,41.7 q 0.65,-1.75 2.65,-2.5 1.8,-0.8 3.7,-0.25 1.15,0.45 2.25,1.2 l 0.9,0.4 q 1.65,0.9 2.85,2.5 L 37.8,30.1 q 2.35,-2.8 3.75,-3.95 1.5,-1.15 4.25,-2.4 18.2,-8.85 27.65,-12.6 2.15,-0.8 3.25,-0.8 h 0.8 l 1.9,2.4 -0.2,0.8 q -0.2,1.1 -1.55,3 -5.85,8.25 -18.85,23.8 -1.85,2.35 -3.35,3.5 -1.4,1.15 -4.75,2.75 l -15.15,7.15 q 1.2,1.6 1.75,3.4 l 0.2,1 0.55,2.5 q 0.1,1.95 -1.1,3.55 -1.2,1.65 -3.05,1.9 l -1.3,0.05 q -1.65,0.2 -3.45,-0.65 -1.85,-0.9 -3,-2.6 L 25,60.95 23.8,62.1 q -2.6,2.85 -4.3,3.95 -2.85,1.8 -5.5,1.45 l -1.65,-0.5 -1.2,-0.7 -0.2,-0.2 q -1,-0.85 -1.6,-1.9 L 9.25,64 9.15,63.8 8.75,62.4 q -0.2,-0.8 -0.05,-1.7 0.25,-2.65 2.7,-5.05 1.5,-1.3 4.9,-3.15 L 17.7,51.55 16.05,50 q -1.35,-1.5 -1.8,-3.6 -0.4,-1.85 0.25,-3.45 l 0.3,-1.25"
         fill="#000000"
         fill-opacity="0.372549"
         fill-rule="evenodd"
         stroke="none"
         id="path6" />
    </g>
  </defs>
</svg>
