<?xml version="1.0" encoding="UTF-8" standalone="no"?>
<svg
   ffdec:objectType="frame"
   height="73.208"
   width="64.20018"
   version="1.1"
   id="svg8"
   xmlns:xlink="http://www.w3.org/1999/xlink"
   xmlns="http://www.w3.org/2000/svg"
   xmlns:svg="http://www.w3.org/2000/svg"
   xmlns:ffdec="https://www.free-decompiler.com/flash">
  <g
     transform="translate(34.347059,35.358)"
     id="g1">
    <use
       ffdec:characterId="17"
       height="119.15"
       id="rarity"
       transform="translate(-58.5,-60.65)"
       width="119.15"
       xlink:href="#sprite0" />
    <use
       ffdec:characterId="871"
       height="73.349998"
       transform="translate(-34.35,-35.35)"
       width="64.199997"
       xlink:href="#shape0"
       id="use1" />
  </g>
  <defs
     id="defs8">
    <g
       id="shape0"
       transform="translate(34.9,36.1)">
      <path
         d="m 24.05,-26.25 -0.2,-0.65 q -0.4,-1.4 -1.2,-2.5 -0.95,-1.3 -2.05,-1.45 h -0.1 q -0.85,0 -2,0.6 -2.3,1.3 -5.7,4.15 l -5.5,4.4 q -3,2.1 -5.45,2.7 l -3.05,0.45 -3.15,0.05 -7.05,-0.3 q -3.85,-0.5 -6.6,-2 l -1.95,-1.15 -0.2,-0.1 q -1.1,-0.5 -1.95,-0.55 -2.05,-0.05 -3.8,1.65 l -1.55,2.05 -0.2,0.3 -0.7,1.15 q -1.5,2.75 -0.9,4.25 0.4,1.05 1.95,2.1 3,2.05 6.85,3.35 2.8,0.9 3.65,1.55 l 0.65,0.6 0.65,0.95 q 0.45,1 0.15,1.9 l -0.5,0.95 -0.45,0.95 q -0.2,0.7 0,1.7 l 0.4,1.65 q 0.3,1.25 0.15,3.95 -0.15,2.65 0.2,3.95 0.35,1.15 1.3,2.55 l 1.7,2.35 1.65,2.85 1.65,2.8 4.05,4.5 q 2.65,2.7 3.55,4.75 8.7,-11 12.05,-24.9 l 1.05,-5.9 q 0.3,-3 0,-6.05 l -0.05,-1.1 q 0,-1.8 0.55,-2.55 0.75,-1.05 3.5,-1.45 3.2,-0.5 4.75,-1.7 1.75,-1.4 2.9,-4.85 1.6,-4.65 0.95,-7.95 m -28.9,2.4 q 3.9,0.1 5.95,-0.6 2.1,-0.7 5.35,-3.25 l 6.15,-4.85 q 2.35,-1.8 3.7,-2.5 2.2,-1.15 4.15,-1.05 3.3,0.15 5.85,3.3 3.1,3.8 3,9.35 -0.05,4.5 -2.55,9.65 -1.4,2.7 -2.7,3.9 -1.4,1.3 -3.65,2.15 -1.4,0.55 -4.2,1.25 0.45,6.4 -0.95,12.4 -1.55,6.8 -6,15.1 L 1,35.2 Q 0.25,36.55 -0.55,37 l -1.8,0.1 q -0.9,-0.25 -1.6,-0.95 L -5,34.65 -5.95,33 q -0.95,-1.55 -3,-3.7 l -3.3,-3.55 -3.1,-4.55 -2.75,-4.4 -1.9,-3.4 q -0.95,-2 -1.05,-3.75 L -21,7.4 -20.9,5.15 -21.45,1.3 q -0.4,-2.35 -0.1,-3.8 -4.25,-1.1 -9.6,-4.8 -1.8,-1.3 -2.45,-2.2 -2.1,-2.75 -0.8,-7.35 0.9,-3.5 3.3,-6.45 2.15,-2.65 5.1,-3.9 3.15,-1.4 6.1,-0.6 1.15,0.3 2.8,1.2 2.15,1.15 2.7,1.4 2.05,0.85 4.7,1.15 l 4.85,0.2 M 9.55,-7.2 9.35,-7.05 Q 8.55,-6.4 6.75,-5.7 L 4,-4.65 3,-4.25 Q 3.35,-3.5 3.35,-2.2 V 1.15 L 3.1,8.2 2.4,14 Q 2.15,15.85 1.7,17.1 L 1.45,18.2 1.4,19.25 Q 1.3,19.9 0.75,20 0.2,20.1 -0.05,19.45 L -0.15,18.4 -0.2,13.95 -0.45,-2.2 -0.4,-3.35 -2.05,-3.15 H -4.9 l 0.05,1 0.2,1.35 0.25,1.5 q 0,1 -0.7,1.3 -0.8,0.45 -1.7,-0.45 l -0.75,-1.1 q -0.95,-1.7 -1,-2.85 l 0.1,-1.05 q -1.7,-0.3 -2.7,-0.75 l -1.3,-1 -0.1,-0.1 -0.2,-0.55 V -6.2 l 0.4,-0.75 q 0.5,-0.4 1.25,-0.25 l 1.25,0.35 2.35,0.1 6.25,-0.75 2.85,-0.9 5.2,-1.35 3.85,-0.85 0.65,0.1 q 0.25,0.2 0.05,0.7 l -1,1.85 -0.8,0.75"
         fill="#000000"
         fill-rule="evenodd"
         stroke="none"
         id="path1" />
      <path
         d="m -27.65,-18.6 0.2,-0.3 1.55,-2.05 q 1.75,-1.7 3.8,-1.65 0.85,0.05 1.95,0.55 l 0.2,0.1 1.95,1.15 q 2.75,1.5 6.6,2 l 7.05,0.3 3.15,-0.05 3.05,-0.45 q 2.45,-0.6 5.45,-2.7 l 5.5,-4.4 q 3.4,-2.85 5.7,-4.15 1.15,-0.6 2,-0.6 h 0.1 q 1.1,0.15 2.05,1.45 0.8,1.1 1.2,2.5 l 0.2,0.65 q -0.95,4.65 -6.7,8.95 -8.1,6.05 -18.4,7.75 -10.35,1.7 -19.95,-1.5 -2.9,-0.9 -4.5,-2.3 -2.1,-1.9 -2.2,-4.5 l 0.05,-0.75"
         fill="#323232"
         fill-rule="evenodd"
         stroke="none"
         id="path2" />
      <path
         d="m -27.65,-18.6 -0.05,0.75 q 0.1,2.6 2.2,4.5 1.6,1.4 4.5,2.3 9.6,3.2 19.95,1.5 10.3,-1.7 18.4,-7.75 5.75,-4.3 6.7,-8.95 0.65,3.3 -0.95,7.95 -1.15,3.45 -2.9,4.85 -1.55,1.2 -4.75,1.7 -2.75,0.4 -3.5,1.45 -0.55,0.75 -0.55,2.55 l -0.65,0.2 -1.2,0.35 0.8,-0.75 1,-1.85 q 0.2,-0.5 -0.05,-0.7 l -0.65,-0.1 -3.85,0.85 -5.2,1.35 -2.85,0.9 -6.25,0.75 -2.35,-0.1 -1.25,-0.35 q -0.75,-0.15 -1.25,0.25 l -0.4,0.75 v 0.35 l 0.2,0.55 0.1,0.1 -1.15,-0.05 -2.55,-0.35 -0.65,-0.6 q -0.85,-0.65 -3.65,-1.55 -3.85,-1.3 -6.85,-3.35 -1.55,-1.05 -1.95,-2.1 -0.6,-1.5 0.9,-4.25 l 0.7,-1.15"
         fill="#242424"
         fill-rule="evenodd"
         stroke="none"
         id="path3" />
      <path
         d="m -0.2,13.95 q -0.45,0.1 -0.9,-0.2 -0.5,-0.35 -0.6,-0.9 l 0.05,-1.1 -0.2,-1.25 -0.2,-2.15 -0.3,-6.8 -0.35,-2.6 q -0.1,-1.35 0.65,-2.1 l 1.65,-0.2 -0.05,1.15 0.25,16.15 M -14.1,2.5 -13.8,1.75 q 0.4,-0.8 1.2,-1.1 0.75,-0.3 1.6,0 0.85,0.3 1.25,1 0.55,0.8 0.45,2.6 l -0.1,4.1 0.1,1.5 0.45,1.4 0.45,1.4 0.75,1.55 q 0.45,0.5 0.55,1 0.15,0.65 -0.35,1.15 -0.4,0.4 -0.9,0.35 L -8.6,16.65 -9.25,16.2 -11.5,13.95 -12.7,11.9 -13.4,10.8 -13.6,9.6 -13.75,5.6 -13.7,4.95 -13.8,4.4 -13.85,4.25 -14.1,3.3 V 2.5"
         fill="#ffffff"
         fill-rule="evenodd"
         stroke="none"
         id="path4" />
      <path
         d="m -13.85,4.25 0.05,0.15 0.1,0.55 -0.15,-0.7"
         fill="#353535"
         fill-rule="evenodd"
         stroke="none"
         id="path5" />
      <path
         d="m 11.4,-7.75 0.05,1.1 q 0.3,3.05 0,6.05 L 10.4,5.3 Q 7.05,19.2 -1.65,30.2 -2.55,28.15 -5.2,25.45 l -4.05,-4.5 -1.65,-2.8 -1.65,-2.85 -1.7,-2.35 q -0.95,-1.4 -1.3,-2.55 -0.35,-1.3 -0.2,-3.95 0.15,-2.7 -0.15,-3.95 l -0.4,-1.65 q -0.2,-1 0,-1.7 l 0.45,-0.95 0.5,-0.95 q 0.3,-0.9 -0.15,-1.9 l -0.65,-0.95 2.55,0.35 q -0.45,0.55 -0.5,1.6 -0.35,3.2 0,6.15 v 0.8 l 0.25,0.95 0.15,0.7 -0.05,0.65 0.15,4 0.2,1.2 0.7,1.1 1.2,2.05 2.25,2.25 0.65,0.45 0.25,0.05 1.5,3 1.05,2.6 1.25,2.45 q 0.85,1.3 1.75,1.8 l 2.5,0.05 Q 0.25,26.3 1,25.05 5.95,16.4 9.8,2.4 q 1.3,-5 1.4,-7.6 0.1,-1.6 -0.45,-2.35 l 0.65,-0.2"
         fill="#8d8d8d"
         fill-rule="evenodd"
         stroke="none"
         id="path6" />
      <path
         d="m -0.2,13.95 0.05,4.45 0.1,1.05 Q 0.2,20.1 0.75,20 1.3,19.9 1.4,19.25 L 1.45,18.2 1.7,17.1 Q 2.15,15.85 2.4,14 L 3.1,8.2 3.35,1.15 V -2.2 Q 3.35,-3.5 3,-4.25 l 1,-0.4 2.75,-1.05 q 1.8,-0.7 2.6,-1.35 l 0.2,-0.15 1.2,-0.35 Q 11.3,-6.8 11.2,-5.2 11.1,-2.6 9.8,2.4 5.95,16.4 1,25.05 0.25,26.3 -0.3,26.6 l -2.5,-0.05 q -0.9,-0.5 -1.75,-1.8 l -1.25,-2.45 -1.05,-2.6 -1.5,-3 q 0.5,0.05 0.9,-0.35 0.5,-0.5 0.35,-1.15 -0.1,-0.5 -0.55,-1 l -0.75,-1.55 -0.45,-1.4 -0.45,-1.4 -0.1,-1.5 0.1,-4.1 q 0.1,-1.8 -0.45,-2.6 -0.4,-0.7 -1.25,-1 -0.85,-0.3 -1.6,0 -0.8,0.3 -1.2,1.1 l -0.3,0.75 q -0.35,-2.95 0,-6.15 0.05,-1.05 0.5,-1.6 l 1.15,0.05 1.3,1 q 1,0.45 2.7,0.75 l -0.1,1.05 q 0.05,1.15 1,2.85 l 0.75,1.1 q 0.9,0.9 1.7,0.45 0.7,-0.3 0.7,-1.3 l -0.25,-1.5 -0.2,-1.35 -0.05,-1 h 2.85 q -0.75,0.75 -0.65,2.1 l 0.35,2.6 0.3,6.8 0.2,2.15 0.2,1.25 -0.05,1.1 q 0.1,0.55 0.6,0.9 0.45,0.3 0.9,0.2"
         fill="#a4a4a4"
         fill-rule="evenodd"
         stroke="none"
         id="path7" />
    </g>
    <g
       id="sprite1"
       transform="translate(17.4,15.85)">
      <use
         ffdec:characterId="31"
         height="57.200001"
         transform="matrix(0.5366,0,0,0.5366,-16.6582,-14.546)"
         width="70.75"
         xlink:href="#sprite2"
         id="use7" />
    </g>
    <g
       id="sprite2"
       transform="translate(-8.65,-10.35)">
      <use
         ffdec:characterId="30"
         height="57.200001"
         transform="translate(8.65,10.35)"
         width="70.75"
         xlink:href="#shape1"
         id="use8" />
    </g>
    <g
       id="shape1"
       transform="translate(-8.65,-10.35)">
      <path
         d="m 14.8,41.7 q 0.65,-1.75 2.65,-2.5 1.8,-0.8 3.7,-0.25 1.15,0.45 2.25,1.2 l 0.9,0.4 q 1.65,0.9 2.85,2.5 L 37.8,30.1 q 2.35,-2.8 3.75,-3.95 1.5,-1.15 4.25,-2.4 18.2,-8.85 27.65,-12.6 2.15,-0.8 3.25,-0.8 h 0.8 l 1.9,2.4 -0.2,0.8 q -0.2,1.1 -1.55,3 -5.85,8.25 -18.85,23.8 -1.85,2.35 -3.35,3.5 -1.4,1.15 -4.75,2.75 l -15.15,7.15 q 1.2,1.6 1.75,3.4 l 0.2,1 0.55,2.5 q 0.1,1.95 -1.1,3.55 -1.2,1.65 -3.05,1.9 l -1.3,0.05 q -1.65,0.2 -3.45,-0.65 -1.85,-0.9 -3,-2.6 L 25,60.95 23.8,62.1 q -2.6,2.85 -4.3,3.95 -2.85,1.8 -5.5,1.45 l -1.65,-0.5 -1.2,-0.7 -0.2,-0.2 q -1,-0.85 -1.6,-1.9 L 9.25,64 9.15,63.8 8.75,62.4 q -0.2,-0.8 -0.05,-1.7 0.25,-2.65 2.7,-5.05 1.5,-1.3 4.9,-3.15 L 17.7,51.55 16.05,50 q -1.35,-1.5 -1.8,-3.6 -0.4,-1.85 0.25,-3.45 l 0.3,-1.25"
         fill="#000000"
         fill-opacity="0.372549"
         fill-rule="evenodd"
         stroke="none"
         id="path8" />
    </g>
  </defs>
</svg>
