<?xml version="1.0" encoding="UTF-8" standalone="no"?>
<svg
   ffdec:objectType="frame"
   height="63.799999"
   width="60.198147"
   version="1.1"
   id="svg4"
   xmlns:xlink="http://www.w3.org/1999/xlink"
   xmlns="http://www.w3.org/2000/svg"
   xmlns:svg="http://www.w3.org/2000/svg"
   xmlns:ffdec="https://www.free-decompiler.com/flash">
  <g
     transform="translate(28.948148,33)"
     id="g1">
    <use
       ffdec:characterId="17"
       height="119.15"
       id="rarity"
       transform="translate(-58.5,-60.65)"
       width="119.15"
       xlink:href="#sprite0" />
    <use
       ffdec:characterId="522"
       height="64"
       transform="translate(-28.95,-33)"
       width="60.200001"
       xlink:href="#shape0"
       id="use1" />
  </g>
  <defs
     id="defs4">
    <g
       id="shape0"
       transform="translate(28.55,32.2)">
      <path
         d="m 5.2,-24.7 -2.1,-0.75 -2,-0.25 -5,2.35 q -3.4,1.7 -6.65,3.7 l -1.55,0.95 -3.6,2.45 q 1.15,0.95 3.65,2.05 l 1.85,0.85 q 5.4,2.35 10.7,4.9 L 4.3,-6.6 5.05,-6.25 6.9,-7.4 9.6,-9.15 q 3.5,-2.3 7.05,-4.75 l 0.25,-0.2 q 3.2,-2.3 6.6,-4.2 l -5.75,-2 L 5.2,-24.7 M 9.9,-2.75 Q 8.15,-1.4 6.3,-0.55 L 6.25,-0.1 Q 6.25,1 5.6,1.85 L 5.5,6.15 V 6.2 L 5.05,8.3 4.7,15.8 4.35,18.65 Q 4.1,20.65 3.1,22.4 H 2.95 2.25 Q 1.05,19.9 1.05,17 l 0.1,-1.45 0.25,-0.9 Q 1.5,10.5 1.75,6.45 l 0.6,-7.25 -4.65,-2.15 -14.35,-6.3 -3.9,-1.65 -0.75,-0.3 0.1,0.85 q -0.05,0.8 -0.5,1.5 l -0.5,6.1 -0.25,7.8 v 1.3 0.05 l -0.1,1.9 -0.05,3 3.55,2.5 q 6.6,4.35 13.95,7.85 l 0.8,0.4 q 2.7,1.3 5.25,3 3.95,-2.25 8,-4.45 6.8,-3.8 13.7,-7.4 L 26.6,11.1 V 10.85 10.65 10.45 10.2 10 L 26.7,9.8 V 9.6 9.35 9.15 8.95 8.7 8.5 8.3 8.1 7.85 7.65 7.45 7.2 7 6.8 6.6 6.35 6.15 5.95 5.7 5.55 5.5 5.3 5.05 4.85 4.65 4.45 4.2 4 3.8 3.55 3.35 3.15 2.95 2.7 2.5 2.3 2.05 1.85 1.65 1.45 1.2 1 0.8 0.55 0.35 0.15 -0.1 -0.3 -0.5 -0.7 -0.95 -1.15 -1.35 -1.6 -1.8 -2 v -0.2 -0.25 -0.2 -0.2 -0.25 -0.2 -0.2 -0.2 -0.25 -0.2 -0.2 L 26.75,-4.6 V -4.8 -5 -5.2 -5.45 -5.65 -5.85 -6.1 -6.3 -6.5 l 0.1,-0.25 v -0.2 -0.15 -0.05 -0.2 -0.25 -0.2 -0.2 -0.25 -0.2 -0.2 -0.2 -0.25 -0.2 -0.2 -0.25 -0.2 -0.2 l 0.05,-0.2 v -0.25 -0.2 -0.2 -0.25 -0.2 -0.2 -0.25 -0.2 -0.2 -0.2 -0.25 -0.2 -0.2 -0.25 -0.2 -0.2 -0.2 -0.15 q -3,2.5 -6.25,4.65 l -6.35,3.6 -3.5,2.35 -0.9,0.8 M 0.95,-32.2 q 12.45,3.4 24.7,7.7 l 1.7,0.7 v 0.15 q 1.85,0.6 2.7,1.8 l 0.15,0.05 0.35,0.2 0.3,0.2 0.15,0.25 0.15,0.2 0.1,0.2 0.1,0.2 v 0.25 l 0.15,0.2 0.05,0.2 v 0.25 0.2 0.2 0.2 0.25 0.2 l 0.1,0.2 v 0.25 0.2 0.2 0.25 0.2 0.2 0.2 0.25 0.2 0.2 0.25 0.2 0.2 0.2 0.25 0.2 0.2 0.25 0.2 0.2 0.2 0.25 0.2 0.2 0.25 0.2 0.2 0.2 0.25 0.2 0.2 0.25 0.2 0.2 0.25 0.2 0.2 0.2 0.25 0.2 0.2 0.25 0.2 0.2 0.2 0.25 0.2 0.2 0.25 0.2 0.2 0.2 0.25 0.2 0.2 0.25 0.2 0.2 0.2 0.25 0.2 0.2 0.25 0.2 0.2 0.25 0.2 0.2 0.2 0.25 0.2 0.2 0.25 0.2 0.2 0.2 0.25 0.2 0.2 0.25 0.2 0.2 0.2 0.25 0.2 0.2 0.25 l -0.1,0.2 v 0.2 0.25 0.2 0.2 0.2 0.25 0.2 0.2 0.25 0.2 0.2 0.2 0.25 0.2 0.2 0.25 0.2 0.2 0.2 0.25 0.2 0.2 0.25 0.2 0.2 0.2 0.25 0.2 0.2 0.25 0.2 0.2 V 7.6 7.8 8 L 31.5,8.2 v 0.25 0.2 0.2 0.25 0.2 l -0.1,0.2 v 0.2 l -0.05,0.25 -0.1,0.2 v 0.2 0.25 0.2 L 31.2,11 v 0.2 l -0.05,0.25 v 0.2 l -0.1,0.2 v 0.25 0.2 0.2 0.25 L 31,12.95 v 0.2 l -0.15,0.2 -0.1,0.25 v 0.15 0.2 0.2 l -0.05,0.2 v 0.25 l -0.05,0.2 -0.1,0.2 -0.05,0.25 -0.15,0.2 -0.15,0.2 -0.2,0.2 -0.3,0.25 -0.15,0.1 -0.15,0.15 -0.2,0.25 -0.3,0.2 -0.5,0.2 -0.25,0.25 -0.4,0.2 -0.5,0.2 -0.55,0.15 -0.45,0.05 H 26.2 l -0.4,0.05 -0.3,0.2 -0.1,0.05 -0.3,0.25 -0.25,0.1 -0.35,0.1 Q 18.55,21.65 12.8,25.15 7.1,28.6 1.4,31.6 l -1.6,-0.05 q -11.4,-6.75 -22.95,-13.3 -2.45,-1.4 -4.45,-3.45 -1.6,-1.6 -0.5,-3.6 0.15,-8.75 1.2,-17.4 l -0.35,-5.25 q -0.05,-2.15 1.1,-3.75 l 0.75,-0.8 q 0.15,-1.15 1.55,-2.15 10.7,-7.9 22.75,-13.5 l 2.05,-0.55"
         fill="#000000"
         fill-rule="evenodd"
         stroke="none"
         id="path1" />
      <path
         d="m -3.9,-23.35 5,-2.35 2,0.25 2.1,0.75 q -2.75,3.55 -8.25,2.15 l -0.75,-0.6 -0.1,-0.2 m 21.65,3.05 5.75,2 q -3.4,1.9 -6.6,4.2 l -0.25,0.2 q -2.35,-2.7 0.1,-5.5 l 1,-0.9 M 9.6,-9.15 6.9,-7.4 Q 5.85,-7.45 4.95,-6.9 L 4.3,-6.6 0.5,-8.45 1.35,-9.35 q 1.1,-0.9 2.4,-1.35 l -1.4,-0.05 q -6.9,-0.45 -6.4,-6.6 0.1,-1.85 1.7,-3.05 2.15,-1.65 4.75,-2 6.7,-0.7 6.95,5.3 0.2,4.9 -3.5,6.05 1.55,0.05 2.85,1 l 0.9,0.9 m -19.8,-4.2 -1.85,-0.85 q -2.5,-1.1 -3.65,-2.05 l 3.6,-2.45 1.55,-0.95 q 2.9,1.4 1.2,4.95 l -0.85,1.35 M 5.5,6.2 V 6.15 L 5.6,1.85 Q 6.25,1 6.25,-0.1 L 6.3,-0.55 q 1.85,-0.85 3.6,-2.2 0.7,1.45 0.5,3.55 L 10,2.05 Q 8.25,5.3 5.5,6.2 M 20.65,-9.5 q 3.25,-2.15 6.25,-4.65 v 0.15 0.2 0.2 0.2 0.25 0.2 0.2 0.25 0.2 0.2 0.2 0.25 0.2 0.2 0.25 0.2 0.2 0.25 l -0.05,0.2 v 0.2 0.2 0.25 0.2 0.2 0.25 0.2 0.2 0.2 0.25 0.2 0.2 0.25 0.2 0.05 H 26.7 q -3.85,0.25 -6.05,-2.4 M 26.7,5.55 V 5.7 5.95 6.15 6.35 6.6 6.8 7 7.2 7.45 7.65 7.85 8.1 8.3 8.5 8.7 8.95 9.15 9.35 9.6 9.8 L 26.6,10 v 0.2 0.25 0.2 0.2 0.25 l -3.95,2.1 v -0.05 q -0.05,-2.3 0.7,-4.5 0.8,-1.45 2.1,-2.55 0.6,-0.45 1.25,-0.55 M 8.95,20.6 q -4.05,2.2 -8,4.45 -2.55,-1.7 -5.25,-3 0.1,-2.15 1.9,-4.3 1.45,-1.75 3.55,-2.2 L 1.05,17 q 0,2.9 1.2,5.4 h 0.7 0.15 q 1,-1.75 1.25,-3.75 L 4.7,15.8 q 2,0.6 3.3,2.6 l 0.95,2.2 m -28,-6.8 -3.55,-2.5 0.05,-3 0.1,-1.9 V 6.35 q 5.55,2.6 3.4,7.45 m -3.15,-16.55 0.5,-6.1 q 0.45,-0.7 0.5,-1.5 l -0.1,-0.85 0.75,0.3 3.9,1.65 Q -16.2,-5.3 -21,-3.1 l -1.2,0.35 M -2.3,-2.95 2.35,-0.8 1.75,6.45 0.35,6.1 Q -0.8,5.75 -1.55,4.8 -4.45,1.4 -2.4,-2.8 l 0.1,-0.15 m 18.55,0.35 q 7.15,0.3 7.4,7.45 0.1,3.85 -3.5,5.55 Q 14.8,12.9 11.5,8.65 9.45,6.05 10.55,2.95 12,-1.35 16.25,-2.6 m -28.6,1.65 q 8.45,-0.05 7.6,7.85 -0.45,4.7 -4.9,6.45 -4.7,1.85 -7.6,-2.25 -1.2,-1.7 -1.35,-3.7 -0.55,-5.5 4.7,-7.9 l 1.55,-0.45"
         fill="#ada686"
         fill-rule="evenodd"
         stroke="none"
         id="path2" />
      <path
         d="m -3.9,-23.35 0.1,0.2 0.75,0.6 q 5.5,1.4 8.25,-2.15 l 12.55,4.4 -1,0.9 q -2.45,2.8 -0.1,5.5 -3.55,2.45 -7.05,4.75 l -0.9,-0.9 q -1.3,-0.95 -2.85,-1 3.7,-1.15 3.5,-6.05 -0.25,-6 -6.95,-5.3 -2.6,0.35 -4.75,2 -1.6,1.2 -1.7,3.05 -0.5,6.15 6.4,6.6 l 1.4,0.05 q -1.3,0.45 -2.4,1.35 l -0.85,0.9 q -5.3,-2.55 -10.7,-4.9 l 0.85,-1.35 q 1.7,-3.55 -1.2,-4.95 3.25,-2 6.65,-3.7 M 5.5,6.2 Q 8.25,5.3 10,2.05 L 10.4,0.8 q 0.2,-2.1 -0.5,-3.55 l 0.9,-0.8 3.5,-2.35 6.35,-3.6 q 2.2,2.65 6.05,2.4 h 0.15 v 0.15 0.2 l -0.1,0.25 v 0.2 0.2 0.25 0.2 0.2 0.25 0.2 0.2 0.2 l -0.05,0.25 v 0.2 0.2 0.25 0.2 0.2 0.2 0.25 0.2 0.2 0.25 0.2 0.2 0.2 0.25 0.2 0.2 0.25 0.2 0.2 0.2 0.25 0.2 0.2 0.25 0.2 0.2 0.25 0.2 0.2 0.2 0.25 0.2 0.2 0.25 0.2 0.2 0.2 0.25 0.2 0.2 0.25 0.2 0.2 0.2 0.25 0.2 0.05 q -0.65,0.1 -1.25,0.55 -1.3,1.1 -2.1,2.55 -0.75,2.2 -0.7,4.5 v 0.05 q -6.9,3.6 -13.7,7.4 L 8,18.4 Q 6.7,16.4 4.7,15.8 L 5.05,8.3 5.5,6.2 m -9.8,15.85 -0.8,-0.4 q -7.35,-3.5 -13.95,-7.85 2.15,-4.85 -3.4,-7.45 v -1.3 l 0.25,-7.8 1.2,-0.35 q 4.8,-2.2 4.35,-6.15 l 14.35,6.3 -0.1,0.15 q -2.05,4.2 0.85,7.6 0.75,0.95 1.9,1.3 l 1.4,0.35 Q 1.5,10.5 1.4,14.65 l -0.25,0.9 q -2.1,0.45 -3.55,2.2 -1.8,2.15 -1.9,4.3 m -8.05,-23 -1.55,0.45 q -5.25,2.4 -4.7,7.9 0.15,2 1.35,3.7 2.9,4.1 7.6,2.25 4.45,-1.75 4.9,-6.45 0.85,-7.9 -7.6,-7.85 m 28.6,-1.65 q -4.25,1.25 -5.7,5.55 -1.1,3.1 0.95,5.7 3.3,4.25 8.65,1.75 3.6,-1.7 3.5,-5.55 -0.25,-7.15 -7.4,-7.45"
         fill="#6b6752"
         fill-rule="evenodd"
         stroke="none"
         id="path3" />
    </g>
    <g
       id="sprite1"
       transform="translate(17.4,15.85)">
      <use
         ffdec:characterId="31"
         height="57.200001"
         transform="matrix(0.5366,0,0,0.5366,-16.6582,-14.546)"
         width="70.75"
         xlink:href="#sprite2"
         id="use3" />
    </g>
    <g
       id="sprite2"
       transform="translate(-8.65,-10.35)">
      <use
         ffdec:characterId="30"
         height="57.200001"
         transform="translate(8.65,10.35)"
         width="70.75"
         xlink:href="#shape1"
         id="use4" />
    </g>
    <g
       id="shape1"
       transform="translate(-8.65,-10.35)">
      <path
         d="m 14.8,41.7 q 0.65,-1.75 2.65,-2.5 1.8,-0.8 3.7,-0.25 1.15,0.45 2.25,1.2 l 0.9,0.4 q 1.65,0.9 2.85,2.5 L 37.8,30.1 q 2.35,-2.8 3.75,-3.95 1.5,-1.15 4.25,-2.4 18.2,-8.85 27.65,-12.6 2.15,-0.8 3.25,-0.8 h 0.8 l 1.9,2.4 -0.2,0.8 q -0.2,1.1 -1.55,3 -5.85,8.25 -18.85,23.8 -1.85,2.35 -3.35,3.5 -1.4,1.15 -4.75,2.75 l -15.15,7.15 q 1.2,1.6 1.75,3.4 l 0.2,1 0.55,2.5 q 0.1,1.95 -1.1,3.55 -1.2,1.65 -3.05,1.9 l -1.3,0.05 q -1.65,0.2 -3.45,-0.65 -1.85,-0.9 -3,-2.6 L 25,60.95 23.8,62.1 q -2.6,2.85 -4.3,3.95 -2.85,1.8 -5.5,1.45 l -1.65,-0.5 -1.2,-0.7 -0.2,-0.2 q -1,-0.85 -1.6,-1.9 L 9.25,64 9.15,63.8 8.75,62.4 q -0.2,-0.8 -0.05,-1.7 0.25,-2.65 2.7,-5.05 1.5,-1.3 4.9,-3.15 L 17.7,51.55 16.05,50 q -1.35,-1.5 -1.8,-3.6 -0.4,-1.85 0.25,-3.45 l 0.3,-1.25"
         fill="#000000"
         fill-opacity="0.372549"
         fill-rule="evenodd"
         stroke="none"
         id="path4" />
    </g>
  </defs>
</svg>
