<?xml version="1.0" encoding="UTF-8" standalone="no"?>
<svg
   ffdec:objectType="frame"
   height="48.762501"
   width="61.416134"
   version="1.1"
   id="svg4"
   sodipodi:docname="ITEM Jank Alloy Mask.svg"
   xmlns:inkscape="http://www.inkscape.org/namespaces/inkscape"
   xmlns:sodipodi="http://sodipodi.sourceforge.net/DTD/sodipodi-0.dtd"
   xmlns:xlink="http://www.w3.org/1999/xlink"
   xmlns="http://www.w3.org/2000/svg"
   xmlns:svg="http://www.w3.org/2000/svg"
   xmlns:ffdec="https://www.free-decompiler.com/flash">
  <sodipodi:namedview
     id="namedview4"
     pagecolor="#ffffff"
     bordercolor="#000000"
     borderopacity="0.25"
     inkscape:showpageshadow="2"
     inkscape:pageopacity="0.0"
     inkscape:pagecheckerboard="0"
     inkscape:deskcolor="#d1d1d1"
     fit-margin-top="5"
     fit-margin-left="5"
     fit-margin-right="5"
     fit-margin-bottom="5" />
  <g
     transform="translate(27.072222,25.8125)"
     id="g1">
    <use
       ffdec:characterId="17"
       height="119.15"
       id="rarity"
       transform="translate(-58.5,-60.65)"
       width="119.15"
       xlink:href="#sprite0" />
    <use
       ffdec:characterId="960"
       height="48.75"
       transform="translate(-27.05,-25.8)"
       width="61.400002"
       xlink:href="#shape0"
       id="use1" />
  </g>
  <defs
     id="defs4">
    <g
       id="shape0"
       transform="translate(73.85,27.15)">
      <path
         d="m -66.15,-14.35 0.05,-0.6 -3.35,0.6 0.05,1.95 -0.1,3.2 -0.05,4.95 q 1.7,-0.4 3.15,0 -0.05,-5.05 0.25,-10.1 m 18.9,-12.8 q 11.35,0.4 22.5,2 9.05,1.25 11.25,9.85 2.45,9.25 -0.85,18.2 -1,2.7 -3.25,4.55 -6,4.9 -13.6,5.65 0.5,1.6 -0.05,3.8 -0.3,1.4 -1.05,2.55 -1.1,1.75 -3.35,1.9 -7.6,0.5 -15.1,0 -1.2,-0.05 -1.45,-1.3 -0.2,-0.75 0.1,-1.5 l -0.15,-4.5 -12.3,-1.1 q -0.8,-0.15 -0.9,-0.95 -0.6,-5.4 -0.8,-10.85 L -69,1.2 -71.9,0.5 q -2.2,-0.7 -1.7,-2.85 -0.35,-2.2 -0.25,-4.5 l 0.25,-8.55 q 0,-1.5 1.1,-2.4 l 0.35,-0.15 0.7,-0.2 0.4,-0.05 0.5,-0.1 4.7,0.15 0.55,-4.3 q 0.2,-1.4 1.6,-1.9 7.95,-3 16.45,-2.8 m -8.45,8 q 4.75,2.2 0.4,4.9 -0.9,0.55 -1.65,-0.2 -2.9,-2.75 0.7,-4.55 l 0.55,-0.15 m 9.85,-2.85 -11.3,1.45 -3.25,0.75 -0.1,10.95 -0.05,4.55 21.75,-1.45 -0.45,-14.2 0.15,-1.6 -6.75,-0.45 m -10.3,20.75 -4.4,-0.55 0.15,9.7 13.05,0.6 9.9,-0.35 3.5,-0.3 q 4.55,-0.4 8.7,-2.05 2.1,-0.85 4,-2 l 0.4,-0.4 0.2,-0.2 1.05,-1.15 1.05,-1.9 0.4,-0.65 q 1.75,-8.35 -1.85,-15.95 -1.65,-3.4 -5.65,-3.85 l -1.05,-0.1 -6.6,-0.65 -0.8,-0.1 0.15,0.65 -0.05,2.1 q -0.85,6.45 -0.45,13.05 0.2,2.7 -2.05,3.1 l -1.2,0.2 -2.2,0.35 -7.15,0.65 q -4.65,0.2 -9.1,-0.2 m 12.45,-10.3 q 1.85,0.15 2.3,1.85 l 0.1,1.05 q -2.35,3.7 -4.45,-0.05 -0.45,-0.75 0,-1.55 0.7,-1.3 2.05,-1.3 m 0.35,25.15 -5.6,0.4 v 0.45 l 0.2,2.4 12.65,-1 q 0.25,-0.95 0.1,-1.95 l -0.05,-0.7 -7.3,0.4"
         fill="#000000"
         fill-rule="evenodd"
         stroke="none"
         id="path1" />
      <path
         d="m -47.35,8.5 q -3.15,-0.75 -6.3,-2.55 -4.1,-2.4 -3.25,-6.6 l 0.25,-0.25 0.3,-0.25 0.2,-0.1 q 4.45,0.4 9.1,0.2 l 7.15,-0.65 0.45,0.2 0.4,0.05 0.8,-0.2 0.45,-0.2 0.1,-0.2 1.2,-0.2 q 2.25,-0.4 2.05,-3.1 -0.4,-6.6 0.45,-13.05 l 0.05,-2.1 0.65,-0.55 6.6,0.65 q 5.7,12.05 -1.9,22.85 -1.65,2.3 -4.15,3.7 -2.35,1.3 -4.7,2 l -9.9,0.35"
         fill="#d9d9d9"
         fill-rule="evenodd"
         stroke="none"
         id="path2" />
      <path
         d="m -66.15,-14.35 q -0.3,5.05 -0.25,10.1 -1.45,-0.4 -3.15,0 l 0.05,-4.95 0.1,-3.2 -0.05,-1.95 3.35,-0.6 -0.05,0.6 m 20.3,-7.65 6.75,0.45 -0.15,1.6 0.45,14.2 -21.75,1.45 0.05,-4.55 0.1,-10.95 3.25,-0.75 11.3,-1.45 m -9.85,2.85 -0.55,0.15 q -3.6,1.8 -0.7,4.55 0.75,0.75 1.65,0.2 4.35,-2.7 -0.4,-4.9 m -0.45,17.9 -0.2,0.1 -0.3,0.25 -0.25,0.25 q -0.85,4.2 3.25,6.6 3.15,1.8 6.3,2.55 l -13.05,-0.6 -0.15,-9.7 4.4,0.55 m 18.7,9.4 q 2.35,-0.7 4.7,-2 2.5,-1.4 4.15,-3.7 7.6,-10.8 1.9,-22.85 l 1.05,0.1 q 4,0.45 5.65,3.85 3.6,7.6 1.85,15.95 l -0.4,0.65 -1.05,1.9 -1.05,1.15 -0.2,0.2 -0.4,0.4 q -1.9,1.15 -4,2 -4.15,1.65 -8.7,2.05 l -3.5,0.3 m -6.25,-19.7 q -1.35,0 -2.05,1.3 -0.45,0.8 0,1.55 2.1,3.75 4.45,0.05 l -0.1,-1.05 q -0.45,-1.7 -2.3,-1.85 m 0.35,25.15 7.3,-0.4 0.05,0.7 q 0.15,1 -0.1,1.95 l -12.65,1 -0.2,-2.4 V 14 l 5.6,-0.4"
         fill="#afafaf"
         fill-rule="evenodd"
         stroke="none"
         id="path3" />
    </g>
    <g
       id="sprite1"
       transform="translate(17.4,15.85)">
      <use
         ffdec:characterId="31"
         height="57.200001"
         transform="matrix(0.5366,0,0,0.5366,-16.6582,-14.546)"
         width="70.75"
         xlink:href="#sprite2"
         id="use3" />
    </g>
    <g
       id="sprite2"
       transform="translate(-8.65,-10.35)">
      <use
         ffdec:characterId="30"
         height="57.200001"
         transform="translate(8.65,10.35)"
         width="70.75"
         xlink:href="#shape1"
         id="use4" />
    </g>
    <g
       id="shape1"
       transform="translate(-8.65,-10.35)">
      <path
         d="m 14.8,41.7 q 0.65,-1.75 2.65,-2.5 1.8,-0.8 3.7,-0.25 1.15,0.45 2.25,1.2 l 0.9,0.4 q 1.65,0.9 2.85,2.5 L 37.8,30.1 q 2.35,-2.8 3.75,-3.95 1.5,-1.15 4.25,-2.4 18.2,-8.85 27.65,-12.6 2.15,-0.8 3.25,-0.8 h 0.8 l 1.9,2.4 -0.2,0.8 q -0.2,1.1 -1.55,3 -5.85,8.25 -18.85,23.8 -1.85,2.35 -3.35,3.5 -1.4,1.15 -4.75,2.75 l -15.15,7.15 q 1.2,1.6 1.75,3.4 l 0.2,1 0.55,2.5 q 0.1,1.95 -1.1,3.55 -1.2,1.65 -3.05,1.9 l -1.3,0.05 q -1.65,0.2 -3.45,-0.65 -1.85,-0.9 -3,-2.6 L 25,60.95 23.8,62.1 q -2.6,2.85 -4.3,3.95 -2.85,1.8 -5.5,1.45 l -1.65,-0.5 -1.2,-0.7 -0.2,-0.2 q -1,-0.85 -1.6,-1.9 L 9.25,64 9.15,63.8 8.75,62.4 q -0.2,-0.8 -0.05,-1.7 0.25,-2.65 2.7,-5.05 1.5,-1.3 4.9,-3.15 L 17.7,51.55 16.05,50 q -1.35,-1.5 -1.8,-3.6 -0.4,-1.85 0.25,-3.45 l 0.3,-1.25"
         fill="#000000"
         fill-opacity="0.372549"
         fill-rule="evenodd"
         stroke="none"
         id="path4" />
    </g>
  </defs>
</svg>
