<?xml version="1.0" encoding="UTF-8" standalone="no"?>
<svg
   ffdec:objectType="frame"
   height="71.502098"
   width="55.436111"
   version="1.1"
   id="svg5"
   xmlns:xlink="http://www.w3.org/1999/xlink"
   xmlns="http://www.w3.org/2000/svg"
   xmlns:svg="http://www.w3.org/2000/svg"
   xmlns:ffdec="https://www.free-decompiler.com/flash">
  <g
     transform="translate(27.561111,37.960251)"
     id="g1">
    <use
       ffdec:characterId="17"
       height="119.15"
       id="rarity"
       transform="translate(-58.5,-60.65)"
       width="119.15"
       xlink:href="#sprite0" />
    <use
       ffdec:characterId="433"
       height="71.5"
       transform="translate(-27.55,-37.95)"
       width="55.400002"
       xlink:href="#shape0"
       id="use1" />
  </g>
  <defs
     id="defs5">
    <g
       id="shape0"
       transform="translate(27.15,37.15)">
      <path
         d="m 21.75,-11.6 q 0.4,-8.2 -6.55,-14.2 -5.95,-5.15 -13.85,-4.8 -12.1,2.8 -18.65,13.6 -1.85,3.1 -3,6.45 v 2.15 2.35 q 0.05,1.1 -0.25,2.15 0.9,2.45 2.35,4.55 2.7,3.85 7.3,6.45 1.55,0.9 1.6,2.7 0.1,4.65 -0.8,9.05 3.9,-1.65 8.65,-1.55 1.1,0 1.9,0.75 0.55,0.5 1.25,0.7 2.9,-3.6 6.75,-2.4 l 3.9,0.9 Q 11.95,15.4 12,13.4 L 12.05,8.05 12,5.9 q -1.05,-4.05 2.9,-7 3.6,-2.7 5.95,-6.55 l 0.1,-0.4 0.05,-0.25 0.3,-0.6 0.15,-0.25 0.3,-2.45 M -11.4,1.1 q -0.2,-3.45 1.65,-6.5 l 0.1,-0.15 -0.75,0.4 -0.8,0.3 q -2.85,0.8 -6.25,-0.85 -1.5,-0.75 -1.8,-2.45 -1.5,-8.65 7.2,-11.05 l 3.95,0.4 1.35,0.65 q 3.05,3.65 1.45,7.55 2.3,-1.85 5.15,-2.4 4,0.2 6.7,1.75 -0.45,-3.4 2.65,-5.8 l 0.05,-0.25 q 0.05,-0.6 0.5,-1 1.05,-1.05 2.45,-0.9 8.3,-0.65 9.1,6.8 l 0.05,0.75 q 0.35,6.1 -6,7.05 L 11.45,-4.75 12,-2 Q 12.7,3.4 8.05,6.5 6,7.85 3.65,8.65 1.05,9.5 -1.65,9.8 -9.15,10.55 -11,3.7 l -0.4,-2.6 m 23.55,-15.75 -0.35,0.2 -0.45,0.25 -0.45,0.65 -0.4,0.85 v 0.2 l 0.05,0.2 v 0.45 l 1.2,1.75 0.7,0.8 2.85,0.1 0.4,-0.2 0.5,-0.25 0.5,-0.6 0.45,-0.9 0.05,-0.4 v -0.65 -0.2 l -1.15,-1.6 -0.95,-0.55 -2.95,-0.1 m -11.6,-12.8 q 8.1,-0.3 8.35,7.45 0.15,5.5 -5.6,6.65 -7.45,1.45 -9.15,-5.25 -0.55,-2.15 0.3,-4.15 1.25,-2.95 4.4,-3.85 l 0.2,-0.2 0.6,-0.35 0.9,-0.3 m -1.3,4.1 q -0.8,0.7 -1.2,1.7 l -0.35,0.65 0.05,1.25 0.1,0.9 1.4,1.05 q 2.9,1.05 5.3,-0.85 l 0.4,-0.6 0.1,-0.7 q -0.1,-1.2 -0.95,-2.1 l -0.8,-0.9 -4.05,-0.4 m 0.9,15.05 q -4.45,2.4 -6.2,7.2 -0.5,1.45 -0.4,3 0.2,0.25 0.25,0.65 L -6.1,3.15 -6,3.6 Q 0.15,7.85 6.55,2.75 L 7.2,1.35 8,-0.05 Q 8.05,-4.85 3.85,-7.2 2.1,-8.2 0.15,-8.3 m 0.7,-28.85 q 14.5,-0.35 22.95,11.25 8.95,12.15 0,24.35 -2.8,3.85 -6.5,6.85 0.1,5.4 0.85,10.7 0.7,4.7 -1.2,8.5 -0.25,0.6 -0.95,0.55 -3.25,-0.1 -6.2,-1.6 l 0.3,2.4 -0.15,3.6 q -0.4,3.85 -5.1,4 l -1.9,0.3 q -5.6,1.65 -9.8,-1.3 -0.6,-0.45 -0.6,-1.25 -0.15,-3.4 0.65,-6.55 -3.75,1.25 -7.6,1.45 -0.8,0.05 -1.15,-0.75 -1.25,-3.3 -0.7,-7 0.45,-3.5 0.5,-7.1 -8.35,-4.55 -10.65,-13.2 -0.7,-2.55 -0.75,-5.25 -0.2,-6.55 3.2,-12 3.5,-5.5 8.25,-10 7.1,-6.7 16.55,-7.95 m 3.55,61.6 q -3.7,3 -7.1,-0.85 l -0.15,2.05 Q -3.1,27.1 -3,28.65 1.1,29.2 4.9,27.35 4.45,25.9 4.45,24.45 H 4.4 m -15.85,-39.1 -1.4,0.8 q -0.3,0.2 -0.6,0.3 l -0.75,0.85 -0.6,1.05 -0.1,0.25 v 0.85 l 0.1,0.85 0.15,0.4 4.05,-0.2 0.85,-0.85 0.75,-0.85 0.05,-1.1 -0.15,-1.7 -0.05,-0.2 q -0.9,-1 -2.3,-0.45"
         fill="#000000"
         fill-rule="evenodd"
         stroke="none"
         id="path1" />
      <path
         d="m -18.2,0.65 q -1.45,-2.1 -2.35,-4.55 0.3,-1.05 0.25,-2.15 v -2.35 -2.15 q 1.15,-3.35 3,-6.45 6.55,-10.8 18.65,-13.6 7.9,-0.35 13.85,4.8 6.95,6 6.55,14.2 l -0.4,-0.05 -0.05,-0.75 q -0.8,-7.45 -9.1,-6.8 -1.4,-0.15 -2.45,0.9 -0.45,0.4 -0.5,1 l -0.05,0.25 q -3.1,2.4 -2.65,5.8 -2.7,-1.55 -6.7,-1.75 -2.85,0.55 -5.15,2.4 1.6,-3.9 -1.45,-7.55 l -1.35,-0.65 -3.95,-0.4 q -8.7,2.4 -7.2,11.05 0.3,1.7 1.8,2.45 3.4,1.65 6.25,0.85 l 0.35,0.05 0.3,-0.2 0.15,-0.15 0.75,-0.4 -0.1,0.15 q -1.85,3.05 -1.65,6.5 l -5,0.2 -1.8,-0.65 m 18.75,-28.1 -0.9,0.3 -0.6,0.35 -0.2,0.2 q -3.15,0.9 -4.4,3.85 -0.85,2 -0.3,4.15 1.7,6.7 9.15,5.25 5.75,-1.15 5.6,-6.65 -0.25,-7.75 -8.35,-7.45 m 3.85,51.9 h 0.05 q 0,1.45 0.45,2.9 -3.8,1.85 -7.9,1.3 -0.1,-1.55 0.15,-3 L -2.7,23.6 q 3.4,3.85 7.1,0.85"
         fill="#d2d2d2"
         fill-rule="evenodd"
         stroke="none"
         id="path2" />
      <path
         d="m -18.2,0.65 1.8,0.65 5,-0.2 0.4,2.6 q 1.85,6.85 9.35,6.1 Q 1.05,9.5 3.65,8.65 6,7.85 8.05,6.5 12.7,3.4 12,-2 l -0.55,-2.75 3.9,0.15 q 6.35,-0.95 6,-7.05 l 0.4,0.05 -0.3,2.45 -0.15,0.25 -0.3,0.6 -0.05,0.25 -0.1,0.4 Q 18.5,-3.8 14.9,-1.1 10.95,1.85 12,5.9 L 12.05,8.05 12,13.4 q -0.05,2 0.35,3.85 l -3.9,-0.9 Q 4.6,15.15 1.7,18.75 1,18.55 0.45,18.05 -0.35,17.3 -1.45,17.3 -6.2,17.2 -10.1,18.85 -9.2,14.45 -9.3,9.8 -9.35,8 -10.9,7.1 -15.5,4.5 -18.2,0.65"
         fill="#464646"
         fill-rule="evenodd"
         stroke="none"
         id="path3" />
      <path
         d="m 12.15,-14.65 2.95,0.1 0.95,0.55 1.15,1.6 v 0.2 0.65 l -0.05,0.4 -0.45,0.9 -0.5,0.6 -0.5,0.25 -0.4,0.2 -2.85,-0.1 -0.7,-0.8 -1.2,-1.75 v -0.45 l -0.05,-0.2 v -0.2 l 0.4,-0.85 0.45,-0.65 0.45,-0.25 0.35,-0.2 m -12,6.35 q 1.95,0.1 3.7,1.1 4.2,2.35 4.15,7.15 L 7.2,1.35 6.55,2.75 Q 0.15,7.85 -6,3.6 L -6.1,3.15 -6.2,2.55 q -0.05,-0.4 -0.25,-0.65 -0.1,-1.55 0.4,-3 1.75,-4.8 6.2,-7.2 m -0.9,-15.05 4.05,0.4 0.8,0.9 q 0.85,0.9 0.95,2.1 l -0.1,0.7 -0.4,0.6 q -2.4,1.9 -5.3,0.85 l -1.4,-1.05 -0.1,-0.9 -0.05,-1.25 0.35,-0.65 q 0.4,-1 1.2,-1.7 m -10.7,8.7 q 1.4,-0.55 2.3,0.45 l 0.05,0.2 0.15,1.7 -0.05,1.1 -0.75,0.85 -0.85,0.85 -4.05,0.2 -0.15,-0.4 -0.1,-0.85 v -0.85 l 0.1,-0.25 0.6,-1.05 0.75,-0.85 q 0.3,-0.1 0.6,-0.3 l 1.4,-0.8"
         fill="#d2bbbb"
         fill-rule="evenodd"
         stroke="none"
         id="path4" />
    </g>
    <g
       id="sprite1"
       transform="translate(17.4,15.85)">
      <use
         ffdec:characterId="31"
         height="57.200001"
         transform="matrix(0.5366,0,0,0.5366,-16.6582,-14.546)"
         width="70.75"
         xlink:href="#sprite2"
         id="use4" />
    </g>
    <g
       id="sprite2"
       transform="translate(-8.65,-10.35)">
      <use
         ffdec:characterId="30"
         height="57.200001"
         transform="translate(8.65,10.35)"
         width="70.75"
         xlink:href="#shape1"
         id="use5" />
    </g>
    <g
       id="shape1"
       transform="translate(-8.65,-10.35)">
      <path
         d="m 14.8,41.7 q 0.65,-1.75 2.65,-2.5 1.8,-0.8 3.7,-0.25 1.15,0.45 2.25,1.2 l 0.9,0.4 q 1.65,0.9 2.85,2.5 L 37.8,30.1 q 2.35,-2.8 3.75,-3.95 1.5,-1.15 4.25,-2.4 18.2,-8.85 27.65,-12.6 2.15,-0.8 3.25,-0.8 h 0.8 l 1.9,2.4 -0.2,0.8 q -0.2,1.1 -1.55,3 -5.85,8.25 -18.85,23.8 -1.85,2.35 -3.35,3.5 -1.4,1.15 -4.75,2.75 l -15.15,7.15 q 1.2,1.6 1.75,3.4 l 0.2,1 0.55,2.5 q 0.1,1.95 -1.1,3.55 -1.2,1.65 -3.05,1.9 l -1.3,0.05 q -1.65,0.2 -3.45,-0.65 -1.85,-0.9 -3,-2.6 L 25,60.95 23.8,62.1 q -2.6,2.85 -4.3,3.95 -2.85,1.8 -5.5,1.45 l -1.65,-0.5 -1.2,-0.7 -0.2,-0.2 q -1,-0.85 -1.6,-1.9 L 9.25,64 9.15,63.8 8.75,62.4 q -0.2,-0.8 -0.05,-1.7 0.25,-2.65 2.7,-5.05 1.5,-1.3 4.9,-3.15 L 17.7,51.55 16.05,50 q -1.35,-1.5 -1.8,-3.6 -0.4,-1.85 0.25,-3.45 l 0.3,-1.25"
         fill="#000000"
         fill-opacity="0.372549"
         fill-rule="evenodd"
         stroke="none"
         id="path5" />
    </g>
  </defs>
</svg>
