<?xml version="1.0" encoding="UTF-8" standalone="no"?>
<svg
   ffdec:objectType="frame"
   height="58.772499"
   width="68.832932"
   version="1.1"
   id="svg4"
   sodipodi:docname="ITEM Paper Hat.svg"
   xmlns:inkscape="http://www.inkscape.org/namespaces/inkscape"
   xmlns:sodipodi="http://sodipodi.sourceforge.net/DTD/sodipodi-0.dtd"
   xmlns:xlink="http://www.w3.org/1999/xlink"
   xmlns="http://www.w3.org/2000/svg"
   xmlns:svg="http://www.w3.org/2000/svg"
   xmlns:ffdec="https://www.free-decompiler.com/flash">
  <sodipodi:namedview
     id="namedview4"
     pagecolor="#ffffff"
     bordercolor="#000000"
     borderopacity="0.25"
     inkscape:showpageshadow="2"
     inkscape:pageopacity="0.0"
     inkscape:pagecheckerboard="0"
     inkscape:deskcolor="#d1d1d1"
     fit-margin-top="5"
     fit-margin-left="5"
     fit-margin-right="5"
     fit-margin-bottom="5" />
  <g
     transform="translate(33.009459,36.6)"
     id="g1">
    <use
       ffdec:characterId="17"
       height="119.15"
       id="rarity"
       transform="translate(-58.5,-60.65)"
       width="119.15"
       xlink:href="#sprite0" />
    <use
       ffdec:characterId="1166"
       height="58.75"
       transform="translate(-33,-36.6)"
       width="68.800003"
       xlink:href="#shape0"
       id="use1" />
  </g>
  <defs
     id="defs4">
    <g
       id="shape0"
       transform="translate(31.7,34.7)">
      <path
         d="m 6.5,-13.6 -5.75,-8 -3.4,-4.9 -1.95,14.8 -0.05,0.45 q 2.5,1.35 4.4,3.7 L 1.5,-5.6 q 1.6,1 2.85,2.4 L 5,-2.5 7.4,-3 13.15,-4.15 12.35,-5.2 6.5,-13.6 m -9.95,13 6.35,-1.45 -2.75,-2.15 -3,-2.6 -1.85,-1.65 h -0.25 l -0.65,8.4 2.15,-0.55 m 36.8,-7.55 q 4.3,-0.3 3.7,3.55 -0.3,1.7 -1.15,3.3 -4.7,8.55 -9.1,17.15 -0.35,0.65 -1.1,0.75 L 6.45,19.35 q -9.7,1.4 -19.3,3.6 l -5.95,1.1 q -1.15,0.15 -1.9,-0.7 -3.45,-3.95 -7.4,-7.4 -2.6,-2.25 -3.5,-5.3 -0.45,-1.55 0.95,-2.5 4.15,-2.85 9.1,-4 L -11.8,1.7 q -0.25,-1.45 0.05,-3.05 l 0.4,-2.25 0.3,-0.8 q 1.05,-7.4 1.7,-14.9 0.5,-6.1 2.05,-11.95 0.45,-1.7 1.85,-2.85 0.75,-0.6 1.55,-0.6 4.8,2.4 7.65,7.2 l 2.65,4.25 10.7,16.5 0.8,1.65 8.35,-1.75 7.1,-1.3 M 29,-0.65 29.6,-1.7 29.2,-1.75 29,-1.7 Q 20.05,0.6 10.85,2.1 l 4.95,6.45 0.55,0.8 1.65,1.7 1.05,0.95 4.2,-0.65 0.5,-1.05 0.5,-0.9 0.55,-1 0.1,-0.2 1.4,-3.3 1.35,-2.95 1.35,-2.6 M 13.5,10 13.15,9.5 12.9,9.2 12.1,8.05 7.6,2.65 q -4.8,0.85 -9.45,2 L -2.55,5.5 -2.65,5.8 -3,6.65 q -2.2,2.3 -3.85,5.1 l -0.45,0.75 -0.85,1 v 0.15 l -0.05,0.2 -1,1.5 -0.65,0.75 -0.05,0.2 v 0.05 l 7.7,-1.35 2.5,-0.35 1.35,-0.2 14.4,-2 L 13.5,10 m -29.3,7.6 3.55,-0.75 0.35,-0.6 0.35,-1.05 1.2,-1.9 3.45,-5.7 1.55,-2.05 Q -14.3,8 -23.1,10.8 l -1.4,0.6 2.85,2.6 1.7,1.7 1.2,1.45 0.15,0.2 0.7,0.75 2.1,-0.5"
         fill="#000000"
         fill-rule="evenodd"
         stroke="none"
         id="path1" />
      <path
         d="m 1.5,-5.6 -1.75,-1.95 q -1.9,-2.35 -4.4,-3.7 l 0.05,-0.45 1.95,-14.8 3.4,4.9 5.75,8 0.1,1.6 q 0.05,0.5 -0.3,0.9 l -4.8,5.5 m -1.35,1.4 -3.6,3.6 -2.15,0.55 0.65,-8.4 h 0.25 l 1.85,1.65 3,2.6 M 15.8,8.55 10.85,2.1 Q 20.05,0.6 29,-1.7 l 0.2,-0.05 0.4,0.05 -0.6,1.05 -1.15,0.55 -0.9,0.4 Q 25.4,3.7 21.4,4.7 L 20.05,5.4 15.8,8.55 M -2.2,15 -9.9,16.35 V 16.3 l 0.05,-0.2 0.65,-0.75 1,-1.5 0.05,-0.2 V 13.5 l 0.85,-1 0.45,-0.75 Q -5.2,8.95 -3,6.65 l 0.35,-0.85 0.1,-0.3 0.7,-0.85 Q 2.8,3.5 7.6,2.65 l 4.5,5.4 0.8,1.15 0.25,0.3 0.35,0.5 -3,1.65 -0.75,0.3 -4.65,1.2 -7.3,1.85 m -16.4,2.35 -0.15,-0.2 -1.2,-1.45 -1.7,-1.7 -2.85,-2.6 1.4,-0.6 Q -14.3,8 -5.35,5.55 l -1.55,2.05 -3.45,5.7 -1.2,1.9 -0.35,1.05 -0.35,0.6 -3.55,0.75 -2.8,-0.25"
         fill="#ffffff"
         fill-rule="evenodd"
         stroke="none"
         id="path2" />
      <path
         d="m 1.5,-5.6 4.8,-5.5 q 0.35,-0.4 0.3,-0.9 l -0.1,-1.6 5.85,8.4 0.8,1.05 L 7.4,-3 5,-2.5 4.35,-3.2 Q 3.1,-4.6 1.5,-5.6 m -1.35,1.4 2.75,2.15 -6.35,1.45 3.6,-3.6 M 15.8,8.55 20.05,5.4 21.4,4.7 q 4,-1 5.55,-4.4 l 0.9,-0.4 1.15,-0.55 -1.35,2.6 -1.35,2.95 -1.4,3.3 -0.1,0.2 -0.55,1 -0.5,0.9 -0.5,1.05 L 19.05,12 18,11.05 16.35,9.35 15.8,8.55 m -18,6.45 7.3,-1.85 4.65,-1.2 0.75,-0.3 3,-1.65 2.55,2.45 -14.4,2 -1.35,0.2 -2.5,0.35 m -16.4,2.35 2.8,0.25 -2.1,0.5 -0.7,-0.75"
         fill="#cdcdcd"
         fill-rule="evenodd"
         stroke="none"
         id="path3" />
    </g>
    <g
       id="sprite1"
       transform="translate(17.4,15.85)">
      <use
         ffdec:characterId="31"
         height="57.200001"
         transform="matrix(0.5366,0,0,0.5366,-16.6582,-14.546)"
         width="70.75"
         xlink:href="#sprite2"
         id="use3" />
    </g>
    <g
       id="sprite2"
       transform="translate(-8.65,-10.35)">
      <use
         ffdec:characterId="30"
         height="57.200001"
         transform="translate(8.65,10.35)"
         width="70.75"
         xlink:href="#shape1"
         id="use4" />
    </g>
    <g
       id="shape1"
       transform="translate(-8.65,-10.35)">
      <path
         d="m 14.8,41.7 q 0.65,-1.75 2.65,-2.5 1.8,-0.8 3.7,-0.25 1.15,0.45 2.25,1.2 l 0.9,0.4 q 1.65,0.9 2.85,2.5 L 37.8,30.1 q 2.35,-2.8 3.75,-3.95 1.5,-1.15 4.25,-2.4 18.2,-8.85 27.65,-12.6 2.15,-0.8 3.25,-0.8 h 0.8 l 1.9,2.4 -0.2,0.8 q -0.2,1.1 -1.55,3 -5.85,8.25 -18.85,23.8 -1.85,2.35 -3.35,3.5 -1.4,1.15 -4.75,2.75 l -15.15,7.15 q 1.2,1.6 1.75,3.4 l 0.2,1 0.55,2.5 q 0.1,1.95 -1.1,3.55 -1.2,1.65 -3.05,1.9 l -1.3,0.05 q -1.65,0.2 -3.45,-0.65 -1.85,-0.9 -3,-2.6 L 25,60.95 23.8,62.1 q -2.6,2.85 -4.3,3.95 -2.85,1.8 -5.5,1.45 l -1.65,-0.5 -1.2,-0.7 -0.2,-0.2 q -1,-0.85 -1.6,-1.9 L 9.25,64 9.15,63.8 8.75,62.4 q -0.2,-0.8 -0.05,-1.7 0.25,-2.65 2.7,-5.05 1.5,-1.3 4.9,-3.15 L 17.7,51.55 16.05,50 q -1.35,-1.5 -1.8,-3.6 -0.4,-1.85 0.25,-3.45 l 0.3,-1.25"
         fill="#000000"
         fill-opacity="0.372549"
         fill-rule="evenodd"
         stroke="none"
         id="path4" />
    </g>
  </defs>
</svg>
