<?xml version="1.0" encoding="UTF-8" standalone="no"?>
<svg
   ffdec:objectType="frame"
   height="69.349045"
   width="69.63224"
   version="1.1"
   id="svg7"
   xmlns:xlink="http://www.w3.org/1999/xlink"
   xmlns="http://www.w3.org/2000/svg"
   xmlns:svg="http://www.w3.org/2000/svg"
   xmlns:ffdec="https://www.free-decompiler.com/flash">
  <g
     transform="translate(33.50974,40.4)"
     id="g1">
    <use
       ffdec:characterId="17"
       height="119.15"
       id="rarity"
       transform="translate(-58.5,-60.65)"
       width="119.15"
       xlink:href="#sprite0" />
    <use
       ffdec:characterId="518"
       height="69.349998"
       transform="translate(-33.5,-40.4)"
       width="69.599998"
       xlink:href="#shape0"
       id="use1" />
  </g>
  <defs
     id="defs7">
    <g
       id="shape0"
       transform="translate(33.1,39.6)">
      <path
         d="m 7.2,-23.3 q 2.8,1.85 3.2,5.25 0.2,1.4 0.55,2.8 l 0.35,2.8 q 0.9,3.55 1.3,7.3 0.75,7.1 0.7,14.35 l 0.2,0.65 0.4,2.9 q 3.3,7 -1.9,13.2 Q 9.5,29 5.6,29.55 -3,30.8 -7,24.2 l -0.7,-1.55 q -1.6,-5.15 -2.45,-10.5 l -1.6,-5.6 -0.65,-3 -1.3,-3.35 -0.45,-2.4 -2.2,-6 -0.45,-1.4 -0.05,-0.1 q -2.75,-5.9 2.55,-10.5 2.25,-1.95 4.8,-3.15 l -0.4,-0.75 q -1.2,-2.65 -0.9,-5.5 0.3,-2.35 3.05,-2.75 3,-0.45 6.05,0.6 1.9,-3.2 4.15,-6.25 l 1.2,-1.4 0.4,-0.1 0.4,-0.1 0.85,0.15 0.35,0.2 Q 8.5,-33.1 7.3,-26.2 l -0.65,2.55 0.55,0.35 m -5.2,-2.05 1.95,0.5 q 0.7,-2.35 0.65,-4.85 v -3.2 l -0.25,-0.4 q -0.2,-0.4 -0.25,-0.9 v -0.2 q -0.85,1.85 -2.05,3.4 l -0.7,0.8 -0.9,0.95 -1.1,0.95 -0.65,0.45 v 0.05 q -0.6,0.4 -1.35,0.25 l -2.55,-0.65 -0.4,0.15 -0.3,0.1 -0.35,0.2 -0.15,0.05 0.1,0.15 0.25,0.35 0.7,1.05 0.45,1.25 1.3,-0.25 0.35,-0.05 2.9,-0.3 2.2,0.15 H 2 m 0.4,8.25 0.1,-0.15 0.25,-0.85 0.35,-0.65 -0.25,-0.05 -0.25,-0.15 -0.2,-0.5 -0.65,-0.15 -2.45,-0.15 -1.8,0.2 -0.8,0.15 -0.3,0.05 q -3.3,0.75 -5.9,2.9 l -0.9,0.8 -1.65,2.15 -0.1,0.2 0.05,0.05 0.3,0.4 0.15,0.2 3.05,0.25 1.15,-0.05 1.05,-0.15 2.25,-0.55 q 2.5,-0.8 4.9,-2.45 L 2.4,-17.1 M 3.45,0.05 q 3.4,0.8 4.2,4.15 l 0.65,0.25 0.3,0.2 0.2,0.3 Q 8.1,-2.3 7.05,-9.45 l -0.6,-3.85 q -7.4,7 -16.85,6.35 l 1.3,3.4 0.7,2.25 0.4,2.1 q 1.35,3.5 2.35,7.25 l 0.1,-0.2 0.55,-0.7 0.7,-0.2 Q -4.25,4.15 -2,1.45 L -1.75,1.2 -0.1,-0.1 0.6,-0.2 3.45,0.05 m 16.9,-6.85 -1.45,1 -0.2,0.2 -0.2,0.45 -0.1,0.15 -0.05,0.05 -0.15,0.25 -0.15,0.2 0.05,0.2 0.6,0.15 h 0.05 l 1.2,0.25 3.9,0.25 4,-0.6 q 2.4,-0.65 4.7,-2 L 32.2,-6.65 32,-6.85 31.75,-7.1 31.65,-7.25 28.85,-7.95 27.3,-8.2 24.6,-8.3 h -0.05 l -2.1,0.4 -0.85,0.15 -1.25,0.95 m 5.85,-5.5 q 8,-0.55 10.2,6.15 0.35,1.05 -0.3,2 -3.25,4.4 -9.15,4.9 -4.9,0.4 -9.55,-0.9 -2.55,-0.75 -2.95,-3.2 -0.5,-3.2 2.1,-5.35 2.6,-2.15 5.75,-3.1 l 3.9,-0.5 M 3.75,4.4 3,3.8 2.75,3.65 2.65,3.6 H 1.95 L 1.5,3.7 1.15,4.15 1,4.4 0.4,5 0.15,5.2 0,5.65 -0.05,6.1 -0.1,7.15 V 7.45 8 l 0.25,0.3 q 1.7,2.2 0.55,3.4 -0.55,0.55 -1.6,0.9 l -0.25,0.05 Q -2.05,12.9 -2.6,12.1 l -1.1,-2 -1.5,-0.4 h -0.05 q 0.2,1.2 0.25,2.45 0.65,1.1 0.8,2.35 l 0.35,2.15 q 0.7,1.65 1.1,3.45 l 0.6,2.3 Q 4.35,26.3 9.6,21 10.3,18.65 10.5,16.2 9.6,13.75 9.35,10.95 l -0.4,-4.4 q -0.2,0.8 -1,1.25 L 7.75,7.85 7.65,8.15 7.05,9.35 7,9.6 6.95,9.8 6.9,10 6.8,10.25 6.6,10.65 6.05,11.1 5.75,11.25 4.95,11.65 4.8,11.6 4.45,11.5 4.2,11.3 3.95,11.1 3.75,10.85 3.7,10.65 3.65,10.45 V 10 Q 3.65,9.65 3.8,9.3 L 4.3,7.85 4.45,7.45 4.4,7 V 6.8 6.15 5.5 L 4.15,5.05 3.95,4.65 3.75,4.4 M -16,-33.4 l 2.15,0.2 1,0.25 0.25,0.2 0.15,0.2 0.1,0.2 0.2,0.45 0.4,3.2 q 0.25,2.35 -0.75,4.3 -9.05,2 -17.95,5.1 -3.2,-1.85 -2.55,-6.1 0.4,-2.6 3.25,-3.45 3.55,-1.05 6.95,-2.45 3.4,-1.4 6.8,-2.1 m -1.9,5.95 2.55,-0.65 v -0.45 -0.2 -0.2 l -0.05,-0.45 -0.05,-0.05 -3.35,0.8 -4.25,1.15 -3.1,0.85 -0.35,0.1 -1.4,0.55 -1.75,1.4 q 0.85,0.4 1.95,0.35 l 1.95,-0.45 0.55,-0.25 3.15,-1.2 4.15,-1.3 m -3.4,27.35 3.3,0.45 1.15,0.45 q 5.1,6.05 2,13.7 -3.45,8.5 -12.3,6 l -0.6,-0.4 -0.9,-0.85 q -0.35,-0.6 -0.3,-1.3 -2.2,-6.2 1,-12.15 2.1,-3.95 6.15,-5.8 l 0.5,-0.05 V -0.1 m 3.35,5.45 -0.15,-0.35 -0.2,-0.05 0.05,0.35 0.1,1.85 -0.1,3.1 v 0.4 l -0.2,1.35 -0.1,2.3 q 1.1,-2.1 1.2,-4.45 L -17.3,9.5 -17.35,8.45 -17.4,7.25 -17.45,6.5 -17.95,5.35 m -3.5,0.55 V 5.45 l -0.45,-0.7 -0.35,-0.3 -0.05,0.05 q -1.95,1.55 -2.8,3.95 l -0.7,1.4 v 0.2 0.9 q 0,0.55 -0.3,1.05 v 1.5 0.1 1.4 l 0.1,0.1 0.35,0.75 0.35,1.05 v 0.05 l 0.85,0.35 0.8,-0.05 q 1,-0.85 1.3,-2.2 0.1,-0.7 0.65,-1.25 l 0.05,-0.45 v -0.4 l 0.05,-1 0.05,-3.2 v -0.1 -0.2 l 0.1,-2.55"
         fill="#000000"
         fill-rule="evenodd"
         stroke="none"
         id="path1" />
      <path
         d="m 2.05,-31 0.65,0.3 0.3,0.15 0.25,0.45 0.15,0.65 0.05,0.2 q -0.4,2.45 -1.5,3.75 l -0.1,0.15 -2.2,-0.15 -2.9,0.3 -0.35,0.05 -1.3,0.25 -0.45,-1.25 -0.7,-1.05 -0.25,-0.35 0.05,-0.2 0.35,-0.2 0.3,-0.1 0.4,-0.15 2.55,0.65 q 0.75,0.15 1.35,-0.25 v -0.05 l 0.65,-0.45 1.1,-0.95 0.9,-0.95 0.7,-0.8 m 5,21.55 q -2.35,2.7 -5.1,4.55 1.45,1.8 1.5,4.8 V 0.05 L 0.6,-0.2 -0.1,-0.1 -1.75,1.2 -2.15,-0.5 -2.5,-1.15 -2.75,-2 v -0.2 l -0.2,-0.3 q -2.6,0.85 -5.45,1.2 l -0.7,-2.25 -1.3,-3.4 q 9.45,0.65 16.85,-6.35 l 0.6,3.85 M -0.1,7.45 V 7.15 L -0.05,6.1 0,5.65 0.15,5.2 0.4,5 1,4.4 1.15,4.15 1.5,3.7 1.95,3.6 h 0.7 L 2.75,3.65 3,3.8 3.75,4.4 4.3,7.85 3.8,9.3 Q 3.65,9.65 3.65,10 v 0.45 l 0.05,0.2 0.05,0.2 0.2,0.25 0.25,0.2 0.25,0.2 0.35,0.1 0.15,1.85 L 5,14.1 5.1,18.6 5.15,19.25 5.2,20.3 5.1,20.75 4.45,21 4,20.95 Q 2.25,19.35 1.75,16.9 L 1.6,15.95 1.5,14.3 Q 1,13.4 0.8,12.4 L 0.7,11.7 Q 1.85,10.5 0.15,8.3 L -0.1,7.45"
         fill="#827272"
         fill-rule="evenodd"
         stroke="none"
         id="path2" />
      <path
         d="m 2.05,-31 q 1.2,-1.55 2.05,-3.4 v 0.2 q 0.05,0.5 0.25,0.9 l 0.25,0.4 v 3.2 q 0.05,2.5 -0.65,4.85 L 2,-25.35 1.95,-25.5 q 1.1,-1.3 1.5,-3.75 L 3.4,-29.45 3.25,-30.1 3,-30.55 2.7,-30.7 2.05,-31 M 3.45,0.05 V -0.1 Q 3.4,-3.1 1.95,-4.9 4.7,-6.75 7.05,-9.45 8.1,-2.3 8.8,4.95 L 8.6,4.65 8.3,4.45 7.65,4.2 Q 6.85,0.85 3.45,0.05 M -8.4,-1.3 q 2.85,-0.35 5.45,-1.2 l 0.2,0.3 V -2 l 0.25,0.85 0.35,0.65 0.4,1.7 L -2,1.45 q -2.25,2.7 -2.3,5.5 l -0.7,0.2 -0.55,0.7 -0.1,0.2 Q -6.65,4.3 -8,0.8 L -8.4,-1.3 M -0.1,7.45 0.15,8.3 -0.1,8 V 7.45 m 0.8,4.25 0.1,0.7 q 0.2,1 0.7,1.9 l 0.1,1.65 0.15,0.95 Q 2.25,19.35 4,20.95 L 4.45,21 5.1,20.75 5.2,20.3 5.15,19.25 5.1,18.6 5,14.1 4.95,13.45 4.8,11.6 4.95,11.65 5.75,11.25 6.05,11.1 6.6,10.65 6.8,10.25 6.9,10 6.95,9.8 7,9.6 7.05,9.35 7.65,8.15 7.75,7.85 7.95,7.8 q 0.8,-0.45 1,-1.25 l 0.4,4.4 q 0.25,2.8 1.15,5.25 -0.2,2.45 -0.9,4.8 -5.25,5.3 -11.75,1.4 l -0.6,-2.3 q -0.4,-1.8 -1.1,-3.45 L -4.2,14.5 Q -4.35,13.25 -5,12.15 -5.05,10.9 -5.25,9.7 h 0.05 l 1.5,0.4 1.1,2 q 0.55,0.8 1.45,0.55 L -0.9,12.6 Q 0.15,12.25 0.7,11.7 M 4.3,7.85 3.75,4.4 3.95,4.65 4.15,5.05 4.4,5.5 V 6.15 6.8 7 L 4.45,7.45 4.3,7.85"
         fill="#5c4e4e"
         fill-rule="evenodd"
         stroke="none"
         id="path3" />
      <path
         d="m -4.15,-13.15 -2.25,0.55 -1.05,0.15 -1.15,0.05 0.35,-0.6 4.15,-5.75 0.5,-0.6 0.3,-0.05 0.8,-0.15 1.8,-0.2 -0.05,0.8 -3.4,5.8 m 28.75,4.85 2.7,0.1 q -1.2,2.45 -3.45,4.55 l -3.9,-0.25 4.65,-4.4 m -46.65,-17.85 -3.15,1.2 -0.55,0.25 -0.4,-1.55 v -0.4 l 3.1,-0.85 q 0.7,0.55 1,1.35 m 3.9,33.3 0.75,0.1 0.05,1.2 0.05,1.05 -0.05,0.35 -0.4,0.2 -0.5,0.2 0.1,-3.1 m -3.4,1.6 -0.05,3.2 -0.05,1 -0.7,0.8 -1.65,1.95 -1.3,1.2 -0.35,-1.05 L -26,15.1 -26.1,15 v -1.4 l 0.2,-0.3 q 0.4,-0.65 1.1,-0.95 l 1.35,-1.8 1.35,-1.15 0.1,-0.05 0.45,-0.6"
         fill="#ffffff"
         fill-rule="evenodd"
         stroke="none"
         id="path4" />
      <path
         d="m -8.6,-12.4 -3.05,-0.25 -0.15,-0.2 -0.3,-0.4 0.05,-0.25 1.65,-2.15 0.9,-0.8 q 2.6,-2.15 5.9,-2.9 l -0.5,0.6 -4.15,5.75 -0.35,0.6 m 27.35,8.25 0.1,-0.65 1.5,-2 1.25,-0.95 0.85,-0.15 2.1,-0.4 h 0.05 l -4.65,4.4 -1.2,-0.25 m 8.55,-4.05 1.55,0.25 -0.2,1.55 -0.8,2.15 -4,0.6 q 2.25,-2.1 3.45,-4.55 m -46.1,-20.45 0.7,0.85 0.2,0.35 -4.15,1.3 q -0.3,-0.8 -1,-1.35 l 4.25,-1.15 m -6.95,3.95 -1.95,0.45 q -0.3,-0.6 -0.25,-1.35 l 0.05,-0.4 1.4,-0.55 0.35,-0.1 v 0.4 l 0.4,1.55 m 7.5,30 0.3,0.05 0.5,1.15 0.05,0.75 -0.75,-0.1 -0.1,-1.85 m 0.5,4.75 -0.5,0.6 v -0.4 l 0.5,-0.2 m -8.05,0 0.95,-0.7 Q -24,8.8 -23.5,7.9 q 0.8,-1.4 2.05,-2 l -0.1,2.55 v 0.2 0.1 l -0.45,0.6 -0.1,0.05 -1.35,1.15 -1.35,1.8 q -0.7,0.3 -1.1,0.95 l -0.2,0.3 V 13.5 12 q 0.3,-0.5 0.3,-1.05 v -0.9 m 4.15,2.9 v 0.4 l -0.7,0.4 0.7,-0.8"
         fill="#846b50"
         fill-rule="evenodd"
         stroke="none"
         id="path5" />
      <path
         d="m 1.75,-19.6 q 0.7,1.3 0.65,2.5 l -1.65,1.5 q -2.4,1.65 -4.9,2.45 l 3.4,-5.8 0.05,-0.8 2.45,0.15 M 18.4,-5 l 0.1,-0.15 0.2,-0.45 0.2,-0.2 1.45,-1 -1.5,2 -0.1,0.65 H 18.7 L 18.4,-5 m 10.45,-2.95 2.8,0.7 0.1,0.15 0.25,0.25 0.2,0.2 0.35,0.4 q -2.3,1.35 -4.7,2 l 0.8,-2.15 0.2,-1.55 m -47.65,-20.7 3.35,-0.8 0.05,0.05 0.05,0.45 v 0.2 0.2 0.45 l -2.55,0.65 -0.2,-0.35 -0.7,-0.85 m -8.9,4.4 q -1.1,0.05 -1.95,-0.35 l 1.75,-1.4 -0.05,0.4 q -0.05,0.75 0.25,1.35 m 9.75,29.6 -0.3,-0.05 -0.05,-0.35 0.2,0.05 0.15,0.35 m 0.6,4.5 q -0.1,2.35 -1.2,4.45 l 0.1,-2.3 0.2,-1.35 0.5,-0.6 0.4,-0.2 m -8.45,0.2 v -0.2 l 0.7,-1.4 q 0.85,-2.4 2.8,-3.95 l 0.05,-0.05 0.35,0.3 0.45,0.7 V 5.9 q -1.25,0.6 -2.05,2 -0.5,0.9 -1.35,1.45 l -0.95,0.7 m 4.15,3.3 -0.05,0.45 q -0.55,0.55 -0.65,1.25 -0.3,1.35 -1.3,2.2 l -0.8,0.05 -0.85,-0.35 V 16.9 l 1.3,-1.2 1.65,-1.95 0.7,-0.4"
         fill="#c4a789"
         fill-rule="evenodd"
         stroke="none"
         id="path6" />
    </g>
    <g
       id="sprite1"
       transform="translate(17.4,15.85)">
      <use
         ffdec:characterId="31"
         height="57.200001"
         transform="matrix(0.5366,0,0,0.5366,-16.6582,-14.546)"
         width="70.75"
         xlink:href="#sprite2"
         id="use6" />
    </g>
    <g
       id="sprite2"
       transform="translate(-8.65,-10.35)">
      <use
         ffdec:characterId="30"
         height="57.200001"
         transform="translate(8.65,10.35)"
         width="70.75"
         xlink:href="#shape1"
         id="use7" />
    </g>
    <g
       id="shape1"
       transform="translate(-8.65,-10.35)">
      <path
         d="m 14.8,41.7 q 0.65,-1.75 2.65,-2.5 1.8,-0.8 3.7,-0.25 1.15,0.45 2.25,1.2 l 0.9,0.4 q 1.65,0.9 2.85,2.5 L 37.8,30.1 q 2.35,-2.8 3.75,-3.95 1.5,-1.15 4.25,-2.4 18.2,-8.85 27.65,-12.6 2.15,-0.8 3.25,-0.8 h 0.8 l 1.9,2.4 -0.2,0.8 q -0.2,1.1 -1.55,3 -5.85,8.25 -18.85,23.8 -1.85,2.35 -3.35,3.5 -1.4,1.15 -4.75,2.75 l -15.15,7.15 q 1.2,1.6 1.75,3.4 l 0.2,1 0.55,2.5 q 0.1,1.95 -1.1,3.55 -1.2,1.65 -3.05,1.9 l -1.3,0.05 q -1.65,0.2 -3.45,-0.65 -1.85,-0.9 -3,-2.6 L 25,60.95 23.8,62.1 q -2.6,2.85 -4.3,3.95 -2.85,1.8 -5.5,1.45 l -1.65,-0.5 -1.2,-0.7 -0.2,-0.2 q -1,-0.85 -1.6,-1.9 L 9.25,64 9.15,63.8 8.75,62.4 q -0.2,-0.8 -0.05,-1.7 0.25,-2.65 2.7,-5.05 1.5,-1.3 4.9,-3.15 L 17.7,51.55 16.05,50 q -1.35,-1.5 -1.8,-3.6 -0.4,-1.85 0.25,-3.45 l 0.3,-1.25"
         fill="#000000"
         fill-opacity="0.372549"
         fill-rule="evenodd"
         stroke="none"
         id="path7" />
    </g>
  </defs>
</svg>
