<?xml version="1.0" encoding="UTF-8" standalone="no"?>
<svg
   ffdec:objectType="frame"
   height="55.323353"
   width="73.726189"
   version="1.1"
   id="svg4"
   sodipodi:docname="ITEM Man's Hairpiece.svg"
   xmlns:inkscape="http://www.inkscape.org/namespaces/inkscape"
   xmlns:sodipodi="http://sodipodi.sourceforge.net/DTD/sodipodi-0.dtd"
   xmlns:xlink="http://www.w3.org/1999/xlink"
   xmlns="http://www.w3.org/2000/svg"
   xmlns:svg="http://www.w3.org/2000/svg"
   xmlns:ffdec="https://www.free-decompiler.com/flash">
  <sodipodi:namedview
     id="namedview4"
     pagecolor="#ffffff"
     bordercolor="#000000"
     borderopacity="0.25"
     inkscape:showpageshadow="2"
     inkscape:pageopacity="0.0"
     inkscape:pagecheckerboard="0"
     inkscape:deskcolor="#d1d1d1"
     fit-margin-top="5"
     fit-margin-left="5"
     fit-margin-right="5"
     fit-margin-bottom="5" />
  <g
     transform="translate(37.262857,29.101653)"
     id="g1">
    <use
       ffdec:characterId="17"
       height="119.15"
       id="rarity"
       transform="translate(-58.5,-60.65)"
       width="119.15"
       xlink:href="#sprite0" />
    <use
       ffdec:characterId="1201"
       height="55.299999"
       transform="translate(-37.25,-29.1)"
       width="73.699997"
       xlink:href="#shape0"
       id="use1" />
  </g>
  <defs
     id="defs4">
    <g
       id="shape0"
       transform="translate(35.95,27.2)">
      <path
         d="M -4.65,-9.75 3.6,-8.8 Q 5,-8.45 5.85,-7.45 V -7.3 L 5.8,-7.15 5.75,-7 5.55,-6.85 5.25,-6.7 q -10.6,-1.2 -20.5,3.15 -1.35,0.55 -2.8,0.55 -2.5,-0.05 -2.05,-2.4 0.35,-1.65 2,-2.15 6.7,-1.9 13.45,-2.2 M 29.8,4.6 28.9,3.6 Q 25.25,-0.3 20.1,-2 17.9,-2.7 16.35,-4.25 15.05,-5.5 15.95,-7.1 16.9,-8.7 18.8,-8.9 l 3.15,-0.55 4.6,-0.75 Q 23.65,-15 18.6,-17.85 5.85,-25 -8,-20 q -5.8,2.1 -11,5.2 -2.45,1.45 -4.4,3.5 l -0.55,1 -0.3,0.55 0.1,0.25 q -1.25,2.3 -4.3,2.8 l -1.3,0.5 q 2.25,2.3 2.1,5.05 l -0.2,0.65 -0.3,1.4 q -0.05,0.55 -0.4,1 l -0.05,0.35 -0.1,0.2 q 2.3,-0.95 4.6,-0.5 l 1.4,0.15 0.2,0.2 0.1,0.15 0.2,0.3 0.05,0.2 0.05,0.15 V 3.45 3.6 L -22.3,3.85 -23.6,5 v 0.4 q 0.25,4.95 3.5,8.85 2.45,2.9 5.75,4.6 6.1,3.05 12.75,3.8 1,-2.95 4.6,-3.35 l 2.75,-0.5 q 8.85,-2.25 17.7,0 0.3,-3.15 -0.75,-6 -0.6,-1.75 -1.4,-3.35 L 21.1,9.05 Q 20.55,8 21.4,7.15 22.9,5.6 25.2,5.45 L 29.85,5.15 30.2,5.1 29.8,4.6 M 4.3,-27.2 q 10.2,-0.1 18.45,5.85 6.3,4.6 10.4,11.3 2.05,3.45 -1.8,4.45 l -0.65,0.1 -3.85,0.3 q 0.6,0.85 2.2,2.15 5.25,4.25 8.5,10.05 0.4,0.7 0.05,1.5 -0.75,1.8 -2.75,1.7 H 28.2 l -0.55,0.1 q 1.05,3.75 1.05,7.65 0.05,3.1 -1.6,5.6 -0.85,1.2 -2.2,0.75 -10.9,-3.6 -21.6,0.65 -2.25,4.1 -7.45,2.9 -4.65,-1.05 -9.2,-2.8 -3.6,-1.4 -6.6,-3.85 l -0.5,-0.6 q -3.75,-3.25 -6.2,-7.6 -1.6,-2.9 -1.6,-5.85 L -30.7,7.5 q -1.7,0.1 -2.65,-1.25 l -0.05,-0.65 0.3,-1.15 0.05,-2.9 q 0.1,-1.45 0.85,-2.65 v -0.15 l -0.05,-0.15 -0.1,-0.5 -1.55,-1.9 -0.35,-0.55 -0.1,-0.05 q -1.05,-0.5 -1.2,-1.2 -0.85,-1.15 0.05,-2.6 l 1.45,-1.2 q 3.25,-1.35 6.75,-1.7 v -0.2 q 2.7,-4.4 7,-7.5 3.4,-2.45 7.25,-4.3 8.3,-3.95 17.35,-4.1 m -16.35,26.5 q 9.95,-0.15 19.35,3 3.1,1.05 5.35,3.1 l 0.8,0.85 V 6.4 L 13.4,6.6 13.3,6.75 13.2,6.9 12.65,7.05 Q 10.5,6.95 8.55,6 L 5.8,4.75 -1.2,3.6 -5.45,3.3 l -8,-0.65 q -0.6,-0.1 -0.7,-0.7 -0.4,-1.85 1.5,-2.55 l 0.15,-0.05 0.45,-0.05"
         fill="#000000"
         fill-rule="evenodd"
         stroke="none"
         id="path1" />
      <path
         d="M -22.3,3.85 -22.1,3.6 V 3.45 3.1 l -0.05,-0.15 -0.05,-0.2 -0.2,-0.3 -0.1,-0.15 -0.2,-0.2 -1.4,-0.15 q -2.3,-0.45 -4.6,0.5 l 0.1,-0.2 0.05,-0.35 q 0.35,-0.45 0.4,-1 l 0.3,-1.4 0.2,-0.65 q 0.15,-2.75 -2.1,-5.05 l 1.3,-0.5 q 3.05,-0.5 4.3,-2.8 l -0.1,-0.25 0.3,-0.55 0.55,-1 q 1.95,-2.05 4.4,-3.5 5.2,-3.1 11,-5.2 13.85,-5 26.6,2.15 5.05,2.85 7.95,7.65 l -4.6,0.75 -3.15,0.55 q -1.9,0.2 -2.85,1.8 -0.9,1.6 0.4,2.85 1.55,1.55 3.75,2.25 5.15,1.7 8.8,5.6 l 0.9,1 v 0.2 l 0.05,0.35 -4.65,0.3 Q 22.9,5.6 21.4,7.15 20.55,8 21.1,9.05 l 0.2,0.4 q -9.5,1.5 -18.85,-2.1 l 0.15,1.8 0.3,2.95 0.05,0.15 Q 4.3,15.65 0.5,15.8 -11.8,16.25 -19.6,7.3 L -19.8,7 -20.5,6.3 -21.3,4.9 -21.35,4.75 -21.7,4.4 -21.8,4.25 -21.95,4.05 -22,3.9 -22.3,3.85 m 17.65,-13.6 q -6.75,0.3 -13.45,2.2 -1.65,0.5 -2,2.15 -0.45,2.35 2.05,2.4 1.45,0 2.8,-0.55 9.9,-4.35 20.5,-3.15 L 5.55,-6.85 5.75,-7 5.8,-7.15 5.85,-7.3 V -7.45 Q 5,-8.45 3.6,-8.8 l -8.25,-0.95 m -7.4,9.05 -0.45,0.05 -0.15,0.05 q -1.9,0.7 -1.5,2.55 0.1,0.6 0.7,0.7 l 8,0.65 4.25,0.3 7,1.15 L 8.55,6 q 1.95,0.95 4.1,1.05 L 13.2,6.9 13.3,6.75 13.4,6.6 13.45,6.4 V 6.25 L 12.65,5.4 Q 10.4,3.35 7.3,2.3 q -9.4,-3.15 -19.35,-3"
         fill="#7c6868"
         fill-rule="evenodd"
         stroke="none"
         id="path2" />
      <path
         d="m -22.3,3.85 0.3,0.05 0.05,0.15 0.15,0.2 0.1,0.15 0.35,0.35 0.05,0.15 0.8,1.4 0.7,0.7 0.2,0.3 q 7.8,8.95 20.1,8.5 3.8,-0.15 2.45,-3.55 L 2.9,12.1 2.6,9.15 2.45,7.35 q 9.35,3.6 18.85,2.1 0.8,1.6 1.4,3.35 1.05,2.85 0.75,6 -8.85,-2.25 -17.7,0 L 3,19.3 q -3.6,0.4 -4.6,3.35 -6.65,-0.75 -12.75,-3.8 -3.3,-1.7 -5.75,-4.6 -3.25,-3.9 -3.5,-8.85 V 5 l 1.3,-1.15"
         fill="#5f5050"
         fill-rule="evenodd"
         stroke="none"
         id="path3" />
    </g>
    <g
       id="sprite1"
       transform="translate(17.4,15.85)">
      <use
         ffdec:characterId="31"
         height="57.200001"
         transform="matrix(0.5366,0,0,0.5366,-16.6582,-14.546)"
         width="70.75"
         xlink:href="#sprite2"
         id="use3" />
    </g>
    <g
       id="sprite2"
       transform="translate(-8.65,-10.35)">
      <use
         ffdec:characterId="30"
         height="57.200001"
         transform="translate(8.65,10.35)"
         width="70.75"
         xlink:href="#shape1"
         id="use4" />
    </g>
    <g
       id="shape1"
       transform="translate(-8.65,-10.35)">
      <path
         d="m 14.8,41.7 q 0.65,-1.75 2.65,-2.5 1.8,-0.8 3.7,-0.25 1.15,0.45 2.25,1.2 l 0.9,0.4 q 1.65,0.9 2.85,2.5 L 37.8,30.1 q 2.35,-2.8 3.75,-3.95 1.5,-1.15 4.25,-2.4 18.2,-8.85 27.65,-12.6 2.15,-0.8 3.25,-0.8 h 0.8 l 1.9,2.4 -0.2,0.8 q -0.2,1.1 -1.55,3 -5.85,8.25 -18.85,23.8 -1.85,2.35 -3.35,3.5 -1.4,1.15 -4.75,2.75 l -15.15,7.15 q 1.2,1.6 1.75,3.4 l 0.2,1 0.55,2.5 q 0.1,1.95 -1.1,3.55 -1.2,1.65 -3.05,1.9 l -1.3,0.05 q -1.65,0.2 -3.45,-0.65 -1.85,-0.9 -3,-2.6 L 25,60.95 23.8,62.1 q -2.6,2.85 -4.3,3.95 -2.85,1.8 -5.5,1.45 l -1.65,-0.5 -1.2,-0.7 -0.2,-0.2 q -1,-0.85 -1.6,-1.9 L 9.25,64 9.15,63.8 8.75,62.4 q -0.2,-0.8 -0.05,-1.7 0.25,-2.65 2.7,-5.05 1.5,-1.3 4.9,-3.15 L 17.7,51.55 16.05,50 q -1.35,-1.5 -1.8,-3.6 -0.4,-1.85 0.25,-3.45 l 0.3,-1.25"
         fill="#000000"
         fill-opacity="0.372549"
         fill-rule="evenodd"
         stroke="none"
         id="path4" />
    </g>
  </defs>
</svg>
