<?xml version="1.0" encoding="UTF-8" standalone="no"?>
<svg
   ffdec:objectType="frame"
   height="65.9981"
   width="27.33618"
   version="1.1"
   id="svg4"
   xmlns:xlink="http://www.w3.org/1999/xlink"
   xmlns="http://www.w3.org/2000/svg"
   xmlns:svg="http://www.w3.org/2000/svg"
   xmlns:ffdec="https://www.free-decompiler.com/flash">
  <g
     transform="translate(15.719512,32.1)"
     id="g1">
    <use
       ffdec:characterId="17"
       height="119.15"
       id="rarity"
       transform="translate(-58.5,-60.65)"
       width="119.15"
       xlink:href="#sprite0" />
    <use
       ffdec:characterId="457"
       height="66"
       transform="translate(-15.7,-32.1)"
       width="27.299999"
       xlink:href="#shape0"
       id="use1" />
  </g>
  <defs
     id="defs4">
    <g
       id="shape0"
       transform="translate(15.3,31.3)">
      <path
         d="m -4.2,-31.1 q 5.25,-1 7.75,3 l 0.7,1.55 q 3.65,12.7 5.2,25.9 v 1.3 L 9.65,1.1 9.7,1.3 9.9,2.15 v 1.3 l 0.2,0.4 0.25,0.65 0.55,3 0.05,1.1 q 1.2,2.1 1.05,4.5 -0.25,4.3 -1.9,8.35 -1.7,5.9 -5.55,10.7 l -1.95,1.9 q -2.1,1.6 -3.35,-0.75 -1.55,-3 -2,-6.25 l -0.35,-0.65 -1,-3.2 q -0.4,-1.15 -0.45,-2.4 l -1.4,-4.25 Q -7.25,12.4 -8,8.15 L -8.1,7.95 -8.2,7.7 -8.3,7.5 -8.4,6.85 V 5.8 l -0.3,-0.65 -0.8,-3.2 -0.65,-2.6 -0.25,-0.45 -0.25,-0.65 -0.6,-2.75 -0.15,-0.85 q -3.25,-8.1 -3.9,-16.75 -0.2,-2.5 1.65,-4.3 4,-3.9 9.45,-4.7 M 2.45,-13.95 1.6,-17.7 1.3,-19 0.95,-20.5 q -1.1,1.55 -2.9,2.55 -3.4,1.95 -7.15,1.55 l 0.1,0.8 v 0.45 q 1.65,4.05 2.9,8.3 l 0.75,2.75 0.75,3.15 0.7,3.15 v 0.85 l 0.55,2.05 1.8,6.6 1.45,4.85 q 1.2,4 2,8 l 0.1,0.4 0.15,0.45 0.15,0.4 v 0.25 q 2.95,-3.7 3.9,-8.4 l 1.35,-6 Q 7.05,7.6 5.9,3.65 L 5,-0.15 4.55,-2.95 4.05,-4.9 4,-5.15 3.65,-7.45 3.4,-8.1 3.25,-8.7 3.2,-9.8 l 0.05,-0.85 -0.8,-3.3 m -6,-11.85 q -1.5,0.25 -2.75,1.05 l -0.85,0.35 -2.05,1.6 q -0.9,0.65 -1.15,1.65 l 0.1,0.6 0.2,0.85 1.75,0.15 q 1.35,-2.45 4.2,-3.5 l 2.05,-0.7 1.5,0.25 v -0.05 l 0.1,-0.85 -0.05,-0.75 -0.1,-0.3 -2.65,-0.35 h -0.3"
         fill="#000000"
         fill-rule="evenodd"
         stroke="none"
         id="path1" />
      <path
         d="m 1.6,-17.7 0.85,3.75 -3.65,7.3 q -1.4,3.15 -3.4,5.7 l -0.75,-3.15 -0.75,-2.75 5.7,-8.65 2,-2.2 M 4,-5.15 4.05,-4.9 4.55,-2.95 5,-0.15 0.8,9.15 Q 0,11 -1.55,11.7 l -1.8,-6.6 0.75,-1 1.25,-1.9 Q 0.6,-2.3 4,-5.15"
         fill="#ffffff"
         fill-rule="evenodd"
         stroke="none"
         id="path2" />
      <path
         d="m 1.6,-17.7 -2,2.2 -5.7,8.65 q -1.25,-4.25 -2.9,-8.3 v -0.45 l -0.1,-0.8 q 3.75,0.4 7.15,-1.55 1.8,-1 2.9,-2.55 l 0.35,1.5 0.3,1.3 m -6.2,16.75 q 2,-2.55 3.4,-5.7 l 3.65,-7.3 0.8,3.3 -0.05,0.85 0.05,1.1 0.15,0.6 0.25,0.65 0.35,2.3 Q 0.6,-2.3 -1.35,2.2 L -2.6,4.1 -3.35,5.1 -3.9,3.05 V 2.2 l -0.7,-3.15 m 9.6,0.8 0.9,3.8 q 1.15,3.95 1.65,8 l -1.35,6 q -0.95,4.7 -3.9,8.4 V 25.8 L 2.15,25.4 2,24.95 1.9,24.55 q -0.8,-4 -2,-8 L -1.55,11.7 Q 0,11 0.8,9.15 L 5,-0.15 M -3.55,-25.8 h 0.3 l 2.65,0.35 0.1,0.3 0.05,0.75 -0.1,0.85 v 0.05 l -1.5,-0.25 -2.05,0.7 q -2.85,1.05 -4.2,3.5 l -1.75,-0.15 -0.2,-0.85 -0.1,-0.6 q 0.25,-1 1.15,-1.65 l 2.05,-1.6 0.85,-0.35 q 1.25,-0.8 2.75,-1.05"
         fill="#c4c4c4"
         fill-rule="evenodd"
         stroke="none"
         id="path3" />
    </g>
    <g
       id="sprite1"
       transform="translate(17.4,15.85)">
      <use
         ffdec:characterId="31"
         height="57.200001"
         transform="matrix(0.5366,0,0,0.5366,-16.6582,-14.546)"
         width="70.75"
         xlink:href="#sprite2"
         id="use3" />
    </g>
    <g
       id="sprite2"
       transform="translate(-8.65,-10.35)">
      <use
         ffdec:characterId="30"
         height="57.200001"
         transform="translate(8.65,10.35)"
         width="70.75"
         xlink:href="#shape1"
         id="use4" />
    </g>
    <g
       id="shape1"
       transform="translate(-8.65,-10.35)">
      <path
         d="m 14.8,41.7 q 0.65,-1.75 2.65,-2.5 1.8,-0.8 3.7,-0.25 1.15,0.45 2.25,1.2 l 0.9,0.4 q 1.65,0.9 2.85,2.5 L 37.8,30.1 q 2.35,-2.8 3.75,-3.95 1.5,-1.15 4.25,-2.4 18.2,-8.85 27.65,-12.6 2.15,-0.8 3.25,-0.8 h 0.8 l 1.9,2.4 -0.2,0.8 q -0.2,1.1 -1.55,3 -5.85,8.25 -18.85,23.8 -1.85,2.35 -3.35,3.5 -1.4,1.15 -4.75,2.75 l -15.15,7.15 q 1.2,1.6 1.75,3.4 l 0.2,1 0.55,2.5 q 0.1,1.95 -1.1,3.55 -1.2,1.65 -3.05,1.9 l -1.3,0.05 q -1.65,0.2 -3.45,-0.65 -1.85,-0.9 -3,-2.6 L 25,60.95 23.8,62.1 q -2.6,2.85 -4.3,3.95 -2.85,1.8 -5.5,1.45 l -1.65,-0.5 -1.2,-0.7 -0.2,-0.2 q -1,-0.85 -1.6,-1.9 L 9.25,64 9.15,63.8 8.75,62.4 q -0.2,-0.8 -0.05,-1.7 0.25,-2.65 2.7,-5.05 1.5,-1.3 4.9,-3.15 L 17.7,51.55 16.05,50 q -1.35,-1.5 -1.8,-3.6 -0.4,-1.85 0.25,-3.45 l 0.3,-1.25"
         fill="#000000"
         fill-opacity="0.372549"
         fill-rule="evenodd"
         stroke="none"
         id="path4" />
    </g>
  </defs>
</svg>
