<?xml version="1.0" encoding="UTF-8" standalone="no"?>
<svg
   ffdec:objectType="frame"
   height="79.5"
   width="69.280449"
   version="1.1"
   id="svg5"
   xmlns:xlink="http://www.w3.org/1999/xlink"
   xmlns="http://www.w3.org/2000/svg"
   xmlns:svg="http://www.w3.org/2000/svg"
   xmlns:ffdec="https://www.free-decompiler.com/flash">
  <g
     transform="translate(34.635714,38.075)"
     id="g1">
    <use
       ffdec:characterId="17"
       height="119.15"
       id="rarity"
       transform="translate(-58.5,-60.65)"
       width="119.15"
       xlink:href="#sprite0" />
    <use
       ffdec:characterId="290"
       height="79.5"
       transform="translate(-34.65,-38.1)"
       width="69.300003"
       xlink:href="#sprite1"
       id="use1" />
  </g>
  <defs
     id="defs5">
    <g
       id="sprite1">
      <use
         ffdec:characterId="289"
         height="79.5"
         width="69.300003"
         xlink:href="#shape0"
         id="use2" />
    </g>
    <g
       id="shape0">
      <path
         d="m 10.8,74 0.45,0.25 1.2,0.3 q 1.15,0 2.65,-1.25 4.65,-3.85 9.55,-9.6 L 33.1,53.05 48.4,32.45 63.3,11.8 64.2,10.1 Q 64.4,9.25 64,8.35 L 63.45,7.4 62.95,6.95 Q 61.9,6 59.7,5.35 L 58.35,5.2 58.15,5.15 q -0.35,0.15 -1.1,0.9 -3.35,3.7 -9.1,11.55 -5.8,8 -9,11.65 l -3.5,3.85 q -2.1,2.2 -4.55,5.3 -7.65,9 -15.95,19.45 l -4.7,6.35 Q 8.35,66.95 7,69.45 l -0.75,1.5 3.85,2.6 0.7,0.45 m 3.2,-2.9 0.1,0.15 0.1,1.05 -0.65,0.9 -1.8,0.15 L 11.4,73.2 8.85,72 7.9,71.05 Q 7.5,70.4 7.7,69.6 8,68.85 8.75,68.6 l 2.05,0.2 1.7,1.15 0.9,0.55 0.6,0.6 m 11.05,-1.35 -3.6,4 -3.45,3.4 q -1.45,1.45 -2.75,1.9 -2.45,0.95 -5.2,0 Q 8.55,78.5 6.35,77 L 1.85,74.15 Q 0.35,73 0.1,72.2 -0.2,71.25 0.55,70 L 2,68.2 2.9,66.5 3.7,64.85 Q 4.4,63.5 6.15,61.1 18.15,45.4 30.4,31.2 l 7.1,-8.1 4.2,-5.35 10,-13.25 2.2,-2.55 q 1.35,-1.3 2.75,-1.7 1.5,-0.45 3.55,0 4.25,0.85 6.65,3.4 1.35,1.35 2,3.15 0.65,1.9 0.35,3.7 -0.3,1.65 -1.45,3.45 l -2.35,3.1 q -2.55,3 -5.85,7.5 l -5.65,7.7 Q 44.2,45.6 31.2,61.2 q -2.45,3 -3.6,4.7 l -2.55,3.85 M 58.6,12.35 q -0.05,0.9 -0.7,1.5 -0.7,0.65 -1.55,0.65 -0.9,0 -1.5,-0.6 -0.75,-0.65 -0.8,-1.5 0,-0.9 0.5,-1.6 0.6,-0.7 1.45,-0.9 1.1,-0.15 1.9,0.6 0.75,0.75 0.7,1.85 m -5.65,7 -0.15,0.95 q -0.45,0.85 -1.15,1.1 -0.6,0.3 -1.45,0 -0.75,-0.25 -1.1,-0.85 -0.4,-0.65 -0.25,-1.45 0.15,-0.8 0.7,-1.25 0.65,-0.45 1.5,-0.4 0.75,0 1.3,0.55 0.6,0.6 0.6,1.35 m -6.2,9.25 -1,1.1 -1.5,0.2 q -0.8,-0.2 -1.3,-0.8 -0.55,-0.65 -0.5,-1.45 0.1,-0.9 0.6,-1.45 0.5,-0.6 1.35,-0.75 0.85,-0.05 1.55,0.35 0.65,0.4 0.9,1.25 0.2,0.85 -0.1,1.55 m -9.5,5.35 q 0.2,-0.8 0.9,-1.25 l 1.6,-0.2 q 1.2,0.3 1.5,1.6 0.25,1.25 -0.8,2.05 l -2.2,0.1 -0.9,-0.95 q -0.25,-0.7 -0.1,-1.35 m -5,5.15 q 0.5,-0.4 1.2,-0.35 0.7,0 1.25,0.35 l 0.7,1.1 q 0.25,0.65 0,1.25 -0.2,0.75 -0.95,1.1 L 33,42.8 q -0.85,-0.25 -1.3,-0.85 -0.45,-0.7 -0.25,-1.55 0.1,-0.75 0.8,-1.3 m -17.2,20.95 0.55,-0.45 0.8,-0.25 0.75,0.1 1.4,0.45 q 0.85,0.5 1,1.15 0.3,0.75 -0.25,2.15 l -0.5,0.9 -0.95,1.6 -1.15,1.1 -0.55,0.3 q -0.9,0.25 -2.1,0 l -1.4,-0.55 q -0.9,-0.75 -0.65,-2.1 0.15,-1 0.95,-2.05 L 13.3,62 13.6,61.55 15,60.05 h 0.05"
         fill="#000000"
         fill-rule="evenodd"
         stroke="none"
         id="path2" />
      <path
         d="M 63.45,7.4 64,8.35 q 0.4,0.9 0.2,1.75 L 63.3,11.8 48.4,32.45 33.1,53.05 24.65,63.7 q -4.9,5.75 -9.55,9.6 -1.5,1.25 -2.65,1.25 L 11.25,74.25 10.8,74 11.75,73.35 13.55,73.2 14.2,72.3 14.1,71.25 14,71.1 q 4.4,-4.5 9.15,-10.55 l 9.5,-12.95 q 3.95,-5.5 6.25,-8.4 l 4.9,-5.9 4.85,-6 4.45,-6.35 4.65,-6.35 3.05,-3.7 2.65,-3.5 M 7,69.45 q 1.35,-2.5 3.25,-5.25 l 4.7,-6.35 Q 23.25,47.4 30.9,38.4 q 2.45,-3.1 4.55,-5.3 l 3.5,-3.85 q 3.2,-3.65 9,-11.65 5.75,-7.85 9.1,-11.55 0.75,-0.75 1.1,-0.9 l 0.2,0.05 Q 56.9,6.7 55.2,9 L 33.6,37.25 Q 22,52 15.05,60.05 H 15 L 13.6,61.55 13.3,62 13.05,62.25 9.5,66.2 7,69.45"
         fill="#8f7d6b"
         fill-rule="evenodd"
         stroke="none"
         id="path3" />
      <path
         d="m 63.45,7.4 -2.65,3.5 -3.05,3.7 -4.65,6.35 -4.45,6.35 -4.85,6 -4.9,5.9 q -2.3,2.9 -6.25,8.4 l -9.5,12.95 Q 18.4,66.6 14,71.1 L 13.4,70.5 12.5,69.95 10.8,68.8 8.75,68.6 Q 8,68.85 7.7,69.6 7.5,70.4 7.9,71.05 L 8.85,72 11.4,73.2 11.75,73.35 10.8,74 10.1,73.55 6.25,70.95 7,69.45 9.5,66.2 13.05,62.25 13.3,62 12.95,62.4 q -0.8,1.05 -0.95,2.05 -0.25,1.35 0.65,2.1 l 1.4,0.55 q 1.2,0.25 2.1,0 l 0.55,-0.3 1.15,-1.1 0.95,-1.6 0.5,-0.9 q 0.55,-1.4 0.25,-2.15 -0.15,-0.65 -1,-1.15 l -1.4,-0.45 -0.75,-0.1 -0.8,0.25 -0.55,0.45 Q 22,52 33.6,37.25 L 55.2,9 q 1.7,-2.3 3.15,-3.8 l 1.35,0.15 q 2.2,0.65 3.25,1.6 l 0.5,0.45 M 58.6,12.35 Q 58.65,11.25 57.9,10.5 57.1,9.75 56,9.9 q -0.85,0.2 -1.45,0.9 -0.5,0.7 -0.5,1.6 0.05,0.85 0.8,1.5 0.6,0.6 1.5,0.6 0.85,0 1.55,-0.65 0.65,-0.6 0.7,-1.5 M 32.25,39.1 q -0.7,0.55 -0.8,1.3 -0.2,0.85 0.25,1.55 0.45,0.6 1.3,0.85 l 1.45,-0.25 q 0.75,-0.35 0.95,-1.1 0.25,-0.6 0,-1.25 l -0.7,-1.1 q -0.55,-0.35 -1.25,-0.35 -0.7,-0.05 -1.2,0.35 m 5,-5.15 q -0.15,0.65 0.1,1.35 l 0.9,0.95 2.2,-0.1 q 1.05,-0.8 0.8,-2.05 -0.3,-1.3 -1.5,-1.6 l -1.6,0.2 q -0.7,0.45 -0.9,1.25 m 9.5,-5.35 q 0.3,-0.7 0.1,-1.55 -0.25,-0.85 -0.9,-1.25 -0.7,-0.4 -1.55,-0.35 -0.85,0.15 -1.35,0.75 -0.5,0.55 -0.6,1.45 -0.05,0.8 0.5,1.45 0.5,0.6 1.3,0.8 l 1.5,-0.2 1,-1.1 m 6.2,-9.25 q 0,-0.75 -0.6,-1.35 -0.55,-0.55 -1.3,-0.55 -0.85,-0.05 -1.5,0.4 -0.55,0.45 -0.7,1.25 -0.15,0.8 0.25,1.45 0.35,0.6 1.1,0.85 0.85,0.3 1.45,0 0.7,-0.25 1.15,-1.1 l 0.15,-0.95"
         fill="#af9b88"
         fill-rule="evenodd"
         stroke="none"
         id="path4" />
    </g>
    <g
       id="sprite2"
       transform="translate(17.4,15.85)">
      <use
         ffdec:characterId="31"
         height="57.200001"
         transform="matrix(0.5366,0,0,0.5366,-16.6582,-14.546)"
         width="70.75"
         xlink:href="#sprite3"
         id="use4" />
    </g>
    <g
       id="sprite3"
       transform="translate(-8.65,-10.35)">
      <use
         ffdec:characterId="30"
         height="57.200001"
         transform="translate(8.65,10.35)"
         width="70.75"
         xlink:href="#shape1"
         id="use5" />
    </g>
    <g
       id="shape1"
       transform="translate(-8.65,-10.35)">
      <path
         d="m 14.8,41.7 q 0.65,-1.75 2.65,-2.5 1.8,-0.8 3.7,-0.25 1.15,0.45 2.25,1.2 l 0.9,0.4 q 1.65,0.9 2.85,2.5 L 37.8,30.1 q 2.35,-2.8 3.75,-3.95 1.5,-1.15 4.25,-2.4 18.2,-8.85 27.65,-12.6 2.15,-0.8 3.25,-0.8 h 0.8 l 1.9,2.4 -0.2,0.8 q -0.2,1.1 -1.55,3 -5.85,8.25 -18.85,23.8 -1.85,2.35 -3.35,3.5 -1.4,1.15 -4.75,2.75 l -15.15,7.15 q 1.2,1.6 1.75,3.4 l 0.2,1 0.55,2.5 q 0.1,1.95 -1.1,3.55 -1.2,1.65 -3.05,1.9 l -1.3,0.05 q -1.65,0.2 -3.45,-0.65 -1.85,-0.9 -3,-2.6 L 25,60.95 23.8,62.1 q -2.6,2.85 -4.3,3.95 -2.85,1.8 -5.5,1.45 l -1.65,-0.5 -1.2,-0.7 -0.2,-0.2 q -1,-0.85 -1.6,-1.9 L 9.25,64 9.15,63.8 8.75,62.4 q -0.2,-0.8 -0.05,-1.7 0.25,-2.65 2.7,-5.05 1.5,-1.3 4.9,-3.15 L 17.7,51.55 16.05,50 q -1.35,-1.5 -1.8,-3.6 -0.4,-1.85 0.25,-3.45 l 0.3,-1.25"
         fill="#000000"
         fill-opacity="0.372549"
         fill-rule="evenodd"
         stroke="none"
         id="path5" />
    </g>
  </defs>
</svg>
