<?xml version="1.0" encoding="UTF-8" standalone="no"?>
<svg
   ffdec:objectType="frame"
   height="61.437767"
   width="64.195946"
   version="1.1"
   id="svg5"
   xmlns:xlink="http://www.w3.org/1999/xlink"
   xmlns="http://www.w3.org/2000/svg"
   xmlns:svg="http://www.w3.org/2000/svg"
   xmlns:ffdec="https://www.free-decompiler.com/flash">
  <g
     transform="translate(33.1,27.935135)"
     id="g1">
    <use
       ffdec:characterId="17"
       height="119.15"
       id="rarity"
       transform="translate(-58.5,-60.65)"
       width="119.15"
       xlink:href="#sprite0" />
    <use
       ffdec:characterId="47"
       height="61.450001"
       transform="translate(-33.1,-27.95)"
       width="64.199997"
       xlink:href="#shape0"
       id="use1" />
  </g>
  <defs
     id="defs5">
    <g
       id="shape0"
       transform="translate(32.8,30.45)">
      <path
         d="M 4.6,-17.65 3.9,-18.6 q -1.3,-2 -1.2,-4.2 0.1,-1.75 -0.4,-2.3 -0.55,-0.6 -2.1,-0.4 l -6.2,0.65 -0.25,0.05 -0.85,0.15 0.9,0.15 3.75,0.55 2.9,0.85 1,1.15 q 0.4,0.75 0.2,1.45 -0.35,0.8 -0.35,1.3 l 0.15,0.45 q 0.75,0.3 1.1,1 l 0.2,0.55 q 0.15,0.7 -0.1,1.45 L 2,-14.6 q -1.15,1.4 -2.9,1.55 l -1.9,-0.05 -0.85,-0.1 h -0.2 l -0.85,-0.05 q -1.8,0 -4.6,1.45 -0.95,0.4 -1.05,0.95 l 0.1,0.5 q 1.2,-0.25 2.8,0.9 l 0.65,0.5 1.25,1.45 q 0.8,1.4 0.2,2.6 0.65,0.5 1.3,0.75 l 1.5,0.25 0.2,-0.05 Q -1.2,-4 0.1,-4.7 L 0.65,-5 0.75,-5.1 0.8,-5.15 2.2,-6.2 4.05,-7.65 q 1.15,-1 1.95,-1.3 l 3.55,0.25 1,0.4 0.05,0.05 0.65,0.45 q 0.25,0.45 0.15,1.1 l -0.3,1.9 -0.45,1.2 -1.15,1.9 Q 9,-0.6 8.95,1.85 L 8.75,3.2 V 3.45 L 8.7,3.65 Q 8.75,4.4 9.35,5.7 l 0.7,1.55 0.4,0.85 q 0.7,-0.95 1.7,-1.7 l 2.5,-1.45 2.45,-1.5 Q 19.35,1.65 19.75,-1.3 20,-3.7 18.8,-6.6 l -0.25,-0.6 -1.4,-2.6 -0.2,-0.3 -2.15,-2.55 q -1.55,-1.35 -3.35,-2 L 11.2,-14.75 10.55,-14.9 9.3,-15.2 7.15,-15.8 Q 6.55,-16.05 6,-16.4 l -1.4,-1.25 m -7.7,0.1 0.55,0.15 q -0.45,-1.05 -0.1,-2.1 v -0.4 l -0.3,-0.1 -4.65,-0.6 -2.25,0.2 -1.25,1 q -1.2,0.8 -2.85,0.65 -1.2,-0.1 -2.8,-0.75 l -1.75,-0.35 -1.55,0.4 -1.55,-0.1 -2,5 -0.05,0.4 -0.05,0.9 -0.4,1.65 -0.9,2.15 q -1.4,2.35 -3.75,2.65 -1.25,0.1 -2.3,-0.5 -1.15,-0.65 -1.5,-1.75 l -0.25,-1.75 q 0,-1.55 0.75,-1.7 0.45,0.2 0.9,0.95 l 0.8,1.05 q 1.15,0.75 3.25,-0.4 l 0.05,-0.4 -1.1,-1.1 q -0.75,-1.35 -0.4,-3.4 0.65,-4.8 4.1,-7.7 1.75,-1.45 3.95,-2.05 l 4.4,-0.1 2.4,0.1 q 0.75,-0.3 1.45,-1.6 1.25,-1.85 2.25,-2.3 l 1.8,-0.3 1.85,0.1 2.95,-0.2 2.95,-0.45 q 3.8,-0.5 5.75,0.85 2.2,1.3 2.55,4.05 l 0.05,2.3 q 0.1,1.3 0.75,1.95 0.5,0.5 1.35,0.7 l 1.65,0.25 q 3.65,0.6 6.5,3.6 l 2.25,2.9 1.6,0.65 q 0.1,-2.55 1.1,-3.35 0.75,-0.55 1.95,-0.45 2.3,0.1 3.3,1.95 l 0.65,1.75 0.9,1.2 0.9,1.2 q 1.05,1.8 0.25,5.2 -0.3,0.95 -0.55,1.15 -0.55,0.65 -1.2,0.35 -0.65,-0.3 -0.45,-1.8 0.45,-3.4 -0.9,-6.35 -1,-2.1 -2.4,-2.05 v 1.3 l 0.1,1.3 q 0,1.7 -0.9,2.35 -0.7,0.4 -1.85,0.45 1.85,4.35 1.55,7.7 -0.6,5.2 -6.05,9.85 l -2.1,1.8 q -1.1,1.1 -1.55,2.2 l -0.5,1.9 -0.5,1.7 1.15,-0.05 q 1.15,0.05 2,0.6 0.95,0.55 1.45,1.55 0.5,1 0.35,2.05 -0.2,1.4 -1.6,2.8 -2.45,2.4 -6.1,3.4 L 3.95,27 3.4,27.15 Q 1.75,27.5 1.35,27.8 l 0.55,1 0.45,1 L 2,30.6 1.15,31 Q 0.3,31.05 -0.45,30.15 L -1,28.35 Q -1.15,27.25 -0.75,26.4 -0.4,25.75 0.5,25.2 0.95,24.9 1.4,24.75 L 1.55,24.3 Q 2.1,23.45 4,23.8 7.15,24.3 9.85,23.75 13,23.15 15,21.3 L 15.8,20.25 12.85,21 9.95,21.35 Q 8.95,21.1 8.3,20.15 L 8.1,19.8 q -4.5,1.1 -10,1.45 -5.35,0.3 -8.35,-0.9 -2.75,-1.05 -5.3,-3.75 -1.65,-1.7 -4.15,-5.3 -2.3,-3.2 -2.7,-5.4 -0.35,-2.2 1.05,-6.35 l 1.5,-3.9 q 0.95,-2.15 2.25,-3.5 1.05,-1.2 1.25,-1.8 l 0.2,-1.5 q 0.4,-2.1 4.05,-4.1 2.75,-1.45 4.4,-2 l 4.6,-0.3 m 3.05,15.45 -1.1,0.5 -1.7,0.05 -0.8,-0.15 Q -4.9,-2.05 -6,-3.05 l -0.3,-0.3 -0.65,-0.85 q -0.35,-0.7 0,-1.35 L -6.6,-6.4 q 0,-0.55 -0.8,-0.8 l -0.1,-0.05 q -1.9,-0.4 -3.3,0.75 l -0.2,0.2 -1.25,1.35 -1.15,1.35 -0.95,2.2 -0.7,2.35 -0.55,1.8 -0.2,1.15 V 4.15 4.6 q 0.15,1.1 1.85,3.2 l 0.3,0.4 Q -11.5,7 -9.8,6.8 l 1.3,-0.05 h 0.55 L -6.5,7.1 q 1.05,0.4 1.9,1.3 l 0.9,1.3 q 0.4,0.9 0.45,2.1 0.05,1.7 -0.75,3.1 h 0.4 l 0.2,0.05 h 1.2 l 5.9,-0.4 1.9,-0.3 0.4,-0.1 Q 7.6,13.85 8.2,13.2 L 8.8,12.1 9.05,11.35 Q 8.85,10.1 8.05,8.7 L 7.7,8.1 6.75,6.5 6.5,5.35 Q 6.3,3.8 6.8,1.4 l 0.6,-2.15 1.55,-2.95 1.1,-2.5 0.1,-0.55 L 8.25,-7.6 8.2,-7.65 6.1,-7.4 Q 5.6,-7.1 5,-6.15 l -1,1.2 -1.7,0.65 -0.05,0.05 -1.55,1.5 -0.25,0.25 -0.5,0.4 M -11.6,10.95 q 1.35,1.75 2.75,2.55 l 0.25,0.15 q 0.85,0.5 2.05,0.85 l 0.25,0.05 q 0.9,-1.1 1.35,-2.55 0.25,-0.85 0,-1.45 L -5.05,10.3 Q -5.6,9.35 -7.75,9.35 L -8.8,9.45 -9.4,9.5 q -1.6,0.2 -2.65,0.85 l 0.25,0.35 0.2,0.25"
         fill="#000000"
         fill-rule="evenodd"
         stroke="none"
         id="path1" />
      <path
         d="M 2.75,-17.2 4.6,-17.65 6,-16.4 q 0.55,0.35 1.15,0.6 l 2.15,0.6 1.25,0.3 0.65,0.15 q 0.8,1.5 0.45,3 l -0.05,0.2 q -0.4,1.25 -1.65,2.5 L 9.55,-8.7 6,-8.95 q -0.8,0.3 -1.95,1.3 L 2.2,-6.2 0.8,-5.15 0.75,-5.1 0.65,-5 0.1,-4.7 q -1.3,0.7 -2.45,0.75 l -0.2,0.05 -1.5,-0.25 q -0.65,-0.25 -1.3,-0.75 0.6,-1.2 -0.2,-2.6 l -1.25,-1.45 1.05,-1.8 2,-2.35 0.1,-0.1 0.85,0.1 1.9,0.05 Q 0.85,-13.2 2,-14.6 l 0.65,-1.15 q 0.25,-0.75 0.1,-1.45 m 12.05,4.55 2.15,2.55 0.2,0.3 1.4,2.6 0.25,0.6 q 1.2,2.9 0.95,5.3 -0.4,2.95 -2.65,4.75 l -2.45,1.5 -2.5,1.45 q -1,0.75 -1.7,1.7 L 10.05,7.25 9.35,5.7 Q 8.75,4.4 8.7,3.65 L 8.75,3.45 9.05,3.25 9.25,3.1 11.1,2 11.55,1.7 12.85,0.75 q 1.3,-1.25 1.9,-2.85 l -0.4,-0.1 Q 12,-2.95 11.1,-4.8 l 0.3,-1.9 q 0.1,-0.65 -0.15,-1.1 L 10.6,-8.25 q 0.1,-1.3 0.6,-2.15 l 0.95,-1.15 0.8,-0.55 q 0.9,-0.5 1.85,-0.55 M 8.25,-7.6 7.55,-7.05 5,-4.6 q -1.1,0.95 -2.1,1.55 l -0.8,0.4 -1.35,0.45 -0.8,0.1 0.5,-0.4 L 0.7,-2.75 2.25,-4.25 2.3,-4.3 4,-4.95 5,-6.15 Q 5.6,-7.1 6.1,-7.4 L 8.2,-7.65 8.25,-7.6 M -6.5,7.1 q 1.6,0.15 3,1.1 l 0.95,0.75 0.6,0.75 0.15,0.35 q 0.7,1.6 -0.2,3.25 -0.45,0.75 -1.05,1.2 v 0.05 L -3.6,14.9 H -4 Q -3.2,13.5 -3.25,11.8 -3.3,10.6 -3.7,9.7 L -4.6,8.4 Q -5.45,7.5 -6.5,7.1 M 3.7,14.55 3.35,13.35 Q 3.1,12 3.6,10.3 L 3.7,10 3.8,9.75 Q 4.4,8 5.45,6.6 L 5.65,6.35 6.5,5.35 6.75,6.5 7.7,8.1 8.05,8.7 q 0.8,1.4 1,2.65 L 8.8,12.1 8.2,13.2 Q 7.6,13.85 6,14.15 l -0.4,0.1 -1.9,0.3 M -6.95,-4.2 q -0.8,-1.25 -0.45,-3 0.8,0.25 0.8,0.8 l -0.35,0.85 q -0.35,0.65 0,1.35 m -4.65,15.15 -0.2,-0.25 -0.25,-0.35 Q -11,9.7 -9.4,9.5 l 0.6,-0.05 1.05,-0.1 q 2.15,0 2.7,0.95 l 0.1,0.25 q 0.25,0.6 0,1.45 -0.45,1.45 -1.35,2.55 L -6.55,14.5 Q -7.75,14.15 -8.6,13.65 L -8.85,13.5 q -1.4,-0.8 -2.75,-2.55"
         fill="#837c79"
         fill-rule="evenodd"
         stroke="none"
         id="path2" />
      <path
         d="M -6.25,-24.8 -6,-24.85 0.2,-25.5 q 1.55,-0.2 2.1,0.4 0.5,0.55 0.4,2.3 -0.1,2.2 1.2,4.2 l 0.7,0.95 -1.85,0.45 -0.2,-0.55 q -0.35,-0.7 -1.1,-1 L 1.3,-19.2 q 0,-0.5 0.35,-1.3 0.2,-0.7 -0.2,-1.45 l -1,-1.15 -2.9,-0.85 -3.75,-0.55 -0.05,-0.3 m 17.45,10.05 0.25,0.1 q 1.8,0.65 3.35,2 -0.95,0.05 -1.85,0.55 l -0.8,0.55 -0.95,1.15 q -0.5,0.85 -0.6,2.15 l -0.05,-0.05 -1,-0.4 0.4,-0.35 q 1.25,-1.25 1.65,-2.5 l 0.05,-0.2 q 0.35,-1.5 -0.45,-3 M 8.75,3.45 V 3.2 L 8.95,1.85 Q 9,-0.6 9.5,-1.7 l 1.15,-1.9 0.45,-1.2 q 0.9,1.85 3.25,2.6 l 0.4,0.1 q -0.6,1.6 -1.9,2.85 L 11.55,1.7 11.1,2 9.25,3.1 9.05,3.25 8.75,3.45 M -6.8,-8.95 -7.45,-9.45 q -1.6,-1.15 -2.8,-0.9 l -0.1,-0.5 q 0.1,-0.55 1.05,-0.95 2.8,-1.45 4.6,-1.45 l 0.85,0.05 0.1,0.1 -2,2.35 -1.05,1.8 m 6.75,6.85 0.8,-0.1 1.35,-0.45 0.8,-0.4 q 1,-0.6 2.1,-1.55 l 2.55,-2.45 0.7,-0.55 1.9,0.85 -0.1,0.55 -1.1,2.5 L 7.4,-0.75 6.8,1.4 Q 6.3,3.8 6.5,5.35 l -0.85,1 -0.2,0.25 Q 4.4,8 3.8,9.75 L 3.7,10 3.6,10.3 Q 3.1,12 3.35,13.35 l 0.35,1.2 -5.9,0.4 H -3.4 L -3.6,14.9 -3.05,14.55 V 14.5 q 0.6,-0.45 1.05,-1.2 0.9,-1.65 0.2,-3.25 L -1.95,9.7 -2.55,8.95 -3.5,8.2 Q -4.9,7.25 -6.5,7.1 L -7.95,6.75 H -8.5 L -8.15,6.2 q 0.9,-1.1 2.35,-1.7 h 0.05 Q -3.6,2.85 -1.5,2.55 L -1.6,0.8 q 0.1,-1.6 0.4,-2.35 l 0.05,-0.05 1.1,-0.5 m -15.75,6 0.2,-1.15 0.55,-1.8 0.7,-2.35 0.95,-2.2 1.15,-1.35 1.25,-1.35 0.2,-0.2 q 1.4,-1.15 3.3,-0.75 l 0.1,0.05 q -0.35,1.75 0.45,3 l 0.65,0.85 0.3,0.3 q 1.1,1 2.35,1.35 L -4.9,0 q -1.8,2.1 -4.05,3.25 -2.5,1.3 -5,1.1 L -15.7,3.95 -15.8,3.9"
         fill="#988d88"
         fill-rule="evenodd"
         stroke="none"
         id="path3" />
      <path
         d="M -1.15,-1.6 -1.2,-1.55 Q -1.5,-0.8 -1.6,0.8 l 0.1,1.75 Q -3.6,2.85 -5.75,4.5 H -5.8 Q -7.25,5.1 -8.15,6.2 L -8.5,6.75 -9.8,6.8 q -1.7,0.2 -3.85,1.4 l -0.3,-0.4 Q -15.65,5.7 -15.8,4.6 V 4.15 l 0.05,-0.15 0.05,-0.05 1.75,0.4 q 2.5,0.2 5,-1.1 Q -6.7,2.1 -4.9,0 l 1.25,-1.7 0.8,0.15 1.7,-0.05"
         fill="#afa39d"
         fill-rule="evenodd"
         stroke="none"
         id="path4" />
    </g>
    <g
       id="sprite1"
       transform="translate(17.4,15.85)">
      <use
         ffdec:characterId="31"
         height="57.200001"
         transform="matrix(0.5366,0,0,0.5366,-16.6582,-14.546)"
         width="70.75"
         xlink:href="#sprite2"
         id="use4" />
    </g>
    <g
       id="sprite2"
       transform="translate(-8.65,-10.35)">
      <use
         ffdec:characterId="30"
         height="57.200001"
         transform="translate(8.65,10.35)"
         width="70.75"
         xlink:href="#shape1"
         id="use5" />
    </g>
    <g
       id="shape1"
       transform="translate(-8.65,-10.35)">
      <path
         d="m 14.8,41.7 q 0.65,-1.75 2.65,-2.5 1.8,-0.8 3.7,-0.25 1.15,0.45 2.25,1.2 l 0.9,0.4 q 1.65,0.9 2.85,2.5 L 37.8,30.1 q 2.35,-2.8 3.75,-3.95 1.5,-1.15 4.25,-2.4 18.2,-8.85 27.65,-12.6 2.15,-0.8 3.25,-0.8 h 0.8 l 1.9,2.4 -0.2,0.8 q -0.2,1.1 -1.55,3 -5.85,8.25 -18.85,23.8 -1.85,2.35 -3.35,3.5 -1.4,1.15 -4.75,2.75 l -15.15,7.15 q 1.2,1.6 1.75,3.4 l 0.2,1 0.55,2.5 q 0.1,1.95 -1.1,3.55 -1.2,1.65 -3.05,1.9 l -1.3,0.05 q -1.65,0.2 -3.45,-0.65 -1.85,-0.9 -3,-2.6 L 25,60.95 23.8,62.1 q -2.6,2.85 -4.3,3.95 -2.85,1.8 -5.5,1.45 l -1.65,-0.5 -1.2,-0.7 -0.2,-0.2 q -1,-0.85 -1.6,-1.9 L 9.25,64 9.15,63.8 8.75,62.4 q -0.2,-0.8 -0.05,-1.7 0.25,-2.65 2.7,-5.05 1.5,-1.3 4.9,-3.15 L 17.7,51.55 16.05,50 q -1.35,-1.5 -1.8,-3.6 -0.4,-1.85 0.25,-3.45 l 0.3,-1.25"
         fill="#000000"
         fill-opacity="0.372549"
         fill-rule="evenodd"
         stroke="none"
         id="path5" />
    </g>
  </defs>
</svg>
