<?xml version="1.0" encoding="UTF-8" standalone="no"?>
<svg
   ffdec:objectType="frame"
   height="74.239288"
   width="79.379997"
   version="1.1"
   id="svg5"
   xmlns:xlink="http://www.w3.org/1999/xlink"
   xmlns="http://www.w3.org/2000/svg"
   xmlns:svg="http://www.w3.org/2000/svg"
   xmlns:ffdec="https://www.free-decompiler.com/flash">
  <g
     transform="translate(40.03,36.85)"
     id="g1">
    <use
       ffdec:characterId="17"
       height="119.15"
       id="rarity"
       transform="translate(-58.5,-60.65)"
       width="119.15"
       xlink:href="#sprite0" />
    <use
       ffdec:characterId="245"
       height="74.25"
       transform="translate(-40.05,-36.85)"
       width="79.400002"
       xlink:href="#shape0"
       id="use1" />
  </g>
  <defs
     id="defs5">
    <g
       id="shape0"
       transform="translate(39.75,39.35)">
      <path
         d="m 35.8,-20.2 q 2.1,5.45 3.05,11.15 0.8,2.5 0.8,5.15 Q 39.6,1.75 39.2,7.2 l -0.35,1 -0.25,3.6 -1.65,7.7 q -0.25,1.15 -0.9,2.15 -0.3,1.35 -1.1,2.4 -1.9,2.35 -5.05,2.95 l -1.2,0.25 -1.35,0.25 q -8.15,4.2 -16.9,6.7 -0.75,0.55 -2.2,0.6 -4.6,0.25 -9.15,-0.2 l -24.25,-2 q -0.75,-0.1 -1.35,-0.7 -5.85,-6.4 -9.4,-14.25 L -36,17.3 q -2,-3.5 -3.2,-7.3 l -0.45,-2.6 q -0.2,-2.9 0.1,-5.75 l 0.15,-0.4 q 0.25,-4.9 1.8,-9.5 1.85,-5.6 6.05,-9.95 2.95,-3 6.5,-5.1 l -0.3,-2.25 v -1.6 q -1.2,-4.15 3.45,-5.8 l 3.6,-1.25 q 11.6,-3.9 23.65,-5.15 4.8,0.2 6.35,5.15 l 0.7,1.7 4.9,-0.65 q 7.45,-0.2 13.4,4.4 1.2,1 1.45,2.3 2.2,2.55 3.65,6.25 M -3.8,2.05 Q -4.3,0.55 -4.35,-1.1 L -4.4,-8.25 q 0.05,-1.45 0.6,-2.75 0.65,-8.35 6.9,-14.15 l 0.95,-0.8 h -0.5 l -1.15,0.1 q -7.35,0.8 -14.25,3.45 l -8.7,3.55 q -7.35,3.2 -10.8,10.45 -1.55,4.7 -2.4,9.5 -0.7,4.1 0.35,7.95 l 1.7,0.05 q 0.15,-1.6 1.15,-3.05 0.55,-0.85 1.6,-1 l 2.35,-0.6 2.15,0.3 0.7,0.35 q 0.75,1.25 1.2,2.7 l 0.35,1.4 q 1.15,-0.5 2.45,-0.65 L -14.3,7.9 q -1,-3.5 2.35,-5.15 Q -10.3,2 -8.6,1.9 -5.2,2.5 -4.8,6 L -3.4,5.7 -3.8,2.05 m 10.1,-33.8 0.6,-0.15 -1,-1.7 -2.2,0.15 0.3,1.9 2.3,-0.2 m 11.2,5.3 -2.5,0.3 -1.05,0.15 q -8,5.05 -11.15,13.4 -0.6,1.65 -0.85,3.45 -0.7,4.35 -0.15,8.9 L 2.35,3.2 2.5,3.1 q 6.85,-3.8 14.1,-7.05 l 16.05,-8.3 -0.8,-3.1 q -1.55,-5.7 -6.3,-9.05 -3.6,-2.5 -8.05,-2.05 m -14.1,36.3 0.15,0.6 q 1.05,2.5 1.7,5.2 0.85,3.45 2.55,6.7 1.15,1.25 1.85,2.85 l 1.8,4.65 0.1,0.15 q 8.75,-4.95 18,-8.65 l 1.1,-0.65 0.1,-0.4 0.05,-0.2 0.2,-0.6 0.35,-0.6 0.6,-2.35 0.7,-3.6 0.25,-1 q 1.15,-7 0.95,-14.25 l -0.4,-5.3 -1.35,0.7 Q 26.5,-4.35 21,-1.4 L 3.7,7.55 2.85,7.75 3.4,9.85 M 3.2,27 1.05,22.25 Q -1,17.25 -2.2,12.05 L -3.35,12.1 H -3.7 l 0.05,0.1 q 0.6,1.4 -0.4,2.6 -1.45,3.7 -6.5,2.6 -1.55,-0.35 -2.15,-1.95 l -0.55,-2.35 -0.5,0.1 -5.65,0.75 -1.5,0.15 q 0.45,0.75 0.5,1.7 0.05,1.55 -0.95,2.75 -6.75,2.8 -9.35,-3.3 L -31,14.1 h -0.35 q 3.3,6.95 8.3,13 L 4.5,29.35 3.2,27 m -22.95,-54.25 -0.05,0.2 v 0.2 0.2 0.4 0.2 l 0.05,0.15 3,-1 q -0.3,-0.65 -0.25,-1.55 l -2.75,1.2 m 11.05,-1.7 q 4.2,-1.3 8.5,-2 l -0.6,-1.75 -0.05,-0.25 q -6.6,0.95 -12.85,3.2 0.85,0.9 0.8,1.95 2.1,-0.5 4.2,-1.15 m 0.2,34.65 -0.45,0.05 -1.6,0.1 -0.4,0.1 0.45,1.4 q 0.35,1.45 0.3,2.95 l 0.15,0.4 0.65,2 0.2,0.55 q 0.35,0.5 1.3,0.2 L -6.25,13 -6.3,12.8 -6.35,12.6 Q -6.55,12 -6.9,11.45 l -0.15,-0.2 Q -7,9.9 -7.6,8.7 -8.35,7.1 -8.5,5.7 m -17.9,3 -0.4,0.2 -0.75,0.2 q -0.05,1.15 0.4,2.15 0.35,0.9 0.2,1.85 l 0.2,0.6 0.55,1.3 1,0.1 0.85,-0.15 -0.3,-1.05 -0.4,-1.35 -0.15,-0.2 -0.1,-0.2 q -0.05,-1.05 -0.25,-2 -0.25,-1.1 -0.85,-1.45"
         fill="#000000"
         fill-rule="evenodd"
         stroke="none"
         id="path1" />
      <path
         d="M -3.8,2.05 -3.4,5.7 -4.8,6 Q -5.2,2.5 -8.6,1.9 -10.3,2 -11.95,2.75 -15.3,4.4 -14.3,7.9 l -5.45,0.65 Q -21.05,8.7 -22.2,9.2 L -22.55,7.8 Q -23,6.35 -23.75,5.1 l -0.7,-0.35 -2.15,-0.3 -2.35,0.6 q -1.05,0.15 -1.6,1 -1,1.45 -1.15,3.05 l -1.7,-0.05 q -1.05,-3.85 -0.35,-7.95 0.85,-4.8 2.4,-9.5 3.45,-7.25 10.8,-10.45 l 8.7,-3.55 q 6.9,-2.65 14.25,-3.45 l 1.15,-0.1 h 0.5 l -0.95,0.8 q -6.25,5.8 -6.9,14.15 -0.55,1.3 -0.6,2.75 l 0.05,7.15 q 0.05,1.65 0.55,3.15 m 21.3,-28.5 q 4.45,-0.45 8.05,2.05 4.75,3.35 6.3,9.05 l 0.8,3.1 -16.05,8.3 Q 9.35,-0.7 2.5,3.1 L 2.35,3.2 1.8,-0.25 Q 1.25,-4.8 1.95,-9.15 2.2,-10.95 2.8,-12.6 5.95,-20.95 13.95,-26 l 1.05,-0.15 2.5,-0.3"
         fill="#867272"
         fill-rule="evenodd"
         stroke="none"
         id="path2" />
      <path
         d="m 6.3,-31.75 -2.3,0.2 -0.3,-1.9 2.2,-0.15 1,1.7 -0.6,0.15 m -26.05,4.5 2.75,-1.2 q -0.05,0.9 0.25,1.55 l -3,1 -0.05,-0.15 v -0.2 -0.4 -0.2 -0.2 l 0.05,-0.2 M 3.2,27 4.5,29.35 -23.05,27.1 q -5,-6.05 -8.3,-13 H -31 l 0.3,1.15 q 2.6,6.1 9.35,3.3 1,-1.2 0.95,-2.75 -0.05,-0.95 -0.5,-1.7 l 1.5,-0.15 5.65,-0.75 0.5,-0.1 0.55,2.35 q 0.6,1.6 2.15,1.95 5.05,1.1 6.5,-2.6 1,-1.2 0.4,-2.6 L -3.7,12.1 h 0.35 l 1.15,-0.05 q 1.2,5.2 3.25,10.2 L 3.2,27 M 3.4,9.85 2.85,7.75 3.7,7.55 21,-1.4 q 5.5,-2.95 11.1,-5.5 l 1.35,-0.7 0.4,5.3 q 0.2,7.25 -0.95,14.25 l -0.25,1 -0.7,3.6 -0.6,2.35 -0.35,0.6 -0.2,0.6 -0.05,0.2 -0.1,0.4 -1.1,0.65 q -9.25,3.7 -18,8.65 L 11.45,29.85 9.65,25.2 Q 8.95,23.6 7.8,22.35 6.1,19.1 5.25,15.65 4.6,12.95 3.55,10.45 L 3.4,9.85"
         fill="#695555"
         fill-rule="evenodd"
         stroke="none"
         id="path3" />
      <path
         d="m -26.4,8.7 q 0.6,0.35 0.85,1.45 0.2,0.95 0.25,2 l 0.1,0.2 0.15,0.2 0.4,1.35 0.3,1.05 -0.85,0.15 -1,-0.1 -0.55,-1.3 -0.2,-0.6 q 0.15,-0.95 -0.2,-1.85 -0.45,-1 -0.4,-2.15 l 0.75,-0.2 0.4,-0.2 m 17.9,-3 q 0.15,1.4 0.9,3 0.6,1.2 0.55,2.55 l 0.15,0.2 q 0.35,0.55 0.55,1.15 l 0.05,0.2 0.05,0.2 -1.65,0.45 q -0.95,0.3 -1.3,-0.2 l -0.2,-0.55 -0.65,-2 -0.15,-0.4 q 0.05,-1.5 -0.3,-2.95 l -0.45,-1.4 0.4,-0.1 1.6,-0.1 0.45,-0.05"
         fill="#9f9494"
         fill-rule="evenodd"
         stroke="none"
         id="path4" />
    </g>
    <g
       id="sprite1"
       transform="translate(17.4,15.85)">
      <use
         ffdec:characterId="31"
         height="57.200001"
         transform="matrix(0.5366,0,0,0.5366,-16.6582,-14.546)"
         width="70.75"
         xlink:href="#sprite2"
         id="use4" />
    </g>
    <g
       id="sprite2"
       transform="translate(-8.65,-10.35)">
      <use
         ffdec:characterId="30"
         height="57.200001"
         transform="translate(8.65,10.35)"
         width="70.75"
         xlink:href="#shape1"
         id="use5" />
    </g>
    <g
       id="shape1"
       transform="translate(-8.65,-10.35)">
      <path
         d="m 14.8,41.7 q 0.65,-1.75 2.65,-2.5 1.8,-0.8 3.7,-0.25 1.15,0.45 2.25,1.2 l 0.9,0.4 q 1.65,0.9 2.85,2.5 L 37.8,30.1 q 2.35,-2.8 3.75,-3.95 1.5,-1.15 4.25,-2.4 18.2,-8.85 27.65,-12.6 2.15,-0.8 3.25,-0.8 h 0.8 l 1.9,2.4 -0.2,0.8 q -0.2,1.1 -1.55,3 -5.85,8.25 -18.85,23.8 -1.85,2.35 -3.35,3.5 -1.4,1.15 -4.75,2.75 l -15.15,7.15 q 1.2,1.6 1.75,3.4 l 0.2,1 0.55,2.5 q 0.1,1.95 -1.1,3.55 -1.2,1.65 -3.05,1.9 l -1.3,0.05 q -1.65,0.2 -3.45,-0.65 -1.85,-0.9 -3,-2.6 L 25,60.95 23.8,62.1 q -2.6,2.85 -4.3,3.95 -2.85,1.8 -5.5,1.45 l -1.65,-0.5 -1.2,-0.7 -0.2,-0.2 q -1,-0.85 -1.6,-1.9 L 9.25,64 9.15,63.8 8.75,62.4 q -0.2,-0.8 -0.05,-1.7 0.25,-2.65 2.7,-5.05 1.5,-1.3 4.9,-3.15 L 17.7,51.55 16.05,50 q -1.35,-1.5 -1.8,-3.6 -0.4,-1.85 0.25,-3.45 l 0.3,-1.25"
         fill="#000000"
         fill-opacity="0.372549"
         fill-rule="evenodd"
         stroke="none"
         id="path5" />
    </g>
  </defs>
</svg>
