<?xml version="1.0" encoding="UTF-8" standalone="no"?>
<svg
   ffdec:objectType="frame"
   height="63.708065"
   width="91.082634"
   version="1.1"
   id="svg4"
   sodipodi:docname="ITEM Fatty Mask.svg"
   xmlns:inkscape="http://www.inkscape.org/namespaces/inkscape"
   xmlns:sodipodi="http://sodipodi.sourceforge.net/DTD/sodipodi-0.dtd"
   xmlns:xlink="http://www.w3.org/1999/xlink"
   xmlns="http://www.w3.org/2000/svg"
   xmlns:svg="http://www.w3.org/2000/svg"
   xmlns:ffdec="https://www.free-decompiler.com/flash">
  <sodipodi:namedview
     id="namedview4"
     pagecolor="#ffffff"
     bordercolor="#000000"
     borderopacity="0.25"
     inkscape:showpageshadow="2"
     inkscape:pageopacity="0.0"
     inkscape:pagecheckerboard="0"
     inkscape:deskcolor="#d1d1d1"
     fit-margin-top="5"
     fit-margin-left="5"
     fit-margin-right="5"
     fit-margin-bottom="5" />
  <g
     transform="translate(45.923636,27.458065)"
     id="g1">
    <use
       ffdec:characterId="17"
       height="119.15"
       id="rarity"
       transform="translate(-58.5,-60.65)"
       width="119.15"
       xlink:href="#sprite0" />
    <use
       ffdec:characterId="1010"
       height="63.700001"
       transform="translate(-45.9,-27.45)"
       width="91.050003"
       xlink:href="#shape0"
       id="use1" />
  </g>
  <defs
     id="defs4">
    <g
       id="shape0"
       transform="translate(92.7,28.8)">
      <path
         d="m -23.6,-2.65 0.05,-0.45 q 1.05,-6.55 -3.4,-13.45 -1.7,-2.5 -3.6,-4.1 -2.7,-2.15 -6.25,-2.65 l -2.75,-0.15 q -2.05,0.1 -4,0.9 -4.15,1.75 -6.35,5.55 l -0.85,1.55 -0.3,0.55 0.15,0.15 2.35,2.6 q 1.15,1.4 0.5,2.15 l -0.05,0.1 q -0.7,0.7 -2.4,-0.55 -3.4,-2.4 -8.05,-2.9 -4.3,-0.45 -8.7,0.75 -6.9,1.9 -10.95,6.55 -2.25,2.55 -4.2,7 l -0.4,0.9 q -1,2.35 -0.9,4.05 0.15,2.35 2.05,4.5 3.5,4 11.6,5.4 l 10.25,0.85 q -4.9,2.25 -8.25,2.5 l -7.15,-0.75 -0.4,-0.05 -3.9,-1.05 -2.5,-1.1 -0.6,0.3 -1.65,0.85 -1.6,0.95 q -1.75,1.3 -1.9,3 l 0.35,1.8 q 0.6,1.2 2.15,2.2 1.45,0.95 3.6,1.55 l 3.9,0.75 q 19.15,2.9 33.15,1.1 l 3.9,-0.3 2.1,0.3 q 0.35,-0.8 1.2,-0.9 0.65,-0.05 1.35,0.5 l 1.15,1.05 q 1.35,1.15 4.65,1.15 l 9.4,-0.65 q 9.3,-1.2 13.65,-5.4 0.95,-0.9 1.3,-1.8 0.4,-1.4 -0.55,-2.7 Q -7.2,18.9 -8.8,18.4 l -1.15,-0.25 -0.7,1.35 -1.35,1.9 q -0.95,1.25 -1.8,1.65 -0.85,0.3 -1.2,-0.15 -0.25,-0.35 0.05,-1.1 l 0.9,-2.65 0.6,-3.05 q 0.35,-3.3 -1.15,-5.65 -0.85,-1.3 -3,-3.05 -1.3,-1.1 -2.15,-1.35 l -2.1,-0.1 -1.15,-0.1 q -1.5,1.75 -3.5,2.95 l -1.55,0.55 Q -28.7,9.4 -29.15,8.9 -29.7,8.25 -29.25,7.3 l 1.05,-1.35 q 3.75,-3.9 4.6,-8.6 m -31.75,-15.7 q 1.65,-3.3 4.25,-5.7 2.7,-2.6 6,-3.75 3.5,-1.25 7.45,-0.95 6.05,0.5 10.25,4.1 2.2,1.8 4.3,5.05 4.75,7.5 4.25,15.1 -0.2,2.9 -1.25,5.55 l 2.2,0.35 q 1.15,0.4 3.35,2.1 l 2.4,2.15 q 2.65,2.9 3.05,6.7 l 0.1,1.5 q 3.1,0.75 5.15,2.8 2.35,2.45 2.2,5.55 -0.2,4.1 -5.1,7.45 -4.55,3.05 -10.85,4.3 l -11.65,0.95 -5.45,-0.6 q -2.35,-0.8 -3.35,-2.4 l -3.05,0.75 -16.1,1.15 -16.25,-0.85 -8,-1.05 q -4.35,-1 -7.25,-3.15 -3.4,-2.5 -3.95,-5.9 -0.45,-3.35 1.85,-6.15 1.95,-2.3 5.1,-3.45 -2.55,-2.85 -2.95,-6.25 -0.4,-3.05 1.1,-7 1.65,-4.5 4.75,-8.3 3.15,-3.75 7.25,-6.2 4.2,-2.4 9,-3.2 4.9,-0.8 9.55,0.2 l 1.15,0.3 0.5,-1.15 m 12.9,29.45 h 0.4 q 0.9,0.15 1.55,1.15 l 0.2,0.35 0.6,-0.05 2.25,0.05 2.05,-0.45 0.9,-0.45 0.45,0.1 0.25,0.4 -0.35,0.5 q -1.8,1.4 -4.15,2.45 l -1.55,0.5 q 0,0.95 -0.15,1.4 l -0.35,0.85 q -0.75,1.5 -1.3,2 l -1,0.8 -1.25,0.8 -3.05,0.5 -2.45,-0.1 q -1.9,-0.35 -3.45,-1.9 l -0.9,-1.3 q -0.2,-0.65 0,-2.05 l 0.45,-1.55 0.75,-0.85 0.5,-0.55 q 0.35,-0.25 0.7,-0.15 L -51,13.7 q 0.5,0.3 0.4,0.9 l -0.35,0.85 -0.1,0.9 v 0.2 l 0.1,0.6 0.35,0.4 q 1.25,0.95 4,0.85 l 0.9,-0.15 0.85,-0.45 1.15,-0.95 q 0.45,-0.65 0.6,-1.5 l 0.1,-0.6 v -0.3 l -0.4,-1.25 q -0.3,-0.75 -0.2,-1.2 l 0.6,-0.75 0.55,-0.15"
         fill="#000000"
         fill-rule="evenodd"
         stroke="none"
         id="path1" />
      <path
         d="m -82.8,1.85 0.4,-0.9 q 1.95,-4.45 4.2,-7 4.05,-4.65 10.95,-6.55 4.4,-1.2 8.7,-0.75 4.65,0.5 8.05,2.9 1.7,1.25 2.4,0.55 l 0.05,-0.1 q 0.65,-0.75 -0.5,-2.15 l -2.35,-2.6 -0.15,-0.15 0.3,-0.55 0.85,-1.55 q 2.2,-3.8 6.35,-5.55 1.95,-0.8 4,-0.9 l 2.75,0.15 q 3.55,0.5 6.25,2.65 1.9,1.6 3.6,4.1 4.45,6.9 3.4,13.45 l -0.05,0.45 q -0.8,1.2 -2.65,2.85 l -3.25,2.5 q -3.25,1.9 -7.3,1.9 -3.7,-0.05 -7.05,-1.6 l -0.45,0.75 q -1.8,2.9 -6.35,4.55 -8.75,3.2 -21.1,0.55 Q -77.3,7.6 -79.85,5.6 -81.7,4.2 -82.65,2.2 L -82.8,1.85 m 54.75,7.5 1.55,-0.55 q 2,-1.2 3.5,-2.95 l 1.15,0.1 2.1,0.1 q 0.85,0.25 2.15,1.35 2.15,1.75 3,3.05 1.5,2.35 1.15,5.65 l -0.6,3.05 -1.4,0.65 q -2.4,0.75 -5.55,-0.05 -2.85,-0.75 -4.75,-2.35 -2.2,-2 -2.6,-4.6 l 0.15,-2.75 0.15,-0.7 M -87.4,23.1 -87.75,21.3 q 0.15,-1.7 1.9,-3 l 1.6,-0.95 1.65,-0.85 0.6,-0.3 2.5,1.1 3.9,1.05 q -0.2,1 -1,1.85 -1,1.05 -3.4,1.85 l -3.35,1.1 -2.25,0.2 -1.8,-0.25 m 36.05,-9.55 0.2,-1.45 q 0.25,-0.8 1.6,-1.85 l 1.15,-0.7 q 1.1,-0.5 2.2,-0.5 2.55,0 3.55,1.65 l 0.2,0.4 -0.55,0.15 -0.6,0.75 q -0.1,0.45 0.2,1.2 l 0.4,1.25 v 0.3 l -0.95,1.2 -1.1,0.75 -1.15,0.5 -1.4,0.05 -2.45,-0.15 -1,-0.75 0.1,-0.9 0.35,-0.85 Q -50.5,14 -51,13.7 l -0.35,-0.15"
         fill="#c39a9a"
         fill-rule="evenodd"
         stroke="none"
         id="path2" />
      <path
         d="m -82.8,1.85 0.15,0.35 q 0.95,2 2.8,3.4 2.55,2 8.1,3.25 12.35,2.65 21.1,-0.55 4.55,-1.65 6.35,-4.55 L -43.85,3 q 3.35,1.55 7.05,1.6 4.05,0 7.3,-1.9 l 3.25,-2.5 q 1.85,-1.65 2.65,-2.85 -0.85,4.7 -4.6,8.6 l -1.05,1.35 q -0.45,0.95 0.1,1.6 0.45,0.5 1.1,0.45 l -0.15,0.7 -0.15,2.75 q 0.4,2.6 2.6,4.6 1.9,1.6 4.75,2.35 3.15,0.8 5.55,0.05 l 1.4,-0.65 -0.9,2.65 q -0.3,0.75 -0.05,1.1 0.35,0.45 1.2,0.15 0.85,-0.4 1.8,-1.65 l 1.35,-1.9 0.7,-1.35 1.15,0.25 q 1.6,0.5 2.35,1.55 0.95,1.3 0.55,2.7 -0.35,0.9 -1.3,1.8 -4.35,4.2 -13.65,5.4 l -9.4,0.65 q -3.3,0 -4.65,-1.15 l -1.15,-1.05 q -0.7,-0.55 -1.35,-0.5 -0.85,0.1 -1.2,0.9 l -2.1,-0.3 -3.9,0.3 q -14,1.8 -33.15,-1.1 l -3.9,-0.75 q -2.15,-0.6 -3.6,-1.55 -1.55,-1 -2.15,-2.2 l 1.8,0.25 2.25,-0.2 3.35,-1.1 q 2.4,-0.8 3.4,-1.85 0.8,-0.85 1,-1.85 l 0.4,0.05 7.15,0.75 q 3.35,-0.25 8.25,-2.5 L -70.05,15.8 q -8.1,-1.4 -11.6,-5.4 -1.9,-2.15 -2.05,-4.5 -0.1,-1.7 0.9,-4.05 m 31.45,11.7 q -0.35,-0.1 -0.7,0.15 l -0.5,0.55 -0.75,0.85 -0.45,1.55 q -0.2,1.4 0,2.05 l 0.9,1.3 q 1.55,1.55 3.45,1.9 l 2.45,0.1 3.05,-0.5 1.25,-0.8 1,-0.8 q 0.55,-0.5 1.3,-2 L -40,17.05 q 0.15,-0.45 0.15,-1.4 l 1.55,-0.5 q 2.35,-1.05 4.15,-2.45 l 0.35,-0.5 -0.25,-0.4 -0.45,-0.1 -0.9,0.45 -2.05,0.45 -2.25,-0.05 -0.6,0.05 -0.2,-0.35 q -0.65,-1 -1.55,-1.15 h -0.4 l -0.2,-0.4 q -1,-1.65 -3.55,-1.65 -1.1,0 -2.2,0.5 l -1.15,0.7 q -1.35,1.05 -1.6,1.85 l -0.2,1.45 m 8.35,1.2 -0.1,0.6 q -0.15,0.85 -0.6,1.5 l -1.15,0.95 -0.85,0.45 -0.9,0.15 q -2.75,0.1 -4,-0.85 l -0.35,-0.4 -0.1,-0.6 v -0.2 l 1,0.75 2.45,0.15 1.4,-0.05 1.15,-0.5 1.1,-0.75 0.95,-1.2"
         fill="#a88585"
         fill-rule="evenodd"
         stroke="none"
         id="path3" />
    </g>
    <g
       id="sprite1"
       transform="translate(17.4,15.85)">
      <use
         ffdec:characterId="31"
         height="57.200001"
         transform="matrix(0.5366,0,0,0.5366,-16.6582,-14.546)"
         width="70.75"
         xlink:href="#sprite2"
         id="use3" />
    </g>
    <g
       id="sprite2"
       transform="translate(-8.65,-10.35)">
      <use
         ffdec:characterId="30"
         height="57.200001"
         transform="translate(8.65,10.35)"
         width="70.75"
         xlink:href="#shape1"
         id="use4" />
    </g>
    <g
       id="shape1"
       transform="translate(-8.65,-10.35)">
      <path
         d="m 14.8,41.7 q 0.65,-1.75 2.65,-2.5 1.8,-0.8 3.7,-0.25 1.15,0.45 2.25,1.2 l 0.9,0.4 q 1.65,0.9 2.85,2.5 L 37.8,30.1 q 2.35,-2.8 3.75,-3.95 1.5,-1.15 4.25,-2.4 18.2,-8.85 27.65,-12.6 2.15,-0.8 3.25,-0.8 h 0.8 l 1.9,2.4 -0.2,0.8 q -0.2,1.1 -1.55,3 -5.85,8.25 -18.85,23.8 -1.85,2.35 -3.35,3.5 -1.4,1.15 -4.75,2.75 l -15.15,7.15 q 1.2,1.6 1.75,3.4 l 0.2,1 0.55,2.5 q 0.1,1.95 -1.1,3.55 -1.2,1.65 -3.05,1.9 l -1.3,0.05 q -1.65,0.2 -3.45,-0.65 -1.85,-0.9 -3,-2.6 L 25,60.95 23.8,62.1 q -2.6,2.85 -4.3,3.95 -2.85,1.8 -5.5,1.45 l -1.65,-0.5 -1.2,-0.7 -0.2,-0.2 q -1,-0.85 -1.6,-1.9 L 9.25,64 9.15,63.8 8.75,62.4 q -0.2,-0.8 -0.05,-1.7 0.25,-2.65 2.7,-5.05 1.5,-1.3 4.9,-3.15 L 17.7,51.55 16.05,50 q -1.35,-1.5 -1.8,-3.6 -0.4,-1.85 0.25,-3.45 l 0.3,-1.25"
         fill="#000000"
         fill-opacity="0.372549"
         fill-rule="evenodd"
         stroke="none"
         id="path4" />
    </g>
  </defs>
</svg>
