<?xml version="1.0" encoding="UTF-8" standalone="no"?>
<svg
   ffdec:objectType="frame"
   height="65.807289"
   width="55.019737"
   version="1.1"
   id="svg6"
   xmlns:xlink="http://www.w3.org/1999/xlink"
   xmlns="http://www.w3.org/2000/svg"
   xmlns:svg="http://www.w3.org/2000/svg"
   xmlns:ffdec="https://www.free-decompiler.com/flash">
  <g
     transform="translate(24.694737,27.797059)"
     id="g1">
    <use
       ffdec:characterId="17"
       height="119.15"
       id="rarity"
       transform="translate(-58.5,-60.65)"
       width="119.15"
       xlink:href="#sprite0" />
    <use
       ffdec:characterId="622"
       height="116.1"
       id="part_0"
       transform="translate(-55.25,-53.95)"
       width="118.25"
       xlink:href="#sprite1" />
  </g>
  <defs
     id="defs6">
    <g
       id="sprite1"
       transform="translate(30.55,26.15)">
      <clipPath
         id="clipPath0">
        <path
           d="m 32.9,6.6 -1.25,0.1 -14.25,4.65 -0.4,0.14 -0.36,0.14 -0.34,0.15 -0.3,0.15 -0.27,0.15 -0.24,0.15 -0.21,0.16 -0.18,0.16 -0.14,0.19 -0.13,0.23 -0.12,0.27 -0.12,0.32 -0.12,0.37 -0.11,0.41 -0.11,0.46 -0.1,0.5 -0.16,0.78 -0.22,0.87 -0.26,0.95 -0.32,1.04 -0.37,1.12 -0.42,1.21 -0.48,1.3 -0.52,1.38 -4.15,10.6 -0.21,0.54 -0.17,0.5 -0.15,0.48 -0.11,0.46 -0.07,0.42 -0.05,0.39 -0.01,0.37 0.02,0.34 0.03,0.21 0.06,0.24 0.07,0.26 0.09,0.29 0.24,0.65 0.31,0.75 5.7,11.85 1.05,1.8 0.24,0.22 0.28,0.22 0.33,0.21 0.37,0.2 0.43,0.2 0.47,0.19 0.52,0.18 0.56,0.18 9.05,2.7 1.7,0.25 1.35,-0.75 2.07,-1.47 2.07,-1.51 2.08,-1.55 2.08,-1.58 2.09,-1.63 2.1,-1.66 2.1,-1.71 2.11,-1.74 0.37,-0.31 0.34,-0.31 0.3,-0.3 0.28,-0.29 0.24,-0.29 0.2,-0.29 0.18,-0.28 0.14,-0.28 0.09,-0.25 0.08,-0.29 0.06,-0.33 0.05,-0.38 0.02,-0.42 0.02,-0.47 v -0.51 l -0.02,-0.55 -0.02,-1.54 0.01,-1.5 0.05,-1.48 0.07,-1.44 0.11,-1.42 0.15,-1.39 0.17,-1.35 0.21,-1.33 V 26.8 L 48.3,25.55 44.2,21.8 43.63,21.26 43.08,20.72 42.57,20.2 42.09,19.69 41.63,19.19 41.21,18.7 40.81,18.22 40.45,17.75 40.16,17.35 39.83,16.88 39.47,16.33 39.08,15.7 38.18,14.23 37.15,12.45 36.66,11.6 36.18,10.81 35.73,10.08 35.29,9.4 34.86,8.78 34.46,8.21 34.07,7.7 33.7,7.25 33.52,7.02 33.42,6.92 33.33,6.84 33.22,6.76 33.12,6.7 33.01,6.64 Z"
           id="path1" />
      </clipPath>
      <g
         clip-path="url(#clipPath0)"
         id="g2">
        <use
           ffdec:characterId="336"
           height="116.1"
           id="bg"
           transform="translate(-30.55,-26.15)"
           width="118.25"
           xlink:href="#sprite2" />
      </g>
      <use
         ffdec:characterId="603"
         height="65.800003"
         width="55"
         xlink:href="#shape1"
         id="use2" />
    </g>
    <g
       id="sprite2">
      <use
         ffdec:characterId="327"
         height="116.1"
         width="118.25"
         xlink:href="#shape0"
         id="use3" />
    </g>
    <g
       id="shape0">
      <path
         d="M 0,0 H 118.25 V 116.1 H 0 V 0"
         fill="#5e5e5e"
         fill-rule="evenodd"
         stroke="none"
         id="path3" />
      <path
         d="m 103.5,30.05 -1.1,1.35 -1.75,1.4 -2.9,0.25 -3,-0.55 q -1.7,-0.65 -2.55,-1.6 -1,-1 -1.35,-2.8 -0.2,-1.5 0.2,-3.15 l 0.5,-1.4 1.1,-1.35 q 1.35,-1.35 2.9,-1.55 l 1.3,-0.1 2.4,0.15 2.35,1 1.75,1.45 q 0.4,0.65 0.45,1.7 v 1.8 l 0.05,1.75 -0.35,1.65 M 82.85,14.2 Q 84.1,15 84.2,16.5 L 84,17.65 q -0.35,0.8 -1.1,1.3 -0.75,0.5 -1.6,0.45 -0.85,-0.05 -1.55,-0.55 -0.75,-0.55 -1,-1.35 -0.25,-0.85 0,-1.7 0.25,-0.85 0.9,-1.4 0.65,-0.55 1.55,-0.6 0.9,-0.05 1.65,0.4 m 17.85,50.75 q -0.05,-0.95 0.45,-2.05 0.7,-1.6 2,-2.15 1.15,-0.45 2.8,0 2,0.55 2.7,1.85 0.45,0.75 0.45,2.25 0,1.55 -0.55,2.45 -0.5,0.95 -1.6,1.45 l -2.2,0.35 q -2.3,-0.3 -3.5,-2.5 -0.5,-0.8 -0.55,-1.65 m -28.35,1.7 q 0.5,-1.55 1.85,-2.2 L 76.9,64 q 2.9,0.2 4.1,1.4 1.3,1.2 1.2,3 0,1.6 -1.15,3 -1.35,1.5 -3.3,1.75 l -2.45,-0.3 q -1.25,-0.5 -2.05,-1.45 -0.8,-0.95 -1.05,-2.25 -0.25,-1.3 0.15,-2.5 M 97.8,105.8 q -1,-0.7 -1.3,-1.55 -0.25,-0.7 -0.15,-2.2 0.1,-1.5 0.55,-2.25 0.6,-1 1.9,-1.35 l 2.35,0.05 q 0.95,0.15 1.75,0.7 0.9,0.65 1.2,1.7 0.4,1.25 0.05,2.6 -0.4,1.3 -1.45,2.1 -1.05,0.8 -2.45,0.85 -1.35,0.05 -2.45,-0.65 M 89.5,85.25 q -1.05,-0.4 -1.45,-1.4 -0.5,-1.05 0,-2.05 0.25,-0.7 1.05,-1.25 l 2.65,-0.05 q 1.35,0.75 1.35,2.2 0.1,1.5 -1.2,2.35 -1.2,0.75 -2.4,0.2 M 52.3,12.1 Q 51.15,11.3 51.25,9.85 51.4,8.5 52.75,7.8 l 1,-0.2 q 0.8,0 1.45,0.5 0.7,0.5 0.9,1.25 0.25,0.75 0,1.5 -0.25,0.8 -0.9,1.25 l -1.45,0.45 q -0.85,0 -1.45,-0.45 m -5.15,37.45 q -0.45,3.05 -2.2,4.25 -1.2,0.8 -3.3,0.9 -3.5,0.2 -4.75,-1.8 -0.5,-0.9 -0.6,-2.65 0,-2.1 0.6,-3.4 0.95,-2.4 3.55,-3.15 2.45,-0.75 4.75,0.7 1.4,0.9 1.85,2.35 0.35,1.1 0.1,2.8 M 71.35,46.2 68.7,46.1 q -1.4,-0.7 -1.75,-1.95 l -0.2,-1.65 q 0,-1.2 0.35,-2.1 0.55,-1.35 2,-1.85 1.35,-0.55 2.75,0.25 1.95,1.2 1.95,3.9 0,1.3 -0.55,2.1 -0.7,1.1 -1.9,1.4 M 23.4,22.65 q -0.8,0.95 -2.1,0.85 -1.2,-0.1 -1.9,-0.95 -0.6,-0.65 -0.65,-1.65 -0.05,-0.95 0.5,-1.7 0.55,-0.75 1.45,-1.05 0.9,-0.3 1.75,0 0.55,0.15 0.95,0.55 l 0.6,1.1 q 0.25,0.75 0.1,1.45 -0.15,0.75 -0.7,1.4 M 16.05,43.2 q 1.65,0.7 2.6,2.4 0.95,1.7 0.6,3.45 -0.3,1.55 -1.3,2.75 -1,1.25 -2.25,1.8 l -2.55,0.3 Q 11.8,53.7 10.75,52.95 9.6,52.15 8.95,50.8 8.35,49.5 8.4,48.05 q 0.1,-1.4 0.85,-2.65 0.8,-1.2 2,-1.9 2.3,-1.35 4.8,-0.3 m 6.9,43.05 v -1 q 0.2,-1 1,-1.7 0.85,-0.7 1.85,-0.7 1,0 1.85,0.7 0.85,0.7 1.05,1.65 0.2,1 -0.3,1.95 -0.5,0.95 -1.45,1.35 L 25,88.6 q -1.05,-0.3 -1.6,-1.15 l -0.45,-1.2 M 63.15,56.5 q 1.9,0.1 2.65,1.9 0.3,0.8 0.1,1.65 -0.2,0.9 -0.8,1.5 -0.6,0.6 -1.5,0.8 L 61.9,62.2 q -0.8,-0.35 -1.3,-1.1 -0.5,-0.75 -0.5,-1.6 -0.05,-1.2 0.85,-2.15 0.95,-0.85 2.2,-0.85 m -21.4,15.4 q 1,-0.85 2.3,-0.7 1.35,0.15 2.1,1.15 0.55,0.7 0.65,1.65 l -0.35,1.75 Q 46,76.55 45.15,77 L 43.4,77.35 Q 42.5,77.25 41.75,76.65 41,76 40.8,75.15 q -0.25,-0.85 0,-1.75 0.3,-0.95 0.95,-1.5 M 62.3,89.2 q 1.05,1.2 1.45,2.85 0.4,1.65 0,3.25 -0.45,1.65 -1.7,2.6 -1.4,1.05 -3.6,0.95 Q 56.8,98.8 55.5,98.1 54,97.3 53.4,95.95 52.9,94.8 53.1,92.8 53.3,90.35 54.4,89.05 55.3,88 56.75,87.6 l 3,0.05 q 1.5,0.4 2.55,1.55 m -50.9,18.95 0.05,-0.85 q 0.2,-0.95 1,-1.55 0.75,-0.65 1.7,-0.6 0.95,0.05 1.7,0.7 0.75,0.65 0.95,1.55 0.15,0.95 -0.35,1.8 -0.5,0.85 -1.4,1.2 -0.85,0.35 -1.8,0 -0.95,-0.3 -1.45,-1.1 -0.35,-0.55 -0.4,-1.15"
         fill="#454545"
         fill-rule="evenodd"
         stroke="none"
         id="path4" />
    </g>
    <g
       id="shape1">
      <path
         d="m 31.7,63.9 q -2.6,2.05 -4.35,1.9 -0.85,-0.05 -1.9,-0.6 L 23.7,64.15 q -1.75,-1 -4.65,-1.65 l -4.9,-1.15 q -2.45,-0.8 -3.85,-2 -1.35,-1.2 -3,-4.6 L 2,43.45 0.45,39.6 Q -0.2,37.4 0.1,35.6 0.3,34.2 1.95,31.05 3.5,27.9 4.85,23.8 l 2.3,-7.45 Q 8,13.6 8.15,11.75 L 8.25,10.3 Q 8.35,9.4 8.6,8.85 9.15,7.55 10.65,6.65 11.7,6.1 13.6,5.5 L 29.15,0.85 q 3.7,-1.2 5.75,-0.7 2.6,0.7 4.45,3.6 l 1.4,2.55 1.2,2.65 q 3.25,6.7 9.35,11.2 2.45,1.8 3.05,2.85 0.9,1.55 0.6,4.95 l -0.7,5.3 q -0.35,3.1 -0.3,5.35 l 0.2,3.35 q 0,1.95 -0.5,3.25 -0.55,1.45 -1.9,2.85 L 49.1,50.35 31.7,63.9 M 46.05,45.05 Q 47.6,43.8 48.1,42.7 48.5,41.8 48.4,39.5 48.25,33.3 49.15,28.05 V 26.8 L 48.3,25.55 44.2,21.8 q -2.35,-2.2 -3.75,-4.05 -1.1,-1.45 -3.3,-5.3 -2,-3.5 -3.45,-5.2 Q 33.35,6.75 32.9,6.6 L 31.65,6.7 17.4,11.35 q -1.65,0.55 -2.3,1.2 -0.55,0.65 -0.95,2.75 -0.55,2.95 -2.75,8.65 l -4.15,10.6 q -0.9,2.2 -0.75,3.5 0.1,0.8 0.8,2.4 l 5.7,11.85 1.05,1.8 q 0.85,0.9 3.2,1.6 l 9.05,2.7 1.7,0.25 1.35,-0.75 q 8.25,-5.8 16.7,-12.85"
         fill="#000000"
         fill-rule="evenodd"
         stroke="none"
         id="path5" />
    </g>
    <g
       id="sprite3"
       transform="translate(17.4,15.85)">
      <use
         ffdec:characterId="31"
         height="57.200001"
         transform="matrix(0.5366,0,0,0.5366,-16.6582,-14.546)"
         width="70.75"
         xlink:href="#sprite4"
         id="use5" />
    </g>
    <g
       id="sprite4"
       transform="translate(-8.65,-10.35)">
      <use
         ffdec:characterId="30"
         height="57.200001"
         transform="translate(8.65,10.35)"
         width="70.75"
         xlink:href="#shape2"
         id="use6" />
    </g>
    <g
       id="shape2"
       transform="translate(-8.65,-10.35)">
      <path
         d="m 14.8,41.7 q 0.65,-1.75 2.65,-2.5 1.8,-0.8 3.7,-0.25 1.15,0.45 2.25,1.2 l 0.9,0.4 q 1.65,0.9 2.85,2.5 L 37.8,30.1 q 2.35,-2.8 3.75,-3.95 1.5,-1.15 4.25,-2.4 18.2,-8.85 27.65,-12.6 2.15,-0.8 3.25,-0.8 h 0.8 l 1.9,2.4 -0.2,0.8 q -0.2,1.1 -1.55,3 -5.85,8.25 -18.85,23.8 -1.85,2.35 -3.35,3.5 -1.4,1.15 -4.75,2.75 l -15.15,7.15 q 1.2,1.6 1.75,3.4 l 0.2,1 0.55,2.5 q 0.1,1.95 -1.1,3.55 -1.2,1.65 -3.05,1.9 l -1.3,0.05 q -1.65,0.2 -3.45,-0.65 -1.85,-0.9 -3,-2.6 L 25,60.95 23.8,62.1 q -2.6,2.85 -4.3,3.95 -2.85,1.8 -5.5,1.45 l -1.65,-0.5 -1.2,-0.7 -0.2,-0.2 q -1,-0.85 -1.6,-1.9 L 9.25,64 9.15,63.8 8.75,62.4 q -0.2,-0.8 -0.05,-1.7 0.25,-2.65 2.7,-5.05 1.5,-1.3 4.9,-3.15 L 17.7,51.55 16.05,50 q -1.35,-1.5 -1.8,-3.6 -0.4,-1.85 0.25,-3.45 l 0.3,-1.25"
         fill="#000000"
         fill-opacity="0.372549"
         fill-rule="evenodd"
         stroke="none"
         id="path6" />
    </g>
  </defs>
</svg>
