<?xml version="1.0" encoding="UTF-8" standalone="no"?>
<svg
   ffdec:objectType="frame"
   height="54.515789"
   width="76.875984"
   version="1.1"
   id="svg6"
   xmlns:xlink="http://www.w3.org/1999/xlink"
   xmlns="http://www.w3.org/2000/svg"
   xmlns:svg="http://www.w3.org/2000/svg"
   xmlns:ffdec="https://www.free-decompiler.com/flash">
  <g
     transform="translate(40.066667,27.215789)"
     id="g1">
    <use
       ffdec:characterId="17"
       height="119.15"
       id="rarity"
       transform="translate(-58.5,-60.65)"
       width="119.15"
       xlink:href="#sprite0" />
    <use
       ffdec:characterId="1048"
       height="54.549999"
       transform="translate(-40.05,-27.2)"
       width="76.849998"
       xlink:href="#shape0"
       id="use1" />
  </g>
  <defs
     id="defs6">
    <g
       id="shape0"
       transform="translate(86.85,28.55)">
      <path
         d="m -78,19.55 -1.15,-0.45 q -3.2,-1.25 -4.9,-2.75 -1.65,-1.45 -2.4,-3.5 -0.75,-2.2 -0.15,-4.2 0.55,-1.75 2.1,-3 1.55,-1.2 3.45,-1.45 h 3.65 l 4,0.1 q 1.05,0 1.45,-0.4 0.35,-0.4 0.25,-1.5 l -0.7,-3.55 -0.7,-3.6 q -0.85,-7.1 2.8,-12.9 1.85,-2.85 4.65,-4.85 2.8,-2 6.1,-2.7 3,-0.65 5.65,0 2.45,0.55 5.1,2.4 2.9,2.05 4.65,4.85 1.9,3 2.05,6.2 0.1,2.35 -0.75,4.6 -0.85,2.25 -2.5,3.9 -3.5,3.55 -8.45,3.4 l 0.1,4.45 q -0.1,2.4 -0.7,4.25 -0.7,1.95 -2.35,4.3 -1.7,2.35 -3.35,3.65 l -0.7,0.5 q -1.75,1.15 -5.5,2.25 -3.95,1.15 -6.35,1.1 -2.4,-0.05 -5.35,-1.1 m 22.95,-38.4 -0.4,-0.1 q -2.35,-0.45 -5.2,0.95 -2.15,1.15 -3.7,3.15 l -1.25,2.1 q -0.5,1.55 -0.4,3.25 l 0.3,1.65 0.35,0.8 0.95,1.3 1.25,0.9 0.45,0.25 1.75,0.85 0.75,0.3 1.3,0.25 q 0.75,-1.55 3,-2.2 l 2.2,-0.4 2.2,-0.6 q 1.4,-0.55 2.3,-1.9 0.9,-1.3 0.95,-2.75 v -0.05 q 0.05,-3.65 -3.9,-6.4 -1.6,-1.05 -2.9,-1.35 m -7.05,18.75 -1.1,-0.45 -0.8,-0.35 -2,-1.15 0.4,2.4 0.2,1.55 q 0.2,2.85 -0.85,4.85 l -0.1,0.25 0.35,0.2 1.1,0.3 1.2,0.25 1.65,0.15 0.95,-0.15 0.9,-0.05 q 1.05,-2.9 0.85,-6.9 V 0.5 l -0.75,-0.05 -2,-0.55 m 4.25,-7.5 -0.7,-0.65 q -0.85,-0.95 -0.95,-2.2 l -0.05,-0.7 0.2,-1.15 0.5,-0.9 q 1.2,-1.95 2.65,-2.45 l 2.2,-0.2 1.55,0.3 1.2,0.95 0.75,1.05 0.25,1.1 q 0.25,1.15 0.15,1.95 l -0.1,0.3 -0.4,0.95 -0.55,0.95 q -0.65,0.85 -1.85,1.2 l -2.2,0.25 -1.3,-0.1 q -0.75,-0.2 -1.35,-0.65 m 6.25,-3.65 0.3,-0.6 0.15,-0.55 q 0.05,-0.6 -0.35,-1 l -1.05,-0.2 -0.8,0.85 -0.15,1.2 0.05,0.75 0.55,0.5 q 0.5,0.1 1,-0.5 l 0.3,-0.45 m -3.95,0.8 q 0.45,-0.25 0.7,-0.8 l 0.1,-1.05 q -0.1,-0.7 -0.35,-1.15 L -56,-14.1 q -0.65,-0.1 -1,0.35 -0.4,0.35 -0.4,0.95 l 0.25,1 0.5,1.1 q 0.4,0.5 1.1,0.25 m 26.85,-0.3 0.45,-1.35 0.55,-0.9 -1.55,0.15 h -2.5 l -1.65,-0.15 0.2,0.45 0.95,1.15 0.8,0.45 0.65,0.3 2,0.8 0.1,-0.9 m 11.25,-2.3 -1.5,-1.05 -3.05,-0.25 -1.95,0.5 -0.5,0.4 -1,1.55 -0.35,0.55 -0.2,0.55 -0.1,0.6 v 0.2 l 0.3,-0.3 q 1,-0.7 1.9,-0.55 l 0.3,0.1 q 1.15,0.45 1.25,1.85 l -0.05,0.8 3.1,0.35 1.4,0.6 1.15,0.7 0.3,0.35 0.05,0.05 0.05,-0.1 q 0.6,-2.5 0.2,-4.3 -0.25,-1.2 -0.95,-2.2 l -0.35,-0.4 M -48.8,11.35 Q -49.35,9.3 -48.9,7 q 0.8,-4 4.1,-6.95 2.55,-2.3 5.7,-3 l 1.75,-0.85 1.35,-0.35 0.15,-0.1 2.65,-1.15 -0.1,-0.05 q -1.3,-0.5 -2.25,-1.1 -1.3,-0.95 -2.4,-2.85 -2.35,-3.9 -1.55,-7.15 0.45,-1.65 1.55,-2.5 0.7,-0.5 1.45,-0.55 l 0.85,-0.25 1.5,0.35 1.45,0.6 3.5,0.25 3.55,-0.85 8.15,-0.3 q 3.05,0.9 5.15,3.8 2,2.75 2.3,6.1 0.55,6.2 -4,12.25 L -15,3.9 l -0.15,2 q -0.1,2.3 -1.35,4.45 -1.2,2.05 -3.15,3.55 -3,2.35 -8.5,4 L -30.5,18.55 -40,19 q -3.1,-0.65 -5.45,-2.55 -2.55,-2.05 -3.3,-4.85 l -0.05,-0.25 m 22.4,-11.45 -4.1,-0.4 -1.7,0.1 -5.4,1.7 -2.6,2.2 -0.2,0.2 Q -42,5.45 -42.5,6.85 L -42.55,7 q -0.65,1.95 0.25,3.55 l 0.15,0.25 0.85,0.8 q 0.85,0.65 2.15,1 2.75,0.75 6.2,0.1 2.45,-0.45 6.1,-1.85 3.4,-1.35 4.55,-2.7 1.4,-1.7 1.3,-3.8 l -0.05,-0.45 -0.7,-1.3 -0.45,-0.45 -0.4,-0.3 -1.8,-1.2 q -0.85,-0.45 -2,-0.75 m -11.9,3.2 q 0.7,-0.4 1.6,-0.55 l 0.75,-0.1 3,-0.25 3,-0.2 h 2.75 q 0.7,0.2 1.4,1.15 0.6,0.9 0.7,1.4 0.1,0.5 -0.1,1.4 -0.2,1 -0.5,1.45 l -1,1.05 q -2.15,1.6 -5.9,1.95 -3.85,0.35 -6.3,-0.9 l -1.2,-0.9 -0.1,-0.15 q -0.55,-0.8 -0.55,-1.85 0.1,-1.1 0.7,-1.95 l 1.25,-1.3 0.5,-0.25 m 20.35,-7.4 -1.1,-0.55 -0.8,-0.3 -1.5,0.05 -2.6,0.15 -0.5,0.15 q -0.55,0.5 -1.2,1.05 h 0.1 q 2,0.5 3.7,2.05 l 1,1.05 0.5,0.6 0.2,-0.25 1.2,-1.05 q 1.05,-1.05 1.8,-2.55 l -0.8,-0.4 m -13.65,10.6 -0.5,0.35 -0.25,1.15 0.2,0.65 0.45,0.35 q 0.5,0.2 0.85,0 l 0.55,-0.65 0.05,-0.85 -0.2,-0.6 q -0.5,-0.55 -1.15,-0.4 m 3.95,-2.65 q -0.35,-0.45 -1,-0.45 -0.65,0 -0.95,0.55 l -0.3,1.15 q -0.1,1.2 0.5,1.75 l 1.55,0.05 q 0.6,-0.5 0.6,-1.8 -0.1,-0.9 -0.4,-1.25 m -6.15,4.5 -0.35,-0.55 -0.6,-0.3 -0.05,0.05 q -0.45,0 -0.75,0.4 l -0.1,0.8 0.1,0.25 0.45,0.35 h 0.7 l 0.35,-0.3 q 0.35,-0.3 0.25,-0.7 m -2.7,-3.8 q -0.4,-0.3 -0.95,-0.25 l -0.9,0.3 q -0.45,0.35 -0.6,0.95 -0.35,1.25 0.4,1.95 0.4,0.4 1,0.35 0.65,-0.05 1,-0.45 l 0.4,-0.6 q 0.4,-0.75 0.25,-1.3 -0.1,-0.65 -0.6,-0.95 m -37.2,8.05 -0.1,1.25 0.1,0.7 0.05,0.35 h 1.15 q 2.3,0 5.1,-0.85 2.75,-0.8 4.35,-2.15 l 0.65,-0.55 -0.8,-0.1 -3.1,-0.65 -1.15,-0.4 -0.3,-0.15 -0.6,-0.65 q -0.7,0.5 -1.6,0.8 l -2.45,0.45 -0.4,0.05 -0.75,1.45 -0.15,0.45 m -2.05,0.15 V 12.3 l 0.15,-0.55 0.15,-0.95 0.1,-0.35 -4.45,-0.1 -0.5,0.1 q -0.25,0.25 0.1,0.8 l 0.7,1.1 1.35,1.35 q 0.85,0.55 2.15,0.7 l 0.4,0.1 -0.1,-0.85 -0.05,-1.1"
         fill="#000000"
         fill-rule="evenodd"
         stroke="none"
         id="path1" />
      <path
         d="m -63.15,-4.85 -1.25,-0.9 -0.95,-1.3 -0.35,-0.8 -0.3,-1.65 q -0.1,-1.7 0.4,-3.25 l 1.25,-2.1 q 1.55,-2 3.7,-3.15 2.85,-1.4 5.2,-0.95 l 0.4,0.1 q -0.35,0.75 -1.5,1.5 l -3.35,2.4 -1.55,1.35 q -0.95,1.1 -1.3,3.25 l -0.2,3.55 -0.2,1.95 m -0.85,3.95 -0.4,1.1 -0.65,1.35 -0.35,0.35 -0.2,-1.55 -0.4,-2.4 2,1.15 m 8.45,-9.55 q -0.7,0.25 -1.1,-0.25 l -0.5,-1.1 -0.25,-1 q 0,-0.6 0.4,-0.95 0.35,-0.45 1,-0.35 l 0.9,0.65 q 0.25,0.45 0.35,1.15 l -0.1,1.05 q -0.25,0.55 -0.7,0.8 m 3.95,-0.8 -0.3,0.45 q -0.5,0.6 -1,0.5 l -0.55,-0.5 -0.05,-0.75 0.15,-1.2 0.8,-0.85 1.05,0.2 q 0.4,0.4 0.35,1 l -0.15,0.55 -0.3,0.6 m 20.15,0.3 -0.8,-0.45 -0.95,-1.15 -0.2,-0.45 1.65,0.15 h 2.5 l 1.55,-0.15 -0.55,0.9 -0.45,1.35 -2.1,-0.1 -0.65,-0.1 m 5.45,0.15 0.2,-0.55 0.35,-0.55 1,-1.55 0.5,-0.4 1.95,-0.5 3.05,0.25 1.5,1.05 q -0.25,0.2 -0.6,0.35 -0.6,0.35 -1.9,0.75 l -2.9,0.45 -2.05,0.5 -1.1,0.2 m -14.2,14.3 2.6,-2.2 5.4,-1.7 1.7,-0.1 4.1,0.4 q -1.4,0.8 -3.2,1.25 l -3.85,0.65 -1.35,0.25 -1.9,0.5 q -0.9,0.15 -1.6,0.55 l -0.55,0.15 -1.35,0.25 m 12.55,0.15 q 0.3,0.35 0.4,1.25 0,1.3 -0.6,1.8 L -29.4,6.65 Q -30,6.1 -29.9,4.9 l 0.3,-1.15 q 0.3,-0.55 0.95,-0.55 0.65,0 1,0.45 M -31.6,6.3 q 0.65,-0.15 1.15,0.4 l 0.2,0.6 -0.05,0.85 -0.55,0.65 q -0.35,0.2 -0.85,0 l -0.45,-0.35 -0.2,-0.65 0.25,-1.15 0.5,-0.35 m -4.9,-1.95 q 0.5,0.3 0.6,0.95 0.15,0.55 -0.25,1.3 l -0.4,0.6 q -0.35,0.4 -1,0.45 -0.6,0.05 -1,-0.35 -0.75,-0.7 -0.4,-1.95 0.15,-0.6 0.6,-0.95 l 0.9,-0.3 q 0.55,-0.05 0.95,0.25 m 2.7,3.8 q 0.1,0.4 -0.25,0.7 l -0.35,0.3 h -0.7 l -0.45,-0.35 -0.1,-0.25 0.1,-0.8 q 0.3,-0.4 0.75,-0.4 l 0.05,-0.05 0.6,0.3 0.35,0.55"
         fill="#ffffff"
         fill-rule="evenodd"
         stroke="none"
         id="path2" />
      <path
         d="m -48.25,-11.05 q -0.05,1.45 -0.95,2.75 -0.9,1.35 -2.3,1.9 l -2.2,0.6 -2.2,0.4 q -2.25,0.65 -3,2.2 l -1.3,-0.25 -0.75,-0.3 q 1.1,-2.65 3.05,-3.85 h 0.05 q 0.6,0.45 1.35,0.65 l 1.3,0.1 2.2,-0.25 q 1.2,-0.35 1.85,-1.2 l 0.55,-0.95 0.4,-0.95 0.1,-0.3 0.7,-0.35 1.15,-0.2 M -64.9,7.5 q 1.4,-2.05 2.25,-5 l 0.55,-2.6 2,0.55 0.75,0.05 v 0.3 q 0.2,4 -0.85,6.9 L -61.1,7.75 -62.05,7.9 -63.7,7.75 -64.9,7.5 m 48.55,-13.65 -0.05,0.1 -0.05,-0.05 0.1,-0.05 m -5.85,8.3 0.45,0.45 0.7,1.3 0.05,0.45 q 0.1,2.1 -1.3,3.8 -1.15,1.35 -4.55,2.7 -3.65,1.4 -6.1,1.85 -3.45,0.65 -6.2,-0.1 -1.3,-0.35 -2.15,-1 l -0.85,-0.8 -0.15,-0.25 Q -43.2,8.95 -42.55,7 l 0.25,0.05 0.8,0.5 0.8,0.6 0.5,0.3 0.1,0.15 1.2,0.9 q 2.45,1.25 6.3,0.9 3.75,-0.35 5.9,-1.95 l 1,-1.05 q 2,-1 2.8,-2.75 l 0.7,-2.5 m 1.35,-2.8 1.6,-2.15 1.3,-1.5 0.8,0.4 q -0.75,1.5 -1.8,2.55 l -1.2,1.05 -0.2,0.25 -0.5,-0.6 m -46.6,10.65 1.15,0.4 3.1,0.65 0.8,0.1 -0.65,0.55 q -1.6,1.35 -4.35,2.15 -2.8,0.85 -5.1,0.85 h -1.15 l -0.05,-0.35 -0.1,-0.7 0.1,-1.25 2.85,-0.7 q 1.95,-0.75 3.4,-1.7 m -12.05,2.35 3.75,0.2 0.05,1.1 0.1,0.85 -0.4,-0.1 q -1.3,-0.15 -2.15,-0.7 l -1.35,-1.35"
         fill="#131313"
         fill-rule="evenodd"
         stroke="none"
         id="path3" />
      <path
         d="m -63.15,-4.85 0.2,-1.95 0.2,-3.55 q 0.35,-2.15 1.3,-3.25 l 1.55,-1.35 3.35,-2.4 q 1.15,-0.75 1.5,-1.5 1.3,0.3 2.9,1.35 3.95,2.75 3.9,6.4 v 0.05 l -1.15,0.2 -0.7,0.35 q 0.1,-0.8 -0.15,-1.95 l -0.25,-1.1 -0.75,-1.05 -1.2,-0.95 -1.55,-0.3 -2.2,0.2 q -1.45,0.5 -2.65,2.45 l -0.5,0.9 -0.2,1.15 0.05,0.7 q 0.1,1.25 0.95,2.2 l 0.7,0.65 h -0.05 q -1.95,1.2 -3.05,3.85 l -1.75,-0.85 -0.45,-0.25 m -0.85,3.95 0.8,0.35 1.1,0.45 -0.55,2.6 q -0.85,2.95 -2.25,5 L -66,7.2 -66.35,7 l 0.1,-0.25 q 1.05,-2 0.85,-4.85 l 0.35,-0.35 0.65,-1.35 0.4,-1.1 m 32.55,-10.05 0.65,0.1 2.1,0.1 -0.1,0.9 -2,-0.8 -0.65,-0.3 m 5.45,0.15 1.1,-0.2 2.05,-0.5 2.9,-0.45 q 1.3,-0.4 1.9,-0.75 0.35,-0.15 0.6,-0.35 l 0.35,0.4 q 0.7,1 0.95,2.2 0.4,1.8 -0.2,4.3 l -0.1,0.05 -0.3,-0.35 -1.15,-0.7 -1.4,-0.6 -3.1,-0.35 0.05,-0.8 q -0.1,-1.4 -1.25,-1.85 l -0.3,-0.1 q -0.9,-0.15 -1.9,0.55 l -0.3,0.3 v -0.2 l 0.1,-0.6 m -14.2,14.3 1.35,-0.25 0.55,-0.15 -0.5,0.25 -1.25,1.3 q -0.6,0.85 -0.7,1.95 0,1.05 0.55,1.85 l -0.5,-0.3 -0.8,-0.6 -0.8,-0.5 L -42.55,7 -42.5,6.85 q 0.5,-1.4 2.1,-3.15 l 0.2,-0.2 m 3.5,-0.95 1.9,-0.5 1.35,-0.25 3.85,-0.65 q 1.8,-0.45 3.2,-1.25 1.15,0.3 2,0.75 l 1.8,1.2 0.4,0.3 -0.7,2.5 q -0.8,1.75 -2.8,2.75 0.3,-0.45 0.5,-1.45 0.2,-0.9 0.1,-1.4 -0.1,-0.5 -0.7,-1.4 Q -26.5,2.2 -27.2,2 h -2.75 l -3,0.2 -3,0.25 -0.75,0.1 m 15.85,-3.2 -1,-1.05 q -1.7,-1.55 -3.7,-2.05 h -0.1 q 0.65,-0.55 1.2,-1.05 l 0.5,-0.15 2.6,-0.15 1.5,-0.05 0.8,0.3 1.1,0.55 -1.3,1.5 -1.6,2.15 M -67.45,10 q -1.45,0.95 -3.4,1.7 l -2.85,0.7 0.15,-0.45 0.75,-1.45 0.4,-0.05 2.45,-0.45 q 0.9,-0.3 1.6,-0.8 l 0.6,0.65 0.3,0.15 m -12.05,2.35 -0.7,-1.1 q -0.35,-0.55 -0.1,-0.8 l 0.5,-0.1 4.45,0.1 -0.1,0.35 -0.15,0.95 -0.15,0.55 v 0.25 l -3.75,-0.2"
         fill="#1a1a1a"
         fill-rule="evenodd"
         stroke="none"
         id="path4" />
      <path
         d="m -78.85,-7.8 q -0.35,0.4 -1.05,0.8 l -1,0.45 q -1.6,0.45 -2.8,-0.85 -1.05,-1.05 -0.95,-2.8 l 0.4,-1.45 0.8,-1.05 1.15,-0.95 1.3,-0.55 1.3,-0.55 2.3,-0.25 1.9,0.3 q 1.05,0.45 1.35,1.3 0.25,0.55 -0.05,1 l -0.95,0.6 -1.2,0.45 q 0.05,0.75 -0.7,1.4 l -1.15,1.15 -0.65,1 m 18.75,24.6 q 0.85,0.5 1.25,1.25 0.6,1.4 -0.3,2.8 -0.7,1.15 -2.2,1.8 l -2.85,0.75 -8.75,1.35 -2.45,-0.3 q -1.05,-0.25 -1.75,-0.7 -1.3,-0.9 -1.4,-2.45 0,-1.1 0.55,-1.75 2.95,1.05 5.35,1.1 2.4,0.05 6.35,-1.1 3.75,-1.1 5.5,-2.25 l 0.7,-0.5 m -10.1,-45.3 q 1.15,-0.25 1.85,0.45 0.8,0.75 0.65,1.8 -0.15,0.7 -0.95,1.5 l -1.25,1.4 -0.55,1.45 q -0.45,1.1 -1.05,0.95 -0.55,-0.05 -0.75,-1.05 l -0.4,-1.9 -0.2,-1.35 q 0.05,-1.05 1.15,-2.25 0.8,-0.8 1.5,-1 m 39.7,47.05 -0.05,0.5 q -0.1,1.1 -0.8,1.9 -0.75,0.9 -2.35,1.5 -5.55,2.25 -12.2,0.95 l -0.85,-0.2 -0.1,0.6 q -0.45,1.35 -2.05,1.95 l -2.85,0.2 -2.35,-0.5 q -1.2,-0.5 -1.65,-1.65 -0.45,-1 0.15,-2.15 0.55,-0.85 1.6,-1.25 l 0.35,-0.1 q -0.75,-1.25 -0.5,-3.1 0.3,-2.4 2.05,-4.05 1.1,-0.95 2.9,-1.65 l 0.4,-0.15 0.05,0.25 q 0.75,2.8 3.3,4.85 2.35,1.9 5.45,2.55 l 9.5,-0.45"
         fill="#7a4848"
         fill-rule="evenodd"
         stroke="none"
         id="path5" />
    </g>
    <g
       id="sprite1"
       transform="translate(17.4,15.85)">
      <use
         ffdec:characterId="31"
         height="57.200001"
         transform="matrix(0.5366,0,0,0.5366,-16.6582,-14.546)"
         width="70.75"
         xlink:href="#sprite2"
         id="use5" />
    </g>
    <g
       id="sprite2"
       transform="translate(-8.65,-10.35)">
      <use
         ffdec:characterId="30"
         height="57.200001"
         transform="translate(8.65,10.35)"
         width="70.75"
         xlink:href="#shape1"
         id="use6" />
    </g>
    <g
       id="shape1"
       transform="translate(-8.65,-10.35)">
      <path
         d="m 14.8,41.7 q 0.65,-1.75 2.65,-2.5 1.8,-0.8 3.7,-0.25 1.15,0.45 2.25,1.2 l 0.9,0.4 q 1.65,0.9 2.85,2.5 L 37.8,30.1 q 2.35,-2.8 3.75,-3.95 1.5,-1.15 4.25,-2.4 18.2,-8.85 27.65,-12.6 2.15,-0.8 3.25,-0.8 h 0.8 l 1.9,2.4 -0.2,0.8 q -0.2,1.1 -1.55,3 -5.85,8.25 -18.85,23.8 -1.85,2.35 -3.35,3.5 -1.4,1.15 -4.75,2.75 l -15.15,7.15 q 1.2,1.6 1.75,3.4 l 0.2,1 0.55,2.5 q 0.1,1.95 -1.1,3.55 -1.2,1.65 -3.05,1.9 l -1.3,0.05 q -1.65,0.2 -3.45,-0.65 -1.85,-0.9 -3,-2.6 L 25,60.95 23.8,62.1 q -2.6,2.85 -4.3,3.95 -2.85,1.8 -5.5,1.45 l -1.65,-0.5 -1.2,-0.7 -0.2,-0.2 q -1,-0.85 -1.6,-1.9 L 9.25,64 9.15,63.8 8.75,62.4 q -0.2,-0.8 -0.05,-1.7 0.25,-2.65 2.7,-5.05 1.5,-1.3 4.9,-3.15 L 17.7,51.55 16.05,50 q -1.35,-1.5 -1.8,-3.6 -0.4,-1.85 0.25,-3.45 l 0.3,-1.25"
         fill="#000000"
         fill-opacity="0.372549"
         fill-rule="evenodd"
         stroke="none"
         id="path6" />
    </g>
  </defs>
</svg>
