<?xml version="1.0" encoding="UTF-8" standalone="no"?>
<svg
   ffdec:objectType="frame"
   height="82.168297"
   width="76.532234"
   version="1.1"
   id="svg5"
   xmlns:xlink="http://www.w3.org/1999/xlink"
   xmlns="http://www.w3.org/2000/svg"
   xmlns:svg="http://www.w3.org/2000/svg"
   xmlns:ffdec="https://www.free-decompiler.com/flash">
  <g
     transform="translate(38.594737,40.369767)"
     id="g1">
    <use
       ffdec:characterId="17"
       height="119.15"
       id="rarity"
       transform="translate(-58.5,-60.65)"
       width="119.15"
       xlink:href="#sprite0" />
    <use
       ffdec:characterId="58"
       height="82.150002"
       transform="translate(-38.6,-40.35)"
       width="76.550003"
       xlink:href="#sprite1"
       id="use1" />
  </g>
  <defs
     id="defs5">
    <g
       id="sprite1">
      <use
         ffdec:characterId="57"
         height="82.150002"
         width="76.550003"
         xlink:href="#shape0"
         id="use2" />
    </g>
    <g
       id="shape0">
      <path
         d="m 50.2,8.7 q 5.15,1.25 8.85,4 2.65,1.9 4.45,4.5 1.85,2.75 2.4,5.8 0.8,4.65 -1.65,11.75 -2.25,6.55 -5.3,11.9 l -2.8,0.15 q -1.25,0.7 -1.35,2.55 -0.2,1.65 0.6,2.5 l 0.1,0.1 -3.5,4.15 -3.95,3.75 Q 47.2,59.1 46.3,58.8 q -1.55,-0.55 -3.05,0.3 -1.5,1.05 -1.4,2.65 0.05,1.1 0.95,2.25 l -3.55,2.6 -8.85,6.45 q -3,2.2 -4.9,1.8 Q 24.15,74.6 22.75,73.1 21.4,71.7 20,69.15 17.05,63.75 15.85,57.5 l 1.85,0.95 q 2.05,0.85 3.45,0.6 1.2,-0.3 2.8,-1.6 2.25,-1.85 3.1,-3.4 1.4,-2.5 0.85,-5.15 -0.25,-1.7 -1.35,-2.9 -1.7,-1.75 -4.95,-1.75 -4.05,0 -6.55,2.2 0.05,-2 0.25,-3.95 l 0.2,-0.1 q 1.55,-0.8 1.7,-2.7 0.15,-1.6 -1.05,-2.8 l 0.95,-4.1 0.6,1.45 1.85,2.2 q 2.3,2 5.4,3 3,0.95 6.15,0.85 6.15,-0.2 11.5,-4.15 3,-2.2 5.05,-4.85 l 2.8,-4.4 Q 52.9,22.05 53.05,17.45 53.15,14.5 52.1,11.9 51.35,10 50.2,8.7 m 1.9,21.9 q 0,1.15 0.7,2.2 0.7,1 1.75,1.45 l 2.3,0.15 q 1.2,-0.3 2,-1.15 0.8,-0.8 1,-2.05 0.2,-1.2 -0.3,-2.25 -0.65,-1.3 -2.05,-1.9 l -2.75,-0.1 Q 53,27.5 52.35,29.3 l -0.25,1.3"
         fill="#cbc9bc"
         fill-rule="evenodd"
         stroke="none"
         id="path2" />
      <path
         d="m 73.5,22.55 q 0.8,5.75 -1.9,13.7 h 0.45 q 1.85,0 2.85,0.6 0.85,0.45 1.3,1.35 0.45,0.9 0.3,1.8 -0.15,1 -0.85,1.7 -0.7,0.7 -1.65,0.75 L 72.35,42.3 70.2,42.25 69.3,42.2 q -1.7,3.85 -3.9,7.5 l 0.5,0.35 q 2.2,1.45 2.85,2.9 0.45,0.95 0.25,2 -0.2,1.15 -1,1.7 -1.45,0.9 -3.75,-0.25 L 61.9,55 q -4.1,5.45 -9.05,9.95 l 0.45,0.4 q 1.65,1.45 2,2.4 0.35,1.05 -0.3,2.15 -0.6,1.1 -1.7,1.3 -1.05,0.2 -2.25,-0.4 l -2,-1.4 -0.75,-0.65 -7.1,5 -7.45,5.05 q -3.75,2.6 -6.1,3.1 -2.8,0.65 -5.8,-0.4 Q 19.05,80.55 16.8,78.4 13.25,75 10.9,68.25 9.35,63.7 8.55,58.85 L 7.25,59.15 4.6,59.5 Q 2.95,59.3 2.35,58.15 1.95,57.4 2.2,56.5 2.4,55.65 3.05,55 q 0.8,-0.85 3,-1.75 L 7.8,52.55 7.7,46.95 8,41.85 5.55,41.55 2.1,40.7 Q 1.05,40.15 0.45,39.2 -0.2,38.2 0.1,37.2 0.45,36 2,35.45 L 4.65,35.2 8.9,35.35 q 0.9,-4.9 2.5,-9.75 L 11.5,25.25 10.35,23.95 9.1,22.85 7.95,21.7 Q 6.65,20 7.2,18.6 q 0.3,-0.8 1.1,-1.25 0.8,-0.45 1.65,-0.4 1.25,0 3.25,1.1 l 0.95,0.6 q 1.45,-2.95 3.15,-5.35 3.5,-4.85 8.6,-8.2 5.15,-3.3 11,-4.45 5.8,-1.2 11.85,-0.25 6,0.95 11.2,3.9 5.35,3 8.95,7.65 3.85,5 4.6,10.6 M 15.85,57.5 q 1.2,6.25 4.15,11.65 1.4,2.55 2.75,3.95 1.4,1.5 2.75,1.75 1.9,0.4 4.9,-1.8 L 39.25,66.6 42.8,64 q -0.9,-1.15 -0.95,-2.25 -0.1,-1.6 1.4,-2.65 1.5,-0.85 3.05,-0.3 0.9,0.3 1.75,1.05 L 52,56.1 55.5,51.95 55.4,51.85 Q 54.6,51 54.8,49.35 54.9,47.5 56.15,46.8 l 2.8,-0.15 Q 62,41.3 64.25,34.75 66.7,27.65 65.9,23 65.35,19.95 63.5,17.2 61.7,14.6 59.05,12.7 55.35,9.95 50.2,8.7 L 47.35,8.1 Q 40.05,6.85 35.15,8.8 31.9,10.05 28,13.25 24.4,16.15 22.7,18.5 21,20.85 19.5,25.15 18.05,29 17.1,32.8 l -0.95,4.1 q 1.2,1.2 1.05,2.8 -0.15,1.9 -1.7,2.7 l -0.2,0.1 q -0.2,1.95 -0.25,3.95 l -0.05,0.8 0.05,3.35 1.8,0.25 q 1.3,0.45 2.05,1.65 0.75,1.3 0.25,2.5 -0.7,1.55 -3.35,2.15 l 0.05,0.35 M 52.1,30.6 52.35,29.3 q 0.65,-1.8 2.4,-2.35 l 2.75,0.1 q 1.4,0.6 2.05,1.9 0.5,1.05 0.3,2.25 -0.2,1.25 -1,2.05 -0.8,0.85 -2,1.15 l -2.3,-0.15 Q 53.5,33.8 52.8,32.8 52.1,31.75 52.1,30.6 m -6.4,2.75 q -1.4,1.9 -5.25,1.7 -1.75,0 -2.6,-0.6 -1.2,-0.7 -1.65,-2.35 -0.3,-0.95 -0.3,-2.9 0,-1.5 0.4,-2.15 0.4,-0.75 1.3,-1.15 l 1.75,-0.3 q 0.75,0.05 3.45,1 l 2.55,0.9 q 1.4,0.85 1.6,2 0.15,0.75 -0.5,2.35 l -0.75,1.5 m -18.6,-11.1 0.1,-1.2 q 0.35,-1.25 1.4,-2.05 1.05,-0.85 2.3,-0.9 1.25,0 2.35,0.8 1.1,0.75 1.45,1.95 0.4,1.2 -0.05,2.45 -0.45,1.3 -1.5,1.95 -1.35,1 -3.15,0.55 -1.7,-0.4 -2.5,-2 l -0.4,-1.55"
         fill="#000000"
         fill-rule="evenodd"
         stroke="none"
         id="path3" />
      <path
         d="m 50.2,8.7 q 1.15,1.3 1.9,3.2 1.05,2.6 0.95,5.55 -0.15,4.6 -2.6,9.45 l -2.8,4.4 q -2.05,2.65 -5.05,4.85 -5.35,3.95 -11.5,4.15 -3.15,0.1 -6.15,-0.85 -3.1,-1 -5.4,-3 L 17.7,34.25 17.1,32.8 q 0.95,-3.8 2.4,-7.65 1.5,-4.3 3.2,-6.65 1.7,-2.35 5.3,-5.25 3.9,-3.2 7.15,-4.45 4.9,-1.95 12.2,-0.7 L 50.2,8.7 M 15.05,46.45 q 2.5,-2.2 6.55,-2.2 3.25,0 4.95,1.75 1.1,1.2 1.35,2.9 0.55,2.65 -0.85,5.15 -0.85,1.55 -3.1,3.4 -1.6,1.3 -2.8,1.6 -1.4,0.25 -3.45,-0.6 L 15.85,57.5 15.8,57.15 q 2.65,-0.6 3.35,-2.15 0.5,-1.2 -0.25,-2.5 -0.75,-1.2 -2.05,-1.65 L 15.05,50.6 15,47.25 l 0.05,-0.8 m 12.05,-24.2 0.4,1.55 q 0.8,1.6 2.5,2 1.8,0.45 3.15,-0.55 1.05,-0.65 1.5,-1.95 0.45,-1.25 0.05,-2.45 -0.35,-1.2 -1.45,-1.95 -1.1,-0.8 -2.35,-0.8 -1.25,0.05 -2.3,0.9 -1.05,0.8 -1.4,2.05 l -0.1,1.2 m 18.6,11.1 0.75,-1.5 q 0.65,-1.6 0.5,-2.35 -0.2,-1.15 -1.6,-2 L 42.8,26.6 q -2.7,-0.95 -3.45,-1 l -1.75,0.3 q -0.9,0.4 -1.3,1.15 -0.4,0.65 -0.4,2.15 0,1.95 0.3,2.9 0.45,1.65 1.65,2.35 0.85,0.6 2.6,0.6 3.85,0.2 5.25,-1.7"
         fill="#e9e9e9"
         fill-rule="evenodd"
         stroke="none"
         id="path4" />
    </g>
    <g
       id="sprite2"
       transform="translate(17.4,15.85)">
      <use
         ffdec:characterId="31"
         height="57.200001"
         transform="matrix(0.5366,0,0,0.5366,-16.6582,-14.546)"
         width="70.75"
         xlink:href="#sprite3"
         id="use4" />
    </g>
    <g
       id="sprite3"
       transform="translate(-8.65,-10.35)">
      <use
         ffdec:characterId="30"
         height="57.200001"
         transform="translate(8.65,10.35)"
         width="70.75"
         xlink:href="#shape1"
         id="use5" />
    </g>
    <g
       id="shape1"
       transform="translate(-8.65,-10.35)">
      <path
         d="m 14.8,41.7 q 0.65,-1.75 2.65,-2.5 1.8,-0.8 3.7,-0.25 1.15,0.45 2.25,1.2 l 0.9,0.4 q 1.65,0.9 2.85,2.5 L 37.8,30.1 q 2.35,-2.8 3.75,-3.95 1.5,-1.15 4.25,-2.4 18.2,-8.85 27.65,-12.6 2.15,-0.8 3.25,-0.8 h 0.8 l 1.9,2.4 -0.2,0.8 q -0.2,1.1 -1.55,3 -5.85,8.25 -18.85,23.8 -1.85,2.35 -3.35,3.5 -1.4,1.15 -4.75,2.75 l -15.15,7.15 q 1.2,1.6 1.75,3.4 l 0.2,1 0.55,2.5 q 0.1,1.95 -1.1,3.55 -1.2,1.65 -3.05,1.9 l -1.3,0.05 q -1.65,0.2 -3.45,-0.65 -1.85,-0.9 -3,-2.6 L 25,60.95 23.8,62.1 q -2.6,2.85 -4.3,3.95 -2.85,1.8 -5.5,1.45 l -1.65,-0.5 -1.2,-0.7 -0.2,-0.2 q -1,-0.85 -1.6,-1.9 L 9.25,64 9.15,63.8 8.75,62.4 q -0.2,-0.8 -0.05,-1.7 0.25,-2.65 2.7,-5.05 1.5,-1.3 4.9,-3.15 L 17.7,51.55 16.05,50 q -1.35,-1.5 -1.8,-3.6 -0.4,-1.85 0.25,-3.45 l 0.3,-1.25"
         fill="#000000"
         fill-opacity="0.372549"
         fill-rule="evenodd"
         stroke="none"
         id="path5" />
    </g>
  </defs>
</svg>
