<?xml version="1.0" encoding="UTF-8" standalone="no"?>
<svg
   ffdec:objectType="frame"
   height="93.550003"
   width="97.376518"
   version="1.1"
   id="svg9"
   xmlns:xlink="http://www.w3.org/1999/xlink"
   xmlns="http://www.w3.org/2000/svg"
   xmlns:svg="http://www.w3.org/2000/svg"
   xmlns:ffdec="https://www.free-decompiler.com/flash">
  <g
     transform="translate(50.72,45.3)"
     id="g1">
    <use
       ffdec:characterId="17"
       height="119.15"
       id="rarity"
       transform="translate(-58.5,-60.65)"
       width="119.15"
       xlink:href="#sprite0" />
    <use
       ffdec:characterId="304"
       height="93.650002"
       transform="translate(-50.7,-45.3)"
       width="97.349998"
       xlink:href="#shape0"
       id="use1" />
  </g>
  <defs
     id="defs9">
    <g
       id="shape0"
       transform="translate(50.4,47.8)">
      <path
         d="m -7.55,-13.3 v 0.2 q 0,2 0.3,2.9 l 0.7,1.55 0.25,0.8 3.95,-2.15 1.55,-0.9 7.1,-4.2 q 11.6,-7.05 21.5,-14.05 l 8.3,-6.05 0.65,-0.55 0.75,-1 q 0,-0.55 -0.75,-1.1 l -2.3,-1.45 -1.6,-1.25 -0.05,-0.05 v 0.05 l -1.5,1.1 -1.75,1.05 -5.75,3.35 q -0.8,0.35 -1.1,0.35 l -0.35,-0.05 q -0.45,-0.1 -0.5,-0.55 -0.05,-0.4 0.35,-0.9 1,-1.2 3,-2.8 l 3.15,-2.65 0.25,-0.2 -9.45,-0.7 -12.7,-0.2 -6.2,0.6 q -1.35,0.4 -4.35,2.1 l -12.95,7.7 -11.25,6.85 q -6.1,4 -10.55,7.75 -2.6,2.15 -3.65,3.95 -1.1,1.8 -1.75,4.9 l -0.05,0.35 -0.4,2.05 -0.6,2.8 -0.1,0.35 v 0.05 l 0.05,0.05 0.65,0.2 h 0.6 l 0.3,0.05 1.3,0.45 0.8,-0.15 24.3,-2.55 q 4.75,-0.5 7.6,-1.3 l 0.4,-0.1 -0.05,-0.1 -0.1,-0.3 -0.5,-1.1 -0.55,-1.45 -0.35,-1.7 -0.15,-0.65 -0.05,-0.05 h -0.1 l -6.1,1.05 -2.5,0.25 -1.8,0.05 -1.15,0.25 -0.55,-0.2 -0.1,-0.15 -0.05,-0.4 q 0.1,-0.2 0.6,-0.4 4.5,-1.75 11.35,-3.9 h 0.1 l 0.15,-0.2 3.95,-2 q 1.6,-0.7 3.25,-1.85 l 4.15,-2.85 0.65,-0.35 q 0.2,0 0.2,-0.1 l 0.65,0.4 0.2,0.55 -0.05,0.25 q -0.05,0.35 -0.65,0.85 l -1.45,1.15 -1.4,1.25 -1.15,1.1 -0.85,0.65 -0.35,0.5 -1.15,0.75 -1.75,1.5 -0.4,0.4 -0.1,0.1 v 0.05 m 43.95,-30.95 5.15,4.1 q 2.05,1.55 2.2,2.9 0.25,1.8 -2.25,3.85 -3.1,2.65 -8.65,6.7 l 7.2,1.2 q 3.45,0.85 3.45,2.95 l -0.1,0.65 v 0.05 l 0.15,1.75 q 0.05,0.95 0.55,2.85 l 0.7,5.25 0.6,5.9 0.75,7.8 0.25,2.15 0.45,1.7 Q 47.2,7.4 46.4,8.6 l -0.2,0.3 -0.05,0.05 q -0.3,1.15 -1.9,2.85 l -5.35,4.95 q -8.4,7.3 -18.15,13.15 l -5.1,2.95 -5.05,3.1 q -0.9,0.6 -6.05,4.35 l -6.25,4 -0.9,0.4 q -0.45,0.65 -1.5,0.95 l -2.8,0.1 Q -9.45,45.4 -13.4,44.1 l -6.45,-2 -5.3,-1.05 L -30.5,40 q -2.7,-0.7 -3.8,-1.8 -0.9,-0.85 -1.65,-2.8 l -0.85,-2.3 -0.35,0.25 q -2.05,1.6 -4.55,1.65 -1.55,0.1 -2.8,-0.65 -1.8,-1.2 -2.2,-4.5 -0.25,-1.35 -0.1,-2.6 0.25,-1.3 1.15,-3 1.65,-3 4,-5.8 l -0.85,-2.2 -2.95,-6.6 Q -47.15,5.75 -47.8,2.9 L -47.95,1.3 -48.7,0.7 -48.75,0.65 q -1,-1 -1.2,-2.7 V -2.4 q -0.4,-0.65 -0.45,-1.4 -0.1,-1 0.3,-2.4 l 0.75,-2.35 0.6,-3.25 0.85,-3.2 q 0.95,-2.2 4,-4.95 6.7,-6.1 18.4,-13.25 l 19.45,-11.95 q 3.05,-2 4.55,-2.4 l 4.6,-0.25 q 4.85,0.2 14.5,0.25 8.55,0.2 14.35,1.6 l 1.55,0.45 q 1.2,-0.15 2.9,1.25 m -66.05,34.1 -0.1,-3.35 0.15,-1.2 q 0.3,-0.7 0.9,-0.65 l 0.35,0.05 0.6,0.75 v 1.3 l 0.25,2.7 0.05,0.4 0.2,1 0.35,0.85 q 0.4,0.5 0.8,0.15 l 0.2,-0.7 -0.05,-1.55 -0.05,-0.4 -0.45,-2.6 -0.05,-1.1 0.05,-0.05 0.05,-0.1 -0.15,-0.35 q -0.15,-0.5 0.15,-0.8 l 0.55,-0.3 h 0.1 q 2.75,-1.05 8.8,-4.6 l 2.35,-1.7 0.4,-0.35 0.4,-0.5 0.5,-0.9 q 0.45,-0.85 0.1,-1.25 l -1.8,0.25 -0.15,0.05 -1,0.5 -3.75,2.3 -1.45,1.05 -1.6,0.9 -0.1,0.05 -0.6,0.45 q -0.4,0.25 -1.4,0.55 l -1.35,0.55 q -1.1,0.6 -1.5,1.45 -0.35,0.95 -0.7,1 -0.35,0.05 -0.6,-0.25 l -0.3,-0.7 q 0,-0.95 1,-2.25 l 1.65,-1.5 1.8,-0.85 1.3,-0.45 0.75,-0.5 q 0.9,-0.5 3.2,-2 l 3.3,-1.95 q 1.3,-0.65 2.25,-0.7 1.4,-0.1 2.25,0.7 l 0.7,1.2 q 0.35,1.05 0,1.8 l -0.75,1.7 q -0.45,0.85 -1.2,1.55 l -3.15,2.15 -3.55,2.05 q -2.65,1.6 -4.4,2.05 l -0.2,0.05 v 0.05 q 0.65,1.5 0.9,3 l 0.05,0.4 q 0.15,1.5 -0.1,3 -0.2,0.95 -0.6,1.35 l -0.6,0.4 -1.1,0.15 h -0.55 q -1.25,-0.2 -1.75,-0.55 -0.95,-0.7 -1.25,-2.65 l -0.05,-0.75 -0.05,-0.35 m 38.5,-14.45 4.7,-2.9 1.45,-1.2 2.8,-1.75 1.85,-0.4 q 1.75,-0.2 2.45,0.35 l 0.4,0.45 0.1,0.4 q 0.1,0.55 -0.15,0.95 l -0.35,0.45 -0.15,0.65 q -0.2,0.75 -1.1,1.4 l -1.65,0.8 -2.9,1.75 q -2.15,1.5 -2.8,1.85 l -2.5,1.45 q -1.05,0.6 -1.4,0.65 L 8.4,-19.8 Q 7.8,-20.05 7.45,-20.6 L 7.4,-20.7 q -0.65,-1 -0.2,-2.3 l 0.45,-0.7 1.2,-0.9 m 3.15,-13.15 0.05,-0.05 1.1,0.05 0.7,0.8 0.1,1.1 q -0.2,0.95 -1.25,1.85 -0.6,0.55 -1.5,0.95 -1.85,0.85 -4.95,0.75 -2.05,0 -2.75,-0.8 -0.45,-0.6 -0.5,-1.3 l 0.15,-0.9 q 0.2,-0.85 1,-1.6 l 0.3,-0.25 Q 5.6,-38.1 7,-38.45 l 0.45,-0.05 2.3,0.2 q 0.55,0.25 0.5,0.6 l -0.2,0.3 -0.4,0.1 -0.8,-0.15 Q 8.1,-37.6 6.9,-36.8 q -1.5,1 -1.7,1.85 0.1,0.25 0.7,0.35 l 3.85,-0.35 q 1.55,-0.4 1.65,-1.3 V -37 q 0.05,-0.5 0.6,-0.75 M 5.7,-9 5.35,-8.75 5.3,-8.55 v 0.05 l -1,2.15 Q 3.6,-5 3.25,-3.25 L 3.1,-2.3 3.05,-1.95 V 0.5 0.8 1.3 L 3,1.65 2.8,2.1 l 11.55,-8.2 7.35,-5.05 1.7,-0.95 2.35,-1.4 -0.1,-0.7 -0.35,-0.95 -0.3,-0.95 q -0.05,-0.8 0.8,-1.65 l 0.9,-0.75 -2,-0.7 q -1,-0.35 -1.5,-0.85 l -1.1,0.75 -2.65,1.7 -2,1.35 -1.85,1.15 q 1.1,0.4 1.55,1.5 l 0.2,1.7 -0.3,1.8 q -0.55,1.35 -2.65,2 L 13.8,-8 q -0.4,-0.1 -0.4,-0.45 1.7,-1.3 1.6,-3.45 l -0.25,-0.8 -1.05,-0.2 q -1.7,0.3 -2.9,1.65 -0.35,0.45 -0.25,0.75 0.05,0.25 0.55,0.55 1.1,0.7 0.95,1.55 -0.05,0.7 -0.9,0.95 L 9.8,-7.55 Q 8.25,-8.2 7.9,-9.85 V -10.1 L 7.85,-10.3 5.7,-9 m -7.8,4.55 -2,1.1 -1.3,0.6 -0.95,0.4 -0.5,0.2 -0.25,0.1 -1.8,0.5 -0.8,0.2 -0.15,0.85 -0.4,1.4 q -0.35,1.8 0.2,3.7 l 0.05,0.1 0.5,1.35 1.05,1.7 0.05,0.1 0.1,0.1 V 8 l 0.8,0.15 0.8,0.25 0.35,0.15 h 0.1 L -5.8,8.2 -5.6,8.05 2.1,2.6 h -1 L 1,2.55 Q 0.05,2.05 0,0.75 v -0.1 l 0.3,-1.8 0.05,-0.4 0.2,-1.95 0.35,-1.4 0.6,-1.6 -1.45,0.85 -0.45,0.25 -1.7,0.95 m 21.3,0.1 -1.25,0.8 -5.3,4.05 -16.3,11.05 -0.25,0.2 0.1,0.6 q 0.25,1.6 0.45,6.3 l 0.1,3.9 0.35,6.05 0.8,6.55 q 0.25,2.65 0.05,4.8 L 4.9,34.7 q 5.15,-4.05 8,-5.95 L 18.25,25.5 Q 30.55,18 40.75,7.65 l 1.15,-1 -0.05,-0.15 -0.65,-4.8 -1.4,-13.6 -0.4,-5.6 -3,2.35 -5.8,3.8 -11.4,7 m 16.85,-6.65 0.3,0.1 0.6,0.9 q 1,2.7 0.7,7.4 0,1.15 -0.35,1.8 -0.5,0.9 -1.75,1.25 L 33.4,0.65 31.75,0.35 Q 31.25,0 30.85,-1.05 L 29.4,-4.55 Q 28.95,-5.8 29.3,-6.3 l 0.75,-0.45 h 0.05 l 0.45,0.05 0.4,0.15 q 0.7,0.35 1.15,1.4 l 1.15,3.25 0.3,0.05 q 0.95,0.1 1.25,-0.35 l 0.05,-0.05 0.1,-0.75 q 0.1,-2.9 -0.2,-4.35 -0.4,-1.6 -0.3,-2.3 V -9.8 -9.85 q 0.15,-0.65 0.75,-1 L 36.05,-11 m -6.15,-5.05 q 3.75,-2.4 7.2,-5.65 l -6.25,-0.65 q -1.95,-0.2 -2.8,-0.7 l -0.2,-0.15 -1.4,0.95 q 3,1 3.8,2.65 0.4,0.85 0.25,1.8 -0.2,1 -0.95,1.55 l -0.85,0.7 -0.15,0.4 1.35,-0.9 M 12.05,7.85 Q 12.45,7.9 12.8,8.2 L 13,8.4 q -0.05,-0.45 0.2,-1 0.25,-0.55 0.85,-1.25 L 17,2.6 Q 18.2,1.2 19.05,0.9 L 21.1,0.7 22.95,0.4 q 1.15,-0.05 3,0.6 1.15,0.4 1.25,1.1 l -0.1,0.95 0.3,1.05 0.9,2.6 q 0.45,1.8 0.85,2.6 l 0.4,1.3 q -0.05,0.8 -1.25,1.65 l -3.15,2.85 -1.2,1.05 -2.15,0.15 -4.1,-0.2 -1.55,-0.3 q -0.7,-0.3 -1.1,-1.45 L 14.4,12.55 13.85,11.65 13.5,10.7 v -0.95 0.3 l -0.2,2.05 -0.2,2.55 q -0.15,1.45 -1,2.35 -0.75,0.7 -2,0.95 -1.25,0.3 -1.95,0 l -0.1,0.7 -0.15,1.6 -0.05,1.25 -0.3,1 -0.3,1.15 -0.6,1.15 -1,1.2 q -0.75,0.6 -2,0.35 -0.8,-0.2 -1.8,-1 l -0.8,-1 -0.35,-1 -0.75,-3.75 -0.05,-0.95 -0.2,-0.85 -0.1,-2.1 0.15,-2.1 0.1,-0.9 0.05,-0.2 Q 0.15,12 0.75,11.9 1.35,11.8 1.7,12.25 l 0.25,0.65 0.1,1 v 0.05 L 2.2,15.1 2.25,15.35 2.2,16.8 2.5,18.1 2.65,19.15 3.05,20 3.3,20.95 v 0.15 l 0.6,1.5 H 4.2 L 4.6,21.4 4.75,21 4.9,19.7 4.85,18.35 5.2,17.2 5.1,16.4 4.95,15.2 5,14.8 q 0.05,-1.05 0.6,-1.5 l 0.2,-0.1 0.4,-0.15 h 0.2 q 0.35,0.05 0.65,0.25 h 0.2 l 0.25,0.15 0.65,0.8 0.15,0.2 0.75,0.7 0.9,-0.2 q 0.45,-0.35 0.6,-0.9 L 10.65,13.6 10.6,13.05 V 12.3 12 L 10.7,10.75 10.65,9.9 10.6,9.35 V 9.1 q 0.05,-0.6 0.35,-0.95 l 0.4,-0.25 0.55,-0.1 0.15,0.05 m 9.5,5.2 L 22.8,13 q 0.6,-0.15 1.3,-0.85 l 1.8,-1.65 0.45,-0.65 -0.05,-0.6 -1.2,-3.8 -0.95,1.5 -0.95,1.55 0.1,0.3 0.1,0.65 0.4,1.3 -0.1,0.85 q -0.35,0.65 -0.8,0.5 l -0.4,-0.4 -0.35,-0.6 -0.4,-0.35 -0.1,-0.5 V 9.7 L 21.55,9.45 20.85,9.55 20.2,9.5 19.7,9.6 19.1,9.35 Q 18.8,9.05 18.95,8.65 19,8.4 19.4,8.2 l 2.35,-0.95 0.15,-0.1 h 0.15 L 23.4,5.05 24,3.85 24.25,3.55 20.65,4 q -0.6,0.1 -1,0.35 l -0.6,0.7 -0.5,0.8 -1.15,1.2 q -0.8,0.7 -1,1.25 0,1.15 0.4,1.9 l 0.7,1.25 0.45,1.3 3.6,0.3 m -42.5,-13.1 -0.45,0.05 0.4,0.45 0.2,0.2 q 1.4,1.35 3.55,0.95 l 0.55,-0.15 q 1.1,-0.3 1.95,-0.95 l 0.4,-0.4 0.1,-0.1 0.6,-0.55 V -0.8 l -0.45,0.05 -1.3,0.15 -5.55,0.55 M -2.65,3.45 -3.4,4.4 -4.55,5.25 -5.9,5.2 -6.55,4.65 -7.25,4.1 Q -7.7,3.7 -7.65,3 -7.6,2.25 -7.1,1.9 l 0.4,0.35 0.15,0.55 q 0.2,0.6 1.25,1 Q -4.5,3.4 -4.25,2.5 -4.1,1.6 -4.4,0.85 -4.8,0.05 -4.6,-0.4 l 1.05,-0.1 0.65,0.95 q 0.4,1.2 0.45,1.85 l -0.2,1.15 m -20.1,1.65 6.7,1.35 0.95,0.15 2.8,0.55 -1.15,-2.15 -0.2,-2.1 q -1.45,1.2 -2.4,1.45 l -0.9,0.15 h -1.8 L -21.4,4.1 -23.2,3.15 -23.85,2.6 -24.7,1.65 l -0.55,-1.3 -12.3,0.8 14.8,3.95 m 13.2,7.3 q -2.3,-0.8 -5.9,-1.5 l -6,-1.15 -5.15,-1.35 -6.15,-1.75 -7.65,-2.35 -2.9,-1 1.8,3.6 2.1,3.9 q 1.5,3 3.3,8.4 l 1.4,4.1 2.75,-3.1 2,-2.05 0.25,-0.2 -0.05,-0.45 q -0.05,-1.6 0.65,-3 0.8,-1.6 2,-2.25 2.1,-1.25 5.15,-0.25 2.4,0.85 3.15,2.4 0.45,0.8 0.55,2.6 0,2.15 -0.65,3.25 -0.7,1.05 -2.3,1.95 -1.55,0.8 -2.6,0.9 -1.5,0.2 -2.95,-0.55 l -0.65,-0.4 -5.4,6.65 1.05,3.15 q 0.5,1.5 1.1,2.1 0.75,0.75 2.65,1.15 l 5.8,1.1 q 3.45,0.65 5.75,1.4 l 4.45,1.55 4.55,1.15 1.7,0.25 1.25,0.25 -0.2,-2.05 -0.7,-4.15 -0.75,-4.15 -0.3,-2.65 -1.1,-8.1 -0.85,-5.45 -0.15,-1.6 -1,-0.35 m -6.85,9.95 0.05,-0.3 q 0.2,-0.7 0.85,-0.7 0.85,0 1.05,1.5 0.9,5.65 0.6,11.4 -0.1,1.3 -0.5,1.8 -0.45,0.6 -1.55,0.7 -2,0 -3.1,-2.2 -0.6,-1.2 -0.8,-3.85 l -0.45,-5.2 q 0,-1.1 0.6,-1.1 0.35,-0.05 0.7,0.5 0.75,1.2 0.8,3.6 0,2.8 0.35,3.75 l 0.75,1.5 0.95,0.9 0.05,-0.9 Q -15.9,28.5 -16.4,23.3 v -0.95 m -22.8,3.5 -0.4,-1.35 -0.8,1.3 q -1.3,2.3 -1.1,3.7 0.9,0 1.8,-0.7 l 1.1,-1.05 -0.6,-1.9"
         fill="#000000"
         fill-rule="evenodd"
         stroke="none"
         id="path1" />
      <path
         d="m 3,-34.4 v -1 q 0.15,-0.7 0.7,-1.2 l 0.45,-0.3 q -0.8,0.75 -1,1.6 L 3,-34.4 m 4.9,24.3 v 0.25 q 0.35,1.65 1.9,2.3 l 1.35,0.1 Q 12,-7.7 12.05,-8.4 12.2,-9.25 11.1,-9.95 q -0.5,-0.3 -0.55,-0.55 -0.1,-0.3 0.25,-0.75 1.2,-1.35 2.9,-1.65 l 1.05,0.2 0.25,0.8 q 0.1,2.15 -1.6,3.45 0,0.35 0.4,0.45 l 0.6,-0.1 q 2.1,-0.65 2.65,-2 l 0.3,-1.8 -0.2,-1.7 q -0.45,-1.1 -1.55,-1.5 l 1.85,-1.15 2,-1.35 2.65,-1.7 1.1,-0.75 q 0.5,0.5 1.5,0.85 l 2,0.7 -0.9,0.75 q -0.85,0.85 -0.8,1.65 l 0.3,0.95 0.35,0.95 0.1,0.7 -2.35,1.4 -1.7,0.95 L 14.35,-6.1 2.8,2.1 3,1.65 3.05,1.3 V 0.8 0.5 -1.95 L 3.1,-2.3 3.25,-3.25 Q 3.6,-5 4.3,-6.35 l 1,-2.15 V -8.55 L 5.35,-8.75 5.7,-9 H 6.1 L 6.95,-9.55 7.9,-10.1 M -2.1,-4.45 -0.4,-5.4 0.05,-5.65 1.5,-6.5 0.9,-4.9 0.55,-3.5 0.35,-1.55 0.3,-1.15 0,0.65 v 0.1 q 0.05,1.3 1,1.8 L 1.1,2.6 h 1 L -5.6,8.05 -5.8,8.2 -6.25,8.55 h -0.1 L -6.7,8.4 -7.5,8.15 -8.3,8 V 7.95 L -8.4,7.85 -8.45,7.75 -9.5,6.05 -10,4.7 -10.05,4.6 q -0.55,-1.9 -0.2,-3.7 l 0.4,-1.4 0.15,-0.85 0.8,-0.2 1.8,-0.5 0.25,-0.1 0.5,-0.2 0.95,-0.4 1.3,-0.6 2,-1.1 m -18.9,4.9 0.05,-0.5 5.55,-0.55 1.3,-0.15 0.45,-0.05 v 0.25 l -0.6,0.55 -0.1,0.1 -0.4,0.4 Q -15.6,1.15 -16.7,1.45 L -17.25,1.6 Q -19.4,2 -20.8,0.65 L -21,0.45 m 18.35,3 0.2,-1.15 Q -2.5,1.65 -2.9,0.45 L -3.55,-0.5 -4.6,-0.4 Q -4.8,0.05 -4.4,0.85 -4.1,1.6 -4.25,2.5 -4.5,3.4 -5.3,3.8 -6.35,3.4 -6.55,2.8 L -6.7,2.25 -7.1,1.9 Q -7.6,2.25 -7.65,3 -7.7,3.7 -7.25,4.1 l 0.7,0.55 0.65,0.55 1.35,0.05 1.15,-0.85 0.75,-0.95"
         fill="#894646"
         fill-rule="evenodd"
         stroke="none"
         id="path2" />
      <path
         d="m -9.55,12.4 1,0.35 0.15,1.6 0.85,5.45 1.1,8.1 0.3,2.65 0.75,4.15 0.7,4.15 0.2,2.05 -1.25,-0.25 -1.7,-0.25 -4.55,-1.15 -4.45,-1.55 q -2.3,-0.75 -5.75,-1.4 L -28,35.2 q -1.9,-0.4 -2.65,-1.15 -0.6,-0.6 -1.1,-2.1 l -1.05,-3.15 5.4,-6.65 0.65,0.4 q 1.45,0.75 2.95,0.55 1.05,-0.1 2.6,-0.9 1.6,-0.9 2.3,-1.95 0.65,-1.1 0.65,-3.25 -0.1,-1.8 -0.55,-2.6 -0.75,-1.55 -3.15,-2.4 -3.05,-1 -5.15,0.25 -1.2,0.65 -2,2.25 -0.7,1.4 -0.65,3 l 0.05,0.45 -0.25,0.2 -2,2.05 -2.75,3.1 -1.4,-4.1 q -1.8,-5.4 -3.3,-8.4 l -2.1,-3.9 -1.8,-3.6 2.9,1 7.65,2.35 6.15,1.75 5.15,1.35 6,1.15 q 3.6,0.7 5.9,1.5 m -6.85,9.95 -0.3,-0.15 -1,0.05 -0.85,0.6 q -0.55,0.85 -0.4,2.05 -0.35,-0.55 -0.7,-0.5 -0.6,0 -0.6,1.1 l 0.45,5.2 q 0.2,2.65 0.8,3.85 1.1,2.2 3.1,2.2 1.1,-0.1 1.55,-0.7 0.4,-0.5 0.5,-1.8 0.3,-5.75 -0.6,-11.4 -0.2,-1.5 -1.05,-1.5 -0.65,0 -0.85,0.7 l -0.05,0.3"
         fill="#835454"
         fill-rule="evenodd"
         stroke="none"
         id="path3" />
      <path
         d="m 36.4,-15.15 3,-2.35 0.4,5.6 1.4,13.6 0.65,4.8 0.05,0.15 -1.15,1 Q 30.55,18 18.25,25.5 l -5.35,3.25 q -2.85,1.9 -8,5.95 l -6.95,5.25 q 0.2,-2.15 -0.05,-4.8 l -0.8,-6.55 -0.35,-6.05 -0.1,-3.9 q -0.2,-4.7 -0.45,-6.3 l -0.1,-0.6 0.25,-0.2 16.3,-11.05 5.3,-4.05 1.25,-0.8 0.7,0.75 q 0.8,0.7 2.25,0.5 l 2.25,-0.7 4.9,-2.5 q -0.35,0.5 0.1,1.75 l 1.45,3.5 q 0.4,1.05 0.9,1.4 l 1.65,0.3 2.15,-0.2 Q 36.8,0.1 37.3,-0.8 q 0.35,-0.65 0.35,-1.8 0.3,-4.7 -0.7,-7.4 l -0.6,-0.9 -0.3,-0.1 0.2,-0.25 q 0.85,-1.2 0.85,-2.35 -0.1,-0.95 -0.7,-1.55 m -36.55,27.85 -0.1,0.9 -0.15,2.1 0.1,2.1 0.2,0.85 0.05,0.95 0.75,3.75 0.35,1 0.8,1 q 1,0.8 1.8,1 1.25,0.25 2,-0.35 l 1,-1.2 0.6,-1.15 0.3,-1.15 0.3,-1 0.05,-1.25 0.15,-1.6 0.1,-0.7 q 0.7,0.3 1.95,0 1.25,-0.25 2,-0.95 0.85,-0.9 1,-2.35 l 0.2,-2.55 0.2,-2.05 v -0.3 0.95 l 0.35,0.95 0.55,0.9 0.65,1.8 q 0.4,1.15 1.1,1.45 l 1.55,0.3 4.1,0.2 2.15,-0.15 1.2,-1.05 3.15,-2.85 Q 29.5,11.4 29.55,10.6 L 29.15,9.3 Q 28.75,8.5 28.3,6.7 L 27.4,4.1 27.1,3.05 27.2,2.1 Q 27.1,1.4 25.95,1 24.1,0.35 22.95,0.4 L 21.1,0.7 19.05,0.9 Q 18.2,1.2 17,2.6 L 14.05,6.15 Q 13.45,6.85 13.2,7.4 12.95,7.95 13,8.4 L 12.8,8.2 Q 12.45,7.9 12.05,7.85 l 0.05,-0.1 q 0.8,-0.7 1,-1.2 Q 13.5,5.6 12.9,4.65 12.35,3.8 11.35,3.5 L 9.55,3.45 8.15,4.4 Q 5.35,6.75 3.5,7.65 l -2.25,1.2 q -1.3,0.8 -1.6,1.95 -0.3,1.05 0.2,1.9"
         fill="#723e3e"
         fill-rule="evenodd"
         stroke="none"
         id="path4" />
      <path
         d="m -28.35,-15.3 0.05,-0.2 0.6,-0.65 v -0.15 q 0,-0.9 0.85,-1.95 l 0.45,-0.5 1.35,-0.55 q 1,-0.3 1.4,-0.55 l 0.6,-0.45 0.1,-0.05 1.6,-0.9 1.45,-1.05 3.75,-2.3 1,-0.5 0.15,-0.05 q 1,0.8 0.85,2.1 l -0.05,0.3 -0.4,0.35 -2.35,1.7 q -6.05,3.55 -8.8,4.6 h -0.1 l -0.55,0.3 q -0.3,0.3 -0.15,0.8 l 0.15,0.35 -0.05,0.1 -0.05,0.05 0.05,1.1 0.45,2.6 0.05,0.4 0.05,1.55 -0.2,0.7 q -0.4,0.35 -0.8,-0.15 l -0.35,-0.85 -0.2,-1 -0.05,-0.4 -0.25,-2.7 v -1.3 l -0.6,-0.75 m 35.8,-23.2 0.7,-0.3 1.15,-0.4 1.4,0.15 1.05,0.85 0.25,0.45 q -0.55,0.25 -0.6,0.75 v 0.75 q -0.1,0.9 -1.65,1.3 L 5.9,-34.6 q -0.6,-0.1 -0.7,-0.35 0.2,-0.85 1.7,-1.85 1.2,-0.8 1.95,-0.65 l 0.8,0.15 0.4,-0.1 0.2,-0.3 q 0.05,-0.35 -0.5,-0.6 l -2.3,-0.2 M 7.9,-10.1 6.95,-9.55 6.1,-9 H 5.7 l 2.15,-1.3 0.05,0.2 m 28.5,-5.05 q 0.6,0.6 0.7,1.55 0,1.15 -0.85,2.35 l -0.2,0.25 -0.85,0.15 q -0.6,0.35 -0.75,1 v 0.05 0.15 q -0.1,0.7 0.3,2.3 0.3,1.45 0.2,4.35 l -0.1,0.75 -0.1,0.05 -1.2,0.35 -0.3,-0.05 -1.15,-3.25 q -0.45,-1.05 -1.15,-1.4 l -0.4,-0.15 0.05,-0.35 -0.5,0.3 h -0.05 l -0.75,0.45 -4.9,2.5 -2.25,0.7 Q 20.7,-2.9 19.9,-3.6 l -0.7,-0.75 11.4,-7 5.8,-3.8 m -6.5,-0.9 -1.35,0.9 0.15,-0.4 0.85,-0.7 q 0.75,-0.55 0.95,-1.55 0.15,-0.95 -0.25,-1.8 -0.8,-1.65 -3.8,-2.65 l 1.4,-0.95 0.2,0.15 q 0.85,0.5 2.8,0.7 l 6.25,0.65 q -3.45,3.25 -7.2,5.65 M -0.15,12.7 q -0.5,-0.85 -0.2,-1.9 0.3,-1.15 1.6,-1.95 L 3.5,7.65 Q 5.35,6.75 8.15,4.4 l 1.4,-0.95 1.8,0.05 q 1,0.3 1.55,1.15 0.6,0.95 0.2,1.9 -0.2,0.5 -1,1.2 L 12.05,7.85 11.9,7.8 11.35,7.9 10.95,8.15 Q 10.65,8.5 10.6,9.1 V 9.35 L 10.65,9.9 10.7,10.75 10.6,12 v 0.3 0.75 l 0.05,0.55 -0.1,0.45 q -0.15,0.55 -0.6,0.9 L 9.05,15.15 8.3,14.45 8.15,14.25 7.5,13.45 7.25,13.3 H 7.05 Q 6.75,13.1 6.4,13.05 H 6.2 L 5.8,13.2 5.6,13.3 Q 5.05,13.75 5,14.8 L 4.95,15.2 5.1,16.4 5.2,17.2 4.85,18.35 4.9,19.7 4.75,21 4.6,21.4 4.2,22.6 H 3.9 L 3.3,21.1 V 20.95 L 3.05,20 2.65,19.15 2.5,18.1 2.2,16.8 2.25,15.35 2.2,15.1 2.05,13.95 V 13.9 L 1.95,12.9 1.7,12.25 Q 1.35,11.8 0.75,11.9 0.15,12 -0.1,12.5 l -0.05,0.2 M -20.95,-0.05 -21,0.45 -21.4,0 l 0.45,-0.05 m -1.8,5.15 -14.8,-3.95 12.3,-0.8 0.55,1.3 0.85,0.95 0.65,0.55 1.8,0.95 2.65,0.4 h 1.8 l 0.9,-0.15 q 0.95,-0.25 2.4,-1.45 l 0.2,2.1 1.15,2.15 -2.8,-0.55 -0.95,-0.15 -6.7,-1.35 m 3.8,19.8 q -0.15,-1.2 0.4,-2.05 l 0.85,-0.6 1,-0.05 0.3,0.15 v 0.95 q 0.5,5.2 0.35,10.45 h -0.15 -0.85 l -0.75,-1.5 q -0.35,-0.95 -0.35,-3.75 -0.05,-2.4 -0.8,-3.6"
         fill="#5b2b2b"
         fill-rule="evenodd"
         stroke="none"
         id="path5" />
      <path
         d="m 32.85,-40.55 1.6,1.25 2.3,1.45 q 0.75,0.55 0.75,1.1 l -0.75,1 -0.65,0.55 -8.3,6.05 q -9.9,7 -21.5,14.05 l -7.1,4.2 -1.55,0.9 -3.95,2.15 -0.25,-0.8 -0.7,-1.55 q -0.3,-0.9 -0.3,-2.9 v -0.2 l 0.1,-0.15 0.4,-0.4 1.75,-1.5 1.15,-0.75 0.35,-0.5 0.85,-0.65 1.15,-1.1 1.4,-1.25 1.45,-1.15 q 0.6,-0.5 0.65,-0.85 l 0.05,-0.25 0.2,-0.15 2.5,-1 2.25,-1.55 q 3.3,-2.5 10.2,-6.75 l 5.45,-3.45 0.35,0.05 q 0.3,0 1.1,-0.35 l 5.75,-3.35 1.75,-1.05 1.5,-1.1 h 0.05 m -24,15.95 -1.2,0.9 -0.45,0.7 q -0.45,1.3 0.2,2.3 l 0.05,0.1 q 0.35,0.55 0.95,0.8 l 1.2,0.1 q 0.35,-0.05 1.4,-0.65 l 2.5,-1.45 q 0.65,-0.35 2.8,-1.85 l 2.9,-1.75 1.65,-0.8 q 0.9,-0.65 1.1,-1.4 l 0.15,-0.65 0.35,-0.45 q 0.25,-0.4 0.15,-0.95 l -0.1,-0.4 -0.4,-0.45 q -0.7,-0.55 -2.45,-0.35 l -1.85,0.4 -2.8,1.75 -1.45,1.2 -4.7,2.9"
         fill="#c4c4c4"
         fill-rule="evenodd"
         stroke="none"
         id="path6" />
      <path
         d="m -44.3,-8.55 1.05,-0.4 4.55,-0.55 4.65,0.1 h 0.85 l 3.55,-0.75 0.05,0.35 0.05,0.75 q 0.3,1.95 1.25,2.65 0.5,0.35 1.75,0.55 H -26 l 1.1,-0.15 0.6,-0.4 q 0.4,-0.4 0.6,-1.35 0.25,-1.5 0.1,-3 l -0.05,-0.4 h 0.15 l 0.05,0.4 0.1,0.15 0.55,0.2 1.15,-0.25 1.8,-0.05 2.5,-0.25 6.1,-1.05 0.15,0.05 0.15,0.65 0.35,1.7 0.55,1.45 0.5,1.1 -0.25,0.5 q -2.85,0.8 -7.6,1.3 l -24.3,2.55 -0.8,0.15 -1.3,-0.45 -0.3,-0.05 h -0.6 l -0.65,-0.2 -0.05,-0.05 v -0.05 l 0.1,-0.35 0.6,-2.8 0.4,-2.05"
         fill="#dcdcdc"
         fill-rule="evenodd"
         stroke="none"
         id="path7" />
      <path
         d="m 22.35,-34.75 -5.45,3.45 q -6.9,4.25 -10.2,6.75 l -2.25,1.55 -2.5,1 -0.2,0.15 -0.2,-0.55 -0.65,-0.4 q 0,0.1 -0.2,0.1 l -0.65,0.35 -4.15,2.85 q -1.65,1.15 -3.25,1.85 l -3.95,2 -0.15,0.2 h -0.1 q -6.85,2.15 -11.35,3.9 -0.5,0.2 -0.6,0.4 h -0.15 q -0.25,-1.5 -0.9,-3 v -0.05 l 0.2,-0.05 q 1.75,-0.45 4.4,-2.05 l 3.55,-2.05 3.15,-2.15 q 0.75,-0.7 1.2,-1.55 l 0.75,-1.7 q 0.35,-0.75 0,-1.8 l -0.7,-1.2 q -0.85,-0.8 -2.25,-0.7 -0.95,0.05 -2.25,0.7 l -3.3,1.95 q -2.3,1.5 -3.2,2 l -0.75,0.5 -1.3,0.45 -1.8,0.85 -1.65,1.5 q -1,1.3 -1,2.25 l 0.3,0.7 q 0.25,0.3 0.6,0.25 0.35,-0.05 0.7,-1 0.4,-0.85 1.5,-1.45 l -0.45,0.5 q -0.85,1.05 -0.85,1.95 v 0.15 l -0.6,0.65 -0.05,0.2 -0.35,-0.05 q -0.6,-0.05 -0.9,0.65 l -0.15,1.2 0.1,3.35 -3.55,0.75 h -0.85 l -4.65,-0.1 -4.55,0.55 -1.05,0.4 0.05,-0.35 q 0.65,-3.1 1.75,-4.9 1.05,-1.8 3.65,-3.95 4.45,-3.75 10.55,-7.75 l 11.25,-6.85 12.95,-7.7 q 3,-1.7 4.35,-2.1 l 6.2,-0.6 12.7,0.2 9.45,0.7 -0.25,0.2 -3.15,2.65 q -2,1.6 -3,2.8 -0.4,0.5 -0.35,0.9 0.05,0.45 0.5,0.55 m -10.35,-3 -0.25,-0.45 -1.05,-0.85 -1.4,-0.15 -1.15,0.4 -0.7,0.3 -0.45,0.05 q -1.4,0.35 -2.55,1.3 l -0.3,0.25 -0.45,0.3 q -0.55,0.5 -0.7,1.2 v 1 q 0.05,0.7 0.5,1.3 0.7,0.8 2.75,0.8 3.1,0.1 4.95,-0.75 0.9,-0.4 1.5,-0.95 1.05,-0.9 1.25,-1.85 l -0.1,-1.1 -0.7,-0.8 -1.1,-0.05 -0.05,0.05"
         fill="#ffffff"
         fill-rule="evenodd"
         stroke="none"
         id="path8" />
    </g>
    <g
       id="sprite1"
       transform="translate(17.4,15.85)">
      <use
         ffdec:characterId="31"
         height="57.200001"
         transform="matrix(0.5366,0,0,0.5366,-16.6582,-14.546)"
         width="70.75"
         xlink:href="#sprite2"
         id="use8" />
    </g>
    <g
       id="sprite2"
       transform="translate(-8.65,-10.35)">
      <use
         ffdec:characterId="30"
         height="57.200001"
         transform="translate(8.65,10.35)"
         width="70.75"
         xlink:href="#shape1"
         id="use9" />
    </g>
    <g
       id="shape1"
       transform="translate(-8.65,-10.35)">
      <path
         d="m 14.8,41.7 q 0.65,-1.75 2.65,-2.5 1.8,-0.8 3.7,-0.25 1.15,0.45 2.25,1.2 l 0.9,0.4 q 1.65,0.9 2.85,2.5 L 37.8,30.1 q 2.35,-2.8 3.75,-3.95 1.5,-1.15 4.25,-2.4 18.2,-8.85 27.65,-12.6 2.15,-0.8 3.25,-0.8 h 0.8 l 1.9,2.4 -0.2,0.8 q -0.2,1.1 -1.55,3 -5.85,8.25 -18.85,23.8 -1.85,2.35 -3.35,3.5 -1.4,1.15 -4.75,2.75 l -15.15,7.15 q 1.2,1.6 1.75,3.4 l 0.2,1 0.55,2.5 q 0.1,1.95 -1.1,3.55 -1.2,1.65 -3.05,1.9 l -1.3,0.05 q -1.65,0.2 -3.45,-0.65 -1.85,-0.9 -3,-2.6 L 25,60.95 23.8,62.1 q -2.6,2.85 -4.3,3.95 -2.85,1.8 -5.5,1.45 l -1.65,-0.5 -1.2,-0.7 -0.2,-0.2 q -1,-0.85 -1.6,-1.9 L 9.25,64 9.15,63.8 8.75,62.4 q -0.2,-0.8 -0.05,-1.7 0.25,-2.65 2.7,-5.05 1.5,-1.3 4.9,-3.15 L 17.7,51.55 16.05,50 q -1.35,-1.5 -1.8,-3.6 -0.4,-1.85 0.25,-3.45 l 0.3,-1.25"
         fill="#000000"
         fill-opacity="0.372549"
         fill-rule="evenodd"
         stroke="none"
         id="path9" />
    </g>
  </defs>
</svg>
