<?xml version="1.0" encoding="UTF-8" standalone="no"?>
<svg
   ffdec:objectType="frame"
   height="99.75"
   width="98.201851"
   version="1.1"
   id="svg6"
   xmlns:xlink="http://www.w3.org/1999/xlink"
   xmlns="http://www.w3.org/2000/svg"
   xmlns:svg="http://www.w3.org/2000/svg"
   xmlns:ffdec="https://www.free-decompiler.com/flash">
  <g
     transform="translate(49.301852,50.7)"
     id="g1">
    <use
       ffdec:characterId="17"
       height="119.15"
       id="rarity"
       transform="translate(-58.5,-60.65)"
       width="119.15"
       xlink:href="#sprite0" />
    <use
       ffdec:characterId="557"
       height="99.800003"
       transform="translate(-49.3,-50.7)"
       width="98.199997"
       xlink:href="#shape0"
       id="use1" />
  </g>
  <defs
     id="defs6">
    <g
       id="shape0"
       transform="translate(48.9,49.9)">
      <path
         d="m 49.15,-39.45 0.15,0.4 v 0.35 l -0.1,0.3 -0.05,0.2 -0.1,0.25 -0.1,0.25 -0.15,0.15 -0.25,0.15 -0.2,0.15 -0.05,0.2 -0.15,0.2 -0.25,0.1 -0.2,0.2 -0.15,0.15 -0.15,0.15 -0.15,0.15 -0.2,0.2 -0.15,0.15 -0.15,0.15 -0.2,0.2 -0.15,0.15 -0.15,0.2 -0.2,0.15 -0.15,0.15 -0.15,0.2 -0.2,0.15 -0.15,0.15 -0.15,0.2 -0.2,0.15 -0.15,0.15 -0.15,0.15 -0.2,0.2 -0.15,0.15 -0.15,0.2 -0.2,0.15 -0.15,0.2 -0.15,0.15 -0.15,0.15 -0.2,0.2 -0.15,0.15 -0.15,0.15 -0.15,0.15 -0.2,0.2 -0.15,0.15 -0.15,0.15 -0.2,0.2 -0.15,0.15 -0.15,0.2 -0.2,0.15 -0.15,0.2 -0.15,0.15 -0.2,0.15 -0.15,0.15 -0.15,0.2 -0.2,0.15 -0.15,0.15 -0.15,0.2 -0.2,0.15 -0.15,0.15 -0.15,0.2 -0.2,0.15 -0.15,0.2 -0.15,0.15 -0.15,0.15 -0.2,0.2 -0.15,0.15 -0.15,0.15 -0.15,0.15 -0.2,0.2 -0.15,0.15 -0.15,0.2 -0.2,0.15 -0.15,0.15 -0.15,0.2 -0.2,0.15 -0.15,0.2 -0.15,0.15 -0.2,0.15 -0.15,0.15 -0.15,0.2 -0.2,0.15 -0.15,0.15 -0.15,0.2 -0.2,0.15 -0.15,0.2 -0.15,0.15 -0.2,0.15 -0.15,0.2 -0.15,0.15 -0.15,0.15 -0.2,0.2 -0.15,0.15 -0.15,0.15 -0.15,0.2 -0.2,0.15 -0.15,0.15 -0.15,0.2 -0.2,0.15 -0.15,0.2 -0.15,0.15 -0.2,0.15 -0.15,0.2 -0.15,0.15 -0.2,0.15 -0.15,0.15 -0.15,0.2 -0.2,0.15 -0.15,0.2 -0.15,0.15 -0.2,0.15 -0.15,0.2 -0.15,0.15 -0.2,0.2 -0.15,0.15 -0.15,0.15 -0.15,0.15 -0.2,0.2 -0.15,0.15 -0.15,0.15 -0.15,0.2 -0.2,0.15 -0.15,0.15 -0.15,0.2 -0.2,0.15 -0.15,0.2 -0.15,0.15 -0.2,0.15 -0.15,0.2 -0.15,0.15 -0.2,0.15 -0.15,0.15 -0.15,0.2 -0.2,0.15 -0.15,0.2 -0.15,0.15 -0.2,0.15 -0.15,0.2 -0.15,0.15 -0.2,0.2 -0.15,0.15 -0.15,0.15 -0.15,0.15 -0.2,0.2 -0.15,0.15 -0.15,0.15 -0.2,0.2 -0.15,0.15 -0.2,0.1 -0.15,0.15 -0.2,0.15 -0.15,0.2 -0.15,0.15 -0.2,0.15 -0.15,0.2 -0.15,0.15 -0.2,0.15 -0.15,0.2 -0.15,0.15 -0.2,0.15 -0.15,0.2 -0.15,0.15 -0.2,0.2 -0.15,0.15 -0.15,0.15 -0.2,0.2 -0.15,0.15 -0.15,0.15 -0.15,0.15 -0.2,0.2 -0.15,0.15 -0.15,0.2 -0.2,0.15 -0.15,0.15 -0.15,0.2 -0.15,0.15 -0.2,0.2 -0.15,0.15 -0.15,0.15 -0.2,0.15 -0.15,0.2 -0.15,0.15 -0.2,0.15 -0.15,0.2 -0.15,0.15 -0.2,0.2 -0.15,0.15 -0.15,0.15 -0.2,0.2 -0.15,0.15 -0.15,0.15 -0.2,0.2 -0.15,0.15 -0.15,0.15 -0.15,0.15 -0.2,0.2 -0.15,0.15 -0.15,0.2 -0.2,0.15 -0.15,0.2 -0.15,0.15 -0.15,0.15 -0.2,0.2 -0.15,0.15 -0.15,0.15 -0.2,0.15 -0.15,0.2 -0.15,0.15 -0.2,0.15 -0.15,0.2 -0.15,0.15 -0.2,0.2 -0.15,0.15 -0.15,0.15 -0.2,0.2 -0.15,0.15 -0.15,0.15 -0.2,0.2 -0.15,0.15 -0.15,0.15 -0.15,0.2 -0.2,0.15 -0.15,0.15 -0.15,0.2 -0.2,0.15 -0.15,0.2 L 12.45,-1 12.3,-0.85 12.1,-0.65 11.95,-0.5 11.8,-0.35 11.6,-0.2 11.45,0 11.3,0.15 11.1,0.35 10.95,0.5 10.8,0.65 10.6,0.85 10.45,1 10.3,1.2 10.1,1.35 9.95,1.5 9.8,1.65 9.6,1.85 9.45,2 9.3,2.15 9.1,2.35 8.95,2.5 8.8,2.7 8.65,2.85 8.45,3 8.3,3.2 8.15,3.35 8,3.5 7.8,3.7 7.65,3.85 7.5,4 7.3,4.15 7.15,4.35 7,4.5 6.8,4.7 6.65,4.85 6.5,5.05 6.3,5.2 6.15,5.35 6,5.55 5.8,5.7 5.65,5.85 5.5,6 5.3,6.2 5.15,6.35 5,6.5 4.8,6.7 4.65,6.85 4.5,7.05 4.35,7.2 4.15,7.4 4,7.55 3.85,7.7 3.7,7.85 3.5,8.05 3.35,8.2 3.2,8.35 3,8.55 2.85,8.7 2.7,8.85 2.5,9.05 2.35,9.2 2.2,9.4 2,9.55 1.85,9.7 1.7,9.9 1.5,10.05 1.35,10.2 1.2,10.35 1,10.55 0.85,10.7 0.7,10.9 0.5,11.05 0.35,11.2 0.2,11.4 l -0.15,0.15 -0.2,0.2 -0.15,0.15 -0.15,0.15 -0.25,0.1 -0.2,0.2 -0.15,0.15 -0.15,0.15 -0.2,0.2 -0.15,0.15 -0.15,0.2 -0.2,0.15 -0.15,0.15 -0.15,0.2 -0.2,0.15 -0.15,0.15 -0.15,0.2 -0.2,0.15 -0.15,0.15 -0.15,0.15 -0.2,0.2 -0.15,0.15 -0.15,0.2 -0.2,0.15 -0.15,0.2 -0.15,0.15 -0.15,0.15 -0.2,0.2 -0.15,0.15 -0.15,0.15 -0.15,0.15 -0.2,0.2 -0.15,0.15 -0.15,0.15 -0.2,0.2 -0.15,0.15 -0.15,0.2 -0.2,0.15 -0.15,0.2 -0.15,0.15 -0.2,0.15 -0.15,0.15 -0.15,0.2 -0.2,0.15 -0.15,0.15 -0.15,0.2 -0.2,0.15 -0.15,0.15 -0.2,0.1 -0.2,0.15 -0.15,0.2 -0.15,0.15 -0.15,0.15 -0.2,0.2 -0.15,0.15 -0.15,0.15 -0.15,0.15 -0.2,0.2 -0.15,0.15 -0.15,0.2 -0.2,0.15 -0.15,0.15 -0.15,0.2 -0.2,0.15 -0.15,0.2 -0.15,0.15 -0.2,0.15 -0.15,0.15 -0.15,0.2 -0.2,0.15 -0.15,0.15 -0.15,0.2 -0.2,0.15 -0.15,0.2 -0.15,0.15 -0.2,0.15 -0.15,0.2 -0.15,0.15 -0.15,0.15 -0.2,0.2 -0.15,0.15 -0.15,0.15 -0.2,0.2 -0.15,0.15 -0.15,0.15 -0.15,0.2 -0.2,0.15 -0.15,0.2 -0.15,0.15 -0.2,0.15 -0.15,0.2 -0.15,0.15 -0.25,0.1 -0.15,0.15 -0.15,0.2 -0.2,0.15 -0.15,0.15 -0.15,0.2 -0.2,0.15 -0.15,0.2 -0.15,0.15 -0.2,0.2 -0.15,0.15 -0.15,0.15 -0.15,0.15 -0.2,0.2 -0.15,0.15 -0.15,0.15 -0.2,0.2 -0.15,0.15 -0.15,0.15 -0.15,0.2 -0.2,0.15 -0.15,0.2 -0.15,0.15 -0.2,0.15 -0.15,0.2 -0.15,0.15 -0.2,0.15 -0.15,0.15 -0.15,0.2 -0.2,0.15 -0.15,0.2 -0.15,0.15 -0.2,0.15 -0.15,0.2 -0.15,0.15 -0.2,0.2 -0.15,0.15 -0.15,0.15 -0.15,0.15 -0.2,0.2 -0.15,0.15 -0.15,0.15 -0.2,0.2 -0.15,0.15 -0.15,0.2 -0.15,0.15 -0.2,0.15 -0.15,0.2 -0.15,0.15 -0.2,0.15 -0.15,0.2 -0.15,0.15 -0.2,0.15 -0.15,0.2 -0.15,0.15 -0.2,0.15 -0.15,0.2 -0.05,0.05 -0.55,1 -1.35,1.7 -1.4,1.7 -1.15,1.75 -2.3,2.6 -3.35,3.4 -1.9,1.35 -2,0.15 -3.85,-0.85 q -1.7,-0.45 -2.55,-1.3 l -0.75,-1.25 -0.05,-0.55 -1.25,-1.4 -0.65,-0.8 0.15,-0.1 q -1.3,-2.15 -1.25,-3.65 l 0.4,-1.65 0.55,-0.65 v -0.1 l 0.2,-0.2 0.15,-0.15 0.15,-0.2 0.2,-0.15 0.15,-0.15 0.15,-0.2 0.2,-0.15 0.15,-0.15 0.15,-0.2 0.2,-0.15 0.15,-0.15 0.15,-0.15 0.2,-0.2 0.15,-0.15 0.15,-0.2 0.15,-0.15 0.2,-0.2 0.15,-0.15 0.15,-0.15 0.2,-0.2 0.15,-0.15 0.15,-0.15 0.15,-0.15 0.2,-0.2 0.15,-0.15 0.15,-0.15 0.2,-0.2 0.15,-0.15 0.15,-0.2 0.2,-0.15 0.15,-0.15 0.15,-0.2 0.2,-0.15 0.15,-0.15 0.15,-0.2 0.2,-0.15 0.15,-0.15 0.15,-0.2 0.2,-0.15 0.15,-0.15 0.15,-0.2 0.15,-0.15 0.2,-0.2 0.15,-0.15 0.15,-0.15 0.2,-0.2 0.15,-0.15 0.15,-0.15 0.15,-0.15 0.2,-0.2 0.15,-0.15 0.15,-0.2 0.2,-0.15 0.15,-0.15 0.15,-0.2 0.2,-0.15 0.15,-0.2 0.15,-0.15 0.2,-0.15 0.15,-0.15 0.15,-0.2 0.2,-0.15 0.15,-0.15 0.15,-0.2 0.2,-0.15 0.15,-0.2 0.15,-0.15 0.15,-0.15 0.2,-0.2 0.15,-0.15 0.15,-0.15 0.2,-0.2 0.15,-0.15 0.15,-0.15 0.15,-0.2 0.2,-0.15 0.15,-0.15 0.15,-0.2 0.2,-0.15 0.15,-0.2 0.15,-0.15 0.2,-0.15 0.15,-0.2 0.15,-0.15 0.2,-0.15 0.15,-0.15 0.15,-0.2 0.2,-0.15 0.15,-0.2 0.15,-0.15 0.2,-0.15 0.15,-0.2 0.15,-0.15 0.15,-0.15 0.2,-0.2 0.15,-0.15 0.15,-0.15 0.2,-0.2 0.15,-0.15 0.15,-0.15 0.15,-0.2 0.2,-0.15 0.15,-0.15 0.15,-0.2 0.2,-0.15 0.15,-0.2 0.15,-0.15 0.2,-0.15 0.15,-0.2 0.15,-0.15 0.2,-0.15 0.15,-0.15 0.15,-0.2 0.2,-0.15 0.15,-0.2 0.15,-0.15 0.2,-0.15 0.15,-0.2 0.15,-0.15 0.2,-0.2 0.15,-0.15 0.15,-0.15 0.15,-0.15 0.2,-0.2 0.15,-0.15 0.15,-0.15 0.15,-0.2 0.2,-0.15 0.15,-0.2 0.15,-0.15 0.2,-0.15 0.15,-0.2 0.15,-0.15 0.2,-0.15 0.15,-0.2 0.15,-0.15 0.2,-0.15 0.15,-0.2 0.15,-0.15 0.2,-0.15 0.15,-0.2 0.15,-0.15 0.2,-0.2 0.15,-0.15 0.15,-0.15 0.2,-0.2 0.15,-0.15 0.15,-0.15 0.15,-0.15 0.2,-0.2 0.15,-0.15 0.15,-0.2 0.15,-0.15 0.2,-0.15 0.15,-0.2 0.15,-0.15 0.2,-0.2 0.15,-0.15 0.15,-0.15 0.2,-0.15 0.15,-0.2 0.15,-0.15 0.2,-0.15 0.15,-0.2 0.15,-0.15 0.2,-0.2 0.15,-0.15 0.15,-0.15 0.2,-0.2 0.15,-0.15 0.15,-0.15 0.2,-0.2 0.15,-0.15 0.15,-0.15 0.15,-0.15 0.2,-0.2 0.15,-0.15 0.15,-0.2 0.15,-0.15 0.2,-0.2 0.15,-0.15 0.15,-0.15 0.2,-0.2 0.15,-0.15 0.15,-0.15 0.2,-0.15 0.15,-0.2 0.15,-0.15 0.2,-0.15 0.15,-0.2 0.15,-0.15 0.2,-0.2 0.15,-0.15 0.15,-0.15 0.2,-0.2 0.15,-0.15 0.15,-0.15 0.2,-0.2 0.15,-0.15 0.15,-0.15 0.15,-0.2 0.2,-0.15 0.15,-0.15 0.15,-0.2 0.15,-0.15 0.2,-0.2 0.15,-0.15 0.15,-0.15 0.2,-0.2 0.15,-0.15 0.15,-0.15 0.2,-0.15 0.15,-0.2 0.15,-0.15 0.2,-0.2 0.15,-0.15 0.15,-0.15 0.2,-0.2 0.15,-0.15 0.15,-0.2 0.2,-0.15 0.15,-0.15 0.15,-0.15 0.2,-0.2 0.15,-0.15 0.15,-0.15 0.15,-0.2 0.2,-0.15 0.15,-0.2 0.15,-0.15 0.15,-0.15 0.2,-0.2 0.15,-0.15 0.15,-0.15 0.2,-0.2 0.15,-0.15 0.15,-0.15 0.2,-0.15 0.15,-0.2 0.15,-0.15 0.2,-0.2 0.15,-0.15 0.15,-0.2 0.2,-0.15 0.15,-0.15 0.15,-0.2 0.2,-0.15 0.15,-0.15 0.15,-0.15 0.2,-0.2 0.15,-0.15 0.15,-0.15 0.15,-0.2 0.2,-0.15 0.15,-0.2 0.15,-0.15 0.2,-0.2 0.15,-0.15 0.15,-0.15 0.15,-0.15 0.2,-0.2 0.15,-0.15 0.15,-0.15 0.2,-0.2 0.15,-0.15 0.15,-0.15 0.2,-0.2 0.15,-0.15 0.15,-0.2 0.2,-0.15 0.15,-0.15 0.15,-0.2 0.2,-0.15 0.15,-0.15 0.15,-0.15 0.2,-0.2 0.15,-0.15 0.15,-0.2 0.15,-0.15 0.2,-0.15 0.15,-0.2 0.15,-0.15 0.2,-0.2 0.15,-0.15 0.15,-0.15 0.15,-0.15 0.2,-0.2 0.15,-0.15 0.15,-0.15 0.2,-0.2 0.15,-0.15 0.15,-0.2 0.2,-0.15 0.15,-0.15 0.15,-0.2 0.2,-0.15 0.15,-0.15 0.15,-0.2 0.2,-0.15 0.15,-0.15 0.15,-0.15 0.2,-0.2 0.15,-0.15 0.15,-0.2 0.15,-0.15 0.2,-0.2 0.15,-0.15 0.15,-0.15 0.2,-0.2 0.15,-0.15 0.15,-0.15 0.15,-0.15 0.2,-0.2 0.15,-0.15 0.15,-0.15 0.2,-0.2 0.15,-0.15 0.15,-0.2 0.2,-0.15 0.15,-0.2 0.15,-0.15 0.2,-0.15 0.15,-0.15 0.15,-0.2 0.2,-0.15 0.15,-0.15 0.15,-0.2 0.2,-0.15 0.15,-0.15 0.15,-0.2 0.15,-0.15 0.2,-0.2 0.15,-0.15 0.15,-0.15 0.2,-0.2 0.15,-0.15 0.15,-0.15 0.15,-0.15 0.2,-0.2 0.15,-0.15 0.15,-0.2 0.2,-0.15 0.15,-0.15 0.15,-0.2 0.2,-0.15 0.15,-0.2 0.15,-0.15 0.2,-0.15 0.15,-0.15 0.15,-0.2 0.2,-0.15 0.15,-0.15 0.15,-0.2 0.2,-0.15 0.15,-0.2 0.15,-0.15 0.2,-0.15 0.15,-0.2 0.15,-0.15 0.15,-0.15 0.2,-0.2 0.15,-0.15 0.15,-0.15 0.15,-0.15 0.2,-0.2 0.15,-0.15 0.15,-0.2 0.2,-0.15 0.15,-0.2 0.15,-0.15 0.2,-0.15 0.15,-0.2 0.15,-0.15 0.2,-0.15 0.15,-0.15 0.15,-0.2 0.2,-0.15 0.15,-0.15 0.15,-0.2 0.2,-0.15 0.15,-0.2 0.15,-0.15 0.2,-0.2 0.15,-0.15 0.15,-0.15 0.15,-0.15 0.2,-0.2 0.15,-0.15 0.15,-0.15 0.15,-0.2 0.2,-0.15 0.15,-0.15 0.15,-0.2 0.2,-0.15 0.15,-0.2 0.15,-0.15 0.2,-0.15 0.15,-0.2 0.15,-0.15 0.2,-0.15 0.15,-0.15 0.15,-0.2 0.2,-0.15 0.15,-0.2 0.15,-0.15 0.2,-0.15 0.15,-0.2 0.15,-0.15 0.2,-0.2 0.15,-0.15 0.15,-0.15 0.15,-0.15 0.2,-0.2 0.15,-0.15 0.15,-0.15 0.15,-0.2 0.2,-0.15 0.15,-0.2 0.15,-0.15 0.25,-0.05 0.15,-0.2 0.15,-0.15 0.2,-0.15 0.15,-0.2 0.15,-0.15 0.2,-0.15 0.15,-0.2 0.15,-0.15 0.2,-0.15 0.15,-0.2 0.15,-0.15 0.2,-0.2 0.15,-0.15 0.15,-0.15 0.2,-0.2 0.15,-0.15 0.15,-0.15 0.15,-0.15 0.2,-0.2 0.15,-0.15 0.15,-0.15 0.15,-0.2 0.2,-0.15 0.15,-0.2 0.15,-0.15 0.2,-0.2 0.15,-0.15 0.15,-0.15 0.2,-0.15 0.15,-0.2 0.15,-0.15 0.2,-0.15 0.15,-0.2 0.15,-0.15 0.2,-0.15 0.15,-0.2 0.15,-0.15 0.2,-0.2 0.15,-0.15 0.15,-0.15 0.2,-0.2 0.15,-0.15 0.15,-0.15 0.15,-0.15 0.2,-0.2 0.15,-0.15 0.15,-0.2 0.15,-0.15 0.2,-0.15 0.15,-0.2 0.15,-0.15 0.2,-0.2 0.15,-0.15 0.15,-0.15 0.2,-0.15 0.15,-0.2 0.15,-0.15 0.2,-0.15 0.15,-0.2 0.15,-0.15 0.3,-0.15 0.15,-0.15 0.15,-0.15 0.2,-0.2 0.15,-0.15 0.15,-0.15 0.2,-0.2 0.15,-0.15 0.15,-0.15 0.15,-0.2 0.2,-0.15 0.15,-0.15 0.15,-0.2 0.2,-0.15 0.15,-0.2 0.15,-0.15 0.15,-0.15 0.2,-0.2 0.15,-0.15 0.15,-0.15 0.2,-0.15 0.15,-0.2 0.15,-0.15 0.2,-0.2 0.15,-0.15 0.15,-0.15 0.2,-0.2 0.15,-0.15 0.15,-0.2 0.2,-0.15 0.15,-0.15 0.15,-0.15 0.2,-0.2 0.15,-0.15 0.15,-0.15 0.15,-0.2 0.2,-0.15 0.15,-0.2 0.15,-0.15 0.2,-0.15 0.15,-0.2 0.2,-0.05 0.15,-0.15 0.35,-0.1 h 0.3 l 0.35,0.1 0.55,0.2 0.5,0.2 0.6,0.4 0.6,0.25 0.45,0.15 0.25,0.15 0.25,0.3 0.1,-0.1 0.35,0.2 0.65,0.55 0.05,-0.05 2.9,2.85 0.5,0.7 0.25,0.45 0.1,0.25 -0.1,0.1 0.2,0.15 -0.15,0.15 0.4,0.6 0.25,0.55 0.2,0.5 0.15,0.55 0.05,0.35 0.2,0.55 0.05,0.2 0.05,0.15 m -22.75,14.15 0.45,-0.45 q 0.55,-0.4 0.6,-0.55 l 0.3,-0.75 0.7,-1.2 2.75,-3.05 2.8,-3.1 q 0.65,-1 1.1,-1.1 h 0.75 l 0.8,0.15 0.25,0.05 1.2,-0.2 1.85,-0.2 2.55,-2.55 2.25,-2.3 -0.1,-0.25 0.15,-0.2 -0.05,-0.2 -0.3,-0.3 -0.3,-0.3 -0.55,-0.8 -1.65,-1.6 H 41.7 l -1.05,-0.9 -28.5,28.9 -4.1,4.15 -0.5,0.5 0.85,0.65 3.6,3.25 0.1,0.2 0.1,-0.1 0.15,-0.15 0.15,-0.2 0.2,-0.15 0.15,-0.15 0.15,-0.15 0.2,-0.2 0.15,-0.15 0.15,-0.15 0.15,-0.2 0.2,-0.15 0.15,-0.2 0.15,-0.15 0.2,-0.2 0.15,-0.15 0.15,-0.15 0.15,-0.15 0.2,-0.2 0.15,-0.15 0.15,-0.15 0.2,-0.2 0.15,-0.15 0.15,-0.15 0.2,-0.2 0.15,-0.15 0.15,-0.2 0.2,-0.15 0.15,-0.15 0.15,-0.2 0.2,-0.15 0.15,-0.15 0.15,-0.15 0.2,-0.2 0.15,-0.15 0.15,-0.2 0.15,-0.15 0.2,-0.15 0.15,-0.2 0.15,-0.15 0.2,-0.2 0.15,-0.15 0.15,-0.15 0.15,-0.15 0.2,-0.2 0.15,-0.15 0.15,-0.15 0.2,-0.2 0.15,-0.15 0.15,-0.2 0.2,-0.15 0.15,-0.15 0.15,-0.2 0.2,-0.15 0.15,-0.15 0.15,-0.2 0.2,-0.15 0.15,-0.15 0.15,-0.2 0.2,-0.15 0.15,-0.15 v -0.1 l 15.15,-15.3 -0.45,-0.1 -0.7,0.05 q -0.45,0.05 -1.1,0.65 l -2.5,2.6 -2.65,2.35 -0.6,0.55 -0.2,0.5 q -0.15,0.55 -1,1.4 -0.55,0.55 -1.05,0.5 -0.25,-0.05 -0.35,-0.35 -0.15,-0.2 -0.15,-0.45 l 0.05,-0.2 M 8.15,-8.1 7.3,-8.7 6.9,-9 6.7,-9.2 l -1,-0.5 -1,1 0.3,0.3 1.8,2.2 1,1.55 0.05,0.05 0.4,1 L 8.4,-3.7 8.55,-3.85 8.7,-4 l 0.2,-0.2 0.05,-0.05 0.1,-0.1 0.15,-0.15 0.15,-0.2 0.2,-0.15 0.15,-0.2 0.15,-0.15 0.2,-0.15 0.15,-0.2 0.15,-0.15 0.1,-0.1 L 10,-6.25 9.2,-7.1 8.7,-7.65 8.15,-8.1 M 4.8,-4.65 3.9,-5.75 2.95,-6.9 -1.25,-2.6 -0.4,-2.25 1,-1.3 1.9,-0.6 3.7,0.8 3.85,0.9 3.9,0.8 4.1,0.65 4.25,0.5 4.4,0.35 4.6,0.15 4.75,0 4.9,-0.15 5.05,-0.35 5.25,-0.5 5.4,-0.65 5.55,-0.85 5.7,-1 5.9,-1.2 6.05,-1.35 6.2,-1.5 6.05,-1.9 5.7,-3.05 5.4,-3.7 4.8,-4.65 M -3.35,2.8 q 0.5,0.3 0.9,0.7 L -1.35,4.45 -0.5,5.3 -0.4,5.2 -0.2,5 -0.05,4.85 0.1,4.7 0.3,4.5 0.45,4.35 0.6,4.2 0.75,4.05 0.95,3.85 1.1,3.7 1.25,3.5 1.4,3.35 1.6,3.15 1.75,3 1.9,2.85 H 1.95 L 1.45,2.4 1,2.05 0.15,1.15 -0.75,0.3 l -0.5,-0.4 -1.5,-0.85 -0.1,-0.1 -2.55,2.6 Q -4.25,2.1 -3.35,2.8 M -5.1,4.55 -6.45,3.9 -7.45,3.6 -8.8,5 l 0.35,0.45 0.25,0.65 0.6,1 0.15,0.3 q 0.35,0.8 0.5,2.2 l 0.05,0.55 0.2,1.65 0.1,-0.15 0.2,-0.2 L -6.25,11.3 -6.1,11.15 -5.9,11 -5.75,10.8 -5.6,10.65 -5.4,10.5 -5.25,10.3 -5.1,10.15 -4.9,10 -4.75,9.8 -4.6,9.65 -4.4,9.45 -4.25,9.3 -4.1,9.15 -4,8.85 -3.85,8.7 -3.7,8.55 -3.55,8.4 -3.35,8.2 -3.2,8.05 -3.05,7.85 -2.9,7.7 -2.7,7.55 -2.55,7.35 -2.4,7.2 -2.2,7 -2.05,6.85 -1.9,6.7 -1.75,6.6 -1.95,6.45 -2.75,5.95 Q -4.1,5 -5.1,4.55 m -4.45,4.5 -0.2,-0.65 -0.9,-1.5 -7.25,7.35 2.45,0.9 0.15,0.05 q 1.35,0.45 2.35,0.85 l 1.55,0.6 0.05,-0.1 0.2,-0.15 0.1,-0.25 0.15,-0.15 0.2,-0.15 0.15,-0.2 0.15,-0.15 0.2,-0.15 0.15,-0.2 0.15,-0.15 0.2,-0.15 0.15,-0.15 0.15,-0.2 0.2,-0.15 0.15,-0.2 L -8.9,14 -9.15,12.45 -9.2,12.4 -9.45,10.9 -9.5,9.6 -9.55,9.05 m -8.25,8.5 2.1,2.2 0.6,0.6 0.15,-0.1 0.15,-0.2 0.15,-0.15 0.2,-0.15 0.15,-0.2 0.15,-0.15 0.2,-0.15 0.15,-0.15 0.15,-0.2 0.2,-0.15 0.15,-0.2 0.15,-0.15 -4.2,-1.35 -0.75,-0.25 -0.55,-0.1 0.85,0.85 m -3.65,5.9 0.65,0.1 2.05,0.1 h 0.4 l 0.1,-0.05 0.15,-0.15 0.15,-0.2 0.2,-0.15 0.15,-0.15 0.15,-0.2 0.2,-0.15 0.15,-0.2 0.15,-0.15 0.15,-0.15 0.2,-0.2 0.15,-0.15 0.15,-0.15 0.15,-0.1 -0.25,-0.15 -1.15,-0.65 -0.15,-0.05 -1.45,-1.15 -0.25,-0.2 -1.8,-1.7 -4,4 q 0.8,1.1 2.85,1.6 l 0.9,0.25 m -14.25,13.6 q 0.25,0.4 -0.35,1 l -2.65,2.8 q -1.2,1.2 -1.55,2.1 l -0.65,2.05 0.55,0.25 0.2,-0.2 0.25,0.1 0.25,-0.25 h 0.1 l 0.75,0.1 0.15,-0.15 0.2,-0.2 0.15,-0.15 0.15,-0.15 0.15,-0.2 0.2,-0.15 0.15,-0.2 0.15,-0.15 0.15,-0.15 0.2,-0.2 0.15,-0.15 0.15,-0.15 0.2,-0.2 0.15,-0.15 0.15,-0.15 0.2,-0.2 0.15,-0.15 0.15,-0.15 0.15,-0.25 0.15,-0.15 0.15,-0.2 0.2,-0.15 0.15,-0.15 0.15,-0.2 0.2,-0.15 0.15,-0.15 0.15,-0.15 0.2,-0.2 0.15,-0.15 0.15,-0.2 0.15,-0.15 0.2,-0.15 0.05,-0.3 0.15,-0.15 0.15,-0.15 0.2,-0.2 0.15,-0.15 0.15,-0.15 0.2,-0.2 0.15,-0.15 0.1,-0.1 0.05,-0.05 0.2,-0.2 0.15,-0.15 0.15,-0.2 0.2,-0.15 0.15,-0.15 0.15,-0.2 0.2,-0.15 0.15,-0.15 0.15,-0.2 0.2,-0.15 0.15,-0.15 0.15,-0.15 0.2,-0.2 0.15,-0.15 0.1,-0.25 0.15,-0.15 0.2,-0.2 0.15,-0.15 0.15,-0.15 0.2,-0.2 0.15,-0.15 0.15,-0.15 0.15,-0.15 0.2,-0.2 0.15,-0.15 0.15,-0.15 0.2,-0.2 0.15,-0.15 0.15,-0.2 0.2,-0.15 0.15,-0.15 0.15,-0.2 0.2,-0.15 0.15,-0.15 0.15,-0.2 0.2,-0.15 0.15,-0.15 0.15,-0.2 0.2,-0.15 0.15,-0.15 0.15,-0.2 0.15,-0.15 0.2,-0.2 0.15,-0.15 0.15,-0.15 0.2,-0.2 0.15,-0.15 0.15,-0.15 0.15,-0.15 0.2,-0.2 0.15,-0.15 0.15,-0.2 0.2,-0.15 0.15,-0.15 0.15,-0.2 0.2,-0.15 0.15,-0.2 0.15,-0.15 0.2,-0.15 0.15,-0.15 0.15,-0.2 0.2,-0.15 0.15,-0.15 0.15,-0.2 0.2,-0.15 0.15,-0.2 0.15,-0.15 0.15,-0.15 0.05,-0.05 -0.65,-0.2 -0.25,-0.1 q -1.4,-0.4 -2.4,-1.1 l -2.15,-1.95 -0.1,-0.2 -2,2 -16.1,16.3 0.35,0.6 0.45,0.45 0.15,0.1 0.3,0.45 0.25,-0.4 0.15,-0.25 1.45,-1.1 2.3,-2 2.2,-2.15 q 0.6,-0.6 1.1,-0.15 l 0.2,0.25"
         fill="#000000"
         fill-rule="evenodd"
         stroke="none"
         id="path1" />
      <path
         d="m 36.9,-35.3 -0.25,-0.05 -0.8,-0.15 H 35.1 q -0.45,0.1 -1.1,1.1 l -2.8,3.1 -2.75,3.05 -0.7,1.2 -0.3,0.75 q -0.05,0.15 -0.6,0.55 l -0.45,0.45 -8.5,7 -2.35,1.5 q -1.4,0.7 -2.8,0.65 l -0.6,-0.05 28.5,-28.9 1.05,0.9 h 0.25 l 1.65,1.6 0.55,0.8 0.3,0.3 0.3,0.3 0.05,0.2 -0.15,0.2 0.1,0.25 -2.25,2.3 q -0.8,-0.4 -1.7,-1.2 l -3.9,4.15 m -65.4,60.25 q 0.85,0.45 1.4,1.2 l 0.4,0.6 0.2,0.8 v 0.2 l -0.5,1.2 -2.2,2.55 -2.5,2.15 -4,3.4 -0.2,-0.25 q -0.5,-0.45 -1.1,0.15 l -2.2,2.15 -2.3,2 -1.45,1.1 -0.15,0.25 -0.55,-0.05 -0.15,-0.1 -0.45,-0.45 -0.35,-0.6 16.1,-16.3"
         fill="#9a7b6a"
         fill-rule="evenodd"
         stroke="none"
         id="path2" />
      <path
         d="m 36.9,-35.3 3.9,-4.15 q 0.9,0.8 1.7,1.2 l -2.55,2.55 -1.85,0.2 -1.2,0.2 m -24.75,19.1 0.6,0.05 q 1.4,0.05 2.8,-0.65 l 2.35,-1.5 8.5,-7 -0.05,0.2 q 0,0.25 0.15,0.45 0.1,0.3 0.35,0.35 0.5,0.05 1.05,-0.5 0.85,-0.85 1,-1.4 l 0.2,-0.5 0.6,-0.55 2.65,-2.35 2.5,-2.6 q 0.65,-0.6 1.1,-0.65 l 0.7,-0.05 0.45,0.1 -15.15,15.3 v 0.1 l -0.15,0.15 -0.2,0.15 -0.15,0.2 -0.15,0.15 -0.2,0.15 -0.15,0.2 -0.15,0.15 -0.2,0.15 -0.15,0.2 -0.15,0.15 -0.2,0.15 -0.15,0.2 -0.15,0.15 -0.2,0.2 -0.15,0.15 -0.15,0.15 -0.2,0.2 -0.15,0.15 -0.15,0.15 -0.15,0.15 -0.2,0.2 -0.15,0.15 -0.15,0.2 -0.2,0.15 -0.15,0.15 -0.15,0.2 -0.15,0.15 -0.2,0.2 -0.15,0.15 -0.15,0.15 -0.2,0.15 -0.15,0.2 -0.15,0.15 -0.2,0.15 -0.15,0.2 -0.15,0.15 -0.2,0.2 -0.15,0.15 -0.15,0.15 -0.2,0.2 -0.15,0.15 -0.15,0.15 -0.2,0.2 -0.15,0.15 -0.15,0.15 -0.15,0.15 -0.2,0.2 -0.15,0.15 -0.15,0.2 -0.2,0.15 -0.15,0.2 -0.15,0.15 -0.15,0.15 -0.2,0.2 -0.15,0.15 -0.15,0.15 -0.2,0.15 -0.15,0.2 -0.15,0.15 -0.1,0.1 -0.1,-0.2 -3.6,-3.25 -0.35,-1.15 4.1,-4.15 m -40.65,41.15 2,-2 0.1,0.2 2.15,1.95 q 1,0.7 2.4,1.1 l 0.25,0.1 0.65,0.2 -0.05,0.05 -0.15,0.15 -0.15,0.15 -0.15,0.2 -0.2,0.15 -0.15,0.2 -0.15,0.15 -0.2,0.15 -0.15,0.2 -0.15,0.15 -0.2,0.15 -0.15,0.15 -0.15,0.2 -0.2,0.15 -0.15,0.2 -0.15,0.15 -0.2,0.15 -0.15,0.2 -0.15,0.15 -0.2,0.2 -0.15,0.15 -0.15,0.15 -0.15,0.15 -0.2,0.2 -0.15,0.15 -0.15,0.15 -0.2,0.2 -0.15,0.15 -0.15,0.2 -0.15,0.15 -0.2,0.15 -0.15,0.2 -0.15,0.15 -0.2,0.15 -0.15,0.2 -0.15,0.15 -0.2,0.15 -0.15,0.2 -0.15,0.15 -0.2,0.15 -0.15,0.2 -0.15,0.15 -0.2,0.2 -0.15,0.15 -0.15,0.15 -0.2,0.2 -0.15,0.15 -0.15,0.15 -0.15,0.15 -0.2,0.2 -0.15,0.15 -0.15,0.15 -0.2,0.2 -0.15,0.15 -0.1,0.25 -0.15,0.15 -0.2,0.2 -0.15,0.15 -0.15,0.15 -0.2,0.15 -0.15,0.2 -0.15,0.15 -0.2,0.15 -0.15,0.2 -0.15,0.15 -0.2,0.15 -0.15,0.2 -0.15,0.15 -0.2,0.2 -0.05,0.05 -0.1,0.1 -0.15,0.15 -0.2,0.2 -0.15,0.15 -0.15,0.15 -0.2,0.2 -0.15,0.15 -0.15,0.15 -0.05,0.3 -0.2,0.15 -0.15,0.15 -0.15,0.2 -0.15,0.15 -0.2,0.2 -0.15,0.15 -0.15,0.15 -0.2,0.15 -0.15,0.2 -0.15,0.15 -0.2,0.15 -0.15,0.2 -0.15,0.15 -0.15,0.25 -0.15,0.15 -0.15,0.15 -0.2,0.2 -0.15,0.15 -0.15,0.15 -0.2,0.2 -0.15,0.15 -0.15,0.15 -0.2,0.2 -0.15,0.15 -0.15,0.15 -0.15,0.2 -0.2,0.15 -0.15,0.2 -0.15,0.15 -0.15,0.15 -0.2,0.2 -0.15,0.15 -0.75,-0.1 h -0.1 l -0.25,0.25 -0.25,-0.1 -0.2,0.2 -0.55,-0.25 0.65,-2.05 q 0.35,-0.9 1.55,-2.1 l 2.65,-2.8 q 0.6,-0.6 0.35,-1 l 4,-3.4 2.5,-2.15 2.2,-2.55 0.5,-1.2 v -0.2 l -0.2,-0.8 -0.4,-0.6 q -0.55,-0.75 -1.4,-1.2 m -14.6,17.5 -0.25,0.4 -0.3,-0.45 0.55,0.05"
         fill="#7a5e4e"
         fill-rule="evenodd"
         stroke="none"
         id="path3" />
      <path
         d="M 6.8,-6.2 8.4,-6.95 8.9,-7.1 h 0.3 l 0.8,0.85 0.45,0.45 -0.1,0.1 -0.15,0.15 -0.15,0.2 -0.2,0.15 -0.15,0.15 -0.15,0.2 -0.2,0.15 -0.15,0.2 -0.15,0.15 -0.1,0.1 L 8.9,-4.2 8.7,-4 8.55,-3.85 8.4,-3.7 8.25,-3.6 7.85,-4.6 7.8,-4.65 6.8,-6.2 m 1.9,-1.45 -0.1,0.1 H 8.45 L 8,-7.8 7.9,-7.65 7.6,-8.1 H 7.8 8.15 L 8.7,-7.65 M 1,-1.3 4.8,-4.65 5.4,-3.7 5.7,-3.05 6.05,-1.9 6.2,-1.5 6.05,-1.35 5.9,-1.2 5.7,-1 5.55,-0.85 5.4,-0.65 5.25,-0.5 5.05,-0.35 4.9,-0.15 4.75,0 4.6,0.15 4.4,0.35 4.25,0.5 4.1,0.65 3.9,0.8 3.85,0.9 3.7,0.8 1.9,-0.6 1,-1.3 M -0.75,0.3 0.15,1.15 1,2.05 1.45,2.4 1.95,2.85 H 1.9 L 1.75,3 1.6,3.15 1.4,3.35 1.25,3.5 1.1,3.7 0.95,3.85 0.75,4.05 0.6,4.2 0.45,4.35 0.3,4.5 0.1,4.7 -0.05,4.85 -0.2,5 -0.4,5.2 -0.5,5.3 -1.35,4.45 -2.45,3.5 q -0.4,-0.4 -0.9,-0.7 l 1.5,-1.5 1.1,-1 M -7.6,7.1 -5.1,4.55 q 1,0.45 2.35,1.4 l 0.8,0.5 0.2,0.15 L -1.9,6.7 -2.05,6.85 -2.2,7 -2.4,7.2 -2.55,7.35 -2.7,7.55 -2.9,7.7 -3.05,7.85 -3.2,8.05 -3.35,8.2 -3.55,8.4 -3.7,8.55 -3.85,8.7 -4,8.85 -4.1,9.15 -4.25,9.3 -4.4,9.45 -4.6,9.65 -4.75,9.8 -4.9,10 -5.1,10.15 -5.25,10.3 -5.4,10.5 -5.6,10.65 -5.75,10.8 -5.9,11 -6.1,11.15 -6.25,11.3 -6.4,11.45 -6.6,11.65 -6.7,11.8 -6.9,10.15 -6.95,9.6 Q -7.1,8.2 -7.45,7.4 L -7.6,7.1 m -7.85,8.05 5.9,-6.1 0.05,0.55 0.05,1.3 0.25,1.5 0.05,0.05 0.25,1.55 -0.15,0.15 -0.15,0.2 -0.2,0.15 -0.15,0.2 -0.15,0.15 -0.2,0.15 -0.15,0.15 -0.15,0.2 -0.2,0.15 -0.15,0.15 -0.15,0.2 -0.2,0.15 -0.15,0.15 -0.1,0.25 -0.2,0.15 -0.05,0.1 -1.55,-0.6 q -1,-0.4 -2.35,-0.85 l -0.15,-0.05 m -1.9,1.9 4.2,1.35 -0.15,0.15 -0.15,0.2 -0.2,0.15 -0.15,0.2 -0.15,0.15 -0.2,0.15 -0.15,0.15 -0.15,0.2 -0.2,0.15 -0.15,0.15 -0.15,0.2 -0.15,0.1 -0.6,-0.6 -2.1,-2.2 0.25,-0.25 0.2,-0.25 m -2.05,2.25 0.25,0.2 1.45,1.15 0.15,0.05 1.15,0.65 0.25,0.15 -0.15,0.1 -0.15,0.15 -0.15,0.15 -0.2,0.2 -0.15,0.15 -0.15,0.15 -0.15,0.2 -0.2,0.15 -0.15,0.2 -0.15,0.15 -0.2,0.15 -0.15,0.2 -0.15,0.15 -0.1,0.05 h -0.4 l -2.05,-0.1 -0.65,-0.1 -0.15,-0.3 q -0.35,-1.2 1.1,-2.65 l 1.1,-1.2"
         fill="#adadad"
         fill-rule="evenodd"
         stroke="none"
         id="path4" />
      <path
         d="M 6.8,-6.2 5,-8.4 4.7,-8.7 l 1,-1 1,0.5 0.2,0.2 0.4,0.3 0.85,0.6 H 7.8 7.6 L 7.9,-7.65 8,-7.8 8.45,-7.55 H 8.6 l 0.1,-0.1 0.5,0.55 H 8.9 L 8.4,-6.95 6.8,-6.2 m -2,1.55 -3.8,3.35 -1.4,-0.95 -0.85,-0.35 4.2,-4.3 0.95,1.15 0.9,1.1 m -5.55,4.95 -1.1,1 -1.5,1.5 Q -4.25,2.1 -5.4,1.55 l 2.55,-2.6 0.1,0.1 1.5,0.85 0.5,0.4 M -7.6,7.1 -8.2,6.1 -8.45,5.45 -8.8,5 l 1.35,-1.4 1,0.3 1.35,0.65 -2.5,2.55 m -7.85,8.05 -2.45,-0.9 7.25,-7.35 0.9,1.5 0.2,0.65 -5.9,6.1 m -1.9,1.9 -0.2,0.25 -0.25,0.25 -0.85,-0.85 0.55,0.1 0.75,0.25 m -2.05,2.25 -1.1,1.2 q -1.45,1.45 -1.1,2.65 l 0.15,0.3 -0.9,-0.25 q -2.05,-0.5 -2.85,-1.6 l 4,-4 1.8,1.7"
         fill="#dddddd"
         fill-rule="evenodd"
         stroke="none"
         id="path5" />
    </g>
    <g
       id="sprite1"
       transform="translate(17.4,15.85)">
      <use
         ffdec:characterId="31"
         height="57.200001"
         transform="matrix(0.5366,0,0,0.5366,-16.6582,-14.546)"
         width="70.75"
         xlink:href="#sprite2"
         id="use5" />
    </g>
    <g
       id="sprite2"
       transform="translate(-8.65,-10.35)">
      <use
         ffdec:characterId="30"
         height="57.200001"
         transform="translate(8.65,10.35)"
         width="70.75"
         xlink:href="#shape1"
         id="use6" />
    </g>
    <g
       id="shape1"
       transform="translate(-8.65,-10.35)">
      <path
         d="m 14.8,41.7 q 0.65,-1.75 2.65,-2.5 1.8,-0.8 3.7,-0.25 1.15,0.45 2.25,1.2 l 0.9,0.4 q 1.65,0.9 2.85,2.5 L 37.8,30.1 q 2.35,-2.8 3.75,-3.95 1.5,-1.15 4.25,-2.4 18.2,-8.85 27.65,-12.6 2.15,-0.8 3.25,-0.8 h 0.8 l 1.9,2.4 -0.2,0.8 q -0.2,1.1 -1.55,3 -5.85,8.25 -18.85,23.8 -1.85,2.35 -3.35,3.5 -1.4,1.15 -4.75,2.75 l -15.15,7.15 q 1.2,1.6 1.75,3.4 l 0.2,1 0.55,2.5 q 0.1,1.95 -1.1,3.55 -1.2,1.65 -3.05,1.9 l -1.3,0.05 q -1.65,0.2 -3.45,-0.65 -1.85,-0.9 -3,-2.6 L 25,60.95 23.8,62.1 q -2.6,2.85 -4.3,3.95 -2.85,1.8 -5.5,1.45 l -1.65,-0.5 -1.2,-0.7 -0.2,-0.2 q -1,-0.85 -1.6,-1.9 L 9.25,64 9.15,63.8 8.75,62.4 q -0.2,-0.8 -0.05,-1.7 0.25,-2.65 2.7,-5.05 1.5,-1.3 4.9,-3.15 L 17.7,51.55 16.05,50 q -1.35,-1.5 -1.8,-3.6 -0.4,-1.85 0.25,-3.45 l 0.3,-1.25"
         fill="#000000"
         fill-opacity="0.372549"
         fill-rule="evenodd"
         stroke="none"
         id="path6" />
    </g>
  </defs>
</svg>
