<?xml version="1.0" encoding="UTF-8" standalone="no"?>
<svg
   ffdec:objectType="frame"
   height="88.144447"
   width="86.741219"
   version="1.1"
   id="svg6"
   sodipodi:docname="ITEM Phoenix Mask.svg"
   xmlns:inkscape="http://www.inkscape.org/namespaces/inkscape"
   xmlns:sodipodi="http://sodipodi.sourceforge.net/DTD/sodipodi-0.dtd"
   xmlns:xlink="http://www.w3.org/1999/xlink"
   xmlns="http://www.w3.org/2000/svg"
   xmlns:svg="http://www.w3.org/2000/svg"
   xmlns:ffdec="https://www.free-decompiler.com/flash">
  <sodipodi:namedview
     id="namedview6"
     pagecolor="#ffffff"
     bordercolor="#000000"
     borderopacity="0.25"
     inkscape:showpageshadow="2"
     inkscape:pageopacity="0.0"
     inkscape:pagecheckerboard="0"
     inkscape:deskcolor="#d1d1d1"
     fit-margin-top="5"
     fit-margin-left="5"
     fit-margin-right="5"
     fit-margin-bottom="5" />
  <g
     transform="translate(48.716216,41.294444)"
     id="g1">
    <use
       ffdec:characterId="17"
       height="119.15"
       id="rarity"
       transform="translate(-58.5,-60.65)"
       width="119.15"
       xlink:href="#sprite0" />
    <use
       ffdec:characterId="1029"
       height="88.150002"
       transform="translate(-48.7,-41.3)"
       width="86.699997"
       xlink:href="#shape0"
       id="use1" />
  </g>
  <defs
     id="defs6">
    <g
       id="shape0"
       transform="translate(95.5,42.65)">
      <path
         d="m -57.25,-37.9 q 0.55,0.65 0.35,2.05 -0.15,1.45 -0.65,3.25 -2.25,8.35 -10.4,14.25 l -3,1.8 -0.95,0.7 q -0.65,0.45 -1.6,0.8 l -1.7,0.65 -4.55,0.6 q -1.15,0 -1.6,-0.35 -0.45,-0.35 -0.5,-1 l 0.2,-1.15 0.65,-0.95 0.75,-0.85 1.9,-2.2 1.2,-1.25 2,-2.65 1.75,-2.6 0.7,-0.75 q 0.4,-0.25 0.95,0 l 0.6,0.5 0.45,0.3 1,0.3 -0.55,-2.65 -0.05,-0.25 -0.5,-0.65 q -0.15,-0.65 0.65,-1.65 l 3.3,-3.45 1.15,-1.15 0.75,-1 0.95,-0.75 0.8,-0.1 2.9,-0.05 1.65,-2.05 2.3,-1.75 1.25,-0.65 q 0.9,-0.2 1.2,0.5 0.25,0.55 -0.25,1.35 l -1.15,1.3 -1.8,1.3 -0.2,0.15 0.05,0.1 m 23.7,15.15 q 0.8,-0.05 1.15,0.35 0.55,0.8 -0.4,1.95 l -0.4,0.45 4.7,-3.5 0.95,-0.4 0.45,0.4 0.05,0.55 -0.6,0.75 -1,1.2 -0.9,1.25 -1.25,1.2 h 1.65 q 1.55,0.2 2.2,1 l 1.05,-0.95 3.2,-2.9 0.95,-0.6 q 0.4,-0.05 0.75,0.25 0.4,0.35 0.3,0.8 -0.05,0.35 -0.55,0.85 l -2.75,3.15 -1.3,1.4 0.4,0.25 q 1.1,0.85 1.45,2 l 0.4,0.35 q 0.4,0.45 0.45,1.05 0.05,0.8 -0.55,2.2 l -0.75,1.8 h 0.1 l 0.3,0.1 2.45,-4.4 2.65,-4.4 0.45,-0.55 q 0.5,-0.2 0.65,0.2 l -0.25,0.7 -0.2,0.85 q -0.15,0.9 -0.65,1.95 l -0.75,1.65 -0.85,2.3 -0.05,0.55 0.65,-0.75 q 1.1,-1.2 2,-0.9 l 0.15,0.1 0.65,-0.25 2.35,0.15 2.6,-5.6 0.9,-1.65 0.85,-0.4 0.85,0.25 q 0.55,0.55 0,1.9 l -2.2,4.9 0.6,0.45 q 0.45,0.45 0.75,1.75 0.55,2.4 0.3,4.05 -0.2,1.45 -1.3,3.8 l -1.95,4.15 -1.6,2.6 0.15,0.8 q 0.45,7.15 -0.55,14.55 -0.85,6.3 -3.05,9.45 -1,1.55 -3.25,3.7 l -5.3,4.7 q -3.05,2.4 -5.15,3.1 l -2.6,0.5 -2.65,0.2 Q -41.2,43 -48.1,45.05 l -1.95,0.35 q -0.85,-0.05 -1.3,-0.5 l -0.8,-0.1 -0.9,-0.8 -0.15,-1.2 q 0.25,-0.75 1.25,-1.55 l 5.3,-4.5 5.5,-4.2 q 2.9,-1.95 5.75,-3.15 l 1.15,-1.4 q 0.95,-1.3 1.45,-2.6 l 0.9,-2.95 0.35,-1.95 0.2,-1 q -2.8,1.25 -5.55,2.75 -2,1.1 -2.9,0.35 -0.65,-0.55 -0.55,-1.4 -7.5,7.7 -20.4,14.3 -1.75,0.9 -2.75,0.7 -0.65,-0.1 -2.1,-1.25 l -0.65,-0.45 -0.25,1.1 -0.25,1.7 q -0.35,0.75 -1.6,1.2 -8.45,3.75 -17.4,6.7 l -1.95,0.3 q -1.3,-0.3 -1.4,-1.45 -0.05,-0.85 0.85,-1.55 l 0.3,-0.9 q 2.75,-6.45 5.1,-9.35 2.05,-2.5 5.45,-4.85 l 6.3,-3.8 q 10,-5.75 16.7,-11.5 l -0.35,0.15 q -2.1,0.95 -3.25,0.8 -1,-0.1 -1.7,-0.85 -0.75,-0.8 -0.8,-1.8 0,-1.35 1.65,-3.3 l 6.4,-6.9 1.9,-1.8 0.5,-0.5 -1.55,0.9 q -3.6,2.05 -6.75,3.2 l -3.95,1.25 -3.9,1.4 q -2.4,1.1 -6.95,4.3 l -4.55,3 -3.4,3.45 q -3.6,3.4 -6.95,5.45 -1.5,1 -2.4,0.45 h -0.05 l -1.85,0.45 -1.8,0.05 q -1.1,-0.3 -1.3,-1.15 -0.35,-1.05 1.15,-2.45 l 8.2,-7.95 q 4.6,-4.65 7.6,-8.5 l 2.8,-3.25 q 1,-0.9 3.95,-2.6 l 7.2,-4 0.2,-0.1 1.2,-1.1 2.65,-1.45 q 3.9,-1.7 13.6,-5.25 l -2.45,-0.4 -2.95,-0.7 q -3.75,-1.2 -5.05,-3.75 -0.6,-1.15 -0.75,-2.8 -0.2,-1.55 0.35,-2.4 0.55,-0.9 1.9,-1.1 l 2.3,-0.05 q 2.85,0 8.6,-2.05 5.55,-2 8.6,-1.9 l 2,0.5 1.05,0.9 0.9,1 1.05,0.95 4.9,-1.95 q 0.95,-0.5 1.35,-0.2 0.45,0.3 0.2,0.95 -0.1,0.35 -0.65,0.8 l -2.5,1.8 q -2.6,1.5 -5.1,2.5 l -0.5,0.15 -1.65,0.6 q -2.05,0.7 -3.2,0.85 l -1.5,-0.1 q -0.75,-0.25 -1,-0.8 l -0.05,-0.15 -0.05,-0.2 q -0.15,-0.85 0.75,-1.5 l 0.25,-0.15 1.45,-0.5 0.1,-0.05 4.15,-1.05 -0.55,-0.3 -0.5,-0.25 -1.45,-0.05 -4.3,1 -4.2,1.4 -3,0.9 -2.95,0.55 -2.7,0.05 q 0.15,1.15 1.3,1.9 l 0.85,0.45 1.3,0.35 0.5,0.15 2.2,0.45 3.45,0.45 5.35,-0.45 q 0.95,-0.2 1.5,-0.55 0.2,-0.1 1.65,-1.15 l 2,-0.8 0.4,-0.05 m -30.05,-3.5 0.5,-0.75 0.3,-0.5 q 2.25,-3.7 2.85,-7.75 l -2.1,2.1 -1.85,2.1 -0.55,0.5 q -0.35,0.3 -0.65,0 -0.4,-0.3 -0.05,-1 0.7,-1.4 2,-3.05 l 0.95,-1.1 0.1,-0.2 -0.65,0.25 h -0.05 l -0.45,0.5 -1.2,1.3 -1.3,1.15 -2.15,2.3 -0.2,0.2 -0.05,0.1 0.05,0.15 0.3,1.1 0.45,1.95 0.3,0.85 v 0.1 l 0.15,0.45 q 0.2,0.8 -0.35,1.35 -0.45,0.4 -1.4,0.3 -1.7,-0.15 -3.15,-0.8 l -0.85,1.6 -0.5,1.05 -0.35,0.6 -0.45,0.6 -1.65,1.95 -1.55,2.05 2.5,-0.7 0.2,-0.1 3.95,-2.2 1.35,-0.9 0.15,-0.15 2.55,-2.2 q 1.65,-1.5 2.85,-3.2 m -25.25,43.6 q 3.4,-2.25 8.4,-7.35 l 9,-9.8 2.5,-2.85 0.75,-0.95 -1.1,0.7 -0.4,0.25 -2.4,1.75 -1.25,1 -2.35,2.75 Q -79.05,7.1 -86.55,14.9 l -2.5,2.6 0.2,-0.15 m 33.9,-27.4 -3.6,1.45 -2.5,1.3 -1.9,2.2 v 0.05 l -0.75,1 -2.55,3.25 -1.65,2 -0.95,1.1 0.35,-0.25 0.9,-0.4 2.5,-0.95 1.4,-0.4 3.45,-1.1 0.7,-0.2 4,-1.65 4.95,-2.7 0.45,-0.25 0.4,-0.2 1.45,-0.65 1.1,-0.4 0.15,-0.3 V -7.2 l 1.4,-2.25 V -9.5 l -0.05,0.05 -1.85,1.15 -2.85,1.4 -4.7,2.05 -1.65,0.65 -4.15,1.6 -0.65,-0.05 Q -61.9,-3 -61.15,-3.4 l 1.45,-0.75 4.45,-2.05 1.9,-0.85 q 5,-2.15 7.65,-4 1.25,-0.85 4.95,-4.05 l 0.5,-0.4 1.1,-0.9 h -0.05 l -1.6,0.35 -0.4,0.05 -2,0.2 q -1.9,1.3 -4.45,2.55 l -5.9,2.6 -1.05,0.45 -0.1,0.05 -0.25,0.1 m 20.15,-3.9 q -5,2.3 -7.7,6.5 l -1.65,3.1 -1.1,2.2 -0.6,0.9 q -1.1,1.55 -4.1,4.4 l -0.35,0.3 q -2.9,2.7 -4.15,4.6 l -0.15,0.2 0.25,-0.1 Q -52,7.05 -47.4,5.6 l 0.6,-0.15 2.6,-0.85 2.95,-1.15 1.05,-0.45 1.45,-0.7 4.4,-2.65 q 2.5,-1.65 3.7,-3.05 1.25,-1.35 2.95,-4.65 l 0.4,-0.75 1.55,-3.05 0.1,-0.1 q -0.3,-1.45 -1.3,-1.85 -2.4,2.4 -5.05,4.55 l -1.45,1 q -0.95,0.35 -1.75,0 -0.5,-0.2 -0.7,-0.75 -0.25,-0.5 -0.1,-1.05 v -0.05 q 0.25,-0.8 1.75,-1.7 l 0.85,-0.55 4.2,-3.2 -1.35,0.1 q -2.2,0.55 -4.05,1.45 l -0.2,0.05 m -9.5,16.5 -0.85,0.55 -0.65,0.2 -0.55,-0.15 q -0.2,-0.5 0.1,-1 l 0.3,-0.4 0.35,-0.4 3.45,-3.1 1.9,-1.6 1.15,-0.95 0.35,-0.45 0.5,-0.55 h 0.4 l 0.25,0.25 -0.1,0.5 -1.3,1.7 -0.35,0.4 -3.3,3.5 -0.9,0.65 -0.7,0.8 -0.05,0.05 m 3,15.1 2.75,-2.65 1.05,-1.1 3.35,-3.4 q 0.75,-0.7 1.25,-0.7 l 3.8,-5.4 4.55,-7.25 0.35,-0.5 -0.4,-0.1 -0.2,-0.35 v -0.1 l -0.2,0.1 q -0.65,1.5 -2.1,3.45 L -28.15,1 q -3.7,4.5 -8.95,9.2 l -9.2,7.7 -2.1,1.6 -0.25,0.2 -2.8,2.2 -0.8,0.55 0.25,0.4 0.05,0.3 -0.1,0.75 -0.3,0.85 -1,1.85 v 0.05 l -0.6,1.05 3.95,-2.6 3.1,-2.4 1.95,-1.65 3.65,-3.4 m 28.5,-25.6 V -8 l -0.05,0.05 -0.2,0.4 q -1.65,3.5 -2.85,5.6 -1.75,3 -3.8,5.6 L -20.8,5 q -0.6,0.7 -1.1,0.6 -0.75,-0.2 -0.4,-1.45 l 0.9,-1.6 0.2,-0.3 q 2.5,-3.65 5.9,-10.6 h -0.05 -0.15 q -0.8,0.05 -1.75,0.7 l -2,2.5 q -1.7,2.1 -3.6,5.45 L -26,6.05 -28.45,10 l -0.85,1.25 -4.15,5.25 7,-2.9 q 1,-0.4 1.4,-0.9 l 0.3,-0.8 0.05,-0.35 0.1,-1.25 0.4,-1.2 0.3,-0.4 q 0.4,-0.35 0.95,-0.4 l 1.45,0.45 0.35,0.2 0.65,0.1 0.25,-0.3 5.2,-8.25 0.9,-1.9 0.4,-0.9 0.7,-1.65 q 0.55,-1.15 0.6,-2 l -0.35,-2 M -16.85,10.4 V 9.25 l -0.4,0.65 -1.05,1.55 v 0.05 l -0.9,0.95 -0.3,0.1 -1.45,-0.25 -0.05,-0.05 -0.85,-0.45 v 0.5 l 0.25,0.3 0.2,0.7 0.05,0.3 -0.05,1.1 -0.25,0.65 -0.15,0.9 -0.3,0.8 -0.1,1.25 -0.35,1.1 v 0.9 l -0.35,1.15 -0.1,1.05 -0.35,0.95 v 0.05 l -0.1,0.45 -0.1,0.55 -0.4,0.75 -0.15,0.5 -0.3,0.4 -0.5,-0.3 -0.1,-0.65 0.25,-1.75 0.7,-5.95 0.05,-0.35 0.15,-1.2 -1.7,0.95 -1.05,0.45 -0.65,0.3 -1.3,0.55 0.2,0.7 q 0.1,0.9 -0.3,2.6 L -29,23.25 q -0.65,2.7 -1.7,4.35 l -0.2,0.3 2.5,-0.45 1.8,-0.1 2.75,-0.15 1.45,-0.15 2.9,-0.9 h 0.05 l 0.55,-1.3 q 0.6,-1.7 1.05,-4.5 0.65,-3.6 0.85,-6.15 l 0.1,-1.7 0.05,-2.1 m -33.45,7.75 0.05,-0.05 4.6,-3.95 0.5,-0.4 6.2,-5.6 3.8,-3.55 0.25,-0.25 -2.55,1.35 -2.45,1.05 -1.1,0.45 -0.2,0.05 -6.15,2.2 -0.15,0.05 -0.15,0.55 q -0.45,1.05 -1.9,2.4 l -4.75,4.15 -2.15,1.65 -3.3,2.45 1.2,0.15 0.2,0.05 1.6,0.3 0.65,0.2 h 0.05 l 1.6,0.25 4.15,-3.5 m 25.35,14.6 2.5,-2.4 0.95,-1.1 -1.45,0.4 -0.8,0.15 -5.85,0.85 q -2.8,0.6 -5.9,2.25 l -1.55,0.85 q -4.25,2.5 -8.9,6.85 5.35,-1.4 8.1,-1.7 l 4.65,-0.6 0.9,-0.25 q 1.35,-0.5 3.35,-1.95 l -3.6,0.3 h -0.65 l -0.95,0.25 -0.4,0.05 -0.3,-0.25 0.4,-0.45 3.4,-1.35 5.15,-1.05 0.95,-0.85 M -59.8,22.3 l -0.5,-0.1 -1.2,-0.25 h -0.1 q -4.7,3.15 -10,6 -5.2,2.85 -6.75,4.2 -2.25,1.95 -4.15,5.05 l -2.05,3.75 q 7.55,-2.65 13.8,-5.4 l 0.85,-0.5 q 0.55,-0.5 0.75,-2.25 0.2,-1.7 1.25,-1.95 h 0.25 q 0.4,-0.45 1.05,-0.45 l 0.45,0.05 h 0.1 q 0.8,0.1 1.9,1 l 0.35,0.3 0.55,0.3 1.25,-0.25 q 3,-1.25 5.8,-2.8 l 0.15,-0.4 0.25,-0.7 0.1,-0.2 0.9,-2.05 0.1,-0.2 0.2,-0.45 0.15,-0.55 0.1,-0.55 -1.65,1.05 -5.15,3.05 -0.55,0.3 -0.75,0.1 Q -62.75,28 -62,27.5 l 0.45,-0.3 4.8,-3.7 0.65,-0.5 -0.7,-0.1 -0.85,-0.15 -0.55,-0.15 -1.6,-0.3"
         fill="#000000"
         fill-rule="evenodd"
         stroke="none"
         id="path1" />
      <path
         d="m -33.15,-23.9 -0.4,1.15 -0.4,0.05 -2,0.8 q -1.45,1.05 -1.65,1.15 -0.55,0.35 -1.5,0.55 l -5.35,0.45 -3.45,-0.45 -0.9,-0.6 -0.15,-0.3 -0.15,-0.6 q -0.05,-0.55 0.25,-0.9 l 0.7,-0.6 0.45,-0.25 q 1.55,-0.9 3.2,-1.15 l 1.2,-0.15 1.5,-0.1 1.7,-0.35 -0.25,0.15 q -0.9,0.65 -0.75,1.5 l 0.05,0.2 0.05,0.15 q 0.25,0.55 1,0.8 l 1.5,0.1 q 1.15,-0.15 3.2,-0.85 l 1.65,-0.6 0.5,-0.15 m -1.8,-3.2 0.55,0.3 -4.15,1.05 0.55,-0.35 1.75,-1.05 h 0.05 l 1.25,0.05 m -27.25,-8.6 -0.95,1.1 q -1.3,1.65 -2,3.05 -0.35,0.7 0.05,1 0.3,0.3 0.65,0 l 0.55,-0.5 1.85,-2.1 2.1,-2.1 q -0.6,4.05 -2.85,7.75 l -0.3,0.5 -0.5,0.75 q -0.45,0.25 -0.85,0.35 l -2.5,-0.1 -0.1,-0.05 -0.3,-0.85 -0.45,-1.95 -0.3,-1.1 0.1,-0.15 0.1,-0.3 2.15,-2.3 1.3,-1.15 1.2,-1.3 0.45,-0.5 h 0.05 l 0.55,-0.05 m 21,19.7 0.4,-0.05 1.6,-0.35 h 0.05 l -1.1,0.9 -0.5,0.4 q -3.7,3.2 -4.95,4.05 -2.65,1.85 -7.65,4 l -1.9,0.85 0.85,-0.6 4.85,-3.2 2.2,-1.4 1.1,-0.95 1.75,-1.3 2.35,-1.7 0.95,-0.65 m -15.55,11.8 1.65,-0.65 4.7,-2.05 2.85,-1.4 1.85,-1.15 0.05,-0.05 v 0.05 l -1.4,2.25 v 0.05 l -1.25,0.7 -1.45,0.65 -0.4,0.2 -0.45,0.25 -0.8,0.3 -2.05,0.75 -1.4,0.6 -1.5,-0.1 -0.4,-0.4 m 10.8,5.95 -0.3,-0.35 -0.2,-1 0.75,-1.35 1.45,-1.85 1.15,-1.4 0.95,-1.2 0.8,-0.95 3.6,-4.5 2.95,-3.1 0.2,-0.05 q 1.85,-0.9 4.05,-1.45 l 1.35,-0.1 -4.2,3.2 -0.85,0.55 q -1.5,0.9 -1.75,1.7 v 0.05 q -0.15,0.55 0.1,1.05 0.2,0.55 0.7,0.75 0.8,0.35 1.75,0 l 1.45,-1 q 2.65,-2.15 5.05,-4.55 1,0.4 1.3,1.85 l -0.1,0.1 -1.55,3.05 -0.8,0.65 -8.9,6.6 -2.75,2.4 L -40,1.15 -40.8,2 q -0.65,0.65 -1.3,0.8 l -2.2,-0.25 0.05,-0.05 0.7,-0.8 0.9,-0.65 3.3,-3.5 0.35,-0.4 1.3,-1.7 0.1,-0.5 -0.25,-0.25 h -0.4 l -0.5,0.55 -0.35,0.45 -1.15,0.95 -1.9,1.6 -3.45,3.1 -0.35,0.4 M -28.15,1 q 0.1,0.6 -0.35,1.45 -1,1.9 -2.1,3.2 l -2.35,2.45 -6.75,6.2 -2.2,1.7 q -2.8,2 -5.5,3.3 l -1.25,0.4 0.25,-0.2 2.1,-1.6 9.2,-7.7 q 5.25,-4.7 8.95,-9.2 m 15.3,-8.95 h 0.05 l 0.35,2 q -0.05,0.85 -0.6,2 l -0.7,1.65 -3.25,4.05 -2.9,4.6 -0.6,1 -1,1.4 -1.45,-0.45 q -0.55,0.05 -0.95,0.4 l -0.3,0.4 -0.4,1.2 -0.1,1.25 H -25 q -0.85,0 -1.3,-0.8 -0.4,-0.75 -0.05,-1.6 l 0.75,-1.1 0.35,-0.75 0.3,-0.8 q 1.3,-3.75 4.3,-8.4 l 1.7,-2.3 1.45,-1.75 0.55,-0.95 0.7,-0.95 0.75,-0.5 h 0.15 0.05 q -3.4,6.95 -5.9,10.6 l -0.2,0.3 -0.9,1.6 q -0.35,1.25 0.4,1.45 0.5,0.1 1.1,-0.6 l 1.1,-1.35 q 2.05,-2.6 3.8,-5.6 1.2,-2.1 2.85,-5.6 l 0.2,-0.4 m -11.2,25.45 -0.7,5.95 -0.25,-0.2 q -0.55,-0.7 -0.2,-1.55 l 0.5,-0.8 0.2,-1.1 0.45,-2.3 m 0.7,6 v -0.05 l 0.35,-0.95 0.1,-1.05 0.35,-1.15 v -0.9 l 0.35,-1.1 0.1,-1.25 0.3,-0.8 0.15,-0.9 0.25,-0.65 0.05,-1.1 -0.05,-0.3 -0.2,-0.7 -0.25,-0.3 v -0.5 l 0.85,0.45 0.05,0.05 1.45,0.25 0.3,-0.1 0.9,-0.95 v 0.25 q 0.05,0.55 -0.4,2.1 l -0.95,2.5 -1.8,4.5 -0.45,1 -0.85,1.15 -0.6,0.5 m -14.1,-17.8 2.55,-1.35 -0.25,0.25 -3.8,3.55 -6.2,5.6 -0.5,0.4 -4.6,3.95 -0.05,0.05 V 18 q 0.05,-0.75 1.35,-1.95 l 5.85,-5.1 1.95,-1.75 2.45,-2.35 1.25,-1.15"
         fill="#e1c8a8"
         fill-rule="evenodd"
         stroke="none"
         id="path2" />
      <path
         d="m -47.9,-20.2 -2.2,-0.45 -0.5,-0.15 -1.3,-0.35 q -0.25,-1.2 0.55,-2.4 l 2.95,-0.55 3,-0.9 4.2,-1.4 4.3,-1 1.45,0.05 0.5,0.25 -1.25,-0.05 h -0.05 l -1.75,1.05 -0.55,0.35 -0.1,0.05 -1.45,0.5 -1.7,0.35 -1.5,0.1 -1.2,0.15 q -1.65,0.25 -3.2,1.15 l -0.45,0.25 -0.7,0.6 q -0.3,0.35 -0.25,0.9 l 0.15,0.6 0.15,0.3 0.9,0.6 m -19.05,-5.8 2.5,0.1 q 0.4,-0.1 0.85,-0.35 -1.2,1.7 -2.85,3.2 l -2.55,2.2 -0.15,0.15 -1.35,0.9 -0.4,-0.05 q -1.7,-0.1 -2.35,-1 l -0.25,-0.55 0.35,-0.6 0.5,-1.05 0.85,-1.6 q 1.45,0.65 3.15,0.8 0.95,0.1 1.4,-0.3 0.55,-0.55 0.35,-1.35 L -67.05,-25.95 -67,-26 h 0.05 m 4,20.95 0.5,-0.4 q 0.9,-0.4 1.3,-0.65 1,-0.5 2.9,-1.8 l 3.4,-2.15 0.15,-0.1 0.1,-0.05 1.05,-0.45 5.9,-2.6 q 2.55,-1.25 4.45,-2.55 l 2,-0.2 -0.95,0.65 -2.35,1.7 -1.75,1.3 -1.1,0.95 -2.2,1.4 -4.85,3.2 -0.85,0.6 -4.45,2.05 -1.45,0.75 q -0.75,0.4 -0.4,0.75 l 0.65,0.05 4.15,-1.6 0.4,0.4 1.5,0.1 1.4,-0.6 2.05,-0.75 0.8,-0.3 -4.95,2.7 -4,1.65 -0.95,0.05 -2.05,-0.25 q -0.85,-0.35 -1.15,-1.4 -0.2,-0.8 0,-1.45 l 0.75,-1 m 15.9,-2.1 -0.15,0.3 -1.1,0.4 1.25,-0.7 m 12.25,-6.8 -2.95,3.1 -3.6,4.5 -0.8,0.95 -0.95,1.2 -1.15,1.4 -1.45,1.85 -0.75,1.35 0.2,1 0.3,0.35 -0.3,0.4 q -0.3,0.5 -0.1,1 l 0.55,0.15 0.65,-0.2 0.85,-0.55 2.2,0.25 q 0.65,-0.15 1.3,-0.8 l 0.8,-0.85 0.25,-0.3 2.75,-2.4 8.9,-6.6 0.8,-0.65 -0.4,0.75 q -1.7,3.3 -2.95,4.65 -1.2,1.4 -3.7,3.05 l -4.4,2.65 -2.25,1 -0.05,0.05 -3.15,1.25 -2.6,0.85 h -1.05 q -0.85,-0.2 -1.4,-0.85 -0.6,-0.65 -0.7,-1.45 3,-2.85 4.1,-4.4 l 0.6,-0.9 1.1,-2.2 1.65,-3.1 q 2.7,-4.2 7.7,-6.5 M -28.15,1 -27.1,-0.35 q 1.45,-1.95 2.1,-3.45 l 0.2,-0.1 v 0.1 l 0.2,0.35 0.4,0.1 -0.35,0.5 -4.55,7.25 -3.8,5.4 q -0.5,0 -1.25,0.7 l -3.35,3.4 -1.05,1.1 -2.75,2.65 -2.4,1.55 -0.45,0.25 -1.6,1 q -3.8,2.35 -5.4,3.5 l -1.2,0.8 0.3,-0.85 0.1,-0.75 -0.05,-0.3 -0.25,-0.4 0.8,-0.55 2.8,-2.2 1.25,-0.4 q 2.7,-1.3 5.5,-3.3 l 2.2,-1.7 6.75,-6.2 2.35,-2.45 q 1.1,-1.3 2.1,-3.2 0.45,-0.85 0.35,-1.45 m 12.65,-9.35 -0.75,0.5 -0.7,0.95 -0.55,0.95 -1.45,1.75 -1.7,2.3 q -3,4.65 -4.3,8.4 l -0.3,0.8 -0.35,0.75 -0.75,1.1 q -0.35,0.85 0.05,1.6 0.45,0.8 1.3,0.8 h 0.3 l -0.05,0.35 q -1.75,0.95 -2.75,0.8 -0.75,-0.05 -1.35,-0.7 L -29.3,11.25 -28.45,10 -26,6.05 -22.85,0.3 q 1.9,-3.35 3.6,-5.45 l 2,-2.5 q 0.95,-0.65 1.75,-0.7 m -6,17.1 1,-1.4 0.6,-1 2.9,-4.6 3.25,-4.05 -0.4,0.9 -0.9,1.9 -5.2,8.25 -0.25,0.3 -0.65,-0.1 -0.35,-0.2 m 4.25,1.15 0.4,0.5 -0.05,2.1 -0.1,1.7 -0.65,1.8 q -1.95,5.2 -4.25,10.15 l -0.5,0.9 -1.45,0.15 -2.75,0.15 -0.3,-0.55 -0.25,-1.9 -0.1,-6.95 v -0.3 l 0.65,-0.3 1.05,-0.45 1.7,-0.95 -0.15,1.2 -0.05,0.35 -0.45,2.3 -0.2,1.1 -0.5,0.8 q -0.35,0.85 0.2,1.55 l 0.25,0.2 -0.25,1.75 0.1,0.65 0.5,0.3 0.3,-0.4 0.15,-0.5 0.4,-0.75 0.1,-0.55 0.1,-0.45 0.6,-0.5 0.85,-1.15 0.45,-1 1.8,-4.5 0.95,-2.5 q 0.45,-1.55 0.4,-2.1 V 11.5 11.45 l 1.05,-1.55 m -20.2,-4.2 -1.25,1.15 -2.45,2.35 -1.95,1.75 -5.85,5.1 q -1.3,1.2 -1.35,1.95 v 0.15 l -4.15,3.5 -1.6,-0.25 q 0.45,-0.55 1.25,-1.15 L -51.6,17.3 -41.2,7.25 -41,7.2 -39.9,6.75 -37.45,5.7 m -19.35,17.2 0.7,0.1 -0.65,0.5 -0.05,-0.6 m 0.9,2.05 1.65,-1.05 -0.1,0.55 -0.15,0.55 -0.2,0.45 -0.35,-0.1 h -0.05 l -0.8,-0.4"
         fill="#c1a185"
         fill-rule="evenodd"
         stroke="none"
         id="path3" />
      <path
         d="m -51.9,-21.15 -0.85,-0.45 q -1.15,-0.75 -1.3,-1.9 l 2.7,-0.05 q -0.8,1.2 -0.55,2.4 m -18.6,1.35 -3.95,2.2 -0.2,0.1 -2.5,0.7 1.55,-2.05 1.65,-1.95 0.45,-0.6 0.25,0.55 q 0.65,0.9 2.35,1 l 0.4,0.05 m 7.55,14.75 V -5.1 l 1.9,-2.2 2.5,-1.3 3.6,-1.45 h 0.1 l -3.4,2.15 q -1.9,1.3 -2.9,1.8 -0.4,0.25 -1.3,0.65 l -0.5,0.4 m 3.4,4.05 -0.7,0.2 -3.45,1.1 -1.4,0.4 -2.5,0.95 -0.9,0.4 -0.35,0.25 0.95,-1.1 1.65,-2 2.55,-3.25 q -0.2,0.65 0,1.45 0.3,1.05 1.15,1.4 l 2.05,0.25 0.95,-0.05 m 9.6,4.15 q 0.1,0.8 0.7,1.45 0.55,0.65 1.4,0.85 h 1.05 l -0.6,0.15 q -4.6,1.45 -6.95,2.55 l -0.1,-0.1 q 1.25,-1.9 4.15,-4.6 l 0.35,-0.3 m 5.75,1.45 3.15,-1.25 -0.2,0.1 -2.95,1.15 m -8.15,20.15 1.2,-0.8 q 1.6,-1.15 5.4,-3.5 l 1.6,-1 0.45,-0.25 2.4,-1.55 -3.65,3.4 -1.95,1.65 -3.1,2.4 -3.35,1.55 V 26.6 l 1,-1.85 m 23.05,-13.5 0.45,0.75 q 0.6,0.65 1.35,0.7 1,0.15 2.75,-0.8 l -0.3,0.8 q -0.4,0.5 -1.4,0.9 l -7,2.9 4.15,-5.25 m 12.05,-1.35 0.4,-0.65 v 1.15 l -0.4,-0.5 m 0.25,4.3 q -0.2,2.55 -0.85,6.15 -0.45,2.8 -1.05,4.5 l -0.55,1.3 h -0.05 l -2.9,0.9 0.5,-0.9 Q -19.6,21.2 -17.65,16 L -17,14.2 m -9.6,13.15 -1.8,0.1 -2.5,0.45 0.2,-0.3 q 1.05,-1.65 1.7,-4.35 l 0.35,-1.75 q 0.4,-1.7 0.3,-2.6 l -0.2,-0.7 1.3,-0.55 v 0.3 l 0.1,6.95 0.25,1.9 0.3,0.55 M -56.05,21.4 h -0.05 l -0.65,-0.2 -1.6,-0.3 -0.2,-0.05 2.1,-2.6 2.15,-1.65 4.75,-4.15 q 1.45,-1.35 1.9,-2.4 l 0.15,-0.55 0.15,-0.05 6.15,-2.2 -10.4,10.05 -3.2,2.95 q -0.8,0.6 -1.25,1.15 m 22.85,16.9 h -0.4 l -1.5,-0.1 q -1,-0.3 -1.35,-1.3 -0.25,-0.55 -0.1,-1.05 l 0.35,-0.8 q 0.4,-0.6 1.3,-0.95 l 1.55,-0.45 3.65,-0.95 1.75,-0.35 1.8,-0.1 0.3,0.1 q 0.5,0.1 0.9,0.4 l -0.95,0.85 -5.15,1.05 -3.4,1.35 -0.4,0.45 0.3,0.25 0.4,-0.05 0.95,-0.25 h 0.65 l 3.6,-0.3 q -2,1.45 -3.35,1.95 l -0.9,0.25 m -33.4,-7.9 q -0.3,-0.65 -0.2,-1.3 0.2,-1.1 1.85,-2.55 l 2.65,-2.15 2.5,-2.1 1.6,0.3 0.55,0.15 0.85,0.15 0.05,0.6 -4.8,3.7 -0.45,0.3 q -0.75,0.5 -0.35,0.9 l 0.75,-0.1 0.55,-0.3 5.15,-3.05 0.8,0.4 h 0.05 l 0.35,0.1 -0.1,0.2 -0.9,2.05 -0.1,0.2 -6.05,3.15 q -1.1,0.55 -1.95,0.7 l -0.35,-0.3 q -1.1,-0.9 -1.9,-1 h -0.1 L -66.6,30.4"
         fill="#b97e6e"
         fill-rule="evenodd"
         stroke="none"
         id="path4" />
      <path
         d="m -88.85,17.35 -0.2,0.15 2.5,-2.6 q 7.5,-7.8 10.85,-12.05 l 2.35,-2.75 1.25,-1 2.4,-1.75 0.4,-0.25 1.1,-0.7 -0.75,0.95 -2.5,2.85 -9,9.8 q -5,5.1 -8.4,7.35 m 38.85,7.75 -3.95,2.6 0.6,-1.05 3.35,-1.55 m -8.55,-4.25 -1.2,-0.15 3.3,-2.45 -2.1,2.6 m 25.35,17.45 -4.65,0.6 q -2.75,0.3 -8.1,1.7 4.65,-4.35 8.9,-6.85 l 1.55,-0.85 q 3.1,-1.65 5.9,-2.25 l 5.85,-0.85 0.8,-0.15 1.45,-0.4 -0.95,1.1 -2.5,2.4 q -0.4,-0.3 -0.9,-0.4 l -0.3,-0.1 -1.8,0.1 -1.75,0.35 -3.65,0.95 -1.55,0.45 q -0.9,0.35 -1.3,0.95 l -0.35,0.8 q -0.15,0.5 0.1,1.05 0.35,1 1.35,1.3 l 1.5,0.1 h 0.4 m -33.4,-7.9 q -0.65,0 -1.05,0.45 h -0.25 q -1.05,0.25 -1.25,1.95 -0.2,1.75 -0.75,2.25 l -0.85,0.5 q -6.25,2.75 -13.8,5.4 l 2.05,-3.75 q 1.9,-3.1 4.15,-5.05 1.55,-1.35 6.75,-4.2 5.3,-2.85 10,-6 h 0.1 l 1.2,0.25 0.5,0.1 -2.5,2.1 -2.65,2.15 q -1.65,1.45 -1.85,2.55 -0.1,0.65 0.2,1.3 m 10.8,-2.5 -0.25,0.7 -0.15,0.4 q -2.8,1.55 -5.8,2.8 l -1.25,0.25 -0.55,-0.3 q 0.85,-0.15 1.95,-0.7 l 6.05,-3.15"
         fill="#cc6868"
         fill-rule="evenodd"
         stroke="none"
         id="path5" />
    </g>
    <g
       id="sprite1"
       transform="translate(17.4,15.85)">
      <use
         ffdec:characterId="31"
         height="57.200001"
         transform="matrix(0.5366,0,0,0.5366,-16.6582,-14.546)"
         width="70.75"
         xlink:href="#sprite2"
         id="use5" />
    </g>
    <g
       id="sprite2"
       transform="translate(-8.65,-10.35)">
      <use
         ffdec:characterId="30"
         height="57.200001"
         transform="translate(8.65,10.35)"
         width="70.75"
         xlink:href="#shape1"
         id="use6" />
    </g>
    <g
       id="shape1"
       transform="translate(-8.65,-10.35)">
      <path
         d="m 14.8,41.7 q 0.65,-1.75 2.65,-2.5 1.8,-0.8 3.7,-0.25 1.15,0.45 2.25,1.2 l 0.9,0.4 q 1.65,0.9 2.85,2.5 L 37.8,30.1 q 2.35,-2.8 3.75,-3.95 1.5,-1.15 4.25,-2.4 18.2,-8.85 27.65,-12.6 2.15,-0.8 3.25,-0.8 h 0.8 l 1.9,2.4 -0.2,0.8 q -0.2,1.1 -1.55,3 -5.85,8.25 -18.85,23.8 -1.85,2.35 -3.35,3.5 -1.4,1.15 -4.75,2.75 l -15.15,7.15 q 1.2,1.6 1.75,3.4 l 0.2,1 0.55,2.5 q 0.1,1.95 -1.1,3.55 -1.2,1.65 -3.05,1.9 l -1.3,0.05 q -1.65,0.2 -3.45,-0.65 -1.85,-0.9 -3,-2.6 L 25,60.95 23.8,62.1 q -2.6,2.85 -4.3,3.95 -2.85,1.8 -5.5,1.45 l -1.65,-0.5 -1.2,-0.7 -0.2,-0.2 q -1,-0.85 -1.6,-1.9 L 9.25,64 9.15,63.8 8.75,62.4 q -0.2,-0.8 -0.05,-1.7 0.25,-2.65 2.7,-5.05 1.5,-1.3 4.9,-3.15 L 17.7,51.55 16.05,50 q -1.35,-1.5 -1.8,-3.6 -0.4,-1.85 0.25,-3.45 l 0.3,-1.25"
         fill="#000000"
         fill-opacity="0.372549"
         fill-rule="evenodd"
         stroke="none"
         id="path6" />
    </g>
  </defs>
</svg>
