<?xml version="1.0" encoding="UTF-8" standalone="no"?>
<svg
   ffdec:objectType="frame"
   height="54.42564"
   width="98.440109"
   version="1.1"
   id="svg5"
   xmlns:xlink="http://www.w3.org/1999/xlink"
   xmlns="http://www.w3.org/2000/svg"
   xmlns:svg="http://www.w3.org/2000/svg"
   xmlns:ffdec="https://www.free-decompiler.com/flash">
  <g
     transform="translate(47.261111,29.55)"
     id="g1">
    <use
       ffdec:characterId="17"
       height="119.15"
       id="rarity"
       transform="translate(-58.5,-60.65)"
       width="119.15"
       xlink:href="#sprite0" />
    <use
       ffdec:characterId="154"
       height="54.599998"
       transform="translate(-47.25,-29.7)"
       width="98.449997"
       xlink:href="#shape0"
       id="use1" />
  </g>
  <defs
     id="defs5">
    <g
       id="shape0"
       transform="translate(46.95,32.2)">
      <path
         d="m -18.75,-8.9 -0.1,0.05 q -1.7,0.85 -2.6,2.45 -1,1.7 -0.5,3.35 Q -8.6,-1 5.65,-0.7 l 3.65,0.2 q 0.35,-3.55 1.05,-6.25 L 10.7,-8 7.8,-8.25 0.25,-8.9 -11.8,-9.75 q -4.7,-0.2 -6.95,0.85 m 45.95,-15.3 3.1,-0.3 3.1,-0.1 2.2,-0.15 2.15,-0.05 q 2.85,0.2 5.85,2.25 5.4,3.95 7.15,11.55 1.35,5.8 0.2,13.75 -0.55,4.15 -1.45,6.4 -1.75,4.5 -5.9,7.8 -3.9,3.15 -8.9,4.5 -7,1.9 -12.95,-0.1 Q 17.95,20 14.5,17.1 10.9,14.2 9.75,11.2 9,9.2 8.95,5.65 L 8.6,5.6 -1,5.05 -7.7,4.8 -8,5.75 q -0.95,2.8 -3.7,5.1 -2.05,1.75 -5.55,3.5 -4.15,2.1 -6.9,2.3 -2.75,0.25 -6.7,-1.05 -5.05,-1.7 -8.85,-4.85 -4.2,-3.45 -5.9,-7.95 -1.75,-4.45 -1.25,-10.9 l 0.85,-4.8 q 0.65,-2.1 2.6,-5.4 2.3,-3.85 3.95,-5.95 2.45,-3.1 5.15,-4.85 2.65,-1.7 6.25,-2.5 l 8.05,-0.45 q 4.25,0.5 7.6,2.6 3.5,2.15 5.55,5.8 2.1,3.7 1.9,7.7 l -0.05,0.55 4.65,0.35 12.3,1.65 0.95,0.2 q 0.95,-1.7 2.2,-3.1 2.15,-2.45 5.8,-4.9 3.65,-2.4 6.3,-3 M 15.85,2.6 q -0.1,1.5 -0.05,3.1 0,1.85 0.35,2.9 0.45,1.15 1.6,2.4 3.3,3.65 8.2,4.6 l 6.45,-0.2 q 3.2,-0.75 6,-2.6 l 3.05,-2.6 q 2.35,-2.85 3.1,-8.9 0.75,-5 0.3,-8.4 -0.6,-4.8 -3.1,-7.85 -1.45,-1.7 -3.05,-2.5 l -0.85,-0.3 -1.85,-0.65 -3.7,-0.7 q -1.75,0 -3.75,0.75 -6.1,2.25 -9.45,7.9 -3,4.95 -3.25,13.05 m -43.8,-9.55 0.25,-0.85 q 0.95,-2.8 3.1,-4.8 1.95,-1.85 4.3,-2.7 l 1.55,-0.45 q 1.95,-0.4 5.95,-0.1 l 3.05,0.2 q -0.5,-2.15 -1.75,-4 -1.5,-2.35 -3.75,-3.8 -1.45,-0.95 -3,-1.45 -3.4,-1.2 -7.3,-0.5 -3.35,0.55 -5.8,2.35 -2.3,1.7 -4.55,5.1 -2.75,4.1 -3.75,7.3 -0.85,2.65 -0.8,5.3 -0.05,2.45 0.7,4.95 0.7,2.6 2.35,4.7 2.2,2.8 6.95,4.75 3.55,1.45 5.85,1.2 2.05,-0.15 5,-1.7 3.75,-1.9 5.1,-3.95 L -14.15,4 -14.5,3.95 -18.5,3.5 -22.8,3.1 q -2.4,-0.45 -3.7,-1.75 -1.4,-1.4 -1.7,-3.55 -0.45,-2.35 0.25,-4.75"
         fill="#000000"
         fill-rule="evenodd"
         stroke="none"
         id="path1" />
      <path
         d="M 26.2,-7.55 24.45,-7.6 q -1.05,-0.45 -1.05,-1.85 0,-1 0.8,-2.15 1.15,-1.85 3.1,-2.85 0.8,-0.5 1.75,-0.6 1.15,0 1.7,0.7 0.5,0.65 0.4,1.7 l -0.45,1.6 -1.1,1.2 q -2.1,1.9 -3.4,2.3 m -6.95,8.6 0.05,-0.7 q 0.1,-0.75 0.6,-1.25 0.55,-0.6 1.3,-0.6 l 0.15,-0.1 q 0.8,0 1.35,0.55 L 23.4,0.2 23.35,1.25 Q 23.2,1.95 22.6,2.45 21.95,2.9 21.2,2.85 20.5,2.8 19.95,2.3 19.35,1.75 19.25,1.05 m -49.3,-22.45 1.8,-0.7 q 1.1,-0.2 1.85,0.35 1.15,0.85 0.8,2.55 -0.25,1.15 -1.35,2.45 l -1.55,1.65 -1.15,0.8 q -0.65,0.35 -1.6,0.25 -1,0 -1.55,-0.4 -0.85,-0.7 -0.75,-2.05 0.1,-1.75 1.05,-2.95 l 2.45,-1.95"
         fill="#ffffff"
         fill-rule="evenodd"
         stroke="none"
         id="path2" />
      <path
         d="m 7.8,-8.25 q -2.4,0.95 -6,2 l -2.7,0.7 -3.8,0.35 q -6.5,0.3 -9.75,0 -2.05,-0.2 -3.05,-0.85 L -18.6,-7.2 Q -19,-8 -18.8,-8.75 l 0.05,-0.15 q 2.25,-1.05 6.95,-0.85 L 0.25,-8.9 7.8,-8.25 m 18.4,0.7 q 1.3,-0.4 3.4,-2.3 l 1.1,-1.2 0.45,-1.6 q 0.1,-1.05 -0.4,-1.7 -0.55,-0.7 -1.7,-0.7 -0.95,0.1 -1.75,0.6 -1.95,1 -3.1,2.85 -0.8,1.15 -0.8,2.15 0,1.4 1.05,1.85 l 1.75,0.05 m 11.65,-10.2 1.3,1 q 1.55,1.55 1.9,3.5 0.2,1.25 -0.1,3.2 l -0.5,2.8 q -0.3,1.2 -1.1,2.55 -1.55,3 -3.2,4.6 -1.5,1.35 -4,2.8 -5.05,3 -8.3,3.35 Q 21.5,6.35 19.4,5.5 17.1,4.65 15.95,2.8 l -0.1,-0.2 q 0.25,-8.1 3.25,-13.05 3.35,-5.65 9.45,-7.9 2,-0.75 3.75,-0.75 l 3.7,0.7 1.85,0.65 m -67.9,-3.65 -2.45,1.95 q -0.95,1.2 -1.05,2.95 -0.1,1.35 0.75,2.05 0.55,0.4 1.55,0.4 0.95,0.1 1.6,-0.25 l 1.15,-0.8 1.55,-1.65 q 1.1,-1.3 1.35,-2.45 0.35,-1.7 -0.8,-2.55 -0.75,-0.55 -1.85,-0.35 l -1.8,0.7 m 49.3,22.45 q 0.1,0.7 0.7,1.25 0.55,0.5 1.25,0.55 0.75,0.05 1.4,-0.4 0.6,-0.5 0.75,-1.2 L 23.4,0.2 22.7,-1.05 Q 22.15,-1.6 21.35,-1.6 l -0.15,0.1 q -0.75,0 -1.3,0.6 -0.5,0.5 -0.6,1.25 l -0.05,0.7 M -20.3,-15.3 q -2.35,0.85 -4.3,2.7 -2.15,2 -3.1,4.8 l -0.25,0.85 -2.55,1.6 q -2.95,1.55 -5.15,1.75 -3.05,0.15 -4.8,-1.75 -0.05,-2.65 0.8,-5.3 1,-3.2 3.75,-7.3 2.25,-3.4 4.55,-5.1 2.45,-1.8 5.8,-2.35 3.9,-0.7 7.3,0.5 0.5,1.05 0.45,2.4 -0.05,1.45 -0.9,3.8 l -1.6,3.4"
         fill="#4f4f4f"
         fill-rule="evenodd"
         stroke="none"
         id="path3" />
      <path
         d="M 7.8,-8.25 10.7,-8 10.35,-6.75 Q 9.65,-4.05 9.3,-0.5 L 5.65,-0.7 Q -8.6,-1 -21.95,-3.05 q -0.5,-1.65 0.5,-3.35 0.9,-1.6 2.6,-2.45 l 0.1,-0.05 -0.05,0.15 Q -19,-8 -18.6,-7.2 l 1.1,1.15 q 1,0.65 3.05,0.85 3.25,0.3 9.75,0 l 3.8,-0.35 2.7,-0.7 q 3.6,-1.05 6,-2 m 30.05,-9.5 0.85,0.3 q 1.6,0.8 3.05,2.5 2.5,3.05 3.1,7.85 0.45,3.4 -0.3,8.4 -0.75,6.05 -3.1,8.9 l -3.05,2.6 q -2.8,1.85 -6,2.6 l -6.45,0.2 Q 21.05,14.65 17.75,11 16.6,9.75 16.15,8.6 15.8,7.55 15.8,5.7 15.75,4.1 15.85,2.6 l 0.1,0.2 q 1.15,1.85 3.45,2.7 2.1,0.85 4.45,0.55 3.25,-0.35 8.3,-3.35 2.5,-1.45 4,-2.8 1.65,-1.6 3.2,-4.6 0.8,-1.35 1.1,-2.55 l 0.5,-2.8 q 0.3,-1.95 0.1,-3.2 -0.35,-1.95 -1.9,-3.5 l -1.3,-1 m -58.15,2.45 1.6,-3.4 q 0.85,-2.35 0.9,-3.8 0.05,-1.35 -0.45,-2.4 1.55,0.5 3,1.45 2.25,1.45 3.75,3.8 1.25,1.85 1.75,4 l -3.05,-0.2 q -4,-0.3 -5.95,0.1 l -1.55,0.45 m -20.15,9.95 q 1.75,1.9 4.8,1.75 2.2,-0.2 5.15,-1.75 l 2.55,-1.6 q -0.7,2.4 -0.25,4.75 0.3,2.15 1.7,3.55 1.3,1.3 3.7,1.75 l 4.3,0.4 4,0.45 0.35,0.05 -0.35,0.6 q -1.35,2.05 -5.1,3.95 -2.95,1.55 -5,1.7 -2.3,0.25 -5.85,-1.2 -4.75,-1.95 -6.95,-4.75 -1.65,-2.1 -2.35,-4.7 -0.75,-2.5 -0.7,-4.95"
         fill="#3f3f3f"
         fill-rule="evenodd"
         stroke="none"
         id="path4" />
    </g>
    <g
       id="sprite1"
       transform="translate(17.4,15.85)">
      <use
         ffdec:characterId="31"
         height="57.200001"
         transform="matrix(0.5366,0,0,0.5366,-16.6582,-14.546)"
         width="70.75"
         xlink:href="#sprite2"
         id="use4" />
    </g>
    <g
       id="sprite2"
       transform="translate(-8.65,-10.35)">
      <use
         ffdec:characterId="30"
         height="57.200001"
         transform="translate(8.65,10.35)"
         width="70.75"
         xlink:href="#shape1"
         id="use5" />
    </g>
    <g
       id="shape1"
       transform="translate(-8.65,-10.35)">
      <path
         d="m 14.8,41.7 q 0.65,-1.75 2.65,-2.5 1.8,-0.8 3.7,-0.25 1.15,0.45 2.25,1.2 l 0.9,0.4 q 1.65,0.9 2.85,2.5 L 37.8,30.1 q 2.35,-2.8 3.75,-3.95 1.5,-1.15 4.25,-2.4 18.2,-8.85 27.65,-12.6 2.15,-0.8 3.25,-0.8 h 0.8 l 1.9,2.4 -0.2,0.8 q -0.2,1.1 -1.55,3 -5.85,8.25 -18.85,23.8 -1.85,2.35 -3.35,3.5 -1.4,1.15 -4.75,2.75 l -15.15,7.15 q 1.2,1.6 1.75,3.4 l 0.2,1 0.55,2.5 q 0.1,1.95 -1.1,3.55 -1.2,1.65 -3.05,1.9 l -1.3,0.05 q -1.65,0.2 -3.45,-0.65 -1.85,-0.9 -3,-2.6 L 25,60.95 23.8,62.1 q -2.6,2.85 -4.3,3.95 -2.85,1.8 -5.5,1.45 l -1.65,-0.5 -1.2,-0.7 -0.2,-0.2 q -1,-0.85 -1.6,-1.9 L 9.25,64 9.15,63.8 8.75,62.4 q -0.2,-0.8 -0.05,-1.7 0.25,-2.65 2.7,-5.05 1.5,-1.3 4.9,-3.15 L 17.7,51.55 16.05,50 q -1.35,-1.5 -1.8,-3.6 -0.4,-1.85 0.25,-3.45 l 0.3,-1.25"
         fill="#000000"
         fill-opacity="0.372549"
         fill-rule="evenodd"
         stroke="none"
         id="path5" />
    </g>
  </defs>
</svg>
