<?xml version="1.0" encoding="UTF-8" standalone="no"?>
<svg
   ffdec:objectType="frame"
   height="92.699997"
   width="72.348587"
   version="1.1"
   id="svg6"
   xmlns:xlink="http://www.w3.org/1999/xlink"
   xmlns="http://www.w3.org/2000/svg"
   xmlns:svg="http://www.w3.org/2000/svg"
   xmlns:ffdec="https://www.free-decompiler.com/flash">
  <g
     transform="translate(35.158333,51.55)"
     id="g1">
    <use
       ffdec:characterId="17"
       height="119.15"
       id="rarity"
       transform="translate(-58.5,-60.65)"
       width="119.15"
       xlink:href="#sprite0" />
    <use
       ffdec:characterId="166"
       height="92.699997"
       transform="translate(-35.15,-51.55)"
       width="72.349998"
       xlink:href="#shape0"
       id="use1" />
  </g>
  <defs
     id="defs6">
    <g
       id="shape0"
       transform="translate(34.85,54.05)">
      <path
         d="m -32.45,20.65 q -2.55,-4.5 -2.4,-10.85 0.25,-6.65 3.55,-12.55 3.35,-6 8.95,-9.25 -1.6,-3.65 -0.15,-8.3 1,-3.3 3.95,-7.45 l 1.95,-2.55 q -1,-0.8 -1.75,-1.95 -1.4,-2 -1.65,-4.45 -0.15,-1.7 0.3,-3 0.8,-2.5 3.25,-3.65 2.3,-1.15 4.95,-0.5 -0.65,-2.05 0.25,-4.85 0.75,-2.3 2.05,-3.65 1.7,-1.7 3.75,-1.7 2.45,0.1 4.05,2.3 1.2,1.6 1.75,4.45 l 2.55,0.05 q 1.3,0.4 2.1,1.45 1.1,1.35 1.2,3.95 0.1,2.3 -0.65,4.3 v 0.1 q 2.15,0.45 4.5,1.5 6.65,2.85 10.2,7.75 1.95,2.7 2.65,5.9 0.75,3.3 -0.05,6.35 4.1,0.3 7.65,3.05 3.45,2.6 5.2,6.55 3.25,7.25 0.6,16.4 -2.1,7.05 -7.25,12.6 -5.2,5.55 -12.05,8.15 -2.95,1.05 -4.05,2.1 l -1.1,1.55 -0.85,1.7 Q 9.85,38.3 8.25,38.6 7,38.85 5.6,37.85 L 3.3,35.9 Q 0.9,33.75 -2.3,32.8 l -7.1,-1.1 q -8.1,-0.75 -12.95,-2.75 -7,-2.9 -10.1,-8.3 m 28.2,-58 0.25,-6.6 q 0.1,-1.9 -0.1,-2.85 -0.35,-1.55 -1.4,-2.4 -1,0.85 -1.25,2.15 -0.2,0.85 0.25,2.9 l 1.35,5.9 0.2,1.35 0.7,-0.15 v -0.3 m -5.2,1.7 -0.8,-1.55 q -0.75,-1.05 -1.9,-1.65 l -1.4,-0.25 q -0.8,0.05 -1.15,0.6 -0.4,0.6 0,1.9 0.45,1.3 1.2,1.85 l 1.15,0.5 0.1,0.05 2.85,-1.35 -0.05,-0.1 m 15.05,4.9 -7.65,-0.45 q -5.25,0.9 -9.3,4.8 -4.05,3.95 -5.1,9.15 -0.25,1 -0.1,1.85 0.2,0.8 1.45,2.25 1.15,1.35 1.25,2.3 0,0.7 -0.25,1.25 -0.45,0.85 -1.5,1.5 -0.95,0.6 -3.15,1.3 -5.15,2.1 -8.1,9.35 -1.7,4.35 -1.7,8.45 0.05,4.65 2.45,7.85 3.3,4.4 10.65,5.85 l 6.2,0.8 6.15,0.75 q 7.5,1.4 10.85,5.55 1.75,-2.25 5.4,-4.3 2.05,-1.15 6.25,-3.35 l 4.3,-3.3 2.75,-3.05 0.8,-1.1 Q 30.4,12.1 31.55,6.75 32.5,2.4 31.75,-1.2 L 30.85,-4.1 30.6,-4.55 Q 29.25,-7.2 26.75,-8.85 24.1,-10.5 21.3,-10.3 l -2.8,0.3 q -1.6,0.05 -2.45,-0.75 -1.35,-1.25 -0.65,-3.6 l 0.35,-0.9 0.3,-0.9 0.65,-1.85 0.15,-1.75 q -0.05,-1.4 -0.7,-2.8 L 15.3,-24.1 13.35,-26.45 9.75,-29.1 Q 8.1,-30.05 6.2,-30.6 l -0.6,-0.15 m -3.1,-10.3 q 0,-1.7 -0.65,-2.4 -1.3,0.75 -1.4,2.85 l 0.1,2.9 1.4,-0.05 q 0.5,-1.45 0.55,-3.3"
         fill="#000000"
         fill-rule="evenodd"
         stroke="none"
         id="path1" />
      <path
         d="m 2.65,-6.15 0.6,-0.75 q 0.7,-0.55 1.6,-0.4 L 5.7,-6.95 6,-6.65 6.55,-5.5 Q 6.7,-4.65 6.1,-3.9 5.1,-2.85 3.75,-3.35 3.15,-3.6 2.8,-4.2 2.4,-4.75 2.45,-5.4 l 0.2,-0.75 m 14.2,-13.6 -0.5,0.65 q -1.05,1.1 -3.5,2.05 l -2.3,0.55 -2.15,-0.05 -2.15,-0.3 Q 5.3,-17.05 4.4,-17.6 3.3,-18.15 2.55,-19.05 l -1.05,-1.7 -0.4,-1.4 v -1.45 l 0.15,-1.95 q 0.5,-2.6 2.65,-4.3 l 1.7,-0.9 0.6,0.15 q 1.9,0.55 3.55,1.5 h -0.1 l -1.2,0.25 -1.2,0.2 q -0.65,0.2 -1.65,1.1 l -1.05,1.35 q -0.3,0.75 -0.2,2.1 l 0.2,1.35 0.6,0.9 q 0.8,0.85 1.55,1.25 0.85,0.35 2.2,0.55 l 2,0.15 1.9,-0.55 q 1.75,-0.75 2.1,-1.95 l 0.2,-0.95 0.2,-0.75 0.85,1.55 q 0.65,1.4 0.7,2.8 m -27.6,2.35 q 0.35,-1.1 1.4,-1.75 1.05,-0.65 2.15,-0.45 1.15,0.2 1.95,1.15 0.8,0.9 0.75,2.05 0,1.15 -0.85,2.1 -0.8,0.9 -1.95,1.05 -1.7,0.15 -2.85,-1.15 -1.1,-1.35 -0.6,-3 m 2.95,28.75 -1.25,1.2 q -2.25,1.85 -5.5,1.7 -2.15,-0.05 -4.15,-1.2 -1.95,-1.1 -3.2,-2.95 -1.7,-2.6 -1.25,-5.3 l 0.5,-1.75 q 1.1,-2.7 3.05,-4.25 2.6,-2 6.85,-1.8 2.5,0.1 4.2,1.1 0.9,0.55 1.9,1.8 0.85,1.05 1.25,2 0.35,1.05 0.35,2.35 0,3.4 -1.6,5.7 l -1.15,1.4 m 31.5,9.5 -0.85,-0.55 Q 19.7,18.1 18.1,14.4 16.5,10.75 17.1,6.95 17.3,5.3 18.05,3.5 q 1.65,-4.55 4.45,-6.55 2.1,-1.5 4.8,-1.6 l 3.55,0.55 0.9,2.9 Q 29.8,-2.15 27.5,-1.7 25.2,-1.25 23.75,0.35 L 22.25,2.7 Q 19.7,8 21.35,12.1 l 0.9,1.7 1.4,1.85 1.55,1.45 1.25,0.7 -2.75,3.05 M 6.6,10.1 Q 5.95,8.8 6.45,7.3 6.95,5.75 8.2,5.05 9.2,4.5 10.4,4.6 q 1.2,0.1 2.05,0.85 0.9,0.7 1.25,1.85 0.35,1.15 0,2.25 -0.35,1.1 -1.3,1.85 -0.9,0.75 -2.05,0.8 -1.15,0.1 -2.2,-0.5 -1,-0.55 -1.55,-1.6 M -8.6,4.8 Q -8.5,3.55 -9.25,2.4 -9.75,1.65 -10.6,1.2 -11.3,0.8 -12.3,0.7 l -1.85,-0.25 -1.2,-0.15 -0.5,0.35 -0.8,0.4 -1.05,1.2 -0.65,1.1 -0.3,1 q -0.35,1.2 -0.2,1.95 l 0.5,0.95 1,1.15 0.95,0.7 1.15,0.5 q 1.9,0.6 3.4,-0.05 l 1.2,-0.8 0.8,-0.8 Q -9.1,7.05 -8.75,5.7 L -8.6,4.8 m -1.75,13.85 q 0.7,-1.35 2.25,-1.6 1,-0.15 1.9,0.4 0.95,0.5 1.3,1.45 0.4,0.95 0.1,1.95 -0.3,1.05 -1.15,1.65 -0.8,0.55 -1.85,0.5 -1.1,-0.05 -1.85,-0.7 -0.75,-0.65 -0.95,-1.75 -0.2,-1.05 0.25,-1.9"
         fill="#7a7465"
         fill-rule="evenodd"
         stroke="none"
         id="path2" />
      <path
         d="m -9.45,-35.65 0.05,0.1 -2.85,1.35 -0.1,-0.05 -1.15,-0.5 q -0.75,-0.55 -1.2,-1.85 -0.4,-1.3 0,-1.9 0.35,-0.55 1.15,-0.6 l 1.4,0.25 q 1.15,0.6 1.9,1.65 l 0.8,1.55 m 5.2,-1.7 v 0.3 l -0.7,0.15 -0.2,-1.35 -1.35,-5.9 q -0.45,-2.05 -0.25,-2.9 0.25,-1.3 1.25,-2.15 1.05,0.85 1.4,2.4 0.2,0.95 0.1,2.85 l -0.25,6.6 m 6.75,-3.7 q -0.05,1.85 -0.55,3.3 l -1.4,0.05 -0.1,-2.9 q 0.1,-2.1 1.4,-2.85 0.65,0.7 0.65,2.4"
         fill="#8a9286"
         fill-rule="evenodd"
         stroke="none"
         id="path3" />
      <path
         d="m -14.1,-9.6 q 0.25,-0.55 0.25,-1.25 -0.1,-0.95 -1.25,-2.3 -1.25,-1.45 -1.45,-2.25 -0.15,-0.85 0.1,-1.85 1.05,-5.2 5.1,-9.15 4.05,-3.9 9.3,-4.8 l 7.65,0.45 -1.7,0.9 q -2.15,1.7 -2.65,4.3 L 1.1,-23.6 v 1.45 l 0.4,1.4 1.05,1.7 q 0.75,0.9 1.85,1.45 0.9,0.55 1.85,0.75 l 2.15,0.3 2.15,0.05 2.3,-0.55 q 2.45,-0.95 3.5,-2.05 l 0.5,-0.65 -0.15,1.75 -0.65,1.85 -0.3,0.9 -2,2.35 q -3.2,3.5 -5.7,4.9 -1.1,0.6 -2.35,1.05 L 4.85,-7.3 q -0.9,-0.15 -1.6,0.4 l -0.6,0.75 -3.7,0.35 q -6.8,0.2 -11.3,-2.5 -0.95,-0.6 -1.75,-1.3 m 23.85,-19.5 3.6,2.65 1.95,2.35 -0.2,0.75 -0.2,0.95 q -0.35,1.2 -2.1,1.95 l -1.9,0.55 -2,-0.15 Q 7.55,-20.25 6.7,-20.6 5.95,-21 5.15,-21.85 l -0.6,-0.9 -0.2,-1.35 q -0.1,-1.35 0.2,-2.1 l 1.05,-1.35 q 1,-0.9 1.65,-1.1 l 1.2,-0.2 1.2,-0.25 h 0.1 m -20.5,11.7 q -0.5,1.65 0.6,3 1.15,1.3 2.85,1.15 1.15,-0.15 1.95,-1.05 0.85,-0.95 0.85,-2.1 0.05,-1.15 -0.75,-2.05 -0.8,-0.95 -1.95,-1.15 -1.1,-0.2 -2.15,0.45 -1.05,0.65 -1.4,1.75"
         fill="#bfbaac"
         fill-rule="evenodd"
         stroke="none"
         id="path4" />
      <path
         d="m -14.1,-9.6 q 0.8,0.7 1.75,1.3 4.5,2.7 11.3,2.5 l 3.7,-0.35 -0.2,0.75 Q 2.4,-4.75 2.8,-4.2 3.15,-3.6 3.75,-3.35 5.1,-2.85 6.1,-3.9 6.7,-4.65 6.55,-5.5 L 6,-6.65 5.7,-6.95 Q 6.95,-7.4 8.05,-8 q 2.5,-1.4 5.7,-4.9 l 2,-2.35 -0.35,0.9 q -0.7,2.35 0.65,3.6 0.85,0.8 2.45,0.75 l 2.8,-0.3 q 2.8,-0.2 5.45,1.45 2.5,1.65 3.85,4.3 l 0.25,0.45 -3.55,-0.55 q -2.7,0.1 -4.8,1.6 -2.8,2 -4.45,6.55 -0.75,1.8 -0.95,3.45 -0.6,3.8 1,7.45 1.6,3.7 4.75,5.9 l 0.85,0.55 -4.3,3.3 Q 15.2,26.35 13.15,27.5 9.5,29.55 7.75,31.8 4.4,27.65 -3.1,26.25 l -6.15,-0.75 -6.2,-0.8 q -7.35,-1.45 -10.65,-5.85 -2.4,-3.2 -2.45,-7.85 0,-4.1 1.7,-8.45 2.95,-7.25 8.1,-9.35 2.2,-0.7 3.15,-1.3 1.05,-0.65 1.5,-1.5 m 6.3,20.95 1.15,-1.4 q 1.6,-2.3 1.6,-5.7 0,-1.3 -0.35,-2.35 -0.4,-0.95 -1.25,-2 -1,-1.25 -1.9,-1.8 -1.7,-1 -4.2,-1.1 -4.25,-0.2 -6.85,1.8 -1.95,1.55 -3.05,4.25 l -0.5,1.75 q -0.45,2.7 1.25,5.3 1.25,1.85 3.2,2.95 2,1.15 4.15,1.2 3.25,0.15 5.5,-1.7 l 1.25,-1.2 M 26.45,17.8 25.2,17.1 23.65,15.65 22.25,13.8 21.35,12.1 Q 19.7,8 22.25,2.7 l 1.5,-2.35 q 1.45,-1.6 3.75,-2.05 2.3,-0.45 4.25,0.5 0.75,3.6 -0.2,7.95 -1.15,5.35 -4.3,9.95 l -0.8,1.1 m -36.8,0.85 q -0.45,0.85 -0.25,1.9 0.2,1.1 0.95,1.75 0.75,0.65 1.85,0.7 1.05,0.05 1.85,-0.5 0.85,-0.6 1.15,-1.65 0.3,-1 -0.1,-1.95 -0.35,-0.95 -1.3,-1.45 -0.9,-0.55 -1.9,-0.4 -1.55,0.25 -2.25,1.6 M -8.6,4.8 -8.75,5.7 q -0.35,1.35 -1.1,2.25 l -0.8,0.8 -1.2,0.8 q -1.5,0.65 -3.4,0.05 l -1.15,-0.5 -0.95,-0.7 -1,-1.15 -0.5,-0.95 Q -19,5.55 -18.65,4.35 l 0.3,-1 0.65,-1.1 1.05,-1.2 0.8,-0.4 0.5,-0.35 1.2,0.15 1.85,0.25 q 1,0.1 1.7,0.5 0.85,0.45 1.35,1.2 0.75,1.15 0.65,2.4 m 15.2,5.3 q 0.55,1.05 1.55,1.6 1.05,0.6 2.2,0.5 1.15,-0.05 2.05,-0.8 0.95,-0.75 1.3,-1.85 0.35,-1.1 0,-2.25 Q 13.35,6.15 12.45,5.45 11.6,4.7 10.4,4.6 9.2,4.5 8.2,5.05 6.95,5.75 6.45,7.3 5.95,8.8 6.6,10.1"
         fill="#a7a398"
         fill-rule="evenodd"
         stroke="none"
         id="path5" />
    </g>
    <g
       id="sprite1"
       transform="translate(17.4,15.85)">
      <use
         ffdec:characterId="31"
         height="57.200001"
         transform="matrix(0.5366,0,0,0.5366,-16.6582,-14.546)"
         width="70.75"
         xlink:href="#sprite2"
         id="use5" />
    </g>
    <g
       id="sprite2"
       transform="translate(-8.65,-10.35)">
      <use
         ffdec:characterId="30"
         height="57.200001"
         transform="translate(8.65,10.35)"
         width="70.75"
         xlink:href="#shape1"
         id="use6" />
    </g>
    <g
       id="shape1"
       transform="translate(-8.65,-10.35)">
      <path
         d="m 14.8,41.7 q 0.65,-1.75 2.65,-2.5 1.8,-0.8 3.7,-0.25 1.15,0.45 2.25,1.2 l 0.9,0.4 q 1.65,0.9 2.85,2.5 L 37.8,30.1 q 2.35,-2.8 3.75,-3.95 1.5,-1.15 4.25,-2.4 18.2,-8.85 27.65,-12.6 2.15,-0.8 3.25,-0.8 h 0.8 l 1.9,2.4 -0.2,0.8 q -0.2,1.1 -1.55,3 -5.85,8.25 -18.85,23.8 -1.85,2.35 -3.35,3.5 -1.4,1.15 -4.75,2.75 l -15.15,7.15 q 1.2,1.6 1.75,3.4 l 0.2,1 0.55,2.5 q 0.1,1.95 -1.1,3.55 -1.2,1.65 -3.05,1.9 l -1.3,0.05 q -1.65,0.2 -3.45,-0.65 -1.85,-0.9 -3,-2.6 L 25,60.95 23.8,62.1 q -2.6,2.85 -4.3,3.95 -2.85,1.8 -5.5,1.45 l -1.65,-0.5 -1.2,-0.7 -0.2,-0.2 q -1,-0.85 -1.6,-1.9 L 9.25,64 9.15,63.8 8.75,62.4 q -0.2,-0.8 -0.05,-1.7 0.25,-2.65 2.7,-5.05 1.5,-1.3 4.9,-3.15 L 17.7,51.55 16.05,50 q -1.35,-1.5 -1.8,-3.6 -0.4,-1.85 0.25,-3.45 l 0.3,-1.25"
         fill="#000000"
         fill-opacity="0.372549"
         fill-rule="evenodd"
         stroke="none"
         id="path6" />
    </g>
  </defs>
</svg>
