<?xml version="1.0" encoding="UTF-8" standalone="no"?>
<svg
   ffdec:objectType="frame"
   height="66.124527"
   width="82.27037"
   version="1.1"
   id="svg5"
   xmlns:xlink="http://www.w3.org/1999/xlink"
   xmlns="http://www.w3.org/2000/svg"
   xmlns:svg="http://www.w3.org/2000/svg"
   xmlns:ffdec="https://www.free-decompiler.com/flash">
  <g
     transform="translate(42.542188,35.25)"
     id="g1">
    <use
       ffdec:characterId="17"
       height="119.15"
       id="rarity"
       transform="translate(-58.5,-60.65)"
       width="119.15"
       xlink:href="#sprite0" />
    <use
       ffdec:characterId="973"
       height="66.099998"
       transform="translate(-42.55,-35.25)"
       width="82.300003"
       xlink:href="#shape0"
       id="use1" />
  </g>
  <defs
     id="defs5">
    <g
       id="shape0"
       transform="translate(89.35,36.6)">
      <path
         d="m -37.75,-36.6 q 14.05,0.65 23.15,11.2 9.1,10.6 7.2,24.4 -0.2,1.5 -0.75,2.9 -1,2.75 -3.45,1.55 l -0.15,1.15 q -0.55,3.3 -1.4,6.6 -2.45,10.4 -13.1,14.1 -7.45,2.6 -15.2,3.8 -9.55,1.5 -18.4,-2.3 -6.65,-2.85 -12.5,-7.2 -5.9,-4.45 -9.65,-10.65 -1.5,-2.4 -0.75,-3.9 l -2.9,-0.2 q -1.25,-0.1 -2,-1.2 -2.85,-4.25 -0.9,-9.1 l 0.05,-0.25 0.1,-0.4 0.3,-0.65 0.15,-0.25 q 3.45,-5.75 9.55,-9.7 l 2.05,-1.55 q 7.15,-6.5 14.9,-12.1 l -0.1,0.2 -0.25,0.25 -0.2,0.2 -0.15,0.15 q 6.95,-4.35 15.05,-5.95 l 9.35,-1.1 m -45.95,33.8 -0.05,0.1 v 0.65 0.65 0.2 0.25 l 0.1,0.4 q 7.8,0 15.35,-3.5 l 2.9,0.15 q 1.9,1.15 3.1,3 2.75,-3.8 6.8,-5.5 1.2,-0.5 2.15,0.35 3.85,3.35 6.8,7.45 l 0.65,-0.1 1.85,-1.95 2.15,-2.6 0.9,-1 q 2,-5 6.55,-3.45 1.15,0.4 1.9,1.55 l 4.45,6.25 q 2.45,-3.1 4.55,-6.4 0.65,-1.1 2,-0.85 4.85,0.95 9.05,3.45 0.3,-1 0.25,-2 l -0.05,-0.6 -0.7,-3.65 -0.25,-0.95 -0.55,-2.25 -0.35,-0.6 -0.1,-0.25 -0.05,-0.65 q -3.1,-6.4 -8.85,-10.65 -7.35,-5.5 -16.55,-5.55 -12.75,0.8 -23.3,7.95 l -6.2,4.1 -7.05,7.1 -5.1,4.9 -1.45,1.9 -0.9,2.1 m 9.25,-2.95 q -0.6,2.25 -2.15,2.9 -1.15,1.1 -2.45,0.2 l -1.05,-0.25 -0.35,-0.15 -0.45,-0.5 q -0.2,-1.15 0.1,-2.3 l 0.1,-0.3 q 0.5,-1.45 2.1,-2.05 l 0.2,-0.05 0.5,-0.05 v -0.05 l 1.05,0.05 1.2,0.4 0.7,0.4 0.2,0.25 0.2,0.45 0.1,0.4 0.1,0.2 -0.1,0.45 m 56.25,5.35 -1.9,-0.7 q -1.85,2.9 -4.15,5.4 0.85,0.3 1.6,1.25 l 0.4,0.35 q 1.9,-2.8 4.15,-5.4 l 0.5,-0.55 -0.6,-0.35 m -48.7,3.05 -0.7,-1.1 q -5.35,2.65 -11,3.3 8.5,13.55 24.5,17.85 11.7,3.15 23.05,-1.25 l 5.25,-2.25 q 5.6,-2.65 7.9,-8.3 0.8,-3.5 0.85,-7.1 l -2.3,3.9 -1.6,2.75 q -3.8,0.65 -6.5,-3 L -27.7,7.1 q -1.75,0.5 -3.4,-1.3 -2.5,3.8 -5.95,6.85 -0.55,0.55 -1.35,0.25 -4.45,-1.85 -6.65,-5.55 -2.55,1.25 -4.55,-0.8 -2.6,4.1 -6.45,7.2 l -0.6,0.05 q -4.1,-1.65 -7.2,-5.1 -1.85,-2.05 -1.3,-3.5 -0.95,-0.85 -1.75,-2.55 m 30.85,-3.85 q -2.3,3.15 -5.2,5.75 0.7,0.4 1.35,1.25 l 2.15,1.95 4,-4 0.7,-0.55 -3,-4.4 M -55.3,0.05 q -1.9,2.65 -4.5,4.65 1.2,1 2.15,2.45 l 1.5,1.45 4.1,-4 0.55,-0.4 -3.8,-4.15"
         fill="#000000"
         fill-rule="evenodd"
         stroke="none"
         id="path1" />
      <path
         d="m -80.45,-3.05 -1.5,0.65 -0.45,0.05 h -0.25 l -0.55,-0.2 -0.4,-0.2 -0.1,-0.05 0.9,-2.1 1.45,-1.9 5.1,-4.9 7.05,-7.1 6.2,-4.1 q 10.55,-7.15 23.3,-7.95 9.2,0.05 16.55,5.55 5.75,4.25 8.85,10.65 l 0.05,0.65 0.1,0.25 0.35,0.6 0.55,2.25 0.25,0.95 0.7,3.65 0.05,0.6 -0.25,-0.2 q -1.4,-1.25 -3.15,-1.95 l -2.9,-1.3 -0.75,-0.25 -3.1,-1.05 -3.9,-1.15 -0.35,-0.15 q -16,-3.55 -31.75,0.05 -5.05,1.2 -9.85,3.25 l -6.2,2.7 0.1,-0.45 -0.1,-0.2 -0.1,-0.4 -0.2,-0.45 -0.2,-0.25 -0.7,-0.4 -1.2,-0.4 -1.05,-0.05 v 0.05 l -0.5,0.05 -0.2,0.05 q -1.6,0.6 -2.1,2.05 l -0.1,0.3 q -0.3,1.15 -0.1,2.3 l 0.45,0.5"
         fill="#7a7a7a"
         fill-rule="evenodd"
         stroke="none"
         id="path2" />
      <path
         d="m -66.9,2.65 q 0.8,1.7 1.75,2.55 -0.55,1.45 1.3,3.5 3.1,3.45 7.2,5.1 l 0.6,-0.05 q 3.85,-3.1 6.45,-7.2 2,2.05 4.55,0.8 2.2,3.7 6.65,5.55 0.8,0.3 1.35,-0.25 3.45,-3.05 5.95,-6.85 1.65,1.8 3.4,1.3 l 0.25,0.35 q 2.7,3.65 6.5,3 l 1.6,-2.75 2.3,-3.9 q -0.05,3.6 -0.85,7.1 -2.3,5.65 -7.9,8.3 l -5.25,2.25 q -11.35,4.4 -23.05,1.25 -16,-4.3 -24.5,-17.85 5.65,-0.65 11,-3.3 l 0.7,1.1"
         fill="#4e4e4e"
         fill-rule="evenodd"
         stroke="none"
         id="path3" />
      <path
         d="m -83.7,-2.8 0.1,0.05 0.4,0.2 0.55,0.2 h 0.25 l 0.45,-0.05 1.5,-0.65 0.35,0.15 1.05,0.25 q 1.3,0.9 2.45,-0.2 1.55,-0.65 2.15,-2.9 l 6.2,-2.7 q 4.8,-2.05 9.85,-3.25 15.75,-3.6 31.75,-0.05 l 0.35,0.15 3.9,1.15 3.1,1.05 0.75,0.25 2.9,1.3 q 1.75,0.7 3.15,1.95 l 0.25,0.2 q 0.05,1 -0.25,2 -4.2,-2.5 -9.05,-3.45 -1.35,-0.25 -2,0.85 -2.1,3.3 -4.55,6.4 l -4.45,-6.25 Q -33.3,-7.3 -34.45,-7.7 -39,-9.25 -41,-4.25 l -0.9,1 -2.15,2.6 -1.85,1.95 -0.65,0.1 q -2.95,-4.1 -6.8,-7.45 -0.95,-0.85 -2.15,-0.35 -4.05,1.7 -6.8,5.5 -1.2,-1.85 -3.1,-3 l -2.9,-0.15 q -7.55,3.5 -15.35,3.5 l -0.1,-0.4 V -1.2 -1.4 -2.05 -2.7 l 0.05,-0.1"
         fill="#696969"
         fill-rule="evenodd"
         stroke="none"
         id="path4" />
    </g>
    <g
       id="sprite1"
       transform="translate(17.4,15.85)">
      <use
         ffdec:characterId="31"
         height="57.200001"
         transform="matrix(0.5366,0,0,0.5366,-16.6582,-14.546)"
         width="70.75"
         xlink:href="#sprite2"
         id="use4" />
    </g>
    <g
       id="sprite2"
       transform="translate(-8.65,-10.35)">
      <use
         ffdec:characterId="30"
         height="57.200001"
         transform="translate(8.65,10.35)"
         width="70.75"
         xlink:href="#shape1"
         id="use5" />
    </g>
    <g
       id="shape1"
       transform="translate(-8.65,-10.35)">
      <path
         d="m 14.8,41.7 q 0.65,-1.75 2.65,-2.5 1.8,-0.8 3.7,-0.25 1.15,0.45 2.25,1.2 l 0.9,0.4 q 1.65,0.9 2.85,2.5 L 37.8,30.1 q 2.35,-2.8 3.75,-3.95 1.5,-1.15 4.25,-2.4 18.2,-8.85 27.65,-12.6 2.15,-0.8 3.25,-0.8 h 0.8 l 1.9,2.4 -0.2,0.8 q -0.2,1.1 -1.55,3 -5.85,8.25 -18.85,23.8 -1.85,2.35 -3.35,3.5 -1.4,1.15 -4.75,2.75 l -15.15,7.15 q 1.2,1.6 1.75,3.4 l 0.2,1 0.55,2.5 q 0.1,1.95 -1.1,3.55 -1.2,1.65 -3.05,1.9 l -1.3,0.05 q -1.65,0.2 -3.45,-0.65 -1.85,-0.9 -3,-2.6 L 25,60.95 23.8,62.1 q -2.6,2.85 -4.3,3.95 -2.85,1.8 -5.5,1.45 l -1.65,-0.5 -1.2,-0.7 -0.2,-0.2 q -1,-0.85 -1.6,-1.9 L 9.25,64 9.15,63.8 8.75,62.4 q -0.2,-0.8 -0.05,-1.7 0.25,-2.65 2.7,-5.05 1.5,-1.3 4.9,-3.15 L 17.7,51.55 16.05,50 q -1.35,-1.5 -1.8,-3.6 -0.4,-1.85 0.25,-3.45 l 0.3,-1.25"
         fill="#000000"
         fill-opacity="0.372549"
         fill-rule="evenodd"
         stroke="none"
         id="path5" />
    </g>
  </defs>
</svg>
