<?xml version="1.0" encoding="UTF-8" standalone="no"?>
<svg
   ffdec:objectType="frame"
   height="69.224037"
   width="65.268913"
   version="1.1"
   id="svg8"
   sodipodi:docname="ITEM Optic Nerve Implant.svg"
   xmlns:inkscape="http://www.inkscape.org/namespaces/inkscape"
   xmlns:sodipodi="http://sodipodi.sourceforge.net/DTD/sodipodi-0.dtd"
   xmlns:xlink="http://www.w3.org/1999/xlink"
   xmlns="http://www.w3.org/2000/svg"
   xmlns:svg="http://www.w3.org/2000/svg"
   xmlns:ffdec="https://www.free-decompiler.com/flash">
  <sodipodi:namedview
     id="namedview8"
     pagecolor="#ffffff"
     bordercolor="#000000"
     borderopacity="0.25"
     inkscape:showpageshadow="2"
     inkscape:pageopacity="0.0"
     inkscape:pagecheckerboard="0"
     inkscape:deskcolor="#d1d1d1"
     fit-margin-top="5"
     fit-margin-left="5"
     fit-margin-right="5"
     fit-margin-bottom="5" />
  <g
     transform="translate(30.195833,31.493243)"
     id="g2">
    <use
       ffdec:characterId="17"
       height="119.15"
       id="rarity"
       transform="translate(-58.5,-60.65)"
       width="119.15"
       xlink:href="#sprite0" />
    <use
       ffdec:characterId="946"
       height="69.25"
       transform="translate(-30.2,-31.5)"
       width="65.25"
       xlink:href="#shape0"
       id="use1" />
    <use
       ffdec:characterId="947"
       height="11.1"
       transform="translate(5,-2.9)"
       width="11.2"
       xlink:href="#shape1"
       id="use2" />
  </g>
  <defs
     id="defs8">
    <g
       id="shape0"
       transform="translate(77,32.85)">
      <path
         d="m -48.6,-26.75 -4.55,0.95 q -7.65,2.15 -13.55,7.8 l -0.9,0.85 -0.8,0.9 q -1.6,2.05 -2.15,4.55 -0.8,3.5 0.45,6.6 1.35,3.25 4.75,4.35 l 2.55,0.95 q 1.75,0.75 3.3,1.8 l 2.85,-0.05 q 1.4,0.35 2.65,-0.3 h 0.25 q 0.55,-2.7 1.6,-5.05 2.85,-6.4 9.4,-10.3 1.2,-0.7 2.55,-1.2 l 2.65,-0.75 0.9,-0.1 3.05,-0.15 0.15,-0.3 v -0.2 l -0.05,-0.45 -0.05,-0.2 0.1,-0.25 0.15,-0.4 0.05,-0.25 -0.05,-2.35 v -2.35 q -0.4,-1.55 -1.4,-2.75 l -0.75,-0.95 -2.2,-0.55 -6.25,-0.2 -4.7,0.35 M -63.5,-9.1 q -0.2,0.85 -1.25,1.95 l -2.5,0.1 q -1.8,-1.55 -1.2,-2.9 0.3,-0.8 1.35,-1.5 0.45,-0.35 0.9,-0.4 h 0.2 q 2.25,0.8 2.5,2.05 v 0.7 m 18.9,-23.7 q 8.15,-0.4 15.4,2.9 2.2,1 3.8,2.7 6.25,4.85 9.95,11.9 4.4,8.4 3.6,17.9 -0.8,10.15 -5.3,19.15 -1.5,3 -3.95,5.3 -5.85,5.6 -13.6,7.8 -11.45,3.25 -23.1,-0.4 -7.45,-2.35 -10.95,-9.35 -2.3,-4.55 -1.45,-9.75 0.95,-5.4 4.7,-9.55 -5.95,-1.55 -9.25,-6.7 -3.85,-6.05 -1.1,-12.95 1.3,-7.3 7.8,-11.65 10.65,-7.15 23.45,-7.3 m -4.8,9 0.55,0.1 1.05,0.65 0.25,0.3 0.45,0.8 q -0.4,4 -3.8,1.75 -1.1,-0.7 -0.65,-2 0.35,-1.05 1.35,-1.45 l 0.25,-0.05 0.55,-0.05 v -0.05 m -9.75,3.5 q 5.1,1.8 1.35,5.5 l -2.7,0.1 q -3.4,-2.7 0.15,-5.15 l 1.2,-0.45 m 33.8,0.4 -3.5,-3.05 -0.6,-0.45 -1.25,-0.8 0.1,0.4 0.05,1.2 q 0.05,2.4 -0.2,4.8 l -0.25,1.75 v 0.15 l -0.1,0.3 0.2,0.05 q 3.45,0.75 6.4,3.15 2.9,2.4 4.15,5.9 0.9,2.45 1.05,5.05 0.25,3.25 -0.65,6.6 -2.65,9.8 -11.55,12.6 1.05,6.8 -3.75,11.3 4.7,-1.75 8.9,-5.4 7.45,-6.45 8.65,-16.35 0.5,-4.35 0.2,-8.6 l -0.45,-3.85 q -1.4,-8.6 -7.4,-14.75 m -20.6,20.75 q 0.4,-1.4 1.4,-2.75 1.85,-2.65 4.8,-4 l 0.4,-0.6 1.75,-1.25 1,-0.35 0.8,-0.15 q 9.15,0.15 9.1,8.85 -0.05,8.85 -9.25,10.55 -6.4,1.15 -9.3,-4.45 -1.55,-3 -0.7,-5.85 m 5.65,-9.55 q -5.6,2.9 -7.65,9.5 l -0.2,0.7 q -0.8,2.85 -0.25,5.75 l 0.7,1.3 0.6,1.05 0.55,0.85 q 10.8,6.85 19.45,-2.15 0.95,-0.95 1.45,-2.25 0.75,-2.2 1.05,-4.55 0.45,-3.6 -1,-6.85 -1.15,-3.3 -4.3,-4.55 -2.4,-1 -5.05,-0.65 -3,0.6 -5.35,1.85 m 4.65,4.7 q -3.4,1.65 -5.3,4.85 -0.55,1 -0.65,2.1 l 0.35,0.9 q 0.3,0.35 0.45,0.8 l 0.05,0.25 1,0.9 0.35,0.35 q 3.15,1.15 6.1,-0.9 l 0.25,-0.15 q 1.1,-0.9 1.6,-2.2 l 0.8,-2.1 q 0.1,-1.7 -0.9,-3 -1,-1.3 -2.6,-1.85 L -35.65,-4 M -54,29.25 l 2.85,0.75 7.9,0.65 0.3,-0.1 0.2,-0.2 0.2,-0.2 0.25,-0.15 0.5,-0.15 1.1,-0.3 q 1.8,-1.05 3.4,-2.35 l 0.55,-0.45 Q -35.65,25 -35,23.1 l 0.6,-1.7 -0.1,-1.3 0.05,-1.65 -1.7,0.25 q -3,0.35 -5.55,-0.1 L -44.15,18 q -1.8,-0.6 -3.35,-1.65 -1.8,-1.3 -3.25,-3.15 l -0.7,-0.95 -1.1,-1.75 -0.75,-1.65 -0.35,-1.1 -0.3,-1.65 H -54.1 L -58.2,6 q -1.25,2.05 -2.85,3.9 -3.75,4.3 -3.15,10.05 0.35,3.7 3.5,5.95 3.05,2.15 6.7,3.35"
         fill="#000000"
         fill-rule="evenodd"
         stroke="none"
         id="path2" />
      <path
         d="m -53.15,-25.8 3.9,-0.2 h 0.55 q 5.7,0.2 5.45,4.05 l -0.1,0.65 -0.45,1.5 q -1.05,2.65 -3.3,4.4 -7.45,5.65 -16.4,6.3 v -0.7 q -0.25,-1.25 -2.5,-2.05 h -0.2 q -0.45,0.05 -0.9,0.4 -1.05,0.7 -1.35,1.5 l -0.75,-0.9 q 0.35,-2.85 1.45,-5.2 L -66.7,-18 q 5.9,-5.65 13.55,-7.8 m 3.75,2 v 0.05 l -0.55,0.05 -0.25,0.05 q -1,0.4 -1.35,1.45 -0.45,1.3 0.65,2 3.4,2.25 3.8,-1.75 l -0.45,-0.8 -0.25,-0.3 -1.05,-0.65 -0.55,-0.1 m -5.15,3.55 -1,0.45 -0.35,0.15 -0.05,0.05 0.5,0.2 0.45,-0.1 0.7,-0.4 0.2,-0.15 -0.45,-0.2 m -4.6,-0.05 -1.2,0.45 q -3.55,2.45 -0.15,5.15 l 2.7,-0.1 q 3.75,-3.7 -1.35,-5.5 m 29.7,-3.1 0.6,0.45 3.5,3.05 q -0.85,2.2 -4.55,2.25 l -0.85,-0.15 q 0.25,-2.4 0.2,-4.8 l 1.1,-0.8 m -8.15,15.65 -1.75,1.25 -0.4,0.6 q -2.95,1.35 -4.8,4 -1,1.35 -1.4,2.75 l -0.1,0.05 -1.1,0.5 -0.45,-0.2 -0.25,-0.2 -0.1,-0.2 q 2.05,-6.6 7.65,-9.5 l 0.65,-0.2 1.15,0.25 0.8,0.4 0.1,0.5 m -15.7,16.6 0.75,1.65 1.1,1.75 0.7,0.95 -0.55,1.85 q -1.95,5.25 -7.3,3.55 -1.1,-0.35 -1.8,-1.35 -0.7,-3.1 1.1,-5.65 l 0.05,-0.1 q 1.3,-1.85 3.35,-2.9 l 0.25,-0.05 0.3,-0.05 0.3,-0.05 V 8.4 l 1.75,0.45"
         fill="#ffffff"
         fill-rule="evenodd"
         stroke="none"
         id="path3" />
      <path
         d="m -49.25,-26 0.5,-0.65 0.15,-0.1 4.7,-0.35 6.25,0.2 1.55,1.35 q 2.2,2.25 1.3,5.4 -0.7,2.35 -1.85,4.4 l -0.9,0.1 -2.65,0.75 q -1.35,0.5 -2.55,1.2 -6.55,3.9 -9.4,10.3 -2.55,1.3 -5.3,2.35 -2.85,1.1 -5.35,1.25 l -2.55,-0.95 q -3.4,-1.1 -4.75,-4.35 -1.25,-3.1 -0.45,-6.6 0.55,-2.5 2.15,-4.55 l 0.65,0.2 q -1.1,2.35 -1.45,5.2 l 0.75,0.9 q -0.6,1.35 1.2,2.9 l 2.5,-0.1 q 1.05,-1.1 1.25,-1.95 8.95,-0.65 16.4,-6.3 2.25,-1.75 3.3,-4.4 l 0.45,-1.5 0.3,-0.55 -0.15,-0.1 h -0.05 Q -43,-25.8 -48.7,-26 h -0.55 m 19.8,2.6 -1.1,0.8 -0.05,-1.2 -0.1,-0.4 1.25,0.8 m -1.3,5.6 0.85,0.15 q 3.7,-0.05 4.55,-2.25 6,6.15 7.4,14.75 l 0.45,3.85 h -0.3 l -1.5,-0.15 q -0.15,-2.6 -1.05,-5.05 -1.25,-3.5 -4.15,-5.9 -2.95,-2.4 -6.4,-3.15 L -31,-15.9 v -0.15 l 0.25,-1.75 m -6.85,10.05 -0.1,-0.5 -0.8,-0.4 -1.15,-0.25 -0.65,0.2 q 2.35,-1.25 5.35,-1.85 2.65,-0.35 5.05,0.65 3.15,1.25 4.3,4.55 1.45,3.25 1,6.85 -0.3,2.35 -1.05,4.55 -0.5,1.3 -1.45,2.25 -8.65,9 -19.45,2.15 L -47.1,9.6 -47.7,8.55 -48.4,7.25 q -0.55,-2.9 0.25,-5.75 l 0.2,-0.7 0.1,0.2 0.25,0.2 0.45,0.2 1.1,-0.5 0.1,-0.05 q -0.85,2.85 0.7,5.85 2.9,5.6 9.3,4.45 9.2,-1.7 9.25,-10.55 0.05,-8.7 -9.1,-8.85 l -0.8,0.15 -1,0.35 m -4.1,26.35 q 0.5,5.35 -6.1,8.7 -3.25,1.65 -6.2,1.95 -3.65,-1.2 -6.7,-3.35 -3.15,-2.25 -3.5,-5.95 -0.6,-5.75 3.15,-10.05 1.6,-1.85 2.85,-3.9 l 4.1,0.1 h 0.15 l 0.3,1.65 q -0.9,0.3 -1.7,0.75 l -0.3,0.05 -0.25,0.05 q -2.05,1.05 -3.35,2.9 l -0.05,0.1 q -1.8,2.55 -1.1,5.65 0.7,1 1.8,1.35 5.35,1.7 7.3,-3.55 l 0.55,-1.85 q 1.45,1.85 3.25,3.15 1.55,1.05 3.35,1.65 l 2.45,0.6"
         fill="#aaaaaa"
         fill-rule="evenodd"
         stroke="none"
         id="path4" />
      <path
         d="m -35.65,-4 1.5,-0.05 q 1.6,0.55 2.6,1.85 1,1.3 0.9,3 l -0.8,2.1 q -0.5,1.3 -1.6,2.2 l -0.25,0.15 q -2.95,2.05 -6.1,0.9 l -0.35,-0.35 -1,-0.9 -0.05,-0.25 q -0.15,-0.45 -0.45,-0.8 l -0.35,-0.9 q 0.1,-1.1 0.65,-2.1 1.9,-3.2 5.3,-4.85"
         fill="#917171"
         fill-rule="evenodd"
         stroke="none"
         id="path5" />
      <path
         d="m -62.8,0.2 q 2.5,-0.15 5.35,-1.25 2.75,-1.05 5.3,-2.35 -1.05,2.35 -1.6,5.05 H -54 q -1.25,0.65 -2.65,0.3 L -59.5,2 q -1.55,-1.05 -3.3,-1.8 m 26.15,-15.95 q 1.15,-2.05 1.85,-4.4 0.9,-3.15 -1.3,-5.4 l -1.55,-1.35 2.2,0.55 0.75,0.95 q 1,1.2 1.4,2.75 v 2.35 l 0.05,2.35 -0.05,0.25 -0.15,0.4 -0.1,0.25 0.05,0.2 0.05,0.45 v 0.2 l -0.15,0.3 -3.05,0.15 M -17.5,-1.3 q 0.3,4.25 -0.2,8.6 -1.2,9.9 -8.65,16.35 -4.2,3.65 -8.9,5.4 4.8,-4.5 3.75,-11.3 8.9,-2.8 11.55,-12.6 0.9,-3.35 0.65,-6.6 l 1.5,0.15 h 0.3 m -24.2,19.9 q 2.55,0.45 5.55,0.1 l 1.7,-0.25 -0.05,1.65 0.1,1.3 -0.6,1.7 q -0.65,1.9 -1.75,3.65 l -0.55,0.45 q -1.6,1.3 -3.4,2.35 l -1.1,0.3 -0.5,0.15 -0.25,0.15 -0.2,0.2 -0.2,0.2 -0.3,0.1 L -51.15,30 -54,29.25 q 2.95,-0.3 6.2,-1.95 6.6,-3.35 6.1,-8.7"
         fill="#838383"
         fill-rule="evenodd"
         stroke="none"
         id="path6" />
    </g>
    <g
       id="shape1"
       transform="translate(41.8,4.25)">
      <path
         d="m -35.8,-4.25 q 6.85,1.2 4.7,7.75 -0.7,2.2 -2.95,2.85 -6.45,1.95 -7.6,-3.7 -0.7,-3.3 2.2,-5.4 1.7,-1.25 3.65,-1.5"
         fill="#945d5d"
         fill-rule="evenodd"
         stroke="none"
         id="path7" />
    </g>
    <g
       id="sprite1"
       transform="translate(17.4,15.85)">
      <use
         ffdec:characterId="31"
         height="57.200001"
         transform="matrix(0.5366,0,0,0.5366,-16.6582,-14.546)"
         width="70.75"
         xlink:href="#sprite2"
         id="use7" />
    </g>
    <g
       id="sprite2"
       transform="translate(-8.65,-10.35)">
      <use
         ffdec:characterId="30"
         height="57.200001"
         transform="translate(8.65,10.35)"
         width="70.75"
         xlink:href="#shape2"
         id="use8" />
    </g>
    <g
       id="shape2"
       transform="translate(-8.65,-10.35)">
      <path
         d="m 14.8,41.7 q 0.65,-1.75 2.65,-2.5 1.8,-0.8 3.7,-0.25 1.15,0.45 2.25,1.2 l 0.9,0.4 q 1.65,0.9 2.85,2.5 L 37.8,30.1 q 2.35,-2.8 3.75,-3.95 1.5,-1.15 4.25,-2.4 18.2,-8.85 27.65,-12.6 2.15,-0.8 3.25,-0.8 h 0.8 l 1.9,2.4 -0.2,0.8 q -0.2,1.1 -1.55,3 -5.85,8.25 -18.85,23.8 -1.85,2.35 -3.35,3.5 -1.4,1.15 -4.75,2.75 l -15.15,7.15 q 1.2,1.6 1.75,3.4 l 0.2,1 0.55,2.5 q 0.1,1.95 -1.1,3.55 -1.2,1.65 -3.05,1.9 l -1.3,0.05 q -1.65,0.2 -3.45,-0.65 -1.85,-0.9 -3,-2.6 L 25,60.95 23.8,62.1 q -2.6,2.85 -4.3,3.95 -2.85,1.8 -5.5,1.45 l -1.65,-0.5 -1.2,-0.7 -0.2,-0.2 q -1,-0.85 -1.6,-1.9 L 9.25,64 9.15,63.8 8.75,62.4 q -0.2,-0.8 -0.05,-1.7 0.25,-2.65 2.7,-5.05 1.5,-1.3 4.9,-3.15 L 17.7,51.55 16.05,50 q -1.35,-1.5 -1.8,-3.6 -0.4,-1.85 0.25,-3.45 l 0.3,-1.25"
         fill="#000000"
         fill-opacity="0.372549"
         fill-rule="evenodd"
         stroke="none"
         id="path8" />
    </g>
  </defs>
</svg>
