<?xml version="1.0" encoding="UTF-8" standalone="no"?>
<svg
   ffdec:objectType="frame"
   height="43.268181"
   width="44.677593"
   version="1.1"
   id="svg5"
   xmlns:xlink="http://www.w3.org/1999/xlink"
   xmlns="http://www.w3.org/2000/svg"
   xmlns:svg="http://www.w3.org/2000/svg"
   xmlns:ffdec="https://www.free-decompiler.com/flash">
  <g
     transform="translate(23.0125,23.068182)"
     id="g1">
    <use
       ffdec:characterId="17"
       height="119.15"
       id="rarity"
       transform="translate(-58.5,-60.65)"
       width="119.15"
       xlink:href="#sprite0" />
    <use
       ffdec:characterId="567"
       height="43.5"
       transform="translate(-23,-23.05)"
       width="44.650002"
       xlink:href="#shape0"
       id="use1" />
  </g>
  <defs
     id="defs5">
    <g
       id="shape0"
       transform="translate(22.6,22.25)">
      <path
         d="m -22.5,5.65 q -0.45,-5.05 0.9,-9.95 1.45,-4.95 4.5,-8.9 3.1,-3.95 7.65,-6.4 4.6,-2.45 9.55,-2.65 4.9,-0.2 10.05,1.8 5.75,2.25 8.6,6.4 1.2,1.85 2.1,4.5 1.15,3.4 1.2,6.05 0.2,4.2 -2.25,10.45 -1.1,2.75 -2.2,4.25 l -3.7,3.55 Q 6.95,19.85 -1.55,21 l -9.15,-0.35 q -5,-1.25 -7.85,-4.6 -3.4,-3.85 -3.95,-10.4 M -16.4,2 v 2.5 q 0.3,4.75 2.35,7.2 1.95,2.35 5.35,3.2 l 6.3,0.2 Q 4.3,14.2 9.9,10.35 l 2.7,-2.4 q 1.2,-1.5 2.2,-4.25 1.55,-4.15 1.45,-6.95 -0.15,-2.1 -0.95,-4.45 -0.85,-2.5 -2,-3.9 l -0.1,-0.1 q -1.05,-1.2 -2.7,-2.1 -3.35,-1.95 -7.25,-2.35 -3.95,-0.4 -7.5,0.85 -2.9,1.05 -5.35,3.1 -2.4,2.05 -4,4.75 -2.5,4.3 -2.8,9.45"
         fill="#000000"
         fill-rule="evenodd"
         stroke="none"
         id="path1" />
      <path
         d="m -10.5,-5.35 q -0.7,-1.05 -0.25,-2.45 l 1.3,-2.15 1.85,-1.85 1.3,-0.95 1.2,-0.75 2.1,-0.3 1.5,0.35 q 0.75,0.4 1.15,1.3 0.3,0.65 0.25,1.35 l -0.05,0.35 q -0.15,1.35 -1.2,2.65 l -0.4,0.45 q -2.45,2.75 -5.3,3.15 l -1.9,-0.1 Q -10,-4.55 -10.5,-5.35 m 20.95,11.1 q 0.25,1.3 -0.4,2.15 -0.65,1 -1.8,1.15 L 6.65,8.75 Q 5.9,8.3 5.55,7.55 5.2,6.8 5.35,5.95 5.5,5.1 6.05,4.5 6.65,3.9 7.35,3.75 8.4,3.5 9.3,4.1 q 0.9,0.6 1.15,1.65"
         fill="#ffffff"
         fill-rule="evenodd"
         stroke="none"
         id="path2" />
      <path
         d="m 13.3,-11.6 q 0.25,1.2 -0.05,2.7 Q 12.6,-5.6 8.7,-1.8 6.5,0.4 4.2,1.8 L -0.65,3.85 Q -4.5,5.1 -7.4,5.2 -11.25,5.35 -14.1,3.85 -15.55,3.15 -16.4,2 q 0.3,-5.15 2.8,-9.45 1.6,-2.7 4,-4.75 2.45,-2.05 5.35,-3.1 3.55,-1.25 7.5,-0.85 3.9,0.4 7.25,2.35 1.65,0.9 2.7,2.1 l 0.1,0.1 m -23.8,6.25 q 0.5,0.8 1.55,1.05 l 1.9,0.1 q 2.85,-0.4 5.3,-3.15 l 0.4,-0.45 q 1.05,-1.3 1.2,-2.65 l 0.05,-0.35 q 0.05,-0.7 -0.25,-1.35 -0.4,-0.9 -1.15,-1.3 l -1.5,-0.35 -2.1,0.3 -1.2,0.75 -1.3,0.95 -1.85,1.85 -1.3,2.15 q -0.45,1.4 0.25,2.45"
         fill="#cbcbcb"
         fill-rule="evenodd"
         stroke="none"
         id="path3" />
      <path
         d="m 13.3,-11.6 q 1.15,1.4 2,3.9 0.8,2.35 0.95,4.45 0.1,2.8 -1.45,6.95 -1,2.75 -2.2,4.25 l -2.7,2.4 Q 4.3,14.2 -2.4,15.1 L -8.7,14.9 Q -12.1,14.05 -14.05,11.7 -16.1,9.25 -16.4,4.5 V 2 q 0.85,1.15 2.3,1.85 2.85,1.5 6.7,1.35 2.9,-0.1 6.75,-1.35 L 4.2,1.8 q 2.3,-1.4 4.5,-3.6 3.9,-3.8 4.55,-7.1 0.3,-1.5 0.05,-2.7 M 10.45,5.75 Q 10.2,4.7 9.3,4.1 8.4,3.5 7.35,3.75 6.65,3.9 6.05,4.5 5.5,5.1 5.35,5.95 5.2,6.8 5.55,7.55 5.9,8.3 6.65,8.75 l 1.6,0.3 Q 9.4,8.9 10.05,7.9 10.7,7.05 10.45,5.75"
         fill="#a3a3a3"
         fill-rule="evenodd"
         stroke="none"
         id="path4" />
    </g>
    <g
       id="sprite1"
       transform="translate(17.4,15.85)">
      <use
         ffdec:characterId="31"
         height="57.200001"
         transform="matrix(0.5366,0,0,0.5366,-16.6582,-14.546)"
         width="70.75"
         xlink:href="#sprite2"
         id="use4" />
    </g>
    <g
       id="sprite2"
       transform="translate(-8.65,-10.35)">
      <use
         ffdec:characterId="30"
         height="57.200001"
         transform="translate(8.65,10.35)"
         width="70.75"
         xlink:href="#shape1"
         id="use5" />
    </g>
    <g
       id="shape1"
       transform="translate(-8.65,-10.35)">
      <path
         d="m 14.8,41.7 q 0.65,-1.75 2.65,-2.5 1.8,-0.8 3.7,-0.25 1.15,0.45 2.25,1.2 l 0.9,0.4 q 1.65,0.9 2.85,2.5 L 37.8,30.1 q 2.35,-2.8 3.75,-3.95 1.5,-1.15 4.25,-2.4 18.2,-8.85 27.65,-12.6 2.15,-0.8 3.25,-0.8 h 0.8 l 1.9,2.4 -0.2,0.8 q -0.2,1.1 -1.55,3 -5.85,8.25 -18.85,23.8 -1.85,2.35 -3.35,3.5 -1.4,1.15 -4.75,2.75 l -15.15,7.15 q 1.2,1.6 1.75,3.4 l 0.2,1 0.55,2.5 q 0.1,1.95 -1.1,3.55 -1.2,1.65 -3.05,1.9 l -1.3,0.05 q -1.65,0.2 -3.45,-0.65 -1.85,-0.9 -3,-2.6 L 25,60.95 23.8,62.1 q -2.6,2.85 -4.3,3.95 -2.85,1.8 -5.5,1.45 l -1.65,-0.5 -1.2,-0.7 -0.2,-0.2 q -1,-0.85 -1.6,-1.9 L 9.25,64 9.15,63.8 8.75,62.4 q -0.2,-0.8 -0.05,-1.7 0.25,-2.65 2.7,-5.05 1.5,-1.3 4.9,-3.15 L 17.7,51.55 16.05,50 q -1.35,-1.5 -1.8,-3.6 -0.4,-1.85 0.25,-3.45 l 0.3,-1.25"
         fill="#000000"
         fill-opacity="0.372549"
         fill-rule="evenodd"
         stroke="none"
         id="path5" />
    </g>
  </defs>
</svg>
