<?xml version="1.0" encoding="UTF-8" standalone="no"?>
<svg
   ffdec:objectType="frame"
   height="79.426086"
   width="81.308693"
   version="1.1"
   id="svg4"
   xmlns:xlink="http://www.w3.org/1999/xlink"
   xmlns="http://www.w3.org/2000/svg"
   xmlns:svg="http://www.w3.org/2000/svg"
   xmlns:ffdec="https://www.free-decompiler.com/flash">
  <g
     transform="translate(40.101282,39.826087)"
     id="g1">
    <use
       ffdec:characterId="17"
       height="119.15"
       id="rarity"
       transform="translate(-58.5,-60.65)"
       width="119.15"
       xlink:href="#sprite0" />
    <use
       ffdec:characterId="839"
       height="79.449997"
       transform="translate(-40.1,-39.85)"
       width="81.300003"
       xlink:href="#shape0"
       id="use1" />
  </g>
  <defs
     id="defs4">
    <g
       id="shape0"
       transform="translate(40.65,40.6)">
      <path
         d="m 25.15,-19.5 -0.25,0.6 -1.4,2.65 -0.5,0.6 q -0.45,0.2 -0.7,-0.2 l 0.05,-0.5 3.7,-10.65 0.35,-0.75 -4.8,4.35 -1.45,1.45 q -1.7,2.4 -2.85,3.2 l 0.5,3.55 0.65,2.7 0.55,2.7 0.9,0.2 1.8,-0.05 2.75,-0.35 4.1,-0.05 1.85,-0.4 1.25,-1.15 q 2.1,-2.25 4.6,-3.4 l -2.2,-3.4 -0.3,-0.35 -0.55,0.05 -2.1,0.8 q -1.6,0.75 -2.45,0.45 -1.15,-0.55 -1.15,-2.1 l 0.4,-2.5 0.1,-1.75 0.1,-1 -0.5,1.3 -0.95,1.45 -1,1.4 -0.5,1.15 M 16.1,-6.4 q -0.7,-0.7 -1.15,-2.8 l -1.6,-8.35 Q 13.1,-19 13.3,-19.6 q 0.3,-0.8 1.65,-1.95 l 5.55,-5.2 q 3.35,-3.15 6.05,-4.45 l 2.2,-0.55 q 1.1,0.05 2.9,1.55 1.15,1.05 1.35,1.7 v 1.35 l -0.35,1.35 q -0.5,1.55 -0.5,3.45 1.95,-1.2 3.05,-0.75 1,0.4 1.8,2.2 1.3,2.45 2.5,3.95 1.25,1.65 1.15,2.55 -0.1,1.15 -2.25,2.55 -2.15,1.5 -3.6,3.15 -1.65,1.95 -2.55,2.4 -1.05,0.55 -3.15,0.65 L 23.5,-5.3 18.2,-5.45 Q 16.75,-5.75 16.1,-6.4 M 6.65,-36.95 q 0.25,-0.5 1.1,-0.9 l 3.3,-1.6 q 0.8,-0.2 1.1,-0.45 l 0.8,-0.5 q 0.9,-0.45 1.65,0.25 l 0.65,0.8 2.65,4.2 q 0.65,1.05 0.5,1.8 -0.1,0.6 -1,1.3 l -1.75,1.55 -1.05,0.85 -0.95,0.7 -0.8,0.9 q -0.65,0.45 -1.65,0.2 L 9.55,-28.4 8.2,-28.75 q -0.85,-0.3 -1.1,-0.8 l -0.2,-0.9 v -1 l -0.2,-1.6 -0.2,-2.85 q 0,-0.75 0.15,-1.05 m 6.1,0.3 q -1.25,0.9 -2.75,0.8 l -0.5,0.1 q -0.15,0.2 -0.05,0.55 l 0.4,3 q 0,0.25 0.15,0.4 l 0.55,0.1 0.7,0.3 q 0.3,0 0.55,-0.25 l 3.2,-2.55 -1.6,-2.4 -0.25,-0.2 -0.4,0.15 m -19.6,26.4 -2.4,-0.55 -3.6,-1.25 -3.65,-0.95 -2.2,-0.4 q -1.25,-0.25 -2,-0.85 l -1.8,-2.5 -2.55,-3.55 q -1.5,-1.6 -1.7,-2.55 -0.15,-1.05 0.7,-2.8 1.45,-2.75 4.15,-5.8 l 5.05,-5.2 q 1.95,-2.05 3.25,-2.45 1.6,-0.5 4.8,0.4 l 8.2,2.45 q 2.35,0.7 2.9,1.8 0.4,0.7 0.3,2.35 -0.25,3.05 -0.15,7.7 0.1,3 0.55,4.75 0.55,1.8 0.25,2.6 -0.25,0.75 -1.2,1.35 l -1.7,1 -1.5,1.3 -1.4,1.4 q -2.05,1.9 -4.3,1.75 m 46.2,24.95 q 0,1.15 -1.85,2.45 l -7.85,5.5 q -1.6,1.2 -2.7,1.15 -0.8,-0.05 -2.1,-0.95 -2.8,-1.8 -6.6,-3.7 -1.55,-0.75 -2,-1.6 -0.25,-0.6 -0.15,-1.95 0.5,-5 1.1,-7.55 L 17.65,5.7 17.75,4.85 Q 17.8,4.35 18,4 18.4,3.15 20.35,2.4 L 22.9,1.2 24.3,0.4 q 0.85,-0.5 1.45,-0.7 l 2.45,-0.35 1.7,0.2 0.7,0.5 0.65,0.65 1.9,1.3 q 1.25,0.75 1.75,1.4 l 1.05,2.55 q 1.15,3.75 2.85,7.1 0.55,0.9 0.55,1.65 M 21.75,6.9 q -1.1,4.1 -1.45,8.25 l 6.2,3.6 0.7,0.2 0.55,-0.25 7.15,-4.85 q -1.55,-3.2 -2.8,-7 L 31.7,6.05 31.65,6 31,5.6 29.75,4.75 Q 28.45,3.85 27,3.3 l -0.35,-0.1 -0.4,0.2 q -1.55,1.1 -3.4,1.8 l -0.7,0.45 -0.25,0.6 -0.15,0.65 m 7.1,1.8 -0.7,0.75 -0.05,0.15 -0.15,3.65 -0.25,2.3 -0.3,0.9 Q 27,16.95 26.55,16.8 26,16.7 25.8,15.7 25.4,13.4 25.7,11.3 L 25.85,9.65 V 9.6 L 25.4,9.25 25.05,8.9 24.75,8.35 24.25,8 q -0.2,-0.2 -0.1,-0.5 l 0.35,-0.4 0.65,0.1 1.45,0.45 0.55,-0.2 0.95,-0.3 1.1,-0.5 0.6,0.35 q 0.25,0.35 0.1,0.7 L 29.5,8.15 29,8.5 28.85,8.7 M 12.6,25.05 Q 12.25,26 10.2,27.1 8.7,27.85 7.35,28.9 l -1.2,0.85 -1.4,0.4 -1.1,-0.25 -1.1,-0.5 -3.1,-0.65 -2.8,-1 -1.2,-0.7 q -0.65,-0.7 -0.35,-3 l 0.3,-2.25 0.7,-4.65 q 0.2,-1.05 0.6,-1.4 L -2.15,15.2 Q -1.5,15 0.4,13.8 q 2,-1.15 4.15,-1.75 l 1.3,-0.15 q 0.6,0.15 1.05,0.6 l 1.5,2.1 q 2.75,5.1 3.85,8 0.65,1.55 0.35,2.45 m -13.45,-2.5 -0.2,1.6 q 0.55,0.4 1.45,0.6 L 2,25 l 1.9,0.55 0.95,0.2 0.7,-0.3 L 8.95,23.4 7.75,20.95 7.1,19.6 6.3,18.35 5.6,17.2 5.5,17.35 5.55,18.3 5.35,19.35 5.3,22.4 5.05,23.25 4.5,23.45 4.1,23.3 4,23.2 3.65,22.45 Q 3.5,21.65 3.5,19.95 V 18.7 L 3.65,17.75 3.7,16.5 3.65,15.55 Q 1.7,16.5 0.1,17.4 l -0.45,0.35 -0.5,4.8 m -16.2,-45.75 -0.45,-0.3 q -0.45,-0.45 0.05,-1.1 l 1.1,-0.5 1.25,-0.05 1.15,-0.3 1.1,-0.35 1.25,-0.2 0.8,-0.55 6.15,-5.2 0.1,-0.1 0.05,-0.05 -0.05,-0.05 -6.3,-1.9 -1,-0.05 -0.55,0.4 -2.35,2.3 q -4.5,4.65 -6,7.2 l -0.1,0.3 0.25,0.4 0.3,0.35 q 1.85,2.1 3.05,4.3 l 4.8,0.95 4.65,1.45 1.7,0.65 0.55,0.1 0.55,-0.4 2.25,-2.05 0.7,-0.65 q 0.2,-0.35 0.1,-1.2 -0.45,-3.45 -0.4,-9.2 l -1.45,1.1 -5.05,4.1 1,2.05 q 0.75,1.75 0.85,2.5 0.1,0.95 -0.5,1.15 -0.55,0.2 -1.2,-0.6 -1.35,-1.55 -1.75,-2.45 l -0.65,-1.3 -0.45,-0.65 -0.05,-0.1 -0.95,-0.1 -1.65,0.4 -2.55,-0.25 -0.3,-0.05 m -22.4,18.2 -0.15,-1.45 0.1,-1.4 q 0.4,-1.1 2.3,-2 4.65,-1.85 6.85,-3.05 l 2.15,-1.15 2.4,0.1 q 0.75,0.4 1.25,1.4 l 0.7,1.85 q 0.7,2.05 3.6,6.35 1,1.5 0.9,2.4 -0.1,0.95 -1.25,2 L -26,5.6 -27.3,6.7 q -1.4,0.8 -4.2,0 L -37.6,4.75 Q -39.3,4.1 -39.85,3.45 -41.1,2.1 -40.4,-0.75 l 0.65,-2.1 q 0.35,-1.25 0.3,-2.15 m 4.65,4.2 -0.1,0.35 v 0.35 l 0.3,0.2 q 2.55,0.5 3.75,0.95 l 1.3,0.5 0.85,0.15 -0.1,-0.1 -0.7,-1.75 -0.5,-1.15 -0.05,-0.15 -0.1,-0.55 -0.1,-0.85 0.25,-1.1 0.05,-0.65 0.3,-1.85 V -6.7 l -0.15,-0.3 -0.05,-0.15 -3.85,1.6 -0.4,0.25 -0.05,0.5 q 0,1.1 -0.5,3.2 l -0.15,0.8 m 8.2,0.6 0.7,-0.75 0.65,-0.85 q 0.15,-0.05 0.15,-0.25 l -0.05,-0.15 -1.75,-2.9 -0.5,-0.85 -0.15,0.5 -0.15,0.5 v 0.6 q 0.05,0.65 -0.25,1.85 l -0.05,0.2 0.4,1 0.6,1.6 0.4,-0.5 m -10,26.55 1.95,-6.35 q 0.45,-1.9 1.35,-2.7 0.85,-0.8 3,-1.1 l 3.25,-0.85 q 0.85,-0.5 2.25,-2.45 1.4,-2.05 3.55,-4.3 1.35,-1.35 2.3,-1.4 1.1,-0.05 2.55,1.4 2.05,2.25 4.9,7.3 1.5,2.6 1.45,4.25 -0.05,1.2 -0.95,3.2 l -4.6,10 q -0.5,0.95 -0.65,1.85 l -0.1,1.65 q -0.3,1.2 -1.55,1.7 l -2.4,0.3 q -2,-0.15 -4.45,-1.3 l -4.15,-2.2 -2.9,-1.4 -2.85,-1.45 q -1.5,-0.85 -2.05,-1.8 -0.5,-0.85 -0.4,-2.1 l 0.5,-2.25 m 7.2,-4.1 -1.7,5.4 q 0.55,0.55 1.5,0.9 l 1.7,0.6 q 1.05,0.4 3.65,1.9 1.8,1.1 3.1,1.55 l -0.2,-2.6 -0.25,-1.45 v -1.2 l 0.1,-0.95 0.6,-0.6 q 0.45,-0.2 0.8,0.15 0.35,0.25 0.45,0.95 V 28 l 0.2,0.9 0.15,0.95 v 0.5 l 0.15,0.5 0.1,0.35 q 1.7,-3.6 3.85,-8.8 0.4,-0.9 0.35,-1.5 -0.05,-0.45 -0.4,-1.05 -1.8,-3.3 -3.65,-5.95 l -2.95,3.65 -1.5,1.95 q -0.9,0.85 -2.4,1.35 l -2.8,0.7 -0.65,0.25 -0.2,0.45"
         fill="#000000"
         fill-rule="evenodd"
         stroke="none"
         id="path1" />
      <path
         d="m 19.9,-9.6 -0.9,-0.2 -0.55,-2.7 -0.65,-2.7 -0.5,-3.55 q 1.15,-0.8 2.85,-3.2 l 1.45,-1.45 4.8,-4.35 -0.35,0.75 -3.7,10.65 -0.05,0.5 q 0.25,0.4 0.7,0.2 l 0.5,-0.6 1.4,-2.65 0.25,-0.6 -1.5,3.5 -2,4.15 q -0.7,1.5 -1.45,2.05 l -0.3,0.2 M 31.7,6.05 q -0.2,1.35 -1.45,2 l -1,0.4 L 28.85,8.7 29,8.5 29.5,8.15 29.9,7.7 Q 30.05,7.35 29.8,7 L 29.2,6.65 28.1,7.15 27.15,7.45 26.6,7.65 25.15,7.2 24.5,7.1 24.15,7.5 q -0.1,0.3 0.1,0.5 l 0.5,0.35 0.3,0.55 0.35,0.35 q -1.25,-0.3 -2.5,-1.1 -0.75,-0.5 -1,-0.9 L 21.75,6.9 21.9,6.25 22.15,5.65 22.85,5.2 Q 24.7,4.5 26.25,3.4 L 26.65,3.2 27,3.3 q 1.45,0.55 2.75,1.45 L 31,5.6 31.65,6 31.7,6.05 M 4.1,23.3 Q 3.35,23.9 2.4,23.8 L 0.65,23.35 -0.8,22.6 -0.85,22.55 -0.35,17.75 0.1,17.4 Q 1.7,16.5 3.65,15.55 L 3.7,16.5 3.65,17.75 3.5,18.7 v 1.25 q 0,1.7 0.15,2.5 L 4,23.2 4.1,23.3 m -8.65,-55.15 -0.1,0.1 -6.15,5.2 -0.8,0.55 -1.25,0.2 -1.1,0.35 -1.15,0.3 -1.25,0.05 -1.1,0.5 q -0.5,0.65 -0.05,1.1 l 0.45,0.3 -0.85,0.15 -1.65,0.25 -0.75,-0.15 -0.3,-0.35 -0.25,-0.4 0.1,-0.3 q 1.5,-2.55 6,-7.2 l 2.35,-2.3 0.55,-0.4 1,0.05 6.3,1.9 v 0.1 m -25.5,30.4 q -0.6,0.5 -1.85,0.8 l -1.65,0.2 q -0.75,0 -1.25,-0.35 l 0.15,-0.8 q 0.5,-2.1 0.5,-3.2 l 0.05,-0.5 0.4,-0.25 3.85,-1.6 0.05,0.15 0.15,0.3 v 0.25 l -0.3,1.85 -0.05,0.65 -0.25,1.1 0.1,0.85 0.1,0.55"
         fill="#886d6d"
         fill-rule="evenodd"
         stroke="none"
         id="path2" />
      <path
         d="m 19.9,-9.6 0.3,-0.2 q 0.75,-0.55 1.45,-2.05 l 2,-4.15 1.5,-3.5 0.5,-1.15 1,-1.4 0.95,-1.45 0.5,-1.3 -0.1,1 -0.1,1.75 -0.4,2.5 q 0,1.55 1.15,2.1 0.85,0.3 2.45,-0.45 l 2.1,-0.8 0.55,-0.05 0.3,0.35 2.2,3.4 q -2.5,1.15 -4.6,3.4 l -1.25,1.15 -1.85,0.4 -4.1,0.05 -2.75,0.35 -1.8,0.05 m -7.15,-27.05 0.4,-0.15 0.25,0.2 1.6,2.4 -3.2,2.55 q -0.25,0.25 -0.55,0.25 l -0.7,-0.3 -0.55,-0.1 q -0.15,-0.15 -0.15,-0.4 l -0.4,-3 q -0.1,-0.35 0.05,-0.55 l 0.5,-0.1 q 1.5,0.1 2.75,-0.8 m 18.95,42.7 0.4,0.8 q 1.25,3.8 2.8,7 l -7.15,4.85 -0.55,0.25 -0.7,-0.2 -6.2,-3.6 Q 20.65,11 21.75,6.9 l 0.15,0.35 q 0.25,0.4 1,0.9 1.25,0.8 2.5,1.1 L 25.85,9.6 V 9.65 L 25.7,11.3 q -0.3,2.1 0.1,4.4 0.2,1 0.75,1.1 0.45,0.15 0.85,-0.35 l 0.3,-0.9 0.25,-2.3 0.15,-3.65 0.05,-0.15 0.7,-0.75 0.4,-0.25 1,-0.4 Q 31.5,7.4 31.7,6.05 M 4.1,23.3 4.5,23.45 5.05,23.25 5.3,22.4 5.35,19.35 5.55,18.3 5.5,17.35 5.6,17.2 l 0.7,1.15 0.8,1.25 0.65,1.35 1.2,2.45 -3.4,2.05 -0.7,0.3 L 3.9,25.55 2,25 0.4,24.75 q -0.9,-0.2 -1.45,-0.6 l 0.2,-1.6 0.05,0.05 1.45,0.75 1.75,0.45 q 0.95,0.1 1.7,-0.5 m -24.4,-46.25 0.75,0.15 1.65,-0.25 0.85,-0.15 0.3,0.05 2.55,0.25 1.65,-0.4 0.95,0.1 0.05,0.1 0.45,0.65 0.65,1.3 q 0.4,0.9 1.75,2.45 0.65,0.8 1.2,0.6 0.6,-0.2 0.5,-1.15 -0.1,-0.75 -0.85,-2.5 l -1,-2.05 5.05,-4.1 1.45,-1.1 q -0.05,5.75 0.4,9.2 0.1,0.85 -0.1,1.2 l -0.7,0.65 -2.25,2.05 -0.55,0.4 -0.55,-0.1 -1.7,-0.65 -4.65,-1.45 -4.8,-0.95 q -1.2,-2.2 -3.05,-4.3 m -9.75,21.5 0.05,0.15 0.5,1.15 0.7,1.75 0.1,0.1 -0.85,-0.15 -1.3,-0.5 Q -32.05,0.6 -34.6,0.1 l -0.3,-0.2 v -0.35 l 0.1,-0.35 q 0.5,0.35 1.25,0.35 l 1.65,-0.2 q 1.25,-0.3 1.85,-0.8 m 3.45,1.25 -0.4,0.5 -0.6,-1.6 -0.4,-1 0.05,-0.2 q 0.3,-1.2 0.25,-1.85 v -0.6 l 0.15,-0.5 0.15,-0.5 0.5,0.85 1.75,2.9 0.05,0.15 q 0,0.2 -0.15,0.25 l -0.65,0.85 -0.7,0.75 m -2.8,22.45 0.2,-0.45 0.65,-0.25 2.8,-0.7 q 1.5,-0.5 2.4,-1.35 l 1.5,-1.95 2.95,-3.65 q 1.85,2.65 3.65,5.95 0.35,0.6 0.4,1.05 0.05,0.6 -0.35,1.5 -2.15,5.2 -3.85,8.8 l -0.1,-0.35 -0.15,-0.5 v -0.5 l -0.15,-0.95 -0.2,-0.9 v -1.1 q -0.1,-0.7 -0.45,-0.95 -0.35,-0.35 -0.8,-0.15 l -0.6,0.6 -0.1,0.95 v 1.2 l 0.25,1.45 0.2,2.6 q -1.3,-0.45 -3.1,-1.55 -2.6,-1.5 -3.65,-1.9 l -1.7,-0.6 q -0.95,-0.35 -1.5,-0.9 l 1.7,-5.4"
         fill="#6a5555"
         fill-rule="evenodd"
         stroke="none"
         id="path3" />
    </g>
    <g
       id="sprite1"
       transform="translate(17.4,15.85)">
      <use
         ffdec:characterId="31"
         height="57.200001"
         transform="matrix(0.5366,0,0,0.5366,-16.6582,-14.546)"
         width="70.75"
         xlink:href="#sprite2"
         id="use3" />
    </g>
    <g
       id="sprite2"
       transform="translate(-8.65,-10.35)">
      <use
         ffdec:characterId="30"
         height="57.200001"
         transform="translate(8.65,10.35)"
         width="70.75"
         xlink:href="#shape1"
         id="use4" />
    </g>
    <g
       id="shape1"
       transform="translate(-8.65,-10.35)">
      <path
         d="m 14.8,41.7 q 0.65,-1.75 2.65,-2.5 1.8,-0.8 3.7,-0.25 1.15,0.45 2.25,1.2 l 0.9,0.4 q 1.65,0.9 2.85,2.5 L 37.8,30.1 q 2.35,-2.8 3.75,-3.95 1.5,-1.15 4.25,-2.4 18.2,-8.85 27.65,-12.6 2.15,-0.8 3.25,-0.8 h 0.8 l 1.9,2.4 -0.2,0.8 q -0.2,1.1 -1.55,3 -5.85,8.25 -18.85,23.8 -1.85,2.35 -3.35,3.5 -1.4,1.15 -4.75,2.75 l -15.15,7.15 q 1.2,1.6 1.75,3.4 l 0.2,1 0.55,2.5 q 0.1,1.95 -1.1,3.55 -1.2,1.65 -3.05,1.9 l -1.3,0.05 q -1.65,0.2 -3.45,-0.65 -1.85,-0.9 -3,-2.6 L 25,60.95 23.8,62.1 q -2.6,2.85 -4.3,3.95 -2.85,1.8 -5.5,1.45 l -1.65,-0.5 -1.2,-0.7 -0.2,-0.2 q -1,-0.85 -1.6,-1.9 L 9.25,64 9.15,63.8 8.75,62.4 q -0.2,-0.8 -0.05,-1.7 0.25,-2.65 2.7,-5.05 1.5,-1.3 4.9,-3.15 L 17.7,51.55 16.05,50 q -1.35,-1.5 -1.8,-3.6 -0.4,-1.85 0.25,-3.45 l 0.3,-1.25"
         fill="#000000"
         fill-opacity="0.372549"
         fill-rule="evenodd"
         stroke="none"
         id="path4" />
    </g>
  </defs>
</svg>
