<?xml version="1.0" encoding="UTF-8" standalone="no"?>
<svg
   ffdec:objectType="frame"
   height="90.913567"
   width="89.801247"
   version="1.1"
   id="svg6"
   xmlns:xlink="http://www.w3.org/1999/xlink"
   xmlns="http://www.w3.org/2000/svg"
   xmlns:svg="http://www.w3.org/2000/svg"
   xmlns:ffdec="https://www.free-decompiler.com/flash">
  <g
     transform="translate(41.95,43.547945)"
     id="g1">
    <use
       ffdec:characterId="17"
       height="119.15"
       id="rarity"
       transform="translate(-58.5,-60.65)"
       width="119.15"
       xlink:href="#sprite0" />
    <use
       ffdec:characterId="568"
       height="90.900002"
       transform="translate(-42,-43.55)"
       width="89.849998"
       xlink:href="#shape0"
       id="use1" />
  </g>
  <defs
     id="defs6">
    <g
       id="shape0"
       transform="translate(41.6,42.75)">
      <path
         d="m 25.65,-32.55 -1.6,-0.85 -4.1,-1.8 q -3.7,-1.5 -5.75,-1.6 l -2.65,0.15 -2.7,0.3 -3.4,0.15 -2.75,0.6 -2.75,0.9 -5.55,1.5 q -2.35,0.85 -5.6,2.65 l -4.95,3.05 q -7.45,5.2 -12.35,13.15 -4.9,7.95 -6.2,16.95 l -0.65,6.85 -0.05,4.9 q 0.25,2.25 1.35,5.9 1.45,4.9 2.65,6.95 l 3.55,4.7 3.9,4.1 q 2.75,2.45 6.5,3.9 3.35,1.2 10.45,1.9 l 7.35,0.6 q 9.6,0.3 17.6,-2.6 l 0.65,-0.2 5.35,-2.35 q 2.8,-1.3 4.05,-2.2 l 3.25,-3 2.1,-1.6 2.1,-1.7 q 1.4,-1.4 2.8,-3.95 Q 40.9,19.9 42.1,14.4 43.8,5.95 42,-2.95 40.45,-10.9 36.25,-19.4 31.5,-28.95 25.65,-32.55 m -36.75,79.8 -5.25,-0.7 q -2.35,-0.55 -4.8,-1.75 -2.75,-1.2 -4.8,-2.65 -3,-2.1 -7.2,-7.05 l -3.35,-4.4 q -1.05,-1.75 -2.3,-5.05 -2.45,-6.5 -2.75,-11.2 l 0.1,-5.85 0.7,-7.7 q 1.5,-9.6 7.6,-19.5 1.85,-3 3.45,-4.85 1.6,-1.9 4.35,-4.3 L -21,-31.3 q 4,-2.95 8.95,-5.5 9.5,-4.85 18,-5.75 8.6,-0.85 16.15,1.95 8.1,3 13.3,9.4 2.2,2.7 4.45,6.95 7.2,13.3 8.25,26.3 0.55,7.15 -0.9,13.85 -1.5,7.1 -5.05,12.85 -1.75,2.75 -3.25,4.2 l -2.25,1.85 -2.25,1.8 -3.35,2.95 -4.55,2.6 -5.6,2.5 q -9.15,3.75 -19.8,3.5 l -7.35,-0.5 -4.85,-0.4"
         fill="#000000"
         fill-rule="evenodd"
         stroke="none"
         id="path1" />
      <path
         d="M 6.35,19.5 V 20 l -0.2,1.6 -0.2,0.55 -0.15,0.25 q -0.45,0.7 -1.25,1 L 3,23.5 2.15,23 l -1,-0.95 -0.5,-0.6 -5.05,-6.85 -3,1.75 -1.45,0.95 -0.2,0.1 -0.25,0.2 -1.7,1 -1.25,0.25 q -1,0 -1.8,-0.75 -0.75,-0.7 -0.85,-1.7 -0.1,-1.05 0.95,-2.85 l 0.15,-0.3 3.9,-6.4 -1.7,-2.8 -2.05,-3 -0.9,-1.2 -0.15,-0.15 -0.5,-0.6 -0.95,-1.3 q -0.7,-1.15 -0.65,-2.2 0.1,-0.8 0.6,-1.45 l 1.3,-0.85 2.9,0.3 0.2,0.05 0.1,0.05 1.2,0.55 2.55,1.1 q 2.25,0.9 3.9,1.15 l 1.1,-0.1 q 0.35,-0.2 0.75,-0.9 l 3,-5.55 0.65,-1.15 0.8,-1.35 0.3,-0.5 1.15,-1.6 0.65,-0.9 0.8,-0.75 1.45,-0.15 q 0.8,0.15 1.2,0.8 0.45,0.7 0.45,2.4 l -0.1,2.1 v 0.05 L 8.1,-10 8.05,-9.15 7.15,0.5 12.45,2.45 13.3,2.8 q 1.4,0.55 1.9,1.4 0.4,0.65 0.4,1.45 0,0.8 -0.4,1.45 -0.55,0.8 -1.75,1.25 L 13.1,8.5 12.8,8.55 11.2,8.95 11.05,9 9.25,9.55 Q 8.55,9.75 7.9,10.1 l -1.05,0.45 -0.2,2.8 -0.15,2.2 -0.05,1.6 -0.1,2.35 m -5.1,-6.55 v -0.2 l -0.05,0.1 0.05,0.1"
         fill="#e0e0e0"
         fill-rule="evenodd"
         stroke="none"
         id="path2" />
      <path
         d="M 16.5,10.35 Q 14.95,17.2 10.15,21.5 8.4,23.1 6.3,24.15 l -1.65,0.75 -2.9,0.85 -3.45,0.2 -3.95,-0.6 -0.7,-0.15 Q -8.85,24.5 -10,23.9 l -3.65,-2.75 -0.45,-0.45 -2.3,-2.9 q -1.85,-2.05 -2.95,-4.15 -1.3,-2.3 -1.75,-4.65 -0.65,-3.55 0.55,-9.05 0.65,-3.15 1.4,-4.9 1.4,-3.6 4.05,-6.55 l 1.95,-1.9 q 1.9,-1.65 4.15,-2.75 3.4,-1.75 7.35,-2.15 L 6,-17.75 q 2.55,0.7 4.25,1.9 l 0.65,0.5 q 1.75,1.5 3.35,4.3 3.2,5.7 3.35,11.25 V 2.45 L 17.2,6 17.15,6.4 16.5,10.35 M 6.35,19.5 6.45,17.15 6.5,15.55 6.65,13.35 6.85,10.55 7.9,10.1 Q 8.55,9.75 9.25,9.55 L 11.05,9 11.2,8.95 12.8,8.55 13.1,8.5 13.45,8.35 Q 14.65,7.9 15.2,7.1 15.6,6.45 15.6,5.65 15.6,4.85 15.2,4.2 14.7,3.35 13.3,2.8 L 12.45,2.45 7.15,0.5 8.05,-9.15 8.1,-10 8.15,-11.1 v -0.05 l 0.1,-2.1 q 0,-1.7 -0.45,-2.4 -0.4,-0.65 -1.2,-0.8 l -1.45,0.15 -0.8,0.75 -0.65,0.9 -1.15,1.6 -0.3,0.5 -0.8,1.35 -0.65,1.15 -3,5.55 q -0.4,0.7 -0.75,0.9 l -1.1,0.1 q -1.65,-0.25 -3.9,-1.15 l -2.55,-1.1 -1.2,-0.55 -0.1,-0.05 -0.2,-0.05 -2.9,-0.3 -1.3,0.85 q -0.5,0.65 -0.6,1.45 -0.05,1.05 0.65,2.2 l 0.95,1.3 0.5,0.6 0.15,0.15 0.9,1.2 2.05,3 1.7,2.8 -3.9,6.4 -0.15,0.3 q -1.05,1.8 -0.95,2.85 0.1,1 0.85,1.7 0.8,0.75 1.8,0.75 l 1.25,-0.25 1.7,-1 0.25,-0.2 0.2,-0.1 1.45,-0.95 3,-1.75 5.05,6.85 0.5,0.6 1,0.95 0.85,0.5 1.55,-0.1 q 0.8,-0.3 1.25,-1 L 5.95,22.15 6.15,21.6 6.35,20 v -0.5"
         fill="#626798"
         fill-rule="evenodd"
         stroke="none"
         id="path3" />
      <path
         d="m 25.65,-32.55 q 5.85,3.6 10.6,13.15 4.2,8.5 5.75,16.45 1.8,8.9 0.1,17.35 -1.2,5.5 -3.85,10.4 -1.4,2.55 -2.8,3.95 l -2.1,1.7 -2.1,1.6 -3.25,3 q -1.25,0.9 -4.05,2.2 l -5.35,2.35 -0.65,0.2 q -8,2.9 -17.6,2.6 L -7,41.8 q -7.1,-0.7 -10.45,-1.9 -3.75,-1.45 -6.5,-3.9 l -3.9,-4.1 -3.55,-4.7 q -1.2,-2.05 -2.65,-6.95 -1.1,-3.65 -1.35,-5.9 l 0.05,-4.9 0.65,-6.85 q 1.3,-9 6.2,-16.95 4.9,-7.95 12.35,-13.15 l 4.95,-3.05 q 3.25,-1.8 5.6,-2.65 l 5.55,-1.5 2.75,-0.9 2.75,-0.6 3.4,-0.15 2.7,-0.3 2.65,-0.15 q 2.05,0.1 5.75,1.6 l 4.1,1.8 1.6,0.85 m -54.65,55.2 1.9,4 2,3.5 q 1.15,1.5 3.15,2.95 6,4.4 14.65,5.8 l 5.65,0.45 5.2,-0.45 q 5.85,-0.8 8.55,-2 1.6,-0.75 3.85,-2.3 l 3.7,-2.75 q 5.3,-4.5 8.3,-11.3 l 1.85,-4.9 q 1.65,-4.8 2.1,-7.05 l 0.6,-4.85 q 0.3,-6.35 -2.45,-15.8 -2.05,-7.25 -4.75,-11.6 -3.8,-6.1 -9.35,-8.2 -3.55,-1.35 -8.15,-1.05 -3.4,0.25 -8.35,1.45 -5.25,1.3 -8.55,2.85 -2.95,1.45 -4.95,2.8 -2.05,1.35 -3.2,1.9 -1.2,0.5 -4.5,3.85 -3.35,3.25 -4.25,5.05 v 0.05 l -0.35,0.45 -2,3.3 -1.7,3.1 -0.25,0.8 q -2.4,7.3 -2.05,15.1 0.3,7.8 3.35,14.85 M 19.1,-12.7 q 3.85,7.35 3.8,15.55 l 0.15,1.95 q 0.15,4 -1.2,9.45 l -1.2,3.7 Q 17.85,24.6 9,28.75 L 8.25,29.1 Q 4.7,31.15 2.6,31.4 l -2.85,0.05 -5.25,-0.3 Q -7.7,30.7 -10.2,29.5 l -4.45,-2.4 q -3.8,-2.15 -5.25,-3.6 -1.4,-1.35 -2.6,-3.25 l -1.8,-3.35 -0.95,-4.15 q -1.25,-9.6 1.1,-17.45 0.3,-2.25 0.95,-3.85 0.95,-2.2 2.95,-4.65 l 1.65,-2.3 q 3.3,-4.05 7.55,-6.35 2.3,-1.2 4.25,-1.65 l 5.4,-0.45 q 6.1,0 9.75,1.05 2.85,0.75 4.6,2.15 1.6,1.25 3.05,3.4 l 0.3,0.4 q 1.5,1.8 2.8,4.25 M 16.5,10.35 17.15,6.4 17.2,6 17.6,2.45 V 0.2 q -0.15,-5.55 -3.35,-11.25 -1.6,-2.8 -3.35,-4.3 l -0.65,-0.5 q -1.7,-1.2 -4.25,-1.9 l -7.65,-0.55 q -3.95,0.4 -7.35,2.15 -2.25,1.1 -4.15,2.75 l -1.95,1.9 q -2.65,2.95 -4.05,6.55 -0.75,1.75 -1.4,4.9 -1.2,5.5 -0.55,9.05 0.45,2.35 1.75,4.65 1.1,2.1 2.95,4.15 l 2.3,2.9 0.45,0.45 3.65,2.75 q 1.15,0.6 3.65,1.3 l 0.7,0.15 3.95,0.6 3.45,-0.2 2.9,-0.85 1.65,-0.75 q 2.1,-1.05 3.85,-2.65 4.8,-4.3 6.35,-11.15"
         fill="#a25151"
         fill-rule="evenodd"
         stroke="none"
         id="path4" />
      <path
         d="M -29,22.65 Q -32.05,15.6 -32.35,7.8 -32.7,0 -30.3,-7.3 l 0.25,-0.8 1.7,-3.1 2,-3.3 0.35,-0.45 V -15 q 0.9,-1.8 4.25,-5.05 3.3,-3.35 4.5,-3.85 1.15,-0.55 3.2,-1.9 2,-1.35 4.95,-2.8 3.3,-1.55 8.55,-2.85 4.95,-1.2 8.35,-1.45 4.6,-0.3 8.15,1.05 5.55,2.1 9.35,8.2 2.7,4.35 4.75,11.6 2.75,9.45 2.45,15.8 L 31.9,8.6 q -0.45,2.25 -2.1,7.05 l -1.85,4.9 q -3,6.8 -8.3,11.3 l -3.7,2.75 q -2.25,1.55 -3.85,2.3 -2.7,1.2 -8.55,2 l -5.2,0.45 -5.65,-0.45 q -8.65,-1.4 -14.65,-5.8 -2,-1.45 -3.15,-2.95 l -2,-3.5 -1.9,-4 M 19.1,-12.7 q -1.3,-2.45 -2.8,-4.25 l -0.3,-0.4 q -1.45,-2.15 -3.05,-3.4 -1.75,-1.4 -4.6,-2.15 -3.65,-1.05 -9.75,-1.05 l -5.4,0.45 q -1.95,0.45 -4.25,1.65 -4.25,2.3 -7.55,6.35 l -1.65,2.3 q -2,2.45 -2.95,4.65 -0.65,1.6 -0.95,3.85 -2.35,7.85 -1.1,17.45 l 0.95,4.15 1.8,3.35 q 1.2,1.9 2.6,3.25 1.45,1.45 5.25,3.6 l 4.45,2.4 q 2.5,1.2 4.7,1.65 l 5.25,0.3 L 2.6,31.4 Q 4.7,31.15 8.25,29.1 L 9,28.75 q 8.85,-4.15 11.65,-10.8 l 1.2,-3.7 Q 23.2,8.8 23.05,4.8 L 22.9,2.85 q 0.05,-8.2 -3.8,-15.55"
         fill="#f1f1f1"
         fill-rule="evenodd"
         stroke="none"
         id="path5" />
    </g>
    <g
       id="sprite1"
       transform="translate(17.4,15.85)">
      <use
         ffdec:characterId="31"
         height="57.200001"
         transform="matrix(0.5366,0,0,0.5366,-16.6582,-14.546)"
         width="70.75"
         xlink:href="#sprite2"
         id="use5" />
    </g>
    <g
       id="sprite2"
       transform="translate(-8.65,-10.35)">
      <use
         ffdec:characterId="30"
         height="57.200001"
         transform="translate(8.65,10.35)"
         width="70.75"
         xlink:href="#shape1"
         id="use6" />
    </g>
    <g
       id="shape1"
       transform="translate(-8.65,-10.35)">
      <path
         d="m 14.8,41.7 q 0.65,-1.75 2.65,-2.5 1.8,-0.8 3.7,-0.25 1.15,0.45 2.25,1.2 l 0.9,0.4 q 1.65,0.9 2.85,2.5 L 37.8,30.1 q 2.35,-2.8 3.75,-3.95 1.5,-1.15 4.25,-2.4 18.2,-8.85 27.65,-12.6 2.15,-0.8 3.25,-0.8 h 0.8 l 1.9,2.4 -0.2,0.8 q -0.2,1.1 -1.55,3 -5.85,8.25 -18.85,23.8 -1.85,2.35 -3.35,3.5 -1.4,1.15 -4.75,2.75 l -15.15,7.15 q 1.2,1.6 1.75,3.4 l 0.2,1 0.55,2.5 q 0.1,1.95 -1.1,3.55 -1.2,1.65 -3.05,1.9 l -1.3,0.05 q -1.65,0.2 -3.45,-0.65 -1.85,-0.9 -3,-2.6 L 25,60.95 23.8,62.1 q -2.6,2.85 -4.3,3.95 -2.85,1.8 -5.5,1.45 l -1.65,-0.5 -1.2,-0.7 -0.2,-0.2 q -1,-0.85 -1.6,-1.9 L 9.25,64 9.15,63.8 8.75,62.4 q -0.2,-0.8 -0.05,-1.7 0.25,-2.65 2.7,-5.05 1.5,-1.3 4.9,-3.15 L 17.7,51.55 16.05,50 q -1.35,-1.5 -1.8,-3.6 -0.4,-1.85 0.25,-3.45 l 0.3,-1.25"
         fill="#000000"
         fill-opacity="0.372549"
         fill-rule="evenodd"
         stroke="none"
         id="path6" />
    </g>
  </defs>
</svg>
