<?xml version="1.0" encoding="UTF-8" standalone="no"?>
<svg
   ffdec:objectType="frame"
   height="41.25959"
   width="41.302856"
   version="1.1"
   id="svg4"
   sodipodi:docname="ITEM Steven 2.svg"
   xmlns:inkscape="http://www.inkscape.org/namespaces/inkscape"
   xmlns:sodipodi="http://sodipodi.sourceforge.net/DTD/sodipodi-0.dtd"
   xmlns:xlink="http://www.w3.org/1999/xlink"
   xmlns="http://www.w3.org/2000/svg"
   xmlns:svg="http://www.w3.org/2000/svg"
   xmlns:ffdec="https://www.free-decompiler.com/flash">
  <sodipodi:namedview
     id="namedview4"
     pagecolor="#ffffff"
     bordercolor="#000000"
     borderopacity="0.25"
     inkscape:showpageshadow="2"
     inkscape:pageopacity="0.0"
     inkscape:pagecheckerboard="0"
     inkscape:deskcolor="#d1d1d1"
     fit-margin-top="5"
     fit-margin-left="5"
     fit-margin-right="5"
     fit-margin-bottom="5" />
  <g
     transform="translate(20.822857,20.450893)"
     id="g1">
    <use
       ffdec:characterId="17"
       height="119.15"
       id="rarity"
       transform="translate(-58.5,-60.65)"
       width="119.15"
       xlink:href="#sprite0" />
    <use
       ffdec:characterId="643"
       height="41.25"
       transform="translate(-20.8,-20.45)"
       width="41.299999"
       xlink:href="#shape0"
       id="use1" />
  </g>
  <defs
     id="defs4">
    <g
       id="shape0"
       transform="translate(20.4,19.65)">
      <path
         d="m -20.4,3.25 q 0.35,-7.55 2.8,-11.7 2.95,-5.1 10.2,-8.5 6.05,-2.75 11.15,-2.7 2.95,0.05 5.65,1.05 2.85,1.1 4.75,3.1 1.5,1.55 2.75,4 l 1.95,4.5 q 1.5,4.05 1.85,6.05 0.3,2 0.1,5.4 -0.2,2.9 -0.8,4.8 -1.95,6.1 -9.7,9.75 -6.55,3 -12.95,2.55 -7,-0.4 -12.3,-4.55 -2.9,-2.2 -4.1,-4.85 Q -20.6,9 -20.4,3.25 M -4.85,15.3 Q 0.3,16.75 7.1,14.15 12.9,11.85 14.5,8 15.15,6.25 15.25,3.45 L 15.3,1 q -0.15,-1.95 -1.6,-5.9 l -1.75,-3.9 q -1.15,-2.1 -2.65,-3.25 -3.55,-2.75 -10.15,-1.4 -4.15,0.9 -7.2,2.9 -3.5,2.3 -5.05,5.75 -1.05,2.4 -1.35,6.8 -0.5,5.85 1.45,8.45 1.15,1.55 4.2,3.15 2.2,1.2 3.95,1.7"
         fill="#000000"
         fill-rule="evenodd"
         stroke="none"
         id="path1" />
      <path
         d="m 5.1,-2.35 q 0.3,1 1.2,1.7 0.9,0.65 1.9,0.6 1.05,0 1.95,-0.7 0.9,-0.7 1.1,-1.7 0.25,-1 -0.15,-2 -0.45,-1 -1.4,-1.55 l -2,-0.3 Q 6.6,-6.15 5.9,-5.4 4.6,-4.1 5.1,-2.35 M -4.85,15.3 Q -6.6,14.8 -8.8,13.6 -11.85,12 -13,10.45 -14.95,7.85 -14.45,2 q 0.3,-4.4 1.35,-6.8 1.55,-3.45 5.05,-5.75 3.05,-2 7.2,-2.9 6.6,-1.35 10.15,1.4 1.5,1.15 2.65,3.25 l 1.75,3.9 q 1.45,3.95 1.6,5.9 L 15.25,3.45 Q 15.15,6.25 14.5,8 12.9,11.85 7.1,14.15 0.3,16.75 -4.85,15.3 M 12.05,4.45 Q 12,3.75 11.45,3.15 10.9,2.6 10.15,2.4 L 7.2,2.45 -7.2,4.9 q -1.5,0.35 -1.9,0.6 -1.2,0.7 -1.3,2.2 0,1.5 1.25,2.25 L -5.2,10.15 5.9,7.85 9.55,7 q 1,-0.35 1.7,-0.9 0.8,-0.7 0.8,-1.65 M -6.5,-2.7 q -0.8,-0.75 -1.95,-0.75 -1.2,0 -2,0.7 -0.8,0.75 -0.9,1.95 -0.1,1.15 0.6,2 0.7,0.85 1.9,1 1.2,0.15 2.05,-0.5 1.05,-0.8 1.15,-2.15 0.1,-1.4 -0.85,-2.25"
         fill="#0c0c0c"
         fill-rule="evenodd"
         stroke="none"
         id="path2" />
      <path
         d="M 5.1,-2.35 Q 4.6,-4.1 5.9,-5.4 6.6,-6.15 7.7,-6.3 l 2,0.3 q 0.95,0.55 1.4,1.55 0.4,1 0.15,2 -0.2,1 -1.1,1.7 -0.9,0.7 -1.95,0.7 Q 7.2,0 6.3,-0.65 5.4,-1.35 5.1,-2.35 M -6.5,-2.7 q 0.95,0.85 0.85,2.25 -0.1,1.35 -1.15,2.15 -0.85,0.65 -2.05,0.5 -1.2,-0.15 -1.9,-1 -0.7,-0.85 -0.6,-2 0.1,-1.2 0.9,-1.95 0.8,-0.7 2,-0.7 1.15,0 1.95,0.75 m 18.55,7.15 q 0,0.95 -0.8,1.65 -0.7,0.55 -1.7,0.9 L 5.9,7.85 -5.2,10.15 -9.15,9.95 Q -10.4,9.2 -10.4,7.7 -10.3,6.2 -9.1,5.5 -8.7,5.25 -7.2,4.9 L 7.2,2.45 10.15,2.4 q 0.75,0.2 1.3,0.75 0.55,0.6 0.6,1.3"
         fill="#ffffff"
         fill-rule="evenodd"
         stroke="none"
         id="path3" />
    </g>
    <g
       id="sprite1"
       transform="translate(17.4,15.85)">
      <use
         ffdec:characterId="31"
         height="57.200001"
         transform="matrix(0.5366,0,0,0.5366,-16.6582,-14.546)"
         width="70.75"
         xlink:href="#sprite2"
         id="use3" />
    </g>
    <g
       id="sprite2"
       transform="translate(-8.65,-10.35)">
      <use
         ffdec:characterId="30"
         height="57.200001"
         transform="translate(8.65,10.35)"
         width="70.75"
         xlink:href="#shape1"
         id="use4" />
    </g>
    <g
       id="shape1"
       transform="translate(-8.65,-10.35)">
      <path
         d="m 14.8,41.7 q 0.65,-1.75 2.65,-2.5 1.8,-0.8 3.7,-0.25 1.15,0.45 2.25,1.2 l 0.9,0.4 q 1.65,0.9 2.85,2.5 L 37.8,30.1 q 2.35,-2.8 3.75,-3.95 1.5,-1.15 4.25,-2.4 18.2,-8.85 27.65,-12.6 2.15,-0.8 3.25,-0.8 h 0.8 l 1.9,2.4 -0.2,0.8 q -0.2,1.1 -1.55,3 -5.85,8.25 -18.85,23.8 -1.85,2.35 -3.35,3.5 -1.4,1.15 -4.75,2.75 l -15.15,7.15 q 1.2,1.6 1.75,3.4 l 0.2,1 0.55,2.5 q 0.1,1.95 -1.1,3.55 -1.2,1.65 -3.05,1.9 l -1.3,0.05 q -1.65,0.2 -3.45,-0.65 -1.85,-0.9 -3,-2.6 L 25,60.95 23.8,62.1 q -2.6,2.85 -4.3,3.95 -2.85,1.8 -5.5,1.45 l -1.65,-0.5 -1.2,-0.7 -0.2,-0.2 q -1,-0.85 -1.6,-1.9 L 9.25,64 9.15,63.8 8.75,62.4 q -0.2,-0.8 -0.05,-1.7 0.25,-2.65 2.7,-5.05 1.5,-1.3 4.9,-3.15 L 17.7,51.55 16.05,50 q -1.35,-1.5 -1.8,-3.6 -0.4,-1.85 0.25,-3.45 l 0.3,-1.25"
         fill="#000000"
         fill-opacity="0.372549"
         fill-rule="evenodd"
         stroke="none"
         id="path4" />
    </g>
  </defs>
</svg>
