<?xml version="1.0" encoding="UTF-8" standalone="no"?>
<svg
   ffdec:objectType="frame"
   height="75.068207"
   width="47.866688"
   version="1.1"
   id="svg4"
   xmlns:xlink="http://www.w3.org/1999/xlink"
   xmlns="http://www.w3.org/2000/svg"
   xmlns:svg="http://www.w3.org/2000/svg"
   xmlns:ffdec="https://www.free-decompiler.com/flash">
  <g
     transform="translate(24.962766,35.964286)"
     id="g1">
    <use
       ffdec:characterId="17"
       height="119.15"
       id="rarity"
       transform="translate(-58.5,-60.65)"
       width="119.15"
       xlink:href="#sprite0" />
    <use
       ffdec:characterId="383"
       height="75.050003"
       transform="translate(-24.95,-35.95)"
       width="47.849998"
       xlink:href="#shape0"
       id="use1" />
  </g>
  <defs
     id="defs4">
    <g
       id="shape0"
       transform="translate(24.65,38.45)">
      <path
         d="m 6.4,-37.55 4.75,-0.1 q 1.25,1.05 0.85,3.25 l -0.5,1.7 -0.55,1.65 q -0.7,2.75 0.25,6.1 0.65,2.35 2.45,5.9 l 5.3,10 q 2.45,4.7 3.2,7.55 0.95,3.3 1.05,8.55 0.1,8.65 -2.35,14.75 -3,7.8 -9.25,11.55 -3.45,2.05 -8.5,2.9 -6.2,0.95 -11.95,-0.65 -6.2,-1.7 -10.1,-5.95 -3.9,-4.3 -5.15,-10.75 -1.15,-5.85 0.05,-12.25 0.95,-5.15 3.6,-11.6 l 4.95,-11.2 0.05,-0.1 1.2,-3.55 q 0.35,-1.5 0.15,-2.7 l -0.05,-0.35 -0.15,-0.5 -0.9,-2.35 -0.05,-0.35 -0.9,-1.35 -2.05,-2.3 -1.3,-1.55 q -0.6,-1.05 -0.25,-2.35 0.35,-1.3 1.4,-1.9 l 2.5,-0.45 q 3.8,-0.05 7.65,1.35 l 0.55,0.1 0.35,-0.5 q 0.7,-2 1.25,-2.6 0.65,-0.7 1.65,-0.85 1.05,-0.1 1.75,0.5 l 1.05,1.45 1.8,3.75 q 2.6,-3.05 6.2,-4.8 m 9.2,48.05 q 0.35,-4.35 -0.3,-7.75 -0.7,-3.5 -2.75,-7.8 l -4,-7.35 q -2.4,-4.35 -3.5,-7.65 -1.5,-4.35 -1.25,-8.15 -0.85,2 -1.7,2.85 -0.85,0.9 -1.75,1.05 L -1.2,-24.35 Q -2,-24.7 -2.5,-25.55 L -2.95,-26.9 -3.8,-30 q -0.65,1.5 -2.45,1.75 l -3.15,-0.3 0.35,1.15 0.45,1.1 q 0.2,0.65 0.25,1.85 l 0.3,2.85 q 0.1,2 -0.15,3.35 -0.15,0.85 -1.05,3.2 l -0.75,1.75 -0.1,0.3 -2.35,6.9 -2.5,6.85 q -1.1,3.3 -1.6,6.3 -0.8,4.4 -0.3,8.05 0.55,3.8 2.45,6.9 2.05,3.35 5.15,5 l 0.95,0.45 q 1.95,-2.85 3.5,-4.4 l -0.45,-0.6 q -1,-1.35 -2.4,-2.6 L -9.8,17.4 q -0.4,-0.8 -0.25,-1.6 0.1,-0.9 0.8,-1.35 0.95,-0.65 2.85,0.2 3,1.4 5.35,3.65 l 0.4,0.4 2.85,-3.5 q 1.55,-1.95 2.85,-1.95 0.8,-0.05 1.45,0.6 0.65,0.65 0.6,1.5 -0.05,0.8 -1.1,2.25 -1.45,2 -2.3,3.8 l 1.5,1.15 Q 5.95,23.3 6.9,25 l 0.8,1.5 q 2.4,-1.35 4.05,-3.4 2.9,-3.7 3.65,-10.65 l 0.2,-1.95 m -16.65,18.2 4.1,-0.5 -2.25,-1.65 -0.6,-0.3 -0.85,0.8 -1.9,1.65 h 1.5"
         fill="#000000"
         fill-rule="evenodd"
         stroke="none"
         id="path1" />
      <path
         d="m -16.55,7.05 1.7,-2.5 q 3.15,-3.8 8.2,-5.45 4.95,-1.6 9.9,-0.55 4.9,0.95 8.15,4.15 2.8,2.75 3.95,6.75 l 0.25,1.05 -0.2,1.95 Q 14.65,19.4 11.75,23.1 10.1,25.15 7.7,26.5 L 6.9,25 Q 5.95,23.3 5.2,22.55 L 3.7,21.4 Q 4.55,19.6 6,17.6 7.05,16.15 7.1,15.35 7.15,14.5 6.5,13.85 5.85,13.2 5.05,13.25 q -1.3,0 -2.85,1.95 l -2.85,3.5 -0.4,-0.4 q -2.35,-2.25 -5.35,-3.65 -1.9,-0.85 -2.85,-0.2 -0.7,0.45 -0.8,1.35 -0.15,0.8 0.25,1.6 l 2.15,2.45 q 1.4,1.25 2.4,2.6 l 0.45,0.6 q -1.55,1.55 -3.5,4.4 L -9.25,27 q -3.1,-1.65 -5.15,-5 -1.9,-3.1 -2.45,-6.9 -0.5,-3.65 0.3,-8.05 m 15.5,21.65 h -1.5 l 1.9,-1.65 0.85,-0.8 0.6,0.3 2.25,1.65 -4.1,0.5"
         fill="#997575"
         fill-rule="evenodd"
         stroke="none"
         id="path2" />
      <path
         d="m -16.55,7.05 q 0.5,-3 1.6,-6.3 l 2.5,-6.85 2.35,-6.9 0.1,-0.3 0.75,-1.75 q 0.9,-2.35 1.05,-3.2 0.25,-1.35 0.15,-3.35 l -0.3,-2.85 q -0.05,-1.2 -0.25,-1.85 l -0.45,-1.1 -0.35,-1.15 3.15,0.3 q 1.8,-0.25 2.45,-1.75 l 0.85,3.1 0.45,1.35 q 0.5,0.85 1.3,1.2 l 1.55,0.05 q 0.9,-0.15 1.75,-1.05 0.85,-0.85 1.7,-2.85 -0.25,3.8 1.25,8.15 1.1,3.3 3.5,7.65 l 4,7.35 q 2.05,4.3 2.75,7.8 0.65,3.4 0.3,7.75 L 15.35,9.45 Q 14.2,5.45 11.4,2.7 8.15,-0.5 3.25,-1.45 -1.7,-2.5 -6.65,-0.9 q -5.05,1.65 -8.2,5.45 l -1.7,2.5"
         fill="#bc9494"
         fill-rule="evenodd"
         stroke="none"
         id="path3" />
    </g>
    <g
       id="sprite1"
       transform="translate(17.4,15.85)">
      <use
         ffdec:characterId="31"
         height="57.200001"
         transform="matrix(0.5366,0,0,0.5366,-16.6582,-14.546)"
         width="70.75"
         xlink:href="#sprite2"
         id="use3" />
    </g>
    <g
       id="sprite2"
       transform="translate(-8.65,-10.35)">
      <use
         ffdec:characterId="30"
         height="57.200001"
         transform="translate(8.65,10.35)"
         width="70.75"
         xlink:href="#shape1"
         id="use4" />
    </g>
    <g
       id="shape1"
       transform="translate(-8.65,-10.35)">
      <path
         d="m 14.8,41.7 q 0.65,-1.75 2.65,-2.5 1.8,-0.8 3.7,-0.25 1.15,0.45 2.25,1.2 l 0.9,0.4 q 1.65,0.9 2.85,2.5 L 37.8,30.1 q 2.35,-2.8 3.75,-3.95 1.5,-1.15 4.25,-2.4 18.2,-8.85 27.65,-12.6 2.15,-0.8 3.25,-0.8 h 0.8 l 1.9,2.4 -0.2,0.8 q -0.2,1.1 -1.55,3 -5.85,8.25 -18.85,23.8 -1.85,2.35 -3.35,3.5 -1.4,1.15 -4.75,2.75 l -15.15,7.15 q 1.2,1.6 1.75,3.4 l 0.2,1 0.55,2.5 q 0.1,1.95 -1.1,3.55 -1.2,1.65 -3.05,1.9 l -1.3,0.05 q -1.65,0.2 -3.45,-0.65 -1.85,-0.9 -3,-2.6 L 25,60.95 23.8,62.1 q -2.6,2.85 -4.3,3.95 -2.85,1.8 -5.5,1.45 l -1.65,-0.5 -1.2,-0.7 -0.2,-0.2 q -1,-0.85 -1.6,-1.9 L 9.25,64 9.15,63.8 8.75,62.4 q -0.2,-0.8 -0.05,-1.7 0.25,-2.65 2.7,-5.05 1.5,-1.3 4.9,-3.15 L 17.7,51.55 16.05,50 q -1.35,-1.5 -1.8,-3.6 -0.4,-1.85 0.25,-3.45 l 0.3,-1.25"
         fill="#000000"
         fill-opacity="0.372549"
         fill-rule="evenodd"
         stroke="none"
         id="path4" />
    </g>
  </defs>
</svg>
