<?xml version="1.0" encoding="UTF-8" standalone="no"?>
<svg
   ffdec:objectType="frame"
   height="83.849998"
   width="48.483334"
   version="1.1"
   id="svg4"
   xmlns:xlink="http://www.w3.org/1999/xlink"
   xmlns="http://www.w3.org/2000/svg"
   xmlns:svg="http://www.w3.org/2000/svg"
   xmlns:ffdec="https://www.free-decompiler.com/flash">
  <g
     transform="translate(25.166667,43.5)"
     id="g1">
    <use
       ffdec:characterId="17"
       height="119.15"
       id="rarity"
       transform="translate(-58.5,-60.65)"
       width="119.15"
       xlink:href="#sprite0" />
    <use
       ffdec:characterId="277"
       height="83.900002"
       transform="translate(-25.15,-43.55)"
       width="48.450001"
       xlink:href="#shape0"
       id="use1" />
  </g>
  <defs
     id="defs4">
    <g
       id="shape0"
       transform="translate(24.85,46.05)">
      <path
         d="m -11.65,-12.55 q -2.4,-3.65 -2.75,-8.2 -0.35,-4.55 1.7,-8.35 l 1.85,-2.85 2.95,-3.9 3,-2.85 0.7,-0.7 q -0.65,-0.45 -1,-1.3 -0.45,-1.15 -0.1,-2.3 0.35,-1.05 1.35,-1.85 0.9,-0.75 2.1,-1 l 0.9,-0.15 h 0.65 l 0.9,0.15 q 1.2,0.25 2.1,1 1,0.8 1.35,1.85 0.35,1.15 -0.1,2.3 l -1,1.3 0.7,0.7 1.65,1.6 0.2,0.05 0.6,0.85 0.5,1.6 -0.35,1.4 -2.05,3.35 -1.75,3.1 q 1.4,-0.85 4.1,-3.7 l 1.2,-1 1.95,-0.1 0.1,-0.1 0.25,0.35 0.65,0.95 0.75,1.25 q 2,3.8 1.7,8.35 -0.35,4.55 -2.75,8.2 l -1.45,1.85 0.45,0.35 1.1,1.5 q 0.45,1.15 0.3,3.1 l -0.3,1.25 -0.95,1.05 -1.4,1.15 v 0.6 q 0.05,2.8 1.05,5.55 1.05,2.75 2.9,4.9 l 1.95,2 q 2.75,2.85 3.95,5.5 0.7,1.6 0.9,3.05 1.6,0.4 2.65,1.55 1.3,1.4 1.8,4.15 0.6,2.7 -0.15,4.35 -0.65,1.25 -2.75,2.75 l -3.15,2.1 q -1.55,0.85 -4.45,1.7 L 8.3,37.1 3.05,37.8 -0.3,37.85 h -0.15 -0.5 L -4.3,37.8 -9.55,37.1 -14.1,35.9 q -2.9,-0.85 -4.45,-1.7 l -3.15,-2.1 q -2.1,-1.5 -2.75,-2.75 -0.75,-1.65 -0.15,-4.35 0.45,-2.75 1.8,-4.15 1.05,-1.15 2.65,-1.55 0.2,-1.45 0.9,-3.05 1.2,-2.65 3.95,-5.5 l 1.95,-2 q 1.85,-2.15 2.9,-4.9 1,-2.75 1.05,-5.55 v -0.6 l -1.4,-1.15 -0.95,-1.05 -0.3,-1.25 q -0.15,-1.95 0.3,-3.1 l 1.1,-1.5 0.45,-0.35 -1.45,-1.85 m 12.1,-10.1 -0.25,-0.15 -0.8,-0.8 -0.05,-0.1 q -0.7,-0.45 -1.05,-1 -0.55,-0.75 -0.35,-1.65 l 0.65,-1.3 1.55,-2.45 2.35,-3.75 -0.45,-0.55 -1.4,-1.65 -1.3,-1.8 -1.25,1.8 -1.4,1.65 -0.1,0.15 -3.35,4.4 q -1.9,2.75 -2.55,5.05 l -0.3,1.4 q -0.3,1.85 0.15,3.8 0.55,2.75 2.3,4.75 1,1.1 1.7,1.3 l 2,0.05 2.5,-0.15 h 0.25 0.4 l 2.5,0.15 2,-0.05 q 0.7,-0.2 1.7,-1.3 1.75,-2 2.3,-4.75 0.55,-2.65 -0.15,-5.2 l -0.45,-1.35 -1.7,1.4 -0.75,0.65 -0.35,0.3 -0.8,0.85 -0.45,0.35 -0.55,0.4 -1.45,0.05 -1.1,-0.5 M -1.3,-5.8 -0.95,-5.85 V -5.9 l 0.3,0.05 0.35,-0.05 v 0.05 Q 1.6,-5.7 4.4,-5.9 L 5.6,-6.1 6.35,-6.75 6.65,-7.35 6.4,-8 6.05,-8.65 l -0.2,-0.2 -2.9,0.3 -2.9,-0.15 -0.7,-0.15 -3.55,0.3 -1.45,-0.05 -1.45,-0.25 -0.2,0.2 -0.35,0.65 -0.25,0.65 0.3,0.6 0.75,0.65 1.15,0.2 1.45,0.1 h 2.95 m -13.6,28 q 0.55,1 1.7,1.75 1.35,0.85 3.35,1.3 3.35,0.95 7.8,1.15 l 1.5,0.1 1.35,-0.1 q 4.45,-0.2 7.8,-1.15 2,-0.45 3.35,-1.3 1.7,-1.1 2.1,-2.8 0.5,-2 -0.9,-4.1 l -2.8,-3.2 Q 6.95,10.25 5.4,6.45 3.7,2.35 4.05,-1.4 H 4 h -4.65 -4.6 -0.1 l 0.05,2.1 q -0.15,2.8 -1.35,5.75 -1.6,3.8 -4.95,7.4 l -1.75,1.9 -1.05,1.3 -0.05,0.1 q -1.35,2.05 -0.85,4 l 0.4,1.05 m -4.2,2.35 -0.45,-0.9 -0.75,1.35 -0.2,0.55 -0.05,0.9 q 0.05,0.8 1.1,1.6 l 1.35,1.05 q 2.4,1.6 6.1,2.75 5.45,1.7 11.05,1.85 h 0.65 q 5.6,-0.15 11.05,-1.85 4.85,-1.5 7.45,-3.8 1.05,-0.8 1.1,-1.6 0.15,-0.6 -0.25,-1.45 L 18.3,23.65 q -1.3,3.1 -5.05,4.85 -2.9,1.35 -7.75,1.7 L -0.65,30.45 -6.8,30.2 q -4.8,-0.35 -7.7,-1.7 l -1.9,-1.1 q -1.8,-1.2 -2.7,-2.85"
         fill="#000000"
         fill-rule="evenodd"
         stroke="none"
         id="path1" />
      <path
         d="m -3.4,-34.25 1.2,0.9 q 0.65,0.85 0.65,2.3 0.05,2.05 -1.05,3.95 -1,1.8 -2.7,3.15 -2.35,1.85 -4.05,0.75 l -0.25,-0.2 0.3,-1.4 q 0.65,-2.3 2.55,-5.05 l 3.35,-4.4 m 8.55,10.15 v 0.05 q 0.7,0.7 0.75,1.6 0.1,0.9 -0.45,1.7 -0.5,0.8 -1.35,1.1 L 2.35,-19.6 Q 1.4,-19.9 0.9,-20.65 0.35,-21.4 0.4,-22.35 l 0.05,-0.3 1.1,0.5 L 3,-22.2 3.55,-22.6 4,-22.95 4.8,-23.8 5.15,-24.1 M -1.3,-5.8 H -4.25 L -4.6,-6.05 Q -5.85,-7 -5.65,-8.6 l 1.45,0.05 3.55,-0.3 0.7,0.15 q 0.2,1.1 -0.55,2.1 l -0.8,0.8 m -4,6.5 q 0.65,-0.45 1.4,-0.4 1,0.1 1.6,0.85 0.6,0.75 0.6,1.75 0.05,0.7 -0.5,2.25 l -1.4,3.8 q -1.45,3.45 -4.05,6.2 -1.9,1.9 -3.45,1.85 -1.5,-0.1 -2.25,-1.25 l 1.75,-1.9 q 3.35,-3.6 4.95,-7.4 1.2,-2.95 1.35,-5.75 m -9.15,16.45 q 0.85,0 1.65,0.75 0.55,0.55 0.65,1.35 0.15,0.85 -0.2,1.5 -0.3,0.7 -1,1.1 l -1.5,0.35 h -0.05 l -0.4,-1.05 q -0.5,-1.95 0.85,-4 m -6.05,8.4 0.05,-0.1 q 0.45,-0.65 1.25,-0.9 h 0.1 q 0.9,1.65 2.7,2.85 l -0.05,0.05 q -0.25,0.95 -1,1.4 l -0.65,0.25 -1.35,-1.05 q -1.05,-0.8 -1.1,-1.6 l 0.05,-0.9"
         fill="#ffffff"
         fill-rule="evenodd"
         stroke="none"
         id="path2" />
      <path
         d="m -3.4,-34.25 0.1,-0.15 1.4,-1.65 1.25,-1.8 1.3,1.8 1.4,1.65 0.45,0.55 -2.35,3.75 -1.55,2.45 -0.65,1.3 q -0.2,0.9 0.35,1.65 0.35,0.55 1.05,1 l 0.05,0.1 0.8,0.8 0.25,0.15 -0.05,0.3 q -0.05,0.95 0.5,1.7 0.5,0.75 1.45,1.05 l 1.75,-0.05 q 0.85,-0.3 1.35,-1.1 0.55,-0.8 0.45,-1.7 -0.05,-0.9 -0.75,-1.6 v -0.05 l 0.75,-0.65 1.7,-1.4 0.45,1.35 q 0.7,2.55 0.15,5.2 -0.55,2.75 -2.3,4.75 -1,1.1 -1.7,1.3 l -2,0.05 -2.5,-0.15 h -0.4 -0.25 l -2.5,0.15 -2,-0.05 q -0.7,-0.2 -1.7,-1.3 -1.75,-2 -2.3,-4.75 -0.45,-1.95 -0.15,-3.8 l 0.25,0.2 q 1.7,1.1 4.05,-0.75 1.7,-1.35 2.7,-3.15 1.1,-1.9 1.05,-3.95 0,-1.45 -0.65,-2.3 l -1.2,-0.9 m 3.45,25.55 2.9,0.15 2.9,-0.3 0.2,0.2 0.35,0.65 0.25,0.65 -0.3,0.6 -0.75,0.65 -1.2,0.2 q -2.8,0.2 -4.7,0.05 V -5.9 l -0.35,0.05 -0.3,-0.05 v 0.05 l -0.35,0.05 0.8,-0.8 q 0.75,-1 0.55,-2.1 m -4.3,2.9 -1.45,-0.1 -1.15,-0.2 -0.75,-0.65 -0.3,-0.6 0.25,-0.65 0.35,-0.65 0.2,-0.2 1.45,0.25 q -0.2,1.6 1.05,2.55 l 0.35,0.25 M -5.3,0.7 -5.35,-1.4 h 0.1 4.6 H 4 4.05 Q 3.7,2.35 5.4,6.45 q 1.55,3.8 4.95,7.4 l 2.8,3.2 q 1.4,2.1 0.9,4.1 -0.4,1.7 -2.1,2.8 Q 10.6,24.8 8.6,25.25 5.25,26.2 0.8,26.4 l -1.35,0.1 -1.5,-0.1 q -4.45,-0.2 -7.8,-1.15 -2,-0.45 -3.35,-1.3 -1.15,-0.75 -1.7,-1.75 h 0.05 l 1.5,-0.35 q 0.7,-0.4 1,-1.1 0.35,-0.65 0.2,-1.5 -0.1,-0.8 -0.65,-1.35 -0.8,-0.75 -1.65,-0.75 l 0.05,-0.1 1.05,-1.3 q 0.75,1.15 2.25,1.25 1.55,0.05 3.45,-1.85 2.6,-2.75 4.05,-6.2 l 1.4,-3.8 Q -1.65,3.6 -1.7,2.9 -1.7,1.9 -2.3,1.15 -2.9,0.4 -3.9,0.3 -4.65,0.25 -5.3,0.7 m -11.1,26.7 1.9,1.1 q 2.9,1.35 7.7,1.7 L -0.65,30.45 5.5,30.2 Q 10.35,29.85 13.25,28.5 17,26.75 18.3,23.65 L 19.05,25 q 0.4,0.85 0.25,1.45 -0.05,0.8 -1.1,1.6 -2.6,2.3 -7.45,3.8 Q 5.3,33.55 -0.3,33.7 H -0.95 Q -6.55,33.55 -12,31.85 -15.7,30.7 -18.1,29.1 l 0.65,-0.25 q 0.75,-0.45 1,-1.4 l 0.05,-0.05"
         fill="#484848"
         fill-rule="evenodd"
         stroke="none"
         id="path3" />
    </g>
    <g
       id="sprite1"
       transform="translate(17.4,15.85)">
      <use
         ffdec:characterId="31"
         height="57.200001"
         transform="matrix(0.5366,0,0,0.5366,-16.6582,-14.546)"
         width="70.75"
         xlink:href="#sprite2"
         id="use3" />
    </g>
    <g
       id="sprite2"
       transform="translate(-8.65,-10.35)">
      <use
         ffdec:characterId="30"
         height="57.200001"
         transform="translate(8.65,10.35)"
         width="70.75"
         xlink:href="#shape1"
         id="use4" />
    </g>
    <g
       id="shape1"
       transform="translate(-8.65,-10.35)">
      <path
         d="m 14.8,41.7 q 0.65,-1.75 2.65,-2.5 1.8,-0.8 3.7,-0.25 1.15,0.45 2.25,1.2 l 0.9,0.4 q 1.65,0.9 2.85,2.5 L 37.8,30.1 q 2.35,-2.8 3.75,-3.95 1.5,-1.15 4.25,-2.4 18.2,-8.85 27.65,-12.6 2.15,-0.8 3.25,-0.8 h 0.8 l 1.9,2.4 -0.2,0.8 q -0.2,1.1 -1.55,3 -5.85,8.25 -18.85,23.8 -1.85,2.35 -3.35,3.5 -1.4,1.15 -4.75,2.75 l -15.15,7.15 q 1.2,1.6 1.75,3.4 l 0.2,1 0.55,2.5 q 0.1,1.95 -1.1,3.55 -1.2,1.65 -3.05,1.9 l -1.3,0.05 q -1.65,0.2 -3.45,-0.65 -1.85,-0.9 -3,-2.6 L 25,60.95 23.8,62.1 q -2.6,2.85 -4.3,3.95 -2.85,1.8 -5.5,1.45 l -1.65,-0.5 -1.2,-0.7 -0.2,-0.2 q -1,-0.85 -1.6,-1.9 L 9.25,64 9.15,63.8 8.75,62.4 q -0.2,-0.8 -0.05,-1.7 0.25,-2.65 2.7,-5.05 1.5,-1.3 4.9,-3.15 L 17.7,51.55 16.05,50 q -1.35,-1.5 -1.8,-3.6 -0.4,-1.85 0.25,-3.45 l 0.3,-1.25"
         fill="#000000"
         fill-opacity="0.372549"
         fill-rule="evenodd"
         stroke="none"
         id="path4" />
    </g>
  </defs>
</svg>
