<?xml version="1.0" encoding="UTF-8" standalone="no"?>
<svg
   ffdec:objectType="frame"
   height="90.411919"
   width="87.980766"
   version="1.1"
   id="svg7"
   xmlns:xlink="http://www.w3.org/1999/xlink"
   xmlns="http://www.w3.org/2000/svg"
   xmlns:svg="http://www.w3.org/2000/svg"
   xmlns:ffdec="https://www.free-decompiler.com/flash">
  <g
     transform="translate(46.25,44.853922)"
     id="g1">
    <use
       ffdec:characterId="17"
       height="119.15"
       id="rarity"
       transform="translate(-58.5,-60.65)"
       width="119.15"
       xlink:href="#sprite0" />
    <use
       ffdec:characterId="576"
       height="90.400002"
       transform="translate(-46.25,-44.85)"
       width="88"
       xlink:href="#sprite1"
       id="use1" />
  </g>
  <defs
     id="defs7">
    <g
       id="sprite1"
       transform="translate(44.75,44.4)">
      <use
         ffdec:characterId="575"
         height="90.400002"
         transform="translate(-44.75,-44.4)"
         width="88"
         xlink:href="#shape0"
         id="use2" />
    </g>
    <g
       id="shape0"
       transform="translate(44.75,44.4)">
      <path
         d="m 25.05,-39.6 0.4,0.6 q 0.5,0.8 0.45,2.05 0,1.1 -0.6,3.4 -0.45,1.85 -0.6,3.7 l -0.1,1.6 q 0,1.3 0.15,2.65 0.3,2.6 1.15,5 0.45,1.35 1.15,2.65 l 1.9,3.3 q 1.15,1.95 1.6,3.4 l 0.3,1.2 0.4,4.8 Q 31.35,2.2 30.7,9.8 l -0.2,2.1 -0.25,2.35 q -0.65,5.35 -0.35,7.7 l 0.5,2.95 0.35,2.95 q 0.1,3.75 -2.1,5.35 -0.85,0.65 -3,1.2 -2.15,0.55 -3,1.25 0.65,1.3 -0.05,2.85 v 0.05 l -0.8,1.2 -1.25,0.95 q -1.15,0.6 -2.85,0.9 l -3,0.4 -8.8,1.35 q -4.7,0.6 -8.05,-0.05 l -0.7,-0.15 -0.7,-0.2 -4.5,-1.6 q -3.2,-1.2 -5.3,-1.25 l -2.25,0.1 -2.25,-0.15 -2,-0.8 -1.85,-1.1 q -0.65,-0.35 -6.25,-2.6 -3.8,-1.55 -5.55,-3.5 -1.1,-1.2 -1.6,-2.6 -0.5,-1.55 -0.15,-3 0.2,-0.95 0.95,-2.1 l 1.35,-1.95 1.7,-3.15 1.55,-3.9 2.75,-7.05 4.35,-10.5 0.3,-0.75 1.9,-4.25 2.85,-6.25 q 3.1,-6.5 6.2,-12.15 2.2,-4.1 4.35,-5.4 l 1.6,-0.65 2,-0.65 h 0.1 q 2.45,-0.6 3.5,-1.2 1.2,-0.65 2.95,-2.4 1.9,-1.85 2.9,-2.5 2.4,-1.45 7.2,-1.75 l 8.4,-0.35 q 2.2,0 3.15,0.7 l 0.25,0.2 m -38.15,28.4 -0.35,0.75 -3.35,7.45 -0.25,0.55 -8.5,21.1 -1.9,4.6 q -1.2,2.5 -2.6,4.25 1,2.3 4.6,3.55 l 2.9,0.8 q 1.7,0.5 2.75,1.1 l 1.7,1.15 q 1.05,0.7 1.85,0.9 l 1.9,0.05 1.9,-0.2 q 2.2,-0.1 5.65,1.4 l 3.5,1.4 2.15,0.65 0.85,0.1 v -0.05 l 1.75,-10 0.8,-4.65 0.8,-7.3 L 3.7,9.65 4.85,-5.2 q 0.2,-3.25 0.5,-4.4 0.4,-1.5 1.65,-4.3 l 0.15,-0.35 0.05,-0.05 0.3,-0.9 0.35,-1.05 0.05,-0.3 0.65,-1.7 0.4,-0.85 0.9,-1.4 q 0.1,-0.55 0.45,-0.95 0.5,-0.6 1.3,-0.6 l 1.45,-0.55 h 0.25 l 0.45,0.05 q 0.4,0.3 0.15,1.1 l -0.1,0.45 0.1,0.1 q 0.7,0.8 1.25,2.15 l 0.85,2.4 q 0.45,1.25 1.65,3.55 l 1.85,3.5 0.45,1.35 -0.15,0.75 q -0.2,0.35 -0.55,0.4 -0.75,0.2 -1.8,-1.4 l -0.8,-1 -0.85,-0.95 -2.3,-3 -1.45,-2.15 -1.4,3.65 -1.4,4 q -0.3,1.15 -0.5,4.45 l -0.8,8.65 -0.7,6.3 -1.5,12.6 0.4,0.35 2.1,1.75 1.65,0.95 1.55,1.2 1.6,1.2 1.9,0.85 1.7,1 1.95,1.2 0.3,-0.35 q 1.05,-1 3.65,-1.7 1.35,-0.4 1.95,-0.75 1.05,-0.5 1.4,-1.35 Q 26.25,28 26.1,27 L 25.7,25.25 Q 24.65,21.1 25.3,14.8 26.3,7.75 26.5,4.25 l 0.05,-4.65 -0.1,-4.65 q 0,-3.55 -0.65,-5.2 l -1.9,-3.4 q -2.95,-4.8 -3.75,-10.6 -0.4,-3.1 -0.1,-6.05 -1.5,1.65 -2.85,4.15 -1.1,2.05 -2.25,1.95 -0.4,-0.05 -0.65,-0.3 l -0.35,-0.45 q -0.4,-0.65 -0.3,-1.35 0.05,-0.6 0.85,-2.15 l 0.15,-0.35 0.8,-1.7 1.45,-1.7 1.4,-2.25 0.9,-1.15 -4.15,-0.1 q -3.3,0.2 -5.7,1.35 l -3.9,2.75 q -2.45,2 -3.9,2.7 l -2.45,0.9 -0.85,0.3 -1.85,0.85 -1.2,0.8 q -1,0.85 -2.3,3.15 l -3.2,6 -0.35,0.7 -0.2,0.4 -1.95,4 -0.3,0.6 M 4.55,38.25 16.8,36.45 15.95,36.15 15.15,35.4 14.3,34.55 13.5,34.15 12.6,33.85 10.9,32.8 7.45,30.1 5.2,28.1 q -1,6.05 -2.45,10.3 l 1.8,-0.15"
         fill="#000000"
         fill-rule="evenodd"
         stroke="none"
         id="path2" />
      <path
         d="m -13.1,-11.2 0.15,0.25 q 0.35,0.65 1,0.95 1.3,0.7 2.7,0 l 1.45,-1.1 q 1.85,-1.75 2.75,-2.85 1.35,-1.7 1.85,-3.35 l 0.6,-2.25 0.6,-1.4 0.95,-1.95 0.35,-1.4 q 0.15,-0.75 0.05,-2.25 L -0.9,-28 1.55,-28.9 q 1.45,-0.7 3.9,-2.7 l 3.9,-2.75 q 2.4,-1.15 5.7,-1.35 l 4.15,0.1 -0.9,1.15 -1.4,2.25 -1.45,1.7 -0.8,1.7 -0.15,0.35 q -0.8,1.55 -0.85,2.15 -0.1,0.7 0.3,1.35 l 0.35,0.45 -1,1.9 h -0.25 l -1.45,0.55 q -0.8,0 -1.3,0.6 l 0.1,-0.1 0.1,-0.35 q 1.35,-4.05 1.25,-8.1 0,-1.1 -0.35,-1.7 -0.55,-0.95 -2.35,-1.05 l -2.4,0.55 q -1.5,0.8 -3.05,3.9 -2.5,4.9 -3.45,7.45 l -0.6,1.85 -0.15,2.45 v 5.5 q 0,1.2 0.35,1.7 0.55,0.7 2.4,0.7 2.05,-0.1 2.55,-1 l 0.4,-1.5 0.8,-1.1 q 0.8,-1 1.7,-3.45 l 0.1,-0.15 0.05,-0.2 0.1,-0.2 -0.35,1.05 -0.3,0.9 -0.05,0.05 L 7,-13.9 q -1.25,2.8 -1.65,4.3 -0.3,1.15 -0.5,4.4 L 3.7,9.65 3.05,16.4 l -0.8,7.3 -0.8,4.65 -1.75,10 v 0.05 l -0.85,-0.1 -2.15,-0.65 -3.5,-1.4 q -3.45,-1.5 -5.65,-1.4 l -1.9,0.2 -1.9,-0.05 q -0.8,-0.2 -1.85,-0.9 l -1.7,-1.15 q -1.05,-0.6 -2.75,-1.1 l -2.9,-0.8 q -3.6,-1.25 -4.6,-3.55 1.4,-1.75 2.6,-4.25 l 1.9,-4.6 8.5,-21.1 0.25,-0.55 3.35,-7.45 0.35,-0.75 m 9.5,-15.65 0.1,0.6 q 0,1.05 -0.7,2.85 l -1.25,3.15 q -0.9,2.4 -1.65,3.6 -1.15,1.9 -2.65,2.75 0.6,-0.85 0.1,-1.8 l -0.85,-0.75 -0.15,0.25 0.35,-0.7 3.2,-6 q 1.3,-2.3 2.3,-3.15 l 1.2,-0.8 m -1.55,49.75 -0.15,3.2 -0.4,1.7 -0.15,1.65 v 0.8 q -0.1,0.5 -0.6,0.4 -0.1,-1.9 -0.35,-3.45 -0.45,-2 -1.35,-3.85 l -0.75,-1.8 -0.15,-1.05 -0.3,-1 q -0.8,-1.1 -3.1,-0.35 -2.9,1.15 -7.6,4.2 2.6,-4.25 3.25,-6.8 l 1,-4.55 q 0.3,-1.25 1.6,-3.9 l 1.85,-3.75 1.45,-2.65 2.4,-3.15 q 1.55,-1.95 2.15,-3.25 2,2.2 2.45,5.25 0.15,1.1 0.15,3.35 0,3.3 -0.25,4.9 l -0.5,2.7 -0.05,2.05 0.05,2.05 -0.3,3.65 -0.35,3.65 m 3.4,-6.3 0.2,-4.3 0.45,-3.2 q 0.25,-2 0.25,-7.2 0,-1.8 -0.25,-3.05 -0.25,-1.3 -1.35,-3.6 -1,-2 -1.85,-2.65 -1,-0.7 -2.25,-0.65 -1.3,0.1 -2.15,0.95 l -1.35,2 -1.95,2.8 -2,2.75 q -1.45,2.1 -3.55,6.8 l -1.5,3.7 -0.7,2.7 -0.75,2.7 -1.8,3.7 q -1.25,2.3 -1.6,3.8 -0.6,2.75 0.95,3.75 l 2.95,0.05 2.55,-1.8 q 2.3,-1.9 5.1,-2.9 1.8,2.9 2.25,6.45 l 0.5,2.7 q 0.7,1.9 2.55,2.75 l 1.8,0.15 q 1.2,-0.4 1.6,-2.65 1.6,-7.95 1.9,-15.75 M 8.8,-29.8 q -0.05,5 -2.15,9.6 l -1.5,3.1 q -0.9,1.8 -1.2,3.15 -0.3,1.85 -1.25,2 -0.75,-4.35 0.75,-8.75 l 1.85,-4.1 q 1.8,-3.7 3.5,-5"
         fill="#252525"
         fill-rule="evenodd"
         stroke="none"
         id="path3" />
      <path
         d="m 13.3,-22.6 1,-1.9 q 0.25,0.25 0.65,0.3 1.15,0.1 2.25,-1.95 1.35,-2.5 2.85,-4.15 -0.3,2.95 0.1,6.05 0.8,5.8 3.75,10.6 l 1.9,3.4 q 0.65,1.65 0.65,5.2 l 0.1,4.65 -0.05,4.65 q -0.2,3.5 -1.2,10.55 -0.65,6.3 0.4,10.45 L 26.1,27 q 0.15,1 -0.2,1.7 -0.35,0.85 -1.4,1.35 -0.6,0.35 -1.95,0.75 -2.6,0.7 -3.65,1.7 l -0.3,0.35 -1.95,-1.2 -1.7,-1 -1.9,-0.85 -1.6,-1.2 -1.55,-1.2 -1.65,-0.95 -2.1,-1.75 -0.4,-0.35 1.5,-12.6 0.7,-6.3 0.8,-8.65 q 0.2,-3.3 0.5,-4.45 l 1.4,-4 1.4,-3.65 1.45,2.15 2.3,3 0.85,0.95 0.8,1 q 1.05,1.6 1.8,1.4 0.35,-0.05 0.55,-0.4 l 0.15,-0.75 -0.45,-1.35 -1.85,-3.5 q -1.2,-2.3 -1.65,-3.55 l -0.85,-2.4 Q 14.6,-20.1 13.9,-20.9 l -0.1,-0.1 0.1,-0.45 q 0.25,-0.8 -0.15,-1.1 L 13.3,-22.6 M 4.55,38.25 2.75,38.4 Q 4.2,34.15 5.2,28.1 l 2.25,2 3.45,2.7 1.7,1.05 0.9,0.3 0.8,0.4 0.85,0.85 0.8,0.75 0.85,0.3 -12.25,1.8"
         fill="#171717"
         fill-rule="evenodd"
         stroke="none"
         id="path4" />
      <path
         d="m -3.55,42.95 -0.4,-0.05 -2.6,0.35 -2.5,0.75 q -4.15,1.25 -8.65,0.95 -3.15,-0.3 -4.7,-1.55 l -1.6,-1.8 -1.45,-1.95 q -1.05,-1.15 -2.85,-2.1 -1,-0.55 -3.35,-1.55 -2.95,-1.3 -4.6,-2.6 -2.3,-1.8 -2.95,-4.05 -0.7,-2.65 0.8,-6.65 1.45,-3.9 4.05,-7.6 l 1.7,-2.65 q 0.8,-1.6 0.45,-2.9 -0.2,-0.85 -1.15,-2.15 l -1.2,-2.1 q -0.55,-1.75 0.7,-4.35 2.35,-5.35 6.75,-9.3 l 2.25,-2.05 q 1.2,-1.25 1.65,-2.5 0.25,-0.7 0.4,-2 l 0.25,-2.05 1.15,-2.65 1.25,-2.7 q 0.35,-1.2 0.4,-3.8 0.05,-2.55 0.45,-3.8 1,-2.9 4.9,-5.2 3.2,-2 6.45,-2.4 3.75,-0.5 6.3,1.4 0.75,-2.55 2.8,-4.45 2.05,-1.9 4.65,-2.45 l 3,-0.3 3.05,-0.2 3.15,-0.5 3.15,-0.4 q 4,-0.1 5.65,2.35 l 0.75,1.45 0.5,1 -0.25,-0.2 q -0.95,-0.7 -3.15,-0.7 l -8.4,0.35 q -4.8,0.3 -7.2,1.75 -1,0.65 -2.9,2.5 -1.75,1.75 -2.95,2.4 -1.05,0.6 -3.5,1.2 h -0.1 l -2,0.65 L -7,-31 q -2.15,1.3 -4.35,5.4 -3.1,5.65 -6.2,12.15 l -2.85,6.25 -1.9,4.25 -0.3,0.75 -4.35,10.5 -2.75,7.05 -1.55,3.9 -1.7,3.15 -1.35,1.95 q -0.75,1.15 -0.95,2.1 -0.35,1.45 0.15,3 0.5,1.4 1.6,2.6 1.75,1.95 5.55,3.5 5.6,2.25 6.25,2.6 l 1.85,1.1 2,0.8 2.25,0.15 2.25,-0.1 q 2.1,0.05 5.3,1.25 l 4.5,1.6 m 29,-81.95 1.95,1.3 1.85,1.6 q 0.65,1.05 0.5,3.35 -0.15,2.5 0.25,3.5 l 0.95,1.4 0.95,1.4 q 1.4,2.6 -0.6,6.25 -0.85,1.6 -0.75,2.35 0.1,0.75 0.85,1.45 l 1.4,1.15 q 2.35,1.75 3.75,4.5 1.35,2.75 1.3,5.7 Q 37.8,-3.4 37.2,-0.5 L 36.4,4.05 36.3,7.3 q -0.05,2 -0.45,3.25 -0.3,1 -1.6,3.2 -1.2,2 -1.45,3.25 -0.35,2 1,6 1.35,3.9 0.9,5.95 -0.8,3.55 -6.3,6.05 l -3.45,1.65 q -1.5,0.85 -2.35,1.9 V 38.5 q 0.7,-1.55 0.05,-2.85 0.85,-0.7 3,-1.25 2.15,-0.55 3,-1.2 2.2,-1.6 2.1,-5.35 L 30.4,24.9 29.9,21.95 q -0.3,-2.35 0.35,-7.7 L 30.5,11.9 30.7,9.8 q 0.65,-7.6 0.55,-15.05 l -0.4,-4.8 -0.3,-1.2 q -0.45,-1.45 -1.6,-3.4 l -1.9,-3.3 q -0.7,-1.3 -1.15,-2.65 -0.85,-2.4 -1.15,-5 -0.15,-1.35 -0.15,-2.65 l 0.1,-1.6 q 0.15,-1.85 0.6,-3.7 0.6,-2.3 0.6,-3.4 0.05,-1.25 -0.45,-2.05 M 21.8,39.75 20.85,41.7 q -0.8,1.65 -1.65,2.35 -1.15,0.95 -3.3,1 h -3.7 l -4,0.65 -3.95,0.2 q -1.35,-0.2 -4.1,-1.6 -1.3,-0.65 -2.3,-1 3.35,0.65 8.05,0.05 l 8.8,-1.35 3,-0.4 q 1.7,-0.3 2.85,-0.9 L 21.8,39.75 M -20.8,-29 q -0.7,0.55 -1.7,0.45 -1,-0.15 -1.55,-0.85 -0.6,-0.7 -0.5,-1.7 0.05,-1 0.75,-1.6 l 1,-0.5 q 1.1,-0.25 2.05,0.4 0.7,0.45 0.9,1.05 0.25,0.6 -0.05,1.55 -0.35,0.8 -0.9,1.2 m -7.9,5.8 q 1.05,0.15 1.85,0.95 0.8,0.75 0.95,1.8 0.15,1.3 -0.6,2.65 -0.55,1.1 -1.25,1.55 -1.25,0.9 -2.65,0.35 -1.4,-0.55 -1.8,-2 l -0.05,-2 0.35,-1.65 q 0.35,-0.9 1.3,-1.35 l 1.9,-0.3 m 65,-0.15 q 0.8,-1 2.75,-1.2 2.55,-0.1 3.55,1.35 0.9,1.3 0.2,3.85 -0.4,1.9 -1.4,2.5 l -2,0.15 q -1.15,-0.25 -2.15,-0.85 -1,-0.65 -1.3,-1.35 -0.3,-0.6 -0.3,-1.65 0,-2 0.65,-2.8 m 5,39.75 q 0.6,0.1 1,0.35 1.1,0.65 0.9,2 -0.15,1.3 -1.35,1.7 l -2.2,-0.15 -0.7,-0.7 q -0.25,-0.5 -0.25,-1.25 0.1,-0.75 0.4,-1.2 0.25,-0.3 0.85,-0.6 L 41.3,16.4 m -7.85,25.9 q 0.1,1.05 -0.45,1.95 -1,1.55 -3.45,1.75 -2.1,0.1 -3.1,-1.05 -1.25,-1.4 -0.45,-3.6 0.7,-2 2.35,-2.65 1.8,-0.75 3.5,0.45 1.6,1.2 1.6,3.15 m -69.95,1.85 q -2.55,0.1 -3.4,-1.05 -0.45,-0.65 -0.45,-1.7 0,-2.35 1.75,-3.7 1.15,-0.9 2.4,-0.9 1.45,0.1 2.1,1.3 l 0.3,1.3 0.05,1.85 q -0.1,1.75 -0.85,2.4 -0.55,0.4 -1.9,0.5 m -7.15,-37 -0.85,-0.85 -0.25,-1.15 q 0.1,-0.6 0.6,-1.05 0.45,-0.4 1.05,-0.45 l 0.2,-0.1 q 0.85,0.1 1.5,0.5 0.75,0.5 0.75,1.35 0.05,0.6 -0.45,1.15 -0.45,0.5 -1.1,0.7 l -1.45,-0.1"
         fill="#77488b"
         fill-opacity="0.498039"
         fill-rule="evenodd"
         stroke="none"
         id="path5" />
      <path
         d="m -0.9,-28 0.25,1.45 q 0.1,1.5 -0.05,2.25 l -0.35,1.4 -0.95,1.95 -0.6,1.4 -0.6,2.25 q -0.5,1.65 -1.85,3.35 -0.9,1.1 -2.75,2.85 l -1.45,1.1 q -1.4,0.7 -2.7,0 -0.65,-0.3 -1,-0.95 l -0.15,-0.25 0.3,-0.6 1.95,-4 0.2,-0.4 0.15,-0.25 0.85,0.75 q 0.5,0.95 -0.1,1.8 1.5,-0.85 2.65,-2.75 0.75,-1.2 1.65,-3.6 l 1.25,-3.15 q 0.7,-1.8 0.7,-2.85 l -0.1,-0.6 1.85,-0.85 0.85,-0.3 m 8.75,11.75 -0.1,0.2 -0.05,0.2 -0.1,0.15 q -0.9,2.45 -1.7,3.45 l -0.8,1.1 -0.4,1.5 q -0.5,0.9 -2.55,1 -1.85,0 -2.4,-0.7 -0.35,-0.5 -0.35,-1.7 v -5.5 l 0.15,-2.45 0.6,-1.85 q 0.95,-2.55 3.45,-7.45 1.55,-3.1 3.05,-3.9 l 2.4,-0.55 q 1.8,0.1 2.35,1.05 0.35,0.6 0.35,1.7 0.1,4.05 -1.25,8.1 l -0.1,0.35 -0.1,0.1 q -0.35,0.4 -0.45,0.95 l -0.9,1.4 -0.4,0.85 -0.65,1.7 -0.05,0.3 m -9.6,32.85 q -0.3,7.8 -1.9,15.75 -0.4,2.25 -1.6,2.65 l -1.8,-0.15 Q -8.9,34 -9.6,32.1 l -0.5,-2.7 q -0.45,-3.55 -2.25,-6.45 -2.8,1 -5.1,2.9 l -2.55,1.8 -2.95,-0.05 q -1.55,-1 -0.95,-3.75 0.35,-1.5 1.6,-3.8 l 1.8,-3.7 0.75,-2.7 0.7,-2.7 1.5,-3.7 q 2.1,-4.7 3.55,-6.8 l 2,-2.75 1.95,-2.8 1.35,-2 q 0.85,-0.85 2.15,-0.95 1.25,-0.05 2.25,0.65 0.85,0.65 1.85,2.65 1.1,2.3 1.35,3.6 0.25,1.25 0.25,3.05 0,5.2 -0.25,7.2 l -0.45,3.2 -0.2,4.3 M -5.15,22.9 -4.8,19.25 -4.5,15.6 -4.55,13.55 -4.5,11.5 -4,8.8 q 0.25,-1.6 0.25,-4.9 0,-2.25 -0.15,-3.35 -0.45,-3.05 -2.45,-5.25 -0.6,1.3 -2.15,3.25 l -2.4,3.15 -1.45,2.65 -1.85,3.75 q -1.3,2.65 -1.6,3.9 l -1,4.55 q -0.65,2.55 -3.25,6.8 4.7,-3.05 7.6,-4.2 2.3,-0.75 3.1,0.35 l 0.3,1 0.15,1.05 0.75,1.8 q 0.9,1.85 1.35,3.85 0.25,1.55 0.35,3.45 0.5,0.1 0.6,-0.4 v -0.8 l 0.15,-1.65 0.4,-1.7 0.15,-3.2 M 8.8,-29.8 q -1.7,1.3 -3.5,5 l -1.85,4.1 q -1.5,4.4 -0.75,8.75 0.95,-0.15 1.25,-2 0.3,-1.35 1.2,-3.15 l 1.5,-3.1 q 2.1,-4.6 2.15,-9.6"
         fill="#2c2c2c"
         fill-rule="evenodd"
         stroke="none"
         id="path6" />
    </g>
    <g
       id="sprite2"
       transform="translate(17.4,15.85)">
      <use
         ffdec:characterId="31"
         height="57.200001"
         transform="matrix(0.5366,0,0,0.5366,-16.6582,-14.546)"
         width="70.75"
         xlink:href="#sprite3"
         id="use6" />
    </g>
    <g
       id="sprite3"
       transform="translate(-8.65,-10.35)">
      <use
         ffdec:characterId="30"
         height="57.200001"
         transform="translate(8.65,10.35)"
         width="70.75"
         xlink:href="#shape1"
         id="use7" />
    </g>
    <g
       id="shape1"
       transform="translate(-8.65,-10.35)">
      <path
         d="m 14.8,41.7 q 0.65,-1.75 2.65,-2.5 1.8,-0.8 3.7,-0.25 1.15,0.45 2.25,1.2 l 0.9,0.4 q 1.65,0.9 2.85,2.5 L 37.8,30.1 q 2.35,-2.8 3.75,-3.95 1.5,-1.15 4.25,-2.4 18.2,-8.85 27.65,-12.6 2.15,-0.8 3.25,-0.8 h 0.8 l 1.9,2.4 -0.2,0.8 q -0.2,1.1 -1.55,3 -5.85,8.25 -18.85,23.8 -1.85,2.35 -3.35,3.5 -1.4,1.15 -4.75,2.75 l -15.15,7.15 q 1.2,1.6 1.75,3.4 l 0.2,1 0.55,2.5 q 0.1,1.95 -1.1,3.55 -1.2,1.65 -3.05,1.9 l -1.3,0.05 q -1.65,0.2 -3.45,-0.65 -1.85,-0.9 -3,-2.6 L 25,60.95 23.8,62.1 q -2.6,2.85 -4.3,3.95 -2.85,1.8 -5.5,1.45 l -1.65,-0.5 -1.2,-0.7 -0.2,-0.2 q -1,-0.85 -1.6,-1.9 L 9.25,64 9.15,63.8 8.75,62.4 q -0.2,-0.8 -0.05,-1.7 0.25,-2.65 2.7,-5.05 1.5,-1.3 4.9,-3.15 L 17.7,51.55 16.05,50 q -1.35,-1.5 -1.8,-3.6 -0.4,-1.85 0.25,-3.45 l 0.3,-1.25"
         fill="#000000"
         fill-opacity="0.372549"
         fill-rule="evenodd"
         stroke="none"
         id="path7" />
    </g>
  </defs>
</svg>
