<?xml version="1.0" encoding="UTF-8" standalone="no"?>
<svg
   ffdec:objectType="frame"
   height="64.246284"
   width="56.612373"
   version="1.1"
   id="svg5"
   xmlns:xlink="http://www.w3.org/1999/xlink"
   xmlns="http://www.w3.org/2000/svg"
   xmlns:svg="http://www.w3.org/2000/svg"
   xmlns:ffdec="https://www.free-decompiler.com/flash">
  <g
     transform="translate(20.616667,25.050163)"
     id="g1">
    <use
       ffdec:characterId="17"
       height="119.15"
       id="rarity"
       transform="translate(-58.5,-60.65)"
       width="119.15"
       xlink:href="#sprite0" />
    <use
       ffdec:characterId="978"
       height="64.25"
       transform="translate(-20.6,-25.05)"
       width="56.599998"
       xlink:href="#shape0"
       id="use1" />
  </g>
  <defs
     id="defs5">
    <g
       id="shape0"
       transform="translate(67.4,26.4)">
      <path
         d="m -61.1,-5.6 v 0.05 l 0.05,1.65 q 0.1,1.75 0.75,3.3 0.9,2.3 3,4 l 2.05,1.4 q 8.5,4.85 16.35,-0.9 7.8,-5.75 5.9,-14.95 -0.7,-3.55 -3.45,-6.05 l -0.75,-0.65 q -1.55,-1.2 -3.2,-1.9 l -2.75,-0.85 -0.85,-0.15 -4.9,0.15 q -11.65,3 -12.2,14.9 m 11.55,-20.6 q 15.3,-1.75 21.35,11.8 2.45,5.45 0.85,11.45 -1.75,6.4 -6.85,10.6 2.6,2.7 1.3,7.6 -0.55,2.15 -2.65,3.25 l -1.5,0.75 v 0.65 q 0.1,0.85 -0.2,1.7 0.05,3 1.2,5.65 1.35,3.2 4.6,5.05 9.7,1.95 14,-6.85 4.4,-9 -2.8,-16.65 L -22.3,6.05 q -5.1,-8.2 -1.1,-16.8 0.95,-2.05 3,-3 l 1.3,-0.3 q 6.9,0.2 7.45,7.1 0.3,4.15 -3.6,3.85 -1.45,-0.1 -1.7,-1.5 -0.15,-1 0.25,-1.95 v -0.2 l -0.45,-0.85 -1.15,-0.9 -0.35,0.25 -0.7,0.85 -0.45,0.85 q -0.2,9.25 6,16.55 1.05,1.2 1.65,2.8 3.65,9.65 -2.6,18.05 -7.1,9.5 -18.65,6.1 -1.25,-0.4 -2.35,-1.2 -5.5,-4 -5.65,-10.85 -0.5,-1.9 -0.3,-3.9 l 0.2,-1.1 q -3.1,-0.45 -5.2,-3.9 -0.85,-1.35 -0.45,-2.9 l 0.1,-0.3 -5.55,-0.6 q -9.95,-2.3 -13.75,-11.65 -1.2,-3 -1.05,-6.3 0.4,-9.8 8.1,-16.1 4.3,-3.55 9.75,-4.35 m 6.75,38.75 -0.05,0.4 v 0.25 l 0.1,0.2 0.15,0.2 0.2,0.25 0.15,0.1 0.7,0.25 0.65,0.35 q 1.7,0.05 3.05,-1 l 0.55,-0.65 v -0.2 l -0.05,-0.25 -0.05,-0.4 -0.15,-0.45 -0.05,-0.2 -1.3,-0.6 q -1.85,0.9 -3.8,1.45 l -0.1,0.3"
         fill="#000000"
         fill-rule="evenodd"
         stroke="none"
         id="path1" />
      <path
         d="M -61.05,-3.9 -61.1,-5.55 V -5.6 l 0.2,-0.5 13.45,-12.05 3.45,-2.5 0.85,0.15 0.25,0.15 0.2,0.2 0.05,0.25 v 0.5 l -0.05,0.25 q -3.5,3.65 -7.5,6.75 l -2,1.75 -0.6,0.15 q -3.45,2.35 -6.5,5.1 l -1,1 -0.75,0.5 m 0.75,3.3 q 0.1,-1.15 1.15,-2.15 5.95,-5.8 12.6,-10.85 l 6.1,-6.05 h 0.05 q 1.65,0.7 3.2,1.9 l 0.75,0.65 q -0.35,2.4 -3.05,4.4 l -1.45,1.2 q -7.35,6.45 -14.2,13.4 -1.2,1.25 -2.15,1.5 -2.1,-1.7 -3,-4"
         fill="#ffffff"
         fill-rule="evenodd"
         stroke="none"
         id="path2" />
      <path
         d="m -42.8,12.55 0.1,-0.3 q 1.95,-0.55 3.8,-1.45 l 1.3,0.6 0.05,0.2 0.15,0.45 0.05,0.4 0.05,0.25 v 0.2 l -0.55,0.65 q -1.35,1.05 -3.05,1 l -0.65,-0.35 -0.7,-0.25 -0.15,-0.1 -0.2,-0.25 -0.15,-0.2 -0.1,-0.2 v -0.25 l 0.05,-0.4"
         fill="#ababab"
         fill-rule="evenodd"
         stroke="none"
         id="path3" />
      <path
         d="m -61.05,-3.9 0.75,-0.5 1,-1 q 3.05,-2.75 6.5,-5.1 l 0.6,-0.15 2,-1.75 q 4,-3.1 7.5,-6.75 l 0.05,-0.25 v -0.5 l -0.05,-0.25 -0.2,-0.2 -0.25,-0.15 2.75,0.85 h -0.05 l -6.1,6.05 q -6.65,5.05 -12.6,10.85 -1.05,1 -1.15,2.15 -0.65,-1.55 -0.75,-3.3 m 17.05,-16.75 -3.45,2.5 -13.45,12.05 -0.2,0.5 q 0.55,-11.9 12.2,-14.9 l 4.9,-0.15 M -57.3,3.4 q 0.95,-0.25 2.15,-1.5 6.85,-6.95 14.2,-13.4 l 1.45,-1.2 q 2.7,-2 3.05,-4.4 2.75,2.5 3.45,6.05 1.9,9.2 -5.9,14.95 -7.85,5.75 -16.35,0.9 L -57.3,3.4"
         fill="#ffffff"
         fill-opacity="0"
         fill-rule="evenodd"
         stroke="none"
         id="path4" />
    </g>
    <g
       id="sprite1"
       transform="translate(17.4,15.85)">
      <use
         ffdec:characterId="31"
         height="57.200001"
         transform="matrix(0.5366,0,0,0.5366,-16.6582,-14.546)"
         width="70.75"
         xlink:href="#sprite2"
         id="use4" />
    </g>
    <g
       id="sprite2"
       transform="translate(-8.65,-10.35)">
      <use
         ffdec:characterId="30"
         height="57.200001"
         transform="translate(8.65,10.35)"
         width="70.75"
         xlink:href="#shape1"
         id="use5" />
    </g>
    <g
       id="shape1"
       transform="translate(-8.65,-10.35)">
      <path
         d="m 14.8,41.7 q 0.65,-1.75 2.65,-2.5 1.8,-0.8 3.7,-0.25 1.15,0.45 2.25,1.2 l 0.9,0.4 q 1.65,0.9 2.85,2.5 L 37.8,30.1 q 2.35,-2.8 3.75,-3.95 1.5,-1.15 4.25,-2.4 18.2,-8.85 27.65,-12.6 2.15,-0.8 3.25,-0.8 h 0.8 l 1.9,2.4 -0.2,0.8 q -0.2,1.1 -1.55,3 -5.85,8.25 -18.85,23.8 -1.85,2.35 -3.35,3.5 -1.4,1.15 -4.75,2.75 l -15.15,7.15 q 1.2,1.6 1.75,3.4 l 0.2,1 0.55,2.5 q 0.1,1.95 -1.1,3.55 -1.2,1.65 -3.05,1.9 l -1.3,0.05 q -1.65,0.2 -3.45,-0.65 -1.85,-0.9 -3,-2.6 L 25,60.95 23.8,62.1 q -2.6,2.85 -4.3,3.95 -2.85,1.8 -5.5,1.45 l -1.65,-0.5 -1.2,-0.7 -0.2,-0.2 q -1,-0.85 -1.6,-1.9 L 9.25,64 9.15,63.8 8.75,62.4 q -0.2,-0.8 -0.05,-1.7 0.25,-2.65 2.7,-5.05 1.5,-1.3 4.9,-3.15 L 17.7,51.55 16.05,50 q -1.35,-1.5 -1.8,-3.6 -0.4,-1.85 0.25,-3.45 l 0.3,-1.25"
         fill="#000000"
         fill-opacity="0.372549"
         fill-rule="evenodd"
         stroke="none"
         id="path5" />
    </g>
  </defs>
</svg>
