<?xml version="1.0" encoding="UTF-8" standalone="no"?>
<svg
   ffdec:objectType="frame"
   height="69.788887"
   width="69.048843"
   version="1.1"
   id="svg6"
   sodipodi:docname="ITEM Frontal Lobe Implant.svg"
   xmlns:inkscape="http://www.inkscape.org/namespaces/inkscape"
   xmlns:sodipodi="http://sodipodi.sourceforge.net/DTD/sodipodi-0.dtd"
   xmlns:xlink="http://www.w3.org/1999/xlink"
   xmlns="http://www.w3.org/2000/svg"
   xmlns:svg="http://www.w3.org/2000/svg"
   xmlns:ffdec="https://www.free-decompiler.com/flash">
  <sodipodi:namedview
     id="namedview6"
     pagecolor="#ffffff"
     bordercolor="#000000"
     borderopacity="0.25"
     inkscape:showpageshadow="2"
     inkscape:pageopacity="0.0"
     inkscape:pagecheckerboard="0"
     inkscape:deskcolor="#d1d1d1"
     fit-margin-top="5"
     fit-margin-left="5"
     fit-margin-right="5"
     fit-margin-bottom="5" />
  <g
     transform="translate(34.695985,36)"
     id="g1">
    <use
       ffdec:characterId="17"
       height="119.15"
       id="rarity"
       transform="translate(-58.5,-60.65)"
       width="119.15"
       xlink:href="#sprite0" />
    <use
       ffdec:characterId="1152"
       height="69.800003"
       transform="translate(-34.7,-36)"
       width="69.050003"
       xlink:href="#shape0"
       id="use1" />
  </g>
  <defs
     id="defs6">
    <g
       id="shape0"
       transform="translate(33.4,34.1)">
      <path
         d="m 28.45,-20.9 q -2.4,-3.65 -6.95,-5.4 l -0.4,-0.15 -0.7,-0.4 Q 17.55,-27.8 14.45,-28 l -0.5,-0.05 -2.2,0.5 q -1.6,0.5 -3.05,1.5 l -1.3,1.2 4.3,0.65 q 3.25,0.75 6.15,2.35 2.5,1.4 4.8,3.4 l 0.2,0.2 1.4,1.35 1.2,1.25 5.15,6.25 0.05,-0.05 0.05,-0.15 0.05,-0.3 0.05,-0.2 0.1,-0.3 q 0.25,-3.85 -1,-7.45 l -1.2,-2.55 -0.25,-0.5 m -14.9,-13.2 q 10.3,0.4 17.4,7.8 4.55,4.7 4.7,11.25 0.1,5.5 -3.3,9.65 l 0.1,0.85 0.4,1.45 0.25,1.15 v 0.65 q 0.45,1.9 0.45,3.9 L 33.5,8.15 q 0,1.7 -0.4,3.3 -0.4,5.25 -3.95,9.4 -8,9.45 -20.1,13.15 -12.25,3.8 -24.2,-0.95 -8.15,-3.2 -13.25,-10.1 -5.85,-7.9 -4.85,-17.7 L -32.7,1.3 q 0.95,-4.75 3.05,-9.15 1.8,-3.7 4.7,-6.65 8.25,-8.45 19.95,-11.25 l 5.75,-0.4 q 1.4,-3.05 4.15,-5 3.9,-2.75 8.65,-2.95 M -6.1,25.45 -5.7,22.4 q 0.2,-1.7 0.9,-3.2 -4.55,-0.7 -7.95,-4.25 -5.1,-4.95 -3.2,-11.7 1.2,-4.15 4,-7.6 4.85,-5.85 12.45,-6.05 9.25,-0.35 13.4,7.85 1.25,2.55 1.45,5.4 l 1.4,-0.35 6.8,0.4 2,0.75 Q 26.8,4.2 27.95,5 L 27.9,3 27.8,0.55 27.6,-0.65 26.25,-4.95 Q 24.7,-8.6 21.8,-11.45 l -0.7,-0.9 -2.25,-1.9 q -7.5,-6 -14.9,-5.6 l -6.8,0.5 q -3.8,0.8 -7.15,2.3 -5.55,2.4 -10.1,6.7 -3.2,3 -4.6,6.95 l -0.4,1.15 q -1.1,4 -1.85,8.05 -0.45,3.3 0.25,6.35 0.5,2.3 1.65,4.45 l 2.25,3.25 q 5.9,6.55 14.7,8.7 L -5.8,29 q -0.35,-1.75 -0.3,-3.55 m -12,-27.5 q 0,0.8 -0.65,1.9 -0.75,1.35 -2.3,0.95 -2.45,-0.7 -2.05,-2.75 l 0.25,-0.85 q 0.65,-1.55 2.25,-1.6 2.5,0.65 2.5,2.35 M 1,-4.8 q -6.55,0.25 -9.8,5.85 l -1.55,3.25 -0.05,0.65 -0.05,0.35 -0.1,0.3 -0.2,0.5 q 1.45,7.05 8.85,7.05 7.55,0 10.65,-6.7 Q 11.05,1.5 7.3,-2.5 4.8,-5.15 1,-4.8 m -4.45,30.3 q 0.15,2 0.8,3.9 7,0.5 13.55,-2.15 l 6.05,-3.1 Q 20.6,21.8 23.6,18.6 l 0.85,-0.95 q 2.25,-2.6 3.1,-5.85 L 27.7,9.6 27.85,7.55 V 7.4 L 25.7,6.1 23.9,5.5 23.45,5.4 22.5,5.05 Q 18.8,4.4 15.45,5.9 L 15.1,6.05 Q 14.7,7.65 13.85,9.1 12.7,11.55 11.05,13.45 7.4,17.6 1.4,18.9 l -1.25,0.2 -2.4,0.25 -0.55,1.5 -0.6,1.25 -0.05,3.4 m -9.8,-38.85 q 3.8,1.1 1.75,4.3 -0.75,1.2 -2.2,0.8 -2.95,-0.85 -1.7,-3.6 0.65,-1.45 2.15,-1.5 M -22.4,6.4 q 3.65,1 1.65,4.1 -0.75,1.2 -2.05,0.75 -3.1,-1 -1.5,-3.7 0.7,-1.1 1.9,-1.15"
         fill="#000000"
         fill-rule="evenodd"
         stroke="none"
         id="path1" />
      <path
         d="m 21.1,-26.45 -0.4,1.9 q -0.75,2.2 -2.85,2.7 -2.9,-1.6 -6.15,-2.35 -0.3,-0.75 -0.35,-1.75 -0.05,-0.9 0.4,-1.6 l 2.2,-0.5 0.5,0.05 q 3.1,0.2 5.95,1.15 l 0.7,0.4 m -31.1,9.4 q 3.7,0.95 2.15,4.85 -3,7.45 -10.25,10.15 0,-1.7 -2.5,-2.35 -1.6,0.05 -2.25,1.6 l -0.25,0.85 -1.1,-0.85 -0.5,-0.6 q 1.4,-3.95 4.6,-6.95 4.55,-4.3 10.1,-6.7 M 1.4,18.9 q 6,-1.3 9.65,-5.45 2.9,0.95 2.35,4.5 -0.25,1.4 -1.35,2.45 Q 7.1,24.9 1,23.2 0.35,23.05 0.35,22.35 0.4,20.45 1.4,18.9 m -14.65,-32.25 q -1.5,0.05 -2.15,1.5 -1.25,2.75 1.7,3.6 1.45,0.4 2.2,-0.8 2.05,-3.2 -1.75,-4.3"
         fill="#ffffff"
         fill-rule="evenodd"
         stroke="none"
         id="path2" />
      <path
         d="m 21.1,-26.45 0.4,0.15 q 4.55,1.75 6.95,5.4 l -0.05,0.05 -0.1,0.15 -0.1,0.15 -0.1,0.1 -0.6,0.2 -0.95,0.75 q -1.85,1 -3.9,1.05 -2.3,-2 -4.8,-3.4 2.1,-0.5 2.85,-2.7 l 0.4,-1.9 m -9.35,-1.1 q -0.45,0.7 -0.4,1.6 0.05,1 0.35,1.75 l -4.3,-0.65 1.3,-1.2 q 1.45,-1 3.05,-1.5 M 23.55,2.9 16.75,2.5 15.35,2.85 Q 15.15,0 13.9,-2.55 9.75,-10.75 0.5,-10.4 q -7.6,0.2 -12.45,6.05 -2.8,3.45 -4,7.6 -1.9,6.75 3.2,11.7 3.4,3.55 7.95,4.25 -0.7,1.5 -0.9,3.2 l -0.4,3.05 H -6.35 L -6.9,25.25 -10.05,24.4 Q -16.1,22.25 -21.85,19 l -0.1,-0.1 -0.15,-0.15 -0.15,-0.2 -0.3,-0.3 -0.1,-0.35 -0.35,-0.6 -0.45,-0.7 q -0.6,-1.6 -1.9,-2.9 L -26.7,12.15 Q -27.4,9.1 -26.95,5.8 -26.2,1.75 -25.1,-2.25 l 0.4,-1.15 0.5,0.6 1.1,0.85 q -0.4,2.05 2.05,2.75 1.55,0.4 2.3,-0.95 0.65,-1.1 0.65,-1.9 7.25,-2.7 10.25,-10.15 1.55,-3.9 -2.15,-4.85 3.35,-1.5 7.15,-2.3 l 6.8,-0.5 q 7.4,-0.4 14.9,5.6 -0.2,0.8 0.15,1.65 l 0.65,1.25 q 0.4,1.5 1.05,2.9 l 1.55,3.65 0.85,3.3 q 0.45,2.25 0.45,4.4 m -0.1,2.5 q -0.8,6.85 -6.4,12.35 L 13.8,20.3 q -7.95,4.95 -17.25,5.2 l 0.05,-3.4 0.6,-1.25 0.55,-1.5 2.4,-0.25 1.25,-0.2 q -1,1.55 -1.05,3.45 0,0.7 0.65,0.85 6.1,1.7 11.05,-2.8 1.1,-1.05 1.35,-2.45 0.55,-3.55 -2.35,-4.5 1.65,-1.9 2.8,-4.35 Q 14.7,7.65 15.1,6.05 L 15.45,5.9 Q 18.8,4.4 22.5,5.05 l 0.95,0.35 m -45.85,1 q -1.2,0.05 -1.9,1.15 -1.6,2.7 1.5,3.7 1.3,0.45 2.05,-0.75 2,-3.1 -1.65,-4.1"
         fill="#aaaaaa"
         fill-rule="evenodd"
         stroke="none"
         id="path3" />
      <path
         d="m 22.65,-18.45 q 2.05,-0.05 3.9,-1.05 l 0.95,-0.75 0.6,-0.2 0.1,-0.1 0.1,-0.15 0.1,-0.15 0.05,-0.05 0.25,0.5 1.2,2.55 q 1.25,3.6 1,7.45 l -0.1,0.3 -0.05,0.2 -0.05,0.3 -0.05,0.15 -0.05,0.05 -5.15,-6.25 -1.2,-1.25 -1.4,-1.35 -0.2,-0.2 m 0.9,21.35 q 0,-2.15 -0.45,-4.4 L 22.25,-4.8 20.7,-8.45 q -0.65,-1.4 -1.05,-2.9 L 19,-12.6 q -0.35,-0.85 -0.15,-1.65 l 2.25,1.9 0.7,0.9 q 2.9,2.85 4.45,6.5 l 1.35,4.3 0.2,1.2 0.1,2.45 0.05,2 Q 26.8,4.2 25.55,3.65 l -2,-0.75 m -50.25,9.25 1.35,1.55 q 1.3,1.3 1.9,2.9 l 0.45,0.7 0.35,0.6 0.1,0.35 0.3,0.3 0.15,0.2 0.15,0.15 0.1,0.1 q 5.75,3.25 11.8,5.4 l 3.15,0.85 0.55,0.2 h 0.25 q -0.05,1.8 0.3,3.55 l -2.3,-0.45 q -8.8,-2.15 -14.7,-8.7 L -25.05,16.6 Q -26.2,14.45 -26.7,12.15 M 23.45,5.4 23.9,5.5 25.7,6.1 27.85,7.4 V 7.55 L 27.7,9.6 27.55,11.8 q -0.85,3.25 -3.1,5.85 L 23.6,18.6 q -3,3.2 -6.65,5.55 l -6.05,3.1 Q 4.35,29.9 -2.65,29.4 -3.3,27.5 -3.45,25.5 5.85,25.25 13.8,20.3 l 3.25,-2.55 q 5.6,-5.5 6.4,-12.35"
         fill="#838383"
         fill-rule="evenodd"
         stroke="none"
         id="path4" />
      <path
         d="m 1,-4.8 q 3.8,-0.35 6.3,2.3 3.75,4 1.45,8.95 -3.1,6.7 -10.65,6.7 -7.4,0 -8.85,-7.05 l 0.2,-0.5 0.1,-0.3 0.05,-0.35 0.05,-0.65 1.55,-3.25 Q -5.55,-4.55 1,-4.8"
         fill="#a65b5b"
         fill-rule="evenodd"
         stroke="none"
         id="path5" />
    </g>
    <g
       id="sprite1"
       transform="translate(17.4,15.85)">
      <use
         ffdec:characterId="31"
         height="57.200001"
         transform="matrix(0.5366,0,0,0.5366,-16.6582,-14.546)"
         width="70.75"
         xlink:href="#sprite2"
         id="use5" />
    </g>
    <g
       id="sprite2"
       transform="translate(-8.65,-10.35)">
      <use
         ffdec:characterId="30"
         height="57.200001"
         transform="translate(8.65,10.35)"
         width="70.75"
         xlink:href="#shape1"
         id="use6" />
    </g>
    <g
       id="shape1"
       transform="translate(-8.65,-10.35)">
      <path
         d="m 14.8,41.7 q 0.65,-1.75 2.65,-2.5 1.8,-0.8 3.7,-0.25 1.15,0.45 2.25,1.2 l 0.9,0.4 q 1.65,0.9 2.85,2.5 L 37.8,30.1 q 2.35,-2.8 3.75,-3.95 1.5,-1.15 4.25,-2.4 18.2,-8.85 27.65,-12.6 2.15,-0.8 3.25,-0.8 h 0.8 l 1.9,2.4 -0.2,0.8 q -0.2,1.1 -1.55,3 -5.85,8.25 -18.85,23.8 -1.85,2.35 -3.35,3.5 -1.4,1.15 -4.75,2.75 l -15.15,7.15 q 1.2,1.6 1.75,3.4 l 0.2,1 0.55,2.5 q 0.1,1.95 -1.1,3.55 -1.2,1.65 -3.05,1.9 l -1.3,0.05 q -1.65,0.2 -3.45,-0.65 -1.85,-0.9 -3,-2.6 L 25,60.95 23.8,62.1 q -2.6,2.85 -4.3,3.95 -2.85,1.8 -5.5,1.45 l -1.65,-0.5 -1.2,-0.7 -0.2,-0.2 q -1,-0.85 -1.6,-1.9 L 9.25,64 9.15,63.8 8.75,62.4 q -0.2,-0.8 -0.05,-1.7 0.25,-2.65 2.7,-5.05 1.5,-1.3 4.9,-3.15 L 17.7,51.55 16.05,50 q -1.35,-1.5 -1.8,-3.6 -0.4,-1.85 0.25,-3.45 l 0.3,-1.25"
         fill="#000000"
         fill-opacity="0.372549"
         fill-rule="evenodd"
         stroke="none"
         id="path6" />
    </g>
  </defs>
</svg>
