<?xml version="1.0" encoding="UTF-8" standalone="no"?>
<svg
   ffdec:objectType="frame"
   height="92.960793"
   width="91.214287"
   version="1.1"
   id="svg6"
   xmlns:xlink="http://www.w3.org/1999/xlink"
   xmlns="http://www.w3.org/2000/svg"
   xmlns:svg="http://www.w3.org/2000/svg"
   xmlns:ffdec="https://www.free-decompiler.com/flash">
  <g
     transform="translate(45.957143,47.704545)"
     id="g1">
    <use
       ffdec:characterId="17"
       height="119.15"
       id="rarity"
       transform="translate(-58.5,-60.65)"
       width="119.15"
       xlink:href="#sprite0" />
    <use
       ffdec:characterId="907"
       height="92.949997"
       transform="translate(-45.95,-47.7)"
       width="91.199997"
       xlink:href="#shape0"
       id="use1" />
  </g>
  <defs
     id="defs6">
    <g
       id="shape0"
       transform="translate(46.5,48.45)">
      <path
         d="m 33.45,-13.85 0.45,-0.95 2.15,-4.4 0.35,-0.8 q 2.15,-5.05 1.7,-8.15 l -0.95,-3.2 q -0.8,0.4 -1.6,0.3 -1.7,-0.15 -2.4,-1.8 -0.3,-0.75 -0.15,-1.55 0.15,-0.85 0.65,-1.4 l 0.9,-0.7 -0.55,-0.85 -0.6,-0.85 -1.75,-1.7 -0.4,-0.25 -0.2,-0.15 -0.05,0.5 v 0.15 l -0.4,2.65 -0.4,1.8 -0.55,1.75 -0.55,1.55 -1,2.35 -2.3,4.7 -0.45,0.85 -2.45,4.35 -0.3,0.5 -0.8,1.3 -0.75,1.25 -0.2,0.25 -3.85,5.45 -3.55,4.3 -0.65,0.7 -1.15,1.35 -3,3.45 L 6.6,1.15 6.05,1.75 3.7,4.3 3.2,4.8 1.75,6.25 4.25,8.6 4.7,9 l 3.1,2.7 0.3,0.25 2.05,1.7 0.25,0.25 0.85,0.7 1.15,-1 0.55,-0.55 2.4,-2.3 L 15.4,10.7 16.8,9.3 17.05,9 19.5,6.25 19.65,6.1 19.75,6 l 2.5,-3 5.45,-6.8 0.85,-1.25 0.65,-1.05 1.8,-3.25 0.25,-0.45 0.05,-0.05 0.65,-1.2 0.6,-1.15 0.9,-1.65 m 6.65,-3.5 Q 34.75,-5.75 27.4,3.8 l 6.7,6.65 2.35,2.5 q 1.2,1.35 2.6,3.45 1.4,2.1 2.05,3.9 0.8,1.25 1.4,2.85 l 0.65,1.4 0.4,1 0.45,2.1 q 0.6,0.75 0.7,1.7 0.1,1.7 -1.2,4.05 -3.3,5.95 -9.05,9.5 -2.1,1.35 -3.75,1.55 -2.05,0.3 -5.5,-1 -15.05,-5.6 -27.3,-13.5 -11.3,6.95 -24.9,12 -3.45,1.3 -5.5,1 -1.65,-0.2 -3.75,-1.55 -5.75,-3.55 -9.05,-9.5 -1.3,-2.35 -1.2,-4.05 0.1,-0.95 1.15,-3.8 l 0.35,-0.9 0.9,-2.25 1.65,-3.2 q 1.2,-1.95 4.5,-5.15 5.4,-5.2 8.55,-7.55 -7.25,-9.45 -12.5,-20.85 -1.8,-3.85 -2.25,-6.45 -0.95,-5.35 1.6,-11 2.15,-4.7 6.5,-9.15 2.4,-2.5 4.2,-3.4 2.55,-1.35 5.55,-1.05 1.2,0.15 2.1,0.7 l 2.95,1.8 2.3,0.95 q 5.15,2.5 7.35,4 l 3.95,3.1 9.1,7.9 0.25,-0.4 q 2.95,-4.2 7.75,-9.35 l 3.2,-3.15 3.15,-2.35 q 3.45,-2.4 2.95,-2.25 l 3.65,-1.75 q 0.9,-0.55 2.1,-0.7 3,-0.3 5.55,1.05 1.8,0.9 4.2,3.4 4.35,4.45 6.5,9.15 2.55,5.65 1.6,11 -0.45,2.6 -2.25,6.45 M 26.55,-40.2 q 0,-1.15 -0.35,-2.05 l -0.85,-1.2 -0.45,-0.25 -1.1,-0.15 h -0.9 q -1.05,0.4 -2.2,1.05 l -0.15,0.1 q -1.85,1.1 -4.1,2.85 l -1.6,1.35 -2.7,2.9 q -4.45,5.45 -6.1,7.9 l -0.25,0.35 -1.25,1.65 -0.05,0.1 1.15,1.1 0.45,0.45 0.5,0.5 0.9,0.9 0.45,0.4 1.15,1.25 0.55,0.55 0.4,0.4 0.2,-0.35 0.2,-0.3 0.2,-0.3 1.55,-1.9 0.65,-0.8 0.45,-0.55 1,-1.1 0.8,-0.9 0.2,-0.2 0.75,-0.8 2.3,-2.3 3.65,-3.35 1.95,-1.55 1.35,-0.75 0.15,-0.4 q 1.05,-2.65 1.1,-4.6 m 3.05,18.3 q -0.3,-0.55 -0.3,-1.15 -0.05,-0.65 0.2,-1.35 l 0.85,-1 0.45,-0.35 1.9,-0.3 q 0.95,0.2 1.6,0.95 0.65,0.8 0.7,1.75 0.05,1 -0.55,1.8 l -0.55,0.65 q -0.45,0.3 -1,0.45 L 31,-20.65 30.35,-21 29.6,-21.9 m -15.75,6.15 0.4,0.5 q 4.85,-6.5 8.4,-13.8 l -2.65,2.7 q -4.85,5.15 -6.55,7.9 l -0.85,1.25 1.25,1.45 m -3.85,5.8 0.45,-0.5 0.95,-1.15 0.45,-0.6 q -0.5,-0.4 -1.05,-1.15 l -1.7,-2 -0.85,-0.9 -3.35,-3.5 -0.2,-0.25 -2,-1.9 -0.8,-0.8 -0.65,-0.6 -1.3,-1.2 -1.15,-1.05 -0.2,-0.15 -0.95,-0.85 -0.7,-0.65 -3.45,-3.05 -0.45,-0.35 -0.8,-0.7 -2.4,-2.1 -0.85,-0.7 -0.15,-0.05 -0.15,-0.15 -2.15,-1.6 -0.35,-0.25 -0.1,-0.05 -0.55,-0.4 -3.15,-1.9 -2.75,-1.5 -0.2,-0.1 -0.35,-0.15 q -2.5,-1.3 -4.35,-1.8 l -1.05,-0.25 -0.4,0.1 -1.05,0.95 -0.1,0.15 -0.15,0.35 q -0.55,1.5 -0.15,3.6 l 0.2,0.9 0.7,2.15 0.85,2.05 0.05,0.1 0.7,0.2 0.75,0.25 1.35,0.65 1.05,0.6 0.75,0.5 3.65,2.85 1.7,1.5 1.4,1.2 0.3,0.3 1.7,1.5 2.45,2.25 0.05,0.05 0.15,0.1 0.4,0.35 1.15,1.1 0.5,0.45 0.85,0.85 0.55,0.45 1.05,1.05 1.05,1 0.1,0.1 1.3,1.25 1.65,1.65 0.2,0.2 1.6,1.65 0.15,0.15 0.05,0.05 0.7,0.75 0.15,0.15 0.1,0.1 1,1.1 h 0.05 l 0.3,0.4 1.4,1.5 0.35,0.4 0.8,1 1.75,-2 L 7.4,-6.9 7.55,-7.1 8.8,-8.55 10,-9.95 M -1.6,2.95 2.6,-1.5 1.95,-2.3 l -1.8,-2.2 -1.7,1.35 -1.15,1 -2,1.8 3.1,3.3 m 23.9,-3.5 Q 21.6,0.9 20.25,1.2 l -0.4,0.1 Q 18.55,1.45 17.4,0.4 L 17.25,0.25 Q 16.75,-0.4 16.6,-1.2 L 16.55,-1.85 16.85,-3 q 0.35,-0.85 1.2,-1.35 0.6,-0.3 1.25,-0.4 h 0.5 q 0.95,0.05 1.7,0.65 l 0.95,1.55 0.1,0.4 0.05,0.6 -0.3,1 m 2.6,-14.05 1.5,-0.45 0.45,0.05 q 1.2,0.15 1.95,1.2 0.8,1.3 0.35,2.7 L 29.1,-11 q -0.3,0.85 -0.95,1.35 L 27.2,-9.2 q -1.7,0.5 -2.95,-0.75 -1.2,-1.3 -0.7,-3 0.3,-0.9 1.1,-1.5 L 24.9,-14.6 M 32.5,14.45 31.5,13.3 31,12.8 25.95,7.4 25.75,7.15 25.2,6.5 24.9,6.9 24.5,7.4 24.15,7.8 22.7,9.4 l -1.55,1.75 -0.1,0.1 -1.2,1.25 3.3,3.25 0.05,0.05 0.85,0.9 0.45,0.5 0.15,0.15 0.2,0.2 0.65,0.8 0.15,0.15 1.25,1.5 0.9,1.2 1.2,1.7 0.55,0.85 0.1,0.15 0.8,1.35 0.45,0.9 0.1,0.2 0.1,0.15 0.2,0.4 0.35,0.95 v 0.05 l 0.05,0.05 0.15,0.05 1.45,0.65 0.8,0.35 1.2,0.45 2.2,0.5 0.95,-0.15 0.95,-0.95 0.1,-1.1 -0.15,-1.15 v -0.75 l -0.1,-0.3 -0.9,-2.4 -0.25,-0.5 -0.55,-0.7 -0.25,-0.35 -1.15,-2 -0.2,-0.35 L 35.6,18.6 33.95,16.25 33.65,15.9 32.5,14.45 M 11,4.25 q 0.65,0.05 1.2,0.35 l 0.55,0.35 q 0.8,0.6 1.05,1.55 l 0.1,0.6 -0.25,1.3 q -0.4,0.95 -1.2,1.45 L 11.1,10.3 10.65,10.25 10.05,10.15 9.3,9.85 8.95,9.6 Q 8.25,9 8,8.05 7.8,7.35 7.9,6.75 L 7.95,6.65 8.05,6.2 Q 8.4,5.35 9.25,4.8 10.05,4.2 11,4.25 M 11.4,20.4 11.35,20.35 9.8,19.15 7.8,17.55 5.9,16 3.85,14.35 1.4,12.3 0.8,11.8 0.35,11.4 -1.5,9.7 -1.65,9.55 -1.7,9.5 -2.1,9.15 -2.7,8.55 -2.95,8.35 -3.85,7.4 -4.45,6.8 -5.05,6.2 -5.1,6.15 -8.25,2.8 -8.8,2.15 -9.3,1.6 l -0.8,-0.85 -1.3,-1.45 -0.3,-0.35 -1.05,-1.2 -1.15,-1.35 -0.7,-0.8 -1.25,-1.45 -2.4,-2.85 -0.55,-0.7 -1.35,-1.8 -2.35,-3.45 -2.15,-3.5 -1.25,-2.1 -1.25,-2.25 -1.9,-3.75 -0.55,-1.15 -0.55,-1.15 v -0.05 l -0.3,-0.75 -0.25,-0.55 -0.15,-0.4 -0.05,-0.1 -0.1,-0.3 -0.1,-0.3 -0.15,-0.4 -0.2,-0.55 -0.5,-1.75 -0.1,-0.35 -0.05,-0.25 -0.2,-0.7 -0.05,-0.25 -0.4,-2.6 -0.1,-0.95 -1.55,1.3 -1.4,1.65 -0.1,0.2 -0.85,1.4 -0.85,1.6 -0.3,0.5 -0.1,0.2 -1.5,3.65 -0.4,1.6 v 0.05 l -0.05,1.85 q 0.1,1.7 0.8,3.85 l 0.05,0.1 0.85,2.25 0.05,0.1 0.2,0.4 0.15,0.4 0.5,1 0.45,0.95 0.45,0.85 0.5,1.05 0.45,0.9 1,1.95 0.5,0.9 0.4,0.75 0.4,0.8 0.4,0.7 1.8,3.25 1.75,2.6 2,2.6 0.05,0.1 2.35,2.9 0.15,0.15 0.15,0.15 0.45,0.55 0.05,0.05 2.7,3.2 0.1,0.1 0.2,0.25 0.4,0.4 0.35,0.45 0.6,0.65 1.1,1.2 1.4,1.45 2.4,2.3 0.8,0.75 0.2,0.15 v 0.05 l 0.95,0.8 1.45,1.25 0.85,0.7 0.4,0.35 1.2,0.95 0.45,0.4 1.05,0.8 0.55,0.4 1.55,1.2 0.3,0.2 0.45,0.35 2.6,1.85 0.1,0.1 0.45,0.3 1,0.65 2.45,1.6 0.5,0.3 0.8,0.5 5.65,3.25 0.6,0.3 3.4,1.75 2.7,1.25 0.65,0.3 0.8,0.35 1.9,0.85 4.8,1.9 2.75,0.95 1.65,0.45 2.1,0.1 0.75,-0.25 h -0.6 l -0.5,-0.1 -0.45,-0.15 -0.6,-0.4 q -0.65,-0.55 -0.9,-1.45 -0.2,-0.9 0.15,-1.75 0.4,-0.8 1.2,-1.25 0.8,-0.45 1.65,-0.4 0.85,0.1 1.55,0.7 l 0.6,0.8 0.25,0.65 q 0.2,0.85 -0.15,1.7 l -0.35,0.65 0.4,-0.3 3.9,-3.45 0.45,-0.6 -0.6,-0.1 -4.35,-1.3 -1,-0.35 Q 27,30.5 22.2,27.7 L 20.85,26.9 19.7,26.2 11.5,20.45 11.4,20.4 m -45.6,-47.3 0.3,0.05 0.4,0.1 h 0.1 l 0.2,0.1 0.35,0.1 0.1,0.05 q 0.7,0.4 1.15,1.15 0.4,0.6 0.5,1.25 l 0.05,0.1 q 0.05,0.45 -0.05,0.95 l -0.3,0.9 -0.05,0.05 -0.2,0.3 -0.7,0.7 -0.15,0.15 -0.95,0.5 -0.7,0.1 h -0.4 -0.3 l -0.45,-0.1 -0.3,-0.15 -0.1,-0.05 -0.25,-0.1 -0.55,-0.45 -0.15,-0.15 -0.55,-0.75 -0.4,-1.4 0.15,-1.05 0.05,-0.05 0.3,-0.75 1,-1 0.4,-0.25 0.55,-0.15 0.5,-0.1 0.4,-0.05 h 0.05 m 35.8,50.2 -0.5,0.05 -1.25,-0.3 q -0.95,-0.4 -1.5,-1.25 l -0.4,-0.9 -0.05,-1.35 q 0.2,-1.25 1.1,-2 0.75,-0.65 1.8,-0.7 1.05,-0.1 1.9,0.35 l 0.5,0.35 0.8,1.1 q 0.45,0.9 0.3,1.9 -0.15,1 -0.85,1.75 -0.75,0.75 -1.7,0.95 L 1.6,23.3 m -24.1,-30.95 -0.15,0.55 -0.2,0.5 -0.7,1 -0.15,0.1 -0.2,0.15 -0.25,0.2 -0.25,0.1 -1.05,0.3 -1.05,-0.05 h -0.15 q -0.35,-0.1 -0.7,-0.3 -0.95,-0.5 -1.4,-1.55 -0.4,-1 -0.25,-1.9 V -8.7 l 0.3,-0.7 0.3,-0.55 0.35,-0.35 0.05,-0.1 0.1,-0.05 v -0.05 l 0.5,-0.3 q 0.65,-0.4 1.4,-0.45 h 0.25 l 0.5,0.05 0.4,0.1 0.75,0.3 0.15,0.1 q 0.9,0.65 1.25,1.65 l 0.1,0.2 0.1,1.2 m 41.35,28.1 q 3.95,2.75 7.8,4.95 l -3.15,-4.25 -3.3,-3.95 -2.3,-2.75 -3.15,2.95 4.1,3.05 m -4.2,11.35 q -1.4,-0.9 -1.25,-2.65 0.1,-1.25 1.15,-2 1.1,-0.75 2.35,-0.45 0.8,0.2 1.35,0.85 l 0.65,0.95 0.1,0.45 q 0.15,0.8 -0.2,1.6 -0.35,0.8 -1.05,1.25 v 0.05 q -0.65,0.4 -1.55,0.4 L 14.65,31.8 m -20.4,-42.65 -0.9,-0.85 -0.7,-0.7 -0.05,-0.05 -0.7,0.6 -1.65,1.4 -1.35,1.3 -0.65,0.7 0.35,0.4 0.5,0.65 0.7,0.8 0.55,0.65 0.3,0.35 0.55,0.6 1.75,2 1.6,-1.3 2.2,-1.5 1.35,-1 -1.95,-2.1 -0.95,-0.95 -0.6,-0.6 -0.35,-0.4 m -8.95,-1.15 0.7,0.85 0.2,-0.3 1.35,-1.25 2.65,-2 -7.7,-7 -6.9,-5.9 q 4,8.3 9.7,15.6 m -1.5,21.45 q -0.5,-0.85 -0.5,-1.7 0,-1.25 0.85,-2.2 l 0.75,-0.6 h 0.05 l 0.7,-0.3 0.25,-0.1 0.5,-0.05 1.5,0.25 q 0.95,0.4 1.5,1.35 l 0.4,0.95 0.05,1 q -0.1,1 -0.8,1.85 l -0.1,0.1 -0.2,0.2 q -0.65,0.6 -1.4,0.75 l -2,-0.2 Q -15.5,10.4 -16,9.75 l -0.2,-0.3 m 8.75,18.1 -4.9,-5.05 -2.4,-2.05 -0.25,-0.2 -1.5,1.05 -6.15,4.1 -0.35,0.25 -2.6,1.45 -2.85,1.5 -0.35,0.15 -3.7,1.65 -1.4,0.5 -0.35,0.1 -1.85,0.6 -0.8,0.25 -1.35,0.4 -1.2,0.25 0.75,0.95 0.7,0.7 0.85,-0.45 0.3,-0.05 q 0.8,-0.1 1.55,0.3 l 0.6,0.45 0.05,0.05 0.4,0.65 q 0.35,0.7 0.2,1.55 l -0.1,0.5 1.65,0.85 0.4,0.1 1.85,-0.05 0.65,-0.1 0.65,-0.2 0.45,-0.15 0.15,-0.05 2.15,-0.75 1.7,-0.6 0.7,-0.3 7.15,-3.05 1,-0.45 8.2,-4.85 m -21.75,4.75 0.2,-0.25 0.75,-0.65 q 0.55,-0.4 1.3,-0.4 h 0.2 l 0.35,0.05 q 0.6,0.05 1.15,0.4 l 0.6,0.6 0.35,0.65 0.05,0.1 q 0.25,0.7 0.05,1.45 l -0.1,0.45 -0.1,0.25 -0.55,0.65 q -0.6,0.6 -1.4,0.75 l -1.5,-0.2 -1.25,-1 -0.2,-0.3 Q -29.7,34 -29.5,33.1 l 0.3,-0.8 m 10.35,-5 0.1,-0.3 0.2,-0.25 0.5,-0.5 q 0.5,-0.45 1.2,-0.65 l 1.25,-0.05 0.05,0.25 q 0.35,0.1 0.75,0.35 l 0.6,0.6 0.35,0.65 0.05,0.1 q 0.25,0.7 0.05,1.45 l -0.1,0.45 -0.1,0.25 -0.55,0.65 -1.4,0.75 -0.35,0.05 h -0.15 -0.2 -0.05 l -0.1,-0.05 -0.65,-0.2 q -0.8,-0.3 -1.25,-1 l -0.2,-0.3 q -0.4,-0.85 -0.2,-1.75 l 0.2,-0.5 m -5.1,-15.75 -0.55,-0.65 -0.65,-0.75 -0.55,-0.6 -0.5,-0.6 -0.4,-0.45 -0.35,-0.45 -0.6,-0.7 -4.1,4.05 -2.4,2.5 -0.35,0.4 -2.4,2.75 -1.9,2.6 -1.2,2.25 -0.15,0.25 -0.6,1.3 -0.3,1.7 v 1.8 0.25 l 0.05,0.1 q 0.15,0.85 0.95,1.1 l 0.65,0.05 0.9,-0.05 1.3,-0.45 1.2,-0.45 3.7,-1.65 0.6,-0.25 V 25.55 25.4 q 0.35,-2.6 1.3,-4.75 l 0.1,-0.2 0.1,-0.3 0.45,-0.85 0.2,-0.45 1.55,-2.15 1.4,-1.7 0.05,-0.1 2.35,-2.65 0.4,-0.45 -0.25,-0.25 m 3.3,7.4 2.35,-1.7 -3.35,-3.3 -0.35,0.3 -2.25,3 -1.4,2.15 q -1.1,1.85 -1.7,3.65 l -0.05,0.25 6.75,-4.35"
         fill="#000000"
         fill-rule="evenodd"
         stroke="none"
         id="path1" />
      <path
         d="m 33.4,-38.2 -0.55,3 q -0.8,3.35 -2.15,6.85 l -0.2,0.5 -2.25,4.95 0.65,0.9 1.55,2.45 2.05,3.65 0.6,1.4 0.35,0.65 -0.9,1.65 -0.6,1.15 -0.65,1.2 -0.2,-0.25 -0.6,-1.05 -1.3,-2.8 -0.9,-1.65 -0.7,-1 -0.45,-1 -0.75,-0.95 -0.25,-0.55 -1.4,2.3 -0.15,0.3 -0.5,0.8 0.25,0.3 0.55,0.8 -0.25,0.15 q -0.8,0.6 -1.1,1.5 -0.5,1.7 0.7,3 1.25,1.25 2.95,0.75 l 0.95,-0.45 0.35,1.05 v 0.05 q 0.1,0.55 -0.2,0.9 -0.35,0.45 -1,0.35 l -0.75,-0.3 q -1.6,-0.85 -3.75,-3.9 l -0.7,-1.1 -0.05,-0.05 -0.3,0.45 -2.85,4.1 -0.2,0.25 L 16.35,-4.7 11,2.1 6.95,6.35 4.85,8.1 4.5,8.4 4.25,8.6 1.75,6.25 3.2,4.8 3.7,4.3 6.05,1.75 6.6,1.15 8.65,-1.1 l 3,-3.45 1.15,-1.35 0.65,-0.7 3.55,-4.3 3.85,-5.45 0.2,-0.25 0.75,-1.25 0.8,-1.3 0.3,-0.5 2.45,-4.35 0.45,-0.85 2.3,-4.7 1,-2.35 0.55,-1.55 0.55,-1.75 0.4,-1.8 0.4,-2.65 v -0.15 l 0.05,-0.5 0.2,0.15 0.4,0.25 1.75,1.7 M 6.1,-24.05 5.65,-24.5 4.5,-25.6 4.55,-25.7 5.8,-27.35 6.05,-27.7 q 1.65,-2.45 6.1,-7.9 l 2.7,-2.9 1.6,-1.35 q 2.25,-1.75 4.1,-2.85 l 0.15,-0.1 q 1.15,-0.65 2.2,-1.05 h 0.9 l 1.1,0.15 0.45,0.25 0.85,1.2 q 0.35,0.9 0.35,2.05 l -2.1,0.25 q -3.3,0.75 -7.6,4.55 l -2,1.85 -3.6,3.6 -4.65,5.35 -0.5,0.55 m -34.25,-13.1 q -0.4,-2.1 0.15,-3.6 l 0.15,-0.35 0.1,-0.15 1.05,-0.95 0.4,-0.1 1.05,0.25 q 1.85,0.5 4.35,1.8 l 0.35,0.15 0.2,0.1 2.75,1.5 3.15,1.9 0.55,0.4 0.1,0.05 0.35,0.25 2.15,1.6 0.15,0.15 0.15,0.05 0.85,0.7 2.4,2.1 0.8,0.7 0.45,0.35 3.45,3.05 0.7,0.65 0.95,0.85 0.2,0.15 1.15,1.05 1.3,1.2 0.65,0.6 0.8,0.8 2,1.9 0.2,0.25 3.35,3.5 0.85,0.9 1.7,2 q 0.55,0.75 1.05,1.15 l -0.45,0.6 -0.95,1.15 -0.45,0.5 -1.2,-1.4 q -2.9,-3.8 -9.15,-10.25 l -2.15,-2.2 -1.5,-1.5 -4.1,-3.8 q -1.85,-1.6 -4.85,-3.7 l -5.3,-3.5 q -3.95,-2.6 -6.75,-2.6 l -1.9,0.5 -1.25,1.25 m -2.95,6.15 0.1,0.3 0.1,0.3 0.05,0.1 0.15,0.4 0.25,0.55 0.3,0.75 v 0.05 l 0.55,1.15 0.55,1.15 1.9,3.75 1.25,2.25 1.25,2.1 2.15,3.5 2.35,3.45 1.35,1.8 0.55,0.7 2.4,2.85 1.25,1.45 0.7,0.8 1.15,1.35 1.05,1.2 0.3,0.35 1.3,1.45 0.8,0.85 0.5,0.55 0.55,0.65 3.15,3.35 0.05,0.05 0.6,0.6 0.6,0.6 0.9,0.95 0.25,0.2 0.6,0.6 0.4,0.35 0.05,0.05 0.15,0.15 1.85,1.7 0.45,0.4 0.6,0.5 2.45,2.05 2.05,1.65 1.9,1.55 2,1.6 1.55,1.2 0.05,0.05 Q 8.4,19.25 5.65,17.55 L 3.2,15.9 0.7,13.95 H 0.65 L -2.05,11.7 -3.45,10.45 -5.7,8.5 -5.75,8.45 -8.65,5.7 l -4.2,-3.75 -0.7,-0.6 -2.2,-1.95 q -3.95,-3.7 -6.75,-7.05 l -0.1,-1.2 -0.1,-0.2 q -0.35,-1 -1.25,-1.65 l -0.15,-0.1 -0.75,-0.3 -0.4,-0.1 -0.7,-1.05 -3.4,-5.6 -2.2,-3.8 -0.3,0.8 -0.25,0.8 -0.1,0.2 -0.4,1.05 -0.05,0.15 -0.55,1.55 -0.1,0.35 -0.25,0.45 -0.5,1 -0.55,1.25 q -0.35,0.75 -0.8,1.05 l -0.1,0.05 -0.45,-0.9 -0.5,-1.05 -0.45,-0.85 -0.45,-0.95 -0.5,-1 v -0.05 l 0.7,-1.55 0.65,-1.9 0.55,0.45 0.25,0.1 0.1,0.05 0.3,0.15 0.45,0.1 h 0.3 0.4 l 0.7,-0.1 0.95,-0.5 0.15,-0.15 0.7,-0.7 0.2,-0.3 0.05,-0.05 0.3,-0.9 q 0.1,-0.5 0.05,-0.95 l -0.05,-0.1 q -0.1,-0.65 -0.5,-1.25 -0.45,-0.75 -1.15,-1.15 l -0.1,-0.05 -0.35,-0.1 -0.2,-0.1 h -0.1 l -0.4,-0.1 -0.3,-0.05 0.05,-0.1 1.05,-1.85 0.65,-0.9 0.25,-0.35 q 0.15,-0.5 0.5,-0.65 l 0.1,-0.05 h 0.15 l 0.35,-0.2 m -8,10.15 -0.05,-0.1 q -0.7,-2.15 -0.8,-3.85 l 0.05,-1.85 v -0.05 l 0.4,-1.6 1.5,-3.65 0.1,-0.2 0.3,-0.5 0.85,-1.6 0.85,-1.4 0.1,-0.2 1.4,-1.65 1.55,-1.3 0.1,0.95 0.4,2.6 0.05,0.25 0.2,0.7 -1.6,3.7 -0.6,1.55 -0.4,1 -0.45,1.3 -0.55,0.15 -0.4,0.25 -1,1 -0.3,0.75 -0.05,0.05 -0.15,1.05 0.4,1.4 -0.5,0.45 -0.3,0.3 -0.85,0.45 -0.25,0.05 m 28.9,14.25 -0.7,-0.8 -0.5,-0.65 -0.35,-0.4 0.65,-0.7 1.35,-1.3 1.65,-1.4 0.7,-0.6 0.05,0.05 0.7,0.7 0.9,0.85 -3.45,3.4 -1,0.85 m -24.5,41 -0.6,-0.45 q -0.75,-0.4 -1.55,-0.3 l -0.3,0.05 -0.85,0.45 -0.7,-0.7 -0.75,-0.95 1.2,-0.25 1.35,-0.4 0.8,-0.25 1.85,-0.6 0.35,-0.1 1.4,-0.5 3.7,-1.65 0.35,-0.15 2.85,-1.5 2.6,-1.45 0.35,-0.25 6.15,-4.1 1.5,-1.05 0.25,0.2 2.4,2.05 4.9,5.05 q -4.75,-4.2 -5.3,-3.8 l -0.2,0.15 -2.65,1.65 -1.25,0.05 q -0.7,0.2 -1.2,0.65 l -0.5,0.5 -0.2,0.25 -0.1,0.3 -4.2,2.1 -3.35,1.65 -0.35,-0.05 h -0.2 q -0.75,0 -1.3,0.4 l -0.75,0.65 -0.2,0.25 -2.3,1 q -1.9,0.75 -3.2,1.1 m -3.7,-6 -0.9,0.05 -0.65,-0.05 q -0.8,-0.25 -0.95,-1.1 l -0.05,-0.1 v -0.25 -1.8 l 0.3,-1.7 0.6,-1.3 0.15,-0.25 1.2,-2.25 1.9,-2.6 2.4,-2.75 0.35,-0.4 2.4,-2.5 4.1,-4.05 0.6,0.7 0.35,0.45 0.4,0.45 -4.95,5.4 -1.65,1.8 -0.5,0.6 -0.5,0.7 -1.7,2.65 -1.55,2.5 -0.35,0.5 -0.9,1.85 -0.15,1.45 0.05,1.4 v 0.6"
         fill="#ffffff"
         fill-rule="evenodd"
         stroke="none"
         id="path2" />
      <path
         d="m 33.4,-38.2 0.6,0.85 0.55,0.85 -0.9,0.7 q -0.5,0.55 -0.65,1.4 -0.15,0.8 0.15,1.55 0.7,1.65 2.4,1.8 0.8,0.1 1.6,-0.3 l 0.95,3.2 q 0.45,3.1 -1.7,8.15 l -0.35,0.8 -2.15,4.4 -0.45,0.95 -0.35,-0.65 -0.6,-1.4 -2.05,-3.65 -1.55,-2.45 -0.65,-0.9 2.25,-4.95 0.2,-0.05 v -0.45 q 1.35,-3.5 2.15,-6.85 l 0.55,-3 M 31.3,-9.85 31.25,-9.8 31,-9.35 29.2,-6.1 28.55,-5.05 27.7,-3.8 22.25,3 19.75,6 19.65,6.1 19.5,6.25 17.05,9 16.8,9.3 l -1.4,1.4 -0.05,0.05 -2.4,2.3 -0.55,0.55 -1.15,1 L 10.4,13.9 10.15,13.65 8.1,11.95 7.8,11.7 4.7,9 4.25,8.6 4.5,8.4 4.85,8.1 6.95,6.35 11,2.1 16.35,-4.7 18.7,-7.85 H 19 l -0.1,-0.25 2.85,-4.1 h 0.45 l -0.1,-0.4 0.7,1.1 q 2.15,3.05 3.75,3.9 l 0.75,0.3 q 0.65,0.1 1,-0.35 0.3,-0.35 0.2,-0.9 V -8.6 l -0.35,-1.05 q 0.65,-0.5 0.95,-1.35 l 0.05,-0.1 q 0.45,-1.4 -0.35,-2.7 -0.75,-1.05 -1.95,-1.2 l -0.45,-0.05 -1.5,0.45 -0.55,-0.8 -0.25,-0.3 0.5,-0.8 0.2,-0.05 -0.05,-0.25 1.4,-2.3 0.25,0.55 0.75,0.95 0.45,1 0.7,1 0.9,1.65 1.3,2.8 0.6,1.05 0.2,0.25 m -1.7,-12.05 0.75,0.9 0.65,0.35 1.9,0.2 q 0.55,-0.15 1,-0.45 l 0.55,-0.65 q 0.6,-0.8 0.55,-1.8 -0.05,-0.95 -0.7,-1.75 -0.65,-0.75 -1.6,-0.95 l -1.9,0.3 -0.45,0.35 -0.85,1 q -0.25,0.7 -0.2,1.35 0,0.6 0.3,1.15 m -7.3,21.35 0.3,-1 -0.05,-0.6 -0.1,-0.4 -0.95,-1.55 q -0.75,-0.6 -1.7,-0.65 h -0.5 q -0.65,0.1 -1.25,0.4 -0.85,0.5 -1.2,1.35 l -0.3,1.15 0.05,0.65 q 0.15,0.8 0.65,1.45 L 17.4,0.4 q 1.15,1.05 2.45,0.9 l 0.4,-0.1 Q 21.6,0.9 22.3,-0.55 M 11,4.25 Q 10.05,4.2 9.25,4.8 8.4,5.35 8.05,6.2 L 7.95,6.65 7.9,6.75 Q 7.8,7.35 8,8.05 8.25,9 8.95,9.6 l 0.35,0.25 0.75,0.3 0.6,0.1 0.45,0.05 1.35,-0.45 q 0.8,-0.5 1.2,-1.45 L 13.9,7.1 13.8,6.5 Q 13.55,5.55 12.75,4.95 L 12.2,4.6 Q 11.65,4.3 11,4.25 M -5.35,22.3 -6.9,21.1 -7.2,20.55 Q -7.5,19.7 -7.3,18.9 -8.35,19 -9.25,18.3 q -0.95,-0.65 -1.25,-1.7 -0.9,0.05 -1.7,-0.55 -0.75,-0.55 -1,-1.35 l -0.05,-0.1 -0.7,0.6 -0.05,0.05 -0.8,-0.75 -2.4,-2.3 -1.4,-1.45 -1.1,-1.2 -0.6,-0.65 -0.35,-0.45 -0.4,-0.4 L -21,7.5 -21.35,7.7 -24.05,4.5 -24.1,4.45 -24.55,3.9 -24.7,3.75 -24.85,3.6 -27.2,0.7 V 0.55 l -0.05,0.05 -2,-2.6 -1.75,-2.6 -1.8,-3.25 -0.4,-0.7 -0.4,-0.8 -0.4,-0.75 -0.5,-0.9 -1,-1.95 0.1,-0.05 q 0.45,-0.3 0.8,-1.05 l 0.55,-1.25 0.5,-1 0.25,-0.45 0.1,-0.35 0.55,-1.55 0.05,-0.15 0.4,-1.05 0.1,-0.2 0.25,-0.8 0.3,-0.8 2.2,3.8 3.4,5.6 0.7,1.05 -0.5,-0.05 H -26 q -0.75,0.05 -1.4,0.45 l -0.5,0.3 v 0.05 l -0.1,0.05 -0.05,0.1 -0.35,0.35 -0.3,0.55 -0.3,0.7 v 0.15 q -0.15,0.9 0.25,1.9 0.45,1.05 1.4,1.55 0.35,0.2 0.7,0.3 h 0.15 l 1.05,0.05 1.05,-0.3 0.25,-0.1 0.25,-0.2 0.2,-0.15 0.15,-0.1 0.7,-1 0.2,-0.5 0.15,-0.55 q 2.8,3.35 6.75,7.05 l 2.2,1.95 q 0.25,0.75 0.15,1.5 l 0.55,-0.9 4.2,3.75 2.9,2.75 -0.05,0.1 0.1,-0.05 2.25,1.95 1.4,1.25 2.7,2.25 H 0.7 l 2.5,1.95 v 1.65 L 2.7,17.2 q -0.85,-0.45 -1.9,-0.35 -1.05,0.05 -1.8,0.7 -0.9,0.75 -1.1,2 l 0.05,1.35 0.4,0.9 q 0.55,0.85 1.5,1.25 L 1.1,23.35 1.6,23.3 Q 0.9,24.8 -0.15,25.8 -1.2,24.6 -1.5,22.95 l -2.15,-0.35 -0.3,-0.05 -1.4,-0.25 m -32.5,-40 -0.15,-0.4 -0.2,-0.4 -0.05,-0.1 -0.85,-2.25 0.25,-0.05 0.85,-0.45 0.3,-0.3 0.5,-0.45 0.55,0.75 0.15,0.15 -0.65,1.9 -0.7,1.55 v 0.05 m 5.75,-16.6 0.05,0.25 0.1,0.35 0.1,1.55 0.4,0.2 0.2,0.55 0.15,0.4 -0.35,0.2 h -0.15 l -0.1,0.05 q -0.35,0.15 -0.5,0.65 l -0.25,0.35 -0.65,0.9 -1.05,1.85 -0.05,0.1 h -0.05 l -0.4,0.05 -0.5,0.1 0.45,-1.3 0.4,-1 0.6,-1.55 1.6,-3.7 m 15.9,43.75 0.2,0.3 q 0.5,0.65 1.35,1 l 2,0.2 q 0.75,-0.15 1.4,-0.75 l 0.2,-0.2 0.1,-0.1 q 0.7,-0.85 0.8,-1.85 l -0.05,-1 -0.4,-0.95 q -0.55,-0.95 -1.5,-1.35 l -1.5,-0.25 -0.5,0.05 -0.25,0.1 -0.7,0.3 h -0.05 l -0.75,0.6 q -0.85,0.95 -0.85,2.2 0,0.85 0.5,1.7 m -6.85,19.95 4.2,-2.1 -0.2,0.5 q -0.2,0.9 0.2,1.75 l 0.2,0.3 q 0.45,0.7 1.25,1 l 0.65,0.2 -0.3,0.2 q -1.15,0.85 -2.3,0.4 l -1.2,-1 q -0.65,-0.5 -1.5,-0.9 l -1,-0.35"
         fill="#b1b1b1"
         fill-rule="evenodd"
         stroke="none"
         id="path3" />
      <path
         d="m 6.1,-24.05 0.5,-0.55 4.65,-5.35 3.6,-3.6 q 0.7,0.5 1,1.5 h 0.3 l 0.45,-1 0.2,-0.05 1.25,2.8 0.3,0.75 -2.3,2.3 -0.75,0.8 -0.2,0.2 -0.8,0.9 -1,1.1 -0.5,-0.05 0.05,0.6 -0.65,0.8 -1.55,1.9 -0.2,0.3 -0.2,0.3 -0.6,-0.05 -0.55,-0.55 -1.15,-1.25 -0.45,-0.4 -0.9,-0.9 -0.5,-0.5 m 3.9,14.1 -1.2,1.4 -1.25,1.45 -0.15,0.2 -0.55,0.6 -1.75,2 -0.8,-1 -0.35,-0.4 -1.4,-1.5 0.1,-0.3 V -7.6 H 2.6 2.25 2.2 L 1.2,-8.7 1.1,-8.8 0.95,-8.95 0.25,-9.7 v -0.5 -0.2 L 0,-10.45 -1.25,-11.4 -1.45,-11.75 -1.8,-12.9 v -0.3 l -0.25,-0.1 -2.05,-1.4 -1,-0.95 q -0.95,-0.85 -1.2,-1.45 l -0.8,-0.05 -0.35,-0.1 -0.85,-0.85 -0.5,-0.45 -0.2,-0.5 -0.1,-0.45 -0.1,-0.7 -1,-1.05 -0.2,-0.4 -0.1,-0.6 0.45,-1 q 0.45,-0.55 1.8,-1.2 l 2.05,-0.6 1.45,-0.05 0.75,-0.2 1.5,1.5 2.15,2.2 q 6.25,6.45 9.15,10.25 l 1.2,1.4 m 13.15,25.7 -3.3,-3.25 1.2,-1.25 0.1,-0.1 1.55,-1.75 1.45,-1.6 0.35,-0.4 0.4,-0.5 0.3,-0.4 0.55,0.65 0.2,0.25 5.05,5.4 0.5,0.5 1,1.15 -0.4,0.85 q 0.4,0.7 0.75,0.85 l 1,0.1 h 0.1 l 1.65,2.35 0.35,0.65 -0.4,0.45 -0.8,0.55 -0.9,0.1 q -0.55,0.1 -1.3,0.55 H 32.5 q -1.65,0.85 -2.2,0.9 L 28.7,21.55 27.8,21.2 26.9,20 25.65,18.5 V 18.35 H 25.5 l -0.65,-0.8 -0.2,-0.2 L 24.5,17.2 24.05,16.7 23.2,15.8 v -0.05 h -0.05 m -11.75,4.65 0.1,0.05 8.2,5.75 1.15,0.7 1.35,0.8 q 4.8,2.8 9.5,4.55 l 1,0.35 4.35,1.3 0.15,0.7 -3.9,3.45 -0.4,0.3 0.35,-0.65 Q 33.6,36.85 33.4,36 l -0.25,-0.65 -0.6,-0.8 q -0.7,-0.6 -1.55,-0.7 -0.85,-0.05 -1.65,0.4 -0.8,0.45 -1.2,1.25 -0.35,0.85 -0.15,1.75 0.25,0.9 0.9,1.45 l 0.6,0.4 0.45,0.15 0.5,0.1 h 0.6 L 30.3,39.6 28.2,39.5 26.55,39.05 23.8,38.1 19,36.2 17.1,35.35 16.3,35 15.65,34.7 12.95,33.45 9.55,31.7 8.95,31.4 3.3,28.15 2.5,27.65 2,27.35 -0.45,25.75 -1.45,25.1 -1.9,24.8 -2,24.7 -4.6,22.85 -5.05,22.5 l -0.3,-0.2 1.4,0.25 0.3,0.05 2.15,0.35 q 0.3,1.65 1.35,2.85 1.05,-1 1.75,-2.5 l 0.15,-0.05 q 0.95,-0.2 1.7,-0.95 0.7,-0.75 0.85,-1.75 0.15,-1 -0.3,-1.9 L 3.2,17.55 V 15.9 l 2.45,1.65 q 2.75,1.7 5.75,2.85 m -18.3,0.7 -0.55,-0.4 -1.05,-0.8 -0.45,-0.4 -1.2,-0.95 -0.4,-0.35 -0.85,-0.7 -1.45,-1.25 -0.95,-0.8 V 15.4 l -0.15,-0.2 0.7,-0.6 0.05,0.1 q 0.25,0.8 1,1.35 0.8,0.6 1.7,0.55 0.3,1.05 1.25,1.7 0.9,0.7 1.95,0.6 -0.2,0.8 0.1,1.65 l 0.3,0.55 m 21.55,10.7 1.55,0.45 q 0.9,0 1.55,-0.4 V 31.8 q 0.7,-0.45 1.05,-1.25 0.35,-0.8 0.2,-1.6 L 18.9,28.5 18.25,27.55 Q 17.7,26.9 16.9,26.7 q -1.25,-0.3 -2.35,0.45 -1.05,0.75 -1.15,2 -0.15,1.75 1.25,2.65 m -24.85,-38.4 1,-0.85 3.45,-3.4 0.35,0.4 0.6,0.6 0.95,0.95 1.95,2.1 -1.35,1 -2.2,1.5 -1.6,1.3 -1.75,-2 -0.55,-0.6 -0.3,-0.35 -0.55,-0.65 m -24.5,41 q 1.3,-0.35 3.2,-1.1 l 2.3,-1 -0.3,0.8 q -0.2,0.9 0.2,1.75 l 0.2,0.3 1.25,1 1.5,0.2 q 0.8,-0.15 1.4,-0.75 l 0.55,-0.65 0.1,-0.25 0.1,-0.45 Q -24,33.5 -24.25,32.8 l -0.05,-0.1 -0.35,-0.65 -0.6,-0.6 q -0.55,-0.35 -1.15,-0.4 l 3.35,-1.65 1,0.35 q 0.85,0.4 1.5,0.9 l 1.2,1 q 1.15,0.45 2.3,-0.4 l 0.3,-0.2 0.1,0.05 h 0.05 0.2 0.15 l 0.35,-0.05 1.4,-0.75 0.55,-0.65 0.1,-0.25 0.1,-0.45 q 0.2,-0.75 -0.05,-1.45 l -0.05,-0.1 -0.35,-0.65 -0.6,-0.6 q -0.4,-0.25 -0.75,-0.35 l -0.05,-0.25 2.65,-1.65 0.2,-0.15 q 0.55,-0.4 5.3,3.8 l -8.2,4.85 -1,0.45 -7.15,3.05 -0.7,0.3 -1.7,0.6 -2.15,0.75 -0.15,0.05 -0.45,0.15 -0.65,0.2 -0.65,0.1 -1.85,0.05 -0.4,-0.1 -1.65,-0.85 0.1,-0.5 q 0.15,-0.85 -0.2,-1.55 l -0.4,-0.65 -0.05,-0.05 m 8.5,-25.45 0.5,0.6 0.55,0.6 0.65,0.75 0.55,0.65 -0.15,0.7 -2.35,2.65 -0.05,0.1 -1.4,1.7 -1.55,2.15 -0.2,0.45 -0.45,0.85 -0.1,0.3 -0.1,0.2 q -0.95,2.15 -1.3,4.75 v 0.15 0.05 l -0.6,0.25 q -1.15,0.2 -2.35,-0.6 -0.95,-0.6 -2.1,-2.15 l -0.4,-0.5 1.55,-2.5 1.7,-2.65 0.5,-0.7 0.5,-0.6 1.65,-1.8 4.95,-5.4"
         fill="#7d7d7d"
         fill-rule="evenodd"
         stroke="none"
         id="path4" />
      <path
         d="m 14.85,-33.55 2,-1.85 q 4.3,-3.8 7.6,-4.55 l 2.1,-0.25 q -0.05,1.95 -1.1,4.6 l -0.15,0.4 -1.35,0.75 -1.95,1.55 -3.65,3.35 -0.3,-0.75 -1.25,-2.8 -0.2,0.05 -0.45,1 h -0.3 q -0.3,-1 -1,-1.5 M 0.25,-9.7 0.2,-9.75 0.05,-9.9 l -1.6,-1.65 -0.2,-0.2 -1.65,-1.65 -1.3,-1.25 -0.1,-0.1 -1.05,-1 -1.05,-1.05 -0.55,-0.45 0.35,0.1 0.8,0.05 q 0.25,0.6 1.2,1.45 l 1,0.95 2.05,1.4 0.25,0.1 v 0.3 l 0.35,1.15 0.2,0.35 1.25,0.95 0.25,0.05 v 0.2 0.5 m -9.05,-8.85 -1.15,-1.1 -0.4,-0.35 -0.05,-0.05 -0.15,-0.1 -2.45,-2.25 -1.7,-1.5 -0.3,-0.3 -1.4,-1.2 -1.7,-1.5 -3.65,-2.85 -0.75,-0.5 -1.05,-0.6 -1.35,-0.65 -0.75,-0.25 -0.7,-0.2 -0.05,-0.1 -0.85,-2.05 -0.7,-2.15 -0.2,-0.9 1.25,-1.25 1.9,-0.5 q 2.8,0 6.75,2.6 l 5.3,3.5 q 3,2.1 4.85,3.7 l 4.1,3.8 -0.75,0.2 -1.45,0.05 -2.05,0.6 q -1.35,0.65 -1.8,1.2 l -0.45,1 0.1,0.6 0.2,0.4 1,1.05 0.1,0.7 0.1,0.45 0.2,0.5 M 2.65,-7.5 2.6,-7.6 h 0.05 v 0.1 M 25.5,18.35 h 0.15 V 18.5 L 25.5,18.35 m 2.3,2.85 0.9,0.35 1.6,0.25 q 0.55,-0.05 2.2,-0.9 h 0.05 q 0.75,-0.45 1.3,-0.55 l 0.9,-0.1 0.8,-0.55 0.4,-0.45 0.2,0.35 1.15,2 0.25,0.35 0.55,0.7 0.25,0.5 0.9,2.4 0.1,0.3 v 0.75 l 0.15,1.15 -0.1,1.1 -0.95,0.95 -0.95,0.15 -2.2,-0.5 L 34.1,29 33.3,28.65 31.85,28 31.7,27.95 31.65,27.9 V 27.85 L 31.3,26.9 31.1,26.5 31,26.35 30.9,26.15 30.45,25.25 29.65,23.9 29.55,23.75 29,22.9 27.8,21.2 m 6.15,-4.95 h -0.1 l -1,-0.1 Q 32.5,16 32.1,15.3 l 0.4,-0.85 1.15,1.45 0.3,0.35 m -66.15,9.6 -3.7,1.65 -1.2,0.45 -1.3,0.45 v -0.6 l -0.05,-1.4 0.15,-1.45 0.9,-1.85 0.35,-0.5 0.4,0.5 q 1.15,1.55 2.1,2.15 1.2,0.8 2.35,0.6"
         fill="#5c5c5c"
         fill-rule="evenodd"
         stroke="none"
         id="path5" />
    </g>
    <g
       id="sprite1"
       transform="translate(17.4,15.85)">
      <use
         ffdec:characterId="31"
         height="57.200001"
         transform="matrix(0.5366,0,0,0.5366,-16.6582,-14.546)"
         width="70.75"
         xlink:href="#sprite2"
         id="use5" />
    </g>
    <g
       id="sprite2"
       transform="translate(-8.65,-10.35)">
      <use
         ffdec:characterId="30"
         height="57.200001"
         transform="translate(8.65,10.35)"
         width="70.75"
         xlink:href="#shape1"
         id="use6" />
    </g>
    <g
       id="shape1"
       transform="translate(-8.65,-10.35)">
      <path
         d="m 14.8,41.7 q 0.65,-1.75 2.65,-2.5 1.8,-0.8 3.7,-0.25 1.15,0.45 2.25,1.2 l 0.9,0.4 q 1.65,0.9 2.85,2.5 L 37.8,30.1 q 2.35,-2.8 3.75,-3.95 1.5,-1.15 4.25,-2.4 18.2,-8.85 27.65,-12.6 2.15,-0.8 3.25,-0.8 h 0.8 l 1.9,2.4 -0.2,0.8 q -0.2,1.1 -1.55,3 -5.85,8.25 -18.85,23.8 -1.85,2.35 -3.35,3.5 -1.4,1.15 -4.75,2.75 l -15.15,7.15 q 1.2,1.6 1.75,3.4 l 0.2,1 0.55,2.5 q 0.1,1.95 -1.1,3.55 -1.2,1.65 -3.05,1.9 l -1.3,0.05 q -1.65,0.2 -3.45,-0.65 -1.85,-0.9 -3,-2.6 L 25,60.95 23.8,62.1 q -2.6,2.85 -4.3,3.95 -2.85,1.8 -5.5,1.45 l -1.65,-0.5 -1.2,-0.7 -0.2,-0.2 q -1,-0.85 -1.6,-1.9 L 9.25,64 9.15,63.8 8.75,62.4 q -0.2,-0.8 -0.05,-1.7 0.25,-2.65 2.7,-5.05 1.5,-1.3 4.9,-3.15 L 17.7,51.55 16.05,50 q -1.35,-1.5 -1.8,-3.6 -0.4,-1.85 0.25,-3.45 l 0.3,-1.25"
         fill="#000000"
         fill-opacity="0.372549"
         fill-rule="evenodd"
         stroke="none"
         id="path6" />
    </g>
  </defs>
</svg>
