<?xml version="1.0" encoding="UTF-8" standalone="no"?>
<svg
   ffdec:objectType="frame"
   height="89.402771"
   width="77.514236"
   version="1.1"
   id="svg6"
   xmlns:xlink="http://www.w3.org/1999/xlink"
   xmlns="http://www.w3.org/2000/svg"
   xmlns:svg="http://www.w3.org/2000/svg"
   xmlns:ffdec="https://www.free-decompiler.com/flash">
  <g
     transform="translate(42.575806,46.586364)"
     id="g1">
    <use
       ffdec:characterId="17"
       height="119.15"
       id="rarity"
       transform="translate(-58.5,-60.65)"
       width="119.15"
       xlink:href="#sprite0" />
    <use
       ffdec:characterId="938"
       height="89.400002"
       transform="translate(-42.6,-46.6)"
       width="77.550003"
       xlink:href="#shape0"
       id="use1" />
  </g>
  <defs
     id="defs6">
    <g
       id="shape0"
       transform="translate(89.4,47.95)">
      <path
         d="m -69.65,-33 q -4.3,3.85 -7.2,8.85 -3.05,5.3 -4.4,11.15 0,1.45 -0.4,2.85 l -0.65,2.35 q -0.15,0.9 -0.65,1.65 0.1,2.45 -0.15,4.75 -0.35,2.95 0.45,5.8 0.35,1.25 0.3,2.55 3.65,8.3 9.05,15.45 l 2.9,3.45 q 6.35,6.75 15.3,8.8 l 7.15,0.45 q 6.2,-0.65 10.9,-4.75 10.5,-9.2 15.6,-22.25 2.65,-7.6 3.35,-15.65 0.9,-10.35 -3.25,-19.25 l -1.9,-3.55 q -0.9,-1.5 -2.15,-2.75 l -0.4,-0.35 -3.2,-2.8 q -10.9,-6.3 -23.85,-5.15 -5.85,1.1 -11,4.25 l -1.25,0.8 -1.75,1.05 -2.8,2.3 m 42.25,17.85 q 6.05,1.85 7.1,9.05 0.85,5.6 -2.1,9.2 -1.75,2.15 -4.8,3.6 -9.25,4.4 -15.85,-3.05 L -43.9,2.5 q -1.25,-2.15 -0.8,-4.85 l 0.4,-1.9 q 0.5,-2 1.45,-3.65 2.6,-4.85 8.65,-7.05 l 1.2,-0.4 2.4,-0.35 3.2,0.55 m -36.1,26.8 q 1.55,1.65 -0.95,4.3 -1.1,1.15 -2.6,0.4 -3.2,-1.7 -1.5,-4.4 l 0.4,-0.6 q 0.85,-1.15 2.15,-1.15 1.75,0.6 2.5,1.45 M -78,1.9 l -0.85,-2 q -2.2,-6.6 2.45,-12.2 1.65,-2 3.85,-3.5 l 1.35,-0.8 q 1.65,-0.95 3.5,-1.5 l 1.7,-0.45 q 7.3,0.15 10.3,6.5 0.85,1.75 0.85,3.65 v 0.05 q 0.25,1.75 0.2,3.35 l -0.05,0.9 q -0.15,1.65 -0.65,3.05 -1.3,3.75 -5,6 -1.85,1.15 -4.3,1.9 l -0.4,0.1 -5.75,0.2 q -5,-1.1 -7.2,-5.25 m 23.15,-49.6 q 13.7,-1.3 25.65,4.55 12.9,6.35 15.9,19.85 2.95,13.25 -0.15,26.3 -1.5,6.15 -4.55,11.7 l -0.05,0.2 -0.05,0.2 -0.2,0.45 -0.2,0.4 -0.15,0.2 -0.65,0.7 q -1.55,3.2 -3.65,6.15 -8.15,11.35 -20.7,17.1 -2.75,1.25 -5.75,1.35 -13.6,0.4 -23.45,-8.95 -6.25,-5.95 -10.4,-13.35 -3.3,-5.8 -4.95,-12.05 -2.7,-10.25 0.8,-20.3 0.4,-3.25 1.5,-6.3 4.35,-12 14.3,-20 7.55,-6.05 16.75,-8.2 m 7.75,18.7 q 4.95,1.3 2.25,5.35 -1.05,1.55 -2.8,1 -4.05,-1.35 -1.95,-4.9 0.9,-1.45 2.5,-1.45 m -20.6,0.55 q 4.6,1.5 1.6,5.1 -1.2,1.4 -2.8,0.3 l -1.45,-1.5 q -0.8,-1.45 0.75,-2.9 l 0.75,-0.6 q 0.55,-0.4 1.15,-0.4 m 0.5,15.05 q -3.45,1.5 -5.3,5.05 -0.55,1.05 -1.3,1.95 0.05,0.6 -0.25,1.1 l -0.4,1.25 -0.05,0.2 q 1.4,6 8.05,5.35 3.95,-0.35 5.7,-3.7 0.8,-1.55 0.9,-3.3 l 0.15,-0.65 -0.1,-0.65 -0.15,-0.85 -0.05,-0.2 -0.4,-0.6 -0.15,-0.7 v -0.2 l -0.3,-0.45 -0.2,-0.4 -0.15,-0.45 q -1.85,-2.6 -5.2,-2.8 l -0.8,0.05 m 37.55,-13.3 q 5.25,1.8 1.5,5.75 -1.1,1.15 -2.55,0.4 -3.55,-1.9 -1.15,-5 0.9,-1.15 2.2,-1.15 m -4,16.2 q -3,2.05 -4.65,5.3 l -1,2 0.05,1.1 v 1.25 0.25 q 0.35,0.9 1.1,1.5 l 1.05,1 q 7.7,2.85 11.35,-4.2 1.3,-2.5 -0.4,-5.1 l -0.75,-1.8 -0.2,-0.2 -0.2,-0.25 q -3.15,-1.15 -6.35,-0.85 m -5.45,21.7 q 5.45,1.85 1.7,6 -0.95,1.05 -2.3,0.55 -4,-1.35 -2,-4.95 0.9,-1.6 2.6,-1.6 m -13.15,2.75 q 5.25,1.85 1.5,5.8 -1.1,1.15 -2.55,0.35 -3.55,-1.85 -1.15,-5 0.9,-1.1 2.2,-1.15 m 7.7,8.9 q 4.35,1.35 1.65,4.85 -1.2,1.5 -2.85,0.4 -3.05,-2.05 -0.4,-4.55 0.75,-0.7 1.6,-0.7 m -17.15,-1.6 q 4.5,1.55 1.35,4.85 -1.4,1.5 -2.9,0 -2.6,-2.55 0.55,-4.5 0.5,-0.3 1,-0.35"
         fill="#000000"
         fill-rule="evenodd"
         stroke="none"
         id="path1" />
      <path
         d="m -43.2,-21.15 1.45,0.35 0.55,0.2 0.35,0.55 0.3,0.5 0.1,0.7 q 0,0.45 -0.25,0.8 -0.35,0.55 -0.85,0.95 -1.7,3.05 -3.55,5.95 -0.9,1.35 -2.2,2.25 l -1.65,-0.05 -0.45,-0.2 -1.4,-1.45 q -0.55,-0.7 -0.75,-1.55 -2.1,-1.55 -3.35,-3.85 l -1,-1.4 q -0.6,-2.25 1.7,-2.65 l 7.9,-0.8 3.1,-0.3"
         fill="#9f7d7d"
         fill-rule="evenodd"
         stroke="none"
         id="path2" />
      <path
         d="m -21.35,-26.8 q -0.3,4.1 -2.95,8.05 -1.35,2 -3.1,3.6 l -3.2,-0.55 -2.4,0.35 -1.2,0.4 q -6.05,2.2 -8.65,7.05 -0.95,1.65 -1.45,3.65 -3.15,1.95 -7.8,1.1 l -1.7,-0.5 q 0.5,1.5 -0.3,3.15 l 0.05,0.35 V 0.6 l -0.35,0.95 -0.25,0.8 q -1.1,7.7 -8.85,9.3 -0.75,-0.85 -2.5,-1.45 -1.3,0 -2.15,1.15 l -0.4,0.6 q -6.05,-0.6 -9.1,-6.1 l -0.3,-0.95 q -0.5,-0.55 -0.6,-1.2 L -78.7,2.9 -78.5,2.45 -78.15,1.9 H -78 q 2.2,4.15 7.2,5.25 l 5.75,-0.2 0.4,-0.1 Q -62.5,6.35 -60.4,5 l 0.05,-0.05 q 3.7,-2.25 5,-6 0.5,-1.4 0.65,-3.05 l 0.05,-0.9 q 0.05,-1.6 -0.2,-3.35 V -8.4 q 0,-1.9 -0.85,-3.65 -3,-6.35 -10.3,-6.5 l -1.7,0.45 q -1.85,0.55 -3.5,1.5 -2.15,-0.55 -2.85,-3.8 -0.65,-3.15 0.6,-5.95 0.1,-1.6 1.05,-2.95 l 1.25,-1.55 0.1,-0.25 0.1,-0.25 0.8,-0.95 0.45,-0.55 0.05,-0.15 2.8,-2.3 1.75,-1.05 1.25,-0.8 q 5.15,-3.15 11,-4.25 12.95,-1.15 23.85,5.15 l 3.2,2.8 0.4,0.35 q 1.25,1.25 2.15,2.75 l 1.9,3.55 M -22.4,3.1 v 0.25 q -3.05,9.7 -13.5,8.25 -8.4,-1.15 -8,-9 V 2.5 l 0.85,1.15 q 6.6,7.45 15.85,3.05 3.05,-1.45 4.8,-3.6 m -45.3,-31.55 q -0.6,0 -1.15,0.4 l -0.75,0.6 q -1.55,1.45 -0.75,2.9 l 1.45,1.5 q 1.6,1.1 2.8,-0.3 3,-3.6 -1.6,-5.1 M -47.1,-29 q -1.6,0 -2.5,1.45 -2.1,3.55 1.95,4.9 1.75,0.55 2.8,-1 2.7,-4.05 -2.25,-5.35 m 3.9,7.85 -3.1,0.3 -7.9,0.8 q -2.3,0.4 -1.7,2.65 l 1,1.4 q 1.25,2.3 3.35,3.85 0.2,0.85 0.75,1.55 l 1.4,1.45 0.45,0.2 1.65,0.05 q 1.3,-0.9 2.2,-2.25 1.85,-2.9 3.55,-5.95 0.5,-0.4 0.85,-0.95 0.25,-0.35 0.25,-0.8 l -0.1,-0.7 -0.3,-0.5 -0.35,-0.55 -0.55,-0.2 -1.45,-0.35 m 13.55,-5.55 q -1.3,0 -2.2,1.15 -2.4,3.1 1.15,5 1.45,0.75 2.55,-0.4 3.75,-3.95 -1.5,-5.75"
         fill="#c2c2c2"
         fill-rule="evenodd"
         stroke="none"
         id="path3" />
      <path
         d="m -21.35,-26.8 q 4.15,8.9 3.25,19.25 -0.7,8.05 -3.35,15.65 -5.1,13.05 -15.6,22.25 -4.7,4.1 -10.9,4.75 l -7.15,-0.45 q -8.95,-2.05 -15.3,-8.8 l -2.9,-3.45 q -5.4,-7.15 -9.05,-15.45 0.05,-1.3 -0.3,-2.55 -0.8,-2.85 -0.45,-5.8 0.25,-2.3 0.15,-4.75 0.5,-0.75 0.65,-1.65 l 0.65,-2.35 q 0.4,-1.4 0.4,-2.85 1.35,-5.85 4.4,-11.15 2.9,-5 7.2,-8.85 l -0.05,0.15 -0.45,0.55 -0.8,0.95 -0.1,0.25 -0.1,0.25 -1.25,1.55 q -0.95,1.35 -1.05,2.95 -1.25,2.8 -0.6,5.95 0.7,3.25 2.85,3.8 l -1.35,0.8 q -2.2,1.5 -3.85,3.5 -4.65,5.6 -2.45,12.2 l 0.85,2 h -0.15 l -0.35,0.55 -0.2,0.45 0.15,0.8 q 0.1,0.65 0.6,1.2 l 0.3,0.95 q 3.05,5.5 9.1,6.1 -1.7,2.7 1.5,4.4 1.5,0.75 2.6,-0.4 2.5,-2.65 0.95,-4.3 7.75,-1.6 8.85,-9.3 l 0.25,-0.8 0.35,-0.95 V -0.15 L -54.1,-0.5 q 0.8,-1.65 0.3,-3.15 l 1.7,0.5 q 4.65,0.85 7.8,-1.1 l -0.4,1.9 q -0.45,2.7 0.8,4.85 v 0.1 q -0.4,7.85 8,9 10.45,1.45 13.5,-8.25 V 3.1 q 2.95,-3.6 2.1,-9.2 -1.05,-7.2 -7.1,-9.05 1.75,-1.6 3.1,-3.6 2.65,-3.95 2.95,-8.05 m -23.2,49.65 q -0.85,0 -1.6,0.7 -2.65,2.5 0.4,4.55 1.65,1.1 2.85,-0.4 2.7,-3.5 -1.65,-4.85 m -7.7,-8.9 q -1.3,0.05 -2.2,1.15 -2.4,3.15 1.15,5 1.45,0.8 2.55,-0.35 3.75,-3.95 -1.5,-5.8 M -39.1,11.2 q -1.7,0 -2.6,1.6 -2,3.6 2,4.95 1.35,0.5 2.3,-0.55 3.75,-4.15 -1.7,-6 m -22.6,10.05 q -0.5,0.05 -1,0.35 -3.15,1.95 -0.55,4.5 1.5,1.5 2.9,0 3.15,-3.3 -1.35,-4.85"
         fill="#a3a3a3"
         fill-rule="evenodd"
         stroke="none"
         id="path4" />
      <path
         d="m -33.65,-10.5 q 3.2,-0.3 6.35,0.85 l 0.2,0.25 0.2,0.2 0.75,1.8 q 1.7,2.6 0.4,5.1 -3.65,7.05 -11.35,4.2 l -1.05,-1 q -0.75,-0.6 -1.1,-1.5 V -0.85 -2.1 l -0.05,-1.1 1,-2 q 1.65,-3.25 4.65,-5.3"
         fill="#313131"
         fill-rule="evenodd"
         stroke="none"
         id="path5" />
    </g>
    <g
       id="sprite1"
       transform="translate(17.4,15.85)">
      <use
         ffdec:characterId="31"
         height="57.200001"
         transform="matrix(0.5366,0,0,0.5366,-16.6582,-14.546)"
         width="70.75"
         xlink:href="#sprite2"
         id="use5" />
    </g>
    <g
       id="sprite2"
       transform="translate(-8.65,-10.35)">
      <use
         ffdec:characterId="30"
         height="57.200001"
         transform="translate(8.65,10.35)"
         width="70.75"
         xlink:href="#shape1"
         id="use6" />
    </g>
    <g
       id="shape1"
       transform="translate(-8.65,-10.35)">
      <path
         d="m 14.8,41.7 q 0.65,-1.75 2.65,-2.5 1.8,-0.8 3.7,-0.25 1.15,0.45 2.25,1.2 l 0.9,0.4 q 1.65,0.9 2.85,2.5 L 37.8,30.1 q 2.35,-2.8 3.75,-3.95 1.5,-1.15 4.25,-2.4 18.2,-8.85 27.65,-12.6 2.15,-0.8 3.25,-0.8 h 0.8 l 1.9,2.4 -0.2,0.8 q -0.2,1.1 -1.55,3 -5.85,8.25 -18.85,23.8 -1.85,2.35 -3.35,3.5 -1.4,1.15 -4.75,2.75 l -15.15,7.15 q 1.2,1.6 1.75,3.4 l 0.2,1 0.55,2.5 q 0.1,1.95 -1.1,3.55 -1.2,1.65 -3.05,1.9 l -1.3,0.05 q -1.65,0.2 -3.45,-0.65 -1.85,-0.9 -3,-2.6 L 25,60.95 23.8,62.1 q -2.6,2.85 -4.3,3.95 -2.85,1.8 -5.5,1.45 l -1.65,-0.5 -1.2,-0.7 -0.2,-0.2 q -1,-0.85 -1.6,-1.9 L 9.25,64 9.15,63.8 8.75,62.4 q -0.2,-0.8 -0.05,-1.7 0.25,-2.65 2.7,-5.05 1.5,-1.3 4.9,-3.15 L 17.7,51.55 16.05,50 q -1.35,-1.5 -1.8,-3.6 -0.4,-1.85 0.25,-3.45 l 0.3,-1.25"
         fill="#000000"
         fill-opacity="0.372549"
         fill-rule="evenodd"
         stroke="none"
         id="path6" />
    </g>
  </defs>
</svg>
