<?xml version="1.0" encoding="UTF-8" standalone="no"?>
<svg
   ffdec:objectType="frame"
   height="76.655388"
   width="80.989914"
   version="1.1"
   id="svg5"
   sodipodi:docname="ITEM Caveman Necklace.svg"
   xmlns:inkscape="http://www.inkscape.org/namespaces/inkscape"
   xmlns:sodipodi="http://sodipodi.sourceforge.net/DTD/sodipodi-0.dtd"
   xmlns:xlink="http://www.w3.org/1999/xlink"
   xmlns="http://www.w3.org/2000/svg"
   xmlns:svg="http://www.w3.org/2000/svg"
   xmlns:ffdec="https://www.free-decompiler.com/flash">
  <sodipodi:namedview
     id="namedview5"
     pagecolor="#ffffff"
     bordercolor="#000000"
     borderopacity="0.25"
     inkscape:showpageshadow="2"
     inkscape:pageopacity="0.0"
     inkscape:pagecheckerboard="0"
     inkscape:deskcolor="#d1d1d1"
     fit-margin-top="5"
     fit-margin-left="5"
     fit-margin-right="5"
     fit-margin-bottom="5" />
  <g
     transform="translate(40.792857,34.715385)"
     id="g1">
    <use
       ffdec:characterId="17"
       height="119.15"
       id="rarity"
       transform="translate(-58.5,-60.65)"
       width="119.15"
       xlink:href="#sprite0" />
    <use
       ffdec:characterId="792"
       height="76.650002"
       transform="translate(-40.8,-34.7)"
       width="81"
       xlink:href="#shape0"
       id="use1" />
  </g>
  <defs
     id="defs5">
    <g
       id="shape0"
       transform="translate(41.35,35.45)">
      <path
         d="M -5.5,34.05 Q -8.05,34 -10.35,32.45 -12.6,31 -13.8,28.65 -15,26.4 -15.15,23.7 q -0.15,-2.6 0.7,-5.15 0.8,-2.2 2.45,-4.8 l 1.05,-1.55 -0.9,-1.5 -0.05,-1.05 -0.85,-0.05 -0.85,-0.2 -1.75,3.05 -2.6,3.85 -2.6,4.1 q -1.6,2.3 -3.3,3.5 l -1.95,1.25 -1.1,0.85 q -0.7,0.5 -1.25,0.6 L -30,26.4 -31.4,25.05 q -0.95,-1.65 -0.3,-3.75 0.4,-1.45 1.8,-3.4 l 2.15,-3.25 q 1,-1.95 1.55,-5.6 0.65,-4.35 1.1,-5.75 l 1.15,-2.85 0.3,-0.6 -0.4,-0.45 q -0.65,-0.85 -0.8,-1.9 l 0.2,-1.7 -0.35,0.05 -4.8,1 -3.3,0.35 -2.25,-0.4 -1.75,-0.05 q -1.1,-0.2 -2.4,-1.3 -1.1,-1 -1.5,-1.85 -0.6,-1.25 -0.15,-2.75 0.4,-1.45 1.55,-2.45 1.85,-1.7 5.25,-2.15 l 2.5,-0.25 -0.1,-0.4 q -0.15,-0.95 0.3,-1.8 l 0.35,-0.45 -0.6,-0.6 -0.5,-1.35 q -0.15,-1.8 1,-2.95 1,-1.2 2.65,-1.2 l -0.5,-0.8 q -0.35,-0.85 0.05,-1.85 0.4,-0.95 1.3,-1.3 l 1.4,-0.15 1.3,0.2 0.1,-0.65 q 0.2,-1 1,-1.75 0.75,-0.75 1.75,-1 l 1.6,-0.05 0.45,0.15 q 0.3,-1.4 1.45,-2.4 l 1,-0.6 1.05,-0.5 1.15,-0.15 1.75,0.35 0.3,-0.6 q 1.15,-1.5 3.4,-1.6 1.15,-0.1 2.15,0.45 1,0.65 1.3,1.8 l 0.65,-0.4 q 1.6,-0.7 3.15,0 1.25,0.6 1.8,1.8 0.5,1.1 0.2,2.05 -0.2,0.9 -0.85,1.5 0.55,0.5 0.8,1.35 0.35,1.3 -0.05,2.25 l 1.1,0.5 q 0.9,0.7 1,2.15 H 1.1 q 1.5,-0.25 2.8,0.6 l 1.05,1.1 0.1,0.2 0.5,-0.3 q 1.25,-0.8 2.8,-0.45 l 1.1,0.5 0.2,-0.35 q 0.7,-1.05 1.85,-1.45 l 2.65,-0.05 0.6,0.2 q 0.45,-1.15 1.45,-2.05 1,-0.9 2.5,-1.4 1.75,-0.7 3.7,-0.6 l 2.35,0.1 1.95,-0.4 1.95,-0.65 q 2.35,-0.8 3.65,0 1.1,0.7 1.25,2.25 0.1,1.1 -0.5,2.6 -1.8,4.1 -7.35,5.9 l -1.95,0.55 0.1,0.45 h 0.1 q 1.55,0 2.4,0.65 l 0.6,0.5 q 0.65,0.8 0.7,1.55 l 2.05,0.05 3.5,-0.25 2.3,-1.35 2,-0.2 q 1.1,0.2 1.65,1 0.65,0.9 0.45,2.25 -0.2,1.95 -1.8,3.6 -1.25,1.25 -3.3,2.35 -1.55,0.85 -3.5,1.5 -2.75,0.95 -5.6,1.25 l -0.3,0.8 -0.1,0.2 0.5,0.75 q 0.5,0.9 0.3,2 -0.15,0.85 -0.65,1.55 l 0.7,0.7 2.15,2.95 2.85,3.7 2.75,3.8 q 2.1,3.25 3.2,7.25 0.7,2.8 -0.45,3.95 -0.65,0.7 -1.8,0.75 L 32.4,25.75 Q 28.15,24.4 23.55,19.45 21.3,17 19.35,14.35 L 17.9,12.15 H 17.8 L 17,12.1 16.75,12.8 q -0.4,0.85 -1.2,1.3 1.45,4.2 0.1,8.95 -0.85,3.05 -2.7,5.35 -1.6,2.05 -3.65,3.05 l 0.3,0.7 0.55,1.85 0.25,1.9 q 0,1.5 -0.85,2.65 L 9,39.1 Q 7.9,40.15 6.4,40.05 L 5.15,39.8 4.4,39.4 3.25,38.45 q -1,1.35 -2.5,2.2 L -0.4,41.1 q -1.4,0.3 -2.85,-0.4 L -4.4,40 -5.35,38.8 Q -6,37.8 -5.7,36 l 0.45,-1.95 H -5.5 M -1.8,4.55 Q 1.4,3.45 5,4.45 8.35,5.35 11.1,7.8 L 11.2,7.9 11.85,7.5 13.65,7.3 14,7.4 Q 14.2,6.55 15,5.85 15.7,5.35 16.55,5.1 16.9,3.8 17.7,2.9 l 0.4,-0.4 -0.3,-1 Q 17.7,0.55 18.1,-0.3 L 19.05,-1.6 18.9,-2.05 18.75,-2.7 q -1,-0.45 -1.55,-1.5 -0.65,-1.05 -0.45,-2.2 l 0.55,-1.45 q 0.8,-1.4 2,-2.35 v -1.1 q -0.95,-0.3 -1.6,-1.25 -0.85,-1.45 -0.25,-2.8 l 0.2,-0.35 -0.45,-0.05 q -0.95,-0.1 -1.65,-0.75 l -0.85,0.65 q -1.35,0.9 -2.85,0.65 -0.85,-0.15 -1.5,-0.7 -0.9,1.35 -2.35,1.8 -1.65,0.6 -3.1,-0.3 -0.8,-0.5 -1.1,-1.25 l -0.1,-0.6 -0.5,0.2 -1.65,-0.15 q -1.75,-0.5 -2.4,-1.35 l -0.45,-1 -1.5,-0.05 q -0.7,-0.1 -1.5,-0.85 -1.15,-1.05 -1.15,-2.6 l 0.05,-0.55 q -0.45,-0.15 -0.9,-0.45 -0.9,-0.45 -1.3,-1.05 -0.7,-0.9 -0.45,-2.15 0.2,-0.95 0.95,-1.65 l -0.35,-0.3 -0.6,-1 q -0.95,0.75 -2.25,0.85 -1.4,0.1 -2.5,-0.75 l -0.2,0.55 -0.55,1.05 -0.5,0.55 q -1.6,1.45 -3.55,1.05 h -0.05 l -0.05,0.15 q -0.2,0.6 -0.7,1.05 -0.8,0.6 -2.4,0.9 l -2.05,0.1 -0.25,0.9 q -0.65,1.7 -2.5,2.1 l 0.15,0.75 q 0.1,1.4 -0.75,2.4 l -0.2,0.25 0.25,0.2 q 0.7,0.6 0.9,1.25 l 0.05,0.05 1.6,-0.9 2.4,-1.15 2.25,0.3 q 1.1,0.5 1.85,1.45 1.25,1.75 1.1,4.45 -0.1,1.9 -0.9,3.25 -0.85,1.45 -2.6,2.45 l 0.7,0.7 0.45,1.05 1.15,0.15 q 1.85,0.5 3.1,1.95 1.25,1.55 1.65,3.6 l 1,-0.1 1.5,0.15 q 1.15,0.3 1.85,1.5 l 0.45,1.3 0.3,-0.1 1.5,0.25 q 0.8,0.35 1.15,1 l 0.15,0.45 q 1.4,-0.9 2.75,-1.4 m -17.8,-16.9 -0.5,-1.35 -0.25,-0.35 -0.55,0.2 q -4.4,3.05 -8.6,3.85 l -1.5,0.2 -3.75,0.5 q -0.8,0.2 -1.65,0.8 l -0.3,0.4 0.1,0.3 0.95,0.6 1.05,0.4 q 0.8,0.55 1.25,0.6 l 1.25,-0.1 1.65,-0.4 5.15,-1.3 h 0.1 v -0.1 q 0,-1.25 0.95,-2.3 0.75,-0.95 2,-1.3 1.25,-0.25 2.15,0.35 l 0.2,0.1 0.05,0.05 0.05,-0.2 0.2,-0.75 v -0.2 m 46.15,-10.15 -0.45,0.1 -1.25,0.15 -4,0.4 q -1,0.3 -1.45,0.6 l -0.45,0.45 -0.25,0.55 -0.05,0.45 0.2,0.3 0.05,0.1 0.35,0.4 h 0.55 0.3 l 1.95,-0.15 h 0.1 l 0.5,-0.05 2.2,-0.6 1.6,-0.6 1.5,-0.9 1,-0.8 q 0.95,-0.85 1.35,-1.85 l -3.75,1.45 m 0.8,16.85 2.45,-0.7 1.85,-0.7 2.05,-1 q 1.75,-1.1 2.85,-2.85 l -1.8,1.25 q -0.6,0.35 -1.6,0.55 l -1.8,0.3 -1.15,0.1 -1.3,0.1 -3.45,0.45 q -1.8,0.45 -3.25,1.55 l -0.15,0.15 0.15,0.2 0.8,0.85 0.7,0.3 0.1,0.05 3.15,-0.55 0.4,-0.05 m -6.05,15.1 2.45,3.2 4.15,4.55 q 2.55,2.55 4.35,3.25 Q 30.8,17 29.85,15.7 L 28.7,14.25 27.7,13 22.7,6.95 Q 22.05,6.2 21.65,6 20.2,5.85 19.8,5.3 v 0.1 l 0.05,0.05 q 0.85,0.6 1,1.8 L 20.8,8.7 21.3,9.45 M 10.2,14.3 Q 8.5,11.4 5.15,9.85 2.8,8.8 0.8,9.15 q -1.9,0.4 -4,2.2 -3.05,2.6 -4.8,5.5 -1.4,2.35 -1.9,4.9 -0.45,2.5 0.2,4.1 1.05,2.35 4.05,3.3 l 2.2,0.7 0.9,0.7 0.45,-1.35 0.35,-0.55 0.65,-0.75 Q 0.3,26.75 2.2,27.45 L 3.1,27.9 3.65,28.45 4,29.05 4.65,29 H 5 Q 5.55,28.65 6.25,28.75 L 8.1,27.15 7,26.2 6.25,25.05 Q 5.9,24.15 6.15,23.3 L 6.4,22.6 7.05,21.55 q 0.8,-1.1 2.3,-1.45 l 2.25,0.15 q 0.15,-2.6 -0.85,-4.9 L 10.2,14.3 m -16.6,5.7 0.65,-0.4 2.3,-0.15 q 1,0.3 1.75,1.1 0.65,0.7 0.95,1.6 l 0.1,0.35 q 0.25,1.15 -0.1,2.25 -0.4,1.05 -1.3,1.8 -0.95,0.75 -2.05,0.85 -1.1,0.1 -2.15,-0.45 -1,-0.6 -1.55,-1.6 -0.5,-1 -0.4,-2.2 0.15,-1.2 0.8,-2.15 l 1,-1 m 4.25,17.15 q 0.5,0.65 1.55,0.35 L 0.75,36.45 1.3,35.4 1.5,34.1 Q 1.7,33.6 2.2,33.35 L 2.15,32.45 2.3,31.65 2.1,30.7 1.5,29.9 0.85,29.65 q -0.4,0.05 -0.6,0.7 l -0.3,0.6 -0.1,1.05 -0.35,1.2 -0.35,1 -0.5,0.85 q -0.25,0.25 -0.45,0.2 l -0.25,-0.05 -0.1,0.3 -0.15,1.35 0.15,0.3 M 7,35.7 6.85,34.65 6.3,33.15 5.9,32.4 q -0.95,-0.35 -1.35,-1 l -0.15,1.1 -0.15,1.3 0.1,0.15 0.7,1 q 0.55,1.1 1.15,1.3 L 6.85,36.15 7,35.7 M -19.65,11.9 -19.6,11.85 Q -17.7,8.8 -17,7 L -17.95,6.4 Q -18.7,5.7 -18.9,4.6 -19.1,3.55 -18.65,2.65 l 1.05,-1.25 0.7,-0.5 -0.6,-0.85 q -0.7,-0.6 -1.3,-0.3 -0.55,0.2 -0.9,1 -1.8,3.6 -2.25,6.75 l -0.45,3.8 -0.05,0.45 -0.7,2.3 q -1.65,4.7 -4.4,8.4 l 0.35,0.35 q 2,-2.05 5.3,-7.3 l 2.25,-3.6"
         fill="#000000"
         fill-rule="evenodd"
         stroke="none"
         id="path1" />
      <path
         d="m -31,-9.8 1.5,-0.2 q 4.2,-0.8 8.6,-3.85 l 0.55,-0.2 0.25,0.35 0.5,1.35 -0.5,1 q -0.9,-0.6 -2.15,-0.35 -1.25,0.35 -2,1.3 -0.95,1.05 -0.95,2.3 V -8 h -0.1 l -5.15,1.3 q -0.9,-0.5 -1.05,-1.5 -0.15,-0.9 0.5,-1.6 m 49.85,-9.7 -0.2,-0.3 0.05,-0.45 0.25,-0.55 0.45,-0.45 q 0.45,-0.3 1.45,-0.6 l 4,-0.4 1.25,-0.15 0.45,-0.1 q 0.15,0.8 -0.3,1.4 l -1.3,0.95 q -1.4,0.7 -2.8,1 h -0.1 l -1.95,0.15 -0.85,-0.25 -0.4,-0.25 m 11.35,10.8 -0.3,1.05 q -0.5,0.75 -1.65,1.45 l -0.9,0.55 -0.4,0.05 L 23.8,-5.05 23.7,-5.1 23,-5.4 22.2,-6.25 22.05,-6.45 22.2,-6.6 q 1.45,-1.1 3.25,-1.55 L 28.9,-8.6 30.2,-8.7 M 27.7,13 27.55,13.05 H 26.7 Q 25.9,12.8 24.8,12 L 21.3,9.45 20.8,8.7 20.85,7.25 q -0.15,-1.2 -1,-1.8 L 19.8,5.4 V 5.3 q 0.4,0.55 1.85,0.7 0.4,0.2 1.05,0.95 l 5,6.05 M -8,16.85 q 1.75,-2.9 4.8,-5.5 2.1,-1.8 4,-2.2 2,-0.35 4.35,0.7 3.35,1.55 5.05,4.45 l 0.35,0.8 q 0.25,0.9 -0.1,2.25 l -0.7,1.6 Q 9.15,19.9 7.85,20.7 4.5,22.75 0.4,22.35 l -1.15,-0.2 q -0.3,-0.9 -0.95,-1.6 -0.75,-0.8 -1.75,-1.1 L -5.75,19.6 -6.4,20 Q -7.6,19 -7.9,17.7 L -8,16.85 m -14.45,-5.1 0.05,-0.45 0.45,-3.8 q 0.45,-3.15 2.25,-6.75 0.35,-0.8 0.9,-1 0.6,-0.3 1.3,0.3 l 0.6,0.85 -0.7,0.5 -1.05,1.25 q -0.45,0.9 -0.25,1.95 0.2,1.1 0.95,1.8 L -17,7 q -0.7,1.8 -2.6,4.85 l -0.05,0.05 -1.35,0.3 -1.45,-0.45"
         fill="#e9e9e9"
         fill-rule="evenodd"
         stroke="none"
         id="path2" />
      <path
         d="m -31,-9.8 q -0.65,0.7 -0.5,1.6 0.15,1 1.05,1.5 l -1.65,0.4 -1.25,0.1 q -0.45,-0.05 -1.25,-0.6 l -1.05,-0.4 -0.95,-0.6 -0.1,-0.3 0.3,-0.4 q 0.85,-0.6 1.65,-0.8 L -31,-9.8 m 53.15,-9.35 q 1.4,-0.3 2.8,-1 l 1.3,-0.95 q 0.45,-0.6 0.3,-1.4 l 3.75,-1.45 q -0.4,1 -1.35,1.85 l -1,0.8 -1.5,0.9 -1.6,0.6 -2.2,0.6 -0.5,0.05 m 5.2,13.5 0.9,-0.55 q 1.15,-0.7 1.65,-1.45 l 0.3,-1.05 1.15,-0.1 1.8,-0.3 q 1,-0.2 1.6,-0.55 l 1.8,-1.25 q -1.1,1.75 -2.85,2.85 l -2.05,1 -1.85,0.7 -2.45,0.7 M 21.3,9.45 24.8,12 q 1.1,0.8 1.9,1.05 h 0.85 L 27.7,13 l 1,1.25 1.15,1.45 q 0.95,1.3 2.4,4.75 -1.8,-0.7 -4.35,-3.25 L 23.75,12.65 21.3,9.45 m -29.3,7.4 0.1,0.85 q 0.3,1.3 1.5,2.3 l -1,1 q -0.65,0.95 -0.8,2.15 -0.1,1.2 0.4,2.2 0.55,1 1.55,1.6 1.05,0.55 2.15,0.45 1.1,-0.1 2.05,-0.85 0.9,-0.75 1.3,-1.8 0.35,-1.1 0.1,-2.25 l -0.1,-0.35 1.15,0.2 q 4.1,0.4 7.45,-1.65 1.3,-0.8 1.9,-1.75 l 0.7,-1.6 Q 10.8,16 10.55,15.1 l -0.35,-0.8 0.55,1.05 q 1,2.3 0.85,4.9 L 9.35,20.1 q -1.5,0.35 -2.3,1.45 L 6.4,22.6 6.15,23.3 q -0.25,0.85 0.1,1.75 L 7,26.2 8.1,27.15 6.25,28.75 Q 5.55,28.65 5,29 H 4.65 L 4,29.05 3.65,28.45 3.1,27.9 2.2,27.45 q -1.9,-0.7 -3.3,0.45 l -0.65,0.75 -0.35,0.55 -0.45,1.35 -0.9,-0.7 -2.2,-0.7 q -3,-0.95 -4.05,-3.3 -0.65,-1.6 -0.2,-4.1 0.5,-2.55 1.9,-4.9 m -14.45,-5.1 1.45,0.45 1.35,-0.3 -2.25,3.6 q -3.3,5.25 -5.3,7.3 l -0.35,-0.35 q 2.75,-3.7 4.4,-8.4 l 0.7,-2.3"
         fill="#c4c4c4"
         fill-rule="evenodd"
         stroke="none"
         id="path3" />
      <path
         d="m 7,35.7 -0.15,0.45 -0.65,0.1 q -0.6,-0.2 -1.15,-1.3 l -0.7,-1 -0.1,-0.15 0.15,-1.3 0.15,-1.1 q 0.4,0.65 1.35,1 l 0.4,0.75 0.55,1.5 L 7,35.7 m -9.15,1.45 -0.15,-0.3 0.15,-1.35 0.1,-0.3 0.25,0.05 q 0.2,0.05 0.45,-0.2 l 0.5,-0.85 0.35,-1 0.35,-1.2 0.1,-1.05 0.3,-0.6 q 0.2,-0.65 0.6,-0.7 l 0.65,0.25 0.6,0.8 0.2,0.95 -0.15,0.8 0.05,0.9 Q 1.7,33.6 1.5,34.1 L 1.3,35.4 0.75,36.45 -0.6,37.5 q -1.05,0.3 -1.55,-0.35"
         fill="#eeeeee"
         fill-rule="evenodd"
         stroke="none"
         id="path4" />
    </g>
    <g
       id="sprite1"
       transform="translate(17.4,15.85)">
      <use
         ffdec:characterId="31"
         height="57.200001"
         transform="matrix(0.5366,0,0,0.5366,-16.6582,-14.546)"
         width="70.75"
         xlink:href="#sprite2"
         id="use4" />
    </g>
    <g
       id="sprite2"
       transform="translate(-8.65,-10.35)">
      <use
         ffdec:characterId="30"
         height="57.200001"
         transform="translate(8.65,10.35)"
         width="70.75"
         xlink:href="#shape1"
         id="use5" />
    </g>
    <g
       id="shape1"
       transform="translate(-8.65,-10.35)">
      <path
         d="m 14.8,41.7 q 0.65,-1.75 2.65,-2.5 1.8,-0.8 3.7,-0.25 1.15,0.45 2.25,1.2 l 0.9,0.4 q 1.65,0.9 2.85,2.5 L 37.8,30.1 q 2.35,-2.8 3.75,-3.95 1.5,-1.15 4.25,-2.4 18.2,-8.85 27.65,-12.6 2.15,-0.8 3.25,-0.8 h 0.8 l 1.9,2.4 -0.2,0.8 q -0.2,1.1 -1.55,3 -5.85,8.25 -18.85,23.8 -1.85,2.35 -3.35,3.5 -1.4,1.15 -4.75,2.75 l -15.15,7.15 q 1.2,1.6 1.75,3.4 l 0.2,1 0.55,2.5 q 0.1,1.95 -1.1,3.55 -1.2,1.65 -3.05,1.9 l -1.3,0.05 q -1.65,0.2 -3.45,-0.65 -1.85,-0.9 -3,-2.6 L 25,60.95 23.8,62.1 q -2.6,2.85 -4.3,3.95 -2.85,1.8 -5.5,1.45 l -1.65,-0.5 -1.2,-0.7 -0.2,-0.2 q -1,-0.85 -1.6,-1.9 L 9.25,64 9.15,63.8 8.75,62.4 q -0.2,-0.8 -0.05,-1.7 0.25,-2.65 2.7,-5.05 1.5,-1.3 4.9,-3.15 L 17.7,51.55 16.05,50 q -1.35,-1.5 -1.8,-3.6 -0.4,-1.85 0.25,-3.45 l 0.3,-1.25"
         fill="#000000"
         fill-opacity="0.372549"
         fill-rule="evenodd"
         stroke="none"
         id="path5" />
    </g>
  </defs>
</svg>
