<?xml version="1.0" encoding="UTF-8" standalone="no"?>
<svg
   ffdec:objectType="frame"
   height="72.599998"
   width="64.950623"
   version="1.1"
   id="svg6"
   xmlns:xlink="http://www.w3.org/1999/xlink"
   xmlns="http://www.w3.org/2000/svg"
   xmlns:svg="http://www.w3.org/2000/svg"
   xmlns:ffdec="https://www.free-decompiler.com/flash">
  <g
     transform="translate(31.8725,32.4)"
     id="g1">
    <use
       ffdec:characterId="17"
       height="119.15"
       id="rarity"
       transform="translate(-58.5,-60.65)"
       width="119.15"
       xlink:href="#sprite0" />
    <use
       ffdec:characterId="255"
       height="72.800003"
       transform="translate(-31.85,-32.45)"
       width="64.949997"
       xlink:href="#shape0"
       id="use1" />
  </g>
  <defs
     id="defs6">
    <g
       id="shape0"
       transform="translate(31.55,34.95)">
      <path
         d="m -13.35,-21.55 q 2.95,0.5 3.75,1.85 l 0.7,2.05 q 0.3,1.2 1,1.65 0.7,0.5 1.65,0.2 l 1.5,-1 1.25,-1.25 1.4,-1 q 1.3,-0.5 3.85,0.65 5.25,2.2 7.8,4.05 1.3,0.95 2.05,0.95 0.75,0.05 1.8,-0.55 5.35,-2.95 11.35,-5.1 l -2.4,-0.7 -6.55,-2.15 -17.9,-6.3 q -2.7,-1 -4,-0.9 -0.95,0.1 -2.75,0.8 -7.65,3 -12.5,5.35 l 8,1.4 m 5.8,11.2 -0.95,-0.15 q -2,-0.45 -3.65,-1.9 -1.6,-1.45 -2.1,-3.4 -5.9,-1.6 -11.55,-2 0.25,15.8 1.05,32.45 l 0.25,-0.3 q 0.95,-0.7 1.6,-0.95 l 1.85,-0.2 2.35,0.3 q 1.8,0.65 2.65,2.05 0.8,1.2 0.8,3.55 -0.05,1.4 -0.25,2.55 4.3,0.75 8.1,1.9 V 23.5 q -0.1,-1.8 0.3,-2.7 0.5,-1.25 2.4,-2.6 1.1,-0.9 1.9,-1.1 l 2.55,0.05 Q 1.8,17.5 3.6,19.85 L 8,-7 Q 8.25,-8.25 7.95,-9.05 7.6,-9.9 6.5,-10.6 q -1.6,-1 -4.8,-2.25 l -1.6,-0.25 -1.2,0.7 q -1.55,1.25 -3.45,1.75 l -1.65,0.3 H -7.55 M 4.1,5.8 4.7,6.4 Q 4.95,7 4.75,7.8 4.35,8.9 3.35,9.1 H 3.3 L 2.3,8.85 1.1,8.5 0.75,8.4 -0.35,10 -2.5,12.45 q -1.25,1.25 -2.6,1.75 l -2.95,0.4 v 0.6 l -0.15,1.75 -0.1,0.5 -0.45,1.05 q -0.35,0.5 -1.05,0.55 -0.65,0 -1.15,-0.4 -0.45,-0.4 -0.8,-1.55 L -11.9,16.35 Q -12.2,15.1 -11.95,14.3 -14.1,13.85 -15.2,12.9 L -16.85,11.1 -18.1,9.9 Q -18.65,9.15 -19,7.55 -19.4,5.75 -19.3,4.1 h -1.15 L -21.65,3.95 -22.7,3.5 -23.45,2.55 -23.5,1.45 q 0.35,-0.65 1.35,-0.95 l 0.65,-0.15 2,-0.25 0.9,0.2 q 0.6,-1.6 1.65,-2.75 l 1.05,-1.25 0.9,-1.35 q 0.5,-0.6 1.75,-1.05 l 2.85,-0.65 0.05,-0.5 0.3,-0.6 0.5,-1.05 q 0.3,-0.4 0.85,-0.5 l 1,0.1 0.7,0.65 q 0.4,0.7 0.55,1.6 l 0.05,0.6 q 2.5,0.6 4.35,2.4 l 1.25,1.35 1.55,2.15 q 0.9,1.85 0.7,5.1 0.95,0.25 2.1,0.9 L 4.1,5.8 M 18.45,24.25 19.5,23.55 20.25,22 q 2.2,-7.75 3.7,-17.7 l 2.2,-18 -11.9,5.55 q -0.95,0.4 -1.25,0.8 -0.35,0.5 -0.5,1.4 L 9.45,12.4 q -1.8,10.4 -3.6,18.15 4.7,-2.15 12.6,-6.3 m -48.7,1.2 -1.3,-43.8 q -0.15,-2.65 0.7,-3.8 l 0.3,-0.3 -0.05,-0.55 q 0.05,-1.1 0.7,-1.9 0.8,-1.1 3.2,-2.2 l 15.15,-6.55 q 2.6,-1.1 4.25,-1.25 l 3.55,0.35 3.5,1.15 17.05,6.55 7.05,2.6 q 3.95,1.25 7.2,1.8 1.35,0.2 1.8,0.65 0.65,0.6 0.5,1.55 l -0.4,1.05 -0.2,2.4 -0.6,3.4 -0.35,1.1 -0.5,4.15 q -2.05,16.5 -3.85,24.4 l -1.65,7.65 -0.4,1.95 -0.85,1.8 q -0.9,1.2 -3.6,2.2 -4.65,1.8 -9.15,4.25 l -4.05,2.2 q -2.4,1.15 -4.4,1.4 L -2.8,37.3 -9,35.65 l -8.85,-1.9 q -5.35,-1.1 -8.7,-2.6 -2.25,-1 -3,-2.3 -0.6,-1 -0.7,-3.4 M -14.9,1.5 q -0.5,1.65 -0.4,2.55 v 0.1 l 0.35,1.5 q 0.6,1.65 1.2,2.2 l 0.85,0.75 0.45,0.6 0.8,0.4 0.5,0.1 3.85,0.1 q 1.2,-0.45 2.5,-1.95 1.6,-1.8 1.7,-3.1 v -1 L -2.9,2.8 -3.05,1.9 q -0.6,-1.6 -2,-2.75 l -1.5,-0.95 -1.55,-0.55 -1,-0.15 -1.8,0.45 -1.8,0.7 -0.45,0.3 -0.3,0.2 -1.1,1.35 -0.35,0.95 V 1.5 M 1.7,31.7 1.95,30.1 0.75,29.85 Q -0.3,29.55 -0.6,29.1 l -0.35,-1.15 0.2,-1.15 0.6,-1 0.5,-1.05 0.6,-1.4 0.2,-1.15 -0.5,-0.75 q -0.55,-0.6 -1.1,-0.8 l -1.7,-0.05 -1.25,1.1 -0.55,1.35 0.15,1.5 q -0.05,1.2 -0.95,1.75 l -1.15,0.15 -1.05,0.15 -2.65,-0.2 -2.15,-0.3 -1.7,-0.5 -2.4,-0.1 -2.15,-0.4 q -1.45,-0.45 -1.85,-1.3 -0.3,-0.6 -0.1,-1.5 l 0.45,-1.6 q 0.5,-1.5 0.3,-3 -1.1,-0.7 -1.9,-0.5 l -0.8,0.55 -0.9,1.2 -0.4,0.75 -0.4,0.75 q -0.4,0.35 -0.85,0.5 l 0.1,2.95 0.35,1.45 q 0.35,0.55 1.6,1.1 l 4.1,1.1 15.75,3.65 1.55,0.35 1.25,0.3 1.35,0.3 0.1,-0.45"
         fill="#000000"
         fill-rule="evenodd"
         stroke="none"
         id="path1" />
      <path
         d="m -6.2,-10.35 1.65,0.2 Q -2.35,-9.5 -0.6,-7.6 0.8,-6.1 2,-3.65 4.3,0.8 4.25,4 L 4.1,5.8 3.55,5.45 Q 2.4,4.8 1.45,4.55 1.65,1.3 0.75,-0.55 L -0.8,-2.7 -2.05,-4.05 q -1.85,-1.8 -4.35,-2.4 l -0.05,-0.6 Q -6.6,-7.95 -7,-8.65 l -0.7,-0.65 -1,-0.1 q -0.55,0.1 -0.85,0.5 l -0.5,1.05 -0.3,0.6 -0.05,0.5 -2.85,0.65 q -1.25,0.45 -1.75,1.05 l -0.9,1.35 -1.05,1.25 Q -18,-1.3 -18.6,0.3 l -0.9,-0.2 -2,0.25 q 0.25,-2.75 1.1,-4.2 l 2.45,-2.85 2.4,-1.95 q 2,-1.25 6.75,-1.65 l 1.25,-0.05 H -6.2 M 3.35,9.1 3.3,9.25 Q 2.3,12 -0.05,14 q -2.3,2 -5.15,2.65 l -3,0.3 0.15,-1.75 v -0.6 l 2.95,-0.4 q 1.35,-0.5 2.6,-1.75 L -0.35,10 0.75,8.4 1.1,8.5 2.3,8.85 3.3,9.1 h 0.05 m -15.25,7.25 q -2.4,-0.75 -4.35,-2.3 -1.3,-1 -2.3,-2.4 l -1.55,-2.45 -1.3,-2.95 -0.25,-2.3 1.2,0.15 h 1.15 q -0.1,1.65 0.3,3.45 0.35,1.6 0.9,2.35 l 1.25,1.2 1.65,1.8 q 1.1,0.95 3.25,1.4 -0.25,0.8 0.05,2.05 m -1.25,-17.4 0.45,-0.3 1.8,-0.7 1.8,-0.45 1,0.15 1.55,0.55 1.5,0.95 q 1.4,1.15 2,2.75 l 0.15,0.9 -0.2,0.95 v 1 q -0.1,1.3 -1.7,3.1 -1.3,1.5 -2.5,1.95 l -3.85,-0.1 -0.5,-0.1 -0.8,-0.4 -0.45,-0.6 -0.85,-0.75 q -0.6,-0.55 -1.2,-2.2 l -0.35,-1.5 v -0.1 q -0.1,-0.9 0.4,-2.55 l 0.55,-1 1.2,-1.55 m 10.6,32.25 -15.75,-3.65 -4.1,-1.1 q -1.25,-0.55 -1.6,-1.1 l -0.35,-1.45 -0.1,-2.95 q 0.45,-0.15 0.85,-0.5 l 0.4,-0.75 0.4,-0.75 0.9,-1.2 0.8,-0.55 q 0.8,-0.2 1.9,0.5 0.2,1.5 -0.3,3 l -0.45,1.6 q -0.2,0.9 0.1,1.5 0.4,0.85 1.85,1.3 l 2.15,0.4 2.4,0.1 1.7,0.5 2.15,0.3 2.65,0.2 1.05,-0.15 1.15,-0.15 q 0.9,-0.55 0.95,-1.75 l -0.15,-1.5 0.55,-1.35 1.25,-1.1 1.7,0.05 q 0.55,0.2 1.1,0.8 l 0.5,0.75 -0.2,1.15 -0.6,1.4 -0.5,1.05 -0.6,1 -0.2,1.15 0.35,1.15 q 0.3,0.45 1.35,0.75 L 1.95,30.1 1.7,31.7 0.8,31.85 H 0.25 L -1,31.55 -1.8,31.35 -2.55,31.2"
         fill="#bfb49b"
         fill-rule="evenodd"
         stroke="none"
         id="path2" />
      <path
         d="m -13.35,-21.55 -8,-1.4 q 4.85,-2.35 12.5,-5.35 1.8,-0.7 2.75,-0.8 1.3,-0.1 4,0.9 l 17.9,6.3 6.55,2.15 2.4,0.7 q -6,2.15 -11.35,5.1 -1.05,0.6 -1.8,0.55 -0.75,0 -2.05,-0.95 Q 7,-16.2 1.75,-18.4 -0.8,-19.55 -2.1,-19.05 l -1.4,1 -1.25,1.25 -1.5,1 q -0.95,0.3 -1.65,-0.2 -0.7,-0.45 -1,-1.65 l -0.7,-2.05 q -0.8,-1.35 -3.75,-1.85"
         fill="#b09789"
         fill-rule="evenodd"
         stroke="none"
         id="path3" />
      <path
         d="m -6.2,-10.35 1.65,-0.3 q 1.9,-0.5 3.45,-1.75 l 1.2,-0.7 1.6,0.25 q 3.2,1.25 4.8,2.25 1.1,0.7 1.45,1.55 Q 8.25,-8.25 8,-7 L 3.6,19.85 Q 1.8,17.5 -0.25,17.15 L -2.8,17.1 q -0.8,0.2 -1.9,1.1 -1.9,1.35 -2.4,2.6 -0.4,0.9 -0.3,2.7 v 0.05 q -3.8,-1.15 -8.1,-1.9 0.2,-1.15 0.25,-2.55 0,-2.35 -0.8,-3.55 -0.85,-1.4 -2.65,-2.05 l -2.35,-0.3 -1.85,0.2 q -0.65,0.25 -1.6,0.95 l -0.25,0.3 Q -25.55,-2 -25.8,-17.8 q 5.65,0.4 11.55,2 0.5,1.95 2.1,3.4 1.65,1.45 3.65,1.9 l 0.95,0.15 -1.25,0.05 q -4.75,0.4 -6.75,1.65 l -2.4,1.95 -2.45,2.85 q -0.85,1.45 -1.1,4.2 l -0.65,0.15 q -1,0.3 -1.35,0.95 l 0.05,1.1 0.75,0.95 1.05,0.45 0.25,2.3 1.3,2.95 1.55,2.45 q 1,1.4 2.3,2.4 1.95,1.55 4.35,2.3 l 0.15,0.75 q 0.35,1.15 0.8,1.55 0.5,0.4 1.15,0.4 0.7,-0.05 1.05,-0.55 l 0.45,-1.05 0.1,-0.5 3,-0.3 Q -2.35,16 -0.05,14 2.3,12 3.3,9.25 L 3.35,9.1 Q 4.35,8.9 4.75,7.8 4.95,7 4.7,6.4 L 4.1,5.8 4.25,4 Q 4.3,0.8 2,-3.65 0.8,-6.1 -0.6,-7.6 -2.35,-9.5 -4.55,-10.15 l -1.65,-0.2"
         fill="#9d887c"
         fill-rule="evenodd"
         stroke="none"
         id="path4" />
      <path
         d="m 18.45,24.25 q -7.9,4.15 -12.6,6.3 1.8,-7.75 3.6,-18.15 L 12.5,-5.95 q 0.15,-0.9 0.5,-1.4 0.3,-0.4 1.25,-0.8 l 11.9,-5.55 -2.2,18 q -1.5,9.95 -3.7,17.7 l -0.75,1.55 -1.05,0.7"
         fill="#7c6a61"
         fill-rule="evenodd"
         stroke="none"
         id="path5" />
    </g>
    <g
       id="sprite1"
       transform="translate(17.4,15.85)">
      <use
         ffdec:characterId="31"
         height="57.200001"
         transform="matrix(0.5366,0,0,0.5366,-16.6582,-14.546)"
         width="70.75"
         xlink:href="#sprite2"
         id="use5" />
    </g>
    <g
       id="sprite2"
       transform="translate(-8.65,-10.35)">
      <use
         ffdec:characterId="30"
         height="57.200001"
         transform="translate(8.65,10.35)"
         width="70.75"
         xlink:href="#shape1"
         id="use6" />
    </g>
    <g
       id="shape1"
       transform="translate(-8.65,-10.35)">
      <path
         d="m 14.8,41.7 q 0.65,-1.75 2.65,-2.5 1.8,-0.8 3.7,-0.25 1.15,0.45 2.25,1.2 l 0.9,0.4 q 1.65,0.9 2.85,2.5 L 37.8,30.1 q 2.35,-2.8 3.75,-3.95 1.5,-1.15 4.25,-2.4 18.2,-8.85 27.65,-12.6 2.15,-0.8 3.25,-0.8 h 0.8 l 1.9,2.4 -0.2,0.8 q -0.2,1.1 -1.55,3 -5.85,8.25 -18.85,23.8 -1.85,2.35 -3.35,3.5 -1.4,1.15 -4.75,2.75 l -15.15,7.15 q 1.2,1.6 1.75,3.4 l 0.2,1 0.55,2.5 q 0.1,1.95 -1.1,3.55 -1.2,1.65 -3.05,1.9 l -1.3,0.05 q -1.65,0.2 -3.45,-0.65 -1.85,-0.9 -3,-2.6 L 25,60.95 23.8,62.1 q -2.6,2.85 -4.3,3.95 -2.85,1.8 -5.5,1.45 l -1.65,-0.5 -1.2,-0.7 -0.2,-0.2 q -1,-0.85 -1.6,-1.9 L 9.25,64 9.15,63.8 8.75,62.4 q -0.2,-0.8 -0.05,-1.7 0.25,-2.65 2.7,-5.05 1.5,-1.3 4.9,-3.15 L 17.7,51.55 16.05,50 q -1.35,-1.5 -1.8,-3.6 -0.4,-1.85 0.25,-3.45 l 0.3,-1.25"
         fill="#000000"
         fill-opacity="0.372549"
         fill-rule="evenodd"
         stroke="none"
         id="path6" />
    </g>
  </defs>
</svg>
