<?xml version="1.0" encoding="UTF-8" standalone="no"?>
<svg
   ffdec:objectType="frame"
   height="102.55952"
   width="108.60963"
   version="1.1"
   id="svg9"
   xmlns:xlink="http://www.w3.org/1999/xlink"
   xmlns="http://www.w3.org/2000/svg"
   xmlns:svg="http://www.w3.org/2000/svg"
   xmlns:ffdec="https://www.free-decompiler.com/flash">
  <g
     transform="translate(57.415517,54.159524)"
     id="g1">
    <use
       ffdec:characterId="17"
       height="119.15"
       id="rarity"
       transform="translate(-58.5,-60.65)"
       width="119.15"
       xlink:href="#sprite0" />
    <use
       ffdec:characterId="295"
       height="102.8"
       transform="translate(-57.4,-54.15)"
       width="108.6"
       xlink:href="#shape0"
       id="use1" />
  </g>
  <defs
     id="defs9">
    <g
       id="shape0"
       transform="translate(57.1,56.65)">
      <path
         d="m 44.1,-8.5 0.1,0.4 0.55,1.05 0.2,1.85 q 0.2,2.55 2.1,5.3 1.05,1.6 3.45,4.6 1.3,1.8 0.9,3 -0.15,0.65 -1.5,1.75 l -4.85,3.6 -2.05,1.55 0.2,1.95 -0.8,3.95 q -0.65,2.5 -0.7,3.9 l -0.1,1.95 q -0.1,1.15 -0.55,1.8 -0.7,0.9 -2.7,1.6 L 17,37 11.15,39.1 Q 8.9,40 4.5,41.95 q -5,1.95 -10.95,3.4 l -0.9,0.2 -0.35,0.25 -3.45,0.1 -6.6,-1.9 q -8.5,-2.55 -13,-4.3 -7.1,-2.65 -12.3,-5.85 -2.05,-1.25 -2.5,-2.5 -0.35,-0.85 -0.15,-2.6 l 0.75,-7.7 -6.45,-6.25 -3.65,-3.8 -1.3,-1.2 Q -57.05,9.05 -57.1,8.3 -57.25,7 -55.95,5.9 l 2.35,-1.45 q 2.65,-1.5 5.8,-5.2 l 5.3,-5.95 0.4,-0.35 -2.95,-5.5 -1.95,-4.1 q -0.75,-1.9 -0.3,-3.1 0.35,-1 2.25,-2.25 l 3.4,-2.15 2,-1 q 1.25,-0.25 2.1,0.35 0.45,0.35 1.1,1.85 l 1.05,2.3 q 0.9,-2 1.65,-4.55 0.55,-1.85 1.4,-5.6 1.1,-4.9 1.2,-7.45 l 0.2,-2.3 q 0.35,-1.35 1.45,-1.75 1.15,-0.3 3.05,1.05 5.15,3.85 8.3,5.75 4.35,2.7 8.35,4.05 l -0.5,-1.7 -4.05,-12.95 q -0.95,-2.9 -0.1,-4.3 l 1.85,-1.55 q 3.85,-2.2 7.25,-2 1.4,0.1 2,0.75 0.45,0.45 0.75,1.75 l 3.1,15.1 0.4,3.25 0.55,1.4 2.2,-6.1 0.25,-1.1 q -0.05,-0.6 -0.7,-1.45 -1.75,-2.6 -1.2,-4.2 0.55,-1.45 3.55,-2.65 7.3,-2.8 16.4,-8.6 1.5,-0.95 2.3,-0.85 1.35,0.05 2.1,1.65 0.45,0.9 0.55,2.7 0.9,9.9 2.95,20.1 l 0.25,2.35 q -0.2,1.45 -1.1,2.05 -0.8,0.5 -2.4,0.3 -2.7,-0.4 -4.95,-1.8 -4.2,8.7 -6.6,12.9 l -0.6,1.05 0.45,0.25 1.75,0.6 1.05,0.6 0.5,0.5 2.7,-2.65 4.6,-4.3 4.35,-4.4 q 2.6,-2.6 4.65,-4.05 1.5,-1 2.5,-0.95 1.5,0.15 2.65,1.95 1.65,2.6 2,6.2 0.2,1.55 -0.2,2.6 -0.45,1.1 -2.2,2.5 l -8.35,6.75 0.95,0.05 4.9,0.55 3.65,-0.05 1.85,-0.2 1.05,0.05 0.5,0.5 0.3,0.35 M 23.65,-40.65 23.3,-43 22.35,-50.6 q -2.4,1.6 -4.95,3.05 l -2.35,1.3 -2.25,1.15 -2.45,1.1 -2.65,1.15 q 1.2,2.55 3.95,4.3 l 0.95,0.6 q 1.7,0.9 4.45,1.85 l 1.6,0.5 6.15,1.6 -0.45,-2.3 -0.7,-4.35 m -13.9,7 -0.4,-0.25 q -1.5,-0.95 -2.7,-2 l -0.25,1.65 -0.5,1.85 -1.05,3.15 -0.1,0.3 -0.85,3.05 -0.25,0.95 -1.4,5.55 -0.85,3.25 -0.65,2.4 q 2.25,2.25 5,3.05 l 0.25,0.1 0.1,-0.05 q 0.25,-0.05 0.35,-0.5 l 1.05,-1.95 0.4,-0.75 1.65,-2.65 1.85,-3.2 1.95,-3.6 1.7,-3.25 1.95,-4.2 q -4.7,-1.55 -7.25,-2.9 m 0.5,25.85 q -0.75,1.65 -1.45,2.15 -0.95,0.6 -2.75,0.3 l -3.35,-1 -1.1,3 0.55,3.2 0.2,1.25 1.45,-1.25 5.45,-4.65 1.7,-1.5 q 1.15,-0.7 2.1,-0.35 l 1.45,1.2 1.05,-0.85 0.65,-0.5 q -0.95,-1.55 -0.7,-2.85 l 0.5,-1.1 -3.05,-0.8 -0.6,-0.2 -2.1,3.95 m 11.7,-3.7 -0.5,0.6 -1.15,1.4 -0.35,0.55 0.15,0.5 0.95,0.9 2.15,-1.5 2.8,-2.15 1.35,-1 2.8,-2.2 2.9,-2.35 2.6,-2.2 1,-0.9 0.75,-0.95 -0.05,-1.05 q -0.6,-3 -1.85,-4.1 l -1.55,1.9 -0.75,0.85 -1.95,2.3 -0.65,0.7 -1.85,2 -1.55,1.45 -0.9,0.9 -1.65,1.55 -0.9,0.85 -1.8,1.95 m 1.75,7.3 q -1.55,1.15 -2.45,1.25 -1.45,0.15 -2.95,-1.2 l -0.45,0.55 -1.05,1.3 v 0.05 Q 17.6,-0.8 17.85,0.5 25.4,-3 32.45,-5.6 L 29.5,-5.85 q -1.8,-0.2 -2.55,-0.8 L 23.7,-4.2 M 9.6,4.4 14.15,2.2 13.8,1.1 q -0.55,-2 -1.9,-3.4 L 9.5,-0.1 9,0.35 8.75,0.5 7.8,1.25 5.95,2.75 3.9,4.35 1.2,6.4 0.35,7.05 0,7.4 -0.25,7.7 -0.8,8.3 l -0.8,0.8 -0.85,0.6 -0.1,0.1 -1,1.15 0.15,0.3 1,-0.55 1.35,-0.75 1.9,-1 L 1.3,8.7 Q 2.85,7.85 4.45,7.05 L 6.95,5.75 9.6,4.4 M 36.55,-3.4 Q 14.65,6.2 -4.9,17.85 l -0.05,0.05 q 2.55,1.65 4.45,3.65 l 2.9,3.25 6.25,7.45 0.5,0.35 0.65,-0.35 q 5.55,-5.5 17.7,-13 Q 40.55,11.15 45.6,6.7 L 46,6.15 Q 46,5.8 45.6,5.4 43.55,3.4 42.35,0.65 41.2,-2.05 41.1,-5 v -0.5 q -1.8,0.95 -4.55,2.1 M 25.8,25.9 q -4.4,2.85 -7.75,5.55 L 35.7,25.5 36.6,25.05 36.95,24.1 38.1,18.05 25.8,25.9 m -20.6,9.9 -7.15,-8.35 -3.1,-3.3 -1.6,-1.3 0.1,1.35 1.3,15.5 Q -2.2,39.1 1.9,37.45 L 5.4,36 5.2,35.8 m -44.05,-54.2 -0.8,-1.85 -2.65,1.7 -0.3,0.25 0.1,0.7 1.05,1.95 1.9,3.4 1.15,2.05 0.45,0.85 1.35,2.25 0.2,0.25 1.3,1.5 0.05,0.05 2.2,2.4 0.05,0.05 0.8,0.6 q 0.65,0.2 0.9,-0.35 l -0.4,-1.35 -0.1,-0.35 -0.4,-1.75 -0.05,-0.15 -0.7,-0.65 -0.2,-0.7 V -7.9 l -1,-1.75 -1.1,-1.9 -0.55,-1 -1.55,-2.75 -0.9,-1.6 -0.8,-1.5 m 34.5,-23.2 -0.6,-2.55 -0.05,-0.25 -0.75,-3.4 -0.45,-1.8 q -2.1,0.25 -3.85,1.45 l 0.6,2.25 0.45,1.5 0.55,1.65 0.8,2.55 1.1,3.3 0.1,0.3 1,3.15 0.85,3 0.25,1.15 0.3,0.55 0.4,0.05 q 1.1,-0.15 2,-0.9 l -0.65,-1.95 -0.6,-2.7 v -0.15 l -0.7,-3.7 -0.75,-3.5 m -13,12.2 -1.2,-0.75 -1.05,-0.65 -2.9,-1.85 -1.9,-1.2 -0.4,-0.25 -1.7,-1.2 -0.2,0.8 -0.1,0.85 -0.35,1.75 -0.55,1.75 -0.1,0.7 -0.25,1.35 -1.15,4.85 q -0.6,1.8 -1.35,3.55 l 1.9,-0.2 2.1,-0.4 2.2,-0.6 0.55,-0.2 4.6,-2.05 q 2,-0.8 3.2,-1.6 1.9,-1.2 3.2,-2.85 -2.7,-0.8 -3.9,-1.45 l -0.65,-0.35 m 2,10.8 -0.4,-1.65 -3.55,1.7 q -2.3,1.25 -3.55,1.7 l -3.05,0.85 2,3.3 2.05,3.15 1.65,2.55 1.6,2.35 0.65,0.95 0.95,1.45 0.95,0.85 q 0.3,0.05 1.35,-0.45 l 1.45,-0.45 1.35,-0.55 0.65,-0.55 -0.75,-2.5 -0.5,-1.75 -1,-3.5 -0.9,-3.4 -0.95,-4.05 m -16.4,3.35 -0.9,0.1 2.7,5.2 0.75,-0.4 0.5,-0.1 0.85,-0.4 -0.6,-1.15 -1.3,-3.45 -2,0.2 m 7.15,18.4 q 3.4,1.9 5.05,3 l 3.75,2.75 3.7,2.7 1.45,0.9 -2.9,-7.8 -0.45,-1.5 -1.9,0.3 -2.25,-0.2 -1.95,-1.45 -1.45,-2.1 -4.1,-6.85 -0.55,0.2 -1.9,0.5 0.05,0.1 q 1,1.8 1.3,3.15 0.45,1.95 -0.4,3.3 l -0.8,0.9 3.35,2.1 m 23.3,-27.7 -0.65,0.2 0.05,0.55 0.35,1.65 0.75,-2.6 -0.5,0.2 m -9.35,2.2 -0.8,1.1 0.05,0.85 1,4.3 0.1,-0.05 q 0.5,-0.1 1.45,-0.55 l 1.4,-0.55 q 1.55,-0.4 1.8,-0.55 l 0.5,-0.35 0.3,-0.2 -0.4,-3.75 -0.2,-1 -0.15,-0.9 q -1.25,-0.35 -2.1,-1.2 -1.65,1.7 -2.95,2.85 m 6.2,9.4 0.05,-0.55 -1.1,0.15 -0.95,0.05 -0.85,0.25 -2.25,0.5 2.1,8.25 0.3,1.6 Q -6.8,-1 -8.3,0.4 l -1.5,1.1 0.6,1.2 1.55,3.9 2.5,-5.9 2.5,-5.65 -0.1,-0.6 -0.9,-5.5 q -0.8,-1.05 -0.8,-1.9 m 2.95,17.6 0.2,-0.2 -0.05,-0.55 -0.4,1 0.25,-0.25 m -8.9,32.75 -0.4,-3.6 q -0.55,-4.8 -0.55,-12 l -0.8,1.15 q -4.55,6.65 -10.9,11.85 -1.35,1.05 -2.3,1.25 l 7.85,2.6 7.05,1.95 0.2,0.05 -0.15,-3.25 m -2.9,-21.25 q -1.8,-0.75 -4.15,-2.55 l -4,-2.9 q -2.1,-1.35 -6.5,-3.65 L -32.2,4.15 -40,-1.8 -44.85,3.55 q -2.85,3.4 -5.3,4.75 3.9,5 11.35,11.2 l 12.3,10.35 q 0.4,0.4 0.75,0.45 0.3,0 0.8,-0.4 l 2.9,-2.5 q 2.3,-2.15 4.7,-5.35 l 4.05,-5.9 m -15.35,18.5 -8.2,-6.7 -4.3,-3.55 -0.1,3.1 q -0.1,0.85 0.15,1.35 l 1.05,0.85 q 4.7,2.7 11,5.05 l 0.95,0.35 -0.55,-0.45"
         fill="#000000"
         fill-rule="evenodd"
         stroke="none"
         id="path1" />
      <path
         d="m 10.25,-7.8 2.1,-3.95 0.6,0.2 3.05,0.8 -0.5,1.1 q -0.25,1.3 0.7,2.85 l -0.65,0.5 -1.05,0.85 -1.45,-1.2 Q 12.1,-7 10.95,-6.3 L 9.25,-4.8 3.8,-0.15 2.35,1.1 2.15,-0.15 1.6,-3.35 l 1.1,-3 3.35,1 q 1.8,0.3 2.75,-0.3 0.7,-0.5 1.45,-2.15 m 13.45,3.6 3.25,-2.45 q 0.75,0.6 2.55,0.8 l 2.95,0.25 Q 25.4,-3 17.85,0.5 17.6,-0.8 16.8,-2.25 V -2.3 l 1.05,-1.3 0.45,-0.55 q 1.5,1.35 2.95,1.2 0.9,-0.1 2.45,-1.25 m -48.3,7.35 -3.35,-2.1 0.8,-0.9 q 0.85,-1.35 0.4,-3.3 -0.3,-1.35 -1.3,-3.15 l -0.05,-0.1 1.9,-0.5 0.55,-0.2 4.1,6.85 1.45,2.1 1.95,1.45 2.25,0.2 1.9,-0.3 0.45,1.5 2.9,7.8 -1.45,-0.9 -3.7,-2.7 -3.75,-2.75 q -1.65,-1.1 -5.05,-3 m 20.15,-16.1 q 0,0.85 0.8,1.9 l 0.9,5.5 0.1,0.6 -2.5,5.65 -2.5,5.9 L -9.2,2.7 -9.8,1.5 -8.3,0.4 q 1.5,-1.4 1.15,-3.1 l -0.3,-1.6 -2.1,-8.25 2.25,-0.5 0.85,-0.25 0.95,-0.05 1.1,-0.15 -0.05,0.55"
         fill="#7b7166"
         fill-rule="evenodd"
         stroke="none"
         id="path2" />
      <path
         d="M 36.55,-3.4 Q 39.3,-4.55 41.1,-5.5 V -5 q 0.1,2.95 1.25,5.65 Q 43.55,3.4 45.6,5.4 46,5.8 46,6.15 L 45.6,6.7 q -5.05,4.45 -18.1,12.55 -12.15,7.5 -17.7,13 L 9.15,32.6 8.65,32.25 2.4,24.8 -0.5,21.55 q -1.9,-2 -4.45,-3.65 L -4.9,17.85 Q 14.65,6.2 36.55,-3.4 m -49.85,19.55 -4.05,5.9 q -2.4,3.2 -4.7,5.35 l -2.9,2.5 q -0.5,0.4 -0.8,0.4 -0.35,-0.05 -0.75,-0.45 L -38.8,19.5 q -7.45,-6.2 -11.35,-11.2 2.45,-1.35 5.3,-4.75 l 4.85,-5.35 7.8,5.95 4.25,2.9 q 4.4,2.3 6.5,3.65 l 4,2.9 q 2.35,1.8 4.15,2.55"
         fill="#c8b7a4"
         fill-rule="evenodd"
         stroke="none"
         id="path3" />
      <path
         d="M 25.8,25.9 38.1,18.05 36.95,24.1 36.6,25.05 35.7,25.5 18.05,31.45 Q 21.4,28.75 25.8,25.9 M 5.2,35.8 5.4,36 1.9,37.45 q -4.1,1.65 -7.15,2.25 l -1.3,-15.5 -0.1,-1.35 1.6,1.3 3.1,3.3 7.15,8.35 m -15.6,1.6 0.15,3.25 -0.2,-0.05 -7.05,-1.95 -7.85,-2.6 q 0.95,-0.2 2.3,-1.25 6.35,-5.2 10.9,-11.85 l 0.8,-1.15 q 0,7.2 0.55,12 l 0.4,3.6 m -18.25,-2.75 0.55,0.45 -0.95,-0.35 q -6.3,-2.35 -11,-5.05 l -1.05,-0.85 q -0.25,-0.5 -0.15,-1.35 l 0.1,-3.1 4.3,3.55 8.2,6.7"
         fill="#a39788"
         fill-rule="evenodd"
         stroke="none"
         id="path4" />
      <path
         d="m 17.4,-47.55 0.5,0.65 1.15,1.45 q 2.6,3.35 4.6,4.8 l 0.7,4.35 q -1.75,-0.4 -3.4,-1.75 -1.85,-1.5 -4.6,-5.8 -1,-1.65 -1.3,-2.4 l 2.35,-1.3 m 1.25,11.95 -1.6,-0.5 q -2.75,-0.95 -4.45,-1.85 l -0.05,-0.1 -0.65,-1.4 -1.45,-4.3 -0.1,-0.25 2.45,-1.1 2.5,5.4 q 0.65,1.4 1.3,2.05 l 0.35,0.35 0.95,0.65 0.7,0.85 0.05,0.2 M 6.4,-34.25 6.65,-35.9 q 1.2,1.05 2.7,2 l 0.4,0.25 0.35,0.75 q 0.5,1.1 1.8,2.65 l 3.15,3.7 -1.7,3.25 -2.3,-2.55 -2.15,-2.6 -0.65,-1 q -0.9,-1.4 -1.2,-2.15 l -0.6,-2.35 -0.05,-0.3 m -1.55,5 0.4,0.15 q 0.35,0.25 0.7,1.3 l 1.2,2.55 q 1.2,2.15 2.1,3.25 l 2.15,2.3 -1.85,3.2 Q 7.4,-18.35 6,-20.45 L 4.85,-22.3 Q 4.1,-23.6 3.9,-24.2 l -0.25,-0.75 0.25,-0.95 0.85,-3.05 0.1,-0.3 m -2.6,9.85 0.55,0.35 0.4,0.7 0.6,0.65 1.1,1.65 1.9,2.25 0.7,0.7 -1.05,1.95 q -0.1,0.45 -0.35,0.5 L 6,-10.6 4.6,-11.5 3.65,-12.5 Q 2.4,-14 1.7,-15.55 l -0.3,-0.6 0.85,-3.25 m -21.85,-11.4 1.05,0.65 1.2,0.75 q -0.3,0.95 -0.75,1.5 l -0.85,1.05 -0.75,1.05 q -1.45,2.4 -2.6,3.5 l -1.5,1.2 -0.55,0.2 -2.2,0.6 -2.1,0.4 -0.1,-0.1 q -0.45,-0.6 -0.2,-1.3 l 0.85,-0.95 1.2,-0.65 q 1.15,-0.65 1.85,-1.25 l 2.2,-2.35 1.55,-1.95 1.7,-2.35 m -2.9,-1.85 -0.1,0.15 -1.5,2.95 -1.5,2.3 q -1.7,2.45 -2.65,3.3 l -0.95,0.7 1.15,-4.85 0.25,-1.35 0.05,-0.1 0.65,-1 0.6,-0.85 0.4,-0.75 1.3,-1.95 0.4,0.25 1.9,1.2 m -1.4,19.95 1.15,-0.4 q 1.4,-0.4 2.1,-0.85 l 2.9,-2 1.75,-1.6 0.3,-0.65 0.35,-0.4 0.95,4.05 -1.95,1.75 q -2.8,2.25 -5.05,3.05 l -0.45,0.2 -2.05,-3.15 m 3.7,5.7 1.05,-0.35 1.4,-0.45 q 0.95,-0.45 2.15,-1.5 l 2,-1.8 0.1,-0.05 1,3.5 -0.45,0.7 -0.75,0.75 q -1.25,1.25 -2.35,1.75 l -1.9,0.75 -0.65,-0.95 -1.6,-2.35"
         fill="#b38596"
         fill-rule="evenodd"
         stroke="none"
         id="path5" />
      <path
         d="m 17.4,-47.55 q 2.55,-1.45 4.95,-3.05 l 0.95,7.6 0.35,2.35 q -2,-1.45 -4.6,-4.8 l -1.15,-1.45 -0.5,-0.65 m 6.95,11.25 0.45,2.3 -6.15,-1.6 -0.05,-0.2 -0.7,-0.85 -0.95,-0.65 -0.35,-0.35 q -0.65,-0.65 -1.3,-2.05 l -2.5,-5.4 2.25,-1.15 q 0.3,0.75 1.3,2.4 2.75,4.3 4.6,5.8 1.65,1.35 3.4,1.75 m -11.75,-1.65 -0.95,-0.6 Q 8.9,-40.3 7.7,-42.85 l 2.65,-1.15 0.1,0.25 1.45,4.3 0.65,1.4 0.05,0.1 m -6.2,3.7 0.05,0.3 0.6,2.35 q 0.3,0.75 1.2,2.15 l 0.65,1 2.15,2.6 2.3,2.55 -1.95,3.6 -2.15,-2.3 q -0.9,-1.1 -2.1,-3.25 l -1.2,-2.55 q -0.35,-1.05 -0.7,-1.3 l -0.4,-0.15 1.05,-3.15 0.5,-1.85 m 8.65,7.7 -3.15,-3.7 q -1.3,-1.55 -1.8,-2.65 l -0.35,-0.75 q 2.55,1.35 7.25,2.9 l -1.95,4.2 m -11.4,1.6 0.25,0.75 q 0.2,0.6 0.95,1.9 L 6,-20.45 q 1.4,2.1 3.55,3.95 l -1.65,2.65 -0.4,0.75 -0.7,-0.7 -1.9,-2.25 -1.1,-1.65 -0.6,-0.65 -0.4,-0.7 -0.55,-0.35 1.4,-5.55 m -2.25,8.8 0.3,0.6 q 0.7,1.55 1.95,3.05 l 0.95,1 1.4,0.9 -0.25,-0.1 q -2.75,-0.8 -5,-3.05 l 0.65,-2.4 m -21,-14.65 -1.7,2.35 -1.55,1.95 -2.2,2.35 q -0.7,0.6 -1.85,1.25 l -1.2,0.65 -0.85,0.95 q -0.25,0.7 0.2,1.3 l 0.1,0.1 -1.9,0.2 q 0.75,-1.75 1.35,-3.55 l 0.95,-0.7 q 0.95,-0.85 2.65,-3.3 l 1.5,-2.3 1.5,-2.95 0.1,-0.15 2.9,1.85 m -4.2,9.7 1.5,-1.2 q 1.15,-1.1 2.6,-3.5 l 0.75,-1.05 0.85,-1.05 q 0.45,-0.55 0.75,-1.5 l 0.65,0.35 q 1.2,0.65 3.9,1.45 -1.3,1.65 -3.2,2.85 -1.2,0.8 -3.2,1.6 l -4.6,2.05 m -1,-13 -1.3,1.95 -0.4,0.75 -0.6,0.85 -0.65,1 -0.05,0.1 0.1,-0.7 0.55,-1.75 0.35,-1.75 0.1,-0.85 0.2,-0.8 1.7,1.2 m 9.45,15.5 -0.35,0.4 -0.3,0.65 -1.75,1.6 -2.9,2 q -0.7,0.45 -2.1,0.85 l -1.15,0.4 -2,-3.3 3.05,-0.85 q 1.25,-0.45 3.55,-1.7 l 3.55,-1.7 0.4,1.65 m -6.5,9.05 0.45,-0.2 q 2.25,-0.8 5.05,-3.05 l 1.95,-1.75 0.9,3.4 -0.1,0.05 -2,1.8 q -1.2,1.05 -2.15,1.5 l -1.4,0.45 -1.05,0.35 -1.65,-2.55 m 3.9,5.85 1.9,-0.75 q 1.1,-0.5 2.35,-1.75 l 0.75,-0.75 0.45,-0.7 0.5,1.75 0.75,2.5 -0.65,0.55 -1.35,0.55 -1.45,0.45 q -1.05,0.5 -1.35,0.45 L -17,-2.25 -17.95,-3.7"
         fill="#7e6666"
         fill-rule="evenodd"
         stroke="none"
         id="path6" />
      <path
         d="m 23.2,-9.05 -0.65,-0.9 -0.6,-1.55 1.8,-1.95 0.9,-0.85 0.55,1.8 0.8,1.3 -2.8,2.15 m 3.1,-6.8 0.9,-0.9 1.55,-1.45 0.65,1.95 0.1,0.55 0.5,1.1 0.15,0.2 -2.8,2.2 -0.55,-1.2 -0.15,-0.5 -0.35,-1.95 m 4.95,-5.05 1.95,-2.3 0.75,-0.85 q 0.35,0.4 0.35,1 l -0.1,0.7 0.05,0.65 q 0.1,0.6 0.7,1.6 l 0.7,1.15 -2.6,2.2 -1.15,-1.8 -0.35,-0.85 -0.3,-1.5 M 8.95,0.45 v 0.1 l -0.05,1 0.35,1.2 0.05,0.5 0.15,0.4 L 9.55,4.1 9.6,4.4 6.95,5.75 6.4,4.3 6.25,3.7 6.15,3.15 5.95,2.75 7.8,1.25 8.75,0.5 9,0.35 8.95,0.45 m -4.5,6.6 Q 2.85,7.85 1.3,8.7 L 1.2,6.4 3.9,4.35 l 0.2,0.8 0.35,1.9 m -3.6,1.9 -1.9,1 L -2.4,10.7 -2.45,10.5 -2.55,9.8 -2.45,9.7 -1.6,9.1 -0.8,8.3 -0.25,7.7 0,7.4 0.6,8.1 0.85,8.95 m -42.3,-24.6 1.15,-1.2 0.5,-0.45 0.65,-0.9 0.3,-0.2 0.8,1.5 0.9,1.6 -1,1.5 q -0.75,1.05 -1.4,1.55 l -1.9,-3.4 m 5.85,3.1 0.55,1 1.1,1.9 -0.25,0.4 -0.3,0.4 -1.55,1.75 -0.35,0.25 -0.2,-0.25 -1.35,-2.25 -0.45,-0.85 1.05,-0.9 0.4,-0.4 0.3,-0.45 q 0.4,-0.5 1.05,-0.6 m 2.65,5 0.2,0.7 0.7,0.65 0.05,0.15 0.4,1.75 0.1,0.35 -1.3,1.1 -0.05,-0.05 -2.2,-2.4 0.2,-0.2 1.3,-1.2 0.5,-0.8 0.1,-0.05 M -5,-44.4 q -1.8,1.4 -2.95,1.6 l -0.5,0.05 -0.55,-1.65 -0.45,-1.5 0.9,-0.65 0.95,-0.55 q 1.05,-0.65 1.85,-0.7 l 0.75,3.4 m -2.65,4.2 1.75,-0.55 1.05,-0.65 0.5,-0.2 0.75,3.5 h -0.05 l -0.6,0.55 -0.65,0.35 -1.55,0.6 -0.1,-0.3 -1.1,-3.3 m 4.75,5.8 v 0.15 l 0.6,2.7 -1.55,0.85 -0.75,0.25 -0.85,-3 0.95,-0.3 1.25,-0.55 0.35,-0.1"
         fill="#a8a587"
         fill-rule="evenodd"
         stroke="none"
         id="path7" />
      <path
         d="m 23.2,-9.05 -2.15,1.5 -0.95,-0.9 -0.15,-0.5 0.35,-0.55 1.15,-1.4 0.5,-0.6 0.6,1.55 0.65,0.9 m 1.45,-5.25 1.65,-1.55 0.35,1.95 0.15,0.5 0.55,1.2 -1.35,1 -0.8,-1.3 -0.55,-1.8 m 4.1,-3.9 1.85,-2 0.65,-0.7 0.3,1.5 0.35,0.85 1.15,1.8 -2.9,2.35 -0.15,-0.2 -0.5,-1.1 -0.1,-0.55 -0.65,-1.95 m 5.2,-5.85 1.55,-1.9 q 1.25,1.1 1.85,4.1 l 0.05,1.05 -0.75,0.95 -1,0.9 -0.7,-1.15 q -0.6,-1 -0.7,-1.6 l -0.05,-0.65 0.1,-0.7 q 0,-0.6 -0.35,-1 M 9.5,-0.1 11.9,-2.3 q 1.35,1.4 1.9,3.4 L 14.15,2.2 9.6,4.4 9.55,4.1 9.45,3.65 9.3,3.25 9.25,2.75 8.9,1.55 8.95,0.55 V 0.45 L 9.3,0.35 9.5,-0.1 M 6.95,5.75 4.45,7.05 4.1,5.15 3.9,4.35 5.95,2.75 6.15,3.15 6.25,3.7 6.4,4.3 6.95,5.75 M 1.3,8.7 0.85,8.95 0.6,8.1 0,7.4 0.35,7.05 1.2,6.4 1.3,8.7 m -3.7,2 -1,0.55 -0.15,-0.3 1,-1.15 0.1,0.7 0.05,0.2 m -39.05,-26.35 -1.05,-1.95 -0.1,-0.7 0.3,-0.25 2.65,-1.7 0.8,1.85 -0.3,0.2 -0.65,0.9 -0.5,0.45 -1.15,1.2 m 4.3,0.35 1.55,2.75 q -0.65,0.1 -1.05,0.6 l -0.3,0.45 -0.4,0.4 -1.05,0.9 -1.15,-2.05 q 0.65,-0.5 1.4,-1.55 l 1,-1.5 m 3.2,5.65 1,1.75 v 0.35 l -0.1,0.05 -0.5,0.8 -1.3,1.2 -0.2,0.2 -0.05,-0.05 -1.3,-1.5 0.35,-0.25 1.55,-1.75 0.3,-0.4 0.25,-0.4 m 2.45,5.7 0.4,1.35 q -0.25,0.55 -0.9,0.35 l -0.8,-0.6 1.3,-1.1 M -5,-44.4 l 0.05,0.25 0.6,2.55 -0.5,0.2 -1.05,0.65 -1.75,0.55 -0.8,-2.55 0.5,-0.05 Q -6.8,-43 -5,-44.4 m 1.4,6.3 0.7,3.7 -0.35,0.1 -1.25,0.55 -0.95,0.3 -1,-3.15 1.55,-0.6 0.65,-0.35 0.6,-0.55 h 0.05 m 1.3,6.55 0.65,1.95 q -0.9,0.75 -2,0.9 l -0.4,-0.05 -0.3,-0.55 -0.25,-1.15 0.75,-0.25 1.55,-0.85 M -5.75,-47.8 q -0.8,0.05 -1.85,0.7 l -0.95,0.55 -0.9,0.65 -0.6,-2.25 q 1.75,-1.2 3.85,-1.45 l 0.45,1.8 m 4.25,52.45 -0.25,0.25 0.4,-1 0.05,0.55 -0.2,0.2"
         fill="#cecbb0"
         fill-rule="evenodd"
         stroke="none"
         id="path8" />
    </g>
    <g
       id="sprite1"
       transform="translate(17.4,15.85)">
      <use
         ffdec:characterId="31"
         height="57.200001"
         transform="matrix(0.5366,0,0,0.5366,-16.6582,-14.546)"
         width="70.75"
         xlink:href="#sprite2"
         id="use8" />
    </g>
    <g
       id="sprite2"
       transform="translate(-8.65,-10.35)">
      <use
         ffdec:characterId="30"
         height="57.200001"
         transform="translate(8.65,10.35)"
         width="70.75"
         xlink:href="#shape1"
         id="use9" />
    </g>
    <g
       id="shape1"
       transform="translate(-8.65,-10.35)">
      <path
         d="m 14.8,41.7 q 0.65,-1.75 2.65,-2.5 1.8,-0.8 3.7,-0.25 1.15,0.45 2.25,1.2 l 0.9,0.4 q 1.65,0.9 2.85,2.5 L 37.8,30.1 q 2.35,-2.8 3.75,-3.95 1.5,-1.15 4.25,-2.4 18.2,-8.85 27.65,-12.6 2.15,-0.8 3.25,-0.8 h 0.8 l 1.9,2.4 -0.2,0.8 q -0.2,1.1 -1.55,3 -5.85,8.25 -18.85,23.8 -1.85,2.35 -3.35,3.5 -1.4,1.15 -4.75,2.75 l -15.15,7.15 q 1.2,1.6 1.75,3.4 l 0.2,1 0.55,2.5 q 0.1,1.95 -1.1,3.55 -1.2,1.65 -3.05,1.9 l -1.3,0.05 q -1.65,0.2 -3.45,-0.65 -1.85,-0.9 -3,-2.6 L 25,60.95 23.8,62.1 q -2.6,2.85 -4.3,3.95 -2.85,1.8 -5.5,1.45 l -1.65,-0.5 -1.2,-0.7 -0.2,-0.2 q -1,-0.85 -1.6,-1.9 L 9.25,64 9.15,63.8 8.75,62.4 q -0.2,-0.8 -0.05,-1.7 0.25,-2.65 2.7,-5.05 1.5,-1.3 4.9,-3.15 L 17.7,51.55 16.05,50 q -1.35,-1.5 -1.8,-3.6 -0.4,-1.85 0.25,-3.45 l 0.3,-1.25"
         fill="#000000"
         fill-opacity="0.372549"
         fill-rule="evenodd"
         stroke="none"
         id="path9" />
    </g>
  </defs>
</svg>
