<?xml version="1.0" encoding="UTF-8" standalone="no"?>
<svg
   ffdec:objectType="frame"
   height="64.424889"
   width="90.931381"
   version="1.1"
   id="svg5"
   sodipodi:docname="ITEM Elite Alloy Mask.svg"
   xmlns:inkscape="http://www.inkscape.org/namespaces/inkscape"
   xmlns:sodipodi="http://sodipodi.sourceforge.net/DTD/sodipodi-0.dtd"
   xmlns:xlink="http://www.w3.org/1999/xlink"
   xmlns="http://www.w3.org/2000/svg"
   xmlns:svg="http://www.w3.org/2000/svg"
   xmlns:ffdec="https://www.free-decompiler.com/flash">
  <sodipodi:namedview
     id="namedview5"
     pagecolor="#ffffff"
     bordercolor="#000000"
     borderopacity="0.25"
     inkscape:showpageshadow="2"
     inkscape:pageopacity="0.0"
     inkscape:pagecheckerboard="0"
     inkscape:deskcolor="#d1d1d1"
     fit-margin-top="5"
     fit-margin-left="5"
     fit-margin-right="5"
     fit-margin-bottom="5" />
  <g
     transform="translate(45.190588,33.75)"
     id="g1">
    <use
       ffdec:characterId="17"
       height="119.15"
       id="rarity"
       transform="translate(-58.5,-60.65)"
       width="119.15"
       xlink:href="#sprite0" />
    <use
       ffdec:characterId="963"
       height="64.400002"
       transform="translate(-45.2,-33.75)"
       width="90.949997"
       xlink:href="#shape0"
       id="use1" />
  </g>
  <defs
     id="defs5">
    <g
       id="shape0"
       transform="translate(92,35.1)">
      <path
         d="m -81.55,-16.25 -1.05,1.85 -0.05,0.45 2.45,-1 0.8,-0.25 q 4.4,-1.4 9,-1.95 l 1.95,-0.25 5.4,-0.25 0.3,-1.8 q 0.3,-1 -0.2,-2 l -1.05,-1.95 -2.25,-0.55 -2.05,-0.2 q -5.3,-0.1 -9.8,3.75 -2.05,1.8 -3.45,4.15 m 38.85,4.6 0.5,0.55 0.25,-1.1 q 0.3,-1.3 1.4,-2.2 2.45,-2 5.2,-3.3 l -0.05,-0.85 q 0.35,-10.6 11.05,-12.85 9.2,-1.45 15.55,4.9 4.2,4.25 4.25,9.6 l 0.55,0.3 q 0.85,0.45 1.2,1.4 Q 0.35,-6 -2.2,3.35 -3.1,6.6 -5.55,9 -9.8,13.15 -15.7,13.8 h -0.1 q -0.9,5.95 -6.6,9 -2.85,1.5 -5.5,-0.1 -3,-1.8 -3.65,-5.5 L -31.8,13 -33.2,12.7 q -5.05,0.4 -8.35,-5 L -42,6.8 l -0.8,2 q -1.8,4.25 -6.4,5.05 l -6.65,0.95 q -3.35,1.45 -6.8,2.25 0.05,3.6 -2.4,7 -5.6,7.6 -14.5,4.25 -5.9,-2.2 -8.35,-8 0,-0.9 -0.35,-1.75 L -88.5,17.3 q -0.65,-1.9 -0.55,-3.95 l -0.3,-0.45 Q -92.7,7.6 -91.8,1.35 q 0.35,-2.65 1.05,-5.3 1,-4.1 3.65,-6.8 v -0.4 l 0.3,-0.85 q 0.35,-4.1 2.45,-7.8 1.7,-3 4.4,-4.9 6.35,-4.8 14.4,-4.55 2.45,0.4 4.25,1.5 l -0.6,-2.45 q 2.9,-4.65 9.35,-4.4 l 4.15,-0.5 q 4.45,0.65 4.1,5.6 l 0.7,0.1 1.3,0.5 0.2,0.25 0.15,0.15 0.75,0.7 0.3,0.2 q 0.9,1.5 0.95,3.2 0.1,2.95 -2.1,4.95 -6.65,3.2 -10.05,-3.05 -0.4,-0.7 -0.1,-1.5 0.95,-2.5 2.9,-4.3 l 0.1,-1.4 q -4.45,-0.3 -9,1.25 0.5,2.6 0.5,5.25 0.5,1.4 0.65,3.05 0.1,1.25 -0.1,2.25 8.35,0.35 14.45,6.25 m -42.4,9.55 -0.15,0.45 q -0.35,0.65 -0.3,1.45 l -0.15,2.35 -0.05,0.5 1.85,0.1 q -0.1,-4.05 2.95,-6.8 1.15,-1.05 2.75,-1.9 l 2.3,-0.85 4.65,-0.95 4.95,-0.65 2.45,-0.2 0.55,-0.05 -0.05,-0.3 q -0.2,-1.2 -0.05,-2.5 l 0.05,-0.25 0.05,-0.2 -1.2,0.05 -7.35,1 q -4.45,1 -8.65,2.9 l -0.1,0.05 q -2.55,1.2 -3.8,3.5 l -0.7,1.6 v 0.45 0.25 m 40.4,-24 q -1.8,0.45 -3.3,1.55 -0.6,0.45 -0.6,1.25 0.5,0.75 1.4,0.95 l 1.1,0.3 q 1.05,0 2,-0.55 l 0.55,-0.85 0.2,-0.45 0.15,-0.4 -0.2,-0.45 -0.2,-0.45 -0.1,-0.2 -0.55,-0.45 -0.3,-0.3 h -0.05 l -0.1,0.05 m -24.85,3.4 0.9,0.4 0.3,0.2 0.1,0.2 0.15,0.45 0.1,0.4 v 0.25 l -0.05,0.25 0.05,0.4 v 0.2 l -0.15,0.4 -0.2,0.45 -0.65,0.4 -0.35,0.1 -0.2,0.05 -0.65,-0.1 -0.75,-0.65 -0.25,-0.85 0.1,-0.4 -0.1,-0.5 0.1,-0.4 0.55,-0.85 0.35,-0.2 0.45,-0.15 0.2,-0.05 m 6.2,18.45 q -6.4,0.45 -12.55,1.9 -2.05,0.45 -2.8,2.35 l -0.1,0.65 -0.15,0.4 -0.3,0.85 0.15,1.3 0.65,1.3 10.25,0.45 3.2,-0.45 5.45,-0.3 q 4.9,-1.55 4.15,-6.7 l -0.1,-0.2 -0.1,-0.25 -0.2,-0.2 -0.25,-0.25 -0.45,-0.4 -0.1,-0.15 -1.25,-0.25 -5.5,-0.05 m 4.3,-7.55 -2,-0.1 q 0.55,1.5 0.65,3.1 3.2,0.15 6,1.8 3.2,1.9 3.15,5.65 -0.05,2.65 -1.45,4.75 -2.85,4.35 -8.15,4.55 -10,2.35 -20,0.45 l -1.05,-0.45 -0.5,-0.4 -0.85,-1.1 -0.3,-1.15 h -0.2 -2.3 l -0.05,0.05 q 0.15,1.5 0.65,2.7 1.4,3.5 5.7,4.55 l 3.9,0.25 Q -61.9,11.7 -48.4,8.2 q 1.1,-0.3 1.45,-1.45 1.7,-5.55 1.1,-11.55 -0.2,-2.1 -1.25,-3.85 l -1.5,-1.15 q -2.3,-1.1 -4.8,-1.6 l -5.65,-0.4 m 42.9,-13.45 h -0.05 q -2.1,-0.9 -4.45,-1 l -3.2,0.15 -0.4,0.15 q -1.9,0.5 -3.35,1.8 -0.95,0.8 -1.5,1.9 -0.1,1.35 -0.35,2.65 l 2.85,-0.4 2.1,-0.1 7.15,-0.2 q 4.5,0.3 8.75,1.75 l -1.65,-2.2 q -3.35,1.7 -3.3,-2 l 0.3,-0.9 q -1.4,-1 -2.9,-1.6 m -4.5,-0.3 0.65,0.2 0.35,0.15 0.25,0.25 0.3,0.4 0.15,0.25 q 0.5,1.6 -0.95,2.5 l -1.45,0.15 q -1,-0.5 -1.15,-1.5 l 0.15,-1.3 0.15,-0.2 0.4,-0.45 0.3,-0.2 0.35,-0.1 0.5,-0.1 v -0.05 m -7.65,13.55 5.95,-0.8 2.5,-0.25 -0.05,-0.75 0.05,-0.8 -4.1,0.1 -6.15,0.8 -3.65,0.85 -2.7,1.1 -0.2,0.45 -0.05,0.2 -0.05,0.45 -0.15,0.4 -0.2,0.45 v 1.45 l 0.15,2.2 0.9,8.35 0.1,1.1 0.25,0.4 0.1,0.25 0.15,0.4 0.05,0.2 0.1,0.45 q 2.6,4 7.7,3.8 l 11.65,-0.6 q 5.55,-0.45 8.1,-5.3 1.4,-2.65 1.85,-5.6 v -0.45 l -1.4,0.3 q -0.8,3.4 -3.55,5.9 -0.7,0.6 -1.75,0.85 -9.5,2.15 -19.05,0.7 -0.7,-0.1 -1.05,-0.8 -1.4,-3.05 -1.3,-6.5 -0.55,-1.6 -0.45,-3.25 0.05,-1.2 0.45,-2.15 0.7,-1.75 2.35,-2.85 l 1.4,-0.6 2.05,-0.45 m 6.3,3.5 -5.25,0.6 -1.95,0.6 -0.45,0.3 v 0.2 0.2 l -0.2,1.1 -0.1,0.4 -0.2,1.1 v 0.2 l 0.05,0.45 0.15,1.1 q 0.25,1.25 0.2,2.55 l 0.15,0.2 0.1,0.2 q 8.6,0.45 17.3,-1.35 l 0.05,-0.2 0.05,-0.25 0.25,-0.85 0.1,-0.2 0.1,-0.2 0.15,-0.25 v -0.6 l 0.15,-1.3 q 0.35,-1.5 0,-3 l -0.15,-0.2 -0.35,-0.25 -0.45,-0.2 -9.7,-0.35 m 15.9,3.2 -0.4,-4.3 q -0.2,-1.65 -0.9,-3.2 l -0.8,-0.45 -0.45,-0.2 -0.25,-0.15 -8.45,-0.95 V -13 q 4.15,0.25 7.95,2.1 1.9,0.9 2.15,3.05 l 0.15,2.55 0.45,0.05 0.55,0.1 V -5.3 m -21.4,19.65 v 1.75 l 0.45,1.05 0.1,0.85 0.25,0.45 0.4,0.65 q 4.2,0.45 6.25,-3.85 l 0.55,-1.15 -8,-0.35 v 0.6 m -56,2.9 -1.2,-0.4 0.65,1.7 1.45,2.9 q 4.3,4.15 9.55,2.55 3.6,-1.1 5.25,-4.55 l 0.25,-1.6 -5.3,0.15 q -5.1,0.8 -10.65,-0.75"
         fill="#000000"
         fill-rule="evenodd"
         stroke="none"
         id="path1" />
      <path
         d="m -79.4,-15.2 -0.95,-0.3 q -0.8,-0.3 -1.2,-0.75 1.4,-2.35 3.45,-4.15 4.5,-3.85 9.8,-3.75 l 2.05,0.2 q 0.85,1.25 -0.25,3.75 -0.7,1.65 -1.95,2.8 l -1.95,0.25 q -4.6,0.55 -9,1.95 m -1.55,11.15 -3,-0.05 -0.45,-0.3 q 1.25,-2.3 3.8,-3.5 l 0.1,-0.05 q 4.2,-1.9 8.65,-2.9 l 0.65,0.2 0.3,0.25 0.15,0.25 0.25,0.5 0.1,0.25 q -0.3,0.9 -0.85,1.65 l -4.65,0.95 -2.3,0.85 q -1.6,0.85 -2.75,1.9 m 11.4,-18.65 -0.2,0.05 -0.45,0.15 -0.35,0.2 -0.55,0.85 -0.1,0.4 0.1,0.5 -0.1,0.4 0.25,0.85 0.75,0.65 0.65,0.1 0.2,-0.05 0.35,-0.1 0.65,-0.4 0.2,-0.45 0.15,-0.4 v -0.2 l -0.05,-0.4 0.05,-0.25 v -0.25 l -0.1,-0.4 -0.15,-0.45 -0.1,-0.2 -0.3,-0.2 -0.9,-0.4 m 24.85,-3.4 0.1,-0.05 h 0.05 l 0.3,0.3 0.55,0.45 0.1,0.2 0.2,0.45 0.2,0.45 -0.15,0.4 -0.2,0.45 -0.55,0.85 q -0.95,0.55 -2,0.55 l -1.1,-0.3 q -0.9,-0.2 -1.4,-0.95 0,-0.8 0.6,-1.25 1.5,-1.1 3.3,-1.55 m 24.05,-0.15 q 2.35,0.1 4.45,1 h 0.05 l 0.45,0.75 0.2,1 0.05,1 -1.9,2.2 -7.15,0.2 -2.1,0.1 -0.35,-0.2 q -1.8,-1 -1.2,-3.05 2.45,-2.55 6,-2.9 l 1.5,-0.1 m 0,0.7 v 0.05 l -0.5,0.1 -0.35,0.1 -0.3,0.2 -0.4,0.45 -0.15,0.2 -0.15,1.3 q 0.15,1 1.15,1.5 l 1.45,-0.15 q 1.45,-0.9 0.95,-2.5 l -0.15,-0.25 -0.3,-0.4 -0.25,-0.25 -0.35,-0.15 -0.65,-0.2 m -9.45,11.85 0.8,0.3 0.25,0.25 0.5,0.7 0.25,0.45 -2.05,0.45 -1.4,0.6 q -1.65,1.1 -2.35,2.85 l -2.6,-0.2 -0.4,-0.05 V -9.8 l 0.2,-0.45 0.15,-0.4 0.05,-0.45 0.05,-0.2 0.2,-0.45 2.7,-1.1 3.65,-0.85"
         fill="#d9d9d9"
         fill-rule="evenodd"
         stroke="none"
         id="path2" />
      <path
         d="m -79.4,-15.2 -0.8,0.25 -2.45,1 0.05,-0.45 1.05,-1.85 q 0.4,0.45 1.2,0.75 l 0.95,0.3 m 13.15,-8.75 2.25,0.55 1.05,1.95 q 0.5,1 0.2,2 l -0.3,1.8 -5.4,0.25 q 1.25,-1.15 1.95,-2.8 1.1,-2.5 0.25,-3.75 m -14.7,19.9 Q -84,-1.3 -83.9,2.75 l -1.85,-0.1 0.05,-0.5 0.15,-2.35 q -0.05,-0.8 0.3,-1.45 l 0.15,-0.45 1.15,-2 3,0.05 m 9.1,-6.8 7.35,-1 1.15,0.15 -0.05,0.25 q -0.15,1.3 0.05,2.5 l -0.55,0.05 -2.15,0.3 -0.25,0.2 -4.95,0.65 q 0.55,-0.75 0.85,-1.65 l -0.1,-0.25 -0.25,-0.5 -0.15,-0.25 -0.3,-0.25 -0.65,-0.2 m 12.8,-0.95 5.65,0.4 q 2.5,0.5 4.8,1.6 l 1.5,1.15 q 1.05,1.75 1.25,3.85 0.6,6 -1.1,11.55 -0.35,1.15 -1.45,1.45 -13.5,3.5 -27.45,4.65 l -3.9,-0.25 q -4.3,-1.05 -5.7,-4.55 -0.5,-1.2 -0.65,-2.7 l 0.05,-0.05 h 2.3 0.2 l 0.3,1.15 0.85,1.1 0.5,0.4 1.05,0.45 q 10,1.9 20,-0.45 5.3,-0.2 8.15,-4.55 1.4,-2.1 1.45,-4.75 0.05,-3.75 -3.15,-5.65 -2.8,-1.65 -6,-1.8 -0.1,-1.6 -0.65,-3.1 l 2,0.1 m 41.7,-8.5 1.9,-2.2 -0.05,-1 -0.2,-1 -0.45,-0.75 q 1.5,0.6 2.9,1.6 l -0.3,0.9 q -0.05,3.7 3.3,2 l 1.65,2.2 q -4.25,-1.45 -8.75,-1.75 m -19.75,11.95 0.4,0.05 2.6,0.2 q -0.4,0.95 -0.45,2.15 -0.1,1.65 0.45,3.25 -0.1,3.45 1.3,6.5 0.35,0.7 1.05,0.8 9.55,1.45 19.05,-0.7 1.05,-0.25 1.75,-0.85 2.75,-2.5 3.55,-5.9 l 1.4,-0.3 v 0.45 q -0.45,2.95 -1.85,5.6 -2.55,4.85 -8.1,5.3 L -27.6,8.8 Q -32.7,9 -35.3,5 l -0.1,-0.45 -0.05,-0.2 -0.15,-0.4 -0.1,-0.25 -0.25,-0.4 -0.1,-1.1 -0.9,-8.35 -0.15,-2.2 m 31,3.05 v 0.15 L -6.65,-5.25 -7.1,-5.3 -7.25,-7.85 Q -7.5,-10 -9.4,-10.9 q -3.8,-1.85 -7.95,-2.1 v -1.55 l 8.45,0.95 0.25,0.15 0.45,0.2 0.8,0.45 q 0.7,1.55 0.9,3.2 l 0.4,4.3"
         fill="#afafaf"
         fill-rule="evenodd"
         stroke="none"
         id="path3" />
      <path
         d="m -63.35,-4.25 5.5,0.05 1.25,0.25 0.1,0.15 0.45,0.4 0.25,0.25 0.2,0.2 0.1,0.25 0.1,0.2 q 0.75,5.15 -4.15,6.7 L -65,4.5 -68.2,4.95 -78.45,4.5 -79.1,3.2 -79.25,1.9 -78.95,1.05 -78.8,0.65 -78.7,0 q 0.75,-1.9 2.8,-2.35 6.15,-1.45 12.55,-1.9 M -22,-8.5 l 9.7,0.35 0.45,0.2 0.35,0.25 0.15,0.2 q 0.35,1.5 0,3 l -0.15,1.3 v 0.6 l -0.15,0.25 -0.1,0.2 -0.1,0.2 -0.25,0.85 -0.05,0.25 -0.05,0.2 q -8.7,1.8 -17.3,1.35 l -0.1,-0.2 -0.15,-0.2 q 0.05,-1.3 -0.2,-2.55 l -0.15,-1.1 -0.05,-0.45 V -4 l 0.2,-1.1 0.1,-0.4 0.2,-1.1 V -6.8 -7 l 0.45,-0.3 1.95,-0.6 5.25,-0.6"
         fill="#000000"
         fill-opacity="0.498039"
         fill-rule="evenodd"
         stroke="none"
         id="path4" />
    </g>
    <g
       id="sprite1"
       transform="translate(17.4,15.85)">
      <use
         ffdec:characterId="31"
         height="57.200001"
         transform="matrix(0.5366,0,0,0.5366,-16.6582,-14.546)"
         width="70.75"
         xlink:href="#sprite2"
         id="use4" />
    </g>
    <g
       id="sprite2"
       transform="translate(-8.65,-10.35)">
      <use
         ffdec:characterId="30"
         height="57.200001"
         transform="translate(8.65,10.35)"
         width="70.75"
         xlink:href="#shape1"
         id="use5" />
    </g>
    <g
       id="shape1"
       transform="translate(-8.65,-10.35)">
      <path
         d="m 14.8,41.7 q 0.65,-1.75 2.65,-2.5 1.8,-0.8 3.7,-0.25 1.15,0.45 2.25,1.2 l 0.9,0.4 q 1.65,0.9 2.85,2.5 L 37.8,30.1 q 2.35,-2.8 3.75,-3.95 1.5,-1.15 4.25,-2.4 18.2,-8.85 27.65,-12.6 2.15,-0.8 3.25,-0.8 h 0.8 l 1.9,2.4 -0.2,0.8 q -0.2,1.1 -1.55,3 -5.85,8.25 -18.85,23.8 -1.85,2.35 -3.35,3.5 -1.4,1.15 -4.75,2.75 l -15.15,7.15 q 1.2,1.6 1.75,3.4 l 0.2,1 0.55,2.5 q 0.1,1.95 -1.1,3.55 -1.2,1.65 -3.05,1.9 l -1.3,0.05 q -1.65,0.2 -3.45,-0.65 -1.85,-0.9 -3,-2.6 L 25,60.95 23.8,62.1 q -2.6,2.85 -4.3,3.95 -2.85,1.8 -5.5,1.45 l -1.65,-0.5 -1.2,-0.7 -0.2,-0.2 q -1,-0.85 -1.6,-1.9 L 9.25,64 9.15,63.8 8.75,62.4 q -0.2,-0.8 -0.05,-1.7 0.25,-2.65 2.7,-5.05 1.5,-1.3 4.9,-3.15 L 17.7,51.55 16.05,50 q -1.35,-1.5 -1.8,-3.6 -0.4,-1.85 0.25,-3.45 l 0.3,-1.25"
         fill="#000000"
         fill-opacity="0.372549"
         fill-rule="evenodd"
         stroke="none"
         id="path5" />
    </g>
  </defs>
</svg>
