<?xml version="1.0" encoding="UTF-8" standalone="no"?>
<svg
   ffdec:objectType="frame"
   height="46.599998"
   width="85.936378"
   version="1.1"
   id="svg6"
   sodipodi:docname="ITEM Thrumming Circlet.svg"
   xmlns:inkscape="http://www.inkscape.org/namespaces/inkscape"
   xmlns:sodipodi="http://sodipodi.sourceforge.net/DTD/sodipodi-0.dtd"
   xmlns:xlink="http://www.w3.org/1999/xlink"
   xmlns="http://www.w3.org/2000/svg"
   xmlns:svg="http://www.w3.org/2000/svg"
   xmlns:ffdec="https://www.free-decompiler.com/flash">
  <sodipodi:namedview
     id="namedview6"
     pagecolor="#ffffff"
     bordercolor="#000000"
     borderopacity="0.25"
     inkscape:showpageshadow="2"
     inkscape:pageopacity="0.0"
     inkscape:pagecheckerboard="0"
     inkscape:deskcolor="#d1d1d1"
     fit-margin-top="5"
     fit-margin-left="5"
     fit-margin-right="5"
     fit-margin-bottom="5" />
  <g
     transform="translate(44.478049,22.35)"
     id="g1">
    <use
       ffdec:characterId="17"
       height="119.15"
       id="rarity"
       transform="translate(-58.5,-60.65)"
       width="119.15"
       xlink:href="#sprite0" />
    <use
       ffdec:characterId="1273"
       height="46.650002"
       transform="translate(-44.5,-22.35)"
       width="85.949997"
       xlink:href="#shape0"
       id="use1" />
  </g>
  <defs
     id="defs6">
    <g
       id="shape0"
       transform="translate(43.2,20.45)">
      <path
         d="m 13.7,-12.3 v -1.9 -0.25 l -1.65,-0.2 -8.1,-0.5 -5.5,0.3 0.05,0.1 0.25,1 v 0.3 l 0.2,0.75 -0.05,0.5 0.1,0.75 0.1,0.75 1.8,-0.35 3.05,-0.25 H 4.4 q 4.4,-0.4 9.05,0.05 l 0.05,-0.25 0.2,-0.8 m 4.4,-1.5 -0.15,-0.05 -1.55,-0.25 -0.05,0.9 -0.2,1.1 -0.3,0.8 -0.1,0.3 6.3,1.2 q 6.9,1.65 11.45,4.7 0.65,-0.55 0.1,-1.5 l -1.45,-1.6 -0.9,-0.7 -0.25,-0.2 -7.65,-3 -5.25,-1.7 M 8.65,-2.5 8.55,-1.35 8.6,-0.3 q 0.25,1.45 1.55,2.35 1.1,0.8 2.8,0.95 2.65,0.3 4.1,-1.3 l 0.6,-0.8 q 1.25,-2 1.05,-3.55 L 18.15,-4.3 17.7,-5.05 17.35,-5.5 16.05,-6.45 11.9,-6.6 Q 10.7,-6.1 9.75,-5 l -0.9,1.5 -0.2,1 M -10.8,6.8 -4.9,4.1 Q -1.5,2.7 1.3,2.3 L 4.4,2.1 Q 3.5,-0.05 4.25,-2.95 4.8,-5.05 6.1,-6.7 l -5,0.65 -2.1,0.2 -7.05,1.1 q -6.1,1.15 -10.45,3.2 l -4.45,2.35 q -3.55,2.1 -4.9,3.3 -2.5,2.2 -2.1,4.5 2.45,0.8 5.9,0.95 L -17,9.1 q 2.65,-0.6 6.2,-2.3 m -9,19.35 h -4.3 L -28.4,25.8 -33.35,25 q -4,-1.2 -6.75,-4.85 -2.6,-3.55 -3,-7.9 -0.4,-4.1 1.25,-8.3 Q -40.3,0 -37.3,-3.2 l 4.55,-4 5.3,-3.7 q 4.4,-2.8 6.75,-4 10.4,-5.3 22.25,-5.55 L 14,-19.6 q 4.65,0.55 6.5,1.1 l 4.85,1.85 5.15,2.35 3.35,2.3 q 5.15,2.55 7.55,7.55 1.25,2.75 1.35,5.75 0.1,3.05 -1,5.7 -0.6,1.65 -1.85,3.3 -1.6,2.1 -3.2,3.05 -2.3,1.3 -6.2,1.3 l -5.35,-0.5 q -0.4,0.75 0.2,2.3 0.6,1.7 0.35,2.4 Q 25.35,19.8 24.15,20 L 22.2,19.95 q -4.35,-1 -6.5,-3.55 l -1.05,2.4 q -1.2,2.05 -3.1,3.45 -3.85,2.7 -8.9,2.3 -1.7,-0.2 -2.4,-0.75 L -0.35,23.1 -1,22.55 Q -1.55,22 -1.6,21.2 -1.7,20.35 -1.2,19.8 -0.85,19.45 0.85,18.75 2.8,17.95 3.7,16.1 2.3,16.25 0.75,17.2 l -2.7,1.85 q -8.95,6.5 -17.85,7.1 M 24.85,0.9 l 2.1,0.25 2.1,0.1 q 1.3,-0.2 2.45,-1 1,-0.7 1.55,-1.75 Q 30,-3.1 25.8,-4.2 L 22.1,-5 22.5,-2.9 Q 22.65,-0.75 22,1 l 2.85,-0.1 m 4.6,6.95 -0.4,1.25 -0.45,0.95 q 4.05,0.55 6.2,-0.9 1.35,-0.85 2.5,-3 0.95,-1.95 1.1,-3.5 0.25,-2 -0.45,-4.05 L 37.5,0 Q 36.8,1.6 35.6,2.85 L 33.65,4.4 q -2,1.2 -4.15,1.5 l 0.05,1 -0.1,0.95 M 26.6,8.25 26.85,7.3 26.95,6.7 26.8,5.85 25.8,5.7 23.6,5.4 Q 20.95,5.15 19.4,6.3 18.35,7.1 17.75,8.8 l 0.05,0.1 0.05,0.45 v 1.5 q 0,1.45 1.05,2.7 1.05,1.25 2.5,1.45 -0.2,-2.45 0.65,-3.6 0.95,-1.35 3,-1.55 l 1,0.05 0.05,-0.5 0.35,-0.95 0.15,-0.2 M 14.35,7.5 14.6,6.8 13.95,6.9 14.35,7.6 V 7.5 M 4.3,6.55 1.7,6.8 1.2,6.9 0.75,7.65 0.1,8.95 l 0.1,1.6 0.1,0.45 0.2,0.6 0.05,0.1 1.5,-0.55 3.1,-0.05 q 1.7,0.4 2.65,1.55 0.9,1.05 1,2.6 0.15,1.45 -0.45,2.8 L 7.4,19.65 7.95,19.4 q 2.75,-1.4 3.5,-3.95 0.5,-1.75 -0.2,-4.1 Q 10.65,9.45 9.6,8.4 7.7,6.5 4.3,6.55 m -8.8,-19.85 -0.45,-1.1 -4.45,1 q -6.65,1.75 -12.5,5.15 l -0.65,0.4 0.8,1.75 0.25,0.75 2.75,-1.4 6.3,-2.05 5.5,-1.25 3.15,-0.25 -0.35,-1.85 -0.35,-1.15 M -34.8,5 q 0.45,0.9 1.5,1.8 l 0.05,0.05 V 6.5 q 0.15,-2.25 1.05,-3.9 0.85,-1.45 3.2,-3.3 l 5.1,-3.3 0.1,-0.05 -0.25,-0.55 -0.35,-0.7 -0.6,-1 -1.75,1.2 -4.95,3.8 q -2.15,1.95 -3.45,4.05 V 3.5 L -34.8,5 M -2.35,12 -2.3,10.8 -2.15,9.55 -1.8,8 -1.6,7.65 q -2.85,0.95 -6.3,2.6 -4.1,2.05 -5.85,2.65 -3.95,1.35 -9.5,1.15 l -0.15,0.15 -0.5,1.2 -0.25,1.15 -0.1,0.55 -0.05,0.85 -0.15,0.7 v 0.7 l 0.35,1.55 0.05,0.05 2.55,0.25 q 4.65,0.15 9.55,-2.15 3,-1.35 8.5,-5.05 L -2.1,13.15 -2.3,12.45 -2.35,12 m -29.75,0.5 -2.55,-1.6 -2.7,-2.45 -0.2,1.65 q -0.15,3.2 1.05,5.7 1.4,2.9 4.1,3.95 l 2.75,0.6 2.65,0.25 0.05,-0.4 0.15,-1.1 0.1,-0.8 0.2,-0.6 0.05,-1.5 0.05,-0.1 0.15,-0.4 0.1,-0.6 0.2,-0.55 0.3,-0.65 -2.25,-0.3 -3.45,-0.75 Q -31.7,12.7 -32.1,12.5"
         fill="#000000"
         fill-rule="evenodd"
         stroke="none"
         id="path1" />
      <path
         d="m 8.65,-2.5 0.2,-1 0.9,-1.5 q 0.95,-1.1 2.15,-1.6 l 4.15,0.15 1.3,0.95 0.35,0.45 q 0.35,1.4 -0.3,2.6 -0.75,1.4 -2.4,2 L 11.85,-0.15 10.7,-0.4 Q 9.6,-0.75 8.95,-1.8 l -0.3,-0.7"
         fill="#b68585"
         fill-rule="evenodd"
         stroke="none"
         id="path2" />
      <path
         d="m 17.7,-5.05 0.45,0.75 0.55,1.65 q 0.2,1.55 -1.05,3.55 l -0.6,0.8 Q 15.6,3.3 12.95,3 11.25,2.85 10.15,2.05 8.85,1.15 8.6,-0.3 l -0.05,-1.05 0.1,-1.15 0.3,0.7 q 0.65,1.05 1.75,1.4 l 1.15,0.25 3.15,-0.3 q 1.65,-0.6 2.4,-2 0.65,-1.2 0.3,-2.6"
         fill="#734d4d"
         fill-rule="evenodd"
         stroke="none"
         id="path3" />
      <path
         d="m -1.25,-13.75 -0.25,-1 -0.05,-0.1 5.5,-0.3 8.1,0.5 1.65,0.2 v 0.25 1.9 l -4.45,-0.65 -6.75,-0.85 -3.75,0.05 m 17.4,1.65 0.2,-1.1 0.05,-0.9 1.55,0.25 0.15,0.05 0.2,1.15 q -0.6,0.5 -2.15,0.55 m 19.45,14.95 1.2,0.5 q -1.4,2.2 -5.6,3.85 l -1.65,0.6 -0.1,0.05 0.1,-0.95 -0.05,-1 Q 31.65,5.6 33.65,4.4 L 35.6,2.85 M 17.8,8.9 17.75,8.8 q 0.6,-1.7 1.65,-2.5 1.55,-1.15 4.2,-0.9 l 2.2,0.3 1,0.15 0.15,0.85 -0.1,0.6 L 26.6,8.25 25.45,8.2 22.95,8.05 20.5,8.3 18.45,8.9 H 17.8 M 0.3,11 0.2,10.55 0.1,8.95 0.75,7.65 1.2,6.9 1.7,6.8 4.3,6.55 5.2,6.9 Q 5.75,7.25 5.75,7.55 5.8,8 5.2,8.4 3.35,9.75 0.3,11 m -22.05,-17.1 -0.8,-1.75 0.65,-0.4 q 5.85,-3.4 12.5,-5.15 l 4.45,-1 0.45,1.1 q -3.8,0.65 -7.75,2.25 -4.55,1.85 -9.5,4.95 m -2.3,1.5 -1.4,0.95 Q -31.8,0.75 -34.7,4.8 L -34.8,5 -35.15,3.5 V 2.75 q 1.3,-2.1 3.45,-4.05 l 4.95,-3.8 1.75,-1.2 0.6,1 0.35,0.7 m -0.1,21.15 0.25,-1.15 0.5,-1.2 0.15,-0.15 q 5.55,0.2 9.5,-1.15 1.75,-0.6 5.85,-2.65 3.45,-1.65 6.3,-2.6 L -1.8,8 -2.15,9.55 -2.3,10.8 -2.35,12 -5.15,13.05 -8.1,14.4 q -4.9,2.1 -11.65,2.25 l -4.4,-0.1 m -2.25,-0.45 -0.55,-0.15 q -3.45,-1.1 -5.15,-3.45 0.4,0.2 0.75,0.35 l 3.45,0.75 2.25,0.3 -0.3,0.65 -0.2,0.55 -0.1,0.6 -0.15,0.4"
         fill="#ffffff"
         fill-rule="evenodd"
         stroke="none"
         id="path4" />
      <path
         d="m -1.25,-13.75 3.75,-0.05 6.75,0.85 4.45,0.65 -0.2,0.8 -0.05,0.25 Q 8.8,-11.7 4.4,-11.3 H 3.95 l -3.05,0.25 -1.8,0.35 -0.1,-0.75 -0.1,-0.75 0.05,-0.5 -0.2,-0.75 v -0.3 m 17.4,1.65 q 1.55,-0.05 2.15,-0.55 l -0.2,-1.15 5.25,1.7 7.65,3 0.25,0.2 0.9,0.7 1.45,1.6 q 0.55,0.95 -0.1,1.5 -4.55,-3.05 -11.45,-4.7 l -6.3,-1.2 0.1,-0.3 0.3,-0.8 M 29.45,7.85 29.55,7.8 31.2,7.2 Q 35.4,5.55 36.8,3.35 L 35.6,2.85 Q 36.8,1.6 37.5,0 l 0.45,-1.4 q 0.7,2.05 0.45,4.05 -0.15,1.55 -1.1,3.5 -1.15,2.15 -2.5,3 -2.15,1.45 -6.2,0.9 L 29.05,9.1 29.45,7.85 M 17.8,8.9 h 0.65 l 2.05,-0.6 2.45,-0.25 2.5,0.15 1.15,0.05 -0.15,0.2 -0.35,0.95 -0.05,0.5 -1,-0.05 Q 23,10.05 22.05,11.4 21.2,12.55 21.4,15 19.95,14.8 18.9,13.55 17.85,12.3 17.85,10.85 V 9.35 L 17.8,8.9 M 0.3,11 Q 3.35,9.75 5.2,8.4 5.8,8 5.75,7.55 5.75,7.25 5.2,6.9 L 4.3,6.55 Q 7.7,6.5 9.6,8.4 q 1.05,1.05 1.65,2.95 0.7,2.35 0.2,4.1 Q 10.7,18 7.95,19.4 L 7.4,19.65 8.35,18.05 Q 8.95,16.7 8.8,15.25 8.7,13.7 7.8,12.65 6.85,11.5 5.15,11.1 L 2.05,11.15 0.55,11.7 0.5,11.6 0.3,11 M -21.75,-6.1 q 4.95,-3.1 9.5,-4.95 3.95,-1.6 7.75,-2.25 l 0.35,1.15 0.35,1.85 -3.15,0.25 -5.5,1.25 -6.3,2.05 -2.75,1.4 -0.25,-0.75 m -2.3,1.5 0.25,0.55 -0.1,0.05 -5.1,3.3 q -2.35,1.85 -3.2,3.3 -0.9,1.65 -1.05,3.9 V 6.85 L -33.3,6.8 Q -34.35,5.9 -34.8,5 l 0.1,-0.2 q 2.9,-4.05 9.25,-8.45 l 1.4,-0.95 m -0.1,21.15 4.4,0.1 Q -13,16.5 -8.1,14.4 l 2.95,-1.35 2.8,-1.05 0.05,0.45 0.2,0.7 -1.35,0.85 q -5.5,3.7 -8.5,5.05 -4.9,2.3 -9.55,2.15 l -2.55,-0.25 -0.05,-0.05 -0.35,-1.55 v -0.7 l 0.15,-0.7 0.05,-0.85 0.1,-0.55 m -2.25,-0.45 -0.05,0.1 -0.05,1.5 -0.2,0.6 -0.1,0.8 -0.15,1.1 -0.05,0.4 -2.65,-0.25 -2.75,-0.6 q -2.7,-1.05 -4.1,-3.95 -1.2,-2.5 -1.05,-5.7 l 0.2,-1.65 2.7,2.45 2.55,1.6 q 1.7,2.35 5.15,3.45 l 0.55,0.15"
         fill="#ab917c"
         fill-rule="evenodd"
         stroke="none"
         id="path5" />
    </g>
    <g
       id="sprite1"
       transform="translate(17.4,15.85)">
      <use
         ffdec:characterId="31"
         height="57.200001"
         transform="matrix(0.5366,0,0,0.5366,-16.6582,-14.546)"
         width="70.75"
         xlink:href="#sprite2"
         id="use5" />
    </g>
    <g
       id="sprite2"
       transform="translate(-8.65,-10.35)">
      <use
         ffdec:characterId="30"
         height="57.200001"
         transform="translate(8.65,10.35)"
         width="70.75"
         xlink:href="#shape1"
         id="use6" />
    </g>
    <g
       id="shape1"
       transform="translate(-8.65,-10.35)">
      <path
         d="m 14.8,41.7 q 0.65,-1.75 2.65,-2.5 1.8,-0.8 3.7,-0.25 1.15,0.45 2.25,1.2 l 0.9,0.4 q 1.65,0.9 2.85,2.5 L 37.8,30.1 q 2.35,-2.8 3.75,-3.95 1.5,-1.15 4.25,-2.4 18.2,-8.85 27.65,-12.6 2.15,-0.8 3.25,-0.8 h 0.8 l 1.9,2.4 -0.2,0.8 q -0.2,1.1 -1.55,3 -5.85,8.25 -18.85,23.8 -1.85,2.35 -3.35,3.5 -1.4,1.15 -4.75,2.75 l -15.15,7.15 q 1.2,1.6 1.75,3.4 l 0.2,1 0.55,2.5 q 0.1,1.95 -1.1,3.55 -1.2,1.65 -3.05,1.9 l -1.3,0.05 q -1.65,0.2 -3.45,-0.65 -1.85,-0.9 -3,-2.6 L 25,60.95 23.8,62.1 q -2.6,2.85 -4.3,3.95 -2.85,1.8 -5.5,1.45 l -1.65,-0.5 -1.2,-0.7 -0.2,-0.2 q -1,-0.85 -1.6,-1.9 L 9.25,64 9.15,63.8 8.75,62.4 q -0.2,-0.8 -0.05,-1.7 0.25,-2.65 2.7,-5.05 1.5,-1.3 4.9,-3.15 L 17.7,51.55 16.05,50 q -1.35,-1.5 -1.8,-3.6 -0.4,-1.85 0.25,-3.45 l 0.3,-1.25"
         fill="#000000"
         fill-opacity="0.372549"
         fill-rule="evenodd"
         stroke="none"
         id="path6" />
    </g>
  </defs>
</svg>
