<?xml version="1.0" encoding="UTF-8" standalone="no"?>
<svg
   ffdec:objectType="frame"
   height="86.912415"
   width="71.731514"
   version="1.1"
   id="svg8"
   xmlns:xlink="http://www.w3.org/1999/xlink"
   xmlns="http://www.w3.org/2000/svg"
   xmlns:svg="http://www.w3.org/2000/svg"
   xmlns:ffdec="https://www.free-decompiler.com/flash">
  <g
     transform="translate(45.101515,45.223529)"
     id="g1">
    <use
       ffdec:characterId="17"
       height="119.15"
       id="rarity"
       transform="translate(-58.5,-60.65)"
       width="119.15"
       xlink:href="#sprite0" />
    <use
       ffdec:characterId="1315"
       height="86.900002"
       transform="translate(-45.1,-45.2)"
       width="71.75"
       xlink:href="#shape0"
       id="use1" />
  </g>
  <defs
     id="defs8">
    <g
       id="shape0"
       transform="translate(43.8,43.3)">
      <path
         d="m 10.2,-18 -1.15,-4.65 q -2.2,-8.1 -6.4,-15.3 -0.45,-0.7 -0.85,-0.65 l -0.7,0.65 q -2.3,4.35 -4.1,8.85 l -1.25,3.2 -0.45,1.25 -1.35,4.25 -1.05,3.75 -4.7,17.05 -2.4,7.65 -4.45,14.25 0.15,0.15 q 1.15,1.1 1.25,3.35 l 2.15,-0.15 1,0.1 0.8,0.4 q 0.95,0.55 1.2,1.35 l 0.3,1.55 0.25,-0.2 0.9,-0.5 0.8,-0.2 q 1.25,-0.25 2.15,0 0.9,0.3 1.5,1.15 l 0.9,1.65 0.25,0.55 Q -4.1,30.3 -3,29.9 l 2.65,-0.2 0.95,0.25 0.8,0.5 0.5,0.55 0.5,0.95 0.25,-0.35 0.8,-0.85 0.8,-0.55 2.85,-0.3 0.85,0.2 0.85,0.55 0.8,0.9 0.05,-0.1 q 0.7,-0.95 1.35,-1.55 1.5,-1.4 2.8,-1.6 1.4,-0.25 3.4,0.8 l 0.4,0.1 0.2,-0.2 0.6,-1.15 q 0.95,-1.3 2.65,-1.4 l 1.5,0.25 -0.85,-3.45 -0.9,-4.1 -1.05,-4.5 -0.15,-0.6 -1.25,-5 -0.4,-1.55 -0.05,-0.2 -0.2,-0.85 -1.95,-6.9 -2.7,-8.45 -0.6,-1.7 -1.3,-3.8 L 10.2,-18 M -0.5,-42.9 q 1.2,-0.6 2.7,-0.35 1.4,0.25 2.55,1.15 1.75,1.4 3.25,4.6 2.25,4.75 5.25,14.95 l 5.5,18.6 3.45,12.35 2.15,10.15 q 1.3,6.15 2.5,10 l 1,3.7 q 0.2,0.95 -0.1,1.55 L 26.9,34.75 Q 16.6,42.6 1.8,43.5 q -3.1,0.2 -5.1,-0.05 -7.2,-0.7 -16.75,-6.9 l -1.65,-1.15 -0.2,0.15 -3,2.9 q -1.9,2.15 -3.25,1.7 -0.95,-0.3 -1.3,-1.45 l -0.35,-2.05 -0.65,-4.8 q -0.4,-2.85 -0.05,-4.8 -5,0.85 -9.4,2.55 l -2,0.5 q -1.25,0 -1.75,-0.85 -0.5,-1 0.65,-2.8 3.45,-5.3 5.1,-7.15 L -34.8,16 -27,8.6 q 4.55,-3.85 8.8,-5.95 L -17.35,2.4 -16.9,1 -22.85,2.55 -24,2.75 -25.1,2.6 q -1.1,-0.5 -1.75,-2.9 -1.05,-3.4 -2.85,-6.1 l -1.4,-2.15 -1.05,-2.25 q -1,-3.45 2.05,-8.25 2.15,-3.45 6.5,-8.15 11.15,-11.65 22.55,-15.45 l 0.3,-0.05 0.25,-0.2 m -26.75,26.65 q -1.1,1.8 -1.15,2.9 -0.05,1.55 1.7,4 1.55,2.45 2.6,5 l 0.75,-1.9 3.4,-7.35 2.75,-5 3.5,-5.45 3.4,-5.1 q 3.95,-5.95 6.55,-9.1 l 0.1,-0.15 q -15.2,8.75 -23.6,22.15 m 16.95,-5.8 1.45,-4.65 -2.8,4.5 -3.6,6.15 0.4,-0.1 2.95,-0.15 1.6,-5.75 m -4.4,15.75 1.9,-6.7 h -0.05 l -4.1,0.35 Q -19.5,-7.5 -21.3,-1.9 l 5.35,-1.35 0.4,-0.05 0.85,-3 m -10.7,36.75 q -0.35,-1.6 0.7,-5.05 l 5.3,-16.8 0.95,-2.9 q -10.8,8.45 -19.1,19.3 l 6.75,-1.6 3,0.2 q 0.9,0.8 0.7,3.35 -0.3,3.95 0.8,7.65 l 1.85,-1.7 0.1,-0.1 q -0.8,-1.15 -1.05,-2.35 m 5.05,-2.85 -0.25,1.85 q 0.2,1 1.75,2.1 l 7.15,4.25 q 5.55,2.7 9.8,3 l 6.85,-0.45 q 6.2,-0.95 10.25,-2.45 5.35,-1.95 8.6,-5.35 l -0.9,-0.6 -0.9,-0.65 -1.05,0.1 -0.4,0.7 -0.55,1.35 -0.45,0.9 Q 18.9,33.25 17.7,33 17.25,32.85 16.35,32.2 15.55,31.6 15,31.55 q -0.65,0 -1.2,0.4 -0.8,0.5 -1.3,1.4 L 11.95,34.5 11.2,35.45 10.4,35.75 9.15,35.7 8.7,35.25 8.3,34.75 7,33.2 5.7,33.1 Q 5.2,33.35 4.9,34.15 L 4.4,35.35 3.9,35.85 3.85,35.9 3.4,36.55 Q 3,36.95 2.45,37 L 1.45,36.8 0.85,36.05 0.65,35.8 0.3,34.75 -0.15,33.7 -0.6,33.05 q -0.35,-0.35 -0.75,-0.35 -0.5,0.05 -1.05,0.8 l -0.55,0.8 -1.2,1.25 -0.6,0.2 L -5.2,36 q -0.7,0.2 -1.2,0 -0.6,-0.25 -0.75,-0.9 v -0.3 l -0.1,-0.25 -0.15,-0.7 -0.25,-0.7 -1,-2 q -0.95,0.15 -1.6,0.75 l -0.75,0.9 -0.95,0.75 q -0.95,0.4 -1.65,-0.3 l -0.45,-0.65 -0.35,-1.2 q -0.1,-1.3 -0.3,-1.9 l -0.35,-0.5 -0.5,-0.1 -1,0.15 -1.15,0.65 q -1,0.6 -1.9,-0.2 l -0.45,-0.9 0.05,-0.85 -0.05,-0.25 -0.1,-0.55 -0.2,0.65"
         fill="#000000"
         fill-rule="evenodd"
         stroke="none"
         id="path1" />
      <path
         d="m -3,-29.1 1.4,-0.7 q 1.65,-0.45 3.3,0.95 l 1,1.3 q 0.3,0.7 0.2,2.2 l -0.25,1.05 q -0.25,0.65 -1.1,1.2 l -0.85,0.55 -0.65,0.55 -2.5,3.1 q -0.5,0.7 -0.95,0.75 -0.45,0.15 -0.8,-0.2 l -0.15,-0.15 -0.9,-0.85 -0.8,-1.05 1.35,-4.25 0.45,-1.25 1.25,-3.2 m 0.3,49.7 q 0.3,-1.2 1.35,-1.9 1.1,-0.75 3.1,-0.65 L 3,18.3 4,19.2 5.3,18.35 H 7.05 L 8,18.4 l 0.85,0.55 0.1,0.1 q 0.65,0.7 1,1.9 l 0.1,1.3 q 0.1,0.7 -0.15,1.3 -0.25,0.8 -1.2,1.45 -0.5,0.45 -1,0.55 L 6.2,25.7 q -0.5,0.1 -1.4,0.7 l -0.6,0.4 -0.05,0.15 q -0.25,0.9 -1.25,1 -0.95,0 -1.3,-0.9 l -0.2,-0.7 q -0.25,-0.4 -1.05,-0.7 -1.1,-0.35 -2.2,-1.05 -1.35,-0.95 -1.3,-1.9 l 0.2,-1.05 0.25,-1.05 m 15.9,-4.7 q -0.65,-0.45 -1.35,-1.65 l -0.6,-1.1 -0.15,-1.05 v -0.15 q -0.1,-2.3 1.25,-4 l 1.7,-1.35 q 0.9,-0.45 2.05,-0.45 l 1.6,0.3 0.2,0.85 0.05,0.2 0.4,1.55 1.25,5 0.15,0.6 1.05,4.5 -0.9,-0.55 Q 17.95,17.2 16.25,16.8 L 14.7,16.5 q -0.95,-0.25 -1.5,-0.6 m -0.75,-26.5 -0.3,0.5 q -0.4,0.75 -0.7,1.9 L 10.9,-6.15 Q 10.6,-5 9.9,-4.6 L 8.55,-4.65 7.3,-5.3 5.5,-6.1 Q 4.35,-6.55 3.75,-6.9 L 2.75,-7.5 1.6,-8 Q 0.4,-8.65 0.1,-9.85 l -0.15,-1.65 q -0.1,-1.55 0.4,-2.35 l 0.8,-0.9 2.15,-1.35 2.5,-0.2 1.45,0.65 0.4,0.1 0.3,-0.25 0.6,-0.8 q 0.65,-1 1.35,-1.3 l 0.3,-0.1 0.95,3.6 1.3,3.8 M -2.25,3 Q -0.05,1.55 2.4,2.25 4.2,2.7 4.9,4 5.4,4.95 5.4,6.8 L 5.1,8.85 q -0.45,1 -2.45,2.25 l -1.95,1.15 -1.15,0.65 -0.95,0.25 -0.9,0.35 -0.9,0.85 -0.75,1 -0.25,0.3 -0.45,0.25 -0.75,-0.05 -0.6,-0.5 -0.05,-0.1 -1.05,-1 L -7.4,13.5 -7.95,12.85 -9.7,11.3 q -1.45,-1.15 -1.75,-1.95 L -11.55,8 q 0.1,-1.55 0.55,-2.4 l 0.35,-0.5 1.45,-1.35 1.15,-0.6 1.1,-0.05 1.55,0.05 q 0.8,0.2 1.45,0.95 L -3.7,4.4 -2.25,3"
         fill="#a270a0"
         fill-rule="evenodd"
         stroke="none"
         id="path2" />
      <path
         d="m -3,-29.1 q 1.8,-4.5 4.1,-8.85 l 0.7,-0.65 q 0.4,-0.05 0.85,0.65 4.2,7.2 6.4,15.3 l 1.15,4.65 -0.3,0.1 q -0.7,0.3 -1.35,1.3 l -0.6,0.8 -0.3,0.25 -0.4,-0.1 -1.45,-0.65 -2.5,0.2 -2.15,1.35 -0.8,0.9 q -0.5,0.8 -0.4,2.35 l 0.15,1.65 q 0.3,1.2 1.5,1.85 l 1.15,0.5 1,0.6 q 0.6,0.35 1.75,0.8 l 1.8,0.8 1.25,0.65 1.35,0.05 q 0.7,-0.4 1,-1.55 l 0.55,-2.05 q 0.3,-1.15 0.7,-1.9 l 0.3,-0.5 0.6,1.7 2.7,8.45 1.95,6.9 -1.6,-0.3 q -1.15,0 -2.05,0.45 l -1.7,1.35 q -1.35,1.7 -1.25,4 v 0.15 l 0.15,1.05 0.6,1.1 q 0.7,1.2 1.35,1.65 -1.9,1.85 -4.25,3.15 L 8.85,18.95 8,18.4 7.05,18.35 H 5.3 L 4,19.2 3,18.3 1.75,18.05 q -2,-0.1 -3.1,0.65 -1.05,0.7 -1.35,1.9 L -3.5,20.35 -6.55,19.1 q -3.25,-1.7 -5.3,-4.8 -1.95,-2.9 -2.35,-6.25 l 2.4,-7.65 4.7,-17.05 1.05,-3.75 0.8,1.05 0.9,0.85 0.15,0.15 q 0.35,0.35 0.8,0.2 0.45,-0.05 0.95,-0.75 l 2.5,-3.1 0.65,-0.55 0.85,-0.55 q 0.85,-0.55 1.1,-1.2 l 0.25,-1.05 q 0.1,-1.5 -0.2,-2.2 l -1,-1.3 q -1.65,-1.4 -3.3,-0.95 L -3,-29.1 M -2.25,3 -3.7,4.4 -3.95,4.1 Q -4.6,3.35 -5.4,3.15 L -6.95,3.1 -8.05,3.15 -9.2,3.75 -10.65,5.1 -11,5.6 q -0.45,0.85 -0.55,2.4 l 0.1,1.35 q 0.3,0.8 1.75,1.95 l 1.75,1.55 0.55,0.65 0.3,0.75 1.05,1 0.05,0.1 0.6,0.5 0.75,0.05 0.45,-0.25 0.25,-0.3 0.75,-1 0.9,-0.85 0.9,-0.35 L -0.45,12.9 0.7,12.25 2.65,11.1 Q 4.65,9.85 5.1,8.85 L 5.4,6.8 Q 5.4,4.95 4.9,4 4.2,2.7 2.4,2.25 -0.05,1.55 -2.25,3"
         fill="#d7add5"
         fill-rule="evenodd"
         stroke="none"
         id="path3" />
      <path
         d="m -14.2,8.05 q 0.4,3.35 2.35,6.25 2.05,3.1 5.3,4.8 l 3.05,1.25 0.8,0.25 -0.25,1.05 -0.2,1.05 q -0.05,0.95 1.3,1.9 1.1,0.7 2.2,1.05 0.8,0.3 1.05,0.7 l 0.2,0.7 q 0.35,0.9 1.3,0.9 1,-0.1 1.25,-1 L 4.2,26.8 4.8,26.4 q 0.9,-0.6 1.4,-0.7 l 1.5,-0.15 q 0.5,-0.1 1,-0.55 0.95,-0.65 1.2,-1.45 0.25,-0.6 0.15,-1.3 l -0.1,-1.3 q -0.35,-1.2 -1,-1.9 2.35,-1.3 4.25,-3.15 0.55,0.35 1.5,0.6 l 1.55,0.3 q 1.7,0.4 3.65,1.8 l 0.9,0.55 0.9,4.1 0.85,3.45 -1.5,-0.25 q -1.7,0.1 -2.65,1.4 L 17.8,29 17.6,29.2 17.2,29.1 q -2,-1.05 -3.4,-0.8 -1.3,0.2 -2.8,1.6 -0.65,0.6 -1.35,1.55 L 9.6,31.55 8.8,30.65 7.95,30.1 7.1,29.9 4.25,30.2 3.45,30.75 2.65,31.6 2.4,31.95 1.9,31 1.4,30.45 0.6,29.95 -0.35,29.7 -3,29.9 q -1.1,0.4 -2.05,1.6 L -5.3,30.95 -6.2,29.3 q -0.6,-0.85 -1.5,-1.15 -0.9,-0.25 -2.15,0 l -0.8,0.2 -0.9,0.5 -0.25,0.2 -0.3,-1.55 q -0.25,-0.8 -1.2,-1.35 l -0.8,-0.4 -1,-0.1 -2.15,0.15 q -0.1,-2.25 -1.25,-3.35 L -18.65,22.3 -14.2,8.05"
         fill="#b692b5"
         fill-rule="evenodd"
         stroke="none"
         id="path4" />
      <path
         d="m -27.25,-16.25 q 8.4,-13.4 23.6,-22.15 l -0.1,0.15 q -2.6,3.15 -6.55,9.1 l -3.4,5.1 -3.5,5.45 -2.75,5 -3.4,7.35 -0.75,1.9 q -1.05,-2.55 -2.6,-5 -1.75,-2.45 -1.7,-4 0.05,-1.1 1.15,-2.9"
         fill="#b692a9"
         fill-rule="evenodd"
         stroke="none"
         id="path5" />
      <path
         d="m -14.7,-6.3 -0.85,3 -0.4,0.05 -5.35,1.35 q 1.8,-5.6 4.35,-10.75 l 4.1,-0.35 h 0.05 l -1.9,6.7 m -10.7,36.75 q 0.25,1.2 1.05,2.35 l -0.1,0.1 -1.85,1.7 q -1.1,-3.7 -0.8,-7.65 0.2,-2.55 -0.7,-3.35 l -3,-0.2 -6.75,1.6 q 8.3,-10.85 19.1,-19.3 l -0.95,2.9 -5.3,16.8 q -1.05,3.45 -0.7,5.05"
         fill="#9e6f8d"
         fill-rule="evenodd"
         stroke="none"
         id="path6" />
      <path
         d="m -20.35,27.6 0.2,-0.65 0.1,0.55 0.05,0.25 -0.05,0.85 0.45,0.9 q 0.9,0.8 1.9,0.2 l 1.15,-0.65 1,-0.15 0.5,0.1 0.35,0.5 q 0.2,0.6 0.3,1.9 l 0.35,1.2 0.45,0.65 q 0.7,0.7 1.65,0.3 l 0.95,-0.75 0.75,-0.9 q 0.65,-0.6 1.6,-0.75 l 1,2 0.25,0.7 0.15,0.7 0.1,0.25 v 0.3 q 0.15,0.65 0.75,0.9 0.5,0.2 1.2,0 l 0.45,-0.25 0.6,-0.2 1.2,-1.25 0.55,-0.8 q 0.55,-0.75 1.05,-0.8 0.4,0 0.75,0.35 l 0.45,0.65 0.45,1.05 0.35,1.05 0.2,0.25 0.6,0.75 1,0.2 Q 3,36.95 3.4,36.55 l 0.45,-0.65 0.05,-0.05 0.5,-0.5 0.5,-1.2 q 0.3,-0.8 0.8,-1.05 l 1.3,0.1 1.3,1.55 0.4,0.5 0.45,0.45 1.25,0.05 0.8,-0.3 0.75,-0.95 0.55,-1.15 q 0.5,-0.9 1.3,-1.4 0.55,-0.4 1.2,-0.4 0.55,0.05 1.35,0.65 0.9,0.65 1.35,0.8 1.2,0.25 1.85,-0.65 l 0.45,-0.9 0.55,-1.35 0.4,-0.7 1.05,-0.1 0.9,0.65 0.9,0.6 q -3.25,3.4 -8.6,5.35 -4.05,1.5 -10.25,2.45 L -1.9,38.8 q -4.25,-0.3 -9.8,-3 l -7.15,-4.25 q -1.55,-1.1 -1.75,-2.1 l 0.25,-1.85"
         fill="#e8cbde"
         fill-rule="evenodd"
         stroke="none"
         id="path7" />
    </g>
    <g
       id="sprite1"
       transform="translate(17.4,15.85)">
      <use
         ffdec:characterId="31"
         height="57.200001"
         transform="matrix(0.5366,0,0,0.5366,-16.6582,-14.546)"
         width="70.75"
         xlink:href="#sprite2"
         id="use7" />
    </g>
    <g
       id="sprite2"
       transform="translate(-8.65,-10.35)">
      <use
         ffdec:characterId="30"
         height="57.200001"
         transform="translate(8.65,10.35)"
         width="70.75"
         xlink:href="#shape1"
         id="use8" />
    </g>
    <g
       id="shape1"
       transform="translate(-8.65,-10.35)">
      <path
         d="m 14.8,41.7 q 0.65,-1.75 2.65,-2.5 1.8,-0.8 3.7,-0.25 1.15,0.45 2.25,1.2 l 0.9,0.4 q 1.65,0.9 2.85,2.5 L 37.8,30.1 q 2.35,-2.8 3.75,-3.95 1.5,-1.15 4.25,-2.4 18.2,-8.85 27.65,-12.6 2.15,-0.8 3.25,-0.8 h 0.8 l 1.9,2.4 -0.2,0.8 q -0.2,1.1 -1.55,3 -5.85,8.25 -18.85,23.8 -1.85,2.35 -3.35,3.5 -1.4,1.15 -4.75,2.75 l -15.15,7.15 q 1.2,1.6 1.75,3.4 l 0.2,1 0.55,2.5 q 0.1,1.95 -1.1,3.55 -1.2,1.65 -3.05,1.9 l -1.3,0.05 q -1.65,0.2 -3.45,-0.65 -1.85,-0.9 -3,-2.6 L 25,60.95 23.8,62.1 q -2.6,2.85 -4.3,3.95 -2.85,1.8 -5.5,1.45 l -1.65,-0.5 -1.2,-0.7 -0.2,-0.2 q -1,-0.85 -1.6,-1.9 L 9.25,64 9.15,63.8 8.75,62.4 q -0.2,-0.8 -0.05,-1.7 0.25,-2.65 2.7,-5.05 1.5,-1.3 4.9,-3.15 L 17.7,51.55 16.05,50 q -1.35,-1.5 -1.8,-3.6 -0.4,-1.85 0.25,-3.45 l 0.3,-1.25"
         fill="#000000"
         fill-opacity="0.372549"
         fill-rule="evenodd"
         stroke="none"
         id="path8" />
    </g>
  </defs>
</svg>
