<?xml version="1.0" encoding="UTF-8" standalone="no"?>
<svg
   ffdec:objectType="frame"
   height="74.016739"
   width="67.483452"
   version="1.1"
   id="svg4"
   xmlns:xlink="http://www.w3.org/1999/xlink"
   xmlns="http://www.w3.org/2000/svg"
   xmlns:svg="http://www.w3.org/2000/svg"
   xmlns:ffdec="https://www.free-decompiler.com/flash">
  <g
     transform="translate(35.185043,40.188535)"
     id="g1">
    <use
       ffdec:characterId="17"
       height="119.15"
       id="rarity"
       transform="translate(-58.5,-60.65)"
       width="119.15"
       xlink:href="#sprite0" />
    <use
       ffdec:characterId="432"
       height="74.050003"
       transform="translate(-35.2,-40.2)"
       width="67.5"
       xlink:href="#shape0"
       id="use1" />
  </g>
  <defs
     id="defs4">
    <g
       id="shape0"
       transform="translate(34.8,39.4)">
      <path
         d="m -4.7,-39.35 q 13.75,-0.55 25.25,6.75 3.15,2.05 5.55,4.9 9.1,10.9 5.65,24.8 Q 29.1,7.9 19.65,14.05 L 16.8,15.6 q -0.25,1.25 -1.4,2.75 -1.6,2.1 -3.45,3.35 2.7,3.85 -0.6,8.2 -2.65,3.5 -7.05,4.05 -17.85,2.3 -34.6,-3.2 -3.35,-1.1 -4.15,-4.4 -1.4,-5.5 3.05,-9.3 l 0.4,-0.3 q -1.45,-2.6 -2.15,-5.45 -1.9,-6.1 2.4,-11.2 l 0.1,-0.1 -0.8,-1.8 q -1.85,-6.35 0.2,-12.6 1.1,-4.45 3.3,-8.4 7.75,-13.85 23.25,-16.55 M -0.45,-4.1 Q 1.1,-2.2 1.9,0.45 l 0.2,1.6 V 2.4 l 0.7,0.65 q 9.45,2.5 16.25,-4.55 l 1.35,-2.2 0.2,-0.4 1.25,-1.45 0.2,-0.25 q 0.1,-0.6 0.5,-1 0.25,-0.25 0.45,-0.3 l 0.4,0.25 0.2,0.2 0.05,1.3 -0.05,0.65 Q 20,6.15 8.7,8.35 L 3,8.7 Q 1.35,8.6 0.25,8 q -1.85,2.5 -5.65,3.65 -6.75,2.05 -9.45,-4.2 -0.5,-1.25 0.65,-2 0.6,-0.4 1.2,-0.55 0.2,1.8 1.95,2.5 6.5,2.6 7.65,-3.7 0.15,-0.8 -0.15,-1.45 V 2.2 1.8 1.55 1.35 L -4,0.75 -6.15,-1.1 Q -8.6,-3.1 -12.4,-3 l -4.75,0.15 -1.25,0.2 -1.25,0.35 -2.65,0.95 -0.1,0.05 -0.9,0.55 -0.7,0.25 q -2.85,1.25 -4.35,3.95 -0.35,2.4 -0.3,4.9 l 0.45,2.45 0.4,1 q 0.65,1.45 1.7,2.15 l 0.5,0.8 q 7.85,3.1 16.3,1.2 1.05,-0.2 1.65,0.7 1.35,2.15 0.2,3.4 -0.6,0.6 -1.85,1 -9.45,2.9 -17.8,-1.1 l -1.15,-0.6 -0.3,0.35 -0.75,0.8 -0.15,0.45 -0.15,0.4 -0.2,0.45 -0.05,0.45 v 0.4 L -30,23.3 q 2.3,5.25 9,4.75 l 1,0.1 q 13.55,2.7 26.45,-0.85 l 1.5,-1 0.1,-0.2 L 8.1,25.9 8.15,25.7 8.3,25.25 Q 7.55,24.2 7.3,23.4 4.35,23.65 0.95,22.25 -1.3,21.3 -1.9,18.95 l 0.1,-0.4 0.2,-0.45 0.35,-0.35 0.3,0.1 7.75,0.75 3.4,-2.35 0.35,-0.25 0.1,-0.15 -0.05,-0.1 -0.05,-0.25 0.05,-0.2 q 0.35,-0.9 1.3,-1.5 l 0.25,-0.15 0.35,-0.6 q 0.45,-0.8 1.3,-1.05 h 0.35 0.15 l 1.8,-1.75 q 1.85,-1.9 4,-3.3 L 22.05,4.7 q 2.25,-2.55 3.5,-5.7 1.25,-3.25 1.65,-6.65 0.3,-4.45 -1.25,-8.5 l -1.3,-2.95 q -5.5,-10.75 -18.3,-13.6 -9.9,-2.15 -18.4,2.5 -5.05,2.8 -8.3,7.1 -2.3,3.05 -3.7,6.85 l -1.6,4.65 -0.05,0.25 -0.05,0.85 -0.15,0.85 -0.25,1.5 -0.1,1.5 q 4.5,-2.05 9.7,-2.3 l 8.4,0.65 q 5,1 7.7,4.2 m -6.25,24.8 0.15,-0.25 0.8,-0.55 0.2,-0.05 0.5,-0.1 1.05,0.4 0.3,0.15 q 0.7,1 0.6,2.15 -0.1,0.95 -0.65,1.7 l -0.4,1.5 q -0.4,0.9 -1.4,1.1 H -5.8 l -0.65,-0.3 -0.25,-0.2 -0.15,-1.15 -0.1,-2.1 0.1,-2.1 0.15,-0.2"
         fill="#000000"
         fill-rule="evenodd"
         stroke="none"
         id="path1" />
      <path
         d="m 24.65,-19.1 q -0.15,5.7 -4.25,9.7 l -1.5,1.2 q -7.85,5.15 -17.45,4.25 l -1.9,-0.15 q -2.7,-3.2 -7.7,-4.2 l -8.4,-0.65 q -2.4,-2 -4.15,-4.8 -1.1,-1.75 -0.8,-3.85 l 0.4,-1.3 q 0.1,-2.25 0.75,-4.2 3.25,-4.3 8.3,-7.1 8.5,-4.65 18.4,-2.5 12.8,2.85 18.3,13.6 M -4,0.75 -4.5,1.55 q -2.65,2.6 -6.55,2.75 L -15.1,4.2 q -1.05,7.2 -8.55,8.9 l -1.5,-0.1 q -1.6,-0.45 -2.65,-1.2 l -0.4,-1 -0.45,-2.45 q -0.05,-2.5 0.3,-4.9 1.5,-2.7 4.35,-3.95 l 0.7,-0.25 0.9,-0.55 0.1,-0.05 2.65,-0.95 1.25,-0.35 1.25,-0.2 4.75,-0.15 q 3.8,-0.1 6.25,1.9 L -4,0.75 m -3.45,19.3 Q -7,20.3 -6.7,20.7 l -0.15,0.2 -0.1,2.1 0.1,2.1 q -1.5,3.5 -6.75,2.75 l -9.55,-1.6 q -5.25,-0.95 -4.25,-5.5 l 0.3,-0.8 q 8.35,4 17.8,1.1 1.25,-0.4 1.85,-1 m 6.5,-2.2 Q -1.8,15.4 1.15,13.1 3.85,11 7.25,10.6 L 11.3,10 q 2.35,0.25 2.85,2 H 13.8 q -0.85,0.25 -1.3,1.05 l -0.35,0.6 -0.25,0.15 q -0.95,0.6 -1.3,1.5 l -0.05,0.2 0.05,0.25 0.05,0.1 -0.1,0.15 -0.35,0.25 -3.4,2.35 -7.75,-0.75"
         fill="#c2b9b9"
         fill-rule="evenodd"
         stroke="none"
         id="path2" />
      <path
         d="m -0.45,-4.1 1.9,0.15 q 9.6,0.9 17.45,-4.25 l 1.5,-1.2 q 4.1,-4 4.25,-9.7 l 1.3,2.95 q 1.55,4.05 1.25,8.5 -0.4,3.4 -1.65,6.65 -1.25,3.15 -3.5,5.7 L 20.1,6.95 q -2.15,1.4 -4,3.3 L 14.3,12 h -0.15 q -0.5,-1.75 -2.85,-2 l -4.05,0.6 q -3.4,0.4 -6.1,2.5 -2.95,2.3 -2.1,4.75 l -0.3,-0.1 -0.35,0.35 -0.2,0.45 -0.1,0.4 q 0.6,2.35 2.85,3.3 3.4,1.4 6.35,1.15 0.25,0.8 1,1.85 l -0.15,0.45 -0.05,0.2 -0.05,0.2 -0.1,0.2 -1.5,1 Q -6.45,30.85 -20,28.15 l -1,-0.1 q -6.7,0.5 -9,-4.75 l 0.15,-0.65 v -0.4 l 0.05,-0.45 0.2,-0.45 0.15,-0.4 0.15,-0.45 0.75,-0.8 0.3,-0.35 1.15,0.6 -0.3,0.8 q -1,4.55 4.25,5.5 l 9.55,1.6 q 5.25,0.75 6.75,-2.75 l 0.15,1.15 0.25,0.2 0.65,0.3 h 0.25 q 1,-0.2 1.4,-1.1 l 0.4,-1.5 Q -3.2,23.4 -3.1,22.45 -3,21.3 -3.7,20.3 l -0.3,-0.15 -1.05,-0.4 -0.5,0.1 -0.2,0.05 -0.8,0.55 -0.15,0.25 q -0.3,-0.4 -0.75,-0.65 1.15,-1.25 -0.2,-3.4 -0.6,-0.9 -1.65,-0.7 -8.45,1.9 -16.3,-1.2 l -0.5,-0.8 q -1.05,-0.7 -1.7,-2.15 1.05,0.75 2.65,1.2 l 1.5,0.1 q 7.5,-1.7 8.55,-8.9 l 4.05,0.1 q 3.9,-0.15 6.55,-2.75 l 0.5,-0.8 0.45,0.6 V 1.55 1.8 2.2 2.25 Q -3.25,2.9 -3.4,3.7 -4.55,10 -11.05,7.4 -12.8,6.7 -13,4.9 q -0.6,0.15 -1.2,0.55 -1.15,0.75 -0.65,2 2.7,6.25 9.45,4.2 Q -1.6,10.5 0.25,8 1.35,8.6 3,8.7 L 8.7,8.35 Q 20,6.15 23.6,-4.7 L 23.65,-5.35 23.6,-6.65 23.4,-6.85 23,-7.1 q -0.2,0.05 -0.45,0.3 -0.4,0.4 -0.5,1 l -0.2,0.25 -1.25,1.45 -0.2,0.4 -1.35,2.2 Q 12.25,5.55 2.8,3.05 L 2.1,2.4 V 2.05 L 1.9,0.45 Q 1.1,-2.2 -0.45,-4.1 m -19.9,-19 q -0.65,1.95 -0.75,4.2 l -0.4,1.3 q -0.3,2.1 0.8,3.85 1.75,2.8 4.15,4.8 -5.2,0.25 -9.7,2.3 l 0.1,-1.5 0.25,-1.5 0.15,-0.85 0.05,-0.85 0.05,-0.25 1.6,-4.65 q 1.4,-3.8 3.7,-6.85"
         fill="#a89c9c"
         fill-rule="evenodd"
         stroke="none"
         id="path3" />
    </g>
    <g
       id="sprite1"
       transform="translate(17.4,15.85)">
      <use
         ffdec:characterId="31"
         height="57.200001"
         transform="matrix(0.5366,0,0,0.5366,-16.6582,-14.546)"
         width="70.75"
         xlink:href="#sprite2"
         id="use3" />
    </g>
    <g
       id="sprite2"
       transform="translate(-8.65,-10.35)">
      <use
         ffdec:characterId="30"
         height="57.200001"
         transform="translate(8.65,10.35)"
         width="70.75"
         xlink:href="#shape1"
         id="use4" />
    </g>
    <g
       id="shape1"
       transform="translate(-8.65,-10.35)">
      <path
         d="m 14.8,41.7 q 0.65,-1.75 2.65,-2.5 1.8,-0.8 3.7,-0.25 1.15,0.45 2.25,1.2 l 0.9,0.4 q 1.65,0.9 2.85,2.5 L 37.8,30.1 q 2.35,-2.8 3.75,-3.95 1.5,-1.15 4.25,-2.4 18.2,-8.85 27.65,-12.6 2.15,-0.8 3.25,-0.8 h 0.8 l 1.9,2.4 -0.2,0.8 q -0.2,1.1 -1.55,3 -5.85,8.25 -18.85,23.8 -1.85,2.35 -3.35,3.5 -1.4,1.15 -4.75,2.75 l -15.15,7.15 q 1.2,1.6 1.75,3.4 l 0.2,1 0.55,2.5 q 0.1,1.95 -1.1,3.55 -1.2,1.65 -3.05,1.9 l -1.3,0.05 q -1.65,0.2 -3.45,-0.65 -1.85,-0.9 -3,-2.6 L 25,60.95 23.8,62.1 q -2.6,2.85 -4.3,3.95 -2.85,1.8 -5.5,1.45 l -1.65,-0.5 -1.2,-0.7 -0.2,-0.2 q -1,-0.85 -1.6,-1.9 L 9.25,64 9.15,63.8 8.75,62.4 q -0.2,-0.8 -0.05,-1.7 0.25,-2.65 2.7,-5.05 1.5,-1.3 4.9,-3.15 L 17.7,51.55 16.05,50 q -1.35,-1.5 -1.8,-3.6 -0.4,-1.85 0.25,-3.45 l 0.3,-1.25"
         fill="#000000"
         fill-opacity="0.372549"
         fill-rule="evenodd"
         stroke="none"
         id="path4" />
    </g>
  </defs>
</svg>
