<?xml version="1.0" encoding="UTF-8" standalone="no"?>
<svg
   ffdec:objectType="frame"
   height="79.400002"
   width="83.723549"
   version="1.1"
   id="svg6"
   sodipodi:docname="ITEM Medical Mask.svg"
   xmlns:inkscape="http://www.inkscape.org/namespaces/inkscape"
   xmlns:sodipodi="http://sodipodi.sourceforge.net/DTD/sodipodi-0.dtd"
   xmlns:xlink="http://www.w3.org/1999/xlink"
   xmlns="http://www.w3.org/2000/svg"
   xmlns:svg="http://www.w3.org/2000/svg"
   xmlns:ffdec="https://www.free-decompiler.com/flash">
  <sodipodi:namedview
     id="namedview6"
     pagecolor="#ffffff"
     bordercolor="#000000"
     borderopacity="0.25"
     inkscape:showpageshadow="2"
     inkscape:pageopacity="0.0"
     inkscape:pagecheckerboard="0"
     inkscape:deskcolor="#d1d1d1"
     fit-margin-top="5"
     fit-margin-left="5"
     fit-margin-right="5"
     fit-margin-bottom="5" />
  <g
     transform="translate(43.237838,37.9)"
     id="g1">
    <use
       ffdec:characterId="17"
       height="119.15"
       id="rarity"
       transform="translate(-58.5,-60.65)"
       width="119.15"
       xlink:href="#sprite0" />
    <use
       ffdec:characterId="1011"
       height="79.650002"
       transform="translate(-43.25,-37.9)"
       width="83.75"
       xlink:href="#shape0"
       id="use1" />
  </g>
  <defs
     id="defs6">
    <g
       id="shape0"
       transform="translate(90.05,39.25)">
      <path
         d="m -50.25,-21.35 q -0.3,1.45 -1.1,1.95 l -1.05,0.3 h -1.15 l -1.5,0.05 -1.4,-0.2 q -1.2,-0.45 -2.4,-2.55 -2.8,-4.8 -4.65,-10.25 -0.7,-2.15 -0.15,-3.25 l 0.95,-1.1 q 1.95,-1.6 4,-2.4 l 2.05,-0.45 q 1.2,0 1.85,0.8 0.35,0.45 0.65,1.55 l 0.95,2.45 q 1.65,3.9 2.55,7.95 0.75,3.2 0.4,5.15 m -7.25,-13.75 -2.5,1.45 0.35,0.9 0.3,0.9 0.65,1.45 0.15,-0.1 2.5,-0.95 -1.45,-3.65 m 2,5.05 -2.35,1.45 1.45,2.75 1.4,-0.55 0.85,-0.35 -1.35,-3.3 M -74.3,-1.9 q -1.1,-0.65 -1.7,-1.7 -0.8,-1.4 -0.7,-3.8 l -0.65,0.05 q -1.6,0.25 -2.85,1.2 -1.5,1.15 -2.5,3.3 L -84,1.2 q -1.1,4.3 -1.05,6.55 0.05,3.05 1.65,5.85 1.55,2.8 4.2,4.4 2.4,1.5 4.8,1.5 2.05,0 3.75,-1 1.1,-0.6 2.45,-1.95 l 2.25,-2.15 q 2.1,-1.75 4.75,-2.6 2.65,-0.85 5.35,-0.5 2.7,0.35 5.05,1.8 2.4,1.45 3.85,3.7 1.1,1.7 2.4,5.6 1.1,3.5 1,5.45 -0.05,1.7 -1.25,4.8 -1.45,3.45 -3,4.95 -2,1.85 -5.45,2.55 l -5.95,-0.25 -1.05,-0.45 -0.45,0.1 -3.4,-0.2 q -2.65,-0.65 -4.45,-2.3 -1.95,-1.8 -2.5,-4.3 L -71.2,30.3 q 0.1,-1.7 0.4,-2.5 l 1.1,-1.95 1.6,-2.3 q 3.05,-3.45 7.1,-3.6 l 3.15,0.5 q 2.85,1.05 4.6,3.75 1.55,2.55 1.65,5.7 0.1,2.25 -0.8,4 l -1.4,1.9 1.8,-0.95 q 1.95,-1.35 2.85,-3.5 1.65,-4.15 -0.4,-8.95 -1.5,-3.45 -3.85,-4.9 -2.1,-1.35 -4.75,-1.1 -2.65,0.2 -4.65,1.75 l -2.7,2.75 q -1.65,1.8 -2.9,2.5 -2.5,1.4 -7.1,0.9 l -4.6,-0.9 q -3.65,-1.45 -7.15,-6.65 -1.75,-2.6 -2.35,-4.5 -0.9,-3.1 0.05,-8.55 1,-5.65 2.95,-9.1 2.75,-4.75 7.1,-6.1 l 3.7,-0.35 0.2,-0.6 q 0.95,-2 2.5,-2.95 l 2.5,-0.85 2.7,-0.65 5.75,-1.05 5.4,0.35 0.35,-0.15 1.8,0.3 1.25,1.35 q 0.95,1.75 1.05,4.4 0.2,3.9 -1.25,6.45 -0.8,1.55 -1.9,2.05 -0.65,0.35 -2.6,0.55 l -5.85,1 -5.9,0.85 -1.8,-0.1 -0.75,-0.3 q -1,-0.15 -1.95,-0.7 m 2.1,-3.55 0.75,0.1 q 0.75,-0.1 1.35,-0.7 0.55,-0.55 0.7,-1.3 0.15,-0.55 0.05,-1.3 L -69.4,-9.5 q -0.1,-1.1 -0.4,-1.45 l -0.8,-0.55 -0.6,-0.15 -0.55,0.45 -0.3,0.7 1.35,1.2 q 1,1.3 0.55,2.25 l -0.8,0.7 -1.15,0.1 -0.5,-0.1 0.15,0.5 0.25,0.4 m 7.1,-3.15 q 0,2 -0.75,3.55 l 7.1,-1.45 q 0.8,-0.1 1.2,-0.4 0.65,-0.4 1.05,-1.6 0.2,-0.65 0.25,-1.3 0.15,-1.2 0,-2.5 0,-0.75 -0.3,-1.35 l -0.15,-0.3 h -0.35 q -4.35,-0.05 -8.8,1.1 0.75,2.3 0.75,4.25 m 26.4,-9.9 q 0.9,-1.85 2.5,-3 -1.7,-0.75 -3.5,-1 h -1.25 q -0.5,0.2 -1.1,0.75 l -1.25,1.85 q -0.5,1 -0.65,2.2 l 0.1,1.2 1,0.85 q 1.2,0.75 3.05,1 0.1,-2.05 1.05,-3.85 h 0.05 m -9.1,3.85 q -0.4,-0.95 -0.3,-3.1 l 0.35,-2.55 q 0.35,-1.45 1.75,-3.3 2.05,-2.7 4.25,-3.2 1.65,-0.35 4.85,0.55 l 4.75,1.35 q 3.2,0.85 4.7,1.95 1.65,1.2 2.45,3.25 l 0.2,0.55 2.25,-0.55 q 3.2,-0.35 6.4,1.1 3.05,1.4 5.2,4.05 3.85,4.7 4.55,12.2 0.3,3.15 -0.45,5.1 -0.85,2 -2.95,3.7 -2.3,1.9 -4.8,2.4 l -5.95,-0.35 -6,-1.05 q -3.15,-0.2 -4.75,1.6 -0.75,0.85 -1.25,2.55 -0.95,3.2 -0.75,6.6 0.2,3.35 1.45,6.4 1.15,3.05 3.25,4.8 1.7,1.5 3.65,1.75 -1.55,-2.35 -1.35,-6.35 l 0.3,-2.15 0.95,-2 1.4,-2.2 q 2.4,-2.85 6,-3.25 l 3.45,0.3 q 1.7,0.55 3,1.65 L -9.4,19 q 1,1.1 1.3,1.8 0.25,0.6 0.35,1.4 0.55,3.2 -0.35,6.1 -1.1,3.25 -3.6,4.8 -1.3,0.9 -2.85,1.15 l -3,-0.25 -0.4,-0.1 -1.5,0.85 q -2,1 -4.2,1.25 L -28,35.6 q -2.85,-0.9 -5.1,-3.4 -2.05,-2.25 -3.35,-5.4 -3.1,-7.6 -1.15,-15.6 0.8,-3.2 2.25,-4.95 1.8,-2.3 5.1,-3.15 l 6.2,-0.15 3.4,0.8 3.45,0.5 q 1.85,0.05 3.4,-0.7 1.75,-0.85 2.35,-2.4 0.6,-1.35 0.2,-3.8 -0.7,-5.05 -2.8,-8 -1.25,-1.85 -3.05,-2.95 -1.9,-1.25 -3.95,-1.35 -1.5,-0.15 -3.95,0.5 l -0.65,1.5 q -0.9,1.6 -1.55,2.25 -1.6,1.75 -4.3,2.1 -2.15,0.3 -5.5,-0.55 l -2.3,-0.6 q -2.75,-0.75 -4.65,-1.6 -3.05,-1.4 -3.85,-3.3 m -6.95,-8.55 h 0.65 l 0.75,0.05 q 0.45,0 0.6,-0.3 l -0.55,-1.05 -0.15,-0.45 -1.8,1.1 0.15,0.25 0.35,0.4 M -38,-0.9 q -0.25,2.8 -2.35,3.9 -1.05,0.55 -2.85,0.55 l -1.55,-0.25 -1,-0.85 -1.15,-1.25 -3.7,-5 q -1.2,-2 -0.5,-3.6 0.5,-1.15 2.5,-2.25 l 2.1,-0.65 1.05,0.3 0.85,0.45 0.7,0.75 1.55,1.15 1.5,1.15 1.2,1.8 1,1.15 q 0.75,1 0.65,2.65 m -9.7,-5.25 -0.15,0.15 0.05,0.25 1.2,1.7 1,1.05 1.7,-1.8 -2.05,-1.4 q -0.55,-0.45 -0.8,-0.45 l -0.5,0.2 -0.45,0.3 m 4.7,5.4 0.3,0.6 0.6,-0.05 0.4,-0.2 0.2,-0.3 0.15,-0.3 0.15,-0.7 -0.4,-0.35 -0.5,-0.05 h -0.2 l -0.5,0.5 -0.15,0.45 -0.05,0.4 m 9.9,-15.6 0.85,-0.7 2.15,-0.55 1.85,-0.45 -0.15,-0.55 -0.3,-0.35 -0.35,-0.4 -0.6,-0.25 -1.55,-0.5 -0.8,-0.2 -0.7,0.35 -1.85,1.35 -0.6,0.75 -0.05,0.1 q -0.5,0.9 -0.9,2.9 v 0.75 l 0.6,0.65 0.6,0.55 1.25,0.45 h 1 l 1.3,-0.15 q 0.75,-0.15 1.25,-0.5 l 0.3,-0.2 h -0.35 q -1.45,0.1 -2.2,-0.3 -1.25,-0.65 -1.15,-1.75 l 0.4,-1 M -12.65,21.75 -14,20.4 q -1.4,-1.15 -3.8,-0.6 l -0.05,0.05 q -0.85,0.15 -1.25,0.4 l -0.1,0.15 -0.75,0.6 q -0.75,0.95 -1.35,2.45 l -0.45,1.5 0.05,1.05 0.25,1.25 0.5,1.35 0.75,0.8 q 0.7,-0.8 0.95,-1.8 l 0.05,-0.35 0.05,-1.95 q 0,-1.15 0.45,-1.8 0.55,-0.8 1.6,-0.85 1.05,-0.05 1.65,0.65 0.65,0.8 0.65,2.7 v 0.85 q -0.1,2 -0.45,3.4 1.45,-0.25 2.45,-1.55 l 0.8,-1.6 q 0.35,-0.95 0.4,-1.6 0.4,-2.45 -0.9,-3.65 l -0.15,-0.1 m -52.8,5.55 -0.2,0.25 -0.75,1.25 q -0.4,0.8 -0.4,1.7 -0.1,1.3 0.8,2.5 0.65,0.9 2.05,1.6 l -0.1,-2.5 q 0.2,-2.4 1.3,-3.2 0.55,-0.45 1.3,-0.5 0.75,0 1.35,0.4 0.6,0.4 0.9,1.05 0.3,0.7 0.15,1.4 l -0.4,1.3 -0.1,0.25 q -0.25,1.35 0.9,2.3 l 0.3,0.25 0.7,-0.4 q 1.15,-0.55 1.85,-1.75 0.7,-1.15 0.8,-2.55 0.1,-1 -0.15,-1.65 l -0.35,-0.8 -0.45,-0.85 -0.45,-0.75 q -0.7,-1 -1.7,-1.65 -1.2,-0.65 -2.65,-0.6 -1.45,0.05 -2.6,0.8 -1,0.7 -2.1,2.15"
         fill="#000000"
         fill-rule="evenodd"
         stroke="none"
         id="path1" />
      <path
         d="m -72.2,-5.45 -0.25,-0.4 -0.15,-0.5 0.5,0.1 1.15,-0.1 0.8,-0.7 Q -69.7,-8 -70.7,-9.3 l -1.35,-1.2 0.3,-0.7 0.55,-0.45 0.6,0.15 0.8,0.55 q 0.3,0.35 0.4,1.45 l 0.05,0.85 q 0.1,0.75 -0.05,1.3 -0.15,0.75 -0.7,1.3 -0.6,0.6 -1.35,0.7 l -0.75,-0.1 m 15.95,-4.35 -0.6,0.15 -3.4,0.85 -4.4,0.2 h -0.45 q 0,-1.95 -0.75,-4.25 4.45,-1.15 8.8,-1.1 h 0.35 l 0.15,0.3 q 0.3,0.6 0.3,1.35 0.15,1.3 0,2.5 m 12.95,-10.1 1.25,-1.85 q 0.6,-0.55 1.1,-0.75 h 1.25 q 1.8,0.25 3.5,1 -1.6,1.15 -2.5,3 l -1.35,-0.15 -1.9,-0.15 q -0.9,-0.3 -1.35,-1.1 m 8.1,2.15 0.05,-0.1 0.6,-0.75 1.85,-1.35 0.7,-0.35 0.8,0.2 1.55,0.5 0.6,0.25 0.35,0.4 0.3,0.35 0.15,0.55 -1.85,0.45 -2.15,0.55 -0.85,0.7 -1.1,-0.5 -0.8,-0.8 -0.2,-0.1"
         fill="#927474"
         fill-rule="evenodd"
         stroke="none"
         id="path2" />
      <path
         d="m -65.1,-8.6 h 0.45 l 4.4,-0.2 3.4,-0.85 0.6,-0.15 q -0.05,0.65 -0.25,1.3 -0.4,1.2 -1.05,1.6 -0.4,0.3 -1.2,0.4 l -7.1,1.45 q 0.75,-1.55 0.75,-3.55 m 21.8,-11.3 q 0.45,0.8 1.35,1.1 l 1.9,0.15 1.35,0.15 h -0.05 q -0.95,1.8 -1.05,3.85 -1.85,-0.25 -3.05,-1 l -1,-0.85 -0.1,-1.2 q 0.15,-1.2 0.65,-2.2 m 8.1,2.15 0.2,0.1 0.8,0.8 1.1,0.5 -0.4,1 q -0.1,1.1 1.15,1.75 0.75,0.4 2.2,0.3 h 0.35 l -0.3,0.2 q -0.5,0.35 -1.25,0.5 l -1.3,0.15 h -1 l -1.25,-0.45 -0.6,-0.55 -0.6,-0.65 v -0.75 q 0.4,-2 0.9,-2.9"
         fill="#765c5c"
         fill-rule="evenodd"
         stroke="none"
         id="path3" />
      <path
         d="m -55.5,-30.05 1.35,3.3 -0.85,0.35 -1.4,0.55 -1.45,-2.75 2.35,-1.45 m -2,-5.05 1.45,3.65 -2.5,0.95 -0.15,0.1 -0.65,-1.45 -0.3,-0.9 -0.35,-0.9 2.5,-1.45 m 2.75,11.9 -0.35,-0.4 -0.15,-0.25 1.8,-1.1 0.15,0.45 0.55,1.05 q -0.15,0.3 -0.6,0.3 l -0.75,-0.05 h -0.65 m 11.75,22.45 0.05,-0.4 0.15,-0.45 0.5,-0.5 h 0.2 l 0.5,0.05 0.4,0.35 -0.15,0.7 -0.15,0.3 -0.2,0.3 -0.4,0.2 -0.6,0.05 -0.3,-0.6 m -4.7,-5.4 0.45,-0.3 0.5,-0.2 q 0.25,0 0.8,0.45 l 2.05,1.4 -1.7,1.8 -1,-1.05 -1.2,-1.7 -0.05,-0.25 0.15,-0.15 m 26,32.15 -0.05,-1.05 0.45,-1.5 q 0.6,-1.5 1.35,-2.45 l 0.75,-0.6 0.1,-0.15 q 0.4,-0.25 1.25,-0.4 l 0.05,-0.05 q 2.4,-0.55 3.8,0.6 l 1.35,1.35 0.05,0.15 q 0.3,0.95 0.05,1.9 -0.35,1.85 -2.25,3.05 V 26 q 0,-1.9 -0.65,-2.7 -0.6,-0.7 -1.65,-0.65 -1.05,0.05 -1.6,0.85 -0.45,0.65 -0.45,1.8 l -0.05,1.95 -0.05,0.35 q -1.1,-0.35 -2.05,-1.15 L -21.7,26 m -42.35,6.1 q -1.15,-0.7 -1.55,-1.95 -0.3,-1 0.05,-2.5 l 0.1,-0.35 q 1.1,-1.45 2.1,-2.15 1.15,-0.75 2.6,-0.8 1.45,-0.05 2.65,0.6 1,0.65 1.7,1.65 l 0.45,0.75 v 0.1 q 0.25,1.4 -0.25,2.6 -0.55,1.45 -2.05,2.1 l -1.1,0.35 -0.1,0.05 0.4,-1.3 q 0.15,-0.7 -0.15,-1.4 -0.3,-0.65 -0.9,-1.05 -0.6,-0.4 -1.35,-0.4 -0.75,0.05 -1.3,0.5 -1.1,0.8 -1.3,3.2"
         fill="#cfcfcf"
         fill-rule="evenodd"
         stroke="none"
         id="path4" />
      <path
         d="m -21.7,26 0.4,0.45 q 0.95,0.8 2.05,1.15 -0.25,1 -0.95,1.8 l -0.75,-0.8 -0.5,-1.35 L -21.7,26 m 6.9,0.85 q 1.9,-1.2 2.25,-3.05 0.25,-0.95 -0.05,-1.9 l -0.05,-0.15 0.15,0.1 q 1.3,1.2 0.9,3.65 -0.05,0.65 -0.4,1.6 l -0.8,1.6 q -1,1.3 -2.45,1.55 0.35,-1.4 0.45,-3.4 m -50.65,0.45 -0.1,0.35 q -0.35,1.5 -0.05,2.5 0.4,1.25 1.55,1.95 l 0.1,2.5 q -1.4,-0.7 -2.05,-1.6 -0.9,-1.2 -0.8,-2.5 0,-0.9 0.4,-1.7 l 0.75,-1.25 0.2,-0.25 m 6,5.25 0.1,-0.05 1.1,-0.35 q 1.5,-0.65 2.05,-2.1 0.5,-1.2 0.25,-2.6 v -0.1 l 0.45,0.85 0.35,0.8 q 0.25,0.65 0.15,1.65 -0.1,1.4 -0.8,2.55 -0.7,1.2 -1.85,1.75 l -0.7,0.4 -0.3,-0.25 q -1.15,-0.95 -0.9,-2.3 l 0.1,-0.25"
         fill="#a2a2a2"
         fill-rule="evenodd"
         stroke="none"
         id="path5" />
    </g>
    <g
       id="sprite1"
       transform="translate(17.4,15.85)">
      <use
         ffdec:characterId="31"
         height="57.200001"
         transform="matrix(0.5366,0,0,0.5366,-16.6582,-14.546)"
         width="70.75"
         xlink:href="#sprite2"
         id="use5" />
    </g>
    <g
       id="sprite2"
       transform="translate(-8.65,-10.35)">
      <use
         ffdec:characterId="30"
         height="57.200001"
         transform="translate(8.65,10.35)"
         width="70.75"
         xlink:href="#shape1"
         id="use6" />
    </g>
    <g
       id="shape1"
       transform="translate(-8.65,-10.35)">
      <path
         d="m 14.8,41.7 q 0.65,-1.75 2.65,-2.5 1.8,-0.8 3.7,-0.25 1.15,0.45 2.25,1.2 l 0.9,0.4 q 1.65,0.9 2.85,2.5 L 37.8,30.1 q 2.35,-2.8 3.75,-3.95 1.5,-1.15 4.25,-2.4 18.2,-8.85 27.65,-12.6 2.15,-0.8 3.25,-0.8 h 0.8 l 1.9,2.4 -0.2,0.8 q -0.2,1.1 -1.55,3 -5.85,8.25 -18.85,23.8 -1.85,2.35 -3.35,3.5 -1.4,1.15 -4.75,2.75 l -15.15,7.15 q 1.2,1.6 1.75,3.4 l 0.2,1 0.55,2.5 q 0.1,1.95 -1.1,3.55 -1.2,1.65 -3.05,1.9 l -1.3,0.05 q -1.65,0.2 -3.45,-0.65 -1.85,-0.9 -3,-2.6 L 25,60.95 23.8,62.1 q -2.6,2.85 -4.3,3.95 -2.85,1.8 -5.5,1.45 l -1.65,-0.5 -1.2,-0.7 -0.2,-0.2 q -1,-0.85 -1.6,-1.9 L 9.25,64 9.15,63.8 8.75,62.4 q -0.2,-0.8 -0.05,-1.7 0.25,-2.65 2.7,-5.05 1.5,-1.3 4.9,-3.15 L 17.7,51.55 16.05,50 q -1.35,-1.5 -1.8,-3.6 -0.4,-1.85 0.25,-3.45 l 0.3,-1.25"
         fill="#000000"
         fill-opacity="0.372549"
         fill-rule="evenodd"
         stroke="none"
         id="path6" />
    </g>
  </defs>
</svg>
