<?xml version="1.0" encoding="UTF-8" standalone="no"?>
<svg
   ffdec:objectType="frame"
   height="96.368752"
   width="91.7798"
   version="1.1"
   id="svg5"
   xmlns:xlink="http://www.w3.org/1999/xlink"
   xmlns="http://www.w3.org/2000/svg"
   xmlns:svg="http://www.w3.org/2000/svg"
   xmlns:ffdec="https://www.free-decompiler.com/flash">
  <g
     transform="translate(45.326471,47.8)"
     id="g1">
    <use
       ffdec:characterId="17"
       height="119.15"
       id="rarity"
       transform="translate(-58.5,-60.65)"
       width="119.15"
       xlink:href="#sprite0" />
    <use
       ffdec:characterId="645"
       height="96.5"
       transform="translate(-45.35,-47.95)"
       width="91.800003"
       xlink:href="#shape0"
       id="use1" />
  </g>
  <defs
     id="defs5">
    <g
       id="shape0"
       transform="translate(44.95,47.15)">
      <path
         d="m -28.65,47.05 q -2.1,-1.8 -3.1,-3.15 -1.5,-1.85 -1.35,-3.85 l 0.55,-1.95 q -3.2,2.05 -5.6,1.3 -1.25,-0.45 -2.3,-1.65 l -1.65,-2.6 -2.35,-4.4 Q -45.35,28 -44.55,25.9 -44,24.3 -41.8,22.45 -35.1,16.15 -26.2,10 -27.45,8.85 -27.8,7.9 V 5.85 l -0.3,-1.9 q 0.05,-1.2 1.35,-2.9 2.6,-3.3 5.3,-4.4 l 2.4,-0.8 6.25,-1.1 h 2.75 l 0.7,-1.25 4.15,-5.35 -1.75,-1.4 -4.05,-3.6 -2.05,-1.9 q -0.5,-0.75 -0.6,-1.4 -1.05,-0.35 -2.5,-1.25 l -3.05,-2.5 q -1.5,-1.35 -1.75,-2.25 -0.35,-0.85 -0.05,-1.9 l 0.6,-1.9 1.15,-4.85 q 0.25,-1.3 0.85,-2.2 0.7,-1.15 1.7,-1.45 l 1.65,-0.2 3.5,-0.1 2.85,0.15 q 1.7,0.4 2.4,1.55 0.55,1.05 0.4,2.45 l -0.15,2.55 v 2.1 l 0.2,2.15 0.1,0.4 q 0.4,0.05 1,0.45 l 2.25,1.45 2.3,1.6 1.6,0.75 0.6,0.5 0.1,-0.2 0.6,-1.5 0.65,-1.4 0.55,-3.8 q 0.35,-2.35 1.7,-3.3 l 0.45,-0.3 v -0.1 l -0.2,-2.2 q 0,-1.7 1.45,-3.25 l 2.65,-2.65 2.1,-2.4 2.15,-2.4 1.6,-0.85 2.9,0.25 3.5,1.75 2.4,2 q 1.2,1.4 0.95,2.9 -0.1,1.2 -1.5,3 l -3.4,4.7 -2.3,2.7 H 18.3 q 0.35,0.7 0.3,1.45 l -0.35,1.35 -0.55,1.3 -0.45,2.65 -1.35,5.1 -0.25,0.8 0.8,0.25 0.35,0.1 0.7,-1.3 1.5,-1.6 0.95,-1.8 q 0.7,-1.25 1.95,-2.6 1,-0.95 1.7,-1.25 l 0.3,-1.55 0.85,-1.3 1.25,-1.1 1.3,-0.95 1.45,-1.55 1.45,-1.1 1.15,-1.1 q 0.95,-0.9 2.35,-1.3 l 1.7,-0.2 q 1.8,0.1 3.8,1.85 1.5,1.25 2.2,2.6 0.9,1.85 0.1,3.35 l -1.3,1.45 -1.6,1.15 -2.7,2.5 -2.65,2 q 0.6,0.8 0.45,1.45 -0.1,0.7 -0.75,1.65 l -3.7,5.75 L 26,-8.3 q 0.1,1.1 -0.5,2.7 l -1.95,3.6 0.05,-0.05 2.45,0.75 q 2.5,0.7 3.65,1.6 l 1.35,1.6 0.2,-0.2 q 0.25,-0.1 2.2,-0.9 1.7,-0.75 3.6,-2.45 l 1.55,-1.1 2.05,0.25 1.65,1.15 2.7,2.25 q 1.5,1.25 1.8,2.05 0.2,1 -0.35,2.25 l -1.5,1.9 -1.55,1.6 -5.3,5.05 q -0.85,0.6 -1.45,0.7 -1.05,0.3 -2.85,-0.4 -3.35,-1.4 -5.25,-2.8 L 28.5,11.3 q -1.1,2.4 -2.4,2.95 -1.2,0.45 -3.15,-0.4 L 20.8,12.8 18.25,11.5 15.15,10.45 14.1,9.85 13.9,10.05 Q 12.6,11.4 11.55,11.7 L 9.6,11.5 9.4,11.7 q -3.95,6.55 -8.5,12.75 2.35,0.8 3.4,3.95 0.8,2.25 0.65,4.4 -0.15,3.65 -2.65,7.2 -1.4,2 -3,3 -3.35,2.2 -9.8,0.95 L -14.3,43 q -3.7,3.9 -6.6,5.45 -1.9,1.05 -3.55,0.9 -1.6,-0.15 -4.2,-2.3 m 18,-77.45 -0.2,-1.95 -0.05,-0.3 -0.05,-0.9 -0.6,0.1 h -1.8 q -0.35,-0.2 -0.55,0 l -0.25,0.4 -0.2,1.8 -0.6,1.8 -0.25,0.85 -0.1,0.65 0.45,0.6 2.1,1.6 1.7,1.15 1.35,-1.6 -0.4,-1.2 -0.55,-3 m 6.8,12.1 1.45,1.1 0.75,0.7 1.45,-1.7 -0.95,-0.4 -1.6,-0.85 -3.5,-2.1 -0.6,0.7 3,2.55 m 5.95,7.85 -1.65,1.85 -1.4,2 q -0.45,1.15 -0.8,1.6 l -1.2,1.5 1.35,1.65 0.5,0.3 2.8,2.5 3.15,-4.25 0.8,-1.4 q 0.8,-1.2 3,-3.2 l 1.25,-1.85 1.3,-1.85 -0.95,-0.45 -1.9,-1 q -1.95,-1.05 -3.1,-1.4 -1.45,2.15 -3.15,4 m -11.65,10.05 -0.55,-0.8 -4.85,1 q -3.4,0.85 -5.55,2.35 -1.35,0.9 -1.7,2.15 l -0.15,0.9 0.45,1 0.55,0.6 q 5.15,-3.35 11.8,-7.2 m 40.3,-22.65 0.45,0.4 0.2,-0.25 0.75,-1.1 q 0.95,-1.3 3.75,-3.85 l 1.55,-1.1 -0.2,-0.3 -0.5,-0.6 -0.9,-0.75 -0.4,-0.05 q -0.6,0 -1.15,0.6 l -2.6,2.6 -1.8,1.85 -0.75,0.65 -0.15,0.85 0.05,0.05 1.7,1 m -17.85,-13.8 -0.8,0.75 -0.65,0.7 v 1 l 0.1,1.25 2.95,0.75 1.05,0.4 0.3,-0.5 2.05,-3.55 1.15,-1.7 0.2,-0.15 1.3,-1.9 q -1.15,-0.95 -2.5,-1.6 l -0.9,-0.2 -0.75,0.7 -3.5,4.05 m -1.35,16.45 1.25,-6.5 -3.2,-0.85 -0.15,0.05 -0.15,0.3 q 0.05,2.35 -1.65,6.4 l -0.1,0.05 3.85,1.8 0.15,-1.25 M 7.6,5.5 8.05,5.8 H 8.5 L 9.25,5.75 10,5.85 10.55,5.45 13.3,2.25 8.95,-0.05 8.4,-0.4 7.4,0.95 5.9,3.1 5.45,4.05 H 5.5 l 1.6,1.2 0.5,0.25 m 8.15,-6.5 0.55,-0.75 2.35,-3.35 0.85,-1.5 -4,-3.35 -0.55,-0.25 -0.2,-0.1 -0.15,0.2 -1.35,2.35 -1.3,2.15 -1.05,1.1 0.9,0.9 0.35,0.3 1.65,1.4 0.15,0.15 1.3,1.05 0.15,0.2 0.35,-0.5 m 5.55,-12.85 2.05,1.8 4.45,-6.85 -1.65,-0.9 -0.55,-0.2 -0.5,0.35 -3.8,5.8 M 38.05,6.35 40,4.25 38.3,2.75 q -1.8,1.3 -3.9,2.2 l -1.45,0.6 -1.7,0.2 H 31.1 l -0.2,-0.05 -0.05,0.25 0.25,0.2 1.35,1.1 q 0.6,0.5 2.2,1.3 l 0.6,0.25 1.05,-0.65 1.75,-1.8 M 20.8,6.6 q 2.3,0.7 3.65,1.6 L 25.9,4.9 q 0.5,-0.75 0.45,-1.3 l -4.9,-1.3 -0.7,-0.25 -2.9,3.7 2.95,0.85 M -2.5,19 3.3,10.55 1.95,9.8 1.4,9.5 l -7.5,7.85 -2.1,2.35 -3.85,4 -0.7,0.75 -7.65,8.45 1.5,1.6 2.5,2.2 0.2,0.1 q 5.35,-6.5 10.25,-13.15 L -2.5,19 M -7.35,9.4 -3.65,5.7 -5.1,4.4 -8.05,6.25 -11.8,8.3 l -1.25,0.8 -2,1.4 -8.1,5.75 0.4,0.45 2.5,2.8 0.7,0.75 0.05,-0.05 q 6.1,-5.15 12.15,-10.8 m -16.55,14.65 1.75,-1.55 -4.65,-3.65 -2.6,1.75 -0.6,0.5 q -2.5,1.8 -6.25,5.6 l 6.95,0.25 1.45,0.5 3.95,-3.4 m -11.45,8.8 0.7,0.6 q 0.4,0.1 0.8,-0.45 l 1.4,-1.3 -2.75,0.2 -0.65,0.2 0.5,0.75 m 9.45,7.5 q 1.45,2.1 3.75,3.35 l 2.75,-3.2 -2.8,-2.45 q -0.75,-0.7 -1.4,-1.2 -1.7,2.15 -2.3,3.5 M -8,39.4 -4.05,39.05 q 1.3,-0.6 2.35,-2.3 1.25,-1.95 1.5,-3.9 0.15,-2.45 -1.45,-4.45 l -0.2,-0.2 -8.9,10.85 2.75,0.35"
         fill="#000000"
         fill-rule="evenodd"
         stroke="none"
         id="path1" />
      <path
         d="m -14.95,-29.45 0.6,-1.8 0.2,-1.8 0.25,-0.4 q 0.2,-0.2 0.55,0 h 1.8 l 0.6,-0.1 0.05,0.9 0.05,0.3 0.2,1.95 q -0.65,0.35 -1.8,0.75 l -2.1,0.3 -0.4,-0.1 m 12.2,10 q -0.2,0.55 -0.7,0.9 l -0.4,0.25 -3,-2.55 0.6,-0.7 3.5,2.1 m 13,7.4 q -0.3,0.65 -1,1.15 -0.1,0.1 -1.35,0.55 L 5.65,-9.5 q -1.3,0.4 -2.3,0 l -1.2,-0.95 H 2.1 q 1.7,-1.85 3.15,-4 1.15,0.35 3.1,1.4 l 1.9,1 m 8.8,-25.7 -0.25,0.15 q -2.8,1.5 -4.45,1.3 -0.95,-0.05 -1.45,-0.55 l 3.5,-4.05 0.75,-0.7 0.9,0.2 q 1.35,0.65 2.5,1.6 l -1.3,1.9 -0.2,0.15 M 34.4,4.95 q 2.1,-0.9 3.9,-2.2 L 40,4.25 38.05,6.35 36,6.6 Q 34.55,6.2 34.4,4.95 m -42.6,14.75 2.15,-0.6 3.25,-0.2 0.3,0.1 -3.45,4.65 -0.5,0.15 -3.25,0.55 -1.95,-0.4 -0.4,-0.25 3.85,-4 M -13.05,9.1 -11.8,8.3 -8.05,6.25 -5.1,4.4 l 1.45,1.3 -3.7,3.7 -1.55,0.5 -4.2,0.2 0.05,-1 m -16.95,12 0.6,-0.5 2.6,-1.75 4.65,3.65 -1.75,1.55 -2.15,-0.45 q -2.1,-0.35 -2.8,-0.85 -0.75,-0.45 -1.1,-1.4 L -30,21.1"
         fill="#ffffff"
         fill-rule="evenodd"
         stroke="none"
         id="path2" />
      <path
         d="m -14.95,-29.45 0.4,0.1 2.1,-0.3 q 1.15,-0.4 1.8,-0.75 l 0.55,3 0.4,1.2 -1.35,1.6 -1.7,-1.15 -2.1,-1.6 -0.45,-0.6 0.1,-0.65 0.25,-0.85 m 12.2,10 1.6,0.85 0.95,0.4 -1.45,1.7 -0.75,-0.7 -1.45,-1.1 0.4,-0.25 q 0.5,-0.35 0.7,-0.9 m 33.5,-3.6 -1.7,-1 -0.05,-0.05 0.15,-0.85 0.75,-0.65 1.8,-1.85 2.6,-2.6 q 0.55,-0.6 1.15,-0.6 l 0.4,0.05 0.9,0.75 0.5,0.6 0.2,0.3 -1.55,1.1 q -2.8,2.55 -3.75,3.85 l -0.75,1.1 -0.2,0.25 -0.45,-0.4 M 12.9,-36.85 q 0.5,0.5 1.45,0.55 1.65,0.2 4.45,-1.3 l 0.25,-0.15 -1.15,1.7 -2.05,3.55 -0.3,0.5 -1.05,-0.4 -2.95,-0.75 -0.1,-1.25 v -1 l 0.65,-0.7 0.8,-0.75 m -1.35,16.45 -0.15,1.25 -3.85,-1.8 0.1,-0.05 q 1.7,-4.05 1.65,-6.4 l 0.15,-0.3 0.15,-0.05 3.2,0.85 -1.25,6.5 m 9.75,6.55 3.8,-5.8 0.5,-0.35 0.55,0.2 1.65,0.9 -4.45,6.85 -2.05,-1.8 M 34.4,4.95 Q 34.55,6.2 36,6.6 L 38.05,6.35 36.3,8.15 35.25,8.8 34.65,8.55 q -1.6,-0.8 -2.2,-1.3 l -1.35,-1.1 0.15,-0.4 1.7,-0.2 1.45,-0.6 M 20.8,6.6 17.85,5.75 l 2.9,-3.7 0.7,0.25 4.9,1.3 Q 26.4,4.15 25.9,4.9 L 24.45,8.2 Q 23.1,7.3 20.8,6.6 m -33.85,2.5 -0.05,1 4.2,-0.2 1.55,-0.5 q -6.05,5.65 -12.15,10.8 l -0.05,0.05 -0.7,-0.75 -2.5,-2.8 -0.4,-0.45 8.1,-5.75 2,-1.4 m -16.95,12 0.05,0.25 q 0.35,0.95 1.1,1.4 0.7,0.5 2.8,0.85 l 2.15,0.45 -3.95,3.4 -1.45,-0.5 -6.95,-0.25 q 3.75,-3.8 6.25,-5.6 m -5.35,11.75 -0.5,-0.75 0.65,-0.2 2.75,-0.2 -1.4,1.3 q -0.4,0.55 -0.8,0.45 l -0.7,-0.6"
         fill="#686868"
         fill-rule="evenodd"
         stroke="none"
         id="path3" />
      <path
         d="m 10.25,-12.05 0.95,0.45 -1.3,1.85 -1.25,1.85 q -2.2,2 -3,3.2 l -0.8,1.4 -3.15,4.25 -2.8,-2.5 -0.5,-0.3 -1.35,-1.65 1.2,-1.5 q 0.35,-0.45 0.8,-1.6 l 1.4,-2 1.65,-1.85 h 0.05 l 1.2,0.95 q 1,0.4 2.3,0 l 2.25,-0.85 q 1.25,-0.45 1.35,-0.55 0.7,-0.5 1,-1.15 m 5,11.35 -1.3,-1.05 -0.15,-0.15 -1.65,-1.4 -0.35,-0.3 -0.9,-0.9 1.05,-1.1 1.3,-2.15 1.35,-2.35 0.15,-0.2 0.2,0.1 0.55,0.25 4,3.35 -0.85,1.5 L 16.3,-1.75 15.75,-1 15.6,-0.95 15.25,-0.7 M 7.6,5.5 7.1,5.25 5.5,4.05 H 5.45 L 5.9,3.1 7.4,0.95 8.4,-0.4 8.95,-0.05 13.3,2.25 10.55,5.45 10,5.85 9.25,5.75 8.5,5.8 H 8.05 L 7.6,5.5 M 31.1,6.15 30.85,5.95 30.9,5.7 31.1,5.75 h 0.15 L 31.1,6.15 M -8.2,19.7 -6.1,17.35 1.4,9.5 1.95,9.8 3.3,10.55 -2.5,19 -2.8,18.9 -6.05,19.1 -8.2,19.7 m 2.25,3.95 q -4.9,6.65 -10.25,13.15 l -0.2,-0.1 -2.5,-2.2 -1.5,-1.6 7.65,-8.45 0.7,-0.75 0.4,0.25 1.95,0.4 3.25,-0.55 0.5,-0.15 m -19.95,16.7 q 0.6,-1.35 2.3,-3.5 0.65,0.5 1.4,1.2 l 2.8,2.45 -2.75,3.2 q -2.3,-1.25 -3.75,-3.35"
         fill="#4a4a4a"
         fill-rule="evenodd"
         stroke="none"
         id="path4" />
    </g>
    <g
       id="sprite1"
       transform="translate(17.4,15.85)">
      <use
         ffdec:characterId="31"
         height="57.200001"
         transform="matrix(0.5366,0,0,0.5366,-16.6582,-14.546)"
         width="70.75"
         xlink:href="#sprite2"
         id="use4" />
    </g>
    <g
       id="sprite2"
       transform="translate(-8.65,-10.35)">
      <use
         ffdec:characterId="30"
         height="57.200001"
         transform="translate(8.65,10.35)"
         width="70.75"
         xlink:href="#shape1"
         id="use5" />
    </g>
    <g
       id="shape1"
       transform="translate(-8.65,-10.35)">
      <path
         d="m 14.8,41.7 q 0.65,-1.75 2.65,-2.5 1.8,-0.8 3.7,-0.25 1.15,0.45 2.25,1.2 l 0.9,0.4 q 1.65,0.9 2.85,2.5 L 37.8,30.1 q 2.35,-2.8 3.75,-3.95 1.5,-1.15 4.25,-2.4 18.2,-8.85 27.65,-12.6 2.15,-0.8 3.25,-0.8 h 0.8 l 1.9,2.4 -0.2,0.8 q -0.2,1.1 -1.55,3 -5.85,8.25 -18.85,23.8 -1.85,2.35 -3.35,3.5 -1.4,1.15 -4.75,2.75 l -15.15,7.15 q 1.2,1.6 1.75,3.4 l 0.2,1 0.55,2.5 q 0.1,1.95 -1.1,3.55 -1.2,1.65 -3.05,1.9 l -1.3,0.05 q -1.65,0.2 -3.45,-0.65 -1.85,-0.9 -3,-2.6 L 25,60.95 23.8,62.1 q -2.6,2.85 -4.3,3.95 -2.85,1.8 -5.5,1.45 l -1.65,-0.5 -1.2,-0.7 -0.2,-0.2 q -1,-0.85 -1.6,-1.9 L 9.25,64 9.15,63.8 8.75,62.4 q -0.2,-0.8 -0.05,-1.7 0.25,-2.65 2.7,-5.05 1.5,-1.3 4.9,-3.15 L 17.7,51.55 16.05,50 q -1.35,-1.5 -1.8,-3.6 -0.4,-1.85 0.25,-3.45 l 0.3,-1.25"
         fill="#000000"
         fill-opacity="0.372549"
         fill-rule="evenodd"
         stroke="none"
         id="path5" />
    </g>
  </defs>
</svg>
