<?xml version="1.0" encoding="UTF-8" standalone="no"?>
<svg
   ffdec:objectType="frame"
   height="72.900002"
   width="66.924431"
   version="1.1"
   id="svg4"
   xmlns:xlink="http://www.w3.org/1999/xlink"
   xmlns="http://www.w3.org/2000/svg"
   xmlns:svg="http://www.w3.org/2000/svg"
   xmlns:ffdec="https://www.free-decompiler.com/flash">
  <g
     transform="translate(33.402174,40.85)"
     id="g1">
    <use
       ffdec:characterId="17"
       height="119.15"
       id="rarity"
       transform="translate(-58.5,-60.65)"
       width="119.15"
       xlink:href="#sprite0" />
    <use
       ffdec:characterId="422"
       height="72.900002"
       transform="translate(-33.4,-40.85)"
       width="66.900002"
       xlink:href="#shape0"
       id="use1" />
  </g>
  <defs
     id="defs4">
    <g
       id="shape0"
       transform="translate(33,40.05)">
      <path
         d="m 30.7,-40.05 q 4.85,1.25 2.4,5.75 -1.65,2.95 -2.8,6.05 L 22.75,-8.5 q -0.55,3.45 -4.3,4.85 l -1.4,0.35 -0.4,2.6 q -0.15,1.4 -0.9,2.55 -0.85,5.45 -4.6,9 l -0.7,0.4 Q 7.35,12.3 4.4,13.8 3.45,15.25 3.15,17 q -0.2,1.35 -0.75,2.6 -1.05,5.65 -7.05,7.25 -3.55,0.95 -6.7,2.8 -7,4 -15.05,3 -3,-0.4 -5.55,-1.7 -1.1,-0.55 -1.05,-1.85 0.3,-8.15 1.4,-16.05 0.15,-0.85 0.85,-1.45 4.4,-3.55 9.15,-6.55 -0.15,-5.95 3,-10.9 1.1,-1.7 3.05,-2.2 l 17.7,-4.55 q 0.6,-7.5 6.75,-12.1 l 10.85,-8.05 7.7,-5.85 q 1.55,-1.15 3.25,-1.45 m -21.35,30.6 0.55,0.5 q 0.55,0.45 1.2,0.6 l 1.25,1 0.8,-0.65 q 2.05,-1 3.95,-2.15 l 3.7,-9.2 q 2,-4.9 3.2,-9.1 l -1.95,1.25 -2.15,1.55 q -0.6,0.5 -1.3,0.85 l -6.95,5.8 -2.85,2.75 q -0.35,2.55 -1.2,4.8 l 0.35,0.3 1.4,1.7 M 8.3,-7.35 7.75,-7.7 7.6,-7.8 6.8,-8.25 6.65,-8.45 6.45,-8.65 6.35,-8.75 5.85,-7.9 5.65,-7.6 4.7,-6.95 4.05,-6.8 3.65,-6.7 3.9,-6.3 4.95,-4.55 7.1,-0.5 7.5,0.35 8.45,2.8 9.1,3.65 9.4,2.75 10.55,-0.4 10.7,-0.65 11.6,-5.4 8.3,-7.35 m -8.2,5.1 V -3.1 L -0.05,-3.3 -0.2,-3.5 -0.3,-5.6 V -5.65 -5.8 l -12.85,3.6 0.2,0.4 0.05,0.1 0.65,1.35 1.35,2.7 0.1,0.15 3.55,7.3 q 1,2.05 1.35,4.2 0.45,0.7 0.5,1.5 l 0.05,0.85 q 0.4,0.5 0.55,1.1 l 0.1,0.65 1,1.75 0.05,0.05 0.3,0.15 0.2,-0.15 2.9,-8.95 q 0.3,-1 0.95,-1.7 L 0.5,5.3 0.4,1.45 0.15,0.5 Q -0.05,-0.3 0,-1.15 l 0.1,-1.1 M 4.45,0.5 4.2,-0.05 3.8,-0.65 3.55,-1.9 3.4,-2.2 3.2,-2.6 2.5,-3.45 l 0.1,1.5 0.1,5 L 2.65,6.15 2.6,7.9 2.75,7.8 7.45,6 Q 5.85,4.1 4.9,1.55 L 4.45,0.5 M -14.15,0.25 -14.7,-1 l -0.05,0.05 -0.1,0.25 -0.25,3.4 -0.15,0.7 q -0.35,1.75 -1,3.4 l -1,2.1 0.05,0.15 0.25,0.45 0.1,0.2 1.85,1.55 2.5,2.2 1.35,1 0.1,0.15 0.05,0.05 0.1,0.2 q 1.05,0.55 2.05,1.25 l 0.7,0.35 0.6,0.35 L -7.6,16.35 -7.65,15.5 Q -8.1,14.95 -8.1,14.25 l 0.05,-0.65 -3.65,-8.15 -0.4,-0.9 -0.15,-0.4 -1.1,-2.2 -0.2,-0.4 -0.1,-0.4 v -0.2 l -0.4,-0.45 -0.05,-0.15 -0.05,-0.1 m -1.1,21.4 -0.35,-0.85 -2.4,-5.15 -0.15,-0.2 -0.2,-0.25 -0.15,-0.2 q -0.2,-1.4 -0.85,-2.7 l -0.6,-1.1 -2.85,1.8 -3.85,3.15 v 4.3 q 0.05,2.25 -0.25,4.5 l -0.1,1.1 q 4.25,1.4 9.5,1.2 l 3.05,-1.7 0.75,-0.3 -1.55,-3.6 m 5.95,-2.1 Q -10.95,18 -13,17.1 l -1.7,-1.75 -0.95,-0.75 q 0.6,0.7 0.85,1.7 0.25,0.95 0.85,1.7 l 0.3,0.85 q 0.4,0.6 0.35,1.3 l 1.25,3.2 0.35,1 5.25,-2.65 -2.85,-2.15"
         fill="#000000"
         fill-rule="evenodd"
         stroke="none"
         id="path1" />
      <path
         d="m 22.05,-27.2 0.2,0.45 0.1,0.65 q -4.85,4.55 -10.1,8.85 -1.5,1.2 -2.6,2.75 0.2,2.15 -0.15,4.3 l -0.15,0.75 -1.4,-1.7 -0.35,-0.3 q 0.85,-2.25 1.2,-4.8 l 2.85,-2.75 6.95,-5.8 q 0.7,-0.35 1.3,-0.85 l 2.15,-1.55 m -18,20.4 0.65,-0.15 0.95,-0.65 0.2,-0.3 0.5,-0.85 0.1,0.1 0.2,0.2 0.15,0.2 0.8,0.45 0.15,0.1 0.55,0.35 -0.2,0.1 -0.2,0.1 q 0.45,1.9 0,3.9 -0.3,1.35 -0.1,2.75 v 0.2 L 7.6,0.15 7.5,0.35 7.1,-0.5 4.95,-4.55 3.9,-6.3 4.05,-6.8 m -4.35,1.2 0.1,2.1 0.15,0.2 0.15,0.2 v 0.85 q -2.7,1.5 -5.5,2.7 l -4.3,1.65 -1.05,0.25 -0.05,0.15 -0.1,-0.15 -1.35,-2.7 -0.65,-1.35 -0.05,-0.1 0.15,-0.1 0.05,-0.1 0.2,-0.2 0.35,-0.2 0.55,-0.2 0.2,0.05 0.2,-0.05 q 5.65,-1.2 10.95,-3 m 3,8.65 -0.1,-5 -0.1,-1.5 0.7,0.85 0.2,0.4 0.15,0.3 0.25,1.25 0.4,0.6 L 4.45,0.5 4.15,0.2 4.1,0.8 Q 3.9,2.25 2.8,3.15 L 2.7,3.05 m -17.8,-0.35 0.15,-0.5 0.75,-1.65 0.05,-0.3 0.05,0.1 0.05,0.15 0.4,0.45 v 0.2 l 0.1,0.4 0.2,0.4 1.1,2.2 0.15,0.4 0.4,0.9 -1.3,3.65 -0.35,0.75 1,1.85 1.35,2.3 v 0.25 0.2 l -0.05,0.15 -0.1,-0.15 -1.35,-1 -2.5,-2.2 -1.85,-1.55 -0.1,-0.2 -0.25,-0.45 -0.05,-0.15 1,-2.1 q 0.65,-1.65 1,-3.4 l 0.15,-0.7 m -7.7,10.3 2.85,-1.8 0.6,1.1 q 0.65,1.3 0.85,2.7 l 0.15,0.2 0.2,0.25 0.15,0.2 2.4,5.15 0.35,0.85 Q -19,20.9 -20.65,16.9 -21.55,14.8 -22.8,13"
         fill="#666666"
         fill-rule="evenodd"
         stroke="none"
         id="path2" />
      <path
         d="M 22.05,-27.2 24,-28.45 q -1.2,4.2 -3.2,9.1 l -3.7,9.2 Q 15.2,-9 13.15,-8 l -0.8,0.65 -1.25,-1 Q 10.45,-8.5 9.9,-8.95 L 9.35,-9.45 9.5,-10.2 q 0.35,-2.15 0.15,-4.3 1.1,-1.55 2.6,-2.75 5.25,-4.3 10.1,-8.85 l -0.1,-0.65 -0.2,-0.45 M 4.05,-6.8 3.9,-6.3 3.65,-6.7 4.05,-6.8 M 7.5,0.35 7.6,0.15 7.8,-0.3 v -0.2 q -0.2,-1.4 0.1,-2.75 0.45,-2 0,-3.9 l 0.2,-0.1 0.2,-0.1 3.3,1.95 -0.9,4.75 L 10.55,-0.4 9.4,2.75 9.1,3.65 8.45,2.8 7.5,0.35 M -0.3,-5.6 q -5.3,1.8 -10.95,3 l -0.2,0.05 -0.2,-0.05 -0.55,0.2 -0.35,0.2 -0.2,0.2 -0.05,0.1 -0.15,0.1 -0.2,-0.4 12.85,-3.6 v 0.15 0.05 M -10.8,2.5 -10.75,2.35 -9.7,2.1 -5.4,0.45 q 2.8,-1.2 5.5,-2.7 L 0,-1.15 Q -0.05,-0.3 0.15,0.5 L 0.4,1.45 0.5,5.3 0.7,9.25 q -0.65,0.7 -0.95,1.7 l -2.9,8.95 -0.2,0.15 -0.3,-0.15 -0.05,-0.05 -1,-1.75 -0.1,-0.65 q -0.15,-0.6 -0.55,-1.1 L -5.4,15.5 Q -5.45,14.7 -5.9,14 -6.25,11.85 -7.25,9.8 L -10.8,2.5 M 2.7,3.05 2.8,3.15 Q 3.9,2.25 4.1,0.8 L 4.15,0.2 4.45,0.5 4.9,1.55 Q 5.85,4.1 7.45,6 L 2.75,7.8 2.6,7.9 2.65,6.15 2.7,3.05 m -17.8,-0.35 0.25,-3.4 0.1,-0.25 0.05,-0.05 0.55,1.25 -0.05,0.3 -0.75,1.65 -0.15,0.5 m 3.4,2.75 3.65,8.15 -0.05,0.65 q 0,0.7 0.45,1.25 l 0.05,0.85 0.05,0.45 -0.6,-0.35 -0.7,-0.35 q -1,-0.7 -2.05,-1.25 L -11,14.65 -11.05,14.6 -11,14.45 V 14.25 14 l -1.35,-2.3 -1,-1.85 L -13,9.1 -11.7,5.45 M -22.8,13 q 1.25,1.8 2.15,3.9 1.65,4 5.4,4.75 l 1.55,3.6 -0.75,0.3 -3.05,1.7 q -5.25,0.2 -9.5,-1.2 l 0.1,-1.1 q 0.3,-2.25 0.25,-4.5 v -4.3 L -22.8,13 m 13.5,6.55 2.85,2.15 -5.25,2.65 -0.35,-1 -1.25,-3.2 q 0.05,-0.7 -0.35,-1.3 L -13.95,18 q -0.6,-0.75 -0.85,-1.7 -0.25,-1 -0.85,-1.7 l 0.95,0.75 1.7,1.75 q 2.05,0.9 3.7,2.45"
         fill="#3a3a3a"
         fill-rule="evenodd"
         stroke="none"
         id="path3" />
    </g>
    <g
       id="sprite1"
       transform="translate(17.4,15.85)">
      <use
         ffdec:characterId="31"
         height="57.200001"
         transform="matrix(0.5366,0,0,0.5366,-16.6582,-14.546)"
         width="70.75"
         xlink:href="#sprite2"
         id="use3" />
    </g>
    <g
       id="sprite2"
       transform="translate(-8.65,-10.35)">
      <use
         ffdec:characterId="30"
         height="57.200001"
         transform="translate(8.65,10.35)"
         width="70.75"
         xlink:href="#shape1"
         id="use4" />
    </g>
    <g
       id="shape1"
       transform="translate(-8.65,-10.35)">
      <path
         d="m 14.8,41.7 q 0.65,-1.75 2.65,-2.5 1.8,-0.8 3.7,-0.25 1.15,0.45 2.25,1.2 l 0.9,0.4 q 1.65,0.9 2.85,2.5 L 37.8,30.1 q 2.35,-2.8 3.75,-3.95 1.5,-1.15 4.25,-2.4 18.2,-8.85 27.65,-12.6 2.15,-0.8 3.25,-0.8 h 0.8 l 1.9,2.4 -0.2,0.8 q -0.2,1.1 -1.55,3 -5.85,8.25 -18.85,23.8 -1.85,2.35 -3.35,3.5 -1.4,1.15 -4.75,2.75 l -15.15,7.15 q 1.2,1.6 1.75,3.4 l 0.2,1 0.55,2.5 q 0.1,1.95 -1.1,3.55 -1.2,1.65 -3.05,1.9 l -1.3,0.05 q -1.65,0.2 -3.45,-0.65 -1.85,-0.9 -3,-2.6 L 25,60.95 23.8,62.1 q -2.6,2.85 -4.3,3.95 -2.85,1.8 -5.5,1.45 l -1.65,-0.5 -1.2,-0.7 -0.2,-0.2 q -1,-0.85 -1.6,-1.9 L 9.25,64 9.15,63.8 8.75,62.4 q -0.2,-0.8 -0.05,-1.7 0.25,-2.65 2.7,-5.05 1.5,-1.3 4.9,-3.15 L 17.7,51.55 16.05,50 q -1.35,-1.5 -1.8,-3.6 -0.4,-1.85 0.25,-3.45 l 0.3,-1.25"
         fill="#000000"
         fill-opacity="0.372549"
         fill-rule="evenodd"
         stroke="none"
         id="path4" />
    </g>
  </defs>
</svg>
