<?xml version="1.0" encoding="UTF-8" standalone="no"?>
<svg
   ffdec:objectType="frame"
   height="100.5125"
   width="83.856453"
   version="1.1"
   id="svg7"
   xmlns:xlink="http://www.w3.org/1999/xlink"
   xmlns="http://www.w3.org/2000/svg"
   xmlns:svg="http://www.w3.org/2000/svg"
   xmlns:ffdec="https://www.free-decompiler.com/flash">
  <g
     transform="translate(42.803226,50.6625)"
     id="g1">
    <use
       ffdec:characterId="17"
       height="119.15"
       id="rarity"
       transform="translate(-58.5,-60.65)"
       width="119.15"
       xlink:href="#sprite0" />
    <use
       ffdec:characterId="551"
       height="100.5"
       transform="translate(-42.8,-50.65)"
       width="83.849998"
       xlink:href="#shape0"
       id="use1" />
  </g>
  <defs
     id="defs7">
    <g
       id="shape0"
       transform="translate(42.4,49.85)">
      <path
         d="M 19.05,1.8 18.9,1.95 q 3.55,-0.1 7.3,-2.45 3.95,-2.5 6.45,-6.45 2.35,-3.8 2.95,-8.1 1.15,-7.85 -3.3,-16.6 -3.25,-6.55 -8.25,-10.75 l -3.65,-2.7 q 1,1.65 1.15,3.5 v 0.95 q -0.1,2.35 -1.3,4.4 -1.35,2 -3.6,3.4 -2.15,1.25 -4.65,1.7 -0.55,0.4 -1.35,0.55 l -0.85,0.15 -0.75,0.05 -1.65,0.1 -0.85,0.1 v 0.05 l 0.05,0.2 v 0.25 0.15 0.2 0.2 0.25 0.2 0.2 l 0.05,0.15 4.1,-0.2 1.55,-0.1 1.35,-0.35 3.75,-1.25 q 2.25,-0.75 3.6,-1.6 l 1.2,-0.75 1.5,-0.2 q 0.65,0.2 0.9,0.75 0.35,0.6 0,1.1 l -0.25,0.3 -0.8,0.6 q -2.45,1.5 -5.45,2.4 l -2.55,0.7 -1.35,0.3 -1.4,0.15 q -2.85,0.15 -6.1,0 v 0.1 0.15 0.25 0.2 0.2 0.2 0.25 0.15 0.25 0.15 0.25 0.2 0.2 0.2 0.25 0.15 0.2 0.25 0.2 0.2 l -0.1,0.2 -0.05,0.2 -0.2,0.25 v 0.15 l -0.05,0.2 -0.1,0.25 -0.05,0.2 v 0.2 0.25 0.15 0.25 0.2 0.2 0.2 0.2 0.2 0.25 0.15 0.25 0.2 0.2 0.2 0.2 0.2 0.25 0.2 0.15 0.25 0.2 0.2 0.1 l 2.7,-0.5 2.9,-0.1 q 3.35,0.1 5,0.75 l 1.7,0.85 q 3.7,2.25 5.15,5.9 l 2.1,-2.3 1.55,-1.4 q 0.15,-0.55 0.45,-0.7 l 0.4,-0.2 h 0.05 l 0.5,0.2 0.2,0.6 -0.35,1.55 q -0.6,1.4 -2.5,3.4 -0.85,0.85 -1.45,1.25 l -2,0.15 Q 22,-6.95 21.6,-7.5 l -0.5,-1.1 -0.85,-1.5 v -0.05 q -1.15,-1.65 -2.6,-2.6 L 17.2,-13 q -2.15,-1.2 -5.15,-1.3 l -5.35,0.45 -0.55,0.1 v 0.15 0.2 l -0.1,0.2 -0.1,0.2 -0.05,0.1 1.05,-0.15 q 3.4,-0.4 6.6,0.75 3.25,1.25 5.15,3.55 1.85,2.35 1.95,5.3 0.05,2.85 -1.6,5.25 m 9.6,-22.25 -0.05,0.6 -0.3,0.65 -0.6,0.05 -0.4,-0.3 q -0.25,-0.35 -0.25,-1 l -0.15,-2 q -0.4,-2.55 -1.75,-4.95 -0.6,-1.1 -0.3,-1.55 l 1,-0.6 h 0.1 q 1,0.1 1.65,1.5 0.85,1.75 1.1,3.3 0.3,1.75 -0.05,4.3 M -16.8,-48.5 q 1.65,0.85 1.95,1.6 0.35,0.85 -0.3,1.9 l -1.4,1.7 q -0.85,1.25 -0.85,2.7 0,1.45 0.8,2.75 1.55,2.5 5.05,3.55 l 1.2,0.25 -0.1,-1.7 -0.05,-1.35 0.1,-1.35 0.75,-1.55 q 1.2,-1.65 2.85,-2.8 1.8,-1.25 3.9,-1.55 l 2.25,-0.05 h 0.35 l 2.25,0.05 q 2.05,0.3 3.85,1.55 1.7,1.15 2.85,2.8 l 0.8,1.55 0.05,1.35 v 1.35 l -0.15,1.7 1.2,-0.25 q 3.55,-1.05 5.05,-3.55 0.75,-1.3 0.75,-2.75 0,-1.45 -0.8,-2.7 L 14.2,-45 q -0.7,-1.05 -0.35,-1.9 0.3,-0.75 2,-1.6 2.65,-1.3 4.1,-1.35 2.95,-0.2 6.45,2.8 5.4,4.55 9.05,10.2 3.7,5.65 5.15,11.85 1.15,4.75 0.75,9.25 -0.35,4.85 -2.4,9 -2.15,4.4 -6.1,7.7 -4.1,3.5 -9.2,5 -3.55,1 -6.1,0.55 Q 16,6.15 14.85,5.25 13.65,4.35 13.4,3.1 13.15,1.9 14.15,-0.2 15.3,-2.55 15.3,-3.6 15.3,-5.25 13.8,-6.65 12.35,-8 10.25,-8.35 L 8.2,-8.5 6.15,-8.75 5.75,-8.9 v 0.05 0.2 0.2 0.25 0.2 0.2 0.2 0.2 0.25 0.15 0.25 0.2 0.2 0.2 0.2 0.2 0.25 0.2 0.2 0.2 0.2 0.2 0.25 0.15 0.25 0.2 0.2 0.2 0.2 0.2 0.25 0.15 0.25 0.2 0.2 0.2 0.25 0.15 0.25 0.15 0.25 0.2 0.2 0.2 V 0.3 0.45 0.7 0.9 1.1 1.3 1.5 1.7 1.95 2.1 2.35 2.55 2.75 2.95 3.2 3.35 3.6 3.75 4 4.2 4.4 4.6 4.85 5 v 0.25 0.2 0.2 0.2 0.2 0.2 0.25 0.15 0.25 0.2 0.2 0.2 0.25 0.15 0.25 0.2 0.2 0.2 0.2 0.2 0.25 0.15 0.25 0.2 0.2 0.2 0.2 0.2 0.25 0.2 0.2 0.2 0.2 0.2 0.2 0.25 0.2 0.2 0.2 0.2 0.2 0.2 0.25 0.2 0.2 0.2 0.2 0.2 0.2 0.25 0.2 0.2 0.2 0.2 0.2 0.2 0.2 0.25 0.2 0.2 0.25 0.15 0.2 0.25 0.2 0.2 0.2 0.2 0.2 0.2 0.2 0.25 0.2 0.2 0.2 0.2 0.2 0.25 0.15 0.25 0.2 0.2 0.2 0.2 0.2 0.25 0.2 0.2 0.2 0.2 0.25 0.2 0.15 0.25 0.2 0.2 0.2 0.2 0.2 0.25 0.15 0.25 0.2 0.2 0.2 0.25 0.15 0.25 0.15 0.25 0.2 0.2 0.25 0.2 0.15 0.25 0.2 0.2 0.2 0.2 0.2 0.25 0.15 0.25 0.2 0.2 0.2 0.25 0.15 0.25 0.15 0.25 0.2 0.2 0.2 0.25 0.15 0.25 0.2 0.2 0.2 0.2 0.25 0.2 0.15 0.25 0.2 0.2 0.2 0.25 0.15 0.25 0.2 0.25 0.15 0.2 0.2 0.25 0.2 0.2 0.2 0.25 0.15 0.2 0.25 0.2 0.2 0.2 0.2 0.2 0.2 0.2 0.1 q 1.4,1.8 1.5,4 L 6.95,46.3 5.7,47.95 4,49.35 2.6,50 0.35,50.6 -0.3,50.65 H -0.5 -0.65 L -1.35,50.6 -3.55,50 -5,49.35 -6.65,47.95 -7.95,46.3 -8.2,44.7 q 0.05,-2.2 1.5,-4 V 40.6 40.4 40.2 40 39.8 39.6 39.4 39.2 38.95 38.75 38.6 38.35 38.15 37.95 37.75 37.5 37.3 37.1 36.95 36.7 36.5 36.25 36.1 35.85 35.65 35.45 35.25 35 34.85 34.65 34.4 34.2 34 33.8 33.6 33.35 33.2 32.95 32.75 32.55 32.35 32.1 31.95 31.7 31.55 31.3 31.1 30.9 30.7 30.45 30.3 v -0.25 -0.2 -0.2 -0.2 -0.2 -0.2 V 28.8 28.65 28.45 28.2 28 27.8 27.55 27.4 27.15 27 v -0.25 -0.2 -0.2 -0.2 -0.25 -0.15 -0.25 -0.2 -0.2 -0.2 -0.2 -0.2 -0.25 -0.15 -0.2 -0.25 -0.2 -0.2 -0.2 -0.2 -0.25 -0.2 -0.2 -0.2 -0.2 -0.2 -0.25 -0.15 -0.25 -0.2 -0.2 -0.2 -0.2 -0.2 -0.25 -0.2 -0.2 -0.2 -0.2 -0.2 -0.2 -0.2 -0.25 -0.2 -0.15 -0.25 -0.2 -0.2 -0.25 -0.2 -0.2 -0.2 -0.2 -0.2 -0.2 -0.2 -0.25 -0.2 -0.2 -0.2 -0.2 -0.2 -0.2 -0.25 -0.2 -0.2 -0.2 -0.2 -0.2 -0.2 -0.25 -0.2 -0.2 -0.2 -0.2 -0.2 -0.2 V 10.8 10.6 10.4 10.2 10 9.8 9.55 9.4 9.15 8.95 8.75 8.55 8.35 8.15 7.9 7.75 7.5 7.3 7.1 6.9 6.65 6.5 6.25 6.05 5.85 5.65 5.45 5.25 5 4.85 4.6 4.4 4.2 4 3.75 3.6 3.35 3.2 2.95 2.75 2.55 2.35 2.1 1.95 1.7 1.5 1.3 1.1 0.9 0.7 0.45 0.3 0.05 -0.15 -0.35 -0.55 -0.8 -0.95 -1.2 -1.35 -1.6 -1.8 -2 -2.2 -2.45 -2.6 v -0.25 -0.2 -0.2 -0.2 -0.2 -0.2 -0.25 -0.15 -0.25 -0.2 -0.2 -0.2 -0.2 -0.2 -0.25 -0.2 -0.2 -0.2 -0.2 -0.2 V -7 -7.15 -7.4 -7.6 -7.8 -8 -8.2 -8.45 -8.65 -8.85 -8.9 l -0.45,0.15 -2.05,0.25 -2.05,0.15 q -2.1,0.35 -3.5,1.7 -1.55,1.4 -1.5,3.05 0,1.05 1.1,3.4 1.05,2.1 0.75,3.3 -0.25,1.25 -1.45,2.15 -1.1,0.9 -2.7,1.25 -2.5,0.45 -6.05,-0.55 -5.15,-1.5 -9.2,-5 -3.95,-3.3 -6.15,-7.7 -2.05,-4.15 -2.35,-9 -0.4,-4.5 0.75,-9.25 1.45,-6.2 5.15,-11.85 3.65,-5.65 9,-10.2 3.55,-3 6.45,-2.8 1.45,0.05 4.15,1.35 m 19.3,9.4 -0.1,-0.05 -0.6,-0.4 -0.4,-0.2 -1.05,-0.6 q -0.45,-0.25 -0.85,-0.3 l -0.8,0.3 -1.05,0.6 -0.4,0.2 -0.5,0.3 -0.1,0.1 -1,0.65 -0.55,0.75 -0.4,0.65 v 0.05 l -0.3,0.85 q 0.1,0.6 0.85,0.95 l 0.65,0.2 0.7,0.1 1.4,0.05 H 1.05 1.7 1.85 l 0.6,-0.05 0.65,-0.1 0.7,-0.2 q 0.75,-0.35 0.8,-0.95 l -0.25,-0.85 -0.3,-0.55 -0.7,-0.9 -0.85,-0.6 m 0.25,10.5 v -0.05 -0.2 -0.2 -0.2 -0.2 -0.2 -0.25 l 0.05,-0.15 v -0.05 -0.2 -0.2 -0.2 -0.25 -0.2 L 1.25,-31.1 H -2.2 l -1.6,-0.05 v 0.2 0.25 0.2 0.2 0.25 l 0.1,0.15 v 0.25 0.2 0.2 0.2 0.2 0.2 0.25 0.05 0.1 l 0.05,0.2 v 0.25 0.2 0.2 0.2 0.2 0.25 0.2 0.15 0.25 0.2 0.2 0.25 0.15 0.25 0.2 0.2 0.2 0.2 0.2 0.25 0.2 0.2 l 0.05,0.05 1.05,0.05 2.7,-0.25 2.45,-0.1 v -0.15 -0.25 -0.2 -0.2 -0.2 -0.2 -0.2 -0.25 -0.15 -0.25 -0.2 -0.2 -0.25 -0.15 -0.2 -0.25 -0.2 -0.2 -0.2 -0.2 -0.25 l 0.15,-0.2 v -0.15 -0.2 M -2.9,-21 v 0.25 0.2 0.2 0.2 0.2 0.2 0.2 0.25 0.2 0.2 0.2 0.2 0.2 0.2 0.2 0.25 0.2 0.2 0.2 0.2 0.25 0.15 0.25 0.2 0.2 0.1 0.05 0.25 0.2 0.2 l 0.75,0.05 h 0.45 1.2 l 0.45,0.05 1.1,0.1 0.75,0.25 h 0.05 v -0.2 -0.2 -0.25 -0.2 -0.25 -0.15 -0.2 -0.2 -0.25 -0.15 -0.25 -0.2 -0.2 -0.2 -0.2 -0.25 -0.2 -0.2 -0.2 -0.2 -0.2 -0.2 -0.2 -0.25 -0.2 -0.2 -0.2 -0.2 -0.2 -0.2 -0.25 -0.2 -0.2 -0.2 l -4.75,0.5 v 0.1 m 0.45,8.3 v 0.15 0.05 0.2 l 0.05,0.25 0.1,0.15 0.1,0.25 0.05,0.2 v 0.2 0.2 0.25 0.15 0.05 l 0.1,0.2 v 0.15 0.25 0.2 0.2 0.2 0.25 L -2,-9 v 0.25 0.2 0.2 0.2 0.2 0.2 0.25 0.15 0.25 0.2 0.2 0.2 0.25 0.15 0.25 0.15 0.25 0.2 0.2 0.2 0.25 0.15 0.25 0.2 0.2 0.2 0.2 0.2 0.25 0.15 0.25 0.2 0.2 0.2 0.25 0.15 0.25 0.2 0.2 0.2 0.2 0.2 0.25 0.15 0.25 0.2 0.2 0.2 0.2 0.2 V 1.6 1.8 2 2.2 2.4 2.6 2.8 3 v 0.25 0.2 0.2 0.2 0.2 0.2 0.25 0.2 0.2 0.2 0.2 0.2 0.2 0.25 0.2 0.2 0.2 0.2 0.2 0.2 0.2 0.25 0.2 0.2 0.2 0.2 0.2 0.25 0.2 0.2 0.2 0.2 0.2 0.2 0.2 0.25 0.2 0.2 0.2 0.2 0.2 0.25 0.15 0.25 0.2 0.2 0.2 0.2 0.2 0.25 0.2 0.2 0.2 0.2 0.2 0.25 0.15 0.25 0.2 0.2 0.2 0.2 0.2 0.25 0.15 0.25 0.2 0.2 0.2 0.25 0.15 0.25 0.15 0.25 0.2 0.1 h 0.65 L 0.4,18.75 1,18.9 v -0.15 -0.2 -0.2 -0.25 -0.15 -0.25 -0.15 -0.25 -0.2 -0.2 -0.2 -0.25 -0.15 -0.25 -0.2 -0.2 -0.2 -0.2 -0.2 V 14.8 14.65 14.4 14.2 14 13.8 13.6 13.45 13.4 v -0.25 -0.2 -0.2 -0.2 -0.2 -0.2 V 11.9 11.75 11.5 11.3 11.1 10.9 10.7 10.5 10.25 10.05 9.85 9.65 9.45 9.25 9.05 8.85 8.6 8.4 8.2 8 7.8 7.6 7.35 7.15 6.95 6.75 6.55 6.35 6.15 5.95 5.7 5.5 5.3 5.1 4.9 4.7 4.5 4.25 4.05 3.85 3.65 3.45 3.25 3 2.8 2.6 2.4 2.2 2 1.8 1.6 1.35 1.15 0.95 0.75 0.55 0.35 0.1 -0.05 -0.3 -0.5 -0.7 -0.9 -1.1 -1.3 -1.55 -1.7 -1.95 -2.15 -2.35 -2.55 -2.8 -2.95 -3.2 -3.4 -3.6 -3.8 -4 -4.2 -4.45 -4.6 -4.85 -5.05 -5.25 -5.45 -5.7 -5.85 -6.1 -6.25 -6.5 -6.7 -6.9 -7.1 -7.35 -7.5 v -0.25 -0.2 -0.2 -0.2 -0.2 -0.2 V -9 L 1.05,-9.15 V -9.4 -9.6 -9.8 -10 -10.25 -10.4 l 0.1,-0.25 v -0.15 -0.25 -0.2 -0.2 l 0.1,-0.2 0.05,-0.25 0.1,-0.15 0.05,-0.25 v -0.2 -0.1 l -0.5,-0.05 -1.05,-0.2 -2,-0.05 h -0.2 -0.15 v 0.2 M -2,21 v 0.25 0.2 0.2 0.2 0.25 0.15 0.25 0.15 0.25 0.2 0.2 0.2 0.25 0.05 L 1,23.65 V 23.5 23.3 23.1 22.9 22.65 22.5 22.25 22.1 21.85 21.65 21.45 21.25 21 L -2,20.85 V 21 m 0,5.4 v 0.25 0.15 0.25 0.2 0.25 0.15 0.2 0.2 0.25 0.2 0.2 0.1 l 0.3,0.05 q 1.7,0.7 2.7,1.3 v -0.2 -0.2 -0.25 -0.2 -0.2 -0.2 -0.2 -0.2 -0.2 -0.25 -0.2 -0.2 V 27.5 27.25 27.05 26.8 26.65 26.4 26.2 26 25.8 l -3,0.45 v 0.15 m 0,5.2 v 0.2 0.25 0.15 0.2 0.2 0.25 0.2 0.2 0.2 0.25 0.15 0.2 0.25 0.2 0.2 0.2 0.2 0.2 0.2 0.2 L -1.3,35.35 0.65,34.55 1,34.4 v -0.1 -0.25 -0.2 -0.15 -0.25 -0.2 -0.2 -0.2 -0.15 L -0.95,31.85 -2,31.55 v 0.05 m 0,5.8 v 0.2 0.2 0.2 0.25 0.15 0.2 0.25 0.2 0.2 0.2 0.2 0.2 0.25 0.15 0.25 0.2 0.2 0.1 L -1.3,40.9 -0.2,40.75 1,40.4 v -0.15 -0.15 -0.25 -0.2 -0.2 -0.2 -0.2 -0.2 V 38.6 38.4 38.25 38 37.8 37.6 37.4 37.2 36.95 36.75 36.6 36.45 L -1.55,37.2 -2,37.35 v 0.05 m 4.25,5.1 -0.1,-0.15 -0.25,-0.15 -0.05,0.05 -0.3,0.05 -3.7,0.65 -1.1,-0.05 h -0.1 V 42.85 L -3.4,43 -3.7,43.5 q -0.25,0.4 -0.1,0.65 l 0.2,0.35 0.35,0.25 0.35,0.6 0.45,0.55 1.3,0.3 0.65,0.2 0.7,-0.2 1.25,-0.3 0.4,-0.55 0.4,-0.6 0.35,-0.25 0.25,-0.35 -0.1,-0.65 -0.5,-1 M -20.8,1.85 l 0.9,0.1 q -1.8,-2.45 -1.7,-5.4 0.05,-2.95 1.95,-5.3 1.9,-2.3 5.1,-3.55 3.25,-1.15 6.55,-0.75 l 1.1,0.15 -0.05,-0.1 -0.05,-0.2 -0.1,-0.2 v -0.2 -0.15 l -0.6,-0.1 -5.35,-0.45 q -3,0.1 -5.1,1.3 -1.8,0.95 -3.05,2.85 l -0.85,1.55 -0.55,1.1 q -0.35,0.55 -0.9,0.75 l -2,-0.15 -1.45,-1.25 q -1.95,-2 -2.55,-3.4 l -0.3,-1.55 0.15,-0.6 0.5,-0.2 0.4,0.2 q 0.35,0.15 0.55,0.7 l 1.55,1.4 2,2.2 0.1,0.1 0.05,-0.15 q 1.45,-3.55 5.05,-5.75 l 1.7,-0.85 q 1.7,-0.65 5,-0.75 l 2.95,0.1 2.7,0.5 v -0.1 -0.2 -0.2 -0.25 -0.15 -0.2 -0.25 -0.2 -0.2 -0.2 -0.2 -0.2 -0.25 -0.15 -0.25 -0.2 -0.2 -0.2 -0.2 -0.2 -0.25 -0.15 -0.25 -0.2 l -0.1,-0.2 -0.05,-0.25 -0.1,-0.2 v -0.15 l -0.2,-0.25 v -0.2 l -0.15,-0.2 v -0.2 -0.2 -0.25 -0.2 -0.15 -0.25 -0.2 -0.2 -0.2 -0.25 -0.15 -0.25 -0.15 -0.25 -0.2 -0.2 -0.2 -0.25 -0.15 -0.1 q -3.25,0.15 -6.1,0 l -1.35,-0.15 -1.4,-0.3 -2.5,-0.7 q -3.05,-0.9 -5.5,-2.4 l -1.05,-0.85 v -0.05 q -0.3,-0.5 0,-1.1 l 0.9,-0.75 1.5,0.2 1.2,0.75 q 1.35,0.85 3.6,1.6 l 3.75,1.25 1.35,0.35 1.6,0.1 4.05,0.2 0.1,-0.15 v -0.2 -0.2 -0.25 -0.2 -0.2 -0.15 -0.25 -0.2 -0.05 l -0.8,-0.1 -1.65,-0.1 -1.65,-0.2 q -0.8,-0.15 -1.35,-0.55 l -3,-0.9 -1.6,-0.8 q -2.3,-1.4 -3.6,-3.4 -1.25,-2.05 -1.3,-4.4 -0.05,-1.35 0.35,-2.55 l 0.75,-1.9 -1.85,1.3 q -6.15,4.5 -10.05,12.15 -4.4,8.75 -3.3,16.6 0.6,4.3 2.95,8.1 2.55,3.95 6.5,6.45 3.2,2.05 6.35,2.35 m -8.5,-21.1 -0.25,-0.6 q -0.45,-2.95 -0.1,-4.9 0.2,-1.55 1.05,-3.3 0.6,-1.35 1.65,-1.45 l 0.15,-0.05 q 0.7,0.1 0.95,0.6 0.25,0.45 -0.3,1.55 -1.3,2.4 -1.7,4.95 l -0.15,2 q 0,0.65 -0.3,1 l -0.45,0.3 -0.5,-0.05 -0.05,-0.05"
         fill="#000000"
         fill-rule="evenodd"
         stroke="none"
         id="path1" />
      <path
         d="m 17.65,-12.75 q 1.45,0.95 2.6,2.6 v 0.05 l -2.15,-2.15 -0.45,-0.5 m 10.45,-1.15 -0.4,0.2 q -0.3,0.15 -0.45,0.7 l -1.55,1.4 -2.1,2.3 q -1.45,-3.65 -5.15,-5.9 l -1.7,-0.85 q -1.65,-0.65 -5,-0.75 l -2.9,0.1 -2.7,0.5 v -0.1 -0.2 -0.2 -0.25 -0.15 -0.2 -0.25 -0.2 -0.2 -0.2 -0.2 -0.2 -0.25 -0.15 -0.25 -0.2 -0.2 -0.2 -0.2 -0.2 -0.25 -0.15 -0.25 -0.2 l 0.05,-0.2 0.1,-0.25 0.05,-0.2 v -0.15 l 0.2,-0.25 0.05,-0.2 0.1,-0.2 v -0.2 -0.2 -0.25 -0.2 -0.15 -0.25 -0.2 -0.2 -0.2 -0.25 -0.15 -0.25 -0.15 -0.25 -0.2 -0.2 -0.2 -0.25 -0.15 -0.1 q 3.25,0.15 6.1,0 l 1.4,-0.15 1.35,-0.3 2.55,-0.7 q 3,-0.9 5.45,-2.4 l 0.8,-0.6 q 0.95,0.2 1.6,1.1 h -0.1 l -1,0.6 q -0.3,0.45 0.3,1.55 1.35,2.4 1.75,4.95 l 0.15,2 q 0,0.65 0.25,1 l 0.4,0.3 0.6,-0.05 0.3,-0.65 0.05,-0.6 q 0.25,1.3 0.1,2.1 l -0.35,1.8 -0.1,2 -0.2,0.65 m -24.05,-23.7 0.3,0.55 0.25,0.85 q -0.05,0.6 -0.8,0.95 l -0.7,0.2 -0.65,0.1 -0.6,0.05 H 1.7 1.05 -2 l -1.4,-0.05 -0.7,-0.1 -0.65,-0.2 Q -5.5,-35.6 -5.6,-36.2 l 0.3,-0.85 v -0.05 l 0.4,-0.65 2.1,0.15 3.05,0.05 3.1,-0.05 h 0.7 m -7.75,9.25 v -0.05 -0.25 -0.2 -0.2 -0.2 -0.2 -0.2 -0.25 l -0.1,-0.15 v -0.25 -0.2 -0.2 -0.25 -0.2 l 1.6,0.05 h 3.45 l 1.55,-0.05 v 0.2 0.25 0.2 0.2 0.2 0.05 l -0.05,0.15 v 0.25 0.2 0.2 0.2 0.2 0.2 0.05 l -0.3,0.1 -1.25,0.4 h -1.85 l -2.25,-0.05 -0.8,-0.2 m 0.8,7.35 v -0.1 l 4.75,-0.5 v 0.2 0.2 0.2 0.25 0.2 0.2 0.2 0.2 0.2 0.2 0.25 0.2 0.2 0.2 0.2 0.2 0.2 0.2 0.25 0.2 0.2 0.2 0.2 0.25 0.15 0.25 0.2 0.2 0.15 0.25 0.2 0.25 0.2 0.2 H 1.8 l -0.75,-0.25 -1.1,-0.1 -0.45,-0.05 H -1.7 -2.15 L -2.9,-15 v -0.2 -0.2 -0.25 -0.05 -0.1 -0.2 -0.2 -0.25 -0.15 -0.25 -0.2 -0.2 -0.2 -0.2 -0.25 -0.2 -0.2 -0.2 -0.2 -0.2 -0.2 -0.2 -0.25 -0.2 -0.2 -0.2 -0.2 -0.2 -0.2 -0.25 m -25.85,7.3 -0.3,-2.3 -0.25,-3.25 0.05,0.05 0.5,0.05 0.45,-0.3 q 0.3,-0.35 0.3,-1 l 0.15,-2 q 0.4,-2.55 1.7,-4.95 0.55,-1.1 0.3,-1.55 -0.25,-0.5 -0.95,-0.6 l -0.15,0.05 q 0.3,-0.7 1,-1.2 l 0.35,-0.2 1.05,0.85 q 2.45,1.5 5.5,2.4 l 2.5,0.7 1.4,0.3 1.35,0.15 q 2.85,0.15 6.1,0 v 0.1 0.15 0.25 0.2 0.2 0.2 0.25 0.15 0.25 0.15 0.25 0.2 0.2 0.2 0.25 0.15 0.2 0.25 0.2 0.2 l 0.15,0.2 v 0.2 l 0.2,0.25 v 0.15 l 0.1,0.2 0.05,0.25 0.1,0.2 v 0.2 0.25 0.15 0.25 0.2 0.2 0.2 0.2 0.2 0.25 0.15 0.25 0.2 0.2 0.2 0.2 0.2 0.25 0.2 0.15 0.25 0.2 0.2 0.1 l -2.7,-0.5 -2.95,-0.1 q -3.3,0.1 -5,0.75 l -1.7,0.85 q -3.6,2.2 -5.05,5.75 l -0.15,0.05 -2,-2.2 -1.55,-1.4 q -0.2,-0.55 -0.55,-0.7"
         fill="#717171"
         fill-rule="evenodd"
         stroke="none"
         id="path2" />
      <path
         d="m 9.8,-30.45 0.85,-0.15 q 0.8,-0.15 1.35,-0.55 2.5,-0.45 4.65,-1.7 2.25,-1.4 3.6,-3.4 1.2,-2.05 1.3,-4.4 v -0.95 q -0.15,-1.85 -1.15,-3.5 l 3.65,2.7 q 5,4.2 8.25,10.75 4.45,8.75 3.3,16.6 -0.6,4.3 -2.95,8.1 Q 30.15,-3 26.2,-0.5 22.45,1.85 18.9,1.95 L 19.05,1.8 19.8,1.45 21.3,0.9 q 1.95,-0.75 3.75,-2.35 1.3,-1.1 2.95,-3.1 1.9,-2.25 2.7,-3.8 1.3,-2.4 1.6,-5.55 0.3,-2.25 0.05,-5.75 l -0.8,-7.9 -0.7,-3 -1.8,-3.15 Q 27.3,-36.35 25.8,-38 l -2.15,-2.05 -0.2,0.85 -1.1,2.65 q -1.9,3.6 -5.9,5.75 l -1.75,0.7 -2,0.05 -2.45,-0.3 -0.45,-0.1 m -13.05,-8.8 0.5,-0.3 0.4,-0.2 1.05,-0.6 0.8,-0.3 q 0.4,0.05 0.85,0.3 l 1.05,0.6 0.4,0.2 0.6,0.4 0.1,0.05 -0.9,0.5 q -1,0.45 -2.1,0.4 -1.7,-0.05 -2.75,-1.05 m -12.75,7.2 -0.5,0.1 q -2.5,0.25 -4.6,-1.35 -1.7,-1.3 -2.55,-3.45 -0.7,-1.9 -0.55,-3.7 l 0.2,-1.15 q -3.3,3.1 -5.7,6.8 -3.35,5.35 -4.45,11.2 -1,5.3 0.2,10.25 1.25,5.35 4.8,9.25 3,3.3 7.2,5.35 l 1.15,0.6 q -3.15,-0.3 -6.35,-2.35 -3.95,-2.5 -6.5,-6.45 -2.35,-3.8 -2.95,-8.1 -1.1,-7.85 3.3,-16.6 3.9,-7.65 10.05,-12.15 l 1.85,-1.3 -0.75,1.9 q -0.4,1.2 -0.35,2.55 0.05,2.35 1.3,4.4 1.3,2 3.6,3.4 l 1.6,0.8"
         fill="#dadada"
         fill-rule="evenodd"
         stroke="none"
         id="path3" />
      <path
         d="m 19.05,1.8 q 1.65,-2.4 1.6,-5.25 -0.1,-2.95 -1.95,-5.3 -1.9,-2.3 -5.15,-3.55 -3.2,-1.15 -6.6,-0.75 l -1.05,0.15 0.05,-0.1 0.1,-0.2 0.1,-0.2 v -0.2 -0.15 l 0.55,-0.1 5.35,-0.45 q 3,0.1 5.15,1.3 l 0.45,0.25 0.45,0.5 2.15,2.15 0.85,1.5 0.5,1.1 q 0.4,0.55 0.95,0.75 l 2,-0.15 q 0.6,-0.4 1.45,-1.25 1.9,-2 2.5,-3.4 l 0.35,-1.55 -0.2,-0.6 -0.5,-0.2 H 28.1 l 0.2,-0.65 0.1,-2 0.35,-1.8 q 0.15,-0.8 -0.1,-2.1 0.35,-2.55 0.05,-4.3 -0.25,-1.55 -1.1,-3.3 -0.65,-1.4 -1.65,-1.5 -0.65,-0.9 -1.6,-1.1 l 0.25,-0.3 q 0.35,-0.5 0,-1.1 -0.25,-0.55 -0.9,-0.75 l -1.5,0.2 -1.2,0.75 q -1.35,0.85 -3.6,1.6 l -3.75,1.25 -1.35,0.35 -1.55,0.1 -4.1,0.2 -0.05,-0.15 v -0.2 -0.2 -0.25 -0.2 -0.2 -0.15 -0.25 l -0.05,-0.2 v -0.05 l 0.85,-0.1 1.65,-0.1 0.75,-0.05 0.45,0.1 2.45,0.3 2,-0.05 1.75,-0.7 q 4,-2.15 5.9,-5.75 l 1.1,-2.65 0.2,-0.85 2.15,2.05 q 1.5,1.65 3.25,4.3 l 1.8,3.15 0.7,3 0.8,7.9 q 0.25,3.5 -0.05,5.75 -0.3,3.15 -1.6,5.55 -0.8,1.55 -2.7,3.8 -1.65,2 -2.95,3.1 -1.8,1.6 -3.75,2.35 L 19.8,1.45 19.05,1.8 m -22.3,-41.05 q 1.05,1 2.75,1.05 1.1,0.05 2.1,-0.4 l 0.9,-0.5 0.85,0.6 0.7,0.9 h -0.7 l -3.1,0.05 -3.05,-0.05 -2.1,-0.15 0.55,-0.75 1,-0.65 0.1,-0.1 m -0.45,10.9 0.8,0.2 2.25,0.05 H 1.2 l 1.25,-0.4 0.3,-0.1 v 0.2 0.15 l -0.15,0.2 v 0.25 0.2 0.2 0.2 0.2 0.25 0.2 0.15 0.25 0.2 0.2 0.25 0.15 0.25 0.2 0.2 0.2 0.2 0.2 0.25 0.15 l -2.45,0.1 -2.7,0.25 -1.05,-0.05 -0.05,-0.05 v -0.2 -0.2 -0.25 -0.2 -0.2 -0.2 -0.2 -0.2 -0.25 -0.15 -0.25 -0.2 -0.2 -0.25 -0.15 -0.2 -0.25 -0.2 -0.2 -0.2 -0.2 -0.25 l -0.05,-0.2 v -0.1 m -17.1,30.2 -1.15,-0.6 q -4.2,-2.05 -7.2,-5.35 -3.55,-3.9 -4.8,-9.25 -1.2,-4.95 -0.2,-10.25 1.1,-5.85 4.45,-11.2 2.4,-3.7 5.7,-6.8 l -0.2,1.15 q -0.15,1.8 0.55,3.7 0.85,2.15 2.55,3.45 2.1,1.6 4.6,1.35 l 0.5,-0.1 3,0.9 q 0.55,0.4 1.35,0.55 l 1.65,0.2 1.65,0.1 0.8,0.1 v 0.05 0.2 0.25 0.15 0.2 0.2 0.25 0.2 0.2 l -0.1,0.15 -4.05,-0.2 -1.6,-0.1 -1.35,-0.35 -3.75,-1.25 q -2.25,-0.75 -3.6,-1.6 l -1.2,-0.75 -1.5,-0.2 -0.9,0.75 q -0.3,0.6 0,1.1 v 0.05 l -0.35,0.2 q -0.7,0.5 -1,1.2 -1.05,0.1 -1.65,1.45 -0.85,1.75 -1.05,3.3 -0.35,1.95 0.1,4.9 l 0.25,0.6 0.25,3.25 0.3,2.3 -0.4,-0.2 -0.5,0.2 -0.15,0.6 0.3,1.55 q 0.6,1.4 2.55,3.4 l 1.45,1.25 2,0.15 q 0.55,-0.2 0.9,-0.75 l 0.55,-1.1 0.85,-1.55 q 1.25,-1.9 3.05,-2.85 2.1,-1.2 5.1,-1.3 l 5.35,0.45 0.6,0.1 v 0.15 0.2 l 0.1,0.2 0.05,0.2 0.05,0.1 -1.1,-0.15 q -3.3,-0.4 -6.55,0.75 -3.2,1.25 -5.1,3.55 -1.9,2.35 -1.95,5.3 -0.1,2.95 1.7,5.4 l -0.9,-0.1"
         fill="#b0b0b0"
         fill-rule="evenodd"
         stroke="none"
         id="path4" />
      <path
         d="m -2.45,-12.7 v -0.2 h 0.15 0.2 l 2,0.05 1.05,0.2 0.5,0.05 v 0.1 0.2 l -0.05,0.25 -0.1,0.15 -0.05,0.25 -0.1,0.2 v 0.2 0.2 0.25 0.15 l -0.1,0.25 v 0.15 0.25 0.2 0.2 0.2 0.25 L 1,-9 v 0.25 0.2 0.2 0.2 0.2 0.2 0.25 0.15 0.25 0.2 0.2 0.2 0.25 0.15 0.25 0.15 0.25 0.2 0.2 0.2 0.25 0.15 0.25 0.2 0.2 0.2 0.2 0.2 0.25 0.15 0.25 0.2 0.2 0.2 0.25 0.15 0.25 0.2 0.2 0.2 0.2 0.2 0.25 0.15 0.25 0.2 0.2 0.2 0.2 0.2 V 1.6 1.8 2 2.2 2.4 2.6 2.8 3 v 0.25 0.2 0.2 0.2 0.2 0.2 0.25 0.2 0.2 0.2 0.2 0.2 0.2 0.25 0.2 0.2 0.2 0.2 0.2 0.2 0.2 0.25 0.2 0.2 0.2 0.2 0.2 0.25 0.2 0.2 0.2 0.2 0.2 0.2 0.2 0.25 0.2 0.2 0.2 0.2 0.2 0.25 0.15 0.25 0.2 0.2 0.2 0.2 0.2 0.25 0.05 0.15 0.2 0.2 0.2 0.2 0.25 0.15 0.25 0.2 0.2 0.2 0.2 0.2 0.25 0.15 0.25 0.2 0.2 0.2 0.25 0.15 0.25 0.15 0.25 0.2 0.2 0.15 L 0.4,18.75 -1.35,18.65 H -2 v -0.1 -0.2 -0.25 -0.15 -0.25 -0.15 -0.25 -0.2 -0.2 -0.2 -0.25 -0.15 -0.25 -0.2 -0.2 -0.2 -0.2 -0.2 -0.25 -0.15 -0.25 -0.2 -0.2 -0.2 -0.2 -0.2 -0.25 -0.2 -0.2 -0.2 -0.2 -0.2 V 11.9 11.75 11.5 11.3 11.1 10.9 10.7 10.5 10.25 10.05 9.85 9.65 9.45 9.25 9.05 8.85 8.6 8.4 8.2 8 7.8 7.6 7.35 7.15 6.95 6.75 6.55 6.35 6.15 5.95 5.7 5.5 5.3 5.1 4.9 4.7 4.5 4.25 4.05 3.85 3.65 3.45 3.25 3 2.8 2.6 2.4 2.2 2 1.8 1.6 1.35 1.15 0.95 0.75 0.55 0.35 0.1 -0.05 -0.3 -0.5 -0.7 -0.9 -1.1 -1.3 -1.55 -1.7 -1.95 -2.15 -2.35 -2.55 -2.8 -2.95 -3.2 -3.4 -3.6 -3.8 -4 -4.2 -4.45 -4.6 -4.85 -5.05 -5.25 -5.45 -5.7 -5.85 -6.1 -6.25 -6.5 -6.7 -6.9 -7.1 -7.35 -7.5 v -0.25 -0.2 -0.2 -0.2 -0.2 -0.2 V -9 L -2.05,-9.15 V -9.4 -9.6 -9.8 -10 -10.25 -10.4 l -0.1,-0.2 v -0.05 -0.15 -0.25 -0.2 -0.2 l -0.05,-0.2 -0.1,-0.25 -0.1,-0.15 -0.05,-0.25 v -0.2 -0.05 -0.15 m 4.3,55.1 0.4,0.1 0.5,1 0.1,0.65 -0.25,0.35 -0.35,0.25 -0.4,0.6 -0.4,0.55 -1.25,0.3 -0.7,0.2 -0.65,-0.2 -1.3,-0.3 L -2.9,45.35 -3.25,44.75 -3.6,44.5 -3.8,44.15 Q -3.95,43.9 -3.7,43.5 l 0.3,-0.5 0.05,-0.1 h 0.1 l 1.1,0.05 3.7,-0.65 0.3,0.1"
         fill="#917e68"
         fill-rule="evenodd"
         stroke="none"
         id="path5" />
      <path
         d="M -2,37.4 V 37.35 L -1.55,37.2 1,36.45 v 0.15 0.15 0.2 0.25 0.2 0.2 0.2 0.2 0.25 0.15 0.2 0.25 0.2 0.2 0.2 0.2 0.2 0.25 0.15 0.15 L -0.2,40.75 -1.3,40.9 -2,41 v -0.1 -0.2 -0.2 -0.25 -0.15 -0.25 -0.2 -0.2 -0.2 -0.2 -0.2 V 38.6 38.4 38.25 38 37.8 37.6 37.4 m 0,-5.8 v -0.05 l 1.05,0.3 L 1,32.7 v 0.15 0.2 0.2 0.2 0.25 0.15 0.2 0.25 0.1 L 0.65,34.55 -1.3,35.35 -2,35.7 v -0.2 -0.2 -0.2 -0.2 -0.2 -0.2 -0.2 -0.25 -0.2 -0.15 -0.25 -0.2 -0.2 -0.2 -0.25 -0.2 -0.2 -0.15 -0.25 -0.2 m 0,-5.2 V 26.25 L 1,25.8 v 0.2 0.2 0.2 0.25 0.15 0.25 0.2 0.25 0.15 0.2 0.2 0.25 0.2 0.2 0.2 0.2 0.2 0.2 0.25 0.2 0.2 q -1,-0.6 -2.7,-1.3 L -2,28.8 V 28.7 28.5 28.3 28.05 27.85 27.65 27.5 27.25 27.05 26.8 26.65 26.4 M -2,21 V 20.85 L 1,21 v 0.25 0.2 0.2 0.2 0.25 0.15 0.25 0.15 0.25 0.2 0.2 0.2 0.15 L -2,23.8 V 23.75 23.5 23.3 23.1 22.9 22.65 22.5 22.25 22.1 21.85 21.65 21.45 21.25 21 m 3.85,21.25 v 0.15 l -0.3,-0.1 0.3,-0.05"
         fill="#a7a29d"
         fill-rule="evenodd"
         stroke="none"
         id="path6" />
    </g>
    <g
       id="sprite1"
       transform="translate(17.4,15.85)">
      <use
         ffdec:characterId="31"
         height="57.200001"
         transform="matrix(0.5366,0,0,0.5366,-16.6582,-14.546)"
         width="70.75"
         xlink:href="#sprite2"
         id="use6" />
    </g>
    <g
       id="sprite2"
       transform="translate(-8.65,-10.35)">
      <use
         ffdec:characterId="30"
         height="57.200001"
         transform="translate(8.65,10.35)"
         width="70.75"
         xlink:href="#shape1"
         id="use7" />
    </g>
    <g
       id="shape1"
       transform="translate(-8.65,-10.35)">
      <path
         d="m 14.8,41.7 q 0.65,-1.75 2.65,-2.5 1.8,-0.8 3.7,-0.25 1.15,0.45 2.25,1.2 l 0.9,0.4 q 1.65,0.9 2.85,2.5 L 37.8,30.1 q 2.35,-2.8 3.75,-3.95 1.5,-1.15 4.25,-2.4 18.2,-8.85 27.65,-12.6 2.15,-0.8 3.25,-0.8 h 0.8 l 1.9,2.4 -0.2,0.8 q -0.2,1.1 -1.55,3 -5.85,8.25 -18.85,23.8 -1.85,2.35 -3.35,3.5 -1.4,1.15 -4.75,2.75 l -15.15,7.15 q 1.2,1.6 1.75,3.4 l 0.2,1 0.55,2.5 q 0.1,1.95 -1.1,3.55 -1.2,1.65 -3.05,1.9 l -1.3,0.05 q -1.65,0.2 -3.45,-0.65 -1.85,-0.9 -3,-2.6 L 25,60.95 23.8,62.1 q -2.6,2.85 -4.3,3.95 -2.85,1.8 -5.5,1.45 l -1.65,-0.5 -1.2,-0.7 -0.2,-0.2 q -1,-0.85 -1.6,-1.9 L 9.25,64 9.15,63.8 8.75,62.4 q -0.2,-0.8 -0.05,-1.7 0.25,-2.65 2.7,-5.05 1.5,-1.3 4.9,-3.15 L 17.7,51.55 16.05,50 q -1.35,-1.5 -1.8,-3.6 -0.4,-1.85 0.25,-3.45 l 0.3,-1.25"
         fill="#000000"
         fill-opacity="0.372549"
         fill-rule="evenodd"
         stroke="none"
         id="path7" />
    </g>
  </defs>
</svg>
