<?xml version="1.0" encoding="UTF-8" standalone="no"?>
<svg
   ffdec:objectType="frame"
   height="88.346169"
   width="85.936668"
   version="1.1"
   id="svg5"
   xmlns:xlink="http://www.w3.org/1999/xlink"
   xmlns="http://www.w3.org/2000/svg"
   xmlns:svg="http://www.w3.org/2000/svg"
   xmlns:ffdec="https://www.free-decompiler.com/flash">
  <g
     transform="translate(41.483333,41.93617)"
     id="g1">
    <use
       ffdec:characterId="17"
       height="119.15"
       id="rarity"
       transform="translate(-58.5,-60.65)"
       width="119.15"
       xlink:href="#sprite0" />
    <use
       ffdec:characterId="307"
       height="88.349998"
       transform="translate(-41.5,-41.95)"
       width="85.949997"
       xlink:href="#shape0"
       id="use1" />
  </g>
  <defs
     id="defs5">
    <g
       id="shape0"
       transform="translate(41.2,44.45)">
      <path
         d="m 19.95,-33.15 -0.4,-0.45 -2.75,-1.85 -0.85,-0.4 -1.5,-0.6 -3.1,-0.9 -1.5,-0.3 0.7,0.9 0.1,0.15 0.35,0.8 q 0.45,1.35 0.2,3.2 l -0.5,2.15 Q 10,-28.4 8.55,-26.5 l -2,2.1 -1.85,1.6 -0.45,0.3 -3.05,1.9 -2.7,1.35 -2.95,1.3 q -1.65,0.6 -3.1,0.9 l -0.3,0.05 q -1.9,0.35 -3.45,0 l -0.75,-0.2 q -0.9,-0.4 -1.5,-0.95 l -0.45,-0.6 -0.05,-0.05 -0.2,-0.35 q -0.55,-1.15 -0.35,-2.6 l 0.75,-2.25 0.45,-0.8 0.2,-0.25 0.7,-1 q 2.05,-2.65 5.8,-4.85 3.2,-1.75 5.45,-1.65 h 0.1 q 0.55,0 0.8,0.3 0.4,0.5 -0.05,1.05 l -0.85,0.65 -4.5,2.5 -1.3,0.85 -0.15,0.1 q -2.9,2.4 -3.2,5.2 l -0.05,0.6 q 2.55,0.2 6.7,-1.75 l 1,-0.45 4.75,-2.65 0.6,-0.45 q 2.4,-1.9 3.6,-4.15 l 0.7,-1.6 q 0.35,-0.85 0.2,-1.55 l -0.45,-0.85 -0.9,-0.85 q -2,-1.2 -4.9,-0.75 -2,0.35 -4.7,1.8 -5.1,2.6 -8.45,6 l -1.45,1.55 q -3.25,3.85 -4.25,7.95 -0.45,1.7 -0.5,3.4 l 0.2,1.95 0.2,0.45 0.2,0.25 1.85,1.15 1.1,0.35 h 0.15 q 2.05,0.45 4.45,0.05 h 0.25 l 0.95,-0.2 q 1.8,-0.4 4.05,-1.15 l 0.45,-0.2 q 2.6,-0.95 6.8,-2.75 l 4.1,-1.85 1.25,-0.6 q 0,1.6 -1.2,3.15 l -0.7,0.75 q -1.6,1.65 -5.05,3.45 l -1.2,0.6 q -3.95,1.95 -6.2,2.75 l -3.05,0.85 -2.75,0.3 h -0.75 l -1.55,-0.1 -1.4,-0.3 -1.35,-0.4 -0.2,-0.1 -0.25,-0.1 q -1.4,-0.6 -2.4,-1.35 l -1.05,-0.95 -1.2,-1.85 q -0.7,-1.65 -0.55,-4.1 v -0.15 l 0.25,-2.1 -2.8,4.25 q -2.2,3.6 -3.8,7.55 l -0.1,0.2 -1.55,4.2 -0.5,1.7 -1.1,4.4 q -0.75,3.55 -1.15,7.3 -0.3,1.85 -0.2,3.3 l 0.05,0.7 0.15,1.05 0.05,0.3 0.15,-0.55 0.45,-1.35 1.2,-2.9 q 2.15,-4.75 5.6,-7.45 l 2.05,-1.45 0.4,-0.2 0.8,-0.4 q 1.35,-0.65 2.75,-1 l 3.4,-0.55 h 0.45 0.05 q 2.65,0 5,1 l 0.7,0.35 q 2.25,1.15 3.4,3.2 l 0.5,1.05 0.6,2.45 0.15,1.3 q 0.1,1.65 -0.1,3.3 -0.25,1.8 -0.85,3.65 l -0.7,1.65 q -1.5,3.35 -4.15,6.3 l -0.25,0.2 -1.6,1.6 -1.9,1.5 -1.05,0.55 q -2.45,1.1 -5.1,0.05 -2.55,-1 -3.65,-3.6 l -0.4,-1.3 Q -26.4,23.2 -26.3,21.55 L -26.1,20 q 0.4,-2.1 1.3,-4.05 1.3,-2.7 3.45,-4.7 1.5,-1.3 2.7,-1.6 l 1.25,-0.05 0.85,0.2 q 1.05,0.4 1.6,1.3 0.6,0.95 0.65,2.6 l -0.1,1.4 -0.25,1.55 q -0.45,2.15 -1.45,3.3 -0.65,0.8 -1.4,0.95 l -0.45,0.05 -0.4,-0.1 -0.6,-0.6 q -0.2,-0.45 0.25,-1.75 0.95,-2.35 0.5,-4.7 -3.45,3.3 -3.6,8.15 0,2.2 1.1,2.95 l 0.1,0.05 0.2,0.1 2.2,-0.2 1.2,-0.9 1.45,-1.4 1.2,-1.4 q 1.2,-1.5 2.05,-3.15 1,-1.9 1.4,-3.8 l 0.3,-2.3 -0.05,-1.05 -0.3,-1.85 -0.4,-0.85 Q -12.1,6.8 -13.85,6.25 L -17.2,5.9 -18.1,6 q -1.4,0.25 -2.45,0.65 l -0.2,0.1 q -1.5,0.65 -2.9,1.85 -2.7,2.35 -4.4,6.6 l -1.35,4.2 -0.2,0.75 -0.05,0.25 q -0.5,1.9 -0.2,3.15 0.3,1.25 1.9,3.05 l 2.2,2.2 1.7,1 3.35,1.4 3.7,0.8 2.65,0.15 h 0.65 l 0.8,-0.55 0.75,-0.65 1.55,-1.7 2.05,-2.6 0.6,-1 1.25,-2.5 0.55,-1.3 0.6,-1.45 0.25,-0.65 0.4,-1.4 0.05,-0.45 q 0.2,-1.2 0.8,-1.35 0.45,-0.15 0.85,0.35 0.3,0.3 0.4,0.95 0.1,1.1 -0.25,2.75 l -0.1,0.5 -0.65,2.85 -0.5,1.45 -1.4,3.25 -1.55,2.55 -0.1,0.1 0.9,-0.25 3.65,-1.4 1.55,-0.75 Q 3.3,26.45 6.65,22.6 8.2,20.85 9,20.5 l 1.9,-0.35 1.95,0.05 q 4.3,0.05 9.9,-3.15 2.9,-1.6 4.3,-3.1 1.3,-1.4 2.5,-3.85 L 30,9.2 l 0.9,-2 0.15,-0.45 0.35,-1 0.45,-2.4 0.3,-2.9 L 32.2,-4 q -0.25,-2.35 -1.45,-4.45 l -0.4,-0.6 -0.05,-0.1 -0.65,-0.85 -2.1,-2.1 -0.6,-0.45 -0.45,-0.25 -1.45,-0.95 -0.75,-0.65 q -0.7,-0.9 -0.75,-2.4 l 0.2,-2.7 0.1,-0.95 q 0.1,-2.65 -0.55,-5.35 -0.5,-2.2 -1.55,-4.45 -0.8,-1.75 -1.8,-2.9 M 37.5,-8.4 q 0.75,2.35 0.9,4.8 L 38.3,1 Q 38,5.7 37.25,8.25 36.6,10.3 34.5,14.1 q -1.85,3.3 -3.3,4.75 -1.4,1.45 -4.5,3.2 -3.9,2.3 -6,3.15 l -1.65,0.6 Q 16.2,26.6 13.3,26.65 L 10.8,27 q -0.65,0.3 -1.7,1.35 -3.6,3.6 -8.3,5.95 l -1.15,0.55 q -4.15,1.85 -8.6,2.45 l -6.3,0.25 Q -21.7,37.3 -26.3,35.3 q -3.9,-1.65 -7.05,-4.6 -3.2,-2.95 -5.1,-6.7 -1.15,-2.4 -1.7,-4.5 -1.25,-5.2 0.35,-13.9 l 1.05,-4.85 q 1.1,-4.5 2.8,-8.7 1.1,-2.85 2.55,-5.55 l 3.25,-5.55 2.75,-3.95 4.65,-5.5 4.25,-4.1 4.1,-3.35 q 3.25,-2.4 6.8,-4.4 6.4,-3.55 11.35,-4 4.55,-0.45 10.9,1.45 6.45,1.85 9.5,5 1.65,1.75 2.9,4.2 2.4,4.65 2.9,9.7 0.2,2.05 0.05,4.2 0,1.05 0.15,1.4 0.15,0.45 0.85,1 l 0.35,0.3 q 2.15,1.7 3.7,3.9 l 1.25,2.1 1.2,2.7 M 6.75,-3.1 q -0.7,0.3 -1.15,0 -0.55,-0.35 -0.35,-1.55 0.6,-2.35 3.9,-5.15 2.85,-2.45 4.7,-3.1 l 3.95,-0.45 3.6,0.6 0.55,0.2 q 2.1,0.9 3.75,2.7 1.8,2 2.6,4.55 l 0.05,0.1 0.45,2 q 0.45,3.05 -0.45,6.35 L 28.25,3.5 27.75,5 Q 26.7,7.75 24.8,10.4 l -0.7,0.95 -2.15,2.35 q -2.2,2.4 -4.3,3.4 -2.1,1.05 -4.6,0.9 -2.5,-0.25 -4,-1.5 L 7.5,14.75 Q 6.7,13.35 6.45,11.5 6.25,10.3 6.3,8.9 L 6.35,8.35 V 8.25 Q 6.8,3.1 9.95,-1.1 q 1.55,-2.15 3.5,-3.25 1.45,-0.75 2.8,-0.85 l 1.9,0.2 q 1.05,0.25 1.65,1.05 0.45,0.55 0.55,1.5 l -0.1,1.35 q -0.5,3.25 -2.5,5.4 L 17.6,4.5 16.8,4.95 15.85,4.8 Q 15.3,4.25 15.95,3 l 0.25,-0.55 0.85,-3.5 0.05,-0.65 q -1.8,0.05 -3.25,2.3 L 13.1,1.85 12.15,4 11.55,6.25 q -0.35,1.8 -0.25,3.7 0.1,1.5 0.65,2.15 1.1,1.3 3.05,0.75 l 2.75,-1.85 0.9,-0.85 q 2,-2.1 3.25,-4.1 l 0.9,-1.6 q 1,-2.05 1.3,-3.95 0.3,-2.15 -0.2,-4.15 L 23.5,-4.9 22.45,-6.45 q -0.8,-0.9 -2.1,-1.35 l -2.55,-0.55 -2.65,0.2 Q 14,-7.85 12,-6.55 l -4.7,3.1 -0.55,0.35"
         fill="#000000"
         fill-rule="evenodd"
         stroke="none"
         id="path1" />
      <path
         d="m 19.75,-32.85 -0.3,1.05 0.1,1.05 0.35,0.75 0.5,0.7 0.3,0.95 v 0.4 l -0.25,0.7 -0.6,0.4 -1.3,-0.1 Q 17.3,-27.4 17,-27.6 q -1.6,-1.1 -1.5,-4.25 0.1,-1.45 0.55,-2.45 l 0.6,-1 0.15,-0.15 2.75,1.85 0.4,0.45 -0.2,0.3 m -0.75,8.9 1.6,-0.15 q 1.55,-0.2 2.3,-1.05 l 0.4,-0.65 q 0.65,2.7 0.55,5.35 l -1.85,0.6 q -3.05,0.65 -5.95,-0.1 l -2.25,-0.8 q -1.15,-0.6 -1.8,-1.1 -1.15,-0.9 -2.65,-3.2 L 8.7,-26.15 8.55,-26.5 q 1.45,-1.9 2.15,-3.95 l 0.5,-2.15 q 0.25,-1.85 -0.2,-3.2 l -0.35,-0.8 -0.1,-0.15 0.8,-0.6 3.1,0.9 -0.45,0.45 -0.05,0.05 -0.7,0.55 q -0.5,0.5 -0.8,1.8 -0.6,2.1 -0.6,3.25 l 0.05,0.25 q 0.05,1.15 0.6,2.25 l 0.2,0.35 q 0.8,1.35 2.05,2.2 1.85,1.25 4.25,1.35 m -36.45,4.05 q 0.45,-1.75 2.05,-3.45 l 2.2,-1.7 -0.2,0.25 -0.45,0.8 -0.75,2.25 q -0.2,1.45 0.35,2.6 l -1.05,0.9 q -0.75,0.65 -1.2,0.65 -0.65,0 -0.95,-0.75 l -0.05,-1.25 0.05,-0.3 M 2,-26.15 l -4.75,2.65 -1,-0.2 -3.1,0.15 q -1.1,0.2 -2.85,1.2 l -0.7,0.45 q 0.3,-2.8 3.2,-5.2 l 0.15,-0.1 1.3,-0.85 h 1.6 l 3.25,0.55 q 1.7,0.5 2.9,1.35 m 2.7,3.35 0.3,0.55 q 1,2.15 1.25,4.65 l -4.1,1.85 v -0.85 q 0,-1.85 -0.65,-3.4 l -0.3,-0.6 3.05,-1.9 0.45,-0.3 m 1.6,7.75 q -0.15,1.65 -0.7,3.25 l -0.5,1.35 -1.85,3.25 q -2.95,4.45 -6.4,6.85 l -1.3,0.85 q -3.2,1.85 -6.6,2.1 l -0.7,-0.35 q -2.35,-1 -5,-1 H -16.8 L -17.65,0.6 q -1.6,-1.45 -2.45,-4.15 l -0.25,-0.75 -0.4,-1.95 -0.05,-0.75 0.25,-1.7 q 1,0.75 2.4,1.35 l 0.25,0.1 0.2,0.1 1.35,0.4 0.05,0.6 q 0.2,1.45 1.15,2.65 l 0.65,0.7 q 0.75,0.6 1.65,0.85 L -9.9,-2 q 1.9,-0.45 3.7,-1.55 2.15,-1.35 4.15,-3.7 l 1.6,-2.1 1,-1.5 Q 4,-12.65 5.6,-14.3 l 0.7,-0.75 m 15.65,2.5 q 2.35,-0.05 4.25,0.8 l 1.85,1 q 0.5,0.35 1.1,0.75 l 1.15,0.85 0.05,0.1 0.4,0.6 q 1.2,2.1 1.45,4.45 l -0.05,4.45 -0.3,2.9 -0.45,2.4 -0.35,1 q -1.4,1.2 -4.1,2.65 L 26.5,9.65 25.85,9.95 24.8,10.4 Q 26.7,7.75 27.75,5 l 0.5,-1.5 0.1,-0.35 0.2,-0.2 0.4,-0.5 Q 29.55,1.4 29.8,-0.45 29.95,-1.85 29.7,-3 29.4,-4.15 28.35,-5.2 L 28.3,-5.3 q -0.8,-2.55 -2.6,-4.55 -1.65,-1.8 -3.75,-2.7 M 6.75,-3.1 7.3,-3.45 12,-6.55 q 2,-1.3 3.15,-1.6 l 2.65,-0.2 2.55,0.55 -2.2,0.55 -3.1,1.1 -4.15,2.2 -4.5,2.2 V -1.8 l 0.35,-1.3 m 16.75,-1.8 0.4,1.25 q 0.5,2 0.2,4.15 L 24,0.55 Q 23.35,1.2 22.7,1.25 22.05,1.3 21.7,0.7 21.3,0.1 21.55,-0.45 l 0.3,-0.5 0.15,-0.5 -0.45,-0.65 -1.2,-0.35 Q 20.25,-3.4 19.8,-3.95 19.2,-4.75 18.15,-5 l -1.9,-0.2 q 1.1,-0.6 2.3,-0.8 l 3.3,0.25 1.65,0.85 M 21.9,6.05 q -1.25,2 -3.25,4.1 Q 17.1,9.7 16,9.05 13.7,7.55 12.55,5.05 L 12.15,4 13.1,1.85 13.85,0.6 q 1.45,-2.25 3.25,-2.3 l -0.05,0.65 -0.75,1 q -0.45,0.9 -0.25,2 L 16.2,2.45 15.95,3 Q 15.3,4.25 15.85,4.8 L 16.8,4.95 17.6,4.5 q 1.1,0.9 2.95,1.3 L 21.9,6.05 M 6.45,11.5 q 0.25,1.85 1.05,3.25 v 2.3 0.05 L 7,20.55 Q 6.15,23 3.1,25.6 0.95,27.55 -1.25,28.9 l -1.55,0.75 -3.65,1.4 -0.8,0.15 1.55,-2.55 1.4,-3.25 q 2.55,-1.3 5.35,-3.85 L 2.8,19.4 Q 3.35,18.25 3.25,15.9 L 3.05,14.1 Q 2.55,12.55 0.8,11.7 -0.15,11.15 -2.35,10.65 L -4.8,10.35 H -5.15 L -6.4,10.6 -6.55,9.3 -7.15,6.85 Q -5.8,6.3 -5,6.2 l 0.8,-0.05 3.25,0.5 Q 0.9,7.1 2.2,7.65 3.15,8 3.75,8.4 l 0.5,0.4 0.7,0.65 q 0.75,0.8 1.5,2.05 m -9.6,9.6 0.1,-0.5 q 0.35,-1.65 0.25,-2.75 -0.1,-0.65 -0.4,-0.95 -0.4,-0.5 -0.85,-0.35 -0.6,0.15 -0.8,1.35 l -0.05,0.45 -0.45,-0.4 -1.2,-0.35 -0.8,-0.05 q 0.6,-1.85 0.85,-3.65 l 0.95,0.15 q 1.85,0.4 2.85,1.4 0.85,0.85 1,2.2 0.15,1.35 -0.5,2.45 l -0.95,1 M -5.3,19.75 -5.55,20.4 -6.15,21.85 -6.6,21.7 -7.2,21.15 q -0.05,-0.5 1.05,-0.85 l 0.85,-0.55 m -3.25,6.9 -2.05,2.6 -1.55,1.7 q -2.2,-0.6 -3.8,-2.15 l 1.9,-1.5 1.6,-1.6 0.3,0.2 q 1.4,0.95 3.6,0.75 m -20.85,-7.25 1.35,-4.2 q 1.7,-4.25 4.4,-6.6 1.4,-1.2 2.9,-1.85 l -0.3,0.95 -0.9,2.5 -1.8,3.45 -1.75,2.65 -1.6,1.75 -0.6,0.4 -1.7,0.95 M -10.95,9 l 0.3,1.85 0.05,1.05 -2,0.35 -0.55,-0.15 0.05,-0.75 q 0.7,-1.3 2.15,-2.35 m 0.05,5.2 q -0.4,1.9 -1.4,3.8 -0.85,1.65 -2.05,3.15 l -1.2,1.4 -1.45,1.4 -1.2,0.9 -0.05,-0.1 q -0.4,-1.95 0.25,-3.7 l 0.05,-0.1 0.45,-0.05 q 0.75,-0.15 1.4,-0.95 1,-1.15 1.45,-3.3 l 1.05,-0.9 q 1.35,-1.1 2.7,-1.55 m -18.9,-20.05 0.35,-0.2 q 1.5,-0.75 3,-0.55 l 0.6,0.1 q 1.5,0.35 2.6,1.6 l 1.05,1.5 q 0.45,0.8 0.8,2.05 l 0.65,2.7 0.1,0.45 q -1.4,0.35 -2.75,1 L -24.2,3.2 -24.6,2.05 -25.15,0 q -0.35,-1.2 -0.95,-1.85 l -0.8,-0.5 -1,0.35 -1.5,1.55 q -4.25,5.9 -3.6,11.15 l 0.6,-0.6 q 1.35,-1.45 1.9,-3.3 l 0.55,-2.2 q 0.4,-1.25 1.1,-1.9 0.55,-0.55 1.05,-0.4 0.6,0.1 0.9,1.15 l 0.25,1.4 q -3.45,2.7 -5.6,7.45 l -1.2,2.9 -0.65,-0.1 -0.2,-0.05 q -0.1,-1.45 0.2,-3.3 0.4,-3.75 1.15,-7.3 l 1.1,-4.4 0.5,-1.7 1.55,-4.2 m 20.65,-5.8 q 1.6,-1.9 1.45,-4.25 L -8,-16 q -1,-0.2 -2.45,0.75 -2.8,1.75 -4.3,3.7 l -0.05,0.05 h -0.15 l -1.1,-0.35 -1.85,-1.15 -0.2,-0.25 -0.2,-0.45 1.4,-1.75 2.2,-1.9 1.15,-0.8 q 0.6,0.55 1.5,0.95 l 0.75,0.2 q 1.55,0.35 3.45,0 l 0.3,-0.05 q 1.45,-0.3 3.1,-0.9 l 0.1,0.2 q 0.35,1.05 0.1,2.6 -0.3,1.25 -0.85,2.35 -2.25,0.75 -4.05,1.15"
         fill="#5c5f6a"
         fill-rule="evenodd"
         stroke="none"
         id="path2" />
      <path
         d="m 20.7,-28.35 -0.3,-0.95 -0.5,-0.7 -0.35,-0.75 -0.1,-1.05 0.3,-1.05 0.45,0.9 q 0.75,1.65 0.5,3.6 m -4.05,-6.95 -0.6,1 q -0.45,1 -0.55,2.45 -0.1,3.15 1.5,4.25 0.3,0.2 1.55,0.65 l 1.3,0.1 0.6,-0.4 -0.15,0.5 -1.3,2.8 q -2.4,-0.1 -4.25,-1.35 -1.25,-0.85 -2.05,-2.2 l -0.2,-0.35 q -0.55,-1.1 -0.6,-2.25 l -0.05,-0.25 q 0,-1.15 0.6,-3.25 0.3,-1.3 0.8,-1.8 l 0.7,-0.55 2.15,0.45 0.55,0.2 m -34.65,16.25 0.55,-0.85 -0.05,0.3 0.05,1.25 q 0.3,0.75 0.95,0.75 0.45,0 1.2,-0.65 l 1.05,-0.9 0.2,0.35 0.05,0.05 0.45,0.6 -1.15,0.8 -2.2,1.9 -1.4,1.75 -0.2,-1.95 q 0.05,-1.7 0.5,-3.4 m 16.75,-13.5 3.3,-1.35 3.45,-0.6 1.15,-0.25 0.45,0.85 q 0.15,0.7 -0.2,1.55 l -0.7,1.6 Q 5,-28.5 2.6,-26.6 L 2,-26.15 Q 0.8,-27 -0.9,-27.5 l -3.25,-0.55 h -1.6 l 4.5,-2.5 0.85,-0.65 q 0.45,-0.55 0.05,-1.05 -0.25,-0.3 -0.8,-0.3 h -0.1 m -1.5,9.05 -1,0.45 q -4.15,1.95 -6.7,1.75 l 0.05,-0.6 0.7,-0.45 q 1.75,-1 2.85,-1.2 l 3.1,-0.15 1,0.2 m 11.3,-3 0.15,0.35 0.65,1.1 q 1.5,2.3 2.65,3.2 0.65,0.5 1.8,1.1 l 2.25,0.8 q -4.5,5.5 -10.2,9 l -0.75,0.5 0.5,-1.35 q 0.55,-1.6 0.7,-3.25 1.2,-1.55 1.2,-3.15 l -1.25,0.6 Q 6,-20.1 5,-22.25 l -0.3,-0.55 1.85,-1.6 2,-2.1 m -7.35,5.9 0.3,0.6 q 0.65,1.55 0.65,3.4 v 0.85 q -4.2,1.8 -6.8,2.75 l -0.45,0.2 q 0.55,-1.1 0.85,-2.35 0.25,-1.55 -0.1,-2.6 l -0.1,-0.2 2.95,-1.3 2.7,-1.35 m -0.65,9.75 -1,1.5 -1.6,2.1 q -3.25,1 -6.65,1.3 1.45,0.95 2.5,2.4 -1.8,1.1 -3.7,1.55 l -2.95,0.05 q -0.9,-0.25 -1.65,-0.85 l -0.65,-0.7 q -0.95,-1.2 -1.15,-2.65 l -0.05,-0.6 1.4,0.3 1.55,0.1 h 0.75 l 2.75,-0.3 3.05,-0.85 q 2.25,-0.8 6.2,-2.75 l 1.2,-0.6 m -21.3,4.6 0.4,1.95 0.25,0.75 q 0.85,2.7 2.45,4.15 l 0.85,0.65 h -0.45 l -3.4,0.55 -0.1,-0.45 -0.65,-2.7 q -0.35,-1.25 -0.8,-2.05 l -1.05,-1.5 2.5,-1.35 m 9.7,8.85 q 3.4,-0.25 6.6,-2.1 0.35,1.65 0.35,3.6 L -4.2,6.15 -5,6.2 Q -5.8,6.3 -7.15,6.85 L -7.65,5.8 Q -8.8,3.75 -11.05,2.6 M 6.4,-1.8 v 0.05 l 4.5,-2.2 4.15,-2.2 3.1,-1.1 2.2,-0.55 q 1.3,0.45 2.1,1.35 L 23.5,-4.9 21.85,-5.75 18.55,-6 q -1.2,0.2 -2.3,0.8 -1.35,0.1 -2.8,0.85 -1.95,1.1 -3.5,3.25 -3.15,4.2 -3.6,9.35 v 0.1 L 6.3,8.9 Q 6.25,10.3 6.45,11.5 5.7,10.25 4.95,9.45 L 4.25,8.8 3.75,8.4 Q 3.15,8 2.2,7.65 2.45,4.5 4.55,0.9 L 6.4,-1.8 M 24.1,0.5 Q 23.8,2.4 22.8,4.45 L 21.9,6.05 20.55,5.8 Q 18.7,5.4 17.6,4.5 l 0.15,-0.2 q 2,-2.15 2.5,-5.4 l 0.1,-1.35 1.2,0.35 0.45,0.65 -0.15,0.5 -0.3,0.5 Q 21.3,0.1 21.7,0.7 22.05,1.3 22.7,1.25 23.35,1.2 24,0.55 L 24.1,0.5 M 18.65,10.15 17.75,11 15,12.85 Q 13.05,13.4 11.95,12.1 11.4,11.45 11.3,9.95 11.2,8.05 11.55,6.25 l 0.6,-2.25 0.4,1.05 q 1.15,2.5 3.45,4 1.1,0.65 2.65,1.1 m -1.6,-11.2 -0.85,3.5 -0.15,-0.5 q -0.2,-1.1 0.25,-2 l 0.75,-1 M 7.5,14.75 9.05,16.5 q 1.5,1.25 4,1.5 2.5,0.15 4.6,-0.9 2.1,-1 4.3,-3.4 l 2.15,-2.35 0.7,-0.95 1.05,-0.45 -0.4,0.6 q -2.05,3.05 -4.8,5 -2.35,1.65 -5.05,2.3 L 10.15,18 7.5,17.1 v -0.05 -2.3 M 28.35,3.15 q 0.9,-3.3 0.45,-6.35 l 0.3,1.65 q 0.2,1.9 -0.15,4 l -0.4,0.5 -0.2,0.2 m -58,17.25 0.05,-0.25 0.2,-0.75 1.7,-0.95 0.6,-0.4 1.6,-1.75 1.75,-2.65 1.8,-3.45 0.9,-2.5 0.3,-0.95 0.2,-0.1 Q -19.5,6.25 -18.1,6 l 0.9,-0.1 3.35,0.35 q 1.75,0.55 2.5,1.9 l 0.4,0.85 q -1.45,1.05 -2.15,2.35 l -0.05,0.75 0.55,0.15 2,-0.35 -0.3,2.3 q -1.35,0.45 -2.7,1.55 l -1.05,0.9 0.25,-1.55 0.1,-1.4 q -0.05,-1.65 -0.65,-2.6 -0.55,-0.9 -1.6,-1.3 l -0.85,-0.2 -1.25,0.05 q -1.2,0.3 -2.7,1.6 -2.15,2 -3.45,4.7 -0.9,1.95 -1.3,4.05 l -0.2,1.55 q -0.1,1.65 0.15,2.95 -2,-1.65 -3.2,-3.55 l -0.3,-0.55 m 11.45,4.45 -2.2,0.2 -0.2,-0.1 -0.1,-0.05 q -1.1,-0.75 -1.1,-2.95 0.15,-4.85 3.6,-8.15 0.45,2.35 -0.5,4.7 -0.45,1.3 -0.25,1.75 l 0.6,0.6 0.4,0.1 -0.05,0.1 q -0.65,1.75 -0.25,3.7 l 0.05,0.1 m 6,0.65 q 2.65,-2.95 4.15,-6.3 l 0.7,-1.65 0.8,0.05 q -1,2.5 -2.5,4.55 -1.4,2 -3.15,3.35 m 5.7,-11.6 q 0.2,-1.65 0.1,-3.3 l 1.25,-0.25 h 0.35 l -0.25,1.1 -0.5,2.6 -0.95,-0.15 m -25.9,-3.8 q 0.15,-2.7 1.75,-6.7 0.95,-2.55 1.9,-3.85 l 1.85,-1.9 0.8,0.5 q 0.6,0.65 0.95,1.85 l 0.55,2.05 0.4,1.15 -0.4,0.2 -2.05,1.45 -0.25,-1.4 q -0.3,-1.05 -0.9,-1.15 -0.5,-0.15 -1.05,0.4 -0.7,0.65 -1.1,1.9 l -0.55,2.2 q -0.55,1.85 -1.9,3.3 m 17.6,-21.6 0.05,-0.05 q 1.5,-1.95 4.3,-3.7 Q -9,-16.2 -8,-16 l 0.3,0.1 q 0.15,2.35 -1.45,4.25 l -0.95,0.2 h -0.25 q -2.4,0.4 -4.45,-0.05"
         fill="#9399aa"
         fill-rule="evenodd"
         stroke="none"
         id="path3" />
      <path
         d="m 20.7,-28.35 q 0.25,-1.95 -0.5,-3.6 l -0.45,-0.9 0.2,-0.3 q 1,1.15 1.8,2.9 1.05,2.25 1.55,4.45 l -0.4,0.65 q -0.75,0.85 -2.3,1.05 l -1.6,0.15 1.3,-2.8 0.15,-0.5 0.25,-0.7 v -0.4 m -3.9,-7.1 -0.15,0.15 -0.55,-0.2 -2.15,-0.45 0.05,-0.05 0.45,-0.45 1.5,0.6 0.85,0.4 m 18.25,22.25 0.45,-0.1 q 1.05,-0.35 2.2,-1.3 1.15,-0.95 1.55,-1.85 1.35,-2.35 0.1,-5.45 l -1.15,-1.75 q -0.55,-0.45 -1.45,-0.75 l -1.65,-0.45 q -1.3,-0.35 -1.9,-1.05 -0.65,-0.8 -0.45,-1.9 0.2,-1.1 1.1,-1.6 l 3.7,0.15 q 2.2,0.75 3.25,1.45 2,1.4 2.95,3.9 0.85,2 0.95,4.8 0.2,2.2 -0.35,3.75 -0.65,2.2 -2.75,4.2 -1.95,1.9 -4.1,2.75 l -1.2,-2.7 -1.25,-2.1 m -16,39 1.6,2.8 q 1.1,2.8 0.9,4.8 L 21,35.85 q -1.55,4 -5.35,6.3 Q 12,44.35 7.55,43.8 6.6,43.7 6.2,43.2 L 5.95,42.5 q 0,-0.45 0.25,-0.75 0.3,-0.4 1.5,-0.6 4.8,-0.85 7.3,-3.8 l 1.45,-2.4 q 0.45,-0.95 0.45,-2 -0.05,-1.3 -1.35,-3.4 l -0.65,-0.7 -0.7,-0.1 -1.6,-0.05 -1.9,0.1 q -1.05,0.25 -2.3,1.05 -1.7,1.15 -3,2.7 -0.75,0.85 -0.35,1.4 0.25,0.4 1.1,0.4 l 2.7,-0.4 0.8,-0.75 0.05,-0.95 Q 9.8,31.5 10.35,31 q 0.55,-0.6 1.25,-0.55 0.9,0 1.6,0.85 0.55,0.8 0.55,1.75 0.2,2.6 -2.2,4.5 -1.9,1.5 -4.85,1.65 L 3.25,38.8 q -1.8,-0.65 -2.75,-1.95 -0.65,-0.9 -0.85,-2 L 0.8,34.3 Q 5.5,31.95 9.1,28.35 10.15,27.3 10.8,27 l 2.5,-0.35 q 2.9,-0.05 5.75,-0.85 m -55,-33.75 -0.7,-0.5 q -2.6,-1.85 -3.7,-4.5 -1,-2.55 -0.8,-6.95 0.3,-4.65 1.4,-7.15 1.9,-4.1 6.1,-5.75 2.1,-0.8 4.25,-0.7 2.3,0.15 4,1.35 1.3,0.95 2.1,2.4 l 0.55,1.25 -4.65,5.5 -2.75,3.95 q -0.8,-0.25 -1.5,-0.75 -1.1,-0.75 -1.5,-1.95 -0.5,-1.6 0.5,-2.45 l 1.25,-0.15 q 0.75,0.2 0.8,0.85 0.85,0.35 1.8,0 0.9,-0.3 1.35,-1.1 0.5,-0.8 0.3,-1.75 -0.2,-1 -0.9,-1.55 -0.65,-0.5 -1.55,-0.6 l -1.75,0.3 q -2.5,0.95 -3.45,3.95 -0.6,1.75 -0.6,5.4 0,2.9 0.95,4.25 l 1.05,1.1 q -1.45,2.7 -2.55,5.55 m 17.45,-24.65 -1.25,-1.55 q -1.6,-1.75 -3.7,-2.6 -2.2,-0.95 -4.35,-0.6 -1.05,0.2 -4.15,1.6 l -2.75,-0.1 q -0.75,-0.9 0.4,-2.6 1.7,-2.2 4.5,-3.25 2.7,-1.05 5.55,-0.65 2.75,0.35 5.25,1.95 2.4,1.5 4.15,3.8 l 0.45,0.65 -4.1,3.35 m 48.45,8.6 0.2,-0.1 2.95,-0.2 q 1.55,0.25 2.7,1.15 1.45,1.05 1.5,2.4 0.05,0.9 -0.45,1.95 -0.65,1.35 -1.6,1.65 l -1.1,-0.15 q -0.6,-0.3 -0.55,-0.9 l 0.25,-0.9 q 0.2,-0.55 -0.1,-0.85 L 33.2,-20.1 q -1.2,-0.1 -1.65,0.35 l -0.5,1.1 -0.05,1.25 q -0.7,-0.55 -0.85,-1 Q 30,-18.75 30,-19.8 30.15,-21.95 29.95,-24 M -18,-19.05 q 1,-4.1 4.25,-7.95 l 1.45,-1.55 q 3.35,-3.4 8.45,-6 2.7,-1.45 4.7,-1.8 2.9,-0.45 4.9,0.75 l 0.9,0.85 -1.15,0.25 -3.45,0.6 -3.3,1.35 q -2.25,-0.1 -5.45,1.65 -3.75,2.2 -5.8,4.85 l -0.7,1 -2.2,1.7 q -1.6,1.7 -2.05,3.45 l -0.55,0.85 m 23.1,8.6 0.75,-0.5 q 5.7,-3.5 10.2,-9 2.9,0.75 5.95,0.1 l 1.85,-0.6 -0.1,0.95 -0.2,2.7 q 0.05,1.5 0.75,2.4 l 0.75,0.65 1.45,0.95 0.45,0.25 0.6,0.45 2.1,2.1 0.65,0.85 -1.15,-0.85 q -0.6,-0.4 -1.1,-0.75 l -1.85,-1 q -1.9,-0.85 -4.25,-0.8 l -0.55,-0.2 -3.6,-0.6 -3.95,0.45 q -1.85,0.65 -4.7,3.1 -3.3,2.8 -3.9,5.15 -0.2,1.2 0.35,1.55 0.45,0.3 1.15,0 L 6.4,-1.8 4.55,0.9 Q 2.45,4.5 2.2,7.65 0.9,7.1 -0.95,6.65 L -4.2,6.15 -4.1,4.1 q 0,-1.95 -0.35,-3.6 l 1.3,-0.85 q 3.45,-2.4 6.4,-6.85 l 1.85,-3.25 m 6.25,-26.9 -0.8,0.6 -0.7,-0.9 1.5,0.3 m -13.4,30.1 q -2,2.35 -4.15,3.7 -1.05,-1.45 -2.5,-2.4 3.4,-0.3 6.65,-1.3 m -18.5,-1.45 -0.25,1.7 0.05,0.75 -2.5,1.35 q -1.1,-1.25 -2.6,-1.6 l -0.6,-0.1 q -1.5,-0.2 -3,0.55 l -0.35,0.2 0.1,-0.2 q 1.6,-3.95 3.8,-7.55 l 2.8,-4.25 -0.25,2.1 v 0.15 q -0.15,2.45 0.55,4.1 l 1.2,1.85 1.05,0.95 m 49.35,5.5 -0.45,-2 q 1.05,1.05 1.35,2.2 0.25,1.15 0.1,2.55 -0.25,1.85 -0.85,2.9 0.35,-2.1 0.15,-4 L 28.8,-3.2 m 2.25,9.95 -0.15,0.45 -0.9,2 -0.45,0.9 q -1.2,2.45 -2.5,3.85 -1.4,1.5 -4.3,3.1 -5.6,3.2 -9.9,3.15 L 10.9,20.15 9,20.5 Q 8.2,20.85 6.65,22.6 3.3,26.45 -1.25,28.9 0.95,27.55 3.1,25.6 6.15,23 7,20.55 L 7.5,17.1 10.15,18 15.6,17.85 q 2.7,-0.65 5.05,-2.3 2.75,-1.95 4.8,-5 L 26.3,9.9 26.5,9.65 26.95,9.4 q 2.7,-1.45 4.1,-2.65 m -37.5,24.3 -0.9,0.25 0.1,-0.1 0.8,-0.15 m 2.15,-5.65 0.5,-1.45 0.65,-2.85 0.95,-1 q 0.65,-1.1 0.5,-2.45 -0.15,-1.35 -1,-2.2 -1,-1 -2.85,-1.4 l 0.5,-2.6 0.25,-1.1 2.45,0.3 q 2.2,0.5 3.15,1.05 1.75,0.85 2.25,2.4 l 0.2,1.8 q 0.1,2.35 -0.45,3.5 l -1.75,2.15 q -2.8,2.55 -5.35,3.85 m -0.6,-7.05 -0.4,1.4 -0.85,0.55 q -1.1,0.35 -1.05,0.85 l 0.6,0.55 0.45,0.15 -0.55,1.3 -1.25,2.5 -0.6,1 q -2.2,0.2 -3.6,-0.75 l -0.3,-0.2 0.25,-0.2 q 1.75,-1.35 3.15,-3.35 1.5,-2.05 2.5,-4.55 l 1.2,0.35 0.45,0.4 m -7.25,12.6 -0.75,0.65 -0.8,0.55 h -0.65 L -17,32 l -3.7,-0.8 -3.35,-1.4 -1.7,-1 -2.2,-2.2 q -1.6,-1.8 -1.9,-3.05 -0.3,-1.25 0.2,-3.15 l 0.3,0.55 q 1.2,1.9 3.2,3.55 l 0.4,1.3 q 1.1,2.6 3.65,3.6 2.65,1.05 5.1,-0.05 l 1.05,-0.55 q 1.6,1.55 3.8,2.15 M -32.4,10.1 -33,10.7 q -0.65,-5.25 3.6,-11.15 l 1.5,-1.55 1,-0.35 -1.85,1.9 q -0.95,1.3 -1.9,3.85 -1.6,4 -1.75,6.7 m -1.9,4.95 0.2,0.05 0.65,0.1 -0.45,1.35 -0.15,0.55 -0.05,-0.3 -0.15,-1.05 -0.05,-0.7 m 33.35,-1.2 -0.15,0.35 0.3,-0.15 0.05,-0.1 0.2,-0.1 -0.25,-0.05 h -0.1 l -0.05,0.05"
         fill="#7d8291"
         fill-rule="evenodd"
         stroke="none"
         id="path4" />
    </g>
    <g
       id="sprite1"
       transform="translate(17.4,15.85)">
      <use
         ffdec:characterId="31"
         height="57.200001"
         transform="matrix(0.5366,0,0,0.5366,-16.6582,-14.546)"
         width="70.75"
         xlink:href="#sprite2"
         id="use4" />
    </g>
    <g
       id="sprite2"
       transform="translate(-8.65,-10.35)">
      <use
         ffdec:characterId="30"
         height="57.200001"
         transform="translate(8.65,10.35)"
         width="70.75"
         xlink:href="#shape1"
         id="use5" />
    </g>
    <g
       id="shape1"
       transform="translate(-8.65,-10.35)">
      <path
         d="m 14.8,41.7 q 0.65,-1.75 2.65,-2.5 1.8,-0.8 3.7,-0.25 1.15,0.45 2.25,1.2 l 0.9,0.4 q 1.65,0.9 2.85,2.5 L 37.8,30.1 q 2.35,-2.8 3.75,-3.95 1.5,-1.15 4.25,-2.4 18.2,-8.85 27.65,-12.6 2.15,-0.8 3.25,-0.8 h 0.8 l 1.9,2.4 -0.2,0.8 q -0.2,1.1 -1.55,3 -5.85,8.25 -18.85,23.8 -1.85,2.35 -3.35,3.5 -1.4,1.15 -4.75,2.75 l -15.15,7.15 q 1.2,1.6 1.75,3.4 l 0.2,1 0.55,2.5 q 0.1,1.95 -1.1,3.55 -1.2,1.65 -3.05,1.9 l -1.3,0.05 q -1.65,0.2 -3.45,-0.65 -1.85,-0.9 -3,-2.6 L 25,60.95 23.8,62.1 q -2.6,2.85 -4.3,3.95 -2.85,1.8 -5.5,1.45 l -1.65,-0.5 -1.2,-0.7 -0.2,-0.2 q -1,-0.85 -1.6,-1.9 L 9.25,64 9.15,63.8 8.75,62.4 q -0.2,-0.8 -0.05,-1.7 0.25,-2.65 2.7,-5.05 1.5,-1.3 4.9,-3.15 L 17.7,51.55 16.05,50 q -1.35,-1.5 -1.8,-3.6 -0.4,-1.85 0.25,-3.45 l 0.3,-1.25"
         fill="#000000"
         fill-opacity="0.372549"
         fill-rule="evenodd"
         stroke="none"
         id="path5" />
    </g>
  </defs>
</svg>
