<?xml version="1.0" encoding="UTF-8" standalone="no"?>
<svg
   ffdec:objectType="frame"
   height="89.75"
   width="90.441124"
   version="1.1"
   id="svg4"
   xmlns:xlink="http://www.w3.org/1999/xlink"
   xmlns="http://www.w3.org/2000/svg"
   xmlns:svg="http://www.w3.org/2000/svg"
   xmlns:ffdec="https://www.free-decompiler.com/flash">
  <g
     transform="translate(45.564205,44.45)"
     id="g1">
    <use
       ffdec:characterId="17"
       height="119.15"
       id="rarity"
       transform="translate(-58.5,-60.65)"
       width="119.15"
       xlink:href="#sprite0" />
    <use
       ffdec:characterId="862"
       height="89.800003"
       transform="translate(-45.55,-44.45)"
       width="90.449997"
       xlink:href="#shape0"
       id="use1" />
  </g>
  <defs
     id="defs4">
    <g
       id="shape0"
       transform="translate(46.1,45.2)">
      <path
         d="M -0.25,-40.9 H -1.1 l -4.8,0.8 q -6.65,1.3 -10.3,2.6 -5.55,2 -9.5,5 l -3,2.55 q -2.25,2.3 -4.35,5.45 l 0.4,-0.35 -0.9,1.1 q -1.1,1.4 -2.4,4.8 -3.3,8.3 -4.45,14.15 -1.45,7.3 -0.7,13.65 l 0.2,1.35 q 1.45,8.8 7.3,16.7 2.3,3 4.15,4.3 1.6,1.15 4.4,2.35 l 4.55,1.95 4.15,2.05 5.85,1.6 4.6,1.1 3.45,0.05 4.4,-0.4 10,-1.9 q 4.85,-0.9 7.45,-2 1.8,-0.8 4,-2.3 l 3.7,-2.7 3.05,-2.45 2.8,-3.95 0.1,-0.15 3.7,-7.1 1.25,-3.5 q 3.25,-9.95 1.9,-21.1 -0.4,-3.4 -1.25,-6.65 -1.8,-7.3 -5.55,-13.85 -2.1,-3.6 -4.25,-5.8 l -2.4,-2.1 q -1.75,-1.45 -3.05,-2.05 -2,-1.1 -6.55,-2 l -1.2,-0.25 -7.3,-1.05 -5.3,0.15 -3.3,-0.05 m 43.8,49.75 -1,4.1 q -1.2,4.4 -3.05,8.25 l -2.25,4 q -2.8,4.8 -4.8,6.8 -1.55,1.6 -4.35,3.55 -5.15,3.6 -7.5,4.7 -2.5,1.1 -6.85,2.35 -4.35,1.25 -8.2,1.45 L -1.8,44.5 -6.95,44.55 -11.5,43.9 q -2.95,-0.55 -4.5,-1.2 l -4.8,-2.2 q -1.85,-0.85 -5.7,-2.4 -3.3,-1.55 -5.4,-2.95 -5.85,-4.15 -10.45,-14 L -44,17 q -3.05,-8.65 -1.7,-19.2 1.1,-8.25 5.2,-18.4 1.8,-4.35 3.35,-6.4 l 0.1,-0.15 q 3.95,-5.4 8.1,-8.7 4.3,-3.35 9.55,-5.4 4.05,-1.65 10,-2.9 4.3,-1 7.2,-1.05 l 5.9,0.2 3.8,-0.1 3.75,0.15 5.15,1.1 3.05,0.6 3.1,0.7 q 2.15,0.75 4.85,2.5 l 3.5,2.6 q 2.8,2.7 6,8.3 2.3,4.05 3.55,7.3 4.2,10.25 3.85,23.4 -0.1,3.9 -0.75,7.3"
         fill="#000000"
         fill-rule="evenodd"
         stroke="none"
         id="path1" />
      <path
         d="m -11.65,-34.05 q 1.05,0.75 1.15,2.25 0.1,1.45 -0.75,2.6 -0.9,1.25 -3.05,2.05 l -3.65,1.25 -3.1,2.05 q -2.45,1.75 -3.55,2.85 -1.9,1.75 -4.85,5.8 -4,5.45 -5.6,8.75 -0.55,1.25 -1.25,1.25 -0.4,0.05 -0.75,-0.35 l -0.35,-0.75 0.35,-1.65 4.9,-11.5 2.5,-4.45 q 1.2,-1.75 4.25,-4.7 l 2.25,-2.05 q 2.45,-1.8 6.7,-3.35 3.2,-1.1 4.8,-0.05 m 19.4,-1.15 0.05,0.1 q 0.6,0.7 0.65,1.65 0.1,0.95 -0.3,1.75 -0.9,1.75 -2.8,1.9 -1.15,0.1 -2.05,-0.5 -0.75,-0.5 -1.1,-1.45 l -0.25,-1.1 v -0.75 q 0.2,-1.4 1.15,-2.15 1,-0.75 2.5,-0.55 1.35,0.15 2.15,1.1 m -10.4,68.9 q 0.15,-0.15 0.3,-0.2 1,-0.8 3.45,-0.8 Q 9.8,32.55 16.25,28.9 19.6,27.05 24,23 L 27.55,19.45 30.1,15.8 Q 33.7,9.9 35.45,3.25 l 1,-5.85 Q 36.7,-3.5 37,-3.65 37.4,-3.8 37.75,-3.4 l 0.35,0.85 q 0.85,3.5 -0.05,7.8 -0.6,3.15 -2.35,7.6 L 33.65,17.6 31,22.7 q -1.35,2.05 -4.2,4.95 -4.3,4.1 -7.9,6.1 -7.3,4.2 -18.15,4.4 -2.1,0.1 -3,-0.6 Q -3.15,37 -3.3,35.75 -3.35,34.5 -2.65,33.7 m -3.95,0.85 q 0.4,0.8 -0.05,1.75 -0.5,0.85 -1.45,1.15 L -10,37.6 q -3.55,-0.05 -6.35,-1.1 l -3.45,-1.4 -1.45,-0.75 q -1,-0.85 -1,-2.35 L -22,31 q 0.3,-0.65 1,-1 l 1.35,-0.3 q 0.95,0 2.75,0.75 l 3.25,1.3 3.15,1 2.2,0.4 0.15,0.05 q 1.15,0.4 1.55,1.35"
         fill="#ffffff"
         fill-rule="evenodd"
         stroke="none"
         id="path2" />
      <path
         d="m -28.7,-29.95 1.7,-1.1 q 13.85,-8.6 26.75,-9.85 l 3.3,0.05 5.3,-0.15 7.3,1.05 v 0.1 q 0.3,1 -0.3,2 -0.6,0.9 -1.6,1.35 l -1.9,0.6 -2.1,0.25 -2,0.45 Q 6.95,-36.15 5.6,-36.3 4.1,-36.5 3.1,-35.75 2.15,-35 1.95,-33.6 v 0.75 l -3.05,1.55 -6.05,2.9 -5.85,3.2 q -4,2.6 -10.2,8.65 -5.65,5.5 -8.25,9.5 -3.25,4.9 -5.3,12.2 -0.95,3.5 -2.7,3.9 l -1.65,-0.2 q -0.75,-6.35 0.7,-13.65 1.15,-5.85 4.45,-14.15 1.3,-3.4 2.4,-4.8 l 0.9,-1.1 -0.4,0.35 q 2.1,-3.15 4.35,-5.45 m 67.35,16.05 q 0.85,3.25 1.25,6.65 1.35,11.15 -1.9,21.1 l -1.25,3.5 -3.7,7.1 -2,1.9 q -5.65,5 -9.45,7.15 -2.4,1.25 -6.4,2.8 -3.4,1.35 -5.3,1.8 l -5.05,0.7 q -6.8,0.5 -13.3,-0.05 l -6.4,-1.05 Q -18.2,36.75 -22,34.35 l -6.5,-4.75 q -2.6,-2 -3.7,-3.3 -0.85,-1 -1.1,-2.05 -0.35,-1.25 0.1,-2.15 0.55,-1.15 2.05,-1.45 l 2.55,-0.15 7.8,-0.15 Q 3.95,18.9 22.9,6.85 L 27.75,3.3 q 2.9,-2.6 4.8,-6.1 1.9,-3.5 2.5,-7.4 0.25,-1.85 0.7,-2.6 0.55,-0.75 1.45,-1 l 1.45,-0.1 m -50.3,-20.15 q -1.6,-1.05 -4.8,0.05 -4.25,1.55 -6.7,3.35 l -2.25,2.05 q -3.05,2.95 -4.25,4.7 l -2.5,4.45 -4.9,11.5 -0.35,1.65 0.35,0.75 q 0.35,0.4 0.75,0.35 0.7,0 1.25,-1.25 1.6,-3.3 5.6,-8.75 2.95,-4.05 4.85,-5.8 1.1,-1.1 3.55,-2.85 l 3.1,-2.05 3.65,-1.25 q 2.15,-0.8 3.05,-2.05 0.85,-1.15 0.75,-2.6 -0.1,-1.5 -1.15,-2.25 m 9,67.75 q -0.7,0.8 -0.65,2.05 0.15,1.25 1.05,1.8 0.9,0.7 3,0.6 10.85,-0.2 18.15,-4.4 3.6,-2 7.9,-6.1 2.85,-2.9 4.2,-4.95 l 2.65,-5.1 2.05,-4.75 q 1.75,-4.45 2.35,-7.6 0.9,-4.3 0.05,-7.8 L 37.75,-3.4 Q 37.4,-3.8 37,-3.65 36.7,-3.5 36.45,-2.6 l -1,5.85 Q 33.7,9.9 30.1,15.8 L 27.55,19.45 24,23 q -4.4,4.05 -7.75,5.9 -6.45,3.65 -15.15,3.8 -2.45,0 -3.45,0.8 -0.15,0.05 -0.3,0.2 M -6.6,34.55 Q -7,33.6 -8.15,33.2 l -0.15,-0.05 -2.2,-0.4 -3.15,-1 -3.25,-1.3 Q -18.7,29.7 -19.65,29.7 L -21,30 q -0.7,0.35 -1,1 l -0.25,1 q 0,1.5 1,2.35 l 1.45,0.75 3.45,1.4 q 2.8,1.05 6.35,1.1 l 1.9,-0.15 q 0.95,-0.3 1.45,-1.15 0.45,-0.95 0.05,-1.75"
         fill="#c5effd"
         fill-opacity="0.298039"
         fill-rule="evenodd"
         stroke="none"
         id="path3" />
    </g>
    <g
       id="sprite1"
       transform="translate(17.4,15.85)">
      <use
         ffdec:characterId="31"
         height="57.200001"
         transform="matrix(0.5366,0,0,0.5366,-16.6582,-14.546)"
         width="70.75"
         xlink:href="#sprite2"
         id="use3" />
    </g>
    <g
       id="sprite2"
       transform="translate(-8.65,-10.35)">
      <use
         ffdec:characterId="30"
         height="57.200001"
         transform="translate(8.65,10.35)"
         width="70.75"
         xlink:href="#shape1"
         id="use4" />
    </g>
    <g
       id="shape1"
       transform="translate(-8.65,-10.35)">
      <path
         d="m 14.8,41.7 q 0.65,-1.75 2.65,-2.5 1.8,-0.8 3.7,-0.25 1.15,0.45 2.25,1.2 l 0.9,0.4 q 1.65,0.9 2.85,2.5 L 37.8,30.1 q 2.35,-2.8 3.75,-3.95 1.5,-1.15 4.25,-2.4 18.2,-8.85 27.65,-12.6 2.15,-0.8 3.25,-0.8 h 0.8 l 1.9,2.4 -0.2,0.8 q -0.2,1.1 -1.55,3 -5.85,8.25 -18.85,23.8 -1.85,2.35 -3.35,3.5 -1.4,1.15 -4.75,2.75 l -15.15,7.15 q 1.2,1.6 1.75,3.4 l 0.2,1 0.55,2.5 q 0.1,1.95 -1.1,3.55 -1.2,1.65 -3.05,1.9 l -1.3,0.05 q -1.65,0.2 -3.45,-0.65 -1.85,-0.9 -3,-2.6 L 25,60.95 23.8,62.1 q -2.6,2.85 -4.3,3.95 -2.85,1.8 -5.5,1.45 l -1.65,-0.5 -1.2,-0.7 -0.2,-0.2 q -1,-0.85 -1.6,-1.9 L 9.25,64 9.15,63.8 8.75,62.4 q -0.2,-0.8 -0.05,-1.7 0.25,-2.65 2.7,-5.05 1.5,-1.3 4.9,-3.15 L 17.7,51.55 16.05,50 q -1.35,-1.5 -1.8,-3.6 -0.4,-1.85 0.25,-3.45 l 0.3,-1.25"
         fill="#000000"
         fill-opacity="0.372549"
         fill-rule="evenodd"
         stroke="none"
         id="path4" />
    </g>
  </defs>
</svg>
