<?xml version="1.0" encoding="UTF-8" standalone="no"?>
<svg
   ffdec:objectType="frame"
   height="43.852028"
   width="52.263752"
   version="1.1"
   id="svg4"
   xmlns:xlink="http://www.w3.org/1999/xlink"
   xmlns="http://www.w3.org/2000/svg"
   xmlns:svg="http://www.w3.org/2000/svg"
   xmlns:ffdec="https://www.free-decompiler.com/flash">
  <g
     transform="translate(27.607692,22.302027)"
     id="g1">
    <use
       ffdec:characterId="17"
       height="119.15"
       id="rarity"
       transform="translate(-58.5,-60.65)"
       width="119.15"
       xlink:href="#sprite0" />
    <use
       ffdec:characterId="51"
       height="43.900002"
       transform="translate(-27.6,-22.3)"
       width="52.25"
       xlink:href="#shape0"
       id="use1" />
  </g>
  <defs
     id="defs4">
    <g
       id="shape0"
       transform="translate(27.3,24.8)">
      <path
         d="m 18.2,-6.6 q -0.6,-1.9 -1.55,-3.6 -2.1,-3.75 -5.75,-5.85 -1.95,-1.15 -3.95,-1.55 l -2.45,-0.25 0.8,0.2 q 2.65,0.85 4.35,2.45 2.75,2.6 3.15,6.75 l 0.05,0.7 q 0.15,2.4 -0.55,4.35 -0.5,1.35 -1.4,2.45 l -0.2,0.3 q -2.35,3 -6.35,3.4 L 2.6,2.85 0.9,2.95 Q -0.5,3.2 -2.75,4.4 -5.2,5.75 -6.3,6.05 L -8.65,6.35 -10,6.15 q -1.85,-0.45 -3.35,-1.6 l -1.9,-2 -0.15,-0.15 -0.45,-0.6 -0.85,-1.5 -0.15,-0.45 -0.15,-0.7 -0.1,-1.4 q 0,-2.2 0.4,-3.95 l 0.25,-1 0.3,-0.95 0.2,-0.55 0.9,-1.6 v -0.05 l -1.6,1.55 -0.9,1.15 -0.25,0.4 q -1.65,2.55 -2.6,6.2 -0.75,3.25 -0.1,5.3 l 0.35,0.75 0.25,0.45 1.4,1.7 0.15,0.2 2.6,0.35 0.8,-0.15 3.6,-0.15 q 0.65,0.1 1.1,0.45 0.6,0.6 0.25,1.15 -0.2,0.4 -1.15,0.6 l -2.75,0.5 -2.85,0.5 -2.95,1 -0.2,0.2 q -0.7,0.7 -0.6,1.2 L -10.35,13.5 2.8,12.35 Q 9.85,11.1 15.15,8.3 16.9,7.35 18,7.05 L 18.2,5.8 Q 18.85,3.25 19,0.8 L 18.95,-2.4 18.6,-4.85 18.2,-6.6 M 9.1,-6.4 Q 8,-7.25 6.6,-7.1 5.5,-6.9 4.8,-6.05 L 4.4,-5.7 3.3,-3.95 2.85,-3.15 Q 2.5,-2.3 2.75,-1.35 3,-0.4 3.7,0.2 4.35,0.85 5.35,1 L 7.2,0.75 Q 8.8,0.05 9.25,-1.5 9.9,-2 10.1,-2.85 10.4,-3.55 10.3,-4.45 10.05,-5.6 9.1,-6.4 M -26.2,7.5 q -1.2,-2.5 -1.1,-6.25 0.15,-6.95 3.25,-11.75 2.8,-4.5 8.3,-7.65 3.7,-2.25 10.4,-4.55 4.6,-1.6 7.2,-1.95 5.85,-0.75 11.45,2.2 5.5,2.85 8.55,8.05 3,5.05 3.1,11.3 0.1,4.7 -1.45,9.05 l 0.25,1.55 -0.2,1.7 q -0.4,1.3 -1.6,2.2 l -0.65,0.45 q -0.75,0.75 -2.05,1.5 -6.05,3.55 -14.45,4.9 l -15.25,0.8 -8.9,-0.6 -1.15,-0.2 -0.65,0.05 q -1.8,0.05 -3.35,-0.85 -1.65,-0.9 -2.35,-2.45 -0.7,-1.65 -0.15,-3.45 0.55,-1.65 1.9,-2.4 L -26.2,7.5 m 13.55,-11.45 0.5,0.05 q 0.6,0.8 1.65,1.3 1.15,0.55 2.45,0.45 2.7,-0.15 4.35,-2.35 1.55,-2 1.55,-4.75 0.1,-1.05 -0.3,-1.95 -0.7,-1.45 -2.75,-2 -2.3,-0.7 -4.25,0.05 -2.1,0.7 -3.15,2.7 -0.7,1.45 -0.6,3.4 0.1,1.5 0.65,2.55 l -0.1,0.55"
         fill="#000000"
         fill-rule="evenodd"
         stroke="none"
         id="path1" />
      <path
         d="m -13.9,10.1 q 1.5,1.25 3.95,1.55 l 3.5,-0.2 q 3.6,0.25 7.1,-0.7 5.85,0 11,-2.95 1.95,-1.15 2.6,-2.35 l 0.7,-0.5 Q 17.9,2.65 18.2,-1.1 v -2.4 l -0.1,-1.9 0.1,-1.2 0.4,1.75 0.35,2.45 0.05,3.2 q -0.15,2.45 -0.8,5 L 18,7.05 Q 16.9,7.35 15.15,8.3 9.85,11.1 2.8,12.35 L -10.35,13.5 -20.5,13 q -0.1,-0.5 0.6,-1.2 l 0.2,-0.2 2.95,-1 2.85,-0.5"
         fill="#c9bebe"
         fill-rule="evenodd"
         stroke="none"
         id="path2" />
      <path
         d="m -13.9,10.1 2.75,-0.5 Q -10.2,9.4 -10,9 -9.65,8.45 -10.25,7.85 -10.7,7.5 -11.35,7.4 l -3.6,0.15 -0.8,0.15 -2.6,-0.35 -0.15,-0.2 -1.4,-1.7 L -20.15,5 -20.5,4.25 q -0.65,-2.05 0.1,-5.3 0.95,-3.65 2.6,-6.2 l 0.25,-0.4 0.9,-1.15 1.6,-1.55 v 0.05 l -0.9,1.6 -0.2,0.55 -0.3,0.95 -0.25,1 q -0.4,1.75 -0.4,3.95 l 0.1,1.4 0.15,0.7 0.15,0.45 0.85,1.5 0.45,0.6 0.15,0.15 1.9,2 q 1.5,1.15 3.35,1.6 l 1.35,0.2 2.35,-0.3 Q -5.2,5.75 -2.75,4.4 -0.5,3.2 0.9,2.95 l 1.7,-0.1 1.75,-0.1 q 4,-0.4 6.35,-3.4 l 0.2,-0.3 q 0.9,-1.1 1.4,-2.45 0.7,-1.95 0.55,-4.35 L 12.8,-8.45 Q 12.4,-12.6 9.65,-15.2 7.95,-16.8 5.3,-17.65 l -0.8,-0.2 2.45,0.25 q 2,0.4 3.95,1.55 3.65,2.1 5.75,5.85 0.95,1.7 1.55,3.6 l -0.1,1.2 0.1,1.9 v 2.4 q -0.3,3.75 -3.25,6.05 l -0.7,0.5 q -0.65,1.2 -2.6,2.35 -5.15,2.95 -11,2.95 -3.5,0.95 -7.1,0.7 l -3.5,0.2 q -2.45,-0.3 -3.95,-1.55 m 23,-16.5 q 0.95,0.8 1.2,1.95 0.1,0.9 -0.2,1.6 Q 9.9,-2 9.25,-1.5 8.8,0.05 7.2,0.75 L 5.35,1 Q 4.35,0.85 3.7,0.2 3,-0.4 2.75,-1.35 2.5,-2.3 2.85,-3.15 L 3.3,-3.95 4.4,-5.7 4.8,-6.05 Q 5.5,-6.9 6.6,-7.1 8,-7.25 9.1,-6.4 m -21.75,2.45 0.1,-0.55 q -0.55,-1.05 -0.65,-2.55 -0.1,-1.95 0.6,-3.4 1.05,-2 3.15,-2.7 1.95,-0.75 4.25,-0.05 2.05,0.55 2.75,2 0.4,0.9 0.3,1.95 0,2.75 -1.55,4.75 -1.65,2.2 -4.35,2.35 -1.3,0.1 -2.45,-0.45 -1.05,-0.5 -1.65,-1.3 l -0.5,-0.05"
         fill="#ffffff"
         fill-rule="evenodd"
         stroke="none"
         id="path3" />
    </g>
    <g
       id="sprite1"
       transform="translate(17.4,15.85)">
      <use
         ffdec:characterId="31"
         height="57.200001"
         transform="matrix(0.5366,0,0,0.5366,-16.6582,-14.546)"
         width="70.75"
         xlink:href="#sprite2"
         id="use3" />
    </g>
    <g
       id="sprite2"
       transform="translate(-8.65,-10.35)">
      <use
         ffdec:characterId="30"
         height="57.200001"
         transform="translate(8.65,10.35)"
         width="70.75"
         xlink:href="#shape1"
         id="use4" />
    </g>
    <g
       id="shape1"
       transform="translate(-8.65,-10.35)">
      <path
         d="m 14.8,41.7 q 0.65,-1.75 2.65,-2.5 1.8,-0.8 3.7,-0.25 1.15,0.45 2.25,1.2 l 0.9,0.4 q 1.65,0.9 2.85,2.5 L 37.8,30.1 q 2.35,-2.8 3.75,-3.95 1.5,-1.15 4.25,-2.4 18.2,-8.85 27.65,-12.6 2.15,-0.8 3.25,-0.8 h 0.8 l 1.9,2.4 -0.2,0.8 q -0.2,1.1 -1.55,3 -5.85,8.25 -18.85,23.8 -1.85,2.35 -3.35,3.5 -1.4,1.15 -4.75,2.75 l -15.15,7.15 q 1.2,1.6 1.75,3.4 l 0.2,1 0.55,2.5 q 0.1,1.95 -1.1,3.55 -1.2,1.65 -3.05,1.9 l -1.3,0.05 q -1.65,0.2 -3.45,-0.65 -1.85,-0.9 -3,-2.6 L 25,60.95 23.8,62.1 q -2.6,2.85 -4.3,3.95 -2.85,1.8 -5.5,1.45 l -1.65,-0.5 -1.2,-0.7 -0.2,-0.2 q -1,-0.85 -1.6,-1.9 L 9.25,64 9.15,63.8 8.75,62.4 q -0.2,-0.8 -0.05,-1.7 0.25,-2.65 2.7,-5.05 1.5,-1.3 4.9,-3.15 L 17.7,51.55 16.05,50 q -1.35,-1.5 -1.8,-3.6 -0.4,-1.85 0.25,-3.45 l 0.3,-1.25"
         fill="#000000"
         fill-opacity="0.372549"
         fill-rule="evenodd"
         stroke="none"
         id="path4" />
    </g>
  </defs>
</svg>
