<?xml version="1.0" encoding="UTF-8" standalone="no"?>
<svg
   ffdec:objectType="frame"
   height="77.743652"
   width="65.676773"
   version="1.1"
   id="svg7"
   xmlns:xlink="http://www.w3.org/1999/xlink"
   xmlns="http://www.w3.org/2000/svg"
   xmlns:svg="http://www.w3.org/2000/svg"
   xmlns:ffdec="https://www.free-decompiler.com/flash">
  <g
     transform="translate(34.424242,40.328)"
     id="g1">
    <use
       ffdec:characterId="17"
       height="119.15"
       id="rarity"
       transform="translate(-58.5,-60.65)"
       width="119.15"
       xlink:href="#sprite0" />
    <use
       ffdec:characterId="574"
       height="77.75"
       transform="translate(-34.4,-40.35)"
       width="65.650002"
       xlink:href="#shape0"
       id="use1" />
  </g>
  <defs
     id="defs7">
    <g
       id="shape0"
       transform="translate(34,39.55)">
      <path
         d="M 13.15,35 Q 4.2,39.3 -7.6,37.85 l -5.05,-0.95 q -3.35,-1 -7.65,-3.1 -4.95,-2.4 -7.1,-4.75 l -0.55,-0.7 -0.35,-0.45 q -2.6,-3.55 -2.95,-9.2 -0.3,-4.65 1.2,-9.2 2.1,-6.35 7.45,-11.15 2.95,-2.7 6.5,-4.5 l 3.5,-1.6 1.7,-0.6 0.7,-0.15 1.4,-0.45 h 0.1 l 2.25,-0.5 1.65,-0.2 h 0.1 l 2,-0.15 q 4.9,-0.3 10.05,1.1 l 1.8,0.55 q 4.9,1.5 9.45,4.4 l 0.3,0.2 q 3.5,2.3 5.2,4.6 1.8,2.5 2.75,5.9 1.2,4.3 0.9,8.5 -0.5,5.65 -4.05,10.7 Q 20.3,31 15.1,34 l -1.95,1 M -6.1,-4.05 l -1.8,0.5 -2.85,1 -0.5,0.2 q -4.95,2.1 -8.35,5.75 l -1.5,1.7 -0.5,0.65 q -2.1,2.85 -3.1,6.2 -1.05,3.45 -0.85,6.9 0.15,1.85 0.75,3.35 l 0.1,0.3 0.85,1.45 1.6,1.75 1.4,1.05 q 1.75,1.25 5.25,2.75 h 0.05 l 1.4,0.6 q 3.75,1.6 6.25,2 l 5.1,0.4 6.3,-0.3 q 5.8,-0.75 10.55,-4.05 5.6,-3.95 7.6,-9.8 1,-3.05 0.75,-6.25 L 22.3,10.7 Q 21.9,8.25 20.7,6.15 19.45,4 17.3,2.2 13.5,-1 6.9,-3 2.75,-4.25 -0.2,-4.45 l -0.35,-0.05 -3.1,0.1 -2.45,0.35"
         fill="#000000"
         fill-rule="evenodd"
         stroke="none"
         id="path1" />
      <path
         d="M 0.15,-0.05 Q 1.6,0.6 2.3,1.95 3.05,3.5 2.5,4.9 l -0.75,1.3 -1,1.2 q -0.85,1.05 -2.8,2.2 l -2.15,1.05 -4.1,0.55 -3.9,-0.4 q -1.45,-0.4 -2.6,-1.2 L -15.9,8.5 -16.35,7.15 Q -16.6,4.55 -14.7,2.65 -13.8,1.9 -11.9,1 l 2.5,-0.95 q 2.7,-0.85 5.35,-0.85 l 1.55,0.1 1.9,0.4 0.75,0.25"
         fill="#ffe0d3"
         fill-rule="evenodd"
         stroke="none"
         id="path2" />
      <path
         d="m -21.1,5.1 1.5,-1.7 q 3.4,-3.65 8.35,-5.75 l 0.5,-0.2 2.85,-1 1.8,-0.5 0.55,0.05 1.6,0.15 h 0.2 l 4.2,0.15 0.3,0.05 q 1.5,0.15 3.1,0.9 2.25,1.05 3.05,2.8 0.45,0.95 0.55,3.1 0,4.7 -1.6,7 Q 4.9,11.6 2.9,12.9 1.05,14.1 -1.15,14.75 l -8.15,0.85 -4.35,-0.25 q -2.7,-0.4 -4.75,-2 -2.2,-1.75 -2.8,-4.25 l -0.15,-0.75 q -0.2,-1.6 0.25,-3.25 M 0.15,-0.05 -0.6,-0.3 -2.5,-0.7 -4.05,-0.8 q -2.65,0 -5.35,0.85 L -11.9,1 q -1.9,0.9 -2.8,1.65 -1.9,1.9 -1.65,4.5 l 0.45,1.35 1.1,1.1 q 1.15,0.8 2.6,1.2 l 3.9,0.4 4.1,-0.55 2.15,-1.05 Q -0.1,8.45 0.75,7.4 L 1.75,6.2 2.5,4.9 Q 3.05,3.5 2.3,1.95 1.6,0.6 0.15,-0.05"
         fill="#d4ac9b"
         fill-rule="evenodd"
         stroke="none"
         id="path3" />
      <path
         d="m -21.1,5.1 q -0.45,1.65 -0.25,3.25 l 0.15,0.75 q 0.6,2.5 2.8,4.25 2.05,1.6 4.75,2 l 4.35,0.25 8.15,-0.85 q 2.2,-0.65 4.05,-1.85 2,-1.3 2.95,-2.75 1.6,-2.3 1.6,-7 Q 7.35,1 6.9,0.05 6.1,-1.7 3.85,-2.75 2.25,-3.5 0.75,-3.65 l -0.3,-0.05 -4.2,-0.15 h -0.2 L -5.55,-4 -6.1,-4.05 l 2.45,-0.35 3.1,-0.1 0.35,0.05 q 2.95,0.2 7.1,1.45 6.6,2 10.4,5.2 2.15,1.8 3.4,3.95 1.2,2.1 1.6,4.55 -1.1,3.2 -3.5,6 -3.2,3.85 -7.85,6.1 -7.75,3.75 -19.65,3.35 -10.15,-0.3 -16.1,-3.95 -0.6,-1.5 -0.75,-3.35 -0.2,-3.45 0.85,-6.9 1,-3.35 3.1,-6.2 l 0.5,-0.65"
         fill="#ba807a"
         fill-rule="evenodd"
         stroke="none"
         id="path4" />
      <path
         d="m 22.3,10.7 0.1,1.4 q 0.25,3.2 -0.75,6.25 -2,5.85 -7.6,9.8 Q 9.3,31.45 3.5,32.2 l -6.3,0.3 -5.1,-0.4 q -2.5,-0.4 -6.25,-2 l -1.4,-0.6 h -0.05 q -3.5,-1.5 -5.25,-2.75 l -1.4,-1.05 -1.6,-1.75 -0.85,-1.45 -0.1,-0.3 q 5.95,3.65 16.1,3.95 11.9,0.4 19.65,-3.35 4.65,-2.25 7.85,-6.1 2.4,-2.8 3.5,-6"
         fill="#99625c"
         fill-rule="evenodd"
         stroke="none"
         id="path5" />
      <path
         d="m -27.95,28.35 q -2.15,-1.3 -3.05,-2.65 -0.6,-0.8 -1.05,-2.3 l -0.1,-0.1 q -1.3,-3.05 -1.5,-6.6 l -0.3,-2.5 Q -34.3,10 -33,6.75 q 0.5,-1.35 2.15,-3.95 4.15,-6.35 7.85,-9.35 2.35,-1.9 4.85,-2.95 -1,-2.45 -0.55,-5.3 0.5,-3.5 2.75,-6.25 4.05,-4.95 11.75,-6.3 l 3.55,-0.8 q 1.95,-0.7 2.8,-2.1 1,-1.8 -0.05,-3.6 L 1,-35.15 -0.1,-36.4 q -0.5,-0.8 -0.45,-1.7 0,-1 0.75,-1.3 0.85,-0.4 2.3,0.45 l 0.75,0.45 q 1.65,-0.3 3.6,0.9 3,1.8 4.05,5.45 1.05,3.7 -0.75,6.65 -2.05,3.4 -7.15,4.8 -2.65,0.75 -3.5,1.4 -1.35,1.3 -1,3.4 0.35,2.05 1.9,3.3 1.3,1.05 3.4,1.6 l 3.8,0.55 h 0.1 q -0.3,-0.8 -0.35,-1.8 -0.1,-1.2 0.3,-3.8 L 8.2,-18.3 q 0.85,-2.05 3.15,-3.35 1.5,-0.9 4.25,-1.75 l 1.1,-0.5 q 0.5,-0.45 0.45,-1 l -0.75,-0.6 q -0.5,-0.35 -0.5,-0.7 0,-0.45 0.5,-0.6 l 0.75,0.05 q 1.45,0.45 1.85,2 0.2,1.1 -0.25,2 l -0.9,1.05 -1.05,1 -0.35,0.6 -0.8,1.65 q -0.75,1.85 -0.45,3.8 0.25,2 1.55,3.4 0.85,0.9 3.05,2.3 l 2.15,2.35 q 3.45,2.25 5.95,6.05 3.85,5.75 3.75,12.35 -0.05,6.45 -3.75,12.3 -3.6,5.75 -9.35,8.95 -2.9,1.65 -5.4,1.95 l 1.95,-1 q 5.2,-3 8.6,-7.85 3.55,-5.05 4.05,-10.7 0.3,-4.2 -0.9,-8.5 -0.95,-3.4 -2.75,-5.9 -1.7,-2.3 -5.2,-4.6 l -0.3,-0.2 q -4.55,-2.9 -9.45,-4.4 L 7.35,-8.7 Q 2.2,-10.1 -2.7,-9.8 l -2,0.15 h -0.1 l -1.65,0.2 -2.25,0.5 h -0.1 l -1.4,0.45 -0.7,0.15 -1.7,0.6 -3.5,1.6 q -3.55,1.8 -6.5,4.5 -5.35,4.8 -7.45,11.15 -1.5,4.55 -1.2,9.2 0.35,5.65 2.95,9.2 l 0.35,0.45 m 21.7,-49.25 -0.25,0.1 0.15,0.1 0.1,-0.2"
         fill="#ffffff"
         fill-opacity="0.498039"
         fill-rule="evenodd"
         stroke="none"
         id="path6" />
    </g>
    <g
       id="sprite1"
       transform="translate(17.4,15.85)">
      <use
         ffdec:characterId="31"
         height="57.200001"
         transform="matrix(0.5366,0,0,0.5366,-16.6582,-14.546)"
         width="70.75"
         xlink:href="#sprite2"
         id="use6" />
    </g>
    <g
       id="sprite2"
       transform="translate(-8.65,-10.35)">
      <use
         ffdec:characterId="30"
         height="57.200001"
         transform="translate(8.65,10.35)"
         width="70.75"
         xlink:href="#shape1"
         id="use7" />
    </g>
    <g
       id="shape1"
       transform="translate(-8.65,-10.35)">
      <path
         d="m 14.8,41.7 q 0.65,-1.75 2.65,-2.5 1.8,-0.8 3.7,-0.25 1.15,0.45 2.25,1.2 l 0.9,0.4 q 1.65,0.9 2.85,2.5 L 37.8,30.1 q 2.35,-2.8 3.75,-3.95 1.5,-1.15 4.25,-2.4 18.2,-8.85 27.65,-12.6 2.15,-0.8 3.25,-0.8 h 0.8 l 1.9,2.4 -0.2,0.8 q -0.2,1.1 -1.55,3 -5.85,8.25 -18.85,23.8 -1.85,2.35 -3.35,3.5 -1.4,1.15 -4.75,2.75 l -15.15,7.15 q 1.2,1.6 1.75,3.4 l 0.2,1 0.55,2.5 q 0.1,1.95 -1.1,3.55 -1.2,1.65 -3.05,1.9 l -1.3,0.05 q -1.65,0.2 -3.45,-0.65 -1.85,-0.9 -3,-2.6 L 25,60.95 23.8,62.1 q -2.6,2.85 -4.3,3.95 -2.85,1.8 -5.5,1.45 l -1.65,-0.5 -1.2,-0.7 -0.2,-0.2 q -1,-0.85 -1.6,-1.9 L 9.25,64 9.15,63.8 8.75,62.4 q -0.2,-0.8 -0.05,-1.7 0.25,-2.65 2.7,-5.05 1.5,-1.3 4.9,-3.15 L 17.7,51.55 16.05,50 q -1.35,-1.5 -1.8,-3.6 -0.4,-1.85 0.25,-3.45 l 0.3,-1.25"
         fill="#000000"
         fill-opacity="0.372549"
         fill-rule="evenodd"
         stroke="none"
         id="path7" />
    </g>
  </defs>
</svg>
