<?xml version="1.0" encoding="UTF-8" standalone="no"?>
<svg
   ffdec:objectType="frame"
   height="48.512779"
   width="97.160179"
   version="1.1"
   id="svg5"
   xmlns:xlink="http://www.w3.org/1999/xlink"
   xmlns="http://www.w3.org/2000/svg"
   xmlns:svg="http://www.w3.org/2000/svg"
   xmlns:ffdec="https://www.free-decompiler.com/flash">
  <g
     transform="translate(48.742,19.646296)"
     id="g1">
    <use
       ffdec:characterId="17"
       height="119.15"
       id="rarity"
       transform="translate(-58.5,-60.65)"
       width="119.15"
       xlink:href="#sprite0" />
    <use
       ffdec:characterId="803"
       height="48.5"
       transform="translate(-48.75,-19.65)"
       width="97.150002"
       xlink:href="#shape0"
       id="use1" />
  </g>
  <defs
     id="defs5">
    <g
       id="shape0"
       transform="translate(49.3,20.4)">
      <path
         d="m 5.65,-8.15 0.75,-0.2 3.6,-0.7 h 0.1 q 1.1,0.1 1.05,0.8 0,0.55 -0.85,0.85 -8.7,3.4 -18,3.85 l -4.15,0.15 -4.15,0.2 -1.05,0.15 q 2.6,-0.05 5.5,0.9 L -3.9,-1.8 1.35,-2 Q 6,-3.35 9.7,-4.8 l 5.05,-1.95 4.3,-1.2 5.9,-0.8 2.1,0.05 2.7,0.6 q 1,0.45 1,1.05 l -0.1,0.3 q -0.25,0.6 -1.45,0.35 l -2.5,-0.15 -1.3,0.05 q -2.65,0.15 -5.55,1.05 L 19.6,-5.35 18,-4.8 11.1,-1.9 5.5,0.55 5.3,0.6 Q 0,2.75 -3.75,3.75 l -2.5,0.6 -4.65,0.7 -3.1,0.2 -2.95,-0.1 -2.55,-0.3 -1,-0.2 q -4.7,-1 -7,-3.6 l -0.7,-1.25 -0.2,-0.25 -0.2,-0.4 -0.2,-1.1 q 0.2,-1.4 2.65,-2.65 l 3.5,-1.55 2.5,-0.7 7.8,-0.6 h 0.9 l 5.65,0.3 q 3.3,0.1 5.65,-0.05 l 5.8,-0.95 m 6.1,-3.6 q -2.75,0.2 -5.6,0 L 3.6,-12 0.95,-12.3 0.2,-12.35 l -10.9,-0.75 -1.55,-0.1 -0.9,-0.05 -5.35,0.2 q -1.6,0.35 -4,1.5 l -0.55,0.25 -0.1,0.05 -2.7,1.55 q -2.15,1.25 -4,2.7 l -2.2,1.8 q -3.1,2.8 -5.35,6.05 l -0.65,1 q -0.35,0.55 -0.3,0.95 0.05,0.55 1.05,1.05 l 2.3,1.1 1.35,0.7 q 2.1,1 4.2,2.15 l 1,0.55 3.6,1.95 h -2.35 l -3.55,-0.1 -1.7,-0.15 L -33.7,9.9 -36.05,9.4 -36.7,9.2 q -1.4,-0.45 -2.6,-1.05 l -0.15,-0.05 -0.6,0.35 q -1.7,0.9 -3,2.5 -1,1.3 -0.95,2.3 l 0.65,1.7 1.05,1.45 q 2.1,2.45 5.55,3.95 l 0.85,0.35 0.7,0.25 4.65,1.2 1,0.15 2.95,0.35 3.6,0.3 q 6.05,0.3 12.55,-0.05 l 10.7,-1.05 6,-0.9 3.9,-0.75 9.75,-1.8 1.7,-0.2 1.6,-0.35 2.9,-0.35 4.05,0.1 0.3,0.05 3.5,0.5 3.05,-0.25 0.6,-0.25 1.55,-0.95 q 1.05,-0.95 1.9,-2.45 l 0.8,-1.55 Q 42.7,10.55 42.9,8.15 L 43,6.7 Q 43,4.2 42.3,1.75 l -0.25,-0.8 q -0.5,-1.5 -1.3,-2.4 L 40.15,-2.1 40,-1.85 Q 38.9,0.25 36.95,2 l -1.2,1.5 -3.6,2.45 H 32.1 l -3.25,1.4 -4.2,1.5 -1.7,0.5 -6.7,2.15 -1.4,0.55 -1.1,0.4 -0.3,-0.25 v -0.4 l 0.6,-0.55 1.2,-0.7 2.95,-1.85 1.9,-1.05 2,-0.8 0.7,-0.2 4.5,-2.15 q 4.25,-2.25 6.85,-4.95 1.4,-1.45 2.1,-2.9 1.55,-3.1 0.6,-7 l -0.1,-0.25 q -0.75,-2.65 -2.2,-4.1 -0.85,-0.85 -2,-1.3 l -1.75,-0.35 -4.25,0.5 -2.5,0.55 -2.6,1.15 q -4.7,1.95 -9.7,2.4 M -42,-1.25 q 2.05,-3.45 5,-6.4 3.2,-3.3 8.3,-6.55 5.3,-3.4 9.45,-4.05 2.55,-0.4 6.9,-0.1 l 9.05,0.7 8.85,1.3 q 5.1,0.6 8.8,0.1 2.7,-0.35 6.95,-1.75 l 6.85,-2.1 2.55,-0.25 q 2.75,-0.25 4.95,0.85 2.4,1.2 3.9,3.9 1.5,2.75 1.75,6.25 0.15,1.85 -0.05,3.45 l 1.25,0.35 q 3.4,1.65 4.7,6.85 1.05,4.1 0.45,8.2 -0.65,4.25 -2.85,7.65 -2.4,3.75 -5.75,5 l -6.65,0.45 -3.1,-0.3 -3.95,0.25 q -3.6,0.25 -8.6,1.25 L 8.2,25.65 Q -8.6,29 -26,27.8 -31.5,27.45 -35.25,26.45 -40.2,25.1 -43.5,22.4 l -3.3,-3.35 q -1.6,-1.8 -2.1,-3.1 -0.7,-1.7 -0.15,-3.7 0.45,-1.85 1.8,-3.4 1.55,-1.75 4.65,-3.2 -0.6,-0.85 -0.8,-1.8 -0.45,-2.05 1.4,-5.1 m 60.8,5 -0.5,0.4 -4.45,3.4 -3,2.2 L 10,10.4 7.8,11.9 6.45,12.75 Q 2.9,15 -0.2,16.2 q -3.75,1.5 -7.9,2.1 l -5.05,0.35 q -6.6,0.05 -13.1,-2.1 -1.9,-0.7 -2.7,-1.45 3,-1.35 7.35,-1.2 l 3,0.3 4.45,0.35 L -7.2,14.3 -6.95,14.25 -6,14.1 -1.9,13.05 Q 2.4,11.7 8.05,8.3 L 11.15,6.45 17,2.85 17.55,2.5 18.2,2.15 20.6,1 q 0.85,-0.25 1,0.2 0.15,0.4 -0.45,0.75 l -2.35,1.8"
         fill="#000000"
         fill-rule="evenodd"
         stroke="none"
         id="path1" />
      <path
         d="m -12.35,-7.45 -7.8,0.6 -2.5,0.7 L -23,-6.6 q -0.6,-0.8 -0.6,-1.95 0,-1.1 0.5,-2.05 l 0.4,-0.65 0.2,-0.3 q 2.4,-1.15 4,-1.5 l 5.35,-0.2 0.9,0.05 0.25,0.4 q 0.55,1 0.45,2.35 -0.05,1.15 -0.55,2.35 l -0.25,0.65 m -8.15,12.1 1,0.2 2.55,0.3 2.95,0.1 3.1,-0.2 q 0.15,0.5 0.15,1.25 l -0.1,1.9 -0.05,0.55 -0.05,0.25 -0.45,0.95 q -0.95,1.6 -1.75,2.05 l -1.7,0.4 -1.3,-0.2 Q -17.1,11.85 -17.5,10.75 L -17.8,8.9 Q -18.85,9.05 -19.6,8.6 -20.45,8.15 -20.75,7.1 -21,6.15 -20.7,5.15 l 0.2,-0.5 m 26,-4.1 5.6,-2.45 6.9,-2.9 1.6,-0.55 0.45,0.45 q 0.85,1.05 0.7,2.3 v 0.15 L 20.7,-2.3 q -0.35,1.65 -2.35,3.15 L 17.75,1.3 18.2,2.15 17.55,2.5 17,2.85 11.15,6.45 10.7,6.05 Q 10.05,5.3 10.05,4.35 H 9.3 L 8.55,4.25 Q 6.2,3.7 5.6,1.8 L 5.5,0.65 v -0.1 m 21.2,-7.1 2.5,0.15 q 1.2,0.25 1.45,-0.35 l 0.1,-0.3 0.45,0.1 0.6,0.45 q 1.1,1.1 0.85,2.5 -0.25,1.6 -1.6,2.05 l -0.85,0.3 -0.95,0.35 -0.8,0.1 q -0.8,0 -1.5,-0.4 -0.8,-0.4 -1.2,-1.35 -0.55,-1.2 0.05,-2.45 0.3,-0.75 0.9,-1.15 m -5.25,-7.6 2.6,-1.15 2.5,-0.55 4.25,-0.5 1.75,0.35 q 1.15,0.45 2,1.3 1.45,1.45 2.2,4.1 l 0.1,0.25 -1.05,0.1 q -2.6,0 -4.1,-1.9 l -0.4,-0.5 -1.75,0.65 -0.9,0.3 q -2.9,0.9 -4.75,0.6 -0.95,-0.15 -1.55,-0.65 l -0.2,-0.15 q -0.55,-0.5 -0.7,-1.35 v -0.9 m -6.6,26.2 1.4,-0.55 6.7,-2.15 1.7,-0.5 4.2,-1.5 0.75,1.15 q 0.4,1 0.05,2.2 -0.35,1.05 -1.2,1.9 l -0.65,0.55 -0.3,0.25 0.15,1.35 q -0.15,1.75 -1.5,2.7 L 26.1,17.5 23.2,17.85 23.1,17.8 q -0.75,-0.3 -1.25,-1 L 21.4,15.85 21.1,15.9 17.25,16.15 16,15.6 15.5,15.25 q -0.8,-0.75 -0.9,-1.7 -0.1,-0.75 0.25,-1.5 m 27.2,-11.1 0.25,0.8 Q 43,4.2 43,6.7 L 42.4,7 41,7.65 l -0.6,0.4 -0.15,0.1 q -0.5,0.35 -1.1,1.45 l -0.6,0.95 q -0.6,0.75 -1.7,0.85 h -0.6 L 35.3,11.1 35.05,10.95 Q 34.2,10.4 33.9,9.55 33.5,8.4 34,7.25 L 34.7,5.85 34.8,5.6 Q 36.1,3.6 36.95,2.75 38.3,1.3 39.9,0.8 l 1.4,-0.15 0.75,0.3 M 37,17.9 l -3.05,0.25 -3.5,-0.5 0.15,-0.75 q 0.2,-1 0.35,-1.25 0.55,-1.3 1.9,-1.6 1.45,-0.35 2.4,0.7 l 1.05,1.1 0.65,1.6 0.05,0.45 m -47.45,5 q -6.5,0.35 -12.55,0.05 l 0.2,-0.4 q 0.65,-1.05 1.9,-1.7 1.1,-0.55 2.5,-0.8 2.9,-0.65 5.35,0.05 1.15,0.3 1.7,0.85 1,0.85 0.9,1.95 m -19.1,-0.6 -1,-0.15 -4.65,-1.2 -0.7,-0.25 -0.85,-0.35 1.05,-0.85 0.6,-0.4 0.95,-0.65 q 1.75,-1.05 3.75,-0.7 l 0.2,0.05 q 0.7,0.2 1.15,0.55 0.85,0.75 0.75,2.05 l -0.15,0.7 q -0.25,0.7 -1.1,1.2 M -39.3,8.15 q 1.2,0.6 2.6,1.05 l 0.65,0.2 2.35,0.5 1.25,0.15 1.7,0.15 3.55,0.1 0.1,0.85 v 0.2 q 0,1.3 -0.95,2.1 -0.95,0.85 -2.6,0.65 l -0.75,-0.15 -0.1,0.15 -1,0.95 q -1.3,1.1 -2.5,1.5 l -1.6,0.25 h -0.75 l -1.35,-0.25 q -0.65,-0.2 -1.5,-1.05 l -0.55,-0.65 -0.3,-0.45 q -0.3,-0.65 -0.2,-2.45 l 0.2,-1.05 0.75,-1.5 1,-1.25 m 10.85,0.2 -1,-0.55 h 0.05 l 0.95,0.55 m -5.2,-2.7 -1.35,-0.7 -2.3,-1.1 q -1,-0.5 -1.05,-1.05 -0.05,-0.4 0.3,-0.95 l 0.65,-1 h 0.45 q 1.55,0.1 2.6,0.85 1.25,0.95 1.3,2.3 l -0.1,0.7 -0.3,0.6 -0.2,0.35 M -29.85,-7 q 1.85,-1.45 4,-2.7 l 0.15,0.2 q 0.55,0.8 0.4,1.75 -0.15,0.9 -0.95,1.5 -0.85,0.6 -1.75,0.5 -1.1,-0.15 -1.75,-1.05 L -29.85,-7 M 18.3,4.15 18.2,4.35 17.25,5.8 Q 16.3,6.85 15.2,7.25 l -1.35,0.3 4.45,-3.4 m -11.85,8.6 q 0.6,0.8 0.25,2.05 -0.25,0.95 -1.4,2.15 L 4.75,17.5 q -1.5,1.45 -2.9,1.95 L -0.2,20 -0.65,20.05 -2.15,20.25 -4.45,20.2 -6.1,19.85 -7.55,18.9 -8.1,18.3 q 4.15,-0.6 7.9,-2.1 3.1,-1.2 6.65,-3.45"
         fill="#434f3f"
         fill-rule="evenodd"
         stroke="none"
         id="path2" />
      <path
         d="M 10.1,-9.05 H 10 l -3.6,0.7 -0.75,0.2 -0.3,-0.1 Q 3.9,-8.9 3.55,-10.25 3.3,-11.15 3.6,-12 l 2.55,0.25 q 2.85,0.2 5.6,0 l -0.05,0.4 q -0.25,1.3 -1.4,2.15 l -0.2,0.15 m -32.75,2.9 -3.5,1.55 q -2.45,1.25 -2.65,2.65 l 0.2,1.1 q -1.1,0.1 -2,-0.35 -1.15,-0.55 -1.55,-1.85 -0.3,-1.1 0.1,-2.15 l 2.2,-1.8 0.1,0.2 q 0.65,0.9 1.75,1.05 0.9,0.1 1.75,-0.5 0.8,-0.6 0.95,-1.5 0.15,-0.95 -0.4,-1.75 l -0.15,-0.2 2.7,-1.55 0.1,-0.05 0.35,0.05 -0.4,0.65 q -0.5,0.95 -0.5,2.05 0,1.15 0.6,1.95 l 0.35,0.45 m 16.4,10.5 2.5,-0.6 Q 0,2.75 5.3,0.6 L 5.5,0.65 5.6,1.8 Q 6.2,3.7 8.55,4.25 L 9.3,4.35 8.9,5 Q 8.15,5.95 5.85,6.25 L 0.2,7 Q -2.15,7.3 -3.25,7.05 -5.25,6.6 -6,5.15 l -0.25,-0.8 m 25.85,-9.7 0.25,-0.1 q 2.9,-0.9 5.55,-1.05 l -1,1.45 q -1.3,1.85 -2.1,2.25 -0.75,0.4 -1.55,0.35 V -2.6 q 0.15,-1.25 -0.7,-2.3 L 19.6,-5.35 m 7.45,-3.35 -2.1,-0.05 -5.9,0.8 1.95,-2.75 1.15,-1.2 0.2,0.15 q 0.6,0.5 1.55,0.65 1.85,0.3 4.75,-0.6 l -0.4,1.15 -1.2,1.85 M 0.2,-12.35 0,-12 q -0.7,1.1 -2.55,1.65 l -2.7,0.7 -2.2,-0.25 -1.6,-0.35 q -1.4,-0.65 -1.65,-2.05 v -0.8 l 10.9,0.75 m 15.05,22.9 -1.2,0.7 -0.6,0.55 v 0.4 l 0.3,0.25 1.1,-0.4 q -0.35,0.75 -0.25,1.5 0.1,0.95 0.9,1.7 l 0.5,0.35 -0.85,1.25 q -1.35,1.85 -2.35,2.3 l -1.45,0.4 -0.95,0.15 q -1.6,0 -2.7,-1.35 -1,-1.2 -0.9,-2.9 0,-0.75 0.15,-1.5 0.2,-1 0.35,-1.25 L 7.8,11.9 10,10.4 q 1.95,-0.85 4.1,-0.3 0.65,0.1 1.15,0.45 m 13.6,-3.2 3.25,-1.4 h 0.05 L 34.7,5.85 34,7.25 q -0.5,1.15 -0.1,2.3 0.3,0.85 1.15,1.4 l 0.25,0.15 h -0.05 l -2,0.7 -4.9,1.25 -0.55,0.1 0.65,-0.55 Q 29.3,11.75 29.65,10.7 30,9.5 29.6,8.5 L 28.85,7.35 m 13,5.35 -0.8,1.55 q -0.85,1.5 -1.9,2.45 l -1.2,-1.05 q -0.6,-0.8 -1.35,-3 L 36.25,11.4 h 0.6 q 1.1,-0.1 1.7,-0.85 l 0.6,-0.95 q 0.6,-1.1 1.1,-1.45 l 0.15,-0.1 0.25,0.4 0.4,1.15 0.8,3.1 m -35.6,8.25 -6,0.9 -0.7,-1.05 -0.2,-0.75 L -0.2,20 1.85,19.45 q 1.4,-0.5 2.9,-1.95 l 0.15,0.15 0.45,0.55 0.6,0.85 Q 6.4,20 6.25,20.95 M -42.3,16.4 -43.35,14.95 -44,13.25 q -0.05,-1 0.95,-2.3 1.3,-1.6 3,-2.5 l 0.6,-0.35 0.15,0.05 -1,1.25 -0.75,1.5 -0.2,1.05 q -0.1,1.8 0.2,2.45 l 0.3,0.45 -0.75,0.85 -0.8,0.7 m 15.1,-6.1 h 2.35 L -28.45,8.35 -29.4,7.8 h -0.05 q -2.1,-1.15 -4.2,-2.15 l 0.2,-0.35 0.3,-0.6 h 0.6 l 1.9,0.05 q 3.65,0 5.3,0.95 0.85,0.55 1.45,1.3 0.85,1.05 0.8,2.2 -0.1,1.4 -1.3,2.05 -1.2,0.65 -2.45,0 l -0.25,-0.1 -0.1,-0.85 M 20.7,-2.3 h 0.35 l 1.2,0.2 0.75,0.45 0.75,0.8 0.35,1.55 q 0,1.25 -0.75,2 -0.4,0.4 -1.5,0.8 l -0.95,0.25 -1,-0.1 -0.75,0.1 H 18.8 l 2.35,-1.8 Q 21.75,1.6 21.6,1.2 21.45,0.75 20.6,1 L 18.2,2.15 17.75,1.3 18.35,0.85 q 2,-1.5 2.35,-3.15 M -7.2,14.3 -14.15,14.55 -18.6,14.2 -18.75,13 q 0.1,-1.45 1.25,-2.25 0.4,1.1 1.35,1.45 l 1.3,0.2 1.7,-0.4 q 0.8,-0.45 1.75,-2.05 L -10.95,9 -10.9,8.75 h 0.5 q 1.7,0 2.45,0.35 1.4,0.55 1.8,2.05 0.35,1.55 -0.6,2.7 L -7.2,14.3 m -24.3,-0.2 0.55,1.35 0.4,1.5 0.15,0.8 q -2,-0.35 -3.75,0.7 l -0.95,0.65 -0.6,0.4 -0.65,-1.95 -0.25,-0.75 1.6,-0.25 q 1.2,-0.4 2.5,-1.5 l 1,-0.95"
         fill="#666d64"
         fill-rule="evenodd"
         stroke="none"
         id="path3" />
      <path
         d="m 10.1,-9.05 0.2,-0.15 q 1.15,-0.85 1.4,-2.15 l 0.05,-0.4 q 5,-0.45 9.7,-2.4 v 0.9 q 0.15,0.85 0.7,1.35 l -1.15,1.2 -1.95,2.75 -4.3,1.2 L 9.7,-4.8 Q 6,-3.35 1.35,-2 l -5.25,0.2 -7.65,-0.35 q -2.9,-0.95 -5.5,-0.9 l 1.05,-0.15 4.15,-0.2 4.15,-0.15 q 9.3,-0.45 18,-3.85 0.85,-0.3 0.85,-0.85 0.05,-0.7 -1.05,-0.8 M 3.6,-12 q -0.3,0.85 -0.05,1.75 0.35,1.35 1.8,2 l 0.3,0.1 -5.8,0.95 q -2.35,0.15 -5.65,0.05 l -5.65,-0.3 h -0.9 l 0.25,-0.65 q 0.5,-1.2 0.55,-2.35 0.1,-1.35 -0.45,-2.35 l -0.25,-0.4 1.55,0.1 v 0.8 q 0.25,1.4 1.65,2.05 l 1.6,0.35 2.2,0.25 2.7,-0.7 Q -0.7,-10.9 0,-12 l 0.2,-0.35 0.75,0.05 2.65,0.3 m -32.2,11.15 0.2,0.4 0.2,0.25 0.7,1.25 q 2.3,2.6 7,3.6 l -0.2,0.5 q -0.3,1 -0.05,1.95 0.3,1.05 1.15,1.5 0.75,0.45 1.8,0.3 l 0.3,1.85 q -1.15,0.8 -1.25,2.25 l 0.15,1.2 -3,-0.3 q -4.35,-0.15 -7.35,1.2 0.8,0.75 2.7,1.45 6.5,2.15 13.1,2.1 l 5.05,-0.35 0.55,0.6 1.45,0.95 1.65,0.35 2.3,0.05 1.5,-0.2 0.2,0.75 0.7,1.05 -10.7,1.05 q 0.1,-1.1 -0.9,-1.95 -0.55,-0.55 -1.7,-0.85 -2.45,-0.7 -5.35,-0.05 -1.4,0.25 -2.5,0.8 -1.25,0.65 -1.9,1.7 l -0.2,0.4 -3.6,-0.3 -2.95,-0.35 q 0.85,-0.5 1.1,-1.2 l 0.15,-0.7 q 0.1,-1.3 -0.75,-2.05 Q -29.5,18 -30.2,17.8 l -0.2,-0.05 -0.15,-0.8 -0.4,-1.5 -0.55,-1.35 0.1,-0.15 0.75,0.15 q 1.65,0.2 2.6,-0.65 0.95,-0.8 0.95,-2.1 v -0.2 l 0.25,0.1 q 1.25,0.65 2.45,0 1.2,-0.65 1.3,-2.05 Q -23.05,8.05 -23.9,7 -24.5,6.25 -25.35,5.7 -27,4.75 -30.65,4.75 l -1.9,-0.05 h -0.6 l 0.1,-0.7 q -0.05,-1.35 -1.3,-2.3 -1.05,-0.75 -2.6,-0.85 h -0.45 q 2.25,-3.25 5.35,-6.05 -0.4,1.05 -0.1,2.15 0.4,1.3 1.55,1.85 0.9,0.45 2,0.35 m 17.7,5.9 4.65,-0.7 0.25,0.8 Q -5.25,6.6 -3.25,7.05 -2.15,7.3 0.2,7 L 5.85,6.25 Q 8.15,5.95 8.9,5 L 9.3,4.35 h 0.75 q 0,0.95 0.65,1.7 l 0.45,0.4 -3.1,1.85 Q 2.4,11.7 -1.9,13.05 L -6,14.1 -6.95,14.25 -7.2,14.3 -6.75,13.85 Q -5.8,12.7 -6.15,11.15 -6.55,9.65 -7.95,9.1 -8.7,8.75 -10.4,8.75 h -0.5 l 0.05,-0.55 0.1,-1.9 q 0,-0.75 -0.15,-1.25 M 25.4,-6.5 26.7,-6.55 q -0.6,0.4 -0.9,1.15 -0.6,1.25 -0.05,2.45 0.4,0.95 1.2,1.35 0.7,0.4 1.5,0.4 l 0.8,-0.1 0.95,-0.35 0.85,-0.3 Q 32.4,-2.4 32.65,-4 32.9,-5.4 31.8,-6.5 l -0.6,-0.45 -0.45,-0.1 q 0,-0.6 -1,-1.05 l -2.7,-0.6 1.2,-1.85 0.4,-1.15 0.9,-0.3 1.75,-0.65 0.4,0.5 q 1.5,1.9 4.1,1.9 l 1.05,-0.1 q 0.95,3.9 -0.6,7 -0.7,1.45 -2.1,2.9 -2.6,2.7 -6.85,4.95 l -4.5,2.15 -0.7,0.2 -2,0.8 -1.9,1.05 -2.95,1.85 Q 14.75,10.2 14.1,10.1 11.95,9.55 10,10.4 l 0.85,-0.65 3,-2.2 1.35,-0.3 q 1.1,-0.4 2.05,-1.45 l 0.95,-1.45 0.1,-0.2 0.5,-0.4 h 0.35 l 0.75,-0.1 1,0.1 0.95,-0.25 q 1.1,-0.4 1.5,-0.8 0.75,-0.75 0.75,-2 L 23.75,-0.85 23,-1.65 22.25,-2.1 21.05,-2.3 H 20.7 l 0.05,-0.15 q 0.8,0.05 1.55,-0.35 0.8,-0.4 2.1,-2.25 l 1,-1.45 M 32.15,5.95 35.75,3.5 36.95,2 Q 38.9,0.25 40,-1.85 l 0.15,-0.25 0.6,0.65 q 0.8,0.9 1.3,2.4 L 41.3,0.65 39.9,0.8 Q 38.3,1.3 36.95,2.75 36.1,3.6 34.8,5.6 l -0.1,0.25 -2.55,0.1 M 43,6.7 42.9,8.15 q -0.2,2.4 -1.05,4.55 L 41.05,9.6 40.65,8.45 40.4,8.05 41,7.65 42.4,7 43,6.7 m -3.85,10 -1.55,0.95 -0.6,0.25 -0.05,-0.45 -0.65,-1.6 -1.05,-1.1 q -0.95,-1.05 -2.4,-0.7 -1.35,0.3 -1.9,1.6 -0.15,0.25 -0.35,1.25 l -0.15,0.75 -0.3,-0.05 -4.05,-0.1 0.05,-0.05 q 1.35,-0.95 1.5,-2.7 l -0.15,-1.35 0.3,-0.25 0.55,-0.1 4.9,-1.25 2,-0.7 h 0.05 l 0.95,0.3 0.35,1.25 q 0.75,2.2 1.35,3 l 1.2,1.05 m -15.95,1.15 -1.6,0.35 -1.7,0.2 -9.75,1.8 -3.9,0.75 Q 6.4,20 5.95,19.05 L 5.35,18.2 4.9,17.65 4.75,17.5 5.3,16.95 Q 6.45,15.75 6.7,14.8 7.05,13.55 6.45,12.75 L 7.8,11.9 7.3,12.7 q -0.15,0.25 -0.35,1.25 -0.15,0.75 -0.15,1.5 -0.1,1.7 0.9,2.9 1.1,1.35 2.7,1.35 l 0.95,-0.15 1.45,-0.4 q 1,-0.45 2.35,-2.3 L 16,15.6 l 1.25,0.55 3.85,-0.25 0.3,-0.05 0.45,0.95 q 0.5,0.7 1.25,1 l 0.1,0.05 m -59.95,2.5 q -3.45,-1.5 -5.55,-3.95 l 0.8,-0.7 0.75,-0.85 0.55,0.65 q 0.85,0.85 1.5,1.05 l 1.35,0.25 h 0.75 l 0.25,0.75 0.65,1.95 -1.05,0.85"
         fill="#697f61"
         fill-rule="evenodd"
         stroke="none"
         id="path4" />
    </g>
    <g
       id="sprite1"
       transform="translate(17.4,15.85)">
      <use
         ffdec:characterId="31"
         height="57.200001"
         transform="matrix(0.5366,0,0,0.5366,-16.6582,-14.546)"
         width="70.75"
         xlink:href="#sprite2"
         id="use4" />
    </g>
    <g
       id="sprite2"
       transform="translate(-8.65,-10.35)">
      <use
         ffdec:characterId="30"
         height="57.200001"
         transform="translate(8.65,10.35)"
         width="70.75"
         xlink:href="#shape1"
         id="use5" />
    </g>
    <g
       id="shape1"
       transform="translate(-8.65,-10.35)">
      <path
         d="m 14.8,41.7 q 0.65,-1.75 2.65,-2.5 1.8,-0.8 3.7,-0.25 1.15,0.45 2.25,1.2 l 0.9,0.4 q 1.65,0.9 2.85,2.5 L 37.8,30.1 q 2.35,-2.8 3.75,-3.95 1.5,-1.15 4.25,-2.4 18.2,-8.85 27.65,-12.6 2.15,-0.8 3.25,-0.8 h 0.8 l 1.9,2.4 -0.2,0.8 q -0.2,1.1 -1.55,3 -5.85,8.25 -18.85,23.8 -1.85,2.35 -3.35,3.5 -1.4,1.15 -4.75,2.75 l -15.15,7.15 q 1.2,1.6 1.75,3.4 l 0.2,1 0.55,2.5 q 0.1,1.95 -1.1,3.55 -1.2,1.65 -3.05,1.9 l -1.3,0.05 q -1.65,0.2 -3.45,-0.65 -1.85,-0.9 -3,-2.6 L 25,60.95 23.8,62.1 q -2.6,2.85 -4.3,3.95 -2.85,1.8 -5.5,1.45 l -1.65,-0.5 -1.2,-0.7 -0.2,-0.2 q -1,-0.85 -1.6,-1.9 L 9.25,64 9.15,63.8 8.75,62.4 q -0.2,-0.8 -0.05,-1.7 0.25,-2.65 2.7,-5.05 1.5,-1.3 4.9,-3.15 L 17.7,51.55 16.05,50 q -1.35,-1.5 -1.8,-3.6 -0.4,-1.85 0.25,-3.45 l 0.3,-1.25"
         fill="#000000"
         fill-opacity="0.372549"
         fill-rule="evenodd"
         stroke="none"
         id="path5" />
    </g>
  </defs>
</svg>
