<?xml version="1.0" encoding="UTF-8" standalone="no"?>
<svg
   ffdec:objectType="frame"
   height="51.549999"
   width="88.477531"
   version="1.1"
   id="svg3"
   xmlns:xlink="http://www.w3.org/1999/xlink"
   xmlns="http://www.w3.org/2000/svg"
   xmlns:svg="http://www.w3.org/2000/svg"
   xmlns:ffdec="https://www.free-decompiler.com/flash">
  <g
     transform="translate(43.172013,28.5)"
     id="g1">
    <use
       ffdec:characterId="17"
       height="119.15"
       id="rarity"
       transform="translate(-58.5,-60.65)"
       width="119.15"
       xlink:href="#sprite0" />
    <use
       ffdec:characterId="1191"
       height="51.549999"
       transform="translate(-43.15,-28.5)"
       width="88.449997"
       xlink:href="#shape0"
       id="use1" />
  </g>
  <defs
     id="defs3">
    <g
       id="shape0"
       transform="translate(41.85,26.6)">
      <path
         d="m 35.45,-21.8 q 4.45,0 7.05,3.1 v -0.4 q -0.25,-2.05 -0.9,-4.1 -0.55,-1.55 -0.45,-3.1 l 0.2,-0.15 0.35,-0.15 0.3,0.15 0.2,0.15 1,0.8 0.55,0.3 q 4.55,5.3 1.85,11.85 L 44.8,-12 q -0.6,9.1 -9.6,12.75 l -2.35,0.8 q 4.6,1.8 8.75,-2 0.9,-0.85 1.45,-2 l 0.45,-0.25 0.25,-0.1 0.45,0.15 0.25,0.15 0.1,0.15 0.05,0.15 0.05,0.2 Q 44.6,-1.2 44.1,-0.5 L 43.85,0.1 Q 39.7,7.1 31.65,5.85 27.65,5.25 27,2.1 L 23.25,1.45 q -6.4,-1.75 -9.5,3.9 l -1.65,2.3 0.15,1.05 q 2.6,2.8 6.55,1.95 l 0.15,0.2 0.1,0.15 0.1,0.35 V 11.5 L 19.1,11.65 18.95,12 Q 12.8,15.5 8.5,10.2 L 8.3,9.9 Q 5,11 1.4,10.45 -3.4,9.7 -7.7,7.5 L -8.65,6.95 q -4.8,-0.4 -8.3,2.45 1.4,1.75 1.45,4.45 0.15,6 -5.4,7.8 l -1.15,-0.2 -0.45,-0.3 -0.1,-0.2 -0.05,-0.15 -0.05,-0.15 v -0.2 l 0.05,-0.15 0.05,-0.15 0.05,-0.15 q 1.65,-0.9 2.1,-2.6 l 0.4,-2.15 V 15.1 l -0.05,-0.35 v -0.3 -0.2 l -0.65,-0.95 q -3.1,2.7 -7.35,3.4 l -4.65,-0.25 -2.25,-0.9 -0.8,0.55 -0.8,0.65 q -1.05,2.65 0.65,4.65 l 2.05,2.4 v 0.15 0.15 l -0.1,0.35 -0.15,0.15 -0.25,0.15 -0.35,0.15 -0.1,0.05 q -6.95,-1.85 -5.9,-8.7 0.4,-2.6 2.05,-4.15 l -0.9,-1.65 Q -40.25,9 -40.4,7.4 -40.55,5.85 -39.95,4.45 l 0.7,-2.3 -0.9,-0.95 q -3.7,-4.85 0.55,-9.65 1.6,-1.8 3.9,-2.25 l 0.5,0.3 0.1,0.15 0.05,0.15 v 0.35 l -0.05,0.15 -1.65,1.65 -0.25,0.65 -0.1,0.15 -0.1,0.2 -0.25,0.95 -0.15,0.65 0.25,1 0.1,0.65 0.75,0.5 q 2.95,-4.05 8.05,-6.6 1.7,-0.85 3.45,-1.2 l 1.35,-0.45 q 1.55,-0.4 2.9,-1.25 l 2.05,-1.05 0.35,-0.6 0.4,-0.5 0.2,-0.5 0.2,-0.5 -0.05,-0.3 0.1,-0.5 0.35,-0.25 0.25,-0.1 h 0.15 l 0.35,0.1 q 1.25,2.45 -0.1,4.95 l -1,1.6 1.3,0.6 q 2.55,-0.85 4.6,-2.5 l 2.55,-2.4 0.55,-0.35 h 0.25 l 0.4,0.1 0.2,0.15 0.2,0.15 0.2,0.35 0.1,0.3 v 0.35 L -8,-11.5 q -1.3,2.8 -4.15,4.05 -3.45,2.9 -7.85,1.9 l -4,0.3 q -5.55,2.05 -8.85,7 l -0.35,0.8 q -0.7,1.25 -0.85,2.65 v 0.25 q 2.5,0.1 4.8,-1.7 1.1,-0.9 2.5,-1.25 l 1.9,-0.2 q 3.15,0.15 5.4,1.85 1.55,-1.2 3.3,-2.25 1.4,-0.9 3.05,-1.2 l 1.85,-0.25 q 0.25,-1.9 2,-3.4 2.9,-2.5 6.55,-3.3 l 0.85,0.15 0.35,0.1 0.3,0.35 0.2,0.3 v 0.15 l -0.15,0.35 -0.5,0.35 H -1.7 l -0.45,-0.1 -2.15,1.1 -0.45,0.5 -0.45,0.35 -1.2,1.75 -0.3,1.35 0.2,0.5 q 1.9,0.65 3.65,2 l 0.6,0.3 L 6.7,4.35 7,4.2 7.3,4.05 q 2.75,-5.75 8.25,-8 -2.35,-1.3 -5.25,-0.35 -1.95,0.65 -3.4,2 L 6.8,-2.25 6.5,-2.1 6.15,-1.85 h -0.2 q -0.2,0 -0.3,-0.1 l -0.2,-0.3 q 1.8,-3.85 5.7,-5.85 2,-1 4.2,-0.85 4.45,0.6 6.2,3.8 l 1.75,0.2 5.6,1.25 q 3.95,-0.3 6.8,-2.65 -2.35,-0.85 -3.5,-3.15 -0.8,-1.55 -0.9,-3.15 -0.85,0.45 -1.8,0.7 -5.5,1.5 -10.05,-1.7 l -1.05,-0.2 -3.2,0.85 -1.5,0.95 -2.3,1.5 q -3.95,2.8 -7.7,-0.1 -0.7,-0.55 -0.3,-1.4 1,-2 3.7,-1.15 l 1.35,-0.2 4.35,-2.75 0.6,-0.95 q 0.75,-1.3 2.2,-1.8 l 2.4,-0.6 -0.3,-0.15 q -3.8,-0.6 -7.1,1.25 l -0.1,0.15 -0.1,0.15 -0.35,0.35 -0.05,0.15 -0.1,0.15 -0.2,0.35 -0.3,0.05 -0.3,-0.1 -0.2,-0.1 -0.05,-0.35 0.1,-0.45 0.15,-0.5 0.2,-0.35 q 1.35,-3.2 4.9,-4 l 3.7,-0.45 q 5.45,0.6 7.05,5.1 l 0.95,0.55 1.3,0.1 q 3.1,-1 5.7,-3.1 1.15,-0.9 2.55,-1.1 M 39,-10.9 v -0.15 -0.8 l -0.05,-1.35 -0.1,-0.65 -0.05,-0.15 -0.75,-0.8 -1.2,-1.1 q -1.45,0.45 -2.8,1.3 0.9,3.6 4.45,4.85 L 39,-10.9 m -71.5,21.15 0.2,0.1 2.2,0.7 0.9,0.2 h 0.3 l 2.15,-0.55 0.5,-0.15 2.8,-3 Q -24,7.25 -24.6,7.1 l -0.75,-0.25 q -3.25,1.3 -6.6,2.25 l -1.1,0.25 0.55,0.9"
         fill="#000000"
         fill-rule="evenodd"
         stroke="none"
         id="path1" />
    </g>
    <g
       id="sprite1"
       transform="translate(17.4,15.85)">
      <use
         ffdec:characterId="31"
         height="57.200001"
         transform="matrix(0.5366,0,0,0.5366,-16.6582,-14.546)"
         width="70.75"
         xlink:href="#sprite2"
         id="use2" />
    </g>
    <g
       id="sprite2"
       transform="translate(-8.65,-10.35)">
      <use
         ffdec:characterId="30"
         height="57.200001"
         transform="translate(8.65,10.35)"
         width="70.75"
         xlink:href="#shape1"
         id="use3" />
    </g>
    <g
       id="shape1"
       transform="translate(-8.65,-10.35)">
      <path
         d="m 14.8,41.7 q 0.65,-1.75 2.65,-2.5 1.8,-0.8 3.7,-0.25 1.15,0.45 2.25,1.2 l 0.9,0.4 q 1.65,0.9 2.85,2.5 L 37.8,30.1 q 2.35,-2.8 3.75,-3.95 1.5,-1.15 4.25,-2.4 18.2,-8.85 27.65,-12.6 2.15,-0.8 3.25,-0.8 h 0.8 l 1.9,2.4 -0.2,0.8 q -0.2,1.1 -1.55,3 -5.85,8.25 -18.85,23.8 -1.85,2.35 -3.35,3.5 -1.4,1.15 -4.75,2.75 l -15.15,7.15 q 1.2,1.6 1.75,3.4 l 0.2,1 0.55,2.5 q 0.1,1.95 -1.1,3.55 -1.2,1.65 -3.05,1.9 l -1.3,0.05 q -1.65,0.2 -3.45,-0.65 -1.85,-0.9 -3,-2.6 L 25,60.95 23.8,62.1 q -2.6,2.85 -4.3,3.95 -2.85,1.8 -5.5,1.45 l -1.65,-0.5 -1.2,-0.7 -0.2,-0.2 q -1,-0.85 -1.6,-1.9 L 9.25,64 9.15,63.8 8.75,62.4 q -0.2,-0.8 -0.05,-1.7 0.25,-2.65 2.7,-5.05 1.5,-1.3 4.9,-3.15 L 17.7,51.55 16.05,50 q -1.35,-1.5 -1.8,-3.6 -0.4,-1.85 0.25,-3.45 l 0.3,-1.25"
         fill="#000000"
         fill-opacity="0.372549"
         fill-rule="evenodd"
         stroke="none"
         id="path3" />
    </g>
  </defs>
</svg>
