<?xml version="1.0" encoding="UTF-8" standalone="no"?>
<svg
   ffdec:objectType="frame"
   height="79.258278"
   width="63.63266"
   version="1.1"
   id="svg6"
   sodipodi:docname="ITEM Glowing Flask.svg"
   xmlns:inkscape="http://www.inkscape.org/namespaces/inkscape"
   xmlns:sodipodi="http://sodipodi.sourceforge.net/DTD/sodipodi-0.dtd"
   xmlns:xlink="http://www.w3.org/1999/xlink"
   xmlns="http://www.w3.org/2000/svg"
   xmlns:svg="http://www.w3.org/2000/svg"
   xmlns:ffdec="https://www.free-decompiler.com/flash">
  <sodipodi:namedview
     id="namedview6"
     pagecolor="#ffffff"
     bordercolor="#000000"
     borderopacity="0.25"
     inkscape:showpageshadow="2"
     inkscape:pageopacity="0.0"
     inkscape:pagecheckerboard="0"
     inkscape:deskcolor="#d1d1d1"
     fit-margin-top="5"
     fit-margin-left="5"
     fit-margin-right="5"
     fit-margin-bottom="5" />
  <g
     transform="translate(35.6125,40.610714)"
     id="g1">
    <use
       ffdec:characterId="17"
       height="119.15"
       id="rarity"
       transform="translate(-58.5,-60.65)"
       width="119.15"
       xlink:href="#sprite0" />
    <use
       ffdec:characterId="150"
       height="79.25"
       transform="translate(-35.6,-40.6)"
       width="63.599998"
       xlink:href="#shape0"
       id="use1" />
  </g>
  <defs
     id="defs6">
    <g
       id="shape0"
       transform="translate(35.3,43.1)">
      <path
         d="m -7.9,-13.85 0.45,-6.65 q 0.45,-5.1 1.05,-8.15 0.85,-4.4 2.35,-7.8 1.05,-2.35 2.35,-3.2 1.55,-1 4.25,-0.8 5.9,0.35 11.55,3.45 5.35,2.9 9.4,7.75 1.8,2.2 1.8,3.8 0,1.05 -0.9,2.85 -2.7,5.25 -6,10.2 -2.3,3.45 -3.15,5.35 1.25,0.6 2.55,2.65 2.15,3.15 2.7,5.1 0.55,2.05 0.25,4.7 L 19.8,10.1 16.35,23.45 Q 15.5,26.6 14.6,27.8 13,29.95 9.15,30.95 5.9,31.8 0.55,32 L -12.8,31.35 q -7.15,-1.15 -12.5,-4.25 -5.8,-3.35 -6.95,-7.9 -0.6,-2.35 0.05,-5.35 0.45,-2.05 1.75,-5.2 l 4.25,-9.5 q 2.25,-4.75 4.5,-6.7 1.7,-1.4 4.25,-2.3 l 4.75,-1.3 5,-0.85 -0.2,-1.85 M 6.4,-9 l 4.65,0.6 h 0.1 l 0.05,-0.15 0.15,-0.35 0.7,-1.6 0.35,-0.55 0.6,-1.15 2.05,-3.95 3.5,-6.85 q 0.45,-1 0.35,-1.4 l -0.5,-1.05 q -1.55,-1.95 -3.05,-3.15 l -3.05,-2.1 q -2.65,-1.65 -3.95,-2.1 -1.9,-0.75 -5.95,-1.15 l -0.65,0.1 -0.25,0.45 q -1.25,3.05 -1.75,6.2 -0.6,2.95 -0.9,8 -0.1,2.3 -0.3,3.05 l -0.15,1.5 0.55,0.95 2,2.4 0.5,0.45 0.55,0.4 Q 2.65,-10 3.4,-9.7 L 4.05,-9.45 6.4,-9 m -22.05,4.6 q -1.95,1.05 -3.15,2.6 l -0.95,1.5 0.15,-0.05 5.15,-1.1 2.4,-0.3 2.7,-0.25 8.5,-0.4 5.3,0.3 4.85,1.05 4.5,1.35 0.05,0.05 -1.45,-1.9 -0.9,-1.6 L 11.2,-4.2 5.55,-5.1 3.9,-5.4 Q 1.5,-5.9 0.35,-6.5 L -1.9,-7.85 -6.3,-7 l -4.6,0.8 q -2.45,0.55 -4.25,1.5 l -0.5,0.3 M 3.15,25.8 5.9,25.55 q 3.05,-0.3 4.1,-1.4 0.8,-0.8 1.3,-3 L 14.55,7.85 15.1,5.15 14.75,5.2 13.6,5.45 12.35,5.7 6.9,6.75 H 6.85 6.75 L 6.3,6.8 2.5,7.25 -14.2,6.65 -16.1,6.3 -18.3,5.75 -18.7,5.6 l -1.85,-0.8 -0.5,-0.2 -0.7,-0.25 -3.35,8.7 q -1.2,3.15 -0.8,4.8 l 0.7,1.45 0.1,0.1 q 0.85,1.15 2.55,2.2 5.6,3.45 13.9,4.3 l 4.95,0.2 4.1,-0.15 H 0.6 L 3.15,25.8 M 6.2,4.85 12,3.8 14.3,3.2 Q 13.5,2.7 12.25,2.35 L 10.1,1.75 Q 7,0.55 5.4,0.25 L 2.45,0 -0.45,0.05 -6.6,-0.05 -11.4,0.1 q -2.75,0.3 -8.5,2 l -0.8,0.2 0.1,0.35 0.3,0.2 1.15,0.5 0.2,0.05 2.1,0.65 1.35,0.25 5,0.6 L -10,4.95 -2.2,5.3 4.25,5.05 4.6,5 6.2,4.85"
         fill="#000000"
         fill-rule="evenodd"
         stroke="none"
         id="path1" />
      <path
         d="m 4,-22.65 -0.8,-0.25 -0.15,-0.05 -0.3,-0.2 Q 1.8,-23.75 1.4,-24.7 l -0.15,-0.6 q -0.2,-1 0.2,-2.2 0.35,-0.95 1.45,-2.55 l 1.45,-1.5 q 1.1,-0.75 2,-0.45 1.2,0.3 1.85,1.9 l 0.1,0.35 0.2,0.7 q 0.35,1.3 0.2,2.5 L 8.55,-25.85 8,-24.6 q -1.15,1.9 -3.35,2 L 4,-22.65 M -18.8,8.7 -18,8.55 q 0.55,0.05 1.25,0.45 0.8,0.35 1.2,0.8 l 0.25,0.35 0.3,1.15 q 0,0.95 -0.4,1.7 l -0.95,1.3 -1.2,1.35 q -0.9,1.05 -1.45,1.2 l -1.55,-0.15 q -0.75,-0.45 -0.95,-1.2 -0.15,-0.85 0.4,-2.1 l 1.2,-3.2 0.25,-0.55 0.55,-0.75 0.3,-0.2"
         fill="#ffffff"
         fill-rule="evenodd"
         stroke="none"
         id="path2" />
      <path
         d="M 6.9,6.75 Q 7.2,7.3 7.15,7.95 L 7.05,8.45 6.95,9.95 6.8,11.5 6.5,12.85 Q 4.75,18.4 3.4,24.8 l -0.25,1 -2.55,0.15 H 0.4 l -4.1,0.15 -4.95,-0.2 q -8.3,-0.85 -13.9,-4.3 -1.7,-1.05 -2.55,-2.2 v -0.1 q -0.05,-1.35 0.75,-3.45 1,-2.75 1.95,-7.65 0.45,-2.5 1.35,-3.6 l 0.5,0.2 1.85,0.8 0.4,0.15 2.2,0.55 1.9,0.35 L 2.5,7.25 6.3,6.8 6.75,6.75 h 0.1 0.05 m -26.05,-3.4 1.5,-0.3 h 0.35 l 1.85,0.2 0.15,-0.05 q 4.65,-2 11.1,-2.1 L -0.85,1.3 1.8,1.95 4.35,3 Q 5.5,3.7 6.2,4.85 L 4.6,5 4.25,5.05 -2.2,5.3 -10,4.95 -10.5,4.9 l -5,-0.6 -1.35,-0.25 -2.1,-0.65 -0.2,-0.05 m 0.35,5.35 -0.3,0.2 -0.55,0.75 -0.25,0.55 -1.2,3.2 q -0.55,1.25 -0.4,2.1 0.2,0.75 0.95,1.2 l 1.55,0.15 q 0.55,-0.15 1.45,-1.2 l 1.2,-1.35 0.95,-1.3 Q -15,12.25 -15,11.3 L -15.3,10.15 -15.55,9.8 Q -15.95,9.35 -16.75,9 -17.45,8.6 -18,8.55 l -0.8,0.15"
         fill="#d4c7a6"
         fill-rule="evenodd"
         stroke="none"
         id="path3" />
      <path
         d="m 11.5,-3.15 0.9,1.6 1.45,1.9 L 13.8,0.3 9.3,-1.05 4.45,-2.1 l -5.3,-0.3 -8.5,0.4 -2.7,0.25 -2.4,0.3 -5.15,1.1 -0.15,0.05 0.95,-1.5 q 1.2,-1.55 3.15,-2.6 l 0.4,-0.1 3.15,-0.5 5.45,-0.15 8.35,0.1 2.25,0.1 H 4.6 l 2.85,0.35 q 2.15,0.45 4.05,1.45 M 6.4,-9 4.05,-9.45 3.4,-9.7 Q 2.65,-10 2,-10.45 l -0.55,-0.4 -0.5,-0.45 -2,-2.4 -0.55,-0.95 0.15,-1.5 q 0.2,-0.75 0.3,-3.05 0.3,-5.05 0.9,-8 0.5,-3.15 1.75,-6.2 l 0.25,-0.45 0.65,-0.1 q 4.05,0.4 5.95,1.15 1.3,0.45 3.95,2.1 l 3.05,2.1 q 1.5,1.2 3.05,3.15 l 0.5,1.05 Q 19,-24 18.55,-23 l -3.5,6.85 -2.05,3.95 -0.6,1.15 -0.35,0.55 -0.7,1.6 -0.15,0.35 -0.05,0.15 h -0.1 L 6.4,-9 m 2.15,-16.85 0.15,-0.7 q 0.15,-1.2 -0.2,-2.5 l -0.2,-0.7 -0.1,-0.35 q -0.65,-1.6 -1.85,-1.9 -0.9,-0.3 -2,0.45 l -1.45,1.5 q -1.1,1.6 -1.45,2.55 -0.4,1.2 -0.2,2.2 l 0.15,0.6 q 0.4,0.95 1.35,1.55 l 0.3,0.2 0.15,0.05 0.8,0.25 -0.1,2.4 -0.7,4.75 q -0.1,1.05 0.2,1.5 l 0.9,0.6 1.05,0.4 1.6,0.95 q 0.95,0.55 1.65,0.35 0.5,-0.1 0.95,-0.55 L 9.7,-12.6 11.75,-17 q 1.15,-2.6 1.45,-4.6 0.2,-0.85 0,-1.4 -0.3,-1 -1.85,-1.8 -1.45,-0.8 -2.8,-1.05 M 6.9,6.75 12.35,5.7 13.6,5.45 14.75,5.2 15.1,5.15 14.55,7.85 11.3,21.15 q -0.5,2.2 -1.3,3 -1.05,1.1 -4.1,1.4 L 3.15,25.8 3.4,24.8 Q 4.75,18.4 6.5,12.85 L 6.8,11.5 6.95,9.95 7.05,8.45 7.15,7.95 Q 7.2,7.3 6.9,6.75 m -32.1,12.55 -0.7,-1.45 q -0.4,-1.65 0.8,-4.8 l 3.35,-8.7 0.7,0.25 q -0.9,1.1 -1.35,3.6 -0.95,4.9 -1.95,7.65 -0.8,2.1 -0.75,3.45 h -0.1 m 6.05,-15.95 -1.15,-0.5 -0.3,-0.2 -0.1,-0.35 0.8,-0.2 q 5.75,-1.7 8.5,-2 l 4.8,-0.15 6.15,0.1 L 2.45,0 5.4,0.25 q 1.6,0.3 4.7,1.5 l 2.15,0.6 Q 13.5,2.7 14.3,3.2 L 12,3.8 6.2,4.85 Q 5.5,3.7 4.35,3 L 1.8,1.95 -0.85,1.3 -4.2,1.1 q -6.45,0.1 -11.1,2.1 l -0.15,0.05 -1.85,-0.2 h -0.35 l -1.5,0.3"
         fill="#f3e9cf"
         fill-rule="evenodd"
         stroke="none"
         id="path4" />
      <path
         d="m -7.9,-13.85 0.2,1.85 -5,0.85 -4.75,1.3 q -2.55,0.9 -4.25,2.3 -2.25,1.95 -4.5,6.7 l -4.25,9.5 q -1.3,3.15 -1.75,5.2 -0.65,3 -0.05,5.35 1.15,4.55 6.95,7.9 5.35,3.1 12.5,4.25 L 0.55,32 q 5.35,-0.2 8.6,-1.05 3.85,-1 5.45,-3.15 0.9,-1.2 1.75,-4.35 L 19.8,10.1 20.75,5.4 q 0.3,-2.65 -0.25,-4.7 -0.55,-1.95 -2.7,-5.1 -1.3,-2.05 -2.55,-2.65 0.85,-1.9 3.15,-5.35 3.3,-4.95 6,-10.2 0.9,-1.8 0.9,-2.85 0,-1.6 -1.8,-3.8 -4.05,-4.85 -9.4,-7.75 -5.65,-3.1 -11.55,-3.45 -2.7,-0.2 -4.25,0.8 -1.3,0.85 -2.35,3.2 -1.5,3.4 -2.35,7.8 -0.6,3.05 -1.05,8.15 l -0.45,6.65 M -24.75,30.8 q -3.05,-2.3 -7.95,-8.4 -2.3,-2.95 -2.55,-4.7 -0.25,-1.55 0.5,-3.45 l 1.5,-3.35 3.95,-10.25 q 2.4,-6.15 5.5,-9.25 4.05,-4.05 9.7,-4.6 l 1.55,-0.25 q 0.85,-0.25 1.25,-0.75 0.45,-0.55 0.55,-1.75 1.1,-9 3.55,-18.1 0.7,-2.55 1.4,-3.95 0.95,-2.1 2.4,-3.3 2.35,-1.95 6.2,-1.8 2.7,0.05 6.9,1.3 l 6.15,1.9 q 3.35,1.25 5.75,2.85 2.8,1.85 4.6,4.5 1.9,2.85 2.1,5.9 0.25,3.7 -2.6,9 -2.7,5.1 -6.8,9.75 2,1.5 3.2,4 1.1,2.3 1.4,5 0.45,3.95 -1.05,10.35 Q 21,17.9 18.4,25.2 l -1.5,3.55 q -1,1.85 -2.3,3.05 -1.55,1.4 -4.05,2.25 l -4.65,1 Q -3.7,36.55 -9.9,36 -18.75,35.25 -24.75,30.8 M 3.95,-4.95 1.7,-5.05 -6.65,-5.15 -12.1,-5 l -3.15,0.5 0.1,-0.2 q 1.8,-0.95 4.25,-1.5 l 4.6,-0.8 4.4,-0.85 2.25,1.35 q 1.15,0.6 3.55,1.1 l 0.05,0.45 m 4.6,-20.9 q 1.35,0.25 2.8,1.05 1.55,0.8 1.85,1.8 0.2,0.55 0,1.4 -0.3,2 -1.45,4.6 l -2.05,4.4 -0.15,0.35 Q 9.1,-11.8 8.6,-11.7 7.9,-11.5 6.95,-12.05 L 5.35,-13 4.3,-13.4 3.4,-14 q -0.3,-0.45 -0.2,-1.5 l 0.7,-4.75 0.1,-2.4 0.65,0.05 q 2.2,-0.1 3.35,-2 l 0.55,-1.25"
         fill="#f3e9cf"
         fill-opacity="0.498039"
         fill-rule="evenodd"
         stroke="none"
         id="path5" />
    </g>
    <g
       id="sprite1"
       transform="translate(17.4,15.85)">
      <use
         ffdec:characterId="31"
         height="57.200001"
         transform="matrix(0.5366,0,0,0.5366,-16.6582,-14.546)"
         width="70.75"
         xlink:href="#sprite2"
         id="use5" />
    </g>
    <g
       id="sprite2"
       transform="translate(-8.65,-10.35)">
      <use
         ffdec:characterId="30"
         height="57.200001"
         transform="translate(8.65,10.35)"
         width="70.75"
         xlink:href="#shape1"
         id="use6" />
    </g>
    <g
       id="shape1"
       transform="translate(-8.65,-10.35)">
      <path
         d="m 14.8,41.7 q 0.65,-1.75 2.65,-2.5 1.8,-0.8 3.7,-0.25 1.15,0.45 2.25,1.2 l 0.9,0.4 q 1.65,0.9 2.85,2.5 L 37.8,30.1 q 2.35,-2.8 3.75,-3.95 1.5,-1.15 4.25,-2.4 18.2,-8.85 27.65,-12.6 2.15,-0.8 3.25,-0.8 h 0.8 l 1.9,2.4 -0.2,0.8 q -0.2,1.1 -1.55,3 -5.85,8.25 -18.85,23.8 -1.85,2.35 -3.35,3.5 -1.4,1.15 -4.75,2.75 l -15.15,7.15 q 1.2,1.6 1.75,3.4 l 0.2,1 0.55,2.5 q 0.1,1.95 -1.1,3.55 -1.2,1.65 -3.05,1.9 l -1.3,0.05 q -1.65,0.2 -3.45,-0.65 -1.85,-0.9 -3,-2.6 L 25,60.95 23.8,62.1 q -2.6,2.85 -4.3,3.95 -2.85,1.8 -5.5,1.45 l -1.65,-0.5 -1.2,-0.7 -0.2,-0.2 q -1,-0.85 -1.6,-1.9 L 9.25,64 9.15,63.8 8.75,62.4 q -0.2,-0.8 -0.05,-1.7 0.25,-2.65 2.7,-5.05 1.5,-1.3 4.9,-3.15 L 17.7,51.55 16.05,50 q -1.35,-1.5 -1.8,-3.6 -0.4,-1.85 0.25,-3.45 l 0.3,-1.25"
         fill="#000000"
         fill-opacity="0.372549"
         fill-rule="evenodd"
         stroke="none"
         id="path6" />
    </g>
  </defs>
</svg>
