<?xml version="1.0" encoding="UTF-8" standalone="no"?>
<svg
   ffdec:objectType="frame"
   height="87.253845"
   width="88.462502"
   version="1.1"
   id="svg5"
   xmlns:xlink="http://www.w3.org/1999/xlink"
   xmlns="http://www.w3.org/2000/svg"
   xmlns:svg="http://www.w3.org/2000/svg"
   xmlns:ffdec="https://www.free-decompiler.com/flash">
  <g
     transform="translate(46.75,43.6)"
     id="g1">
    <use
       ffdec:characterId="17"
       height="119.15"
       id="rarity"
       transform="translate(-58.5,-60.65)"
       width="119.15"
       xlink:href="#sprite0" />
    <use
       ffdec:characterId="902"
       height="87.25"
       transform="translate(-46.8,-43.6)"
       width="88.5"
       xlink:href="#shape0"
       id="use1" />
  </g>
  <defs
     id="defs5">
    <g
       id="shape0"
       transform="translate(47.35,44.35)">
      <path
         d="m 23.25,-17.8 2.75,2.35 1.3,-0.9 4.25,-3.35 q 0.85,-0.7 1.2,-0.8 0.8,-0.3 1.3,0.2 0.45,0.55 0.2,1.2 l -0.65,1.1 -2.9,2.9 -2.6,2.4 0.75,1.55 q 1.95,4.3 0.4,8.45 -1.3,3.45 -5,5.1 -1.6,0.7 -3.15,0.9 0.7,1.8 1.9,3.4 l 0.65,0.95 5.55,0.25 0.4,-1.35 1.5,-2.6 q 0.65,-0.95 1.25,-1 1.05,-0.05 1.3,1.15 0.15,0.7 -0.2,1.8 l -0.5,1.85 -0.1,0.75 -0.2,0.35 q 3.1,1.3 4.4,3.7 0.85,1.45 1.2,4.6 0.3,3.7 -0.2,6.05 -0.35,1.85 -1.25,3.25 l 3.4,3.7 0.9,1.25 q 0.25,1.05 -0.5,1.4 -0.7,0.3 -1.6,-0.6 l -3.4,-2.8 -0.9,-0.7 -0.05,-0.1 q -1.75,1.15 -4.4,1.15 L 27.6,29.6 q 0,0.9 -0.6,1.9 l -1.7,1.75 -0.85,0.7 -0.85,0.7 q -0.55,0.45 -2,0.95 l -2.8,0.7 -2.2,0.2 q -1.3,0.2 -2.15,0 L 12.8,36 11.55,35.55 Q 9.5,34.75 8.7,33.8 l -1.65,1.55 v 0.05 l 0.05,0.15 0.65,1.8 0.7,2.65 0.05,1.2 q -0.3,0.85 -1.15,0.65 l -0.65,-0.5 -0.95,-1 -0.6,-0.85 -0.55,-1.45 -0.55,-1 q -2.1,0.85 -4.6,0.95 -4.05,0.25 -8.2,-1.25 l -1.35,-0.8 q -3.4,1.55 -7.3,1.95 l -5.3,0.45 -0.8,2.85 -0.45,1.15 q -0.55,0.6 -1.15,0.55 -0.8,-0.1 -0.95,-1.1 l 0.15,-1.6 0.25,-2.2 q -2.15,-0.55 -3.95,-1.6 l -0.7,0.55 q -1.7,1.2 -3.95,1.1 l -2.7,-0.6 q -2.85,-0.95 -3.9,-2 -0.95,-1.05 -1.5,-2.9 -0.7,-2.6 -0.05,-5.8 l 0.55,-2.05 -0.55,-0.3 -1.2,-1.35 -1.2,-1.4 -0.85,-0.7 -0.7,-0.8 -0.45,-1.05 -0.45,-0.45 -0.05,-0.65 0.85,-0.05 4.7,1.4 q 1.35,0.45 2.15,0.9 0.95,-1.35 2.3,-2.45 l 0.9,-0.65 q -0.75,-1.75 -0.9,-4 -0.15,-1.95 0.1,-3.85 l -2,0.3 q -1.7,0.1 -2.2,-0.4 -0.45,-0.35 -0.5,-0.95 -0.05,-0.6 0.3,-1 0.45,-0.5 1.75,-0.8 l 3.25,-0.5 h 0.2 q 0.65,-1.85 1.65,-3.65 3.05,-5.15 8.2,-7.5 1.35,-0.45 1.6,-1.15 0.2,-0.45 -0.1,-1.6 -1.15,-4.4 0.15,-8 1.15,-3.35 4.55,-6.25 l -0.55,-1 -1.7,-3.75 -0.2,-0.85 q -0.05,-0.55 0.45,-0.85 l 1,-0.1 0.65,0.5 1.25,1.35 0.8,1.05 1.15,1.5 q 2.35,-1.55 4.3,-2.05 3.3,-0.7 6.75,0.8 l 0.25,0.05 q 0.4,-1.1 1.4,-2.2 1.1,-1.1 2.9,-2.1 l 1.5,-0.7 2.65,-0.35 2.85,0.15 0.2,0.05 0.35,-0.95 q 0.95,-2.45 2.3,-4.55 l -0.5,-0.9 -0.95,-2.15 q -0.25,-0.9 -0.15,-1.35 0.15,-0.85 0.7,-1.1 0.7,-0.25 1.8,0.65 l 1.7,1.65 2.4,-2.15 q 1.15,-0.75 2.5,-1.15 3.7,-1.15 6.9,-0.05 1.9,0.65 3.3,1.85 2.1,-1.6 4.45,-2.6 l 1.15,-0.5 0.85,-0.35 0.85,0.3 q 0.4,0.35 0.35,0.85 l -0.65,0.9 -2.05,1.95 -2.85,2.35 0.7,2.15 q 0.65,3 0.15,5.85 -0.5,3.1 -2.25,5.35 l -2.1,2.35 q -1.3,1.35 -1.65,2.6 l -0.35,1.2 1,0.7 m 0.35,-11.5 q 0.45,-1.25 0.5,-3.1 l -0.1,-1.75 -0.8,0.9 q -1,0.85 -2.15,0.55 -1.25,-0.3 -1.6,-1.45 -0.45,-1.55 1.1,-2.9 l 1.1,-0.85 -1.6,-0.55 -3.2,0.35 q -2.45,0.95 -4.65,4.25 -1.65,2.5 -2.4,5.35 -0.7,2.65 -0.7,5.5 v 0.95 q 3.3,-0.15 6.6,0.75 l 2.55,0.8 q 0.1,-1.3 0.85,-2.7 0.5,-0.95 2.35,-3.15 l 0.5,-0.65 0.55,-0.6 0.75,-1.15 0.35,-0.55 m -19.45,6.65 q -0.1,-2.25 0.3,-4.4 l -0.6,-0.1 -1.5,0.05 -1.3,0.25 q -0.5,0.15 -1.8,1.1 l -1.2,1.35 -0.4,1.25 V -23 l 1.5,1.6 0.9,1.55 q 2.05,-0.95 4.2,-1.5 l -0.1,-1.3 m 7,-4.45 0.15,-0.6 q 0.3,-0.75 0.95,-1.05 l 1.45,-0.1 1.15,0.85 q 0.4,0.7 0.2,1.4 -0.15,0.7 -0.75,1.2 -0.7,0.45 -1.4,0.35 -0.7,-0.1 -1.25,-0.7 -0.5,-0.6 -0.5,-1.35 M 23.3,-3.05 q 0.65,-0.5 1.05,-1.35 0.6,-1.25 0.45,-2.6 -0.05,-1.1 -0.5,-2.2 l -0.35,0.15 -1.45,0.3 q -0.8,-0.1 -1.35,-0.55 -0.6,-0.45 -0.75,-1.25 -0.2,-0.75 0.2,-1.45 l 0.9,-0.85 q -2.85,-2.65 -6.6,-3.55 l -6.6,-0.4 q -3.85,0.25 -6.65,1.55 -1.35,0.7 -2.65,1.75 l 1.6,1.55 q 1.15,1.2 0.5,2.8 l -1.05,1 -1.5,0.2 -1.2,-0.7 q -0.7,-0.6 -1.4,-1.9 L -5.2,-9.1 q -5.7,7.5 -5.4,15.5 v 0.75 l 0.4,3.1 0.25,1.4 0.65,3.25 0.2,1.3 q 0.85,5.5 -1.25,8.8 -0.95,1.4 -2.05,1.85 l -1.4,0.05 -1.15,-0.75 -0.25,-0.55 0.05,-1.5 0.85,-2.15 q 0.75,-1.8 0.5,-4.35 l -0.05,-0.65 -0.3,-0.1 -1.5,-0.65 -0.8,-0.3 -1.65,-0.4 h -1.1 l -1.8,0.3 q -2.25,0.7 -4.1,2.8 -1.25,1.4 -2.45,3.8 l -1.05,2.1 q -1.1,2.35 -0.85,3.85 0.3,1.5 1.85,2.8 l 2.45,1.5 0.25,-2 0.8,-3.4 0.15,-0.5 0.35,-1.15 q 0.5,-0.95 1.2,-1.25 l 1.65,-0.05 q 0.85,0.45 1.1,1.25 0.15,0.65 0,1.55 l -0.3,0.95 -1.4,5.4 1.1,-0.05 q 2.65,0 7.65,-1.45 l 1.25,-0.3 1.55,-1.1 q 2.5,-1.8 3.5,-3 l 1,-1.45 q 1.2,-2.85 1.3,-6.9 l -0.05,-4.95 q -0.05,-3 0.25,-5 0.45,-3.4 1.9,-6.3 1.55,-3.05 4.05,-5.05 2.6,-2.15 5.95,-2.8 3.35,-0.7 6.35,0.45 l 3.9,1.8 q 2.45,0.95 4.2,0.05 L 23.3,-3.05 M -6.4,6.65 Q -6.65,6.85 -7,6.85 -7.65,6.95 -8.35,6.55 -9.4,5.75 -9.25,4.5 -9,3.2 -7.75,2.8 l 0.5,-0.05 H -7 l 0.6,0.2 q 0.5,0.2 0.8,0.75 l 0.3,0.75 Q -5,5.7 -6.1,6.5 l -0.3,0.15 m 12.45,-19.1 q 0,-0.8 0.5,-1.45 0.5,-0.65 1.3,-0.85 l 1.5,0.15 q 0.75,0.35 1.1,1.05 0.4,0.7 0.25,1.55 -0.15,0.8 -0.75,1.3 -0.55,0.55 -1.4,0.6 -0.8,0.05 -1.5,-0.35 -1.05,-0.75 -1,-2 m 27.6,33.05 -0.1,-3.05 -0.2,-1.7 q -0.15,-0.95 -0.65,-1.5 -0.4,-0.6 -1.35,-0.9 l -0.45,0.9 Q 30.45,15 29.65,15.2 L 28.2,15 l -1,-1.1 q -0.3,-0.75 0,-1.4 l -5.75,0.4 q -2.6,0.7 -6.95,3.3 l -1.65,0.95 q -3.25,1.95 -5.2,2.55 -1.6,0.55 -5,0.95 l -2.2,0.05 q -0.3,2.85 -1,4.9 -1.05,3.2 -3.45,5.85 l -2.15,2.05 5.3,0.25 L 2,33.15 0.9,31.2 0.45,30.3 q -0.5,-1.45 0.55,-2.6 1,-1.15 2.5,-0.85 1.55,0.3 2,1.8 l 0.2,1.2 0.15,0.7 1.1,-1.25 2.55,-2.8 q 3.3,-3 9.15,-3.2 3.25,-0.1 9.75,1.3 l 2.75,0.1 0.2,-0.1 -0.7,-0.45 -1.25,-1.3 -0.2,-0.6 v -0.7 q 0.15,-0.7 0.6,-1.15 0.45,-0.45 1.15,-0.55 l 1.3,0.2 1,0.95 0.25,0.3 0.1,0.1 0.05,-0.8 M 14,19.6 q -0.05,-0.4 0.15,-0.6 0.35,-0.75 1.4,-0.8 l 0.8,0.15 q 0.55,0.2 0.75,0.75 l 0.15,1.1 -0.45,0.75 V 21 q -0.65,0.7 -1.55,0.6 -1.1,-0.25 -1.3,-1.65 L 14,19.6 M 14.35,1.4 Q 12.65,0.5 11.5,0.3 L 10.75,0.2 10.9,2.6 10.8,6.75 10.65,7.8 q -0.6,3.3 -1.6,6 v 0.1 L 10,13.35 13.55,11.2 17.2,9.3 18.4,8.85 18.35,8.8 Q 17,6.4 16.4,3.75 L 16.3,2.4 14.35,1.4 M 6.5,1.2 Q 4.2,2.55 2.85,4.95 0.9,8.4 0.65,15.2 v 0.65 H 2.2 L 2.8,15.8 3.15,15.1 4.2,14 5.05,12.5 Q 6.2,10 6.7,7.05 l 0.8,-6.3 -1,0.45 m 13.15,26.9 q -3.05,-0.25 -5.15,0.65 -1.45,0.65 -3.2,2.4 0.9,0.6 2.45,0.75 2.7,0.4 4.9,-0.05 2.7,-0.55 4.2,-2.3 L 23.5,28.8 19.65,28.1 M -13.3,-5.35 -11,-9.65 q 0.45,-2.9 -0.1,-5.9 -0.15,-1.1 0.05,-1.55 0.2,-0.35 0.75,-0.5 l 0.9,0.1 q 0.85,0.4 1.15,1.4 l 0.4,1.8 0.1,0.2 0.45,-0.5 0.6,-0.6 -0.8,-1.4 -0.25,-0.95 -0.2,-0.5 v -0.5 l 0.3,-0.55 0.65,-0.2 0.85,0.45 1.85,1.6 0.8,-0.55 -1,-0.85 q -3.25,-2.85 -5.7,-3.05 -2,-0.1 -4.15,1.1 l 0.15,0.2 q 1.15,1.4 1.15,2.35 0.05,0.65 -0.35,1.2 -0.45,0.6 -1.05,0.85 -1.4,0.45 -2.5,-0.7 l -0.7,-1.15 -0.05,-0.15 q -2.65,2.55 -2.9,5.6 l 0.1,2.5 0.35,2.5 q 0.3,3.15 -1,4.75 -0.6,0.7 -1.75,1.35 -0.7,0.35 -2.1,1 -3.15,1.55 -5.15,4.6 l 0.2,-0.05 q 0.8,0.05 1.45,0.7 0.65,0.55 0.7,1.4 0.05,0.85 -0.5,1.55 -0.55,0.7 -1.35,0.8 L -31.1,8.65 -32.05,8.6 q -0.6,2.1 -0.4,4.25 0.3,2.8 1.9,3.5 l 0.75,0.25 0.8,-1 2.45,-2.55 q -1.7,-0.35 -2.55,-1.35 -0.6,-0.75 -0.5,-1.45 0.2,-0.9 1.3,-1.15 h 1.85 q 3.6,0.45 6.45,-0.75 l 1.7,-0.85 q 1.6,-0.85 2.2,-1.75 l 0.25,-0.4 q 0.2,-4.95 2.55,-10.7 m -1.9,16.8 -0.15,-0.6 -0.6,0.35 0.75,0.25 m -18.65,20.4 q -1.65,-3.9 0.1,-8.75 l 0.95,-2.05 -1.25,-0.75 q -3.15,3.05 -3.75,6.2 l -0.25,1.95 -0.3,1.3 0.45,1.45 0.5,0.8 1.15,0.65 1.95,0.45 1.1,-0.1 -0.65,-1.15"
         fill="#000000"
         fill-rule="evenodd"
         stroke="none"
         id="path1" />
      <path
         d="m 9.8,-28.5 q 0.75,-2.85 2.4,-5.35 2.2,-3.3 4.65,-4.25 l 3.2,-0.35 1.6,0.55 -1.1,0.85 q -1.55,1.35 -1.1,2.9 0.35,1.15 1.6,1.45 1.15,0.3 2.15,-0.55 l 0.8,-0.9 0.1,1.75 q -0.05,1.85 -0.5,3.1 l -0.3,0.4 -0.8,1.3 -0.55,0.6 -0.5,0.65 q -2,2.05 -4.85,2.5 -1.2,0.2 -1.95,0 -0.55,-0.2 -1.7,-0.85 -1.35,-0.8 -2,-1.5 -1.05,-1 -1.15,-2.15 v -0.15 m 1.35,1.4 q 0,0.75 0.5,1.35 0.55,0.6 1.25,0.7 0.7,0.1 1.4,-0.35 0.6,-0.5 0.75,-1.2 0.2,-0.7 -0.2,-1.4 l -1.15,-0.85 -1.45,0.1 q -0.65,0.3 -0.95,1.05 l -0.15,0.6 m -20.45,42 -0.65,-3.25 -0.25,-1.4 -0.4,-3.1 V 6.4 q -0.3,-8 5.4,-15.5 l 1.15,-1.45 q 0.7,1.3 1.4,1.9 l 1.2,0.7 1.5,-0.2 1.05,-1 q 0.65,-1.6 -0.5,-2.8 L -1,-13.5 q 1.3,-1.05 2.65,-1.75 2.8,-1.3 6.65,-1.55 l 6.6,0.4 q 3.75,0.9 6.6,3.55 L 20.6,-12 q -0.4,0.7 -0.2,1.45 0.15,0.8 0.75,1.25 0.55,0.45 1.35,0.55 l 1.45,-0.3 0.35,-0.15 q 0.45,1.1 0.5,2.2 0.15,1.35 -0.45,2.6 -0.4,0.85 -1.05,1.35 Q 21.9,-3.2 19.35,-4.4 L 14.4,-6.8 q -2.1,-1.1 -3.25,-1.25 l -3.65,0.3 q -3.45,0.85 -6.45,2.4 l -3.5,2.3 -2.15,2.9 L -6.3,2.6 -6.4,2.95 -7,2.75 h -0.25 l -0.5,0.05 q -1.25,0.4 -1.5,1.7 -0.15,1.25 0.9,2.05 0.7,0.4 1.35,0.3 0.35,0 0.6,-0.2 l -0.05,1.3 -1.3,3.8 q -0.65,1.9 -1.4,2.9 L -9.3,14.9 m -10.35,12.2 q 0.15,-0.9 0,-1.55 -0.25,-0.8 -1.1,-1.25 l -1.65,0.05 q -0.7,0.3 -1.2,1.25 l -0.35,1.15 -1,-0.2 Q -26.6,26 -27.1,24.75 l -0.3,-1.6 -0.15,-0.75 q 1.2,-2.4 2.45,-3.8 1.85,-2.1 4.1,-2.8 l 1.8,-0.3 h 1.1 l 1.65,0.4 0.8,0.3 1.5,0.65 0.3,0.1 0.05,0.65 q 0.25,2.55 -0.5,4.35 l -0.85,2.15 -0.05,1.5 -1.75,0.75 q -1.6,0.65 -2.7,0.75 m 32.5,-9.95 1.65,-0.95 q 4.35,-2.6 6.95,-3.3 l 5.75,-0.4 q -0.3,0.65 0,1.4 l 1,1.1 1.45,0.2 q 0.8,-0.2 1.25,-0.85 l 0.45,-0.9 q 0.95,0.3 1.35,0.9 0.5,0.55 0.65,1.5 l 0.2,1.7 0.1,3.05 -0.4,0.4 -1,-0.95 -1.3,-0.2 q -0.7,0.1 -1.15,0.55 -0.45,0.45 -0.6,1.15 v 0.7 L 28.9,22.2 26.65,22.05 24.35,21.8 21.25,21.75 18.2,21.45 16.8,21 V 20.95 L 17.25,20.2 17.1,19.1 q -0.2,-0.55 -0.75,-0.75 l -0.8,-0.15 q -1.05,0.05 -1.4,0.8 -0.2,0.2 -0.15,0.6 l -0.4,-0.25 q -0.75,-0.8 -0.7,-2.15 l -0.05,-0.05 m -6.8,-29.6 q -0.05,1.25 1,2 0.7,0.4 1.5,0.35 0.85,-0.05 1.4,-0.6 0.6,-0.5 0.75,-1.3 0.15,-0.85 -0.25,-1.55 -0.35,-0.7 -1.1,-1.05 l -1.5,-0.15 q -0.8,0.2 -1.3,0.85 -0.5,0.65 -0.5,1.45 m -21.25,23.9 -0.75,-0.25 0.6,-0.35 0.15,0.6"
         fill="#88a381"
         fill-rule="evenodd"
         stroke="none"
         id="path2" />
      <path
         d="m 9.8,-28.5 v 0.15 q 0.1,1.15 1.15,2.15 0.65,0.7 2,1.5 1.15,0.65 1.7,0.85 0.75,0.2 1.95,0 2.85,-0.45 4.85,-2.5 -1.85,2.2 -2.35,3.15 -0.75,1.4 -0.85,2.7 l -2.55,-0.8 q -3.3,-0.9 -6.6,-0.75 V -23 q 0,-2.85 0.7,-5.5 m -19.1,43.4 0.15,-0.25 q 0.75,-1 1.4,-2.9 l 1.3,-3.8 0.05,-1.3 0.3,-0.15 Q -5,5.7 -5.3,4.45 L -5.6,3.7 Q -5.9,3.15 -6.4,2.95 l 0.1,-0.35 1.7,-2.75 2.15,-2.9 3.5,-2.3 q 3,-1.55 6.45,-2.4 l 3.65,-0.3 q 1.15,0.15 3.25,1.25 l 4.95,2.4 q 2.55,1.2 3.95,1.35 l -0.75,0.45 q -1.75,0.9 -4.2,-0.05 l -3.9,-1.8 q -3,-1.15 -6.35,-0.45 -3.35,0.65 -5.95,2.8 -2.5,2 -4.05,5.05 -1.45,2.9 -1.9,6.3 -0.3,2 -0.25,5 L -4,19.2 q -0.1,4.05 -1.3,6.9 l -1,1.45 q -1,1.2 -3.5,3 l -1.55,1.1 -1.25,0.3 q -5,1.45 -7.65,1.45 l -1.1,0.05 1.4,-5.4 0.3,-0.95 q 1.1,-0.1 2.7,-0.75 l 1.75,-0.75 0.25,0.55 1.15,0.75 1.4,-0.05 q 1.1,-0.45 2.05,-1.85 2.1,-3.3 1.25,-8.8 l -0.2,-1.3 m -14.65,11.85 -0.15,0.5 -0.8,3.4 -0.25,2 -2.45,-1.5 q -1.55,-1.3 -1.85,-2.8 -0.25,-1.5 0.85,-3.85 l 1.05,-2.1 0.15,0.75 0.3,1.6 q 0.5,1.25 2.15,1.8 l 1,0.2 m 36.8,-9.6 0.05,0.05 q -0.05,1.35 0.7,2.15 l 0.4,0.25 -0.05,0.35 q 0.2,1.4 1.3,1.65 0.9,0.1 1.55,-0.6 l 1.4,0.45 3.05,0.3 3.1,0.05 2.3,0.25 2.25,0.15 0.3,0.05 0.2,0.6 1.25,1.3 0.7,0.45 -0.2,0.1 -2.75,-0.1 Q 21.9,23.2 18.65,23.3 12.8,23.5 9.5,26.5 L 6.95,29.3 5.85,30.55 5.7,29.85 5.5,28.65 Q 5.05,27.15 3.5,26.85 2,26.55 1,27.7 -0.05,28.85 0.45,30.3 L 0.9,31.2 2,33.15 -0.85,33.75 -6.15,33.5 -4,31.45 q 2.4,-2.65 3.45,-5.85 0.7,-2.05 1,-4.9 l 2.2,-0.05 q 3.4,-0.4 5,-0.95 1.95,-0.6 5.2,-2.55 m 1.5,-15.75 1.95,1 0.1,1.35 Q 17,6.4 18.35,8.8 L 18.4,8.85 17.2,9.3 13.55,11.2 10,13.35 9.05,13.9 v -0.1 q 1,-2.7 1.6,-6 L 10.8,6.75 10.9,2.6 10.75,0.2 11.5,0.3 q 1.15,0.2 2.85,1.1 m 5.3,26.7 3.85,0.7 -0.65,0.75 q -1.5,1.75 -4.2,2.3 -2.2,0.45 -4.9,0.05 -1.55,-0.15 -2.45,-0.75 1.75,-1.75 3.2,-2.4 2.1,-0.9 5.15,-0.65"
         fill="#6e846a"
         fill-rule="evenodd"
         stroke="none"
         id="path3" />
      <path
         d="m 4.15,-22.65 0.1,1.3 q -2.15,0.55 -4.2,1.5 l -0.9,-1.55 -1.5,-1.6 v -0.15 l 0.4,-1.25 1.2,-1.35 q 1.3,-0.95 1.8,-1.1 l 1.3,-0.25 1.5,-0.05 0.6,0.1 q -0.4,2.15 -0.3,4.4 M 6.5,1.2 7.5,0.75 6.7,7.05 Q 6.2,10 5.05,12.5 L 4.2,14 3.15,15.1 2.8,15.8 2.2,15.85 H 0.65 V 15.2 Q 0.9,8.4 2.85,4.95 4.2,2.55 6.5,1.2 m -19.8,-6.55 q -2.35,5.75 -2.55,10.7 l -0.25,0.4 q -0.6,0.9 -2.2,1.75 L -20,8.35 q -2.85,1.2 -6.45,0.75 h -1.85 q -1.1,0.25 -1.3,1.15 -0.1,0.7 0.5,1.45 0.85,1 2.55,1.35 l -2.45,2.55 -0.8,1 -0.75,-0.25 q -1.6,-0.7 -1.9,-3.5 -0.2,-2.15 0.4,-4.25 l 0.95,0.05 1.45,0.05 q 0.8,-0.1 1.35,-0.8 0.55,-0.7 0.5,-1.55 -0.05,-0.85 -0.7,-1.4 -0.65,-0.65 -1.45,-0.7 l -0.2,0.05 q 2,-3.05 5.15,-4.6 1.4,-0.65 2.1,-1 1.15,-0.65 1.75,-1.35 1.3,-1.6 1,-4.75 l -0.35,-2.5 -0.1,-2.5 q 0.25,-3.05 2.9,-5.6 l 0.05,0.15 0.7,1.15 q 1.1,1.15 2.5,0.7 0.6,-0.25 1.05,-0.85 0.4,-0.55 0.35,-1.2 0,-0.95 -1.15,-2.35 l -0.15,-0.2 q 2.15,-1.2 4.15,-1.1 2.45,0.2 5.7,3.05 l 1,0.85 -0.8,0.55 -1.85,-1.6 -0.85,-0.45 -0.65,0.2 -0.3,0.55 v 0.5 l 0.2,0.5 0.25,0.95 0.8,1.4 -0.6,0.6 -0.45,0.5 -0.1,-0.2 -0.4,-1.8 q -0.3,-1 -1.15,-1.4 l -0.9,-0.1 q -0.55,0.15 -0.75,0.5 -0.2,0.45 -0.05,1.55 0.55,3 0.1,5.9 l -2.3,4.3 m -20.55,37.2 0.65,1.15 -1.1,0.1 -1.95,-0.45 -1.15,-0.65 -0.5,-0.8 -0.45,-1.45 0.3,-1.3 0.25,-1.95 q 0.6,-3.15 3.75,-6.2 l 1.25,0.75 -0.95,2.05 q -1.75,4.85 -0.1,8.75"
         fill="#818f66"
         fill-rule="evenodd"
         stroke="none"
         id="path4" />
    </g>
    <g
       id="sprite1"
       transform="translate(17.4,15.85)">
      <use
         ffdec:characterId="31"
         height="57.200001"
         transform="matrix(0.5366,0,0,0.5366,-16.6582,-14.546)"
         width="70.75"
         xlink:href="#sprite2"
         id="use4" />
    </g>
    <g
       id="sprite2"
       transform="translate(-8.65,-10.35)">
      <use
         ffdec:characterId="30"
         height="57.200001"
         transform="translate(8.65,10.35)"
         width="70.75"
         xlink:href="#shape1"
         id="use5" />
    </g>
    <g
       id="shape1"
       transform="translate(-8.65,-10.35)">
      <path
         d="m 14.8,41.7 q 0.65,-1.75 2.65,-2.5 1.8,-0.8 3.7,-0.25 1.15,0.45 2.25,1.2 l 0.9,0.4 q 1.65,0.9 2.85,2.5 L 37.8,30.1 q 2.35,-2.8 3.75,-3.95 1.5,-1.15 4.25,-2.4 18.2,-8.85 27.65,-12.6 2.15,-0.8 3.25,-0.8 h 0.8 l 1.9,2.4 -0.2,0.8 q -0.2,1.1 -1.55,3 -5.85,8.25 -18.85,23.8 -1.85,2.35 -3.35,3.5 -1.4,1.15 -4.75,2.75 l -15.15,7.15 q 1.2,1.6 1.75,3.4 l 0.2,1 0.55,2.5 q 0.1,1.95 -1.1,3.55 -1.2,1.65 -3.05,1.9 l -1.3,0.05 q -1.65,0.2 -3.45,-0.65 -1.85,-0.9 -3,-2.6 L 25,60.95 23.8,62.1 q -2.6,2.85 -4.3,3.95 -2.85,1.8 -5.5,1.45 l -1.65,-0.5 -1.2,-0.7 -0.2,-0.2 q -1,-0.85 -1.6,-1.9 L 9.25,64 9.15,63.8 8.75,62.4 q -0.2,-0.8 -0.05,-1.7 0.25,-2.65 2.7,-5.05 1.5,-1.3 4.9,-3.15 L 17.7,51.55 16.05,50 q -1.35,-1.5 -1.8,-3.6 -0.4,-1.85 0.25,-3.45 l 0.3,-1.25"
         fill="#000000"
         fill-opacity="0.372549"
         fill-rule="evenodd"
         stroke="none"
         id="path5" />
    </g>
  </defs>
</svg>
