<?xml version="1.0" encoding="UTF-8" standalone="no"?>
<svg
   ffdec:objectType="frame"
   height="78.760773"
   width="88.441177"
   version="1.1"
   id="svg6"
   xmlns:xlink="http://www.w3.org/1999/xlink"
   xmlns="http://www.w3.org/2000/svg"
   xmlns:svg="http://www.w3.org/2000/svg"
   xmlns:ffdec="https://www.free-decompiler.com/flash">
  <g
     transform="translate(44.297059,37.512698)"
     id="g1">
    <use
       ffdec:characterId="17"
       height="119.15"
       id="rarity"
       transform="translate(-58.5,-60.65)"
       width="119.15"
       xlink:href="#sprite0" />
    <use
       ffdec:characterId="690"
       height="78.75"
       transform="translate(-44.3,-37.5)"
       width="88.449997"
       xlink:href="#shape0"
       id="use1" />
  </g>
  <defs
     id="defs6">
    <g
       id="shape0"
       transform="translate(43.9,36.7)">
      <path
         d="m 27.3,-21.6 4.7,-1.65 q 2.7,-1 4.5,-2 2.1,-1.2 2.45,-2.55 L 38.9,-29.25 Q 38.7,-30 38.1,-30.4 l -4.4,-0.15 q -2.4,0.8 -6.6,3.7 l -5.4,3.95 q 2,0.85 3.85,2.05 0.8,-0.45 1.75,-0.75 m -52.25,1.15 q 0.3,-1.35 0.5,-3.9 0.45,-3.65 2.55,-6.25 2.3,-2.9 5.55,-3.7 l 2.9,-0.2 q 1.5,0.15 2.65,1 1.25,0.85 2.05,2.4 1,1.75 1.05,3.35 3.4,-1.55 6.95,-2.25 l 2.9,0.2 q 0.65,0.4 1.05,1.4 l 0.6,1.7 1,2.45 9.25,-0.45 2.4,0.3 q 1.5,-1.8 3.7,-3.65 l 4.85,-3.7 q 4.35,-3.15 7,-4.15 4.5,-1.6 7.95,-0.05 1.75,0.75 2.9,2.35 1.2,1.5 1.55,3.4 0.35,1.85 -0.15,3.75 -0.55,1.85 -1.8,3.35 -1.5,1.75 -4.85,3.3 l -4.85,2.05 -2.55,1.05 3.25,4.4 q 2.9,4.45 4.3,8.5 1,3.1 1.8,7.85 1.15,6.3 0.95,10.05 -0.25,5.15 -2.65,10.05 -2.4,4.65 -6.35,8.3 -7.55,6.95 -18.75,8.9 -9.5,1.65 -20.8,-0.6 -5.1,-0.95 -8.5,-2.6 -4.75,-2.25 -8.15,-6.5 -3.3,-4.2 -4.5,-9.35 -1.05,-4.7 -0.25,-11.45 l -5.65,0.8 q -4.95,0.35 -7.15,-1.9 -1.25,-1.3 -1.6,-3.35 -0.2,-1.9 0.45,-3.7 1.05,-2.9 4.55,-5.95 5.25,-4.65 11.1,-6.85 4.15,-1.6 8.2,-1.75 l 3.15,-2.95 -1,-1.7 q -1.05,-2.5 -0.45,-4.1 0.35,-0.8 1.9,-2.1 l 4.3,-2.95 v -0.45 -1.25 l -0.7,-1.45 -0.95,-1 q -0.6,-0.25 -1.45,0 -1.9,0.55 -3.05,2.05 -1.1,1.65 -1.4,4.6 l -0.25,2.4 q -0.15,1.4 -0.45,2.3 -0.55,1.85 -2.05,3.95 -1.1,1.55 -2.1,2.1 -0.95,0.55 -2.7,0.55 l -2.95,-0.3 -0.1,-0.1 -0.95,-0.8 q -0.55,-0.6 -0.9,-1.55 -0.4,-1.1 -0.3,-2.1 l 0.05,-0.2 q 0.1,-1.05 0.8,-1.7 1,-1.05 2.3,-0.8 1.4,0.05 2.1,1.3 l 0.25,0.3 0.3,-0.25 q 0.8,-1.1 1.15,-2.2 l 0.05,-0.2 m 53.05,9.4 q -2.2,-3.15 -4.95,-4.95 -3.65,-2.45 -8.7,-3 l -9.35,0.3 q -10.5,1.75 -17.35,7.55 l 1.2,0.4 q 1.95,0.9 1.75,2.1 -0.15,0.75 -1,1.2 h -0.05 l -1.75,0.3 -4.4,0.2 -2.5,0.3 q -3.75,0.5 -6.65,1.7 l -5.05,2.75 q -2.7,1.7 -4.25,3.2 -2.1,2.05 -2.9,4.35 l 4.7,0.15 q 8.45,-0.85 15.7,-5.4 l 1.35,-0.75 0.15,-0.1 1.6,-0.5 q 0.95,-0.2 1.6,0.4 l 0.1,0.05 q 0.4,0.5 0.3,1.3 -0.1,0.85 -0.65,1.6 v 0.05 q -1.3,1.8 -4.25,3.65 -2.9,1.8 -5.9,3.05 l -0.25,1.65 v 0.05 l -0.25,2.4 q -0.45,6.95 1.6,11.35 2.6,5.6 9.1,8.7 4.8,2.3 12.4,3.1 11.6,1.1 20.1,-2.25 4.95,-1.95 8.65,-5.45 3.95,-3.6 5.65,-8.3 2.35,-6.05 1,-14.05 V 6 L 34.25,3.15 34.2,3 l -1.85,2.55 -1,1.05 -1.45,0.65 -3.3,0.6 q -1.9,0.1 -3.3,-0.7 L 21.6,5.85 Q 20.4,4.6 19.9,3.5 19.45,2.5 19.35,1.3 L 19.4,0.4 q 0.2,-1.75 1.3,-3.35 1.25,-1.7 3.3,-2.95 1.5,-0.9 2.6,-1.1 l 0.5,-0.05 2.3,0.1 1.3,0.35 -2.6,-4.45 M 22.75,20.75 20.85,20.1 19.3,19.4 16.55,18.3 15.5,18.1 14.8,17.95 14.65,18 12.7,18.45 q -1.4,0.4 -4.7,1.9 -2.85,1.3 -4.65,1.6 L 1.55,21.9 Q 0.45,21.65 0.2,20.8 -0.1,19.9 0.55,19 l 1.5,-1.2 Q 2.8,17.45 4.2,16.85 l 2.1,-1.1 2.85,-1.6 1.55,-0.5 1.05,-0.7 0.55,-0.3 Q 12.25,11.05 12.45,9.4 12.7,7.9 13.2,7.2 13.55,6.7 14.15,6.5 L 15.3,6.4 q 1,0.3 1.55,2.05 l 0.95,3.2 0.15,1.25 q 2.2,0.7 4.05,1.85 l 1.35,0.85 2.35,0.85 0.25,0.15 0.05,0.05 0.75,0.4 0.5,0.45 0.05,0.05 0.35,0.45 q 0.3,0.65 0.1,1.5 -0.25,0.8 -0.9,1.2 L 25.1,21 22.75,20.75 m -22.4,-44.05 0.15,-0.05 -0.05,-0.1 -0.6,-1.4 q -6.4,1.7 -11.65,5.7 l -0.45,0.65 0.3,0.5 q 5.5,-3.4 12.3,-5.3 m 23.4,25 q 0.3,1.05 1.15,1.9 0.75,0.7 1.85,0.9 l 2,-0.3 Q 29.7,3.8 30.3,2.9 30.9,2.05 31,1 q 0.1,-1 -0.4,-2.05 -0.5,-1 -1.4,-1.5 l -2,-0.55 q -1.15,0.05 -2,0.6 -0.95,0.7 -1.35,1.85 -0.4,1.15 -0.1,2.35 M 1.7,14.15 q -0.6,0.7 -2.4,1.8 L -2.9,17 -5.25,17.45 q -4.2,0.3 -6.7,-2.1 -2,-1.85 -2.2,-4.85 -0.15,-2.65 1.3,-5.15 0.75,-1.3 1.8,-2.2 L -10,2.35 q 1.2,-0.7 2.75,-1 l 5.8,0.25 q 2.8,1.1 4,3.35 L 2.8,5.5 q 0.7,1.65 0.6,4.25 l -0.2,1.9 q -0.4,1.4 -1.5,2.5 M -1.3,9.3 Q -1.25,8.1 -1.95,7.05 -2.65,6 -3.75,5.5 L -6.1,5.35 q -1.25,0.2 -2.05,1.1 -0.85,0.85 -1.05,2.1 -0.2,1.25 0.3,2.35 0.95,1.95 3.1,2.25 l 1.95,-0.25 1.6,-1.15 Q -1.4,10.7 -1.3,9.3"
         fill="#000000"
         fill-rule="evenodd"
         stroke="none"
         id="path1" />
      <path
         d="m -10.3,-7.45 q 0.85,-0.45 1,-1.2 0.2,-1.2 -1.75,-2.1 l -1.2,-0.4 q 6.85,-5.8 17.35,-7.55 l 9.35,-0.3 q 5.05,0.55 8.7,3 2.75,1.8 4.95,4.95 -0.1,2.05 -1,4 L 26.6,-7 q -1.1,0.2 -2.6,1.1 -2.05,1.25 -3.3,2.95 -1.1,1.6 -1.3,3.35 l -0.05,0.9 q 0.1,1.2 0.55,2.2 0.5,1.1 1.7,2.35 l 1.7,1.3 q 1.4,0.8 3.3,0.7 l 3.3,-0.6 1.45,-0.65 1,-1.05 L 34.2,3 34.25,3.15 34.85,6 v 0.05 q -0.65,3.3 -2.5,6 -1.6,2.45 -4.05,4.6 l -1,0.9 L 27.25,17.5 26.75,17.05 26,16.65 25.95,16.6 25.7,16.45 23.35,15.6 22,14.75 Q 20.15,13.6 17.95,12.9 L 17.8,11.65 16.85,8.45 Q 16.3,6.7 15.3,6.4 l -1.15,0.1 q -0.6,0.2 -0.95,0.7 -0.5,0.7 -0.75,2.2 -0.2,1.65 -0.15,3.25 l -0.55,0.3 -1.05,0.7 -1.55,0.5 -2.85,1.6 -2.1,1.1 Q 2.8,17.45 2.05,17.8 L 0.55,19 q -0.65,0.9 -0.35,1.8 0.25,0.85 1.35,1.1 l 1.8,0.05 q 1.8,-0.3 4.65,-1.6 3.3,-1.5 4.7,-1.9 l 1.95,-0.45 0.15,-0.05 0.7,0.15 1.05,0.2 2.75,1.1 1.55,0.7 1.9,0.65 L 18.2,23 q -8.1,3.4 -18.5,3.1 -5,-0.2 -8.2,-1.25 -2.8,-0.9 -6,-2.85 -5.05,-3.15 -7.15,-6.75 -1.2,-2.05 -1.65,-4.2 l -0.1,-0.5 V 10.5 l 0.25,-1.65 q 3,-1.25 5.9,-3.05 Q -14.3,3.95 -13,2.15 V 2.1 q 0.55,-0.75 0.65,-1.6 0.1,-0.8 -0.3,-1.3 l 1.35,-1.05 q 0.6,-0.65 1.3,-1.8 0.75,-1.35 0.75,-2 -0.05,-1.1 -1.05,-1.8 M 0.35,-23.3 q -6.8,1.9 -12.3,5.3 l -0.3,-0.5 0.45,-0.65 q 5.25,-4 11.65,-5.7 l 0.6,1.4 0.05,0.1 -0.15,0.05 M 1.7,14.15 q 1.1,-1.1 1.5,-2.5 L 3.4,9.75 Q 3.5,7.15 2.8,5.5 L 2.55,4.95 Q 1.35,2.7 -1.45,1.6 l -5.8,-0.25 q -1.55,0.3 -2.75,1 l -1.05,0.8 q -1.05,0.9 -1.8,2.2 -1.45,2.5 -1.3,5.15 0.2,3 2.2,4.85 2.5,2.4 6.7,2.1 L -2.9,17 -0.7,15.95 q 1.8,-1.1 2.4,-1.8"
         fill="#bbbbbb"
         fill-rule="evenodd"
         stroke="none"
         id="path2" />
      <path
         d="m -23.4,10.55 0.1,0.5 q 0.45,2.15 1.65,4.2 2.1,3.6 7.15,6.75 3.2,1.95 6,2.85 3.2,1.05 8.2,1.25 10.4,0.3 18.5,-3.1 l 4.55,-2.25 2.35,0.25 1.75,-0.3 q 0.65,-0.4 0.9,-1.2 0.2,-0.85 -0.1,-1.5 l -0.35,-0.45 1,-0.9 q 2.45,-2.15 4.05,-4.6 1.85,-2.7 2.5,-6 1.35,8 -1,14.05 -1.7,4.7 -5.65,8.3 -3.7,3.5 -8.65,5.45 -8.5,3.35 -20.1,2.25 -7.6,-0.8 -12.4,-3.1 -6.5,-3.1 -9.1,-8.7 -2.05,-4.4 -1.6,-11.35 l 0.25,-2.4 m 50.5,-17.6 q 0.9,-1.95 1,-4 l 2.6,4.45 -1.3,-0.35 -2.3,-0.1"
         fill="#a1a1a1"
         fill-rule="evenodd"
         stroke="none"
         id="path3" />
      <path
         d="m -29.7,-12.15 -0.25,0.45 q -0.6,1 -1.8,1.35 -1.15,0.4 -2.25,0 -1.1,-0.4 -1.7,-1.45 -0.7,-1.05 -0.55,-2.2 0.1,-1.1 1,-2 l 1.2,-0.8 v -1.35 q 0.2,-1.6 0.75,-2.5 1.05,-1.8 3.4,-2.2 1.7,-0.2 2.95,0.4 1.35,0.65 2,2 l -0.05,0.2 q -0.35,1.1 -1.15,2.2 l -0.3,0.25 -0.25,-0.3 q -0.7,-1.25 -2.1,-1.3 -1.3,-0.25 -2.3,0.8 -0.7,0.65 -0.8,1.7 l -0.05,0.2 q -0.1,1 0.3,2.1 0.35,0.95 0.9,1.55 l 0.95,0.8 0.1,0.1 M 23.75,1.7 q -0.3,-1.2 0.1,-2.35 0.4,-1.15 1.35,-1.85 0.85,-0.55 2,-0.6 l 2,0.55 q 0.9,0.5 1.4,1.5 Q 31.1,0 31,1 30.9,2.05 30.3,2.9 29.7,3.8 28.75,4.2 l -2,0.3 Q 25.65,4.3 24.9,3.6 24.05,2.75 23.75,1.7 m -63.1,-20.75 q 0.95,0.1 1.75,0.7 0.7,0.65 0.9,1.55 0.25,0.95 -0.15,1.8 -0.3,0.65 -1.05,1.2 -0.85,0.55 -1.95,0.45 -1.05,-0.1 -1.8,-0.8 -0.75,-0.8 -0.85,-1.85 -0.1,-1.1 0.5,-1.9 0.9,-1.3 2.65,-1.15 m 6.55,-8.2 1.1,-1.1 1.45,-0.35 q 0.8,0.05 1.4,0.6 0.65,0.55 0.85,1.3 0.2,0.8 -0.15,1.6 -0.3,0.75 -1,1.15 -0.6,0.4 -1.35,0.4 -0.7,0.1 -1.45,-0.35 l -0.65,-0.75 q -0.7,-1.15 -0.2,-2.5 M -1.3,9.3 q -0.1,1.4 -0.95,2.45 l -1.6,1.15 -1.95,0.25 Q -7.95,12.85 -8.9,10.9 -9.4,9.8 -9.2,8.55 -9,7.3 -8.15,6.45 q 0.8,-0.9 2.05,-1.1 l 2.35,0.15 q 1.1,0.5 1.8,1.55 0.7,1.05 0.65,2.25"
         fill="#ffffff"
         fill-rule="evenodd"
         stroke="none"
         id="path4" />
      <path
         d="m 27.3,-21.6 q -0.95,0.3 -1.75,0.75 -1.85,-1.2 -3.85,-2.05 l 5.4,-3.95 q 4.2,-2.9 6.6,-3.7 l 4.4,0.15 q 0.6,0.4 0.8,1.15 l 0.05,1.45 q -0.35,1.35 -2.45,2.55 -1.8,1 -4.5,2 l -4.7,1.65 m -37.6,14.15 q 1,0.7 1.05,1.8 0,0.65 -0.75,2 -0.7,1.15 -1.3,1.8 l -1.35,1.05 -0.1,-0.05 q -0.65,-0.6 -1.6,-0.4 l -1.6,0.5 -0.15,0.1 -1.35,0.75 q -7.25,4.55 -15.7,5.4 l -4.7,-0.15 q 0.8,-2.3 2.9,-4.35 1.55,-1.5 4.25,-3.2 l 5.05,-2.75 q 2.9,-1.2 6.65,-1.7 l 2.5,-0.3 4.4,-0.2 1.75,-0.3 h 0.05"
         fill="#dabebe"
         fill-rule="evenodd"
         stroke="none"
         id="path5" />
    </g>
    <g
       id="sprite1"
       transform="translate(17.4,15.85)">
      <use
         ffdec:characterId="31"
         height="57.200001"
         transform="matrix(0.5366,0,0,0.5366,-16.6582,-14.546)"
         width="70.75"
         xlink:href="#sprite2"
         id="use5" />
    </g>
    <g
       id="sprite2"
       transform="translate(-8.65,-10.35)">
      <use
         ffdec:characterId="30"
         height="57.200001"
         transform="translate(8.65,10.35)"
         width="70.75"
         xlink:href="#shape1"
         id="use6" />
    </g>
    <g
       id="shape1"
       transform="translate(-8.65,-10.35)">
      <path
         d="m 14.8,41.7 q 0.65,-1.75 2.65,-2.5 1.8,-0.8 3.7,-0.25 1.15,0.45 2.25,1.2 l 0.9,0.4 q 1.65,0.9 2.85,2.5 L 37.8,30.1 q 2.35,-2.8 3.75,-3.95 1.5,-1.15 4.25,-2.4 18.2,-8.85 27.65,-12.6 2.15,-0.8 3.25,-0.8 h 0.8 l 1.9,2.4 -0.2,0.8 q -0.2,1.1 -1.55,3 -5.85,8.25 -18.85,23.8 -1.85,2.35 -3.35,3.5 -1.4,1.15 -4.75,2.75 l -15.15,7.15 q 1.2,1.6 1.75,3.4 l 0.2,1 0.55,2.5 q 0.1,1.95 -1.1,3.55 -1.2,1.65 -3.05,1.9 l -1.3,0.05 q -1.65,0.2 -3.45,-0.65 -1.85,-0.9 -3,-2.6 L 25,60.95 23.8,62.1 q -2.6,2.85 -4.3,3.95 -2.85,1.8 -5.5,1.45 l -1.65,-0.5 -1.2,-0.7 -0.2,-0.2 q -1,-0.85 -1.6,-1.9 L 9.25,64 9.15,63.8 8.75,62.4 q -0.2,-0.8 -0.05,-1.7 0.25,-2.65 2.7,-5.05 1.5,-1.3 4.9,-3.15 L 17.7,51.55 16.05,50 q -1.35,-1.5 -1.8,-3.6 -0.4,-1.85 0.25,-3.45 l 0.3,-1.25"
         fill="#000000"
         fill-opacity="0.372549"
         fill-rule="evenodd"
         stroke="none"
         id="path6" />
    </g>
  </defs>
</svg>
