<?xml version="1.0" encoding="UTF-8" standalone="no"?>
<svg
   ffdec:objectType="frame"
   height="53.672115"
   width="55.59697"
   version="1.1"
   id="svg4"
   xmlns:xlink="http://www.w3.org/1999/xlink"
   xmlns="http://www.w3.org/2000/svg"
   xmlns:svg="http://www.w3.org/2000/svg"
   xmlns:ffdec="https://www.free-decompiler.com/flash">
  <g
     transform="translate(28.8,25.247115)"
     id="g1">
    <use
       ffdec:characterId="17"
       height="119.15"
       id="rarity"
       transform="translate(-58.5,-60.65)"
       width="119.15"
       xlink:href="#sprite0" />
    <use
       ffdec:characterId="203"
       height="53.650002"
       transform="translate(-28.8,-25.25)"
       width="55.599998"
       xlink:href="#shape0"
       id="use1" />
  </g>
  <defs
     id="defs4">
    <g
       id="shape0"
       transform="translate(28.5,27.75)">
      <path
         d="m -19.4,21.05 -3.35,-2.7 -2.05,-3.3 q -2,-3.85 -2.7,-6.3 Q -29,3.9 -28.25,-1.6 -27.5,-6.65 -25,-11.55 l 3.1,-4.95 q 1.75,-2.45 3.85,-4.2 2.25,-1.8 5.95,-3.4 l 5.35,-2.1 4.2,-1.2 q 4.9,-0.95 9.4,0.7 1.7,0.6 5.8,2.95 4.75,2.9 6.6,4.7 2.2,2.15 4.05,5.5 2.35,4.3 3.25,9 0.95,4.85 0.25,9.5 -0.7,4.8 -3.15,9 -2.5,4.3 -6.35,7.05 -2.75,1.95 -6.4,3.35 L 7.1,25.5 2,25.9 q -5.95,0.1 -9.05,-0.2 -5,-0.55 -8.55,-2.35 l -3.8,-2.3 M 5,-5.2 5.55,-5.8 Q 5.9,-6.3 5.9,-7.85 5.65,-14.35 4.8,-20.25 L 4.7,-21.5 2.6,-22.05 q -4.5,-0.7 -11.1,2.3 -5.7,2.7 -8.2,5.75 -1.4,1.7 -2.9,5.05 -2.35,5.45 -2.65,9.9 1.05,0.55 2.5,1.65 l 5.6,4.4 1.15,1.3 0.4,1.4 0.05,1.05 0.25,6.15 0.05,1.05 1.65,0.7 2.2,0.7 6.6,0.8 L 4.05,20 3.4,18.45 2.3,15.35 1.9,14.2 0.1,9.85 -0.4,8.75 -1.75,6.3 V 6.25 l -0.7,-1.6 -0.2,-1 q 0,-1.15 1.45,-3 L 1.75,-2.65 3.1,-3.9 4.2,-4.7 5,-5.2 m 9.85,-10.2 -3.95,-2.85 -1.9,-1.15 0.25,7.35 q 2.3,-1 6,-2.95 l -0.4,-0.4 m 3.9,5.2 -0.45,-0.8 -0.35,-0.6 -0.3,0.1 -1.3,0.4 -2.65,1.1 -0.95,0.25 -1.15,0.5 -0.8,0.25 -0.6,0.15 -0.85,0.3 v 1.25 q 0,2.5 -0.65,3.5 -0.35,0.6 -1.05,1.1 L 6.4,-1.8 Q 3.95,-0.25 1.65,2.4 0.75,3.5 0.7,4.25 V 4.4 Q 0.65,5 1,6.05 l 4.45,13.7 v 0.05 q 5.45,-0.9 9.2,-3.85 2.9,-2.2 4.7,-5.65 1.8,-3.3 2.2,-7.05 0.3,-2.95 -0.15,-5.75 -0.6,-3.95 -2.65,-7.7 m -33.8,23 -0.3,-1.6 -0.25,-0.85 -0.75,-0.6 -1.65,-1.2 q -1.15,-0.9 -1.65,-1.2 l -1.6,-0.85 -0.6,-0.35 1.55,4.15 1.6,2.85 0.75,1 q 1.15,1.35 3.65,2.75 l -0.3,-1.8 -0.45,-2.3"
         fill="#000000"
         fill-rule="evenodd"
         stroke="none"
         id="path1" />
      <path
         d="M 1.9,14.2 1.5,14.05 Q 0.35,13.25 -0.25,12.1 L -0.85,10.9 -1,10.45 -2.8,10.6 -4.35,10.3 -5.85,9.85 -7.8,9.25 -9.6,7.7 q -1.4,-1.85 -1.65,-4.4 -0.2,-2.4 0.6,-4.75 L -9.7,-3.5 q 1.85,-2.95 6.05,-4.45 l 1.95,-0.55 3.35,0.4 q 1.7,0.65 2.75,2 L 5,-5.2 4.2,-4.7 3.1,-3.9 1.75,-2.65 -1.2,0.65 q -1.45,1.85 -1.45,3 l 0.2,1 0.7,1.6 V 6.3 l 1.35,2.45 0.5,1.1 1.8,4.35 m -14.45,-3.45 q 0.35,0.15 0.65,0.9 1.05,2.35 1.2,3.45 l 0.1,1.4 0.2,0.05 3.3,0.5 3.25,0.4 2.2,0.35 4.25,0.45 0.8,0.2 0.65,1.55 -5.85,0.15 -6.6,-0.8 -2.2,-0.7 -1.65,-0.7 -0.05,-1.05 -0.25,-6.15 M 21.4,-2.5 q 0.45,2.8 0.15,5.75 -0.4,3.75 -2.2,7.05 -1.8,3.45 -4.7,5.65 -3.75,2.95 -9.2,3.85 V 19.75 L 1,6.05 Q 0.65,5 0.7,4.4 V 4.25 Q 0.75,3.5 1.65,2.4 3.95,-0.25 6.4,-1.8 l 1.25,-0.9 q 0.7,-0.5 1.05,-1.1 0.65,-1 0.65,-3.5 v -1.25 l 0.85,-0.3 0.6,-0.15 0.8,-0.25 1.15,-0.5 0.95,-0.25 2.65,-1.1 1.3,-0.4 0.3,-0.1 0.35,0.6 0.45,0.8 -0.1,0.05 -0.7,0.4 -0.85,0.35 -0.95,0.45 -1.85,0.2 -1.1,0.35 -1.7,0.45 -0.5,0.2 -0.1,4.15 q -0.1,1.1 -0.5,1.55 L 9.15,-1.1 5.8,1.45 2.9,4.45 2.55,4.9 2.8,5.25 l 1.15,2 0.75,1.9 2,6.45 0.25,1.15 Q 9.5,16.4 11.4,14.9 l 2.3,-2.4 1.4,-1.8 1.15,-2.3 q 1.6,-3.75 2.85,-8.1 0.4,-1.55 0.9,-2.1 0.55,-0.65 1.4,-0.7 M -18.7,13.15 -17,13 l 1.35,-0.2 h 0.6 l 0.45,2.3 0.3,1.8 q -2.5,-1.4 -3.65,-2.75 l -0.75,-1"
         fill="#8b8b8b"
         fill-rule="evenodd"
         stroke="none"
         id="path2" />
      <path
         d="M 5,-5.2 4.4,-6.1 q -1.05,-1.35 -2.75,-2 l -3.35,-0.4 -1.95,0.55 q -4.2,1.5 -6.05,4.45 l -0.95,2.05 q -0.8,2.35 -0.6,4.75 0.25,2.55 1.65,4.4 l 1.8,1.55 1.95,0.6 1.5,0.45 1.55,0.3 1.8,-0.15 0.15,0.45 0.6,1.2 q 0.6,1.15 1.75,1.95 l 0.4,0.15 0.4,1.15 1.1,3.1 -0.8,-0.2 -4.25,-0.45 -2.2,-0.35 -3.25,-0.4 -3.3,-0.5 -0.2,-0.05 -0.1,-1.4 q -0.15,-1.1 -1.2,-3.45 -0.3,-0.75 -0.65,-0.9 L -12.6,9.7 -13,8.3 -14.15,7 -19.75,2.6 q -1.45,-1.1 -2.5,-1.65 0.3,-4.45 2.65,-9.9 1.5,-3.35 2.9,-5.05 2.5,-3.05 8.2,-5.75 6.6,-3 11.1,-2.3 l 2.1,0.55 0.1,1.25 q 0.85,5.9 1.1,12.4 0,1.55 -0.35,2.05 L 5,-5.2 m 9.85,-10.2 0.4,0.4 q -3.7,1.95 -6,2.95 L 9,-19.4 l 1.9,1.15 3.95,2.85 m 6.55,12.9 q -0.85,0.05 -1.4,0.7 -0.5,0.55 -0.9,2.1 -1.25,4.35 -2.85,8.1 l -1.15,2.3 -1.4,1.8 -2.3,2.4 Q 9.5,16.4 6.95,16.75 L 6.7,15.6 4.7,9.15 3.95,7.25 2.8,5.25 2.55,4.9 2.9,4.45 5.8,1.45 9.15,-1.1 10.4,-2.05 q 0.4,-0.45 0.5,-1.55 l 0.1,-4.15 0.5,-0.2 1.7,-0.45 1.1,-0.35 1.85,-0.2 0.95,-0.45 0.85,-0.35 0.7,-0.4 0.1,-0.05 q 2.05,3.75 2.65,7.7 m -40.1,15.65 -1.6,-2.85 -1.55,-4.15 0.6,0.35 1.6,0.85 q 0.5,0.3 1.65,1.2 l 1.65,1.2 0.75,0.6 0.25,0.85 0.3,1.6 h -0.6 L -17,13 l -1.7,0.15"
         fill="#b2b2b2"
         fill-rule="evenodd"
         stroke="none"
         id="path3" />
    </g>
    <g
       id="sprite1"
       transform="translate(17.4,15.85)">
      <use
         ffdec:characterId="31"
         height="57.200001"
         transform="matrix(0.5366,0,0,0.5366,-16.6582,-14.546)"
         width="70.75"
         xlink:href="#sprite2"
         id="use3" />
    </g>
    <g
       id="sprite2"
       transform="translate(-8.65,-10.35)">
      <use
         ffdec:characterId="30"
         height="57.200001"
         transform="translate(8.65,10.35)"
         width="70.75"
         xlink:href="#shape1"
         id="use4" />
    </g>
    <g
       id="shape1"
       transform="translate(-8.65,-10.35)">
      <path
         d="m 14.8,41.7 q 0.65,-1.75 2.65,-2.5 1.8,-0.8 3.7,-0.25 1.15,0.45 2.25,1.2 l 0.9,0.4 q 1.65,0.9 2.85,2.5 L 37.8,30.1 q 2.35,-2.8 3.75,-3.95 1.5,-1.15 4.25,-2.4 18.2,-8.85 27.65,-12.6 2.15,-0.8 3.25,-0.8 h 0.8 l 1.9,2.4 -0.2,0.8 q -0.2,1.1 -1.55,3 -5.85,8.25 -18.85,23.8 -1.85,2.35 -3.35,3.5 -1.4,1.15 -4.75,2.75 l -15.15,7.15 q 1.2,1.6 1.75,3.4 l 0.2,1 0.55,2.5 q 0.1,1.95 -1.1,3.55 -1.2,1.65 -3.05,1.9 l -1.3,0.05 q -1.65,0.2 -3.45,-0.65 -1.85,-0.9 -3,-2.6 L 25,60.95 23.8,62.1 q -2.6,2.85 -4.3,3.95 -2.85,1.8 -5.5,1.45 l -1.65,-0.5 -1.2,-0.7 -0.2,-0.2 q -1,-0.85 -1.6,-1.9 L 9.25,64 9.15,63.8 8.75,62.4 q -0.2,-0.8 -0.05,-1.7 0.25,-2.65 2.7,-5.05 1.5,-1.3 4.9,-3.15 L 17.7,51.55 16.05,50 q -1.35,-1.5 -1.8,-3.6 -0.4,-1.85 0.25,-3.45 l 0.3,-1.25"
         fill="#000000"
         fill-opacity="0.372549"
         fill-rule="evenodd"
         stroke="none"
         id="path4" />
    </g>
  </defs>
</svg>
