<?xml version="1.0" encoding="UTF-8" standalone="no"?>
<svg
   ffdec:objectType="frame"
   height="75.694122"
   width="61.2323"
   version="1.1"
   id="svg7"
   xmlns:xlink="http://www.w3.org/1999/xlink"
   xmlns="http://www.w3.org/2000/svg"
   xmlns:svg="http://www.w3.org/2000/svg"
   xmlns:ffdec="https://www.free-decompiler.com/flash">
  <g
     transform="translate(34.919444,37.202459)"
     id="g1">
    <use
       ffdec:characterId="17"
       height="119.15"
       id="rarity"
       transform="translate(-58.5,-60.65)"
       width="119.15"
       xlink:href="#sprite0" />
    <use
       ffdec:characterId="877"
       height="75.699997"
       transform="translate(-34.9,-37.2)"
       width="61.200001"
       xlink:href="#shape0"
       id="use1" />
  </g>
  <defs
     id="defs7">
    <g
       id="shape0"
       transform="translate(35.45,37.95)">
      <path
         d="m 14.9,-10 q -0.6,1.1 -1.7,1.1 l 1.15,15.6 q 0.7,9.4 0.3,15.55 -0.1,1.65 -0.55,2.5 -0.55,1 -2.7,2.25 -2.25,1.45 -5.8,4.8 -3.8,3.55 -5.75,4.9 -1.7,1.25 -3,1 -1.15,-0.2 -2.35,-1.9 l -3.65,-5.2 -2.45,-3.65 -1.1,-1.7 -1.6,-3.05 q -0.35,-1.3 -0.25,-3.7 l 0.65,-26.05 q -1.8,0.2 -2.7,0 -1.5,-0.2 -2.2,-1.35 -0.4,-0.7 -0.4,-2.5 0,-6.8 0.7,-10.5 0.35,-1.95 1.2,-2.7 0.8,-0.7 2.75,-1 l 8.05,-0.9 -0.15,-0.35 -0.4,-1.15 -0.1,-1.6 q 0.15,-1.55 0.9,-2.85 l 0.75,-1.1 q 1,-1.3 2.5,-1.85 l 1.1,-0.3 1.5,-0.15 2.2,0.15 0.75,0.25 1.35,0.85 1.45,1.3 0.65,0.95 q 0.8,1.5 0.5,3.3 -0.2,1.5 -1.05,2.6 l 5.9,0.7 q 1.7,0.3 2.5,1 0.9,0.8 1.15,3.1 0.4,3.6 0.4,7.15 l -0.1,2.25 q 0,1.35 -0.35,2.1 L 14.9,-10 M 2.45,-30.1 2.35,-30.4 q -0.4,-0.7 -1.3,-1.05 l -0.9,-0.2 -0.85,0.1 q -0.7,0.2 -1.2,0.6 l -0.55,0.75 -0.1,0.35 v 0.75 l 0.6,0.95 0.95,0.3 1.6,0.3 q 0.65,-0.1 1.45,-1.1 l 0.5,-0.8 -0.1,-0.65 m 5.4,14 Q 7.6,-16.55 7.65,-17.05 L 8,-18 l 0.9,-0.45 0.95,0.1 0.7,0.75 0.1,0.95 -0.5,0.85 q -0.4,0.35 -0.95,0.4 -0.85,0 -1.35,-0.7 m -22.05,-2.55 -0.2,1.8 -0.1,4.45 3.8,-0.3 3.95,-0.4 3.9,-0.15 q 7.25,-0.2 10.85,0.1 l 3.1,-0.25 q 0.25,-3.9 -0.55,-7.8 L 8.15,-21.65 3.9,-22 l -17.8,1.05 -0.25,2.05 -0.05,0.25 m 3.65,0.05 0.5,0.5 q 0.7,0.8 0.1,1.9 -0.65,0.95 -1.8,0.75 -0.6,-0.1 -1,-0.65 l -0.35,-1.2 0.45,-0.9 q 0.25,-0.4 0.8,-0.5 l 1.3,0.1 m 11.8,2 -0.7,0.8 -1.05,0.25 q -1.2,-0.1 -1.55,-1.25 -0.35,-1.25 0.65,-1.9 l 2,-0.1 0.7,0.95 q 0.2,0.65 -0.05,1.25 M 9,-8.3 8.85,-9.75 3.05,-9.5 1.65,-9.45 1.7,-8.6 1.95,-3 2.2,1.55 2.4,4.8 2.95,15.25 3.9,15.8 4.75,16.85 5.35,17.4 Q 6.8,18.5 7.6,20 l 0.35,0.55 0.55,0.55 0.35,0.65 q 0,0.5 -0.4,0.65 L 7.8,22.45 7.1,22.25 6.35,21.75 5.6,21.15 4.9,20.8 4.45,20.45 3.95,20 2.8,19.15 l -0.85,-0.6 -0.85,0.7 -4.85,3.55 -1.3,0.7 -0.9,-0.1 -0.3,-0.25 -0.1,-0.1 q -0.3,-0.55 0,-1.25 l 0.9,-1 4.55,-3.95 0.65,-0.75 Q 0.1,15.55 0,14.2 L -0.35,8.7 -0.45,7.2 -0.6,3.8 V 3.35 L -0.5,0.5 -0.45,-1 -0.5,-2.85 -0.7,-5.25 V -6.8 l 0.05,-0.9 0.45,-1.5 v -0.1 h -0.1 l -9.25,0.85 -0.2,8.8 -0.1,6.35 -0.25,11.15 v 0.65 l 0.05,0.7 0.25,1.9 1.45,2.7 0.4,0.55 2.25,3.3 2.95,4.35 q 0.25,0.45 0.65,0.5 0.2,0.05 0.7,-0.3 l 5.3,-4.65 q 3.25,-2.9 5.5,-4.45 l 1.1,-1.05 Q 10.8,21.6 10.8,20.45 10.7,13.8 10.1,5.35 L 9.65,-0.55 9.4,-3.1 9,-8.3"
         fill="#000000"
         fill-rule="evenodd"
         stroke="none"
         id="path1" />
      <path
         d="M 8.15,-21.65 8,-21.6 q -0.9,0.4 -2.95,0.8 l -5.65,1 -4.95,0.45 -4.95,0.7 -0.05,0.05 -1.3,-0.1 q -0.55,0.1 -0.8,0.5 -0.9,0 -1.55,-0.45 l 0.05,-0.25 0.25,-2.05 17.8,-1.05 4.25,0.35 M 3.05,-9.5 8.85,-9.75 9,-8.3 2.6,-3.55 1.95,-3 1.7,-8.6 3.05,-9.5 M 9.4,-3.1 9.65,-0.55 8.3,0.35 6.85,1.3 2.7,4.5 2.4,4.8 2.2,1.55 2.25,1.5 8.65,-2.8 9.4,-3.1 m -15.1,30.75 -2.25,-3.3 1.2,-0.85 0.5,-0.35 0.3,0.25 0.9,0.1 1.3,-0.7 4.85,-3.55 0.85,-0.7 0.85,0.6 L 3.95,20 3.5,21.1 2.45,22 l -3.2,2.35 -3.85,2.8 -1.1,0.5 M -9.85,6.7 l 0.1,-6.35 4.35,-3.45 1.9,-1.35 2.2,-1.85 0.6,-0.5 v 1.55 l 0.2,2.4 0.05,1.85 -1.3,1.1 -5.45,4.8 Q -8.75,6.45 -9.85,6.7 M -0.6,3.35 V 3.8 l 0.15,3.4 -6.15,5.2 q -1,0.8 -1.6,0.85 -0.65,0 -1.1,-0.55 -0.5,-0.55 -0.4,-1.2 0.15,-0.7 1.2,-1.5 L -1.65,4.2 -0.6,3.35"
         fill="#ffffff"
         fill-rule="evenodd"
         stroke="none"
         id="path2" />
      <path
         d="M 3.05,-9.5 1.7,-8.6 1.65,-9.45 3.05,-9.5 m -11,33.85 -0.4,-0.55 -1.45,-2.7 -0.25,-1.9 q 0.7,0.1 1.35,0.7 l 0.4,-0.4 Q -8.5,19.1 -9.25,18.8 L -10.1,18.5 V 17.85 L -9.85,6.7 Q -8.75,6.45 -7.2,4.9 L -1.75,0.1 -0.45,-1 -0.5,0.5 -0.6,3.35 -1.65,4.2 -8.5,10 q -1.05,0.8 -1.2,1.5 -0.1,0.65 0.4,1.2 0.45,0.55 1.1,0.55 0.6,-0.05 1.6,-0.85 l 6.15,-5.2 0.1,1.5 0.35,5.5 q 0.1,1.35 -0.25,1.9 l -0.65,0.75 -4.55,3.95 -0.9,1 q -0.3,0.7 0,1.25 l 0.1,0.1 -0.5,0.35 -1.2,0.85 m -1.8,-24 0.2,-8.8 9.25,-0.85 0.1,0.1 -0.45,1.5 -0.05,0.9 -0.6,0.5 -2.2,1.85 -1.9,1.35 -4.35,3.45"
         fill="#ffffff"
         fill-opacity="0.498039"
         fill-rule="evenodd"
         stroke="none"
         id="path3" />
      <path
         d="M 1.95,-3 2.6,-3.55 9,-8.3 9.4,-3.1 8.65,-2.8 2.25,1.5 2.2,1.55 1.95,-3 m 7.7,2.45 0.45,5.9 q 0.6,8.45 0.7,15.1 0,1.15 -0.3,1.6 L 9.4,23.1 q -2.25,1.55 -5.5,4.45 l -5.3,4.65 q -0.5,0.35 -0.7,0.3 -0.4,-0.05 -0.65,-0.5 l -2.95,-4.35 1.1,-0.5 3.85,-2.8 L 2.45,22 3.5,21.1 3.95,20 l 0.5,0.45 0.45,0.35 0.7,0.35 0.75,0.6 0.75,0.5 0.7,0.2 0.65,-0.05 q 0.4,-0.15 0.4,-0.65 L 8.5,21.1 7.95,20.55 7.6,20 Q 6.8,18.5 5.35,17.4 L 4.75,16.85 3.9,15.8 2.95,15.25 2.4,4.8 2.7,4.5 6.85,1.3 8.3,0.35 9.65,-0.55"
         fill="#ffffff"
         fill-opacity="0.247059"
         fill-rule="evenodd"
         stroke="none"
         id="path4" />
      <path
         d="m 8.15,-21.65 2.4,0.45 q 0.8,3.9 0.55,7.8 L 8,-13.15 q -3.6,-0.3 -10.85,-0.1 l -3.9,0.15 -3.95,0.4 -3.8,0.3 0.1,-4.45 0.2,-1.8 q 0.65,0.45 1.55,0.45 l -0.45,0.9 0.35,1.2 q 0.4,0.55 1,0.65 1.15,0.2 1.8,-0.75 0.6,-1.1 -0.1,-1.9 l -0.5,-0.5 0.05,-0.05 4.95,-0.7 4.95,-0.45 5.65,-1 Q 7.1,-21.2 8,-21.6 l 0.15,-0.05 m -0.3,5.55 q 0.5,0.7 1.35,0.7 0.55,-0.05 0.95,-0.4 l 0.5,-0.85 -0.1,-0.95 -0.7,-0.75 L 8.9,-18.45 8,-18 7.65,-17.05 q -0.05,0.5 0.2,0.95 m -6.6,-0.5 q 0.25,-0.6 0.05,-1.25 l -0.7,-0.95 -2,0.1 q -1,0.65 -0.65,1.9 0.35,1.15 1.55,1.25 l 1.05,-0.25 0.7,-0.8"
         fill="#c1c1c1"
         fill-rule="evenodd"
         stroke="none"
         id="path5" />
      <path
         d="m 2.55,-35.45 0.7,-0.4 q 2.6,-1.4 5.95,-1.4 3.05,0 6.15,1.05 3.45,1.2 5.35,2.95 l 2.55,3.1 2.05,3.55 q 0.9,2.7 0.05,6.35 -0.95,4 -3.4,6.45 -1.4,1.35 -3.95,2.8 -1.6,0.95 -2.6,1 h -0.5 l 0.05,-0.15 q 0.35,-0.75 0.35,-2.1 l 0.1,-2.25 0.95,-0.5 q 1.9,-1 3.2,-2.55 1.35,-1.7 1.8,-3.65 0.4,-2.1 -0.4,-4.3 -0.7,-2.1 -2.3,-3.7 -3,-2.95 -7.9,-3.5 L 6,-32.35 5.35,-33.3 3.9,-34.6 2.55,-35.45 M -9.15,30.6 -11,31.5 q -5.7,1.95 -11.45,-0.05 -5.75,-2.05 -8.9,-7.15 -1.8,-2.75 -3.05,-7.35 -0.85,-3.25 -1,-5.4 -0.5,-6.35 2.6,-13.1 l 1.2,-2.45 1,-2.5 q 1,-3.1 0.25,-5.4 -0.4,-1.2 -1.75,-3.3 -1.45,-2.7 -1.35,-6 0.1,-3.15 1.45,-6 2.75,-5.6 8.7,-8.45 5.35,-2.65 12.05,-2.25 3.7,0.25 6.3,1.4 1.05,0.45 1.95,1.1 -1.5,0.55 -2.5,1.85 l -0.75,1.1 q -2.6,-1.15 -6.3,-1.15 -6.15,0.1 -10.4,2.8 -2.4,1.5 -3.9,3.75 -1.7,2.4 -2,5.05 -0.25,2.1 0.3,3.7 l 1.1,2.1 1.2,2.05 q 1.95,4.1 -0.55,10.45 l -2.1,4.95 q -1.2,2.9 -1.65,5.05 -0.95,5.15 1.5,11.8 1.6,4.3 3.9,6.35 2.6,2.45 7.45,3.25 2.75,0.45 4.35,-0.05 l 1.75,-0.7 2.45,3.65 m 6.6,-60.45 0.1,-0.35 0.55,-0.75 q 0.5,-0.4 1.2,-0.6 l 0.85,-0.1 0.9,0.2 q 0.9,0.35 1.3,1.05 l 0.1,0.3 -1.35,0.8 -1.75,0.1 -0.45,-0.2 -0.95,-0.25 q -0.2,-0.05 -0.5,-0.2"
         fill="#484848"
         fill-rule="evenodd"
         stroke="none"
         id="path6" />
    </g>
    <g
       id="sprite1"
       transform="translate(17.4,15.85)">
      <use
         ffdec:characterId="31"
         height="57.200001"
         transform="matrix(0.5366,0,0,0.5366,-16.6582,-14.546)"
         width="70.75"
         xlink:href="#sprite2"
         id="use6" />
    </g>
    <g
       id="sprite2"
       transform="translate(-8.65,-10.35)">
      <use
         ffdec:characterId="30"
         height="57.200001"
         transform="translate(8.65,10.35)"
         width="70.75"
         xlink:href="#shape1"
         id="use7" />
    </g>
    <g
       id="shape1"
       transform="translate(-8.65,-10.35)">
      <path
         d="m 14.8,41.7 q 0.65,-1.75 2.65,-2.5 1.8,-0.8 3.7,-0.25 1.15,0.45 2.25,1.2 l 0.9,0.4 q 1.65,0.9 2.85,2.5 L 37.8,30.1 q 2.35,-2.8 3.75,-3.95 1.5,-1.15 4.25,-2.4 18.2,-8.85 27.65,-12.6 2.15,-0.8 3.25,-0.8 h 0.8 l 1.9,2.4 -0.2,0.8 q -0.2,1.1 -1.55,3 -5.85,8.25 -18.85,23.8 -1.85,2.35 -3.35,3.5 -1.4,1.15 -4.75,2.75 l -15.15,7.15 q 1.2,1.6 1.75,3.4 l 0.2,1 0.55,2.5 q 0.1,1.95 -1.1,3.55 -1.2,1.65 -3.05,1.9 l -1.3,0.05 q -1.65,0.2 -3.45,-0.65 -1.85,-0.9 -3,-2.6 L 25,60.95 23.8,62.1 q -2.6,2.85 -4.3,3.95 -2.85,1.8 -5.5,1.45 l -1.65,-0.5 -1.2,-0.7 -0.2,-0.2 q -1,-0.85 -1.6,-1.9 L 9.25,64 9.15,63.8 8.75,62.4 q -0.2,-0.8 -0.05,-1.7 0.25,-2.65 2.7,-5.05 1.5,-1.3 4.9,-3.15 L 17.7,51.55 16.05,50 q -1.35,-1.5 -1.8,-3.6 -0.4,-1.85 0.25,-3.45 l 0.3,-1.25"
         fill="#000000"
         fill-opacity="0.372549"
         fill-rule="evenodd"
         stroke="none"
         id="path7" />
    </g>
  </defs>
</svg>
