<?xml version="1.0" encoding="UTF-8" standalone="no"?>
<svg
   ffdec:objectType="frame"
   height="74.174065"
   width="87.090179"
   version="1.1"
   id="svg5"
   xmlns:xlink="http://www.w3.org/1999/xlink"
   xmlns="http://www.w3.org/2000/svg"
   xmlns:svg="http://www.w3.org/2000/svg"
   xmlns:ffdec="https://www.free-decompiler.com/flash">
  <g
     transform="translate(39.737681,38.115441)"
     id="g1">
    <use
       ffdec:characterId="17"
       height="119.15"
       id="rarity"
       transform="translate(-58.5,-60.65)"
       width="119.15"
       xlink:href="#sprite0" />
    <use
       ffdec:characterId="1068"
       height="74.150002"
       transform="translate(-39.75,-38.1)"
       width="87.099998"
       xlink:href="#shape0"
       id="use1" />
  </g>
  <defs
     id="defs5">
    <g
       id="shape0"
       transform="translate(86.55,39.45)">
      <path
         d="m -73.5,4.65 q 0.35,-3.35 0.9,-5.4 l 0.55,-1.7 q -4.05,-1.4 -7.45,-4.3 -4.5,-3.9 -6.15,-9.3 -1.75,-5.45 -0.05,-11.15 1.65,-5.8 6.05,-9.3 2.75,-2.15 5.45,-2.7 4.25,-0.95 9.95,1.5 6.4,2.7 11,7.5 4.55,4.8 6.3,10.55 l 4.15,-0.15 0.15,-0.2 5.15,-5.55 4.05,-4 q 2.45,-2.05 6.05,-4.2 3.35,-2.05 5.65,-2.85 l 9.55,-0.3 q 4.95,1.2 8.25,4.7 1.85,1.95 2.9,4.3 1.1,2.3 1.4,5.1 0.45,3 -0.1,5.25 -0.75,3 -3.3,5.9 -2.75,3.15 -7.9,6.55 -4.05,2.7 -7.2,4.1 -2.9,1.35 -5.6,1.95 0.5,2.95 0.4,6.2 -0.1,3.2 -0.85,5.85 -0.5,1.75 -2.1,5.05 -1.9,4 -3.3,5.7 l -1.65,1.7 1.05,2.25 q 0.75,1.9 0.35,3.05 -0.25,0.8 -0.95,1.25 l -1.45,0.2 -1.05,-1.05 -0.6,-1.45 -1,-1.55 q -4.55,2.95 -8.35,3.9 -6.95,1.8 -16.5,-1.4 l -0.15,0.25 -0.85,1.8 q -0.55,1 -1.25,1.45 -1.3,0.9 -2.75,0.35 -1.45,-0.55 -1.85,-2.05 -0.35,-1.45 0.85,-3.75 l 0.35,-0.65 -0.3,-0.2 q -3.7,-2.6 -6.1,-7.95 -1.7,-3.95 -1.95,-7.45 -0.3,-3.05 0.25,-7.8 m 6.6,-14.9 4.85,-3.65 q 4.1,-2.65 6.1,-3.55 l 3.8,-1.3 q -1.75,-3.9 -4.95,-7.15 -4,-4.05 -9.35,-6.2 -4.2,-1.75 -7.1,-0.75 -2.25,0.75 -4,3.35 -1.45,2.05 -2,4.55 -0.55,2.55 -0.15,5 0.4,2.5 1.75,4.7 1.3,2.2 3.3,3.7 2.3,1.75 6.2,2.9 l 1.55,-1.6 m 4.2,6.25 -0.05,-0.05 -1,1.25 q -2.05,2.8 -2.8,5 -0.65,1.95 -0.75,4.45 -0.4,6.7 2.75,12.3 l 1.55,2.15 1.9,1.4 q 2.45,-2.35 5.6,-3.95 1.35,-0.65 2.75,-1.15 5.6,-1.95 11.5,-0.55 l 0.7,0.2 q 1.4,0.35 2.4,0.95 1.15,0.7 2.2,1.7 l 0.55,0.55 q 2.55,-2.65 4.05,-6.3 2.1,-5.15 1.5,-10.65 -0.2,-1.75 -0.65,-3.3 l -0.5,-1.5 -0.1,-0.25 -0.2,0.25 -7.25,8.3 -2.55,3.35 -1.35,2.25 q -0.85,1.25 -1.85,1.65 -1.55,0.55 -3.35,-0.6 L -48.5,12.8 -50.15,11 -59.95,-1.05 -62.7,-4 m 4.8,18.2 q -0.95,-0.05 -1.75,-0.5 -0.9,-0.55 -1.35,-1.65 -0.4,-1 -0.25,-1.95 V 9.95 q 0.25,-1.3 1.35,-2.1 h 0.05 q 1.1,-0.85 2.35,-0.8 1.1,0.1 2,0.8 0.85,0.7 1.2,1.75 0.3,1.05 -0.05,2.15 l -0.4,0.95 -0.8,0.8 q -0.85,0.65 -2,0.7 h -0.35 m 16.5,-27.05 -5.5,-0.15 -3,0.65 q -2.85,0.75 -5.2,1.95 l -2.35,1.4 0.55,0.55 2.1,2.55 9.05,11.15 11.65,-12.05 -2.2,-2.35 q -3,-3 -5.1,-3.7 m 9.45,-1.15 2.6,2.85 1.7,-0.9 1.55,0.1 q 0.8,0.35 1.05,1.05 0.35,0.9 -0.55,2.4 l -0.95,1.35 0.85,1.65 q 7.55,-1.5 15.3,-8.2 2.45,-2.05 3.3,-3.6 1.35,-2.4 0.8,-5.45 -0.6,-2.9 -2.65,-4.95 -3,-2.9 -7.1,-3 -3.6,0 -8.15,2.55 -4.25,2.5 -7.75,5.85 l -2.95,3 -1.6,1.5 q 2.15,1.35 4.55,3.8 m -0.65,21.45 0.85,0.6 q 0.85,0.85 0.95,2.15 0.1,1.3 -0.6,2.25 -0.7,1 -2,1.25 L -35.7,13.45 -36,13.3 q -0.85,-0.55 -1.25,-1.5 -0.55,-1.2 -0.1,-2.4 0.3,-0.95 1.2,-1.7 1,-0.7 2.25,-0.6 l 1.3,0.35 m -20.8,18 q 4,1 8.1,0.15 3.05,-0.6 5.65,-2.05 -1,-0.65 -1.85,-0.95 l -2.6,-0.5 q -5,-0.4 -9.3,1.95 l -1.5,0.95 1.5,0.45"
         fill="#000000"
         fill-rule="evenodd"
         stroke="none"
         id="path1" />
      <path
         d="m -66.9,-10.25 -1.55,1.6 q -3.9,-1.15 -6.2,-2.9 -2,-1.5 -3.3,-3.7 -1.35,-2.2 -1.75,-4.7 -0.4,-2.45 0.15,-5 0.55,-2.5 2,-4.55 1.75,-2.6 4,-3.35 2.9,-1 7.1,0.75 5.35,2.15 9.35,6.2 3.2,3.25 4.95,7.15 l -3.8,1.3 q -2,0.9 -6.1,3.55 l -4.85,3.65 M -31.95,-14 q -2.4,-2.45 -4.55,-3.8 l 1.6,-1.5 2.95,-3 q 3.5,-3.35 7.75,-5.85 4.55,-2.55 8.15,-2.55 4.1,0.1 7.1,3 2.05,2.05 2.65,4.95 0.55,3.05 -0.8,5.45 -0.85,1.55 -3.3,3.6 -7.75,6.7 -15.3,8.2 l -0.85,-1.65 0.95,-1.35 q 0.9,-1.5 0.55,-2.4 -0.25,-0.7 -1.05,-1.05 l -1.55,-0.1 -1.7,0.9 -2.6,-2.85"
         fill="#696969"
         fill-opacity="0.498039"
         fill-rule="evenodd"
         stroke="none"
         id="path2" />
      <path
         d="m -61.25,10.1 q -1.1,-1.85 -1.7,-4 -0.9,-3.3 -0.5,-6.7 0.2,-1.8 0.75,-3.4 l 2.75,2.95 9.8,12.05 1.65,1.8 0.85,0.65 q 1.8,1.15 3.35,0.6 1,-0.4 1.85,-1.65 l 1.35,-2.25 2.55,-3.35 7.25,-8.3 -0.25,3.1 q -0.4,3.6 -1.05,5.85 L -33.9,7.1 q -1.25,-0.1 -2.25,0.6 -0.9,0.75 -1.2,1.7 -0.45,1.2 0.1,2.4 0.4,0.95 1.25,1.5 -0.7,0.75 -1.55,1.5 l -3,2.25 -0.7,-0.2 q -5.9,-1.4 -11.5,0.55 l -2,-0.95 -3.15,-2.25 h 0.35 q 1.15,-0.05 2,-0.7 l 0.8,-0.8 0.4,-0.95 q 0.35,-1.1 0.05,-2.15 -0.35,-1.05 -1.2,-1.75 -0.9,-0.7 -2,-0.8 -1.25,-0.05 -2.35,0.8 h -0.05 q -1.1,0.8 -1.35,2.1 v 0.15 m 19.85,-22.95 q 2.1,0.7 5.1,3.7 l 2.2,2.35 -11.65,12.05 -9.05,-11.15 -2.1,-2.55 -0.55,-0.55 2.35,-1.4 q 2.35,-1.2 5.2,-1.95 l 3,-0.65 5.5,0.15"
         fill="#484848"
         fill-rule="evenodd"
         stroke="none"
         id="path3" />
      <path
         d="m -62.7,-4 q -0.55,1.6 -0.75,3.4 -0.4,3.4 0.5,6.7 0.6,2.15 1.7,4 -0.15,0.95 0.25,1.95 0.45,1.1 1.35,1.65 0.8,0.45 1.75,0.5 l 3.15,2.25 2,0.95 q -1.4,0.5 -2.75,1.15 -3.15,1.6 -5.6,3.95 l -1.9,-1.4 -1.55,-2.15 q -3.15,-5.6 -2.75,-12.3 0.1,-2.5 0.75,-4.45 0.75,-2.2 2.8,-5 l 1,-1.25 0.05,0.05 m 31.4,2.5 0.2,-0.25 0.1,0.25 0.5,1.5 q 0.45,1.55 0.65,3.3 0.6,5.5 -1.5,10.65 -1.5,3.65 -4.05,6.3 l -0.55,-0.55 q -1.05,-1 -2.2,-1.7 -1,-0.6 -2.4,-0.95 l 3,-2.25 q 0.85,-0.75 1.55,-1.5 l 0.3,0.15 2.3,0.25 q 1.3,-0.25 2,-1.25 0.7,-0.95 0.6,-2.25 -0.1,-1.3 -0.95,-2.15 l -0.85,-0.6 q 0.65,-2.25 1.05,-5.85 l 0.25,-3.1 m -22.1,26.95 -1.5,-0.45 1.5,-0.95 q 4.3,-2.35 9.3,-1.95 l 2.6,0.5 q 0.85,0.3 1.85,0.95 -2.6,1.45 -5.65,2.05 -4.1,0.85 -8.1,-0.15"
         fill="#2b2b2b"
         fill-rule="evenodd"
         stroke="none"
         id="path4" />
    </g>
    <g
       id="sprite1"
       transform="translate(17.4,15.85)">
      <use
         ffdec:characterId="31"
         height="57.200001"
         transform="matrix(0.5366,0,0,0.5366,-16.6582,-14.546)"
         width="70.75"
         xlink:href="#sprite2"
         id="use4" />
    </g>
    <g
       id="sprite2"
       transform="translate(-8.65,-10.35)">
      <use
         ffdec:characterId="30"
         height="57.200001"
         transform="translate(8.65,10.35)"
         width="70.75"
         xlink:href="#shape1"
         id="use5" />
    </g>
    <g
       id="shape1"
       transform="translate(-8.65,-10.35)">
      <path
         d="m 14.8,41.7 q 0.65,-1.75 2.65,-2.5 1.8,-0.8 3.7,-0.25 1.15,0.45 2.25,1.2 l 0.9,0.4 q 1.65,0.9 2.85,2.5 L 37.8,30.1 q 2.35,-2.8 3.75,-3.95 1.5,-1.15 4.25,-2.4 18.2,-8.85 27.65,-12.6 2.15,-0.8 3.25,-0.8 h 0.8 l 1.9,2.4 -0.2,0.8 q -0.2,1.1 -1.55,3 -5.85,8.25 -18.85,23.8 -1.85,2.35 -3.35,3.5 -1.4,1.15 -4.75,2.75 l -15.15,7.15 q 1.2,1.6 1.75,3.4 l 0.2,1 0.55,2.5 q 0.1,1.95 -1.1,3.55 -1.2,1.65 -3.05,1.9 l -1.3,0.05 q -1.65,0.2 -3.45,-0.65 -1.85,-0.9 -3,-2.6 L 25,60.95 23.8,62.1 q -2.6,2.85 -4.3,3.95 -2.85,1.8 -5.5,1.45 l -1.65,-0.5 -1.2,-0.7 -0.2,-0.2 q -1,-0.85 -1.6,-1.9 L 9.25,64 9.15,63.8 8.75,62.4 q -0.2,-0.8 -0.05,-1.7 0.25,-2.65 2.7,-5.05 1.5,-1.3 4.9,-3.15 L 17.7,51.55 16.05,50 q -1.35,-1.5 -1.8,-3.6 -0.4,-1.85 0.25,-3.45 l 0.3,-1.25"
         fill="#000000"
         fill-opacity="0.372549"
         fill-rule="evenodd"
         stroke="none"
         id="path5" />
    </g>
  </defs>
</svg>
