<?xml version="1.0" encoding="UTF-8" standalone="no"?>
<svg
   ffdec:objectType="frame"
   height="73.558334"
   width="87.778183"
   version="1.1"
   id="svg5"
   sodipodi:docname="ITEM Stunning Beard.svg"
   xmlns:inkscape="http://www.inkscape.org/namespaces/inkscape"
   xmlns:sodipodi="http://sodipodi.sourceforge.net/DTD/sodipodi-0.dtd"
   xmlns:xlink="http://www.w3.org/1999/xlink"
   xmlns="http://www.w3.org/2000/svg"
   xmlns:svg="http://www.w3.org/2000/svg"
   xmlns:ffdec="https://www.free-decompiler.com/flash">
  <sodipodi:namedview
     id="namedview5"
     pagecolor="#ffffff"
     bordercolor="#000000"
     borderopacity="0.25"
     inkscape:showpageshadow="2"
     inkscape:pageopacity="0.0"
     inkscape:pagecheckerboard="0"
     inkscape:deskcolor="#d1d1d1"
     fit-margin-top="5"
     fit-margin-left="5"
     fit-margin-right="5"
     fit-margin-bottom="5" />
  <g
     transform="translate(43.868182,30.658333)"
     id="g1">
    <use
       ffdec:characterId="17"
       height="119.15"
       id="rarity"
       transform="translate(-58.5,-60.65)"
       width="119.15"
       xlink:href="#sprite0" />
    <use
       ffdec:characterId="1049"
       height="73.550003"
       transform="translate(-43.85,-30.65)"
       width="87.75"
       xlink:href="#shape0"
       id="use1" />
  </g>
  <defs
     id="defs5">
    <g
       id="shape0"
       transform="translate(90.65,32)">
      <path
         d="m -61.15,-20.8 0.35,-0.95 q 0.7,-1.4 1.65,-1.45 0.5,-0.05 0.9,0.25 0.45,0.35 0.6,0.85 0.2,0.8 -0.4,2.2 l -1.15,4.1 -0.05,1.1 q 1.65,-2.5 3.8,-4.55 2.65,-2.5 5.65,-3.75 3.35,-1.45 6.55,-1.05 1.95,0.25 4.25,1.3 l 4,2.05 q 1.5,0.8 2.35,0.45 l 0.9,-0.65 0.15,-0.1 2.65,-2.85 q 2.25,-1.75 4.85,-1.9 2.15,-0.2 3.9,0.75 -0.1,-1.75 -0.85,-3.5 -0.75,-1.75 -0.4,-2.5 0.5,-1.1 2.2,-1 4,0 7.95,4.25 6,6.4 7.55,15.15 l 0.5,4.2 q 0.6,5.2 0.2,8.15 -0.25,2.1 -1.1,4.6 l -1.7,4.45 -2.2,4.7 q -2.15,3.45 -5.85,5.9 -2.1,1.35 -4.45,2.25 l -0.4,0.9 q -1.15,2.75 -4.3,6.25 l -2,1.9 q -2.3,1.95 -5.15,2.85 l -1.05,0.15 q -2.5,3 -6.55,5.8 -1.6,1.1 -2.7,1.45 l -0.15,0.1 q -0.4,0.5 -1.2,0.5 -0.85,0 -1.55,-0.7 l -1.05,-1.4 -1.3,-1.8 -0.5,-0.6 -4.05,-0.7 -4.1,-1.65 q -3.75,-1.85 -5.85,-3.4 -2.8,-2.2 -4,-4.8 l -0.15,0.15 -1.85,2.25 -1.25,1.75 -1,2.2 q -0.45,0.45 -0.9,0.35 -0.5,-0.05 -0.85,-0.5 l -0.05,-0.15 -0.95,-0.4 q -2.45,-1.4 -4.15,-3.5 -1.2,-1.35 -3.4,-5.15 l -1.45,-2.8 -0.35,-1.05 q -1.1,-0.5 -2.4,-1.55 -3.15,-2.65 -5.4,-5.9 -1.4,-2 -1.9,-3.7 -0.45,-1.55 -0.35,-4.4 0.4,-7.65 3.85,-14.65 3.45,-7.1 9.35,-11.9 l 4.4,-3.2 4.1,-2.8 q 1.1,-0.8 1.95,-1 1.3,-0.3 1.95,0.7 0.5,0.9 -0.55,2.8 -2.95,4.95 -4,10.75 l -0.2,0.8 q -0.3,0.6 -0.75,0.65 -0.6,0.15 -1,-0.6 l -0.15,-1.2 q 0,-3.55 1.3,-7.3 l -0.3,0.2 q -6.2,4.05 -10.2,10.65 -4.1,6.65 -4.9,14.25 l -0.1,2.7 0.35,2.45 q 0.4,1.45 1.55,3.15 l 1.85,2.65 0.2,0.25 0.65,1 0.15,-2 q 0.55,-5.75 1.4,-9.1 0.3,-1.15 1,-1.3 Q -78.35,2 -78,2.3 l 0.4,0.8 q 0.1,0.45 -0.25,1.7 l -0.45,3.05 -0.15,2.6 Q -78.6,13.7 -78.1,16 l 0.05,0.35 q 0.55,2.35 2.2,5.1 l 2.3,3.35 3.85,4.6 0.05,-0.2 0.65,-1.35 0.4,-0.7 1.6,-2.2 1.45,-1.3 0.35,-0.1 q -1.4,-5.6 0.35,-9.2 l 0.1,-0.1 q 0.3,-0.55 0.65,-0.55 0.6,-0.05 0.8,0.9 l 0.2,2.35 v 2.4 l 0.05,0.3 0.9,2.85 1.6,2.8 q 2,2.65 6.35,4.85 l 3.65,1.8 3.2,1.85 V 33.25 L -47.4,32.6 v -1.65 l 0.4,-2.4 0.35,-0.8 q 0.35,-0.45 0.8,-0.3 0.4,0.15 0.4,0.65 l 0.35,3.25 q 0.05,1.7 1.15,3.25 l 1.4,1.7 1.05,1.7 0.6,0.8 3.75,-3.5 q 2.85,-2.55 4.35,-4.45 l 1,-1.4 4.65,-9.15 0.05,1.35 q 0.2,0.7 0.1,1.8 -0.2,2.75 -1.2,5.25 2.35,-1.75 4.2,-4 2.15,-2.7 3.3,-5.7 l 0.5,-1.55 q 0.8,-2.65 0.95,-6.4 L -19,9.8 q 0.5,-0.8 1.1,-0.45 0.35,0.2 0.55,0.75 l 0.3,0.9 0.3,1.85 q 0.05,1.1 -0.25,3.1 l -0.05,0.4 -0.45,2.25 1.6,-1.35 1.05,-0.85 q 3.1,-2.7 4.35,-4.75 0.75,-1.15 2.05,-4.55 0.8,-2.2 1.25,-3.8 l 0.6,-2.6 q 0.25,-2.2 0.1,-4.95 -0.3,-6.15 -1.75,-10.8 l -0.05,0.1 -0.3,0.7 q -0.4,0.65 -1.2,0.55 -0.8,-0.2 -0.9,-0.9 l -0.05,-0.6 -0.3,-0.35 v -0.05 l -0.55,-0.65 -0.35,-0.35 v 0.2 l -0.05,0.85 -0.2,0.7 -0.1,0.8 -0.1,0.65 -0.25,0.85 -0.5,1.3 -0.55,1.15 1.9,3.95 0.05,0.15 0.75,2.35 q 0.05,0.75 -0.25,1.4 l -0.4,0.65 q -0.65,0.95 -1.7,1.45 l -4.3,0.2 q -1.6,-0.4 -2.55,-1.3 l 3.8,-1.7 0.75,-0.35 -2.5,-5.2 -0.2,-0.5 q -1.3,-3.25 -1.35,-6 l -0.05,-1.35 -0.2,-1.35 q -0.3,-0.85 -0.95,-1.6 -1.15,-1.45 -2.3,-1.7 -1.6,-0.3 -3.55,1.15 l -1.5,1.15 q -0.9,0.65 -1.7,0.9 l -1.55,0.15 q -2.35,1.05 -6.1,0.1 l -3.45,-1 -3.55,-0.45 q -2.35,0.15 -4.65,1.6 l -2.4,1.8 -0.25,0.2 q -5.9,5.7 -7.3,14.65 l -0.25,1.45 -0.2,1.15 -0.4,1.35 -0.55,1.05 -1.35,1.2 -0.2,0.1 q -0.85,0.3 -1.5,-0.25 -0.7,-0.6 -0.7,-2.15 -0.05,-2.3 0.25,-4.5 l 0.05,-0.35 0.75,-3.8 1.1,-3.5 0.25,-0.6 -0.25,-0.9 -0.1,-3.6 0.05,-1.4 0.15,-2.05 0.35,-1.35 0.6,-1.9 m -8.6,6.55 2.45,-4.25 1.45,-1.8 2.35,-1.75 0.85,-0.4 1,0.25 q 0.45,0.4 0.45,0.9 l -0.05,0.45 q -0.2,0.55 -0.8,1.2 l -2.15,2.75 -0.35,0.5 -1,1.8 -1.15,3.05 -0.8,1.8 -0.4,0.6 -0.4,0.35 q -0.6,0.45 -1.15,0.25 -0.6,-0.2 -0.95,-1 -0.6,-1.5 0.25,-3.75 l 0.4,-0.95 m 24.7,4.35 v -0.05 q 0.5,-0.45 1.2,-0.5 0.6,-0.05 1.05,0.3 l 0.1,0.1 0.25,0.3 0.1,0.4 q 0.15,0.7 -0.2,1.75 -0.65,2.05 -1.4,3.75 2.6,-0.7 4.25,-2.8 l 1.2,-1.65 1.35,-1.5 q 0.75,-0.55 1.25,-0.3 l 0.5,0.5 q 0.4,0.8 0,2.15 l -0.05,0.35 0.05,-0.05 0.55,-0.4 1.6,-1.65 0.8,-1.2 0.15,-0.55 0.55,-1 0.4,-0.4 0.9,-0.4 0.25,0.05 0.65,0.35 q 0.55,0.55 0.55,1.15 l -0.2,0.8 -0.05,0.15 q -0.75,2.1 -1.7,3.25 l -0.75,0.7 -1,0.6 -1.1,0.5 h -1.15 l -0.85,0.05 -0.6,-0.35 -0.75,1.25 -1.15,1.2 -1.75,1.25 q -0.55,0.3 -1.65,0.7 l -1,0.3 q -0.9,0.25 -1.9,0 l -0.85,-0.4 q -1.1,1.7 -2.45,3.05 l -2.5,2 -1.65,1 -2.8,1.25 -2.95,0.25 -0.5,-0.1 q -0.65,-0.3 -0.7,-0.9 0,-0.65 1.25,-1.2 l 2.9,-1.75 3.95,-2.8 q 2.25,-1.9 3.95,-5.75 l 0.65,-1.6 0.6,-1.25 0.65,-0.9 m 17.45,-3.45 0.65,0.25 q 0.4,0.4 0.55,1.75 v 0.15 l 0.35,1.45 0.85,1.35 0.75,0.95 1.15,0.85 2.15,2.1 q 1.1,1.2 1.3,1.8 v 0.15 l -0.15,0.1 -0.25,0.1 -1.75,0.05 -0.8,-0.15 -0.95,-0.4 L -24.4,-3.3 -26.55,-5 -27.3,-5.95 -27.9,-6.8 -28.7,-8.35 -29,-9.9 v -0.5 l 0.05,-1.35 0.25,-1.05 q 0.25,-0.45 0.8,-0.55 h 0.3 m -13.95,16 0.95,-1.3 2.55,-1.9 q 2.05,-1.25 3.7,-1.7 l 4.05,-0.25 2.2,0.75 1.05,0.5 0.85,0.65 q 0.55,0.6 0.45,1.5 -0.1,0.85 -0.85,1.25 l -0.3,0.1 -0.45,0.05 h -0.5 l -2.6,-0.6 -1,-0.4 -2.65,0.1 q -0.95,0.15 -2.05,0.65 -1.55,0.7 -2.55,1.55 l -2.1,1.85 -0.7,0.25 h -0.1 L -42.2,5.1 V 4.15 l 0.25,-0.75 0.4,-0.75 m 13,2.1 0.05,0.25 q 0.3,1.3 0.1,1.95 -0.2,0.65 -0.7,1.2 -1.2,1.25 -2.2,1.75 -1.4,0.7 -2.7,0.4 0.15,-0.6 0.75,-1.25 l 0.55,-0.65 1.6,-1.8 1.2,-2.1 q 0.45,-0.45 0.9,-0.35 0.3,0.1 0.45,0.6 m 11.7,-26.5 q 1.05,1.55 1.4,2.55 l 0.3,2 0.05,1.9 0.25,-1.5 0.1,-2.3 -0.05,-0.1 q -0.4,-0.9 0.3,-1.8 0.7,-0.9 1.7,-0.55 0.55,0.1 0.95,0.5 l 0.6,0.5 0.6,0.55 0.65,0.75 -0.1,-0.2 q -2.85,-5.5 -7.65,-8.4 0.85,2.1 0.2,4.4 l -0.2,0.6 0.9,1.1"
         fill="#000000"
         fill-rule="evenodd"
         stroke="none"
         id="path1" />
      <path
         d="m -69.8,-14.4 0.05,0.15 -0.4,0.95 q -0.85,2.25 -0.25,3.75 0.35,0.8 0.95,1 0.55,0.2 1.15,-0.25 l 0.4,-0.35 0.4,-0.6 0.8,-1.8 1.15,-3.05 1,-1.8 0.35,-0.5 2.15,-2.75 q 0.6,-0.65 0.8,-1.2 l 0.1,0.05 -0.6,1.9 -0.35,1.35 -0.15,2.05 -0.05,1.4 0.1,3.6 0.25,0.9 -0.25,0.6 -1.1,3.5 -0.75,3.8 -0.05,0.35 -0.75,-0.1 q -0.7,-0.25 -1.35,-0.95 l -2.4,3.15 q -5.55,8.05 -6.25,17.65 -0.15,2.3 -1,3.05 -1.65,-2.75 -2.2,-5.1 L -78.1,16 q -0.5,-2.3 -0.35,-5.55 l 0.15,-2.6 0.45,-3.05 Q -77.5,3.55 -77.6,3.1 L -78,2.3 q -0.35,-0.3 -0.75,-0.25 -0.7,0.15 -1,1.3 -0.85,3.35 -1.4,9.1 l -0.15,2 -0.65,-1 -0.2,-0.25 -0.1,-1 q -0.45,-6.15 1.4,-11.9 l -1.9,2.7 q -1.15,1.65 -2.6,1.9 l -0.55,0.05 0.1,-2.7 q 0.8,-7.6 4.9,-14.25 4,-6.6 10.2,-10.65 l 0.3,-0.2 q -1.3,3.75 -1.3,7.3 l 0.15,1.2 q 0.4,0.75 1,0.6 0.45,-0.05 0.75,-0.65 m 9.75,17.6 0.4,-1.35 0.2,-1.15 0.25,-1.45 q 1.4,-8.95 7.3,-14.65 l 0.25,-0.2 2.4,-1.8 q 2.3,-1.45 4.65,-1.6 l 3.55,0.45 3.45,1 q 3.75,0.95 6.1,-0.1 l 1.55,-0.15 q 0.8,-0.25 1.7,-0.9 l 1.5,-1.15 q 1.95,-1.45 3.55,-1.15 1.15,0.25 2.3,1.7 0.65,0.75 0.95,1.6 l 0.2,1.35 0.05,1.35 q 0.05,2.75 1.35,6 l 0.2,0.5 2.5,5.2 -0.75,0.35 Q -17.6,-3 -18.9,-3.9 l -1.45,-1.35 -1.3,-1.45 -3.35,-2.95 -1.4,-1.7 q -0.15,-1.35 -0.55,-1.75 l -0.65,-0.25 -0.45,-0.45 -0.15,-0.05 -1.6,0.9 -0.4,0.25 -0.25,-0.05 -0.9,0.4 -0.4,0.4 -0.4,0.15 -1.85,0.6 -3.45,0.95 q -2.8,0.8 -4.35,0.9 h -0.55 l -0.1,-0.4 -0.25,-0.3 -0.1,-0.1 q -0.45,-0.35 -1.05,-0.3 -0.7,0.05 -1.2,0.5 v 0.05 l -0.55,-0.3 -0.2,0.15 q -0.95,0.8 -2.4,3.1 -2.25,3.5 -3.95,5.45 -2.45,2.75 -5.1,4.1 -1.7,0.8 -2.8,0.6 m 48.8,-5.45 q 0.3,-0.65 0.25,-1.4 l -0.75,-2.35 -0.05,-0.15 -1.9,-3.95 0.55,-1.15 0.5,-1.3 0.25,-0.85 0.1,-0.65 0.1,-0.8 0.2,-0.7 0.05,-0.85 v -0.2 l 0.35,0.35 0.55,0.65 v 0.05 l 0.3,0.35 0.05,0.6 q 0.1,0.7 0.9,0.9 0.8,0.1 1.2,-0.55 l 0.3,-0.7 0.05,-0.1 q 1.45,4.65 1.75,10.8 0.15,2.75 -0.1,4.95 l -0.6,2.6 q -0.45,1.6 -1.25,3.8 -1.3,3.4 -2.05,4.55 -1.25,2.05 -4.35,4.75 l -1.05,0.85 -1.6,1.35 0.45,-2.25 q 2.8,-4.3 3.95,-7.05 2.25,-5.1 2.05,-9.65 l -0.2,-1.9 m -5.8,13.25 -0.3,-0.9 Q -17.55,9.55 -17.9,9.35 -18.5,9 -19,9.8 l -0.25,1.25 q -0.15,3.75 -0.95,6.4 l -0.5,1.55 -0.1,0.15 -0.9,1.25 q -0.7,0.6 -1.4,0.6 -0.9,0 -1.4,-0.65 -0.4,-0.5 -0.3,-1.45 l 0.5,-1.5 1.45,-3.35 0.15,-1.15 0.3,-4.65 0.25,-1.7 q 0.25,-1 0.9,-1.5 0.55,-0.4 1.35,-0.5 1.9,-0.4 2.75,0.7 0.25,0.35 0.45,1.35 0.3,1.8 -0.1,3.6 l -0.25,0.8 m -46,8.65 -0.05,-0.3 v -2.4 l -0.2,-2.35 q -0.2,-0.95 -0.8,-0.9 -0.35,0 -0.65,0.55 l 0.35,-3.6 0.65,-1.9 Q -63.1,7.7 -61.6,7 l 1.05,-0.35 1.4,-0.2 h 0.25 q 1.2,0.1 2,1 0.75,0.9 0.85,3.35 l 0.1,5.05 q 0.1,2.85 0.6,4.95 l 0.7,2.05 1.5,2.15 q 0.95,1.25 1.05,2.25 0.1,0.45 -0.05,0.7 -0.35,0.6 -1.4,0.4 -2.45,-0.4 -4.7,-2.75 L -60,23.45 -61.7,21.3 -63.05,19.65 M -27.35,2.3 q 0.1,0.8 -0.4,1.5 l -0.8,0.95 Q -28.7,4.25 -29,4.15 -29.45,4.05 -29.9,4.5 l -1.2,2.1 -1.6,1.8 -0.55,0.65 -3.2,0.25 -2.65,0.1 Q -40.7,9.3 -41.65,8.6 L -42.7,7.3 -43.1,6.15 -43.15,5.85 -42.8,4.5 -41.95,3.4 -42.2,4.15 V 5.1 l 0.6,0.6 h 0.1 l 0.7,-0.25 2.1,-1.85 q 1,-0.85 2.55,-1.55 1.1,-0.5 2.05,-0.65 l 2.65,-0.1 1,0.4 2.6,0.6 h 0.5 m -4.7,14.25 0.6,-2.25 -0.1,-1.4 q -0.1,-1.55 1.15,-2.4 l 2.6,-0.15 q 0.6,0.35 0.95,1 0.35,0.6 0.3,1.3 l -0.4,2.25 -0.5,1.65 q -0.6,1.8 -1.3,3 -0.85,1.55 -2.2,2.45 -0.9,0.65 -1.65,0.45 l -0.9,-0.6 -0.35,-1.1 q -0.05,-0.9 0.7,-2.15 l 1.1,-2.05 m -7.1,7.6 q -0.15,0.85 -0.8,1.2 l -1.45,0.15 -1.35,-0.8 q -1.85,-1.6 -3.2,-5.05 l -0.9,-3.15 0.15,-3.25 q 0.2,-1.35 0.65,-1.85 l 0.8,-0.5 0.9,0.1 q 0.4,0.25 0.55,0.8 l 0.9,0.2 q 0.6,0.25 1.35,1 l 1.2,1.25 1,1.5 0.1,-0.15 1.25,-0.7 1.6,-0.1 q 0.85,0.15 1.45,0.65 0.8,0.75 1.05,1.95 0.2,1.05 0.05,2.25 l -0.4,2.7 v 1.25 q -0.05,1.05 -0.55,2.25 -0.4,1 -0.9,1.4 -0.75,0.6 -1.6,0.25 -0.85,-0.3 -1.1,-1.2 l 0.05,-1.45 -0.05,-0.6 -0.5,-0.6 -0.25,-0.65 -0.05,0.2 q 0.1,0.5 0.05,0.95"
         fill="#453f3c"
         fill-rule="evenodd"
         stroke="none"
         id="path2" />
      <path
         d="m -64.1,-1.35 q -0.3,2.2 -0.25,4.5 0,1.55 0.7,2.15 0.65,0.55 1.5,0.25 l 0.2,-0.1 1.35,-1.2 0.55,-1.05 q 1.1,0.2 2.8,-0.6 2.65,-1.35 5.1,-4.1 1.7,-1.95 3.95,-5.45 1.45,-2.3 2.4,-3.1 l 0.2,-0.15 0.55,0.3 -0.65,0.9 -0.6,1.25 -0.65,1.6 q -1.7,3.85 -3.95,5.75 l -3.95,2.8 -2.9,1.75 Q -59,4.7 -59,5.35 q 0.05,0.6 0.7,0.9 l 0.5,0.1 2.95,-0.25 2.8,-1.25 1.65,-1 2.5,-2 0.6,0.2 3.7,0.3 h 1.1 l 0.85,0.25 0.1,0.05 -0.4,0.75 -0.85,1.1 -0.35,1.35 0.05,0.3 0.4,1.15 1.05,1.3 q 0.95,0.7 2.55,0.8 l 2.65,-0.1 3.2,-0.25 q -0.6,0.65 -0.75,1.25 1.3,0.3 2.7,-0.4 1,-0.5 2.2,-1.75 0.5,-0.55 0.7,-1.2 Q -28.2,6.3 -28.5,5 l -0.05,-0.25 0.8,-0.95 q 0.5,-0.7 0.4,-1.5 l 0.45,-0.05 0.3,-0.1 q 0.75,-0.4 0.85,-1.25 0.1,-0.9 -0.45,-1.5 l -0.85,-0.65 3.3,-1.6 0.95,0.4 0.8,0.15 1.75,-0.05 0.25,-0.1 0.15,-0.1 V -2.7 q -0.2,-0.6 -1.3,-1.8 l -2.15,-2.1 -1.15,-0.85 -0.75,-0.95 -0.85,-1.35 -0.35,-1.45 v -0.15 l 1.4,1.7 3.35,2.95 1.3,1.45 1.45,1.35 q 1.3,0.9 2.5,0.95 l -3.8,1.7 q 0.95,0.9 2.55,1.3 l 4.3,-0.2 q 1.05,-0.5 1.7,-1.45 l 0.4,-0.65 0.2,1.9 q 0.2,4.55 -2.05,9.65 -1.15,2.75 -3.95,7.05 l 0.05,-0.4 q 0.3,-2 0.25,-3.1 l -0.3,-1.85 0.25,-0.8 q 0.4,-1.8 0.1,-3.6 -0.2,-1 -0.45,-1.35 -0.85,-1.1 -2.75,-0.7 -0.8,0.1 -1.35,0.5 -0.65,0.5 -0.9,1.5 l -0.25,1.7 -0.3,4.65 -0.15,1.15 -1.45,3.35 -0.5,1.5 q -0.1,0.95 0.3,1.45 0.5,0.65 1.4,0.65 0.7,0 1.4,-0.6 l 0.9,-1.25 0.1,-0.15 q -1.15,3 -3.3,5.7 -1.85,2.25 -4.2,4 1,-2.5 1.2,-5.25 0.1,-1.1 -0.1,-1.8 l -0.05,-1.35 -4.65,9.15 -1,1.4 q -1.5,1.9 -4.35,4.45 l -3.75,3.5 -0.6,-0.8 -1.05,-1.7 -1.4,-1.7 q -1.1,-1.55 -1.15,-3.25 l -0.35,-3.25 q 0,-0.5 -0.4,-0.65 -0.45,-0.15 -0.8,0.3 l -0.35,0.8 -0.4,2.4 v 1.65 l 0.05,0.65 v 0.55 l -3.2,-1.85 -3.65,-1.8 q -4.35,-2.2 -6.35,-4.85 l -1.6,-2.8 -0.9,-2.85 1.35,1.65 1.7,2.15 1.75,2.15 q 2.25,2.35 4.7,2.75 1.05,0.2 1.4,-0.4 0.15,-0.25 0.05,-0.7 -0.1,-1 -1.05,-2.25 l -1.5,-2.15 -0.7,-2.05 q -0.5,-2.1 -0.6,-4.95 l -0.1,-5.05 q -0.1,-2.45 -0.85,-3.35 -0.8,-0.9 -2,-1 h -0.25 l -1.4,0.2 L -61.6,7 q -1.5,0.7 -2.15,1.75 l -0.65,1.9 -0.35,3.6 -0.1,0.1 q -1.75,3.6 -0.35,9.2 l -0.35,0.1 -1.45,1.3 -1.6,2.2 -0.4,0.7 -0.65,1.35 -0.05,0.2 -3.85,-4.6 -2.3,-3.35 q 0.85,-0.75 1,-3.05 0.7,-9.6 6.25,-17.65 l 2.4,-3.15 q 0.65,0.7 1.35,0.95 l 0.75,0.1 M -82.15,13.2 -84,10.55 Q -85.15,8.85 -85.55,7.4 L -85.9,4.95 -85.35,4.9 q 1.45,-0.25 2.6,-1.9 l 1.9,-2.7 q -1.85,5.75 -1.4,11.9 l 0.1,1 m 39.8,-22.55 h 0.55 q 1.55,-0.1 4.35,-0.9 l 3.45,-0.95 1.85,-0.6 0.4,-0.15 -0.55,1 -0.15,0.55 -0.8,1.2 -1.6,1.65 -0.55,0.4 -0.05,0.05 0.05,-0.35 q 0.4,-1.35 0,-2.15 l -0.5,-0.5 q -0.5,-0.25 -1.25,0.3 l -1.35,1.5 -1.2,1.65 q -1.65,2.1 -4.25,2.8 0.75,-1.7 1.4,-3.75 0.35,-1.05 0.2,-1.75 m 12.15,-3.35 0.4,-0.25 1.6,-0.9 0.15,0.05 0.45,0.45 h -0.3 q -0.55,0.1 -0.8,0.55 l -0.25,1.05 -0.05,1.35 -0.1,0.05 -0.15,0.1 0.05,-0.15 0.2,-0.8 q 0,-0.6 -0.55,-1.15 l -0.65,-0.35 m 13.35,-9.05 -0.9,-1.1 0.2,-0.6 q 0.65,-2.3 -0.2,-4.4 4.8,2.9 7.65,8.4 l 0.1,0.2 -0.65,-0.75 -0.6,-0.55 -0.6,-0.5 q -0.4,-0.4 -0.95,-0.5 -1,-0.35 -1.7,0.55 -0.7,0.9 -0.3,1.8 l 0.05,0.1 -0.1,2.3 -0.25,1.5 -0.05,-1.9 -0.3,-2 q -0.35,-1 -1.4,-2.55 m -22.3,45.9 Q -39.1,23.7 -39.2,23.2 l 0.05,-0.2 0.25,0.65 0.5,0.6 0.05,0.6 -0.05,1.45 q 0.25,0.9 1.1,1.2 0.85,0.35 1.6,-0.25 0.5,-0.4 0.9,-1.4 0.5,-1.2 0.55,-2.25 v -1.25 l 0.4,-2.7 q 0.15,-1.2 -0.05,-2.25 -0.25,-1.2 -1.05,-1.95 -0.6,-0.5 -1.45,-0.65 l -1.6,0.1 -1.25,0.7 -0.1,0.15 -1,-1.5 -1.2,-1.25 q -0.75,-0.75 -1.35,-1 l -0.9,-0.2 q -0.15,-0.55 -0.55,-0.8 l -0.9,-0.1 -0.8,0.5 q -0.45,0.5 -0.65,1.85 l -0.15,3.25 0.9,3.15 q 1.35,3.45 3.2,5.05 l 1.35,0.8 1.45,-0.15 q 0.65,-0.35 0.8,-1.2 m 7.1,-7.6 -1.1,2.05 q -0.75,1.25 -0.7,2.15 l 0.35,1.1 0.9,0.6 q 0.75,0.2 1.65,-0.45 1.35,-0.9 2.2,-2.45 0.7,-1.2 1.3,-3 l 0.5,-1.65 0.4,-2.25 q 0.05,-0.7 -0.3,-1.3 -0.35,-0.65 -0.95,-1 l -2.6,0.15 q -1.25,0.85 -1.15,2.4 l 0.1,1.4 -0.6,2.25"
         fill="#2f2b29"
         fill-rule="evenodd"
         stroke="none"
         id="path3" />
      <path
         d="m -47.9,1.85 q 1.35,-1.35 2.45,-3.05 l 0.85,0.4 q 1,0.25 1.9,0 l 1,-0.3 q 1.1,-0.4 1.65,-0.7 l 1.75,-1.25 1.15,-1.2 0.75,-1.25 0.6,0.35 0.85,-0.05 h 1.15 l 1.1,-0.5 1,-0.6 0.75,-0.7 q 0.95,-1.15 1.7,-3.25 l 0.15,-0.1 0.1,-0.05 v 0.5 l 0.3,1.55 0.8,1.55 0.6,0.85 0.75,0.95 2.15,1.7 0.65,0.45 -3.3,1.6 -1.05,-0.5 -2.2,-0.75 -4.05,0.25 q -1.65,0.45 -3.7,1.7 l -2.55,1.9 -0.95,1.3 -0.1,-0.05 -0.85,-0.25 h -1.1 l -3.7,-0.3 -0.6,-0.2"
         fill="#1a1818"
         fill-rule="evenodd"
         stroke="none"
         id="path4" />
    </g>
    <g
       id="sprite1"
       transform="translate(17.4,15.85)">
      <use
         ffdec:characterId="31"
         height="57.200001"
         transform="matrix(0.5366,0,0,0.5366,-16.6582,-14.546)"
         width="70.75"
         xlink:href="#sprite2"
         id="use4" />
    </g>
    <g
       id="sprite2"
       transform="translate(-8.65,-10.35)">
      <use
         ffdec:characterId="30"
         height="57.200001"
         transform="translate(8.65,10.35)"
         width="70.75"
         xlink:href="#shape1"
         id="use5" />
    </g>
    <g
       id="shape1"
       transform="translate(-8.65,-10.35)">
      <path
         d="m 14.8,41.7 q 0.65,-1.75 2.65,-2.5 1.8,-0.8 3.7,-0.25 1.15,0.45 2.25,1.2 l 0.9,0.4 q 1.65,0.9 2.85,2.5 L 37.8,30.1 q 2.35,-2.8 3.75,-3.95 1.5,-1.15 4.25,-2.4 18.2,-8.85 27.65,-12.6 2.15,-0.8 3.25,-0.8 h 0.8 l 1.9,2.4 -0.2,0.8 q -0.2,1.1 -1.55,3 -5.85,8.25 -18.85,23.8 -1.85,2.35 -3.35,3.5 -1.4,1.15 -4.75,2.75 l -15.15,7.15 q 1.2,1.6 1.75,3.4 l 0.2,1 0.55,2.5 q 0.1,1.95 -1.1,3.55 -1.2,1.65 -3.05,1.9 l -1.3,0.05 q -1.65,0.2 -3.45,-0.65 -1.85,-0.9 -3,-2.6 L 25,60.95 23.8,62.1 q -2.6,2.85 -4.3,3.95 -2.85,1.8 -5.5,1.45 l -1.65,-0.5 -1.2,-0.7 -0.2,-0.2 q -1,-0.85 -1.6,-1.9 L 9.25,64 9.15,63.8 8.75,62.4 q -0.2,-0.8 -0.05,-1.7 0.25,-2.65 2.7,-5.05 1.5,-1.3 4.9,-3.15 L 17.7,51.55 16.05,50 q -1.35,-1.5 -1.8,-3.6 -0.4,-1.85 0.25,-3.45 l 0.3,-1.25"
         fill="#000000"
         fill-opacity="0.372549"
         fill-rule="evenodd"
         stroke="none"
         id="path5" />
    </g>
  </defs>
</svg>
