<?xml version="1.0" encoding="UTF-8" standalone="no"?>
<svg
   ffdec:objectType="frame"
   height="71.70311"
   width="48.728573"
   version="1.1"
   id="svg5"
   xmlns:xlink="http://www.w3.org/1999/xlink"
   xmlns="http://www.w3.org/2000/svg"
   xmlns:svg="http://www.w3.org/2000/svg"
   xmlns:ffdec="https://www.free-decompiler.com/flash">
  <g
     transform="translate(23.7,37.589803)"
     id="g1">
    <use
       ffdec:characterId="17"
       height="119.15"
       id="rarity"
       transform="translate(-58.5,-60.65)"
       width="119.15"
       xlink:href="#sprite0" />
    <use
       ffdec:characterId="641"
       height="71.699997"
       transform="translate(-23.7,-37.6)"
       width="48.75"
       xlink:href="#shape0"
       id="use1" />
  </g>
  <defs
     id="defs5">
    <g
       id="shape0"
       transform="translate(23.3,36.8)">
      <path
         d="m -3.55,-36.75 q 7.9,-0.55 8.95,6.5 0.25,2.05 -0.5,3.85 v 0.2 1.1 l 0.15,0.85 0.2,0.65 q 4.5,3.65 6.3,8.95 1.2,3.4 2,6.9 l 1,-0.1 q 2.95,-0.15 5.75,1.2 1.5,0.7 1.8,2.4 1.9,11.85 3.1,23.8 0.4,3.75 0.1,7.5 -0.4,5.15 -6.15,5.8 l -12,1.45 q -14.4,1.95 -27.6,-2.3 -0.85,-0.3 -0.9,-1.2 L -23.15,10 -23.3,6.15 q 0,-3.05 0.35,-6 1.4,-1.85 3.75,-2.3 2.4,-0.4 4.15,-1.35 -0.35,-3.25 0.1,-6.45 0.65,-4.25 1,-8.6 -6.1,-4.8 -1.1,-11.25 4.5,-5.8 11.5,-6.95 m 0.7,5.5 q -4.55,1 -7.8,4.45 -1.05,1.15 -1.15,2.6 3.35,1.25 3.15,4.6 l -1.1,12.85 -0.05,0.25 v 0.4 0.25 0.2 0.2 q 1.05,2.65 -0.15,3.95 -0.85,0.9 -2.75,1.1 -3.35,0.4 -5.75,2.45 l 0.2,3.75 1.15,-0.45 Q -2.25,0.95 13.3,0.7 L 16.35,0.5 H 17 l -0.4,-2.1 q -3.5,0.5 -6.7,-1 -1,-0.45 -1.45,-1.45 l -0.25,-0.8 -1.3,-5.8 q -2.05,-5.9 -6.4,-10.55 -0.7,-0.8 -0.95,-1.95 -0.6,-3.1 0.25,-5.95 l 0.05,-0.45 0.05,-0.2 v -0.2 -0.25 l -1.25,-0.85 -1.5,-0.2 m -14.7,47.9 q 0.65,2.15 0.85,4.5 l 0.2,2.65 24.65,-2.1 q 5.8,-0.65 11.25,-2.25 L 19.15,17.1 19.1,16.85 Q 18.35,12.45 17.95,7.9 L 17.35,2.9 7.3,4.05 q -8.95,0.65 -17.5,3.15 -3.95,1.2 -7.55,3.1 0.3,3.1 0.2,6.35 m 1.15,9.25 0.05,1.7 q 18.55,2.95 36.3,-1.95 l -0.05,-2.9 q -4.2,1.5 -8.8,2.15 -13.75,1.85 -27.5,0.5 v 0.5"
         fill="#000000"
         fill-rule="evenodd"
         stroke="none"
         id="path1" />
      <path
         d="m -10.2,14.6 q -1,-0.15 -1.65,-0.75 -0.65,-0.55 -0.95,-1.4 -0.3,-0.9 -0.1,-1.7 0.25,-0.9 0.85,-1.5 0.65,-0.65 1.5,-0.8 l 1.7,0.25 q 0.85,0.35 1.35,1.1 0.5,0.7 0.5,1.65 0,0.95 -0.5,1.7 l -1.15,1.1 -1.55,0.35 m 25.15,2.7 q -0.4,0.85 -1.6,1.3 l -2.1,0.45 -7.5,1 -2.8,0.65 -4.65,0.7 -4.7,0.45 -2.4,-0.15 q -1.3,-0.55 -1.4,-2.05 -0.1,-1.45 1.1,-2.3 0.95,-0.7 3.65,-0.7 l 9.95,-1.1 8.75,-1.45 2.55,0.05 q 0.85,0.35 1.25,1.3 0.35,1 -0.1,1.85 M 7.5,6.45 q 1,-0.7 2.25,-0.55 1.3,0.1 2.05,1.05 0.65,0.7 0.75,1.7 0.1,1 -0.35,1.85 -0.45,0.85 -1.35,1.3 L 9,12.15 Q 8.05,12.05 7.3,11.4 6.55,10.75 6.3,9.8 6.1,8.9 6.4,7.95 6.75,7 7.5,6.45"
         fill="#ffffff"
         fill-rule="evenodd"
         stroke="none"
         id="path2" />
      <path
         d="m -10.2,14.6 1.55,-0.35 1.15,-1.1 Q -7,12.4 -7,11.45 -7,10.5 -7.5,9.8 -8,9.05 -8.85,8.7 l -1.7,-0.25 q -0.85,0.15 -1.5,0.8 -0.6,0.6 -0.85,1.5 -0.2,0.8 0.1,1.7 0.3,0.85 0.95,1.4 0.65,0.6 1.65,0.75 m -7.35,2.05 q 0.1,-3.25 -0.2,-6.35 3.6,-1.9 7.55,-3.1 8.55,-2.5 17.5,-3.15 l 10.05,-1.15 0.6,5 q 0.4,4.55 1.15,8.95 l 0.05,0.25 0.25,2.35 q -5.45,1.6 -11.25,2.25 l -24.65,2.1 -0.2,-2.65 q -0.2,-2.35 -0.85,-4.5 m 32.5,0.65 q 0.45,-0.85 0.1,-1.85 -0.4,-0.95 -1.25,-1.3 l -2.55,-0.05 -8.75,1.45 -9.95,1.1 q -2.7,0 -3.65,0.7 -1.2,0.85 -1.1,2.3 0.1,1.5 1.4,2.05 l 2.4,0.15 4.7,-0.45 4.65,-0.7 2.8,-0.65 7.5,-1 2.1,-0.45 q 1.2,-0.45 1.6,-1.3 M 7.5,6.45 Q 6.75,7 6.4,7.95 6.1,8.9 6.3,9.8 q 0.25,0.95 1,1.6 0.75,0.65 1.7,0.75 l 1.85,-0.35 q 0.9,-0.45 1.35,-1.3 0.45,-0.85 0.35,-1.85 -0.1,-1 -0.75,-1.7 Q 11.05,6 9.75,5.9 8.5,5.75 7.5,6.45"
         fill="#0c0c0c"
         fill-rule="evenodd"
         stroke="none"
         id="path3" />
      <path
         d="m -2.85,-31.25 1.5,0.2 1.25,0.85 v 0.25 0.2 l -0.05,0.2 -0.05,0.45 q -0.85,2.85 -0.25,5.95 0.25,1.15 0.95,1.95 4.35,4.65 6.4,10.55 l 1.3,5.8 0.25,0.8 q 0.45,1 1.45,1.45 3.2,1.5 6.7,1 L 17,0.5 H 16.35 L 13.3,0.7 Q -2.25,0.95 -17.1,5.35 l -1.15,0.45 -0.2,-3.75 q 2.4,-2.05 5.75,-2.45 1.9,-0.2 2.75,-1.1 1.2,-1.3 0.15,-3.95 v -0.2 -0.2 -0.25 -0.4 l 0.05,-0.25 1.1,-12.85 q 0.2,-3.35 -3.15,-4.6 0.1,-1.45 1.15,-2.6 3.25,-3.45 7.8,-4.45 M -16.4,25.9 v -0.5 q 13.75,1.35 27.5,-0.5 4.6,-0.65 8.8,-2.15 l 0.05,2.9 q -17.75,4.9 -36.3,1.95 l -0.05,-1.7"
         fill="#101010"
         fill-rule="evenodd"
         stroke="none"
         id="path4" />
    </g>
    <g
       id="sprite1"
       transform="translate(17.4,15.85)">
      <use
         ffdec:characterId="31"
         height="57.200001"
         transform="matrix(0.5366,0,0,0.5366,-16.6582,-14.546)"
         width="70.75"
         xlink:href="#sprite2"
         id="use4" />
    </g>
    <g
       id="sprite2"
       transform="translate(-8.65,-10.35)">
      <use
         ffdec:characterId="30"
         height="57.200001"
         transform="translate(8.65,10.35)"
         width="70.75"
         xlink:href="#shape1"
         id="use5" />
    </g>
    <g
       id="shape1"
       transform="translate(-8.65,-10.35)">
      <path
         d="m 14.8,41.7 q 0.65,-1.75 2.65,-2.5 1.8,-0.8 3.7,-0.25 1.15,0.45 2.25,1.2 l 0.9,0.4 q 1.65,0.9 2.85,2.5 L 37.8,30.1 q 2.35,-2.8 3.75,-3.95 1.5,-1.15 4.25,-2.4 18.2,-8.85 27.65,-12.6 2.15,-0.8 3.25,-0.8 h 0.8 l 1.9,2.4 -0.2,0.8 q -0.2,1.1 -1.55,3 -5.85,8.25 -18.85,23.8 -1.85,2.35 -3.35,3.5 -1.4,1.15 -4.75,2.75 l -15.15,7.15 q 1.2,1.6 1.75,3.4 l 0.2,1 0.55,2.5 q 0.1,1.95 -1.1,3.55 -1.2,1.65 -3.05,1.9 l -1.3,0.05 q -1.65,0.2 -3.45,-0.65 -1.85,-0.9 -3,-2.6 L 25,60.95 23.8,62.1 q -2.6,2.85 -4.3,3.95 -2.85,1.8 -5.5,1.45 l -1.65,-0.5 -1.2,-0.7 -0.2,-0.2 q -1,-0.85 -1.6,-1.9 L 9.25,64 9.15,63.8 8.75,62.4 q -0.2,-0.8 -0.05,-1.7 0.25,-2.65 2.7,-5.05 1.5,-1.3 4.9,-3.15 L 17.7,51.55 16.05,50 q -1.35,-1.5 -1.8,-3.6 -0.4,-1.85 0.25,-3.45 l 0.3,-1.25"
         fill="#000000"
         fill-opacity="0.372549"
         fill-rule="evenodd"
         stroke="none"
         id="path5" />
    </g>
  </defs>
</svg>
