<?xml version="1.0" encoding="UTF-8" standalone="no"?>
<svg
   ffdec:objectType="frame"
   height="87.800003"
   width="75.354462"
   version="1.1"
   id="svg5"
   xmlns:xlink="http://www.w3.org/1999/xlink"
   xmlns="http://www.w3.org/2000/svg"
   xmlns:svg="http://www.w3.org/2000/svg"
   xmlns:ffdec="https://www.free-decompiler.com/flash">
  <g
     transform="translate(40.802381,47.6)"
     id="g1">
    <use
       ffdec:characterId="17"
       height="119.15"
       id="rarity"
       transform="translate(-58.5,-60.65)"
       width="119.15"
       xlink:href="#sprite0" />
    <use
       ffdec:characterId="1125"
       height="87.800003"
       transform="translate(-40.8,-47.6)"
       width="75.349998"
       xlink:href="#shape0"
       id="use1" />
  </g>
  <defs
     id="defs5">
    <g
       id="shape0"
       transform="translate(87.6,48.95)">
      <path
         d="m -23.05,-8.55 q 4.45,5 7.2,11.75 2.55,6.35 3.35,13.5 0.55,4.6 -0.1,7.85 -0.85,4.35 -3.6,6.9 -2.2,2.05 -6.95,3.55 -8.3,2.75 -14.85,3.45 l -7.95,0.4 -15.5,-0.6 -5.45,-0.95 q -2.75,-0.7 -7.55,-2.65 -4.5,-1.8 -6.8,-3.3 -3.6,-2.25 -5.2,-5.4 -2.2,-4.55 -0.2,-12.4 2.3,-8.85 6.9,-15.4 5.15,-7.2 12.55,-10.5 -1.5,-1.85 -2.7,-3.85 l -0.75,-1.55 q -1.45,-3.35 0.1,-6.35 0.75,-1.5 2.15,-2.45 1.45,-0.95 3.05,-1.05 2.6,-0.05 5,1.9 l 1.8,1.8 q 1.25,1.55 2.85,5.2 l 0.8,-0.4 1.85,-0.6 q 1.2,-0.4 1.85,-0.75 -3.2,-8.45 -2.1,-15.25 0.6,-4 2.8,-7.25 2.3,-3.45 5.7,-5.15 1.65,-0.8 3,-0.85 l 3.15,0.5 q 3.3,1.2 5.55,4.1 2.2,2.9 2.5,6.35 0.35,3.75 -1.8,9.3 -1.7,4.6 -4.05,8.85 1.75,0.55 3.1,1.85 2.5,-4 6.05,-6.45 2.2,-1.5 3.75,-1.25 l 2.1,0.8 q 1.3,0.65 1.9,1.3 1.35,1.4 1.25,3.8 0,2.15 -1.1,4.5 -0.6,1.3 -1.45,2.45 -1.15,1.55 -3.25,3.3 l 1.05,1 m -18,-32.45 0.2,0.05 q 0.55,0.2 0.85,0.65 0.25,0.4 0.35,1.05 l 1,0.65 0.45,0.8 q 0.05,0.5 -0.15,0.85 -0.35,0.55 -1.35,0.75 l -0.25,0.05 q -0.25,0.7 -0.7,1.05 l -0.15,0.1 -1.7,-0.05 -0.65,-1 q -1.15,-0.25 -1.6,-0.8 -0.4,-0.45 -0.35,-1.1 l 0.45,-1.15 q 0.65,-0.7 2.1,-0.65 l 0.05,-0.2 0.7,-0.95 0.75,-0.1 m -0.5,21.75 0.15,-1.25 1.35,-3.75 1.8,-3.65 q 1.4,-3.25 2.2,-6.35 0.55,-2.1 0.4,-3.3 -0.25,-1.5 -1.4,-3.25 -0.85,-1.45 -1.65,-2 -1,-0.7 -2.35,-0.7 -1.3,0 -2.45,0.6 -2,1.15 -3.3,3.8 -1.9,3.85 -1.4,8.95 0.4,4.05 2.6,8.8 l 0.55,1.45 0.1,0.35 v 1.2 q -0.4,1.45 -3.1,2.4 l -1.3,0.5 -3.45,1.3 q -1.5,0.5 -2.3,0.5 -0.65,0.85 -1.6,0.65 -0.7,-0.1 -1.45,-1.25 l -3.05,-4.7 -1.1,-1.55 -1.7,-1.5 q -0.75,-0.45 -1.25,-0.35 l -0.7,0.65 q -0.4,0.8 -0.05,1.9 l 0.4,0.7 0.55,0.95 1.15,1.7 1.15,1.45 1.45,1.15 q 0.9,0.65 1.25,1.25 l 0.3,0.7 q 0.15,0.75 -0.2,1.5 -0.5,1.15 -1.65,1.45 -1.2,0.4 -2.5,-0.4 l -0.15,-0.05 -3.65,2.7 q -3.65,2.75 -5.75,5.2 -5.6,6.45 -8,17.75 -1.05,4.9 0.35,7.4 0.75,1.45 2.5,2.6 l 3.3,1.75 2.75,1.2 3,1.25 -0.05,-1.35 0.25,-3.65 0.3,-1.45 0.5,-1.4 0.5,-0.75 0.4,-1.15 0.05,-0.1 q 0.25,-0.5 0.8,-0.65 0.65,-0.2 1.1,0.2 0.6,0.55 0.4,2 l -0.7,3.5 -0.05,1.85 q 0,1.4 0.35,2.2 l 0.6,1.1 0.75,1.3 6.05,0.9 11.65,0.65 q 1,-0.8 1.5,-1.9 l 0.55,-1.4 q 0.3,-0.9 0.45,-1.8 l 0.2,-2.45 0.1,-1.35 q 0.2,-0.75 0.7,-1.05 0.8,-0.4 1.5,0.15 0.5,0.45 0.7,1.15 l 0.05,0.2 0.1,1.6 q 0,2.05 -0.3,3.35 -0.25,1.15 -0.65,2.1 l -0.5,1.3 3.75,-0.3 q 8.45,-0.85 15.45,-3.5 3.05,-1.15 4.3,-2.55 1.9,-2.25 1.8,-7.05 -0.25,-11.95 -6.8,-22 l -2.25,-2.85 -0.7,-0.65 -1.45,-1.25 q -0.8,0.4 -1.4,0.45 -0.9,0 -1.45,-0.6 -0.65,-0.65 -0.4,-1.5 l 0.95,-1.3 0.2,-0.2 4.45,-3.8 q 1.15,-1 1.75,-1.75 0.6,-0.85 1.3,-2.85 0.4,-1.1 0.3,-1.7 -0.1,-1.1 -1,-1.25 -0.65,-0.15 -1.45,0.55 l -1.05,0.9 q -2.05,1.8 -3.3,4 -0.9,1.45 -1.45,3.1 -0.45,1.2 -0.75,1.65 l -0.45,0.45 q -0.75,0.6 -1.7,0.45 l -0.25,-0.05 -1.15,-0.7 q -0.5,-0.5 -0.6,-1.2 -0.15,-0.85 0.55,-2.45 -1.25,-1.05 -2.8,-1.5 l -0.65,-0.15 -0.8,-0.2 q -0.85,-0.25 -1.3,-0.7 -0.8,-0.75 -0.75,-2.3 M -67.1,3.45 -67.55,2.7 Q -68.2,1.45 -68,0.3 l 0.6,-1.7 0.6,-1.1 q 0.95,-1.55 3.05,-3 1.45,-1 3.5,-2 l 2.4,-0.85 1,-0.1 q 1.05,0.1 1.5,0.75 0.55,0.85 0,1.5 l -1.2,0.7 -2.15,1.3 -2.75,1.8 q -1.55,1.25 -2.05,2.55 -0.2,0.55 0.1,0.75 l 0.55,-0.05 q 3.5,-1.75 6.15,-4.55 l 1.2,-1.05 2.1,0.05 q 1.05,0.65 1.05,1.85 0,0.85 -0.9,2.05 l -0.6,0.65 -0.95,0.95 -2.35,1.95 -1.6,1 q -3.1,2 -5.05,1.8 Q -65,5.4 -66.05,4.6 L -67.1,3.45 m 21.7,-3.2 q -0.2,-1.95 0.2,-2.9 l 1,-1.25 q 0.7,-0.5 1.5,-0.4 0.7,0.1 1.2,0.75 0.5,0.65 0.55,1.4 l -0.1,1.3 0.05,1.9 q 0.2,1.45 1.4,4.15 l 0.4,0.7 q 0.4,0.4 0.75,0.25 0.5,-0.1 0.6,-1.2 0.1,-2.3 -0.15,-3.45 l -0.75,-2.35 -0.9,-2.3 q -0.3,-1.05 -0.1,-1.55 0.25,-0.85 1.3,-1.05 0.95,-0.1 1.65,0.55 0.6,0.45 1.15,1.5 l 1.45,2.75 q 0.65,1.75 0.75,5 0,2.6 -0.8,3.9 -0.55,0.9 -1.55,1.55 l -0.75,0.5 -0.35,0.15 -2.95,0.2 Q -41.4,9.95 -42.35,8.8 L -43.2,7.6 Q -44.8,4.7 -45.4,0.5 V 0.25 m 17,23.55 q 0,-2.35 1.75,-3.4 0.8,-0.5 1.95,-0.6 1.8,-0.2 2.9,0.7 0.9,0.75 1.05,2.05 0.05,1.15 -0.4,2.35 -0.5,1.3 -1.5,1.95 -1,0.65 -2.35,0.55 -1.7,-0.1 -2.55,-1 -0.95,-0.95 -0.85,-2.6 M -48.65,7.85 q 0.65,0.85 1.5,3.25 l 0.85,2.85 q 0.3,1.65 0.2,4.25 -0.1,5.95 -0.95,9.15 -0.6,2.5 -1.95,3.5 -1,0.8 -2.65,0.9 l -3,-0.15 -4.65,-0.75 q -2.65,-0.9 -3.5,-2.95 -0.35,-0.85 -0.35,-2.75 0,-4.9 1.7,-9.35 1.8,-4.7 5.15,-7.95 1.4,-1.3 2.5,-1.7 L -51,6.2 q 1.45,0.5 2.35,1.65 m -3.5,2.6 -0.1,-0.05 -0.35,0.1 -0.2,0.15 q -2.05,2.05 -3.6,4.9 l -0.8,1.8 -0.4,1.6 q -0.8,3.8 -0.8,5.7 l 0.15,0.9 0.9,0.7 0.35,0.15 -0.25,-2.35 q 0.15,-3.3 2.85,-7.2 l 1.5,-1.95 q 1.05,-1.25 2.05,-1.25 h 0.05 l -0.4,-1.15 -0.7,-1.75 -0.25,-0.3 m -27,8 q 0.3,-1.05 1.15,-1.85 0.9,-0.8 2,-0.95 l 2.15,0.35 q 1.05,0.55 1.55,1.55 0.5,0.95 0.3,2.15 -0.2,1.1 -0.95,1.95 -0.85,0.95 -1.8,1.2 -1.5,0.5 -2.85,-0.3 -1.35,-0.75 -1.65,-2.25 -0.2,-0.9 0.1,-1.85"
         fill="#000000"
         fill-rule="evenodd"
         stroke="none"
         id="path1" />
      <path
         d="m -40.65,-35.1 q 0.45,-0.35 0.7,-1.05 l 0.25,-0.05 q 1,-0.2 1.35,-0.75 0.2,-0.35 0.15,-0.85 l -0.45,-0.8 -1,-0.65 q -0.1,-0.65 -0.35,-1.05 -0.3,-0.45 -0.85,-0.65 l -0.2,-0.05 -0.2,-0.2 -2.4,-0.1 q -1.05,0.5 -1.75,1.85 l -0.8,2.1 -0.25,1.7 q 0.1,1.05 1.1,1.75 1,0.7 2.15,0.55 1.05,-0.15 1.9,-1 l 0.65,-0.75 m -4.3,15.55 -0.1,-0.35 -0.55,-1.45 q -2.2,-4.75 -2.6,-8.8 -0.5,-5.1 1.4,-8.95 1.3,-2.65 3.3,-3.8 1.15,-0.6 2.45,-0.6 1.35,0 2.35,0.7 0.8,0.55 1.65,2 1.15,1.75 1.4,3.25 0.15,1.2 -0.4,3.3 -0.8,3.1 -2.2,6.35 l -1.8,3.65 -1.35,3.75 -0.15,1.25 -2.7,-0.25 -0.7,-0.05 m 6.25,3.5 0.65,0.15 q 1.55,0.45 2.8,1.5 -0.7,1.6 -0.55,2.45 0.1,0.7 0.6,1.2 l 1.15,0.7 0.25,0.05 -0.2,0.15 -0.75,1.6 0.1,1.75 0.35,1.15 0.7,0.8 0.6,0.6 1,0.55 q 0.6,0.35 1.2,0.4 l 1.15,0.05 1,-0.05 q 0.7,-0.25 1.2,-0.65 l 0.55,-0.45 0.7,-0.6 2.25,2.85 q 6.55,10.05 6.8,22 0.1,4.8 -1.8,7.05 -1.25,1.4 -4.3,2.55 -7,2.65 -15.45,3.5 l 0.45,-0.7 0.2,-1 -0.1,-3.1 -0.1,-1 -0.4,-0.9 q -0.6,-1 -1.1,-1.3 -0.75,-0.4 -1.4,-0.25 -0.2,-0.7 -0.7,-1.15 -0.7,-0.55 -1.5,-0.15 -0.5,0.3 -0.7,1.05 l -0.1,1.35 -0.2,2.45 q -0.15,0.9 -0.45,1.8 l -0.55,1.4 q -0.5,1.1 -1.5,1.9 L -58.5,33 l -6.05,-0.9 -0.75,-1.3 -0.6,-1.1 q -0.35,-0.8 -0.35,-2.2 l 0.05,-1.85 0.7,-3.5 q 0.2,-1.45 -0.4,-2 -0.45,-0.4 -1.1,-0.2 -0.55,0.15 -0.8,0.65 h -0.65 q -1.1,0.15 -2.15,1.25 l -0.65,0.85 -1.15,2.15 -0.3,1 -0.2,1.75 v 1.25 l 0.15,0.35 -2.75,-1.2 -3.3,-1.75 q -1.75,-1.15 -2.5,-2.6 -1.4,-2.5 -0.35,-7.4 2.4,-11.3 8,-17.75 2.1,-2.45 5.75,-5.2 l 0.85,0.55 1.9,0.55 1.4,0.1 q -2.1,1.45 -3.05,3 l -0.6,1.1 -0.6,1.7 q -0.2,1.15 0.45,2.4 l 0.45,0.75 -0.2,0.4 -0.15,1.05 q 0.05,1.05 1.35,2.55 l 0.75,0.75 1,0.4 q 2.15,0.5 4.55,-0.8 l 2.55,-2 1.75,-2.35 1,-1.45 0.95,-1.7 0.3,-1.1 q 0.9,-1.2 0.9,-2.05 0,-1.2 -1.05,-1.85 l -2.1,-0.05 -1.2,1.05 q -2.65,2.8 -6.15,4.55 L -63.4,0.9 q -0.3,-0.2 -0.1,-0.75 0.5,-1.3 2.05,-2.55 l 2.75,-1.8 2.15,-1.3 1.2,-0.7 q 0.55,-0.65 0,-1.5 -0.45,-0.65 -1.5,-0.75 l -1,0.1 0.15,-1.2 q -0.1,-1.55 -1.5,-2.15 l -0.55,-0.2 -0.3,-0.7 q -0.35,-0.6 -1.25,-1.25 l -1.45,-1.15 -1.15,-1.45 -1.15,-1.7 -0.55,-0.95 0.6,0.15 q 0.9,0.15 1.65,-0.3 0.7,-0.4 1,-1.15 l 0.05,-0.1 1.1,1.55 3.05,4.7 q 0.75,1.15 1.45,1.25 0.95,0.2 1.6,-0.65 0.8,0 2.3,-0.5 l 3.45,-1.3 v 0.15 l 0.45,1.25 -0.2,0.05 -1.9,0.75 -1.85,1 -0.5,0.45 q -0.6,0.7 -0.6,1.55 0.1,1 0.65,1.55 0.3,0.3 1.1,0.7 l 4.1,-0.1 0.9,-0.45 q 1.8,-1.1 2.2,-2.2 0.25,-0.75 0,-1.55 l 2.7,-0.3 q 0.35,-0.15 1,-0.6 1.75,-1.35 2.4,-2.4 l 0.2,-0.45 m 6.6,5.6 0.45,-0.45 q 0.3,-0.45 0.75,-1.65 0.55,-1.65 1.45,-3.1 l 0.3,0.2 q 0.95,0.55 1.9,0.3 0.75,-0.2 1.3,-0.85 0.55,-0.6 0.65,-1.35 0.1,-0.75 -0.25,-1.5 l -0.6,-0.8 1.05,-0.9 q 0.8,-0.7 1.45,-0.55 0.9,0.15 1,1.25 0.1,0.6 -0.3,1.7 -0.7,2 -1.3,2.85 -0.6,0.75 -1.75,1.75 l -4.45,3.8 -0.2,0.2 q -0.4,-0.7 -1.25,-0.85 l -0.2,-0.05 M -36.55,10 -35.8,9.5 q 1,-0.65 1.55,-1.55 0.8,-1.3 0.8,-3.9 -0.1,-3.25 -0.75,-5 l -1.45,-2.75 q -0.55,-1.05 -1.15,-1.5 -0.7,-0.65 -1.65,-0.55 -1.05,0.2 -1.3,1.05 -0.2,0.5 0.1,1.55 l 0.9,2.3 0.75,2.35 q 0.25,1.15 0.15,3.45 -0.1,1.1 -0.6,1.2 Q -38.8,6.3 -39.2,5.9 L -39.6,5.2 Q -40.8,2.5 -41,1.05 l -0.05,-1.9 0.1,-1.3 Q -41,-2.9 -41.5,-3.55 -42,-4.2 -42.7,-4.3 q -0.8,-0.1 -1.5,0.4 l -1,1.25 q -0.4,0.95 -0.2,2.9 l -0.35,1 -0.3,2.3 Q -46.1,4.7 -45.6,6.9 l 0.3,1.1 q 0.45,1.3 1.9,2.6 l 1.5,1.05 4.05,-0.2 q 1,-0.7 1.2,-1.35 l 0.1,-0.1 m 8.15,13.8 q -0.1,1.65 0.85,2.6 0.85,0.9 2.55,1 1.35,0.1 2.35,-0.55 1,-0.65 1.5,-1.95 0.45,-1.2 0.4,-2.35 -0.15,-1.3 -1.05,-2.05 -1.1,-0.9 -2.9,-0.7 -1.15,0.1 -1.95,0.6 -1.75,1.05 -1.75,3.4 M -48.65,7.85 Q -49.55,6.7 -51,6.2 l -2.8,-0.05 q -1.1,0.4 -2.5,1.7 -3.35,3.25 -5.15,7.95 -1.7,4.45 -1.7,9.35 0,1.9 0.35,2.75 0.85,2.05 3.5,2.95 l 4.65,0.75 3,0.15 q 1.65,-0.1 2.65,-0.9 1.35,-1 1.95,-3.5 0.85,-3.2 0.95,-9.15 0.1,-2.6 -0.2,-4.25 L -47.15,11.1 Q -48,8.7 -48.65,7.85 M -71.9,6.7 l 1.5,-2.3 0.7,-1.7 q 0.1,-0.8 -0.35,-1.5 -0.5,-0.7 -1.25,-0.95 -1.8,-0.55 -3.55,1.5 -1.5,1.85 -1.3,3.7 0.1,1.05 0.65,1.7 0.75,0.8 1.6,0.75 1.05,-0.05 2,-1.2 m -7.25,11.75 q -0.3,0.95 -0.1,1.85 0.3,1.5 1.65,2.25 1.35,0.8 2.85,0.3 0.95,-0.25 1.8,-1.2 0.75,-0.85 0.95,-1.95 0.2,-1.2 -0.3,-2.15 -0.5,-1 -1.55,-1.55 L -76,15.65 q -1.1,0.15 -2,0.95 -0.85,0.8 -1.15,1.85"
         fill="#d5bcbc"
         fill-rule="evenodd"
         stroke="none"
         id="path2" />
      <path
         d="m -40.65,-35.1 -0.65,0.75 q -0.85,0.85 -1.9,1 -1.15,0.15 -2.15,-0.55 -1,-0.7 -1.1,-1.75 l 0.25,-1.7 0.8,-2.1 q 0.7,-1.35 1.75,-1.85 l 2.4,0.1 0.2,0.2 -0.75,0.1 -0.7,0.95 -0.05,0.2 q -1.45,-0.05 -2.1,0.65 l -0.45,1.15 q -0.05,0.65 0.35,1.1 0.45,0.55 1.6,0.8 l 0.65,1 1.7,0.05 0.15,-0.1 m 11.2,19.45 q 1.25,-2.2 3.3,-4 l 0.6,0.8 q 0.35,0.75 0.25,1.5 -0.1,0.75 -0.65,1.35 -0.55,0.65 -1.3,0.85 -0.95,0.25 -1.9,-0.3 l -0.3,-0.2 M -65.6,-19.1 -66,-19.8 q -0.35,-1.1 0.05,-1.9 l 0.7,-0.65 q 0.5,-0.1 1.25,0.35 l 1.7,1.5 -0.05,0.1 q -0.3,0.75 -1,1.15 -0.75,0.45 -1.65,0.3 l -0.6,-0.15 m 20.6,6.8 q 0.25,0.8 0,1.55 -0.4,1.1 -2.2,2.2 l -0.9,0.45 -4.1,0.1 q -0.8,-0.4 -1.1,-0.7 -0.55,-0.55 -0.65,-1.55 0,-0.85 0.6,-1.55 l 0.5,-0.45 1.85,-1 1.9,-0.75 0.2,-0.05 h 1.35 l 1.25,0.3 q 0.9,0.4 1.2,1.25 l 0.1,0.2 m -26.9,19 q -0.95,1.15 -2,1.2 -0.85,0.05 -1.6,-0.75 -0.55,-0.65 -0.65,-1.7 -0.2,-1.85 1.3,-3.7 1.75,-2.05 3.55,-1.5 0.75,0.25 1.25,0.95 0.45,0.7 0.35,1.5 l -0.7,1.7 -1.5,2.3"
         fill="#ffffff"
         fill-rule="evenodd"
         stroke="none"
         id="path3" />
      <path
         d="m -44.95,-19.55 0.7,0.05 2.7,0.25 q -0.05,1.55 0.75,2.3 0.45,0.45 1.3,0.7 l 0.8,0.2 -0.2,0.45 q -0.65,1.05 -2.4,2.4 -0.65,0.45 -1,0.6 l -2.7,0.3 -0.1,-0.2 q -0.3,-0.85 -1.2,-1.25 l -1.25,-0.3 h -1.35 l -0.45,-1.25 v -0.15 l 1.3,-0.5 q 2.7,-0.95 3.1,-2.4 v -1.2 M -33.8,-10 q 0.95,0.15 1.7,-0.45 l 0.2,0.05 q 0.85,0.15 1.25,0.85 l -0.95,1.3 q -0.25,0.85 0.4,1.5 0.55,0.6 1.45,0.6 0.6,-0.05 1.4,-0.45 l 1.45,1.25 0.7,0.65 -0.7,0.6 -0.55,0.45 q -0.5,0.4 -1.2,0.65 l -1,0.05 L -30.8,-3 q -0.6,-0.05 -1.2,-0.4 l -1,-0.55 -0.6,-0.6 -0.7,-0.8 -0.35,-1.15 -0.1,-1.75 0.75,-1.6 0.2,-0.15 m -4.9,43.25 -3.75,0.3 0.5,-1.3 q 0.4,-0.95 0.65,-2.1 0.3,-1.3 0.3,-3.35 l -0.1,-1.6 -0.05,-0.2 q 0.65,-0.15 1.4,0.25 0.5,0.3 1.1,1.3 l 0.4,0.9 0.1,1 0.1,3.1 -0.2,1 -0.45,0.7 m -29.1,-12.65 -0.05,0.1 -0.4,1.15 -0.5,0.75 -0.5,1.4 -0.3,1.45 -0.25,3.65 0.05,1.35 -3,-1.25 -0.15,-0.35 V 27.6 l 0.2,-1.75 0.3,-1 1.15,-2.15 0.65,-0.85 q 1.05,-1.1 2.15,-1.25 h 0.65 m -0.1,-27.3 3.65,-2.7 0.15,0.05 q 1.3,0.8 2.5,0.4 1.15,-0.3 1.65,-1.45 0.35,-0.75 0.2,-1.5 l 0.55,0.2 q 1.4,0.6 1.5,2.15 l -0.15,1.2 -2.4,0.85 q -2.05,1 -3.5,2 l -1.4,-0.1 -1.9,-0.55 -0.85,-0.55 m 14.65,5.9 -0.3,1.1 -0.95,1.7 -1,1.45 -1.75,2.35 -2.55,2 q -2.4,1.3 -4.55,0.8 l -1,-0.4 -0.75,-0.75 q -1.3,-1.5 -1.35,-2.55 l 0.15,-1.05 0.2,-0.4 1.05,1.15 q 1.05,0.8 2.25,0.95 1.95,0.2 5.05,-1.8 l 1.6,-1 2.35,-1.95 0.95,-0.95 0.6,-0.65 m 16.7,10.8 -0.1,0.1 q -0.2,0.65 -1.2,1.35 l -4.05,0.2 -1.5,-1.05 Q -44.85,9.3 -45.3,8 l -0.3,-1.1 q -0.5,-2.2 -0.45,-3.35 l 0.3,-2.3 0.35,-1 V 0.5 q 0.6,4.2 2.2,7.1 l 0.85,1.2 q 0.95,1.15 2.5,1.55 l 2.95,-0.2 0.35,-0.15 m -16.05,0.5 0.45,-0.05 0.25,0.3 0.7,1.75 0.4,1.15 h -0.05 q -1,0 -2.05,1.25 l -1.5,1.95 q -2.7,3.9 -2.85,7.2 l 0.25,2.35 -0.35,-0.15 -0.9,-0.7 -0.15,-0.9 q 0,-1.9 0.8,-5.7 l 0.4,-1.6 0.8,-1.8 q 1.55,-2.85 3.6,-4.9 l 0.2,-0.15"
         fill="#ac8d8d"
         fill-rule="evenodd"
         stroke="none"
         id="path4" />
    </g>
    <g
       id="sprite1"
       transform="translate(17.4,15.85)">
      <use
         ffdec:characterId="31"
         height="57.200001"
         transform="matrix(0.5366,0,0,0.5366,-16.6582,-14.546)"
         width="70.75"
         xlink:href="#sprite2"
         id="use4" />
    </g>
    <g
       id="sprite2"
       transform="translate(-8.65,-10.35)">
      <use
         ffdec:characterId="30"
         height="57.200001"
         transform="translate(8.65,10.35)"
         width="70.75"
         xlink:href="#shape1"
         id="use5" />
    </g>
    <g
       id="shape1"
       transform="translate(-8.65,-10.35)">
      <path
         d="m 14.8,41.7 q 0.65,-1.75 2.65,-2.5 1.8,-0.8 3.7,-0.25 1.15,0.45 2.25,1.2 l 0.9,0.4 q 1.65,0.9 2.85,2.5 L 37.8,30.1 q 2.35,-2.8 3.75,-3.95 1.5,-1.15 4.25,-2.4 18.2,-8.85 27.65,-12.6 2.15,-0.8 3.25,-0.8 h 0.8 l 1.9,2.4 -0.2,0.8 q -0.2,1.1 -1.55,3 -5.85,8.25 -18.85,23.8 -1.85,2.35 -3.35,3.5 -1.4,1.15 -4.75,2.75 l -15.15,7.15 q 1.2,1.6 1.75,3.4 l 0.2,1 0.55,2.5 q 0.1,1.95 -1.1,3.55 -1.2,1.65 -3.05,1.9 l -1.3,0.05 q -1.65,0.2 -3.45,-0.65 -1.85,-0.9 -3,-2.6 L 25,60.95 23.8,62.1 q -2.6,2.85 -4.3,3.95 -2.85,1.8 -5.5,1.45 l -1.65,-0.5 -1.2,-0.7 -0.2,-0.2 q -1,-0.85 -1.6,-1.9 L 9.25,64 9.15,63.8 8.75,62.4 q -0.2,-0.8 -0.05,-1.7 0.25,-2.65 2.7,-5.05 1.5,-1.3 4.9,-3.15 L 17.7,51.55 16.05,50 q -1.35,-1.5 -1.8,-3.6 -0.4,-1.85 0.25,-3.45 l 0.3,-1.25"
         fill="#000000"
         fill-opacity="0.372549"
         fill-rule="evenodd"
         stroke="none"
         id="path5" />
    </g>
  </defs>
</svg>
