<?xml version="1.0" encoding="UTF-8" standalone="no"?>
<svg
   ffdec:objectType="frame"
   height="87.349998"
   width="78.802032"
   version="1.1"
   id="svg6"
   xmlns:xlink="http://www.w3.org/1999/xlink"
   xmlns="http://www.w3.org/2000/svg"
   xmlns:svg="http://www.w3.org/2000/svg"
   xmlns:ffdec="https://www.free-decompiler.com/flash">
  <g
     transform="translate(35.41129,41.45)"
     id="g1">
    <use
       ffdec:characterId="17"
       height="119.15"
       id="rarity"
       transform="translate(-58.5,-60.65)"
       width="119.15"
       xlink:href="#sprite0" />
    <use
       ffdec:characterId="155"
       height="87.449997"
       transform="translate(-35.4,-41.55)"
       width="78.800003"
       xlink:href="#shape0"
       id="use1" />
  </g>
  <defs
     id="defs6">
    <g
       id="shape0"
       transform="translate(35.1,44.05)">
      <path
         d="m 20.1,-29.45 -2.7,-6.35 -0.2,-0.35 -0.9,-2.1 -32.3,6.5 q -2.4,0.5 -3.7,1.2 0.7,2.65 1.9,5.35 l 2.15,4.25 2.1,4.2 2.45,6.3 Q -9.75,-7 -6.45,-0.4 l 5.8,11.45 7.2,14.45 0.4,0.85 Q 10.75,23.7 36.1,15.15 L 34.6,10.1 V 10.05 L 30.15,-3 l -0.3,-0.9 -3.15,-8.45 -3.25,-8.55 -1.9,-4.95 -0.1,-0.25 v -0.1 q 0.2,-1.25 -0.35,-2.2 l -1,-1.05 m -43.2,2.75 -3.65,6.5 q -1.35,2.35 -1.65,3.85 -0.25,1.65 0.4,4.55 1.05,4.15 3.65,10.5 6.55,15.75 14.85,30.55 1.1,-1.8 2.9,-2.95 1.85,-1.2 3.95,-1.45 l 4.1,0.5 1.35,0.6 Q 0.9,21.05 -2.7,13.4 L -5.55,7.4 -9.2,-0.25 Q -16,-14.65 -19,-22 l -2.65,-6.95 -1.45,2.25 m 14.65,68.8 q -1.5,-0.85 -3.25,-3.6 -4.45,-7.15 -9.1,-16.6 L -28.7,4.7 q -4.4,-9.9 -5.7,-14.95 -1.05,-4.4 -0.55,-7.05 0.45,-2.65 2.85,-6.35 3,-4.7 3.6,-6.1 l 1.05,-2.65 q 0.65,-1.5 1.5,-2.3 1.15,-1.1 4.05,-1.9 9,-2.35 20.1,-4.1 l 18.55,-2.4 0.7,-0.6 2.25,-0.25 q 1.05,0.25 1.9,1 1,0.45 1.1,1.4 v 0.05 l 1.3,2.75 9.9,25.75 3.1,8.4 2.7,8.3 3.5,11.45 q 0.55,2 0.4,3.15 0.35,1.4 -0.65,3.85 l -2.85,7.25 -1.25,2.8 q -0.85,1.45 -1.9,2.3 -1.2,1 -4.25,1.8 l -10.05,2.45 -11.65,2.5 -3.95,1 -4,0.8 L -3.2,43.4 -5.75,43.15 -6.5,42.7 q -1,-0.05 -1.95,-0.6 M 0.8,32.2 q -1.9,-1.9 -3.2,-1.7 -0.95,0.2 -1.55,1.15 -0.55,0.95 -0.55,2.05 l 0.4,2.05 0.65,1.95 0.2,1.1 h 0.1 q 0.2,-0.7 1.05,-1.65 l 3.9,-4 -1,-0.95 m 23.9,-6.95 q -5.4,1.4 -8.45,2.55 -4.55,1.7 -7.8,3.95 L 7.15,32.6 Q 7.3,33.5 5.9,34.9 L 3.3,37.65 7,36.7 q 15.1,-4.25 24.2,-6.55 1.65,-0.4 2.3,-1.05 l 0.85,-1.8 1.8,-5.05 -11.45,3"
         fill="#000000"
         fill-rule="evenodd"
         stroke="none"
         id="path1" />
      <path
         d="m -10.8,-23.95 -0.1,1.95 q 0.4,2.75 3.65,4.4 1.55,0.8 2.75,0.7 2.2,-0.25 3.15,-2.55 0.75,-1.8 0.25,-4.25 -0.9,-4.2 -4.15,-6.7 -0.8,-0.6 -1.35,-0.55 -0.6,0.05 -0.9,0.8 -0.3,0.7 -0.1,1.35 l 0.7,1.15 0.85,1.05 q 0.7,1.05 1.25,2.9 l 0.15,1.35 q -0.1,0.75 -0.8,1 -0.75,0.15 -1.2,-0.55 l -0.55,-1.25 q -0.3,-1.2 -0.85,-1.85 -1,-1 -1.9,-0.45 -0.65,0.4 -0.85,1.5 m 45.4,34.05 1.5,5.05 Q 10.75,23.7 6.95,26.35 L 6.55,25.5 -0.65,11.05 -6.45,-0.4 Q -9.75,-7 -11.1,-10.45 l -2.45,-6.3 -2.1,-4.2 -2.15,-4.25 q -1.2,-2.7 -1.9,-5.35 1.3,-0.7 3.7,-1.2 l 32.3,-6.5 0.9,2.1 0.2,0.35 2.7,6.35 0.1,0.2 0.05,0.2 -0.3,-0.05 -1.45,0.35 q -2.5,1 -3.65,1.6 l 1.25,-5.2 q 0.45,-2 -0.45,-2.55 l -1.85,-0.05 q -2,0.6 -4.3,1.75 l -0.7,0.5 q -0.3,0.35 -0.15,0.7 0.35,0.8 1.75,0.2 l 1.7,-0.4 0.9,0.15 0.05,0.8 -0.9,5.1 -0.1,1.55 q 0.2,0.95 0.9,1.15 l 1.5,-0.2 q 3.35,-1.2 5.3,-2.3 l 1.25,-0.95 0.1,-0.1 0.35,0.9 0.1,0.25 1.9,4.95 3.25,8.55 3.15,8.45 0.3,0.9 L 34.6,10.05 33.2,8.6 H 33.15 V 8.55 q -1.5,-1.2 -2.7,-0.6 L 27.1,10.1 26.9,10.25 Q 27,8.8 26.1,7.4 L 28.55,6.6 Q 30.45,6.1 31.4,5.3 31.95,4.95 32,4.4 32.15,3.7 31.5,3.05 L 31,2.6 30.85,2.5 30.6,2.4 29.8,2.1 29.45,2 28.7,1.75 Q 28.45,1.5 28.55,1 L 28.7,0.1 28.25,-0.65 28,-0.8 27.3,-1 26.5,-0.85 Q 26,-0.7 25.45,-0.3 22.8,1.4 21.5,4.15 L 21.4,4.3 21.25,4.7 Q 18.95,4.55 16.5,5.75 l -0.15,0.1 H 16.3 L 16,6 15.2,6.5 13.7,6.1 7.3,6.4 5.15,6.95 Q 3.85,7.3 4,8.05 4.05,8.4 4.65,8.8 5.85,9.5 7.5,9.6 6.1,10.25 5,11.65 q -0.55,0.8 -0.65,1.45 -0.1,0.95 0.5,1.45 L 7,14.7 11.35,13.25 q 0.2,0.85 0.75,1.5 -1.85,0.3 -4.1,1.05 l -0.1,0.05 -0.95,0.3 Q 5.15,16.75 4.5,17.5 L 4.1,18.15 4.05,18.4 3.95,18.8 Q 3.9,19.55 4.45,20 l 1.75,0.5 1.55,-0.05 q 3.8,-0.2 7.35,-1.35 l 2.35,0.15 0.6,1 0.35,0.55 1.35,-0.5 8.75,-2.8 -0.35,-0.4 1.9,-0.45 -0.8,-1.05 2.55,-1.95 1,-1.05 0.15,-0.15 1.65,-2.35 m -57.7,-36.8 1.45,-2.25 2.65,6.95 q 3,7.35 9.8,21.75 l 3.65,7.65 2.85,6 q 3.6,7.65 5.5,12.55 l -1.35,-0.6 -4.1,-0.5 q -2.1,0.25 -3.95,1.45 -1.8,1.15 -2.9,2.95 -8.3,-14.8 -14.85,-30.55 -2.6,-6.35 -3.65,-10.5 -0.65,-2.9 -0.4,-4.55 0.3,-1.5 1.65,-3.85 l 3.65,-6.5 m 1,19.35 0.05,-0.05 2.05,-1.3 0.95,-0.55 q 0.7,-0.35 0.95,-0.8 l 0.1,-0.5 0.55,0.5 1.1,0.05 q 0.55,-0.3 0.45,-1.15 l -0.5,-1.15 q -1.95,-3.4 -3.4,-6.95 l -0.75,-1.2 -0.2,-0.45 q -0.3,-0.35 -0.65,-0.3 l -0.55,0.35 -1.8,1.65 -2.85,2.75 q -0.8,0.9 -0.8,1.45 -0.05,0.4 0.25,0.75 l 0.45,0.3 0.15,0.55 2.1,5.4 0.3,0.6 0.25,0.45 0.35,0.2 0.25,0.1 0.75,-0.1 0.45,-0.6 m 17.45,-4 q 0.25,0.45 0.2,0.8 L -5,-9.85 q -0.2,0.35 0,0.8 l 0.6,0.6 q 0.7,0.35 1.6,-0.2 L -2,-7.6 q 0.7,0.5 1.3,0.2 L 0,-8.3 0.7,-9.25 2.1,-9.8 2.6,-10.5 2.5,-11.4 1.8,-11.95 0.95,-11.9 q -0.2,-1.25 -0.05,-2.25 v -1.3 q -0.3,-0.85 -0.95,-0.8 l -0.9,0.65 -1.7,2.1 q -0.4,0.1 -1.2,-0.4 l -1.25,-0.25 q -0.85,0.4 -0.45,1.45 l 0.9,1.35 m -5.85,23.85 0.45,0.9 1.05,0.3 q 1,-0.1 1.3,-0.8 0.25,-0.55 -0.2,-1.3 l -0.75,-1.1 q -0.6,-1.4 -1.05,-2 l -0.7,-0.8 -0.65,-0.8 -0.45,-1.35 -0.6,-1.1 -1.65,-2.75 -0.95,-1.75 -0.45,-1.1 -0.75,-0.9 -1.4,-2.1 q -0.45,-0.95 -0.8,-1.25 l -0.75,-0.25 -0.6,0.35 q -0.2,0.45 0.2,1.25 l 2.75,5 2,3.45 1.05,1.8 0.6,1.45 0.9,1.6 q 0.95,1.65 1.45,3.25 m 24.1,-18.1 1.3,-0.2 1.4,-0.15 0.3,-0.7 -0.2,-0.75 Q 16,-8.05 15.1,-8.2 l -1.8,-0.05 q -1,0.2 -1.55,0.9 -0.6,0.85 -0.6,1.95 -0.1,0.85 0.3,1.45 0.55,0.85 2.55,1.15 1.95,0.2 2.5,1.2 l -2.2,0.65 q -0.7,0.1 -0.9,-0.25 l -0.9,0.25 Q 12.1,-0.6 12.05,-0.1 12,0.5 12.5,0.95 13.05,1.4 13.7,1.45 L 16.25,0.95 17.9,0.4 q 0.85,-0.4 1.2,-1 0.45,-0.85 0,-1.9 l -1.2,-1.55 q -1.25,-1.25 -2.6,-1.3 l -0.9,0.05 q -0.55,0 -0.8,-0.3 m 10.5,1.1 -2.25,0.35 V -4.4 l 0.6,-0.2 q 1.1,-0.5 1.3,-1.05 L 23.6,-6.55 Q 23.35,-7 22.85,-7 l -0.15,0.1 -0.55,0.15 q -0.3,0.2 -0.5,0.25 l -0.95,0.3 -0.4,-1 0.8,-0.45 L 22,-8 q 1.2,-0.55 1.05,-1.4 -0.05,-0.75 -1,-0.95 l -1.45,0.2 -1.9,0.8 q -0.95,0.5 -1.15,1.05 -0.35,0.8 0.6,2.5 l 1,2.1 0.55,1.35 q 0.4,0.75 1,1 l 0.6,0.2 0.55,0.05 0.15,-0.05 1.4,-0.35 q 1.55,-0.3 2.1,-0.75 0.5,-0.4 0.6,-1 0.15,-0.6 -0.25,-1 L 24.1,-4.5 M 10.45,0 9.95,-1.2 8.95,-2.6 8.25,-4.15 Q 7.75,-5.2 7.2,-5.45 l -1.6,0.1 Q 5.15,-4.8 5.3,-4 L 5.8,-2.6 6.25,-1.3 6.95,0 7.7,1.2 Q 8.4,2.4 9.2,2.45 10,2.55 10.4,1.55 10.65,0.95 10.45,0 m 3.65,-17.3 -0.35,-0.3 -0.55,-1.05 h 2 v 0.25 l -0.2,0.25 -0.9,0.85 M 4,-10.55 q 0.2,0.8 0.95,1.35 0.7,0.55 1.6,0.7 1.45,0.3 3.4,-0.4 1.7,-0.6 2.2,-1.5 0.35,-0.6 0.15,-1.3 -0.25,-0.75 -0.9,-0.9 l -1.7,0.45 q -1.4,0.7 -2.95,0.4 L 6.7,-12.25 Q 8.05,-12.8 9.45,-14 l 0.95,-1.1 q 0.25,-0.5 0.1,-1.05 Q 10.35,-16.7 9.85,-16.9 9.1,-17.2 8.3,-16.65 L 7,-15.6 5.55,-14.95 5.3,-15.25 Q 4.85,-15.8 4.9,-16.2 l 0.75,-0.6 1.9,-0.4 1.1,-0.15 q 0.65,-0.15 0.95,-0.45 0.5,-0.55 0.2,-1.35 -0.25,-0.8 -0.95,-1.1 L 5.9,-20.2 q -1.95,0.65 -2.9,1.55 -1.45,1.35 -1.15,2.95 0.1,0.75 0.9,1.95 l 0.95,1.95 0.3,1.25 m 12.3,0.7 q 0.75,-0.6 -0.05,-2.1 l -1.3,-2.4 q 2.55,0 4.7,1.05 l 1.15,0.5 1.15,-0.05 q 0.6,-0.3 0.7,-1.05 v -0.5 l -0.3,-0.8 -0.35,-0.4 q -0.75,-0.65 -2,-0.9 l -2.6,-0.75 0.35,-1.9 q 0.1,-1.2 -0.55,-1.75 -0.5,-0.4 -1.3,-0.5 l -1.5,0.05 -2.05,0.05 q -1.3,0.2 -1.7,1.05 -0.4,0.85 0.2,2.4 1.9,5.1 3.35,7.15 l 0.9,0.9 1.2,-0.05 M 2.05,-29.3 l 1.7,1.25 -0.4,0.15 -1.25,0.3 -0.05,-1.7 M 7.9,-26.65 7.45,-27.9 7.4,-28 l -0.3,-0.6 -0.8,-1.25 -2.1,-1.6 -1.65,-1.3 -2,-0.05 q -0.6,0.35 -0.8,1.55 -1.2,5.75 1.95,10.6 0.5,0.9 1.2,0.85 0.35,0 0.6,-0.35 l 0.2,-0.7 -0.35,-1.4 -0.8,-2.5 1.1,-0.25 1.4,-0.6 0.3,1.15 q 0.45,2.1 1.45,2.2 0.95,0.1 1.4,-1.05 0.4,-1.1 -0.3,-3.35 M 3.35,-3.4 Q 3.5,-4.35 2.3,-4.75 q -1.8,-0.6 -3.5,0.65 -1.25,0.9 -2.05,2.9 -0.9,2.25 -0.2,4.05 0.7,1.85 2.7,2.5 L 0.7,5.6 Q 1.85,5.6 3,5.05 L 3.3,4.9 4.5,3.8 4.65,2.85 4.15,2.05 2.05,2.15 0.35,2.35 Q -0.6,2.15 -1,1.35 -1.2,0.9 -0.85,-0.25 -0.45,-1.8 0.3,-2.15 L 2,-2.45 q 1.2,-0.2 1.35,-0.95 m -12.9,25.55 q 0.3,0.4 0.85,0.3 l 0.9,-0.3 1.05,-0.65 1.35,-1.15 1.5,-0.75 0.9,-0.85 Q -2.75,18.25 -3.05,17.7 -3.3,17.15 -3.85,17 -4,17.2 -4.35,17.2 l -1,0.7 -3.2,2.45 -0.9,0.7 q -0.45,0.6 -0.1,1.1 m -1.8,-3.15 1.5,0.15 1.05,-0.25 1.55,-1.15 1.6,-1.55 Q -4.95,15.5 -4.85,15 -4.75,14.6 -5,14.3 -5.25,13.95 -5.6,14 l -0.5,0.2 -0.85,0.75 q -1.5,1.5 -2.65,1.95 l -1.5,0.7 -0.4,0.65 q -0.1,0.45 0.15,0.75"
         fill="#8cafa8"
         fill-rule="evenodd"
         stroke="none"
         id="path2" />
      <path
         d="m 34.6,10.1 -1.65,2.35 -0.15,0.15 -1,1.05 -2.55,1.95 0.8,1.05 -1.9,0.45 0.35,0.4 -8.75,2.8 -1.35,0.5 -0.35,-0.55 -0.6,-1 -2.35,-0.15 q -3.55,1.15 -7.35,1.35 L 6.2,20.5 4.45,20 Q 3.9,19.55 3.95,18.8 L 4.05,18.4 4.1,18.15 4.5,17.5 Q 5.15,16.75 6.95,16.15 L 7.9,15.85 8,15.8 q 2.25,-0.75 4.1,-1.05 -0.55,-0.65 -0.75,-1.5 L 7,14.7 4.85,14.55 Q 4.25,14.05 4.35,13.1 4.45,12.45 5,11.65 6.1,10.25 7.5,9.6 5.85,9.5 4.65,8.8 4.05,8.4 4,8.05 3.85,7.3 5.15,6.95 L 7.3,6.4 13.7,6.1 15.2,6.5 16,6 16.3,5.85 h 0.05 L 16.5,5.75 Q 18.95,4.55 21.25,4.7 L 21.4,4.3 21.5,4.15 Q 22.8,1.4 25.45,-0.3 26,-0.7 26.5,-0.85 L 27.3,-1 28,-0.8 28.25,-0.65 28.7,0.1 28.55,1 q -0.1,0.5 0.15,0.75 L 29.45,2 29.8,2.1 30.6,2.4 30.85,2.5 31,2.6 31.5,3.05 Q 32.15,3.7 32,4.4 31.95,4.95 31.4,5.3 30.45,6.1 28.55,6.6 L 26.1,7.4 q 0.9,1.4 0.8,2.85 l 0.2,-0.15 3.35,-2.15 q 1.2,-0.6 2.7,0.6 V 8.6 h 0.05 l 1.4,1.45 v 0.05 m -56.7,-17.45 -0.45,0.6 -0.75,0.1 -0.25,-0.1 -0.35,-0.2 -0.25,-0.45 -0.3,-0.6 -2.1,-5.4 -0.15,-0.55 -0.45,-0.3 q -0.3,-0.35 -0.25,-0.75 0,-0.55 0.8,-1.45 l 2.85,-2.75 1.8,-1.65 0.55,-0.35 q 0.35,-0.05 0.65,0.3 l 0.2,0.45 0.75,1.2 q 1.45,3.55 3.4,6.95 l 0.5,1.15 q 0.1,0.85 -0.45,1.15 l -1.1,-0.05 -0.55,-0.5 -0.1,0.5 q -0.25,0.45 -0.95,0.8 l -0.95,0.55 -2.05,1.3 -0.05,0.05 M -10.5,12.5 Q -11,10.9 -11.95,9.25 l -0.9,-1.6 -0.6,-1.45 -1.05,-1.8 -2,-3.45 -2.75,-5 q -0.4,-0.8 -0.2,-1.25 l 0.6,-0.35 0.75,0.25 q 0.35,0.3 0.8,1.25 l 1.4,2.1 0.75,0.9 0.45,1.1 0.95,1.75 1.65,2.75 0.6,1.1 0.45,1.35 0.65,0.8 0.7,0.8 q 0.45,0.6 1.05,2 l 0.75,1.1 q 0.45,0.75 0.2,1.3 -0.3,0.7 -1.3,0.8 l -1.05,-0.3 -0.45,-0.9 m 29.15,1.25 q 1.9,-0.15 3.6,-1.15 l 1.45,-1.25 0.6,-1.5 V 8.95 Q 24,7.95 22.85,7.6 L 20.6,7.35 18.25,7.4 H 17.1 l -0.7,0.5 -0.2,0.25 -0.6,0.3 -0.25,0.05 q -0.6,0.3 -0.9,0.6 -0.45,0.45 -0.85,1.8 -0.3,1.15 -0.05,1.7 0.4,0.9 2.15,1 l 2.95,0.15 M 21,9.3 21.1,8.7 21.3,8.4 Q 21.75,7.95 22.15,8.1 V 8 q 0.7,0.1 1,0.7 0.25,0.65 -0.1,1.15 l -0.75,0.5 Q 21.6,10.45 21.15,9.7 L 21,9.3 m -6.3,2.05 V 10.8 l 0.1,-0.3 Q 15.25,9.8 16,9.9 V 9.8 q 0.5,0.05 0.85,0.35 0.4,0.35 0.45,0.8 0.1,0.5 -0.2,0.95 L 16.4,12.5 15.45,12.45 14.8,11.8 14.7,11.35"
         fill="#afae8c"
         fill-rule="evenodd"
         stroke="none"
         id="path3" />
      <path
         d="m -10.8,-23.95 q 0.2,-1.1 0.85,-1.5 0.9,-0.55 1.9,0.45 0.55,0.65 0.85,1.85 l 0.55,1.25 q 0.45,0.7 1.2,0.55 0.7,-0.25 0.8,-1 L -4.8,-23.7 q -0.55,-1.85 -1.25,-2.9 l -0.85,-1.05 -0.7,-1.15 q -0.2,-0.65 0.1,-1.35 0.3,-0.75 0.9,-0.8 0.55,-0.05 1.35,0.55 3.25,2.5 4.15,6.7 0.5,2.45 -0.25,4.25 -0.95,2.3 -3.15,2.55 -1.2,0.1 -2.75,-0.7 -3.25,-1.65 -3.65,-4.4 l 0.1,-1.95 m 32.25,-2.15 -0.35,-0.9 -0.1,0.1 -1.25,0.95 q -1.95,1.1 -5.3,2.3 l -1.5,0.2 q -0.7,-0.2 -0.9,-1.15 l 0.1,-1.55 0.9,-5.1 -0.05,-0.8 -0.9,-0.15 -1.7,0.4 Q 9,-31.2 8.65,-32 8.5,-32.35 8.8,-32.7 l 0.7,-0.5 q 2.3,-1.15 4.3,-1.75 l 1.85,0.05 q 0.9,0.55 0.45,2.55 l -1.25,5.2 q 1.15,-0.6 3.65,-1.6 l 1.45,-0.35 0.3,0.05 -0.05,-0.2 -0.1,-0.2 1,1.05 q 0.55,0.95 0.35,2.2 v 0.1 m -26.1,14.75 -0.9,-1.35 q -0.4,-1.05 0.45,-1.45 l 1.25,0.25 q 0.8,0.5 1.2,0.4 l 1.7,-2.1 0.9,-0.65 q 0.65,-0.05 0.95,0.8 v 1.3 q -0.15,1 0.05,2.25 l 0.85,-0.05 0.7,0.55 0.1,0.9 L 2.1,-9.8 0.7,-9.25 0,-8.3 -0.7,-7.4 Q -1.3,-7.1 -2,-7.6 l -0.8,-1.05 q -0.9,0.55 -1.6,0.2 L -5,-9.05 q -0.2,-0.45 0,-0.8 l 0.55,-0.7 q 0.05,-0.35 -0.2,-0.8 m 8,7.95 Q 3.2,-2.65 2,-2.45 l -1.7,0.3 q -0.75,0.35 -1.15,1.9 -0.35,1.15 -0.15,1.6 0.4,0.8 1.35,1 l 1.7,-0.2 2.1,-0.1 0.5,0.8 L 4.5,3.8 3.3,4.9 3,5.05 Q 1.85,5.6 0.7,5.6 L -0.75,5.35 q -2,-0.65 -2.7,-2.5 -0.7,-1.8 0.2,-4.05 0.8,-2 2.05,-2.9 1.7,-1.25 3.5,-0.65 1.2,0.4 1.05,1.35 M 7.9,-26.65 q 0.7,2.25 0.3,3.35 -0.45,1.15 -1.4,1.05 -1,-0.1 -1.45,-2.2 l -0.3,-1.15 -1.4,0.6 -1.1,0.25 0.8,2.5 0.35,1.4 -0.2,0.7 q -0.25,0.35 -0.6,0.35 -0.7,0.05 -1.2,-0.85 -3.15,-4.85 -1.95,-10.6 0.2,-1.2 0.8,-1.55 l 2,0.05 1.65,1.3 2.1,1.6 0.8,1.25 0.3,0.6 0.05,0.1 0.45,1.25 m -5.85,-2.65 0.05,1.7 1.25,-0.3 0.4,-0.15 -1.7,-1.25 m 14.25,19.45 -1.2,0.05 -0.9,-0.9 q -1.45,-2.05 -3.35,-7.15 -0.6,-1.55 -0.2,-2.4 0.4,-0.85 1.7,-1.05 l 2.05,-0.05 1.5,-0.05 q 0.8,0.1 1.3,0.5 0.65,0.55 0.55,1.75 l -0.35,1.9 2.6,0.75 q 1.25,0.25 2,0.9 l 0.35,0.4 0.3,0.8 v 0.5 q -0.1,0.75 -0.7,1.05 l -1.15,0.05 -1.15,-0.5 q -2.15,-1.05 -4.7,-1.05 l 1.3,2.4 q 0.8,1.5 0.05,2.1 M 4,-10.55 3.7,-11.8 2.75,-13.75 q -0.8,-1.2 -0.9,-1.95 -0.3,-1.6 1.15,-2.95 0.95,-0.9 2.9,-1.55 l 2.95,-0.05 q 0.7,0.3 0.95,1.1 0.3,0.8 -0.2,1.35 -0.3,0.3 -0.95,0.45 l -1.1,0.15 -1.9,0.4 -0.75,0.6 q -0.05,0.4 0.4,0.95 l 0.25,0.3 1.45,-0.65 1.3,-1.05 q 0.8,-0.55 1.55,-0.25 0.5,0.2 0.65,0.75 0.15,0.55 -0.1,1.05 L 9.45,-14 q -1.4,1.2 -2.75,1.75 l 0.05,0.5 q 1.55,0.3 2.95,-0.4 l 1.7,-0.45 q 0.65,0.15 0.9,0.9 0.2,0.7 -0.15,1.3 -0.5,0.9 -2.2,1.5 Q 8,-8.2 6.55,-8.5 5.65,-8.65 4.95,-9.2 4.2,-9.75 4,-10.55 m 10.1,-6.75 0.9,-0.85 0.2,-0.25 v -0.25 h -2 l 0.55,1.05 0.35,0.3 M 10.45,0 Q 10.65,0.95 10.4,1.55 10,2.55 9.2,2.45 8.4,2.4 7.7,1.2 L 6.95,0 6.25,-1.3 5.8,-2.6 5.3,-4 Q 5.15,-4.8 5.6,-5.35 l 1.6,-0.1 q 0.55,0.25 1.05,1.3 l 0.7,1.55 1,1.4 0.5,1.2 m 13.65,-4.5 1.75,0.25 q 0.4,0.4 0.25,1 -0.1,0.6 -0.6,1 -0.55,0.45 -2.1,0.75 L 22,-1.15 21.85,-1.1 21.3,-1.15 20.7,-1.35 q -0.6,-0.25 -1,-1 l -0.55,-1.35 -1,-2.1 q -0.95,-1.7 -0.6,-2.5 0.2,-0.55 1.15,-1.05 l 1.9,-0.8 1.45,-0.2 q 0.95,0.2 1,0.95 Q 23.2,-8.55 22,-8 l -0.9,0.35 -0.8,0.45 0.4,1 0.95,-0.3 q 0.2,-0.05 0.5,-0.25 L 22.7,-6.9 22.85,-7 q 0.5,0 0.75,0.45 l 0.15,0.9 q -0.2,0.55 -1.3,1.05 l -0.6,0.2 v 0.25 L 24.1,-4.5 M 13.6,-5.6 q 0.25,0.3 0.8,0.3 l 0.9,-0.05 q 1.35,0.05 2.6,1.3 l 1.2,1.55 q 0.45,1.05 0,1.9 -0.35,0.6 -1.2,1 L 16.25,0.95 13.7,1.45 Q 13.05,1.4 12.5,0.95 12,0.5 12.05,-0.1 12.1,-0.6 12.5,-0.95 l 0.9,-0.25 q 0.2,0.35 0.9,0.25 l 2.2,-0.65 q -0.55,-1 -2.5,-1.2 -2,-0.3 -2.55,-1.15 -0.4,-0.6 -0.3,-1.45 0,-1.1 0.6,-1.95 0.55,-0.7 1.55,-0.9 l 1.8,0.05 q 0.9,0.15 1.3,0.8 l 0.2,0.75 -0.3,0.7 -1.4,0.15 -1.3,0.2 M -11.35,19 q -0.25,-0.3 -0.15,-0.75 l 0.4,-0.65 1.5,-0.7 q 1.15,-0.45 2.65,-1.95 L -6.1,14.2 -5.6,14 q 0.35,-0.05 0.6,0.3 0.25,0.3 0.15,0.7 -0.1,0.5 -0.8,1.2 l -1.6,1.55 -1.55,1.15 -1.05,0.25 -1.5,-0.15 m 1.8,3.15 q -0.35,-0.5 0.1,-1.1 l 0.9,-0.7 3.2,-2.45 1,-0.7 q 0.35,0 0.5,-0.2 0.55,0.15 0.8,0.7 0.3,0.55 0.05,1.05 l -0.9,0.85 -1.5,0.75 -1.35,1.15 -1.05,0.65 -0.9,0.3 q -0.55,0.1 -0.85,-0.3"
         fill="#b1cfd0"
         fill-rule="evenodd"
         stroke="none"
         id="path4" />
      <path
         d="m 24.7,25.25 11.45,-3 -1.8,5.05 -0.85,1.8 Q 32.85,29.75 31.2,30.15 22.1,32.45 7,36.7 L 3.3,37.65 5.9,34.9 q 1.4,-1.4 1.25,-2.3 l 1.3,-0.85 q 3.25,-2.25 7.8,-3.95 3.05,-1.15 8.45,-2.55 m -23.9,6.95 1,0.95 -3.9,4 q -0.85,0.95 -1.05,1.65 h -0.1 L -3.45,37.7 -4.1,35.75 -4.5,33.7 q 0,-1.1 0.55,-2.05 0.6,-0.95 1.55,-1.15 1.3,-0.2 3.2,1.7"
         fill="#4d4d4d"
         fill-rule="evenodd"
         stroke="none"
         id="path5" />
    </g>
    <g
       id="sprite1"
       transform="translate(17.4,15.85)">
      <use
         ffdec:characterId="31"
         height="57.200001"
         transform="matrix(0.5366,0,0,0.5366,-16.6582,-14.546)"
         width="70.75"
         xlink:href="#sprite2"
         id="use5" />
    </g>
    <g
       id="sprite2"
       transform="translate(-8.65,-10.35)">
      <use
         ffdec:characterId="30"
         height="57.200001"
         transform="translate(8.65,10.35)"
         width="70.75"
         xlink:href="#shape1"
         id="use6" />
    </g>
    <g
       id="shape1"
       transform="translate(-8.65,-10.35)">
      <path
         d="m 14.8,41.7 q 0.65,-1.75 2.65,-2.5 1.8,-0.8 3.7,-0.25 1.15,0.45 2.25,1.2 l 0.9,0.4 q 1.65,0.9 2.85,2.5 L 37.8,30.1 q 2.35,-2.8 3.75,-3.95 1.5,-1.15 4.25,-2.4 18.2,-8.85 27.65,-12.6 2.15,-0.8 3.25,-0.8 h 0.8 l 1.9,2.4 -0.2,0.8 q -0.2,1.1 -1.55,3 -5.85,8.25 -18.85,23.8 -1.85,2.35 -3.35,3.5 -1.4,1.15 -4.75,2.75 l -15.15,7.15 q 1.2,1.6 1.75,3.4 l 0.2,1 0.55,2.5 q 0.1,1.95 -1.1,3.55 -1.2,1.65 -3.05,1.9 l -1.3,0.05 q -1.65,0.2 -3.45,-0.65 -1.85,-0.9 -3,-2.6 L 25,60.95 23.8,62.1 q -2.6,2.85 -4.3,3.95 -2.85,1.8 -5.5,1.45 l -1.65,-0.5 -1.2,-0.7 -0.2,-0.2 q -1,-0.85 -1.6,-1.9 L 9.25,64 9.15,63.8 8.75,62.4 q -0.2,-0.8 -0.05,-1.7 0.25,-2.65 2.7,-5.05 1.5,-1.3 4.9,-3.15 L 17.7,51.55 16.05,50 q -1.35,-1.5 -1.8,-3.6 -0.4,-1.85 0.25,-3.45 l 0.3,-1.25"
         fill="#000000"
         fill-opacity="0.372549"
         fill-rule="evenodd"
         stroke="none"
         id="path6" />
    </g>
  </defs>
</svg>
