<?xml version="1.0" encoding="UTF-8" standalone="no"?>
<svg
   ffdec:objectType="frame"
   height="74.351112"
   width="91.684364"
   version="1.1"
   id="svg5"
   xmlns:xlink="http://www.w3.org/1999/xlink"
   xmlns="http://www.w3.org/2000/svg"
   xmlns:svg="http://www.w3.org/2000/svg"
   xmlns:ffdec="https://www.free-decompiler.com/flash">
  <g
     transform="translate(46.290244,36.65)"
     id="g1">
    <use
       ffdec:characterId="17"
       height="119.15"
       id="rarity"
       transform="translate(-58.5,-60.65)"
       width="119.15"
       xlink:href="#sprite0" />
    <use
       ffdec:characterId="708"
       height="74.5"
       transform="translate(-46.3,-36.8)"
       width="91.699997"
       xlink:href="#shape0"
       id="use1" />
  </g>
  <defs
     id="defs5">
    <g
       id="shape0"
       transform="translate(45.9,36)">
      <path
         d="m -23.1,-19.1 q 3.55,-8.6 8.6,-12.05 2.65,-1.8 7.35,-3.25 l 6.5,-1.45 8.25,0.5 q 4.1,1 7.6,3.3 2.35,1.55 4.2,3.45 l 1.65,-0.2 2.6,0.15 5.85,0.2 5.85,0.45 q 3.15,0.55 5.55,2 2.7,1.65 3.9,4.15 1.3,2.75 0.9,8 -1.05,15.1 -6.1,24.8 -1.4,2.7 -4.9,7.8 l -4.85,6.2 Q 25.4,29.9 19.5,33.2 13.6,36.5 7.05,37.75 0.1,39.05 -9.2,38.1 q -5.3,-0.5 -9,-1.8 -3.7,-1.3 -10.25,-5.45 l -6.6,-4.65 q -4,-3.4 -6.7,-8.25 -2.6,-4.65 -3.7,-10.1 -0.95,-4.6 0.15,-7.45 0.85,-2.25 3.9,-5.1 l 8.95,-7.25 q 4.95,-3.65 7.95,-4.7 l 0.55,-0.15 0.85,-2.3 m 41.1,-2 q -1.6,-2.55 -3.85,-4.55 -4.5,-3.95 -10.15,-4.4 -3.95,-0.4 -9.3,1.2 l -2,0.65 -3.05,1.4 q -3.2,2 -5.75,6.75 -2.1,3.85 -3.15,8 l -0.2,0.7 -0.8,4.3 q -0.1,1.15 0.15,1.65 l 0.85,0.9 1.1,0.85 1.85,0.9 q 1.4,0.55 1.85,0.9 l 3.6,0.8 8.25,0.85 q 4.55,0.1 8.05,-1.1 3.7,-1.25 7.45,-4.35 2.6,-2.1 6.3,-6.15 1.25,-1.45 1.35,-2.15 0.2,-0.85 -0.3,-2.35 -0.9,-2.6 -2.25,-4.8 m -56.65,26.6 1.7,1.5 q 1.7,1.25 5.15,2.6 4.85,1.9 7.75,2.5 l 4.8,0.75 4.25,0.2 0.9,0.05 6.7,-0.15 0.7,-0.05 8.4,-0.95 0.95,-0.2 2.25,-0.45 1.65,-0.4 q 4,-1.05 7.6,-2.55 7.15,-2.95 12.7,-7.8 5.6,-4.85 8.75,-10.95 l 0.3,-0.65 1.8,-4.2 0.25,-0.65 1.6,-4.05 Q 38.5,-21.4 36.4,-22 l -1.85,-0.4 -1.5,-0.15 -0.9,-0.1 -8.7,-0.4 1.25,2.65 0.45,1.3 q 0.75,2.25 0.85,4.1 0.05,1.55 -0.3,2.85 -0.65,2.05 -3.2,4.9 -9,10.05 -17.85,11.9 l -8.5,0.5 Q -14.75,4.7 -21.65,1 q -2.7,-1.5 -3.65,-3.15 l -0.55,-1.35 q -0.4,-1.2 -0.35,-2.85 l 0.05,-1.05 0.35,-2.6 -4.2,3.05 -7.3,6.15 q -1.9,1.8 -2.4,3 L -40,3.35 -38.65,5.5 M 38.4,-0.75 39.1,-3.9 40,-9.8 Q 36.2,-2.2 29.45,3.8 20.75,11.45 9.1,14.65 L 2.95,16 q -12.65,2.25 -25.6,0.65 l -5.3,-1 -5,-1.8 q -3.3,-1.35 -5.35,-2.6 l 1.2,2.7 q 2.15,4.4 5.35,7.25 1.65,1.5 5.35,3.9 l 5.65,3.5 q 3.25,1.8 6.1,2.65 2.9,0.9 7.3,1.35 7.4,0.7 12.55,-0.1 5.65,-0.85 10.8,-3.5 5.2,-2.65 9.15,-6.75 2.8,-2.95 6.25,-8 3.25,-5.05 4.75,-8.35 1.3,-3.05 2.25,-6.65"
         fill="#000000"
         fill-rule="evenodd"
         stroke="none"
         id="path1" />
      <path
         d="m -7.3,-28.2 1,0.3 q 1,0.55 1.4,1.55 l 0.45,1.25 0.6,1.1 q 0.35,0.75 0.35,2.35 0,1.25 -0.15,1.85 -0.2,0.8 -0.95,2 l -1.35,2.05 q -1.8,2.4 -5.15,4.3 -0.8,0.55 -1.95,0.95 l -2.65,0.25 q -1.55,0 -2.35,-0.45 -0.8,-0.45 -1.2,-1.35 1.05,-4.15 3.15,-8 2.55,-4.75 5.75,-6.75 l 3.05,-1.4 m 7.05,17.7 q 0.55,-1.2 1.7,-1.2 l 0.25,-0.1 q 1,0.1 1.6,0.75 0.6,0.6 0.6,1.6 -0.1,0.9 -0.6,1.55 -0.5,0.6 -1.35,0.65 -0.85,0.1 -1.5,-0.4 -0.65,-0.45 -0.85,-1.3 -0.2,-0.85 0.15,-1.55 m 33.3,-12.05 v 0.05 Q 33,-21.9 32.6,-21.45 L 32,-21 l -0.8,0.2 -0.5,0.05 -1.45,0.15 -1.9,0.1 h -0.3 -0.8 l -1.55,0.1 -1.25,-2.65 8.7,0.4 0.9,0.1 m -59.25,16.2 -1.85,1.4 -1.6,1.45 -1.9,1.85 -0.2,0.15 -3.75,3.55 -2.15,2.2 -1,1.25 L -40,3.35 -39.7,2.2 q 0.5,-1.2 2.4,-3 l 7.3,-6.15 4.2,-3.05 -0.35,2.6 -0.05,1.05"
         fill="#ffffff"
         fill-rule="evenodd"
         stroke="none"
         id="path2" />
      <path
         d="m -7.3,-28.2 2,-0.65 q 5.35,-1.6 9.3,-1.2 5.65,0.45 10.15,4.4 2.25,2 3.85,4.55 -0.1,3.65 -1.8,7.05 -1.85,3.55 -4.95,5.85 -2.1,1.55 -6.35,3.3 -5.05,2.05 -8.05,2.2 -4,0.25 -8.75,-1.5 -3.6,-1.25 -5.4,-3.2 -1.55,-1.6 -2.15,-3.95 l 0.2,-0.7 q 0.4,0.9 1.2,1.35 0.8,0.45 2.35,0.45 l 2.65,-0.25 q 1.15,-0.4 1.95,-0.95 3.35,-1.9 5.15,-4.3 l 1.35,-2.05 q 0.75,-1.2 0.95,-2 0.15,-0.6 0.15,-1.85 0,-1.6 -0.35,-2.35 l -0.6,-1.1 -0.45,-1.25 q -0.4,-1 -1.4,-1.55 l -1,-0.3 m 7.05,17.7 q -0.35,0.7 -0.15,1.55 0.2,0.85 0.85,1.3 0.65,0.5 1.5,0.4 0.85,-0.05 1.35,-0.65 0.5,-0.65 0.6,-1.55 0,-1 -0.6,-1.6 -0.6,-0.65 -1.6,-0.75 l -0.25,0.1 q -1.15,0 -1.7,1.2 m 33.3,-12.05 1.5,0.15 1.85,0.4 q 2.1,0.6 3.15,2.05 l -1.6,4.05 -0.25,0.65 -1.8,4.2 -0.3,0.65 q -3.15,6.1 -8.75,10.95 -5.55,4.85 -12.7,7.8 -3.6,1.5 -7.6,2.55 l -1.65,0.4 -2.25,0.45 -0.95,0.2 -8.4,0.95 -0.7,0.05 -6.7,0.15 -0.9,-0.05 -4.25,-0.2 -4.8,-0.75 Q -26.95,11.5 -31.8,9.6 -35.25,8.25 -36.95,7 l -1.7,-1.5 1,-1.25 2.15,-2.2 3.75,-3.55 0.2,-0.15 1.9,-1.85 1.6,-1.45 1.85,-1.4 q -0.05,1.65 0.35,2.85 -0.5,1.3 -0.45,2.4 0,2.7 2.4,5 1.6,1.55 4.9,2.95 l 4,1.5 h 0.65 l 3.55,0.55 0.55,0.2 0.6,0.1 4.1,0.45 h 0.1 l 2.2,-0.3 2.3,-0.2 5.7,-1.05 h 0.1 Q 6.1,7.45 8.1,6.55 l 5.3,-2.65 4.85,-3.15 1.5,-1.45 q 3.75,-3.45 5.15,-5.75 2.35,-3.8 1.5,-7.35 L 26,-15 q -0.1,-1.85 -0.85,-4.1 l -0.45,-1.3 1.55,-0.1 h 0.8 0.3 l 1.9,-0.1 1.45,-0.15 0.5,-0.05 0.8,-0.2 0.6,-0.45 q 0.4,-0.45 0.45,-1.05 v -0.05 m -70.15,36.5 -1.2,-2.7 q 2.05,1.25 5.35,2.6 l 5,1.8 5.3,1 Q -9.7,18.25 2.95,16 L 9.1,14.65 Q 20.75,11.45 29.45,3.8 36.2,-2.2 40,-9.8 l -0.9,5.9 -0.7,3.15 -0.3,0.3 q -2.5,2.8 -7.9,7.3 -5.5,4.65 -8.95,6.4 -2.6,1.35 -6.15,2.35 l -6.45,1.55 -9.2,1.75 -9.3,1 q -13.8,0.45 -27.25,-5.95"
         fill="#b9b9b9"
         fill-rule="evenodd"
         stroke="none"
         id="path3" />
      <path
         d="m -19.45,-11.35 q 0.6,2.35 2.15,3.95 1.8,1.95 5.4,3.2 4.75,1.75 8.75,1.5 3,-0.15 8.05,-2.2 4.25,-1.75 6.35,-3.3 3.1,-2.3 4.95,-5.85 1.7,-3.4 1.8,-7.05 1.35,2.2 2.25,4.8 0.5,1.5 0.3,2.35 -0.1,0.7 -1.35,2.15 -3.7,4.05 -6.3,6.15 -3.75,3.1 -7.45,4.35 -3.5,1.2 -8.05,1.1 l -8.25,-0.85 -3.6,-0.8 q -0.45,-0.35 -1.85,-0.9 l -1.85,-0.9 -1.1,-0.85 -0.85,-0.9 q -0.25,-0.5 -0.15,-1.65 l 0.8,-4.3 M 26,-15 l 0.4,1.2 q 0.85,3.55 -1.5,7.35 -1.4,2.3 -5.15,5.75 L 18.25,0.75 13.4,3.9 8.1,6.55 q -2,0.9 -3.25,1.55 h -0.1 l -5.7,1.05 -2.3,0.2 -2.2,0.3 h -0.1 L -9.65,9.2 -10.25,9.1 -10.8,8.9 -14.35,8.35 H -15 l -4,-1.5 q -3.3,-1.4 -4.9,-2.95 -2.4,-2.3 -2.4,-5 -0.05,-1.1 0.45,-2.4 l 0.55,1.35 q 0.95,1.65 3.65,3.15 6.9,3.7 17.8,4.15 l 8.5,-0.5 Q 13.5,2.8 22.5,-7.25 q 2.55,-2.85 3.2,-4.9 0.35,-1.3 0.3,-2.85 m -63.1,28.95 q 13.45,6.4 27.25,5.95 l 9.3,-1 9.2,-1.75 6.45,-1.55 q 3.55,-1 6.15,-2.35 3.45,-1.75 8.95,-6.4 5.4,-4.5 7.9,-7.3 l 0.3,-0.3 q -0.95,3.6 -2.25,6.65 -1.5,3.3 -4.75,8.35 -3.45,5.05 -6.25,8 -3.95,4.1 -9.15,6.75 -5.15,2.65 -10.8,3.5 -5.15,0.8 -12.55,0.1 -4.4,-0.45 -7.3,-1.35 -2.85,-0.85 -6.1,-2.65 l -5.65,-3.5 q -3.7,-2.4 -5.35,-3.9 -3.2,-2.85 -5.35,-7.25"
         fill="#7c7c7c"
         fill-rule="evenodd"
         stroke="none"
         id="path4" />
    </g>
    <g
       id="sprite1"
       transform="translate(17.4,15.85)">
      <use
         ffdec:characterId="31"
         height="57.200001"
         transform="matrix(0.5366,0,0,0.5366,-16.6582,-14.546)"
         width="70.75"
         xlink:href="#sprite2"
         id="use4" />
    </g>
    <g
       id="sprite2"
       transform="translate(-8.65,-10.35)">
      <use
         ffdec:characterId="30"
         height="57.200001"
         transform="translate(8.65,10.35)"
         width="70.75"
         xlink:href="#shape1"
         id="use5" />
    </g>
    <g
       id="shape1"
       transform="translate(-8.65,-10.35)">
      <path
         d="m 14.8,41.7 q 0.65,-1.75 2.65,-2.5 1.8,-0.8 3.7,-0.25 1.15,0.45 2.25,1.2 l 0.9,0.4 q 1.65,0.9 2.85,2.5 L 37.8,30.1 q 2.35,-2.8 3.75,-3.95 1.5,-1.15 4.25,-2.4 18.2,-8.85 27.65,-12.6 2.15,-0.8 3.25,-0.8 h 0.8 l 1.9,2.4 -0.2,0.8 q -0.2,1.1 -1.55,3 -5.85,8.25 -18.85,23.8 -1.85,2.35 -3.35,3.5 -1.4,1.15 -4.75,2.75 l -15.15,7.15 q 1.2,1.6 1.75,3.4 l 0.2,1 0.55,2.5 q 0.1,1.95 -1.1,3.55 -1.2,1.65 -3.05,1.9 l -1.3,0.05 q -1.65,0.2 -3.45,-0.65 -1.85,-0.9 -3,-2.6 L 25,60.95 23.8,62.1 q -2.6,2.85 -4.3,3.95 -2.85,1.8 -5.5,1.45 l -1.65,-0.5 -1.2,-0.7 -0.2,-0.2 q -1,-0.85 -1.6,-1.9 L 9.25,64 9.15,63.8 8.75,62.4 q -0.2,-0.8 -0.05,-1.7 0.25,-2.65 2.7,-5.05 1.5,-1.3 4.9,-3.15 L 17.7,51.55 16.05,50 q -1.35,-1.5 -1.8,-3.6 -0.4,-1.85 0.25,-3.45 l 0.3,-1.25"
         fill="#000000"
         fill-opacity="0.372549"
         fill-rule="evenodd"
         stroke="none"
         id="path5" />
    </g>
  </defs>
</svg>
