<?xml version="1.0" encoding="UTF-8" standalone="no"?>
<svg
   ffdec:objectType="frame"
   height="66.33477"
   width="57.632"
   version="1.1"
   id="svg6"
   xmlns:xlink="http://www.w3.org/1999/xlink"
   xmlns="http://www.w3.org/2000/svg"
   xmlns:svg="http://www.w3.org/2000/svg"
   xmlns:ffdec="https://www.free-decompiler.com/flash">
  <g
     transform="translate(28.85,34.266667)"
     id="g1">
    <use
       ffdec:characterId="17"
       height="119.15"
       id="rarity"
       transform="translate(-58.5,-60.65)"
       width="119.15"
       xlink:href="#sprite0" />
    <use
       ffdec:characterId="660"
       height="66.300003"
       transform="translate(-28.85,-34.25)"
       width="57.650002"
       xlink:href="#shape0"
       id="use1" />
  </g>
  <defs
     id="defs6">
    <g
       id="shape0"
       transform="translate(28.45,33.45)">
      <path
         d="m -4.25,-26.5 -0.15,0.05 q -1.3,1.2 -1.7,2.25 -0.4,1.1 -0.1,2.35 l 0.05,0.15 q -0.65,0.55 -0.8,1.45 -0.2,0.9 0.35,1.8 0.5,0.85 1.35,1.2 l 1.85,-0.05 1,-0.65 0.25,0.1 -0.3,2.3 -2,-0.15 -2.15,-0.5 -1.95,0.05 -1.9,0.2 -1.5,-0.05 -1.5,0.15 q -1.35,0.4 -1.9,1.65 -0.65,1.2 -0.15,2.5 0.25,0.85 1,1.5 0.7,0.65 1.6,0.75 l 1.5,-0.2 1.45,-0.55 2.05,-0.65 0.35,-0.1 -0.65,0.7 -1.4,2.1 -0.1,0.15 q -0.65,1.5 -0.6,3.05 0.1,1.6 0.95,2.85 0.95,1.35 2.75,2.1 l 2.65,0.65 q 0.15,5.05 1.05,10.25 0.3,1.65 1.1,3.05 2.85,4.85 1.15,10.2 -0.65,1 -1.75,1.65 -3.15,1.9 -6.6,1.25 l -0.15,-0.9 q -0.7,-2.2 -2.05,-4.1 -1.9,-2.6 -3.4,-5.5 v -0.2 l -1.2,-3.65 -1.2,-2.55 -2.4,-10.4 q -1.05,-4.1 -1.45,-8.15 0.2,-0.65 0.15,-1.25 l 0.25,-2.7 q 0.25,-0.9 -0.05,-1.75 l 0.15,-0.4 0.05,-0.2 0.05,-0.25 0.05,-0.4 5.25,-5.05 q 4.9,-4.35 10.7,-6.1 m -5.7,28.6 q 0.4,-1.25 -0.25,-2.55 -0.6,-1.25 -1.85,-1.8 l -2.55,-0.1 q -1.4,0.4 -2.1,1.55 -0.65,1.15 -0.4,2.55 0.25,1.45 1.3,2.25 1,0.85 2.45,0.75 1.4,-0.05 2.4,-0.95 0.7,-0.7 1,-1.7 m 4.85,14.35 -0.65,-0.1 q -2.5,-0.2 -3.65,1.9 -1.85,3.6 2.15,4.95 1.65,0.55 2.8,-0.6 3.7,-3.4 -0.65,-6.15"
         fill="#6b6b6b"
         fill-rule="evenodd"
         stroke="none"
         id="path1" />
      <path
         d="m -4.25,-26.5 q -5.8,1.75 -10.7,6.1 l -5.25,5.05 -0.05,0.4 -0.05,0.25 -0.05,0.2 -0.15,0.4 q 0.3,0.85 0.05,1.75 l -0.25,2.7 q 0.05,0.6 -0.15,1.25 0.4,4.05 1.45,8.15 l 2.4,10.4 1.2,2.55 1.2,3.65 v 0.2 q 1.5,2.9 3.4,5.5 1.35,1.9 2.05,4.1 l 0.15,0.9 q 3.45,0.65 6.6,-1.25 1.1,-0.65 1.75,-1.65 Q 1.05,18.8 -1.8,13.95 -2.6,12.55 -2.9,10.9 -3.8,5.7 -3.95,0.65 L -4,0.05 q -0.1,-4.4 0.3,-8.75 0,-0.55 0.55,-0.75 L -0.6,-10.55 3.25,-12 3.95,-12.25 2,-17.6 1.7,-18.35 0.55,-21.3 0.1,-22.35 q -0.25,-0.6 0.3,-1.1 2.6,-2.3 6.2,-3 l 2.7,-0.4 -2.05,-0.75 -9,0.45 -0.15,0.05 -1.2,0.25 -1.15,0.35 m 12.3,-6.7 q 6.45,0.9 9.65,5.8 4.5,1.7 7.95,4.95 l 2.65,2.7 q 1.05,2.75 0.85,5.75 -0.15,4.45 -1.4,8.75 l -0.15,1.9 -0.8,2.5 -0.3,0.8 q -1.55,7.55 -5.2,14.6 -3.2,6.3 -9.4,9.65 -1,6.25 -7,7.55 -3,0.65 -5.2,-0.45 l -0.45,0.2 q -7.15,3.45 -12.5,-1.8 -0.7,-0.7 -0.85,-1.65 l -0.15,-0.5 q -2.05,-2.55 -3.7,-5.3 -1.35,2.25 -3.55,2.85 -2.25,0.55 -4.3,-0.95 -1.75,-1.4 -2.4,-3.75 l -0.25,-3.55 q 0,-5.95 0.6,-9.3 l 0.8,-3.2 q 0.6,-1.8 0.7,-2.75 l 0.1,-2.2 0.5,-1.5 v -0.05 q -0.6,-2.95 -0.65,-6 l 0.1,-1.5 -0.05,-0.25 -0.05,-1.15 0.2,-0.85 0.2,-0.8 q -0.35,-7.1 5.85,-11.55 l 6.75,-4.4 Q -3.35,-34.6 8.05,-33.2 m 11.8,12.4 q -1.75,-1.1 -3.35,-2.15 l -1.55,0.6 -0.7,0.15 -0.65,0.15 -3.05,0.7 -0.45,0.1 -0.2,0.05 -1.6,0.35 -1.65,0.35 0.25,0.55 0.4,1 0.95,2.75 1.25,5.55 Q 9.8,-8.6 7.9,-7.8 L 7.35,-7.55 7.1,-7.4 5.5,-6.8 3.5,-6.05 2.8,-5.8 2.25,-5.6 1.75,-5.45 1.25,-5.3 1.2,-3.9 1.5,-1.05 1.6,-0.4 V 2.4 L 1.7,2.6 1.8,2.95 1.85,4.05 1.9,5.4 1.85,6 q 1.1,6.15 2.95,12.1 0.95,3 0.25,6.1 Q 4.6,26 3.8,27.45 l 0.9,-0.2 q 1.55,-0.4 2,-1.85 1.9,-6.3 3.1,-12.95 L 10.25,9.3 q 1,-10.85 4.95,-20.7 0.8,-2.05 2.55,-3.5 2.55,-2.2 5.75,-1.6 l 0.75,0.4 -0.45,-1.25 q -0.65,-1.45 -2,-2.25 l -1.95,-1.2 m 2.05,9.75 -1.1,0.55 -0.45,0.35 q -2.95,4 -3.55,9.1 l -2.05,16.1 q 5.45,-8.85 7.55,-19.3 0.8,-3.9 -0.4,-6.8 m -27,27.5 q 4.35,2.75 0.65,6.15 -1.15,1.15 -2.8,0.6 -4,-1.35 -2.15,-4.95 1.15,-2.1 3.65,-1.9 l 0.65,0.1 m -16.1,-1 Q -22.35,12.4 -23,9.25 l -0.15,1.15 q -0.5,4.6 -0.35,6.95 0.1,1.6 0.6,2.4 l 0.55,0.4 0.5,-0.35 q 0.4,-0.55 0.7,-2.1 l 0.35,-1.2 -0.4,-1.05"
         fill="#000000"
         fill-rule="evenodd"
         stroke="none"
         id="path2" />
      <path
         d="m 8.25,-16.2 0.35,0.05 q 2.1,0.25 3.65,-0.6 1.25,-0.65 2,-1.85 0.75,-1.25 0.75,-2.65 h 0.05 q 0.85,0.7 2,0.9 l 2.1,-0.15 0.7,-0.3 1.95,1.2 q 1.35,0.8 2,2.25 l 0.45,1.25 -0.75,-0.4 q -3.2,-0.6 -5.75,1.6 -1.75,1.45 -2.55,3.5 -3.95,9.85 -4.95,20.7 L 9.8,12.45 Q 8.6,19.1 6.7,25.4 q -0.45,1.45 -2,1.85 l -0.9,0.2 Q 4.6,26 5.05,24.2 5.75,21.1 4.8,18.1 2.95,12.15 1.85,6 L 1.9,5.4 1.85,4.05 1.8,2.95 1.95,2.8 3.3,1.5 3.95,0.65 Q 4.7,-0.5 4.6,-2.7 L 4.5,-4.2 3.85,-5.7 3.6,-6.05 H 3.5 L 5.5,-6.8 7.1,-7.4 7.35,-7.55 7.9,-7.8 q 1.9,-0.8 1.6,-2.85 L 8.25,-16.2 m -4,29.85 Q 4.9,12.95 5.1,11.95 5.3,10.95 5,10 4.65,8.85 3.55,8.15 2.9,7.7 2.15,7.55 L 3.7,14.2 4.25,13.65"
         fill="#535353"
         fill-rule="evenodd"
         stroke="none"
         id="path3" />
      <path
         d="m 21.9,-11.05 q 1.2,2.9 0.4,6.8 -2.1,10.45 -7.55,19.3 l 2.05,-16.1 q 0.6,-5.1 3.55,-9.1 l 0.45,-0.35 1.1,-0.55"
         fill="#3e3e3e"
         fill-rule="evenodd"
         stroke="none"
         id="path4" />
      <path
         d="M -3.95,0.65 -6.6,0 Q -8.4,-0.75 -9.35,-2.1 -10.2,-3.35 -10.3,-4.95 -10.35,-6.5 -9.7,-8 l 0.1,-0.15 1.4,-2.1 0.65,-0.7 -0.35,0.1 -2.05,0.65 -1.45,0.55 -1.5,0.2 q -0.9,-0.1 -1.6,-0.75 -0.75,-0.65 -1,-1.5 -0.5,-1.3 0.15,-2.5 0.55,-1.25 1.9,-1.65 l 1.5,-0.15 1.5,0.05 1.9,-0.2 1.95,-0.05 2.15,0.5 2,0.15 0.3,-2.3 -0.25,-0.1 -1,0.65 -1.85,0.05 q -0.85,-0.35 -1.35,-1.2 -0.55,-0.9 -0.35,-1.8 0.15,-0.9 0.8,-1.45 l -0.05,-0.15 q -0.3,-1.25 0.1,-2.35 0.4,-1.05 1.7,-2.25 l 0.15,-0.05 1.15,-0.35 1.2,-0.25 0.15,-0.05 9,-0.45 2.05,0.75 -2.7,0.4 q -3.6,0.7 -6.2,3 -0.55,0.5 -0.3,1.1 l 0.45,1.05 1.15,2.95 0.3,0.75 1.95,5.35 -0.7,0.25 -3.85,1.45 -2.55,1.1 Q -3.7,-9.25 -3.7,-8.7 -4.1,-4.35 -4,0.05 l 0.05,0.6 m -6,1.45 q -0.3,1 -1,1.7 -1,0.9 -2.4,0.95 -1.45,0.1 -2.45,-0.75 -1.05,-0.8 -1.3,-2.25 -0.25,-1.4 0.4,-2.55 0.7,-1.15 2.1,-1.55 l 2.55,0.1 q 1.25,0.55 1.85,1.8 0.65,1.3 0.25,2.55 m 18.2,-18.3 -0.95,-2.75 -0.4,-1 -0.25,-0.55 1.65,-0.35 1.6,-0.35 0.2,-0.05 0.45,-0.1 3.05,-0.7 0.65,-0.15 0.7,-0.15 1.55,-0.6 q 1.6,1.05 3.35,2.15 l -0.7,0.3 -2.1,0.15 q -1.15,-0.2 -2,-0.9 H 15 q 0,1.4 -0.75,2.65 -0.75,1.2 -2,1.85 -1.55,0.85 -3.65,0.6 L 8.25,-16.2 M 1.8,2.95 1.7,2.6 1.6,2.4 V -0.4 L 1.5,-1.05 1.2,-3.9 1.25,-5.3 1.75,-5.45 2.25,-5.6 2.8,-5.8 3.5,-6.05 h 0.1 l 0.25,0.35 0.65,1.5 0.1,1.5 Q 4.7,-0.5 3.95,0.65 L 3.3,1.5 1.95,2.8 1.8,2.95 M 4.25,13.65 3.7,14.2 2.15,7.55 Q 2.9,7.7 3.55,8.15 4.65,8.85 5,10 q 0.3,0.95 0.1,1.95 -0.2,1 -0.85,1.7 m -25.45,1.8 0.4,1.05 -0.35,1.2 q -0.3,1.55 -0.7,2.1 l -0.5,0.35 -0.55,-0.4 q -0.5,-0.8 -0.6,-2.4 -0.15,-2.35 0.35,-6.95 L -23,9.25 q 0.65,3.15 1.8,6.2"
         fill="#682828"
         fill-rule="evenodd"
         stroke="none"
         id="path5" />
    </g>
    <g
       id="sprite1"
       transform="translate(17.4,15.85)">
      <use
         ffdec:characterId="31"
         height="57.200001"
         transform="matrix(0.5366,0,0,0.5366,-16.6582,-14.546)"
         width="70.75"
         xlink:href="#sprite2"
         id="use5" />
    </g>
    <g
       id="sprite2"
       transform="translate(-8.65,-10.35)">
      <use
         ffdec:characterId="30"
         height="57.200001"
         transform="translate(8.65,10.35)"
         width="70.75"
         xlink:href="#shape1"
         id="use6" />
    </g>
    <g
       id="shape1"
       transform="translate(-8.65,-10.35)">
      <path
         d="m 14.8,41.7 q 0.65,-1.75 2.65,-2.5 1.8,-0.8 3.7,-0.25 1.15,0.45 2.25,1.2 l 0.9,0.4 q 1.65,0.9 2.85,2.5 L 37.8,30.1 q 2.35,-2.8 3.75,-3.95 1.5,-1.15 4.25,-2.4 18.2,-8.85 27.65,-12.6 2.15,-0.8 3.25,-0.8 h 0.8 l 1.9,2.4 -0.2,0.8 q -0.2,1.1 -1.55,3 -5.85,8.25 -18.85,23.8 -1.85,2.35 -3.35,3.5 -1.4,1.15 -4.75,2.75 l -15.15,7.15 q 1.2,1.6 1.75,3.4 l 0.2,1 0.55,2.5 q 0.1,1.95 -1.1,3.55 -1.2,1.65 -3.05,1.9 l -1.3,0.05 q -1.65,0.2 -3.45,-0.65 -1.85,-0.9 -3,-2.6 L 25,60.95 23.8,62.1 q -2.6,2.85 -4.3,3.95 -2.85,1.8 -5.5,1.45 l -1.65,-0.5 -1.2,-0.7 -0.2,-0.2 q -1,-0.85 -1.6,-1.9 L 9.25,64 9.15,63.8 8.75,62.4 q -0.2,-0.8 -0.05,-1.7 0.25,-2.65 2.7,-5.05 1.5,-1.3 4.9,-3.15 L 17.7,51.55 16.05,50 q -1.35,-1.5 -1.8,-3.6 -0.4,-1.85 0.25,-3.45 l 0.3,-1.25"
         fill="#000000"
         fill-opacity="0.372549"
         fill-rule="evenodd"
         stroke="none"
         id="path6" />
    </g>
  </defs>
</svg>
