<?xml version="1.0" encoding="UTF-8" standalone="no"?>
<svg
   ffdec:objectType="frame"
   height="78.9375"
   width="84.440552"
   version="1.1"
   id="svg5"
   xmlns:xlink="http://www.w3.org/1999/xlink"
   xmlns="http://www.w3.org/2000/svg"
   xmlns:svg="http://www.w3.org/2000/svg"
   xmlns:ffdec="https://www.free-decompiler.com/flash">
  <g
     transform="translate(41.788889,39.1)"
     id="g1">
    <use
       ffdec:characterId="17"
       height="119.15"
       id="rarity"
       transform="translate(-58.5,-60.65)"
       width="119.15"
       xlink:href="#sprite0" />
    <use
       ffdec:characterId="54"
       height="78.949997"
       transform="translate(-41.8,-39.1)"
       width="84.449997"
       xlink:href="#sprite1"
       id="use1" />
  </g>
  <defs
     id="defs5">
    <g
       id="sprite1">
      <use
         ffdec:characterId="53"
         height="78.949997"
         width="84.449997"
         xlink:href="#shape0"
         id="use2" />
    </g>
    <g
       id="shape0">
      <path
         d="M 4.25,33.5 Q 2.2,32.1 1.1,30.05 -0.3,27.55 0.1,24.4 0.5,21.35 2.35,18.9 5.7,14.45 12.3,13.05 l 5.9,-0.75 5.9,-0.75 q 4.6,-0.9 11.35,-4.5 8.4,-4.5 11.05,-5.5 3.95,-1.5 7.1,-1.55 4.5,0 9.95,2.6 5.9,2.7 8.55,6.45 2.5,3.6 2.4,8.4 -0.1,4.65 -2.5,8.6 l -1.5,2.2 2.1,0.6 q 6.55,2.65 9.15,7 1.35,2.3 2.1,6.05 0.95,4.6 0.4,7.9 -0.75,3.9 -3.6,7.1 -2.8,3.1 -6.65,4.5 -2.35,0.85 -4.85,1.1 v 0.3 q 0.2,4.4 -0.75,6.75 -1.1,3.1 -4.55,5.05 -2.7,1.55 -6.65,2 -3.7,0.35 -6.2,-0.6 -3.3,-1.2 -4.35,-4.15 -3.1,0.25 -8.5,3.45 -5.5,3.2 -8.5,3.55 Q 27,79.2 23.55,78.15 19.75,77.1 17.15,74.9 14.1,72.45 12.8,68.45 11.55,64.5 12.65,60.7 l 0.3,-0.75 Q 9.2,59.55 6.25,57.65 3.05,55.65 1.4,52.1 -0.3,48.45 0.4,44.8 1,41.9 3.3,38.95 L 7.1,34.9 Q 5.55,34.35 4.25,33.5 m 29.8,-13.2 0.15,2.5 1.5,-0.3 3.7,-0.3 3.7,-0.05 q 5.7,-0.3 11.1,-2.2 l 2.1,-0.7 0.05,-0.05 2.45,-2.9 0.65,-1.05 1.45,-4.25 0.3,-1.15 0.2,-0.9 q -4.15,-2 -9.65,-1 -2.95,0.5 -7.2,2.45 l -3.55,1.75 -5,2.8 -3.35,1.7 1.25,3.05 0.15,0.6 m 28,-0.4 q 0.8,1.5 -1.4,3.45 -3.75,3.3 -8.5,4.5 l -8.65,0.95 -1.5,0.1 0.8,1.6 0.1,1.65 q 7.75,-0.7 10.4,-1.4 4.7,-1.35 8.25,-3.8 4.8,-3.2 5.8,-7.25 0.6,-2.8 -0.7,-5.6 l -0.2,-0.4 -0.8,-1.3 -1.55,-1.75 -0.1,0.5 q -0.8,3.2 -2.4,6.05 l -1.05,1.65 q 1.05,0.3 1.5,1.05 M 55.1,41 q 4.9,-0.2 8.05,0.15 l 3.5,0.65 1.05,-0.75 q 2.95,-2.25 3.6,-5.95 l 0.1,-0.3 q -1.2,-0.75 -2.45,-1.35 l -2,-1.15 -0.3,-0.25 q -3,2.25 -6.95,3.8 l -1.85,0.65 q -3.85,1.25 -8.8,1.9 l -7,0.55 -1.95,0.1 -8.95,0.75 q -2.35,0.4 -4.25,1.15 l 0.55,0.5 0.8,0.65 q 1.25,1.15 1.5,3.4 l 0.1,1.1 q 6.7,-3.5 12.1,-4.55 L 43.05,41.9 50.5,41.25 55.1,41 m -12.05,7.8 -1.1,0.2 q -4.1,1.05 -9.1,3.6 l 0.45,0.05 q 2.15,0.45 3.55,1.3 l 1.35,1.35 q 1.4,-0.8 2.75,-1.35 1.5,-0.65 2.85,-1.05 6.25,-1.95 11.7,-0.25 l 0.8,0.3 0.7,-1.9 0.4,-1.45 -0.35,-1.85 -3.25,0.05 -10.75,1 m 21.65,-0.5 -4.6,-0.5 -0.05,0.95 -0.35,2.55 -1.05,2.65 2.8,1.15 q 2.75,1 5.7,1 4.6,0.1 7.6,-2.35 2.4,-2 3.15,-5.3 0.75,-3.25 -0.35,-6.3 -1,-2.85 -3.4,-5.15 L 74,36.85 73.35,39.05 72,40.7 70.4,42.1 69.55,42.95 70,43.2 q 1.55,1.05 2.5,2.6 0.95,1.65 0.9,3.4 -0.15,2.7 -2.3,3.7 l -2.2,0.05 Q 67.65,52.55 67.3,51.5 67.15,50 66.75,49.4 66.3,48.7 64.7,48.3 M 7.1,25.7 q -0.05,0.45 0.15,0.9 0.45,1.15 2.3,1.75 5.25,1.65 13.3,-1.5 4.2,-1.75 6.35,-2.55 L 30,24 v -0.15 q 0.05,-0.45 0.45,-1.35 l -0.25,-1.65 -0.45,-1.8 -0.5,-1.1 -2.25,0.6 -4.55,0.8 -1.85,0.15 -2,0.1 -3.9,0.4 -0.5,0.1 q -2.05,0.45 -3.55,1.35 H 10.6 Q 9,22.35 8,23.7 q -0.9,1 -0.9,2 m 12.5,-3.35 0.85,0.45 q 0.6,0.55 0.7,1.45 0.1,0.9 -0.4,1.55 l -1.55,1 -1.95,0.55 -2.8,-0.05 Q 13,27.2 12.25,26.7 11.2,26 11.3,24.65 11.4,23.4 12.55,22.7 l 1.5,-0.45 0.7,-0.1 3.55,-0.1 1.3,0.3 m 2.55,11.8 -4.15,1 -4.2,0.55 -1.4,1.65 -3.7,4.4 q -1.8,2.65 -1.9,4.55 -0.15,1.95 1.15,3.75 1.25,1.7 3.2,2.5 l 8,-0.25 3.7,-1.7 3.55,-2.1 1.3,-0.7 Q 27.5,45.05 26.05,43.6 L 24.7,42.5 24.3,42.15 Q 23.6,42.5 23,42.95 L 21.55,44 20,44.75 18.25,44.7 q -0.95,-0.35 -1.2,-1.15 -0.5,-1.4 1.7,-3.25 2.25,-1.95 4,-3.15 l 1.9,-1.25 q 4.1,-2.3 11.3,-3.15 L 38.6,32.5 40.2,32.4 40.05,31.75 Q 39.8,30.65 39,29.85 l -0.65,-0.7 -1.1,0.15 -2.4,0.4 Q 33,30.15 30.5,31.15 29.1,31.7 26.3,32.8 l -4.15,1.35 m 10.3,24.6 0.85,-0.6 2.5,-1.55 q -0.65,-0.5 -1.95,-0.75 l -4.95,-0.6 -0.8,-0.05 -2.75,1.65 -4.6,2.15 -2.2,0.6 0.15,0.9 -0.05,2.1 -0.05,1 0.05,1.05 q 0.25,1.6 1.05,2.85 1.5,2.5 4.35,3.75 2.85,1.2 5.7,0.55 1.85,-0.4 4.3,-1.85 2.7,-1.7 4.1,-2.45 3.15,-1.75 6.95,-2.2 1.85,-0.3 3.3,0 l 0.05,-0.05 1.05,-2.2 Q 50.25,61.1 50,59.15 L 49.85,58.3 q -2.65,0.15 -6,1.5 -4.15,1.6 -6.4,3.45 l -3.25,2.35 -2,0.4 q -1.1,-0.05 -1.8,-0.7 -0.8,-0.7 -0.85,-1.95 -0.1,-1.15 0.5,-2.15 0.6,-1.05 2.4,-2.45 m 19.7,5.85 -0.95,2.25 0.85,1.1 1.2,1.3 q 1.7,1.3 4.6,0.45 2.2,-0.5 3.65,-1.85 1.75,-1.65 1.6,-3.7 L 62.65,62.1 Q 60.4,61.6 58.2,60.7 l -0.1,-0.05 -2.9,-1.3 q -1.25,-0.55 -2.3,-0.8 h -0.15 v 0.05 q 0.15,3.45 -0.6,6"
         fill="#000000"
         fill-rule="evenodd"
         stroke="none"
         id="path2" />
      <path
         d="m 44.55,10.4 q 4.25,-1.95 7.2,-2.45 5.5,-1 9.65,1 l -0.2,0.9 -0.3,1.15 -1.45,4.25 -0.65,1.05 -2.45,2.9 -0.05,0.05 -2.1,0.7 q -5.4,1.9 -11.1,2.2 l -3.7,0.05 -3.7,0.3 -1.5,0.3 -0.15,-2.5 0.75,-0.05 q 1.9,-0.3 4.7,-2.8 l 2.9,-2.4 1.8,-1.9 q 0.9,-1.35 0.45,-2.5 l -0.1,-0.25 m 17.5,9.5 Q 61.6,19.15 60.55,18.85 L 61.6,17.2 q 1.6,-2.85 2.4,-6.05 l 0.1,-0.5 1.55,1.75 0.8,1.3 0.2,0.4 q 1.3,2.8 0.7,5.6 -1,4.05 -5.8,7.25 -3.55,2.45 -8.25,3.8 -2.65,0.7 -10.4,1.4 L 42.8,30.5 42,28.9 l 1.5,-0.1 8.65,-0.95 q 4.75,-1.2 8.5,-4.5 2.2,-1.95 1.4,-3.45 M 55.1,41 q 1.95,-0.85 2.8,-1.5 1.65,-1.3 1.8,-2.9 v -0.75 q 3.95,-1.55 6.95,-3.8 l 0.3,0.25 2,1.15 q 1.25,0.6 2.45,1.35 l -0.1,0.3 q -0.65,3.7 -3.6,5.95 l -1.05,0.75 -3.5,-0.65 Q 60,40.8 55.1,41 m -13.05,-2.05 -0.1,0.85 q 0,1.15 1.1,2.1 l -1.1,0.15 q -5.4,1.05 -12.1,4.55 l -0.1,-1.1 q -0.25,-2.25 -1.5,-3.4 l -0.8,-0.65 -0.55,-0.5 q 1.9,-0.75 4.25,-1.15 l 8.95,-0.75 1.95,-0.1 m -1.1,15 0.5,-0.3 q 3,-1.85 2.45,-3.75 -0.25,-0.75 -0.85,-1.1 l 10.75,-1 3.25,-0.05 0.35,1.85 -0.4,1.45 -0.7,1.9 -0.8,-0.3 q -5.45,-1.7 -11.7,0.25 -1.35,0.4 -2.85,1.05 M 27,18.55 l 2.25,-0.6 0.5,1.1 0.45,1.8 0.25,1.65 Q 30.05,23.4 30,23.85 V 24 l -0.8,0.3 Q 27.05,25.1 22.85,26.85 14.8,30 9.55,28.35 7.7,27.75 7.25,26.6 7.05,26.15 7.1,25.7 7.75,24.05 9.65,22.3 l 0.95,-0.85 h 0.05 l 1.3,0.45 2.1,0.35 -1.5,0.45 q -1.15,0.7 -1.25,1.95 -0.1,1.35 0.95,2.05 0.75,0.5 2.2,0.6 l 2.8,0.05 1.95,-0.55 1.55,-1 q 0.5,-0.65 0.4,-1.55 -0.1,-0.9 -0.7,-1.45 L 19.6,22.35 23.85,22.1 q 2.85,-0.3 3.4,-1.85 0.25,-0.75 -0.2,-1.6 L 27,18.55 M 64.7,48.3 q 1.6,0.4 2.05,1.1 0.4,0.6 0.55,2.1 0.35,1.05 1.6,1.45 l 2.2,-0.05 q 2.15,-1 2.3,-3.7 0.05,-1.75 -0.9,-3.4 Q 71.55,44.25 70,43.2 L 69.55,42.95 70.4,42.1 72,40.7 73.35,39.05 74,36.85 74.15,37 q 2.4,2.3 3.4,5.15 1.1,3.05 0.35,6.3 -0.75,3.3 -3.15,5.3 -3,2.45 -7.6,2.35 -2.95,0 -5.7,-1 l -2.8,-1.15 1.05,-2.65 0.35,-2.55 0.05,-0.95 4.6,0.5 M 22.75,37.15 q -1.75,1.2 -4,3.15 -2.2,1.85 -1.7,3.25 0.25,0.8 1.2,1.15 L 20,44.75 21.55,44 23,42.95 q 0.6,-0.45 1.3,-0.8 l 0.4,0.35 1.35,1.1 q 1.45,1.45 1.65,4.2 l -1.3,0.7 -3.55,2.1 -3.7,1.7 -8,0.25 Q 9.2,51.75 7.95,50.05 6.65,48.25 6.8,46.3 6.9,44.4 8.7,41.75 l 3.7,-4.4 1.4,-1.65 4.2,-0.55 4.15,-1 -0.1,0.35 q -0.3,1.15 0.25,2.1 l 0.45,0.55 m 14.5,-7.85 1.1,-0.15 0.65,0.7 q 0.8,0.8 1.05,1.9 l 0.15,0.65 -1.6,0.1 -2.65,0.25 1.1,-1.4 q 0.45,-1 0.2,-2.05 M 18.6,63.6 22.25,63.25 q 4.9,-1.8 10.2,-4.5 -1.8,1.4 -2.4,2.45 -0.6,1 -0.5,2.15 0.05,1.25 0.85,1.95 0.7,0.65 1.8,0.7 l 2,-0.4 3.25,-2.35 q 2.25,-1.85 6.4,-3.45 3.35,-1.35 6,-1.5 l 0.15,0.85 -1.7,0.5 q -2.7,0.85 -3.05,2.4 -0.2,0.75 0.3,1.55 0.4,0.75 1.2,1.15 0.75,0.45 1.7,0.5 L 48.4,65.3 q -1.45,-0.3 -3.3,0 -3.8,0.45 -6.95,2.2 -1.4,0.75 -4.1,2.45 -2.45,1.45 -4.3,1.85 -2.85,0.65 -5.7,-0.55 Q 21.2,70 19.7,67.5 18.9,66.25 18.65,64.65 L 18.6,63.6 m 39.5,-2.95 0.1,0.05 q 2.2,0.9 4.45,1.4 l 0.45,2.05 q 0.15,2.05 -1.6,3.7 -1.45,1.35 -3.65,1.85 -2.9,0.85 -4.6,-0.45 l -1.2,-1.3 -0.85,-1.1 0.95,-2.25 1.05,-0.3 2.45,-0.45 Q 57,63.5 57.6,62.65 58.15,61.95 58.1,61 V 60.65 M 52.75,58.6 v -0.05 h 0.15 l -0.15,0.05"
         fill="#d4d4d4"
         fill-rule="evenodd"
         stroke="none"
         id="path3" />
      <path
         d="m 44.55,10.4 0.1,0.25 q 0.45,1.15 -0.45,2.5 l -1.8,1.9 -2.9,2.4 q -2.8,2.5 -4.7,2.8 L 34.05,20.3 33.9,19.7 32.65,16.65 36,14.95 41,12.15 44.55,10.4 M 59.7,35.85 v 0.75 q -0.15,1.6 -1.8,2.9 -0.85,0.65 -2.8,1.5 l -4.6,0.25 -7.45,0.65 q -1.1,-0.95 -1.1,-2.1 l 0.1,-0.85 7,-0.55 Q 54,37.75 57.85,36.5 L 59.7,35.85 M 40.95,53.95 Q 39.6,54.5 38.2,55.3 L 36.85,53.95 Q 35.45,53.1 33.3,52.65 L 32.85,52.6 q 5,-2.55 9.1,-3.6 l 1.1,-0.2 q 0.6,0.35 0.85,1.1 0.55,1.9 -2.45,3.75 l -0.5,0.3 M 27,18.55 l 0.05,0.1 q 0.45,0.85 0.2,1.6 -0.55,1.55 -3.4,1.85 l -4.25,0.25 -1.3,-0.3 -3.55,0.1 -0.7,0.1 -2.1,-0.35 -1.3,-0.45 q 1.5,-0.9 3.55,-1.35 l 0.5,-0.1 3.9,-0.4 2,-0.1 1.85,-0.15 4.55,-0.8 M 22.75,37.15 22.3,36.6 q -0.55,-0.95 -0.25,-2.1 l 0.1,-0.35 4.15,-1.35 q 2.8,-1.1 4.2,-1.65 2.5,-1 4.35,-1.45 l 2.4,-0.4 q 0.25,1.05 -0.2,2.05 l -1.1,1.4 q -7.2,0.85 -11.3,3.15 l -1.9,1.25 m -4.15,26.45 0.05,-1 0.05,-2.1 -0.15,-0.9 2.2,-0.6 4.6,-2.15 2.75,-1.65 0.8,0.05 4.95,0.6 q 1.3,0.25 1.95,0.75 l -2.5,1.55 -0.85,0.6 q -5.3,2.7 -10.2,4.5 L 18.6,63.6 M 50,59.15 q 0.25,1.95 -0.5,3.9 l -1.05,2.2 q -0.95,-0.05 -1.7,-0.5 -0.8,-0.4 -1.2,-1.15 -0.5,-0.8 -0.3,-1.55 0.35,-1.55 3.05,-2.4 l 1.7,-0.5 m 8.1,1.5 V 61 q 0.05,0.95 -0.5,1.65 -0.6,0.85 -1.95,1.2 l -2.45,0.45 -1.05,0.3 q 0.75,-2.55 0.6,-6 l 0.15,-0.05 q 1.05,0.25 2.3,0.8 l 2.9,1.3"
         fill="#ffffff"
         fill-rule="evenodd"
         stroke="none"
         id="path4" />
    </g>
    <g
       id="sprite2"
       transform="translate(17.4,15.85)">
      <use
         ffdec:characterId="31"
         height="57.200001"
         transform="matrix(0.5366,0,0,0.5366,-16.6582,-14.546)"
         width="70.75"
         xlink:href="#sprite3"
         id="use4" />
    </g>
    <g
       id="sprite3"
       transform="translate(-8.65,-10.35)">
      <use
         ffdec:characterId="30"
         height="57.200001"
         transform="translate(8.65,10.35)"
         width="70.75"
         xlink:href="#shape1"
         id="use5" />
    </g>
    <g
       id="shape1"
       transform="translate(-8.65,-10.35)">
      <path
         d="m 14.8,41.7 q 0.65,-1.75 2.65,-2.5 1.8,-0.8 3.7,-0.25 1.15,0.45 2.25,1.2 l 0.9,0.4 q 1.65,0.9 2.85,2.5 L 37.8,30.1 q 2.35,-2.8 3.75,-3.95 1.5,-1.15 4.25,-2.4 18.2,-8.85 27.65,-12.6 2.15,-0.8 3.25,-0.8 h 0.8 l 1.9,2.4 -0.2,0.8 q -0.2,1.1 -1.55,3 -5.85,8.25 -18.85,23.8 -1.85,2.35 -3.35,3.5 -1.4,1.15 -4.75,2.75 l -15.15,7.15 q 1.2,1.6 1.75,3.4 l 0.2,1 0.55,2.5 q 0.1,1.95 -1.1,3.55 -1.2,1.65 -3.05,1.9 l -1.3,0.05 q -1.65,0.2 -3.45,-0.65 -1.85,-0.9 -3,-2.6 L 25,60.95 23.8,62.1 q -2.6,2.85 -4.3,3.95 -2.85,1.8 -5.5,1.45 l -1.65,-0.5 -1.2,-0.7 -0.2,-0.2 q -1,-0.85 -1.6,-1.9 L 9.25,64 9.15,63.8 8.75,62.4 q -0.2,-0.8 -0.05,-1.7 0.25,-2.65 2.7,-5.05 1.5,-1.3 4.9,-3.15 L 17.7,51.55 16.05,50 q -1.35,-1.5 -1.8,-3.6 -0.4,-1.85 0.25,-3.45 l 0.3,-1.25"
         fill="#000000"
         fill-opacity="0.372549"
         fill-rule="evenodd"
         stroke="none"
         id="path5" />
    </g>
  </defs>
</svg>
