<?xml version="1.0" encoding="UTF-8" standalone="no"?>
<svg
   ffdec:objectType="frame"
   height="87.997215"
   width="79.837021"
   version="1.1"
   id="svg6"
   sodipodi:docname="ITEM Leather Choker.svg"
   xmlns:inkscape="http://www.inkscape.org/namespaces/inkscape"
   xmlns:sodipodi="http://sodipodi.sourceforge.net/DTD/sodipodi-0.dtd"
   xmlns:xlink="http://www.w3.org/1999/xlink"
   xmlns="http://www.w3.org/2000/svg"
   xmlns:svg="http://www.w3.org/2000/svg"
   xmlns:ffdec="https://www.free-decompiler.com/flash">
  <sodipodi:namedview
     id="namedview6"
     pagecolor="#ffffff"
     bordercolor="#000000"
     borderopacity="0.25"
     inkscape:showpageshadow="2"
     inkscape:pageopacity="0.0"
     inkscape:pagecheckerboard="0"
     inkscape:deskcolor="#d1d1d1"
     fit-margin-top="5"
     fit-margin-left="5"
     fit-margin-right="5"
     fit-margin-bottom="5" />
  <g
     transform="translate(38.832857,42.89086)"
     id="g1">
    <use
       ffdec:characterId="17"
       height="119.15"
       id="rarity"
       transform="translate(-58.5,-60.65)"
       width="119.15"
       xlink:href="#sprite0" />
    <use
       ffdec:characterId="739"
       height="88"
       transform="translate(-38.85,-42.9)"
       width="79.849998"
       xlink:href="#shape0"
       id="use1" />
  </g>
  <defs
     id="defs6">
    <g
       id="shape0"
       transform="translate(39.4,43.65)">
      <path
         d="m 5.85,-26 -4.25,-2.85 -3.05,-2 v 0.25 L -1.5,-30 q -0.1,2.15 -0.55,4.15 -0.6,2.75 -1.9,5.2 l 1.05,0.25 1.85,0.6 3.9,-2.05 5.05,-2.7 L 5.85,-26 M -15.8,-43.55 q 6.9,-0.65 11.9,3.35 l 0.8,1 q 0.75,1.75 1.2,3.65 7.1,3.05 13.55,7.7 l 3.3,2.45 6.45,5.15 q 1.45,-1.4 3.8,-1.6 l 0.65,0.05 1.75,-0.2 h 0.65 q 11.95,3.05 12.2,15.3 0.15,6.85 -5.1,11.2 -3.05,2.55 -6.65,1.25 l -0.15,0.7 q 0.5,3.05 0.15,6 -0.1,1.2 -0.05,2.35 0.7,3.15 0.6,6.45 0,1.35 -0.55,2.6 0.2,4.55 -2.45,7.85 -0.9,1.1 -2.35,1.35 Q 17,34.1 16.7,27.55 16.1,20.4 16,13.05 l -0.3,0.3 v 0.25 l -1.1,2.8 -0.65,1.05 v 0.65 l -0.05,0.45 -0.1,0.2 -0.2,0.2 -0.15,0.65 -0.1,0.25 -0.25,0.6 Q 13.3,22.4 13,24.3 l -0.4,1.75 q -0.55,13.55 -13.65,17.4 -9.4,2.8 -16.7,-3.05 -2.8,-2.2 -2.55,-4.55 l -0.05,-0.1 -0.4,-1.15 q -2.4,-1.35 -4.1,-4 -4.1,-6.65 -5.4,-14.55 -0.9,-5.4 0.15,-10.75 l 0.05,-0.65 v -0.1 l -3,-0.8 Q -34,3.4 -34.1,2.35 l -1.15,-12 v -0.45 q -1.2,-0.6 -2.05,-1.7 -2.7,-3.6 -1.9,-8.4 l 1.15,-5.95 0.75,-2.15 q 3.25,-9 12.5,-12.85 4.45,-1.8 9,-2.4 m 28.65,27.65 0.1,0.9 0.5,0.6 v 0.05 l 8.3,3.65 q 1.5,0.7 3.05,1.35 h 0.55 L 24.1,-11.25 22.4,-13 q -5.75,-5.1 -11.9,-9.65 l 1.9,5.05 0.45,1.7 m -8.5,-4.9 -0.85,0.45 -0.55,0.25 -1.55,1.15 10,3.75 v -0.45 l -0.45,-1.2 -0.8,-2.2 Q 9.8,-20 9.6,-21 L 9.45,-21.2 9.25,-21.45 9.15,-22.1 8.6,-22.95 4.35,-20.8 M 3.5,14.7 4.05,13.95 Q 3.95,13.6 4,13.25 L 4.15,12.4 4.3,12.15 4.6,11.75 Q 4.5,10.5 4.8,9.35 L 5.3,8.1 5.7,1.85 Q 5.7,0.5 6.15,-0.7 6.1,-1.25 6.2,-1.8 L 6.6,-2.65 Q 6.45,-3.95 6.95,-5.2 L 7.25,-6.5 7.5,-6.95 7.55,-7 l -18.9,3.3 h -0.05 l -0.55,0.6 q 0.05,2.4 -0.05,4.75 l -0.25,1.2 q 0.7,5.15 1.1,10.4 l 0.15,3.3 q 0.4,1.4 0.5,2.95 l 0.1,1.75 q 0.35,0.8 0.35,1.7 v 0.9 l 0.45,1 Q -1.95,21.75 3.5,14.7 M -16.45,-6.2 v 1.15 l 1.15,-0.35 0.3,-0.2 0.55,-0.2 0.3,0.1 q 10.7,-2.85 21.8,-4.25 L 9.8,-10.25 6.1,-11.7 H 5.8 l -0.5,-0.1 q -2.45,0.3 -4.8,1 l -17.3,0.6 q 0.3,1.9 0.35,4 M 8.85,-3.9 8.8,-2.2 Q 8.25,-0.1 8.1,2.1 9.25,1.4 10.85,1.2 l 0.4,-0.05 0.9,-4.75 0.3,-2.6 0.85,-1.6 -3.7,0.5 -0.75,3.4 m 7.75,-3.65 -1.35,-0.55 -0.6,0.1 -0.1,1.15 V -6 l -0.2,0.45 -0.1,0.2 0.05,1.05 -0.05,0.65 -0.15,0.25 -0.15,0.2 Q 13.9,-1.8 14,-0.35 l 2.9,-3.05 q 1.05,-1 2.3,-1.5 l -0.35,-1.7 v -0.05 l -2.25,-0.9 m 5.4,8.3 q -1,-1.2 -1.7,-2.6 l -0.3,0.2 -0.8,0.45 -3.1,3 -0.8,0.85 -3.8,5.4 1.7,1 Q 17.05,4.3 22,0.75 M 33.25,-14.15 32.9,-14.6 32.65,-15 q -2.4,-1.65 -5.05,-2.8 l -1.5,-0.3 -1.4,0.5 -0.3,0.15 q 3.25,3.1 6.15,6.55 l 0.5,-0.2 0.6,-0.1 2.95,0.05 -1.35,-3 M 33.05,-8.7 31,-8.4 h -0.15 q -2.5,4.35 -6.8,3.55 0.3,0.75 0.85,1.45 2.45,3.05 5.95,4.85 l 0.8,-0.2 0.55,-0.15 1.7,-2.15 0.9,-1.95 0.1,-0.2 q 0.4,-2.35 0.25,-4.7 L 35.05,-9.1 35,-9.35 q -0.9,0.4 -1.95,0.65 M 25.45,3.95 20.15,8.8 20.05,8.95 19.9,24.2 q -0.1,2.9 1.2,5.35 1.65,0.5 2.95,-0.6 l 0.6,-4.9 Q 24.7,23 25.2,22.1 v -3.65 -1.9 q -0.5,-2.1 -0.4,-4.3 0.1,-1.05 0.6,-1.95 0.1,-2.5 0.6,-4.9 l 0.25,-0.9 -0.8,-0.55 m -2.5,7.85 0.65,0.2 0.35,0.15 0.3,0.25 0.3,0.4 0.15,0.2 0.05,0.25 v 0.4 0.45 l -0.1,0.2 -0.4,0.6 -0.3,0.25 -0.35,0.2 -0.65,0.15 -0.7,-0.1 -0.75,-0.7 q -0.35,-0.45 -0.4,-1.05 l 0.1,-0.4 q 0.15,-0.7 0.7,-1.1 l 0.35,-0.15 0.7,-0.2 m -0.35,7.45 0.65,0.15 0.35,0.2 0.3,0.25 0.3,0.4 0.15,0.2 0.05,0.2 v 0.45 0.45 l -0.1,0.2 -0.45,0.6 -0.25,0.25 -0.35,0.15 -0.65,0.2 -0.7,-0.15 -0.75,-0.65 Q 20.8,21.7 20.75,21.1 l 0.1,-0.45 Q 21,20 21.55,19.6 l 0.35,-0.2 0.7,-0.15 M 11.15,11.75 11.5,11.3 10.2,10.8 9.65,10.55 3.9,18.15 1.9,20.55 5.55,19 11.15,11.75 M 9.9,5.25 11,3.5 11.05,2.7 9.55,3.3 Q 8.9,3.9 8.05,4.2 V 4.65 Q 8.1,6 7.75,7.25 L 7.7,7.9 7.75,8.45 Q 8.7,6.75 9.9,5.25 M 7.6,23.2 6.25,25 6.1,27.7 5.55,29.4 5.4,30.45 5.05,31.1 Q 3.7,35.8 -0.3,38.65 l -0.45,0.4 -0.35,0.1 2.1,-0.1 q 3.9,-1.95 6.65,-5.95 0,-0.55 0.25,-1 l 0.5,-0.9 1,-5.15 0.4,-2.15 0.1,-0.2 0.2,-0.25 0.05,-0.2 q -0.05,-1.85 0.2,-3.6 L 7.6,23.2 m -17.45,12.5 0.05,0.2 q 2.65,2 6.3,0.95 4.8,-2.2 6.25,-7.35 L 2.8,29.25 2.85,28.6 v -0.1 q -5.55,5 -13,6.8 l 0.3,0.4 m -0.65,-62.75 0.25,0.05 0.45,0.35 0.15,0.2 v 0.2 l -0.15,0.45 q -1.45,1.15 -3.25,1.7 l 0.05,1.5 q 0.1,1.3 -0.65,2.35 0.05,1.5 -0.35,2.8 1.15,-0.45 2.35,-1 1.25,-0.6 1.95,-1.75 1.45,-2.25 2,-4.8 1.05,-1.6 1.2,-3.45 0.35,-3.35 -0.4,-6.8 -0.4,-2.15 -1.4,-4.15 l -0.1,-0.15 -0.45,-0.2 -0.15,-0.05 -0.4,-0.1 -0.45,-0.05 h -0.3 l -1.6,0.1 -5.1,0.8 q 1.75,2.05 2.85,4.7 l 0.2,-0.05 0.9,-0.15 q 0.45,0 0.8,0.3 l 0.4,0.35 v 0.45 l -0.15,0.4 -0.15,0.15 -0.65,0.25 -0.2,0.2 -0.2,0.2 -0.25,0.15 q 0.2,0.95 0.25,2 0.55,1.3 0.55,2.8 v 0.45 l 1.35,-0.35 v -0.05 l 0.65,0.2 m -4.7,4.2 -0.05,-0.65 v -0.2 h -0.05 q -0.6,-0.05 -1,-0.55 l -0.05,-0.2 v -0.2 -0.45 l 0.1,-0.2 0.1,-0.2 1.3,-0.55 v -0.9 -1.7 -0.25 l -0.3,-0.65 -0.1,-0.85 -0.05,-0.2 -0.25,-0.5 -2.3,-0.2 -0.4,-0.65 -0.05,-0.45 q 0.7,-0.8 1.7,-1.3 l -0.2,-0.35 q -0.05,-0.8 -0.4,-1.5 l -0.8,-1.7 -1,-0.8 -0.25,-0.25 q -7,2.6 -11.7,9.25 -1.65,2.3 -2.35,5.1 l -0.05,0.2 -0.1,0.5 -0.3,1.65 0.15,-0.05 0.6,-0.05 v -0.05 h 0.05 q 1.1,0.1 1.75,1.05 l 0.15,0.2 0.25,0.45 0.05,0.2 q -0.3,3.3 -2.7,2.35 l 0.75,2.1 0.55,0.7 q 7.95,0.5 15.35,-1.75 0.6,-1.3 0.75,-2.8 0.1,-1.4 0.85,-2.55 v -1.05 m -10.3,3 0.1,-0.85 q 0.35,-1.05 1.4,-1.45 l 0.2,-0.05 0.55,-0.05 0.05,-0.05 q 1.15,0.1 1.8,1 l 0.45,0.85 q -0.35,4 -3.8,1.75 -0.7,-0.45 -0.75,-1.15 m 2.3,12.6 0.1,-0.1 0.25,-0.15 2.4,-0.7 0.1,-1.6 0.05,-0.15 -4.2,0.45 -1.2,0.05 -4.1,0.05 0.3,5.3 1.3,-0.6 q 0.45,-0.15 0.75,-0.6 l 2,-0.75 2.25,-1.2 m -1.45,7.25 1.25,-0.15 1.75,-0.4 0.8,-0.25 v -0.55 l 0.05,-1.1 0.2,-4.1 -0.5,0.05 -0.15,0.2 -0.2,0.15 -1.6,0.75 -2.45,1.25 -1.8,1 -1.3,0.75 -0.2,0.2 -0.3,0.35 -0.35,0.15 -0.05,1.4 3.9,0.35 0.95,-0.05 m 14.25,-13.45 q -0.4,0.3 -0.75,0.55 l 12.3,-0.7 -7.95,-3 -3.6,3.15 M -16.95,1.7 q -0.2,1.05 -1,1.6 v 0.3 l -0.1,1.05 0.3,0.65 0.25,0.85 -0.15,1.1 V 8.5 l 0.2,0.45 0.1,0.85 V 10 q 0.95,5.1 1,10.3 0.05,1.2 -0.2,2.2 l 0.9,0.95 q 1.6,0.9 3.2,1.4 l -0.35,-2.8 -0.05,-1.6 V 19.9 l -2.25,-18.2 -0.35,-4.15 -1.1,-0.05 -0.4,4.2 m -3.05,12.15 0.65,3.1 -0.25,-4.4 -0.05,-3.6 -0.1,-0.45 -0.1,-0.45 V 8 L -19.9,7.8 -20.2,7.4 q 0,-0.95 -0.4,-1.8 l -0.05,-0.15 q -0.1,4.25 0.65,8.4 m -6.85,-6.95 0.25,3.15 q 0.25,1.3 0.25,2.6 1.35,9.15 6.75,16.5 0.8,1.1 2.2,1.3 9.35,1.55 16.35,-4.4 -5.25,1.9 -10.8,2.6 -1.8,0.2 -3.45,-0.7 -7.45,-4.2 -7.9,-12.8 l -0.35,-0.6 0.1,-0.9 Q -23.85,9.6 -23.5,5.5 l 0.1,-0.65 -3.15,0.1 q 0.05,1 -0.3,1.95 m 17.65,33.8 2.75,0.1 -2.85,-1.15 -1.65,-1.1 V 38.5 l -0.7,-0.6 -0.4,-0.85 -0.3,-0.4 -0.1,-0.9 -4.05,0.15 q 2.4,3.75 7.3,4.8"
         fill="#000000"
         fill-rule="evenodd"
         stroke="none"
         id="path1" />
      <path
         d="m -1.45,-30.6 0.05,-0.05 v -0.05 q 3.55,2.45 7.25,4.7 l 2.05,1.45 -5.05,2.7 -4.9,-4 q 0.45,-2 0.55,-4.15 l 0.05,-0.6 m 25.55,19.35 q -2.8,0.5 -5.8,-1.75 -1.65,-1.2 -3.55,-2.05 l -1.9,-0.85 -0.45,-1.7 -1.9,-5.05 q 6.15,4.55 11.9,9.65 l 1.7,1.75 m -13.15,-5.6 q -3.45,-1.8 -6.6,-3.95 l 4.25,-2.15 0.55,0.85 0.1,0.65 0.2,0.25 0.15,0.2 q 0.2,1 0.55,1.95 l 0.8,2.2 m 22.3,2.7 1.35,3 -2.95,-0.05 -0.6,0.1 -0.5,0.2 q -2.9,-3.45 -6.15,-6.55 l 0.3,-0.15 1.4,-0.5 1.5,0.3 q 2.65,1.15 5.05,2.8 l 0.25,0.4 0.35,0.45 m 1.8,5.05 -2,0.4 Q 34.1,-8.95 35,-9.35 l 0.05,0.25 m -46.8,-30.75 q 3.8,1 3.5,6 -0.25,3.9 -2.25,6.8 l -0.65,-0.2 v 0.05 l -1.35,0.35 v -0.45 q 0,-1.5 -0.55,-2.8 -0.05,-1.05 -0.25,-2 l 0.25,-0.15 0.2,-0.2 0.2,-0.2 0.65,-0.25 0.15,-0.15 0.15,-0.4 v -0.45 l -0.4,-0.35 q -0.35,-0.3 -0.8,-0.3 l -0.9,0.15 -0.2,0.05 q -1.1,-2.65 -2.85,-4.7 l 5.1,-0.8 m -21.7,16.6 0.1,-0.5 0.05,-0.2 q 0.7,-2.8 2.35,-5.1 4.7,-6.65 11.7,-9.25 l 0.25,0.25 1,0.8 0.8,1.7 q 0.35,0.7 0.4,1.5 l 0.2,0.35 q -1,0.5 -1.7,1.3 l 0.05,0.45 0.4,0.65 2.3,0.2 0.25,0.5 0.05,0.2 0.1,0.85 0.3,0.65 v 0.25 1.7 0.9 l -1.3,0.55 -0.1,0.2 -0.1,0.2 v 0.45 0.2 l 0.05,0.2 q 0.4,0.5 1,0.55 h 0.05 v 0.2 l 0.05,0.65 q -2.85,1.6 -5.75,2.4 l -0.45,-0.85 q -0.65,-0.9 -1.8,-1 l -0.05,0.05 -0.55,0.05 -0.2,0.05 q -1.05,0.4 -1.4,1.45 l -0.1,0.85 -5.2,-0.55 -0.35,-0.1 -0.15,-0.2 q -0.65,-0.95 -1.75,-1.05 l -0.5,-1.5 m 8.95,13.75 q 0.95,0.9 1.3,2.25 l -2.25,1.2 -2,0.75 q -0.3,0.45 -0.75,0.6 l -1.3,0.6 -0.3,-5.3 4.1,-0.05 1.2,-0.05 m 1.45,4.1 -0.1,1.1 q -0.25,1.7 -0.95,3.25 l -0.55,1.05 -0.95,0.05 -3.9,-0.35 0.05,-1.4 0.35,-0.15 0.3,-0.35 0.2,-0.2 1.3,-0.75 1.8,-1 2.45,-1.25"
         fill="#918a86"
         fill-rule="evenodd"
         stroke="none"
         id="path2" />
      <path
         d="m 24.1,-11.25 1.25,1.9 H 24.8 Q 23.25,-10 21.75,-10.7 l -8.3,-3.65 v -0.05 l -0.5,-0.6 -0.1,-0.9 1.9,0.85 q 1.9,0.85 3.55,2.05 3,2.25 5.8,1.75"
         fill="#837c78"
         fill-rule="evenodd"
         stroke="none"
         id="path3" />
      <path
         d="m 2.85,-21.85 -3.9,2.05 -1.85,-0.6 -1.05,-0.25 q 1.3,-2.45 1.9,-5.2 l 4.9,4 m 8.1,5 0.45,1.2 v 0.45 l -10,-3.75 1.55,-1.15 0.55,-0.25 0.85,-0.45 q 3.15,2.15 6.6,3.95 m 24.1,7.75 0.1,1.2 q 0.15,2.35 -0.25,4.7 l -0.1,0.2 -0.9,1.95 -1.7,2.15 -0.55,0.15 -0.8,0.2 q -3.5,-1.8 -5.95,-4.85 -0.55,-0.7 -0.85,-1.45 4.3,0.8 6.8,-3.55 H 31 l 2.05,-0.3 2,-0.4 m -46.8,-30.75 1.6,-0.1 h 0.3 l 0.45,0.05 0.4,0.1 0.15,0.05 0.45,0.2 0.1,0.15 q 1,2 1.4,4.15 0.75,3.45 0.4,6.8 -0.15,1.85 -1.2,3.45 -0.55,2.55 -2,4.8 -0.7,1.15 -1.95,1.75 -1.2,0.55 -2.35,1 0.4,-1.3 0.35,-2.8 0.75,-1.05 0.65,-2.35 l -0.05,-1.5 q 1.8,-0.55 3.25,-1.7 l 0.15,-0.45 v -0.2 l -0.15,-0.2 -0.45,-0.35 -0.25,-0.05 q 2,-2.9 2.25,-6.8 0.3,-5 -3.5,-6 m -21.7,16.6 0.5,1.5 H -33 v 0.05 l -0.6,0.05 -0.15,0.05 0.3,-1.65 m 2.4,2.75 0.35,0.1 5.2,0.55 q 0.05,0.7 0.75,1.15 3.45,2.25 3.8,-1.75 2.9,-0.8 5.75,-2.4 v 1.05 q -0.75,1.15 -0.85,2.55 -0.15,1.5 -0.75,2.8 -7.4,2.25 -15.35,1.75 l -0.55,-0.7 -0.75,-2.1 q 2.4,0.95 2.7,-2.35 l -0.05,-0.2 -0.25,-0.45 m 6.55,11 4.2,-0.45 -0.05,0.15 -0.1,1.6 -2.4,0.7 -0.25,0.15 -0.1,0.1 q -0.35,-1.35 -1.3,-2.25 m 1.45,4.1 1.6,-0.75 0.2,-0.15 0.15,-0.2 0.5,-0.05 -0.2,4.1 -0.05,1.1 v 0.55 l -0.8,0.25 -1.75,0.4 -1.25,0.15 0.55,-1.05 q 0.7,-1.55 0.95,-3.25 l 0.1,-1.1"
         fill="#76706d"
         fill-rule="evenodd"
         stroke="none"
         id="path4" />
      <path
         d="m 8.85,-3.9 0.75,-3.4 3.7,-0.5 -0.85,1.6 -0.3,2.6 -0.9,4.75 -0.4,0.05 Q 9.25,1.4 8.1,2.1 8.25,-0.1 8.8,-2.2 l 0.05,-1.7 m -25.3,-2.3 q -0.05,-2.1 -0.35,-4 l 17.3,-0.6 q 2.35,-0.7 4.8,-1 l 0.5,0.1 h 0.3 l 3.7,1.45 -2.15,0.3 q -11.1,1.4 -21.8,4.25 l -0.3,-0.1 -0.55,0.2 -0.3,0.2 -1.15,0.35 V -6.2 M 22,0.75 q -4.95,3.55 -8.8,8.3 l -1.7,-1 3.8,-5.4 0.8,-0.85 3.1,-3 0.8,-0.45 0.3,-0.2 q 0.7,1.4 1.7,2.6 M 7.6,23.2 10.35,19.65 q -0.25,1.75 -0.2,3.6 l -0.05,0.2 -0.2,0.25 -0.1,0.2 -0.4,2.15 -1,5.15 -0.5,0.9 q -0.25,0.45 -0.25,1 -2.75,4 -6.65,5.95 l -2.1,0.1 0.35,-0.1 0.45,-0.4 Q 3.7,35.8 5.05,31.1 L 5.4,30.45 5.55,29.4 6.1,27.7 6.25,25 7.6,23.2 M 9.9,5.25 Q 8.7,6.75 7.75,8.45 L 7.7,7.9 7.75,7.25 Q 8.1,6 8.05,4.65 V 4.2 Q 8.9,3.9 9.55,3.3 L 11.05,2.7 11,3.5 9.9,5.25 m 1.25,6.5 -5.6,7.25 -3.65,1.55 2,-2.4 5.75,-7.6 0.55,0.25 1.3,0.5 -0.35,0.45 m 11.45,7.5 -0.7,0.15 -0.35,0.2 Q 21,20 20.85,20.65 l -0.1,0.45 q 0.05,0.6 0.4,1.05 l 0.75,0.65 0.7,0.15 0.65,-0.2 0.35,-0.15 0.25,-0.25 0.45,-0.6 0.1,-0.2 V 21.1 20.65 l -0.05,-0.2 -0.15,-0.2 -0.3,-0.4 -0.3,-0.25 -0.35,-0.2 -0.65,-0.15 m 0.35,-7.45 -0.7,0.2 -0.35,0.15 q -0.55,0.4 -0.7,1.1 l -0.1,0.4 q 0.05,0.6 0.4,1.05 l 0.75,0.7 0.7,0.1 0.65,-0.15 0.35,-0.2 0.3,-0.25 0.4,-0.6 0.1,-0.2 v -0.45 -0.4 L 24.7,13 24.55,12.8 24.25,12.4 23.95,12.15 23.6,12 22.95,11.8 M 25.45,3.95 26.25,4.5 26,5.4 q -0.5,2.4 -0.6,4.9 -0.5,0.9 -0.6,1.95 -0.1,2.2 0.4,4.3 v 1.9 3.65 q -0.5,0.9 -0.55,1.95 l -0.6,4.9 q -1.3,1.1 -2.95,0.6 -1.3,-2.45 -1.2,-5.35 l 0.15,-15.25 0.1,-0.15 5.3,-4.85 m -42.4,-2.25 0.4,-4.2 1.1,0.05 0.35,4.15 2.25,18.2 v 0.55 l 0.05,1.6 0.35,2.8 q -1.6,-0.5 -3.2,-1.4 l -0.9,-0.95 q 0.25,-1 0.2,-2.2 -0.05,-5.2 -1,-10.3 V 9.8 l -0.1,-0.85 -0.2,-0.45 V 7.25 l 0.15,-1.1 -0.25,-0.85 -0.3,-0.65 0.1,-1.05 V 3.3 q 0.8,-0.55 1,-1.6 m 7.75,39 q -4.9,-1.05 -7.3,-4.8 l 4.05,-0.15 0.1,0.9 0.3,0.4 0.4,0.85 0.7,0.6 v 0.05 l 1.65,1.1 2.85,1.15 -2.75,-0.1 M -26.85,6.9 q 0.35,-0.95 0.3,-1.95 l 3.15,-0.1 -0.1,0.65 q -0.35,4.1 0.05,8.15 l -0.1,0.9 0.35,0.6 q 0.45,8.6 7.9,12.8 1.65,0.9 3.45,0.7 5.55,-0.7 10.8,-2.6 -7,5.95 -16.35,4.4 -1.4,-0.2 -2.2,-1.3 -5.4,-7.35 -6.75,-16.5 0,-1.3 -0.25,-2.6 L -26.85,6.9"
         fill="#645e5b"
         fill-rule="evenodd"
         stroke="none"
         id="path5" />
    </g>
    <g
       id="sprite1"
       transform="translate(17.4,15.85)">
      <use
         ffdec:characterId="31"
         height="57.200001"
         transform="matrix(0.5366,0,0,0.5366,-16.6582,-14.546)"
         width="70.75"
         xlink:href="#sprite2"
         id="use5" />
    </g>
    <g
       id="sprite2"
       transform="translate(-8.65,-10.35)">
      <use
         ffdec:characterId="30"
         height="57.200001"
         transform="translate(8.65,10.35)"
         width="70.75"
         xlink:href="#shape1"
         id="use6" />
    </g>
    <g
       id="shape1"
       transform="translate(-8.65,-10.35)">
      <path
         d="m 14.8,41.7 q 0.65,-1.75 2.65,-2.5 1.8,-0.8 3.7,-0.25 1.15,0.45 2.25,1.2 l 0.9,0.4 q 1.65,0.9 2.85,2.5 L 37.8,30.1 q 2.35,-2.8 3.75,-3.95 1.5,-1.15 4.25,-2.4 18.2,-8.85 27.65,-12.6 2.15,-0.8 3.25,-0.8 h 0.8 l 1.9,2.4 -0.2,0.8 q -0.2,1.1 -1.55,3 -5.85,8.25 -18.85,23.8 -1.85,2.35 -3.35,3.5 -1.4,1.15 -4.75,2.75 l -15.15,7.15 q 1.2,1.6 1.75,3.4 l 0.2,1 0.55,2.5 q 0.1,1.95 -1.1,3.55 -1.2,1.65 -3.05,1.9 l -1.3,0.05 q -1.65,0.2 -3.45,-0.65 -1.85,-0.9 -3,-2.6 L 25,60.95 23.8,62.1 q -2.6,2.85 -4.3,3.95 -2.85,1.8 -5.5,1.45 l -1.65,-0.5 -1.2,-0.7 -0.2,-0.2 q -1,-0.85 -1.6,-1.9 L 9.25,64 9.15,63.8 8.75,62.4 q -0.2,-0.8 -0.05,-1.7 0.25,-2.65 2.7,-5.05 1.5,-1.3 4.9,-3.15 L 17.7,51.55 16.05,50 q -1.35,-1.5 -1.8,-3.6 -0.4,-1.85 0.25,-3.45 l 0.3,-1.25"
         fill="#000000"
         fill-opacity="0.372549"
         fill-rule="evenodd"
         stroke="none"
         id="path6" />
    </g>
  </defs>
</svg>
