<?xml version="1.0" encoding="UTF-8" standalone="no"?>
<svg
   ffdec:objectType="frame"
   height="71.349998"
   width="84.265198"
   version="1.1"
   id="svg6"
   xmlns:xlink="http://www.w3.org/1999/xlink"
   xmlns="http://www.w3.org/2000/svg"
   xmlns:svg="http://www.w3.org/2000/svg"
   xmlns:ffdec="https://www.free-decompiler.com/flash">
  <g
     transform="translate(42.466667,29.15)"
     id="g1">
    <use
       ffdec:characterId="17"
       height="119.15"
       id="rarity"
       transform="translate(-58.5,-60.65)"
       width="119.15"
       xlink:href="#sprite0" />
    <use
       ffdec:characterId="892"
       height="71.550003"
       transform="translate(-42.45,-29.15)"
       width="84.25"
       xlink:href="#shape0"
       id="use1" />
  </g>
  <defs
     id="defs6">
    <g
       id="shape0"
       transform="translate(43,29.9)">
      <path
         d="m 10.35,-21.3 -0.15,1.55 -0.8,1.15 -0.15,0.2 0.4,0.05 q 7.1,1.2 11.4,3.1 4.25,1.9 7,4.85 l -0.15,-1 q -0.4,-1.75 -1.45,-3.1 -0.85,-1.05 -0.95,-1.4 -0.1,-0.3 -0.05,-0.55 -0.05,-0.6 0.5,-0.9 l 1.35,0.15 q 1.65,0.8 2.85,2.9 2.5,4.3 0.9,9.5 -1.35,4.5 -5.5,7.95 -4.7,3.9 -13.9,6.2 L 10.1,9.75 5.3,10.65 -12.15,9.95 -14.3,9.6 q -4.65,-0.95 -7.75,-2.2 -5.3,-2.2 -8.15,-6 -2.15,-2.8 -2.2,-5.65 -0.15,-2.7 1.4,-4.9 l 1.2,-1.05 1.2,0.15 0.2,0.2 q 0.25,0.45 -0.1,1.75 -0.55,1.95 0.15,4.05 L -28,-5.2 q 1.4,-3.8 5.15,-6.8 2.95,-2.35 7.5,-4.25 l 7.25,-2.35 4.4,-0.55 v -0.2 l 0.35,-0.85 0.2,-1.05 0.05,-0.7 v -0.6 l 0.2,-0.85 0.05,-0.5 -6.9,0.85 -2.95,0.55 -4.2,1.1 q -3.55,1.1 -6.55,2.8 -4.4,2.45 -7.7,6.15 -2.9,3.25 -4.5,7.25 l -0.4,1.05 q -1.25,3.6 -1.2,7.2 0,2.35 0.6,4.1 0.55,1.8 2,3.7 3.15,3.95 10.1,6.6 8.1,3.15 16.75,3.85 4.9,0.4 9.65,0 L 1.75,19.7 1.9,18.35 2.5,16.9 3.05,15.85 q 0.45,-0.7 1.4,-1.3 L 6,13.85 7.75,13.65 Q 9.2,13.55 10.1,14 l 1.15,0.9 q 1.55,1.7 1.8,4 l 0.05,0.25 5.4,-1.65 q 3.8,-1.25 5.4,-2 3.1,-1.6 6.5,-4.55 l 2.4,-2.5 Q 33.6,7.3 34.6,4.7 l 1.55,-4.9 q 0.6,-2.8 0.35,-5.1 -0.35,-2.05 -1.35,-4.6 l -1.45,-3.4 -2.05,-3.1 q -2.85,-3.3 -9.55,-5.2 -5.8,-1.65 -11.85,-2.2 l 0.05,1.05 0.05,1.45 m -9.7,-0.3 0.05,0.85 0.05,0.95 -0.05,0.35 1.6,-0.2 2.15,-0.45 q 1.1,-0.4 1.45,-0.7 l 0.7,-0.9 v -0.55 l -0.3,-0.85 -0.65,-1 H 1.25 1.1 0.65 l 0.1,1.8 -0.1,0.55 v 0.15 m 17.6,23.7 q 4.85,-2.2 7.3,-5.15 1.1,-1.35 1.75,-2.85 L 27.2,-6 q -4.4,-4.6 -14.05,-6.75 -8.7,-2 -15.95,-1.45 -8.8,0.65 -15.15,4.75 -5.3,3.4 -5.7,7.65 l -0.15,2.05 -0.25,0.9 q 2.4,1.45 6.35,2.55 9.3,2.6 18.2,2.35 9.7,-0.3 17.75,-3.95 M 4.7,-29.9 q 7.85,0.25 19.2,3.6 l 4.7,1.7 q 4.95,2.35 8.35,7.35 2.6,3.8 3.65,8.35 1.05,4.55 0.4,9.1 -0.6,4.5 -2.85,8.6 -2.25,4.1 -5.75,7.05 -3.5,2.95 -8.7,5.15 l -3.5,1.3 q 1.35,0.65 2.45,1.6 1.6,1.35 2.4,3.25 0.85,2.05 0.5,4 -0.65,3.4 -4.75,6.2 -3.85,2.6 -8.7,3.65 L 2.6,41.45 Q -1,41 -3.05,39.85 q -3,-1.55 -3.95,-4.2 -0.7,-1.85 -0.25,-4 0.4,-2 1.7,-3.7 l 1,-1.1 -11.8,-1.15 Q -32,23.05 -39.1,14.6 -41.85,11.4 -42.6,8.2 -43.1,6.25 -43,2.8 l 0.5,-5.3 q 1.05,-5.65 4.65,-10.75 3.35,-4.8 8.35,-8.35 4.45,-3.05 9.3,-4.75 4.75,-1.6 11.75,-2.6 L 4.7,-29.9 M 7.8,20.15 8.45,19.3 8.6,19 V 18.75 L 8.3,17.9 7.35,17.95 q -0.5,0.15 -0.7,0.6 l -0.2,0.55 -0.15,0.85 0.85,0.4 0.3,0.1 0.35,-0.3 m 9.5,13.6 q 1.8,-1.05 2.8,-2.2 0.75,-0.85 0.75,-1.7 0.05,-1.3 -1.35,-2.35 -1.45,-1.2 -4.05,-1.65 L 9.25,25.55 8.4,25.6 q -3.8,0.25 -6.2,1.65 -2.4,1.35 -3.05,2.1 l -1.4,2.2 -0.1,0.25 q -0.5,0.9 -0.35,1.5 l 0.65,1.05 q 1.5,1.5 4.65,1.95 5.75,0.9 11.2,-1 L 17,33.9 17.3,33.75 M 10.65,27.3 q 0.1,-0.5 0.45,-0.9 0.45,-0.4 1,-0.5 0.55,-0.05 1.1,0.25 l 0.7,0.9 0.9,3.85 0.05,0.25 q 0.2,1.05 -0.05,1.7 -0.25,0.65 -0.95,0.9 L 12.8,33.8 12.25,33.75 9.75,33.2 8.55,32.8 7.15,32.35 q 0.75,1.4 0.45,2.1 L 6.9,35.25 6.1,35.5 5,34.7 4.3,33.7 4.1,33.3 3.6,31.6 3.3,30.5 2.9,29.2 q 0,-1.15 0.9,-1.65 l 1.3,-0.2 1.75,0.6 1.7,0.85 1.9,0.7 0.75,0.15 -0.3,-0.85 -0.15,-0.4 -0.15,-1 0.05,-0.1"
         fill="#000000"
         fill-rule="evenodd"
         stroke="none"
         id="path1" />
      <path
         d="m 25.45,-16.45 q -2.2,-1.65 -3.7,-2.35 -2.75,-1.3 -8.35,-2.1 l -3.05,-0.4 -0.05,-1.45 -0.05,-1.05 q 6.05,0.55 11.85,2.2 6.7,1.9 9.55,5.2 l 2.05,3.1 0.2,1.35 q 0.75,6.6 -0.75,10.3 Q 31.5,2.5 26.25,6.1 19.15,11.05 9.8,13 1.25,14.85 -8.25,14 l -0.45,-0.05 -7.85,-0.8 q -5,-0.9 -8.8,-2.8 -2.8,-1.35 -5.7,-3.85 -3.75,-3.45 -4.65,-7.1 -0.45,-1.7 -0.35,-3.55 l 0.4,-1.05 q 1.6,-4 4.5,-7.25 3.3,-3.7 7.7,-6.15 3,-1.7 6.55,-2.8 l 4.2,-1.1 2.95,-0.55 6.9,-0.85 -0.05,0.5 -0.2,0.85 v 0.6 l -0.05,0.7 H -3.6 l -2.25,0.15 -2,0.55 -3.7,0.8 -3.75,0.8 -3,0.85 h -0.05 q -3.25,1.5 -5.45,3.05 -3.1,2.2 -4.8,5 l -1.2,-0.15 -1.2,1.05 q -1.55,2.2 -1.4,4.9 0.05,2.85 2.2,5.65 2.85,3.8 8.15,6 3.1,1.25 7.75,2.2 l 2.15,0.35 17.45,0.7 4.8,-0.9 1.55,-0.4 q 9.2,-2.3 13.9,-6.2 4.15,-3.45 5.5,-7.95 1.6,-5.2 -0.9,-9.5 -1.2,-2.1 -2.85,-2.9 l -1.35,-0.15 q -0.55,0.3 -0.5,0.9 M 6.6,-21.7 l -3.25,-0.1 -2.7,0.2 v -0.15 l 0.1,-0.55 -0.1,-1.8 h 0.45 0.15 4.4 l 0.65,1 0.3,0.85 v 0.55"
         fill="#614e4e"
         fill-rule="evenodd"
         stroke="none"
         id="path2" />
      <path
         d="m 25.45,-16.45 q -0.05,0.25 0.05,0.55 0.1,0.35 0.95,1.4 1.05,1.35 1.45,3.1 l 0.15,1 q -2.75,-2.95 -7,-4.85 -4.3,-1.9 -11.4,-3.1 l -0.4,-0.05 0.15,-0.2 0.8,-1.15 0.15,-1.55 3.05,0.4 q 5.6,0.8 8.35,2.1 1.5,0.7 3.7,2.35 m 8.25,3.15 1.45,3.4 q 1,2.55 1.35,4.6 0.25,2.3 -0.35,5.1 L 34.6,4.7 q -1,2.6 -1.8,3.75 l -2.4,2.5 q -3.4,2.95 -6.5,4.55 -1.6,0.75 -5.4,2 l -5.4,1.65 -0.05,-0.25 q -0.25,-2.3 -1.8,-4 L 10.1,14 Q 9.2,13.55 7.75,13.65 L 6,13.85 4.45,14.55 q -0.95,0.6 -1.4,1.3 L 2.5,16.9 1.9,18.35 1.75,19.7 l 0.1,1.6 q -4.75,0.4 -9.65,0 -8.65,-0.7 -16.75,-3.85 -6.95,-2.65 -10.1,-6.6 -1.45,-1.9 -2,-3.7 -0.6,-1.75 -0.6,-4.1 -0.05,-3.6 1.2,-7.2 -0.1,1.85 0.35,3.55 0.9,3.65 4.65,7.1 2.9,2.5 5.7,3.85 3.8,1.9 8.8,2.8 l 7.85,0.8 0.45,0.05 q 9.5,0.85 18.05,-1 9.35,-1.95 16.45,-6.9 5.25,-3.6 6.9,-7.75 1.5,-3.7 0.75,-10.3 l -0.2,-1.35 m -36.85,-7.95 -0.2,1.05 -0.35,0.85 v 0.2 l -4.4,0.55 -7.25,2.35 q -4.55,1.9 -7.5,4.25 -3.75,3 -5.15,6.8 l -0.35,1.15 q -0.7,-2.1 -0.15,-4.05 0.35,-1.3 0.1,-1.75 l -0.2,-0.2 q 1.7,-2.8 4.8,-5 2.2,-1.55 5.45,-3.05 h 0.05 l 3,-0.85 3.75,-0.8 3.7,-0.8 2,-0.55 2.25,-0.15 h 0.45 m 9.75,-0.45 -0.7,0.9 q -0.35,0.3 -1.45,0.7 l -2.15,0.45 -1.6,0.2 0.05,-0.35 -0.05,-0.95 -0.05,-0.85 2.7,-0.2 3.25,0.1 m 1.2,41.85 -0.35,0.3 -0.3,-0.1 -0.85,-0.4 0.15,-0.85 0.2,-0.55 q 0.2,-0.45 0.7,-0.6 L 8.3,17.9 8.6,18.75 V 19 L 8.45,19.3 7.8,20.15"
         fill="#403535"
         fill-rule="evenodd"
         stroke="none"
         id="path3" />
      <path
         d="m 9.25,25.55 0.7,0.55 0.7,1.2 -0.05,0.1 0.15,1 -0.3,1.1 -1.9,-0.7 -1.7,-0.85 -1.75,-0.6 -1.3,0.2 q -0.9,0.5 -0.9,1.65 l 0.4,1.3 0.3,1.1 0.5,1.7 0.2,0.4 -3.8,-0.15 q -1.9,-0.5 -2.6,-1.35 l -0.25,-0.4 0.1,-0.25 1.4,-2.2 Q -0.2,28.6 2.2,27.25 4.6,25.85 8.4,25.6 l 0.85,-0.05 m 5.6,5.6 h 0.4 q 0.8,0.1 1.4,0.75 0.6,0.65 0.65,1.45 v 0.4 L 17,33.9 13.8,35.3 q -0.7,-0.45 -0.95,-1.2 l -0.05,-0.3 1.05,-0.05 q 0.7,-0.25 0.95,-0.9 0.25,-0.65 0.05,-1.7"
         fill="#ffffff"
         fill-rule="evenodd"
         stroke="none"
         id="path4" />
      <path
         d="m 9.25,25.55 6.2,0.3 q 2.6,0.45 4.05,1.65 1.4,1.05 1.35,2.35 0,0.85 -0.75,1.7 -1,1.15 -2.8,2.2 v -0.4 q -0.05,-0.8 -0.65,-1.45 -0.6,-0.65 -1.4,-0.75 h -0.4 L 14.8,30.9 13.9,27.05 13.2,26.15 q -0.55,-0.3 -1.1,-0.25 -0.55,0.1 -1,0.5 -0.35,0.4 -0.45,0.9 l -0.7,-1.2 -0.7,-0.55 m 4.55,9.75 q -5.45,1.9 -11.2,1 -3.15,-0.45 -4.65,-1.95 L -2.7,33.3 q -0.15,-0.6 0.35,-1.5 l 0.25,0.4 q 0.7,0.85 2.6,1.35 l 3.8,0.15 0.7,1 1.1,0.8 0.8,-0.25 0.7,-0.8 q 0.3,-0.7 -0.45,-2.1 l 1.4,0.45 1.2,0.4 2.5,0.55 0.55,0.05 0.05,0.3 q 0.25,0.75 0.95,1.2 m -3.05,-6.9 0.15,0.4 0.3,0.85 -0.75,-0.15 0.3,-1.1"
         fill="#9d9d9d"
         fill-rule="evenodd"
         stroke="none"
         id="path5" />
    </g>
    <g
       id="sprite1"
       transform="translate(17.4,15.85)">
      <use
         ffdec:characterId="31"
         height="57.200001"
         transform="matrix(0.5366,0,0,0.5366,-16.6582,-14.546)"
         width="70.75"
         xlink:href="#sprite2"
         id="use5" />
    </g>
    <g
       id="sprite2"
       transform="translate(-8.65,-10.35)">
      <use
         ffdec:characterId="30"
         height="57.200001"
         transform="translate(8.65,10.35)"
         width="70.75"
         xlink:href="#shape1"
         id="use6" />
    </g>
    <g
       id="shape1"
       transform="translate(-8.65,-10.35)">
      <path
         d="m 14.8,41.7 q 0.65,-1.75 2.65,-2.5 1.8,-0.8 3.7,-0.25 1.15,0.45 2.25,1.2 l 0.9,0.4 q 1.65,0.9 2.85,2.5 L 37.8,30.1 q 2.35,-2.8 3.75,-3.95 1.5,-1.15 4.25,-2.4 18.2,-8.85 27.65,-12.6 2.15,-0.8 3.25,-0.8 h 0.8 l 1.9,2.4 -0.2,0.8 q -0.2,1.1 -1.55,3 -5.85,8.25 -18.85,23.8 -1.85,2.35 -3.35,3.5 -1.4,1.15 -4.75,2.75 l -15.15,7.15 q 1.2,1.6 1.75,3.4 l 0.2,1 0.55,2.5 q 0.1,1.95 -1.1,3.55 -1.2,1.65 -3.05,1.9 l -1.3,0.05 q -1.65,0.2 -3.45,-0.65 -1.85,-0.9 -3,-2.6 L 25,60.95 23.8,62.1 q -2.6,2.85 -4.3,3.95 -2.85,1.8 -5.5,1.45 l -1.65,-0.5 -1.2,-0.7 -0.2,-0.2 q -1,-0.85 -1.6,-1.9 L 9.25,64 9.15,63.8 8.75,62.4 q -0.2,-0.8 -0.05,-1.7 0.25,-2.65 2.7,-5.05 1.5,-1.3 4.9,-3.15 L 17.7,51.55 16.05,50 q -1.35,-1.5 -1.8,-3.6 -0.4,-1.85 0.25,-3.45 l 0.3,-1.25"
         fill="#000000"
         fill-opacity="0.372549"
         fill-rule="evenodd"
         stroke="none"
         id="path6" />
    </g>
  </defs>
</svg>
