<?xml version="1.0" encoding="UTF-8" standalone="no"?>
<svg
   ffdec:objectType="frame"
   height="87.157692"
   width="49.02203"
   version="1.1"
   id="svg8"
   xmlns:xlink="http://www.w3.org/1999/xlink"
   xmlns="http://www.w3.org/2000/svg"
   xmlns:svg="http://www.w3.org/2000/svg"
   xmlns:ffdec="https://www.free-decompiler.com/flash">
  <g
     transform="translate(24.903846,42.45)"
     id="g1">
    <use
       ffdec:characterId="17"
       height="119.15"
       id="rarity"
       transform="translate(-58.5,-60.65)"
       width="119.15"
       xlink:href="#sprite0" />
    <use
       ffdec:characterId="250"
       height="87.150002"
       transform="translate(-24.9,-42.45)"
       width="49"
       xlink:href="#sprite1"
       id="use1" />
  </g>
  <defs
     id="defs8">
    <g
       id="sprite1">
      <use
         ffdec:characterId="249"
         height="87.150002"
         width="49"
         xlink:href="#shape0"
         id="use2" />
    </g>
    <g
       id="shape0">
      <path
         d="m 39.1,14.4 2.15,1.95 1.9,2.45 q 0.9,1.5 0.65,3.3 l -0.25,1.1 Q 47,49.75 49,76.4 q 0.1,2 -0.35,2.85 -0.6,1.25 -3.3,2.3 -19.85,8.1 -34.4,4.5 Q 7.25,85.15 6,83.2 5.55,82.4 5.4,81.15 L 5.35,78.95 4.9,74.9 4.15,70.8 Q 3.05,64.85 2.5,53.2 2,41.25 1,35.6 L 0.25,30.9 Q -0.1,28.2 0.2,26.15 0.35,24.85 1,24.3 V 24 q 0.35,-2.45 2,-4.45 2.4,-2.75 7.85,-4.8 l -0.7,-0.1 Q 9.6,14.5 8.45,13.85 L 6.7,13.05 4.9,12.15 1.9,9.5 0.55,7.9 Q -0.05,6.9 0,5.95 L 0.4,4.6 1.05,3.3 2.25,2 4.1,0.5 Q 5.1,0 7.15,0 L 9,0.25 10.45,1.3 q 1.35,1.4 1.65,3.35 l 0.55,2.55 -0.05,1.55 0.3,1 0.05,1.35 0.25,1.75 q -0.1,0.9 -0.85,1.35 5.05,-1.6 9.1,-2.1 l 2.75,-0.25 v -0.1 l 0.15,-1.8 0.55,-4 Q 25.05,4.75 25.55,4.2 26.2,3.45 28,3.3 q 2.6,-0.25 4.9,0 2.8,0.2 4.1,1.3 l 1.45,1.75 1.05,1.55 q 1.15,2 0.2,4.05 l -1.3,1.95 0.7,0.5 m -7.9,-2.5 2.8,0.45 1.35,-2.3 -0.7,-0.7 L 34.1,8.5 Q 33.45,7.9 32.15,7.8 L 30,7.85 Q 29.65,9.25 29.55,11 l -0.05,0.8 1.7,0.1 M 15.3,25.15 14.9,24.7 14.5,23.75 V 23.1 q 0.15,-1.05 1.2,-2 1.15,-0.95 3.55,-1.5 L 22.1,19.05 23.95,18.8 Q 23.3,18 23.4,17.15 L 23.45,16.8 23.2,16.85 Q 17.45,17.5 11.1,20.3 9.7,20.85 8.85,21.45 7.45,22.45 6.7,24 6.4,24.85 6.6,25.25 L 7.4,26 q 1.25,0.6 3.75,0.7 h 0.35 0.7 5.15 l 3.2,-0.25 5.65,-0.8 6.05,-1.25 1.85,-0.55 3.65,-1.7 q 0.8,-0.4 0.85,-0.9 L 38.45,20.7 38.15,20.15 37.8,18.8 q -0.2,-0.55 -1.5,-1.1 l -0.4,-0.2 -1.05,1.15 -1.3,0.55 -1.15,-0.2 0.1,0.4 -0.05,1.05 -0.05,0.05 -0.55,0.95 -1.45,0.9 -0.1,0.1 -3.95,1.7 -4,1.6 -1,0.2 L 17.9,26 16.3,25.75 q -0.6,-0.2 -1,-0.6 m 16.1,-7.4 0.1,-1 -2.55,-0.1 -0.05,1.1 2.2,0.05 0.4,0.15 -0.1,-0.2 M 7,3.95 6.4,4.05 Q 5.4,4.6 5,5.45 L 4.85,5.95 5.15,6.5 Q 6.25,7.55 7.3,8.25 8.4,9.1 9.25,9 9.2,8.2 8.45,6.65 L 8.25,5.95 Q 8,5.2 7.35,4.3 L 7,3.95 M 9.7,50.7 q 0.15,-0.4 0.55,-0.7 0.1,-0.1 0.55,-0.25 l 0.9,-0.35 q 0.8,-0.35 2.2,-1.45 l 1.05,-1 0.7,-1.25 0.55,-2.05 -0.25,-1.1 -0.45,-1.45 q -0.5,-1.5 -0.4,-2.25 0.1,-0.7 0.7,-1.25 0.5,-0.6 1.25,-0.8 0.75,-0.2 1.55,0 0.7,0.15 1.15,0.6 l 0.15,0.15 0.65,1.2 0.1,0.2 0.6,1.95 0.3,3.35 -0.2,1.7 -0.6,1.55 -0.85,1.75 -0.7,1.1 -0.95,0.8 -0.65,0.5 Q 15.8,52.75 15.05,53 L 12.2,53.35 11.4,53.1 11.25,53.05 10.5,52.6 10.3,52.45 9.95,52.1 9.6,51.45 9.7,50.7 M 28.55,37.9 q 0.95,-0.5 1.9,-0.3 0.6,0.1 1,0.55 l 0.45,0.95 -0.5,1.1 -0.9,0.95 q -0.6,0.75 -1.3,2.65 -0.55,1.4 -0.3,2.35 l 0.85,1.15 q 1.55,1.5 3.5,2.45 1.55,0.65 2,1.15 0.5,0.45 0.6,1.15 L 35.7,53.3 q -0.45,0.85 -1.3,1.35 L 33.65,54.9 30.7,54.6 q -0.75,-0.3 -2.4,-1.5 l -1.55,-1.3 -0.65,-0.65 -1.5,-1.8 -0.7,-1.2 -0.05,-0.2 Q 23.7,47.5 23.8,46.85 l 0.1,-1.7 0.2,-1.4 0.05,-0.35 1.25,-2.45 q 1.05,-1.55 2.1,-2.35 l 0.7,-0.55 0.35,-0.15 m 1.55,23 0.45,1.9 v 1.1 l -0.55,0.75 -1,0.2 q -0.95,0 -1.75,-0.75 l -2.7,-3.4 -0.95,-0.9 -0.8,-0.25 -1.7,-0.35 -1.05,0.25 -2,0.9 -1.55,0.8 Q 15,61.6 13.9,60.7 13.05,60 12.95,59.1 L 13,58.75 13.05,58.4 Q 13.2,57.35 14.4,56.55 15.2,56 16.65,55.5 l 0.5,-0.15 q 2.65,-1 4.15,-0.9 l 2.2,0.35 0.15,0.05 0.2,0.05 q 2.05,0.5 3,1.2 0.85,0.65 1.85,2.35 l 0.75,1.2 0.65,1.2 v 0.05 m 3.65,-31.7 -0.85,0.2 -4.25,0.9 Q 17.5,32.25 10.45,31.7 L 9.4,31.65 8.7,31.6 7.1,31.3 4.85,30.55 5.95,37.3 q 1.2,6.6 1.45,9.9 l 0.3,7.25 Q 7.95,60.3 10,73.1 l 1,6.1 0.4,1.2 q 0.4,0.45 1.4,0.7 l 2.45,0.5 q 6.15,1.05 13.4,-0.2 5,-0.9 11.25,-3.15 l 3.9,-1.5 q -1.45,-21.5 -4.35,-43.5 l -0.75,-5.8 -2.45,0.95 -2.5,0.8"
         fill="#000000"
         fill-rule="evenodd"
         stroke="none"
         id="path2" />
      <path
         d="m 11.5,26.7 1.7,-0.6 2.1,-0.95 q 0.4,0.4 1,0.6 l 1.6,0.25 3.45,-0.05 1,-0.2 4,-1.6 3.95,-1.7 0.1,-0.1 1.45,-0.9 0.55,-0.95 0.05,-0.05 0.05,-1.05 -0.1,-0.4 1.15,0.2 1.3,-0.55 1.05,-1.15 0.4,0.2 q 1.3,0.55 1.5,1.1 l 0.35,1.35 0.3,0.55 0.15,0.55 q -0.05,0.5 -0.85,0.9 l -3.65,1.7 -1.85,0.55 -6.05,1.25 -5.65,0.8 -3.2,0.25 H 12.2 11.5 m 19.9,-8.95 0.1,0.2 -0.4,-0.15 -2.2,-0.05 0.05,-1.1 2.55,0.1 -0.1,1"
         fill="#aba6a6"
         fill-rule="evenodd"
         stroke="none"
         id="path3" />
      <path
         d="M 11.5,26.7 H 11.15 Q 8.65,26.6 7.4,26 L 6.6,25.25 Q 6.4,24.85 6.7,24 7.45,22.45 8.85,21.45 9.7,20.85 11.1,20.3 17.45,17.5 23.2,16.85 L 23.45,16.8 23.4,17.15 Q 23.3,18 23.95,18.8 l -1.85,0.25 -2.85,0.55 q -2.4,0.55 -3.55,1.5 -1.05,0.95 -1.2,2 v 0.65 l 0.4,0.95 0.4,0.45 -2.1,0.95 -1.7,0.6 m -0.05,31.9 0.85,3.1 q 1.4,11.05 2.75,17.55 l 0.2,2.35 -2.45,-0.5 q -1,-0.25 -1.4,-0.7 L 11,79.2 10,73.1 Q 7.95,60.3 7.7,54.45 L 7.4,47.2 Q 7.15,43.9 5.95,37.3 l -1.1,-6.75 2.25,0.75 1.6,0.3 q -0.45,0.5 -0.7,1.25 -0.25,1.1 0.1,3.4 l 0.65,6 0.55,5.9 0.4,2.55 -0.1,0.75 0.35,0.65 0.2,0.95 -0.35,0.55 q -0.4,0.85 -0.2,1.9 0.1,0.9 0.7,1.6 l 0.1,0.3 q 0.3,0.65 0.95,1.1 l 0.1,0.1"
         fill="#cfbebe"
         fill-rule="evenodd"
         stroke="none"
         id="path4" />
      <path
         d="M 7,3.95 7.35,4.3 Q 8,5.2 8.25,5.95 l 0.2,0.7 Q 9.2,8.2 9.25,9 8.4,9.1 7.3,8.25 6.25,7.55 5.15,6.5 L 4.85,5.95 5,5.45 Q 5.4,4.6 6.4,4.05 L 7,3.95 m 12.75,33.45 0.6,-0.65 q 0.65,-0.45 1.7,-0.5 0.55,-0.3 1.45,-0.45 l 2.75,0.15 q 1.5,0.4 2.1,1.55 l 0.2,0.4 -0.35,0.15 -0.7,0.55 q -1.05,0.8 -2.1,2.35 l -1.25,2.45 -0.05,0.35 -0.2,1.4 -0.1,1.7 q -0.1,0.65 0.05,1.1 l 0.05,0.2 0.7,1.2 1.5,1.8 0.65,0.65 1.55,1.3 q 1.65,1.2 2.4,1.5 l 2.95,0.3 0.75,-0.25 0.2,1.1 q 0.2,1.7 -0.1,2.7 -0.4,1.6 -1.65,2.2 l -2.5,0.25 H 30.1 v -0.05 l -0.65,-1.2 -0.75,-1.2 q -1,-1.7 -1.85,-2.35 -0.95,-0.7 -3,-1.2 L 23.65,54.85 23.5,54.8 21.3,54.45 q -1.5,-0.1 -4.15,0.9 l -0.5,0.15 q -1.45,0.5 -2.25,1.05 -1.2,0.8 -1.35,1.85 l -0.05,0.35 -0.05,0.35 -1,-0.25 -0.5,-0.25 -0.1,-0.1 Q 10.7,58.05 10.4,57.4 L 10.3,57.1 Q 9.7,56.4 9.6,55.5 9.4,54.45 9.8,53.6 l 0.35,-0.55 0.35,-0.45 0.75,0.45 0.15,0.05 0.8,0.25 2.85,-0.35 q 0.75,-0.25 2.55,-1.35 l 0.65,-0.5 0.95,-0.8 0.7,-1.1 0.85,-1.75 0.6,-1.55 0.2,-1.7 -0.3,-3.35 -0.6,-1.95 -0.1,-0.2 -0.65,-1.2 -0.15,-0.15"
         fill="#c68080"
         fill-rule="evenodd"
         stroke="none"
         id="path5" />
      <path
         d="m 19.75,37.4 q -0.45,-0.45 -1.15,-0.6 -0.8,-0.2 -1.55,0 -0.75,0.2 -1.25,0.8 -0.6,0.55 -0.7,1.25 -0.1,0.75 0.4,2.25 l 0.45,1.45 0.25,1.1 -0.55,2.05 -0.7,1.25 -1.05,1 q -1.4,1.1 -2.2,1.45 l -0.9,0.35 Q 10.35,49.9 10.25,50 9.85,50.3 9.7,50.7 L 9.3,48.15 8.75,42.25 8.1,36.25 Q 7.75,33.95 8,32.85 8.25,32.1 8.7,31.6 l 0.7,0.05 1.05,0.05 q 7.05,0.55 18.2,-1.4 l 4.25,-0.9 0.85,-0.2 q 1.45,1.05 1.55,4.35 l 0.8,14 q 0.35,8.15 -0.2,14 -0.9,8.3 -4.05,13 -2.75,4.1 -6.5,4.65 -2.2,0.3 -4.5,-0.8 -2.1,-1.05 -3.55,-2.9 -1.95,-2.55 -3.4,-8.05 l -1.1,-3.9 -0.5,-1.85 -0.85,-3.1 0.5,0.25 1,0.25 q 0.1,0.9 0.95,1.6 1.1,0.9 2.6,0.45 l 1.55,-0.8 2,-0.9 1.05,-0.25 1.7,0.35 0.8,0.25 0.95,0.9 2.7,3.4 q 0.8,0.75 1.75,0.75 l 1,-0.2 0.55,-0.75 V 62.8 L 30.1,60.9 h 0.25 l 2.5,-0.25 q 1.25,-0.6 1.65,-2.2 0.3,-1 0.1,-2.7 l -0.2,-1.1 q 0.85,-0.5 1.3,-1.35 l 0.15,-1.25 q -0.1,-0.7 -0.6,-1.15 -0.45,-0.5 -2,-1.15 Q 31.3,48.8 29.75,47.3 L 28.9,46.15 q -0.25,-0.95 0.3,-2.35 0.7,-1.9 1.3,-2.65 l 0.9,-0.95 0.5,-1.1 -0.45,-0.95 q -0.4,-0.45 -1,-0.55 -0.95,-0.2 -1.9,0.3 l -0.2,-0.4 q -0.6,-1.15 -2.1,-1.55 L 23.5,35.8 q -0.9,0.15 -1.45,0.45 -1.05,0.05 -1.7,0.5 l -0.6,0.65 m -9.8,14.7 0.35,0.35 0.2,0.15 -0.35,0.45 -0.2,-0.95 m 26.3,-23.7 2.45,-0.95 0.75,5.8 q 2.9,22 4.35,43.5 l -3.9,1.5 v -2 Q 40.15,73.5 39.7,69.5 l -0.75,-6.8 -0.5,-9.5 Q 38.2,47.2 37.7,43.7 L 36.6,36.95 Q 36,32.7 36.25,28.4"
         fill="#8e6b6b"
         fill-rule="evenodd"
         stroke="none"
         id="path6" />
      <path
         d="m 12.3,61.7 0.5,1.85 1.1,3.9 q 1.45,5.5 3.4,8.05 1.45,1.85 3.55,2.9 2.3,1.1 4.5,0.8 3.75,-0.55 6.5,-4.65 3.15,-4.7 4.05,-13 0.55,-5.85 0.2,-14 l -0.8,-14 q -0.1,-3.3 -1.55,-4.35 l 2.5,-0.8 Q 36,32.7 36.6,36.95 l 1.1,6.75 q 0.5,3.5 0.75,9.5 l 0.5,9.5 0.75,6.8 q 0.45,4 0.2,6.75 v 2 q -6.25,2.25 -11.25,3.15 -7.25,1.25 -13.4,0.2 l -0.2,-2.35 Q 13.7,72.75 12.3,61.7"
         fill="#705555"
         fill-rule="evenodd"
         stroke="none"
         id="path7" />
    </g>
    <g
       id="sprite2"
       transform="translate(17.4,15.85)">
      <use
         ffdec:characterId="31"
         height="57.200001"
         transform="matrix(0.5366,0,0,0.5366,-16.6582,-14.546)"
         width="70.75"
         xlink:href="#sprite3"
         id="use7" />
    </g>
    <g
       id="sprite3"
       transform="translate(-8.65,-10.35)">
      <use
         ffdec:characterId="30"
         height="57.200001"
         transform="translate(8.65,10.35)"
         width="70.75"
         xlink:href="#shape1"
         id="use8" />
    </g>
    <g
       id="shape1"
       transform="translate(-8.65,-10.35)">
      <path
         d="m 14.8,41.7 q 0.65,-1.75 2.65,-2.5 1.8,-0.8 3.7,-0.25 1.15,0.45 2.25,1.2 l 0.9,0.4 q 1.65,0.9 2.85,2.5 L 37.8,30.1 q 2.35,-2.8 3.75,-3.95 1.5,-1.15 4.25,-2.4 18.2,-8.85 27.65,-12.6 2.15,-0.8 3.25,-0.8 h 0.8 l 1.9,2.4 -0.2,0.8 q -0.2,1.1 -1.55,3 -5.85,8.25 -18.85,23.8 -1.85,2.35 -3.35,3.5 -1.4,1.15 -4.75,2.75 l -15.15,7.15 q 1.2,1.6 1.75,3.4 l 0.2,1 0.55,2.5 q 0.1,1.95 -1.1,3.55 -1.2,1.65 -3.05,1.9 l -1.3,0.05 q -1.65,0.2 -3.45,-0.65 -1.85,-0.9 -3,-2.6 L 25,60.95 23.8,62.1 q -2.6,2.85 -4.3,3.95 -2.85,1.8 -5.5,1.45 l -1.65,-0.5 -1.2,-0.7 -0.2,-0.2 q -1,-0.85 -1.6,-1.9 L 9.25,64 9.15,63.8 8.75,62.4 q -0.2,-0.8 -0.05,-1.7 0.25,-2.65 2.7,-5.05 1.5,-1.3 4.9,-3.15 L 17.7,51.55 16.05,50 q -1.35,-1.5 -1.8,-3.6 -0.4,-1.85 0.25,-3.45 l 0.3,-1.25"
         fill="#000000"
         fill-opacity="0.372549"
         fill-rule="evenodd"
         stroke="none"
         id="path8" />
    </g>
  </defs>
</svg>
