<?xml version="1.0" encoding="UTF-8" standalone="no"?>
<svg
   ffdec:objectType="frame"
   height="79.709526"
   width="56.799999"
   version="1.1"
   id="svg6"
   xmlns:xlink="http://www.w3.org/1999/xlink"
   xmlns="http://www.w3.org/2000/svg"
   xmlns:svg="http://www.w3.org/2000/svg"
   xmlns:ffdec="https://www.free-decompiler.com/flash">
  <g
     transform="translate(26.3,41.159524)"
     id="g1">
    <use
       ffdec:characterId="17"
       height="119.15"
       id="rarity"
       transform="translate(-58.5,-60.65)"
       width="119.15"
       xlink:href="#sprite0" />
    <use
       ffdec:characterId="66"
       height="79.699997"
       transform="translate(-26.3,-41.15)"
       width="56.799999"
       xlink:href="#sprite1"
       id="use1" />
  </g>
  <defs
     id="defs6">
    <g
       id="sprite1">
      <use
         ffdec:characterId="65"
         height="79.699997"
         width="56.799999"
         xlink:href="#shape0"
         id="use2" />
    </g>
    <g
       id="shape0">
      <path
         d="m 5.35,70.15 q 1.25,-3.75 3.8,-6.85 2.55,-3.15 6,-5.05 1.35,-0.75 2.8,-1.3 V 56.9 L 17.5,44.6 16.7,32.3 Q 16.05,21.45 16.9,14.85 l 0.05,-0.35 -2.8,-0.7 Q 12.95,13.15 12.5,13 12.05,12.8 11.1,12.55 9.15,11.75 8.8,9.5 8.65,8.65 8.65,6.9 L 8.25,4.75 Q 8,3.5 8.4,2.7 8.9,1.55 11.05,0.85 14.2,-0.1 19.05,0 l 8.1,0.15 4,-0.15 3.95,0.25 q 1.9,0.35 2.75,1.4 0.8,1.1 0.5,3.95 l -0.7,5.05 q -0.3,2.45 -1.2,3.4 Q 35.2,15.3 32,15 l -1,35 1.3,-2.6 q 2.1,-3.7 7.95,-11.9 5.35,-7.5 7.65,-12.1 1.35,-2.9 2.65,-3.75 1.1,-0.75 2.5,-0.7 1.35,0.05 2.35,0.9 1,0.85 1.3,2.25 0.3,1.4 -0.3,2.5 l -1.05,1.4 -1.2,1.2 -2.2,2.95 -16.6,26.2 -0.95,1.5 0.15,0.05 3.75,2 q 5.1,3.4 6.75,9.4 0.5,1.8 0.45,3.35 h 2.85 l 0.65,0.05 0.5,0.15 0.5,0.25 0.3,0.2 0.3,0.2 0.25,0.25 0.15,0.2 0.15,0.2 0.15,0.25 0.15,0.2 0.05,0.2 0.1,0.2 0.05,0.25 0.1,0.2 0.05,0.2 v 0.25 0.2 0.2 0.25 0.2 l -0.05,0.2 -0.1,0.25 -0.05,0.2 -0.1,0.2 -0.15,0.25 -0.05,0.2 -0.15,0.2 -0.2,0.2 -0.15,0.25 -0.3,0.2 -0.3,0.2 -0.35,0.25 -0.35,0.15 -0.2,0.05 -0.3,0.05 -0.65,0.1 H 38.65 27.7 3.55 L 2.9,79.6 2.4,79.5 1.9,79.25 1.55,79.05 1.25,78.85 1.05,78.6 0.8,78.4 0.65,78.2 0.55,77.95 0.4,77.75 0.3,77.55 0.25,77.3 0.15,77.1 0.1,76.9 V 76.7 76.45 L 0,76.25 0.1,76.05 V 75.8 75.6 L 0.15,75.4 V 75.15 L 0.25,74.95 0.3,74.75 0.45,74.5 0.6,74.3 0.75,74.1 0.9,73.85 1.1,73.65 1.3,73.45 1.6,73.2 2.05,73 Q 2.2,72.95 2.4,72.85 L 2.6,72.8 2.9,72.7 H 3.55 V 72.65 H 4.8 q 0.1,-1.2 0.55,-2.5 M 32,6.45 29.65,6.6 27.5,6.7 23.55,6.65 20.45,6.45 17.35,6.4 15.05,6.85 q -0.15,1.05 0.4,1.9 L 17.2,8.7 19.45,8.5 21.05,8.2 23.8,8.05 h 4.45 L 31.7,8.2 32,6.45 m -5.85,9.75 -3.1,0.2 Q 22.9,19.3 23,23.25 l 2.4,-0.15 h 0.7 l 0.05,-6.9 m -0.4,38.7 0.3,-28.2 -2.95,0.15 0.5,9 1.2,19.8 h 0.95 V 54.9 M 39.6,71.3 Q 38.4,67.85 34.8,65.35 31.9,63.3 28.45,62.6 l -6.85,0.25 q -3.4,0.9 -6,3.4 -2.65,2.55 -3.55,5.9 l -0.1,0.5 H 27.7 38.65 40 L 39.6,71.3"
         fill="#000000"
         fill-rule="evenodd"
         stroke="none"
         id="path2" />
      <path
         d="M 32,6.45 31.7,8.2 28.25,8.05 H 23.8 L 21.05,8.2 19.45,8.5 17.2,8.7 15.45,8.75 Q 14.9,7.9 15.05,6.85 l 2.3,-0.45 3.1,0.05 3.1,0.2 L 27.5,6.7 29.65,6.6 32,6.45 M 25.75,54.9 v 0.75 H 24.8 l -1.2,-19.8 -0.5,-9 2.95,-0.15 -0.3,28.2"
         fill="#9f9f9f"
         fill-rule="evenodd"
         stroke="none"
         id="path3" />
      <path
         d="M 26.15,16.2 26.1,23.1 H 25.4 L 23,23.25 Q 22.9,19.3 23.05,16.4 l 3.1,-0.2"
         fill="#bbbbbb"
         fill-rule="evenodd"
         stroke="none"
         id="path4" />
      <path
         d="M 39.6,71.3 40,72.65 H 38.65 27.7 11.95 l 0.1,-0.5 q 0.9,-3.35 3.55,-5.9 2.6,-2.5 6,-3.4 l 6.85,-0.25 q 3.45,0.7 6.35,2.75 3.6,2.5 4.8,5.95"
         fill="#878787"
         fill-rule="evenodd"
         stroke="none"
         id="path5" />
    </g>
    <g
       id="sprite2"
       transform="translate(17.4,15.85)">
      <use
         ffdec:characterId="31"
         height="57.200001"
         transform="matrix(0.5366,0,0,0.5366,-16.6582,-14.546)"
         width="70.75"
         xlink:href="#sprite3"
         id="use5" />
    </g>
    <g
       id="sprite3"
       transform="translate(-8.65,-10.35)">
      <use
         ffdec:characterId="30"
         height="57.200001"
         transform="translate(8.65,10.35)"
         width="70.75"
         xlink:href="#shape1"
         id="use6" />
    </g>
    <g
       id="shape1"
       transform="translate(-8.65,-10.35)">
      <path
         d="m 14.8,41.7 q 0.65,-1.75 2.65,-2.5 1.8,-0.8 3.7,-0.25 1.15,0.45 2.25,1.2 l 0.9,0.4 q 1.65,0.9 2.85,2.5 L 37.8,30.1 q 2.35,-2.8 3.75,-3.95 1.5,-1.15 4.25,-2.4 18.2,-8.85 27.65,-12.6 2.15,-0.8 3.25,-0.8 h 0.8 l 1.9,2.4 -0.2,0.8 q -0.2,1.1 -1.55,3 -5.85,8.25 -18.85,23.8 -1.85,2.35 -3.35,3.5 -1.4,1.15 -4.75,2.75 l -15.15,7.15 q 1.2,1.6 1.75,3.4 l 0.2,1 0.55,2.5 q 0.1,1.95 -1.1,3.55 -1.2,1.65 -3.05,1.9 l -1.3,0.05 q -1.65,0.2 -3.45,-0.65 -1.85,-0.9 -3,-2.6 L 25,60.95 23.8,62.1 q -2.6,2.85 -4.3,3.95 -2.85,1.8 -5.5,1.45 l -1.65,-0.5 -1.2,-0.7 -0.2,-0.2 q -1,-0.85 -1.6,-1.9 L 9.25,64 9.15,63.8 8.75,62.4 q -0.2,-0.8 -0.05,-1.7 0.25,-2.65 2.7,-5.05 1.5,-1.3 4.9,-3.15 L 17.7,51.55 16.05,50 q -1.35,-1.5 -1.8,-3.6 -0.4,-1.85 0.25,-3.45 l 0.3,-1.25"
         fill="#000000"
         fill-opacity="0.372549"
         fill-rule="evenodd"
         stroke="none"
         id="path6" />
    </g>
  </defs>
</svg>
