<?xml version="1.0" encoding="UTF-8" standalone="no"?>
<svg
   ffdec:objectType="frame"
   height="78.05957"
   width="87.740623"
   version="1.1"
   id="svg5"
   xmlns:xlink="http://www.w3.org/1999/xlink"
   xmlns="http://www.w3.org/2000/svg"
   xmlns:svg="http://www.w3.org/2000/svg"
   xmlns:ffdec="https://www.free-decompiler.com/flash">
  <g
     transform="translate(40.0625,41.218889)"
     id="g1">
    <use
       ffdec:characterId="17"
       height="119.15"
       id="rarity"
       transform="translate(-58.5,-60.65)"
       width="119.15"
       xlink:href="#sprite0" />
    <use
       ffdec:characterId="903"
       height="78.050003"
       transform="translate(-40.05,-41.2)"
       width="87.75"
       xlink:href="#shape0"
       id="use1" />
  </g>
  <defs
     id="defs5">
    <g
       id="shape0"
       transform="translate(40.6,41.95)">
      <path
         d="m 16.4,-27.35 -2,-2.25 q -2.05,-2 -4.35,-3.5 -2.7,-1.7 -5.7,-2.65 L 0.9,-34.4 q -2.15,0.85 -3.25,2.05 l -0.45,0.6 -1.15,1.25 -1.15,1.35 -0.3,1.1 -0.15,3.35 v 1.15 l 1.75,2.4 q 1.25,1.95 2.8,5.7 L 0.85,-18.2 3,-20.1 q 1.1,-0.85 2.25,-1.5 1.95,-1.25 4.1,-2 3,-1.1 6.1,-1.05 l 1,0.05 1.4,0.15 0.8,0.1 -2.25,-3 M 4.65,17.95 q 2.7,6.8 2.4,13.95 -0.1,3.3 -1.8,4 -1.7,0.75 -4.1,-1.45 l -4.25,-4.6 -2.75,-3.15 -4.7,-5.65 q -1.9,-2.5 -1.8,-4.25 0.05,-1.3 1.4,-3.5 l 2,-3.25 Q -7.55,7.85 -6.6,7 -5.45,5.95 -2.75,4.85 L 0.8,3.65 -1.45,-2 -2.6,-6 q -0.65,-2.35 -3.2,-8.6 l -2.05,-4.25 -0.7,-1 q -2.1,5.75 -1.6,14.25 l 0.2,4.15 q -0.05,2.35 -0.6,4.05 -0.85,2.45 -3,4.6 -2.6,2.55 -5.8,3.85 h 0.05 l 1.15,0.25 1.4,0.15 h 0.6 l 0.95,-0.3 q 1.1,-0.35 1.8,0.55 0.75,0.9 0.25,1.9 -0.3,0.65 -1.15,1.1 -0.55,0.4 -1.25,0.65 L -18,15.8 h -1.85 q -1.05,-0.1 -2.6,-1 v 0.1 q 0.3,3.6 0.05,7.45 -0.1,2.8 -0.75,4.5 -0.4,1.1 -1,1.4 -0.6,0.3 -1.25,0 l -0.85,-0.95 -0.1,-1.25 -0.25,-2 -0.2,-3.15 -0.05,-3.15 q -0.2,-2.7 -0.8,-4.15 l -0.55,-1.35 h -0.25 l -0.95,2.95 -0.45,0.9 -1.55,1.55 -1.85,1.35 -2.25,0.35 q -1.2,-0.15 -2.1,-0.85 l -0.7,-0.95 q -0.2,-0.55 0.1,-1.1 l 0.85,-0.7 1.05,-0.15 q 0.8,-0.2 1.55,-1.05 1.4,-1.5 1.6,-3.05 L -33.1,11.05 -36,9.6 -37.65,8.5 -38.6,8.2 q -0.9,-0.45 -1.4,-1.35 -0.7,-1.3 -0.6,-3.8 0,-10.05 1.85,-16.05 0.9,-3.1 3.25,-7.85 2.3,-4.7 3.8,-6.85 2.9,-4.25 7.2,-7.5 4.25,-3.15 9.3,-4.9 8.4,-2.9 16.95,-1.3 8.05,1.55 14.1,6.7 4.85,4.2 8.6,11.1 2.55,4.85 5.55,13.15 1,2.75 1.25,4.35 l 0.1,2.6 2.25,-1.2 q 2.2,-1.15 3.4,-0.8 l 1.7,1.1 6.1,5.7 q 1.25,1.1 1.8,2.1 0.65,1.25 0.5,2.95 L 46.45,9.4 q -1.8,6.9 -2.8,13.25 l -0.4,1.85 q -0.35,0.95 -1,1.5 -0.55,0.5 -1.35,0.55 L 39.45,26.2 q -1.1,-0.65 -1.8,-2.85 -2.15,-6.6 -3,-13.5 l -2.9,1.1 q 0.45,1.05 -0.2,2.65 -1.9,5.65 -6.55,9.1 -1.4,1.05 -2.6,1.5 -1.8,0.75 -4.9,0.75 l -3.2,-0.3 Q 13.45,24.4 11.95,23.6 L 8.45,21.05 Q 7,19.5 6.2,17.7 L 4.65,17.95 M 19.2,-21.3 17.85,-21.6 16.9,-21.65 q -2.8,-0.05 -6.5,1.25 l -1.6,0.65 q -1.3,0.55 -2.25,1.2 l -0.1,0.05 q -3.65,2.25 -4.6,5.3 L 1.3,-11.55 0.8,-10.8 2.25,-6 2.8,-3.2 4,-0.05 Q 4.7,-1.7 5.85,-3.15 7.9,-5.7 11.8,-7.8 l 1.15,-0.6 2.8,-1.15 q 2.7,-0.9 5.6,-0.6 h 0.25 q 2.15,0.2 4.1,1 l -0.45,-1.15 q -1.9,-5.2 -3.55,-8.6 l -0.35,-0.7 -0.6,-1.2 -1.55,-0.5 M 12.7,1.25 h 0.45 L 13.25,1 13.85,0.2 q 0.75,-0.8 2.2,-1.45 l 2.2,-0.75 1.55,-0.3 1.2,-0.35 1.35,0.2 1.3,0.5 0.95,0.3 0.45,0.3 0.15,-0.05 q 0.9,-0.25 1.7,0 L 28.2,-2 27.55,-3.8 26.6,-4.75 q -1.8,-1.5 -4.95,-1.75 l -4,0.2 q -1.7,0.45 -4.25,1.95 -2.4,1.4 -3.5,2.4 -1.7,1.55 -2.3,3.5 l -0.1,0.4 5.2,-0.7 M 38.9,7 q 1,2.95 1.25,6.4 L 41.7,8 Q 42.1,6.65 41.85,5.95 L 40.8,4.65 37.05,1.35 38.45,5.8 38.5,5.85 38.9,7 M 34.15,3.9 33.75,2.25 33.05,0.8 Q 31.1,1.75 27.85,3.1 L 26.4,3.15 24.85,3.6 22.95,3.95 21.05,4.3 20.9,4.35 20.95,4.4 21.2,5.75 21.45,8.05 21.5,8.5 29.25,6.4 29.35,6.25 Q 32.4,5.25 34.4,4.8 L 34.15,3.9 m -21.2,11.95 q -1,0.05 -2.65,0.6 l 1.55,1.45 q 1.65,1.5 3.4,2.1 l 3.65,0.3 q 1.9,-0.25 3.5,-1.3 3.1,-1.95 4.6,-5.8 l 0.25,-0.65 -0.55,0.15 q -0.85,1.6 -2.35,2.55 l -1.45,0.8 -1.95,1.1 -2.15,0.65 -1.75,-0.1 -2.3,-0.7 q -0.5,-0.3 -1.3,-1.1 L 13.4,15.85 H 12.95 M 11.15,6 Q 5.05,7.2 -0.2,9.25 l 0.25,0.6 0.5,1.65 0.65,1.75 1,-0.35 2.35,-0.5 1.6,-0.35 1.5,-0.5 Q 9.05,11.1 10,11 L 11.95,10.65 16.3,9.9 17.65,9.55 17.6,9.05 17.55,6.1 17.65,5.05 12.1,5.9 11.15,6 m -17.9,-38.6 q 1.3,-1.6 3.15,-2.75 l 2.5,-1.3 0.3,-0.1 -2.6,-0.15 q -7.3,-0.05 -13.75,3.3 -2.9,1.5 -5.4,3.65 l -3.2,3.35 -1.6,2.3 -0.2,1.7 q -0.2,1.3 0,1.9 0.15,0.55 0.7,1.1 l 0.3,0.3 q 2.05,2.05 5.15,2.85 l 1.7,0.35 q 2.5,0.2 5.35,-1.35 l 0.1,-0.05 q 0.75,-2.7 2.1,-4.85 l 0.25,-0.35 q -2.15,-1.05 -4.9,-0.95 -2.3,0.05 -6,1.2 l -2.35,0.5 v -0.3 q -0.05,-1.65 1.35,-2.95 1,-0.95 2.95,-1.65 l 0.15,-0.05 q 6.15,-2.15 10.95,0.1 l 0.4,0.2 0.1,-1.05 q 0.3,-1.6 1.05,-2.9 l 0.7,-1.1 0.75,-0.95 m -27.8,30.95 q 1.9,1.25 5.8,1.35 l 2.4,-0.05 q 4.85,-0.45 9.95,-5.55 l 1,-0.9 q -0.05,-3.85 0.3,-6.6 -2.6,0.9 -5.55,0.5 -4.35,-0.6 -7.75,-3.8 l -0.1,-0.1 q -1.25,-1.2 -1.8,-2.35 -4.4,8.65 -5.05,16.85 l 0.6,0.5 0.2,0.15 m 30.35,13.75 -2.25,3.7 -0.3,0.8 0.25,0.8 q 1.25,2 3.95,4.85 L 1.65,26.9 -0.2,19.5 -0.85,16.8 -1.15,16.25 -1.4,15.35 -2,14.5 -2.8,13.35 -3.65,11.3 -4.2,12.1 M -18.65,4.5 q 2.25,-1.7 3.05,-3.95 0.4,-1.15 0.35,-3.35 -2,1.9 -3.9,3.1 -3.25,2.1 -6.7,2.55 -2.05,0.3 -5.55,-0.1 l -2.8,-0.6 -1.25,-0.8 0.05,1.6 q 1.1,1.5 3.05,2.45 3.2,1.7 7,1.5 3.85,-0.25 6.7,-2.4"
         fill="#000000"
         fill-rule="evenodd"
         stroke="none"
         id="path1" />
      <path
         d="m -2.8,-31.75 0.45,-0.6 q 1.1,-1.2 3.25,-2.05 l 3.45,-1.35 q 3,0.95 5.7,2.65 2.3,1.5 4.35,3.5 l 2,2.25 1.45,2.9 -1.4,-0.15 -1,-0.05 q -3.1,-0.05 -6.1,1.05 -2.15,0.75 -4.1,2 -1.65,-3.35 -3.95,-6.4 -2.15,-2.75 -4.1,-3.75 m 9.35,13.2 q 0.95,-0.65 2.25,-1.2 l 1.6,-0.65 q 3.7,-1.3 6.5,-1.25 l 0.95,0.05 1.35,0.3 1.7,5.15 q 0.5,2.05 0.6,3.8 l -0.15,2.2 q -2.9,-0.3 -5.6,0.6 l -2.8,1.15 -1.15,0.6 q -1.65,-1 -2.65,-3.2 -0.5,-1.05 -1.55,-4.55 l -1.05,-3 m -33.4,-1.05 q -0.55,-0.55 -0.7,-1.1 -0.2,-0.6 0,-1.9 l 0.2,-1.7 1.6,-2.3 3.2,-3.35 q 2.5,-2.15 5.4,-3.65 6.45,-3.35 13.75,-3.3 l 2.6,0.15 -0.3,0.1 -2.5,1.3 q -1.85,1.15 -3.15,2.75 l -3.45,0.45 q -6.1,1.5 -10.65,5.3 -1.95,0.7 -2.95,1.65 -1.4,1.3 -1.35,2.95 l -1.7,2.65 m -1.55,2.9 -1.65,3.55 -4.4,11.25 -0.1,0.25 -0.2,-0.15 -0.6,-0.5 q 0.65,-8.2 5.05,-16.85 0.55,1.15 1.8,2.35 l 0.1,0.1"
         fill="#595959"
         fill-rule="evenodd"
         stroke="none"
         id="path2" />
      <path
         d="m -2.8,-31.75 q 1.95,1 4.1,3.75 2.3,3.05 3.95,6.4 -1.15,0.65 -2.25,1.5 l -2.15,1.9 -1.85,2.75 q -1.55,-3.75 -2.8,-5.7 l -1.75,-2.4 v -1.15 l 0.15,-3.35 0.3,-1.1 1.15,-1.35 1.15,-1.25 m 20.65,7.3 -1.45,-2.9 2.25,3 -0.8,-0.1 m -11.3,5.9 1.05,3 q 1.05,3.5 1.55,4.55 1,2.2 2.65,3.2 Q 7.9,-5.7 5.85,-3.15 4.7,-1.7 4,-0.05 L 2.8,-3.2 2.25,-6 0.8,-10.8 1.3,-11.55 1.85,-13.2 q 0.95,-3.05 4.6,-5.3 l 0.1,-0.05 m 14.8,8.4 0.15,-2.2 q -0.1,-1.75 -0.6,-3.8 l -1.7,-5.15 1.55,0.5 0.6,1.2 0.35,0.7 q 1.65,3.4 3.55,8.6 l 0.45,1.15 q -1.95,-0.8 -4.1,-1 H 21.35 M 12.7,1.25 7.5,1.95 7.6,1.55 q 0.6,-1.95 2.3,-3.5 1.1,-1 3.5,-2.4 2.55,-1.5 4.25,-1.95 l 4,-0.2 q 3.15,0.25 4.95,1.75 l 0.95,0.95 0.65,1.8 -1.3,0.6 q -0.8,-0.25 -1.7,0 l -0.15,0.05 -0.45,-0.3 -0.95,-0.3 -1.3,-0.5 -1.35,-0.2 -1.2,0.35 -1.55,0.3 -2.2,0.75 Q 14.6,-0.6 13.85,0.2 L 13.25,1 13.15,1.25 H 12.7 m 0.25,14.6 h 0.45 l 0.05,0.05 q 0.8,0.8 1.3,1.1 l 2.3,0.7 1.75,0.1 2.15,-0.65 1.95,-1.1 1.45,-0.8 Q 25.85,14.3 26.7,12.7 L 27.25,12.55 27,13.2 q -1.5,3.85 -4.6,5.8 -1.6,1.05 -3.5,1.3 L 15.25,20 Q 13.5,19.4 11.85,17.9 L 10.3,16.45 q 1.65,-0.55 2.65,-0.6 m -39.8,-35.45 1.7,-2.65 v 0.3 l 2.35,-0.5 q 3.7,-1.15 6,-1.2 2.75,-0.1 4.9,0.95 l -0.25,0.35 q -1.35,2.15 -2.1,4.85 l -0.1,0.05 q -2.85,1.55 -5.35,1.35 l -1.7,-0.35 q -3.1,-0.8 -5.15,-2.85 l -0.3,-0.3 m 6,-7.25 q 4.55,-3.8 10.65,-5.3 l 3.45,-0.45 -0.75,0.95 -0.7,1.1 q -0.75,1.3 -1.05,2.9 l -0.1,1.05 -0.4,-0.2 q -4.8,-2.25 -10.95,-0.1 l -0.15,0.05 m -13.7,25.2 0.1,-0.25 4.4,-11.25 1.65,-3.55 q 3.4,3.2 7.75,3.8 2.95,0.4 5.55,-0.5 -0.35,2.75 -0.3,6.6 l -1,0.9 q -5.1,5.1 -9.95,5.55 l -2.4,0.05 q -3.9,-0.1 -5.8,-1.35 m 15.9,6.15 q -2.85,2.15 -6.7,2.4 -3.8,0.2 -7,-1.5 -1.95,-0.95 -3.05,-2.45 l -0.05,-1.6 1.25,0.8 2.8,0.6 q 3.5,0.4 5.55,0.1 3.45,-0.45 6.7,-2.55 1.9,-1.2 3.9,-3.1 0.05,2.2 -0.35,3.35 -0.8,2.25 -3.05,3.95"
         fill="#3c3c3c"
         fill-rule="evenodd"
         stroke="none"
         id="path3" />
      <path
         d="m 34.15,3.9 0.25,0.9 q -2,0.45 -5.05,1.45 L 29.25,6.4 21.5,8.5 21.45,8.05 21.2,5.75 20.95,4.4 20.9,4.35 21.05,4.3 22.95,3.95 24.85,3.6 26.4,3.15 27.85,3.1 q 3.25,-1.35 5.2,-2.3 l 0.7,1.45 0.4,1.65 M 38.9,7 38.5,5.85 38.45,5.8 l -1.4,-4.45 3.75,3.3 1.05,1.3 Q 42.1,6.65 41.7,8 l -1.55,5.4 Q 39.9,9.95 38.9,7 M 11.15,6 12.1,5.9 17.65,5.05 17.55,6.1 17.6,9.05 17.65,9.55 16.3,9.9 11.95,10.65 10,11 q -0.95,0.1 -2.35,0.55 l -1.5,0.5 -1.6,0.35 -2.35,0.5 -1,0.35 L 0.55,11.5 0.05,9.85 -0.2,9.25 Q 5.05,7.2 11.15,6 m -15.35,6.1 0.55,-0.8 0.85,2.05 0.8,1.15 0.6,0.85 0.25,0.9 0.3,0.55 0.65,2.7 1.85,7.4 -4.2,-4.65 Q -5.25,19.4 -6.5,17.4 l -0.25,-0.8 0.3,-0.8 2.25,-3.7"
         fill="#131313"
         fill-rule="evenodd"
         stroke="none"
         id="path4" />
    </g>
    <g
       id="sprite1"
       transform="translate(17.4,15.85)">
      <use
         ffdec:characterId="31"
         height="57.200001"
         transform="matrix(0.5366,0,0,0.5366,-16.6582,-14.546)"
         width="70.75"
         xlink:href="#sprite2"
         id="use4" />
    </g>
    <g
       id="sprite2"
       transform="translate(-8.65,-10.35)">
      <use
         ffdec:characterId="30"
         height="57.200001"
         transform="translate(8.65,10.35)"
         width="70.75"
         xlink:href="#shape1"
         id="use5" />
    </g>
    <g
       id="shape1"
       transform="translate(-8.65,-10.35)">
      <path
         d="m 14.8,41.7 q 0.65,-1.75 2.65,-2.5 1.8,-0.8 3.7,-0.25 1.15,0.45 2.25,1.2 l 0.9,0.4 q 1.65,0.9 2.85,2.5 L 37.8,30.1 q 2.35,-2.8 3.75,-3.95 1.5,-1.15 4.25,-2.4 18.2,-8.85 27.65,-12.6 2.15,-0.8 3.25,-0.8 h 0.8 l 1.9,2.4 -0.2,0.8 q -0.2,1.1 -1.55,3 -5.85,8.25 -18.85,23.8 -1.85,2.35 -3.35,3.5 -1.4,1.15 -4.75,2.75 l -15.15,7.15 q 1.2,1.6 1.75,3.4 l 0.2,1 0.55,2.5 q 0.1,1.95 -1.1,3.55 -1.2,1.65 -3.05,1.9 l -1.3,0.05 q -1.65,0.2 -3.45,-0.65 -1.85,-0.9 -3,-2.6 L 25,60.95 23.8,62.1 q -2.6,2.85 -4.3,3.95 -2.85,1.8 -5.5,1.45 l -1.65,-0.5 -1.2,-0.7 -0.2,-0.2 q -1,-0.85 -1.6,-1.9 L 9.25,64 9.15,63.8 8.75,62.4 q -0.2,-0.8 -0.05,-1.7 0.25,-2.65 2.7,-5.05 1.5,-1.3 4.9,-3.15 L 17.7,51.55 16.05,50 q -1.35,-1.5 -1.8,-3.6 -0.4,-1.85 0.25,-3.45 l 0.3,-1.25"
         fill="#000000"
         fill-opacity="0.372549"
         fill-rule="evenodd"
         stroke="none"
         id="path5" />
    </g>
  </defs>
</svg>
