<?xml version="1.0" encoding="UTF-8" standalone="no"?>
<svg
   ffdec:objectType="frame"
   height="49.349998"
   width="78.263969"
   version="1.1"
   id="svg4"
   sodipodi:docname="ITEM Red Cap.svg"
   xmlns:inkscape="http://www.inkscape.org/namespaces/inkscape"
   xmlns:sodipodi="http://sodipodi.sourceforge.net/DTD/sodipodi-0.dtd"
   xmlns:xlink="http://www.w3.org/1999/xlink"
   xmlns="http://www.w3.org/2000/svg"
   xmlns:svg="http://www.w3.org/2000/svg"
   xmlns:ffdec="https://www.free-decompiler.com/flash">
  <sodipodi:namedview
     id="namedview4"
     pagecolor="#ffffff"
     bordercolor="#000000"
     borderopacity="0.25"
     inkscape:showpageshadow="2"
     inkscape:pageopacity="0.0"
     inkscape:pagecheckerboard="0"
     inkscape:deskcolor="#d1d1d1"
     fit-margin-top="5"
     fit-margin-left="5"
     fit-margin-right="5"
     fit-margin-bottom="5" />
  <g
     transform="translate(41.019231,25.25)"
     id="g1">
    <use
       ffdec:characterId="17"
       height="119.15"
       id="rarity"
       transform="translate(-58.5,-60.65)"
       width="119.15"
       xlink:href="#sprite0" />
    <use
       ffdec:characterId="1176"
       height="49.900002"
       transform="translate(-41,-25.25)"
       width="78.25"
       xlink:href="#shape0"
       id="use1" />
  </g>
  <defs
     id="defs4">
    <g
       id="shape0"
       transform="translate(39.7,23.35)">
      <path
         d="m -7.6,-1.6 q 0.9,4.15 -3.8,6.6 -2.8,1.5 -5.2,-0.7 -1.95,-1.85 -1.35,-4.4 l 0.55,-1.6 0.2,-0.35 0.25,-0.3 0.1,-0.5 0.1,-0.2 0.45,-0.45 0.05,-0.15 v -0.2 l 2.7,-2.8 0.35,-0.25 0.3,-0.1 q 0.5,0.1 0.6,0.45 l 0.05,0.3 q -0.4,0.8 -0.9,1.45 l -0.45,0.55 -0.15,0.5 -0.3,0.45 -0.05,0.85 -0.3,0.45 v 0.3 l -0.15,0.4 -0.3,0.45 V -0.5 L -15,0 q 0,1.1 1,1.6 l 0.75,0.35 1.4,-0.35 q 0.65,-0.75 0.8,-1.75 l 0.3,-1 V -1.3 q -0.1,-0.75 0.2,-1.5 l 0.65,-0.8 0.8,-0.3 0.8,0.3 0.5,1.25 0.2,0.75 m -12.95,-8.65 Q -27.7,-5.3 -31.7,2.1 q -0.05,0.45 -0.4,0.8 l -0.4,0.65 -0.65,1.35 -0.4,1.1 q 15.65,4.05 32.35,3.15 l 1.1,-0.1 Q 1.15,7.2 2.8,5.65 4.7,3.9 7.15,5.1 l 0.1,0.05 q 1.8,0.9 3.25,2.35 L 11.1,8.15 14.85,8 19.5,7 Q 20.75,6.6 22.05,6.55 L 24.15,6.2 Q 24.7,5.4 25.45,4.85 27.65,3.4 30.4,4.35 L 31.55,3.7 32.35,3 Q 33.25,2.25 34.4,2.1 L 34.35,1.95 34.25,1.8 V 1.6 L 33.7,0.5 33.25,-1.15 32.5,-2.95 32.3,-3.45 q -2.65,-4.3 -6.7,-7.4 l -0.85,-0.6 q -2.4,-1.65 -5.25,-2.6 L 10,-16.7 6.15,-17.55 4.3,-17.75 1.25,-17.5 q -10.9,0.4 -19.85,5.95 l -1.95,1.3 M 12.8,-4.6 11.95,-5.5 11.3,-6.95 q -0.3,-0.5 -0.2,-1 L 11,-8.15 q -0.3,-0.7 -0.1,-1.45 0.2,-0.6 0.8,-0.65 l 0.05,0.05 0.3,0.05 0.25,0.35 0.15,0.45 0.4,0.5 0.3,0.5 q 0.8,1.2 2.1,1.95 l 0.25,0.15 0.15,0.2 0.2,0.15 5.45,0.15 q 1.5,-2.05 3.8,-1.15 l 0.2,0.6 q 0.6,2.95 -3.3,3.95 -4.2,1.1 -7.7,-1.1 L 12.8,-4.6 M 1.15,-23.35 q 10.75,0.2 20.6,4.2 3.1,1.2 5.8,3.05 9.05,6.15 10.9,16.2 0.3,1.8 -0.35,3.45 -0.2,0.7 -0.8,1.15 -0.2,1.2 -1.1,2.1 -1.35,1.45 -2.95,2.1 0.9,1.35 0.3,3.45 L 33.1,14.2 q -2.2,6.65 -9.65,4.55 -1.75,-0.5 -2.85,-1.9 -1.8,-2.35 -0.8,-4.75 l -1.9,0.4 Q 11.95,14.4 7.05,11.4 L 5.55,10.45 Q 4.2,13.3 1.25,13.6 l -9.55,0.65 q -0.05,0.85 -0.55,1.6 0.35,7 -6.3,10 l -6,0.15 q -3.8,-1.5 -4.35,-5.25 l -0.25,0.05 q -3.55,1.35 -7.5,-1.35 -2.1,-1.4 -2.45,-3.7 -0.25,-2 0.6,-3.9 l 0.15,-0.2 -0.25,-0.05 q -4,-0.9 -4.45,-4.3 -0.3,-2.35 0.7,-4.6 4.2,-9.2 12.15,-16.05 5.3,-4.55 12.05,-6.95 7.7,-2.75 15.9,-3.05 M 29.05,9.4 28.3,9.35 q -1.9,2.3 -5.05,2.6 v 0.1 0.2 0.15 l 0.2,0.35 0.1,0.3 0.1,0.35 0.25,0.25 0.5,0.55 0.1,0.15 0.3,0.15 0.65,0.35 q 2.3,0.55 3.4,-1.35 l 0.1,-0.2 0.15,-3.9 h -0.05 m -42.8,4.8 -14.55,-1.25 -1.55,-0.25 -0.8,-0.15 -0.2,0.45 -0.1,0.25 q -0.25,0.5 -0.1,1.15 l 0.6,0.85 0.3,0.65 1.4,0.3 5.6,0.4 q 0.6,0 0.85,0.45 1.3,2 2.1,4.2 2.45,1.7 4.9,-0.2 l 0.5,-1.2 0.5,-0.75 q 0,-2.5 0.6,-4.9 h -0.05"
         fill="#000000"
         fill-rule="evenodd"
         stroke="none"
         id="path1" />
      <path
         d="m -7.6,-1.6 q 5,-1 8.9,-5.05 3.65,-3.65 3.45,-8.75 -0.05,-1.35 -0.45,-2.35 l 1.85,0.2 3.85,0.85 -0.85,0.9 q -0.7,0.8 -0.8,2 -0.3,3.2 0.4,6.25 l 0.1,2.8 1,7 V 3.4 Q 10,3.95 10.3,4.5 v 1 L 10.55,6.15 10.5,7.5 Q 9.05,6.05 7.25,5.15 8.25,0.55 3.3,0 q -6.05,0.95 -5.55,6.85 0.1,1.5 1.05,2.3 -16.7,0.9 -32.35,-3.15 l 0.4,-1.1 0.65,-1.35 0.4,-0.65 q 0.35,-0.35 0.4,-0.8 4,-7.4 11.15,-12.35 l -0.15,0.6 q -0.2,1.05 0.1,2.15 1.15,2.9 3.75,4.65 l -0.1,0.5 -0.25,0.3 -0.2,0.35 -0.55,1.6 q -0.6,2.55 1.35,4.4 2.4,2.2 5.2,0.7 4.7,-2.45 3.8,-6.6 m 32.9,-4.7 q 1.35,-1 0.95,-2.6 l -0.65,-1.95 q 4.05,3.1 6.7,7.4 l 0.2,0.5 0.75,1.8 0.45,1.65 0.55,1.1 v 0.2 l 0.1,0.15 0.05,0.15 Q 33.25,2.25 32.35,3 L 31.55,3.7 30.4,4.35 Q 27.65,3.4 25.45,4.85 24.7,5.4 24.15,6.2 l -2.1,0.35 Q 20.75,6.6 19.5,7 L 14.85,8 Q 14.7,4.05 13.3,0.15 l -0.2,-2.8 -0.3,-1.95 1.5,1.15 q 3.5,2.2 7.7,1.1 3.9,-1 3.3,-3.95"
         fill="#d4b5b5"
         fill-rule="evenodd"
         stroke="none"
         id="path2" />
      <path
         d="m 4.3,-17.75 q 0.4,1 0.45,2.35 0.2,5.1 -3.45,8.75 -3.9,4.05 -8.9,5.05 l -0.2,-0.75 -0.5,-1.25 -0.8,-0.3 -0.8,0.3 -0.65,0.8 q -0.3,0.75 -0.2,1.5 v 0.15 l -0.3,1 q -0.15,1 -0.8,1.75 L -13.25,1.95 -14,1.6 Q -15,1.1 -15,0 l 0.15,-0.5 v -0.35 l 0.3,-0.45 0.15,-0.4 V -2 l 0.3,-0.45 0.05,-0.85 0.3,-0.45 0.15,-0.5 0.45,-0.55 q 0.5,-0.65 0.9,-1.45 l -0.05,-0.3 Q -12.4,-6.9 -12.9,-7 l -0.3,0.1 -0.35,0.25 -2.7,2.8 v 0.2 l -0.05,0.15 -0.45,0.45 -0.1,0.2 q -2.6,-1.75 -3.75,-4.65 -0.3,-1.1 -0.1,-2.15 l 0.15,-0.6 1.95,-1.3 Q -9.65,-17.1 1.25,-17.5 L 4.3,-17.75 M -1.2,9.15 Q -2.15,8.35 -2.25,6.85 -2.75,0.95 3.3,0 8.25,0.55 7.25,5.15 L 7.15,5.1 Q 4.7,3.9 2.8,5.65 1.15,7.2 -0.1,9.05 l -1.1,0.1 M 10.5,7.5 10.55,6.15 10.3,5.5 v -1 Q 10,3.95 9.85,3.4 V 2.25 l -1,-7 -0.1,-2.8 q -0.7,-3.05 -0.4,-6.25 0.1,-1.2 0.8,-2 l 0.85,-0.9 9.5,2.65 q 2.85,0.95 5.25,2.6 l 0.85,0.6 0.65,1.95 q 0.4,1.6 -0.95,2.6 l -0.2,-0.6 q -2.3,-0.9 -3.8,1.15 L 15.85,-5.9 15.65,-6.05 15.5,-6.25 15.25,-6.4 q -1.3,-0.75 -2.1,-1.95 l -0.3,-0.5 -0.4,-0.5 -0.15,-0.45 -0.25,-0.35 -0.3,-0.05 -0.05,-0.05 q -0.6,0.05 -0.8,0.65 -0.2,0.75 0.1,1.45 l 0.1,0.2 q -0.1,0.5 0.2,1 l 0.65,1.45 0.85,0.9 0.3,1.95 0.2,2.8 Q 14.7,4.05 14.85,8 L 11.1,8.15 10.5,7.5 m -24.25,6.7 h 0.05 q -0.6,2.4 -0.6,4.9 l -0.5,0.75 -0.5,1.2 q -2.45,1.9 -4.9,0.2 -0.8,-2.2 -2.1,-4.2 -0.25,-0.45 -0.85,-0.45 l -5.6,-0.4 -1.4,-0.3 -0.3,-0.65 -0.6,-0.85 q -0.15,-0.65 0.1,-1.15 l 0.1,-0.25 0.2,-0.45 0.8,0.15 1.55,0.25 14.55,1.25 m 42.8,-4.8 h 0.05 l -0.15,3.9 -0.1,0.2 q -1.1,1.9 -3.4,1.35 L 24.8,14.5 24.5,14.35 24.4,14.2 23.9,13.65 23.65,13.4 l -0.1,-0.35 -0.1,-0.3 -0.2,-0.35 v -0.15 -0.2 -0.1 q 3.15,-0.3 5.05,-2.6 l 0.75,0.05"
         fill="#974f4f"
         fill-rule="evenodd"
         stroke="none"
         id="path3" />
    </g>
    <g
       id="sprite1"
       transform="translate(17.4,15.85)">
      <use
         ffdec:characterId="31"
         height="57.200001"
         transform="matrix(0.5366,0,0,0.5366,-16.6582,-14.546)"
         width="70.75"
         xlink:href="#sprite2"
         id="use3" />
    </g>
    <g
       id="sprite2"
       transform="translate(-8.65,-10.35)">
      <use
         ffdec:characterId="30"
         height="57.200001"
         transform="translate(8.65,10.35)"
         width="70.75"
         xlink:href="#shape1"
         id="use4" />
    </g>
    <g
       id="shape1"
       transform="translate(-8.65,-10.35)">
      <path
         d="m 14.8,41.7 q 0.65,-1.75 2.65,-2.5 1.8,-0.8 3.7,-0.25 1.15,0.45 2.25,1.2 l 0.9,0.4 q 1.65,0.9 2.85,2.5 L 37.8,30.1 q 2.35,-2.8 3.75,-3.95 1.5,-1.15 4.25,-2.4 18.2,-8.85 27.65,-12.6 2.15,-0.8 3.25,-0.8 h 0.8 l 1.9,2.4 -0.2,0.8 q -0.2,1.1 -1.55,3 -5.85,8.25 -18.85,23.8 -1.85,2.35 -3.35,3.5 -1.4,1.15 -4.75,2.75 l -15.15,7.15 q 1.2,1.6 1.75,3.4 l 0.2,1 0.55,2.5 q 0.1,1.95 -1.1,3.55 -1.2,1.65 -3.05,1.9 l -1.3,0.05 q -1.65,0.2 -3.45,-0.65 -1.85,-0.9 -3,-2.6 L 25,60.95 23.8,62.1 q -2.6,2.85 -4.3,3.95 -2.85,1.8 -5.5,1.45 l -1.65,-0.5 -1.2,-0.7 -0.2,-0.2 q -1,-0.85 -1.6,-1.9 L 9.25,64 9.15,63.8 8.75,62.4 q -0.2,-0.8 -0.05,-1.7 0.25,-2.65 2.7,-5.05 1.5,-1.3 4.9,-3.15 L 17.7,51.55 16.05,50 q -1.35,-1.5 -1.8,-3.6 -0.4,-1.85 0.25,-3.45 l 0.3,-1.25"
         fill="#000000"
         fill-opacity="0.372549"
         fill-rule="evenodd"
         stroke="none"
         id="path4" />
    </g>
  </defs>
</svg>
