<?xml version="1.0" encoding="UTF-8" standalone="no"?>
<svg
   ffdec:objectType="frame"
   height="91.893875"
   width="96.365715"
   version="1.1"
   id="svg5"
   xmlns:xlink="http://www.w3.org/1999/xlink"
   xmlns="http://www.w3.org/2000/svg"
   xmlns:svg="http://www.w3.org/2000/svg"
   xmlns:ffdec="https://www.free-decompiler.com/flash">
  <g
     transform="translate(49.465714,47.209459)"
     id="g1">
    <use
       ffdec:characterId="17"
       height="119.15"
       id="rarity"
       transform="translate(-58.5,-60.65)"
       width="119.15"
       xlink:href="#sprite0" />
    <use
       ffdec:characterId="1056"
       height="91.900002"
       transform="translate(-49.45,-47.2)"
       width="96.349998"
       xlink:href="#shape0"
       id="use1" />
  </g>
  <defs
     id="defs5">
    <g
       id="shape0"
       transform="translate(96.25,48.55)">
      <path
         d="m -79.6,13 q -1,-4.8 -1.1,-7.25 -0.1,-3.1 0.75,-8.3 l 0.65,-3.95 q -2.2,2.8 -5.1,3.1 l -2.55,0.2 q -0.95,0.35 -2,1.5 l -2,3.25 q -0.7,1.7 -0.65,3.05 0.2,1.85 1.65,3.35 l 2.2,1.85 2.4,1.65 q 2.95,2.1 3.55,4.3 l 0.4,2 q 0.3,1.1 0.95,1.65 l 1.7,0.65 0.6,0.15 -1.45,-7.2 m 50.2,27.95 -3.55,1.15 -3.7,0.45 -3.2,-0.25 -1.5,0.05 -1.55,0.1 -2.05,0.05 -1.05,0.25 q -8.1,1.5 -13.95,-0.85 -2.95,-1.2 -6.05,-3.7 l -5.25,-4.9 q -3.6,-3.5 -4.85,-5.9 l -1.1,-3 q -0.85,0.5 -2.35,0.45 -2.45,-0.2 -4.35,-1.95 -1.9,-1.75 -2.3,-4.1 -0.25,-1.75 -0.5,-2.15 -0.35,-0.5 -1.85,-1.35 L -92,12.5 q -3,-3 -3.75,-5.1 -0.95,-2.5 -0.15,-5.6 0.7,-2.65 2.5,-5.25 2.9,-4.25 6.3,-4.45 h 1.4 l 1.35,-0.2 q 1.25,-0.4 2.45,-2.4 l 2.95,-4.75 0.45,-0.6 0.35,-2.25 1.2,-3.4 q 3.5,-8.75 6.35,-12.65 1.75,-2.45 4.85,-5.5 3.8,-3.6 6.6,-5 2.85,-1.5 8.45,-2.45 l 3.05,-0.4 q 4.25,-1.4 9.45,-0.95 3.9,0.35 9.85,2 4.75,1.25 7.1,2.85 1.6,1.1 4.3,4.1 4.15,4.65 6.1,7.5 5.55,7.9 7.5,18.7 1.65,9.25 0.45,20.2 -0.4,3.7 -1,6.35 l 0.45,0.3 0.6,0.9 0.45,1 1.05,1.45 1,1.5 q 0.6,1.25 0.4,3.05 -0.35,4 -4.25,9.45 l -1.3,1.6 q -2.05,2.15 -5.6,2.9 l -6.35,0.55 -1.75,-0.3 -0.45,-0.45 q -2.15,1.95 -3.25,2.65 -2,1.4 -6.5,3.1 m 4.15,-80.25 q -1.35,-0.7 -3.5,-1.4 l -5.25,-1.2 -5,-0.7 h -3.8 q -3.85,0.4 -7.7,3 l -1.25,0.9 q -2.15,1.7 -4.6,4.45 l -0.3,0.35 q -3.1,3.6 -5.9,8.15 l -0.85,1.5 -1.3,2.65 -0.45,1.25 -0.2,0.6 -0.45,2.1 0.65,0.55 1,1.2 q 0.75,1.05 1.25,2.45 l 0.25,0.75 0.1,0.5 q 0.25,1.3 0.05,2.55 -0.3,1.25 -0.95,1.75 l -0.3,0.15 -0.65,0.05 -0.25,-0.05 q -0.35,-0.1 -0.5,-0.3 L -65.2,-8.2 q -0.2,-0.4 -0.05,-0.9 v -0.05 l 0.25,-0.95 0.05,-0.5 -0.05,-0.45 q -0.2,-1.15 -1.4,-2.45 v 0.1 l -0.35,2.25 -0.45,2.95 -0.3,2.6 -0.25,2.4 -0.05,0.65 -0.1,2.65 0.2,6 0.15,1.65 0.55,5.55 0.2,1.05 q 0.65,3.3 1.8,5.8 1.3,2.65 4.2,6 l 2.6,2.8 0.6,0.6 q 2.7,2.7 4.8,4.2 l 0.05,0.05 q 2.15,1.55 4.3,2.35 l 1,0.3 1.1,0.25 4.4,0.6 1.35,0.4 0.95,0.25 4.35,-0.25 2.1,-0.65 2.15,-0.85 q 2.9,-1.15 4.45,-2.1 l 2.15,-1.6 2.25,-2 0.55,-0.6 3.1,-3.05 2.05,-2.25 2.15,-2.55 0.2,-0.3 1.6,-2.25 0.3,-0.5 q 1.4,-2.25 2.25,-4.55 l 0.4,-1.05 0.4,-1.5 q 0.35,-1.6 0.75,-4.7 l 0.35,-4.1 0.15,-3.5 q 0,-2.75 -0.15,-5.3 l -0.1,-1.8 -0.7,-4.95 q -0.45,-2.55 -1.15,-4.85 -1.05,-3.5 -2.55,-6.6 l -1.05,-1.95 Q -14.9,-28 -16.5,-30.2 l -0.15,-0.2 -3.1,-3.8 -0.7,-0.85 -1.2,-1.25 -1.2,-1.2 -1.8,-1.45 -0.6,-0.35 m -35.3,35.85 -0.2,-0.5 -0.05,-0.25 -0.1,-0.9 -0.05,-1.45 q 0.1,-2.3 0.55,-3.2 l 0.95,-1.2 0.05,-0.05 q 1.05,-1.05 2.9,-1.95 l 1.45,-0.65 h 0.1 l 2.3,-0.05 1.85,0.15 0.4,0.2 1.2,0.7 0.05,0.05 q 1.4,1 1.85,1.8 l 0.5,1.65 0.55,2.75 q 0.25,1.65 -0.4,3.3 -0.4,1 -1.15,1.85 l -1.65,1.15 -1.05,0.5 -0.8,0.35 -2.15,0.75 -2.05,-0.4 -1.4,-0.65 q -1.65,-0.95 -2.75,-2.4 L -60,-2.45 -60.2,-2.8 -60.55,-3.45 m -4,6.35 L -64.8,2 q -0.45,-2.15 0.65,-2.8 l 1.25,-0.1 q 0.65,0.2 1.15,0.7 l 0.7,1.15 0.55,1.25 0.4,0.7 0.45,0.7 1.35,1.6 2.65,2.7 2.75,3.1 0.6,0.6 0.55,0.5 2.45,1.85 0.25,0.15 1.05,0.6 3.8,1.85 q 2.7,1.05 4.55,1.5 l 0.75,0.1 0.85,0.1 4.1,-0.4 2.05,-0.4 6.15,-1.5 q 4.75,-1.35 10.2,-3.4 l 2.1,-0.5 h 0.1 l 0.4,0.05 0.2,0.05 0.15,0.1 q 0.55,0.25 0.9,0.85 l 0.1,0.15 q 0.4,0.65 0.2,1.4 l -0.05,0.3 q -0.45,1.05 -2.15,2 l -0.4,0.2 -0.25,0.15 q -7.5,3.65 -14.7,5.45 l -0.3,0.05 -0.55,0.15 -1.75,0.35 -0.25,0.05 -4.8,0.7 h -0.5 l -1.65,0.05 -2.05,-0.1 -0.9,-0.1 -2.2,-0.45 -2.3,-0.7 -1.8,-0.8 q -2.55,-1.3 -5,-3.35 l -1.55,-1.35 -0.4,-0.35 -2.4,-2.55 -1.25,-1.5 -2.7,-3.7 -2.15,-3.65 -1.1,-2.6 m 55.8,-0.2 -0.65,1.35 -0.9,2 -1.1,1.2 -0.45,0.35 h -0.05 l -0.35,0.3 Q -13,8.45 -13.5,8.65 l -2.4,0.3 h -0.8 q -2,-0.1 -2.9,-0.7 L -20.4,7.55 -20.9,7 -21.7,5.9 -21.9,5.55 -22.25,4.85 q -0.45,-1 -0.45,-2.9 L -22.5,0 q 0.35,-1.4 1.5,-2.65 l 0.3,-0.3 2.05,-1.5 0.95,-0.25 0.95,-0.35 q 0.3,-0.2 0.75,-0.55 l 0.25,-0.2 1.65,-0.25 0.7,0.2 0.7,0.4 0.3,0.2 1.4,0.95 0.85,0.8 0.3,0.35 q 0.7,1 1.1,2.25 l 0.2,0.7 0.2,1.15 q 0,0.7 -0.35,1.6 L -8.75,2.7 M -67.8,-28.05 q 1.8,-3.15 5.5,-8.05 l 0.95,-1.2 -0.95,0.85 q -3.9,3.55 -5.75,6.4 l -2.3,4.6 -0.5,1.25 -0.1,0.25 0.25,-0.1 1.05,-0.2 0.25,-0.6 1.6,-3.2 m -3.1,7.4 -1.7,0.65 -0.2,0.45 1.45,-0.15 h 0.25 l 0.2,-0.95 M -73.25,9.9 q -0.85,-12.05 0.5,-19.55 l 0.85,-4.5 0.25,-1.65 -0.9,0.3 -1.55,0.95 -0.15,1.65 -0.2,4.6 -0.65,5.35 -0.6,5.35 q -0.3,5.35 1.25,10.75 l 1.2,4.15 0.2,1.55 0.15,-0.05 0.75,-0.1 h 0.2 q -0.9,-3.45 -1.3,-8.8 m 17.1,-14.35 0.1,0.1 0.6,0.55 q 0.65,0.5 1.45,0.55 l 1.1,-0.15 0.9,-0.4 1,-0.8 q 0.55,-0.7 0.1,-2.4 l -0.4,-1 -0.3,-0.4 -2.5,-0.05 -0.1,0.05 -1.4,0.35 -1,-0.15 q -0.55,1.65 0,2.95 l 0.1,0.2 0.25,0.45 0.1,0.15 m 38,5.75 q -0.1,0.75 0.35,1.55 l 0.35,0.45 0.5,0.5 0.15,0.1 0.1,0.05 0.9,0.1 0.8,-0.15 0.95,-0.85 0.15,-0.35 0.55,-1.2 q 0.25,-0.8 0.15,-1.05 -0.1,-0.4 -0.75,-0.8 l -0.45,-0.25 -1.05,-0.7 -0.45,-0.25 -0.5,0.3 -0.65,0.7 -0.35,0.45 -0.75,1.4 m 7.6,24.55 q -2.2,2.7 -6.15,6.55 l 0.55,-0.1 3.45,-0.4 q 1.95,-0.3 3.2,-1.05 1.4,-0.85 3,-3.2 2.55,-3.7 2.85,-6.5 0.1,-0.65 -0.05,-1.2 L -4.5,18.7 -5.35,17.65 q -1.8,4.05 -5.2,8.2 m -53,6.1 -4.5,-5.4 q -1.75,-2.4 -2.8,-4.75 l -0.2,0.05 -1.2,0.3 -0.3,0.15 0.55,1.95 q 0.7,1.5 2.3,3.15 l 2.85,2.65 1.9,2 1.95,2 q 2,1.75 4.45,2.85 -2.25,-1.9 -5,-4.95"
         fill="#000000"
         fill-rule="evenodd"
         stroke="none"
         id="path1" />
      <path
         d="m -56.35,-34.25 q 2.45,-2.75 4.6,-4.45 l 1.25,-0.9 q 3.85,-2.6 7.7,-3 h 3.8 l 5,0.7 5.25,1.2 q 2.15,0.7 3.5,1.4 l -0.15,0.3 q -0.6,1.15 -1.95,2.1 l 3.05,-0.7 1.45,0.1 1.2,1.2 1.2,1.25 -0.25,1.15 0.95,-0.3 3.1,3.8 -0.15,0.25 0.3,-0.05 q 1.6,2.2 2.85,4.35 -0.45,0.4 -1.1,0.85 -3.15,2.2 -6.2,3.75 l -0.6,0.3 5.55,-1.6 2.15,-0.15 q 0.85,0.35 1.1,1.4 0.15,0.65 0,1.2 l 1.25,0.5 q 1.2,0.95 1.1,2.3 h 0.35 q 0.7,2.3 1.15,4.85 l 0.7,4.95 -0.25,0.15 -0.65,0.35 0.15,0.5 0.15,0.4 0.35,0.2 0.35,0.2 q 0.15,2.55 0.15,5.3 l -0.6,0.2 -0.2,-0.7 q -0.4,-1.25 -1.1,-2.25 l -0.3,-0.35 -0.85,-0.8 -1.4,-0.95 -0.3,-0.2 -0.7,-0.4 -0.7,-0.2 -1.65,0.25 -0.25,0.2 q -0.45,0.35 -0.75,0.55 l -0.95,0.35 -0.95,0.25 -2.05,1.5 -0.3,0.3 Q -22.15,-1.4 -22.5,0 l -0.2,1.95 q 0,1.9 0.45,2.9 l 0.35,0.7 -2.15,1.3 2.35,-0.95 0.8,1.1 0.5,0.55 0.8,0.7 q 0.9,0.6 2.9,0.7 h 0.8 l 2.4,-0.3 q 0.5,-0.2 1.25,-0.75 l 0.35,-0.3 h 0.05 l 0.45,-0.35 1.1,-1.2 0.9,-2 0.65,-1.35 q 0.35,0.15 0.65,0.4 l -0.35,4.1 q -0.4,3.1 -0.75,4.7 l -0.4,1.5 -0.4,1.05 q -0.85,2.3 -2.25,4.55 l -0.3,0.5 q -1.6,0.65 -2.2,1.15 0.45,0.55 0.4,1.35 v 0.05 l -2.15,2.55 -0.85,0.45 -12.1,5.75 4.3,-0.8 2,0.05 q 0.55,0.1 0.95,0.45 l -2.25,2 -2.15,1.6 q -1.55,0.95 -4.45,2.1 l -2.15,0.85 -2.1,0.65 -4.35,0.25 -0.95,-0.25 -1.35,-0.4 -4.4,-0.6 -1.1,-0.25 -0.05,-0.85 -0.95,0.55 q -2.15,-0.8 -4.3,-2.35 l -0.05,-0.05 q -0.05,-0.85 0.5,-1.45 -1.1,-0.65 -1.2,-2.05 -0.1,-1.45 0.9,-2.2 l -4,1.2 -1,0.3 -0.6,-0.6 -2.6,-2.8 1.05,-0.9 1.75,-0.7 1.75,-0.7 -3.4,0.6 q -2.3,0.2 -3,-1.25 -0.6,-1.2 0.55,-2.55 l 2.3,-1.5 2.8,-1.3 h -0.1 q -1.45,0.2 -1.95,-0.5 -0.45,-0.6 0,-1.45 l 1.1,-1.1 0.6,-0.45 2.4,2.55 0.4,0.35 1.55,1.35 q 2.45,2.05 5,3.35 l 1.8,0.8 2.3,0.7 2.2,0.45 0.9,0.1 2.05,0.1 1.65,-0.05 h 0.5 l 4.8,-0.7 0.25,-0.05 1.75,-0.35 0.55,-0.15 0.3,-0.05 q 7.2,-1.8 14.7,-5.45 l 0.25,-0.15 0.4,-0.2 q 1.7,-0.95 2.15,-2 l 0.05,-0.3 q 0.2,-0.75 -0.2,-1.4 l -0.1,-0.15 q -0.35,-0.6 -0.9,-0.85 l -0.15,-0.1 -0.2,-0.05 -0.4,-0.05 h -0.1 l -2.1,0.5 q -5.45,2.05 -10.2,3.4 l -6.15,1.5 -2.05,0.4 -4.1,0.4 -0.85,-0.1 -0.75,-0.1 Q -41.5,17.6 -44.2,16.55 L -48,14.7 -49.05,14.1 -49.3,13.95 -51.75,12.1 -52.3,11.6 -49.75,10.5 -47,9.4 q 7.8,-3.1 15.75,-5.3 l 3.4,-0.8 3.05,-1.9 -27.3,9.3 -0.8,0.3 -2.75,-3.1 -2.65,-2.7 -1.35,-1.6 1.45,-0.75 1,-0.5 0.2,-0.1 -0.2,0.05 -1.3,0.3 -1.6,0.3 -0.4,-0.7 -0.55,-1.25 -0.7,-1.15 q -0.5,-0.5 -1.15,-0.7 l -1.25,0.1 q -1.1,0.65 -0.65,2.8 l 0.25,0.9 -0.8,-0.6 q -0.45,-0.55 -0.3,-1.35 0.1,-0.75 0.6,-1.35 l 1,-0.7 1.5,-0.75 2.35,-0.95 0.2,0.35 0.35,0.55 q 1.1,1.45 2.75,2.4 l 1.4,0.65 2.05,0.4 2.15,-0.75 0.8,-0.35 1.05,-0.5 1.65,-1.15 q 0.75,-0.85 1.15,-1.85 0.65,-1.65 0.4,-3.3 l -0.55,-2.75 -0.5,-1.65 q -0.45,-0.8 -1.85,-1.8 l -0.05,-0.05 -1.2,-0.7 -0.4,-0.2 -1.85,-0.15 -2.3,0.05 h -0.1 l -1.45,0.65 q -1.85,0.9 -2.9,1.95 l -0.05,0.05 -0.95,1.2 q -0.45,0.9 -0.55,3.2 l 0.05,1.45 0.1,0.9 0.05,0.25 0.2,0.5 -3.8,1 -2.15,0.3 h -0.1 q -0.75,-0.05 -1.2,-0.4 l 0.05,-0.65 0.25,-2.4 0.75,-0.5 0.15,-0.1 0.3,-0.1 1.5,-0.55 0.25,-0.1 q 0.85,-0.35 1.4,-0.75 l -0.6,-0.05 0.3,-0.15 q 0.65,-0.5 0.95,-1.75 0.2,-1.25 -0.05,-2.55 l -0.1,-0.5 0.1,-0.05 14.9,-6.3 -3.65,1.25 q -3.5,1.15 -5.4,1.65 l -1.6,0.3 h -0.4 l -1.4,-0.15 -0.4,-0.15 q -0.95,-0.45 -1.3,-1.45 -0.35,-1.05 0.3,-1.75 -0.95,0.15 -1.75,0 l -1,-0.3 -0.3,-0.15 -0.6,-0.55 0.45,-1.25 1.3,-2.65 0.45,-0.25 6.9,-3.2 q -0.95,-0.2 -1.4,-1.2 -0.45,-1.05 -0.05,-2 0.75,-1.65 3.1,-2.4 -0.7,0 -1.2,-0.3 l -0.5,-0.35 -0.05,-0.05 -0.2,-0.25 m -8.9,25.15 q -0.3,-0.65 -0.1,-1.3 l 0.15,-0.35 0.2,-0.3 0.05,0.45 -0.05,0.5 -0.25,0.95 v 0.05 m 6.65,21.95 -0.9,0.2 q -4,1.05 -7.3,1.3 l -0.2,-1.05 -0.55,-5.55 1.5,-0.95 2.6,-1.3 2.15,3.65 2.7,3.7"
         fill="#c1c795"
         fill-rule="evenodd"
         stroke="none"
         id="path2" />
      <path
         d="m -56.35,-34.25 0.2,0.25 0.05,0.05 0.5,0.35 q 0.5,0.3 1.2,0.3 -2.35,0.75 -3.1,2.4 -0.4,0.95 0.05,2 0.45,1 1.4,1.2 l -6.9,3.2 -0.45,0.25 0.85,-1.5 q 2.8,-4.55 5.9,-8.15 l 0.3,-0.35 m -8.8,13.9 0.6,0.55 0.3,0.15 1,0.3 q 0.8,0.15 1.75,0 -0.65,0.7 -0.3,1.75 0.35,1 1.3,1.45 l 0.4,0.15 1.4,0.15 h 0.4 l 1.6,-0.3 q 1.9,-0.5 5.4,-1.65 l 3.65,-1.25 -14.9,6.3 -0.1,0.05 -0.25,-0.75 q -0.5,-1.4 -1.25,-2.45 l -1,-1.2 -0.65,-0.55 0.45,-2.1 0.2,-0.6 m 1.4,12.6 0.6,0.05 q -0.55,0.4 -1.4,0.75 l -0.25,0.1 -1.5,0.55 -0.3,0.1 -0.15,0.1 -0.05,-0.15 -0.35,-1.65 -0.05,-0.3 0.45,-2.95 0.35,-2.25 v -0.1 q 1.2,1.3 1.4,2.45 l -0.2,0.3 -0.15,0.35 q -0.2,0.65 0.1,1.3 -0.15,0.5 0.05,0.9 l 0.05,0.15 q 0.15,0.2 0.5,0.3 l 0.25,0.05 0.65,-0.05 m -4.05,5.2 q 0.45,0.35 1.2,0.4 h 0.1 l 2.15,-0.3 3.8,-1 0.35,0.65 -2.35,0.95 -1.5,0.75 -1,0.7 q -0.5,0.6 -0.6,1.35 -0.15,0.8 0.3,1.35 l 0.8,0.6 1.1,2.6 -2.6,1.3 -1.5,0.95 -0.15,-1.65 -0.2,-6 0.1,-2.65 m 7.7,5.45 1.6,-0.3 0.3,0.25 -1.45,0.75 -0.45,-0.7 m 2.9,-0.6 0.2,-0.05 -0.2,0.1 V 2.3 m 4.3,8.7 0.8,-0.3 27.3,-9.3 -3.05,1.9 -3.4,0.8 Q -39.2,6.3 -47,9.4 l -2.75,1.1 -2.55,1.1 -0.6,-0.6 m -4.45,3.35 -0.6,0.45 -1.1,1.1 q -0.45,0.85 0,1.45 0.5,0.7 1.95,0.5 h 0.1 l -2.8,1.3 -2.3,1.5 q -1.15,1.35 -0.55,2.55 0.7,1.45 3,1.25 l 3.4,-0.6 -1.75,0.7 -1.75,0.7 -1.05,0.9 q -2.9,-3.35 -4.2,-6 -1.15,-2.5 -1.8,-5.8 3.3,-0.25 7.3,-1.3 l 0.9,-0.2 1.25,1.5 m -0.25,15.2 1,-0.3 4,-1.2 q -1,0.75 -0.9,2.2 0.1,1.4 1.2,2.05 -0.55,0.6 -0.5,1.45 -2.1,-1.5 -4.8,-4.2 m 9.15,6.6 0.95,-0.55 0.05,0.85 -1,-0.3 M -22.2,30.5 q -0.4,-0.35 -0.95,-0.45 l -2,-0.05 -4.3,0.8 12.1,-5.75 0.85,-0.45 -2.05,2.25 -3.1,3.05 -0.55,0.6 m 7.85,-8.45 V 22 q 0.05,-0.8 -0.4,-1.35 0.6,-0.5 2.2,-1.15 l -1.6,2.25 -0.2,0.3 M -21.7,5.9 l -2.35,0.95 2.15,-1.3 0.2,0.35 m 11.65,-23.2 h -0.35 q 0.1,-1.35 -1.1,-2.3 l -1.25,-0.5 q 0.15,-0.55 0,-1.2 -0.25,-1.05 -1.1,-1.4 l -2.15,0.15 -5.55,1.6 0.6,-0.3 q 3.05,-1.55 6.2,-3.75 0.65,-0.45 1.1,-0.85 l 1.05,1.95 q 1.5,3.1 2.55,6.6 m -6.45,-12.9 -0.3,0.05 0.15,-0.25 0.15,0.2 m -3.25,-4 -0.95,0.3 0.25,-1.15 0.7,0.85 m -3.1,-3.3 -1.45,-0.1 -3.05,0.7 q 1.35,-0.95 1.95,-2.1 l 0.15,-0.3 0.6,0.35 1.8,1.45 m -33.4,32.9 -0.25,-0.45 -0.1,-0.2 q -0.55,-1.3 0,-2.95 l 1,0.15 1.4,-0.35 0.1,-0.05 2.5,0.05 0.3,0.4 0.4,1 q 0.45,1.7 -0.1,2.4 l -1,0.8 -0.9,0.4 -1.1,0.15 q -0.8,-0.05 -1.45,-0.55 l -0.6,-0.55 -0.1,-0.1 0.1,-0.05 0.05,-0.2 -0.25,0.1 m 38.1,5.9 0.75,-1.4 0.35,-0.45 0.65,-0.7 0.5,-0.3 0.45,0.25 1.05,0.7 0.45,0.25 q 0.65,0.4 0.75,0.8 0.1,0.25 -0.15,1.05 L -13.9,2.7 -14.05,3.05 -15,3.9 -15.8,4.05 -16.7,3.95 -16.8,3.9 -16.95,3.8 -17.45,3.3 -17.8,2.85 q -0.45,-0.8 -0.35,-1.55"
         fill="#ffffff"
         fill-rule="evenodd"
         stroke="none"
         id="path3" />
      <path
         d="m -67.8,-28.05 -1.6,3.2 -0.25,0.6 -1.05,0.2 -0.25,0.1 0.1,-0.25 0.5,-1.25 2.3,-4.6 q 1.85,-2.85 5.75,-6.4 l 0.95,-0.85 -0.95,1.2 q -3.7,4.9 -5.5,8.05 M -73.25,9.9 q 0.4,5.35 1.3,8.8 h -0.2 l -0.75,0.1 -0.15,0.05 -0.2,-1.55 -1.2,-4.15 Q -76,7.75 -75.7,2.4 l 0.6,-5.35 0.65,-5.35 0.2,-4.6 0.15,-1.65 1.55,-0.95 0.9,-0.3 -0.25,1.65 -0.85,4.5 q -1.35,7.5 -0.5,19.55 m 2.35,-30.55 -0.2,0.95 h -0.25 l -1.45,0.15 0.2,-0.45 1.7,-0.65 m 7.35,52.6 q 2.75,3.05 5,4.95 Q -61,35.8 -63,34.05 l -1.95,-2 -1.9,-2 -2.85,-2.65 q -1.6,-1.65 -2.3,-3.15 l -0.55,-1.95 0.3,-0.15 1.2,-0.3 0.2,-0.05 q 1.05,2.35 2.8,4.75 l 4.5,5.4"
         fill="#c3c3c3"
         fill-rule="evenodd"
         stroke="none"
         id="path4" />
    </g>
    <g
       id="sprite1"
       transform="translate(17.4,15.85)">
      <use
         ffdec:characterId="31"
         height="57.200001"
         transform="matrix(0.5366,0,0,0.5366,-16.6582,-14.546)"
         width="70.75"
         xlink:href="#sprite2"
         id="use4" />
    </g>
    <g
       id="sprite2"
       transform="translate(-8.65,-10.35)">
      <use
         ffdec:characterId="30"
         height="57.200001"
         transform="translate(8.65,10.35)"
         width="70.75"
         xlink:href="#shape1"
         id="use5" />
    </g>
    <g
       id="shape1"
       transform="translate(-8.65,-10.35)">
      <path
         d="m 14.8,41.7 q 0.65,-1.75 2.65,-2.5 1.8,-0.8 3.7,-0.25 1.15,0.45 2.25,1.2 l 0.9,0.4 q 1.65,0.9 2.85,2.5 L 37.8,30.1 q 2.35,-2.8 3.75,-3.95 1.5,-1.15 4.25,-2.4 18.2,-8.85 27.65,-12.6 2.15,-0.8 3.25,-0.8 h 0.8 l 1.9,2.4 -0.2,0.8 q -0.2,1.1 -1.55,3 -5.85,8.25 -18.85,23.8 -1.85,2.35 -3.35,3.5 -1.4,1.15 -4.75,2.75 l -15.15,7.15 q 1.2,1.6 1.75,3.4 l 0.2,1 0.55,2.5 q 0.1,1.95 -1.1,3.55 -1.2,1.65 -3.05,1.9 l -1.3,0.05 q -1.65,0.2 -3.45,-0.65 -1.85,-0.9 -3,-2.6 L 25,60.95 23.8,62.1 q -2.6,2.85 -4.3,3.95 -2.85,1.8 -5.5,1.45 l -1.65,-0.5 -1.2,-0.7 -0.2,-0.2 q -1,-0.85 -1.6,-1.9 L 9.25,64 9.15,63.8 8.75,62.4 q -0.2,-0.8 -0.05,-1.7 0.25,-2.65 2.7,-5.05 1.5,-1.3 4.9,-3.15 L 17.7,51.55 16.05,50 q -1.35,-1.5 -1.8,-3.6 -0.4,-1.85 0.25,-3.45 l 0.3,-1.25"
         fill="#000000"
         fill-opacity="0.372549"
         fill-rule="evenodd"
         stroke="none"
         id="path5" />
    </g>
  </defs>
</svg>
