<?xml version="1.0" encoding="UTF-8" standalone="no"?>
<svg
   ffdec:objectType="frame"
   height="75.701668"
   width="69.196938"
   version="1.1"
   id="svg7"
   xmlns:xlink="http://www.w3.org/1999/xlink"
   xmlns="http://www.w3.org/2000/svg"
   xmlns:svg="http://www.w3.org/2000/svg"
   xmlns:ffdec="https://www.free-decompiler.com/flash">
  <g
     transform="translate(34.25,42.801667)"
     id="g1">
    <use
       ffdec:characterId="17"
       height="119.15"
       id="rarity"
       transform="translate(-58.5,-60.65)"
       width="119.15"
       xlink:href="#sprite0" />
    <use
       ffdec:characterId="106"
       height="75.699997"
       transform="translate(-34.25,-42.8)"
       width="69.199997"
       xlink:href="#shape0"
       id="use1" />
  </g>
  <defs
     id="defs7">
    <g
       id="shape0"
       transform="translate(33.95,45.3)">
      <path
         d="m 17.45,-29.05 q 1.5,2.4 1.6,5.15 v 0.25 l 3.4,0.55 v -0.2 L 22.6,-25 q 0.2,-2.15 -0.75,-3.2 -1.05,-1.2 -3.5,-1 l -0.9,0.15 M -19,-22.2 q 2.9,-1.1 6.45,-1.7 l 1,-6.75 h -0.55 q -2.1,-0.1 -3.65,-1.15 -1.5,-0.95 -2.1,-2.5 -0.55,-1.55 0.1,-3.95 0.7,-2.9 2.1,-4.45 1.65,-1.9 4.35,-2.4 2.65,-0.55 5.1,0.4 2.45,0.85 3.4,2.6 0.75,1.25 0.75,3.25 0.05,2.15 -0.85,3.95 -0.95,1.95 -2.7,2.8 l -1.35,0.5 -0.05,0.8 -0.2,1.8 q 0.05,2.5 -0.25,3.7 l -0.15,0.8 5,-0.2 q 0.3,-2.45 1.8,-4.65 1.55,-2.4 3.95,-3.65 2.4,-1.25 5.25,-1.25 2.85,0.05 5.2,1.4 l 0.9,0.55 q 1.8,-0.8 3.75,-1.15 3.2,-0.55 5.25,0.55 2.3,1.2 3.15,4.25 0.6,2.05 0.4,5.4 l -0.1,1.15 3.55,1.1 q 2.85,1 3.8,2.45 0.6,0.9 0.8,3.45 0.6,12.75 -1.25,25 l -0.3,1.75 0.4,4.3 q 0.05,1.6 -0.4,2.75 0,0.85 -0.75,2.05 Q 30.6,24 28,26.5 l -1.7,1.45 q -0.7,1 -2.8,1.4 -2.8,0.55 -7.7,0.15 l -7.75,-0.3 -3.95,0.55 -3.95,0.5 -3.55,0.1 -10.3,0.05 q -1.9,0 -2.55,-0.65 -0.75,-0.7 -0.75,-2.8 l 0.1,-4.5 -7.05,0.4 -0.55,-0.05 -6.3,-0.55 h -0.95 l -0.4,-0.35 -0.15,-0.15 -0.4,0.05 -0.15,-0.25 -0.2,-0.3 0.05,-0.2 q -0.4,-0.55 -0.5,-1.9 -0.2,-5.05 0.2,-13.35 l -0.2,-2.2 -0.45,-5.8 0.4,-3.05 0.4,-4.45 q 0,-2.1 0.35,-2.75 l 1.5,-1.6 q 5.8,-4.6 9,-6.4 l 0.6,-0.25 q 1,-0.85 2.7,-1.5 m 21.9,-4.9 -0.5,1.95 -0.05,0.45 4.15,0.1 0.7,-1.35 q 1.25,-2.05 3,-3.6 l -1.85,-0.3 q -1.7,-0.05 -3.2,0.65 -1.5,0.7 -2.25,2.1 m 11,0.3 -0.5,-0.65 -0.3,0.2 q -1.65,1.2 -2.75,2.8 l 4.65,0.3 q -0.25,-1.4 -1.1,-2.65 m -0.2,11.85 -0.05,-1 0.35,-2.1 -7.65,-0.45 q -8.15,-0.35 -12.4,-0.05 -6.9,0.45 -11.95,2.6 l -1.9,15.7 q -0.8,6.5 -0.45,9.75 l 9.9,0.3 q 2.1,-0.15 3.25,0 L -6.6,9.9 -6,9.5 -1.55,6.7 -0.6,6.05 -1.25,4.6 Q -1.6,3.55 -1.6,1.3 q 0.1,-3 0.8,-4.75 l 0.6,-1.2 0.55,-0.85 Q 2.1,-7.8 5.6,-9.75 l 0.35,-0.2 q 2.5,-1.2 3.85,-1.55 l 3.5,-0.6 0.25,-0.9 0.1,-1.15 0.05,-0.8 m 3.85,-2.8 -0.35,-0.05 -0.05,0.15 -0.05,0.3 -0.2,1.3 -0.05,0.45 v 1.5 l -0.05,0.55 v 0.35 l -0.1,1.05 h 0.1 0.05 l 0.85,0.25 q 1.65,0.55 3.35,2.1 3.25,3.25 4.1,7.75 0.45,2.45 0.05,4.95 l -0.75,2.85 q -0.7,1.7 -1.9,3.2 l -1.6,1.7 q -1.65,1.4 -3.7,2.05 L 10.55,13.35 6.75,13 Q 5.6,12.7 4.55,11.95 2.95,10.9 1.45,9.05 l -1.95,1.35 -0.35,0.25 -2.65,2.1 -0.05,0.05 q 0.4,1.45 0.3,3.7 H 5.5 L 19,16.55 h 9.3 q -0.3,-1.5 0,-3.65 l 0.75,-3.7 0.7,-6.3 Q 30.2,-5 30,-12.45 q 0,-1.65 -0.65,-2.5 -0.6,-0.6 -1.75,-0.85 l -2.85,-0.75 -5.25,-0.95 -1.95,-0.25 M 6.75,-3.65 Q 4.45,-1.8 4.4,0.65 4.35,2.9 6.4,5.25 L 7.25,6.05 8.35,5.15 9.8,4.4 h 0.05 q 1.2,-1.25 2.1,-4.2 L 12.05,-0.05 11.8,-2.1 11.2,-4.5 Q 9.9,-4.65 9.15,-5 l -0.1,-0.05 q -1.35,0.6 -2.3,1.4 m 11.1,-0.55 q -1.1,-1.6 -2.7,-2.1 l -0.6,-0.1 q 1.15,1.6 1.25,3.85 v 1 q 0.45,2.3 -0.15,4.55 -0.5,1.95 -1.7,3.5 l -0.4,0.45 Q 15.2,6.75 16.15,6.25 19,4.75 19.4,1.5 19.8,-1.55 17.85,-4.2 m -31.2,-31.95 q 0.1,0.35 0.7,0.55 l 1.55,0.1 1.55,-0.2 h 1.15 q 0.65,0 1.05,-0.3 0.5,-0.35 0.8,-1.55 0.3,-1.6 -0.15,-2.2 l -1,-0.6 -1.2,-0.25 -1,-0.2 -1.45,0.6 -1.1,0.85 -0.6,1.2 -0.35,1.45 0.05,0.55 m -12.95,47.3 q 0.25,-13.05 2.3,-25.9 l -3.75,3.05 -0.9,1.25 V -9 q 0.1,0.8 -0.1,3.05 l -0.7,5.9 -0.15,2.7 0.35,2.6 q 0.15,1.25 0.15,3.75 0.1,2.25 0.75,3.55 l 1.8,-0.7 0.25,-0.1 v -0.6 m 16.7,-19.4 q -0.7,-1.35 0,-2.7 l 0.9,-1 0.95,-0.35 0.75,-0.05 q 1.3,0.15 2,1.2 0.7,1 0.35,2.3 -0.2,0.85 -1.05,1.45 -0.9,0.7 -2.15,0.45 -1.2,-0.25 -1.75,-1.3 M -10,3.6 Q -11.1,2.7 -10.95,1.15 -10.7,-0.3 -9.3,-0.9 l 0.8,-0.25 h 0.55 l 1,0.3 1.1,1.05 Q -5.45,0.9 -5.5,1.65 -5.6,3.35 -7.15,4 L -8.6,4.2 Q -9.4,4.1 -10,3.6 m -11.7,12.15 -1.45,-0.1 -1.55,0.7 -3.75,1.55 1.3,-0.1 1.35,-0.05 2.05,0.15 1.55,-0.2 1.55,-0.3 3.2,-0.1 3.2,-0.4 q 0.8,-0.25 1.85,-0.9 l -9.3,-0.25 m 12.75,3 V 18.5 l -3.05,1.85 -0.1,0.65 -0.55,3.8 q 2.4,-1.75 4.45,-3.75 -0.6,-0.85 -0.75,-2.3 m 5.25,3.65 h -0.65 l -0.2,0.15 -1.2,0.95 -1.5,1.3 h 0.3 l 29.3,-1.05 1.3,-0.15 1.7,-1.2 H -3.7"
         fill="#000000"
         fill-rule="evenodd"
         stroke="none"
         id="path1" />
      <path
         d="m 6.75,-3.65 q 0.95,-0.8 2.3,-1.4 L 9.15,-5 q 0.75,0.35 2.05,0.5 l 0.6,2.4 0.25,2.05 -0.1,0.25 q -0.9,2.95 -2.1,4.2 H 9.8 L 8.35,5.15 7.25,6.05 6.4,5.25 Q 4.35,2.9 4.4,0.65 4.45,-1.8 6.75,-3.65"
         fill="#8e7575"
         fill-rule="evenodd"
         stroke="none"
         id="path2" />
      <path
         d="m -1.55,6.7 q -0.9,-0.35 -1.4,-1 l -0.9,-2.1 q -0.7,-2.8 -0.45,-5 l 0.8,-3.3 0.75,-1.9 q 0.75,-1.45 3,-3.4 l 3.25,-2.5 q 1.4,-0.75 3.25,-1.25 l 3.95,-0.6 h 2.25 l 0.4,0.1 0.3,0.1 -0.1,1.15 -0.25,0.9 -3.5,0.6 q -1.35,0.35 -3.85,1.55 L 5.6,-9.75 Q 2.1,-7.8 0.35,-5.5 l -0.55,0.85 -0.6,1.2 q -0.7,1.75 -0.8,4.75 0,2.25 0.35,3.3 L -0.6,6.05 -1.55,6.7 m 18.35,-20.25 0.15,-0.05 h 0.2 l 1.8,0.35 0.65,0.35 q 1.05,0.1 2.1,0.85 l 0.4,0.3 q 1.35,1.05 2.9,3.7 1.2,1.7 1.6,3.05 0.45,1.3 0.45,3.6 l -0.25,8.7 -0.45,2.35 -1.1,1.8 -2.4,2.8 q -1.6,1.5 -3.85,2.3 L 5.5,16.5 4.95,16.3 Q 1.55,14.85 0.05,12.1 L -0.5,10.4 1.45,9.05 q 1.5,1.85 3.1,2.9 1.05,0.75 2.2,1.05 l 3.8,0.35 6.7,-0.65 q 2.05,-0.65 3.7,-2.05 l 1.6,-1.7 q 1.2,-1.5 1.9,-3.2 L 25.2,2.9 q 0.4,-2.5 -0.05,-4.95 -0.85,-4.5 -4.1,-7.75 -1.7,-1.55 -3.35,-2.1 l -0.85,-0.25 H 16.8 16.7 l 0.1,-1.05 v -0.35 m -30.15,-22.6 -0.05,-0.55 0.35,-1.45 0.6,-1.2 1.1,-0.85 1.45,-0.6 1,0.2 1.2,0.25 1,0.6 q 0.45,0.6 0.15,2.2 -0.3,1.2 -0.8,1.55 -0.4,0.3 -1.05,0.3 h -1.15 l -1.55,0.2 -1.55,-0.1 q -0.6,-0.2 -0.7,-0.55 m 31.2,31.95 q 1.95,2.65 1.55,5.7 -0.4,3.25 -3.25,4.75 -0.95,0.5 -2.6,0.7 l 0.4,-0.45 q 1.2,-1.55 1.7,-3.5 0.6,-2.25 0.15,-4.55 v -1 Q 15.7,-4.8 14.55,-6.4 l 0.6,0.1 q 1.6,0.5 2.7,2.1"
         fill="#a17c7c"
         fill-rule="evenodd"
         stroke="none"
         id="path3" />
      <path
         d="m -21.7,15.75 9.3,0.25 q -1.05,0.65 -1.85,0.9 l -3.2,0.4 -3.2,0.1 -1.55,0.3 -1.55,0.2 -2.05,-0.15 -1.35,0.05 -1.3,0.1 3.75,-1.55 1.55,-0.7 1.45,0.1 m 18,6.65 h 29.05 l -1.7,1.2 -1.3,0.15 -29.3,1.05 h -0.3 l 1.5,-1.3 1.2,-0.95 0.2,-0.15 h 0.65"
         fill="#6b6b6b"
         fill-rule="evenodd"
         stroke="none"
         id="path4" />
      <path
         d="m 17.1,-17.35 0.45,-0.4 1.95,0.25 5.25,0.95 2.85,0.75 q 1.15,0.25 1.75,0.85 Q 30,-14.1 30,-12.45 30.2,-5 29.75,2.9 l -0.7,6.3 -0.75,3.7 q -0.3,2.15 0,3.65 H 19 q 2.25,-0.8 3.85,-2.3 l 2.4,-2.8 1.1,-1.8 0.45,-2.35 0.25,-8.7 q 0,-2.3 -0.45,-3.6 -0.4,-1.35 -1.6,-3.05 -1.55,-2.65 -2.9,-3.7 l -0.4,-0.3 q -1.05,-0.75 -2.1,-0.85 l -0.65,-0.35 -1.8,-0.35 h -0.2 l -0.15,0.05 0.05,-0.55 v -1.5 l 0.05,-0.45 0.2,-1.3 M -0.5,10.4 0.05,12.1 q 1.5,2.75 4.9,4.2 l 0.55,0.2 h -8.75 q 0.1,-2.25 -0.3,-3.7 l 0.05,-0.05 2.65,-2.1 0.35,-0.25 m -25.8,0.75 v 0.6 l -0.25,0.1 -1.8,0.7 Q -29,11.25 -29.1,9 q 0,-2.5 -0.15,-3.75 l -0.35,-2.6 0.15,-2.7 0.7,-5.9 q 0.2,-2.25 0.1,-3.05 v -1.45 l 0.9,-1.25 3.75,-3.05 q -2.05,12.85 -2.3,25.9 m 17.35,7.6 q 0.15,1.45 0.75,2.3 -2.05,2 -4.45,3.75 L -12.1,21 -12,20.35 -8.95,18.5 v 0.25"
         fill="#8c8c8c"
         fill-rule="evenodd"
         stroke="none"
         id="path5" />
      <path
         d="M -1.55,6.7 -6,9.5 -6.6,9.9 -7.2,9.8 q -1.15,-0.15 -3.25,0 l -9.9,-0.3 q -0.35,-3.25 0.45,-9.75 l 1.9,-15.7 q 5.05,-2.15 11.95,-2.6 4.25,-0.3 12.4,0.05 l 7.65,0.45 -0.35,2.1 0.05,1 -0.2,0.15 -0.55,0.45 H 10.7 l -3.95,0.6 Q 4.9,-13.25 3.5,-12.5 L 0.25,-10 q -2.25,1.95 -3,3.4 l -0.75,1.9 -0.8,3.3 q -0.25,2.2 0.45,5 l 0.9,2.1 q 0.5,0.65 1.4,1 M -10,3.6 q 0.6,0.5 1.4,0.6 L -7.15,4 Q -5.6,3.35 -5.5,1.65 -5.45,0.9 -5.85,0.2 l -1.1,-1.05 -1,-0.3 H -8.5 l -0.8,0.25 q -1.4,0.6 -1.65,2.05 Q -11.1,2.7 -10,3.6 m 0.4,-11.85 q 0.55,1.05 1.75,1.3 1.25,0.25 2.15,-0.45 0.85,-0.6 1.05,-1.45 0.35,-1.3 -0.35,-2.3 -0.7,-1.05 -2,-1.2 l -0.75,0.05 -0.95,0.35 -0.9,1 q -0.7,1.35 0,2.7"
         fill="#aaaaaa"
         fill-rule="evenodd"
         stroke="none"
         id="path6" />
    </g>
    <g
       id="sprite1"
       transform="translate(17.4,15.85)">
      <use
         ffdec:characterId="31"
         height="57.200001"
         transform="matrix(0.5366,0,0,0.5366,-16.6582,-14.546)"
         width="70.75"
         xlink:href="#sprite2"
         id="use6" />
    </g>
    <g
       id="sprite2"
       transform="translate(-8.65,-10.35)">
      <use
         ffdec:characterId="30"
         height="57.200001"
         transform="translate(8.65,10.35)"
         width="70.75"
         xlink:href="#shape1"
         id="use7" />
    </g>
    <g
       id="shape1"
       transform="translate(-8.65,-10.35)">
      <path
         d="m 14.8,41.7 q 0.65,-1.75 2.65,-2.5 1.8,-0.8 3.7,-0.25 1.15,0.45 2.25,1.2 l 0.9,0.4 q 1.65,0.9 2.85,2.5 L 37.8,30.1 q 2.35,-2.8 3.75,-3.95 1.5,-1.15 4.25,-2.4 18.2,-8.85 27.65,-12.6 2.15,-0.8 3.25,-0.8 h 0.8 l 1.9,2.4 -0.2,0.8 q -0.2,1.1 -1.55,3 -5.85,8.25 -18.85,23.8 -1.85,2.35 -3.35,3.5 -1.4,1.15 -4.75,2.75 l -15.15,7.15 q 1.2,1.6 1.75,3.4 l 0.2,1 0.55,2.5 q 0.1,1.95 -1.1,3.55 -1.2,1.65 -3.05,1.9 l -1.3,0.05 q -1.65,0.2 -3.45,-0.65 -1.85,-0.9 -3,-2.6 L 25,60.95 23.8,62.1 q -2.6,2.85 -4.3,3.95 -2.85,1.8 -5.5,1.45 l -1.65,-0.5 -1.2,-0.7 -0.2,-0.2 q -1,-0.85 -1.6,-1.9 L 9.25,64 9.15,63.8 8.75,62.4 q -0.2,-0.8 -0.05,-1.7 0.25,-2.65 2.7,-5.05 1.5,-1.3 4.9,-3.15 L 17.7,51.55 16.05,50 q -1.35,-1.5 -1.8,-3.6 -0.4,-1.85 0.25,-3.45 l 0.3,-1.25"
         fill="#000000"
         fill-opacity="0.372549"
         fill-rule="evenodd"
         stroke="none"
         id="path7" />
    </g>
  </defs>
</svg>
