<?xml version="1.0" encoding="UTF-8" standalone="no"?>
<svg
   ffdec:objectType="frame"
   height="77.087212"
   width="77.072685"
   version="1.1"
   id="svg5"
   sodipodi:docname="ITEM Soul Jar.svg"
   xmlns:inkscape="http://www.inkscape.org/namespaces/inkscape"
   xmlns:sodipodi="http://sodipodi.sourceforge.net/DTD/sodipodi-0.dtd"
   xmlns:xlink="http://www.w3.org/1999/xlink"
   xmlns="http://www.w3.org/2000/svg"
   xmlns:svg="http://www.w3.org/2000/svg"
   xmlns:ffdec="https://www.free-decompiler.com/flash">
  <sodipodi:namedview
     id="namedview5"
     pagecolor="#ffffff"
     bordercolor="#000000"
     borderopacity="0.25"
     inkscape:showpageshadow="2"
     inkscape:pageopacity="0.0"
     inkscape:pagecheckerboard="0"
     inkscape:deskcolor="#d1d1d1"
     fit-margin-top="5"
     fit-margin-left="5"
     fit-margin-right="5"
     fit-margin-bottom="5" />
  <g
     transform="translate(38.859524,36.7)"
     id="g1">
    <use
       ffdec:characterId="17"
       height="119.15"
       id="rarity"
       transform="translate(-58.5,-60.65)"
       width="119.15"
       xlink:href="#sprite0" />
    <use
       ffdec:characterId="244"
       height="77.199997"
       transform="translate(-38.85,-36.8)"
       width="77.050003"
       xlink:href="#shape0"
       id="use1" />
  </g>
  <defs
     id="defs5">
    <g
       id="shape0"
       transform="translate(38.55,39.3)">
      <path
         d="m -14.6,-18.95 1.45,-0.15 1.8,0.1 5.35,-0.15 q 7.5,-0.7 12.75,-2.9 3.55,-1.45 6.05,-3.75 l -0.05,-0.25 0.05,-2.7 Q 13,-31.1 11.85,-32.1 l -1.8,-0.75 Q 2.5,-34.6 -5.4,-33.1 q -7.85,1.5 -14.25,5.9 l -1.1,0.9 h 0.05 q 6.1,0.35 11,0.2 l 4.2,-0.15 2.7,-0.3 3.05,-0.65 1.3,-0.4 1.25,-0.1 2.6,-0.45 0.1,0.25 -0.1,0.3 -0.55,0.25 -4.6,1.65 q -1.05,0.4 -2.9,0.85 -2.25,0.6 -5,1.1 -6.45,1.15 -13.6,1.15 l 0.15,0.4 q 0.95,2.3 1,3.1 v 0.5 q -0.1,1.1 -0.85,2.25 l -0.15,0.25 -1.85,2.05 q -4.8,5.05 -7.2,9.75 l -0.7,1.55 -0.55,1.4 q -2.35,6.4 -0.7,12.1 l 0.45,1.4 1.9,3.7 q 2.7,4.2 8.05,8.4 3.7,2.95 7.2,4.9 l 3.25,0.35 q 3.85,0.25 9.5,-0.2 8.85,-0.75 14.2,-2.5 l 5.15,-2.1 1.6,-0.75 q 4.15,-3.4 7.5,-7.9 2.55,-3.45 4.2,-7 1.45,-3.3 2.15,-6.6 l 0.2,-1.3 Q 33.9,-3 33.2,-7.05 32.7,-9.75 31.7,-12.1 l -1.4,-2.55 -0.7,-1.05 q -2.05,-2.85 -5,-4.75 -3.65,-2.35 -7.7,-2.65 l -0.8,-0.05 -0.65,0.5 q -5.7,4.6 -13.15,6.1 -6.5,1.25 -12.6,-0.15 l -1.9,-0.55 -2.25,-0.55 -0.7,-0.2 q -0.4,-0.2 -0.25,-0.55 l 0.4,-0.3 0.4,-0.1 m -23.9,27.1 q -0.25,-5.2 0.55,-8.75 1,-4.55 4.1,-9.15 2.4,-3.55 6.55,-7.8 1.1,-1 1.25,-1.85 0.25,-0.75 -0.4,-2.45 -1.3,-3.25 -0.9,-5.05 0.5,-2.2 3.95,-4.55 10.9,-7.1 20.95,-7.75 l 9.95,0.5 q 5.2,0.75 7.7,2.65 1.7,1.3 2.5,3.25 0.85,2.05 0.2,3.9 7.6,1.5 13.35,7 5.9,5.7 7,13.1 0.5,3.3 0.05,8.1 -0.95,10.75 -5.45,17.55 -2.25,3.4 -6.75,7.7 -7.3,6.9 -13,9.8 -7.75,3.9 -16.75,3.5 -9,-0.45 -16.35,-5.05 -4.4,-2.8 -11.45,-9.85 -3.85,-3.85 -5.15,-6.4 -1.65,-3.2 -1.9,-8.4 M 9.35,0.65 8.95,2.25 Q 8.1,3.9 6.65,4.05 5.25,4.2 3.2,2.35 l -1.05,-1.3 -0.2,-1.3 q 0,-1.3 0.4,-2.05 L 2.4,-2.4 q 0.55,-1.1 1.9,-1.45 1.1,-0.35 2.4,0 1.5,0.35 2.05,1.2 0.45,0.6 0.55,1.9 l 0.05,1.4 M -2.8,-2.8 l 0.9,0.6 1.6,1.55 q 0.8,1.35 0,3.2 -0.95,2.2 -3.2,2.9 -1.4,0.4 -2.6,0 Q -7.2,5 -7.85,3.85 l -0.1,-0.2 q -0.5,-1 -0.55,-2.2 0,-2.1 1.05,-3.45 1.4,-1.65 3.25,-1.35 l 1.4,0.55 m -4.35,9.95 q 1.3,1.05 1.05,2.85 -0.25,1.75 -1.85,2.4 l -3,-0.1 Q -12.2,11.85 -12.55,10.9 -13,10.05 -12.6,8.6 -12.2,7.05 -11.5,6.55 -10.6,5.9 -9,6.3 -7.85,6.55 -7.15,7.15 M -4.35,17.5 -5.1,15.3 Q -5.4,12.65 -3.7,9.95 -1.95,7.2 0.45,6.65 L 2.1,6.45 q 4.1,-0.2 6.25,1.1 l 1.75,1.35 1.4,1.55 q 0.6,1.05 0.5,2.7 l -0.25,1.75 q -0.55,2.25 -2,4.15 l -2.1,2 q -1.15,0.7 -2.55,0.9 l -0.95,0.1 h -1.3 q -2.2,-0.2 -4.15,-1.4 -1.5,-0.9 -2.5,-2.3 L -4.35,17.5 M -1.3,32.7 Q 2.5,32.55 7.25,30.75 L 11,29.15 9.2,29.6 Q 2.05,31.15 -7.35,31 l -3.5,-0.1 q 4.95,2 9.55,1.8 M 14.1,0.4 15.35,1.15 q 0.55,0.65 0.7,1.45 0.4,1.9 -0.95,2.7 L 13.9,5.65 12.5,5.5 q -0.95,-0.35 -1.4,-1.35 -0.5,-1 -0.2,-1.95 0.3,-0.95 1.25,-1.5 1,-0.55 1.95,-0.3"
         fill="#000000"
         fill-rule="evenodd"
         stroke="none"
         id="path1" />
      <path
         d="m -20.1,-18.6 v -0.5 q -0.05,-0.8 -1,-3.1 l -0.15,-0.4 q 7.15,0 13.6,-1.15 2.75,-0.5 5,-1.1 1.85,-0.45 2.9,-0.85 l 4.6,-1.65 0.55,-0.25 0.1,-0.3 -0.1,-0.25 -2.6,0.45 -1.25,0.1 -1.3,0.4 -3.05,0.65 -2.7,0.3 -4.2,0.15 q -4.9,0.15 -11,-0.2 h -0.05 l 1.1,-0.9 q 6.4,-4.4 14.25,-5.9 7.9,-1.5 15.45,0.25 l 1.8,0.75 q 1.15,1 0.95,3.35 l -0.05,2.7 0.05,0.25 q -2.5,2.3 -6.05,3.75 -5.25,2.2 -12.75,2.9 l -5.35,0.15 -1.8,-0.1 -1.45,0.15 -2.7,0.05 -2.8,0.3 m 18.8,51.3 q -4.6,0.2 -9.55,-1.8 l 3.5,0.1 Q 2.05,31.15 9.2,29.6 L 11,29.15 7.25,30.75 Q 2.5,32.55 -1.3,32.7"
         fill="#949494"
         fill-rule="evenodd"
         stroke="none"
         id="path2" />
      <path
         d="m -20.1,-18.6 2.8,-0.3 2.7,-0.05 -0.4,0.1 -0.4,0.3 q -0.15,0.35 0.25,0.55 l 0.7,0.2 2.25,0.55 1.9,0.55 q 6.1,1.4 12.6,0.15 7.45,-1.5 13.15,-6.1 l 0.65,-0.5 0.8,0.05 q 4.05,0.3 7.7,2.65 2.95,1.9 5,4.75 l 0.7,1.05 1.4,2.55 q -3.1,3.8 -7.15,6.35 -2.65,1.65 -7.25,3.6 -4.05,1.6 -7.95,2.8 L 9.3,-0.75 Q 9.2,-2.05 8.75,-2.65 8.2,-3.5 6.7,-3.85 5.4,-4.2 4.3,-3.85 2.95,-3.5 2.4,-2.4 L 2.35,-2.3 2.15,-3.15 Q 1.85,-4.4 1.4,-5.05 0.6,-6.1 -0.8,-5.95 q -1.4,0.25 -1.9,1.5 -0.3,0.7 -0.1,1.65 l -1.4,-0.55 q -1.85,-0.3 -3.25,1.35 -1.05,1.35 -1.05,3.45 0.05,1.2 0.55,2.2 -13.15,0.45 -23.45,-5 l 0.55,-1.4 0.7,-1.55 q 2.4,-4.7 7.2,-9.75 l 1.85,-2.05 0.15,-0.25 q 0.75,-1.15 0.85,-2.25 M 33.05,2.45 q -0.7,3.3 -2.15,6.6 -1.65,3.55 -4.2,7 -3.35,4.5 -7.5,7.9 l -1.6,0.75 -5.15,2.1 q -5.35,1.75 -14.2,2.5 -5.65,0.45 -9.5,0.2 l -3.25,-0.35 q -3.5,-1.95 -7.2,-4.9 -5.35,-4.2 -8.05,-8.4 l -1.9,-3.7 12.95,3.7 5.7,1.35 6,0.3 h 2.65 l 0.55,0.85 q 1,1.4 2.5,2.3 1.95,1.2 4.15,1.4 h 1.3 l 0.95,-0.1 q 1.4,-0.2 2.55,-0.9 l 2.1,-2 q 1.45,-1.9 2,-4.15 5.4,-1.95 9.35,-4 6.25,-3.2 10.45,-7.3 0.8,-0.8 1.5,-1.15"
         fill="#6985aa"
         fill-opacity="0.74902"
         fill-rule="evenodd"
         stroke="none"
         id="path3" />
      <path
         d="m 31.7,-12.1 q 1,2.35 1.5,5.05 0.7,4.05 0.05,8.2 l -0.2,1.3 q -0.7,0.35 -1.5,1.15 -4.2,4.1 -10.45,7.3 -3.95,2.05 -9.35,4 L 12,13.15 q 0.1,-1.65 -0.5,-2.7 L 10.1,8.9 8.35,7.55 Q 6.2,6.25 2.1,6.45 l -1.65,0.2 q -2.4,0.55 -4.15,3.3 -1.7,2.7 -1.4,5.35 l 0.75,2.2 H -7 l -6,-0.3 -5.7,-1.35 -12.95,-3.7 -0.45,-1.4 q -1.65,-5.7 0.7,-12.1 10.3,5.45 23.45,5 l 0.1,0.2 q 0.65,1.15 1.75,1.6 1.2,0.4 2.6,0 2.25,-0.7 3.2,-2.9 0.8,-1.85 0,-3.2 L -1.9,-2.2 -2.8,-2.8 q -0.2,-0.95 0.1,-1.65 0.5,-1.25 1.9,-1.5 1.4,-0.15 2.2,0.9 0.45,0.65 0.75,1.9 l 0.2,0.85 q -0.4,0.75 -0.4,2.05 l 0.2,1.3 1.05,1.3 Q 5.25,4.2 6.65,4.05 8.1,3.9 8.95,2.25 l 0.4,-1.6 q 3.9,-1.2 7.95,-2.8 4.6,-1.95 7.25,-3.6 4.05,-2.55 7.15,-6.35 M -7.15,7.15 Q -7.85,6.55 -9,6.3 q -1.6,-0.4 -2.5,0.25 -0.7,0.5 -1.1,2.05 -0.4,1.45 0.05,2.3 0.35,0.95 1.6,1.4 l 3,0.1 Q -6.35,11.75 -6.1,10 -5.85,8.2 -7.15,7.15 M 14.1,0.4 Q 13.15,0.15 12.15,0.7 11.2,1.25 10.9,2.2 q -0.3,0.95 0.2,1.95 0.45,1 1.4,1.35 L 13.9,5.65 15.1,5.3 Q 16.45,4.5 16.05,2.6 15.9,1.8 15.35,1.15 L 14.1,0.4"
         fill="#b2bdcb"
         fill-opacity="0.74902"
         fill-rule="evenodd"
         stroke="none"
         id="path4" />
    </g>
    <g
       id="sprite1"
       transform="translate(17.4,15.85)">
      <use
         ffdec:characterId="31"
         height="57.200001"
         transform="matrix(0.5366,0,0,0.5366,-16.6582,-14.546)"
         width="70.75"
         xlink:href="#sprite2"
         id="use4" />
    </g>
    <g
       id="sprite2"
       transform="translate(-8.65,-10.35)">
      <use
         ffdec:characterId="30"
         height="57.200001"
         transform="translate(8.65,10.35)"
         width="70.75"
         xlink:href="#shape1"
         id="use5" />
    </g>
    <g
       id="shape1"
       transform="translate(-8.65,-10.35)">
      <path
         d="m 14.8,41.7 q 0.65,-1.75 2.65,-2.5 1.8,-0.8 3.7,-0.25 1.15,0.45 2.25,1.2 l 0.9,0.4 q 1.65,0.9 2.85,2.5 L 37.8,30.1 q 2.35,-2.8 3.75,-3.95 1.5,-1.15 4.25,-2.4 18.2,-8.85 27.65,-12.6 2.15,-0.8 3.25,-0.8 h 0.8 l 1.9,2.4 -0.2,0.8 q -0.2,1.1 -1.55,3 -5.85,8.25 -18.85,23.8 -1.85,2.35 -3.35,3.5 -1.4,1.15 -4.75,2.75 l -15.15,7.15 q 1.2,1.6 1.75,3.4 l 0.2,1 0.55,2.5 q 0.1,1.95 -1.1,3.55 -1.2,1.65 -3.05,1.9 l -1.3,0.05 q -1.65,0.2 -3.45,-0.65 -1.85,-0.9 -3,-2.6 L 25,60.95 23.8,62.1 q -2.6,2.85 -4.3,3.95 -2.85,1.8 -5.5,1.45 l -1.65,-0.5 -1.2,-0.7 -0.2,-0.2 q -1,-0.85 -1.6,-1.9 L 9.25,64 9.15,63.8 8.75,62.4 q -0.2,-0.8 -0.05,-1.7 0.25,-2.65 2.7,-5.05 1.5,-1.3 4.9,-3.15 L 17.7,51.55 16.05,50 q -1.35,-1.5 -1.8,-3.6 -0.4,-1.85 0.25,-3.45 l 0.3,-1.25"
         fill="#000000"
         fill-opacity="0.372549"
         fill-rule="evenodd"
         stroke="none"
         id="path5" />
    </g>
  </defs>
</svg>
