<?xml version="1.0" encoding="UTF-8" standalone="no"?>
<svg
   ffdec:objectType="frame"
   height="81.25"
   width="83.150002"
   version="1.1"
   id="svg5"
   sodipodi:docname="ITEM The bOx 2.svg"
   xmlns:inkscape="http://www.inkscape.org/namespaces/inkscape"
   xmlns:sodipodi="http://sodipodi.sourceforge.net/DTD/sodipodi-0.dtd"
   xmlns:xlink="http://www.w3.org/1999/xlink"
   xmlns="http://www.w3.org/2000/svg"
   xmlns:svg="http://www.w3.org/2000/svg"
   xmlns:ffdec="https://www.free-decompiler.com/flash">
  <sodipodi:namedview
     id="namedview5"
     pagecolor="#ffffff"
     bordercolor="#000000"
     borderopacity="0.25"
     inkscape:showpageshadow="2"
     inkscape:pageopacity="0.0"
     inkscape:pagecheckerboard="0"
     inkscape:deskcolor="#d1d1d1"
     fit-margin-top="5"
     fit-margin-left="5"
     fit-margin-right="5"
     fit-margin-bottom="5" />
  <g
     transform="translate(42.45,36.55)"
     id="g1">
    <use
       ffdec:characterId="17"
       height="119.15"
       id="rarity"
       transform="translate(-58.5,-60.65)"
       width="119.15"
       xlink:href="#sprite0" />
    <use
       ffdec:characterId="408"
       height="81.25"
       transform="translate(-42.45,-36.55)"
       width="83.150002"
       xlink:href="#shape0"
       id="use1" />
  </g>
  <defs
     id="defs5">
    <g
       id="shape0"
       transform="translate(42.15,39.05)">
      <path
         d="m 4.45,-39.05 11.45,1.15 q 9.2,1.9 15.2,6 3.4,2.7 5.75,6 2.5,3.7 3.4,7.8 0.5,2.55 0.6,8.35 L 41,26.7 q -0.2,1.7 -0.65,2.35 l -1.8,0.65 q -9,1.4 -21.25,5.4 l -20.9,6.5 -3,0.6 q -1.3,-0.25 -3.4,-1.3 -4,-2.1 -12,-5.4 l -12,-5.4 q -2.45,-1.35 -3.45,-2.55 -0.8,-1.2 -1.35,-3.85 -2.8,-14.65 -3.35,-34.1 l 0.05,-4.15 -0.05,-0.1 0.05,-0.9 0.25,-1.75 0.5,-2 q 0.1,-0.1 0.05,-0.4 0.55,-1.75 1.5,-3.25 1.7,-2.4 6.25,-5 13.3,-7.05 26,-9.25 l 12,-1.85 m 27.6,18.65 q -0.9,-2.9 -2.35,-5.45 l -2.3,-3.45 q -6.15,-3.8 -15.1,-5 l -6.6,-0.45 -4.2,0.3 6.1,1.95 q 7.6,3.25 11.8,11.15 1.95,3.55 3.05,7.95 0.9,3.85 1.15,8.35 4.8,-1.85 8.8,-2.9 0.9,-4.45 0.35,-9.3 l -0.7,-3.15 m 5.1,8.8 q -0.25,-5.15 -0.9,-7.45 l -1.45,-3 q 1.9,6.45 0.95,13.75 -0.25,1.65 -0.7,2.35 Q 34.2,-4.8 31.7,-4 l -8.2,2.6 -2.4,0.05 Q 20.4,-1.7 20.3,-3.6 19.95,-12.75 16.55,-19.25 12.45,-27 5.15,-29.95 l -4.2,-1.6 -5.7,-1.8 -2.75,0.6 q 7,1.35 10.45,3.35 L 8,-25.75 q 2.85,2.35 4.05,4.1 1,1.5 2.2,4.65 2.6,7.3 3.55,15.65 0.15,2.2 -0.5,3.15 -0.65,0.85 -2.5,1.5 L 2.8,7.7 0.75,7.9 Q -0.45,7.35 -0.4,4.6 0,-2.35 -1.2,-7.5 q -1.5,-6.4 -5.55,-11 -3.9,-4.5 -10,-6.6 l -3.9,-0.95 0.55,0.15 q 4.2,1.4 7.2,4 2.75,2.35 4.9,5.7 6.35,10.15 5.55,26.3 l -0.2,3.2 q 7.7,-2.85 11.4,-3.95 l 4.85,-1.5 5.25,-2 Q 30.7,0.65 35.9,-1.35 l 1.5,-0.6 -0.25,-9.65 m -24.85,-1.5 -0.75,-2.2 q -2.3,-6 -7.8,-9.8 -5.4,-3.85 -12.15,-4.9 l -2.95,-0.4 -2.85,-0.6 h -0.15 l -5.8,1.9 3.25,0.6 q 2.35,0.7 5.95,3 4.4,2.65 6.05,4.35 1.65,1.65 3.15,4.1 2.4,4.1 3.5,9.1 1.2,5.55 0.8,12.2 5.7,-1.45 12.2,-4.15 0,-2.6 -0.6,-5.8 l -1.4,-5.7 -0.45,-1.7 M -3.65,37.65 38.05,25.35 37.45,2 Q 37.4,1.95 37.3,2.05 l -16.6,6.75 -8.3,3 -15,4.55 -0.4,0.15 -0.9,7.15 Q -5,32.45 -5.25,37.2 v 0.75 l 1.6,-0.3 m 17.15,-23 q 0.7,0.5 0.95,1.95 0.25,2.1 0.45,2.4 6.25,-1.3 11.85,-4.25 l -0.4,-3.05 q -0.2,-0.9 0.15,-1.25 L 27.2,9.9 33.15,6.7 Q 34.4,6.1 35,6.5 q 0.6,0.3 0.6,1.6 l 0.5,13.4 q 0.15,1.45 -0.35,2.3 l -1.65,1.05 -6.15,1.85 -13.9,3.5 q -7.85,2.25 -13.3,4.85 -1.6,1 -2.6,0.2 l -0.45,-1.4 0.1,-4.05 0.8,-8.75 0.65,-2 1.55,-1 8.9,-3.4 q 2.6,-0.9 3.8,0 M 19.05,13.9 Q 18.6,13.65 18.5,12.95 18.35,11.6 19.4,10.6 q 0.95,-0.9 2.45,-0.85 1.3,-0.1 1.8,0.95 0.35,0.65 0.1,1.5 l -0.25,0.6 q 0.9,0.45 0.95,1.25 0.15,0.75 -0.7,1.3 l -1.4,0.7 -2.15,0.3 -0.6,-0.6 Q 19.25,15.2 19.5,14.8 l 0.35,-0.55 -0.8,-0.35 m -3.75,7.7 -2.2,-0.15 q -0.5,-0.55 -0.8,-1.5 l -0.6,-2.9 -10.35,3.8 -0.5,6.85 -0.5,4.7 q 4.8,-2 9.35,-3.25 L 13.75,27.9 Q 15.8,27.15 22,25.8 l 8.25,-2.3 2.4,-0.8 0.7,-0.5 Q 33.7,21.75 33.65,20.85 33,14.8 33.1,9.3 l -4.25,2.05 0.3,2.05 v 1.95 q -0.3,1.15 -2.4,2.25 -5.4,2.8 -11.45,4 M -33.1,0 l -1.75,-1.6 -0.85,-0.55 -0.6,-0.6 -0.35,-1.7 q -0.05,-4.55 0.3,-6.7 0.85,-3.6 2.9,-5.75 0.9,-1 3.2,-2.2 l 3.15,-1.3 3.65,0.2 q 2.85,0.65 5.35,2.15 2.6,1.55 4.4,3.75 2.4,2.85 3.65,7.1 0.9,3.15 1.4,7.9 0.75,5.15 0.1,7.9 -0.2,0.9 -0.55,1.15 h -1.2 L -16.6,8.4 -19.75,7.55 -22.75,6 -30.75,1.45 -33.1,0 m 20.35,-7.05 -1.2,-2.6 -1.7,-2.35 -2.5,-2.65 q -0.85,-0.55 -2.45,-1.3 -1.4,-0.75 -2.35,-0.9 -2.1,-0.5 -5.4,1 -2.1,1.15 -2.95,2.1 l -1.15,2.55 -0.2,0.5 q -0.5,2.45 -0.6,4.9 l 0.1,0.9 0.75,0.95 2.25,2 q 0.65,0.6 3.5,2.05 2.65,1.1 5.75,3.2 l 1.9,1.1 4.1,1 q 2.7,0.4 4,1 h 0.5 V 6.05 Q -11.1,-2 -12.55,-6.45 l -0.2,-0.6 m -25.05,-5.5 0.3,8.7 0.2,3.4 q 1.05,0.3 2.5,1.4 2.4,1.55 3.6,2.1 2.9,1.2 3.05,1.35 l 2.4,1.5 3.7,1.85 q 9.25,4 14.5,5.35 1.3,0.35 1.85,0.65 v -0.5 Q -4.6,-1.2 -8.9,-11 q -1.25,-2.8 -2.85,-4.8 -2.45,-3.3 -6.45,-5.4 -3.8,-1.9 -8,-2.15 -4.05,0.1 -7.65,2.05 l -2.7,2.05 q -1.05,2.35 -1.25,6.7 m 8.35,36.2 q 2.05,0.9 2.95,1.4 l 1.35,0.8 1.75,0.35 1.85,0.5 8.95,2.25 0.2,-4.2 q 0.4,-2.8 0.45,-4.2 l -7.65,-2.1 -1.45,-0.45 -1.6,-0.7 q -0.5,-0.4 -1.6,-0.6 l -1.5,-0.55 -3.3,-1.15 -3,-1.7 0.15,1.8 0.3,1.85 0.5,1.9 0.1,1.45 v 1.5 l 0.45,1.15 1.1,0.7 m -5.9,-12.2 Q -35.4,9.6 -34.6,9.1 l 1.5,0.05 2.1,0.95 1.95,1.3 q 1.8,0.95 5.45,2.3 l 3.95,1.45 8.2,2.35 q 1.5,0.25 1.85,0.85 0.45,0.45 0.3,1.9 L -10.75,32 q -0.15,0.65 -0.45,0.9 L -12.25,32.7 -14,31.9 q -1.15,-0.6 -4.7,-1.45 l -6.65,-1.65 q -0.9,-0.3 -2.6,-1.2 l -2.6,-1.2 q -1.65,-0.95 -2.3,-1.5 -0.75,-1.1 -1.1,-2.65 0.05,-1.65 -0.25,-2.5 l -0.55,-1.75 -0.3,-2.05 -0.3,-4.5 m -1.25,-2.4 q 0.7,7.3 1.8,12.95 0.45,2.1 1.1,3 0.7,0.85 2.85,1.9 l 21.8,10.2 1.2,0.45 L -7,25.6 -6.1,17.3 -7.3,17.1 q -5.5,-1.7 -15.35,-5.85 l -3.8,-1.8 Q -27.6,8.75 -30.15,7.4 L -33.2,6 l -3.05,-2.05 -0.8,-0.6 0.45,5.7"
         fill="#000000"
         fill-rule="evenodd"
         stroke="none"
         id="path1" />
      <path
         d="m 22.45,-13.4 q -1.1,-4.4 -3.05,-7.95 -4.2,-7.9 -11.8,-11.15 l -6.1,-1.95 4.2,-0.3 6.6,0.45 q 8.95,1.2 15.1,5 l 2.3,3.45 q 1.45,2.55 2.35,5.45 L 32,-20.2 q -0.2,2.7 -1.65,4.85 -1.3,2.1 -3.15,2.7 -2.1,0.6 -4.75,-0.75 m -20.7,5.45 q -1.1,-5 -3.5,-9.1 -1.5,-2.45 -3.15,-4.1 -1.65,-1.7 -6.05,-4.35 -3.6,-2.3 -5.95,-3 l -3.25,-0.6 5.8,-1.9 h 0.15 l 2.85,0.6 2.95,0.4 q 6.75,1.05 12.15,4.9 5.5,3.8 7.8,9.8 l 0.75,2.2 -0.1,1.65 q -0.35,2.75 -2.35,4.25 -1.35,1 -3.3,1 -1.8,0 -3.4,-0.85 l -1.4,-0.9 m -34.2,-3.25 1.15,-2.55 q 0.85,-0.95 2.95,-2.1 3.3,-1.5 5.4,-1 0.95,0.15 2.35,0.9 1.6,0.75 2.45,1.3 l 2.5,2.65 1.7,2.35 1.2,2.6 -0.05,0.05 q -0.45,0.8 -1.25,1.2 l -3.4,0.1 -4.4,-0.4 -3.05,-0.95 q -4.25,-1.5 -6.1,-2.85 l -1.45,-1.3"
         fill="#6e5f5b"
         fill-rule="evenodd"
         stroke="none"
         id="path2" />
      <path
         d="m 22.45,-13.4 q 2.65,1.35 4.75,0.75 1.85,-0.6 3.15,-2.7 1.45,-2.15 1.65,-4.85 l 0.05,-0.2 0.7,3.15 q 0.55,4.85 -0.35,9.3 -4,1.05 -8.8,2.9 -0.25,-4.5 -1.15,-8.35 m -20.7,5.45 1.4,0.9 q 1.6,0.85 3.4,0.85 1.95,0 3.3,-1 2,-1.5 2.35,-4.25 l 0.1,-1.65 0.45,1.7 1.4,5.7 q 0.6,3.2 0.6,5.8 -6.5,2.7 -12.2,4.15 0.4,-6.65 -0.8,-12.2 M 15.3,21.6 q 6.05,-1.2 11.45,-4 2.1,-1.1 2.4,-2.25 V 13.4 L 28.85,11.35 33.1,9.3 q -0.1,5.5 0.55,11.55 0.05,0.9 -0.3,1.35 l -0.7,0.5 -2.4,0.8 -8.25,2.3 q -6.2,1.35 -8.25,2.1 L 9.7,29.15 Q 5.15,30.4 0.35,32.4 l 0.5,-4.7 0.5,-6.85 10.35,-3.8 0.6,2.9 q 0.3,0.95 0.8,1.5 l 2.2,0.15 m -47.75,-32.8 1.45,1.3 q 1.85,1.35 6.1,2.85 l 3.05,0.95 4.4,0.4 3.4,-0.1 q 0.8,-0.4 1.25,-1.2 l 0.05,-0.05 0.2,0.6 Q -11.1,-2 -10.4,6.05 V 6.4 h -0.5 q -1.3,-0.6 -4,-1 l -4.1,-1 -1.9,-1.1 q -3.1,-2.1 -5.75,-3.2 -2.85,-1.45 -3.5,-2.05 l -2.25,-2 -0.75,-0.95 -0.1,-0.9 q 0.1,-2.45 0.6,-4.9 l 0.2,-0.5 m 3,34.85 -1.1,-0.7 L -31,21.8 v -1.5 l -0.1,-1.45 -0.5,-1.9 -0.3,-1.85 -0.15,-1.8 3,1.7 3.3,1.15 1.5,0.55 q 1.1,0.2 1.6,0.6 l 1.6,0.7 1.45,0.45 7.65,2.1 q -0.05,1.4 -0.45,4.2 l -0.2,4.2 -8.95,-2.25 -1.85,-0.5 -1.75,-0.35 -1.35,-0.8 q -0.9,-0.5 -2.95,-1.4"
         fill="#584c49"
         fill-rule="evenodd"
         stroke="none"
         id="path3" />
      <path
         d="m 37.15,-11.6 0.25,9.65 -1.5,0.6 q -5.2,2 -17.05,7.2 l -5.25,2 -4.85,1.5 q -3.7,1.1 -11.4,3.95 l 0.2,-3.2 q 0.8,-16.15 -5.55,-26.3 -2.15,-3.35 -4.9,-5.7 -3,-2.6 -7.2,-4 l -0.55,-0.15 3.9,0.95 q 6.1,2.1 10,6.6 4.05,4.6 5.55,11 1.2,5.15 0.8,12.1 -0.05,2.75 1.15,3.3 L 2.8,7.7 14.8,3.3 Q 16.65,2.65 17.3,1.8 17.95,0.85 17.8,-1.35 16.85,-9.7 14.25,-17 q -1.2,-3.15 -2.2,-4.65 -1.2,-1.75 -4.05,-4.1 L 2.95,-29.4 q -3.45,-2 -10.45,-3.35 l 2.75,-0.6 5.7,1.8 4.2,1.6 q 7.3,2.95 11.4,10.7 3.4,6.5 3.75,15.65 0.1,1.9 0.8,2.25 L 23.5,-1.4 31.7,-4 q 2.5,-0.8 3.35,-1.95 0.45,-0.7 0.7,-2.35 0.95,-7.3 -0.95,-13.75 l 1.45,3 q 0.65,2.3 0.9,7.45 m -18.1,25.5 0.8,0.35 -0.35,0.55 q -0.25,0.4 0.1,0.95 l 0.6,0.6 2.15,-0.3 1.4,-0.7 q 0.85,-0.55 0.7,-1.3 -0.05,-0.8 -0.95,-1.25 l 0.25,-0.6 Q 24,11.35 23.65,10.7 23.15,9.65 21.85,9.75 20.35,9.7 19.4,10.6 q -1.05,1 -0.9,2.35 0.1,0.7 0.55,0.95 m -5.55,0.75 q -1.2,-0.9 -3.8,0 l -8.9,3.4 -1.55,1 -0.65,2 -0.8,8.75 -0.1,4.05 0.45,1.4 q 1,0.8 2.6,-0.2 5.45,-2.6 13.3,-4.85 l 13.9,-3.5 6.15,-1.85 1.65,-1.05 q 0.5,-0.85 0.35,-2.3 L 35.6,8.1 Q 35.6,6.8 35,6.5 34.4,6.1 33.15,6.7 l -5.95,3.2 -0.7,0.55 q -0.35,0.35 -0.15,1.25 l 0.4,3.05 Q 21.15,17.7 14.9,19 14.7,18.7 14.45,16.6 14.2,15.15 13.5,14.65 m -17.15,23 -1.6,0.3 V 37.2 Q -5,32.45 -3.9,23.65 l 0.9,-7.15 0.4,-0.15 15,-4.55 8.3,-3 16.6,-6.75 Q 37.4,1.95 37.45,2 l 0.6,23.35 -41.7,12.3 M -33.1,0 l 2.35,1.45 8,4.55 3,1.55 3.15,0.85 6.3,1.35 h 1.2 Q -8.75,9.5 -8.55,8.6 -7.9,5.85 -8.65,0.7 q -0.5,-4.75 -1.4,-7.9 -1.25,-4.25 -3.65,-7.1 -1.8,-2.2 -4.4,-3.75 -2.5,-1.5 -5.35,-2.15 l -3.65,-0.2 -3.15,1.3 q -2.3,1.2 -3.2,2.2 -2.05,2.15 -2.9,5.75 -0.35,2.15 -0.3,6.7 l 0.35,1.7 0.6,0.6 0.85,0.55 1.75,1.6 m -4.7,-12.55 q 0.2,-4.35 1.25,-6.7 l 2.7,-2.05 q 3.6,-1.95 7.65,-2.05 4.2,0.25 8,2.15 4,2.1 6.45,5.4 1.6,2 2.85,4.8 4.3,9.8 3.2,24.25 v 0.5 q -0.55,-0.3 -1.85,-0.65 -5.25,-1.35 -14.5,-5.35 l -3.7,-1.85 -2.4,-1.5 q -0.15,-0.15 -3.05,-1.35 -1.2,-0.55 -3.6,-2.1 -1.45,-1.1 -2.5,-1.4 l -0.2,-3.4 -0.3,-8.7 m 1.2,21.6 -0.45,-5.7 0.8,0.6 3.05,2.05 3.05,1.4 q 2.55,1.35 3.7,2.05 l 3.8,1.8 q 9.85,4.15 15.35,5.85 l 1.2,0.2 -0.9,8.3 -0.85,11.95 -1.2,-0.45 -21.8,-10.2 Q -33,25.85 -33.7,25 q -0.65,-0.9 -1.1,-3 -1.1,-5.65 -1.8,-12.95 m 1.25,2.4 0.3,4.5 0.3,2.05 0.55,1.75 q 0.3,0.85 0.25,2.5 0.35,1.55 1.1,2.65 0.65,0.55 2.3,1.5 l 2.6,1.2 q 1.7,0.9 2.6,1.2 l 6.65,1.65 q 3.55,0.85 4.7,1.45 l 1.75,0.8 1.05,0.2 q 0.3,-0.25 0.45,-0.9 L -9.3,20.25 q 0.15,-1.45 -0.3,-1.9 -0.35,-0.6 -1.85,-0.85 l -8.2,-2.35 -3.95,-1.45 q -3.65,-1.35 -5.45,-2.3 L -31,10.1 -33.1,9.15 -34.6,9.1 q -0.8,0.5 -0.75,2.35"
         fill="#cbbdae"
         fill-rule="evenodd"
         stroke="none"
         id="path4" />
    </g>
    <g
       id="sprite1"
       transform="translate(17.4,15.85)">
      <use
         ffdec:characterId="31"
         height="57.200001"
         transform="matrix(0.5366,0,0,0.5366,-16.6582,-14.546)"
         width="70.75"
         xlink:href="#sprite2"
         id="use4" />
    </g>
    <g
       id="sprite2"
       transform="translate(-8.65,-10.35)">
      <use
         ffdec:characterId="30"
         height="57.200001"
         transform="translate(8.65,10.35)"
         width="70.75"
         xlink:href="#shape1"
         id="use5" />
    </g>
    <g
       id="shape1"
       transform="translate(-8.65,-10.35)">
      <path
         d="m 14.8,41.7 q 0.65,-1.75 2.65,-2.5 1.8,-0.8 3.7,-0.25 1.15,0.45 2.25,1.2 l 0.9,0.4 q 1.65,0.9 2.85,2.5 L 37.8,30.1 q 2.35,-2.8 3.75,-3.95 1.5,-1.15 4.25,-2.4 18.2,-8.85 27.65,-12.6 2.15,-0.8 3.25,-0.8 h 0.8 l 1.9,2.4 -0.2,0.8 q -0.2,1.1 -1.55,3 -5.85,8.25 -18.85,23.8 -1.85,2.35 -3.35,3.5 -1.4,1.15 -4.75,2.75 l -15.15,7.15 q 1.2,1.6 1.75,3.4 l 0.2,1 0.55,2.5 q 0.1,1.95 -1.1,3.55 -1.2,1.65 -3.05,1.9 l -1.3,0.05 q -1.65,0.2 -3.45,-0.65 -1.85,-0.9 -3,-2.6 L 25,60.95 23.8,62.1 q -2.6,2.85 -4.3,3.95 -2.85,1.8 -5.5,1.45 l -1.65,-0.5 -1.2,-0.7 -0.2,-0.2 q -1,-0.85 -1.6,-1.9 L 9.25,64 9.15,63.8 8.75,62.4 q -0.2,-0.8 -0.05,-1.7 0.25,-2.65 2.7,-5.05 1.5,-1.3 4.9,-3.15 L 17.7,51.55 16.05,50 q -1.35,-1.5 -1.8,-3.6 -0.4,-1.85 0.25,-3.45 l 0.3,-1.25"
         fill="#000000"
         fill-opacity="0.372549"
         fill-rule="evenodd"
         stroke="none"
         id="path5" />
    </g>
  </defs>
</svg>
