<?xml version="1.0" encoding="UTF-8" standalone="no"?>
<svg
   ffdec:objectType="frame"
   height="89.168747"
   width="62.040001"
   version="1.1"
   id="svg6"
   xmlns:xlink="http://www.w3.org/1999/xlink"
   xmlns="http://www.w3.org/2000/svg"
   xmlns:svg="http://www.w3.org/2000/svg"
   xmlns:ffdec="https://www.free-decompiler.com/flash">
  <g
     transform="translate(40.582,46.5)"
     id="g1">
    <use
       ffdec:characterId="17"
       height="119.15"
       id="rarity"
       transform="translate(-58.5,-60.65)"
       width="119.15"
       xlink:href="#sprite0" />
    <use
       ffdec:characterId="659"
       height="89.150002"
       transform="translate(-40.6,-46.5)"
       width="62.049999"
       xlink:href="#shape0"
       id="use1" />
  </g>
  <defs
     id="defs6">
    <g
       id="shape0"
       transform="translate(40.2,45.7)">
      <path
         d="m 17.05,-45.7 q 3.95,1.15 4.1,5.95 0,1.55 0.15,3.2 0.35,4.25 -0.15,8.35 L 21,-26.6 q -0.3,1.85 -0.15,4.35 0.1,2.45 0.35,4.3 l 0.65,6.75 q 0.1,4 -1.05,6.6 -1.05,2.4 -2.9,3.65 -2.15,1.5 -4.5,0.9 Q 12,-0.4 11.4,-1.35 11.15,-1.8 11,-2.7 9.3,1.1 6.8,4.45 9.65,4.2 11.25,6.7 q 0.7,1.05 0.5,2.4 1.55,11 1.8,22.3 0.1,4.4 -1.45,8.25 -0.4,0.95 -1.4,1.2 -6.35,1.7 -12.65,2.6 -1.1,0.15 -1.5,-0.9 Q -4.4,40.15 -4.5,37.5 -4.9,25.4 -3.75,13.55 -4.8,13.65 -6.4,12.85 -8.9,11.6 -8.7,10 l -2.95,0.55 q -12.1,3.25 -24.05,7.1 -1.65,0.5 -2.5,-0.9 -1.75,-2.95 -1.95,-6.5 -0.2,-5.45 0.85,-10.7 0.2,-0.8 1,-1.15 8.5,-3.75 17.9,-4.3 l 8,-0.55 4,-0.55 3.4,-0.1 0.8,-2.55 v -0.65 q 0,-0.8 0.4,-1.5 l 0.25,-0.45 1.25,-6.2 q 0.35,-2.05 1.2,-3.85 1.6,-9.85 8.9,-16.6 4.1,-3.75 8.75,-6.65 l 0.5,-0.15 m -0.65,17.95 v -0.15 l -0.05,-0.35 -0.05,-1.15 v -2.65 l 0.05,-4.7 q -0.35,-0.5 -0.4,-1.1 l -0.2,-0.95 -0.05,0.05 q -1.8,1.5 -3.4,3.2 -0.5,0.55 -1.2,0.85 l -0.1,0.1 -0.15,0.1 -0.45,0.45 -0.1,0.1 -0.2,0.2 q -2.4,2.4 -3.85,5.4 l -0.1,0.25 -0.45,1 -0.15,0.3 -0.05,0.2 -0.9,2.9 -0.2,0.95 -0.15,0.65 -0.15,0.9 -0.4,2.4 -0.15,0.9 -0.25,1.35 -0.65,2.8 -0.3,1.05 -0.85,2.9 v 1.15 l -0.25,1.2 -0.8,2.35 q 0,1.25 -0.35,2.4 l -0.7,2.1 V 0.05 0.7 0.95 l 0.1,0.2 0.15,0.2 0.15,0.2 1,0.65 L 1,2.35 H 1.9 L 2.15,2.3 4.85,-2.2 6.65,-5 8.3,-8.65 l 1.6,-2.8 0.4,-0.7 0.4,-0.75 0.2,-0.35 0.05,-0.1 v -0.05 l 1.4,-2.85 0.15,-0.25 0.6,-1.2 0.05,-0.2 1.6,-4.2 0.05,-0.1 v -0.05 l 0.05,-0.15 0.05,-0.2 0.1,-0.1 0.25,-0.4 0.2,-0.35 v -0.05 l 0.3,-0.6 0.2,-1.5 0.05,-0.05 0.35,-1.3 0.05,-0.15 v -0.65 m -1.6,16.4 -0.6,1 0.2,2 -0.05,2.05 0.1,2 q 1.25,-0.1 1.95,-2 0.6,-1.6 0.7,-3.9 l -0.05,-4.05 v -0.85 l -2.25,3.75 M 3.9,10.95 H 2.95 Q 1.55,11 0.95,11.6 0.4,19.8 0.7,28.1 l 0.3,9 4.7,-1.05 Q 7,35.75 7.75,35.1 7.35,27.2 7.25,19.25 v -0.9 q -0.2,-4 -1.1,-7.75 L 3.9,10.95 m 2.2,7.25 0.25,0.7 0.1,1.05 Q 4.15,23.6 2,19.85 1.6,19.15 2.05,18.35 2.75,17.1 4.05,17 H 4.1 q 1.4,0.15 2,1.2 m -1.65,9.95 1.15,0.4 0.3,0.2 Q 7.65,32.6 3.35,31.8 2.6,31.65 2.5,30.8 2.2,28.5 4.45,28.15 M -7.7,-1.5 -27.8,1.2 q -3.3,0.4 -6.45,1.75 v 2.1 2.6 l 0.15,1.3 q 0.3,1.05 0.25,2.15 l -0.05,0.4 q 6.85,-1.35 13.5,-3.55 L -7.55,3.5 -7.5,2.85 -7.4,2.45 Q -7.1,1.6 -7.15,0.7 L -7.2,-0.8 v -0.4 l -0.5,-0.3 m -7.95,2.85 1.05,0.4 0.3,0.2 q 1.6,3.2 -2.05,3 -0.75,-0.05 -1.15,-0.8 l -0.05,-1.3 q 0.2,-0.85 1.05,-1.3 l 0.35,-0.1 0.5,-0.05 V 1.35 m -10.8,2.45 q 4.2,1.8 0.35,4.05 -0.95,0.55 -1.6,-0.3 -2.1,-2.75 1.25,-3.75"
         fill="#000000"
         fill-rule="evenodd"
         stroke="none"
         id="path1" />
      <path
         d="m 5.5,-26.6 q 0.7,0.85 1.75,1.4 l -2.65,1.5 0.9,-2.9 m 8.25,5.15 0.1,-0.05 0.5,-0.3 0.4,-0.3 -1.6,4.2 -0.05,0.2 h -0.55 q -1.05,0.1 -1.75,0.8 l -0.55,0.9 -2.75,0.65 -0.95,0.4 -0.6,0.25 v -0.05 q 0.9,-0.95 1,-2.55 l -0.1,-1.1 0.45,-0.4 2.2,-0.7 q 2.3,-0.8 4.25,-1.95 m -3.05,8.55 -0.4,0.75 -0.4,0.7 -1.6,2.8 L 6.65,-5 4.85,-2.2 2.15,2.3 1.9,2.35 H 1 L 0.8,2.2 -0.2,1.55 -0.35,1.35 -0.5,1.15 -0.6,0.95 V 0.7 0.05 -0.6 l 0.7,-2.1 q 0.35,-1.15 0.35,-2.4 l 0.8,-2.35 0.25,-1.2 q 0.6,-0.15 1.2,-0.45 4,-1.85 7.8,-4 l 0.2,0.2 m -8.35,0.2 0.3,-1.05 h 0.1 l 1.1,0.1 -0.6,0.35 -0.9,0.6"
         fill="#bcbcbc"
         fill-rule="evenodd"
         stroke="none"
         id="path2" />
      <path
         d="m 7.25,-25.2 0.45,0.2 1.15,0.35 v 0.2 q 0,1.15 0.8,2.15 0.8,0.95 1.95,1.15 1.1,0.25 2.15,-0.3 -1.95,1.15 -4.25,1.95 l -2.2,0.7 -0.45,0.4 -0.3,-0.85 q -0.5,-1 -1.35,-1.5 l -1.1,-0.45 0.15,-0.9 0.15,-0.65 0.2,-0.95 2.65,-1.5 m 7.1,3.4 0.45,-0.45 v 0.05 l -0.05,0.1 -0.4,0.3 m 1.1,-1.7 q 0.25,-0.95 -0.1,-2 l -0.35,-0.8 1.05,-0.9 0.35,-0.3 v -0.25 0.65 l -0.05,0.15 -0.35,1.3 -0.05,0.05 -0.2,1.5 -0.3,0.6 M 1.5,-8.65 V -9.8 l 0.85,-2.9 0.9,-0.6 0.6,-0.35 0.95,-0.3 1.15,-0.75 0.6,-0.25 0.95,-0.4 2.75,-0.65 -0.25,0.8 q -0.15,1.05 0.35,1.85 l 0.15,0.25 q -3.8,2.15 -7.8,4 -0.6,0.3 -1.2,0.45"
         fill="#dfdfdf"
         fill-rule="evenodd"
         stroke="none"
         id="path3" />
      <path
         d="m 7.25,18.35 v 0.9 Q 7.35,27.2 7.75,35.1 7,35.75 5.7,36.05 L 1,37.1 0.7,28.1 Q 0.4,19.8 0.95,11.6 1.55,11 2.95,10.95 H 3.9 l -0.15,0.1 q -1.2,1.2 -1.05,3.15 0.25,1.6 1.35,2.8 -1.3,0.1 -2,1.35 -0.45,0.8 -0.05,1.5 2.15,3.75 4.45,0.1 L 6.35,18.9 6.1,18.2 7.25,18.35 M -26.45,3.8 q -3.35,1 -1.25,3.75 0.65,0.85 1.6,0.3 3.85,-2.25 -0.35,-4.05 m 10.8,-2.45 V 1.4 l -0.5,0.05 -0.35,0.1 q -0.85,0.45 -1.05,1.3 l 0.05,1.3 q 0.4,0.75 1.15,0.8 3.65,0.2 2.05,-3 l -0.3,-0.2 -1.05,-0.4 m 7.95,-2.85 0.5,0.3 v 0.4 l 0.05,1.5 Q -7.1,1.6 -7.4,2.45 L -7.5,2.85 -7.55,3.5 -20.4,7.95 q -6.65,2.2 -13.5,3.55 l 0.05,-0.4 Q -33.8,10 -34.1,8.95 l -0.15,-1.3 V 5.05 2.95 Q -31.1,1.6 -27.8,1.2 L -7.7,-1.5 M 4.45,28.15 Q 2.2,28.5 2.5,30.8 q 0.1,0.85 0.85,1 4.3,0.8 2.55,-3.05 l -0.3,-0.2 -1.15,-0.4"
         fill="#5b5b5b"
         fill-rule="evenodd"
         stroke="none"
         id="path4" />
      <path
         d="m 5.5,-26.6 0.05,-0.2 0.15,-0.3 0.45,-1 0.1,-0.25 q 1.45,-3 3.85,-5.4 l 0.2,-0.2 0.1,-0.1 0.45,-0.45 0.15,-0.1 0.1,-0.1 q 0.7,-0.3 1.2,-0.85 1.6,-1.7 3.4,-3.2 l 0.05,-0.05 0.2,0.95 q 0.05,0.6 0.4,1.1 l -0.05,4.7 v 2.65 l 0.05,1.15 0.05,0.35 v 0.15 0.25 l -0.35,0.3 -1.05,0.9 0.35,0.8 q 0.35,1.05 0.1,2 v 0.05 l -0.2,0.35 -0.25,0.4 -0.1,0.1 -0.05,0.2 -0.05,0.15 -0.45,0.45 -0.5,0.3 -0.1,0.05 q -1.05,0.55 -2.15,0.3 -1.15,-0.2 -1.95,-1.15 -0.8,-1 -0.8,-2.15 v -0.2 L 7.7,-25 7.25,-25.2 Q 6.2,-25.75 5.5,-26.6 m 4.75,10.6 0.55,-0.9 q 0.7,-0.7 1.75,-0.8 h 0.55 l -0.6,1.2 -0.15,0.25 -1.4,2.85 v 0.05 l -0.05,0.1 -0.2,0.35 -0.2,-0.2 -0.15,-0.25 Q 9.85,-14.15 10,-15.2 l 0.25,-0.8 m -7.6,2.25 0.65,-2.8 0.25,-1.35 0.15,-0.9 0.4,-2.4 1.1,0.45 q 0.85,0.5 1.35,1.5 l 0.3,0.85 0.1,1.1 q -0.1,1.6 -1,2.55 v 0.05 l -1.15,0.75 -0.95,0.3 -1.1,-0.1 h -0.1 m 12.15,2.4 2.25,-3.75 v 0.85 l 0.05,4.05 q -0.1,2.3 -0.7,3.9 -0.7,1.9 -1.95,2 l -0.1,-2 0.05,-2.05 -0.2,-2 0.6,-1 M 7.25,18.35 6.1,18.2 Q 5.5,17.15 4.1,17 H 4.05 Q 2.95,15.8 2.7,14.2 2.55,12.25 3.75,11.05 L 3.9,10.95 6.15,10.6 q 0.9,3.75 1.1,7.75"
         fill="#682828"
         fill-rule="evenodd"
         stroke="none"
         id="path5" />
    </g>
    <g
       id="sprite1"
       transform="translate(17.4,15.85)">
      <use
         ffdec:characterId="31"
         height="57.200001"
         transform="matrix(0.5366,0,0,0.5366,-16.6582,-14.546)"
         width="70.75"
         xlink:href="#sprite2"
         id="use5" />
    </g>
    <g
       id="sprite2"
       transform="translate(-8.65,-10.35)">
      <use
         ffdec:characterId="30"
         height="57.200001"
         transform="translate(8.65,10.35)"
         width="70.75"
         xlink:href="#shape1"
         id="use6" />
    </g>
    <g
       id="shape1"
       transform="translate(-8.65,-10.35)">
      <path
         d="m 14.8,41.7 q 0.65,-1.75 2.65,-2.5 1.8,-0.8 3.7,-0.25 1.15,0.45 2.25,1.2 l 0.9,0.4 q 1.65,0.9 2.85,2.5 L 37.8,30.1 q 2.35,-2.8 3.75,-3.95 1.5,-1.15 4.25,-2.4 18.2,-8.85 27.65,-12.6 2.15,-0.8 3.25,-0.8 h 0.8 l 1.9,2.4 -0.2,0.8 q -0.2,1.1 -1.55,3 -5.85,8.25 -18.85,23.8 -1.85,2.35 -3.35,3.5 -1.4,1.15 -4.75,2.75 l -15.15,7.15 q 1.2,1.6 1.75,3.4 l 0.2,1 0.55,2.5 q 0.1,1.95 -1.1,3.55 -1.2,1.65 -3.05,1.9 l -1.3,0.05 q -1.65,0.2 -3.45,-0.65 -1.85,-0.9 -3,-2.6 L 25,60.95 23.8,62.1 q -2.6,2.85 -4.3,3.95 -2.85,1.8 -5.5,1.45 l -1.65,-0.5 -1.2,-0.7 -0.2,-0.2 q -1,-0.85 -1.6,-1.9 L 9.25,64 9.15,63.8 8.75,62.4 q -0.2,-0.8 -0.05,-1.7 0.25,-2.65 2.7,-5.05 1.5,-1.3 4.9,-3.15 L 17.7,51.55 16.05,50 q -1.35,-1.5 -1.8,-3.6 -0.4,-1.85 0.25,-3.45 l 0.3,-1.25"
         fill="#000000"
         fill-opacity="0.372549"
         fill-rule="evenodd"
         stroke="none"
         id="path6" />
    </g>
  </defs>
</svg>
