<?xml version="1.0" encoding="UTF-8" standalone="no"?>
<svg
   ffdec:objectType="frame"
   height="76.682106"
   width="65.266586"
   version="1.1"
   id="svg5"
   xmlns:xlink="http://www.w3.org/1999/xlink"
   xmlns="http://www.w3.org/2000/svg"
   xmlns:svg="http://www.w3.org/2000/svg"
   xmlns:ffdec="https://www.free-decompiler.com/flash">
  <g
     transform="translate(32.36087,40.7)"
     id="g1">
    <use
       ffdec:characterId="17"
       height="119.15"
       id="rarity"
       transform="translate(-58.5,-60.65)"
       width="119.15"
       xlink:href="#sprite0" />
    <use
       ffdec:characterId="705"
       height="76.699997"
       transform="translate(-32.35,-40.7)"
       width="65.25"
       xlink:href="#shape0"
       id="use1" />
  </g>
  <defs
     id="defs5">
    <g
       id="shape0"
       transform="translate(31.95,39.9)">
      <path
         d="m 27.15,-39.9 q 3.65,1.65 3.45,6.25 -0.05,1.25 0.05,2.55 0.75,13.25 1.9,26.4 1.15,13.25 0.55,26.6 -0.1,1.85 -0.6,3.55 -0.4,1.55 -2.15,2 l 0.35,0.65 q 0.25,0.6 0.15,1.3 v 0.2 l -2.15,3 -1.55,1.3 Q 24.8,37.6 20,36.55 L 17.4,36.2 q -20.65,-0.95 -41.1,-0.5 -0.75,0 -1.1,-0.7 -0.75,-1.5 -0.55,-3.2 -0.8,-2 -1.05,-4.25 l -0.1,-3.05 q -1.45,-5.95 -1.75,-12.2 -0.15,-2.6 -0.6,-5.15 -1.9,-12.4 -2.7,-25.1 l -0.4,-6.65 q -0.25,-5.75 5.25,-6.4 20.9,-2.6 41.55,-7 l 8.6,-1.5 3.7,-0.4 m -0.4,30.55 Q 25.7,-20.05 25,-30.9 l -0.45,-2.8 -2.85,0.3 q -11.75,1.25 -23.15,4.4 -8.15,2.2 -16.6,3.1 h -0.1 l -1.85,0.25 v 0.05 l 0.05,1.5 q -0.15,5.05 0.85,9.95 1.2,5.65 1.5,11.5 0.3,5.65 0.45,11.35 l 0.15,0.25 0.2,1.05 -0.05,1.3 0.05,0.2 0.1,0.25 0.05,0.2 v 0.2 0.45 0.2 0.2 l 0.2,0.65 V 14 l -0.05,1.8 -0.05,1.05 0.05,0.25 0.1,0.2 0.05,0.2 -0.05,0.45 -0.05,0.25 -0.25,1 -0.35,1.3 -0.25,0.15 -0.75,-0.05 -0.2,-0.45 -0.3,-1.3 V 18.6 l -0.5,-1 L -20.25,5.55 -20.3,5 -20.9,-1.5 q -0.65,-1.75 -0.75,-3.65 L -21.9,-9.9 q -1.45,-4.25 -2.25,-8.75 -0.55,-2.95 -0.25,-6.05 l -0.15,-0.05 -1.15,0.2 0.7,10.6 0.85,9 1.15,10.4 0.35,2.9 q 0.9,6.75 1.5,13.55 0.6,0.85 0.6,1.9 l 0.25,2.4 0.3,1.5 0.45,-0.5 -0.2,-0.45 -0.1,-0.45 q 1.05,-1.65 2.85,-2.45 1.3,-0.6 3.05,-0.7 l 1.2,-0.05 5.6,-0.3 9.35,-0.55 q 13,0.15 25.45,-0.35 -0.3,-5.45 0.2,-10.75 0.5,-4.55 0.05,-9.05 l -0.65,-6.6 -0.5,-4.85 M 2.4,-14.2 q 0.65,0 1.6,-0.85 l 5.15,-4.55 q 1.3,-1.2 2.25,-1.65 l 2.6,-0.15 0.1,0.05 q 0.95,0.45 1.35,1.6 0.35,1 0.2,2.15 l -0.5,2.1 -0.6,2.1 -0.25,2.35 -0.3,2.3 q -0.2,0.85 -0.05,1.2 0.15,0.4 0.9,0.7 l 2.8,1.45 2.2,1.4 0.85,0.65 1.35,1.45 Q 23,-0.2 22.1,1.05 21.35,2.2 18.65,2.4 L 13,2.75 Q 12.25,2.85 12.05,3.05 11.8,3.25 11.6,4 l -1.4,6.2 -0.05,0.35 Q 9.35,13.3 7.9,13.75 6.6,14.1 5.35,12.95 l -1,-1.3 L 3.8,10.7 1,4.85 0.85,4.5 Q 0.6,3.95 0.25,3.85 L -0.7,3.8 -8.1,4.85 Q -11,5.25 -12,4.1 l -0.05,-0.05 q -0.8,-1 -0.35,-2.4 l 0.05,-0.2 q 0.35,-1 1.45,-2.25 2.25,-2.65 5.15,-5.05 0.5,-0.4 0.6,-0.75 0.05,-0.35 -0.25,-0.95 l -2.5,-5.05 q -1.25,-2.5 -0.6,-3.8 l 1.25,-1.1 1.65,-0.2 q 1.05,0.1 3.15,1.15 l 3.5,1.9 q 0.8,0.5 1.35,0.45 m 7.3,3.95 0.55,-3.15 -0.75,0.6 -1.15,0.85 -0.65,0.65 2,1.05 M 7.75,-2.2 8.15,-3.7 8.2,-4.3 7.75,-4.9 7,-5.4 5.65,-6.15 Q 4,-6.9 3.5,-7.25 l -0.55,-0.2 -0.85,0.8 q -0.55,0.55 -0.5,0.95 0,0.35 0.5,0.95 0.7,0.75 1.1,1.9 l 0.35,0.6 0.3,0.1 h 0.3 L 7.75,-2.2 M 6.35,3.7 6.5,3.45 V 3.25 L 6.55,3.15 H 6.1 l 0.05,0.2 0.1,0.2 0.1,0.15 m 16.5,27.35 1,-1.1 0.85,-0.85 1.35,-1.3 0.15,-0.2 q -17,-0.55 -34.9,0.5 -3.55,0.2 -7,-0.05 l -0.45,2.1 q 19.55,-0.15 39,0.9 m -25,-32.3 0.1,-0.05 0.05,-0.15 -0.45,-0.35 -0.7,0.65 1,-0.1"
         fill="#000000"
         fill-rule="evenodd"
         stroke="none"
         id="path1" />
      <path
         d="m -16.45,18.2 0.05,-0.25 0.05,-0.45 -0.05,-0.2 -0.1,-0.2 -0.05,-0.25 0.05,-1.05 0.05,-1.8 V 13.65 L -16.65,13 v -0.2 -0.2 -0.45 -0.2 L -16.7,11.75 -16.8,11.5 -16.85,11.3 -16.8,10 -17,8.95 -17.15,8.7 Q -17.3,3 -17.6,-2.65 q -0.3,-5.85 -1.5,-11.5 -1,-4.9 -0.85,-9.95 L -20,-25.6 v -0.05 l 1.85,-0.25 h 0.1 q 8.45,-0.9 16.6,-3.1 11.4,-3.15 23.15,-4.4 l 2.85,-0.3 0.45,2.8 q 0.7,10.85 1.75,21.55 l -0.2,3.15 q -0.2,3.4 -1.1,5 -0.8,1.4 -3.1,2.95 -2.7,1.85 -3.5,2.75 L 17.6,6.2 16.4,8 q -1.45,1.85 -4.9,3.95 -4.7,2.9 -8.9,5.05 -3.7,1.8 -5.8,2.1 l -4.5,-0.05 -7.55,-0.65 -1.2,-0.2 M -23,5.45 l -1.15,-10.4 -0.85,-9 -0.7,-10.6 1.15,-0.2 0.15,0.05 q -0.3,3.1 0.25,6.05 0.8,4.5 2.25,8.75 l 0.25,4.75 q 0.1,1.9 0.75,3.65 L -20.3,5 -20.85,5.6 -22.9,5.5 -23,5.45 M 6.35,3.7 6.25,3.55 6.15,3.35 6.1,3.15 H 6.55 L 6.5,3.25 v 0.2 L 6.35,3.7 m 1.4,-5.9 -3.6,0.05 H 3.85 L 3.55,-2.25 3.2,-2.85 Q 2.8,-4 2.1,-4.75 1.6,-5.35 1.6,-5.7 1.55,-6.1 2.1,-6.65 l 0.85,-0.8 0.55,0.2 Q 4,-6.9 5.65,-6.15 L 7,-5.4 l 0.75,0.5 0.45,0.6 -0.05,0.6 -0.4,1.5 m 1.95,-8.05 -2,-1.05 0.65,-0.65 1.15,-0.85 0.75,-0.6 -0.55,3.15 M 2.4,-14.2 q -0.55,0.05 -1.35,-0.45 l -3.5,-1.9 q -2.1,-1.05 -3.15,-1.15 l -1.65,0.2 -1.25,1.1 q -0.65,1.3 0.6,3.8 l 2.5,5.05 q 0.3,0.6 0.25,0.95 -0.1,0.35 -0.6,0.75 -2.9,2.4 -5.15,5.05 -1.1,1.25 -1.45,2.25 l -0.05,0.2 q -0.45,1.4 0.35,2.4 L -12,4.1 q 1,1.15 3.9,0.75 L -0.7,3.8 0.25,3.85 Q 0.6,3.95 0.85,4.5 L 1,4.85 l 2.8,5.85 0.55,0.95 1,1.3 q 1.25,1.15 2.55,0.8 1.45,-0.45 2.25,-3.2 L 10.2,10.2 11.6,4 Q 11.8,3.25 12.05,3.05 12.25,2.85 13,2.75 L 18.65,2.4 Q 21.35,2.2 22.1,1.05 23,-0.2 22.05,-1.9 L 20.7,-3.35 19.85,-4 17.65,-5.4 14.85,-6.85 Q 14.1,-7.15 13.95,-7.55 13.8,-7.9 14,-8.75 l 0.3,-2.3 0.25,-2.35 0.6,-2.1 0.5,-2.1 q 0.15,-1.15 -0.2,-2.15 -0.4,-1.15 -1.35,-1.6 l -0.1,-0.05 -2.6,0.15 q -0.95,0.45 -2.25,1.65 L 4,-15.05 q -0.95,0.85 -1.6,0.85 m -4.55,12.95 -1,0.1 0.7,-0.65 0.45,0.35 -0.05,0.15 -0.1,0.05"
         fill="#4d4d4d"
         fill-rule="evenodd"
         stroke="none"
         id="path2" />
      <path
         d="m -16.45,18.2 1.2,0.2 7.55,0.65 4.5,0.05 Q -1.1,18.8 2.6,17 6.8,14.85 11.5,11.95 14.95,9.85 16.4,8 l 1.2,-1.8 1.25,-1.7 q 0.8,-0.9 3.5,-2.75 2.3,-1.55 3.1,-2.95 0.9,-1.6 1.1,-5 l 0.2,-3.15 0.5,4.85 0.65,6.6 q 0.45,4.5 -0.05,9.05 -0.5,5.3 -0.2,10.75 Q 15.2,22.4 2.2,22.25 l -9.35,0.55 -5.6,0.3 -1.2,0.05 q -1.75,0.1 -3.05,0.7 -1.8,0.8 -2.85,2.45 l 0.1,0.45 0.2,0.45 -0.45,0.5 -0.3,-1.5 -0.25,-2.4 q 0,-1.05 -0.6,-1.9 -0.6,-6.8 -1.5,-13.55 l -0.35,-2.9 0.1,0.05 2.05,0.1 0.55,-0.6 0.05,0.55 1.2,12.05 0.5,1 v 0.25 l 0.3,1.3 0.2,0.45 0.75,0.05 0.25,-0.15 0.35,-1.3 0.25,-1"
         fill="#2b2b2b"
         fill-rule="evenodd"
         stroke="none"
         id="path3" />
      <path
         d="M 22.85,31.05 Q 3.4,30 -16.15,30.15 l 0.45,-2.1 q 3.45,0.25 7,0.05 17.9,-1.05 34.9,-0.5 l -0.15,0.2 -1.35,1.3 -0.85,0.85 -1,1.1"
         fill="#d4d4d4"
         fill-rule="evenodd"
         stroke="none"
         id="path4" />
    </g>
    <g
       id="sprite1"
       transform="translate(17.4,15.85)">
      <use
         ffdec:characterId="31"
         height="57.200001"
         transform="matrix(0.5366,0,0,0.5366,-16.6582,-14.546)"
         width="70.75"
         xlink:href="#sprite2"
         id="use4" />
    </g>
    <g
       id="sprite2"
       transform="translate(-8.65,-10.35)">
      <use
         ffdec:characterId="30"
         height="57.200001"
         transform="translate(8.65,10.35)"
         width="70.75"
         xlink:href="#shape1"
         id="use5" />
    </g>
    <g
       id="shape1"
       transform="translate(-8.65,-10.35)">
      <path
         d="m 14.8,41.7 q 0.65,-1.75 2.65,-2.5 1.8,-0.8 3.7,-0.25 1.15,0.45 2.25,1.2 l 0.9,0.4 q 1.65,0.9 2.85,2.5 L 37.8,30.1 q 2.35,-2.8 3.75,-3.95 1.5,-1.15 4.25,-2.4 18.2,-8.85 27.65,-12.6 2.15,-0.8 3.25,-0.8 h 0.8 l 1.9,2.4 -0.2,0.8 q -0.2,1.1 -1.55,3 -5.85,8.25 -18.85,23.8 -1.85,2.35 -3.35,3.5 -1.4,1.15 -4.75,2.75 l -15.15,7.15 q 1.2,1.6 1.75,3.4 l 0.2,1 0.55,2.5 q 0.1,1.95 -1.1,3.55 -1.2,1.65 -3.05,1.9 l -1.3,0.05 q -1.65,0.2 -3.45,-0.65 -1.85,-0.9 -3,-2.6 L 25,60.95 23.8,62.1 q -2.6,2.85 -4.3,3.95 -2.85,1.8 -5.5,1.45 l -1.65,-0.5 -1.2,-0.7 -0.2,-0.2 q -1,-0.85 -1.6,-1.9 L 9.25,64 9.15,63.8 8.75,62.4 q -0.2,-0.8 -0.05,-1.7 0.25,-2.65 2.7,-5.05 1.5,-1.3 4.9,-3.15 L 17.7,51.55 16.05,50 q -1.35,-1.5 -1.8,-3.6 -0.4,-1.85 0.25,-3.45 l 0.3,-1.25"
         fill="#000000"
         fill-opacity="0.372549"
         fill-rule="evenodd"
         stroke="none"
         id="path5" />
    </g>
  </defs>
</svg>
