<?xml version="1.0" encoding="UTF-8" standalone="no"?>
<svg
   ffdec:objectType="frame"
   height="54.546761"
   width="76.122498"
   version="1.1"
   id="svg5"
   xmlns:xlink="http://www.w3.org/1999/xlink"
   xmlns="http://www.w3.org/2000/svg"
   xmlns:svg="http://www.w3.org/2000/svg"
   xmlns:ffdec="https://www.free-decompiler.com/flash">
  <g
     transform="translate(39.9,26.7375)"
     id="g1">
    <use
       ffdec:characterId="17"
       height="119.15"
       id="rarity"
       transform="translate(-58.5,-60.65)"
       width="119.15"
       xlink:href="#sprite0" />
    <use
       ffdec:characterId="162"
       height="54.549999"
       transform="translate(-39.9,-26.75)"
       width="76.099998"
       xlink:href="#shape0"
       id="use1" />
  </g>
  <defs
     id="defs5">
    <g
       id="shape0"
       transform="translate(39.6,29.25)">
      <path
         d="m -34.8,-4.05 q 4.6,-6.95 11.05,-12.4 6.45,-5.45 14.05,-8.8 7.15,-3.1 14.2,-3.8 7.8,-0.75 14.45,1.5 7.2,2.45 12.1,8.25 5.1,6.05 5.45,13.25 0.15,3.3 -0.7,7.05 -1.85,9.15 -7.1,14.05 -4.35,4.15 -13.8,6.7 -22.6,6.2 -40.9,1.6 -8.1,-2 -11.25,-6.3 -1.6,-2.2 -2.1,-5.15 -0.5,-2.75 0,-5.7 0.9,-4.65 4.55,-10.25 m 57.4,-15.7 Q 15.5,-24 6.3,-23.5 q -8.65,0.55 -17.35,5.45 -9.25,5.1 -15.75,13.3 -3.05,3.85 -4.65,7.15 l -0.45,0.95 q -1.5,3.35 -1.5,5.95 0,3.6 2.3,5.55 1.2,1.1 3.55,1.8 10,3.4 21.75,2.8 10.5,-0.55 21.75,-4.25 4.6,-1.5 7.55,-3.25 3.85,-2.3 5.7,-5.5 1.15,-1.95 1.85,-5.05 1.7,-7.75 -0.85,-13.2 -2,-4.25 -6.45,-7.2 l -1.15,-0.75"
         fill="#000000"
         fill-rule="evenodd"
         stroke="none"
         id="path1" />
      <path
         d="m 15,-10.3 q 1.4,0.4 2.35,-0.7 1,-1.1 0.4,-2.45 -0.65,-1.35 -2.1,-1.35 0.05,0.1 -0.2,0.1 -0.75,-0.05 -1.3,0.5 -0.95,0.8 -0.7,2.2 0.25,1.3 1.55,1.7 m 5.85,3 H 19.1 q -1.75,0.3 -4.05,2.2 -2.7,2.15 -4.3,3.95 l -0.9,0.8 q -0.5,0.2 -1.5,0 L 3.3,-1.05 H 2.95 Q 0.35,-1.1 -1.6,-0.3 -2.95,0.2 -4.1,1.15 l -1.05,1 Q -6.65,3.8 -7.25,5.9 L -7.5,7.15 -24.05,7.9 q -3.6,-0.3 -5.2,-1.5 -1.5,-1.15 -2.05,-3.25 L -31.45,2.4 q 1.6,-3.3 4.65,-7.15 6.5,-8.2 15.75,-13.3 8.7,-4.9 17.35,-5.45 9.2,-0.5 16.3,3.75 1,2.15 0.7,5.25 -0.45,4.05 -2.45,7.2 m -37.2,10.1 q 1.05,-0.25 1.45,-1.2 0.5,-0.85 0.05,-1.8 -0.5,-1.1 -1.7,-1.25 -1.15,-0.15 -2,0.75 L -19,0.55 q -0.05,0.7 0.3,1.25 0.35,0.6 1,0.9 l 1.35,0.1 M -5,-14.3 l -0.85,0.5 q -0.6,0.5 -0.7,1.35 -0.1,0.8 0.3,1.5 0.4,0.65 1.25,0.95 0.8,0.25 1.5,0 0.75,-0.3 1.15,-1.05 0.4,-0.75 0.25,-1.5 -0.1,-0.8 -0.75,-1.3 -0.65,-0.55 -1.45,-0.55 l -0.2,0.05 -0.5,0.05 M -2.55,6.1 -2.5,6 q 1.25,-1.85 2.45,-2.35 0.85,-0.4 2.8,-0.5 l 3.3,0.1 q -4.1,1.7 -8.6,2.85"
         fill="#a9b1b0"
         fill-rule="evenodd"
         stroke="none"
         id="path2" />
      <path
         d="m 15,-10.3 q -1.3,-0.4 -1.55,-1.7 -0.25,-1.4 0.7,-2.2 0.55,-0.55 1.3,-0.5 0.25,0 0.2,-0.1 1.45,0 2.1,1.35 0.6,1.35 -0.4,2.45 -0.95,1.1 -2.35,0.7 m 5.85,3 q 2,-3.15 2.45,-7.2 0.3,-3.1 -0.7,-5.25 l 1.15,0.75 q 4.45,2.95 6.45,7.2 2.55,5.45 0.85,13.2 -0.7,3.1 -1.85,5.05 -1.85,3.2 -5.7,5.5 -2.95,1.75 -7.55,3.25 -11.25,3.7 -21.75,4.25 -11.75,0.6 -21.75,-2.8 -2.35,-0.7 -3.55,-1.8 -2.3,-1.95 -2.3,-5.55 0,-2.6 1.5,-5.95 l 0.45,-0.95 0.15,0.75 q 0.55,2.1 2.05,3.25 1.6,1.2 5.2,1.5 L -7.5,7.15 q -0.15,1.2 0.2,2.05 0.45,1.15 1.45,2 1.85,1.6 4.45,1.9 2.5,0.25 4.85,-0.75 4.25,-1.8 7,-6.8 l 0.5,-0.6 1.2,-0.1 q 3.3,0.55 7.15,-0.45 2.2,-0.6 3.5,-1.55 1.5,-1.15 2.1,-2.95 0.6,-1.9 0,-3.6 -0.55,-1.8 -2.25,-2.85 l -1.8,-0.75 m -0.35,4.15 0.5,0.8 0.1,1.05 Q 20.95,-0.45 20.05,0 L 18.4,0.55 13.7,1.2 16.2,-1.1 q 2,-1.6 3.2,-2.05 0.75,-0.2 1.1,0 M -5,-14.3 l 0.5,-0.05 0.2,-0.05 q 0.8,0 1.45,0.55 0.65,0.5 0.75,1.3 0.15,0.75 -0.25,1.5 -0.4,0.75 -1.15,1.05 -0.7,0.25 -1.5,0 -0.85,-0.3 -1.25,-0.95 -0.4,-0.7 -0.3,-1.5 0.1,-0.85 0.7,-1.35 L -5,-14.3 M -16.35,2.8 -17.7,2.7 q -0.65,-0.3 -1,-0.9 -0.35,-0.55 -0.3,-1.25 l 0.45,-1.25 q 0.85,-0.9 2,-0.75 1.2,0.15 1.7,1.25 0.45,0.95 -0.05,1.8 -0.4,0.95 -1.45,1.2 m 13.8,3.3 Q 1.95,4.95 6.05,3.25 L 7.1,3.4 Q 5,6.4 3.55,7.45 1.05,9.3 -1.45,8.6 -2.7,8.3 -2.9,7.4 -3,6.95 -2.55,6.1"
         fill="#919896"
         fill-rule="evenodd"
         stroke="none"
         id="path3" />
      <path
         d="M -7.5,7.15 -7.25,5.9 q 0.6,-2.1 2.1,-3.75 l 1.05,-1 Q -2.95,0.2 -1.6,-0.3 0.35,-1.1 2.95,-1.05 H 3.3 l 5.05,0.7 q 1,0.2 1.5,0 l 0.9,-0.8 q 1.6,-1.8 4.3,-3.95 2.3,-1.9 4.05,-2.2 h 1.75 l 1.8,0.75 q 1.7,1.05 2.25,2.85 0.6,1.7 0,3.6 -0.6,1.8 -2.1,2.95 -1.3,0.95 -3.5,1.55 -3.85,1 -7.15,0.45 l -1.2,0.1 -0.5,0.6 q -2.75,5 -7,6.8 -2.35,1 -4.85,0.75 -2.6,-0.3 -4.45,-1.9 -1,-0.85 -1.45,-2 -0.35,-0.85 -0.2,-2.05 m 28,-10.3 q -0.35,-0.2 -1.1,0 -1.2,0.45 -3.2,2.05 L 13.7,1.2 18.4,0.55 20.05,0 q 0.9,-0.45 1.05,-1.3 L 21,-2.35 20.5,-3.15 M 6.05,3.25 2.75,3.15 Q 0.8,3.25 -0.05,3.65 -1.25,4.15 -2.5,6 L -2.55,6.1 Q -3,6.95 -2.9,7.4 q 0.2,0.9 1.45,1.2 2.5,0.7 5,-1.15 Q 5,6.4 7.1,3.4 L 6.05,3.25"
         fill="#707775"
         fill-rule="evenodd"
         stroke="none"
         id="path4" />
    </g>
    <g
       id="sprite1"
       transform="translate(17.4,15.85)">
      <use
         ffdec:characterId="31"
         height="57.200001"
         transform="matrix(0.5366,0,0,0.5366,-16.6582,-14.546)"
         width="70.75"
         xlink:href="#sprite2"
         id="use4" />
    </g>
    <g
       id="sprite2"
       transform="translate(-8.65,-10.35)">
      <use
         ffdec:characterId="30"
         height="57.200001"
         transform="translate(8.65,10.35)"
         width="70.75"
         xlink:href="#shape1"
         id="use5" />
    </g>
    <g
       id="shape1"
       transform="translate(-8.65,-10.35)">
      <path
         d="m 14.8,41.7 q 0.65,-1.75 2.65,-2.5 1.8,-0.8 3.7,-0.25 1.15,0.45 2.25,1.2 l 0.9,0.4 q 1.65,0.9 2.85,2.5 L 37.8,30.1 q 2.35,-2.8 3.75,-3.95 1.5,-1.15 4.25,-2.4 18.2,-8.85 27.65,-12.6 2.15,-0.8 3.25,-0.8 h 0.8 l 1.9,2.4 -0.2,0.8 q -0.2,1.1 -1.55,3 -5.85,8.25 -18.85,23.8 -1.85,2.35 -3.35,3.5 -1.4,1.15 -4.75,2.75 l -15.15,7.15 q 1.2,1.6 1.75,3.4 l 0.2,1 0.55,2.5 q 0.1,1.95 -1.1,3.55 -1.2,1.65 -3.05,1.9 l -1.3,0.05 q -1.65,0.2 -3.45,-0.65 -1.85,-0.9 -3,-2.6 L 25,60.95 23.8,62.1 q -2.6,2.85 -4.3,3.95 -2.85,1.8 -5.5,1.45 l -1.65,-0.5 -1.2,-0.7 -0.2,-0.2 q -1,-0.85 -1.6,-1.9 L 9.25,64 9.15,63.8 8.75,62.4 q -0.2,-0.8 -0.05,-1.7 0.25,-2.65 2.7,-5.05 1.5,-1.3 4.9,-3.15 L 17.7,51.55 16.05,50 q -1.35,-1.5 -1.8,-3.6 -0.4,-1.85 0.25,-3.45 l 0.3,-1.25"
         fill="#000000"
         fill-opacity="0.372549"
         fill-rule="evenodd"
         stroke="none"
         id="path5" />
    </g>
  </defs>
</svg>
