<?xml version="1.0" encoding="UTF-8" standalone="no"?>
<svg
   ffdec:objectType="frame"
   height="86.595596"
   width="86.104301"
   version="1.1"
   id="svg4"
   xmlns:xlink="http://www.w3.org/1999/xlink"
   xmlns="http://www.w3.org/2000/svg"
   xmlns:svg="http://www.w3.org/2000/svg"
   xmlns:ffdec="https://www.free-decompiler.com/flash">
  <g
     transform="translate(42.452381,44.184483)"
     id="g1">
    <use
       ffdec:characterId="17"
       height="119.15"
       id="rarity"
       transform="translate(-58.5,-60.65)"
       width="119.15"
       xlink:href="#sprite0" />
    <use
       ffdec:characterId="413"
       height="86.599998"
       transform="translate(-42.45,-44.2)"
       width="86.099998"
       xlink:href="#shape0"
       id="use1" />
  </g>
  <defs
     id="defs4">
    <g
       id="shape0"
       transform="translate(42.05,43.4)">
      <path
         d="m 24.6,-43.35 q 9.85,-0.5 16.35,6.25 3.05,3.15 3.1,7.5 0.15,14.15 -11.4,22.55 l -6.8,5.1 Q 18.6,3.6 10.5,7.95 L 10.6,8 Q 1.7,13.6 -6.7,19.95 l -1.85,1.35 q -2.1,3.4 -5.5,6.1 -7.55,5.95 -14.75,12.35 -2.5,2.3 -5.75,3.15 -5.45,1.4 -7.1,-3.5 -0.65,-1.85 -0.25,-3.75 0.45,-2.1 2.05,-3.6 l 1.95,-3.25 5.05,-7.05 0.95,-1.05 q 5.65,-8.15 12.5,-15.45 6.15,-6.6 11,-14.15 l 5.15,-8.65 q 4.6,-8.3 10.9,-15.15 6,-6.5 14.05,-9.7 l 2.9,-0.95 m -8.65,35.25 0.2,-2.35 q 0.15,-2.6 0.85,-5.15 l 0.25,-0.2 0.2,-0.2 q 0.45,-1.15 1.25,-2.1 l 0.8,-0.7 q 2.4,-3.8 5.7,-6.9 l 1.9,-2.1 0.05,-0.25 0.1,-0.2 q 2.3,-2.1 4.2,-4.6 l 1.1,-1.85 0.8,-0.8 0.25,-0.25 0.1,-0.15 q -2.4,-1.35 -5.45,-1.65 L 25.4,-37.7 q -3,1.15 -5.7,2.75 l -3.45,2.4 q -4,3.15 -7.15,7.5 l -2.7,3.85 -2.25,3.25 -3.5,5.45 -2.85,9.4 -0.35,2.25 q -0.05,1.1 -0.4,2.15 l -0.2,0.2 -0.2,0.2 Q -5.3,6 -8.15,9.9 l -0.3,0.55 -0.4,0.95 -0.2,0.2 -0.25,0.2 q -1.85,3.6 -4.35,6.85 Q -6.6,12.75 1,7.6 6.9,3.55 13.1,-0.15 l 1.05,-0.6 0.35,-0.65 0.85,-1.5 0.6,-5.2 m 3.85,-3.25 -0.55,7.25 q 9.05,-6.4 16.55,-14.7 l 0.4,-1.05 0.25,-0.65 0.25,-0.45 1,-4.95 q 0.6,-2.9 0.15,-5.8 l -0.15,-0.6 -1.65,-1.85 -0.85,-0.75 q -4.05,4.65 -7.75,9.65 l -2.65,3.8 -0.2,0.15 -0.6,0.2 -3.05,4.65 q -0.65,1.05 -1.05,2.25 l -0.1,2.85 m -31.45,23.7 v -0.1 l 0.15,-0.2 0.2,-0.25 0.1,-0.4 0.1,-0.45 0.5,-0.45 3.05,-5 q 0.35,-0.55 0.3,-1.2 l 0.4,-0.4 0.2,-0.25 0.05,-0.2 0.1,-0.2 0.85,-1.1 0.05,-0.2 V 1.5 L -5.65,1.1 -5.45,0.45 -5.3,0 -5.4,-2.45 q -1.65,2.7 -3.8,5.05 l -11.65,13.25 -5.1,6.2 -6.3,8.45 q -2.55,3.4 -3.8,7.2 5.55,-3.5 10.7,-8.5 l 0.65,-0.6 0.05,-0.1 0.1,-0.05 0.05,-0.05 0.2,-0.3 0.2,-0.1 1.35,-1.25 0.55,-0.8 0.15,-0.2 5.25,-5.35 0.1,-0.45 0.05,-0.2 q 2.25,-2.9 4.15,-6.05 l 0.7,-0.8 0.1,-0.45 0.05,-0.1"
         fill="#000000"
         fill-rule="evenodd"
         stroke="none"
         id="path1" />
      <path
         d="M -8.45,10.45 -8.15,9.9 Q -5.3,6 -3.35,1.7 l 0.2,-0.2 0.2,-0.2 q 0.35,-1.05 0.4,-2.15 l 0.35,-2.25 2.85,-9.4 3.5,-5.45 2.25,-3.25 2.7,-3.85 q 3.15,-4.35 7.15,-7.5 l 3.45,-2.4 q 2.7,-1.6 5.7,-2.75 l 2.85,0.15 q 3.05,0.3 5.45,1.65 l -0.1,0.15 -0.25,0.25 -0.8,0.8 -1.1,1.85 q -1.9,2.5 -4.2,4.6 l -0.1,0.2 -0.05,0.25 -1.9,2.1 q -3.3,3.1 -5.7,6.9 l -0.8,0.7 q -0.8,0.95 -1.25,2.1 l -0.2,0.2 -0.25,0.2 q -0.7,2.55 -0.85,5.15 l -0.2,2.35 -0.75,0.7 -2.25,1.6 -0.4,0.2 Q 8.05,-1.55 3.05,1.95 1.6,3 -0.05,3.85 -4,7.55 -8.45,10.45 m 44.5,-44.6 -0.25,1.75 q -2.4,7.45 -7.85,13.3 -3.85,4.15 -8.15,7.75 l 0.1,-2.85 q 0.4,-1.2 1.05,-2.25 l 3.05,-4.65 0.6,-0.2 0.2,-0.15 2.65,-3.8 q 3.7,-5 7.75,-9.65 l 0.85,0.75 m -56.9,50 L -9.2,2.6 q 2.15,-2.35 3.8,-5.05 L -5.3,0 -5.45,0.45 -5.65,1.1 -5.6,1.5 v 0.45 l -0.05,0.2 -0.85,1.1 -0.1,0.2 -0.05,0.2 -0.2,0.25 -0.4,0.4 q 0.05,0.65 -0.3,1.2 l -3.05,5 -0.5,0.45 -0.1,0.45 -0.1,0.4 -0.2,0.25 -0.15,0.2 v 0.1 q -3.85,2.1 -8,3.7 l -1.2,-0.2"
         fill="#775b5b"
         fill-rule="evenodd"
         stroke="none"
         id="path2" />
      <path
         d="M -8.45,10.45 Q -4,7.55 -0.05,3.85 1.6,3 3.05,1.95 q 5,-3.5 9.5,-7.55 l 0.4,-0.2 2.25,-1.6 0.75,-0.7 -0.6,5.2 -0.85,1.5 -0.35,0.65 -1.05,0.6 Q 6.9,3.55 1,7.6 q -7.6,5.15 -14.65,11.05 2.5,-3.25 4.35,-6.85 l 0.25,-0.2 0.2,-0.2 0.4,-0.95 m 44.5,-44.6 1.65,1.85 0.15,0.6 q 0.45,2.9 -0.15,5.8 l -1,4.95 -0.25,0.45 -0.25,0.65 -0.4,1.05 q -7.5,8.3 -16.55,14.7 l 0.55,-7.25 q 4.3,-3.6 8.15,-7.75 5.45,-5.85 7.85,-13.3 l 0.25,-1.75 m -56.9,50 1.2,0.2 q 4.15,-1.6 8,-3.7 l -0.05,0.1 -0.1,0.45 -0.7,0.8 q -1.9,3.15 -4.15,6.05 l -0.05,0.2 -0.1,0.45 -5.25,5.35 -0.15,0.2 -0.55,0.8 -1.35,1.25 -0.2,0.1 -0.2,0.3 -0.05,0.05 -0.1,0.05 -0.05,0.1 -0.65,0.6 q -5.15,5 -10.7,8.5 1.25,-3.8 3.8,-7.2 l 6.3,-8.45 5.1,-6.2"
         fill="#5f4646"
         fill-rule="evenodd"
         stroke="none"
         id="path3" />
    </g>
    <g
       id="sprite1"
       transform="translate(17.4,15.85)">
      <use
         ffdec:characterId="31"
         height="57.200001"
         transform="matrix(0.5366,0,0,0.5366,-16.6582,-14.546)"
         width="70.75"
         xlink:href="#sprite2"
         id="use3" />
    </g>
    <g
       id="sprite2"
       transform="translate(-8.65,-10.35)">
      <use
         ffdec:characterId="30"
         height="57.200001"
         transform="translate(8.65,10.35)"
         width="70.75"
         xlink:href="#shape1"
         id="use4" />
    </g>
    <g
       id="shape1"
       transform="translate(-8.65,-10.35)">
      <path
         d="m 14.8,41.7 q 0.65,-1.75 2.65,-2.5 1.8,-0.8 3.7,-0.25 1.15,0.45 2.25,1.2 l 0.9,0.4 q 1.65,0.9 2.85,2.5 L 37.8,30.1 q 2.35,-2.8 3.75,-3.95 1.5,-1.15 4.25,-2.4 18.2,-8.85 27.65,-12.6 2.15,-0.8 3.25,-0.8 h 0.8 l 1.9,2.4 -0.2,0.8 q -0.2,1.1 -1.55,3 -5.85,8.25 -18.85,23.8 -1.85,2.35 -3.35,3.5 -1.4,1.15 -4.75,2.75 l -15.15,7.15 q 1.2,1.6 1.75,3.4 l 0.2,1 0.55,2.5 q 0.1,1.95 -1.1,3.55 -1.2,1.65 -3.05,1.9 l -1.3,0.05 q -1.65,0.2 -3.45,-0.65 -1.85,-0.9 -3,-2.6 L 25,60.95 23.8,62.1 q -2.6,2.85 -4.3,3.95 -2.85,1.8 -5.5,1.45 l -1.65,-0.5 -1.2,-0.7 -0.2,-0.2 q -1,-0.85 -1.6,-1.9 L 9.25,64 9.15,63.8 8.75,62.4 q -0.2,-0.8 -0.05,-1.7 0.25,-2.65 2.7,-5.05 1.5,-1.3 4.9,-3.15 L 17.7,51.55 16.05,50 q -1.35,-1.5 -1.8,-3.6 -0.4,-1.85 0.25,-3.45 l 0.3,-1.25"
         fill="#000000"
         fill-opacity="0.372549"
         fill-rule="evenodd"
         stroke="none"
         id="path4" />
    </g>
  </defs>
</svg>
