<?xml version="1.0" encoding="UTF-8" standalone="no"?>
<svg
   ffdec:objectType="frame"
   height="75"
   width="77.429596"
   version="1.1"
   id="svg6"
   xmlns:xlink="http://www.w3.org/1999/xlink"
   xmlns="http://www.w3.org/2000/svg"
   xmlns:svg="http://www.w3.org/2000/svg"
   xmlns:ffdec="https://www.free-decompiler.com/flash">
  <g
     transform="translate(38.000649,39.8)"
     id="g1">
    <use
       ffdec:characterId="17"
       height="119.15"
       id="rarity"
       transform="translate(-58.5,-60.65)"
       width="119.15"
       xlink:href="#sprite0" />
    <use
       ffdec:characterId="526"
       height="75.349998"
       transform="translate(-38,-39.8)"
       width="77.449997"
       xlink:href="#shape0"
       id="use1" />
  </g>
  <defs
     id="defs6">
    <g
       id="shape0"
       transform="translate(37.6,39)">
      <path
         d="m 36.2,-21.4 q 3.95,1.55 3.6,6.25 -0.2,2.9 -0.1,5.8 0.35,10.8 -0.25,21.4 -0.1,2.45 -2.6,3 -6.5,1.5 -12.35,4.7 L 1.05,32.4 -5.8,36 -8.65,35.9 Q -18,35.1 -26.8,31.6 -30.65,30.05 -32.95,26.95 -33.6,26.15 -33.6,25 -33.95,15.25 -36.25,5.9 L -36.4,4.65 q -2.15,-5.8 -0.45,-11.35 -0.5,-2.1 2.35,-3.25 12.1,-5.1 24.7,-9 5.65,-1.75 11.15,-4.15 5.6,-2.4 11.45,-3.75 0.95,-2.95 5.3,-3.75 6.85,-1.2 9.8,4 l 0.4,1.35 0.1,1.1 3.8,1.15 3.95,1.6 H 36.2 M -5.35,-39 q 2.4,0.2 4.25,1.95 l 1.35,1.15 q 4.85,-3.05 10.1,-2.1 0.7,0.1 0.85,0.8 -2.3,3.55 -6.55,5.4 -2.45,1.05 -4.95,1.7 -1.6,0.4 -2.75,-0.8 -0.65,-0.65 -0.85,-1.6 -1.7,0.55 -2.9,2.7 -2.75,5.15 -8,2.35 l 0.35,1.2 q 0.35,1.25 0.3,2.55 l 0.45,1.1 0.5,1.5 -0.05,0.4 q -0.05,0.5 -0.35,0.85 l -0.1,0.15 -0.15,0.1 -0.1,0.05 H -14 l -0.5,0.05 q -0.7,-0.1 -1.3,-0.45 l -0.6,-0.85 -0.65,-1.1 -0.1,-0.4 -0.2,-0.25 -0.35,-0.4 -0.3,-0.65 q -3.25,-3.35 -4.15,-7.6 -0.2,-1.05 0.85,-1.45 4.9,-1.85 9.4,0.65 1.7,-1.55 3.05,-3.7 l 2.1,-2.7 0.55,-0.45 0.3,-0.05 0.55,-0.05 V -39 m 24.3,12.95 -1.4,0.55 -0.65,0.4 -0.15,2.15 v 2.35 l 0.1,0.2 0.1,0.25 0.1,0.2 6.7,-0.3 0.55,-2.55 q 0.1,-1.2 -0.2,-2.4 -2.4,-1.1 -5.15,-0.85 m -44,19.85 4.1,1.3 q 6.35,1.85 12.85,2.5 l 2.95,-0.05 2.75,0.15 3.25,-1.15 q 8.9,-3.75 17.9,-6.8 L 20,-10.8 q 6.05,-3.05 11.9,-6.4 l 1.05,-0.55 q -2.75,-0.1 -5.2,-1.2 l -0.3,0.1 -1.85,2.6 q -1.3,1.35 -3.2,1.6 -3.85,0.5 -7.2,-1.15 -1.2,-0.55 -1.9,-1.75 l -0.25,-2.95 q -5.25,0.65 -10.2,2.95 l -1.55,0.7 q 1.8,1.6 1.4,4.8 l -0.8,4.6 Q 1.5,-5.7 -0.45,-5.1 l -4.3,1.2 Q -11.9,-2 -15,-7.6 q -0.65,-1.15 -0.6,-2.55 l 0.05,-0.55 -6.8,2.2 -4.85,1.65 2.15,0.65 m 40.3,3.9 h 0.05 l 0.15,-0.2 0.25,-0.2 0.25,-0.25 0.4,-0.1 0.4,-0.05 v -0.05 l 0.55,0.15 0.45,0.2 0.2,0.25 q 1.85,2.05 3,4.35 l 1.15,3 q 0.25,0.8 -0.6,1.15 l -3.75,1.3 q 1.5,1.4 2.5,3.4 0.75,1.4 -0.25,2.5 L 19.9,13.2 H 19.85 Q 16.1,12.5 13.1,9.6 11.3,7.9 11.65,6.6 V 6.3 Q 11.4,3.15 15.4,3.15 l 1.55,-0.3 -1.7,-3 q -0.55,-1.05 0,-2.15 m 18.65,-3.8 -0.15,-3.25 -0.15,-3.2 -0.05,-0.25 -0.05,-1 -0.2,0.1 h -0.05 l -0.35,0.2 -0.2,0.1 -0.9,0.5 -0.3,0.15 -0.45,0.2 q -9.7,4.9 -19.55,9.5 L 6.05,0.45 5.4,1.05 -0.7,4.9 v 6.7 0.3 q 0.2,6.2 0,12.35 l -0.15,1.7 q 8.4,-3.6 16.9,-8.35 8.9,-4.95 18.1,-8.55 l 0.2,-0.8 0.15,-1.3 V 6.7 L 34,-3.85 V -4.2 l -0.1,-1.9 m -40.4,-9.45 q -1.8,0.4 -3.45,1.2 l -1.05,0.55 -0.15,0.2 -0.15,0.2 -0.1,0.25 q 0,0.75 -0.15,1.5 l -0.2,2.15 0.2,0.6 q 2.1,1.9 5.05,1.5 l 0.5,-0.05 2.15,-1 q 0.5,-0.2 0.95,-0.5 l 1.1,-0.35 q 0.15,-0.05 0.25,-0.15 l 0.15,-1.7 q 0.05,-1.65 -0.3,-3.25 l -0.05,-0.2 q -1.95,-1.7 -4.75,-0.95 m -22.7,24.15 0.5,1.75 q 0.55,1.85 0.45,3.75 l 0.75,7.3 q 0.15,1.25 0.15,2.55 9.7,4.75 20.45,5.95 1.15,-0.3 1.7,-1.15 L -5.65,13.2 -5.7,10.3 -5.75,8.35 -5.9,6.45 -6.15,3.9 Q -13.8,4.1 -21.2,1.6 -23.75,0.7 -26.45,0.15 l -4.8,-1.3 q 0.75,4.95 2.05,9.75"
         fill="#000000"
         fill-rule="evenodd"
         stroke="none"
         id="path1" />
      <path
         d="m 18.95,-26.05 q 2.75,-0.25 5.15,0.85 0.3,1.2 0.2,2.4 l -0.55,2.55 -6.7,0.3 -0.1,-0.2 -0.1,-0.25 -0.1,-0.2 v -2.35 l 0.15,-2.15 0.65,-0.4 1.4,-0.55"
         fill="#bb8686"
         fill-rule="evenodd"
         stroke="none"
         id="path2" />
      <path
         d="m 17.95,-2.55 q 4.4,0.2 6,2.85 1.2,1.95 0.9,5.2 -0.5,5.85 -4.85,7.65 1,-1.1 0.25,-2.5 -1,-2 -2.5,-3.4 L 21.5,5.95 Q 22.35,5.6 22.1,4.8 l -1.15,-3 q -1.15,-2.3 -3,-4.35 M 9.6,7.25 Q 8.25,4.1 10.4,1.2 q 1.9,-2.7 4.85,-3.5 -0.55,1.1 0,2.15 l 1.7,3 -1.55,0.3 q -4,0 -3.75,3.15 v 0.3 q -0.35,1.3 1.45,3 3,2.9 6.75,3.6 -1.95,0.75 -4.6,0.7 -5.75,-0.05 -5,-5.45 L 9.6,7.25 m -16.1,-22.8 q 2.8,-0.75 4.75,0.95 l 0.05,0.2 q 0.35,1.6 0.3,3.25 l -0.15,1.7 q -0.1,0.1 -0.25,0.15 l -1.1,0.35 q -0.45,0.3 -0.95,0.5 l -2.15,1 -0.5,0.05 q -2.95,0.4 -5.05,-1.5 l -0.2,-0.6 0.2,-2.15 q 0.15,-0.75 0.15,-1.5 l 0.1,-0.25 0.15,-0.2 0.15,-0.2 1.05,-0.55 q 1.65,-0.8 3.45,-1.2"
         fill="#d8d8d8"
         fill-rule="evenodd"
         stroke="none"
         id="path3" />
      <path
         d="M 17.95,-2.55 17.75,-2.8 17.3,-3 16.75,-3.15 v 0.05 l -0.4,0.05 -0.4,0.1 -0.25,0.25 -0.25,0.2 -0.15,0.2 H 15.25 Q 12.3,-1.5 10.4,1.2 8.25,4.1 9.6,7.25 L 1.55,10.8 -0.7,11.9 V 11.6 4.9 l 6.1,-3.85 0.65,-0.6 5.45,-3.5 q 9.85,-4.6 19.55,-9.5 l 0.45,-0.2 0.3,-0.15 0.9,-0.5 0.2,-0.1 0.6,0.65 0.05,0.05 0.05,0.25 0.15,3.2 0.15,3.25 q -0.65,1.5 -1.95,2.55 l -0.05,0.05 -0.75,0.55 -0.6,0.35 q -0.8,0.4 -1.75,0.7 -1.6,0.5 -3.1,1.3 l -1.75,0.9 q -1.6,-2.65 -6,-2.85 m -43,-3.65 -2.15,-0.65 4.85,-1.65 6.8,-2.2 -0.05,0.55 q -0.05,1.4 0.6,2.55 3.1,5.6 10.25,3.7 l 4.3,-1.2 Q 1.5,-5.7 1.9,-7.45 l 0.8,-4.6 q 0.4,-3.2 -1.4,-4.8 l 1.55,-0.7 q 4.95,-2.3 10.2,-2.95 l 0.25,2.95 q 0.7,1.2 1.9,1.75 3.35,1.65 7.2,1.15 1.9,-0.25 3.2,-1.6 l 1.85,-2.6 0.3,-0.1 q 2.45,1.1 5.2,1.2 l -1.05,0.55 q -5.85,3.35 -11.9,6.4 l -1.25,0.55 q -9,3.05 -17.9,6.8 L -2.4,-2.3 -5.15,-2.45 -8.1,-2.4 q -6.5,-0.65 -12.85,-2.5 l -4.1,-1.3 m 19.4,19.4 -3.7,-0.15 q -9.5,-2.85 -19.4,-4.4 L -29.2,8.6 q -1.3,-4.8 -2.05,-9.75 l 4.8,1.3 q 2.7,0.55 5.25,1.45 7.4,2.5 15.05,2.3 l 0.25,2.55 0.15,1.9 0.05,1.95 0.05,2.9"
         fill="#474747"
         fill-rule="evenodd"
         stroke="none"
         id="path4" />
      <path
         d="m 23.95,0.3 1.75,-0.9 q 1.5,-0.8 3.1,-1.3 0.95,-0.3 1.75,-0.7 l 0.6,-0.35 0.75,-0.55 0.05,-0.05 q 1.3,-1.05 1.95,-2.55 l 0.1,1.9 v 0.35 L 34.5,6.7 v 0.25 l -0.15,1.3 -0.2,0.8 q -9.2,3.6 -18.1,8.55 -8.5,4.75 -16.9,8.35 l 0.15,-1.7 q 0.2,-6.15 0,-12.35 l 2.25,-1.1 8.05,-3.55 0.65,1.2 q -0.75,5.4 5,5.45 2.65,0.05 4.6,-0.7 H 19.9 L 20,13.15 q 4.35,-1.8 4.85,-7.65 0.3,-3.25 -0.9,-5.2 m 9.6,-13.1 -0.05,-0.05 -0.6,-0.65 0.35,-0.2 h 0.05 l 0.2,-0.1 0.05,1 m -62.75,21.4 0.45,0.05 q 9.9,1.55 19.4,4.4 l 3.7,0.15 0.45,15.55 q -0.55,0.85 -1.7,1.15 -10.75,-1.2 -20.45,-5.95 0,-1.3 -0.15,-2.55 l -0.75,-7.3 q 0.1,-1.9 -0.45,-3.75 L -29.2,8.6"
         fill="#343434"
         fill-rule="evenodd"
         stroke="none"
         id="path5" />
    </g>
    <g
       id="sprite1"
       transform="translate(17.4,15.85)">
      <use
         ffdec:characterId="31"
         height="57.200001"
         transform="matrix(0.5366,0,0,0.5366,-16.6582,-14.546)"
         width="70.75"
         xlink:href="#sprite2"
         id="use5" />
    </g>
    <g
       id="sprite2"
       transform="translate(-8.65,-10.35)">
      <use
         ffdec:characterId="30"
         height="57.200001"
         transform="translate(8.65,10.35)"
         width="70.75"
         xlink:href="#shape1"
         id="use6" />
    </g>
    <g
       id="shape1"
       transform="translate(-8.65,-10.35)">
      <path
         d="m 14.8,41.7 q 0.65,-1.75 2.65,-2.5 1.8,-0.8 3.7,-0.25 1.15,0.45 2.25,1.2 l 0.9,0.4 q 1.65,0.9 2.85,2.5 L 37.8,30.1 q 2.35,-2.8 3.75,-3.95 1.5,-1.15 4.25,-2.4 18.2,-8.85 27.65,-12.6 2.15,-0.8 3.25,-0.8 h 0.8 l 1.9,2.4 -0.2,0.8 q -0.2,1.1 -1.55,3 -5.85,8.25 -18.85,23.8 -1.85,2.35 -3.35,3.5 -1.4,1.15 -4.75,2.75 l -15.15,7.15 q 1.2,1.6 1.75,3.4 l 0.2,1 0.55,2.5 q 0.1,1.95 -1.1,3.55 -1.2,1.65 -3.05,1.9 l -1.3,0.05 q -1.65,0.2 -3.45,-0.65 -1.85,-0.9 -3,-2.6 L 25,60.95 23.8,62.1 q -2.6,2.85 -4.3,3.95 -2.85,1.8 -5.5,1.45 l -1.65,-0.5 -1.2,-0.7 -0.2,-0.2 q -1,-0.85 -1.6,-1.9 L 9.25,64 9.15,63.8 8.75,62.4 q -0.2,-0.8 -0.05,-1.7 0.25,-2.65 2.7,-5.05 1.5,-1.3 4.9,-3.15 L 17.7,51.55 16.05,50 q -1.35,-1.5 -1.8,-3.6 -0.4,-1.85 0.25,-3.45 l 0.3,-1.25"
         fill="#000000"
         fill-opacity="0.372549"
         fill-rule="evenodd"
         stroke="none"
         id="path6" />
    </g>
  </defs>
</svg>
