<?xml version="1.0" encoding="UTF-8" standalone="no"?>
<svg
   ffdec:objectType="frame"
   height="34.886745"
   width="63.698925"
   version="1.1"
   id="svg4"
   xmlns:xlink="http://www.w3.org/1999/xlink"
   xmlns="http://www.w3.org/2000/svg"
   xmlns:svg="http://www.w3.org/2000/svg"
   xmlns:ffdec="https://www.free-decompiler.com/flash">
  <g
     transform="translate(32.669512,23.086747)"
     id="g1">
    <use
       ffdec:characterId="17"
       height="119.15"
       id="rarity"
       transform="translate(-58.5,-60.65)"
       width="119.15"
       xlink:href="#sprite0" />
    <use
       ffdec:characterId="1177"
       height="34.900002"
       transform="translate(-32.65,-23.1)"
       width="63.700001"
       xlink:href="#shape0"
       id="use1" />
  </g>
  <defs
     id="defs4">
    <g
       id="shape0"
       transform="translate(31.35,21.2)">
      <path
         d="m -22.85,-1.25 q -0.75,0.9 -1.9,0.7 l -0.05,0.3 -0.1,1.15 v 0.5 q 0.3,0.45 0.45,1 l 0.1,0.3 0.05,0.2 q 5.5,5.75 13.1,4.95 Q 2.3,6.45 15.35,3.1 L 18.2,2.8 q 4.45,0.3 7.4,-2.45 0.7,-0.65 1,-1.6 0.3,-0.9 0.05,-1.8 L 24.9,-4.7 Q 24.4,-5.05 24.05,-5.5 L 20.8,-7 q -10.25,-4.55 -21.05,-7.45 -4.5,-1.25 -9.3,-0.55 -8.55,1.8 -13.2,9.05 l -0.3,0.55 q 2.05,1.25 0.3,3.95 l -0.1,0.2 M -10.2,-21.1 q 9.8,-0.6 18.9,2.95 9.2,3.55 17.75,8.45 l 2.4,1.5 q 4.55,3 3.15,8.25 L 30.85,3 Q 28.75,7.5 23.5,7.85 17.7,8.3 12.1,9.8 -1.6,13.45 -15.8,13.7 l -2.55,-0.3 q -7.2,-2 -11.35,-7.95 -1.85,-2.65 -1.65,-5.9 0.15,-2 0.95,-3.75 0.75,-3 2.45,-5.6 3.9,-5.8 10.25,-8.9 3.6,-1.8 7.5,-2.4 m 7.65,15.8 Q 1.3,-4 -1.4,-1.1 -2.4,0 -3.65,-0.9 -6.2,-2.85 -3.7,-4.85 -3.15,-5.3 -2.55,-5.3"
         fill="#000000"
         fill-rule="evenodd"
         stroke="none"
         id="path1" />
      <path
         d="m 20.8,-7 q 0.5,1.15 0.55,2.55 0.1,1.2 -0.85,1.95 Q 16.75,0.7 11.7,1.45 2,3 -7.95,3.2 -16,3.35 -22.6,-1.1 l -0.25,-0.15 0.1,-0.2 q 1.75,-2.7 -0.3,-3.95 l 0.3,-0.55 q 4.65,-7.25 13.2,-9.05 4.8,-0.7 9.3,0.55 10.8,2.9 21.05,7.45 m -23.35,1.7 q -0.6,0 -1.15,0.45 -2.5,2 0.05,3.95 Q -2.4,0 -1.4,-1.1 1.3,-4 -2.55,-5.3"
         fill="#383838"
         fill-rule="evenodd"
         stroke="none"
         id="path2" />
      <path
         d="m 20.8,-7 3.25,1.5 q 0.35,0.45 0.85,0.8 l 1.75,1.65 q 0.25,0.9 -0.05,1.8 -0.3,0.95 -1,1.6 Q 22.65,3.1 18.2,2.8 L 15.35,3.1 Q 2.3,6.45 -11.2,7.85 -18.8,8.65 -24.3,2.9 l -0.05,-0.2 -0.1,-0.3 Q -24.6,1.85 -24.9,1.4 V 0.9 l 0.1,-1.15 0.05,-0.3 q 1.15,0.2 1.9,-0.7 l 0.25,0.15 Q -16,3.35 -7.95,3.2 2,3 11.7,1.45 16.75,0.7 20.5,-2.5 21.45,-3.25 21.35,-4.45 21.3,-5.85 20.8,-7"
         fill="#2c2c2c"
         fill-rule="evenodd"
         stroke="none"
         id="path3" />
    </g>
    <g
       id="sprite1"
       transform="translate(17.4,15.85)">
      <use
         ffdec:characterId="31"
         height="57.200001"
         transform="matrix(0.5366,0,0,0.5366,-16.6582,-14.546)"
         width="70.75"
         xlink:href="#sprite2"
         id="use3" />
    </g>
    <g
       id="sprite2"
       transform="translate(-8.65,-10.35)">
      <use
         ffdec:characterId="30"
         height="57.200001"
         transform="translate(8.65,10.35)"
         width="70.75"
         xlink:href="#shape1"
         id="use4" />
    </g>
    <g
       id="shape1"
       transform="translate(-8.65,-10.35)">
      <path
         d="m 14.8,41.7 q 0.65,-1.75 2.65,-2.5 1.8,-0.8 3.7,-0.25 1.15,0.45 2.25,1.2 l 0.9,0.4 q 1.65,0.9 2.85,2.5 L 37.8,30.1 q 2.35,-2.8 3.75,-3.95 1.5,-1.15 4.25,-2.4 18.2,-8.85 27.65,-12.6 2.15,-0.8 3.25,-0.8 h 0.8 l 1.9,2.4 -0.2,0.8 q -0.2,1.1 -1.55,3 -5.85,8.25 -18.85,23.8 -1.85,2.35 -3.35,3.5 -1.4,1.15 -4.75,2.75 l -15.15,7.15 q 1.2,1.6 1.75,3.4 l 0.2,1 0.55,2.5 q 0.1,1.95 -1.1,3.55 -1.2,1.65 -3.05,1.9 l -1.3,0.05 q -1.65,0.2 -3.45,-0.65 -1.85,-0.9 -3,-2.6 L 25,60.95 23.8,62.1 q -2.6,2.85 -4.3,3.95 -2.85,1.8 -5.5,1.45 l -1.65,-0.5 -1.2,-0.7 -0.2,-0.2 q -1,-0.85 -1.6,-1.9 L 9.25,64 9.15,63.8 8.75,62.4 q -0.2,-0.8 -0.05,-1.7 0.25,-2.65 2.7,-5.05 1.5,-1.3 4.9,-3.15 L 17.7,51.55 16.05,50 q -1.35,-1.5 -1.8,-3.6 -0.4,-1.85 0.25,-3.45 l 0.3,-1.25"
         fill="#000000"
         fill-opacity="0.372549"
         fill-rule="evenodd"
         stroke="none"
         id="path4" />
    </g>
  </defs>
</svg>
