<?xml version="1.0" encoding="UTF-8" standalone="no"?>
<svg
   ffdec:objectType="frame"
   height="56.715958"
   width="71.77282"
   version="1.1"
   id="svg4"
   xmlns:xlink="http://www.w3.org/1999/xlink"
   xmlns="http://www.w3.org/2000/svg"
   xmlns:svg="http://www.w3.org/2000/svg"
   xmlns:ffdec="https://www.free-decompiler.com/flash">
  <g
     transform="translate(36.571429,27.769444)"
     id="g1">
    <use
       ffdec:characterId="17"
       height="119.15"
       id="rarity"
       transform="translate(-58.5,-60.65)"
       width="119.15"
       xlink:href="#sprite0" />
    <use
       ffdec:characterId="1112"
       height="56.700001"
       transform="translate(-36.55,-27.75)"
       width="71.75"
       xlink:href="#shape0"
       id="use1" />
  </g>
  <defs
     id="defs4">
    <g
       id="shape0"
       transform="translate(83.35,29.1)">
      <path
         d="m -66.45,16.05 3.15,-0.4 q 2.55,-0.95 3.6,-4.1 0.7,-1.95 0.6,-5.65 -0.3,-6.8 -2.35,-13.35 l -3.2,-9 q -1.45,1.95 -3.2,6 -2.5,5.9 -3.4,8.95 -1.2,4.1 -1.35,8.45 -0.2,2.75 0.4,4.6 0.75,2.55 2.65,3.65 1.15,0.65 3.1,0.85 m -12.1,-3.7 q -0.4,-2.05 -0.25,-4.5 0.15,-4.8 1.4,-9.1 1.5,-5.2 4.8,-11 2.15,-3.8 6.55,-10.2 1.7,-2.4 3.3,-2.35 1.3,0 2.2,1.45 0.45,0.65 1,2.55 l 2.75,8.35 q 1.85,5.2 2.55,8.4 1.05,4.95 1.05,10.85 0,4.4 -0.8,6.95 -1.3,3.95 -5,6.5 -3.7,2.5 -7.85,2.25 -4.15,-0.25 -7.5,-3.15 -3.35,-2.9 -4.2,-7 m 50.1,3.7 3.15,-0.4 q 2.55,-0.95 3.6,-4.1 0.5,-1.4 0.6,-3.6 V 5.9 q -0.3,-6.8 -2.35,-13.35 l -3.2,-9 -2.2,3.9 -1,2.1 q -2.5,5.9 -3.4,8.95 l -0.2,0.7 q -1,3.8 -1.15,7.75 -0.2,2.75 0.4,4.6 0.75,2.5 2.6,3.65 h 0.05 q 1.15,0.65 3.1,0.85 m -12.1,-3.7 q -0.4,-2.05 -0.25,-4.5 0.15,-4.8 1.4,-9.1 1.5,-5.2 4.8,-11 l 6.55,-10.2 q 1.7,-2.4 3.3,-2.35 1.3,0 2.2,1.45 0.45,0.65 1,2.55 l 2.75,8.35 q 1.85,5.2 2.55,8.4 1.05,4.95 1.05,10.85 0,4.4 -0.8,6.95 -1.3,3.95 -5,6.5 -3.7,2.5 -7.85,2.25 -4.15,-0.25 -7.5,-3.15 -3.35,-2.9 -4.2,-7"
         fill="#000000"
         fill-rule="evenodd"
         stroke="none"
         id="path1" />
      <path
         d="m -66.45,16.05 q -1.95,-0.2 -3.1,-0.85 -1.9,-1.1 -2.65,-3.65 -0.6,-1.85 -0.4,-4.6 0.15,-4.35 1.35,-8.45 0.9,-3.05 3.4,-8.95 1.75,-4.05 3.2,-6 l 3.2,9 q 2.05,6.55 2.35,13.35 0.1,3.7 -0.6,5.65 -1.05,3.15 -3.6,4.1 l -3.15,0.4 m 38,0 q -1.95,-0.2 -3.1,-0.85 h -0.05 q -1.85,-1.15 -2.6,-3.65 -0.6,-1.85 -0.4,-4.6 0.15,-3.95 1.15,-7.75 l 0.2,-0.7 q 0.9,-3.05 3.4,-8.95 l 1,-2.1 2.2,-3.9 3.2,9 q 2.05,6.55 2.35,13.35 v 2.05 q -0.1,2.2 -0.6,3.6 -1.05,3.15 -3.6,4.1 l -3.15,0.4"
         fill="#f9ffbb"
         fill-rule="evenodd"
         stroke="none"
         id="path2" />
      <path
         d="m -78.3,22.4 q -2.7,-2.7 -3.8,-5.35 -1.15,-2.7 -1.25,-6.75 -0.15,-4.35 0.75,-8.55 0.65,-3 2.3,-7.85 l 2.1,-5.55 2.45,-4.55 5.05,-7.15 q 2.7,-3.35 4.95,-4.65 1.55,-0.85 3.2,-1.05 1.8,-0.25 3.3,0.4 3,1.25 4.9,6.55 4.75,12.7 4.9,28.95 0.1,5.85 -1.1,9.15 -1.8,5.05 -6.9,8.45 -3.5,2.3 -7.45,2.95 -4.2,0.65 -7.75,-0.85 -2.85,-1.25 -5.65,-4.15 m -0.25,-10.05 q 0.85,4.1 4.2,7 3.35,2.9 7.5,3.15 4.15,0.25 7.85,-2.25 3.7,-2.55 5,-6.5 0.8,-2.55 0.8,-6.95 0,-5.9 -1.05,-10.85 -0.7,-3.2 -2.55,-8.4 l -2.75,-8.35 q -0.55,-1.9 -1,-2.55 -0.9,-1.45 -2.2,-1.45 -1.6,-0.05 -3.3,2.35 -4.4,6.4 -6.55,10.2 -3.3,5.8 -4.8,11 -1.25,4.3 -1.4,9.1 -0.15,2.45 0.25,4.5 m 46.75,-35.05 3.3,-3.05 q 2.15,-1.45 4.3,-1.1 1.95,0.35 3.6,2.25 1.05,1.35 2.15,3.8 4.95,11.3 6.45,23.3 0.85,6.55 -0.1,10.6 -1,4.5 -4.2,8 -3.25,3.6 -7.6,4.85 -4.4,1.3 -9,-0.15 -4.65,-1.45 -7.35,-5.05 -4.05,-5.3 -3.65,-16.05 0.2,-4.65 0.75,-7.35 1.95,-9.25 11.35,-20.05 m -8.75,35.05 q 0.85,4.1 4.2,7 3.35,2.9 7.5,3.15 4.15,0.25 7.85,-2.25 3.7,-2.55 5,-6.5 0.8,-2.55 0.8,-6.95 0,-5.9 -1.05,-10.85 -0.7,-3.2 -2.55,-8.4 l -2.75,-8.35 q -0.55,-1.9 -1,-2.55 -0.9,-1.45 -2.2,-1.45 -1.6,-0.05 -3.3,2.35 l -6.55,10.2 q -3.3,5.8 -4.8,11 -1.25,4.3 -1.4,9.1 -0.15,2.45 0.25,4.5"
         fill="#f5ffd8"
         fill-opacity="0.498039"
         fill-rule="evenodd"
         stroke="none"
         id="path3" />
    </g>
    <g
       id="sprite1"
       transform="translate(17.4,15.85)">
      <use
         ffdec:characterId="31"
         height="57.200001"
         transform="matrix(0.5366,0,0,0.5366,-16.6582,-14.546)"
         width="70.75"
         xlink:href="#sprite2"
         id="use3" />
    </g>
    <g
       id="sprite2"
       transform="translate(-8.65,-10.35)">
      <use
         ffdec:characterId="30"
         height="57.200001"
         transform="translate(8.65,10.35)"
         width="70.75"
         xlink:href="#shape1"
         id="use4" />
    </g>
    <g
       id="shape1"
       transform="translate(-8.65,-10.35)">
      <path
         d="m 14.8,41.7 q 0.65,-1.75 2.65,-2.5 1.8,-0.8 3.7,-0.25 1.15,0.45 2.25,1.2 l 0.9,0.4 q 1.65,0.9 2.85,2.5 L 37.8,30.1 q 2.35,-2.8 3.75,-3.95 1.5,-1.15 4.25,-2.4 18.2,-8.85 27.65,-12.6 2.15,-0.8 3.25,-0.8 h 0.8 l 1.9,2.4 -0.2,0.8 q -0.2,1.1 -1.55,3 -5.85,8.25 -18.85,23.8 -1.85,2.35 -3.35,3.5 -1.4,1.15 -4.75,2.75 l -15.15,7.15 q 1.2,1.6 1.75,3.4 l 0.2,1 0.55,2.5 q 0.1,1.95 -1.1,3.55 -1.2,1.65 -3.05,1.9 l -1.3,0.05 q -1.65,0.2 -3.45,-0.65 -1.85,-0.9 -3,-2.6 L 25,60.95 23.8,62.1 q -2.6,2.85 -4.3,3.95 -2.85,1.8 -5.5,1.45 l -1.65,-0.5 -1.2,-0.7 -0.2,-0.2 q -1,-0.85 -1.6,-1.9 L 9.25,64 9.15,63.8 8.75,62.4 q -0.2,-0.8 -0.05,-1.7 0.25,-2.65 2.7,-5.05 1.5,-1.3 4.9,-3.15 L 17.7,51.55 16.05,50 q -1.35,-1.5 -1.8,-3.6 -0.4,-1.85 0.25,-3.45 l 0.3,-1.25"
         fill="#000000"
         fill-opacity="0.372549"
         fill-rule="evenodd"
         stroke="none"
         id="path4" />
    </g>
  </defs>
</svg>
