<?xml version="1.0" encoding="UTF-8" standalone="no"?>
<svg
   ffdec:objectType="frame"
   height="95.117088"
   width="96.829132"
   version="1.1"
   id="svg6"
   xmlns:xlink="http://www.w3.org/1999/xlink"
   xmlns="http://www.w3.org/2000/svg"
   xmlns:svg="http://www.w3.org/2000/svg"
   xmlns:ffdec="https://www.free-decompiler.com/flash">
  <g
     transform="translate(49.068421,48.215306)"
     id="g1">
    <use
       ffdec:characterId="17"
       height="119.15"
       id="rarity"
       transform="translate(-58.5,-60.65)"
       width="119.15"
       xlink:href="#sprite0" />
    <use
       ffdec:characterId="556"
       height="95.099998"
       transform="translate(-49.05,-48.2)"
       width="96.800003"
       xlink:href="#shape0"
       id="use1" />
  </g>
  <defs
     id="defs6">
    <g
       id="shape0"
       transform="translate(48.65,47.4)">
      <path
         d="m 42,-32.2 q -0.55,-1.5 -1.55,-2.7 l -3,-2.8 -0.8,-0.6 q -2.1,-1.6 -3.5,-2.25 -2.1,-0.95 -5,-1 -3.6,-0.1 -7.25,1.25 -3.45,1.2 -6.45,3.6 H 14.4 l -0.3,0.3 -0.05,0.05 q -1.55,1.1 -2.6,2.6 1.45,0.3 3.2,1.95 1.8,1.8 1.85,3.25 0.05,1.65 -1.9,3.4 l -2.65,1.8 -0.55,0.3 0.2,0.45 0.1,0.05 -0.55,0.5 -0.55,0.8 2.95,0.25 q 2.15,0.9 2.5,3.15 l 0.05,0.5 0.75,-0.2 q 1.55,-0.35 2.95,0.6 l 0.4,0.3 0.8,0.9 0.4,0.95 0.15,0.4 0.15,0.5 0.65,-0.05 0.75,0.15 0.95,0.6 0.5,0.7 0.1,0.3 0.35,0.95 0.05,0.1 0.25,0.05 0.85,-0.2 1.25,0.4 1.1,0.25 h 0.1 l 2,-0.35 0.25,-0.1 q 1.3,-0.55 2.05,-1.75 l 0.15,-0.15 0.3,-0.9 -0.15,-1.3 -0.2,-0.2 -0.2,-0.25 -0.2,-0.2 0.7,-1.05 q 1.6,-2.45 2.2,-4.55 L 35.7,-22 q 0.5,-1.85 0.3,-3.55 l -0.25,-1.25 -0.75,-2.1 0.05,-0.2 0.15,-0.15 0.35,-0.1 0.75,0.35 1.2,1.45 0.3,0.4 0.6,1.75 q 0.45,1.95 0.15,4.4 l -0.2,0.95 q 1.95,-1.85 2.95,-3.55 1.55,-2.6 1.3,-5.8 L 42,-32.2 m -17.85,5.6 0.45,-0.2 0.1,-0.1 q 1.8,-0.8 3.4,-0.6 l 0.7,0.1 0.95,0.2 0.25,0.15 q 1.25,0.6 2.25,1.85 l 0.15,0.15 0.05,0.05 0.5,0.7 0.55,1.65 0.1,0.6 q 0,1.15 -0.65,2.45 -0.6,1.1 -1.35,1.9 l -1,1 -1.35,0.75 q -1.4,0.6 -2.65,0.5 -0.9,-0.2 -1.8,-0.75 l -0.15,-0.15 -0.55,-0.5 q -1.7,-1.25 -2.45,-3 -0.55,-1.2 -0.45,-2.3 l 0.3,-1.6 q 0.65,-1.85 2.65,-2.85 m -16.7,-11.55 1.5,-1.25 1.45,-1.1 1.7,-1.45 1.7,-1.35 q 2.5,-1.9 7.2,-3.05 2.8,-0.8 5.05,-1 4.7,-0.4 9.35,1.65 4.4,1.85 7.85,5.45 1.9,2 3.1,4.3 1.95,3.6 1.8,7.8 -0.15,4.25 -2.45,7.55 -1.25,1.7 -3.45,3.35 -1.2,1 -3.95,2.75 l -0.4,0.25 q 0.2,0.95 -0.4,2.3 -1.1,2.7 -3.3,3.95 -1.6,1.05 -3.7,1 l -2.8,-0.5 -0.35,0.8 q -1.7,3.5 -3,4.9 -2.05,2.3 -4.5,2.4 l -0.1,1.2 -0.95,1.4 -1.25,1.25 -2.2,2 Q 14.1,7.5 12.95,7.9 L 11.7,8.3 v 0.15 l -0.4,1.4 -0.65,0.8 -0.75,0.6 -1.2,1.2 -1.35,0.95 -1.55,0.7 -1.5,1 -1.4,0.5 -1.55,0.9 -2.15,-0.2 -1.4,-0.95 -10.7,9.65 -10.55,9.85 q -0.85,0.7 -1.1,1.3 l -0.35,1.05 -0.1,1.15 q -0.2,2.45 -1.55,4.65 -1.35,2.2 -3.45,3.4 -2.2,1.3 -4.75,1.3 -2.7,0.05 -4.7,-1.3 -2.45,-1.55 -2.6,-3.85 -0.1,-1.1 -0.4,-1.4 -0.25,-0.2 -1.1,-0.25 -1.45,-0.2 -3.35,-2.45 -1.35,-1.55 -1.6,-2.55 -0.4,-1.3 0.15,-2.8 0.6,-1.5 2.05,-2.9 l 2.8,-2.3 q 2.95,-2.15 4.75,-2.8 l 5.45,-0.15 1.15,0.75 0.45,-0.5 2.1,-1.95 1.8,-2.05 2.25,-2.15 12.7,-11.45 2.05,-1.5 -0.3,-1.45 q -0.25,-1.25 0.15,-1.9 l 0.9,-0.85 0.85,-0.7 0.7,-1.35 1.3,-1.3 3.6,-3.7 q 1.25,-1.25 2.35,-1.4 l 0.85,0.05 0.3,-1.4 1.25,-1.45 2.45,-2 -0.3,-0.4 q -1,-1.4 -1.05,-3.75 0,-2.4 1.25,-4.35 0.7,-1.05 1.5,-1.6 -0.7,-0.2 -1.1,-0.85 -0.55,-0.65 -0.4,-1.35 0,-0.4 0.4,-0.85 v -0.25 h 0.2 l 0.05,-0.1 q 0.95,-0.95 2.5,-1.2 l 1.7,-0.2 0.8,-0.95 Q 9.5,-28.1 9.3,-28.8 H 8.7 Q 6.95,-28.95 6.05,-29.75 5.25,-30.35 4.8,-31.5 L 4.4,-32.6 H 4.3 l 0.05,-0.2 q -0.1,-0.75 0.1,-1.25 0.2,-0.75 1,-1.65 l 0.55,-0.55 1.45,-1.9 m 0.85,23.55 1,-0.2 1.85,-1.3 0.7,-0.4 0.15,0.2 0.1,-0.1 0.1,-0.15 q 0.2,-0.75 -0.1,-1.1 l -0.95,-0.2 -1.05,0.15 -1.1,0.2 -1.2,0.15 H 7.5 l -0.1,-0.05 -0.3,0.75 q -0.3,0.8 0.1,1.45 0.3,0.45 0.9,0.5 l 0.2,0.1 m 6.55,4.2 0.6,-0.4 1.4,-0.9 0.65,-0.75 0.65,0.25 0.1,0.05 0.1,-0.2 0.2,-0.9 -0.3,-0.85 -0.85,-0.15 -1.15,0.55 -0.65,0.5 -1,0.75 -0.4,0.5 -0.45,0.5 -0.5,0.9 Q 13.2,-10 13.5,-9.9 H 14 l 0.85,-0.5 M 9.55,-0.05 9.2,-0.9 q -0.4,-1 -0.05,-1.5 l 2.25,2.05 1.35,1.05 q 0.7,0.6 1.35,0.8 l 0.45,0.15 1.1,-0.95 q 0.65,-1.15 -0.1,-2.3 l -0.6,-0.65 Q 14.65,-2.6 14.5,-3.1 l -0.35,-1.8 h -0.1 q -1.1,0.55 -1.9,0.5 -0.95,0.05 -1.8,-0.6 L 10.3,-5.05 9.75,-5.6 Q 9.35,-6 9.1,-6.7 L 8.9,-7.25 8.7,-8.7 V -9.9 H 8.6 L 7.95,-8.7 7.7,-8.5 6.2,-7.35 5.75,-7.1 q -0.7,0.4 -0.95,0.8 -0.35,0.5 -0.3,1.2 l 0.15,0.7 0.9,1.65 0.25,0.45 0.7,0.9 0.15,0.15 Q 8.7,1.4 10.2,2.65 10.95,3.3 11.5,3.3 L 11.95,3.2 11.7,2.7 10.8,1.5 10.55,1.4 Q 10,0.95 9.55,-0.05 M 4.55,9.4 5.15,9.15 6.55,8 7.05,6.85 7.15,6.7 6.5,6 3.85,2.95 1.5,-0.15 q -0.9,-1.1 -1.3,-1.9 l -0.35,-0.6 q -0.4,-0.05 -0.9,0.35 L -2,-1.2 -2.05,-1.1 -3.8,0.25 -4.15,0.95 -4.55,2.05 -4.6,2 -5.15,3.2 -5.8,3.85 -6,4.05 l -0.3,0.4 0.55,0.45 6.5,6.45 3.5,-1.75 q 0.2,-0.15 0.3,-0.2 m 16.65,-20.1 -0.85,0.35 -0.1,0.1 -0.35,0.25 -0.25,0.1 -0.05,0.65 -0.45,0.9 -0.05,0.1 q -0.65,1.45 -0.7,2.3 v 0.15 q -0.1,0.7 0.3,1.25 0.45,0.6 1,0.65 0.85,0.05 1.65,-1.2 l 0.2,-0.3 0.65,-1.45 0.95,-2.2 -0.3,-0.3 -0.35,-0.6 -0.05,-0.1 -0.05,-0.1 -0.65,-0.7 -0.55,0.15 m -28.45,25.65 1.9,-1.7 0.5,-0.45 -0.55,-0.45 -2.55,-2.7 -0.85,0.4 -0.5,0.3 -0.5,0.2 -0.6,0.45 q -0.35,0.2 -0.7,0.55 l -0.65,0.5 -1.45,1.35 -8,7.05 -2.6,2.4 -0.75,0.8 -0.3,0.35 -0.7,0.75 -1.2,1.15 -2.75,2.35 -1.75,1.85 -0.6,0.25 -0.7,0.1 q -0.65,-0.05 -1.1,-0.5 L -33.8,29.8 -34.35,29.65 -34.6,29.6 h -0.1 l -1.2,-0.4 q -0.95,-0.1 -2.7,0.75 l -0.85,0.45 -1.7,1.05 -0.2,0.2 -0.45,0.25 -1.2,1.3 -0.1,0.1 -0.45,0.8 -0.25,0.7 q 0.05,0.65 0.75,1 0.45,0.35 1,0.4 h 0.35 l 1.3,-0.1 0.4,-0.1 1,0.1 q 0.35,0.05 0.65,0.25 l 0.95,0.85 0.3,0.6 q 0.25,0.65 0.15,1.3 l -0.25,1.25 -0.15,1.25 q 0.35,0.9 1.35,1.25 0.95,0.3 1.95,0 l 0.45,-0.05 q 1.45,-0.6 2.45,-1.8 1.25,-1.4 1.35,-3.2 v -1.15 l 0.2,-1.2 1.3,-1.6 2.9,-2.6 1.1,-1.1 2.95,-2.6 -1.6,0.2 -0.8,-0.05 q -0.4,-0.1 -0.7,-0.5 l -0.1,-0.1 -0.1,-0.75 0.2,-0.3 0.4,-0.4 q 0.75,-0.5 1.8,-0.55 l 1.2,-0.05 2.05,-0.4 h 0.9 l 8.2,-7.35 2.65,-2.35"
         fill="#000000"
         fill-rule="evenodd"
         stroke="none"
         id="path1" />
      <path
         d="M -4.15,0.95 -3.8,0.25 -2.05,-1.1 -2,-1.2 -1.05,-2.3 q 0.5,-0.4 0.9,-0.35 l 0.35,0.6 q 0.4,0.8 1.3,1.9 L 3.85,2.95 6.5,6 7.15,6.7 7.05,6.85 6.55,8 5.15,9.15 4.55,9.4 Q 2.8,9 1.1,7.55 L -2.45,4 -3.95,1.85 -4.15,0.95 M -9.9,17.3 -18.1,24.65 H -19 l -2.05,0.4 -1.2,0.05 q -1.05,0.05 -1.8,0.55 l -0.4,0.4 -0.55,-0.55 -0.55,-0.75 0.7,-0.75 0.3,-0.35 0.75,-0.8 2.6,-2.4 8,-7.05 0.4,0.1 q 0.8,0.1 1.45,0.95 l 0.95,1.7 0.5,1.15 m -28.45,19.05 q -0.3,-0.2 -0.65,-0.25 l -1,-0.1 -0.9,-0.35 -1.75,-1.75 -0.35,-0.7 1.2,-1.3 0.45,-0.25 0.2,-0.2 1.7,-1.05 0.85,-0.45 q 1.75,-0.85 2.7,-0.75 l 1.2,0.4 h 0.1 l 0.25,0.05 0.55,0.15 0.15,0.15 q 0.45,0.45 1.1,0.5 l 0.7,-0.1 q 0.4,1.05 -0.05,2.25 -0.4,1.25 -1.9,2.3 l -0.55,0.45 -1.9,0.85 -2.1,0.15"
         fill="#e2e2e2"
         fill-rule="evenodd"
         stroke="none"
         id="path2" />
      <path
         d="m 23.1,-13.8 1.55,-0.2 2.2,0.4 2.1,0.45 2.2,-0.15 q 1.1,-0.4 1.6,-1.35 l 0.25,-0.75 0.2,0.2 0.15,1.3 -0.3,0.9 -0.15,0.15 q -0.75,1.2 -2.05,1.75 l -0.25,0.1 -2,0.35 h -0.1 l -1.1,-0.25 -1.25,-0.4 -0.85,0.2 -0.25,-0.05 -0.05,-0.1 -0.35,-0.95 -0.1,-0.3 -0.5,-0.7 -0.95,-0.6 M 6.2,-7.35 7.7,-8.5 7.95,-8.7 8.6,-9.9 h 0.1 v 1.2 l 0.2,1.45 0.2,0.55 q 0.25,0.7 0.65,1.1 l 0.55,0.55 0.05,0.05 q 0.85,0.65 1.8,0.6 0.8,0.05 1.9,-0.5 h 0.1 l 0.35,1.8 q 0.15,0.5 0.45,0.85 l 0.6,0.65 q 0.75,1.15 0.1,2.3 L 14.55,1.65 14.1,1.5 Q 13.45,1.3 12.75,0.7 L 11.4,-0.35 9.15,-2.4 Q 8.8,-1.9 9.2,-0.9 l 0.35,0.85 -1,-1.1 -0.75,-1 -0.3,-0.4 -0.65,-1.15 -0.4,-0.8 q -0.3,-1 -0.3,-2.2 L 6.2,-7.35 M -10.4,11 l 0.6,-0.45 0.5,-0.2 0.5,-0.3 0.85,-0.4 2.55,2.7 0.55,0.45 -0.5,0.45 -1.9,1.7 -0.65,-0.7 -2.45,-3.2 L -10.4,11 m -14.15,16.1 0.1,0.1 q 0.3,0.4 0.7,0.5 l 0.8,0.05 1.6,-0.2 -2.95,2.6 -1.1,1.1 -0.1,-0.05 q -1.4,-0.4 -1.75,-1.65 -0.2,-0.5 0,-1.15 0.2,-0.65 0.75,-0.95 l 1.45,-0.35 h 0.5 m -9.05,15.7 -0.45,0.05 q -1,0.3 -1.95,0 -1,-0.35 -1.35,-1.25 l 0.15,-1.25 0.25,-1.25 q 0.1,-0.65 -0.15,-1.3 l -0.3,-0.6 -0.95,-0.85 2.1,-0.15 q 0.5,0.4 0.9,1.1 l 0.5,0.9 0.55,2.1 0.55,2.15 0.15,0.35 M -40,36 l -0.4,0.1 -1.3,0.1 h -0.35 q -0.55,-0.05 -1,-0.4 -0.7,-0.35 -0.75,-1 l 0.25,-0.7 0.45,-0.8 0.1,-0.1 0.35,0.7 1.75,1.75 0.9,0.35"
         fill="#adadad"
         fill-rule="evenodd"
         stroke="none"
         id="path3" />
      <path
         d="m 37.75,-37.4 q 2.1,1.4 3.55,3.85 l 0.7,1.35 0.6,2.8 q 0.25,3.2 -1.3,5.8 -1,1.7 -2.95,3.55 l 0.2,-0.95 q 0.3,-2.45 -0.15,-4.4 l -0.6,-1.75 -0.3,-0.4 -1.2,-1.45 -0.75,-0.35 -0.35,0.1 -0.15,0.15 -0.05,0.2 0.75,2.1 0.25,1.25 q 0.2,1.7 -0.3,3.55 l -0.2,0.55 q -0.6,2.1 -2.2,4.55 l -0.7,1.05 0.2,0.2 0.2,0.25 -0.25,0.75 q -0.5,0.95 -1.6,1.35 l -2.2,0.15 -2.1,-0.45 -2.2,-0.4 -1.55,0.2 -0.75,-0.15 -0.65,0.05 -0.15,-0.5 -0.15,-0.4 -0.4,-0.95 -0.8,-0.9 -0.4,-0.3 q -1.4,-0.95 -2.95,-0.6 l -0.75,0.2 -0.05,-0.5 Q 15.7,-20.1 13.55,-21 l -2.95,-0.25 0.55,-0.8 0.55,-0.5 -0.1,-0.05 -0.2,-0.45 0.55,-0.3 2.65,-1.8 q 1.95,-1.75 1.9,-3.4 -0.05,-1.45 -1.85,-3.25 -1.75,-1.65 -3.2,-1.95 1.05,-1.5 2.6,-2.6 v 0.1 q -0.3,1.15 0.1,2.35 0.35,1.8 1.65,3.35 1.3,1.55 3,2.35 1.75,1 3.7,1.35 l 1.65,0.25 q -2,1 -2.65,2.85 l -0.3,1.6 q -0.1,1.1 0.45,2.3 0.75,1.75 2.45,3 l 0.55,0.5 0.15,0.15 q 0.9,0.55 1.8,0.75 1.25,0.1 2.65,-0.5 l 1.35,-0.75 1,-1 q 0.75,-0.8 1.35,-1.9 0.65,-1.3 0.65,-2.45 l -0.1,-0.6 -0.55,-1.65 -0.5,-0.7 -0.05,-0.05 -0.15,-0.15 q -1,-1.25 -2.25,-1.85 h 0.1 q 1.25,-0.2 2.3,-0.7 L 32.9,-28 h 0.05 l 0.95,-0.55 0.65,-0.5 1.35,-0.95 0.7,-0.5 0.35,-0.3 1.4,-1.4 q 1.2,-1.5 0.8,-3.1 l -1.2,-1.85 -0.2,-0.25 M 7.8,-17.35 7.65,-16.9 q -0.1,0.8 0.25,1.5 l 0.4,0.8 -0.2,-0.1 q -0.6,-0.05 -0.9,-0.5 -0.4,-0.65 -0.1,-1.45 l 0.3,-0.75 0.1,0.05 h 0.3 m 5.95,5.9 q 0.35,0.6 0.95,0.95 l 0.15,0.1 -0.85,0.5 h -0.5 q -0.3,-0.1 -0.25,-0.65 l 0.5,-0.9 M 6.2,-7.35 6.15,-6.7 q 0,1.2 0.3,2.2 l 0.4,0.8 0.65,1.15 0.3,0.4 0.75,1 1,1.1 q 0.45,1 1,1.45 l 0.25,0.1 0.9,1.2 0.25,0.5 -0.45,0.1 Q 10.95,3.3 10.2,2.65 8.7,1.4 6.65,-1.25 L 6.5,-1.4 5.8,-2.3 5.55,-2.75 4.65,-4.4 4.5,-5.1 Q 4.45,-5.8 4.8,-6.3 5.05,-6.7 5.75,-7.1 L 6.2,-7.35 m -10.35,8.3 0.2,0.9 L -2.45,4 1.1,7.55 Q 2.8,9 4.55,9.4 4.45,9.45 4.25,9.6 L 0.75,11.35 -5.75,4.9 -6,4.05 -5.8,3.85 -5.15,3.2 -4.6,2 l 0.05,0.05 0.4,-1.1 m 22.55,-6.9 0.1,0.05 q 0.35,0.6 1.15,0.8 l 1.55,0.05 0.15,-0.05 q -0.8,1.25 -1.65,1.2 -0.55,-0.05 -1,-0.65 -0.4,-0.55 -0.3,-1.25 v -0.15 m -28.75,17 2.45,3.2 0.65,0.7 -2.65,2.35 -0.5,-1.15 -0.95,-1.7 Q -12,13.6 -12.8,13.5 l -0.4,-0.1 1.45,-1.35 0.65,-0.5 0.75,-0.5 m -14.1,15 -0.2,0.3 0.1,0.75 h -0.5 l -1.45,0.35 q -0.55,0.3 -0.75,0.95 -0.2,0.65 0,1.15 0.35,1.25 1.75,1.65 l 0.1,0.05 -2.9,2.6 -1.3,1.6 -0.2,1.2 v 1.15 q -0.1,1.8 -1.35,3.2 -1,1.2 -2.45,1.8 l -0.15,-0.35 -0.55,-2.15 -0.55,-2.1 -0.5,-0.9 q -0.4,-0.7 -0.9,-1.1 l 1.9,-0.85 0.55,-0.45 q 1.5,-1.05 1.9,-2.3 0.45,-1.2 0.05,-2.25 l 0.6,-0.25 1.75,-1.85 2.75,-2.35 1.2,-1.15 0.55,0.75 0.55,0.55"
         fill="#d0d0d0"
         fill-rule="evenodd"
         stroke="none"
         id="path4" />
      <path
         d="m 37.45,-37.7 0.3,0.3 0.2,0.25 1.2,1.85 q 0.4,1.6 -0.8,3.1 l -1.4,1.4 -0.35,0.3 -0.7,0.5 -1.35,0.95 -0.65,0.5 -0.95,0.55 H 32.9 l -0.5,0.25 q -1.05,0.5 -2.3,0.7 H 30 l -0.25,-0.15 -0.95,-0.2 -0.7,-0.1 q -1.6,-0.2 -3.4,0.6 l -0.1,0.1 -0.45,0.2 -1.65,-0.25 q -1.95,-0.35 -3.7,-1.35 -1.7,-0.8 -3,-2.35 -1.3,-1.55 -1.65,-3.35 -0.4,-1.2 -0.1,-2.35 v -0.1 l 0.05,-0.05 0.3,-0.3 h 0.05 q 3,-2.4 6.45,-3.6 3.65,-1.35 7.25,-1.25 2.9,0.05 5,1 1.4,0.65 3.5,2.25 l 0.8,0.6 M 7.8,-17.35 9,-17.5 l 1.1,-0.2 1.05,-0.15 0.95,0.2 q 0.3,0.35 0.1,1.1 l -0.1,0.15 -0.1,0.1 -0.15,-0.2 -0.7,0.4 -1.85,1.3 -1,0.2 -0.4,-0.8 q -0.35,-0.7 -0.25,-1.5 l 0.15,-0.45 m 5.95,5.9 0.45,-0.5 0.4,-0.5 1,-0.75 0.65,-0.5 1.15,-0.55 0.85,0.15 0.3,0.85 -0.2,0.9 -0.1,0.2 -0.1,-0.05 -0.65,-0.25 -0.65,0.75 -1.4,0.9 -0.6,0.4 -0.15,-0.1 q -0.6,-0.35 -0.95,-0.95 m 4.65,5.5 q 0.05,-0.85 0.7,-2.3 l 0.05,-0.1 0.45,-0.9 0.05,-0.65 0.25,-0.1 0.35,-0.25 0.1,-0.1 0.85,-0.35 q 0.8,0.05 1.25,0.65 l 0.05,0.1 0.35,0.6 0.3,0.3 -0.95,2.2 -0.65,1.45 -0.2,0.3 -0.15,0.05 -1.55,-0.05 q -0.8,-0.2 -1.15,-0.8 l -0.1,-0.05"
         fill="#f3f3f3"
         fill-rule="evenodd"
         stroke="none"
         id="path5" />
    </g>
    <g
       id="sprite1"
       transform="translate(17.4,15.85)">
      <use
         ffdec:characterId="31"
         height="57.200001"
         transform="matrix(0.5366,0,0,0.5366,-16.6582,-14.546)"
         width="70.75"
         xlink:href="#sprite2"
         id="use5" />
    </g>
    <g
       id="sprite2"
       transform="translate(-8.65,-10.35)">
      <use
         ffdec:characterId="30"
         height="57.200001"
         transform="translate(8.65,10.35)"
         width="70.75"
         xlink:href="#shape1"
         id="use6" />
    </g>
    <g
       id="shape1"
       transform="translate(-8.65,-10.35)">
      <path
         d="m 14.8,41.7 q 0.65,-1.75 2.65,-2.5 1.8,-0.8 3.7,-0.25 1.15,0.45 2.25,1.2 l 0.9,0.4 q 1.65,0.9 2.85,2.5 L 37.8,30.1 q 2.35,-2.8 3.75,-3.95 1.5,-1.15 4.25,-2.4 18.2,-8.85 27.65,-12.6 2.15,-0.8 3.25,-0.8 h 0.8 l 1.9,2.4 -0.2,0.8 q -0.2,1.1 -1.55,3 -5.85,8.25 -18.85,23.8 -1.85,2.35 -3.35,3.5 -1.4,1.15 -4.75,2.75 l -15.15,7.15 q 1.2,1.6 1.75,3.4 l 0.2,1 0.55,2.5 q 0.1,1.95 -1.1,3.55 -1.2,1.65 -3.05,1.9 l -1.3,0.05 q -1.65,0.2 -3.45,-0.65 -1.85,-0.9 -3,-2.6 L 25,60.95 23.8,62.1 q -2.6,2.85 -4.3,3.95 -2.85,1.8 -5.5,1.45 l -1.65,-0.5 -1.2,-0.7 -0.2,-0.2 q -1,-0.85 -1.6,-1.9 L 9.25,64 9.15,63.8 8.75,62.4 q -0.2,-0.8 -0.05,-1.7 0.25,-2.65 2.7,-5.05 1.5,-1.3 4.9,-3.15 L 17.7,51.55 16.05,50 q -1.35,-1.5 -1.8,-3.6 -0.4,-1.85 0.25,-3.45 l 0.3,-1.25"
         fill="#000000"
         fill-opacity="0.372549"
         fill-rule="evenodd"
         stroke="none"
         id="path6" />
    </g>
  </defs>
</svg>
