<?xml version="1.0" encoding="UTF-8" standalone="no"?>
<svg
   ffdec:objectType="frame"
   height="66.765442"
   width="57.974998"
   version="1.1"
   id="svg4"
   xmlns:xlink="http://www.w3.org/1999/xlink"
   xmlns="http://www.w3.org/2000/svg"
   xmlns:svg="http://www.w3.org/2000/svg"
   xmlns:ffdec="https://www.free-decompiler.com/flash">
  <g
     transform="translate(28.455,32.65)"
     id="g1">
    <use
       ffdec:characterId="17"
       height="119.15"
       id="rarity"
       transform="translate(-58.5,-60.65)"
       width="119.15"
       xlink:href="#sprite0" />
    <use
       ffdec:characterId="235"
       height="66.75"
       transform="translate(-28.45,-32.65)"
       width="57.950001"
       xlink:href="#shape0"
       id="use1" />
  </g>
  <defs
     id="defs4">
    <g
       id="shape0"
       transform="translate(28.15,35.15)">
      <path
         d="m 29.55,-1.7 q 0.45,2.15 0.15,6.6 -0.4,4.6 -1.1,7.65 -1,4.15 -2.8,7.2 -2.1,3.55 -5.65,6.2 -3.35,2.5 -7.5,3.9 -7.25,2.45 -16.75,1.5 l -4.15,-0.6 -0.85,-0.2 q -7.35,-1.65 -11.7,-5.5 -4.6,-4.1 -6.35,-10.8 Q -28,11.1 -28.1,7.75 L -28.15,7.2 q -0.05,-2.85 0.4,-5.8 0.9,-5.15 2.8,-9.45 3.4,-7.6 9.25,-11.3 2.35,-1.45 5.5,-2.55 l 1.75,-0.55 1.35,-0.35 0.5,-0.1 -0.15,-0.15 -0.3,-0.5 q -1,-1.75 -0.65,-4.3 0.15,-1.35 0.65,-2.4 1.05,-2.35 3.75,-4 l 1.6,-0.75 2.85,-0.15 1.8,0.05 1.55,0.65 q 1.7,1 2.35,2.2 1.15,2 0.2,4.95 l -0.6,1.6 -1,1.25 -0.3,0.25 H 5.2 l 1.85,0.2 0.1,0.05 q 4.1,0.6 7.9,2.65 4.7,2.5 7.9,6.55 2.15,2.65 4.6,7.65 1.6,3.35 2,5.4 M 2.75,-29.8 Q 2.45,-30.1 1.9,-30.1 L 1.1,-30.2 H 0.15 q -0.9,0.1 -1.6,0.7 -0.55,0.55 -0.95,1.9 l -0.05,0.75 0.55,0.5 1.8,0.3 1.6,-0.35 0.3,-0.2 0.55,-0.8 0.25,-0.5 0.3,-0.75 0.05,-0.2 q 0.2,-0.55 -0.2,-0.95 m 10.65,13.6 q -1.85,-1.05 -4,-1.65 L 8.75,-18 2.3,-18.8 l -4.25,0.2 -4.05,0.7 -3.25,1.15 -1.55,0.8 q -2.8,1.65 -4.95,4.25 -3.2,3.8 -5.1,9.75 l -0.75,2.6 -0.1,0.55 -0.05,0.3 -0.05,0.1 v 0.1 l -0.05,0.1 -0.05,0.2 -0.3,1.8 -0.15,1.75 -0.1,1.9 v 0.7 l 0.05,0.7 0.05,0.5 v 0.3 q 0.4,3.85 2,6.9 l 0.6,1.05 2.1,2.65 0.6,0.55 0.2,0.2 3.75,2.45 0.55,0.25 1.85,0.75 2.6,0.75 0.85,0.2 4.65,0.8 1.35,0.2 0.55,0.05 q 3.45,0.3 6.1,0 l 1.2,-0.2 1.35,-0.3 4.25,-1.4 0.45,-0.15 1.05,-0.5 q 3.45,-1.65 5.1,-3.05 4.5,-3.9 5.85,-12.75 L 24.9,6.15 V 5.75 L 25,1.55 V 1.3 L 24.9,0.6 24.85,0.45 q -0.4,-2 -2.05,-5.25 l -0.6,-1.25 -2.05,-3.7 -1.05,-1.45 q -2.4,-3.2 -5.7,-5 M -14.45,10.25 -15.05,8 -15.2,6.95 q -0.35,-3.2 0.8,-6.45 1.15,-3.15 3.35,-5.6 2.15,-2.4 5.2,-3.95 2.9,-1.45 6.2,-2 2.8,-0.45 5.1,0.05 1.95,0.4 3.8,1.45 l 1,0.75 0.8,-0.5 0.05,-0.05 0.1,-0.05 0.25,-0.1 1.75,-0.65 1.2,-0.25 1.6,-0.05 1.55,0.55 q 0.75,0.5 0.75,1.3 0,0.4 -0.4,0.9 l -1.4,1.1 -1.55,1 -1,0.7 0.35,0.7 0.15,0.3 0.45,1.7 q 0.7,1.65 1,3.35 l 0.1,0.8 0.05,1 q 0,2.3 -0.85,5.1 V 8.2 L 15.15,8.45 Q 15.05,10.3 14,11.9 12.55,14.05 8.4,16.4 6,17.7 4.85,18.05 L 0.95,18.7 H 0.85 -0.4 l -5.15,-0.55 -0.15,-0.05 -0.4,-0.05 -2.45,-0.7 -0.85,-0.4 -0.4,-0.3 -0.3,0.25 -0.35,0.35 Q -12.2,18.9 -13.5,19 h -0.45 l -0.45,-0.05 -1.3,-0.85 q -1,-1 -0.9,-2.25 0,-0.55 0.35,-1.2 0.4,-0.8 1.2,-1.7 l 0.4,-0.4 0.05,-0.05 0.8,-0.8 -0.1,-0.2 -0.4,-0.8 -0.15,-0.45 M 3.6,-5.3 -0.1,-4.9 q -4.95,1.5 -7.6,5.3 -1.4,2 -1.75,4.35 L -9.6,6.65 -9.5,7.55 -7.7,5.9 -4.15,2.8 2.8,-3 5.1,-4.9 4.05,-5.2 3.6,-5.3 m 7,4.65 -0.05,-0.1 L 10.5,-0.85 10.45,-0.9 9.9,-1.65 8.05,-0.05 Q 3,4.35 -1.75,8.9 l -3.35,3.15 -1.1,1.1 0.35,0.2 0.75,0.35 2.25,0.7 q 2.7,0.75 4.2,0.7 1.5,-0.1 3.3,-0.85 l 3,-1.6 L 9.1,11.8 10.75,9.25 11.25,8 Q 12,5.85 12.15,4.05 H 12 L 11.25,3.7 Q 10.9,3.3 10.95,2.65 l 0.1,-1.2 q 0.1,-1.05 -0.45,-2.1"
         fill="#000000"
         fill-rule="evenodd"
         stroke="none"
         id="path1" />
      <path
         d="m -22.45,7.45 0.75,0.45 2.25,0.9 4.5,1.35 0.5,0.1 0.15,0.45 0.4,0.8 0.1,0.2 -0.8,0.8 -0.05,0.05 -0.4,0.4 q -0.8,0.9 -1.2,1.7 -0.35,0.65 -0.35,1.2 -0.1,1.25 0.9,2.25 l 1.3,0.85 0.45,0.05 h 0.45 q 1.3,-0.1 3.05,-1.75 l 0.35,-0.35 0.3,-0.25 0.4,0.3 0.85,0.4 2.45,0.7 0.4,0.05 0.15,0.05 5.15,0.55 h 1.25 0.1 l 3.9,-0.65 Q 6,17.7 8.4,16.4 12.55,14.05 14,11.9 15.05,10.3 15.15,8.45 L 15.2,8.2 V 8.05 q 0.85,-2.8 0.85,-5.1 L 16,1.95 15.9,1.15 q -0.3,-1.7 -1,-3.35 l -0.45,-1.7 -0.15,-0.3 -0.35,-0.7 1,-0.7 1.55,-1 1.4,-1.1 q 0.4,-0.5 0.4,-0.9 0,-0.8 -0.75,-1.3 l -1.55,-0.55 -1.6,0.05 -1.2,0.25 0.65,-0.15 q 0.2,-3.1 -0.45,-5.9 3.3,1.8 5.7,5 l 1.05,1.45 2.05,3.7 0.6,1.25 q 1.65,3.25 2.05,5.25 L 24.9,0.6 25,1.3 v 0.25 l -0.1,4.2 v 0.4 L 24.65,8.1 q -1.35,8.85 -5.85,12.75 -1.65,1.4 -5.1,3.05 l -1.05,0.5 -0.45,0.15 -4.25,1.4 -1.35,0.3 -1.2,0.2 q -2.65,0.3 -6.1,0 L -1.25,26.4 -2.6,26.2 -7.25,25.4 -8.1,25.2 -10.7,24.45 -12.55,23.7 -13.1,23.45 -16.85,21 l -0.2,-0.2 -0.6,-0.55 -2.1,-2.65 -0.6,-1.05 q -1.6,-3.05 -2,-6.9 v -0.3 l -0.05,-0.5 -0.05,-0.7 v -0.7 m 20.7,1.45 0.4,-0.2 Q 5.1,5.95 8.7,1.95 l 1.95,-2.5 -0.05,-0.1 q 0.55,1.05 0.45,2.1 l -0.1,1.2 Q 10.9,3.3 11.25,3.7 L 12,4.05 h 0.15 Q 12,5.85 11.25,8 l -0.5,1.25 -1.65,2.55 -1.45,0.85 -3,1.6 q -1.8,0.75 -3.3,0.85 -1.5,0.05 -4.2,-0.7 l -2.25,-0.7 -0.75,-0.35 -0.35,-0.2 1.1,-1.1 3.35,-3.15"
         fill="#afafaf"
         fill-rule="evenodd"
         stroke="none"
         id="path2" />
      <path
         d="m -22.45,7.45 0.1,-1.9 0.15,-1.75 0.3,-1.8 0.05,-0.2 0.05,-0.1 V 1.6 l 0.05,-0.1 0.05,-0.3 0.1,-0.55 0.75,-2.6 q 1.9,-5.95 5.1,-9.75 2.15,-2.6 4.95,-4.25 l 1.55,-0.8 3.25,-1.15 4.05,-0.7 4.25,-0.2 6.45,0.8 0.65,0.15 q 2.15,0.6 4,1.65 0.65,2.8 0.45,5.9 l -0.65,0.15 -1.75,0.65 -0.25,0.1 -0.1,0.05 -0.05,0.05 -0.8,0.5 -1,-0.75 Q 7.4,-10.6 5.45,-11 q -2.3,-0.5 -5.1,-0.05 -3.3,0.55 -6.2,2 -3.05,1.55 -5.2,3.95 -2.2,2.45 -3.35,5.6 -1.15,3.25 -0.8,6.45 l 0.15,1.05 0.6,2.25 -0.5,-0.1 -4.5,-1.35 -2.25,-0.9 -0.75,-0.45 M -1.75,8.9 Q 3,4.35 8.05,-0.05 l 1.85,-1.6 0.55,0.75 0.05,0.05 0.05,0.1 0.05,0.1 0.05,0.1 -1.95,2.5 q -3.6,4 -10.05,6.75 l -0.4,0.2 M 3.6,-5.3 4.05,-5.2 5.1,-4.9 2.8,-3 -4.15,2.8 -7.7,5.9 -9.5,7.55 -9.6,6.65 -9.45,4.75 Q -9.1,2.4 -7.7,0.4 q 2.65,-3.8 7.6,-5.3 l 3.7,-0.4"
         fill="#dcdcdc"
         fill-rule="evenodd"
         stroke="none"
         id="path3" />
    </g>
    <g
       id="sprite1"
       transform="translate(17.4,15.85)">
      <use
         ffdec:characterId="31"
         height="57.200001"
         transform="matrix(0.5366,0,0,0.5366,-16.6582,-14.546)"
         width="70.75"
         xlink:href="#sprite2"
         id="use3" />
    </g>
    <g
       id="sprite2"
       transform="translate(-8.65,-10.35)">
      <use
         ffdec:characterId="30"
         height="57.200001"
         transform="translate(8.65,10.35)"
         width="70.75"
         xlink:href="#shape1"
         id="use4" />
    </g>
    <g
       id="shape1"
       transform="translate(-8.65,-10.35)">
      <path
         d="m 14.8,41.7 q 0.65,-1.75 2.65,-2.5 1.8,-0.8 3.7,-0.25 1.15,0.45 2.25,1.2 l 0.9,0.4 q 1.65,0.9 2.85,2.5 L 37.8,30.1 q 2.35,-2.8 3.75,-3.95 1.5,-1.15 4.25,-2.4 18.2,-8.85 27.65,-12.6 2.15,-0.8 3.25,-0.8 h 0.8 l 1.9,2.4 -0.2,0.8 q -0.2,1.1 -1.55,3 -5.85,8.25 -18.85,23.8 -1.85,2.35 -3.35,3.5 -1.4,1.15 -4.75,2.75 l -15.15,7.15 q 1.2,1.6 1.75,3.4 l 0.2,1 0.55,2.5 q 0.1,1.95 -1.1,3.55 -1.2,1.65 -3.05,1.9 l -1.3,0.05 q -1.65,0.2 -3.45,-0.65 -1.85,-0.9 -3,-2.6 L 25,60.95 23.8,62.1 q -2.6,2.85 -4.3,3.95 -2.85,1.8 -5.5,1.45 l -1.65,-0.5 -1.2,-0.7 -0.2,-0.2 q -1,-0.85 -1.6,-1.9 L 9.25,64 9.15,63.8 8.75,62.4 q -0.2,-0.8 -0.05,-1.7 0.25,-2.65 2.7,-5.05 1.5,-1.3 4.9,-3.15 L 17.7,51.55 16.05,50 q -1.35,-1.5 -1.8,-3.6 -0.4,-1.85 0.25,-3.45 l 0.3,-1.25"
         fill="#000000"
         fill-opacity="0.372549"
         fill-rule="evenodd"
         stroke="none"
         id="path4" />
    </g>
  </defs>
</svg>
