<?xml version="1.0" encoding="UTF-8" standalone="no"?>
<svg
   ffdec:objectType="frame"
   height="75.748985"
   width="43.205479"
   version="1.1"
   id="svg4"
   xmlns:xlink="http://www.w3.org/1999/xlink"
   xmlns="http://www.w3.org/2000/svg"
   xmlns:svg="http://www.w3.org/2000/svg"
   xmlns:ffdec="https://www.free-decompiler.com/flash">
  <g
     transform="translate(23.95,38.098077)"
     id="g1">
    <use
       ffdec:characterId="17"
       height="119.15"
       id="rarity"
       transform="translate(-58.5,-60.65)"
       width="119.15"
       xlink:href="#sprite0" />
    <use
       ffdec:characterId="390"
       height="75.75"
       transform="translate(-24.05,-38.1)"
       width="43.299999"
       xlink:href="#shape0"
       id="use1" />
  </g>
  <defs
     id="defs4">
    <g
       id="shape0"
       transform="translate(23.75,40.6)">
      <path
         d="m 13.75,-18.4 q 0.1,-5.2 -0.55,-8.25 -0.75,-3.2 -2.25,-4.8 -2,-2.15 -6.4,-2.75 -3.65,-0.55 -7.7,-0.15 -4.85,0.65 -7.25,3.05 -1.5,1.55 -2.3,3.95 l -0.95,4.6 -1.9,14.8 0.4,0.2 q 1.3,0.7 3.7,1.35 13.85,3.85 24.2,1.9 l 0.45,-0.1 0.55,-13.8 m -5.6,-21.35 q 3.6,0.85 5.65,2.4 3.4,2.4 4.7,7.35 0.95,3.4 1,9 0.45,18.4 -2.75,37.1 -0.75,4.2 -1.6,6.85 -1.25,3.7 -3.3,6.2 -2.9,3.35 -7.4,4.95 -4.95,1.7 -11,0.65 -5.4,-1.05 -9.6,-4.15 -4.45,-3.35 -6.25,-8.1 -1,-2.7 -1.25,-6.3 V 9.7 q 0.65,-13.55 3.15,-32.15 0.65,-4.55 1.45,-7.05 1.25,-3.8 3.6,-6 2.15,-2 5.65,-3.3 4.3,-1.55 8.95,-1.75 4.55,-0.25 9,0.8 m 2.15,57.3 Q 11.8,9.45 12.65,1.4 l -2.3,0.4 Q 2.9,2.7 -4.35,1.45 -10.6,0.35 -16.1,-2.25 l -0.75,9.1 q -0.45,6.45 0.15,10.05 1.1,5.6 4.7,8.3 1.75,1.3 4.4,2.15 4.55,1.55 8.1,1.05 2.2,-0.25 4.1,-1.25 1.95,-1.1 3.2,-2.75 1,-1.3 1.6,-3.25 l 0.9,-3.6"
         fill="#000000"
         fill-rule="evenodd"
         stroke="none"
         id="path1" />
      <path
         d="m -4.35,-32.05 q 1.6,-0.45 2.6,0 0.65,0.25 1,0.9 0.35,0.6 0.15,1.25 -0.2,0.55 -0.9,0.95 -0.3,0.25 -1.35,0.6 -1.55,0.6 -2.6,1.55 l -1.1,0.95 q -0.65,0.5 -1.3,0.6 l -1.25,-0.2 q -0.6,-0.3 -0.95,-0.85 -0.7,-1.2 0.05,-2.5 l 1.4,-1.35 q 1.95,-1.3 4.25,-1.9 m -4.45,8.95 q 0.45,0.45 0.45,1 v 0.75 q -0.25,1.1 -1.45,1.5 -1.15,0.3 -1.95,-0.55 -0.9,-0.85 -0.55,-2 0.35,-1.2 1.55,-1.4 1.2,-0.3 1.95,0.7 M 9,6.6 Q 9.4,7.1 9.3,7.85 9.15,8.55 8.65,9 L 7.6,9.35 6.45,9.05 Q 5.75,8.75 5.55,8.35 5.05,7.65 5.3,6.8 5.55,6 6.35,5.65 7.25,5.4 8.2,5.9 L 9,6.6"
         fill="#ffffff"
         fill-rule="evenodd"
         stroke="none"
         id="path2" />
      <path
         d="m 13.75,-18.4 -0.55,13.8 -0.45,0.1 q -10.35,1.95 -24.2,-1.9 -2.4,-0.65 -3.7,-1.35 l -0.4,-0.2 1.9,-14.8 0.95,-4.6 q 0.8,-2.4 2.3,-3.95 2.4,-2.4 7.25,-3.05 4.05,-0.4 7.7,0.15 4.4,0.6 6.4,2.75 1.5,1.6 2.25,4.8 0.65,3.05 0.55,8.25 M -8.8,-23.1 q -0.75,-1 -1.95,-0.7 -1.2,0.2 -1.55,1.4 -0.35,1.15 0.55,2 0.8,0.85 1.95,0.55 1.2,-0.4 1.45,-1.5 v -0.75 q 0,-0.55 -0.45,-1 m 4.45,-8.95 q -2.3,0.6 -4.25,1.9 l -1.4,1.35 q -0.75,1.3 -0.05,2.5 0.35,0.55 0.95,0.85 l 1.25,0.2 q 0.65,-0.1 1.3,-0.6 l 1.1,-0.95 q 1.05,-0.95 2.6,-1.55 1.05,-0.35 1.35,-0.6 0.7,-0.4 0.9,-0.95 0.2,-0.65 -0.15,-1.25 -0.35,-0.65 -1,-0.9 -1,-0.45 -2.6,0 m 14.65,49.6 -0.9,3.6 q -0.6,1.95 -1.6,3.25 -1.25,1.65 -3.2,2.75 -1.9,1 -4.1,1.25 -3.55,0.5 -8.1,-1.05 -2.65,-0.85 -4.4,-2.15 -3.6,-2.7 -4.7,-8.3 -0.6,-3.6 -0.15,-10.05 l 0.75,-9.1 q 5.5,2.6 11.75,3.7 7.25,1.25 14.7,0.35 l 2.3,-0.4 Q 11.8,9.45 10.3,17.55 M 9,6.6 8.2,5.9 Q 7.25,5.4 6.35,5.65 5.55,6 5.3,6.8 5.05,7.65 5.55,8.35 q 0.2,0.4 0.9,0.7 L 7.6,9.35 8.65,9 Q 9.15,8.55 9.3,7.85 9.4,7.1 9,6.6"
         fill="#171717"
         fill-rule="evenodd"
         stroke="none"
         id="path3" />
    </g>
    <g
       id="sprite1"
       transform="translate(17.4,15.85)">
      <use
         ffdec:characterId="31"
         height="57.200001"
         transform="matrix(0.5366,0,0,0.5366,-16.6582,-14.546)"
         width="70.75"
         xlink:href="#sprite2"
         id="use3" />
    </g>
    <g
       id="sprite2"
       transform="translate(-8.65,-10.35)">
      <use
         ffdec:characterId="30"
         height="57.200001"
         transform="translate(8.65,10.35)"
         width="70.75"
         xlink:href="#shape1"
         id="use4" />
    </g>
    <g
       id="shape1"
       transform="translate(-8.65,-10.35)">
      <path
         d="m 14.8,41.7 q 0.65,-1.75 2.65,-2.5 1.8,-0.8 3.7,-0.25 1.15,0.45 2.25,1.2 l 0.9,0.4 q 1.65,0.9 2.85,2.5 L 37.8,30.1 q 2.35,-2.8 3.75,-3.95 1.5,-1.15 4.25,-2.4 18.2,-8.85 27.65,-12.6 2.15,-0.8 3.25,-0.8 h 0.8 l 1.9,2.4 -0.2,0.8 q -0.2,1.1 -1.55,3 -5.85,8.25 -18.85,23.8 -1.85,2.35 -3.35,3.5 -1.4,1.15 -4.75,2.75 l -15.15,7.15 q 1.2,1.6 1.75,3.4 l 0.2,1 0.55,2.5 q 0.1,1.95 -1.1,3.55 -1.2,1.65 -3.05,1.9 l -1.3,0.05 q -1.65,0.2 -3.45,-0.65 -1.85,-0.9 -3,-2.6 L 25,60.95 23.8,62.1 q -2.6,2.85 -4.3,3.95 -2.85,1.8 -5.5,1.45 l -1.65,-0.5 -1.2,-0.7 -0.2,-0.2 q -1,-0.85 -1.6,-1.9 L 9.25,64 9.15,63.8 8.75,62.4 q -0.2,-0.8 -0.05,-1.7 0.25,-2.65 2.7,-5.05 1.5,-1.3 4.9,-3.15 L 17.7,51.55 16.05,50 q -1.35,-1.5 -1.8,-3.6 -0.4,-1.85 0.25,-3.45 l 0.3,-1.25"
         fill="#000000"
         fill-opacity="0.372549"
         fill-rule="evenodd"
         stroke="none"
         id="path4" />
    </g>
  </defs>
</svg>
