<?xml version="1.0" encoding="UTF-8" standalone="no"?>
<svg
   ffdec:objectType="frame"
   height="58.963566"
   width="80.152"
   version="1.1"
   id="svg5"
   xmlns:xlink="http://www.w3.org/1999/xlink"
   xmlns="http://www.w3.org/2000/svg"
   xmlns:svg="http://www.w3.org/2000/svg"
   xmlns:ffdec="https://www.free-decompiler.com/flash">
  <g
     transform="translate(42.1,27.657857)"
     id="g1">
    <use
       ffdec:characterId="17"
       height="119.15"
       id="rarity"
       transform="translate(-58.5,-60.65)"
       width="119.15"
       xlink:href="#sprite0" />
    <use
       ffdec:characterId="1185"
       height="58.950001"
       transform="translate(-42.1,-27.65)"
       width="80.150002"
       xlink:href="#shape0"
       id="use1" />
  </g>
  <defs
     id="defs5">
    <g
       id="shape0"
       transform="translate(40.8,25.75)">
      <path
         d="m 18.6,-15.6 q -2.5,-0.95 -5.15,-1.5 l -5.25,-1 -0.3,-0.05 -7.2,-0.95 -10.2,-0.55 -2.2,0.25 q -6.55,0.95 -12.25,3.95 -2,1.05 -3.85,2.3 -2.5,1.7 -4.65,3.8 l -2.45,2.5 q -0.6,2.9 -0.35,5.9 l 0.4,4.75 0.1,1.55 0.15,1.8 0.2,3.8 0.15,0.5 0.05,0.8 0.05,0.65 0.05,0.5 4.45,0.5 6.05,0.95 4.65,0.7 5.05,0.4 h 1.25 l 5.6,-0.05 6.55,-0.45 3.35,-0.4 Q 9.15,14.2 15.4,12.55 L 20.95,10.9 26.15,8.85 30.2,6.7 q -0.3,-2.6 -0.3,-5.4 0,-3.9 -0.6,-7.7 L 28.95,-8 H 28.8 l -0.95,0.2 -11.55,1.95 -6.25,0.65 -0.55,0.05 -6.3,0.4 q -5.25,0.2 -10.5,0 l -2.75,-0.15 q -0.65,-0.05 -0.85,-0.55 l -0.05,-0.15 0.05,-0.2 0.05,-0.15 0.1,-0.1 0.1,-0.05 3,-0.1 10,-1.05 4.55,-0.85 12.65,-2.6 6.05,-1.2 q -3.3,-2.3 -7,-3.7 m -28.3,-9.9 q 10.05,-0.95 19.65,1.6 l 5.1,1.35 q 9.8,2.55 17,9.45 1.05,1.05 1.35,2.55 1.35,7.5 0.75,15.25 2.35,1.05 3.85,3.65 2.6,4.6 0.2,9.3 -2.5,4.95 -7.1,8.3 -6.15,4.5 -13.7,5.45 l -4.05,0.75 Q -2.55,35.55 -16.5,28 -23.3,24.25 -30.3,20.9 l -8.1,-3.6 q -0.85,-0.35 -1,-1.25 l -0.1,-1.3 -0.55,-2.4 -0.6,-7.9 q -0.3,-5.85 0,-11.6 -0.25,-2.2 1.25,-3.85 5.1,-5.6 11.7,-9.2 8.5,-4.55 18,-5.3 m 39.6,45.75 0.25,-0.2 q 3.6,-2.8 4.45,-7.2 V 12.7 L 34.2,11.75 33.9,10.9 q -0.05,-0.4 -0.35,-0.25 l -3,1.65 q -4.7,2.4 -9.65,4.1 l -5.55,1.65 -5.9,1.1 -9.3,1 -6.15,0.35 -12.7,0.2 4.4,2.75 0.4,0.2 5.15,2.2 1.45,0.45 q 7.05,2.05 14.9,1.25 l 0.65,-0.1 h 0.3 l 6.45,-1.1 7.15,-1.95 0.6,-0.2 1.8,-0.75 5.35,-3.2"
         fill="#000000"
         fill-rule="evenodd"
         stroke="none"
         id="path1" />
      <path
         d="m 7.95,-17.95 0.05,0.1 q 0.5,1.7 -0.6,3.1 -2.25,2.85 -5.1,4.35 -3.6,1.8 -8.1,1.4 -2.2,-0.2 -4.05,-1.35 -2.65,-1.65 -3.25,-4.45 -0.2,-1 0.1,-2.05 0.4,-1.45 1.3,-2.55 l 2.2,-0.25 10.2,0.55 7.2,0.95 0.05,0.2 m -16.4,20.9 q 4.15,1.1 4.4,6.2 l -0.1,1.9 q -0.45,2.7 -2.75,4.7 l -0.15,0.15 -5.6,0.05 h -1.25 l -5.05,-0.4 q -2.05,-1.5 -1.15,-4.4 l 0.35,-0.8 0.3,-2 q 0.65,-2.2 2.75,-3.65 2.5,-1.75 5.45,-2.1 l 2.8,0.35 M 2.85,15.05 2.8,14.6 Q 2.8,13.25 3.45,12 L 4.8,8.85 V 6.75 5.45 5.3 Q 3.2,1.4 5.2,-1.9 l 0.45,-0.6 q 0.3,-0.35 0.75,-0.55 l 3.65,-2.15 6.25,-0.65 11.55,-1.95 -5.8,3 -8.6,4.7 q -1.6,0.9 -2.85,1.95 1.4,3.8 3.15,7.45 l 1.5,3 0.15,0.25 Q 9.15,14.2 2.85,15.05 m 27.7,-2.75 -0.75,1.6 -3.15,4.55 -2.35,3.2 -2.15,2.75 -7.15,1.95 0.1,-1 q 0.2,-1.15 1.25,-1.85 l 2.6,-4.3 1.95,-2.8 q 4.95,-1.7 9.65,-4.1 M 7.6,27.55 q -7.85,0.8 -14.9,-1.25 l -1.45,-0.45 q 0.55,-2.65 3.55,-3.3 l 4,-0.8 1.1,0.05 3.05,0.65 q 0.65,0.25 1.2,0.65 2.75,-0.15 3.65,2.2 0.45,1.25 -0.2,2.25 m -42.2,-20.4 -0.15,-1.8 -0.1,-1.55 -0.4,-4.75 q -0.25,-3 0.35,-5.9 l 2.45,-2.5 q 2.15,-2.1 4.65,-3.8 1.85,-1.25 3.85,-2.3 4.85,0.15 6,4.1 0.3,0.95 0.35,2.15 0.1,1.95 -1.45,3.3 -2.2,1.9 -4.75,3.25 2.5,5.2 -1.7,8.65 l -1.1,0.8 q -1.2,0.8 -2.5,1.1 L -32.65,7.8 -34.6,7.15"
         fill="#434f3f"
         fill-rule="evenodd"
         stroke="none"
         id="path2" />
      <path
         d="m 2.3,-10.4 q -0.25,1.5 0.05,3.15 l -10,1.05 q -1.7,-5.85 -7.85,-5.85 l -2.45,0.7 q -1.15,-3.95 -6,-4.1 5.7,-3 12.25,-3.95 -0.9,1.1 -1.3,2.55 -0.3,1.05 -0.1,2.05 0.6,2.8 3.25,4.45 1.85,1.15 4.05,1.35 4.5,0.4 8.1,-1.4 m 17.25,-0.3 v -1.85 q -0.3,-1.75 -0.95,-3.05 3.7,1.4 7,3.7 l -6.05,1.2 M 3.2,-4.75 3.25,-4.6 q 0.5,1.05 1.45,1.6 l 0.95,0.5 -0.45,0.6 q -2,3.3 -0.4,7.2 v 0.15 1.3 2.1 L 3.45,12 Q 2.8,13.25 2.8,14.6 l 0.05,0.45 -3.35,0.4 -0.05,-0.25 q -0.85,-3.15 -3.6,-4.15 l 0.1,-1.9 q -0.25,-5.1 -4.4,-6.2 1.25,-2.2 1.3,-5.15 L -7.3,-4.75 q 5.25,0.2 10.5,0 m 18.85,-0.05 5.8,-3 0.95,-0.2 h 0.15 l 0.35,1.6 q 0.6,3.8 0.6,7.7 0,2.8 0.3,5.4 l -4.05,2.15 -5.2,2.05 -5.55,1.65 -0.15,-0.25 -1.5,-3 q 2.1,0.1 4.65,-1.05 4.95,-2.2 5.5,-7.3 0.4,-3.8 -1.85,-5.75 m 8.5,17.1 3,-1.65 q 0.3,-0.15 0.35,0.25 l 0.3,0.85 0.4,0.95 v 0.15 q -0.85,4.4 -4.45,7.2 l -0.25,0.2 q -1.4,-1.3 -3.25,-1.8 l 3.15,-4.55 0.75,-1.6 m -22,15.15 H 8.25 L 7.6,27.55 Q 8.25,26.55 7.8,25.3 6.9,22.95 4.15,23.1 3.6,22.7 2.95,22.45 L -0.1,21.8 q 0.45,-0.85 0.25,-1.65 l 9.3,-1 5.9,-1.1 5.55,-1.65 -1.95,2.8 q -4.9,1.6 -8.85,5.3 -1.5,1.4 -1.55,2.95 M -29.1,7.9 q 1.3,-0.3 2.5,-1.1 L -25.5,6 q 0.7,1.15 2.1,1.65 1.95,0.65 3.95,0.7 l -0.3,2 -0.35,0.8 q -0.9,2.9 1.15,4.4 l -4.65,-0.7 -6.05,-0.95 v -0.05 q 1.3,-1 1.25,-2.65 -0.1,-1.85 -0.7,-3.3"
         fill="#697f61"
         fill-rule="evenodd"
         stroke="none"
         id="path3" />
      <path
         d="m 8.2,-18.1 5.25,1 q 2.65,0.55 5.15,1.5 0.65,1.3 0.95,3.05 v 1.85 L 6.9,-8.1 2.35,-7.25 Q 2.05,-8.9 2.3,-10.4 q 2.85,-1.5 5.1,-4.35 1.1,-1.4 0.6,-3.1 L 7.95,-17.95 8.2,-18.1 M 5.65,-2.5 4.7,-3 Q 3.75,-3.55 3.25,-4.6 L 3.2,-4.75 9.5,-5.15 10.05,-5.2 6.4,-3.05 Q 5.95,-2.85 5.65,-2.5 M -7.3,-4.75 -7.15,-2.2 q -0.05,2.95 -1.3,5.15 l -2.8,-0.35 q -2.95,0.35 -5.45,2.1 -2.1,1.45 -2.75,3.65 -2,-0.05 -3.95,-0.7 -1.4,-0.5 -2.1,-1.65 4.2,-3.45 1.7,-8.65 2.55,-1.35 4.75,-3.25 1.55,-1.35 1.45,-3.3 -0.05,-1.2 -0.35,-2.15 l 2.45,-0.7 q 6.15,0 7.85,5.85 l -3,0.1 -0.1,0.05 -0.1,0.1 -0.05,0.15 -0.05,0.2 0.05,0.15 q 0.2,0.5 0.85,0.55 l 2.75,0.15 m 3.15,15.8 q 2.75,1 3.6,4.15 l 0.05,0.25 -6.55,0.45 0.15,-0.15 q 2.3,-2 2.75,-4.7 M 22.05,-4.8 q 2.25,1.95 1.85,5.75 -0.55,5.1 -5.5,7.3 Q 15.85,9.4 13.75,9.3 12,5.65 10.6,1.85 11.85,0.8 13.45,-0.1 l 8.6,-4.7 m 4.6,23.25 q 1.85,0.5 3.25,1.8 l -5.35,3.2 -1.8,0.75 -0.6,0.2 2.15,-2.75 2.35,-3.2 M 15,26.35 8.55,27.45 Q 8.6,25.9 10.1,24.5 q 3.95,-3.7 8.85,-5.3 l -2.6,4.3 q -1.05,0.7 -1.25,1.85 l -0.1,1 m -23.75,-0.5 -5.15,-2.2 -0.05,-0.3 -0.35,0.1 -4.4,-2.75 12.7,-0.2 6.15,-0.35 q 0.2,0.8 -0.25,1.65 l -1.1,-0.05 -4,0.8 q -3,0.65 -3.55,3.3 m -25.85,-18.7 1.95,0.65 3.55,0.1 q 0.6,1.45 0.7,3.3 0.05,1.65 -1.25,2.65 v 0.05 l -4.45,-0.5 -0.05,-0.5 -0.05,-0.65 -0.05,-0.8 -0.15,-0.5 -0.2,-3.8"
         fill="#666d64"
         fill-rule="evenodd"
         stroke="none"
         id="path4" />
    </g>
    <g
       id="sprite1"
       transform="translate(17.4,15.85)">
      <use
         ffdec:characterId="31"
         height="57.200001"
         transform="matrix(0.5366,0,0,0.5366,-16.6582,-14.546)"
         width="70.75"
         xlink:href="#sprite2"
         id="use4" />
    </g>
    <g
       id="sprite2"
       transform="translate(-8.65,-10.35)">
      <use
         ffdec:characterId="30"
         height="57.200001"
         transform="translate(8.65,10.35)"
         width="70.75"
         xlink:href="#shape1"
         id="use5" />
    </g>
    <g
       id="shape1"
       transform="translate(-8.65,-10.35)">
      <path
         d="m 14.8,41.7 q 0.65,-1.75 2.65,-2.5 1.8,-0.8 3.7,-0.25 1.15,0.45 2.25,1.2 l 0.9,0.4 q 1.65,0.9 2.85,2.5 L 37.8,30.1 q 2.35,-2.8 3.75,-3.95 1.5,-1.15 4.25,-2.4 18.2,-8.85 27.65,-12.6 2.15,-0.8 3.25,-0.8 h 0.8 l 1.9,2.4 -0.2,0.8 q -0.2,1.1 -1.55,3 -5.85,8.25 -18.85,23.8 -1.85,2.35 -3.35,3.5 -1.4,1.15 -4.75,2.75 l -15.15,7.15 q 1.2,1.6 1.75,3.4 l 0.2,1 0.55,2.5 q 0.1,1.95 -1.1,3.55 -1.2,1.65 -3.05,1.9 l -1.3,0.05 q -1.65,0.2 -3.45,-0.65 -1.85,-0.9 -3,-2.6 L 25,60.95 23.8,62.1 q -2.6,2.85 -4.3,3.95 -2.85,1.8 -5.5,1.45 l -1.65,-0.5 -1.2,-0.7 -0.2,-0.2 q -1,-0.85 -1.6,-1.9 L 9.25,64 9.15,63.8 8.75,62.4 q -0.2,-0.8 -0.05,-1.7 0.25,-2.65 2.7,-5.05 1.5,-1.3 4.9,-3.15 L 17.7,51.55 16.05,50 q -1.35,-1.5 -1.8,-3.6 -0.4,-1.85 0.25,-3.45 l 0.3,-1.25"
         fill="#000000"
         fill-opacity="0.372549"
         fill-rule="evenodd"
         stroke="none"
         id="path5" />
    </g>
  </defs>
</svg>
