<?xml version="1.0" encoding="UTF-8" standalone="no"?>
<svg
   ffdec:objectType="frame"
   height="49.605129"
   width="52.924374"
   version="1.1"
   id="svg6"
   xmlns:xlink="http://www.w3.org/1999/xlink"
   xmlns="http://www.w3.org/2000/svg"
   xmlns:svg="http://www.w3.org/2000/svg"
   xmlns:ffdec="https://www.free-decompiler.com/flash">
  <g
     transform="translate(26.572222,21.3)"
     id="g1">
    <use
       ffdec:characterId="17"
       height="119.15"
       id="rarity"
       transform="translate(-58.5,-60.65)"
       width="119.15"
       xlink:href="#sprite0" />
    <use
       ffdec:characterId="147"
       height="49.599998"
       transform="translate(-26.55,-21.3)"
       width="52.900002"
       xlink:href="#shape0"
       id="use1" />
  </g>
  <defs
     id="defs6">
    <g
       id="shape0"
       transform="translate(26.25,23.8)">
      <path
         d="m 8.2,-17.05 -1.4,0.1 H 6.7 l -4.5,0.15 -2.4,-0.5 -2.35,0.4 -0.25,0.1 q -4.9,1.65 -9.65,5.8 -2.45,2.1 -3.6,3.9 -1.35,1.9 -2.35,5.2 -0.75,2.3 -0.9,3.7 l -0.05,1.75 0.25,2.25 1.15,3 q 1.55,3.05 5.25,5.95 l 1,0.75 3.9,2.35 0.5,0.2 q 2.6,1.05 5.45,1.2 L 2.6,18.85 3.35,18.7 q 4.55,-1 9,-4.05 l 1.25,-0.9 q 2,-1.5 3.2,-3 0.95,-1.3 1.7,-3.1 L 18.55,7.5 Q 20.9,1.75 19.95,-4 19.55,-6.45 18.7,-8.55 l -0.45,-0.95 -0.9,-1.65 q -1.1,-1.75 -2.6,-3.25 l -0.85,-0.8 -0.35,-0.25 -2.4,-1.35 -2.95,-0.25 m 5.15,-6.1 q 3,0.95 5.95,3.9 5.45,5.55 6.9,13.65 1.45,8.1 -1.75,15.25 -3.15,7.1 -10.1,11.6 -6.85,4.45 -14.65,4.55 -5.1,0.1 -10,-1.75 -4.9,-1.85 -8.7,-5.3 -5.85,-5.35 -7,-12.35 -1.05,-6.2 1.95,-12.5 2.6,-5.5 7.95,-10.1 5.85,-5.05 11.9,-6.5 l 4.7,-0.7 4.75,-0.3 4.1,-0.1 4,0.65"
         fill="#000000"
         fill-rule="evenodd"
         stroke="none"
         id="path1" />
      <path
         d="m -10.15,5.1 q 2.1,-2 5.3,-2.35 L -4.5,2.7 q -0.8,-3.55 0.5,-5.35 0.85,-1.15 2.65,-1.85 2,-0.8 4,-0.95 h 1.2 l 3.85,0.65 1.75,0.6 1.75,0.1 q 0.95,-0.15 2,-1 2.05,-1.7 2.35,-4.2 0.2,-1.4 -0.2,-2.65 l -1.05,-1.9 -0.05,-0.05 q -0.7,-0.8 -0.75,-1.1 l 0.05,-0.45 0.35,0.25 0.85,0.8 q 1.5,1.5 2.6,3.25 l 0.9,1.65 0.45,0.95 -0.85,2.4 -0.35,0.6 q -1.35,2.4 -3.65,3.75 -0.6,0.35 -1.2,0.6 L 11,-0.85 H 10.8 L 9.25,-1.1 7.65,-1.6 q -2.5,-0.8 -4.8,-0.65 -2.2,0.15 -3.8,1.15 L -1,-1.05 -1.5,-0.7 v 0.1 0.1 0.05 l 0.1,1.25 q 0.1,0.9 0.6,1.25 L 0.25,2.45 0.3,2.5 q 1.6,0.45 2.95,2.2 l 1.4,2.1 0.7,1.1 q 1.3,1.6 2.9,2.45 l 0.9,0.4 q 2.3,0.8 4.3,-0.05 l 0.4,-0.2 2.4,-1.7 q 1.25,-0.95 2.25,-1.15 -0.75,1.8 -1.7,3.1 -1.2,1.5 -3.2,3 l -1.25,0.9 -2,0.1 Q 8.7,14.65 7.05,14 5.75,13.45 4.75,12.7 2.8,11.15 1.8,8.8 q 0.05,2.2 -2,4.8 l -1.05,1.2 q -1.5,1.4 -3.15,2 l -0.45,0.1 -1.8,0.2 Q -8.1,17 -9.5,16.2 l -2,-1.65 -1,-1.95 q -0.35,-1.3 -0.2,-2.65 L -12.55,9 q 0.45,-1.85 1.65,-3.2 l 0.75,-0.7 M -5.7,13.7 -4.8,13.25 -3.35,11.9 -2,10 Q -1.45,8.35 -2.7,6 L -3.65,5.8 q -0.9,-0.15 -1.85,0 -1.45,0.15 -2.65,0.95 L -8.2,6.8 -8.5,7 q -1.65,1.2 -1.95,3 l -0.05,0.4 0.2,1.5 0.05,0.1 q 0.35,1 1.2,1.55 1.2,0.8 2.85,0.35 l 0.5,-0.2"
         fill="#79848e"
         fill-rule="evenodd"
         stroke="none"
         id="path2" />
      <path
         d="m -19.35,3.55 q 0.9,-0.4 2,-0.55 2.2,-0.3 4.7,0.75 1.35,0.55 2.5,1.35 l -0.75,0.7 q -1.2,1.35 -1.65,3.2 l -0.15,0.95 q -0.15,1.35 0.2,2.65 l 1,1.95 2,1.65 q 1.4,0.8 2.85,0.9 l -0.65,0.95 -0.5,-0.2 -3.9,-2.35 -1,-0.75 q -3.7,-2.9 -5.25,-5.95 l -1.15,-3 -0.25,-2.25 M -4.85,2.75 -5.45,1.3 Q -5.8,0 -5.55,-1.95 l 0.5,-2.3 q 1,-3.05 3.65,-5.1 1.35,-0.95 4.15,-2.4 l 0.2,-0.1 q 1.6,-0.9 3.15,-2.2 l 1.2,-1.05 0.8,-0.8 0.4,-0.4 q -0.3,-0.3 -0.3,-0.75 l 2.95,0.25 2.4,1.35 -0.05,0.45 q 0.05,0.3 0.75,1.1 l 0.05,0.05 1.05,1.9 q 0.4,1.25 0.2,2.65 -0.3,2.5 -2.35,4.2 -1.05,0.85 -2,1 L 9.45,-4.2 7.7,-4.8 3.85,-5.45 h -1.2 q -2,0.15 -4,0.95 -1.8,0.7 -2.65,1.85 -1.3,1.8 -0.5,5.35 L -4.85,2.75 M 4.65,6.8 3.25,4.7 Q 1.9,2.95 0.3,2.5 L 0.25,2.45 -0.8,2.05 Q -1.3,1.7 -1.4,0.8 L -1.5,-0.45 V -0.5 -0.6 -0.7 L -1,-1.05 -0.95,-1.1 q 1.6,-1 3.8,-1.15 2.3,-0.15 4.8,0.65 l 1.6,0.5 1.55,0.25 H 11 l 1.65,-0.35 q 0.6,-0.25 1.2,-0.6 2.3,-1.35 3.65,-3.75 l 0.35,-0.6 q -0.05,3.2 -1.15,5.3 L 14.55,1.9 V 1.95 L 11.5,4.6 10.7,5.1 Q 8.15,6.55 4.65,6.8 M -8.2,6.8 -7.5,7.65 -7,8.4 q 1.5,2.45 1.3,5.3 l -0.5,0.2 Q -7.85,14.35 -9.05,13.55 -9.9,13 -10.25,12 l -0.05,-0.1 -0.2,-1.5 0.05,-0.4 q 0.3,-1.8 1.95,-3 l 0.3,-0.2"
         fill="#5b6c7b"
         fill-rule="evenodd"
         stroke="none"
         id="path3" />
      <path
         d="m -5.4,-12.8 1.85,0.05 0.7,0.25 0.7,0.7 v 0.05 q 0.75,1.4 -0.85,3.3 -1.75,2.1 -5.1,4.05 -2,1.2 -3.3,1.2 -1.6,0 -2.2,-1.15 -0.5,-0.9 0,-2 l 1.15,-1.7 q 3.5,-4.05 7.05,-4.75 M -15.25,0.85 -15.3,0.1 -15.05,-0.5 Q -14.7,-0.9 -14,-0.9 V -1 l 0.9,0.4 q 0.75,0.6 0.3,1.5 l -0.55,0.6 -0.85,0.15 -0.75,-0.35 -0.3,-0.45"
         fill="#ffffff"
         fill-rule="evenodd"
         stroke="none"
         id="path4" />
      <path
         d="m -5.4,-12.8 q -3.55,0.7 -7.05,4.75 l -1.15,1.7 q -0.5,1.1 0,2 0.6,1.15 2.2,1.15 1.3,0 3.3,-1.2 3.35,-1.95 5.1,-4.05 1.6,-1.9 0.85,-3.3 v -0.05 l -0.7,-0.7 -0.7,-0.25 -1.85,-0.05 M -19.35,3.55 -19.3,1.8 q 0.15,-1.4 0.9,-3.7 1,-3.3 2.35,-5.2 1.15,-1.8 3.6,-3.9 4.75,-4.15 9.65,-5.8 l 0.25,-0.1 2.35,-0.4 2.4,0.5 4.5,-0.15 h 0.1 l 1.4,-0.1 q 0,0.45 0.3,0.75 l -0.4,0.4 -0.8,0.8 -1.2,1.05 q -1.55,1.3 -3.15,2.2 l -0.2,0.1 q -2.8,1.45 -4.15,2.4 -2.65,2.05 -3.65,5.1 l -0.5,2.3 Q -5.8,0 -5.45,1.3 l 0.6,1.45 q -3.2,0.35 -5.3,2.35 -1.15,-0.8 -2.5,-1.35 -2.5,-1.05 -4.7,-0.75 -1.1,0.15 -2,0.55 M 18.7,-8.55 q 0.85,2.1 1.25,4.55 0.95,5.75 -1.4,11.5 L 18.5,7.65 q -1,0.2 -2.25,1.15 l -2.4,1.7 -0.4,0.2 q -2,0.85 -4.3,0.05 l -0.9,-0.4 Q 6.65,9.5 5.35,7.9 L 4.65,6.8 Q 8.15,6.55 10.7,5.1 L 11.5,4.6 14.55,1.95 V 1.9 l 2.15,-2.75 q 1.1,-2.1 1.15,-5.3 l 0.85,-2.4 m -6.35,23.2 q -4.45,3.05 -9,4.05 l -0.75,0.15 -4.45,0.4 Q -4.7,19.1 -7.3,18.05 l 0.65,-0.95 1.8,-0.2 0.45,-0.1 q 1.65,-0.6 3.15,-2 l 1.05,-1.2 q 2.05,-2.6 2,-4.8 1,2.35 2.95,3.9 1,0.75 2.3,1.3 1.65,0.65 3.3,0.75 l 2,-0.1 m -27.6,-13.8 0.3,0.45 0.75,0.35 0.85,-0.15 0.55,-0.6 Q -12.35,0 -13.1,-0.6 L -14,-1 v 0.1 q -0.7,0 -1.05,0.4 l -0.25,0.6 0.05,0.75 M -8.2,6.8 -8.15,6.75 q 1.2,-0.8 2.65,-0.95 0.95,-0.15 1.85,0 L -2.7,6 q 1.25,2.35 0.7,4 l -1.35,1.9 -1.45,1.35 -0.9,0.45 Q -5.5,10.85 -7,8.4 L -7.5,7.65 -8.2,6.8"
         fill="#93a1ad"
         fill-rule="evenodd"
         stroke="none"
         id="path5" />
    </g>
    <g
       id="sprite1"
       transform="translate(17.4,15.85)">
      <use
         ffdec:characterId="31"
         height="57.200001"
         transform="matrix(0.5366,0,0,0.5366,-16.6582,-14.546)"
         width="70.75"
         xlink:href="#sprite2"
         id="use5" />
    </g>
    <g
       id="sprite2"
       transform="translate(-8.65,-10.35)">
      <use
         ffdec:characterId="30"
         height="57.200001"
         transform="translate(8.65,10.35)"
         width="70.75"
         xlink:href="#shape1"
         id="use6" />
    </g>
    <g
       id="shape1"
       transform="translate(-8.65,-10.35)">
      <path
         d="m 14.8,41.7 q 0.65,-1.75 2.65,-2.5 1.8,-0.8 3.7,-0.25 1.15,0.45 2.25,1.2 l 0.9,0.4 q 1.65,0.9 2.85,2.5 L 37.8,30.1 q 2.35,-2.8 3.75,-3.95 1.5,-1.15 4.25,-2.4 18.2,-8.85 27.65,-12.6 2.15,-0.8 3.25,-0.8 h 0.8 l 1.9,2.4 -0.2,0.8 q -0.2,1.1 -1.55,3 -5.85,8.25 -18.85,23.8 -1.85,2.35 -3.35,3.5 -1.4,1.15 -4.75,2.75 l -15.15,7.15 q 1.2,1.6 1.75,3.4 l 0.2,1 0.55,2.5 q 0.1,1.95 -1.1,3.55 -1.2,1.65 -3.05,1.9 l -1.3,0.05 q -1.65,0.2 -3.45,-0.65 -1.85,-0.9 -3,-2.6 L 25,60.95 23.8,62.1 q -2.6,2.85 -4.3,3.95 -2.85,1.8 -5.5,1.45 l -1.65,-0.5 -1.2,-0.7 -0.2,-0.2 q -1,-0.85 -1.6,-1.9 L 9.25,64 9.15,63.8 8.75,62.4 q -0.2,-0.8 -0.05,-1.7 0.25,-2.65 2.7,-5.05 1.5,-1.3 4.9,-3.15 L 17.7,51.55 16.05,50 q -1.35,-1.5 -1.8,-3.6 -0.4,-1.85 0.25,-3.45 l 0.3,-1.25"
         fill="#000000"
         fill-opacity="0.372549"
         fill-rule="evenodd"
         stroke="none"
         id="path6" />
    </g>
  </defs>
</svg>
