<?xml version="1.0" encoding="UTF-8" standalone="no"?>
<svg
   ffdec:objectType="frame"
   height="60.465611"
   width="79.319969"
   version="1.1"
   id="svg5"
   xmlns:xlink="http://www.w3.org/1999/xlink"
   xmlns="http://www.w3.org/2000/svg"
   xmlns:svg="http://www.w3.org/2000/svg"
   xmlns:ffdec="https://www.free-decompiler.com/flash">
  <g
     transform="translate(41.032051,26.783333)"
     id="g1">
    <use
       ffdec:characterId="17"
       height="119.15"
       id="rarity"
       transform="translate(-58.5,-60.65)"
       width="119.15"
       xlink:href="#sprite0" />
    <use
       ffdec:characterId="735"
       height="60.5"
       transform="translate(-41.05,-26.8)"
       width="79.349998"
       xlink:href="#shape0"
       id="use1" />
  </g>
  <defs
     id="defs5">
    <g
       id="shape0"
       transform="translate(41.6,27.55)">
      <path
         d="m -6,-27.2 q 7.85,-1 14.75,1 l 1.3,-0.1 q 14.9,-1.5 23.25,10.15 5.75,8 4.05,17.5 L 37.3,2.2 q -0.6,2.15 -2.25,3.75 l -2.6,1.9 Q 34.65,16 30,23 23.55,32.6 11.8,32.7 l -1.3,0.05 q -10.4,1.2 -18.2,-5.5 -4.2,0.55 -8.25,2.5 -2.55,1.2 -5.4,1.25 -13.65,0.25 -18.75,-11.9 -1.7,-3.95 -1.45,-8.4 0.5,-8.55 4.6,-15.95 2.3,-4.2 5.5,-7.8 Q -21.2,-24.65 -6,-27.2 m 26.3,6.6 -1,-0.35 0.15,0.1 q 3.35,2.45 5.15,6.05 l -0.05,0.2 -0.15,0.25 -0.1,0.2 -0.1,0.15 -0.15,0.05 H 23.2 l -0.5,-0.15 q -1.15,-0.35 -2.2,-0.95 L 20.3,-15.2 17.9,-17 q -2.6,-1.6 -5.3,-2.7 -9.4,-3.8 -19.95,-1.45 l -1.7,0.4 q -5.85,1.55 -11.05,4.8 l -0.4,0.35 -4.4,3.75 -4.2,4.7 -0.15,0.2 q -0.5,0.95 -1.15,1.75 -1.7,2.1 -2.75,4.5 l -1.05,2.6 -0.4,1.05 -0.85,8.35 q -0.7,8.55 7.1,12.5 3.3,1.65 6.95,1.5 4.3,-0.2 8.3,-1.8 l -3.45,-0.15 Q -22.1,23 -24,18.3 l 0.15,-0.85 q 0.15,-0.6 0.75,-0.6 V 16.8 l 0.45,0.15 0.3,0.25 0.2,0.4 q 0.95,0.8 2.2,1.2 l 0.25,0.15 18.35,1.3 4.05,0.5 q 1.9,0.5 3.55,1.3 l -10.1,1.25 1.95,1.5 q 10.55,5.35 21.8,0.5 4.05,-1.75 6.65,-5.45 l 1.3,-1.9 Q 28.75,13.8 27.8,9.6 L 26.9,7 Q 25.75,4.7 23.75,3 22.95,2.35 22.05,1.8 21.4,1.4 21.55,0.6 q 0.7,-3.8 4.25,-1.7 l 1.2,0.8 q 2.05,1.45 3.4,3.5 l 0.3,0.45 0.3,-0.3 q 3.3,-2.8 2.7,-7.2 l -0.55,-1.5 -0.1,-0.4 q -1,-3.35 -2.7,-6.45 -1.55,-2.8 -3.85,-4.95 -2.85,-2.25 -6.2,-3.45"
         fill="#000000"
         fill-rule="evenodd"
         stroke="none"
         id="path1" />
      <path
         d="m 22.95,-11 q 5,1.4 2.35,5.6 -1.05,1.65 -2.85,1 -4.4,-1.45 -1.9,-5.25 0.9,-1.35 2.4,-1.35 M -3.65,2.15 q 5,1.45 2.3,5.8 -1,1.65 -2.85,1.1 -3.55,-1.05 -2.45,-4.5 0.75,-2.3 3,-2.4 M -23.1,0 l 0.95,0.4 0.3,0.15 0.1,0.25 0.15,0.4 0.1,0.45 -0.05,0.2 -0.1,0.45 -0.2,0.4 -0.7,0.4 -0.55,0.2 -0.65,-0.15 -0.7,-0.65 -0.3,-0.85 0.1,-0.45 0.55,-0.85 0.4,-0.15 0.6,-0.2 m -1.45,11.3 q 0.5,-0.5 1.45,-0.65 l 0.85,0.2 0.75,0.4 0.35,0.95 q 0.8,2.9 -3,2.1 -0.8,-0.15 -0.9,-1 -0.15,-1.35 0.5,-2 m 40.6,2.15 0.55,0.15 0.45,0.45 q 0.3,0.35 0.25,0.85 l -0.1,0.4 -0.75,0.8 h -0.4 l -0.6,-0.1 -0.25,-0.2 -0.35,-0.45 -0.1,-0.2 v -0.2 l 0.05,-0.45 0.1,-0.4 0.45,-0.4 q 0.4,-0.25 0.7,-0.25"
         fill="#939393"
         fill-rule="evenodd"
         stroke="none"
         id="path2" />
      <path
         d="m 19.45,-20.85 0.85,0.25 q 3.35,1.2 6.2,3.45 2.3,2.15 3.85,4.95 1.7,3.1 2.7,6.45 l 0.1,0.4 q -0.1,1.75 -0.6,3.7 Q 31.85,1.05 30.4,3.2 29.05,1.15 27,-0.3 l -1.2,-0.8 q -3.55,-2.1 -4.25,1.7 -0.15,0.8 0.5,1.2 0.9,0.55 1.7,1.2 2,1.7 3.15,4 l -1.95,1.3 q -6.2,3.65 -13.3,4.85 -16.7,2.8 -32.8,-0.95 l -0.35,-0.95 -0.75,-0.4 -0.85,-0.2 q -0.95,0.15 -1.45,0.65 l -1.2,-0.35 q -1.8,-0.5 -3.35,-1.6 -4.3,-3.1 -5.1,-7.45 l 1.05,-2.6 q 1.05,-2.4 2.75,-4.5 0.65,-0.8 1.15,-1.75 l 0.15,-0.2 4.2,-4.7 4.4,-3.75 0.4,-0.35 q 5.2,-3.25 11.05,-4.8 l 1.7,-0.4 q 10.55,-2.35 19.95,1.45 2.7,1.1 5.3,2.7 l 2.4,1.8 0.2,0.15 q 1.05,0.6 2.2,0.95 l 0.5,0.15 h 0.85 l 0.15,-0.05 0.1,-0.15 0.1,-0.2 0.15,-0.25 0.05,-0.2 q -1.8,-3.6 -5.15,-6.05 m 3.5,9.85 q -1.5,0 -2.4,1.35 -2.5,3.8 1.9,5.25 1.8,0.65 2.85,-1 2.65,-4.2 -2.35,-5.6 m -46.05,11 -0.6,0.2 -0.4,0.15 -0.55,0.85 -0.1,0.45 0.3,0.85 0.7,0.65 0.65,0.15 0.55,-0.2 0.7,-0.4 0.2,-0.4 0.1,-0.45 0.05,-0.2 L -21.6,1.2 -21.75,0.8 -21.85,0.55 -22.15,0.4 -23.1,0 m 19.45,2.15 q -2.25,0.1 -3,2.4 -1.1,3.45 2.45,4.5 1.85,0.55 2.85,-1.1 2.7,-4.35 -2.3,-5.8"
         fill="#bbbbbb"
         fill-rule="evenodd"
         stroke="none"
         id="path3" />
      <path
         d="m 33.15,-5.35 0.55,1.5 q 0.6,4.4 -2.7,7.2 L 30.7,3.65 30.4,3.2 q 1.45,-2.15 2.15,-4.85 0.5,-1.95 0.6,-3.7 M 26.9,7 27.8,9.6 q 0.95,4.2 0.05,8.35 l -1.3,1.9 Q 23.95,23.55 19.9,25.3 8.65,30.15 -1.9,24.8 L -3.85,23.3 6.25,22.05 Q 4.6,21.25 2.7,20.75 l -4.05,-0.5 -18.35,-1.3 -0.25,-0.15 q -1.25,-0.4 -2.2,-1.2 l -0.2,-0.4 -0.3,-0.25 -0.45,-0.15 v 0.05 q -0.6,0 -0.75,0.6 L -24,18.3 q 1.9,4.7 7.45,5.05 l 3.45,0.15 q -4,1.6 -8.3,1.8 -3.65,0.15 -6.95,-1.5 -7.8,-3.95 -7.1,-12.5 l 0.85,-8.35 0.4,-1.05 q 0.8,4.35 5.1,7.45 1.55,1.1 3.35,1.6 l 1.2,0.35 q -0.65,0.65 -0.5,2 0.1,0.85 0.9,1 3.8,0.8 3,-2.1 16.1,3.75 32.8,0.95 7.1,-1.2 13.3,-4.85 L 26.9,7 m -10.85,6.45 q -0.3,0 -0.7,0.25 l -0.45,0.4 -0.1,0.4 -0.05,0.45 v 0.2 l 0.1,0.2 0.35,0.45 0.25,0.2 0.6,0.1 h 0.4 l 0.75,-0.8 0.1,-0.4 q 0.05,-0.5 -0.25,-0.85 L 16.6,13.6 16.05,13.45"
         fill="#a1a1a1"
         fill-rule="evenodd"
         stroke="none"
         id="path4" />
    </g>
    <g
       id="sprite1"
       transform="translate(17.4,15.85)">
      <use
         ffdec:characterId="31"
         height="57.200001"
         transform="matrix(0.5366,0,0,0.5366,-16.6582,-14.546)"
         width="70.75"
         xlink:href="#sprite2"
         id="use4" />
    </g>
    <g
       id="sprite2"
       transform="translate(-8.65,-10.35)">
      <use
         ffdec:characterId="30"
         height="57.200001"
         transform="translate(8.65,10.35)"
         width="70.75"
         xlink:href="#shape1"
         id="use5" />
    </g>
    <g
       id="shape1"
       transform="translate(-8.65,-10.35)">
      <path
         d="m 14.8,41.7 q 0.65,-1.75 2.65,-2.5 1.8,-0.8 3.7,-0.25 1.15,0.45 2.25,1.2 l 0.9,0.4 q 1.65,0.9 2.85,2.5 L 37.8,30.1 q 2.35,-2.8 3.75,-3.95 1.5,-1.15 4.25,-2.4 18.2,-8.85 27.65,-12.6 2.15,-0.8 3.25,-0.8 h 0.8 l 1.9,2.4 -0.2,0.8 q -0.2,1.1 -1.55,3 -5.85,8.25 -18.85,23.8 -1.85,2.35 -3.35,3.5 -1.4,1.15 -4.75,2.75 l -15.15,7.15 q 1.2,1.6 1.75,3.4 l 0.2,1 0.55,2.5 q 0.1,1.95 -1.1,3.55 -1.2,1.65 -3.05,1.9 l -1.3,0.05 q -1.65,0.2 -3.45,-0.65 -1.85,-0.9 -3,-2.6 L 25,60.95 23.8,62.1 q -2.6,2.85 -4.3,3.95 -2.85,1.8 -5.5,1.45 l -1.65,-0.5 -1.2,-0.7 -0.2,-0.2 q -1,-0.85 -1.6,-1.9 L 9.25,64 9.15,63.8 8.75,62.4 q -0.2,-0.8 -0.05,-1.7 0.25,-2.65 2.7,-5.05 1.5,-1.3 4.9,-3.15 L 17.7,51.55 16.05,50 q -1.35,-1.5 -1.8,-3.6 -0.4,-1.85 0.25,-3.45 l 0.3,-1.25"
         fill="#000000"
         fill-opacity="0.372549"
         fill-rule="evenodd"
         stroke="none"
         id="path5" />
    </g>
  </defs>
</svg>
