<?xml version="1.0" encoding="UTF-8" standalone="no"?>
<svg
   ffdec:objectType="frame"
   height="88.349998"
   width="68.99398"
   version="1.1"
   id="svg5"
   xmlns:xlink="http://www.w3.org/1999/xlink"
   xmlns="http://www.w3.org/2000/svg"
   xmlns:svg="http://www.w3.org/2000/svg"
   xmlns:ffdec="https://www.free-decompiler.com/flash">
  <g
     transform="translate(33.446923,45.1)"
     id="g1">
    <use
       ffdec:characterId="17"
       height="119.15"
       id="rarity"
       transform="translate(-58.5,-60.65)"
       width="119.15"
       xlink:href="#sprite0" />
    <use
       ffdec:characterId="1275"
       height="88.349998"
       transform="translate(-33.45,-45.1)"
       width="69"
       xlink:href="#shape0"
       id="use1" />
  </g>
  <defs
     id="defs5">
    <g
       id="shape0"
       transform="translate(32.15,43.2)">
      <path
         d="m 3,-43.2 q 3.75,0.35 6.7,2.75 1.9,1.8 3,4.8 0.85,2.6 0.85,5.6 -0.25,4.2 -2.9,10.65 l 6.05,1.55 q 3.3,1.05 5.8,2.35 5.7,3.3 9.4,9.8 2.3,4.35 3.55,9.1 1.1,4.9 1.35,9.8 0.4,7.15 -2.6,15.5 -0.8,2.25 -2,4.05 Q 28.35,38.6 19.7,41.8 12.1,44.4 3.5,45 L 2.6,45.15 1.6,45 q -8.8,-0.6 -17,-3.2 -9.35,-3.2 -13.05,-9.05 L -30.3,28.7 q -2.45,-8.35 -1.65,-15.5 0.45,-4.9 1.7,-9.8 1.2,-4.75 3.6,-9.1 3.75,-6.5 9.55,-9.8 2.55,-1.3 5.95,-2.35 L -5,-19.4 q -2.75,-6.45 -3.1,-10.7 -0.15,-2.9 0.75,-5.6 0.95,-2.9 2.9,-4.75 2.8,-2.45 6.6,-2.7 h 0.4 L 2.6,-43.2 H 3 m 4.85,18.4 0.3,-1.15 q 0.6,-1.9 0.8,-3.55 L 9,-29.55 v -0.35 -0.55 -0.7 -0.65 L 8.35,-34.1 Q 7.5,-36.1 5.8,-37.25 4.25,-38.05 2.65,-38 l -0.05,0.05 q -1.85,-0.15 -3.1,0.75 -1.75,1.05 -2.45,3.1 -0.5,1.15 -0.6,2.3 v 0.65 q 0.15,0.35 -0.05,0.7 l 0.1,0.55 v 0.35 0.05 q 0.25,1.65 0.9,3.55 0.35,0.55 0.35,1.1 l 0.05,0.1 0.95,2.65 1.1,3.75 q 0.35,1.15 0.3,1.9 l -0.2,0.5 q -0.4,1.35 -3,2.1 l -5.55,1.2 -5.4,1.85 q -4.15,2.2 -7.3,6.85 -3.75,5.7 -4.7,12.6 l -0.35,3 q -0.3,3.55 0.25,7.5 0.45,2.8 1.55,6 1.15,3.2 2.5,5 1.8,2.05 4.65,3.9 8.85,4.7 19.9,5.4 h 0.05 q 10.9,-0.6 19.2,-5.4 2.85,-1.85 4.5,-3.9 1.35,-1.8 2.65,-5 l 1.85,-6 q 0.75,-4.05 0.65,-7.5 l -0.2,-3 Q 30.35,1.75 26.7,-4 q -3.05,-4.6 -7.15,-6.8 -2.1,-1 -5.25,-1.8 l -5.4,-1.25 q -2.65,-0.65 -3.1,-2.1 l -0.1,-0.5 q -0.2,-0.75 0.2,-1.9 l 1,-3.75 q 0.2,-0.95 0.95,-2.7 m -5.2,-9.8 0.8,0.25 1.1,1.05 q 0.6,1.05 0.4,2.55 l -0.25,0.95 0.05,0.95 -0.05,1.9 -0.15,1.2 q -0.3,0.85 -0.65,0.95 -0.45,0.5 -1.1,0.25 L 2.75,-24.5 Q 2,-24.45 1.6,-24.8 1.2,-25 0.95,-25.75 q -0.2,-0.3 -0.2,-1.2 l -0.1,-1.9 0.05,-0.95 -0.2,-0.95 q -0.1,-1.5 0.25,-2.55 l 1.1,-1.05 0.75,-0.2 0.05,-0.05 m 21.3,34.35 1.25,0.85 q 1.35,1.1 2.3,3.75 l 0.3,0.9 q 0.85,3.2 0.9,6.5 l -0.4,3.95 q -1.25,5.55 -5.9,9.5 -4.6,3.75 -11.65,5.5 L 2.6,32.15 -5.65,30.7 q -7.5,-1.75 -12.15,-5.5 -4.8,-3.95 -5.6,-9.5 L -23.55,13 q 0.05,-4 1.1,-7.75 l 0.3,-0.9 q 1,-2.65 2.4,-3.75 l 1.25,-0.75 0.6,-0.45 -0.2,0.25 -0.25,0.4 -1.55,5.45 q -1,4.15 -1.05,7.15 v 0.45 q 0.45,2.85 1.55,4.9 l 0.15,0.2 2.45,2.95 2.4,1.65 q 0.95,0.4 2.1,1.1 6.8,3.1 13.4,3.85 l 1.5,0.2 h 0.05 l 1.5,-0.2 Q 10.75,27 17.3,23.9 l 2,-1.1 2.45,-1.65 2.45,-2.95 0.15,-0.2 q 1.2,-2.05 1.75,-4.9 l 0.05,-0.9 Q 26.1,9.35 25.35,5.5 24.3,0.7 23.8,0.05 l -0.2,-0.4 -0.15,-0.25 0.5,0.35 M 2.95,-7.5 H 3 q 4.4,-0.15 9,1.1 v -0.05 q 3.1,0.9 5.2,2.05 2.35,1.7 4.1,4.25 1.6,2.3 2.35,5.4 0.6,2.45 0.2,4.1 -0.9,-1.7 -3.25,-4.8 -3.2,-3.8 -5.05,-4.8 L 11.8,-1.8 Q 10.6,-2.05 9.55,-2.45 L 3.5,-3.15 3.05,-3.1 H 3 l -0.45,-0.05 -6.1,0.7 q -1.05,0.4 -2.25,0.65 -2.35,0.65 -3.85,1.5 -1.95,1.1 -5.25,4.85 -2.65,3.2 -3.5,4.8 -0.3,-1.65 0.25,-4.1 0.85,-3.1 2.5,-5.4 1.7,-2.55 4.2,-4.25 2.15,-1.15 5.3,-2.05 H -6.1 Q -1.3,-7.7 2.95,-7.5"
         fill="#000000"
         fill-rule="evenodd"
         stroke="none"
         id="path1" />
      <path
         d="m 31.2,8.65 0.2,3 q 0.1,3.45 -0.65,7.5 l -1.85,6 q -1.3,3.2 -2.65,5 -1.65,2.05 -4.5,3.9 -8.3,4.8 -19.2,5.4 H 2.5 q -11.05,-0.7 -19.9,-5.4 -2.85,-1.85 -4.65,-3.9 -1.35,-1.8 -2.5,-5 -1.1,-3.2 -1.55,-6 -0.55,-3.95 -0.25,-7.5 l 0.35,-3 0.4,5.65 q 0.35,4.85 1.75,9.05 1.5,4.05 5.6,7.3 4.35,3.1 8.1,4 l 8.85,1.6 q 5.45,0.35 7.8,0 l 8.4,-1.6 q 3.6,-0.9 7.8,-4 3.85,-3.25 5.65,-7.3 1.55,-4.2 2.25,-9.05 l 0.6,-5.65 m -49.7,-8.8 0.15,-0.45 0.25,-0.4 0.85,-0.7 0.6,-1.15 q 1.55,-2.2 3.95,-4 l 5.75,-3.05 q 4.35,-1.8 6.55,-2 l 3.3,0.15 h 0.05 v -0.05 l 3.35,-0.1 q 2.25,0.2 6.45,2 3.7,1.65 5.6,3.1 2.35,1.75 3.85,3.95 l 0.6,1.15 0.8,0.7 0.2,0.4 0.15,0.35 -0.5,-0.35 0.15,0.25 0.2,0.4 q 0.5,0.65 1.55,5.45 0.75,3.85 0.8,6.7 l -0.05,0.9 q -0.55,2.85 -1.75,4.9 l -0.15,0.2 -2.45,2.95 -2.45,1.65 -2,1.1 Q 10.75,27 4.15,27.75 l -1.5,0.2 H 2.6 L 1.1,27.75 Q -5.5,27 -12.3,23.9 -13.45,23.2 -14.4,22.8 L -16.8,21.15 -19.25,18.2 -19.4,18 q -1.1,-2.05 -1.55,-4.9 v -0.45 q 0.05,-3 1.05,-7.15 l 1.55,-5.45 0.25,-0.4 0.2,-0.25 -0.6,0.45 M 2.95,-7.5 Q -1.3,-7.7 -6.1,-6.45 h -0.05 q -3.15,0.9 -5.3,2.05 -2.5,1.7 -4.2,4.25 -1.65,2.3 -2.5,5.4 -0.55,2.45 -0.25,4.1 0.85,-1.6 3.5,-4.8 3.3,-3.75 5.25,-4.85 1.5,-0.85 3.85,-1.5 1.2,-0.25 2.25,-0.65 L 2.55,-3.15 3,-3.1 h 0.05 l 0.45,-0.05 6.05,0.7 q 1.05,0.4 2.25,0.65 l 3.75,1.55 q 1.85,1 5.05,4.8 2.35,3.1 3.25,4.8 0.4,-1.65 -0.2,-4.1 Q 22.9,2.15 21.3,-0.15 19.55,-2.7 17.2,-4.4 15.1,-5.55 12,-6.45 V -6.4 Q 7.4,-7.65 3,-7.5 H 2.95"
         fill="#1a1a1a"
         fill-rule="evenodd"
         stroke="none"
         id="path2" />
      <path
         d="m -2.2,-24.75 -0.05,-0.1 q 0,-0.55 -0.35,-1.1 -0.65,-1.9 -0.9,-3.55 v -0.05 -0.35 l -0.1,-0.55 q 0.2,-0.35 0.05,-0.7 v -0.65 q 0.1,-1.15 0.6,-2.3 0.7,-2.05 2.45,-3.1 1.25,-0.9 3.1,-0.75 L 2.65,-38 q 1.6,-0.05 3.15,0.75 1.7,1.15 2.55,3.15 L 9,-31.8 v 0.65 0.7 0.55 0.35 l -0.05,0.05 q -0.2,1.65 -0.8,3.55 l -0.3,1.15 -0.3,0.5 -1.05,2.05 q -1.2,1.95 -2.05,2.3 -0.8,0.5 -1.6,0.25 H 2.8 q -0.9,0.25 -1.6,-0.25 -0.8,-0.35 -1.95,-2.3 l -1.15,-2.05 -0.3,-0.45 m 7.9,8.3 0.1,0.5 q 0.45,1.45 3.1,2.1 l 5.4,1.25 q 3.15,0.8 5.25,1.8 4.1,2.2 7.15,6.8 3.65,5.75 4.5,12.65 l -0.6,5.65 q -0.1,-9.15 -3.4,-14.95 -2.55,-4.15 -7.5,-7.3 -3.7,-2.2 -9.6,-4.15 -3.05,-0.8 -3.75,-2.15 -1,-0.9 -0.65,-2.2 M -26,8.65 q 0.95,-6.9 4.7,-12.6 3.15,-4.65 7.3,-6.85 l 5.4,-1.85 5.55,-1.2 q 2.6,-0.75 3,-2.1 l 0.2,-0.5 q 0.3,1.3 -0.6,2.2 -0.75,1.25 -3.85,2.15 -5.9,1.95 -9.8,4.15 -5.05,3.05 -7.7,7.3 -3.3,5.8 -3.8,14.95 L -26,8.65 m 28.65,-43.25 -0.05,0.05 -0.75,0.2 -1.1,1.05 q -0.35,1.05 -0.25,2.55 l 0.2,0.95 -0.05,0.95 0.1,1.9 q 0,0.9 0.2,1.2 0.25,0.75 0.65,0.95 0.4,0.35 1.15,0.3 l 0.05,-0.05 q 0.65,0.25 1.1,-0.25 0.35,-0.1 0.65,-0.95 l 0.15,-1.2 0.05,-1.9 -0.05,-0.95 0.25,-0.95 q 0.2,-1.5 -0.4,-2.55 l -1.1,-1.05 -0.8,-0.25"
         fill="#3c3c3c"
         fill-rule="evenodd"
         stroke="none"
         id="path3" />
      <path
         d="m -2.2,-24.75 0.3,0.45 1.15,2.05 q 1.15,1.95 1.95,2.3 0.7,0.5 1.6,0.25 h 0.05 q 0.8,0.25 1.6,-0.25 0.85,-0.35 2.05,-2.3 l 1.05,-2.05 0.3,-0.5 q -0.75,1.75 -0.95,2.7 l -1,3.75 q -0.4,1.15 -0.2,1.9 -0.35,1.3 0.65,2.2 0.7,1.35 3.75,2.15 5.9,1.95 9.6,4.15 4.95,3.15 7.5,7.3 3.3,5.8 3.4,14.95 -0.7,4.85 -2.25,9.05 -1.8,4.05 -5.65,7.3 -4.2,3.1 -7.8,4 l -8.4,1.6 q -2.35,0.35 -7.8,0 l -8.85,-1.6 q -3.75,-0.9 -8.1,-4 -4.1,-3.25 -5.6,-7.3 -1.4,-4.2 -1.75,-9.05 0.5,-9.15 3.8,-14.95 2.65,-4.25 7.7,-7.3 3.9,-2.2 9.8,-4.15 3.1,-0.9 3.85,-2.15 0.9,-0.9 0.6,-2.2 0.05,-0.75 -0.3,-1.9 l -1.1,-3.75 -0.95,-2.65 M 23.95,-0.25 23.8,-0.6 23.6,-1 22.8,-1.7 22.2,-2.85 q -1.5,-2.2 -3.85,-3.95 -1.9,-1.45 -5.6,-3.1 -4.2,-1.8 -6.45,-2 l -3.35,0.1 v 0.05 H 2.9 l -3.3,-0.15 q -2.2,0.2 -6.55,2 l -5.75,3.05 q -2.4,1.8 -3.95,4 l -0.6,1.15 -0.85,0.7 -0.25,0.4 -0.15,0.45 -1.25,0.75 q -1.4,1.1 -2.4,3.75 l -0.3,0.9 Q -23.5,9 -23.55,13 l 0.15,2.7 q 0.8,5.55 5.6,9.5 4.65,3.75 12.15,5.5 l 8.25,1.45 8.15,-1.45 q 7.05,-1.75 11.65,-5.5 4.65,-3.95 5.9,-9.5 l 0.4,-3.95 Q 28.65,8.45 27.8,5.25 L 27.5,4.35 Q 26.55,1.7 25.2,0.6 l -1.25,-0.85"
         fill="#2a2a2a"
         fill-rule="evenodd"
         stroke="none"
         id="path4" />
    </g>
    <g
       id="sprite1"
       transform="translate(17.4,15.85)">
      <use
         ffdec:characterId="31"
         height="57.200001"
         transform="matrix(0.5366,0,0,0.5366,-16.6582,-14.546)"
         width="70.75"
         xlink:href="#sprite2"
         id="use4" />
    </g>
    <g
       id="sprite2"
       transform="translate(-8.65,-10.35)">
      <use
         ffdec:characterId="30"
         height="57.200001"
         transform="translate(8.65,10.35)"
         width="70.75"
         xlink:href="#shape1"
         id="use5" />
    </g>
    <g
       id="shape1"
       transform="translate(-8.65,-10.35)">
      <path
         d="m 14.8,41.7 q 0.65,-1.75 2.65,-2.5 1.8,-0.8 3.7,-0.25 1.15,0.45 2.25,1.2 l 0.9,0.4 q 1.65,0.9 2.85,2.5 L 37.8,30.1 q 2.35,-2.8 3.75,-3.95 1.5,-1.15 4.25,-2.4 18.2,-8.85 27.65,-12.6 2.15,-0.8 3.25,-0.8 h 0.8 l 1.9,2.4 -0.2,0.8 q -0.2,1.1 -1.55,3 -5.85,8.25 -18.85,23.8 -1.85,2.35 -3.35,3.5 -1.4,1.15 -4.75,2.75 l -15.15,7.15 q 1.2,1.6 1.75,3.4 l 0.2,1 0.55,2.5 q 0.1,1.95 -1.1,3.55 -1.2,1.65 -3.05,1.9 l -1.3,0.05 q -1.65,0.2 -3.45,-0.65 -1.85,-0.9 -3,-2.6 L 25,60.95 23.8,62.1 q -2.6,2.85 -4.3,3.95 -2.85,1.8 -5.5,1.45 l -1.65,-0.5 -1.2,-0.7 -0.2,-0.2 q -1,-0.85 -1.6,-1.9 L 9.25,64 9.15,63.8 8.75,62.4 q -0.2,-0.8 -0.05,-1.7 0.25,-2.65 2.7,-5.05 1.5,-1.3 4.9,-3.15 L 17.7,51.55 16.05,50 q -1.35,-1.5 -1.8,-3.6 -0.4,-1.85 0.25,-3.45 l 0.3,-1.25"
         fill="#000000"
         fill-opacity="0.372549"
         fill-rule="evenodd"
         stroke="none"
         id="path5" />
    </g>
  </defs>
</svg>
