<?xml version="1.0" encoding="UTF-8" standalone="no"?>
<svg
   ffdec:objectType="frame"
   height="77.962502"
   width="86.912102"
   version="1.1"
   id="svg8"
   xmlns:xlink="http://www.w3.org/1999/xlink"
   xmlns="http://www.w3.org/2000/svg"
   xmlns:svg="http://www.w3.org/2000/svg"
   xmlns:ffdec="https://www.free-decompiler.com/flash">
  <g
     transform="translate(43.42,40)"
     id="g1">
    <use
       ffdec:characterId="17"
       height="119.15"
       id="rarity"
       transform="translate(-58.5,-60.65)"
       width="119.15"
       xlink:href="#sprite0" />
    <use
       ffdec:characterId="402"
       height="78.099998"
       transform="translate(-43.4,-40.15)"
       width="86.900002"
       xlink:href="#shape0"
       id="use1" />
  </g>
  <defs
     id="defs8">
    <g
       id="shape0"
       transform="translate(43.1,42.65)">
      <path
         d="m -32.85,34.85 q -1,-0.8 -1.3,-3.05 l -1.05,-5.05 -1.5,-4.35 q -0.8,-2.3 -1.6,-7.2 l -3.65,-21.6 -0.9,-4.75 q -0.45,-2.3 -0.15,-3.25 0.7,-2.1 3.9,-3 l 4.15,-0.8 4.25,-0.45 8.95,-1.5 2.4,-0.45 q 1.35,-3.6 5.35,-6.1 l 2.2,-1.1 -1.1,-2.15 -0.75,-2.3 -0.9,-2.2 -0.65,-0.45 -0.4,0.35 -3.1,5.95 q -0.4,1.15 -1,1.65 -0.75,0.5 -2.4,0.6 l -4.45,0.75 -2.65,0.25 -0.2,-0.05 -0.05,0.15 -0.55,1 -0.7,0.9 q -0.35,0.3 -1.35,0.5 l -1.75,0.1 -1.45,-0.4 q -0.8,-0.2 -1.2,-0.6 -0.45,-0.45 -0.7,-1.7 l -0.05,-2.3 0.7,-1.05 q 1.4,-1.6 4.05,-1.85 l 1.3,0.1 q 0.85,0.3 1.35,1.05 0.65,-0.5 1.95,-0.75 l 4.3,-0.45 q 0.95,-0.05 1.25,-0.35 l 0.5,-0.6 1.85,-3.85 q 1.15,-2.2 2.25,-3.6 l 1.65,-1.45 2.1,-0.2 1.15,1.05 0.85,1.45 1.3,1.8 q 0.45,0.85 0.75,2.15 l 0.45,2.15 1.05,3.2 3.35,-0.65 0.25,-0.05 4.4,-4.05 5.35,-4.8 q 1.95,-2.15 3.35,-2.25 1.4,-0.1 2.95,1.25 l 1.25,1.15 1.25,1.05 q 2.7,-2 4.7,-3.9 1.4,-1.25 2.3,-1.3 l 1.6,0.35 1.4,0.95 1.1,0.45 q 0.4,0 0.9,-0.35 1.5,-1.05 2.65,-1.35 l 2.7,0.2 q 1.25,0.65 1.7,2.25 0.35,1.3 -0.05,2.6 -0.45,1.25 -1.45,2.15 -0.95,0.8 -2.3,1 l -2.55,-0.2 q -0.6,-0.3 -1.3,-0.85 l -1.35,-0.95 -1.85,-1.1 -0.85,-0.15 -1,0.75 -1.65,1.25 -1.45,1.4 -0.65,1.25 -1,1 q -1.15,0.6 -2.95,-1.05 l -4.1,-3.65 -8,6.85 -0.1,0.15 1.8,0.45 q 1.8,0.65 3.45,1.9 l 1.2,1.15 22.35,-5 q 2,-0.55 3.05,0 1.1,0.55 1.6,2.9 5.1,21.15 6.95,32.85 1.15,7.1 1.8,9.45 l 0.75,2.6 0.6,2.7 q 0.2,2.1 -0.55,3.05 -0.7,0.8 -2.95,1.2 L 27.6,26 l -7.2,1.55 -7.2,1.3 -29.85,4.9 -13.05,1.7 q -2.2,0.1 -3.15,-0.6 m 1.55,-15.7 1.6,5.1 0.8,2.95 0.35,2.15 4,-0.1 1.05,-0.2 2.2,-0.45 2.9,-0.45 1.1,-0.25 1.45,-0.25 h 0.15 l 4.25,-0.8 2.25,-0.4 4.8,-0.8 8,-1.3 4,-0.6 1,-0.15 7.85,-1.2 q 6.05,-1 17.35,-3.55 L 36.3,18.25 35.9,16.4 35.45,14.15 35,11.8 33.15,0.5 l -2.7,-17.9 -0.75,-3.2 -1.2,-3.2 -0.55,-0.65 q -0.3,-0.2 -1,0 l -43.15,9.5 q -9.1,1.8 -17.7,2.8 l -2.95,0.35 4.5,25.8 1.05,5.15 m 29.8,-44.2 -5.5,0.65 -2.3,0.9 -2.7,1.4 12.5,-2.65 -2,-0.3"
         fill="#000000"
         fill-rule="evenodd"
         stroke="none"
         id="path1" />
      <path
         d="m -1.5,-25.05 2,0.3 -12.5,2.65 2.7,-1.4 2.3,-0.9 5.5,-0.65"
         fill="#3f3f3f"
         fill-rule="evenodd"
         stroke="none"
         id="path2" />
      <path
         d="m -31.65,-4.7 -0.1,-0.5 -0.8,-3 -0.05,-0.05 -0.05,-0.35 0.4,-0.05 0.3,-0.1 1.4,-0.35 0.3,-0.05 0.7,-0.15 h 0.05 l 0.45,0.25 0.3,0.3 0.3,0.55 q 0.45,1.3 -0.2,2.4 L -29,-5.45 q -1.05,1.1 -2.6,0.75 h -0.05 m 5,-5.3 3.5,-0.9 0.35,-0.1 2.05,-0.5 q 0.3,0.4 0.45,1 0.25,0.9 -0.1,1.75 l -0.05,0.4 Q -20,-8.8 -19.3,-8.9 h 0.35 l -0.1,-0.3 q -0.05,-0.85 0.35,-1.5 l 1,-0.85 0.3,-0.05 1.45,0.2 0.4,0.15 0.65,0.85 0.25,1.05 -0.1,0.4 -0.1,0.35 -0.45,0.6 0.85,0.25 0.3,0.2 0.7,0.45 0.55,0.9 0.3,0.75 0.05,0.85 -0.6,0.6 -0.1,0.1 Q -13.8,-3.2 -14,-2 l -0.15,0.05 q -0.6,0.35 -1.3,0.4 L -15.5,-1.9 q -0.35,-1.65 -1.65,-2 -0.95,-0.25 -1.75,0.3 l -0.15,-0.35 V -4.1 l -0.25,-0.05 -0.45,-0.15 q -0.75,-0.25 -1.15,-0.9 -0.7,-1 -0.3,-2.1 h -0.05 q -1.35,1.3 -3.15,0.75 l -0.25,-0.1 -0.95,-0.5 q -0.8,-0.7 -0.95,-1.85 l -0.05,-0.1 -0.1,-0.75 0.05,-0.15 m 10.95,-2.35 1.75,-0.25 h 0.2 l 1.1,-0.15 1.1,-0.25 1,-0.2 1.05,0.75 0.25,0.35 q 0.35,0.55 0.25,1.15 -0.05,0.9 -0.75,1.5 -0.65,0.55 -1.5,0.55 h -0.45 q -0.5,-0.15 -1,-0.6 -0.7,-0.6 -0.75,-1.45 v -0.1 -0.3 h -0.15 l -0.85,-0.15 -0.35,-0.1 -0.9,-0.75 m 10.55,-2 1.65,-0.4 2.45,-0.55 0.25,-0.05 1.6,-0.45 0.6,-0.15 1.75,-0.5 0.7,-0.15 0.75,-0.15 0.75,-0.2 0.25,-0.05 0.35,0.5 0.05,0.05 q 0.4,0.75 0.2,1.6 v 0.05 l -0.6,1 q -0.4,0.4 -0.95,0.6 L 4,-13 l -1.05,-0.05 -0.8,-0.35 -1.2,0.1 q -0.6,-0.15 -1,-0.4 0.05,0.5 -0.15,0.9 -0.15,0.6 -0.65,1.15 l -0.2,0.05 q -0.6,0.5 -1.35,0.55 L -3,-11 -3.8,-11.2 -4.3,-11.5 Q -5,-12 -5.15,-12.85 l -0.05,-1.1 0.05,-0.4 m 12.1,-3 0.35,-0.05 3.25,-0.8 0.25,0.2 q 0.55,0.6 0.6,1.5 l -0.05,0.65 -0.4,0.85 -0.2,0.25 -0.05,0.1 q -0.45,0.3 -1.1,0.5 l -0.3,0.1 Q 8.6,-14 8.05,-14.3 7.4,-14.65 7.1,-15.2 l -0.15,-0.25 q -0.3,-0.7 -0.15,-1.3 l 0.05,-0.25 0.1,-0.35 m 12.05,-2.2 0.8,-0.05 3.8,-0.25 h 0.1 0.25 l -0.2,0.9 -0.05,0.1 -0.2,0.3 -0.1,0.15 q -0.25,0.35 -0.75,0.55 l -0.05,0.05 -0.8,0.25 -0.8,-0.1 -0.6,-0.1 Q 20.05,-17.9 19.75,-18.2 L 19.3,-18.7 19,-19.55 m 7.75,2.9 0.2,1.1 0.2,0.8 q -0.15,0.65 -0.7,1.1 l -0.25,0.25 0.9,0.25 0.4,0.35 0.5,2.25 -0.3,-0.5 -1.35,-1.35 -1.7,0.15 -0.35,0.15 -0.2,0.2 0.15,-0.25 0.55,-0.75 q -0.9,0.15 -1.6,-0.3 l -0.7,-0.6 -0.35,-0.6 q -0.3,-0.85 0.05,-1.8 0.45,-0.9 1.45,-1.3 l 0.1,-0.05 0.35,-0.1 0.7,-0.1 q 0.7,0.05 1.3,0.5 l 0.05,0.05 0.2,0.05 0.4,0.5 m -4,34.7 -4.45,1 -0.1,-0.15 q -0.5,-1.25 0.3,-2.35 l -0.85,0.1 Q 16.4,16.4 15.7,15.4 h -0.05 v -0.05 q -0.5,-0.85 -0.5,-1.7 0,-0.6 0.3,-1.2 0.3,-0.7 0.8,-1.1 l 1.25,-0.6 h 0.1 L 17.8,10.7 18,10.65 q 0.7,-0.05 1.25,0.35 0.85,0.4 1.2,1.3 v 0.2 0.05 Q 20.7,13.5 20.4,14.5 l -0.45,1.05 0.15,-0.05 0.55,0.05 q 0.55,0.05 1.1,0.5 0.7,0.5 0.95,1.45 l 0.05,0.2 V 18 18.05 M 11.25,20.6 9.05,21.05 7.7,21.3 7.5,21.15 6.95,20.35 6.7,19.8 V 19.65 19.6 H 6.65 L 6.45,19.55 5.85,19.1 5.5,18.6 5.25,17.5 5.3,17.3 Q 5.35,16.8 5.65,16.4 L 5.8,16.1 q 0.5,-0.6 1.25,-0.7 l 0.6,-0.05 0.65,0.2 0.15,0.05 0.2,0.1 0.7,0.85 0.15,0.25 0.7,0.25 0.45,0.3 0.75,0.9 0.15,0.4 q 0.15,0.8 -0.1,1.5 l -0.2,0.45 m -25.75,4.3 -5.85,0.85 v -0.1 L -20.4,25.4 q -0.05,-0.85 0.4,-1.75 l 0.35,-0.45 q 0.55,-0.8 1.45,-1.05 l 1.2,-0.2 q -0.85,-0.65 -1.05,-1.7 L -18.1,19.9 q -0.15,-1.05 0.5,-1.85 h 0.2 q 0.6,-0.05 1.1,-0.4 h 0.15 0.2 q 0.65,-0.1 1.25,-0.6 h 0.05 L -14.6,17 q 0.9,0.25 1.5,1 l 0.1,0.1 q 0.5,0.65 0.55,1.45 v 0.2 l -0.05,0.45 q 0,0.5 -0.4,1 l -0.6,0.7 -0.45,0.4 -0.25,0.05 -0.75,0.25 -0.6,-0.05 0.4,0.4 q 0.65,0.8 0.65,1.95 m -11.05,-1.7 -0.6,-2.75 -0.25,-1.4 1.35,0.1 0.95,-0.4 0.15,-0.1 0.25,-0.25 0.05,-0.05 0.15,-0.1 0.2,0.25 0.05,0.05 q 0.6,1.05 0.4,2.15 l -0.1,0.2 -0.3,0.75 -0.2,0.45 -0.15,0.1 q -0.4,0.45 -1,0.7 l -0.3,0.1 -0.55,0.2 h -0.1 M -31,-1.85 -31.5,-4 l -0.05,-0.2 0.4,0.15 0.65,0.5 0.4,0.65 q 0.25,0.55 0.2,1.15 l -0.65,-0.1 H -31 m 6.45,6 -1.4,-0.35 q -0.65,-0.4 -0.85,-1.15 -0.45,-1.3 0.55,-2.2 0.65,-0.75 1.55,-0.7 -0.4,-0.7 -0.2,-1.65 0.15,-1.15 1.1,-1.7 l 0.45,-0.25 q 1.4,-0.55 2.5,0.4 l 0.1,0.1 0.7,1.2 -0.3,1.25 -0.1,1.25 -0.4,0.4 q -0.75,0.7 -1.75,0.55 0.1,0.45 0.05,0.95 l 0.05,0.05 q -0.1,0.7 -0.7,1.25 l -0.15,0.15 -0.45,0.25 -0.55,0.15 -0.2,0.05 M -8.1,-6.35 -8.4,-6.5 q -0.65,-0.45 -0.9,-1.35 -0.25,-0.8 0.05,-1.6 0.45,-0.95 1.4,-1.3 l 0.25,-0.1 q 0.65,-0.2 1.35,0 0.75,0.25 1.2,0.8 l 0.1,0.25 0.3,0.55 0.1,0.5 -0.85,0.35 -1.3,0.6 -0.25,0.15 q -0.9,0.45 -1.15,1.3 m 6.15,15.65 0.35,-0.75 0.65,-0.6 0.5,-0.25 0.15,0.6 0.1,0.35 0.3,1.6 0.9,1.8 -1.15,0.05 Q -0.85,12.05 -1.4,11.5 L -1.55,11.3 -1.9,9.75 -1.95,9.3 M 4.55,6.55 V 6.5 L 3.25,1.55 4.4,1.75 Q 5.6,2.2 6,3.35 l 0.1,0.1 q 0.35,1.2 -0.3,2.2 l -0.3,0.3 -0.75,0.5 -0.2,0.1 M 2.75,-0.55 2.5,-1.85 2.4,-2.55 Q 2.7,-3.5 3.75,-3.9 l 1.95,-0.15 0.25,0.1 q 0.2,1.6 0.7,3.5 l -0.3,0.3 Q 5.45,0.6 4.35,0.4 3.4,0.25 2.75,-0.55 m 15.5,-16.2 0.55,0.7 v 0.1 q 0.3,0.55 0.1,1.25 l -0.15,0.55 -0.55,0.65 q -0.5,0.4 -1.2,0.55 l -0.75,0.15 q -1.2,0.15 -1.85,-0.3 l -0.05,-0.1 -0.25,-0.3 -0.1,-0.2 q -0.2,-0.5 -0.1,-1.15 l 0.2,-0.75 0.45,-0.7 0.15,-0.15 1.25,-0.75 1.65,0.05 0.15,0.1 0.45,0.25 0.05,0.05 M 5.7,-12.4 5.85,-12.6 q 0.65,-0.5 1.6,-0.55 l 1.25,0.3 0.5,0.35 0.4,0.45 q 0.7,0.8 0.4,1.9 L 8.9,-9.9 q -2,0.55 -2.8,1.45 l -0.2,-0.1 q -1.2,-0.85 -1,-2.3 l 0.35,-1 0.45,-0.55 M 8.75,9 8.8,9.35 q 0.35,1.5 0.9,2.2 0.75,0.85 2,1 L 11.35,13 q -0.5,0.5 -1.1,0.6 -1.15,0.35 -2,-0.3 L 7.95,13.15 Q 6.9,12.25 7.1,10.95 7.35,9.55 8.75,9 m 10,0.5 Q 19.15,8.65 18.9,7.6 L 18.85,7.45 18.45,6.65 18.15,6.35 17.3,5.8 Q 17.5,5.4 17.85,5.15 L 18.05,5 q 0.7,-0.5 1.65,-0.5 l 0.15,1.1 0.25,2.6 0.1,0.5 0.3,0.85 -1.2,0.05 -0.55,-0.1 m -5.25,-4.25 -1.65,-7.3 1,0.3 0.5,0.45 0.45,0.6 0.35,1.05 q 0.25,1.1 0,1.8 V 2.3 2.35 L 14.2,2.6 14.35,3.4 V 3.45 Q 14.4,4.5 13.5,5.25 m 4.3,-16.5 0.1,-0.5 0.25,-0.55 q 0.5,-0.8 1.15,-1.05 l 1.45,-0.05 0.45,0.2 0.65,0.65 0.4,1.1 q 0.1,1.4 -1,2.2 L 20.9,-9 20.85,-9.25 20.75,-9.6 Q 20.1,-11.2 19,-11.45 l -1.2,0.2 m -0.8,4.65 0.8,3.9 0.3,1.2 -1.5,-0.2 q -0.7,-0.35 -1.1,-0.95 l -0.3,-0.7 q -0.15,-0.6 -0.05,-1.1 L 15.3,-4.9 15.65,-5.75 Q 16.2,-6.4 17,-6.6 M 24.75,1.5 25.1,1.3 25.7,1.1 25.8,1.65 24.75,1.5 m 2.65,7.35 0.4,0.25 0.55,0.15 0.75,0.05 q 1.4,-0.1 2,-1.25 l 0.35,0.45 q 0.7,1 0.05,2.1 l -0.1,0.2 -0.8,0.75 q 0.5,0.6 0.6,1.45 0.2,1.5 -0.9,2.55 -1.2,1 -2.65,0.45 Q 26.7,15.7 26.2,14.85 L 26,14.35 q -0.35,-0.8 -0.05,-1.7 l 0.1,-0.45 0.6,-0.9 0.25,-0.15 -0.05,-0.3 v -0.2 l 0.05,-0.6 0.4,-1 0.1,-0.2 M 23.6,-9.4 v -0.2 -0.15 l 0.05,0.3 0.05,0.25 -0.1,-0.2 M 0.45,14.15 1.15,13.95 Q 2.4,13.9 3.25,14.8 L 3.6,15.2 Q 4.1,16 4.05,16.95 4,18.05 3.3,18.7 L 1.95,19.45 H 0.9 L 0.55,19.35 H 0.4 L 0,19.15 -0.65,18.5 -0.75,18.4 -1,18.1 -1.35,17 l 0.05,-0.95 0.6,-1.1 1.15,-0.8 m -5.8,-0.05 -0.9,0.6 -1.95,0.1 -0.65,-0.25 q 0.15,-0.6 0.05,-1.3 l -0.05,-0.5 -0.3,-1.1 -0.1,-0.3 -0.35,-1.7 0.15,-0.05 1.7,-0.4 0.15,-0.1 0.35,1.2 0.45,1.4 0.75,1.85 0.65,0.5 0.05,0.05 M -7,16.5 h 0.3 l 0.45,0.05 q 0.35,0.05 0.65,0.25 0.4,0.2 0.75,0.5 0.85,0.75 1.05,1.75 v 0.05 0.15 0.6 l -0.15,0.7 v 0.2 l -0.8,1.05 -0.95,0.65 -0.9,0.2 q -1.1,0.1 -1.95,-0.45 L -8.65,22.15 -9,21.85 h -0.1 l -0.4,-0.6 -0.3,-0.6 q -0.4,-1.05 -0.05,-2.05 0.3,-1 1.2,-1.65 h 0.05 0.1 Q -7.8,16.5 -7,16.5 m -11.8,1.05 -0.25,0.05 -0.75,0.1 h -0.15 l -1.5,-0.35 -0.9,-0.85 -0.25,-0.35 V 16.1 l 0.05,-2.6 0.15,-0.3 0.35,-0.5 1.2,1.7 0.4,0.95 0.65,0.8 0.85,1.25 0.15,0.15 M -23.1,4 q 0.8,-0.55 1.95,-0.65 l 0.05,0.05 0.45,-0.9 0.05,-0.1 v 1.05 l -0.05,0.1 V 4.2 l 0.1,1.2 0.05,0.1 Q -21,5.05 -21.55,4.85 h -0.05 -0.15 l -0.3,-0.3 Q -22.55,4.15 -23.1,4"
         fill="#eeeeee"
         fill-rule="evenodd"
         stroke="none"
         id="path3" />
      <path
         d="m -28.65,-5.8 q 0.65,-1.1 0.2,-2.4 l -0.3,-0.55 -0.3,-0.3 -0.45,-0.25 2.75,-0.65 0.05,0.1 0.1,0.75 0.05,0.1 q 0.15,1.15 0.95,1.85 -0.15,0.45 -0.6,0.95 -0.7,0.55 -1.55,0.55 l -0.9,-0.15 m 11.2,-6.3 1.65,-0.2 0.1,-0.05 0.9,0.75 0.35,0.1 0.85,0.15 h 0.15 v 0.3 0.1 q 0.05,0.85 0.75,1.45 0.5,0.45 1,0.6 -0.1,0.6 -0.55,1.05 -0.5,0.6 -1.2,0.75 l -0.7,-0.45 -0.3,-0.2 -0.85,-0.25 0.45,-0.6 0.1,-0.35 0.1,-0.4 -0.25,-1.05 -0.65,-0.85 -0.4,-0.15 -1.45,-0.2 -0.3,0.05 0.25,-0.55 m 6.9,-1.1 1,-0.2 q 0.35,0.55 0.3,1.25 v 0.05 l -0.25,-0.35 -1.05,-0.75 m 25.9,-5.8 1.55,-0.3 0.65,0.25 q 0.55,0.4 0.7,1.15 l 0.1,0.75 -0.1,0.35 v 0.05 l -0.05,-0.05 -0.45,-0.25 -0.15,-0.1 -1.65,-0.05 -1.25,0.75 q -0.3,-0.4 -0.3,-0.85 l 0.2,-0.9 0.3,-0.55 0.45,-0.25 m 8.6,-0.85 h 1 0.7 0.6 l 0.3,2.1 0.1,0.3 q -0.2,0.15 -0.4,0.2 l -0.1,0.05 -0.05,-0.05 q -0.6,-0.45 -1.3,-0.5 l -0.7,0.1 -0.5,-0.7 v -0.15 l -0.1,0.15 -0.2,0.2 -0.3,0.4 h 0.1 l 0.65,0.2 -0.1,0.05 q -1,0.4 -1.45,1.3 -0.35,0.95 -0.05,1.8 l 0.35,0.6 0.7,0.6 -0.8,0.05 -0.6,-0.2 -0.5,-0.4 -0.05,0.2 -0.05,0.35 -0.45,-0.2 -1.45,0.05 q -0.65,0.25 -1.15,1.05 l -0.25,0.55 -0.75,-0.8 -0.15,-0.4 q 0.7,-0.15 1.2,-0.55 l 0.55,-0.65 0.15,-0.55 q 0.2,-0.7 -0.1,-1.25 l 0.55,0.05 q 0.65,0.05 1.25,0.45 v -0.65 l 0.25,-0.55 0.45,-0.65 -0.5,-0.1 -0.55,-0.3 -0.5,-0.5 q 0.3,0.3 0.65,0.45 l 0.6,0.1 0.8,0.1 0.8,-0.25 0.05,-0.05 q 0.5,-0.2 0.75,-0.55 l 0.1,-0.15 0.2,-0.3 0.05,-0.1 0.2,-0.9 M 24.8,17.6 22.75,18.05 V 18 17.7 L 22.7,17.5 Q 22.45,16.55 21.75,16.05 21.2,15.6 20.65,15.55 21,15.2 21.5,15 L 23,14.95 q 0.15,0 0.35,0.15 0.55,0.2 0.9,0.75 h 0.05 q 0.45,0.65 0.55,1.5 L 24.8,17.6 M 7.7,21.3 6.7,21.5 6.3,21.55 5.9,21.4 5.05,20.55 4.65,19.8 q -0.2,-0.85 0.2,-1.65 l 0.4,-0.65 0.25,1.1 0.35,0.5 0.6,0.45 0.2,0.05 H 6.7 v 0.05 0.15 l 0.25,0.55 0.55,0.8 0.2,0.15 M 0,22.7 -2.3,23.1 -2.95,22.85 q -1,-0.7 -1.05,-1.75 v -0.2 l 0.05,-0.15 v -0.2 l 0.15,-0.7 0.85,-0.9 q 0.45,-0.3 1.55,-0.45 h 0.25 l -0.25,-0.3 -0.05,-0.1 -0.4,-1 -0.25,0.7 -0.1,0.15 -1.2,0.95 -0.1,0.1 -0.25,0.05 -0.05,0.05 V 19.05 Q -4,18.05 -4.85,17.3 -5.2,17 -5.6,16.8 -5.9,16.6 -6.25,16.55 L -6.7,16.5 H -7 l 0.1,-0.8 0.65,-1 0.9,-0.6 1.15,0.4 0.55,-0.1 h 0.05 l 0.6,-0.1 0.4,0.25 q 0.7,0.7 0.8,1.55 0.25,-0.9 1.2,-1.55 l 1.05,-0.4 -1.15,0.8 -0.6,1.1 -0.05,0.95 0.35,1.1 0.25,0.3 0.1,0.1 0.65,0.65 0.4,0.2 h 0.15 l 0.35,0.1 0.05,0.2 q 0.25,0.7 -0.05,1.7 L 0,22.6 v 0.1 m -5.65,0.95 -3.6,0.5 -0.2,-0.35 -0.1,-0.2 0.05,-1.05 0.2,-0.25 0.2,-0.45 H -9 l 0.35,0.3 0.1,0.05 q 0.85,0.55 1.95,0.45 l 0.9,-0.2 0.1,0.8 -0.05,0.4 m -6.05,0.85 -0.35,0.05 -1,0.15 -0.6,-0.15 -1,-1.05 -0.25,-0.6 -0.05,-0.3 0.75,-0.25 0.25,-0.05 0.45,-0.4 0.6,-0.7 q 0.4,-0.5 0.4,-1 1.05,0.05 1.7,0.9 0.4,0.6 0.4,1.45 l -0.05,0.35 q -0.1,0.6 -0.45,1.05 l -0.8,0.55 m -8.65,1.25 -3.45,0.45 -0.6,-0.2 -0.75,-0.6 -0.4,-1.9 0.1,-0.3 0.55,-0.2 0.3,-0.1 q 0.6,-0.25 1,-0.7 l 0.15,-0.1 0.2,-0.45 0.65,0.05 q 0.45,0.05 0.8,0.25 l 0.1,0.1 q 0.45,0.25 0.75,0.75 l 0.4,0.05 q 0.45,0.05 0.9,0.35 L -20,23.65 q -0.45,0.9 -0.4,1.75 l 0.05,0.25 v 0.1 M -30.5,-3.55 V -3.6 l 0.85,-1.05 q 0.6,-0.5 1.45,-0.55 1.35,-0.05 2.2,0.95 0.55,0.7 0.45,1.7 -0.1,1.05 -0.75,1.65 -1.05,1 -2.25,0.7 -0.4,-0.9 -0.95,-1.3 l -0.4,-0.25 q 0.05,-0.6 -0.2,-1.15 l -0.4,-0.65 m 6.7,-0.05 -0.05,-0.1 q -0.75,-0.6 -0.95,-1.5 l 0.15,-1.45 0.25,0.1 q 1.8,0.55 3.15,-0.75 h 0.05 q -0.4,1.1 0.3,2.1 0.4,0.65 1.15,0.9 l -0.2,0.3 -0.8,0.65 -0.1,-0.1 q -1.1,-0.95 -2.5,-0.4 l -0.45,0.25 m 11.25,-1 -0.05,-0.85 -0.3,-0.75 0.25,-0.35 1.1,-0.55 1.3,0.1 q 0.65,0.3 1,0.9 l 0.35,1.05 -0.35,-0.2 q -1.05,-0.4 -2.15,0 l -1.15,0.65 m 4.95,-6.25 -0.1,-0.35 q -0.1,-0.95 0.4,-1.7 0.75,-1.05 2.1,-1.05 l 0.05,1.1 Q -5,-12 -4.3,-11.5 l 0.5,0.3 0.8,0.2 q -0.1,0.4 -0.35,0.85 l 1,0.6 0.15,0.1 -0.65,0.15 -1.45,0.4 -0.25,0.15 -0.1,-0.5 -0.3,-0.55 -0.1,-0.25 q -0.45,-0.55 -1.2,-0.8 -0.7,-0.2 -1.35,0 m 6.75,-0.8 q 0.5,-0.55 0.65,-1.15 0.2,-0.4 0.15,-0.9 0.4,0.25 1,0.4 l 1.2,-0.1 0.8,0.35 1.05,0.05 0.1,0.8 -0.1,0.9 -0.55,0.85 -0.4,0.35 -2,0.1 h -0.2 l -0.45,0.1 -0.25,-0.2 -0.75,-0.8 -0.25,-0.75 m 6.45,-2.15 0.6,-1 0.9,-0.4 q 0.3,0.55 0.95,0.9 0.55,0.3 1.25,0.25 l 0.15,0.8 -0.1,0.25 -0.15,0.5 -0.5,-0.35 -1.25,-0.3 q -0.95,0.05 -1.6,0.55 l -0.15,0.2 v -0.05 Q 5.35,-13.15 5.6,-13.8 M 4.7,8.1 4.55,6.55 4.75,6.45 5.5,5.95 5.8,5.65 q 0.65,-1 0.3,-2.2 L 7.2,3.75 7.65,4.1 8.25,6.8 8,7.35 7.8,7.55 Q 6.8,8.7 5.25,8.25 L 4.7,8.1 m 6.65,-23.95 0.9,-0.55 1.2,0.25 0.65,0.55 -0.2,0.75 q -0.1,0.65 0.1,1.15 l 0.1,0.2 -0.45,0.45 q -0.45,0.35 -1.15,0.35 -0.65,-0.05 -1.15,-0.45 l -0.2,-0.2 q -0.55,-0.55 -0.45,-1.3 l 0.05,-0.1 0.2,-0.25 0.4,-0.85 m 3,27.9 0.55,-0.15 1.15,-0.45 0.2,-0.1 q -0.5,0.4 -0.8,1.1 -0.3,0.6 -0.3,1.2 0,0.85 0.5,1.7 V 15.4 L 15,14.95 l -0.65,-1 v -0.1 q -0.3,-0.8 -0.05,-1.5 l 0.05,-0.3 m 3.25,-1.3 0.2,-0.15 0.2,0.05 -0.2,0.05 -0.2,0.05 m -5.75,-12.8 -0.5,-2.2 0.5,0.25 q 0.65,0.4 0.9,1.15 l 0.1,1.1 -1,-0.3 M 20.9,-9 21.25,-9.25 21.85,-8.1 21.9,-7 21.75,-6.55 20.9,-9 m -5.6,4.1 v -0.4 q 0.1,-0.65 0.55,-1.2 l 1,-0.6 0.05,0.15 0.1,0.35 q -0.8,0.2 -1.35,0.85 L 15.3,-4.9 m 3.25,5.1 0.55,2.05 0.5,1.85 Q 18.95,3.95 18.5,3.45 17.5,2.5 17.9,1.3 18.1,0.6 18.55,0.2 m 3.85,11.05 1.5,-0.1 q 0.6,-0.2 1,-0.6 0.6,-0.6 0.65,-1.6 V 8.5 L 25.4,7.75 h 0.1 L 26.55,7.7 26.7,8 l 0.7,0.85 -0.1,0.2 -0.4,1 -0.05,0.6 v 0.2 l 0.05,0.3 -0.25,0.15 -0.6,0.9 -0.1,0.45 -0.15,0.05 q -1.35,0.75 -2.65,-0.2 l -0.4,-0.45 q -0.25,-0.3 -0.35,-0.8 m -8.6,-11.95 0.35,0.2 q 0.65,0.35 0.9,1.2 0.25,0.7 0.05,1.45 L 14.35,3.4 14.2,2.6 14.15,2.35 V 2.3 2.15 q 0.25,-0.7 0,-1.8 L 13.8,-0.7 m 9.9,-8.5 v 0.1 l 0.7,3.4 q -0.5,-0.25 -0.75,-0.75 -0.5,-0.65 -0.5,-1.45 0,-0.85 0.45,-1.5 l 0.1,0.2 m 0.65,5.5 H 24.3 L 22.7,-3.45 22.25,-4.9 22.1,-5.45 22.35,-5.5 q 1.1,0.1 1.65,0.85 l 0.35,0.95 M 7.65,15.35 V 14.4 L 7.7,14.2 q 0.15,-0.5 0.55,-0.9 0.85,0.65 2,0.3 0.6,-0.1 1.1,-0.6 l 0.55,0.65 0.25,0.45 q 0.3,0.8 -0.15,1.7 -0.5,0.95 -1.65,1.25 H 10.2 L 9.5,16.8 9.35,16.55 8.65,15.7 8.45,15.6 8.3,15.55 7.65,15.35 m -21.5,0.25 0.8,0.1 q -0.5,-0.45 -0.6,-1.15 -0.15,-0.8 0.3,-1.55 l 0.15,-0.2 0.4,1.1 0.7,1.05 0.75,0.85 0.5,0.2 0.6,0.05 -1.45,0.3 -0.25,-0.05 0.3,0.55 q 0.25,0.4 0.25,0.8 l -0.15,0.8 q -0.2,0.8 -0.85,1.25 l -0.05,0.05 v -0.2 Q -12.5,18.75 -13,18.1 L -13.1,18 q -0.6,-0.75 -1.5,-1 0.5,-0.6 0.7,-1.35 l 0.05,-0.05 m -5.95,2.1 0.25,0.65 q 0.15,0.8 -0.3,1.5 -0.7,1.15 -1.95,1.15 l -0.05,0.05 -1,-0.35 q 0.2,-1.1 -0.4,-2.15 l -0.05,-0.05 -0.2,-0.25 0.35,-0.3 0.2,-0.3 0.3,-1.1 h 0.05 l 0.25,-0.05 0.9,0.85 1.5,0.35 h 0.15 m 10.3,3.55 q -0.95,-0.1 -1.5,-1.15 -0.35,-0.65 -0.2,-1.45 0.1,-0.7 0.6,-1.25 0.5,-0.4 1.2,-0.45 h 0.8 -0.05 q -0.9,0.65 -1.2,1.65 -0.35,1 0.05,2.05 l 0.3,0.6 M -22.5,2.3 -22.15,2 q 0.7,-0.45 1.4,-0.4 l 0.25,0.05 -0.1,0.7 V 2.4 l -0.05,0.1 -0.45,0.9 -0.05,-0.05 Q -22.3,3.45 -23.1,4 h -0.25 V 3.7 L -23.2,3.55 Q -22.6,3 -22.5,2.3"
         fill="#c2c2c2"
         fill-rule="evenodd"
         stroke="none"
         id="path4" />
      <path
         d="m -31.65,-4.7 h 0.05 q 1.55,0.35 2.6,-0.75 l 0.35,-0.35 0.9,0.15 q 0.85,0 1.55,-0.55 0.45,-0.5 0.6,-0.95 l 0.95,0.5 -0.15,1.45 q 0.2,0.9 0.95,1.5 l 0.05,0.1 q -0.95,0.55 -1.1,1.7 -0.2,0.95 0.2,1.65 -0.9,-0.05 -1.55,0.7 -1,0.9 -0.55,2.2 0.2,0.75 0.85,1.15 l 1.4,0.35 Q -25.45,4.55 -26,5.6 L -26.85,4 -27.9,1.8 -28.45,0 l -0.1,-0.2 q 1.2,0.3 2.25,-0.7 0.65,-0.6 0.75,-1.65 0.1,-1 -0.45,-1.7 -0.85,-1 -2.2,-0.95 -0.85,0.05 -1.45,0.55 l -0.85,1.05 v 0.05 l -0.65,-0.5 -0.4,-0.15 -0.1,-0.5 m 10.9,-6.8 1.15,-0.3 2.15,-0.3 -0.25,0.55 -1,0.85 q -0.4,0.65 -0.35,1.5 l 0.1,0.3 h -0.35 q -0.7,0.1 -1.15,0.55 l 0.05,-0.4 q 0.35,-0.85 0.1,-1.75 -0.15,-0.6 -0.45,-1 m 11.2,-1.9 4.4,-0.95 -0.05,0.4 q -1.35,0 -2.1,1.05 -0.5,0.75 -0.4,1.7 l 0.1,0.35 -0.25,0.1 q -0.95,0.35 -1.4,1.3 -0.3,0.8 -0.05,1.6 0.25,0.9 0.9,1.35 l 0.3,0.15 -0.25,0.8 0.15,1.05 -0.7,-0.55 -0.35,-1.05 q -0.35,-0.6 -1,-0.9 l -1.3,-0.1 -1.1,0.55 -0.25,0.35 -0.55,-0.9 q 0.7,-0.15 1.2,-0.75 0.45,-0.45 0.55,-1.05 h 0.45 q 0.85,0 1.5,-0.55 0.7,-0.6 0.75,-1.5 0.1,-0.6 -0.25,-1.15 v -0.05 q 0.05,-0.7 -0.3,-1.25 M 5.6,-17 6.95,-17.35 6.85,-17 6.8,-16.75 q -0.15,0.6 0.15,1.3 l 0.15,0.25 -0.9,0.4 v -0.05 Q 6.4,-15.7 6,-16.45 L 5.95,-16.5 5.6,-17 m 4.95,-1.2 h 0.05 l 4.75,-0.8 -0.45,0.25 -0.3,0.55 -0.2,0.9 q 0,0.45 0.3,0.85 l -0.15,0.15 -0.45,0.7 -0.65,-0.55 -1.2,-0.25 -0.9,0.55 0.05,-0.65 q -0.05,-0.9 -0.6,-1.5 l -0.25,-0.2 m 6.35,-1.1 2.1,-0.25 0.3,0.85 0.45,0.5 0.5,0.5 0.55,0.3 0.5,0.1 -0.45,0.65 -0.25,0.55 v 0.65 q -0.6,-0.4 -1.25,-0.45 l -0.55,-0.05 v -0.1 l -0.55,-0.7 v -0.05 l 0.1,-0.35 -0.1,-0.75 q -0.15,-0.75 -0.7,-1.15 L 16.9,-19.3 m 10.25,4.55 0.35,1.95 -0.4,-0.35 -0.9,-0.25 0.25,-0.25 q 0.55,-0.45 0.7,-1.1 m 4.35,21 0.85,4.6 0.65,4 0.2,1.2 -2.5,0.25 -1.55,0.25 -4.35,1.05 0.05,-0.25 Q 24.75,16.5 24.3,15.85 H 24.25 Q 23.9,15.3 23.35,15.1 23.15,14.95 23,14.95 L 21.5,15 Q 21,15.2 20.65,15.55 L 20.1,15.5 19.95,15.55 20.4,14.5 q 0.3,-1 0.05,-1.95 V 12.5 12.3 Q 20.1,11.4 19.25,11 18.7,10.6 18,10.65 L 17.8,10.6 18.1,10.35 18.75,9.5 19.3,9.6 20.5,9.55 q 0.25,0.6 0.65,1 l 0.95,0.65 0.3,0.05 q 0.1,0.5 0.35,0.8 l 0.4,0.45 q 1.3,0.95 2.65,0.2 l 0.15,-0.05 q -0.3,0.9 0.05,1.7 l 0.2,0.5 Q 26.7,15.7 27.65,16 29.1,16.55 30.3,15.55 31.4,14.5 31.2,13 31.1,12.15 30.6,11.55 l 0.8,-0.75 0.1,-0.2 Q 32.15,9.5 31.45,8.5 L 31.1,8.05 31.25,7.7 31.5,6.25 m -13.2,12.8 -4,0.9 -3.05,0.65 0.2,-0.45 q 0.25,-0.7 0.1,-1.5 l -0.15,-0.4 -0.75,-0.9 -0.45,-0.3 h 0.15 Q 11.5,16.75 12,15.8 12.45,14.9 12.15,14.1 L 11.9,13.65 11.35,13 11.7,12.55 h 1.15 l 1.5,-0.5 -0.05,0.3 q -0.25,0.7 0.05,1.5 v 0.1 l 0.65,1 0.65,0.45 h 0.05 q 0.7,1 1.95,1.25 l 0.85,-0.1 q -0.8,1.1 -0.3,2.35 l 0.1,0.15 M 6.3,21.55 4.45,21.9 0,22.7 v -0.1 l 0.9,-1.25 q 0.3,-1 0.05,-1.7 L 0.9,19.45 H 1.95 L 3.3,18.7 Q 4,18.05 4.05,16.95 4.1,16 3.6,15.2 L 3.25,14.8 Q 2.4,13.9 1.15,13.95 l -0.7,0.2 -1.05,0.4 Q -1.55,15.2 -1.8,16.1 -1.9,15.25 -2.6,14.55 L -3,14.3 q 0.95,-0.4 1.35,-1.45 l 0.1,-1.55 0.15,0.2 q 0.55,0.55 1.25,0.6 L 1,12.05 1.25,12.4 q 1.1,1.55 2.3,1.15 Q 4.5,13.35 5,12 5.4,11 5.3,10.25 L 4.8,8.9 4.7,8.1 5.25,8.25 Q 6.8,8.7 7.8,7.55 L 8,7.35 8.25,6.8 8.75,9 q -1.4,0.55 -1.65,1.95 -0.2,1.3 0.85,2.2 l 0.3,0.15 q -0.4,0.4 -0.55,0.9 l -0.05,0.2 v 0.95 L 7.05,15.4 Q 6.3,15.5 5.8,16.1 l -0.15,0.3 q -0.3,0.4 -0.35,0.9 l -0.05,0.2 -0.4,0.65 q -0.4,0.8 -0.2,1.65 l 0.4,0.75 0.85,0.85 0.4,0.15 m -8.6,1.55 -2.05,0.3 -1.3,0.25 0.05,-0.4 -0.1,-0.8 0.95,-0.65 0.8,-1.05 L -4,20.9 v 0.2 q 0.05,1.05 1.05,1.75 l 0.65,0.25 m -6.95,1.05 -0.65,0.1 -1.8,0.25 0.8,-0.55 q 0.35,-0.45 0.45,-1.05 l 0.05,-0.35 q 0,-0.85 -0.4,-1.45 -0.65,-0.85 -1.7,-0.9 l 0.05,-0.45 0.05,-0.05 q 0.65,-0.45 0.85,-1.25 l 0.15,-0.8 q 0,-0.4 -0.25,-0.8 l -0.3,-0.55 0.25,0.05 1.45,-0.3 Q -9.6,15.9 -9.1,15.2 l 0.25,-0.65 0.65,0.25 1.95,-0.1 -0.65,1 -0.1,0.8 q -0.8,0 -1.5,0.45 h -0.1 -0.8 q -0.7,0.05 -1.2,0.45 -0.5,0.55 -0.6,1.25 -0.15,0.8 0.2,1.45 0.55,1.05 1.5,1.15 l 0.4,0.6 -0.2,0.45 -0.2,0.25 -0.05,1.05 0.1,0.2 0.2,0.35 m -3.8,0.55 -1.45,0.2 q 0,-1.15 -0.65,-1.95 l -0.4,-0.4 0.6,0.05 0.05,0.3 0.25,0.6 1,1.05 0.6,0.15 m -10.75,1.5 -1.15,0.2 -0.2,-1 0.75,0.6 0.6,0.2 m -1.75,-2.7 v -0.3 h 0.1 l -0.1,0.3 m 4.8,-26.85 0.8,-0.65 0.2,-0.3 0.45,0.15 0.25,0.05 v 0.15 l 0.15,0.35 -0.55,0.45 -0.6,1 -0.7,-1.2 m 5.3,1.8 q 0.7,-0.05 1.3,-0.4 L -14,-2 l -0.3,1.7 q -0.45,3.75 -0.05,7.75 L -14.4,8 l 0.2,0.85 q 0.3,2.25 1,3.95 l -0.15,0.2 q -0.45,0.75 -0.3,1.55 0.1,0.7 0.6,1.15 l -0.8,-0.1 v -1.85 l -1,-5.7 L -15,7.3 q -0.6,-3.85 -0.45,-6.45 v -2.4 m 14.6,-10.1 0.25,0.75 0.75,0.8 0.25,0.2 -2.6,0.45 -0.15,-0.1 -1,-0.6 Q -3.1,-10.6 -3,-11 l 0.6,-0.05 q 0.75,-0.05 1.35,-0.55 l 0.2,-0.05 m 3.9,1.55 0.4,-0.35 L 4,-11.3 4.1,-12.2 4,-13 4.65,-13.2 q 0.55,-0.2 0.95,-0.6 -0.25,0.65 0.1,1.35 v 0.05 l -0.45,0.55 -0.35,1 q -0.2,1.45 1,2.3 l 0.2,0.1 -0.25,0.25 Q 5.45,-7.25 5.7,-5.6 L 5.95,-3.95 5.7,-4.05 3.75,-3.9 Q 2.7,-3.5 2.4,-2.55 L 2.15,-4.2 Q 4.1,-4.65 4.9,-5.75 5.7,-6.95 5.25,-8.25 4.8,-9.6 3.35,-10.05 L 3.05,-10.1 M -1.95,9.3 -2.7,7.4 -3.35,5.65 -6.6,-2.05 -7.25,-3.3 q 0.5,0.4 1.4,0.45 l 2.15,-0.25 0.55,-0.15 0.4,1.45 0.3,2.05 0.6,2.5 1.4,4.95 -0.5,0.25 -0.65,0.6 -0.35,0.75 m 5.2,-7.75 -0.1,-0.5 -0.4,-1.6 q 0.65,0.8 1.6,0.95 1.1,0.2 2,-0.55 L 6.65,-0.45 6.8,0.15 7.65,4.1 7.2,3.75 6.1,3.45 6,3.35 Q 5.6,2.2 4.4,1.75 L 3.25,1.55 m 7.45,-16.2 q -0.1,0.75 0.45,1.3 l 0.2,0.2 q 0.5,0.4 1.15,0.45 0.7,0 1.15,-0.35 l 0.45,-0.45 0.25,0.3 0.05,0.1 q 0.65,0.45 1.85,0.3 l 0.75,-0.15 0.15,0.4 0.75,0.8 -0.1,0.5 -0.15,0.1 -0.9,1.25 q -0.3,1.15 0.1,2.8 l -1,0.6 q -0.45,0.55 -0.55,1.2 v 0.4 l -0.15,0.45 q -0.1,0.5 0.05,1.1 l 0.3,0.7 q 0.4,0.6 1.1,0.95 l 1.5,0.2 0.45,1.7 q -0.45,0.4 -0.65,1.1 -0.4,1.2 0.6,2.15 0.45,0.5 1.1,0.65 l 0.1,0.4 q -0.95,0 -1.65,0.5 l -0.2,0.15 Q 17.5,5.4 17.3,5.8 L 16.9,5.65 Q 15.65,5.35 13.75,6.3 L 13.5,5.25 Q 14.4,4.5 14.35,3.45 V 3.4 L 15.1,2.15 Q 15.3,1.4 15.05,0.7 14.8,-0.15 14.15,-0.5 l -0.35,-0.2 -0.45,-0.6 -0.5,-0.45 -0.1,-1.1 Q 12.5,-3.6 11.85,-4 l -0.5,-0.25 -0.2,-0.9 q 0.45,-0.4 1.6,-0.65 1.3,-0.2 1.7,-0.55 l 0.4,-0.25 0.5,-1 q 0.25,-0.85 -0.2,-1.5 -0.5,-0.9 -1.55,-1.2 l -0.7,-0.1 h -1.3 l -1.6,0.25 q 0.3,-1.1 -0.4,-1.9 l -0.4,-0.45 0.15,-0.5 0.1,-0.25 -0.15,-0.8 0.3,-0.1 q 0.65,-0.2 1.1,-0.5 m 10.5,1.45 0.05,-0.35 0.05,-0.2 0.5,0.4 0.6,0.2 0.8,-0.05 q 0.7,0.45 1.6,0.3 l -0.55,0.75 -0.15,0.25 -0.55,1.05 0.05,1.1 v 0.15 0.2 q -0.45,0.65 -0.45,1.5 0,0.8 0.5,1.45 0.25,0.5 0.75,0.75 L 24.8,-3.75 24.35,-3.7 24,-4.65 Q 23.45,-5.4 22.35,-5.5 L 22.1,-5.45 21.75,-6.55 21.9,-7 21.85,-8.1 21.25,-9.25 q 1.1,-0.8 1,-2.2 l -0.4,-1.1 -0.65,-0.65 m 2.55,-4.35 -0.65,-0.2 H 23 l 0.3,-0.4 0.2,-0.2 0.1,-0.15 v 0.15 l 0.5,0.7 -0.35,0.1 m 2.4,0.35 0.1,-0.05 0.1,0.1 -0.2,-0.05 M 25.4,7.75 25.25,7.25 24.45,2.55 24.2,1.7 24.75,1.5 25.8,1.65 26.15,5.4 26.55,7.7 25.5,7.75 H 25.4 M -3.8,19.1 -3.75,19.05 -3.5,19 l 0.1,-0.1 1.2,-0.95 0.1,-0.15 0.25,-0.7 0.4,1 0.05,0.1 0.25,0.3 H -1.4 q -1.1,0.15 -1.55,0.45 l -0.85,0.9 V 19.25 19.1 M -10.05,2.65 -9.15,4.9 -10.05,5 V 2.65 m -7.55,15.4 q -0.65,0.8 -0.5,1.85 l 0.05,0.35 q 0.2,1.05 1.05,1.7 l -1.2,0.2 q -0.9,0.25 -1.45,1.05 -0.45,-0.3 -0.9,-0.35 l -0.4,-0.05 q -0.3,-0.5 -0.75,-0.75 l -0.1,-0.1 q -0.35,-0.2 -0.8,-0.25 l -0.65,-0.05 0.3,-0.75 0.1,-0.2 1,0.35 0.05,-0.05 q 1.25,0 1.95,-1.15 0.45,-0.7 0.3,-1.5 l -0.25,-0.65 0.75,-0.1 0.25,-0.05 0.7,0.4 0.5,0.1 m -4.75,-1.55 -0.25,0.05 -0.05,-0.2 0.05,-0.25 v 0.05 l 0.25,0.35 m 0.3,-3.8 -0.35,0.5 0.15,-0.9 0.2,0.4 M -22.5,2.3 -22.55,2.25 q 0.05,-0.5 -0.05,-0.95 1,0.15 1.75,-0.55 l 0.4,-0.4 -0.1,1.25 0.05,0.05 -0.25,-0.05 q -0.7,-0.05 -1.4,0.4 L -22.5,2.3 M -23.35,4 -23.8,3.95 -23.35,3.7 V 4"
         fill="#878787"
         fill-rule="evenodd"
         stroke="none"
         id="path5" />
      <path
         d="m 28,-10.55 0.25,0.6 0.7,2.25 2,9.55 0.5,3.85 L 31.5,6.25 31.25,7.7 31.1,8.05 Q 30.5,9.2 29.1,9.3 L 28.35,9.25 27.8,9.1 27.4,8.85 26.7,8 26.55,7.7 26.15,5.4 25.8,1.65 25.7,1.1 25.1,1.3 24.75,1.5 24.2,1.7 l 0.25,0.85 0.8,4.7 0.15,0.5 0.15,0.75 v 0.45 q -0.05,1 -0.65,1.6 -0.4,0.4 -1,0.6 l -1.5,0.1 -0.3,-0.05 -0.95,-0.65 q -0.4,-0.4 -0.65,-1 L 20.2,8.7 20.1,8.2 19.85,5.6 19.7,4.5 19.6,4.1 19.1,2.25 18.55,0.2 18.1,-1.5 17.8,-2.7 17,-6.6 16.9,-6.95 16.85,-7.1 q -0.4,-1.65 -0.1,-2.8 l 0.9,-1.25 0.15,-0.1 1.2,-0.2 q 1.1,0.25 1.75,1.85 l 0.1,0.35 0.05,0.25 0.85,2.45 0.35,1.1 0.15,0.55 0.45,1.45 1.6,-0.25 h 0.05 L 24.8,-3.75 24.4,-5.7 23.7,-9.1 v -0.1 l -0.05,-0.25 -0.05,-0.3 -0.05,-1.1 0.55,-1.05 0.2,-0.2 0.35,-0.15 1.7,-0.15 1.35,1.35 0.3,0.5 m -54.4,29.6 -0.25,-0.1 -1.2,-0.85 -0.05,-0.1 -0.25,-0.45 -0.35,-0.95 -0.25,-0.9 -0.75,-2.5 -0.85,-2.6 -0.8,-3.2 -0.5,-1.15 -0.6,-1.1 Q -32.9,3.75 -33,1.5 l 0.1,-1.45 0.2,-0.65 0.25,-0.45 q 0.45,-0.65 1.4,-0.8 h 0.05 0.45 l 0.65,0.1 0.4,0.25 q 0.55,0.4 0.95,1.3 l 0.1,0.2 0.55,1.8 1.05,2.2 0.85,1.6 q 0.55,-1.05 1.45,-1.45 l 0.2,-0.05 0.55,-0.15 0.45,0.05 h 0.25 q 0.55,0.15 1.05,0.55 l 0.3,0.3 h 0.15 0.05 q 0.55,0.2 1.05,0.65 l -0.05,-0.1 -0.1,-1.2 V 3.55 l 0.05,-0.1 V 2.4 2.35 l 0.1,-0.7 -0.05,-0.05 0.1,-1.25 0.1,-1.25 0.3,-1.25 0.6,-1 0.55,-0.45 q 0.8,-0.55 1.75,-0.3 1.3,0.35 1.65,2 l 0.05,0.35 v 2.4 Q -15.6,3.45 -15,7.3 l 0.15,0.75 1,5.7 v 1.85 l -0.05,0.05 q -0.2,0.75 -0.7,1.35 l -0.05,0.05 h -0.05 q -0.6,0.5 -1.25,0.6 h -0.2 -0.15 q -0.5,0.35 -1.1,0.4 h -0.2 l -0.5,-0.1 -0.7,-0.4 -0.15,-0.15 -0.85,-1.25 -0.65,-0.8 -0.4,-0.95 -1.2,-1.7 -0.2,-0.4 -0.15,0.9 -0.15,0.3 -0.05,2.6 -0.05,0.25 0.05,0.2 h -0.05 l -0.3,1.1 -0.2,0.3 -0.35,0.3 -0.15,0.1 -0.05,0.05 -0.25,0.25 -0.15,0.1 -0.95,0.4 -1.35,-0.1 M -14,-2 q 0.2,-1.2 0.75,-1.9 l 0.1,-0.1 0.6,-0.6 1.15,-0.65 q 1.1,-0.4 2.15,0 l 0.35,0.2 0.7,0.55 -0.15,-1.05 0.25,-0.8 q 0.25,-0.85 1.15,-1.3 L -6.7,-7.8 -5.4,-8.4 -4.55,-8.75 -4.3,-8.9 -2.85,-9.3 -2.2,-9.45 0.4,-9.9 0.85,-10 h 0.2 l 2,-0.1 0.3,0.05 q 1.45,0.45 1.9,1.8 0.45,1.3 -0.35,2.5 -0.8,1.1 -2.75,1.55 l 0.25,1.65 0.1,0.7 0.25,1.3 0.4,1.6 0.1,0.5 1.3,4.95 V 6.55 L 4.7,8.1 4.8,8.9 5.3,10.25 Q 5.4,11 5,12 4.5,13.35 3.55,13.55 2.35,13.95 1.25,12.4 L 1,12.05 0.1,10.25 -0.2,8.65 -0.3,8.3 -0.45,7.7 l -1.4,-4.95 -0.6,-2.5 -0.3,-2.05 -0.4,-1.45 -0.55,0.15 -2.15,0.25 q -0.9,-0.05 -1.4,-0.45 l 0.65,1.25 3.25,7.7 0.65,1.75 0.75,1.9 0.05,0.45 0.35,1.55 -0.1,1.55 Q -2.05,13.9 -3,14.3 l -0.6,0.1 H -3.65 L -4.2,14.5 -5.35,14.1 -5.4,14.05 -6.05,13.55 -6.8,11.7 -7.25,10.3 -7.6,9.1 l -0.15,0.1 -1.7,0.4 -0.15,0.05 0.35,1.7 0.1,0.3 0.3,1.1 0.05,0.5 q 0.1,0.7 -0.05,1.3 L -9.1,15.2 q -0.5,0.7 -1.15,0.85 l -0.6,-0.05 -0.5,-0.2 -0.75,-0.85 -0.7,-1.05 -0.4,-1.1 q -0.7,-1.7 -1,-3.95 L -14.4,8 -14.35,7.45 q -0.4,-4 0.05,-7.75 L -14,-2 M 6.1,-8.45 q 0.8,-0.9 2.8,-1.45 l 1.1,-0.25 1.6,-0.25 h 1.3 l 0.7,0.1 q 1.05,0.3 1.55,1.2 0.45,0.65 0.2,1.5 l -0.5,1 -0.4,0.25 q -0.4,0.35 -1.7,0.55 -1.15,0.25 -1.6,0.65 l 0.2,0.9 0.5,2.2 1.65,7.3 0.25,1.05 q 1.9,-0.95 3.15,-0.65 l 0.4,0.15 0.85,0.55 0.3,0.3 0.4,0.8 0.05,0.15 q 0.25,1.05 -0.15,1.9 l -0.65,0.85 -0.3,0.25 -0.2,0.15 h -0.1 l -1.25,0.6 -0.2,0.1 -1.15,0.45 -0.55,0.15 -1.5,0.5 H 11.7 q -1.25,-0.15 -2,-1 -0.55,-0.7 -0.9,-2.2 L 8.75,9 8.25,6.8 7.65,4.1 6.8,0.15 6.65,-0.45 q -0.5,-1.9 -0.7,-3.5 L 5.7,-5.6 Q 5.45,-7.25 5.85,-8.2 L 6.1,-8.45 M -10.05,2.65 V 5 l 0.9,-0.1 -0.9,-2.25"
         fill="#393939"
         fill-rule="evenodd"
         stroke="none"
         id="path6" />
      <path
         d="m -29.5,-9.3 h -0.05 l -0.7,0.15 -0.3,0.05 -1.4,0.35 -0.3,0.1 -0.4,0.05 0.05,0.35 0.05,0.05 0.8,3 0.1,0.5 0.1,0.5 0.05,0.2 0.5,2.15 h -0.05 q -0.95,0.15 -1.4,0.8 L -32.7,-0.6 -32.9,0.05 -33,1.5 q 0.1,2.25 0.75,3.65 l 0.6,1.1 0.5,1.15 0.8,3.2 0.85,2.6 0.75,2.5 0.25,0.9 0.35,0.95 0.25,0.45 0.05,0.1 1.2,0.85 0.25,0.1 0.25,1.4 0.6,2.75 v 0.3 l 0.4,1.9 0.2,1 1.15,-0.2 3.45,-0.45 5.85,-0.85 1.45,-0.2 1,-0.15 0.35,-0.05 1.8,-0.25 0.65,-0.1 3.6,-0.5 1.3,-0.25 2.05,-0.3 2.3,-0.4 4.45,-0.8 1.85,-0.35 0.4,-0.05 1,-0.2 1.35,-0.25 2.2,-0.45 3.05,-0.65 4,-0.9 4.45,-1 2.05,-0.45 4.35,-1.05 1.55,-0.25 2.5,-0.25 -0.2,-1.2 -0.65,-4 -0.85,-4.6 -0.05,-0.55 -0.5,-3.85 -2,-9.55 -0.7,-2.25 -0.25,-0.6 -0.5,-2.25 -0.35,-1.95 -0.2,-0.8 -0.2,-1.1 -0.1,-0.8 -0.1,-0.3 -0.3,-2.1 h -0.6 -0.7 -1 -0.25 -0.1 l -3.8,0.25 -0.8,0.05 -2.1,0.25 -1.55,0.3 -4.75,0.8 h -0.05 l -3.25,0.8 -0.35,0.05 -1.35,0.35 -0.25,0.05 -0.75,0.2 -0.75,0.15 -0.7,0.15 -1.75,0.5 -0.6,0.15 -1.6,0.45 -0.25,0.05 -2.45,0.55 -1.65,0.4 -4.4,0.95 -1,0.2 -1,0.2 -1.1,0.25 -1.1,0.15 h -0.2 l -1.75,0.25 -0.1,0.05 -1.65,0.2 -2.15,0.3 -1.15,0.3 -2.05,0.5 -0.35,0.1 -3.5,0.9 -0.1,0.05 -2.75,0.65 m -1.8,28.45 -1.05,-5.15 -4.5,-25.8 2.95,-0.35 q 8.6,-1 17.7,-2.8 l 43.15,-9.5 q 0.7,-0.2 1,0 l 0.55,0.65 1.2,3.2 0.75,3.2 2.7,17.9 1.85,11.3 0.45,2.35 0.45,2.25 0.4,1.85 -2.5,0.6 Q 22.5,21.4 16.45,22.4 l -7.85,1.2 -1,0.15 -4,0.6 -8,1.3 -4.8,0.8 -2.25,0.4 -4.25,0.8 h -0.15 l -1.45,0.25 -1.1,0.25 -2.9,0.45 -2.2,0.45 -1.05,0.2 -4,0.1 -0.35,-2.15 -0.8,-2.95 -1.6,-5.1"
         fill="#606060"
         fill-rule="evenodd"
         stroke="none"
         id="path7" />
    </g>
    <g
       id="sprite1"
       transform="translate(17.4,15.85)">
      <use
         ffdec:characterId="31"
         height="57.200001"
         transform="matrix(0.5366,0,0,0.5366,-16.6582,-14.546)"
         width="70.75"
         xlink:href="#sprite2"
         id="use7" />
    </g>
    <g
       id="sprite2"
       transform="translate(-8.65,-10.35)">
      <use
         ffdec:characterId="30"
         height="57.200001"
         transform="translate(8.65,10.35)"
         width="70.75"
         xlink:href="#shape1"
         id="use8" />
    </g>
    <g
       id="shape1"
       transform="translate(-8.65,-10.35)">
      <path
         d="m 14.8,41.7 q 0.65,-1.75 2.65,-2.5 1.8,-0.8 3.7,-0.25 1.15,0.45 2.25,1.2 l 0.9,0.4 q 1.65,0.9 2.85,2.5 L 37.8,30.1 q 2.35,-2.8 3.75,-3.95 1.5,-1.15 4.25,-2.4 18.2,-8.85 27.65,-12.6 2.15,-0.8 3.25,-0.8 h 0.8 l 1.9,2.4 -0.2,0.8 q -0.2,1.1 -1.55,3 -5.85,8.25 -18.85,23.8 -1.85,2.35 -3.35,3.5 -1.4,1.15 -4.75,2.75 l -15.15,7.15 q 1.2,1.6 1.75,3.4 l 0.2,1 0.55,2.5 q 0.1,1.95 -1.1,3.55 -1.2,1.65 -3.05,1.9 l -1.3,0.05 q -1.65,0.2 -3.45,-0.65 -1.85,-0.9 -3,-2.6 L 25,60.95 23.8,62.1 q -2.6,2.85 -4.3,3.95 -2.85,1.8 -5.5,1.45 l -1.65,-0.5 -1.2,-0.7 -0.2,-0.2 q -1,-0.85 -1.6,-1.9 L 9.25,64 9.15,63.8 8.75,62.4 q -0.2,-0.8 -0.05,-1.7 0.25,-2.65 2.7,-5.05 1.5,-1.3 4.9,-3.15 L 17.7,51.55 16.05,50 q -1.35,-1.5 -1.8,-3.6 -0.4,-1.85 0.25,-3.45 l 0.3,-1.25"
         fill="#000000"
         fill-opacity="0.372549"
         fill-rule="evenodd"
         stroke="none"
         id="path8" />
    </g>
  </defs>
</svg>
