<?xml version="1.0" encoding="UTF-8" standalone="no"?>
<svg
   ffdec:objectType="frame"
   height="42.128395"
   width="54.622665"
   version="1.1"
   id="svg4"
   xmlns:xlink="http://www.w3.org/1999/xlink"
   xmlns="http://www.w3.org/2000/svg"
   xmlns:svg="http://www.w3.org/2000/svg"
   xmlns:ffdec="https://www.free-decompiler.com/flash">
  <g
     transform="translate(27.4,18.078395)"
     id="g1">
    <use
       ffdec:characterId="17"
       height="119.15"
       id="rarity"
       transform="translate(-58.5,-60.65)"
       width="119.15"
       xlink:href="#sprite0" />
    <use
       ffdec:characterId="215"
       height="42.150002"
       transform="translate(-27.4,-18.1)"
       width="54.599998"
       xlink:href="#shape0"
       id="use1" />
  </g>
  <defs
     id="defs4">
    <g
       id="shape0"
       transform="translate(27.1,20.6)">
      <path
         d="m -20.95,-12.85 q 2.2,-2.1 6.7,-4.25 5.75,-2.75 9.7,-3.3 6.2,-0.85 15.55,2.35 5.5,1.8 8.35,3.7 4.6,2.9 6.7,7.7 2.35,5.05 0.95,10.1 -1.5,5.65 -8.5,11.4 -4.85,4 -8.75,5.4 -3.8,1.3 -10.1,1.3 l -7.8,-0.6 q -3.8,-0.9 -7.75,-3.4 -3,-1.95 -6.7,-5.3 -2.8,-2.55 -3.7,-4.45 -1,-2.25 -0.75,-5.75 0.3,-4.55 2,-8.5 1.55,-3.9 4.1,-6.4 m 4.95,7.55 -0.2,1.35 q 0,1.05 0.7,1.65 l 0.1,0.1 1.05,0.35 4.25,1 4.3,-0.35 3.6,-1.55 3.25,-1.85 q 1.6,-1.35 2.2,-3.25 L 3.7,-9.8 Q 3.9,-11.3 3.4,-12.1 3,-12.7 1.75,-13.3 l -1.5,-0.65 -0.3,-0.15 -0.8,-0.3 -0.15,-0.05 -1.35,0.05 -3.45,0.55 -2.8,0.75 -2.05,0.75 q -2.8,1.35 -4.45,4.75 l -0.8,1.9 -0.1,0.4 M -8.45,8.85 -8.4,8.7 -6.55,6.55 -4.15,4.8 q 2.4,-1.35 4.4,-1.2 l 0.4,0.05 1.45,0.3 1.6,0.5 0.45,0.25 -0.1,-1 0.2,-1.25 Q 4.35,2.15 5,1.4 L 6,0 7.15,-1.25 9.4,-2.45 9.55,-2.5 9.15,-3.6 Q 9.05,-4.05 9.1,-4.75 l 0.05,-1.2 0.1,-1.65 0.65,-1.05 1.4,-1.5 1.6,-1.1 0.15,-0.05 -4.7,-1.85 q 0.3,4.1 -0.1,5.85 -0.3,1.4 -1,2.75 -1.05,1.9 -2.9,3.6 l -0.5,0.4 -2.75,1.9 -3.2,1.5 Q -4.5,3.9 -6.4,4.2 l -1.9,0.2 -2.55,-0.1 -3.45,-0.4 -1.65,-0.45 -0.6,-0.2 Q -18.1,2.65 -19.2,1.75 -20.3,0.8 -21,-0.45 l -0.2,2.65 q -0.25,1.65 0.05,2.6 0.35,1.05 1.55,2.25 l 2.5,2.3 q 2.6,2.15 5.85,3.9 l 2.9,1.35 -0.5,-0.9 q -0.55,-1.05 -0.6,-1.9 -0.2,-1.25 1,-2.95 m 27.5,-16.05 -0.3,-0.2 -2.2,-1.4 -0.6,-0.3 q -0.6,-0.05 -1.25,0.4 l -1.05,0.75 -0.6,0.55 q -0.55,0.55 -0.6,1.3 -0.1,0.25 -0.05,0.6 l 0.45,1 0.5,0.6 q 0.9,1 2.25,1.3 l 1.9,-0.15 0.65,-0.35 0.65,-0.85 0.8,-1.1 q 0.4,-0.8 0.2,-1.3 L 19.05,-7.2 M 2.45,15.85 7.15,15.2 q 3.05,-0.9 6.95,-3.85 3.95,-2.9 5.75,-5.45 2.6,-3.6 2.25,-7.45 L 22.05,-2 21.5,-1.3 19.85,0.4 q -0.7,0.5 -1.75,0.8 l 0.35,0.6 q 0.75,1.45 0.15,4.3 l -0.7,1.75 -1,1.05 -3.15,2.1 q -1.9,0.9 -3.7,0.55 Q 8.65,11.2 6.75,9.8 6.7,11.55 5.8,12.8 L 4.7,14 3.1,15.25 1.7,15.85 1.65,15.9 2.45,15.85 M 2.1,8.05 Q 1.5,7.6 0.55,7.5 h -0.6 l -1.1,0.2 -1.1,0.55 -0.6,0.4 L -4.4,10 -4.45,10.05 -5.1,11 q -0.35,1 0.45,1.7 l 2.2,0.4 L -0.6,13 1.15,12.5 2.3,11.55 3,10.4 Q 3.3,9.35 2.45,8.4 L 2.1,8.05 M 8.2,4.9 v 0.05 q 0.2,1.1 1.75,2.1 0.6,0.45 1.1,0.5 L 12.6,7.3 Q 15.05,6.4 15.45,4.6 L 15.35,3.4 14.85,2.75 14.65,2.55 13.45,1.7 12.35,1.35 Q 11.65,1.15 11.4,0.75 9.95,1.3 9.05,2.45 7.95,3.75 8.2,4.9"
         fill="#000000"
         fill-rule="evenodd"
         stroke="none"
         id="path1" />
      <path
         d="m -0.15,-13.25 q 0.75,1.6 0.5,3.75 L 0,-8.1 -0.9,-6.9 q -1.65,1.65 -4.45,2.75 -0.55,0.3 -1.2,0.5 l -1.05,0.3 -1.3,0.2 h -1.3 -0.5 Q -12.15,-3.2 -13.3,-3.6 L -14.25,-4 -16,-5.3 l 0.1,-0.4 0.8,-1.9 q 1.65,-3.4 4.45,-4.75 l 2.05,-0.75 2.8,-0.75 3.45,-0.55 1.35,-0.05 0.15,0.05 0.7,1.15 m -15.8,16.7 1.65,0.45 3.45,0.4 2.55,0.1 1.9,-0.2 q 1.9,-0.3 4.3,-1.35 l 3.2,-1.5 2.75,-1.9 0.5,-0.4 q 1.85,-1.7 2.9,-3.6 0.7,-1.35 1,-2.75 0.4,-1.75 0.1,-5.85 l 4.7,1.85 -0.15,0.05 -1.6,1.1 -1.4,1.5 -0.65,1.05 -0.1,1.65 -0.05,1.2 q -0.05,0.7 0.05,1.15 L 9.55,-2.5 9.4,-2.45 7.15,-1.25 6,0 5,1.4 Q 4.35,2.15 4.25,2.45 L 4.05,3.7 4.15,4.7 3.7,4.45 2.1,3.95 0.65,3.65 0.25,3.6 q -2,-0.15 -4.4,1.2 L -6.55,6.55 -8.4,8.7 -8.45,8.85 q -3.05,-0.4 -5.7,-2.2 -1.6,-1.05 -1.9,-2.2 l 0.1,-1 m 28.8,-7.95 -0.45,-1 q -0.05,-0.35 0.05,-0.6 0.05,-0.75 0.6,-1.3 l 0.6,-0.55 1.05,-0.75 q 0.65,-0.45 1.25,-0.4 l 0.6,0.3 2.2,1.4 0.3,0.2 -0.05,0.15 q -0.2,1.45 -2.1,2.3 -1.45,0.55 -2.8,0.5 L 12.85,-4.5 M -4.4,10 l 1.55,-1.35 0.6,-0.4 1.1,-0.55 1.1,-0.2 h 0.6 Q 1.5,7.6 2.1,8.05 l 0.1,0.3 q 0.4,1.3 -0.55,2.4 -0.75,0.9 -2.2,1.25 l -2.4,-0.2 Q -4.2,11.2 -4.4,10 M 14.85,2.75 14.8,2.95 q -0.5,1.7 -2.45,2.4 L 9.4,5.45 8.2,4.9 Q 7.95,3.75 9.05,2.45 9.95,1.3 11.4,0.75 q 0.25,0.4 0.95,0.6 l 1.1,0.35 1.2,0.85 0.2,0.2"
         fill="#828282"
         fill-rule="evenodd"
         stroke="none"
         id="path2" />
      <path
         d="m 0.25,-13.95 1.5,0.65 q 1.25,0.6 1.65,1.2 0.5,0.8 0.3,2.3 l -0.45,1.95 q -0.6,1.9 -2.2,3.25 l -3.25,1.85 -3.6,1.55 -4.3,0.35 -4.25,-1 -1.05,-0.35 -0.1,-0.1 q -0.7,-0.6 -0.7,-1.65 l 0.2,-1.35 1.75,1.3 0.95,0.4 q 1.15,0.4 2.6,0.45 h 0.5 1.3 l 1.3,-0.2 1.05,-0.3 q 0.65,-0.2 1.2,-0.5 2.8,-1.1 4.45,-2.75 L 0,-8.1 0.35,-9.5 q 0.25,-2.15 -0.5,-3.75 l 0.4,-0.7 m -16.2,17.4 -0.1,1 q 0.3,1.15 1.9,2.2 2.65,1.8 5.7,2.2 -1.2,1.7 -1,2.95 0.05,0.85 0.6,1.9 l 0.5,0.9 -2.9,-1.35 Q -14.5,11.5 -17.1,9.35 l -2.5,-2.3 q -1.2,-1.2 -1.55,-2.25 -0.3,-0.95 -0.05,-2.6 l 0.2,-2.65 q 0.7,1.25 1.8,2.2 1.1,0.9 2.65,1.5 l 0.6,0.2 m 28.8,-7.95 1.25,0.25 q 1.35,0.05 2.8,-0.5 1.9,-0.85 2.1,-2.3 l 0.05,-0.15 0.75,0.85 q 0.2,0.5 -0.2,1.3 l -0.8,1.1 -0.65,0.85 -0.65,0.35 -1.9,0.15 q -1.35,-0.3 -2.25,-1.3 l -0.5,-0.6 M 2.45,15.85 1.65,15.9 1.7,15.85 3.1,15.25 4.7,14 5.8,12.8 q 0.9,-1.25 0.95,-3 1.9,1.4 3.3,1.75 1.8,0.35 3.7,-0.55 L 16.9,8.9 17.9,7.85 18.6,6.1 Q 19.2,3.25 18.45,1.8 L 18.1,1.2 Q 19.15,0.9 19.85,0.4 L 21.5,-1.3 22.05,-2 22.1,-1.55 Q 22.45,2.3 19.85,5.9 18.05,8.45 14.1,11.35 10.2,14.3 7.15,15.2 l -4.7,0.65 M -4.4,10 q 0.2,1.2 1.45,1.8 l 2.4,0.2 Q 0.9,11.65 1.65,10.75 2.6,9.65 2.2,8.35 L 2.1,8.05 2.45,8.4 Q 3.3,9.35 3,10.4 L 2.3,11.55 1.15,12.5 -0.6,13 -2.45,13.1 -4.65,12.7 Q -5.45,12 -5.1,11 L -4.45,10.05 -4.4,10 m 19.25,-7.25 0.5,0.65 0.1,1.2 Q 15.05,6.4 12.6,7.3 L 11.05,7.55 Q 10.55,7.5 9.95,7.05 8.4,6.05 8.2,4.95 V 4.9 l 1.2,0.55 2.95,-0.1 q 1.95,-0.7 2.45,-2.4 l 0.05,-0.2"
         fill="#5a5a5a"
         fill-rule="evenodd"
         stroke="none"
         id="path3" />
    </g>
    <g
       id="sprite1"
       transform="translate(17.4,15.85)">
      <use
         ffdec:characterId="31"
         height="57.200001"
         transform="matrix(0.5366,0,0,0.5366,-16.6582,-14.546)"
         width="70.75"
         xlink:href="#sprite2"
         id="use3" />
    </g>
    <g
       id="sprite2"
       transform="translate(-8.65,-10.35)">
      <use
         ffdec:characterId="30"
         height="57.200001"
         transform="translate(8.65,10.35)"
         width="70.75"
         xlink:href="#shape1"
         id="use4" />
    </g>
    <g
       id="shape1"
       transform="translate(-8.65,-10.35)">
      <path
         d="m 14.8,41.7 q 0.65,-1.75 2.65,-2.5 1.8,-0.8 3.7,-0.25 1.15,0.45 2.25,1.2 l 0.9,0.4 q 1.65,0.9 2.85,2.5 L 37.8,30.1 q 2.35,-2.8 3.75,-3.95 1.5,-1.15 4.25,-2.4 18.2,-8.85 27.65,-12.6 2.15,-0.8 3.25,-0.8 h 0.8 l 1.9,2.4 -0.2,0.8 q -0.2,1.1 -1.55,3 -5.85,8.25 -18.85,23.8 -1.85,2.35 -3.35,3.5 -1.4,1.15 -4.75,2.75 l -15.15,7.15 q 1.2,1.6 1.75,3.4 l 0.2,1 0.55,2.5 q 0.1,1.95 -1.1,3.55 -1.2,1.65 -3.05,1.9 l -1.3,0.05 q -1.65,0.2 -3.45,-0.65 -1.85,-0.9 -3,-2.6 L 25,60.95 23.8,62.1 q -2.6,2.85 -4.3,3.95 -2.85,1.8 -5.5,1.45 l -1.65,-0.5 -1.2,-0.7 -0.2,-0.2 q -1,-0.85 -1.6,-1.9 L 9.25,64 9.15,63.8 8.75,62.4 q -0.2,-0.8 -0.05,-1.7 0.25,-2.65 2.7,-5.05 1.5,-1.3 4.9,-3.15 L 17.7,51.55 16.05,50 q -1.35,-1.5 -1.8,-3.6 -0.4,-1.85 0.25,-3.45 l 0.3,-1.25"
         fill="#000000"
         fill-opacity="0.372549"
         fill-rule="evenodd"
         stroke="none"
         id="path4" />
    </g>
  </defs>
</svg>
