<?xml version="1.0" encoding="UTF-8" standalone="no"?>
<svg
   ffdec:objectType="frame"
   height="62.239304"
   width="44.219002"
   version="1.1"
   id="svg5"
   xmlns:xlink="http://www.w3.org/1999/xlink"
   xmlns="http://www.w3.org/2000/svg"
   xmlns:svg="http://www.w3.org/2000/svg"
   xmlns:ffdec="https://www.free-decompiler.com/flash">
  <g
     transform="translate(20.369,33.03481)"
     id="g1">
    <use
       ffdec:characterId="17"
       height="119.15"
       id="rarity"
       transform="translate(-58.5,-60.65)"
       width="119.15"
       xlink:href="#sprite0" />
    <use
       ffdec:characterId="445"
       height="62.25"
       transform="translate(-20.35,-33.05)"
       width="44.200001"
       xlink:href="#shape0"
       id="use1" />
  </g>
  <defs
     id="defs5">
    <g
       id="shape0"
       transform="translate(19.95,32.25)">
      <path
         d="m 23.55,-17.15 q 0.7,0.8 0.7,1.9 -0.1,12.55 -1.2,24.9 0.1,6.8 -1.45,13.25 -1.45,5.85 -8,6.05 l -1.85,0.2 Q 0.7,31.1 -9.9,28.6 q -6.55,-0.75 -7.05,-7.5 -0.5,-6.7 -1.3,-13.35 L -19.8,-5.5 q -0.65,-6.1 1.2,-11.7 l 0.85,-1.15 q 5.55,-3.9 11.85,-5.35 l -0.25,-2.1 q -0.45,-6.05 5.95,-6.1 4.45,-1.15 7.45,1.65 0.85,0.85 0.8,2.15 l -0.35,3.45 q 9.4,0.45 15.85,7.5 m -23.6,-10.3 -0.75,0.4 -0.45,0.3 0.05,2.3 4.7,-0.1 v -1.2 -1.5 l -3.35,-0.25 -0.2,0.05 m -13.9,18.3 0.3,4.25 q 2.45,1.7 5.55,2.35 1.3,0.3 2.45,0.9 Q 6.9,0.3 18.55,-4.4 l 0.05,-4.45 q -16.55,7.1 -32.55,-0.3 m 13.85,-8.6 q 0.75,0.8 2.1,0.35 l 0.45,-1.85 -2.8,0.3 q 0.2,0.6 0.25,1.2 m 18.5,2.5 q -5.45,-3.3 -11.65,-3.9 l -0.5,1.6 q 4.55,0.45 5.05,5.05 l 0.05,0.25 q 3.65,-1.15 7.05,-3 M 5.4,2.05 Q 2.6,2.3 -0.15,2.15 l -7,-1.2 -2.4,-0.75 q -2.1,-0.75 -3.85,-2 l 0.95,8.7 0.4,4.75 q 0.65,2.7 1.15,5.5 l 0.4,0.2 0.25,0.25 0.15,0.2 0.2,0.2 q 11,4.3 22.5,0.1 l 0.25,-0.2 0.2,-0.15 Q 15.4,17.2 17.5,16.1 l 0.95,-17.3 q -1.5,0.9 -3.5,1.4 L 9.7,1.4 9.4,1.5 5.4,2.05 m -15.8,20.1 0.1,0.25 0.1,0.2 q 13.1,3.4 26.3,-0.45 0.7,-1.05 1,-2.35 l 0.15,-0.4 0.05,-0.6 Q 6.35,24.25 -6.15,21.75 l -4.2,-1.15 -0.05,1.55 m 0.2,-38.55 -2.95,1.75 q 6.4,3.45 13.25,3.8 l -0.45,-0.45 -0.7,-1.2 q -3.9,-0.2 -3.65,-4.1 l -0.05,-0.2 -0.4,-1.1 -0.1,-0.25 q -2.55,0.6 -4.95,1.75"
         fill="#000000"
         fill-rule="evenodd"
         stroke="none"
         id="path1" />
      <path
         d="M 7.4,4.95 5.75,5.15 5.25,5.3 Q 3.55,6.55 2.6,8.4 l -1.15,2.25 q 0,1 0.4,1.85 0.5,1.2 1.3,2.25 5.4,2 9.65,-2.15 l 0.85,-1.55 0.6,-1.7 Q 13.7,8.6 13.5,7.65 13.25,6.6 12.45,5.95 L 11,5.35 Q 10.55,5.3 10.2,5.05 L 7.4,4.95 M -0.15,2.15 0.3,2.5 1.45,5.05 q 1.8,-1.75 3.95,-3 l 4,-0.55 q 6.75,0.55 7.75,7.8 0.25,2.05 -0.95,3.85 -5.4,8.1 -14.7,4.7 Q 0.15,17.35 -0.6,16 -1.9,13.6 -1.8,11.4 l -0.6,0.3 -5.95,0.15 -0.95,-0.4 Q -12.2,9.75 -11.55,6.7 -10.9,3.75 -8.4,2 l 0.65,-0.15 0.15,-0.15 0.1,-0.2 0.25,-0.45 0.1,-0.1 7,1.2 m -5.75,0.9 -1.05,0.6 -0.4,0.2 -0.6,0.75 -0.7,0.95 0.05,0.9 Q -8.5,7.1 -8.55,7.7 V 7.95 L -8,8.35 -7.55,8.7 -7.5,8.8 -6.65,9.15 -6.4,9.3 Q -4.65,9.75 -3.05,9 L -1.3,7.35 Q -0.75,6.8 -0.85,6 -1.1,5.1 -1.9,4.45 l -1,-0.8 Q -4.35,3 -5.9,3.05 m 0.85,11.4 q 1.4,-0.1 2.2,1 l 0.45,0.85 q -0.8,4.5 -4.45,1.35 -0.65,-0.55 -0.4,-1.4 0.25,-1.2 1.4,-1.65 l 0.2,-0.05 0.6,-0.05 v -0.05"
         fill="#ffffff"
         fill-rule="evenodd"
         stroke="none"
         id="path2" />
      <path
         d="m 18.4,-15.25 q -3.4,1.85 -7.05,3 L 11.3,-12.5 q -0.5,-4.6 -5.05,-5.05 l 0.5,-1.6 q 6.2,0.6 11.65,3.9 m -18.5,-2.5 q -0.05,-0.6 -0.25,-1.2 l 2.8,-0.3 L 2,-17.4 q -1.35,0.45 -2.1,-0.35 m -13.85,8.6 q 16,7.4 32.55,0.3 L 18.55,-4.4 Q 6.9,0.3 -5.65,-1.65 -6.8,-2.25 -8.1,-2.55 -11.2,-3.2 -13.65,-4.9 l -0.3,-4.25 m 3.75,-7.25 q 2.4,-1.15 4.95,-1.75 l 0.1,0.25 0.4,1.1 0.05,0.2 q -0.25,3.9 3.65,4.1 l 0.7,1.2 0.45,0.45 q -6.85,-0.35 -13.25,-3.8 l 2.95,-1.75 m -0.2,38.55 0.05,-1.55 4.2,1.15 q 12.5,2.5 23.45,-2.95 l -0.05,0.6 -0.15,0.4 q -0.3,1.3 -1,2.35 Q 2.9,26 -10.2,22.6 l -0.1,-0.2 -0.1,-0.25"
         fill="#cdcdcd"
         fill-rule="evenodd"
         stroke="none"
         id="path3" />
      <path
         d="M 5.4,2.05 Q 3.25,3.3 1.45,5.05 L 0.3,2.5 -0.15,2.15 Q 2.6,2.3 5.4,2.05 m 2,2.9 2.8,0.1 q 0.35,0.25 0.8,0.3 l 1.45,0.6 q 0.8,0.65 1.05,1.7 0.2,0.95 0.75,1.7 l -0.6,1.7 -0.85,1.55 Q 8.55,16.75 3.15,14.75 2.35,13.7 1.85,12.5 1.45,11.65 1.45,10.65 L 2.6,8.4 Q 3.55,6.55 5.25,5.3 L 5.75,5.15 7.4,4.95 m -14.55,-4 -0.1,0.1 L -7.5,1.5 -7.6,1.7 -7.75,1.85 -8.4,2 q -2.5,1.75 -3.15,4.7 -0.65,3.05 2.25,4.75 l 0.95,0.4 5.95,-0.15 0.6,-0.3 q -0.1,2.2 1.2,4.6 0.75,1.35 2.1,1.85 9.3,3.4 14.7,-4.7 1.2,-1.8 0.95,-3.85 -1,-7.25 -7.75,-7.8 L 9.7,1.4 14.95,0.2 q 2,-0.5 3.5,-1.4 L 17.5,16.1 q -2.1,1.1 -4.45,1.65 l -0.2,0.15 -0.25,0.2 Q 1.1,22.3 -9.9,18 l -0.2,-0.2 -0.15,-0.2 -0.25,-0.25 -0.4,-0.2 q -0.5,-2.8 -1.15,-5.5 l -0.4,-4.75 -0.95,-8.7 q 1.75,1.25 3.85,2 l 2.4,0.75 m 2.1,13.5 v 0.05 l -0.6,0.05 -0.2,0.05 q -1.15,0.45 -1.4,1.65 -0.25,0.85 0.4,1.4 3.65,3.15 4.45,-1.35 l -0.45,-0.85 q -0.8,-1.1 -2.2,-1 M -5.9,3.05 q 1.55,-0.05 3,0.6 l 1,0.8 Q -1.1,5.1 -0.85,6 -0.75,6.8 -1.3,7.35 L -3.05,9 Q -4.65,9.75 -6.4,9.3 L -6.65,9.15 -7.5,8.8 -7.55,8.7 -8,8.35 -8.55,7.95 V 7.7 Q -8.5,7.1 -8.6,6.45 l -0.05,-0.9 0.7,-0.95 0.6,-0.75 0.4,-0.2 1.05,-0.6"
         fill="#cf9393"
         fill-rule="evenodd"
         stroke="none"
         id="path4" />
    </g>
    <g
       id="sprite1"
       transform="translate(17.4,15.85)">
      <use
         ffdec:characterId="31"
         height="57.200001"
         transform="matrix(0.5366,0,0,0.5366,-16.6582,-14.546)"
         width="70.75"
         xlink:href="#sprite2"
         id="use4" />
    </g>
    <g
       id="sprite2"
       transform="translate(-8.65,-10.35)">
      <use
         ffdec:characterId="30"
         height="57.200001"
         transform="translate(8.65,10.35)"
         width="70.75"
         xlink:href="#shape1"
         id="use5" />
    </g>
    <g
       id="shape1"
       transform="translate(-8.65,-10.35)">
      <path
         d="m 14.8,41.7 q 0.65,-1.75 2.65,-2.5 1.8,-0.8 3.7,-0.25 1.15,0.45 2.25,1.2 l 0.9,0.4 q 1.65,0.9 2.85,2.5 L 37.8,30.1 q 2.35,-2.8 3.75,-3.95 1.5,-1.15 4.25,-2.4 18.2,-8.85 27.65,-12.6 2.15,-0.8 3.25,-0.8 h 0.8 l 1.9,2.4 -0.2,0.8 q -0.2,1.1 -1.55,3 -5.85,8.25 -18.85,23.8 -1.85,2.35 -3.35,3.5 -1.4,1.15 -4.75,2.75 l -15.15,7.15 q 1.2,1.6 1.75,3.4 l 0.2,1 0.55,2.5 q 0.1,1.95 -1.1,3.55 -1.2,1.65 -3.05,1.9 l -1.3,0.05 q -1.65,0.2 -3.45,-0.65 -1.85,-0.9 -3,-2.6 L 25,60.95 23.8,62.1 q -2.6,2.85 -4.3,3.95 -2.85,1.8 -5.5,1.45 l -1.65,-0.5 -1.2,-0.7 -0.2,-0.2 q -1,-0.85 -1.6,-1.9 L 9.25,64 9.15,63.8 8.75,62.4 q -0.2,-0.8 -0.05,-1.7 0.25,-2.65 2.7,-5.05 1.5,-1.3 4.9,-3.15 L 17.7,51.55 16.05,50 q -1.35,-1.5 -1.8,-3.6 -0.4,-1.85 0.25,-3.45 l 0.3,-1.25"
         fill="#000000"
         fill-opacity="0.372549"
         fill-rule="evenodd"
         stroke="none"
         id="path5" />
    </g>
  </defs>
</svg>
