<?xml version="1.0" encoding="UTF-8" standalone="no"?>
<svg
   ffdec:objectType="frame"
   height="67.716667"
   width="78.252068"
   version="1.1"
   id="svg7"
   xmlns:xlink="http://www.w3.org/1999/xlink"
   xmlns="http://www.w3.org/2000/svg"
   xmlns:svg="http://www.w3.org/2000/svg"
   xmlns:ffdec="https://www.free-decompiler.com/flash">
  <g
     transform="translate(37.612069,40.216667)"
     id="g1">
    <use
       ffdec:characterId="17"
       height="119.15"
       id="rarity"
       transform="translate(-58.5,-60.65)"
       width="119.15"
       xlink:href="#sprite0" />
    <use
       ffdec:characterId="104"
       height="67.699997"
       transform="translate(-37.6,-40.2)"
       width="78.25"
       xlink:href="#shape0"
       id="use1" />
  </g>
  <defs
     id="defs7">
    <g
       id="shape0"
       transform="translate(37.3,42.7)">
      <path
         d="m 11.65,-24.25 q 5.1,-3.05 10.4,-1.85 l 3.75,1.3 q 7.75,3.5 11.5,8.85 3.9,5.55 3.6,12.35 l -0.2,2.15 Q 41.3,1.65 40.4,5.4 39,11.25 34.8,15.9 30.6,20.5 24.95,22.45 19.3,24.4 13.15,23.3 7.35,22.25 3,18.8 1.7,20.75 -1.1,22.25 -5.45,24.6 -10.65,25 l -6.65,-0.2 -4.2,-0.45 q -2.3,-0.4 -4,-1.2 l -3.25,-1.95 -2.9,-2.5 q -1.2,-1.35 -2.05,-3.5 L -35,11.25 q -2.05,-7.55 -1.8,-12.3 l -0.45,-1.6 q -0.3,-2.3 0.85,-5.35 3.05,-7.6 12,-13.65 5.45,-3.75 10.95,-5.45 6.25,-2 11.9,-1.15 3.05,0.55 5.85,1.65 3.85,1.6 4.95,3.9 l 1.1,-0.65 1.3,-0.9 m -0.6,-10.8 0.05,0.85 q -0.15,1.75 -2.25,3.2 -1.2,0.85 -2.55,1.35 L 4.95,-29.5 Q 4.35,-29.65 3.9,-30.35 3.2,-31.5 3.1,-33.4 3,-36.25 4.5,-37.75 l 1.8,-1 1.25,-0.1 q 1,0 1.7,0.55 l 1.15,1.5 0.65,1.75 m -4.1,-0.9 -0.25,0.3 -0.3,0.5 -0.05,0.4 v 1.3 q 0.25,0 0.7,-0.45 l 0.8,-0.6 v -0.75 L 7.6,-36 6.95,-35.95 M 22.05,-20.9 21.8,-21 q -1.4,-0.45 -3.55,0 l -0.8,0.2 -0.75,0.25 -1.85,0.8 q -0.6,0.3 -1.05,0.6 -1.45,1 -3,3.05 l -0.6,0.9 q -1.65,2.6 -2.3,5.15 L 7.55,-8.2 7.5,-6.35 q 0,1.4 0.35,2.8 l 0.25,0.95 0.75,1.85 0.35,0.8 0.1,0.2 0.85,1.7 0.45,0.65 0.85,0.95 1.2,1.1 2.35,1.5 2.5,1.1 3.3,0.95 1.05,0.2 0.45,0.1 3.15,0.25 q 3.6,0 5.8,-1.7 1.9,-1.5 2.95,-4.35 0.6,-1.75 1.1,-5.15 l 0.05,-0.4 0.15,-2.25 q -0.05,-1.4 -0.7,-3.4 -0.75,-2.55 -1.6,-3.9 v -0.05 l -1.35,-1.65 -0.65,-0.65 -2.05,-1.7 -0.25,-0.15 -1.6,-1.15 -0.35,-0.25 -2.35,-1.5 -0.85,-0.55 -1.55,-0.8 -0.15,-0.05 M 18,-4.85 17.45,-5.6 17.2,-6 l -1.05,-1.75 -0.45,-1.2 -0.3,-0.3 -0.15,-0.2 -0.05,-0.1 q -0.35,-0.7 -0.05,-1.65 0.15,-0.75 1,-1.75 0.8,-0.9 1.45,-1.2 l 0.5,-0.15 0.95,-0.2 H 19.3 19.35 20 l 1.2,0.05 1.45,-0.1 0.4,0.05 0.95,0.2 q 0.5,0.25 0.95,0.85 l 0.65,1.3 0.2,0.55 q 0.65,2.2 -0.1,3.65 l -0.05,0.1 q -0.35,0.65 -1.1,1.3 l -0.95,0.65 -0.3,0.15 -0.8,0.35 0.6,0.65 0.8,0.75 0.95,0.8 0.85,0.85 0.05,0.05 q 0.9,1.1 0.75,2.25 L 25.95,1 q -0.35,0.35 -0.8,0.4 h -0.3 q -0.55,0 -1.4,-0.65 L 22.85,0.3 22.05,-0.4 19.8,-2.6 Q 18.85,-3.65 18,-4.85 M 1.2,-17.05 1.45,-17.25 1.1,-17.4 q -2.15,-0.8 -4.6,-0.45 -2.35,0.3 -4.2,1.5 l -0.9,0.65 -1.4,1.1 v 1.15 q -0.2,2.6 0,3.9 l 0.25,0.95 0.3,1.6 0.05,0.65 -0.3,1.3 q -0.4,1.25 -1.6,2.35 l -1.25,0.9 q -1.3,0.7 -2.95,0.85 -2.4,0.3 -4.6,-0.65 -0.95,-0.4 -1.15,-1.05 -0.15,-0.85 0.75,-1.3 l 1.55,-0.2 1.85,0.1 1.8,-0.1 q 1,-0.15 1.75,-0.7 0.75,-0.65 0.95,-1.5 0.15,-0.8 -0.25,-2.2 l -0.95,-5.35 h -0.1 l -0.8,0.1 -0.5,0.1 -1.95,0.75 -0.35,0.2 -1.05,0.9 -0.55,1.45 q -0.65,1.6 -2.9,3.2 l -0.5,0.4 -1.3,0.85 -1.65,1.35 q -1.85,1.85 -1.45,3.9 l 0.4,1.55 3.3,0.6 h 0.1 q 2.3,0.2 4.6,0.05 3.25,-0.25 6.4,-1.3 l 3.4,-1.45 0.65,-0.3 0.2,-0.1 V -1.8 l 0.35,-3.15 0.05,-0.25 q 0.65,-3.65 1.85,-5.5 1.25,-2.1 4.55,-4.65 l 1.35,-1 0.9,-0.7 m 0.9,8.1 0.75,-3.45 0.1,-0.25 0.15,-0.45 -0.8,0.6 q -2.65,2.25 -3.6,3.85 l -0.8,1.95 -0.5,2.15 v 0.15 l -0.25,2.65 0.25,0.3 q 0.45,0.7 0.35,1.6 V 0.2 0.25 l -0.2,0.6 -0.15,0.35 0.2,1.05 0.05,0.2 0.45,1.25 1.45,2.85 0.55,0.85 q 1.35,2.05 3.45,4.25 l 2,2 q 1.85,1.7 3.45,2.55 3,1.6 6.95,1.85 5.95,0.35 11.3,-2.75 l 1.85,-1.2 -3.15,0.4 Q 19.8,14.8 14.2,12.2 11.4,10.95 9.2,9.2 L 7.9,8.05 7.2,7.4 6.4,6.45 4.9,4.45 3.7,2.2 3.65,2.15 3.4,1.6 3.35,1.5 3.3,1.35 2.5,-0.95 2.1,-3.05 1.95,-4.15 1.9,-5 Q 1.8,-7 2.1,-8.95 m 1.5,-12.6 q -4.55,-1.9 -10.15,-1.35 -5,0.55 -10.05,3 -9.05,4.35 -13.35,11.6 -2.1,3.3 -1.25,5.65 l 0.1,-0.45 1.2,-2.85 q 0.8,-1.25 2.5,-2.45 2,-1.3 2.95,-2.05 1.15,-0.9 1.65,-1.75 l 0.9,-1.9 q 0.5,-0.75 2.05,-1.55 3.45,-1.85 5.75,-1.65 l 1.15,0.1 1.15,-0.05 1.9,-1.5 q 1.7,-1.55 5.3,-1.95 5.05,-0.45 8.7,1.5 l 1.5,-1.05 q -0.6,-0.8 -2,-1.3 m 18.4,11.1 -2.8,-0.1 0.05,0.05 0.9,1.65 0.3,0.55 0.05,-0.1 1.1,-0.9 0.7,-0.5 -0.15,-0.65 H 22 m -30.2,-20.05 -2.45,0.15 q -0.8,-0.35 -2.2,-1.35 l -1.8,-0.7 q -1.15,-0.4 -1.7,-0.9 -1.6,-1.3 -1.5,-4.75 0,-1.3 0.35,-2.05 0.45,-0.85 1.6,-1.55 2.15,-1.2 4.4,-1.05 1.55,0.1 2.55,0.7 1.55,1 2,3.2 0.3,1.4 0,3.85 l -0.45,2.75 q -0.3,1.2 -0.8,1.7 m -6.1,-6.9 0.35,0.6 0.3,0.55 0.7,0.2 1.55,0.55 1.5,0.2 q 0.5,-1.8 -0.45,-3.3 l -0.35,-0.35 -0.4,-0.05 -0.95,-0.05 -1.65,0.25 q -1,0.6 -0.6,1.4 m -3.75,44.5 -2.7,0.15 h -1.7 L -23.6,7.15 -25.2,7 l -1.65,-0.25 -0.7,-0.15 -2.5,-0.85 -0.8,-0.4 0.2,0.8 0.1,0.4 0.7,2.55 0.75,2.3 q 1.15,2.8 2.95,4.45 l 1.05,0.85 2.1,1.1 2.2,0.7 0.4,0.1 1.65,0.3 4.05,0.4 0.75,0.05 h 0.3 3.8 L -8,19.05 q 3.45,-0.75 7.7,-3.3 l -2.5,-3.1 q -3.25,-4.4 -4.4,-8.35 -4.25,1.8 -7.2,2.35 l -0.4,0.1 -3.25,0.35"
         fill="#000000"
         fill-rule="evenodd"
         stroke="none"
         id="path1" />
      <path
         d="m 16.7,-20.55 -0.15,0.45 -0.35,1.05 -1.15,3.95 -0.5,1 q -1,2.4 -1.65,5.5 l -0.1,0.3 -0.75,4.55 -0.2,1.45 L 11.6,0.25 11.45,3.55 10.6,2.6 10.15,1.95 9.3,0.25 9.2,0.05 q 1.2,-0.25 1.7,-1.65 l 0.3,-1.25 0.2,-1.35 0.4,-3.45 0.7,-4 q 0.8,-3.2 1.65,-4.65 l 0.8,-1.4 0.25,-1.15 -0.1,-0.35 -0.25,-0.55 1.85,-0.8 M 15,6.15 q 0.4,-0.7 0.6,-1.95 l 1.3,-6.9 0.3,-0.35 q 0.5,-0.75 0.8,-1.8 0.85,1.2 1.8,2.25 L 19.55,-1.3 19,1.8 q -0.15,1 -0.15,1.95 l 0.05,0.8 q -1.25,0.5 -1.4,1.8 v 0.9 L 15,6.15 m 5,-20.65 1.8,-5.65 0.25,-0.75 0.15,0.05 1.55,0.8 0.85,0.55 -0.5,0.85 -0.1,0.3 -0.75,2.65 -0.2,1.2 -0.4,-0.05 -1.45,0.1 -1.2,-0.05 m 8.9,-2.1 0.25,0.15 -0.3,0.05 0.05,-0.2 m 2.95,2.5 1.35,1.65 -0.35,-0.05 q -0.5,-0.2 -0.8,-1 l -0.2,-0.6 m -54.35,7.3 0.5,-0.4 q 2.25,-1.6 2.9,-3.2 l 0.55,-1.45 1.05,-0.9 0.05,0.1 0.55,1.2 q 0.3,1.05 0.15,1.8 -0.2,1.3 -1.45,2.2 -0.8,0.65 -2.4,1.1 -1.3,0.3 -1.8,-0.3 L -22.5,-6.8 M -9.75,-8.6 -10,-9.55 q -0.2,-1.3 0,-3.9 v -1.15 l 1.4,-1.1 0.9,-0.65 q 0.85,0.3 1.15,1.1 0.15,0.5 -0.05,1.2 -0.45,3.05 -1.9,4.55 l -1.25,0.9 m 7.15,4.2 q 0.2,-0.05 0.45,-0.2 1.3,-0.55 2.7,-2.45 L 2.1,-8.95 Q 1.8,-7 1.9,-5 l 0.05,0.85 -0.4,0.25 -2.55,2.45 -1.25,1.6 q 0.1,-0.9 -0.35,-1.6 l -0.25,-0.3 0.25,-2.65 m 24.2,-4.9 -1.1,0.9 -0.05,0.1 -0.3,-0.55 -0.9,-1.65 -0.05,-0.05 2.8,0.1 -0.25,0.7 -0.15,0.45 M -18.05,7.1 v 0.1 q -0.05,1.55 0.4,3.2 l 0.75,2 3.25,6.95 h -0.3 L -14.7,19.3 -18.75,18.9 -19,17.3 q -1.4,-6.55 -3.15,-9.6 l -0.3,-0.45 h 1.7 l 2.7,-0.15"
         fill="#ffffff"
         fill-rule="evenodd"
         stroke="none"
         id="path2" />
      <path
         d="m 6.3,-38.75 0.65,-0.8 q 0.65,-0.55 1.55,-0.6 l 1.6,0.4 q 1.15,0.75 1.3,2.25 0.15,1.15 -0.35,2.45 L 10.4,-36.8 9.25,-38.3 q -0.7,-0.55 -1.7,-0.55 l -1.25,0.1 m 0.65,2.8 0.65,-0.05 0.25,0.75 v 0.75 l -0.8,0.6 q -0.45,0.45 -0.7,0.45 v -1.3 l 0.05,-0.4 0.3,-0.5 0.25,-0.3 m -5.85,18.55 0.1,0.35 -0.9,0.7 -1.35,1 q -3.3,2.55 -4.55,4.65 -1.2,1.85 -1.85,5.5 l -0.05,0.25 -0.35,3.15 v 0.15 l -0.2,0.1 -0.65,0.3 -3.4,1.45 q -3.15,1.05 -6.4,1.3 -2.3,0.15 -4.6,-0.05 h -0.1 l -3.3,-0.6 -0.4,-1.55 q -0.4,-2.05 1.45,-3.9 l 1.65,-1.35 1.3,-0.85 0.1,0.15 q 0.5,0.6 1.8,0.3 1.6,-0.45 2.4,-1.1 1.25,-0.9 1.45,-2.2 0.15,-0.75 -0.15,-1.8 l -0.55,-1.2 -0.05,-0.1 0.35,-0.2 1.95,-0.75 0.5,-0.1 0.8,-0.1 h 0.1 l 0.95,5.35 q 0.4,1.4 0.25,2.2 -0.2,0.85 -0.95,1.5 -0.75,0.55 -1.75,0.7 l -1.8,0.1 -1.85,-0.1 -1.55,0.2 q -0.9,0.45 -0.75,1.3 0.2,0.65 1.15,1.05 2.2,0.95 4.6,0.65 1.65,-0.15 2.95,-0.85 l 1.25,-0.9 q 1.2,-1.1 1.6,-2.35 l 0.3,-1.3 -0.05,-0.65 -0.3,-1.6 1.25,-0.9 q 1.45,-1.5 1.9,-4.55 0.2,-0.7 0.05,-1.2 -0.3,-0.8 -1.15,-1.1 1.85,-1.2 4.2,-1.5 2.45,-0.35 4.6,0.45 m -15.4,-20 q -0.4,-0.8 0.6,-1.4 l 1.65,-0.25 0.95,0.05 0.4,0.05 0.35,0.35 q 0.95,1.5 0.45,3.3 l -1.5,-0.2 -1.55,-0.55 -0.7,-0.2 -0.3,-0.55 -0.35,-0.6"
         fill="#313131"
         fill-rule="evenodd"
         stroke="none"
         id="path3" />
      <path
         d="m 1.1,-17.4 0.35,0.15 -0.25,0.2 -0.1,-0.35 m 2.5,-4.15 q 1.4,0.5 2,1.3 l -1.5,1.05 q -3.65,-1.95 -8.7,-1.5 -3.6,0.4 -5.3,1.95 l -1.9,1.5 -1.15,0.05 -1.15,-0.1 q -2.3,-0.2 -5.75,1.65 -1.55,0.8 -2.05,1.55 l -0.9,1.9 q -0.5,0.85 -1.65,1.75 -0.95,0.75 -2.95,2.05 -1.7,1.2 -2.5,2.45 l -1.2,2.85 -0.1,0.45 q -0.85,-2.35 1.25,-5.65 4.3,-7.25 13.35,-11.6 5.05,-2.45 10.05,-3 5.6,-0.55 10.15,1.35"
         fill="#666666"
         fill-rule="evenodd"
         stroke="none"
         id="path4" />
      <path
         d="m -2.6,-4.4 v -0.15 l 0.5,-2.15 0.8,-1.95 q 0.95,-1.6 3.6,-3.85 l 0.8,-0.6 -0.15,0.45 -0.1,0.25 -0.75,3.45 -1.55,1.9 q -1.4,1.9 -2.7,2.45 -0.25,0.15 -0.45,0.2 m 4.55,0.25 0.15,1.1 0.4,2.1 0.8,2.3 L 3.35,1.5 3.4,1.6 3.65,2.15 3.7,2.2 4.9,4.45 6.4,6.45 7.2,7.4 7.9,8.05 9.2,9.2 q 2.2,1.75 5,3 5.6,2.6 11.75,2.3 l 3.15,-0.4 -1.85,1.2 Q 21.9,18.4 15.95,18.05 12,17.8 9,16.2 7.4,15.35 5.55,13.65 l -2,-2 Q 1.45,9.45 0.1,7.4 L -0.45,6.55 -1.9,3.7 -2.35,2.45 -2.25,2.3 Q -2.6,1.6 -2.45,0.85 l 0.2,-0.6 V 0.2 0.15 L -1,-1.45 1.55,-3.9 1.95,-4.15 m -15.6,23.5 -3.25,-6.95 -0.75,-2 Q -18.1,8.75 -18.05,7.2 V 7.1 l 3.25,-0.35 0.4,-0.1 q 2.95,-0.55 7.2,-2.35 1.15,3.95 4.4,8.35 l 2.5,3.1 q -4.25,2.55 -7.7,3.3 l -1.85,0.3 h -3.8 m -8.8,-12.1 0.3,0.45 q 1.75,3.05 3.15,9.6 l 0.25,1.6 -1.65,-0.3 -0.4,-0.1 -2.2,-0.7 -2.1,-1.1 -1.05,-0.85 q -1.8,-1.65 -2.95,-4.45 l -0.75,-2.3 -0.7,-2.55 -0.1,-0.4 -0.2,-0.8 0.8,0.4 2.5,0.85 0.7,0.15 1.65,0.25 1.6,0.15 1.15,0.1"
         fill="#747474"
         fill-rule="evenodd"
         stroke="none"
         id="path5" />
      <path
         d="m 16.7,-20.55 0.75,-0.25 0.8,-0.2 q 2.15,-0.45 3.55,0 l 0.25,0.1 -0.25,0.75 -1.8,5.65 H 19.35 19.3 19.05 l -0.95,0.2 -0.5,0.15 q -0.65,0.3 -1.45,1.2 -0.85,1 -1,1.75 -0.3,0.95 0.05,1.65 l 0.05,0.1 0.15,0.2 0.3,0.3 0.45,1.2 1.05,1.75 0.25,0.4 0.55,0.75 q -0.3,1.05 -0.8,1.8 L 16.9,-2.7 15.6,4.2 Q 15.4,5.45 15,6.15 l -2.35,-1.5 -1.2,-1.1 0.15,-3.3 0.25,-2.55 0.2,-1.45 0.75,-4.55 0.1,-0.3 q 0.65,-3.1 1.65,-5.5 l 0.5,-1 1.15,-3.95 0.35,-1.05 0.15,-0.45 m 7.9,1.05 2.35,1.5 0.35,0.25 1.6,1.15 -0.05,0.2 0.3,-0.05 2.05,1.7 0.65,0.65 0.2,0.6 q 0.3,0.8 0.8,1 l 0.35,0.05 v 0.05 q 0.85,1.35 1.6,3.9 0.65,2 0.7,3.4 l -0.15,2.25 -0.05,0.4 q -0.5,3.4 -1.1,5.15 -1.05,2.85 -2.95,4.35 -2.2,1.7 -5.8,1.7 L 22.3,8.5 21.85,8.4 20.8,8.2 17.5,7.25 v -0.9 q 0.15,-1.3 1.4,-1.8 L 18.85,3.75 Q 18.85,2.8 19,1.8 l 0.55,-3.1 0.25,-1.3 2.25,2.2 0.8,0.7 0.6,0.45 q 0.85,0.65 1.4,0.65 h 0.3 Q 25.6,1.35 25.95,1 L 26.5,-0.05 Q 26.65,-1.2 25.75,-2.3 L 25.7,-2.35 24.85,-3.2 23.9,-4 23.1,-4.75 22.5,-5.4 l 0.8,-0.35 0.3,-0.15 0.95,-0.65 q 0.75,-0.65 1.1,-1.3 l 0.05,-0.1 q 0.75,-1.45 0.1,-3.65 l -0.2,-0.55 -0.65,-1.3 Q 24.5,-14.05 24,-14.3 l -0.95,-0.2 0.2,-1.2 0.75,-2.65 0.1,-0.3 0.5,-0.85 m -9.75,-0.25 0.25,0.55 0.1,0.35 -0.25,1.15 -0.8,1.4 q -0.85,1.45 -1.65,4.65 l -0.7,4 -0.4,3.45 -0.2,1.35 -0.3,1.25 Q 10.4,-0.2 9.2,0.05 L 8.85,-0.75 8.1,-2.6 7.85,-3.55 Q 7.5,-4.95 7.5,-6.35 L 7.55,-8.2 7.9,-10.05 q 0.65,-2.55 2.3,-5.15 l 0.6,-0.9 q 1.55,-2.05 3,-3.05 0.45,-0.3 1.05,-0.6 m 6.75,10.45 0.15,-0.45 0.25,-0.7 h 0.15 l 0.15,0.65 -0.7,0.5"
         fill="#8c8c8c"
         fill-rule="evenodd"
         stroke="none"
         id="path6" />
    </g>
    <g
       id="sprite1"
       transform="translate(17.4,15.85)">
      <use
         ffdec:characterId="31"
         height="57.200001"
         transform="matrix(0.5366,0,0,0.5366,-16.6582,-14.546)"
         width="70.75"
         xlink:href="#sprite2"
         id="use6" />
    </g>
    <g
       id="sprite2"
       transform="translate(-8.65,-10.35)">
      <use
         ffdec:characterId="30"
         height="57.200001"
         transform="translate(8.65,10.35)"
         width="70.75"
         xlink:href="#shape1"
         id="use7" />
    </g>
    <g
       id="shape1"
       transform="translate(-8.65,-10.35)">
      <path
         d="m 14.8,41.7 q 0.65,-1.75 2.65,-2.5 1.8,-0.8 3.7,-0.25 1.15,0.45 2.25,1.2 l 0.9,0.4 q 1.65,0.9 2.85,2.5 L 37.8,30.1 q 2.35,-2.8 3.75,-3.95 1.5,-1.15 4.25,-2.4 18.2,-8.85 27.65,-12.6 2.15,-0.8 3.25,-0.8 h 0.8 l 1.9,2.4 -0.2,0.8 q -0.2,1.1 -1.55,3 -5.85,8.25 -18.85,23.8 -1.85,2.35 -3.35,3.5 -1.4,1.15 -4.75,2.75 l -15.15,7.15 q 1.2,1.6 1.75,3.4 l 0.2,1 0.55,2.5 q 0.1,1.95 -1.1,3.55 -1.2,1.65 -3.05,1.9 l -1.3,0.05 q -1.65,0.2 -3.45,-0.65 -1.85,-0.9 -3,-2.6 L 25,60.95 23.8,62.1 q -2.6,2.85 -4.3,3.95 -2.85,1.8 -5.5,1.45 l -1.65,-0.5 -1.2,-0.7 -0.2,-0.2 q -1,-0.85 -1.6,-1.9 L 9.25,64 9.15,63.8 8.75,62.4 q -0.2,-0.8 -0.05,-1.7 0.25,-2.65 2.7,-5.05 1.5,-1.3 4.9,-3.15 L 17.7,51.55 16.05,50 q -1.35,-1.5 -1.8,-3.6 -0.4,-1.85 0.25,-3.45 l 0.3,-1.25"
         fill="#000000"
         fill-opacity="0.372549"
         fill-rule="evenodd"
         stroke="none"
         id="path7" />
    </g>
  </defs>
</svg>
