<?xml version="1.0" encoding="UTF-8" standalone="no"?>
<svg
   ffdec:objectType="frame"
   height="67.962158"
   width="70.105171"
   version="1.1"
   id="svg4"
   sodipodi:docname="ITEM Rubber Hat.svg"
   xmlns:inkscape="http://www.inkscape.org/namespaces/inkscape"
   xmlns:sodipodi="http://sodipodi.sourceforge.net/DTD/sodipodi-0.dtd"
   xmlns:xlink="http://www.w3.org/1999/xlink"
   xmlns="http://www.w3.org/2000/svg"
   xmlns:svg="http://www.w3.org/2000/svg"
   xmlns:ffdec="https://www.free-decompiler.com/flash">
  <sodipodi:namedview
     id="namedview4"
     pagecolor="#ffffff"
     bordercolor="#000000"
     borderopacity="0.25"
     inkscape:showpageshadow="2"
     inkscape:pageopacity="0.0"
     inkscape:pagecheckerboard="0"
     inkscape:deskcolor="#d1d1d1"
     fit-margin-top="5"
     fit-margin-left="5"
     fit-margin-right="5"
     fit-margin-bottom="5" />
  <g
     transform="translate(36.004545,36.810305)"
     id="g1">
    <use
       ffdec:characterId="17"
       height="119.15"
       id="rarity"
       transform="translate(-58.5,-60.65)"
       width="119.15"
       xlink:href="#sprite0" />
    <use
       ffdec:characterId="1136"
       height="67.949997"
       transform="translate(-36,-36.8)"
       width="70.099998"
       xlink:href="#shape0"
       id="use1" />
  </g>
  <defs
     id="defs4">
    <g
       id="shape0"
       transform="translate(34.7,34.9)">
      <path
         d="m 3.95,-34.8 q 10.4,-0.85 18.75,4.85 1.8,1.25 3.2,2.95 6.35,7.65 8.45,17.4 2.05,9.7 0.1,19.5 -0.75,3.8 -2.4,7.35 -0.5,1 -1.65,1.2 l -5.1,0.4 -4.8,0.35 q -1.85,0.3 -2.65,-1.4 l -0.3,-0.7 -1.8,0.5 0.05,0.75 q 0.25,4 -0.55,7.65 -0.15,0.65 -0.8,0.9 -8.5,3.05 -17.55,3.85 l -7.6,1.05 q -7.35,1.3 -14.85,1.25 -2.25,0 -3.25,-2.05 -4.45,-9.2 -5.45,-19.4 -0.5,-5.15 -0.45,-10.35 0.05,-11 7.2,-19.55 l 3.45,-4.15 q 4.2,-4.85 10.25,-7.4 6.7,-2.75 13.7,-4.35 l 4.05,-0.6 M 29.55,2.45 29.6,1.5 q 0.55,-5.3 -0.75,-10.45 -1.9,-7.55 -6.75,-13.6 -4.9,-6.05 -12.9,-5.9 l -2.5,0.1 -7.3,0.95 -0.05,0.2 q -0.2,0.75 -0.7,1.45 -1.55,3.9 -4.6,6.6 -0.5,0.45 -1.4,0.55 -1.5,0.1 -2.25,-1.1 v -0.15 l 0.05,-0.35 v -0.3 q 0.3,-0.6 0.95,-0.8 l 1.25,-0.25 0.25,-0.65 0.55,-1 0.95,-2.2 0.6,-0.85 q -3,0.9 -5.8,2.2 -0.1,0.9 -0.75,2.1 -1.45,2.65 -3.35,5 l -1,0.9 -0.1,0.05 -1.5,0.25 -0.4,-0.1 h -0.05 q -0.45,-0.05 -0.7,-0.55 -0.4,-0.9 -0.4,-1.85 l -1.55,1.9 -2.25,3.15 q -0.05,0.55 -0.4,0.95 -0.4,3.05 0.1,5.9 0.2,1.05 -0.55,1.8 l -0.7,0.25 -0.5,-0.1 q -0.9,-1.55 -1.3,-3.2 -2.6,5.3 -2.15,11.35 l 0.05,0.8 q 0.85,8.5 2.75,16.8 l 0.7,2.8 0.1,0.15 0.25,0.5 0.15,0.3 0.6,1.2 0.2,0.45 0.4,-0.05 v -0.1 l -0.05,-1 -0.95,-3.1 -0.6,-1.95 q -1.55,-2.35 -0.1,-4.5 0.75,-1.1 1.9,-1.35 l 0.4,0.15 0.35,0.15 0.15,0.2 0.1,0.1 0.1,0.35 -0.25,0.85 -0.65,0.8 0.7,1.45 0.45,1.15 q 1.7,3.05 2.15,6.4 l 9.2,-1.15 q -1.4,-1.3 -1.05,-3.6 0.1,-0.6 -0.1,-1.25 l -0.05,-1.15 -0.25,-0.7 -0.35,-1.3 -0.55,-0.2 -0.65,-0.3 -0.2,-0.35 -0.2,-0.65 0.05,-0.35 q 0.65,-1 1.85,-1.35 l 0.85,-0.15 q 2.55,0.95 2.95,3.85 l 0.15,1.65 q 1.3,3.1 -0.2,5.55 l 3.25,-0.45 -1.3,-8.9 q -1,-9.15 0,-18.25 0.3,-2.9 1,-5.75 l 0.2,-1.6 1.75,-4.2 0.1,-0.2 q 0.85,-1.6 1.35,-3.3 l 1.45,-2 q 2.45,-3.15 6.3,-4.5 l 0.7,-0.15 q 8.75,-0.2 14.75,6.3 4.75,5.05 6.15,11.7 l 0.15,0.15 0.1,0.15 0.2,0.8 v 0.55 l -0.05,0.3 0.05,0.15 0.1,0.2 0.4,1.3 0.1,1.65 0.1,1.1 0.1,0.2 0.05,0.15 0.15,0.8 0.05,0.5 V 2.2 2.3 2.35 l 0.05,0.2 0.05,0.15 0.15,0.8 0.1,-1.05 M -27.1,4.9 -27.15,4.7 -27.25,1.75 -27.3,1.6 -27.4,1.45 -27.6,1.1 -27.65,0.8 V 0.15 l 0.05,-0.35 q 0.55,-1.2 1.75,-1.8 l 0.95,-0.25 q 2.45,0.6 1.4,2.8 l -0.7,1.05 0.25,3.95 0.1,0.75 0.25,2.15 0.05,0.15 0.05,0.2 v 0.15 l 1.75,1.25 q 0.4,0.25 0.45,0.7 -1.4,1.9 -3.8,0.6 -1.6,-0.9 -1.4,-2.9 l -0.6,-3.7 m 5.5,1.75 -0.2,-0.85 q -0.3,-2.35 0.3,-4.55 0.25,-0.9 1.1,-1.2 l 0.8,-0.2 q 0.7,0.25 1.2,0.65 1.3,0.35 1.4,1.8 l -0.05,0.7 -0.05,0.8 0.15,1.6 0.05,0.6 0.05,1.2 q 0.85,3.15 -2.45,2.7 -0.8,-0.15 -1.1,-0.95 l -0.1,-0.3 q -0.75,-0.75 -1.1,-2 M -12.55,3 -12.85,1.15 q -1.5,-0.85 -1.05,-2.4 0.35,-1.05 1.45,-1.15 1.75,0.3 2.65,1.45 0.95,1.15 0.9,3.2 0,3.55 -0.6,7 -0.25,1.35 -1.55,2.05 -2.25,1.2 -3.8,-0.5 l -0.05,-0.15 -0.05,-0.35 0.05,-0.5 0.05,-0.15 0.95,-0.95 1.45,-1 L -12.5,4.1 -12.55,3 M 0.35,23.65 7.1,22.4 V 22.25 L 7,22.1 6.9,21.9 6.7,21.6 6.5,21.25 Q 5.85,17.35 5.5,13.4 5.15,9.65 6,6.05 5.9,5.3 6.05,4.6 6.25,3.35 6.6,2.15 l 0.25,-1 q 1.4,-3.6 4.9,-5.4 1.9,-0.95 3.9,-1.3 5.9,1.65 8.2,7.45 2,5.05 1.7,10.25 h 2.7 l 0.05,-0.6 Q 28.65,9.8 28.3,8.1 27.85,6.2 27.9,4.2 L 27.25,2.1 26.05,-3.45 25.3,-6.75 25.2,-6.9 25.15,-7.05 25.05,-7.2 24.95,-7.4 24.9,-7.55 24.85,-7.7 24.7,-8.2 24.55,-8.7 24.5,-8.85 q -2.75,-5.8 -8.05,-9.55 -2.6,-1.85 -5.75,-2.25 -5.9,-0.85 -8.9,4.3 l -0.1,0.3 -0.75,1.85 -0.9,2.4 q -0.1,0.35 -0.35,0.65 V -11 l -0.05,0.2 -0.25,0.8 -0.15,0.5 -0.2,0.65 -0.1,0.15 q -0.7,4.65 -0.9,9.35 -0.3,8.3 0.4,16.45 l 0.1,0.2 v 0.15 l 0.1,0.8 v 0.5 0.35 l 0.05,0.15 0.1,0.15 q 0.2,0.4 0.25,0.85 l 0.05,0.45 0.05,0.35 0.55,1.4 0.2,1.3 0.45,-0.1 m 9.2,-1.8 q -0.15,-3.7 0,-7.35 0.25,-6.15 3.6,-11.1 1.05,-1.6 3,-1.35 4.15,0.55 5.4,4.75 l 0.8,3.05 q -0.05,-2 -0.45,-3.9 l -0.25,-0.65 -0.3,-0.8 -0.2,-0.85 -2,-3.1 Q 17.9,-1.35 15.7,-2.1 13.5,-1.9 11.85,-0.5 L 10.6,0.5 10.3,1.15 9.9,2 9.4,2.95 V 3.1 3.3 L 9.35,3.45 9.25,3.6 Q 8.2,8.4 8.35,13.4 L 8.6,21.6 8.55,21.9 8.5,22.1 9.55,21.85 M -17.65,-4.8 q -0.85,1.15 -2,0.3 -1.95,-1.4 -1.7,-3.5 -0.25,-2.55 1.05,-4.7 l 0.75,-0.6 0.6,-0.15 q 2.15,0.4 2.65,1.95 0.3,0.65 0.15,1.55 l -0.05,0.4 -0.25,0.9 q 0.15,2 -1.2,3.85 m 7.15,-12.9 q 4.5,1.3 2.9,5.8 l -0.35,1.7 q -0.2,2.6 -1.45,4.9 -2.7,1.5 -4.8,-0.25 l -0.05,-0.3 V -6.5 l 0.05,-0.2 q 0.45,-0.85 1.5,-1.05 0.5,-0.1 0.95,-0.35 l 0.05,-2.95 q 0.1,-1.45 0.6,-2.75 -0.65,-0.55 -0.95,-1.35 -0.3,-0.7 -0.1,-1.45 l 0.75,-0.8 0.9,-0.3 m -7.8,32.05 q 2.75,1.05 2.55,4.4 l -0.05,1.2 V 20 q 0.65,0.4 0.7,1.15 l 0.05,1 q -1.1,3.2 -3.75,1.1 -0.8,-0.65 -1,-1.7 L -19.9,19 -20.3,17.75 q -0.25,-1.05 0,-2.1 l 0.9,-0.95 q 0.55,-0.35 1.1,-0.35"
         fill="#000000"
         fill-rule="evenodd"
         stroke="none"
         id="path1" />
      <path
         d="m -28.35,3.75 q -0.45,-6.05 2.15,-11.35 0.4,1.65 1.3,3.2 l 0.5,0.1 0.7,-0.25 q 0.75,-0.75 0.55,-1.8 -0.5,-2.85 -0.1,-5.9 0.35,-0.4 0.4,-0.95 l 2.25,-3.15 1.55,-1.9 q 0,0.95 0.4,1.85 0.25,0.5 0.7,0.55 h 0.05 l 0.4,0.1 1.5,-0.25 0.1,-0.05 1,-0.9 q 1.9,-2.35 3.35,-5 0.65,-1.2 0.75,-2.1 2.8,-1.3 5.8,-2.2 l -0.6,0.85 -0.95,2.2 -0.55,1 -0.25,0.65 -1.25,0.25 q -0.65,0.2 -0.95,0.8 v 0.3 l -0.05,0.35 v 0.15 q 0.75,1.2 2.25,1.1 0.9,-0.1 1.4,-0.55 3.05,-2.7 4.6,-6.6 0.5,-0.7 0.7,-1.45 l 0.05,-0.2 7.3,-0.95 2.5,-0.1 q 8,-0.15 12.9,5.9 4.85,6.05 6.75,13.6 1.3,5.15 0.75,10.45 L 29.55,2.45 29.2,2.3 V 2.2 1.55 L 29.15,1.05 29,0.25 28.95,0.1 l -0.1,-0.2 -0.1,-1.1 -0.1,-1.65 -0.4,-1.3 -0.1,-0.2 -0.05,-0.15 0.05,-0.3 v -0.55 l -0.2,-0.8 -0.1,-0.15 -0.15,-0.15 q -1.4,-6.65 -6.15,-11.7 -6,-6.5 -14.75,-6.3 l -0.7,0.15 q -3.85,1.35 -6.3,4.5 l -1.45,2 q -0.5,1.7 -1.35,3.3 -2.15,3.05 -3.45,6.85 l -0.7,1.35 q -1.1,2.8 -2.65,5.35 -0.9,-1.15 -2.65,-1.45 -1.1,0.1 -1.45,1.15 -0.45,1.55 1.05,2.4 l 0.3,1.85 -0.15,0.15 q -1.2,1.4 -2.85,2.25 L -16.9,6 -16.95,5.4 -17.1,3.8 -17.05,3 -17,2.3 q -0.1,-1.45 -1.4,-1.8 -0.5,-0.4 -1.2,-0.65 l -0.8,0.2 q -0.85,0.3 -1.1,1.2 -0.6,2.2 -0.3,4.55 l 0.2,0.85 -1.4,-0.2 -0.85,-0.15 -0.1,-0.75 -0.25,-3.95 0.7,-1.05 q 1.05,-2.2 -1.4,-2.8 L -25.85,-2 q -1.2,0.6 -1.75,1.8 l -0.05,0.35 V 0.8 l 0.05,0.3 0.2,0.35 0.1,0.15 0.05,0.15 0.1,2.95 0.05,0.2 -1.25,-1.15 m 10.7,-8.55 q 1.35,-1.85 1.2,-3.85 l 0.25,-0.9 0.05,-0.4 q 0.15,-0.9 -0.15,-1.55 -0.5,-1.55 -2.65,-1.95 l -0.6,0.15 -0.75,0.6 q -1.3,2.15 -1.05,4.7 -0.25,2.1 1.7,3.5 1.15,0.85 2,-0.3 M 9.55,21.85 8.5,22.1 8.55,21.9 8.6,21.6 8.35,13.4 Q 8.2,8.4 9.25,3.6 L 9.35,3.45 9.4,3.3 V 3.1 2.95 L 9.9,2 10.3,1.15 10.6,0.5 l 1.25,-1 q 1.65,-1.4 3.85,-1.6 2.2,0.75 3.45,2.65 l 2,3.1 0.2,0.85 0.3,0.8 0.25,0.65 q 0.4,1.9 0.45,3.9 L 21.55,6.8 Q 20.3,2.6 16.15,2.05 14.2,1.8 13.15,3.4 9.8,8.35 9.55,14.5 q -0.15,3.65 0,7.35 m -20.05,-39.55 -0.9,0.3 -0.75,0.8 q -0.2,0.75 0.1,1.45 0.3,0.8 0.95,1.35 -0.5,1.3 -0.6,2.75 l -0.05,2.95 q -0.45,0.25 -0.95,0.35 -1.05,0.2 -1.5,1.05 l -0.05,0.2 v 0.65 l 0.05,0.3 q 2.1,1.75 4.8,0.25 1.25,-2.3 1.45,-4.9 l 0.35,-1.7 q 1.6,-4.5 -2.9,-5.8"
         fill="#353535"
         fill-rule="evenodd"
         stroke="none"
         id="path2" />
      <path
         d="m -28.35,3.75 1.25,1.15 0.6,3.7 q -0.2,2 1.4,2.9 2.4,1.3 3.8,-0.6 -0.05,-0.45 -0.45,-0.7 L -23.5,8.95 V 8.8 L -23.55,8.6 -23.6,8.45 -23.85,6.3 -23,6.45 l 1.4,0.2 q 0.35,1.25 1.1,2 l 0.1,0.3 q 0.3,0.8 1.1,0.95 3.3,0.45 2.45,-2.7 L -16.9,6 -15.55,5.4 q 1.65,-0.85 2.85,-2.25 l 0.15,-0.15 0.05,1.1 0.05,3.6 -1.45,1 -0.95,0.95 -0.05,0.15 -0.05,0.5 0.05,0.35 0.05,0.15 q 1.55,1.7 3.8,0.5 1.3,-0.7 1.55,-2.05 0.6,-3.45 0.6,-7 0.05,-2.05 -0.9,-3.2 1.55,-2.55 2.65,-5.35 l 0.7,-1.35 q 1.3,-3.8 3.45,-6.85 l -0.1,0.2 -1.75,4.2 -0.2,1.6 q -0.7,2.85 -1,5.75 -1,9.1 0,18.25 l 1.3,8.9 -3.25,0.45 q 1.5,-2.45 0.2,-5.55 l -0.15,-1.65 q -0.4,-2.9 -2.95,-3.85 l -0.85,0.15 q -1.2,0.35 -1.85,1.35 l -0.05,0.35 0.2,0.65 0.2,0.35 0.65,0.3 0.55,0.2 0.35,1.3 0.25,0.7 0.05,1.15 q 0.2,0.65 0.1,1.25 -0.35,2.3 1.05,3.6 l -9.2,1.15 q -0.45,-3.35 -2.15,-6.4 l -0.45,-1.15 -0.7,-1.45 0.65,-0.8 0.25,-0.85 -0.1,-0.35 -0.1,-0.1 -0.15,-0.2 -0.35,-0.15 -0.4,-0.15 q -1.15,0.25 -1.9,1.35 -1.45,2.15 0.1,4.5 l 0.6,1.95 0.95,3.1 0.05,1 v 0.1 l -0.4,0.05 -0.2,-0.45 -0.6,-1.2 -0.15,-0.3 -0.25,-0.5 -0.1,-0.15 -0.7,-2.8 q -1.9,-8.3 -2.75,-16.8 l -0.05,-0.8 m 28.7,19.9 -0.45,0.1 -0.2,-1.3 -0.55,-1.4 L -0.9,20.7 -0.95,20.25 Q -1,19.8 -1.2,19.4 L -1.3,19.25 -1.35,19.1 v -0.35 -0.5 l -0.1,-0.8 V 17.3 l -0.1,-0.2 q -0.7,-8.15 -0.4,-16.45 0.2,-4.7 0.9,-9.35 l 0.1,-0.15 0.2,-0.65 0.15,-0.5 0.25,-0.8 0.05,-0.2 v -0.15 q 0.25,-0.3 0.35,-0.65 l 0.9,-2.4 0.75,-1.85 0.1,-0.3 q 3,-5.15 8.9,-4.3 3.15,0.4 5.75,2.25 5.3,3.75 8.05,9.55 l 0.05,0.15 0.15,0.5 0.15,0.5 0.05,0.15 0.05,0.15 0.1,0.2 0.1,0.15 0.05,0.15 0.1,0.15 0.75,3.3 1.2,5.55 0.65,2.1 q -0.05,2 0.4,3.9 0.35,1.7 0,3.45 l -0.05,0.6 h -2.7 q 0.3,-5.2 -1.7,-10.25 -2.3,-5.8 -8.2,-7.45 -2,0.35 -3.9,1.3 -3.5,1.8 -4.9,5.4 l -0.25,1 Q 6.25,3.35 6.05,4.6 5.9,5.3 6,6.05 5.15,9.65 5.5,13.4 q 0.35,3.95 1,7.85 l 0.2,0.35 0.2,0.3 0.1,0.2 0.1,0.15 v 0.15 l -6.75,1.25 m -18.65,-9.3 q -0.55,0 -1.1,0.35 l -0.9,0.95 q -0.25,1.05 0,2.1 l 0.4,1.25 0.1,2.55 q 0.2,1.05 1,1.7 2.65,2.1 3.75,-1.1 l -0.05,-1 Q -15.15,20.4 -15.8,20 v -0.05 l 0.05,-1.2 q 0.2,-3.35 -2.55,-4.4"
         fill="#252525"
         fill-rule="evenodd"
         stroke="none"
         id="path3" />
    </g>
    <g
       id="sprite1"
       transform="translate(17.4,15.85)">
      <use
         ffdec:characterId="31"
         height="57.200001"
         transform="matrix(0.5366,0,0,0.5366,-16.6582,-14.546)"
         width="70.75"
         xlink:href="#sprite2"
         id="use3" />
    </g>
    <g
       id="sprite2"
       transform="translate(-8.65,-10.35)">
      <use
         ffdec:characterId="30"
         height="57.200001"
         transform="translate(8.65,10.35)"
         width="70.75"
         xlink:href="#shape1"
         id="use4" />
    </g>
    <g
       id="shape1"
       transform="translate(-8.65,-10.35)">
      <path
         d="m 14.8,41.7 q 0.65,-1.75 2.65,-2.5 1.8,-0.8 3.7,-0.25 1.15,0.45 2.25,1.2 l 0.9,0.4 q 1.65,0.9 2.85,2.5 L 37.8,30.1 q 2.35,-2.8 3.75,-3.95 1.5,-1.15 4.25,-2.4 18.2,-8.85 27.65,-12.6 2.15,-0.8 3.25,-0.8 h 0.8 l 1.9,2.4 -0.2,0.8 q -0.2,1.1 -1.55,3 -5.85,8.25 -18.85,23.8 -1.85,2.35 -3.35,3.5 -1.4,1.15 -4.75,2.75 l -15.15,7.15 q 1.2,1.6 1.75,3.4 l 0.2,1 0.55,2.5 q 0.1,1.95 -1.1,3.55 -1.2,1.65 -3.05,1.9 l -1.3,0.05 q -1.65,0.2 -3.45,-0.65 -1.85,-0.9 -3,-2.6 L 25,60.95 23.8,62.1 q -2.6,2.85 -4.3,3.95 -2.85,1.8 -5.5,1.45 l -1.65,-0.5 -1.2,-0.7 -0.2,-0.2 q -1,-0.85 -1.6,-1.9 L 9.25,64 9.15,63.8 8.75,62.4 q -0.2,-0.8 -0.05,-1.7 0.25,-2.65 2.7,-5.05 1.5,-1.3 4.9,-3.15 L 17.7,51.55 16.05,50 q -1.35,-1.5 -1.8,-3.6 -0.4,-1.85 0.25,-3.45 l 0.3,-1.25"
         fill="#000000"
         fill-opacity="0.372549"
         fill-rule="evenodd"
         stroke="none"
         id="path4" />
    </g>
  </defs>
</svg>
