<?xml version="1.0" encoding="UTF-8" standalone="no"?>
<svg
   ffdec:objectType="frame"
   height="30.685623"
   width="37.935013"
   version="1.1"
   id="svg5"
   xmlns:xlink="http://www.w3.org/1999/xlink"
   xmlns="http://www.w3.org/2000/svg"
   xmlns:svg="http://www.w3.org/2000/svg"
   xmlns:ffdec="https://www.free-decompiler.com/flash">
  <g
     transform="translate(21.442857,16.918056)"
     id="g1">
    <use
       ffdec:characterId="17"
       height="119.15"
       id="rarity"
       transform="translate(-58.5,-60.65)"
       width="119.15"
       xlink:href="#sprite0" />
    <use
       ffdec:characterId="480"
       height="30.65"
       transform="translate(-21.45,-16.9)"
       width="37.950001"
       xlink:href="#shape0"
       id="use1" />
  </g>
  <defs
     id="defs5">
    <g
       id="shape0"
       transform="translate(21.05,16.1)">
      <path
         d="m -12.4,-1.95 -0.6,0.8 -1.95,2.8 0.4,1.7 0.2,0.85 0.8,2.2 0.1,0.15 0.2,0.45 0.35,0.45 q 7.95,2 16.3,1.35 3.1,-2.05 6.5,-3.6 l 1.4,-1 0.1,-4.7 0.05,-1.35 V -3.5 -4.2 l -0.15,-4.6 -0.1,-1.35 -1.45,-0.3 -0.5,0.15 Q 6.1,-9.45 2.9,-8.95 l -0.75,0.1 -2.2,0.25 -1.8,0.15 -4.4,0.2 -4.8,4.7 -0.9,1 -0.45,0.6 m 21.65,-14 q 7.05,-1.1 7.45,5 0.7,9.6 -1.15,18.85 -0.1,0.4 -0.55,0.6 l -13.15,5.3 -3.4,0.7 q -7.6,0.5 -14.3,-2.7 -3.2,-1.55 -3.65,-5.2 -3.6,-6 1.2,-11.25 4.4,-4.85 9.55,-8.75 1,-0.75 2.25,-0.7 8.15,0.4 15.75,-1.85"
         fill="#000000"
         fill-rule="evenodd"
         stroke="none"
         id="path1" />
      <path
         d="m 2.15,-8.85 0.45,0.7 0.4,0.95 0.1,0.4 q 0.35,1.5 -0.9,2.7 -5.9,5.65 -13.35,3.1 -0.95,-0.3 -1.25,-0.95 l 0.45,-0.6 0.9,-1 4.8,-4.7 4.4,-0.2 1.8,-0.15 2.2,-0.25"
         fill="#c87878"
         fill-rule="evenodd"
         stroke="none"
         id="path2" />
      <path
         d="M -12.4,-1.95 Q -12.1,-1.3 -11.15,-1 -3.7,1.55 2.2,-4.1 3.45,-5.3 3.1,-6.8 L 3,-7.2 2.6,-8.15 2.15,-8.85 2.9,-8.95 q 3.2,-0.5 6.35,-1.35 l 0.5,-0.15 1.45,0.3 0.1,1.35 0.15,4.6 v 0.7 1.65 L 9.6,-0.3 4.7,2.6 q -8.25,4.6 -17.15,1.7 l -2.1,-0.95 -0.4,-1.7 1.95,-2.8 0.6,-0.8"
         fill="#a45b5b"
         fill-rule="evenodd"
         stroke="none"
         id="path3" />
      <path
         d="m -14.55,3.35 2.1,0.95 Q -3.55,7.2 4.7,2.6 l 4.9,-2.9 1.85,-1.55 -0.05,1.35 -0.1,4.7 -1.4,1 Q 6.5,6.75 3.4,8.8 -4.95,9.45 -12.9,7.45 L -13.25,7 l -0.2,-0.45 -0.1,-0.15 -0.8,-2.2 -0.2,-0.85"
         fill="#805353"
         fill-rule="evenodd"
         stroke="none"
         id="path4" />
    </g>
    <g
       id="sprite1"
       transform="translate(17.4,15.85)">
      <use
         ffdec:characterId="31"
         height="57.200001"
         transform="matrix(0.5366,0,0,0.5366,-16.6582,-14.546)"
         width="70.75"
         xlink:href="#sprite2"
         id="use4" />
    </g>
    <g
       id="sprite2"
       transform="translate(-8.65,-10.35)">
      <use
         ffdec:characterId="30"
         height="57.200001"
         transform="translate(8.65,10.35)"
         width="70.75"
         xlink:href="#shape1"
         id="use5" />
    </g>
    <g
       id="shape1"
       transform="translate(-8.65,-10.35)">
      <path
         d="m 14.8,41.7 q 0.65,-1.75 2.65,-2.5 1.8,-0.8 3.7,-0.25 1.15,0.45 2.25,1.2 l 0.9,0.4 q 1.65,0.9 2.85,2.5 L 37.8,30.1 q 2.35,-2.8 3.75,-3.95 1.5,-1.15 4.25,-2.4 18.2,-8.85 27.65,-12.6 2.15,-0.8 3.25,-0.8 h 0.8 l 1.9,2.4 -0.2,0.8 q -0.2,1.1 -1.55,3 -5.85,8.25 -18.85,23.8 -1.85,2.35 -3.35,3.5 -1.4,1.15 -4.75,2.75 l -15.15,7.15 q 1.2,1.6 1.75,3.4 l 0.2,1 0.55,2.5 q 0.1,1.95 -1.1,3.55 -1.2,1.65 -3.05,1.9 l -1.3,0.05 q -1.65,0.2 -3.45,-0.65 -1.85,-0.9 -3,-2.6 L 25,60.95 23.8,62.1 q -2.6,2.85 -4.3,3.95 -2.85,1.8 -5.5,1.45 l -1.65,-0.5 -1.2,-0.7 -0.2,-0.2 q -1,-0.85 -1.6,-1.9 L 9.25,64 9.15,63.8 8.75,62.4 q -0.2,-0.8 -0.05,-1.7 0.25,-2.65 2.7,-5.05 1.5,-1.3 4.9,-3.15 L 17.7,51.55 16.05,50 q -1.35,-1.5 -1.8,-3.6 -0.4,-1.85 0.25,-3.45 l 0.3,-1.25"
         fill="#000000"
         fill-opacity="0.372549"
         fill-rule="evenodd"
         stroke="none"
         id="path5" />
    </g>
  </defs>
</svg>
