<?xml version="1.0" encoding="UTF-8" standalone="no"?>
<svg
   ffdec:objectType="frame"
   height="83.692108"
   width="79.466667"
   version="1.1"
   id="svg4"
   sodipodi:docname="ITEM Ocular Chip.svg"
   xmlns:inkscape="http://www.inkscape.org/namespaces/inkscape"
   xmlns:sodipodi="http://sodipodi.sourceforge.net/DTD/sodipodi-0.dtd"
   xmlns:xlink="http://www.w3.org/1999/xlink"
   xmlns="http://www.w3.org/2000/svg"
   xmlns:svg="http://www.w3.org/2000/svg"
   xmlns:ffdec="https://www.free-decompiler.com/flash">
  <sodipodi:namedview
     id="namedview4"
     pagecolor="#ffffff"
     bordercolor="#000000"
     borderopacity="0.25"
     inkscape:showpageshadow="2"
     inkscape:pageopacity="0.0"
     inkscape:pagecheckerboard="0"
     inkscape:deskcolor="#d1d1d1"
     fit-margin-top="5"
     fit-margin-left="5"
     fit-margin-right="5"
     fit-margin-bottom="5" />
  <g
     transform="translate(40.566667,41.392105)"
     id="g1">
    <use
       ffdec:characterId="17"
       height="119.15"
       id="rarity"
       transform="translate(-58.5,-60.65)"
       width="119.15"
       xlink:href="#sprite0" />
    <use
       ffdec:characterId="1242"
       height="83.699997"
       transform="translate(-40.55,-41.4)"
       width="79.449997"
       xlink:href="#shape0"
       id="use1" />
  </g>
  <defs
     id="defs4">
    <g
       id="shape0"
       transform="translate(39.25,39.5)">
      <path
         d="m -1.4,27.9 q -1.5,-0.35 -2.85,-2.85 l -3.45,-7.5 -0.2,2.55 q -0.25,2 -1.05,5.1 l -1.7,6.6 q -0.6,2.2 -1.5,2.85 -0.85,0.65 -3.05,0.65 h -3.45 l -0.1,0.45 -0.25,2.4 4.25,-0.15 h 2.4 l 1.05,0.2 1.05,-0.1 0.6,-0.45 0.55,-0.6 q 0.6,-0.55 1.95,-0.55 1.35,0 2.1,0.55 1.15,0.75 1.45,2.9 0.2,0.95 0.05,1.65 -0.3,1.1 -1.4,1.85 l -2.1,0.75 -2.2,-0.35 -1.4,-0.6 -1.3,-0.1 -1.5,-0.25 -1.55,0.05 -3.15,0.05 -3,-0.2 q -1.75,-0.4 -2.25,-1.55 -0.2,-0.6 0.1,-2.1 l 0.5,-2.15 0.55,-1.85 -2.75,-0.3 q -4.1,-0.55 -11.2,-2.75 -2.1,-0.75 -2.65,-1.65 -0.5,-0.8 -0.4,-2.55 l 0.65,-4.75 0.7,-4.75 0.4,-5.05 0.45,-5 q 0.4,-2.25 1.35,-3 1.1,-0.95 3.85,-0.65 l 11.45,1.1 5.85,0.9 q 1.05,0.25 2.8,0.9 -1.8,-4.7 -2.6,-7.55 -0.65,-2.2 -0.15,-3.45 0.5,-1.2 2.6,-2.4 l 7.05,-4.1 0.45,-0.4 q 0.15,-0.25 0.05,-0.8 l -3.2,-13.45 q -0.7,-2.75 0.15,-4.1 0.65,-0.9 2.85,-1.65 l 3.35,-1 q -0.05,-0.9 0.35,-1.6 l 0.1,-0.15 -6,0.85 -8.05,1.5 -7.25,2.05 q -4.65,1.45 -7.25,2 l -1.15,0.05 q -0.75,-0.2 -0.75,-0.8 l 0.65,-1 q 1.4,-0.95 3.8,-2 l 8.5,-3.65 q 4.8,-1.9 8.8,-2.8 l 4.6,-0.9 4.6,-1.15 q 2.1,-0.75 3.05,-0.55 0.8,0.15 1.45,0.75 0.6,0.6 0.8,1.45 l 0.05,0.9 0.75,0.05 1.4,0.25 q 1.35,0.4 1.85,1.8 l 0.1,0.3 4.8,-1.15 v -0.05 l 0.25,-1.1 0.9,-1.3 1.5,-1.15 q 2.25,-1.2 4.2,-0.3 l 1.3,0.9 0.65,0.9 0.15,0.4 q 2.1,-0.1 3.05,0.75 1,0.9 1.3,3.45 l 2.55,16.75 q 1.4,9.85 1.5,16.8 0.1,2.25 -0.6,3.4 -0.9,1.4 -3.15,2 l -1.85,0.5 -1.8,0.65 0.5,4.5 q 2.85,-1.45 6.4,-2.15 l 1.6,-0.1 q 1.15,0.3 1.9,1.65 l 0.75,2.5 0.9,3 1.4,3.8 h 0.2 q 0.55,0.2 1.2,0.75 0.9,0.8 1.1,1.45 l 0.15,0.8 0.15,2.05 q -0.05,0.8 -0.85,1.9 l -0.6,0.6 q -1,0.8 -3.25,0.7 l -1.3,-0.25 -0.7,-0.45 -1,-1.2 q -0.3,-0.7 -0.2,-1.9 L 32.6,23.4 32.65,23.3 32.55,23 31.8,20.35 31.1,18.7 q -0.75,-1.9 -0.9,-3.4 l -5.25,1.9 -0.1,0.05 v 0.05 q 0.1,2.1 -0.6,2.95 -0.5,0.6 -1.55,0.95 l -1.85,0.45 q -0.8,0.2 -2.1,0.8 l -2.05,0.85 -2.75,0.6 -2.8,0.35 q -3.5,0.55 -9.4,3.05 -1.95,0.9 -3.15,0.6 m 24,-55.15 -0.65,-3.7 -15.35,3.35 q -5.9,1.35 -8.3,2.5 l 0.1,0.75 0.1,0.7 0.35,1.85 0.8,3.65 q 0.7,2.85 1.7,5.8 1,2.75 0.6,4.4 l -0.3,0.7 Q 1.25,-6.6 0.2,-5.9 l -1.75,0.8 q -2.8,1.25 -5.2,2.85 l -1.95,1.4 1.25,3.7 q 2.7,7.95 6.3,15.45 l 1.6,3.25 4.25,-1.35 q 2.75,-1 4.25,-1.3 l 4.45,-0.7 q 3.35,-0.55 6.2,-2 -0.2,-4.35 -1,-8.95 -0.3,-2.3 0.15,-3.2 0.65,-1.3 2.7,-1.85 l 1.7,-0.35 1.65,-0.4 1.1,-0.8 q 0.3,-0.55 0.2,-1.5 -0.45,-6.7 -1.7,-15.1 l -1.8,-11.3 M 3.35,-20 q 0.1,-2.05 2,-3.05 l 3.7,-0.15 1,0.6 0.6,0.7 q 0.65,0.9 0.6,1.85 l -0.4,1.6 q -0.4,1 -0.45,1.55 l 0.05,1.3 1.5,8.15 0.3,2.3 q -0.1,1.4 -0.85,2.15 -0.45,0.4 -1.65,0.9 L 5.8,-0.35 1.7,1.05 0.2,0.9 Q -0.45,0.25 0.15,-0.85 0.65,-1.65 1.8,-2.2 L 3.9,-3.05 Q 5.8,-3.8 7.55,-5 L 8,-5.55 l -0.05,-1 q -0.6,-1.7 -1,-4.5 l -0.75,-4.6 -0.3,-0.7 -0.8,-0.5 Q 4.25,-17.3 3.75,-18.2 3.3,-19.05 3.35,-20 m 11.15,-4.25 0.55,-0.45 1.4,-0.3 0.9,0.35 q 0.9,0.6 1,1.7 0.1,1.1 -0.7,1.8 -0.5,0.45 -1.15,0.55 l -1.25,-0.15 q -1.2,-0.55 -1.3,-1.9 -0.05,-1 0.55,-1.6 m 1.7,11.75 -0.25,-0.85 q -0.05,-0.8 0.45,-1.5 l 1.25,-0.9 1.6,0.2 q 0.75,0.35 1.1,1.05 0.35,0.7 0.1,1.55 -0.2,0.8 -0.85,1.3 -0.65,0.45 -1.5,0.4 -0.85,-0.05 -1.45,-0.6 L 16.2,-12.5 M 12.95,2 10.7,3.1 8.3,4 5.35,4.75 1.85,6.15 q -2.1,0.9 -3.55,1 L -3.15,6.9 Q -3.95,6.4 -3.7,5.65 -3.55,5.2 -2.95,5 L -1.8,4.75 Q -1.1,4.55 0.75,3.4 2.25,2.45 5.25,1.3 L 9.8,-0.65 12,-1.95 14.2,-3.1 q 1.2,-0.45 1.55,-0.85 l 0.65,-1.2 q 0.45,-0.9 1.35,-1.35 0.9,-0.5 1.9,-0.4 1,0.1 1.8,0.75 l 1.15,1.6 q 0.8,1.95 -0.55,3.7 -0.75,1.1 -1.95,1.3 L 18.15,0.4 16.2,0.8 12.95,2 m 2.7,10.5 0.15,1.45 Q 15.6,14.7 15,15.2 14.45,15.7 13.65,15.7 12.8,15.65 12.25,15.15 11.6,14.65 11.5,13.65 11.4,12.7 11.95,12 q 0.6,-0.8 1.45,-0.85 l 1.35,0.3 q 0.65,0.4 0.9,1.05 M 3.55,8.75 3.85,9.7 4.2,10.55 4.3,11 q 0.1,0.2 0.55,0.3 0.7,0.1 1.2,0.45 l 1,1 0.55,0.85 q 0.65,1.1 0.25,2.25 -0.3,0.9 -1.1,1.55 L 5.4,18.2 4.1,18.45 2.35,18.25 Q 1.4,17.9 0.9,17.25 0.25,16.4 0.35,15.15 0.5,14.2 1,13.05 L 1.15,12.6 1.1,12.15 0.65,10.6 0.7,9.7 Q 0.8,8.9 1,8.55 1.5,7.8 2.35,7.9 q 0.85,0 1.2,0.85 m -15.7,5.8 0.4,-1.35 q -3.45,-1.55 -5.05,-1.8 l -2.8,-0.1 -3.3,-0.35 -8.9,-0.8 -0.3,1.55 -0.25,2.45 -0.05,0.4 -0.15,4.5 -0.65,4.05 -0.55,4 1.55,0.4 6.3,1.65 5.15,0.55 4.6,0.05 0.55,-0.15 0.25,-0.5 1.95,-7.4 q 0.55,-1.65 0.75,-2.8 l 0.25,-2.9 0.25,-1.45 m -19.1,10.1 -0.05,-0.15 q -0.2,-1.15 0.55,-1.9 l 0.2,-0.15 q 1,-0.75 2,-0.15 1,0.45 1.1,1.7 0.1,1.4 -1.15,2 l -1.2,0.1 -1.05,-0.65 -0.4,-0.8 m 1.6,-6.4 -0.55,-0.65 q -0.85,-1.4 -0.2,-3 l 0.25,-0.45 q 0.35,-0.65 1.05,-1 l 0.4,-0.2 q 1,-0.4 2.1,0 l 1.2,0.85 q 0.35,0.45 0.55,1 l 0.1,0.2 1.95,-0.1 5.2,0.3 q 1.4,0.1 2,0.8 0.4,0.55 0.3,1.45 l -0.35,1.45 -0.4,1.65 q -0.3,1.5 -0.65,2.05 -0.35,0.65 -0.85,0.85 -0.65,0.3 -1.4,-0.25 -0.55,-0.45 -0.7,-1.25 l 0.05,-1 0.2,-0.85 0.1,-0.75 0.3,-0.7 q -0.4,-0.3 -1.1,-0.3 h -1.2 l -2.25,-0.25 -1.85,-0.15 -0.6,0.5 q -0.75,0.5 -1.55,0.5 -1.25,0.05 -2.1,-0.7 m 8.35,8.35 -1.1,0.75 q -0.65,0.25 -1.3,0 -0.65,-0.25 -1.05,-0.8 -0.35,-0.65 -0.3,-1.3 0.1,-1.45 1.5,-1.85 l 1.25,0.05 1,0.75 q 0.4,0.55 0.4,1.2 0,0.7 -0.4,1.2"
         fill="#000000"
         fill-rule="evenodd"
         stroke="none"
         id="path1" />
      <path
         d="m -1.15,18.3 q -3.6,-7.5 -6.3,-15.45 l -1.25,-3.7 1.95,-1.4 q 2.4,-1.6 5.2,-2.85 L 0.2,-5.9 q 1.05,-0.7 1.45,-1.35 l 0.3,-0.7 q 0.4,-1.65 -0.6,-4.4 -1,-2.95 -1.7,-5.8 l -0.8,-3.65 -0.35,-1.85 -0.1,-0.7 -0.1,-0.75 q 2.4,-1.15 8.3,-2.5 l 15.35,-3.35 0.65,3.7 -6.15,2.25 -1.4,0.3 -0.55,0.45 -4.45,1.65 -1,-0.6 -3.7,0.15 q -1.9,1 -2,3.05 l -1.25,0.6 -0.25,0.15 1,7.5 0.05,2.1 Q 2.8,-8.05 2.25,-7.1 L 2,-6.7 l -1.05,1.3 -6.25,6 0.35,1.35 0.5,2.55 q 1.05,6.35 2.95,12.6 l 0.35,1.2 m -31.05,9.2 -1.55,-0.4 0.55,-4 0.65,-4.05 0.15,-4.5 0.05,-0.4 0.25,-2.45 0.3,-1.55 8.9,0.8 3.3,0.35 2.8,0.1 q 1.6,0.25 5.05,1.8 l -0.4,1.35 h -0.45 l -2.8,-0.05 -2.4,-0.35 -6.15,-0.4 -1.45,0.05 -1.2,-0.85 q -1.1,-0.4 -2.1,0 l -0.4,0.2 q -0.7,0.35 -1.05,1 l -0.25,0.45 q -0.65,1.6 0.2,3 l 0.55,0.65 -1.1,4.35 q -0.75,0.75 -0.55,1.9 l 0.05,0.15 -0.65,2 -0.3,0.85"
         fill="#54634f"
         fill-rule="evenodd"
         stroke="none"
         id="path2" />
      <path
         d="M -1.15,18.3 -1.5,17.1 Q -3.4,10.85 -4.45,4.5 L -4.95,1.95 -5.3,0.6 0.95,-5.4 2,-6.7 2.25,-7.1 Q 2.8,-8.05 2.9,-9.65 l -0.05,-2.1 -1,-7.5 0.25,-0.15 1.25,-0.6 q -0.05,0.95 0.4,1.8 0.5,0.9 1.35,1.35 l 0.8,0.5 0.3,0.7 0.75,4.6 q 0.4,2.8 1,4.5 L 8,-5.55 7.55,-5 Q 5.8,-3.8 3.9,-3.05 L 1.8,-2.2 q -1.15,0.55 -1.65,1.35 -0.6,1.1 0.05,1.75 l 1.5,0.15 4.1,-1.4 3.95,-1.75 q 1.2,-0.5 1.65,-0.9 0.75,-0.75 0.85,-2.15 l -0.3,-2.3 -1.5,-8.15 -0.05,-1.3 q 0.05,-0.55 0.45,-1.55 l 0.4,-1.6 Q 11.3,-21 10.65,-21.9 l -0.6,-0.7 4.45,-1.65 q -0.6,0.6 -0.55,1.6 0.1,1.35 1.3,1.9 l 1.25,0.15 q 0.65,-0.1 1.15,-0.55 0.8,-0.7 0.7,-1.8 -0.1,-1.1 -1,-1.7 l -0.9,-0.35 6.15,-2.25 1.8,11.3 q 1.25,8.4 1.7,15.1 0.1,0.95 -0.2,1.5 l -1.1,0.8 -1.65,0.4 -1.7,0.35 q -2.05,0.55 -2.7,1.85 -0.45,0.9 -0.15,3.2 0.8,4.6 1,8.95 -2.85,1.45 -6.2,2 L 8.95,18.9 Q 7.45,19.2 4.7,20.2 L 0.45,21.55 -1.15,18.3 M 3.55,8.75 Q 3.2,7.9 2.35,7.9 1.5,7.8 1,8.55 0.8,8.9 0.7,9.7 L 0.65,10.6 1.1,12.15 1.15,12.6 1,13.05 q -0.5,1.15 -0.65,2.1 -0.1,1.25 0.55,2.1 0.5,0.65 1.45,1 L 4.1,18.45 5.4,18.2 6.75,17.4 Q 7.55,16.75 7.85,15.85 8.25,14.7 7.6,13.6 l -0.55,-0.85 -1,-1 Q 5.55,11.4 4.85,11.3 4.4,11.2 4.3,11 L 4.2,10.55 3.85,9.7 3.55,8.75 m 12.1,3.75 q -0.25,-0.65 -0.9,-1.05 l -1.35,-0.3 q -0.85,0.05 -1.45,0.85 -0.55,0.7 -0.45,1.65 0.1,1 0.75,1.5 0.55,0.5 1.4,0.55 0.8,0 1.35,-0.5 0.6,-0.5 0.8,-1.25 L 15.65,12.5 M 12.95,2 16.2,0.8 18.15,0.4 20.1,0.45 q 1.2,-0.2 1.95,-1.3 1.35,-1.75 0.55,-3.7 l -1.15,-1.6 q -0.8,-0.65 -1.8,-0.75 -1,-0.1 -1.9,0.4 -0.9,0.45 -1.35,1.35 l -0.65,1.2 Q 15.4,-3.55 14.2,-3.1 L 12,-1.95 9.8,-0.65 5.25,1.3 Q 2.25,2.45 0.75,3.4 -1.1,4.55 -1.8,4.75 L -2.95,5 Q -3.55,5.2 -3.7,5.65 -3.95,6.4 -3.15,6.9 l 1.45,0.25 q 1.45,-0.1 3.55,-1 L 5.35,4.75 8.3,4 10.7,3.1 12.95,2 m 3.25,-14.5 0.45,0.65 q 0.6,0.55 1.45,0.6 0.85,0.05 1.5,-0.4 0.65,-0.5 0.85,-1.3 0.25,-0.85 -0.1,-1.55 -0.35,-0.7 -1.1,-1.05 l -1.6,-0.2 -1.25,0.9 q -0.5,0.7 -0.45,1.5 l 0.25,0.85 m -48.4,40 0.3,-0.85 0.65,-2 0.4,0.8 1.05,0.65 1.2,-0.1 q 1.25,-0.6 1.15,-2 -0.1,-1.25 -1.1,-1.7 -1,-0.6 -2,0.15 l -0.2,0.15 1.1,-4.35 q 0.85,0.75 2.1,0.7 0.8,0 1.55,-0.5 l 0.6,-0.5 1.85,0.15 2.25,0.25 h 1.2 q 0.7,0 1.1,0.3 l -0.3,0.7 -0.1,0.75 -0.2,0.85 -0.05,1 q 0.15,0.8 0.7,1.25 0.75,0.55 1.4,0.25 0.5,-0.2 0.85,-0.85 0.35,-0.55 0.65,-2.05 l 0.4,-1.65 0.35,-1.45 q 0.1,-0.9 -0.3,-1.45 -0.6,-0.7 -2,-0.8 l -5.2,-0.3 -1.95,0.1 -0.1,-0.2 q -0.2,-0.55 -0.55,-1 l 1.45,-0.05 6.15,0.4 2.4,0.35 2.8,0.05 h 0.45 l -0.25,1.45 -0.25,2.9 q -0.2,1.15 -0.75,2.8 l -1.95,7.4 -0.25,0.5 -0.55,0.15 -4.6,-0.05 -5.15,-0.55 -6.3,-1.65 m 10.9,-0.9 q 0.4,-0.5 0.4,-1.2 0,-0.65 -0.4,-1.2 l -1,-0.75 -1.25,-0.05 q -1.4,0.4 -1.5,1.85 -0.05,0.65 0.3,1.3 0.4,0.55 1.05,0.8 0.65,0.25 1.3,0 l 1.1,-0.75"
         fill="#404d3c"
         fill-rule="evenodd"
         stroke="none"
         id="path3" />
    </g>
    <g
       id="sprite1"
       transform="translate(17.4,15.85)">
      <use
         ffdec:characterId="31"
         height="57.200001"
         transform="matrix(0.5366,0,0,0.5366,-16.6582,-14.546)"
         width="70.75"
         xlink:href="#sprite2"
         id="use3" />
    </g>
    <g
       id="sprite2"
       transform="translate(-8.65,-10.35)">
      <use
         ffdec:characterId="30"
         height="57.200001"
         transform="translate(8.65,10.35)"
         width="70.75"
         xlink:href="#shape1"
         id="use4" />
    </g>
    <g
       id="shape1"
       transform="translate(-8.65,-10.35)">
      <path
         d="m 14.8,41.7 q 0.65,-1.75 2.65,-2.5 1.8,-0.8 3.7,-0.25 1.15,0.45 2.25,1.2 l 0.9,0.4 q 1.65,0.9 2.85,2.5 L 37.8,30.1 q 2.35,-2.8 3.75,-3.95 1.5,-1.15 4.25,-2.4 18.2,-8.85 27.65,-12.6 2.15,-0.8 3.25,-0.8 h 0.8 l 1.9,2.4 -0.2,0.8 q -0.2,1.1 -1.55,3 -5.85,8.25 -18.85,23.8 -1.85,2.35 -3.35,3.5 -1.4,1.15 -4.75,2.75 l -15.15,7.15 q 1.2,1.6 1.75,3.4 l 0.2,1 0.55,2.5 q 0.1,1.95 -1.1,3.55 -1.2,1.65 -3.05,1.9 l -1.3,0.05 q -1.65,0.2 -3.45,-0.65 -1.85,-0.9 -3,-2.6 L 25,60.95 23.8,62.1 q -2.6,2.85 -4.3,3.95 -2.85,1.8 -5.5,1.45 l -1.65,-0.5 -1.2,-0.7 -0.2,-0.2 q -1,-0.85 -1.6,-1.9 L 9.25,64 9.15,63.8 8.75,62.4 q -0.2,-0.8 -0.05,-1.7 0.25,-2.65 2.7,-5.05 1.5,-1.3 4.9,-3.15 L 17.7,51.55 16.05,50 q -1.35,-1.5 -1.8,-3.6 -0.4,-1.85 0.25,-3.45 l 0.3,-1.25"
         fill="#000000"
         fill-opacity="0.372549"
         fill-rule="evenodd"
         stroke="none"
         id="path4" />
    </g>
  </defs>
</svg>
