<?xml version="1.0" encoding="UTF-8" standalone="no"?>
<svg
   ffdec:objectType="frame"
   height="76.068726"
   width="82.874802"
   version="1.1"
   id="svg6"
   xmlns:xlink="http://www.w3.org/1999/xlink"
   xmlns="http://www.w3.org/2000/svg"
   xmlns:svg="http://www.w3.org/2000/svg"
   xmlns:ffdec="https://www.free-decompiler.com/flash">
  <g
     transform="translate(41.964035,33.356)"
     id="g1">
    <use
       ffdec:characterId="17"
       height="119.15"
       id="rarity"
       transform="translate(-58.5,-60.65)"
       width="119.15"
       xlink:href="#sprite0" />
    <use
       ffdec:characterId="807"
       height="76.050003"
       transform="translate(-41.95,-33.35)"
       width="82.849998"
       xlink:href="#shape0"
       id="use1" />
  </g>
  <defs
     id="defs6">
    <g
       id="shape0"
       transform="translate(42.5,34.1)">
      <path
         d="m 21.7,-21.5 q -0.75,-0.65 -0.75,-1.85 l 0.5,-1.25 1.1,-0.75 1.1,-0.05 q 1.2,0.25 1.65,1.45 0.3,1.05 -0.15,1.8 l -0.3,0.35 q -1,1.2 -2.5,0.65 -0.4,-0.15 -0.65,-0.35 m 6.2,-3.15 q -2.45,-1.85 -5.25,-2.7 l -4.45,-0.8 -8.45,0.55 q -4.35,1.05 -7.55,3.5 -3.85,2.9 -5.85,7.55 l 4.7,-0.6 1.55,-0.1 1.75,0.2 0.75,0.3 1.3,-0.3 3.55,-0.7 4.15,-0.8 9,-1.2 8.4,-1.35 -2.3,-2.5 -1.3,-1.05 M 6.85,25.5 l -5.8,0.9 -11.2,2.3 -2.6,0.65 q -1.45,0.25 -2.6,0 -1.85,-0.3 -4.8,-2.55 l -9.35,-7.25 q -1.8,-1.4 -2.25,-2.45 l -0.25,-0.75 -1.65,-0.1 q -3,-0.1 -4.5,-0.75 -1.9,-0.85 -3.1,-2.8 -1.15,-1.9 -1.25,-4.1 -0.2,-3.9 2.45,-8.1 l 1.8,-2.15 q 1.6,-1.2 4,-1.1 l 3,0.3 0.15,-5.1 q 0,-3.05 1.15,-4.15 0.75,-0.75 2.9,-1.15 l 9.05,-1.6 -0.3,-0.4 -1.3,-1.5 -1.15,-1.65 q -0.4,-0.9 -0.4,-3.2 l 0.35,-2.5 q 0.3,-0.95 1.35,-2.3 l 2.35,-2.55 q 4,-3.6 8.4,-3.8 2.4,-0.1 4.55,0.95 1.95,0.95 3,2.55 1.3,-1 2.8,-1.8 6.65,-3.6 15.15,-3.45 3.4,0 5.95,0.8 2.05,0.6 4.55,1.95 2.9,1.55 4.6,3 5.3,4.25 7.35,11.1 1.9,6.3 0.55,13.35 -1.4,7 -5.5,11.6 -2.2,2.5 -5.05,4.05 -2.95,1.6 -6.1,1.95 l -0.65,0.05 -0.25,1.1 -0.2,0.8 0.85,-0.25 6,-0.45 q 2.45,0.5 4.45,2.45 1.85,1.85 2.85,4.4 0.7,2 0.6,3.45 l -0.65,2.5 q -0.95,2.6 -2,3.75 -1.05,1.2 -3.55,2.55 l -2.75,1.3 -5.9,0.75 -2.55,-0.05 -0.15,0.35 q -1.1,2.45 -3.3,3.75 Q 14.8,40.8 13,41.3 7.7,42.65 2.5,41.25 0.65,40.8 -0.35,39.95 -2.2,38.25 -1.85,35 q 0.25,-2.1 1.15,-3.65 0.95,-1.6 2.95,-3.15 1.45,-1.15 3.1,-1.9 1.7,-0.75 3.6,-1.05 l -2.1,0.25 m 27.85,-40.35 -1,-2.65 -0.1,-0.2 -0.9,0.15 -18.75,2.2 -2.25,0.25 -0.45,0.05 0.3,0.1 1.35,0.45 4.55,1.85 h 0.05 l 5.75,3.25 q 2.1,1.35 2.6,2.45 Q 26.3,-5.9 26,-3.6 L 23.55,8.9 V 9 q 3.7,-0.75 6.6,-3.75 2.95,-2.95 4.45,-7.8 1.1,-3.7 0.9,-7.55 -0.15,-2.45 -0.8,-4.75 M 18.75,-5.5 q -2.5,-1.45 -5.7,-2.65 l -6.8,-2.3 -2.8,-0.65 -2.55,0.15 q -11.95,1.35 -23.8,3.6 l -2.2,0.4 -0.25,0.05 V -5.45 -2 l 0.7,0.05 q 3.15,0.25 5.2,1.05 2.75,1.2 3.65,3.15 0.5,1.1 0.6,2.7 0.45,4.25 -0.55,7.05 -0.65,1.75 -1.95,3 -1.4,1.35 -3.05,1.65 l -2.4,0.15 7.2,5.7 q 1.1,0.9 1.8,1 l 1.9,-0.25 6.8,-1.35 6.8,-1.15 3.15,-0.65 3.2,-0.5 3.55,-0.1 3.45,-0.35 0.8,-0.35 0.55,-1.05 Q 18.8,7.55 20.4,-3.15 V -4.1 l -0.95,-0.95 -0.7,-0.45 m -40.3,1.4 0.6,-0.2 0.6,0.25 0.85,0.25 3.35,0.6 3.55,0.55 3.3,0.95 1.6,0.65 0.25,0.2 1.35,-0.3 20.95,-1.95 q 1.4,-0.1 1.65,0.6 l 0.05,0.15 q 0.15,0.55 -0.5,1 l -1.2,0.4 L -5,2.9 l -0.15,0.05 -0.25,0.9 -2.25,7.2 -1.1,3.5 -1.25,3.4 -0.6,1 -1.05,0.15 q -0.6,-0.25 -0.8,-1.1 l 0.1,-1.4 0.3,-1.7 0.55,-4.15 0.15,-1.85 1.35,-5.15 0.3,-0.9 -0.25,-0.1 -4.85,-2.3 -1.05,-0.5 -0.9,-0.35 -1.35,-0.75 -1.4,-0.75 -1.3,-0.6 -1,-0.85 q -0.1,-0.35 0.2,-0.7 l 0.05,-0.05 m 51.9,-10.15 0.1,0.15 q 0.5,1.1 -0.1,2.2 -0.35,0.7 -1.2,1.1 l -1.65,0.15 q -0.8,-0.2 -1.35,-0.9 -0.55,-0.7 -0.55,-1.55 l 0.05,-0.45 0.3,-0.75 0.2,-0.35 q 0.55,-0.7 1.4,-0.9 l 1.3,0.05 0.3,0.15 q 0.85,0.35 1.2,1.1 m -41.9,-1.2 2.15,-0.3 q -0.2,-1.55 0.65,-3.55 1.45,-3.55 4.2,-6.55 l 0.45,-0.45 q -0.65,-0.75 -1.75,-1.2 l -3.25,-0.3 q -2.75,0.5 -5.5,3.35 -1,1 -1.4,1.8 -0.55,1.2 -0.2,2.2 l 0.75,1.05 1,0.95 q 0.95,0.95 1.5,2.35 l 0.3,0.8 1.1,-0.15 m 10.3,32.8 Q -2.4,18 -3.55,17.15 -4.65,16.3 -4.3,14.95 l 0.65,-1.75 0.25,-1.15 1.65,-5.3 0.5,-1.05 q 0.75,-1 2,-0.85 0.55,0.1 0.95,0.55 0.45,0.45 0.5,1 L 1.85,7.95 Q 1.1,9.6 0.9,11.1 l -0.1,1.3 -0.3,1.8 -0.45,1.35 q -0.5,1.35 -1.3,1.8 M -21.15,6.6 -21.25,7.55 V 8.8 l -0.3,1 -0.95,2.5 1.75,-0.15 q 0.9,-0.45 1.4,-2.15 0.55,-2.2 0.4,-4 -0.15,-1.1 -0.55,-2 -0.95,-0.6 -2.25,-1.05 l 0.1,0.25 q 0.4,1.3 0.45,1.9 l 0.05,1.5 M -23.2,6.4 q -0.1,-1.3 -0.6,-2.3 l -0.55,-1.3 -0.2,-0.55 -2.25,-0.4 q 0.85,2.3 0.85,3.4 V 5.8 l -0.2,1.2 -0.25,1.35 -0.3,1.3 -1,2.1 3.1,0.3 0.2,-0.4 1.15,-3 0.05,-1.05 V 6.4 M -28.35,5.45 -28.3,4.9 -28.55,3.9 -28.9,2.9 -29.05,1.65 -30,1.6 -33.8,1.65 -34.95,1.9 q -0.55,0.3 -1.1,1.5 l -0.45,1.1 -0.9,2.85 q -0.1,1.1 0.3,2.1 0.45,1.05 1.35,1.5 l 1.75,0.4 3.6,0.2 1.1,-1.75 q 0.5,-1.25 0.9,-3.85 l 0.05,-0.5 m -7.25,-0.7 0.05,-0.1 q 0.7,-1.1 1.65,-1.45 0.8,-0.3 1.6,0 0.75,0.15 1.1,0.7 0.35,0.5 0.35,1.3 v 0.05 q 0.2,2.5 -1.5,3.9 Q -33.2,9.9 -34.2,9.85 -35,9.8 -35.6,9.15 L -36.35,7.7 q -0.2,-1.45 0.75,-2.95 M 20.75,21.3 q -0.4,1.75 -1.1,2.4 -0.7,0.65 -2.55,0.75 l -6.45,0.65 h 1.15 q 3.15,0.2 4.95,1.85 1.05,0.95 1.45,2.25 0.4,1.4 -0.1,2.6 l 5.85,-0.15 2.35,-0.4 2.45,-1.2 1.95,-1.5 0.95,-1.9 q 0.55,-1.5 0.45,-2.2 -0.1,-0.8 -0.9,-2 l -1.45,-1.7 q -1.35,-1.15 -3.4,-1.3 l -3.65,0.1 -1.6,0.2 -0.35,1.55 M 6.1,5.15 6.8,6.35 7.2,7.9 7.3,8.7 7.5,9.4 7.8,10.35 8.65,8.7 10.55,5.3 q 0.25,-0.6 0.65,-1 0.7,-0.6 1.45,-0.6 0.9,0 1.45,0.7 0.75,0.8 0.4,1.9 l -0.45,1 -2.55,4.4 -1,1.65 -0.75,0.95 -0.6,0.9 -0.7,0.85 q -0.9,1 -1.95,0.7 L 6,16.45 Q 5.45,16.3 5.05,15.8 4.55,15.3 4.15,14.15 L 3.15,10.5 3,9.5 V 8.4 L 3.05,6.5 Q 3.3,5.4 4.2,4.95 5.3,4.4 6.1,5.15 m 6.5,30.8 -2.05,-0.3 Q 9.2,35 9.2,33.45 9.3,32.05 10.55,31.3 l 1.95,-0.3 2,0.35 0.8,0.15 -0.15,-0.55 -0.6,-0.6 Q 13.9,29.95 13.25,29.8 L 12.15,29.65 8.85,30 q -1.45,0.4 -3.4,1.8 l -1.15,0.95 -0.7,1 -0.5,0.95 -0.25,1.3 0.05,0.45 0.45,0.3 3.5,0.55 1.85,0.1 2.75,-0.35 2.15,-0.75 0.7,-0.35 h -1.7"
         fill="#000000"
         fill-rule="evenodd"
         stroke="none"
         id="path1" />
      <path
         d="m 25.15,-22.15 q 0.45,-0.75 0.15,-1.8 -0.45,-1.2 -1.65,-1.45 l -1.1,0.05 -1.1,0.75 -0.5,1.25 q 0,1.2 0.75,1.85 -11,1.85 -19.1,4.25 l -1.55,0.1 -4.7,0.6 q 2,-4.65 5.85,-7.55 3.2,-2.45 7.55,-3.5 l 8.45,-0.55 4.45,0.8 q 2.8,0.85 5.25,2.7 -0.15,0.95 -0.85,1.55 -0.6,0.55 -1.9,0.95 m -13.45,7.05 2.25,-0.25 18.75,-2.2 0.9,-0.15 0.1,0.2 1,2.65 -0.45,0.15 -2.2,0.45 0.1,0.2 0.3,1.55 q 0,0.8 -0.5,1.55 l -1.15,1.2 -0.95,0.5 -1.05,0.1 -1.35,-0.1 Q 26.7,-9.4 26,-10 25.25,-10.7 25.1,-11.3 L 25,-12 q -0.1,-0.5 0.05,-0.9 l 0.2,-0.6 -5.5,0.6 -2.25,0.25 h -0.05 l -4.55,-1.85 -1.35,-0.45 0.05,-0.05 0.1,-0.1 m -37.05,9.65 V -6.9 l 0.25,-0.05 2.2,-0.4 q 11.85,-2.25 23.8,-3.6 l 2.55,-0.15 2.8,0.65 6.8,2.3 q 3.2,1.2 5.7,2.65 0.05,0.75 -0.4,1.45 -0.55,1 -1.55,1.55 L 16.55,-2.35 16.5,-2.5 q -0.25,-0.7 -1.65,-0.6 l -20.95,1.95 -1.35,0.3 -0.25,-0.2 -1.6,-0.65 -3.3,-0.95 -3.55,-0.55 -3.35,-0.6 -0.85,-0.25 -0.6,-0.25 -0.6,0.2 -2.25,-1.1 -0.5,-0.45 -0.85,0.15 -0.2,0.05 m 55.7,-8.8 Q 30,-15 29.15,-15.35 l -0.3,-0.15 -1.3,-0.05 q -0.85,0.2 -1.4,0.9 l -0.2,0.35 -0.3,0.75 -0.05,0.45 q 0,0.85 0.55,1.55 0.55,0.7 1.35,0.9 l 1.65,-0.15 q 0.85,-0.4 1.2,-1.1 0.6,-1.1 0.1,-2.2 l -0.1,-0.15"
         fill="#5b6175"
         fill-rule="evenodd"
         stroke="none"
         id="path2" />
      <path
         d="m 25.15,-22.15 q 1.3,-0.4 1.9,-0.95 0.7,-0.6 0.85,-1.55 l 1.3,1.05 2.3,2.5 -8.4,1.35 -9,1.2 -4.15,0.8 -3.55,0.7 -1.3,0.3 -0.75,-0.3 -1.75,-0.2 q 8.1,-2.4 19.1,-4.25 0.25,0.2 0.65,0.35 1.5,0.55 2.5,-0.65 l 0.3,-0.35 m -7.65,9.5 2.25,-0.25 5.5,-0.6 -0.2,0.6 Q 24.9,-12.5 25,-12 l 0.1,0.7 q 0.15,0.6 0.9,1.3 0.7,0.6 1.45,0.75 l 1.35,0.1 1.05,-0.1 0.95,-0.5 1.15,-1.2 q 0.5,-0.75 0.5,-1.55 l -0.3,-1.55 -0.1,-0.2 2.2,-0.45 0.45,-0.15 q 0.65,2.3 0.8,4.75 0.2,3.85 -0.9,7.55 -1.5,4.85 -4.45,7.8 -2.9,3 -6.6,3.75 V 8.9 L 26,-3.6 q 0.3,-2.3 -0.15,-3.35 -0.5,-1.1 -2.6,-2.45 l -5.75,-3.25 m -42.85,7.2 0.2,-0.05 0.85,-0.15 0.5,0.45 2.25,1.1 -0.05,0.05 q -0.3,0.35 -0.2,0.7 l 1,0.85 1.3,0.6 1.4,0.75 1.35,0.75 0.9,0.35 1.05,0.5 4.85,2.3 0.25,0.1 -0.3,0.9 -1.35,5.15 -0.15,1.85 -0.55,4.15 -0.3,1.7 -0.1,1.4 q 0.2,0.85 0.8,1.1 l 1.05,-0.15 0.6,-1 1.25,-3.4 1.1,-3.5 2.25,-7.2 0.25,-0.9 0.15,-0.05 19.85,-3.85 1.2,-0.4 q 0.65,-0.45 0.5,-1 L 16.8,-2.5 q 1,-0.55 1.55,-1.55 0.45,-0.7 0.4,-1.45 l 0.7,0.45 0.95,0.95 v 0.95 q -1.6,10.7 -4.35,20.9 l -0.55,1.05 -0.8,0.35 -3.45,0.35 -3.55,0.1 -3.2,0.5 -3.15,0.65 -6.8,1.15 -6.8,1.35 -1.9,0.25 q -0.7,-0.1 -1.8,-1 l -7.2,-5.7 2.4,-0.15 q 1.65,-0.3 3.05,-1.65 1.3,-1.25 1.95,-3 1,-2.8 0.55,-7.05 -0.1,-1.6 -0.6,-2.7 -0.9,-1.95 -3.65,-3.15 -2.05,-0.8 -5.2,-1.05 L -25.35,-2 v -3.45 m 24.1,22.8 q 0.8,-0.45 1.3,-1.8 L 0.5,14.2 0.8,12.4 0.9,11.1 Q 1.1,9.6 1.85,7.95 L 2.2,6.4 Q 2.15,5.85 1.7,5.4 1.3,4.95 0.75,4.85 -0.5,4.7 -1.25,5.7 l -0.5,1.05 -1.65,5.3 -0.25,1.15 -0.65,1.75 q -0.35,1.35 0.75,2.2 1.15,0.85 2.3,0.2 M 6.1,5.15 Q 5.3,4.4 4.2,4.95 3.3,5.4 3.05,6.5 L 3,8.4 v 1.1 l 0.15,1 1,3.65 q 0.4,1.15 0.9,1.65 0.4,0.5 0.95,0.65 l 0.5,0.3 q 1.05,0.3 1.95,-0.7 l 0.7,-0.85 0.6,-0.9 0.75,-0.95 1,-1.65 2.55,-4.4 0.45,-1 Q 14.85,5.2 14.1,4.4 13.55,3.7 12.65,3.7 11.9,3.7 11.2,4.3 10.8,4.7 10.55,5.3 L 8.65,8.7 7.8,10.35 7.5,9.4 7.3,8.7 7.2,7.9 6.8,6.35 6.1,5.15"
         fill="#444857"
         fill-rule="evenodd"
         stroke="none"
         id="path3" />
      <path
         d="M -18.95,6 -19.1,6.05 -21.15,6.6 -21.2,5.1 q -0.05,-0.6 -0.45,-1.9 l -0.1,-0.25 q 1.3,0.45 2.25,1.05 0.4,0.9 0.55,2 m -7,-0.2 V 5.25 q 0,-1.1 -0.85,-3.4 l 2.25,0.4 0.2,0.55 0.55,1.3 q 0.5,1 0.6,2.3 L -24.15,6.15 -25.95,5.8 M -36.5,4.5 -36.05,3.4 q 0.55,-1.2 1.1,-1.5 l 1.15,-0.25 3.8,-0.05 0.95,0.05 0.15,1.25 0.35,1 0.25,1 -0.05,0.55 -1.2,-0.1 -1.3,-0.1 V 5.2 q 0,-0.8 -0.35,-1.3 -0.35,-0.55 -1.1,-0.7 -0.8,-0.3 -1.6,0 -0.95,0.35 -1.65,1.45 l -0.05,0.1 -0.9,-0.25 m 49.1,31.45 h 1.7 L 13.6,36.3 11.45,37.05 8.7,37.4 6.85,37.3 3.35,36.75 2.9,36.45 2.85,36 3.1,34.7 3.6,33.75 4.3,32.75 5.45,31.8 Q 7.4,30.4 8.85,30 l 3.3,-0.35 1.1,0.15 q 0.65,0.15 1.3,0.55 l 0.6,0.6 0.15,0.55 -0.8,-0.15 -2,-0.35 -1.95,0.3 q -1.25,0.75 -1.35,2.15 0,1.55 1.35,2.2 l 2.05,0.3"
         fill="#e9e9e9"
         fill-rule="evenodd"
         stroke="none"
         id="path4" />
      <path
         d="M -21.15,6.6 -19.1,6.05 -18.95,6 q 0.15,1.8 -0.4,4 -0.5,1.7 -1.4,2.15 l -1.75,0.15 0.95,-2.5 0.3,-1 V 7.55 l 0.1,-0.95 m -4.8,-0.8 1.8,0.35 0.95,0.25 v 1.2 l -0.05,1.05 -1.15,3 -0.2,0.4 -3.1,-0.3 1,-2.1 0.3,-1.3 0.25,-1.35 0.2,-1.2 m -10.55,-1.3 0.9,0.25 q -0.95,1.5 -0.75,2.95 l 0.75,1.45 q 0.6,0.65 1.4,0.7 1,0.05 1.85,-0.7 1.7,-1.4 1.5,-3.9 l 1.3,0.1 1.2,0.1 -0.05,0.5 q -0.4,2.6 -0.9,3.85 l -1.1,1.75 -3.6,-0.2 -1.75,-0.4 q -0.9,-0.45 -1.35,-1.5 -0.4,-1 -0.3,-2.1 l 0.9,-2.85"
         fill="#747474"
         fill-rule="evenodd"
         stroke="none"
         id="path5" />
    </g>
    <g
       id="sprite1"
       transform="translate(17.4,15.85)">
      <use
         ffdec:characterId="31"
         height="57.200001"
         transform="matrix(0.5366,0,0,0.5366,-16.6582,-14.546)"
         width="70.75"
         xlink:href="#sprite2"
         id="use5" />
    </g>
    <g
       id="sprite2"
       transform="translate(-8.65,-10.35)">
      <use
         ffdec:characterId="30"
         height="57.200001"
         transform="translate(8.65,10.35)"
         width="70.75"
         xlink:href="#shape1"
         id="use6" />
    </g>
    <g
       id="shape1"
       transform="translate(-8.65,-10.35)">
      <path
         d="m 14.8,41.7 q 0.65,-1.75 2.65,-2.5 1.8,-0.8 3.7,-0.25 1.15,0.45 2.25,1.2 l 0.9,0.4 q 1.65,0.9 2.85,2.5 L 37.8,30.1 q 2.35,-2.8 3.75,-3.95 1.5,-1.15 4.25,-2.4 18.2,-8.85 27.65,-12.6 2.15,-0.8 3.25,-0.8 h 0.8 l 1.9,2.4 -0.2,0.8 q -0.2,1.1 -1.55,3 -5.85,8.25 -18.85,23.8 -1.85,2.35 -3.35,3.5 -1.4,1.15 -4.75,2.75 l -15.15,7.15 q 1.2,1.6 1.75,3.4 l 0.2,1 0.55,2.5 q 0.1,1.95 -1.1,3.55 -1.2,1.65 -3.05,1.9 l -1.3,0.05 q -1.65,0.2 -3.45,-0.65 -1.85,-0.9 -3,-2.6 L 25,60.95 23.8,62.1 q -2.6,2.85 -4.3,3.95 -2.85,1.8 -5.5,1.45 l -1.65,-0.5 -1.2,-0.7 -0.2,-0.2 q -1,-0.85 -1.6,-1.9 L 9.25,64 9.15,63.8 8.75,62.4 q -0.2,-0.8 -0.05,-1.7 0.25,-2.65 2.7,-5.05 1.5,-1.3 4.9,-3.15 L 17.7,51.55 16.05,50 q -1.35,-1.5 -1.8,-3.6 -0.4,-1.85 0.25,-3.45 l 0.3,-1.25"
         fill="#000000"
         fill-opacity="0.372549"
         fill-rule="evenodd"
         stroke="none"
         id="path6" />
    </g>
  </defs>
</svg>
