<?xml version="1.0" encoding="UTF-8" standalone="no"?>
<svg
   ffdec:objectType="frame"
   height="55.952263"
   width="64.288506"
   version="1.1"
   id="svg9"
   xmlns:xlink="http://www.w3.org/1999/xlink"
   xmlns="http://www.w3.org/2000/svg"
   xmlns:svg="http://www.w3.org/2000/svg"
   xmlns:ffdec="https://www.free-decompiler.com/flash">
  <g
     transform="translate(33.311686,26.396362)"
     id="g1">
    <use
       ffdec:characterId="17"
       height="119.15"
       id="rarity"
       transform="translate(-58.5,-60.65)"
       width="119.15"
       xlink:href="#sprite0" />
    <use
       ffdec:characterId="44"
       height="59.200001"
       transform="matrix(0.946,0,0,0.946,-33.3,-26.4)"
       width="67.949997"
       xlink:href="#sprite1"
       id="use1" />
  </g>
  <defs
     id="defs9">
    <g
       id="sprite1">
      <use
         ffdec:characterId="43"
         height="59.200001"
         width="67.949997"
         xlink:href="#shape0"
         id="use2" />
    </g>
    <g
       id="shape0">
      <path
         d="m 24.95,0.1 q 3.35,-0.25 11.4,0.15 l 12.6,1.3 q 4.6,0.9 7.5,2.45 2.2,1.2 2.55,2.6 0.25,0.7 -0.1,2.2 l -1.2,5.35 -0.05,0.35 q 0.95,0.45 2.1,1.45 4.6,4.1 6.75,10.1 2.1,5.95 1.15,11.75 -0.9,5.75 -4.65,10.45 -3.6,4.6 -8.95,7 -4.45,2 -12.35,3.1 l -13.3,0.8 Q 21.05,58.7 15.5,55.75 12.35,54.05 8,50.4 4.9,47.8 3.45,45.85 0.95,42.35 0.2,37.6 -0.75,30.85 2.55,24.5 5.5,18.9 10.75,15.6 L 10,14.5 Q 9.25,13.15 8.9,9.7 8.5,6.6 9.05,5.4 9.7,4.05 11.75,3.05 q 1.95,-1 5.8,-1.85 l 7.4,-1.1 M 27.8,11.6 31.45,11.25 41.55,10.8 53.4,10.75 54,10.8 54.05,10.55 Q 54.15,9.6 53.9,9.15 L 52.95,8.45 Q 51.1,7.75 47.75,7.35 L 35.05,6.3 32.2,6.2 q -6.85,-0.1 -12.45,1 l -2.7,0.65 q -1.9,0.5 -2.2,1.5 -0.25,0.75 0.35,1.9 l 0.7,1.3 1.5,-0.2 1.85,0.1 q 0.85,0.2 1,0.85 0.1,0.55 -0.45,0.95 l -1,0.35 -1.7,0.25 -0.75,-0.05 0.6,0.9 q 0.2,0.85 -0.4,1.75 l -1.3,1.45 q -5.7,4.7 -7.85,9.6 -1.3,3 -1.35,6.2 0,3.45 1.45,6.35 1.8,3.4 6.3,6.65 3.75,2.65 7.4,4 4.95,1.75 12,1.65 L 37.7,53.1 38,53.05 q 6,-0.55 10.15,-1.8 5.3,-1.65 8.7,-4.65 4,-3.75 5.35,-9.05 1.1,-4.55 -0.25,-9.2 -1.4,-4.85 -5,-7.9 L 55.7,19.4 54.55,18.25 q -1.3,-1.6 -0.65,-3 l 0.25,-0.35 -0.05,-0.3 -4.3,-0.05 -7.65,-0.6 -8.1,-0.55 q -4.55,-0.2 -8.1,0.1 L 25.1,13.45 q -0.6,-0.2 -0.6,-0.65 -0.05,-0.25 0.2,-0.45 0.25,-0.2 0.65,-0.3 L 27.8,11.6 m 4.65,39.15 -8.15,-0.3 -3,-0.45 -2.6,-1.35 -4.9,-3.2 Q 11.2,43.5 9.6,41.45 8.15,39.55 7.95,37.85 7.85,36.5 8.6,34.3 L 9.7,31.8 Q 8.8,30.7 8.75,29.65 8.7,28.4 9.65,27.3 l 1.85,-1.8 1.5,-1.15 0.9,-1 Q 15.15,22.25 16,22.4 L 17.15,23 17.9,23.75 18.2,21 q 0.2,-1.3 0.8,-1.6 l 1.15,-0.2 q 2.05,0.15 5.25,1.85 0.65,-1.1 1.7,-2 0.75,-0.65 1.45,-0.8 l 0.15,-0.15 1.95,-0.2 q 1,0.2 1.75,0.95 l 0.9,1.55 q 0.65,1.5 0.7,3.05 l 0.9,0.3 0.6,0.5 q 0.75,-1 2.15,-1.4 l 3,-0.15 0.35,0.05 0.05,-0.5 q 0.15,-0.95 1,-1.9 1.1,-1.15 2.75,-1.65 l 3.35,-0.15 q 2.15,0.4 2.8,1.85 l 0.3,0.75 0.05,0.45 0.25,0.05 h 0.15 l 2.35,0.8 q 2.35,1.1 4.4,3.05 l 1.4,1.8 0.95,2.55 0.55,2.55 q 0.35,2.2 0.2,4.3 l -0.5,2.7 q -1.3,3.85 -6.9,7.1 -1.8,1.1 -3,0.6 L 50.5,46.75 49.85,46.6 q -0.5,0.15 -0.55,0.85 l -0.1,1.05 q -0.2,0.7 -1,0.95 l -0.6,0.05 -1.25,0.6 -5.95,0.65 -2.35,0.05 -5.6,-0.05 M 45.85,33.5 45.7,33.45 q -1.05,-0.2 -1.35,-1 v -0.2 -0.2 -0.4 l 0.5,-0.55 h 0.1 l 1,0.05 1,0.2 h 0.35 l 1.2,-0.2 0.6,-0.4 1.25,-1.4 -0.1,-0.25 -1,-0.75 -0.7,-0.75 -0.3,-0.35 -0.1,-0.2 V 26.4 L 48.4,25.75 49.1,24.4 49.2,23.65 48.7,22.7 48.45,21.95 47.65,21.7 H 47.3 q -1.45,0.05 -2.25,0.5 l -0.65,0.6 -0.65,1.55 -0.25,0.2 0.05,0.4 q 0,0.7 -0.5,1.05 l -1,0.15 -1.05,-0.2 q -1.65,-0.4 -2.7,0.35 l 0.05,0.75 -0.4,2.4 -0.3,0.7 -0.05,0.2 -0.95,1.05 -0.5,0.2 -0.15,0.1 -0.55,0.05 Q 35.1,31.55 35,30.35 l -0.2,-1.2 Q 34.2,27.25 33.2,27 l -1.85,0.15 q -0.6,0 -1.1,-0.4 -0.55,-0.4 -0.75,-0.95 -0.2,-0.6 0,-1.2 0.2,-0.6 0.7,-0.9 l -0.5,-1.75 -0.1,-0.45 -0.2,0.25 -0.1,0.1 -1,0.9 -0.15,0.4 0.1,0.45 q -0.05,0.55 -0.5,0.9 l -0.25,0.15 -0.05,0.75 -0.75,0.5 q -0.6,0.15 -1.75,-0.65 L 24,24.65 q -1.05,-0.65 -2,-1 l -0.2,2.05 q -0.25,1 -0.95,1.4 l -0.25,0.15 -0.3,0.15 h -0.35 l -0.85,0.4 -1.25,-0.35 -0.55,-0.5 -0.65,-0.3 H 16.6 l -0.25,0.05 -0.65,0.5 -1.4,1.85 -0.9,1.25 0.35,0.6 -0.15,1.75 q 0.4,0.25 0.85,0.8 l 0.35,0.4 0.05,-0.1 Q 16.9,32.6 18.8,32.8 l 1.45,0.3 q 0.75,0.25 1.35,0.75 0.65,-0.9 1.75,-1.6 l 0.2,-0.1 q 0.05,-0.25 0.25,-0.4 l 1.65,0.05 0.1,0.1 q 0.6,0.55 0.9,1.7 l 0.25,1.9 0.35,1.65 q 0.3,1.55 -0.05,4.1 -0.15,0.75 -0.5,0.9 H 25.95 L 25.85,42.1 25.3,41.55 q -0.15,-0.45 -0.15,-1.4 -0.05,-1.2 -0.85,-3.4 l -0.25,-1 L 24,35.7 v 0.05 l -0.3,0.5 -1.1,0.95 -0.1,0.05 -0.8,0.25 q -0.6,-0.15 -1.45,-0.95 l -0.2,-0.15 -0.85,-0.2 -1.2,0.2 -0.65,0.2 -1.8,0.8 -0.2,0.1 -0.55,0.2 Q 14,37.9 13.45,37.3 L 12.8,36.4 h -0.6 -0.25 l -0.1,0.15 q -0.4,1 -0.3,1.55 0.2,0.65 0.75,1.25 l 2.85,2.65 2.5,2 1.05,0.7 q 1.2,0.85 2.2,1.3 1.9,0.9 6.25,1.7 l 3.35,0.45 2.85,-0.15 2.7,0.1 2.65,0.1 2.65,-0.25 3.8,-0.75 0.3,-0.05 0.1,-0.2 0.55,-1.15 q 0.15,-0.5 -0.05,-0.85 L 45.6,44.65 45.2,44.3 q -0.7,-0.55 -0.6,-1.7 l 0.15,-0.65 -0.05,-0.1 V 40.8 q -0.1,-0.5 -0.9,-1.05 -1.5,-1.2 -2.45,-1.1 -0.65,0.05 -1.5,0.75 -0.9,0.8 -1,1.6 l 0.05,1.1 -0.4,0.95 Q 37.85,43.3 37.35,42.7 37,42.35 36.9,41.55 36.75,40.2 37.3,38.95 l 0.1,-0.2 q 0.55,-1.35 1.8,-2.1 1.25,-0.7 2.8,-0.7 1.5,0.05 2.85,0.75 1.45,0.75 2.15,2 0.85,1.4 0.4,2.75 l -0.3,0.7 0.1,0.15 1.45,1.05 0.2,-0.05 0.4,-0.1 h 0.9 l 0.85,0.2 0.85,0.3 0.95,-0.35 q 4.5,-2.85 5.35,-5.9 0.45,-1.85 0,-4.1 L 58.05,32.9 58,32.8 57.3,30.5 56.7,29.05 55.8,27.85 Q 54.45,26.5 52.75,25.8 l 0.05,0.3 0.3,0.45 q 0.3,0.45 0.4,1.25 v 1.55 l -0.35,1.4 -0.5,1.05 -0.75,0.75 -0.8,0.6 -1.15,0.5 -2.6,0.05 -0.85,-0.2 h -0.65"
         fill="#000000"
         fill-rule="evenodd"
         stroke="none"
         id="path2" />
      <path
         d="m 37.6,30.35 0.05,-0.2 0.3,-0.7 0.4,-2.4 -0.05,-0.75 q 1.05,-0.75 2.7,-0.35 l 1.05,0.2 1,-0.15 q 0.5,-0.35 0.5,-1.05 l -0.05,-0.4 0.25,-0.2 0.65,-1.55 0.65,-0.6 q 0.8,-0.45 2.25,-0.5 h 0.35 l 0.8,0.25 0.25,0.75 0.5,0.95 -0.1,0.75 -0.7,1.35 -0.25,0.65 v 0.65 l 0.1,0.2 0.3,0.35 0.7,0.75 1,0.75 0.1,0.25 -1.25,1.4 -0.6,0.4 -1.2,0.2 h -0.35 l -1,-0.2 -1,-0.05 h -0.1 l -0.5,0.55 v 0.4 0.2 0.2 q 0.3,0.8 1.35,1 l 0.15,0.05 -0.3,0.1 -1.05,0.3 -0.75,0.05 Q 41.3,34.05 39.85,33 l -1.25,-1.3 -1,-1.35 m 20.45,2.55 0.1,0.45 q 0.45,2.25 0,4.1 -0.85,3.05 -5.35,5.9 L 51.85,43.7 51,43.4 50.15,43.2 h -0.9 l -0.4,0.1 -0.35,-0.6 q -0.25,-0.5 -0.35,-2 l 0.05,-1.3 q 0.15,-0.65 0.6,-1.3 l 0.55,-1 1,-1.35 1.4,-0.95 0.25,-0.15 q 1,-0.55 1.9,-0.9 l 1.4,-0.45 0.75,-0.4 1.5,-0.15 0.5,0.15 M 37.3,38.95 q -0.55,1.25 -0.4,2.6 0.1,0.8 0.45,1.15 0.5,0.6 1.15,0.35 L 38.9,42.1 38.85,41 q 0.1,-0.8 1,-1.6 0.85,-0.7 1.5,-0.75 0.95,-0.1 2.45,1.1 0.8,0.55 0.9,1.05 v 1.05 l 0.05,0.1 -0.15,0.65 q -0.1,1.15 0.6,1.7 l 0.4,0.35 0.45,0.3 q 0.2,0.35 0.05,0.85 l -0.55,1.15 -0.1,0.2 -0.3,0.05 -3.8,0.75 -1.05,-0.35 -1.25,-1.1 -1.1,-1.25 -0.9,-0.9 q -0.7,-0.9 -0.65,-3.2 l 0.05,-0.9 q 0.2,-0.75 0.85,-1.3 M 18.7,44.7 17.65,44 15.15,42 12.3,39.35 q -0.55,-0.6 -0.75,-1.25 -0.1,-0.55 0.3,-1.55 l 0.1,-0.15 h 0.25 0.6 l 0.65,0.9 q 0.55,0.6 1.35,0.4 l 0.55,-0.2 0.2,-0.1 1.8,-0.8 0.65,-0.2 1.2,-0.2 0.85,0.2 0.2,0.15 q 0.85,0.8 1.45,0.95 l 0.8,-0.25 0.1,-0.05 1.1,-0.95 0.3,-0.5 h 0.05 l 0.25,1 q 0.8,2.2 0.85,3.4 0,0.95 0.15,1.4 l 0.55,0.55 0.1,0.05 -0.75,0.8 Q 23.95,44 22.8,44.4 l -2.6,0.35 -1.5,-0.05 m 1.6,-17.3 0.3,-0.15 0.25,-0.15 q 0.7,-0.4 0.95,-1.4 L 22,23.65 q 0.95,0.35 2,1 l 0.95,0.6 q 1.15,0.8 1.75,0.65 l 0.75,-0.5 q 0.35,0.9 0.25,2.3 0,2.1 -1.15,2.9 L 25.4,31.15 24.15,31.2 22.55,30.85 22,30.6 Q 20.95,29.95 20.55,28.9 L 20.3,27.4"
         fill="#9fad9d"
         fill-rule="evenodd"
         stroke="none"
         id="path3" />
      <path
         d="m 51.25,21.15 0.3,0.5 -0.25,-0.05 -0.05,-0.45"
         fill="#717b6f"
         fill-rule="evenodd"
         stroke="none"
         id="path4" />
      <path
         d="m 37.6,30.35 1,1.35 1.25,1.3 q 1.45,1.05 3.9,0.95 l 0.75,-0.05 1.05,-0.3 0.3,-0.1 h 0.65 l 0.85,0.2 2.6,-0.05 1.15,-0.5 0.8,-0.6 0.75,-0.75 0.5,-1.05 0.35,-1.4 V 27.8 Q 53.4,27 53.1,26.55 L 52.8,26.1 52.75,25.8 q 1.7,0.7 3.05,2.05 l 0.9,1.2 0.6,1.45 0.7,2.3 0.05,0.1 -0.5,-0.15 -1.5,0.15 -0.75,0.4 -1.4,0.45 Q 53,34.1 52,34.65 l -0.25,0.15 -1.4,0.95 -1,1.35 -0.55,1 q -0.45,0.65 -0.6,1.3 l -0.05,1.3 q 0.1,1.5 0.35,2 l 0.35,0.6 -0.2,0.05 -1.45,-1.05 -0.1,-0.15 0.3,-0.7 Q 47.85,40.1 47,38.7 46.3,37.45 44.85,36.7 43.5,36 42,35.95 q -1.55,0 -2.8,0.7 -1.25,0.75 -1.8,2.1 l -0.1,0.2 q -0.65,0.55 -0.85,1.3 l -0.05,0.9 q -0.05,2.3 0.65,3.2 l 0.9,0.9 1.1,1.25 1.25,1.1 1.05,0.35 L 38.7,48.2 36.05,48.1 33.35,48 30.5,48.15 27.15,47.7 Q 22.8,46.9 20.9,46 q -1,-0.45 -2.2,-1.3 l 1.5,0.05 2.6,-0.35 q 1.15,-0.4 2.4,-1.45 l 0.75,-0.8 H 26.5 Q 26.85,42 27,41.25 27.35,38.7 27.05,37.15 L 26.7,35.5 26.45,33.6 q -0.3,-1.15 -0.9,-1.7 l -0.1,-0.1 -1.65,-0.05 q -0.2,0.15 -0.25,0.4 l -0.2,0.1 q -1.1,0.7 -1.75,1.6 Q 21,33.35 20.25,33.1 L 18.8,32.8 q -1.9,-0.2 -3.95,0.95 l -0.05,0.1 -0.35,-0.4 Q 14,32.9 13.6,32.65 l 0.15,-1.75 -0.35,-0.6 0.9,-1.25 1.4,-1.85 0.65,-0.5 0.25,-0.05 h 0.05 l 0.65,0.3 0.55,0.5 1.25,0.35 0.85,-0.4 h 0.35 l 0.25,1.5 q 0.4,1.05 1.45,1.7 l 0.55,0.25 1.6,0.35 1.25,-0.05 1.15,-0.55 q 1.15,-0.8 1.15,-2.9 0.1,-1.4 -0.25,-2.3 l 0.05,-0.75 0.25,-0.15 q 0.45,-0.35 0.5,-0.9 l -0.1,-0.45 0.15,-0.4 1,-0.9 0.4,0.1 0.5,1.75 q -0.5,0.3 -0.7,0.9 -0.2,0.6 0,1.2 0.2,0.55 0.75,0.95 0.5,0.4 1.1,0.4 L 33.2,27 q 1,0.25 1.6,2.15 l 0.2,1.2 q 0.1,1.2 0.45,1.4 L 36,31.7 l 0.15,-0.1 0.5,-0.2 0.95,-1.05"
         fill="#b3c2b0"
         fill-rule="evenodd"
         stroke="none"
         id="path5" />
      <path
         d="M 35.05,6.3 35.15,6.85 34.8,8.2 33.9,9 q -1.65,1.3 -5.6,2.45 l -0.5,0.15 -2.45,0.45 q -0.4,0.1 -0.65,0.3 L 23.85,12.5 21.1,12.6 Q 19.8,12.5 19,11.9 17.95,11.05 17.85,9.9 17.75,8.65 18.6,7.85 18.95,7.5 19.75,7.2 25.35,6.1 32.2,6.2 l 2.85,0.1 m 2.65,46.8 -4.5,0.25 q -1,-0.25 -1.6,-0.8 l -0.3,-0.6 q -0.05,-0.3 0.25,-0.6 0.3,-0.35 0.9,-0.6 l 5.6,0.05 0.3,0.65 q 0.15,0.9 -0.5,1.5 L 37.7,53.1 M 24.35,19.05 23.2,19.25 22.1,19.1 q -0.8,-0.3 -1.15,-1.2 -0.3,-0.9 0.2,-1.6 0.35,-0.45 1.3,-0.85 l 2.45,-0.6 1.85,0.3 q 0.95,0.6 0.85,1.65 0.05,0.95 -0.8,1.55 -0.55,0.35 -2.45,0.7"
         fill="#ffffff"
         fill-rule="evenodd"
         stroke="none"
         id="path6" />
      <path
         d="M 24,35.75 V 35.7 l 0.05,0.05 H 24"
         fill="#808e7d"
         fill-rule="evenodd"
         stroke="none"
         id="path7" />
      <path
         d="m 35.05,6.3 12.7,1.05 q 3.35,0.4 5.2,1.1 l 0.95,0.7 q 0.25,0.45 0.15,1.4 L 54,10.8 53.4,10.75 41.55,10.8 31.45,11.25 27.8,11.6 28.3,11.45 Q 32.25,10.3 33.9,9 L 34.8,8.2 35.15,6.85 35.05,6.3 M 24.7,12.35 q -0.25,0.2 -0.2,0.45 0,0.45 0.6,0.65 l 0.85,0.05 q 3.55,-0.3 8.1,-0.1 l 8.1,0.55 7.65,0.6 4.3,0.05 0.05,0.3 -0.25,0.35 q -0.65,1.4 0.65,3 l 1.15,1.15 1.25,1.05 q 3.6,3.05 5,7.9 1.35,4.65 0.25,9.2 -1.35,5.3 -5.35,9.05 -3.4,3 -8.7,4.65 Q 44,52.5 38,53.05 l -0.3,0.05 0.15,-0.15 q 0.65,-0.6 0.5,-1.5 l -0.3,-0.65 2.35,-0.05 5.95,-0.65 1.25,-0.6 0.6,-0.05 q 0.8,-0.25 1,-0.95 l 0.1,-1.05 q 0.05,-0.7 0.55,-0.85 l 0.65,0.15 0.65,0.35 q 1.2,0.5 3,-0.6 5.6,-3.25 6.9,-7.1 l 0.5,-2.7 q 0.15,-2.1 -0.2,-4.3 L 60.8,29.85 59.85,27.3 58.45,25.5 q -2.05,-1.95 -4.4,-3.05 l -2.35,-0.8 h -0.15 l -0.3,-0.5 -0.3,-0.75 Q 50.3,18.95 48.15,18.55 L 44.8,18.7 q -1.65,0.5 -2.75,1.65 -0.85,0.95 -1,1.9 l -0.05,0.5 -0.35,-0.05 -3,0.15 q -1.4,0.4 -2.15,1.4 L 34.9,23.75 34,23.45 Q 33.95,21.9 33.3,20.4 L 32.4,18.85 Q 31.65,18.1 30.65,17.9 l -1.95,0.2 -0.15,0.15 q -0.7,0.15 -1.45,0.8 -1.05,0.9 -1.7,2 -3.2,-1.7 -5.25,-1.85 L 19,19.4 Q 18.4,19.7 18.2,21 L 17.9,23.75 17.15,23 16,22.4 q -0.85,-0.15 -2.1,0.95 l -0.9,1 -1.5,1.15 -1.85,1.8 Q 8.7,28.4 8.75,29.65 8.8,30.7 9.7,31.8 l -1.1,2.5 q -0.75,2.2 -0.65,3.55 0.2,1.7 1.65,3.6 1.6,2.05 4.2,4 l 4.9,3.2 2.6,1.35 3,0.45 8.15,0.3 q -0.6,0.25 -0.9,0.6 -0.3,0.3 -0.25,0.6 l 0.3,0.6 q 0.6,0.55 1.6,0.8 -7.05,0.1 -12,-1.65 -3.65,-1.35 -7.4,-4 Q 9.3,44.45 7.5,41.05 6.05,38.15 6.05,34.7 6.1,31.5 7.4,28.5 9.55,23.6 15.25,18.9 l 1.3,-1.45 q 0.6,-0.9 0.4,-1.75 l -0.6,-0.9 0.75,0.05 1.7,-0.25 1,-0.35 q 0.55,-0.4 0.45,-0.95 -0.15,-0.65 -1,-0.85 l -1.85,-0.1 -1.5,0.2 -0.7,-1.3 q -0.6,-1.15 -0.35,-1.9 0.3,-1 2.2,-1.5 l 2.7,-0.65 q -0.8,0.3 -1.15,0.65 -0.85,0.8 -0.75,2.05 0.1,1.15 1.15,2 0.8,0.6 2.1,0.7 l 2.75,-0.1 0.85,-0.15 m -0.35,6.7 q 1.9,-0.35 2.45,-0.7 0.85,-0.6 0.8,-1.55 0.1,-1.05 -0.85,-1.65 l -1.85,-0.3 -2.45,0.6 q -0.95,0.4 -1.3,0.85 -0.5,0.7 -0.2,1.6 0.35,0.9 1.15,1.2 l 1.1,0.15 1.15,-0.2"
         fill="#ffffff"
         fill-opacity="0"
         fill-rule="evenodd"
         stroke="none"
         id="path8" />
    </g>
    <g
       id="sprite2"
       transform="translate(17.4,15.85)">
      <use
         ffdec:characterId="31"
         height="57.200001"
         transform="matrix(0.5366,0,0,0.5366,-16.6582,-14.546)"
         width="70.75"
         xlink:href="#sprite3"
         id="use8" />
    </g>
    <g
       id="sprite3"
       transform="translate(-8.65,-10.35)">
      <use
         ffdec:characterId="30"
         height="57.200001"
         transform="translate(8.65,10.35)"
         width="70.75"
         xlink:href="#shape1"
         id="use9" />
    </g>
    <g
       id="shape1"
       transform="translate(-8.65,-10.35)">
      <path
         d="m 14.8,41.7 q 0.65,-1.75 2.65,-2.5 1.8,-0.8 3.7,-0.25 1.15,0.45 2.25,1.2 l 0.9,0.4 q 1.65,0.9 2.85,2.5 L 37.8,30.1 q 2.35,-2.8 3.75,-3.95 1.5,-1.15 4.25,-2.4 18.2,-8.85 27.65,-12.6 2.15,-0.8 3.25,-0.8 h 0.8 l 1.9,2.4 -0.2,0.8 q -0.2,1.1 -1.55,3 -5.85,8.25 -18.85,23.8 -1.85,2.35 -3.35,3.5 -1.4,1.15 -4.75,2.75 l -15.15,7.15 q 1.2,1.6 1.75,3.4 l 0.2,1 0.55,2.5 q 0.1,1.95 -1.1,3.55 -1.2,1.65 -3.05,1.9 l -1.3,0.05 q -1.65,0.2 -3.45,-0.65 -1.85,-0.9 -3,-2.6 L 25,60.95 23.8,62.1 q -2.6,2.85 -4.3,3.95 -2.85,1.8 -5.5,1.45 l -1.65,-0.5 -1.2,-0.7 -0.2,-0.2 q -1,-0.85 -1.6,-1.9 L 9.25,64 9.15,63.8 8.75,62.4 q -0.2,-0.8 -0.05,-1.7 0.25,-2.65 2.7,-5.05 1.5,-1.3 4.9,-3.15 L 17.7,51.55 16.05,50 q -1.35,-1.5 -1.8,-3.6 -0.4,-1.85 0.25,-3.45 l 0.3,-1.25"
         fill="#000000"
         fill-opacity="0.372549"
         fill-rule="evenodd"
         stroke="none"
         id="path9" />
    </g>
  </defs>
</svg>
