<?xml version="1.0" encoding="UTF-8" standalone="no"?>
<svg
   ffdec:objectType="frame"
   height="53.599998"
   width="82.921051"
   version="1.1"
   id="svg5"
   sodipodi:docname="ITEM Wood Hat.svg"
   xmlns:inkscape="http://www.inkscape.org/namespaces/inkscape"
   xmlns:sodipodi="http://sodipodi.sourceforge.net/DTD/sodipodi-0.dtd"
   xmlns:xlink="http://www.w3.org/1999/xlink"
   xmlns="http://www.w3.org/2000/svg"
   xmlns:svg="http://www.w3.org/2000/svg"
   xmlns:ffdec="https://www.free-decompiler.com/flash">
  <sodipodi:namedview
     id="namedview5"
     pagecolor="#ffffff"
     bordercolor="#000000"
     borderopacity="0.25"
     inkscape:showpageshadow="2"
     inkscape:pageopacity="0.0"
     inkscape:pagecheckerboard="0"
     inkscape:deskcolor="#d1d1d1"
     fit-margin-top="5"
     fit-margin-left="5"
     fit-margin-right="5"
     fit-margin-bottom="5" />
  <g
     transform="translate(42.521053,29.8)"
     id="g1">
    <use
       ffdec:characterId="17"
       height="119.15"
       id="rarity"
       transform="translate(-58.5,-60.65)"
       width="119.15"
       xlink:href="#sprite0" />
    <use
       ffdec:characterId="1159"
       height="53.599998"
       transform="translate(-42.5,-29.8)"
       width="82.900002"
       xlink:href="#shape0"
       id="use1" />
  </g>
  <defs
     id="defs5">
    <g
       id="shape0"
       transform="translate(41.2,27.9)">
      <path
         d="M 40.85,-0.95 40.5,1.3 q -0.95,8.1 -1.3,16.35 -0.15,2.95 -3.3,2.4 -4.8,-0.8 -9.65,-0.05 l -11.2,1.1 -19.6,1.55 -19.45,1.95 -14.75,1.1 q -0.55,0 -0.85,-0.5 -1.45,-2.55 -1,-5.65 l 0.05,-0.8 -0.25,-1.15 -0.15,-3.6 -0.1,-3.75 q 0,-3.2 -0.15,-6.35 -0.2,-3.05 1.5,-5.45 0.95,-1.3 2.6,-1.5 V -3.2 -3.85 -4.05 -5.5 -5.85 q 0.05,-0.75 0.6,-1.3 1.15,-1.25 2.95,-1.25 l 1.2,-0.05 6.9,0.1 q 0.05,-2.1 1.75,-3.35 1.1,-0.8 2.45,-1.05 l 12.15,-1.9 0.1,-0.3 0.3,-1.05 q 0.25,-1.55 0.9,-2.95 l -1.9,-1.85 q -1.2,1.4 -2.55,2.55 l -0.8,0.05 q -2.3,-1.15 -1.05,-3.55 1.8,-3.3 4.3,-5.9 l 0.5,-0.25 q 3.8,1 1.6,4.4 l -0.05,0.1 q 2.15,1.3 3.2,3.7 0.5,1.2 -0.15,2.3 l -0.05,0.35 -0.05,0.5 -0.25,0.65 -0.1,0.15 0.1,0.55 0.1,-0.05 8.85,-1.15 q 14,-1.9 28.05,-2.75 4.2,0.15 3.35,4.1 -0.3,1.45 -0.45,2.9 l -0.75,6.4 3.85,-0.7 q 1.7,-0.4 2.4,1.15 l 0.55,1.8 q 0.2,1.15 -0.05,2.4 v 0.15 m -16.2,-8.9 q 0.2,-0.85 1.75,-1.35 l 1.55,1.05 q 0.8,1.05 -1.15,2.35 -0.8,0.6 -1.45,-0.2 -0.9,-1.1 -0.7,-1.85 m 6.1,-0.65 q 0.3,-1.65 0.25,-3.35 -13.45,0.3 -27.15,2.6 l -7.7,1.05 -8.75,1.5 -3.15,0.7 3.15,0.2 12.55,0.65 6.9,0.25 13.45,0.85 q 1.95,0.25 3.95,0 l 4.05,0.1 2.25,0.25 Q 30.1,-7.65 30.6,-9.8 l 0.15,-0.7 m 4.2,13.25 0.25,-1.8 0.2,-1.35 -1.65,-0.2 -3.1,-0.3 -5.45,-0.45 Q 18.25,-1.8 11.15,-1.7 3.65,-1.6 -3.9,-2 q -13.9,-0.75 -27.75,-0.65 0.2,1.3 -0.1,2.3 l 11.4,0.6 q 2.85,0.2 5.25,1.45 l 0.3,0.15 0.25,0.15 v 0.2 0.15 l -0.05,0.15 -0.1,0.1 -0.05,0.05 -0.25,0.05 -0.2,-0.05 -0.45,-0.1 -0.4,-0.05 -0.9,-0.25 -0.15,-0.05 -11.3,0.1 -6.55,-0.15 -0.2,0.05 -0.5,0.2 0.1,8.8 v 0.5 l 0.05,2.5 0.1,2.4 0.05,0.25 0.4,2.2 0.05,0.85 69.2,-5.6 0.45,-9.3 0.2,-2.25 m -65.1,12.5 q -1.5,-0.6 -1.65,-2.6 l -0.05,-0.4 q -0.05,-1.35 0.65,-2.2 0.6,-0.75 1.75,-1.1 l 0.8,-0.2 0.95,0.3 q 1.3,0.5 1.9,1.35 0.95,1.45 -0.3,3.85 h -0.05 q -0.6,1.15 -1.9,1.25 l -2.1,-0.25 M 25.05,4.9 24.9,4.6 Q 24.6,3.75 25.05,2.5 l 0.1,-0.25 Q 25.4,1.65 25.8,1.3 l 0.65,-0.45 1.1,-0.25 0.5,0.15 0.75,0.3 0.25,0.15 0.35,0.2 Q 30.6,2.35 30.15,4 L 29.6,5.2 q -0.85,1.45 -2.55,1 -1.5,-0.4 -2,-1.3"
         fill="#000000"
         fill-rule="evenodd"
         stroke="none"
         id="path1" />
      <path
         d="m 40.9,-3.5 0.6,0.75 0.2,1.05 -0.85,0.75 V -1.1 q 0.25,-1.25 0.05,-2.4"
         fill="#877777"
         fill-rule="evenodd"
         stroke="none"
         id="path2" />
      <path
         d="M 27.95,-10.15 26.4,-11.2 q -1.55,0.5 -1.75,1.35 l -7.7,0.6 q -8.55,0.6 -17,2.1 L -12.6,-7.8 -15.75,-8 l 3.15,-0.7 8.75,-1.5 7.7,-1.05 q 13.7,-2.3 27.15,-2.6 0.05,1.7 -0.25,3.35 l -2.8,0.35 m -63.3,27 -0.05,-0.25 -0.1,-2.4 -0.05,-2.5 v -0.5 l -0.1,-8.8 0.5,-0.2 0.2,-0.05 6.55,0.15 11.3,-0.1 0.15,0.05 0.9,0.25 0.4,0.05 0.45,0.1 0.2,0.05 0.25,-0.05 0.05,-0.05 0.1,-0.1 0.05,-0.15 V 2.2 2 L -14.8,1.85 -15.1,1.7 q -2.4,-1.25 -5.25,-1.45 l -11.4,-0.6 q 0.3,-1 0.1,-2.3 13.85,-0.1 27.75,0.65 7.55,0.4 15.05,0.3 7.1,-0.1 14.05,0.35 l 5.45,0.45 3.1,0.3 1.65,0.2 -0.2,1.35 -0.25,1.8 -2.4,0.8 L 30.15,4 Q 30.6,2.35 29.4,1.4 L 29.05,1.2 28.8,1.05 28.05,0.75 27.55,0.6 26.45,0.85 25.8,1.3 Q 25.4,1.65 25.15,2.25 L 25.05,2.5 Q 24.6,3.75 24.9,4.6 l 0.15,0.3 -1.1,0.25 Q 21.25,6.4 18.2,7.1 16.2,7.5 14.25,8.15 L -4.4,14.5 q -3.8,1.25 -7.75,1.9 L -12.8,16.35 -13.1,16 -13.2,15.85 v -0.5 -0.3 q 3.95,-2.6 8.45,-4.35 l -2.45,0.35 -9.65,1.4 -9.25,1.8 q 1.25,-2.4 0.3,-3.85 -0.6,-0.85 -1.9,-1.35 l -0.95,-0.3 -0.8,0.2 q -1.15,0.35 -1.75,1.1 -0.7,0.85 -0.65,2.2 l 0.05,0.4 q 0.15,2 1.65,2.6 l -5.15,1.55 -0.05,0.05"
         fill="#886464"
         fill-rule="evenodd"
         stroke="none"
         id="path3" />
      <path
         d="m 27.95,-10.15 2.8,-0.35 -0.15,0.7 q -0.5,2.15 -0.05,4.1 l -2.25,-0.25 -4.05,-0.1 q -2,0.25 -3.95,0 L 6.85,-6.9 -0.05,-7.15 q 8.45,-1.5 17,-2.1 l 7.7,-0.6 q -0.2,0.75 0.7,1.85 0.65,0.8 1.45,0.2 1.95,-1.3 1.15,-2.35 m -63.3,27 0.05,-0.05 5.15,-1.55 2.1,0.25 q 1.3,-0.1 1.9,-1.25 h 0.05 l 9.25,-1.8 9.65,-1.4 2.45,-0.35 q -4.5,1.75 -8.45,4.35 v 0.3 0.5 l 0.1,0.15 0.3,0.35 0.65,0.05 Q -8.2,15.75 -4.4,14.5 L 14.25,8.15 Q 16.2,7.5 18.2,7.1 21.25,6.4 23.95,5.15 l 1.1,-0.25 q 0.5,0.9 2,1.3 1.7,0.45 2.55,-1 l 0.55,-1.2 2.4,-0.45 2.4,-0.8 -0.2,2.25 -0.45,9.3 -69.2,5.6 -0.05,-0.85 -0.4,-2.2"
         fill="#705151"
         fill-rule="evenodd"
         stroke="none"
         id="path4" />
    </g>
    <g
       id="sprite1"
       transform="translate(17.4,15.85)">
      <use
         ffdec:characterId="31"
         height="57.200001"
         transform="matrix(0.5366,0,0,0.5366,-16.6582,-14.546)"
         width="70.75"
         xlink:href="#sprite2"
         id="use4" />
    </g>
    <g
       id="sprite2"
       transform="translate(-8.65,-10.35)">
      <use
         ffdec:characterId="30"
         height="57.200001"
         transform="translate(8.65,10.35)"
         width="70.75"
         xlink:href="#shape1"
         id="use5" />
    </g>
    <g
       id="shape1"
       transform="translate(-8.65,-10.35)">
      <path
         d="m 14.8,41.7 q 0.65,-1.75 2.65,-2.5 1.8,-0.8 3.7,-0.25 1.15,0.45 2.25,1.2 l 0.9,0.4 q 1.65,0.9 2.85,2.5 L 37.8,30.1 q 2.35,-2.8 3.75,-3.95 1.5,-1.15 4.25,-2.4 18.2,-8.85 27.65,-12.6 2.15,-0.8 3.25,-0.8 h 0.8 l 1.9,2.4 -0.2,0.8 q -0.2,1.1 -1.55,3 -5.85,8.25 -18.85,23.8 -1.85,2.35 -3.35,3.5 -1.4,1.15 -4.75,2.75 l -15.15,7.15 q 1.2,1.6 1.75,3.4 l 0.2,1 0.55,2.5 q 0.1,1.95 -1.1,3.55 -1.2,1.65 -3.05,1.9 l -1.3,0.05 q -1.65,0.2 -3.45,-0.65 -1.85,-0.9 -3,-2.6 L 25,60.95 23.8,62.1 q -2.6,2.85 -4.3,3.95 -2.85,1.8 -5.5,1.45 l -1.65,-0.5 -1.2,-0.7 -0.2,-0.2 q -1,-0.85 -1.6,-1.9 L 9.25,64 9.15,63.8 8.75,62.4 q -0.2,-0.8 -0.05,-1.7 0.25,-2.65 2.7,-5.05 1.5,-1.3 4.9,-3.15 L 17.7,51.55 16.05,50 q -1.35,-1.5 -1.8,-3.6 -0.4,-1.85 0.25,-3.45 l 0.3,-1.25"
         fill="#000000"
         fill-opacity="0.372549"
         fill-rule="evenodd"
         stroke="none"
         id="path5" />
    </g>
  </defs>
</svg>
