<?xml version="1.0" encoding="UTF-8" standalone="no"?>
<svg
   ffdec:objectType="frame"
   height="79.716446"
   width="85.318581"
   version="1.1"
   id="svg6"
   sodipodi:docname="ITEM Mushroom Hat.svg"
   xmlns:inkscape="http://www.inkscape.org/namespaces/inkscape"
   xmlns:sodipodi="http://sodipodi.sourceforge.net/DTD/sodipodi-0.dtd"
   xmlns:xlink="http://www.w3.org/1999/xlink"
   xmlns="http://www.w3.org/2000/svg"
   xmlns:svg="http://www.w3.org/2000/svg"
   xmlns:ffdec="https://www.free-decompiler.com/flash">
  <sodipodi:namedview
     id="namedview6"
     pagecolor="#ffffff"
     bordercolor="#000000"
     borderopacity="0.25"
     inkscape:showpageshadow="2"
     inkscape:pageopacity="0.0"
     inkscape:pagecheckerboard="0"
     inkscape:deskcolor="#d1d1d1"
     fit-margin-top="5"
     fit-margin-left="5"
     fit-margin-right="5"
     fit-margin-bottom="5" />
  <g
     transform="translate(45.630488,38.2)"
     id="g1">
    <use
       ffdec:characterId="17"
       height="119.15"
       id="rarity"
       transform="translate(-58.5,-60.65)"
       width="119.15"
       xlink:href="#sprite0" />
    <use
       ffdec:characterId="1236"
       height="79.75"
       transform="translate(-45.65,-38.25)"
       width="85.349998"
       xlink:href="#shape0"
       id="use1" />
  </g>
  <defs
     id="defs6">
    <g
       id="shape0"
       transform="translate(44.35,36.35)">
      <path
         d="m 0.15,-30.25 -4.05,0.15 q -5.05,0.4 -8.9,2.1 -2.05,0.9 -4.2,2.45 l -4.25,3.45 -2.4,2.35 -3.65,4.05 -2,2.4 -4,5.8 q -2.75,4.6 -4.2,9.15 -1.2,3.75 -0.05,5.7 0.5,0.9 1.95,1.85 l 0.95,0.6 5.05,3 2.7,1.25 1.9,0.25 1.95,0.1 1.5,0.2 3.35,0.6 7.2,0.5 q 9.85,-0.1 18.9,-2.2 l 3.55,-0.9 1.95,-0.8 4.85,-2.5 Q 20.1,8.4 24,6.95 l 1.35,-0.6 Q 29.7,4.3 33.5,1.1 q 1.5,-1.3 1.65,-2.4 0.1,-0.8 -0.6,-2.3 l -2.2,-4.6 q -2.5,-5.3 -4.1,-7.75 l -3.15,-4.15 -2.2,-2.5 q -2.95,-3.05 -5.1,-4.35 -1.6,-1 -3.6,-1.65 l -2.35,-0.65 -6.45,-0.8 -5.25,-0.2 m -21.3,50.35 -4,-0.45 -4.3,-0.7 -3.45,-1.45 -3.25,-1.9 -3.6,-2.1 q -1.95,-1.35 -3,-2.85 -1.8,-2.65 -1.55,-6.35 0.15,-2.8 1.55,-6.45 2.5,-6.7 6.55,-12.45 3,-4.15 7.45,-8.75 7.8,-8.1 14.7,-10.8 4.6,-1.8 10.5,-2.15 l 10.85,0.35 6.4,1 q 9,2.3 15.95,11.15 2.8,3.5 5.4,8.25 l 4.3,8.9 1.4,3.9 q 0.5,2.2 -0.05,3.9 -0.65,1.95 -3.5,4.3 -4,3.2 -8.3,5.6 -2.95,1.6 -8.4,4 l -6.85,2.85 1.3,6.35 q 0.7,3.9 0.35,6.85 -0.25,2.1 -1.1,3.85 -1.2,2.35 -4.55,4.45 -5.8,3.8 -12.45,4 -7,0.25 -12.65,-3.3 -2.55,-1.7 -3.65,-3.6 -1.3,-2.35 -0.85,-6.45 0.35,-3.3 2.15,-9.6 L -21.15,20.1 M 9,23.95 8.95,23.9 8.15,21.2 7.7,19.4 5.6,19.8 q -9.2,1.55 -18.2,1.1 -0.1,1.75 -0.8,5.1 l -0.15,0.9 -0.65,4.3 q 0,1.5 0.35,2.15 l 1.25,1.25 q 4.1,3 9.7,2.75 5.1,-0.2 9.65,-3.25 L 8.9,32.05 Q 9.7,30.7 9.6,28.3 L 9,23.95"
         fill="#000000"
         fill-rule="evenodd"
         stroke="none"
         id="path1" />
      <path
         d="m -17,-25.55 q 1.35,1.1 1.9,3 l 0.4,2.35 q 0.1,1.8 -0.5,3.4 -0.5,1.35 -1.8,2.9 -2.85,3.3 -5.95,3.65 -1.5,0.15 -2.95,-0.4 l -1.05,-0.45 -1.4,-1.15 -0.5,-0.6 -0.45,-0.45 2,-2.4 3.65,-4.05 2.4,-2.35 4.25,-3.45 m 35,24.3 -1.25,-0.2 Q 15.35,-1.8 14.4,-2.3 L 14.15,-2.45 Q 13.5,-2.95 12.6,-3.9 L 11.7,-5 10.95,-6.15 q -0.25,-0.6 -0.35,-1.9 0,-3.25 1.65,-5.1 1.65,-1.85 4.15,-2.1 l 3.4,0.35 q 1.3,0.45 2.4,1.45 h 0.05 l 1.55,1.6 0.6,0.85 0.45,0.85 q 0.45,1.25 0,3.05 l -0.65,1.6 -1.5,2 -1.85,1.4 q -0.9,0.6 -1.85,0.8 l -1,0.05 m -6.15,-28 0.45,0.9 q 0.55,1.35 0.45,2.8 -0.15,1.5 -1,2.7 l -1.55,1.65 q -1.15,1.05 -1.7,1.35 -0.75,0.45 -1.9,0.7 -3.1,0.65 -5.8,-0.9 -2.75,-1.6 -3.45,-4.65 -0.65,-2.75 0.95,-4.3 l 1.65,-1.1 0.2,-0.15 5.25,0.2 6.45,0.8 m -28.4,27.65 q 0.3,-2 1.85,-3.55 l 1.65,-1.45 1.25,-1.35 2.15,-1.2 q 3.85,-1.65 6,-1.15 2.2,0.55 3.5,2.5 1.2,1.75 1.45,4.15 Q 1.6,-1.35 1,0.8 V 0.9 Q 0.4,2.6 -0.65,3.8 L -1.3,4.45 Q -2.55,5.6 -4.45,6.2 L -9.4,6.45 Q -11.2,6.05 -12.55,5 l -1.1,-1 -1.15,-1.55 -0.9,-1 -0.05,-0.05 -0.7,-1.05 q -0.25,-0.8 -0.1,-1.95 m 3,28.5 1.5,0.95 4.95,0.25 5.2,-0.6 5.8,-1 Q 6.95,25.6 9,23.95 l 0.6,4.35 q 0.1,2.4 -0.7,3.75 L 6.75,34.1 Q 2.2,37.15 -2.9,37.35 -8.5,37.6 -12.6,34.6 l -1.25,-1.25 Q -14.2,32.7 -14.2,31.2 l 0.65,-4.3"
         fill="#d9d9d9"
         fill-rule="evenodd"
         stroke="none"
         id="path2" />
      <path
         d="m -17,-25.55 q 2.15,-1.55 4.2,-2.45 3.85,-1.7 8.9,-2.1 l 4.05,-0.15 -0.2,0.15 -1.65,1.1 q -1.6,1.55 -0.95,4.3 0.7,3.05 3.45,4.65 2.7,1.55 5.8,0.9 1.15,-0.25 1.9,-0.7 0.55,-0.3 1.7,-1.35 l 1.55,-1.65 q 0.85,-1.2 1,-2.7 0.1,-1.45 -0.45,-2.8 l -0.45,-0.9 2.35,0.65 q 2,0.65 3.6,1.65 2.15,1.3 5.1,4.35 l 2.2,2.5 q 0.55,2.25 0.25,4.85 -0.2,2.15 -0.95,4.25 l -0.6,-0.85 -1.55,-1.6 H 22.2 q -1.1,-1 -2.4,-1.45 l -3.4,-0.35 q -2.5,0.25 -4.15,2.1 -1.65,1.85 -1.65,5.1 0.1,1.3 0.35,1.9 l 0.75,1.15 0.9,1.1 q 0.9,0.95 1.55,1.45 l 0.25,0.15 q 0.95,0.5 2.35,0.85 l 1.25,0.2 -1.25,1.1 Q 12.7,3.35 7.7,5.05 L -0.15,6.8 -6.7,7.75 q -7.45,0.55 -14.25,-1.7 -5,-1.65 -7.9,-4.25 -3.85,-3.4 -4.35,-7.75 l -0.1,-1.55 4,-5.8 0.45,0.45 0.5,0.6 1.4,1.15 1.05,0.45 q 1.45,0.55 2.95,0.4 3.1,-0.35 5.95,-3.65 1.3,-1.55 1.8,-2.9 0.6,-1.6 0.5,-3.4 l -0.4,-2.35 q -0.55,-1.9 -1.9,-3 m 0.45,23.95 q -0.15,1.15 0.1,1.95 l 0.7,1.05 0.05,0.05 0.9,1 1.15,1.55 1.1,1 q 1.35,1.05 3.15,1.45 L -4.45,6.2 Q -2.55,5.6 -1.3,4.45 L -0.65,3.8 Q 0.4,2.6 1,0.9 V 0.8 q 0.6,-2.15 0.3,-4.45 -0.25,-2.4 -1.45,-4.15 -1.3,-1.95 -3.5,-2.5 -2.15,-0.5 -6,1.15 l -2.15,1.2 -1.25,1.35 -1.65,1.45 q -1.55,1.55 -1.85,3.55"
         fill="#b59393"
         fill-rule="evenodd"
         stroke="none"
         id="path3" />
      <path
         d="m -33.3,-7.5 0.1,1.55 q 0.5,4.35 4.35,7.75 2.9,2.6 7.9,4.25 6.8,2.25 14.25,1.7 L -0.15,6.8 7.7,5.05 q 5,-1.7 9.05,-5.2 L 18,-1.25 19,-1.3 q 0.95,-0.2 1.85,-0.8 l 1.85,-1.4 1.5,-2 0.65,-1.6 q 0.45,-1.8 0,-3.05 L 24.4,-11 q 0.75,-2.1 0.95,-4.25 0.3,-2.6 -0.25,-4.85 l 3.15,4.15 q 1.6,2.45 4.1,7.75 l 2.2,4.6 q 0.7,1.5 0.6,2.3 Q 35,-0.2 33.5,1.1 29.7,4.3 25.35,6.35 25,5.3 23.75,4.6 22.6,3.9 20.5,3.6 q -2.05,-0.2 -3.05,0 -1.1,0.25 -1.8,0.7 L 14.2,5.4 q -2.25,2 -2.85,3.75 -0.65,1.65 -0.05,3.15 l 0.15,0.3 -3.55,0.9 q -9.05,2.1 -18.9,2.2 l -7.2,-0.5 -3.35,-0.6 q 0.3,-0.7 0.45,-1.55 0.45,-2.5 -0.6,-4.7 -1.1,-2.3 -3.35,-3.3 -1.85,-0.8 -4.2,-0.45 -1.95,0.35 -3.9,1.65 L -35.1,8 -35.6,9.2 q -1.45,-0.95 -1.95,-1.85 -1.15,-1.95 0.05,-5.7 1.45,-4.55 4.2,-9.15"
         fill="#8e6f6f"
         fill-rule="evenodd"
         stroke="none"
         id="path4" />
      <path
         d="M 25.35,6.35 24,6.95 Q 20.1,8.4 18.25,9.3 L 13.4,11.8 11.45,12.6 11.3,12.3 Q 10.7,10.8 11.35,9.15 11.95,7.4 14.2,5.4 l 1.45,-1.1 q 0.7,-0.45 1.8,-0.7 1,-0.2 3.05,0 2.1,0.3 3.25,1 1.25,0.7 1.6,1.75 m -46.9,8.25 -1.5,-0.2 -1.95,-0.1 -1.9,-0.25 -2.7,-1.25 -5.05,-3 -0.95,-0.6 0.5,-1.2 1.95,-1.75 q 1.95,-1.3 3.9,-1.65 2.35,-0.35 4.2,0.45 2.25,1 3.35,3.3 1.05,2.2 0.6,4.7 -0.15,0.85 -0.45,1.55 m 8,12.3 0.15,-0.9 q 0.7,-3.35 0.8,-5.1 9,0.45 18.2,-1.1 l 2.1,-0.4 0.45,1.8 0.8,2.7 L 9,23.95 Q 6.95,25.6 3.9,26.5 l -5.8,1 -5.2,0.6 -4.95,-0.25 -1.5,-0.95"
         fill="#ababab"
         fill-rule="evenodd"
         stroke="none"
         id="path5" />
    </g>
    <g
       id="sprite1"
       transform="translate(17.4,15.85)">
      <use
         ffdec:characterId="31"
         height="57.200001"
         transform="matrix(0.5366,0,0,0.5366,-16.6582,-14.546)"
         width="70.75"
         xlink:href="#sprite2"
         id="use5" />
    </g>
    <g
       id="sprite2"
       transform="translate(-8.65,-10.35)">
      <use
         ffdec:characterId="30"
         height="57.200001"
         transform="translate(8.65,10.35)"
         width="70.75"
         xlink:href="#shape1"
         id="use6" />
    </g>
    <g
       id="shape1"
       transform="translate(-8.65,-10.35)">
      <path
         d="m 14.8,41.7 q 0.65,-1.75 2.65,-2.5 1.8,-0.8 3.7,-0.25 1.15,0.45 2.25,1.2 l 0.9,0.4 q 1.65,0.9 2.85,2.5 L 37.8,30.1 q 2.35,-2.8 3.75,-3.95 1.5,-1.15 4.25,-2.4 18.2,-8.85 27.65,-12.6 2.15,-0.8 3.25,-0.8 h 0.8 l 1.9,2.4 -0.2,0.8 q -0.2,1.1 -1.55,3 -5.85,8.25 -18.85,23.8 -1.85,2.35 -3.35,3.5 -1.4,1.15 -4.75,2.75 l -15.15,7.15 q 1.2,1.6 1.75,3.4 l 0.2,1 0.55,2.5 q 0.1,1.95 -1.1,3.55 -1.2,1.65 -3.05,1.9 l -1.3,0.05 q -1.65,0.2 -3.45,-0.65 -1.85,-0.9 -3,-2.6 L 25,60.95 23.8,62.1 q -2.6,2.85 -4.3,3.95 -2.85,1.8 -5.5,1.45 l -1.65,-0.5 -1.2,-0.7 -0.2,-0.2 q -1,-0.85 -1.6,-1.9 L 9.25,64 9.15,63.8 8.75,62.4 q -0.2,-0.8 -0.05,-1.7 0.25,-2.65 2.7,-5.05 1.5,-1.3 4.9,-3.15 L 17.7,51.55 16.05,50 q -1.35,-1.5 -1.8,-3.6 -0.4,-1.85 0.25,-3.45 l 0.3,-1.25"
         fill="#000000"
         fill-opacity="0.372549"
         fill-rule="evenodd"
         stroke="none"
         id="path6" />
    </g>
  </defs>
</svg>
