<?xml version="1.0" encoding="UTF-8" standalone="no"?>
<svg
   ffdec:objectType="frame"
   height="81.599998"
   width="57.599499"
   version="1.1"
   id="svg5"
   xmlns:xlink="http://www.w3.org/1999/xlink"
   xmlns="http://www.w3.org/2000/svg"
   xmlns:svg="http://www.w3.org/2000/svg"
   xmlns:ffdec="https://www.free-decompiler.com/flash">
  <g
     transform="translate(30.05307,42.85)"
     id="g1">
    <use
       ffdec:characterId="17"
       height="119.15"
       id="rarity"
       transform="translate(-58.5,-60.65)"
       width="119.15"
       xlink:href="#sprite0" />
    <use
       ffdec:characterId="505"
       height="81.599998"
       transform="translate(-30.05,-42.85)"
       width="57.599998"
       xlink:href="#shape0"
       id="use1" />
  </g>
  <defs
     id="defs5">
    <g
       id="shape0"
       transform="translate(29.65,42.05)">
      <path
         d="m 17.9,-2.25 q -2.5,-7 -6.3,-13.5 l -3.7,-6.15 -4.35,-4.45 -0.5,-0.55 -0.8,-1.2 -1.1,-1.05 -2.7,-2.1 -2.75,-1.55 q -4.55,-2.25 -10,-2.45 l -0.9,0.3 -0.65,0.2 q -2.55,2.25 -3.6,5.5 l -1.1,3.1 q -0.75,5.8 -0.5,11.8 l 0.6,6.65 2.9,9.2 0.65,1.8 2.4,6.1 0.15,0.3 2.65,5.55 0.35,0.65 q 6,9.3 15.9,13.15 2,0.75 4.15,1.3 l 0.8,0.2 q 7.6,1.75 10.45,-5.05 l 0.4,-0.6 0.05,-0.45 0.1,-0.4 0.35,-0.65 Q 22.15,18 21.3,12.6 L 20.6,8.85 Q 20.35,7.7 20.4,6.45 L 20,5.55 19.75,3.85 V 3.65 L 18.85,0.5 17.9,-2.25 m -9.25,-26.85 3.05,3.85 q 7.85,10.75 11.9,23.25 2.45,7.55 2.9,15.25 2.25,3.05 1,6.15 l -1.1,2 -0.15,1.9 0.5,1.25 0.15,1.05 0.15,0.2 0.2,0.45 q 0,0.9 -0.45,1.65 l -0.15,0.5 -0.35,0.45 -0.6,0.4 -0.4,-0.05 -0.6,0.25 -0.4,0.05 q 0.3,1.25 -0.65,2.45 l -0.9,1.1 -0.05,1.05 q -0.1,0.65 -0.55,1.1 l -4.45,0.7 -0.2,-0.05 -1.7,0.7 -2.05,1.8 q -1.05,0.7 -2.3,1 l -0.7,0.2 Q 8.2,38.5 5.8,36.75 L 4.4,36 q -2.15,0.95 -4.8,1.05 l -0.7,-0.1 q -1.35,-1.85 -3,-3.5 l -1.75,-2.05 0.05,-0.2 -2.6,-0.25 -0.65,-0.15 -3.05,-3.85 -1.8,-2 -1.4,-1.3 Q -16.4,23.7 -17.2,23 l -0.5,-0.6 q -0.05,-0.9 -0.4,-1.7 -0.4,-0.95 -0.3,-1.95 -0.5,-1.25 -1.35,-2.2 l -1.3,-1.45 -0.6,-0.2 -0.7,-0.15 -0.75,-0.7 -0.4,-1.05 q 0.35,-1.9 0.4,-3.85 0,-1.45 -0.6,-2.8 L -24.05,5.9 -24.25,5.4 -24.9,4.85 -25,4.7 -26.4,4 -26.7,3.65 -26.75,3.25 -26.95,2.9 -27.2,2.3 -27.3,1.85 -26.9,0.8 q 0.45,-0.7 0.55,-1.5 0,-0.55 -0.4,-0.85 l -0.7,-1.1 -1.5,-1.7 -0.5,-1.3 1.25,-2.7 q 0.5,-0.8 0.55,-1.8 v -0.3 l -1.85,-1.15 -0.15,-1.05 0.15,-0.85 0.15,-0.2 0.25,-0.3 0.15,-0.15 0.05,-0.2 0.1,-0.25 0.2,-0.2 0.15,-0.1 q -0.05,-0.7 0.3,-1.35 l 0.7,-1.35 -0.7,-1.7 -0.45,-1.1 q -2.45,-2.65 0.8,-5 0.85,-0.6 1.2,-1.65 v -0.25 l -1,-1.1 -0.4,-0.4 -0.05,-0.25 -0.05,-0.2 -0.05,-0.2 -0.3,-0.45 -0.15,-0.4 0.1,-0.85 0.5,-0.65 0.35,-0.2 0.05,-0.05 h 0.05 l 1.85,-0.35 0.9,-0.55 0.25,-0.15 0.95,-3.4 0.25,-1.2 -0.1,-0.65 0.05,-1.05 0.05,-0.2 0.15,-0.2 0.4,-0.45 0.3,-0.25 q 2.7,0.35 5.35,0 l 0.45,-0.6 1,-0.8 0.2,-0.05 0.5,-0.05 v -0.05 l 0.9,0.3 0.55,0.25 v -0.05 l 2.9,1.55 1.35,0.25 1.95,-0.45 0.65,-0.15 0.9,0.4 0.7,0.4 0.7,1.2 q 2.05,0.8 4,1.85 l 2.8,1 q 1.25,0.6 1.55,1.9 2.5,1.95 4.7,4.5 m -11.3,21.25 0.35,-0.35 0.05,-0.25 0.35,-0.65 0.3,-0.15 0.75,-0.2 0.1,-0.15 0.2,-0.2 0.4,-0.15 0.6,-0.2 2.3,0.75 1,0.4 Q 8.8,-3.45 6,3.05 5.6,4 4.65,4.5 L 4.55,4.55 3.25,5 Q 1.2,5.35 -0.6,3.6 -3.5,0.8 -3.9,-3.05 L -3.95,-3.7 q -0.1,-2.6 1.3,-4.15 m 1.85,3.65 0.1,0.85 q 0.6,0.65 0.8,1.5 l 0.15,0.4 Q 1.15,-0.2 2.4,0.5 L 2.3,-2.3 1.95,-2.8 1.8,-3.6 1.6,-3.95 0.95,-4.55 0.6,-4.95 0.4,-5.05 -0.85,-5.45 -0.8,-4.2"
         fill="#000000"
         fill-rule="evenodd"
         stroke="none"
         id="path1" />
      <path
         d="m 3.05,-26.9 -2.35,8.1 -3.35,10.95 q -1.4,1.55 -1.3,4.15 l -0.3,0.95 -2.8,9.4 -0.35,1.3 q -1.45,4.2 -4.3,7.3 l -2.65,-5.55 0.8,-1.5 0.6,-1.9 0.6,-1.1 1.2,-3.25 3.6,-10.55 q 0.7,-2.15 1.8,-4.2 l 2.5,-7.05 3.05,-7.25 q 0.55,-1.2 1.35,-2.05 l 1.1,1.05 0.8,1.2 m 12.7,28.95 0.05,-0.2 0.05,-0.2 0.05,-0.2 0.15,-0.25 0.4,-0.4 1.45,-3.05 0.95,2.75 q -2,6.15 -3.5,12.45 -0.55,2.35 -1.6,4.5 L 8.7,30.35 Q 6.55,29.8 4.55,29.05 l 0.1,-0.25 q 1.7,-3.65 3,-7.4 L 8.9,19.25 q 0.15,-0.5 0.5,-0.85 v -0.25 -0.2 L 9.45,17.75 10.9,14.1 13.8,6.4 15.2,2.7 15.4,2.5 15.75,2.1 V 2.05 M -16.9,3.3 -17.55,1.5 V 1.45 1.2 l 0.05,-0.2 1.75,-5.2 0.8,-2.3 q 0.85,-3.3 2.35,-6.45 l 0.25,-0.6 1.35,-3.05 0.3,-0.85 q 1.2,-3.65 2.8,-7.3 l 1.7,-3.2 0.05,-0.25 0.1,-0.4 v -0.2 l 1.5,-3.5 0.25,-0.5 2.75,1.55 -0.6,0.9 q 0,0.9 -0.45,1.65 l -0.65,0.95 -3.45,7.7 -2.1,5 q -0.9,2.3 -2.2,4.45 l -0.3,1.1 q -0.25,0.6 -0.75,1.05 l -1.1,3.4 -0.05,0.25 q -0.25,0.95 -0.8,1.7 l -1.5,3.4 -0.7,1.75 -0.25,0.25 -0.25,0.2 -0.2,0.8"
         fill="#e1e1e1"
         fill-rule="evenodd"
         stroke="none"
         id="path2" />
      <path
         d="m 0.7,-18.8 q 6.75,2.45 11,9.35 3.3,5.3 4.05,11.5 V 2.1 l -0.35,0.4 -0.2,0.2 -1.4,3.7 -2.9,7.7 -2.05,1.2 -3.1,0.3 Q -2.6,13.55 -7.4,7.95 l 0.35,-1.3 2.8,-9.4 0.3,-0.95 0.05,0.65 Q -3.5,0.8 -0.6,3.6 1.2,5.35 3.25,5 L 3.6,5.15 H 4.25 L 4.55,4.55 4.65,4.5 Q 5.6,4 6,3.05 8.8,-3.45 3.75,-9 l -1,-0.4 -2.3,-0.75 -0.6,0.2 -0.4,0.15 -0.2,0.2 -0.1,0.15 -0.75,0.2 -0.3,0.15 -0.35,0.65 -0.05,0.25 -0.35,0.35 3.35,-10.95 m -7.4,-1.25 0.5,-0.1 2.95,0.3 -2.5,7.05 q -1.1,2.05 -1.8,4.2 l -3.6,10.55 -1.3,-3.65 -0.7,-3.35 1.1,-3.4 q 0.5,-0.45 0.75,-1.05 l 0.3,-1.1 q 1.3,-2.15 2.2,-4.45 l 2.1,-5 m -4,2.6 -0.3,0.85 -1.35,3.05 -0.25,0.6 0.9,-2.75 1,-1.75"
         fill="#8e8e8e"
         fill-rule="evenodd"
         stroke="none"
         id="path3" />
      <path
         d="m 3.05,-26.9 0.5,0.55 4.35,4.45 3.7,6.15 q 3.8,6.5 6.3,13.5 l -1.45,3.05 -0.4,0.4 -0.15,0.25 -0.05,0.2 -0.05,0.2 -0.05,0.2 Q 15,-4.15 11.7,-9.45 7.45,-16.35 0.7,-18.8 l 2.35,-8.1 m 15.8,27.4 0.9,3.15 v 0.2 l 0.25,1.7 0.4,0.9 q -0.05,1.25 0.2,2.4 l 0.7,3.75 q 0.85,5.4 -0.45,10.8 l -0.35,0.65 -0.1,0.4 -0.05,0.45 -0.4,0.6 Q 17.1,32.3 9.5,30.55 l -0.8,-0.2 5.05,-12.9 q 1.05,-2.15 1.6,-4.5 1.5,-6.3 3.5,-12.45 M 4.55,29.05 Q -5.35,25.2 -11.35,15.9 l -0.35,-0.65 q 2.85,-3.1 4.3,-7.3 4.8,5.6 13.15,7.65 l 3.1,-0.3 2.05,-1.2 -1.45,3.65 -0.05,0.2 v 0.2 0.25 Q 9.05,18.75 8.9,19.25 L 7.65,21.4 q -1.3,3.75 -3,7.4 l -0.1,0.25 M -14.35,9.7 -14.5,9.4 l -2.4,-6.1 0.2,-0.8 0.25,-0.2 0.25,-0.25 0.7,-1.75 1.5,-3.4 q 0.55,-0.75 0.8,-1.7 l 0.05,-0.25 0.7,3.35 1.3,3.65 -1.2,3.25 -0.6,1.1 -0.6,1.9 -0.8,1.5 m -3.2,-8.2 -2.9,-9.2 -0.6,-6.65 q -0.25,-6 0.5,-11.8 l 1.1,-3.1 q 1.05,-3.25 3.6,-5.5 l 0.65,-0.2 0.9,-0.3 q 5.45,0.2 10,2.45 l -0.25,0.5 -1.5,3.5 v 0.2 l -0.1,0.4 -0.05,0.25 -1.7,3.2 q -1.6,3.65 -2.8,7.3 l -1,1.75 -0.9,2.75 q -1.5,3.15 -2.35,6.45 l -0.8,2.3 -1.75,5.2 -0.05,0.2 V 1.45 1.5 m 16,-32.75 2.7,2.1 q -0.8,0.85 -1.35,2.05 l -3.05,7.25 -2.95,-0.3 -0.5,0.1 3.45,-7.7 0.65,-0.95 q 0.45,-0.75 0.45,-1.65 l 0.6,-0.9"
         fill="#b3b3b3"
         fill-rule="evenodd"
         stroke="none"
         id="path4" />
    </g>
    <g
       id="sprite1"
       transform="translate(17.4,15.85)">
      <use
         ffdec:characterId="31"
         height="57.200001"
         transform="matrix(0.5366,0,0,0.5366,-16.6582,-14.546)"
         width="70.75"
         xlink:href="#sprite2"
         id="use4" />
    </g>
    <g
       id="sprite2"
       transform="translate(-8.65,-10.35)">
      <use
         ffdec:characterId="30"
         height="57.200001"
         transform="translate(8.65,10.35)"
         width="70.75"
         xlink:href="#shape1"
         id="use5" />
    </g>
    <g
       id="shape1"
       transform="translate(-8.65,-10.35)">
      <path
         d="m 14.8,41.7 q 0.65,-1.75 2.65,-2.5 1.8,-0.8 3.7,-0.25 1.15,0.45 2.25,1.2 l 0.9,0.4 q 1.65,0.9 2.85,2.5 L 37.8,30.1 q 2.35,-2.8 3.75,-3.95 1.5,-1.15 4.25,-2.4 18.2,-8.85 27.65,-12.6 2.15,-0.8 3.25,-0.8 h 0.8 l 1.9,2.4 -0.2,0.8 q -0.2,1.1 -1.55,3 -5.85,8.25 -18.85,23.8 -1.85,2.35 -3.35,3.5 -1.4,1.15 -4.75,2.75 l -15.15,7.15 q 1.2,1.6 1.75,3.4 l 0.2,1 0.55,2.5 q 0.1,1.95 -1.1,3.55 -1.2,1.65 -3.05,1.9 l -1.3,0.05 q -1.65,0.2 -3.45,-0.65 -1.85,-0.9 -3,-2.6 L 25,60.95 23.8,62.1 q -2.6,2.85 -4.3,3.95 -2.85,1.8 -5.5,1.45 l -1.65,-0.5 -1.2,-0.7 -0.2,-0.2 q -1,-0.85 -1.6,-1.9 L 9.25,64 9.15,63.8 8.75,62.4 q -0.2,-0.8 -0.05,-1.7 0.25,-2.65 2.7,-5.05 1.5,-1.3 4.9,-3.15 L 17.7,51.55 16.05,50 q -1.35,-1.5 -1.8,-3.6 -0.4,-1.85 0.25,-3.45 l 0.3,-1.25"
         fill="#000000"
         fill-opacity="0.372549"
         fill-rule="evenodd"
         stroke="none"
         id="path5" />
    </g>
  </defs>
</svg>
