<?xml version="1.0" encoding="UTF-8" standalone="no"?>
<svg
   ffdec:objectType="frame"
   height="89.897057"
   width="76.498077"
   version="1.1"
   id="svg5"
   xmlns:xlink="http://www.w3.org/1999/xlink"
   xmlns="http://www.w3.org/2000/svg"
   xmlns:svg="http://www.w3.org/2000/svg"
   xmlns:ffdec="https://www.free-decompiler.com/flash">
  <g
     transform="translate(43.048077,45.547059)"
     id="g1">
    <use
       ffdec:characterId="17"
       height="119.15"
       id="rarity"
       transform="translate(-58.5,-60.65)"
       width="119.15"
       xlink:href="#sprite0" />
    <use
       ffdec:characterId="844"
       height="89.949997"
       transform="translate(-43.05,-45.55)"
       width="76.5"
       xlink:href="#shape0"
       id="use1" />
  </g>
  <defs
     id="defs5">
    <g
       id="shape0"
       transform="translate(43.6,46.3)">
      <path
         d="m 15.85,-30.45 q 1.15,-0.05 1.7,0.55 0.5,0.5 0.5,1.5 l -0.1,1.75 0.2,2.85 1.45,10.5 1,-7.55 q 0.8,-5.65 0.85,-9.1 0.1,-5.05 -1.1,-9 L 19.5,-40.8 q -0.8,-0.95 -1.75,-0.95 -1.2,0.1 -1.8,1.3 -0.4,0.8 -0.5,2.25 -0.35,4.05 0.3,7.8 l 0.1,-0.05 m -21,-0.25 q 8.4,-0.55 13.9,0.2 l 3.1,0.35 q -0.7,-3.4 -0.4,-8.15 0.3,-4.45 2.25,-6.1 1.5,-1.25 4,-1.45 l 2.85,0.4 q 1.5,0.7 2.6,2.85 1.45,2.9 1.95,6.75 0.65,4.8 0,11.5 l -1.35,11.5 q -0.55,5.5 -0.55,10.6 1,0.3 1.95,0 l 1.5,-0.6 0.25,-0.05 0.5,-0.15 q 1.35,-0.05 2.2,2.15 2.15,5.4 3.05,14.4 l 0.25,4.65 q -0.05,2.7 -0.75,6.2 -1.9,10 -7.05,14.9 l -3.95,3.1 q -2.1,1.45 -3.35,0.95 -0.6,-0.25 -1.1,-1 L 16.55,41.95 14.9,42.3 12.1,43 8.15,42.9 2.8,42.65 H 2.3 1.1 q -1,-0.2 -2.15,-1.55 L -1.75,40.45 -2.5,40.4 q -0.75,0.15 -1.3,0.65 l -1.25,1.25 -2.45,0.45 -3.2,0.4 -3.15,0.35 q -1.55,0 -2.35,-0.55 -0.95,-0.75 -1.05,-1.9 V 40.8 l -1,-0.55 q -1.4,2.8 -3.1,3.3 l -1.75,0.05 -1.8,-0.4 -4.05,-0.3 -4.05,-0.15 -2.15,-0.4 -2.1,-0.4 -1.8,-0.05 -1.85,-0.25 q -2.2,-0.45 -2.65,-2.25 -0.25,-1.1 0.8,-3.1 6.9,-13.95 7.05,-29.65 0,-1.6 0.3,-2.35 l 0.8,-0.9 q 0.55,-0.35 1.1,-0.25 0.45,0.1 0.8,0.45 l 0.75,-0.15 1.8,-0.15 1.8,-0.45 -0.65,-1.2 -0.25,-3.05 q -0.05,-2.25 -0.8,-5.3 l -1.35,-5.25 q -2.95,-12.65 0.7,-24.8 1.5,-5.15 4.05,-7.55 1.85,-1.65 3.9,-1.95 1.55,-0.2 3.15,0.45 1.5,0.6 2.6,1.85 2.05,2.4 2.05,5.95 0,2.2 -1.05,5.7 l -0.7,2.4 11.55,-0.8 M 25.5,4.7 25.1,1.05 22.6,1.25 H 22.45 Q 19.75,0.9 18.15,-1.25 16.7,-3.15 16.1,-7.5 l -2.7,-17.65 -29.95,1 q 0.3,4.15 0.3,12.45 0,3.7 -0.3,5.5 -0.3,2.35 -1.45,5.5 -0.65,1.75 -1.35,2.95 l -0.6,0.95 q -1.35,1.75 -3.75,3.2 -4,2.6 -7.5,2.45 L -31.75,8.8 q 0.15,4.65 -0.55,9.6 l -0.75,4.45 q -1.25,5.65 -3.5,11.75 l -0.9,2.25 13.95,1.4 1.35,-0.2 1.1,-1.1 q 1.3,-1.45 3.2,-1.2 1.75,0.15 2.75,1.6 0.5,0.2 1.1,0.7 l 0.6,0.35 h 0.7 l 4.4,-0.6 0.9,-0.2 0.95,-0.65 q 2,-1.45 4.2,-1.65 1.6,-0.15 2.7,0.35 0.9,0.4 2.35,2.2 l 0.7,0.9 2.5,-0.5 2.7,-0.1 2.95,-0.15 0.9,-0.25 -0.3,-0.2 L 10.4,35.6 Q 9.85,34.95 9.65,34.4 l -0.1,-0.7 q 0.1,-1.2 1.1,-2.05 0.05,-0.05 0.45,-0.2 l 1.7,-1.15 q 7.4,-4.25 10.55,-10.8 2,-4.15 2.25,-9.65 L 25.5,4.7 m -53.9,18.45 0.3,-2.05 0.55,-2.9 0.45,-1.2 q 0.05,-0.8 0.65,-1.3 0.65,-0.65 1.6,-0.55 l 1.1,0.2 0.5,0.1 1.3,0.05 6.75,-0.3 q 1.95,-0.1 2.9,-0.65 l 1.2,-0.6 0.3,-0.1 q 0.4,-0.05 0.75,0.25 0.6,-0.05 1,0.25 l 0.5,0.5 q 0.3,0.55 0.3,1.55 -0.05,3.35 -0.75,10.05 -0.45,3.25 -0.9,4.45 -0.25,0.8 -0.65,1.25 -0.6,0.6 -1.7,0.8 l -1.65,-0.1 -0.45,-0.7 q -0.1,-0.45 0.2,-0.7 l 0.65,-0.25 0.65,-0.15 q 0.45,-0.3 0.65,-1.3 l 0.4,-5.5 0.1,-2.7 0.1,-2.7 -0.05,-1.5 -1.4,0.5 -0.4,0.15 -2.5,0.5 -3.8,0.65 -2,0.3 -2.5,0.25 -0.05,1.15 -0.15,2.4 -0.3,2.25 -0.7,4.4 q 1.3,0.7 1.9,1.15 1.2,0.85 1,1.7 -0.1,0.65 -0.7,0.9 l -1.15,0.25 -2.2,-0.25 q -2.05,-0.5 -2.7,-1.75 -0.4,-0.85 -0.1,-2.45 l 1,-6.3 M 8.25,15.2 Q 8.5,14.7 9.1,14.35 l 1.6,-0.3 h 0.4 l 1.55,0.2 1.1,0.3 1.6,0.05 q 4.05,-0.2 5.95,-1 l 1.15,-0.4 q 0.65,-0.15 1.15,0.25 0.45,0.55 0.2,1.35 L 22.85,15.85 22.6,16 21.35,16.65 18.8,17.5 14.65,18.3 11.1,18.2 10.6,18.25 10.15,21.95 9.9,25.7 9.75,28.4 9.3,29.9 Q 8.7,30.7 7.85,30.6 6.9,30.5 6.5,29.7 6.2,29.1 6.3,28.05 L 6.35,27 6.4,25.4 q 0.1,-3 0.3,-4.5 L 6.85,20.3 Q 7.1,18.7 7.7,17.05 L 8,16.25 Q 7.95,15.65 8.25,15.2 m -30.9,-18.9 q 0.75,-2.2 1,-5.2 l 0.1,-5.4 -0.05,-5.45 q -0.1,-3.05 -0.55,-5.35 -0.65,-2.95 0.4,-3.95 l 0.65,-0.4 0.15,-1.25 0.75,-2.65 0.8,-2.65 q 0.8,-3.3 -0.7,-5.3 -0.85,-1.05 -1.85,-1 -0.6,0.05 -1.3,0.65 -2.1,1.8 -3.25,6.15 -2.7,10.7 -0.25,22.35 l 1.45,6.2 q 0.85,3.65 0.95,6.25 v 0.25 q 1.05,-1.45 1.7,-3.25 M 19.6,37.5 q 4.6,-2.9 6.95,-10.55 1.6,-5.45 1.65,-11 -0.95,5.3 -3.65,9.2 L 20.7,29.5 17,32.8 q -0.85,0.65 -1,1.2 2.05,1.5 3.6,3.5"
         fill="#000000"
         fill-rule="evenodd"
         stroke="none"
         id="path1" />
      <path
         d="M 5.65,-6.45 Q 6.1,-7.4 6.95,-8 7.8,-8.6 8.8,-8.65 q 1.6,0 2.75,1.25 1.05,1.1 1.45,2.75 l 0.25,2.1 q -0.05,1.05 -0.7,2.5 L 12.1,0.8 11.25,1.65 9.85,2.4 9.5,3.2 Q 9.05,3.95 8.25,4.35 L 8.15,4.4 7.95,7.25 8.2,7.6 Q 9.1,8.55 8.55,9.9 V 9.95 L 7.65,10.9 6.35,11.2 5.45,10.85 4.75,9.8 Q 4.45,8.65 5.2,7.65 L 5.5,7.25 V 6.7 L 5.6,5.65 5.8,4.45 4.8,3.75 4.5,3.35 3.35,3 Q 1.75,2.15 1.5,0.55 1.35,-0.1 1.8,-1.8 L 2.15,-2.7 3.65,-3.85 5,-4 q 0.05,-1.45 0.65,-2.45 m -19.7,0.6 0.7,-1.05 1.15,-0.5 q 1.15,-0.15 1.85,0.6 0.85,0.75 0.75,1.8 -0.1,1.45 -1.45,1.95 -1.3,0.55 -2.4,-0.45 l -0.6,-1.1 q -0.2,-0.65 0,-1.25 m 0.6,23.85 0.45,0.65 q 0.45,0.9 0.3,2 l -0.2,0.6 -0.5,1 -0.3,0.4 0.05,0.25 q 0.2,0.7 -0.05,1.35 -0.25,0.65 -0.9,1.05 -0.65,0.45 -1.35,0.35 l -1.3,-0.55 -0.75,-1.15 -0.05,-0.5 -0.1,-0.05 -0.5,-0.2 q -1.3,-0.75 -1.45,-2.15 -0.15,-0.8 0.3,-1.85 l 0.05,-0.05 3.8,-0.65 2.5,-0.5 m -10.5,7.6 q 0.3,-0.8 1.15,-1.25 0.85,-0.45 1.65,-0.25 0.85,0.2 1.35,1.05 0.5,0.8 0.35,1.65 -0.2,0.85 -1,1.4 -0.8,0.55 -1.65,0.4 -1.05,-0.15 -1.6,-1.05 -0.55,-0.95 -0.25,-1.95 M 6.35,27 5.5,27.35 2.9,27.2 2.05,26.65 1.25,25.9 Q 0.25,24.55 1,22.55 L 1.2,22.1 0.8,21.95 0.1,21.15 Q -0.05,20.6 0.15,20.1 L 0.8,19.35 1.85,19.2 2.7,19.75 2.95,20.2 3.55,19.85 5.9,19.75 6.8,20.25 6.85,20.3 6.7,20.9 Q 6.5,22.4 6.4,25.4 L 6.35,27"
         fill="#684242"
         fill-rule="evenodd"
         stroke="none"
         id="path2" />
      <path
         d="M 5.65,-6.45 Q 5.05,-5.45 5,-4 L 3.65,-3.85 2.15,-2.7 1.8,-1.8 Q 1.35,-0.1 1.5,0.55 1.75,2.15 3.35,3 l 1.15,0.35 0.3,0.4 1,0.7 -0.2,1.2 -0.1,1.05 v 0.55 l -0.3,0.4 q -0.75,1 -0.45,2.15 l 0.7,1.05 0.9,0.35 1.3,-0.3 0.9,-0.95 V 9.9 Q 9.1,8.55 8.2,7.6 L 7.95,7.25 8.15,4.4 8.25,4.35 Q 9.05,3.95 9.5,3.2 L 9.85,2.4 11.25,1.65 12.1,0.8 12.55,-0.05 q 0.65,-1.45 0.7,-2.5 L 13,-4.65 Q 12.6,-6.3 11.55,-7.4 10.4,-8.65 8.8,-8.65 7.8,-8.6 6.95,-8 6.1,-7.4 5.65,-6.45 m -42.2,41.05 q 2.25,-6.1 3.5,-11.75 l 0.75,-4.45 q 0.7,-4.95 0.55,-9.6 l 0.55,0.05 q 3.5,0.15 7.5,-2.45 2.4,-1.45 3.75,-3.2 l 0.6,-0.95 q 0.7,-1.2 1.35,-2.95 1.15,-3.15 1.45,-5.5 0.3,-1.8 0.3,-5.5 0,-8.3 -0.3,-12.45 l 29.95,-1 2.7,17.65 q 0.6,4.35 2.05,6.25 1.6,2.15 4.3,2.5 h 0.15 l 2.5,-0.2 0.4,3.65 Q 24,7.25 20.85,9.4 18.9,10.7 13.5,13.05 l -2.4,1 h -0.4 l -1.6,0.3 Q 8.5,14.7 8.25,15.2 l -1.6,0.55 Q 2.7,16.95 -0.5,16.6 -2.3,16.4 -5.9,15.25 l -3.15,-0.9 q -0.4,-0.3 -1,-0.25 -0.35,-0.3 -0.75,-0.25 l -0.3,0.1 -0.2,-0.05 -4.55,0.1 -4.75,0.45 -2.35,0.45 -0.8,0.45 -1.1,-0.2 q -0.95,-0.1 -1.6,0.55 -0.6,0.5 -0.65,1.3 l -0.45,1.2 -0.55,2.9 -0.3,2.05 q -2.45,4.6 -5.6,9.2 -1.15,1.6 -1.95,2 l -0.6,0.25 m 22.5,-40.45 q -0.2,0.6 0,1.25 l 0.6,1.1 q 1.1,1 2.4,0.45 1.35,-0.5 1.45,-1.95 0.1,-1.05 -0.75,-1.8 -0.7,-0.75 -1.85,-0.6 l -1.15,0.5 -0.7,1.05 m 0.6,23.85 0.4,-0.15 1.4,-0.5 0.05,1.5 -0.1,2.7 -1.7,0.7 0.5,-1 0.2,-0.6 q 0.15,-1.1 -0.3,-2 L -13.45,18 m -4.7,5.4 -4.45,0.4 -1.65,-0.45 -0.2,-0.1 0.15,-2.4 0.05,-1.15 2.5,-0.25 2,-0.3 -0.05,0.05 q -0.45,1.05 -0.3,1.85 0.15,1.4 1.45,2.15 l 0.5,0.2 M 22.6,16 q 0.65,1.35 -0.25,2.95 -0.7,1.3 -2.45,2.25 -3.1,1.7 -7.05,1.45 -1.65,-0.15 -2.7,-0.7 l 0.45,-3.7 0.5,-0.05 3.55,0.1 4.15,-0.8 2.55,-0.85 L 22.6,16"
         fill="#cbcbcb"
         fill-rule="evenodd"
         stroke="none"
         id="path3" />
      <path
         d="m -36.55,34.6 0.6,-0.25 q 0.8,-0.4 1.95,-2 3.15,-4.6 5.6,-9.2 l -1,6.3 q -0.3,1.6 0.1,2.45 0.65,1.25 2.7,1.75 l 2.2,0.25 1.15,-0.25 q 0.6,-0.25 0.7,-0.9 0.2,-0.85 -1,-1.7 -0.6,-0.45 -1.9,-1.15 l 0.7,-4.4 0.3,-2.25 0.2,0.1 1.65,0.45 4.45,-0.4 0.1,0.05 0.05,0.5 0.75,1.15 1.3,0.55 q 0.7,0.1 1.35,-0.35 0.65,-0.4 0.9,-1.05 0.25,-0.65 0.05,-1.35 l -0.05,-0.25 0.3,-0.4 1.7,-0.7 -0.1,2.7 -0.4,5.5 q -0.2,1 -0.65,1.3 l -0.65,0.15 -0.65,0.25 q -0.3,0.25 -0.2,0.7 l 0.45,0.7 1.65,0.1 q 1.1,-0.2 1.7,-0.8 0.4,-0.45 0.65,-1.25 0.45,-1.2 0.9,-4.45 0.7,-6.7 0.75,-10.05 0,-1 -0.3,-1.55 l -0.5,-0.5 3.15,0.9 q 3.6,1.15 5.4,1.35 3.2,0.35 7.15,-0.85 L 8.25,15.2 Q 7.95,15.65 8,16.25 l -0.3,0.8 Q 7.1,18.7 6.85,20.3 L 6.8,20.25 5.9,19.75 3.55,19.85 2.95,20.2 2.7,19.75 1.85,19.2 0.8,19.35 0.15,20.1 q -0.2,0.5 -0.05,1.05 l 0.7,0.8 0.4,0.15 -0.2,0.45 q -0.75,2 0.25,3.35 L 2.05,26.65 2.9,27.2 5.5,27.35 6.35,27 6.3,28.05 q -0.1,1.05 0.2,1.65 0.4,0.8 1.35,0.9 0.85,0.1 1.45,-0.7 l 0.45,-1.5 0.15,-2.7 0.25,-3.75 q 1.05,0.55 2.7,0.7 3.95,0.25 7.05,-1.45 1.75,-0.95 2.45,-2.25 0.9,-1.6 0.25,-2.95 L 22.85,15.85 23.8,14.8 Q 24.05,14 23.6,13.45 23.1,13.05 22.45,13.2 l -1.15,0.4 q -1.9,0.8 -5.95,1 l -1.6,-0.05 -1.1,-0.3 -1.55,-0.2 2.4,-1 Q 18.9,10.7 20.85,9.4 24,7.25 25.5,4.7 l 0.1,5.15 q -0.25,5.5 -2.25,9.65 -3.15,6.55 -10.55,10.8 l -1.7,1.15 q -0.4,0.15 -0.45,0.2 -1,0.85 -1.1,2.05 l 0.1,0.7 q 0.2,0.55 0.75,1.2 l 1.85,1.95 0.3,0.2 -0.9,0.25 -2.95,0.15 -2.7,0.1 -2.5,0.5 -0.7,-0.9 q -1.45,-1.8 -2.35,-2.2 -1.1,-0.5 -2.7,-0.35 -2.2,0.2 -4.2,1.65 l -0.95,0.65 -0.9,0.2 -4.4,0.6 h -0.7 L -14,38.05 q -0.6,-0.5 -1.1,-0.7 -1,-1.45 -2.75,-1.6 -1.9,-0.25 -3.2,1.2 l -1.1,1.1 -1.35,0.2 -13.95,-1.4 0.9,-2.25 m 12.6,-9 q -0.3,1 0.25,1.95 0.55,0.9 1.6,1.05 0.85,0.15 1.65,-0.4 0.8,-0.55 1,-1.4 0.15,-0.85 -0.35,-1.65 -0.5,-0.85 -1.35,-1.05 -0.8,-0.2 -1.65,0.25 -0.85,0.45 -1.15,1.25 M 19.6,37.5 q -1.55,-2 -3.6,-3.5 0.15,-0.55 1,-1.2 l 3.7,-3.3 3.85,-4.35 q 2.7,-3.9 3.65,-9.2 -0.05,5.55 -1.65,11 Q 24.2,34.6 19.6,37.5"
         fill="#a8a8a8"
         fill-rule="evenodd"
         stroke="none"
         id="path4" />
    </g>
    <g
       id="sprite1"
       transform="translate(17.4,15.85)">
      <use
         ffdec:characterId="31"
         height="57.200001"
         transform="matrix(0.5366,0,0,0.5366,-16.6582,-14.546)"
         width="70.75"
         xlink:href="#sprite2"
         id="use4" />
    </g>
    <g
       id="sprite2"
       transform="translate(-8.65,-10.35)">
      <use
         ffdec:characterId="30"
         height="57.200001"
         transform="translate(8.65,10.35)"
         width="70.75"
         xlink:href="#shape1"
         id="use5" />
    </g>
    <g
       id="shape1"
       transform="translate(-8.65,-10.35)">
      <path
         d="m 14.8,41.7 q 0.65,-1.75 2.65,-2.5 1.8,-0.8 3.7,-0.25 1.15,0.45 2.25,1.2 l 0.9,0.4 q 1.65,0.9 2.85,2.5 L 37.8,30.1 q 2.35,-2.8 3.75,-3.95 1.5,-1.15 4.25,-2.4 18.2,-8.85 27.65,-12.6 2.15,-0.8 3.25,-0.8 h 0.8 l 1.9,2.4 -0.2,0.8 q -0.2,1.1 -1.55,3 -5.85,8.25 -18.85,23.8 -1.85,2.35 -3.35,3.5 -1.4,1.15 -4.75,2.75 l -15.15,7.15 q 1.2,1.6 1.75,3.4 l 0.2,1 0.55,2.5 q 0.1,1.95 -1.1,3.55 -1.2,1.65 -3.05,1.9 l -1.3,0.05 q -1.65,0.2 -3.45,-0.65 -1.85,-0.9 -3,-2.6 L 25,60.95 23.8,62.1 q -2.6,2.85 -4.3,3.95 -2.85,1.8 -5.5,1.45 l -1.65,-0.5 -1.2,-0.7 -0.2,-0.2 q -1,-0.85 -1.6,-1.9 L 9.25,64 9.15,63.8 8.75,62.4 q -0.2,-0.8 -0.05,-1.7 0.25,-2.65 2.7,-5.05 1.5,-1.3 4.9,-3.15 L 17.7,51.55 16.05,50 q -1.35,-1.5 -1.8,-3.6 -0.4,-1.85 0.25,-3.45 l 0.3,-1.25"
         fill="#000000"
         fill-opacity="0.372549"
         fill-rule="evenodd"
         stroke="none"
         id="path5" />
    </g>
  </defs>
</svg>
