<?xml version="1.0" encoding="UTF-8" standalone="no"?>
<svg
   ffdec:objectType="frame"
   height="87.157692"
   width="49.02203"
   version="1.1"
   id="svg6"
   xmlns:xlink="http://www.w3.org/1999/xlink"
   xmlns="http://www.w3.org/2000/svg"
   xmlns:svg="http://www.w3.org/2000/svg"
   xmlns:ffdec="https://www.free-decompiler.com/flash">
  <g
     transform="translate(24.903846,42.45)"
     id="g1">
    <use
       ffdec:characterId="17"
       height="119.15"
       id="rarity"
       transform="translate(-58.5,-60.65)"
       width="119.15"
       xlink:href="#sprite0" />
    <use
       ffdec:characterId="288"
       height="87.150002"
       transform="translate(-24.9,-42.45)"
       width="49"
       xlink:href="#shape0"
       id="use1" />
  </g>
  <defs
     id="defs6">
    <g
       id="shape0"
       transform="translate(24.6,44.95)">
      <path
         d="m 14.5,-30.55 2.15,1.95 1.9,2.45 q 0.9,1.5 0.65,3.3 l -0.25,1.1 q 3.45,26.55 5.45,53.2 0.1,2 -0.35,2.85 -0.6,1.25 -3.3,2.3 -19.85,8.1 -34.4,4.5 -3.7,-0.9 -4.95,-2.85 L -19.2,36.2 -19.25,34 q -0.05,-1.7 -0.45,-4.05 l -0.75,-4.1 q -1.1,-5.95 -1.65,-17.6 -0.5,-11.95 -1.5,-17.6 l -0.75,-4.7 q -0.35,-2.7 -0.05,-4.75 0.15,-1.3 0.8,-1.85 v -0.3 q 0.35,-2.45 2,-4.45 2.4,-2.75 7.85,-4.8 l -0.7,-0.1 q -0.55,-0.15 -1.7,-0.8 l -1.75,-0.8 q -1.2,-0.5 -1.8,-0.9 -1.3,-0.85 -3,-2.65 l -1.35,-1.6 q -0.6,-1 -0.55,-1.95 l 0.4,-1.35 0.65,-1.3 1.2,-1.3 1.85,-1.5 q 1,-0.5 3.05,-0.5 l 1.85,0.25 q 0.75,0.3 1.45,1.05 1.35,1.4 1.65,3.35 l 0.55,2.55 -0.05,1.55 0.3,1 0.05,1.35 0.25,1.75 q -0.1,0.9 -0.85,1.35 5.05,-1.6 9.1,-2.1 l 2.75,-0.25 v -0.1 l 0.15,-1.8 0.55,-4 q 0.15,-1.2 0.65,-1.75 0.65,-0.75 2.45,-0.9 2.6,-0.25 4.9,0 2.8,0.2 4.1,1.3 l 1.45,1.75 1.05,1.55 q 1.15,2 0.2,4.05 l -1.3,1.95 0.7,0.5 m -7.9,-2.5 2.8,0.45 1.35,-2.3 -0.7,-0.7 -0.55,-0.85 q -0.65,-0.6 -1.95,-0.7 L 5.4,-37.1 q -0.35,1.4 -0.45,3.15 l -0.05,0.8 1.7,0.1 m 0.2,5.85 0.1,-1 -2.55,-0.1 -0.05,1.1 2.2,0.05 0.4,0.15 -0.1,-0.2 m -19.9,8.95 h 0.7 5.15 l 3.2,-0.25 5.65,-0.8 6.05,-1.25 1.85,-0.55 q 2.05,-0.7 3.65,-1.7 0.8,-0.4 0.85,-0.9 l -0.15,-0.55 -0.3,-0.55 -0.35,-1.35 q -0.2,-0.55 -1.5,-1.1 l -0.4,-0.2 -1.05,1.15 q -0.7,0.5 -1.3,0.55 l -1.15,-0.2 0.1,0.4 -0.05,1.05 -0.05,0.05 -0.55,0.95 -1.45,0.9 -0.1,0.1 -3.95,1.7 -4,1.6 -1,0.2 -3.45,0.05 -1.6,-0.25 q -0.6,-0.2 -1,-0.6 l -0.4,-0.45 -0.4,-0.95 v -0.65 q 0.15,-1.05 1.2,-2 1.15,-0.95 3.55,-1.5 l 2.85,-0.55 1.85,-0.25 q -0.65,-0.8 -0.55,-1.65 l 0.05,-0.35 -0.25,0.05 q -5.75,0.65 -12.1,3.45 l -2.25,1.15 q -1.4,1 -2.15,2.55 -0.3,0.85 -0.1,1.25 l 0.8,0.75 q 1.25,0.6 3.75,0.7 h 0.35 M 15.3,33.3 19.2,31.8 Q 17.75,10.3 14.85,-11.7 l -0.75,-5.8 -2.45,0.95 -2.5,0.8 -0.85,0.2 -4.25,0.9 q -11.15,1.95 -18.2,1.4 l -1.05,-0.05 -0.7,-0.05 -1.6,-0.3 -2.25,-0.75 1.1,6.75 q 1.2,6.6 1.45,9.9 l 0.3,7.25 q 0.25,5.85 2.3,18.65 l 1,6.1 0.4,1.2 q 0.4,0.45 1.4,0.7 l 2.45,0.5 q 6.15,1.05 13.4,-0.2 5,-0.9 11.25,-3.15 M 1.4,1.85 q 0.15,2.9 1,7.6 l 1.2,7.6 0.05,2.15 Q 3.5,20.4 2.75,21.05 1.85,21.95 0.6,21.7 -0.6,21.45 -1.2,20.35 L -1.55,18.7 -3.65,2.5 -4.2,2.6 -6.1,3.05 -8.95,3.7 q -1.75,0.1 -2.7,-0.95 -0.6,-0.65 -0.65,-1.6 0,-0.9 0.55,-1.6 l 1.8,-1.15 4.1,-1.05 4.2,-0.8 L 2,-4.35 5.7,-5 q 1.75,-0.1 2.65,0.4 1.15,0.65 1.25,1.95 0.15,1.3 -0.85,2.2 -0.7,0.6 -2.55,0.9 l -4.8,0.9 v 0.5 m -19,-42.85 -0.6,0.1 q -1,0.55 -1.4,1.4 l -0.15,0.5 0.3,0.55 2.15,1.75 q 1.1,0.85 1.95,0.75 -0.05,-0.8 -0.8,-2.35 l -0.2,-0.7 -0.9,-1.65 -0.35,-0.35"
         fill="#000000"
         fill-rule="evenodd"
         stroke="none"
         id="path1" />
      <path
         d="m -9.3,-19.8 q 0.4,0.4 1,0.6 l 1.6,0.25 3.45,-0.05 1,-0.2 4,-1.6 3.95,-1.7 0.1,-0.1 1.45,-0.9 0.55,-0.95 0.05,-0.05 0.05,-1.05 -0.1,-0.4 1.15,0.2 q 0.6,-0.05 1.3,-0.55 l 1.05,-1.15 0.4,0.2 q 1.3,0.55 1.5,1.1 l 0.35,1.35 0.3,0.55 0.15,0.55 q -0.05,0.5 -0.85,0.9 -1.6,1 -3.65,1.7 l -1.85,0.55 -6.05,1.25 -5.65,0.8 -3.2,0.25 h -5.15 -0.7 l 1.7,-0.6 q 0.85,-0.3 2.1,-0.95 m 16.1,-7.4 0.1,0.2 -0.4,-0.15 -2.2,-0.05 0.05,-1.1 2.55,0.1 -0.1,1"
         fill="#aba6a6"
         fill-rule="evenodd"
         stroke="none"
         id="path2" />
      <path
         d="m -9.3,-19.8 q -1.25,0.65 -2.1,0.95 l -1.7,0.6 h -0.35 q -2.5,-0.1 -3.75,-0.7 L -18,-19.7 q -0.2,-0.4 0.1,-1.25 0.75,-1.55 2.15,-2.55 l 2.25,-1.15 q 6.35,-2.8 12.1,-3.45 l 0.25,-0.05 -0.05,0.35 q -0.1,0.85 0.55,1.65 l -1.85,0.25 -2.85,0.55 q -2.4,0.55 -3.55,1.5 -1.05,0.95 -1.2,2 v 0.65 l 0.4,0.95 0.4,0.45 m -0.05,56.45 -2.45,-0.5 q -1,-0.25 -1.4,-0.7 l -0.4,-1.2 -1,-6.1 Q -16.65,15.35 -16.9,9.5 l -0.3,-7.25 q -0.25,-3.3 -1.45,-9.9 l -1.1,-6.75 2.25,0.75 1.6,0.3 -0.7,1.25 q -0.25,1.1 0.1,3.4 l 0.65,6 0.55,5.9 0.4,2.55 -0.05,0.15 2.65,10.85 q 1.4,11.05 2.75,17.55 0.25,1.5 0.2,2.35 M -15,6.5 -14.85,6.85 -14.95,6.05 -15,6.5"
         fill="#cfbebe"
         fill-rule="evenodd"
         stroke="none"
         id="path3" />
      <path
         d="m 11.65,-16.55 2.45,-0.95 0.75,5.8 q 2.9,22 4.35,43.5 l -3.9,1.5 v -2 q 0.25,-2.75 -0.2,-6.75 l -0.75,-6.8 -0.5,-9.5 q -0.25,-6 -0.75,-9.5 L 12,-8 q -0.6,-4.25 -0.35,-8.55 m -27.55,3.2 0.7,0.05 1.05,0.05 q 7.05,0.55 18.2,-1.4 l 4.25,-0.9 0.85,-0.2 q 1.45,1.05 1.55,4.35 l 0.8,14 q 0.35,8.15 -0.2,14 -0.9,8.3 -4.05,13 -2.75,4.1 -6.5,4.65 -2.2,0.3 -4.5,-0.8 Q -5.85,32.4 -7.3,30.55 -9.25,28 -10.7,22.5 l -1.1,-3.9 -0.5,-1.85 -2.65,-10.85 0.05,-0.15 -0.4,-2.55 -0.55,-5.9 -0.65,-6 q -0.35,-2.3 -0.1,-3.4 l 0.7,-1.25 M 1.4,1.85 v -0.5 l 4.8,-0.9 q 1.85,-0.3 2.55,-0.9 1,-0.9 0.85,-2.2 Q 9.5,-3.95 8.35,-4.6 7.45,-5.1 5.7,-5 l -3.7,0.65 -3.65,0.9 -4.2,0.8 -4.1,1.05 -1.8,1.15 q -0.55,0.7 -0.55,1.6 0.05,0.95 0.65,1.6 0.95,1.05 2.7,0.95 l 2.85,-0.65 1.9,-0.45 0.55,-0.1 2.1,16.2 0.35,1.65 q 0.6,1.1 1.8,1.35 1.25,0.25 2.15,-0.65 Q 3.5,20.4 3.65,19.2 L 3.6,17.05 2.4,9.45 q -0.85,-4.7 -1,-7.6 m -19,-42.85 0.35,0.35 0.9,1.65 0.2,0.7 q 0.75,1.55 0.8,2.35 -0.85,0.1 -1.95,-0.75 l -2.15,-1.75 -0.3,-0.55 0.15,-0.5 q 0.4,-0.85 1.4,-1.4 l 0.6,-0.1 m 2.6,47.5 0.05,-0.45 0.1,0.8 L -15,6.5"
         fill="#847365"
         fill-rule="evenodd"
         stroke="none"
         id="path4" />
      <path
         d="M 11.65,-16.55 Q 11.4,-12.25 12,-8 l 1.1,6.75 q 0.5,3.5 0.75,9.5 l 0.5,9.5 0.75,6.8 q 0.45,4 0.2,6.75 v 2 Q 9.05,35.55 4.05,36.45 -3.2,37.7 -9.35,36.65 -9.3,35.8 -9.55,34.3 -10.9,27.8 -12.3,16.75 l 0.5,1.85 1.1,3.9 q 1.45,5.5 3.4,8.05 1.45,1.85 3.55,2.9 2.3,1.1 4.5,0.8 3.75,-0.55 6.5,-4.65 3.15,-4.7 4.05,-13 0.55,-5.85 0.2,-14 l -0.8,-14 q -0.1,-3.3 -1.55,-4.35 l 2.5,-0.8"
         fill="#65564a"
         fill-rule="evenodd"
         stroke="none"
         id="path5" />
    </g>
    <g
       id="sprite1"
       transform="translate(17.4,15.85)">
      <use
         ffdec:characterId="31"
         height="57.200001"
         transform="matrix(0.5366,0,0,0.5366,-16.6582,-14.546)"
         width="70.75"
         xlink:href="#sprite2"
         id="use5" />
    </g>
    <g
       id="sprite2"
       transform="translate(-8.65,-10.35)">
      <use
         ffdec:characterId="30"
         height="57.200001"
         transform="translate(8.65,10.35)"
         width="70.75"
         xlink:href="#shape1"
         id="use6" />
    </g>
    <g
       id="shape1"
       transform="translate(-8.65,-10.35)">
      <path
         d="m 14.8,41.7 q 0.65,-1.75 2.65,-2.5 1.8,-0.8 3.7,-0.25 1.15,0.45 2.25,1.2 l 0.9,0.4 q 1.65,0.9 2.85,2.5 L 37.8,30.1 q 2.35,-2.8 3.75,-3.95 1.5,-1.15 4.25,-2.4 18.2,-8.85 27.65,-12.6 2.15,-0.8 3.25,-0.8 h 0.8 l 1.9,2.4 -0.2,0.8 q -0.2,1.1 -1.55,3 -5.85,8.25 -18.85,23.8 -1.85,2.35 -3.35,3.5 -1.4,1.15 -4.75,2.75 l -15.15,7.15 q 1.2,1.6 1.75,3.4 l 0.2,1 0.55,2.5 q 0.1,1.95 -1.1,3.55 -1.2,1.65 -3.05,1.9 l -1.3,0.05 q -1.65,0.2 -3.45,-0.65 -1.85,-0.9 -3,-2.6 L 25,60.95 23.8,62.1 q -2.6,2.85 -4.3,3.95 -2.85,1.8 -5.5,1.45 l -1.65,-0.5 -1.2,-0.7 -0.2,-0.2 q -1,-0.85 -1.6,-1.9 L 9.25,64 9.15,63.8 8.75,62.4 q -0.2,-0.8 -0.05,-1.7 0.25,-2.65 2.7,-5.05 1.5,-1.3 4.9,-3.15 L 17.7,51.55 16.05,50 q -1.35,-1.5 -1.8,-3.6 -0.4,-1.85 0.25,-3.45 l 0.3,-1.25"
         fill="#000000"
         fill-opacity="0.372549"
         fill-rule="evenodd"
         stroke="none"
         id="path6" />
    </g>
  </defs>
</svg>
