<?xml version="1.0" encoding="UTF-8" standalone="no"?>
<svg
   ffdec:objectType="frame"
   height="79.974998"
   width="70.709091"
   version="1.1"
   id="svg5"
   xmlns:xlink="http://www.w3.org/1999/xlink"
   xmlns="http://www.w3.org/2000/svg"
   xmlns:svg="http://www.w3.org/2000/svg"
   xmlns:ffdec="https://www.free-decompiler.com/flash">
  <g
     transform="translate(36.554545,37.9)"
     id="g1">
    <use
       ffdec:characterId="17"
       height="119.15"
       id="rarity"
       transform="translate(-58.5,-60.65)"
       width="119.15"
       xlink:href="#sprite0" />
    <use
       ffdec:characterId="538"
       height="79.949997"
       transform="translate(-36.55,-37.9)"
       width="70.699997"
       xlink:href="#shape0"
       id="use1" />
  </g>
  <defs
     id="defs5">
    <g
       id="shape0"
       transform="translate(36.15,37.1)">
      <path
         d="m -16.35,-29.8 -2.6,0.75 -1.1,0.45 -0.2,0.1 -0.15,0.15 -2.05,2.55 -0.5,0.65 -0.15,0.45 -0.25,0.45 -0.1,0.2 v 0.4 l 0.1,0.65 0.05,0.45 0.3,0.35 0.65,0.5 0.9,0.6 0.85,0.1 1.4,-1 q 6.75,-2.4 13.85,-2.7 9.8,-1.15 19.1,1.1 2.15,0.55 4.1,1.6 l 1.6,-0.55 q 1.1,-0.4 1.85,-1.35 l 0.35,-0.85 0.4,-1.1 -0.95,-1.25 q -2.8,-1.95 -6.35,-2.7 -7.25,-1.55 -14.7,-2.35 l -0.85,-0.15 -0.85,0.15 q -7.45,0.8 -14.7,2.35 m 0,72.2 q -3.9,-0.6 -4.65,-4.3 -0.8,-3.6 1.6,-6.4 2.25,-2.6 5.45,-4.25 2.7,-1.4 3.9,-4.2 l -0.05,-0.4 -0.1,-1.3 -0.1,-1.1 -0.4,-3.4 q -0.3,-1.65 -1.5,-2.9 l -0.3,-0.1 -0.2,-0.05 -2,-0.15 -2.05,-0.25 h -0.1 l -1.35,-0.25 -0.8,-0.3 q -6.75,-0.75 -12.2,-4.7 -3.85,-2.8 -4.5,-7.4 -0.5,-3.5 -0.45,-7.05 0,-6.35 1.3,-12.55 2.75,-13.65 16.8,-16.6 L -7.5,-37.1 H 5.9 l 10.55,1.85 q 14.05,2.95 16.8,16.6 1.3,6.2 1.3,12.55 0.05,3.55 -0.45,7.05 -0.65,4.6 -4.5,7.4 Q 24,12.4 17,13.1 q -0.75,0.6 -1.75,0.5 l -1.9,0.15 -2.25,0.25 -0.2,0.05 -0.3,0.1 q -1.2,1.25 -1.5,2.9 l -0.4,3.4 -0.1,1.1 -0.1,1.3 -0.05,0.4 q 1.2,2.8 3.9,4.2 3.2,1.65 5.45,4.25 2.4,2.8 1.6,6.4 -0.75,3.7 -4.65,4.3 -7.65,0.95 -15.55,0 -7.9,0.95 -15.55,0 M 22,-18.45 l -2.3,1.3 q -2.05,0.85 -4.45,0.95 L 3.2,-15.4 Q -5,-14.65 -13,-15.45 l -7.05,-1 -2.9,-0.6 q -1.55,-0.35 -2.7,-1.45 l -1.35,-1.65 -0.6,-1.4 q -1,1.9 -1.45,4.15 -1.55,7.75 -1.2,15.7 l 0.1,1.85 q 1.7,4.8 6.65,5.95 l 14.3,3.4 0.35,0.15 2.7,0.2 5.55,0.3 L 8,9.4 21.9,6.1 q 4.95,-1.15 6.65,-5.95 0.65,-8.9 -1.1,-17.55 -0.55,-2.75 -1.95,-5.1 l -1.05,1.6 -2.45,2.45 m -27,43.2 -0.15,0.55 q -0.4,2.05 -1.95,3.5 L -11.7,32.75 -1.25,33.2 9.25,32 5.5,28.8 Q 3.95,27.35 3.55,25.3 2.65,21.4 3,17.2 L 3.4,15 h -3.95 l -4.55,-0.45 0.25,0.8 q 0.2,0.9 0.25,1.85 0.35,3.9 -0.4,7.55 m 17.85,10.1 -0.4,-0.3 Q 0.65,36.4 -3.25,36.2 L -7,35.95 -9.4,35.7 l -1.05,-0.15 -3.7,-0.6 -0.35,-0.05 -0.2,0.15 -0.35,0.25 q -0.55,0.4 -0.55,1.05 l -0.05,0.25 0.15,0.2 0.2,0.2 0.25,0.2 0.55,0.15 0.2,0.1 0.2,0.1 0.3,0.15 0.75,-0.1 0.4,0.05 11,1 7.2,-0.2 3.95,-0.45 3,-0.45 0.4,-0.2 L 13.45,37.2 13.7,37 13.9,36.8 14.05,36.6 14,36.35 Q 14,35.7 13.45,35.3 l -0.6,-0.45"
         fill="#000000"
         fill-rule="evenodd"
         stroke="none"
         id="path1" />
      <path
         d="m -13,-15.45 q 2.3,1.5 2.75,4.9 0.3,2.15 -1.45,3.5 -6.3,4.85 -13.2,0.05 -4.6,-3.2 -0.5,-6.8 2.35,-2.1 5.35,-2.65 l 7.05,1 m 11.6,1.65 q 4.45,1 2.15,4.3 -1,1.5 -2.8,1.3 -2.2,-0.3 -2.6,-2.4 0.15,-1.45 1.35,-2.3 0.9,-0.7 1.9,-0.9 M -4.85,15.35 -4.4,15 l 0.35,-0.1 0.5,-0.05 V 14.8 q 5.05,1.85 2.8,7 -0.85,2.05 -3,3.15 L -4.2,25 -4.85,24.9 -5,24.75 q 0.75,-3.65 0.4,-7.55 -0.05,-0.95 -0.25,-1.85"
         fill="#ffffff"
         fill-rule="evenodd"
         stroke="none"
         id="path2" />
      <path
         d="m -16.35,-29.8 q 7.25,-1.55 14.7,-2.35 l 0.85,-0.15 0.85,0.15 q 7.45,0.8 14.7,2.35 3.55,0.75 6.35,2.7 l 0.95,1.25 -0.4,1.1 -0.35,0.85 q -0.75,0.95 -1.85,1.35 l -1.6,0.55 q -1.95,-1.05 -4.1,-1.6 -9.3,-2.25 -19.1,-1.1 -7.1,0.3 -13.85,2.7 l -1.4,1 -0.85,-0.1 -0.9,-0.6 -0.65,-0.5 -0.3,-0.35 -0.05,-0.45 -0.1,-0.65 v -0.4 l 0.1,-0.2 0.25,-0.45 0.15,-0.45 0.5,-0.65 2.05,-2.55 0.15,-0.15 0.2,-0.1 1.1,-0.45 2.6,-0.75 m 3.35,14.35 q 8,0.8 16.2,0.05 l 12.05,-0.8 q 2.4,-0.1 4.45,-0.95 l 2.3,-1.3 0.5,0.3 q 1.35,4.5 -1.4,8.85 -4.15,6.5 -10.7,10.45 -10.65,7.65 -23.95,5.7 l -4.1,-0.65 q -8.6,-1.35 -12.6,-7.9 -0.35,-7.95 1.2,-15.7 0.45,-2.25 1.45,-4.15 l 0.6,1.4 1.35,1.65 q 1.15,1.1 2.7,1.45 l 2.9,0.6 q -3,0.55 -5.35,2.65 -4.1,3.6 0.5,6.8 6.9,4.8 13.2,-0.05 1.75,-1.35 1.45,-3.5 -0.45,-3.4 -2.75,-4.9 m 8,40.2 0.15,0.15 0.65,0.1 0.45,-0.05 q 2.15,-1.1 3,-3.15 2.25,-5.15 -2.8,-7 v 0.05 L -4.05,14.9 -4.4,15 -4.85,15.35 -5.1,14.55 -0.55,15 q 1.3,1.9 1,4.9 Q 0.15,22.75 0,25.65 1.6,30.4 -1.25,33.2 L -11.7,32.75 -7.1,28.8 q 1.55,-1.45 1.95,-3.5 L -5,24.75 m 3.6,-38.55 q -1,0.2 -1.9,0.9 -1.2,0.85 -1.35,2.3 0.4,2.1 2.6,2.4 1.8,0.2 2.8,-1.3 2.3,-3.3 -2.15,-4.3 m -13.3,48.85 0.2,-0.15 0.35,0.05 3.7,0.6 1.05,0.15 2.4,0.25 3.75,0.25 q 3.9,0.2 15.7,-1.65 l 0.4,0.3 Q 11.3,36.7 8.25,37.2 l -2.5,0.4 -7.4,1.05 -11,-1 -1.05,-0.45 -0.75,-0.5 -0.15,-0.1 -0.05,-0.05 -0.15,-0.85 0.1,-0.65"
         fill="#dcd7af"
         fill-rule="evenodd"
         stroke="none"
         id="path3" />
      <path
         d="m -30.25,-1.7 q 4,6.55 12.6,7.9 l 4.1,0.65 Q -0.25,8.8 10.4,1.15 16.95,-2.8 21.1,-9.3 q 2.75,-4.35 1.4,-8.85 l -0.5,-0.3 2.45,-2.45 1.05,-1.6 q 1.4,2.35 1.95,5.1 1.75,8.65 1.1,17.55 -1.7,4.8 -6.65,5.95 L 8,9.4 -0.6,10.15 -6.15,9.85 -8.85,9.65 -9.2,9.5 -23.5,6.1 q -4.95,-1.15 -6.65,-5.95 l -0.1,-1.85 m 29,34.9 Q 1.6,30.4 0,25.65 q 0.15,-2.9 0.45,-5.75 0.3,-3 -1,-4.9 H 3.4 L 3,17.2 q -0.35,4.2 0.55,8.1 0.4,2.05 1.95,3.5 l 3.75,3.2 -10.5,1.2 m -13.45,1.85 -0.1,0.65 0.15,0.85 0.05,0.05 -0.05,0.1 h 0.2 l 0.75,0.5 1.05,0.45 -0.4,-0.05 -0.75,0.1 -0.3,-0.15 -0.2,-0.1 -0.2,-0.1 -0.55,-0.15 -0.25,-0.2 -0.2,-0.2 -0.15,-0.2 0.05,-0.25 q 0,-0.65 0.55,-1.05 l 0.35,-0.25 m 13.05,3.6 7.4,-1.05 2.5,-0.4 q 3.05,-0.5 4.6,-2.35 l 0.6,0.45 Q 14,35.7 14,36.35 l 0.05,0.25 -0.15,0.2 -0.2,0.2 -0.25,0.2 -0.55,0.15 -0.4,0.2 -3,0.45 -3.95,0.45 -7.2,0.2"
         fill="#b9b48f"
         fill-rule="evenodd"
         stroke="none"
         id="path4" />
    </g>
    <g
       id="sprite1"
       transform="translate(17.4,15.85)">
      <use
         ffdec:characterId="31"
         height="57.200001"
         transform="matrix(0.5366,0,0,0.5366,-16.6582,-14.546)"
         width="70.75"
         xlink:href="#sprite2"
         id="use4" />
    </g>
    <g
       id="sprite2"
       transform="translate(-8.65,-10.35)">
      <use
         ffdec:characterId="30"
         height="57.200001"
         transform="translate(8.65,10.35)"
         width="70.75"
         xlink:href="#shape1"
         id="use5" />
    </g>
    <g
       id="shape1"
       transform="translate(-8.65,-10.35)">
      <path
         d="m 14.8,41.7 q 0.65,-1.75 2.65,-2.5 1.8,-0.8 3.7,-0.25 1.15,0.45 2.25,1.2 l 0.9,0.4 q 1.65,0.9 2.85,2.5 L 37.8,30.1 q 2.35,-2.8 3.75,-3.95 1.5,-1.15 4.25,-2.4 18.2,-8.85 27.65,-12.6 2.15,-0.8 3.25,-0.8 h 0.8 l 1.9,2.4 -0.2,0.8 q -0.2,1.1 -1.55,3 -5.85,8.25 -18.85,23.8 -1.85,2.35 -3.35,3.5 -1.4,1.15 -4.75,2.75 l -15.15,7.15 q 1.2,1.6 1.75,3.4 l 0.2,1 0.55,2.5 q 0.1,1.95 -1.1,3.55 -1.2,1.65 -3.05,1.9 l -1.3,0.05 q -1.65,0.2 -3.45,-0.65 -1.85,-0.9 -3,-2.6 L 25,60.95 23.8,62.1 q -2.6,2.85 -4.3,3.95 -2.85,1.8 -5.5,1.45 l -1.65,-0.5 -1.2,-0.7 -0.2,-0.2 q -1,-0.85 -1.6,-1.9 L 9.25,64 9.15,63.8 8.75,62.4 q -0.2,-0.8 -0.05,-1.7 0.25,-2.65 2.7,-5.05 1.5,-1.3 4.9,-3.15 L 17.7,51.55 16.05,50 q -1.35,-1.5 -1.8,-3.6 -0.4,-1.85 0.25,-3.45 l 0.3,-1.25"
         fill="#000000"
         fill-opacity="0.372549"
         fill-rule="evenodd"
         stroke="none"
         id="path5" />
    </g>
  </defs>
</svg>
