<?xml version="1.0" encoding="UTF-8" standalone="no"?>
<svg
   ffdec:objectType="frame"
   height="68.234032"
   width="83.294502"
   version="1.1"
   id="svg4"
   xmlns:xlink="http://www.w3.org/1999/xlink"
   xmlns="http://www.w3.org/2000/svg"
   xmlns:svg="http://www.w3.org/2000/svg"
   xmlns:ffdec="https://www.free-decompiler.com/flash">
  <g
     transform="translate(44.8905,37.992857)"
     id="g1">
    <use
       ffdec:characterId="17"
       height="119.15"
       id="rarity"
       transform="translate(-58.5,-60.65)"
       width="119.15"
       xlink:href="#sprite0" />
    <use
       ffdec:characterId="133"
       height="68.25"
       transform="translate(-44.9,-38)"
       width="83.300003"
       xlink:href="#shape0"
       id="use1" />
  </g>
  <defs
     id="defs4">
    <g
       id="shape0"
       transform="translate(44.6,40.5)">
      <path
         d="m 3.95,-26.7 0.1,-0.05 q 0.55,-0.05 1,0.4 0.45,0.4 0.55,1 l 0.05,1.15 0.05,1.1 0.6,2 q 0.35,1.05 0.35,3.25 -0.1,4.1 -1.65,6.15 -0.95,1.35 -2.55,1.9 L -0.6,-9.95 q -2.3,-1.25 -2.6,-4.9 -0.2,-2.9 0.9,-6.4 l 0.15,-0.3 0.45,-0.8 q 0.6,-0.55 1.1,-0.2 0.5,1.05 0.3,2.8 l -0.35,2.95 q -0.1,1.95 0.65,3.55 0.9,0.55 1.9,-0.25 0.75,-0.7 1,-1.85 0.4,-1.6 -0.05,-4.9 -0.45,-3.3 -0.1,-4.95 0.4,-1.35 1.2,-1.5 M 19.25,7.4 19.2,6.6 19.35,6.2 Q 19.7,5.1 20.95,4.4 21.75,3.9 23.9,3.2 29.85,1.1 33,-4.2 32.6,-6.7 30.05,-8.35 27.85,-9.8 24.8,-10.2 18.8,-11 13.3,-8.8 l -0.55,0.2 q -1.95,0.7 -2.9,0.35 L 8.7,-9.15 8.5,-9.5 q -0.4,-0.75 -0.4,-1.65 v -0.2 q 0.05,-1.05 1.15,-3.6 2.15,-4.85 2.1,-8.85 -0.05,-2.4 -0.95,-4.45 -1,-2.25 -2.75,-3.6 -2.25,-1.8 -6,-2.15 -4.3,-0.5 -7.95,1.25 -4.1,2 -5.25,6 -0.45,1.55 -0.4,4.1 l 0.05,4.15 q -0.1,2.1 -1.15,2.9 -0.8,0.65 -2.15,0.55 l -2.4,-0.45 -9.1,0.35 q -4.6,1.4 -7.75,4.8 -2.25,2.55 -2.65,4.9 -0.25,1.45 0.15,2.8 0.4,1.45 1.5,2.3 l 1.85,1.1 q 0.85,0.5 1.25,1.1 3.9,-1.25 6.8,-0.85 1.1,0.15 1.75,0.6 l 0.25,0.25 q 0.35,0.45 0.3,1 0,0.6 -0.45,0.9 -3.3,0 -6.7,1.35 l -4.15,1.8 -0.05,0.05 -1.3,0.75 q -1.35,0.75 -2,1.4 l -0.5,1 q -0.05,0.8 1.2,1.55 2.9,1.5 6.2,1.7 3.35,0.2 6.35,-1.05 l 3.05,-1.05 1.65,0.15 q 0.85,0.3 1.2,0.95 l 0.05,0.1 q 0.2,0.4 0.25,0.95 0,0.7 -0.3,1.65 -0.7,2.2 -0.65,2.85 0.05,0.95 0.6,1.7 0.6,0.8 1.5,1.1 l 1.8,-0.05 q 0.95,-0.35 1.5,-1.1 l 1.15,-1.8 q 0.95,-1 2.3,-0.5 0.7,0.25 1.4,1.1 l 1.2,1.5 0.65,0.55 0.15,0.1 q 1.55,0.9 4.65,1.15 l 1.5,0.1 h 0.65 L 6.95,21.4 H 7.1 q 3.35,-0.4 6.3,-1.3 8.45,-2.5 13.55,-8.25 l -2.4,-0.8 -2.45,-0.7 Q 20.8,9.85 19.95,8.9 19.35,8.15 19.25,7.4 M -15.3,2.3 q 0.7,-1.3 1.9,-2.35 1.7,-1.45 4,-2.25 l 4.5,-0.9 4.6,-0.25 3.05,0.05 2.45,0.15 3.05,0.6 Q 10.2,-2 11.65,-0.8 12.9,0.25 13.4,1.55 L 13.65,2.3 Q 14,3.8 13.45,5.35 L 13.2,6 l -0.35,0.65 -1.1,1.3 q -2.25,2.1 -5.7,2.1 L 4.35,9.7 3.45,8.95 3.25,8.55 Q 3.05,7.8 3.65,7.1 4.15,6.45 4.95,6.1 L 5.6,5.9 6.55,5.6 8.05,4.95 8.25,4.85 q 1,-0.7 0.7,-1.65 -0.2,-0.65 -1,-1 Q 6.85,1.6 5.35,1.35 H 5.2 L 2.55,1.05 q -4,-0.2 -6,-0.05 -3.35,0.2 -5.8,1.25 L -10.1,2.7 q -0.7,0.4 -1.2,0.95 l -0.55,0.8 q -0.3,0.65 -0.2,1.3 l 1.4,0.35 0.3,0.1 5.55,1.6 2.1,0.75 -0.8,0.55 q -1.9,1.1 -4.25,1.4 l -3.45,-0.15 -1.95,-0.65 -0.9,-0.45 q -1.1,-0.7 -1.7,-1.6 -0.95,-1.8 -0.2,-4 L -15.3,2.3 m 28.4,-38.15 q 3.45,3.4 4.05,9.1 0.45,3.4 -0.25,10.2 l 7.1,0.1 q 3.9,0.35 6.75,1.55 3.45,1.4 5.65,4.2 2.4,3 2.3,6.35 -0.2,5.85 -8.35,11.3 1.75,0.75 2.4,2.8 0.65,2 -0.05,3.9 -1.05,2.85 -5.15,5.7 -7.85,5.5 -17.2,7.45 -9.65,2 -18.6,-0.25 l -3.4,-0.7 -3.05,0.35 q -4.2,0.45 -6.95,-1.7 -1.5,-1.05 -2.25,-2.75 -0.8,-1.8 -0.55,-3.55 -7.35,2.05 -14.4,-0.95 -2.25,-0.95 -3.7,-2.4 -1.7,-1.65 -2,-3.65 -0.45,-3.75 4.1,-7.5 -2.25,-2.6 -2.75,-6.25 -0.45,-3.5 0.8,-6.9 2.4,-6.3 9.3,-10 7.15,-3.85 15.1,-3.1 -0.65,-4.3 1.4,-8.5 2.05,-4.1 5.85,-6.5 3.6,-2.3 8.2,-2.8 4.35,-0.5 8.7,0.75 4.4,1.2 6.95,3.75"
         fill="#000000"
         fill-rule="evenodd"
         stroke="none"
         id="path1" />
      <path
         d="m -2.15,-21.55 0.65,-5.15 q 0.2,-1.45 0.6,-2.05 0.5,-0.75 1.4,-1 l 1.75,0.2 q 1.35,0.7 1.65,2.7 l 0.05,0.15 q -0.8,0.15 -1.2,1.5 -0.35,1.65 0.1,4.95 0.45,3.3 0.05,4.9 -0.25,1.15 -1,1.85 -1,0.8 -1.9,0.25 -0.75,-1.6 -0.65,-3.55 l 0.35,-2.95 q 0.2,-1.75 -0.3,-2.8 -0.5,-0.35 -1.1,0.2 l -0.45,0.8 M -23.8,1.6 -21.15,1.4 q 3.1,-0.1 5.65,0.8 l 0.2,0.1 -0.65,1.35 q -0.75,2.2 0.2,4 0.6,0.9 1.7,1.6 l 0.9,0.45 1.95,0.65 3.45,0.15 Q -5.4,10.2 -3.5,9.1 L -2.7,8.55 -4.8,7.8 -10.35,6.2 -10.6,4.35 -10.1,2.7 -9.25,2.25 Q -6.8,1.2 -3.45,1 q 2,-0.15 6,0.05 l 2.65,0.3 h 0.15 q 1.5,0.25 2.6,0.85 0.8,0.35 1,1 0.3,0.95 -0.7,1.65 L 8.05,4.95 6.55,5.6 5.6,5.9 4.95,6.1 q -0.8,0.35 -1.3,1 -0.6,0.7 -0.4,1.45 l 0.2,0.4 0.9,0.75 1.7,0.35 q 3.45,0 5.7,-2.1 l 1.1,-1.3 6.4,0.75 q 0.1,0.75 0.7,1.5 0.85,0.95 2.15,1.45 l 2.45,0.7 2.4,0.8 Q 21.85,17.6 13.4,20.1 10.45,21 7.1,21.4 H 6.95 l -7.3,0.35 H -1 l -1.5,-0.1 Q -5.6,21.4 -7.15,20.5 l -0.15,-0.1 -0.65,-0.55 -1.2,-1.5 q -0.7,-0.85 -1.4,-1.1 -1.35,-0.5 -2.3,0.5 l -1.15,1.8 q -0.55,0.75 -1.5,1.1 l -1.8,0.05 q -0.9,-0.3 -1.5,-1.1 -0.55,-0.75 -0.6,-1.7 -0.05,-0.65 0.65,-2.85 0.3,-0.95 0.3,-1.65 -0.05,-0.55 -0.25,-0.95 l -0.05,-0.1 q -0.35,-0.65 -1.2,-0.95 l -1.65,-0.15 -3.05,1.05 q -3,1.25 -6.35,1.05 -3.3,-0.2 -6.2,-1.7 -1.25,-0.75 -1.2,-1.55 l 0.5,-1 q 0.65,-0.65 2,-1.4 l 1.3,-0.75 0.05,-0.05 4.15,-1.8 q 3.4,-1.35 6.7,-1.35 0.45,-0.3 0.45,-0.9 0.05,-0.55 -0.3,-1 L -23.8,1.6 m 11.95,2.85 0.75,0.9 0.45,0.75 -1.4,-0.35 q -0.1,-0.65 0.2,-1.3"
         fill="#d0cd91"
         fill-rule="evenodd"
         stroke="none"
         id="path2" />
      <path
         d="M 3.95,-26.7 3.9,-26.85 q -0.3,-2 -1.65,-2.7 l -1.75,-0.2 q -0.9,0.25 -1.4,1 -0.4,0.6 -0.6,2.05 l -0.65,5.15 -0.15,0.3 q -1.1,3.5 -0.9,6.4 0.3,3.65 2.6,4.9 l 3.05,0.15 q 1.6,-0.55 2.55,-1.9 1.55,-2.05 1.65,-6.15 0,-2.2 -0.35,-3.25 l -0.6,-2 -0.05,-1.1 -0.05,-1.15 q -0.1,-0.6 -0.55,-1 -0.45,-0.45 -1,-0.4 l -0.1,0.05 M -23.8,1.6 q -0.65,-0.45 -1.75,-0.6 -2.9,-0.4 -6.8,0.85 -0.4,-0.6 -1.25,-1.1 l -1.85,-1.1 q -1.1,-0.85 -1.5,-2.3 -0.4,-1.35 -0.15,-2.8 0.4,-2.35 2.65,-4.9 3.15,-3.4 7.75,-4.8 l 9.1,-0.35 2.4,0.45 q 1.35,0.1 2.15,-0.55 1.05,-0.8 1.15,-2.9 l -0.05,-4.15 q -0.05,-2.55 0.4,-4.1 1.15,-4 5.25,-6 3.65,-1.75 7.95,-1.25 3.75,0.35 6,2.15 1.75,1.35 2.75,3.6 0.9,2.05 0.95,4.45 0.05,4 -2.1,8.85 -1.1,2.55 -1.15,3.6 v 0.2 q 0,0.9 0.4,1.65 l 0.2,0.35 1.15,0.9 q 0.95,0.35 2.9,-0.35 l 0.55,-0.2 q 5.5,-2.2 11.5,-1.4 3.05,0.4 5.25,1.85 Q 32.6,-6.7 33,-4.2 29.85,1.1 23.9,3.2 21.75,3.9 20.95,4.4 19.7,5.1 19.35,6.2 L 19.2,6.6 19.25,7.4 12.85,6.65 13.2,6 13.45,5.35 Q 14,3.8 13.65,2.3 L 13.4,1.55 Q 12.9,0.25 11.65,-0.8 10.2,-2 8.25,-2.65 L 5.2,-3.25 2.75,-3.4 -0.3,-3.45 -4.9,-3.2 -9.4,-2.3 q -2.3,0.8 -4,2.25 -1.2,1.05 -1.9,2.35 l -0.2,-0.1 q -2.55,-0.9 -5.65,-0.8 l -2.65,0.2"
         fill="#8ab484"
         fill-rule="evenodd"
         stroke="none"
         id="path3" />
    </g>
    <g
       id="sprite1"
       transform="translate(17.4,15.85)">
      <use
         ffdec:characterId="31"
         height="57.200001"
         transform="matrix(0.5366,0,0,0.5366,-16.6582,-14.546)"
         width="70.75"
         xlink:href="#sprite2"
         id="use3" />
    </g>
    <g
       id="sprite2"
       transform="translate(-8.65,-10.35)">
      <use
         ffdec:characterId="30"
         height="57.200001"
         transform="translate(8.65,10.35)"
         width="70.75"
         xlink:href="#shape1"
         id="use4" />
    </g>
    <g
       id="shape1"
       transform="translate(-8.65,-10.35)">
      <path
         d="m 14.8,41.7 q 0.65,-1.75 2.65,-2.5 1.8,-0.8 3.7,-0.25 1.15,0.45 2.25,1.2 l 0.9,0.4 q 1.65,0.9 2.85,2.5 L 37.8,30.1 q 2.35,-2.8 3.75,-3.95 1.5,-1.15 4.25,-2.4 18.2,-8.85 27.65,-12.6 2.15,-0.8 3.25,-0.8 h 0.8 l 1.9,2.4 -0.2,0.8 q -0.2,1.1 -1.55,3 -5.85,8.25 -18.85,23.8 -1.85,2.35 -3.35,3.5 -1.4,1.15 -4.75,2.75 l -15.15,7.15 q 1.2,1.6 1.75,3.4 l 0.2,1 0.55,2.5 q 0.1,1.95 -1.1,3.55 -1.2,1.65 -3.05,1.9 l -1.3,0.05 q -1.65,0.2 -3.45,-0.65 -1.85,-0.9 -3,-2.6 L 25,60.95 23.8,62.1 q -2.6,2.85 -4.3,3.95 -2.85,1.8 -5.5,1.45 l -1.65,-0.5 -1.2,-0.7 -0.2,-0.2 q -1,-0.85 -1.6,-1.9 L 9.25,64 9.15,63.8 8.75,62.4 q -0.2,-0.8 -0.05,-1.7 0.25,-2.65 2.7,-5.05 1.5,-1.3 4.9,-3.15 L 17.7,51.55 16.05,50 q -1.35,-1.5 -1.8,-3.6 -0.4,-1.85 0.25,-3.45 l 0.3,-1.25"
         fill="#000000"
         fill-opacity="0.372549"
         fill-rule="evenodd"
         stroke="none"
         id="path4" />
    </g>
  </defs>
</svg>
