<?xml version="1.0" encoding="UTF-8" standalone="no"?>
<svg
   ffdec:objectType="frame"
   height="94.630249"
   width="58.134037"
   version="1.1"
   id="svg6"
   xmlns:xlink="http://www.w3.org/1999/xlink"
   xmlns="http://www.w3.org/2000/svg"
   xmlns:svg="http://www.w3.org/2000/svg"
   xmlns:ffdec="https://www.free-decompiler.com/flash">
  <g
     transform="translate(26.0725,46.487121)"
     id="g1">
    <use
       ffdec:characterId="17"
       height="119.15"
       id="rarity"
       transform="translate(-58.5,-60.65)"
       width="119.15"
       xlink:href="#sprite0" />
    <use
       ffdec:characterId="456"
       height="94.650002"
       transform="translate(-26.05,-46.5)"
       width="58.099998"
       xlink:href="#shape0"
       id="use1" />
  </g>
  <defs
     id="defs6">
    <g
       id="shape0"
       transform="translate(25.65,45.7)">
      <path
         d="m 22.95,-28.6 q 1.05,2.75 -0.3,5.55 l -0.8,1.3 q -2.7,3.8 -7.05,3.25 l -1.1,-0.2 Q 10.45,-19.45 9.45,-22.05 9.05,-23 8.95,-24.2 v -0.1 q -0.45,-6.3 5.15,-8.75 4.75,-1.25 7.35,2 l 0.55,0.7 0.95,1.75 m 2.3,3.95 1.8,-5.4 -0.95,-0.8 -1.45,-1.1 q -7.55,-5.55 -17.2,-6.8 l -13.3,-0.85 h -5.3 l -1,0.15 -3.5,0.2 -0.4,0.25 -0.1,0.15 -0.55,11.7 3.65,-1.95 q 0.85,-0.35 1.65,-0.95 1.4,-0.35 2.7,-1.1 v -0.05 q 0.5,0.15 0.65,0.6 l 0.05,0.4 -0.1,0.25 -0.1,0.2 q -1.15,0.95 -2.5,1.5 l -0.35,0.45 -0.3,0.4 -0.3,0.2 -0.4,0.25 -0.55,0.65 -0.25,0.4 q -1.95,1.65 -4.1,2.65 l -0.1,2 2.4,0.75 0.6,0.2 1.2,0.25 0.55,0.4 0.9,0.5 0.15,0.2 0.2,0.2 0.9,0.5 0.15,0.15 0.05,0.45 q 0,0.4 -0.4,0.65 -3.4,-0.2 -6.95,-1.1 l -0.15,1.75 -0.55,7 5,-0.25 q 1.3,-0.15 2.2,0.6 l 0.1,0.1 0.05,0.1 v 0.2 0.2 l -0.15,0.25 -0.05,0.05 q -1.9,0.65 -4,0.9 l -3.35,0.5 -0.7,6.9 q -0.65,6.5 -0.65,13.1 l 3.25,0.05 30.05,1.25 0.05,-0.45 0.1,-0.4 q 0.2,-2.15 0.9,-4.1 L 14.9,9.45 15,8.8 16.1,4.3 q 0.1,-0.5 0.35,-0.85 1.25,-6.1 3.4,-12.05 l 2.7,-7.9 1.6,-5.15 0.6,-1.8 0.5,-1.2 m -36.9,-21 q 13.4,-0.35 26.35,2.6 l 2.15,0.55 q 9.9,2.7 15.3,11 0.45,0.65 0.25,1.5 -1.4,6.1 -3.9,12.1 l -1.65,4 -0.65,2.65 -2.45,7.1 -4.05,11.5 V 7.6 l -0.45,1.95 -0.8,2.35 -1.1,3.65 q -0.2,0.6 -0.1,1.25 -0.55,2.05 -1.8,3.1 0.25,1.35 -0.15,3.15 L 13.45,31.3 Q 12,39.6 6.9,46.3 5.85,47.7 4.1,48.2 -5.15,51 -9.5,43.25 q -0.5,-0.9 -0.55,-2 -0.55,-9 5.1,-16.05 l 2.95,-3.65 0.1,-2 -22.4,-0.95 q -0.5,0 -0.65,-0.55 -0.85,-3.75 -0.7,-7.9 0.45,-12.6 2.25,-24.95 0.65,-4.6 0.75,-9.4 0.2,-9.45 1.55,-18.8 0.15,-1.1 1.3,-1.4 4.05,-1.05 8.15,-1.25 m 29.25,16.9 -2.65,0.15 -0.3,0.25 q -0.7,0.55 -0.95,1.45 l -0.25,0.45 v 0.2 l 0.05,1.5 q 0.05,0.45 0.25,0.85 2.55,1.9 4.8,-0.35 0.9,-0.9 1.05,-2.15 l -0.05,-0.2 -0.8,-1.5 -0.35,-0.6 h -0.1 l -0.7,-0.05 M 8.95,26.3 9.6,20.55 4.8,19.9 4,19.85 q -1.55,4.85 -4.2,9.4 l -1.6,2.55 q -2.9,4.25 -2.25,9.55 3.25,2.85 7.35,1 2.5,-3.75 3.6,-8.2 0.35,-1.55 1.05,-2.95 l 0.1,-0.9 q 0.05,-0.8 0.5,-1.5 l 0.4,-2.5"
         fill="#000000"
         fill-rule="evenodd"
         stroke="none"
         id="path1" />
      <path
         d="m 26.1,-30.85 -0.2,0.1 -0.15,0.2 -0.15,0.2 -1.35,0.9 -0.1,0.2 -0.1,0.2 q -0.5,0.4 -1.1,0.45 L 22,-30.35 q 1.25,-0.9 2.65,-1.6 l 1.45,1.1 m -3.45,7.8 2.6,-1.6 -0.5,1.2 -0.6,1.8 Q 14.65,-14.3 3.9,-8.6 -1.75,-5.55 -7.05,-1.9 l -5.65,3.65 q -1.3,6 -3.6,11.6 l -3.25,-0.05 q 0,-6.6 0.65,-13.1 l 0.7,-6.9 3.35,-0.5 q 2.1,-0.25 4,-0.9 l -0.7,4.05 2.7,-1.55 Q 3,-12 14.8,-18.5 q 4.35,0.55 7.05,-3.25 l 0.8,-1.3 M -5.85,-39.6 q 0.2,0.55 0.1,1.15 -0.05,0.6 -0.45,1.05 l -0.15,1.1 -0.25,1.9 q -0.05,0.6 -0.45,1.05 l -0.3,2.15 -0.6,3.2 -0.25,1.1 v 0.85 l -0.1,1.3 -0.35,1.3 0.05,0.85 q 0.1,0.8 -0.15,1.55 l -0.45,1.25 -0.45,3.6 0.9,-0.4 q 5,-2 9.9,-4.3 3.9,-1.9 7.8,-3.4 v 0.1 q 0.1,1.2 0.5,2.15 -3.4,2.2 -7.3,3.9 -2.95,1.3 -5.75,2.9 -0.85,0.5 -1.8,0.75 l -4.95,3.4 -0.35,2.2 -0.1,-0.1 q -0.9,-0.75 -2.2,-0.6 l -5,0.25 0.55,-7 0.15,-1.75 q 3.55,0.9 6.95,1.1 0.4,-0.25 0.4,-0.65 l -0.05,-0.45 -0.15,-0.15 -0.9,-0.5 -0.2,-0.2 -0.15,-0.2 -0.9,-0.5 -0.55,-0.4 -1.2,-0.25 -0.6,-0.2 -2.4,-0.75 0.1,-2 q 2.15,-1 4.1,-2.65 l 0.25,-0.4 0.55,-0.65 0.4,-0.25 0.3,-0.2 0.3,-0.4 0.35,-0.45 q 1.35,-0.55 2.5,-1.5 l 0.1,-0.2 0.1,-0.25 -0.05,-0.4 q -0.15,-0.45 -0.65,-0.6 v 0.05 q -1.3,0.75 -2.7,1.1 -0.8,0.6 -1.65,0.95 l -3.65,1.95 0.55,-11.7 0.1,-0.15 0.4,-0.25 3.5,-0.2 1,-0.15 h 5.3 m -8.2,19.3 0.6,-2.15 q 0.3,-0.75 -0.1,-0.7 -0.6,0.9 -0.55,2.1 l 0.05,0.75"
         fill="#ffffff"
         fill-rule="evenodd"
         stroke="none"
         id="path2" />
      <path
         d="m 22.95,-28.6 q 0.6,-0.05 1.1,-0.45 l 0.1,-0.2 0.1,-0.2 1.35,-0.9 0.15,-0.2 0.15,-0.2 0.2,-0.1 0.95,0.8 -1.8,5.4 -2.6,1.6 q 1.35,-2.8 0.3,-5.55 m 1.7,-3.35 q -1.4,0.7 -2.65,1.6 l -0.55,-0.7 q -2.6,-3.25 -7.35,-2 -5.6,2.45 -5.15,8.75 -3.9,1.5 -7.8,3.4 -4.9,2.3 -9.9,4.3 l -0.9,0.4 0.45,-3.6 0.45,-1.25 q 0.25,-0.75 0.15,-1.55 l -0.05,-0.85 0.35,-1.3 0.1,-1.3 v -0.85 l 0.25,-1.1 0.6,-3.2 0.3,-2.15 q 0.4,-0.45 0.45,-1.05 l 0.25,-1.9 0.15,-1.1 q 0.4,-0.45 0.45,-1.05 0.1,-0.6 -0.1,-1.15 l 13.3,0.85 q 9.65,1.25 17.2,6.8 m -15.2,9.9 q 1,2.6 4.25,3.35 l 1.1,0.2 Q 3,-12 -8.85,-5.6 l -2.7,1.55 0.7,-4.05 0.05,-0.05 0.15,-0.25 v -0.2 -0.2 l -0.05,-0.1 0.35,-2.2 4.95,-3.4 q 0.95,-0.25 1.8,-0.75 2.8,-1.6 5.75,-2.9 3.9,-1.7 7.3,-3.9 m 14.7,0.4 -1.6,5.15 -2.7,7.9 Q 17.7,-2.65 16.45,3.45 16.2,3.8 16.1,4.3 L 15,8.8 14.9,9.45 14.8,9.65 q -0.7,1.95 -0.9,4.1 l -0.1,0.4 -0.05,0.45 -30.05,-1.25 q 2.3,-5.6 3.6,-11.6 l 5.65,-3.65 q 5.3,-3.65 10.95,-6.7 10.75,-5.7 20.25,-13.05"
         fill="#bdbdbd"
         fill-rule="evenodd"
         stroke="none"
         id="path3" />
      <path
         d="M -0.2,29.25 Q 2.45,24.7 4,19.85 l 0.8,0.05 4.8,0.65 -0.65,5.75 -0.7,0.8 Q 4.4,31.15 -0.2,29.25"
         fill="#5f5f5f"
         fill-rule="evenodd"
         stroke="none"
         id="path4" />
      <path
         d="m -0.2,29.25 q 4.6,1.9 8.45,-2.15 l 0.7,-0.8 -0.4,2.5 q -0.45,0.7 -0.5,1.5 l -0.1,0.9 q -0.7,1.4 -1.05,2.95 -1.1,4.45 -3.6,8.2 -4.1,1.85 -7.35,-1 -0.65,-5.3 2.25,-9.55 l 1.6,-2.55"
         fill="#727272"
         fill-rule="evenodd"
         stroke="none"
         id="path5" />
    </g>
    <g
       id="sprite1"
       transform="translate(17.4,15.85)">
      <use
         ffdec:characterId="31"
         height="57.200001"
         transform="matrix(0.5366,0,0,0.5366,-16.6582,-14.546)"
         width="70.75"
         xlink:href="#sprite2"
         id="use5" />
    </g>
    <g
       id="sprite2"
       transform="translate(-8.65,-10.35)">
      <use
         ffdec:characterId="30"
         height="57.200001"
         transform="translate(8.65,10.35)"
         width="70.75"
         xlink:href="#shape1"
         id="use6" />
    </g>
    <g
       id="shape1"
       transform="translate(-8.65,-10.35)">
      <path
         d="m 14.8,41.7 q 0.65,-1.75 2.65,-2.5 1.8,-0.8 3.7,-0.25 1.15,0.45 2.25,1.2 l 0.9,0.4 q 1.65,0.9 2.85,2.5 L 37.8,30.1 q 2.35,-2.8 3.75,-3.95 1.5,-1.15 4.25,-2.4 18.2,-8.85 27.65,-12.6 2.15,-0.8 3.25,-0.8 h 0.8 l 1.9,2.4 -0.2,0.8 q -0.2,1.1 -1.55,3 -5.85,8.25 -18.85,23.8 -1.85,2.35 -3.35,3.5 -1.4,1.15 -4.75,2.75 l -15.15,7.15 q 1.2,1.6 1.75,3.4 l 0.2,1 0.55,2.5 q 0.1,1.95 -1.1,3.55 -1.2,1.65 -3.05,1.9 l -1.3,0.05 q -1.65,0.2 -3.45,-0.65 -1.85,-0.9 -3,-2.6 L 25,60.95 23.8,62.1 q -2.6,2.85 -4.3,3.95 -2.85,1.8 -5.5,1.45 l -1.65,-0.5 -1.2,-0.7 -0.2,-0.2 q -1,-0.85 -1.6,-1.9 L 9.25,64 9.15,63.8 8.75,62.4 q -0.2,-0.8 -0.05,-1.7 0.25,-2.65 2.7,-5.05 1.5,-1.3 4.9,-3.15 L 17.7,51.55 16.05,50 q -1.35,-1.5 -1.8,-3.6 -0.4,-1.85 0.25,-3.45 l 0.3,-1.25"
         fill="#000000"
         fill-opacity="0.372549"
         fill-rule="evenodd"
         stroke="none"
         id="path6" />
    </g>
  </defs>
</svg>
