<?xml version="1.0" encoding="UTF-8" standalone="no"?>
<svg
   ffdec:objectType="frame"
   height="87.305359"
   width="90.028572"
   version="1.1"
   id="svg5"
   sodipodi:docname="ITEM Cardboard Necklace.svg"
   xmlns:inkscape="http://www.inkscape.org/namespaces/inkscape"
   xmlns:sodipodi="http://sodipodi.sourceforge.net/DTD/sodipodi-0.dtd"
   xmlns:xlink="http://www.w3.org/1999/xlink"
   xmlns="http://www.w3.org/2000/svg"
   xmlns:svg="http://www.w3.org/2000/svg"
   xmlns:ffdec="https://www.free-decompiler.com/flash">
  <sodipodi:namedview
     id="namedview5"
     pagecolor="#ffffff"
     bordercolor="#000000"
     borderopacity="0.25"
     inkscape:showpageshadow="2"
     inkscape:pageopacity="0.0"
     inkscape:pagecheckerboard="0"
     inkscape:deskcolor="#d1d1d1"
     fit-margin-top="5"
     fit-margin-left="5"
     fit-margin-right="5"
     fit-margin-bottom="5" />
  <g
     transform="translate(46.65,42.6)"
     id="g1">
    <use
       ffdec:characterId="17"
       height="119.15"
       id="rarity"
       transform="translate(-58.5,-60.65)"
       width="119.15"
       xlink:href="#sprite0" />
    <use
       ffdec:characterId="751"
       height="87.300003"
       transform="translate(-46.65,-42.6)"
       width="90.050003"
       xlink:href="#shape0"
       id="use1" />
  </g>
  <defs
     id="defs5">
    <g
       id="shape0"
       transform="translate(47.2,43.35)">
      <path
         d="m -15.25,5.65 -0.55,-3.2 -1,-8.7 -0.4,-3.25 q -0.75,-4.65 4.3,-5.5 2.3,-0.35 4.55,-1 8.45,-2.3 16.95,-3.6 2.15,-0.25 4.15,0.05 5.45,-1.65 11.2,-2.2 l 2.75,-0.5 5.55,-1.1 0.25,-0.75 -0.1,-0.45 -0.35,-0.9 -0.25,-0.6 -0.1,-0.85 v -0.2 q -0.65,-1.45 -0.95,-3 l -0.4,-1.95 -0.55,-1.8 q -0.55,-1.2 -0.8,-2.5 l -0.65,-1.7 -2.75,-0.1 -0.2,0.05 q -12.75,2.5 -25.65,4.2 l -6.75,1 q 2.35,4.85 0.25,9.65 l -0.65,0.4 q -11.65,1.5 -23.2,3.95 -0.8,0.2 -1.35,-0.5 l -0.05,-0.2 -0.1,-0.2 -0.05,-0.2 q -0.05,-3.2 -0.7,-6.25 l -0.15,-1.2 q -2,0.55 -3.9,1.65 l 0.6,6 q 0.3,3.55 1.3,6.95 l 1.5,6.1 1.65,8 0.2,1 0.15,0.7 0.55,0.25 q 2.1,1.05 3.7,3.05 l 0.05,0.05 q 0.8,1.05 0.8,2.35 v 0.4 l 0.25,-0.05 -0.1,0.2 q 2.2,0 4.35,-0.85 l 1.7,-0.55 q 0.75,0.05 1.45,0.45 l 0.2,0.15 0.2,0.2 -0.05,0.2 -0.15,0.4 v 0.1 l -0.15,0.15 -5.15,1.8 -0.3,0.15 h -0.1 l -0.6,0.2 q -1.45,1.15 -3.15,1.55 l -0.65,0.85 -0.05,4.5 v 3.65 l -0.1,4.75 q -0.1,2.85 0.3,5.55 l 0.05,0.65 0.2,0.65 0.15,1.1 v 1.05 1.05 0.25 L 1.75,34.45 8.9,33.85 38.4,30.8 v -0.2 l -0.05,-0.2 v -0.2 -0.25 -0.2 Q 37.55,27.9 37.4,25.9 l -0.1,-2.6 q 0.1,-1.85 -0.2,-3.65 -0.45,-2.3 -0.6,-4.7 L 36.55,13.65 35.6,8.1 35.2,5 34.85,2.7 34.6,1 33.4,-5.2 q -0.6,-2.7 -0.9,-5.45 l -0.1,-0.8 q -0.55,-1.4 -0.75,-2.9 l -0.1,-0.5 -0.55,-2.3 q -0.4,-1.05 -0.45,-2.2 l -1,0.2 q -0.65,0.75 -2.05,0.8 l -1,0.1 q -4.6,1.4 -9.3,1.65 v 0.15 0.2 0.25 l 0.1,0.2 0.15,0.2 0.2,0.65 0.05,1.1 v 0.2 l 0.55,2.75 0.4,2.3 2.7,14.85 q 0.5,3.1 -0.4,6.1 l -0.1,0.3 -0.2,0.4 L 29,12.1 q 0.85,-0.75 1.95,-0.9 l 0.1,-0.05 0.45,-0.05 0.75,0.25 h 0.05 l 0.35,0.15 0.35,0.55 v 0.1 l 0.15,1.1 0.45,1.05 0.15,1.3 q 0.75,2.35 1,4.95 l 0.3,2.55 q 0.45,1 0.5,2.15 l 0.3,1.7 -0.1,0.4 -0.5,0.7 q -10.9,1.2 -21.8,3.15 -1.85,0.5 -3.5,-0.4 L 9.45,30.15 9.25,29.7 V 29.1 L 9.1,28.9 8.95,28.7 8.85,28.55 8.65,28.25 V 26.6 l -0.5,-7.15 q -0.2,-2 0.45,-3.85 l 0.2,-0.15 -1,0.1 -19.75,2.05 q -0.85,0.1 -1,-0.75 L -14.2,10.9 -14.55,9.3 -14.7,8.55 -14.9,7.6 l -0.15,-0.75 -0.2,-1.2 m 44.25,-49 q 4.55,0.4 5,5.5 0.2,2.4 1.05,4.75 1.9,5.25 2.05,10.5 l -0.25,1.3 q -0.5,1.25 -1.5,2.15 2.3,11.4 3.9,22.95 1.35,9.85 2.1,19.75 l 0.95,3.8 q 0.45,2.15 0.4,4.35 0.9,4.45 -4.5,4.4 Q 27.45,36 16.9,37.65 L -0.4,39.4 q -14.4,0.75 -28.5,3.7 l -3,-0.05 q -1.7,1.95 -4.7,-0.3 -1.3,-0.95 -2.75,-1.7 L -39.9,40.5 -40,32.55 q -0.05,-3.3 0.55,-6.45 v -1.95 -1.5 q -0.65,-2.8 -0.5,-5.8 l 0.4,-4.5 0.15,-0.2 0.35,-0.45 0.1,-0.2 -4.6,-4.2 -0.7,-1.15 V 5.95 5.5 5.1 q -0.8,-3.35 -1.05,-6.9 l -0.1,-5.35 q -0.8,-3.05 -1.1,-6.2 -0.25,-2.45 -0.05,-4.95 -0.6,-1.45 -0.65,-3 l 0.25,-1.95 q 2.65,-3 5.8,-5.5 l 0.05,-0.3 0.7,-0.75 q 11.25,-4.7 23.35,-6.65 L -2.5,-38.8 29,-43.35 M -6.4,-11.7 q -3.15,0.9 -5.75,2.25 l 0.4,1.5 q 1.2,-1.25 3.6,-1.35 l 4.45,-0.4 q 6.85,-0.85 13.25,-2.75 l 0.6,0.05 1.8,-2.45 Q 2.55,-14.2 -6.4,-11.7 M 17.25,8.95 V 8.5 L 17.15,6.8 17.05,5.75 16.95,4 V 2.7 L 16.4,1.05 Q 16.1,-0.3 16.05,-1.8 16,-3.6 15.55,-5.45 15.25,-6.8 15.2,-8.2 l -0.15,-0.25 -0.4,-1.2 -0.3,-1.55 -0.25,-1.55 q -0.15,-0.5 -0.15,-1.05 v -0.1 l -0.15,0.3 -2.15,3.1 1.5,4.75 q 0.3,1.4 0,2.9 0.75,2 1,4.1 0.1,1.2 0.6,2.35 L 14.8,4 14.75,4.2 V 4.65 Q 15.2,5.9 15.2,7.2 l -0.1,2.15 0.05,0.15 2.1,-0.55 M -11.35,-4.7 q 0.25,6.3 1.5,12.5 L -8.8,12.85 9.35,10.6 13.1,9.95 11.8,2.3 10.95,-1.05 10.65,-1.5 10.55,-1.7 Q 10.5,-4.2 9.7,-6.5 L 9.35,-7.9 9.15,-7.85 8.4,-8.25 8.15,-8.45 v -0.3 l -19.5,3.85 v 0.2 m 40.85,18.55 -14.2,2.2 q -2.15,0.4 -3.9,1.25 l -0.35,0.15 -0.1,0.45 v 0.2 0.5 0.15 0.4 q 0.4,0.9 0.35,1.95 l -0.05,1.5 0.15,2.35 0.05,1.95 0.1,0.2 0.15,0.25 0.15,0.2 0.2,0.4 20.05,-2.35 0.8,-0.2 v -0.25 -0.2 -0.2 -0.2 L 32.7,24.1 32.6,23.9 32.5,23.25 V 22.8 Q 32.2,22.3 32.2,21.75 V 20.9 L 32.15,20.25 31.95,19.6 31.65,18.95 31.5,17.65 31.3,16.6 31,15.75 30.4,14 30.25,13.95 h -0.1 L 29.75,13.9 29.5,13.85 M -4.25,31.15 -4.3,30.95 V 30.4 l 0.05,-0.5 -0.25,-0.85 -0.3,-1.65 -0.05,-0.75 0.15,-1.7 0.15,-0.2 0.65,-0.6 6.7,-1.75 1.6,-0.15 0.45,0.15 0.3,0.2 0.3,0.65 0.3,0.85 v 0.2 0.45 0.2 L 5.8,25 q 0.4,1.15 0.45,2.4 l -0.1,1 L 6,29.5 5.95,30.2 v 0.1 q -0.85,1.4 -2.5,1.85 l -0.3,0.1 -6.2,0.65 q -1,-0.7 -1.2,-1.75 m 7.65,-6.55 -4.5,1.15 -1.4,0.5 v 0.65 l 0.05,0.65 0.3,1.05 q 0.25,0.6 0.15,1.3 2.9,0 6,-1.05 Q 4.5,28.7 4.8,28.4 L 4.75,27.95 V 27.55 27.3 L 4.15,26.1 4.05,25.4 V 25.2 Q 4.15,24.3 3.4,24.6 M -31.5,9.15 -31.8,8.95 -32.4,8.5 -32.9,8.15 q -4.3,-1.75 -4.55,-6.75 -0.05,-1.6 -0.45,-3.2 -1.2,-4.65 -1.5,-9.5 l -1,-2.55 q -0.7,-1.8 -0.65,-3.65 -0.75,-3.05 -0.7,-6.05 l -1.95,1.8 1.45,15.25 0.8,8.55 0.45,1.3 0.2,1.3 q 1.15,1.85 2.95,3.15 l 0.8,0.5 1.1,0.95 4.3,0.1 0.15,-0.2 m 16.65,-40.75 q -8,1.5 -15.9,3.55 0.2,0.65 0.15,1.3 0.55,1.3 0.55,2.8 l 0.3,1.9 q 10.25,-2.55 21.05,-4.4 l -0.45,-1.7 v -1.55 l -0.8,-2.35 -0.05,-0.4 -4.85,0.85 m -18.5,69.85 q 0.45,-2.4 0.25,-4.85 -0.75,-9.1 -0.65,-18.25 0.05,-1.7 0.6,-3.2 l -1.4,0.2 -0.95,0.1 -0.8,1.6 0.05,3.9 v 3.2 q 0.6,1.85 0.55,3.85 0,1.6 -0.55,3 l 0.05,5.6 0.1,4.5 2.6,1.55 0.15,-1.2"
         fill="#000000"
         fill-rule="evenodd"
         stroke="none"
         id="path1" />
      <path
         d="m 29.5,13.85 0.25,0.05 0.4,0.05 h 0.1 l 0.15,0.05 0.6,1.75 0.3,0.85 0.2,1.05 0.15,1.3 0.3,0.65 0.2,0.65 0.05,0.65 v 0.85 q 0,0.55 0.3,1.05 v 0.45 l 0.1,0.65 0.1,0.2 0.2,0.45 v 0.2 0.2 0.2 0.25 l -0.8,0.2 -20.05,2.35 -0.2,-0.4 -0.15,-0.2 -0.15,-0.25 -0.1,-0.2 -0.05,-1.95 -0.15,-2.35 0.05,-1.5 q 0.05,-1.05 -0.35,-1.95 v -0.4 -0.15 -0.5 -0.2 l 0.1,-0.45 0.35,-0.15 q 1.75,-0.85 3.9,-1.25 l 14.2,-2.2 M 3.4,24.6 q 0.75,-0.3 0.65,0.6 v 0.2 l 0.1,0.7 0.6,1.2 v 0.25 0.4 L 4.8,28.4 Q 4.5,28.7 4,28.85 0.9,29.9 -2,29.9 -1.9,29.2 -2.15,28.6 L -2.45,27.55 -2.5,26.9 v -0.65 l 1.4,-0.5 4.5,-1.15 m -18.25,-56.2 4.85,-0.85 0.05,0.4 0.8,2.35 v 1.55 l 0.45,1.7 q -10.8,1.85 -21.05,4.4 l -0.3,-1.9 q 0,-1.5 -0.55,-2.8 0.05,-0.65 -0.15,-1.3 7.9,-2.05 15.9,-3.55"
         fill="#c9bfb8"
         fill-rule="evenodd"
         stroke="none"
         id="path2" />
      <path
         d="m -27.2,6.3 0.2,0.05 v 0.1 l 0.15,0.15 0.2,0.2 q 5.8,0.7 11.4,-1.15 l 0.2,1.2 0.15,0.75 -0.35,0.05 -3.3,0.75 -0.2,-0.15 q -0.7,-0.4 -1.45,-0.45 l -1.7,0.55 q -2.15,0.85 -4.35,0.85 l 0.1,-0.2 -0.25,0.05 v -0.4 q 0,-1.3 -0.8,-2.35 m 36.45,23.4 0.2,0.45 0.5,0.65 q 1.65,0.9 3.5,0.4 10.9,-1.95 21.8,-3.15 l 0.5,-0.7 0.1,-0.4 -0.3,-1.7 Q 35.5,24.1 35.05,23.1 l -0.3,-2.55 q -0.25,-2.6 -1,-4.95 L 33.6,14.3 33.15,13.25 33,12.15 v -0.1 l 0.15,-0.8 q 0.4,-1.85 0.4,-3.8 L 33.65,7.2 33.9,6.35 34,5.95 35.2,5 l 0.4,3.1 0.95,5.55 -0.05,1.3 q 0.15,2.4 0.6,4.7 0.3,1.8 0.2,3.65 l 0.1,2.6 q 0.15,2 0.95,3.85 v 0.2 0.25 0.2 l 0.05,0.2 v 0.2 L 8.9,33.85 1.75,34.45 -28.1,37.2 V 36.95 35.9 34.85 l -0.15,-1.1 -0.2,-0.65 -0.05,-0.65 q -0.4,-2.7 -0.3,-5.55 l 0.1,-4.75 V 18.5 L -28.65,14 -28,13.15 q 1.7,-0.4 3.15,-1.55 l 0.6,-0.2 h 0.1 q -1.1,0.6 -1.4,1.5 l -2.3,2.1 -0.7,3.45 q -0.3,3 0.55,5.8 v 0.85 q 0,0.85 0.5,1.5 l 0.05,0.45 v 0.2 q 1.85,2.9 5.3,3.75 l 9.2,1.85 q 5.3,0.75 8.7,-1.7 0.2,1.05 1.2,1.75 l 6.2,-0.65 0.3,-0.1 Q 5.1,31.7 5.95,30.3 v -0.1 q 1.75,0.3 3.3,-0.5 m 9,-40.6 -0.55,-2.75 v -0.2 l -0.05,-1.1 -0.2,-0.65 -0.15,-0.2 -0.1,-0.2 v -0.25 -0.2 -0.15 q 4.7,-0.25 9.3,-1.65 l 1,-0.1 q 1.4,-0.05 2.05,-0.8 l 1,-0.2 q 0.05,1.15 0.45,2.2 l 0.55,2.3 0.1,0.5 -0.45,0.05 -2.45,0.15 q -5.6,0.2 -10.2,3.15 l -0.3,0.1 M 17.25,8.95 15.15,9.5 15.1,9.35 15.2,7.2 q 0,-1.3 -0.45,-2.55 V 4.2 L 14.8,4 14.75,3.6 q -0.5,-1.15 -0.6,-2.35 -0.25,-2.1 -1,-4.1 0.3,-1.5 0,-2.9 l -1.5,-4.75 2.15,-3.1 0.15,-0.3 v 0.1 q 0,0.55 0.15,1.05 l 0.25,1.55 0.3,1.55 0.4,1.2 0.15,0.25 q 0.05,1.4 0.35,2.75 0.45,1.85 0.5,3.65 0.05,1.5 0.35,2.85 L 16.95,2.7 V 4 l 0.1,1.75 0.1,1.05 0.1,1.7 V 8.95 M -6.4,-11.7 q 8.95,-2.5 18.35,-3.15 l -1.8,2.45 -0.6,-0.05 q -6.4,1.9 -13.25,2.75 l -4.45,0.4 q -2.4,0.1 -3.6,1.35 l -0.4,-1.5 q 2.6,-1.35 5.75,-2.25 m -25.1,20.85 -0.15,0.2 -4.3,-0.1 -1.1,-0.95 -0.8,-0.5 q -1.8,-1.3 -2.95,-3.15 l -0.2,-1.3 -0.45,-1.3 -0.8,-8.55 -1.45,-15.25 1.95,-1.8 q -0.05,3 0.7,6.05 -0.05,1.85 0.65,3.65 l 1,2.55 q 0.3,4.85 1.5,9.5 0.4,1.6 0.45,3.2 0.25,5 4.55,6.75 l 0.5,0.35 0.6,0.45 0.3,0.2 m -1.85,29.1 -0.15,1.2 -2.6,-1.55 -0.1,-4.5 -0.05,-5.6 q 0.55,-1.4 0.55,-3 0.05,-2 -0.55,-3.85 v -3.2 l -0.05,-3.9 0.8,-1.6 0.95,-0.1 1.4,-0.2 q -0.55,1.5 -0.6,3.2 -0.1,9.15 0.65,18.25 0.2,2.45 -0.25,4.85"
         fill="#958d87"
         fill-rule="evenodd"
         stroke="none"
         id="path3" />
      <path
         d="m -31.65,2.25 -0.2,-1 -1.65,-8 -1.5,-6.1 q -1,-3.4 -1.3,-6.95 l -0.6,-6 q 1.9,-1.1 3.9,-1.65 l 0.15,1.2 q 0.65,3.05 0.7,6.25 l 0.05,0.2 0.1,0.2 0.05,0.2 q 0.55,0.7 1.35,0.5 11.55,-2.45 23.2,-3.95 l 0.65,-0.4 q 2.1,-4.8 -0.25,-9.65 l 6.75,-1 q 12.9,-1.7 25.65,-4.2 l 0.2,-0.05 2.75,0.1 0.65,1.7 q 0.25,1.3 0.8,2.5 l 0.55,1.8 0.4,1.95 q 0.3,1.55 0.95,3 v 0.2 l 0.1,0.85 0.25,0.6 0.35,0.9 0.1,0.45 -0.25,0.75 -5.55,1.1 -2.75,0.5 q -5.75,0.55 -11.2,2.2 -2,-0.3 -4.15,-0.05 -8.5,1.3 -16.95,3.6 -2.25,0.65 -4.55,1 -5.05,0.85 -4.3,5.5 l 0.4,3.25 1,8.7 0.55,3.2 q -5.6,1.85 -11.4,1.15 L -26.85,6.6 -27,6.45 V 6.35 L -27.2,6.3 -27.25,6.25 q -1.6,-2 -3.7,-3.05 L -31.3,2.5 -31.65,2.25 m 16.75,5.35 0.2,0.95 0.15,0.75 0.35,1.6 1.25,5.95 q 0.15,0.85 1,0.75 l 19.75,-2.05 1,-0.1 -0.2,0.15 q -0.65,1.85 -0.45,3.85 l 0.5,7.15 v 1.65 l 0.2,0.3 0.1,0.15 0.15,0.2 0.15,0.2 v 0.6 Q 7.7,30.5 5.95,30.2 L 6,29.5 l 0.15,-1.1 0.1,-1 Q 6.2,26.15 5.8,25 L 5.75,24.95 V 24.75 24.3 24.1 L 5.45,23.25 5.15,22.6 4.85,22.4 4.4,22.25 2.8,22.4 l -6.7,1.75 -0.65,0.6 -0.15,0.2 -0.15,1.7 0.05,0.75 0.3,1.65 0.25,0.85 -0.05,0.5 v 0.55 l 0.05,0.2 q -3.4,2.45 -8.7,1.7 L -22.15,31 q -3.45,-0.85 -5.3,-3.75 v -0.2 L -27.5,26.6 Q -28,25.95 -28,25.1 v -0.85 q -0.85,-2.8 -0.55,-5.8 l 0.7,-3.45 2.3,-2.1 q 0.3,-0.9 1.4,-1.5 l 0.3,-0.15 5.15,-1.8 0.15,-0.15 V 9.2 l 0.15,-0.4 0.05,-0.2 -0.2,-0.2 3.3,-0.75 0.35,-0.05 M 33,12.05 32.65,11.5 32.3,11.35 h -0.05 l -0.75,-0.25 -0.45,0.05 -0.1,0.05 q -1.1,0.15 -1.95,0.9 l -8.35,0.95 0.2,-0.4 0.1,-0.3 q 0.9,-3 0.4,-6.1 l -2.7,-14.85 -0.4,-2.3 0.3,-0.1 q 4.6,-2.95 10.2,-3.15 l 2.45,-0.15 0.45,-0.05 q 0.2,1.5 0.75,2.9 l 0.1,0.8 q 0.3,2.75 0.9,5.45 L 34.6,1 34.85,2.7 35.2,5 34,5.95 33.9,6.35 33.65,7.2 33.55,7.45 q 0,1.95 -0.4,3.8 L 33,12.05"
         fill="#b1a8a1"
         fill-rule="evenodd"
         stroke="none"
         id="path4" />
    </g>
    <g
       id="sprite1"
       transform="translate(17.4,15.85)">
      <use
         ffdec:characterId="31"
         height="57.200001"
         transform="matrix(0.5366,0,0,0.5366,-16.6582,-14.546)"
         width="70.75"
         xlink:href="#sprite2"
         id="use4" />
    </g>
    <g
       id="sprite2"
       transform="translate(-8.65,-10.35)">
      <use
         ffdec:characterId="30"
         height="57.200001"
         transform="translate(8.65,10.35)"
         width="70.75"
         xlink:href="#shape1"
         id="use5" />
    </g>
    <g
       id="shape1"
       transform="translate(-8.65,-10.35)">
      <path
         d="m 14.8,41.7 q 0.65,-1.75 2.65,-2.5 1.8,-0.8 3.7,-0.25 1.15,0.45 2.25,1.2 l 0.9,0.4 q 1.65,0.9 2.85,2.5 L 37.8,30.1 q 2.35,-2.8 3.75,-3.95 1.5,-1.15 4.25,-2.4 18.2,-8.85 27.65,-12.6 2.15,-0.8 3.25,-0.8 h 0.8 l 1.9,2.4 -0.2,0.8 q -0.2,1.1 -1.55,3 -5.85,8.25 -18.85,23.8 -1.85,2.35 -3.35,3.5 -1.4,1.15 -4.75,2.75 l -15.15,7.15 q 1.2,1.6 1.75,3.4 l 0.2,1 0.55,2.5 q 0.1,1.95 -1.1,3.55 -1.2,1.65 -3.05,1.9 l -1.3,0.05 q -1.65,0.2 -3.45,-0.65 -1.85,-0.9 -3,-2.6 L 25,60.95 23.8,62.1 q -2.6,2.85 -4.3,3.95 -2.85,1.8 -5.5,1.45 l -1.65,-0.5 -1.2,-0.7 -0.2,-0.2 q -1,-0.85 -1.6,-1.9 L 9.25,64 9.15,63.8 8.75,62.4 q -0.2,-0.8 -0.05,-1.7 0.25,-2.65 2.7,-5.05 1.5,-1.3 4.9,-3.15 L 17.7,51.55 16.05,50 q -1.35,-1.5 -1.8,-3.6 -0.4,-1.85 0.25,-3.45 l 0.3,-1.25"
         fill="#000000"
         fill-opacity="0.372549"
         fill-rule="evenodd"
         stroke="none"
         id="path5" />
    </g>
  </defs>
</svg>
