<?xml version="1.0" encoding="UTF-8" standalone="no"?>
<svg
   ffdec:objectType="frame"
   height="86.358994"
   width="99.235718"
   version="1.1"
   id="svg4"
   xmlns:xlink="http://www.w3.org/1999/xlink"
   xmlns="http://www.w3.org/2000/svg"
   xmlns:svg="http://www.w3.org/2000/svg"
   xmlns:ffdec="https://www.free-decompiler.com/flash">
  <g
     transform="translate(49.835714,44.52451)"
     id="g1">
    <use
       ffdec:characterId="17"
       height="119.15"
       id="rarity"
       transform="translate(-58.5,-60.65)"
       width="119.15"
       xlink:href="#sprite0" />
    <use
       ffdec:characterId="1090"
       height="86.349998"
       transform="translate(-49.85,-44.5)"
       width="99.25"
       xlink:href="#shape0"
       id="use1" />
  </g>
  <defs
     id="defs4">
    <g
       id="shape0"
       transform="translate(96.65,45.85)">
      <path
         d="m -89.85,-24.05 0.85,-1.1 1.3,-0.15 q 0.55,0.1 1.75,1.2 0.95,0.95 3.15,2 4.55,2.45 7.3,3.65 l 5.45,2.35 q 4.55,2.2 7.95,5.3 l -0.1,-3.65 0.35,-5.95 q 0.5,-4.3 2.6,-11.2 2.5,-8.35 3.05,-11.15 l 0.6,-1.9 q 0.55,-1.05 1.45,-1.2 1.35,-0.25 2.6,2.05 6.8,12.1 8.3,24.1 4.35,-10.95 13.65,-20.6 1.8,-1.9 3,-1.3 0.85,0.4 1.15,1.55 l 0.1,2 q -0.15,2.85 0.25,11.6 0.35,7.3 -0.25,11.55 l -1.1,5.85 q -0.45,1.95 -1,3.5 4.05,-2.05 9,-2.9 l 5.8,-0.85 7.95,-1.45 q 2.35,-0.45 3.55,-1.1 1.45,-0.7 1.95,-0.7 0.7,0 1.25,0.55 0.55,0.55 0.55,1.3 0,0.75 -0.65,2.05 -2.9,5.35 -5.05,8.2 -3.15,4.3 -6.65,6.65 -2.35,1.5 -5.5,2.45 l 1.55,1.2 4.45,3.65 q 2.95,2.2 8,4.45 1.15,0.45 1.85,0.95 0.9,0.85 0.95,1.85 0.1,1 -0.9,2.05 -1.7,1.65 -5.05,2.15 l -9.35,-0.45 q -4.6,-1.1 -8.55,-3.8 l -4.4,-3.45 q -2.65,-2.1 -4.6,-3.05 -1.3,-0.7 -3.25,-1.25 l -3.3,-0.95 -1.55,0.55 q 3.5,4.55 5.2,7.35 2.65,4.35 3.5,8.5 l 0.55,4.05 0.5,5.1 q 0.15,1.35 -0.2,2.1 -0.7,1.1 -2.25,0.75 -0.5,-0.1 -2.15,-1.15 l -4.8,-2.9 q -2.8,-1.75 -4.3,-3.55 -1.6,-1.95 -2.85,-5.35 l -1,-3.2 q -1.35,-5.55 1.05,-11.3 0.75,-1.85 1.8,-2.35 l 0.5,-0.25 0.05,-0.05 0.8,-0.9 -0.55,-1.15 -2.1,-9.75 q -2.6,5.7 -4.3,8.45 l -0.75,0.95 0.55,1.15 0.05,0.05 0.4,0.35 q 0.85,0.8 1.15,2.75 0.9,6.2 -1.7,11.2 -0.6,1.35 -1.75,2.85 -2.05,2.9 -4.05,4.35 -1.9,1.3 -5,2.25 l -5.4,1.5 -2.35,0.55 q -1.55,-0.1 -1.95,-1.4 -0.25,-0.8 0.3,-2.05 l 1.7,-4.85 1.5,-3.7 q 1.85,-3.75 5.5,-7.3 2.3,-2.25 6.75,-5.6 -0.6,-0.45 -1.35,-0.95 h -3.35 l -3.5,0.3 Q -65.3,9.7 -68.4,11 l -5.05,2.15 q -4.5,1.55 -9.2,1.35 -4.85,-0.25 -9.1,-2.15 -3.15,-1.4 -4.35,-3.45 -0.75,-1.3 -0.45,-2.3 0.3,-0.95 1.45,-1.45 l 1.95,-0.4 q 5.45,-0.8 8.8,-2.15 l 5.25,-2.35 1.75,-0.65 q -2.8,-1.85 -4.65,-3.95 -2.85,-3.2 -4.85,-8.2 -1.4,-3.35 -2.9,-9.35 -0.35,-1.45 -0.1,-2.15 m 6.8,10.4 0.4,0.95 q 1.35,3 3.05,5 2.85,3.45 8.9,6.35 1.9,0.95 2.95,1.2 l 1.9,0.35 1.85,0.3 1.55,0.55 -0.4,-0.3 -3.3,-2.7 -7.4,-5.65 q -2.15,-1.6 -2.9,-2.5 -0.6,-0.6 -0.25,-1.1 0.3,-0.25 0.95,0 2.4,1.1 6.4,3.85 l 6.2,4.55 1.35,1.1 2.45,1.95 0.95,0.8 -1.75,-2.75 -0.4,-0.65 -1.35,-1.9 -0.85,-1 q -3.75,-4.4 -9.95,-7.25 l -3.4,-1.4 q -2.1,-0.85 -3.35,-1.55 l -2.65,-1.45 -2.7,-1.4 1.75,4.65 m 36.3,-6 q -1.3,-9.45 -6.45,-19.9 l -3.2,11.8 -1.1,4.5 q -0.55,2.7 -0.7,8.2 v 4 q 0.15,1.95 0.5,3.15 l 1.65,4.15 0.6,1.5 0.35,0.45 0.95,1.6 -0.1,-5.3 q -0.05,-7.95 1,-15.95 0.1,-0.6 0.4,-0.55 l 0.25,0.45 q 0.7,3.85 1,9.4 l 0.15,5.25 0.15,4.25 0.3,4.5 2.45,-5.4 q 1.3,-3.05 1.75,-4.8 0.5,-2.05 0.5,-5.1 0,-3.05 -0.45,-6.2 m 6.15,2.75 -1.45,4.5 q -0.75,2.9 -0.75,5 -0.05,1.85 0.45,5.15 l 1.1,5.9 1.4,-4.25 1.4,-4.75 1.25,-4.4 q 1.6,-5.3 3.2,-8.8 l 0.35,-0.35 q 0.35,0.05 0.3,0.55 -0.7,6.2 -2.05,12.15 -1,4.4 -2.3,8.7 l 1.35,-1.3 0.4,-0.3 0.95,-1.3 q 2.1,-2.55 2.6,-3.55 1.25,-2.05 2.25,-6.75 l 0.4,-1.95 q 0.8,-3.95 0.95,-6.2 V -23.5 L -29,-35.75 q -8.1,9.3 -11.6,18.85 m 10,20.35 0.55,-0.25 2.7,-1.1 6.05,-2.35 q 4.5,-1.55 7.1,-1.9 0.75,-0.1 0.95,0.2 0.2,0.6 -0.5,1 -0.95,0.7 -3.4,1.6 l -5,1.95 -0.05,0.05 -4.15,1.7 -3.15,1.4 -0.45,0.25 1.6,-0.1 1.9,0.2 1.95,0.2 3.05,-0.3 q 6.55,-1.2 10.15,-3.75 2.05,-1.4 4.15,-3.9 l 0.05,-0.1 2.15,-2.95 1.2,-1.85 -2.85,0.55 -2.9,0.75 -3.65,0.55 -3.6,0.4 q -6.7,1.1 -11.4,4.3 l -0.45,0.3 -2.5,2 -0.45,0.4 -0.6,0.6 -1.75,1.55 1.1,-0.45 2.2,-0.95 m 18.2,17.25 q 4,0.8 8,0.15 l 0.1,-0.05 -0.1,-0.05 -4.35,-2.4 -4.15,-3.1 -0.3,-0.3 -2.9,-2.55 q -1.6,-1.45 -3,-2.2 l -0.6,-0.35 -1.45,0.3 -2.9,0.15 q 1.7,0.85 3.5,2 1.2,0.8 2.45,1.75 l 1,0.8 1,0.85 0.05,0.1 q 0.5,0.6 0.15,0.95 -0.25,0.3 -0.9,0 l -0.4,-0.15 -0.85,-0.45 -1.15,-0.8 -1.15,-0.5 q -3.15,-1.45 -6.4,-2.25 l 3.25,2.45 3.35,2.45 q 3.5,2.3 7.65,3.15 l 0.1,0.05 m -22.05,9 -0.1,-0.7 q -0.55,-2.95 -1.65,-5.05 l -2.45,-4.5 -1.95,-2.7 -0.15,-0.15 0.1,0.85 0.35,0.9 q 0.65,1.6 1.2,3.55 l 0.85,2.65 0.05,0.8 -0.25,0.35 -0.15,0.05 -0.45,-0.1 -0.35,-0.55 -1.1,-1.5 -2.1,-5.45 -0.25,-0.95 -0.3,-1.6 q -0.6,1.8 -0.7,4.35 -0.05,1.7 0.25,2.9 0.15,1.3 1.05,3.4 l 0.85,1.85 q 1.5,2.65 3.9,4.15 l 1.9,1.1 q 1.3,0.7 1.9,1.1 l -0.45,-4.75 m -30.35,-2.15 -0.75,2.1 2.1,-0.55 2.15,-0.5 q 2.75,-0.8 4.75,-2.95 l 1.3,-1.55 1.9,-3.05 q 0.5,-1.05 0.9,-2.75 0.5,-2.45 0.4,-4.3 l -0.35,0.6 -0.35,0.85 -0.45,0.85 -3.4,4.65 -1.45,1.15 v 0.05 l -0.4,0.35 h -0.5 l -0.3,-0.5 0.25,-0.75 1.45,-2.3 2.05,-3.1 0.55,-0.8 0.3,-0.75 -0.15,0.1 -2.55,2.05 -3.45,3.65 q -1.6,1.7 -2.85,4.45 l -1.15,3 m -19,-17.2 0.9,0.05 q 4.2,0.35 8.1,-0.95 l 3.85,-1.45 3.8,-1.5 0.2,-0.05 -6.95,0.5 -1.25,0.2 -1.25,0.45 -1.4,0.25 h -0.55 L -78.7,7.6 q -0.25,-0.45 0.4,-0.9 L -77.05,6 -74,4.85 Q -71.55,4 -69.25,3.6 -70.7,3.25 -72.5,2.4 L -73.35,1.95 -74,2.1 -77.45,3.4 -80.8,5.1 q -4.8,2.25 -10.05,3.2 3.35,1.6 7.05,2.05"
         fill="#000000"
         fill-rule="evenodd"
         stroke="none"
         id="path1" />
      <path
         d="m -66.15,-1.95 -0.8,-0.25 q -1.7,-0.65 -4.2,-2.15 -4.4,-2.6 -7.15,-4.8 -2.8,-2.2 -4.75,-4.5 l -1.75,-4.65 2.7,1.4 2.65,1.45 q 1.25,0.7 3.35,1.55 l 3.4,1.4 q 6.2,2.85 9.95,7.25 l 0.85,1 1.35,1.9 q -0.55,0.4 -1.25,0.65 l -1.35,-1.1 -6.2,-4.55 q -4,-2.75 -6.4,-3.85 -0.65,-0.25 -0.95,0 -0.35,0.5 0.25,1.1 0.75,0.9 2.9,2.5 l 7.4,5.65 m 7.95,-9.1 v -4 q 0.15,-5.5 0.7,-8.2 l 1.1,-4.5 3.2,-11.8 q 5.15,10.45 6.45,19.9 -0.75,6.5 -4,11.7 l -0.7,1.05 -0.15,-5.25 q -0.3,-5.55 -1,-9.4 L -52.85,-22 q -0.3,-0.05 -0.4,0.55 -1.05,8 -1,15.95 l -0.25,-0.05 q -1.2,-0.25 -2.25,-2.35 l -1.45,-3.15 m 19.75,5.7 q -1.15,-0.45 -1.8,-2.15 -0.45,-1.25 -0.55,-3.95 v -4.25 l 0.2,-1.2 q 3.5,-9.55 11.6,-18.85 l 0.2,12.25 v 4.65 q -0.15,2.25 -0.95,6.2 l -0.2,0.3 q -1.45,2.2 -2.85,3.75 l -2.35,2.2 -0.25,0.2 q 1.35,-5.95 2.05,-12.15 0.05,-0.5 -0.3,-0.55 l -0.35,0.35 q -1.6,3.5 -3.2,8.8 l -1.25,4.4 m 12.1,9.7 4.15,-1.7 0.05,-0.05 5,-1.95 q 2.45,-0.9 3.4,-1.6 0.7,-0.4 0.5,-1 -0.2,-0.3 -0.95,-0.2 -2.6,0.35 -7.1,1.9 l -6.05,2.35 -2.7,1.1 -0.55,0.25 -0.1,-0.15 -0.05,-0.1 -0.35,-0.9 2.5,-2 0.45,-0.3 q 4.7,-3.2 11.4,-4.3 l 3.6,-0.4 3.65,-0.55 2.9,-0.75 2.85,-0.55 -1.2,1.85 -2.15,2.95 -0.05,0.1 q -7.5,4 -18.85,5.95 l -0.35,0.05 m 5.2,5.8 1.45,-0.3 0.6,0.35 q 1.4,0.75 3,2.2 l 2.9,2.55 0.3,0.3 4.15,3.1 4.35,2.4 0.1,0.05 -0.1,0.05 q -4,0.65 -8,-0.15 l -0.35,-0.2 q -1.85,-1 -4.45,-3.9 l 0.4,0.15 q 0.65,0.3 0.9,0 0.35,-0.35 -0.15,-0.95 l -0.05,-0.1 -1,-0.85 -1,-0.8 q -1.25,-0.95 -2.45,-1.75 l -0.5,-1.25 -0.1,-0.9 m -17.3,15.55 0.25,-0.35 -0.05,-0.8 -0.85,-2.65 q -0.55,-1.95 -1.2,-3.55 l -0.35,-0.9 -0.1,-0.85 0.15,0.15 1.95,2.7 2.45,4.5 q 1.1,2.1 1.65,5.05 l 0.1,0.7 -0.2,-0.2 -1.1,-0.9 q -1.95,-1.65 -2.7,-2.9 m -19.6,-3.55 -1.55,2.2 q -1.1,1.3 -2.35,2.15 l -1.7,0.95 -1.15,0.1 1.15,-3 q 1.25,-2.75 2.85,-4.45 l 3.45,-3.65 2.55,-2.05 0.15,-0.1 -0.3,0.75 -0.55,0.8 -2.05,3.1 -1.45,2.3 -0.25,0.75 0.3,0.5 h 0.5 l 0.4,-0.35 m -20.3,-14.3 q -2.8,1.65 -5.45,2.5 Q -87.5,9.9 -90.85,8.3 -85.6,7.35 -80.8,5.1 l 3.35,-1.7 3.45,-1.3 0.65,-0.15 0.85,0.45 q 0.1,0.3 0.05,0.65 -0.15,0.85 -1.5,1.75 L -74,4.85 -77.05,6 -78.3,6.7 q -0.65,0.45 -0.4,0.9 l 0.35,0.25"
         fill="#2d2d2d"
         fill-rule="evenodd"
         stroke="none"
         id="path2" />
      <path
         d="m -66.15,-1.95 3.3,2.7 0.4,0.3 -1.55,-0.55 -1.85,-0.3 -1.9,-0.35 q -1.05,-0.25 -2.95,-1.2 -6.05,-2.9 -8.9,-6.35 -1.7,-2 -3.05,-5 l -0.4,-0.95 q 1.95,2.3 4.75,4.5 2.75,2.2 7.15,4.8 2.5,1.5 4.2,2.15 l 0.8,0.25 m 5.6,-0.4 0.4,0.65 1.75,2.75 -0.95,-0.8 -2.45,-1.95 q 0.7,-0.25 1.25,-0.65 m 2.35,-8.7 1.45,3.15 q 1.05,2.1 2.25,2.35 l 0.25,0.05 0.1,5.3 -0.95,-1.6 -0.35,-0.45 -0.6,-1.5 -1.65,-4.15 q -0.35,-1.2 -0.5,-3.15 m 6.75,4.15 0.7,-1.05 q 3.25,-5.2 4,-11.7 0.45,3.15 0.45,6.2 0,3.05 -0.5,5.1 -0.45,1.75 -1.75,4.8 l -2.45,5.4 -0.3,-4.5 -0.15,-4.25 m 10.85,-10 -0.2,1.2 v 4.25 q 0.1,2.7 0.55,3.95 0.65,1.7 1.8,2.15 l -1.4,4.75 -1.4,4.25 -1.1,-5.9 q -0.5,-3.3 -0.45,-5.15 0,-2.1 0.75,-5 l 1.45,-4.5 m 5.2,10.7 0.25,-0.2 2.35,-2.2 q 1.4,-1.55 2.85,-3.75 l 0.2,-0.3 -0.4,1.95 q -1,4.7 -2.25,6.75 -0.5,1 -2.6,3.55 l -0.95,1.3 -0.4,0.3 -1.35,1.3 q 1.3,-4.3 2.3,-8.7 m 4.8,9.65 -2.2,0.95 -1.1,0.45 1.75,-1.55 0.6,-0.6 0.45,-0.4 0.35,0.9 0.05,0.1 0.1,0.15 m 23.45,-5.1 q -2.1,2.5 -4.15,3.9 Q -14.9,4.8 -21.45,6 l -3.05,0.3 -1.95,-0.2 -1.9,-0.2 -1.6,0.1 0.45,-0.25 3.15,-1.4 L -26,4.3 q 11.35,-1.95 18.85,-5.95 m -5.25,22.35 -0.1,-0.05 q -4.15,-0.85 -7.65,-3.15 l -3.35,-2.45 -3.25,-2.45 q 3.25,0.8 6.4,2.25 l 1.15,0.5 1.15,0.8 0.85,0.45 q 2.6,2.9 4.45,3.9 l 0.35,0.2 m -8.15,-8.4 q -1.8,-1.15 -3.5,-2 l 2.9,-0.15 0.1,0.9 0.5,1.25 m -13.9,17.4 0.45,4.75 q -0.6,-0.4 -1.9,-1.1 l -1.9,-1.1 q -2.4,-1.5 -3.9,-4.15 l -0.85,-1.85 q -0.9,-2.1 -1.05,-3.4 -0.3,-1.2 -0.25,-2.9 0.1,-2.55 0.7,-4.35 l 0.3,1.6 0.25,0.95 2.1,5.45 1.1,1.5 0.35,0.55 0.45,0.1 0.15,-0.05 q 0.75,1.25 2.7,2.9 l 1.1,0.9 0.2,0.2 m -23.6,-7.55 V 22.1 l 1.45,-1.15 3.4,-4.65 0.45,-0.85 0.35,-0.85 0.35,-0.6 q 0.1,1.85 -0.4,4.3 -0.4,1.7 -0.9,2.75 l -1.9,3.05 -1.3,1.55 q -2,2.15 -4.75,2.95 l -2.15,0.5 -2.1,0.55 0.75,-2.1 1.15,-0.1 1.7,-0.95 q 1.25,-0.85 2.35,-2.15 l 1.55,-2.2 m -20.3,-14.3 h 0.55 l 1.4,-0.25 1.25,-0.45 1.25,-0.2 6.95,-0.5 -0.2,0.05 -3.8,1.5 -3.85,1.45 q -3.9,1.3 -8.1,0.95 l -0.9,-0.05 q 2.65,-0.85 5.45,-2.5 M -72.5,2.4 q 1.8,0.85 3.25,1.2 Q -71.55,4 -74,4.85 L -73.95,4.8 Q -72.6,3.9 -72.45,3.05 -72.4,2.7 -72.5,2.4"
         fill="#181818"
         fill-rule="evenodd"
         stroke="none"
         id="path3" />
    </g>
    <g
       id="sprite1"
       transform="translate(17.4,15.85)">
      <use
         ffdec:characterId="31"
         height="57.200001"
         transform="matrix(0.5366,0,0,0.5366,-16.6582,-14.546)"
         width="70.75"
         xlink:href="#sprite2"
         id="use3" />
    </g>
    <g
       id="sprite2"
       transform="translate(-8.65,-10.35)">
      <use
         ffdec:characterId="30"
         height="57.200001"
         transform="translate(8.65,10.35)"
         width="70.75"
         xlink:href="#shape1"
         id="use4" />
    </g>
    <g
       id="shape1"
       transform="translate(-8.65,-10.35)">
      <path
         d="m 14.8,41.7 q 0.65,-1.75 2.65,-2.5 1.8,-0.8 3.7,-0.25 1.15,0.45 2.25,1.2 l 0.9,0.4 q 1.65,0.9 2.85,2.5 L 37.8,30.1 q 2.35,-2.8 3.75,-3.95 1.5,-1.15 4.25,-2.4 18.2,-8.85 27.65,-12.6 2.15,-0.8 3.25,-0.8 h 0.8 l 1.9,2.4 -0.2,0.8 q -0.2,1.1 -1.55,3 -5.85,8.25 -18.85,23.8 -1.85,2.35 -3.35,3.5 -1.4,1.15 -4.75,2.75 l -15.15,7.15 q 1.2,1.6 1.75,3.4 l 0.2,1 0.55,2.5 q 0.1,1.95 -1.1,3.55 -1.2,1.65 -3.05,1.9 l -1.3,0.05 q -1.65,0.2 -3.45,-0.65 -1.85,-0.9 -3,-2.6 L 25,60.95 23.8,62.1 q -2.6,2.85 -4.3,3.95 -2.85,1.8 -5.5,1.45 l -1.65,-0.5 -1.2,-0.7 -0.2,-0.2 q -1,-0.85 -1.6,-1.9 L 9.25,64 9.15,63.8 8.75,62.4 q -0.2,-0.8 -0.05,-1.7 0.25,-2.65 2.7,-5.05 1.5,-1.3 4.9,-3.15 L 17.7,51.55 16.05,50 q -1.35,-1.5 -1.8,-3.6 -0.4,-1.85 0.25,-3.45 l 0.3,-1.25"
         fill="#000000"
         fill-opacity="0.372549"
         fill-rule="evenodd"
         stroke="none"
         id="path4" />
    </g>
  </defs>
</svg>
