<?xml version="1.0" encoding="UTF-8" standalone="no"?>
<svg
   ffdec:objectType="frame"
   height="43.328571"
   width="83.347412"
   version="1.1"
   id="svg3"
   sodipodi:docname="ITEM Stunning Chain.svg"
   xmlns:inkscape="http://www.inkscape.org/namespaces/inkscape"
   xmlns:sodipodi="http://sodipodi.sourceforge.net/DTD/sodipodi-0.dtd"
   xmlns:xlink="http://www.w3.org/1999/xlink"
   xmlns="http://www.w3.org/2000/svg"
   xmlns:svg="http://www.w3.org/2000/svg"
   xmlns:ffdec="https://www.free-decompiler.com/flash">
  <sodipodi:namedview
     id="namedview3"
     pagecolor="#ffffff"
     bordercolor="#000000"
     borderopacity="0.25"
     inkscape:showpageshadow="2"
     inkscape:pageopacity="0.0"
     inkscape:pagecheckerboard="0"
     inkscape:deskcolor="#d1d1d1"
     fit-margin-top="5"
     fit-margin-left="5"
     fit-margin-right="5"
     fit-margin-bottom="5" />
  <g
     transform="translate(42.322414,23.55)"
     id="g1">
    <use
       ffdec:characterId="17"
       height="119.15"
       id="rarity"
       transform="translate(-58.5,-60.65)"
       width="119.15"
       xlink:href="#sprite0" />
    <use
       ffdec:characterId="849"
       height="43.349998"
       transform="translate(-42.3,-23.55)"
       width="83.300003"
       xlink:href="#shape0"
       id="use1" />
  </g>
  <defs
     id="defs3">
    <g
       id="shape0"
       transform="translate(42.85,24.3)">
      <path
         d="m 3.85,-1.1 q 3.85,-0.45 7.4,-1.75 l -0.8,-1.65 q -3.05,1 -6.7,1.4 L 2.2,-2.95 2.15,-1.8 v 0.45 0.4 l 1.7,-0.15 m -22.1,-4.95 q 4.35,-2.15 11.6,-2 l 6.8,0.25 6.7,-0.65 4.6,-1.5 4.45,-1.9 q 5.7,-2.25 9.5,-1.65 1.15,0.2 1.55,0.7 l 0.25,0.6 0.05,0.05 q 1,0.8 1.4,2.15 0.6,1.75 0.35,4.4 l -0.15,1.1 1.15,-0.1 1.4,0.25 1.25,0.3 1.3,0.85 q 1.7,1.6 1.6,3.85 -0.1,1.9 -1.25,3.3 h 0.1 q 2.35,0.55 3.45,2.6 1.15,2.2 0.05,4.35 l -2.05,2.15 q -1.75,1.3 -3.55,2 l -2.55,0.65 -2.6,0.5 -3.65,0.85 -4.55,0.05 -10.15,0.3 -14.1,1.3 q -4.25,0.25 -12.55,0.1 -8.5,-0.1 -12.6,0.1 -4.6,0.3 -6.55,-0.1 -3.75,-0.7 -5.25,-3.45 -0.95,-1.85 -0.45,-4.1 0.5,-2.15 2.05,-3.75 2.55,-2.6 7.6,-3.5 l 1.1,-0.15 q 1.1,-0.8 2.6,-1.55 1.75,-0.85 3.7,-1.5 1.65,-0.55 3.4,-0.95 -0.5,-1.25 0.35,-2.8 0.6,-1.15 2.05,-2.15 l 0.2,-0.15 h 0.05 l 1.35,-0.8 m 33.35,1.4 2.5,-1.55 -0.15,-0.2 -0.15,-0.25 -0.55,-0.75 -3.45,1.7 -0.9,0.45 0.35,0.8 0.05,0.3 0.05,0.6 2.25,-1.1 m 4.85,-3.2 2,-1.5 -1.7,0.4 -1.55,0.55 0.35,0.5 0.15,0.25 0.15,0.25 0.6,-0.45 m -0.4,11 0.9,-0.65 -0.35,-0.45 q -0.8,-2 -1.55,-2.75 L 18.2,-0.95 q -1.35,0.8 -2.8,1.5 L 13.35,1.5 q 1.1,2.5 1.2,4.15 3.05,-1.15 5,-2.5 M 23.4,-1.1 q 1.55,-2.55 1.9,-5.45 -2.15,2.2 -4.6,3.95 1.15,1.35 1.45,3.3 l 1.25,-1.8 m -34.2,-0.15 0.5,0.05 v -1.1 l 0.15,-0.65 -1.9,0.1 q -2.25,0.35 -3.8,1.35 l -0.65,0.45 5.7,-0.2 m 7.35,0.3 3.4,0.1 -0.05,-1.3 0.05,-0.7 -2.9,0.05 -3.3,-0.1 -1.8,-0.05 v 0.3 l -0.2,1.05 v 0.45 l 4.8,0.2 m -13.2,4.9 -1.7,0.2 V 4.9 l 0.1,0.35 0.3,1.05 V 6.45 L -17.4,9.05 -9.75,8.2 -9.8,7.3 -9.65,6.55 V 3.8 h -1.2 l -5.8,0.15 M -6.2,8.05 1.75,7.85 2.25,5.8 2.45,4 h -6.3 L -6.45,3.9 H -7 V 7.45 L -7.05,8.1 -6.2,8.05 m -23.65,2 q -0.2,1 0.45,1.55 0.55,0.55 1.85,0.35 l 3.35,-0.85 3.25,-1.2 1.15,-0.3 -0.4,-2.25 -0.3,-0.9 q -0.2,-0.55 -0.55,-1.2 l -0.05,-0.15 -0.15,-0.35 -4.7,1.5 q -2.1,0.9 -3.1,2.1 -0.65,0.75 -0.8,1.65 v 0.05 m 19.6,3.7 -6,0.75 -1.5,0.4 q 6.95,0.15 11.05,-0.05 h 0.05 l 0.1,-1.3 -3.7,0.2 M -0.05,13.1 -4,13.4 v 0.65 l -0.1,0.65 8.95,-0.8 0.95,-0.05 -0.05,-1.2 -5.8,0.45 m -34.3,1.5 q -0.95,-1.45 -0.95,-3.9 v -0.1 l 0.05,-1.1 0.1,-0.8 -0.9,0.65 -1.15,1.05 q -1.25,1.25 -1,2.3 l 0.05,0.15 q 0.35,1 2,1.45 l 1.85,0.35 -0.05,-0.05 M 26.95,1.4 Q 25.9,3.45 24.45,5 L 24.9,4.9 27.45,4.2 30.55,3 31.75,2.05 Q 32.25,1.3 31.85,0.55 31.5,-0.1 30.45,-0.1 L 28.9,0.35 27.3,0.7 26.95,1.4 m 4.15,9.7 q 1.8,-0.7 2.95,-1.8 L 34.4,8.7 34.15,8.15 34,8.05 32.45,7.8 l -4.2,0.5 0.25,1.2 0.05,0.25 0.05,2.05 2.5,-0.7 M 22,13.05 26.6,12.25 26.5,10.85 26.2,9.3 26.15,8.65 H 26.1 L 19.8,9.9 19.45,10 19.6,10.95 19.55,11.8 19.3,13.15 22,13.05 M 8.85,7.15 12.5,6.3 12.45,5.75 Q 12.4,4.9 11.95,3.8 L 11.25,2.25 8.65,3.05 4.95,3.75 5,5.1 4.85,6.65 4.65,7.2 4.6,7.65 8.85,7.15 m 3.5,4.25 -4.4,1 0.05,1.25 8.35,-0.5 h 0.45 l 0.05,-2.1 0.1,-0.7 -2,0.2 -2.3,0.8 -0.3,0.05"
         fill="#000000"
         fill-rule="evenodd"
         stroke="none"
         id="path1" />
      <path
         d="m 3.85,-1.1 -1.7,0.15 V -1.35 -1.8 L 2.2,-2.95 3.75,-3.1 q 3.65,-0.4 6.7,-1.4 l 0.8,1.65 q -3.55,1.3 -7.4,1.75 m -29.5,1.9 -0.3,-0.85 q 0,-0.65 0.6,-1.65 l 4.25,-6.95 -1,-2.35 -0.6,-1.35 -0.55,-1.7 -0.2,-1.7 -0.05,-0.75 0.55,-0.45 0.65,0.15 0.75,1.45 1.05,2.1 0.9,2.15 0.35,-0.6 q 0.95,-1.4 2,-3.6 l 1.75,-3.75 3,-4.7 0.85,-0.55 q 0.45,0 0.65,0.55 0.15,0.4 -0.05,0.95 l -0.7,1.7 -0.85,1.55 -1.6,3.4 -1.5,3.45 q -0.5,1 -1.5,2.65 l -1.45,2.55 0.25,0.9 0.15,0.55 -1.35,0.8 -0.1,-0.2 -0.15,0.35 q -1.45,1 -2.05,2.15 -0.85,1.55 -0.35,2.8 -1.75,0.4 -3.4,0.95 m 45.2,2.35 Q 17.6,4.5 14.55,5.65 14.45,4 13.35,1.5 L 15.4,0.55 q 1.45,-0.7 2.8,-1.5 l 0.35,0.25 q 0.75,0.75 1.55,2.75 l 0.35,0.45 -0.9,0.65 m 0.4,-11 -0.6,0.45 -0.15,-0.25 -0.15,-0.25 -0.35,-0.5 1.55,-0.55 1.7,-0.4 -2,1.5 m -4.85,3.2 -2.25,1.1 -0.05,-0.6 -0.05,-0.3 -0.35,-0.8 0.9,-0.45 3.45,-1.7 0.55,0.75 0.15,0.25 0.15,0.2 -2.5,1.55 m 25.15,5 q 0.3,0.9 0.2,1.4 L 40.3,2.1 39.8,2.05 39.5,1.6 35.1,-6.8 33.4,-5.65 32.95,-5.5 q -0.3,0.1 -0.4,-0.2 l 0.1,-0.4 0.45,-0.85 1.2,-1.2 L 34,-8.7 q -1.75,-3 -1.8,-4.65 0,-0.85 0.25,-1.2 0.55,-0.65 1.1,-0.3 l 0.45,0.6 0.9,1.75 1.25,2.6 2.65,-2.3 0.45,-0.35 0.65,0.15 q 0.3,0.25 0.2,0.65 l -0.4,0.55 -2.85,2.75 1.4,3.15 q 1.1,2.55 2,5.65 M 23.4,-1.1 22.15,0.7 q -0.3,-1.95 -1.45,-3.3 2.45,-1.75 4.6,-3.95 -0.35,2.9 -1.9,5.45 m -11.05,12.5 0.3,-0.05 2.3,-0.8 2,-0.2 -0.1,0.7 -0.05,2.1 H 16.35 L 8,13.65 7.95,12.4 l 4.4,-1 M 8.85,7.15 4.6,7.65 4.65,7.2 4.85,6.65 5,5.1 4.95,3.75 l 3.7,-0.7 2.6,-0.8 0.7,1.55 q 0.45,1.1 0.5,1.95 L 12.5,6.3 8.85,7.15 M 22,13.05 19.3,13.15 19.55,11.8 19.6,10.95 19.45,10 19.8,9.9 26.1,8.65 h 0.05 l 0.05,0.65 0.3,1.55 0.1,1.4 -4.6,0.8 M 31.1,11.1 28.6,11.8 28.55,9.75 28.5,9.5 28.25,8.3 32.45,7.8 34,8.05 34.15,8.15 34.4,8.7 34.05,9.3 Q 32.9,10.4 31.1,11.1 M 26.95,1.4 27.3,0.7 28.9,0.35 30.45,-0.1 q 1.05,0 1.4,0.65 0.4,0.75 -0.1,1.5 L 30.55,3 27.45,4.2 24.9,4.9 24.45,5 q 1.45,-1.55 2.5,-3.6 m -61.3,13.2 0.05,0.05 -1.85,-0.35 q -1.65,-0.45 -2,-1.45 L -38.2,12.7 q -0.25,-1.05 1,-2.3 l 1.15,-1.05 0.9,-0.65 -0.1,0.8 -0.05,1.1 v 0.1 q 0,2.45 0.95,3.9 m 34.3,-1.5 5.8,-0.45 0.05,1.2 L 4.85,13.9 -4.1,14.7 -4,14.05 V 13.4 l 3.95,-0.3 m -10.2,0.65 3.7,-0.2 -0.1,1.3 H -6.7 q -4.1,0.2 -11.05,0.05 l 1.5,-0.4 6,-0.75 m -19.6,-3.7 V 10 q 0.15,-0.9 0.8,-1.65 1,-1.2 3.1,-2.1 l 4.7,-1.5 0.15,0.35 0.05,0.15 q 0.35,0.65 0.55,1.2 l 0.3,0.9 0.4,2.25 -1.15,0.3 -3.25,1.2 -3.35,0.85 q -1.3,0.2 -1.85,-0.35 -0.65,-0.55 -0.45,-1.55 M -6.2,8.05 -7.05,8.1 -7,7.45 V 3.9 h 0.55 l 2.6,0.1 h 6.3 l -0.2,1.8 -0.5,2.05 -7.95,0.2 m -10.45,-4.1 5.8,-0.15 h 1.2 V 6.55 L -9.8,7.3 -9.75,8.2 -17.4,9.05 -17.95,6.45 V 6.3 l -0.3,-1.05 -0.1,-0.35 V 4.15 l 1.7,-0.2 m 13.2,-4.9 -4.8,-0.2 V -1.6 l 0.2,-1.05 v -0.3 l 1.8,0.05 3.3,0.1 2.9,-0.05 -0.05,0.7 0.05,1.3 -3.4,-0.1 m -7.35,-0.3 -5.7,0.2 0.65,-0.45 q 1.55,-1 3.8,-1.35 l 1.9,-0.1 -0.15,0.65 v 1.1 l -0.5,-0.05"
         fill="#ffffff"
         fill-rule="evenodd"
         stroke="none"
         id="path2" />
    </g>
    <g
       id="sprite1"
       transform="translate(17.4,15.85)">
      <use
         ffdec:characterId="31"
         height="57.200001"
         transform="matrix(0.5366,0,0,0.5366,-16.6582,-14.546)"
         width="70.75"
         xlink:href="#sprite2"
         id="use2" />
    </g>
    <g
       id="sprite2"
       transform="translate(-8.65,-10.35)">
      <use
         ffdec:characterId="30"
         height="57.200001"
         transform="translate(8.65,10.35)"
         width="70.75"
         xlink:href="#shape1"
         id="use3" />
    </g>
    <g
       id="shape1"
       transform="translate(-8.65,-10.35)">
      <path
         d="m 14.8,41.7 q 0.65,-1.75 2.65,-2.5 1.8,-0.8 3.7,-0.25 1.15,0.45 2.25,1.2 l 0.9,0.4 q 1.65,0.9 2.85,2.5 L 37.8,30.1 q 2.35,-2.8 3.75,-3.95 1.5,-1.15 4.25,-2.4 18.2,-8.85 27.65,-12.6 2.15,-0.8 3.25,-0.8 h 0.8 l 1.9,2.4 -0.2,0.8 q -0.2,1.1 -1.55,3 -5.85,8.25 -18.85,23.8 -1.85,2.35 -3.35,3.5 -1.4,1.15 -4.75,2.75 l -15.15,7.15 q 1.2,1.6 1.75,3.4 l 0.2,1 0.55,2.5 q 0.1,1.95 -1.1,3.55 -1.2,1.65 -3.05,1.9 l -1.3,0.05 q -1.65,0.2 -3.45,-0.65 -1.85,-0.9 -3,-2.6 L 25,60.95 23.8,62.1 q -2.6,2.85 -4.3,3.95 -2.85,1.8 -5.5,1.45 l -1.65,-0.5 -1.2,-0.7 -0.2,-0.2 q -1,-0.85 -1.6,-1.9 L 9.25,64 9.15,63.8 8.75,62.4 q -0.2,-0.8 -0.05,-1.7 0.25,-2.65 2.7,-5.05 1.5,-1.3 4.9,-3.15 L 17.7,51.55 16.05,50 q -1.35,-1.5 -1.8,-3.6 -0.4,-1.85 0.25,-3.45 l 0.3,-1.25"
         fill="#000000"
         fill-opacity="0.372549"
         fill-rule="evenodd"
         stroke="none"
         id="path3" />
    </g>
  </defs>
</svg>
