<?xml version="1.0" encoding="UTF-8" standalone="no"?>
<svg
   ffdec:objectType="frame"
   height="56.374577"
   width="66.686295"
   version="1.1"
   id="svg5"
   sodipodi:docname="ITEM Cardboard Hat.svg"
   xmlns:inkscape="http://www.inkscape.org/namespaces/inkscape"
   xmlns:sodipodi="http://sodipodi.sourceforge.net/DTD/sodipodi-0.dtd"
   xmlns:xlink="http://www.w3.org/1999/xlink"
   xmlns="http://www.w3.org/2000/svg"
   xmlns:svg="http://www.w3.org/2000/svg"
   xmlns:ffdec="https://www.free-decompiler.com/flash">
  <sodipodi:namedview
     id="namedview5"
     pagecolor="#ffffff"
     bordercolor="#000000"
     borderopacity="0.25"
     inkscape:showpageshadow="2"
     inkscape:pageopacity="0.0"
     inkscape:pagecheckerboard="0"
     inkscape:deskcolor="#d1d1d1"
     fit-margin-top="5"
     fit-margin-left="5"
     fit-margin-right="5"
     fit-margin-bottom="5" />
  <g
     transform="translate(35.823529,29.874576)"
     id="g1">
    <use
       ffdec:characterId="17"
       height="119.15"
       id="rarity"
       transform="translate(-58.5,-60.65)"
       width="119.15"
       xlink:href="#sprite0" />
    <use
       ffdec:characterId="1167"
       height="56.549999"
       transform="translate(-35.8,-29.85)"
       width="66.650002"
       xlink:href="#shape0"
       id="use1" />
  </g>
  <defs
     id="defs5">
    <g
       id="shape0"
       transform="translate(34.5,27.95)">
      <path
         d="m 18.6,-27.7 q 5.1,-0.9 9.25,1.15 0.6,0.3 0.65,0.95 v 0.25 q 1.15,1.3 0.8,3.65 -0.35,2.4 -0.05,4.9 l 1.8,14.3 0.5,4.95 q 1.2,3.85 0.05,7.45 l -0.7,1.05 q -7.35,6.9 -13.65,14.7 -1.85,2.25 -4.5,2.75 L 11.7,28.3 5.25,28.05 Q 2.7,27.25 0,26.95 q -10.65,-1 -21.05,-3.55 l -4.9,-0.55 q -3.35,0.1 -5.8,-1.7 Q -32.3,20.75 -32.45,20 -34,13.6 -34,6.8 q -0.05,-2.15 -0.35,-4.25 -0.4,-2.7 0.25,-5 -0.6,-0.75 -0.35,-1.85 0.65,-2.8 2.8,-4.85 L -21.1,-19.2 q 4.5,-4.3 9.7,-7.3 1.1,-0.6 2.55,-0.65 4.95,0 9.85,-0.15 l 16.7,-0.4 h 0.9 m 1.05,5.75 L 0.6,-21.2 H 0.3 l -0.95,1.9 2.55,0.45 0.3,-0.3 q 0.45,-0.45 1.05,-0.35 l 0.75,0.15 0.2,0.2 0.15,0.15 0.2,0.65 -0.1,0.8 -0.15,0.35 -0.2,0.15 -0.25,0.15 -1.1,2.95 L 1,-8.8 0.4,-6.9 0.3,-6.75 0.2,-6.6 l -0.1,0.15 -0.3,0.2 -0.2,0.05 q -0.7,0.25 -1.3,-0.2 l -0.35,-0.25 -5.1,-1.05 -0.3,0.45 -0.85,1.3 q 4.55,0.8 9,2.25 3.35,1.1 6.8,1.8 l 0.6,-1.3 3.65,-5.8 5.95,-9.7 2.6,-3.15 v -0.05 l -0.65,-0.05 m -21.1,12.4 Q -0.2,-11.9 0.5,-14.6 l 0.55,-2.45 -2.7,-0.35 -3.85,6.9 q 2.05,0.2 4.05,0.95 m 19.95,0 -1.1,2.15 q -2.75,5.35 -6.6,9.7 0,4.6 0.45,9.05 0.35,3.15 1.1,6.2 l 0.6,3.95 0.85,-0.9 Q 20,13.8 26.75,7.55 L 25.35,-7 q -0.25,-2.7 -0.1,-5.55 -0.3,-1.1 -0.45,-2.25 v -2 l -0.25,-1.55 q -3.55,4 -6.05,8.8 M -10.15,-0.5 Q -19.55,-1.9 -29,-0.9 l -0.7,0.05 v 1.3 q 0.8,6.1 0.85,12.4 0,2.2 0.55,4.25 8.85,0.7 17.7,2.5 l 16.75,3.05 1.8,0.05 -0.8,-4.4 -0.3,-2.6 Q 5.35,9.4 6.25,3.2 -1.8,0.8 -10.15,-0.5 m 0.05,-20.65 -0.85,0.8 -0.95,0.95 -7.15,6.75 q -2.85,2.85 -5.8,5.55 l 9.65,0.3 2.35,0.2 0.05,-0.05 1.35,-1.55 -2.85,-0.1 q -0.75,-0.35 -0.8,-1.15 -0.05,-1 0.75,-1.75 l 1.15,-1.35 0.05,-0.15 v -0.15 l 0.05,-0.15 0.1,-0.2 0.15,-0.15 0.35,-0.65 0.55,-0.8 0.1,-0.2 v -0.15 l 0.05,-0.15 q 0.6,-0.55 0.95,-1.25 l 0.95,-1.85 q 0.5,-0.75 0.65,-1.65 l 0.15,-0.15 0.1,-0.15 0.2,-0.2 0.15,-0.1 0.2,-0.05 h 0.3 v -0.05 l 4.7,0.85 1,-1.3 -7.65,0.05 m 3.05,6.7 2.2,-3.45 -0.2,-0.05 -0.2,-0.2 -0.1,-0.1 -1.75,-0.1 -2.85,4.9 -0.85,1.65 -0.05,0.15 -0.1,0.3 1.55,0.55 2.35,-3.65"
         fill="#000000"
         fill-rule="evenodd"
         stroke="none"
         id="path1" />
      <path
         d="m 19.65,-21.95 0.65,0.05 v 0.05 L 17.7,-18.7 11.75,-9 8.1,-3.2 7.5,-1.9 q -3.45,-0.7 -6.8,-1.8 -4.45,-1.45 -9,-2.25 l 0.85,-1.3 0.3,-0.45 5.1,1.05 0.35,0.25 q 0.6,0.45 1.3,0.2 l 0.2,-0.05 0.3,-0.2 0.1,-0.15 0.1,-0.15 0.1,-0.15 0.6,-1.9 1.75,-5.15 1.1,-2.95 0.25,-0.15 0.2,-0.15 0.15,-0.35 0.1,-0.8 L 4.35,-19 4.2,-19.15 4,-19.35 3.25,-19.5 q -0.6,-0.1 -1.05,0.35 l -0.3,0.3 -2.55,-0.45 0.95,-1.9 h 0.3 l 19.05,-0.75 m -29.75,0.8 7.65,-0.05 -1,1.3 -4.7,-0.85 v 0.05 h -0.3 l -0.2,0.05 -0.15,0.1 -0.2,0.2 -0.1,0.15 -0.15,0.15 q -0.15,0.9 -0.65,1.65 l -0.95,1.85 q -0.35,0.7 -0.95,1.25 l -0.05,0.15 V -15 l -0.1,0.2 -0.55,0.8 -0.35,0.65 -0.15,0.15 -0.1,0.2 -0.05,0.15 v 0.15 l -0.05,0.15 -1.15,1.35 q -0.8,0.75 -0.75,1.75 0.05,0.8 0.8,1.15 l 2.85,0.1 -1.35,1.55 -0.05,0.05 -2.35,-0.2 -9.65,-0.3 q 2.95,-2.7 5.8,-5.55 l 7.15,-6.75 0.95,-0.95 0.85,-0.8"
         fill="#b1a8a1"
         fill-rule="evenodd"
         stroke="none"
         id="path2" />
      <path
         d="m -10.15,-0.5 q 8.35,1.3 16.4,3.7 -0.9,6.2 0.6,12.5 l 0.3,2.6 0.8,4.4 -1.8,-0.05 -16.75,-3.05 q -8.85,-1.8 -17.7,-2.5 -0.55,-2.05 -0.55,-4.25 -0.05,-6.3 -0.85,-12.4 v -1.3 L -29,-0.9 q 9.45,-1 18.85,0.4 M 18.5,-9.55 q 2.5,-4.8 6.05,-8.8 l 0.25,1.55 v 2 q 0.15,1.15 0.45,2.25 -0.15,2.85 0.1,5.55 l 1.4,14.55 Q 20,13.8 13.8,20.6 l -0.85,0.9 -0.6,-3.95 Q 11.6,14.5 11.25,11.35 10.8,6.9 10.8,2.3 q 3.85,-4.35 6.6,-9.7 l 1.1,-2.15"
         fill="#958d87"
         fill-rule="evenodd"
         stroke="none"
         id="path3" />
      <path
         d="m -1.45,-9.55 q -2,-0.75 -4.05,-0.95 l 3.85,-6.9 2.7,0.35 -0.55,2.45 q -0.7,2.7 -1.95,5.05 m -5.6,-4.9 -2.35,3.65 -1.55,-0.55 0.1,-0.3 0.05,-0.15 0.85,-1.65 2.85,-4.9 1.75,0.1 0.1,0.1 0.2,0.2 0.2,0.05 -2.2,3.45"
         fill="#c9bfb8"
         fill-rule="evenodd"
         stroke="none"
         id="path4" />
    </g>
    <g
       id="sprite1"
       transform="translate(17.4,15.85)">
      <use
         ffdec:characterId="31"
         height="57.200001"
         transform="matrix(0.5366,0,0,0.5366,-16.6582,-14.546)"
         width="70.75"
         xlink:href="#sprite2"
         id="use4" />
    </g>
    <g
       id="sprite2"
       transform="translate(-8.65,-10.35)">
      <use
         ffdec:characterId="30"
         height="57.200001"
         transform="translate(8.65,10.35)"
         width="70.75"
         xlink:href="#shape1"
         id="use5" />
    </g>
    <g
       id="shape1"
       transform="translate(-8.65,-10.35)">
      <path
         d="m 14.8,41.7 q 0.65,-1.75 2.65,-2.5 1.8,-0.8 3.7,-0.25 1.15,0.45 2.25,1.2 l 0.9,0.4 q 1.65,0.9 2.85,2.5 L 37.8,30.1 q 2.35,-2.8 3.75,-3.95 1.5,-1.15 4.25,-2.4 18.2,-8.85 27.65,-12.6 2.15,-0.8 3.25,-0.8 h 0.8 l 1.9,2.4 -0.2,0.8 q -0.2,1.1 -1.55,3 -5.85,8.25 -18.85,23.8 -1.85,2.35 -3.35,3.5 -1.4,1.15 -4.75,2.75 l -15.15,7.15 q 1.2,1.6 1.75,3.4 l 0.2,1 0.55,2.5 q 0.1,1.95 -1.1,3.55 -1.2,1.65 -3.05,1.9 l -1.3,0.05 q -1.65,0.2 -3.45,-0.65 -1.85,-0.9 -3,-2.6 L 25,60.95 23.8,62.1 q -2.6,2.85 -4.3,3.95 -2.85,1.8 -5.5,1.45 l -1.65,-0.5 -1.2,-0.7 -0.2,-0.2 q -1,-0.85 -1.6,-1.9 L 9.25,64 9.15,63.8 8.75,62.4 q -0.2,-0.8 -0.05,-1.7 0.25,-2.65 2.7,-5.05 1.5,-1.3 4.9,-3.15 L 17.7,51.55 16.05,50 q -1.35,-1.5 -1.8,-3.6 -0.4,-1.85 0.25,-3.45 l 0.3,-1.25"
         fill="#000000"
         fill-opacity="0.372549"
         fill-rule="evenodd"
         stroke="none"
         id="path5" />
    </g>
  </defs>
</svg>
