<?xml version="1.0" encoding="UTF-8" standalone="no"?>
<svg
   ffdec:objectType="frame"
   height="73.396355"
   width="84.438889"
   version="1.1"
   id="svg6"
   sodipodi:docname="ITEM Wood Shoulder Pads.svg"
   xmlns:inkscape="http://www.inkscape.org/namespaces/inkscape"
   xmlns:sodipodi="http://sodipodi.sourceforge.net/DTD/sodipodi-0.dtd"
   xmlns:xlink="http://www.w3.org/1999/xlink"
   xmlns="http://www.w3.org/2000/svg"
   xmlns:svg="http://www.w3.org/2000/svg"
   xmlns:ffdec="https://www.free-decompiler.com/flash">
  <sodipodi:namedview
     id="namedview6"
     pagecolor="#ffffff"
     bordercolor="#000000"
     borderopacity="0.25"
     inkscape:showpageshadow="2"
     inkscape:pageopacity="0.0"
     inkscape:pagecheckerboard="0"
     inkscape:deskcolor="#d1d1d1"
     fit-margin-top="5"
     fit-margin-left="5"
     fit-margin-right="5"
     fit-margin-bottom="5" />
  <g
     transform="translate(41.488889,38.679687)"
     id="g1">
    <use
       ffdec:characterId="17"
       height="119.15"
       id="rarity"
       transform="translate(-58.5,-60.65)"
       width="119.15"
       xlink:href="#sprite0" />
    <use
       ffdec:characterId="742"
       height="73.400002"
       transform="translate(-41.5,-38.7)"
       width="84.449997"
       xlink:href="#shape0"
       id="use1" />
  </g>
  <defs
     id="defs6">
    <g
       id="shape0"
       transform="translate(42.05,39.45)">
      <path
         d="m 21.45,-32.05 8.75,4.9 -0.2,-2.1 v -1.3 l -0.15,-0.2 q -0.15,-0.4 -0.15,-0.85 v -0.85 l -0.1,-0.25 -0.2,-0.85 -0.05,-0.65 q -3.85,0.05 -2.9,-3.3 0.45,-1.6 2.25,-1.6 l 0.8,-0.1 q 4.9,-1.05 6.45,2.7 0.3,0.75 -0.4,1.25 l -2.35,1.65 0.2,2.15 0.2,2.85 0.65,-0.6 q 0.65,-0.6 1.4,-0.6 6.55,0.9 6.7,7.5 l 0.05,5.15 q 0,4.65 -4.1,7.4 L 36.95,-8.8 Q 39.6,-3.85 36.6,0.85 L 35.9,1.3 Q 29.75,3 23.7,2.85 q 1.35,3.3 -3.05,4.6 L 16.05,8.3 15.55,8.4 15,8.55 15.4,11.5 q 0.05,1.55 -0.8,2.8 L 11,17.25 10.4,17.75 10.05,17.8 9.6,17.75 9.25,17.3 9,16.65 9.05,16.45 q 0.5,-1.25 1.6,-2.25 l 1,-1.2 -0.05,-0.4 V 11.95 11.5 l -0.5,-1.75 -1.65,0.7 -6.25,2.9 -3,10.05 q -0.55,2.05 -1.45,4 0,1 -0.35,1.95 l -0.55,1.05 -11.6,3.45 q -1.3,0.35 -2.5,-0.35 -5.15,-3.1 -9.65,-6.9 -0.45,-0.35 -0.3,-1 0.65,-2.95 2.3,-5.4 -4.1,-2.7 -9.55,-2.5 -0.9,0.05 -1.6,-0.6 -4.85,-4.3 -6.9,-10.05 -0.2,-0.55 0.05,-1.1 l 1.35,-3.5 q -1.15,-7.3 -1.15,-14.8 -0.05,-3.9 1.1,-7.45 0.3,-0.9 1.25,-1.15 7.8,-2.3 15.8,-3.55 l 0.2,-1.05 q 0.55,-1.65 1.75,-3 l 0.95,-1 q -1.75,-0.9 -1.75,-2.75 0,-2.55 2.45,-2.8 5.4,1.05 7.95,5.5 0.35,0.65 -0.15,1.3 -1.4,1.85 -3.9,1.05 l -1.5,1.55 -0.3,0.4 0.35,-0.05 q 16.65,-1.8 32.9,-5.4 l 6.05,-1.3 m 2.7,5.25 q -1.2,-0.4 -2.3,-1 -19.45,5.8 -39.75,8.2 l -0.4,0.05 0.15,0.65 q 0.85,2.7 -0.65,4.95 l -0.65,0.15 -0.55,-0.05 q -1.05,-1.05 -1.25,-2.55 l -0.4,-2.65 q -6.6,0.95 -13,2.7 3.4,1.3 6.65,3.15 l 2.4,1.35 q 2.05,1.8 4.65,2.85 l 0.45,0.45 0.15,0.15 0.2,0.25 0.45,0.2 0.25,0.15 28.8,-8.55 9.85,-2.55 1.5,-0.75 0.75,-0.25 0.4,0.05 6.85,-5.2 -4.55,-1.75 M 11.6,-8.95 11.55,-9.6 Q 11.5,-10.4 12.1,-11 l 3.95,-3.8 -4.9,1.25 -0.5,0.1 q -0.8,0.6 -1.8,0.8 l -0.6,0.2 -22.3,5.9 -0.85,0.2 -1.95,0.55 -0.15,0.1 0.05,0.05 v 0.2 0.2 0.05 0.2 0.2 l -0.35,1.35 -0.2,0.8 v 0.25 l -0.1,0.5 -0.05,0.55 L -17.8,1 q 0.5,1.05 0.55,2.25 l 2.8,-0.55 0.95,-0.25 0.2,-0.2 0.25,-0.2 L -9.8,1.2 -9.15,1 -8.3,0.9 -7.2,1 q 0.35,0.15 0.55,0.55 V 1.8 L -6.8,2 -7.15,2.2 q -1.5,-0.05 -2.8,0.55 l -0.9,0.35 -0.3,0.2 -0.15,0.1 -0.15,0.1 q -1.75,0.35 -3.35,1.2 l -2.55,1.05 0.05,0.2 0.05,0.2 0.05,0.2 -0.25,2.15 -0.2,1.95 0.05,0.2 0.1,0.2 -0.05,0.75 0.05,0.95 q 0.15,1 0,1.95 l -0.65,0.1 -0.3,-0.1 -0.85,-3.85 -0.6,-3.15 -1.05,-6.3 -0.15,-3.1 0.15,-1.8 q -0.3,-1.05 0.05,-2 l -5.65,-3.95 q -0.95,-0.6 -1.75,-1.45 l -0.3,-0.05 -0.5,-0.15 -0.45,-0.3 -0.7,-0.25 -0.2,-0.25 -0.15,-0.15 -0.4,-0.1 -0.45,-0.45 -0.4,-0.45 -0.1,-0.1 -0.55,-0.3 -0.5,-0.35 -0.9,-0.25 -0.4,-0.1 -0.8,-0.75 -0.35,-0.35 v -0.4 l 0.05,-0.15 0.15,-0.2 -0.35,0.1 h -0.05 l 0.15,8.2 0.05,2.3 0.45,7.95 q 0.15,2.3 -1.1,4.3 0.6,1.4 1.75,2.7 l 2.7,3.1 q 7,-0.35 12.3,3.95 l 0.65,0.5 q 6.4,-2.65 12.85,-5.45 0.4,-1.55 0.55,-3.2 L -5.25,8 V 7.6 L -5.2,5.65 V 5.6 l 0.15,-1 0.15,-0.25 0.2,-0.2 0.05,-0.55 V 3.5 L -4.6,3.3 -4.55,3.1 -4.4,2.85 -4.2,2.65 2.25,0.25 3.6,-0.3 3.65,-0.35 6.2,-1.3 11.15,-3.15 12.2,-3.6 12.95,-3.85 12.6,-4.7 q -0.75,-2 -1,-4.25 m 8.3,2.8 -0.2,-0.2 q -0.4,-0.4 -0.45,-1.05 -0.15,-2.85 2.85,-2.95 l 1.65,0.5 0.35,0.3 0.65,0.85 0.35,1.05 q -1.45,4.35 -5.2,1.5 m 9.7,-8.25 0.3,-4.2 q 0.1,-1.15 0.5,-2.15 l 0.1,-1.1 q -4.2,3.35 -8.1,7.05 l -0.95,0.9 -0.45,0.45 -0.55,0.55 -1.8,1.9 -2.25,2.65 0.25,1.05 q 0.35,1.2 1.2,2.25 l 0.2,0.2 0.25,0.3 2.65,2.75 1.6,-1.55 V -3.5 q 2.4,-3.4 6.05,-5.45 l 0.45,-1.05 0.3,-0.65 -0.05,-1.5 -0.05,-1.1 0.1,-0.2 0.05,-0.2 0.15,-0.2 0.05,-0.55 m 7.6,-7.4 v -1.3 -0.65 l -0.1,-0.2 -0.1,-0.2 -0.15,-0.25 -0.75,-0.35 -0.55,-0.2 q -1.2,0.3 -2.2,0.9 l -0.7,0.45 v 0.05 0.1 l -0.25,0.9 -0.35,0.6 0.05,0.4 0.05,0.65 -0.75,4.8 -0.55,5.3 v 0.2 l 2.35,-1.9 4.45,-3.95 q 0.35,-1.6 -0.1,-3.2 L 37.2,-21.8 m -6.6,17.7 -3.45,3 6.85,-0.85 0.3,-0.25 0.25,-0.35 0.15,-0.25 v -1.3 l 0.05,-1.5 q -0.4,-0.65 -0.4,-1.35 L 30.6,-4.1 M -2.65,5.85 v 0.5 L -2.7,7.65 -2.75,8.8 -2.85,10.1 9.9,4.3 Q 13.75,2.55 17.75,2.8 L 18.2,2.9 18.35,2.85 18.05,2.6 15.75,0.45 q -1.1,-1.2 -1.9,-2.55 L 4.8,1.5 2.75,2.3 1.3,2.85 0.4,3.1 -0.65,3.3 -0.9,3.5 -1.05,3.65 q -0.7,0.05 -1.2,0.45 l -0.3,0.2 -0.05,1 -0.05,0.55 M -13,20.65 q -2.95,1.35 -5.95,2.25 l -1.85,-0.2 -0.35,1 -0.5,1.05 1.25,1.3 0.4,0.4 q 2.6,1.35 5,3.1 L -4.85,27.1 q 1.6,-6.1 3.9,-11.85 l -8.6,3.9 -0.1,0.2 -0.2,0.9 -0.15,0.2 -0.3,0.2 -1,2.9 -0.75,1.4 q -0.2,1.4 -0.85,2.65 -0.35,0.75 -1.05,1 l -0.45,-0.45 -0.25,-0.55 0.1,-0.4 0.4,-0.65 0.45,-1.3 q 0.3,-0.5 0.25,-1.1 l 0.25,-0.2 0.15,-0.2 0.15,-0.85 0.4,-0.85 V 21.8 l 0.05,-0.2 v -0.2 l 0.2,-0.2 0.2,-0.25 0.15,-0.65 0.05,-0.15 -1.15,0.5 m 6.45,2 0.6,0.2 0.4,0.2 0.25,0.2 0.3,0.4 0.15,0.25 0.05,0.2 v 0.45 0.4 l -0.05,0.2 -0.45,0.65 -0.25,0.25 -0.4,0.15 -0.6,0.2 L -7.3,26.25 -8.05,25.6 -8.4,24.55 -8.35,24.1 q 0.15,-0.65 0.7,-1.05 l 0.4,-0.2 0.7,-0.2"
         fill="#000000"
         fill-rule="evenodd"
         stroke="none"
         id="path1" />
      <path
         d="m -19.9,7.5 0.6,3.15 -0.6,-1.3 V 7.5"
         fill="#877777"
         fill-rule="evenodd"
         stroke="none"
         id="path2" />
      <path
         d="m 18.65,-11 0.8,-0.35 -2.8,4.05 L 16.4,-8.35 18.65,-11 M 1.3,2.85 1,2.95 0.7,3.2 -0.55,3.7 Q -2.1,4.1 -2.6,5.3 l 0.05,-1 0.3,-0.2 q 0.5,-0.4 1.2,-0.45 L -0.9,3.5 -0.65,3.3 0.4,3.1 1.3,2.85"
         fill="#6d6060"
         fill-rule="evenodd"
         stroke="none"
         id="path3" />
      <path
         d="m -17.6,-1.9 0.1,-0.5 v -0.25 l 0.2,-0.8 0.35,-1.35 V -5 -5.2 -5.25 -5.45 -5.65 L -17,-5.7 l 0.15,-0.1 1.95,-0.55 0.85,-0.2 22.3,-5.9 0.6,-0.2 q 1,-0.2 1.8,-0.8 l 0.5,-0.1 4.9,-1.25 -3.95,3.8 q -0.6,0.6 -0.55,1.4 l 0.05,0.65 -19.15,5.45 q -5.05,1.45 -10.05,1.6 m 41.75,-24.9 4.55,1.75 -6.85,5.2 -0.4,-0.05 -0.75,0.25 -1.5,0.75 -9.85,2.55 -28.8,8.55 -0.25,-0.15 -0.45,-0.2 -0.2,-0.25 -0.15,-0.15 -0.45,-0.45 q -2.6,-1.05 -4.65,-2.85 L -28,-13.2 q -3.25,-1.85 -6.65,-3.15 6.4,-1.75 13,-2.7 l 0.4,2.65 q 0.2,1.5 1.25,2.55 l 0.55,0.05 0.65,-0.15 q 1.5,-2.25 0.65,-4.95 l -0.15,-0.65 0.4,-0.05 q 20.3,-2.4 39.75,-8.2 1.1,0.6 2.3,1 M 6.2,-1.3 3.65,-0.35 3.6,-0.3 2.25,0.25 -4.2,2.65 -4.4,2.85 -4.55,3.1 -4.6,3.3 -4.65,3.5 v 0.1 l -5.55,2.15 -1.3,0.5 q -1.9,0.8 -3,2.35 l -0.05,1.1 q -0.3,1.85 -1.6,2.05 l -1.4,-0.15 0.05,-0.75 -0.1,-0.2 -0.05,-0.2 0.2,-1.95 0.25,-2.15 -0.05,-0.2 -0.05,-0.2 -0.05,-0.2 2.55,-1.05 q 1.6,-0.85 3.35,-1.2 l 0.15,-0.1 0.15,-0.1 0.3,-0.2 0.9,-0.35 q 1.3,-0.6 2.8,-0.55 L -6.8,2 -6.65,1.8 V 1.55 Q -6.85,1.15 -7.2,1 l 1.55,-0.3 h 0.15 l 0.45,0.1 9.2,-2.05 1,-0.25 1.05,0.2 m -41.7,-6.6 -0.15,-8.2 h 0.05 l 0.2,0.1 -0.05,0.15 v 0.4 l 0.35,0.35 0.8,0.75 0.4,0.1 0.9,0.25 0.5,0.35 0.55,0.3 0.1,0.1 0.4,0.45 0.45,0.45 0.4,0.1 0.15,0.15 0.2,0.25 0.7,0.25 0.45,0.3 0.5,0.15 0.3,0.05 q 0.8,0.85 1.75,1.45 l 5.65,3.95 q -0.35,0.95 -0.05,2 l -0.15,1.8 q -7.75,-1.55 -14.4,-6 m 59.6,-1.65 -0.35,-0.3 -1.65,-0.5 q -3,0.1 -2.85,2.95 0.05,0.65 0.45,1.05 l 0.2,0.2 -1.4,1.1 -0.25,0.2 h -0.2 l -0.2,-0.2 Q 17,-6.1 16.65,-7.3 l 2.8,-4.05 -0.8,0.35 1.8,-1.9 0.55,-0.55 0.45,-0.45 0.95,-0.9 q 3.9,-3.7 8.1,-7.05 l -0.1,1.1 q -0.4,1 -0.5,2.15 l -0.3,4.2 -5.5,4.85 m 7.3,-6.55 0.75,-4.8 -0.05,-0.65 -0.05,-0.4 0.35,-0.6 0.25,-0.9 v -0.1 -0.05 l 0.7,-0.45 q 1,-0.6 2.2,-0.9 l 0.55,0.2 0.75,0.35 0.15,0.25 0.1,0.2 0.1,0.2 v 0.65 1.3 l -0.2,0.2 -5.6,5.5 M 15.75,0.45 15.7,0.5 1.5,5.35 1.4,5.4 -0.75,6.15 -1.4,6.2 -2.3,6.15 -2.65,5.85 -2.6,5.3 Q -2.1,4.1 -0.55,3.7 L 0.7,3.2 1,2.95 1.3,2.85 2.75,2.3 4.8,1.5 13.85,-2.1 q 0.8,1.35 1.9,2.55"
         fill="#866262"
         fill-rule="evenodd"
         stroke="none"
         id="path4" />
      <path
         d="m -17.6,-1.9 q 5,-0.15 10.05,-1.6 L 11.6,-8.95 q 0.25,2.25 1,4.25 L 12.95,-3.85 12.2,-3.6 11.15,-3.15 6.2,-1.3 5.15,-1.5 4.15,-1.25 -5.05,0.8 -5.5,0.7 H -5.65 L -7.2,1 -8.3,0.9 -9.15,1 -9.8,1.2 l -3.25,0.85 -0.25,0.2 -0.2,0.2 -0.95,0.25 -2.8,0.55 Q -17.3,2.05 -17.8,1 l 0.15,-2.35 0.05,-0.55 M -4.65,3.6 -4.7,4.15 -4.9,4.35 -5.05,4.6 -5.2,5.6 V 5.65 L -5.25,7.6 V 8 L -5.3,8.25 q -0.15,1.65 -0.55,3.2 -6.45,2.8 -12.85,5.45 l -0.65,-0.5 q -5.3,-4.3 -12.3,-3.95 l -2.7,-3.1 q -1.15,-1.3 -1.75,-2.7 1.25,-2 1.1,-4.3 l -0.45,-7.95 -0.05,-2.3 q 6.65,4.45 14.4,6 l 0.15,3.1 1.05,6.3 v 1.85 l 0.6,1.3 0.85,3.85 0.3,0.1 0.65,-0.1 q 0.15,-0.95 0,-1.95 l -0.05,-0.95 1.4,0.15 q 1.3,-0.2 1.6,-2.05 l 0.05,-1.1 q 1.1,-1.55 3,-2.35 l 1.3,-0.5 5.55,-2.15 m 28.75,-13.15 5.5,-4.85 -0.05,0.55 -0.15,0.2 -0.05,0.2 -0.1,0.2 0.05,1.1 0.05,1.5 -0.3,0.65 -0.45,1.05 q -3.65,2.05 -6.05,5.45 v 0.15 l -1.6,1.55 -2.65,-2.75 -0.25,-0.3 h 0.2 l 0.25,-0.2 1.4,-1.1 q 3.75,2.85 5.2,-1.5 L 24.75,-8.7 24.1,-9.55 m 7.3,-6.55 5.6,-5.5 0.2,-0.2 0.35,2.15 q 0.45,1.6 0.1,3.2 l -4.45,3.95 -2.35,1.9 v -0.2 l 0.55,-5.3 m -0.8,12 3.75,-2.85 q 0,0.7 0.4,1.35 l -0.05,1.5 v 1.3 l -0.15,0.25 -0.25,0.35 -0.3,0.25 -6.85,0.85 3.45,-3 M -2.65,5.85 -2.3,6.15 -1.4,6.2 -0.75,6.15 1.4,5.4 1.5,5.35 15.7,0.5 15.75,0.45 18.05,2.6 18.35,2.85 18.2,2.9 17.75,2.8 q -4,-0.25 -7.85,1.5 l -12.75,5.8 0.1,-1.3 0.05,-1.15 0.05,-1.3 v -0.5 m -3.9,16.8 -0.7,0.2 -0.4,0.2 q -0.55,0.4 -0.7,1.05 l -0.05,0.45 0.35,1.05 0.75,0.65 0.75,0.15 0.6,-0.2 0.4,-0.15 0.25,-0.25 0.45,-0.65 0.05,-0.2 V 24.55 24.1 L -4.85,23.9 -5,23.65 l -0.3,-0.4 -0.25,-0.2 -0.4,-0.2 -0.6,-0.2 m -6.45,-2 1.15,-0.5 -0.05,0.15 -0.15,0.65 -0.2,0.25 -0.2,0.2 v 0.2 l -0.05,0.2 v 0.25 l -0.4,0.85 -0.15,0.85 -0.15,0.2 -0.25,0.2 q 0.05,0.6 -0.25,1.1 l -0.45,1.3 -0.4,0.65 -0.1,0.4 0.25,0.55 0.45,0.45 q 0.7,-0.25 1.05,-1 0.65,-1.25 0.85,-2.65 l 0.75,-1.4 1,-2.9 0.3,-0.2 0.15,-0.2 0.2,-0.9 0.1,-0.2 8.6,-3.9 Q -3.25,21 -4.85,27.1 L -15,29.55 q -2.4,-1.75 -5,-3.1 l -0.4,-0.4 -1.25,-1.3 0.5,-1.05 0.35,-1 1.85,0.2 q 3,-0.9 5.95,-2.25"
         fill="#735656"
         fill-rule="evenodd"
         stroke="none"
         id="path5" />
    </g>
    <g
       id="sprite1"
       transform="translate(17.4,15.85)">
      <use
         ffdec:characterId="31"
         height="57.200001"
         transform="matrix(0.5366,0,0,0.5366,-16.6582,-14.546)"
         width="70.75"
         xlink:href="#sprite2"
         id="use5" />
    </g>
    <g
       id="sprite2"
       transform="translate(-8.65,-10.35)">
      <use
         ffdec:characterId="30"
         height="57.200001"
         transform="translate(8.65,10.35)"
         width="70.75"
         xlink:href="#shape1"
         id="use6" />
    </g>
    <g
       id="shape1"
       transform="translate(-8.65,-10.35)">
      <path
         d="m 14.8,41.7 q 0.65,-1.75 2.65,-2.5 1.8,-0.8 3.7,-0.25 1.15,0.45 2.25,1.2 l 0.9,0.4 q 1.65,0.9 2.85,2.5 L 37.8,30.1 q 2.35,-2.8 3.75,-3.95 1.5,-1.15 4.25,-2.4 18.2,-8.85 27.65,-12.6 2.15,-0.8 3.25,-0.8 h 0.8 l 1.9,2.4 -0.2,0.8 q -0.2,1.1 -1.55,3 -5.85,8.25 -18.85,23.8 -1.85,2.35 -3.35,3.5 -1.4,1.15 -4.75,2.75 l -15.15,7.15 q 1.2,1.6 1.75,3.4 l 0.2,1 0.55,2.5 q 0.1,1.95 -1.1,3.55 -1.2,1.65 -3.05,1.9 l -1.3,0.05 q -1.65,0.2 -3.45,-0.65 -1.85,-0.9 -3,-2.6 L 25,60.95 23.8,62.1 q -2.6,2.85 -4.3,3.95 -2.85,1.8 -5.5,1.45 l -1.65,-0.5 -1.2,-0.7 -0.2,-0.2 q -1,-0.85 -1.6,-1.9 L 9.25,64 9.15,63.8 8.75,62.4 q -0.2,-0.8 -0.05,-1.7 0.25,-2.65 2.7,-5.05 1.5,-1.3 4.9,-3.15 L 17.7,51.55 16.05,50 q -1.35,-1.5 -1.8,-3.6 -0.4,-1.85 0.25,-3.45 l 0.3,-1.25"
         fill="#000000"
         fill-opacity="0.372549"
         fill-rule="evenodd"
         stroke="none"
         id="path6" />
    </g>
  </defs>
</svg>
