<?xml version="1.0" encoding="UTF-8" standalone="no"?>
<svg
   ffdec:objectType="frame"
   height="67.845108"
   width="74.317757"
   version="1.1"
   id="svg6"
   xmlns:xlink="http://www.w3.org/1999/xlink"
   xmlns="http://www.w3.org/2000/svg"
   xmlns:svg="http://www.w3.org/2000/svg"
   xmlns:ffdec="https://www.free-decompiler.com/flash">
  <g
     transform="translate(36.148529,33.537838)"
     id="g1">
    <use
       ffdec:characterId="17"
       height="119.15"
       id="rarity"
       transform="translate(-58.5,-60.65)"
       width="119.15"
       xlink:href="#sprite0" />
    <use
       ffdec:characterId="145"
       height="67.849998"
       transform="translate(-36.15,-33.55)"
       width="74.300003"
       xlink:href="#shape0"
       id="use1" />
  </g>
  <defs
     id="defs6">
    <g
       id="shape0"
       transform="translate(35.85,36.05)">
      <path
         d="m 12.6,-25.35 -0.25,-0.3 q -1.6,-2 -4.1,-3.15 -2.35,-1.1 -5,-1.1 l -0.9,0.05 q -2.05,0.15 -4,0.95 -2.1,0.85 -4.05,2.5 l -1.5,1.35 -0.8,0.6 -0.9,0.6 -0.55,0.3 q -0.55,0.25 -1.1,0.35 -0.85,0.15 -2.15,0 l -0.55,-0.05 -2.65,-0.25 h -0.2 q -3.25,0.1 -6.2,3.05 l -0.25,0.25 -0.4,0.45 -1.6,1.95 -1.7,3.25 q -0.9,2.15 -0.8,4.05 l 0.4,2.2 0.05,1.65 q 0,0.95 -0.45,2.15 l -0.8,2.1 q -1.6,4.3 -1.2,8.9 0.45,4.85 3.05,8.65 2.5,3.65 6.9,6.3 l 0.75,0.45 3.3,1.7 2.95,1.25 q 10.35,2.05 18.15,1.1 11.2,-1.3 17.9,-7.85 l 0.6,-0.6 2.65,-3.4 q 1.25,-1.95 2.1,-4.2 1.8,-4.85 1.2,-9.8 l -0.4,-2.8 q -0.2,-1.65 0,-2.8 l 0.9,-2.45 0.95,-2.4 q 1,-2.9 -0.5,-6.25 -0.7,-1.6 -1.8,-2.95 l -1.2,-1.3 -1.2,-1.05 Q 25.6,-23.2 24,-23.75 22.1,-24.5 20.3,-24.2 l -2.8,0.8 -0.95,0.15 q -0.3,0.2 -0.65,0.25 l -0.55,0.05 -1.4,-0.8 -1.25,-1.45 -0.1,-0.15 m -32.15,9.55 0.85,-0.6 2.8,-1.15 1.75,-0.3 2.6,0.15 0.75,0.15 1.5,0.45 h 0.05 l 0.85,0.4 0.45,-1.05 1.6,-2.15 1.45,-1.25 2.1,-1.15 4.1,-1 3,0.15 3.35,1.05 1.65,0.85 0.95,0.6 q 1.8,1.25 3.15,2.95 l 0.25,0.3 0.7,0.5 0.4,0.05 0.8,-0.15 4.45,-0.3 q 1.55,0.25 2.95,0.95 l 1.25,0.65 q 1.6,1.05 2.15,2.15 0.45,1 0.45,2.85 l -0.2,3.2 -0.95,2.15 0.35,1.45 q 1,6.15 -1.55,13.25 l -0.25,0.6 -0.55,1.4 -0.45,1.05 -1.15,1.85 -0.35,0.45 -0.75,0.8 q -1.3,1.1 -3.1,2 l -4.5,1.75 -3.95,1.3 -2.25,0.65 -6.45,0.95 q -3.65,0.05 -8.05,-1.05 -5.45,-1.45 -8.4,-3.65 l -2.8,-2.55 -0.15,-0.25 -0.35,-0.4 -0.2,-0.25 -1.45,-2.1 -0.15,-0.2 -1.35,-2.4 -1,-2.9 q -0.65,-3 0.35,-6.2 l 1.4,-3.2 q -0.9,-0.8 -1.35,-2.15 -0.45,-1.25 -0.5,-3 v -0.3 -1.8 l 0.05,-0.3 q 0.3,-1.1 1,-2.25 l 0.95,-1.25 0.5,-0.65 1.25,-1.1 M 17.5,-30.3 q 4.45,-0.95 9.6,1.55 6.3,2.95 9.35,8.8 1.55,3 1.95,6.2 0.3,3.25 -0.7,6.2 l -0.8,2.05 -0.55,2.15 q -0.15,0.75 0.05,3.5 0.65,8.05 -3.1,15.3 -3.65,7.25 -10.35,11.25 -8.8,5.3 -23.9,5.1 -4.65,-0.1 -7.9,-0.95 l -2.8,-0.9 q -3.05,0.15 -6.75,-1.25 -4.4,-1.6 -8.1,-4.85 -3.8,-3.2 -6.1,-7.35 -2.35,-4.2 -3,-8.95 -0.65,-4.7 0.4,-9.15 l 0.8,-2.8 0.7,-2.9 q 0.15,-1.6 0.15,-4.85 0.2,-3.75 1.75,-7.2 1.55,-3.45 4.25,-5.95 2.65,-2.45 6.2,-3.8 3.55,-1.35 7.35,-1.3 l 2.45,-0.2 q 0.75,-0.2 2.4,-1.5 3.3,-2.6 7.5,-3.5 4.2,-0.9 8.5,0.05 3.85,0.85 6.7,3.25 l 2.35,2.55 1.6,-0.55 m -6.4,18.45 -1.35,-1.45 -1.4,-1.45 q -2.05,-2.1 -4.85,-2.5 l -3,0.15 q -1.45,0.4 -2.35,1.5 l -1.1,1.8 -0.55,0.85 0.05,0.5 0.3,3.15 0.05,0.6 0.05,-0.05 q 1.45,-1.4 3.3,-2.05 0.2,-0.65 0.8,-0.95 1.05,-0.75 2.9,-0.4 2.7,0.55 4.75,2.65 1.45,1.4 2.05,3.15 l 2.15,-4.4 q -0.85,-0.3 -1.8,-1.1 m -29.7,14.6 q 0.05,2.65 1.25,5 1.1,2.25 3.2,4.1 5.15,4.55 12.8,4.9 L 6.1,16 8.7,14 11,11.2 q 1.6,-2.1 2.15,-3.7 0.5,-1.15 0.75,-4.25 l -0.05,-1.4 -1,-1.65 -0.45,-1.1 -0.55,-0.05 q -0.45,0.05 -1,0.5 L 9.9,0.1 8.2,0.05 Q 7.35,-0.45 7.1,-1.25 L 7,-2.55 7.15,-3.85 Q 7.2,-5 6.4,-6 5.65,-7.05 4.5,-7.45 L 2.75,-7.8 q -2.4,0.85 -3.95,2.9 -0.95,1.3 -1.35,1.5 -0.85,0.5 -2.2,0.3 l -2.3,-0.65 q -3.9,-0.9 -7.15,1.25 -1,0.75 -1.65,0.95 -1,0.25 -1.8,-0.3 -0.95,2.1 -0.95,4.6 m 36.05,-14.65 -0.4,0.05 -1.15,0.6 -0.7,0.4 -0.15,0.6 -1.55,3.9 -0.65,2 1.2,0.2 q 1.25,0.5 1.85,1.25 l 0.95,1.25 0.15,0.2 0.8,-0.65 3.1,-2.2 q -0.25,-1.35 0.2,-2.15 l 0.55,-0.7 Q 21.6,-8.1 21.8,-9.05 l 0.05,-1.7 q -0.4,-0.85 -2,-1.1 l -0.3,-0.05 h -2.1 M 18.05,1.9 18,2.05 17.9,5.3 17.3,8.5 q -0.35,1.25 -1.75,3.25 l -1.1,1.5 2.85,-1.9 Q 18.9,9.7 19.85,7.1 20.5,5.3 21.05,2.1 L 21.4,-0.5 21.35,-1.45 21,-1.2 18.7,0.8 18.1,1.25 18,1.3 18.05,1.45 V 1.9 m -26,-13.5 -3.5,-0.55 -2.2,0.1 q -1.2,0.35 -3,2.3 l -0.7,1.1 q -0.25,0.65 0.1,1.75 l 0.2,0.5 0.45,-0.3 q 4.55,-2.15 7.8,-1.8 l 2.75,0.65 -0.1,-3.55 -1.8,-0.2"
         fill="#000000"
         fill-rule="evenodd"
         stroke="none"
         id="path1" />
      <path
         d="m 2.35,-29.85 0.05,0.05 q 0.7,0.75 0.75,1.7 l -0.15,0.95 -0.15,0.2 q -0.55,1.1 -1.55,1.45 l -0.3,0.05 -1.6,-0.1 -0.05,-0.05 q -0.7,-0.35 -1.05,-1.2 v -0.05 q -0.35,-0.8 -0.15,-1.55 l 0.2,-0.5 q 1.95,-0.8 4,-0.95 m -18.45,6.35 0.55,0.6 q 0.5,0.7 0.35,1.45 -0.1,0.55 -0.8,1.35 l -3.55,4.25 v 0.05 l -1.25,1.1 -0.5,0.65 q -0.8,0.5 -1.55,0.5 l -0.45,-0.05 q -0.75,-0.05 -1.3,-0.65 l -0.55,-0.95 -0.05,-0.4 q -0.15,-1.2 1,-2.5 l 1.4,-1.6 0.25,-0.3 0.1,-0.2 0.15,-0.25 q 2.95,-2.95 6.2,-3.05 M 24,-23.75 q 0.25,1.4 -1.3,2.85 -1.2,1.05 -2.75,1.95 l -1.8,0.9 q -1.05,0.5 -1.75,0.6 -1.25,0.15 -2.15,-0.55 -1.05,-0.85 -0.8,-2.05 l 0.65,-1.35 0.9,-1.15 0.35,-0.4 0.55,-0.05 q 0.35,-0.05 0.65,-0.25 l 0.95,-0.15 2.8,-0.8 q 1.8,-0.3 3.7,0.45 m -3.05,39.25 0.3,0.9 q 0.2,1.55 -1.1,2.85 -0.95,0.9 -2.75,1.7 l -3.55,1.5 -2.7,0.2 Q 9.55,22.2 9.4,20.8 v -0.25 l 3.95,-1.3 4.5,-1.75 q 1.8,-0.9 3.1,-2"
         fill="#ffffff"
         fill-rule="evenodd"
         stroke="none"
         id="path2" />
      <path
         d="m 2.35,-29.85 0.9,-0.05 q 2.65,0 5,1.1 2.5,1.15 4.1,3.15 l 0.25,0.3 -0.15,0.25 0.25,-0.1 1.25,1.45 1.4,0.8 -0.35,0.4 -0.9,1.15 -0.65,1.35 q -0.25,1.2 0.8,2.05 0.9,0.7 2.15,0.55 0.7,-0.1 1.75,-0.6 l 1.8,-0.9 q 1.55,-0.9 2.75,-1.95 1.55,-1.45 1.3,-2.85 1.6,0.55 3.25,1.85 l 1.2,1.05 1.2,1.3 q -1.05,1.25 -3.15,2.15 -1.7,0.7 -3.55,1.05 -1.4,-0.7 -2.95,-0.95 l -4.45,0.3 -0.8,0.15 -1.1,-0.55 -0.25,-0.3 q -1.35,-1.7 -3.15,-2.95 l -0.2,-1.2 0.2,-1.25 -1.15,0.5 -1.45,0.5 -3.35,-1.05 -3,-0.15 -4.1,1 -2.1,1.15 -1.45,1.25 -1.6,2.15 -0.45,1.05 -0.85,-0.4 H -9.3 l -1.5,-0.45 -0.75,-0.15 -2.6,-0.15 -1.75,0.3 -2.8,1.15 -0.85,0.6 v -0.05 L -16,-20.1 q 0.7,-0.8 0.8,-1.35 0.15,-0.75 -0.35,-1.45 l -0.55,-0.6 h 0.2 l 2.65,0.25 0.55,0.05 q 1.3,0.15 2.15,0 0.55,-0.1 1.1,-0.35 l 0.55,-0.3 0.9,-0.6 0.8,-0.6 1.5,-1.35 q 1.95,-1.65 4.05,-2.5 l -0.2,0.5 q -0.2,0.75 0.15,1.55 v 0.05 q 0.35,0.85 1.05,1.2 l 0.05,0.05 1.6,0.1 0.3,-0.05 q 1,-0.35 1.55,-1.45 L 3,-27.15 3.15,-28.1 Q 3.1,-29.05 2.4,-29.8 l -0.05,-0.05 m 21.6,41.15 0.9,-0.05 q 0.95,0.15 1.6,0.9 0.7,0.7 0.75,1.65 v 0.3 l -2.65,3.4 -0.6,0.6 q -6.7,6.55 -17.9,7.85 -7.8,0.95 -18.15,-1.1 l -2.95,-1.25 -3.3,-1.7 q -1.35,-1.65 -1.45,-3.5 v -1 q 0.2,-1.7 1.25,-2.5 l 2.8,2.55 q 2.95,2.2 8.4,3.65 4.4,1.1 8.05,1.05 L 7.15,21.2 9.4,20.55 v 0.25 q 0.15,1.4 1.75,1.85 l 2.7,-0.2 3.55,-1.5 q 1.8,-0.8 2.75,-1.7 1.3,-1.3 1.1,-2.85 l -0.3,-0.9 0.75,-0.8 0.35,-0.45 1.15,-1.85 0.45,-1.05 0.3,-0.05 m -50.6,-19.6 -0.4,-2.2 q -0.1,-1.9 0.8,-4.05 l 0.5,-0.15 0.6,-0.5 0.55,0.95 q 0.55,0.6 1.3,0.65 l 0.45,0.05 q 0.75,0 1.55,-0.5 l -0.95,1.25 q -0.7,1.15 -1,2.25 l -0.05,0.3 v 1.8 l -0.9,0.55 q -1.2,0.4 -2.35,-0.35 l -0.1,-0.05 m 4.1,-11.9 0.25,-0.25 -0.15,0.25 -0.1,0.2 v -0.2"
         fill="#a18f82"
         fill-rule="evenodd"
         stroke="none"
         id="path3" />
      <path
         d="m 7.65,-22.1 1.45,-0.5 1.15,-0.5 -0.2,1.25 0.2,1.2 -0.95,-0.6 -1.65,-0.85 m 6,4.7 1.1,0.55 -0.4,-0.05 -0.7,-0.5 m 9.3,1.05 q 1.85,-0.35 3.55,-1.05 2.1,-0.9 3.15,-2.15 1.1,1.35 1.8,2.95 1.5,3.35 0.5,6.25 L 31,-7.95 30.1,-5.5 q -0.2,1.15 0,2.8 l 0.4,2.8 q 0.6,4.95 -1.2,9.8 -0.85,2.25 -2.1,4.2 v -0.3 q -0.05,-0.95 -0.75,-1.65 -0.65,-0.75 -1.6,-0.9 l -0.9,0.05 0.4,-1.25 0.1,-0.7 Q 27,2.25 26,-3.9 l -0.35,-1.45 0.95,-2.15 0.2,-3.2 q 0,-1.85 -0.45,-2.85 -0.55,-1.1 -2.15,-2.15 l -1.25,-0.65 m -41.5,31.25 q -1.05,0.8 -1.25,2.5 v 1 q 0.1,1.85 1.45,3.5 l -0.75,-0.45 q -4.4,-2.65 -6.9,-6.3 -2.6,-3.8 -3.05,-8.65 -0.4,-4.6 1.2,-8.9 l 0.8,-2.1 q 0.45,-1.2 0.45,-2.15 l -0.05,-1.65 0.1,0.05 q 1.15,0.75 2.35,0.35 l 0.9,-0.55 v 0.3 q 0.05,1.75 0.5,3 0.45,1.35 1.35,2.15 l -1.4,3.2 q -1,3.2 -0.35,6.2 l 1,2.9 1.35,2.4 0.15,0.2 1.45,2.1 0.2,0.25 0.35,0.4 0.15,0.25 m -7.7,-29.45 1.7,-3.25 1.6,-1.95 0.15,0.05 -1.4,1.6 q -1.15,1.3 -1,2.5 l 0.05,0.4 -0.6,0.5 -0.5,0.15"
         fill="#7e6c5f"
         fill-rule="evenodd"
         stroke="none"
         id="path4" />
      <path
         d="m 11.1,-11.85 q 0.95,0.8 1.8,1.1 l -2.15,4.4 Q 10.15,-8.1 8.7,-9.5 q -2.05,-2.1 -4.75,-2.65 -1.85,-0.35 -2.9,0.4 -0.6,0.3 -0.8,0.95 -1.85,0.65 -3.3,2.05 l -0.05,0.05 -0.05,-0.6 -0.3,-3.15 -0.05,-0.5 0.55,-0.85 1.1,-1.8 q 0.9,-1.1 2.35,-1.5 l 3,-0.15 q 2.8,0.4 4.85,2.5 l 1.4,1.45 1.35,1.45 m 8.75,0 q 1.6,0.25 2,1.1 l -0.05,1.7 q -0.2,0.95 -0.15,1.9 l -0.55,0.7 q -0.45,0.8 -0.2,2.15 L 17.8,-2.1 17,-1.45 16.85,-1.65 15.9,-2.9 q -0.6,-0.75 -1.85,-1.25 l -1.2,-0.2 0.65,-2 1.55,-3.9 0.15,-0.6 0.7,-0.4 1.15,-0.6 0.4,-0.05 h 0.6 l 1.35,0.05 h 0.45 M 18.05,1.45 18,1.3 18.1,1.25 18.7,0.8 l 2.3,-2 0.35,-0.25 0.05,0.95 -0.35,2.6 q -0.55,3.2 -1.2,5 -0.95,2.6 -2.55,4.25 l -2.85,1.9 1.1,-1.5 q 1.4,-2 1.75,-3.25 L 17.9,5.3 18,2.05 18.05,1.9 18.1,1.45 h -0.05 m -26,-13.05 1.8,0.2 0.1,3.55 -2.75,-0.65 q -3.25,-0.35 -7.8,1.8 l -0.45,0.3 -0.2,-0.5 q -0.35,-1.1 -0.1,-1.75 l 0.7,-1.1 q 1.8,-1.95 3,-2.3 l 2.2,-0.1 3.5,0.55"
         fill="#5d4e43"
         fill-rule="evenodd"
         stroke="none"
         id="path5" />
    </g>
    <g
       id="sprite1"
       transform="translate(17.4,15.85)">
      <use
         ffdec:characterId="31"
         height="57.200001"
         transform="matrix(0.5366,0,0,0.5366,-16.6582,-14.546)"
         width="70.75"
         xlink:href="#sprite2"
         id="use5" />
    </g>
    <g
       id="sprite2"
       transform="translate(-8.65,-10.35)">
      <use
         ffdec:characterId="30"
         height="57.200001"
         transform="translate(8.65,10.35)"
         width="70.75"
         xlink:href="#shape1"
         id="use6" />
    </g>
    <g
       id="shape1"
       transform="translate(-8.65,-10.35)">
      <path
         d="m 14.8,41.7 q 0.65,-1.75 2.65,-2.5 1.8,-0.8 3.7,-0.25 1.15,0.45 2.25,1.2 l 0.9,0.4 q 1.65,0.9 2.85,2.5 L 37.8,30.1 q 2.35,-2.8 3.75,-3.95 1.5,-1.15 4.25,-2.4 18.2,-8.85 27.65,-12.6 2.15,-0.8 3.25,-0.8 h 0.8 l 1.9,2.4 -0.2,0.8 q -0.2,1.1 -1.55,3 -5.85,8.25 -18.85,23.8 -1.85,2.35 -3.35,3.5 -1.4,1.15 -4.75,2.75 l -15.15,7.15 q 1.2,1.6 1.75,3.4 l 0.2,1 0.55,2.5 q 0.1,1.95 -1.1,3.55 -1.2,1.65 -3.05,1.9 l -1.3,0.05 q -1.65,0.2 -3.45,-0.65 -1.85,-0.9 -3,-2.6 L 25,60.95 23.8,62.1 q -2.6,2.85 -4.3,3.95 -2.85,1.8 -5.5,1.45 l -1.65,-0.5 -1.2,-0.7 -0.2,-0.2 q -1,-0.85 -1.6,-1.9 L 9.25,64 9.15,63.8 8.75,62.4 q -0.2,-0.8 -0.05,-1.7 0.25,-2.65 2.7,-5.05 1.5,-1.3 4.9,-3.15 L 17.7,51.55 16.05,50 q -1.35,-1.5 -1.8,-3.6 -0.4,-1.85 0.25,-3.45 l 0.3,-1.25"
         fill="#000000"
         fill-opacity="0.372549"
         fill-rule="evenodd"
         stroke="none"
         id="path6" />
    </g>
  </defs>
</svg>
