<?xml version="1.0" encoding="UTF-8" standalone="no"?>
<svg
   ffdec:objectType="frame"
   height="70.59729"
   width="95.09436"
   version="1.1"
   id="svg5"
   xmlns:xlink="http://www.w3.org/1999/xlink"
   xmlns="http://www.w3.org/2000/svg"
   xmlns:svg="http://www.w3.org/2000/svg"
   xmlns:ffdec="https://www.free-decompiler.com/flash">
  <g
     transform="translate(47.465789,33.656383)"
     id="g1">
    <use
       ffdec:characterId="17"
       height="119.15"
       id="rarity"
       transform="translate(-58.5,-60.65)"
       width="119.15"
       xlink:href="#sprite0" />
    <use
       ffdec:characterId="890"
       height="70.599998"
       transform="translate(-47.45,-33.65)"
       width="95.099998"
       xlink:href="#shape0"
       id="use1" />
  </g>
  <defs
     id="defs5">
    <g
       id="shape0"
       transform="translate(48,34.4)">
      <path
         d="m 36.75,-14 q 3.35,1.65 5.85,5 2.25,3.05 3.45,7 1.2,4.1 1,8.1 -0.2,4.3 -2.05,7.75 l -1.05,2.05 -0.65,2.3 q -0.55,2 -2.65,4.95 -2.85,4.05 -5.05,5.6 -2.25,1.65 -5.85,2.7 -4.75,1.3 -9.55,1.15 l -2.85,-0.1 -2.85,0.35 q -0.65,0.2 -1.55,0.7 l -1.5,0.8 Q 7,36.6 0.9,36.1 -2.9,35.85 -9.65,34 l -3,-0.85 -1.55,-0.25 -1.95,-0.6 -2,-0.45 -2.25,-0.05 -2.3,0.2 q -6.45,0.55 -11.8,-0.9 -6.1,-1.7 -10.15,-5.95 -2.1,-2.3 -2.85,-4.55 -0.7,-2.3 -0.45,-5.6 0.45,-5.35 2.7,-10.05 Q -42.9,0 -39,-3.25 l 1.35,-1.6 q 0.15,-0.5 0.15,-1.5 0,-2.05 1.05,-4.7 2.35,-6.05 7.6,-10.25 5.25,-4.2 11.65,-5.2 2.1,-0.35 2.8,-0.85 0.45,-0.3 1.4,-1.5 1.45,-1.65 3.7,-2.7 4.3,-2.2 9.35,-1.85 4.55,0.25 8.25,2.55 l 0.35,-0.3 q 3.5,-2.65 8.05,-3.15 4.6,-0.5 8.6,1.35 3.85,1.75 7,5.65 l 3.05,4.45 q 1,1.8 1.3,3.15 0.3,1.6 0.05,3.8 l -0.25,1.75 0.3,0.15 m 2.1,26.45 -0.05,-0.5 0.55,-0.55 Q 40.85,9.65 41.05,6.05 41.3,1.55 39.9,-2 39.15,-3.9 38.05,-5.3 36.65,-7.05 34.75,-8.15 L 34.1,-8.45 Q 33.15,-7.35 32.3,-7 31,-6.5 30.2,-7.25 l 0.95,-1.9 0.55,-1.8 q 0.35,-1.7 0.35,-3.95 0,-2 -0.4,-3.55 -0.8,-2.7 -4,-5.65 l -3.1,-2.25 q -1.45,-1 -2.85,-1.45 L 21,-28 q -2.6,-0.7 -5.05,0.1 -1.1,0.3 -2.1,0.9 l -2.1,1.3 q -0.3,0.2 -0.6,0.3 l -0.45,0.45 -0.1,0.05 q -0.5,0.3 -1.1,0.25 l -1.05,-0.2 q -0.65,-0.2 -2.1,-1.05 -4.25,-2.5 -9.25,-1.8 -3.75,0.6 -5.55,2.95 l -0.9,1.4 q -0.55,0.9 -1.05,1.3 l -0.15,0.15 q -0.8,0.65 -2.2,1 h -0.1 l -2.8,0.4 q -4.95,0.7 -9.05,4 -4.05,3.2 -5.85,7.75 l -0.05,0.15 q -0.75,2.2 -0.7,3.6 l 0.1,1.55 v 0.8 0.15 l -0.15,0.6 q -0.25,0.85 -1.15,1.65 l -1.65,1.3 -1.6,1.4 q -4,3.85 -5.4,10.65 l -0.3,2.3 q -0.15,2.05 0.45,3.5 1.2,2.95 5.6,4.85 5.3,2.45 10.05,2.3 l 5.5,-0.3 4.05,0.7 3.5,1.2 4.35,0.8 8.05,1.6 q 4.85,0.45 8.1,-0.9 l 2.6,-1.3 Q 12.45,27 13.45,26.7 l 1.95,-0.35 q 2.75,1.1 6.75,1 L 26.45,27 q 3.1,-0.65 5.8,-2.45 2.7,-1.75 4.5,-4.4 l 1.4,-2.75 q 0.8,-2.15 0.7,-4.95"
         fill="#000000"
         fill-rule="evenodd"
         stroke="none"
         id="path1" />
      <path
         d="m 26.4,-19.55 q 0.35,1.1 -0.05,2.3 -0.35,1.15 -1.25,2 -1.35,1.35 -4.1,2 l -2.95,0.2 q -1.5,-0.2 -2.75,-1.15 -1.25,-0.95 -1.85,-2.35 L 13.1,-18 q -0.05,-1.15 0.45,-2.55 0.35,-1.05 0.85,-1.75 0.9,-1.25 2.45,-1.8 l 3.05,-0.35 2.55,0.6 q 1,0.55 2.4,1.95 1.3,1.4 1.55,2.35 m -15.8,1.4 q 0,1.5 -1.25,2.5 l -1.05,0.6 -1.1,0.15 -0.85,-0.15 q -0.65,-0.2 -1.2,-0.7 -0.9,-0.8 -1.05,-1.9 -0.2,-1.1 0.45,-2.15 0.65,-1.05 1.7,-1.4 l 1.35,-0.15 0.85,0.2 q 1.15,0.4 1.7,1.4 l 0.45,1.15 v 0.45 m 11.45,14.2 Q 20.4,-3.6 19.5,-4.9 l -0.1,-0.15 q -0.3,-0.55 -0.35,-1.2 0,-0.75 0.4,-1.35 0.35,-0.65 1.1,-0.9 l 1.4,-0.15 q 1.55,0.35 1.9,1.95 L 23.9,-6.25 23.45,-5 q -0.55,0.8 -1.4,1.05 m -13.3,2.8 4,-0.1 q 0.95,0.5 1.4,1.55 0.45,1.05 0,1.95 Q 13.6,3.55 11.65,4 9.4,4.45 8.1,3.35 7.35,2.75 7.1,1.8 6.85,0.8 7.3,0 l 1.45,-1.15 m 25.9,-0.75 1.25,0.85 1.25,1.15 Q 38,1.25 37.75,2.85 37.45,4.2 36.3,5.3 35.1,6.45 33.4,6.6 L 31.15,6.45 q -1.3,-0.3 -1.8,-0.6 L 27.85,4.8 27.05,4.1 Q 26.2,3.1 26.35,1.7 26.4,0.55 27.2,-0.65 l 1.2,-1.2 q 1.15,-0.65 2.6,-0.5 l 1.25,0.2 1.2,0.05 1.2,0.2 M 15.9,11.3 Q 14.65,10.45 14.65,8.95 14.7,8.1 15.3,7.35 15.9,6.6 16.75,6.4 l 1.75,0.15 q 0.85,0.4 1.25,1.2 0.45,0.8 0.3,1.75 -0.15,0.95 -0.85,1.55 -0.65,0.6 -1.6,0.65 -0.95,0.1 -1.7,-0.4 M -16.65,-8.35 q -1.7,1.6 -3.3,2.05 l -0.6,0.15 q -1.25,0.25 -2.5,0 -1.25,-0.25 -2.2,-0.95 -0.55,-0.45 -0.9,-1.05 l -0.35,-0.95 0.05,-1.7 0.55,-2.35 q 0.7,-1.45 2.1,-2.4 1,-0.75 2.85,-1.5 l 1.45,-0.45 q 2.05,-0.3 3.9,1.5 l 0.8,1.2 q 0.35,0.7 0.35,1.65 0,1.15 -0.25,1.9 -0.45,1.5 -1.95,2.9 m 11,-14.25 q 0.4,-1 1.45,-1.5 0.85,-0.35 1.8,0 0.9,0.3 1.4,1.1 0.5,0.8 0.35,1.75 -0.15,1 -0.85,1.6 -0.8,0.65 -1.7,0.65 h -0.35 q -0.55,-0.1 -1,-0.35 l -0.4,-0.35 q -0.6,-0.55 -0.8,-1.35 -0.2,-0.8 0.1,-1.55 m -8.3,13.85 1.15,-1.1 1.6,-0.3 1.05,0.4 0.4,0.3 q 0.6,0.55 0.8,1.35 0.2,0.8 -0.1,1.6 -0.3,0.8 -1,1.25 -0.7,0.5 -1.55,0.45 -0.85,0 -1.55,-0.5 -0.65,-0.45 -0.9,-1.2 l -0.1,-0.35 q -0.25,-1.05 0.2,-1.9 M -13.8,8.2 q -0.25,0.65 -0.75,1 -0.55,0.4 -1.3,0.4 l -1.3,-0.4 -0.75,-1.15 q -0.2,-0.75 0.05,-1.4 0.3,-0.7 1.05,-1.05 l 1.45,-0.2 q 0.9,0.15 1.4,1.05 0.45,0.8 0.15,1.75 m -9,1.45 -1.35,0.7 q -1.7,0.6 -3.55,0.6 l -3,-0.3 -1.95,-0.7 q -1.5,-1 -1.4,-2.9 0.15,-1.75 1.5,-2.95 1.05,-1 3.1,-1.55 1.85,-0.55 3.25,-0.4 1.8,0.15 2.95,1.25 l 1.1,1.4 0.55,1.4 q 0.25,0.95 -0.1,1.9 -0.35,0.95 -1.1,1.55"
         fill="#6b6c74"
         fill-rule="evenodd"
         stroke="none"
         id="path2" />
      <path
         d="m 21,-28 0.7,0.2 q 1.4,0.45 2.85,1.45 l 3.1,2.25 q 3.2,2.95 4,5.65 0.4,1.55 0.4,3.55 0,2.25 -0.35,3.95 l -0.55,1.8 -0.95,1.9 q 0.8,0.75 2.1,0.25 0.85,-0.35 1.8,-1.45 l 0.65,0.3 q 1.9,1.1 3.3,2.85 1.1,1.4 1.85,3.3 1.4,3.55 1.15,8.05 -0.2,3.6 -1.7,5.35 l -0.55,0.55 0.05,0.5 -2.05,2.45 -2.5,3.65 q -2.4,2.95 -6.2,4.65 -3.6,1.55 -7.7,1.65 -5.1,0.2 -8.1,-2.05 l -0.75,0.4 Q 6.75,25.9 1.1,26.6 -2.15,27 -7.75,26.7 l -4.35,-0.6 q -2.5,-0.7 -5.2,-2.9 l -0.95,-0.8 q -1.1,0.55 -2.7,0.85 l -5.5,0.45 Q -30,23.6 -32.6,22.55 L -36,20.7 -39.2,18.4 q -1.45,-1.3 -2.25,-3 l 0.3,-2.3 q 1.4,-6.8 5.4,-10.65 l 1.6,-1.4 1.65,-1.3 q 0.9,-0.8 1.15,-1.65 l 0.15,-0.6 v -0.15 -0.8 L -31.3,-5 q -0.05,-1.4 0.7,-3.6 l 0.05,-0.15 q 1.8,-4.55 5.85,-7.75 4.1,-3.3 9.05,-4 l 2.8,-0.4 h 0.1 q 1.4,-0.35 2.2,-1 l 0.15,-0.15 q 0.5,-0.4 1.05,-1.3 l 0.9,-1.4 q 1.8,-2.35 5.55,-2.95 5,-0.7 9.25,1.8 1.45,0.85 2.1,1.05 l 1.05,0.2 q 0.6,0.05 1.1,-0.25 l 0.1,-0.05 0.45,-0.45 q 0.3,-0.1 0.6,-0.3 l 2.1,-1.3 q 1,-0.6 2.1,-0.9 l 4.6,-0.15 L 21,-28 m 13.65,26.1 -1.2,-0.2 -1.2,-0.05 -1.25,-0.2 q -1.45,-0.15 -2.6,0.5 l -1.2,1.2 q -0.8,1.2 -0.85,2.35 -0.15,1.4 0.7,2.4 l 0.8,0.7 1.5,1.05 q 0.5,0.3 1.8,0.6 L 33.4,6.6 Q 35.1,6.45 36.3,5.3 37.45,4.2 37.75,2.85 38,1.25 37.15,0.1 L 35.9,-1.05 34.65,-1.9 M 8.75,-1.15 7.3,0 q -0.45,0.8 -0.2,1.8 0.25,0.95 1,1.55 1.3,1.1 3.55,0.65 1.95,-0.45 2.5,-1.75 0.45,-0.9 0,-1.95 -0.45,-1.05 -1.4,-1.55 l -4,0.1 m 13.3,-2.8 Q 22.9,-4.2 23.45,-5 L 23.9,-6.25 23.85,-6.7 q -0.35,-1.6 -1.9,-1.95 l -1.4,0.15 q -0.75,0.25 -1.1,0.9 -0.4,0.6 -0.4,1.35 0.05,0.65 0.35,1.2 l 0.1,0.15 q 0.9,1.3 2.55,0.95 M 10.6,-18.15 v -0.45 l -0.45,-1.15 q -0.55,-1 -1.7,-1.4 l -0.85,-0.2 -1.35,0.15 q -1.05,0.35 -1.7,1.4 -0.65,1.05 -0.45,2.15 0.15,1.1 1.05,1.9 0.55,0.5 1.2,0.7 l 0.85,0.15 1.1,-0.15 1.05,-0.6 q 1.25,-1 1.25,-2.5 m 15.8,-1.4 q -0.25,-0.95 -1.55,-2.35 -1.4,-1.4 -2.4,-1.95 l -2.55,-0.6 -3.05,0.35 q -1.55,0.55 -2.45,1.8 -0.5,0.7 -0.85,1.75 -0.5,1.4 -0.45,2.55 l 0.35,1.45 q 0.6,1.4 1.85,2.35 1.25,0.95 2.75,1.15 l 2.95,-0.2 q 2.75,-0.65 4.1,-2 0.9,-0.85 1.25,-2 0.4,-1.2 0.05,-2.3 m -49.2,29.2 q 0.75,-0.6 1.1,-1.55 0.35,-0.95 0.1,-1.9 l -0.55,-1.4 -1.1,-1.4 Q -24.4,2.3 -26.2,2.15 -27.6,2 -29.45,2.55 q -2.05,0.55 -3.1,1.55 -1.35,1.2 -1.5,2.95 -0.1,1.9 1.4,2.9 l 1.95,0.7 3,0.3 q 1.85,0 3.55,-0.6 l 1.35,-0.7 m 9,-1.45 q 0.3,-0.95 -0.15,-1.75 -0.5,-0.9 -1.4,-1.05 l -1.45,0.2 q -0.75,0.35 -1.05,1.05 -0.25,0.65 -0.05,1.4 l 0.75,1.15 1.3,0.4 q 0.75,0 1.3,-0.4 0.5,-0.35 0.75,-1 m -0.15,-16.95 q -0.45,0.85 -0.2,1.9 l 0.1,0.35 q 0.25,0.75 0.9,1.2 0.7,0.5 1.55,0.5 0.85,0.05 1.55,-0.45 0.7,-0.45 1,-1.25 0.3,-0.8 0.1,-1.6 -0.2,-0.8 -0.8,-1.35 l -0.4,-0.3 -1.05,-0.4 -1.6,0.3 -1.15,1.1 m 8.3,-13.85 q -0.3,0.75 -0.1,1.55 0.2,0.8 0.8,1.35 l 0.4,0.35 q 0.45,0.25 1,0.35 h 0.35 q 0.9,0 1.7,-0.65 0.7,-0.6 0.85,-1.6 Q -0.5,-22.2 -1,-23 q -0.5,-0.8 -1.4,-1.1 -0.95,-0.35 -1.8,0 -1.05,0.5 -1.45,1.5 m -11,14.25 q 1.5,-1.4 1.95,-2.9 0.25,-0.75 0.25,-1.9 0,-0.95 -0.35,-1.65 l -0.8,-1.2 q -1.85,-1.8 -3.9,-1.5 l -1.45,0.45 q -1.85,0.75 -2.85,1.5 -1.4,0.95 -2.1,2.4 l -0.55,2.35 -0.05,1.7 0.35,0.95 q 0.35,0.6 0.9,1.05 0.95,0.7 2.2,0.95 1.25,0.25 2.5,0 l 0.6,-0.15 q 1.6,-0.45 3.3,-2.05 M 15.9,11.3 q 0.75,0.5 1.7,0.4 0.95,-0.05 1.6,-0.65 0.7,-0.6 0.85,-1.55 0.15,-0.95 -0.3,-1.75 -0.4,-0.8 -1.25,-1.2 L 16.75,6.4 q -0.85,0.2 -1.45,0.95 -0.6,0.75 -0.65,1.6 0,1.5 1.25,2.35"
         fill="#91939d"
         fill-rule="evenodd"
         stroke="none"
         id="path3" />
      <path
         d="m -41.45,15.4 q 0.8,1.7 2.25,3 l 3.2,2.3 3.4,1.85 q 2.6,1.05 6.15,1.15 l 5.5,-0.45 q 1.6,-0.3 2.7,-0.85 l 0.95,0.8 q 2.7,2.2 5.2,2.9 l 4.35,0.6 q 5.6,0.3 8.85,-0.1 5.65,-0.7 10.45,-3.4 l 0.75,-0.4 q 3,2.25 8.1,2.05 4.1,-0.1 7.7,-1.65 3.8,-1.7 6.2,-4.65 l 2.5,-3.65 2.05,-2.45 q 0.1,2.8 -0.7,4.95 l -1.4,2.75 q -1.8,2.65 -4.5,4.4 -2.7,1.8 -5.8,2.45 l -4.3,0.35 q -4,0.1 -6.75,-1 l -1.95,0.35 q -1,0.3 -2.65,1.15 l -2.6,1.3 q -3.25,1.35 -8.1,0.9 l -8.05,-1.6 -4.35,-0.8 -3.5,-1.2 -4.05,-0.7 -5.5,0.3 q -4.75,0.15 -10.05,-2.3 -4.4,-1.9 -5.6,-4.85 -0.6,-1.45 -0.45,-3.5"
         fill="#767783"
         fill-rule="evenodd"
         stroke="none"
         id="path4" />
    </g>
    <g
       id="sprite1"
       transform="translate(17.4,15.85)">
      <use
         ffdec:characterId="31"
         height="57.200001"
         transform="matrix(0.5366,0,0,0.5366,-16.6582,-14.546)"
         width="70.75"
         xlink:href="#sprite2"
         id="use4" />
    </g>
    <g
       id="sprite2"
       transform="translate(-8.65,-10.35)">
      <use
         ffdec:characterId="30"
         height="57.200001"
         transform="translate(8.65,10.35)"
         width="70.75"
         xlink:href="#shape1"
         id="use5" />
    </g>
    <g
       id="shape1"
       transform="translate(-8.65,-10.35)">
      <path
         d="m 14.8,41.7 q 0.65,-1.75 2.65,-2.5 1.8,-0.8 3.7,-0.25 1.15,0.45 2.25,1.2 l 0.9,0.4 q 1.65,0.9 2.85,2.5 L 37.8,30.1 q 2.35,-2.8 3.75,-3.95 1.5,-1.15 4.25,-2.4 18.2,-8.85 27.65,-12.6 2.15,-0.8 3.25,-0.8 h 0.8 l 1.9,2.4 -0.2,0.8 q -0.2,1.1 -1.55,3 -5.85,8.25 -18.85,23.8 -1.85,2.35 -3.35,3.5 -1.4,1.15 -4.75,2.75 l -15.15,7.15 q 1.2,1.6 1.75,3.4 l 0.2,1 0.55,2.5 q 0.1,1.95 -1.1,3.55 -1.2,1.65 -3.05,1.9 l -1.3,0.05 q -1.65,0.2 -3.45,-0.65 -1.85,-0.9 -3,-2.6 L 25,60.95 23.8,62.1 q -2.6,2.85 -4.3,3.95 -2.85,1.8 -5.5,1.45 l -1.65,-0.5 -1.2,-0.7 -0.2,-0.2 q -1,-0.85 -1.6,-1.9 L 9.25,64 9.15,63.8 8.75,62.4 q -0.2,-0.8 -0.05,-1.7 0.25,-2.65 2.7,-5.05 1.5,-1.3 4.9,-3.15 L 17.7,51.55 16.05,50 q -1.35,-1.5 -1.8,-3.6 -0.4,-1.85 0.25,-3.45 l 0.3,-1.25"
         fill="#000000"
         fill-opacity="0.372549"
         fill-rule="evenodd"
         stroke="none"
         id="path5" />
    </g>
  </defs>
</svg>
