<?xml version="1.0" encoding="UTF-8" standalone="no"?>
<svg
   ffdec:objectType="frame"
   height="54.070545"
   width="79.365944"
   version="1.1"
   id="svg4"
   sodipodi:docname="ITEM Leather Hood.svg"
   xmlns:inkscape="http://www.inkscape.org/namespaces/inkscape"
   xmlns:sodipodi="http://sodipodi.sourceforge.net/DTD/sodipodi-0.dtd"
   xmlns:xlink="http://www.w3.org/1999/xlink"
   xmlns="http://www.w3.org/2000/svg"
   xmlns:svg="http://www.w3.org/2000/svg"
   xmlns:ffdec="https://www.free-decompiler.com/flash">
  <sodipodi:namedview
     id="namedview4"
     pagecolor="#ffffff"
     bordercolor="#000000"
     borderopacity="0.25"
     inkscape:showpageshadow="2"
     inkscape:pageopacity="0.0"
     inkscape:pagecheckerboard="0"
     inkscape:deskcolor="#d1d1d1"
     fit-margin-top="5"
     fit-margin-left="5"
     fit-margin-right="5"
     fit-margin-bottom="5" />
  <g
     transform="translate(45.364901,32.366667)"
     id="g1">
    <use
       ffdec:characterId="17"
       height="119.15"
       id="rarity"
       transform="translate(-58.5,-60.65)"
       width="119.15"
       xlink:href="#sprite0" />
    <use
       ffdec:characterId="1154"
       height="54.049999"
       transform="translate(-45.35,-32.35)"
       width="79.349998"
       xlink:href="#shape0"
       id="use1" />
  </g>
  <defs
     id="defs4">
    <g
       id="shape0"
       transform="translate(44.05,30.45)">
      <path
         d="m 15.7,-16.25 0.05,-0.05 1.25,-0.5 0.65,0.3 0.15,0.15 0.1,0.35 v 0.3 l -0.2,0.5 -0.3,0.5 -0.95,0.85 -0.9,0.75 1.35,1 0.6,0.4 0.9,0.95 0.8,1.35 0.05,0.3 -0.05,0.15 -0.1,0.15 -0.15,0.2 -0.1,0.1 -1.25,-0.2 -1.8,-0.6 q 0.55,4.2 0.35,8.4 l 1.75,-0.85 0.35,0.2 q 2.9,1.45 0.3,3.8 l -0.45,0.4 -0.85,0.65 -0.1,0.1 0.25,0.2 0.55,0.55 0.65,0.8 q 0.35,0.5 0.35,1.15 L 18.85,6.25 18.8,6.4 18.65,6.6 18.4,6.75 18.2,6.85 17.55,6.55 15.6,5.65 15.5,5.6 l -1,5.95 1.7,0.5 q 3,1.15 6.25,1.35 3.2,0.2 5.15,-2.4 L 31.55,5.1 Q 31.8,1.7 30.9,-1.7 29.7,-6.5 26.6,-10.6 l -4.3,-5 -1.85,-1.85 q -3.3,-2.2 -6.9,-3.75 l -3.3,-1.3 2.2,3.3 1.75,3.7 1.5,-0.75 m -7.95,-1.4 0.35,-0.05 2.3,1.15 v -0.15 l -0.05,-0.2 -0.95,-1.4 -1.15,-1.5 -0.9,-1.15 q -1.7,-1.9 -3.7,-3.25 l -5.3,-0.6 q -10.15,-0.15 -18.7,4.9 -8.7,5.15 -13.55,13.85 -1.9,3.4 -3.3,7.05 l -0.4,1.65 -0.4,3.4 q -0.25,2.35 0.9,4.4 l 0.4,0.8 0.1,0.15 0.35,0.35 0.35,0.35 0.15,0.15 0.2,0.2 0.1,0.15 0.25,0.1 q 0.7,0.3 1.3,0.75 l 1.5,1.1 0.45,0.25 q 6.7,0.8 12.75,-2.3 l 2.25,-0.25 q 3.15,0.8 5.8,2.75 6.7,4.95 14.3,1.2 2.1,-1 3.9,-2.55 Q 9.7,11.5 12.6,11.4 L 12.55,10.25 Q 12.4,9.2 12.6,8.3 L 12.8,6.25 9.9,7.6 9.55,7.5 9.3,7.35 9.15,7 9.1,6.2 9.15,5.9 11.4,3.4 9.6,2.3 Q 7.1,0.75 9.55,-0.9 l 0.5,-0.2 3.1,1.45 L 13.1,0.1 q -0.05,-0.95 0.35,-1.8 L 13.6,-3.5 13.5,-5.8 13.4,-8.05 13.2,-8.55 13.15,-8.9 13.1,-9.55 V -10 L 13,-10.2 12.9,-10.35 12.8,-10.5 12.7,-10.95 12.6,-11 q -1.5,0.9 -3.1,1.7 -0.3,0.1 -0.6,-0.15 -1.8,-1.6 0.3,-3.05 l 0.4,-0.25 q -1.65,-1.1 -3.05,-2.4 -0.4,-0.4 -0.25,-0.95 0.3,-1.3 1.45,-1.55 m -13.1,-12.8 q 9.85,-0.25 18.95,3.25 9.6,3.7 15.5,11.8 3.85,5.2 5.55,11.3 1.25,4.5 0.1,9.1 0.8,3.45 -1.25,6.5 -2.65,4.05 -6.85,6.35 -2.5,1.4 -5.4,0.95 -4,-0.65 -7.75,-2.3 -4,1.65 -7.25,4.45 Q 5.25,21.8 4,22.3 -3.2,25.05 -10.2,22 l -3.4,-1.7 -7.95,0.3 -2.1,-0.65 -8.95,0.35 q -2.8,-0.45 -5.25,-2.1 -6.85,-4.7 -6.15,-13 0.65,-7.4 4.4,-13.85 6.15,-10.6 17,-16.7 8.1,-4.55 17.25,-5.1"
         fill="#000000"
         fill-rule="evenodd"
         stroke="none"
         id="path1" />
      <path
         d="m 13.55,-21.2 0.6,1.1 1.55,3.85 -1.5,0.75 -1.75,-3.7 -2.2,-3.3 3.3,1.3 m 2.9,7.35 0.45,1.75 -1.35,-1 0.9,-0.75 m 1.15,5.15 q 0.6,3.5 0.65,7.15 l -0.35,-0.2 -1.75,0.85 q 0.2,-4.2 -0.35,-8.4 l 1.8,0.6 M 18.1,2.65 17.95,4.15 17.4,3.6 17.15,3.4 17.25,3.3 18.1,2.65 m -0.55,3.9 -0.15,0.6 -0.1,0.15 -0.1,0.15 -0.15,0.1 -0.4,0.05 -0.6,-0.2 -0.45,-1.75 1.95,0.9 m -53.1,5.9 -0.2,-0.2 -0.15,-0.15 -0.35,-0.35 -0.35,-0.35 -0.1,-0.15 -0.4,-0.8 Q -38.25,8.4 -38,6.05 l 0.4,-3.4 0.4,-1.65 q 1.4,-3.65 3.3,-7.05 4.85,-8.7 13.55,-13.85 8.55,-5.05 18.7,-4.9 l 5.3,0.6 q 2,1.35 3.7,3.25 l 0.9,1.15 1.15,1.5 0.95,1.4 0.05,0.2 v 0.15 l -2.3,-1.15 -0.35,0.05 q -4.25,-3.45 -9.8,-3.2 -5.05,0.25 -9.85,1.8 -4.45,1.45 -8.65,3.55 -5.9,3.75 -9.65,9.65 -2.4,3.75 -3.45,8.15 l -0.25,2.3 -1.25,5.25 q -0.25,0.95 0.4,1.75 l -0.05,0.15 -0.1,0.15 -0.65,0.55"
         fill="#ffffff"
         fill-rule="evenodd"
         stroke="none"
         id="path2" />
      <path
         d="m 15.7,-16.25 -1.55,-3.85 -0.6,-1.1 q 3.6,1.55 6.9,3.75 l 1.85,1.85 4.3,5 q 3.1,4.1 4.3,8.9 0.9,3.4 0.65,6.8 L 27.6,11 q -1.95,2.6 -5.15,2.4 -3.25,-0.2 -6.25,-1.35 l -1.7,-0.5 1,-5.95 0.1,0.05 0.45,1.75 0.6,0.2 0.4,-0.05 0.15,-0.1 0.1,-0.15 0.1,-0.15 0.15,-0.6 0.65,0.3 0.2,-0.1 0.25,-0.15 0.15,-0.2 0.05,-0.15 0.1,-0.15 q 0,-0.65 -0.35,-1.15 l -0.65,-0.8 0.15,-1.5 0.45,-0.4 q 2.6,-2.35 -0.3,-3.8 Q 18.2,-5.2 17.6,-8.7 l 1.25,0.2 0.1,-0.1 0.15,-0.2 0.1,-0.15 0.05,-0.15 -0.05,-0.3 -0.8,-1.35 -0.9,-0.95 -0.6,-0.4 -0.45,-1.75 0.95,-0.85 0.3,-0.5 0.2,-0.5 V -16 l -0.1,-0.35 -0.15,-0.15 -0.65,-0.3 -1.25,0.5 -0.05,0.05 m -51.25,28.7 0.65,-0.55 0.1,-0.15 0.05,-0.15 q -0.65,-0.8 -0.4,-1.75 l 1.25,-5.25 0.25,-2.3 q 1.05,-4.4 3.45,-8.15 3.75,-5.9 9.65,-9.65 4.2,-2.1 8.65,-3.55 4.8,-1.55 9.85,-1.8 5.55,-0.25 9.8,3.2 -1.15,0.25 -1.45,1.55 -0.15,0.55 0.25,0.95 1.4,1.3 3.05,2.4 l -0.4,0.25 q -2.1,1.45 -0.3,3.05 0.3,0.25 0.6,0.15 1.6,-0.8 3.1,-1.7 l 0.1,0.05 0.1,0.45 0.1,0.15 0.1,0.15 0.1,0.2 v 0.45 l 0.05,0.65 0.05,0.35 0.2,0.5 0.1,2.25 0.1,2.3 -0.15,1.8 q -0.4,0.85 -0.35,1.8 l 0.05,0.25 -3.1,-1.45 -0.5,0.2 Q 7.1,0.75 9.6,2.3 L 11.4,3.4 9.15,5.9 9.1,6.2 9.15,7 9.3,7.35 9.55,7.5 9.9,7.6 12.8,6.25 12.6,8.3 q -0.2,0.9 -0.05,1.95 l 0.05,1.15 q -2.9,0.1 -5.55,2.25 -1.8,1.55 -3.9,2.55 -7.6,3.75 -14.3,-1.2 -2.65,-1.95 -5.8,-2.75 l -2.25,0.25 q -6.05,3.1 -12.75,2.3 l -0.45,-0.25 -1.5,-1.1 Q -34.5,13 -35.2,12.7 l -0.25,-0.1 -0.1,-0.15"
         fill="#3f3f3f"
         fill-rule="evenodd"
         stroke="none"
         id="path3" />
    </g>
    <g
       id="sprite1"
       transform="translate(17.4,15.85)">
      <use
         ffdec:characterId="31"
         height="57.200001"
         transform="matrix(0.5366,0,0,0.5366,-16.6582,-14.546)"
         width="70.75"
         xlink:href="#sprite2"
         id="use3" />
    </g>
    <g
       id="sprite2"
       transform="translate(-8.65,-10.35)">
      <use
         ffdec:characterId="30"
         height="57.200001"
         transform="translate(8.65,10.35)"
         width="70.75"
         xlink:href="#shape1"
         id="use4" />
    </g>
    <g
       id="shape1"
       transform="translate(-8.65,-10.35)">
      <path
         d="m 14.8,41.7 q 0.65,-1.75 2.65,-2.5 1.8,-0.8 3.7,-0.25 1.15,0.45 2.25,1.2 l 0.9,0.4 q 1.65,0.9 2.85,2.5 L 37.8,30.1 q 2.35,-2.8 3.75,-3.95 1.5,-1.15 4.25,-2.4 18.2,-8.85 27.65,-12.6 2.15,-0.8 3.25,-0.8 h 0.8 l 1.9,2.4 -0.2,0.8 q -0.2,1.1 -1.55,3 -5.85,8.25 -18.85,23.8 -1.85,2.35 -3.35,3.5 -1.4,1.15 -4.75,2.75 l -15.15,7.15 q 1.2,1.6 1.75,3.4 l 0.2,1 0.55,2.5 q 0.1,1.95 -1.1,3.55 -1.2,1.65 -3.05,1.9 l -1.3,0.05 q -1.65,0.2 -3.45,-0.65 -1.85,-0.9 -3,-2.6 L 25,60.95 23.8,62.1 q -2.6,2.85 -4.3,3.95 -2.85,1.8 -5.5,1.45 l -1.65,-0.5 -1.2,-0.7 -0.2,-0.2 q -1,-0.85 -1.6,-1.9 L 9.25,64 9.15,63.8 8.75,62.4 q -0.2,-0.8 -0.05,-1.7 0.25,-2.65 2.7,-5.05 1.5,-1.3 4.9,-3.15 L 17.7,51.55 16.05,50 q -1.35,-1.5 -1.8,-3.6 -0.4,-1.85 0.25,-3.45 l 0.3,-1.25"
         fill="#000000"
         fill-opacity="0.372549"
         fill-rule="evenodd"
         stroke="none"
         id="path4" />
    </g>
  </defs>
</svg>
