<?xml version="1.0" encoding="UTF-8" standalone="no"?>
<svg
   ffdec:objectType="frame"
   height="89.185753"
   width="90.5"
   version="1.1"
   id="svg6"
   xmlns:xlink="http://www.w3.org/1999/xlink"
   xmlns="http://www.w3.org/2000/svg"
   xmlns:svg="http://www.w3.org/2000/svg"
   xmlns:ffdec="https://www.free-decompiler.com/flash">
  <g
     transform="translate(44.3,43.714327)"
     id="g1">
    <use
       ffdec:characterId="17"
       height="119.15"
       id="rarity"
       transform="translate(-58.5,-60.65)"
       width="119.15"
       xlink:href="#sprite0" />
    <use
       ffdec:characterId="834"
       height="89.150002"
       transform="translate(-44.3,-43.7)"
       width="90.5"
       xlink:href="#shape0"
       id="use1" />
  </g>
  <defs
     id="defs6">
    <g
       id="shape0"
       transform="translate(44.85,44.45)">
      <path
         d="m 21.45,-25.25 -0.45,-0.5 -1.4,-1.15 -1.2,-0.75 -0.15,0.05 -2.1,0.7 Q 11,-25.3 4.9,-24.15 l -13.7,1.9 -3.9,0.4 -5.55,0.4 -1.2,0.05 -2.95,0.1 h -0.65 l -4.05,0.1 -7.6,0.6 -1.2,0.45 -0.1,0.2 0.95,2.25 q 0.95,2.8 1.55,5.95 l 0.15,0.95 0.6,5.4 q 0.2,3.45 0.05,7.2 -0.2,3.95 -0.8,8.15 l -0.3,1.7 q -1.45,8.6 -5.45,21.9 l -0.15,0.95 2.25,-0.1 2.3,0.4 1.85,0.8 2.95,2.1 1.5,1.7 q 0.65,0.85 1.15,1.85 l 0.25,0.7 q 1.3,-0.6 3.15,-0.9 l 5.2,-0.6 17.95,-1.55 5.55,-0.4 h 0.35 l 3.4,0.1 1.95,0.15 L 10.25,37.5 10,36.2 9.9,35.9 9.3,34.25 Q 9,33.4 9.15,32.75 l 0.1,-0.35 q 0.3,-0.6 1.45,-1.15 l 0.55,-0.3 1.55,-0.7 0.1,-0.5 0.15,-1.65 0.05,-1.3 0.2,-3.45 -0.5,1.15 Q 10.7,29.2 8.05,32.2 6,34.45 5.65,35.05 L 4.95,36.2 H 4.9 L 4.65,36.6 3.9,37.5 3.35,37.75 2.1,37.65 1.2,36.8 1,36.15 v -0.9 L 1.35,33.55 1.6,30.3 Q 1.7,25.4 2.7,15.7 L 3.65,7.25 Q 2.95,7.1 2.6,6.85 1.95,6.4 1.9,5.9 1.9,5.45 2.2,5.15 L 2.9,4.75 3.2,4.65 4.55,4.4 6,4.25 7.3,4.15 h 0.35 l 2.55,-0.1 h 0.9 l 0.8,0.1 V 3.7 2.8 L 11.85,1.55 11.8,-0.05 11.75,-0.2 V -0.35 H 11.6 L 11.35,-0.4 8.5,-0.55 7.7,-0.75 6.35,-0.8 Q 5.8,-0.85 4.6,-1.25 l -0.55,-0.2 q -0.3,-0.1 -0.5,-0.3 -0.5,-0.4 -0.4,-1.15 0.05,-0.6 0.65,-1 L 4.6,-4.15 H 4.85 L 5.65,-12 q 0.15,-1.4 0.6,-1.8 0.8,-0.9 2.8,-0.35 l 2.6,1 q 1.2,0.5 1.6,1.15 0.4,0.6 0.45,1.65 l -0.05,1.45 -0.45,5.1 0.45,0.3 0.5,0.6 0.7,1.05 0.7,-0.15 h 0.25 l 0.9,-8.6 0.05,-0.1 q 0.1,-1.15 0.5,-1.55 0.7,-0.75 2.5,-0.25 l 2.25,0.85 1.4,1.05 q 0.6,0.8 0.35,2.7 -0.2,1.6 -0.45,5.95 l 0.2,0.05 0.9,0.8 q 0.35,0.5 0.3,1.1 L 24.25,1.1 24.05,1.3 23.3,1.7 21.7,1.55 20.15,1.5 18.1,1.45 17.9,1.4 16.95,1.25 16.05,1.1 15.35,1.05 14.85,0.95 14.4,0.7 14.35,0.8 14.25,1.4 v 1.05 0.7 l -0.1,1.05 -0.2,0.55 -0.3,0.6 0.15,0.75 -0.45,1.25 -0.5,0.35 -0.55,0.25 -0.4,2.3 1.4,0.85 0.8,0.3 0.25,0.1 0.35,-3.1 Q 13.85,8.05 13.7,7.25 13.65,6.3 14.45,5.95 l 1,-0.2 0.6,-0.05 4.8,-0.8 1.2,-0.1 Q 23,4.9 23.45,5.75 L 23.5,5.8 q 0.55,0.9 -0.05,1.75 L 23.3,7.8 22.85,8.1 22.4,8.4 22.25,9.05 23.3,9.7 l 0.85,0.4 q 1.35,0.45 1.7,1.15 0.55,0.8 0.1,2.45 l -0.1,0.35 -2.85,7.65 -0.75,1.55 3,-3.75 0.85,-1.2 3.1,-5.6 2.4,-5.55 q 1,-3.1 1.1,-5.8 L 31.65,-4.3 Q 30.75,-8 28.9,-12.6 l -1.35,-2.85 -1.45,-2.75 -1.2,-2.05 -2.25,-3.5 -1.2,-1.5 m -51.85,35.2 -0.15,-0.2 -0.15,-0.2 -0.05,-0.8 0.6,-0.6 0.4,-0.25 3.5,-1.25 2.7,-0.9 1.5,-0.45 3.25,-0.8 0.85,-0.15 0.5,0.15 q 0.2,0.05 0.45,0.25 0.4,0.35 0.5,0.85 0.1,0.45 -0.15,1 l -0.65,0.65 -0.5,0.2 0.85,8.25 q 1.05,9.7 1.15,14.6 l 0.25,3.25 0.35,1.7 q 0.1,0.95 -0.2,1.55 l -0.3,0.4 -0.65,0.45 -1.2,0.1 -0.4,-0.2 -0.45,-0.35 -0.45,-0.6 -1,-1.55 -2.4,-2.85 q -2.65,-3 -4.75,-7.7 l -1.85,-4.8 -1.25,-3.75 -0.05,-0.1 q -0.7,-2.1 -0.1,-3.15 0.4,-0.7 1.7,-1.2 l 0.25,-0.1 1.45,-0.65 0.75,-0.5 -0.15,-0.75 -2.3,0.55 -0.5,0.1 -1.05,-0.05 -0.3,-0.15 m 12.6,-9.4 -0.3,0.4 q -0.4,0.5 -1,0.6 l -1.05,0.05 -1.05,0.1 -2.45,0.35 -2.15,0.25 h -0.3 L -29.15,2.1 H -29.3 Q -29.8,2.05 -30,1.8 -30.4,1.55 -30.2,1.1 V 1.05 l 0.4,-0.4 0.45,-0.3 0.35,-0.15 1.4,-0.55 0.4,-0.1 -0.4,-6.05 -0.05,-0.65 -0.1,-1.15 -0.1,-0.6 -0.05,-0.95 v -0.6 l 0.3,-1.2 0.15,-0.35 1.6,-1.15 1.2,-0.5 0.25,-0.1 1.15,-0.4 1.1,-0.2 h 0.45 l 1.05,0.35 0.2,0.2 q 0.45,0.4 0.6,1.8 l 0.65,6.1 0.4,3.95 q 0.6,0.2 0.9,0.7 0.35,0.5 0.3,1.1 l -0.2,0.7 m 5.7,-11.7 -0.05,-3.55 0.1,-1.25 0.4,-0.85 0.6,-0.4 0.25,-0.1 0.65,-0.25 3.05,-0.6 q 0.7,-0.2 1.15,0 h 0.05 l 1.6,0.05 q 0.9,0.2 1.3,0.85 l 0.15,0.5 0.05,1.05 v 1.8 7.9 0.1 1.5 l 0.1,0.1 0.2,0.25 q 0.6,0.1 0.9,0.8 0.2,0.4 0.1,1.35 -0.4,3 -0.85,4.1 L -2.65,2.7 -2.85,2.85 -3.25,2.9 -3.75,2.35 -3.8,1.6 -3.95,0.2 -4.1,-1.05 -5.95,-1 l -2.75,0.2 -2.35,0.15 -1.6,-0.15 -0.8,-0.25 -0.4,-0.25 q -0.3,-0.3 -0.2,-0.8 l 0.4,-0.75 0.85,-0.35 0.75,-0.3 0.1,-0.05 -0.1,-3.55 -0.05,-4.05 m 30,-9.65 -0.3,0.05 q -0.75,0.1 -1.45,-0.3 -0.7,-0.45 -0.95,-1.1 v -0.05 q -0.3,-0.65 -0.15,-1.3 0.25,-1.3 1.5,-1.7 1.1,-0.4 2.2,0.4 l 0.6,0.65 q 0.35,0.6 0.25,1.4 l -0.3,0.95 -0.35,0.35 q -0.45,0.5 -1.05,0.65 m -37.6,-4.55 q 18.8,-0.45 34.25,-4.5 l 3.15,-0.8 0.8,-0.1 0.65,-0.2 q 1.15,-0.15 2.4,0.8 l 0.55,0.1 1.9,1 2.55,1.25 q 1.95,0.9 3,1.2 l 2.5,0.4 q -1.15,-1.35 -3.6,-2.75 -5.25,-3.25 -8.15,-4.25 -2.5,-0.95 -7.8,-1.85 l -8.35,-1.2 q -3.95,-0.35 -8.6,0 l -8.55,0.9 -0.1,0.05 -7.05,4.4 -4.35,3.2 -2.9,2.45 -0.05,0.05 7.75,-0.15 m 59.95,-1.35 q -1.65,-2.35 -3.7,-4.05 -1.35,-1.15 -3.75,-2.5 -3.7,-2.3 -6.7,-3.4 l -5.65,-1.55 -9.7,-1.8 -8.15,-0.25 -5.2,0.15 q -5.1,0.7 -5.25,1.4 h 1.55 q 7.1,-0.7 14.15,-0.1 16.15,1.35 25.55,9.15 1.9,1.55 2.5,2.95 l 0.25,0.85 h 0.1 l 1.5,-0.05 2.6,-0.6 -0.1,-0.2 m -6.3,20.15 1.5,5.45 0.65,4.05 q 0.75,5 0.75,7.5 0.1,6.15 -2.2,11.85 -2.45,6 -7.45,11 -4.65,4.65 -10.9,7.8 -1.7,0.9 -2.7,0.75 -0.55,-0.05 -0.9,-0.4 l -1.75,0.2 -10.4,0.8 -10.4,1.2 -12,0.85 h -3.85 l -1.65,-0.25 q -0.4,0.4 -0.9,0.45 -0.85,0.15 -1.55,-0.75 l -1,-1.4 -1.5,-1.8 q -0.4,-0.4 -1.05,-0.7 l -1.95,-1 q -1.2,-0.55 -2,-0.6 l -1.75,0.2 -0.65,0.1 -0.15,0.05 q -1.25,0.5 -3.15,-0.45 -1.5,-0.85 -1.75,-1.75 -0.3,-0.7 0.3,-2.5 1.3,-3.4 2.85,-8.85 2.85,-10.1 3.65,-14.65 0.8,-4.4 1.4,-11.9 0.3,-3.1 0.3,-5.5 -0.05,-5.6 -2.25,-12.75 l -0.45,-0.65 q -1.25,-1.95 -0.4,-3.15 0.45,-0.7 2,-1 l 0.25,-1.15 q 1.35,-3.4 5,-7 5.75,-5.55 12.3,-8.05 2.95,-1.15 6.5,-1.9 18.05,-4.15 35.45,0.25 7.55,2 12.75,5.1 6.4,3.85 9.75,9.5 1,1.75 1,3 0,1.15 -0.8,2.6 -1.25,2.45 -2.75,3.85 -1.85,1.65 -4.8,2.55 -2.05,0.65 -5.5,1 l -0.75,0.1 0.9,2.4 2,5.55 M 8.6,-10.4 7.85,-4.2 h 0.6 l 1.3,0.2 h 0.1 L 10,-7.35 10.05,-9.85 8.6,-10.4 m 10.7,1.2 -0.8,7.15 1.85,0.1 0.25,-6.75 -1.3,-0.5 m 8.55,-12.65 1.75,3.8 1.15,-0.3 3,-0.35 2.85,-0.7 q 2.45,-0.85 3.65,-2.4 l 0.75,-1.3 0.2,-0.7 q -2.3,1.15 -5.95,1.05 l -5.3,-0.5 -1.55,-0.4 -0.45,-0.15 q -0.65,-0.2 -1.5,-0.6 l 0.45,0.75 0.15,0.3 0.8,1.5 m -0.2,49.95 q 5.8,-7.35 6,-16.05 L 33.5,8 Q 31.95,14.6 28.4,20.35 22.8,29.5 13.5,34.1 l 0.7,2.7 0.15,1.45 q 8.3,-3.9 13.3,-10.15 M 18.4,22.95 q 1.9,-3.05 4.1,-9.8 -0.35,-0.35 -1.7,-0.9 -1.15,-0.45 -1.5,-1.1 -0.3,-0.6 -0.15,-2.1 l 0.05,-0.45 -2,-0.05 -0.1,1.1 -0.05,0.35 -0.2,1.45 -0.4,3.4 -1.25,9.9 q -0.25,1.45 0.2,2.2 l 2.45,-3.15 0.55,-0.85 m -20.2,-13.5 0.35,0.1 0.7,0.15 q 0.8,0.3 1.15,0.8 l 0.25,0.65 0.05,1.05 -0.75,3.25 -0.15,0.5 q -3.4,10.45 -7.6,17.55 -1.15,1.9 -2.35,1.7 l -0.75,-0.45 -0.45,-0.65 -0.2,-1.75 -0.55,-16.7 -0.1,-8.25 V 7.2 L -12.95,7 Q -13.6,6.8 -13.85,6.6 -14.3,6.25 -14.25,5.7 L -14.1,5.35 -13.3,4.8 -11.8,4.35 -10.05,4 -9.25,3.95 -8.5,3.9 -6.15,3.6 -3.8,3.55 -3.5,3.6 -2.85,3.8 q 0.25,0.1 0.45,0.3 0.5,0.45 0.5,1.2 0.05,0.5 -0.15,0.85 l -0.55,0.6 -0.15,0.1 -0.75,0.3 -0.05,0.75 -0.15,1.15 1.5,0.3 0.4,0.1 M 7.55,25.9 q 1.85,-2.95 4,-9.1 L 12.2,14.85 Q 12,14.65 11.45,14.4 l -1.2,-0.55 Q 9.05,13.35 8.65,12.7 L 8.6,12.6 Q 8.2,11.95 8.4,10.25 L 8.75,7.9 8,7.85 6.4,7.7 3.95,27.95 q -0.25,1.65 0.2,2.5 l 3.4,-4.55 m -27.6,-62.6 q -2.65,1.1 -6.95,4.25 l -4.1,3.3 q -2.1,2 -3.15,4.05 l -0.15,0.35 0.55,-0.05 3.55,-0.25 0.4,-0.05 1.65,-1.9 q 3.4,-3.8 7.25,-6.8 l 2.4,-1.85 4.1,-2.55 q -3.75,0.75 -5.55,1.5 m -9.65,22.95 q -0.75,0.05 -1.4,-0.45 -0.65,-0.55 -0.9,-1.25 -0.25,-0.7 0.05,-1.45 l 0.9,-1.2 q 0.1,-0.1 0.25,-0.15 l 1.1,-0.25 0.8,0.15 0.6,0.3 q 0.6,0.45 0.85,1.2 0.25,0.75 0.05,1.4 l -0.1,0.3 -0.4,0.55 -0.1,0.15 -0.25,0.2 -0.05,0.05 q -0.65,0.45 -1.4,0.45 m 6.9,3.35 -1.5,0.55 0.45,8.5 0.65,-0.25 1.25,-0.15 0.2,-0.05 -1.05,-8.6 m 16.75,-4.15 -0.85,0.2 -0.25,0.15 q -0.8,0.5 -1.85,0.55 l 0.05,9.5 0.7,-0.05 2.2,-0.45 0.25,-0.05 -0.25,-9.85 m -2,42.65 q 3.9,-7.45 5.9,-15.75 L -4.8,12.05 -5.75,11 -5.9,10.55 -5.95,9.45 V 7.2 L -6.4,7.25 h -2.35 l 0.7,20.85 m -13.75,-2.2 1.1,1.55 2.35,3 q 0.45,-0.85 0.2,-2.5 l -2.4,-19.9 -2.3,0.55 0.25,1.65 q 0.15,1.7 -0.2,2.35 -0.35,0.7 -1.65,1.25 -1.55,0.65 -1.95,1 1.7,5.2 3.25,8.45 l 1.35,2.6"
         fill="#000000"
         fill-rule="evenodd"
         stroke="none"
         id="path1" />
      <path
         d="M 8.6,-10.4 10.05,-9.85 10,-7.35 9.85,-4 h -0.1 l -1.3,-0.2 h -0.6 l 0.75,-6.2 m 10.7,1.2 1.3,0.5 -0.25,6.75 -1.85,-0.1 0.8,-7.15 m -0.9,32.15 -0.55,0.85 -2.45,3.15 q -0.45,-0.75 -0.2,-2.2 l 1.25,-9.9 0.4,-3.4 0.2,-1.45 0.05,-0.35 0.1,-1.1 2,0.05 -0.05,0.45 q -0.15,1.5 0.15,2.1 0.35,0.65 1.5,1.1 1.35,0.55 1.7,0.9 -2.2,6.75 -4.1,9.8 M 7.55,25.9 4.15,30.45 Q 3.7,29.6 3.95,27.95 L 6.4,7.7 8,7.85 8.75,7.9 8.4,10.25 q -0.2,1.7 0.2,2.35 l 0.05,0.1 q 0.4,0.65 1.6,1.15 l 1.2,0.55 q 0.55,0.25 0.75,0.45 l -0.65,1.95 q -2.15,6.15 -4,9.1 m -13.6,-40.45 0.25,9.85 -0.25,0.05 -2.2,0.45 -0.7,0.05 -0.05,-9.5 q 1.05,-0.05 1.85,-0.55 l 0.25,-0.15 0.85,-0.2 m -16.75,4.15 1.05,8.6 -0.2,0.05 -1.25,0.15 -0.65,0.25 -0.45,-8.5 1.5,-0.55 M -8.05,28.1 -8.75,7.25 H -6.4 L -5.95,7.2 v 2.25 l 0.05,1.1 0.15,0.45 0.95,1.05 2.65,0.3 q -2,8.3 -5.9,15.75 m -13.75,-2.2 -1.35,-2.6 q -1.55,-3.25 -3.25,-8.45 0.4,-0.35 1.95,-1 1.3,-0.55 1.65,-1.25 0.35,-0.65 0.2,-2.35 l -0.25,-1.65 2.3,-0.55 2.4,19.9 q 0.25,1.65 -0.2,2.5 l -2.35,-3 -1.1,-1.55"
         fill="#969696"
         fill-rule="evenodd"
         stroke="none"
         id="path2" />
      <path
         d="m -22.4,-21.3 2.95,-0.1 1.2,-0.05 5.55,-0.4 3.9,-0.4 13.7,-1.9 Q 11,-25.3 16.15,-26.9 l 2.1,-0.7 0.15,-0.05 1.2,0.75 1.4,1.15 0.45,0.5 q -0.2,1.1 -0.95,2.1 l -1.2,1.35 0.3,-0.95 q 0.1,-0.8 -0.25,-1.4 l -0.6,-0.65 q -1.1,-0.8 -2.2,-0.4 -1.25,0.4 -1.5,1.7 -0.15,0.65 0.15,1.3 v 0.05 q 0.25,0.65 0.95,1.1 0.7,0.4 1.45,0.3 l 0.3,-0.05 -2.25,1.15 -5.85,2.2 q -0.9,0.3 -1.25,0.6 L 7.6,-15.7 q -1.1,1.5 -2.7,2.45 -1.65,0.95 -3.45,0.95 -1.85,0.05 -3.45,-1 l -0.8,-0.6 v -1.8 l -0.05,-1.05 -0.15,-0.5 q -0.4,-0.65 -1.3,-0.85 l -1.6,-0.05 h -0.05 q -0.45,-0.2 -1.15,0 l -3.05,0.6 -0.65,0.25 -0.25,0.1 -0.6,0.4 -0.4,0.85 -0.1,1.25 0.05,3.55 -0.65,2.1 q -0.45,1.6 -1.9,2.65 -1.55,1 -3.15,0.85 l -1.4,-0.35 -0.65,-6.1 q -0.15,-1.4 -0.6,-1.8 l -0.2,-0.2 -1.05,-0.35 h -0.45 l -1.1,0.2 -1.15,0.4 -0.25,0.1 -1.2,0.5 -1.6,1.15 -0.15,0.35 -0.3,1.2 v 0.6 l 0.05,0.95 0.1,0.6 0.1,1.15 0.05,0.65 0.4,6.05 -0.4,0.1 -1.4,0.55 -0.35,0.15 -0.45,0.3 -0.4,0.4 V 1.1 q -0.2,0.45 0.2,0.7 0.2,0.25 0.7,0.3 h 0.15 l 3.05,0.2 h 0.3 l 2.15,-0.25 2.45,-0.35 1.05,-0.1 1.05,-0.05 q 0.6,-0.1 1,-0.6 l 0.3,-0.4 q 0.65,0.7 0.8,1.85 0.1,1.2 -0.45,2.1 l -0.5,-0.15 -0.85,0.15 -3.25,0.8 -1.5,0.45 -2.7,0.9 -3.5,1.25 -0.4,0.25 -0.6,0.6 0.05,0.8 0.15,0.2 0.15,0.2 -0.25,1.85 -0.85,5.8 -0.15,0.8 -0.25,1.3 -0.35,1.65 q -0.7,3.35 -1.65,6.05 -1.25,3.6 -3.25,7 l -2.25,0.1 0.15,-0.95 q 4,-13.3 5.45,-21.9 l 0.3,-1.7 q 0.6,-4.2 0.8,-8.15 0.15,-3.75 -0.05,-7.2 l -0.6,-5.4 -0.15,-0.95 q -0.6,-3.15 -1.55,-5.95 l -0.95,-2.25 0.1,-0.2 1.2,-0.45 7.6,-0.6 4.05,-0.1 0.05,0.1 0.6,-0.1 M 23.45,5.75 Q 23,4.9 22.05,4.8 l -1.2,0.1 -4.8,0.8 -0.6,0.05 Q 14.55,5.25 14.2,4.4 L 14.15,4.2 14.25,3.15 V 2.45 L 14.6,1.8 q 0.3,-0.45 0.75,-0.75 l 0.7,0.05 0.9,0.15 0.95,0.15 0.2,0.05 2.05,0.05 1.55,0.05 1.6,0.15 0.75,-0.4 0.1,0.15 q 0.6,0.95 0.5,2.05 -0.1,1.05 -0.85,1.9 l -0.35,0.35 m -19.4,-7.2 0.55,0.2 q 1.2,0.4 1.75,0.45 l 1.35,0.05 0.8,0.2 2.85,0.15 0.25,0.05 0.1,0.15 h 0.05 l 0.05,0.15 0.05,1.6 0.05,1.25 V 3.7 4.15 L 11.1,4.05 H 10.2 L 7.65,4.15 H 7.3 L 6,4.25 4.55,4.4 3.2,4.65 2.65,4.5 Q 1.9,4.2 1.45,3.9 L 1.1,3.6 Q 0.25,2.75 0.35,1.45 0.45,0.55 0.95,-0.1 L 1.3,-0.4 2,-0.95 4.05,-1.45 m 33.7,-24.45 1.6,-0.5 0.9,-0.3 0.1,0.2 -2.6,0.6 m 2.5,4.1 -3.75,0.45 -7.6,-0.3 -1.05,-0.2 -0.8,-1.5 -0.15,-0.3 -0.45,-0.75 q 0.85,0.4 1.5,0.6 l 0.45,0.15 1.55,0.4 5.3,0.5 q 3.65,0.1 5.95,-1.05 l -0.2,0.7 -0.75,1.3 M -14.1,5.35 -14.5,5.15 q -1.25,-0.65 -1.6,-2.1 -0.3,-1.4 0.5,-2.6 0.65,-0.95 2.15,-1.5 l 0.8,0.25 1.6,0.15 2.35,-0.15 2.75,-0.2 1.85,-0.05 0.15,1.25 0.15,1.4 0.05,0.75 0.5,0.55 0.4,-0.05 L -3.5,3.6 -3.8,3.55 -6.15,3.6 -8.5,3.9 -9.25,3.95 -10.05,4 -11.8,4.35 -13.3,4.8 -14.1,5.35 m -5.95,-42.05 q 1.8,-0.75 5.55,-1.5 l -4.1,2.55 -2.4,1.85 q -3.85,3 -7.25,6.8 l -1.65,1.9 -0.4,0.05 -3.55,0.25 -0.55,0.05 0.15,-0.35 q 1.05,-2.05 3.15,-4.05 l 4.1,-3.3 q 4.3,-3.15 6.95,-4.25 m -9.65,22.95 q 0.75,0 1.4,-0.45 l 0.05,-0.05 0.25,-0.2 0.1,-0.15 0.4,-0.55 0.1,-0.3 q 0.2,-0.65 -0.05,-1.4 -0.25,-0.75 -0.85,-1.2 l -0.6,-0.3 -0.8,-0.15 -1.1,0.25 q -0.15,0.05 -0.25,0.15 l -0.9,1.2 q -0.3,0.75 -0.05,1.45 0.25,0.7 0.9,1.25 0.65,0.5 1.4,0.45"
         fill="#917663"
         fill-rule="evenodd"
         stroke="none"
         id="path3" />
      <path
         d="m -31.65,18.4 0.15,-0.8 1.05,-1.4 0.35,-0.25 1.25,3.75 1.85,4.8 q 2.1,4.7 4.75,7.7 l 2.4,2.85 1,1.55 0.45,0.6 -1.05,-0.05 q -1.15,-0.3 -2.3,-1.75 -2.1,-2.45 -3.7,-5.3 -1.6,-3.2 -2.55,-4.7 l -1.8,-2.7 -0.6,-1 -0.95,-1.9 -0.3,-1.4 m 57.75,-0.1 -0.85,1.2 -3,3.75 0.75,-1.55 2.85,-7.65 0.1,-0.35 0.25,0.25 0.4,0.95 -0.1,1.35 -0.05,0.9 -0.3,0.95 -0.05,0.2 M 23.3,9.7 22.25,9.05 22.4,8.4 22.85,8.1 23.3,7.8 l 0.05,0.1 0.1,0.5 q 0.1,0.75 -0.15,1.3 m -10,1.4 -1.4,-0.85 0.4,-2.3 0.55,-0.25 0.5,-0.35 0.15,1.05 V 9.55 L 13.3,11.1 M 1,36.15 1.2,36.8 2.1,37.65 3.35,37.75 3.9,37.5 4.65,36.6 4.9,36.2 h 0.05 l 0.7,-1.15 q 0.35,-0.6 2.4,-2.85 2.65,-3 4.75,-7.7 l 0.5,-1.15 -0.2,3.45 -0.05,1.3 -0.7,1.1 -0.9,0.95 -0.75,1.1 Q 9.55,31.8 9.25,32.4 L 9.15,32.75 8.95,32.9 7.85,34.2 6.9,35 6.35,35.65 5.65,36.1 5.25,36.2 9.8,35.9 h 0.1 l 0.1,0.3 0.25,1.3 0.15,1.25 L 8.45,38.6 5.05,38.5 H 4.7 l -5.55,0.4 -17.95,1.55 -5.2,0.6 q -1.85,0.3 -3.15,0.9 l -0.25,-0.7 q -0.5,-1 -1.15,-1.85 l 0.35,0.05 1.65,-0.1 8.6,-1.8 0.4,0.2 1.2,-0.1 0.65,-0.45 13.4,-1.1 3.3,0.05 m 36.75,-62.05 -1.5,0.05 h -0.1 L 35.9,-26.7 Q 35.3,-28.1 33.4,-29.65 24,-37.45 7.85,-38.8 0.8,-39.4 -6.3,-38.7 h -1.55 q 0.15,-0.7 5.25,-1.4 l 5.2,-0.15 8.15,0.25 9.7,1.8 5.65,1.55 q 3,1.1 6.7,3.4 2.4,1.35 3.75,2.5 2.05,1.7 3.7,4.05 l -0.9,0.3 -1.6,0.5 m -10.1,54 q -5,6.25 -13.3,10.15 L 14.2,36.8 13.5,34.1 Q 22.8,29.5 28.4,20.35 31.95,14.6 33.5,8 l 0.15,4.05 q -0.2,8.7 -6,16.05 M -0.2,15.95 q 0.6,0.25 0.8,1.05 0.2,0.7 0,1.7 l -0.45,1.9 -2.4,6.1 -0.85,1.7 Q -4.45,31 -6.45,34.05 L -7.5,35.4 q -0.75,0.7 -1.55,0.75 -0.65,0 -1.25,-0.45 -0.5,-0.4 -0.6,-0.95 l 0.75,0.45 q 1.2,0.2 2.35,-1.7 4.2,-7.1 7.6,-17.55 m -2.4,-9.2 q 0.3,0.3 0.5,0.75 l 0.4,1.05 -0.1,0.9 -0.4,-0.1 -1.5,-0.3 0.15,-1.15 0.05,-0.75 0.75,-0.3 0.15,-0.1 m -26.45,3.4 0.5,-0.1 2.3,-0.55 0.15,0.75 -0.75,0.5 -1.45,0.65 -0.25,0.1 -0.5,-1.25 v -0.1"
         fill="#57463a"
         fill-rule="evenodd"
         stroke="none"
         id="path4" />
      <path
         d="m -37.15,34.4 q 2,-3.4 3.25,-7 0.95,-2.7 1.65,-6.05 l 0.35,-1.65 0.25,-1.3 0.3,1.4 0.95,1.9 0.6,1 1.8,2.7 q 0.95,1.5 2.55,4.7 1.6,2.85 3.7,5.3 1.15,1.45 2.3,1.75 l 1.05,0.05 0.45,0.35 -8.6,1.8 -1.65,0.1 -0.35,-0.05 -1.5,-1.7 -2.95,-2.1 -1.85,-0.8 -2.3,-0.4 m 5.65,-16.8 0.85,-5.8 0.25,-1.85 0.3,0.15 1.05,0.05 v 0.1 l 0.5,1.25 q -1.3,0.5 -1.7,1.2 -0.6,1.05 0.1,3.15 l 0.05,0.1 -0.35,0.25 -1.05,1.4 M -17.45,4.5 Q -16.9,3.6 -17,2.4 -17.15,1.25 -17.8,0.55 l 0.2,-0.7 q 0.05,-0.6 -0.3,-1.1 -0.3,-0.5 -0.9,-0.7 l -0.4,-3.95 1.4,0.35 q 1.6,0.15 3.15,-0.85 1.45,-1.05 1.9,-2.65 l 0.65,-2.1 0.05,4.05 0.1,3.55 -0.1,0.05 -0.75,0.3 -0.85,0.35 -0.4,0.75 q -0.1,0.5 0.2,0.8 l 0.4,0.25 q -1.5,0.55 -2.15,1.5 -0.8,1.2 -0.5,2.6 0.35,1.45 1.6,2.1 l 0.4,0.2 -0.15,0.35 q -0.05,0.55 0.4,0.9 0.25,0.2 0.9,0.4 l 0.75,0.2 v 0.2 l 0.1,8.25 0.55,16.7 0.2,1.75 0.45,0.65 q 0.1,0.55 0.6,0.95 0.6,0.45 1.25,0.45 0.8,-0.05 1.55,-0.75 l 1.05,-1.35 q 2,-3.05 3.35,-5.65 l 0.85,-1.7 2.4,-6.1 0.45,-1.9 q 0.2,-1 0,-1.7 -0.2,-0.8 -0.8,-1.05 L -0.05,15.45 0.7,12.2 0.65,11.15 0.4,10.5 Q 0.05,10 -0.75,9.7 L -1.45,9.55 -1.8,9.45 -1.7,8.55 -2.1,7.5 Q -2.3,7.05 -2.6,6.75 l 0.55,-0.6 Q -1.85,5.8 -1.9,5.3 -1.9,4.55 -2.4,4.1 -2.6,3.9 -2.85,3.8 L -3.5,3.6 -2.85,2.85 -2.65,2.7 -2.35,2.2 q 0.45,-1.1 0.85,-4.1 0.1,-0.95 -0.1,-1.35 -0.3,-0.7 -0.9,-0.8 L -2.7,-4.3 -2.8,-4.4 V -5.9 -6 -13.9 l 0.8,0.6 q 1.6,1.05 3.45,1 1.8,0 3.45,-0.95 1.6,-0.95 2.7,-2.45 l 0.95,-1.15 q 0.35,-0.3 1.25,-0.6 l 5.85,-2.2 2.25,-1.15 q 0.6,-0.15 1.05,-0.65 l 0.35,-0.35 1.2,-1.35 q 0.75,-1 0.95,-2.1 l 1.2,1.5 2.25,3.5 1.2,2.05 1.45,2.75 1.35,2.85 q 1.85,4.6 2.75,8.3 l 1.05,5.65 q -0.1,2.7 -1.1,5.8 l -2.4,5.55 -3.1,5.6 0.05,-0.2 0.3,-0.95 0.05,-0.9 0.1,-1.35 -0.4,-0.95 -0.25,-0.25 q 0.45,-1.65 -0.1,-2.45 -0.35,-0.7 -1.7,-1.15 L 23.3,9.7 Q 23.55,9.15 23.45,8.4 L 23.35,7.9 23.3,7.8 23.45,7.55 Q 24.05,6.7 23.5,5.8 L 23.45,5.75 23.8,5.4 q 0.75,-0.85 0.85,-1.9 0.1,-1.1 -0.5,-2.05 L 24.05,1.3 24.25,1.1 24.7,0 q 0.05,-0.6 -0.3,-1.1 L 23.5,-1.9 23.3,-1.95 Q 23.55,-6.3 23.75,-7.9 24,-9.8 23.4,-10.6 L 22,-11.65 19.75,-12.5 q -1.8,-0.5 -2.5,0.25 -0.4,0.4 -0.5,1.55 l -0.05,0.1 -0.9,8.6 h -0.25 l -0.7,0.15 -0.7,-1.05 -0.5,-0.6 -0.45,-0.3 0.45,-5.1 0.05,-1.45 q -0.05,-1.05 -0.45,-1.65 -0.4,-0.65 -1.6,-1.15 l -2.6,-1 q -2,-0.55 -2.8,0.35 -0.45,0.4 -0.6,1.8 l -0.8,7.85 H 4.6 L 3.8,-3.9 q -0.6,0.4 -0.65,1 -0.1,0.75 0.4,1.15 0.2,0.2 0.5,0.3 L 2,-0.95 1.3,-0.4 0.95,-0.1 Q 0.45,0.55 0.35,1.45 0.25,2.75 1.1,3.6 L 1.45,3.9 Q 1.9,4.2 2.65,4.5 L 3.2,4.65 2.9,4.75 2.2,5.15 Q 1.9,5.45 1.9,5.9 1.95,6.4 2.6,6.85 2.95,7.1 3.65,7.25 L 2.7,15.7 q -1,9.7 -1.1,14.6 L 1.35,33.55 1,35.25 v 0.9 l -3.3,-0.05 -13.4,1.1 0.3,-0.4 q 0.3,-0.6 0.2,-1.55 l -0.35,-1.7 -0.25,-3.25 q -0.1,-4.9 -1.15,-14.6 l -0.85,-8.25 0.5,-0.2 0.65,-0.65 q 0.25,-0.55 0.15,-1 -0.1,-0.5 -0.5,-0.85 -0.25,-0.2 -0.45,-0.25 m 32.9,1.25 -1,0.2 q -0.8,0.35 -0.75,1.3 0.15,0.8 1,1.15 L 14.35,11.5 14.1,11.4 13.3,11.1 13.5,9.55 V 8.4 L 13.35,7.35 13.8,6.1 13.65,5.35 l 0.3,-0.6 0.2,-0.55 0.05,0.2 q 0.35,0.85 1.25,1.35 m -1.2,-3.3 V 1.4 l 0.1,-0.6 0.05,-0.1 0.45,0.25 0.5,0.1 Q 14.9,1.35 14.6,1.8 l -0.35,0.65 m -1.2,25.65 -0.15,1.65 -0.1,0.5 -1.55,0.7 -0.55,0.3 0.75,-1.1 0.9,-0.95 0.7,-1.1 m -3.9,4.65 Q 9,33.4 9.3,34.25 L 9.9,35.9 H 9.8 l -4.55,0.3 0.4,-0.1 0.7,-0.45 0.55,-0.65 0.95,-0.8 1.1,-1.3 0.2,-0.15 m 18.7,-54.6 1.05,0.2 7.6,0.3 3.75,-0.45 q -1.2,1.55 -3.65,2.4 l -2.85,0.7 -3,0.35 -1.15,0.3 -1.75,-3.8"
         fill="#7a6353"
         fill-rule="evenodd"
         stroke="none"
         id="path5" />
    </g>
    <g
       id="sprite1"
       transform="translate(17.4,15.85)">
      <use
         ffdec:characterId="31"
         height="57.200001"
         transform="matrix(0.5366,0,0,0.5366,-16.6582,-14.546)"
         width="70.75"
         xlink:href="#sprite2"
         id="use5" />
    </g>
    <g
       id="sprite2"
       transform="translate(-8.65,-10.35)">
      <use
         ffdec:characterId="30"
         height="57.200001"
         transform="translate(8.65,10.35)"
         width="70.75"
         xlink:href="#shape1"
         id="use6" />
    </g>
    <g
       id="shape1"
       transform="translate(-8.65,-10.35)">
      <path
         d="m 14.8,41.7 q 0.65,-1.75 2.65,-2.5 1.8,-0.8 3.7,-0.25 1.15,0.45 2.25,1.2 l 0.9,0.4 q 1.65,0.9 2.85,2.5 L 37.8,30.1 q 2.35,-2.8 3.75,-3.95 1.5,-1.15 4.25,-2.4 18.2,-8.85 27.65,-12.6 2.15,-0.8 3.25,-0.8 h 0.8 l 1.9,2.4 -0.2,0.8 q -0.2,1.1 -1.55,3 -5.85,8.25 -18.85,23.8 -1.85,2.35 -3.35,3.5 -1.4,1.15 -4.75,2.75 l -15.15,7.15 q 1.2,1.6 1.75,3.4 l 0.2,1 0.55,2.5 q 0.1,1.95 -1.1,3.55 -1.2,1.65 -3.05,1.9 l -1.3,0.05 q -1.65,0.2 -3.45,-0.65 -1.85,-0.9 -3,-2.6 L 25,60.95 23.8,62.1 q -2.6,2.85 -4.3,3.95 -2.85,1.8 -5.5,1.45 l -1.65,-0.5 -1.2,-0.7 -0.2,-0.2 q -1,-0.85 -1.6,-1.9 L 9.25,64 9.15,63.8 8.75,62.4 q -0.2,-0.8 -0.05,-1.7 0.25,-2.65 2.7,-5.05 1.5,-1.3 4.9,-3.15 L 17.7,51.55 16.05,50 q -1.35,-1.5 -1.8,-3.6 -0.4,-1.85 0.25,-3.45 l 0.3,-1.25"
         fill="#000000"
         fill-opacity="0.372549"
         fill-rule="evenodd"
         stroke="none"
         id="path6" />
    </g>
  </defs>
</svg>
