<?xml version="1.0" encoding="UTF-8" standalone="no"?>
<svg
   ffdec:objectType="frame"
   height="79.664764"
   width="66.897057"
   version="1.1"
   id="svg4"
   sodipodi:docname="ITEM Copycat Mask.svg"
   xmlns:inkscape="http://www.inkscape.org/namespaces/inkscape"
   xmlns:sodipodi="http://sodipodi.sourceforge.net/DTD/sodipodi-0.dtd"
   xmlns:xlink="http://www.w3.org/1999/xlink"
   xmlns="http://www.w3.org/2000/svg"
   xmlns:svg="http://www.w3.org/2000/svg"
   xmlns:ffdec="https://www.free-decompiler.com/flash">
  <sodipodi:namedview
     id="namedview4"
     pagecolor="#ffffff"
     bordercolor="#000000"
     borderopacity="0.25"
     inkscape:showpageshadow="2"
     inkscape:pageopacity="0.0"
     inkscape:pagecheckerboard="0"
     inkscape:deskcolor="#d1d1d1"
     fit-margin-top="5"
     fit-margin-left="5"
     fit-margin-right="5"
     fit-margin-bottom="5" />
  <g
     transform="translate(36.05,35.121429)"
     id="g1">
    <use
       ffdec:characterId="17"
       height="119.15"
       id="rarity"
       transform="translate(-58.5,-60.65)"
       width="119.15"
       xlink:href="#sprite0" />
    <use
       ffdec:characterId="1005"
       height="79.650002"
       transform="translate(-36.05,-35.1)"
       width="66.900002"
       xlink:href="#shape0"
       id="use1" />
  </g>
  <defs
     id="defs4">
    <g
       id="shape0"
       transform="translate(82.85,36.45)">
      <path
         d="m -75.2,-2 q -2.7,-3.5 -2.95,-8.35 -0.15,-2.6 0.4,-5.5 l -1.2,-1.75 q -2.9,-5.75 -3.8,-10.2 -0.2,-1.55 0,-2.3 0.55,-1.5 2.95,-2.4 4.1,-1.45 12.45,-1.25 l 2.7,0.15 q 2.45,-1.5 4.35,-2.1 2.95,-0.9 7,-0.75 5.65,0.25 9.7,2.15 l 3.5,2.05 1.5,-0.25 5.75,-0.4 h 3.3 q 2.4,0.2 3.05,1.6 0.6,1.15 -0.25,3.1 l -1.75,3.35 -1.75,3.4 -0.85,2.15 -1.45,2.9 -0.85,1.55 -0.5,0.85 -0.3,2.2 1.1,0.45 q 3.7,1.75 5.9,4.7 2.5,3.45 3.55,10.2 0.65,4.3 0.6,7 0,2.45 -0.4,4.7 0.85,0.2 1.75,0.75 1.7,1.15 3.45,3.85 2,3 2.25,5.15 0.2,1.6 -0.45,3.95 -1.05,3.5 -3.45,6.4 -2.4,2.9 -5.6,4.55 -1.7,0.9 -4.55,1.8 -8.85,2.8 -14.7,0.35 -4.15,-1.8 -4.7,-5.1 -0.3,-1.95 0.85,-3.85 l 0.1,-0.1 -8.95,0.7 -2.55,0.3 -2.6,-0.05 q -2.95,-0.25 -4.55,-2.15 -0.75,-0.9 -0.95,-2.05 h -0.8 L -72.35,29 q -4.05,-1.7 -4.8,-4.8 -0.45,-1.6 0.2,-3.9 0.55,-2.15 1.85,-4.2 l -0.5,-0.7 -0.45,-1.5 q -0.6,-2.85 0.2,-5.2 0.65,-2 2.6,-4.35 Q -72,2.75 -70.75,1.7 -73.5,0.2 -75.2,-2 m 31.25,-25.55 -3.15,-1.7 q -5.5,-2.1 -10.65,-0.7 -2.35,0.6 -5,2.1 -2.35,1.25 -3.6,2.45 -1.35,1.25 -2.55,3.35 l -0.25,0.45 q -2.05,3.65 -2.7,7.95 l -0.1,2.4 q 0,2 0.65,3.45 1.35,3.2 5.05,4.7 2.55,1.1 6.85,1.35 7.05,0.4 11.75,-1.6 1.8,-0.8 3.25,-1.9 1.65,-1.35 2.65,-2.9 1,-1.6 1.55,-4.15 1.3,-6.2 -0.85,-11.25 -0.85,-2.1 -2.1,-3.3 l -0.8,-0.7 m -21.6,7.8 0.25,0.15 q 0.85,0.45 1.25,1.3 0.4,0.85 0.25,1.8 -0.15,0.95 -0.8,1.6 -0.4,0.4 -0.95,0.7 l -0.65,0.2 -1.8,-0.15 q -1.05,-0.45 -1.55,-1.6 -0.55,-1.1 -0.2,-2.2 0.25,-0.85 1.05,-1.45 0.75,-0.6 1.65,-0.65 l 1.5,0.3 m 12.05,13 -0.4,0.05 q -0.8,0 -1.65,-0.5 l -1.15,-1.1 q -0.85,0.75 -1.95,1.05 l -1.25,0.1 -0.75,-0.25 -1.35,-0.65 -0.65,-0.6 -0.8,-1.4 q -0.25,-0.7 -0.15,-2 l 0.15,-0.75 q 0.25,-0.7 0.9,-0.85 l 1.25,0.15 0.5,0.55 v 1.1 q -0.1,0.7 0.3,0.95 l 0.5,0.25 0.65,0.1 0.5,-0.2 0.85,-0.75 0.65,-0.95 q 0.4,-0.45 0.95,-0.5 l 0.7,0.05 0.15,0.05 h 0.05 q 0.75,0 1.2,0.55 0.55,0.45 0.55,1.2 l 0.05,0.7 q 0.2,0.3 0.85,0.4 l 0.55,-0.05 0.45,-0.55 0.2,-1.15 0.05,-1.5 0.1,-0.85 0.45,-0.5 1.25,0.05 0.65,0.5 q 0.35,0.45 0.35,1.35 l 0.15,1.95 q 0.1,1.15 -0.25,1.6 l -0.5,0.65 -0.3,0.65 -0.55,0.45 q -0.6,0.35 -1.05,0.45 l -2.2,0.2 m -23.3,-20.7 1.55,4.1 q 1.4,-2.9 3.3,-4.9 l -4.85,0.8 m 27.9,9.15 q 0.3,-0.9 1,-1.6 0.7,-0.6 1.7,-0.7 l 1.8,0.25 q 1.05,0.5 1.5,1.5 0.45,0.95 0.25,2 -0.2,1.1 -0.95,1.8 -0.8,0.7 -1.9,0.8 -1.1,0.1 -1.95,-0.45 -0.9,-0.55 -1.3,-1.55 -0.4,-1.05 -0.15,-2.05 m 14.95,-6.95 q 1.05,-1.75 1.2,-2.35 l -2.65,0.4 -0.55,0.05 q 0.8,1.7 1.3,3.6 l 0.7,-1.7 m 3.95,41.9 0.1,-0.4 q 1.45,-5 0.4,-11.55 L -29.65,3.85 -29.9,2.5 q -0.6,-2.7 -1.55,-4.55 -1.75,-3.15 -4.4,-4.2 -1.5,2.95 -4.2,5.25 -2.65,2.35 -6.2,3.7 l -0.6,0.2 q -3.9,1.35 -8.8,1.55 l -0.6,0.65 -5.45,4.9 -5.35,5 q -1.85,1.95 -3.5,4.8 -1,1.75 -0.45,2.8 0.45,0.95 1.75,1.05 1.85,0.15 4.4,-1.7 l 4.45,-3.35 5.15,-4.35 q 1.2,-1 2.1,-1.4 l 0.7,-0.3 q 1.45,-0.4 2.65,0.5 0.85,0.65 1.05,1.55 l 2.45,0.05 2.55,0.3 1.35,0.55 1.2,0.4 q 0.65,0.3 0.8,1.1 0.05,0.7 -0.45,1.3 -0.45,0.45 -1.45,0.65 l -4.3,0.2 -3.1,0.2 -1.15,0.25 -1.7,0.55 -0.4,0.15 -1.15,0.9 -5.25,4.2 -1.7,1.2 -1.35,0.95 0.2,0.2 1.05,0.35 1.2,-0.1 2.05,-0.3 7.45,-0.65 1.9,-0.05 5.6,-0.15 q 3.2,-0.3 5.35,-1.25 2.75,-1.25 4.85,-3.8 1.8,-2.3 2.75,-5.15 m 0.1,19.4 1.3,-0.55 q 4.35,-2.15 6.45,-6.45 0.9,-2 0.85,-3.45 -0.1,-1.6 -1.7,-4.1 -0.9,-1.3 -1.65,-1.95 -0.65,1.75 -1.65,3.4 0.2,1.05 -0.05,2.25 -0.45,2.05 -1.85,3.55 -1.3,1.5 -3.45,2.6 -1.5,0.75 -3.4,1.3 l -3.85,1 -3.85,1.1 q -1.25,0.4 -1.25,1.15 0,0.7 1.05,1.1 3.8,1.6 9.95,0 l 3.1,-0.95 m -36.45,-29.2 3.55,-2.75 -3.9,-0.8 -1.35,1.9 -0.75,1 -0.7,1.05 q -1.1,1.9 -1.3,3 l -0.05,0.55 3.45,-3.1 1.05,-0.85"
         fill="#000000"
         fill-rule="evenodd"
         stroke="none"
         id="path1" />
      <path
         d="m -56.4,-12.95 0.05,-1.05 q 0.5,-5.05 3.55,-8.65 l 2.7,-2.65 2.3,-1.7 q 1.3,-0.7 3.5,-0.6 l 0.35,0.05 0.8,0.7 q 1.25,1.2 2.1,3.3 2.15,5.05 0.85,11.25 -0.55,2.55 -1.55,4.15 -1,1.55 -2.65,2.9 -1.45,1.1 -3.25,1.9 -2.1,-0.15 -3.45,-1 -1.2,-0.7 -2.3,-2.25 l -0.1,-0.15 2.2,-0.2 q 0.45,-0.1 1.05,-0.45 l 0.55,-0.45 0.3,-0.65 0.5,-0.65 q 0.35,-0.45 0.25,-1.6 l -0.15,-1.95 q 0,-0.9 -0.35,-1.35 l -0.65,-0.5 -1.25,-0.05 -0.45,0.5 -0.1,0.85 -0.05,1.5 -0.2,1.15 -0.45,0.55 -0.55,0.05 q -0.65,-0.1 -0.85,-0.4 l -0.05,-0.7 q 0,-0.75 -0.55,-1.2 -0.45,-0.55 -1.2,-0.55 h -0.05 l -0.15,-0.05 -0.7,-0.05 m -12.75,-8.65 1.1,0.2 1.6,0.9 0.9,0.75 -1.5,-0.3 q -0.9,0.05 -1.65,0.65 -0.8,0.6 -1.05,1.45 -0.35,1.1 0.2,2.2 0.5,1.15 1.55,1.6 l 1.8,0.15 0.65,-0.2 -0.75,1.3 q -0.85,1.35 -1.8,1.7 l -1.65,0.2 -2.2,-0.25 0.1,-2.4 q 0.65,-4.3 2.7,-7.95 m 20.25,3.3 q -0.25,1 0.15,2.05 0.4,1 1.3,1.55 0.85,0.55 1.95,0.45 1.1,-0.1 1.9,-0.8 0.75,-0.7 0.95,-1.8 0.2,-1.05 -0.25,-2 -0.45,-1 -1.5,-1.5 l -1.8,-0.25 q -1,0.1 -1.7,0.7 -0.7,0.7 -1,1.6 m -27.9,-9.15 4.85,-0.8 q -1.9,2 -3.3,4.9 l -1.55,-4.1 m 29.95,30.35 0.6,-0.2 q 3.55,-1.35 6.2,-3.7 2.7,-2.3 4.2,-5.25 2.65,1.05 4.4,4.2 0.95,1.85 1.55,4.55 l 0.25,1.35 0.15,0.85 q 1.05,6.55 -0.4,11.55 l -0.1,0.4 -0.45,0.1 q -1.9,0.15 -3.25,-1.55 l -0.75,-1.5 -0.1,-1.55 -0.2,-1.5 q -1.35,0.65 -2.35,0.75 -3.25,0.55 -6.8,-2.45 -2.3,-1.9 -2.8,-4 L -46.85,2.9 m -3.6,24.15 -7.45,0.65 -0.25,-0.15 q -1,-0.8 -1.2,-1.9 V 25.4 l 5.25,-4.2 1.15,-0.9 0.4,-0.15 1.7,-0.55 1.15,-0.25 0.55,0.75 q 0.35,0.65 0.45,2.5 0,1.75 -0.35,2.5 l -0.7,1.1 -0.7,0.85 m -2.7,-14.2 q -0.9,0.4 -2.1,1.4 l -5.15,4.35 -0.95,-1.6 -0.15,-1 0.05,-0.9 0.35,-0.9 1.05,-1.55 1.1,-0.75 1,-0.5 1.45,-0.3 q 1.8,0 3.05,1.35 l 0.3,0.4 m 21.5,18.5 q 0.7,0.4 1.25,1.05 1.05,1.3 0.75,2.8 L -29.9,36.05 -33,37 q -6.15,1.6 -9.95,0 -1.05,-0.4 -1.05,-1.1 0,-0.75 1.25,-1.15 l 3.85,-1.1 3.85,-1 q 1.9,-0.55 3.4,-1.3 m -36.4,-26.15 0.6,0.3 0.7,0.75 0.4,0.6 -1.05,0.85 -3.45,3.1 0.05,-0.55 q 0.2,-1.1 1.3,-3 l 0.7,-1.05 0.75,-1"
         fill="#727272"
         fill-rule="evenodd"
         stroke="none"
         id="path2" />
      <path
         d="m -43.95,-27.55 -0.35,-0.05 q -2.2,-0.1 -3.5,0.6 l -2.3,1.7 -2.7,2.65 q -3.05,3.6 -3.55,8.65 l -0.05,1.05 q -0.55,0.05 -0.95,0.5 l -0.65,0.95 -0.85,0.75 -0.5,0.2 -0.65,-0.1 -0.5,-0.25 q -0.4,-0.25 -0.3,-0.95 v -1.1 l -0.5,-0.55 -1.25,-0.15 q -0.65,0.15 -0.9,0.85 l -0.15,0.75 q -0.1,1.3 0.15,2 l 0.8,1.4 0.65,0.6 1.35,0.65 0.75,0.25 1.25,-0.1 q 1.1,-0.3 1.95,-1.05 l 1.15,1.1 q 0.85,0.5 1.65,0.5 l 0.4,-0.05 0.1,0.15 q 1.1,1.55 2.3,2.25 1.35,0.85 3.45,1 -4.7,2 -11.75,1.6 -4.3,-0.25 -6.85,-1.35 -3.7,-1.5 -5.05,-4.7 -0.65,-1.45 -0.65,-3.45 l 2.2,0.25 1.65,-0.2 q 0.95,-0.35 1.8,-1.7 l 0.75,-1.3 q 0.55,-0.3 0.95,-0.7 0.65,-0.65 0.8,-1.6 0.15,-0.95 -0.25,-1.8 -0.4,-0.85 -1.25,-1.3 l -0.25,-0.15 -0.9,-0.75 -1.6,-0.9 -1.1,-0.2 0.25,-0.45 q 1.2,-2.1 2.55,-3.35 1.25,-1.2 3.6,-2.45 2.65,-1.5 5,-2.1 5.15,-1.4 10.65,0.7 l 3.15,1.7 m 10,2.3 -0.7,1.7 q -0.5,-1.9 -1.3,-3.6 l 0.55,-0.05 2.65,-0.4 q -0.15,0.6 -1.2,2.35 m -12.9,28.15 0.15,2.05 q 0.5,2.1 2.8,4 3.55,3 6.8,2.45 1,-0.1 2.35,-0.75 l 0.2,1.5 0.1,1.55 0.75,1.5 q 1.35,1.7 3.25,1.55 l 0.45,-0.1 q -0.95,2.85 -2.75,5.15 -2.1,2.55 -4.85,3.8 -2.15,0.95 -5.35,1.25 l -5.6,0.15 -1.9,0.05 0.7,-0.85 0.7,-1.1 q 0.35,-0.75 0.35,-2.5 -0.1,-1.85 -0.45,-2.5 l -0.55,-0.75 3.1,-0.2 4.3,-0.2 q 1,-0.2 1.45,-0.65 0.5,-0.6 0.45,-1.3 -0.15,-0.8 -0.8,-1.1 l -1.2,-0.4 -1.35,-0.55 -2.55,-0.3 -2.45,-0.05 q -0.2,-0.9 -1.05,-1.55 -1.2,-0.9 -2.65,-0.5 l -0.7,0.3 -0.3,-0.4 Q -54.7,11.1 -56.5,11.1 l -1.45,0.3 -1,0.5 -1.1,0.75 -1.05,1.55 -0.35,0.9 -0.05,0.9 0.15,1 0.95,1.6 -4.45,3.35 q -2.55,1.85 -4.4,1.7 -1.3,-0.1 -1.75,-1.05 -0.55,-1.05 0.45,-2.8 1.65,-2.85 3.5,-4.8 l 5.35,-5 5.45,-4.9 0.6,-0.65 q 4.9,-0.2 8.8,-1.55 m -11.05,24.8 -2.05,0.3 -1.2,0.1 -1.05,-0.35 -0.2,-0.2 1.35,-0.95 1.7,-1.2 v 0.25 q 0.2,1.1 1.2,1.9 l 0.25,0.15 m 26.25,3.65 q 2.15,-1.1 3.45,-2.6 1.4,-1.5 1.85,-3.55 0.25,-1.2 0.05,-2.25 1,-1.65 1.65,-3.4 0.75,0.65 1.65,1.95 1.6,2.5 1.7,4.1 0.05,1.45 -0.85,3.45 -2.1,4.3 -6.45,6.45 l -1.3,0.55 0.25,-0.85 q 0.3,-1.5 -0.75,-2.8 -0.55,-0.65 -1.25,-1.05 m -36.4,-26.15 1.35,-1.9 3.9,0.8 -3.55,2.75 -0.4,-0.6 -0.7,-0.75 -0.6,-0.3"
         fill="#a1a1a1"
         fill-rule="evenodd"
         stroke="none"
         id="path3" />
    </g>
    <g
       id="sprite1"
       transform="translate(17.4,15.85)">
      <use
         ffdec:characterId="31"
         height="57.200001"
         transform="matrix(0.5366,0,0,0.5366,-16.6582,-14.546)"
         width="70.75"
         xlink:href="#sprite2"
         id="use3" />
    </g>
    <g
       id="sprite2"
       transform="translate(-8.65,-10.35)">
      <use
         ffdec:characterId="30"
         height="57.200001"
         transform="translate(8.65,10.35)"
         width="70.75"
         xlink:href="#shape1"
         id="use4" />
    </g>
    <g
       id="shape1"
       transform="translate(-8.65,-10.35)">
      <path
         d="m 14.8,41.7 q 0.65,-1.75 2.65,-2.5 1.8,-0.8 3.7,-0.25 1.15,0.45 2.25,1.2 l 0.9,0.4 q 1.65,0.9 2.85,2.5 L 37.8,30.1 q 2.35,-2.8 3.75,-3.95 1.5,-1.15 4.25,-2.4 18.2,-8.85 27.65,-12.6 2.15,-0.8 3.25,-0.8 h 0.8 l 1.9,2.4 -0.2,0.8 q -0.2,1.1 -1.55,3 -5.85,8.25 -18.85,23.8 -1.85,2.35 -3.35,3.5 -1.4,1.15 -4.75,2.75 l -15.15,7.15 q 1.2,1.6 1.75,3.4 l 0.2,1 0.55,2.5 q 0.1,1.95 -1.1,3.55 -1.2,1.65 -3.05,1.9 l -1.3,0.05 q -1.65,0.2 -3.45,-0.65 -1.85,-0.9 -3,-2.6 L 25,60.95 23.8,62.1 q -2.6,2.85 -4.3,3.95 -2.85,1.8 -5.5,1.45 l -1.65,-0.5 -1.2,-0.7 -0.2,-0.2 q -1,-0.85 -1.6,-1.9 L 9.25,64 9.15,63.8 8.75,62.4 q -0.2,-0.8 -0.05,-1.7 0.25,-2.65 2.7,-5.05 1.5,-1.3 4.9,-3.15 L 17.7,51.55 16.05,50 q -1.35,-1.5 -1.8,-3.6 -0.4,-1.85 0.25,-3.45 l 0.3,-1.25"
         fill="#000000"
         fill-opacity="0.372549"
         fill-rule="evenodd"
         stroke="none"
         id="path4" />
    </g>
  </defs>
</svg>
