<?xml version="1.0" encoding="UTF-8" standalone="no"?>
<svg
   ffdec:objectType="frame"
   height="73.698273"
   width="43.716278"
   version="1.1"
   id="svg4"
   xmlns:xlink="http://www.w3.org/1999/xlink"
   xmlns="http://www.w3.org/2000/svg"
   xmlns:svg="http://www.w3.org/2000/svg"
   xmlns:ffdec="https://www.free-decompiler.com/flash">
  <g
     transform="translate(22.141026,39)"
     id="g1">
    <use
       ffdec:characterId="17"
       height="119.15"
       id="rarity"
       transform="translate(-58.5,-60.65)"
       width="119.15"
       xlink:href="#sprite0" />
    <use
       ffdec:characterId="940"
       height="73.699997"
       transform="translate(-22.15,-39)"
       width="43.75"
       xlink:href="#shape0"
       id="use1" />
  </g>
  <defs
     id="defs4">
    <g
       id="shape0"
       transform="translate(68.95,40.35)">
      <path
         d="m -45.25,-26.2 -0.6,-0.8 -0.3,0.5 -10.5,16.2 q -1.95,3 -3.45,6.2 l -1.7,4.15 q -0.85,3 -0.7,6.2 l 0.2,3.25 q 2.3,7.8 8.5,13.35 l 3.55,3 q 9.2,-7.75 16.45,-17.1 0.85,-1.05 1.35,-2.35 l 0.7,-1.5 q 1.2,-4.85 0,-9.65 -0.65,-2.6 -1.65,-5.15 -2.6,-4.45 -5.95,-8.45 l -3.2,-3.55 q -1.15,-1.25 -1.9,-2.85 l -0.8,-1.45 m -13.6,24.1 q 1.4,-4.65 5.5,-8.15 1.15,-1 2.6,-1.5 l 2.2,-0.65 q 5.25,-0.4 8.7,1.65 4,2.35 5.65,7.95 0.65,2.2 0.35,4.55 -0.6,4.6 -3.95,7.95 -7.95,7.95 -17.75,2.2 -3.2,-1.9 -3.8,-5.5 -0.75,-4.65 0.5,-8.5 m 13.45,-38.25 q 3.65,1.5 3.45,6 -0.05,1.5 0.6,2.85 3.75,8 10.25,14.1 l 1.25,1.5 q 1.5,2.2 2.2,4.7 4.9,10.85 -0.1,21.65 -3.45,7.5 -10.1,12.8 -3.65,2.85 -6.95,6.05 -2.45,2.35 -5.3,3.8 -1.1,0.6 -2.1,-0.25 -8.15,-6.85 -13.6,-15.75 -3.5,-5.75 -3.1,-12.7 0.55,-10.75 7.3,-19.1 6.2,-7.7 10.9,-16.2 1.3,-2.35 1.7,-5.05 0.5,-3.6 3.6,-4.4 m -8.7,40.7 -0.05,0.6 q 1.9,0.3 3.65,-0.4 l 1,-0.95 0.15,-0.15 0.15,-0.25 1.35,-2.2 0.1,-0.3 0.25,-0.45 0.05,-0.2 v -0.2 -0.45 l -0.1,-0.4 -0.2,-0.2 -0.25,-0.2 -0.35,-0.2 -2.95,0.3 q -2.3,2.25 -2.8,5.6 v 0.05"
         fill="#000000"
         fill-rule="evenodd"
         stroke="none"
         id="path1" />
      <path
         d="m -46.15,-26.5 0.9,0.3 0.8,1.45 q 0.75,1.6 1.9,2.85 l 3.2,3.55 0.05,0.5 q 0.35,3.95 -0.55,7.1 -3.45,-2.05 -8.7,-1.65 l -2.2,0.65 q -1.45,0.5 -2.6,1.5 -4.1,3.5 -5.5,8.15 l -0.8,-1.05 -0.45,-0.95 q 1.5,-3.2 3.45,-6.2 l 10.5,-16.2 M -54.1,0.35 V 0.3 q 0.5,-3.35 2.8,-5.6 l 2.95,-0.3 0.35,0.2 0.25,0.2 0.2,0.2 0.1,0.4 v 0.45 0.2 l -0.05,0.2 -0.25,0.45 -0.1,0.3 -1.35,2.2 -0.15,0.25 -0.15,0.15 -1,0.95 q -1.75,0.7 -3.65,0.4 l 0.05,-0.6"
         fill="#ffffff"
         fill-rule="evenodd"
         stroke="none"
         id="path2" />
      <path
         d="m -60.1,-4.1 0.45,0.95 0.8,1.05 q -1.25,3.85 -0.5,8.5 0.6,3.6 3.8,5.5 9.8,5.75 17.75,-2.2 3.35,-3.35 3.95,-7.95 0.3,-2.35 -0.35,-4.55 -1.65,-5.6 -5.65,-7.95 0.9,-3.15 0.55,-7.1 l -0.05,-0.5 q 3.35,4 5.95,8.45 1,2.55 1.65,5.15 1.2,4.8 0,9.65 l -0.7,1.5 q -0.5,1.3 -1.35,2.35 -7.25,9.35 -16.45,17.1 l -3.55,-3 Q -60,17.3 -62.3,9.5 l -0.2,-3.25 q -0.15,-3.2 0.7,-6.2 l 1.7,-4.15"
         fill="#caaed5"
         fill-rule="evenodd"
         stroke="none"
         id="path3" />
    </g>
    <g
       id="sprite1"
       transform="translate(17.4,15.85)">
      <use
         ffdec:characterId="31"
         height="57.200001"
         transform="matrix(0.5366,0,0,0.5366,-16.6582,-14.546)"
         width="70.75"
         xlink:href="#sprite2"
         id="use3" />
    </g>
    <g
       id="sprite2"
       transform="translate(-8.65,-10.35)">
      <use
         ffdec:characterId="30"
         height="57.200001"
         transform="translate(8.65,10.35)"
         width="70.75"
         xlink:href="#shape1"
         id="use4" />
    </g>
    <g
       id="shape1"
       transform="translate(-8.65,-10.35)">
      <path
         d="m 14.8,41.7 q 0.65,-1.75 2.65,-2.5 1.8,-0.8 3.7,-0.25 1.15,0.45 2.25,1.2 l 0.9,0.4 q 1.65,0.9 2.85,2.5 L 37.8,30.1 q 2.35,-2.8 3.75,-3.95 1.5,-1.15 4.25,-2.4 18.2,-8.85 27.65,-12.6 2.15,-0.8 3.25,-0.8 h 0.8 l 1.9,2.4 -0.2,0.8 q -0.2,1.1 -1.55,3 -5.85,8.25 -18.85,23.8 -1.85,2.35 -3.35,3.5 -1.4,1.15 -4.75,2.75 l -15.15,7.15 q 1.2,1.6 1.75,3.4 l 0.2,1 0.55,2.5 q 0.1,1.95 -1.1,3.55 -1.2,1.65 -3.05,1.9 l -1.3,0.05 q -1.65,0.2 -3.45,-0.65 -1.85,-0.9 -3,-2.6 L 25,60.95 23.8,62.1 q -2.6,2.85 -4.3,3.95 -2.85,1.8 -5.5,1.45 l -1.65,-0.5 -1.2,-0.7 -0.2,-0.2 q -1,-0.85 -1.6,-1.9 L 9.25,64 9.15,63.8 8.75,62.4 q -0.2,-0.8 -0.05,-1.7 0.25,-2.65 2.7,-5.05 1.5,-1.3 4.9,-3.15 L 17.7,51.55 16.05,50 q -1.35,-1.5 -1.8,-3.6 -0.4,-1.85 0.25,-3.45 l 0.3,-1.25"
         fill="#000000"
         fill-opacity="0.372549"
         fill-rule="evenodd"
         stroke="none"
         id="path4" />
    </g>
  </defs>
</svg>
