<?xml version="1.0" encoding="UTF-8" standalone="no"?>
<svg
   ffdec:objectType="frame"
   height="73.008217"
   width="46.707466"
   version="1.1"
   id="svg4"
   xmlns:xlink="http://www.w3.org/1999/xlink"
   xmlns="http://www.w3.org/2000/svg"
   xmlns:svg="http://www.w3.org/2000/svg"
   xmlns:ffdec="https://www.free-decompiler.com/flash">
  <g
     transform="translate(23.191429,42.35)"
     id="g1">
    <use
       ffdec:characterId="17"
       height="119.15"
       id="rarity"
       transform="translate(-58.5,-60.65)"
       width="119.15"
       xlink:href="#sprite0" />
    <use
       ffdec:characterId="531"
       height="73"
       transform="translate(-23.2,-42.35)"
       width="46.700001"
       xlink:href="#shape0"
       id="use1" />
  </g>
  <defs
     id="defs4">
    <g
       id="shape0"
       transform="translate(22.8,41.55)">
      <path
         d="m 16.95,-13.5 -0.7,-3.9 q -0.95,-5.3 -3,-10.25 -1.25,-0.9 -2.2,-2.15 L 10.6,-30.45 Q 5.45,-33 0.2,-35.15 l -0.35,-0.2 0.7,3.1 0.4,2.35 2,7.85 q 0.4,1.5 0.2,3.1 1.85,5.05 1.3,10.15 -0.3,3 -1.5,6.05 -1.2,3.05 -1.4,6.35 -0.3,4.45 -2.1,8.55 l -1,8.1 v 0.05 q 0.2,0.9 0.25,1.85 0,1.25 0.4,2.4 l 4.7,0.15 q 3,-8.8 7.85,-16.8 2.15,-3.5 4.85,-6.55 0.85,-0.95 1.25,-2.2 l 0.05,-1.1 0.25,-0.85 q -0.3,-5.4 -1.1,-10.7 M 6.7,-7.85 V -8.1 l 0.65,-1.5 0.4,-0.85 q 0.35,-0.5 0.9,-0.25 l 0.1,0.05 0.2,0.2 0.15,0.25 v 0.2 0.2 l -0.25,1.05 -0.05,1.1 -0.05,0.1 -0.05,0.1 -0.1,0.25 v 1.25 l -0.2,1.1 0.05,0.4 V -3.8 Q 8,-2.5 8.85,-1.4 l 0.4,1.05 Q 9.75,0.15 10.4,0 l 0.2,-0.15 0.2,-0.85 0.25,-0.85 v -1.1 L 11.1,-4 11.25,-4.2 11.4,-4.45 11.35,-5.3 11.45,-6.15 Q 11.05,-7 10.95,-7.85 10.8,-8.7 10.9,-9.6 q 0.1,-0.75 0.35,-1.35 l 0.15,-0.35 0.25,-0.15 0.45,-0.2 0.45,0.15 0.3,0.2 0.65,2.1 q 1,4.35 0.05,8.85 Q 13.15,1.5 11.95,3.1 6.9,4.85 5.9,0.05 5.15,-1.2 5.5,-2.7 L 5.75,-4.2 Q 6.3,-5.45 6.5,-6.8 l 0.2,-1.05 m -16.95,-5.35 0.25,-1.3 q 0.5,-1.9 0.5,-3.9 l 0.15,-0.2 0.15,-0.2 v -0.45 l 0.3,-0.65 0.2,-0.15 0.5,-0.15 v -0.05 l 0.75,0.25 0.45,0.35 -0.3,6 0.05,2.55 0.1,0.25 0.1,0.2 q 0.55,0.55 1.3,0.8 l 0.4,0.05 q 0.9,-2.25 0.85,-4.7 l 0.25,-2.15 1.05,-1.05 0.6,-0.3 0.15,0.4 0.25,0.85 0.15,0.75 q 0.5,0.15 0.95,0.5 0.8,-0.45 1.05,-1.4 l 0.15,-0.25 0.05,-0.2 0.3,-2.35 v -0.25 l -0.85,-2.75 -0.75,-3.2 -0.1,-2.4 -0.15,-0.25 -0.15,-0.2 -0.15,-0.2 q -0.05,-1.45 -0.55,-2.8 l -0.15,-0.7 0.05,-0.8 -0.2,-0.45 -0.05,-0.15 -0.1,-0.45 -0.1,0.15 -0.3,0.3 -1.35,1.35 -1.05,1.05 q -3.45,5.6 -8.35,10.1 l -2.7,2.55 q -0.35,2.95 0.55,5.8 l 1,3.85 q 4.65,1.05 8.9,3.4 1.35,0.75 1.65,2.35 0.95,5.2 1.2,10.55 l 0.1,1.5 0.95,-4.45 1.8,-6.7 q 1.05,-3.8 1.7,-7.6 l 0.2,-1.65 -0.1,-2.05 -0.35,0.35 q -1.1,0.85 -2.9,0.7 -0.3,3.25 -2.5,5.9 -0.25,0.3 -0.7,0.35 L -7.9,-6.8 q -2.95,-2.5 -2.35,-6.4 M -12.4,5.35 Q -11.65,8 -11.55,11 l 0.05,3.25 -0.05,0.2 -0.15,0.2 q -0.5,4.85 -5.4,3.55 -1.9,-0.5 -2.75,-2.25 L -20,15.3 v -0.85 q -0.5,-4.95 1.2,-9.8 l 1.1,-3.7 q 1.05,-1.85 1.3,-3.95 l -2.8,-1.3 -0.95,-0.95 q -4.3,-8.2 -1.6,-16.8 0.45,-1.45 1.6,-2.6 l 6.9,-6.55 3.1,-4.75 q 2.7,-3.95 6.8,-5.6 11.15,0.5 19.1,7.75 4,3.65 5.25,8.9 1.55,6.45 2.5,13.05 1.05,6.75 -0.55,13.3 -0.6,2.55 -2.4,4.5 -7.8,8.65 -10.75,19.95 -1.15,4.3 -5.9,5.25 -7.45,1.5 -10.45,-4.3 L -7.1,25.3 Q -9.4,14.2 -9.85,2.8 l -0.4,-0.85 -0.25,-1.1 -0.2,-1.7 -0.05,-0.2 -1.25,-0.4 -2.15,-0.7 0.1,1.2 -0.15,0.45 -0.3,0.65 v 0.4 l -0.05,0.65 q -1.6,3.6 -1.7,7.55 -0.05,1.3 -0.55,2.55 v 0.45 0.65 q 0.25,1.6 1.35,2.65 0.4,0.45 0.95,0.25 0.3,-0.5 0.3,-1.05 l 0.3,-0.85 q -0.05,-2.75 0.3,-5.4 l 0.45,-2.35 v -0.2 l -0.1,-0.45 -0.1,-0.2 0.1,-0.65 0.2,-0.85 0.65,2.05 m 32.7,7.25 q 0.15,-0.15 0.4,-0.15 l 0.4,0.15 0.3,0.2 0.35,1.05 0.1,1.1 -0.05,0.2 -0.05,0.2 -0.15,0.25 q 1.25,5.65 0.35,11.55 -0.35,2.1 -1.9,3.7 -3.35,1.5 -5.65,-1.3 -0.6,-2.65 -0.45,-5.4 l 0.25,-2.55 0.85,-2.1 0.4,-1.1 0.9,1.8 v 0.1 l 0.25,1.3 q -0.3,2 -0.05,4.1 l 0.3,1.9 0.8,0.2 0.35,-0.05 q 0.6,-0.5 0.7,-1.25 L 19,25.6 v -7.5 q 0,-1.6 0.25,-3.2 l 0.8,-1.9 q 0.05,-0.25 0.25,-0.4"
         fill="#000000"
         fill-rule="evenodd"
         stroke="none"
         id="path1" />
      <path
         d="m 4.45,-8.8 q 0.55,-5.1 -1.3,-10.15 0.2,-1.6 -0.2,-3.1 l -2,-7.85 -0.4,-2.35 -0.7,-3.1 0.35,0.2 q 5.25,2.15 10.4,4.7 l 0.45,0.65 q 0.95,1.25 2.2,2.15 2.05,4.95 3,10.25 l 0.7,3.9 q -0.9,2 -2.7,3.65 l -0.75,0.65 -0.65,-2.1 -0.3,-0.2 -0.45,-0.15 -0.45,0.2 -0.25,0.15 -0.15,0.35 q -0.25,0.6 -0.35,1.35 -0.1,0.9 0.05,1.75 0.1,0.85 0.5,1.7 l -0.1,0.85 0.05,0.85 -0.15,0.25 -0.15,0.2 -0.05,1.05 v 1.1 L 10.8,-1 10.6,-0.15 10.4,0 Q 9.75,0.15 9.25,-0.35 L 8.85,-1.4 Q 8,-2.5 8.45,-3.8 V -4.45 L 8.4,-4.85 8.6,-5.95 V -7.2 l 0.1,-0.25 0.05,-0.1 0.05,-0.1 0.05,-1.1 0.25,-1.05 v -0.2 -0.2 l -0.15,-0.25 -0.2,-0.2 -0.1,-0.05 q -0.55,-0.25 -0.9,0.25 L 7.35,-9.6 6.7,-8.1 v 0.25 Q 5.6,-8.2 4.45,-8.8 m 6.15,-5.2 -0.15,0.6 H 10.6 L 11.25,-14 10.7,-14.05 10.6,-14 m -5.15,-5.9 q -0.05,1.1 0.3,2.15 L 5.95,-17 5.7,-19.3 5.45,-19.9 m -8.25,-14.25 0.1,-0.15 0.1,0.45 0.05,0.15 0.2,0.45 -0.05,0.8 0.15,0.7 q 0.5,1.35 0.55,2.8 l 0.15,0.2 0.15,0.2 0.15,0.25 0.1,2.4 0.75,3.2 0.85,2.75 v 0.25 l -0.3,2.35 -0.05,0.2 -0.15,0.25 q -0.25,0.95 -1.05,1.4 -0.45,-0.35 -0.95,-0.5 l -0.15,-0.75 -0.25,-0.85 -0.15,-0.4 -0.6,0.3 -1.05,1.05 -0.25,2.15 q 0.05,2.45 -0.85,4.7 l -0.4,-0.05 q -0.75,-0.25 -1.3,-0.8 l -0.1,-0.2 -0.1,-0.25 -0.05,-2.55 0.3,-6 -0.45,-0.35 -0.75,-0.25 v 0.05 l -0.5,0.15 -0.2,0.15 -0.3,0.65 v 0.45 l -0.15,0.2 -0.15,0.2 q 0,2 -0.5,3.9 l -0.25,1.3 q -4.95,0.75 -6.1,-4.25 l -0.2,-1.35 2.7,-2.55 q 4.9,-4.5 8.35,-10.1 l 1.05,-1.05 1.35,-1.35 0.3,0.05 v -0.35 m 3.85,20.7 0.35,-0.35 0.1,2.05 q -0.4,-0.8 -0.45,-1.7 m -13.05,12 q 1,2.4 0.1,5.2 l -0.5,1.6 -0.65,-2.05 -0.2,0.85 -0.1,0.65 0.1,0.2 0.1,0.45 v 0.2 L -13.6,8 q -0.35,2.65 -0.3,5.4 l -0.3,0.85 q 0,0.55 -0.3,1.05 -0.55,0.2 -0.95,-0.25 Q -16.55,14 -16.8,12.4 V 11.75 11.3 q 0.5,-1.25 0.55,-2.55 0.1,-3.95 1.7,-7.55 l 0.05,-0.65 v -0.4 l 0.3,-0.65 0.15,-0.45 -0.1,-1.2 2.15,0.7 M 16.35,20.2 16.7,15.3 q 0.25,-2.6 2.55,-3.15 l 0.55,0.2 0.4,0.15 0.1,0.1 q -0.2,0.15 -0.25,0.4 l -0.8,1.9 Q 19,16.5 19,18.1 v 7.5 l -0.3,0.9 q -0.1,0.75 -0.7,1.25 l -0.35,0.05 -0.8,-0.2 -0.3,-1.9 Q 16.3,23.6 16.6,21.6 l -0.25,-1.3 v -0.1"
         fill="#cac9b5"
         fill-rule="evenodd"
         stroke="none"
         id="path2" />
      <path
         d="M 4.45,-8.8 Q 5.6,-8.2 6.7,-7.85 L 6.5,-6.8 Q 6.3,-5.45 5.75,-4.2 L 5.5,-2.7 q -0.35,1.5 0.4,2.75 1,4.8 6.05,3.05 1.2,-1.6 1.6,-3.45 0.95,-4.5 -0.05,-8.85 l 0.75,-0.65 q 1.8,-1.65 2.7,-3.65 0.8,5.3 1.1,10.7 l -0.25,0.85 -0.05,1.1 Q 17.35,0.4 16.5,1.35 13.8,4.4 11.65,7.9 6.8,15.9 3.8,24.7 L -0.9,24.55 Q -1.3,23.4 -1.3,22.15 -1.35,21.2 -1.55,20.3 v -0.05 l 1,-8.1 q 1.8,-4.1 2.1,-8.55 0.2,-3.3 1.4,-6.35 1.2,-3.05 1.5,-6.05 m -21,-10 0.2,1.35 q 1.15,5 6.1,4.25 -0.6,3.9 2.35,6.4 l 2.85,0.3 q 0.45,-0.05 0.7,-0.35 2.2,-2.65 2.5,-5.9 1.8,0.15 2.9,-0.7 0.05,0.9 0.45,1.7 l -0.2,1.65 q -0.65,3.8 -1.7,7.6 l -1.8,6.7 -0.95,4.45 -0.1,-1.5 Q -3.5,1.8 -4.45,-3.4 -4.75,-5 -6.1,-5.75 -10.35,-8.1 -15,-9.15 L -16,-13 q -0.9,-2.85 -0.55,-5.8"
         fill="#ffffff"
         fill-rule="evenodd"
         stroke="none"
         id="path3" />
    </g>
    <g
       id="sprite1"
       transform="translate(17.4,15.85)">
      <use
         ffdec:characterId="31"
         height="57.200001"
         transform="matrix(0.5366,0,0,0.5366,-16.6582,-14.546)"
         width="70.75"
         xlink:href="#sprite2"
         id="use3" />
    </g>
    <g
       id="sprite2"
       transform="translate(-8.65,-10.35)">
      <use
         ffdec:characterId="30"
         height="57.200001"
         transform="translate(8.65,10.35)"
         width="70.75"
         xlink:href="#shape1"
         id="use4" />
    </g>
    <g
       id="shape1"
       transform="translate(-8.65,-10.35)">
      <path
         d="m 14.8,41.7 q 0.65,-1.75 2.65,-2.5 1.8,-0.8 3.7,-0.25 1.15,0.45 2.25,1.2 l 0.9,0.4 q 1.65,0.9 2.85,2.5 L 37.8,30.1 q 2.35,-2.8 3.75,-3.95 1.5,-1.15 4.25,-2.4 18.2,-8.85 27.65,-12.6 2.15,-0.8 3.25,-0.8 h 0.8 l 1.9,2.4 -0.2,0.8 q -0.2,1.1 -1.55,3 -5.85,8.25 -18.85,23.8 -1.85,2.35 -3.35,3.5 -1.4,1.15 -4.75,2.75 l -15.15,7.15 q 1.2,1.6 1.75,3.4 l 0.2,1 0.55,2.5 q 0.1,1.95 -1.1,3.55 -1.2,1.65 -3.05,1.9 l -1.3,0.05 q -1.65,0.2 -3.45,-0.65 -1.85,-0.9 -3,-2.6 L 25,60.95 23.8,62.1 q -2.6,2.85 -4.3,3.95 -2.85,1.8 -5.5,1.45 l -1.65,-0.5 -1.2,-0.7 -0.2,-0.2 q -1,-0.85 -1.6,-1.9 L 9.25,64 9.15,63.8 8.75,62.4 q -0.2,-0.8 -0.05,-1.7 0.25,-2.65 2.7,-5.05 1.5,-1.3 4.9,-3.15 L 17.7,51.55 16.05,50 q -1.35,-1.5 -1.8,-3.6 -0.4,-1.85 0.25,-3.45 l 0.3,-1.25"
         fill="#000000"
         fill-opacity="0.372549"
         fill-rule="evenodd"
         stroke="none"
         id="path4" />
    </g>
  </defs>
</svg>
