<?xml version="1.0" encoding="UTF-8" standalone="no"?>
<svg
   ffdec:objectType="frame"
   height="85.029999"
   width="70.278732"
   version="1.1"
   id="svg3"
   xmlns:xlink="http://www.w3.org/1999/xlink"
   xmlns="http://www.w3.org/2000/svg"
   xmlns:svg="http://www.w3.org/2000/svg"
   xmlns:ffdec="https://www.free-decompiler.com/flash">
  <g
     transform="translate(33.36134,42.53)"
     id="g1">
    <use
       ffdec:characterId="17"
       height="119.15"
       id="rarity"
       transform="translate(-58.5,-60.65)"
       width="119.15"
       xlink:href="#sprite0" />
    <use
       ffdec:characterId="386"
       height="85.349998"
       transform="translate(-33.35,-42.55)"
       width="70.25"
       xlink:href="#shape0"
       id="use1" />
  </g>
  <defs
     id="defs3">
    <g
       id="shape0"
       transform="translate(33.05,45.05)">
      <path
         d="m -23.75,-35.85 5.5,-1.25 13.3,-2.85 17.5,-1.95 12.3,-0.8 1.95,0.05 H 27 q 1.2,0.15 1.95,0.7 0.9,0.65 1.2,1.9 0.3,1.2 -0.3,2.25 l -0.35,0.5 -0.05,0.15 -0.65,1.45 q -3.35,6.65 -13.45,24.2 l -0.85,1.45 2.25,1.4 q 4.5,2.85 7.4,5.25 1.55,1.35 1.85,2.3 0.25,0.75 -0.05,1.5 -0.3,0.75 -1,0.95 L 23.55,1.15 22.2,0.2 19.55,-1.25 Q 17.65,-2 16.7,-2.45 16,-2.7 14.05,-3.9 L 11.75,-5.25 11.2,-4.2 5.35,6.3 5.3,6.35 l 1.75,2.1 3.4,3.9 0.1,0.05 1.75,-2.45 Q 11.65,9.35 11.45,8.55 11.2,7.6 11.6,6.7 11.95,5.8 12.8,5.3 13.65,4.8 14.55,4.85 15.4,4.9 17,5.8 l 1.6,1 q 1.55,0.8 2.15,1.6 1.05,1.3 0.5,2.5 -0.3,0.7 -1.15,1.05 l -1.65,0.25 -1.4,-0.35 -0.25,0.55 -1.7,3 -1,2.4 1.2,1.35 2.65,2.25 2.7,1.75 2.1,0.8 4.15,-0.15 Q 26.05,23.05 25.75,21.95 L 25.6,20.9 q -0.05,-0.65 0.15,-1.2 0.35,-1.1 1.25,-1.85 0.9,-0.75 2,-0.9 1.45,-0.1 2.9,0.65 1.6,0.85 2.35,2.3 1.35,2.7 -0.35,5.9 -0.85,1.7 -2.25,3 -1.5,1.3 -3.25,1.7 l -3.55,0.3 -3.65,-0.3 q -1.95,-0.3 -4.35,-1.7 l -3.5,-2.35 -1.85,-1.8 -1.1,5 -0.6,3.65 q -0.3,2 -1.05,3 L 8,37.05 Q 6.9,38.25 5.35,37.9 4,37.75 2.05,35.55 l -5,-6 -0.95,-0.8 -1,-1 -0.2,-0.2 -0.55,-0.6 L -7.1,29 q -1.5,1.7 -3.35,3.05 -1.6,1.25 -3.05,1.9 -1.45,0.6 -4.35,0.8 -4.05,0.15 -6.7,-0.7 -3.15,-1.05 -4.1,-3.3 -0.5,-1.1 -0.5,-3.15 0,-1.8 0.45,-2.7 0.55,-1.35 1.95,-2 l 2.8,-0.1 q 1.3,0.45 2.05,1.8 0.75,1.4 0.4,2.75 4.2,0.85 6.35,-0.05 1.55,-0.7 3.7,-2.8 l 0.95,-0.95 0.7,-0.75 -2.4,-2.35 -0.2,-0.25 -0.15,-0.1 -1.5,-1.4 -1.15,0.75 q -1.3,0.45 -2.45,-0.35 -1.15,-0.75 -1.25,-2.15 -0.05,-1.4 1.3,-3.2 1.1,-1.4 2.45,-2.5 1.3,-1 2.2,-1 0.75,0 1.4,0.55 0.6,0.45 0.75,1.2 0.1,0.7 -0.25,1.65 l 1.2,0.75 0.6,0.4 0.95,0.75 0.6,0.55 3,-6.2 L -3.1,6.8 -3.15,6.7 -8.45,-0.35 -9,-1.1 -19.05,8.2 q -1.75,1.55 -2.85,1.15 -0.75,-0.15 -1.05,-1 -0.35,-0.75 -0.15,-1.55 0.3,-1.1 1.8,-2.6 l 9.25,-9.6 -0.85,-1.2 -0.7,-1.05 -14.25,-21.55 q -1.05,-1.55 -0.9,-2.65 l 0.65,-1.2 q 0.25,-1.05 1.6,-1.9 0.9,-0.55 2.75,-0.9 m 8.9,5.25 -0.4,0.1 -3.1,0.7 q 1.5,1.05 3.75,2.25 l 0.65,0.3 5.55,2.95 4,2.6 3.9,2.7 0.95,0.65 13.75,-14.35 0.95,-0.9 1.85,-1.75 -1.85,0.15 -2.1,0.15 -8.4,0.9 q -9.85,1.2 -19.5,3.55 m 25.45,10 -0.35,0.3 -3.2,3.55 -0.4,0.45 -1,1.1 1.45,0.85 1.4,0.8 0.75,-1.2 0.35,-0.55 5.3,-8.7 1.5,-2.35 -5.8,5.75 M 0.45,0.25 l 3.4,-6 1.7,-2.85 V -8.65 L 5.05,-8.95 4.55,-9.2 H 4.5 L 3.1,-9.95 q -0.95,-0.45 -1.75,-0.9 l -0.1,0.1 -1.65,1.6 L -3,-6.75 -3.35,-6.4 -4,-5.75 -2.45,-3.6 -1,-1.7 0.45,0.25 M -5.5,-15 l -1.6,-1.05 -2.3,-1.5 -0.15,-0.1 -3.65,-2 -1.1,-0.5 4.75,6.65 1.2,1.75 1.05,1.45 3.45,-3.6 -1.65,-1.1 m 7.4,28 -1.3,2.55 -2.2,4.65 -0.65,1.5 0.5,0.5 0.8,0.75 1.75,1.55 1.8,1.85 1.6,1.75 0.5,-2.4 0.15,-0.6 q 0.55,-2.3 1,-3.45 L 6.15,21.1 7,19.3 6.65,18.9 5.6,17.35 5,16.7 3.25,14.6 1.9,13"
         fill="#000000"
         fill-rule="evenodd"
         stroke="none"
         id="path1" />
      <path
         d="m -30.95,-25.65 q -3.2,-5.3 -1.55,-8.2 0.85,-1.55 3.7,-2.8 4.3,-1.85 12.35,-3.35 17.55,-3.4 35.95,-4.85 4.45,-0.3 6.65,-0.1 3.05,0.3 4.6,1.6 l 0.95,1.1 0.25,0.45 0.45,1.95 q -0.05,1.4 -1.1,3.85 -2.2,5.1 -7.6,14.85 l -6,10.7 0.55,0.25 q 3.05,1.55 5.4,3.7 l 1.45,1.2 1.25,0.7 1.15,0.85 q 0.7,0.65 0.9,1.55 0.25,0.9 0,1.75 Q 28.2,0.4 27.5,1.1 26.85,1.8 26,1.95 L 22.3,1.55 Q 18.6,0.4 16.75,-0.35 l -3.5,-2 H 13.2 l -5.65,10 1.2,0.8 1.95,1.6 -0.05,-0.7 -0.5,-1.05 Q 9.5,6.95 10,5.6 q 0.5,-1.5 1.9,-2 1.75,-0.75 4.7,0.5 l 2.35,1.1 q 2.9,1.55 3.95,3.25 0.7,1.15 0.65,2.45 -0.05,1.45 -0.9,2.3 -1.05,1.05 -2.7,1.15 L 17,14.1 l -0.45,1.8 -0.1,0.9 0.6,0.8 2.15,1.6 q 1.15,0.65 3.2,1 l 0.3,0.05 q 0.25,-1.6 1.15,-2.75 0.9,-1.25 2.4,-1.85 1.45,-0.65 3.05,-0.55 3,0.15 5.45,2.55 1.45,1.45 2.1,3.3 0.65,2 0.15,3.8 -0.7,2.3 -3.2,4.2 -4.65,3.5 -10.45,3.5 -5.65,0 -10.6,-3.25 l -2.1,7.2 Q 9.8,39.25 8.4,40 l -2.85,-0.05 -2.5,-1.6 -6.1,-5.1 -2.4,-2.35 q -1.5,1.8 -3.2,3 -2.85,1.85 -8.35,2.85 l -7.55,0.5 q -4.25,-0.55 -6.5,-3.45 -1.35,-1.8 -1.45,-4.25 -0.05,-2.35 1.15,-4.25 1.25,-1.9 3.5,-2.75 2.25,-0.9 4.45,-0.35 0.25,0.05 2.65,1 l 2.65,0.5 q 1.4,-0.1 2.95,-1.2 l 1.4,-1.15 q -1.9,0.75 -4.2,0.55 l -1.6,-0.45 q -1,-0.6 -1.4,-1.6 l -0.15,-3 0.15,-2.05 0.65,-1.5 q 1.2,-1.85 3.2,-3.65 l 1.75,-1.2 q 1.85,-0.85 3.55,0.3 1.65,1.1 1.75,3.15 l 0.1,1.4 0.4,0.35 0.15,-0.4 Q -8.35,10.7 -7.25,9.1 L -6.3,8.05 -11,2.6 q -2.75,3.95 -6.7,7.5 -2.65,2.25 -4.55,2.75 l -2.65,-0.1 q -1.4,-0.45 -2.05,-1.55 -1,-1.7 -0.2,-4.05 0.75,-2 2.8,-3.95 l 3.9,-3.15 1.4,-1.25 1.1,-1.9 1.2,-1.7 q -7.45,-9.8 -14.2,-20.85 m 16.1,-4.95 q 9.65,-2.35 19.5,-3.55 l 8.4,-0.9 2.1,-0.15 1.85,-0.15 -1.85,1.75 -0.95,0.9 -13.75,14.35 -0.95,-0.65 -3.9,-2.7 -4,-2.6 -5.55,-2.95 -0.65,-0.3 q -2.25,-1.2 -3.75,-2.25 l 3.1,-0.7 0.4,-0.1 m -8.9,-5.25 q -1.85,0.35 -2.75,0.9 -1.35,0.85 -1.6,1.9 l -0.65,1.2 q -0.15,1.1 0.9,2.65 l 14.25,21.55 0.7,1.05 0.85,1.2 -9.25,9.6 q -1.5,1.5 -1.8,2.6 -0.2,0.8 0.15,1.55 0.3,0.85 1.05,1 1.1,0.4 2.85,-1.15 L -9,-1.1 l 0.55,0.75 5.3,7.05 0.05,0.1 -1.6,3.1 -3,6.2 -0.6,-0.55 -0.95,-0.75 -0.6,-0.4 -1.2,-0.75 q 0.35,-0.95 0.25,-1.65 -0.15,-0.75 -0.75,-1.2 -0.65,-0.55 -1.4,-0.55 -0.9,0 -2.2,1 -1.35,1.1 -2.45,2.5 -1.35,1.8 -1.3,3.2 0.1,1.4 1.25,2.15 1.15,0.8 2.45,0.35 l 1.15,-0.75 1.5,1.4 0.15,0.1 0.2,0.25 2.4,2.35 -0.7,0.75 -0.95,0.95 q -2.15,2.1 -3.7,2.8 -2.15,0.9 -6.35,0.05 0.35,-1.35 -0.4,-2.75 -0.75,-1.35 -2.05,-1.8 l -2.8,0.1 q -1.4,0.65 -1.95,2 -0.45,0.9 -0.45,2.7 0,2.05 0.5,3.15 0.95,2.25 4.1,3.3 2.65,0.85 6.7,0.7 2.9,-0.2 4.35,-0.8 1.45,-0.65 3.05,-1.9 Q -8.6,30.7 -7.1,29 l 1.45,-2.05 0.55,0.6 0.2,0.2 1,1 0.95,0.8 5,6 Q 4,37.75 5.35,37.9 6.9,38.25 8,37.05 L 8.75,36.3 q 0.75,-1 1.05,-3 l 0.6,-3.65 1.1,-5 1.85,1.8 3.5,2.35 q 2.4,1.4 4.35,1.7 l 3.65,0.3 3.55,-0.3 q 1.75,-0.4 3.25,-1.7 1.4,-1.3 2.25,-3 1.7,-3.2 0.35,-5.9 -0.75,-1.45 -2.35,-2.3 -1.45,-0.75 -2.9,-0.65 -1.1,0.15 -2,0.9 -0.9,0.75 -1.25,1.85 -0.2,0.55 -0.15,1.2 l 0.15,1.05 q 0.3,1.1 1.15,1.85 l -4.15,0.15 -2.1,-0.8 -2.7,-1.75 -2.65,-2.25 -1.2,-1.35 1,-2.4 1.7,-3 0.25,-0.55 1.4,0.35 1.65,-0.25 Q 20.95,11.6 21.25,10.9 21.8,9.7 20.75,8.4 20.15,7.6 18.6,6.8 L 17,5.8 Q 15.4,4.9 14.55,4.85 13.65,4.8 12.8,5.3 q -0.85,0.5 -1.2,1.4 -0.4,0.9 -0.15,1.85 0.2,0.8 0.85,1.4 L 10.55,12.4 10.45,12.35 7.05,8.45 5.3,6.35 5.35,6.3 11.2,-4.2 l 0.55,-1.05 2.3,1.35 q 1.95,1.2 2.65,1.45 0.95,0.45 2.85,1.2 l 2.65,1.45 1.35,0.95 1.4,0.2 q 0.7,-0.2 1,-0.95 0.3,-0.75 0.05,-1.5 -0.3,-0.95 -1.85,-2.3 -2.9,-2.4 -7.4,-5.25 l -2.25,-1.4 0.85,-1.45 q 10.1,-17.55 13.45,-24.2 l 0.65,-1.45 0.05,-0.15 0.35,-0.5 q 0.6,-1.05 0.3,-2.25 -0.3,-1.25 -1.2,-1.9 -0.75,-0.55 -1.95,-0.7 h -0.2 l -1.95,-0.05 -12.3,0.8 -17.5,1.95 -13.3,2.85 -5.5,1.25 M 8.3,-32 3,-31.45 l -5.3,0.9 -9.5,1.75 3.6,2.55 q 3.7,2.75 5.65,3.7 l 2.1,1 0.4,0.25 10.4,-11 -2.05,0.3 m -1.25,15.25 1.05,0.6 1.1,-1.95 1.4,-2.5 5.8,-5.75 -1.5,2.35 -5.3,8.7 -0.35,0.55 -0.75,1.2 -1.4,-0.8 -1.45,-0.85 1,-1.1 0.4,-0.45 M 0.45,0.25 -1,-1.7 -2.45,-3.6 -4,-5.75 -3.35,-6.4 -3,-6.75 l 2.6,-2.4 1.65,-1.6 0.1,-0.1 q 0.8,0.45 1.75,0.9 l 1.4,0.75 h 0.05 l 0.5,0.25 0.5,0.3 v 0.05 l -1.7,2.85 -3.4,6 m -0.6,-6.65 -1.35,1.65 1.3,1.4 0.35,-0.6 L 1.2,-5.4 2.15,-7 H 2.2 l -1,-0.85 -1.35,1.45 m -6.95,-9.65 -2.2,-1.2 2.35,4 0.6,-0.75 0.85,-1 1.65,1.1 -3.45,3.6 -1.05,-1.45 -1.2,-1.75 -4.75,-6.65 1.1,0.5 3.65,2 0.15,0.1 2.3,1.5 M 1.9,13 3.25,14.6 5,16.7 5.6,17.35 6.65,18.9 7,19.3 6.15,21.1 5.85,21.65 Q 5.4,22.8 4.85,25.1 L 4.7,25.7 4.2,28.1 2.6,26.35 0.8,24.5 -0.95,22.95 -1.75,22.2 -2.25,21.7 -1.6,20.2 0.6,15.55 1.9,13 m -0.5,4.65 -1.5,3.35 2.85,2.05 0.1,0.1 0.1,-1.35 q 0.15,-2 0.6,-3.25 l -1.65,-1.7 -0.5,0.8"
         fill="#792424"
         fill-rule="evenodd"
         stroke="none"
         id="path2" />
    </g>
    <g
       id="sprite1"
       transform="translate(17.4,15.85)">
      <use
         ffdec:characterId="31"
         height="57.200001"
         transform="matrix(0.5366,0,0,0.5366,-16.6582,-14.546)"
         width="70.75"
         xlink:href="#sprite2"
         id="use2" />
    </g>
    <g
       id="sprite2"
       transform="translate(-8.65,-10.35)">
      <use
         ffdec:characterId="30"
         height="57.200001"
         transform="translate(8.65,10.35)"
         width="70.75"
         xlink:href="#shape1"
         id="use3" />
    </g>
    <g
       id="shape1"
       transform="translate(-8.65,-10.35)">
      <path
         d="m 14.8,41.7 q 0.65,-1.75 2.65,-2.5 1.8,-0.8 3.7,-0.25 1.15,0.45 2.25,1.2 l 0.9,0.4 q 1.65,0.9 2.85,2.5 L 37.8,30.1 q 2.35,-2.8 3.75,-3.95 1.5,-1.15 4.25,-2.4 18.2,-8.85 27.65,-12.6 2.15,-0.8 3.25,-0.8 h 0.8 l 1.9,2.4 -0.2,0.8 q -0.2,1.1 -1.55,3 -5.85,8.25 -18.85,23.8 -1.85,2.35 -3.35,3.5 -1.4,1.15 -4.75,2.75 l -15.15,7.15 q 1.2,1.6 1.75,3.4 l 0.2,1 0.55,2.5 q 0.1,1.95 -1.1,3.55 -1.2,1.65 -3.05,1.9 l -1.3,0.05 q -1.65,0.2 -3.45,-0.65 -1.85,-0.9 -3,-2.6 L 25,60.95 23.8,62.1 q -2.6,2.85 -4.3,3.95 -2.85,1.8 -5.5,1.45 l -1.65,-0.5 -1.2,-0.7 -0.2,-0.2 q -1,-0.85 -1.6,-1.9 L 9.25,64 9.15,63.8 8.75,62.4 q -0.2,-0.8 -0.05,-1.7 0.25,-2.65 2.7,-5.05 1.5,-1.3 4.9,-3.15 L 17.7,51.55 16.05,50 q -1.35,-1.5 -1.8,-3.6 -0.4,-1.85 0.25,-3.45 l 0.3,-1.25"
         fill="#000000"
         fill-opacity="0.372549"
         fill-rule="evenodd"
         stroke="none"
         id="path3" />
    </g>
  </defs>
</svg>
