<?xml version="1.0" encoding="UTF-8" standalone="no"?>
<svg
   ffdec:objectType="frame"
   height="49.549999"
   width="74.420334"
   version="1.1"
   id="svg6"
   sodipodi:docname="ITEM Clown Makeup.svg"
   xmlns:inkscape="http://www.inkscape.org/namespaces/inkscape"
   xmlns:sodipodi="http://sodipodi.sourceforge.net/DTD/sodipodi-0.dtd"
   xmlns:xlink="http://www.w3.org/1999/xlink"
   xmlns="http://www.w3.org/2000/svg"
   xmlns:svg="http://www.w3.org/2000/svg"
   xmlns:ffdec="https://www.free-decompiler.com/flash">
  <sodipodi:namedview
     id="namedview6"
     pagecolor="#ffffff"
     bordercolor="#000000"
     borderopacity="0.25"
     inkscape:showpageshadow="2"
     inkscape:pageopacity="0.0"
     inkscape:pagecheckerboard="0"
     inkscape:deskcolor="#d1d1d1"
     fit-margin-top="5"
     fit-margin-left="5"
     fit-margin-right="5"
     fit-margin-bottom="5" />
  <g
     transform="translate(40.572059,27.95)"
     id="g1">
    <use
       ffdec:characterId="17"
       height="119.15"
       id="rarity"
       transform="translate(-58.5,-60.65)"
       width="119.15"
       xlink:href="#sprite0" />
    <use
       ffdec:characterId="1078"
       height="49.700001"
       transform="translate(-40.55,-28.05)"
       width="74.400002"
       xlink:href="#shape0"
       id="use1" />
  </g>
  <defs
     id="defs6">
    <g
       id="shape0"
       transform="translate(87.35,29.4)">
      <path
         d="m -27.5,-15.55 q 4,0.7 6.2,2 l 0.65,0.05 q 1.15,0.3 2.65,2 3.25,3.65 4.2,6.55 0.45,1.5 0.6,3 0.6,4.65 -0.25,9.5 -0.4,1.9 -0.9,2.85 -0.8,1.4 -2.95,2.8 -4.7,3.25 -10.25,4.85 -3.4,1 -7.75,1.5 l -7.9,0.6 -6.55,0.1 -5.9,-0.95 -5.8,-1.85 q -5.3,-2 -7.75,-4.1 -1.35,-1.15 -1.9,-2.35 -0.6,-1.3 -0.4,-3.95 l 0.05,-0.75 -0.95,0.05 q -6.35,0 -10.35,-2.8 -2.3,-1.65 -3.55,-4.1 -1.35,-2.6 -1,-5.2 0.45,-3.4 3.85,-7.1 3.8,-4.15 8.9,-6.85 5.1,-2.65 10.7,-3.5 l 4.95,-0.6 q 6.2,-0.8 11.45,-2.95 l 3.85,-1.55 q 2.25,-0.8 4,-1 l 4.15,0.45 q 2.1,0.8 3.15,2.5 1.2,2.05 0.6,5.1 -0.4,2.1 -1.6,3.9 l -0.7,0.9 6.5,0.9 m -41.6,9.4 0.8,-1.3 0.15,-0.1 1.25,-1.5 q 4.7,-4.75 14.35,-6.6 l 6.15,-0.85 0.4,-0.3 q 3.65,-2.15 5,-3.55 2.25,-2.1 3.4,-5 l 0.15,-0.35 h -0.3 q -1.6,-0.1 -4,0.8 l -4.35,1.75 q -2.7,1.15 -4.35,1.65 -2.8,0.9 -8.45,1.7 -5.75,0.85 -8.45,1.7 -4.75,1.5 -8.6,4.4 -2.3,1.75 -4.3,3.95 -2.3,2.55 -2.45,4.85 l 2.45,0.45 1.65,0.2 0.95,0.1 1.95,0.05 1.4,-0.2 q 3.3,-0.7 4.9,-1.45 l 0.15,-0.05 0.15,-0.35 m -9,4.55 -4.05,-0.75 q 0.8,1.5 2.7,2.65 l 0.65,0.4 q 3,1.65 6.4,1.4 l 1.35,-0.05 0.9,-4.7 -1.95,0.5 -3.05,0.6 -2.8,-0.05 h -0.15 m 41.8,-10.8 -9.05,-0.05 -3.3,0.1 -3.85,0.8 q -4.05,1.15 -7.25,2.8 -3.95,1.95 -5.25,4.35 l 1.55,0.75 0.5,-1.15 2.1,-1.85 q 2.35,-1.55 5.35,-2.75 2.65,-1.05 5.7,-1.7 l 11.3,-0.95 8.95,0.4 -6.75,-0.75 m 9,8.3 q 3.25,-0.85 4.85,-2.05 0.7,-0.5 0.9,-1.15 l 0.05,-0.25 -1.35,-0.2 q -5.75,-1.85 -15.7,-1.5 l -9.5,1.05 q -5.15,1 -8.95,3.15 -1.95,1.2 -2.65,2.25 17.05,2.75 32.35,-1.3 m -10.35,-13.45 q 2,-1.7 2.7,-4.3 0.4,-1.7 -0.2,-2.7 l -0.05,0.05 -0.3,0.85 -0.45,0.85 q -1.3,2.1 -2.1,3.05 -1.5,1.8 -3.4,3 l 2.85,0.05 0.95,-0.85 m 20.55,15.5 -0.1,-0.35 -0.8,-2.5 q -0.95,1.6 -3,2.85 -2.4,1.45 -6.5,2.35 -15.45,3.6 -32.15,1.35 L -64.15,0.8 -66.4,0 l -0.4,3.15 -0.25,3.8 q -0.1,1.35 0.25,2.1 0.45,0.85 2.1,1.75 7.05,3.65 12.5,4.65 l 10.1,0.45 q 10.05,-0.35 16.1,-2.55 2.95,-1.05 5.95,-2.95 1.6,-0.95 2.2,-2 0.5,-0.8 0.8,-2.45 0.7,-4.4 -0.05,-8"
         fill="#000000"
         fill-rule="evenodd"
         stroke="none"
         id="path1" />
      <path
         d="m -72.05,-14.5 q 0.5,-0.95 1.4,-1.3 l 1.45,-0.1 q 1.1,0.15 1.9,0.95 0.75,0.9 0.6,2 -0.05,0.75 -0.65,1.3 -0.5,0.55 -1.25,0.75 -0.9,0.3 -1.9,0 -0.95,-0.35 -1.45,-1.15 -0.65,-1.2 -0.1,-2.45 m -3.9,0.8 q 0.9,0.4 1.4,1.55 l 0.3,1.3 0.9,-0.1 q 2.55,0.1 3.85,1.9 l 0.4,0.75 0.05,0.8 -0.05,1.35 -0.15,0.35 -0.15,0.05 Q -71,-5 -74.3,-4.3 l -1.4,0.2 -1.95,-0.05 -0.95,-0.1 -1.65,-0.2 -2.45,-0.45 q 0.15,-2.3 2.45,-4.85 2,-2.2 4.3,-3.95 M -78.8,0.7 V 0 l 0.2,-0.85 0.5,-0.75 h 0.15 l 2.8,0.05 3.05,-0.6 1.95,-0.5 -0.9,4.7 -1.35,0.05 q -3.4,0.25 -6.4,-1.4 m 51.5,-4.8 q -15.3,4.05 -32.35,1.3 0.7,-1.05 2.65,-2.25 3.8,-2.15 8.95,-3.15 l 9.5,-1.05 q 9.95,-0.35 15.7,1.5 l 1.35,0.2 -0.05,0.25 q -0.2,0.65 -0.9,1.15 -1.6,1.2 -4.85,2.05"
         fill="#ffffff"
         fill-rule="evenodd"
         stroke="none"
         id="path2" />
      <path
         d="m -36.3,-12.4 6.75,0.75 -8.95,-0.4 -11.3,0.95 q -3.05,0.65 -5.7,1.7 -3,1.2 -5.35,2.75 l -2.1,1.85 -0.5,1.15 L -65,-4.4 q 1.3,-2.4 5.25,-4.35 3.2,-1.65 7.25,-2.8 l 3.85,-0.8 3.3,-0.1 9.05,0.05 M -66.8,3.15 -66.4,0 l 2.25,0.8 4.5,0.85 q 16.7,2.25 32.15,-1.35 4.1,-0.9 6.5,-2.35 2.05,-1.25 3,-2.85 l 0.8,2.5 0.1,0.35 q -2.05,2.2 -5.4,3.8 -2.45,1.2 -6.95,2.6 -6,1.8 -9.6,2.2 l -5.1,0.25 Q -56,7 -64.05,4.4 -65.85,3.85 -66.8,3.15"
         fill="#1a1a1a"
         fill-rule="evenodd"
         stroke="none"
         id="path3" />
      <path
         d="m -66.8,3.15 q 0.95,0.7 2.75,1.25 8.05,2.6 19.9,2.4 l 5.1,-0.25 q 3.6,-0.4 9.6,-2.2 4.5,-1.4 6.95,-2.6 3.35,-1.6 5.4,-3.8 0.75,3.6 0.05,8 -0.3,1.65 -0.8,2.45 -0.6,1.05 -2.2,2 -3,1.9 -5.95,2.95 -6.05,2.2 -16.1,2.55 l -10.1,-0.45 q -5.45,-1 -12.5,-4.65 -1.65,-0.9 -2.1,-1.75 -0.35,-0.75 -0.25,-2.1 l 0.25,-3.8"
         fill="#101010"
         fill-rule="evenodd"
         stroke="none"
         id="path4" />
      <path
         d="m -69.1,-6.15 0.05,-1.35 -0.05,-0.8 -0.4,-0.75 q -1.3,-1.8 -3.85,-1.9 l -0.9,0.1 -0.3,-1.3 q -0.5,-1.15 -1.4,-1.55 3.85,-2.9 8.6,-4.4 2.7,-0.85 8.45,-1.7 5.65,-0.8 8.45,-1.7 1.65,-0.5 4.35,-1.65 l 4.35,-1.75 q 2.4,-0.9 4,-0.8 h 0.3 l -0.15,0.35 q -1.15,2.9 -3.4,5 -1.35,1.4 -5,3.55 l -0.4,0.3 -6.15,0.85 q -9.65,1.85 -14.35,6.6 l -1.25,1.5 -0.15,0.1 -0.8,1.3 m -2.95,-8.35 q -0.55,1.25 0.1,2.45 0.5,0.8 1.45,1.15 1,0.3 1.9,0 0.75,-0.2 1.25,-0.75 0.6,-0.55 0.65,-1.3 0.15,-1.1 -0.6,-2 -0.8,-0.8 -1.9,-0.95 l -1.45,0.1 q -0.9,0.35 -1.4,1.3 m -6.05,12.9 -0.5,0.75 -0.2,0.85 v 0.7 l -0.65,-0.4 q -1.9,-1.15 -2.7,-2.65 l 4.05,0.75 m 40.45,-15.95 -0.95,0.85 -2.85,-0.05 q 1.9,-1.2 3.4,-3 0.8,-0.95 2.1,-3.05 l 0.45,-0.85 0.3,-0.85 0.05,-0.05 q 0.6,1 0.2,2.7 -0.7,2.6 -2.7,4.3"
         fill="#ada595"
         fill-rule="evenodd"
         stroke="none"
         id="path5" />
    </g>
    <g
       id="sprite1"
       transform="translate(17.4,15.85)">
      <use
         ffdec:characterId="31"
         height="57.200001"
         transform="matrix(0.5366,0,0,0.5366,-16.6582,-14.546)"
         width="70.75"
         xlink:href="#sprite2"
         id="use5" />
    </g>
    <g
       id="sprite2"
       transform="translate(-8.65,-10.35)">
      <use
         ffdec:characterId="30"
         height="57.200001"
         transform="translate(8.65,10.35)"
         width="70.75"
         xlink:href="#shape1"
         id="use6" />
    </g>
    <g
       id="shape1"
       transform="translate(-8.65,-10.35)">
      <path
         d="m 14.8,41.7 q 0.65,-1.75 2.65,-2.5 1.8,-0.8 3.7,-0.25 1.15,0.45 2.25,1.2 l 0.9,0.4 q 1.65,0.9 2.85,2.5 L 37.8,30.1 q 2.35,-2.8 3.75,-3.95 1.5,-1.15 4.25,-2.4 18.2,-8.85 27.65,-12.6 2.15,-0.8 3.25,-0.8 h 0.8 l 1.9,2.4 -0.2,0.8 q -0.2,1.1 -1.55,3 -5.85,8.25 -18.85,23.8 -1.85,2.35 -3.35,3.5 -1.4,1.15 -4.75,2.75 l -15.15,7.15 q 1.2,1.6 1.75,3.4 l 0.2,1 0.55,2.5 q 0.1,1.95 -1.1,3.55 -1.2,1.65 -3.05,1.9 l -1.3,0.05 q -1.65,0.2 -3.45,-0.65 -1.85,-0.9 -3,-2.6 L 25,60.95 23.8,62.1 q -2.6,2.85 -4.3,3.95 -2.85,1.8 -5.5,1.45 l -1.65,-0.5 -1.2,-0.7 -0.2,-0.2 q -1,-0.85 -1.6,-1.9 L 9.25,64 9.15,63.8 8.75,62.4 q -0.2,-0.8 -0.05,-1.7 0.25,-2.65 2.7,-5.05 1.5,-1.3 4.9,-3.15 L 17.7,51.55 16.05,50 q -1.35,-1.5 -1.8,-3.6 -0.4,-1.85 0.25,-3.45 l 0.3,-1.25"
         fill="#000000"
         fill-opacity="0.372549"
         fill-rule="evenodd"
         stroke="none"
         id="path6" />
    </g>
  </defs>
</svg>
