<?xml version="1.0" encoding="UTF-8" standalone="no"?>
<svg
   ffdec:objectType="frame"
   height="80.29174"
   width="75.555222"
   version="1.1"
   id="svg5"
   xmlns:xlink="http://www.w3.org/1999/xlink"
   xmlns="http://www.w3.org/2000/svg"
   xmlns:svg="http://www.w3.org/2000/svg"
   xmlns:ffdec="https://www.free-decompiler.com/flash">
  <g
     transform="translate(33.53375,39.063235)"
     id="g1">
    <use
       ffdec:characterId="17"
       height="119.15"
       id="rarity"
       transform="translate(-58.5,-60.65)"
       width="119.15"
       xlink:href="#sprite0" />
    <use
       ffdec:characterId="517"
       height="80.300003"
       transform="translate(-33.55,-39.05)"
       width="75.550003"
       xlink:href="#shape0"
       id="use1" />
  </g>
  <defs
     id="defs5">
    <g
       id="shape0"
       transform="translate(33.15,38.25)">
      <path
         d="m 17.7,-5.9 3.9,-1.25 -1.4,-6.5 Q 19.05,-16.4 18.05,-19.2 17.7,-20.15 17.75,-21.15 15.5,-27.8 10.15,-32 l -1.35,-0.35 -0.75,1.05 -0.45,0.45 -0.4,2.5 q -1.75,11.4 0.3,22.85 l 1.05,7.95 q 1.6,11 8.6,19.55 l 0.1,0.15 q 1.4,1.75 3,3 l 0.9,-3.25 0.7,-1.25 Q 24.15,9.8 22.65,-1.1 l -4.1,0.75 -4.5,0.75 q -1.4,0.25 -1.7,-1.1 -0.6,-3.2 2.85,-4.4 l 2.5,-0.8 M 8.45,-38.25 q 2.35,-0.15 4.2,1.4 l 1.15,1.1 q 3.85,2.1 5.95,5.95 1.45,2.55 2.15,5.35 3.05,7.7 4.8,15.85 L 30,-9.45 q 0.8,-2.2 2.55,-3.65 1.75,-1.45 3.85,-1.7 7.3,0.85 5.75,7.85 -1.2,5.75 -7.45,4.65 -1.25,-0.25 -2.45,-0.85 l -4.4,1 q 0.4,3.25 0.3,6.65 -0.3,7.45 -1.3,14.6 L 26.8,21 26.5,23.8 q -0.05,0.7 -0.5,1.3 -0.55,4.35 -3.45,5.5 -2.15,3.2 -6.75,2.45 -6.75,-1.15 -12.85,-4.2 -3.2,-1.6 -5.8,-3.95 -1.05,1.9 -4,2.8 l -3.55,0.95 q 3.8,6.4 -1.05,11.4 -0.7,0.7 -1.7,1.05 -8.65,3.1 -13.65,-4.15 -2,-2.85 -3.6,-5.95 -4.05,-7.8 -2.1,-16.95 0.9,-4.4 4.45,-7.65 l 15.8,-14.2 0.45,-2.85 1.65,-5.15 Q -7,-25.45 0.3,-32.65 q 2,-1.95 4.35,-3.3 1.55,-1.4 3.8,-2.3 M 3.15,5.05 Q 2.5,3.45 2.35,1.65 L 2.05,-3.5 2,-3.95 1.75,-4.6 1.55,-5.85 1.5,-6.95 Q 0.4,-16.2 0.7,-25.6 l -1.05,1.55 q -5.05,7.75 -6.4,16.8 l -0.8,5.55 v 3 l 0.05,2.35 1.2,4.25 0.75,2.8 q 4.2,11.25 15.4,14.85 1.85,0.6 3.55,1.5 h 0.2 Q 4.95,17.7 3.15,5.05 m -10.1,15.1 q -6.4,-9.5 -5.85,-20.5 l -0.75,0.85 -0.4,0.65 -0.2,0.65 -0.15,0.2 -0.25,0.45 v 9 q 0.05,1.9 0.75,3.65 1.3,3.85 4,6.95 1.6,-0.95 3.3,-1.25 L -6.95,20.15 M -17.45,4.4 q -5.3,4.75 -9.65,10.35 -1.95,9.9 4.55,17.5 1.65,1.95 3.75,3.35 1.05,0.75 2.35,0.6 l 2.15,-0.65 q 0.45,-4.45 -3,-7.95 -1.55,-1.6 -0.15,-3.3 1.15,-1.4 3,-1.45 h 1.9 l -1.95,-2.5 -0.5,-0.7 -1,-3.45 q -0.3,-0.8 -0.85,-1.45 -0.5,-4.6 -0.05,-9.25 l 0.15,-1.7 -0.7,0.6 m -4.2,10.55 q 5,0.9 2.7,5.2 -0.85,1.6 -2.65,1.3 -4.35,-0.75 -2.75,-4.6 0.8,-1.85 2.7,-1.9"
         fill="#000000"
         fill-rule="evenodd"
         stroke="none"
         id="path1" />
      <path
         d="m 7.2,-28.35 0.4,-2.5 0.45,-0.45 0.75,-1.05 1.35,0.35 q 5.35,4.2 7.6,10.85 -0.05,1 0.3,1.95 1,2.8 2.15,5.55 l 1.4,6.5 -3.9,1.25 -1.15,-5.2 Q 14.9,-17.7 11,-23.3 l -3.8,-5.05 m 11.35,28 4.1,-0.75 q 1.5,10.9 -0.8,21.75 l -0.7,1.25 -0.9,3.25 q -1.6,-1.25 -3,-3 l -0.1,-0.15 1.2,-3 0.2,-4.05 q 0,-2.25 0.55,-4.3 0.1,-5.55 -0.55,-11 m -15.4,5.4 q 1.8,12.65 10.45,22 H 13.4 Q 11.7,26.15 9.85,25.55 -1.35,21.95 -5.55,10.7 L -6.3,7.9 -7.5,3.65 -7.55,1.3 v -3 l 0.8,-5.55 q 1.35,-9.05 6.4,-16.8 L 0.7,-25.6 q -0.3,9.4 0.8,18.65 l 0.05,1.1 0.2,1.25 0.25,0.65 0.05,0.45 0.3,5.15 q 0.15,1.8 0.8,3.4 m -10.1,15.1 0.45,0.65 q -1.7,0.3 -3.3,1.25 -2.7,-3.1 -4,-6.95 -0.7,-1.75 -0.75,-3.65 v -9 L -14.3,2 l 0.15,-0.2 0.2,-0.65 0.4,-0.65 0.75,-0.85 q -0.55,11 5.85,20.5"
         fill="#9d9d9d"
         fill-rule="evenodd"
         stroke="none"
         id="path2" />
      <path
         d="m 7.2,-28.35 3.8,5.05 q 3.9,5.6 5.55,12.2 l 1.15,5.2 -2.5,0.8 q -3.45,1.2 -2.85,4.4 0.3,1.35 1.7,1.1 l 4.5,-0.75 q 0.65,5.45 0.55,11 -0.55,2.05 -0.55,4.3 l -0.2,4.05 -1.2,3 q -7,-8.55 -8.6,-19.55 L 7.5,-5.5 Q 5.45,-16.95 7.2,-28.35"
         fill="#5f5f5f"
         fill-rule="evenodd"
         stroke="none"
         id="path3" />
      <path
         d="m -21.65,14.95 q -1.9,0.05 -2.7,1.9 -1.6,3.85 2.75,4.6 1.8,0.3 2.65,-1.3 2.3,-4.3 -2.7,-5.2 m 4.2,-10.55 0.7,-0.6 -0.15,1.7 q -0.45,4.65 0.05,9.25 0.55,0.65 0.85,1.45 l 1,3.45 0.5,0.7 1.95,2.5 h -1.9 q -1.85,0.05 -3,1.45 -1.4,1.7 0.15,3.3 3.45,3.5 3,7.95 l -2.15,0.65 q -1.3,0.15 -2.35,-0.6 -2.1,-1.4 -3.75,-3.35 -6.5,-7.6 -4.55,-17.5 4.35,-5.6 9.65,-10.35"
         fill="#768184"
         fill-rule="evenodd"
         stroke="none"
         id="path4" />
    </g>
    <g
       id="sprite1"
       transform="translate(17.4,15.85)">
      <use
         ffdec:characterId="31"
         height="57.200001"
         transform="matrix(0.5366,0,0,0.5366,-16.6582,-14.546)"
         width="70.75"
         xlink:href="#sprite2"
         id="use4" />
    </g>
    <g
       id="sprite2"
       transform="translate(-8.65,-10.35)">
      <use
         ffdec:characterId="30"
         height="57.200001"
         transform="translate(8.65,10.35)"
         width="70.75"
         xlink:href="#shape1"
         id="use5" />
    </g>
    <g
       id="shape1"
       transform="translate(-8.65,-10.35)">
      <path
         d="m 14.8,41.7 q 0.65,-1.75 2.65,-2.5 1.8,-0.8 3.7,-0.25 1.15,0.45 2.25,1.2 l 0.9,0.4 q 1.65,0.9 2.85,2.5 L 37.8,30.1 q 2.35,-2.8 3.75,-3.95 1.5,-1.15 4.25,-2.4 18.2,-8.85 27.65,-12.6 2.15,-0.8 3.25,-0.8 h 0.8 l 1.9,2.4 -0.2,0.8 q -0.2,1.1 -1.55,3 -5.85,8.25 -18.85,23.8 -1.85,2.35 -3.35,3.5 -1.4,1.15 -4.75,2.75 l -15.15,7.15 q 1.2,1.6 1.75,3.4 l 0.2,1 0.55,2.5 q 0.1,1.95 -1.1,3.55 -1.2,1.65 -3.05,1.9 l -1.3,0.05 q -1.65,0.2 -3.45,-0.65 -1.85,-0.9 -3,-2.6 L 25,60.95 23.8,62.1 q -2.6,2.85 -4.3,3.95 -2.85,1.8 -5.5,1.45 l -1.65,-0.5 -1.2,-0.7 -0.2,-0.2 q -1,-0.85 -1.6,-1.9 L 9.25,64 9.15,63.8 8.75,62.4 q -0.2,-0.8 -0.05,-1.7 0.25,-2.65 2.7,-5.05 1.5,-1.3 4.9,-3.15 L 17.7,51.55 16.05,50 q -1.35,-1.5 -1.8,-3.6 -0.4,-1.85 0.25,-3.45 l 0.3,-1.25"
         fill="#000000"
         fill-opacity="0.372549"
         fill-rule="evenodd"
         stroke="none"
         id="path5" />
    </g>
  </defs>
</svg>
