<?xml version="1.0" encoding="UTF-8" standalone="no"?>
<svg
   ffdec:objectType="frame"
   height="92.849998"
   width="82.715385"
   version="1.1"
   id="svg5"
   xmlns:xlink="http://www.w3.org/1999/xlink"
   xmlns="http://www.w3.org/2000/svg"
   xmlns:svg="http://www.w3.org/2000/svg"
   xmlns:ffdec="https://www.free-decompiler.com/flash">
  <g
     transform="translate(39.615385,45.05)"
     id="g1">
    <use
       ffdec:characterId="17"
       height="119.15"
       id="rarity"
       transform="translate(-58.5,-60.65)"
       width="119.15"
       xlink:href="#sprite0" />
    <use
       ffdec:characterId="1059"
       height="92.900002"
       transform="translate(-39.6,-45.1)"
       width="82.699997"
       xlink:href="#shape0"
       id="use1" />
  </g>
  <defs
     id="defs5">
    <g
       id="shape0"
       transform="translate(86.4,46.45)">
      <path
         d="m -35.8,45.75 -6,-1.15 -3.45,-0.7 h -4.15 l -4.9,-0.35 -4.95,-0.6 -4.65,-0.3 L -68.55,42.5 -75,42 q -4.85,-0.45 -7.6,-1.55 -2.6,-0.95 -3.35,-2.6 -0.55,-1.1 -0.45,-3.35 l 2.8,-62.45 q 0.3,-8.1 -0.1,-11.7 -0.3,-2.1 -0.2,-3.25 0.2,-1.9 1.45,-2.8 0.95,-0.7 3.2,-0.7 l 41.85,1.75 5.4,0.6 9.9,2.35 10.2,3 q 2.4,0.8 3.05,1.85 l 0.4,0.1 1.1,0.8 q 0.55,0.6 1.05,2.5 l 2.15,8.3 q 0.45,1.7 0.45,2.9 -0.05,1.35 -1.2,3.95 -3.05,7.05 -6.2,16.1 l -5.4,16.45 -6.85,22.1 -1.6,5.55 q -0.7,2.4 -1.5,3.2 -0.95,0.95 -2.55,1.2 l -2.95,0.15 q -2,-0.05 -3.1,-0.65 l -0.75,-0.05 m -6.55,-78.3 0.2,-0.35 0.6,-0.6 q 0.45,-0.5 1.15,-0.6 l 1.6,0.2 0.35,0.25 1,1.05 2.25,3 0.6,0.8 2.8,4.2 1.05,-2.35 2.05,-4.65 0.65,-1.5 1.5,-2.95 -2.25,-0.55 -8.05,-1.4 -7.65,-0.65 -3.25,-0.2 -7.2,-0.4 Q -69.15,-40 -77,-39.85 l 0.1,9.4 -0.15,4.7 -0.2,5.3 -0.1,1.4 -0.05,1.5 -0.6,9.95 2.75,-0.55 1.45,-0.35 0.8,-0.7 2.75,-2.85 0.4,-0.35 -0.2,-1.7 0.2,-5.1 0.1,-1 0.1,-2.8 0.1,-2.2 -0.2,-1.05 -0.55,-0.85 -0.8,-0.75 -1.85,-1.55 q -1.3,-0.95 -1.3,-1.7 l 0.2,-0.55 0.25,-0.25 0.85,-0.25 0.15,0.05 0.8,0.55 0.8,0.5 0.6,0.35 1.35,0.8 1.15,0.9 0.65,0.5 1.3,0.7 q 0.5,0.5 0.6,1.75 l 0.2,1.65 0.15,2.4 -0.05,1.5 -0.05,5.4 0.05,0.25 3.15,-0.95 6.85,-1.9 q 7.25,-1.9 11.2,-3.85 l 0.6,-5.5 0.5,-3.45 0.6,-2.05 M -78.5,1.75 V 2.1 l 5.25,-0.75 0.7,-0.2 0.6,-1 2.55,-6.7 -0.75,1 -1,1.3 q -0.55,0.35 -1.5,0.55 l -4.6,1.15 -1,0.15 -0.25,4.15 m 11.15,-1.3 -0.9,2.15 -0.15,0.35 -1.2,1.55 -2.15,0.6 h -0.2 l -1.1,0.1 -4.9,0.55 -0.7,0.1 -0.1,2.05 -0.05,1.8 -0.1,3.15 -0.05,1.3 -0.65,19.6 0.05,0.3 0.1,0.45 q 0.25,0.4 1.2,0.4 l 5.45,0.15 7.6,0.65 1,0.1 0.95,-0.55 q 2.7,-1.75 8.1,-4.1 5.1,-2.3 7.5,-3.75 l 0.15,-0.1 0.3,-1.95 0.55,-3.25 0.4,-3.3 0.1,-0.9 0.2,-1.35 0.6,-3.5 -6.95,3.5 -9.7,5.2 -0.15,0.1 0.2,0.45 0.2,1.6 0.15,0.55 0.25,0.6 0.15,0.35 0.2,0.8 q 0.1,0.7 -0.25,1.4 -0.35,0.75 -1,1.1 l -1.95,0.5 -6.25,0.8 -3,0.35 -1.85,0.2 q -1.1,0 -1.6,-0.8 -0.6,-0.75 -0.05,-1.65 0.5,-0.6 1.4,-0.95 3.05,-1.25 8.95,-2.2 l -0.7,-2.2 q -0.7,-2 -0.15,-3 l 0.05,-0.1 0.8,-1.85 6.95,-11.25 q 1.8,-2.65 4.55,-6.05 l 1.9,-2.4 -1.85,-0.9 -4.9,-2.4 -4.4,-2.1 -1.75,4.4 -1.25,3.35 m 45.85,-6.65 0.75,-2.7 -0.4,-1.7 -0.4,-3.5 q -1.25,-9.5 -2.15,-13.5 l -0.75,-3.35 -0.05,-0.2 -4.05,10.1 q -0.45,1.25 -1.05,1.75 l -0.6,0.4 q -0.7,0.85 -1.95,0.45 -0.95,-0.35 -1.75,-1.3 l -2.4,-3.3 -2.75,-3.55 -0.45,4.9 q -0.2,2.25 -0.75,3.2 -0.8,1.3 -3.7,2.55 -7.55,3.1 -15.85,4.95 l 9.05,4.2 q 1.9,0.9 2.45,1.8 0.75,1.15 0.15,2.4 0,0.9 -0.8,2.15 l -4.8,7.1 q -3,4.35 -4.55,7.3 6.35,-3.7 12.6,-6.55 1.85,-0.9 3,-0.65 1.3,0.25 1.8,1.5 l 0.2,0.55 q 0.35,0.4 0.45,0.95 0.15,0.75 -0.15,2.25 -0.95,5.1 -1.2,10.25 L -38.3,21 q 0.9,-0.4 1.25,-0.75 l 0.45,-0.9 q 1.1,-3 1.7,-5.4 0.65,-2.75 1.8,-3.5 l 1.9,-0.6 3.2,-0.6 1.95,-0.15 q 2.3,-7.15 4.55,-15.3 m 1.55,-25.25 q 1.2,4.1 1.7,6.45 l 0.65,3.7 2.35,-9.85 0.5,-2.1 -2.4,-0.55 -2.45,-0.35 -1.25,-0.25 0.85,2.85 0.05,0.1 m 10.75,9.05 q 0.15,-0.8 -0.2,-2.8 l -0.5,-2.65 q -2.8,11.8 -5.25,20.9 2.9,-7.8 5.2,-13.1 0.65,-1.7 0.75,-2.35 M -36.85,-1.35 -37.6,-2.1 q -0.25,-0.5 -0.15,-1.05 l 0.7,-1.25 9.5,-11.6 1.35,-1.3 1.85,-0.05 q 0.55,0.5 0.65,1.2 v 1.4 l -0.5,3.05 q -0.45,2.85 -1.85,8.45 l -0.6,1.3 q -0.55,0.5 -1.6,0.4 l -1.7,-0.25 -1.55,0.2 -2.45,0.1 -1.5,0.3 -1.4,-0.15 m 8.65,-7.6 0.25,-1.15 0.05,-0.2 -0.55,0.45 -1.85,2.3 q -1.1,1.25 -2.75,2.4 l 2.5,-0.1 1.45,-0.1 0.9,-3.6 m -4.4,36.4 0.85,-2.25 1.05,-2.75 0.75,-2.1 2.1,-5.75 -0.75,0.1 q -0.75,0.1 -1.15,0.5 l -0.45,0.9 -1.75,5.3 -0.5,1.2 -0.85,1.45 -0.55,0.5 -1.9,1 q -5.05,2.05 -6.9,3.2 l -0.85,0.55 0.3,1.8 0.25,1.2 1.6,6.55 4.55,1 q 1.1,-4.2 3.2,-9.85 l 1,-2.55 m 3.55,6.5 q -1.3,3.55 -2,6.55 l 0.25,0.05 2.35,-8.15 -0.6,1.55 m -16.3,-0.75 -0.7,-2.7 -1.25,0.6 -0.6,0.3 -3.7,1.6 -4.45,1.7 -3.65,1.6 5.3,0.55 2.85,0.3 7.5,1.2 -1.3,-5.15"
         fill="#000000"
         fill-rule="evenodd"
         stroke="none"
         id="path1" />
      <path
         d="m -44.5,-38.65 -0.85,1.05 q -0.55,0.55 -2.55,1.3 l -18.65,6.75 1.9,1 q 1.25,0.6 1.55,1.3 l 0.2,1.55 0.1,0.45 6.9,-2.5 4.7,-1.95 8.85,-2.85 -0.6,2.05 -0.5,3.45 -19.1,5.75 0.45,5.5 -3.15,0.95 -0.05,-0.25 0.05,-5.4 0.05,-1.5 -0.15,-2.4 -0.2,-1.65 q -0.1,-1.25 -0.6,-1.75 l -1.3,-0.7 -0.65,-0.5 -1.15,-0.9 -1.35,-0.8 -0.6,-0.35 -0.8,-0.5 -0.8,-0.55 0.1,-0.05 q 8.25,-3 14.65,-5.8 l 3.1,-1.3 7.2,0.4 3.25,0.2 m 6.05,5 q 6.15,-1.8 8.9,-2.75 l 0.75,-0.2 2.25,0.55 -1.5,2.95 -0.65,1.5 -6.5,2 -2.25,-3 -1,-1.05 m -35.6,2 -0.2,0.55 q 0,0.75 1.3,1.7 l 1.85,1.55 -4.15,1.55 -1.8,0.55 0.15,-4.7 2.85,-1.2 m 4.4,8.65 -0.1,2.8 -0.1,1 -2.6,0.7 -3.9,0.9 -1.05,0.05 0.05,-1.5 0.1,-1.4 0.3,-0.15 7.3,-2.4 m 9.7,17.8 -0.05,0.5 q -0.15,1 -0.85,1.6 l -1.1,0.7 -2.65,1.6 -1.15,0.7 -1.3,0.35 -0.3,0.2 1.25,-3.35 1.75,-4.4 4.4,2.1 M -68.4,2.95 -66,1.8 q 6.75,-3.2 10.95,-4.6 l 1.85,0.9 -1.9,2.4 q -10.85,5.15 -21.25,11.35 l -1.85,0.9 -0.7,0.1 0.1,-3.15 0.05,-1.8 0.1,-2.05 0.7,-0.1 4.9,-0.55 1.1,-0.1 h 0.2 l 2.15,-0.6 1.2,-1.55 m 53.15,-34.1 h -1.25 l -1.95,-0.1 -1.4,-0.15 -0.1,-0.05 -0.05,-0.1 -0.85,-2.85 1.25,0.25 2.45,0.35 2.4,0.55 -0.5,2.1 m -15.3,25.9 -2.5,0.1 q 1.65,-1.15 2.75,-2.4 l 1.85,-2.3 0.55,-0.45 -0.05,0.2 -0.25,1.15 -1.1,2.05 -1.25,1.65 m -12.4,37.55 -0.25,-1.2 -0.3,-1.8 0.85,-0.55 q 1.85,-1.15 6.9,-3.2 l 1.9,-1 0.55,-0.5 0.85,-1.45 0.5,-1.2 1.75,-5.3 0.45,-0.9 q 0.4,-0.4 1.15,-0.5 l 0.75,-0.1 -2.1,5.75 -0.75,2.1 -1.05,2.75 -0.85,2.25 Q -39,30.7 -42.95,32.3 m -36.6,1.75 0.75,-0.85 q 0.75,-0.55 2.75,-1.05 2.35,-0.7 5.6,-2.15 l 6.25,-0.8 1.95,-0.5 q 0.65,-0.35 1,-1.1 0.35,-0.7 0.25,-1.4 l -0.2,-0.8 0.55,-0.25 3.3,-1.3 5.5,-2.6 q 3.45,-1.7 5.6,-2.45 l -0.4,3.3 q -3.95,2 -11.8,5.8 -6.25,3 -14.35,7.15 l -5.45,-0.15 q -0.95,0 -1.2,-0.4 l -0.1,-0.45 m 17.95,-9.6 -0.15,-0.55 -0.2,-1.6 -0.2,-0.45 0.15,-0.1 9.7,-5.2 6.95,-3.5 -0.6,3.5 -1,0.45 q -6.95,3.2 -14.1,7.15 l -0.55,0.3 m 7.2,12.4 -5.3,-0.55 3.65,-1.6 4.45,-1.7 3.7,-1.6 0.6,-0.3 1.25,-0.6 0.7,2.7 -0.2,0.1 h -0.1 l -8.75,3.55"
         fill="#ffffff"
         fill-rule="evenodd"
         stroke="none"
         id="path2" />
      <path
         d="m -42.35,-32.55 -8.85,2.85 -4.7,1.95 -6.9,2.5 -0.1,-0.45 -0.2,-1.55 q -0.3,-0.7 -1.55,-1.3 l -1.9,-1 18.65,-6.75 q 2,-0.75 2.55,-1.3 l 0.85,-1.05 7.65,0.65 8.05,1.4 -0.75,0.2 q -2.75,0.95 -8.9,2.75 l -0.35,-0.25 -1.6,-0.2 q -0.7,0.1 -1.15,0.6 l -0.6,0.6 -0.2,0.35 m -12.6,-6.7 -3.1,1.3 q -6.4,2.8 -14.65,5.8 l -0.1,0.05 -0.15,-0.05 -0.85,0.25 -0.25,0.25 -2.85,1.2 -0.1,-9.4 q 7.85,-0.15 22.05,0.6 m -7.15,23.45 -0.45,-5.5 19.1,-5.75 -0.6,5.5 q -3.95,1.95 -11.2,3.85 l -6.85,1.9 m -14.95,-9.95 1.8,-0.55 4.15,-1.55 0.8,0.75 0.55,0.85 0.2,1.05 -0.1,2.2 -7.3,2.4 -0.3,0.15 0.2,-5.3 m 7.2,6.55 -0.2,5.1 0.2,1.7 -0.4,0.35 -2.75,2.85 -0.8,0.7 -1.45,0.35 -2.75,0.55 0.6,-9.95 1.05,-0.05 3.9,-0.9 2.6,-0.7 m 2.5,19.65 0.3,-0.2 1.3,-0.35 1.15,-0.7 2.65,-1.6 1.1,-0.7 q 0.7,-0.6 0.85,-1.6 l 0.05,-0.5 4.9,2.4 q -4.2,1.4 -10.95,4.6 l -2.4,1.15 0.15,-0.35 0.9,-2.15 m 47.4,-31.9 0.1,0.05 1.4,0.15 1.95,0.1 h 1.25 l -2.35,9.85 -0.65,-3.7 q -0.5,-2.35 -1.7,-6.45 m -15.25,1.85 6.5,-2 -2.05,4.65 -1.05,2.35 -2.8,-4.2 -0.6,-0.8 m -7.75,61.9 Q -39,30.7 -32.6,27.45 l -1,2.55 q -2.1,5.65 -3.2,9.85 l -4.55,-1 -1.6,-6.55 M -55.1,0.5 q -2.75,3.4 -4.55,6.05 l -6.95,11.25 -0.8,1.85 -0.05,0.1 q -0.55,1 0.15,3 l 0.7,2.2 q -5.9,0.95 -8.95,2.2 -0.9,0.35 -1.4,0.95 -0.55,0.9 0.05,1.65 0.5,0.8 1.6,0.8 l 1.85,-0.2 3,-0.35 q -3.25,1.45 -5.6,2.15 -2,0.5 -2.75,1.05 l -0.75,0.85 -0.05,-0.3 0.65,-19.6 0.05,-1.3 0.7,-0.1 1.85,-0.9 Q -65.95,5.65 -55.1,0.5 m -6.1,24.9 -0.15,-0.35 -0.25,-0.6 0.55,-0.3 Q -53.9,20.2 -46.95,17 l 1,-0.45 -0.2,1.35 -0.1,0.9 q -2.15,0.75 -5.6,2.45 l -5.5,2.6 -3.3,1.3 -0.55,0.25 m 14.55,-3.3 -0.55,3.25 -0.3,1.95 -0.15,0.1 q -2.4,1.45 -7.5,3.75 -5.4,2.35 -8.1,4.1 l -0.95,0.55 -1,-0.1 -7.6,-0.65 q 8.1,-4.15 14.35,-7.15 7.85,-3.8 11.8,-5.8 m -7.75,14.75 8.75,-3.55 h 0.1 l 0.2,-0.1 1.3,5.15 -7.5,-1.2 -2.85,-0.3"
         fill="#cfcfcf"
         fill-rule="evenodd"
         stroke="none"
         id="path3" />
      <path
         d="m -9.2,-22.4 q -0.1,0.65 -0.75,2.35 -2.3,5.3 -5.2,13.1 2.45,-9.1 5.25,-20.9 l 0.5,2.65 q 0.35,2 0.2,2.8 m -19.85,56.35 0.6,-1.55 -2.35,8.15 -0.25,-0.05 q 0.7,-3 2,-6.55"
         fill="#333333"
         fill-rule="evenodd"
         stroke="none"
         id="path4" />
    </g>
    <g
       id="sprite1"
       transform="translate(17.4,15.85)">
      <use
         ffdec:characterId="31"
         height="57.200001"
         transform="matrix(0.5366,0,0,0.5366,-16.6582,-14.546)"
         width="70.75"
         xlink:href="#sprite2"
         id="use4" />
    </g>
    <g
       id="sprite2"
       transform="translate(-8.65,-10.35)">
      <use
         ffdec:characterId="30"
         height="57.200001"
         transform="translate(8.65,10.35)"
         width="70.75"
         xlink:href="#shape1"
         id="use5" />
    </g>
    <g
       id="shape1"
       transform="translate(-8.65,-10.35)">
      <path
         d="m 14.8,41.7 q 0.65,-1.75 2.65,-2.5 1.8,-0.8 3.7,-0.25 1.15,0.45 2.25,1.2 l 0.9,0.4 q 1.65,0.9 2.85,2.5 L 37.8,30.1 q 2.35,-2.8 3.75,-3.95 1.5,-1.15 4.25,-2.4 18.2,-8.85 27.65,-12.6 2.15,-0.8 3.25,-0.8 h 0.8 l 1.9,2.4 -0.2,0.8 q -0.2,1.1 -1.55,3 -5.85,8.25 -18.85,23.8 -1.85,2.35 -3.35,3.5 -1.4,1.15 -4.75,2.75 l -15.15,7.15 q 1.2,1.6 1.75,3.4 l 0.2,1 0.55,2.5 q 0.1,1.95 -1.1,3.55 -1.2,1.65 -3.05,1.9 l -1.3,0.05 q -1.65,0.2 -3.45,-0.65 -1.85,-0.9 -3,-2.6 L 25,60.95 23.8,62.1 q -2.6,2.85 -4.3,3.95 -2.85,1.8 -5.5,1.45 l -1.65,-0.5 -1.2,-0.7 -0.2,-0.2 q -1,-0.85 -1.6,-1.9 L 9.25,64 9.15,63.8 8.75,62.4 q -0.2,-0.8 -0.05,-1.7 0.25,-2.65 2.7,-5.05 1.5,-1.3 4.9,-3.15 L 17.7,51.55 16.05,50 q -1.35,-1.5 -1.8,-3.6 -0.4,-1.85 0.25,-3.45 l 0.3,-1.25"
         fill="#000000"
         fill-opacity="0.372549"
         fill-rule="evenodd"
         stroke="none"
         id="path5" />
    </g>
  </defs>
</svg>
