<?xml version="1.0" encoding="UTF-8" standalone="no"?>
<svg
   ffdec:objectType="frame"
   height="54.994308"
   width="82.117538"
   version="1.1"
   id="svg4"
   sodipodi:docname="ITEM Twine Mask.svg"
   xmlns:inkscape="http://www.inkscape.org/namespaces/inkscape"
   xmlns:sodipodi="http://sodipodi.sourceforge.net/DTD/sodipodi-0.dtd"
   xmlns:xlink="http://www.w3.org/1999/xlink"
   xmlns="http://www.w3.org/2000/svg"
   xmlns:svg="http://www.w3.org/2000/svg"
   xmlns:ffdec="https://www.free-decompiler.com/flash">
  <sodipodi:namedview
     id="namedview4"
     pagecolor="#ffffff"
     bordercolor="#000000"
     borderopacity="0.25"
     inkscape:showpageshadow="2"
     inkscape:pageopacity="0.0"
     inkscape:pagecheckerboard="0"
     inkscape:deskcolor="#d1d1d1"
     fit-margin-top="5"
     fit-margin-left="5"
     fit-margin-right="5"
     fit-margin-bottom="5" />
  <g
     transform="translate(44.46626,25.878261)"
     id="g1">
    <use
       ffdec:characterId="17"
       height="119.15"
       id="rarity"
       transform="translate(-58.5,-60.65)"
       width="119.15"
       xlink:href="#sprite0" />
    <use
       ffdec:characterId="951"
       height="55"
       transform="translate(-44.45,-25.9)"
       width="82.099998"
       xlink:href="#shape0"
       id="use1" />
  </g>
  <defs
     id="defs4">
    <g
       id="shape0"
       transform="translate(91.25,27.25)">
      <path
         d="m -83.4,-3.65 -0.1,0.1 h 0.15 0.65 l 4.2,0.35 1,0.15 0.45,0.1 0.3,-0.65 0.2,-0.4 q 1.1,-2.3 2.7,-4.45 l 3.2,-3.7 1.15,-1.05 -1.85,0.85 -5.5,2.85 -1.3,0.75 q -2.95,2.15 -5.25,5.05 v 0.05 m -2.3,4.45 -0.2,0.45 0.2,0.4 0.25,0.65 q 2.75,2.35 6.3,2.7 0.3,-3.05 1.25,-5.8 -2.6,-0.45 -5.2,0.05 l -0.2,0.2 -0.35,0.2 -0.5,0.25 -0.3,0.1 -0.4,0.05 -0.55,-0.15 -0.3,0.9 M -61.8,12 q -4.9,4.2 -11.45,2.35 -4.6,-1.3 -5.65,-4.85 h -0.05 q -6.2,0.9 -10.15,-3.55 -3.65,-4.1 -1.15,-9 4.85,-9.45 15.1,-13.25 6.7,-2.5 13.65,-3.35 4.65,-3.45 10.2,-5.15 1.8,-1.3 3.85,-2.05 l 0.55,-0.05 v -0.05 q 3.25,-0.8 5.9,0.7 2.35,1.35 2.2,3.9 4,-0.55 8.1,2.15 l 0.3,-0.2 2.05,-1.05 q 2.6,-1 5.25,-1.05 2.65,-0.1 4.9,1 l 1.75,1 0.75,1.45 q 0.55,1.15 0.55,2.4 5.9,0.9 6,7.6 0.05,3.4 -1.85,6.25 -2.3,3.55 -5.8,5.9 l -0.1,0.45 -0.2,1.7 q -5.8,12.25 -18.8,17.3 -16.7,6.5 -34.65,4.9 -3.55,-0.35 -3.9,-3.7 -0.6,-5.45 5.3,-6.85 l 21.35,-5 q 2.3,-0.5 4.4,-1.55 l -2.3,0.1 L -59.35,10 -61.8,12 M -69.65,0.85 q 0.3,-1.5 2.1,-2.95 l 0.6,-0.45 9.8,-8 5,-3.9 q -1.2,-2.1 -3.15,-3.45 l -0.1,-0.05 q -5.05,3.4 -9.4,7.9 -3.1,3.15 -5.25,6.9 l -1.9,3.75 -1,2.45 q -0.7,1.95 -0.5,4.2 2.05,1.65 4.1,1.8 l 0.3,-0.8 q 0.3,-2.4 -0.25,-4.7 L -69.4,2.9 q -0.45,-1.05 -0.25,-2.05 m 25.6,-22.65 q -3.4,-0.05 -6.95,1.1 l -1.45,0.85 -0.4,0.25 0.05,0.1 q 1.15,1.1 1.9,2.7 l 0.05,0.05 0.4,1 0.5,-0.4 4.7,-3.35 0.25,-0.2 1.25,-0.8 0.4,-1.3 h -0.7 m -1,7.75 -2.65,2 -5.6,4.35 q 1,0.85 1.6,2.1 l 0.2,0.4 0.4,0.9 0.05,0.2 -0.05,0.55 10,-6.75 q 3.75,-2.3 5.95,-5.9 l 0.35,-0.7 0.05,-0.1 -1.3,-0.1 q -4.8,-0.2 -8.8,2.9 l -0.2,0.15 m -8.35,11.2 -0.3,-0.7 -0.2,-0.35 q -0.7,-1.15 -1.75,-1.9 l -4.3,3.6 -0.15,0.1 -0.6,0.55 -5.35,4.65 0.2,2.05 q 0,1.15 -0.5,2.15 l -0.05,1.2 2.7,-1.8 q 5.05,-4.6 10.5,-8.7 l -0.2,-0.85 m 32.5,-14.65 q -4.3,-1.5 -8.45,1.75 l -0.3,0.25 -0.7,2 -0.3,0.6 2.4,1.95 0.5,-0.4 q 3.7,-2.85 7.95,-4.55 v -0.15 l 0.05,-0.25 -0.05,-0.2 v -0.2 l -0.05,-0.2 -0.1,-0.25 -0.95,-0.35 m -12.35,7.7 -5.75,4.75 q 4.45,-1.7 8.5,-4.3 l -2,-1.15 -0.75,0.7 m 2.65,6.25 h -0.05 l -0.2,0.1 0.3,1.6 q 0.2,1.9 -0.25,3.85 l -0.45,1.55 q 7.5,-2.1 14.2,-6.6 2.65,-1.75 3.45,-4.7 l 0.1,-0.5 0.15,-0.9 -0.2,-0.6 -0.3,-0.85 -0.4,-0.75 -0.6,-0.5 q -4.7,-0.1 -8.65,3.25 -3.35,2.85 -7,4.95 l -0.1,0.1 m -3.05,6.3 0.25,-1 V 0 -1.1 -1.7 l -0.15,-0.35 q -2.4,1.1 -4.95,1.9 -4.25,1.35 -8.85,1.8 l -0.5,-0.05 -2.15,1.55 -1.65,1.1 -1.9,1.35 -0.6,0.45 4.55,-0.5 4.5,-0.15 q 5.65,0 10.95,-1.1 l 0.5,-1.05 V 2.8 2.75 m 0.05,11.15 0.45,1.75 q 5.9,-3.25 10.2,-8.6 l 0.75,-1.3 q -6.5,2.5 -13.25,3.7 l -0.45,0.05 -0.1,0.35 -0.05,0.35 0.95,1.05 q 0.95,1.2 1.5,2.65 m -2.7,1.3 -0.8,-1.45 -0.55,-0.75 q -1,1.05 -2.6,1.85 -4.85,2.55 -10.15,3.45 l -0.05,0.3 q -0.15,0.9 -0.95,1.45 l -0.15,0.2 -1.4,1.75 q 8.15,-1.45 16,-4.6 l 1.35,-0.55 -0.7,-1.65 m -31.55,6.3 -0.2,0.05 -1.5,0.7 q -0.05,0.85 1.9,0.9 l 11.1,-0.65 2,-1.65 q 0.9,-0.95 1.5,-2.15 h -0.4 q -7.4,0.7 -14.4,2.8"
         fill="#000000"
         fill-rule="evenodd"
         stroke="none"
         id="path1" />
      <path
         d="m -83.35,-3.55 -0.05,-0.1 V -3.7 q 2.3,-2.9 5.25,-5.05 l 1.3,-0.75 5.5,-2.85 h 0.2 l 0.5,0.2 -3.2,3.7 q -1.6,2.15 -2.7,4.45 l -0.35,0.15 -1.6,0.65 -4.2,-0.35 h -0.65 m 11.4,4.15 1.9,-3.75 q 2.15,-3.75 5.25,-6.9 4.35,-4.5 9.4,-7.9 l 0.1,0.05 q 1.95,1.35 3.15,3.45 l -5,3.9 -9.8,8 -0.6,0.45 q -1.8,1.45 -2.1,2.95 -1.4,0.45 -2.3,-0.25 m 26.95,-20.3 -0.25,0.2 -4.7,3.35 -0.5,0.4 -0.4,-1 -0.05,-0.05 q -0.75,-1.6 -1.9,-2.7 l -0.05,-0.1 0.4,-0.25 1.45,-0.85 q 3.55,-1.15 6.95,-1.1 l -0.95,2.1 m -2.7,7.65 2.25,-1.55 0.4,-0.45 0.2,-0.15 q 4,-3.1 8.8,-2.9 l 1.3,0.1 -0.05,0.1 -0.5,0.55 q -5.1,4.85 -10.85,8.8 -1.6,1.1 -3.25,2.05 l -1.7,1.2 -0.4,-0.9 -0.2,-0.4 q -0.6,-1.25 -1.6,-2.1 l 5.6,-4.35 m -13,10.5 0.6,-0.55 0.15,-0.1 4.3,-3.6 q 1.05,0.75 1.75,1.9 l 0.2,0.35 0.3,0.7 -3.5,1.95 -0.3,0.15 -2.5,0.5 -0.8,-0.45 -0.2,-0.2 v -0.25 -0.4 m 30.35,-11.95 0.7,-2 0.3,-0.25 q 4.15,-3.25 8.45,-1.75 l 0.1,0.4 v 0.25 q -3.55,4.4 -9.55,3.35 M -30.8,2 q 0.45,-1.95 0.25,-3.85 l -0.3,-1.6 0.2,-0.1 h 0.05 l 0.05,-0.05 0.05,-0.05 q 3.65,-2.1 7,-4.95 3.95,-3.35 8.65,-3.25 l 0.6,0.5 0.4,0.75 0.3,0.85 0.2,0.6 -0.15,0.9 -0.1,0.5 q -0.75,0.95 -1.9,1.8 -2.25,1.7 -4.75,3.2 -5.1,3.1 -10.55,4.75 m -19.2,1.15 2.15,-1.55 0.5,0.05 q 4.6,-0.45 8.85,-1.8 2.55,-0.8 4.95,-1.9 l 0.15,0.35 V -1.1 0 1.75 l -0.25,1 Q -40.75,4.4 -48.4,3.6 -49.3,3.55 -50,3.15 m 14.9,8.1 5.45,-0.9 q 1.5,0.65 -1.3,2.15 l -2.65,1.4 q -0.55,-1.45 -1.5,-2.65 m -16.45,9 0.15,-0.2 q 0.8,-0.55 0.95,-1.45 l 0.05,-0.3 q 5.3,-0.9 10.15,-3.45 1.6,-0.8 2.6,-1.85 l 0.55,0.75 0.8,1.45 q -7.35,3.35 -15.25,5.05 m -3,0.6 -5.3,0.75 q -3.35,0.35 -6.55,1.5 l -1,-0.45 -0.45,-0.95 v -0.2 q 7,-2.1 14.4,-2.8 h 0.4 q -0.6,1.2 -1.5,2.15"
         fill="#8e857b"
         fill-rule="evenodd"
         stroke="none"
         id="path2" />
      <path
         d="m -76.75,-3.6 -0.3,0.65 -0.45,-0.1 -1,-0.15 1.6,-0.65 0.15,0.25 m -8.95,4.4 0.3,-0.9 0.55,0.15 0.4,-0.05 0.3,-0.1 0.5,-0.25 0.35,-0.2 0.2,-0.2 q 2.6,-0.5 5.2,-0.05 -0.95,2.75 -1.25,5.8 -3.55,-0.35 -6.3,-2.7 l -0.25,-0.65 -0.2,-0.4 0.2,-0.45 m 13.75,-0.2 q 0.9,0.7 2.3,0.25 -0.2,1 0.25,2.05 l 0.1,0.65 q 0.55,2.3 0.25,4.7 l -0.3,0.8 q -2.05,-0.15 -4.1,-1.8 -0.2,-2.25 0.5,-4.2 l 1,-2.45 m 26.95,-20.3 0.95,-2.1 h 0.7 l -0.4,1.3 -1.25,0.8 m -6.1,15.4 1.7,-1.2 q 1.65,-0.95 3.25,-2.05 5.75,-3.95 10.85,-8.8 l 0.15,0.15 q -2.2,3.6 -5.95,5.9 l -10,6.75 0.05,-0.55 -0.05,-0.2 m -9.6,2.75 v 0.4 0.25 l 0.2,0.2 0.8,0.45 2.5,-0.5 0.3,-0.15 3.5,-1.95 0.2,0.85 q -5.45,4.1 -10.5,8.7 l -2.7,1.8 0.05,-1.2 q 0.5,-1 0.5,-2.15 l -0.2,-2.05 5.35,-4.65 m 30.35,-11.95 q 6,1.05 9.55,-3.35 v -0.25 l -0.1,-0.4 0.95,0.35 0.1,0.25 0.05,0.2 v 0.2 l 0.05,0.2 -0.05,0.25 v 0.15 q -4.25,1.7 -7.95,4.55 l -0.5,0.4 -2.4,-1.95 0.3,-0.6 m -2.9,3.7 0.75,-0.7 2,1.15 q -4.05,2.6 -8.5,4.3 l 5.75,-4.75 M -30.8,2 q 5.45,-1.65 10.55,-4.75 2.5,-1.5 4.75,-3.2 1.15,-0.85 1.9,-1.8 -0.8,2.95 -3.45,4.7 -6.7,4.5 -14.2,6.6 L -30.8,2 M -50,3.15 q 0.7,0.4 1.6,0.45 7.65,0.8 14.75,-0.85 V 2.8 3.25 l -0.5,1.05 q -5.3,1.1 -10.95,1.1 l -4.5,0.15 h -2.65 l -1.3,0.05 1.9,-1.35 1.65,-1.1 m 14.55,6.3 q 6.75,-1.2 13.25,-3.7 l -0.75,1.3 q -4.3,5.35 -10.2,8.6 l -0.45,-1.75 2.65,-1.4 q 2.8,-1.5 1.3,-2.15 l -5.45,0.9 -0.95,-1.05 0.05,-0.35 0.55,-0.4 m -16.1,10.8 q 7.9,-1.7 15.25,-5.05 l 0.7,1.65 -1.35,0.55 q -7.85,3.15 -16,4.6 l 1.4,-1.75 m -3,0.6 -2,1.65 -11.1,0.65 q -1.95,-0.05 -1.9,-0.9 l 1.5,-0.7 0.2,-0.05 v 0.2 l 0.45,0.95 1,0.45 q 3.2,-1.15 6.55,-1.5 l 5.3,-0.75"
         fill="#706860"
         fill-rule="evenodd"
         stroke="none"
         id="path3" />
    </g>
    <g
       id="sprite1"
       transform="translate(17.4,15.85)">
      <use
         ffdec:characterId="31"
         height="57.200001"
         transform="matrix(0.5366,0,0,0.5366,-16.6582,-14.546)"
         width="70.75"
         xlink:href="#sprite2"
         id="use3" />
    </g>
    <g
       id="sprite2"
       transform="translate(-8.65,-10.35)">
      <use
         ffdec:characterId="30"
         height="57.200001"
         transform="translate(8.65,10.35)"
         width="70.75"
         xlink:href="#shape1"
         id="use4" />
    </g>
    <g
       id="shape1"
       transform="translate(-8.65,-10.35)">
      <path
         d="m 14.8,41.7 q 0.65,-1.75 2.65,-2.5 1.8,-0.8 3.7,-0.25 1.15,0.45 2.25,1.2 l 0.9,0.4 q 1.65,0.9 2.85,2.5 L 37.8,30.1 q 2.35,-2.8 3.75,-3.95 1.5,-1.15 4.25,-2.4 18.2,-8.85 27.65,-12.6 2.15,-0.8 3.25,-0.8 h 0.8 l 1.9,2.4 -0.2,0.8 q -0.2,1.1 -1.55,3 -5.85,8.25 -18.85,23.8 -1.85,2.35 -3.35,3.5 -1.4,1.15 -4.75,2.75 l -15.15,7.15 q 1.2,1.6 1.75,3.4 l 0.2,1 0.55,2.5 q 0.1,1.95 -1.1,3.55 -1.2,1.65 -3.05,1.9 l -1.3,0.05 q -1.65,0.2 -3.45,-0.65 -1.85,-0.9 -3,-2.6 L 25,60.95 23.8,62.1 q -2.6,2.85 -4.3,3.95 -2.85,1.8 -5.5,1.45 l -1.65,-0.5 -1.2,-0.7 -0.2,-0.2 q -1,-0.85 -1.6,-1.9 L 9.25,64 9.15,63.8 8.75,62.4 q -0.2,-0.8 -0.05,-1.7 0.25,-2.65 2.7,-5.05 1.5,-1.3 4.9,-3.15 L 17.7,51.55 16.05,50 q -1.35,-1.5 -1.8,-3.6 -0.4,-1.85 0.25,-3.45 l 0.3,-1.25"
         fill="#000000"
         fill-opacity="0.372549"
         fill-rule="evenodd"
         stroke="none"
         id="path4" />
    </g>
  </defs>
</svg>
