<?xml version="1.0" encoding="UTF-8" standalone="no"?>
<svg
   ffdec:objectType="frame"
   height="90.701721"
   width="81.290741"
   version="1.1"
   id="svg6"
   xmlns:xlink="http://www.w3.org/1999/xlink"
   xmlns="http://www.w3.org/2000/svg"
   xmlns:svg="http://www.w3.org/2000/svg"
   xmlns:ffdec="https://www.free-decompiler.com/flash">
  <g
     transform="translate(46.440741,49.651724)"
     id="g1">
    <use
       ffdec:characterId="17"
       height="119.15"
       id="rarity"
       transform="translate(-58.5,-60.65)"
       width="119.15"
       xlink:href="#sprite0" />
    <use
       ffdec:characterId="254"
       height="90.699997"
       transform="translate(-46.45,-49.65)"
       width="81.300003"
       xlink:href="#shape0"
       id="use1" />
  </g>
  <defs
     id="defs6">
    <g
       id="shape0"
       transform="translate(46.15,52.15)">
      <path
         d="M 12,-25.45 Q 10.2,-26.7 8.15,-26.7 l -2.5,0.25 q 0.15,0.45 0.8,1 l 1.95,1.4 1.8,1.55 q 0.9,0.95 1.1,2.2 0.2,1.3 -0.5,2.2 l -0.5,0.5 -0.4,0.6 v 0.15 q -0.1,0.6 0.6,1.7 l 0.5,0.7 q 2.3,3.35 4.05,7.25 1.1,2.55 1.3,4.3 v 1.5 Q 16.15,0.15 15.2,1.35 L 14.15,2.3 12.2,3.4 Q 10.45,4.35 8.75,5.5 L 5.1,8.15 2.6,9.7 q -0.7,0.2 -1.9,0 l -1.05,-0.3 -1,-0.3 -16.6,-5.95 -0.1,-0.05 Q -20.5,2.25 -21.7,2.45 l -2.5,1 -0.15,0.05 -0.35,0.2 -2.35,0.4 h -0.1 l -0.75,-0.25 -0.65,0.85 -1.4,1.8 -0.4,0.6 q -1.5,2.25 -2.15,4.25 l -0.2,0.6 -0.15,0.6 q -0.5,2.55 0.1,6.15 0.75,4.8 2.85,7 2.05,2.15 6.75,3.4 l 1.1,0.3 0.25,-0.25 q -0.1,-0.25 0.2,-0.35 h 0.2 q 1.05,-0.95 2.6,-1.55 1.2,-1.35 2.2,-1.8 0.75,-0.3 1.55,-0.45 2.35,-0.4 4.55,0.05 1.3,0.3 2,0.8 0.6,0.45 1.05,1.05 l 1,1.45 q 0.35,0.75 0.4,1.4 L -6,31.7 v 0.05 l 4.45,0.05 q 10.1,-0.35 17.7,-4.4 4.2,-2.25 7.3,-5.55 3.3,-3.5 4.95,-7.65 1.4,-3.4 1.2,-6.55 -0.1,-1.9 -1.15,-4.9 l -1.8,-4.6 q -1.25,-2.45 -3,-3.85 l -4.4,-2.75 q -2.75,-1.6 -3.65,-3.4 -0.8,-1.6 -0.6,-4.8 v -3.85 l -0.2,-1.1 q -0.6,-2.2 -2.5,-3.65 L 12,-25.45 M -6.55,12.6 q -4,-2.4 -6.1,-3.45 l -0.6,-0.4 q -0.5,-0.4 -0.4,-0.8 L -13.6,7.8 q 0.2,-0.45 1,-0.5 l 0.35,-0.05 q 2.3,0.15 5.95,1.9 2.5,1.2 4.95,2.6 l 2.95,1.7 q 0.45,0.35 0.75,0.2 l 0.55,-0.4 2.3,-2.6 Q 6.6,9.3 8.05,8.9 9.1,8.65 11.8,8.85 L 13.1,8.8 14.05,8.05 Q 15.15,6.9 17.65,5.3 18.85,4.5 19.7,4.2 L 20.8,4 q 0.95,0 1.6,0.65 0.75,0.65 0.55,1.5 Q 22.8,7 21.4,7.8 l -2.55,1.5 -2.25,1.9 -1.5,1.5 -2.4,0.25 -2.55,-0.3 Q 8.65,12.7 7.3,14.05 6.5,14.85 5.4,16.65 4.35,18.3 3.5,18.6 2.55,18.95 1.45,18.3 l -1.7,-1.35 q -2,-1.8 -6.05,-4.2 L -6.55,12.6 m 27,-30.95 -0.05,2 q 0.05,1.1 0.45,1.85 0.55,1.05 2,1.9 l 2.65,1.25 q 2.65,1.45 4.65,4.5 1.5,2.3 2.9,6 1.85,5.05 2.05,7.95 0.35,4.85 -1.75,9.9 -2.95,7.3 -9.45,12.15 -2.45,1.8 -6.3,3.75 -5.65,2.85 -10,3.7 l -10.65,0.8 -5.6,-0.2 -0.6,0.35 -1.6,0.85 -1.8,0.1 -3.15,0.05 q -1.85,-0.15 -2.95,-0.9 l -1.7,-1.85 -4.8,-1.15 q -4.8,-1.35 -7.35,-3.55 -2.2,-1.85 -3.65,-4.75 -2.75,-5.4 -2,-11.75 0.8,-6.4 4.75,-11 2.1,-2.3 4.95,-4.4 l 1.2,-1 q 1.65,-0.95 3.6,-1.3 l -0.15,-0.2 q -0.4,-0.65 -0.45,-1.65 V -6.8 l 0.05,-2.15 q 0.3,-2.05 2.35,-3.8 l 1.4,-1 -1,-1.1 -1.85,-1.65 q -1.1,-0.8 -2.2,-0.9 -1.25,-0.05 -2.55,0.7 l -1.25,1.05 -0.6,1.5 -0.95,3.3 q -0.85,2.7 -1.4,3.75 -1.25,2.25 -3.95,4.05 -1.75,1.15 -5.15,2.7 l -2,0.65 q -1.25,0.2 -1.95,-0.5 -1,-0.8 -0.65,-3.45 0.3,-1.9 0.15,-3.7 l -0.2,-2.4 0.15,-1.95 q 0.95,-5.2 4.6,-7.65 l 4.35,-2.25 3.8,-0.7 5.65,0.5 4.6,0.85 q 1.75,0.65 3.45,2.6 l 0.2,0.3 q 0.1,-1 0.65,-1.9 l 0.6,-0.85 1.1,-1.25 1.65,-1.2 1.45,-0.7 1.9,-0.55 2.8,0.35 q 0.15,-1.8 0.7,-3.55 l 0.65,-1.5 q 0.45,-0.9 0.4,-1.25 l -0.5,-0.85 -2.25,-3.05 q -2.2,-3.55 -1.8,-7.95 l 1.2,-6 q 0.3,-1.65 0.85,-2.5 0.85,-1.4 2.15,-1.35 0.85,0 2.15,1 l 2.75,2.3 q 1,1 1.65,2.15 1.65,2.9 1.15,8.45 -0.2,2.2 -0.65,3.55 -0.45,1.4 -1.55,3.25 l -1.9,3.05 -0.65,1.2 1.25,-0.75 1.35,-0.5 1.4,-0.1 1.65,0.1 1.25,0.55 0.05,-0.05 q -0.4,-0.75 -0.05,-1.75 0.3,-1.1 1.25,-1.75 1.4,-1 4.2,-0.9 5.1,0.1 8.1,2.3 2.55,1.8 3.85,5.15 1.1,3 0.95,6.55 m -21.3,-1.15 q 0.75,-0.25 1.25,-0.75 l 0.6,-0.6 0.05,-0.05 q 0.35,-0.75 0.2,-1.5 l -0.4,-1.3 q -0.9,-0.55 -1.55,-0.55 -0.7,0.05 -1.55,0.8 l -1.35,1.5 -0.15,0.3 q -0.35,1.1 0.4,1.7 0.25,0.2 0.9,0.3 l 1.6,0.15 m 4.35,9.8 0.95,-0.35 0.65,-0.55 -0.2,-0.7 -0.3,-0.75 -0.35,-0.7 -0.3,-0.4 -0.2,-0.45 -0.8,0.15 -0.65,0.2 q -0.5,0.3 -0.6,1.25 v 0.65 l 0.3,0.4 0.7,0.75 0.8,0.5 m 5.3,1.25 -0.05,0.1 h 0.1 L 8.8,-8.45 M 0.95,2.65 1.6,2.7 2.25,2.2 2.75,1.3 2.5,0.65 1.45,-1.15 0.75,-1.2 0.05,-1.15 -0.5,-0.7 H -0.55 Q -1.1,0 -1.25,0.85 l 0.15,1.05 0.65,0.4 1.4,0.35 M 11.2,-2.15 10.25,-5.2 9.95,-5.1 8,-4.75 q -0.65,1.3 -0.55,2 0.2,0.9 1.8,1.85 L 11.2,-2.15 M -41.5,-5.3 q 3.75,-1.65 5.25,-4 0.8,-1.25 1.55,-3.7 l -1.05,1.2 -1.75,2 -0.75,0.45 q -0.65,0 -0.85,-0.75 -0.2,-0.9 0.95,-2.4 l 3.9,-4.4 0.95,-0.8 q -1.8,0 -4.9,1.9 -1.6,1 -2.15,1.75 -0.55,0.75 -0.95,2.6 -0.5,3 -0.2,6.15 M -4.6,-34.85 -4,-36.8 q 0.65,-2.5 0.35,-5.2 l -0.25,-1.25 -0.55,-1.3 q -0.8,-1.65 -2.45,-2.65 l -0.95,4.55 -0.2,2.15 0.55,1.85 0.75,1.75 0.35,-1.7 0.15,-1.15 q 0.3,-0.75 0.85,-0.7 0.75,0 0.95,1.15 0.15,0.85 0,2.25 l -0.2,2.25 0.05,0.15 v -0.2 m -8.8,18.75 1.2,-1.15 1.05,-0.95 1.25,-0.7 1.15,-0.45 0.35,-0.05 -0.05,-0.25 H -8.5 l -0.85,-0.3 -2.15,-0.35 -0.7,0.4 -0.8,0.3 -0.65,0.6 -1,1.4 q 0.15,0.7 1.05,1.35 l 0.2,0.15 m 5.6,4.7 q 0.95,0.35 1.6,-0.5 l 0.45,-0.7 0.25,-0.55 q 0.1,-0.4 0.05,-0.7 0,-0.55 -0.15,-0.75 -0.25,-0.45 -1.25,-0.55 l -0.55,-0.05 -0.75,0.35 -1,0.45 -0.5,0.65 -0.2,0.55 0.4,0.65 0.15,0.45 0.45,0.2 1.05,0.5 m 6.25,-3.35 v 0.15 l 0.15,-0.15 h -0.15 m -18.25,8.65 0.05,0.1 0.45,0.3 0.45,0.1 0.15,0.05 0.1,-0.9 0.45,-0.85 q 1.05,-1.7 3.3,-2.95 l -0.35,-0.4 -1.95,0.2 -1.2,0.55 -1.1,1.05 -0.4,0.95 -0.05,1.25 0.1,0.55 m 6.1,2.7 0.4,0.8 0.65,0.5 q 0.5,0.3 0.8,0.25 0.3,-0.05 0.6,-0.35 l 0.45,-0.6 0.7,-0.95 q 0.35,-0.65 -0.25,-1.65 l -1.2,-1.2 -1.2,0.5 -0.8,0.35 -0.6,0.95 -0.1,0.6 0.2,0.4 0.35,0.4 m 11.05,-1.05 0.6,-0.25 0.1,-0.7 0.2,-0.55 q 0.2,-0.5 0,-1 l -0.65,-0.85 -2,-0.1 -0.75,0.65 -0.2,0.5 0.15,0.6 0.85,2.05 0.25,0.3 h 0.3 l 0.45,-0.1 0.7,-0.55 m -13.8,35.4 -0.15,0.25 0.3,1 q 0.4,1.2 0.35,1.8 l 1.9,0.35 q 1.6,0 2.45,-0.4 1.25,-0.6 1.65,-1.8 0.2,-0.75 -0.1,-1.5 -0.3,-0.8 -0.95,-1.25 -1.3,-0.9 -3,-0.4 l -0.45,0.25 -0.45,0.2 q -0.9,0.55 -1.55,1.5"
         fill="#000000"
         fill-rule="evenodd"
         stroke="none"
         id="path1" />
      <path
         d="M 11.2,-2.15 9.25,-0.9 q -1.6,-0.95 -1.8,-1.85 -0.1,-0.7 0.55,-2 l 1.95,-0.35 0.3,-0.1 0.95,3.05 M 0.95,2.65 -0.45,2.3 -1.1,1.9 -1.25,0.85 Q -1.1,0 -0.55,-0.7 H -0.5 L 0.05,-1.15 0.75,-1.2 1.45,-1.15 2.5,0.65 2.75,1.3 2.25,2.2 1.6,2.7 0.95,2.65 m 7.85,-11.1 0.05,0.1 H 8.75 L 8.8,-8.45 M 3.5,-9.7 2.7,-10.2 2,-10.95 1.7,-11.35 V -12 q 0.1,-0.95 0.6,-1.25 l 0.65,-0.2 0.8,-0.15 0.2,0.45 0.3,0.4 0.35,0.7 0.3,0.75 0.2,0.7 -0.65,0.55 -0.95,0.35 m -4.35,-9.8 -1.6,-0.15 q -0.65,-0.1 -0.9,-0.3 -0.75,-0.6 -0.4,-1.7 l 0.15,-0.3 1.35,-1.5 q 0.85,-0.75 1.55,-0.8 0.65,0 1.55,0.55 l 0.4,1.3 q 0.15,0.75 -0.2,1.5 l -0.05,0.05 -0.6,0.6 q -0.5,0.5 -1.25,0.75 m -18.6,10.65 1.1,-1.05 1.2,-0.55 1.95,-0.2 0.35,0.4 q -2.25,1.25 -3.3,2.95 l -0.45,0.85 -0.1,0.9 -0.15,-0.05 -0.45,-0.1 -0.45,-0.3 -0.05,-0.1 v -0.1 l 0.35,-2.65 m 17.9,-5.9 h 0.15 l -0.15,0.15 v -0.15 m -6.25,3.35 -1.05,-0.5 -0.45,-0.2 -0.15,-0.45 -0.4,-0.65 0.2,-0.55 0.5,-0.65 1,-0.45 0.75,-0.35 0.55,0.05 q 1,0.1 1.25,0.55 0.15,0.2 0.15,0.75 0.05,0.3 -0.05,0.7 l -0.25,0.55 -0.45,0.7 q -0.65,0.85 -1.6,0.5 m -5.6,-4.7 -0.2,-0.15 q -0.9,-0.65 -1.05,-1.35 l 1,-1.4 0.65,-0.6 0.8,-0.3 0.7,-0.4 2.15,0.35 0.85,0.3 h 0.05 l 0.05,0.25 -0.35,0.05 -1.15,0.45 -1.25,0.7 -1.05,0.95 -1.2,1.15 m -3.05,47.05 q 0.65,-0.95 1.55,-1.5 l 0.45,-0.2 L -14,29 q 1.7,-0.5 3,0.4 0.65,0.45 0.95,1.25 0.3,0.75 0.1,1.5 -0.4,1.2 -1.65,1.8 -0.85,0.4 -2.45,0.4 L -15.95,34 q 0.05,-0.6 -0.35,-1.8 l -0.3,-1 0.15,-0.25 m 13.8,-35.4 -0.7,0.55 -0.45,0.1 h -0.3 l -0.25,-0.3 -0.85,-2.05 -0.15,-0.6 0.2,-0.5 0.75,-0.65 2,0.1 0.65,0.85 q 0.2,0.5 0,1 l -0.2,0.55 -0.1,0.7 -0.6,0.25 m -11.05,1.05 -0.35,-0.4 -0.2,-0.4 0.1,-0.6 0.6,-0.95 0.8,-0.35 1.2,-0.5 1.2,1.2 q 0.6,1 0.25,1.65 l -0.7,0.95 -0.45,0.6 q -0.3,0.3 -0.6,0.35 -0.3,0.05 -0.8,-0.25 l -0.65,-0.5 -0.4,-0.8"
         fill="#918174"
         fill-rule="evenodd"
         stroke="none"
         id="path2" />
      <path
         d="M 9.9,-16.85 V -17 l 0.4,-0.6 0.5,-0.5 q 0.7,-0.9 0.5,-2.2 -0.2,-1.25 -1.1,-2.2 l -1.8,-1.55 -1.95,-1.4 q -0.65,-0.55 -0.8,-1 l 2.5,-0.25 q 2.05,0 3.85,1.25 l 2.35,3.7 0.65,1.25 v 3.85 q -0.2,3.2 0.6,4.8 0.9,1.8 3.65,3.4 0.8,3.9 0.85,7.7 L 20.35,0 Q 20.55,1 20,1.8 L 19.95,2.55 19.7,4.2 q -0.85,0.3 -2.05,1.1 -2.5,1.6 -3.6,2.75 L 13.1,8.8 11.8,8.85 Q 9.1,8.65 8.05,8.9 6.6,9.3 5.2,10.65 l -2.3,2.6 -0.55,0.4 Q 2.05,13.8 1.6,13.45 l -2.95,-1.7 Q -3.8,10.35 -6.3,9.15 -9.95,7.4 -12.25,7.25 L -12.6,7.3 q -0.8,0.05 -1,0.5 l -0.05,0.15 q -0.1,0.4 0.4,0.8 l 0.6,0.4 q 2.1,1.05 6.1,3.45 l -3.1,-0.95 q -2.3,-0.7 -3.55,-0.5 -0.95,0.15 -2.05,0.8 l -1.9,1.2 q -2.5,1.5 -5.5,1.8 -3,0.3 -5.8,-0.7 -1.9,-0.65 -3.05,-1.7 l -0.6,0.3 -0.6,-0.9 0.2,-0.6 q 0.65,-2 2.15,-4.25 l 0.4,-0.6 1.4,-1.8 0.65,-0.85 0.75,0.25 h 0.1 l 2.35,-0.4 0.35,-0.2 0.15,-0.05 2.5,-1 q 1.2,-0.2 3.65,0.65 l 0.1,0.05 16.6,5.95 1,0.3 1.05,0.3 q 1.2,0.2 1.9,0 L 5.1,8.15 8.75,5.5 Q 10.45,4.35 12.2,3.4 L 14.15,2.3 15.2,1.35 q 0.95,-1.2 1.15,-2.75 v -1.5 q -0.2,-1.75 -1.3,-4.3 -1.75,-3.9 -4.05,-7.25 l -1.1,-2.4"
         fill="#c8a88d"
         fill-rule="evenodd"
         stroke="none"
         id="path3" />
      <path
         d="m -32.7,11.95 0.6,0.9 0.6,-0.3 q 1.15,1.05 3.05,1.7 2.8,1 5.8,0.7 3,-0.3 5.5,-1.8 l 1.9,-1.2 q 1.1,-0.65 2.05,-0.8 1.25,-0.2 3.55,0.5 l 3.1,0.95 0.25,0.15 q 4.05,2.4 6.05,4.2 l 1.7,1.35 q 1.1,0.65 2.05,0.3 0.85,-0.3 1.9,-1.95 1.1,-1.8 1.9,-2.6 1.35,-1.35 2.85,-1.4 l 2.55,0.3 2.4,-0.25 1.5,-1.5 2.25,-1.9 2.55,-1.5 Q 22.8,7 22.95,6.15 23.15,5.3 22.4,4.65 21.75,4 20.8,4 L 19.7,4.2 19.95,2.55 20,1.8 Q 20.55,1 20.35,0 L 20.1,-0.75 q -0.05,-3.8 -0.85,-7.7 l 4.4,2.75 q 1.75,1.4 3,3.85 l 1.8,4.6 q 1.05,3 1.15,4.9 0.2,3.15 -1.2,6.55 -1.65,4.15 -4.95,7.65 -3.1,3.3 -7.3,5.55 -7.6,4.05 -17.7,4.4 L -6,31.75 V 31.7 l -0.05,-1.95 q -0.05,-0.65 -0.4,-1.4 l -1,-1.45 q -0.45,-0.6 -1.05,-1.05 -0.7,-0.5 -2,-0.8 -2.2,-0.45 -4.55,-0.05 -0.8,0.15 -1.55,0.45 -1,0.45 -2.2,1.8 -1.55,0.6 -2.6,1.55 h -0.2 q -0.3,0.1 -0.2,0.35 l -0.25,0.25 -1.1,-0.3 q -4.7,-1.25 -6.75,-3.4 -2.1,-2.2 -2.85,-7 -0.6,-3.6 -0.1,-6.15 l 0.15,-0.6"
         fill="#9d836e"
         fill-rule="evenodd"
         stroke="none"
         id="path4" />
      <path
         d="m -4.6,-34.85 v 0.2 l -0.05,-0.15 0.2,-2.25 q 0.15,-1.4 0,-2.25 -0.2,-1.15 -0.95,-1.15 -0.55,-0.05 -0.85,0.7 l -0.15,1.15 -0.35,1.7 -0.75,-1.75 -0.55,-1.85 0.2,-2.15 0.95,-4.55 q 1.65,1 2.45,2.65 l 0.55,1.3 0.25,1.25 q 0.3,2.7 -0.35,5.2 l -0.6,1.95 M -41.5,-5.3 q -0.3,-3.15 0.2,-6.15 0.4,-1.85 0.95,-2.6 0.55,-0.75 2.15,-1.75 3.1,-1.9 4.9,-1.9 l -0.95,0.8 -3.9,4.4 q -1.15,1.5 -0.95,2.4 0.2,0.75 0.85,0.75 l 0.75,-0.45 1.75,-2 1.05,-1.2 q -0.75,2.45 -1.55,3.7 -1.5,2.35 -5.25,4"
         fill="#78887a"
         fill-rule="evenodd"
         stroke="none"
         id="path5" />
    </g>
    <g
       id="sprite1"
       transform="translate(17.4,15.85)">
      <use
         ffdec:characterId="31"
         height="57.200001"
         transform="matrix(0.5366,0,0,0.5366,-16.6582,-14.546)"
         width="70.75"
         xlink:href="#sprite2"
         id="use5" />
    </g>
    <g
       id="sprite2"
       transform="translate(-8.65,-10.35)">
      <use
         ffdec:characterId="30"
         height="57.200001"
         transform="translate(8.65,10.35)"
         width="70.75"
         xlink:href="#shape1"
         id="use6" />
    </g>
    <g
       id="shape1"
       transform="translate(-8.65,-10.35)">
      <path
         d="m 14.8,41.7 q 0.65,-1.75 2.65,-2.5 1.8,-0.8 3.7,-0.25 1.15,0.45 2.25,1.2 l 0.9,0.4 q 1.65,0.9 2.85,2.5 L 37.8,30.1 q 2.35,-2.8 3.75,-3.95 1.5,-1.15 4.25,-2.4 18.2,-8.85 27.65,-12.6 2.15,-0.8 3.25,-0.8 h 0.8 l 1.9,2.4 -0.2,0.8 q -0.2,1.1 -1.55,3 -5.85,8.25 -18.85,23.8 -1.85,2.35 -3.35,3.5 -1.4,1.15 -4.75,2.75 l -15.15,7.15 q 1.2,1.6 1.75,3.4 l 0.2,1 0.55,2.5 q 0.1,1.95 -1.1,3.55 -1.2,1.65 -3.05,1.9 l -1.3,0.05 q -1.65,0.2 -3.45,-0.65 -1.85,-0.9 -3,-2.6 L 25,60.95 23.8,62.1 q -2.6,2.85 -4.3,3.95 -2.85,1.8 -5.5,1.45 l -1.65,-0.5 -1.2,-0.7 -0.2,-0.2 q -1,-0.85 -1.6,-1.9 L 9.25,64 9.15,63.8 8.75,62.4 q -0.2,-0.8 -0.05,-1.7 0.25,-2.65 2.7,-5.05 1.5,-1.3 4.9,-3.15 L 17.7,51.55 16.05,50 q -1.35,-1.5 -1.8,-3.6 -0.4,-1.85 0.25,-3.45 l 0.3,-1.25"
         fill="#000000"
         fill-opacity="0.372549"
         fill-rule="evenodd"
         stroke="none"
         id="path6" />
    </g>
  </defs>
</svg>
