<?xml version="1.0" encoding="UTF-8" standalone="no"?>
<svg
   ffdec:objectType="frame"
   height="77.805496"
   width="69.207115"
   version="1.1"
   id="svg5"
   xmlns:xlink="http://www.w3.org/1999/xlink"
   xmlns="http://www.w3.org/2000/svg"
   xmlns:svg="http://www.w3.org/2000/svg"
   xmlns:ffdec="https://www.free-decompiler.com/flash">
  <g
     transform="translate(37.40102,41.82439)"
     id="g1">
    <use
       ffdec:characterId="17"
       height="119.15"
       id="rarity"
       transform="translate(-58.5,-60.65)"
       width="119.15"
       xlink:href="#sprite0" />
    <use
       ffdec:characterId="444"
       height="77.800003"
       transform="translate(-37.4,-41.8)"
       width="69.199997"
       xlink:href="#shape0"
       id="use1" />
  </g>
  <defs
     id="defs5">
    <g
       id="shape0"
       transform="translate(37,41)">
      <path
         d="m 20.55,-33.25 -0.15,-0.2 -0.25,-0.65 -0.25,-0.85 -0.1,-0.15 -3.7,-0.1 0.55,2.8 -0.1,2.05 v 0.1 l 0.15,0.2 0.15,0.2 v 0.25 l 0.05,0.4 0.55,1.05 0.65,2 0.05,0.2 0.1,1.05 0.3,0.45 0.15,0.2 0.55,2.5 0.55,1.95 0.2,0.45 0.6,1.55 1.3,2.8 0.4,-0.05 q 1.8,-0.4 3.45,-1.05 -0.45,-2 -1.35,-3.85 L 23.05,-23 q -0.85,-2.25 -1.35,-4.55 l -0.4,-2.1 -0.1,-0.8 -0.1,-0.25 -0.35,-1.1 -0.2,-1.45 m -5.6,-7.5 q 3.95,-0.75 7.45,0.55 2.05,0.75 2.5,2.85 2.1,9.7 6.35,18.8 1.4,3 0.75,6.05 -0.25,1.15 -1.5,1.55 -5.9,2 -11.8,1.7 -0.9,-0.05 -1.35,-0.9 -0.95,-1.7 -1.3,-3.6 l -5.75,1.7 q -4.05,1.35 -7.85,1.95 7.25,7.75 10.05,18 1.45,5.1 0,9.8 2.1,1.8 2.5,5.15 0.6,4.45 -0.65,8.75 -0.3,1 -1.3,1.4 -11.4,4.9 -23.7,3.45 -1.45,-0.15 -2.45,-1.3 -1.75,-1.9 -1.45,-4.45 -1.1,-3.05 0.4,-5.7 -1.1,-0.75 -1.7,-2.25 -3.45,-8.6 -1,-17.85 l 0.55,-2.55 q -3.5,-1 -5.7,-4 l -0.1,-0.15 -0.7,3.15 0.1,1.3 0.1,3.4 v 0.9 q 0.8,1.6 1.2,3.35 0.55,2.8 0.7,5.65 3.1,6.65 -2.55,10.7 -0.9,0.65 -2.05,0.6 -6.7,-0.15 -9.15,-6.2 -5,-12.35 -0.2,-24.9 l 0.3,-1.8 1.3,-3 q -1.25,-0.3 -1.8,-1.9 -2.2,-6.2 3.4,-7.55 l -1.35,-4.65 q -0.8,-3.2 0.2,-6.45 0.45,-1.3 1.45,-2.25 1.75,-1.75 4.05,-2.3 7.1,0.9 7.65,8.25 l 0.1,1.7 q 7.8,-8.15 19.5,-8.55 l 10.6,0.8 v -1.15 l -0.1,-0.2 -0.4,-1.3 Q 10,-34.95 10.2,-35.7 l -0.1,-0.2 q -0.8,-3.25 2.25,-4.25 l 2.6,-0.6 m -4.1,13.8 -2,-0.15 -3.9,-0.35 q -10.1,-0.3 -17.95,5.6 -2.6,1.95 -4.45,4.7 v 0.2 0.2 0.45 0.2 0.45 0.85 0.65 l 0.3,0.85 0.1,1.9 v 0.05 4.05 l 0.1,1.75 0.1,1.05 3.15,1.45 0.2,-0.05 0.8,-0.1 Q -6,-2.7 -2.3,2.95 -1.2,4.6 -0.7,6.5 L 0,8 q 0.45,1.25 0.45,2.6 l 0.05,2.15 0.35,0.85 v 1.25 L 0.8,16.6 v 0.2 l 0.25,0.85 v 1.3 0.25 l 5.4,-1.7 Q 7.75,17 8.7,16.95 8.65,12.15 7.25,7.65 L 6.9,6.95 Q 5.8,3.65 4.2,0.6 L 3.25,-1.35 1.85,-2.7 -2.6,-8.2 q -0.35,-0.45 -0.3,-1.1 l 0.05,-1.3 q -1.8,-4.75 3.9,-5.65 7.35,-1.15 14.45,-3.25 -0.85,-1.35 -1.35,-2.85 l -0.6,-2.2 -0.4,-0.85 -0.1,-1.3 -0.25,-0.55 -1.95,0.3 m -20.6,56.3 q 0.1,0.65 0.05,1.35 l 0.1,0.15 0.2,0.25 0.2,0.2 0.15,0.15 Q 0.45,31.85 9.6,28.3 9.6,25.35 9,22.4 l -5.75,1.95 -5.1,1.2 -6.2,0.6 -2.3,-0.1 -0.1,0.75 q -0.05,0.75 0.3,1.5 l 0.4,1.05 M -25.2,-8 q 0.8,-2.85 1.35,-5.8 l -0.5,-10.5 q -0.15,-2.4 -1.1,-4.5 l -0.1,-0.1 -0.45,-0.2 h -0.45 l -0.85,0.45 -0.35,0.2 q -0.7,0.8 -0.8,1.9 v 1.75 q 2.8,7.15 1.7,14.25 -0.65,4 -2.55,8 -0.8,1.65 -1.1,3.5 -0.3,1.85 -0.9,3.6 -0.5,3.4 0,6.65 l 0.15,0.85 q 0.35,1.85 0.55,3.7 l 0.25,0.4 0.2,0.65 V 17 l 0.8,1.5 0.5,1.3 1.65,1.5 0.75,0.8 h 1.1 l 0.55,-0.1 0.2,-0.4 0.3,-0.65 0.1,-0.2 L -26,12.8 -26.45,9.35 -26.9,5.05 Q -27.2,-1.3 -25.35,-7.6 L -25.2,-8 M -3.7,8.45 Q -4.95,5.8 -7.15,3.55 -8.65,2 -10.65,1.55 -10.75,3.3 -11.15,5 l -0.8,4.4 q -0.4,3.15 -0.35,6.35 v 1.05 l 0.1,0.2 0.1,0.25 0.15,0.4 0.1,0.45 0.35,1.05 1,1.5 8.4,-0.75 -0.05,-0.75 -0.1,-3.4 V 14 Q -2.55,11.05 -3.7,8.45"
         fill="#000000"
         fill-rule="evenodd"
         stroke="none"
         id="path1" />
      <path
         d="m 16.65,-32.4 0.4,-0.1 3.35,-0.75 h 0.15 l 0.2,1.45 0.35,1.1 0.1,0.25 0.1,0.8 q -1.9,1 -3.85,1.5 l -0.55,-1.05 -0.05,-0.4 v -0.25 l -0.15,-0.2 -0.15,-0.2 v -0.1 l 0.1,-2.05 m -33.7,21 -0.1,-1.9 -0.3,-0.85 v -0.65 -0.85 -0.45 -0.2 -0.45 -0.2 -0.2 q 1.85,-2.75 4.45,-4.7 7.85,-5.9 17.95,-5.6 l 3.9,0.35 2,0.15 1.9,2.15 q 0.5,0.7 -0.15,1.3 -2.3,2.2 -5.25,3.65 -11.75,5.65 -24.4,8.45 m 36.3,-10.35 -0.55,-2.5 -0.15,-0.2 -0.3,-0.45 -0.1,-1.05 -0.05,-0.2 0.15,-0.1 q 1.75,-0.8 3.45,-1.3 0.5,2.3 1.35,4.55 l -0.8,0.3 -3,0.95 m -16,46.1 Q 2.5,29.25 -3,29.85 l -5.7,-0.2 -1.05,-0.3 -0.4,-1.05 q -0.35,-0.75 -0.3,-1.5 l 2.4,-0.65 6.2,-0.6 5.1,-1.2 m -30,-34.9 0.8,0.3 0.3,0.15 0.45,2.1 -0.15,0.4 q -1.85,6.3 -1.55,12.65 l -1.75,5.45 q -1.45,0.85 -2.65,0.7 -0.5,-3.25 0,-6.65 0.6,-1.75 0.9,-3.6 0.3,-1.85 1.1,-3.5 1.9,-4 2.55,-8 m 14.8,19.95 0.8,-4.4 q 0.4,-1.7 0.5,-3.45 2,0.45 3.5,2 2.2,2.25 3.45,4.9 -0.5,3.6 -3.7,4.85 -1.45,0.55 -2.6,-0.45 -1.65,-1.5 -1.95,-3.45"
         fill="#ffffff"
         fill-rule="evenodd"
         stroke="none"
         id="path2" />
      <path
         d="M 20.55,-33.25 H 20.4 l -3.35,0.75 -0.4,0.1 -0.55,-2.8 3.7,0.1 0.1,0.15 0.25,0.85 0.25,0.65 0.15,0.2 m -3.1,5.1 q 1.95,-0.5 3.85,-1.5 l 0.4,2.1 q -1.7,0.5 -3.45,1.3 l -0.15,0.1 -0.65,-2 m -34.5,16.75 q 12.65,-2.8 24.4,-8.45 2.95,-1.45 5.25,-3.65 0.65,-0.6 0.15,-1.3 l -1.9,-2.15 1.95,-0.3 0.25,0.55 0.1,1.3 0.4,0.85 0.6,2.2 q 0.5,1.5 1.35,2.85 -7.1,2.1 -14.45,3.25 -5.7,0.9 -3.9,5.65 l -0.05,1.3 q -0.05,0.65 0.3,1.1 l 4.45,5.5 1.4,1.35 0.95,1.95 q 1.6,3.05 2.7,6.35 l 0.35,0.7 q 1.4,4.5 1.45,9.3 Q 7.75,17 6.45,17.5 l -5.4,1.7 v -0.25 -1.3 L 0.8,16.8 V 16.6 L 0.85,14.85 V 13.6 L 0.5,12.75 0.45,10.6 Q 0.45,9.25 0,8 L -0.7,6.5 Q -1.2,4.6 -2.3,2.95 -6,-2.7 -12.7,-3.2 l -0.8,0.1 -0.2,0.05 -3.15,-1.45 -0.1,-1.05 -0.1,-1.75 v -4.05 -0.05 m 36.3,-10.35 3,-0.95 0.8,-0.3 1.35,3.05 q 0.9,1.85 1.35,3.85 -1.65,0.65 -3.45,1.05 L 21.9,-15 20.6,-17.8 20,-19.35 19.8,-19.8 19.25,-21.75 M -11.95,9.4 q 0.3,1.95 1.95,3.45 1.15,1 2.6,0.45 3.2,-1.25 3.7,-4.85 1.15,2.6 1.45,5.55 v 1.75 l 0.1,3.4 0.05,0.75 -8.4,0.75 -1,-1.5 -0.35,-1.05 -0.1,-0.45 -0.15,-0.4 -0.1,-0.25 -0.1,-0.2 v -1.05 q -0.05,-3.2 0.35,-6.35"
         fill="#a6a6a6"
         fill-rule="evenodd"
         stroke="none"
         id="path3" />
      <path
         d="M 3.25,24.35 9,22.4 q 0.6,2.95 0.6,5.9 -9.15,3.55 -18.65,3.15 L -9.2,31.3 -9.4,31.1 -9.6,30.85 -9.7,30.7 Q -9.65,30 -9.75,29.35 l 1.05,0.3 5.7,0.2 q 5.5,-0.6 6.25,-5.5 m -30,-34.9 q 1.1,-7.1 -1.7,-14.25 v -1.75 q 0.1,-1.1 0.8,-1.9 l 0.35,-0.2 0.85,-0.45 H -26 l 0.45,0.2 0.1,0.1 q 0.95,2.1 1.1,4.5 l 0.5,10.5 q -0.55,2.95 -1.35,5.8 l -0.45,-2.1 -0.3,-0.15 -0.8,-0.3 m -0.15,15.6 0.45,4.3 0.45,3.45 1.8,7.95 -0.1,0.2 -0.3,0.65 -0.2,0.4 -0.55,0.1 h -1.1 l -0.75,-0.8 -1.65,-1.5 -0.5,-1.3 -0.8,-1.5 v -0.2 l -0.2,-0.65 -0.25,-0.4 q -0.2,-1.85 -0.55,-3.7 L -31.3,11.2 q 1.2,0.15 2.65,-0.7 l 1.75,-5.45"
         fill="#7b7b7b"
         fill-rule="evenodd"
         stroke="none"
         id="path4" />
    </g>
    <g
       id="sprite1"
       transform="translate(17.4,15.85)">
      <use
         ffdec:characterId="31"
         height="57.200001"
         transform="matrix(0.5366,0,0,0.5366,-16.6582,-14.546)"
         width="70.75"
         xlink:href="#sprite2"
         id="use4" />
    </g>
    <g
       id="sprite2"
       transform="translate(-8.65,-10.35)">
      <use
         ffdec:characterId="30"
         height="57.200001"
         transform="translate(8.65,10.35)"
         width="70.75"
         xlink:href="#shape1"
         id="use5" />
    </g>
    <g
       id="shape1"
       transform="translate(-8.65,-10.35)">
      <path
         d="m 14.8,41.7 q 0.65,-1.75 2.65,-2.5 1.8,-0.8 3.7,-0.25 1.15,0.45 2.25,1.2 l 0.9,0.4 q 1.65,0.9 2.85,2.5 L 37.8,30.1 q 2.35,-2.8 3.75,-3.95 1.5,-1.15 4.25,-2.4 18.2,-8.85 27.65,-12.6 2.15,-0.8 3.25,-0.8 h 0.8 l 1.9,2.4 -0.2,0.8 q -0.2,1.1 -1.55,3 -5.85,8.25 -18.85,23.8 -1.85,2.35 -3.35,3.5 -1.4,1.15 -4.75,2.75 l -15.15,7.15 q 1.2,1.6 1.75,3.4 l 0.2,1 0.55,2.5 q 0.1,1.95 -1.1,3.55 -1.2,1.65 -3.05,1.9 l -1.3,0.05 q -1.65,0.2 -3.45,-0.65 -1.85,-0.9 -3,-2.6 L 25,60.95 23.8,62.1 q -2.6,2.85 -4.3,3.95 -2.85,1.8 -5.5,1.45 l -1.65,-0.5 -1.2,-0.7 -0.2,-0.2 q -1,-0.85 -1.6,-1.9 L 9.25,64 9.15,63.8 8.75,62.4 q -0.2,-0.8 -0.05,-1.7 0.25,-2.65 2.7,-5.05 1.5,-1.3 4.9,-3.15 L 17.7,51.55 16.05,50 q -1.35,-1.5 -1.8,-3.6 -0.4,-1.85 0.25,-3.45 l 0.3,-1.25"
         fill="#000000"
         fill-opacity="0.372549"
         fill-rule="evenodd"
         stroke="none"
         id="path5" />
    </g>
  </defs>
</svg>
