<?xml version="1.0" encoding="UTF-8" standalone="no"?>
<svg
   ffdec:objectType="frame"
   height="90.481903"
   width="64.970825"
   version="1.1"
   id="svg5"
   sodipodi:docname="ITEM Used Shirt.svg"
   xmlns:inkscape="http://www.inkscape.org/namespaces/inkscape"
   xmlns:sodipodi="http://sodipodi.sourceforge.net/DTD/sodipodi-0.dtd"
   xmlns:xlink="http://www.w3.org/1999/xlink"
   xmlns="http://www.w3.org/2000/svg"
   xmlns:svg="http://www.w3.org/2000/svg"
   xmlns:ffdec="https://www.free-decompiler.com/flash">
  <sodipodi:namedview
     id="namedview5"
     pagecolor="#ffffff"
     bordercolor="#000000"
     borderopacity="0.25"
     inkscape:showpageshadow="2"
     inkscape:pageopacity="0.0"
     inkscape:pagecheckerboard="0"
     inkscape:deskcolor="#d1d1d1"
     fit-margin-top="5"
     fit-margin-left="5"
     fit-margin-right="5"
     fit-margin-bottom="5" />
  <g
     transform="translate(36.097297,42.822321)"
     id="g1">
    <use
       ffdec:characterId="17"
       height="119.15"
       id="rarity"
       transform="translate(-58.5,-60.65)"
       width="119.15"
       xlink:href="#sprite0" />
    <use
       ffdec:characterId="740"
       height="90.449997"
       transform="translate(-36.1,-42.8)"
       width="64.949997"
       xlink:href="#shape0"
       id="use1" />
  </g>
  <defs
     id="defs5">
    <g
       id="shape0"
       transform="translate(36.65,43.55)">
      <path
         d="m 1.6,-43.5 q 12.4,-0.9 19.3,9.4 l 1.9,3.35 q 4.6,9.1 4.2,19.6 1.5,5.85 1.3,12 -0.35,10.45 -2.2,20.6 v 0.85 l -0.4,4.95 -0.6,5.35 q 0.45,1.7 -0.4,3.2 -2.75,5.2 -9.15,3.8 -1.85,-0.4 -3.3,-1.55 l -0.5,0.15 -0.2,0.2 -0.35,0.45 -0.1,0.2 -0.2,0.4 -0.15,0.25 v 0.2 0.65 1.05 L 10.6,42.9 Q 6.8,49.45 0.15,45.3 -4.15,42.65 -3.8,37.7 l 0.1,-2.6 -0.15,-0.2 -1.35,-2 Q -6.55,31.2 -8.55,30.55 H -11 q -5.45,3.55 -11.85,3.7 -4.25,0.05 -4.75,-3.55 -0.45,-2.9 -1.2,-5.75 -0.8,-2.85 -0.5,-5.85 l 0.15,-0.2 1.1,-1.3 2,-1.9 0.25,-0.25 -0.05,-0.2 L -26,15 l -0.15,-0.2 -0.15,-0.2 -0.2,-0.25 q -2.7,2.75 -6.1,3.6 -0.85,0.2 -1.45,-0.5 -3.1,-3.65 -2.5,-8.65 1.6,-13.25 5.25,-25.95 l 0.05,-0.25 q 1.3,-7.35 6.55,-12.95 5,-5.35 11.65,-8.7 6.95,-3.5 14.65,-4.45 m -2.75,16.45 q -4.3,3.4 -6,8.9 l -2.05,6.55 q -3.15,9.85 -3.25,20.2 l 1.8,2.95 1.35,1.75 1.9,1.1 0.5,0.4 q 4.4,3.3 8.85,0.6 L 3.75,13.7 5,12.8 Q 5.65,11.7 6.75,11 L 7.95,10.25 8.3,9.35 Q 8.45,8.65 8.95,8.1 L 9.05,7.45 9.35,6.6 9.45,6.35 9.55,5.1 10.05,3.35 Q 10.1,-1.2 9.2,-5.65 8.7,-8.2 8.75,-10.8 8,-12.65 7.85,-14.65 l -0.25,-3 -1.7,-5.55 Q 5.4,-25 4.1,-26.4 l -1.15,-0.35 -0.55,-0.3 q -1.75,-0.85 -3.55,0 m 22.6,59.95 q 0.2,-0.5 0.65,-0.8 L 22.35,31.9 22.2,30.6 V 29.95 29.1 q 0,-0.65 0.25,-1.3 0,-6.15 0.75,-12.2 1.2,-10.05 0.9,-20.4 l -0.9,-4 q -0.4,-2.65 -0.55,-5.4 -0.1,-1.8 -0.05,-3.7 -0.35,-0.9 -0.35,-1.9 l -0.2,-1.7 -0.6,-2.15 -0.1,-0.25 q -0.55,-3.6 -2.85,-6.5 -3.95,-5.1 -9.45,-8.2 l -7.3,-0.3 Q -11,-37 -20.3,-28.05 q -2.3,2.2 -3.9,4.95 l -0.65,0.85 -0.25,0.85 -0.25,0.45 -0.3,0.45 -0.15,0.2 q -0.1,1.45 -0.45,2.85 l -1,3.6 -0.9,3.2 0.05,0.85 -0.1,0.4 -0.2,0.65 -0.25,0.45 -0.15,1.1 -0.1,0.65 -0.1,0.6 -0.3,0.85 -0.6,3.85 -0.85,5.2 Q -31,5.85 -31.6,7.6 v 1.25 0.9 l 0.2,1.5 q 0.15,0.4 0.15,0.85 6,-5.15 9.65,1.6 1.7,3.2 -1.25,5.6 l -1.95,1.75 0.55,2.35 0.85,3 0.8,2.8 2.85,-0.25 q 2.95,-0.6 5.75,-2.2 1.5,-0.9 3.05,-1.15 2.65,-0.45 5.35,1.1 3,1.7 4.65,4.05 1.8,2.6 1.9,6.1 l -0.1,2.35 0.55,1.3 0.45,0.85 1.3,1.4 2.15,0.1 1,-0.3 Q 6.8,42 6.95,41.25 L 7,40.4 7.05,38.9 7.15,38.05 Q 8.3,34.9 11.6,33.75 l 0.85,-0.2 q 1.6,-0.2 3,0.95 0.65,0.55 1.6,0.55 l 3,-0.15 1.05,-1.25 0.3,-0.7 0.05,-0.05 M -18.6,4.65 -18.65,5 l -0.4,0.7 q -0.6,1.35 -1.45,2.5 -2.65,1 -4.25,-1.4 L -25.8,5.6 q -0.55,-2.7 0.6,-5.1 1.05,-2.2 3.25,-2.7 2.7,0.05 3.55,1.7 0.55,1.2 0.15,3.2 l -0.35,1.95 m 7,-22.2 q 2.2,-5.85 5.7,-11 l 1.65,-1.65 q 1.3,-0.85 2.6,-1.1 9,-1.2 11.25,6.65 l 0.5,1.75 q 3.15,11.85 3.5,24.2 0.3,8.95 -6.9,13.75 V 15.1 Q 5.75,15.7 5.05,16.55 L 4.45,17.4 Q -1.6,23.45 -9.4,18.95 l -2.2,-1.5 q -1.2,-0.9 -2.1,-1.95 -3.6,-4 -3.45,-9.9 0.2,-6.5 2.25,-12.55 l 1.5,-5 1.8,-5.6 M 8.1,22.1 8.6,22 v -0.05 q 6.55,0.1 5.7,6.1 l -0.15,0.65 q -0.3,1.6 -1.7,2.6 l -0.3,0.15 -0.25,0.1 -0.25,0.05 -0.25,0.25 -0.15,0.1 -0.2,0.05 -0.8,0.05 H 9.65 L 9.3,32.25 7.9,32.5 7.25,32.4 6.8,32.1 Q 5.55,31.2 4.85,29.85 4.3,28.85 4.2,27.75 v -1.4 l 0.1,-0.6 0.6,-0.8 Q 6.2,23.2 8.05,22.1 H 8.1 m 1.15,2.85 -1.4,1.5 -0.6,0.65 0.05,0.45 v 0.65 l 1.5,1.05 0.25,0.2 0.9,0.25 q 1.1,-0.65 1.6,-1.75 L 11.75,27.3 11.6,26.45 11.4,25.6 q -0.9,-1 -2.15,-0.65 M -21.6,0.65 -23.4,2.2 -23.85,3 V 3.65 4.3 4.5 L -23,5.65 q 0.45,0.45 1.05,0.35 l 0.5,-1.1 0.6,-1.25 -0.05,-1.7 q 0.05,-1.2 -0.7,-1.3"
         fill="#000000"
         fill-rule="evenodd"
         stroke="none"
         id="path1" />
      <path
         d="m -19.75,28.95 -1.05,-1.3 q -0.6,-1 -0.3,-2.2 0.6,-1.55 1.8,-2.7 1.35,-1.35 3.1,-2.15 l 0.2,-0.05 0.55,-0.05 v -0.05 l 1.1,0.15 q 2.7,0.45 3.35,2.35 0.35,1.05 0.05,2.65 -1.55,0.25 -3.05,1.15 -2.8,1.6 -5.75,2.2 M 7.55,21.55 8.1,22.1 H 8.05 Q 6.2,23.2 4.9,24.95 L 4.3,25.75 4.2,26.35 4.15,26.3 Q 2.7,25.2 2.5,24.1 q -0.35,-1.5 1.55,-3 0.7,-0.55 1.45,-0.6 1.3,0.45 2.05,1.05 m 6.75,6.5 0.4,-0.15 q 6.8,-0.4 6.75,5 l -0.05,0.05 -0.3,0.7 -1.05,1.25 -3,0.15 q -0.95,0 -1.6,-0.55 -1.4,-1.15 -3,-0.95 l -0.1,-0.25 -0.45,-1.75 0.25,-0.1 0.3,-0.15 q 1.4,-1 1.7,-2.6 l 0.15,-0.65 m -13.35,8.8 q -0.1,-3.5 -1.9,-6.1 1.1,-2.1 3.85,-3.05 l 1.3,0.05 q 0.1,1.1 0.65,2.1 0.7,1.35 1.95,2.25 L 6.75,33.05 Q 4.9,37.5 0.95,36.85 M 20.6,4.2 21.2,4.35 21.65,4.8 q 0.35,0.35 0.3,0.85 v 0.2 L 21.8,6.3 21.55,6.7 21.15,6.9 20.6,7.1 19.75,6.65 19.35,6.3 19.25,5.85 Q 19.1,5.3 19.45,4.8 l 0.6,-0.4 0.55,-0.2 m -32.2,13.25 -0.4,0.35 -0.75,0.2 -0.95,-0.25 -0.2,-0.25 -0.15,-0.2 -0.15,-0.2 -0.05,-0.45 0.2,-0.85 0.2,-0.2 0.15,-0.1 q 0.9,1.05 2.1,1.95 m 28.55,0 1.05,0.4 0.3,0.15 q 0.6,0.8 0.45,1.7 -0.2,1 -1.05,1.45 L 17,21.2 15.9,20.95 Q 15.3,20.55 15.15,19.85 15,19.25 15.2,18.6 l 0.3,-0.4 0.75,-0.6 0.2,-0.05 0.5,-0.05 V 17.45 M -20.8,-22.4 q 6.75,0.8 4.3,6.6 -0.9,2.05 -3.1,2.6 -3.7,0.95 -5.5,-2.05 -0.35,-2.2 0.65,-4.25 1.15,-2.45 3.65,-2.9 m -4.95,13.3 q 1.35,0.25 1.8,1.45 l 0.1,0.85 -0.1,0.2 -0.3,0.45 -0.2,0.2 -0.35,0.2 -0.55,0.15 -0.65,-0.1 -0.8,-0.65 -0.45,-0.65 -0.05,-0.65 0.55,-1.05 0.4,-0.2 0.6,-0.2"
         fill="#b4b4b4"
         fill-rule="evenodd"
         stroke="none"
         id="path2" />
      <path
         d="m -14.35,20.6 q -2.1,-2.05 -2.85,-4.95 -0.75,-3.1 -1,-6.2 l -0.4,-4.8 0.35,-1.95 q 0.4,-2 -0.15,-3.2 0.45,-4.6 1.9,-9.1 l 2.45,-5.85 q 0.75,-1.25 2,-2.05 l 0.45,-0.05 -1.8,5.6 -1.5,5 q -2.05,6.05 -2.25,12.55 -0.15,5.9 3.45,9.9 l -0.15,0.1 -0.2,0.2 -0.2,0.85 0.05,0.45 0.15,0.2 0.15,0.2 0.2,0.25 0.95,0.25 0.75,-0.2 0.4,-0.35 2.2,1.5 q 7.8,4.5 13.85,-1.55 l 0.6,-0.85 1.2,-1.05 0.45,-0.4 v -0.05 q 7.2,-4.8 6.9,-13.75 -0.35,-12.35 -3.5,-24.2 4.4,11.75 5.45,24.25 0.3,3.9 -0.75,7.5 -1.4,7.55 -7.2,12.6 l -0.05,0.1 Q 6.8,20.95 5.5,20.5 q -0.75,0.05 -1.45,0.6 -1.9,1.5 -1.55,3 -7.45,2.05 -13.5,-1.15 -0.65,-1.9 -3.35,-2.35"
         fill="#d2d2d2"
         fill-rule="evenodd"
         stroke="none"
         id="path3" />
      <path
         d="m -19.75,28.95 -2.85,0.25 -0.8,-2.8 -0.85,-3 -0.55,-2.35 1.95,-1.75 q 2.95,-2.4 1.25,-5.6 -3.65,-6.75 -9.65,-1.6 0,-0.45 -0.15,-0.85 l -0.2,-1.5 V 8.85 7.6 q 0.6,-1.75 0.85,-3.65 l 0.85,-5.2 0.6,-3.85 0.3,-0.85 0.1,-0.6 0.1,-0.65 0.15,-1.1 0.25,-0.45 0.2,-0.65 0.1,-0.4 -0.05,-0.85 0.9,-3.2 1,-3.6 q 0.35,-1.4 0.45,-2.85 l 0.15,-0.2 0.3,-0.45 0.25,-0.45 0.25,-0.85 0.65,-0.85 q 1.6,-2.75 3.9,-4.95 Q -11,-37 1.75,-38.9 l 7.3,0.3 q 5.5,3.1 9.45,8.2 2.3,2.9 2.85,6.5 l 0.1,0.25 0.6,2.15 0.2,1.7 q 0,1 0.35,1.9 -0.05,1.9 0.05,3.7 0.15,2.75 0.55,5.4 l 0.9,4 q 0.3,10.35 -0.9,20.4 -0.75,6.05 -0.75,12.2 -0.25,0.65 -0.25,1.3 v 0.85 0.65 l 0.15,1.3 -0.25,0.2 q -0.45,0.3 -0.65,0.8 0.05,-5.4 -6.75,-5 l -0.4,0.15 q 0.85,-6 -5.7,-6.1 V 22 L 8.1,22.1 7.55,21.55 7.6,21.45 q 5.8,-5.05 7.2,-12.6 1.05,-3.6 0.75,-7.5 -1.05,-12.5 -5.45,-24.25 l -0.5,-1.75 q -2.25,-7.85 -11.25,-6.65 -1.3,0.25 -2.6,1.1 l -1.65,1.65 q -3.5,5.15 -5.7,11 l -0.45,0.05 q -1.25,0.8 -2,2.05 l -2.45,5.85 q -1.45,4.5 -1.9,9.1 -0.85,-1.65 -3.55,-1.7 -2.2,0.5 -3.25,2.7 -1.15,2.4 -0.6,5.1 l 1.05,1.2 q 1.6,2.4 4.25,1.4 0.85,-1.15 1.45,-2.5 l 0.4,-0.7 0.05,-0.35 0.4,4.8 q 0.25,3.1 1,6.2 0.75,2.9 2.85,4.95 l -1.1,-0.15 v 0.05 l -0.55,0.05 -0.2,0.05 q -1.75,0.8 -3.1,2.15 -1.2,1.15 -1.8,2.7 -0.3,1.2 0.3,2.2 l 1.05,1.3 m 32.2,4.6 -0.85,0.2 Q 8.3,34.9 7.15,38.05 L 7.05,38.9 7,40.4 6.95,41.25 Q 6.8,42 6.3,42.55 l -1,0.3 -2.15,-0.1 -1.3,-1.4 L 1.4,40.5 0.85,39.2 0.95,36.85 q 3.95,0.65 5.8,-3.8 l 0.05,-0.95 0.45,0.3 0.65,0.1 1.4,-0.25 0.35,-0.2 h 0.6 l 0.8,-0.05 0.2,-0.05 0.15,-0.1 0.25,-0.25 0.25,-0.05 0.45,1.75 0.1,0.25 m -13.4,-2.8 Q -2.6,28.4 -5.6,26.7 q -2.7,-1.55 -5.35,-1.1 0.3,-1.6 -0.05,-2.65 6.05,3.2 13.5,1.15 0.2,1.1 1.65,2.2 l 0.05,0.05 v 1.4 L 2.9,27.7 q -2.75,0.95 -3.85,3.05 M 20.6,4.2 20.05,4.4 19.45,4.8 q -0.35,0.5 -0.2,1.05 l 0.1,0.45 0.4,0.35 0.85,0.45 0.55,-0.2 0.4,-0.2 0.25,-0.4 0.15,-0.45 V 5.65 Q 22,5.15 21.65,4.8 L 21.2,4.35 20.6,4.2 m -3.65,13.25 v 0.05 l -0.5,0.05 -0.2,0.05 -0.75,0.6 -0.3,0.4 q -0.2,0.65 -0.05,1.25 0.15,0.7 0.75,1.1 L 17,21.2 17.7,21.15 Q 18.55,20.7 18.75,19.7 18.9,18.8 18.3,18 L 18,17.85 16.95,17.45 m -42.7,-26.55 -0.6,0.2 -0.4,0.2 -0.55,1.05 0.05,0.65 0.45,0.65 0.8,0.65 0.65,0.1 0.55,-0.15 0.35,-0.2 0.2,-0.2 0.3,-0.45 0.1,-0.2 -0.1,-0.85 q -0.45,-1.2 -1.8,-1.45 m 4.95,-13.3 q -2.5,0.45 -3.65,2.9 -1,2.05 -0.65,4.25 1.8,3 5.5,2.05 2.2,-0.55 3.1,-2.6 2.45,-5.8 -4.3,-6.6"
         fill="#f0f0f0"
         fill-rule="evenodd"
         stroke="none"
         id="path4" />
    </g>
    <g
       id="sprite1"
       transform="translate(17.4,15.85)">
      <use
         ffdec:characterId="31"
         height="57.200001"
         transform="matrix(0.5366,0,0,0.5366,-16.6582,-14.546)"
         width="70.75"
         xlink:href="#sprite2"
         id="use4" />
    </g>
    <g
       id="sprite2"
       transform="translate(-8.65,-10.35)">
      <use
         ffdec:characterId="30"
         height="57.200001"
         transform="translate(8.65,10.35)"
         width="70.75"
         xlink:href="#shape1"
         id="use5" />
    </g>
    <g
       id="shape1"
       transform="translate(-8.65,-10.35)">
      <path
         d="m 14.8,41.7 q 0.65,-1.75 2.65,-2.5 1.8,-0.8 3.7,-0.25 1.15,0.45 2.25,1.2 l 0.9,0.4 q 1.65,0.9 2.85,2.5 L 37.8,30.1 q 2.35,-2.8 3.75,-3.95 1.5,-1.15 4.25,-2.4 18.2,-8.85 27.65,-12.6 2.15,-0.8 3.25,-0.8 h 0.8 l 1.9,2.4 -0.2,0.8 q -0.2,1.1 -1.55,3 -5.85,8.25 -18.85,23.8 -1.85,2.35 -3.35,3.5 -1.4,1.15 -4.75,2.75 l -15.15,7.15 q 1.2,1.6 1.75,3.4 l 0.2,1 0.55,2.5 q 0.1,1.95 -1.1,3.55 -1.2,1.65 -3.05,1.9 l -1.3,0.05 q -1.65,0.2 -3.45,-0.65 -1.85,-0.9 -3,-2.6 L 25,60.95 23.8,62.1 q -2.6,2.85 -4.3,3.95 -2.85,1.8 -5.5,1.45 l -1.65,-0.5 -1.2,-0.7 -0.2,-0.2 q -1,-0.85 -1.6,-1.9 L 9.25,64 9.15,63.8 8.75,62.4 q -0.2,-0.8 -0.05,-1.7 0.25,-2.65 2.7,-5.05 1.5,-1.3 4.9,-3.15 L 17.7,51.55 16.05,50 q -1.35,-1.5 -1.8,-3.6 -0.4,-1.85 0.25,-3.45 l 0.3,-1.25"
         fill="#000000"
         fill-opacity="0.372549"
         fill-rule="evenodd"
         stroke="none"
         id="path5" />
    </g>
  </defs>
</svg>
