<?xml version="1.0" encoding="UTF-8" standalone="no"?>
<svg
   ffdec:objectType="frame"
   height="74.5"
   width="90.237503"
   version="1.1"
   id="svg7"
   xmlns:xlink="http://www.w3.org/1999/xlink"
   xmlns="http://www.w3.org/2000/svg"
   xmlns:svg="http://www.w3.org/2000/svg"
   xmlns:ffdec="https://www.free-decompiler.com/flash">
  <g
     transform="translate(46.0625,38.7)"
     id="g1">
    <use
       ffdec:characterId="17"
       height="119.15"
       id="rarity"
       transform="translate(-58.5,-60.65)"
       width="119.15"
       xlink:href="#sprite0" />
    <use
       ffdec:characterId="1283"
       height="74.5"
       transform="translate(-46.05,-38.7)"
       width="90.199997"
       xlink:href="#shape0"
       id="use1" />
  </g>
  <defs
     id="defs7">
    <g
       id="shape0"
       transform="translate(44.75,36.8)">
      <path
         d="m 1,-36.5 4,-0.3 2.7,0.65 2.65,0.85 7.55,2 q 6.45,1.55 12.9,3.7 2.25,0.75 3.1,1.8 l 1,2.55 1.25,7.2 1.3,7.2 q 0.45,2.2 2.05,8.15 l 1.65,6.95 0.15,0.25 0.9,1.8 1.4,2.45 1,1.5 0.65,2.6 q 0.45,2.45 0,3.6 l -1.35,2.05 -1.7,1.65 -1.3,0.9 -0.85,2.15 -3.6,5.45 -1.85,2.05 -1.9,0.9 -5.05,1.05 -5.15,0.75 -3.75,0.8 -0.8,0.1 -1.3,1.9 -1.3,0.95 -0.85,0.25 -2.3,0.25 -4.05,0.05 q -2.6,0 -3.7,-0.7 l -1.2,-1.2 -0.5,-0.7 -1.85,0.3 -5.35,0.4 -16.25,0.85 -5.1,-0.45 q -2.3,-0.65 -4.75,-2.1 -5.4,-3.1 -11.6,-8.95 -2.1,-2 -2.5,-3.6 -0.3,-1.15 0.2,-3.6 l 2.05,-6.9 2,-6.15 V 3.25 l 0.75,-2.45 q 1.75,-4.5 3.6,-11.15 l 3.1,-11.4 q 1.4,-4.5 3.1,-6.15 1.4,-1.35 4.9,-2.6 10.5,-3.55 25.95,-6 m 5.15,9.45 -0.25,-1.65 -0.1,-1.5 -1.6,-0.25 -3.8,0.4 -12.1,2.45 q -6.55,1.55 -11.75,3.45 -1.5,0.45 -2.05,1.1 l -0.85,1.85 -7.8,24.9 -2.85,8.2 -0.1,0.35 -1.15,3.7 3.2,-1.4 1.6,-0.65 1.25,-0.35 1.65,-0.55 q 0.25,-1.3 0.65,-1.8 0.35,-0.7 1.65,-1.7 l 2.75,-1.7 q 0.55,-0.3 2.05,-0.85 l 1.9,-1 7.35,-2.8 6.5,-2.25 3.55,-0.55 Q -2.7,0.45 -0.9,1.3 3.35,2.95 8.9,6.65 L 9.45,6.15 Q 8.8,3.45 8.5,-0.05 L 8.1,-7.35 Q 7.55,-17.7 6.15,-27.05 M 31,-20 30.3,-23.7 q -4.05,-1.6 -10.9,-3.15 l -4.7,-1.1 -4.5,-1.05 0.3,2.95 0.4,4.3 0.15,4.35 0.35,13.95 0.1,3.9 0.05,4.7 4.3,-1.95 Q 18.6,1.95 20.5,1.3 22.2,0.55 23.55,0.55 L 26.8,1.05 29.75,2.1 37,4.85 36.5,3.1 Q 33.35,-8.55 31,-20 M 40.25,12.9 40.2,12.35 39.55,10.95 39.05,10 38.3,9.85 Q 31.35,8.4 27.8,6.9 26.15,6.1 25.1,6.05 23.95,6 22.3,6.6 q -3.65,1.45 -7.45,3.6 -2.9,1.55 -4.6,1.1 L 8.55,11.2 Q 6.4,10.95 3.5,9.6 L -1.3,7.45 q -1.8,-0.8 -2.95,-0.8 l -2.5,0.55 q -4.1,1.4 -7.05,2.55 -11.35,3.6 -11.9,6 l -0.3,0.15 -0.75,2.75 -0.1,0.3 -0.05,0.9 q 0.1,0.95 1,1.65 l 1.45,0.75 0.9,-1.35 1.1,-1.4 1.35,-1.05 q 0.65,-0.5 1.2,-0.6 0.35,-0.35 1.1,-0.75 5.4,-2.7 10.9,-3.9 l 2.2,-0.15 q 0.35,0.05 1.85,0.85 l 2.8,1.2 q 2.8,1.1 5.15,2.4 2.35,1.3 2.75,2.7 L 6.9,21.3 7,21.6 q 0.3,0.45 0.2,1.1 L 6.9,23.45 5.7,25.8 5.35,26.3 5.2,26.9 4.9,27.45 4.65,28.1 4.45,28.55 4.75,29.2 Q 5.2,30.25 6.1,30.85 7.85,32.1 10.3,32 l 1.8,-0.35 q 1.5,-0.65 2.45,-2.6 0.65,-1.25 0.8,-2.45 l -0.45,-0.4 -1.35,-2.25 -0.65,-1 -0.55,-1.05 q -0.15,-0.6 0,-1.15 h 0.05 l 0.25,-0.8 q 0.15,-0.4 0.4,-0.65 l 0.65,-1.1 q 1.3,-2.15 2.85,-3.6 1.2,-1.1 3.25,-2.35 1.65,-1.1 2.75,-1.3 1.35,-0.25 3.2,-0.05 l 6.3,1.35 2.45,0.7 q 1.5,0.4 2.45,0.95 l 0.4,0.1 1.95,1.6 0.6,-0.6 0.55,-0.6 -0.15,-0.8 -0.05,-0.7 m -51.1,-1.2 -0.2,-0.25 q -0.35,-0.7 -0.2,-1.4 0.15,-0.85 0.8,-1.3 l 1.4,-0.15 1.3,0.8 q 0.3,0.45 0.35,1.05 v 0.25 q -0.1,1 -1,1.55 l -1.45,0.1 q -0.6,-0.2 -1,-0.65 M 8.2,13.85 Q 9.15,13.1 10.3,13.4 l 1.2,0.75 0.2,0.2 q 0.55,0.75 0.5,1.6 -0.05,0.85 -0.7,1.55 -0.55,0.65 -1.45,0.75 Q 9.2,18.3 8.45,17.7 7.65,17.25 7.4,16.4 7,14.95 7.95,14 L 8.2,13.85 M 21.9,9.35 Q 21.6,8.9 21.7,8.2 q 0.1,-1.1 1.1,-1.55 1,-0.35 1.95,0.25 0.85,0.75 0.8,1.75 V 8.7 Q 25.45,9.9 24.4,10.25 23.45,10.75 22.5,10 L 21.9,9.35 m 13.9,10 -0.1,-0.2 -0.35,-0.35 -0.4,-0.05 -2.2,-0.7 -4.45,-1.2 -2.6,-0.5 -2.25,-0.15 q -0.85,0.3 -1.5,0.85 -2.8,2 -4.1,3.45 l -0.1,0.1 0.15,0.25 0.55,1.95 1,1.2 0.3,0.4 0.65,2.05 0.2,0.45 0.35,0.8 3.6,-0.65 3.25,-0.35 2.8,-0.6 1,-0.5 0.65,-0.85 q 1.45,-2.4 3.7,-4.65 L 35.9,19.9 35.8,19.35 M -1.4,27.3 -0.25,25.4 1.2,23.2 1.5,22.6 0.25,21.9 -2.85,20.4 -5.9,18.95 q -1.2,-0.6 -1.7,-0.65 l -2.15,0.05 -2.7,0.7 -1.15,0.45 -0.2,0.1 -1.9,1.05 -0.8,0.5 -1.5,1.25 -0.1,0.2 -3.25,4.05 -0.05,0.05 q -0.55,0.9 -1.5,1.05 l -0.25,0.05 -0.45,0.1 q -1.55,0.3 -3.35,-0.55 l -1.2,-0.75 -1.85,-1.15 -0.25,-0.3 -0.4,-0.2 -1.75,-1.35 -0.2,-1.4 0.05,-0.5 0.8,-3.45 -4.2,1.25 -0.15,0.1 -1.4,0.5 -0.9,0.25 1,1 6.85,5.5 q 4.15,2.9 7.9,3.65 L -16,30.7 -1,29.75 -1.3,29.3 q -0.45,-0.9 -0.15,-1.9 l 0.05,-0.1"
         fill="#000000"
         fill-rule="evenodd"
         stroke="none"
         id="path1" />
      <path
         d="m -37,11.9 2.85,-8.2 7.8,-24.9 0.85,-1.85 q 0.55,-0.65 2.05,-1.1 5.2,-1.9 11.75,-3.45 l 12.1,-2.45 3.8,-0.4 1.6,0.25 0.1,1.5 0.25,1.65 L 6,-27 q -1.15,1 -4.1,1.65 l -21.8,4.65 -1.85,0.8 -1,1.55 -1.2,3.3 -1.05,3.4 q -0.55,1.7 -2.05,5 -2.75,6.3 -6.3,13.45 -1.7,3.45 -3.2,4.7 L -37,11.9 m 48.5,-11.45 -0.1,-3.9 -0.35,-13.95 -0.15,-4.35 -0.4,-4.3 -0.3,-2.95 4.5,1.05 4.7,1.1 q 6.85,1.55 10.9,3.15 l 0.7,3.7 -0.45,-0.1 -6.3,-2.1 q -3.85,-1.35 -6.4,-1.7 l -3.15,-0.45 q -0.2,6 -1.4,15.2 l -0.4,2.7 q -0.6,1.9 -0.7,2.9 l -0.1,1.85 -0.35,1.75 -0.25,0.4"
         fill="#d4d4d4"
         fill-rule="evenodd"
         stroke="none"
         id="path2" />
      <path
         d="m -26.75,18.65 0.75,-2.75 0.3,-0.15 q 0.55,-2.4 11.9,-6 2.95,-1.15 7.05,-2.55 l 2.5,-0.55 q 1.15,0 2.95,0.8 L 3.5,9.6 q 2.9,1.35 5.05,1.6 l 1.7,0.1 q 1.7,0.45 4.6,-1.1 3.8,-2.15 7.45,-3.6 1.65,-0.6 2.8,-0.55 1.05,0.05 2.7,0.85 3.55,1.5 10.5,2.95 l 0.75,0.15 0.5,0.95 0.65,1.4 0.05,0.55 -0.35,0.05 Q 38.8,13.1 36.55,12.2 L 30.25,9.75 Q 27.5,8.8 25.55,8.65 25.6,7.65 24.75,6.9 23.8,6.3 22.8,6.65 q -1,0.45 -1.1,1.55 -0.1,0.7 0.2,1.15 -0.75,0.35 -1.8,1 -1.95,1.15 -6.55,3.05 L 11.5,14.15 10.3,13.4 Q 9.15,13.1 8.2,13.85 L 7.05,13.4 Q 2.35,11.2 -2.85,9.75 L -4.3,9.45 -6.35,10 -7.4,10.45 Q -7.45,9.85 -7.75,9.4 l -1.3,-0.8 -1.4,0.15 q -0.65,0.45 -0.8,1.3 -0.15,0.7 0.2,1.4 l 0.2,0.25 -5.2,1.75 q -5.7,2.05 -9.1,4.45 -0.9,0.65 -1.6,0.75"
         fill="#d8d1c3"
         fill-rule="evenodd"
         stroke="none"
         id="path3" />
      <path
         d="m -26.75,18.65 q 0.7,-0.1 1.6,-0.75 3.4,-2.4 9.1,-4.45 l 5.2,-1.75 q 0.4,0.45 1,0.65 l 1.45,-0.1 q 0.9,-0.55 1,-1.55 V 10.45 L -6.35,10 -4.3,9.45 l 1.45,0.3 q 5.2,1.45 9.9,3.65 L 8.2,13.85 7.95,14 Q 7,14.95 7.4,16.4 q 0.25,0.85 1.05,1.3 0.75,0.6 1.6,0.55 0.9,-0.1 1.45,-0.75 0.65,-0.7 0.7,-1.55 0.05,-0.85 -0.5,-1.6 l -0.2,-0.2 2.05,-0.75 q 4.6,-1.9 6.55,-3.05 1.05,-0.65 1.8,-1 L 22.5,10 q 0.95,0.75 1.9,0.25 Q 25.45,9.9 25.55,8.7 V 8.65 q 1.95,0.15 4.7,1.1 l 6.3,2.45 q 2.25,0.9 3.35,0.75 l 0.35,-0.05 0.05,0.7 0.15,0.8 L 39.9,15 39.3,15.6 37.35,14 36.95,13.9 Q 36,13.35 34.5,12.95 l -2.45,-0.7 -6.3,-1.35 q -1.85,-0.2 -3.2,0.05 -1.1,0.2 -2.75,1.3 -2.05,1.25 -3.25,2.35 -1.55,1.45 -2.85,3.6 l -0.65,1.1 q -0.25,0.25 -0.4,0.65 l -0.25,0.8 h -0.05 q -0.15,0.55 0,1.15 l 0.55,1.05 0.65,1 1.35,2.25 0.45,0.4 Q 15.2,27.8 14.55,29.05 13.6,31 12.1,31.65 L 10.3,32 Q 7.85,32.1 6.1,30.85 5.2,30.25 4.75,29.2 L 4.45,28.55 4.65,28.1 4.9,27.45 5.2,26.9 5.35,26.3 5.7,25.8 6.9,23.45 7.2,22.7 Q 7.3,22.05 7,21.6 L 6.9,21.3 6.85,20.2 Q 6.45,18.8 4.1,17.5 1.75,16.2 -1.05,15.1 l -2.8,-1.2 q -1.5,-0.8 -1.85,-0.85 l -2.2,0.15 q -5.5,1.2 -10.9,3.9 -0.75,0.4 -1.1,0.75 -0.55,0.1 -1.2,0.6 l -1.35,1.05 -1.1,1.4 -0.9,1.35 -1.45,-0.75 q -0.9,-0.7 -1,-1.65 l 0.05,-0.9 0.1,-0.3"
         fill="#aca597"
         fill-rule="evenodd"
         stroke="none"
         id="path4" />
      <path
         d="m -37,11.9 0.45,-0.4 q 1.5,-1.25 3.2,-4.7 3.55,-7.15 6.3,-13.45 1.5,-3.3 2.05,-5 l 1.05,-3.4 1.2,-3.3 1,-1.55 1.85,-0.8 21.8,-4.65 Q 4.85,-26 6,-27 l 0.15,-0.05 q 1.4,9.35 1.95,19.7 l 0.4,7.3 q 0.3,3.5 0.95,6.2 L 8.9,6.65 Q 3.35,2.95 -0.9,1.3 -2.7,0.45 -4.15,0.35 l -3.55,0.55 -6.5,2.25 -7.35,2.8 -1.9,1 q -1.5,0.55 -2.05,0.85 l -2.75,1.7 q -1.3,1 -1.65,1.7 -0.4,0.5 -0.65,1.8 l -1.65,0.55 -1.25,0.35 -1.6,0.65 -3.2,1.4 1.15,-3.7 0.1,-0.35 M 11.5,0.45 11.75,0.05 12.1,-1.7 12.2,-3.55 q 0.1,-1 0.7,-2.9 l 0.4,-2.7 q 1.2,-9.2 1.4,-15.2 l 3.15,0.45 q 2.55,0.35 6.4,1.7 l 6.3,2.1 0.45,0.1 q 2.35,11.45 5.5,23.1 L 37,4.85 29.75,2.1 26.8,1.05 23.55,0.55 q -1.35,0 -3.05,0.75 -1.9,0.65 -4.65,1.9 l -4.3,1.95 -0.05,-4.7 m 8.25,23.95 2.95,-0.3 6.45,-0.8 2,-0.55 1.6,-1.4 q 1.4,-1.25 3.05,-2 l 0.1,0.55 0.05,0.2 q -2.25,2.25 -3.7,4.65 l -0.65,0.85 -1,0.5 -2.8,0.6 -3.25,0.35 -3.6,0.65 -0.35,-0.8 -0.2,-0.45 -0.65,-2.05 m -42.65,3.35 3.5,0.4 5.95,-0.15 7.1,-0.65 2.2,-0.35 2.15,0.1 0.6,0.2 -0.05,0.1 q -0.3,1 0.15,1.9 l 0.3,0.45 -15,0.95 -6.65,-0.2 q -3.75,-0.75 -7.9,-3.65 l -6.85,-5.5 -1,-1 0.9,-0.25 1.4,-0.5 1.35,1.05 2.15,1.55 0.2,1.4 1.75,1.35 0.4,0.2 0.25,0.3 1.85,1.15 1.2,0.75 q 1.8,0.85 3.35,0.55 l 0.45,-0.1 0.25,-0.05"
         fill="#adadad"
         fill-rule="evenodd"
         stroke="none"
         id="path5" />
      <path
         d="m 35.8,19.35 q -1.65,0.75 -3.05,2 l -1.6,1.4 -2,0.55 -6.45,0.8 -2.95,0.3 -0.3,-0.4 -1,-1.2 -0.55,-1.95 -0.15,-0.25 0.1,-0.1 q 1.3,-1.45 4.1,-3.45 0.65,-0.55 1.5,-0.85 l 2.25,0.15 2.6,0.5 4.45,1.2 2.2,0.7 0.4,0.05 0.35,0.35 0.1,0.2 m -58.7,8.4 q 0.95,-0.15 1.5,-1.05 l 0.05,-0.05 3.25,-4.05 0.1,-0.2 1.5,-1.25 0.8,-0.5 1.9,-1.05 0.2,-0.1 1.15,-0.45 2.7,-0.7 2.15,-0.05 q 0.5,0.05 1.7,0.65 l 3.05,1.45 3.1,1.5 1.25,0.7 -0.3,0.6 -1.45,2.2 -1.15,1.9 -0.6,-0.2 -2.15,-0.1 -2.2,0.35 -7.1,0.65 -5.95,0.15 -3.5,-0.4 m -13.2,-8.15 0.15,-0.1 4.2,-1.25 -0.8,3.45 -0.05,0.5 -2.15,-1.55 -1.35,-1.05"
         fill="#858585"
         fill-rule="evenodd"
         stroke="none"
         id="path6" />
    </g>
    <g
       id="sprite1"
       transform="translate(17.4,15.85)">
      <use
         ffdec:characterId="31"
         height="57.200001"
         transform="matrix(0.5366,0,0,0.5366,-16.6582,-14.546)"
         width="70.75"
         xlink:href="#sprite2"
         id="use6" />
    </g>
    <g
       id="sprite2"
       transform="translate(-8.65,-10.35)">
      <use
         ffdec:characterId="30"
         height="57.200001"
         transform="translate(8.65,10.35)"
         width="70.75"
         xlink:href="#shape1"
         id="use7" />
    </g>
    <g
       id="shape1"
       transform="translate(-8.65,-10.35)">
      <path
         d="m 14.8,41.7 q 0.65,-1.75 2.65,-2.5 1.8,-0.8 3.7,-0.25 1.15,0.45 2.25,1.2 l 0.9,0.4 q 1.65,0.9 2.85,2.5 L 37.8,30.1 q 2.35,-2.8 3.75,-3.95 1.5,-1.15 4.25,-2.4 18.2,-8.85 27.65,-12.6 2.15,-0.8 3.25,-0.8 h 0.8 l 1.9,2.4 -0.2,0.8 q -0.2,1.1 -1.55,3 -5.85,8.25 -18.85,23.8 -1.85,2.35 -3.35,3.5 -1.4,1.15 -4.75,2.75 l -15.15,7.15 q 1.2,1.6 1.75,3.4 l 0.2,1 0.55,2.5 q 0.1,1.95 -1.1,3.55 -1.2,1.65 -3.05,1.9 l -1.3,0.05 q -1.65,0.2 -3.45,-0.65 -1.85,-0.9 -3,-2.6 L 25,60.95 23.8,62.1 q -2.6,2.85 -4.3,3.95 -2.85,1.8 -5.5,1.45 l -1.65,-0.5 -1.2,-0.7 -0.2,-0.2 q -1,-0.85 -1.6,-1.9 L 9.25,64 9.15,63.8 8.75,62.4 q -0.2,-0.8 -0.05,-1.7 0.25,-2.65 2.7,-5.05 1.5,-1.3 4.9,-3.15 L 17.7,51.55 16.05,50 q -1.35,-1.5 -1.8,-3.6 -0.4,-1.85 0.25,-3.45 l 0.3,-1.25"
         fill="#000000"
         fill-opacity="0.372549"
         fill-rule="evenodd"
         stroke="none"
         id="path7" />
    </g>
  </defs>
</svg>
