<?xml version="1.0" encoding="UTF-8" standalone="no"?>
<svg
   ffdec:objectType="frame"
   height="93.076424"
   width="66.779762"
   version="1.1"
   id="svg4"
   sodipodi:docname="ITEM Thief's Hood.svg"
   xmlns:inkscape="http://www.inkscape.org/namespaces/inkscape"
   xmlns:sodipodi="http://sodipodi.sourceforge.net/DTD/sodipodi-0.dtd"
   xmlns:xlink="http://www.w3.org/1999/xlink"
   xmlns="http://www.w3.org/2000/svg"
   xmlns:svg="http://www.w3.org/2000/svg"
   xmlns:ffdec="https://www.free-decompiler.com/flash">
  <sodipodi:namedview
     id="namedview4"
     pagecolor="#ffffff"
     bordercolor="#000000"
     borderopacity="0.25"
     inkscape:showpageshadow="2"
     inkscape:pageopacity="0.0"
     inkscape:pagecheckerboard="0"
     inkscape:deskcolor="#d1d1d1"
     fit-margin-top="5"
     fit-margin-left="5"
     fit-margin-right="5"
     fit-margin-bottom="5" />
  <g
     transform="translate(36.926866,47.709756)"
     id="g1">
    <use
       ffdec:characterId="17"
       height="119.15"
       id="rarity"
       transform="translate(-58.5,-60.65)"
       width="119.15"
       xlink:href="#sprite0" />
    <use
       ffdec:characterId="1226"
       height="93.050003"
       transform="translate(-36.95,-47.7)"
       width="66.800003"
       xlink:href="#shape0"
       id="use1" />
  </g>
  <defs
     id="defs4">
    <g
       id="shape0"
       transform="translate(35.65,45.8)">
      <path
         d="M -4.05,2.2 Q 0.1,3.15 4.7,7.95 10.15,13.6 11.65,19.1 12.4,22 11.6,24 10.95,25.5 9.2,26.9 l -3.9,2.6 q -2.35,1.55 -3.5,2.95 l -1.05,1.3 q -0.7,0.7 -1.4,0.75 -1,0.15 -1.75,-0.8 -0.65,-0.9 -0.55,-2 0.15,-1.1 1.15,-2.35 L -1.9,29.3 -2.85,27.9 -3.4,26.15 q -0.9,-3 -3.75,-6.75 l -4.8,-6.25 q -1.75,-2.8 -2.7,-5.6 L -15.1,5.6 -18.2,3.4 q -0.35,1.2 -0.3,2.05 l 0.45,1.85 0.25,2.35 q 0.5,3.9 5.1,8.9 l 4.25,4.35 1.6,1.8 q 0.75,1.1 0.7,2.15 -0.05,1.2 -1.1,2.05 -1.05,0.8 -2.25,0.55 -1.15,-0.2 -2.85,-2 L -18.6,20.5 q -2.3,-2.65 -3.25,-4.75 -1.25,-2.75 -1.65,-8.4 -0.2,-2.7 0.15,-4 l 0.7,-1.7 1.05,-1.75 q -0.85,-1.35 -0.6,-2.6 0.25,-1 1.2,-1.65 0.95,-0.65 1.95,-0.45 0.8,0.15 1.6,0.85 l 1.3,1.25 q 2.75,2.9 5.35,3.85 l 3.4,0.6 3.35,0.45 M -19.2,33.35 -24.3,29.3 q -2.7,-2.4 -4.35,-4.75 -2.1,-2.85 -4.2,-8.6 -3.05,-8.35 -2.75,-13.6 0.25,-4.8 2.75,-9.15 2.55,-4.3 6.65,-6.85 l 3.8,-1.95 3.9,-1.75 q 10.55,-4.85 17.55,-14.4 l 4.05,-6.1 q 2.45,-3.8 4.35,-5.9 1.55,-1.75 2.9,-2 1.7,-0.35 4.1,1.35 9.1,6.35 13.45,18.55 3.35,9.6 3.25,22.95 -0.1,9.9 -1.95,18.75 l -1.55,5.05 q -1.3,2.8 -4.05,5.55 -1.75,1.8 -5.3,4.55 -5.7,4.35 -8.6,5.85 l -0.65,0.3 Q 6.9,38.85 4.3,40 3.75,40.2 3.55,40.5 L 3.3,41.3 2.55,43.65 q -0.85,1.85 -1.8,2.6 -1,0.85 -2.5,1 -1.35,0.1 -2.7,-0.4 -1.9,-0.7 -3.15,-2.3 -0.85,-1.05 -1.15,-2.15 l -0.1,-1.45 -1.85,1 -1.95,0.95 -2.75,0.2 -2.55,-0.45 -1.15,-0.85 -0.85,-1.05 q -0.35,-0.7 -0.05,-2 l 0.65,-2.95 0.35,-1.05 0.55,-0.85 -0.75,-0.55 m 3.05,-44.85 -4.25,2 q -3.05,1.5 -4.8,3.25 -2,1.95 -3.1,4.65 -1.1,2.75 -1,5.55 0.1,2.05 1.35,6.45 l 0.35,1.05 1.9,5.5 0.05,0.1 q 1.55,3.6 3.7,5.9 l 2,1.85 2,1.55 q 2.75,2.1 3.95,3.45 1.05,1.15 1.35,2.2 0.8,0.2 1.15,0.45 0.8,0.5 0.85,1.35 l -0.25,0.95 q -0.4,0.75 -1.2,1.05 l -0.95,0.25 q -0.65,0.1 -0.95,0.35 -0.5,0.45 -0.8,1.55 0.75,0.15 2.05,-0.95 1.45,-1.15 3,-1.7 L -8,35 q 0.85,0.1 1.55,0.75 l 0.45,0.6 h 0.1 q 0.65,0 1.2,0.4 0.55,0.4 0.7,1.05 l 0.1,1.1 -0.05,1.1 q -0.1,1.45 0.95,1.75 h 0.45 L -2.3,41.4 q 0.4,-1.1 0.45,-1.7 l -0.1,-1.95 q 0.15,-1.15 1.1,-1.8 L 0.55,35.4 1,35.25 2.45,34.6 l 0.2,-0.1 1.6,-0.9 1.8,-0.7 1.4,-0.3 q 5.15,-3.7 9.85,-7.75 3.25,-2.85 4.5,-4.8 1.05,-1.75 1.7,-4.25 l 0.6,-2.75 0.25,-1.75 Q 26.7,-6.3 23.9,-18.15 22.65,-23.4 20.35,-28.4 16.55,-36.25 11.4,-39.05 l -4.6,6.75 -4.55,6.45 Q -4.9,-16.95 -15.1,-12 l -1.05,0.5"
         fill="#000000"
         fill-rule="evenodd"
         stroke="none"
         id="path1" />
      <path
         d="M -4.05,2.2 -7.4,1.75 -10.8,1.15 Q -13.4,0.2 -16.15,-2.7 l -1.3,-1.25 q -0.8,-0.7 -1.6,-0.85 -1,-0.2 -1.95,0.45 -0.95,0.65 -1.2,1.65 -0.25,1.25 0.6,2.6 l -1.05,1.75 -0.7,1.7 q -0.35,1.3 -0.15,4 0.4,5.65 1.65,8.4 0.95,2.1 3.25,4.75 l 6.25,6.95 q 1.7,1.8 2.85,2 1.2,0.25 2.25,-0.55 1.05,-0.85 1.1,-2.05 0.05,-1.05 -0.7,-2.15 l -1.6,-1.8 -4.25,-4.35 q -4.6,-5 -5.1,-8.9 L -18.05,7.3 -18.5,5.45 Q -18.55,4.6 -18.2,3.4 l 3.1,2.2 0.45,1.95 q 0.95,2.8 2.7,5.6 l 4.8,6.25 q 2.85,3.75 3.75,6.75 l 0.55,1.75 0.95,1.4 0.1,0.05 q -1,1.25 -1.15,2.35 -0.1,1.1 0.55,2 0.75,0.95 1.75,0.8 0.7,-0.05 1.4,-0.75 L 1.8,32.45 Q 2.95,31.05 5.3,29.5 L 9.2,26.9 Q 10.95,25.5 11.6,24 12.4,22 11.65,19.1 10.15,13.6 4.7,7.95 0.1,3.15 -4.05,2.2 M 24.1,13.05 23.5,15.8 q -0.65,2.5 -1.7,4.25 -1.25,1.95 -4.5,4.8 -4.7,4.05 -9.85,7.75 l -1.4,0.3 -1.8,0.7 -1.6,0.9 -0.2,0.1 -1.45,0.65 -0.45,0.15 -1.4,0.55 q -0.95,0.65 -1.1,1.8 l 0.1,1.95 q -0.05,0.6 -0.45,1.7 l -0.25,0.35 H -3 Q -4.05,41.45 -3.95,40 L -3.9,38.9 -4,37.8 q -0.15,-0.65 -0.7,-1.05 -0.55,-0.4 -1.2,-0.4 H -6 l -0.45,-0.6 Q -7.15,35.1 -8,35 l -1.75,0.3 q -1.55,0.55 -3,1.7 -1.3,1.1 -2.05,0.95 0.3,-1.1 0.8,-1.55 0.3,-0.25 0.95,-0.35 l 0.95,-0.25 q 0.8,-0.3 1.2,-1.05 l 0.25,-0.95 q -0.05,-0.85 -0.85,-1.35 -0.35,-0.25 -1.15,-0.45 -0.3,-1.05 -1.35,-2.2 -1.2,-1.35 -3.95,-3.45 l -2,-1.55 -2,-1.85 q -2.15,-2.3 -3.7,-5.9 l -0.05,-0.1 -1.9,-5.5 -0.35,-1.05 Q -29.2,6 -29.3,3.95 q -0.1,-2.8 1,-5.55 1.1,-2.7 3.1,-4.65 1.75,-1.75 4.8,-3.25 l 4.25,-2 q 1.9,0.85 3.55,2.35 l 1.7,1.7 q 1,0.95 1.9,1.4 1.35,0.7 3.55,0.9 l 3.65,0.3 q 5.1,0.7 10.35,5.5 l 4.2,4.25 4.05,4.35 q 3.35,3.35 6.25,3.7 l 1.05,0.1"
         fill="#202020"
         fill-rule="evenodd"
         stroke="none"
         id="path2" />
      <path
         d="m 24.1,13.05 -1.05,-0.1 Q 20.15,12.6 16.8,9.25 L 12.75,4.9 8.55,0.65 Q 3.3,-4.15 -1.8,-4.85 l -3.65,-0.3 q -2.2,-0.2 -3.55,-0.9 -0.9,-0.45 -1.9,-1.4 l -1.7,-1.7 q -1.65,-1.5 -3.55,-2.35 l 1.05,-0.5 q 10.2,-4.95 17.35,-13.85 l 4.55,-6.45 4.6,-6.75 q 5.15,2.8 8.95,10.65 2.3,5 3.55,10.25 2.8,11.85 0.45,29.45 l -0.25,1.75"
         fill="#393939"
         fill-rule="evenodd"
         stroke="none"
         id="path3" />
    </g>
    <g
       id="sprite1"
       transform="translate(17.4,15.85)">
      <use
         ffdec:characterId="31"
         height="57.200001"
         transform="matrix(0.5366,0,0,0.5366,-16.6582,-14.546)"
         width="70.75"
         xlink:href="#sprite2"
         id="use3" />
    </g>
    <g
       id="sprite2"
       transform="translate(-8.65,-10.35)">
      <use
         ffdec:characterId="30"
         height="57.200001"
         transform="translate(8.65,10.35)"
         width="70.75"
         xlink:href="#shape1"
         id="use4" />
    </g>
    <g
       id="shape1"
       transform="translate(-8.65,-10.35)">
      <path
         d="m 14.8,41.7 q 0.65,-1.75 2.65,-2.5 1.8,-0.8 3.7,-0.25 1.15,0.45 2.25,1.2 l 0.9,0.4 q 1.65,0.9 2.85,2.5 L 37.8,30.1 q 2.35,-2.8 3.75,-3.95 1.5,-1.15 4.25,-2.4 18.2,-8.85 27.65,-12.6 2.15,-0.8 3.25,-0.8 h 0.8 l 1.9,2.4 -0.2,0.8 q -0.2,1.1 -1.55,3 -5.85,8.25 -18.85,23.8 -1.85,2.35 -3.35,3.5 -1.4,1.15 -4.75,2.75 l -15.15,7.15 q 1.2,1.6 1.75,3.4 l 0.2,1 0.55,2.5 q 0.1,1.95 -1.1,3.55 -1.2,1.65 -3.05,1.9 l -1.3,0.05 q -1.65,0.2 -3.45,-0.65 -1.85,-0.9 -3,-2.6 L 25,60.95 23.8,62.1 q -2.6,2.85 -4.3,3.95 -2.85,1.8 -5.5,1.45 l -1.65,-0.5 -1.2,-0.7 -0.2,-0.2 q -1,-0.85 -1.6,-1.9 L 9.25,64 9.15,63.8 8.75,62.4 q -0.2,-0.8 -0.05,-1.7 0.25,-2.65 2.7,-5.05 1.5,-1.3 4.9,-3.15 L 17.7,51.55 16.05,50 q -1.35,-1.5 -1.8,-3.6 -0.4,-1.85 0.25,-3.45 l 0.3,-1.25"
         fill="#000000"
         fill-opacity="0.372549"
         fill-rule="evenodd"
         stroke="none"
         id="path4" />
    </g>
  </defs>
</svg>
