<?xml version="1.0" encoding="UTF-8" standalone="no"?>
<svg
   ffdec:objectType="frame"
   height="70.650002"
   width="70.575745"
   version="1.1"
   id="svg5"
   sodipodi:docname="ITEM Recycled Mask.svg"
   xmlns:inkscape="http://www.inkscape.org/namespaces/inkscape"
   xmlns:sodipodi="http://sodipodi.sourceforge.net/DTD/sodipodi-0.dtd"
   xmlns:xlink="http://www.w3.org/1999/xlink"
   xmlns="http://www.w3.org/2000/svg"
   xmlns:svg="http://www.w3.org/2000/svg"
   xmlns:ffdec="https://www.free-decompiler.com/flash">
  <sodipodi:namedview
     id="namedview5"
     pagecolor="#ffffff"
     bordercolor="#000000"
     borderopacity="0.25"
     inkscape:showpageshadow="2"
     inkscape:pageopacity="0.0"
     inkscape:pagecheckerboard="0"
     inkscape:deskcolor="#d1d1d1"
     fit-margin-top="5"
     fit-margin-left="5"
     fit-margin-right="5"
     fit-margin-bottom="5" />
  <g
     transform="translate(30.826923,37.95)"
     id="g1">
    <use
       ffdec:characterId="17"
       height="119.15"
       id="rarity"
       transform="translate(-58.5,-60.65)"
       width="119.15"
       xlink:href="#sprite0" />
    <use
       ffdec:characterId="953"
       height="70.849998"
       transform="translate(-30.85,-37.95)"
       width="70.599998"
       xlink:href="#shape0"
       id="use1" />
  </g>
  <defs
     id="defs5">
    <g
       id="shape0"
       transform="translate(77.65,39.3)">
      <path
         d="m -66.25,4.2 -0.3,-1.95 Q -68,-1.4 -66,-5.3 l 1.2,-1.45 1.45,-1 h -6.7 l -0.25,7.8 V 3.8 l 0.05,4.25 -0.05,1.35 -0.35,6.75 -0.15,1.55 -0.15,1.6 -0.05,0.45 -0.2,1.7 -0.6,3.6 6.4,0.45 2.85,0.15 0.4,0.05 2.5,0.1 h 0.95 q 7.7,0.25 15.45,0.1 l 4.5,-0.15 0.65,-0.05 q -1.2,-5.85 -1.75,-11.85 -0.1,-1.3 0.25,-2.15 0.75,-1.9 3.65,-2.15 l 1.1,-0.1 1.4,-0.1 4.5,-0.6 2.55,-0.4 0.4,-0.1 h 0.05 l 7.15,-1.75 2.6,-0.9 3.85,-1.65 Q -13.8,1.85 -15.7,1.1 L -17.65,0.65 H -17.9 -18.45 -19 q -2.75,0.25 -5.25,-0.7 -1.25,-0.5 -1.4,-1.85 -0.6,-5.1 -1.95,-9.95 -0.25,-1.1 0.7,-1.8 5.6,-3.9 12.75,-4.4 l 0.3,-5.8 0.3,-4.3 0.1,-3 q 0,-0.65 -0.15,-1.1 -6.7,2.8 -13.65,4.55 -5.2,1.25 -10.55,1.95 l -0.35,0.05 -11.4,1.45 q 1.8,4.7 5.4,8.6 1.4,1.55 1.95,3.5 l -1.05,1.95 q 1.55,1.25 2.5,3.4 1.8,4.05 2.85,8.1 0.2,0.75 -0.4,1.3 l -5.3,4.6 q -1.8,1.55 -3.8,2.7 l -1.6,0.8 q -1.5,0.65 -3.25,0.75 -4.85,2.05 -9.65,1.35 h -0.05 l -0.7,-0.55 -0.5,-0.75 -0.05,-0.1 -0.05,-0.2 -0.05,-0.25 v -0.2 L -63.7,9.9 Q -63.85,9.15 -64.35,8.6 L -64.4,8.4 V 8.2 L -64.45,7.95 -64.5,7.75 Q -65.8,6 -66.25,4.2 m 6.65,4.9 q 4.75,-1.65 9.75,-2.05 l 6.95,-5.85 0.65,-0.6 -4.5,-8.6 -2.5,0.25 h -7.1 l -0.05,0.1 -6.1,4.7 q -0.45,0.4 -0.5,0.9 0.35,2.2 1.05,4.25 0.55,1.65 0.4,3.25 l 0.05,0.1 0.4,0.85 1.45,2.65 V 9.1 h 0.05 m 48.8,-48.4 q 3.75,1.6 3.05,6.25 l -0.5,4.05 -0.65,14.35 q -0.05,0.85 -0.85,1.15 -3.65,1.2 -7.55,1.75 -2.7,0.4 -4.85,1.35 l 0.9,3 0.6,2.35 q 6.05,-0.75 10.95,4.15 5.8,5.85 -1.1,9.7 -5.2,2.9 -11.1,4.05 l -5.65,1.4 -2.85,0.25 -4.5,0.35 q -0.05,1.2 0.3,2.35 0.35,1.15 0.3,2.35 2.35,5.65 0.6,11.05 -0.25,0.7 -1.1,0.75 L -75.9,30 q -0.95,-0.1 -1.35,-1 -0.7,-1.65 -0.1,-3.35 0.9,-12.65 1.2,-25.35 0.1,-2.25 -0.05,-4.5 -0.25,-4.4 1.85,-7.95 L -73,-13.2 q 8.15,-2.6 14.4,-8 1.5,-1.25 2.45,-2.9 0.45,-5.7 6.8,-5.95 18.45,-0.8 35.45,-8.2 l 3.1,-1.05 m -47.15,25 -3,1.95 13.7,-0.65 q -2.75,-3 -4.55,-6.65 l -0.4,-0.75 q -2,3.6 -5.75,6.1"
         fill="#000000"
         fill-rule="evenodd"
         stroke="none"
         id="path1" />
      <path
         d="m -70.3,0.05 q 2.4,1.15 3.8,3.7 l 0.25,0.45 q 0.45,1.8 1.75,3.55 l 0.05,0.2 0.05,0.25 v 0.2 l 0.05,0.2 q 0.5,0.55 0.65,1.3 l 0.4,0.85 v 0.2 l 0.05,0.25 0.05,0.2 0.05,0.1 0.5,0.75 0.7,0.55 h 0.05 q 4.8,0.7 9.65,-1.35 1.75,-0.1 3.25,-0.75 l 1.6,-0.8 0.55,-0.15 q 11,-2.75 21.45,-7.2 3.35,-1.45 6.8,-1.85 l 0.05,-0.05 h 0.1 0.55 0.25 l 1.95,0.45 v 0.05 l -0.35,0.5 -0.5,0.75 -0.35,0.25 -0.5,0.2 -1.2,-0.3 -0.1,0.05 -0.2,0.25 V 2.9 l 0.8,0.55 0.8,0.55 1.1,1.6 -2.6,0.9 -2.05,-1.5 -0.7,-0.75 -3.55,1.6 -0.05,0.35 q -0.15,0.7 -0.75,1.2 l -0.1,0.85 -0.4,0.1 -2.55,0.4 0.25,-1.35 -4.75,1.95 -1.4,0.1 -1.1,0.1 q -2.9,0.25 -3.65,2.15 l -1.85,0.65 q -3.8,1.4 -7.65,1.85 2.35,1.65 3.6,4.55 l 0.55,1.1 q 4.25,1.95 6.2,5.9 l -4.5,0.15 q -4.25,-3.5 -7.05,-8.15 l -0.35,-0.5 -8.7,8.25 0.65,0.3 h -0.95 l -2.5,-0.1 -0.4,-0.05 -2.85,-0.15 q -3.1,-1.65 -5.8,-4.05 l 0.2,-1.7 0.05,-0.45 0.15,-1.6 0.15,-1.55 0.65,0.75 q 2.65,-2.75 5.85,-4.75 -3,-1.3 -5.5,-3.55 L -70.25,8.05 -70.3,3.8 V 0.05 m 10.65,9 0.05,0.05 h -0.05 V 9.05 m -1.3,4.2 -0.9,-0.25 q 1.15,2.8 1.45,6.05 0.1,1.1 0.05,2.3 l 0.05,0.75 q 1.4,-0.7 2.85,-2.35 0.3,-0.35 0.75,-0.6 l 0.8,-1.05 0.5,-0.7 3.7,-3.05 q -4.6,0.1 -9.25,-1.1 m -7.75,5.5 3.4,3.25 1.75,1.1 0.45,0.3 v -0.15 l -0.05,-1.75 -0.65,-2 -0.1,-1.5 -0.15,-0.25 -0.15,-0.25 -0.15,-0.75 -0.35,-1.25 -4.2,2.95 0.2,0.3"
         fill="#836161"
         fill-rule="evenodd"
         stroke="none"
         id="path2" />
      <path
         d="m -37.8,-25.75 q 5.35,-0.7 10.55,-1.95 2.2,2.3 0.4,6.55 -2.2,5.2 -8.35,3 -6.55,-2.35 -2.65,-7.55 l 0.05,-0.05 m 19.4,0.65 0.75,0.25 0.45,0.2 0.25,0.25 0.3,0.5 0.25,0.5 v 0.5 q 0,0.55 -0.3,1 l -0.1,0.25 q -2.95,1.75 -3.6,-1.45 v -0.5 l 0.25,-0.45 0.85,-0.8 0.35,-0.1 0.55,-0.1 v -0.05 m -17,16.35 0.75,0.45 0.2,0.2 0.05,0.5 q 0.05,0.5 -0.4,0.75 -0.75,0.6 -1.4,-0.15 l -0.2,-0.25 Q -36.6,-8 -36,-8.45 l 0.6,-0.3"
         fill="#6b6b6b"
         fill-rule="evenodd"
         stroke="none"
         id="path3" />
      <path
         d="m -70.3,0.05 0.25,-7.8 h 6.7 l -1.45,1 -1.2,1.45 q -2,3.9 -0.55,7.55 l 0.3,1.95 -0.25,-0.45 q -1.4,-2.55 -3.8,-3.7 m 22.9,9.85 q 2,-1.15 3.8,-2.7 l 5.3,-4.6 q 0.6,-0.55 0.4,-1.3 -1.05,-4.05 -2.85,-8.1 -0.95,-2.15 -2.5,-3.4 l 1.05,-1.95 q -0.55,-1.95 -1.95,-3.5 -3.6,-3.9 -5.4,-8.6 l 11.4,-1.45 0.35,-0.05 -0.05,0.05 q -3.9,5.2 2.65,7.55 6.15,2.2 8.35,-3 1.8,-4.25 -0.4,-6.55 6.95,-1.75 13.65,-4.55 0.15,0.45 0.15,1.1 l -0.1,3 -0.3,4.3 -0.3,5.8 q -7.15,0.5 -12.75,4.4 -0.95,0.7 -0.7,1.8 1.35,4.85 1.95,9.95 0.15,1.35 1.4,1.85 2.5,0.95 5.25,0.7 h 0.55 -0.1 L -18.6,0.7 Q -22.05,1.1 -25.4,2.55 -35.85,7 -46.85,9.75 L -47.4,9.9 m 31.7,-8.8 q 1.9,0.75 3.35,2.85 L -16.2,5.6 -17.3,4 -18.1,3.45 -18.9,2.9 V 2.85 l 0.2,-0.25 0.1,-0.05 1.2,0.3 0.5,-0.2 0.35,-0.25 0.5,-0.75 0.35,-0.5 V 1.1 m -3.1,5.4 -7.15,1.75 H -26 l 0.1,-0.85 q 0.6,-0.5 0.75,-1.2 l 0.05,-0.35 3.55,-1.6 0.7,0.75 2.05,1.5 m -10.15,2.25 -4.5,0.6 4.75,-1.95 -0.25,1.35 M -39.6,11.7 q -0.35,0.85 -0.25,2.15 0.55,6 1.75,11.85 l -0.65,0.05 q -1.95,-3.95 -6.2,-5.9 l -0.55,-1.1 q -1.25,-2.9 -3.6,-4.55 3.85,-0.45 7.65,-1.85 l 1.85,-0.65 m -3.65,14.2 Q -51,26.05 -58.7,25.8 l -0.65,-0.3 8.7,-8.25 0.35,0.5 q 2.8,4.65 7.05,8.15 m -22.15,-0.4 -6.4,-0.45 0.6,-3.6 q 2.7,2.4 5.8,4.05 m -5.25,-9.35 0.35,-6.75 0.05,-1.35 0.6,0.55 q 2.5,2.25 5.5,3.55 -3.2,2 -5.85,4.75 l -0.65,-0.75 m 12.7,-30.45 q 3.75,-2.5 5.75,-6.1 l 0.4,0.75 q 1.8,3.65 4.55,6.65 l -13.7,0.65 3,-1.95 m 22.55,5.55 -0.6,0.3 q -0.6,0.45 -0.4,1.2 l 0.2,0.25 q 0.65,0.75 1.4,0.15 0.45,-0.25 0.4,-0.75 l -0.05,-0.5 -0.2,-0.2 -0.75,-0.45 m 17,-16.35 v 0.05 l -0.55,0.1 -0.35,0.1 -0.85,0.8 -0.25,0.45 v 0.5 q 0.65,3.2 3.6,1.45 l 0.1,-0.25 q 0.3,-0.45 0.3,-1 v -0.5 l -0.25,-0.5 -0.3,-0.5 -0.25,-0.25 -0.45,-0.2 -0.75,-0.25 m -50.3,43.85 -0.2,-0.3 4.2,-2.95 0.35,1.25 0.15,0.75 0.15,0.25 0.15,0.25 0.1,1.5 0.65,2 0.05,1.75 v 0.15 l -0.45,-0.3 -1.75,-1.1 -3.4,-3.25 m 7.75,-5.5 q 4.65,1.2 9.25,1.1 l -3.7,3.05 -0.5,0.7 -0.8,1.05 q -0.45,0.25 -0.75,0.6 -1.45,1.65 -2.85,2.35 l -0.05,-0.75 q 0.05,-1.2 -0.05,-2.3 -0.3,-3.25 -1.45,-6.05 l 0.9,0.25"
         fill="#ffffff"
         fill-rule="evenodd"
         stroke="none"
         id="path4" />
    </g>
    <g
       id="sprite1"
       transform="translate(17.4,15.85)">
      <use
         ffdec:characterId="31"
         height="57.200001"
         transform="matrix(0.5366,0,0,0.5366,-16.6582,-14.546)"
         width="70.75"
         xlink:href="#sprite2"
         id="use4" />
    </g>
    <g
       id="sprite2"
       transform="translate(-8.65,-10.35)">
      <use
         ffdec:characterId="30"
         height="57.200001"
         transform="translate(8.65,10.35)"
         width="70.75"
         xlink:href="#shape1"
         id="use5" />
    </g>
    <g
       id="shape1"
       transform="translate(-8.65,-10.35)">
      <path
         d="m 14.8,41.7 q 0.65,-1.75 2.65,-2.5 1.8,-0.8 3.7,-0.25 1.15,0.45 2.25,1.2 l 0.9,0.4 q 1.65,0.9 2.85,2.5 L 37.8,30.1 q 2.35,-2.8 3.75,-3.95 1.5,-1.15 4.25,-2.4 18.2,-8.85 27.65,-12.6 2.15,-0.8 3.25,-0.8 h 0.8 l 1.9,2.4 -0.2,0.8 q -0.2,1.1 -1.55,3 -5.85,8.25 -18.85,23.8 -1.85,2.35 -3.35,3.5 -1.4,1.15 -4.75,2.75 l -15.15,7.15 q 1.2,1.6 1.75,3.4 l 0.2,1 0.55,2.5 q 0.1,1.95 -1.1,3.55 -1.2,1.65 -3.05,1.9 l -1.3,0.05 q -1.65,0.2 -3.45,-0.65 -1.85,-0.9 -3,-2.6 L 25,60.95 23.8,62.1 q -2.6,2.85 -4.3,3.95 -2.85,1.8 -5.5,1.45 l -1.65,-0.5 -1.2,-0.7 -0.2,-0.2 q -1,-0.85 -1.6,-1.9 L 9.25,64 9.15,63.8 8.75,62.4 q -0.2,-0.8 -0.05,-1.7 0.25,-2.65 2.7,-5.05 1.5,-1.3 4.9,-3.15 L 17.7,51.55 16.05,50 q -1.35,-1.5 -1.8,-3.6 -0.4,-1.85 0.25,-3.45 l 0.3,-1.25"
         fill="#000000"
         fill-opacity="0.372549"
         fill-rule="evenodd"
         stroke="none"
         id="path5" />
    </g>
  </defs>
</svg>
