<?xml version="1.0" encoding="UTF-8" standalone="no"?>
<svg
   ffdec:objectType="frame"
   height="76.029877"
   width="83.949997"
   version="1.1"
   id="svg8"
   xmlns:xlink="http://www.w3.org/1999/xlink"
   xmlns="http://www.w3.org/2000/svg"
   xmlns:svg="http://www.w3.org/2000/svg"
   xmlns:ffdec="https://www.free-decompiler.com/flash">
  <g
     transform="translate(42.25,33.079878)"
     id="g1">
    <use
       ffdec:characterId="17"
       height="119.15"
       id="rarity"
       transform="translate(-58.5,-60.65)"
       width="119.15"
       xlink:href="#sprite0" />
    <use
       ffdec:characterId="1302"
       height="76.150002"
       transform="translate(-42.25,-33.1)"
       width="83.949997"
       xlink:href="#shape0"
       id="use1" />
  </g>
  <defs
     id="defs8">
    <g
       id="shape0"
       transform="translate(40.95,31.2)">
      <path
         d="M 18.05,-23.25 13.9,-24.3 8.6,-25.25 5.95,-25.6 2.1,-25.95 h -5.35 l -5.65,0.65 q -9.45,1.7 -15.75,7.25 l -3.65,3.7 -0.75,0.9 -2.7,3.65 -0.15,0.25 -0.85,1.45 -0.25,0.55 -1.1,2.6 -0.5,1.4 -0.1,0.4 -0.05,0.05 q -0.95,2.55 -1.05,4.15 -0.15,1.55 0.35,4.55 l 1.25,8.05 0.4,1.65 1.05,1.3 0.45,0.45 4.2,2.8 1,0.55 q 3.1,1.75 6.45,3.05 4,1.6 8.35,2.55 l 4.2,0.7 5.55,-0.2 Q 8.4,25.45 15.2,22.3 l 0.5,-0.25 4.7,-2.6 1.5,-0.9 2.25,-1.2 q 2.35,-1.25 4.2,-1.75 l 3.05,-0.65 0.55,-0.1 3.6,-0.65 q 1.7,-0.4 2.2,-1.1 0.45,-0.55 0.55,-1.5 V 9.95 l 0.05,-1.1 0.05,-3.7 -0.1,-2.2 -0.65,-3.8 -0.05,-0.4 -0.45,-2.1 -0.3,-1.05 -0.2,-0.8 -1.4,-3.9 -1.2,-2.15 -1,-1.5 -0.8,-1 q -1.9,-2.3 -4.6,-4.6 l -2.2,-1.7 -2.1,-1.3 -3.25,-1.3 -1.2,-0.35 -0.85,-0.25 m -5.85,19.5 0.55,-1.1 2.45,-2.9 2.85,-2.95 -0.8,-1.35 -0.75,-1.1 -0.9,-0.75 q -0.5,-0.5 -0.6,-1.25 -0.05,-0.75 0.3,-1.35 l 1.1,-0.85 q 0.7,-0.25 1.35,0 l 0.85,0.6 0.4,0.5 1.2,1.95 0.1,0.15 0.4,0.85 0.55,-0.55 q 0.7,-0.7 1.2,-0.85 h 0.1 q 0.6,-0.25 1.25,0 l 1.05,0.9 q 0.35,0.65 0.25,1.4 -0.1,0.75 -0.6,1.25 l -1.65,1.3 2.15,3.4 0.05,1.1 -0.7,0.7 -0.95,-0.05 -0.7,-0.55 -2.05,-2.05 -0.4,-0.5 -2.2,1.85 -3.35,3 q -0.7,0.55 -1,0.65 -0.5,0.15 -1,-0.25 -0.5,-0.35 -0.55,-0.9 l 0.05,-0.3 m -47.9,24.6 q -1.8,-1.45 -2.55,-2.8 -0.65,-1.2 -1.05,-3.85 L -40.5,6.25 -40.95,1.2 q 0.05,-1.85 0.9,-4.65 2.75,-9.4 9.75,-16.5 2.7,-2.7 5.55,-4.55 9.25,-6.25 22,-6.65 10.25,-0.35 22.9,3.4 3.3,0.95 5.5,2.15 l 4.1,2.85 q 9.35,7.8 10.95,16.3 l 0.7,4.1 1,3.6 q 0.55,2.1 0.6,4.8 l -0.1,4.85 q -0.1,2.8 -0.75,4.15 -1.25,2.75 -5.3,3.85 l -1.55,0.4 q 1.75,5.45 1.75,11.3 -0.1,4.5 -1.6,6.8 -2.1,3.15 -7.7,4.65 -4.05,1.15 -6.6,0.9 -2.85,-0.15 -4.75,-1.65 -2,-1.6 -2.4,-4.05 -0.4,-2.55 1.1,-4.6 1.3,-1.75 3.6,-2.55 1.7,-0.6 4.35,-0.7 h 0.9 L 23.8,28.35 23.4,25.8 22.9,23.95 22.65,23.35 16.35,26.7 Q 10.1,29.65 -0.7,31.1 l -6.4,0.5 v 0.3 l 0.55,9.85 q 0,1.75 -0.55,2.25 -0.5,0.45 -1.95,0.45 l -2.5,-0.05 -2,-0.35 q -0.9,-0.5 -1.15,-1.5 0.05,-1.65 -0.3,-2.35 l -0.25,0.25 -0.25,1.95 q -0.2,1.2 -0.8,1.7 -0.6,0.55 -2.1,0.75 L -20.7,44.8 Q -21.8,44.4 -22.45,43 L -23,40.5 -23.45,34.6 q -0.1,-4.2 0.2,-6.9 -7.7,-3.05 -12.45,-6.85 m 65.9,-0.7 q -1.75,0.4 -3.9,1.35 l 0.1,0.3 0.5,1.5 0.55,4.15 0.05,2 v 0.25 q 3.25,0.6 5.3,2.6 0.6,-5.15 -0.55,-9.9 l -0.4,-1.85 -0.1,-0.7 -1.55,0.3 m -11.05,18 0.9,0.4 2.75,0.25 1.2,-0.05 1.8,-0.45 3.15,-1.05 q 1.1,-0.4 1.8,-1 -0.8,-1.4 -1.45,-1.8 l -0.8,-0.4 Q 26.7,33.4 24.05,33.4 l -3.95,0.45 q -1,0.25 -1.55,0.7 -0.75,0.75 -0.7,1.55 l 0.15,0.7 0.3,0.8 0.85,0.55 M -14.05,-5 q 0.5,0.55 0.2,1.8 L -18.65,9 q -0.4,1 -0.9,1.45 -0.4,0.4 -1,0.45 l -1.1,-0.2 q -1.1,-0.6 -1,-1.85 l 0.45,-1.3 1.4,-2.65 1.6,-3.05 0.35,-0.95 1.75,-3.65 0.8,-1.15 0.65,-1.2 0.8,-0.25 q 0.5,0 0.8,0.35 m -3.75,16 0.2,-0.45 1.5,-2.8 1.3,-1.9 0.35,-0.65 q 0.35,-0.4 0.85,-0.5 l 1,0.1 q 0.5,0.25 0.7,0.7 0.25,0.5 0.1,1 l -0.35,0.8 -1.45,3.85 -0.4,1.05 -0.65,1.15 -1.1,0.75 q -1.1,0.25 -1.85,-0.6 -0.7,-0.8 -0.45,-1.9 L -17.8,11 m 4.25,21.25 q 0.15,0.7 -0.2,1.35 -0.3,0.7 -0.95,1 l -1.35,0.05 -1.15,-0.75 q -0.4,-0.55 -0.3,-1.3 0.05,-0.8 0.55,-1.3 0.5,-0.5 1.25,-0.55 0.75,-0.1 1.3,0.3 0.65,0.5 0.85,1.2 m -5.35,8.1 q 0.35,-2.5 2.3,-3.55 0.95,-0.55 2.1,-0.5 1.2,0.1 2,0.8 1.05,0.95 1.45,3.25 h 0.5 l -0.4,-8.2 V 31.3 q -4,-0.6 -8.85,-2.3 0.05,5.7 0.9,11.35"
         fill="#000000"
         fill-rule="evenodd"
         stroke="none"
         id="path1" />
      <path
         d="M -3.25,-25.95 H 2.1 l 3.85,0.35 2.65,0.35 5.3,0.95 4.15,1.05 0.2,1.05 0.1,0.6 q 0.35,2.3 0.25,4.85 l -0.85,-0.6 q -0.65,-0.25 -1.35,0 l -1.1,0.85 q -0.35,0.6 -0.3,1.35 0.1,0.75 0.6,1.25 l 0.9,0.75 0.75,1.1 0.8,1.35 -2.85,2.95 -2.45,2.9 -0.55,1.1 Q 11.4,-3.85 10.9,-4.25 9.75,-5.05 9.7,-6.4 L 7.8,-6.45 q -1.25,0 -1.9,-0.35 -1.05,-0.6 -1.3,-2.05 -0.1,-0.8 0.1,-2.45 -3.25,0.1 -4.85,-0.1 -1.7,-0.3 -2.3,-1.1 -0.4,-0.6 -0.4,-2 l 0.05,-0.9 q -0.85,-0.6 -0.95,-1.75 l 0.1,-0.75 -1.1,-0.15 q -1.1,-0.25 -1.75,-1.35 -0.65,-1.05 -0.4,-2.15 0.25,-1.1 1.25,-1.85 0.65,-0.45 1.4,-0.55 L -4.15,-24 H -4 -3.95 l 0.3,-0.05 v -0.1 l 0.25,-1.4 0.15,-0.4 m 23.35,3.3 3.25,1.3 2.1,1.3 -0.05,0.05 -0.75,0.9 -0.5,0.25 q -0.7,0.4 -1.45,0.4 -0.85,0 -1.5,-0.4 -0.7,-0.4 -1.05,-1.1 l -0.35,-1.2 v -0.35 l 0.3,-1.15 m 12.15,8.9 0.8,1 -1.1,0.4 -1,0.55 -0.45,0.35 -0.05,0.05 -0.6,0.35 -0.65,0.75 -0.15,0.45 0.7,-0.45 h 0.05 q 0.5,-0.1 0.9,0.4 l 0.25,0.5 0.15,0.75 0.05,0.7 0.2,1.1 v 1.1 q -0.1,0.75 0.3,0.95 l 0.45,0.1 0.5,0.05 h 0.55 l 1,0.2 0.2,0.1 0.7,0.8 0.05,0.5 0.2,0.75 0.05,0.8 -0.05,0.55 0.2,0.85 v 1.2 l 0.35,1.65 0.25,0.5 0.35,0.3 0.45,0.8 -0.05,0.7 0.95,-0.75 0.45,-1.25 0.05,-0.1 0.1,2.2 -0.05,3.7 L 37.7,8.9 35.85,8.85 34.15,8.9 Q 33.2,8.9 32.6,8.5 31.7,8 31.35,6.75 31.1,6.05 31,4.6 V 4.5 L 30.6,2.35 30.35,1.85 29.6,1.8 Q 28.85,1.9 28.15,1.4 l -0.4,-0.35 -0.6,-0.9 Q 26.7,-0.95 26.8,-3 l 0.1,-3 V -6.05 L 26,-6.7 q -0.55,-0.55 -0.75,-1.75 -0.15,-1.4 0.35,-2.55 0.55,-1.25 1.8,-1.8 l 1.85,-0.25 1.5,0.45 0.2,-0.4 0.1,-0.2 q 0.4,-0.5 1.1,-0.55 h 0.1 m -0.85,28.7 -3.05,0.65 q -1.85,0.5 -4.2,1.75 H 20.5 l -0.1,2.1 -4.7,2.6 -0.5,0.25 -8.95,0.4 -5.65,-0.15 q -1.6,-0.3 -2.15,-1 -0.55,-0.6 -0.65,-2.1 -0.2,-2.6 0.35,-7 l 0.2,-1.1 Q -1.2,8.95 -0.45,7.8 0.25,6.75 1.2,6.4 L 1.45,6.3 2.55,6.4 2.7,6.45 2.9,6.55 2.45,7.05 Q 2,7.7 1.8,8.95 l -0.25,1.95 0.5,0.5 0.35,1.2 0.75,3.65 10.75,-0.7 V 13.6 q 0,-1.15 0.45,-1.75 0.6,-0.8 2.55,-1 L 24.65,10.15 24.05,6.6 24,5.95 H 16.05 L 7.8,6.35 6.15,6.4 5.1,6.3 4.5,6.25 Q 4.2,6.1 4.25,5.75 v -0.1 q 0,-0.25 0.3,-0.55 0.3,-0.25 1.3,-0.6 l 1.9,-0.55 2.85,-0.8 6.1,-0.5 6.15,-0.05 h 1.6 l 0.4,0.05 q 1.2,0.25 1.55,1.2 l 0.05,0.2 0.4,0.35 0.35,0.65 1.3,-0.05 1.2,0.3 q 0.6,0.25 1,0.65 0.75,0.75 0.85,2.35 l -0.15,2.55 0.1,1.6 v 1.6 l -0.1,0.9 m -52.05,8.5 Q -24,22.15 -27.1,20.4 l 0.45,-1 q 0.95,-1.55 3.1,-1.8 l 2.15,0.15 q 1.05,0.4 1.6,1.5 0.6,1.05 0.35,2.2 -0.2,1.1 -1.1,1.9 l -0.1,0.1 m -12.1,-6.85 -1.05,-1.3 -0.4,-1.65 -1.25,-8.05 q -0.5,-3 -0.35,-4.55 0.1,-1.6 1.05,-4.15 l 0.05,-0.05 0.1,0.05 -0.5,4.9 -0.2,2.15 q 0,1.25 0.7,2 0.7,0.8 1.95,0.95 l -0.25,1.95 q -0.2,1.3 0.05,2.15 l 0.1,0.25 0.75,-0.3 0.55,-0.05 1.45,-0.05 2,-0.05 Q -28.15,9 -27.9,6.9 l 0.05,-0.2 0.45,-1.2 V 5.45 q 0.45,-0.6 2,-0.8 l 3.6,-0.4 0.45,-3.55 0.65,-6.2 0.05,-1 -1.25,0.05 -0.8,0.1 -1.25,0.05 q -0.45,-0.1 -0.7,-0.3 l -0.2,-0.15 -0.6,-0.65 -0.1,-1.4 -1.45,0.05 h -0.15 l -2.15,0.35 -2.4,0.35 -0.45,0.1 -0.85,0.4 0.25,-0.55 0.85,-1.45 0.15,-0.25 2.7,-3.65 0.75,-0.9 h 1.4 l 0.95,0.25 0.3,-0.1 1.15,-0.2 1.7,-0.05 q 1.7,0.25 2.1,1.7 0.15,0.55 -0.05,1.95 l 0.1,0.6 0.05,0.05 1.65,-0.2 q 1.85,0.2 2.8,1 1,0.85 1.35,2.55 l 0.1,1 q 0.35,-0.3 0.85,-0.4 l 0.25,-0.05 V -6.4 q 0.1,-0.95 0.5,-1.35 l 0.7,-0.2 0.65,0.25 0.35,0.6 v 0.35 l 0.05,5.5 h 0.05 l 6.9,-0.2 -0.1,-1.7 -0.1,-0.9 v -0.2 l -0.3,-0.9 0.05,-1.05 -0.55,-0.1 -2.85,-0.35 -1.05,-0.2 q -0.6,-0.3 -0.6,-0.75 v -0.05 q -0.05,-0.7 1.1,-1.15 2.6,-1 4.6,-0.6 1.15,0.2 1.65,0.85 h 0.4 q 2.1,0.1 2.75,1.2 0.45,0.7 0.45,2.05 l 0.25,5.05 q 0.1,2.55 -0.7,3.6 -0.75,0.9 -2.45,1.3 l -2.8,0.2 -6,0.15 h -0.25 l 0.05,0.25 0.25,0.9 q 0.15,0.75 -0.2,1.65 l -0.9,1.95 q -0.55,0.7 -1.25,1.1 l -0.65,0.3 1.45,-3.85 0.35,-0.8 q 0.15,-0.5 -0.1,-1 -0.2,-0.45 -0.7,-0.7 l -1,-0.1 q -0.5,0.1 -0.85,0.5 l -0.35,0.65 -1.3,1.9 -1.5,2.8 -0.2,0.45 -0.75,-0.35 -1.5,0.25 -2.25,0.15 0.15,2.05 q 0.1,1.3 -0.2,2 -0.7,1.45 -3.55,1.75 -3.15,0.3 -6.4,-0.15 l -0.45,-0.1 m 35.15,-34.05 0.1,0.4 0.3,0.1 h 0.9 l 1.4,-0.2 2.6,-0.1 q 0.85,0.1 1.35,0.7 l 0.45,0.35 q 0.5,0.5 0.6,1.8 l 0.2,1.7 2.95,0.3 -0.25,-2.65 q -0.25,-2.15 0,-4.3 l 0.1,-0.75 0.1,-0.3 q 0.35,-1 1.35,-1.1 v -0.35 l -0.35,-0.9 q -0.5,-0.75 -1.55,-1.1 L 9.8,-24.25 6.15,-24.3 4.65,-24.25 3.3,-24 2.95,-23.8 q -0.75,0.35 -1.25,1.05 l -0.2,0.35 v 0.05 l 0.5,1.25 0.2,0.45 v 0.05 l 0.1,0.7 0.1,2.45 m 17.9,3.3 q 0.5,-0.6 1.45,-0.7 l 0.8,0.15 h -0.1 q -0.5,0.15 -1.2,0.85 l -0.55,0.55 -0.4,-0.85 M 19.55,-1.9 q -0.65,-0.9 -0.25,-2 0.45,-1.1 1.55,-1.35 l 1.25,0.05 q 0.75,0.2 1.2,0.75 0.5,0.55 0.5,1.25 l -0.25,1 q -0.6,1.2 -1.9,1.3 -1.35,0.15 -2.1,-1 m -38.1,-16.3 -0.1,-0.55 v -0.4 l 0.55,-1.05 q 0.85,-0.95 2,-0.6 l 0.6,0.2 q 0.7,0.4 0.95,1.25 0.35,1.15 -0.6,2 -0.9,0.85 -2.1,0.4 -0.95,-0.3 -1.3,-1.25 m 4.5,13.2 q -0.3,-0.35 -0.8,-0.35 l -0.8,0.25 -0.65,1.2 -0.8,1.15 -1.75,3.65 -0.35,0.95 -1.6,3.05 -1.4,2.65 -0.45,1.3 q -0.1,1.25 1,1.85 l 1.1,0.2 q 0.6,-0.05 1,-0.45 0.5,-0.45 0.9,-1.45 l 4.8,-12.2 q 0.3,-1.25 -0.2,-1.8 M -2.25,6.9 Q -2,7.6 -2.35,8.35 l -1,1.05 -1.45,0.1 Q -5.6,9.25 -6,8.65 -6.4,8 -6.25,7.2 -6.15,6.4 -5.6,5.9 L -5.5,5.85 Q -5,5.4 -4.2,5.4 q 0.8,0.05 1.35,0.55 l 0.25,0.25 0.35,0.7 m -12.95,7 2.5,-0.15 q 1.35,0.7 1.35,2.15 0,1.5 -1.25,2.15 l -1.6,0.25 q -1.6,-0.25 -2,-1.7 -0.25,-0.75 0.05,-1.5 0.25,-0.8 0.95,-1.2 m 12.5,5.55 q 0.05,0.8 -0.4,1.45 l -1.15,0.95 -1.5,0.05 q -0.8,-0.2 -1.3,-0.75 -0.5,-0.6 -0.5,-1.4 -0.05,-0.8 0.35,-1.5 0.4,-0.65 1.15,-0.95 l 1.5,-0.1 q 0.75,0.15 1.3,0.8 0.5,0.65 0.55,1.45"
         fill="#5b423f"
         fill-rule="evenodd"
         stroke="none"
         id="path2" />
      <path
         d="m -3.25,-25.95 -0.15,0.4 -0.25,1.4 v 0.1 L -3.95,-24 H -4 -4.15 l -0.1,0.05 q -0.75,0.1 -1.4,0.55 -1,0.75 -1.25,1.85 -0.25,1.1 0.4,2.15 0.65,1.1 1.75,1.35 l 1.1,0.15 -0.1,0.75 q 0.1,1.15 0.95,1.75 l -0.05,0.9 q 0,1.4 0.4,2 0.6,0.8 2.3,1.1 1.6,0.2 4.85,0.1 -0.2,1.65 -0.1,2.45 0.25,1.45 1.3,2.05 0.65,0.35 1.9,0.35 l 1.9,0.05 q 0.05,1.35 1.2,2.15 0.5,0.4 1.3,0.5 l -0.05,0.3 q 0.05,0.55 0.55,0.9 0.5,0.4 1,0.25 0.3,-0.1 1,-0.65 l 3.35,-3 2.2,-1.85 0.4,0.5 2.05,2.05 0.7,0.55 0.95,0.05 0.7,-0.7 -0.05,-1.1 -2.15,-3.4 1.65,-1.3 q 0.5,-0.5 0.6,-1.25 0.1,-0.75 -0.25,-1.4 l -1.05,-0.9 q -0.65,-0.25 -1.25,0 l -0.8,-0.15 q -0.95,0.1 -1.45,0.7 l -0.1,-0.15 -1.2,-1.95 -0.4,-0.5 q 0.1,-2.55 -0.25,-4.85 l -0.1,-0.6 -0.2,-1.05 0.85,0.25 1.2,0.35 -0.3,1.15 v 0.35 l 0.35,1.2 q 0.35,0.7 1.05,1.1 0.65,0.4 1.5,0.4 0.75,0 1.45,-0.4 l 0.5,-0.25 0.75,-0.9 0.05,-0.05 2.2,1.7 q 2.7,2.3 4.6,4.6 h -0.1 q -0.7,0.05 -1.1,0.55 l -0.1,0.2 -0.2,0.4 -1.5,-0.45 -1.85,0.25 q -1.25,0.55 -1.8,1.8 -0.5,1.15 -0.35,2.55 0.2,1.2 0.75,1.75 l 0.9,0.65 V -6 l -0.1,3 q -0.1,2.05 0.35,3.15 l 0.6,0.9 0.4,0.35 q 0.7,0.5 1.45,0.4 L 30.35,1.85 30.6,2.35 31,4.5 30.2,5 29.7,5.3 28.5,5 27.2,5.05 26.85,4.4 26.45,4.05 26.4,3.85 Q 26.05,2.9 24.85,2.65 L 24.45,2.6 h -1.6 L 16.7,2.65 10.6,3.15 7.75,3.95 5.85,4.5 q -1,0.35 -1.3,0.6 -0.3,0.3 -0.3,0.55 v 0.1 L 3.15,6.4 2.9,6.55 2.7,6.45 2.55,6.4 1.45,6.3 1.2,6.4 q -0.95,0.35 -1.65,1.4 -0.75,1.15 -1.2,3.55 l -2.5,-0.2 -7.55,-1.4 0.9,-1.95 q 0.35,-0.9 0.2,-1.65 L -10.85,5.25 -10.9,5 h 0.25 l 6,-0.15 2.8,-0.2 Q -0.15,4.25 0.6,3.35 1.4,2.3 1.3,-0.25 L 1.05,-5.3 q 0,-1.35 -0.45,-2.05 -0.65,-1.1 -2.75,-1.2 h -0.4 q -0.5,-0.65 -1.65,-0.85 -2,-0.4 -4.6,0.6 -1.15,0.45 -1.1,1.15 v 0.05 l -0.5,0.1 -1,0.4 -0.35,-0.6 -0.65,-0.25 -0.7,0.2 q -0.4,0.4 -0.5,1.35 v 0.15 l -0.25,0.05 q -0.5,0.1 -0.85,0.4 l -0.1,-1 q -0.35,-1.7 -1.35,-2.55 -0.95,-0.8 -2.8,-1 l -1.65,0.2 -0.05,-0.05 -0.1,-0.6 q 0.2,-1.4 0.05,-1.95 -0.4,-1.45 -2.1,-1.7 l -1.7,0.05 -1.15,0.2 -0.3,0.1 -0.95,-0.25 h -1.4 l 3.65,-3.7 q 6.3,-5.55 15.75,-7.25 l 5.65,-0.65 m 22.8,24.05 q 0.75,1.15 2.1,1 1.3,-0.1 1.9,-1.3 l 0.25,-1 q 0,-0.7 -0.5,-1.25 Q 22.85,-5 22.1,-5.2 l -1.25,-0.05 q -1.1,0.25 -1.55,1.35 -0.4,1.1 0.25,2 m -38.1,-16.3 q 0.35,0.95 1.3,1.25 1.2,0.45 2.1,-0.4 0.95,-0.85 0.6,-2 -0.25,-0.85 -0.95,-1.25 l -0.6,-0.2 q -1.15,-0.35 -2,0.6 l -0.55,1.05 v 0.4 l 0.1,0.55 M -2.25,6.9 -2.6,6.2 -2.85,5.95 Q -3.4,5.45 -4.2,5.4 -5,5.4 -5.5,5.85 L -5.6,5.9 Q -6.15,6.4 -6.25,7.2 -6.4,8 -6,8.65 q 0.4,0.6 1.2,0.85 l 1.45,-0.1 1,-1.05 Q -2,7.6 -2.25,6.9"
         fill="#756d6c"
         fill-rule="evenodd"
         stroke="none"
         id="path3" />
      <path
         d="m 38.35,8.85 -0.05,1.1 v 1.65 q -0.1,0.95 -0.55,1.5 -0.5,0.7 -2.2,1.1 l -3.6,0.65 -0.55,0.1 0.1,-0.9 v -1.6 L 31.4,10.85 31.55,8.3 Q 31.45,6.7 30.7,5.95 30.3,5.55 29.7,5.3 L 30.2,5 31,4.5 v 0.1 q 0.1,1.45 0.35,2.15 0.35,1.25 1.25,1.75 0.6,0.4 1.55,0.4 l 1.7,-0.05 1.85,0.05 0.65,-0.05 m -14.2,8.5 -2.25,1.2 -1.5,0.9 0.1,-2.1 h 3.65 M 15.2,22.3 Q 8.4,25.45 -2.55,26.5 L -8.1,26.7 -12.3,26 q -4.35,-0.95 -8.35,-2.55 l 0.1,-0.1 q 0.9,-0.8 1.1,-1.9 0.25,-1.15 -0.35,-2.2 -0.55,-1.1 -1.6,-1.5 l -2.15,-0.15 q -2.15,0.25 -3.1,1.8 l -0.45,1 -1,-0.55 -4.2,-2.8 -0.45,-0.45 0.45,0.1 q 3.25,0.45 6.4,0.15 2.85,-0.3 3.55,-1.75 0.3,-0.7 0.2,-2 l -0.15,-2.05 2.25,-0.15 1.5,-0.25 0.75,0.35 -0.25,0.6 q -0.25,1.1 0.45,1.9 0.75,0.85 1.85,0.6 l 1.1,-0.75 0.65,-1.15 0.4,-1.05 0.65,-0.3 q 0.7,-0.4 1.25,-1.1 l 7.55,1.4 2.5,0.2 -0.2,1.1 q -0.55,4.4 -0.35,7 0.1,1.5 0.65,2.1 0.55,0.7 2.15,1 L 6.25,22.7 15.2,22.3 M -2.7,19.45 Q -2.75,18.65 -3.25,18 -3.8,17.35 -4.55,17.2 l -1.5,0.1 q -0.75,0.3 -1.15,0.95 -0.4,0.7 -0.35,1.5 0,0.8 0.5,1.4 0.5,0.55 1.3,0.75 l 1.5,-0.05 1.15,-0.95 q 0.45,-0.65 0.4,-1.45 M -15.2,13.9 q -0.7,0.4 -0.95,1.2 -0.3,0.75 -0.05,1.5 0.4,1.45 2,1.7 l 1.6,-0.25 q 1.25,-0.65 1.25,-2.15 0,-1.45 -1.35,-2.15 l -2.5,0.15"
         fill="#625b5a"
         fill-rule="evenodd"
         stroke="none"
         id="path4" />
      <path
         d="m 33.05,-12.75 1,1.5 1.2,2.15 1.4,3.9 0.2,0.8 0.3,1.05 0.45,2.1 0.05,0.4 0.65,3.8 -0.05,0.1 L 37.8,4.3 36.85,5.05 36.9,4.35 36.45,3.55 36.1,3.25 35.85,2.75 35.5,1.1 v -1.2 l -0.2,-0.85 0.05,-0.55 -0.05,-0.8 -0.2,-0.75 -0.05,-0.5 -0.7,-0.8 -0.2,-0.1 -1,-0.2 H 32.6 L 32.1,-4.7 31.65,-4.8 q -0.4,-0.2 -0.3,-0.95 v -1.1 l -0.2,-1.1 -0.05,-0.7 -0.15,-0.75 -0.25,-0.5 q -0.4,-0.5 -0.9,-0.4 h -0.05 l -0.7,0.45 0.15,-0.45 0.65,-0.75 0.6,-0.35 0.05,-0.05 0.45,-0.35 1,-0.55 1.1,-0.4 m -67.65,9.2 0.5,-1.4 1.1,-2.6 0.85,-0.4 0.45,-0.1 2.4,-0.35 2.15,-0.35 H -27 l 1.45,-0.05 0.1,1.4 0.6,0.65 0.2,0.15 q 0.25,0.2 0.7,0.3 l 1.25,-0.05 0.8,-0.1 1.25,-0.05 -0.05,1 -0.65,6.2 -0.45,3.55 -3.6,0.4 q -1.55,0.2 -2,0.8 V 5.5 l -0.45,1.2 -0.05,0.2 Q -28.15,9 -28,10.8 l -2,0.05 -1.45,0.05 -0.55,0.05 -0.75,0.3 -0.1,-0.25 Q -33.1,10.15 -32.9,8.85 l 0.25,-1.95 q -1.25,-0.15 -1.95,-0.95 -0.7,-0.75 -0.7,-2 l 0.2,-2.15 0.5,-4.9 v -0.45 m 37,-13.9 -0.1,-2.45 -0.1,-0.7 v -0.05 L 2,-21.1 1.5,-22.35 v -0.05 l 0.2,-0.35 q 0.5,-0.7 1.25,-1.05 l 0.35,-0.2 1.35,-0.25 1.5,-0.05 3.65,0.05 2.85,0.4 q 1.05,0.35 1.55,1.1 l 0.35,0.9 v 0.35 q -1,0.1 -1.35,1.1 l -0.1,0.3 -0.1,0.75 q -0.25,2.15 0,4.3 l 0.25,2.65 -2.95,-0.3 -0.2,-1.7 Q 10,-15.7 9.5,-16.2 l -0.45,-0.35 q -0.5,-0.6 -1.35,-0.7 l -2.6,0.1 -1.4,0.2 H 2.8 l -0.3,-0.1 -0.1,-0.4 M 2.9,6.55 3.15,6.4 4.25,5.75 Q 4.2,6.1 4.5,6.25 L 5.1,6.3 6.15,6.4 7.8,6.35 16.05,5.95 H 24 l 0.05,0.65 0.6,3.55 -7.75,0.7 q -1.95,0.2 -2.55,1 -0.45,0.6 -0.45,1.75 v 1.95 L 3.15,16.25 2.4,12.6 2.05,11.4 1.55,10.9 1.8,8.95 Q 2,7.7 2.45,7.05 L 2.9,6.55 m -14.3,-13.65 1,-0.4 0.5,-0.1 q 0,0.45 0.6,0.75 l 1.05,0.2 2.85,0.35 0.55,0.1 -0.05,1.05 0.3,0.9 v 0.2 l 0.1,0.9 0.1,1.7 -6.9,0.2 h -0.05 l -0.05,-5.5 V -7.1"
         fill="#6b4d49"
         fill-rule="evenodd"
         stroke="none"
         id="path5" />
      <path
         d="m 30.2,20.15 1.55,-0.3 0.1,0.7 0.4,1.85 q 1.15,4.75 0.55,9.9 -2.05,-2 -5.3,-2.6 v -0.25 l -0.05,-2 -0.55,-4.15 -0.5,-1.5 -0.1,-0.3 q 2.15,-0.95 3.9,-1.35 m -49.1,20.2 Q -19.75,34.7 -19.8,29 q 4.85,1.7 8.85,2.3 v 0.85 l 0.4,8.2 h -0.5 q -0.4,-2.3 -1.45,-3.25 -0.8,-0.7 -2,-0.8 -1.15,-0.05 -2.1,0.5 -1.95,1.05 -2.3,3.55 m 5.35,-8.1 q -0.2,-0.7 -0.85,-1.2 -0.55,-0.4 -1.3,-0.3 -0.75,0.05 -1.25,0.55 -0.5,0.5 -0.55,1.3 -0.1,0.75 0.3,1.3 l 1.15,0.75 1.35,-0.05 q 0.65,-0.3 0.95,-1 0.35,-0.65 0.2,-1.35"
         fill="#635b51"
         fill-rule="evenodd"
         stroke="none"
         id="path6" />
      <path
         d="M 19.15,38.15 18.3,37.6 18,36.8 17.85,36.1 q -0.05,-0.8 0.7,-1.55 0.55,-0.45 1.55,-0.7 l 3.95,-0.45 q 2.65,0 4.45,0.65 l 0.8,0.4 q 0.65,0.4 1.45,1.8 -0.7,0.6 -1.8,1 l -3.15,1.05 -1.8,0.45 -1.2,0.05 -2.75,-0.25 -0.9,-0.4"
         fill="#4e4840"
         fill-rule="evenodd"
         stroke="none"
         id="path7" />
    </g>
    <g
       id="sprite1"
       transform="translate(17.4,15.85)">
      <use
         ffdec:characterId="31"
         height="57.200001"
         transform="matrix(0.5366,0,0,0.5366,-16.6582,-14.546)"
         width="70.75"
         xlink:href="#sprite2"
         id="use7" />
    </g>
    <g
       id="sprite2"
       transform="translate(-8.65,-10.35)">
      <use
         ffdec:characterId="30"
         height="57.200001"
         transform="translate(8.65,10.35)"
         width="70.75"
         xlink:href="#shape1"
         id="use8" />
    </g>
    <g
       id="shape1"
       transform="translate(-8.65,-10.35)">
      <path
         d="m 14.8,41.7 q 0.65,-1.75 2.65,-2.5 1.8,-0.8 3.7,-0.25 1.15,0.45 2.25,1.2 l 0.9,0.4 q 1.65,0.9 2.85,2.5 L 37.8,30.1 q 2.35,-2.8 3.75,-3.95 1.5,-1.15 4.25,-2.4 18.2,-8.85 27.65,-12.6 2.15,-0.8 3.25,-0.8 h 0.8 l 1.9,2.4 -0.2,0.8 q -0.2,1.1 -1.55,3 -5.85,8.25 -18.85,23.8 -1.85,2.35 -3.35,3.5 -1.4,1.15 -4.75,2.75 l -15.15,7.15 q 1.2,1.6 1.75,3.4 l 0.2,1 0.55,2.5 q 0.1,1.95 -1.1,3.55 -1.2,1.65 -3.05,1.9 l -1.3,0.05 q -1.65,0.2 -3.45,-0.65 -1.85,-0.9 -3,-2.6 L 25,60.95 23.8,62.1 q -2.6,2.85 -4.3,3.95 -2.85,1.8 -5.5,1.45 l -1.65,-0.5 -1.2,-0.7 -0.2,-0.2 q -1,-0.85 -1.6,-1.9 L 9.25,64 9.15,63.8 8.75,62.4 q -0.2,-0.8 -0.05,-1.7 0.25,-2.65 2.7,-5.05 1.5,-1.3 4.9,-3.15 L 17.7,51.55 16.05,50 q -1.35,-1.5 -1.8,-3.6 -0.4,-1.85 0.25,-3.45 l 0.3,-1.25"
         fill="#000000"
         fill-opacity="0.372549"
         fill-rule="evenodd"
         stroke="none"
         id="path8" />
    </g>
  </defs>
</svg>
