<?xml version="1.0" encoding="UTF-8" standalone="no"?>
<svg
   ffdec:objectType="frame"
   height="88.084167"
   width="51.519619"
   version="1.1"
   id="svg5"
   xmlns:xlink="http://www.w3.org/1999/xlink"
   xmlns="http://www.w3.org/2000/svg"
   xmlns:svg="http://www.w3.org/2000/svg"
   xmlns:ffdec="https://www.free-decompiler.com/flash">
  <g
     transform="translate(22.460526,44.070833)"
     id="g1">
    <use
       ffdec:characterId="17"
       height="119.15"
       id="rarity"
       transform="translate(-58.5,-60.65)"
       width="119.15"
       xlink:href="#sprite0" />
    <use
       ffdec:characterId="521"
       height="88.050003"
       transform="translate(-22.45,-44.05)"
       width="51.5"
       xlink:href="#shape0"
       id="use1" />
  </g>
  <defs
     id="defs5">
    <g
       id="shape0"
       transform="translate(22.05,43.25)">
      <path
         d="M 17.95,-24.3 Q 13.3,-30.35 6.4,-34.45 q -1.25,-0.75 -2.65,-1.2 -4.65,-1.45 -9.1,-1.4 7.6,7.75 11.05,18 l 0.5,1.65 1.45,4.8 0.25,1.7 0.45,1.1 0.2,1.05 5.75,-1.6 v -1.75 l -0.25,-1.1 -0.1,-1.05 q -0.45,-0.7 -0.5,-1.5 l 0.1,-1.5 -0.2,-0.45 -0.15,-0.65 0.05,-0.2 0.1,-0.2 0.15,-0.2 0.25,-0.25 0.5,-0.1 h 0.2 l 0.5,0.1 q 3.25,3.45 4.2,7.85 l 4.6,-0.7 -0.25,-1.05 -0.1,-1.1 v -0.2 l -0.1,-0.25 Q 21.2,-20 17.95,-24.3 M -7.7,-43.2 q 14.1,-0.85 24.15,8.5 6.5,6.05 10.6,13.8 1.2,2.2 1.9,4.65 1.4,4.95 -1.05,8.85 -0.7,1.15 -2.05,1.35 -10.2,1.6 -20,4.15 -0.8,0.2 -1.3,-0.5 -1.4,-2 -1.85,-4.55 -1.55,-8.95 -5.35,-17 l -0.2,0.5 q -0.25,7 1.1,13.9 l 1,5.6 3.25,10.7 0.9,4.3 q 4,12.85 -2,24.9 -3.75,7.55 -12,8.85 -0.75,0.1 -1.2,-0.55 l -0.65,-1.75 q -1.45,-2.3 0.25,-5.2 0.75,-1.3 1,-2.85 1.7,-11.15 -1.95,-22 l -1.2,-4.4 -0.15,-0.2 -0.5,-1.25 -0.3,-2 -0.6,-1.7 -0.1,-0.65 -0.35,-0.6 -0.65,-2 -0.9,-2.5 q -0.55,-1.35 -0.55,-2.8 -1.25,-2.5 -1.95,-5.1 -1.45,-5.6 -1.65,-11.45 -0.1,-2.8 0.75,-5.35 0.15,-2.6 1.1,-4.95 3.3,-8.2 11.85,-10.6 l 0.65,-0.1 m 1.05,11.95 -0.25,-0.45 -0.4,-0.2 -1.3,-1 -1.8,-1.5 -0.75,-0.45 q -4.25,4.25 -4.5,10.3 -0.35,8.7 2.45,17.05 2.6,7.6 4.9,15.35 2.85,9.65 3.6,19.75 0.3,4.5 -1.1,8.55 V 36.2 Q -3.65,34.15 -2.7,31.05 -1.45,27.2 -0.5,23.3 -1.8,10.6 -5.4,-1.65 -7.25,-7.9 -8,-14.45 -8.85,-22.3 -5.3,-29 l -1.35,-2.25"
         fill="#000000"
         fill-rule="evenodd"
         stroke="none"
         id="path1" />
      <path
         d="m 5.7,-19.05 q 0.9,-5.1 5.55,-7.05 3.85,-0.1 6.7,1.8 3.25,4.3 5.35,9.65 l 0.05,0.35 0.05,0.1 0.1,1.1 0.25,1.05 -4.6,0.7 q -0.95,-4.4 -4.2,-7.85 l -0.5,-0.1 h -0.2 l -0.5,0.1 -0.25,0.25 -0.15,0.2 -0.1,0.2 -0.05,0.2 0.15,0.65 0.2,0.45 -0.1,1.5 q 0.05,0.8 0.5,1.5 l 0.1,1.05 0.25,1.1 v 1.75 L 8.55,-8.75 8.35,-9.8 7.9,-10.9 7.65,-12.6 6.2,-17.4 5.7,-19.05"
         fill="#727272"
         fill-rule="evenodd"
         stroke="none"
         id="path2" />
      <path
         d="m 5.7,-19.05 q -3.45,-10.25 -11.05,-18 4.45,-0.05 9.1,1.4 1.4,0.45 2.65,1.2 6.9,4.1 11.55,10.15 -2.85,-1.9 -6.7,-1.8 -4.65,1.95 -5.55,7.05"
         fill="#5f5f5f"
         fill-rule="evenodd"
         stroke="none"
         id="path3" />
      <path
         d="M -6.65,-31.25 -5.3,-29 q -3.55,6.7 -2.7,14.55 0.75,6.55 2.6,12.8 3.6,12.25 4.9,24.95 -0.95,3.9 -2.2,7.75 -0.95,3.1 -3.1,5.15 V 36.15 Q -4.4,32.1 -4.7,27.6 -5.45,17.5 -8.3,7.85 -10.6,0.1 -13.2,-7.5 q -2.8,-8.35 -2.45,-17.05 0.25,-6.05 4.5,-10.3 l 0.75,0.45 1.8,1.5 1.3,1 0.4,0.2 0.25,0.45"
         fill="#474747"
         fill-rule="evenodd"
         stroke="none"
         id="path4" />
    </g>
    <g
       id="sprite1"
       transform="translate(17.4,15.85)">
      <use
         ffdec:characterId="31"
         height="57.200001"
         transform="matrix(0.5366,0,0,0.5366,-16.6582,-14.546)"
         width="70.75"
         xlink:href="#sprite2"
         id="use4" />
    </g>
    <g
       id="sprite2"
       transform="translate(-8.65,-10.35)">
      <use
         ffdec:characterId="30"
         height="57.200001"
         transform="translate(8.65,10.35)"
         width="70.75"
         xlink:href="#shape1"
         id="use5" />
    </g>
    <g
       id="shape1"
       transform="translate(-8.65,-10.35)">
      <path
         d="m 14.8,41.7 q 0.65,-1.75 2.65,-2.5 1.8,-0.8 3.7,-0.25 1.15,0.45 2.25,1.2 l 0.9,0.4 q 1.65,0.9 2.85,2.5 L 37.8,30.1 q 2.35,-2.8 3.75,-3.95 1.5,-1.15 4.25,-2.4 18.2,-8.85 27.65,-12.6 2.15,-0.8 3.25,-0.8 h 0.8 l 1.9,2.4 -0.2,0.8 q -0.2,1.1 -1.55,3 -5.85,8.25 -18.85,23.8 -1.85,2.35 -3.35,3.5 -1.4,1.15 -4.75,2.75 l -15.15,7.15 q 1.2,1.6 1.75,3.4 l 0.2,1 0.55,2.5 q 0.1,1.95 -1.1,3.55 -1.2,1.65 -3.05,1.9 l -1.3,0.05 q -1.65,0.2 -3.45,-0.65 -1.85,-0.9 -3,-2.6 L 25,60.95 23.8,62.1 q -2.6,2.85 -4.3,3.95 -2.85,1.8 -5.5,1.45 l -1.65,-0.5 -1.2,-0.7 -0.2,-0.2 q -1,-0.85 -1.6,-1.9 L 9.25,64 9.15,63.8 8.75,62.4 q -0.2,-0.8 -0.05,-1.7 0.25,-2.65 2.7,-5.05 1.5,-1.3 4.9,-3.15 L 17.7,51.55 16.05,50 q -1.35,-1.5 -1.8,-3.6 -0.4,-1.85 0.25,-3.45 l 0.3,-1.25"
         fill="#000000"
         fill-opacity="0.372549"
         fill-rule="evenodd"
         stroke="none"
         id="path5" />
    </g>
  </defs>
</svg>
