<?xml version="1.0" encoding="UTF-8" standalone="no"?>
<svg
   ffdec:objectType="frame"
   height="55.801025"
   width="82.101418"
   version="1.1"
   id="svg5"
   xmlns:xlink="http://www.w3.org/1999/xlink"
   xmlns="http://www.w3.org/2000/svg"
   xmlns:svg="http://www.w3.org/2000/svg"
   xmlns:ffdec="https://www.free-decompiler.com/flash">
  <g
     transform="translate(36.203846,30.25)"
     id="g1">
    <use
       ffdec:characterId="17"
       height="119.15"
       id="rarity"
       transform="translate(-58.5,-60.65)"
       width="119.15"
       xlink:href="#sprite0" />
    <use
       ffdec:characterId="911"
       height="55.799999"
       transform="translate(-36.2,-30.25)"
       width="82.099998"
       xlink:href="#shape0"
       id="use1" />
  </g>
  <defs
     id="defs5">
    <g
       id="shape0"
       transform="translate(83,31.6)">
      <path
         d="m -62.3,-17.5 q 9.25,-0.25 15.05,7.05 L -46.2,-9 q 6,-1.4 12.25,-1.65 l 2.85,-5.35 1.1,-1.6 q -3.95,-2.7 -7.8,-5.55 -1.1,-0.8 -2.45,-1.15 -2.3,5.8 -8.05,4.35 -1.1,-0.25 -1.2,-1.35 -0.7,-8.2 7.8,-10.3 8.9,3.85 16.65,10 1.9,-0.9 4.25,-1.2 12.8,-0.8 18.15,10.55 3,6.35 0.85,12.85 -2.4,11.85 -14.55,14.8 -8.75,2.1 -14.4,-4.8 L -32.6,8.1 q -5.6,1.55 -11.25,1.3 -0.5,1.85 -1.35,3.7 -3.85,8.45 -13.45,10.45 l -2.5,0.4 q -12.8,1.75 -19.5,-8.7 -1.1,-1.7 -1.55,-3.65 -1,-4.25 -0.7,-8.15 -0.45,-3.8 1.05,-7.7 l 1.7,-5 q 2.9,-7.55 7.55,-14.25 2.25,-3.2 5.1,-5.95 0.3,-0.9 1.2,-1.45 l 1.75,-0.55 q 5.35,1.9 4.8,7.95 -0.6,6.3 -6.75,3.65 l -1.35,-0.8 q -2.25,3.15 -4.1,6.45 4.35,-2.85 9.65,-3.3 m 0.65,6.15 -1.25,0.3 h -0.25 q -3.9,0.55 -6.4,2.95 -5.9,4.25 -6.45,13 -0.65,9.9 9.3,11.75 5.5,1 10.65,-1.25 4,-1.75 5.35,-5.85 l 0.15,-0.35 q 1.6,-2.05 1.75,-5.25 0.15,-3.3 -0.9,-6.3 -2.65,-7.3 -9.45,-8.5 l -0.25,-0.3 -0.15,-0.1 -2.1,-0.1 M -35.1,-3.8 V -4 l -1.65,-0.25 -5.15,0.85 -1.7,0.35 0.4,2.05 0.2,2 q 0.1,1.25 0.05,2.45 3.35,-0.05 6.9,-1.05 l 0.95,-0.35 -0.1,-1.1 0.1,-1.5 V -3.8 M -17,-9.35 q 1.35,-3.75 -3.65,-4.3 l -2.3,0.7 -1.55,-1 q -1.4,1.35 -2.3,3.35 l -1.2,2.6 -0.05,0.65 -0.2,1.1 -0.35,1.05 q -1.75,9.25 6.4,13.8 2.9,1.65 5.85,0.25 l 4.2,-2.3 1.6,-1.15 q 2.15,-2.85 3.1,-6.4 0.35,-1.2 0.4,-2.45 -2.05,-0.1 -4,-1.9 -1.35,-1.35 -3.05,-2.3 l -2.9,-1.7 m 5.9,-4 q -2,-2 -4.6,-2.85 l -2.6,-0.2 5.3,3.35 q 2.55,1.5 4.55,3.35 -1,-2 -2.65,-3.65"
         fill="#000000"
         fill-rule="evenodd"
         stroke="none"
         id="path1" />
      <path
         d="m -65.9,-6.9 q 6.05,-0.1 4.35,5.45 -0.85,2.75 -3.65,3.85 -5.05,1.95 -6.7,-2.65 -0.35,-0.95 0.25,-1.8 2.3,-3.35 5.75,-4.85 M -43,1 l -0.2,-2 -0.4,-2.05 1.7,-0.35 5.15,-0.85 1.65,0.25 v 0.2 q -0.55,0.65 -1.5,1.35 -2.1,1.55 -4.35,2.85 Q -42.1,1.05 -43,1 m 20.05,-13.95 2.3,-0.7 q 5,0.55 3.65,4.3 l -0.7,1.4 q -2.95,5.05 -7.6,2 -1.15,-0.75 -0.95,-2.25 0.45,-3.45 3.3,-4.75 m 10.15,13.75 0.65,0.2 0.35,0.15 0.25,0.25 0.35,0.4 0.15,0.25 v 0.2 L -11,2.65 V 3.1 l -0.1,0.2 -0.45,0.65 -0.25,0.2 -0.35,0.2 -0.65,0.2 -0.7,-0.15 -0.75,-0.7 -0.4,-1.05 0.1,-0.4 q 0.15,-0.65 0.7,-1.1 L -13.5,1 -12.8,0.8 m -43.45,6.9 0.55,0.15 0.35,0.2 0.2,0.2 0.3,0.45 0.1,0.2 -0.1,0.85 q -0.25,0.7 -1,1 L -56.9,10.6 -57.25,10.45 -57.6,10 l -0.15,-1.05 0.1,-0.4 0.6,-0.65 0.35,-0.1 0.4,-0.1 h 0.05"
         fill="#ffffff"
         fill-rule="evenodd"
         stroke="none"
         id="path2" />
      <path
         d="m -43,1 q 0.9,0.05 2.05,-0.6 2.25,-1.3 4.35,-2.85 0.95,-0.7 1.5,-1.35 v 3.25 l -0.1,1.5 0.1,1.1 -0.95,0.35 q -3.55,1 -6.9,1.05 Q -42.9,2.25 -43,1"
         fill="#bfbfbf"
         fill-rule="evenodd"
         stroke="none"
         id="path3" />
      <path
         d="m -65.9,-6.9 q -3.45,1.5 -5.75,4.85 -0.6,0.85 -0.25,1.8 1.65,4.6 6.7,2.65 2.8,-1.1 3.65,-3.85 1.7,-5.55 -4.35,-5.45 m 4.25,-4.45 2.1,0.1 0.15,0.1 0.25,0.3 q 6.8,1.2 9.45,8.5 1.05,3 0.9,6.3 -0.15,3.2 -1.75,5.25 l -0.15,0.35 q -1.35,4.1 -5.35,5.85 -5.15,2.25 -10.65,1.25 -9.95,-1.85 -9.3,-11.75 0.55,-8.75 6.45,-13 2.5,-2.4 6.4,-2.95 h 0.25 l 1.25,-0.3 m 44.65,2 2.9,1.7 q 1.7,0.95 3.05,2.3 1.95,1.8 4,1.9 -0.05,1.25 -0.4,2.45 -0.95,3.55 -3.1,6.4 l -1.6,1.15 -4.2,2.3 q -2.95,1.4 -5.85,-0.25 -8.15,-4.55 -6.4,-13.8 l 0.35,-1.05 0.2,-1.1 0.05,-0.65 1.2,-2.6 q 0.9,-2 2.3,-3.35 l 1.55,1 q -2.85,1.3 -3.3,4.75 -0.2,1.5 0.95,2.25 4.65,3.05 7.6,-2 l 0.7,-1.4 m 5.9,-4 q 1.65,1.65 2.65,3.65 -2,-1.85 -4.55,-3.35 l -5.3,-3.35 2.6,0.2 q 2.6,0.85 4.6,2.85 M -56.25,7.7 h -0.05 l -0.4,0.1 -0.35,0.1 -0.6,0.65 -0.1,0.4 0.15,1.05 0.35,0.45 0.35,0.15 1.05,0.15 q 0.75,-0.3 1,-1 l 0.1,-0.85 -0.1,-0.2 -0.3,-0.45 -0.2,-0.2 -0.35,-0.2 -0.55,-0.15 M -12.8,0.8 -13.5,1 -13.85,1.15 q -0.55,0.45 -0.7,1.1 l -0.1,0.4 0.4,1.05 0.75,0.7 0.7,0.15 0.65,-0.2 0.35,-0.2 0.25,-0.2 L -11.1,3.3 -11,3.1 V 2.65 l -0.05,-0.4 V 2.05 L -11.2,1.8 -11.55,1.4 -11.8,1.15 -12.15,1 -12.8,0.8"
         fill="#ffffff"
         fill-opacity="0"
         fill-rule="evenodd"
         stroke="none"
         id="path4" />
    </g>
    <g
       id="sprite1"
       transform="translate(17.4,15.85)">
      <use
         ffdec:characterId="31"
         height="57.200001"
         transform="matrix(0.5366,0,0,0.5366,-16.6582,-14.546)"
         width="70.75"
         xlink:href="#sprite2"
         id="use4" />
    </g>
    <g
       id="sprite2"
       transform="translate(-8.65,-10.35)">
      <use
         ffdec:characterId="30"
         height="57.200001"
         transform="translate(8.65,10.35)"
         width="70.75"
         xlink:href="#shape1"
         id="use5" />
    </g>
    <g
       id="shape1"
       transform="translate(-8.65,-10.35)">
      <path
         d="m 14.8,41.7 q 0.65,-1.75 2.65,-2.5 1.8,-0.8 3.7,-0.25 1.15,0.45 2.25,1.2 l 0.9,0.4 q 1.65,0.9 2.85,2.5 L 37.8,30.1 q 2.35,-2.8 3.75,-3.95 1.5,-1.15 4.25,-2.4 18.2,-8.85 27.65,-12.6 2.15,-0.8 3.25,-0.8 h 0.8 l 1.9,2.4 -0.2,0.8 q -0.2,1.1 -1.55,3 -5.85,8.25 -18.85,23.8 -1.85,2.35 -3.35,3.5 -1.4,1.15 -4.75,2.75 l -15.15,7.15 q 1.2,1.6 1.75,3.4 l 0.2,1 0.55,2.5 q 0.1,1.95 -1.1,3.55 -1.2,1.65 -3.05,1.9 l -1.3,0.05 q -1.65,0.2 -3.45,-0.65 -1.85,-0.9 -3,-2.6 L 25,60.95 23.8,62.1 q -2.6,2.85 -4.3,3.95 -2.85,1.8 -5.5,1.45 l -1.65,-0.5 -1.2,-0.7 -0.2,-0.2 q -1,-0.85 -1.6,-1.9 L 9.25,64 9.15,63.8 8.75,62.4 q -0.2,-0.8 -0.05,-1.7 0.25,-2.65 2.7,-5.05 1.5,-1.3 4.9,-3.15 L 17.7,51.55 16.05,50 q -1.35,-1.5 -1.8,-3.6 -0.4,-1.85 0.25,-3.45 l 0.3,-1.25"
         fill="#000000"
         fill-opacity="0.372549"
         fill-rule="evenodd"
         stroke="none"
         id="path5" />
    </g>
  </defs>
</svg>
