<?xml version="1.0" encoding="UTF-8" standalone="no"?>
<svg
   ffdec:objectType="frame"
   height="76.400002"
   width="86.14756"
   version="1.1"
   id="svg3"
   sodipodi:docname="ITEM Barbed Mask.svg"
   xmlns:inkscape="http://www.inkscape.org/namespaces/inkscape"
   xmlns:sodipodi="http://sodipodi.sourceforge.net/DTD/sodipodi-0.dtd"
   xmlns:xlink="http://www.w3.org/1999/xlink"
   xmlns="http://www.w3.org/2000/svg"
   xmlns:svg="http://www.w3.org/2000/svg"
   xmlns:ffdec="https://www.free-decompiler.com/flash">
  <sodipodi:namedview
     id="namedview3"
     pagecolor="#ffffff"
     bordercolor="#000000"
     borderopacity="0.25"
     inkscape:showpageshadow="2"
     inkscape:pageopacity="0.0"
     inkscape:pagecheckerboard="0"
     inkscape:deskcolor="#d1d1d1"
     fit-margin-top="5"
     fit-margin-left="5"
     fit-margin-right="5"
     fit-margin-bottom="5" />
  <g
     transform="translate(43.347561,38.4)"
     id="g1">
    <use
       ffdec:characterId="17"
       height="119.15"
       id="rarity"
       transform="translate(-58.5,-60.65)"
       width="119.15"
       xlink:href="#sprite0" />
    <use
       ffdec:characterId="937"
       height="76.400002"
       transform="translate(-43.35,-38.4)"
       width="86.150002"
       xlink:href="#shape0"
       id="use1" />
  </g>
  <defs
     id="defs3">
    <g
       id="shape0"
       transform="translate(90.15,39.75)">
      <path
         d="m -72.35,-14.45 q 4.15,1.6 1.1,4.9 -1.2,1.3 -3.15,1.6 l -2.25,0.3 -0.9,0.6 -0.85,1.1 -0.1,1.1 q -0.15,1 0.3,1.8 2.75,-2.1 5.75,-3.85 2.85,-1.65 5.5,-3.75 l 0.8,-0.45 0.2,-0.45 0.35,-0.8 0.3,-0.2 0.65,-0.2 v -0.05 l 0.5,0.2 0.3,0.15 q 0.4,0.35 0.4,0.85 l 0.1,1.1 q -3.4,5.95 -8.6,10.35 l 2.4,2.1 q 3.7,4.05 0.7,8 l 2.9,0.55 q 1,0.25 1.8,1 3.9,3.85 6.05,9.1 l 0.55,1.15 2.5,-1.55 q -1.05,-2.15 -1.3,-4.65 -0.15,-1.15 1,-1.65 l 1,-0.25 q 2.2,1.15 3.3,3.3 l 0.7,-0.7 1.25,-1.15 0.35,-7.15 0.75,-0.8 q 0.55,-0.4 1.1,-0.45 l 1.05,0.4 0.3,0.2 q 0.75,2.35 1,4.9 5.7,-2.5 12.65,0.15 1.05,1.05 1.6,2.4 0.35,0.9 -0.1,1.7 l -0.2,0.1 -0.3,0.05 -0.4,-0.1 -0.2,-0.2 -0.1,-0.2 -0.1,-0.45 -0.1,-0.15 -0.95,-0.45 -0.15,-0.1 q -6.05,-0.5 -10.9,2.15 2,3.7 -0.9,6.5 -0.55,0.55 -1.25,0.15 -1.9,-1.1 -2.65,-2.95 l -1.05,1.15 V 22 l 0.3,1.25 v 0.2 l -0.15,0.4 -0.25,0.45 -0.35,0.2 -0.75,0.25 h -0.05 l -0.6,-0.2 -0.35,-0.15 -0.1,-0.1 -0.5,0.4 -0.9,0.75 5.6,-0.2 q 2.1,-0.6 3.95,-1.7 2.65,-1.65 4.2,1.05 1.15,2.05 -0.9,3.6 -9.2,7 -18.6,0.55 -2.6,1.05 -5.35,1.45 l -0.5,1.6 q -0.6,1.7 -1.35,3.15 l -0.6,0.1 -0.9,-0.2 q -0.5,-0.55 -0.5,-1.3 l -0.3,-1.75 0.05,-0.2 0.05,-0.2 0.15,-0.45 -0.05,-0.6 -2,-0.15 -0.7,1.8 q -0.95,2.6 -2.7,4.6 l -0.3,0.05 -0.4,-0.1 q -0.95,-0.8 -0.8,-1.95 0.1,-1.05 -0.1,-2.15 l 0.3,-1.25 0.6,-1.9 -0.65,-0.2 q -7.5,-2.35 -7.2,-9.55 0.1,-2.15 1.2,-4.05 -1.6,-1 -2.95,-2.7 l -0.3,-0.4 -1.7,-0.15 -2.5,-0.1 q -0.85,0.1 -1.3,-0.65 L -89.95,11.3 -90,11.1 v -0.25 l 0.05,-0.2 Q -88.4,9 -86.2,8.25 l 0.1,-2 Q -89.05,5.35 -90,2.6 -90.55,1 -89.05,0 q 0.75,-0.55 1.6,-0.55 2.6,0.35 4.8,1.35 l 0.3,-0.3 -0.9,-1.7 q -1.35,-3.7 0.45,-7.2 2.7,-5.1 8.65,-5.75 l 1.2,-0.2 0.6,-0.1 m 17.8,-14.25 -2.95,1.05 0.25,2.2 0.3,-0.05 v -0.05 l 1.1,0.4 0.3,0.2 0.15,0.2 0.2,-0.25 0.3,-0.25 0.35,-0.1 0.5,-0.05 v -0.05 l 0.6,0.15 0.4,0.2 0.55,1.3 3.05,-2.6 q -2.1,-1.9 -5.1,-2.3 m -1.1,-5.85 q 6.95,0.3 10.75,4.7 l 2.8,-1.85 1.5,-0.75 q 0.2,-1.25 0.85,-2.35 0.6,-1.15 1.7,-1.4 1.85,0.55 1.6,2.5 l -0.05,0.4 2.8,0.05 q 2.2,-3.55 5.3,-6.35 l 0.3,-0.15 0.55,0.15 0.35,0.2 0.25,0.25 0.25,0.4 v 0.2 l -2.7,6.65 q 3.25,1.8 5.1,5.9 l 0.55,1.55 q 5.8,1.4 8.7,7.5 2.35,4.85 1.45,9.7 l 0.45,0.4 q 2.8,2.65 3.4,6.35 0.95,2.4 1.05,4.65 l 1.7,0.7 2.65,1.35 0.1,0.25 0.1,0.2 0.1,0.25 0.05,0.2 v 0.2 0.2 l -0.1,0.2 -0.1,0.25 -0.1,0.2 Q -6.75,9.2 -9.55,8.7 l -0.4,0.85 q 1.8,1.2 3.45,2.7 1.25,1.15 1.7,2.7 l -0.15,0.65 -0.85,0.8 -0.15,0.05 q -4,-0.8 -7.4,-2.65 -2.6,2.2 -5.9,2.3 l -0.05,-0.25 -0.05,-0.2 -0.1,-0.4 V 15 l -0.05,-0.2 q 0.35,-2.3 1.5,-4.25 l -0.1,-0.1 q -0.4,-0.35 -0.35,-1 0.2,-2.05 1.95,-2.6 -1.45,-1.1 -0.2,-3.4 l 0.75,-0.65 0.2,-0.05 0.6,-0.05 V 2.65 l 1,0.1 q -0.75,-2.15 -1.9,-3.85 -2.9,4.35 -8.3,5.45 l -1.05,-0.05 -0.25,-0.25 -0.5,-0.85 -0.1,-0.65 0.15,-0.6 q 3.35,-2.5 5.75,-5.85 l 0.65,-0.95 -2.15,-1.3 -1.35,1.1 q -1.4,0.95 -3.1,1.4 l -0.5,-0.15 -0.3,-0.2 -0.15,-0.25 -0.15,-0.4 -0.15,-0.65 1.1,-2.6 -0.85,-0.65 q -2.5,1.5 -4.5,3.55 l -0.15,0.05 -0.35,0.05 -0.55,-0.1 q -1.75,-3.6 2.45,-6.35 l 1.1,-0.75 q -0.95,-2.75 -0.5,-5.65 -4.1,3.05 -9,4.55 -4.15,1.2 -6.2,-2.3 -1.6,-2.7 -2.2,-5.85 -2.15,1.8 -4.5,3.35 l -0.15,1.75 q -0.3,2.1 -2.15,3 -1.55,0.75 -2.3,-0.75 -0.7,-1.5 -0.6,-3.05 l -1.4,-0.85 -1.55,1.7 q -1.1,1.1 -2.45,1.75 l -0.35,0.05 -0.55,-0.1 -0.3,-0.25 -0.3,-0.4 -0.15,-0.2 q 0.9,-3.3 2.85,-6.3 l -1.1,-2.75 -2.45,3.05 q -0.35,0.6 -1.1,0.45 -4.4,-0.65 -2.4,-4.45 1.95,-3.65 4.9,-5.9 l -0.05,-0.8 -0.15,-0.2 -0.15,-0.2 -0.25,-0.45 q -1.6,-1.15 -3.4,-0.6 -0.85,0.25 -1.35,1.05 l -0.35,0.05 -0.4,-0.05 -0.2,-0.25 -0.05,-0.2 -0.15,-0.4 -0.1,-0.25 q -0.05,-1.3 0.85,-2.35 1.5,-1.65 3.55,-1.8 4.7,0.85 6.65,4 l 3.15,-0.85 m 13.7,9.85 0.7,2.65 0.25,2.6 0.15,0.2 0.15,0.25 0.2,0.4 0.1,0.15 q 5.45,-1.7 10.05,-5.6 l 0.95,-0.6 q -0.65,-1.3 -2.15,-2.05 l -1.2,2.8 q -0.45,1 -1.5,0.75 -3.55,-0.75 -2.3,-4.2 l 0.1,-0.3 -0.5,0.05 q -0.55,1.3 -1.7,2.45 -0.65,0.55 -1.3,0 l -1.15,-1.5 -1.15,0.55 -0.15,0.2 0.45,1.2 m 23.8,13.75 q -0.35,-2.1 -1.35,-4 -1.45,-2.85 -4.2,-4.15 -0.2,1.75 -0.65,3.45 l 0.9,-0.35 1.1,0.4 0.3,0.15 q 0.9,1.95 0.1,3.4 l 1.05,0.35 0.3,0.2 0.3,0.9 1.5,0.55 0.65,0.2 v -1.1 m -54.8,17.4 q -1.25,-2.3 -3.65,-3.2 l -1.35,1.1 1.35,1.85 q 0.4,0.65 -0.2,1.2 l -1.6,1.05 0.3,0.65 v 0.2 0.2 0.25 0.2 l -0.3,0.35 1,0.45 4.45,-4.3 m -4.3,14.35 q 1.25,2.45 3.55,3.45 l 0.4,-1.35 q 0.5,-1.55 2.05,-1.6 2.7,1.2 2.65,3.65 l 1.15,-0.1 q 0.5,-0.5 1.35,-0.55 l 0.65,0.25 2.05,-0.5 -0.6,-1.45 q -1.3,-3.8 -4.1,-6.55 -1.25,-1.2 -2.9,-0.45 -2.3,1 -4.4,1.2 -1.35,1.75 -1.85,4"
         fill="#000000"
         fill-rule="evenodd"
         stroke="none"
         id="path1" />
    </g>
    <g
       id="sprite1"
       transform="translate(17.4,15.85)">
      <use
         ffdec:characterId="31"
         height="57.200001"
         transform="matrix(0.5366,0,0,0.5366,-16.6582,-14.546)"
         width="70.75"
         xlink:href="#sprite2"
         id="use2" />
    </g>
    <g
       id="sprite2"
       transform="translate(-8.65,-10.35)">
      <use
         ffdec:characterId="30"
         height="57.200001"
         transform="translate(8.65,10.35)"
         width="70.75"
         xlink:href="#shape1"
         id="use3" />
    </g>
    <g
       id="shape1"
       transform="translate(-8.65,-10.35)">
      <path
         d="m 14.8,41.7 q 0.65,-1.75 2.65,-2.5 1.8,-0.8 3.7,-0.25 1.15,0.45 2.25,1.2 l 0.9,0.4 q 1.65,0.9 2.85,2.5 L 37.8,30.1 q 2.35,-2.8 3.75,-3.95 1.5,-1.15 4.25,-2.4 18.2,-8.85 27.65,-12.6 2.15,-0.8 3.25,-0.8 h 0.8 l 1.9,2.4 -0.2,0.8 q -0.2,1.1 -1.55,3 -5.85,8.25 -18.85,23.8 -1.85,2.35 -3.35,3.5 -1.4,1.15 -4.75,2.75 l -15.15,7.15 q 1.2,1.6 1.75,3.4 l 0.2,1 0.55,2.5 q 0.1,1.95 -1.1,3.55 -1.2,1.65 -3.05,1.9 l -1.3,0.05 q -1.65,0.2 -3.45,-0.65 -1.85,-0.9 -3,-2.6 L 25,60.95 23.8,62.1 q -2.6,2.85 -4.3,3.95 -2.85,1.8 -5.5,1.45 l -1.65,-0.5 -1.2,-0.7 -0.2,-0.2 q -1,-0.85 -1.6,-1.9 L 9.25,64 9.15,63.8 8.75,62.4 q -0.2,-0.8 -0.05,-1.7 0.25,-2.65 2.7,-5.05 1.5,-1.3 4.9,-3.15 L 17.7,51.55 16.05,50 q -1.35,-1.5 -1.8,-3.6 -0.4,-1.85 0.25,-3.45 l 0.3,-1.25"
         fill="#000000"
         fill-opacity="0.372549"
         fill-rule="evenodd"
         stroke="none"
         id="path3" />
    </g>
  </defs>
</svg>
