<?xml version="1.0" encoding="UTF-8" standalone="no"?>
<svg
   ffdec:objectType="frame"
   height="82.523582"
   width="69.076096"
   version="1.1"
   id="svg4"
   xmlns:xlink="http://www.w3.org/1999/xlink"
   xmlns="http://www.w3.org/2000/svg"
   xmlns:svg="http://www.w3.org/2000/svg"
   xmlns:ffdec="https://www.free-decompiler.com/flash">
  <g
     transform="translate(36.32193,44.3)"
     id="g1">
    <use
       ffdec:characterId="17"
       height="119.15"
       id="rarity"
       transform="translate(-58.5,-60.65)"
       width="119.15"
       xlink:href="#sprite0" />
    <use
       ffdec:characterId="269"
       height="82.5"
       transform="translate(-36.3,-44.3)"
       width="69.050003"
       xlink:href="#shape0"
       id="use1" />
  </g>
  <defs
     id="defs4">
    <g
       id="shape0"
       transform="translate(36,46.8)">
      <path
         d="M 12.25,33.55 Q 7.65,35.95 4.5,35.7 2.4,35.5 0.75,34.1 -1,32.65 -1.05,30.7 q -0.05,-1.55 1,-3.25 0.6,-1 2.2,-2.75 Q 8.65,17.55 10.8,11.15 12.5,5.8 11.2,1.45 10.5,-1 8.85,-2.85 7.1,-4.8 4.8,-5.5 0.1,-7 -6.4,-3.2 q -3.4,2 -5.95,4.3 -2.6,2.15 -3.55,4.35 -0.8,1.9 -0.7,6.2 0.2,4.85 0.7,7.25 l 0.9,3.3 q 0.55,2 0.65,3.35 0.15,1.8 -0.4,3.4 -0.65,1.75 -2,2.65 l -5.4,0.15 q -2.1,-1 -4.35,-3.5 -4.7,-5.3 -7.15,-11.75 -2.6,-6.65 -2.35,-13.4 0.25,-7 3.5,-13.25 3.35,-6.35 9,-10.15 4.65,-3.15 11.45,-4.8 l 12.5,-2.05 q -0.25,-3.95 -0.1,-6.25 0.2,-3.45 1.2,-6.05 1.15,-3.05 3.55,-5.1 2.6,-2.2 5.6,-2.25 2.3,0 4.7,1.2 3.15,1.55 5.1,4.35 2.05,3 1.8,6.2 -0.25,3.1 -2.6,6.1 -1.1,1.45 -1.1,2.25 0,0.75 0.6,1.45 l 1.25,1.15 q 5.1,4 8.3,9.4 3.4,5.7 4.1,11.8 0.35,3.15 0.1,7 -0.15,3.7 -0.85,6.7 -0.95,3.85 -3.35,8.2 -2.1,3.8 -4.25,6.05 -2.2,2.25 -5.4,4.4 -3.05,2.1 -6.85,4.1 M 13.1,-23 q -0.55,-1.1 -0.6,-2.2 -0.05,-1.45 0.85,-3.15 l 1.8,-2.85 q 2.4,-3.85 1.05,-6.2 -0.65,-1.2 -3,-2.4 -1.8,-0.9 -2.8,-0.75 -1.4,0.2 -2.5,2.2 -1.4,2.45 -1.5,5.5 l 0.1,2.65 0.15,2.6 q 0,3.25 -1.55,4.95 -1.05,1.15 -2.95,1.65 l -3.5,0.55 q -6.15,0.6 -10.3,1.75 -5.5,1.55 -9.25,4.45 -4.3,3.35 -6.6,8.65 -2.3,5.15 -2.15,10.75 0.2,5.4 2.6,10.6 l 0.4,0.85 q 2.25,4.5 5.9,8.15 -1.05,-3.5 -1.45,-8 L -22.5,8.6 q -0.1,-3.8 0.65,-5.65 0.65,-1.65 2.8,-4 4.25,-4.45 9.05,-7.25 5.35,-3.1 10.8,-3.8 3.75,-0.45 6.5,0.5 3.25,1.15 6.1,4.5 3.75,4.4 4.35,9.1 0.35,2.35 -0.1,6.1 -0.35,3.95 -1.35,6.65 -0.9,2.5 -3.65,6.3 L 6.25,29.6 Q 8.3,29.05 10.6,27.75 l 4,-2.55 q 3.85,-2.5 5.75,-4.5 2.4,-2.45 4.1,-6.05 4.05,-8.55 2.45,-17.4 -0.8,-4.45 -3,-8.35 -2.25,-3.95 -5.65,-6.8 l -3.7,-3.1 q -0.95,-1 -1.45,-2"
         fill="#000000"
         fill-rule="evenodd"
         stroke="none"
         id="path1" />
      <path
         d="m -26.65,16.6 -0.4,-0.85 q -2.4,-5.2 -2.6,-10.6 -0.15,-5.6 2.15,-10.75 2.3,-5.3 6.6,-8.65 3.75,-2.9 9.25,-4.45 4.15,-1.15 10.3,-1.75 L 2.15,-21 q 1.9,-0.5 2.95,-1.65 1.55,-1.7 1.55,-4.95 L 6.5,-30.2 6.4,-32.85 q 0.1,-3.05 1.5,-5.5 1.1,-2 2.5,-2.2 1,-0.15 2.8,0.75 2.35,1.2 3,2.4 1.35,2.35 -1.05,6.2 l -1.8,2.85 q -0.9,1.7 -0.85,3.15 0.05,1.1 0.6,2.2 l -0.15,0.15 q -6.4,6.7 -15.1,9.6 l -3.95,1.15 -3.9,1.3 q -7.7,3 -12.15,10.1 -1.75,2.85 -4.05,9.15 -0.95,2.6 -0.65,3.85 l 0.5,1.55 q 0.35,0.9 0.25,1.55 -0.05,0.7 -0.55,1.2"
         fill="#eeeeee"
         fill-rule="evenodd"
         stroke="none"
         id="path2" />
      <path
         d="m -26.65,16.6 q 0.5,-0.5 0.55,-1.2 0.1,-0.65 -0.25,-1.55 l -0.5,-1.55 q -0.3,-1.25 0.65,-3.85 2.3,-6.3 4.05,-9.15 4.45,-7.1 12.15,-10.1 l 3.9,-1.3 3.95,-1.15 q 8.7,-2.9 15.1,-9.6 L 13.1,-23 q 0.5,1 1.45,2 l 3.7,3.1 q 3.4,2.85 5.65,6.8 2.2,3.9 3,8.35 1.6,8.85 -2.45,17.4 -1.7,3.6 -4.1,6.05 -1.9,2 -5.75,4.5 l -4,2.55 q -2.3,1.3 -4.35,1.85 l 6.4,-8.55 q 2.75,-3.8 3.65,-6.3 1,-2.7 1.35,-6.65 0.45,-3.75 0.1,-6.1 -0.6,-4.7 -4.35,-9.1 -2.85,-3.35 -6.1,-4.5 -2.75,-0.95 -6.5,-0.5 -5.45,0.7 -10.8,3.8 -4.8,2.8 -9.05,7.25 -2.15,2.35 -2.8,4 -0.75,1.85 -0.65,5.65 l 0.3,8.15 q 0.4,4.5 1.45,8 -3.65,-3.65 -5.9,-8.15"
         fill="#cdcdcd"
         fill-rule="evenodd"
         stroke="none"
         id="path3" />
    </g>
    <g
       id="sprite1"
       transform="translate(17.4,15.85)">
      <use
         ffdec:characterId="31"
         height="57.200001"
         transform="matrix(0.5366,0,0,0.5366,-16.6582,-14.546)"
         width="70.75"
         xlink:href="#sprite2"
         id="use3" />
    </g>
    <g
       id="sprite2"
       transform="translate(-8.65,-10.35)">
      <use
         ffdec:characterId="30"
         height="57.200001"
         transform="translate(8.65,10.35)"
         width="70.75"
         xlink:href="#shape1"
         id="use4" />
    </g>
    <g
       id="shape1"
       transform="translate(-8.65,-10.35)">
      <path
         d="m 14.8,41.7 q 0.65,-1.75 2.65,-2.5 1.8,-0.8 3.7,-0.25 1.15,0.45 2.25,1.2 l 0.9,0.4 q 1.65,0.9 2.85,2.5 L 37.8,30.1 q 2.35,-2.8 3.75,-3.95 1.5,-1.15 4.25,-2.4 18.2,-8.85 27.65,-12.6 2.15,-0.8 3.25,-0.8 h 0.8 l 1.9,2.4 -0.2,0.8 q -0.2,1.1 -1.55,3 -5.85,8.25 -18.85,23.8 -1.85,2.35 -3.35,3.5 -1.4,1.15 -4.75,2.75 l -15.15,7.15 q 1.2,1.6 1.75,3.4 l 0.2,1 0.55,2.5 q 0.1,1.95 -1.1,3.55 -1.2,1.65 -3.05,1.9 l -1.3,0.05 q -1.65,0.2 -3.45,-0.65 -1.85,-0.9 -3,-2.6 L 25,60.95 23.8,62.1 q -2.6,2.85 -4.3,3.95 -2.85,1.8 -5.5,1.45 l -1.65,-0.5 -1.2,-0.7 -0.2,-0.2 q -1,-0.85 -1.6,-1.9 L 9.25,64 9.15,63.8 8.75,62.4 q -0.2,-0.8 -0.05,-1.7 0.25,-2.65 2.7,-5.05 1.5,-1.3 4.9,-3.15 L 17.7,51.55 16.05,50 q -1.35,-1.5 -1.8,-3.6 -0.4,-1.85 0.25,-3.45 l 0.3,-1.25"
         fill="#000000"
         fill-opacity="0.372549"
         fill-rule="evenodd"
         stroke="none"
         id="path4" />
    </g>
  </defs>
</svg>
