<?xml version="1.0" encoding="UTF-8" standalone="no"?>
<svg
   ffdec:objectType="frame"
   height="76.889755"
   width="90.813911"
   version="1.1"
   id="svg4"
   xmlns:xlink="http://www.w3.org/1999/xlink"
   xmlns="http://www.w3.org/2000/svg"
   xmlns:svg="http://www.w3.org/2000/svg"
   xmlns:ffdec="https://www.free-decompiler.com/flash">
  <g
     transform="translate(45.701408,38.959756)"
     id="g1">
    <use
       ffdec:characterId="17"
       height="119.15"
       id="rarity"
       transform="translate(-58.5,-60.65)"
       width="119.15"
       xlink:href="#sprite0" />
    <use
       ffdec:characterId="384"
       height="76.900002"
       transform="translate(-45.7,-38.95)"
       width="90.800003"
       xlink:href="#shape0"
       id="use1" />
  </g>
  <defs
     id="defs4">
    <g
       id="shape0"
       transform="translate(45.4,41.45)">
      <path
         d="m -21.3,-4.2 0.95,-2.1 q 1.45,-3 3.55,-5.8 l 0.95,-1.2 q 5.65,-7.05 15.5,-13.05 L 4.7,-29.4 q 2.9,-1.8 4.8,-3.35 -2.25,-2.65 -8.1,-1.65 -9.5,1.8 -18.2,8.25 l -1.35,1.05 q -4.05,3.15 -7.7,7.2 l -1.25,1.45 -3.8,4.85 q -5,6.9 -6.75,12.95 -2.3,8 0.55,14.4 1.65,3.75 4.95,6.4 l 5.75,4.15 q 2.4,1.5 9.2,2.05 6.8,0.55 15.75,-2.65 8.95,-3.2 14.55,-6 5.6,-2.85 11.95,-7.65 L 36,2.7 Q 38.15,0.75 38.2,-0.75 38.3,-2.6 34.95,-5 l -0.65,-0.5 -0.9,2 q -0.45,1.65 -1.25,1.8 -0.65,0.05 -1.1,-0.55 l -0.5,-1.2 q -0.35,-1.65 -0.3,-2.75 0.1,-1.2 1.15,-3.85 l 1,-1.95 0.1,-0.05 q 0.2,-1.4 -0.75,-1.9 l -1.65,0.05 q -1.45,0.55 -2.65,2.3 l -1.85,3.25 q -2.1,3.7 -5.9,7.05 -2.85,2.5 -7.6,5.5 -7.9,5 -14.35,7.65 -8.2,3.25 -15.65,3.4 -4.8,0.1 -8.15,-1.3 -4.4,-1.9 -5.9,-5.65 L -32,8.2 -32.5,6.35 Q -32.9,3.85 -32,0.9 l 0.1,-0.45 q 0.3,-0.95 0.9,-1.5 0.65,-0.7 1.45,-0.55 1.05,0.3 1.15,1.8 0.05,0.75 -0.25,2.25 -0.2,2.1 1.25,3.85 1.5,1.75 3.6,1.95 -0.15,-5.3 1.8,-10.7 l 0.7,-1.75 M 9.25,-2.15 Q 16,-6.45 18.8,-10.6 l 2.25,-3.75 q 1.35,-2.3 2.5,-3.55 1.7,-1.85 4.1,-2.7 2.45,-0.9 4.85,-0.45 2.5,0.45 4.4,2.25 1.9,1.85 2.25,4.3 0.1,1.85 0.4,2.7 0.3,0.75 0.95,1.55 l 1.25,1.3 q 2.1,2.25 3.05,4.9 1.05,2.95 0.3,5.55 -0.75,2.6 -4.2,6.05 L 32.65,15 q -8.6,7.05 -16.85,10.6 -8.3,3.6 -15.85,6.2 -7.55,2.55 -11.15,2.95 l -7.6,0.65 q -4.05,0.3 -9.85,-2.4 -5.8,-2.75 -10.9,-8.65 -5.15,-5.95 -5.75,-13.3 -0.6,-6.3 2.35,-14.2 3.7,-10 11.25,-18.45 7.2,-8.15 16.9,-13.7 9.4,-5.45 17.75,-6.1 5.2,-0.35 8.45,1.35 2,1.05 3.25,2.9 1.3,1.95 1.25,4.05 -0.05,3.25 -3.15,6 l -2.85,2.05 -3.05,1.75 q -9.95,5.65 -15.65,12.1 -7.25,8.25 -8.35,17.7 -0.2,1.3 0.4,1.8 Q -16.2,8.8 -15,8.5 -3.3,6 9.25,-2.15"
         fill="#000000"
         fill-rule="evenodd"
         stroke="none"
         id="path1" />
      <path
         d="m -27.1,-16.45 1.25,-1.45 q 3.65,-4.05 7.7,-7.2 l 1.35,-1.05 q 8.7,-6.45 18.2,-8.25 5.85,-1 8.1,1.65 -1.9,1.55 -4.8,3.35 l -5.05,3.05 q -9.85,6 -15.5,13.05 l -0.95,1.2 q -2.1,2.8 -3.55,5.8 l -0.95,2.1 -1.85,0.25 q -3.05,0.2 -4.25,-0.9 -0.85,-0.65 -1.3,-2.25 -0.5,-1.65 -0.35,-3.5 0.25,-2.25 1.7,-5.35 l 0.25,-0.5 M -32,0.9 q -0.9,2.95 -0.5,5.45 l 0.5,1.85 0.05,0.1 q 1.5,3.75 5.9,5.65 3.35,1.4 8.15,1.3 7.45,-0.15 15.65,-3.4 Q 4.2,9.2 12.1,4.2 q 4.75,-3 7.6,-5.5 3.8,-3.35 5.9,-7.05 l 1.85,-3.25 q 1.2,-1.75 2.65,-2.3 l 1.65,-0.05 q 0.95,0.5 0.75,1.9 l -0.1,0.05 -1,1.95 q -1.05,2.65 -1.15,3.85 -0.05,1.1 0.3,2.75 l 0.5,1.2 q -3.1,4.4 -8.25,7.85 -3.3,2.2 -9.75,5.3 l -9.75,4.8 -7.8,3.5 q -4.65,1.85 -9.5,2.65 -9.75,1.65 -15.5,-2.05 -3.85,-2.5 -5.35,-7.2 -1.55,-4.65 0,-9 0.55,-1.5 1.4,-2.15 0.5,-0.45 1.15,-0.55 h 0.3"
         fill="#91809f"
         fill-rule="evenodd"
         stroke="none"
         id="path2" />
      <path
         d="m -27.1,-16.45 -0.25,0.5 q -1.45,3.1 -1.7,5.35 -0.15,1.85 0.35,3.5 0.45,1.6 1.3,2.25 1.2,1.1 4.25,0.9 l 1.85,-0.25 -0.7,1.75 q -1.95,5.4 -1.8,10.7 -2.1,-0.2 -3.6,-1.95 -1.45,-1.75 -1.25,-3.85 0.3,-1.5 0.25,-2.25 -0.1,-1.5 -1.15,-1.8 -0.8,-0.15 -1.45,0.55 -0.6,0.55 -0.9,1.5 L -32,0.9 h -0.3 q -0.65,0.1 -1.15,0.55 -0.85,0.65 -1.4,2.15 -1.55,4.35 0,9 1.5,4.7 5.35,7.2 5.75,3.7 15.5,2.05 4.85,-0.8 9.5,-2.65 l 7.8,-3.5 9.75,-4.8 q 6.45,-3.1 9.75,-5.3 5.15,-3.45 8.25,-7.85 0.45,0.6 1.1,0.55 0.8,-0.15 1.25,-1.8 l 0.9,-2 0.65,0.5 q 3.35,2.4 3.25,4.25 -0.05,1.5 -2.2,3.45 l -10.95,9.35 q -6.35,4.8 -11.95,7.65 -5.6,2.8 -14.55,6 -8.95,3.2 -15.75,2.65 -6.8,-0.55 -9.2,-2.05 l -5.75,-4.15 q -3.3,-2.65 -4.95,-6.4 -2.85,-6.4 -0.55,-14.4 1.75,-6.05 6.75,-12.95 l 3.8,-4.85"
         fill="#776983"
         fill-rule="evenodd"
         stroke="none"
         id="path3" />
    </g>
    <g
       id="sprite1"
       transform="translate(17.4,15.85)">
      <use
         ffdec:characterId="31"
         height="57.200001"
         transform="matrix(0.5366,0,0,0.5366,-16.6582,-14.546)"
         width="70.75"
         xlink:href="#sprite2"
         id="use3" />
    </g>
    <g
       id="sprite2"
       transform="translate(-8.65,-10.35)">
      <use
         ffdec:characterId="30"
         height="57.200001"
         transform="translate(8.65,10.35)"
         width="70.75"
         xlink:href="#shape1"
         id="use4" />
    </g>
    <g
       id="shape1"
       transform="translate(-8.65,-10.35)">
      <path
         d="m 14.8,41.7 q 0.65,-1.75 2.65,-2.5 1.8,-0.8 3.7,-0.25 1.15,0.45 2.25,1.2 l 0.9,0.4 q 1.65,0.9 2.85,2.5 L 37.8,30.1 q 2.35,-2.8 3.75,-3.95 1.5,-1.15 4.25,-2.4 18.2,-8.85 27.65,-12.6 2.15,-0.8 3.25,-0.8 h 0.8 l 1.9,2.4 -0.2,0.8 q -0.2,1.1 -1.55,3 -5.85,8.25 -18.85,23.8 -1.85,2.35 -3.35,3.5 -1.4,1.15 -4.75,2.75 l -15.15,7.15 q 1.2,1.6 1.75,3.4 l 0.2,1 0.55,2.5 q 0.1,1.95 -1.1,3.55 -1.2,1.65 -3.05,1.9 l -1.3,0.05 q -1.65,0.2 -3.45,-0.65 -1.85,-0.9 -3,-2.6 L 25,60.95 23.8,62.1 q -2.6,2.85 -4.3,3.95 -2.85,1.8 -5.5,1.45 l -1.65,-0.5 -1.2,-0.7 -0.2,-0.2 q -1,-0.85 -1.6,-1.9 L 9.25,64 9.15,63.8 8.75,62.4 q -0.2,-0.8 -0.05,-1.7 0.25,-2.65 2.7,-5.05 1.5,-1.3 4.9,-3.15 L 17.7,51.55 16.05,50 q -1.35,-1.5 -1.8,-3.6 -0.4,-1.85 0.25,-3.45 l 0.3,-1.25"
         fill="#000000"
         fill-opacity="0.372549"
         fill-rule="evenodd"
         stroke="none"
         id="path4" />
    </g>
  </defs>
</svg>
