<?xml version="1.0" encoding="UTF-8" standalone="no"?>
<svg
   ffdec:objectType="frame"
   height="52.958569"
   width="91.350288"
   version="1.1"
   id="svg6"
   sodipodi:docname="ITEM Fecal Necklace.svg"
   xmlns:inkscape="http://www.inkscape.org/namespaces/inkscape"
   xmlns:sodipodi="http://sodipodi.sourceforge.net/DTD/sodipodi-0.dtd"
   xmlns:xlink="http://www.w3.org/1999/xlink"
   xmlns="http://www.w3.org/2000/svg"
   xmlns:svg="http://www.w3.org/2000/svg"
   xmlns:ffdec="https://www.free-decompiler.com/flash">
  <sodipodi:namedview
     id="namedview6"
     pagecolor="#ffffff"
     bordercolor="#000000"
     borderopacity="0.25"
     inkscape:showpageshadow="2"
     inkscape:pageopacity="0.0"
     inkscape:pagecheckerboard="0"
     inkscape:deskcolor="#d1d1d1"
     fit-margin-top="5"
     fit-margin-left="5"
     fit-margin-right="5"
     fit-margin-bottom="5" />
  <g
     transform="translate(46.758416,20.636111)"
     id="g1">
    <use
       ffdec:characterId="17"
       height="119.15"
       id="rarity"
       transform="translate(-58.5,-60.65)"
       width="119.15"
       xlink:href="#sprite0" />
    <use
       ffdec:characterId="765"
       height="52.950001"
       transform="translate(-46.75,-20.65)"
       width="91.349998"
       xlink:href="#shape0"
       id="use1" />
  </g>
  <defs
     id="defs6">
    <g
       id="shape0"
       transform="translate(47.3,21.4)">
      <path
         d="m 26.2,-16 q 12.7,-0.05 16.45,12 2.5,8 -2.75,14.5 7.05,4.05 2.1,10.3 -1.95,2.55 -4.85,4.05 -9.7,5.1 -20.9,5.1 L 10,29.4 q -3.35,-0.55 -6.4,-2.15 -5.7,5.05 -13.55,4.2 -2.2,-0.25 -4.2,-1.2 l -1.3,-0.95 -0.3,-0.25 q -2.5,1.95 -7,1.25 -3.2,-0.5 -5.1,-3.1 l -2.05,0.55 -4.15,0.7 q -8.9,1.65 -12.3,-6.4 -2.2,-5.2 0.65,-10.2 7.85,-13.75 23.25,-17.2 7.8,-1.75 15.6,0.05 3.5,-6.05 11,-7 6.75,-0.8 12.9,1.65 L 18.9,-12.4 Q 22,-15.45 26.2,-16 M 34.75,9.85 Q 35.8,7.1 37.7,4.85 L 38.1,3.8 q 0.5,-1.45 0.45,-3 -0.05,-2 -0.55,-3.9 -2.5,-6.45 -9.05,-7.35 -5.35,-0.75 -8.05,4 -2.4,4.2 -5.8,0.95 -8,-4.2 -15.75,0.75 L -1.5,-4.2 Q -2.15,0.15 -5.95,0.2 H -6.2 L -7.45,0.1 -7.9,0 q -15.85,-3.65 -27.45,7.05 l -1.75,1.8 q -4.05,4.65 -4.5,10.55 -0.1,0.85 0.35,1.7 l 0.2,0.2 0.6,0.65 0.6,0.65 0.95,0.85 q 5.7,0.45 11.3,-1.55 l 0.6,-0.1 1.2,-0.9 0.35,-0.1 q 0.45,0 0.7,0.35 l 0.15,0.25 0.05,0.4 -0.1,0.45 v 1.3 l 0.15,0.6 0.9,0.9 0.25,0.2 6.2,-0.4 v -0.2 l 0.15,-0.2 0.15,-0.2 0.2,-0.2 0.35,-0.15 0.35,-0.05 0.5,0.1 0.35,0.25 0.15,0.2 0.1,-0.05 q 0.5,-0.1 0.9,0.3 l 0.25,0.45 0.2,0.45 -0.2,0.6 1.6,0.65 0.45,0.15 q 7.15,1 12.05,-3.4 3.65,-3.25 8.5,-0.55 1.25,0.7 2.7,0.85 12.2,1.25 23.25,-3.5 3,-1.3 4.5,-4.1 l -1.6,-1.4 q -2.65,5.1 -9.9,3.35 -1.8,-0.45 -3.15,-1.75 -2.85,-2.8 -1.5,-6.2 L 23.4,8.95 23.55,7.2 23.45,6.85 23.4,6.8 23.3,6.15 23.25,5.95 Q 23,5.4 22.55,5 L 22.25,4.45 22.45,4 Q 22.7,3.55 23.2,3.6 l 1.15,0.5 0.5,0.2 0.45,0.45 0.4,0.4 q 0.75,1.7 0.95,3.65 l 0.05,0.4 v 2.15 q 0.6,1.4 2,2.15 l 1.2,0.6 h 2.15 l 2.65,-2.45 q -0.35,-0.8 0.05,-1.8 m -52.7,3.65 v -0.2 l 0.1,-0.85 0.05,-0.2 Q -16,9.7 -13.5,7.7 l 2.05,-1.4 2.5,-0.85 h 0.05 q 0.4,0.05 0.8,0.25 0.15,0.05 0.35,0.2 l 0.1,0.1 0.05,0.2 v 0.25 l -0.2,0.4 q -2.8,1.4 -4.8,3.8 l -0.65,0.75 -1.3,1.9 -0.1,0.2 v 0.65 q 0.05,0.55 -0.15,1.1 l 0.25,0.6 0.55,1.1 1.7,0.2 1.8,-1.9 0.9,-0.95 2.45,-2.95 0.15,-0.25 0.05,-0.05 1.4,-1.2 0.2,-0.15 1.3,-0.7 0.3,-0.2 -0.2,0.75 -0.2,0.75 -0.4,1.1 Q -6.2,15.7 -9.6,18.85 L -10,19.2 q -2.4,2.1 -5.3,0.6 -3.95,-2.05 -2.65,-6.05 V 13.5 m 1.5,-31.15 -1.25,0.15 q -1.6,0.85 -2.65,2.3 -0.85,1.1 -1,2.4 l 0.1,0.2 0.3,0.25 0.3,0.2 q 4.55,-1.75 9.65,-2.5 l -1,-1.5 q -0.9,-1 -2.2,-1.45 l -2.25,-0.05 m -1.85,-3.6 q 8.05,-1.05 10.45,6 0.6,1.9 0.2,3.95 l -0.05,0.2 -0.15,0.25 -0.1,0.2 -0.25,0.4 -0.3,0.25 -0.3,0.1 q -1.55,0.2 -3.05,-0.6 -4.6,1.25 -9.05,1.5 -3.2,0.15 -3.95,-2.7 -0.5,-1.8 0.3,-3.55 1.8,-3.9 5.75,-5.9 l 0.5,-0.05 v -0.05"
         fill="#000000"
         fill-rule="evenodd"
         stroke="none"
         id="path1" />
      <path
         d="m 10.9,-1 0.55,0.2 0.35,0.15 0.2,0.25 0.3,0.65 v 0.2 l -0.05,0.4 -0.6,0.85 Q 11.35,2 10.9,1.9 L 9.95,1.65 9.75,1.4 9.6,1.2 9.45,1 V 0.6 q 0,-0.45 0.15,-0.9 l 0.2,-0.2 0.25,-0.2 0.25,-0.15 0.15,-0.05 0.45,-0.05 V -1 m 16.7,-6 1.8,0.25 0.7,0.3 q 2.95,4.75 -2.7,6 Q 25.25,0 24.25,-1.95 23.5,-3.4 23.85,-5.1 l 0.1,-0.2 0.25,-0.4 0.55,-0.65 1.7,-0.5 L 27.6,-7 m -51.35,10.3 2.3,0.1 1,0.25 0.3,0.25 0.15,0.2 0.3,0.4 q 0.35,5.65 -6.3,5 -2.4,-0.25 -2.8,-2.4 0.15,-1.5 1.45,-2.35 1.75,-1.05 3.6,-1.45 m -8.5,5.95 0.5,0.1 0.35,0.25 0.3,0.4 0.1,0.25 -0.1,0.6 -0.55,0.8 -0.55,0.05 -0.9,-0.25 -0.35,-0.65 0.05,-0.85 0.15,-0.2 0.25,-0.25 0.2,-0.15 0.2,-0.05 0.35,-0.05"
         fill="#fafafa"
         fill-rule="evenodd"
         stroke="none"
         id="path2" />
      <path
         d="m -14.55,13.3 -0.05,0.95 q 0,0.8 0.8,0.95 1.75,0.35 3.3,0.05 l -1.8,1.9 -1.7,-0.2 -0.55,-1.1 -0.25,-0.6 q 0.2,-0.55 0.15,-1.1 V 13.5 l 0.1,-0.2"
         fill="#695a5a"
         fill-rule="evenodd"
         stroke="none"
         id="path3" />
      <path
         d="m 10.9,-1 v 0.05 L 10.45,-0.9 10.3,-0.85 10.05,-0.7 9.8,-0.5 9.6,-0.3 Q 9.45,0.15 9.45,0.6 V 1 L 9.6,1.2 9.75,1.4 9.95,1.65 10.9,1.9 Q 11.35,2 11.65,1.7 l 0.6,-0.85 0.05,-0.4 V 0.25 L 12,-0.4 11.8,-0.65 11.45,-0.8 10.9,-1 m 16.7,-6 -1.15,0.15 -1.7,0.5 -0.55,0.65 -0.25,0.4 -0.1,0.2 q -0.35,1.7 0.4,3.15 1,1.95 3.15,1.5 5.65,-1.25 2.7,-6 L 29.4,-6.75 27.6,-7 m -64.7,15.85 1.75,-1.8 Q -23.75,-3.65 -7.9,0 l 0.45,0.1 1.25,0.1 h 0.25 q 3.8,-0.05 4.45,-4.4 l 0.85,-0.55 Q 7.1,-9.7 15.1,-5.5 q 3.4,3.25 5.8,-0.95 2.7,-4.75 8.05,-4 6.55,0.9 9.05,7.35 0.5,1.9 0.55,3.9 0.05,1.55 -0.45,3 L 37.7,4.85 Q 35.8,7.1 34.75,9.85 31.3,11.3 26.9,9.3 L 26.7,9.2 26.65,8.8 Q 26.45,6.85 25.7,5.15 L 25.3,4.75 24.85,4.3 24.35,4.1 23.2,3.6 Q 22.7,3.55 22.45,4 l -0.2,0.45 0.3,0.55 q 0.45,0.4 0.7,0.95 l 0.05,0.2 0.1,0.65 0.05,0.05 -1.85,0.25 q -1.7,0.7 -3.3,1.7 l -2,2.85 v 0.15 q -3.25,3.95 -8.9,4.45 L 5.45,16.6 2.8,16.9 q -0.8,3.6 -5.55,5.7 -5.1,2.25 -6.55,-2.1 l -0.2,-1.4 -0.1,-0.25 q 3.4,-3.15 5.05,-7.45 l 0.4,-1.1 0.2,-0.75 0.2,-0.75 -0.3,0.2 -1.3,0.7 -0.2,0.15 -1.4,1.2 -0.05,0.05 -0.15,0.25 -2.45,2.95 -0.9,0.95 q -1.55,0.3 -3.3,-0.05 -0.8,-0.15 -0.8,-0.95 l 0.05,-0.95 1.3,-1.9 0.65,-0.75 q 2,-2.4 4.8,-3.8 l 0.2,-0.4 V 6.2 L -7.65,6 -7.75,5.9 Q -7.95,5.75 -8.1,5.7 -8.5,5.5 -8.9,5.45 h -0.05 l -2.5,0.85 -2.05,1.4 q -2.5,2 -4.3,4.55 l -0.05,0.2 -0.1,0.85 v 0.2 q -8.3,4.55 -17.4,1.45 -1,-0.35 -1.25,-1.45 l -0.3,-1.7 q -0.35,-1.55 -0.2,-2.95 m 20.65,-26.5 2.25,0.05 q 1.3,0.45 2.2,1.45 l 1,1.5 q -5.1,0.75 -9.65,2.5 l -0.3,-0.2 -0.3,-0.25 -0.1,-0.2 q 0.15,-1.3 1,-2.4 1.05,-1.45 2.65,-2.3 l 1.25,-0.15 m -7.3,20.95 q -1.85,0.4 -3.6,1.45 -1.3,0.85 -1.45,2.35 0.4,2.15 2.8,2.4 6.65,0.65 6.3,-5 l -0.3,-0.4 -0.15,-0.2 -0.3,-0.25 -1,-0.25 -2.3,-0.1 m -8.5,5.95 -0.35,0.05 -0.2,0.05 -0.2,0.15 -0.25,0.25 -0.15,0.2 -0.05,0.85 0.35,0.65 0.9,0.25 0.55,-0.05 0.55,-0.8 0.1,-0.6 -0.1,-0.25 -0.3,-0.4 -0.35,-0.25 -0.5,-0.1"
         fill="#826363"
         fill-rule="evenodd"
         stroke="none"
         id="path4" />
      <path
         d="m -37.1,8.85 q -0.15,1.4 0.2,2.95 l 0.3,1.7 q 0.25,1.1 1.25,1.45 9.1,3.1 17.4,-1.45 v 0.25 q -1.3,4 2.65,6.05 2.9,1.5 5.3,-0.6 l 0.4,-0.35 0.1,0.25 0.2,1.4 q 1.45,4.35 6.55,2.1 Q 2,20.5 2.8,16.9 L 5.45,16.6 7.4,16.25 q 5.65,-0.5 8.9,-4.45 v -0.15 l 2,-2.85 q 1.6,-1 3.3,-1.7 l 1.85,-0.25 0.1,0.35 -0.15,1.75 -0.2,1.3 q -1.35,3.4 1.5,6.2 1.35,1.3 3.15,1.75 7.25,1.75 9.9,-3.35 l 1.6,1.4 q -1.5,2.8 -4.5,4.1 Q 23.8,25.1 11.6,23.85 10.15,23.7 8.9,23 4.05,20.3 0.4,23.55 q -4.9,4.4 -12.05,3.4 l -0.45,-0.15 -1.6,-0.65 0.2,-0.6 -0.2,-0.45 -0.25,-0.45 q -0.4,-0.4 -0.9,-0.3 l -0.1,0.05 -0.15,-0.2 -0.35,-0.25 -0.5,-0.1 -0.35,0.05 -0.35,0.15 -0.2,0.2 -0.15,0.2 -0.15,0.2 v 0.2 l -6.2,0.4 -0.25,-0.2 -0.9,-0.9 -0.15,-0.6 v -1.3 l 0.1,-0.45 -0.05,-0.4 -0.15,-0.25 Q -25,20.8 -25.45,20.8 l -0.35,0.1 -1.2,0.9 -0.6,0.1 q -5.6,2 -11.3,1.55 l -0.95,-0.85 -0.6,-0.65 -0.6,-0.65 -0.2,-0.2 q -0.45,-0.85 -0.35,-1.7 0.45,-5.9 4.5,-10.55 m 63.8,0.35 0.2,0.1 q 4.4,2 7.85,0.55 -0.4,1 -0.05,1.8 L 32.05,14.1 H 29.9 l -1.2,-0.6 q -1.4,-0.75 -2,-2.15 V 9.2"
         fill="#6b5050"
         fill-rule="evenodd"
         stroke="none"
         id="path5" />
    </g>
    <g
       id="sprite1"
       transform="translate(17.4,15.85)">
      <use
         ffdec:characterId="31"
         height="57.200001"
         transform="matrix(0.5366,0,0,0.5366,-16.6582,-14.546)"
         width="70.75"
         xlink:href="#sprite2"
         id="use5" />
    </g>
    <g
       id="sprite2"
       transform="translate(-8.65,-10.35)">
      <use
         ffdec:characterId="30"
         height="57.200001"
         transform="translate(8.65,10.35)"
         width="70.75"
         xlink:href="#shape1"
         id="use6" />
    </g>
    <g
       id="shape1"
       transform="translate(-8.65,-10.35)">
      <path
         d="m 14.8,41.7 q 0.65,-1.75 2.65,-2.5 1.8,-0.8 3.7,-0.25 1.15,0.45 2.25,1.2 l 0.9,0.4 q 1.65,0.9 2.85,2.5 L 37.8,30.1 q 2.35,-2.8 3.75,-3.95 1.5,-1.15 4.25,-2.4 18.2,-8.85 27.65,-12.6 2.15,-0.8 3.25,-0.8 h 0.8 l 1.9,2.4 -0.2,0.8 q -0.2,1.1 -1.55,3 -5.85,8.25 -18.85,23.8 -1.85,2.35 -3.35,3.5 -1.4,1.15 -4.75,2.75 l -15.15,7.15 q 1.2,1.6 1.75,3.4 l 0.2,1 0.55,2.5 q 0.1,1.95 -1.1,3.55 -1.2,1.65 -3.05,1.9 l -1.3,0.05 q -1.65,0.2 -3.45,-0.65 -1.85,-0.9 -3,-2.6 L 25,60.95 23.8,62.1 q -2.6,2.85 -4.3,3.95 -2.85,1.8 -5.5,1.45 l -1.65,-0.5 -1.2,-0.7 -0.2,-0.2 q -1,-0.85 -1.6,-1.9 L 9.25,64 9.15,63.8 8.75,62.4 q -0.2,-0.8 -0.05,-1.7 0.25,-2.65 2.7,-5.05 1.5,-1.3 4.9,-3.15 L 17.7,51.55 16.05,50 q -1.35,-1.5 -1.8,-3.6 -0.4,-1.85 0.25,-3.45 l 0.3,-1.25"
         fill="#000000"
         fill-opacity="0.372549"
         fill-rule="evenodd"
         stroke="none"
         id="path6" />
    </g>
  </defs>
</svg>
