<?xml version="1.0" encoding="UTF-8" standalone="no"?>
<svg
   ffdec:objectType="frame"
   height="47.55294"
   width="82.195457"
   version="1.1"
   id="svg5"
   sodipodi:docname="ITEM Brick Necklace.svg"
   xmlns:inkscape="http://www.inkscape.org/namespaces/inkscape"
   xmlns:sodipodi="http://sodipodi.sourceforge.net/DTD/sodipodi-0.dtd"
   xmlns:xlink="http://www.w3.org/1999/xlink"
   xmlns="http://www.w3.org/2000/svg"
   xmlns:svg="http://www.w3.org/2000/svg"
   xmlns:ffdec="https://www.free-decompiler.com/flash">
  <sodipodi:namedview
     id="namedview5"
     pagecolor="#ffffff"
     bordercolor="#000000"
     borderopacity="0.25"
     inkscape:showpageshadow="2"
     inkscape:pageopacity="0.0"
     inkscape:pagecheckerboard="0"
     inkscape:deskcolor="#d1d1d1"
     fit-margin-top="5"
     fit-margin-left="5"
     fit-margin-right="5"
     fit-margin-bottom="5" />
  <g
     transform="translate(42.245455,16.852941)"
     id="g1">
    <use
       ffdec:characterId="17"
       height="119.15"
       id="rarity"
       transform="translate(-58.5,-60.65)"
       width="119.15"
       xlink:href="#sprite0" />
    <use
       ffdec:characterId="826"
       height="47.549999"
       transform="translate(-42.25,-16.85)"
       width="82.199997"
       xlink:href="#shape0"
       id="use1" />
  </g>
  <defs
     id="defs5">
    <g
       id="shape0"
       transform="translate(42.8,17.6)">
      <path
         d="m 34.5,-0.45 q 1.7,0.75 3.05,1.65 l 1.35,1.35 q 0.5,0.75 0.5,2.6 l -0.05,7.7 q 0,1.95 -0.65,2.75 -0.7,0.85 -2.85,1.25 -3.65,0.65 -10.75,2.85 -2.95,0.85 -4.45,1.75 -1.55,0.95 -2.1,1.05 -0.8,0.1 -2.3,-0.5 L 6.05,17.8 4.6,16.8 Q 4.25,16.3 4.25,14.8 L 5.1,1.2 q 0.1,-1.35 0.55,-1.85 l 1.1,-0.6 1.3,-0.15 Q 9.5,-1.6 12.2,-2.55 l 4.1,-0.55 q 4.15,-0.4 6.6,-0.1 l 2.1,0.05 1.4,-0.25 2.05,0.35 1.95,0.95 4.1,1.65 M 35.75,4 35.1,3.5 Q 33.7,2.65 31.05,1.65 L 26.9,-0.1 25.75,-0.6 H 24.4 l -3.3,0.3 Q 12.8,0.5 8.65,2 L 8.6,2.8 Q 8,8.6 8,13.65 l 0.1,0.65 0.7,0.5 q 4.55,2.05 8.55,3.55 l 1.05,0.25 h 0.1 l 0.9,-0.4 q 0.55,-0.35 1.85,-0.75 9.35,-3.05 14.3,-4.05 l 0.5,-0.25 0.1,-0.5 V 5.4 L 36.1,4.55 36,4.3 35.75,4 M 10.7,5.3 10.3,4.8 Q 9.85,4.35 10.15,4.1 l 0.5,-0.05 q 1.15,0.3 2.85,1.35 l 2.75,1.5 1.2,0.5 0.25,-0.25 Q 18.1,6.8 19,6.7 L 28.5,5.15 30.45,5.1 h 0.8 L 31.8,5.05 q 0.35,0.1 0.4,0.35 0.1,0.4 -0.5,0.5 L 30.95,6 30.3,6.3 29.55,6.4 27.8,6.85 20,8.95 l -0.25,1.4 -0.3,2.05 -0.25,3.4 q -0.1,0.95 -0.6,1.05 L 18.15,16.75 17.9,16.4 Q 17.75,16.15 17.75,15.55 17.7,12.85 17.2,10.2 L 16.05,9.4 14.5,8.45 13.7,7.95 Q 12.75,7.4 11.95,6.65 L 10.7,5.3 m -25.6,12.25 -0.4,0.1 -0.65,-0.55 -0.1,-0.95 q 0.3,-4.85 0,-9.7 l 0.2,-1.9 1.05,-1.6 Q -14,2 -13.85,1.35 l -0.05,-1.25 -0.7,-3.3 -0.15,-4.05 q 0.05,-2.6 -0.25,-4 l -0.1,-0.7 q -5.25,2.6 -10.1,5.95 l -1.1,1 -0.45,1.6 -0.3,8.65 -0.1,11.35 q 0,2.05 -0.25,3.3 l -0.3,1 1.6,-0.45 2.95,-0.3 2.35,-0.3 q 0.4,0 0.55,0.25 l 0.1,0.3 -0.1,0.25 -0.45,0.3 -0.6,0.1 -0.75,0.3 -0.7,0.05 -0.85,0.3 -1.95,0.45 -1.4,0.5 -1.3,0.55 -1.4,0.4 h -0.25 l -0.2,0.65 q 0.1,0.7 0.9,0.95 l 1.4,0.1 3.7,0.15 3.65,0.25 L -16,25.45 -11.45,24.7 -4,23 q 0.35,-14.95 -1.1,-30.75 -0.1,-1.1 -0.45,-1.5 -0.25,-0.4 -1.05,-0.8 l -4.65,-2.4 -1.15,-0.4 q 0.2,0.5 0,1.5 -0.85,4.7 0.35,10.8 0.4,2.1 0.15,2.95 l -1,1.75 -0.25,0.35 -0.75,1.4 -0.1,1.55 V 8.85 12 q -0.05,2.6 -0.4,4.5 -0.15,0.7 -0.45,1 l -0.05,0.05 M -31.7,17.7 -31,-3.35 q 0,-2.8 0.85,-4.15 0.6,-0.95 2.55,-2.15 8.1,-5.1 12.4,-7.2 1.6,-0.8 2.6,-0.75 0.95,0.1 2.55,1.2 l 5.55,3.8 q 1.75,1.15 2.35,2.2 0.4,0.75 0.6,2.55 1.75,15.3 1.45,31.5 0,1.75 -0.6,2.45 -0.55,0.65 -2.2,1.05 l -9.35,2.1 -9.5,0.7 -4.1,-0.35 -4.1,-0.2 -2.45,-0.15 Q -33.7,29 -34.25,28.1 -34.7,27.4 -34.6,26.15 l 0.2,-2.1 V 22.5 l 0.4,-1.4 0.9,-0.7 0.9,-0.75 q 0.4,-0.55 0.5,-1.95 m -10.6,-1.4 v -0.45 l 0.35,-0.6 v -0.7 l 0.3,-0.65 q 0.7,-0.85 2.2,-1.2 l 2.95,-0.4 0.95,0.2 0.8,0.95 0.2,0.7 0.3,1 0.25,1.9 q 0.15,0.8 0,1.55 -0.2,0.7 -0.5,0.9 -0.3,0.3 -1.2,0.3 l -3.55,-0.15 -1.1,-0.1 -0.95,-0.05 q -0.5,-0.05 -1.05,-0.6 -0.7,-0.8 -0.3,-1.75 l 0.15,-0.15 0.15,-0.4 0.05,-0.3 m 2.4,-1.05 -0.05,0.4 -0.2,0.65 -0.2,0.65 4.25,0.3 -0.2,-0.65 -0.05,-0.8 -0.35,-1.1 -2.95,0.4 -0.25,0.15"
         fill="#000000"
         fill-rule="evenodd"
         stroke="none"
         id="path1" />
      <path
         d="M 30.45,5.1 31.5,4.65 q 1.9,-0.8 3,-0.8 L 35.75,4 36,4.3 36.1,4.55 36.15,5.4 v 7.25 l -0.1,0.5 -0.5,0.25 q -4.95,1 -14.3,4.05 -1.3,0.4 -1.85,0.75 l -0.9,0.4 h -0.1 l -0.3,-0.9 0.05,-0.95 0.45,0.1 q 0.5,-0.1 0.6,-1.05 l 0.25,-3.4 0.3,-2.05 L 20,8.95 27.8,6.85 29.55,6.4 30.3,6.3 30.95,6 31.7,5.9 Q 32.3,5.8 32.2,5.4 32.15,5.15 31.8,5.05 L 31.25,5.1 h -0.8 M 24.75,3.65 24.6,3.9 24.05,4.3 23.3,4.2 q -0.45,-0.3 -0.45,-0.9 0,-0.55 0.45,-0.85 l 0.3,-0.1 0.25,-0.05 q 0.5,0 0.75,0.4 l 0.2,0.55 -0.05,0.4 M 14.5,8.45 q 0.1,0.7 -0.2,1.35 -0.35,0.7 -1.05,1 L 11.8,10.95 Q 11.05,10.75 10.55,10.2 9.9,9.4 10.15,8.4 10.3,7.65 10.9,7.15 q 0.45,-0.4 1.05,-0.5 0.8,0.75 1.75,1.3 l 0.8,0.5 m -34.65,11.95 2.1,-0.25 q 1.65,-0.2 2.2,-0.6 0.55,-0.45 0.85,-1.4 l 0.1,-0.6 0.05,-0.05 q 0.3,-0.3 0.45,-1 0.35,-1.9 0.4,-4.5 V 8.85 7.45 l 0.1,-1.55 0.75,-1.4 0.25,-0.35 1,-1.75 q 0.25,-0.85 -0.15,-2.95 -1.2,-6.1 -0.35,-10.8 0.2,-1 0,-1.5 l 1.15,0.4 4.65,2.4 q 0.8,0.4 1.05,0.8 0.35,0.4 0.45,1.5 Q -3.65,8.05 -4,23 l -7.45,1.7 -4.55,0.75 -4.45,0.25 -3.65,-0.25 -3.7,-0.15 -1.4,-0.1 q -0.8,-0.25 -0.9,-0.95 l 0.2,-0.65 h 0.25 l 1.4,-0.4 1.3,-0.55 1.4,-0.5 1.95,-0.45 0.85,-0.3 0.7,-0.05 0.75,-0.3 0.6,-0.1 0.45,-0.3 0.1,-0.25 m -0.05,-19.75 0.1,-0.45 0.65,-0.55 0.4,-0.1 q 0.85,0.1 1.1,0.8 l 0.05,0.55 q -0.1,0.7 -0.7,0.95 l -1.2,-0.15 -0.45,-0.75 0.05,-0.3 m -1.55,9.55 q 0.9,-0.9 2.15,-0.5 1.1,0.35 1.35,1.45 0.15,1.35 -1.05,2.05 l -1.3,0.15 q -0.75,-0.15 -1.15,-0.65 -0.45,-0.5 -0.45,-1.25 0,-0.7 0.45,-1.25 m -1.9,-3 -1.2,-0.05 Q -25.45,6.7 -25.2,6 -25,5.3 -24.25,5.3 l 0.05,-0.05 q 0.45,0.1 0.7,0.35 l 0.25,0.4 q 0.15,0.35 -0.05,0.8 l -0.1,0.2 -0.25,0.2"
         fill="#644848"
         fill-rule="evenodd"
         stroke="none"
         id="path2" />
      <path
         d="M 8.6,2.8 8.65,2 Q 12.8,0.5 21.1,-0.3 l 3.3,-0.3 h 1.35 l 1.15,0.5 4.15,1.75 q 2.65,1 4.05,1.85 L 35.75,4 34.5,3.85 q -1.1,0 -3,0.8 L 30.45,5.1 28.5,5.15 19,6.7 Q 18.1,6.8 17.7,7.15 L 17.45,7.4 16.25,6.9 13.5,5.4 Q 11.8,4.35 10.65,4.05 L 10.15,4.1 Q 9.85,4.35 10.3,4.8 L 10.7,5.3 10.2,5.05 Q 9.15,4.4 8.65,3 L 8.6,2.8 M 24.75,3.65 24.8,3.25 24.6,2.7 Q 24.35,2.3 23.85,2.3 l -0.25,0.05 -0.3,0.1 q -0.45,0.3 -0.45,0.85 0,0.6 0.45,0.9 l 0.75,0.1 0.55,-0.4 0.15,-0.25 m -44.9,16.75 -0.1,-0.3 q -0.15,-0.25 -0.55,-0.25 l -2.35,0.3 -2.95,0.3 -1.6,0.45 0.3,-1 q 0.25,-1.25 0.25,-3.3 l 0.1,-11.35 0.3,-8.65 0.45,-1.6 1.1,-1 q 4.85,-3.35 10.1,-5.95 l 0.1,0.7 q 0.3,1.4 0.25,4 l 0.15,4.05 0.7,3.3 0.05,1.25 Q -14,2 -14.8,2.95 l -1.05,1.6 -0.2,1.9 q 0.3,4.85 0,9.7 l 0.1,0.95 0.65,0.55 0.4,-0.1 -0.1,0.6 q -0.3,0.95 -0.85,1.4 -0.55,0.4 -2.2,0.6 l -2.1,0.25 M -23.65,7.2 -23.4,7 -23.3,6.8 Q -23.1,6.35 -23.25,6 L -23.5,5.6 q -0.25,-0.25 -0.7,-0.35 l -0.05,0.05 q -0.75,0 -0.95,0.7 -0.25,0.7 0.35,1.15 l 1.2,0.05 m 1.9,3 q -0.45,0.55 -0.45,1.25 0,0.75 0.45,1.25 0.4,0.5 1.15,0.65 l 1.3,-0.15 q 1.2,-0.7 1.05,-2.05 -0.25,-1.1 -1.35,-1.45 -1.25,-0.4 -2.15,0.5 m 1.55,-9.55 -0.05,0.3 0.45,0.75 1.2,0.15 Q -18,1.6 -17.9,0.9 l -0.05,-0.55 q -0.25,-0.7 -1.1,-0.8 l -0.4,0.1 -0.65,0.55 -0.1,0.45 M -42.5,17 l 0.2,-0.7 -0.05,0.3 -0.15,0.4 m 2.6,-1.75 0.25,-0.15 2.95,-0.4 0.35,1.1 0.05,0.8 0.2,0.65 -4.25,-0.3 0.2,-0.65 0.2,-0.65 0.05,-0.4"
         fill="#a47d7d"
         fill-rule="evenodd"
         stroke="none"
         id="path3" />
      <path
         d="M 8.6,2.8 8.65,3 q 0.5,1.4 1.55,2.05 l 0.5,0.25 1.25,1.35 q -0.6,0.1 -1.05,0.5 -0.6,0.5 -0.75,1.25 -0.25,1 0.4,1.8 0.5,0.55 1.25,0.75 l 1.45,-0.15 q 0.7,-0.3 1.05,-1 0.3,-0.65 0.2,-1.35 l 1.55,0.95 1.15,0.8 q 0.5,2.65 0.55,5.35 0,0.6 0.15,0.85 l 0.25,0.35 -0.05,0.95 0.3,0.9 -1.05,-0.25 q -4,-1.5 -8.55,-3.55 L 8.1,14.3 8,13.65 Q 8,8.6 8.6,2.8"
         fill="#8c6868"
         fill-rule="evenodd"
         stroke="none"
         id="path4" />
    </g>
    <g
       id="sprite1"
       transform="translate(17.4,15.85)">
      <use
         ffdec:characterId="31"
         height="57.200001"
         transform="matrix(0.5366,0,0,0.5366,-16.6582,-14.546)"
         width="70.75"
         xlink:href="#sprite2"
         id="use4" />
    </g>
    <g
       id="sprite2"
       transform="translate(-8.65,-10.35)">
      <use
         ffdec:characterId="30"
         height="57.200001"
         transform="translate(8.65,10.35)"
         width="70.75"
         xlink:href="#shape1"
         id="use5" />
    </g>
    <g
       id="shape1"
       transform="translate(-8.65,-10.35)">
      <path
         d="m 14.8,41.7 q 0.65,-1.75 2.65,-2.5 1.8,-0.8 3.7,-0.25 1.15,0.45 2.25,1.2 l 0.9,0.4 q 1.65,0.9 2.85,2.5 L 37.8,30.1 q 2.35,-2.8 3.75,-3.95 1.5,-1.15 4.25,-2.4 18.2,-8.85 27.65,-12.6 2.15,-0.8 3.25,-0.8 h 0.8 l 1.9,2.4 -0.2,0.8 q -0.2,1.1 -1.55,3 -5.85,8.25 -18.85,23.8 -1.85,2.35 -3.35,3.5 -1.4,1.15 -4.75,2.75 l -15.15,7.15 q 1.2,1.6 1.75,3.4 l 0.2,1 0.55,2.5 q 0.1,1.95 -1.1,3.55 -1.2,1.65 -3.05,1.9 l -1.3,0.05 q -1.65,0.2 -3.45,-0.65 -1.85,-0.9 -3,-2.6 L 25,60.95 23.8,62.1 q -2.6,2.85 -4.3,3.95 -2.85,1.8 -5.5,1.45 l -1.65,-0.5 -1.2,-0.7 -0.2,-0.2 q -1,-0.85 -1.6,-1.9 L 9.25,64 9.15,63.8 8.75,62.4 q -0.2,-0.8 -0.05,-1.7 0.25,-2.65 2.7,-5.05 1.5,-1.3 4.9,-3.15 L 17.7,51.55 16.05,50 q -1.35,-1.5 -1.8,-3.6 -0.4,-1.85 0.25,-3.45 l 0.3,-1.25"
         fill="#000000"
         fill-opacity="0.372549"
         fill-rule="evenodd"
         stroke="none"
         id="path5" />
    </g>
  </defs>
</svg>
