<?xml version="1.0" encoding="UTF-8" standalone="no"?>
<svg
   ffdec:objectType="frame"
   height="92.891655"
   width="64.803848"
   version="1.1"
   id="svg5"
   xmlns:xlink="http://www.w3.org/1999/xlink"
   xmlns="http://www.w3.org/2000/svg"
   xmlns:svg="http://www.w3.org/2000/svg"
   xmlns:ffdec="https://www.free-decompiler.com/flash">
  <g
     transform="translate(30.2,51.489655)"
     id="g1">
    <use
       ffdec:characterId="17"
       height="119.15"
       id="rarity"
       transform="translate(-58.5,-60.65)"
       width="119.15"
       xlink:href="#sprite0" />
    <use
       ffdec:characterId="1293"
       height="92.900002"
       transform="translate(-30.2,-51.5)"
       width="64.800003"
       xlink:href="#shape0"
       id="use1" />
  </g>
  <defs
     id="defs5">
    <g
       id="shape0"
       transform="translate(28.9,49.6)">
      <path
         d="m -6.85,-14.7 2.65,-7.65 -1.7,-3.35 q -1.85,-3.25 -4.1,-5.25 1.5,6 1.7,9.15 v 4.9 l 1.45,2.2 m 23.35,42.85 -0.95,4.7 q -0.4,2.2 -0.95,3.1 -1,1.75 -4.1,3.3 -3.7,1.8 -7.4,2.9 -4,1.2 -7.1,1.15 l -4.9,-0.9 -4.65,-1.75 q -2.55,-1.05 -3.9,-1.95 -1.95,-1.35 -2.7,-3.1 -0.65,-1.4 -0.65,-4.2 L -21.4,8.8 -21.8,0.85 q -0.2,-2.4 -0.7,-5.4 l -1.2,-8.7 -0.9,-5.25 -1.65,-5.15 -1.55,-5.2 -0.1,-0.85 -0.8,-0.95 q -0.4,-0.9 0,-1.9 0.4,-1 1.3,-1.4 1.5,-0.6 3.95,0.95 6.45,3.8 9.85,8.15 l 1.2,1.6 -0.1,-0.5 q -0.4,-2.15 -1.35,-5.95 l -1,-3.5 q -0.6,-1.4 -0.65,-2.2 -0.1,-1.4 0.95,-2 1,-0.55 2.75,0.5 3.45,2.05 6.1,5.2 1.75,2.05 3,4.35 2.65,-9.45 4.1,-19.05 0.45,-2.6 1.65,-3.05 1.2,-0.45 2.2,0.55 l 1.3,1.95 q 1.8,3.85 2.6,8.85 0.65,3.75 0.85,9.3 l 0.1,4.45 q 1.35,-2.05 3.05,-3.85 1.8,-1.9 5.8,-5.2 1.1,-0.85 1.65,-1.1 l 1.9,0.1 q 0.95,0.6 0.85,2 l -0.65,2.2 -1.35,3.9 -1.25,3.85 -0.15,0.35 q 4.3,-2.75 10.7,-5.05 2.2,-0.75 3.2,-0.55 0.85,0.15 1.5,0.75 0.6,0.65 0.55,1.45 -0.05,1 -1.05,1.6 l -0.35,0.2 -1.8,1.95 q -1.55,1.45 -3.85,5.05 -3.6,5.65 -4.95,9.6 l -1.25,4.95 q -1.55,7.2 -6.15,30.3 m -18.2,-43.3 -0.15,0.35 -1.8,5.75 Q -4.15,-7.35 -5,-6.9 L -7.25,-7.05 -7.45,-7.2 Q -8.2,-7.7 -9.1,-9.15 l -1.45,-2.25 -4.4,-6.8 -2.8,-4 q -2.3,-2.85 -5.35,-4.8 l 2.3,6.15 1.35,5.6 q 1.45,6.85 2.25,11.7 l 0.4,2.5 0.1,0.1 0.75,1.05 q 1.4,2 2.3,3.65 l 0.5,1 0.75,2 q 0.65,2.15 0.85,6.05 0.2,4.4 -0.3,6.9 l -0.55,2.35 -0.6,2.15 -1.6,3.5 -0.5,0.85 v 0.25 l 0.1,2.15 0.45,2.15 q 0.55,0.85 2.25,1.55 3.95,1.7 6.25,2.2 3.55,0.85 6.35,0.1 L 2.25,36.25 4.2,35.5 7.3,34.45 q 1.7,-0.8 2.35,-2 l 0.5,-1.6 0.55,-2.5 v -0.1 Q 10,26.6 9.5,24.15 8.05,17.1 9.6,12.1 L 10.45,9.65 Q 13.2,2.95 17.3,-1.4 18.15,-4.6 18.95,-6.95 19.8,-9.5 20.7,-11.3 l 2.6,-4.6 1.5,-2.3 1.65,-2.4 q -2.7,1.25 -6.15,3.8 -2.45,1.8 -5.25,5.35 L 12.5,-8 8.8,-2.5 7.9,-2.55 Q 7.45,-2.8 7.25,-3.85 L 7.1,-4.8 7,-5.15 6.95,-5.7 l -0.5,-3.6 -0.2,-2.25 -0.1,-5.3 v -0.35 l 0.05,-6.1 v -1.8 l -0.3,-5.45 -1.1,-9.1 Q 3.85,-34 1.9,-27.15 l -0.75,2.75 -2.85,9.25 M -4.15,31.8 -4.9,30.4 -6.8,25.25 Q -7.7,21.4 -6.85,14.3 l 0.55,-3.45 q 0.5,-2.4 1.9,-6.25 l 2.15,-6.15 q 0.55,-1.9 1.05,-2.5 l 1.1,-0.8 1.25,0.05 q 0.65,0.3 1.2,1.6 1.75,4.35 2.9,12.45 0.6,3.9 0.5,5.9 l -0.55,4.3 q -1.6,7.7 -5.4,11.95 -1.35,1.55 -2.55,1.35 -0.8,-0.1 -1.4,-0.95 m 20.55,-54.6 1.75,-4.9 q -0.5,0.1 -1,0.8 -2.4,3.1 -3.85,5.35 l -1.55,2.75 q -0.9,2.05 -1.5,2.55 l -0.1,0.1 -0.05,4.15 1.55,-2.35 2.95,-3.4 1.8,-5.05 M 8.9,-2.55 9.55,-3.2 9.3,-2.9 8.9,-2.55 m 5.2,14.8 0.3,-1.3 q -1.05,3.05 -1.25,5.8 l 0.95,-4.5 M 1.2,5.85 0.4,2.65 l -1.45,4.3 -1.3,4.4 -0.1,0.55 0.35,-0.25 2.9,-0.1 q 0.8,0.3 1.4,0.8 l -1,-6.5 m -2.3,21.7 q 0.7,-0.95 1.3,-2.4 l 1.35,-3.5 0.4,-1.9 -0.25,0.25 -1.2,0.8 -2.35,0.3 -1.4,-0.55 0.7,3.15 0.35,1.4 q 0.5,1.7 1.1,2.45 M -16,9.3 l 0.45,9.15 0.3,-3.25 q 0,-1.8 -0.35,-4.45 L -15.9,8.55 -16.05,7.9 -16,9.3"
         fill="#000000"
         fill-rule="evenodd"
         stroke="none"
         id="path1" />
      <path
         d="m -6.85,-14.7 -1.45,-2.2 v -4.9 q -0.2,-3.15 -1.7,-9.15 2.25,2 4.1,5.25 l 1.7,3.35 -2.65,7.65 M -0.2,31.4 2.3,30.85 5.2,30.2 7.95,29.4 q 1.95,-0.9 2.35,-1 l 0.4,-0.05 -0.55,2.5 -0.5,1.6 Q 9,33.65 7.3,34.45 L 4.2,35.5 2.25,36.25 0.3,36.95 q -2.8,0.75 -6.35,-0.1 -2.3,-0.5 -6.25,-2.2 -1.7,-0.7 -2.25,-1.55 l -0.45,-2.15 -0.1,-2.15 1,0.35 1.9,1.05 q 1.5,0.85 4.05,1.3 l 4,0.3 q 0.6,0.85 1.4,0.95 1.2,0.2 2.55,-1.35 m 13.5,-52.95 1.3,0.05 0.95,-0.6 0.85,-0.7 -1.8,5.05 -2.95,3.4 -1.55,2.35 0.05,-4.15 0.1,-0.1 q 0.6,-0.5 1.5,-2.55 l 1.55,-2.75"
         fill="#9b9673"
         fill-rule="evenodd"
         stroke="none"
         id="path2" />
      <path
         d="m 6.2,-23.3 q -3.8,4.8 -6,7.1 -0.8,0.9 -1.5,1 l -0.4,0.05 2.85,-9.25 2.35,-3.8 1.2,-1.55 q 0.5,-0.6 1.2,-0.8 l 0.3,5.45 v 1.8 M -7.25,-7.05 -8.3,-6 l -4.7,4.15 -1.2,0.8 -0.85,0.65 q -0.5,0.4 -0.9,0.5 l -0.75,-1.05 -0.1,-0.1 -0.4,-2.5 0.85,-1.5 1.05,-1.15 1.2,-1.8 1.45,-1.4 1.8,-1.85 0.3,-0.15 1.45,2.25 q 0.9,1.45 1.65,1.95 l 0.2,0.15 m -6.4,10.8 0.35,-0.95 q 1.7,-2.85 6.45,-7.6 l 10.5,-10.6 q 1.3,-1.4 2.4,-1.45 h 0.1 l 0.1,5.3 -11.2,9.95 -6.75,5.8 q -0.9,0.75 -1.45,0.55 l -0.5,-1 m 36.95,-19.65 -2.35,2.2 -1.5,1.3 q -1.1,0.85 -2.2,1.25 L 15.5,-11 15.05,-11.45 q 2.8,-3.55 5.25,-5.35 3.45,-2.55 6.15,-3.8 l -1.65,2.4 -1.5,2.3 m -10,-5.65 q 1.45,-2.25 3.85,-5.35 0.5,-0.7 1,-0.8 l -1.75,4.9 -0.85,0.7 -0.95,0.6 -1.3,-0.05 M -1.1,27.55 Q -1.7,26.8 -2.2,25.1 l -0.35,-1.4 -0.7,-3.15 1.4,0.55 2.35,-0.3 1.2,-0.8 0.25,-0.25 -0.4,1.9 -1.35,3.5 q -0.6,1.45 -1.3,2.4 m 2.3,-21.7 1,6.5 q -0.6,-0.5 -1.4,-0.8 l -2.9,0.1 -0.35,0.25 0.1,-0.55 1.3,-4.4 1.45,-4.3 0.8,3.2 m 12.9,6.4 -0.95,4.5 q 0.2,-2.75 1.25,-5.8 l -0.3,1.3 M -16,9.3 l -0.05,-1.4 0.15,0.65 0.3,2.2 q 0.35,2.65 0.35,4.45 l -0.3,3.25 L -16,9.3"
         fill="#ffffff"
         fill-rule="evenodd"
         stroke="none"
         id="path3" />
      <path
         d="m -1.7,-15.15 0.4,-0.05 q 0.7,-0.1 1.5,-1 2.2,-2.3 6,-7.1 l -0.05,6.1 v 0.35 h -0.1 q -1.1,0.05 -2.4,1.45 l -10.5,10.6 q -4.75,4.75 -6.45,7.6 l -0.35,0.95 q -0.9,-1.65 -2.3,-3.65 0.4,-0.1 0.9,-0.5 L -14.2,-1.05 -13,-1.85 -8.3,-6 -7.25,-7.05 -5,-6.9 q 0.85,-0.45 1.35,-2.15 l 1.8,-5.75 0.15,-0.35 m 7.6,-15.4 q -0.7,0.2 -1.2,0.8 l -1.2,1.55 -2.35,3.8 0.75,-2.75 Q 3.85,-34 4.8,-39.65 l 1.1,9.1 m -23.1,27 q -0.8,-4.85 -2.25,-11.7 l -1.35,-5.6 -2.3,-6.15 q 3.05,1.95 5.35,4.8 l 2.8,4 4.4,6.8 -0.3,0.15 -1.8,1.85 -1.45,1.4 -1.2,1.8 -1.05,1.15 -0.85,1.5 m 17,34.95 Q 3.6,27.15 5.2,19.45 l 0.55,-4.3 q 0.1,-2 -0.5,-5.9 Q 4.1,1.15 2.35,-3.2 1.8,-4.5 1.15,-4.8 l -1.25,-0.05 -1.1,0.8 q -0.5,0.6 -1.05,2.5 L -4.4,4.6 q -1.4,3.85 -1.9,6.25 l -0.55,3.45 q -0.85,7.1 0.05,10.95 l 1.9,5.15 0.75,1.4 -4,-0.3 q -2.55,-0.45 -4.05,-1.3 l -1.9,-1.05 -1,-0.35 v -0.25 l 0.5,-0.85 1.6,-3.5 0.6,-2.15 0.55,-2.35 q 0.5,-2.5 0.3,-6.9 -0.2,-3.9 -0.85,-6.05 l -0.75,-2 q 0.55,0.2 1.45,-0.55 l 6.75,-5.8 11.2,-9.95 0.2,2.25 0.5,3.6 0.05,0.55 0.1,0.35 0.15,0.95 q 0.2,1.05 0.65,1.3 l 0.9,0.05 3.7,-5.5 2.55,-3.45 0.45,0.45 1.75,-0.15 q 1.1,-0.4 2.2,-1.25 l 1.5,-1.3 2.35,-2.2 -2.6,4.6 q -0.9,1.8 -1.75,4.35 -0.8,2.35 -1.65,5.55 -4.1,4.35 -6.85,11.05 L 9.6,12.1 q -1.55,5 -0.1,12.05 0.5,2.45 1.2,4.1 v 0.1 l -0.4,0.05 q -0.4,0.1 -2.35,1 L 5.2,30.2 2.3,30.85 -0.2,31.4 M 8.9,-2.55 9.3,-2.9 9.55,-3.2 8.9,-2.55"
         fill="#d1ca9a"
         fill-rule="evenodd"
         stroke="none"
         id="path4" />
    </g>
    <g
       id="sprite1"
       transform="translate(17.4,15.85)">
      <use
         ffdec:characterId="31"
         height="57.200001"
         transform="matrix(0.5366,0,0,0.5366,-16.6582,-14.546)"
         width="70.75"
         xlink:href="#sprite2"
         id="use4" />
    </g>
    <g
       id="sprite2"
       transform="translate(-8.65,-10.35)">
      <use
         ffdec:characterId="30"
         height="57.200001"
         transform="translate(8.65,10.35)"
         width="70.75"
         xlink:href="#shape1"
         id="use5" />
    </g>
    <g
       id="shape1"
       transform="translate(-8.65,-10.35)">
      <path
         d="m 14.8,41.7 q 0.65,-1.75 2.65,-2.5 1.8,-0.8 3.7,-0.25 1.15,0.45 2.25,1.2 l 0.9,0.4 q 1.65,0.9 2.85,2.5 L 37.8,30.1 q 2.35,-2.8 3.75,-3.95 1.5,-1.15 4.25,-2.4 18.2,-8.85 27.65,-12.6 2.15,-0.8 3.25,-0.8 h 0.8 l 1.9,2.4 -0.2,0.8 q -0.2,1.1 -1.55,3 -5.85,8.25 -18.85,23.8 -1.85,2.35 -3.35,3.5 -1.4,1.15 -4.75,2.75 l -15.15,7.15 q 1.2,1.6 1.75,3.4 l 0.2,1 0.55,2.5 q 0.1,1.95 -1.1,3.55 -1.2,1.65 -3.05,1.9 l -1.3,0.05 q -1.65,0.2 -3.45,-0.65 -1.85,-0.9 -3,-2.6 L 25,60.95 23.8,62.1 q -2.6,2.85 -4.3,3.95 -2.85,1.8 -5.5,1.45 l -1.65,-0.5 -1.2,-0.7 -0.2,-0.2 q -1,-0.85 -1.6,-1.9 L 9.25,64 9.15,63.8 8.75,62.4 q -0.2,-0.8 -0.05,-1.7 0.25,-2.65 2.7,-5.05 1.5,-1.3 4.9,-3.15 L 17.7,51.55 16.05,50 q -1.35,-1.5 -1.8,-3.6 -0.4,-1.85 0.25,-3.45 l 0.3,-1.25"
         fill="#000000"
         fill-opacity="0.372549"
         fill-rule="evenodd"
         stroke="none"
         id="path5" />
    </g>
  </defs>
</svg>
