<?xml version="1.0" encoding="UTF-8" standalone="no"?>
<svg
   ffdec:objectType="frame"
   height="98.517845"
   width="90.96125"
   version="1.1"
   id="svg9"
   xmlns:xlink="http://www.w3.org/1999/xlink"
   xmlns="http://www.w3.org/2000/svg"
   xmlns:svg="http://www.w3.org/2000/svg"
   xmlns:ffdec="https://www.free-decompiler.com/flash">
  <g
     transform="translate(45.839743,50.3)"
     id="g1">
    <use
       ffdec:characterId="17"
       height="119.15"
       id="rarity"
       transform="translate(-58.5,-60.65)"
       width="119.15"
       xlink:href="#sprite0" />
    <use
       ffdec:characterId="647"
       height="106.7"
       transform="matrix(0.9231,0,0,0.9231,-45.85,-50.3)"
       width="98.550003"
       xlink:href="#sprite1"
       id="use1" />
  </g>
  <defs
     id="defs9">
    <g
       id="sprite1">
      <use
         ffdec:characterId="646"
         height="106.7"
         width="98.550003"
         xlink:href="#shape0"
         id="use2" />
    </g>
    <g
       id="shape0">
      <path
         d="m 80.1,5.95 0.55,-0.5 1.25,-1 V 4.4 l 1.3,-1.05 0.7,-0.5 0.5,-0.1 h 0.35 L 85.7,2.4 q 0.9,-0.1 2.55,0.95 l 1.9,1.25 1.35,0.95 1.4,1.6 2.35,2.75 1.75,2.45 1.2,2.3 0.35,1.6 -0.25,1.45 -0.5,0.7 -0.1,0.2 -0.1,0.35 -0.2,0.4 -0.2,0.4 -0.4,0.4 -3.45,2.8 0.15,0.2 q 1.65,2.05 2.65,4.75 0.55,1.5 0.5,2.7 -0.15,1.6 -1.4,2.75 -1.7,1.35 -3.65,0.8 -1.05,-0.2 -2.55,-1.45 l -0.6,-0.5 -2.5,-2.2 -0.6,-0.6 -0.95,0.8 -0.75,0.55 q 1.8,2.2 2.75,4.45 0.7,1.6 1,3.15 0.25,1.85 -0.25,2.9 -0.9,1.65 -3.1,1.65 -1.45,0.05 -3.45,-1 -0.55,-0.15 -1.05,-0.5 l -3.5,-2.55 -1.15,-1.05 -0.85,0.65 0.55,0.7 0.7,1 q 1.4,2.15 2.4,4.65 1.35,3.2 -0.05,4.9 -0.5,0.65 -1.45,0.95 h -0.15 l -1.9,-0.05 -0.1,0.05 q -1.4,-0.5 -3.25,-2 l -3.95,-3.7 -0.1,-0.1 v 0.05 l 0.1,0.1 0.05,0.05 0.1,0.15 0.15,0.15 0.1,0.15 0.15,0.15 0.15,0.2 0.1,0.15 0.15,0.2 0.1,0.15 0.15,0.15 0.1,0.15 0.15,0.15 0.1,0.15 0.2,0.2 0.1,0.15 0.15,0.15 0.1,0.15 0.15,0.1 0.1,0.2 0.15,0.15 0.1,0.15 0.15,0.15 0.15,0.2 0.1,0.2 0.15,0.15 0.1,0.15 0.05,0.2 0.05,0.2 0.1,0.1 -0.05,0.15 0.05,0.2 0.1,0.25 v 0.3 l -0.05,0.3 -0.05,0.25 -0.1,0.4 -0.2,0.4 -0.2,0.3 -0.4,0.45 -0.75,0.4 -0.5,0.15 h -0.1 l -0.5,0.6 -10.6,8.55 -0.4,0.35 0.3,0.55 0.6,0.95 1.25,1.1 1.25,0.7 0.55,0.1 q 1.6,0.25 2.15,1.75 0.25,0.7 0,1.4 -0.15,0.75 -0.75,1.2 -0.65,0.55 -1.95,0.65 l -1.2,-0.05 -1.45,-0.75 -2.1,-1.35 -1.4,-1.45 -0.95,-1.15 -0.25,-0.4 -1.75,1.4 -1.15,0.9 q 0.55,0.95 0.7,2.65 l 0.65,8.45 0.1,0.05 q 3.25,0.7 5.15,3.3 0.95,1.2 1.5,2.75 0.55,1.85 0.5,3.3 -0.05,2.2 -1.45,3.9 l -2.1,1.95 -3.7,2.05 v 0.1 l 0.55,1.6 q 0.35,1.75 -0.6,4.6 l -0.55,1.3 -1.35,1.4 -1.8,1 q -0.85,0.35 -2.8,0 l -1.6,-0.45 q -1.75,-0.6 -2.9,-2.05 -0.75,-0.8 -1.5,-2.45 l -0.6,-1.75 v -1.5 l 0.05,-1 0.1,-0.15 -3.75,-0.8 q -1.15,-0.25 -1.75,-0.75 -0.95,-0.75 -0.95,-2.3 0,-1 0.55,-2.45 L 33.5,84.35 33,84.7 q -1.9,1.1 -5.1,1.1 l -2.7,-0.35 q -1.65,-0.6 -3.8,-3.2 l -1.7,-2.5 q -1.25,-2.25 -1.15,-4.6 l 0.3,-1.95 Q 19.2,72 19.6,71.35 L 20.15,70.75 19.8,70.3 Q 18.85,71 17.95,71 16.8,71 15.9,70.1 q -0.7,-0.7 -1.15,-1.95 -0.35,-1.2 -0.1,-1.8 0.2,-0.55 1,-1.2 L 15.95,65 15.45,63.8 14.9,62.85 q -0.35,-0.55 -0.4,-0.9 -0.1,-0.75 0.25,-1.8 0.55,-1.75 1.2,-2.5 L 18.3,55.6 18.2,55.5 18.1,55.3 17.95,55.15 V 55.1 l -1.1,-0.2 -2,-0.6 L 9.5,53.1 8.7,52.85 3.4,50.9 1.8,50.45 Q 0.8,49.95 0.15,48.05 -0.1,47.15 0.1,46.7 0.4,46 1.65,45.75 l 1.6,-0.15 3,0.5 4.5,1.3 1,0.4 3.15,1 0.6,0.15 2.4,0.5 2,-1.65 1.4,-1.1 L 18.55,42.95 16.8,40.55 15.4,38.5 14,36.35 12,33.5 11.1,32.25 q -0.5,-0.75 -0.5,-1.4 -0.1,-1.25 0.95,-2 1,-0.7 2.25,-0.2 l 1.25,1.1 2.8,3.8 0.7,1 2.1,2.85 1.8,2.2 2.45,4.15 0.7,-0.55 -0.7,-1.5 q -1.35,-4.1 0.25,-7.75 1.75,-3.9 5.75,-5 -1,-1.75 -0.65,-3.95 0.35,-2.1 1.9,-3.4 l 2.2,-1.45 Q 36,19.4 36.6,19.3 q 1.65,-0.25 4.05,0.85 1.5,0.65 2.25,1.25 1.8,1.3 2.8,3.45 l 0.45,1.25 0.05,0.15 0.3,-0.25 0.65,-0.3 0.05,-0.1 0.55,-0.15 0.3,0.05 0.4,-0.05 0.2,-0.05 0.4,-0.1 0.4,-0.1 0.25,0.1 h 0.35 l 0.25,0.05 0.15,0.15 0.25,0.1 0.2,0.1 v 0.05 l 0.15,0.05 0.2,0.1 0.1,0.15 0.15,0.15 0.2,0.1 0.15,0.2 0.15,0.15 0.1,0.2 0.15,0.15 0.15,0.15 0.1,0.15 0.15,0.15 0.1,0.15 0.15,0.15 0.1,0.15 0.15,0.2 0.15,0.15 0.1,0.15 0.3,-0.35 L 54,27.8 Q 51.35,23.4 49.3,19 47.85,15.85 49.05,14.3 49.7,13.5 50.9,13.35 l 2.2,0.2 q 2,0.55 3.4,1.95 1.05,0.8 2.45,2.75 l 0.65,1.05 1.4,2.1 0.25,0.25 0.9,-0.75 q -2,-3.55 -3.25,-6.7 -1.25,-3.1 -0.4,-4.75 0.35,-0.8 1.2,-1.4 l 0.85,-0.4 2.85,-0.1 0.7,0.25 q 1.8,0.7 4,2.8 l 2.6,3.1 1.2,-0.95 0.15,-0.15 Q 70.35,9.45 69.9,6.65 69.4,3.55 71.05,2.25 72.25,1.4 73.9,1.7 75.1,2 76.5,3.05 l 2.05,1.85 0.9,1.2 0.2,0.2 0.45,-0.35 m 3.7,4.2 0.2,0.85 0.4,1.2 -0.6,-2.05 q 1.55,3.8 5.1,6.65 l 1.25,0.65 1.1,0.2 0.8,-0.6 L 91.7,16.9 90.65,16.45 89.4,15.4 Q 87.3,13.35 85.6,10.8 L 85.1,10 85,9.25 84.25,9.8 83.8,10.15 m -2.45,7.45 4.15,4.75 2.55,-2.05 0.75,0.6 -1.85,-1.6 q -2.3,-1.85 -3.9,-4.15 L 81.4,12.7 81.25,12.1 78.6,14.25 81.35,17.6 m 9.5,10.3 q 0,-0.9 -0.9,-2.2 l -0.75,0.6 1.65,1.6 m -17.9,-9.1 -0.15,0.1 -1.2,0.85 -3,2.35 q 2.45,3.75 4.35,6.15 l 2.15,2.6 1,-0.8 -0.05,-0.05 2.1,-1.75 1.9,-1.5 L 81,26 81.65,25.45 78.2,21.3 76.3,18.85 75,17.15 l -0.85,0.7 -1.2,0.95 M 76.8,8 Q 75.65,6.8 74.05,5.95 l 1.5,3.6 0.1,0.1 L 77.2,8.4 76.8,8 m -11,5.85 q -1.45,-1.55 -2.85,-2.1 0.65,2.45 2.95,5.95 l 2,-1.65 -2.1,-2.2 m -11.65,4.75 3.4,6.05 0.8,-0.65 -4.2,-5.4 m -7.65,14.7 -3.8,2.95 -2.8,2.25 0.1,0.25 0.15,0.15 0.1,0.15 0.15,0.2 0.1,0.15 0.15,0.15 0.1,0.15 0.15,0.15 0.15,0.2 0.15,0.15 0.1,0.15 0.15,0.15 0.1,0.15 0.15,0.15 0.1,0.15 0.15,0.2 0.1,0.15 0.15,0.2 0.15,0.15 0.1,0.15 0.15,0.15 0.15,0.1 0.15,0.15 0.1,0.15 0.15,0.15 0.15,0.2 0.15,0.15 0.1,0.15 0.2,0.15 0.1,0.15 0.15,0.15 0.1,0.15 0.15,0.15 0.1,0.15 0.15,0.2 0.15,0.15 0.1,0.15 0.15,0.15 0.1,0.15 0.15,0.2 0.1,0.15 0.15,0.15 0.1,0.15 0.2,0.2 0.1,0.15 0.15,0.15 0.1,0.15 0.15,0.15 0.1,0.15 0.15,0.15 0.1,0.2 0.2,0.1 0.15,0.2 0.1,0.15 0.15,0.15 0.1,0.15 0.15,0.15 0.1,0.15 0.15,0.15 0.15,0.15 0.15,0.2 0.1,0.15 0.15,0.15 0.1,0.15 0.15,0.2 0.1,0.15 0.2,0.15 0.1,0.15 0.15,0.2 0.15,0.15 0.1,0.15 0.15,0.15 0.15,0.15 0.1,0.15 0.15,0.15 0.1,0.2 0.15,0.15 0.15,0.2 0.1,0.15 0.15,0.15 0.1,0.15 0.15,0.15 0.1,0.15 0.15,0.15 0.1,0.15 0.2,0.1 0.15,0.15 0.15,0.15 0.1,0.2 0.15,0.15 0.15,0.15 0.15,0.15 0.1,0.15 0.15,0.15 0.15,0.2 0.1,0.15 0.15,0.15 0.1,0.15 0.15,0.15 0.1,0.2 0.2,0.1 0.1,0.15 0.2,0.2 0.1,0.15 0.15,0.15 0.1,0.15 0.15,0.15 0.1,0.15 0.25,0.1 0.1,0.15 0.15,0.15 0.15,0.2 0.1,0.15 0.15,0.2 8.4,-6.85 L 63.4,49.5 63.25,49.35 63.15,49.2 63,49.05 62.9,48.9 62.75,48.7 62.6,48.55 62.5,48.4 62.35,48.25 62.25,48.1 62.1,47.9 62,47.75 61.85,47.6 61.75,47.45 61.55,47.25 61.45,47.1 61.3,46.95 61.2,46.8 61.05,46.65 60.95,46.5 60.8,46.35 60.7,46.15 60.55,46 60.4,45.8 60.3,45.65 60.15,45.5 60.05,45.35 59.9,45.2 59.8,45.05 59.65,44.9 59.55,44.75 59.35,44.55 59.25,44.4 59.1,44.25 59,44.05 58.85,43.9 58.75,43.75 58.6,43.6 58.5,43.45 58.35,43.3 58.2,43.1 58.1,42.95 57.95,42.8 57.85,42.65 57.7,42.5 57.6,42.3 57.45,42.15 57.35,42 57.15,41.8 57.05,41.65 56.9,41.5 56.8,41.35 56.65,41.2 56.55,41.05 56.4,40.9 56.3,40.75 56.15,40.6 56,40.4 55.9,40.25 55.75,40.05 55.65,39.9 55.5,39.75 55.35,39.6 55.25,39.45 55.1,39.3 54.95,39.1 54.85,38.95 54.7,38.8 54.6,38.65 54.45,38.5 54.35,38.3 54.2,38.15 54.1,38 53.95,37.85 53.8,37.65 53.7,37.5 53.55,37.35 53.4,37.2 53.3,37.05 53.15,36.9 53.05,36.75 52.9,36.55 52.75,36.4 52.65,36.2 52.5,36.05 52.4,35.9 52.25,35.75 52.15,35.6 52.05,35.45 51.95,35.3 51.8,35.15 51.65,34.95 51.5,34.8 51.4,34.65 51.25,34.45 51.15,34.3 51,34.15 50.9,34 50.75,33.85 50.6,33.65 50.5,33.5 50.3,33.35 50.2,33.2 50.05,33.05 49.95,32.9 49.8,32.75 49.7,32.55 49.55,32.4 49.4,32.2 49.25,32.05 49.15,31.9 49,31.75 48.9,31.6 48.75,31.45 46.5,33.3 m 9.5,-1.5 0.15,0.15 0.15,0.2 0.25,0.1 0.1,0.15 0.15,0.2 0.1,0.15 0.15,0.15 0.1,0.15 0.15,0.15 0.1,0.15 0.15,0.2 0.15,0.15 0.1,0.15 0.15,0.15 -0.6,-0.95 -1,-1.5 -0.25,0.15 -0.1,0.05 v 0.05 m 2.3,2.7 0.05,0.05 -0.05,-0.1 v 0.05 m -16.15,-7.6 -0.45,-1 q -0.6,-0.95 -1.8,-1.55 l -2.3,-0.85 -1.4,0.75 q -1,0.4 -1.25,0.85 -0.4,0.7 -0.1,1.65 l 0.65,1.55 q 0.4,1.25 -0.05,2.55 -0.5,1.3 -1.65,2 l -1.25,0.6 -1.3,0.45 q -1.55,0.9 -2.05,2.75 -0.55,1.8 0.2,3.4 l 0.05,0.05 4.15,-3.45 5.7,-4.6 1.95,-1.6 1.55,-1.3 -0.2,-0.95 -0.45,-1.3 m -5.2,13.95 -12.3,9.9 -1.45,1.15 -0.6,0.5 0.1,0.15 0.15,0.15 0.1,0.15 0.15,0.15 0.1,0.15 0.15,0.15 0.15,0.2 0.15,0.15 0.15,0.15 0.15,0.15 0.1,0.15 0.15,0.15 0.1,0.15 0.15,0.15 0.1,0.15 0.15,0.2 0.15,0.15 0.1,0.15 0.15,0.15 0.1,0.15 0.25,0.15 0.1,0.15 0.15,0.15 0.15,0.2 0.15,0.15 0.1,0.15 0.15,0.15 0.1,0.15 0.15,0.15 0.1,0.15 0.15,0.15 0.1,0.2 0.15,0.15 0.15,0.2 0.1,0.15 0.15,0.15 0.1,0.15 0.15,0.15 0.15,0.15 0.1,0.15 0.15,0.2 0.15,0.15 0.1,0.15 0.15,0.15 0.1,0.2 0.15,0.15 0.1,0.15 0.15,0.15 0.1,0.15 0.15,0.2 0.15,0.15 0.1,0.15 0.15,0.15 0.15,0.15 0.1,0.15 0.15,0.2 0.1,0.15 0.15,0.2 0.15,0.15 0.1,0.15 0.15,0.15 0.1,0.15 0.15,0.15 0.1,0.15 0.15,0.15 0.1,0.15 0.2,0.2 0.1,0.15 0.15,0.15 0.1,0.2 0.15,0.15 0.1,0.15 0.15,0.15 0.1,0.15 0.15,0.2 0.15,0.15 0.1,0.15 0.15,0.15 0.1,0.15 0.15,0.15 0.1,0.2 0.15,0.15 0.1,0.15 0.2,0.2 0.1,0.15 0.15,0.15 0.1,0.15 0.15,0.15 0.1,0.15 0.15,0.15 0.1,0.15 0.15,0.2 0.15,0.15 0.1,0.2 0.15,0.15 0.1,0.15 0.15,0.15 0.1,0.15 0.15,0.15 0.1,0.15 0.2,0.2 0.1,0.15 0.15,0.15 0.1,0.15 0.15,0.2 0.1,0.15 0.15,0.15 0.1,0.15 0.15,0.15 0.15,0.2 0.1,0.15 0.15,0.15 0.1,0.15 0.15,0.15 0.1,0.15 0.15,0.15 0.05,0.05 0.55,-0.55 2.35,-1.95 1.6,-1.35 5.05,-4.05 -0.1,-0.1 L 51.4,59.5 52.3,58.7 52.2,58.55 52.05,58.4 51.95,58.25 51.8,58.1 51.7,57.95 51.55,57.75 51.45,57.6 51.35,57.45 51.2,57.3 51.1,57.15 50.95,56.95 50.85,56.8 50.7,56.65 50.6,56.5 50.45,56.25 50.35,56.1 50.2,55.95 50.1,55.8 49.95,55.65 49.85,55.5 49.7,55.35 49.6,55.15 49.45,55 49.3,54.8 49.25,54.6 49.1,54.45 49,54.3 48.85,54.15 48.75,54 48.65,53.8 48.55,53.65 48.35,53.45 48.25,53.3 48.1,53.15 48,52.95 47.85,52.8 47.75,52.65 47.6,52.5 47.5,52.35 47.35,52.2 47.2,52 47.1,51.85 46.95,51.7 46.85,51.55 46.7,51.4 46.6,51.2 46.45,51.05 46.35,50.9 46.2,50.7 46.1,50.55 45.95,50.4 45.85,50.25 45.7,50.1 45.6,49.95 45.45,49.8 45.35,49.65 45.2,49.5 45.05,49.3 44.95,49.15 44.8,48.95 44.7,48.8 44.55,48.65 44.5,48.4 44.4,48.25 44.25,48.1 44.1,47.9 44,47.75 43.85,47.6 43.75,47.45 43.6,47.3 43.5,47.1 43.35,46.95 43.25,46.8 43.1,46.65 42.95,46.45 42.85,46.3 42.7,46.15 42.55,46 42.45,45.85 42.3,45.7 42.2,45.55 42.05,45.35 41.9,45.2 41.8,45 41.65,44.85 41.55,44.7 41.4,44.55 41.3,44.4 41.15,44.25 41.05,44.1 40.9,43.95 40.75,43.75 40.6,43.6 40.55,43.4 40.4,43.2 40.3,43.05 40.15,42.9 40.05,42.75 39.9,42.6 39.75,42.4 39.65,42.25 39.5,42.1 39.4,41.95 39.25,41.8 39.15,41.65 39,41.5 38.9,41.3 38.75,41.15 38.6,40.95 38.45,40.8 38.35,40.65 38.2,40.5 38.1,40.35 37.95,40.2 37.9,40.1 36.95,40.85 m 16.55,8 1.5,0.1 0.4,0.4 0.3,0.9 -0.25,1 q -0.6,0.95 -1.75,0.6 -0.45,-0.1 -0.75,-0.55 -0.35,-0.35 -0.4,-0.85 -0.05,-0.5 0.25,-0.95 0.25,-0.45 0.7,-0.65 M 79.45,34.2 78.95,34.6 82,37.05 q -0.2,-1.2 -1.4,-3 l -0.25,-0.55 -0.9,0.7 m -15.5,-8.4 -0.15,0.1 -3.6,2.8 q 3.05,4.7 6.6,9.05 l 1.5,-1.25 1.15,-1 0.55,-0.5 1.3,-1.1 -1.6,-2 q -2.75,-3.5 -4.9,-6.8 l -0.85,0.7 m 8.5,17.3 -1.4,-2.35 -0.9,0.75 2.3,1.6 M 35.5,49.5 34.95,48.75 Q 34.6,47.9 34.8,46.9 q 0.2,-0.95 0.9,-1.5 0.65,-0.6 1.7,-0.65 1,-0.05 1.7,0.5 0.75,0.5 1.1,1.45 0.25,0.95 -0.1,1.8 -0.35,0.9 -1.25,1.4 Q 38,50.35 37.1,50.25 36.15,50.1 35.5,49.5 m -7.85,5.15 q -0.6,-0.9 -0.4,-1.95 0.2,-0.95 1.05,-1.6 0.85,-0.65 1.75,-0.65 0.95,0.1 1.75,0.7 0.8,0.7 0.95,1.65 0.15,0.95 -0.35,1.85 -0.55,0.95 -1.45,1.2 -0.95,0.35 -1.85,0 -1.05,-0.35 -1.45,-1.2 M 25.9,65.4 25.8,65.25 25.65,65.1 25.55,64.95 25.4,64.8 25.25,64.6 25.15,64.45 25,64.3 24.9,64.15 24.75,64 24.65,63.85 24.5,63.65 24.4,63.5 24.2,63.3 24.1,63.15 23.95,63 23.85,62.85 23.7,62.7 23.6,62.55 23.45,62.4 23.35,62.25 23.2,62.1 23.05,61.9 22.95,61.75 22.8,61.55 22.7,61.4 22.55,61.25 22.45,61.1 22.3,60.95 22.15,60.8 22,60.6 21.9,60.45 21.75,60.3 21.65,60.15 21.5,60 21.4,59.8 21.25,59.65 21.15,59.5 21,59.35 20.85,59.15 20.8,58.95 20.7,58.9 20.5,59.05 q -1.3,1.05 -1.15,1.9 l 0.25,0.85 q 1.65,2.95 4.2,5.5 l 1.2,-0.9 1,-0.9 -0.1,-0.1 m 7.85,9.8 -0.1,-0.15 L 33.5,74.9 33.45,74.7 33.3,74.55 33.2,74.4 33.05,74.2 32.9,74.05 32.8,73.9 32.65,73.75 32.55,73.6 32.4,73.4 32.25,73.25 32.15,73.1 32,72.95 31.85,72.75 31.75,72.6 31.6,72.45 31.5,72.3 31.35,72.15 31.25,72 31.1,71.85 31,71.7 30.85,71.5 30.7,71.35 30.6,71.15 30.45,71 30.3,70.85 30.2,70.7 30.05,70.55 29.95,70.4 29.8,70.25 29.65,70.05 29.55,69.9 29.4,69.75 29.3,69.6 29.15,69.4 29.1,69.35 l -1.9,1.7 -1.5,1.1 -0.75,0.25 -0.25,0.35 -1.2,1.4 q -0.85,1.4 -0.1,3.35 0.45,1.15 1.95,2.95 l 0.9,0.8 1.55,0.4 q 2.8,0.05 4.7,-1.3 0.85,-0.75 1.45,-1.15 L 33.9,75.3 33.75,75.2 m 10.35,-2.7 -2.45,1.9 -1.05,0.75 -0.85,0.6 -0.85,0.65 q -0.35,0.1 -0.6,0.3 l 0.15,4.15 Q 38.4,86.55 37.1,91.7 l 7.8,1.55 Q 47.15,82.4 45.4,71.5 l -1.3,1 m 8.7,18.3 0.9,-0.9 q 1.1,-1.55 0,-4 -0.8,-1.75 -2.2,-2.25 l -0.45,-0.1 q -0.15,4.8 -0.9,9.2 L 52.8,90.8 M 44.75,98.65 41.55,98 v 0.35 q 0.2,1.9 1.2,2.9 0.85,0.8 2.4,1.1 H 46 q 0.8,-0.15 1.3,-1.2 0.4,-1.2 0.2,-2.45 l -2.75,-0.05"
         fill="#000000"
         fill-rule="evenodd"
         stroke="none"
         id="path2" />
      <path
         d="M 83.8,10.15 84.4,12.2 84,11 83.8,10.15 84.25,9.8 85,9.25 85.1,10 l 0.5,0.8 q 1.7,2.55 3.8,4.6 l 1.25,1.05 1.05,0.45 0.35,0.15 -0.8,0.6 -1.1,-0.2 -1.25,-0.65 q -3.55,-2.85 -5.1,-6.65 m -2.45,7.45 -2.75,-3.35 2.65,-2.15 0.15,0.6 1.65,2.45 q 1.6,2.3 3.9,4.15 l 1.85,1.6 -0.75,-0.6 -2.55,2.05 -4.15,-4.75 m -8.4,1.2 1.2,-0.95 0.85,-0.7 1.3,1.7 1.9,2.45 3.45,4.15 L 81,26 l -0.95,0.75 -1.9,1.5 -2.1,1.75 0.05,0.05 -1,0.8 -2.15,-2.6 q -1.9,-2.4 -4.35,-6.15 l 3,-2.35 1.2,-0.85 0.15,-0.1 M 58.3,34.5 v -0.05 l 0.05,0.1 L 58.3,34.5 M 56,31.8 v -0.05 l 0.1,-0.05 0.25,-0.15 1,1.5 L 57.95,34 57.8,33.85 57.7,33.7 57.55,33.55 57.4,33.35 57.3,33.2 57.15,33.05 57.05,32.9 56.9,32.75 56.8,32.6 56.65,32.4 56.55,32.25 56.3,32.15 56.15,31.95 56,31.8 m 7.95,-6 0.85,-0.7 q 2.15,3.3 4.9,6.8 l 1.6,2 -1.3,1.1 -0.55,0.5 -1.15,1 -1.5,1.25 Q 63.25,33.4 60.2,28.7 l 3.6,-2.8 0.15,-0.1"
         fill="#9ca3a9"
         fill-rule="evenodd"
         stroke="none"
         id="path3" />
      <path
         d="m 93.5,23.15 0.2,0.1 q 1.15,1.05 2,2.25 1.05,1.55 1.45,2.95 l 0.4,2.05 0.35,2 0.2,1.9 q 0,1.1 -0.55,2 -0.5,1 -1.4,1.35 l -3.2,-0.1 -3.65,-1.1 0.45,2.1 q -0.1,1.25 -0.9,2.9 -0.95,1.95 -2,2.8 -1.6,1.3 -3.25,1 -1.1,-0.2 -2.65,-1.45 l -0.45,-0.35 0.35,1.35 q 0.7,2.75 0.4,4.3 -0.3,2.5 -2.1,3.55 -0.45,0.2 -0.6,0.35 L 78,53.5 q -0.3,0.5 -0.25,1.7 -0.1,1.9 -1.5,3.15 -1.45,1.3 -3.25,1.1 L 71,59 68.95,58.5 69,59.6 q 0.15,0.8 -0.3,1.1 -0.55,0.35 -1.2,-0.45 -0.8,-1.1 -0.35,-2.75 0.25,-1.2 1,-1.7 l 1.8,-0.25 2.35,0.35 h 1.2 l 0.55,-0.8 -0.1,-1 -0.35,-1 -0.05,-0.3 -0.35,-0.15 -1.05,-1 -1.2,-0.8 L 70.45,50.2 70.4,50.15 70.3,49.9 70.25,49.7 70.3,49.55 70.2,49.45 70.15,49.25 70.1,49.05 70,48.9 69.85,48.75 69.75,48.55 69.6,48.35 69.45,48.2 69.35,48.05 69.2,47.9 69.1,47.7 68.95,47.6 68.85,47.45 68.7,47.3 68.6,47.15 68.4,46.95 68.3,46.8 68.15,46.65 68.05,46.5 67.9,46.35 67.8,46.2 67.65,46 67.55,45.85 67.4,45.65 67.25,45.5 67.15,45.35 67,45.2 66.9,45.05 66.85,45 66.75,44.9 v -0.05 l 0.1,0.1 3.95,3.7 q 1.85,1.5 3.25,2 l 0.1,-0.05 1.9,0.05 h 0.15 q 0.95,-0.3 1.45,-0.95 1.4,-1.7 0.05,-4.9 -1,-2.5 -2.4,-4.65 l -0.7,-1 -0.55,-0.7 0.85,-0.65 1.15,1.05 3.5,2.55 q 0.5,0.35 1.05,0.5 2,1.05 3.45,1 2.2,0 3.1,-1.65 0.5,-1.05 0.25,-2.9 -0.3,-1.55 -1,-3.15 -0.95,-2.25 -2.75,-4.45 l 0.75,-0.55 0.95,-0.8 0.6,0.6 0.75,0.95 1.75,1.25 0.6,0.5 q 1.5,1.25 2.55,1.45 1.95,0.55 3.65,-0.8 1.25,-1.15 1.4,-2.75 0.05,-1.2 -0.5,-2.7 -1,-2.7 -2.65,-4.75 m -78.65,31.15 -0.3,0.2 q -1.25,1.3 -2.3,1.45 -1.85,0.4 -2.9,-1.05 -0.7,-0.85 -0.65,-2.05 l 0.8,0.25 5.35,1.2 m -3.1,-6.5 0.15,-0.55 -0.35,-0.6 -1.05,-1.5 q -0.15,-0.65 0,-1.85 l 0.45,-1.4 0.9,-1 0.8,-0.55 1.25,-0.2 1.7,0.4 q -0.25,-0.7 -0.2,-1.45 v -0.6 l 1.4,2.05 1.75,2.4 L 18.2,42.9 H 18 l -0.1,0.4 q 0,0.75 -0.7,1.15 l -1.4,0.15 -1,-0.75 Q 14.15,43.4 13.65,43.5 13.2,44.05 13.7,44.9 l 1.05,1.1 q 0.55,0.8 0.4,1.75 v 0.6 l 0.35,0.6 -0.6,-0.15 -3.15,-1 m 6.8,-13.25 q 1.85,-0.25 3.1,1.05 0.95,1 0.9,2.85 l -0.1,1.15 -1.8,-2.2 -2.1,-2.85 M 45.7,24.85 46.2,25 47.15,25.7 46.5,26 46.2,26.25 46.15,26.1 45.7,24.85 m 5.2,0.85 -0.45,-0.8 -1,-2.35 -1.3,-2.2 -1.1,-1.4 -0.85,-1.6 Q 45.55,15.4 47,13.2 q 1.15,-1.75 2.75,-2 1.1,-0.1 2.45,0.5 2.7,1.15 4.45,3.25 l 2.3,3.3 Q 57.55,16.3 56.5,15.5 55.1,14.1 53.1,13.55 l -2.2,-0.2 q -1.2,0.15 -1.85,0.95 -1.2,1.55 0.25,4.7 2.05,4.4 4.7,8.8 L 53.7,28.05 53.4,28.4 53.3,28.25 53.15,28.1 53,27.9 52.9,27.75 52.75,27.6 52.65,27.45 52.5,27.3 52.4,27.15 52.25,27 52.1,26.85 52,26.65 51.85,26.5 51.7,26.3 51.5,26.2 51.35,26.05 51.25,25.9 51.05,25.8 50.9,25.75 V 25.7 M 61,21.4 Q 59.35,17.15 58.05,15.1 56.55,12.95 56.3,12.05 55.85,10.7 56,8.7 56.15,7.05 56.65,5.8 L 55.4,4.9 54.75,4.8 54.45,5.4 q -0.2,2 -0.6,2.65 Q 53,9.3 51.35,9.35 49.95,9.4 48.8,8.2 48.2,7.65 48.4,7.15 48.6,6.6 49.5,6.8 l 1.25,0.25 q 0.6,-0.1 1,-0.7 l 0.4,-1.2 0.1,-1.4 0.3,-1.15 q 0.8,-1.35 3,-1.05 1.9,0.25 3.3,1.35 L 59.2,2.7 q 1.05,-0.55 2.2,-0.5 1.45,0.05 3.35,1.45 2.9,2.25 4.65,5.35 l 1.55,2.7 0.95,1.05 -0.65,-1.1 L 70.3,10 Q 69.75,8.85 69.3,7.05 L 68.55,4 Q 68.2,2.5 68.35,2.05 68.45,1.45 69.3,0.8 70.25,0 70.8,0 l 1.5,0.4 q 2.2,1.05 3,1.55 1.95,1.2 3.4,2.95 L 79,5.1 79.7,5.7 80.1,5.95 79.65,6.3 79.45,6.1 78.55,4.9 76.5,3.05 Q 75.1,2 73.9,1.7 72.25,1.4 71.05,2.25 q -1.65,1.3 -1.15,4.4 0.45,2.8 2.15,5.95 L 71.9,12.75 70.7,13.7 68.1,10.6 Q 65.9,8.5 64.1,7.8 L 62.85,6.75 Q 61.8,5.9 61.15,6.05 60.3,6.2 59.8,7.7 l -0.1,0.35 q -0.85,0.6 -1.2,1.4 -0.85,1.65 0.4,4.75 1.25,3.15 3.25,6.7 L 61.25,21.65 61,21.4 M 76.8,8 l 0.4,0.4 -1.55,1.25 -0.1,-0.1 -1.5,-3.6 Q 75.65,6.8 76.8,8 m -11,5.85 2.1,2.2 -2,1.65 q -2.3,-3.5 -2.95,-5.95 1.4,0.55 2.85,2.1 M 39.1,14.3 q 0.65,-0.5 1.6,-0.45 0.85,0 1.4,0.55 0.6,0.6 0.75,1.5 0.05,0.85 -0.35,1.45 l -1.3,1 -1.6,-0.15 q -0.75,-0.3 -1.1,-1.1 -0.35,-0.85 -0.2,-1.6 l 0.7,-1 0.1,-0.2 m 15.05,4.3 4.2,5.4 -0.8,0.65 -3.4,-6.05 M 41.25,30.45 41.2,30.1 Q 41,29.15 41.35,28.35 l 0.8,-1.45 0.45,1.3 0.2,0.95 -1.55,1.3 m 38.2,3.75 0.9,-0.7 0.25,0.55 q 1.2,1.8 1.4,3 l -3.05,-2.45 0.5,-0.4 m -18.4,26.7 q 0.2,-0.45 0.55,-0.7 l 0.1,-0.15 q 0.5,-0.4 1.15,-0.35 0.7,-0.05 1.2,0.3 0.5,0.35 0.7,1.05 l -0.05,1.2 -0.75,0.95 -1.15,0.3 q -0.7,0 -1.2,-0.45 l -0.6,-1 q -0.1,-0.7 0.05,-1.15"
         fill="#ecdead"
         fill-rule="evenodd"
         stroke="none"
         id="path4" />
      <path
         d="m 46.5,33.3 2.25,-1.85 0.15,0.15 0.1,0.15 0.15,0.15 0.1,0.15 0.15,0.15 0.15,0.2 0.15,0.15 0.1,0.2 0.15,0.15 0.1,0.15 0.15,0.15 0.1,0.15 0.2,0.15 0.1,0.15 0.15,0.2 0.15,0.15 0.1,0.15 0.15,0.15 0.1,0.15 0.15,0.2 0.1,0.15 0.15,0.15 0.15,0.2 0.15,0.15 0.1,0.15 0.1,0.15 0.1,0.15 0.15,0.15 0.1,0.15 0.15,0.15 0.1,0.2 0.15,0.15 0.15,0.2 0.1,0.15 0.15,0.15 0.1,0.15 0.15,0.15 0.15,0.15 0.1,0.15 0.15,0.2 0.15,0.15 0.1,0.15 0.15,0.15 0.1,0.2 0.15,0.15 0.1,0.15 0.15,0.15 0.1,0.15 0.15,0.2 0.15,0.15 0.1,0.15 0.15,0.15 0.15,0.15 0.1,0.15 0.15,0.2 0.1,0.15 0.15,0.2 0.15,0.15 0.1,0.15 0.15,0.15 0.1,0.15 0.15,0.15 0.1,0.15 0.15,0.15 0.1,0.15 0.2,0.2 0.1,0.15 0.15,0.15 0.1,0.2 0.15,0.15 0.1,0.15 0.15,0.15 0.1,0.15 0.15,0.2 0.15,0.15 0.1,0.15 0.15,0.15 0.1,0.15 0.15,0.15 0.1,0.2 0.15,0.15 0.1,0.15 0.2,0.2 0.1,0.15 0.15,0.15 0.1,0.15 0.15,0.15 0.1,0.15 0.15,0.15 0.1,0.15 0.15,0.2 0.15,0.15 0.1,0.2 0.15,0.15 0.1,0.15 0.15,0.15 0.1,0.15 0.15,0.15 0.1,0.15 0.2,0.2 0.1,0.15 0.15,0.15 0.1,0.15 0.15,0.2 0.1,0.15 0.15,0.15 0.1,0.15 0.15,0.15 0.15,0.2 0.1,0.15 0.15,0.15 0.1,0.15 0.15,0.15 0.1,0.15 -8.4,6.85 -0.15,-0.2 -0.1,-0.15 L 54.7,55.95 54.55,55.8 54.45,55.65 54.2,55.55 54.1,55.4 53.95,55.25 53.85,55.1 53.7,54.95 53.6,54.8 53.4,54.6 53.3,54.45 53.1,54.35 53,54.15 52.85,54 52.75,53.85 52.6,53.7 52.5,53.55 52.35,53.35 52.2,53.2 52.1,53.05 51.95,52.9 51.8,52.75 51.65,52.6 51.55,52.4 51.4,52.25 51.25,52.1 51.05,52 50.95,51.85 50.8,51.7 50.7,51.55 50.55,51.4 50.45,51.25 50.3,51.1 50.2,50.95 50.05,50.75 49.9,50.6 49.8,50.4 49.65,50.25 49.55,50.1 49.4,49.95 49.25,49.8 49.15,49.65 49,49.5 48.85,49.3 48.75,49.15 48.55,49 48.45,48.85 48.3,48.65 48.2,48.5 48.05,48.35 47.95,48.2 47.8,48 47.65,47.85 47.5,47.7 47.4,47.55 47.25,47.4 47.15,47.25 47,47.1 l -0.1,-0.15 -0.15,-0.2 -0.2,-0.1 -0.1,-0.2 L 46.3,46.3 46.2,46.15 46.05,46 45.95,45.85 45.8,45.7 45.7,45.55 45.5,45.35 45.4,45.2 45.25,45.05 45.15,44.9 45,44.7 44.9,44.55 44.75,44.4 44.65,44.25 44.5,44.1 44.35,43.9 44.25,43.75 44.1,43.6 44,43.45 43.85,43.3 43.75,43.15 43.55,43 43.45,42.85 43.3,42.7 43.15,42.5 43,42.35 42.9,42.2 42.75,42.05 42.6,41.95 42.45,41.8 42.35,41.65 42.2,41.5 42.05,41.3 41.95,41.15 41.8,40.95 41.7,40.8 41.55,40.65 41.45,40.5 41.3,40.35 41.2,40.2 41.05,40.05 40.9,39.85 40.75,39.7 40.65,39.55 40.5,39.4 40.4,39.25 40.25,39.05 40.15,38.9 40,38.75 39.9,38.5 42.7,36.25 46.5,33.3 m 7,15.55 q -0.45,0.2 -0.7,0.65 -0.3,0.45 -0.25,0.95 0.05,0.5 0.4,0.85 0.3,0.45 0.75,0.55 1.15,0.35 1.75,-0.6 l 0.25,-1 -0.3,-0.9 -0.4,-0.4 -1.5,-0.1"
         fill="#5c6771"
         fill-rule="evenodd"
         stroke="none"
         id="path5" />
      <path
         d="m 36.95,40.85 0.95,-0.75 0.05,0.1 0.15,0.15 0.1,0.15 0.15,0.15 0.1,0.15 0.15,0.15 0.15,0.2 0.15,0.15 0.1,0.2 0.15,0.15 0.1,0.15 0.15,0.15 0.1,0.15 0.15,0.15 0.1,0.15 0.15,0.2 0.15,0.15 0.1,0.15 0.15,0.15 0.1,0.15 0.15,0.2 0.05,0.2 0.15,0.15 0.15,0.2 0.15,0.15 0.1,0.15 0.15,0.15 0.1,0.15 0.15,0.15 0.1,0.15 0.15,0.15 0.1,0.2 0.15,0.15 0.15,0.2 0.1,0.15 0.15,0.15 0.1,0.15 0.15,0.15 0.15,0.15 0.1,0.15 0.15,0.2 0.15,0.15 0.1,0.15 0.15,0.15 0.1,0.2 0.15,0.15 0.1,0.15 0.15,0.15 0.1,0.15 0.15,0.2 0.15,0.15 0.1,0.15 0.05,0.25 0.15,0.15 0.1,0.15 0.15,0.2 0.1,0.15 0.15,0.2 0.15,0.15 0.1,0.15 0.15,0.15 0.1,0.15 0.15,0.15 0.1,0.15 0.15,0.15 0.1,0.15 0.15,0.2 0.1,0.15 0.15,0.15 0.1,0.2 0.15,0.15 0.1,0.15 0.15,0.15 0.1,0.15 0.15,0.2 0.15,0.15 0.1,0.15 0.15,0.15 0.1,0.15 0.15,0.15 0.1,0.2 0.15,0.15 0.1,0.15 0.2,0.2 0.1,0.15 0.1,0.2 0.1,0.15 0.15,0.15 0.1,0.15 0.15,0.15 0.05,0.2 0.15,0.2 0.15,0.15 0.1,0.2 0.15,0.15 0.1,0.15 0.15,0.15 0.1,0.15 0.15,0.15 0.1,0.15 0.15,0.25 0.1,0.15 0.15,0.15 0.1,0.15 0.15,0.2 0.1,0.15 0.15,0.15 0.1,0.15 0.1,0.15 0.15,0.2 0.1,0.15 0.15,0.15 0.1,0.15 0.15,0.15 0.1,0.15 -0.9,0.8 -4.15,3.35 0.1,0.1 L 42.3,67 40.7,68.35 38.35,70.3 37.8,70.85 37.75,70.8 37.6,70.65 37.5,70.5 37.35,70.35 37.25,70.2 37.1,70.05 37,69.9 36.85,69.7 36.7,69.55 36.6,69.4 36.45,69.25 36.35,69.1 36.2,68.9 36.1,68.75 35.95,68.6 35.85,68.45 35.65,68.25 35.55,68.1 35.4,67.95 35.3,67.8 35.15,67.65 35.05,67.5 34.9,67.35 34.8,67.15 34.65,67 34.5,66.8 34.4,66.65 34.25,66.5 34.15,66.35 34,66.2 33.9,66.05 33.75,65.9 33.65,65.75 33.45,65.55 33.35,65.4 33.2,65.25 33.1,65.05 32.95,64.9 32.85,64.75 32.7,64.6 32.6,64.45 32.45,64.3 32.3,64.1 32.2,63.95 32.05,63.8 31.95,63.65 31.8,63.5 31.7,63.3 31.55,63.15 31.45,63 31.25,62.8 31.15,62.65 31,62.5 30.9,62.35 30.75,62.2 30.65,62.05 30.5,61.9 30.4,61.75 30.25,61.6 30.1,61.4 30,61.25 29.85,61.05 29.75,60.9 29.6,60.75 29.45,60.6 29.35,60.45 29.2,60.3 29.05,60.1 28.95,59.95 28.8,59.8 28.7,59.65 28.55,59.5 28.45,59.3 28.3,59.15 28.2,59 28.05,58.85 27.9,58.65 27.8,58.5 27.65,58.35 27.5,58.2 27.4,58.05 27.25,57.9 27.15,57.75 27,57.55 26.85,57.4 26.75,57.2 26.6,57.05 26.5,56.9 26.35,56.75 26.25,56.6 26.1,56.45 26,56.3 25.85,56.15 25.7,55.95 25.55,55.8 25.45,55.65 25.2,55.5 25.1,55.35 24.95,55.2 24.85,55.05 24.7,54.9 24.55,54.7 24.45,54.55 24.3,54.4 24.2,54.25 24.05,54.1 23.95,53.95 23.8,53.8 23.65,53.65 23.5,53.5 23.35,53.3 23.2,53.15 23.1,53 22.95,52.85 22.85,52.7 22.7,52.55 22.6,52.4 l 0.6,-0.5 1.45,-1.15 12.3,-9.9 M 25.9,65.4 26,65.5 25,66.4 23.8,67.3 Q 21.25,64.75 19.6,61.8 L 19.35,60.95 Q 19.2,60.1 20.5,59.05 l 0.2,-0.15 0.1,0.05 0.05,0.2 0.15,0.2 0.15,0.15 0.1,0.15 0.15,0.15 0.1,0.2 0.15,0.15 0.1,0.15 0.15,0.15 0.1,0.15 0.15,0.2 0.15,0.15 0.15,0.15 0.1,0.15 0.15,0.15 0.1,0.15 0.15,0.2 0.1,0.15 0.15,0.2 0.15,0.15 0.1,0.15 0.15,0.15 0.1,0.15 0.15,0.15 0.1,0.15 0.15,0.15 0.1,0.15 0.2,0.2 0.1,0.15 0.15,0.2 0.1,0.15 0.15,0.15 0.1,0.15 0.15,0.15 0.1,0.15 0.15,0.2 0.15,0.15 0.1,0.15 0.15,0.15 0.1,0.15 m 1.75,-10.75 q 0.4,0.85 1.45,1.2 0.9,0.35 1.85,0 0.9,-0.25 1.45,-1.2 0.5,-0.9 0.35,-1.85 -0.15,-0.95 -0.95,-1.65 -0.8,-0.6 -1.75,-0.7 -0.9,0 -1.75,0.65 -0.85,0.65 -1.05,1.6 -0.2,1.05 0.4,1.95 M 35.5,49.5 q 0.65,0.6 1.6,0.75 0.9,0.1 1.75,-0.35 0.9,-0.5 1.25,-1.4 0.35,-0.85 0.1,-1.8 -0.35,-0.95 -1.1,-1.45 -0.7,-0.55 -1.7,-0.5 -1.05,0.05 -1.7,0.65 -0.7,0.55 -0.9,1.5 -0.2,1 0.15,1.85 l 0.55,0.75"
         fill="#494f55"
         fill-rule="evenodd"
         stroke="none"
         id="path6" />
      <path
         d="m 44.1,72.5 1.3,-1 q 1.75,10.9 -0.5,21.75 L 37.1,91.7 q 1.3,-5.15 1.35,-10.85 L 38.3,76.7 q 0.25,-0.2 0.6,-0.3 l 0.85,-0.65 0.85,-0.6 1.05,-0.75 2.45,-1.9"
         fill="#4a4d50"
         fill-rule="evenodd"
         stroke="none"
         id="path7" />
      <path
         d="m 75.45,38.95 q 0.7,0.1 1.8,-0.45 l 1.8,-0.7 1.05,-0.25 0.45,-0.7 0.65,-1.45 0.5,-1.4 q 0.35,-0.6 1.15,-0.85 l 1.05,-0.1 q 0.7,0.2 0.55,0.8 -0.05,0.45 -0.8,1 l -0.3,0.9 -0.65,2.6 Q 82.15,39.6 81.25,40 l -1.45,0.3 -1.9,0.85 -2.25,0.45 q -0.75,-0.1 -2.5,-0.95 -2.1,-1.1 -2.55,-2.25 -0.2,-0.6 -0.1,-2.15 l 0.25,-3.1 q 0.35,-1.75 1.6,-2.55 l 0.8,-0.65 q 0.25,-0.45 -0.05,-1 l -0.5,-1 -0.3,-0.5 -0.45,-0.1 -2.25,0.4 -1.15,1 -3.1,0.15 q -1.3,-0.6 -1.55,-1.35 -0.2,-0.5 0.1,-1 0.3,-0.55 0.8,-0.55 0.35,0 1.1,0.6 0.6,0.5 1.05,0.4 l 0.9,-0.65 q 1,-1 3.5,-1 l 1.85,0.35 1.05,1 0.8,1.4 q 0.25,0.8 0.15,2.05 l -0.2,1.3 -0.85,0.8 -0.9,0.75 q -0.5,0.55 -0.5,1.7 l 0.1,1.8 0.2,1 0.85,0.6 0.8,0.5 0.85,0.35 m -1.7,-24.65 1.8,0.75 q 1.45,0.6 2.5,1.65 1.35,1.25 1.05,2.55 l -0.55,1.2 -0.35,1 -0.85,0.95 -0.5,0.4 0.15,0.6 1,1.95 0.15,0.65 q -0.1,0.4 -0.6,0.4 L 76.8,26.2 q -0.9,-0.5 -1.45,-1.1 -0.7,-0.9 -0.6,-2.35 0,-0.55 0.3,-1 l 0.65,-0.55 0.55,-0.6 0.15,-0.8 0.2,-0.7 Q 75.85,17.55 74.15,17.15 L 73,16.9 l -1.05,-0.7 -0.9,-0.85 -0.7,-0.5 -0.6,-0.6 -0.2,-1.35 0.2,-3.1 Q 70,8.8 70.5,8.1 L 71.9,7 q 1.75,-0.85 3.45,-0.4 0.7,0.2 1,0.6 0.5,0.7 0,1.1 L 75.6,8.5 74.75,8.45 74,8.6 q -1.45,0.6 -1.8,1.3 -0.3,0.65 -0.2,1.85 l 0.2,0.95 0.5,0.6 1.05,1 M 42.5,27.55 q -0.35,1.25 -0.75,1.5 l -0.65,0.2 -0.75,0.1 q -1,0.15 -1.65,1.05 -0.55,0.75 -0.8,1.85 v 0.9 l 0.4,0.75 0.95,1 1.1,0.7 Q 41,36 41.1,36.5 l -0.05,0.85 -0.65,0.65 -2,-0.05 q -0.8,-0.3 -1.5,-0.9 l -0.8,-1 L 35.5,35 q -0.25,-0.5 -0.25,-1.25 -0.15,-2.55 1,-4.5 1.4,-2.2 3.75,-2.6 1,-2.3 2.2,-2.95 l 3.35,-0.3 1.45,0.4 q 0.55,0.25 0.9,0.6 l 0.85,0.9 q 0.4,0.75 0.4,2.1 l -0.05,0.9 q -0.3,0.75 -1.3,1.05 -0.5,0.2 -0.75,0 L 46.8,28.75 Q 46.7,28 46.85,27.45 v -0.9 Q 46.7,26.1 45.8,25.9 l -2.2,-0.05 q -0.7,0.35 -1.1,1.7 m 21.35,14.95 0.55,0.6 0.55,0.6 0.75,0.55 0.6,0.35 0.8,0.35 1.35,-0.25 1.35,-0.15 q 0.85,0.3 1.15,1.75 0.2,0.6 -0.15,0.8 L 70.1,47 69.35,46.8 68.95,47.15 67.9,47.3 66.4,47.25 65.3,46.9 Q 63.6,46.3 63,45.55 L 62.55,44.9 61.45,43.75 Q 61.3,43.45 61.4,42.85 V 41.9 l -0.4,-0.85 -0.3,-1.1 -0.2,-1.8 q 0.05,-1.1 0.7,-2.05 0.65,-0.95 1.7,-1.4 l 0.6,-0.35 0.2,-0.65 q 0.15,-0.6 0.8,-0.75 0.55,-0.15 1,0.3 l 0.45,1 q 0.1,1.2 -0.45,1.7 l -0.95,0.6 q -0.65,0.35 -0.95,0.8 l -0.35,0.5 q -0.15,0.4 -0.05,1.35 l 0.2,0.75 0.4,0.9 -0.05,0.85 0.1,0.8"
         fill="#ecdead"
         fill-rule="evenodd"
         stroke="none"
         id="path8" />
    </g>
    <g
       id="sprite2"
       transform="translate(17.4,15.85)">
      <use
         ffdec:characterId="31"
         height="57.200001"
         transform="matrix(0.5366,0,0,0.5366,-16.6582,-14.546)"
         width="70.75"
         xlink:href="#sprite3"
         id="use8" />
    </g>
    <g
       id="sprite3"
       transform="translate(-8.65,-10.35)">
      <use
         ffdec:characterId="30"
         height="57.200001"
         transform="translate(8.65,10.35)"
         width="70.75"
         xlink:href="#shape1"
         id="use9" />
    </g>
    <g
       id="shape1"
       transform="translate(-8.65,-10.35)">
      <path
         d="m 14.8,41.7 q 0.65,-1.75 2.65,-2.5 1.8,-0.8 3.7,-0.25 1.15,0.45 2.25,1.2 l 0.9,0.4 q 1.65,0.9 2.85,2.5 L 37.8,30.1 q 2.35,-2.8 3.75,-3.95 1.5,-1.15 4.25,-2.4 18.2,-8.85 27.65,-12.6 2.15,-0.8 3.25,-0.8 h 0.8 l 1.9,2.4 -0.2,0.8 q -0.2,1.1 -1.55,3 -5.85,8.25 -18.85,23.8 -1.85,2.35 -3.35,3.5 -1.4,1.15 -4.75,2.75 l -15.15,7.15 q 1.2,1.6 1.75,3.4 l 0.2,1 0.55,2.5 q 0.1,1.95 -1.1,3.55 -1.2,1.65 -3.05,1.9 l -1.3,0.05 q -1.65,0.2 -3.45,-0.65 -1.85,-0.9 -3,-2.6 L 25,60.95 23.8,62.1 q -2.6,2.85 -4.3,3.95 -2.85,1.8 -5.5,1.45 l -1.65,-0.5 -1.2,-0.7 -0.2,-0.2 q -1,-0.85 -1.6,-1.9 L 9.25,64 9.15,63.8 8.75,62.4 q -0.2,-0.8 -0.05,-1.7 0.25,-2.65 2.7,-5.05 1.5,-1.3 4.9,-3.15 L 17.7,51.55 16.05,50 q -1.35,-1.5 -1.8,-3.6 -0.4,-1.85 0.25,-3.45 l 0.3,-1.25"
         fill="#000000"
         fill-opacity="0.372549"
         fill-rule="evenodd"
         stroke="none"
         id="path9" />
    </g>
  </defs>
</svg>
