<?xml version="1.0" encoding="UTF-8" standalone="no"?>
<svg
   ffdec:objectType="frame"
   height="75.25"
   width="93.290001"
   version="1.1"
   id="svg7"
   xmlns:xlink="http://www.w3.org/1999/xlink"
   xmlns="http://www.w3.org/2000/svg"
   xmlns:svg="http://www.w3.org/2000/svg"
   xmlns:ffdec="https://www.free-decompiler.com/flash">
  <g
     transform="translate(47.34,35.9)"
     id="g1">
    <use
       ffdec:characterId="17"
       height="119.15"
       id="rarity"
       transform="translate(-58.5,-60.65)"
       width="119.15"
       xlink:href="#sprite0" />
    <use
       ffdec:characterId="1265"
       height="75.300003"
       transform="translate(-47.35,-35.9)"
       width="93.400002"
       xlink:href="#shape0"
       id="use1" />
  </g>
  <defs
     id="defs7">
    <g
       id="shape0"
       transform="translate(46.05,34)">
      <path
         d="m 42.4,-11.35 -0.5,-4.3 q -0.45,-2.45 -1.4,-4.4 -0.95,-2 -3.4,-3.65 -2.5,-1.7 -4.3,-2.2 l -4.45,-0.3 q -4.15,0.4 -9.95,3.4 l -0.7,0.8 -4.35,4.65 -0.65,0.7 1.4,-0.35 4.15,-0.85 q 3,-0.5 6.55,0 3.1,0.5 5.5,1.8 2.7,1.5 4.1,3.8 0.95,1.6 1.65,4.85 l 0.35,2.05 q 0.5,3.6 0.05,6.4 L 36,3.2 q 1.25,0 2.5,-1.6 1.25,-1.6 2.65,-5.5 1.4,-3.95 1.3,-6.6 L 42.4,-11.35 M -38.65,18.5 Q -43.95,14.1 -45.4,8.35 -46.2,5.4 -46,0.8 q 0.1,-3 0.6,-5.1 0.75,-3.5 3.6,-8.25 1.85,-3.15 3.6,-5.1 5.4,-6.25 14.6,-8.65 l 7.55,-0.6 q 2,0.25 5.55,1.65 l 6.3,2.4 q 1.85,0.8 3.2,1.25 l 1,0.1 -0.2,-2.1 h -1.05 q -1.6,-0.1 -2.4,-0.55 -1.45,-0.95 -1.3,-2.65 0.1,-0.8 0.6,-1.45 l 1.2,-0.85 2.2,-0.25 h 0.05 v -0.9 q 0,-1.55 0.55,-2.4 l 1.1,-1 L 2.2,-34 q 1.75,0.15 2.4,1.7 l 0.35,1.55 0.05,0.65 0.5,-0.05 1.8,-0.25 q 1.55,0.1 2.3,1.45 0.75,1.4 -0.05,2.75 -0.65,1.05 -2.1,1.5 l -1.9,0.35 0.2,1.9 q 2.6,-1 5.9,-2.8 l 6.65,-3.7 q 8.45,-4.3 14.55,-2.95 4.85,1.05 9.6,5.95 3.2,3.35 4.1,6.3 l 0.65,4.4 0.05,5.05 q -0.25,2.15 -1.8,6.75 l -2.75,6.6 -2.95,4.2 -3.4,3.85 -2.6,2.9 q 0.75,1.1 1.3,2.95 0.65,1.95 0.65,3.3 -0.05,1.45 -0.9,3.6 -2.5,5.95 -6.95,9.15 -1.5,1.05 -5.05,2.7 l -4.3,1.95 -4.55,1.85 Q 9.6,40.95 2.1,41.25 h -9.4 l -11.05,-0.9 -5.8,-1.05 q -3.1,-0.8 -5.35,-2.2 -2.6,-1.6 -4.1,-4.1 -1.6,-2.7 -1.35,-5.5 0.3,-2.7 2.2,-5.15 -3.4,-1.75 -5.9,-3.85 m 36.8,-35.75 -1.05,-0.2 0.5,0.5 q 1.1,1.1 1.45,2.05 l 1.9,-0.05 -0.2,-1 -0.05,-0.5 q -1.45,-0.15 -2.45,-0.75 l -0.1,-0.05 m 10.15,-0.65 -1.75,0.6 0.1,1.05 -0.15,1.05 1.25,-0.3 0.3,-0.5 2.1,-2.65 Q 8.9,-18.1 8.3,-17.9 M 20.4,7.65 20.45,7.3 Q 21.25,1.4 18.3,-4.15 17.1,-6.4 15.7,-7.65 14.1,-9.2 11.9,-9.85 L 7.5,-10.1 4.85,-9.55 q -1.7,0.1 -2.6,-0.7 l -0.25,-0.3 -2.4,1.8 -4.9,3.5 q -5.9,4.5 -7.5,9.1 -1.2,3.4 -0.45,7.05 l 0.5,2 1.35,3 0.75,1.15 1.8,2.2 1.2,1.15 1.75,1.7 0.15,0.15 h 1 1.25 l 0.85,-0.15 6.8,-1.05 3.85,-0.7 3.8,-1.1 1.85,-0.55 1.3,-1.2 2.65,-2.8 0.9,-1.45 q 1.4,-2.5 1.9,-5.6 m -11.25,3.15 0.1,-0.15 1.45,0.05 0.35,0.35 q 0.3,0.45 0.1,1 L 10.75,12.7 7.7,16.3 5.2,18.5 Q 4.35,19.15 3.7,19.15 L 2.9,18.9 Q 2.55,18.65 2.5,18.25 v -0.2 Q 2.5,17.6 3,17.1 l 1.4,-1.35 2,-2 2.75,-2.95 m 13.55,4.75 3.6,-2.35 2.15,-1.6 Q 29.8,9.8 31.2,6.8 L 29.4,7.05 Q 28.2,7.05 27.3,6.5 26.3,5.85 26,4.8 L 25.9,4.05 Q 25.8,2.1 26.85,0.6 l 0.55,-0.65 0.95,-0.65 1.35,-0.3 1.85,0.2 q 0.95,0.25 1.5,1.05 L 33.2,0.5 33.05,-3.4 q -0.6,-5.3 -2.6,-7.55 -2.3,-2.5 -6.95,-2.85 -3.35,-0.2 -8.8,1 1.85,0.9 3.3,2.35 1.5,1.5 2.7,3.5 3.1,5.25 3.1,11.6 0,6.4 -3.15,11.6 l -0.15,0.3 2.2,-1 m 6.1,-26.45 q 1.15,1.2 0.9,2.9 -0.25,1.7 -1.75,2.55 L 24.9,-5.3 Q 23.3,-6.05 23,-7.7 L 22.9,-8.5 23,-9.45 q 0.25,-0.85 0.8,-1.4 l 1.15,-0.9 2.05,-0.2 q 0.95,0.2 1.8,1.05 m 2.1,31.35 v -0.9 l -0.55,-1.95 -0.2,-0.5 -0.75,0.5 -3.8,2.45 1.05,0.75 1.25,1.3 0.2,0.3 0.45,1.25 0.2,1.75 1,-1.7 q 1,-1.8 1.15,-3.25 m -10.85,9.9 1.4,-0.3 0.8,-0.45 0.8,-0.55 0.4,-0.4 1.15,-1.5 0.35,-1.05 q 0.25,-1 -0.1,-1.85 L 24.7,24 24.45,23.75 23.65,23.2 22.85,22.8 H 22.4 q -0.25,0 -0.5,0.25 -1.4,0.9 -2.05,1.9 l -0.7,1.55 -0.45,1.6 v 0.65 l 0.1,0.75 0.7,0.6 0.55,0.25 M -0.2,17.85 Q -0.9,17.6 -0.8,16.7 L -0.7,16.45 -0.15,15.5 2.4,12.8 3.1,12.25 3.95,12.2 q 0.6,0.3 0.4,1.15 l -0.7,1.05 -2.4,2.7 Q 0.45,18 -0.2,17.85 m 16.1,6.35 0.3,-0.5 -0.6,0.2 -3.25,0.9 -4.25,1 q 0.7,1.95 0.85,4.1 V 31 31.5 L 8.5,35.25 8.4,35.65 9.35,35.5 q 2.1,-0.4 5.3,-1.6 L 16.6,33.2 Q 15.35,32.15 14.9,30.65 14.65,29.9 14.65,28.9 v -0.05 q 0,-2.5 1.25,-4.65 M 4.95,31.65 5,31.05 4.9,29.15 4.3,27.2 4.2,26.75 3.55,26.85 -0.35,27.2 -5,27.8 -5.55,27.85 q 1,1.65 1.3,3.4 v 2 q -0.2,1.6 -0.85,2.85 h 1.6 L 4,35.95 h 0.05 q 0.7,-1.35 0.9,-4.3 M -29.3,5.55 q 0.9,-3.05 2.8,-6.2 2.6,-4.3 6.15,-7.3 4.25,-3.55 10,-5.35 l 5.6,-1.25 -5.9,-4.85 -3.25,-1.05 -3.65,-0.6 q -2.3,-0.05 -6.05,1.1 l -4.5,1.85 q -4.6,2.4 -7.85,7.65 -1.8,2.9 -2.75,5.9 -1.2,3.45 -1.2,6.6 -0.1,3.5 1.35,6.6 2.6,5.5 10.05,9 l -0.4,-0.85 q -1.2,-2.8 -1.2,-5.95 0,-2.6 0.8,-5.3 m -8,-1.1 0.2,-1.3 0.3,-0.75 q 0.4,-0.55 1.05,-0.4 0.65,0.1 0.85,0.8 l -0.1,1.15 0.25,1.45 0.2,0.45 1.65,2.9 0.3,1.05 q 0,0.65 -0.3,0.95 -1,0.1 -1.85,-0.45 l -0.8,-0.6 -0.7,-0.65 Q -37.15,8.1 -37.5,6.9 l -0.1,-0.9 0.2,-0.95 0.1,-0.6 m 28,-13.2 q -4.9,1.85 -8.15,4.75 -1.6,1.45 -3,3.3 l 0.25,0.15 q 0.85,0.55 1.3,1.5 0.4,1 0.2,2 -0.2,0.95 -1,1.7 -0.8,0.75 -1.8,0.9 -1,0.1 -1.95,-0.4 l -0.3,-0.2 q -0.95,2.3 -1.2,4.6 v 1.75 l 0.3,-0.2 2.2,-0.25 q 1.15,0.3 1.8,1.3 0.7,1 0.6,2.15 -0.05,1.1 -0.95,2 -0.7,0.7 -1.6,0.85 l 3.55,3.15 0.85,0.75 4.65,0.75 -1.8,-2.5 q -2.7,-4.35 -3.15,-9.3 -0.45,-5.25 1.8,-9.5 1.9,-3.7 6.55,-7.35 1.85,-1.5 3.9,-2.85 l -3.05,0.95 m -9.55,35.55 q -4.65,-0.85 -9,-2.4 l -0.55,-0.2 q -1.65,2 -1.45,4.05 l 0.05,0.3 q 0.4,2.35 3.35,4 2.25,1.35 5.5,2.05 l 0.8,0.15 -0.25,-2.4 0.15,-1.7 0.05,-0.5 q 0.35,-1.65 1.5,-2.85 l 0.4,-0.4 -0.55,-0.1 m 9.45,1.7 q -0.15,-0.15 -0.35,-0.15 l -1.2,-0.3 -0.5,-0.05 -0.45,-0.1 h -0.85 l -1.75,0.7 -0.7,0.45 -0.45,0.8 -0.55,1.25 v 1.2 l 0.05,0.7 0.25,0.4 0.6,0.75 0.35,0.35 1.9,0.9 0.5,0.25 1.5,0.1 0.1,-0.05 0.65,-0.3 1.15,-0.4 0.8,-0.75 0.5,-0.8 0.1,-0.95 -0.1,-1.35 Q -8.05,30.3 -9.05,28.9 L -9.4,28.5"
         fill="#000000"
         fill-rule="evenodd"
         stroke="none"
         id="path1" />
      <path
         d="m 8.3,-17.9 q 0.6,-0.2 1.85,-0.75 l -2.1,2.65 -0.3,0.5 -1.25,0.3 0.15,-1.05 -0.1,-1.05 1.75,-0.6 m -10.15,0.65 0.1,0.05 q 1,0.6 2.45,0.75 l 0.05,0.5 0.2,1 -1.9,0.05 q -0.35,-0.95 -1.45,-2.05 l -0.5,-0.5 1.05,0.2 M 28.1,22.4 27.9,22.1 26.65,20.8 25.6,20.05 l 3.8,-2.45 0.75,-0.5 0.2,0.5 0.55,1.95 v 0.9 l -0.7,0.6 -2.1,1.35 m 0.7,-33.3 q -0.85,-0.85 -1.8,-1.05 l -2.05,0.2 -1.15,0.9 q -0.55,0.55 -0.8,1.4 l -0.1,0.95 0.1,0.8 q 0.3,1.65 1.9,2.4 l 3.05,-0.15 q 1.5,-0.85 1.75,-2.55 0.25,-1.7 -0.9,-2.9 m -6.1,26.45 -2.2,1 0.15,-0.3 q 3.15,-5.2 3.15,-11.6 0,-6.35 -3.1,-11.6 -1.2,-2 -2.7,-3.5 -1.45,-1.45 -3.3,-2.35 5.45,-1.2 8.8,-1 4.65,0.35 6.95,2.85 2,2.25 2.6,7.55 L 33.2,0.5 33.05,0.25 Q 32.5,-0.55 31.55,-0.8 L 29.7,-1 28.35,-0.7 27.4,-0.05 26.85,0.6 Q 25.8,2.1 25.9,4.05 L 26,4.8 q 0.3,1.05 1.3,1.7 0.9,0.55 2.1,0.55 L 31.2,6.8 q -1.4,3 -2.75,4.8 l -2.15,1.6 -3.6,2.35 m -7.1,8.35 0.3,0.3 q -1.25,2.15 -1.25,4.65 v 0.05 l -0.25,0.15 q -1.85,1.1 -4.5,1.75 L 8.95,31 V 29.9 Q 8.8,27.75 8.1,25.8 l 4.25,-1 3.25,-0.9 m -19.85,7.35 q -0.3,-1.75 -1.3,-3.4 L -5,27.8 -0.35,27.2 3.55,26.85 4.2,26.75 4.3,27.2 4.9,29.15 5,31.05 4.95,31.65 -0.7,32 -4.25,31.25 m -5.05,-40 3.05,-0.95 q -2.05,1.35 -3.9,2.85 -4.65,3.65 -6.55,7.35 -2.25,4.25 -1.8,9.5 0.45,4.95 3.15,9.3 l 1.8,2.5 -4.65,-0.75 -0.85,-0.75 -3.55,-3.15 q 0.9,-0.15 1.6,-0.85 0.9,-0.9 0.95,-2 0.1,-1.15 -0.6,-2.15 -0.65,-1 -1.8,-1.3 l -2.2,0.25 -0.3,0.2 V 9.55 q 0.25,-2.3 1.2,-4.6 l 0.3,0.2 q 0.95,0.5 1.95,0.4 1,-0.15 1.8,-0.9 0.8,-0.75 1,-1.7 0.2,-1 -0.2,-2 -0.45,-0.95 -1.3,-1.5 l -0.25,-0.15 q 1.4,-1.85 3,-3.3 3.25,-2.9 8.15,-4.75 m -20.55,37 q -0.2,-2.05 1.45,-4.05 l 0.55,0.2 q 4.35,1.55 9,2.4 l 0.15,0.5 q -1.15,1.2 -1.5,2.85 l -0.05,0.5 -0.85,0.2 -1.65,-0.05 -2.7,-0.5 -2.15,-0.75 q -1.35,-0.55 -2.25,-1.3"
         fill="#e0d9a5"
         fill-rule="evenodd"
         stroke="none"
         id="path2" />
      <path
         d="M 20.05,30.35 19.5,30.1 18.8,29.5 18.7,28.75 V 28.1 l 0.45,-1.6 0.7,-1.55 q 0.65,-1 2.05,-1.9 0.25,-0.25 0.5,-0.25 h 0.45 l 0.8,0.4 0.8,0.55 0.25,0.25 0.15,0.25 q 0.35,0.85 0.1,1.85 l -0.35,1.05 -1.15,1.5 -0.4,0.4 -0.8,0.55 -0.8,0.45 -1.4,0.3 M -9.4,28.5 l 0.35,0.4 q 1,1.4 1.2,2.25 l 0.1,1.35 -0.1,0.95 -0.5,0.8 -0.8,0.75 -1.15,0.4 -0.65,0.3 -0.1,0.05 -1.5,-0.1 -0.5,-0.25 -1.9,-0.9 -0.35,-0.35 -0.6,-0.75 -0.25,-0.4 -0.05,-0.7 v -1.2 l 0.55,-1.25 0.45,-0.8 0.7,-0.45 1.75,-0.7 h 0.85 l 0.45,0.1 0.5,0.05 1.2,0.3 q 0.2,0 0.35,0.15"
         fill="#6c74a3"
         fill-rule="evenodd"
         stroke="none"
         id="path3" />
      <path
         d="m 28.1,22.4 2.1,-1.35 0.7,-0.6 q -0.15,1.45 -1.15,3.25 l -1,1.7 -0.2,-1.75 -0.45,-1.25 m -13.45,6.5 q 0,1 0.25,1.75 0.45,1.5 1.7,2.55 l -1.95,0.7 q -3.2,1.2 -5.3,1.6 L 8.4,35.65 8.5,35.25 8.95,31.5 V 31 L 9.9,30.8 q 2.65,-0.65 4.5,-1.75 L 14.65,28.9 M -4.25,31.25 -0.7,32 4.95,31.65 q -0.2,2.95 -0.9,4.3 H 4 l -7.5,0.15 h -1.6 q 0.65,-1.25 0.85,-2.85 v -2 m -25.6,-3 q 0.9,0.75 2.25,1.3 l 2.15,0.75 2.7,0.5 1.65,0.05 0.85,-0.2 -0.15,1.7 0.25,2.4 -0.8,-0.15 q -3.25,-0.7 -5.5,-2.05 -2.95,-1.65 -3.35,-4 l -0.05,-0.3"
         fill="#b1ac8a"
         fill-rule="evenodd"
         stroke="none"
         id="path4" />
      <path
         d="m 36.4,-5.35 1.15,-0.8 Q 39,-7.1 39.6,-7.95 l 0.95,-1.65 q 0.55,-1.05 1.15,-1.45 l 0.7,-0.3 0.05,0.85 q 0.1,2.65 -1.3,6.6 Q 39.75,0 38.5,1.6 37.25,3.2 36,3.2 l 0.45,-2.15 q 0.45,-2.8 -0.05,-6.4 m -49.65,16.25 1.25,0.55 2.9,1.15 3.65,1.1 3.75,0.15 q 1.6,-0.25 4.35,-1.55 3.8,-1.6 6.5,-1.5 l -2.75,2.95 -2,2 L 3,17.1 q -0.5,0.5 -0.5,0.95 v 0.2 q 0.05,0.4 0.4,0.65 l 0.8,0.25 q 0.65,0 1.5,-0.65 l 2.5,-2.2 3.05,-3.6 0.4,-0.65 q 0.2,-0.55 -0.1,-1 l 0.5,0.1 1.5,0.05 q 1.1,-0.1 2.7,-1.2 L 18.3,8.35 q 1.25,-0.85 2.1,-0.7 -0.5,3.1 -1.9,5.6 l -0.9,1.45 -2.65,2.8 -1.3,1.2 -1.85,0.55 -3.8,1.1 -3.85,0.7 -6.8,1.05 -0.85,0.15 h -1.25 -1 l -0.15,-0.15 -1.75,-1.7 -1.2,-1.15 -1.8,-2.2 -0.75,-1.15 -1.35,-3 -0.5,-2 M -0.2,17.85 Q 0.45,18 1.25,17.1 l 2.4,-2.7 0.7,-1.05 Q 4.55,12.5 3.95,12.2 L 3.1,12.25 2.4,12.8 -0.15,15.5 -0.7,16.45 -0.8,16.7 q -0.1,0.9 0.6,1.15 m -39.7,-15.8 0.55,0.4 0.8,0.9 1.25,1.1 -0.1,0.6 -0.2,0.95 0.1,0.9 q 0.35,1.2 1.25,2.15 l 0.7,0.65 0.8,0.6 q 0.85,0.55 1.85,0.45 0.3,-0.3 0.3,-0.95 l -0.3,-1.05 -1.65,-2.9 -0.2,-0.45 h 1.6 l 1.85,-0.25 1.8,0.3 0.2,0.1 q -0.8,2.7 -0.8,5.3 0,3.15 1.2,5.95 l 0.4,0.85 q -7.45,-3.5 -10.05,-9 -1.45,-3.1 -1.35,-6.6"
         fill="#8d5353"
         fill-rule="evenodd"
         stroke="none"
         id="path5" />
      <path
         d="M 36.4,-5.35 36.05,-7.4 q -0.7,-3.25 -1.65,-4.85 -1.4,-2.3 -4.1,-3.8 -2.4,-1.3 -5.5,-1.8 -3.55,-0.5 -6.55,0 l -4.15,0.85 -1.4,0.35 0.65,-0.7 4.35,-4.65 0.7,-0.8 q 5.8,-3 9.95,-3.4 l 4.45,0.3 q 1.8,0.5 4.3,2.2 2.45,1.65 3.4,3.65 0.95,1.95 1.4,4.4 l 0.5,4.3 -0.7,0.3 q -0.6,0.4 -1.15,1.45 l -0.95,1.65 q -0.6,0.85 -2.05,1.8 l -1.15,0.8 M -13.25,10.9 Q -14,7.25 -12.8,3.85 q 1.6,-4.6 7.5,-9.1 l 4.9,-3.5 2.4,-1.8 0.25,0.3 q 0.9,0.8 2.6,0.7 l 2.65,-0.55 4.4,0.25 q 2.2,0.65 3.8,2.2 1.4,1.25 2.6,3.5 2.95,5.55 2.15,11.45 L 20.4,7.65 Q 19.55,7.5 18.3,8.35 L 15.75,10 q -1.6,1.1 -2.7,1.2 l -1.5,-0.05 -0.5,-0.1 L 10.7,10.7 9.25,10.65 9.15,10.8 q -2.7,-0.1 -6.5,1.5 -2.75,1.3 -4.35,1.55 L -5.45,13.7 -9.1,12.6 -12,11.45 -13.25,10.9 M -39.9,2.05 q 0,-3.15 1.2,-6.6 0.95,-3 2.75,-5.9 3.25,-5.25 7.85,-7.65 l 4.5,-1.85 q 3.75,-1.15 6.05,-1.1 l 3.65,0.6 3.25,1.05 5.9,4.85 -5.6,1.25 q -5.75,1.8 -10,5.35 -3.55,3 -6.15,7.3 -1.9,3.15 -2.8,6.2 l -0.2,-0.1 -1.8,-0.3 -1.85,0.25 h -1.6 L -35,3.95 -34.9,2.8 Q -35.1,2.1 -35.75,2 -36.4,1.85 -36.8,2.4 l -0.3,0.75 -0.2,1.3 -1.25,-1.1 -0.8,-0.9 -0.55,-0.4"
         fill="#bf6f6f"
         fill-rule="evenodd"
         stroke="none"
         id="path6" />
    </g>
    <g
       id="sprite1"
       transform="translate(17.4,15.85)">
      <use
         ffdec:characterId="31"
         height="57.200001"
         transform="matrix(0.5366,0,0,0.5366,-16.6582,-14.546)"
         width="70.75"
         xlink:href="#sprite2"
         id="use6" />
    </g>
    <g
       id="sprite2"
       transform="translate(-8.65,-10.35)">
      <use
         ffdec:characterId="30"
         height="57.200001"
         transform="translate(8.65,10.35)"
         width="70.75"
         xlink:href="#shape1"
         id="use7" />
    </g>
    <g
       id="shape1"
       transform="translate(-8.65,-10.35)">
      <path
         d="m 14.8,41.7 q 0.65,-1.75 2.65,-2.5 1.8,-0.8 3.7,-0.25 1.15,0.45 2.25,1.2 l 0.9,0.4 q 1.65,0.9 2.85,2.5 L 37.8,30.1 q 2.35,-2.8 3.75,-3.95 1.5,-1.15 4.25,-2.4 18.2,-8.85 27.65,-12.6 2.15,-0.8 3.25,-0.8 h 0.8 l 1.9,2.4 -0.2,0.8 q -0.2,1.1 -1.55,3 -5.85,8.25 -18.85,23.8 -1.85,2.35 -3.35,3.5 -1.4,1.15 -4.75,2.75 l -15.15,7.15 q 1.2,1.6 1.75,3.4 l 0.2,1 0.55,2.5 q 0.1,1.95 -1.1,3.55 -1.2,1.65 -3.05,1.9 l -1.3,0.05 q -1.65,0.2 -3.45,-0.65 -1.85,-0.9 -3,-2.6 L 25,60.95 23.8,62.1 q -2.6,2.85 -4.3,3.95 -2.85,1.8 -5.5,1.45 l -1.65,-0.5 -1.2,-0.7 -0.2,-0.2 q -1,-0.85 -1.6,-1.9 L 9.25,64 9.15,63.8 8.75,62.4 q -0.2,-0.8 -0.05,-1.7 0.25,-2.65 2.7,-5.05 1.5,-1.3 4.9,-3.15 L 17.7,51.55 16.05,50 q -1.35,-1.5 -1.8,-3.6 -0.4,-1.85 0.25,-3.45 l 0.3,-1.25"
         fill="#000000"
         fill-opacity="0.372549"
         fill-rule="evenodd"
         stroke="none"
         id="path7" />
    </g>
  </defs>
</svg>
