<?xml version="1.0" encoding="UTF-8" standalone="no"?>
<svg
   ffdec:objectType="frame"
   height="84.851501"
   width="75.366669"
   version="1.1"
   id="svg6"
   xmlns:xlink="http://www.w3.org/1999/xlink"
   xmlns="http://www.w3.org/2000/svg"
   xmlns:svg="http://www.w3.org/2000/svg"
   xmlns:ffdec="https://www.free-decompiler.com/flash">
  <g
     transform="translate(38.15,42.564)"
     id="g1">
    <use
       ffdec:characterId="17"
       height="119.15"
       id="rarity"
       transform="translate(-58.5,-60.65)"
       width="119.15"
       xlink:href="#sprite0" />
    <use
       ffdec:characterId="1075"
       height="84.849998"
       transform="translate(-38.15,-42.55)"
       width="75.349998"
       xlink:href="#shape0"
       id="use1" />
  </g>
  <defs
     id="defs6">
    <g
       id="shape0"
       transform="translate(84.95,43.9)">
      <path
         d="m -35.55,38.4 q -1.35,-0.1 -3.65,-1.55 -1.15,-0.65 -1.7,-0.6 -0.8,0.05 -2.1,1.15 -1.8,1.65 -3.85,2.75 -1.9,1.05 -3.05,0.7 -1,-0.2 -2.2,-1.55 l -1.05,-0.65 -0.7,-1.1 -0.4,-0.25 q -1.75,1.6 -3.05,2.25 -1.9,0.9 -3.55,0.55 -1.05,-0.3 -2.65,-1.65 l -2.25,-1.8 q -0.75,-0.55 -1.15,-0.55 -0.6,0 -1.35,0.7 -1.85,1.55 -3.45,1.5 -1.4,-0.1 -3.05,-2 -1.9,-2.2 -2.95,-2.65 L -79.95,35 q -1.6,0.5 -2.55,-0.4 -0.65,-0.65 -0.9,-2.3 -0.7,-4.05 -0.8,-6.1 -0.1,-2.1 0.2,-6.4 1.6,-25.5 -0.85,-51.45 -0.2,-1.8 0,-2.85 0.2,-1.55 1.25,-2.35 0.65,-0.55 2.45,-0.9 l 23.45,-4.05 7.6,-1.25 6.15,-0.8 q 6,-0.4 13.1,1.7 5,1.45 12.6,4.8 3.75,1.65 5.9,3.05 1.75,1.25 2.2,2.3 0.35,0.85 0.35,2.05 l -0.3,2.15 q -0.3,2.5 0.1,6.75 0.5,4.85 0.4,6.7 -0.05,1.45 -0.45,4.15 l -0.45,4.15 0.05,4.1 0.3,4.05 q 0.4,5.05 0.15,15.15 l -0.4,15.35 q -0.1,2.65 -1.25,3.35 -1.4,0.8 -3.6,-0.6 l -1.7,-0.9 -1.85,-0.2 q -1.15,0.3 -2.5,2.3 -1.35,2 -2.75,2 -1.3,-0.05 -2.55,-1.95 l -1,-1.35 q -0.6,-0.75 -1.3,-1 -1.65,2 -2.95,2.95 -1.85,1.4 -3.7,1.2 M -48,-24.75 -48.15,-24.8 q -0.75,-0.25 -0.65,-0.9 0.05,-0.65 1.05,-1 l 4.15,-1 h 0.2 l 3.65,-0.4 4.4,-0.95 6.4,-0.65 6.65,-0.35 7.35,-0.8 0.7,-0.2 q -0.55,-0.5 -1.45,-0.95 l -6.1,-2.65 -8,-3.05 q -4.5,-1.45 -8.3,-1.75 -2.9,-0.2 -6.5,0.15 l -6.5,0.9 -8.6,1.4 -16.85,2.9 9.8,3.3 2.3,0.8 0.25,0.15 2.9,1.6 q 1.75,1.05 2.9,1.45 l 0.7,0.3 q 0.4,0.3 0.15,0.65 l -1.05,0.2 -1.85,-0.1 -1.1,-0.3 -0.65,-0.35 q -3.05,-1.25 -7.1,-2.4 l -7.25,-1.85 -4.15,-0.9 q 0.75,5.85 1,13.75 0.8,19 0.05,38.55 -0.3,5.85 0.4,8.7 0.8,-0.65 2,-0.5 1.05,0.15 2,0.8 l 1.55,1.45 1.5,1.6 0.95,0.5 q 0.45,0.05 1.15,-0.5 2.55,-1.7 4.35,-1.35 0.9,0.25 1.85,1 l 1.65,1.45 q 2.25,2 3.95,1.25 l 1.55,-1.25 q 0.9,-1 1.5,-1.25 l 1.25,-0.2 q 0.65,-8.9 0,-25.25 -0.65,-17.7 -0.2,-25.7 0.2,-2.85 0.7,-4.75 l 0.5,-1.5 q 0.5,0.2 0.6,1.35 v 0.25 l -0.4,6.95 0.25,4.8 q 1.65,17.5 2.05,26.3 0.3,6.85 0.4,20.3 l 0.15,0.15 q 0.95,0.75 1.45,0.75 0.55,0.05 1.2,-0.35 l 2.6,-2.1 q 1.6,-1.35 2.8,-1.6 2.15,-0.45 5.35,1.6 l 1.55,0.55 1,-0.55 2.05,-2.2 q 1.25,-1.2 2.45,-1.5 1.65,-0.3 3.25,0.95 1.05,0.8 2.4,2.55 1.55,-2.65 4.2,-3.5 l 2.75,-0.2 q 1.45,0.2 2.5,1.1 0.75,-1.55 0.85,-5.05 0.45,-14.7 -0.05,-22 l -0.45,-6.1 q -0.2,-3.55 0.05,-6.15 l 0.65,-5.45 q 0.15,-2.1 -0.25,-6.95 -0.4,-4.45 -0.15,-6.9 h -0.95 l -2.5,0.45 -3.35,0.2 -7.45,0.25 -6.7,0.45 -4.7,1 -7.5,0.7 -1.1,-0.05 m 11.15,18.2 -1.6,-0.25 q -1,-0.25 -1.1,-1.05 -0.55,0.25 -2.2,0.75 l -2.05,0.9 -0.95,1 -1.2,2.45 q -0.3,1 -0.2,2.2 l 0.15,2.1 q 0.35,2.4 1.15,4.55 l 0.3,0.65 1,0.8 1.6,0.4 q 3.2,0.25 5.85,-1.15 1,-0.5 1.45,-1.05 0.65,-0.65 1.15,-2.4 0.65,-2.1 0.7,-3.2 0.05,-1.25 -0.35,-2.55 l -0.75,-1.6 -1,-1.3 q -1,-1 -1.95,-1.25 m -12.75,6.35 0.35,-3 0.95,-2 q 1.65,-2.7 3.7,-3.7 l 2.2,-0.7 2.3,-0.4 2.15,0.3 2.2,0.3 q 1.4,0.45 2.6,1.65 1.05,1.15 1.8,2.6 1.15,2.35 1.25,5.15 0,3 -1.2,5.65 -0.65,1.5 -1.6,2.55 -1.65,1.65 -4.45,2.35 l -5.6,0.3 -2.2,-0.5 q -1.55,-0.65 -2.4,-2 l -1.15,-2.6 -0.75,-3.3 -0.15,-2.65 m 25.5,-4.95 -0.3,1.55 -0.3,2 -0.15,1.5 0.15,1.2 0.6,1.8 0.9,1.45 0.55,0.85 1.7,0.95 1.3,0.35 1.35,-0.35 q 0.55,-0.4 0.75,-1.4 l 0.1,-1.55 0.35,-1.8 v -2.05 -1.6 q 0.05,-0.95 -0.05,-1.6 l -0.3,-1.2 -0.3,-1.4 q -0.35,-0.6 -1.35,-0.9 l -1.65,-0.15 -0.9,-0.05 -0.75,0.35 q -1.25,0.9 -1.7,2.05 m 9.7,5.2 q 0,1.8 -0.15,2.7 l -0.3,1.45 -0.05,1.75 q -0.2,1.15 -1,2.1 -0.75,1 -1.9,1.4 l -1.9,0.35 -2.75,-0.25 q -1.2,-0.4 -2.25,-1.25 l -1.7,-2 q -1.2,-1.65 -1.6,-2.9 -0.5,-1.6 -0.4,-3.85 0.1,-3.05 1.05,-5.2 1.1,-2.75 3.25,-4.15 1.05,-0.7 2.3,-0.9 l 1.95,0.05 2.9,0.85 q 1,0.6 1.55,1.65 l 0.5,1.35 0.2,1.05 q 0.4,1.95 0.3,5.8"
         fill="#000000"
         fill-rule="evenodd"
         stroke="none"
         id="path1" />
      <path
         d="m -61.55,-26.05 1.1,0.3 1.85,0.1 1.05,-0.2 q 0.25,-0.35 -0.15,-0.65 l -0.7,-0.3 q -1.15,-0.4 -2.9,-1.45 l -2.9,-1.6 -0.25,-0.15 -2.3,-0.8 -9.8,-3.3 16.85,-2.9 8.6,-1.4 6.5,-0.9 q 3.6,-0.35 6.5,-0.15 3.8,0.3 8.3,1.75 l 8,3.05 6.1,2.65 q 0.9,0.45 1.45,0.95 l -0.7,0.2 -7.35,0.8 -6.65,0.35 -6.4,0.65 -4.4,0.95 -3.65,0.4 h -0.2 l -4.15,1 q -1,0.35 -1.05,1 -0.1,0.65 0.65,0.9 l 0.15,0.05 -3.1,0.9 -1.3,0.45 q -0.1,-1.15 -0.6,-1.35 l -0.5,1.5 -1.65,-0.4 -4.8,-1.75 -1.6,-0.65"
         fill="#aa9e89"
         fill-rule="evenodd"
         stroke="none"
         id="path2" />
      <path
         d="m -61.55,-26.05 1.6,0.65 4.8,1.75 1.65,0.4 q -0.5,1.9 -0.7,4.75 -0.45,8 0.2,25.7 0.65,16.35 0,25.25 l -1.25,0.2 q -0.6,0.25 -1.5,1.25 l -1.55,1.25 Q -60,35.9 -62.25,33.9 l -1.65,-1.45 q -0.95,-0.75 -1.85,-1 -1.8,-0.35 -4.35,1.35 -0.7,0.55 -1.15,0.5 l -0.95,-0.5 -1.5,-1.6 -1.55,-1.45 q -0.95,-0.65 -2,-0.8 -1.2,-0.15 -2,0.5 -0.7,-2.85 -0.4,-8.7 0.75,-19.55 -0.05,-38.55 -0.25,-7.9 -1,-13.75 l 4.15,0.9 7.25,1.85 q 4.05,1.15 7.1,2.4 l 0.65,0.35"
         fill="#887e6d"
         fill-rule="evenodd"
         stroke="none"
         id="path3" />
      <path
         d="m -52.4,-23.4 1.3,-0.45 3.1,-0.9 1.1,0.05 7.5,-0.7 4.7,-1 6.7,-0.45 7.45,-0.25 3.35,-0.2 2.5,-0.45 h 0.95 q -0.25,2.45 0.15,6.9 0.4,4.85 0.25,6.95 L -14,-8.45 q -0.25,2.6 -0.05,6.15 l 0.45,6.1 q 0.5,7.3 0.05,22 -0.1,3.5 -0.85,5.05 -1.05,-0.9 -2.5,-1.1 l -2.75,0.2 q -2.65,0.85 -4.2,3.5 -1.35,-1.75 -2.4,-2.55 -1.6,-1.25 -3.25,-0.95 -1.2,0.3 -2.45,1.5 l -2.05,2.2 -1,0.55 -1.55,-0.55 q -3.2,-2.05 -5.35,-1.6 -1.2,0.25 -2.8,1.6 l -2.6,2.1 q -0.65,0.4 -1.2,0.35 -0.5,0 -1.45,-0.75 L -50.1,35.2 q -0.1,-13.45 -0.4,-20.3 -0.4,-8.8 -2.05,-26.3 l -0.25,-4.8 0.4,-6.95 v -0.25 m 2.8,23.2 0.15,2.65 0.75,3.3 1.15,2.6 q 0.85,1.35 2.4,2 l 2.2,0.5 5.6,-0.3 q 2.8,-0.7 4.45,-2.35 0.95,-1.05 1.6,-2.55 1.2,-2.65 1.2,-5.65 -0.1,-2.8 -1.25,-5.15 -0.75,-1.45 -1.8,-2.6 -1.2,-1.2 -2.6,-1.65 l -2.2,-0.3 -2.15,-0.3 -2.3,0.4 -2.2,0.7 q -2.05,1 -3.7,3.7 l -0.95,2 -0.35,3 m 35.2,0.25 q 0.1,-3.85 -0.3,-5.8 l -0.2,-1.05 -0.5,-1.35 q -0.55,-1.05 -1.55,-1.65 l -2.9,-0.85 -1.95,-0.05 q -1.25,0.2 -2.3,0.9 -2.15,1.4 -3.25,4.15 -0.95,2.15 -1.05,5.2 -0.1,2.25 0.4,3.85 0.4,1.25 1.6,2.9 l 1.7,2 q 1.05,0.85 2.25,1.25 l 2.75,0.25 1.9,-0.35 q 1.15,-0.4 1.9,-1.4 0.8,-0.95 1,-2.1 l 0.05,-1.75 0.3,-1.45 q 0.15,-0.9 0.15,-2.7"
         fill="#736a5a"
         fill-rule="evenodd"
         stroke="none"
         id="path4" />
      <path
         d="m -36.85,-6.55 q 0.95,0.25 1.95,1.25 l 1,1.3 0.75,1.6 q 0.4,1.3 0.35,2.55 -0.05,1.1 -0.7,3.2 -0.5,1.75 -1.15,2.4 -0.45,0.55 -1.45,1.05 -2.65,1.4 -5.85,1.15 l -1.6,-0.4 -1,-0.8 -0.3,-0.65 Q -45.65,3.95 -46,1.55 l -0.15,-2.1 q -0.1,-1.2 0.2,-2.2 l 1.2,-2.45 0.95,-1 2.05,-0.9 q 1.65,-0.5 2.2,-0.75 0.1,0.8 1.1,1.05 l 1.6,0.25 m 12.75,1.4 q 0.45,-1.15 1.7,-2.05 l 0.75,-0.35 0.9,0.05 1.65,0.15 q 1,0.3 1.35,0.9 l 0.3,1.4 0.3,1.2 q 0.1,0.65 0.05,1.6 v 1.6 2.05 l -0.35,1.8 -0.1,1.55 q -0.2,1 -0.75,1.4 l -1.35,0.35 -1.3,-0.35 -1.7,-0.95 -0.55,-0.85 -0.9,-1.45 -0.6,-1.8 -0.15,-1.2 0.15,-1.5 0.3,-2 0.3,-1.55"
         fill="#47423a"
         fill-rule="evenodd"
         stroke="none"
         id="path5" />
    </g>
    <g
       id="sprite1"
       transform="translate(17.4,15.85)">
      <use
         ffdec:characterId="31"
         height="57.200001"
         transform="matrix(0.5366,0,0,0.5366,-16.6582,-14.546)"
         width="70.75"
         xlink:href="#sprite2"
         id="use5" />
    </g>
    <g
       id="sprite2"
       transform="translate(-8.65,-10.35)">
      <use
         ffdec:characterId="30"
         height="57.200001"
         transform="translate(8.65,10.35)"
         width="70.75"
         xlink:href="#shape1"
         id="use6" />
    </g>
    <g
       id="shape1"
       transform="translate(-8.65,-10.35)">
      <path
         d="m 14.8,41.7 q 0.65,-1.75 2.65,-2.5 1.8,-0.8 3.7,-0.25 1.15,0.45 2.25,1.2 l 0.9,0.4 q 1.65,0.9 2.85,2.5 L 37.8,30.1 q 2.35,-2.8 3.75,-3.95 1.5,-1.15 4.25,-2.4 18.2,-8.85 27.65,-12.6 2.15,-0.8 3.25,-0.8 h 0.8 l 1.9,2.4 -0.2,0.8 q -0.2,1.1 -1.55,3 -5.85,8.25 -18.85,23.8 -1.85,2.35 -3.35,3.5 -1.4,1.15 -4.75,2.75 l -15.15,7.15 q 1.2,1.6 1.75,3.4 l 0.2,1 0.55,2.5 q 0.1,1.95 -1.1,3.55 -1.2,1.65 -3.05,1.9 l -1.3,0.05 q -1.65,0.2 -3.45,-0.65 -1.85,-0.9 -3,-2.6 L 25,60.95 23.8,62.1 q -2.6,2.85 -4.3,3.95 -2.85,1.8 -5.5,1.45 l -1.65,-0.5 -1.2,-0.7 -0.2,-0.2 q -1,-0.85 -1.6,-1.9 L 9.25,64 9.15,63.8 8.75,62.4 q -0.2,-0.8 -0.05,-1.7 0.25,-2.65 2.7,-5.05 1.5,-1.3 4.9,-3.15 L 17.7,51.55 16.05,50 q -1.35,-1.5 -1.8,-3.6 -0.4,-1.85 0.25,-3.45 l 0.3,-1.25"
         fill="#000000"
         fill-opacity="0.372549"
         fill-rule="evenodd"
         stroke="none"
         id="path6" />
    </g>
  </defs>
</svg>
