<?xml version="1.0" encoding="UTF-8" standalone="no"?>
<svg
   ffdec:objectType="frame"
   height="64.279068"
   width="85.390121"
   version="1.1"
   id="svg6"
   xmlns:xlink="http://www.w3.org/1999/xlink"
   xmlns="http://www.w3.org/2000/svg"
   xmlns:svg="http://www.w3.org/2000/svg"
   xmlns:ffdec="https://www.free-decompiler.com/flash">
  <g
     transform="translate(43.745122,30.331098)"
     id="g1">
    <use
       ffdec:characterId="17"
       height="119.15"
       id="rarity"
       transform="translate(-58.5,-60.65)"
       width="119.15"
       xlink:href="#sprite0" />
    <use
       ffdec:characterId="171"
       height="64.300003"
       transform="translate(-43.75,-30.35)"
       width="85.400002"
       xlink:href="#shape0"
       id="use1" />
  </g>
  <defs
     id="defs6">
    <g
       id="shape0"
       transform="translate(43.45,32.85)">
      <path
         d="m -15.5,29.55 q -4.5,-1.5 -7.2,-3.5 l -1.6,-1.3 -1.8,0.2 q -4.25,0.15 -8,-1.45 -4.05,-1.7 -6.25,-4.95 -2.2,-3.2 -2.8,-8.5 -1.1,-8.7 1.9,-17.25 3,-8.55 9.25,-14.7 6.25,-6.1 14.9,-8.95 8.6,-2.85 17.25,-1.6 5.8,0.85 9.8,3.25 l 7.05,0.85 q 7.45,1.65 12.95,6.05 5.8,4.6 8.5,11.6 l 0.5,1.4 q 1.6,2.4 2.45,5.8 l 0.5,3.3 q 0.15,2.4 -0.2,4.1 l -0.7,2.05 -0.05,1.1 0.05,2.2 -0.05,2.2 q -0.15,1.2 -1.35,4 l -1.25,2.45 -2.05,2.3 q -6.05,5.25 -12.8,5.2 -4.55,-0.1 -6.75,-2.75 L 15.9,21.35 13.75,24.1 Q 11.2,26.95 7.5,28.8 4,30.6 0,31.15 -7.25,32.2 -15.5,29.55 m -8.35,-17.1 0.5,1.5 q 1.7,4.65 4.05,6.7 1.45,1.25 4.15,2.35 6.55,2.7 12.05,2.65 Q 3.85,25.5 8.35,21.5 l 2.75,-3.05 2.45,-3.4 q 5.9,-7.9 12.4,-8.3 L 30.1,6.8 q 2.45,0 3.75,-1 1.95,-1.45 2.05,-4.4 0.05,-1.7 -0.85,-4.9 l -1.85,-5.6 -0.55,-1.2 -2.35,-3.9 q -2,-2.45 -5.05,-4.3 -2.85,-1.7 -6.6,-2.9 -5.5,-1.65 -10.15,-1.6 -5.4,0.05 -10.7,2.15 -5.1,2.05 -9.35,5.75 -7.9,6.9 -11.85,18.2 L -24.15,6 q -0.45,1.95 -0.35,3.3 0.05,1.3 0.65,3.15 m 4.65,-28.85 2.6,-2.65 0.15,-0.1 q 4.65,-4.4 9.45,-6.7 l 4.5,-1.7 h -2.95 q -7.6,0.3 -14,3.55 l -0.3,0.15 -2.75,1.55 -2.75,2 -0.95,0.8 q -5.05,4.3 -8.15,10.55 -3.75,7.45 -3.55,15.35 l 0.05,1.4 0.05,0.65 0.5,2.9 q 0.55,2.4 1.6,3.9 1.5,2.2 4.25,3.35 1.55,0.65 3.25,0.9 l -1.15,-2.65 Q -30.7,13.2 -30.8,9.35 v -1.9 l 0.2,-2.1 0.55,-3.05 0.55,-1.9 q 0.75,-2.55 2,-5.1 l 1.05,-1.95 1,-1.7 0.3,-0.5 0.1,-0.15 1.35,-1.95 2.3,-3 1.05,-1.25 1.15,-1.2 m 52.65,28.85 -4.3,0.25 -4.25,0.35 q -3.3,0.9 -6.3,4.7 l -0.2,0.3 1.45,1.25 q 1.55,1.2 3.9,1.1 1.75,-0.05 4,-1.05 6.05,-2.55 7.65,-7.3 l 0.1,-0.2 -2.05,0.6"
         fill="#000000"
         fill-rule="evenodd"
         stroke="none"
         id="path1" />
      <path
         d="m -4.4,-11 q 2.6,-0.1 4.15,-1.2 0.9,-0.65 1.4,-1.6 0.55,-1.05 0.4,-2.1 l -0.5,-1.15 q -0.6,-0.65 -1.8,-0.75 -2.35,-0.2 -4.75,1.35 -1.5,0.95 -1.95,2.05 -0.3,0.65 -0.25,1.4 0.1,0.8 0.55,1.3 0.9,0.9 2.75,0.7 m 16.8,-4.6 q 0.4,0.4 1.05,0.45 0.6,0.05 1.1,-0.25 l 0.75,-0.9 q 0.2,-0.55 0.05,-1.15 -0.35,-1.25 -1.7,-1.35 l -0.2,0.05 q -1.05,-0.1 -1.5,1.1 -0.45,1.15 0.45,2.05 m 20.25,5.3 -0.2,1.4 -1.2,3.9 q -1.15,3 -2.35,4.05 -1.5,1.3 -4,1.4 -3.55,0 -5.7,-2.1 -1.15,-1.05 -1.7,-2.55 l -0.2,-0.65 -0.15,4 Q 16.7,2.7 14.95,4.9 13.45,6.75 11.05,7.55 L 6.3,7.75 Q 3.95,7.1 2.35,5.2 0.7,3.25 0.45,0.85 l -0.15,-1.3 -0.45,-1.2 q -1.1,-1.4 -4.05,-0.3 L -6,-1 -6.5,-0.15 q -0.15,0.55 0.1,1 0.3,0.6 1.4,0.9 2.85,0.95 3.8,1.45 2,1 2.85,2.5 0.95,1.65 0.6,4.05 -0.55,3.4 -3.2,5.5 -2.5,1.95 -7.4,2.6 l -7.3,-0.25 q -2.4,-0.65 -5.3,-2.65 -1.85,-1.25 -2.9,-2.5 -0.6,-1.85 -0.65,-3.15 -0.1,-1.35 0.35,-3.3 l 0.75,-2.9 q 3.95,-11.3 11.85,-18.2 4.25,-3.7 9.35,-5.75 5.3,-2.1 10.7,-2.15 4.65,-0.05 10.15,1.6 3.75,1.2 6.6,2.9 3.05,1.85 5.05,4.3 l 2.35,3.9 m -57.9,-10 2.75,-2 2.75,-1.55 0.3,-0.15 q 6.4,-3.25 14,-3.55 h 2.95 l -4.5,1.7 q -4.8,2.3 -9.45,6.7 l -0.15,0.1 -2.6,2.65 -0.6,-1 -0.45,-1.65 q -0.25,-1 -0.7,-1.5 l -0.3,0.15 q -1,1.5 -0.6,3.2 l 0.45,1.5 v 1.6 0.15 l -2.3,3 -1.35,1.95 -0.1,0.15 -0.3,0.5 -1,1.7 -1.05,1.95 -1.25,0.1 q -1.2,1.45 -1.25,2.75 -0.1,0.9 0.5,2.25 l -0.55,1.9 -0.55,3.05 -0.2,2.1 v 1.9 q -2,2.25 -4.7,2.4 L -36.95,11.5 -37.3,11.35 -37.8,8.45 -37.85,7.8 -37.9,6.4 q -0.2,-7.9 3.55,-15.35 3.1,-6.25 8.15,-10.55 l 0.9,0.1 v -0.25 l 0.05,-0.65 m -2.7,10.75 1.55,-1.05 q 1.3,-1.2 1.4,-2 0.15,-0.85 -0.45,-1.55 -0.65,-0.65 -1.55,-0.5 -0.85,0.1 -2.1,1.35 l -1.05,1.05 q -0.5,0.65 -0.5,1.4 0.1,0.95 0.9,1.35 l 0.15,0.1 h -0.05 l -0.4,0.5 -0.2,0.75 0.25,0.65 0.5,0.45 q 0.8,0.45 1.35,-0.3 0.55,-0.55 0.25,-1.4 l -0.35,-0.5 -0.15,-0.1 0.45,-0.2 M -33.3,1 -33.7,0.55 -34.95,0.4 q -0.7,0.5 -0.65,1.1 l 0.4,0.75 q 0.6,0.6 1.1,0.55 0.55,0 0.8,-0.5 0.25,-0.4 0.15,-0.95 L -33.3,1 m 16.4,5.35 1.8,-0.05 q 2.3,-0.1 3.55,-1.15 0.75,-0.65 1,-1.65 0.2,-1 -0.25,-1.8 -0.75,-1.15 -2.65,-1.35 -1.45,-0.05 -4.15,0.75 -1.7,0.6 -2.45,1.1 -1.3,0.9 -1.35,2.2 -0.05,0.9 0.6,1.65 0.65,0.7 1.55,0.75 l 1.2,-0.15 1.15,-0.3"
         fill="#ffeeee"
         fill-rule="evenodd"
         stroke="none"
         id="path2" />
      <path
         d="m -23.85,12.45 q 1.05,1.25 2.9,2.5 2.9,2 5.3,2.65 l 7.3,0.25 q 4.9,-0.65 7.4,-2.6 2.65,-2.1 3.2,-5.5 Q 2.6,7.35 1.65,5.7 0.8,4.2 -1.2,3.2 -2.15,2.7 -5,1.75 -6.1,1.45 -6.4,0.85 -6.65,0.4 -6.5,-0.15 L -6,-1 -4.2,-1.95 q 2.95,-1.1 4.05,0.3 l 0.45,1.2 0.15,1.3 q 0.25,2.4 1.9,4.35 1.6,1.9 3.95,2.55 l 4.75,-0.2 q 2.4,-0.8 3.9,-2.65 1.75,-2.2 2.2,-5.75 l 0.15,-4 0.2,0.65 q 0.55,1.5 1.7,2.55 2.15,2.1 5.7,2.1 2.5,-0.1 4,-1.4 Q 30.1,-2 31.25,-5 l 1.2,-3.9 0.2,-1.4 0.55,1.2 1.85,5.6 q 0.9,3.2 0.85,4.9 -0.1,2.95 -2.05,4.4 -1.3,1 -3.75,1 L 25.95,6.75 q -6.5,0.4 -12.4,8.3 l -2.45,3.4 -2.75,3.05 q -4.5,4 -11.45,4.15 -5.5,0.05 -12.05,-2.65 -2.7,-1.1 -4.15,-2.35 -2.35,-2.05 -4.05,-6.7 l -0.5,-1.5 m -13.45,-1.1 0.35,0.15 1.45,0.25 q 2.7,-0.15 4.7,-2.4 0.1,3.85 1.45,7.5 l 1.15,2.65 q -1.7,-0.25 -3.25,-0.9 -2.75,-1.15 -4.25,-3.35 -1.05,-1.5 -1.6,-3.9 m 15.9,-25.3 v -0.15 -1.6 l -0.45,-1.5 q -0.4,-1.7 0.6,-3.2 l 0.3,-0.15 q 0.45,0.5 0.7,1.5 l 0.45,1.65 0.6,1 -1.15,1.2 -1.05,1.25"
         fill="#dfcece"
         fill-rule="evenodd"
         stroke="none"
         id="path3" />
      <path
         d="m 33.45,12.45 2.05,-0.6 -0.1,0.2 q -1.6,4.75 -7.65,7.3 -2.25,1 -4,1.05 -2.35,0.1 -3.9,-1.1 l -1.45,-1.25 0.2,-0.3 q 3,-3.8 6.3,-4.7 l 4.25,-0.35 4.3,-0.25"
         fill="#bcabab"
         fill-rule="evenodd"
         stroke="none"
         id="path4" />
      <path
         d="m 12.4,-15.6 q -0.9,-0.9 -0.45,-2.05 0.45,-1.2 1.5,-1.1 l 0.2,-0.05 q 1.35,0.1 1.7,1.35 0.15,0.6 -0.05,1.15 l -0.75,0.9 q -0.5,0.3 -1.1,0.25 Q 12.8,-15.2 12.4,-15.6 M -4.4,-11 q -1.85,0.2 -2.75,-0.7 -0.45,-0.5 -0.55,-1.3 -0.05,-0.75 0.25,-1.4 0.45,-1.1 1.95,-2.05 2.4,-1.55 4.75,-1.35 1.2,0.1 1.8,0.75 l 0.5,1.15 q 0.15,1.05 -0.4,2.1 -0.5,0.95 -1.4,1.6 -1.55,1.1 -4.15,1.2 m -23.55,1.45 -0.45,0.2 0.15,0.1 0.35,0.5 q 0.3,0.85 -0.25,1.4 -0.55,0.75 -1.35,0.3 l -0.5,-0.45 -0.25,-0.65 0.2,-0.75 0.4,-0.5 h 0.05 l -0.15,-0.1 q -0.8,-0.4 -0.9,-1.35 0,-0.75 0.5,-1.4 l 1.05,-1.05 q 1.25,-1.25 2.1,-1.35 0.9,-0.15 1.55,0.5 0.6,0.7 0.45,1.55 -0.1,0.8 -1.4,2 l -1.55,1.05 m 11.05,15.9 -1.15,0.3 -1.2,0.15 q -0.9,-0.05 -1.55,-0.75 -0.65,-0.75 -0.6,-1.65 0.05,-1.3 1.35,-2.2 0.75,-0.5 2.45,-1.1 2.7,-0.8 4.15,-0.75 1.9,0.2 2.65,1.35 0.45,0.8 0.25,1.8 -0.25,1 -1,1.65 -1.25,1.05 -3.55,1.15 l -1.8,0.05 M -33.3,1 l 0.15,0.35 q 0.1,0.55 -0.15,0.95 -0.25,0.5 -0.8,0.5 -0.5,0.05 -1.1,-0.55 L -35.6,1.5 q -0.05,-0.6 0.65,-1.1 l 1.25,0.15 0.4,0.45"
         fill="#ffffff"
         fill-rule="evenodd"
         stroke="none"
         id="path5" />
    </g>
    <g
       id="sprite1"
       transform="translate(17.4,15.85)">
      <use
         ffdec:characterId="31"
         height="57.200001"
         transform="matrix(0.5366,0,0,0.5366,-16.6582,-14.546)"
         width="70.75"
         xlink:href="#sprite2"
         id="use5" />
    </g>
    <g
       id="sprite2"
       transform="translate(-8.65,-10.35)">
      <use
         ffdec:characterId="30"
         height="57.200001"
         transform="translate(8.65,10.35)"
         width="70.75"
         xlink:href="#shape1"
         id="use6" />
    </g>
    <g
       id="shape1"
       transform="translate(-8.65,-10.35)">
      <path
         d="m 14.8,41.7 q 0.65,-1.75 2.65,-2.5 1.8,-0.8 3.7,-0.25 1.15,0.45 2.25,1.2 l 0.9,0.4 q 1.65,0.9 2.85,2.5 L 37.8,30.1 q 2.35,-2.8 3.75,-3.95 1.5,-1.15 4.25,-2.4 18.2,-8.85 27.65,-12.6 2.15,-0.8 3.25,-0.8 h 0.8 l 1.9,2.4 -0.2,0.8 q -0.2,1.1 -1.55,3 -5.85,8.25 -18.85,23.8 -1.85,2.35 -3.35,3.5 -1.4,1.15 -4.75,2.75 l -15.15,7.15 q 1.2,1.6 1.75,3.4 l 0.2,1 0.55,2.5 q 0.1,1.95 -1.1,3.55 -1.2,1.65 -3.05,1.9 l -1.3,0.05 q -1.65,0.2 -3.45,-0.65 -1.85,-0.9 -3,-2.6 L 25,60.95 23.8,62.1 q -2.6,2.85 -4.3,3.95 -2.85,1.8 -5.5,1.45 l -1.65,-0.5 -1.2,-0.7 -0.2,-0.2 q -1,-0.85 -1.6,-1.9 L 9.25,64 9.15,63.8 8.75,62.4 q -0.2,-0.8 -0.05,-1.7 0.25,-2.65 2.7,-5.05 1.5,-1.3 4.9,-3.15 L 17.7,51.55 16.05,50 q -1.35,-1.5 -1.8,-3.6 -0.4,-1.85 0.25,-3.45 l 0.3,-1.25"
         fill="#000000"
         fill-opacity="0.372549"
         fill-rule="evenodd"
         stroke="none"
         id="path6" />
    </g>
  </defs>
</svg>
