<?xml version="1.0" encoding="UTF-8" standalone="no"?>
<svg
   ffdec:objectType="frame"
   height="81.774506"
   width="89.05246"
   version="1.1"
   id="svg6"
   xmlns:xlink="http://www.w3.org/1999/xlink"
   xmlns="http://www.w3.org/2000/svg"
   xmlns:svg="http://www.w3.org/2000/svg"
   xmlns:ffdec="https://www.free-decompiler.com/flash">
  <g
     transform="translate(48.961765,42.858)"
     id="g1">
    <use
       ffdec:characterId="17"
       height="119.15"
       id="rarity"
       transform="translate(-58.5,-60.65)"
       width="119.15"
       xlink:href="#sprite0" />
    <use
       ffdec:characterId="1323"
       height="81.75"
       transform="translate(-48.95,-42.85)"
       width="89.050003"
       xlink:href="#shape0"
       id="use1" />
  </g>
  <defs
     id="defs6">
    <g
       id="shape0"
       transform="translate(47.65,40.95)">
      <path
         d="m 20.9,35.95 -5.2,2.35 q -9.6,3.6 -18.9,2.05 l -6.7,-1.7 q -4.75,-1.45 -7.55,-2.8 l -5.85,-3.5 -5.45,-3.95 q -2.8,-2.45 -3.9,-5.25 -0.7,-1.85 -1.1,-5.9 -0.6,-6.4 -0.6,-9.65 l 0.05,-1.45 -1.3,0.95 q -1.15,0.9 -2.25,1.45 l -3.05,1.2 -3,0.95 -3.1,-0.15 Q -47.75,9.9 -47.65,8.7 l 0.5,-1.9 1.8,-4.65 q 2.55,-6.4 4,-8.85 2.65,-4.45 6.1,-6.7 -0.1,-1.1 0.2,-2.75 0.9,-4.6 3.75,-6.7 l 1.2,-1 0.55,-1.25 q 0.8,-2.1 2.85,-3.5 2,-1.3 4.3,-1.4 h 0.25 v -0.05 q 0.25,-1.4 1.55,-3.4 l 1.9,-2.6 3.55,-3.85 q 1.25,-1.15 2.05,-1.05 0.7,0.15 1.2,0.8 l 0.6,1.3 q 1.2,3.3 1.5,5.3 0.2,1.8 0.05,3.95 l -0.15,1.75 4.85,-1.05 q 4.6,-0.7 12.1,0.05 5.4,0.55 8.8,1.5 2.95,0.8 5.75,2.25 2.55,1.3 7.25,4.6 l 3.65,2.55 q 5.4,3.95 6.85,7.65 l 0.85,3.25 q 1.6,8.55 1.05,17.25 l -0.45,4.25 q -1.45,6.8 -8.95,13.65 -4.75,4.35 -9.9,7.25 l -1.05,0.6 m -37.05,-63.7 1.4,1.4 1,-0.35 q 0.55,-1.05 0.55,-2.75 0.05,-2.35 -0.4,-4.85 -0.2,-0.9 -0.5,-1.2 l -1.5,1.65 q -1.25,1.6 -1.9,3.45 l -0.45,1.35 v 0.1 l 0.3,0.2 1.5,1 m -9.1,5.75 q -0.45,0.85 -1.55,1.8 l -0.05,0.05 -0.95,0.8 -1,0.95 -0.05,0.05 -0.85,1.45 -0.5,1.45 q -0.25,0.7 -0.15,1.4 l 0.05,0.25 1.5,-2.4 1.05,-1.4 0.95,-1.05 0.75,-0.8 1.75,-1.65 0.5,-0.45 1.05,-0.85 2.55,-1.75 0.45,-0.25 q -1.6,-0.75 -3.25,-0.45 -1.15,0.2 -1.6,0.9 l -0.25,0.75 -0.05,0.05 -0.25,0.85 -0.1,0.3 m -8,19.3 0.9,-4.6 0.2,-0.95 -0.85,-0.8 -0.75,-0.85 -0.3,0.2 -2.6,3.25 -0.55,0.9 -1.2,2.1 h -0.05 l -0.25,0.6 -0.85,2 -0.1,0.3 -0.05,0.1 -2.25,6 2.4,-0.9 1.8,-1.2 0.5,-0.4 0.2,-0.15 0.8,-0.75 0.75,-0.65 q 0.55,-0.55 1.05,-0.95 l 0.8,-0.75 0.2,-1.2 0.2,-1.3 m 9.55,-3.25 q -0.2,2.35 0.1,7.1 l 0.65,3.85 1.85,2.9 q 3,3.8 5.9,5.3 2.4,1.3 6.05,1.65 l 6.4,0.3 5.7,0.35 5.6,-0.4 q 2.9,-0.6 6.6,-2.55 2.8,-1.5 7.4,-4.55 L 23.7,7.25 q 0.45,-1.8 -0.85,-5 -2.75,-6.55 -6,-9.85 l -3.45,-3 q -4.8,-3.55 -10.1,-5.3 -5.7,-1.9 -11.2,-1.45 l -6.05,1.1 q -5.25,1.6 -7.5,4.4 l -1.7,2.4 v 0.05 l -0.55,3.45 M -26.9,6.9 q -0.6,-1.55 -0.85,-3.5 l -0.2,-5.4 0.05,-2.65 -0.3,1.55 q -0.85,5.1 -0.95,8.3 v 2.2 l 0.25,0.65 1.8,4.9 1.3,3.65 q 0.85,1.75 1.9,2.95 l 0.1,0.1 1,1.15 0.2,0.2 1.2,1.5 0.75,1.1 0.5,0.85 v 0.5 l -0.35,0.3 -0.85,-0.35 -2.8,-2.45 -0.1,-0.05 -2.25,-2 -1.35,-1.3 -0.05,-0.05 -0.2,-0.25 0.1,0.5 0.6,2.15 q 0.65,1.45 2.5,3.1 l 0.25,0.2 1.6,1.3 q 2.95,2.25 6.4,4.05 l 0.45,0.25 1.7,0.8 3.3,1.35 0.1,0.05 1.9,0.65 4.35,1.25 1.15,0.25 0.65,0.15 3.5,0.55 5.35,-0.15 3.05,-0.55 4.15,-1.2 2.45,-0.85 3.2,-1.4 1.9,-1.05 0.85,-0.5 1.05,-0.65 1.15,-0.8 4.25,-3.45 0.55,-0.5 1.95,-1.8 1.2,-1.2 1.65,-1.95 0.7,-1.1 1.15,-2.3 q 0.8,-2.15 1.1,-4.75 L 36.3,9.7 36.35,9.1 V 4.8 L 36.3,3.7 V 3.15 L 35.95,-1 v -0.4 l -0.25,-2.25 -0.2,0.5 -0.7,1.55 v 0.05 l -1.05,2 -1.2,2.2 -1.8,3.3 -0.1,0.1 -0.65,1.25 -1.15,1.6 -0.4,0.5 -2.3,1.85 -0.85,0.5 -0.55,0.4 -2.2,1.45 q -3.75,2.4 -6.25,3.6 -2.1,1.05 -4.1,1.75 l -1.3,0.4 -0.85,0.25 -3.65,0.6 -1.35,0.1 H 3.1 L 1.45,20.2 0.95,20.15 -1.15,20 -3.6,19.8 -4.55,19.75 H -6.7 -7.3 -8 l -0.8,-0.05 -1.25,-0.1 -1.2,-0.15 -2.5,-0.6 -0.55,-0.15 -3.1,-1.35 -1.3,-0.8 L -20.4,15.3 -20.7,15 -21.75,14.05 -24,11.6 -24.05,11.5 -24.15,11.35 -26.2,8.5 -26.6,7.75 -26.9,6.9 m 26,-28.8 0.7,0.15 h 0.1 l 5.1,1.45 0.15,0.05 0.95,0.35 3,1.2 0.45,0.2 1.4,0.7 2.75,1.65 0.5,0.3 2,1.55 1.1,0.95 1.2,1.15 1.1,1.15 0.6,0.65 1.2,1.5 1.15,1.55 0.95,1.5 0.4,0.7 -0.25,-1.2 -0.5,-1.8 L 22,-11.3 21.7,-11.85 21.45,-12.3 20,-14.5 18.8,-16 l -0.15,-0.15 -0.3,-0.5 q -0.1,-0.5 0.25,-0.7 h 0.35 l 0.4,0.1 0.95,0.45 1.35,1 0.3,0.3 1.25,1.5 0.35,0.45 1,1.5 0.25,0.45 0.55,0.95 0.65,1.4 0.05,0.1 1.05,2.75 0.2,0.6 0.5,1.95 0.5,3.6 0.05,1.3 1.05,-1.8 0.55,-0.9 1.25,-2.45 q 0.85,-1.95 0.9,-3.65 L 31.95,-9.7 31.9,-10 l -0.15,-1.35 -0.05,-0.7 -0.85,-0.75 -1.15,-0.85 -1.25,-0.85 -2.2,-1.5 -1.15,-0.8 -1.65,-1.1 -0.25,-0.15 q -3.75,-2.4 -6,-3.3 l -0.15,-0.05 -0.4,-0.15 -5.15,-1.35 -1.85,-0.3 -2.4,-0.35 -1.85,-0.2 -0.75,-0.05 -4.75,-0.1 H -0.95 -1.1 q -5.05,0.3 -10.25,2.15 5.65,-0.95 10.45,-0.15"
         fill="#000000"
         fill-rule="evenodd"
         stroke="none"
         id="path1" />
      <path
         d="m -15.6,-33.85 1.5,-1.65 q 0.3,0.3 0.5,1.2 0.45,2.5 0.4,4.85 0,1.7 -0.55,2.75 l -1,0.35 -1.4,-1.4 q 0.65,-0.35 1.05,-1 0.3,-0.55 0.3,-1.5 0.2,-1.3 0,-2.15 -0.25,-0.95 -0.8,-1.45 m -9.65,11.85 0.5,0.25 0.95,0.2 -0.5,0.45 -1.75,1.65 -0.75,0.8 -1,-0.7 0.95,-0.8 0.05,-0.05 q 1.1,-0.95 1.55,-1.8 m -9.2,22.55 q -0.5,0.4 -1.05,0.95 l -0.75,0.65 -0.05,-0.1 q -0.4,-0.9 -1.6,-1.55 l -0.2,-0.1 q -0.3,-0.6 -1.05,-0.85 l -0.5,-0.1 0.1,-0.3 0.85,-2 0.85,0.15 1.25,1 0.8,0.9 0.4,0.55 0.55,0.4 0.4,0.4 m 10.3,10.8 0.1,0.15 0.05,0.1 2.25,2.45 -1.2,0.85 q -0.75,0.75 -0.95,1.8 -0.2,1.1 0.35,1.95 l 0.15,0.4 -0.25,0.4 -0.15,0.2 -0.1,-0.1 q -1.05,-1.2 -1.9,-2.95 l -1.3,-3.65 0.8,-0.9 q 0.9,-0.65 2.15,-0.7 m 20.55,8.45 2.45,0.2 2.1,0.15 0.5,0.05 Q 1.5,21 2.05,21.5 0.6,22.3 0.2,23.05 l -0.4,1.2 0.35,1.1 0.5,0.65 -0.2,0.55 -1.05,1.8 q -0.5,1.05 -0.3,1.9 0.2,0.85 1,1.4 0.8,0.55 1.65,0.4 0.25,1.25 1.35,2.05 1.15,0.8 2.4,0.55 l 0.3,0.6 -5.35,0.15 -3.5,-0.55 -0.65,-0.15 -1.15,-0.25 -0.25,-1.2 q 0,-0.75 0.4,-1.35 0.25,-0.4 0.2,-0.6 L -4.85,30.95 Q -5.5,30.4 -5.7,29.45 -5.85,28.5 -5.4,27.7 q -1,-0.75 -0.9,-1.95 0,-1.15 1.05,-1.85 l 0.5,-0.5 -0.05,-0.7 q -0.25,-1.15 0.5,-2 L -3.65,19.95 -3.6,19.8 M 28.45,9.4 28.85,8.9 30,7.3 30.65,6.05 30.75,5.95 H 31.3 Q 32.25,6.05 33,6.7 33.7,7.35 33.9,8.3 35.25,8 36.25,9 l 0.1,0.1 -0.05,0.6 -0.15,1.5 q -0.3,2.6 -1.1,4.75 L 34.9,15.8 q -0.65,-0.6 -1.45,-0.65 0.7,-1 0.45,-2.3 -0.3,-1.15 -1.45,-1.8 -0.55,-0.2 -0.8,-0.4 L 31.15,10.1 Q 30.4,9.4 29.55,9.35 L 28.45,9.4 M -24.9,24.55 q -1.85,-1.65 -2.5,-3.1 l -0.6,-2.15 0.15,-0.2 1.35,1.3 2.25,2 v 0.2 l -0.3,0.7 -0.35,1.25 M 5,-20.3 Q 4.9,-21 5.2,-21.65 4.55,-22.6 4.65,-23.8 l 0.75,0.05 1.85,0.2 2.4,0.35 0.05,0.7 q 0.25,1.15 0.8,1.9 0.5,0.75 1.15,1.05 l -0.8,0.25 q -0.85,0.25 -1.3,0.8 L 9.1,-18.7 6.1,-19.9 5.15,-20.25 5,-20.3 m 21.25,4.3 2.2,1.5 1.25,0.85 q -1,0.05 -2.15,0.65 -1.65,0.95 -2.2,2.35 l -0.55,-0.95 -0.25,-0.45 -1,-1.5 0.15,-0.1 0.45,-0.2 0.15,-0.45 q 0.1,-1.05 1.2,-1.5 l 0.75,-0.2 m -4.25,4.7 1.15,3.15 0.5,1.8 -0.1,0.4 -0.05,0.1 -0.95,-1.5 -1.15,-1.55 0.15,-1.25 0.3,-0.85 0.15,-0.3"
         fill="#5a6991"
         fill-rule="evenodd"
         stroke="none"
         id="path2" />
      <path
         d="m 21.95,35.35 -0.8,0.5 -0.25,0.1 1.05,-0.6 m -37.55,-69.2 q 0.55,0.5 0.8,1.45 0.2,0.85 0,2.15 0,0.95 -0.3,1.5 -0.4,0.65 -1.05,1 l -1.5,-1 -0.3,-0.2 v -0.1 l 0.45,-1.35 q 0.65,-1.85 1.9,-3.45 m -8.2,12.3 -0.95,-0.2 -0.5,-0.25 0.1,-0.3 0.25,-0.85 0.05,-0.05 0.25,-0.75 q 0.45,-0.7 1.6,-0.9 1.65,-0.3 3.25,0.45 l -0.45,0.25 -2.55,1.75 -1.05,0.85 m -12.45,23.7 -0.8,0.75 -0.2,0.15 -0.5,0.4 -1.8,1.2 -2.4,0.9 2.25,-6 0.05,-0.1 0.5,0.1 q 0.75,0.25 1.05,0.85 l 0.2,0.1 q 1.2,0.65 1.6,1.55 l 0.05,0.1 m 14.5,11.9 1.05,0.95 0.3,0.3 1.7,1.25 1.3,0.8 -0.95,0.3 q 0.5,0.85 0.3,1.9 -0.2,1.05 -1,1.65 0.5,0.8 0.4,1.75 -0.05,1 -0.65,1.7 l 0.4,0.75 0.4,0.75 1.2,0.75 0.45,0.35 q 0.5,0.45 0.7,1 v 0.7 l -0.25,0.75 -0.25,0.4 q -3.45,-1.8 -6.4,-4.05 l -1.6,-1.3 -0.25,-0.2 0.35,-1.25 0.3,-0.7 v -0.2 l 0.1,0.05 2.8,2.45 0.85,0.35 0.35,-0.3 v -0.5 l -0.5,-0.85 -0.75,-1.1 -1.2,-1.5 -0.2,-0.2 -1,-1.15 0.15,-0.2 0.25,-0.4 -0.15,-0.4 q -0.55,-0.85 -0.35,-1.95 0.2,-1.05 0.95,-1.8 l 1.2,-0.85 m 23.2,6.15 1.65,0.1 h 1.95 l 1.35,-0.1 3.65,-0.6 v 0.1 q 0,0.9 -1,1.45 l -1.75,0.4 q 0.15,0.9 -0.4,1.55 L 6.45,23.75 Q 6.3,24 6.4,24.65 L 6.15,26 6,26.65 l 0.4,0.3 q 0.9,0.55 1.05,1.6 1.1,-0.2 2.05,0.6 0.95,0.8 0.95,1.95 0.45,-0.1 1.2,0.35 0.45,0.3 0.8,0.4 l 0.05,0.05 0.35,0.05 1.4,-0.55 q 1.35,-0.7 3.15,-0.45 l 1.25,0.3 -3.2,1.4 L 13,33.5 8.85,34.7 5.8,35.25 5.5,34.65 Q 4.25,34.9 3.1,34.1 2,33.3 1.75,32.05 0.9,32.2 0.1,31.65 q -0.8,-0.55 -1,-1.4 -0.2,-0.85 0.3,-1.9 L 0.45,26.55 0.65,26 0.15,25.35 -0.2,24.25 0.2,23.05 Q 0.6,22.3 2.05,21.5 1.5,21 1.45,20.2 m 21.1,-6.6 2.2,-1.45 0.55,-0.4 0.85,-0.5 2.3,-1.85 1.1,-0.05 q 0.85,0.05 1.6,0.75 l 0.5,0.55 q 0.25,0.2 0.8,0.4 1.15,0.65 1.45,1.8 0.25,1.3 -0.45,2.3 0.8,0.05 1.45,0.65 l 0.15,0.15 -1.15,2.3 -0.7,1.1 -1.65,1.95 -1.2,1.2 -1.95,1.8 -0.55,0.5 -4.25,3.45 q 0.05,-0.55 0.4,-1 0.7,-0.9 2.2,-1.25 l -0.45,-1.45 q 0,-1.1 1,-1.95 l 0.6,-0.4 1.35,-0.65 0.65,-0.25 q 0.75,-0.45 0.9,-1 l 0.05,-0.8 q 0,-0.55 0.15,-0.85 l -0.8,-0.35 -0.9,-1.05 q -0.5,-1 -0.25,-2 l 0.05,-0.2 -0.55,-0.5 -0.05,0.05 -1.4,0.55 -0.7,-0.05 q -1.2,-0.3 -1.7,-1.45 l -1.6,-0.05 m 12.25,-15.2 0.7,-1.55 0.2,-0.5 0.25,2.25 H 35.4 l -0.6,-0.2 m -18.15,-19.95 0.05,0.1 0.2,0.2 0.65,0.45 q 1,0.75 1.3,2.05 l 0.1,1.4 H 18.6 q -0.35,0.2 -0.25,0.7 l 0.3,0.5 -0.65,1.45 -0.5,0.8 -0.2,0.55 -1.1,-0.95 -2,-1.55 -0.5,-0.3 -2.75,-1.65 -1.4,-0.7 q 0.45,-0.55 1.3,-0.8 l 0.8,-0.25 Q 11,-19.85 10.5,-20.6 9.95,-21.35 9.7,-22.5 l -0.05,-0.7 1.85,0.3 5.15,1.35 m 13.05,7.9 1.15,0.85 0.85,0.75 0.05,0.7 0.15,1.35 0.05,0.3 -0.1,0.05 -0.9,0.15 -0.9,0.15 -0.4,0.35 -0.15,0.45 q -0.15,0.8 -0.65,1.35 l -0.5,0.7 -0.1,0.9 -0.15,1.1 -0.3,0.65 -0.5,-1.95 -0.2,-0.6 -1.05,-2.75 -0.05,-0.1 -0.65,-1.4 q 0.55,-1.4 2.2,-2.35 1.15,-0.6 2.15,-0.65 m -6.05,7.3 0.25,1.2 -0.4,-0.7 0.05,-0.1 0.1,-0.4"
         fill="#5a9166"
         fill-rule="evenodd"
         stroke="none"
         id="path3" />
      <path
         d="m -29.7,-16.9 0.4,0.4 0.5,0.3 -1.5,2.4 -0.05,-0.25 q -0.1,-0.7 0.15,-1.4 l 0.5,-1.45 m -7.5,11.35 0.55,-0.9 2.6,-3.25 0.3,-0.2 0.75,0.85 0.85,0.8 -0.2,0.95 -0.9,4.6 -0.45,-0.6 -0.25,-0.75 q -0.45,-1.05 -1.35,-1.4 l -1.65,-0.1 h -0.25 m 8.3,13.6 -0.25,-0.65 V 5.2 q 0.1,-3.2 0.95,-8.3 l 0.3,-1.55 -0.05,2.65 0.2,5.4 q 0.25,1.95 0.85,3.5 -0.75,0 -1.4,0.45 l -0.6,0.7 m 11.5,9.3 3.1,1.35 0.55,0.15 2.5,0.6 1.2,0.15 1.25,0.1 -0.25,0.55 -0.2,1 -0.05,0.1 -0.7,0.9 q -0.6,0.85 -0.45,1.85 l 0.15,0.95 q -0.1,0.55 -0.75,1.45 v 1.05 l 0.2,1.05 0.1,1.4 q 0.1,0.9 0.6,1.2 l -0.95,1.35 -0.1,-0.05 -3.3,-1.35 -1.7,-0.8 -0.2,-0.65 0.25,-0.75 v -0.7 q -0.2,-0.55 -0.7,-1 l -0.45,-0.35 -1.2,-0.75 -0.4,-0.75 -0.4,-0.75 q 0.6,-0.7 0.65,-1.7 0.1,-0.95 -0.4,-1.75 0.8,-0.6 1,-1.65 0.2,-1.05 -0.3,-1.9 l 0.95,-0.3 m 27.45,2.25 0.85,-0.25 -0.2,0.9 q -0.6,1.65 -1.4,2.7 -0.8,1.15 -0.75,1.7 0.1,0.55 0.5,0.95 0.95,1.2 2.55,1.5 l 1.8,0.35 1.1,0.55 1.05,0.4 1.7,0.1 1.1,0.3 0.65,-0.25 0.65,-0.45 q 0.6,-0.35 1.3,-0.25 L 21.1,27.6 q 1.15,-1.95 2.6,-3.65 l 0.65,-1 V 21.9 q -0.1,-0.95 0.45,-1.8 0.65,-1 0.5,-1.4 -0.15,-0.35 -1,-0.65 -0.75,-0.25 -1.4,-1 l -0.55,-0.6 -0.9,-0.05 -2.3,0.4 q -0.9,0.1 -1.2,0.55 -0.25,0.3 -0.35,1.15 l -0.45,0.8 -0.6,0.65 -0.6,1.3 -0.15,0.85 0.25,0.4 0.35,0.05 q 0.45,-0.7 1.2,-1.05 l 1.55,-0.2 q 0.8,0.15 1.3,0.9 0.5,0.75 0.3,1.5 l -1.05,1.5 -2,1.45 Q 16.25,27.2 14,26.1 12.2,25.15 11.65,24 q -0.55,-1.05 -0.3,-2.55 0.15,-1.35 0.85,-2.5 2,-0.7 4.1,-1.75 2.5,-1.2 6.25,-3.6 l 1.6,0.05 q 0.5,1.15 1.7,1.45 l 0.7,0.05 1.4,-0.55 0.05,-0.05 0.55,0.5 -0.05,0.2 q -0.25,1 0.25,2 l 0.9,1.05 0.8,0.35 q -0.15,0.3 -0.15,0.85 l -0.05,0.8 q -0.15,0.55 -0.9,1 l -0.65,0.25 -1.35,0.65 -0.6,0.4 q -1,0.85 -1,1.95 L 26.2,26 q -1.5,0.35 -2.2,1.25 -0.35,0.45 -0.4,1 l -1.15,0.8 -1.05,0.65 -0.85,0.5 -1.9,1.05 -1.25,-0.3 Q 15.6,30.7 14.25,31.4 L 12.85,31.95 12.5,31.9 12.45,31.85 Q 12.1,31.75 11.65,31.45 10.9,31 10.45,31.1 10.45,29.95 9.5,29.15 8.55,28.35 7.45,28.55 7.3,27.5 6.4,26.95 L 6,26.65 6.15,26 6.4,24.65 Q 6.3,24 6.45,23.75 L 6.9,23.1 q 0.55,-0.65 0.4,-1.55 l 1.75,-0.4 q 1,-0.55 1,-1.45 v -0.1 m 22.5,-16.95 1.2,-2.2 1.05,-2 0.55,0.3 L 35.95,-1 36.3,3.15 36,2.95 33.55,2.8 32.95,2.9 32.55,2.65 M -1.1,-23.9 l -0.1,1.2 0.3,0.8 q -4.8,-0.8 -10.45,0.15 5.2,-1.85 10.25,-2.15 m 18,2.65 0.15,-0.15 0.15,0.05 q 2.25,0.9 6,3.3 l -0.85,0.95 -0.7,1.3 -1.35,-1 -0.95,-0.45 -0.4,-0.1 -0.1,-1.4 q -0.3,-1.3 -1.3,-2.05 l -0.65,-0.45 m 0.4,7.9 0.2,-0.55 0.5,-0.8 0.65,-1.45 0.15,0.15 1.2,1.5 -0.1,0.05 -0.8,1 -0.45,0.8 -0.15,0.45 -1.2,-1.15 m 14.65,3.65 0.15,1.95 q -0.05,1.7 -0.9,3.65 l -1.25,2.45 -0.55,0.9 -1.05,1.8 -0.05,-1.3 -0.5,-3.6 0.3,-0.65 0.15,-1.1 0.1,-0.9 0.5,-0.7 q 0.5,-0.55 0.65,-1.35 l 0.15,-0.45 0.4,-0.35 0.9,-0.15 0.9,-0.15 0.1,-0.05"
         fill="#bdc478"
         fill-rule="evenodd"
         stroke="none"
         id="path4" />
      <path
         d="m -27.8,-19.35 1,0.7 -0.95,1.05 -1.05,1.4 -0.5,-0.3 -0.4,-0.4 0.85,-1.45 0.05,-0.05 1,-0.95 m -9.4,13.8 h 0.25 l 1.65,0.1 q 0.9,0.35 1.35,1.4 l 0.25,0.75 0.45,0.6 -0.2,1.3 -0.2,1.2 -0.8,0.75 -0.4,-0.4 -0.55,-0.4 -0.4,-0.55 -0.8,-0.9 -1.25,-1 -0.85,-0.15 0.25,-0.6 h 0.05 l 1.2,-2.1 m 8.3,13.6 0.6,-0.7 q 0.65,-0.45 1.4,-0.45 l 0.3,0.85 0.4,0.75 2.05,2.85 q -1.25,0.05 -2.15,0.7 l -0.8,0.9 -1.8,-4.9 M -8.8,19.7 -8,19.75 h 0.7 0.6 2.15 l 0.95,0.05 -0.05,0.15 -0.65,0.75 q -0.75,0.85 -0.5,2 l 0.05,0.7 -0.5,0.5 q -1.05,0.7 -1.05,1.85 -0.1,1.2 0.9,1.95 -0.45,0.8 -0.3,1.75 0.2,0.95 0.85,1.5 l 0.35,0.35 q 0.05,0.2 -0.2,0.6 -0.4,0.6 -0.4,1.35 l 0.25,1.2 -4.35,-1.25 -1.9,-0.65 0.95,-1.35 q -0.5,-0.3 -0.6,-1.2 l -0.1,-1.4 -0.2,-1.05 V 26.5 q 0.65,-0.9 0.75,-1.45 l -0.15,-0.95 q -0.15,-1 0.45,-1.85 l 0.7,-0.9 0.05,-0.1 0.2,-1 0.25,-0.55 m 19.7,-0.35 1.3,-0.4 q -0.7,1.15 -0.85,2.5 -0.25,1.5 0.3,2.55 0.55,1.15 2.35,2.1 2.25,1.1 3.7,0.55 l 2,-1.45 1.05,-1.5 q 0.2,-0.75 -0.3,-1.5 -0.5,-0.75 -1.3,-0.9 l -1.55,0.2 q -0.75,0.35 -1.2,1.05 l -0.35,-0.05 -0.25,-0.4 0.15,-0.85 0.6,-1.3 0.6,-0.65 0.45,-0.8 q 0.1,-0.85 0.35,-1.15 0.3,-0.45 1.2,-0.55 l 2.3,-0.4 0.9,0.05 0.55,0.6 q 0.65,0.75 1.4,1 0.85,0.3 1,0.65 0.15,0.4 -0.5,1.4 -0.55,0.85 -0.45,1.8 v 1.05 l -0.65,1 q -1.45,1.7 -2.6,3.65 l -0.15,0.25 q -0.7,-0.1 -1.3,0.25 L 19,28.55 18.35,28.8 17.25,28.5 15.55,28.4 14.5,28 13.4,27.45 11.6,27.1 Q 10,26.8 9.05,25.6 8.65,25.2 8.55,24.65 8.5,24.1 9.3,22.95 q 0.8,-1.05 1.4,-2.7 l 0.2,-0.9 m 19.85,-13.4 1.8,-3.3 0.4,0.25 0.6,-0.1 2.45,0.15 0.3,0.2 V 3.7 l 0.05,1.1 V 9.1 L 36.25,9 Q 35.25,8 33.9,8.3 33.7,7.35 33,6.7 32.25,6.05 31.3,5.95 H 30.75 M 5,-20.3 -0.1,-21.75 h -0.1 l -0.7,-0.15 -0.3,-0.8 0.1,-1.2 h 0.15 0.85 l 4.75,0.1 q -0.1,1.2 0.55,2.15 Q 4.9,-21 5,-20.3 m 16.65,4.5 0.7,-1.3 0.85,-0.95 0.25,0.15 1.65,1.1 1.15,0.8 -0.75,0.2 q -1.1,0.45 -1.2,1.5 l -0.15,0.45 -0.45,0.2 -0.15,0.1 -0.35,-0.45 -1.25,-1.5 -0.3,-0.3 m -3.15,3.6 0.15,-0.45 0.45,-0.8 0.8,-1 0.1,-0.05 1.45,2.2 0.25,0.45 0.3,0.55 -0.15,0.3 -0.3,0.85 -0.15,1.25 -1.2,-1.5 -0.6,-0.65 -1.1,-1.15"
         fill="#915a5a"
         fill-rule="evenodd"
         stroke="none"
         id="path5" />
    </g>
    <g
       id="sprite1"
       transform="translate(17.4,15.85)">
      <use
         ffdec:characterId="31"
         height="57.200001"
         transform="matrix(0.5366,0,0,0.5366,-16.6582,-14.546)"
         width="70.75"
         xlink:href="#sprite2"
         id="use5" />
    </g>
    <g
       id="sprite2"
       transform="translate(-8.65,-10.35)">
      <use
         ffdec:characterId="30"
         height="57.200001"
         transform="translate(8.65,10.35)"
         width="70.75"
         xlink:href="#shape1"
         id="use6" />
    </g>
    <g
       id="shape1"
       transform="translate(-8.65,-10.35)">
      <path
         d="m 14.8,41.7 q 0.65,-1.75 2.65,-2.5 1.8,-0.8 3.7,-0.25 1.15,0.45 2.25,1.2 l 0.9,0.4 q 1.65,0.9 2.85,2.5 L 37.8,30.1 q 2.35,-2.8 3.75,-3.95 1.5,-1.15 4.25,-2.4 18.2,-8.85 27.65,-12.6 2.15,-0.8 3.25,-0.8 h 0.8 l 1.9,2.4 -0.2,0.8 q -0.2,1.1 -1.55,3 -5.85,8.25 -18.85,23.8 -1.85,2.35 -3.35,3.5 -1.4,1.15 -4.75,2.75 l -15.15,7.15 q 1.2,1.6 1.75,3.4 l 0.2,1 0.55,2.5 q 0.1,1.95 -1.1,3.55 -1.2,1.65 -3.05,1.9 l -1.3,0.05 q -1.65,0.2 -3.45,-0.65 -1.85,-0.9 -3,-2.6 L 25,60.95 23.8,62.1 q -2.6,2.85 -4.3,3.95 -2.85,1.8 -5.5,1.45 l -1.65,-0.5 -1.2,-0.7 -0.2,-0.2 q -1,-0.85 -1.6,-1.9 L 9.25,64 9.15,63.8 8.75,62.4 q -0.2,-0.8 -0.05,-1.7 0.25,-2.65 2.7,-5.05 1.5,-1.3 4.9,-3.15 L 17.7,51.55 16.05,50 q -1.35,-1.5 -1.8,-3.6 -0.4,-1.85 0.25,-3.45 l 0.3,-1.25"
         fill="#000000"
         fill-opacity="0.372549"
         fill-rule="evenodd"
         stroke="none"
         id="path6" />
    </g>
  </defs>
</svg>
