<?xml version="1.0" encoding="UTF-8" standalone="no"?>
<svg
   ffdec:objectType="frame"
   height="62.576561"
   width="75.254669"
   version="1.1"
   id="svg5"
   xmlns:xlink="http://www.w3.org/1999/xlink"
   xmlns="http://www.w3.org/2000/svg"
   xmlns:svg="http://www.w3.org/2000/svg"
   xmlns:ffdec="https://www.free-decompiler.com/flash">
  <g
     transform="translate(40.572848,27.75)"
     id="g1">
    <use
       ffdec:characterId="17"
       height="119.15"
       id="rarity"
       transform="translate(-58.5,-60.65)"
       width="119.15"
       xlink:href="#sprite0" />
    <use
       ffdec:characterId="464"
       height="62.599998"
       transform="translate(-40.55,-27.75)"
       width="75.25"
       xlink:href="#shape0"
       id="use1" />
  </g>
  <defs
     id="defs5">
    <g
       id="shape0"
       transform="translate(40.15,26.95)">
      <path
         d="m 8.8,-22.25 q 4.75,-0.05 5.4,4.25 l 1.2,-0.05 1.2,-0.05 1.25,-0.1 1.45,0.35 -0.05,-0.6 -0.05,-0.45 v -1.5 q 0.1,-0.7 0.55,-1.25 0.15,-2.8 2.75,-4.1 1.8,-0.9 3.7,-1.15 3.25,-0.4 4.85,2.4 l 0.35,1.6 q 4.5,2.65 3.5,8.25 -0.4,2.3 -0.25,4.6 0.3,4.7 -2.2,8.05 -0.3,0.45 -0.9,0.5 -5.95,0.95 -10.9,-1.25 -0.65,-0.3 -0.7,-1.1 V -4 l -0.15,0.05 v -0.2 -0.1 l -1.65,-0.2 q -1.55,-0.3 -3.1,0 L 13.9,-4.3 Q 13.35,0.3 12.15,4.7 12,5.2 11.45,5.3 L 4.7,6.35 Q 5.4,8 5.2,10.2 4.45,18.85 -4.65,20.45 -8.2,21.1 -11.15,20 q 0.25,4.2 -1.5,8.4 -1.25,3 -4.15,4.6 -11.5,6.15 -20.75,-2.1 -4.45,-3.95 -1.35,-9 4.5,-7.4 5.25,-15.95 0.3,-3.5 2.65,-6.1 1.75,-1.95 4.4,-2.7 l 1.7,-0.55 v -0.1 l -0.1,-1.1 -0.1,-0.2 -0.2,-0.2 -0.15,-0.2 -0.25,-0.45 -0.75,-0.45 -1.25,-0.65 -0.4,-0.2 -1.45,0.1 -2.2,1.4 q -4.15,-1.25 -1.3,-5 1.95,-2.55 5.1,-2.55 5.8,0.85 7.75,4.75 l 0.9,-1.3 -0.15,-1.6 0.15,-2.3 q -0.6,-2.55 2.35,-3.85 4.95,-2.25 10.25,-2.65 1.7,-0.85 4,-0.9 l 6.65,-0.7 4.85,-0.7 m 10.9,11.45 -0.1,-1.85 v -0.2 l -0.05,-0.55 v -0.1 l -0.4,0.05 H 16.2 l -1.85,-0.15 v 0.6 l -0.05,1.05 v 0.45 0.05 0.8 1.15 l 5.45,-0.25 -0.05,-1.05 m -33.15,0.95 0.1,3.05 0.2,5.35 0.25,4.3 L 7.5,0.2 8.05,0 Q 8,-1.65 8.2,-3.2 v -0.05 q -1.75,1.1 -4.45,1.1 l -5.6,0.5 q -3.95,0.75 -7.45,-0.8 -1.95,-2 -1.05,-4.6 l 0.65,-1.8 0.05,-0.25 2.25,-1.95 0.4,-0.25 0.7,0.4 0.15,0.15 0.05,0.25 v 0.4 l -0.05,0.25 -0.3,0.4 -0.4,0.65 -0.3,0.2 -0.25,0.25 -0.1,0.2 v 0.4 0.25 l -0.05,0.2 -0.1,0.2 -0.05,0.25 0.1,0.2 0.2,0.4 0.15,0.25 q 6.8,0.95 13.7,-0.85 l 2,-0.1 Q 8.55,-8.05 8.9,-9 v -1.3 -1.3 -0.85 -0.45 q -0.35,-0.7 -0.35,-1.5 l -0.15,-1 -0.3,-0.75 -0.2,-0.1 -0.25,-0.05 q -8.4,1.3 -16.6,3 -2.65,0.55 -4.55,2 l 0.05,1.45 m 40.4,-11.25 -0.05,-0.45 q -0.05,-0.7 -0.5,-0.55 l -0.55,0.3 -0.5,0.2 -0.65,0.35 q -0.55,1.1 -0.7,2.3 l 2.85,-0.7 0.6,-0.1 Q 27.15,-20.3 27,-20.95 V -21 l -0.05,-0.1 m -3.15,4.4 -0.25,0.05 -0.2,0.35 0.1,0.35 0.35,1.2 q 0.6,2.45 0.6,5.1 -0.05,1.6 0.15,3.2 l 5.1,-0.35 0.1,-0.65 0.1,-0.4 0.15,-0.25 -0.15,-6.3 v -0.1 l 0.1,-2.45 -3.75,-0.2 -0.6,0.15 -0.1,0.05 -0.65,0.05 -1.05,0.2 m -36.25,25.3 -0.4,4.7 0.5,1.2 1.5,0.05 5.1,0.25 Q -1.1,14.3 0,10.25 L 0.1,9.45 Q -0.45,8.3 -0.5,7.1 L -5.95,7.75 -6.15,8.1 -7.2,9.85 q 1,1.4 0.95,3 0,0.95 -0.9,1.45 -4.1,-0.5 -3.9,-5 l 0.1,-1 -1.45,0.15 -0.05,0.15 m -14.85,-3.5 -0.65,3.4 1.1,-1.4 q 1.55,-1.75 3.75,-2.45 l 2.8,0.25 0.95,0.4 0.2,0.2 0.2,0.45 0.15,0.4 0.75,1 0.15,0.2 0.05,-0.35 0.25,-0.75 v -0.1 l -0.2,-1.2 -0.55,-3 -0.15,-1.05 -0.35,-3.05 Q -22,1.7 -27,3 l -0.2,1.55 -0.1,0.55 m -6.65,20.4 q -0.2,0.35 -0.05,0.65 5.9,6 14.3,2 l 1,-0.85 0.55,-0.4 0.25,-0.4 0.7,-0.9 q 0.7,-1.65 0.55,-3.45 v -1.9 l -0.05,-0.15 -0.15,-0.15 -0.2,-0.2 -0.05,-0.25 -0.35,-1.25 -0.15,-0.5 -0.35,-1.25 -0.6,-1.9 -0.1,-1.1 -0.1,-0.2 -0.3,-1.5 Q -19.1,11.1 -19.5,10.5 V 10.3 L -19.55,9.85 -19.65,9.45 -19.8,9.2 -19.95,8.8 -20.1,8.35 -20.3,8.15 -20.5,7.95 -20.6,7.7 -20.8,7.3 -21.15,6.95 -21.3,6.9 -22.8,6.95 q -4.55,3.15 -6.45,8.45 -0.75,2.2 -1.9,4.2 -0.05,0.85 -0.4,1.6 -0.8,1.7 -1.85,3.2 l -0.55,1.1"
         fill="#000000"
         fill-rule="evenodd"
         stroke="none"
         id="path1" />
      <path
         d="m 14.3,-11.45 v -0.05 -0.45 L 14.35,-13 v -0.6 l 1.85,0.15 h 2.95 l 0.4,-0.05 v 0.1 l 0.05,0.55 v 0.2 l 0.1,1.85 q -2.45,0.8 -5.15,-0.5 -0.15,-0.1 -0.25,-0.15 m -6.4,-4.8 q -3.6,1.45 -7.45,2.3 l -2.7,1.05 -1.5,0.25 -0.3,0.2 -0.3,0.15 q -3.7,0.65 -7.05,2.15 l -1.3,0.2 -0.5,0.15 -0.25,-0.05 -0.05,-1.45 q 1.9,-1.45 4.55,-2 8.2,-1.7 16.6,-3 l 0.25,0.05 m -7.4,3.15 q 5.05,-0.95 6.2,3 Q 7,-9.05 6,-8.4 0.25,-4.65 -5.25,-8.2 -5.9,-8.65 -5.5,-9.35 q 1.8,-3.45 6,-3.75 m 25.35,-8.7 q 0.5,0 0.85,0.35 l 0.2,0.2 0.05,0.15 0.05,0.1 v 0.05 0.15 l 0.05,0.4 -0.2,0.75 -2.85,0.7 q 0.15,-1.2 0.7,-2.3 l 0.65,-0.35 0.5,-0.2 m -2.4,5.85 0.25,-0.65 0.1,-0.1 1.05,-0.2 0.65,-0.05 0.1,-0.05 0.6,-0.15 3.75,0.2 -0.1,2.45 v 0.1 l -3.65,0.35 -1.8,-0.2 -0.35,-0.2 -0.25,-0.3 -0.35,-1.2 M -18.5,1.1 -19.35,2.05 -20.1,2.7 -20.75,3.15 q -2,1.3 -4.65,1.9 L -27.3,5.1 -27.2,4.55 -27,3 q 5,-1.3 8.15,-4.95 l 0.35,3.05"
         fill="#ffffff"
         fill-rule="evenodd"
         stroke="none"
         id="path2" />
      <path
         d="m -33.95,25.5 0.55,-1.1 q 1.05,-1.5 1.85,-3.2 0.35,-0.75 0.4,-1.6 1.15,-2 1.9,-4.2 1.9,-5.3 6.45,-8.45 l 1.5,-0.05 0.15,0.05 0.35,0.35 0.2,0.4 0.1,0.25 0.2,0.2 0.2,0.2 0.15,0.45 0.15,0.4 0.15,0.25 0.1,0.4 0.05,0.45 v 0.2 q 0.4,0.6 0.45,1.3 l 0.3,1.5 0.1,0.2 0.1,1.1 0.6,1.9 0.35,1.25 0.15,0.5 0.35,1.25 0.05,0.25 0.2,0.2 0.15,0.15 0.05,0.15 v 1.9 q 0.15,1.8 -0.55,3.45 l -0.7,0.9 -0.25,0.4 -0.55,0.4 -1,0.85 q -8.4,4 -14.3,-2 -0.15,-0.3 0.05,-0.65"
         fill="#333333"
         fill-rule="evenodd"
         stroke="none"
         id="path3" />
      <path
         d="m 14.3,-11.45 q 0.1,0.05 0.25,0.15 2.7,1.3 5.15,0.5 l 0.05,1.05 -5.45,0.25 v -1.15 -0.8 m -27.75,1.6 0.25,0.05 0.5,-0.15 1.3,-0.2 q 3.35,-1.5 7.05,-2.15 l 0.3,-0.15 0.3,-0.2 1.5,-0.25 2.7,-1.05 q 3.85,-0.85 7.45,-2.3 l 0.2,0.1 0.3,0.75 0.15,1 q 0,0.8 0.35,1.5 v 0.45 0.85 1.3 1.3 q -0.35,0.95 -0.45,2.05 l -2,0.1 q -6.9,1.8 -13.7,0.85 l -0.15,-0.25 -0.2,-0.4 -0.1,-0.2 0.05,-0.25 0.1,-0.2 0.05,-0.2 v -0.25 -0.4 l 0.1,-0.2 0.25,-0.25 0.3,-0.2 0.4,-0.65 0.3,-0.4 0.05,-0.25 v -0.4 l -0.05,-0.25 -0.15,-0.15 -0.7,-0.4 -0.4,0.25 -2.25,1.95 -0.05,0.25 -0.65,1.8 q -0.9,2.6 1.05,4.6 3.5,1.55 7.45,0.8 l 5.6,-0.5 q 2.7,0 4.45,-1.1 V -3.2 Q 8,-1.65 8.05,0 l -0.55,0.2 -20.4,2.65 -0.25,-4.3 -0.2,-5.35 -0.1,-3.05 M 0.5,-13.1 q -4.2,0.3 -6,3.75 -0.4,0.7 0.25,1.15 5.5,3.55 11.25,-0.2 1,-0.65 0.7,-1.7 -1.15,-3.95 -6.2,-3 m 23.3,-1.65 0.25,0.3 0.35,0.2 1.8,0.2 3.65,-0.35 0.15,6.3 -0.15,0.25 -0.1,0.4 -0.1,0.65 -5.1,0.35 q -0.2,-1.6 -0.15,-3.2 0,-2.65 -0.6,-5.1 M -27.3,5.1 -25.4,5.05 q 2.65,-0.6 4.65,-1.9 l 0.65,-0.45 0.75,-0.65 0.85,-0.95 0.15,1.05 0.55,3 0.2,1.2 v 0.1 l -0.25,0.75 -0.05,0.35 -0.15,-0.2 -0.75,-1 -0.15,-0.4 -0.2,-0.45 -0.2,-0.2 -0.95,-0.4 -2.8,-0.25 q -2.2,0.7 -3.75,2.45 l -1.1,1.4 0.65,-3.4"
         fill="#adadad"
         fill-rule="evenodd"
         stroke="none"
         id="path4" />
    </g>
    <g
       id="sprite1"
       transform="translate(17.4,15.85)">
      <use
         ffdec:characterId="31"
         height="57.200001"
         transform="matrix(0.5366,0,0,0.5366,-16.6582,-14.546)"
         width="70.75"
         xlink:href="#sprite2"
         id="use4" />
    </g>
    <g
       id="sprite2"
       transform="translate(-8.65,-10.35)">
      <use
         ffdec:characterId="30"
         height="57.200001"
         transform="translate(8.65,10.35)"
         width="70.75"
         xlink:href="#shape1"
         id="use5" />
    </g>
    <g
       id="shape1"
       transform="translate(-8.65,-10.35)">
      <path
         d="m 14.8,41.7 q 0.65,-1.75 2.65,-2.5 1.8,-0.8 3.7,-0.25 1.15,0.45 2.25,1.2 l 0.9,0.4 q 1.65,0.9 2.85,2.5 L 37.8,30.1 q 2.35,-2.8 3.75,-3.95 1.5,-1.15 4.25,-2.4 18.2,-8.85 27.65,-12.6 2.15,-0.8 3.25,-0.8 h 0.8 l 1.9,2.4 -0.2,0.8 q -0.2,1.1 -1.55,3 -5.85,8.25 -18.85,23.8 -1.85,2.35 -3.35,3.5 -1.4,1.15 -4.75,2.75 l -15.15,7.15 q 1.2,1.6 1.75,3.4 l 0.2,1 0.55,2.5 q 0.1,1.95 -1.1,3.55 -1.2,1.65 -3.05,1.9 l -1.3,0.05 q -1.65,0.2 -3.45,-0.65 -1.85,-0.9 -3,-2.6 L 25,60.95 23.8,62.1 q -2.6,2.85 -4.3,3.95 -2.85,1.8 -5.5,1.45 l -1.65,-0.5 -1.2,-0.7 -0.2,-0.2 q -1,-0.85 -1.6,-1.9 L 9.25,64 9.15,63.8 8.75,62.4 q -0.2,-0.8 -0.05,-1.7 0.25,-2.65 2.7,-5.05 1.5,-1.3 4.9,-3.15 L 17.7,51.55 16.05,50 q -1.35,-1.5 -1.8,-3.6 -0.4,-1.85 0.25,-3.45 l 0.3,-1.25"
         fill="#000000"
         fill-opacity="0.372549"
         fill-rule="evenodd"
         stroke="none"
         id="path5" />
    </g>
  </defs>
</svg>
