<?xml version="1.0" encoding="UTF-8" standalone="no"?>
<svg
   ffdec:objectType="frame"
   height="70.638092"
   width="77.146004"
   version="1.1"
   id="svg5"
   sodipodi:docname="ITEM Rag Hood.svg"
   xmlns:inkscape="http://www.inkscape.org/namespaces/inkscape"
   xmlns:sodipodi="http://sodipodi.sourceforge.net/DTD/sodipodi-0.dtd"
   xmlns:xlink="http://www.w3.org/1999/xlink"
   xmlns="http://www.w3.org/2000/svg"
   xmlns:svg="http://www.w3.org/2000/svg"
   xmlns:ffdec="https://www.free-decompiler.com/flash">
  <sodipodi:namedview
     id="namedview5"
     pagecolor="#ffffff"
     bordercolor="#000000"
     borderopacity="0.25"
     inkscape:showpageshadow="2"
     inkscape:pageopacity="0.0"
     inkscape:pagecheckerboard="0"
     inkscape:deskcolor="#d1d1d1"
     fit-margin-top="5"
     fit-margin-left="5"
     fit-margin-right="5"
     fit-margin-bottom="5" />
  <g
     transform="translate(39.246,38.85)"
     id="g1">
    <use
       ffdec:characterId="17"
       height="119.15"
       id="rarity"
       transform="translate(-58.5,-60.65)"
       width="119.15"
       xlink:href="#sprite0" />
    <use
       ffdec:characterId="1133"
       height="70.650002"
       transform="translate(-39.25,-38.85)"
       width="77.25"
       xlink:href="#shape0"
       id="use1" />
  </g>
  <defs
     id="defs5">
    <g
       id="shape0"
       transform="translate(37.95,36.95)">
      <path
         d="m 12.25,-36.95 q 2.85,0.75 4.3,3.7 2.55,5.25 5.45,10.3 8,2.75 11.1,10.8 l 0.8,2.1 0.65,2.05 Q 37.4,-2 39.2,4.25 L 39.15,5.8 q -2.4,6.55 -6.55,12.1 l -5.55,7.3 -1.6,1.7 q -2.5,2.3 -4.5,-0.55 L 20.3,25.45 Q 14.8,27.8 9.05,29.25 H 7.7 q -3.2,-0.9 -6.35,0.4 L -7.2,33 q -2.4,0.85 -4.95,0.65 L -13.7,33.2 q -7.1,-3.15 -14.5,-5.4 -0.85,-0.25 -1.35,-0.75 h -0.3 q -1.3,-0.15 -1.7,-1.25 -2.85,-7.6 -5.05,-15.4 -1.2,-4.15 -1.25,-8.5 -0.6,-3.3 2.55,-5.5 l 18.5,-12.6 q 8.2,-5.4 15.55,-11.9 l 2.8,-2.15 9.15,-6.15 q 0.75,-0.55 1.55,-0.55 m -0.75,6.8 q -7.55,4.25 -14,10.05 l -0.05,0.05 1.9,2 2.5,-1 0.8,0.3 0.45,0.2 0.1,0.2 0.05,0.15 0.1,0.25 v 0.15 0.15 0.15 0.1 l -2,2.05 1.65,2.95 1.45,2.4 0.25,0.7 0.35,0.75 0.1,1.05 Q 1,-3.2 -4.8,-0.95 -2.6,1.3 -4.35,3.6 -4.8,4.25 -5.55,4 -7.8,3.4 -8.8,0.95 L -8.9,0.6 q -5.8,2.3 -11.4,5.1 -0.95,0.45 -1.6,-0.4 -2.2,-2.95 -3.2,-6.55 l -0.6,-1.1 -0.3,-1.15 -4.65,2.95 q -1.35,0.8 -2.45,1.9 -0.05,4.85 1.25,9.45 l 3,9.85 0.3,1 18.65,-5.25 3.6,-1 Q -1.5,14 3.3,13.7 l 1.05,0.15 q 0.9,0.45 1.8,1.05 L 13.65,9 12.85,7.2 12.25,4.85 11.95,4.4 11.75,3.7 V 3.4 q -3,-5.75 0.5,-11.05 2.3,-3.5 4.25,-7.25 0.9,-1.8 2.1,-3.4 -2.05,-1.35 -3.1,-4.15 -1.55,-4.3 -4,-7.7 m -27.65,20.4 -6.2,3.9 0.5,1.5 q 0.8,3.2 2.2,6.15 l 9.35,-4.45 -0.65,-1.45 q -0.4,-0.85 0.25,-1.6 0.25,-0.35 0.7,-0.55 l 0.2,-0.05 0.35,-0.05 q 1.6,0.75 2.65,2.15 l 3.75,-1.6 q 2.6,-1.05 4.8,-2.8 l -1.65,-3.15 -1.1,-1.9 -3.15,1.6 q -1.15,0.5 -1.8,-0.55 -1.2,-1.85 0.8,-3.1 l 2.1,-1.2 -1,-1.35 -0.2,-0.3 q -5.6,4.8 -11.9,8.8 m 46,4.05 -1.65,-4 q -1.45,-3.15 -3.85,-5.65 l -1.05,-1 -2,3.1 -0.1,0.45 -0.65,0.85 -0.15,0.15 q -2,3.95 -4.4,7.7 -0.95,1.45 -1.5,3.1 l 0.2,0.85 0.35,1.55 1.5,5.05 0.35,1.65 V 7.55 Q 15.55,3.4 19.85,1.6 L 23.4,0.1 23.15,-2.1 q 0,-1.2 1.1,-1.7 l 0.15,-0.05 h 0.35 V -3.9 q 1.7,0.6 1.95,2.5 l 3.9,-1.95 0.2,-0.05 -0.95,-2.3 M 19.2,12 q 1.75,4.45 4.5,8.25 3.7,-3.85 6.6,-8.35 2.25,-3.5 3.55,-7.45 l -1.9,-4.9 Q 31.6,-0.2 31.2,-0.1 29.15,0.65 27.15,1.55 v 0.3 q 1.45,2.6 -1.3,3.2 -0.9,0.25 -1.4,-0.6 Q 24,3.75 23.9,3.05 21.35,4.2 18.9,5.5 l -0.1,0.15 -0.1,0.1 -0.15,0.2 V 6.1 6.2 L 18.5,6.5 v 0.15 q 0.45,1.55 0.35,3.15 l -0.1,1.15 0.45,1.05 m -3.55,5.45 -1.15,-2.4 q -3.45,3.75 -8.05,5.6 l -1.2,-0.1 -2.8,-1.6 q -12.3,2.35 -24,6.65 l 5.4,1.6 4.4,1.2 2.15,-0.1 13.85,-4.5 1.7,-0.3 3.5,0.5 Q 13.6,22.25 17.8,20.95 16.55,19.3 15.65,17.45 M -11.55,6 q 2.9,-0.85 4.55,1.2 1,1.3 1.2,3 0.4,3.95 -3.7,4.7 -4.6,0.8 -9.05,2.35 l -4.3,0.7 q -1.7,-0.05 -1.7,-1.6 -0.05,-3.1 1.55,-5.5 0.7,-1 1.8,-1.55 l 0.7,-0.25 q 2.8,-1.95 6.25,-2.55 l 2.7,-0.5 m 0.35,3.4 q -3.95,0.85 -7.8,2.05 -1.2,0.4 -1.85,1.45 v 0.25 0.15 0.15 0.3 0.15 L -14,11.95 q 2.2,-0.65 4.45,-1.15 L -9.6,10.35 V 10.2 9.75 9.45 L -11.2,9.4"
         fill="#000000"
         fill-rule="evenodd"
         stroke="none"
         id="path1" />
      <path
         d="m 29.85,-5.7 0.95,2.3 -0.2,0.05 -3.9,1.95 q -0.25,-1.9 -1.95,-2.5 v 0.05 H 24.4 l -0.15,0.05 q -1.1,0.5 -1.1,1.7 L 23.4,0.1 19.85,1.6 Q 15.55,3.4 16.9,7.55 V 8.1 L 16.55,6.45 15.05,1.4 14.7,-0.15 14.5,-1 q 0.55,-1.65 1.5,-3.1 2.4,-3.75 4.4,-7.7 l 0.15,-0.15 0.65,-0.85 0.1,-0.45 2,-3.1 1.05,1 q 2.4,2.5 3.85,5.65 l 1.65,4 m -46,-4.05 q 6.3,-4 11.9,-8.8 l 0.2,0.3 1,1.35 -2.1,1.2 q -2,1.25 -0.8,3.1 0.65,1.05 1.8,0.55 l 3.15,-1.6 1.1,1.9 1.65,3.15 q -2.2,1.75 -4.8,2.8 L -6.8,-4.2 Q -7.85,-5.6 -9.45,-6.35 L -9.8,-6.3 -10,-6.25 q -0.45,0.2 -0.7,0.55 -0.65,0.75 -0.25,1.6 l 0.65,1.45 -9.35,4.45 q -1.4,-2.95 -2.2,-6.15 l -0.5,-1.5 6.2,-3.9"
         fill="#5b5b5b"
         fill-rule="evenodd"
         stroke="none"
         id="path2" />
      <path
         d="m 11.5,-30.15 q 2.45,3.4 4,7.7 1.05,2.8 3.1,4.15 -1.2,1.6 -2.1,3.4 -1.95,3.75 -4.25,7.25 -3.5,5.3 -0.5,11.05 v 0.3 l 0.2,0.7 0.3,0.45 0.6,2.35 0.8,1.8 -7.5,5.9 Q 5.25,14.3 4.35,13.85 L 3.3,13.7 q -4.8,0.3 -9.6,1.7 l -3.6,1 -18.65,5.25 -0.3,-1 -3,-9.85 q -1.3,-4.6 -1.25,-9.45 1.1,-1.1 2.45,-1.9 l 4.65,-2.95 0.3,1.15 0.6,1.1 q 1,3.6 3.2,6.55 0.65,0.85 1.6,0.4 5.6,-2.8 11.4,-5.1 l 0.1,0.35 Q -7.8,3.4 -5.55,4 -4.8,4.25 -4.35,3.6 -2.6,1.3 -4.8,-0.95 1,-3.2 5.15,-7.5 L 5.05,-8.55 4.7,-9.3 4.45,-10 3,-12.4 l -1.65,-2.95 2,-2.05 v -0.1 -0.15 -0.15 -0.15 l -0.1,-0.25 -0.05,-0.15 -0.1,-0.2 -0.45,-0.2 -0.8,-0.3 -2.5,1 -1.9,-2 0.05,-0.05 q 6.45,-5.8 14,-10.05 M 19.2,12 18.75,10.95 18.85,9.8 Q 18.95,8.2 18.5,6.65 V 6.5 L 18.55,6.2 V 6.1 5.95 l 0.15,-0.2 0.1,-0.1 0.1,-0.15 q 2.45,-1.3 5,-2.45 0.1,0.7 0.55,1.4 0.5,0.85 1.4,0.6 2.75,-0.6 1.3,-3.2 v -0.3 q 2,-0.9 4.05,-1.65 0.4,-0.1 0.75,-0.35 l 1.9,4.9 Q 32.55,8.4 30.3,11.9 27.4,16.4 23.7,20.25 20.95,16.45 19.2,12 m -30.75,-6 -2.7,0.5 q -3.45,0.6 -6.25,2.55 l -0.7,0.25 q -1.1,0.55 -1.8,1.55 -1.6,2.4 -1.55,5.5 0,1.55 1.7,1.6 l 4.3,-0.7 Q -14.1,15.7 -9.5,14.9 -5.4,14.15 -5.8,10.2 -6,8.5 -7,7.2 -8.65,5.15 -11.55,6"
         fill="#3c3c3c"
         fill-rule="evenodd"
         stroke="none"
         id="path3" />
      <path
         d="m 15.65,17.45 q 0.9,1.85 2.15,3.5 -4.2,1.3 -8.35,3.05 l -3.5,-0.5 -1.7,0.3 -13.85,4.5 -2.15,0.1 -4.4,-1.2 -5.4,-1.6 q 11.7,-4.3 24,-6.65 l 2.8,1.6 1.2,0.1 q 4.6,-1.85 8.05,-5.6 l 1.15,2.4 M -11.2,9.4 -9.6,9.45 v 0.3 0.45 0.15 l 0.05,0.45 q -2.25,0.5 -4.45,1.15 l -6.85,1.95 V 13.75 13.45 13.3 13.15 12.9 q 0.65,-1.05 1.85,-1.45 3.85,-1.2 7.8,-2.05"
         fill="#212121"
         fill-rule="evenodd"
         stroke="none"
         id="path4" />
    </g>
    <g
       id="sprite1"
       transform="translate(17.4,15.85)">
      <use
         ffdec:characterId="31"
         height="57.200001"
         transform="matrix(0.5366,0,0,0.5366,-16.6582,-14.546)"
         width="70.75"
         xlink:href="#sprite2"
         id="use4" />
    </g>
    <g
       id="sprite2"
       transform="translate(-8.65,-10.35)">
      <use
         ffdec:characterId="30"
         height="57.200001"
         transform="translate(8.65,10.35)"
         width="70.75"
         xlink:href="#shape1"
         id="use5" />
    </g>
    <g
       id="shape1"
       transform="translate(-8.65,-10.35)">
      <path
         d="m 14.8,41.7 q 0.65,-1.75 2.65,-2.5 1.8,-0.8 3.7,-0.25 1.15,0.45 2.25,1.2 l 0.9,0.4 q 1.65,0.9 2.85,2.5 L 37.8,30.1 q 2.35,-2.8 3.75,-3.95 1.5,-1.15 4.25,-2.4 18.2,-8.85 27.65,-12.6 2.15,-0.8 3.25,-0.8 h 0.8 l 1.9,2.4 -0.2,0.8 q -0.2,1.1 -1.55,3 -5.85,8.25 -18.85,23.8 -1.85,2.35 -3.35,3.5 -1.4,1.15 -4.75,2.75 l -15.15,7.15 q 1.2,1.6 1.75,3.4 l 0.2,1 0.55,2.5 q 0.1,1.95 -1.1,3.55 -1.2,1.65 -3.05,1.9 l -1.3,0.05 q -1.65,0.2 -3.45,-0.65 -1.85,-0.9 -3,-2.6 L 25,60.95 23.8,62.1 q -2.6,2.85 -4.3,3.95 -2.85,1.8 -5.5,1.45 l -1.65,-0.5 -1.2,-0.7 -0.2,-0.2 q -1,-0.85 -1.6,-1.9 L 9.25,64 9.15,63.8 8.75,62.4 q -0.2,-0.8 -0.05,-1.7 0.25,-2.65 2.7,-5.05 1.5,-1.3 4.9,-3.15 L 17.7,51.55 16.05,50 q -1.35,-1.5 -1.8,-3.6 -0.4,-1.85 0.25,-3.45 l 0.3,-1.25"
         fill="#000000"
         fill-opacity="0.372549"
         fill-rule="evenodd"
         stroke="none"
         id="path5" />
    </g>
  </defs>
</svg>
