<?xml version="1.0" encoding="UTF-8" standalone="no"?>
<svg
   ffdec:objectType="frame"
   height="73.561768"
   width="66.446617"
   version="1.1"
   id="svg4"
   xmlns:xlink="http://www.w3.org/1999/xlink"
   xmlns="http://www.w3.org/2000/svg"
   xmlns:svg="http://www.w3.org/2000/svg"
   xmlns:ffdec="https://www.free-decompiler.com/flash">
  <g
     transform="translate(36.089474,35.711765)"
     id="g1">
    <use
       ffdec:characterId="17"
       height="119.15"
       id="rarity"
       transform="translate(-58.5,-60.65)"
       width="119.15"
       xlink:href="#sprite0" />
    <use
       ffdec:characterId="268"
       height="73.75"
       transform="translate(-36.1,-35.7)"
       width="66.449997"
       xlink:href="#shape0"
       id="use1" />
  </g>
  <defs
     id="defs4">
    <g
       id="shape0"
       transform="translate(35.8,38.2)">
      <path
         d="M 23.45,-10.95 21.4,-15 19.8,-17.25 q -2.3,-3 -4.6,-4.4 l -2.3,-1.1 q -1.45,-0.65 -2.25,-1.15 l -1.9,-1.1 -2.7,-0.3 -5.55,0.45 q -3.35,0.6 -6.4,2.35 l 1.65,2.55 0.95,2.15 0.35,0.75 0.05,0.1 0.5,0.95 0.8,1.25 0.6,1.3 0.05,0.25 q 0.25,1.45 -0.6,2.7 -0.3,0.9 -1,1.55 L -3.2,-8.5 -4.45,-7.95 -7,-7 l -1.8,0.85 -4.7,1.9 -0.2,0.1 q -1.15,0.45 -2,0.75 l -1.2,0.35 -1.25,0.3 -0.2,3.15 q 0.35,6.85 7.8,13.2 l 3.3,2.45 Q -2.45,18.8 5.4,19 l 5.5,-0.45 Q 16.8,17.1 20.45,11 23.15,6.55 24.3,-0.8 l 0.35,-4.05 q 0,-3.1 -1.2,-6.1 m -40.2,27.9 Q -20.15,13.7 -22,10.55 -24.2,6.7 -24.6,1.7 l -0.1,-2.4 -0.85,0.35 -1.75,0.7 q -2.8,1.1 -4.25,1.4 L -33.8,1.8 q -1.3,-0.35 -1.8,-1.35 -0.6,-1.3 0.7,-3.55 3.05,-4.8 10.5,-9.55 l 2.6,-1.55 0.85,-1.6 -0.25,-1.1 q -0.5,-2.5 -2.7,-8.6 -1.9,-5.4 -2.3,-8.65 -0.2,-2.45 0.8,-3.4 0.8,-0.75 2.1,-0.65 0.8,0.05 2.2,0.65 3.05,1.35 5.35,3.2 2.45,1.9 5.85,6.4 l 0.45,0.6 0.4,-0.25 q 4.6,-2.45 9.9,-3.1 5.3,-0.6 10.35,0.65 6.35,1.5 10.65,5.55 1.9,1.75 4.25,5.1 2.3,3.35 3.35,6.2 1.3,3.75 1.2,9.1 -0.1,9.2 -3.4,16.05 -4.1,8.25 -11.45,11.55 -5.5,2.5 -13.2,1.8 0.15,3.35 -0.25,6.5 -0.1,1.4 -0.5,2.15 -0.55,1 -1.7,1.4 L -2,35.3 -3.95,33.75 -6.45,31.1 -7.9,32.3 q -0.9,0.75 -1.5,1.1 l -1.8,0.55 q -1,0.05 -1.7,-0.55 -0.9,-0.85 -0.9,-2.65 0,-2.15 -0.3,-2.9 -5.2,0.95 -8.05,-1.65 -1.65,-1.55 -1.1,-3.2 0.3,-0.9 2.05,-1.95 l 4.1,-2.35 q 0.75,-0.45 1.45,-0.75 l -1.1,-1 M 15.7,-4.9 q 0.5,1.55 0.25,2.45 -0.4,1.4 -1.8,1.9 -1.4,0.4 -2.55,-0.55 -0.45,-0.4 -0.85,-1.2 L 10.2,-3.65 9.6,-5.8 6.25,-5.35 4.2,-4.85 2.75,-4 Q 1.85,-3.5 1.2,-3.6 0.35,-3.7 -0.05,-4.45 -0.35,-5 -0.25,-5.8 0.05,-8.25 2.7,-9.75 3.75,-10.35 5.55,-10.8 H 5.6 l 1.95,-0.45 0.5,-0.1 L 7.1,-14.7 7,-17.3 7.05,-17.5 q 0.05,-1.25 0.4,-1.65 0.4,-0.5 1.1,-0.5 0.65,-0.05 1.1,0.4 l 0.6,0.95 2.45,6.05 2.45,-0.7 1.8,-0.75 0.6,-0.2 1.2,-0.15 q 1.75,0.15 2.4,1.85 0.6,1.6 -0.65,2.95 -0.4,0.4 -1.4,0.9 l -1.65,0.75 -2.5,0.8 0.6,1.45 0.15,0.45 M -3,24.4 q -3.7,-0.8 -6,-1.9 l -2.85,-1.55 -0.25,0.1 -1.4,0.65 -1.2,0.85 2,-0.1 q 1.1,0.05 1.85,0.5 1.1,0.75 1.8,3.35 l 0.65,-0.5 0.6,-0.55 q 0.6,-0.45 1.45,-0.5 0.8,0 1.5,0.4 0.95,0.5 2.35,2.1 L -2.7,24.5 -3,24.4"
         fill="#000000"
         fill-rule="evenodd"
         stroke="none"
         id="path1" />
      <path
         d="m -15.7,-3.4 q 0.85,-0.3 2,-0.75 l 0.2,-0.1 4.7,-1.9 L -7,-7 -4.45,-7.95 -3.2,-8.5 -2.55,-8.95 q 0.7,-0.65 1,-1.55 0.85,-1.25 0.6,-2.7 l -0.05,-0.25 -0.6,-1.3 -0.8,-1.25 -0.5,-0.95 -0.05,-0.1 -0.35,-0.75 -0.95,-2.15 -1.65,-2.55 q 3.05,-1.75 6.4,-2.35 l 5.55,-0.45 2.7,0.3 1.9,1.1 q 0.8,0.5 2.25,1.15 l 2.3,1.1 q 2.3,1.4 4.6,4.4 l 1.6,2.25 2.05,4.05 v 0.7 q -0.1,4.35 -2.5,7.55 L 17.6,0.75 Q 14.2,3.7 11.8,4.85 8.4,6.5 4.1,6.75 -2.45,7.05 -7.9,4.15 -13,1.35 -15.7,-3.4 m 31.4,-1.5 -0.15,-0.45 -0.6,-1.45 2.5,-0.8 1.65,-0.75 q 1,-0.5 1.4,-0.9 1.25,-1.35 0.65,-2.95 -0.65,-1.7 -2.4,-1.85 l -1.2,0.15 -0.6,0.2 -1.8,0.75 -2.45,0.7 -2.45,-6.05 -0.6,-0.95 q -0.45,-0.45 -1.1,-0.4 -0.7,0 -1.1,0.5 -0.35,0.4 -0.4,1.65 l -0.05,0.2 0.1,2.6 0.95,3.35 -0.5,0.1 -1.95,0.45 H 5.55 q -1.8,0.45 -2.85,1.05 -2.65,1.5 -2.95,3.95 -0.1,0.8 0.2,1.35 0.4,0.75 1.25,0.85 0.65,0.1 1.55,-0.4 l 1.45,-0.85 2.05,-0.5 3.35,-0.45 0.6,2.15 0.55,1.35 q 0.4,0.8 0.85,1.2 1.15,0.95 2.55,0.55 1.4,-0.5 1.8,-1.9 0.25,-0.9 -0.25,-2.45"
         fill="#414141"
         fill-rule="evenodd"
         stroke="none"
         id="path2" />
      <path
         d="m -15.7,-3.4 q 2.7,4.75 7.8,7.55 5.45,2.9 12,2.6 4.3,-0.25 7.7,-1.9 2.4,-1.15 5.8,-4.1 l 3.35,-3.45 q 2.4,-3.2 2.5,-7.55 v -0.7 q 1.2,3 1.2,6.1 L 24.3,-0.8 Q 23.15,6.55 20.45,11 16.8,17.1 10.9,18.55 L 5.4,19 Q -2.45,18.8 -7.25,16.05 l -3.3,-2.45 Q -18,7.25 -18.35,0.4 l 0.2,-3.15 1.25,-0.3 1.2,-0.35 m 12.7,27.8 0.3,0.1 0.2,2.75 q -1.4,-1.6 -2.35,-2.1 -0.7,-0.4 -1.5,-0.4 -0.85,0.05 -1.45,0.5 l -0.6,0.55 -0.65,0.5 q -0.7,-2.6 -1.8,-3.35 -0.75,-0.45 -1.85,-0.5 l -2,0.1 1.2,-0.85 1.4,-0.65 0.25,-0.1 2.85,1.55 q 2.3,1.1 6,1.9"
         fill="#262626"
         fill-rule="evenodd"
         stroke="none"
         id="path3" />
    </g>
    <g
       id="sprite1"
       transform="translate(17.4,15.85)">
      <use
         ffdec:characterId="31"
         height="57.200001"
         transform="matrix(0.5366,0,0,0.5366,-16.6582,-14.546)"
         width="70.75"
         xlink:href="#sprite2"
         id="use3" />
    </g>
    <g
       id="sprite2"
       transform="translate(-8.65,-10.35)">
      <use
         ffdec:characterId="30"
         height="57.200001"
         transform="translate(8.65,10.35)"
         width="70.75"
         xlink:href="#shape1"
         id="use4" />
    </g>
    <g
       id="shape1"
       transform="translate(-8.65,-10.35)">
      <path
         d="m 14.8,41.7 q 0.65,-1.75 2.65,-2.5 1.8,-0.8 3.7,-0.25 1.15,0.45 2.25,1.2 l 0.9,0.4 q 1.65,0.9 2.85,2.5 L 37.8,30.1 q 2.35,-2.8 3.75,-3.95 1.5,-1.15 4.25,-2.4 18.2,-8.85 27.65,-12.6 2.15,-0.8 3.25,-0.8 h 0.8 l 1.9,2.4 -0.2,0.8 q -0.2,1.1 -1.55,3 -5.85,8.25 -18.85,23.8 -1.85,2.35 -3.35,3.5 -1.4,1.15 -4.75,2.75 l -15.15,7.15 q 1.2,1.6 1.75,3.4 l 0.2,1 0.55,2.5 q 0.1,1.95 -1.1,3.55 -1.2,1.65 -3.05,1.9 l -1.3,0.05 q -1.65,0.2 -3.45,-0.65 -1.85,-0.9 -3,-2.6 L 25,60.95 23.8,62.1 q -2.6,2.85 -4.3,3.95 -2.85,1.8 -5.5,1.45 l -1.65,-0.5 -1.2,-0.7 -0.2,-0.2 q -1,-0.85 -1.6,-1.9 L 9.25,64 9.15,63.8 8.75,62.4 q -0.2,-0.8 -0.05,-1.7 0.25,-2.65 2.7,-5.05 1.5,-1.3 4.9,-3.15 L 17.7,51.55 16.05,50 q -1.35,-1.5 -1.8,-3.6 -0.4,-1.85 0.25,-3.45 l 0.3,-1.25"
         fill="#000000"
         fill-opacity="0.372549"
         fill-rule="evenodd"
         stroke="none"
         id="path4" />
    </g>
  </defs>
</svg>
