<?xml version="1.0" encoding="UTF-8" standalone="no"?>
<svg
   ffdec:objectType="frame"
   height="69.868179"
   width="70.366669"
   version="1.1"
   id="svg6"
   xmlns:xlink="http://www.w3.org/1999/xlink"
   xmlns="http://www.w3.org/2000/svg"
   xmlns:svg="http://www.w3.org/2000/svg"
   xmlns:ffdec="https://www.free-decompiler.com/flash">
  <g
     transform="translate(38.016667,32.05)"
     id="g1">
    <use
       ffdec:characterId="17"
       height="119.15"
       id="rarity"
       transform="translate(-58.5,-60.65)"
       width="119.15"
       xlink:href="#sprite0" />
    <use
       ffdec:characterId="561"
       height="69.900002"
       transform="translate(-38,-32.1)"
       width="70.349998"
       xlink:href="#shape0"
       id="use1" />
  </g>
  <defs
     id="defs6">
    <g
       id="shape0"
       transform="translate(37.6,31.3)">
      <path
         d="M -5.8,2.45 -6.55,1.7 -6.4,1.55 -6.25,1.4 -6.15,1.3 -6,1.15 l 0.1,-0.1 0.15,-0.15 0.1,-0.1 0.15,-0.15 0.1,-0.1 0.15,-0.15 0.1,-0.1 0.1,-0.1 0.15,-0.15 0.1,-0.1 0.15,-0.15 0.05,-0.15 0.1,-0.1 0.15,-0.15 0.1,-0.1 0.15,-0.15 0.1,-0.1 0.15,-0.15 0.1,-0.1 0.15,-0.15 0.1,-0.1 0.15,-0.15 0.1,-0.1 0.15,-0.15 0.1,-0.1 0.15,-0.15 0.1,-0.1 0.15,-0.15 0.1,-0.1 0.15,-0.15 0.1,-0.1 0.15,-0.15 0.1,-0.1 0.15,-0.15 0.1,-0.1 0.15,-0.15 0.05,-0.15 0.15,-0.15 0.1,-0.1 0.15,-0.15 0.1,-0.1 0.15,-0.15 0.1,-0.1 0.15,-0.15 0.1,-0.1 0.15,-0.15 0.1,-0.1 0.1,-0.1 L -0.05,-5 0.05,-5.1 0.2,-5.25 0.3,-5.35 0.45,-5.5 0.55,-5.6 0.7,-5.75 0.8,-5.85 0.95,-6 1.05,-6.1 1.2,-6.25 1.3,-6.35 1.45,-6.5 1.55,-6.6 1.7,-6.75 1.8,-6.85 1.95,-7 2.05,-7.1 2.2,-7.25 2.3,-7.35 2.45,-7.5 2.55,-7.6 2.7,-7.75 2.8,-7.85 2.95,-8 l 0.1,-0.1 0.15,-0.15 0.1,-0.1 0.15,-0.15 0.1,-0.1 0.15,-0.15 0.1,-0.1 0.1,-0.1 0.15,-0.15 0.1,-0.1 0.15,-0.15 0.1,-0.1 0.15,-0.15 0.1,-0.1 0.1,-0.1 0.15,-0.15 0.1,-0.1 0.15,-0.15 0.1,-0.1 0.15,-0.15 0.1,-0.1 0.15,-0.15 0.1,-0.1 0.15,-0.15 0.1,-0.1 0.15,-0.15 0.1,-0.1 0.15,-0.15 0.1,-0.1 0.1,-0.2 0.1,-0.1 0.15,-0.15 0.1,-0.1 0.15,-0.15 0.1,-0.1 0.15,-0.15 0.1,-0.1 0.15,-0.15 0.1,-0.1 0.15,-0.15 0.1,-0.1 0.15,-0.15 0.1,-0.1 0.15,-0.15 0.1,-0.1 0.15,-0.15 0.1,-0.1 0.1,-0.1 0.1,-0.2 h 0.2 l 1.3,0.3 0.2,0.2 1.65,1.65 2.35,2.25 0.75,0.65 0.1,0.1 0.05,0.25 0.1,0.7 -0.05,0.05 -0.05,0.15 -0.05,0.05 -0.1,0.1 -0.15,0.15 -0.1,0.1 -0.1,0.1 -0.15,0.15 -0.1,0.1 -0.15,0.15 -0.1,0.1 -0.1,0.1 -0.05,-0.05 -0.45,-0.55 -1.5,-1.1 -1.45,-1.05 -1.1,-1 -0.05,-0.05 q -0.65,-0.55 -1.3,-0.6 l -0.8,0.2 Q 7.05,-10.7 6.25,-9.9 L -4.4,0.55 q -1.2,1 -1.4,1.9 M -9,6.35 -10.05,5.3 -9.95,5.2 -9.8,5.05 -9.7,4.95 -9.55,4.8 -9.45,4.7 -9.3,4.6 -9.25,4.4 -9.15,4.3 -9,4.15 -8.9,4.05 -8.75,3.9 -8.65,3.8 -8.5,3.65 -8.4,3.55 -8.25,3.4 -8.15,3.3 -8,3.15 -7.9,3.05 -7.75,2.9 -7.7,2.85 -6.15,4.4 -7,4.45 q -0.8,0.2 -1.4,0.8 -0.5,0.5 -0.6,1.1"
         fill="#ffffff"
         fill-rule="evenodd"
         stroke="none"
         id="path1" />
      <path
         d="m 20.5,-8.85 0.15,0.45 0.05,0.25 0.05,0.35 v 0.2 0.2 l -0.1,0.2 -0.05,0.15 -0.1,0.2 -0.05,0.15 -0.1,0.2 -0.1,0.1 -0.15,0.15 -0.1,0.1 -0.15,0.15 -0.1,0.1 -0.15,0.15 -0.1,0.1 -0.15,0.15 -0.1,0.1 -0.15,0.15 -0.1,0.1 -0.15,0.15 -0.1,0.1 -0.15,0.15 -0.1,0.1 -0.15,0.15 -0.1,0.1 -0.15,0.15 -0.1,0.1 -0.15,0.15 -0.1,0.1 -0.15,0.15 -0.1,0.1 -0.15,0.15 -0.1,0.1 -0.15,0.15 -0.1,0.1 -0.15,0.15 -0.1,0.1 -0.1,0.1 -0.15,0.15 -0.1,0.1 -0.15,0.15 -0.1,0.1 -0.1,0.1 -0.15,0.15 -0.1,0.1 -0.15,0.15 -0.1,0.1 -0.15,0.15 -0.1,0.1 -0.15,0.15 -0.1,0.1 -0.15,0.15 -0.1,0.1 -0.15,0.15 -0.15,0.15 -0.1,0.1 -0.15,0.15 -0.1,0.1 L 14,-0.15 13.9,-0.05 13.75,0.1 13.65,0.2 13.5,0.35 13.4,0.45 13.25,0.6 13.15,0.7 13,0.85 12.9,0.95 12.75,1.1 12.65,1.2 12.55,1.3 12.4,1.45 12.3,1.55 12.15,1.7 12.05,1.8 11.9,1.9 11.8,2.05 11.7,2.15 11.55,2.3 11.4,2.35 11.25,2.5 11.15,2.6 11,2.75 10.9,2.85 10.75,3 10.65,3.1 10.5,3.25 10.4,3.35 10.25,3.5 10.15,3.6 10,3.75 9.9,3.85 9.75,4 9.65,4.1 9.5,4.25 9.4,4.35 9.25,4.5 9.15,4.6 9,4.75 8.9,4.85 8.75,5 8.65,5.1 8.5,5.25 8.4,5.35 8.25,5.5 8.15,5.6 8,5.75 7.9,5.85 7.75,6 7.65,6.1 7.55,6.2 7.4,6.35 7.3,6.45 7.15,6.6 7.05,6.7 6.95,6.8 6.8,6.95 6.7,7.05 6.55,7.2 6.45,7.3 6.3,7.45 6.2,7.55 6.05,7.7 5.95,7.8 5.8,7.95 5.7,8.05 5.55,8.2 5.45,8.3 5.3,8.45 5.15,8.6 5.05,8.7 4.9,8.85 4.8,8.95 4.65,9.1 4.55,9.2 4.4,9.35 4.25,9.4 4.1,9.55 4,9.65 3.85,9.8 3.75,9.9 3.6,10.05 3.5,10.15 3.4,10.25 3.25,10.4 3.15,10.5 3,10.65 2.9,10.75 2.75,10.9 2.65,11 2.55,11.1 2.4,11.25 2.3,11.35 2.15,11.5 2.05,11.6 1.9,11.75 1.8,11.85 1.65,12 1.55,12.1 1.4,12.25 1.3,12.35 1.15,12.5 1.05,12.6 0.9,12.75 0.8,12.85 0.65,13 l -0.1,0.1 -0.15,0.15 -0.1,0.1 -0.15,0.15 -0.1,0.1 -0.15,0.15 -0.1,0.1 -0.15,0.15 -0.1,0.1 -0.15,0.15 -0.1,0.1 -0.15,0.15 -0.1,0.1 -0.15,0.15 -0.1,0.1 -0.15,0.15 -0.1,0.1 -0.1,0.1 -0.15,0.15 -0.1,0.1 -0.15,0.15 -0.1,0.1 -0.15,0.15 -0.1,0.1 0.05,0.25 0.9,9.1 q 0.45,4.65 0.25,7.25 l -0.2,2.3 q 0.05,1.45 -0.15,1.85 -0.2,0.5 -0.7,0.7 l -1,0.1 -1.4,-0.6 -3.3,-2.4 -0.15,0.15 -4.95,3.45 q -0.55,0.45 -1,0.5 -0.6,0.1 -1.05,-0.35 l -0.75,-1.15 -0.25,-1.25 -0.25,-1.25 -0.5,-1.2 -0.05,-0.35 -1.3,0.1 -2.75,0.25 -1.95,0.25 q -1.25,-0.05 -1.75,-0.85 l -0.35,-1.15 0.05,-1.35 -0.25,-1.75 -0.05,-0.25 -0.25,0.05 -0.8,-0.6 -0.3,-0.5 -0.1,-0.6 -0.2,-0.4 -0.75,-0.15 -1.7,-0.2 -1.35,0.05 -1.2,-0.4 q -0.75,-0.45 -0.85,-1.75 l 0.25,-1.95 q 0.25,-1.25 0.25,-2.75 l 0.15,-1.25 -0.4,-0.1 -1.2,-0.5 -1.25,-0.25 -1.2,-0.2 -1.15,-0.75 q -0.5,-0.5 -0.4,-1.1 l 0.5,-1 3.5,-4.9 0.15,-0.15 -2.4,-3.3 -0.6,-1.4 q -0.15,-0.45 0.1,-1 0.15,-0.55 0.65,-0.75 l 1.85,-0.15 2.35,-0.15 7.25,0.25 9.1,0.9 0.5,0.1 0.15,-0.15 0.1,-0.1 v -0.1 l 0.1,-0.1 0.15,-0.15 0.1,-0.1 0.15,-0.15 0.1,-0.1 0.15,-0.15 0.1,-0.1 0.15,-0.15 0.1,-0.1 0.15,-0.15 0.1,-0.1 0.15,-0.15 0.1,-0.1 0.15,-0.15 0.1,-0.1 0.2,-0.1 0.1,-0.1 0.15,-0.15 0.1,-0.1 0.15,-0.15 0.1,-0.1 0.15,-0.15 0.1,-0.1 0.15,-0.15 0.1,-0.1 0.1,-0.1 0.15,-0.15 0.1,-0.1 0.15,-0.15 0.1,-0.1 0.15,-0.15 0.1,-0.1 0.15,-0.15 0.1,-0.1 0.15,-0.15 0.1,-0.1 0.15,-0.15 0.1,-0.1 0.15,-0.15 0.1,-0.1 0.15,-0.15 0.1,-0.1 0.15,-0.15 0.1,-0.1 0.15,-0.15 0.1,-0.1 0.15,-0.15 0.1,-0.1 0.15,-0.15 0.1,-0.1 0.15,-0.15 0.1,-0.1 0.15,-0.15 h 0.2 l 0.15,-0.15 0.1,-0.1 0.15,-0.15 0.1,-0.1 0.15,-0.15 0.1,-0.1 0.1,-0.1 0.15,-0.15 0.1,-0.1 0.15,-0.15 0.1,-0.1 0.1,-0.1 0.15,-0.15 0.1,-0.1 0.15,-0.15 0.1,-0.1 0.15,-0.15 0.1,-0.1 0.15,-0.15 0.1,-0.1 0.15,-0.15 0.1,-0.1 0.15,-0.15 0.1,-0.1 0.15,-0.15 0.1,-0.1 0.15,-0.15 0.1,-0.1 0.15,-0.15 0.1,-0.1 0.15,-0.15 0.1,-0.1 0.15,-0.15 0.1,-0.1 0.15,-0.15 0.1,-0.1 0.15,-0.15 0.1,-0.1 0.15,-0.15 0.1,-0.1 0.15,-0.15 0.1,-0.1 0.15,-0.15 0.1,-0.1 0.15,-0.15 0.1,-0.1 0.1,-0.1 0.15,-0.15 0.1,-0.1 0.15,-0.15 0.1,-0.1 0.1,-0.1 0.15,-0.15 0.15,-0.15 0.1,-0.1 0.15,-0.15 0.1,-0.1 0.15,-0.15 0.1,-0.1 0.15,-0.15 0.1,-0.1 0.15,-0.15 0.1,-0.1 0.2,-0.1 0.1,-0.1 0.15,-0.15 0.1,-0.1 0.15,-0.15 0.1,-0.1 0.15,-0.15 0.1,-0.1 0.15,-0.15 0.1,-0.1 0.15,-0.15 0.1,-0.1 0.15,-0.15 0.1,-0.1 0.15,-0.15 0.1,-0.1 0.1,-0.1 0.15,-0.15 0.1,-0.1 0.15,-0.15 0.1,-0.1 0.15,-0.15 0.1,-0.1 0.1,-0.1 0.15,-0.15 0.1,-0.1 0.15,-0.15 0.15,-0.05 0.15,-0.15 0.1,-0.1 0.15,-0.15 0.1,-0.1 0.15,-0.15 0.1,-0.1 0.15,-0.15 0.1,-0.1 0.15,-0.15 0.1,-0.1 0.15,-0.15 0.1,-0.1 0.15,-0.15 0.1,-0.1 0.15,-0.15 0.1,-0.1 0.15,-0.15 0.1,-0.1 0.15,-0.15 0.1,-0.1 0.15,-0.15 0.1,-0.1 0.15,-0.15 0.1,-0.1 0.15,-0.15 0.15,-0.05 0.1,-0.2 0.1,-0.1 0.05,-0.15 0.15,-0.15 0.1,-0.1 0.15,-0.15 0.1,-0.1 0.15,-0.05 0.15,-0.15 0.25,0.05 0.15,-0.15 0.1,-0.1 0.15,-0.15 0.15,-0.05 0.15,-0.05 0.15,-0.15 h 0.2 0.3 0.2 l 0.25,0.05 0.35,0.05 0.25,0.05 0.1,0.1 0.25,0.05 0.35,0.35 0.05,-0.05 1.25,1.35 q 1,-1.2 1.7,-1.4 1.25,-0.25 2.4,0.8 l 0.35,0.35 0.15,-0.15 0.1,-0.1 0.15,-0.15 0.1,-0.1 0.2,-0.1 0.1,-0.1 0.15,-0.15 0.15,-0.05 0.15,-0.15 0.1,-0.1 0.2,-0.1 0.1,-0.1 0.15,-0.15 0.1,-0.1 0.15,-0.15 0.1,-0.1 0.15,-0.15 0.1,-0.1 0.15,-0.15 0.15,-0.05 0.15,-0.15 0.05,-0.15 0.1,-0.15 0.15,-0.1 0.1,-0.1 0.15,-0.15 0.15,-0.05 0.15,-0.15 0.1,-0.1 0.15,-0.15 0.1,-0.1 0.15,-0.15 0.1,-0.1 0.15,-0.15 0.1,-0.1 0.15,-0.15 0.1,-0.1 0.15,-0.15 0.1,-0.1 0.15,-0.15 0.1,-0.1 0.15,-0.15 0.15,-0.05 0.15,-0.15 0.1,-0.1 0.15,-0.15 0.15,-0.05 0.15,-0.15 0.1,-0.1 0.15,-0.15 0.1,-0.1 0.15,-0.15 0.1,-0.1 q 0.1,0 0.2,-0.1 l 0.1,-0.1 0.15,-0.15 0.15,-0.05 0.1,-0.1 0.15,-0.15 0.1,-0.1 0.15,-0.15 0.1,-0.1 0.1,-0.15 0.15,-0.1 0.1,-0.1 0.15,-0.15 0.15,-0.05 0.15,-0.15 0.1,-0.1 0.15,-0.15 0.1,-0.1 0.15,-0.15 0.1,-0.1 0.2,-0.1 0.1,-0.1 0.15,-0.15 0.1,-0.1 0.15,-0.15 0.1,-0.1 0.15,-0.15 0.1,-0.1 0.2,-0.1 0.1,-0.1 0.15,-0.15 0.1,-0.1 0.15,-0.15 0.1,-0.1 0.15,-0.15 0.1,-0.1 0.15,-0.15 0.1,-0.1 0.15,-0.15 0.15,-0.05 0.15,-0.15 0.1,-0.1 0.15,-0.15 0.1,-0.1 0.1,-0.1 0.15,-0.15 0.1,-0.1 0.2,-0.1 0.1,-0.1 0.15,-0.15 0.1,-0.1 0.15,-0.15 0.15,-0.05 0.15,-0.15 0.1,-0.1 0.15,-0.15 0.1,-0.1 0.1,-0.2 0.1,-0.1 0.2,-0.1 h 0.2 l 0.3,0.2 0.2,0.3 0.05,0.25 -0.15,0.15 -0.05,0.15 -0.2,0.1 -0.1,0.1 -0.15,0.15 -0.1,0.1 -0.15,0.15 -0.05,0.15 -0.15,0.15 -0.1,0.1 -0.15,0.15 -0.1,0.1 -0.1,0.2 -0.1,0.1 -0.15,0.15 -0.1,0.1 -0.1,0.1 -0.15,0.15 -0.1,0.1 -0.15,0.15 -0.1,0.1 -0.15,0.15 -0.1,0.1 -0.15,0.15 -0.1,0.1 -0.15,0.15 -0.1,0.1 -0.15,0.15 -0.1,0.1 -0.15,0.15 -0.1,0.1 -0.15,0.15 v 0.2 l -0.15,0.15 -0.1,0.1 -0.15,0.15 -0.1,0.1 -0.15,0.15 -0.1,0.1 -0.15,0.15 -0.1,0.1 -0.15,0.15 -0.05,0.15 -0.15,0.15 -0.1,0.1 -0.15,0.15 -0.1,0.1 -0.1,0.2 -0.1,0.1 -0.15,0.1 -0.1,0.15 -0.1,0.1 -0.15,0.15 -0.1,0.1 -0.15,0.15 -0.1,0.1 -0.05,0.15 -0.15,0.15 -0.1,0.1 -0.15,0.15 -0.1,0.1 -0.15,0.15 -0.1,0.1 -0.15,0.15 -0.1,0.1 -0.15,0.15 v 0.2 l -0.15,0.15 -0.1,0.1 -0.15,0.15 -0.1,0.1 -0.15,0.15 -0.1,0.1 -0.15,0.15 -0.1,0.1 -0.15,0.15 -0.1,0.1 -0.15,0.15 -0.1,0.1 -0.15,0.15 -0.1,0.1 -0.1,0.2 -0.1,0.1 -0.15,0.15 -0.1,0.1 -0.15,0.15 -0.1,0.1 -0.1,0.2 -0.1,0.1 -0.15,0.1 -0.15,0.1 -0.1,0.1 -0.15,0.15 -0.05,0.15 -0.15,0.15 -0.1,0.1 -0.15,0.15 -0.1,0.1 -0.15,0.15 -0.1,0.1 -0.15,0.15 -0.1,0.1 -0.15,0.15 -0.05,0.15 -0.15,0.15 -0.1,0.1 -0.15,0.15 -0.1,0.1 -0.05,0.25 -0.1,0.1 -0.15,0.15 -0.1,0.1 -0.15,0.15 -0.05,0.05 0.3,0.4 0.6,1.3 q 0.1,0.9 -1.3,2.3 l -0.3,0.3 0.2,0.2 0.6,0.6 0.35,0.45 0.15,0.35 0.15,0.15 0.15,0.35 0.1,0.2 0.15,0.25 m -4.9,0.8 -0.1,-0.7 L 15.45,-9 15.35,-9.1 14.6,-9.75 12.25,-12 l -1.65,-1.65 -0.2,-0.2 -1.3,-0.3 H 8.9 l -0.1,0.2 -0.1,0.1 -0.1,0.1 -0.15,0.15 -0.1,0.1 -0.15,0.15 -0.1,0.1 -0.15,0.15 -0.1,0.1 -0.15,0.15 -0.1,0.1 -0.15,0.15 -0.1,0.1 -0.15,0.15 -0.1,0.1 -0.15,0.15 -0.1,0.1 -0.15,0.15 -0.1,0.1 -0.1,0.2 -0.1,0.1 -0.15,0.15 -0.1,0.1 -0.15,0.15 -0.1,0.1 -0.15,0.15 -0.1,0.1 -0.15,0.15 -0.1,0.1 -0.15,0.15 -0.1,0.1 -0.15,0.15 -0.1,0.1 -0.15,0.15 -0.1,0.1 -0.1,0.1 -0.15,0.15 -0.1,0.1 -0.15,0.15 -0.1,0.1 -0.15,0.15 -0.1,0.1 -0.1,0.1 L 3.55,-8.6 3.45,-8.5 3.3,-8.35 3.2,-8.25 3.05,-8.1 2.95,-8 2.8,-7.85 2.7,-7.75 2.55,-7.6 2.45,-7.5 2.3,-7.35 2.2,-7.25 2.05,-7.1 1.95,-7 1.8,-6.85 1.7,-6.75 1.55,-6.6 1.45,-6.5 1.3,-6.35 1.2,-6.25 1.05,-6.1 0.95,-6 0.8,-5.85 l -0.1,0.1 -0.15,0.15 -0.1,0.1 -0.15,0.15 -0.1,0.1 -0.15,0.15 -0.1,0.1 -0.15,0.15 -0.1,0.1 -0.1,0.1 -0.15,0.15 -0.1,0.1 -0.15,0.15 -0.1,0.1 -0.15,0.15 -0.1,0.1 -0.15,0.15 -0.1,0.1 -0.15,0.15 -0.05,0.15 -0.15,0.15 -0.1,0.1 -0.15,0.15 -0.1,0.1 -0.15,0.15 -0.1,0.1 -0.15,0.15 -0.1,0.1 -0.15,0.15 -0.1,0.1 -0.15,0.15 -0.1,0.1 -0.15,0.15 -0.1,0.1 -0.15,0.15 -0.1,0.1 -0.15,0.15 -0.1,0.1 -0.15,0.15 -0.1,0.1 -0.15,0.15 -0.1,0.1 -0.15,0.15 -0.1,0.1 -0.05,0.15 -0.15,0.15 -0.1,0.1 -0.15,0.15 -0.1,0.1 -0.1,0.1 -0.15,0.15 -0.1,0.1 -0.15,0.15 -0.1,0.1 -0.15,0.15 -0.1,0.1 -0.15,0.15 -0.1,0.1 -0.15,0.15 -0.15,0.15 0.75,0.75 1.5,1.5 0.1,0.1 1.3,1.2 0.25,0.25 0.7,0.6 0.35,0.25 0.5,0.5 0.05,-0.05 0.2,0.2 0.3,0.3 0.5,0.5 L 0.15,7.6 0.3,7.45 0.4,7.35 0.55,7.2 0.65,7.1 0.8,6.95 0.9,6.85 1.05,6.7 1.15,6.6 1.25,6.5 1.4,6.35 1.5,6.25 1.65,6.1 1.75,6 1.85,5.9 2,5.75 2.1,5.65 2.25,5.5 2.35,5.4 2.5,5.25 2.6,5.15 2.75,5 2.85,4.9 3,4.75 3.1,4.65 3.25,4.5 3.35,4.4 3.5,4.25 3.6,4.15 3.75,4 3.85,3.9 4,3.75 4.1,3.65 4.25,3.5 4.35,3.4 4.5,3.25 4.6,3.15 4.75,3 4.85,2.9 5,2.75 5.1,2.65 5.25,2.5 5.35,2.4 5.5,2.25 5.6,2.15 5.75,2 5.85,1.9 6,1.75 6.1,1.65 6.2,1.55 6.35,1.4 6.45,1.3 6.6,1.15 6.7,1.05 6.85,0.9 6.95,0.8 7.1,0.65 7.2,0.55 7.35,0.4 7.45,0.3 7.6,0.15 7.7,0.05 7.85,-0.1 7.95,-0.2 8.1,-0.35 8.2,-0.45 8.3,-0.65 8.4,-0.75 8.55,-0.9 8.65,-1 8.8,-1.15 8.9,-1.25 9.05,-1.4 9.15,-1.5 9.3,-1.65 9.4,-1.75 9.55,-1.9 9.65,-2 9.8,-2.15 l 0.1,-0.1 0.15,-0.15 0.1,-0.1 0.1,-0.1 0.15,-0.15 0.1,-0.1 0.15,-0.15 0.1,-0.1 0.15,-0.15 0.1,-0.1 0.1,-0.1 0.15,-0.15 0.1,-0.1 0.15,-0.15 0.1,-0.1 0.15,-0.15 0.1,-0.1 0.15,-0.15 0.1,-0.1 0.15,-0.15 0.1,-0.1 0.15,-0.15 0.1,-0.1 0.15,-0.15 0.1,-0.1 0.15,-0.15 0.1,-0.1 0.15,-0.15 0.1,-0.1 0.15,-0.15 0.1,-0.1 0.15,-0.15 0.1,-0.1 0.15,-0.15 0.1,-0.1 0.15,-0.15 0.1,-0.1 0.05,-0.05 0.1,-0.1 0.1,-0.1 0.15,-0.15 0.1,-0.1 0.15,-0.15 0.1,-0.1 0.1,-0.1 0.15,-0.15 0.1,-0.1 0.05,-0.05 0.1,-0.1 v -0.1 M -6.15,4.4 -7.7,2.85 -7.75,2.9 -7.9,3.05 -8,3.15 -8.15,3.3 -8.25,3.4 -8.4,3.55 -8.5,3.65 -8.65,3.8 -8.75,3.9 -8.9,4.05 -9,4.15 -9.15,4.3 l -0.1,0.1 -0.05,0.2 -0.15,0.1 -0.1,0.1 -0.15,0.15 -0.1,0.1 -0.15,0.15 -0.1,0.1 1.05,1.05 1.45,1.45 3.25,3.25 0.5,0.5 0.1,-0.1 0.15,-0.15 0.1,-0.1 0.15,-0.15 0.1,-0.1 0.15,-0.1 0.1,-0.15 0.1,-0.1 0.15,-0.15 0.1,-0.1 0.15,-0.15 0.1,-0.1 L -2.2,9.95 -2.1,9.85 -1.95,9.7 -1.85,9.6 -1.7,9.45 -1.6,9.35 -1.55,9.3 -2.05,8.8 -2.4,8.45 -2.55,8.3 -3.2,7.55 -3.25,7.4 -4.05,6.5 -4.3,6.25 l -1,-1 -0.85,-0.85 m -3.5,11 0.75,-2.25 0.1,-0.2 -0.2,-0.2 -0.3,-0.3 -0.9,0.6 -1.1,0.9 -1.65,1.55 -3.1,2.5 -2.8,2.6 -0.7,0.5 -0.9,0.7 -0.35,0.25 -0.35,-0.35 0.2,-0.2 0.75,-1.05 0.35,-0.45 0.7,-0.8 0.5,-0.5 0.5,-0.5 0.15,-0.25 0.9,-1.1 1.7,-2.1 1.2,-1.3 0.1,-0.2 1.25,-1.35 0.7,-0.7 0.8,-0.9 -0.85,-0.85 -1.85,0.05 -0.05,0.05 -0.15,-0.05 h -0.3 l -0.35,0.05 h -0.1 -0.2 l -0.65,0.05 -1.05,0.15 -0.05,0.05 -1.7,-0.1 -2,-0.1 -4.85,-0.15 -0.65,0.05 -0.55,-0.15 q -0.4,0.2 -0.7,0 l -0.2,-0.3 v -0.3 l 0.5,-0.5 0.65,-0.05 2.35,-0.25 8.95,-1.75 -0.1,-0.2 -7.6,-0.5 q -5.7,-0.4 -8.9,0.2 1.7,1.7 1.5,3 l -0.05,0.25 -0.45,0.75 -0.3,0.2 -0.05,0.15 -0.35,0.65 -0.05,0.25 -1.75,3.05 1.45,0.45 q 1.3,0.4 1.7,1 0.5,0.6 0.25,1.35 l 0.25,0.15 q 0.55,0.55 0.75,1.65 0.15,1.15 -0.1,2.4 -0.3,1.1 0.05,1.45 l 1.05,0.25 q 1.1,0.1 2,0.6 0.85,0.35 1.25,1.05 0.25,0.05 0.6,0.4 l 0.75,0.95 q 0.65,0.35 1,1.2 0.5,0.9 0.6,2 l 0.25,1.05 q 0.35,0.35 1.4,0 l 2.45,-0.05 q 1.1,0.2 1.65,0.75 l 0.1,0.2 q 0.8,-0.2 1.4,0.3 0.6,0.4 1,1.7 l 0.45,1.45 3.95,-2.15 0.15,-0.05 q 0.4,-0.7 1.2,-0.8 1.3,-0.2 3,1.5 0.6,-3.2 0.2,-8.9 L -4.95,16.4 -4.8,16.35 -4.85,16.3 -5.2,15.95 -5.55,15.6 -5.7,15.55 l -0.4,-0.2 -0.05,0.05 -0.15,0.15 -0.8,1.7 -0.85,1.05 -1.35,2.65 -0.5,1.1 -1.65,2.95 -2,3.4 -0.15,-0.65 v -0.4 l 0.05,-1.45 0.2,-0.7 0.3,-0.5 0.35,-1.25 0.5,-1.6 0.5,-1.5 0.15,-1.05 0.4,-0.6 0.3,-0.7 0.55,-1.35 0.1,-0.1 0.4,-0.7 0.15,-0.45"
         fill="#000000"
         fill-rule="evenodd"
         stroke="none"
         id="path2" />
      <path
         d="m -5.8,2.45 q 0.2,-0.9 1.4,-1.9 L 6.25,-9.9 q 0.8,-0.8 1.45,-1.05 l 0.8,-0.2 q 0.65,0.05 1.3,0.6 l 0.05,0.05 1.1,1 1.45,1.05 1.5,1.1 0.45,0.55 0.05,0.05 -0.05,0.05 -0.1,0.1 -0.15,0.15 -0.1,0.1 -0.15,0.15 -0.1,0.1 -0.15,0.15 -0.1,0.1 -0.15,0.15 -0.1,0.1 -0.15,0.15 -0.1,0.1 -0.15,0.15 -0.1,0.1 -0.15,0.15 -0.1,0.1 -0.15,0.15 -0.1,0.1 -0.15,0.15 -0.1,0.1 -0.15,0.15 -0.1,0.1 -0.15,0.15 -0.1,0.1 -0.15,0.15 -0.1,0.1 -0.15,0.15 -0.1,0.1 -0.1,0.1 -0.15,0.15 -0.1,0.1 -0.15,0.15 -0.1,0.1 -0.15,0.15 -0.1,0.1 -0.1,0.1 L 9.9,-2.25 9.8,-2.15 9.65,-2 9.55,-1.9 9.4,-1.75 9.3,-1.65 9.15,-1.5 9.05,-1.4 8.9,-1.25 8.8,-1.15 8.65,-1 8.55,-0.9 8.4,-0.75 8.3,-0.65 8.2,-0.45 8.1,-0.35 7.95,-0.2 7.85,-0.1 7.7,0.05 7.6,0.15 7.45,0.3 7.35,0.4 7.2,0.55 7.1,0.65 6.95,0.8 6.85,0.9 6.7,1.05 6.6,1.15 6.45,1.3 6.35,1.4 6.2,1.55 6.1,1.65 6,1.75 5.85,1.9 5.75,2 5.6,2.15 5.5,2.25 5.35,2.4 5.25,2.5 5.1,2.65 5,2.75 4.85,2.9 4.75,3 4.6,3.15 4.5,3.25 4.35,3.4 4.25,3.5 4.1,3.65 4,3.75 3.85,3.9 3.75,4 3.6,4.15 3.5,4.25 3.35,4.4 3.25,4.5 3.1,4.65 3,4.75 2.85,4.9 2.75,5 2.6,5.15 2.5,5.25 2.35,5.4 2.25,5.5 2.1,5.65 2,5.75 1.85,5.9 1.75,6 1.65,6.1 1.5,6.25 1.4,6.35 1.25,6.5 1.15,6.6 1.05,6.7 0.9,6.85 0.8,6.95 0.65,7.1 0.55,7.2 0.4,7.35 0.3,7.45 0.15,7.6 -0.05,7.8 -0.55,7.3 -0.85,7 -1.05,6.8 -1.1,6.85 -1.6,6.35 -1.95,6.1 -2.65,5.5 -2.9,5.25 -4.2,4.05 -4.3,3.95 -5.8,2.45 M 0.5,2.35 0.7,2.25 1.45,1.5 1.4,1.45 0.8,1.95 0.5,2.35 m -9.5,4 q 0.1,-0.6 0.6,-1.1 0.6,-0.6 1.4,-0.8 l 0.85,-0.05 0.85,0.85 1,1 0.25,0.25 0.8,0.9 0.05,0.15 0.65,0.75 0.15,0.15 0.35,0.35 0.5,0.5 -0.05,0.05 -0.1,0.1 -0.15,0.15 -0.1,0.1 -0.15,0.15 -0.1,0.1 -0.15,0.15 -0.1,0.1 -0.15,0.15 -0.1,0.1 -0.15,0.15 -0.1,0.1 -0.1,0.15 -0.15,0.1 -0.1,0.1 -0.15,0.15 -0.1,0.1 -0.15,0.15 -0.1,0.1 -0.5,-0.5 L -7.55,7.8 -9,6.35"
         fill="#ababab"
         fill-rule="evenodd"
         stroke="none"
         id="path3" />
      <path
         d="m -27.6,9.05 0.2,0.3 q 0.3,0.2 0.7,0 l 0.55,0.15 0.65,-0.05 4.85,0.15 2,0.1 1.7,0.1 0.05,-0.05 1.05,-0.15 0.65,-0.05 h 0.2 0.1 l 0.35,-0.05 h 0.3 l 0.15,0.05 0.05,-0.05 1.85,-0.05 0.85,0.85 -0.8,0.9 -0.7,0.7 -1.25,1.35 -0.1,0.2 -1.2,1.3 -1.7,2.1 -0.9,1.1 -0.15,0.25 -0.5,0.5 -0.5,0.5 -0.7,0.8 -0.35,0.45 -0.75,1.05 -0.2,0.2 0.35,0.35 0.35,-0.25 0.9,-0.7 0.7,-0.5 2.8,-2.6 3.1,-2.5 1.65,-1.55 1.1,-0.9 0.9,-0.6 0.3,0.3 0.2,0.2 -0.1,0.2 -0.75,2.25 -0.15,0.05 -0.3,0.7 -0.1,0.4 -0.1,0.1 -0.55,1.35 -0.3,0.7 -0.4,0.6 -0.15,1.05 -0.5,1.5 -0.5,1.6 -0.35,1.25 -0.3,0.5 -0.2,0.7 -0.05,1.45 v 0.4 l -0.45,-0.15 q -0.45,-0.25 -0.7,-1 l -0.25,-1.05 0.5,-3.3 0.75,-2.85 0.35,-1.45 -1.2,0.7 -2.9,1.8 -1.3,0.8 -0.75,0.25 -0.7,0.6 q -0.45,0.45 -0.85,0.35 l -0.1,0.2 q -0.1,0.4 -0.45,0.45 -0.45,0.05 -0.5,-0.4 -0.2,-0.3 0,-0.8 l 0.7,-1.1 -0.05,-0.55 0.25,-0.85 0.05,-0.15 0.35,-0.95 0.2,-0.3 2,-4.6 -5.4,-0.8 -2.3,-0.4 -1.85,-0.15 -1.4,-0.5 -0.95,-0.45 h -0.2 l -0.75,-0.15 0.05,-0.25 0.35,-0.65 0.05,-0.15 0.3,-0.2 0.45,-0.75 2.7,0.1 m 22.4,6.9 -0.2,1.3 -0.45,3.15 -0.05,1.55 -0.4,1.4 -0.2,1.5 q -0.2,1.4 -0.55,2.35 l -0.35,0.95 -0.1,0.7 -0.45,0.45 Q -8.4,29.4 -8.6,28.95 l -0.15,-0.85 -0.1,-2.3 -0.35,-1.75 -0.1,-3.1 1.35,-2.65 0.85,-1.05 0.8,-1.7 0.15,-0.15 0.05,-0.05 0.4,0.2 0.15,0.05 0.35,0.35"
         fill="#6d4343"
         fill-rule="evenodd"
         stroke="none"
         id="path4" />
      <path
         d="m -27.6,9.05 -2.7,-0.1 0.05,-0.25 q 0.2,-1.3 -1.5,-3 3.2,-0.6 8.9,-0.2 l 7.6,0.5 0.1,0.2 -8.95,1.75 -2.35,0.25 -0.65,0.05 -0.5,0.5 v 0.3 m -3.9,1.9 0.75,0.15 h 0.2 l 0.95,0.45 1.4,0.5 1.85,0.15 2.3,0.4 5.4,0.8 -2,4.6 -0.2,0.3 -0.35,0.95 -0.05,0.15 -0.25,0.85 0.05,0.55 -0.7,1.1 q -0.2,0.5 0,0.8 0.05,0.45 0.5,0.4 0.35,-0.05 0.45,-0.45 l 0.1,-0.2 q 0.4,0.1 0.85,-0.35 l 0.7,-0.6 0.75,-0.25 1.3,-0.8 2.9,-1.8 1.2,-0.7 -0.35,1.45 -0.75,2.85 -0.5,3.3 0.25,1.05 q 0.25,0.75 0.7,1 l 0.45,0.15 0.15,0.65 2,-3.4 1.65,-2.95 0.5,-1.1 0.1,3.1 0.35,1.75 0.1,2.3 0.15,0.85 q 0.2,0.45 0.65,0.35 l 0.45,-0.45 0.1,-0.7 0.35,-0.95 q 0.35,-0.95 0.55,-2.35 l 0.2,-1.5 0.4,-1.4 0.05,-1.55 0.45,-3.15 0.2,-1.3 0.35,0.35 0.05,0.05 -0.15,0.05 0.5,7.5 q 0.4,5.7 -0.2,8.9 -1.7,-1.7 -3,-1.5 -0.8,0.1 -1.2,0.8 L -9,32.15 -12.95,34.3 -13.4,32.85 q -0.4,-1.3 -1,-1.7 -0.6,-0.5 -1.4,-0.3 l -0.1,-0.2 Q -16.45,30.1 -17.55,29.9 L -20,29.95 q -1.05,0.35 -1.4,0 l -0.25,-1.05 q -0.1,-1.1 -0.6,-2 -0.35,-0.85 -1,-1.2 L -24,24.75 q -0.35,-0.35 -0.6,-0.4 -0.4,-0.7 -1.25,-1.05 -0.9,-0.5 -2,-0.6 l -1.05,-0.25 q -0.35,-0.35 -0.05,-1.45 0.25,-1.25 0.1,-2.4 -0.2,-1.1 -0.75,-1.65 l -0.25,-0.15 q 0.25,-0.75 -0.25,-1.35 -0.4,-0.6 -1.7,-1 L -33.25,14 -31.5,10.95"
         fill="#8f5a5a"
         fill-rule="evenodd"
         stroke="none"
         id="path5" />
    </g>
    <g
       id="sprite1"
       transform="translate(17.4,15.85)">
      <use
         ffdec:characterId="31"
         height="57.200001"
         transform="matrix(0.5366,0,0,0.5366,-16.6582,-14.546)"
         width="70.75"
         xlink:href="#sprite2"
         id="use5" />
    </g>
    <g
       id="sprite2"
       transform="translate(-8.65,-10.35)">
      <use
         ffdec:characterId="30"
         height="57.200001"
         transform="translate(8.65,10.35)"
         width="70.75"
         xlink:href="#shape1"
         id="use6" />
    </g>
    <g
       id="shape1"
       transform="translate(-8.65,-10.35)">
      <path
         d="m 14.8,41.7 q 0.65,-1.75 2.65,-2.5 1.8,-0.8 3.7,-0.25 1.15,0.45 2.25,1.2 l 0.9,0.4 q 1.65,0.9 2.85,2.5 L 37.8,30.1 q 2.35,-2.8 3.75,-3.95 1.5,-1.15 4.25,-2.4 18.2,-8.85 27.65,-12.6 2.15,-0.8 3.25,-0.8 h 0.8 l 1.9,2.4 -0.2,0.8 q -0.2,1.1 -1.55,3 -5.85,8.25 -18.85,23.8 -1.85,2.35 -3.35,3.5 -1.4,1.15 -4.75,2.75 l -15.15,7.15 q 1.2,1.6 1.75,3.4 l 0.2,1 0.55,2.5 q 0.1,1.95 -1.1,3.55 -1.2,1.65 -3.05,1.9 l -1.3,0.05 q -1.65,0.2 -3.45,-0.65 -1.85,-0.9 -3,-2.6 L 25,60.95 23.8,62.1 q -2.6,2.85 -4.3,3.95 -2.85,1.8 -5.5,1.45 l -1.65,-0.5 -1.2,-0.7 -0.2,-0.2 q -1,-0.85 -1.6,-1.9 L 9.25,64 9.15,63.8 8.75,62.4 q -0.2,-0.8 -0.05,-1.7 0.25,-2.65 2.7,-5.05 1.5,-1.3 4.9,-3.15 L 17.7,51.55 16.05,50 q -1.35,-1.5 -1.8,-3.6 -0.4,-1.85 0.25,-3.45 l 0.3,-1.25"
         fill="#000000"
         fill-opacity="0.372549"
         fill-rule="evenodd"
         stroke="none"
         id="path6" />
    </g>
  </defs>
</svg>
