<?xml version="1.0" encoding="UTF-8" standalone="no"?>
<svg
   ffdec:objectType="frame"
   height="89.278381"
   width="68.047951"
   version="1.1"
   id="svg8"
   xmlns:xlink="http://www.w3.org/1999/xlink"
   xmlns="http://www.w3.org/2000/svg"
   xmlns:svg="http://www.w3.org/2000/svg"
   xmlns:ffdec="https://www.free-decompiler.com/flash">
  <g
     transform="translate(34.184615,40.7)"
     id="g1">
    <use
       ffdec:characterId="17"
       height="119.15"
       id="rarity"
       transform="translate(-58.5,-60.65)"
       width="119.15"
       xlink:href="#sprite0" />
    <use
       ffdec:characterId="257"
       height="89.300003"
       transform="translate(-34.2,-40.7)"
       width="68.050003"
       xlink:href="#sprite1"
       id="use1" />
  </g>
  <defs
     id="defs8">
    <g
       id="sprite1">
      <use
         ffdec:characterId="256"
         height="89.300003"
         width="68.050003"
         xlink:href="#shape0"
         id="use2" />
    </g>
    <g
       id="shape0">
      <path
         d="m 60.5,17.4 q -0.25,-1.85 -1.15,-2.8 -0.8,-0.95 -3.5,-1.65 -5.5,-1.4 -12.6,-3.65 L 31.4,5.3 q 19.4,5 29.65,8.65 1.15,0.35 1.55,0.85 0.5,0.6 0.5,1.95 v 0.8 L 62.45,17.65 60.5,17.4 M 5.4,16.5 V 14.85 L 5.45,14.3 Q 5.6,12.45 6.35,11.45 L 8.4,9.9 Q 15.35,6.05 22.9,3.4 l 0.45,-0.15 2.3,0.6 L 23,3.8 q -1.7,0.25 -3.55,1.25 -1.25,0.6 -3.35,1.9 -3.3,2.25 -4.45,3.6 -0.9,1.1 -1.05,2.1 -0.05,0.55 0.3,1.05 l 0.85,0.75 0.3,0.1 0.6,0.6 q 0.7,0.55 2.7,1.2 l 1.85,0.55 q 6.95,2.1 12.85,4.4 l 0.05,0.05 q 5.95,2.3 10.75,4.85 l 0.05,0.05 0.05,0.1 0.5,2 v 0.1 L 38.95,27.8 36.9,27.05 Q 36.4,26.5 35.55,26.3 H 34.5 L 23.2,22.8 Q 12.9,19.8 7.55,17.7 6.2,17.15 5.4,16.5"
         fill="#383838"
         fill-rule="evenodd"
         stroke="none"
         id="path2" />
      <path
         d="M 4.55,74.95 Q 4,74.05 3.8,72.85 L 3.7,70.65 3,55.45 2.55,47.65 1.3,30.55 0.4,21.8 q -0.5,-5.05 -0.35,-8.75 0.1,-2.6 0.9,-3.7 0.75,-1.2 3.2,-2.5 5,-2.65 8.6,-4.05 4.8,-2 9.15,-2.6 L 23,0.15 24.3,0 q 2.7,0.05 7.85,1.3 10.5,2.3 16,3.85 8.8,2.3 15.55,5.05 2.45,0.95 3.25,2.05 0.65,1.05 0.75,3.25 0.15,4.1 -0.25,11.9 -0.45,8.15 -0.4,11.9 0.05,2.5 0.45,7.35 0.65,9.5 0.55,15.3 -0.2,8.45 -1.85,15.15 -0.45,1.9 -1.2,2.6 -1.15,1 -3.25,0.75 -1,-0.2 -3.25,-1.25 l -2.3,-1.5 -6.2,3.4 -2.35,1.05 -0.6,1.45 -0.2,0.9 q -0.85,3 -2.25,4 -1.7,1.2 -5.45,0.55 Q 34,88.1 27.7,86 L 16.6,81.95 10.05,79.2 6.6,77 Q 5.1,75.85 4.55,74.95 M 63.1,17.55 v -0.8 Q 63.1,15.4 62.6,14.8 62.2,14.3 61.05,13.95 50.8,10.3 31.4,5.3 l 11.85,4 q 7.1,2.25 12.6,3.65 2.7,0.7 3.5,1.65 0.9,0.95 1.15,2.8 v 0.3 q 0.6,3.95 0.3,10 l -0.5,10 0.25,7.55 Q 61.1,58.8 60.3,71.6 q -0.05,2 -0.55,3.2 l 0.5,0.3 1.25,0.55 q 2.25,-7.5 1.85,-18.8 Q 62.45,44 62.4,37.65 l 0.4,-10.45 0.3,-9.65 m -7.3,3 -0.1,-0.65 Q 55.6,18.8 55.2,18.4 54.75,18 53.85,17.75 L 28.35,9.45 25.65,8.75 23,8.65 Q 21.15,8.9 18.35,10.9 l -1.25,0.85 q 4.6,1.1 10.05,3.1 3.85,1.4 10.4,4.25 3.45,1.45 6.05,2.85 L 43.55,22 q 1.9,0.95 2.5,2 0.55,0.85 0.55,2.55 l -0.05,0.95 -0.45,8.6 -0.15,5.85 0.3,5.5 1.65,22.75 0.3,5.8 v 0.6 l 0.35,-0.35 0.35,-0.3 -0.1,0.35 2.85,-1.4 q 0.25,-3.45 0.15,-8.3 l -0.3,-8.3 q -0.15,-4.9 0.05,-11.05 0.1,-1.7 0.35,-2.45 l 0.15,-1.3 -0.15,-0.8 q 0,-0.6 0.45,-0.6 0.4,0 0.6,0.75 l 0.15,2.35 1,17.05 0.15,2.7 0.45,7.85 Q 55.25,71.85 55.4,70 56.05,63.1 55.75,51.25 55.35,37.65 55.6,32.4 l 0.3,-6.2 -0.1,-5.65 m -14.35,7.9 v -0.1 l -0.5,-2 -0.05,-0.1 -0.05,-0.05 Q 36.05,23.65 30.1,21.35 L 30.05,21.3 Q 24.15,19 17.2,16.9 l -1.85,-0.55 q -2,-0.65 -2.7,-1.2 l -0.6,-0.6 -0.3,-0.1 -0.85,-0.75 q -0.35,-0.5 -0.3,-1.05 0.15,-1 1.05,-2.1 Q 12.8,9.2 16.1,6.95 18.2,5.65 19.45,5.05 21.3,4.05 23,3.8 L 25.65,3.85 23.35,3.25 22.9,3.4 Q 15.35,6.05 8.4,9.9 l -2.05,1.55 q -0.75,1 -0.9,2.85 L 5.4,14.85 v 1.65 l 0.35,4.75 0.9,6.4 0.6,7 0.2,3.75 0.05,0.9 0.05,1.75 0.5,10.15 0.15,2 0.45,7.05 0.4,5.1 0.35,4.45 q 0.15,1.6 0.45,2.1 0.6,1.3 2.6,2.4 2.05,1.15 6,2.65 l 11.35,4.3 q 6.45,2.1 11.75,2.95 l 1.1,-4.05 Q 42.95,74.4 42.3,65.95 L 41.6,56.8 41.25,52.05 41,48.9 q -0.25,-5.1 -0.15,-9.5 0.05,-4.05 0.45,-7.6 l 0.15,-3.35"
         fill="#000000"
         fill-rule="evenodd"
         stroke="none"
         id="path3" />
      <path
         d="m 60.5,17.4 1.95,0.25 0.65,-0.1 -0.3,9.65 -0.4,10.45 q 0.05,6.35 0.95,19.2 0.4,11.3 -1.85,18.8 l -1.25,-0.55 -0.5,-0.3 q 0.5,-1.2 0.55,-3.2 0.8,-12.8 0.25,-26.35 l -0.25,-7.55 0.5,-10 q 0.3,-6.05 -0.3,-10 V 17.4 M 5.4,16.5 q 0.8,0.65 2.15,1.2 5.35,2.1 15.65,5.1 l 11.3,3.5 -0.95,0.15 -0.9,0.5 q -1,-0.5 -1.8,-0.45 l -1.8,0.35 -2.9,-0.35 q -5.2,-1 -9.35,-0.15 -1.3,0.3 -2.45,0.75 L 14.3,27.05 q -1.85,-2.1 -3.35,-2.2 -0.9,-0.05 -1.7,0.5 -0.8,0.5 -1.05,1.3 -0.25,0.85 0.3,2.65 L 9.05,31.05 9,31.1 q -1,1.35 -1.75,3.55 l -0.6,-7 -0.9,-6.4 L 5.4,16.5 m 31.5,10.55 2.05,0.75 2.5,0.65 -0.15,3.35 q -0.4,3.55 -0.45,7.6 L 40.6,38.6 q -1.25,-3.8 -2.55,-6.1 l -0.9,-1.45 0.25,-1.45 q 0.2,-1.5 -0.3,-2.25 l -0.2,-0.3 m 4.7,29.75 0.7,9.15 q 0.65,8.45 0.35,14.2 l -1.1,4.05 Q 36.25,83.35 29.8,81.25 l -11.35,-4.3 q -3.95,-1.5 -6,-2.65 -2,-1.1 -2.6,-2.4 -0.3,-0.5 -0.45,-2.1 l -0.35,-4.45 1.15,1.4 0.1,0.1 q 2.15,2.45 4,3.85 l 0.55,0.4 1.85,1.1 1.7,0.7 -0.05,1.3 q -0.05,1.05 0.25,1.6 l 0.85,0.8 0.4,0.2 1.2,0.2 1.6,-0.35 q 1,-0.5 1.7,-1.75 l 0.6,-1.05 1.15,-0.1 q 2.6,-0.35 4.95,-1.45 2.4,-1.2 4.35,-2.95 2.85,-2.75 4.6,-6.9 1.05,-2.55 1.6,-5.65 m -25.4,4.15 1.2,5.3 L 16.7,65.6 16,64.85 q -2.4,-2.6 -3.45,-4.25 l 3.65,0.35 m -1.45,-8.2 0.15,1.3 0.05,1.25 -1.35,-0.2 -1.35,-0.1 1.4,-1.3 0.55,-0.45 0.45,-0.4 0.1,-0.1 m 12.5,9.85 2.4,0.65 3.6,0.7 q -1.5,1.85 -3.55,3.15 -1.8,1.05 -3.85,1.45 l -0.5,0.05 1.9,-6 m 2.15,-5.2 h -0.3 l -0.25,-0.15 0.1,-0.5 0.25,0.3 0.05,0.15 0.15,0.2 m 2.9,-10.75 2.55,-8.6 1.2,3.3 0.75,2.8 0.45,3.7 q 0.05,2.5 -0.6,6.6 L 36.3,57 35.85,56.45 q -1.9,-2.6 -3.2,-5.2 Q 31.95,49.8 31.9,49 31.85,48.1 32.3,46.65 M 28.75,40.1 28.65,41 28.4,41.8 q -0.3,0.75 -0.2,1.65 l -0.15,0.05 -1.5,-2.1 1.65,-1.6 1.1,-0.9 -0.25,0.6 -0.3,0.6 m -8.5,13.1 -0.7,-4.8 0.05,-0.55 0.45,-0.4 0.55,-0.35 1.75,-1.8 0.15,0.3 q 0.95,2.2 2.4,4.1 l 0.55,1.1 -0.15,1.05 -1.1,2.95 -0.6,0.95 -0.2,0.15 -1.1,0.05 -1.45,-0.05 q -0.4,-1.05 -0.6,-2.7 m -8.8,-5.1 -0.95,0.85 q 0.1,-4.6 1.1,-9 l 1.2,4.45 0.2,1.55 q -0.15,0.9 -1.55,2.15 m 6.35,-6.35 q -0.15,-0.05 -0.15,-0.3 l -0.35,-1.5 -0.1,-0.35 -0.3,-0.65 -0.1,-0.55 1.6,1.95 0.2,0.3 -0.25,0.65 -0.55,0.45 M 22.55,36.4 18,31.25 l 1.3,-0.3 2.55,-0.2 2.7,0.1 2.7,0.35 1.45,0.3 -0.3,0.45 -4.85,4.6 -0.4,0.25 -0.6,-0.4"
         fill="#2b2b2b"
         fill-rule="evenodd"
         stroke="none"
         id="path4" />
      <path
         d="m 46.6,26.55 q 0,-1.7 -0.55,-2.55 -0.6,-1.05 -2.5,-2 L 43.6,21.95 Q 41,20.55 37.55,19.1 31,16.25 27.15,14.85 21.7,12.85 17.1,11.75 l 1.25,-0.85 q 2.8,-2 4.65,-2.25 l 2.65,0.1 2.7,0.7 25.5,8.3 q 0.9,0.25 1.35,0.65 0.4,0.4 0.5,1.5 l 0.1,0.65 -0.1,0.2 q -0.35,1 -1.9,1.85 l -4.75,2.9 -2.45,1.05"
         fill="#eeeeee"
         fill-rule="evenodd"
         stroke="none"
         id="path5" />
      <path
         d="m 46.6,26.55 2.45,-1.05 4.75,-2.9 q 1.55,-0.85 1.9,-1.85 l 0.1,-0.2 0.1,5.65 -0.3,6.2 q -0.25,5.25 0.15,18.85 0.3,11.85 -0.35,18.75 -0.15,1.85 -0.7,2.8 l -0.45,-7.85 -0.15,-2.7 -1,-17.05 -0.15,-2.35 q -0.2,-0.75 -0.6,-0.75 -0.45,0 -0.45,0.6 l 0.15,0.8 -0.15,1.3 q -0.25,0.75 -0.35,2.45 -0.2,6.15 -0.05,11.05 l 0.3,8.3 q 0.1,4.85 -0.15,8.3 l -2.85,1.4 0.1,-0.35 -0.35,0.3 -0.35,0.35 V 76 l -0.3,-5.8 -1.65,-22.75 -0.3,-5.5 0.15,-5.85 0.45,-8.6 0.05,-0.95"
         fill="#c8c8c8"
         fill-rule="evenodd"
         stroke="none"
         id="path6" />
      <path
         d="m 34.5,26.3 h 1.05 q 0.85,0.2 1.35,0.75 l 0.2,0.3 q 0.5,0.75 0.3,2.25 l -0.25,1.45 0.9,1.45 q 1.3,2.3 2.55,6.1 l 0.25,0.8 q -0.1,4.4 0.15,9.5 l 0.25,3.15 0.35,4.75 q -0.55,3.1 -1.6,5.65 -1.75,4.15 -4.6,6.9 -1.95,1.75 -4.35,2.95 -2.35,1.1 -4.95,1.45 l -1.15,0.1 -0.6,1.05 q -0.7,1.25 -1.7,1.75 L 21.05,77 19.85,76.8 19.45,76.6 18.6,75.8 Q 18.3,75.25 18.35,74.2 L 18.4,72.9 16.7,72.2 14.85,71.1 14.3,70.7 q -1.85,-1.4 -4,-3.85 L 10.2,66.75 9.05,65.35 8.65,60.25 8.2,53.2 8.05,51.2 7.55,41.05 7.5,39.3 7.45,38.4 7.25,34.65 Q 8,32.45 9,31.1 L 9.05,31.05 8.5,29.3 q -0.55,-1.8 -0.3,-2.65 0.25,-0.8 1.05,-1.3 0.8,-0.55 1.7,-0.5 1.5,0.1 3.35,2.2 l 0.05,0.05 q 1.15,-0.45 2.45,-0.75 4.15,-0.85 9.35,0.15 l 2.9,0.35 1.8,-0.35 q 0.8,-0.05 1.8,0.45 l 0.9,-0.5 0.95,-0.15 m -11.95,10.1 0.6,0.4 0.4,-0.25 4.85,-4.6 0.3,-0.45 -1.45,-0.3 -2.7,-0.35 -2.7,-0.1 -2.55,0.2 -1.3,0.3 4.55,5.15 m -4.75,5.35 0.55,-0.45 0.25,-0.65 -0.2,-0.3 -1.6,-1.95 0.1,0.55 0.3,0.65 0.1,0.35 0.35,1.5 q 0,0.25 0.15,0.3 M 11.45,48.1 Q 12.85,46.85 13,45.95 L 12.8,44.4 11.6,39.95 q -1,4.4 -1.1,9 l 0.95,-0.85 m 8.8,5.1 q 0.2,1.65 0.6,2.7 l 1.45,0.05 1.1,-0.05 0.2,-0.15 0.6,-0.95 1.1,-2.95 0.15,-1.05 -0.55,-1.1 q -1.45,-1.9 -2.4,-4.1 l -0.15,-0.3 -1.75,1.8 -0.55,0.35 -0.45,0.4 -0.05,0.55 0.7,4.8 m 8.5,-13.1 0.3,-0.6 0.25,-0.6 -1.1,0.9 -1.65,1.6 1.5,2.1 0.15,-0.05 q -0.1,-0.9 0.2,-1.65 l 0.25,-0.8 0.1,-0.9 m 3.55,6.55 q -0.45,1.45 -0.4,2.35 0.05,0.8 0.75,2.25 1.3,2.6 3.2,5.2 L 36.3,57 36.65,54.45 q 0.65,-4.1 0.6,-6.6 l -0.45,-3.7 -0.75,-2.8 -1.2,-3.3 -2.55,8.6 m -2.9,10.75 -0.15,-0.2 -0.05,-0.15 -0.25,-0.3 -0.1,0.5 0.25,0.15 h 0.3 m -2.15,5.2 -1.9,6 0.5,-0.05 q 2.05,-0.4 3.85,-1.45 2.05,-1.3 3.55,-3.15 l -3.6,-0.7 -2.4,-0.65 m -12.5,-9.85 -0.1,0.1 -0.45,0.4 -0.55,0.45 -1.4,1.3 1.35,0.1 1.35,0.2 -0.05,-1.25 -0.15,-1.3 m 1.45,8.2 -3.65,-0.35 q 1.05,1.65 3.45,4.25 l 0.7,0.75 0.7,0.65 -1.2,-5.3"
         fill="#562c2c"
         fill-rule="evenodd"
         stroke="none"
         id="path7" />
    </g>
    <g
       id="sprite2"
       transform="translate(17.4,15.85)">
      <use
         ffdec:characterId="31"
         height="57.200001"
         transform="matrix(0.5366,0,0,0.5366,-16.6582,-14.546)"
         width="70.75"
         xlink:href="#sprite3"
         id="use7" />
    </g>
    <g
       id="sprite3"
       transform="translate(-8.65,-10.35)">
      <use
         ffdec:characterId="30"
         height="57.200001"
         transform="translate(8.65,10.35)"
         width="70.75"
         xlink:href="#shape1"
         id="use8" />
    </g>
    <g
       id="shape1"
       transform="translate(-8.65,-10.35)">
      <path
         d="m 14.8,41.7 q 0.65,-1.75 2.65,-2.5 1.8,-0.8 3.7,-0.25 1.15,0.45 2.25,1.2 l 0.9,0.4 q 1.65,0.9 2.85,2.5 L 37.8,30.1 q 2.35,-2.8 3.75,-3.95 1.5,-1.15 4.25,-2.4 18.2,-8.85 27.65,-12.6 2.15,-0.8 3.25,-0.8 h 0.8 l 1.9,2.4 -0.2,0.8 q -0.2,1.1 -1.55,3 -5.85,8.25 -18.85,23.8 -1.85,2.35 -3.35,3.5 -1.4,1.15 -4.75,2.75 l -15.15,7.15 q 1.2,1.6 1.75,3.4 l 0.2,1 0.55,2.5 q 0.1,1.95 -1.1,3.55 -1.2,1.65 -3.05,1.9 l -1.3,0.05 q -1.65,0.2 -3.45,-0.65 -1.85,-0.9 -3,-2.6 L 25,60.95 23.8,62.1 q -2.6,2.85 -4.3,3.95 -2.85,1.8 -5.5,1.45 l -1.65,-0.5 -1.2,-0.7 -0.2,-0.2 q -1,-0.85 -1.6,-1.9 L 9.25,64 9.15,63.8 8.75,62.4 q -0.2,-0.8 -0.05,-1.7 0.25,-2.65 2.7,-5.05 1.5,-1.3 4.9,-3.15 L 17.7,51.55 16.05,50 q -1.35,-1.5 -1.8,-3.6 -0.4,-1.85 0.25,-3.45 l 0.3,-1.25"
         fill="#000000"
         fill-opacity="0.372549"
         fill-rule="evenodd"
         stroke="none"
         id="path8" />
    </g>
  </defs>
</svg>
