<?xml version="1.0" encoding="UTF-8" standalone="no"?>
<svg
   ffdec:objectType="frame"
   height="73.099327"
   width="74.888161"
   version="1.1"
   id="svg4"
   xmlns:xlink="http://www.w3.org/1999/xlink"
   xmlns="http://www.w3.org/2000/svg"
   xmlns:svg="http://www.w3.org/2000/svg"
   xmlns:ffdec="https://www.free-decompiler.com/flash">
  <g
     transform="translate(37.642105,36.579412)"
     id="g1">
    <use
       ffdec:characterId="17"
       height="119.15"
       id="rarity"
       transform="translate(-58.5,-60.65)"
       width="119.15"
       xlink:href="#sprite0" />
    <use
       ffdec:characterId="426"
       height="73.099998"
       transform="translate(-37.65,-36.6)"
       width="74.900002"
       xlink:href="#shape0"
       id="use1" />
  </g>
  <defs
     id="defs4">
    <g
       id="shape0"
       transform="translate(37.25,35.8)">
      <path
         d="m 22.75,-35.7 q 10.8,-0.9 14.2,8.4 1.15,3.25 0.4,6.7 -1.85,8.4 -10.5,10.8 L 21.7,-9.5 Q 18.2,-1.65 13.1,5.35 8.85,11.25 3.8,16.45 0.7,19.4 -3.35,21.25 -8,23.4 -12,26.1 q 0.3,8.4 -7.85,10.75 -6.05,1.7 -9.55,-2.75 -1.05,-1.35 -1.1,-3.05 -5.9,-1.8 -6.7,-7.45 -0.2,-1.4 0.55,-2.7 5.1,-8.65 15.2,-7.25 7.95,-7.6 13.35,-17.1 l 7.5,-12.7 q -5.9,-5.8 -2,-12.45 2,-3.45 5.7,-5 7.05,-2.95 13.45,1.15 L 17.2,-33 q 1.4,-1.25 3.15,-1.95 l 2.4,-0.75 m -48.6,60.85 q 2.3,0.8 1.9,4 -0.1,0.95 -0.65,1.75 1.6,1.4 4.1,0.35 4.05,-2.4 2.7,-6.9 -0.35,-1.05 0.6,-1.85 4.25,-3.45 9.2,-6 Q 6.95,8.7 14.1,-6.25 l 3.45,-6.55 q 0.15,-1.9 2.05,-2.25 l 4.9,-0.6 q 4.35,-1.2 6.6,-4.9 l 0.65,-1.1 -0.05,-1.1 v -1.7 -0.45 q -0.55,-2.1 -2.15,-3.2 l -1.4,-0.7 q -1.05,-0.35 -2.05,-0.8 l -2.9,0.05 -5.9,4.3 -1.3,0.15 q -2,-0.85 -3.75,-2.25 -1.5,-1.15 -3.45,-1.2 -3.4,-0.05 -5.45,2 L 1.8,-24.3 q 1.9,3.5 4.15,6.65 l 0.25,0.75 -0.2,0.6 -0.4,0.85 -1,1.9 -4.85,8.85 -1.5,2.55 -2.75,4.45 q -4.35,6.9 -9.6,13.15 l -1.4,1.6 -1.2,1.15 q -1.55,1.3 -3.5,1.75 -1.7,0.4 -3.25,-0.3 -4.9,-0.4 -7.5,3.85 l 0.7,0.75 1.1,0.7 3.3,0.2"
         fill="#000000"
         fill-rule="evenodd"
         stroke="none"
         id="path1" />
      <path
         d="m 29.55,-28.1 -0.3,1.7 q -0.65,2.55 -2.6,4.35 -6.8,6.4 -14.95,11 l -1.05,1 Q 2.95,0.75 -6.4,10.25 -10.1,14 -13.2,18.1 l -0.8,1.05 q -4.1,4.65 -10.35,4.3 -0.7,1.05 -1.5,1.7 l -3.3,-0.2 -1.1,-0.7 -0.7,-0.75 q 2.6,-4.25 7.5,-3.85 1.55,0.7 3.25,0.3 1.95,-0.45 3.5,-1.75 l 1.2,-1.15 1.4,-1.6 Q -8.85,9.2 -4.5,2.3 l 2.75,-4.45 1.5,-2.55 1.6,-2.2 4.2,-5.6 -0.95,-1.05 1,-1.9 0.4,-0.85 0.2,-0.6 -0.25,-0.75 Q 3.7,-20.8 1.8,-24.3 l 1.55,-2.25 q 2.05,-2.05 5.45,-2 1.95,0.05 3.45,1.2 1.75,1.4 3.75,2.25 l 1.3,-0.15 5.9,-4.3 2.9,-0.05 q 1,0.45 2.05,0.8 l 1.4,0.7"
         fill="#dbdbdb"
         fill-rule="evenodd"
         stroke="none"
         id="path2" />
      <path
         d="m 29.55,-28.1 q 1.6,1.1 2.15,3.2 v 0.45 1.7 l 0.05,1.1 -0.65,1.1 q -2.25,3.7 -6.6,4.9 l -4.9,0.6 q -1.9,0.35 -2.05,2.25 L 14.1,-6.25 Q 6.95,8.7 -8,16.5 q -4.95,2.55 -9.2,6 -0.95,0.8 -0.6,1.85 1.35,4.5 -2.7,6.9 -2.5,1.05 -4.1,-0.35 0.55,-0.8 0.65,-1.75 0.4,-3.2 -1.9,-4 0.8,-0.65 1.5,-1.7 6.25,0.35 10.35,-4.3 l 0.8,-1.05 q 3.1,-4.1 6.8,-7.85 9.35,-9.5 17.05,-20.3 l 1.05,-1 q 8.15,-4.6 14.95,-11 1.95,-1.8 2.6,-4.35 l 0.3,-1.7 m -29.8,23.4 4.85,-8.85 0.95,1.05 -4.2,5.6 -1.6,2.2"
         fill="#adadad"
         fill-rule="evenodd"
         stroke="none"
         id="path3" />
    </g>
    <g
       id="sprite1"
       transform="translate(17.4,15.85)">
      <use
         ffdec:characterId="31"
         height="57.200001"
         transform="matrix(0.5366,0,0,0.5366,-16.6582,-14.546)"
         width="70.75"
         xlink:href="#sprite2"
         id="use3" />
    </g>
    <g
       id="sprite2"
       transform="translate(-8.65,-10.35)">
      <use
         ffdec:characterId="30"
         height="57.200001"
         transform="translate(8.65,10.35)"
         width="70.75"
         xlink:href="#shape1"
         id="use4" />
    </g>
    <g
       id="shape1"
       transform="translate(-8.65,-10.35)">
      <path
         d="m 14.8,41.7 q 0.65,-1.75 2.65,-2.5 1.8,-0.8 3.7,-0.25 1.15,0.45 2.25,1.2 l 0.9,0.4 q 1.65,0.9 2.85,2.5 L 37.8,30.1 q 2.35,-2.8 3.75,-3.95 1.5,-1.15 4.25,-2.4 18.2,-8.85 27.65,-12.6 2.15,-0.8 3.25,-0.8 h 0.8 l 1.9,2.4 -0.2,0.8 q -0.2,1.1 -1.55,3 -5.85,8.25 -18.85,23.8 -1.85,2.35 -3.35,3.5 -1.4,1.15 -4.75,2.75 l -15.15,7.15 q 1.2,1.6 1.75,3.4 l 0.2,1 0.55,2.5 q 0.1,1.95 -1.1,3.55 -1.2,1.65 -3.05,1.9 l -1.3,0.05 q -1.65,0.2 -3.45,-0.65 -1.85,-0.9 -3,-2.6 L 25,60.95 23.8,62.1 q -2.6,2.85 -4.3,3.95 -2.85,1.8 -5.5,1.45 l -1.65,-0.5 -1.2,-0.7 -0.2,-0.2 q -1,-0.85 -1.6,-1.9 L 9.25,64 9.15,63.8 8.75,62.4 q -0.2,-0.8 -0.05,-1.7 0.25,-2.65 2.7,-5.05 1.5,-1.3 4.9,-3.15 L 17.7,51.55 16.05,50 q -1.35,-1.5 -1.8,-3.6 -0.4,-1.85 0.25,-3.45 l 0.3,-1.25"
         fill="#000000"
         fill-opacity="0.372549"
         fill-rule="evenodd"
         stroke="none"
         id="path4" />
    </g>
  </defs>
</svg>
