<?xml version="1.0" encoding="UTF-8" standalone="no"?>
<svg
   ffdec:objectType="frame"
   height="74.113159"
   width="80.047874"
   version="1.1"
   id="svg7"
   xmlns:xlink="http://www.w3.org/1999/xlink"
   xmlns="http://www.w3.org/2000/svg"
   xmlns:svg="http://www.w3.org/2000/svg"
   xmlns:ffdec="https://www.free-decompiler.com/flash">
  <g
     transform="translate(39.496154,37.6)"
     id="g1">
    <use
       ffdec:characterId="17"
       height="119.15"
       id="rarity"
       transform="translate(-58.5,-60.65)"
       width="119.15"
       xlink:href="#sprite0" />
    <use
       ffdec:characterId="876"
       height="74.099998"
       transform="translate(-39.5,-37.6)"
       width="80.050003"
       xlink:href="#shape0"
       id="use1" />
  </g>
  <defs
     id="defs7">
    <g
       id="shape0"
       transform="translate(40.05,38.35)">
      <path
         d="m -38.85,-18.05 q 0.25,-3.55 0.1,-4.65 -0.3,-1.85 0,-2.4 0.35,-0.85 1.9,-1.55 12.3,-5.75 25.9,-8.55 l 6.45,-1.3 6.35,-1.35 3.3,-0.5 q 1,0 3.3,0.9 14.6,6 28.95,13.65 1.5,0.8 2.05,1.6 0.45,0.75 0.55,5.05 0.05,4.35 -1.35,17.9 l -1.7,17.2 -0.5,4.1 q -0.4,0.75 -1.35,1.25 l -1.7,0.6 q -5.8,1.45 -19.95,6 -12.6,4.1 -20.05,5.6 -2.75,0.5 -4.2,0.05 l -2.7,-1.7 q -1.95,-1.45 -5.9,-3.25 -4.45,-2.05 -6.1,-3.05 l -5.1,-3.75 q -3.3,-2.7 -6.65,-5.45 -2.05,-1.75 -2.55,-2.95 -0.4,-1.15 -0.15,-2.75 l 0.5,-2.85 0.25,-3.75 0.1,-16.05 0.25,-8.05 m 40.9,6.65 -6.25,0.9 q -0.35,0.1 -0.45,-0.15 L -4.5,-11 q 1.4,-1.15 5.05,-1.95 L 14.75,-16 q 11.7,-2.45 18.25,-4.4 l 1.25,-0.3 -0.4,-0.2 -3.6,-1.8 Q 16,-29.5 8.6,-32.45 l -3.2,-0.95 -2.95,0.25 q -10.3,1.8 -17.85,3.8 -9,2.3 -16.25,5.45 l -0.9,0.4 q -1,0.4 -1.4,1 l -0.3,1.3 v 0.1 q -0.4,4.9 -0.35,16.7 l 0.05,11.25 q -0.05,3.6 -0.45,5 l -0.25,1.75 1,1.2 6.4,5.1 6,4.3 5.4,2.55 3.1,1.55 2.1,1.35 1.35,0.9 0.5,0.2 q 0.7,0.2 2.05,0 7.4,-1.3 20.3,-5.45 14.1,-4.6 20.3,-5.95 L 34.85,1.7 q 1.25,-13.1 0.9,-19.55 -6.15,1.5 -16.65,3.3 l -16.75,3.05 -0.3,0.1 m -32.85,-6.8 -0.9,-0.95 -0.55,-0.4 -0.45,-0.55 q -0.55,-0.75 -0.05,-1.25 l 1.7,0.1 7.25,3.9 3.2,1.8 8.9,5.1 q 1.45,0.95 1.75,1.4 l 0.2,0.3 0.45,0.7 0.15,0.25 q 0.35,0.5 0.4,1.95 l -0.6,14.9 -0.15,4.65 0.1,5.2 -0.3,4.95 -0.1,1.7 -0.35,1.35 q -0.25,0.75 -0.75,0.55 -0.35,-0.1 -0.4,-0.65 l -0.9,-9.15 -0.3,-4.5 0.55,-19.15 -0.9,-0.5 Q -18.8,-10.65 -23,-13.05 l -4.1,-2.25 q -2.25,-1.4 -3.65,-2.85 L -30.8,-18.2 M -2.2,27 Q -3.9,27.2 -4.6,26.7 -5.45,26 -5.35,23.9 l 1.2,-27.25 q 0.1,-2.2 0.85,-3 Q -2.65,-7 -1.1,-7.4 L 6.95,-8.95 7.7,-9.15 H 8 l 4.3,-0.75 q 8.55,-1.4 13.35,-2.8 l 2.8,-0.45 q 1.75,0.1 2.45,1.35 0.3,0.7 0.25,1.9 -0.05,12.4 -1.05,26.1 -0.15,1.6 -0.6,2.2 -0.55,0.85 -2.6,1.2 Q 23,20.5 12.4,23.5 3.3,26.1 -2.2,27 M 14.35,5.55 15.1,6.1 l 5.05,3.65 3,2 2.1,1.8 1.6,0.9 q 1,-11.7 0.8,-24.4 -4.7,1.45 -12.4,3.1 l -2.25,0.5 -1.9,0.4 -1.4,0.3 -0.05,8.45 0.2,0.05 0.2,0.1 q 1.8,0.8 4.15,2.45 l 0.15,0.15 M -0.75,12.35 -1.25,23 Q 3.55,22.3 12.6,19.75 L 22.9,16.9 20.25,14.4 18.4,13.05 17.8,12.7 16.35,11.9 13.65,10.3 11.4,8.6 11.15,8.4 9.15,7 7.45,6.15 4.25,7 0.15,7.85 -0.55,8.1 -0.75,12.35 M -0.05,-3.5 -0.35,3.9 1.75,3.25 5,2.5 5.65,2.15 5.75,1.45 5.8,-4.75 -0.05,-3.5"
         fill="#000000"
         fill-rule="evenodd"
         stroke="none"
         id="path1" />
      <path
         d="M 15.25,-6.85 15.2,-5.6 q -0.3,1.75 -0.3,4.45 l -0.1,4.4 -0.15,1.5 -0.3,0.8 L 14.2,5.4 Q 11.85,3.75 10.05,2.95 L 9.85,2.85 9.65,2.8 9.7,-5.65 l 1.4,-0.3 1.9,-0.4 2.25,-0.5 M 11.15,8.4 8.9,9.05 5.85,9.9 3.1,11 0.4,12.1 -0.75,12.35 -0.55,8.1 0.15,7.85 4.25,7 7.45,6.15 9.15,7 l 2,1.4 M 23.6,4.1 Q 23.55,5.15 22.55,5.4 21.5,5.7 20.95,4.85 20.3,4.15 20.8,3.15 l 0.95,-0.65 1,0.15 q 0.9,0.45 0.85,1.45"
         fill="#626262"
         fill-rule="evenodd"
         stroke="none"
         id="path2" />
      <path
         d="m 14.35,5.55 0.3,-0.8 0.15,-1.5 0.1,-4.4 q 0,-2.7 0.3,-4.45 l 0.05,-1.25 q 7.7,-1.65 12.4,-3.1 0.2,12.7 -0.8,24.4 l -1.6,-0.9 -2.1,-1.8 -3,-2 L 15.1,6.1 14.35,5.55 m -3.2,2.85 0.25,0.2 2.25,1.7 2.7,1.6 1.45,0.8 0.6,0.35 1.85,1.35 2.65,2.5 -10.3,2.85 Q 3.55,22.3 -1.25,23 L -0.75,12.35 0.4,12.1 3.1,11 5.85,9.9 8.9,9.05 11.15,8.4 M 23.6,4.1 q 0.05,-1 -0.85,-1.45 l -1,-0.15 -0.95,0.65 q -0.5,1 0.15,1.7 0.55,0.85 1.6,0.55 1,-0.25 1.05,-1.3"
         fill="#535353"
         fill-rule="evenodd"
         stroke="none"
         id="path3" />
      <path
         d="m -34.25,-21.1 v -0.1 l 0.3,-1.3 q 0.4,-0.6 1.4,-1 l 0.9,-0.4 q 7.25,-3.15 16.25,-5.45 7.55,-2 17.85,-3.8 l 2.95,-0.25 3.2,0.95 q 7.4,2.95 21.65,9.75 l 3.6,1.8 0.4,0.2 -1.25,0.3 q -6.55,1.95 -18.25,4.4 l -14.2,3.05 q -3.65,0.8 -5.05,1.95 l -0.15,0.35 q 0.1,0.25 0.45,0.15 l 6.25,-0.9 q -0.85,0.3 -1.5,0.45 l -2.4,0.45 -2.35,0.45 -5.05,1.15 -0.5,0.15 -0.2,-0.3 q -0.3,-0.45 -1.75,-1.4 l -8.9,-5.1 -3.2,-1.8 -7.25,-3.9 -1.7,-0.1 q -0.5,0.5 0.05,1.25 l 0.45,0.55 0.55,0.4 0.9,0.95 -3.45,-2.9 m 52.95,-3.15 q -0.65,0.35 -0.95,1.2 -0.3,0.85 0.05,1.55 0.3,0.75 1.1,1.15 l 0.1,0.05 1.4,0.05 q 0.6,-0.15 0.95,-0.6 l 0.25,-0.3 q 0.45,-0.75 0.3,-1.55 -0.15,-0.8 -0.8,-1.3 -0.65,-0.55 -1.45,-0.5 l -0.95,0.25 m -14.25,-4.95 0.8,0.5 0.85,-0.15 q 0.4,-0.25 0.5,-0.75 0.2,-0.5 -0.05,-0.9 -0.25,-0.65 -1.05,-0.7 -0.8,0.05 -1.15,0.65 l -0.15,0.4 q -0.05,0.55 0.25,0.95 m -16.15,5.9 -0.2,0.65 q 0,0.6 0.4,1.15 0.4,0.55 1,0.7 l 1.15,-0.1 q 0.6,-0.3 0.85,-0.85 0.25,-0.5 0.1,-1.2 -0.15,-0.6 -0.65,-0.95 -0.5,-0.4 -1.15,-0.35 -0.65,0 -1.15,0.45 l -0.35,0.5"
         fill="#a4a4a4"
         fill-rule="evenodd"
         stroke="none"
         id="path4" />
      <path
         d="m -34.25,-21.1 3.45,2.9 0.05,0.05 q 1.4,1.45 3.65,2.85 l 4.1,2.25 q 4.2,2.4 10.15,6.55 l 0.9,0.5 -0.55,19.15 0.3,4.5 0.9,9.15 q 0.05,0.55 0.4,0.65 0.5,0.2 0.75,-0.55 l 0.35,-1.35 q 0.1,1.45 0.05,3.7 l -0.15,1.3 -1.35,-0.9 -2.1,-1.35 -3.1,-1.55 -5.4,-2.55 -6,-4.3 -6.4,-5.1 -1,-1.2 0.25,-1.75 q 0.4,-1.4 0.45,-5 L -34.6,-4.4 q -0.05,-11.8 0.35,-16.7 m 10.4,12.65 q 0.25,-0.9 -0.45,-1.45 -0.9,-0.85 -1.9,-0.2 -0.9,0.6 -0.6,1.75 l 0.6,0.8 q 0.45,0.3 0.95,0.3 0.5,0 0.9,-0.35 0.45,-0.35 0.5,-0.85 m -7.8,23.2 0.85,0.8 1.05,0.05 0.8,-0.6 q 0.3,-0.45 0.2,-1 -0.05,-0.55 -0.45,-0.95 -0.4,-0.35 -0.95,-0.45 -0.6,-0.05 -1,0.3 l -0.6,0.85 0.1,1 m 12.85,3.35 q 0.05,-1.45 -1.25,-2.15 l -1.4,-0.2 q -0.75,0.15 -1.3,0.65 -0.45,0.55 -0.55,1.35 -0.1,0.75 0.3,1.4 0.35,0.65 1.1,0.9 l 1.4,0.15 q 0.7,-0.15 1.25,-0.75 0.45,-0.65 0.45,-1.35"
         fill="#8d8d8d"
         fill-rule="evenodd"
         stroke="none"
         id="path5" />
      <path
         d="m -9.75,-8.75 0.5,-0.15 5.05,-1.15 2.35,-0.45 2.4,-0.45 q 0.65,-0.15 1.5,-0.45 l 0.3,-0.1 16.75,-3.05 q 10.5,-1.8 16.65,-3.3 0.35,6.45 -0.9,19.55 l -1.6,17.65 q -6.2,1.35 -20.3,5.95 -12.9,4.15 -20.3,5.45 -1.35,0.2 -2.05,0 l -0.5,-0.2 0.15,-1.3 Q -9.7,27 -9.8,25.55 l 0.1,-1.7 0.3,-4.95 -0.1,-5.2 0.15,-4.65 0.6,-14.9 Q -8.8,-7.3 -9.15,-7.8 L -9.3,-8.05 -9.75,-8.75 M 4.45,-29.2 q -0.3,-0.4 -0.25,-0.95 l 0.15,-0.4 q 0.35,-0.6 1.15,-0.65 0.8,0.05 1.05,0.7 0.25,0.4 0.05,0.9 -0.1,0.5 -0.5,0.75 l -0.85,0.15 -0.8,-0.5 m 14.25,4.95 0.95,-0.25 q 0.8,-0.05 1.45,0.5 0.65,0.5 0.8,1.3 0.15,0.8 -0.3,1.55 l -0.25,0.3 Q 21,-20.4 20.4,-20.25 L 19,-20.3 18.9,-20.35 q -0.8,-0.4 -1.1,-1.15 -0.35,-0.7 -0.05,-1.55 0.3,-0.85 0.95,-1.2 M -2.2,27 q 5.5,-0.9 14.6,-3.5 10.6,-3 14.5,-3.9 2.05,-0.35 2.6,-1.2 0.45,-0.6 0.6,-2.2 1,-13.7 1.05,-26.1 0.05,-1.2 -0.25,-1.9 -0.7,-1.25 -2.45,-1.35 l -2.8,0.45 q -4.8,1.4 -13.35,2.8 L 8,-9.15 H 7.7 l -0.75,0.2 -8.05,1.55 q -1.55,0.4 -2.2,1.05 -0.75,0.8 -0.85,3 l -1.2,27.25 q -0.1,2.1 0.75,2.8 0.7,0.5 2.4,0.3 M -23.85,-8.45 q -0.05,0.5 -0.5,0.85 -0.4,0.35 -0.9,0.35 -0.5,0 -0.95,-0.3 l -0.6,-0.8 q -0.3,-1.15 0.6,-1.75 1,-0.65 1.9,0.2 0.7,0.55 0.45,1.45 m 12.15,-14.85 0.35,-0.5 q 0.5,-0.45 1.15,-0.45 0.65,-0.05 1.15,0.35 0.5,0.35 0.65,0.95 0.15,0.7 -0.1,1.2 -0.25,0.55 -0.85,0.85 l -1.15,0.1 q -0.6,-0.15 -1,-0.7 -0.4,-0.55 -0.4,-1.15 l 0.2,-0.65 m -7.1,41.4 q 0,0.7 -0.45,1.35 -0.55,0.6 -1.25,0.75 l -1.4,-0.15 q -0.75,-0.25 -1.1,-0.9 -0.4,-0.65 -0.3,-1.4 0.1,-0.8 0.55,-1.35 0.55,-0.5 1.3,-0.65 l 1.4,0.2 q 1.3,0.7 1.25,2.15 m -12.85,-3.35 -0.1,-1 0.6,-0.85 q 0.4,-0.35 1,-0.3 0.55,0.1 0.95,0.45 0.4,0.4 0.45,0.95 0.1,0.55 -0.2,1 l -0.8,0.6 -1.05,-0.05 -0.85,-0.8"
         fill="#7b7b7b"
         fill-rule="evenodd"
         stroke="none"
         id="path6" />
    </g>
    <g
       id="sprite1"
       transform="translate(17.4,15.85)">
      <use
         ffdec:characterId="31"
         height="57.200001"
         transform="matrix(0.5366,0,0,0.5366,-16.6582,-14.546)"
         width="70.75"
         xlink:href="#sprite2"
         id="use6" />
    </g>
    <g
       id="sprite2"
       transform="translate(-8.65,-10.35)">
      <use
         ffdec:characterId="30"
         height="57.200001"
         transform="translate(8.65,10.35)"
         width="70.75"
         xlink:href="#shape1"
         id="use7" />
    </g>
    <g
       id="shape1"
       transform="translate(-8.65,-10.35)">
      <path
         d="m 14.8,41.7 q 0.65,-1.75 2.65,-2.5 1.8,-0.8 3.7,-0.25 1.15,0.45 2.25,1.2 l 0.9,0.4 q 1.65,0.9 2.85,2.5 L 37.8,30.1 q 2.35,-2.8 3.75,-3.95 1.5,-1.15 4.25,-2.4 18.2,-8.85 27.65,-12.6 2.15,-0.8 3.25,-0.8 h 0.8 l 1.9,2.4 -0.2,0.8 q -0.2,1.1 -1.55,3 -5.85,8.25 -18.85,23.8 -1.85,2.35 -3.35,3.5 -1.4,1.15 -4.75,2.75 l -15.15,7.15 q 1.2,1.6 1.75,3.4 l 0.2,1 0.55,2.5 q 0.1,1.95 -1.1,3.55 -1.2,1.65 -3.05,1.9 l -1.3,0.05 q -1.65,0.2 -3.45,-0.65 -1.85,-0.9 -3,-2.6 L 25,60.95 23.8,62.1 q -2.6,2.85 -4.3,3.95 -2.85,1.8 -5.5,1.45 l -1.65,-0.5 -1.2,-0.7 -0.2,-0.2 q -1,-0.85 -1.6,-1.9 L 9.25,64 9.15,63.8 8.75,62.4 q -0.2,-0.8 -0.05,-1.7 0.25,-2.65 2.7,-5.05 1.5,-1.3 4.9,-3.15 L 17.7,51.55 16.05,50 q -1.35,-1.5 -1.8,-3.6 -0.4,-1.85 0.25,-3.45 l 0.3,-1.25"
         fill="#000000"
         fill-opacity="0.372549"
         fill-rule="evenodd"
         stroke="none"
         id="path7" />
    </g>
  </defs>
</svg>
