<?xml version="1.0" encoding="UTF-8" standalone="no"?>
<svg
   ffdec:objectType="frame"
   height="91.967712"
   width="75.269829"
   version="1.1"
   id="svg6"
   xmlns:xlink="http://www.w3.org/1999/xlink"
   xmlns="http://www.w3.org/2000/svg"
   xmlns:svg="http://www.w3.org/2000/svg"
   xmlns:ffdec="https://www.free-decompiler.com/flash">
  <g
     transform="translate(40.85,50.452)"
     id="g1">
    <use
       ffdec:characterId="17"
       height="119.15"
       id="rarity"
       transform="translate(-58.5,-60.65)"
       width="119.15"
       xlink:href="#sprite0" />
    <use
       ffdec:characterId="138"
       height="91.949997"
       transform="translate(-40.85,-50.45)"
       width="75.25"
       xlink:href="#shape0"
       id="use1" />
  </g>
  <defs
     id="defs6">
    <g
       id="shape0"
       transform="translate(40.55,52.95)">
      <path
         d="m 12.25,-39.7 -0.35,-1.5 q -0.7,-1.85 -2.4,-3.25 -2.25,-1.9 -5.2,-2.25 -2.95,-0.35 -5.5,0.9 -2.7,1.3 -3.55,3.85 l -0.55,2.8 v 0.05 l 2.45,-0.5 q 1.75,0 2.9,0.65 l 0.9,0.75 0.55,1 q 0.1,0.65 -0.3,0.95 l -0.65,0.3 H 0 l -1.7,0.05 -3.65,0.45 q -4.25,0.95 -5.5,3.45 l -0.25,0.7 -0.05,0.75 q 0,0.75 0.45,1.15 l 0.1,0.1 q 0.75,0.65 2.6,0.2 l 5.15,-0.7 2.9,-0.15 0.55,-0.1 q 0.65,0 0.7,0.3 0.15,0.45 -0.45,0.75 l -0.45,0.2 -2.05,1 -2.4,0.95 q -2.75,1.05 -5.15,1.05 -2.2,0 -3.6,-0.95 l -0.2,-0.15 -0.1,-0.1 -0.25,-0.2 q -1.25,-1.25 -1.3,-3.25 0,-1.2 0.35,-2.2 l 0.9,-1.65 1.3,-1.35 0.15,-0.2 h -0.35 l -3.05,0.55 -0.55,0.2 q -2.4,0.95 -3.1,3.05 l -0.65,2.45 -0.55,0.85 -0.5,0.5 -0.8,0.45 q -0.2,0.15 -2.45,1.15 l -1.5,0.85 -1.9,1.35 -1.5,1.5 -0.45,0.65 q -0.95,1.15 -1.15,2.3 l 0.05,1.4 0.55,1.2 0.05,0.05 19.95,-5.5 13.7,-3.7 1.6,-0.4 0.5,-0.1 5.5,-1.45 2.7,-0.7 7.05,-1.95 0.6,-0.2 0.6,-0.15 -0.2,-0.3 q -0.6,-0.95 -1.4,-1.5 -1.15,-0.75 -2.7,-0.85 L 15.65,-34 h -0.8 l -1.15,-0.35 -0.2,-0.2 q -0.6,-0.4 -0.85,-1.2 l -0.3,-1.1 -0.1,-2.85 M -26.8,33.95 q -1.25,-1.25 -2.5,-5 L -36.1,6.3 q -0.65,-2.1 -0.45,-3.5 l -0.9,-1.3 q -0.6,-1.4 -0.4,-2.9 l 0.6,-1.8 q -0.85,-0.2 -1.35,-0.65 -0.65,-0.6 -1,-2.4 l -0.9,-4.5 q -0.2,-1.9 0.4,-2.5 h 0.05 q 0.4,-1.35 2.8,-1.95 l 1.6,-0.4 q -0.55,-1.15 -0.65,-2.55 -0.25,-4.45 3.5,-8.45 2.6,-2.65 7.7,-5.25 -0.3,-1.85 1.35,-4.05 2.25,-3 5.65,-4.6 3.45,-1.65 7.1,-1.45 0.45,-3.1 2.5,-5.75 2,-2.55 4.9,-3.95 2.7,-1.3 6.05,-1.3 3.2,-0.05 6.15,1.15 4.1,1.6 6.65,5.15 2.75,3.75 2.4,7.75 2.7,-0.05 5.15,1.4 2.5,1.45 3.7,3.9 l 0.2,0.5 3.4,-0.25 q 1.35,0.6 2.6,3.25 1.75,3.75 1.95,6.05 0.45,3.75 -2,5.75 1.9,1.5 1.8,4.4 l -0.35,2.45 -0.6,2.35 Q 32.3,-4.75 32,0.95 31.8,4.4 31.95,11.3 q 0,6.9 0.75,11.3 0.65,3.5 0.05,5 -0.8,1.8 -4.2,3.5 -6.15,2.95 -10.25,4.5 -5.75,2.15 -10.8,2.9 -6.3,0.95 -14.2,0.15 l -14.25,-2.3 q -4.25,-0.85 -5.85,-2.4 m 51,-53.4 q 0.15,-0.8 0.85,-1.55 l 1.35,-1.35 q 0.75,-0.75 0.9,-1.65 0.2,-1.05 -0.45,-1.6 l -44.65,11.7 q -10.7,2.85 -17.15,3.75 l -1.55,0.1 q 0.55,1.9 1.35,2.4 L -33,-7.5 q 20.8,-2.3 41.35,-7.5 7.8,-1.95 15.5,-4.3 l 0.35,-0.1 v -0.05 m -52.35,15.5 -3.55,0.5 q 0.2,0.6 0.05,1.55 l -0.05,0.9 6.35,-0.15 7.25,-0.7 13.6,-2.3 16.6,-3.25 0.95,0.05 0.3,0.25 q 0.25,0.35 -0.15,0.75 l -0.9,0.6 -0.95,0.35 q -5.6,1.8 -15.6,4 L -19.8,1.9 -20.25,2 -21.7,2.25 -25,2.8 -29.45,3.45 q 0.6,1.3 1,3.2 2.8,10.75 5.2,18.2 0.9,2.55 1.85,3.35 0.7,0.65 2.75,1.2 12.2,2.95 22.3,2.1 7.35,-0.55 13.55,-2.95 4.05,-1.6 7.6,-3.9 v -3.5 l 0.3,-22.3 q 0.15,-5.5 0.95,-8.5 l 0.7,-2.5 Q 27,-13.6 26.7,-14.6 L 26.65,-14.65 25.8,-16 q -17.5,4.6 -49.55,11.2 l -4.4,0.85 M 12.6,2.95 Q 13.55,4.7 14.75,8 l 0.85,3.45 q 0.15,1.95 -0.65,3.45 -0.7,1.5 -1.9,2 -1.15,0.55 -2.5,0 Q 8.25,16.05 6.35,11.8 5.1,9.1 5.15,7.5 V 7.05 Q 5.3,6.25 5.75,5.65 L 6.05,5.4 Q 6.4,5.1 6.85,5.15 H 7 Q 8,5.35 8.45,7.6 L 8.5,7.8 8.9,9.55 q 0.6,1.95 1.9,3.65 0.55,0.7 1,0.45 0.45,-0.05 0.45,-0.7 Q 12.4,11.85 11.5,9.5 L 10.25,5.9 9.6,3.05 Q 9.4,1.8 9.8,1.35 l 1.4,-0.05 1.05,1.1 0.35,0.55 m -15.15,10 q 0.55,4.6 -0.2,9.25 -0.2,2.2 -1.15,3.3 -1.1,1.15 -2.85,1.05 -1.75,-0.15 -2.9,-1.25 -1.75,-1.65 -2.2,-4.8 -1.4,0.05 -3.1,-1.2 l -1.8,-2.05 -0.5,-1.3 -0.45,-2.2 v -1.8 l 0.45,-2.8 0.15,-0.7 Q -16.6,7.2 -15.9,7 l 0.75,0.1 0.15,0.15 h 0.05 q 0.45,0.35 0.6,0.9 0.1,0.5 0.05,1.4 l -0.1,0.7 q -0.3,2.7 0.65,5.2 l 0.45,1.05 q 0.5,0.85 0.95,0.85 0.35,0 0.9,-0.55 l 0.05,-0.05 V 16.7 q 1,-1.05 1.8,-0.85 0.65,0.1 0.8,0.65 0.15,0.3 0.15,0.65 l -0.15,0.8 V 18 l 1.9,4.3 q 0.65,0.2 1.2,-0.5 0.25,-0.35 0.35,-1.3 0.6,-4.2 0.35,-6.2 L -5.45,11.8 -5.5,11.2 -5.7,10.35 v -0.4 l -0.05,-1.6 0.4,-3.7 0.75,0.1 0.45,0.75 q 1.2,3.7 1.6,7.45"
         fill="#000000"
         fill-rule="evenodd"
         stroke="none"
         id="path1" />
      <path
         d="m -11.1,-31.3 0.25,-0.7 q 1.25,-2.5 5.5,-3.45 L -1.7,-35.9 0,-35.95 h 0.55 l 0.65,-0.3 q 0.4,-0.3 0.3,-0.95 l -0.55,-1 -0.9,-0.75 q -1.15,-0.65 -2.9,-0.65 l -2.45,0.5 v -0.05 l 0.55,-2.8 q 0.85,-2.55 3.55,-3.85 2.55,-1.25 5.5,-0.9 2.95,0.35 5.2,2.25 1.7,1.4 2.4,3.25 l 0.35,1.5 q -0.65,2.25 -2.5,3.45 -0.65,0.45 -1.6,0.75 l -4.9,0.4 -2.2,-0.15 -0.4,-0.05 v 0.1 l -0.05,0.8 q -0.35,2 -2.5,3.25 l -0.15,0.1 -0.9,0.45 -2.9,0.7 -2.8,0.1 -0.8,-0.25 q -0.85,-0.3 -1.45,-1 l -0.2,-0.25 M -30.45,-20 q 0.2,-1.15 1.15,-2.3 l 0.45,-0.65 1.5,-1.5 q 1.5,-0.25 2.05,-0.85 l -0.15,-0.5 1.5,-0.85 q 2.25,-1 2.45,-1.15 l 0.8,-0.45 0.5,-0.5 0.55,-0.85 0.65,-2.45 q 0.7,-2.1 3.1,-3.05 l 0.55,-0.2 3.05,-0.55 0.1,0.05 0.1,0.15 -1.3,1.35 -0.9,1.65 q -0.35,1 -0.35,2.2 0.05,2 1.3,3.25 l 0.25,0.2 0.1,0.1 -0.25,0.3 -0.45,0.55 -1.45,0.7 q -1.35,0.5 -2.65,0 l -0.5,-0.15 q 0.1,1.5 -1.05,3.2 -1.35,2 -3.8,3 -2.35,0.95 -4.85,0.5 -1.65,-0.35 -2.45,-1.2 M 24.8,21.15 v 3.5 q -3.55,2.3 -7.6,3.9 -0.8,-0.6 -1.3,-1.65 -0.65,-1.55 -0.05,-3 0.35,-0.85 1.5,-2 1.15,-1.1 2.3,-1.55 l 2.3,-0.1 q 1.85,0.1 2.85,0.9 M 10.1,0.35 Q 11.05,0.4 11.65,1 12.3,1.65 12.55,2.75 L 12.6,2.95 12.25,2.4 11.2,1.3 9.8,1.35 Q 9.4,1.8 9.6,3.05 L 10.25,5.9 11.5,9.5 10.35,9.85 8.9,9.55 8.5,7.8 8.45,7.6 Q 8,5.35 7,5.15 H 6.85 Q 6.4,5.1 6.05,5.4 V 4.8 Q 6.2,2.2 7.7,0.95 8.6,0.3 9.75,0.3 L 10.1,0.35 M 6.85,26.75 Q 6.55,25.8 7,25.1 7.6,24.15 8.55,24.3 l 0.2,-0.15 q 0.75,0 1.3,0.55 l 0.65,1.25 Q 10.75,26.7 10.25,27.3 9.8,27.95 9.1,28.1 L 7.7,27.85 Q 7.05,27.4 6.85,26.75 m -22,-19.65 h 0.1 q 0.8,-1.15 2.2,-1.95 2.1,-1.15 4.2,-0.7 1.7,0.3 2.35,1.5 0.35,0.75 0.55,2.4 l 0.05,1.6 v 0.4 l 0.2,0.85 0.05,0.6 -0.3,0.75 q -1.2,2.75 -2.5,3.65 l -0.55,0.3 q -0.15,-0.55 -0.8,-0.65 -0.8,-0.2 -1.8,0.85 v 0.05 l -0.05,0.05 q -1.3,-0.3 -2.2,-1.25 l -0.1,-0.1 q -0.95,-2.5 -0.65,-5.2 l 0.1,-0.7 q 0.05,-0.9 -0.05,-1.4 -0.15,-0.55 -0.6,-0.9 H -15 L -15.15,7.1"
         fill="#ffffff"
         fill-rule="evenodd"
         stroke="none"
         id="path2" />
      <path
         d="m -11.1,-31.3 0.2,0.25 q 0.6,0.7 1.45,1 l 0.8,0.25 2.8,-0.1 2.9,-0.7 0.9,-0.45 0.15,-0.1 q 2.15,-1.25 2.5,-3.25 l 0.05,-0.8 v -0.1 l 0.4,0.05 2.2,0.15 4.9,-0.4 q 0.95,-0.3 1.6,-0.75 1.85,-1.2 2.5,-3.45 l 0.1,2.85 0.3,1.1 q 0.25,0.8 0.85,1.2 l 0.2,0.2 1.15,0.35 h 0.8 l 2.45,-0.15 q 1.55,0.1 2.7,0.85 0.8,0.55 1.4,1.5 l -0.4,0.45 -0.6,0.2 -7.05,1.95 -2.7,0.7 -5.5,1.45 -0.5,0.1 -1.6,0.4 -13.7,3.7 -19.95,5.5 -0.05,-0.05 -0.55,-1.2 -0.05,-1.4 q 0.8,0.85 2.45,1.2 2.5,0.45 4.85,-0.5 2.45,-1 3.8,-3 1.15,-1.7 1.05,-3.2 l 0.5,0.15 q 1.3,0.5 2.65,0 l 1.45,-0.7 0.45,-0.55 0.25,-0.3 0.2,0.15 q 1.4,0.95 3.6,0.95 2.4,0 5.15,-1.05 l 2.4,-0.95 2.05,-1 0.45,-0.2 q 0.6,-0.3 0.45,-0.75 -0.05,-0.3 -0.7,-0.3 l -0.55,0.1 -2.9,0.15 -5.15,0.7 q -1.85,0.45 -2.6,-0.2 l -0.1,-0.1 q -0.45,-0.4 -0.45,-1.15 l 0.05,-0.75 m -1.2,-4.55 h 0.35 l -0.15,0.2 -0.1,-0.15 -0.1,-0.05 M 8.9,9.55 10.35,9.85 11.5,9.5 q 0.9,2.35 0.75,3.45 0,0.65 -0.45,0.7 -0.45,0.25 -1,-0.45 Q 9.5,11.5 8.9,9.55 M -5.45,11.8 -5,14.3 q 0.25,2 -0.35,6.2 -0.1,0.95 -0.35,1.3 -0.55,0.7 -1.2,0.5 L -8.8,18 v -0.05 l 0.15,-0.8 q 0,-0.35 -0.15,-0.65 l 0.55,-0.3 q 1.3,-0.9 2.5,-3.65 l 0.3,-0.75"
         fill="#d9d9d9"
         fill-rule="evenodd"
         stroke="none"
         id="path3" />
      <path
         d="m 24.2,-19.45 v 0.05 l -0.35,0.1 q -7.7,2.35 -15.5,4.3 -20.55,5.2 -41.35,7.5 l -2.15,-0.15 q -0.8,-0.5 -1.35,-2.4 l 1.55,-0.1 q 6.45,-0.9 17.15,-3.75 l 44.65,-11.7 q 0.65,0.55 0.45,1.6 -0.15,0.9 -0.9,1.65 L 25.05,-21 q -0.7,0.75 -0.85,1.55 m -49.55,18.3 q -0.95,-0.25 -1.55,-0.8 -1.05,-0.9 -1.25,-2 l 4.4,-0.85 Q 8.3,-11.4 25.8,-16 l 0.85,1.35 0.05,0.05 -0.1,0.2 q -0.6,1.3 -2.95,2.6 -4,2.2 -10.6,4.45 l -0.95,-0.05 -16.6,3.25 -13.6,2.3 -7.25,0.7 M -25,2.8 -21.7,2.25 -20.25,2 l 0.15,0.15 0.05,0.1 0.25,-0.35 15.55,-3.3 q 10,-2.2 15.6,-4 l 0.3,0.6 q 0.45,1.6 -0.95,4.1 L 10.1,0.35 9.75,0.3 Q 8.6,0.3 7.7,0.95 6.2,2.2 6.05,4.8 V 5.4 L 5.75,5.65 Q 5.3,6.25 5.15,7.05 V 7.5 l -1.8,2.2 q -1.55,1.75 -3,2.45 -1.6,0.85 -2.9,0.8 -0.4,-3.75 -1.6,-7.45 l -0.45,-0.75 -0.75,-0.1 -0.4,3.7 q -0.2,-1.65 -0.55,-2.4 -0.65,-1.2 -2.35,-1.5 -2.1,-0.45 -4.2,0.7 -1.4,0.8 -2.2,1.95 h -0.1 L -15.9,7 q -0.7,0.2 -1.2,1.45 l -0.15,0.7 -0.45,2.8 v 1.8 l 0.45,2.2 -2.15,-0.1 q -2.85,-0.7 -4.65,-3.25 -1.6,-2.25 -1.9,-5.4 Q -26.1,4.4 -25,2.8"
         fill="#adadad"
         fill-rule="evenodd"
         stroke="none"
         id="path4" />
      <path
         d="m -25.35,-1.15 -6.35,0.15 0.05,-0.9 q 0.15,-0.95 -0.05,-1.55 l 3.55,-0.5 q 0.2,1.1 1.25,2 0.6,0.55 1.55,0.8 M 26.7,-14.6 q 0.3,1 0.05,2.45 l -0.7,2.5 q -0.8,3 -0.95,8.5 l -0.3,22.3 q -1,-0.8 -2.85,-0.9 l -2.3,0.1 q -1.15,0.45 -2.3,1.55 -1.15,1.15 -1.5,2 -0.6,1.45 0.05,3 0.5,1.05 1.3,1.65 -6.2,2.4 -13.55,2.95 -10.1,0.85 -22.3,-2.1 -2.05,-0.55 -2.75,-1.2 -0.95,-0.8 -1.85,-3.35 -2.4,-7.45 -5.2,-18.2 -0.4,-1.9 -1,-3.2 L -25,2.8 q -1.1,1.6 -0.95,4.4 0.3,3.15 1.9,5.4 1.8,2.55 4.65,3.25 l 2.15,0.1 0.5,1.3 1.8,2.05 q 1.7,1.25 3.1,1.2 0.45,3.15 2.2,4.8 1.15,1.1 2.9,1.25 1.75,0.1 2.85,-1.05 0.95,-1.1 1.15,-3.3 0.75,-4.65 0.2,-9.25 1.3,0.05 2.9,-0.8 1.45,-0.7 3,-2.45 l 1.8,-2.2 q -0.05,1.6 1.2,4.3 1.9,4.25 4.2,5.1 1.35,0.55 2.5,0 1.2,-0.5 1.9,-2 0.8,-1.5 0.65,-3.45 L 14.75,8 Q 13.55,4.7 12.6,2.95 L 12.55,2.75 Q 12.3,1.65 11.65,1 11.05,0.4 10.1,0.35 l 0.6,-1.05 q 1.4,-2.5 0.95,-4.1 l -0.3,-0.6 0.95,-0.35 0.9,-0.6 q 0.4,-0.4 0.15,-0.75 l -0.3,-0.25 q 6.6,-2.25 10.6,-4.45 2.35,-1.3 2.95,-2.6 l 0.1,-0.2 M 6.85,26.75 q 0.2,0.65 0.85,1.1 l 1.4,0.25 q 0.7,-0.15 1.15,-0.8 0.5,-0.6 0.45,-1.35 L 10.05,24.7 Q 9.5,24.15 8.75,24.15 L 8.55,24.3 Q 7.6,24.15 7,25.1 6.55,25.8 6.85,26.75"
         fill="#8c8c8c"
         fill-rule="evenodd"
         stroke="none"
         id="path5" />
    </g>
    <g
       id="sprite1"
       transform="translate(17.4,15.85)">
      <use
         ffdec:characterId="31"
         height="57.200001"
         transform="matrix(0.5366,0,0,0.5366,-16.6582,-14.546)"
         width="70.75"
         xlink:href="#sprite2"
         id="use5" />
    </g>
    <g
       id="sprite2"
       transform="translate(-8.65,-10.35)">
      <use
         ffdec:characterId="30"
         height="57.200001"
         transform="translate(8.65,10.35)"
         width="70.75"
         xlink:href="#shape1"
         id="use6" />
    </g>
    <g
       id="shape1"
       transform="translate(-8.65,-10.35)">
      <path
         d="m 14.8,41.7 q 0.65,-1.75 2.65,-2.5 1.8,-0.8 3.7,-0.25 1.15,0.45 2.25,1.2 l 0.9,0.4 q 1.65,0.9 2.85,2.5 L 37.8,30.1 q 2.35,-2.8 3.75,-3.95 1.5,-1.15 4.25,-2.4 18.2,-8.85 27.65,-12.6 2.15,-0.8 3.25,-0.8 h 0.8 l 1.9,2.4 -0.2,0.8 q -0.2,1.1 -1.55,3 -5.85,8.25 -18.85,23.8 -1.85,2.35 -3.35,3.5 -1.4,1.15 -4.75,2.75 l -15.15,7.15 q 1.2,1.6 1.75,3.4 l 0.2,1 0.55,2.5 q 0.1,1.95 -1.1,3.55 -1.2,1.65 -3.05,1.9 l -1.3,0.05 q -1.65,0.2 -3.45,-0.65 -1.85,-0.9 -3,-2.6 L 25,60.95 23.8,62.1 q -2.6,2.85 -4.3,3.95 -2.85,1.8 -5.5,1.45 l -1.65,-0.5 -1.2,-0.7 -0.2,-0.2 q -1,-0.85 -1.6,-1.9 L 9.25,64 9.15,63.8 8.75,62.4 q -0.2,-0.8 -0.05,-1.7 0.25,-2.65 2.7,-5.05 1.5,-1.3 4.9,-3.15 L 17.7,51.55 16.05,50 q -1.35,-1.5 -1.8,-3.6 -0.4,-1.85 0.25,-3.45 l 0.3,-1.25"
         fill="#000000"
         fill-opacity="0.372549"
         fill-rule="evenodd"
         stroke="none"
         id="path6" />
    </g>
  </defs>
</svg>
