<?xml version="1.0" encoding="UTF-8" standalone="no"?>
<svg
   ffdec:objectType="frame"
   height="67.650002"
   width="67.408501"
   version="1.1"
   id="svg5"
   xmlns:xlink="http://www.w3.org/1999/xlink"
   xmlns="http://www.w3.org/2000/svg"
   xmlns:svg="http://www.w3.org/2000/svg"
   xmlns:ffdec="https://www.free-decompiler.com/flash">
  <g
     transform="translate(36.751923,32.75)"
     id="g1">
    <use
       ffdec:characterId="17"
       height="119.15"
       id="rarity"
       transform="translate(-58.5,-60.65)"
       width="119.15"
       xlink:href="#sprite0" />
    <use
       ffdec:characterId="126"
       height="67.699997"
       transform="translate(-36.75,-32.8)"
       width="67.400002"
       xlink:href="#shape0"
       id="use1" />
  </g>
  <defs
     id="defs5">
    <g
       id="shape0"
       transform="translate(36.45,35.3)">
      <path
         d="m -3.2,-21.85 q -1.5,5.8 -0.3,9.75 l 0.9,-1 q 1.45,-1.75 3.4,-5.35 2.2,-4.05 3.35,-5.6 0.9,-1.45 2.15,-1.9 1.4,-0.4 3.5,0.85 2.45,1.3 3.3,2.75 1,1.7 0.65,5.1 -0.45,3.6 -1.75,6.95 l 3,-2.1 q 1.4,-1.3 2.85,-4.1 1.6,-3.2 1.8,-5.4 l 0.05,-1.85 q 0.1,-1 0.45,-1.7 0.4,-0.8 1.25,-1.2 0.8,-0.45 1.7,-0.3 1.85,0.25 3.5,3.1 2.3,3.8 3.25,6.55 1.45,4.45 1,9.25 -0.45,4.7 -2.75,8.85 -2.2,3.95 -5.95,7 -3.7,2.95 -8.2,4.3 l -5.15,1.1 0.05,1.1 q 0.05,1.95 0.9,4.05 4.3,0.9 8.05,-0.65 2.1,-0.7 2.9,-0.25 l 0.2,0.15 q 0.55,0.05 1,0.55 0.55,0.5 0.65,1.25 0.2,1.05 -0.5,2.65 -1.75,3.75 -7.3,7.35 l -2.35,1.5 q -2.5,1.2 -5.15,1.45 l -3,0.05 -3.6,-0.25 -3.45,-0.8 -2.65,-0.85 -2.05,-1.7 -2.45,-2.85 -1.1,-2.2 -0.75,-1.8 -2.75,1.65 -2.15,1.5 -2.85,0.65 q -4.55,0.1 -6.05,-2.7 -1,-1.7 -0.35,-4.45 l -0.7,-0.1 q -2.85,-0.45 -5.05,-2.1 -2.25,-1.55 -3.55,-4.15 -1.25,-2.6 -1.2,-5.4 0.1,-3.55 2.7,-8.1 3.1,-5.5 7,-6.9 l 1.2,-0.35 v -0.85 l 0.3,-4.4 q 0.6,-3.1 2.7,-6.75 2.1,-3.6 5.05,-6.65 4.25,-4.3 9.6,-6.85 1.65,-0.85 3.1,-1.1 l 3.05,-0.15 2.95,0.2 2.7,0.25 q 1.6,0.5 1.7,1.95 0.05,0.7 -0.55,1.35 L 4.55,-31.05 4.5,-31 q -0.45,0.5 -1.75,0.85 -4.1,1.45 -5.95,8.3 m 4.35,14 q 2.6,0.5 5.2,-0.05 v -0.05 q 2,-4.55 2.75,-9.15 0.35,-1.5 0,-2.3 l -0.65,-1 q -0.5,-0.35 -1.05,-0.3 -3,6.75 -7.8,12.45 l 1.55,0.4 M 11.3,-3.8 Q 4.95,-0.9 -1.3,-2.45 -4.2,-3.1 -5.9,-4.5 -7.7,-6.1 -8.6,-8.95 l -0.1,0.95 -0.2,3.5 -0.5,3.45 -0.1,0.55 0.6,-0.3 q 2.2,-1 6,-0.9 2.9,0.1 4,1.3 l 1,1.85 Q 2.85,3.25 2.8,4 L 2.3,6.1 2.1,6.5 q 3.95,-0.75 7.65,-3.6 3.8,-3.05 6.95,-8.35 l 1.9,-3.6 q -3.25,3.45 -7.3,5.25 m 8.95,6.45 q 1.35,-1.3 2.55,-3.3 3.55,-6 2.6,-12.75 -0.5,-3.1 -1.85,-4.9 l -0.2,1.25 0.25,0.2 0.4,0.95 q 0.05,0.85 -0.55,2.1 l -3.6,7.8 q -2.2,4.35 -4.5,7.35 Q 12.4,4.9 8.85,7 L 6.75,8.15 Q 15.65,7 20.25,2.65 M -9.35,-15.2 q 0.1,-6.85 1.95,-11.1 l 1.7,-2.85 q -2.35,1 -4.75,2.8 -3.7,2.9 -5.85,6.05 -2.2,3.3 -3.1,7 -0.9,3.5 -0.25,6.25 0.8,3.55 3.4,5.1 l 1.95,1.05 q 1.15,0.55 1.75,1.15 0.35,0.4 0.55,0.9 l 0.05,-0.05 h 0.05 l -0.05,-0.9 q 0,-1.7 0.55,-5 l 0.25,-3.45 q 0.25,-2.75 1.8,-6.95 M -23.2,-0.85 -23.7,-1.7 q -0.3,0.55 0,1.1 0.25,0.65 1.15,1.05 l 0.25,0.1 -0.9,-1.4 M -3,7.6 Q -2.5,5.55 -2.5,3.5 -5.65,2.75 -8.75,5 q -1.7,1.1 -4.65,4.7 l -4.95,6.1 q -2.2,2.8 -1.85,4.5 3.8,-0.05 7.65,-2.6 l 0.3,-0.15 0.3,-0.3 0.55,-0.25 5.2,-4.4 1.85,-1.9 Q -3.5,9.55 -3,7.6 m 3.3,5.1 -0.45,-0.3 -0.75,1.1 q 0.15,0.7 -0.35,1.8 l -0.9,2.05 q -0.35,1.5 1.15,4.2 1.45,2.5 2.55,3.85 1.15,1.35 2.35,2.1 h 1.5 l 2.45,-0.15 2.4,-0.9 q 3.3,-1.4 4.7,-2.85 l 0.5,-0.55 -4.3,0.3 Q 8.7,23.35 7.5,22.65 6.6,22.05 5.85,20.8 4.35,18.5 3.8,16.25 3.35,14.65 3.4,13.5 1.5,13.3 0.3,12.7 m -6.05,4.85 -2.2,1.6 0.1,1.05 q 0.15,0.85 1.2,2.2 1.9,2.45 3,3.3 l 2.5,1.15 -2.55,-4.15 q -1.45,-2.55 -1.6,-4.15 l 0.05,-1.35 -0.5,0.35 m -16.5,-5.85 1.65,-2.15 q 1.85,-2.35 3.9,-4.35 -3.95,0.65 -7.7,-0.95 -1.8,-0.65 -2.9,-1.95 -1.3,-1.45 -1.15,-3.1 -2.45,3.9 -2.8,6.55 -0.3,1.85 0.35,3.6 0.6,1.85 2.05,2.8 1.3,0.9 3.95,1.25 l 1.35,0.15 1.3,-1.85"
         fill="#000000"
         fill-rule="evenodd"
         stroke="none"
         id="path1" />
      <path
         d="m -9.35,-15.2 q -1.55,4.2 -1.8,6.95 l -0.25,3.45 q -0.55,3.3 -0.55,5 l 0.05,0.9 h -0.05 L -12,1.15 q -0.2,-0.5 -0.55,-0.9 -0.6,-0.6 -1.75,-1.15 l -1.95,-1.05 q -2.6,-1.55 -3.4,-5.1 -0.65,-2.75 0.25,-6.25 0.9,-3.7 3.1,-7 2.15,-3.15 5.85,-6.05 2.4,-1.8 4.75,-2.8 l -1.7,2.85 q -1.85,4.25 -1.95,11.1 M 20.25,2.65 Q 15.65,7 6.75,8.15 L 8.85,7 q 3.55,-2.1 6.5,-5.65 2.3,-3 4.5,-7.35 l 3.6,-7.8 q 0.6,-1.25 0.55,-2.1 l -0.4,-0.95 -0.25,-0.2 0.2,-1.25 q 1.35,1.8 1.85,4.9 0.95,6.75 -2.6,12.75 -1.2,2 -2.55,3.3 M 11.3,-3.8 q 4.05,-1.8 7.3,-5.25 l -1.9,3.6 Q 13.55,-0.15 9.75,2.9 6.05,5.75 2.1,6.5 L 2.3,6.1 2.8,4 Q 2.85,3.25 2.1,1.45 l -1,-1.85 q -1.1,-1.2 -4,-1.3 -3.8,-0.1 -6,0.9 l -0.6,0.3 0.1,-0.55 0.5,-3.45 0.2,-3.5 0.1,-0.95 q 0.9,2.85 2.7,4.45 1.7,1.4 4.6,2.05 6.25,1.55 12.6,-1.35 m -33.55,15.5 -1.3,1.85 -1.35,-0.15 q -2.65,-0.35 -3.95,-1.25 -1.45,-0.95 -2.05,-2.8 -0.65,-1.75 -0.35,-3.6 0.35,-2.65 2.8,-6.55 -0.15,1.65 1.15,3.1 1.1,1.3 2.9,1.95 3.75,1.6 7.7,0.95 -2.05,2 -3.9,4.35 l -1.65,2.15 m 16.5,5.85 0.5,-0.35 -0.05,1.35 q 0.15,1.6 1.6,4.15 l 2.55,4.15 -2.5,-1.15 q -1.1,-0.85 -3,-3.3 -1.05,-1.35 -1.2,-2.2 l -0.1,-1.05 2.2,-1.6 M 0.3,12.7 q 1.2,0.6 3.1,0.8 -0.05,1.15 0.4,2.75 0.55,2.25 2.05,4.55 0.75,1.25 1.65,1.85 1.2,0.7 3.65,0.7 l 4.3,-0.3 -0.5,0.55 q -1.4,1.45 -4.7,2.85 L 7.85,27.35 5.4,27.5 H 3.9 Q 2.7,26.75 1.55,25.4 0.45,24.05 -1,21.55 q -1.5,-2.7 -1.15,-4.2 l 0.9,-2.05 q 0.5,-1.1 0.35,-1.8 l 0.75,-1.1 0.45,0.3"
         fill="#c1afcd"
         fill-rule="evenodd"
         stroke="none"
         id="path2" />
      <path
         d="m -3,7.6 q -0.5,1.95 -1.35,3.1 l -1.85,1.9 -5.2,4.4 -0.55,0.25 -0.3,0.3 -0.3,0.15 q -3.85,2.55 -7.65,2.6 -0.35,-1.7 1.85,-4.5 l 4.95,-6.1 q 2.95,-3.6 4.65,-4.7 3.1,-2.25 6.25,-1.5 0,2.05 -0.5,4.1"
         fill="#fcffd0"
         fill-rule="evenodd"
         stroke="none"
         id="path3" />
      <path
         d="m 1.15,-7.85 -1.55,-0.4 q 4.8,-5.7 7.8,-12.45 0.55,-0.05 1.05,0.3 l 0.65,1 q 0.35,0.8 0,2.3 -0.75,4.6 -2.75,9.15 v 0.05 q -2.6,0.55 -5.2,0.05"
         fill="#88ad88"
         fill-rule="evenodd"
         stroke="none"
         id="path4" />
    </g>
    <g
       id="sprite1"
       transform="translate(17.4,15.85)">
      <use
         ffdec:characterId="31"
         height="57.200001"
         transform="matrix(0.5366,0,0,0.5366,-16.6582,-14.546)"
         width="70.75"
         xlink:href="#sprite2"
         id="use4" />
    </g>
    <g
       id="sprite2"
       transform="translate(-8.65,-10.35)">
      <use
         ffdec:characterId="30"
         height="57.200001"
         transform="translate(8.65,10.35)"
         width="70.75"
         xlink:href="#shape1"
         id="use5" />
    </g>
    <g
       id="shape1"
       transform="translate(-8.65,-10.35)">
      <path
         d="m 14.8,41.7 q 0.65,-1.75 2.65,-2.5 1.8,-0.8 3.7,-0.25 1.15,0.45 2.25,1.2 l 0.9,0.4 q 1.65,0.9 2.85,2.5 L 37.8,30.1 q 2.35,-2.8 3.75,-3.95 1.5,-1.15 4.25,-2.4 18.2,-8.85 27.65,-12.6 2.15,-0.8 3.25,-0.8 h 0.8 l 1.9,2.4 -0.2,0.8 q -0.2,1.1 -1.55,3 -5.85,8.25 -18.85,23.8 -1.85,2.35 -3.35,3.5 -1.4,1.15 -4.75,2.75 l -15.15,7.15 q 1.2,1.6 1.75,3.4 l 0.2,1 0.55,2.5 q 0.1,1.95 -1.1,3.55 -1.2,1.65 -3.05,1.9 l -1.3,0.05 q -1.65,0.2 -3.45,-0.65 -1.85,-0.9 -3,-2.6 L 25,60.95 23.8,62.1 q -2.6,2.85 -4.3,3.95 -2.85,1.8 -5.5,1.45 l -1.65,-0.5 -1.2,-0.7 -0.2,-0.2 q -1,-0.85 -1.6,-1.9 L 9.25,64 9.15,63.8 8.75,62.4 q -0.2,-0.8 -0.05,-1.7 0.25,-2.65 2.7,-5.05 1.5,-1.3 4.9,-3.15 L 17.7,51.55 16.05,50 q -1.35,-1.5 -1.8,-3.6 -0.4,-1.85 0.25,-3.45 l 0.3,-1.25"
         fill="#000000"
         fill-opacity="0.372549"
         fill-rule="evenodd"
         stroke="none"
         id="path5" />
    </g>
  </defs>
</svg>
