<?xml version="1.0" encoding="UTF-8" standalone="no"?>
<svg
   ffdec:objectType="frame"
   height="73.650002"
   width="52.943584"
   version="1.1"
   id="svg4"
   sodipodi:docname="ITEM Steven 2.svg"
   xmlns:inkscape="http://www.inkscape.org/namespaces/inkscape"
   xmlns:sodipodi="http://sodipodi.sourceforge.net/DTD/sodipodi-0.dtd"
   xmlns:xlink="http://www.w3.org/1999/xlink"
   xmlns="http://www.w3.org/2000/svg"
   xmlns:svg="http://www.w3.org/2000/svg"
   xmlns:ffdec="https://www.free-decompiler.com/flash">
  <sodipodi:namedview
     id="namedview4"
     pagecolor="#ffffff"
     bordercolor="#000000"
     borderopacity="0.25"
     inkscape:showpageshadow="2"
     inkscape:pageopacity="0.0"
     inkscape:pagecheckerboard="0"
     inkscape:deskcolor="#d1d1d1"
     fit-margin-top="5"
     fit-margin-left="5"
     fit-margin-right="5"
     fit-margin-bottom="5" />
  <g
     transform="translate(28.231818,38.25)"
     id="g1">
    <use
       ffdec:characterId="17"
       height="119.15"
       id="rarity"
       transform="translate(-58.5,-60.65)"
       width="119.15"
       xlink:href="#sprite0" />
    <use
       ffdec:characterId="854"
       height="73.650002"
       transform="translate(-28.25,-38.25)"
       width="52.950001"
       xlink:href="#shape0"
       id="use1" />
  </g>
  <defs
     id="defs4">
    <g
       id="shape0"
       transform="translate(28.8,39)">
      <path
         d="m 2.6,-31.95 -3.35,-0.3 -1.8,0.3 -1.3,0.3 q -3.65,-0.3 -0.6,0.05 h 0.1 q -4.4,0.95 -8.2,4.45 -3.25,2.95 -5.6,7.55 -3.1,5.85 -2.15,10.25 0.65,3.3 3.55,5.95 2.4,2.15 5.95,3.6 5.8,2.3 11,1.7 4.65,-0.55 8.6,-3.35 4,-2.75 6.05,-6.95 2.35,-4.8 1.7,-9.75 -0.7,-5.3 -4.35,-8.9 -1.5,-1.35 -3.8,-2.7 -3.15,-1.8 -5.8,-2.2 m 3.55,-6.45 q 6.25,1.3 11.05,6.1 4.8,4.7 6.3,11 1.5,6.2 -0.4,12.65 -1.85,6.4 -6.45,10.95 -2.15,2.2 -4.8,3.85 l 0.45,1.25 0.65,2.85 0.4,4.5 q -0.1,5.35 -3.6,9.4 L 7.45,26.35 7.6,27 Q 8,28.35 8,29.25 8,31.3 6.45,32.95 L 5,34.05 q -1.15,0.6 -2.75,0.6 -1.65,0 -2.85,-0.65 l -1.05,-0.8 -0.9,-1.1 -0.65,-1.1 -0.35,-0.95 -0.1,-0.6 h -0.1 l -4.2,-0.55 q -3.35,-0.8 -6.25,-3 -2.9,-2.2 -4.65,-5.25 -1.3,-2.25 -1.6,-4.3 -0.2,-1.45 0.2,-4 0.7,-3.6 2.35,-6.3 -4.4,-2.75 -7.6,-7.25 -1.9,-2.65 -2.7,-5.3 -0.8,-2.75 -0.5,-6.5 0.55,-5.2 3.2,-10.25 2.45,-4.75 6.5,-8.65 5.2,-4.95 10.5,-6.35 l 7.05,-0.75 7.6,0.6 M -7,10 l -4.35,-0.95 -0.6,1.4 q -0.65,1.45 -0.75,2.45 -0.2,1.7 0.7,3.4 0.8,1.55 2.3,2.75 2.1,1.7 4.85,2.2 L 0.5,21 Q 3.55,20 4.9,17.8 6.2,15.55 5.55,11.75 L 4.9,9.4 4.8,9.2 Q -1,10.8 -7,10"
         fill="#000000"
         fill-rule="evenodd"
         stroke="none"
         id="path1" />
      <path
         d="m 2.6,-31.95 q 2.65,0.4 5.8,2.2 2.3,1.35 3.8,2.7 3.65,3.6 4.35,8.9 0.65,4.95 -1.7,9.75 -2.05,4.2 -6.05,6.95 -3.95,2.8 -8.6,3.35 -5.2,0.6 -11,-1.7 -3.55,-1.45 -5.95,-3.6 -2.9,-2.65 -3.55,-5.95 -0.95,-4.4 2.15,-10.25 2.35,-4.6 5.6,-7.55 3.8,-3.5 8.2,-4.45 h -0.1 q -3.05,-0.35 0.6,-0.05 l 1.3,-0.3 1.8,-0.3 3.35,0.3 m -12.85,8.7 q -1.6,-0.15 -2.95,0.95 -1.35,1 -1.75,2.6 -0.25,1 0,2.15 0.2,1.1 0.9,1.95 1.55,1.85 3.9,1.65 1.3,-0.1 2.4,-0.95 1.05,-0.9 1.5,-2.15 0.45,-1.25 0.15,-2.6 -0.3,-1.3 -1.3,-2.25 -1.1,-1.25 -2.85,-1.35 m 0.3,16.3 q 0.1,1.75 0.55,2.5 l 1.35,1.2 1.25,0.7 1.2,0.25 1.2,0.3 3.65,0.35 3.7,-0.1 L 4.6,-1.9 6,-2.95 Q 6.7,-3.7 7,-4.6 l 0.15,-0.95 q 0.35,-2.8 -1.3,-4.4 l -1.9,-1.15 -1.55,-0.5 -2.2,-0.35 -3.7,-0.15 -3.55,0.6 q -1.85,0.65 -2.5,1.85 -0.4,0.75 -0.4,2.7 M -6,-7.1 q -0.1,-0.4 0.35,-0.65 L -4.9,-8 -2,-8.15 0,-8.2 1.75,-8.1 q 1.1,0.15 1.55,0.8 0.4,0.4 0.25,0.85 Q 3.3,-6 2.35,-6 l -7.3,-0.4 Q -5.95,-6.5 -6,-7.1 M 10.6,-19 q -1.15,0.2 -2.05,1 -0.9,0.8 -1.25,1.9 -0.35,1.05 -0.1,2.25 0.3,1.15 1.05,1.95 0.8,0.85 1.95,1.2 l 2.25,0.05 q 1.4,-0.35 2.3,-1.55 0.8,-1 0.85,-2.35 0.1,-1.4 -0.6,-2.5 -0.65,-1.05 -1.9,-1.65 -1.25,-0.55 -2.5,-0.3 M -7,10 q 6,0.8 11.8,-0.8 l 0.1,0.2 0.65,2.35 Q 6.2,15.55 4.9,17.8 3.55,20 0.5,21 l -5.35,0.25 q -2.75,-0.5 -4.85,-2.2 -1.5,-1.2 -2.3,-2.75 -0.9,-1.7 -0.7,-3.4 0.1,-1 0.75,-2.45 l 0.6,-1.4 L -7,10"
         fill="#121212"
         fill-rule="evenodd"
         stroke="none"
         id="path2" />
      <path
         d="m 10.6,-19 q 1.25,-0.25 2.5,0.3 1.25,0.6 1.9,1.65 0.7,1.1 0.6,2.5 -0.05,1.35 -0.85,2.35 -0.9,1.2 -2.3,1.55 L 10.2,-10.7 q -1.15,-0.35 -1.95,-1.2 -0.75,-0.8 -1.05,-1.95 -0.25,-1.2 0.1,-2.25 0.35,-1.1 1.25,-1.9 0.9,-0.8 2.05,-1 M -6,-7.1 q 0.05,0.6 1.05,0.7 L 2.35,-6 Q 3.3,-6 3.55,-6.45 3.7,-6.9 3.3,-7.3 2.85,-7.95 1.75,-8.1 L 0,-8.2 -2,-8.15 -4.9,-8 -5.65,-7.75 Q -6.1,-7.5 -6,-7.1 m -3.95,0.15 q 0,-1.95 0.4,-2.7 0.65,-1.2 2.5,-1.85 l 3.55,-0.6 3.7,0.15 2.2,0.35 1.55,0.5 1.9,1.15 q 1.65,1.6 1.3,4.4 L 7,-4.6 Q 6.7,-3.7 6,-2.95 L 4.6,-1.9 2.95,-1.75 -0.75,-1.65 -4.4,-2 -5.6,-2.3 -6.8,-2.55 -8.05,-3.25 -9.4,-4.45 q -0.45,-0.75 -0.55,-2.5 m -0.3,-16.3 q 1.75,0.1 2.85,1.35 1,0.95 1.3,2.25 0.3,1.35 -0.15,2.6 -0.45,1.25 -1.5,2.15 -1.1,0.85 -2.4,0.95 -2.35,0.2 -3.9,-1.65 -0.7,-0.85 -0.9,-1.95 -0.25,-1.15 0,-2.15 0.4,-1.6 1.75,-2.6 1.35,-1.1 2.95,-0.95"
         fill="#ffffff"
         fill-rule="evenodd"
         stroke="none"
         id="path3" />
    </g>
    <g
       id="sprite1"
       transform="translate(17.4,15.85)">
      <use
         ffdec:characterId="31"
         height="57.200001"
         transform="matrix(0.5366,0,0,0.5366,-16.6582,-14.546)"
         width="70.75"
         xlink:href="#sprite2"
         id="use3" />
    </g>
    <g
       id="sprite2"
       transform="translate(-8.65,-10.35)">
      <use
         ffdec:characterId="30"
         height="57.200001"
         transform="translate(8.65,10.35)"
         width="70.75"
         xlink:href="#shape1"
         id="use4" />
    </g>
    <g
       id="shape1"
       transform="translate(-8.65,-10.35)">
      <path
         d="m 14.8,41.7 q 0.65,-1.75 2.65,-2.5 1.8,-0.8 3.7,-0.25 1.15,0.45 2.25,1.2 l 0.9,0.4 q 1.65,0.9 2.85,2.5 L 37.8,30.1 q 2.35,-2.8 3.75,-3.95 1.5,-1.15 4.25,-2.4 18.2,-8.85 27.65,-12.6 2.15,-0.8 3.25,-0.8 h 0.8 l 1.9,2.4 -0.2,0.8 q -0.2,1.1 -1.55,3 -5.85,8.25 -18.85,23.8 -1.85,2.35 -3.35,3.5 -1.4,1.15 -4.75,2.75 l -15.15,7.15 q 1.2,1.6 1.75,3.4 l 0.2,1 0.55,2.5 q 0.1,1.95 -1.1,3.55 -1.2,1.65 -3.05,1.9 l -1.3,0.05 q -1.65,0.2 -3.45,-0.65 -1.85,-0.9 -3,-2.6 L 25,60.95 23.8,62.1 q -2.6,2.85 -4.3,3.95 -2.85,1.8 -5.5,1.45 l -1.65,-0.5 -1.2,-0.7 -0.2,-0.2 q -1,-0.85 -1.6,-1.9 L 9.25,64 9.15,63.8 8.75,62.4 q -0.2,-0.8 -0.05,-1.7 0.25,-2.65 2.7,-5.05 1.5,-1.3 4.9,-3.15 L 17.7,51.55 16.05,50 q -1.35,-1.5 -1.8,-3.6 -0.4,-1.85 0.25,-3.45 l 0.3,-1.25"
         fill="#000000"
         fill-opacity="0.372549"
         fill-rule="evenodd"
         stroke="none"
         id="path4" />
    </g>
  </defs>
</svg>
