<?xml version="1.0" encoding="UTF-8" standalone="no"?>
<svg
   ffdec:objectType="frame"
   height="60.730881"
   width="45.943645"
   version="1.1"
   id="svg3"
   xmlns:xlink="http://www.w3.org/1999/xlink"
   xmlns="http://www.w3.org/2000/svg"
   xmlns:svg="http://www.w3.org/2000/svg"
   xmlns:ffdec="https://www.free-decompiler.com/flash">
  <g
     transform="translate(21.528261,30.1)"
     id="g1">
    <use
       ffdec:characterId="17"
       height="119.15"
       id="rarity"
       transform="translate(-58.5,-60.65)"
       width="119.15"
       xlink:href="#sprite0" />
    <use
       ffdec:characterId="129"
       height="60.950001"
       transform="translate(-21.55,-30.3)"
       width="45.950001"
       xlink:href="#shape0"
       id="use1" />
  </g>
  <defs
     id="defs3">
    <g
       id="shape0"
       transform="translate(21.25,32.8)">
      <path
         d="M 10.8,0.35 5.95,8.4 q -3.4,4.8 -4.3,6.8 l -0.6,1.15 -0.75,0.9 q -0.65,0.5 -1.55,0.4 -0.9,-0.15 -1.4,-0.8 L -3.45,15.6 -5,14.3 l -0.8,-0.5 -0.15,0.35 -0.85,2.4 q -0.55,0.7 -1.45,0.9 l -1.7,-0.2 -0.45,-0.35 -4.5,7.7 q -1.75,2.6 -3.1,3.2 -1.65,0.75 -2.6,-0.2 -0.85,-0.8 -0.55,-2.6 0.3,-2.05 2.1,-5.3 l 3.25,-6.05 -0.85,-1 q -0.45,-1.1 0.25,-2.3 l 0.6,-0.85 q -2.1,-0.75 -2.85,-1.3 -2.4,-1.5 -2.4,-3.85 0,-1.1 0.7,-2.3 l 1.5,-2 7.75,-10.55 q 3.15,-4.35 6.15,-7.2 l -0.9,-0.35 -1.85,-0.85 q -1.05,-0.6 -1.55,-1.3 -1.1,-1.4 -0.4,-3.1 0.3,-0.75 1,-1.25 0.7,-0.5 1.5,-0.55 0.9,-0.1 2.6,0.7 l 5.7,3.15 1.5,0.5 2.2,1.5 1.05,0.75 0.9,0.6 0.15,-0.35 3.25,-6.4 -1.9,-1.75 q -1.8,-1.7 -2.05,-2.85 -0.2,-1 0.3,-2 0.5,-0.95 1.45,-1.35 l 2.65,0.05 2.5,1.25 q 3.45,2.15 5.2,3.45 2.8,2.1 4.55,4.2 1.7,1.85 1.8,3.55 0.1,1.05 -0.45,1.95 -0.55,1 -1.5,1.2 -0.9,0.15 -2.3,-0.4 -2.6,-1.1 -5.45,-3.2 l -1.7,3.05 -1.4,2.85 q 2.55,1.8 3.85,3.15 l 2.9,2.95 1.7,1.3 1.55,1.4 Q 22.65,-5 22.8,-3.95 23,-2.8 22.35,-2 21.6,-1.05 20.2,-1.05 19,-1.1 17.9,-1.75 16.3,-2.6 14.2,-4.65 L 13.5,-3.9 10.8,0.35 M 2.25,-13.5 q -1.05,-0.85 -1.65,-0.8 -0.35,0 -1.2,0.65 -2.2,2.05 -5.4,6.4 l 1.55,1.25 2.8,2.25 V -3.8 Q 0.7,-9 4.05,-11.7 L 4.5,-12 2.25,-13.5 M -13.9,3.7 q 5.75,1.85 11.3,4.9 1.15,0.75 1.8,0.45 0.55,-0.15 1.05,-1.1 L 2.75,3.8 Q 0.65,2.9 -2.45,0.7 -6.3,-2.05 -7.7,-2.85 L -8.75,-3.45 -13.9,3.7 M 9.05,-7.55 q -0.65,-1.55 -2.5,-3 L 5.45,-9 3.75,-6.9 Q 2.5,-5.15 1.8,-3.15 l -0.45,1.4 1.95,1.05 1.6,0.85 4.15,-7.7"
         fill="#000000"
         fill-rule="evenodd"
         stroke="none"
         id="path1" />
      <path
         d="M 9.05,-7.55 4.9,0.15 3.3,-0.7 1.35,-1.75 1.8,-3.15 q 0.7,-2 1.95,-3.75 l 1.7,-2.1 1.1,-1.55 q 1.85,1.45 2.5,3 M -13.9,3.7 l 5.15,-7.15 1.05,0.6 q 1.4,0.8 5.25,3.55 3.1,2.2 5.2,3.1 L 0.25,7.95 Q -0.25,8.9 -0.8,9.05 -1.45,9.35 -2.6,8.6 -8.15,5.55 -13.9,3.7 M 2.25,-13.5 4.5,-12 4.05,-11.7 Q 0.7,-9 -1.65,-3.8 v 0.05 L -4.45,-6 -6,-7.25 q 3.2,-4.35 5.4,-6.4 0.85,-0.65 1.2,-0.65 0.6,-0.05 1.65,0.8"
         fill="#ffffff"
         fill-opacity="0"
         fill-rule="evenodd"
         stroke="none"
         id="path2" />
    </g>
    <g
       id="sprite1"
       transform="translate(17.4,15.85)">
      <use
         ffdec:characterId="31"
         height="57.200001"
         transform="matrix(0.5366,0,0,0.5366,-16.6582,-14.546)"
         width="70.75"
         xlink:href="#sprite2"
         id="use2" />
    </g>
    <g
       id="sprite2"
       transform="translate(-8.65,-10.35)">
      <use
         ffdec:characterId="30"
         height="57.200001"
         transform="translate(8.65,10.35)"
         width="70.75"
         xlink:href="#shape1"
         id="use3" />
    </g>
    <g
       id="shape1"
       transform="translate(-8.65,-10.35)">
      <path
         d="m 14.8,41.7 q 0.65,-1.75 2.65,-2.5 1.8,-0.8 3.7,-0.25 1.15,0.45 2.25,1.2 l 0.9,0.4 q 1.65,0.9 2.85,2.5 L 37.8,30.1 q 2.35,-2.8 3.75,-3.95 1.5,-1.15 4.25,-2.4 18.2,-8.85 27.65,-12.6 2.15,-0.8 3.25,-0.8 h 0.8 l 1.9,2.4 -0.2,0.8 q -0.2,1.1 -1.55,3 -5.85,8.25 -18.85,23.8 -1.85,2.35 -3.35,3.5 -1.4,1.15 -4.75,2.75 l -15.15,7.15 q 1.2,1.6 1.75,3.4 l 0.2,1 0.55,2.5 q 0.1,1.95 -1.1,3.55 -1.2,1.65 -3.05,1.9 l -1.3,0.05 q -1.65,0.2 -3.45,-0.65 -1.85,-0.9 -3,-2.6 L 25,60.95 23.8,62.1 q -2.6,2.85 -4.3,3.95 -2.85,1.8 -5.5,1.45 l -1.65,-0.5 -1.2,-0.7 -0.2,-0.2 q -1,-0.85 -1.6,-1.9 L 9.25,64 9.15,63.8 8.75,62.4 q -0.2,-0.8 -0.05,-1.7 0.25,-2.65 2.7,-5.05 1.5,-1.3 4.9,-3.15 L 17.7,51.55 16.05,50 q -1.35,-1.5 -1.8,-3.6 -0.4,-1.85 0.25,-3.45 l 0.3,-1.25"
         fill="#000000"
         fill-opacity="0.372549"
         fill-rule="evenodd"
         stroke="none"
         id="path3" />
    </g>
  </defs>
</svg>
