<?xml version="1.0" encoding="UTF-8" standalone="no"?>
<svg
   ffdec:objectType="frame"
   height="92.588524"
   width="97.410225"
   version="1.1"
   id="svg9"
   xmlns:xlink="http://www.w3.org/1999/xlink"
   xmlns="http://www.w3.org/2000/svg"
   xmlns:svg="http://www.w3.org/2000/svg"
   xmlns:ffdec="https://www.free-decompiler.com/flash">
  <g
     transform="translate(50.610227,50.388525)"
     id="g3">
    <use
       ffdec:characterId="17"
       height="119.15"
       id="rarity"
       transform="translate(-58.5,-60.65)"
       width="119.15"
       xlink:href="#sprite0" />
    <use
       ffdec:characterId="1092"
       height="49.900002"
       transform="translate(-50.6,-7.7)"
       width="62.099998"
       xlink:href="#shape0"
       id="use1" />
    <use
       ffdec:characterId="1093"
       height="77.099998"
       transform="translate(-37.8,-39.55)"
       width="74"
       xlink:href="#sprite1"
       id="use2" />
    <use
       ffdec:characterId="1095"
       height="56.200001"
       transform="matrix(1,-0.1123,0,1,-19.05,-45.7)"
       width="65.849998"
       xlink:href="#sprite2"
       id="use3" />
  </g>
  <defs
     id="defs9">
    <g
       id="shape0"
       transform="translate(97.4,9.05)">
      <path
         d="m -84.15,-8.75 q 4.45,0.55 2.35,4.45 -0.85,1.55 -2.7,2.3 -1,0.5 -2.1,0.85 l -0.7,0.8 -0.55,1.3 0.15,1.05 q 0.1,1 0.75,1.65 l 4.65,-5.1 q 2.35,-2.25 4.4,-4.95 l 0.65,-0.65 0.1,-0.45 0.15,-0.9 0.2,-0.2 0.6,-0.4 v -0.05 l 0.55,0.1 h 0.3 q 0.5,0.25 0.65,0.75 l 0.3,1.05 q -1.75,6.55 -5.7,12.05 1.5,0.55 2.9,1.45 4.65,2.95 2.7,7.5 l 3,-0.15 q 1,0 2,0.5 4.8,2.75 8.2,7.25 l 0.85,0.95 2,-2.05 q -1.55,-1.85 -2.4,-4.15 -0.45,-1.1 0.5,-1.85 l 0.95,-0.45 q 2.45,0.55 4.05,2.35 l 0.5,-0.85 0.9,-1.45 L -55.4,7 -54.85,6.1 q 0.4,-0.55 0.9,-0.75 l 1.15,0.15 0.3,0.1 q 1.35,2.1 2.25,4.5 4.95,-3.8 12.35,-2.95 1.35,0.7 2.2,1.9 0.55,0.75 0.35,1.6 l -0.15,0.15 -0.3,0.15 h -0.45 l -0.25,-0.1 -0.15,-0.2 -0.2,-0.4 -0.15,-0.15 -1,-0.15 -0.2,-0.1 q -6,1 -10.1,4.75 2.9,3.05 0.85,6.45 -0.4,0.7 -1.15,0.5 -2.15,-0.6 -3.4,-2.2 l -0.75,1.35 0.05,0.05 0.6,1.1 0.05,0.2 -0.05,0.45 -0.1,0.45 -0.3,0.3 -0.65,0.45 h -0.05 l -0.65,-0.05 -0.35,-0.1 -0.15,-0.05 -0.4,0.5 -0.7,1 q 2.5,0.05 5.4,-1.6 1.9,-1.1 3.4,-2.6 2.2,-2.25 4.4,-0.05 1.65,1.75 0.05,3.7 -7.2,9 -18,5.1 -2.25,1.65 -4.8,2.7 l -0.1,1.7 -0.5,3.3 q -0.25,0.25 -0.6,0.25 l -0.9,0.05 q -0.65,-0.4 -0.8,-1.15 -0.3,-0.85 -0.75,-1.55 V 34.6 34.4 33.9 l -0.2,-0.5 -1.95,0.35 -0.25,1.9 q -0.25,2.75 -1.45,5.05 l -0.25,0.15 h -0.45 q -1.1,-0.55 -1.25,-1.65 -0.15,-1.1 -0.65,-2.1 v -1.25 q -0.15,-1.05 0.05,-1.95 l -0.65,-0.05 q -7.95,-0.4 -9.5,-7.45 -0.45,-2.05 0.15,-4.2 -1.85,-0.55 -3.6,-1.85 l -0.4,-0.3 -1.65,0.3 -2.5,0.5 q -0.75,0.3 -1.4,-0.35 l -0.1,-0.2 -0.1,-0.1 -0.05,-0.25 -0.05,-0.25 q 1.1,-1.95 3.05,-3.2 l -0.4,-1.95 Q -95.35,14.4 -97,12 q -0.95,-1.45 0.3,-2.75 0.55,-0.75 1.4,-0.95 l 5,0.15 0.25,-0.35 -1.3,-1.4 q -2.3,-3.25 -1.45,-7.1 1.35,-5.55 7,-7.6 l 1.1,-0.5 0.55,-0.25 m 4.25,35.1 q 1.85,2.05 4.35,2.45 l 0.05,-1.35 q 0.05,-1.65 1.6,-2.05 2.9,0.45 3.5,2.85 l 1.1,-0.4 1.15,-0.9 0.75,0.1 1.85,-0.95 -0.95,-1.25 q -2.3,-3.3 -5.7,-5.3 -1.5,-0.85 -2.95,0.25 -1.95,1.55 -3.95,2.25 -0.9,2.05 -0.8,4.3 m 0.5,-14.85 q -1.8,-1.9 -4.35,-2.15 l -1.05,1.4 1.8,1.4 q 0.55,0.55 0.1,1.2 l -1.3,1.45 0.5,0.5 0.05,0.2 0.05,0.2 0.05,0.25 0.05,0.15 -0.2,0.45 1.1,0.2 q 1.45,-2.7 3.2,-5.25"
         fill="#000000"
         fill-rule="evenodd"
         stroke="none"
         id="path3" />
    </g>
    <g
       id="sprite1">
      <use
         ffdec:characterId="923"
         height="77.099998"
         width="74"
         xlink:href="#shape1"
         id="use4" />
    </g>
    <g
       id="shape1">
      <path
         d="M 0.9,56 Q 0.2,55.35 0.3,54.3 0.85,48.25 6.4,46.05 9.8,44.8 13.65,44.7 20.6,44.5 27.55,44.85 L 28.1,43.1 q 0.1,-0.75 0.5,-1.4 L 28.35,37.4 Q 28.2,35.65 27.65,34 L 2.1,36.05 Q 1.15,36.15 0.8,35.2 -0.4,31.25 0.2,27 l 0.55,-5.35 0.55,-7.3 q 0.1,-2 1.2,-3.7 2.15,-3.4 6.2,-1.6 1.75,0.7 3.65,1.05 Q 23.6,11.8 34.9,11.35 44.35,11 53.1,8 q 3,-1.3 5.6,-3.3 3.85,-2.8 7.9,-4.7 3.45,1.3 4.35,5.2 l 1.3,4.5 q 0.75,2.25 0.9,4.6 1.6,7.4 0.2,14.75 l -0.45,0.5 q -3.9,1.4 -8,2 l -8.25,1.55 0.55,4.95 q 0.25,1.35 0.15,2.8 l 6.95,-1.65 5.2,-1 q 2.7,-0.25 3.1,2.15 l 0.15,1.35 q 2.55,7.15 -0.4,14 -0.65,1.4 -2.05,2.05 -5.35,2.7 -11.2,3.2 -0.8,0.1 -1.5,-0.4 l -4.7,-3.1 q 0.85,6.65 -0.8,12.9 -0.15,0.8 -0.95,0.95 -7.2,1.9 -13.4,-1.15 -0.65,-0.3 -0.75,-1.1 l -0.75,-5.7 q -0.7,6.65 -3.55,13.1 -0.25,0.7 -1.1,0.65 -11.55,-0.5 -22.35,-4.15 -0.8,-0.25 -0.8,-1.2 0.1,-2.3 1.8,-4.1 1,-3.25 3,-5.85 Q 6.15,60.6 0.9,56 M 66.65,11.2 65.3,7.55 q -4.45,3.35 -9.55,5.3 -4.5,2.1 -9.85,3 l -1.6,0.3 q 0.6,1.2 0.75,2.8 l 0.15,1.95 1,13.65 q 0.1,1.95 -0.65,3.15 -1.05,1.55 -3.6,1.8 l -7.4,0.7 -0.3,0.05 v 0.2 Q 34.3,42.35 34,44.1 l -0.4,1.55 -0.95,2.35 0.15,0.05 q 0.95,0.9 1.25,2.2 0.2,0.8 0.05,1.55 l 0.4,1.2 0.2,1.4 0.35,1.5 q 6,-0.7 6.6,5.45 l 0.3,5.1 q 3.45,0.95 6.55,-0.1 -0.75,-7.7 0.55,-15.1 l 0.3,-0.55 q -0.1,-1.9 0.25,-3.75 0.1,-0.4 0.5,-0.7 L 54,43.8 Q 52.4,40.4 52.15,36.4 52.05,34.2 51.4,32.05 49.15,28.4 53.55,27.7 l 15.25,-3 Q 68.4,18.8 67.15,13.1 l -0.5,-1.9 M 7.2,17.85 6.6,23 6,28.9 l -0.1,1.4 24.9,-2 q 0.7,0 1,0.6 1.7,3.85 2.2,8.1 3.3,-1.45 7.1,-1.6 0.8,0 1.05,-0.5 -0.35,-5.35 -1.2,-10.65 L 40.6,21.8 40.35,19.6 Q 39.75,18.2 39.7,16.85 27.55,18.4 15.45,16.4 L 7.55,15.3 7.2,17.85 m 48.25,34.4 4.25,3.55 q 4.85,-0.85 9.25,-3.55 0.15,-2.65 -0.1,-5.3 L 68.4,43.4 57.2,45.75 Q 55.8,47.2 53.6,48.2 L 52,49.35 v 1.15 q 1.85,0.3 3.45,1.75 M 6.95,54 q 2.65,1.3 5.5,2.25 l 2.85,0.05 0.55,0.05 2.1,0.1 0.9,0.2 q 1.05,2.45 -0.35,4.8 v 0.1 l -2.8,4.9 q -0.7,1.35 -0.9,2.9 7.25,2.05 14.95,2.6 L 30.2,68.6 q 0.2,-1.5 0.8,-2.95 -0.05,-4.05 1.45,-7.5 l -0.1,-0.2 q -0.5,-0.8 -0.5,-1.75 -0.8,-1.65 -1.25,-3.35 l -0.4,-1.5 -0.1,-1.2 H 30 q -11.2,-0.45 -22.3,0 -0.85,0.9 -1.3,2 -0.3,0.6 -0.45,1.35 l 1,0.5"
         fill="#000000"
         fill-rule="evenodd"
         stroke="none"
         id="path4" />
      <path
         d="m 45.2,20.9 -0.15,-1.95 q -0.15,-1.6 -0.75,-2.8 l 1.6,-0.3 q 5.35,-0.9 9.85,-3 5.1,-1.95 9.55,-5.3 l 1.35,3.65 -2.35,2.1 -0.25,-0.3 -0.5,-0.25 -0.65,-0.2 -0.05,0.05 -0.45,0.1 -0.25,0.05 q -0.8,0.35 -1.1,1.15 -0.2,0.6 -0.1,1.25 L 61,15.25 Q 53.3,19 45.2,20.9 M 34,44.1 q 0.3,-1.75 0.25,-3.65 v -0.2 l 0.3,-0.05 7.4,-0.7 q 2.55,-0.25 3.6,-1.8 3.3,1.35 0.1,4.25 -1.4,1.3 -3.25,1.75 L 34,44.1 M 40.6,21.8 29.45,22.7 Q 17.6,22.8 7.2,17.85 l 0.35,-2.55 7.9,1.1 q 12.1,2 24.25,0.45 0.05,1.35 0.65,2.75 l 0.25,2.2 m -10,31.05 Q 29.25,54.4 26.95,54.3 17.05,53.95 7.2,54 H 6.95 l -1,-0.5 q 0.15,-0.75 0.45,-1.35 0.45,-1.1 1.3,-2 11.1,-0.45 22.3,0 h 0.1 l 0.1,1.2 0.4,1.5"
         fill="#a6a6a6"
         fill-rule="evenodd"
         stroke="none"
         id="path5" />
      <path
         d="M 45.2,20.9 Q 53.3,19 61,15.25 l 0.45,0.65 0.7,0.5 0.75,0.1 h 0.5 q 0.8,-0.25 1.2,-0.95 l 0.2,-0.8 q 0.05,-0.7 -0.35,-1.25 l -0.15,-0.2 2.35,-2.1 0.5,1.9 q 1.25,5.7 1.65,11.6 l -15.25,3 q -4.4,0.7 -2.15,4.35 0.65,2.15 0.75,4.35 0.25,4 1.85,7.4 l -3.9,2.45 q -0.4,0.3 -0.5,0.7 -0.35,1.85 -0.25,3.75 l -0.3,0.55 q -1.3,7.4 -0.55,15.1 -3.1,1.05 -6.55,0.1 l -0.3,-5.1 Q 41.05,55.2 35.05,55.9 L 34.7,54.4 34.5,53 34.1,51.8 q 0.15,-0.75 -0.05,-1.55 -0.3,-1.3 -1.25,-2.2 L 32.65,48 33.6,45.65 34,44.1 42.4,43.7 q 1.85,-0.45 3.25,-1.75 3.2,-2.9 -0.1,-4.25 0.75,-1.2 0.65,-3.15 l -1,-13.65 m -4.6,0.9 0.35,2.45 q 0.85,5.3 1.2,10.65 -0.25,0.5 -1.05,0.5 -3.8,0.15 -7.1,1.6 -0.5,-4.25 -2.2,-8.1 -0.3,-0.6 -1,-0.6 L 5.9,30.3 6,28.9 6.6,23 7.2,17.85 Q 17.6,22.8 29.45,22.7 L 40.6,21.8 M 55.45,52.25 Q 53.85,50.8 52,50.5 v -1.15 l 1.6,-1.15 q 2.2,-1 3.6,-2.45 l 11.2,-2.35 0.45,3.55 q 0.25,2.65 0.1,5.3 -4.4,2.7 -9.25,3.55 L 55.45,52.25 M 37.9,28.3 l -0.05,0.05 -0.55,0.1 -0.25,0.05 q -0.55,0.2 -0.9,0.65 l -0.35,0.5 q -0.2,0.75 -0.05,1.5 0.2,0.8 0.9,1.25 l 1.25,0.3 0.8,-0.05 q 1.05,-0.55 1.25,-1.7 0.2,-1.1 -0.5,-1.95 L 39.1,28.8 37.9,28.3 m -7.3,24.55 q 0.45,1.7 1.25,3.35 0,0.95 0.5,1.75 l 0.1,0.2 q -1.5,3.45 -1.45,7.5 -0.6,1.45 -0.8,2.95 l -0.45,3.35 Q 22.05,71.4 14.8,69.35 15,67.8 15.7,66.45 l 2.8,-4.9 v -0.1 q 1.4,-2.35 0.35,-4.8 l -0.9,-0.2 -2.1,-0.1 L 15.3,56.3 12.45,56.25 Q 9.6,55.3 6.95,54 H 7.2 q 9.85,-0.05 19.75,0.3 2.3,0.1 3.65,-1.45 m -5.4,8.55 -0.6,0.2 q -4.25,2 -0.95,5.4 l 2.8,0.05 Q 30.35,63.3 25.2,61.4"
         fill="#939393"
         fill-rule="evenodd"
         stroke="none"
         id="path6" />
      <path
         d="m 61,15.25 -0.05,-0.1 q -0.1,-0.65 0.1,-1.25 0.3,-0.8 1.1,-1.15 l 0.25,-0.05 0.45,-0.1 0.05,-0.05 0.65,0.2 0.5,0.25 0.25,0.3 0.15,0.2 q 0.4,0.55 0.35,1.25 l -0.2,0.8 q -0.4,0.7 -1.2,0.95 H 62.9 L 62.15,16.4 61.45,15.9 61,15.25 m -23.1,13.05 1.2,0.5 0.35,0.2 q 0.7,0.85 0.5,1.95 -0.2,1.15 -1.25,1.7 l -0.8,0.05 -1.25,-0.3 q -0.7,-0.45 -0.9,-1.25 -0.15,-0.75 0.05,-1.5 l 0.35,-0.5 q 0.35,-0.45 0.9,-0.65 l 0.25,-0.05 0.55,-0.1 0.05,-0.05 M 25.2,61.4 q 5.15,1.9 1.25,5.65 L 23.65,67 q -3.3,-3.4 0.95,-5.4 l 0.6,-0.2"
         fill="#7b7b7b"
         fill-rule="evenodd"
         stroke="none"
         id="path7" />
    </g>
    <g
       id="sprite2">
      <use
         ffdec:characterId="1094"
         height="56.200001"
         width="65.849998"
         xlink:href="#shape2"
         id="use7" />
    </g>
    <g
       id="shape2">
      <path
         d="m 14.2,5.2 q 6.95,0.3 10.75,4.7 l 2.8,-1.85 q 0.7,-0.45 1.5,-0.75 0.2,-1.25 0.85,-2.35 0.6,-1.15 1.7,-1.4 1.85,0.55 1.6,2.5 l -0.05,0.4 2.8,0.05 Q 38.35,2.95 41.45,0.15 41.55,0 41.75,0 l 0.55,0.15 0.35,0.2 0.25,0.25 0.25,0.4 v 0.2 l -2.7,6.65 q 3.25,1.8 5.1,5.9 l 0.55,1.55 q 5.8,1.4 8.7,7.5 2.35,4.85 1.45,9.7 l 0.45,0.4 q 2.8,2.65 3.4,6.35 0.95,2.4 1.05,4.65 l 1.7,0.7 2.65,1.35 0.1,0.25 0.1,0.2 0.1,0.25 0.05,0.2 v 0.2 0.2 l -0.1,0.2 -0.1,0.25 -0.1,0.2 q -2.45,1.05 -5.25,0.55 l -0.4,0.85 3.45,2.7 q 1.25,1.15 1.7,2.7 l -0.15,0.65 -0.85,0.8 -0.15,0.05 q -4,-0.8 -7.4,-2.65 -2.6,2.2 -5.9,2.3 L 50.55,55.6 50.5,55.4 50.4,55 v -0.25 l -0.05,-0.2 q 0.35,-2.3 1.5,-4.25 l -0.1,-0.1 q -0.4,-0.35 -0.35,-1 0.2,-2.05 1.95,-2.6 -1.45,-1.1 -0.2,-3.4 0.25,-0.45 0.75,-0.65 l 0.2,-0.05 0.6,-0.05 V 42.4 l 1,0.1 Q 54.95,40.35 53.8,38.65 50.9,43 45.5,44.1 L 44.45,44.05 44.2,43.8 q -0.4,-0.35 -0.5,-0.85 l -0.1,-0.65 0.15,-0.6 q 3.35,-2.5 5.75,-5.85 l 0.65,-0.95 q -1,-0.75 -2.15,-1.3 l -1.35,1.1 q -1.4,0.95 -3.1,1.4 l -0.5,-0.15 -0.3,-0.2 L 42.6,35.5 42.45,35.1 42.3,34.45 q 0.4,-1.4 1.1,-2.6 L 42.55,31.2 q -2.5,1.5 -4.5,3.55 L 37.9,34.8 37.55,34.85 37,34.75 q -1.75,-3.6 2.45,-6.35 l 1.1,-0.75 Q 39.6,24.9 40.05,22 q -4.1,3.05 -9,4.55 -4.15,1.2 -6.2,-2.3 -1.6,-2.7 -2.2,-5.85 L 18.15,21.75 18,23.5 q -0.3,2.1 -2.15,3 -1.55,0.75 -2.3,-0.75 -0.7,-1.5 -0.6,-3.05 L 11.55,21.85 10,23.55 7.55,25.3 7.2,25.35 6.65,25.25 6.35,25 6.05,24.6 5.9,24.4 Q 6.8,21.1 8.75,18.1 L 7.65,15.35 Q 6.3,16.7 5.2,18.4 4.85,19 4.1,18.85 -0.3,18.2 1.7,14.4 3.65,10.75 6.6,8.5 L 6.55,7.7 6.4,7.5 6.25,7.3 6,6.85 Q 4.4,5.7 2.6,6.25 1.75,6.5 1.25,7.3 L 0.9,7.35 0.5,7.3 0.3,7.05 0.25,6.85 0.1,6.45 0,6.2 Q -0.05,4.9 0.85,3.85 2.35,2.2 4.4,2.05 9.1,2.9 11.05,6.05 12.5,5.5 14.2,5.2 m 37.5,23.6 q -0.35,-2.1 -1.35,-4 -1.45,-2.85 -4.2,-4.15 l -0.65,3.45 0.9,-0.35 q 0.55,0.15 1.1,0.4 l 0.3,0.15 q 0.9,1.95 0.1,3.4 l 1.05,0.35 0.3,0.2 0.3,0.9 1.5,0.55 0.65,0.2 v -1.1 m -23.8,-13.75 0.7,2.65 0.25,2.6 0.15,0.2 0.15,0.25 0.2,0.4 0.1,0.15 Q 34.9,19.6 39.5,15.7 39.95,15.3 40.45,15.1 39.8,13.8 38.3,13.05 l -1.2,2.8 q -0.45,1 -1.5,0.75 -3.55,-0.75 -2.3,-4.2 l 0.1,-0.3 -0.5,0.05 q -0.55,1.3 -1.7,2.45 -0.65,0.55 -1.3,0 -0.8,-0.7 -1.15,-1.5 l -1.15,0.55 -0.15,0.2 0.45,1.2 m -12.6,-4 q -1.55,0.4 -2.95,1.05 0,1.15 0.25,2.2 l 0.3,-0.05 V 14.2 l 1.1,0.4 0.3,0.2 0.15,0.2 0.2,-0.25 0.3,-0.25 0.35,-0.1 0.5,-0.05 V 14.3 l 0.6,0.15 0.4,0.2 0.55,1.3 3.05,-2.6 q -2.1,-1.9 -5.1,-2.3"
         fill="#000000"
         fill-rule="evenodd"
         stroke="none"
         id="path8" />
    </g>
    <g
       id="sprite3"
       transform="translate(17.4,15.85)">
      <use
         ffdec:characterId="31"
         height="57.200001"
         transform="matrix(0.5366,0,0,0.5366,-16.6582,-14.546)"
         width="70.75"
         xlink:href="#sprite4"
         id="use8" />
    </g>
    <g
       id="sprite4"
       transform="translate(-8.65,-10.35)">
      <use
         ffdec:characterId="30"
         height="57.200001"
         transform="translate(8.65,10.35)"
         width="70.75"
         xlink:href="#shape3"
         id="use9" />
    </g>
    <g
       id="shape3"
       transform="translate(-8.65,-10.35)">
      <path
         d="m 14.8,41.7 q 0.65,-1.75 2.65,-2.5 1.8,-0.8 3.7,-0.25 1.15,0.45 2.25,1.2 l 0.9,0.4 q 1.65,0.9 2.85,2.5 L 37.8,30.1 q 2.35,-2.8 3.75,-3.95 1.5,-1.15 4.25,-2.4 18.2,-8.85 27.65,-12.6 2.15,-0.8 3.25,-0.8 h 0.8 l 1.9,2.4 -0.2,0.8 q -0.2,1.1 -1.55,3 -5.85,8.25 -18.85,23.8 -1.85,2.35 -3.35,3.5 -1.4,1.15 -4.75,2.75 l -15.15,7.15 q 1.2,1.6 1.75,3.4 l 0.2,1 0.55,2.5 q 0.1,1.95 -1.1,3.55 -1.2,1.65 -3.05,1.9 l -1.3,0.05 q -1.65,0.2 -3.45,-0.65 -1.85,-0.9 -3,-2.6 L 25,60.95 23.8,62.1 q -2.6,2.85 -4.3,3.95 -2.85,1.8 -5.5,1.45 l -1.65,-0.5 -1.2,-0.7 -0.2,-0.2 q -1,-0.85 -1.6,-1.9 L 9.25,64 9.15,63.8 8.75,62.4 q -0.2,-0.8 -0.05,-1.7 0.25,-2.65 2.7,-5.05 1.5,-1.3 4.9,-3.15 L 17.7,51.55 16.05,50 q -1.35,-1.5 -1.8,-3.6 -0.4,-1.85 0.25,-3.45 l 0.3,-1.25"
         fill="#000000"
         fill-opacity="0.372549"
         fill-rule="evenodd"
         stroke="none"
         id="path9" />
    </g>
  </defs>
</svg>
