<?xml version="1.0" encoding="UTF-8" standalone="no"?>
<svg
   ffdec:objectType="frame"
   height="66.882263"
   width="74.005127"
   version="1.1"
   id="svg5"
   xmlns:xlink="http://www.w3.org/1999/xlink"
   xmlns="http://www.w3.org/2000/svg"
   xmlns:svg="http://www.w3.org/2000/svg"
   xmlns:ffdec="https://www.free-decompiler.com/flash">
  <g
     transform="translate(38.25,37.41)"
     id="g1">
    <use
       ffdec:characterId="17"
       height="119.15"
       id="rarity"
       transform="translate(-58.5,-60.65)"
       width="119.15"
       xlink:href="#sprite0" />
    <use
       ffdec:characterId="310"
       height="66.849998"
       transform="translate(-38.3,-37.4)"
       width="74.050003"
       xlink:href="#shape0"
       id="use1" />
  </g>
  <defs
     id="defs5">
    <g
       id="shape0"
       transform="translate(38,39.9)">
      <path
         d="m 8.4,-24.5 -0.65,-1.15 q -1,-1.6 -2.45,-2.85 -0.95,1 -1.55,3.55 L 2.8,-22 l -0.45,0.75 -1.35,1.2 -0.7,0.4 -0.2,0.1 -1.85,0.75 -0.1,0.05 -0.35,0.1 q -5.15,1.75 -8.65,3.6 l -3.6,2.15 -2,1.55 -0.55,0.4 q -0.85,0.55 -1.6,0.85 -0.85,0.4 -2.55,0.8 l -2.55,0.75 -1.6,1.2 q -0.7,0.9 -0.45,1.75 0.3,1.3 2.45,1.8 l 1.6,0.4 1.05,0.45 0.3,0.25 0.45,0.5 q 0.55,0.8 0.45,2.1 v 0.15 l -0.4,2.65 q -0.55,3.3 0.7,6.4 l 0.65,1.6 q 0.3,0.9 0.25,1.6 l -0.15,0.75 -0.9,1.1 q -0.9,0.8 -2,0.7 Q -23.75,14.6 -25,10.8 L -25.25,10 h -0.4 l -2.1,0.55 -0.55,0.2 q -3.3,1.25 -4.15,3.3 l -0.15,0.95 0.55,0.9 q 1.05,0.9 2.55,0.9 l 1.9,-0.25 q 1.15,-0.1 1.85,0.3 0.65,0.35 0.9,0.9 l 0.25,0.1 q 0.95,0.6 3.05,1.4 6.35,2.2 13.45,2.45 7.6,0.2 17.2,-2.1 Q 18.55,17.3 24.55,14 30.2,10.9 30.65,6.9 30.75,6.3 30.5,6 L 30.25,5.75 29.55,5.55 28.3,5.6 q -0.2,0.9 -1,2.05 -3.25,4.4 -9.85,6.65 -4.85,1.75 -9.9,2 L 3.6,16.2 0.05,15.75 Q -1.1,15.65 -1,15 v -0.05 q 0.05,-0.35 0.85,-0.6 l 0.6,-0.1 4.6,-0.75 0.85,-0.1 4.3,-0.85 2.7,-0.85 q 3.6,-1.1 6.05,-2.4 1.65,-0.9 2.95,-2 L 23.95,5.1 24.05,5 Q 23.65,4.4 23.6,3.3 l -0.55,-5.55 q -0.35,-3.1 -1,-5.4 -1.4,-4.75 -4.25,-7.45 l -1.85,-1.5 -2.8,-1.55 q -1.7,-0.9 -2.55,-1.95 -0.55,-0.65 -1.05,-1.85 L 8.65,-24 8.4,-24.5 m -7,10.8 q 0.3,-1.1 0.75,-1.45 l 0.95,-0.2 0.8,0.4 v 0.05 q 0.45,0.55 0.25,1.85 L 3.8,-11.6 3.1,-10.25 2.5,-9.65 1.75,-9.2 -0.35,-8.95 -0.6,-9 v 0.05 l 0.05,0.25 q 0.15,2.9 -0.4,4.5 l -0.8,1.6 -0.85,0.9 q -0.75,0.65 -1.7,0.75 l -1.65,-0.2 Q -7.65,-1.7 -8.75,-3.2 L -9.05,-3.55 -9.8,-4.9 q -0.45,-1.05 -0.5,-1.9 v -1.7 l 0.1,-1.05 0.25,-1.2 q 0.3,-0.85 0.95,-0.85 0.7,-0.05 1.1,0.8 l 0.25,0.65 0.15,1.55 0.2,1.7 0.15,0.45 0.6,0.85 q 0.9,1.1 1.7,1.25 l 0.7,-0.1 0.35,-0.4 q 0.45,-0.8 0.45,-2.75 l -0.2,-1.8 -0.15,-0.5 -0.05,-0.3 0.1,-0.85 0.6,-0.8 0.3,-0.1 q 0.55,-0.2 1.1,0.2 l 0.45,-0.05 1.7,-0.25 Q 1,-12.4 1.35,-13.6 L 1.4,-13.7 M 0.25,6.1 1.2,4.3 2.9,0.9 3.6,-0.65 q 0.6,-0.7 1.35,-0.75 l 0.1,-0.1 1.8,-0.3 3.6,0.3 1.2,0.3 2.35,0.45 h 0.15 q 1.05,0.4 1.35,0.95 0.45,0.85 -0.25,1.65 l -0.95,0.5 -2.25,0.4 h -1.6 -0.3 L 8.1,2.85 H 6.75 L 6.4,3.2 5.35,5.1 4.95,5.7 4,6.85 3.2,7.8 1.5,9.3 Q 0.85,9.65 0.2,9.3 -0.45,8.95 -0.55,8.25 L -0.4,7.35 0.2,6.1 H 0.25 M 15.9,-12.15 h 0.15 l 0.45,0.05 q 0.75,0.15 1.5,0.65 1.5,1.25 1.25,3 -0.05,1.05 -0.8,1.9 -0.75,0.9 -1.8,1.1 l -2.1,-0.2 Q 13.55,-6.1 13,-7 l -0.35,-0.9 v -0.05 l -0.1,-1.1 q 0.05,-1.1 0.75,-1.95 1.1,-1.15 2.6,-1.15 m 5.65,33.55 q -5.4,2.1 -11.1,3.45 l -7.3,1.4 q -14.6,2.15 -25.4,-2.1 -3.25,-1.25 -4.7,-3.05 l -1.85,0.25 -4.95,-0.5 -1.95,-1.2 -1.25,-1.4 -0.85,-1.55 -0.15,-2.05 q 0.3,-3.15 2.6,-5.35 2.05,-2.05 6.05,-3.15 L -27.2,5.8 H -26 L -26.05,2 q -5.15,-3.05 -6,-6.4 -0.9,-3.2 1.2,-6.25 1.8,-2.6 5.2,-3.85 l 2.45,-0.8 q 1.55,-0.5 2.4,-0.9 0.8,-0.4 1.85,-1.15 l 1.8,-1.25 q 2.6,-1.8 6.15,-3.2 l 6.6,-2.3 q 1.45,-0.5 1.9,-1.05 0.4,-0.5 0.55,-1.35 0.9,-3.15 1.8,-4.6 1.5,-2.45 3.75,-3.1 1.55,-0.45 3.3,0.05 1.6,0.5 2.95,1.7 1.85,1.7 3.85,5.6 1.15,2.2 1.95,3.05 l 2.7,1.95 q 2.85,1.8 4.4,3.75 2,2.4 3.65,7.1 2.15,6.35 1.65,11.25 l 3.75,0.4 q 2.2,0.7 3.25,2.3 1.4,2.05 0.85,5.15 -0.8,4.75 -5.35,8.45 -3.15,2.55 -9,4.85 m -39.45,-46.15 -1.05,-0.5 q -1.25,-0.45 -4.05,-2.15 -1.3,-0.8 -1.8,-1.4 -0.9,-0.9 -1.35,-2.65 -0.65,-3.1 1.1,-5.65 0.9,-1.35 2.1,-2 1.5,-0.9 3.6,-0.8 l 2.4,0.45 q 1.9,0.85 3,2.65 1.25,1.95 1.55,4.45 l 0.2,4.75 -0.05,1.95 q 0,1.25 -0.25,2 -0.35,1.1 -1.25,1.5 l -1.95,-0.15 -1.4,-1.4 -0.8,-1.05 m -0.85,-5.75 q 1.5,0.7 2.85,1.05 l -0.4,-2.5 q -0.4,-1.6 -1,-2.4 -0.5,-0.65 -1.3,-0.9 l -1.6,-0.05 q -0.6,0.2 -1.05,0.8 l -0.15,0.25 q -0.4,0.8 -0.2,1.55 0.35,0.95 1.9,1.75 l 0.95,0.45 m 3.5,31.9 0.1,-0.6 q 0.2,-1 0.9,-1.75 l 1.7,-1 q 1.05,-0.25 2,0 l 0.55,0.2 q 0.95,0.45 1.6,1.45 0.75,1.3 0.45,2.7 -0.3,1.35 -1.55,2.2 -1.25,0.9 -2.65,0.65 -1,-0.15 -1.8,-0.85 -0.8,-0.65 -1.1,-1.6 l -0.2,-1.4"
         fill="#000000"
         fill-rule="evenodd"
         stroke="none"
         id="path1" />
      <path
         d="m -1.85,-18.75 0.05,0.1 0.7,1.15 q 0.35,1.05 -0.15,2.15 l -0.75,1.2 -0.05,0.15 -0.3,0.8 -0.3,0.8 -0.1,0.45 -0.3,0.1 -0.6,0.8 -0.1,0.85 0.05,0.3 -0.8,1.25 q -0.7,1 -1.5,1.5 -0.65,0.3 -1.3,0.25 l -0.2,-1.7 -0.15,-1.55 -0.25,-0.65 q -0.4,-0.85 -1.1,-0.8 -0.65,0 -0.95,0.85 l -0.25,1.2 q -1,-0.45 -1.3,-1.5 -0.35,-1.05 0.25,-3 l 0.4,-1 q 3.5,-1.85 8.65,-3.6 l 0.35,-0.1 M 9.8,-6.85 9.15,-6.8 7.45,-7 Q 6.5,-7.35 6.15,-8.05 L 6.05,-8.3 Q 5.9,-8.6 5.9,-8.9 5.8,-9.25 5.85,-9.7 v -0.15 l 0.2,-1 0.5,-0.8 0.7,-0.9 H 7.3 l 2.15,-1.6 1.7,-0.75 2.9,-0.2 q 1.45,0.4 1.8,1.9 l 0.05,1.05 q -1.5,0 -2.6,1.15 -0.7,0.85 -0.75,1.95 l 0.1,1.1 v 0.05 l -0.8,0.5 -2.05,0.55 M 10.45,2.75 10.05,3.4 8.7,4.8 7,6 Q 5.85,6.4 4.95,5.7 L 5.35,5.1 6.4,3.2 6.75,2.85 H 8.1 l 2.05,-0.1 h 0.3 m -31.7,-37.25 0.8,-0.25 q 0.85,-0.05 1.55,0.4 0.75,0.5 0.95,1.3 0.25,0.8 -0.1,1.6 l -0.7,0.95 -0.95,-0.45 q -1.55,-0.8 -1.9,-1.75 -0.2,-0.75 0.2,-1.55 l 0.15,-0.25 m 1.35,32.3 -0.45,-0.5 -0.3,-0.25 -1.05,-0.45 -1.6,-0.4 q -2.15,-0.5 -2.45,-1.8 -0.25,-0.85 0.45,-1.75 l 1.6,-1.2 2.55,-0.75 q 1.7,-0.4 2.55,-0.8 0.75,-0.3 1.6,-0.85 l 1.05,0.7 0.8,0.9 q 0.6,1 0.45,2.3 -0.15,1.05 -0.85,2.2 l -0.8,1.15 q -1.2,1.25 -3.55,1.5 m 3.65,20.6 q -0.6,-0.35 -0.85,-1.1 -0.3,-0.7 -0.1,-1.4 0.2,-0.7 0.75,-1.2 0.6,-0.5 1.3,-0.55 l 1.4,0.3 q 0.65,0.4 0.95,1.05 0.3,0.65 0.15,1.4 -0.15,0.75 -0.65,1.25 -0.55,0.6 -1.6,0.7 -0.75,0 -1.35,-0.45 m 11.1,1.5 -1.55,-0.6 q -1.3,-1.05 -0.85,-2.25 0.2,-0.7 1.15,-1.2 L -4.7,15.5 -1,15 q -0.1,0.65 1.05,0.75 l 3.55,0.45 3.95,0.1 -0.25,1.5 -0.45,0.65 -0.2,0.15 -1.6,0.55 -4.95,0.9 q -2.15,0.25 -4.35,0 l -0.9,-0.15"
         fill="#ffffff"
         fill-rule="evenodd"
         stroke="none"
         id="path2" />
      <path
         d="m 7.75,-25.65 0.35,0.8 0.3,0.35 0.25,0.5 0.9,2.05 q 0.5,1.2 1.05,1.85 0.85,1.05 2.55,1.95 l 2.8,1.55 1.85,1.5 v 0.05 q -0.15,1.45 -1,2.65 l -0.3,0.3 -0.45,-0.05 H 15.9 l -0.05,-1.05 q -0.35,-1.5 -1.8,-1.9 l -2.9,0.2 -1.7,0.75 -2.15,1.6 H 7.25 l -0.7,0.9 -0.5,0.8 -0.2,1 v 0.15 q -0.05,0.45 0.05,0.8 0,0.3 0.15,0.6 l 0.1,0.25 q 0.35,0.7 1.3,1.05 l 1.7,0.2 0.65,-0.05 0.35,0.2 1.55,0.35 1.6,1.2 q 0.9,1 1.05,2.2 0.2,1.2 -0.35,2.15 l -2.35,-0.45 -1.2,-0.3 -3.6,-0.3 -1.8,0.3 -0.1,0.1 Q 4.2,-1.35 3.6,-0.65 L 2.9,0.9 1.2,4.3 0.25,6.1 Q -1.7,5.85 -2.85,4.8 -3.65,4 -4.1,2.4 -4.7,0.5 -4.3,-0.95 q 0.95,-0.1 1.7,-0.75 l 0.85,-0.9 0.8,-1.6 q 0.55,-1.6 0.4,-4.5 l 0.2,-0.25 2.1,-0.25 0.75,-0.45 0.6,-0.6 0.7,-1.35 0.35,-1.45 q 0.2,-1.3 -0.25,-1.85 v -0.05 l -0.8,-0.4 -0.95,0.2 Q 1.7,-14.8 1.4,-13.7 l -3.75,0.5 0.3,-0.8 0.05,-0.15 0.75,-1.2 q 0.5,-1.1 0.15,-2.15 l -0.7,-1.15 -0.05,-0.1 0.1,-0.05 1.85,-0.75 0.2,-0.1 0.7,-0.4 1.35,-1.2 0.45,-0.75 0.95,-2.95 q 0.6,-2.55 1.55,-3.55 1.45,1.25 2.45,2.85 M 1.15,0.6 1.2,0.5 l 0.45,-0.55 0.2,-0.5 -0.9,0.9 V 0.6 h 0.2 M -19.9,-2.2 q 2.35,-0.25 3.55,-1.5 l 0.8,-1.15 q 0.7,-1.15 0.85,-2.2 0.15,-1.3 -0.45,-2.3 l -0.8,-0.9 -1.05,-0.7 0.55,-0.4 2,-1.55 3.6,-2.15 -0.4,1 q -0.6,1.95 -0.25,3 0.3,1.05 1.3,1.5 l -0.1,1.05 v 1.7 q 0.05,0.85 0.5,1.9 l 0.75,1.35 -0.95,1.8 -0.55,-0.2 q -0.95,-0.25 -2,0 l -1.7,1 q -0.7,0.75 -0.9,1.75 l -0.1,0.6 h -0.35 q -2.35,0.1 -3.6,-1.1 L -19.45,0.05 V -0.1 q 0.1,-1.3 -0.45,-2.1 m 1.5,15.25 3.15,0.65 7.95,1.05 7.15,-0.45 0.6,-0.05 -0.6,0.1 Q -0.95,14.6 -1,14.95 V 15 l -3.7,0.5 -1.7,0.35 q -0.95,0.5 -1.15,1.2 -0.45,1.2 0.85,2.25 l 1.55,0.6 -11.1,-0.9 q -6.55,-1.2 -10,-4 -1.4,-1.2 -1.7,-2.15 -0.55,-1.3 0.2,-2.3 l 2.1,-0.55 h 0.4 l 0.25,0.8 q 1.25,3.8 3.7,4.05 1.1,0.1 2,-0.7 l 0.9,-1.1 m 24.3,0.35 7.55,-2 q 4.75,-1.6 8.45,-4.1 -1.3,1.1 -2.95,2 -2.45,1.3 -6.05,2.4 l -2.7,0.85 -4.3,0.85 m -22.15,5 q 0.6,0.45 1.35,0.45 1.05,-0.1 1.6,-0.7 0.5,-0.5 0.65,-1.25 0.15,-0.75 -0.15,-1.4 -0.3,-0.65 -0.95,-1.05 l -1.4,-0.3 q -0.7,0.05 -1.3,0.55 -0.55,0.5 -0.75,1.2 -0.2,0.7 0.1,1.4 0.25,0.75 0.85,1.1 M 30.25,5.75 29.1,7.5 q -1.8,2.1 -5.55,4.3 -7.8,4.65 -16.7,6.65 L 7.3,17.8 7.55,16.3 q 5.05,-0.25 9.9,-2 6.6,-2.25 9.85,-6.65 0.8,-1.15 1,-2.05 l 1.25,-0.05 0.7,0.2"
         fill="#8b8b8b"
         fill-rule="evenodd"
         stroke="none"
         id="path3" />
      <path
         d="m -2.35,-13.2 3.75,-0.5 -0.05,0.1 Q 1,-12.4 0.5,-12.05 l -1.7,0.25 -0.45,0.05 q -0.55,-0.4 -1.1,-0.2 l 0.1,-0.45 0.3,-0.8 M -4.3,-0.95 Q -4.7,0.5 -4.1,2.4 -3.65,4 -2.85,4.8 -1.7,5.85 0.25,6.1 H 0.2 l -0.6,1.25 -0.15,0.9 q 0.1,0.7 0.75,1.05 0.65,0.35 1.3,0 L 3.2,7.8 4,6.85 4.95,5.7 Q 5.85,6.4 7,6 l 1.7,-1.2 1.35,-1.4 0.4,-0.65 h 1.6 l 2.25,-0.4 0.95,-0.5 Q 15.95,1.05 15.5,0.2 15.2,-0.35 14.15,-0.75 H 14 Q 14.55,-1.7 14.35,-2.9 14.2,-4.1 13.3,-5.1 L 11.7,-6.3 10.15,-6.65 9.8,-6.85 11.85,-7.4 12.65,-7.9 13,-7 q 0.55,0.9 1.55,1.35 l 2.1,0.2 q 1.05,-0.2 1.8,-1.1 0.75,-0.85 0.8,-1.9 0.25,-1.75 -1.25,-3 -0.75,-0.5 -1.5,-0.65 l 0.3,-0.3 q 0.85,-1.2 1,-2.65 v -0.05 q 2.85,2.7 4.25,7.45 0.65,2.3 1,5.4 L 23.6,3.3 q 0.05,1.1 0.45,1.7 l -0.1,0.1 -2.05,2.2 q -3.7,2.5 -8.45,4.1 l -7.55,2 -0.85,0.1 -4.6,0.75 -0.6,0.05 -7.15,0.45 -7.95,-1.05 -3.15,-0.65 0.15,-0.75 q 0.05,-0.7 -0.25,-1.6 L -19.15,9.1 Q -20.4,6 -19.85,2.7 l 0.4,-2.65 0.25,0.25 q 1.25,1.2 3.6,1.1 h 0.35 l 0.2,1.4 q 0.3,0.95 1.1,1.6 0.8,0.7 1.8,0.85 1.4,0.25 2.65,-0.65 1.25,-0.85 1.55,-2.2 0.3,-1.4 -0.45,-2.7 -0.65,-1 -1.6,-1.45 l 0.95,-1.8 0.3,0.35 q 1.1,1.5 2.8,2.05 l 1.65,0.2 m 0.6,-8.95 0.15,0.5 0.2,1.8 q 0,1.95 -0.45,2.75 l -0.35,0.4 -0.7,0.1 Q -5.65,-4.5 -6.55,-5.6 L -7.15,-6.45 -7.3,-6.9 q 0.65,0.05 1.3,-0.25 0.8,-0.5 1.5,-1.5 l 0.8,-1.25 m -24.05,20.45 q -0.75,1 -0.2,2.3 0.3,0.95 1.7,2.15 3.45,2.8 10,4 l 11.1,0.9 0.9,0.15 q 2.2,0.25 4.35,0 l 4.95,-0.9 1.6,-0.55 0.2,-0.15 q 8.9,-2 16.7,-6.65 Q 27.3,9.6 29.1,7.5 L 30.25,5.75 30.5,6 q 0.25,0.3 0.15,0.9 -0.45,4 -6.1,7.1 -6,3.3 -15.45,5.6 -9.6,2.3 -17.2,2.1 -7.1,-0.25 -13.45,-2.45 -2.1,-0.8 -3.05,-1.4 l -0.25,-0.1 q -0.25,-0.55 -0.9,-0.9 -0.7,-0.4 -1.85,-0.3 l -1.9,0.25 q -1.5,0 -2.55,-0.9 l -0.55,-0.9 0.15,-0.95 q 0.85,-2.05 4.15,-3.3 l 0.55,-0.2"
         fill="#595959"
         fill-rule="evenodd"
         stroke="none"
         id="path4" />
    </g>
    <g
       id="sprite1"
       transform="translate(17.4,15.85)">
      <use
         ffdec:characterId="31"
         height="57.200001"
         transform="matrix(0.5366,0,0,0.5366,-16.6582,-14.546)"
         width="70.75"
         xlink:href="#sprite2"
         id="use4" />
    </g>
    <g
       id="sprite2"
       transform="translate(-8.65,-10.35)">
      <use
         ffdec:characterId="30"
         height="57.200001"
         transform="translate(8.65,10.35)"
         width="70.75"
         xlink:href="#shape1"
         id="use5" />
    </g>
    <g
       id="shape1"
       transform="translate(-8.65,-10.35)">
      <path
         d="m 14.8,41.7 q 0.65,-1.75 2.65,-2.5 1.8,-0.8 3.7,-0.25 1.15,0.45 2.25,1.2 l 0.9,0.4 q 1.65,0.9 2.85,2.5 L 37.8,30.1 q 2.35,-2.8 3.75,-3.95 1.5,-1.15 4.25,-2.4 18.2,-8.85 27.65,-12.6 2.15,-0.8 3.25,-0.8 h 0.8 l 1.9,2.4 -0.2,0.8 q -0.2,1.1 -1.55,3 -5.85,8.25 -18.85,23.8 -1.85,2.35 -3.35,3.5 -1.4,1.15 -4.75,2.75 l -15.15,7.15 q 1.2,1.6 1.75,3.4 l 0.2,1 0.55,2.5 q 0.1,1.95 -1.1,3.55 -1.2,1.65 -3.05,1.9 l -1.3,0.05 q -1.65,0.2 -3.45,-0.65 -1.85,-0.9 -3,-2.6 L 25,60.95 23.8,62.1 q -2.6,2.85 -4.3,3.95 -2.85,1.8 -5.5,1.45 l -1.65,-0.5 -1.2,-0.7 -0.2,-0.2 q -1,-0.85 -1.6,-1.9 L 9.25,64 9.15,63.8 8.75,62.4 q -0.2,-0.8 -0.05,-1.7 0.25,-2.65 2.7,-5.05 1.5,-1.3 4.9,-3.15 L 17.7,51.55 16.05,50 q -1.35,-1.5 -1.8,-3.6 -0.4,-1.85 0.25,-3.45 l 0.3,-1.25"
         fill="#000000"
         fill-opacity="0.372549"
         fill-rule="evenodd"
         stroke="none"
         id="path5" />
    </g>
  </defs>
</svg>
