<?xml version="1.0" encoding="UTF-8" standalone="no"?>
<svg
   ffdec:objectType="frame"
   height="87.334816"
   width="77.977203"
   version="1.1"
   id="svg7"
   xmlns:xlink="http://www.w3.org/1999/xlink"
   xmlns="http://www.w3.org/2000/svg"
   xmlns:svg="http://www.w3.org/2000/svg"
   xmlns:ffdec="https://www.free-decompiler.com/flash">
  <g
     transform="translate(38.618148,44.15)"
     id="g1">
    <use
       ffdec:characterId="17"
       height="119.15"
       id="rarity"
       transform="translate(-58.5,-60.65)"
       width="119.15"
       xlink:href="#sprite0" />
    <use
       ffdec:characterId="418"
       height="87.349998"
       transform="translate(-38.6,-44.15)"
       width="77.949997"
       xlink:href="#shape0"
       id="use1" />
  </g>
  <defs
     id="defs7">
    <g
       id="shape0"
       transform="translate(38.2,43.35)">
      <path
         d="m 17.8,-21.75 2.35,0.15 4.25,-5.45 q 1.7,-2.05 4.25,-0.95 l 1.6,0.8 q 2.15,0.5 3.95,-0.55 1.3,-0.7 1.4,-2.15 l -0.05,-0.2 -0.3,-0.45 -0.7,-0.65 q -3.1,1.1 -5.35,-0.65 -0.5,-0.4 -0.45,-0.9 l 0.05,-0.85 0.25,-1.05 0.3,-1.1 -0.1,-0.25 v -0.2 -0.4 l -0.05,-0.25 -0.1,-0.2 q -1.2,-1.15 -2.85,-1.25 -1.55,-0.1 -2.7,0.8 l -0.05,0.25 -0.05,0.2 -0.05,0.2 v 0.2 q 5.05,4.2 0.15,7.65 -2.5,1.75 -4.05,4.35 -0.75,1.3 -1.65,1.75 l -0.05,1.15 m -21.3,-15.5 q 10.45,-0.15 18,6.55 l 1.5,1.7 1.95,-2.1 1.85,-1.65 q -2.7,-3.35 -0.35,-6.95 2.05,-3.25 5.8,-3.65 7.15,0.05 8,6.35 l 0.1,1.3 q 6.65,0.25 6.4,6.8 -0.1,2.55 -2.1,4.2 l -0.1,0.1 q -2.6,3.4 -8.6,2.4 l -1.25,-0.8 -1.95,2.95 q 3.05,1.45 5.6,4.25 5.25,5.75 2.15,13.05 -1.85,4.5 -6.1,6.2 0.5,1.65 -0.25,3.95 l -1.3,5 -0.15,0.45 q -1.85,12.45 -5,24.6 -0.6,2.2 -2.9,3 -18.7,6.15 -37.65,1.6 -6.25,-1.5 -9.8,-6.55 -0.65,-0.9 -0.7,-2.1 -0.15,-5.2 -0.85,-10.3 L -31.25,22 Q -32.5,15.6 -32.15,9.15 V 9.1 q -6.4,-4.1 -6.05,-12.45 0.1,-2.05 1.15,-3.85 5.05,-8.4 14.75,-11.1 0.4,-5.05 3.35,-9.2 5.75,-8.1 15.45,-9.75 m 4.5,9.8 1.05,0.35 0.3,0.2 q 0.6,0.75 0.45,1.7 -0.2,0.95 -1.1,1.45 L 1,-23.7 -0.05,-23.95 q -0.6,-0.4 -0.75,-1.1 v -1.3 l 0.3,-0.4 0.8,-0.6 0.2,-0.05 0.5,-0.05 M 29.2,-7.7 V -8.25 -9.3 l -0.95,-1.9 q -1.45,-2.25 -4,-3.25 l -3.5,-1.2 h -4 q -1.2,0.65 -2.3,0.55 l -1,-0.3 -1.25,-0.9 q -0.85,-0.9 -1,-1.95 -0.15,-0.9 0.15,-1.9 l 0.05,-0.15 q 0.6,-1.9 0.4,-3.9 -3.1,-6.15 -10.6,-6.95 -6.25,-0.7 -10.65,2.5 -2.25,1.6 -4.05,4.2 l -0.45,0.7 q -2.7,4.25 -3.25,9.55 -0.05,0.7 -0.45,1.1 -0.4,0.3 -1,0.35 l -0.8,0.15 q -7,1.1 -11.6,6.8 l -0.15,0.4 -0.25,0.7 -0.4,0.8 -0.45,1.1 -0.25,0.85 0.55,1.9 0.25,0.7 q 0.7,1.85 2.45,3.1 2.05,1.45 4.4,2.15 4.75,-0.9 8.9,0.95 l 0.4,0.2 q 1.15,0.6 1.7,1.5 0.95,1.6 0.2,4.1 -0.7,2.25 -0.55,4.65 l 0.55,3.5 0.2,1 0.6,0.9 0.7,1.25 0.4,0.45 0.5,0.85 q 1.05,0.6 2.3,0.5 1.1,-0.5 1.65,-1.55 l 0.65,-1.05 q 1.45,-6.1 1.35,-12.45 0,-0.6 0.65,-0.9 L -4.45,9.7 V 9.65 L -4.35,9.45 -4.2,9.2 4.45,8.85 q 8.6,1.5 15.05,-3.5 l 0.65,-0.8 0.05,-0.2 0.05,-0.2 0.05,-0.2 0.05,-0.25 0.15,-0.2 0.15,-0.25 0.1,-0.2 q 0,-1.1 0.15,-2.1 0.5,-3.2 4.3,-3.35 0.8,0 1.55,-0.5 1.25,-0.8 2,-2.1 L 28.8,-5.45 29,-6.1 29.15,-6.95 29.2,-7.7 m -33.85,2.75 1.45,-1.55 0.85,-0.45 q 0.55,0.1 0.7,0.6 l 0.1,0.4 -1.2,2.65 -0.2,0.4 -0.35,0.6 0.1,0.25 v 0.4 l 0.05,0.65 2,2.15 0.5,0.4 L 0.6,2 5,2.05 q 4.65,-0.65 6.2,-4.6 l 0.25,-0.7 q 0.25,-1.45 0.8,-2.05 0.45,-0.45 1.05,-0.35 l 0.35,0.05 2.9,-0.3 h 0.15 q 1.3,0.1 2.05,-0.95 l 0.8,-1.1 V -8.4 l 0.05,-0.2 v -0.2 l -0.6,-1.1 -0.45,-0.85 -0.05,-0.4 0.05,-0.45 0.1,-0.45 0.45,-0.4 0.35,-0.2 0.8,-0.2 v -0.05 l 1.05,0.4 0.3,0.2 q 1.4,1.85 1.2,4.05 L 22.45,-6.15 22.4,-6.1 20.55,-4 19.9,-3.1 Q 17.65,-1.95 15.9,-2 14.4,5.85 5.9,7.6 0.35,8.7 -3.8,5.4 -7.2,2.7 -6.15,-1.1 l 0.1,-1.05 0.1,-0.85 1.3,-1.95 m 5.95,34.1 0.45,-2.7 0.4,-0.85 V 25.4 L 2.3,24.95 2.45,24.3 2.65,23.65 3.5,22.8 3.55,22.75 Q 5,21.1 6.95,20.5 11,20.05 12.6,22.7 q 0.6,1 0.85,2.45 l 0.2,2.15 v 0.6 l -0.1,0.2 -0.1,0.2 -0.15,0.2 -0.15,0.25 -0.15,0.2 q 0.65,4.6 -2.05,7.1 l 2.4,-0.75 1.6,-0.5 1,-0.4 q 0.1,-2.1 0.35,-4.1 0.15,-1.45 0.7,-2.8 0.35,-3.35 1.1,-6.7 0.4,-1.75 1.15,-3.35 l 0.4,-3.4 0.25,-2 q -3.1,1.7 -7.3,1.9 -6.55,0.25 -12.85,-1.15 1.1,9.25 -4.4,16.45 -0.75,1.05 -2.05,1.4 -6.5,1.75 -9.65,-2.8 l -1.5,-3.05 q -1.4,-3.95 -1.4,-8.1 -0.05,-2.45 0.4,-4.95 l -7.6,-0.45 -0.8,-0.1 0.9,4.25 q 0.95,5.05 1.45,10.3 l 0.6,7.3 q 11.15,6.55 24.75,5 l 4.3,-0.6 -0.9,-0.7 Q 1.55,34.55 1.45,31.6 1.15,31 1.15,30.3 L 1.3,29.15 M 9.4,24.75 9.25,24.5 8.35,24.2 h -0.4 l -0.5,-0.05 -1.2,0.3 -0.2,0.05 -0.55,0.25 -0.2,0.05 v 0.1 0.65 L 5.25,25.65 5.2,26.7 v 0.1 0.15 q -0.25,0.4 -0.25,0.85 l -0.2,1.1 -0.05,0.2 0.2,0.9 0.25,1.25 v 0.2 l 0.65,1.1 1.05,1.05 1.1,0.3 0.45,-0.4 0.55,-0.6 q 0.45,-2 0.5,-4.1 L 9.5,28.15 q 0.15,-0.9 0.75,-1.7 V 26.4 L 10,25.6 9.4,24.75 m -33,-31.9 q 4.75,1.3 2.2,5.35 -1,1.55 -2.75,1 -4.05,-1.35 -1.9,-4.9 0.85,-1.45 2.45,-1.45"
         fill="#000000"
         fill-rule="evenodd"
         stroke="none"
         id="path1" />
      <path
         d="m 12.25,-5.3 0.1,-1 0.95,0.65 q -0.6,-0.1 -1.05,0.35 M 9.4,24.75 Q 8.8,24.2 7.95,24.25 h -0.3 q -1,0 -1.75,0.85 -0.4,0.55 -0.65,1.2 L 5.2,26.7 5.25,25.65 5.3,25.55 V 24.9 l 0.15,-0.05 0.05,-0.1 0.55,-0.25 0.2,-0.05 1.2,-0.3 0.5,0.05 h 0.4 l 0.9,0.3 0.15,0.25"
         fill="#6b5f5f"
         fill-rule="evenodd"
         stroke="none"
         id="path2" />
      <path
         d="M 3.55,22.75 3.5,22.8 2.65,23.65 2.45,24.3 2.3,24.95 2.15,25.4 v 0.2 l -0.4,0.85 -0.45,2.7 q -2.05,3.05 -5.65,5.2 -2.65,1.55 -5.85,1.05 -3.15,-0.45 -4.8,-2.9 -0.9,-1.35 -1.2,-2.95 l -0.15,-1.7 q 3.15,4.55 9.65,2.8 1.3,-0.35 2.05,-1.4 5.5,-7.2 4.4,-16.45 6.3,1.4 12.85,1.15 4.2,-0.2 7.3,-1.9 l -0.25,2 -1.5,1.1 q -6.7,4.25 -14.5,3.65 0.15,2.05 -0.1,3.95 m -29.9,-7.3 -0.9,-4.25 0.8,0.1 7.6,0.45 q -0.45,2.5 -0.4,4.95 -3.7,0.05 -7.1,-1.25 m 38.95,7.25 0.15,0.05 q 5.05,5.35 2.2,11.95 v 0.1 l -1.6,0.5 -2.4,0.75 q 2.7,-2.5 2.05,-7.1 l 0.15,-0.2 0.15,-0.25 0.15,-0.2 0.1,-0.2 0.1,-0.2 v -0.6 l -0.2,-2.15 Q 13.2,23.7 12.6,22.7"
         fill="#777777"
         fill-rule="evenodd"
         stroke="none"
         id="path3" />
      <path
         d="m 17.8,-21.75 0.05,-1.15 q 0.9,-0.45 1.65,-1.75 1.55,-2.6 4.05,-4.35 4.9,-3.45 -0.15,-7.65 v -0.2 l 0.05,-0.2 0.05,-0.2 0.05,-0.25 q 1.15,-0.9 2.7,-0.8 1.65,0.1 2.85,1.25 l 0.1,0.2 0.05,0.25 v 0.4 0.2 l 0.1,0.25 -0.3,1.1 -0.25,1.05 -0.05,0.85 q -0.05,0.5 0.45,0.9 2.25,1.75 5.35,0.65 l 0.7,0.65 0.3,0.45 0.05,0.2 q -0.1,1.45 -1.4,2.15 -1.8,1.05 -3.95,0.55 l -1.6,-0.8 q -2.55,-1.1 -4.25,0.95 l -4.25,5.45 -2.35,-0.15 M 3.55,22.75 q 0.25,-1.9 0.1,-3.95 7.8,0.6 14.5,-3.65 l 1.5,-1.1 -0.4,3.4 q -0.75,1.6 -1.15,3.35 -0.75,3.35 -1.1,6.7 -0.55,1.35 -0.7,2.8 -0.25,2 -0.35,4.1 l -1,0.4 V 34.7 Q 17.8,28.1 12.75,22.75 L 12.6,22.7 Q 11,20.05 6.95,20.5 5,21.1 3.55,22.75 m -19.9,5.1 0.15,1.7 q 0.3,1.6 1.2,2.95 1.65,2.45 4.8,2.9 3.2,0.5 5.85,-1.05 3.6,-2.15 5.65,-5.2 L 1.15,30.3 q 0,0.7 0.3,1.3 0.1,2.95 2.4,5.15 l 0.9,0.7 -4.3,0.6 q -13.6,1.55 -24.75,-5 l -0.6,-7.3 q -0.5,-5.25 -1.45,-10.3 3.4,1.3 7.1,1.25 0,4.15 1.4,8.1 l 1.5,3.05"
         fill="#8e8e8e"
         fill-rule="evenodd"
         stroke="none"
         id="path4" />
      <path
         d="m -31.75,0.65 -0.25,-0.7 -0.55,-1.9 0.25,-0.85 0.45,-1.1 0.4,-0.8 0.25,-0.7 0.15,-0.4 q 4.6,-5.7 11.6,-6.8 l 0.8,-0.15 q 0.6,-0.05 1,-0.35 0.4,-0.4 0.45,-1.1 0.55,-5.3 3.25,-9.55 l 0.45,-0.7 q 1.8,-2.6 4.05,-4.2 4.4,-3.2 10.65,-2.5 7.5,0.8 10.6,6.95 0.2,2 -0.4,3.9 l -0.05,0.15 q -0.3,1 -0.15,1.9 0.15,1.05 1,1.95 l 1.25,0.9 1,0.3 q 1.1,0.1 2.3,-0.55 h 4 l 3.5,1.2 q 2.55,1 4,3.25 l 0.95,1.9 v 1.05 0.55 q -2.85,2.15 -6.75,1.55 l 0.35,-2.1 q 0.2,-2.2 -1.2,-4.05 l -0.3,-0.2 -1.05,-0.4 v 0.05 l -0.8,0.2 -0.35,0.2 -0.45,0.4 -0.1,0.45 -0.05,0.45 0.05,0.4 0.45,0.85 0.6,1.1 v 0.2 l -0.05,0.2 v 0.45 l -0.8,1.1 Q 18,-5.8 16.7,-5.9 h -0.15 l -2.9,0.3 -0.35,-0.05 -0.95,-0.65 -0.1,1 q -0.55,0.6 -0.8,2.05 l -0.25,0.7 q -1.75,2.6 -6.15,3.3 -5.35,0.8 -8.25,-2.8 l -0.1,-0.25 0.35,-0.6 0.2,-0.4 1.2,-2.65 -0.1,-0.4 q -0.15,-0.5 -0.7,-0.6 l -0.85,0.45 -1.45,1.55 -0.05,-0.9 0.3,-1.25 -2.25,0.3 -1.45,0.1 q 0.6,2.15 -1,3.8 -5.6,5.8 -14,6.4 -5.4,0.35 -8.65,-2.85 M 1,-27.45 l -0.5,0.05 -0.2,0.05 -0.8,0.6 -0.3,0.4 v 1.3 q 0.15,0.7 0.75,1.1 L 1,-23.7 1.7,-23.75 q 0.9,-0.5 1.1,-1.45 0.15,-0.95 -0.45,-1.7 L 2.05,-27.1 1,-27.45 m -14.7,48.25 -0.55,-3.5 q -0.15,-2.4 0.55,-4.65 0.75,-2.5 -0.2,-4.1 h 0.05 l 0.55,-0.1 q 5.85,-0.75 5.9,4.5 0,2.9 -1,5.65 -1.1,3 -4.55,2.4 L -13.7,20.8 M 5.2,26.7 5.25,26.3 Q 5.5,25.65 5.9,25.1 6.65,24.25 7.65,24.25 h 0.3 Q 8.8,24.2 9.4,24.75 l 0.6,0.85 0.25,0.8 v 0.05 q -0.6,0.8 -0.75,1.7 -0.6,0.55 -1.75,0.8 -0.85,0.2 -1.6,-0.3 L 6.1,28.6 Q 5.7,28.3 5.45,27.8 L 5.2,26.95 V 26.8 26.7 M -23.6,-7.15 q -1.6,0 -2.45,1.45 -2.15,3.55 1.9,4.9 1.75,0.55 2.75,-1 2.55,-4.05 -2.2,-5.35 m 19.4,-12.4 -0.2,0.1 -0.3,0.05 q -0.55,0.35 0.7,-0.15 h -0.2"
         fill="#906363"
         fill-rule="evenodd"
         stroke="none"
         id="path5" />
      <path
         d="m -31.75,0.65 q 3.25,3.2 8.65,2.85 8.4,-0.6 14,-6.4 1.6,-1.65 1,-3.8 l 1.45,-0.1 2.25,-0.3 -0.3,1.25 0.05,0.9 -1.3,1.95 -0.1,0.85 -0.1,1.05 q -1.05,3.8 2.35,6.5 4.15,3.3 9.7,2.2 8.5,-1.75 10,-9.6 1.75,0.05 4,-1.1 l 0.65,-0.9 1.85,-2.1 0.05,-0.05 q 3.9,0.6 6.75,-1.55 L 29.15,-6.95 29,-6.1 28.8,-5.45 28.75,-5 q -0.75,1.3 -2,2.1 -0.75,0.5 -1.55,0.5 -3.8,0.15 -4.3,3.35 -0.15,1 -0.15,2.1 l -0.1,0.2 -0.15,0.25 -0.15,0.2 -0.05,0.25 -0.05,0.2 -0.05,0.2 -0.05,0.2 -0.65,0.8 q -6.45,5 -15.05,3.5 L -4.2,9.2 -4.35,9.45 -4.45,9.65 V 9.7 L -4.7,9.8 q -0.65,0.3 -0.65,0.9 0.1,6.35 -1.35,12.45 l -0.65,1.05 q -0.55,1.05 -1.65,1.55 -1.25,0.1 -2.3,-0.5 l -0.5,-0.85 -0.4,-0.45 -0.7,-1.25 -0.6,-0.9 -0.2,-1 0.75,0.2 q 3.45,0.6 4.55,-2.4 1,-2.75 1,-5.65 -0.05,-5.25 -5.9,-4.5 l -0.55,0.1 h -0.05 q -0.55,-0.9 -1.7,-1.5 L -16,6.85 Q -20.15,5 -24.9,5.9 -27.25,5.2 -29.3,3.75 -31.05,2.5 -31.75,0.65 m 28.55,-2.7 q 2.9,3.6 8.25,2.8 4.4,-0.7 6.15,-3.3 Q 9.65,1.4 5,2.05 L 0.6,2 -0.65,1.55 -1.15,1.15 -3.15,-1 -3.2,-1.65 v -0.4 m 8.4,29 0.25,0.85 q 0.25,0.5 0.65,0.8 l 0.05,0.05 q 0.75,0.5 1.6,0.3 Q 8.9,28.7 9.5,28.15 L 9.45,28.8 Q 9.4,30.9 8.95,32.9 L 8.4,33.5 7.95,33.9 6.85,33.6 5.8,32.55 5.15,31.45 v -0.2 L 4.9,30 4.7,29.1 4.75,28.9 4.95,27.8 q 0,-0.45 0.25,-0.85"
         fill="#6d4e4e"
         fill-rule="evenodd"
         stroke="none"
         id="path6" />
    </g>
    <g
       id="sprite1"
       transform="translate(17.4,15.85)">
      <use
         ffdec:characterId="31"
         height="57.200001"
         transform="matrix(0.5366,0,0,0.5366,-16.6582,-14.546)"
         width="70.75"
         xlink:href="#sprite2"
         id="use6" />
    </g>
    <g
       id="sprite2"
       transform="translate(-8.65,-10.35)">
      <use
         ffdec:characterId="30"
         height="57.200001"
         transform="translate(8.65,10.35)"
         width="70.75"
         xlink:href="#shape1"
         id="use7" />
    </g>
    <g
       id="shape1"
       transform="translate(-8.65,-10.35)">
      <path
         d="m 14.8,41.7 q 0.65,-1.75 2.65,-2.5 1.8,-0.8 3.7,-0.25 1.15,0.45 2.25,1.2 l 0.9,0.4 q 1.65,0.9 2.85,2.5 L 37.8,30.1 q 2.35,-2.8 3.75,-3.95 1.5,-1.15 4.25,-2.4 18.2,-8.85 27.65,-12.6 2.15,-0.8 3.25,-0.8 h 0.8 l 1.9,2.4 -0.2,0.8 q -0.2,1.1 -1.55,3 -5.85,8.25 -18.85,23.8 -1.85,2.35 -3.35,3.5 -1.4,1.15 -4.75,2.75 l -15.15,7.15 q 1.2,1.6 1.75,3.4 l 0.2,1 0.55,2.5 q 0.1,1.95 -1.1,3.55 -1.2,1.65 -3.05,1.9 l -1.3,0.05 q -1.65,0.2 -3.45,-0.65 -1.85,-0.9 -3,-2.6 L 25,60.95 23.8,62.1 q -2.6,2.85 -4.3,3.95 -2.85,1.8 -5.5,1.45 l -1.65,-0.5 -1.2,-0.7 -0.2,-0.2 q -1,-0.85 -1.6,-1.9 L 9.25,64 9.15,63.8 8.75,62.4 q -0.2,-0.8 -0.05,-1.7 0.25,-2.65 2.7,-5.05 1.5,-1.3 4.9,-3.15 L 17.7,51.55 16.05,50 q -1.35,-1.5 -1.8,-3.6 -0.4,-1.85 0.25,-3.45 l 0.3,-1.25"
         fill="#000000"
         fill-opacity="0.372549"
         fill-rule="evenodd"
         stroke="none"
         id="path7" />
    </g>
  </defs>
</svg>
