<?xml version="1.0" encoding="UTF-8" standalone="no"?>
<svg
   ffdec:objectType="frame"
   height="65.755264"
   width="66.588097"
   version="1.1"
   id="svg4"
   xmlns:xlink="http://www.w3.org/1999/xlink"
   xmlns="http://www.w3.org/2000/svg"
   xmlns:svg="http://www.w3.org/2000/svg"
   xmlns:ffdec="https://www.free-decompiler.com/flash">
  <g
     transform="translate(33.05,31.95)"
     id="g1">
    <use
       ffdec:characterId="17"
       height="119.15"
       id="rarity"
       transform="translate(-58.5,-60.65)"
       width="119.15"
       xlink:href="#sprite0" />
    <use
       ffdec:characterId="131"
       height="65.800003"
       transform="translate(-33.05,-32)"
       width="66.599998"
       xlink:href="#shape0"
       id="use1" />
  </g>
  <defs
     id="defs4">
    <g
       id="shape0"
       transform="translate(32.75,34.5)">
      <path
         d="m -29.55,14 q -1.85,-0.6 -2.55,-1.5 -0.65,-0.9 -0.65,-3.25 l 0.1,-6.3 q 0,-2.15 0.75,-3 0.85,-1 3.5,-1 l 18,-0.1 -3.1,-4.85 q -5.3,-8.3 -7.6,-12.95 -2.1,-4.15 -2.4,-6.95 -0.2,-1.65 0.35,-2.7 0.55,-1 1.85,-1.7 l 2.5,-0.95 q 2.15,-0.75 3.95,-1.85 l 2,-1.05 2.05,-0.3 q 1.8,0.35 3,3.35 l 3,8.55 q 1.7,5.4 3.4,8.4 L 1.4,-27.9 q 0.65,-2.95 1.75,-3.9 1.35,-1.2 3.5,-0.95 l 3.6,0.85 q 3.3,0.95 7.05,1.4 l 3.3,0.6 q 1.95,0.75 2.3,2.35 0.2,0.9 -0.25,2 l -0.95,1.95 q -1.05,1.95 -2,5.35 L 18,-12.8 q -1,2.75 -3.35,6.75 l -2.75,4.75 7.2,-0.05 8.3,-0.35 2.8,-0.1 q 1.5,0.2 2.2,1.15 0.6,0.75 0.8,2.7 l 0.6,7.2 q 0.2,2.85 -0.65,3.95 -0.75,1.05 -3.1,1.65 -4.5,1.1 -10.65,1.3 L 8.55,16.3 H 7.75 L 7.55,18 q -0.05,1.4 0.5,4.75 0.6,4.3 -1.15,6 -0.9,0.8 -3.7,1.55 l -4.55,1 q -2.85,0.1 -4.2,-1.7 -0.55,-0.75 -1,-2.9 l -1.6,-8.2 -0.2,-1.8 -2.4,0.1 q -11.1,-0.15 -18.8,-2.8 m 32,3.5 0.15,-1.1 -5.1,0.15 0.5,2.2 1.1,6.85 3.8,-1 Q 2.4,21.15 2.45,17.5 M -11.5,-12.75 q 4.8,7.8 6.4,11.55 h 2.6 L -2.85,-1.5 Q -3.7,-2.4 -4.4,-4.6 l -8.05,-22.9 -5.05,2.35 q 1.35,4.85 6,12.4 m 13.9,8.6 q -0.4,2 -1.2,2.9 H 4.75 L 4.85,-1.5 8.9,-8.25 q 2.5,-4.1 3.6,-7.05 l 1.55,-4.7 q 0.9,-2.85 1.85,-4.5 l -9,-1.95 -4.5,22.3 M -14.05,10.8 -8.7,11.2 -3.85,11 q 3.5,-0.2 8.45,-0.1 h 23.6 q 0,-3.25 -0.8,-6.15 -24.2,-0.15 -54.55,0.2 0.15,0.45 0,1.9 -0.1,1.2 0.4,1.7 0.45,0.5 1.35,0.6 l 11.35,1.65"
         fill="#000000"
         fill-rule="evenodd"
         stroke="none"
         id="path1" />
      <path
         d="m 2.4,-4.15 4.5,-22.3 9,1.95 q -0.95,1.65 -1.85,4.5 l -1.55,4.7 q -1.1,2.95 -3.6,7.05 L 4.85,-1.5 4.75,-1.25 H 1.2 q 0.8,-0.9 1.2,-2.9 m -13.9,-8.6 q -4.65,-7.55 -6,-12.4 l 5.05,-2.35 8.05,22.9 q 0.7,2.2 1.55,3.1 l 0.35,0.3 h -2.6 q -1.6,-3.75 -6.4,-11.55 M 2.45,17.5 Q 2.4,21.15 2.9,24.6 l -3.8,1 -1.1,-6.85 -0.5,-2.2 5.1,-0.15 -0.15,1.1"
         fill="#664d4a"
         fill-rule="evenodd"
         stroke="none"
         id="path2" />
      <path
         d="M -14.05,10.8 -25.4,9.15 q -0.9,-0.1 -1.35,-0.6 -0.5,-0.5 -0.4,-1.7 0.15,-1.45 0,-1.9 Q 3.2,4.6 27.4,4.75 q 0.8,2.9 0.8,6.15 H 4.6 Q -0.35,10.8 -3.85,11 l -4.85,0.2 -5.35,-0.4"
         fill="#695957"
         fill-rule="evenodd"
         stroke="none"
         id="path3" />
    </g>
    <g
       id="sprite1"
       transform="translate(17.4,15.85)">
      <use
         ffdec:characterId="31"
         height="57.200001"
         transform="matrix(0.5366,0,0,0.5366,-16.6582,-14.546)"
         width="70.75"
         xlink:href="#sprite2"
         id="use3" />
    </g>
    <g
       id="sprite2"
       transform="translate(-8.65,-10.35)">
      <use
         ffdec:characterId="30"
         height="57.200001"
         transform="translate(8.65,10.35)"
         width="70.75"
         xlink:href="#shape1"
         id="use4" />
    </g>
    <g
       id="shape1"
       transform="translate(-8.65,-10.35)">
      <path
         d="m 14.8,41.7 q 0.65,-1.75 2.65,-2.5 1.8,-0.8 3.7,-0.25 1.15,0.45 2.25,1.2 l 0.9,0.4 q 1.65,0.9 2.85,2.5 L 37.8,30.1 q 2.35,-2.8 3.75,-3.95 1.5,-1.15 4.25,-2.4 18.2,-8.85 27.65,-12.6 2.15,-0.8 3.25,-0.8 h 0.8 l 1.9,2.4 -0.2,0.8 q -0.2,1.1 -1.55,3 -5.85,8.25 -18.85,23.8 -1.85,2.35 -3.35,3.5 -1.4,1.15 -4.75,2.75 l -15.15,7.15 q 1.2,1.6 1.75,3.4 l 0.2,1 0.55,2.5 q 0.1,1.95 -1.1,3.55 -1.2,1.65 -3.05,1.9 l -1.3,0.05 q -1.65,0.2 -3.45,-0.65 -1.85,-0.9 -3,-2.6 L 25,60.95 23.8,62.1 q -2.6,2.85 -4.3,3.95 -2.85,1.8 -5.5,1.45 l -1.65,-0.5 -1.2,-0.7 -0.2,-0.2 q -1,-0.85 -1.6,-1.9 L 9.25,64 9.15,63.8 8.75,62.4 q -0.2,-0.8 -0.05,-1.7 0.25,-2.65 2.7,-5.05 1.5,-1.3 4.9,-3.15 L 17.7,51.55 16.05,50 q -1.35,-1.5 -1.8,-3.6 -0.4,-1.85 0.25,-3.45 l 0.3,-1.25"
         fill="#000000"
         fill-opacity="0.372549"
         fill-rule="evenodd"
         stroke="none"
         id="path4" />
    </g>
  </defs>
</svg>
