<?xml version="1.0" encoding="UTF-8" standalone="no"?>
<svg
   ffdec:objectType="frame"
   height="43.299999"
   width="43.887962"
   version="1.1"
   id="svg5"
   xmlns:xlink="http://www.w3.org/1999/xlink"
   xmlns="http://www.w3.org/2000/svg"
   xmlns:svg="http://www.w3.org/2000/svg"
   xmlns:ffdec="https://www.free-decompiler.com/flash">
  <g
     transform="translate(21.554945,23.6)"
     id="g1">
    <use
       ffdec:characterId="17"
       height="119.15"
       id="rarity"
       transform="translate(-58.5,-60.65)"
       width="119.15"
       xlink:href="#sprite0" />
    <use
       ffdec:characterId="468"
       height="43.400002"
       transform="translate(-21.55,-23.6)"
       width="43.900002"
       xlink:href="#shape0"
       id="use1" />
  </g>
  <defs
     id="defs5">
    <g
       id="shape0"
       transform="translate(21.15,22.8)">
      <path
         d="m 9.6,-22.8 q 6.25,3.95 10.55,10.35 3.7,5.5 2.1,12.25 -0.35,1.5 -0.25,3.1 0.2,5.4 -3.75,8.35 l -2.3,1.2 q -6.3,5 -13.6,8 l -1.7,0.05 q -8.55,-2.55 -17.55,-3.1 -4.4,-0.25 -4.25,-4.75 l 0.1,-9.2 q 0,-3.2 3,-5.05 l 3.2,-2.05 3.15,-2.15 q 1.05,-4.85 1.85,-9.8 0.15,-0.85 0.95,-1.25 7.95,-3.6 16.55,-5.1 0.4,-0.45 0.95,-0.65 l 1,-0.2 m 6.85,24.35 q 0.1,-3.9 0.6,-7.7 L 17.1,-6.6 Q 15.7,-9.4 13.65,-11.75 11,-14.8 8.1,-17.25 v 0.3 q -0.55,1.45 -0.6,3 0,0.8 -0.4,1.5 l -0.05,0.85 -0.4,0.65 q 0.1,0.7 -0.15,1.3 L 6.1,-8.8 5.8,-4.3 q 2.35,1.3 4.45,3.05 l 2,1.4 1.9,3.05 1.95,2.2 0.35,-3.85 m -18.7,-16.2 -3.1,1.25 q -0.1,4.8 -1.6,9.15 l -0.15,0.5 2.05,-0.2 8.2,-1.2 Q 3.05,-6.1 3.4,-6.9 l 0.4,-0.85 q -0.25,-1.4 0.5,-2.6 0.35,-0.55 0.35,-1.25 l 0.15,-0.2 0.25,-0.2 0.1,-0.65 v -0.65 l 0.15,-0.2 0.15,-0.25 0.15,-1.05 0.2,-0.65 q 0,-1 0.4,-1.9 l -8.45,2.7 m -9.9,15.95 q -0.9,0.4 -1.7,1.1 l -1.65,1.4 q -0.25,1.25 -0.1,2.6 l 0.4,2.55 q 0.25,1.15 0.2,2.35 8.6,1.05 17.15,3.5 L 2.75,14.85 11,9.15 14.65,6.8 Q 10,1.7 3.9,-1.55 H 3.85 Q -3.55,0.6 -11,0.75 l -1.15,0.55"
         fill="#000000"
         fill-rule="evenodd"
         stroke="none"
         id="path1" />
      <path
         d="m -2.25,-14.65 8.45,-2.7 q -0.4,0.9 -0.4,1.9 l -0.2,0.65 -0.15,1.05 -0.15,0.25 -0.15,0.2 v 0.65 l -0.1,0.65 -0.25,0.2 -0.15,0.2 q 0,0.7 -0.35,1.25 -0.75,1.2 -0.5,2.6 L 3.4,-6.9 q -0.35,0.8 -0.25,1.75 l -8.2,1.2 -2.05,0.2 0.15,-0.5 q 1.5,-4.35 1.6,-9.15 l 3.1,-1.25"
         fill="#939393"
         fill-rule="evenodd"
         stroke="none"
         id="path2" />
      <path
         d="M -12.15,1.3 -11,0.75 Q -3.55,0.6 3.85,-1.55 H 3.9 Q 10,1.7 14.65,6.8 L 11,9.15 2.75,14.85 2.15,14.8 Q -6.4,12.35 -15,11.3 -14.95,10.1 -15.2,8.95 L -15.6,6.4 q -0.15,-1.35 0.1,-2.6 l 1.65,-1.4 q 0.8,-0.7 1.7,-1.1"
         fill="#5d5d5d"
         fill-rule="evenodd"
         stroke="none"
         id="path3" />
      <path
         d="M 16.45,1.55 16.1,5.4 14.15,3.2 l -1.9,-3.05 -2,-1.4 Q 8.15,-3 5.8,-4.3 l 0.3,-4.5 0.4,-0.85 q 0.25,-0.6 0.15,-1.3 l 0.4,-0.65 0.05,-0.85 q 0.4,-0.7 0.4,-1.5 0.05,-1.55 0.6,-3 v -0.3 q 2.9,2.45 5.55,5.5 2.05,2.35 3.45,5.15 l -0.05,0.45 q -0.5,3.8 -0.6,7.7"
         fill="#777777"
         fill-rule="evenodd"
         stroke="none"
         id="path4" />
    </g>
    <g
       id="sprite1"
       transform="translate(17.4,15.85)">
      <use
         ffdec:characterId="31"
         height="57.200001"
         transform="matrix(0.5366,0,0,0.5366,-16.6582,-14.546)"
         width="70.75"
         xlink:href="#sprite2"
         id="use4" />
    </g>
    <g
       id="sprite2"
       transform="translate(-8.65,-10.35)">
      <use
         ffdec:characterId="30"
         height="57.200001"
         transform="translate(8.65,10.35)"
         width="70.75"
         xlink:href="#shape1"
         id="use5" />
    </g>
    <g
       id="shape1"
       transform="translate(-8.65,-10.35)">
      <path
         d="m 14.8,41.7 q 0.65,-1.75 2.65,-2.5 1.8,-0.8 3.7,-0.25 1.15,0.45 2.25,1.2 l 0.9,0.4 q 1.65,0.9 2.85,2.5 L 37.8,30.1 q 2.35,-2.8 3.75,-3.95 1.5,-1.15 4.25,-2.4 18.2,-8.85 27.65,-12.6 2.15,-0.8 3.25,-0.8 h 0.8 l 1.9,2.4 -0.2,0.8 q -0.2,1.1 -1.55,3 -5.85,8.25 -18.85,23.8 -1.85,2.35 -3.35,3.5 -1.4,1.15 -4.75,2.75 l -15.15,7.15 q 1.2,1.6 1.75,3.4 l 0.2,1 0.55,2.5 q 0.1,1.95 -1.1,3.55 -1.2,1.65 -3.05,1.9 l -1.3,0.05 q -1.65,0.2 -3.45,-0.65 -1.85,-0.9 -3,-2.6 L 25,60.95 23.8,62.1 q -2.6,2.85 -4.3,3.95 -2.85,1.8 -5.5,1.45 l -1.65,-0.5 -1.2,-0.7 -0.2,-0.2 q -1,-0.85 -1.6,-1.9 L 9.25,64 9.15,63.8 8.75,62.4 q -0.2,-0.8 -0.05,-1.7 0.25,-2.65 2.7,-5.05 1.5,-1.3 4.9,-3.15 L 17.7,51.55 16.05,50 q -1.35,-1.5 -1.8,-3.6 -0.4,-1.85 0.25,-3.45 l 0.3,-1.25"
         fill="#000000"
         fill-opacity="0.372549"
         fill-rule="evenodd"
         stroke="none"
         id="path5" />
    </g>
  </defs>
</svg>
