<?xml version="1.0" encoding="UTF-8" standalone="no"?>
<svg
   ffdec:objectType="frame"
   height="57.506001"
   width="81.54615"
   version="1.1"
   id="svg5"
   xmlns:xlink="http://www.w3.org/1999/xlink"
   xmlns="http://www.w3.org/2000/svg"
   xmlns:svg="http://www.w3.org/2000/svg"
   xmlns:ffdec="https://www.free-decompiler.com/flash">
  <g
     transform="translate(41.8,26.606)"
     id="g1">
    <use
       ffdec:characterId="17"
       height="119.15"
       id="rarity"
       transform="translate(-58.5,-60.65)"
       width="119.15"
       xlink:href="#sprite0" />
    <use
       ffdec:characterId="403"
       height="57.549999"
       transform="translate(-41.8,-26.6)"
       width="81.550003"
       xlink:href="#shape0"
       id="use1" />
  </g>
  <defs
     id="defs5">
    <g
       id="shape0"
       transform="translate(41.5,29.1)">
      <path
         d="M 19.4,4.05 Q 17.5,7.3 14.85,9.2 l 0.05,0.45 v 1.25 l -0.15,1.25 q -0.2,0.75 -1.35,1.9 L 10.8,16.5 9.4,17.4 7.95,17.7 Q 6.85,17.55 6.4,16.7 5.85,15.9 6.15,14.9 6.35,14.3 7,13.65 l 1.1,-1.1 0.95,-1.05 -2.9,0.3 -8.45,-0.75 0.3,0.3 1.7,1.75 0.5,0.75 q 0.35,0.7 0.1,1.55 -0.3,0.85 -1,1.25 l -0.75,0.2 -0.95,-0.25 -2.2,-1.45 -0.6,-0.5 -0.9,-0.5 Q -7.25,13.35 -7.6,11.7 -7.85,10.65 -7.55,8.95 L -8,8.7 -9.2,7.95 l -0.9,0.75 -2.6,2.55 -1.25,1.3 -0.7,0.7 v 0.85 l 0.05,0.8 2.75,2.05 3.9,2.5 1.5,0.5 3.45,1.8 q 1.7,1.05 2.2,1.75 1,1.35 0.65,2.85 Q -0.6,28 -2.1,28.4 L -4.4,28.25 Q -7.3,27.65 -8.5,27 l -2.15,-1.4 -5,-3.8 -1.9,-1.3 -1.55,-1.6 h -0.1 l -1.65,-0.15 q -1.65,-0.4 -2.7,-1.75 -1,-1.5 -0.7,-3.1 l 0.35,-1.1 0.6,-1.1 q 0.85,-1.3 2.95,-1.95 l 0.1,-0.15 q 1.2,-1.5 2.65,-4.05 l 2.45,-4.25 0.05,-0.05 q -1,-1.95 -1.4,-4 l -0.3,-2.35 q -1.95,-0.35 -4.4,-1.6 l -3.3,-1.6 q -1.9,-0.8 -3.5,-0.9 l 1.6,20.5 q 0.1,1.6 -0.15,2.6 -0.35,1.5 -1.45,2.1 l -2.15,0.05 q -1.1,-0.4 -1.8,-1.35 -0.85,-1.2 -1.25,-4.35 -1.25,-8.95 -4.7,-24.85 l -0.05,-0.35 -1.4,-0.6 q -1.8,-1.05 -2.05,-2.45 l -0.1,-1.1 0.25,-1.25 0.45,-0.95 1.65,-1.9 q 1.15,-0.85 2.85,-0.85 l 1.9,0.3 q 0.55,0.25 1.2,0.8 1.3,1 1.6,2.2 l 2.5,0.95 q 1.3,0.55 4.25,2.1 l 8.4,4.85 q 0.8,-5.4 3.1,-8.75 3.1,-4.5 8.75,-6.45 4.95,-1.7 10.9,-0.9 2.75,0.4 4.95,1.3 3,1.25 5.4,3.7 2.35,2.4 3.75,5.5 1.15,2.55 1.65,5.35 l 2.95,-2.6 6,-4.45 v -0.15 l 0.1,-1.15 q 0,-0.8 0.15,-1.15 l 0.8,-1.2 1.15,-1 q 0.75,-0.45 2.45,-0.45 l 1.2,0.15 1.25,0.55 q 1.35,0.85 1.7,1.8 0.4,0.95 0.15,2.3 -0.45,2.4 -2,3.5 L 37.6,-16.6 35.4,-3.65 Q 34.25,3.9 33.95,9.6 33.85,11.7 33.55,12.7 33,14.45 31.8,15.1 30.9,15.6 29.85,15.4 28.8,15.2 28.2,14.4 27.7,13.7 27.4,12 26.6,7.5 26.5,5.3 l 0.15,-5.25 0.4,-7.2 -1.4,1.05 -1.3,1.2 q -1.2,1.15 -2.35,1.35 -0.7,4.35 -2.6,7.6 m -20.6,-19.75 1.15,-0.8 q 1.9,-0.95 4.75,-0.7 2.5,0.2 4,1.15 1.35,0.9 2.5,2.65 l 0.95,1.8 0.3,1.9 v 1.5 l -0.2,2.15 q -0.35,1.2 -1.75,2.7 -1.35,1.55 -2.7,2.4 -1.6,1.15 -3.4,1.2 l -2.7,-0.4 q -1.6,-0.4 -2.25,-0.8 L -2.4,-2.5 q -1.55,-1.65 -1.95,-2.9 -0.3,-1.05 -0.2,-2.75 l 0.1,-1.95 0.7,0.65 q 1.45,1.15 3.25,0.55 0.8,-0.2 1.4,-0.9 0.85,-0.75 1,-2 0.25,-2.05 -1.45,-3.3 -0.7,-0.55 -1.65,-0.6 m 15.45,-0.75 -0.8,-1.35 -1.65,-2.1 q -2.05,-1.9 -5.85,-2.55 -4.3,-0.8 -8.15,0.45 -4.35,1.5 -6.25,5.1 l -1.2,3.15 -0.85,4.3 -0.05,2.6 q 0.15,3.75 2.05,6.5 1.95,2.85 5.55,4.3 2.85,1.2 6.9,1.45 5.65,0.3 8.2,-2.1 0.75,-0.7 1.7,-2.2 2.5,-4.3 2.35,-9.5 -0.1,-4.45 -1.95,-8.05"
         fill="#000000"
         fill-rule="evenodd"
         stroke="none"
         id="path1" />
      <path
         d="m -1.2,-15.7 h -0.1 l -1.8,0.3 -1.4,1.2 q -0.55,0.8 -0.6,1.75 -0.1,1.35 0.65,2.35 l -0.1,1.95 q -0.1,1.7 0.2,2.75 -1.5,-0.55 -3.3,-1.65 -1.9,-1.1 -2.85,-2.4 l 0.85,-4.3 1.2,-3.15 q 1.9,-3.6 6.25,-5.1 3.85,-1.25 8.15,-0.45 3.8,0.65 5.85,2.55 l 1.65,2.1 0.8,1.35 0.05,0.4 q 0.25,2.15 -0.6,4.25 l -1.25,2.1 -0.3,-1.9 -0.95,-1.8 q -1.15,-1.75 -2.5,-2.65 -1.5,-0.95 -4,-1.15 -2.85,-0.25 -4.75,0.7 l -1.15,0.8"
         fill="#4b4b4b"
         fill-rule="evenodd"
         stroke="none"
         id="path2" />
      <path
         d="m 12.45,-9.7 1.25,-2.1 q 0.85,-2.1 0.6,-4.25 l -0.05,-0.4 q 1.85,3.6 1.95,8.05 0.15,5.2 -2.35,9.5 Q 12.9,2.6 12.15,3.3 9.6,5.7 3.95,5.4 -0.1,5.15 -2.95,3.95 -6.55,2.5 -8.5,-0.35 q -1.9,-2.75 -2.05,-6.5 l 0.05,-2.6 q 0.95,1.3 2.85,2.4 1.8,1.1 3.3,1.65 0.4,1.25 1.95,2.9 l 1.85,1.55 q 0.65,0.4 2.25,0.8 l 2.7,0.4 q 1.8,-0.05 3.4,-1.2 1.35,-0.85 2.7,-2.4 1.4,-1.5 1.75,-2.7 l 0.2,-2.15 v -1.5"
         fill="#343434"
         fill-rule="evenodd"
         stroke="none"
         id="path3" />
      <path
         d="m -4.45,-10.1 q -0.75,-1 -0.65,-2.35 0.05,-0.95 0.6,-1.75 l 1.4,-1.2 1.8,-0.3 h 0.1 q 0.95,0.05 1.65,0.6 1.7,1.25 1.45,3.3 -0.15,1.25 -1,2 -0.6,0.7 -1.4,0.9 -1.8,0.6 -3.25,-0.55 l -0.7,-0.65"
         fill="#ffffff"
         fill-rule="evenodd"
         stroke="none"
         id="path4" />
    </g>
    <g
       id="sprite1"
       transform="translate(17.4,15.85)">
      <use
         ffdec:characterId="31"
         height="57.200001"
         transform="matrix(0.5366,0,0,0.5366,-16.6582,-14.546)"
         width="70.75"
         xlink:href="#sprite2"
         id="use4" />
    </g>
    <g
       id="sprite2"
       transform="translate(-8.65,-10.35)">
      <use
         ffdec:characterId="30"
         height="57.200001"
         transform="translate(8.65,10.35)"
         width="70.75"
         xlink:href="#shape1"
         id="use5" />
    </g>
    <g
       id="shape1"
       transform="translate(-8.65,-10.35)">
      <path
         d="m 14.8,41.7 q 0.65,-1.75 2.65,-2.5 1.8,-0.8 3.7,-0.25 1.15,0.45 2.25,1.2 l 0.9,0.4 q 1.65,0.9 2.85,2.5 L 37.8,30.1 q 2.35,-2.8 3.75,-3.95 1.5,-1.15 4.25,-2.4 18.2,-8.85 27.65,-12.6 2.15,-0.8 3.25,-0.8 h 0.8 l 1.9,2.4 -0.2,0.8 q -0.2,1.1 -1.55,3 -5.85,8.25 -18.85,23.8 -1.85,2.35 -3.35,3.5 -1.4,1.15 -4.75,2.75 l -15.15,7.15 q 1.2,1.6 1.75,3.4 l 0.2,1 0.55,2.5 q 0.1,1.95 -1.1,3.55 -1.2,1.65 -3.05,1.9 l -1.3,0.05 q -1.65,0.2 -3.45,-0.65 -1.85,-0.9 -3,-2.6 L 25,60.95 23.8,62.1 q -2.6,2.85 -4.3,3.95 -2.85,1.8 -5.5,1.45 l -1.65,-0.5 -1.2,-0.7 -0.2,-0.2 q -1,-0.85 -1.6,-1.9 L 9.25,64 9.15,63.8 8.75,62.4 q -0.2,-0.8 -0.05,-1.7 0.25,-2.65 2.7,-5.05 1.5,-1.3 4.9,-3.15 L 17.7,51.55 16.05,50 q -1.35,-1.5 -1.8,-3.6 -0.4,-1.85 0.25,-3.45 l 0.3,-1.25"
         fill="#000000"
         fill-opacity="0.372549"
         fill-rule="evenodd"
         stroke="none"
         id="path5" />
    </g>
  </defs>
</svg>
