<?xml version="1.0" encoding="UTF-8" standalone="no"?>
<svg
   ffdec:objectType="frame"
   height="84.39286"
   width="75.270767"
   version="1.1"
   id="svg5"
   xmlns:xlink="http://www.w3.org/1999/xlink"
   xmlns="http://www.w3.org/2000/svg"
   xmlns:svg="http://www.w3.org/2000/svg"
   xmlns:ffdec="https://www.free-decompiler.com/flash">
  <g
     transform="translate(35.622727,41.483333)"
     id="g1">
    <use
       ffdec:characterId="17"
       height="119.15"
       id="rarity"
       transform="translate(-58.5,-60.65)"
       width="119.15"
       xlink:href="#sprite0" />
    <use
       ffdec:characterId="874"
       height="84.400002"
       transform="translate(-35.6,-41.5)"
       width="75.25"
       xlink:href="#shape0"
       id="use1" />
  </g>
  <defs
     id="defs5">
    <g
       id="shape0"
       transform="translate(36.15,42.25)">
      <path
         d="m 14.15,-22 5.8,0.25 q 3.25,0.7 4.85,2.9 1,1.3 1.6,3.7 0.95,4.3 0.4,8.7 -0.25,1.9 -1,3.05 l 0.45,0.5 q 2.25,2.9 3.5,7.4 0.85,2.9 1.6,8.2 0.8,5.95 0.7,9.55 -0.1,5.35 -2.05,9.15 -1.65,3.35 -4.75,5.85 -3,2.4 -6.75,3.65 -6.95,2.3 -15.15,0.4 -5.95,-1.25 -11.3,-4.5 -2.45,-1.45 -3.4,-2.85 l -0.3,-0.5 -1.7,0.9 q -2.65,0.85 -6.15,0.55 -6.1,-0.5 -10.45,-3.65 -2.35,-1.7 -3.9,-4 -1.65,-2.5 -2.1,-5.15 -0.35,-2.05 -0.15,-4.75 L -35,9.2 q 0.55,-3.05 1.1,-4.65 0.85,-2.45 2.3,-3.95 l 1.75,-1.7 q 1,-1 1.25,-1.95 l 0.05,-0.15 q -1.25,-0.5 -2.25,-1.25 -1.8,-1.35 -2.45,-3.3 l -0.45,-2.95 0.2,-4.2 q 0.3,-2 0.9,-2.95 0.8,-1.45 3.3,-2.8 4.45,-2.25 9.4,-3.15 l -0.4,-0.35 q -1.75,-1.4 -2.45,-2.9 -1,-2.15 -0.35,-4.65 0.65,-2.45 2.45,-4.15 3.15,-2.9 8.9,-3.5 4.75,-0.45 9.75,0.8 l 2.7,0.8 2.7,0.45 q 2.65,0.1 6.3,-1.45 l 6.15,-2.65 q 3.2,-1 6.7,-0.8 3.4,0.3 6.55,1.7 1.55,0.7 3.8,2.2 2.9,1.95 4.3,4.05 2.2,3.1 1.85,6.95 -0.15,2.15 -1.3,3.4 -0.9,1.05 -3.15,1.95 -2.6,1 -4.1,1.25 -3.2,0.5 -8.6,-0.95 -6.3,-1.65 -8.7,-1.7 -2.35,0 -3.5,0.85 l -1,1.1 5.45,-0.6 M -3.3,-23.2 q 1.4,0.35 2.25,0.95 0.95,0.9 1.3,2.7 l 4.1,-1.1 0.25,-0.85 q 0.75,-1.95 2.05,-3.35 1.4,-1.55 3.2,-2.15 l 4.3,-0.4 6.55,1.15 3.5,1 3.55,0.65 q 2.55,0.25 4.85,-0.7 1.95,-0.65 2.45,-1.85 0.5,-1 0.2,-2.4 -0.7,-2.95 -4.3,-5.5 -5.2,-3.65 -10.3,-3.25 -2.75,0.2 -8.4,2.75 -5.35,2.45 -8.45,2.45 l -4.15,-0.6 -4.1,-1.05 q -4.35,-0.9 -8.75,0 -3.25,0.75 -4.75,2.3 -1.45,1.55 -1,3.25 0.3,0.85 1.3,1.65 l 1.8,1.2 q 1.4,0.85 2.15,1.95 5.25,-0.15 10.4,1.2 m 18.95,11.7 q -0.1,-3.95 -0.5,-5.8 l -0.2,-1.2 -0.6,0.1 -3.05,0.7 -4.4,0.65 -3.35,1 -5.75,2.25 -1.65,1.15 -0.55,1.45 -0.1,0.6 q -0.4,2.5 -0.2,5.15 1.05,0.9 3.5,1.1 l 15.85,-0.9 1.25,-0.1 0.05,-0.85 -0.15,-1.45 Q 15.65,-8.5 15.65,-9.45 V -11.5 M 21.2,-6 q 0.6,-0.1 0.7,-0.25 0.25,-0.15 0.3,-0.7 0.55,-3.6 -0.25,-7.1 -0.45,-1.7 -1.15,-2.3 l -0.85,-0.55 q -0.65,-0.25 -1,-0.45 -0.4,-0.2 -0.7,-0.35 l 0.4,2.7 v 2.85 2.8 l 0.1,2.05 -0.2,1.6 L 21.2,-6 M 17.5,-0.7 11.3,0 1,0.55 -2.65,0.35 -3,0.95 -4.15,2.3 -5.7,4.45 -6.3,5.6 -6.65,6.75 q -0.25,1.7 0,2.7 0.4,1.35 1.9,2.55 3.85,-1.25 9.4,-0.6 l 0.3,0.05 0.2,-0.7 Q 5.6,9.7 6.7,8.7 8.95,6.8 11.85,6.7 l 1.15,0.1 1.35,0.55 0.8,1 q 0.25,0.7 0,1.3 l -0.75,0.9 -1.4,0.55 -1.35,0.15 -1.3,0.3 q -0.85,0.35 -1.1,1 -0.25,0.75 0.4,2.05 0.7,1.6 1.5,1.95 l 1.35,0.3 7.55,-0.55 0.95,-0.4 0.4,-0.45 0.15,-0.25 q 1.35,-2.7 1.5,-5.1 0.15,-3.05 -1.5,-5.05 l -1,-1.05 -1,-1.05 q -1.25,-1.6 -1.1,-3.6 l 0.05,-0.2 -1,0.15 m 4.45,0.1 q 0.15,0.55 0.8,1.1 l 2,2.1 -0.9,-1.85 -1,-2.25 -0.95,0.2 q -0.05,0.5 0.05,0.7 M 18.9,35.9 q 4.55,-2 6.8,-5.7 1.6,-2.75 1.9,-6.75 0.2,-2.4 -0.2,-7.2 l -0.3,-3.4 q -0.4,1.9 -1.3,3.85 -0.75,1.85 -1.65,2.7 -1,0.8 -2.6,1.15 L 20.6,20.8 13.2,21.35 9.8,20.9 8.7,20.35 Q 6.6,19 5.45,15.9 H 5.15 L 0.7,16 l -4.2,0.6 -0.6,0.15 h -0.3 q -2.1,0.8 -3.3,2.4 -1,1.4 -1.2,3.55 -0.25,2.15 0.25,5.1 0.45,2.4 1.25,3.55 0.65,0.95 2.55,2 5.45,3.15 11.25,3.95 6.35,0.95 11.65,-1.1 L 18.9,35.9 M -8.8,-12.5 q 0.45,-1.95 1.05,-2.85 1,-1.3 3.4,-2.45 l 1.45,-0.65 -0.25,-0.4 q -0.4,-0.35 -1.4,-0.55 l -6.35,-0.8 q -8.65,-0.55 -16.45,3.45 -1.15,0.7 -1.5,1.2 l -0.4,1.45 -0.15,1.65 v 1.55 q 0,1.4 0.4,2.1 0.4,0.65 1.4,1.15 1.3,0.7 3.25,0.8 l 3.4,-0.1 5.85,-0.3 5.05,-0.05 h 0.55 l 0.65,-5.1 0.05,-0.1 m -18.35,40.2 0.05,0.05 q 5.95,3.6 11.25,2.55 l 1.4,-0.35 1.4,-0.1 h 0.25 l -0.05,-0.2 q -0.6,-3.1 -0.6,-5.65 l -1.4,1.25 q -1.15,0.95 -2.1,1.15 -1.1,0.3 -1.65,-0.45 -0.3,-0.4 -0.1,-1 0.15,-0.55 0.65,-0.95 l 1.65,-1.4 q 0.45,-0.55 0.75,-1.85 0.6,-2.85 1.25,-11 l 0.3,-1.25 q 0.25,-0.65 1.1,-1.3 l 1.85,-1.1 0.75,-2.35 1.8,-2.8 1.85,-1.95 -0.45,-0.25 -1.65,-1.65 -2,0.1 -7.75,0.15 -3.6,0.25 h -0.6 l -2.15,-0.05 q -0.3,1.7 -1.9,3.7 l -1.65,1.95 -1.4,2.15 q -0.4,0.95 -0.8,4.1 l -0.75,4.4 q -0.4,2.6 -0.4,4.45 -0.1,5.35 3,8.15 l 1.7,1.25 m 17.9,-13.5 q -1.2,-1.35 -1.65,-2.85 l -0.15,0.75 -0.15,1.8 -0.25,2.75 q 0.9,-1.4 2.25,-2.4 L -9.25,14.2"
         fill="#000000"
         fill-rule="evenodd"
         stroke="none"
         id="path1" />
      <path
         d="m -4.5,-10.6 0.1,-0.6 0.55,-1.45 1.65,-1.15 5.75,-2.25 3.35,-1 4.4,-0.65 3.05,-0.7 0.6,-0.1 0.2,1.2 q 0.4,1.85 0.5,5.8 L 13.85,-11 2.3,-9.75 -2.65,-10.1 -4.5,-10.6 M 13,6.8 12.95,6.7 13,4.55 q 0.1,-1.15 0.35,-1.65 0.1,-0.45 0.7,-1.15 l 1.15,-1.3 1.3,-0.75 1,-0.4 1,-0.15 -0.05,0.2 q -0.15,2 1.1,3.6 l 1,1.05 1,1.05 q 1.65,2 1.5,5.05 -0.15,2.4 -1.5,5.1 l -0.15,0.25 -1.65,-0.1 Q 18,14.85 16.45,13.2 15.35,12.1 14.6,10.9 l -0.2,-0.35 0.75,-0.9 q 0.25,-0.6 0,-1.3 l -0.8,-1 L 13,6.8 m 7.6,14 0.95,-0.25 q 1.6,-0.35 2.6,-1.15 0.9,-0.85 1.65,-2.7 0.9,-1.95 1.3,-3.85 l 0.3,3.4 q 0.4,4.8 0.2,7.2 -0.3,4 -1.9,6.75 -2.25,3.7 -6.8,5.7 L 18.85,35.85 Q 18.4,34.75 18.5,32.4 l 0.05,-3.15 0.25,-2.7 q 0.25,-1.8 1.3,-4.4 l 0.5,-1.35 m 1.35,-21.4 q -0.1,-0.2 -0.05,-0.7 l 0.95,-0.2 1,2.25 0.9,1.85 -2,-2.1 Q 22.1,-0.05 21.95,-0.6 M -8.9,22.7 q 0.2,-2.15 1.2,-3.55 1.2,-1.6 3.3,-2.4 h 0.3 L -3.5,16.6 0.7,16 5.15,15.9 h 0.3 Q 6.6,19 8.7,20.35 L 8.25,21.8 q -0.55,0.7 -1.5,1 l -3.3,0.55 -6.85,0.2 q -3.5,-0.1 -5.35,-0.8 L -8.9,22.7 m -20.5,-35.15 0.15,-1.65 0.4,-1.45 q 0.35,-0.5 1.5,-1.2 7.8,-4 16.45,-3.45 l 6.35,0.8 q 1,0.2 1.4,0.55 l 0.25,0.4 -1.45,0.65 q -2.4,1.15 -3.4,2.45 -0.6,0.9 -1.05,2.85 l -15.65,0.9 -3.55,-0.35 -1.4,-0.5 m 7.2,10.05 1,0.7 q 1.7,1.3 2.4,2.75 0.75,1.6 0.75,4.3 0.05,6.95 -2.25,14.3 -1.5,4.5 -3.55,6.35 -1.55,1.3 -3.3,1.7 l -1.7,-1.25 q -3.1,-2.8 -3,-8.15 0,-1.85 0.4,-4.45 l 0.75,-4.4 q 0.4,-3.15 0.8,-4.1 l 1.4,-2.15 1.65,-1.95 q 1.6,-2 1.9,-3.7 l 2.15,0.05 h 0.6"
         fill="#ac5a5a"
         fill-rule="evenodd"
         stroke="none"
         id="path2" />
      <path
         d="m -4.5,-10.6 1.85,0.5 4.95,0.35 11.55,-1.25 1.8,-0.5 v 2.05 q 0,0.95 0.15,1.8 l 0.15,1.45 -0.05,0.85 -1.25,0.1 -15.85,0.9 q -2.45,-0.2 -3.5,-1.1 -0.2,-2.65 0.2,-5.15 m 22,9.9 -1,0.4 -1.3,0.75 -1.15,1.3 Q 13.45,2.45 13.35,2.9 13.1,3.4 13,4.55 L 12.95,6.7 13,6.8 11.85,6.7 q -2.9,0.1 -5.15,2 -1.1,1 -1.55,2.05 l -0.2,0.7 -0.3,-0.05 q -5.55,-0.65 -9.4,0.6 -1.5,-1.2 -1.9,-2.55 -0.25,-1 0,-2.7 L -6.3,5.6 -5.7,4.45 -4.15,2.3 -3,0.95 -2.65,0.35 1,0.55 11.3,0 17.5,-0.7 m -3.1,11.25 0.2,0.35 q 0.75,1.2 1.85,2.3 1.55,1.65 3.3,2.15 l 1.65,0.1 -0.4,0.45 -0.95,0.4 -7.55,0.55 -1.35,-0.3 Q 10.35,16.2 9.65,14.6 9,13.3 9.25,12.55 q 0.25,-0.65 1.1,-1 l 1.3,-0.3 1.35,-0.15 1.4,-0.55 m 6.2,10.25 -0.5,1.35 q -1.05,2.6 -1.3,4.4 l -0.25,2.7 -0.05,3.15 q -0.1,2.35 0.35,3.45 l 0.05,0.05 -0.85,0.3 Q 12.75,38.25 6.4,37.3 0.6,36.5 -4.85,33.35 -6.75,32.3 -7.4,31.35 -8.2,30.2 -8.65,27.8 -9.15,24.85 -8.9,22.7 l 0.15,0.05 q 1.85,0.7 5.35,0.8 l 6.85,-0.2 3.3,-0.55 q 0.95,-0.3 1.5,-1 l 0.45,-1.45 1.1,0.55 3.4,0.45 7.4,-0.55 m -50,-33.25 1.4,0.5 3.55,0.35 15.65,-0.9 -0.05,0.1 -0.65,5.1 h -0.55 l -5.05,0.05 -5.85,0.3 -3.4,0.1 q -1.95,-0.1 -3.25,-0.8 -1,-0.5 -1.4,-1.15 -0.4,-0.7 -0.4,-2.1 v -1.55 m 2.25,40.15 q 1.75,-0.4 3.3,-1.7 2.05,-1.85 3.55,-6.35 2.3,-7.35 2.25,-14.3 0,-2.7 -0.75,-4.3 -0.7,-1.45 -2.4,-2.75 l -1,-0.7 3.6,-0.25 7.75,-0.15 2,-0.1 1.65,1.65 0.45,0.25 -1.85,1.95 -1.8,2.8 -0.75,2.35 -1.85,1.1 q -0.85,0.65 -1.1,1.3 l -0.3,1.25 q -0.65,8.15 -1.25,11 -0.3,1.3 -0.75,1.85 l -1.65,1.4 q -0.5,0.4 -0.65,0.95 -0.2,0.6 0.1,1 0.55,0.75 1.65,0.45 0.95,-0.2 2.1,-1.15 l 1.4,-1.25 q 0,2.55 0.6,5.65 l 0.05,0.2 h -0.25 l -1.4,0.1 -1.4,0.35 q -5.3,1.05 -11.25,-2.55 l -0.05,-0.05 m 17.9,-13.5 0.05,0.05 q -1.35,1 -2.25,2.4 l 0.25,-2.75 0.15,-1.8 0.15,-0.75 q 0.45,1.5 1.65,2.85"
         fill="#8c4949"
         fill-rule="evenodd"
         stroke="none"
         id="path3" />
      <path
         d="m 21.2,-6 -2.65,0.3 0.2,-1.6 -0.1,-2.05 v -2.8 -2.85 l -0.4,-2.7 q 0.3,0.15 0.7,0.35 0.35,0.2 1,0.45 l 0.85,0.55 q 0.7,0.6 1.15,2.3 0.8,3.5 0.25,7.1 -0.05,0.55 -0.3,0.7 -0.1,0.15 -0.7,0.25"
         fill="#c5bfbf"
         fill-rule="evenodd"
         stroke="none"
         id="path4" />
    </g>
    <g
       id="sprite1"
       transform="translate(17.4,15.85)">
      <use
         ffdec:characterId="31"
         height="57.200001"
         transform="matrix(0.5366,0,0,0.5366,-16.6582,-14.546)"
         width="70.75"
         xlink:href="#sprite2"
         id="use4" />
    </g>
    <g
       id="sprite2"
       transform="translate(-8.65,-10.35)">
      <use
         ffdec:characterId="30"
         height="57.200001"
         transform="translate(8.65,10.35)"
         width="70.75"
         xlink:href="#shape1"
         id="use5" />
    </g>
    <g
       id="shape1"
       transform="translate(-8.65,-10.35)">
      <path
         d="m 14.8,41.7 q 0.65,-1.75 2.65,-2.5 1.8,-0.8 3.7,-0.25 1.15,0.45 2.25,1.2 l 0.9,0.4 q 1.65,0.9 2.85,2.5 L 37.8,30.1 q 2.35,-2.8 3.75,-3.95 1.5,-1.15 4.25,-2.4 18.2,-8.85 27.65,-12.6 2.15,-0.8 3.25,-0.8 h 0.8 l 1.9,2.4 -0.2,0.8 q -0.2,1.1 -1.55,3 -5.85,8.25 -18.85,23.8 -1.85,2.35 -3.35,3.5 -1.4,1.15 -4.75,2.75 l -15.15,7.15 q 1.2,1.6 1.75,3.4 l 0.2,1 0.55,2.5 q 0.1,1.95 -1.1,3.55 -1.2,1.65 -3.05,1.9 l -1.3,0.05 q -1.65,0.2 -3.45,-0.65 -1.85,-0.9 -3,-2.6 L 25,60.95 23.8,62.1 q -2.6,2.85 -4.3,3.95 -2.85,1.8 -5.5,1.45 l -1.65,-0.5 -1.2,-0.7 -0.2,-0.2 q -1,-0.85 -1.6,-1.9 L 9.25,64 9.15,63.8 8.75,62.4 q -0.2,-0.8 -0.05,-1.7 0.25,-2.65 2.7,-5.05 1.5,-1.3 4.9,-3.15 L 17.7,51.55 16.05,50 q -1.35,-1.5 -1.8,-3.6 -0.4,-1.85 0.25,-3.45 l 0.3,-1.25"
         fill="#000000"
         fill-opacity="0.372549"
         fill-rule="evenodd"
         stroke="none"
         id="path5" />
    </g>
  </defs>
</svg>
