<?xml version="1.0" encoding="UTF-8" standalone="no"?>
<svg
   ffdec:objectType="frame"
   height="79.566666"
   width="89.192635"
   version="1.1"
   id="svg7"
   sodipodi:docname="ITEM Flower Necklace.svg"
   xmlns:inkscape="http://www.inkscape.org/namespaces/inkscape"
   xmlns:sodipodi="http://sodipodi.sourceforge.net/DTD/sodipodi-0.dtd"
   xmlns:xlink="http://www.w3.org/1999/xlink"
   xmlns="http://www.w3.org/2000/svg"
   xmlns:svg="http://www.w3.org/2000/svg"
   xmlns:ffdec="https://www.free-decompiler.com/flash">
  <sodipodi:namedview
     id="namedview7"
     pagecolor="#ffffff"
     bordercolor="#000000"
     borderopacity="0.25"
     inkscape:showpageshadow="2"
     inkscape:pageopacity="0.0"
     inkscape:pagecheckerboard="0"
     inkscape:deskcolor="#d1d1d1"
     fit-margin-top="5"
     fit-margin-left="5"
     fit-margin-right="5"
     fit-margin-bottom="5" />
  <g
     transform="translate(43.974227,39)"
     id="g1">
    <use
       ffdec:characterId="17"
       height="119.15"
       id="rarity"
       transform="translate(-58.5,-60.65)"
       width="119.15"
       xlink:href="#sprite0" />
    <use
       ffdec:characterId="775"
       height="79.550003"
       transform="translate(-43.95,-39)"
       width="89.150002"
       xlink:href="#shape0"
       id="use1" />
  </g>
  <defs
     id="defs7">
    <g
       id="shape0"
       transform="translate(44.5,39.75)">
      <path
         d="m 30.35,-24.25 3.1,0.4 q 1.5,-1.85 3.5,-3.15 l 1.25,-0.45 q 0.55,0.3 0.35,0.85 l -0.15,0.45 -0.5,0.6 -0.1,0.25 q -1.7,1.05 -2.7,2.65 1.35,1.8 1.7,3.95 2.75,-1.6 4.3,-4.5 l 0.1,-0.2 0.45,-3 0.15,-1.9 -0.4,-1.3 -0.2,-1.5 q -7,-0.4 -11.65,4.3 -1.25,1.25 -1.6,3.05 l 2.4,-0.5 M -10.3,-37.6 q 3.4,-0.4 5.65,1.85 l 0.25,-0.05 13.5,-2.45 q 1.3,-0.25 2.55,-0.85 l 1.8,-0.65 0.95,0.25 0.35,0.15 q 1.25,4.15 0.25,8.65 -0.4,1.75 -1.2,3.4 -2.5,7.25 -9.2,11.35 l -1,0.65 -0.75,0.2 -0.35,0.1 0.3,0.55 q 0.8,1.45 0.4,3.15 -1.35,5.5 -7.25,7.15 l -2.5,0.6 3.95,-0.6 0.15,-0.1 2.25,-1.2 0.35,-0.5 Q 1.4,-7.05 3,-6.3 q 3.85,-4.25 6.2,-9.5 0.5,-1.15 1.85,-1.5 l 1.9,-0.45 2.8,0.4 0.95,0.4 1.25,1.6 q 1.4,-4 5.6,-6.5 v -0.05 q -0.3,-3.05 1.25,-5.75 0.7,-1.25 1.8,-2.15 5.35,-5 13.1,-4.65 l 0.5,-0.45 0.8,-0.65 0.35,-0.1 0.4,-0.05 0.05,-0.05 0.55,0.15 0.35,0.2 q 4.85,9.65 -2.25,17.45 -1.7,1.8 -3.5,1.8 l -0.15,1 q -0.5,3.25 -1.9,6.2 7.55,-1.2 9.45,6.2 0.8,3.3 -1.8,5.6 -3.2,2.8 -7.2,3.1 1.8,7.55 -3.5,12.8 -1,1.05 -2.45,1.55 -7.65,2.8 -12.2,-3.05 -1.9,-2.45 -1.6,-5.6 L 15.9,8 q -5.05,0.7 -7.55,-1.9 0.45,1.35 0.4,3.05 -0.1,7.65 4,13.95 0.6,0.9 -0.25,1.65 -4.95,4.45 -11.9,3.5 L 0.1,29.4 0.05,29.8 0,30.25 q -4,7.4 -12.65,9.5 -1.25,0.3 -1.95,-0.75 -3.45,-5.25 -2.7,-10.9 -4.6,0.75 -9.3,0.2 -1.25,-0.15 -1.5,-1.4 -0.35,-1.95 1.45,-2.8 1.85,-1.95 1.9,-4.5 0.1,-4 2.1,-7.3 l 1.1,-1.25 1,-0.95 q -1.5,-1 -2.55,-3.15 l -0.35,-1.1 q -3.9,5.95 -10.8,5.9 l -1.4,-0.45 q -6,-3.5 -4.65,-10.55 0.7,-3.55 3.05,-6.4 -8.4,-3.05 -7.1,-12.2 0.9,-6.05 6.95,-6.6 h 2.35 q -0.9,-8.1 6.9,-11.3 1.8,-0.7 3.9,-0.7 4.55,0 6.1,4 1,-1.5 2.4,-2.8 2.4,-2.2 5.45,-2.35 m 7,10.3 q -0.85,2.35 -2,4.5 3.05,-1.85 6.4,-3.15 l 1.55,-0.65 q 0.5,0.1 0.65,0.6 l 0.1,0.4 -7.7,5.1 -0.45,0.35 q 3.6,0.65 5.95,3.35 1,-1.85 3.2,-3.3 3.65,-2.45 5.85,-6.35 l 0.3,-1.35 0.75,-1.45 q 0.4,-1.8 0.45,-3.65 0.05,-1.1 0.5,-2.15 -7.3,1.9 -14.95,3.3 0.2,2.3 -0.6,4.45 M 12.8,-8.55 14.65,-9 14.6,-9.6 v -4.2 l -0.85,0.1 -1.8,0.7 q -0.9,2.85 -2.15,5.55 L 9.05,-6.1 Q 10.5,-7.7 12.8,-8.55 M 1.5,1.65 q 3.5,0.3 5.3,2 L 6.2,1.55 Q 5.9,0.15 6.65,-1 7.05,-3.35 8.2,-5.05 L 6.75,-3.8 Q 5.5,-2.7 4.45,-2.25 3.3,-1 1.3,-0.65 L 0.65,0 0.15,0.65 0.2,1.8 1.5,1.65 M 31.55,-21.1 q -2.85,0.45 -5.5,1.5 l -1.6,0.65 q -1.2,1 -1.85,2.4 -1.1,2.3 -1.35,4.9 l -0.05,0.2 q -0.1,0.9 0.1,1.75 l 0.45,3.6 q 0,0.85 -0.55,1.5 -1.95,1.1 -4.2,0.4 l -2.75,-0.5 -0.35,0.2 -0.85,0.45 -0.4,0.2 -0.7,1.5 -0.75,1.95 -0.6,1.7 Q 10.5,1.65 10.7,2 l 0.7,0.85 0.9,0.6 q 3.9,0.2 7.65,-1.2 -0.25,-2.35 0.85,-4.5 1.45,-2.9 4.7,-3.25 l 2.55,0.4 q 0.35,-0.25 0.4,-0.6 l 0.5,-0.9 q 0.65,-0.6 1.6,-0.7 2.2,-2.2 2.95,-5.3 1,-4.1 -0.35,-8 L 32.9,-20.75 31.55,-21.1 M 26,-2.45 l -0.9,0.35 -1,0.4 -0.95,1 q -0.65,0.4 -0.75,1.15 -0.15,0.6 0.4,0.85 l 0.9,0.55 q 3.65,0.8 5.15,-2.45 L 28.9,-0.8 28.35,-1.45 27.85,-1.85 27.7,-2 26.2,-2.35 26,-2.45 m 6.8,2.75 q 0.75,0.3 1.45,0.75 2.65,0.6 4.85,-0.75 0.95,-0.55 1.55,-1.45 V -1.35 -1.8 L 40.7,-2 V -2.2 L 40.5,-2.65 40.2,-3.3 39.95,-3.75 39.7,-4.15 39.55,-4.3 39,-4.55 l -0.95,-0.4 -0.7,-0.15 -5.65,1.55 -1,0.2 q 0.9,1.3 0.65,3.35 L 32.8,0.3 M -9.85,-33.85 q -2.15,0.1 -3.85,1.3 l -0.85,1.1 -1.35,1.45 -0.4,0.8 q 0.5,1.05 0.4,2.3 -0.05,0.6 -0.4,1.1 0,2.4 -0.55,4.75 l -0.2,0.65 q 1.7,0.75 3.1,2.2 1.35,-1.95 3.45,-3.5 1.05,-0.8 1.75,-1.95 1.9,-3.15 2.45,-6.75 l -0.05,-0.65 -0.15,-0.45 v -0.3 l -0.4,-0.9 v -0.05 l -0.15,-0.2 -0.15,-0.25 -0.8,-0.4 -0.2,-0.15 -1.65,-0.1 m -13.4,12.45 h 2.1 v -0.35 q -0.05,-2.1 0.55,-4.05 l -0.6,-2.8 q -0.35,-2.15 -2.05,-3.6 -7.3,-0.6 -7.6,6.3 -0.15,3.7 2.55,6.15 2.1,-1.3 5.05,-1.65 m 1.95,3.8 q -2.4,0.1 -4.35,1.45 l -1.15,0.85 -0.7,1.05 q -0.65,0.75 -0.9,1.7 -0.1,0.5 -0.35,0.9 v 0.2 l 0.05,0.45 v 0.65 l 0.05,0.6 0.15,0.25 0.1,0.2 0.2,0.45 0.35,0.65 0.5,0.25 1.4,0.55 0.2,0.1 q 4.6,1.3 8.25,-1.3 l 0.85,-1.65 q 0.6,-1.55 0.4,-3.25 l -0.05,-0.65 -0.1,-0.2 -0.35,-0.5 -0.6,-0.6 -0.15,-0.2 -1.8,-0.75 q -0.8,-0.25 -1.3,-0.9 l -0.1,-0.15 -0.6,-0.15 m -12.05,5 q 0.75,-2.8 2.3,-4.75 -2.05,-0.8 -4.05,-2.1 -1.9,-1.2 -3.95,-0.3 -1.4,1.35 -1.35,3.25 0,2.05 0.5,4.05 2.5,3.2 6.25,2.9 -0.1,-1.45 0.3,-3.05 m 1.55,7.4 -0.15,-0.15 -2.35,2 q -1.65,2.15 -2.15,4.75 -0.45,2.4 0.15,4.7 l 1.25,1.15 q 0.7,0.6 1.6,0.85 6.35,-1.85 8.3,-8.45 l 0.45,-1.15 q -4.35,-0.45 -7.1,-3.7 m 19.85,-4.55 -0.8,2.25 0.4,0.35 q 7.9,1.8 12.15,-4.25 l 0.15,-0.4 -0.1,-0.9 -0.4,-0.85 L -1,-14.15 -1.75,-14.8 -2,-15 -2.2,-15.15 q -3.95,-1.45 -8.2,-1.1 l -0.95,0.7 -0.15,0.15 -0.3,0.25 -0.15,0.1 q 0.8,2.4 0,5.3 M -20.55,2 q 0,3 1.7,5.15 l 1.35,0.15 q 4.3,-1.2 3.95,-5.6 -0.15,-2.15 -0.65,-4.25 L -15,-3.65 -15.25,-4 q -2.25,2 -5.6,2.45 0.3,1.75 0.3,3.55 m 21.1,5.5 q 0.7,1.85 0.05,3.65 -1.1,6.75 -5.2,10.9 1.95,1.2 4,1.75 l 0.05,-0.2 0.15,-0.2 0.7,-0.35 q 0.45,0 0.7,0.35 L 1.15,23.6 1.1,24.15 Q 4.65,24.65 8.45,23.3 6.85,21.35 5.95,19 5.05,16.6 5.15,14.1 4.75,13 4.7,11.75 4.65,9.6 4.75,7.45 L 4.6,7.2 4.5,7 4.45,6.8 Q 2.25,5.25 -0.4,4.7 l -0.25,0.35 q 0.7,1.1 1.2,2.45 M -8.85,1.45 -6.3,1.6 -6.25,1.15 -7.65,1.1 -9.75,0.7 v 0.85 l 0.9,-0.1 m -3.85,7.05 -1.45,1.15 q -2.25,1.2 -4.05,1.15 l -0.85,1.15 q -0.3,0.75 -0.95,1.3 l -0.05,0.2 -0.3,1.1 -0.45,1.25 -0.15,0.45 0.1,1.9 q 0.25,2.35 -0.4,4.55 -0.2,0.65 -0.7,1.2 8.4,-0.2 14.55,-5.65 4.05,-3.55 4.25,-8.8 L -3.2,9.25 -3.25,9 -3.35,8.6 V 8.15 q -0.3,-0.75 -0.9,-1.3 -1.85,-1.7 -4.4,-1.4 l -2.05,0.7 -0.35,0.05 -1.65,2.3 m 5.95,15.45 q -3,2.15 -7.1,3.35 l 0.15,0.85 0.15,-0.2 2.4,-1.4 0.65,-0.45 0.55,-0.1 0.05,-0.05 0.25,0.05 0.6,0.1 1.5,1.4 0.85,0.95 q 0.7,1.25 1.25,2.6 l 0.35,1.1 q 2,-1.95 3.1,-4.6 -3.15,-1 -4.75,-3.6 m -6.2,8.85 q 0.2,0.55 0.25,1.1 0.55,0.55 0.75,1.25 l 0.25,0.7 q 2.3,-0.6 4.65,-2.15 L -6.9,33.6 -6.95,33.25 -7,33.05 -8.15,30.7 q -0.45,-0.95 -1.35,-1.5 -1.6,1 -3.45,1.6 l -0.5,0.15 h -0.15 l 0.65,1.85 M 21.85,4.35 21.3,5.45 q -0.45,0.7 -0.5,1.5 -0.05,0.95 -0.55,1.7 l -0.1,1.1 v 1.5 l -0.1,2.35 0.1,0.2 0.25,0.45 0.1,0.2 0.2,0.45 0.05,0.2 0.3,0.2 0.5,0.45 0.5,0.4 0.3,0.25 q 3.05,0.55 6,-0.55 l 1.55,-0.4 q 0.95,-0.8 1.2,-1.95 l 0.6,-4.05 0.05,-1.1 -0.1,-0.2 -0.1,-0.45 V 7.5 L 31.5,7.1 31.45,6.85 31.4,6.65 31.25,6.45 31.1,6.2 31.05,6 V 5.8 5.6 L 30.9,5.35 30.8,5.15 30.7,4.95 30.6,4.7 Q 29.85,4.2 29.55,3.55 l -0.6,0.35 q -3.9,2.35 -7.1,0.3 v 0.15"
         fill="#000000"
         fill-rule="evenodd"
         stroke="none"
         id="path1" />
      <path
         d="m 26,-2.45 0.2,0.1 1.5,0.35 0.15,0.15 0.5,0.4 0.55,0.65 -0.05,0.2 Q 27.35,2.65 23.7,1.85 L 22.8,1.3 Q 22.25,1.05 22.4,0.45 22.5,-0.3 23.15,-0.7 l 0.95,-1 1,-0.4 0.9,-0.35 m -47.3,-15.15 0.6,0.15 0.1,0.15 q 0.5,0.65 1.3,0.9 l 1.8,0.75 0.15,0.2 0.6,0.6 0.35,0.5 0.1,0.2 0.05,0.65 q 0.2,1.7 -0.4,3.25 l -0.85,1.65 q -3.65,2.6 -8.25,1.3 l -0.2,-0.1 -1.4,-0.55 -0.5,-0.25 -0.35,-0.65 -0.2,-0.45 -0.1,-0.2 -0.15,-0.25 -0.05,-0.6 V -11 l -0.05,-0.45 v -0.2 q 0.25,-0.4 0.35,-0.9 0.25,-0.95 0.9,-1.7 l 0.7,-1.05 1.15,-0.85 q 1.95,-1.35 4.35,-1.45"
         fill="#e8e3ab"
         fill-rule="evenodd"
         stroke="none"
         id="path2" />
      <path
         d="M 0.55,7.5 Q 0.05,6.15 -0.65,5.05 L -0.4,4.7 Q 2.25,5.25 4.45,6.8 L 4.5,7 4.6,7.2 4.75,7.45 Q 4.65,9.6 4.7,11.75 4.75,13 5.15,14.1 q -0.1,2.5 0.8,4.9 0.9,2.35 2.5,4.3 -3.8,1.35 -7.35,0.85 L 1.15,23.6 1,23.4 Q 0.75,23.05 0.3,23.05 l -0.7,0.35 -0.15,0.2 -0.05,0.2 Q -2.65,23.25 -4.6,22.05 -0.5,17.9 0.6,11.15 1.25,9.35 0.55,7.5 m -13.5,25.3 -0.65,-1.85 h 0.15 l 0.5,-0.15 q 1.85,-0.6 3.45,-1.6 0.9,0.55 1.35,1.5 l 1.15,2.35 0.05,0.2 0.05,0.35 -0.15,0.1 q -2.35,1.55 -4.65,2.15 l -0.25,-0.7 q -0.2,-0.7 -0.75,-1.25 -0.05,-0.55 -0.25,-1.1 m 6.2,-8.85 q 1.6,2.6 4.75,3.6 -1.1,2.65 -3.1,4.6 l -0.35,-1.1 Q -6,29.7 -6.7,28.45 L -7.55,27.5 -9.05,26.1 -9.65,26 -9.9,25.95 -9.95,26 l -0.55,0.1 -0.65,0.45 -2.4,1.4 -0.15,0.2 -0.15,-0.85 q 4.1,-1.2 7.1,-3.35 M -12.7,8.5 l 1.65,-2.3 0.35,-0.05 2.05,-0.7 q 2.55,-0.3 4.4,1.4 0.6,0.55 0.9,1.3 V 8.6 l 0.1,0.4 0.05,0.25 0.05,0.2 q -0.2,5.25 -4.25,8.8 -6.15,5.45 -14.55,5.65 0.5,-0.55 0.7,-1.2 0.65,-2.2 0.4,-4.55 l -0.1,-1.9 0.15,-0.45 0.45,-1.25 0.3,-1.1 0.05,-0.2 q 0.65,-0.55 0.95,-1.3 l 0.85,-1.15 q 1.8,0.05 4.05,-1.15 L -12.7,8.5"
         fill="#836464"
         fill-rule="evenodd"
         stroke="none"
         id="path3" />
      <path
         d="m 30.35,-24.25 -2.4,0.5 q 0.35,-1.8 1.6,-3.05 4.65,-4.7 11.65,-4.3 l 0.2,1.5 0.4,1.3 -0.15,1.9 -0.45,3 -0.1,0.2 q -1.55,2.9 -4.3,4.5 -0.35,-2.15 -1.7,-3.95 1,-1.6 2.7,-2.65 l 0.1,-0.25 0.5,-0.6 0.15,-0.45 q 0.2,-0.55 -0.35,-0.85 L 36.95,-27 q -2,1.3 -3.5,3.15 l -3.1,-0.4 M -3.3,-27.3 q 0.8,-2.15 0.6,-4.45 7.65,-1.4 14.95,-3.3 -0.45,1.05 -0.5,2.15 -0.05,1.85 -0.45,3.65 l -0.75,1.45 -0.3,1.35 q -2.2,3.9 -5.85,6.35 -2.2,1.45 -3.2,3.3 -2.35,-2.7 -5.95,-3.35 L -4.3,-20.5 3.4,-25.6 3.3,-26 q -0.15,-0.5 -0.65,-0.6 l -1.55,0.65 q -3.35,1.3 -6.4,3.15 1.15,-2.15 2,-4.5"
         fill="#657a68"
         fill-rule="evenodd"
         stroke="none"
         id="path4" />
      <path
         d="m 31.55,-21.1 1.35,0.35 0.25,0.15 q 1.35,3.9 0.35,8 -0.75,3.1 -2.95,5.3 -0.95,0.1 -1.6,0.7 l -0.5,0.9 q -0.05,0.35 -0.4,0.6 L 25.5,-5.5 q -3.25,0.35 -4.7,3.25 -1.1,2.15 -0.85,4.5 -3.75,1.4 -7.65,1.2 L 11.4,2.85 10.7,2 Q 10.5,1.65 10.6,1.3 l 0.6,-1.7 0.75,-1.95 0.7,-1.5 0.4,-0.2 0.85,-0.45 0.35,-0.2 2.75,0.5 q 2.25,0.7 4.2,-0.4 0.55,-0.65 0.55,-1.5 L 21.3,-9.7 q -0.2,-0.85 -0.1,-1.75 l 0.05,-0.2 q 0.25,-2.6 1.35,-4.9 0.65,-1.4 1.85,-2.4 l 1.6,-0.65 q 2.65,-1.05 5.5,-1.5 M 32.8,0.3 31.35,0 Q 31.6,-2.05 30.7,-3.35 l 1,-0.2 5.65,-1.55 0.7,0.15 0.95,0.4 0.55,0.25 0.15,0.15 0.25,0.4 0.25,0.45 0.3,0.65 0.2,0.45 V -2 l -0.05,0.2 v 0.45 0.2 Q 40.05,-0.25 39.1,0.3 36.9,1.65 34.25,1.05 33.55,0.6 32.8,0.3 M 21.85,4.35 V 4.2 q 3.2,2.05 7.1,-0.3 l 0.6,-0.35 q 0.3,0.65 1.05,1.15 l 0.1,0.25 0.1,0.2 0.1,0.2 0.15,0.25 V 5.8 6 l 0.05,0.2 0.15,0.25 0.15,0.2 0.05,0.2 0.05,0.25 0.05,0.4 v 0.2 l 0.1,0.45 0.1,0.2 -0.05,1.1 -0.6,4.05 q -0.25,1.15 -1.2,1.95 l -1.55,0.4 q -2.95,1.1 -6,0.55 l -0.3,-0.25 -0.5,-0.4 -0.5,-0.45 -0.3,-0.2 -0.05,-0.2 -0.2,-0.45 -0.1,-0.2 -0.25,-0.45 -0.1,-0.2 0.1,-2.35 v -1.5 l 0.1,-1.1 q 0.5,-0.75 0.55,-1.7 0.05,-0.8 0.5,-1.5 l 0.55,-1.1"
         fill="#72657a"
         fill-rule="evenodd"
         stroke="none"
         id="path5" />
      <path
         d="m -23.25,-21.4 q -2.95,0.35 -5.05,1.65 -2.7,-2.45 -2.55,-6.15 0.3,-6.9 7.6,-6.3 1.7,1.45 2.05,3.6 l 0.6,2.8 q -0.6,1.95 -0.55,4.05 v 0.35 h -2.1 m 13.4,-12.45 1.65,0.1 0.2,0.15 0.8,0.4 0.15,0.25 0.15,0.2 v 0.05 l 0.4,0.9 v 0.3 l 0.15,0.45 0.05,0.65 q -0.55,3.6 -2.45,6.75 -0.7,1.15 -1.75,1.95 -2.1,1.55 -3.45,3.5 -1.4,-1.45 -3.1,-2.2 l 0.2,-0.65 q 0.55,-2.35 0.55,-4.75 0.35,-0.5 0.4,-1.1 0.1,-1.25 -0.4,-2.3 l 0.4,-0.8 1.35,-1.45 0.85,-1.1 q 1.7,-1.2 3.85,-1.3 M -20.55,2 q 0,-1.8 -0.3,-3.55 3.35,-0.45 5.6,-2.45 l 0.25,0.35 0.8,1.1 q 0.5,2.1 0.65,4.25 0.35,4.4 -3.95,5.6 L -18.85,7.15 Q -20.55,5 -20.55,2 m 8.6,-11.75 q 0.8,-2.9 0,-5.3 l 0.15,-0.1 0.3,-0.25 0.15,-0.15 0.95,-0.7 q 4.25,-0.35 8.2,1.1 l 0.2,0.15 0.25,0.2 0.75,0.65 0.45,0.6 0.4,0.85 0.1,0.9 -0.15,0.4 q -4.25,6.05 -12.15,4.25 l -0.4,-0.35 0.8,-2.25 M -31.8,-5.2 q 2.75,3.25 7.1,3.7 l -0.45,1.15 q -1.95,6.6 -8.3,8.45 -0.9,-0.25 -1.6,-0.85 L -36.3,6.1 q -0.6,-2.3 -0.15,-4.7 0.5,-2.6 2.15,-4.75 l 2.35,-2 0.15,0.15 m -1.55,-7.4 q -0.4,1.6 -0.3,3.05 -3.75,0.3 -6.25,-2.9 -0.5,-2 -0.5,-4.05 -0.05,-1.9 1.35,-3.25 2.05,-0.9 3.95,0.3 2,1.3 4.05,2.1 -1.55,1.95 -2.3,4.75"
         fill="#ffffff"
         fill-rule="evenodd"
         stroke="none"
         id="path6" />
    </g>
    <g
       id="sprite1"
       transform="translate(17.4,15.85)">
      <use
         ffdec:characterId="31"
         height="57.200001"
         transform="matrix(0.5366,0,0,0.5366,-16.6582,-14.546)"
         width="70.75"
         xlink:href="#sprite2"
         id="use6" />
    </g>
    <g
       id="sprite2"
       transform="translate(-8.65,-10.35)">
      <use
         ffdec:characterId="30"
         height="57.200001"
         transform="translate(8.65,10.35)"
         width="70.75"
         xlink:href="#shape1"
         id="use7" />
    </g>
    <g
       id="shape1"
       transform="translate(-8.65,-10.35)">
      <path
         d="m 14.8,41.7 q 0.65,-1.75 2.65,-2.5 1.8,-0.8 3.7,-0.25 1.15,0.45 2.25,1.2 l 0.9,0.4 q 1.65,0.9 2.85,2.5 L 37.8,30.1 q 2.35,-2.8 3.75,-3.95 1.5,-1.15 4.25,-2.4 18.2,-8.85 27.65,-12.6 2.15,-0.8 3.25,-0.8 h 0.8 l 1.9,2.4 -0.2,0.8 q -0.2,1.1 -1.55,3 -5.85,8.25 -18.85,23.8 -1.85,2.35 -3.35,3.5 -1.4,1.15 -4.75,2.75 l -15.15,7.15 q 1.2,1.6 1.75,3.4 l 0.2,1 0.55,2.5 q 0.1,1.95 -1.1,3.55 -1.2,1.65 -3.05,1.9 l -1.3,0.05 q -1.65,0.2 -3.45,-0.65 -1.85,-0.9 -3,-2.6 L 25,60.95 23.8,62.1 q -2.6,2.85 -4.3,3.95 -2.85,1.8 -5.5,1.45 l -1.65,-0.5 -1.2,-0.7 -0.2,-0.2 q -1,-0.85 -1.6,-1.9 L 9.25,64 9.15,63.8 8.75,62.4 q -0.2,-0.8 -0.05,-1.7 0.25,-2.65 2.7,-5.05 1.5,-1.3 4.9,-3.15 L 17.7,51.55 16.05,50 q -1.35,-1.5 -1.8,-3.6 -0.4,-1.85 0.25,-3.45 l 0.3,-1.25"
         fill="#000000"
         fill-opacity="0.372549"
         fill-rule="evenodd"
         stroke="none"
         id="path7" />
    </g>
  </defs>
</svg>
