<?xml version="1.0" encoding="UTF-8" standalone="no"?>
<svg
   ffdec:objectType="frame"
   height="65.70385"
   width="70.315941"
   version="1.1"
   id="svg5"
   sodipodi:docname="ITEM Rubber Mask.svg"
   xmlns:inkscape="http://www.inkscape.org/namespaces/inkscape"
   xmlns:sodipodi="http://sodipodi.sourceforge.net/DTD/sodipodi-0.dtd"
   xmlns:xlink="http://www.w3.org/1999/xlink"
   xmlns="http://www.w3.org/2000/svg"
   xmlns:svg="http://www.w3.org/2000/svg"
   xmlns:ffdec="https://www.free-decompiler.com/flash">
  <sodipodi:namedview
     id="namedview5"
     pagecolor="#ffffff"
     bordercolor="#000000"
     borderopacity="0.25"
     inkscape:showpageshadow="2"
     inkscape:pageopacity="0.0"
     inkscape:pagecheckerboard="0"
     inkscape:deskcolor="#d1d1d1"
     fit-margin-top="5"
     fit-margin-left="5"
     fit-margin-right="5"
     fit-margin-bottom="5" />
  <g
     transform="translate(36.487681,34.403846)"
     id="g1">
    <use
       ffdec:characterId="17"
       height="119.15"
       id="rarity"
       transform="translate(-58.5,-60.65)"
       width="119.15"
       xlink:href="#sprite0" />
    <use
       ffdec:characterId="925"
       height="65.699997"
       transform="translate(-36.5,-34.4)"
       width="70.349998"
       xlink:href="#shape0"
       id="use1" />
  </g>
  <defs
     id="defs5">
    <g
       id="shape0"
       transform="translate(83.3,35.75)">
      <path
         d="m -34.85,27.9 -3.9,1 -13.95,1.05 q -6.25,-0.1 -11.45,-3.2 l -4.3,-2.65 Q -77.3,18.6 -80.2,7.95 -81.6,3 -82.45,-2.2 q -1.7,-10.25 0.05,-20.85 0.45,-2.35 2.5,-3.2 6.95,-2.95 14.15,-4.55 3.75,-0.8 7.4,-1.9 8.65,-2.7 17.3,-3.05 0.7,-0.05 1,0.55 1.7,3.2 2.5,7.2 l 0.15,0.7 1.8,-0.15 0.1,-0.85 q 0.3,-1.9 2.1,-2.35 2.35,-0.6 4.55,-1.5 2.45,-1 4.85,-1.6 1.15,-0.2 1.85,0.55 2.5,2.8 4.15,6.15 4.35,8.7 4.95,18.9 0.6,10.2 -3.4,20.05 -0.85,2.2 -2.15,4.1 -6.35,8.7 -16.25,11.9 m -18.5,-55.1 -0.4,0.1 0.1,1.35 -0.1,1.55 0.05,0.35 0.05,0.45 q 0.05,0.5 -0.05,0.9 l -0.05,0.2 0.05,0.15 0.1,0.35 0.1,0.5 0.1,0.8 0.05,0.15 -0.05,0.25 q 1.45,8.1 3.85,16.05 1.45,4.4 3.3,8.65 l 0.15,0.1 q 0.25,0.25 0.35,0.6 l 0.2,0.35 0.5,0.75 0.1,0.15 V 6.7 l 0.55,0.45 1.4,2.05 1.2,1.45 0.15,0.25 q 4.15,3.85 9.45,0.7 2.85,-1.6 4.75,-4.35 4,-5.7 5.05,-12.35 V -5.25 -5.8 l 0.05,-0.55 V -6.5 -6.7 l 0.05,-0.2 v -0.2 -0.1 l 0.1,-0.2 -0.15,-3.5 q 0,-2.9 -0.3,-5.8 -0.15,-1.15 0.05,-2.2 v -0.1 -0.1 l -0.65,-3.8 q -0.1,-1.8 -0.9,-3.35 l -0.2,-0.55 q -1.2,0.5 -2.5,1.05 1.65,4.9 1.05,10.55 -0.65,6.5 -5.75,10.3 l -3.9,0.25 q -3.8,-0.35 -6,-3.3 l -0.45,-0.85 -1.2,-2.2 -0.4,-1.35 q -1.7,-3.15 -2.4,-6.95 l -1.05,-7.9 0.1,-0.45 0.05,-0.35 0.05,-0.25 0.1,-0.2 -0.05,-0.1 -6.65,1.35 m 9.1,-1.8 -1.1,0.15 0.1,0.2 0.15,0.3 1.85,7.95 q 1.2,4.95 3.4,9.2 l 0.15,0.1 0.1,0.05 0.05,0.2 v 0.15 l 0.7,0.8 0.65,0.6 0.4,0.55 1.45,0.45 4,0.1 q 1.85,-1.6 2.55,-3.9 l 1.05,-3.75 -0.05,-0.95 0.05,-0.85 0.1,-0.75 q -0.15,-1.95 -0.6,-3.9 v 3.25 q -0.05,4.5 -3.75,6.65 -1.8,0.95 -3.15,-0.15 -4.45,-3.5 -6.2,-9.35 l -1.9,-7.1 m -2.5,39.8 -2.7,-3.4 L -50,5.95 -52.45,0.8 q -3.3,-8.4 -4.75,-17.6 l -1.1,-9.15 -3.1,0.85 q 2.05,1.8 1.6,5.25 l 0.25,1.65 q 0.4,2.95 -1.7,4.9 l -0.85,0.15 q -1.2,0.15 -2.1,-0.55 l -0.1,-0.35 v -0.7 l 0.15,-0.4 0.5,-0.55 0.45,-0.4 v -1.4 l 0.05,-0.8 -0.25,-1.1 q 0,-0.7 -0.25,-1.25 -0.9,-2.05 0.1,-3.9 l -8.9,2.45 q 0.45,3.4 -0.35,7 l -0.1,1.3 -0.3,1.65 0.8,0.5 0.45,0.75 v 0.4 l -0.05,0.15 -0.1,0.2 -0.3,0.3 -0.3,0.3 q -1.2,0.2 -2.15,-0.6 -1.95,-1.45 -1.1,-4.35 l 0.1,-2.1 0.05,-3.35 -0.2,-1.05 -0.05,-0.1 -0.35,0.1 q 0.05,0.3 -0.05,0.55 l -0.25,1.4 -0.1,0.35 -0.1,0.6 -0.05,0.15 0.05,3 q 0.4,8.75 1.8,17.25 l 0.15,0.8 q 1.2,6.05 4.95,10.15 -0.05,-1.75 0.4,-3.6 l 0.45,-0.3 h 0.7 q 0.9,0.45 1,1.5 0.25,2.95 1.4,5.75 0.45,0.25 0.65,0.75 l 2.9,2.2 1.95,1.25 q -0.25,-0.95 -0.1,-1.95 0.1,-0.6 0.5,-0.85 h 0.05 l 0.3,-0.2 1.5,-0.4 h 0.1 q 0.5,0.05 1.15,0.55 2.4,1.5 4.4,3.5 1,0.9 1.25,1.75 l 6,-0.15 -0.8,-0.55 q -0.9,-0.75 -1.4,-1.8 l -0.8,-0.7 -0.4,-0.5 -1.25,0.2 q -0.65,0.05 -1.05,-0.45 l -0.1,-0.3 -0.15,-0.25 v -0.15 q 0.35,-1.45 1.8,-1.9 l 1.45,-0.05 q 3.55,1.4 6,4.6 0.65,0.45 1,1.15 l 0.1,0.15 q 3.55,-0.65 7.05,-1.9 l 2.35,-0.85 q 7.5,-2.95 10.5,-10.7 2.95,-7.7 2.75,-15.75 l -0.2,-3.05 q -0.45,-3.8 -1.8,-7.3 l -0.3,-0.9 -0.3,-0.95 0.05,0.8 -0.05,0.15 0.05,0.25 v 0.05 0.1 l 0.2,0.6 0.05,0.5 0.05,0.8 v 0.2 l -0.05,0.2 0.25,1.1 0.3,1.65 q 0.15,0.7 -0.05,1.4 l -0.05,0.25 v 0.15 l 0.15,0.3 0.1,0.55 v 0.05 l 0.1,0.75 -0.1,0.2 -0.1,0.2 q 0.45,6.95 -2.7,13.7 -3.9,8.55 -12.15,11.75 l -0.7,0.15 q -3.9,0.2 -7,-1.95 l -1.85,-1.35 q -0.9,-1.5 -2.1,-2.7 l -0.1,-0.1 h -0.05 l -0.05,-0.05 m -27.3,-9.25 q -0.4,-1.9 -0.4,-3.85 -0.7,-1.85 0.55,-3.35 1.9,-2.15 3.7,-0.85 0.1,0.4 -0.25,0.85 l -1.3,1.85 0.05,0.15 v 0.2 0.2 l 0.3,2.2 0.1,0.75 0.8,3.85 0.95,0.8 q 1.5,1.7 -0.6,3.25 l -0.95,0.1 q -1.3,-0.15 -2.1,-1.05 l -0.15,-0.35 -0.15,-0.6 -0.05,-0.3 0.1,-0.45 0.05,-0.2 0.05,-0.15 -0.7,-2.9 V 1.55 M -69.4,-2.3 -68.85,-4.65 -68.9,-5 q 0.1,-0.85 0.8,-1.3 2.95,-1.75 3,1.65 l 0.3,1.15 0.1,0.65 0.25,1.6 0.25,0.7 0.25,0.7 q 0.25,1.45 -0.85,2.3 l -1,1.05 -0.8,0.1 Q -67.4,3.65 -67.9,2.9 -69,1 -69.35,-1.4 l -0.05,-0.9 m 9.4,0.05 -0.25,-1.1 -0.85,-3.5 -1.6,-0.4 q -0.75,-0.1 -1.15,-0.55 l -0.1,-0.1 -0.2,-0.5 v -0.3 -0.2 q 1,-2.25 3.4,-1.95 1.4,0.15 2,1.4 1.45,3.05 2.35,6.5 0.6,1.95 0,3.45 -0.55,1.45 -2.1,2.45 -1.05,0.3 -1.65,-0.6 -0.85,-1.3 0.35,-2.7 l -0.2,-1.9 m -8.3,-8.75 -1.1,0.05 q -0.65,-0.05 -1.1,-0.55 -0.5,-0.9 -0.55,-2.05 l 0.05,-1.35 -0.55,-2.45 q -0.1,-1.1 0.45,-2.05 1.95,-3.05 3.8,-0.4 l 0.2,1 q 0.15,0.75 -0.35,1.4 v 0.05 l 0.4,1.1 q 1.05,3.2 -1.25,5.25 m 5.6,18.25 q 1.7,1.3 2.05,3.25 l 0.5,0.8 0.15,0.3 q 0.35,0.85 0.25,1.6 -0.05,1.65 -2,2.9 l -0.55,0.1 -0.9,-0.3 q -1.75,-1.6 -2.15,-4.15 -0.8,-1.95 0.65,-4.05 0.9,-1.2 2,-0.45 m 9.95,9.7 -0.9,0.05 q -0.55,-0.05 -0.9,-0.45 -0.4,-0.7 -0.3,-1.45 l 0.55,-1.7 q -0.85,-1.05 -1.25,-2.4 l -0.8,-2.85 -1,0.05 q -1.05,0.2 -1.7,-0.45 L -59.15,7.6 -59.3,6.95 -59.35,6.6 q 1.5,-2.45 4.4,-2.05 1.8,1.75 2.6,4.15 l 0.8,1.5 q 2.7,3.75 -1.2,6.75"
         fill="#000000"
         fill-rule="evenodd"
         stroke="none"
         id="path1" />
      <path
         d="m -53.35,-27.2 6.65,-1.35 0.05,0.1 -0.1,0.2 -0.05,0.25 -0.05,0.35 -0.1,0.45 1.05,7.9 q 0.7,3.8 2.4,6.95 l 0.4,1.35 1.2,2.2 0.45,0.85 q 2.2,2.95 6,3.3 l 3.9,-0.25 q 5.1,-3.8 5.75,-10.3 0.6,-5.65 -1.05,-10.55 1.3,-0.55 2.5,-1.05 l 0.2,0.55 q 0.8,1.55 0.9,3.35 l 0.65,3.8 v 0.1 0.1 q -0.2,1.05 -0.05,2.2 0.3,2.9 0.3,5.8 l 0.15,3.5 -0.1,0.2 v 0.1 0.2 l -0.05,0.2 v 0.2 0.15 l -0.05,0.55 v 0.55 0.15 q -1.05,6.65 -5.05,12.35 -1.9,2.75 -4.75,4.35 -5.3,3.15 -9.45,-0.7 L -41.8,10.65 -43,9.2 -44.4,7.15 -44.95,6.7 V 6.55 l -0.1,-0.15 -0.5,-0.75 -0.2,-0.35 q -0.1,-0.35 -0.35,-0.6 l -0.15,-0.1 q -1.85,-4.25 -3.3,-8.65 -2.4,-7.95 -3.85,-16.05 l 0.05,-0.25 -0.05,-0.15 -0.1,-0.8 -0.1,-0.5 -0.1,-0.35 -0.05,-0.15 0.05,-0.2 q 0.1,-0.4 0.05,-0.9 l -0.05,-0.45 -0.05,-0.35 0.1,-1.55 -0.1,-1.35 0.4,-0.1 m 6.6,38 0.05,0.05 h 0.05 l 0.1,0.1 q 1.2,1.2 2.1,2.7 L -42.6,15 q 3.1,2.15 7,1.95 l 0.7,-0.15 q 8.25,-3.2 12.15,-11.75 3.15,-6.75 2.7,-13.7 l 0.1,-0.2 0.1,-0.2 -0.1,-0.75 v -0.05 l -0.1,-0.55 -0.15,-0.3 v -0.15 l 0.05,-0.25 q 0.2,-0.7 0.05,-1.4 l -0.3,-1.65 -0.25,-1.1 0.05,-0.2 v -0.2 l -0.05,-0.8 -0.05,-0.5 -0.2,-0.6 v -0.1 -0.05 l -0.05,-0.25 0.05,-0.15 -0.05,-0.8 0.3,0.95 0.3,0.9 q 1.35,3.5 1.8,7.3 l 0.2,3.05 q 0.2,8.05 -2.75,15.75 -3,7.75 -10.5,10.7 l -2.35,0.85 q -3.5,1.25 -7.05,1.9 l -0.1,-0.15 q -0.35,-0.7 -1,-1.15 -2.45,-3.2 -6,-4.6 l -1.45,0.05 q -1.45,0.45 -1.8,1.9 v 0.15 l 0.15,0.25 0.1,0.3 q 0.4,0.5 1.05,0.45 l 1.25,-0.2 0.4,0.5 0.8,0.7 q 0.5,1.05 1.4,1.8 l 0.8,0.55 -6,0.15 q -0.25,-0.85 -1.25,-1.75 -2,-2 -4.4,-3.5 -0.65,-0.5 -1.15,-0.55 h -0.1 l -1.5,0.4 -0.3,0.2 h -0.05 q -0.4,0.25 -0.5,0.85 -0.15,1 0.1,1.95 l -1.95,-1.25 -2.9,-2.2 q -0.2,-0.5 -0.65,-0.75 -1.15,-2.8 -1.4,-5.75 -0.1,-1.05 -1,-1.5 h -0.7 l -0.45,0.3 q -0.45,1.85 -0.4,3.6 -3.75,-4.1 -4.95,-10.15 l 0.9,-1.55 V 1.7 l 0.7,2.9 -0.05,0.15 -0.05,0.2 -0.1,0.45 0.05,0.3 0.15,0.6 0.15,0.35 q 0.8,0.9 2.1,1.05 l 0.95,-0.1 q 2.1,-1.55 0.6,-3.25 l -0.95,-0.8 -0.8,-3.85 -0.1,-0.75 0.75,-0.5 1.25,-0.75 0.05,0.9 q 0.35,2.4 1.45,4.3 0.5,0.75 1.3,0.7 l 0.8,-0.1 1,-1.05 q 1.1,-0.85 0.85,-2.3 l -0.25,-0.7 -0.25,-0.7 -0.25,-1.6 -0.1,-0.65 1.4,0.1 q 1.75,0.15 3.2,1.05 l 0.2,0.1 0.2,1.9 q -1.2,1.4 -0.35,2.7 0.6,0.9 1.65,0.6 1.55,-1 2.1,-2.45 2.1,1.85 3.8,4.15 l 1,1.05 q 2.15,3.05 4.85,5.1 m -6,6.15 q 3.9,-3 1.2,-6.75 l -0.8,-1.5 q -0.8,-2.4 -2.6,-4.15 -2.9,-0.4 -4.4,2.05 l 0.05,0.35 0.15,0.65 0.1,0.15 q 0.65,0.65 1.7,0.45 l 1,-0.05 0.8,2.85 q 0.4,1.35 1.25,2.4 l -0.55,1.7 q -0.1,0.75 0.3,1.45 0.35,0.4 0.9,0.45 l 0.9,-0.05 m -9.95,-9.7 q -1.1,-0.75 -2,0.45 -1.45,2.1 -0.65,4.05 0.4,2.55 2.15,4.15 l 0.9,0.3 0.55,-0.1 q 1.95,-1.25 2,-2.9 0.1,-0.75 -0.25,-1.6 l -0.15,-0.3 -0.5,-0.8 Q -61,8.55 -62.7,7.25"
         fill="#252525"
         fill-rule="evenodd"
         stroke="none"
         id="path2" />
      <path
         d="m -44.25,-29 1.9,7.1 q 1.75,5.85 6.2,9.35 1.35,1.1 3.15,0.15 3.7,-2.15 3.75,-6.65 v -3.25 q 0.45,1.95 0.6,3.9 l -0.1,0.75 -0.05,0.85 0.05,0.95 -1.05,3.75 q -0.7,2.3 -2.55,3.9 l -4,-0.1 -1.45,-0.45 -0.4,-0.55 -0.65,-0.6 -0.7,-0.8 v -0.15 l -0.05,-0.2 -0.1,-0.05 -0.15,-0.1 q -2.2,-4.25 -3.4,-9.2 l -1.85,-7.95 -0.15,-0.3 -0.1,-0.2 1.1,-0.15"
         fill="#353535"
         fill-rule="evenodd"
         stroke="none"
         id="path3" />
      <path
         d="M -74.95,3.1 -75.1,2.3 q -1.4,-8.5 -1.8,-17.25 l -0.05,-3 0.05,-0.15 0.1,-0.6 0.1,-0.35 0.25,-1.4 q 0.1,-0.25 0.05,-0.55 l 0.35,-0.1 0.05,0.1 0.2,1.05 -0.05,3.35 -0.1,2.1 q -0.85,2.9 1.1,4.35 0.95,0.8 2.15,0.6 l 0.3,-0.3 0.3,-0.3 0.1,-0.2 0.05,-0.15 v -0.4 l -0.45,-0.75 -0.8,-0.5 0.3,-1.65 0.1,-1.3 q 0.8,-3.6 0.35,-7 l 8.9,-2.45 q -1,1.85 -0.1,3.9 0.25,0.55 0.25,1.25 l 0.25,1.1 -0.05,0.8 v 1.4 l -0.45,0.4 -0.5,0.55 -0.15,0.4 v 0.7 l 0.1,0.35 q 0.9,0.7 2.1,0.55 l 0.85,-0.15 q 2.1,-1.95 1.7,-4.9 l -0.25,-1.65 q 0.45,-3.45 -1.6,-5.25 l 3.1,-0.85 1.1,9.15 q 1.45,9.2 4.75,17.6 l 2.45,5.15 0.55,1.45 2.7,3.4 q -2.7,-2.05 -4.85,-5.1 l -1,-1.05 q -1.7,-2.3 -3.8,-4.15 0.6,-1.5 0,-3.45 -0.9,-3.45 -2.35,-6.5 -0.6,-1.25 -2,-1.4 -2.4,-0.3 -3.4,1.95 v 0.2 0.3 l 0.2,0.5 0.1,0.1 q 0.4,0.45 1.15,0.55 l 1.6,0.4 0.85,3.5 0.25,1.1 -0.2,-0.1 q -1.45,-0.9 -3.2,-1.05 l -1.4,-0.1 -0.3,-1.15 q -0.05,-3.4 -3,-1.65 -0.7,0.45 -0.8,1.3 l 0.05,0.35 -0.55,2.35 -1.25,0.75 -0.75,0.5 -0.3,-2.2 v -0.2 -0.2 l -0.05,-0.15 1.3,-1.85 q 0.35,-0.45 0.25,-0.85 -1.8,-1.3 -3.7,0.85 -1.25,1.5 -0.55,3.35 0,1.95 0.4,3.85 l -0.9,1.55 M -68.3,-11 q 2.3,-2.05 1.25,-5.25 l -0.4,-1.1 v -0.05 q 0.5,-0.65 0.35,-1.4 l -0.2,-1 q -1.85,-2.65 -3.8,0.4 -0.55,0.95 -0.45,2.05 l 0.55,2.45 -0.05,1.35 q 0.05,1.15 0.55,2.05 0.45,0.5 1.1,0.55 l 1.1,-0.05"
         fill="#383838"
         fill-rule="evenodd"
         stroke="none"
         id="path4" />
    </g>
    <g
       id="sprite1"
       transform="translate(17.4,15.85)">
      <use
         ffdec:characterId="31"
         height="57.200001"
         transform="matrix(0.5366,0,0,0.5366,-16.6582,-14.546)"
         width="70.75"
         xlink:href="#sprite2"
         id="use4" />
    </g>
    <g
       id="sprite2"
       transform="translate(-8.65,-10.35)">
      <use
         ffdec:characterId="30"
         height="57.200001"
         transform="translate(8.65,10.35)"
         width="70.75"
         xlink:href="#shape1"
         id="use5" />
    </g>
    <g
       id="shape1"
       transform="translate(-8.65,-10.35)">
      <path
         d="m 14.8,41.7 q 0.65,-1.75 2.65,-2.5 1.8,-0.8 3.7,-0.25 1.15,0.45 2.25,1.2 l 0.9,0.4 q 1.65,0.9 2.85,2.5 L 37.8,30.1 q 2.35,-2.8 3.75,-3.95 1.5,-1.15 4.25,-2.4 18.2,-8.85 27.65,-12.6 2.15,-0.8 3.25,-0.8 h 0.8 l 1.9,2.4 -0.2,0.8 q -0.2,1.1 -1.55,3 -5.85,8.25 -18.85,23.8 -1.85,2.35 -3.35,3.5 -1.4,1.15 -4.75,2.75 l -15.15,7.15 q 1.2,1.6 1.75,3.4 l 0.2,1 0.55,2.5 q 0.1,1.95 -1.1,3.55 -1.2,1.65 -3.05,1.9 l -1.3,0.05 q -1.65,0.2 -3.45,-0.65 -1.85,-0.9 -3,-2.6 L 25,60.95 23.8,62.1 q -2.6,2.85 -4.3,3.95 -2.85,1.8 -5.5,1.45 l -1.65,-0.5 -1.2,-0.7 -0.2,-0.2 q -1,-0.85 -1.6,-1.9 L 9.25,64 9.15,63.8 8.75,62.4 q -0.2,-0.8 -0.05,-1.7 0.25,-2.65 2.7,-5.05 1.5,-1.3 4.9,-3.15 L 17.7,51.55 16.05,50 q -1.35,-1.5 -1.8,-3.6 -0.4,-1.85 0.25,-3.45 l 0.3,-1.25"
         fill="#000000"
         fill-opacity="0.372549"
         fill-rule="evenodd"
         stroke="none"
         id="path5" />
    </g>
  </defs>
</svg>
