<?xml version="1.0" encoding="UTF-8" standalone="no"?>
<svg
   ffdec:objectType="frame"
   height="73.252083"
   width="79.976524"
   version="1.1"
   id="svg5"
   xmlns:xlink="http://www.w3.org/1999/xlink"
   xmlns="http://www.w3.org/2000/svg"
   xmlns:svg="http://www.w3.org/2000/svg"
   xmlns:ffdec="https://www.free-decompiler.com/flash">
  <g
     transform="translate(43.606522,38.952083)"
     id="g1">
    <use
       ffdec:characterId="17"
       height="119.15"
       id="rarity"
       transform="translate(-58.5,-60.65)"
       width="119.15"
       xlink:href="#sprite0" />
    <use
       ffdec:characterId="1061"
       height="73.349998"
       transform="translate(-43.6,-38.95)"
       width="79.949997"
       xlink:href="#shape0"
       id="use1" />
  </g>
  <defs
     id="defs5">
    <g
       id="shape0"
       transform="translate(90.4,40.3)">
      <path
         d="m -68.05,-7.8 q 3.5,-4.15 11.45,-10.55 3.15,-2.55 5.1,-3.5 3.25,-1.45 9.3,-1.65 l 5.9,-0.05 q 3.3,0.25 5.7,1.25 3.7,1.5 6.9,5.3 2.15,2.5 5.1,7.45 l 2.9,4.85 q 1.4,2.35 1.1,3.7 l -0.2,0.6 v 0.3 l 0.15,6.3 q 0.1,5.7 -0.2,8.55 -0.8,7.4 -5,14.3 -1.7,2.8 -3.55,3.6 l -2.5,0.3 q -1.4,-0.3 -2,-1.4 -0.7,-1.25 0,-3.85 l 2.35,-9.5 0.7,-2.7 q -5,5.25 -10.05,8.45 -8.45,5.4 -17.15,5.55 -4.65,0.1 -8.95,-1.5 -4.45,-1.65 -7.6,-4.75 l -2.05,-2.15 q -1.25,-1.25 -2.4,-1.8 -1.4,-0.7 -2.9,-0.45 -1.65,0.3 -2.35,1.5 l -0.4,1.15 -0.25,1.2 q -0.5,1.55 -1.6,1.7 -0.75,0.1 -1.4,-0.65 -0.6,-0.7 -0.7,-1.65 -0.25,-1.65 0.4,-3.35 0.65,-1.65 1.95,-2.85 2.55,-2.35 6.35,-2.25 3.3,0 6.05,1.95 l 2.05,1.75 2,1.85 q 3.2,2.65 7.7,3.5 4.2,0.85 8.55,-0.1 7.45,-1.6 14.85,-8.15 l 4.3,-4.15 -5.7,3.2 q -5.4,2.55 -10.3,2.75 -6.75,0.3 -13.55,-3.6 -5.5,-3.2 -10.7,-9.15 l -0.55,-0.7 q -3,1.8 -6.65,2.15 L -83.6,4.5 q -2.45,-0.4 -4.15,-1.45 -2.2,-1.4 -2.55,-3.45 -0.35,-1.5 0.45,-3 0.8,-1.4 2.2,-2.15 1.35,-0.7 3,-0.6 1.55,0.05 2.95,0.8 1.25,0.8 1.9,1.05 l 2.15,0.4 2.25,0.1 2.55,-0.5 q 1.8,-0.4 2.95,-0.9 l 1.85,-2.6 m 40.4,-23.55 q -3.4,-1.5 -5.6,-1.9 -3.9,-0.7 -9.35,0.65 -11.35,2.75 -20.05,10.75 l -3.85,3.6 q -2.3,2 -4.3,2.9 -2.55,1.1 -5.2,0.65 -2.9,-0.55 -4.2,-2.7 -0.5,-0.75 -0.35,-1.4 l 0.35,-0.65 q 0.3,-0.3 0.6,-0.25 0.35,0 1.05,0.6 1.2,0.9 2.9,0.75 1.55,-0.15 2.9,-1.05 1.1,-0.75 2.25,-2.15 l 1.9,-2.45 q 4.4,-5.6 10.9,-9.6 6.2,-3.8 13.45,-5.6 4.65,-1.15 8.5,-1.1 7.55,0.2 14.8,5 2.95,1.95 4.45,3.9 l 1.9,3.2 1.75,3.25 1.3,1.95 q 0.75,1.1 1,2.05 0.3,1.2 -0.15,2.35 -0.55,1.2 -1.65,1.4 -1.25,0.25 -2.65,-0.85 -1.7,-1.3 -3.6,-4.6 -2.1,-3.75 -3.3,-4.95 -1.9,-2 -5.75,-3.75 m -2.7,17.15 q -2.75,-2.05 -4.5,-2.65 l -5.1,-0.35 -6.85,1.3 -4.4,1.65 -3.95,2.9 q -5,4.35 -8.8,10.15 4.65,6.2 10.35,9.05 6.9,3.45 13.45,1.45 1.7,-0.5 4.3,-1.9 7.7,-4.15 13.95,-9.75 l -4.8,-7.95 -1.25,-1.85 -2.4,-2.05"
         fill="#000000"
         fill-rule="evenodd"
         stroke="none"
         id="path1" />
      <path
         d="M -38.95,2.3 -41,2.8 -45.5,2.7 -46.15,2.65 q -2.6,-0.4 -3.95,-3 l -0.45,-1.1 -0.15,-0.2 q -1.25,-2.2 -1.2,-4.25 0.05,-2 1.5,-3.95 1.1,-1.5 3.2,-2.8 1.45,-0.9 2.9,-1.25 l 2.6,-0.1 q 2.45,0.1 4.2,0.95 2.25,1 3.05,3 l 0.4,1.25 0.65,1.6 q 0.75,2.35 0.15,4.65 -0.35,1.5 -1.15,2.35 -0.8,0.9 -2.9,1.8 l -1,0.4 -0.65,0.3"
         fill="#ab6f45"
         fill-rule="evenodd"
         stroke="none"
         id="path2" />
      <path
         d="m -38.95,2.3 0.65,-0.3 1,-0.4 q 2.1,-0.9 2.9,-1.8 0.8,-0.85 1.15,-2.35 0.6,-2.3 -0.15,-4.65 l -0.65,-1.6 -0.4,-1.25 q -0.8,-2 -3.05,-3 -1.75,-0.85 -4.2,-0.95 l -2.6,0.1 q -1.45,0.35 -2.9,1.25 -2.1,1.3 -3.2,2.8 -1.45,1.95 -1.5,3.95 -0.05,2.05 1.2,4.25 l 0.15,0.2 0.45,1.1 q 1.35,2.6 3.95,3 l 0.65,0.05 4.5,0.1 2.05,-0.5 M -38,-15.8 q 3.75,0.75 5.4,2.6 0.7,0.8 1.55,2.5 0.7,1.45 0.85,2.4 0.25,1 0.25,3.65 0,1.75 -0.3,2.9 -0.4,1.75 -1.95,3.45 -3.7,4.05 -9.9,4.4 -3.55,0.15 -6.15,-1 -3.15,-1.4 -4.55,-4.15 -0.55,-1.1 -0.8,-2.55 l -0.4,-3 q -0.1,-3.05 0.8,-5.35 0.95,-2.65 3.15,-4.25 2.35,-1.75 6.6,-1.95 l 5.45,0.35"
         fill="#d0c07e"
         fill-rule="evenodd"
         stroke="none"
         id="path3" />
      <path
         d="m -38,-15.8 -5.45,-0.35 q -4.25,0.2 -6.6,1.95 -2.2,1.6 -3.15,4.25 -0.9,2.3 -0.8,5.35 l 0.4,3 q 0.25,1.45 0.8,2.55 1.4,2.75 4.55,4.15 2.6,1.15 6.15,1 6.2,-0.35 9.9,-4.4 1.55,-1.7 1.95,-3.45 0.3,-1.15 0.3,-2.9 0,-2.65 -0.25,-3.65 -0.15,-0.95 -0.85,-2.4 -0.85,-1.7 -1.55,-2.5 -1.65,-1.85 -5.4,-2.6 m 7.65,1.6 2.4,2.05 1.25,1.85 4.8,7.95 q -6.25,5.6 -13.95,9.75 -2.6,1.4 -4.3,1.9 -6.55,2 -13.45,-1.45 -5.7,-2.85 -10.35,-9.05 3.8,-5.8 8.8,-10.15 l 3.95,-2.9 4.4,-1.65 6.85,-1.3 5.1,0.35 q 1.75,0.6 4.5,2.65"
         fill="#ffffff"
         fill-rule="evenodd"
         stroke="none"
         id="path4" />
    </g>
    <g
       id="sprite1"
       transform="translate(17.4,15.85)">
      <use
         ffdec:characterId="31"
         height="57.200001"
         transform="matrix(0.5366,0,0,0.5366,-16.6582,-14.546)"
         width="70.75"
         xlink:href="#sprite2"
         id="use4" />
    </g>
    <g
       id="sprite2"
       transform="translate(-8.65,-10.35)">
      <use
         ffdec:characterId="30"
         height="57.200001"
         transform="translate(8.65,10.35)"
         width="70.75"
         xlink:href="#shape1"
         id="use5" />
    </g>
    <g
       id="shape1"
       transform="translate(-8.65,-10.35)">
      <path
         d="m 14.8,41.7 q 0.65,-1.75 2.65,-2.5 1.8,-0.8 3.7,-0.25 1.15,0.45 2.25,1.2 l 0.9,0.4 q 1.65,0.9 2.85,2.5 L 37.8,30.1 q 2.35,-2.8 3.75,-3.95 1.5,-1.15 4.25,-2.4 18.2,-8.85 27.65,-12.6 2.15,-0.8 3.25,-0.8 h 0.8 l 1.9,2.4 -0.2,0.8 q -0.2,1.1 -1.55,3 -5.85,8.25 -18.85,23.8 -1.85,2.35 -3.35,3.5 -1.4,1.15 -4.75,2.75 l -15.15,7.15 q 1.2,1.6 1.75,3.4 l 0.2,1 0.55,2.5 q 0.1,1.95 -1.1,3.55 -1.2,1.65 -3.05,1.9 l -1.3,0.05 q -1.65,0.2 -3.45,-0.65 -1.85,-0.9 -3,-2.6 L 25,60.95 23.8,62.1 q -2.6,2.85 -4.3,3.95 -2.85,1.8 -5.5,1.45 l -1.65,-0.5 -1.2,-0.7 -0.2,-0.2 q -1,-0.85 -1.6,-1.9 L 9.25,64 9.15,63.8 8.75,62.4 q -0.2,-0.8 -0.05,-1.7 0.25,-2.65 2.7,-5.05 1.5,-1.3 4.9,-3.15 L 17.7,51.55 16.05,50 q -1.35,-1.5 -1.8,-3.6 -0.4,-1.85 0.25,-3.45 l 0.3,-1.25"
         fill="#000000"
         fill-opacity="0.372549"
         fill-rule="evenodd"
         stroke="none"
         id="path5" />
    </g>
  </defs>
</svg>
