<?xml version="1.0" encoding="UTF-8" standalone="no"?>
<svg
   ffdec:objectType="frame"
   height="77.770454"
   width="72.869301"
   version="1.1"
   id="svg4"
   sodipodi:docname="ITEM Head Wrap.svg"
   xmlns:inkscape="http://www.inkscape.org/namespaces/inkscape"
   xmlns:sodipodi="http://sodipodi.sourceforge.net/DTD/sodipodi-0.dtd"
   xmlns:xlink="http://www.w3.org/1999/xlink"
   xmlns="http://www.w3.org/2000/svg"
   xmlns:svg="http://www.w3.org/2000/svg"
   xmlns:ffdec="https://www.free-decompiler.com/flash">
  <sodipodi:namedview
     id="namedview4"
     pagecolor="#ffffff"
     bordercolor="#000000"
     borderopacity="0.25"
     inkscape:showpageshadow="2"
     inkscape:pageopacity="0.0"
     inkscape:pagecheckerboard="0"
     inkscape:deskcolor="#d1d1d1"
     fit-margin-top="5"
     fit-margin-left="5"
     fit-margin-right="5"
     fit-margin-bottom="5" />
  <g
     transform="translate(40.92193,39.1)"
     id="g1">
    <use
       ffdec:characterId="17"
       height="119.15"
       id="rarity"
       transform="translate(-58.5,-60.65)"
       width="119.15"
       xlink:href="#sprite0" />
    <use
       ffdec:characterId="1200"
       height="77.900002"
       transform="translate(-40.9,-39.25)"
       width="72.849998"
       xlink:href="#shape0"
       id="use1" />
  </g>
  <defs
     id="defs4">
    <g
       id="shape0"
       transform="translate(39.6,37.35)">
      <path
         d="m 11.6,-25.8 9.85,0.45 -0.15,-0.35 q -3.05,-6.55 -10.35,-6.6 -5.15,3 -10.1,6.45 4.85,-0.15 9.7,0.05 h 1.05 m 20.2,14.4 q 1.1,3.2 -1,6.4 -2.35,3.4 -5.5,6.05 l 0.15,2.65 q 0,1.05 -0.5,1.95 l -0.25,2.2 -0.55,0.9 q -2.15,4.9 -5.7,9.05 l -1.35,1.1 q -6.45,7.05 -15.4,11 l -8.15,3.25 q -13.5,4.8 -27.6,6.75 l -4.05,0.65 q -1.05,0.15 -1.35,-0.8 -0.7,-2.1 1.45,-3.15 l 3.5,-2.2 2.8,-2.25 q 2.7,-3.15 4.95,-6.55 0.3,-0.45 0.9,-0.35 13.15,2.3 26.2,-1.3 l 1.1,-0.3 Q 3.7,22.25 5.7,20.45 L 8.15,17.9 q 3,-3.45 2.55,-7.5 l -7.7,4 q -6.9,3.3 -14.05,6 l -4.7,2 q -2.7,1.25 -5.55,0.95 -3.7,0.7 -6.1,-2.7 -2.1,-3 -5.25,-5 -2.05,-1.3 -0.85,-3.4 1,-1.8 2.35,-3.4 l 4.5,-4.8 -7,-0.9 -1.15,0.9 q -0.3,0.2 -0.7,0 -2.3,-1.35 -0.95,-3.9 l -0.6,-6.5 q -0.35,-3.05 1,-5.4 0.45,-0.85 1.35,-1.2 10.25,-4.35 20.95,-7.65 l -7.35,0.55 q -0.6,0.05 -0.85,-0.5 -1.5,-2.9 -0.3,-6.05 l 2.65,-6.5 q 0.45,-1.1 1.65,-1.45 6.05,-1.8 12.25,-2.6 l 0.5,-0.05 19.7,0.75 q 3.45,0.45 5.75,2.75 2.9,2.9 4.1,6.7 l 0.05,0.15 0.2,0.5 v 0.15 l 0.15,0.65 0.15,0.35 v 0.15 0.15 l 1.5,0.25 q 0.7,0.15 1.25,0.65 3.25,2.9 4.7,6.95 l 0.7,1.65 q 0.75,2.85 -1.35,3.35 l 0.1,0.65 m -27.1,-21 q -10.65,-0.85 -20.65,2.45 l -0.05,0.15 -0.2,0.5 -0.1,0.5 q -0.1,0.75 -0.45,1.5 l -0.45,1.45 q -0.15,0.55 -0.45,1.05 l 12.15,-0.6 1.25,-0.1 0.4,-0.2 1.75,-1 q 4.6,-3.1 9.5,-5.55 L 4.7,-32.4 m 11.35,14.6 q 6.25,-0.85 11.7,1.85 l -0.35,-1.1 -0.3,-0.5 -0.6,-0.65 -0.15,-0.15 -0.4,-0.45 -1.4,-1.55 -0.2,-0.25 -8.6,-0.3 -4.15,-0.35 q -9,0.7 -17.7,3.25 -7.15,2.1 -14.15,4.6 v 0.55 l -0.2,0.8 -0.7,3.05 0.15,-0.1 q 15.4,-6.7 32,-7.8 l 5.05,-0.9 m -9,18.7 2,-1.45 L 5.3,-1.1 4.45,-1.3 Q 1,0.65 -2.3,2.9 l 5,-0.25 1.75,0.05 2.6,-1.8 m 8.85,-7.45 q -4.3,1.35 -8.25,3.45 1.75,0.55 3.65,0.8 l 4.6,-4.25 m 6.65,-6.5 q -10,-0.35 -19,3.7 -8.95,4 -17.1,9.4 Q -21,4.9 -27.1,11.25 l -1.4,1.75 0.05,0.1 2.55,1.85 1.85,1.8 0.3,0.3 q 1.7,-3.15 4.05,-5.85 5.15,-5.95 11.7,-10.45 4.85,-3.35 10,-6.3 8.35,-4.75 17.75,-6.8 l 2.8,-0.7 m 1.2,4.55 -4.05,0.85 Q 16.6,-2.6 11.6,1 L 8.2,3.45 q -10,8 -22,12.75 -2.2,0.85 -4.2,0.55 l -0.9,1.45 -0.1,0.3 -0.3,0.65 -0.2,0.5 -0.35,0.65 -0.05,0.2 v 0.15 L -19.95,20.8 -20,20.95 Q -12.25,16.9 -4.15,13.3 3.7,9.8 11,5.35 l 9.75,-6.7 q 4,-2.7 6.2,-6.9 -1.2,-0.8 -3.2,-0.25 m -13.6,28.7 2.1,-1.5 q 0.75,-0.75 1.65,-1.4 0.5,-0.95 1.5,-1.45 l 0.2,-0.15 q 3.05,-3.2 5.3,-6.85 l 0.45,-0.7 V 8 7.85 L 21.4,7.7 21.5,7.5 21.6,7.35 21.7,7.2 22.75,2.95 14.1,8.45 q 0.65,1.2 0.5,2.95 l -0.75,2.6 -0.5,0.95 q -0.9,2.55 -2.75,4.65 l -0.7,0.75 0.25,-0.15 m -32.85,-32.7 -9.9,4 v 0.65 0.65 0.8 q -0.1,1.2 0.25,2.3 l 0.15,1.3 q 4.4,-3.1 9.3,-5.4 v -0.9 l 0.3,-1.65 v -0.95 l 0.35,-0.95 -0.45,0.15 m 4.85,9.35 1.55,-1.05 -5.15,-0.3 -2.25,1.15 Q -27.4,-1.4 -30.75,1 l 6.45,-0.7 1.35,0.4 q 2.45,-2.05 5.1,-3.85 m 7.35,-4.7 5.2,-2.9 q -5.05,1.45 -9.95,3.45 l 2.35,0.75 0.15,0.1 2.25,-1.4 m -0.35,16.95 -3.35,3 3.6,-1.25 Q -5.35,8.55 -0.35,5.7 L -5.6,5.85 -6.4,5.75 -10.85,9.1 M -25.5,29.3 q -1.5,2.65 -3.7,4.8 l -1.3,1.35 q 11.15,-2.15 22.1,-5.5 0.75,-0.2 1.4,-0.6 l -5.55,0.55 -12.95,-0.6"
         fill="#000000"
         fill-rule="evenodd"
         stroke="none"
         id="path1" />
      <path
         d="m 11.6,-25.8 h -1.05 q -4.85,-0.2 -9.7,-0.05 4.95,-3.45 10.1,-6.45 7.3,0.05 10.35,6.6 l 0.15,0.35 -9.85,-0.45 m 4.45,8 -5.05,0.9 q -16.6,1.1 -32,7.8 l -0.15,0.1 0.7,-3.05 0.2,-0.8 v -0.55 q 7,-2.5 14.15,-4.6 8.7,-2.55 17.7,-3.25 l 4.15,0.35 8.6,0.3 0.2,0.25 1.4,1.55 0.4,0.45 0.15,0.15 0.6,0.65 0.3,0.5 0.35,1.1 q -5.45,-2.7 -11.7,-1.85 M 4.7,-32.4 l 2.7,0.15 q -4.9,2.45 -9.5,5.55 l -1.75,1 -0.4,0.2 -1.25,0.1 -12.15,0.6 q 0.3,-0.5 0.45,-1.05 l 0.45,-1.45 q 0.35,-0.75 0.45,-1.5 l 0.1,-0.5 0.2,-0.5 0.05,-0.15 q 10,-3.3 20.65,-2.45 m 17.85,19.35 -2.8,0.7 q -9.4,2.05 -17.75,6.8 -5.15,2.95 -10,6.3 -6.55,4.5 -11.7,10.45 -2.35,2.7 -4.05,5.85 l -0.3,-0.3 -1.85,-1.8 -2.55,-1.85 -0.05,-0.1 1.4,-1.75 q 6.1,-6.35 13.55,-11.2 8.15,-5.4 17.1,-9.4 9,-4.05 19,-3.7 m -45.25,0.55 0.45,-0.15 -0.35,0.95 v 0.95 l -0.3,1.65 v 0.9 q -4.9,2.3 -9.3,5.4 l -0.15,-1.3 Q -32.7,-5.2 -32.6,-6.4 V -7.2 -7.85 -8.5 l 9.9,-4 m -2.8,41.8 12.95,0.6 5.55,-0.55 q -0.65,0.4 -1.4,0.6 -10.95,3.35 -22.1,5.5 l 1.3,-1.35 q 2.2,-2.15 3.7,-4.8"
         fill="#b8b8b8"
         fill-rule="evenodd"
         stroke="none"
         id="path2" />
      <path
         d="M 7.05,0.9 4.45,2.7 2.7,2.65 -2.3,2.9 Q 1,0.65 4.45,-1.3 l 0.85,0.2 3.75,0.55 -2,1.45 m 3.1,19.3 -0.25,0.15 0.7,-0.75 q 1.85,-2.1 2.75,-4.65 L 13.85,14 14.6,11.4 Q 14.75,9.65 14.1,8.45 L 22.75,2.95 21.7,7.2 21.6,7.35 21.5,7.5 21.4,7.7 21.35,7.85 V 8 8.15 l -0.45,0.7 q -2.25,3.65 -5.3,6.85 l -0.2,0.15 q -1,0.5 -1.5,1.45 -0.9,0.65 -1.65,1.4 l -2.1,1.5 m 13.6,-28.7 q 2,-0.55 3.2,0.25 -2.2,4.2 -6.2,6.9 L 11,5.35 Q 3.7,9.8 -4.15,13.3 -12.25,16.9 -20,20.95 l 0.05,-0.15 0.05,-0.15 V 20.5 l 0.05,-0.2 0.35,-0.65 0.2,-0.5 0.3,-0.65 0.1,-0.3 0.9,-1.45 q 2,0.3 4.2,-0.55 12,-4.75 22,-12.75 L 11.6,1 q 5,-3.6 8.1,-8.65 l 4.05,-0.85 m -41.6,5.35 q -2.65,1.8 -5.1,3.85 L -24.3,0.3 -30.75,1 q 3.35,-2.4 7.05,-4.35 l 2.25,-1.15 5.15,0.3 -1.55,1.05"
         fill="#828282"
         fill-rule="evenodd"
         stroke="none"
         id="path3" />
    </g>
    <g
       id="sprite1"
       transform="translate(17.4,15.85)">
      <use
         ffdec:characterId="31"
         height="57.200001"
         transform="matrix(0.5366,0,0,0.5366,-16.6582,-14.546)"
         width="70.75"
         xlink:href="#sprite2"
         id="use3" />
    </g>
    <g
       id="sprite2"
       transform="translate(-8.65,-10.35)">
      <use
         ffdec:characterId="30"
         height="57.200001"
         transform="translate(8.65,10.35)"
         width="70.75"
         xlink:href="#shape1"
         id="use4" />
    </g>
    <g
       id="shape1"
       transform="translate(-8.65,-10.35)">
      <path
         d="m 14.8,41.7 q 0.65,-1.75 2.65,-2.5 1.8,-0.8 3.7,-0.25 1.15,0.45 2.25,1.2 l 0.9,0.4 q 1.65,0.9 2.85,2.5 L 37.8,30.1 q 2.35,-2.8 3.75,-3.95 1.5,-1.15 4.25,-2.4 18.2,-8.85 27.65,-12.6 2.15,-0.8 3.25,-0.8 h 0.8 l 1.9,2.4 -0.2,0.8 q -0.2,1.1 -1.55,3 -5.85,8.25 -18.85,23.8 -1.85,2.35 -3.35,3.5 -1.4,1.15 -4.75,2.75 l -15.15,7.15 q 1.2,1.6 1.75,3.4 l 0.2,1 0.55,2.5 q 0.1,1.95 -1.1,3.55 -1.2,1.65 -3.05,1.9 l -1.3,0.05 q -1.65,0.2 -3.45,-0.65 -1.85,-0.9 -3,-2.6 L 25,60.95 23.8,62.1 q -2.6,2.85 -4.3,3.95 -2.85,1.8 -5.5,1.45 l -1.65,-0.5 -1.2,-0.7 -0.2,-0.2 q -1,-0.85 -1.6,-1.9 L 9.25,64 9.15,63.8 8.75,62.4 q -0.2,-0.8 -0.05,-1.7 0.25,-2.65 2.7,-5.05 1.5,-1.3 4.9,-3.15 L 17.7,51.55 16.05,50 q -1.35,-1.5 -1.8,-3.6 -0.4,-1.85 0.25,-3.45 l 0.3,-1.25"
         fill="#000000"
         fill-opacity="0.372549"
         fill-rule="evenodd"
         stroke="none"
         id="path4" />
    </g>
  </defs>
</svg>
