<?xml version="1.0" encoding="UTF-8" standalone="no"?>
<svg
   ffdec:objectType="frame"
   height="53.476925"
   width="67.596428"
   version="1.1"
   id="svg5"
   xmlns:xlink="http://www.w3.org/1999/xlink"
   xmlns="http://www.w3.org/2000/svg"
   xmlns:svg="http://www.w3.org/2000/svg"
   xmlns:ffdec="https://www.free-decompiler.com/flash">
  <g
     transform="translate(36.008333,22.376923)"
     id="g1">
    <use
       ffdec:characterId="17"
       height="119.15"
       id="rarity"
       transform="translate(-58.5,-60.65)"
       width="119.15"
       xlink:href="#sprite0" />
    <use
       ffdec:characterId="211"
       height="53.75"
       transform="translate(-36,-22.4)"
       width="67.599998"
       xlink:href="#shape0"
       id="use1" />
  </g>
  <defs
     id="defs5">
    <g
       id="shape0"
       transform="translate(35.7,24.9)">
      <path
         d="m 23.5,-23.6 q 1,0.7 1.8,2.9 2.05,5.6 3.65,14.3 L 31.6,8.15 q 0.55,2.65 0.05,3.8 -0.35,0.85 -1.8,2.1 l -5.35,3.2 q -4.35,2.2 -5.55,2.9 -3.45,2.05 -7.6,6.05 -1.9,1.95 -3.3,2.4 l -4.6,-0.1 q -15.1,-2.85 -24,-3.35 -3.55,-0.2 -4.85,-1.25 -1.15,-0.95 -2,-3.35 L -34.7,2.3 q -1.1,-2.7 -1,-4.25 0.15,-2.25 3,-5.6 l 8.65,-10.15 q 2.5,-2.8 4,-3.6 1.15,-0.65 3.95,-1.25 13.85,-2.75 23.8,-2.25 l 5.8,0.4 5.8,0.15 h 2.2 l 2,0.65 M -10.5,0.2 -11.2,0 q -2.5,-0.7 -3.75,-0.8 l -3.8,0.1 -3.35,-0.2 q -1.2,-0.25 -1,-0.9 0.15,-0.35 0.85,-0.45 l 5.45,-0.7 3.3,-0.3 2.2,0.05 2.15,0.2 6.2,0.25 2.1,0.05 q 0.4,-0.1 1.2,-0.6 4.35,-2.85 8.2,-6.4 l 2.4,-2.1 q 1.45,-1.1 2.8,-1.45 l 1.15,0.15 q 0.6,0.6 -0.55,1.65 -5.05,4.5 -9.55,10.1 L 3.4,0.4 3.45,0.8 4,2.45 4.55,4.1 4.7,5.7 4.9,6.8 5.1,9.65 q 0.25,2.05 0.1,4.65 l -0.1,1.65 v 0.8 q -0.1,0.5 -0.5,0.6 -0.35,0 -0.55,-0.4 L 3.95,16.25 3.5,14.9 2.9,13.65 2.65,12.6 Q 2.25,10.3 1.1,7.95 L 0.6,6.65 0.35,5.55 -0.3,4.35 -1.15,2.7 -3.5,2.2 l -7,-2 m 31.65,-14.9 -1.05,-3.5 q -16.45,-1.45 -32.5,0.8 -3.25,0.5 -4.6,1.4 -1,0.6 -2.5,2.4 l -8.65,10.2 q -0.95,1.15 -1.05,1.85 -0.15,0.6 0.35,1.85 l 0.05,0.2 6.5,16.6 q 0.5,1.2 1.05,1.6 l 1.65,0.45 q 10.9,1.1 22.55,3.5 l 3.1,0.2 q 0.8,-0.2 2.3,-1.4 2.85,-2.55 4.35,-3.8 2.55,-2.15 4.75,-3.25 0.7,-0.4 3.7,-1.65 2.3,-1 3.55,-1.9 l 1.05,-1.2 0.1,-1.8 q -1.6,-11.3 -4.7,-22.55"
         fill="#000000"
         fill-rule="evenodd"
         stroke="none"
         id="path1" />
      <path
         d="m 0.4,-10.95 -1.05,-0.15 -0.65,-0.6 q -0.55,-0.85 -0.2,-1.8 0.4,-0.95 1.4,-1.2 l 0.4,-0.05 q 1.05,0 1.55,0.9 0.55,0.9 0.05,1.85 -0.5,0.9 -1.5,1.05 m -17.15,-2.4 1.75,-1.1 q 2.05,-1.1 5.25,-1.1 l 1.6,0.15 q 1.2,0.35 1.75,1.2 0.75,1 0.5,2.05 l -0.6,1.4 -1.5,1.7 q -0.8,0.7 -2.5,1.55 l -2.15,1.1 q -2.25,1.05 -3.8,0.85 l -1.5,-0.45 -0.4,-0.2 -0.85,-0.9 -0.25,-0.5 -0.05,-0.1 -0.15,-0.6 v -0.8 q 0,-1.45 0.6,-2.3 l 1.4,-1.3 0.9,-0.65"
         fill="#ffffff"
         fill-rule="evenodd"
         stroke="none"
         id="path2" />
      <path
         d="m 4.8,-1.35 q 4.5,-5.6 9.55,-10.1 1.15,-1.05 0.55,-1.65 l -1.15,-0.15 q -1.35,0.35 -2.8,1.45 l -2.4,2.1 q -3.85,3.55 -8.2,6.4 -0.8,0.5 -1.2,0.6 l -2.1,-0.05 -6.2,-0.25 -2.15,-0.2 -2.2,-0.05 -3.3,0.3 -5.45,0.7 q -0.7,0.1 -0.85,0.45 -0.2,0.65 1,0.9 l 3.35,0.2 3.8,-0.1 q 1.25,0.1 3.75,0.8 l 0.7,0.2 -5,0.05 q -9.2,0.25 -12.4,0.1 L -28.85,0.3 q -0.5,-1.25 -0.35,-1.85 0.1,-0.7 1.05,-1.85 l 8.65,-10.2 q 1.5,-1.8 2.5,-2.4 1.35,-0.9 4.6,-1.4 16.05,-2.25 32.5,-0.8 l 1.05,3.5 -0.35,0.4 q -1.85,2.2 -4.65,4.5 -1.7,1.4 -5.2,3.95 L 5.25,-1.7 4.8,-1.35 m -4.4,-9.6 q 1,-0.15 1.5,-1.05 0.5,-0.95 -0.05,-1.85 -0.5,-0.9 -1.55,-0.9 l -0.4,0.05 q -1,0.25 -1.4,1.2 -0.35,0.95 0.2,1.8 l 0.65,0.6 1.05,0.15 m -17.15,-2.4 -0.9,0.65 -1.4,1.3 q -0.6,0.85 -0.6,2.3 v 0.8 l 0.15,0.6 0.05,0.1 0.25,0.5 0.85,0.9 0.4,0.2 1.5,0.45 q 1.55,0.2 3.8,-0.85 l 2.15,-1.1 q 1.7,-0.85 2.5,-1.55 l 1.5,-1.7 0.6,-1.4 q 0.25,-1.05 -0.5,-2.05 -0.55,-0.85 -1.75,-1.2 l -1.6,-0.15 q -3.2,0 -5.25,1.1 l -1.75,1.1"
         fill="#cd9b9b"
         fill-rule="evenodd"
         stroke="none"
         id="path3" />
      <path
         d="m 4.8,-1.35 0.45,-0.35 5.7,-4.15 q 3.5,-2.55 5.2,-3.95 2.8,-2.3 4.65,-4.5 l 0.35,-0.4 q 3.1,11.25 4.7,22.55 l -0.1,1.8 -1.05,1.2 q -1.25,0.9 -3.55,1.9 -3,1.25 -3.7,1.65 -2.2,1.1 -4.75,3.25 -1.5,1.25 -4.35,3.8 -1.5,1.2 -2.3,1.4 l -3.1,-0.2 Q -8.7,20.25 -19.6,19.15 l -1.65,-0.45 q -0.55,-0.4 -1.05,-1.6 l -6.5,-16.6 -0.05,-0.2 0.95,0.05 q 3.2,0.15 12.4,-0.1 l 5,-0.05 7,2 2.35,0.5 0.85,1.65 0.65,1.2 0.25,1.1 0.5,1.3 q 1.15,2.35 1.55,4.65 l 0.25,1.05 0.6,1.25 0.45,1.35 0.1,0.7 q 0.2,0.4 0.55,0.4 0.4,-0.1 0.5,-0.6 v -0.8 L 5.2,14.3 Q 5.35,11.7 5.1,9.65 L 4.9,6.8 4.7,5.7 4.55,4.1 4,2.45 3.45,0.8 3.4,0.4 4.8,-1.35"
         fill="#b47e7e"
         fill-rule="evenodd"
         stroke="none"
         id="path4" />
    </g>
    <g
       id="sprite1"
       transform="translate(17.4,15.85)">
      <use
         ffdec:characterId="31"
         height="57.200001"
         transform="matrix(0.5366,0,0,0.5366,-16.6582,-14.546)"
         width="70.75"
         xlink:href="#sprite2"
         id="use4" />
    </g>
    <g
       id="sprite2"
       transform="translate(-8.65,-10.35)">
      <use
         ffdec:characterId="30"
         height="57.200001"
         transform="translate(8.65,10.35)"
         width="70.75"
         xlink:href="#shape1"
         id="use5" />
    </g>
    <g
       id="shape1"
       transform="translate(-8.65,-10.35)">
      <path
         d="m 14.8,41.7 q 0.65,-1.75 2.65,-2.5 1.8,-0.8 3.7,-0.25 1.15,0.45 2.25,1.2 l 0.9,0.4 q 1.65,0.9 2.85,2.5 L 37.8,30.1 q 2.35,-2.8 3.75,-3.95 1.5,-1.15 4.25,-2.4 18.2,-8.85 27.65,-12.6 2.15,-0.8 3.25,-0.8 h 0.8 l 1.9,2.4 -0.2,0.8 q -0.2,1.1 -1.55,3 -5.85,8.25 -18.85,23.8 -1.85,2.35 -3.35,3.5 -1.4,1.15 -4.75,2.75 l -15.15,7.15 q 1.2,1.6 1.75,3.4 l 0.2,1 0.55,2.5 q 0.1,1.95 -1.1,3.55 -1.2,1.65 -3.05,1.9 l -1.3,0.05 q -1.65,0.2 -3.45,-0.65 -1.85,-0.9 -3,-2.6 L 25,60.95 23.8,62.1 q -2.6,2.85 -4.3,3.95 -2.85,1.8 -5.5,1.45 l -1.65,-0.5 -1.2,-0.7 -0.2,-0.2 q -1,-0.85 -1.6,-1.9 L 9.25,64 9.15,63.8 8.75,62.4 q -0.2,-0.8 -0.05,-1.7 0.25,-2.65 2.7,-5.05 1.5,-1.3 4.9,-3.15 L 17.7,51.55 16.05,50 q -1.35,-1.5 -1.8,-3.6 -0.4,-1.85 0.25,-3.45 l 0.3,-1.25"
         fill="#000000"
         fill-opacity="0.372549"
         fill-rule="evenodd"
         stroke="none"
         id="path5" />
    </g>
  </defs>
</svg>
