<?xml version="1.0" encoding="UTF-8" standalone="no"?>
<svg
   ffdec:objectType="frame"
   height="53.055405"
   width="35.578896"
   version="1.1"
   id="svg4"
   xmlns:xlink="http://www.w3.org/1999/xlink"
   xmlns="http://www.w3.org/2000/svg"
   xmlns:svg="http://www.w3.org/2000/svg"
   xmlns:ffdec="https://www.free-decompiler.com/flash">
  <g
     transform="translate(22.626119,24.55)"
     id="g1">
    <use
       ffdec:characterId="17"
       height="119.15"
       id="rarity"
       transform="translate(-58.5,-60.65)"
       width="119.15"
       xlink:href="#sprite0" />
    <use
       ffdec:characterId="475"
       height="53.049999"
       transform="translate(-22.65,-24.55)"
       width="35.599998"
       xlink:href="#shape0"
       id="use1" />
  </g>
  <defs
     id="defs4">
    <g
       id="shape0"
       transform="translate(22.25,23.75)">
      <path
         d="M 7.4,-9.95 7.1,-12.1 4.05,-9.6 Q 2.5,-7.95 0.6,-6.75 v 0.9 l 0.05,1.7 1.2,0.65 q 1.4,-1.9 3.7,-3 L 7.5,-7.2 7.4,-9.95 M 5.75,2.35 6.4,3.25 7.05,4.8 7.95,4.45 V 4.2 L 8,3.8 8.05,3.6 8.3,2.95 8.55,2.5 8.1,-1.55 7.6,-5.5 Q 5.1,-4.4 3.45,-2.15 L 3.4,-2.1 4.55,-0.55 Q 5.25,0.3 5.4,1.5 L 5.75,2.35 M 3,13.85 q -4.3,3.85 -7.65,8.45 -2.1,7.2 -9.3,7 -1.05,0 -1.95,-0.75 -3.2,-2.55 -2.75,-6.55 -5,-4.3 0.4,-8.8 2.8,-2.35 5.9,-4.2 2,-1.25 3.3,-3.2 2.5,-3.75 5.3,-7 l -0.4,-0.7 -0.5,-1.5 v -0.05 q -5.3,3.65 -12.45,1.75 -4.4,-1.15 -5,-5.4 -0.65,-4.4 2.05,-7.3 1.7,-1.8 4,-2.85 5.8,-2.6 10.85,-6.3 l 0.5,-0.2 q 8.05,0.65 14.8,5.3 1.55,1.05 1.9,3.1 0.8,4.85 0.55,9.85 0.85,2.65 0.8,5.55 -0.1,3.8 -2.2,6.85 Q 10.35,8 9,8.3 L 6.85,8.5 Q 5.65,11.45 3,13.85 M 1.35,4.75 0.7,3.7 Q 0.25,3.05 -0.25,2.95 -2.6,7.55 -6.1,10.9 l 0.2,0.25 q 0.35,1.05 0.4,2.15 l 0.3,1.6 0.2,0.55 v 0.3 L -1.2,11.25 2.4,7 1.35,4.75 m -8.1,-16.15 v -0.25 q -0.55,-1.3 -1.4,-2.35 l -0.25,-0.35 q -2.2,1.4 -4.65,2.4 l -3.1,1.35 v 1.95 q 0,0.8 0.45,1.3 l 0.25,0.2 4.65,0.2 q 2.35,-1.05 4.6,-2.3 v -0.7 l -0.1,-0.2 -0.1,-0.2 -0.3,-0.45 -0.05,-0.2 v -0.25 -0.15 M -1.1,-17.65 -2.9,-18 -4,-17.9 q -1.1,1.1 -2.3,2.05 l 0.1,0.05 0.55,1.05 0.25,1.1 0.15,0.2 0.1,0.2 0.15,0.25 0.05,0.3 v 0.1 l 0.05,0.85 v 0.25 l 0.4,1.2 4.25,-2.95 3.9,-2.4 q -2.25,-1.45 -4.75,-2 M -6.7,16.4 v -0.05 l -0.95,-2.1 -0.45,-1.55 -2.7,1.85 -4.15,2.8 q 1.2,1.15 1.45,2.75 l -0.05,1.8 q -0.2,1.2 0.55,2.1 0.5,0.55 1.1,0.15 L -6.6,17.7 V 17.45 L -6.7,16.6 v -0.2"
         fill="#000000"
         fill-rule="evenodd"
         stroke="none"
         id="path1" />
      <path
         d="M -5.2,14.9 -5.5,13.3 Q -5.55,12.2 -5.9,11.15 L -6.1,10.9 q 3.5,-3.35 5.85,-7.95 0.5,0.1 0.95,0.75 l 0.65,1.05 q -1,2.6 -2.6,5.05 Q -3,12.5 -5.2,14.9 M -15.7,-7.35 q -0.45,-0.5 -0.45,-1.3 v -1.95 l 3.1,-1.35 q 2.45,-1 4.65,-2.4 l 0.25,0.35 q 0.85,1.05 1.4,2.35 v 0.25 q -3.75,2.55 -8.05,3.95 l -0.9,0.1 M -4.95,-12.7 -5,-13 l -0.15,-0.25 -0.1,-0.2 -0.15,-0.2 -0.25,-1.1 -0.55,-1.05 -0.1,-0.05 q 1.2,-0.95 2.3,-2.05 l 1.1,-0.1 1.8,0.35 q 0.1,1.4 -1.9,3.25 l -1.95,1.7 m -8.55,32.8 q -0.25,-1.6 -1.45,-2.75 l 4.15,-2.8 2.7,-1.85 0.45,1.55 0.95,2.1 v 0.05 q -3.1,2.75 -6.8,3.7"
         fill="#a1a1a1"
         fill-rule="evenodd"
         stroke="none"
         id="path2" />
      <path
         d="M 5.75,2.35 5.4,1.5 Q 5.25,0.3 4.55,-0.55 L 3.4,-2.1 3.45,-2.15 Q 5.1,-4.4 7.6,-5.5 L 8.1,-1.55 8.55,2.5 8.3,2.95 8.05,3.6 8,3.8 7.95,4.2 V 4.45 L 7.05,4.8 6.4,3.25 5.75,2.35 M 7.4,-9.95 7.5,-7.2 5.55,-6.5 q -2.3,1.1 -3.7,3 L 0.65,-4.15 0.6,-5.85 v -0.9 q 1.9,-1.2 3.45,-2.85 l 3.05,-2.5 0.3,2.15 M -5.2,14.9 Q -3,12.5 -1.25,9.8 0.35,7.35 1.35,4.75 L 2.4,7 -1.2,11.25 -5,15.75 v -0.3 L -5.2,14.9 m -10.5,-22.25 0.9,-0.1 q 4.3,-1.4 8.05,-3.95 v 0.15 0.25 l 0.05,0.2 0.3,0.45 0.1,0.2 0.1,0.2 v 0.7 q -2.25,1.25 -4.6,2.3 l -4.65,-0.2 -0.25,-0.2 M -4.95,-12.7 -3,-14.4 q 2,-1.85 1.9,-3.25 2.5,0.55 4.75,2 l -3.9,2.4 -4.25,2.95 -0.4,-1.2 v -0.25 l -0.05,-0.85 v -0.1 m -8.55,32.8 q 3.7,-0.95 6.8,-3.7 v 0.2 l 0.1,0.85 v 0.25 l -5.3,6.45 q -0.6,0.4 -1.1,-0.15 -0.75,-0.9 -0.55,-2.1 l 0.05,-1.8"
         fill="#696969"
         fill-rule="evenodd"
         stroke="none"
         id="path3" />
    </g>
    <g
       id="sprite1"
       transform="translate(17.4,15.85)">
      <use
         ffdec:characterId="31"
         height="57.200001"
         transform="matrix(0.5366,0,0,0.5366,-16.6582,-14.546)"
         width="70.75"
         xlink:href="#sprite2"
         id="use3" />
    </g>
    <g
       id="sprite2"
       transform="translate(-8.65,-10.35)">
      <use
         ffdec:characterId="30"
         height="57.200001"
         transform="translate(8.65,10.35)"
         width="70.75"
         xlink:href="#shape1"
         id="use4" />
    </g>
    <g
       id="shape1"
       transform="translate(-8.65,-10.35)">
      <path
         d="m 14.8,41.7 q 0.65,-1.75 2.65,-2.5 1.8,-0.8 3.7,-0.25 1.15,0.45 2.25,1.2 l 0.9,0.4 q 1.65,0.9 2.85,2.5 L 37.8,30.1 q 2.35,-2.8 3.75,-3.95 1.5,-1.15 4.25,-2.4 18.2,-8.85 27.65,-12.6 2.15,-0.8 3.25,-0.8 h 0.8 l 1.9,2.4 -0.2,0.8 q -0.2,1.1 -1.55,3 -5.85,8.25 -18.85,23.8 -1.85,2.35 -3.35,3.5 -1.4,1.15 -4.75,2.75 l -15.15,7.15 q 1.2,1.6 1.75,3.4 l 0.2,1 0.55,2.5 q 0.1,1.95 -1.1,3.55 -1.2,1.65 -3.05,1.9 l -1.3,0.05 q -1.65,0.2 -3.45,-0.65 -1.85,-0.9 -3,-2.6 L 25,60.95 23.8,62.1 q -2.6,2.85 -4.3,3.95 -2.85,1.8 -5.5,1.45 l -1.65,-0.5 -1.2,-0.7 -0.2,-0.2 q -1,-0.85 -1.6,-1.9 L 9.25,64 9.15,63.8 8.75,62.4 q -0.2,-0.8 -0.05,-1.7 0.25,-2.65 2.7,-5.05 1.5,-1.3 4.9,-3.15 L 17.7,51.55 16.05,50 q -1.35,-1.5 -1.8,-3.6 -0.4,-1.85 0.25,-3.45 l 0.3,-1.25"
         fill="#000000"
         fill-opacity="0.372549"
         fill-rule="evenodd"
         stroke="none"
         id="path4" />
    </g>
  </defs>
</svg>
