<?xml version="1.0" encoding="UTF-8" standalone="no"?>
<svg
   ffdec:objectType="frame"
   height="58.867382"
   width="63.421402"
   version="1.1"
   id="svg4"
   xmlns:xlink="http://www.w3.org/1999/xlink"
   xmlns="http://www.w3.org/2000/svg"
   xmlns:svg="http://www.w3.org/2000/svg"
   xmlns:ffdec="https://www.free-decompiler.com/flash">
  <g
     transform="translate(31.968182,30.348634)"
     id="g1">
    <use
       ffdec:characterId="17"
       height="119.15"
       id="rarity"
       transform="translate(-58.5,-60.65)"
       width="119.15"
       xlink:href="#sprite0" />
    <use
       ffdec:characterId="957"
       height="58.849998"
       transform="translate(-31.95,-30.35)"
       width="63.400002"
       xlink:href="#shape0"
       id="use1" />
  </g>
  <defs
     id="defs4">
    <g
       id="shape0"
       transform="translate(78.75,31.7)">
      <path
         d="m -40.5,-31.6 q 12.4,-0.95 21,7.25 1.25,1.2 2.05,2.75 4.95,9.35 -1.75,17.4 -1.3,1.55 -3.3,2 -1.4,0.3 -2.3,0.85 L -25,-0.6 q 2.6,1.85 3.1,5.65 0.9,7.15 -5.75,10.35 l -0.65,-0.15 -0.7,-0.65 2.45,-4.55 q 0.9,-1.75 1,-3.6 L -25.8,6 l -0.25,-0.6 -0.1,-0.45 -1.55,-1.2 -2.15,1.9 q 0.65,1.6 -0.1,3.95 -0.85,2.6 -2.7,4.2 0.75,1.85 -0.3,4.4 -2.2,5.3 -7.8,4.3 l -0.5,-0.5 -0.6,-0.6 -0.1,-0.2 -0.05,-0.2 -0.1,-0.45 0.1,-0.2 0.15,-0.4 0.35,-0.45 q 1.5,-0.65 3.2,-0.9 0.95,-0.75 1.25,-1.95 l 0.2,-0.8 q -2.3,0.4 -4.3,-0.85 l -0.8,1.85 q -1.55,3.1 -4.95,3.95 -0.25,3.75 -4.5,5.9 -1.5,0.75 -3.2,0.3 -3.05,-0.9 -2.6,-4 l 0.2,-0.2 0.25,-0.25 0.15,-0.15 0.15,-0.05 0.35,-0.05 0.4,0.15 0.3,0.15 0.2,0.25 0.15,0.2 0.45,0.2 0.3,0.15 q 1,0.15 1.75,-0.45 l 0.6,-0.4 0.1,-0.2 0.1,-0.2 0.15,-0.25 0.15,-0.2 0.05,-0.7 q -3.3,-0.75 -4.95,-4.5 l -0.45,-1.2 q -3.05,2.45 -7.45,1.6 -1.75,-0.35 -3,-1.05 l -0.6,0.7 q -1.65,0.9 -3.05,1.25 l 0.5,1.45 3.65,-0.1 0.35,-0.05 0.4,0.2 0.3,0.2 0.15,0.2 0.05,0.2 v 0.2 l -0.05,0.45 q -4.15,5.05 -8.75,0.75 l -1.15,-1.7 q -0.65,-1.6 -0.35,-2.85 -1.25,-1.05 -2.15,-3 -1.5,-3.25 -0.25,-6.55 l 0.3,-1.05 1.1,-2.75 0.45,-0.9 q -0.05,-1.3 0.3,-2.6 -0.05,-6.3 3.45,-11.75 11.3,-17.5 32.1,-19.7 v -0.05 m -25.4,21.7 -0.8,1.2 -2.85,5.45 v 0.85 0.2 q 0,0.8 -0.15,1.5 l -0.35,1.95 -0.15,1.05 0.1,0.45 0.05,0.4 0.1,0.2 0.75,1.1 1.15,0.85 q 0.95,0.05 1.65,0.7 l 0.05,0.05 q -0.7,2.35 0.4,4.45 1.6,3.05 5.15,1.8 4.15,-1.4 5.8,-4.95 l 0.2,-0.45 0.25,0.2 0.25,0.3 0.25,0.05 q 0.3,0.3 0.45,0.7 0.25,0.6 0.35,1.25 l -0.05,0.2 -0.05,0.65 -0.05,0.65 q 0.7,3.05 2.9,5.15 0.9,0.85 2.2,0.5 4.25,-2.5 3.45,-7.8 -0.35,-2.3 1.9,-2.65 2.6,1.3 2.65,4.35 1,0.65 2.15,0.8 l 0.45,0.05 q 0.65,0 1.1,-0.4 l 0.75,-0.5 Q -35,9 -34.45,7.45 L -39.5,7.1 -39.7,6.9 -39.85,6.65 -40,6.45 -40.05,6.25 -40.1,6.05 V 5.9 l 1.65,-0.25 q 3.9,-1.2 6.15,-3.65 l 1.9,-2.1 q 1.65,-2.25 1.7,-5.1 0,-0.95 1,-1.05 3.05,-0.3 5.65,-1.9 l 0.2,-0.2 0.1,-0.2 0.2,-0.45 0.1,-0.2 0.2,-0.4 0.25,-0.45 q 1.55,-6.6 -3.3,-11.35 l -1.45,-1.1 -0.7,-0.35 q -8.5,-3.75 -17.2,-2 l 2.05,0.75 q 3.1,0.35 5.55,2.4 3.25,2.75 3.45,7.35 0,0.5 -0.15,1 l -0.05,0.05 v 0.25 l 0.05,0.2 0.05,0.2 -0.1,0.25 -0.05,0.2 -0.1,0.2 -0.1,0.2 -0.15,0.15 -0.3,0.05 -0.45,-0.1 -0.2,-0.2 -0.6,-1.1 -0.05,-0.3 -0.3,-0.95 -0.85,-2.15 -0.25,-0.45 -0.05,-0.2 -0.05,-0.25 v -0.2 -0.2 l -0.15,-0.25 -0.1,-0.2 -0.1,-0.2 -0.15,-0.2 -0.35,-0.2 -0.9,-0.55 -0.95,-0.35 -0.6,-0.35 q -4.1,-1.4 -8.2,-1.4 l -6.7,0.75 q -6.9,4 -11.4,10.75 m 1.3,9.95 -0.55,-0.55 -0.1,-0.2 q -0.15,-0.6 0.1,-1.1 l 1.5,-1.95 1.95,-1.45 0.4,-0.2 0.6,-0.1 v -0.05 q 4.55,-0.75 7,2.65 l 0.75,1.2 0.35,0.85 v 0.25 0.2 l -0.05,0.4 0.05,0.65 0.05,0.25 -0.05,0.2 -0.05,0.2 v 0.2 l 0.05,0.25 v 0.2 l -0.15,0.45 -0.15,0.15 -0.35,0.1 -0.35,-0.05 -0.3,-0.25 -0.2,-0.2 -0.45,-0.8 -0.4,-1.1 -0.2,-0.25 -0.2,-0.2 -0.6,-0.8 -0.4,-0.35 -1.4,-1 h -2.05 l -0.5,0.35 -0.3,0.15 q -1.1,0.85 -2.3,1.55 l -0.95,0.55 H -64.1 L -64.5,0.1 -64.6,0.05 M -70.85,10.6 -73.25,9 -74.1,8.25 V 8.7 9.1 l -0.25,0.65 -0.2,1.05 0.25,0.9 0.75,1.25 1,0.45 0.3,0.05 2.1,-0.7 -0.7,-2.15"
         fill="#000000"
         fill-rule="evenodd"
         stroke="none"
         id="path1" />
      <path
         d="m -55,7.35 q -5.5,3 -9.35,-2.1 -0.55,-0.75 -0.7,-1.65 l 0.1,-0.5 0.15,-1.25 q -0.1,-0.9 0.15,-1.75 l 0.05,-0.05 0.1,0.05 0.4,0.15 h 0.25 l 0.95,-0.55 q 1.2,-0.7 2.3,-1.55 l 0.3,-0.15 0.5,-0.35 h 2.05 l 1.4,1 0.4,0.35 0.6,0.8 0.2,0.2 0.2,0.25 0.4,1.1 0.45,0.8 0.2,0.2 0.3,0.25 0.35,0.05 0.35,-0.1 0.15,-0.15 0.15,-0.45 V 1.75 L -52.65,1.5 V 1.3 L -52.6,1.1 -52.55,0.9 -52.6,0.65 -52.65,0 -52.6,-0.4 v -0.2 -0.25 l -0.35,-0.85 -0.75,-1.2 q -2.45,-3.4 -7,-2.65 v 0.05 l -0.6,0.1 -0.4,0.2 -1.95,1.45 q -1.1,-1.05 -1.65,-2.6 -0.65,-1.8 -0.6,-3.55 4.5,-6.75 11.4,-10.75 l 6.7,-0.75 q 4.1,0 8.2,1.4 l 0.6,0.35 0.95,0.35 0.9,0.55 0.35,0.2 0.15,0.2 0.1,0.2 0.1,0.2 0.15,0.25 v 0.2 0.2 l 0.05,0.25 0.05,0.2 0.25,0.45 0.85,2.15 0.3,0.95 -1.6,-0.15 q -0.85,8.35 -10.15,11.45 -2.95,0.95 -5.85,1.15 0.75,1.45 0.55,3.75 -0.25,2.65 -2.5,4.05 L -54.55,7.1 -54.8,6.9 -55,7.35 m 22.25,-20.7 q 0.15,-0.5 0.15,-1 -0.2,-4.6 -3.45,-7.35 -2.45,-2.05 -5.55,-2.4 l -2.05,-0.75 q 8.7,-1.75 17.2,2 l 0.7,0.35 0.45,0.45 q 1.45,1.4 0.5,3.3 -2.55,4.9 -7.95,5.4"
         fill="#c9a2a2"
         fill-rule="evenodd"
         stroke="none"
         id="path2" />
      <path
         d="m -55,7.35 q -1.65,3.55 -5.8,4.95 -3.55,1.25 -5.15,-1.8 -1.1,-2.1 -0.4,-4.45 L -66.4,6 q -0.7,-0.65 -1.65,-0.7 l -1.15,-0.85 -0.75,-1.1 -0.1,-0.2 -0.05,-0.4 -0.1,-0.45 0.15,-1.05 0.35,-1.95 q 0.15,-0.7 0.15,-1.5 v -0.2 -0.85 l 2.85,-5.45 0.8,-1.2 q -0.05,1.75 0.6,3.55 0.55,1.55 1.65,2.6 l -1.5,1.95 q -0.25,0.5 -0.1,1.1 l 0.1,0.2 0.55,0.55 -0.05,0.05 q -0.25,0.85 -0.15,1.75 l -0.15,1.25 -0.1,0.5 q 0.15,0.9 0.7,1.65 3.85,5.1 9.35,2.1 m 20.2,-20.65 0.05,0.3 0.6,1.1 0.2,0.2 0.45,0.1 0.3,-0.05 0.15,-0.15 0.1,-0.2 0.1,-0.2 0.05,-0.2 0.1,-0.25 -0.05,-0.2 -0.05,-0.2 v -0.25 l 0.05,-0.05 q 5.4,-0.5 7.95,-5.4 0.95,-1.9 -0.5,-3.3 l -0.45,-0.45 1.45,1.1 q 4.85,4.75 3.3,11.35 l -0.25,0.45 -0.2,0.4 -0.1,0.2 -0.2,0.45 -0.1,0.2 -0.2,0.2 q -2.6,1.6 -5.65,1.9 -1,0.1 -1,1.05 -0.05,2.85 -1.7,5.1 L -32.3,2 q -2.25,2.45 -6.15,3.65 L -40.1,5.9 v 0.15 l 0.05,0.2 0.05,0.2 0.15,0.2 0.15,0.25 0.2,0.2 5.05,0.35 Q -35,9 -35.85,10.4 l -0.75,0.5 q -0.45,0.4 -1.1,0.4 l -0.45,-0.05 q -1.15,-0.15 -2.15,-0.8 -0.05,-3.05 -2.65,-4.35 -2.25,0.35 -1.9,2.65 0.8,5.3 -3.45,7.8 -1.3,0.35 -2.2,-0.5 -2.2,-2.1 -2.9,-5.15 l 0.05,-0.65 0.05,-0.65 0.05,-0.2 q -0.1,-0.65 -0.35,-1.25 -0.15,-0.4 -0.45,-0.7 l -0.25,-0.05 -0.25,-0.3 0.2,-0.15 q 2.25,-1.4 2.5,-4.05 0.2,-2.3 -0.55,-3.75 2.9,-0.2 5.85,-1.15 9.3,-3.1 10.15,-11.45 l 1.6,0.15 m -36.05,23.9 0.7,2.15 -2.1,0.7 -0.3,-0.05 -1,-0.45 -0.75,-1.25 -0.25,-0.9 0.2,-1.05 0.25,-0.65 V 8.7 8.25 l 0.85,0.75 2.4,1.6"
         fill="#a18383"
         fill-rule="evenodd"
         stroke="none"
         id="path3" />
    </g>
    <g
       id="sprite1"
       transform="translate(17.4,15.85)">
      <use
         ffdec:characterId="31"
         height="57.200001"
         transform="matrix(0.5366,0,0,0.5366,-16.6582,-14.546)"
         width="70.75"
         xlink:href="#sprite2"
         id="use3" />
    </g>
    <g
       id="sprite2"
       transform="translate(-8.65,-10.35)">
      <use
         ffdec:characterId="30"
         height="57.200001"
         transform="translate(8.65,10.35)"
         width="70.75"
         xlink:href="#shape1"
         id="use4" />
    </g>
    <g
       id="shape1"
       transform="translate(-8.65,-10.35)">
      <path
         d="m 14.8,41.7 q 0.65,-1.75 2.65,-2.5 1.8,-0.8 3.7,-0.25 1.15,0.45 2.25,1.2 l 0.9,0.4 q 1.65,0.9 2.85,2.5 L 37.8,30.1 q 2.35,-2.8 3.75,-3.95 1.5,-1.15 4.25,-2.4 18.2,-8.85 27.65,-12.6 2.15,-0.8 3.25,-0.8 h 0.8 l 1.9,2.4 -0.2,0.8 q -0.2,1.1 -1.55,3 -5.85,8.25 -18.85,23.8 -1.85,2.35 -3.35,3.5 -1.4,1.15 -4.75,2.75 l -15.15,7.15 q 1.2,1.6 1.75,3.4 l 0.2,1 0.55,2.5 q 0.1,1.95 -1.1,3.55 -1.2,1.65 -3.05,1.9 l -1.3,0.05 q -1.65,0.2 -3.45,-0.65 -1.85,-0.9 -3,-2.6 L 25,60.95 23.8,62.1 q -2.6,2.85 -4.3,3.95 -2.85,1.8 -5.5,1.45 l -1.65,-0.5 -1.2,-0.7 -0.2,-0.2 q -1,-0.85 -1.6,-1.9 L 9.25,64 9.15,63.8 8.75,62.4 q -0.2,-0.8 -0.05,-1.7 0.25,-2.65 2.7,-5.05 1.5,-1.3 4.9,-3.15 L 17.7,51.55 16.05,50 q -1.35,-1.5 -1.8,-3.6 -0.4,-1.85 0.25,-3.45 l 0.3,-1.25"
         fill="#000000"
         fill-opacity="0.372549"
         fill-rule="evenodd"
         stroke="none"
         id="path4" />
    </g>
  </defs>
</svg>
