<?xml version="1.0" encoding="UTF-8" standalone="no"?>
<svg
   ffdec:objectType="frame"
   height="83.902023"
   width="58.968182"
   version="1.1"
   id="svg6"
   xmlns:xlink="http://www.w3.org/1999/xlink"
   xmlns="http://www.w3.org/2000/svg"
   xmlns:svg="http://www.w3.org/2000/svg"
   xmlns:ffdec="https://www.free-decompiler.com/flash">
  <g
     transform="translate(32.718182,44.427778)"
     id="g1">
    <use
       ffdec:characterId="17"
       height="119.15"
       id="rarity"
       transform="translate(-58.5,-60.65)"
       width="119.15"
       xlink:href="#sprite0" />
    <use
       ffdec:characterId="224"
       height="83.900002"
       transform="translate(-32.7,-44.45)"
       width="59"
       xlink:href="#shape0"
       id="use1" />
  </g>
  <defs
     id="defs6">
    <g
       id="shape0"
       transform="translate(32.4,46.95)">
      <path
         d="m -31.9,-12.05 -0.5,-12.35 q -0.1,-1.95 0.35,-2.75 0.7,-1.25 3.05,-2.05 l 4.95,-1.1 0.3,-0.8 q 0.6,-1.05 2.1,-2.25 3.7,-2.8 8.35,-3.3 -0.5,-2.75 0.2,-4.65 0.75,-2.1 2.8,-3.55 1.95,-1.3 4.4,-1.8 5.3,-1 10.05,1.6 2.05,1.1 2.8,2.5 0.95,1.8 0.25,4.6 l 7.05,1.05 q 3.55,0.75 5.3,2.45 1.05,1.05 1.35,2.55 l 1.25,0.3 q 2.1,0.55 2.85,1.45 0.7,0.95 0.8,3.1 0.6,11.35 0.75,25.4 l -0.05,25.4 q 0,1.8 -0.4,2.7 l -1.35,1.5 -1.85,0.95 q -7.25,3.35 -11.25,4.8 -8,3 -14,3.25 -5,0.2 -11.15,-1.25 l -10.85,-3.25 q -2,-0.65 -2.75,-1.4 -1.05,-1 -1.5,-3.1 Q -29,26 -29,23 l -0.1,-4.95 -0.75,-6.65 Q -31.2,1.8 -31.9,-12.05 m 20.05,-19.75 17.1,-1.4 6.45,0.1 -7.05,-0.35 -2.6,-0.25 Q 1.3,-34.1 1,-35 0.7,-35.85 1.05,-36.6 l 0.55,-0.9 0.65,-0.8 q 0.8,-1.1 0.35,-1.9 -0.2,-0.4 -0.9,-0.8 -3.7,-1.9 -7.7,-0.7 -1.5,0.5 -2.25,1.35 l -0.5,1.25 q -0.05,0.7 0.3,1.25 l 0.75,0.7 0.85,0.65 q 0.55,0.55 0.55,1.45 0,0.85 -0.55,1.4 -0.65,0.65 -2.35,1 l -2.75,0.4 -2.7,0.5 -1.25,0.4 4.05,-0.45 m 33,7.1 q 0,-1.15 -0.4,-1.65 -0.45,-0.45 -1.4,-0.6 l -9.2,-0.8 -28,1.8 q -5.7,0.6 -8.7,1.6 -0.55,0.15 -0.7,0.45 l 0.05,0.95 q 0.3,1.05 0.35,2.5 v 2.55 q -0.2,7.75 1.3,21.45 1.65,15.1 1.8,21.45 l 0.2,1.35 0.35,-0.4 0.6,-0.45 5.8,-3.1 1.5,-0.5 0.75,-0.15 h 0.15 v -1.3 q 0.15,-1.7 1.25,-3.35 0.85,-1.25 2.05,-2.2 -3.3,-0.9 -5.7,-3.15 -3.65,-3.3 -4.35,-8.7 -0.6,-4.85 1.55,-9.7 2.25,-5.15 6.5,-8.1 4.8,-3.2 12.5,-3.3 4.85,0 7.9,1.3 2,0.85 3.9,2.45 3.15,2.6 5.15,6.3 2.05,3.65 2.45,7.7 0.5,4.05 -0.6,8.1 -1.1,4.05 -3.55,7.3 -1.7,2.25 -4.6,4.75 L 8.3,21.3 h 4.3 L 18,21.7 Q 19.6,22 22.3,23.35 22.05,0.15 21.15,-24.7 M 6.05,13.6 6.2,14.3 5.65,14.8 3.9,15.05 Q 3,14.9 2.3,14.25 l -0.25,-0.3 -2.2,0.7 -5.85,0.9 q -0.2,0.6 -1.2,1.45 l -2.1,1.95 q -1.05,1.5 -0.4,2.8 0.6,1.1 2.15,1.25 l 2.6,-0.2 0.8,-0.2 2.4,-0.65 Q -0.1,21.55 1.05,21 3.7,19.8 7,16.85 q 5,-4.5 6.65,-8.65 1.15,-3.1 0.9,-6.7 -0.2,-3.35 -1.6,-6.65 -1.2,-2.65 -2.7,-4.2 -2.2,-2.35 -5.75,-3.4 l -3.25,-0.6 q -1.7,-0.2 -3.55,-0.05 -3.6,0.25 -6.55,1.75 -3.3,1.55 -5.1,4.25 -0.9,1.35 -1.5,3.35 L -15.8,-3 q -0.7,2.7 -0.5,5.2 0.2,2.8 1.6,4.75 1.65,2.4 4.9,3.55 2.85,0.95 6.25,0.75 2.7,-0.2 4.95,-1.05 V 10.05 L 1.75,9.35 Q 2.55,8.1 3.55,7.55 4.5,7 6.2,6.95 l 1.5,-1.8 2.35,-3.1 q 0.65,2.1 0,4.4 L 9.4,8.1 9.45,8.2 10.05,8.65 10.4,9.5 v 0.7 L 9.95,10.8 9.15,10.6 8.8,10.4 8.1,9.95 7.25,9.55 6.05,9.45 5.1,9.6 4.4,10.15 3.85,10.8 l -0.2,0.9 0.2,0.35 q 0.55,0.6 1.2,0.9 L 5.9,13.4 6.05,13.6 M 6,-2.45 6.4,-2.1 7.25,-0.9 q 0.45,0.75 0.3,1.45 L 7.5,1.1 7.35,2.15 Q 7.15,3.55 6,4.35 5.6,4.6 4.65,4.85 L 3.2,5.05 1.9,4.8 0.8,4.25 0.55,4.05 0.05,3.55 H 0 l -1.45,0.4 Q -2.4,3.95 -2.6,3.1 V 2.45 L -2.35,1.55 1.35,-2.9 2.4,-4 q 0.75,-0.55 1.45,-0.6 1.1,-0.05 1.7,0.95 l 0.35,1.1 0.1,0.1 m -13.35,8.15 -1,0.7 q -1.1,0.65 -2.4,0.65 -1.35,0 -2.2,-0.7 -1.4,-1.2 -1,-3.55 l 0.05,-0.2 0.3,-0.95 -0.45,-0.4 -0.5,-1.1 0.25,-1.2 q 0.35,-0.55 0.9,-0.75 l 0.3,-0.15 0.15,-0.05 h 0.75 l 0.85,0.3 0.7,0.4 1.8,0.8 2.65,2.1 0.85,0.9 q 0.2,0.45 0.1,1.05 -0.1,0.5 -0.5,0.85 L -6.2,4.7 q -0.25,0.35 -0.65,0.55 l -0.3,0.2 -0.2,0.25 m -14.3,22.25 q 3.45,1.4 9.6,3.1 4.35,1.15 6.7,1.3 4.25,0.3 10.15,-1.2 Q 13.05,29 20.55,25.1 L 17.3,24.3 11.6,23.95 6.2,24.05 4.5,24.25 3.75,24.2 3.3,24.4 0.65,25.35 -0.75,26 -3.2,26.8 -6.9,27.55 -10.6,27.1 q -1.85,-0.8 -2.95,-2.7 l -0.15,-0.3 h -0.15 l -3.45,0.95 q -2.85,0.9 -5.3,2.45 l 0.95,0.45"
         fill="#000000"
         fill-rule="evenodd"
         stroke="none"
         id="path1" />
      <path
         d="m -6.2,-38 q -0.25,-0.5 0,-1.1 0.2,-0.85 0.8,-1.2 l 1,-0.15 q 1.1,0 1.6,0.45 0.55,0.45 0.55,1.15 -0.1,0.7 -0.5,1.25 -0.45,0.55 -1.1,0.7 l -1.2,-0.2 q -0.9,-0.3 -1.15,-0.9 m -18.6,19.3 q -0.25,-0.75 0.05,-1.6 l 1,-1.25 1.5,-0.75 3.25,-1.15 1.2,-0.25 2.65,-0.05 1.65,0.15 q 0.75,0.2 1.3,0.8 0.5,0.65 0.65,1.35 0.15,0.75 -0.15,1.5 -0.3,0.75 -0.85,1.25 -0.75,0.65 -2.7,1.1 l -3.8,0.8 -3.85,-0.25 q -1.5,-0.6 -1.9,-1.65 m 16.3,-3.2 q -0.05,-0.55 0.3,-1.1 0.6,-0.85 1.6,-0.8 1.05,0 1.55,1 0.55,0.9 -0.05,1.8 -0.3,0.5 -0.9,0.75 l -1.15,0.05 Q -7.7,-20.35 -8.1,-20.85 -8.5,-21.3 -8.5,-21.9 M 19.45,19 18.7,19.7 17.55,19.95 16.5,19.25 15.85,18.2 16,17.45 q 0.3,-0.75 0.9,-1 h 1.15 q 0.9,0.15 1.15,0.55 l 0.3,0.75 q 0.2,0.8 -0.05,1.25"
         fill="#ffffff"
         fill-rule="evenodd"
         stroke="none"
         id="path2" />
      <path
         d="m 1.25,-13.35 q 1.45,0.35 2.4,1 2.05,1.35 2.9,4.15 0.75,2.6 0,4.7 L 6,-2.45 5.9,-2.55 5.55,-3.65 q -0.6,-1 -1.7,-0.95 -0.7,0.05 -1.45,0.6 l -1.05,1.1 -3.7,4.45 -0.25,0.9 V 3.1 q 0.2,0.85 1.15,0.85 L 0,3.55 h 0.05 l 0.5,0.5 Q -2.2,5.9 -5.8,5.8 l -1.55,-0.1 0.2,-0.25 0.3,-0.2 q 0.4,-0.2 0.65,-0.55 l 0.45,-0.3 q 0.4,-0.35 0.5,-0.85 0.1,-0.6 -0.1,-1.05 l -0.85,-0.9 -2.65,-2.1 -1.8,-0.8 -0.7,-0.4 -0.85,-0.3 h -0.75 l -0.15,0.05 -0.3,0.15 q -0.55,0.2 -0.9,0.75 l -0.25,1.2 0.5,1.1 0.45,0.4 -0.3,0.95 -0.05,0.2 -1.15,-1.45 q -0.9,-1.5 -0.55,-4.2 l 0.2,-1.2 q 0.6,-2 1.5,-3.35 1.8,-2.7 5.1,-4.25 2.95,-1.5 6.55,-1.75 1.85,-0.15 3.55,0.05 M 8.8,10.4 9,11.35 q -0.05,1.35 -1.8,2 L 6.05,13.6 5.9,13.4 5.05,12.95 Q 4.4,12.65 3.85,12.05 L 3.65,11.7 3.85,10.8 4.4,10.15 5.1,9.6 6.05,9.45 l 1.2,0.1 0.85,0.4 0.7,0.45"
         fill="#ddb4b4"
         fill-rule="evenodd"
         stroke="none"
         id="path3" />
      <path
         d="m 1.25,-13.35 3.25,0.6 q 3.55,1.05 5.75,3.4 1.5,1.55 2.7,4.2 1.4,3.3 1.6,6.65 0.25,3.6 -0.9,6.7 Q 12,12.35 7,16.85 3.7,19.8 1.05,21 q -1.15,0.55 -2.8,0.95 l -2.4,0.65 -0.8,0.2 -2.6,0.2 q -1.55,-0.15 -2.15,-1.25 -0.65,-1.3 0.4,-2.8 L -7.2,17 q 1,-0.85 1.2,-1.45 l 5.85,-0.9 2.2,-0.7 0.25,0.3 Q 3,14.9 3.9,15.05 L 5.65,14.8 6.2,14.3 6.05,13.6 7.2,13.35 q 1.75,-0.65 1.8,-2 l -0.2,-0.95 0.35,0.2 0.8,0.2 0.45,-0.6 V 9.5 L 10.05,8.65 9.45,8.2 9.4,8.1 10.05,6.45 q 0.65,-2.3 0,-4.4 L 7.7,5.15 6.2,6.95 Q 4.5,7 3.55,7.55 q -1,0.55 -1.8,1.8 l -0.35,0.7 v 0.15 q -2.25,0.85 -4.95,1.05 -3.4,0.2 -6.25,-0.75 Q -13.05,9.35 -14.7,6.95 -16.1,5 -16.3,2.2 -16.5,-0.3 -15.8,-3 l 0.35,-1.05 -0.2,1.2 q -0.35,2.7 0.55,4.2 l 1.15,1.45 q -0.4,2.35 1,3.55 0.85,0.7 2.2,0.7 1.3,0 2.4,-0.65 l 1,-0.7 1.55,0.1 Q -2.2,5.9 0.55,4.05 L 0.8,4.25 1.9,4.8 3.2,5.05 4.65,4.85 Q 5.6,4.6 6,4.35 7.15,3.55 7.35,2.15 L 7.5,1.1 7.55,0.55 Q 7.7,-0.15 7.25,-0.9 L 6.4,-2.1 6,-2.45 6.55,-3.5 q 0.75,-2.1 0,-4.7 -0.85,-2.8 -2.9,-4.15 -0.95,-0.65 -2.4,-1"
         fill="#be9797"
         fill-rule="evenodd"
         stroke="none"
         id="path4" />
      <path
         d="M 21.15,-24.7 Q 22.05,0.15 22.3,23.35 19.6,22 18,21.7 L 12.6,21.3 H 8.3 l 1.75,-1.45 q 2.9,-2.5 4.6,-4.75 2.45,-3.25 3.55,-7.3 1.1,-4.05 0.6,-8.1 -0.4,-4.05 -2.45,-7.7 -2,-3.7 -5.15,-6.3 -1.9,-1.6 -3.9,-2.45 -3.05,-1.3 -7.9,-1.3 -7.7,0.1 -12.5,3.3 -4.25,2.95 -6.5,8.1 -2.15,4.85 -1.55,9.7 0.7,5.4 4.35,8.7 2.4,2.25 5.7,3.15 -1.2,0.95 -2.05,2.2 -1.1,1.65 -1.25,3.35 v 1.3 h -0.15 l -0.75,0.15 -1.5,0.5 -5.8,3.1 -0.6,0.45 -0.35,0.4 -0.2,-1.35 q -0.15,-6.35 -1.8,-21.45 -1.5,-13.7 -1.3,-21.45 v -2.55 q -0.05,-1.45 -0.35,-2.5 l -0.05,-0.95 q 0.15,-0.3 0.7,-0.45 3,-1 8.7,-1.6 l 28,-1.8 9.2,0.8 q 0.95,0.15 1.4,0.6 0.4,0.5 0.4,1.65 m -33,-7.1 -4.05,0.45 1.25,-0.4 2.7,-0.5 2.75,-0.4 q 1.7,-0.35 2.35,-1 0.55,-0.55 0.55,-1.4 0,-0.9 -0.55,-1.45 l -0.85,-0.65 -0.75,-0.7 q -0.35,-0.55 -0.3,-1.25 l 0.5,-1.25 q 0.75,-0.85 2.25,-1.35 4,-1.2 7.7,0.7 0.7,0.4 0.9,0.8 0.45,0.8 -0.35,1.9 l -0.65,0.8 -0.55,0.9 Q 0.7,-35.85 1,-35 q 0.3,0.9 1.05,1.3 l 2.6,0.25 7.05,0.35 -6.45,-0.1 -17.1,1.4 m 3.35,9.9 q 0,0.6 0.4,1.05 0.4,0.5 0.95,0.65 L -6,-20.25 q 0.6,-0.25 0.9,-0.75 0.6,-0.9 0.05,-1.8 -0.5,-1 -1.55,-1 -1,-0.05 -1.6,0.8 -0.35,0.55 -0.3,1.1 m -16.3,3.2 q 0.4,1.05 1.9,1.65 l 3.85,0.25 3.8,-0.8 q 1.95,-0.45 2.7,-1.1 0.55,-0.5 0.85,-1.25 0.3,-0.75 0.15,-1.5 -0.15,-0.7 -0.65,-1.35 -0.55,-0.6 -1.3,-0.8 l -1.65,-0.15 -2.65,0.05 -1.2,0.25 -3.25,1.15 -1.5,0.75 -1,1.25 q -0.3,0.85 -0.05,1.6 M -6.2,-38 q 0.25,0.6 1.15,0.9 l 1.2,0.2 q 0.65,-0.15 1.1,-0.7 0.4,-0.55 0.5,-1.25 0,-0.7 -0.55,-1.15 -0.5,-0.45 -1.6,-0.45 l -1,0.15 q -0.6,0.35 -0.8,1.2 -0.25,0.6 0,1.1 M -21.65,27.95 -22.6,27.5 q 2.45,-1.55 5.3,-2.45 l 3.45,-0.95 h 0.15 l 0.15,0.3 q 1.1,1.9 2.95,2.7 l 3.7,0.45 3.7,-0.75 2.45,-0.8 1.4,-0.65 2.65,-0.95 0.45,-0.2 0.75,0.05 1.7,-0.2 5.4,-0.1 5.7,0.35 3.25,0.8 q -7.5,3.9 -15.75,6.05 -5.9,1.5 -10.15,1.2 -2.35,-0.15 -6.7,-1.3 -6.15,-1.7 -9.6,-3.1 M 19.45,19 Q 19.7,18.55 19.5,17.75 L 19.2,17 Q 18.95,16.6 18.05,16.45 H 16.9 q -0.6,0.25 -0.9,1 l -0.15,0.75 0.65,1.05 1.05,0.7 1.15,-0.25 0.75,-0.7"
         fill="#ffffff"
         fill-opacity="0"
         fill-rule="evenodd"
         stroke="none"
         id="path5" />
    </g>
    <g
       id="sprite1"
       transform="translate(17.4,15.85)">
      <use
         ffdec:characterId="31"
         height="57.200001"
         transform="matrix(0.5366,0,0,0.5366,-16.6582,-14.546)"
         width="70.75"
         xlink:href="#sprite2"
         id="use5" />
    </g>
    <g
       id="sprite2"
       transform="translate(-8.65,-10.35)">
      <use
         ffdec:characterId="30"
         height="57.200001"
         transform="translate(8.65,10.35)"
         width="70.75"
         xlink:href="#shape1"
         id="use6" />
    </g>
    <g
       id="shape1"
       transform="translate(-8.65,-10.35)">
      <path
         d="m 14.8,41.7 q 0.65,-1.75 2.65,-2.5 1.8,-0.8 3.7,-0.25 1.15,0.45 2.25,1.2 l 0.9,0.4 q 1.65,0.9 2.85,2.5 L 37.8,30.1 q 2.35,-2.8 3.75,-3.95 1.5,-1.15 4.25,-2.4 18.2,-8.85 27.65,-12.6 2.15,-0.8 3.25,-0.8 h 0.8 l 1.9,2.4 -0.2,0.8 q -0.2,1.1 -1.55,3 -5.85,8.25 -18.85,23.8 -1.85,2.35 -3.35,3.5 -1.4,1.15 -4.75,2.75 l -15.15,7.15 q 1.2,1.6 1.75,3.4 l 0.2,1 0.55,2.5 q 0.1,1.95 -1.1,3.55 -1.2,1.65 -3.05,1.9 l -1.3,0.05 q -1.65,0.2 -3.45,-0.65 -1.85,-0.9 -3,-2.6 L 25,60.95 23.8,62.1 q -2.6,2.85 -4.3,3.95 -2.85,1.8 -5.5,1.45 l -1.65,-0.5 -1.2,-0.7 -0.2,-0.2 q -1,-0.85 -1.6,-1.9 L 9.25,64 9.15,63.8 8.75,62.4 q -0.2,-0.8 -0.05,-1.7 0.25,-2.65 2.7,-5.05 1.5,-1.3 4.9,-3.15 L 17.7,51.55 16.05,50 q -1.35,-1.5 -1.8,-3.6 -0.4,-1.85 0.25,-3.45 l 0.3,-1.25"
         fill="#000000"
         fill-opacity="0.372549"
         fill-rule="evenodd"
         stroke="none"
         id="path6" />
    </g>
  </defs>
</svg>
