<?xml version="1.0" encoding="UTF-8" standalone="no"?>
<svg
   ffdec:objectType="frame"
   height="82.398529"
   width="82.389549"
   version="1.1"
   id="svg5"
   xmlns:xlink="http://www.w3.org/1999/xlink"
   xmlns="http://www.w3.org/2000/svg"
   xmlns:svg="http://www.w3.org/2000/svg"
   xmlns:ffdec="https://www.free-decompiler.com/flash">
  <g
     transform="translate(41.8625,36.963235)"
     id="g1">
    <use
       ffdec:characterId="17"
       height="119.15"
       id="rarity"
       transform="translate(-58.5,-60.65)"
       width="119.15"
       xlink:href="#sprite0" />
    <use
       ffdec:characterId="396"
       height="82.400002"
       transform="translate(-41.85,-36.95)"
       width="82.400002"
       xlink:href="#shape0"
       id="use1" />
  </g>
  <defs
     id="defs5">
    <g
       id="shape0"
       transform="translate(41.55,39.45)">
      <path
         d="m -8.45,-3.45 0.7,-1 q 0.25,-0.65 0.15,-2 l -0.7,-9.25 q -0.1,-1 -0.4,-1.3 -0.4,-0.4 -1.5,-0.6 -2.4,-0.45 -4.05,-2.55 -1.65,-2.1 -1.5,-4.55 0.15,-3.2 2.85,-5.65 1.35,-1.25 3.4,-2.2 -0.35,-1.35 -0.3,-2.25 0.1,-1.4 0.9,-2.2 0.6,-0.5 2.25,-1.05 5.75,-1.55 9.05,-1.4 L 4.9,-39 q 1.35,0.5 1.95,1.6 0.7,1.2 0.35,3.6 2.55,0.75 4.35,2.15 1.65,1.3 2.65,3.05 1.05,1.9 1.05,3.85 0,3.35 -2.6,5.7 -1.2,1.1 -1.35,1.6 -0.15,0.5 -0.05,1.45 l 0.55,5.1 0.8,7.5 7.3,1.7 0.7,0.25 q 7.15,2.55 12.2,8.2 l 4.5,6 1.95,3 q 0.95,1.75 1.3,3.3 1.3,5.5 -3.5,11.6 -2,2.6 -4.2,4 -1.7,1.1 -5.05,2.25 -7.05,2.45 -14.05,3.85 Q 4.7,42.6 -4,42.9 -14.9,43.2 -26.25,40.95 -30.15,40.2 -32,38.7 q -2.7,-2.3 -2.9,-6.6 -0.3,-5.2 3.15,-10.5 2,-3.15 7.2,-8.55 l 5.05,-5.15 10.9,-11.25 0.15,-0.1 m 14.3,-17.9 1.75,-1.35 q 1.3,-0.85 1.5,-1.7 0.2,-0.9 -0.5,-1.75 l -1.55,-1.2 q -3,-1.5 -7.55,-1.15 -5.6,0.45 -8.45,3.15 -0.5,0.5 -0.45,0.85 0,0.5 0.75,0.7 l 1.9,0.35 1.9,0.4 q 1.35,0.55 2,2.05 l 0.15,0.45 q 0.3,0.8 0.5,2.2 l 0.1,1.2 0.15,1.8 0.2,2.6 0.35,5.05 0.15,2.05 0.05,1.8 q -0.05,1.2 -0.35,2 l -0.05,0.1 q -0.5,1.2 -2.2,2.8 l -0.1,0.05 -5.4,5.2 -4.95,5.1 -9.2,10.15 -3.25,4.3 q -1.55,2.5 -1.75,4.9 -0.1,1.9 0.75,2.75 0.6,0.65 2.2,1.05 12.45,2.85 26,1.85 12.15,-0.9 25.3,-5.25 2.75,-0.85 4.15,-1.9 1.6,-1.15 3.3,-3.9 1.75,-2.7 1.6,-4.4 -0.05,-1.05 -0.75,-2.2 l -1.4,-2 Q 29.9,12.55 28.25,10.65 25.15,7.15 20.55,5.2 16.2,3.35 11.25,3.05 9.1,2.95 8.3,2.3 L 7.75,1.75 7.4,0.95 7.2,0 7.25,-2.85 V -3.1 L 7.1,-5.5 6.85,-7.6 6.75,-8.35 5.3,-17.6 5.25,-18.25 Q 5.1,-20.3 5.7,-21.15 l 0.15,-0.2"
         fill="#000000"
         fill-rule="evenodd"
         stroke="none"
         id="path1" />
      <path
         d="m -8.9,9.45 q 1.2,-0.9 2.25,-1.2 l 0.2,-0.1 1.95,-0.35 q 2.65,0 3.55,1.7 l 0.15,0.25 0.25,1.35 q 0.1,0.85 -0.05,1.55 l -0.65,1.45 -2.15,3.25 q -1.7,2.15 -3.5,3.2 -2.25,1.4 -4.5,1.2 -1.35,-0.05 -2.2,-0.6 l -1.1,-1.25 q -0.55,-1.1 -0.05,-3.55 l 0.15,-0.55 0.5,-1.15 1.8,-2.35 1.25,-1.25 0.4,-0.3 0.65,-0.5 1.1,-0.8 m -10.65,18.4 -0.85,-0.9 q -0.4,-0.75 -0.4,-1.75 0.1,-1.3 1.05,-2.35 1.35,-1.6 3.15,-1.2 0.9,0.25 1.45,0.8 l 0.15,0.2 q 0.55,0.7 0.65,1.65 0.2,1.15 -0.4,2.25 -0.55,1.1 -1.6,1.6 l -0.15,0.1 -2.1,0.05 -0.4,-0.15 -0.55,-0.3"
         fill="#ffffff"
         fill-rule="evenodd"
         stroke="none"
         id="path2" />
      <path
         d="m 7.1,-5.5 0.15,2.4 v 0.25 L 7.2,0 7.4,0.95 7.75,1.75 6.2,2.2 4.3,2.05 2.9,1.7 2.75,1.65 Q 1.95,1.3 1.35,0.6 0.65,-0.2 0.55,-1.1 L 0.5,-1.8 0.55,-2 Q 0.65,-3.5 1.6,-4.5 L 2.55,-5.3 3.4,-5.7 4.7,-5.95 7.1,-5.5 m -8.5,-2.2 -0.35,-5.05 0.75,-0.4 q 0.85,-0.25 1.7,0 l 1.45,1 q 0.55,0.7 0.6,1.6 0.1,0.85 -0.4,1.65 l -0.1,0.2 -1.15,1 -1.25,0.3 -0.7,-0.1 -0.55,-0.2 M -1.1,-21 q 0.1,-0.65 0.65,-1.1 0.5,-0.5 1.15,-0.55 l 1.15,0.25 q 1,0.6 1,1.8 -0.1,1.25 -1.2,1.7 -1.15,0.5 -2.05,-0.3 -0.85,-0.7 -0.7,-1.8 M 14.65,7.5 20.7,7.9 q 3.4,1.05 6.15,4.3 2.05,2.4 4,6.5 1.75,3.75 0.95,5.75 -0.65,1.45 -2.55,2.65 -2.35,1.45 -7.4,2.85 l -7.4,1.95 Q 0.4,35.2 -17.35,34.55 L -23,33.9 q -2.15,-0.55 -3,-1.8 -1.05,-1.45 -0.4,-4 0.65,-2.6 2.75,-5.25 l 4.2,-4.4 L -7.3,6.9 Q -5.3,5 -4.1,4.35 -3.3,3.9 -2.45,3.6 L 2.3,3.35 2.85,3.5 Q 4.8,4.1 6.75,5.6 L 8.2,6.75 9.85,7.6 12.2,7.85 14.65,7.5 M -19,28.15 l 0.4,0.15 2.1,-0.05 0.15,-0.1 q 1.05,-0.5 1.6,-1.6 0.6,-1.1 0.4,-2.25 -0.1,-0.95 -0.65,-1.65 l -0.15,-0.2 q -0.55,-0.55 -1.45,-0.8 -1.8,-0.4 -3.15,1.2 -0.95,1.05 -1.05,2.35 0,1 0.4,1.75 l 0.85,0.9 -0.2,0.25 0.75,0.05 m 10.1,-18.7 -1.1,0.8 -0.65,0.5 -0.4,0.3 -1.25,1.25 -1.8,2.35 -0.5,1.15 -0.15,0.55 q -0.5,2.45 0.05,3.55 l 1.1,1.25 q 0.85,0.55 2.2,0.6 2.25,0.2 4.5,-1.2 1.8,-1.05 3.5,-3.2 l 2.15,-3.25 0.65,-1.45 q 0.15,-0.7 0.05,-1.55 L -0.8,9.75 -0.95,9.5 Q -1.85,7.8 -4.5,7.8 l -1.95,0.35 -0.2,0.1 q -1.05,0.3 -2.25,1.2"
         fill="#663366"
         fill-rule="evenodd"
         stroke="none"
         id="path3" />
      <path
         d="m 31.5,-29.6 q 0.4,-0.85 1.15,-1.25 l 1.2,-0.2 q 1.35,0.1 2,1.3 0.65,1.15 -0.1,2.35 -0.5,0.75 -1.4,1 l -1.75,-0.15 q -0.8,-0.4 -1.1,-1.3 -0.35,-0.9 0,-1.75 m -19.7,18.7 1,-0.1 1.95,0.25 2.05,0.75 q 1.5,0.95 2.8,3.5 l 0.55,1.25 q 0.45,1.4 -0.05,2.95 l -0.2,0.6 -7.3,-1.7 -0.8,-7.5 M -19.5,7.9 -19.7,7.5 q -0.6,-1.55 -0.5,-3.25 0.2,-3.1 2.7,-5.95 1.8,-2.1 3.75,-2.6 l 2.35,-0.1 q 1.75,0.15 2.95,0.95 L -8.6,-3.35 -19.5,7.9 M -2.85,-21 v -0.1 q 0.2,-0.9 1.1,-2.15 l 0.8,-1 Q -0.05,-25 1.6,-25 l 1.45,0.2 1.35,1 1.25,1.85 0.2,0.6 -0.15,0.2 q -0.6,0.85 -0.45,2.9 l -0.05,0.05 -0.75,0.65 -1.1,0.6 -2.6,0.05 -1.75,-0.5 -1.2,-0.95 q -0.2,-1.4 -0.5,-2.2 L -2.85,-21 M 6.75,-8.35 6.85,-7.6 7.1,-5.5 4.7,-5.95 3.4,-5.7 2.55,-5.3 1.6,-4.5 q -0.95,1 -1.05,2.5 l -0.05,0.2 0.05,0.7 q 0.1,0.9 0.8,1.7 0.6,0.7 1.4,1.05 L 2.9,1.7 4.3,2.05 6.2,2.2 7.75,1.75 8.3,2.3 q 0.8,0.65 2.95,0.75 4.95,0.3 9.3,2.15 4.6,1.95 7.7,5.45 1.65,1.9 4.45,6.1 l 1.4,2 q 0.7,1.15 0.75,2.2 0.15,1.7 -1.6,4.4 -1.7,2.75 -3.3,3.9 -1.4,1.05 -4.15,1.9 -13.15,4.35 -25.3,5.25 -13.55,1 -26,-1.85 -1.6,-0.4 -2.2,-1.05 -0.85,-0.85 -0.75,-2.75 0.2,-2.4 1.75,-4.9 l 3.25,-4.3 9.2,-10.15 4.95,-5.1 5.4,-5.2 0.1,-0.05 q 1.7,-1.6 2.2,-2.8 l 0.05,-0.1 q 0.3,-0.8 0.35,-2 l -0.05,-1.8 -0.15,-2.05 0.55,0.2 0.7,0.1 1.25,-0.3 1.15,-1 0.1,-0.2 q 0.5,-0.8 0.4,-1.65 -0.05,-0.9 -0.6,-1.6 l -1.45,-1 q -0.85,-0.25 -1.7,0 l -0.75,0.4 -0.2,-2.6 1.55,-0.1 2.2,0.25 q 2.25,0.65 3.3,3.4 l 0.35,1.4 -0.1,1.6 1.05,0.3 0.35,0.15 m 11.3,-5.95 q -0.95,-0.3 -1.4,-1.25 -0.55,-0.95 -0.25,-2 0.3,-1 1.25,-1.55 l 1.45,-0.2 q 0.8,0.1 1.35,0.65 0.55,0.5 0.7,1.3 0.15,0.75 -0.1,1.5 -0.3,0.85 -1.2,1.35 l -1.8,0.2 M -1.1,-21 q -0.15,1.1 0.7,1.8 0.9,0.8 2.05,0.3 1.1,-0.45 1.2,-1.7 0,-1.2 -1,-1.8 L 0.7,-22.65 Q 0.05,-22.6 -0.45,-22.1 -1,-21.65 -1.1,-21 m 29.8,10.35 q 1.1,1.55 0.45,3.25 -0.4,1 -1.35,1.55 -1.15,0.75 -2.4,0.5 -1.05,-0.2 -1.8,-1 -0.8,-0.85 -0.9,-1.95 -0.1,-1.1 0.5,-2.05 0.6,-0.95 1.6,-1.35 l 2.1,-0.1 q 1.1,0.3 1.8,1.15 M 14.65,7.5 12.2,7.85 9.85,7.6 8.2,6.75 6.75,5.6 Q 4.8,4.1 2.85,3.5 L 2.3,3.35 -2.45,3.6 Q -3.3,3.9 -4.1,4.35 -5.3,5 -7.3,6.9 l -12.15,11.55 -4.2,4.4 q -2.1,2.65 -2.75,5.25 -0.65,2.55 0.4,4 0.85,1.25 3,1.8 l 5.65,0.65 Q 0.4,35.2 14.45,31.9 l 7.4,-1.95 q 5.05,-1.4 7.4,-2.85 1.9,-1.2 2.55,-2.65 0.8,-2 -0.95,-5.75 -1.95,-4.1 -4,-6.5 Q 24.1,8.95 20.7,7.9 L 14.65,7.5 M -17.4,-31.3 q 0.05,0.85 -0.6,1.6 -0.65,0.7 -1.5,0.8 -0.7,0.05 -1.3,-0.3 l -0.95,-0.95 q -0.7,-1.4 0.3,-2.55 1,-1.15 2.5,-0.65 0.65,0.2 1.1,0.8 0.4,0.55 0.45,1.25 M -27.9,2.8 V 1.25 q 0.25,-1 0.85,-1.6 0.65,-0.65 1.55,-0.9 l 1.75,-0.05 q 1.9,0.5 2.45,2.35 0.55,1.8 -0.65,3.35 -0.7,0.85 -1.85,1.1 L -26,5.35 q -1.55,-0.8 -1.9,-2.55 m 7.9,-13.75 0.15,-1.05 q 0.5,-1.4 1.9,-1.75 1,-0.25 1.95,0.3 0.95,0.5 1.35,1.45 0.65,1.55 -0.4,2.95 -0.45,0.6 -1.2,0.9 L -17.8,-8 q -0.8,-0.15 -1.35,-0.7 -0.6,-0.6 -0.8,-1.35 l -0.05,-0.9 m -18.2,21.4 q 1.55,0.5 1.7,2.15 0.1,0.7 -0.3,1.35 -0.35,0.65 -1,1 -1.4,0.8 -2.75,-0.2 -0.8,-0.55 -0.95,-1.5 -0.25,-1.05 0.5,-1.95 0.5,-0.55 1.2,-0.8 l 1.6,-0.05"
         fill="#9a609a"
         fill-rule="evenodd"
         stroke="none"
         id="path4" />
    </g>
    <g
       id="sprite1"
       transform="translate(17.4,15.85)">
      <use
         ffdec:characterId="31"
         height="57.200001"
         transform="matrix(0.5366,0,0,0.5366,-16.6582,-14.546)"
         width="70.75"
         xlink:href="#sprite2"
         id="use4" />
    </g>
    <g
       id="sprite2"
       transform="translate(-8.65,-10.35)">
      <use
         ffdec:characterId="30"
         height="57.200001"
         transform="translate(8.65,10.35)"
         width="70.75"
         xlink:href="#shape1"
         id="use5" />
    </g>
    <g
       id="shape1"
       transform="translate(-8.65,-10.35)">
      <path
         d="m 14.8,41.7 q 0.65,-1.75 2.65,-2.5 1.8,-0.8 3.7,-0.25 1.15,0.45 2.25,1.2 l 0.9,0.4 q 1.65,0.9 2.85,2.5 L 37.8,30.1 q 2.35,-2.8 3.75,-3.95 1.5,-1.15 4.25,-2.4 18.2,-8.85 27.65,-12.6 2.15,-0.8 3.25,-0.8 h 0.8 l 1.9,2.4 -0.2,0.8 q -0.2,1.1 -1.55,3 -5.85,8.25 -18.85,23.8 -1.85,2.35 -3.35,3.5 -1.4,1.15 -4.75,2.75 l -15.15,7.15 q 1.2,1.6 1.75,3.4 l 0.2,1 0.55,2.5 q 0.1,1.95 -1.1,3.55 -1.2,1.65 -3.05,1.9 l -1.3,0.05 q -1.65,0.2 -3.45,-0.65 -1.85,-0.9 -3,-2.6 L 25,60.95 23.8,62.1 q -2.6,2.85 -4.3,3.95 -2.85,1.8 -5.5,1.45 l -1.65,-0.5 -1.2,-0.7 -0.2,-0.2 q -1,-0.85 -1.6,-1.9 L 9.25,64 9.15,63.8 8.75,62.4 q -0.2,-0.8 -0.05,-1.7 0.25,-2.65 2.7,-5.05 1.5,-1.3 4.9,-3.15 L 17.7,51.55 16.05,50 q -1.35,-1.5 -1.8,-3.6 -0.4,-1.85 0.25,-3.45 l 0.3,-1.25"
         fill="#000000"
         fill-opacity="0.372549"
         fill-rule="evenodd"
         stroke="none"
         id="path5" />
    </g>
  </defs>
</svg>
