<?xml version="1.0" encoding="UTF-8" standalone="no"?>
<svg
   ffdec:objectType="frame"
   height="75.700653"
   width="85.827751"
   version="1.1"
   id="svg5"
   xmlns:xlink="http://www.w3.org/1999/xlink"
   xmlns="http://www.w3.org/2000/svg"
   xmlns:svg="http://www.w3.org/2000/svg"
   xmlns:ffdec="https://www.free-decompiler.com/flash">
  <g
     transform="translate(43.303125,35.425)"
     id="g1">
    <use
       ffdec:characterId="17"
       height="119.15"
       id="rarity"
       transform="translate(-58.5,-60.65)"
       width="119.15"
       xlink:href="#sprite0" />
    <use
       ffdec:characterId="1295"
       height="75.699997"
       transform="translate(-43.3,-35.4)"
       width="85.800003"
       xlink:href="#shape0"
       id="use1" />
  </g>
  <defs
     id="defs5">
    <g
       id="shape0"
       transform="translate(42,33.5)">
      <path
         d="m 3.15,19.25 q -0.75,11.3 -11.3,16.7 -2.8,1.4 -5.3,3.1 -4.6,3 -10.2,2.75 -5.7,-0.25 -9.95,-3.8 0.15,4.9 -5.05,4.05 -3.3,-0.55 -3.2,-3.95 0,-3.6 3.45,-4.7 h 1.35 l -0.1,-0.2 -0.5,-0.85 -0.4,-0.9 -0.25,-0.45 -0.05,-0.15 q -2.15,-3.7 -2.65,-8.1 -0.55,-5.95 0.7,-11.6 0.6,-3.3 1.9,-6.45 2.85,-7.1 8.95,-11.6 l 0.1,-0.1 1.35,-1.5 15.2,-11.6 -0.2,-0.25 q -3.2,-3.8 -6.85,-7.15 -1.75,-0.05 -3.4,1 l -0.6,0.4 0.1,1.85 q 0,2.3 -0.8,3.9 -0.45,0.95 -1.4,1.95 -1.9,2 -4.05,2.9 -2.35,0.9 -4.5,0.5 l -1.9,-0.15 q -2.4,-0.6 -3.95,-2.8 -0.85,-1.05 -1.15,-2.4 l -0.1,-0.8 -0.15,-0.4 q -0.45,-1.45 -0.1,-3.55 l 0.75,-2.65 q 0.65,-1.4 2.1,-2.95 l 1.8,-1.6 q 2.65,-1.75 6.2,-1 2.4,0.5 4.25,2.2 l 1.3,-0.65 2.8,-1.4 q 6.4,-1.05 9.95,4.4 l 3.95,5.85 q 3.75,-2.4 7.85,-4.3 l 0.4,-0.3 q 5.05,-3.9 11.2,-5.05 l 1.35,-0.3 q 9.75,-2 18.15,2.8 2.7,1.45 4.95,3.6 l 1.25,-0.85 q -0.55,-2.6 2.2,-3.95 4.5,-1 5.15,3.25 0.5,3 -2.35,3.95 l -1.35,0.3 q -0.4,0.45 -1.1,0.7 l -0.55,0.25 1.85,2.9 q 1.15,2.5 1.8,5.1 0.4,1.65 0.1,3.25 0.6,4.65 -1.4,9.05 -2.8,6.25 -8.5,10.25 -5.85,4.05 -12.75,4.2 L 14.65,11.6 12.5,10.95 Q 10.05,10.05 8.3,8.3 5.45,10.7 2.2,12.15 3.45,15.5 3.15,19.25 M -38.3,-21.2 q -0.15,0.7 0.15,1.45 0.3,0.7 0.95,1.05 0.65,0.4 1.45,0.25 0.75,-0.15 1.25,-0.7 0.5,-0.5 0.6,-1.3 0.05,-0.8 -0.35,-1.4 -0.4,-0.65 -1.15,-0.9 -0.75,-0.25 -1.45,0 -0.5,0.15 -0.9,0.6 l -0.55,0.95 m 3.45,-6.6 q 0.4,1.25 1.65,1.5 1.25,0.25 2.1,-0.7 0.9,-0.95 0.45,-2.2 -0.5,-1.4 -2,-1.5 l -1.25,0.35 -0.85,0.95 q -0.4,0.8 -0.1,1.6 m 26.9,31.9 q -3.75,-4.4 -9.2,-6.6 -3.2,-1.25 -6.55,-0.65 l -1.35,0.4 Q -30.8,0.85 -32.9,7.5 l -1.3,3.9 v 0.75 l -0.3,1.2 -0.1,0.5 -0.1,0.2 -0.2,0.9 q -1.3,6.65 1.5,12.9 l 0.45,0.95 1.6,-2.1 1.4,-1.7 q 0.6,-0.75 1.4,-0.9 4.2,0.35 2.65,4.15 -0.6,1.4 -1.85,2.35 l -1.95,1.7 -0.4,0.45 1.35,1.35 q 2.85,2.35 6.45,2.2 3.2,-0.15 6.25,-1.3 l 1.6,-0.65 q 7.8,-3.4 11.6,-11 1.25,-3.85 0.3,-7.75 -0.8,-3.5 -2.35,-6.75 L -6,6.9 -6.25,6.15 Q -6.8,5.2 -7.45,4.7 L -7.95,4.1 M -19.4,-9.15 -19.65,-9 l 0.25,0.05 q 5.55,0.6 10.3,4.4 l 2.35,2 2.3,2.45 0.85,-0.85 Q 3.25,-7.5 11.25,-12.55 L 12.15,-13.4 11.6,-14.25 10.55,-15.3 10,-16.05 9.7,-16.3 9.4,-16.5 9.2,-16.7 9,-16.95 8.9,-17.1 q -1.7,-1.65 -3.8,-2.75 -2.2,-1.2 -4.55,-1.9 -10.35,5.45 -19.95,12.6 m 42.05,-17.65 -5.35,-0.6 -5.45,0.75 -4.5,1 2.85,1.7 2.65,2.2 q 3.1,2.9 4.9,6.85 l 0.05,0.1 q 3.05,1.1 5.25,4.05 l 2.5,4.05 q 2.95,5.8 0.8,11.25 5.65,-2.7 8.9,-8.8 1.5,-2.85 1.55,-6.1 l -0.15,-1.85 v -0.35 q -0.85,-4.7 -4.05,-8.15 -3.1,-3.35 -6.85,-5.05 l -3.1,-1.05 M -1.1,4.55 q 0.85,1.3 1.45,2.7 L 3.4,4.95 Q 5.2,3.5 7.35,2.5 9.65,1.4 11.2,3.2 14.1,6.5 18.4,6.4 L 18.85,6.35 19.7,6.25 Q 20.1,5.5 20.9,4.85 L 21.5,3.8 Q 22.4,0.35 21.3,-3.15 L 21,-3.6 20.8,-4.1 20.65,-4.4 Q 19.4,-6.4 17.8,-7.9 L 16.05,-9.55 15.4,-9 q -3.2,2.8 -6.7,5.05 l -4.25,3.35 -5.6,5 0.05,0.15"
         fill="#000000"
         fill-rule="evenodd"
         stroke="none"
         id="path1" />
      <path
         d="m -34.6,13.85 q 2.85,-2.7 7.6,-3.05 8.8,-0.35 13,7.15 l 0.5,0.95 Q -10.4,17.15 -8.45,14 -6.4,10.8 -7.1,7.2 -7.4,5.6 -7.95,4.1 l 0.5,0.6 q 0.65,0.5 1.2,1.45 L -6,6.9 -4.9,8.85 q 1.55,3.25 2.35,6.75 0.95,3.9 -0.3,7.75 -3.8,7.6 -11.6,11 l -1.6,0.65 q -3.05,1.15 -6.25,1.3 -3.6,0.15 -6.45,-2.2 l -1.35,-1.35 0.4,-0.45 1.95,-1.7 q 1.25,-0.95 1.85,-2.35 1.55,-3.8 -2.65,-4.15 -0.8,0.15 -1.4,0.9 l -1.4,1.7 -1.6,2.1 -0.45,-0.95 q -2.8,-6.25 -1.5,-12.9 l 0.2,-0.9 0.1,-0.2 m 27.85,-16.4 0.85,-0.3 q 6.3,-2.55 11.5,-7.2 3.05,-2.75 3.6,-6.65 l 0.2,0.2 0.3,0.2 0.3,0.25 0.55,0.75 1.05,1.05 0.55,0.85 -0.9,0.85 q -8,5.05 -14.85,11.6 l -0.85,0.85 -2.3,-2.45 m 24.5,-12.35 q 3.35,1 7.2,0.1 1.3,-0.3 2,-1.4 l 0.45,-0.65 -1.15,-1.55 q -1.5,-2.2 -2.55,-4.75 v -0.05 l -0.05,-0.15 v -0.15 l -0.2,-0.3 -0.15,-0.5 -0.05,-0.65 -0.05,-0.1 q -0.6,-0.85 -0.55,-1.75 l 3.1,1.05 q 3.75,1.7 6.85,5.05 3.2,3.45 4.05,8.15 v 0.35 l 0.15,1.85 q -0.05,3.25 -1.55,6.1 -3.25,6.1 -8.9,8.8 2.15,-5.45 -0.8,-11.25 l -2.5,-4.05 q -2.2,-2.95 -5.25,-4.05 l -0.05,-0.1 M -1.1,4.55 -1.15,4.4 4.45,-0.6 8.7,-3.95 Q 12.2,-6.2 15.4,-9 l 0.65,-0.55 1.75,1.65 q 1.6,1.5 2.85,3.5 l 0.15,0.3 0.2,0.5 0.3,0.45 q 1.1,3.5 0.2,6.95 L 20.9,4.85 Q 20.1,5.5 19.7,6.25 L 18.85,6.35 18.4,6.4 Q 14.1,6.5 11.2,3.2 9.65,1.4 7.35,2.5 5.2,3.5 3.4,4.95 l -3.05,2.3 q -0.6,-1.4 -1.45,-2.7"
         fill="#090909"
         fill-rule="evenodd"
         stroke="none"
         id="path2" />
      <path
         d="m -34.6,13.85 0.1,-0.5 0.3,-1.2 V 11.4 l 1.3,-3.9 q 2.1,-6.65 7.85,-10.25 l 1.35,-0.4 q 3.35,-0.6 6.55,0.65 5.45,2.2 9.2,6.6 0.55,1.5 0.85,3.1 0.7,3.6 -1.35,6.8 -1.95,3.15 -5.05,4.9 L -14,17.95 q -4.2,-7.5 -13,-7.15 -4.75,0.35 -7.6,3.05 M 3.75,-17.5 3.7,-18.6 2.95,-19.65 1.75,-20.15 Q 1,-20.2 0.35,-19.7 q -0.65,0.5 -0.85,1.2 -0.2,0.75 0.1,1.45 0.35,0.75 1,1.1 0.7,0.4 1.45,0.25 0.8,-0.15 1.3,-0.8 l 0.4,-1 m -23.15,8.55 v -0.2 q 9.6,-7.15 19.95,-12.6 2.35,0.7 4.55,1.9 2.1,1.1 3.8,2.75 l 0.1,0.15 0.2,0.25 q -0.55,3.9 -3.6,6.65 -5.2,4.65 -11.5,7.2 l -0.85,0.3 -2.35,-2 q -4.75,-3.8 -10.3,-4.4 m 26.6,-4.6 q 0.3,-0.65 0.1,-1.1 L 6.65,-15.2 q -0.95,-0.6 -1.8,-0.55 -0.7,0.05 -1.9,0.85 l -6.2,4.5 -1.9,1.4 -1.65,0.9 -0.65,1.15 q -0.2,0.75 0.05,1.35 0.25,0.65 0.85,1.05 0.6,0.4 1.25,0.35 0.55,-0.05 1.85,-0.8 l 3.75,-2.7 3.7,-2.7 2.45,-1.95 0.75,-1.2 m -19.95,3.65 q 0.1,0.8 0.65,1.4 l 1.25,0.8 1.55,-0.05 q 0.75,-0.3 1.2,-0.9 0.45,-0.65 0.5,-1.45 0,-0.85 -0.4,-1.5 -0.45,-0.65 -1.2,-0.95 l -1.5,-0.15 q -0.95,0.2 -1.55,1.05 -0.55,0.8 -0.5,1.75 m 35.4,-16.9 q -0.05,0.9 0.55,1.75 l 0.05,0.1 0.05,0.65 0.15,0.5 0.2,0.3 v 0.15 l 0.05,0.15 v 0.05 q 1.05,2.55 2.55,4.75 l 1.15,1.55 -0.45,0.65 q -0.7,1.1 -2,1.4 -3.85,0.9 -7.2,-0.1 -1.8,-3.95 -4.9,-6.85 l -2.65,-2.2 -2.85,-1.7 4.5,-1 5.45,-0.75 5.35,0.6"
         fill="#0f0f0f"
         fill-rule="evenodd"
         stroke="none"
         id="path3" />
      <path
         d="m -34.85,-27.8 q -0.3,-0.8 0.1,-1.6 l 0.85,-0.95 1.25,-0.35 q 1.5,0.1 2,1.5 0.45,1.25 -0.45,2.2 -0.85,0.95 -2.1,0.7 -1.25,-0.25 -1.65,-1.5 m -3.45,6.6 0.55,-0.95 q 0.4,-0.45 0.9,-0.6 0.7,-0.25 1.45,0 0.75,0.25 1.15,0.9 0.4,0.6 0.35,1.4 -0.1,0.8 -0.6,1.3 -0.5,0.55 -1.25,0.7 -0.8,0.15 -1.45,-0.25 -0.65,-0.35 -0.95,-1.05 -0.3,-0.75 -0.15,-1.45 m 42.05,3.7 -0.4,1 q -0.5,0.65 -1.3,0.8 -0.75,0.15 -1.45,-0.25 -0.65,-0.35 -1,-1.1 -0.3,-0.7 -0.1,-1.45 0.2,-0.7 0.85,-1.2 0.65,-0.5 1.4,-0.45 l 1.2,0.5 0.75,1.05 0.05,1.1 m -16.5,7.6 q -0.05,-0.95 0.5,-1.75 0.6,-0.85 1.55,-1.05 l 1.5,0.15 q 0.75,0.3 1.2,0.95 0.4,0.65 0.4,1.5 -0.05,0.8 -0.5,1.45 -0.45,0.6 -1.2,0.9 l -1.55,0.05 -1.25,-0.8 q -0.55,-0.6 -0.65,-1.4 M 7.2,-13.55 6.45,-12.35 4,-10.4 0.3,-7.7 -3.45,-5 q -1.3,0.75 -1.85,0.8 -0.65,0.05 -1.25,-0.35 -0.6,-0.4 -0.85,-1.05 -0.25,-0.6 -0.05,-1.35 l 0.65,-1.15 1.65,-0.9 1.9,-1.4 6.2,-4.5 q 1.2,-0.8 1.9,-0.85 0.85,-0.05 1.8,0.55 l 0.65,0.55 q 0.2,0.45 -0.1,1.1"
         fill="#ffffff"
         fill-rule="evenodd"
         stroke="none"
         id="path4" />
    </g>
    <g
       id="sprite1"
       transform="translate(17.4,15.85)">
      <use
         ffdec:characterId="31"
         height="57.200001"
         transform="matrix(0.5366,0,0,0.5366,-16.6582,-14.546)"
         width="70.75"
         xlink:href="#sprite2"
         id="use4" />
    </g>
    <g
       id="sprite2"
       transform="translate(-8.65,-10.35)">
      <use
         ffdec:characterId="30"
         height="57.200001"
         transform="translate(8.65,10.35)"
         width="70.75"
         xlink:href="#shape1"
         id="use5" />
    </g>
    <g
       id="shape1"
       transform="translate(-8.65,-10.35)">
      <path
         d="m 14.8,41.7 q 0.65,-1.75 2.65,-2.5 1.8,-0.8 3.7,-0.25 1.15,0.45 2.25,1.2 l 0.9,0.4 q 1.65,0.9 2.85,2.5 L 37.8,30.1 q 2.35,-2.8 3.75,-3.95 1.5,-1.15 4.25,-2.4 18.2,-8.85 27.65,-12.6 2.15,-0.8 3.25,-0.8 h 0.8 l 1.9,2.4 -0.2,0.8 q -0.2,1.1 -1.55,3 -5.85,8.25 -18.85,23.8 -1.85,2.35 -3.35,3.5 -1.4,1.15 -4.75,2.75 l -15.15,7.15 q 1.2,1.6 1.75,3.4 l 0.2,1 0.55,2.5 q 0.1,1.95 -1.1,3.55 -1.2,1.65 -3.05,1.9 l -1.3,0.05 q -1.65,0.2 -3.45,-0.65 -1.85,-0.9 -3,-2.6 L 25,60.95 23.8,62.1 q -2.6,2.85 -4.3,3.95 -2.85,1.8 -5.5,1.45 l -1.65,-0.5 -1.2,-0.7 -0.2,-0.2 q -1,-0.85 -1.6,-1.9 L 9.25,64 9.15,63.8 8.75,62.4 q -0.2,-0.8 -0.05,-1.7 0.25,-2.65 2.7,-5.05 1.5,-1.3 4.9,-3.15 L 17.7,51.55 16.05,50 q -1.35,-1.5 -1.8,-3.6 -0.4,-1.85 0.25,-3.45 l 0.3,-1.25"
         fill="#000000"
         fill-opacity="0.372549"
         fill-rule="evenodd"
         stroke="none"
         id="path5" />
    </g>
  </defs>
</svg>
