<?xml version="1.0" encoding="UTF-8" standalone="no"?>
<svg
   ffdec:objectType="frame"
   height="83.081665"
   width="81.994644"
   version="1.1"
   id="svg10"
   sodipodi:docname="ITEM Charming Baby.svg"
   xmlns:inkscape="http://www.inkscape.org/namespaces/inkscape"
   xmlns:sodipodi="http://sodipodi.sourceforge.net/DTD/sodipodi-0.dtd"
   xmlns:xlink="http://www.w3.org/1999/xlink"
   xmlns="http://www.w3.org/2000/svg"
   xmlns:svg="http://www.w3.org/2000/svg"
   xmlns:ffdec="https://www.free-decompiler.com/flash">
  <sodipodi:namedview
     id="namedview10"
     pagecolor="#ffffff"
     bordercolor="#000000"
     borderopacity="0.25"
     inkscape:showpageshadow="2"
     inkscape:pageopacity="0.0"
     inkscape:pagecheckerboard="0"
     inkscape:deskcolor="#d1d1d1"
     fit-margin-top="5"
     fit-margin-left="5"
     fit-margin-right="5"
     fit-margin-bottom="5" />
  <g
     transform="translate(43.144643,42.25)"
     id="g1">
    <use
       ffdec:characterId="17"
       height="119.15"
       id="rarity"
       transform="translate(-58.5,-60.65)"
       width="119.15"
       xlink:href="#sprite0" />
    <use
       ffdec:characterId="1309"
       height="83.099998"
       transform="translate(-43.15,-42.25)"
       width="82"
       xlink:href="#shape0"
       id="use1" />
  </g>
  <defs
     id="defs10">
    <g
       id="shape0"
       transform="translate(41.85,40.35)">
      <path
         d="m -20.9,-19.65 0.9,-3.8 q 0.95,-3.45 2,-5.25 1.65,-3 5.1,-5.65 7.7,-6 16.7,-6 l 5.35,0.7 3.8,1.55 4.05,2.05 q 2.25,1.4 3.6,3.1 1.75,2.1 2.85,5.35 0.7,1.95 1.6,5.95 l 0.5,2.65 0.1,0.9 0.1,1.65 -0.2,2.35 -0.2,1.25 -0.1,0.35 -0.3,1.45 -0.1,0.45 -0.5,1.7 -0.5,1.65 -0.15,0.45 -0.45,1.05 -0.2,0.4 -1.55,2.7 -0.2,0.25 -0.25,0.35 -0.85,1.1 -0.05,0.05 -0.95,1.05 -0.45,0.45 2.05,1.5 q 1.3,1.1 2.35,2.65 1.05,1.65 2.3,4.75 l 0.8,2.5 q 0.25,1.15 0.15,3 l -0.3,2.1 -0.5,1 -0.75,1 -0.65,0.8 -0.5,0.5 -0.3,0.3 -0.1,0.05 q -0.95,0.8 -2.25,1.3 l -2.3,0.5 -0.35,0.05 -0.05,0.25 q -0.45,2.6 -1.25,4.3 -2.35,5.05 -9.75,7.65 -0.05,2.1 -1.3,3.95 -1.25,1.85 -3.2,2.65 -1.9,0.85 -4.1,0.55 -2.15,-0.25 -3.85,-1.55 -1.7,-1.25 -2.6,-3.25 -0.95,-1.95 -0.9,-4.1 -2.55,-0.65 -4.65,-2.35 -2.1,-1.8 -3.2,-4.2 -1,-2.3 -1.25,-5.1 l -1.65,0.2 h -0.75 q -1.75,-0.2 -3.2,-1 l -1.45,-1.1 -0.7,-0.8 -1.2,-2.15 q -0.95,-2.6 0.05,-5.15 l 0.9,-1.75 q 1.55,-2.75 3.6,-4.85 2.25,-2.4 5.1,-4 l 0.8,-0.4 -0.6,-0.6 -0.8,-0.9 -0.2,-0.25 -0.6,-0.85 -1.25,-2.15 -0.5,-1.15 -0.8,-2.65 -0.3,-1.4 v -0.2 l -0.2,-1.55 -0.1,-2.2 0.05,-1 0.1,-1.75 0.5,-3.4 m 41.35,0.65 -0.2,-1.3 -0.05,-0.2 -0.15,-0.7 -0.05,-0.2 q -0.85,-3.75 -1.7,-5.5 -1.15,-2.35 -2.9,-4 l -1.05,-0.9 q -2,-1.6 -4.65,-2.45 -3.2,-1.1 -6.6,-0.85 -5.15,0.3 -10.15,3.35 l -2.15,1.45 q -2.4,1.8 -3.55,3.55 -0.95,1.5 -1.7,4 l -0.3,1.05 -0.3,1.2 -0.45,2.2 -0.2,1 -0.15,0.85 v 0.05 l -0.2,3.65 0.05,0.55 0.05,0.6 q 0.25,2.85 1.45,5.1 l 1.45,2.15 0.05,0.05 0.05,0.1 q 1.6,1.75 4.75,3.5 l 0.1,0.05 0.55,0.25 3.65,1.6 q 6.25,2 14.25,-1.3 l 0.95,-0.4 0.25,-0.1 2.05,-1.05 1.3,-1 0.5,-0.45 0.6,-0.75 0.05,-0.05 1.2,-1.8 1.05,-1.8 0.3,-0.6 1.2,-2.85 0.4,-1.3 0.45,-2.5 0.05,-0.85 V -16 -16.6 L 20.45,-19 M -3,-5.2 -3.7,-6.3 -3.95,-6.8 -5,-10.2 -5.1,-11.75 v -0.35 l 0.2,-1.4 0.1,-0.45 0.1,-0.15 0.75,-0.9 0.4,-0.25 1.65,-0.1 1.5,-0.1 4.2,-0.55 1.25,-0.2 2.1,0.25 1.2,0.35 0.05,0.05 q 0.55,0.45 0.65,1.5 l 0.05,0.3 -0.05,0.55 -0.1,1.45 L 8.9,-11.2 8.55,-8.05 8.25,-6.5 8.2,-6.35 8.1,-6 8.05,-5.9 Q 7.5,-4.5 6.05,-3.6 4.6,-2.7 2.65,-2.55 0.7,-2.4 -0.7,-3.15 -1.4,-3.55 -2.25,-4.4 L -3,-5.2 m 15,-20.15 2.5,-0.25 0.6,0.15 0.5,0.2 1.15,0.7 0.45,0.6 q 0.5,0.65 0.6,1.65 v 1.4 l -0.1,0.6 q -0.3,1.35 -1.6,2.1 l -0.65,0.35 -0.35,0.15 h -0.05 l -1.6,0.1 -1.7,-0.35 -1.05,-0.75 -0.35,-0.35 -0.4,-0.55 -0.05,-0.05 Q 9.55,-20.25 9.55,-21 9.45,-21.95 9.8,-23.1 l 0.35,-0.8 0.7,-0.7 0.05,-0.05 q 0.65,-0.55 1.1,-0.7 m -23.1,7.15 -0.25,-0.2 -0.05,-0.05 q -0.5,-0.45 -0.7,-1.05 l -0.15,-0.85 q -0.05,-1.15 0.55,-2.45 l 1,-1.4 1,-0.7 h 0.05 q 0.7,-0.55 2.05,-0.55 l 1.25,0.15 0.1,0.05 q 1.35,0.4 2.1,1.85 0.55,1.15 0.4,2.75 l -0.05,0.2 -0.05,0.2 -0.25,0.75 -0.1,0.25 q -0.4,0.65 -1.2,1.35 l -0.6,0.4 -2.45,0.25 -1,-0.05 -0.3,-0.1 -0.55,-0.3 -0.45,-0.3 -0.35,-0.2 M 11.9,7.45 11.5,6.7 10.8,5.45 10.25,5.6 5.05,6.7 -2.25,7.1 Q -5.2,6.8 -8.5,5.3 l -0.2,0.3 -1.65,3.55 q -1.1,2.6 -1.6,5.15 l -0.25,1.5 q -0.35,2.15 -0.2,4.25 l 0.05,0.35 q 0.15,2.25 1.05,4 l 0.55,0.95 q 1,1.45 2.45,2.05 l 1.4,0.45 h 0.05 l 1.5,0.4 q 0.9,0.25 1.45,0.65 l 0.1,0.1 q 0.6,0.45 0.8,1.05 0.3,0.7 0.15,1.8 V 32 L -3,33.75 q 0.15,1.85 1.75,2.65 l 1.6,0.2 q 0.9,-0.2 1.4,-0.85 0.55,-0.7 0.7,-2.7 L 2.5,32.7 Q 2.65,31.05 3.25,30.4 L 4.2,29.8 4.9,29.6 6.8,29.3 q 1.9,-0.35 3.45,-1.75 1.45,-1.25 2.3,-3.15 1.4,-2.95 1.3,-7.7 L 13.8,14.9 Q 13.6,12.5 13.05,10.55 L 12.35,8.4 11.9,7.45 m -28.85,5.25 0.3,-1.05 0.15,-0.6 q 1.3,-4.05 3.7,-7.3 l -0.5,0.3 q -2.25,1.4 -4.15,3.3 -1.95,1.95 -3.45,4.5 l -0.1,0.2 q -0.8,1.35 -0.65,2.2 0.1,0.95 0.95,1.5 l 0.9,0.4 h 0.85 l 1.4,-0.6 0.3,-1.65 0.3,-1.2 m 38.2,-0.95 -0.8,-1.8 -0.9,-2 Q 18.6,6.4 16.5,4.6 L 16,4.2 q 3.2,5.95 2.9,13.65 l 1.85,-1.05 0.4,-0.5 q 0.85,-1.25 0.7,-2.65 l -0.6,-1.9"
         fill="#000000"
         fill-rule="evenodd"
         stroke="none"
         id="path1" />
      <path
         d="m -15.05,-20.5 0.3,-1.2 0.3,-1.05 q 0.75,-2.5 1.7,-4 1.15,-1.75 3.55,-3.55 l 2.15,-1.45 q 5,-3.05 10.15,-3.35 3.4,-0.25 6.6,0.85 2.65,0.85 4.65,2.45 l 1.05,0.9 q 1.75,1.65 2.9,4 0.85,1.75 1.7,5.5 l 0.05,0.2 0.15,0.7 0.05,0.2 0.2,1.3 -0.6,2.7 -0.05,0.25 -0.4,1.1 -0.1,0.2 -0.9,2 -0.65,1.1 -0.9,1.05 -2.7,2.1 -1.8,0.9 -3.05,1.3 -1,0.35 L 8.05,-5.9 8.1,-6 8.2,-6.35 8.25,-6.5 l 0.3,-1.55 0.35,-3.15 0.05,-0.55 0.1,-1.45 0.05,-0.55 -0.05,-0.3 q -0.1,-1.05 -0.65,-1.5 l -0.05,-0.05 -1.2,-0.35 -2.1,-0.25 -1.25,0.2 -4.2,0.55 -1.5,0.1 -1.65,0.1 -0.4,0.25 -0.75,0.9 -0.1,0.15 -0.1,0.45 -0.2,1.4 v 0.35 l 0.1,1.55 1.05,3.4 0.25,0.5 0.7,1.1 -0.55,-0.15 -2,-0.6 -1.2,-0.55 -2.2,-1.25 q -0.95,-0.65 -1.8,-1.45 -1.55,-1.45 -2.55,-3.1 l -0.15,-0.3 -0.2,-0.3 q -0.8,-1.5 -1.15,-3.15 l -0.1,-0.8 -0.1,-0.7 -0.05,-0.9 V -20.5 M 12,-25.35 q -0.45,0.15 -1.1,0.7 l -0.05,0.05 -0.7,0.7 -0.35,0.8 q -0.35,1.15 -0.25,2.1 0,0.75 0.35,1.35 l 0.05,0.05 0.4,0.55 0.35,0.35 1.05,0.75 1.7,0.35 1.6,-0.1 h 0.05 l 0.35,-0.15 0.65,-0.35 q 1.3,-0.75 1.6,-2.1 l 0.1,-0.6 v -1.4 q -0.1,-1 -0.6,-1.65 l -0.45,-0.6 -1.15,-0.7 -0.5,-0.2 -0.6,-0.15 -2.5,0.25 m -23.1,7.15 0.35,0.2 0.45,0.3 0.55,0.3 0.3,0.1 1,0.05 2.45,-0.25 0.6,-0.4 q 0.8,-0.7 1.2,-1.35 l 0.1,-0.25 0.25,-0.75 0.05,-0.2 0.05,-0.2 q 0.15,-1.6 -0.4,-2.75 -0.75,-1.45 -2.1,-1.85 l -0.1,-0.05 -1.25,-0.15 q -1.35,0 -2.05,0.55 H -9.7 l -1,0.7 -1,1.4 q -0.6,1.3 -0.55,2.45 l 0.15,0.85 q 0.2,0.6 0.7,1.05 l 0.05,0.05 0.25,0.2 m 0.75,27.35 0.95,0.25 2.15,1.1 q 1.65,0.75 4.85,1.15 L 2.1,11.9 Q 3.7,11.75 6.7,10.75 10.3,9.5 11.65,7.7 l 0.25,-0.25 0.45,0.95 0.7,2.15 q 0.55,1.95 0.75,4.35 l 0.05,1.8 q 0.1,4.75 -1.3,7.7 -0.85,1.9 -2.3,3.15 Q 8.7,28.95 6.8,29.3 L 4.9,29.6 4.2,29.8 -2.5,29.25 -3.75,28.95 -3.8,29 -3.9,28.9 q -0.55,-0.4 -1.45,-0.65 l -1.5,-0.4 H -6.9 L -8.3,27.4 q -1.45,-0.6 -2.45,-2.05 L -11.3,24.4 q -0.9,-1.75 -1.05,-4 l -0.05,-0.35 q -0.15,-2.1 0.2,-4.25 l 0.25,-1.5 q 0.5,-2.55 1.6,-5.15"
         fill="#dcb6dd"
         fill-rule="evenodd"
         stroke="none"
         id="path2" />
      <path
         d="m -15.05,-20.5 v 2.05 l 0.05,0.9 0.1,0.7 0.1,0.8 q 0.35,1.65 1.15,3.15 l 0.2,0.3 0.15,0.3 q 1,1.65 2.55,3.1 0.85,0.8 1.8,1.45 l 2.2,1.25 1.2,0.55 2,0.6 0.55,0.15 0.75,0.8 q 0.85,0.85 1.55,1.25 1.4,0.75 3.35,0.6 1.95,-0.15 3.4,-1.05 1.45,-0.9 2,-2.3 l 0.25,-0.05 1,-0.35 3.05,-1.3 1.8,-0.9 2.7,-2.1 0.9,-1.05 0.65,-1.1 0.9,-2 0.1,-0.2 0.4,-1.1 0.05,-0.25 0.6,-2.7 0.25,2.4 v 0.6 0.4 l -0.05,0.85 -0.45,2.5 -0.4,1.3 -1.2,2.85 -0.3,0.6 -1.05,1.8 -1.2,1.8 -0.05,0.05 -0.6,0.75 -0.5,0.45 -1.3,1 -2.05,1.05 -0.25,0.1 -0.95,0.4 Q 2.35,3.2 -3.9,1.2 L -7.55,-0.4 -8.1,-0.65 -8.2,-0.7 q -3.15,-1.75 -4.75,-3.5 L -13,-4.3 -13.05,-4.35 -14.5,-6.5 q -1.2,-2.25 -1.45,-5.1 l -0.05,-0.6 -0.05,-0.55 0.2,-3.65 v -0.05 l 0.15,-0.85 0.2,-1 0.45,-2.2 M 11.9,7.45 11.65,7.7 q -1.35,1.8 -4.95,3.05 -3,1 -4.6,1.15 L -2.4,11.65 Q -5.6,11.25 -7.25,10.5 L -9.4,9.4 -10.35,9.15 -8.7,5.6 -8.5,5.3 q 3.3,1.5 6.25,1.8 l 7.3,-0.4 5.2,-1.1 0.55,-0.15 0.7,1.25 0.4,0.75 M -3.8,29 l 0.05,-0.05 1.25,0.3 6.7,0.55 -0.95,0.6 q -0.6,0.65 -0.75,2.3 l -0.05,0.35 q -0.15,2 -0.7,2.7 -0.5,0.65 -1.4,0.85 l -1.6,-0.2 Q -2.85,35.6 -3,33.75 L -2.85,32 V 31.85 Q -2.7,30.75 -3,30.05 -3.2,29.45 -3.8,29 m -12.85,-17.35 -0.2,0.35 -0.15,0.55 0.05,0.15 -0.3,1.2 -0.3,1.65 -1.4,0.6 h -0.85 l -0.9,-0.4 q -0.85,-0.55 -0.95,-1.5 -0.15,-0.85 0.65,-2.2 l 0.1,-0.2 q 1.5,-2.55 3.45,-4.5 1.9,-1.9 4.15,-3.3 l 0.5,-0.3 q -2.4,3.25 -3.7,7.3 l -0.15,0.6 m 37.9,0.1 0.6,1.9 q 0.15,1.4 -0.7,2.65 l -0.4,0.5 -1.85,1.05 Q 19.2,10.15 16,4.2 l 0.5,0.4 q 2.1,1.8 3.05,3.35 l 0.9,2 0.8,1.8"
         fill="#c5a2c5"
         fill-rule="evenodd"
         stroke="none"
         id="path3" />
      <path
         d="m 19.4,41.45 h -0.1 l -1.35,-0.2 Q 17,40.5 17.8,38.5 20.55,30.6 20.95,23.8 l 0.1,-1.75 q 1.3,-0.5 2.25,-1.3 l 0.1,-0.05 0.3,-0.3 0.5,-0.5 0.65,-0.8 0.75,-1 q 0.2,2.85 0,5.8 l -0.15,2.05 q -0.4,3.55 -1.35,6.9 l -1.4,4.1 -0.55,1.25 -0.65,1.2 -0.9,1.2 -1.2,0.85 M -20.1,21.6 q 0.15,7 3.65,13.55 l 0.85,1.8 q 0.35,1.05 0.15,1.85 -0.2,1.05 -1.25,1.6 -1,0.6 -2,0.25 l -0.4,-0.15 -1.65,-1.65 q -1.2,-1.8 -2.65,-6.1 l -1.75,-6.15 q -0.65,-3.45 -0.3,-7.9 l 0.7,0.8 1.45,1.1 q 1.45,0.8 3.2,1 m 2.5,-22.7 0.8,0.9 0.6,0.6 -0.8,0.4 q -2.85,1.6 -5.1,4 L -20.35,2 -17.6,-1.1 M 19.2,0.15 20.8,2.1 18.75,0.6 19.2,0.15"
         fill="#aca2c5"
         fill-rule="evenodd"
         stroke="none"
         id="path4" />
      <path
         d="m 22.95,41.85 q -1.2,1.15 -2.35,0.8 -0.8,-0.2 -1.15,-1.1 l -0.05,-0.1 1.2,-0.85 0.9,-1.2 0.65,-1.2 0.55,-1.25 1.4,-4.1 q 0.95,-3.35 1.35,-6.9 L 25.6,23.9 q 0.2,-2.95 0,-5.8 l 0.5,-1 0.3,-2.1 q 0.1,-1.85 -0.15,-3 L 25.45,9.5 Q 24.2,6.4 23.15,4.75 22.1,3.2 20.8,2.1 l -1.6,-1.95 0.95,-1.05 0.05,-0.05 0.85,-1.1 0.25,-0.35 0.2,-0.25 0.5,0.3 q 2.2,1.35 3.75,3.5 2.6,3.65 3.5,9.65 1,7 -0.5,14.2 l -0.6,4 -0.35,1.9 -0.65,2.55 -0.9,2.75 -0.55,1.4 -0.45,0.9 -0.4,0.8 H 24.8 l -1.15,1.75 -0.7,0.8 m -42.05,-1.35 -0.7,0.6 q -0.8,0.55 -1.7,0.4 l -0.7,-0.2 -0.2,-0.1 q -0.9,-0.5 -1.65,-1.75 l -0.45,-0.75 -0.15,-0.25 q -2.3,-4.3 -3.6,-7.85 l -1.25,-4.4 q -0.8,-3.6 -0.55,-8.25 0.3,-5.8 2.4,-10.45 2.4,-5.25 6.75,-8.3 l 2.5,-1.4 0.6,0.85 0.2,0.25 -2.75,3.1 -1.75,2.8 q -2.05,2.1 -3.6,4.85 l -0.9,1.75 q -1,2.55 -0.05,5.15 l 1.2,2.15 q -0.35,4.45 0.3,7.9 l 1.75,6.15 q 1.45,4.3 2.65,6.1 l 1.65,1.65"
         fill="#a2a8c5"
         fill-rule="evenodd"
         stroke="none"
         id="path5" />
      <path
         d="m 26.95,40.2 -0.7,0.75 q -1.3,1.2 -2.85,1 l -0.45,-0.1 0.7,-0.8 1.15,-1.75 h 0.05 l 0.4,-0.8 0.45,-0.9 0.55,-1.4 0.9,-2.75 0.65,-2.55 0.35,-1.9 0.6,-4 q 1.5,-7.2 0.5,-14.2 -0.9,-6 -3.5,-9.65 Q 24.2,-1 22,-2.35 l -0.5,-0.3 1.55,-2.7 0.2,-0.4 0.45,-1.05 0.95,0.5 q 1.55,1 3.05,2.9 2.75,3.5 4,8.2 l 0.6,2.6 0.05,0.25 0.2,1.55 0.3,3.8 -0.1,4.85 -0.05,3.3 -0.2,2.75 -0.45,2.9 Q 30.95,32.95 28,38.45 L 27.1,40 26.95,40.2 m -49.15,1.1 -0.55,0.25 -1.65,0.05 -0.25,-0.1 q -0.5,-0.15 -1,-0.5 l -0.25,-0.2 -1.2,-1.15 q -3.6,-4.25 -5.15,-11.4 L -32.6,26.6 q -2.1,-11.45 1.95,-21.4 1.9,-4.55 4.55,-7.2 l 0.95,-0.85 q 2.3,-2 5,-2.65 l 0.5,1.15 1.25,2.15 -2.5,1.4 q -4.35,3.05 -6.75,8.3 -2.1,4.65 -2.4,10.45 -0.25,4.65 0.55,8.25 l 1.25,4.4 q 1.3,3.55 3.6,7.85 l 0.15,0.25 0.45,0.75 q 0.75,1.25 1.65,1.75 l 0.2,0.1"
         fill="#a2c5c2"
         fill-rule="evenodd"
         stroke="none"
         id="path6" />
      <path
         d="m -21.25,-9.55 0.3,1.4 0.8,2.65 q -2.7,0.65 -5,2.65 L -26.1,-2 q -2.65,2.65 -4.55,7.2 -4.05,9.95 -1.95,21.4 l 0.35,1.65 q 1.55,7.15 5.15,11.4 l 1.2,1.15 0.25,0.2 -0.55,-0.2 -1.9,-0.75 q -1,-0.55 -1.6,-1.1 L -31,37.2 -31.6,36.15 q -1.55,-2.95 -2.3,-5.35 l -1.4,-5.65 -0.75,-4.95 V 16.4 L -36,15.45 q 0.3,-3.8 0.75,-5.6 0.65,-2.65 1.9,-5.2 1.55,-3.35 3.9,-6.85 1.8,-2.75 3.6,-4.35 l 0.45,-0.35 2.2,-1.55 1.9,-1.1 h 0.05 m 52.7,44.45 q -1.35,3 -3,4.35 L 27.55,39.8 27.1,40 28,38.45 q 2.95,-5.5 4.05,-11.65 l 0.45,-2.9 0.2,-2.75 0.05,-3.3 L 32.85,13 32.55,9.2 32.35,7.65 32.3,7.4 31.7,4.8 q -1.25,-4.7 -4,-8.2 -1.5,-1.9 -3.05,-2.9 l -0.95,-0.5 0.15,-0.45 0.5,-1.65 0.5,-1.7 1.75,0.9 q 4.05,2.55 6.1,8.1 1,2.65 1.55,6.45 l 0.35,3.65 0.3,6.25 -0.15,5.75 q -0.6,8.1 -3.2,14.1 l -0.1,0.3"
         fill="#a6c5a2"
         fill-rule="evenodd"
         stroke="none"
         id="path7" />
      <path
         d="m 27.25,40.05 -0.3,0.15 0.15,-0.2 0.45,-0.2 -0.3,0.25 m -48.75,-54.55 -0.05,1 0.1,2.2 0.2,1.55 v 0.2 h -0.05 l -1.9,1.1 -2.2,1.55 -0.45,0.35 q -1.8,1.6 -3.6,4.35 -2.35,3.5 -3.9,6.85 -1.25,2.55 -1.9,5.2 -0.45,1.8 -0.75,5.6 l -0.05,0.95 v 3.8 l 0.75,4.95 1.4,5.65 q 0.75,2.4 2.3,5.35 l 0.6,1.05 q -2,-2.3 -2.8,-3.8 l -1.55,-4.1 q -2,-6.8 -2.4,-10.3 -0.4,-3.6 0.05,-7.15 l 0.6,-3.2 q 1.3,-5.2 4.2,-9.55 l 3.15,-4.3 3,-4.4 q 1.85,-2.45 4.5,-4.4 l 0.75,-0.5 m 47.05,0.4 0.35,0.2 q 2.65,1.5 4.75,3.95 l 1.35,1.8 q 2.4,3.35 3.7,7.65 1,3.3 1.3,6.65 l 0.3,1.8 q 0.5,9.35 -1.45,16.55 -1.55,5.8 -4.4,10.4 l 0.1,-0.3 q 2.6,-6 3.2,-14.1 L 34.9,14.75 34.6,8.5 34.25,4.85 Q 33.7,1.05 32.7,-1.6 30.65,-7.15 26.6,-9.7 l -1.75,-0.9 0.1,-0.45 0.3,-1.45 0.1,-0.35 0.2,-1.25 m -53.65,54.15 1.9,0.75 -1.05,-0.25 -0.85,-0.5"
         fill="#c1c5a2"
         fill-rule="evenodd"
         stroke="none"
         id="path8" />
      <path
         d="m 25.55,-19 q 1.65,0.75 3.35,2.1 l 4.55,4.55 q 2.25,2.5 3.2,4.5 l 1.55,4.55 1.1,4.8 q 0.45,2.2 0.75,7.85 l 0.1,4.4 -0.4,4.05 q -1.25,8.05 -5.1,15.55 -2.45,4.75 -5.3,6.2 l -2.1,0.5 0.3,-0.25 0.9,-0.55 q 1.65,-1.35 3,-4.35 2.85,-4.6 4.4,-10.4 Q 37.8,17.3 37.3,7.95 L 37,6.15 Q 36.7,2.8 35.7,-0.5 34.4,-4.8 32,-8.15 l -1.35,-1.8 q -2.1,-2.45 -4.75,-3.95 l -0.35,-0.2 0.2,-2.35 -0.1,-1.65 -0.1,-0.9 m -50.2,60.5 -0.9,0.4 -1.95,-0.15 q -3.6,-1.1 -6.25,-5.15 l -1.95,-3.65 -1.85,-3.7 -2.15,-4.35 -0.75,-3 -0.6,-3.05 -0.75,-3.7 q -0.25,-2.75 0.9,-6.55 l 0.65,-1.85 q 0.5,-2.95 2,-6.1 l 1.75,-3.15 1.2,-2.4 1.3,-1.75 0.8,-1.35 2.6,-4.15 q 2.15,-2.85 5.8,-5.25 l 3.9,-2.25 -0.5,3.4 -0.1,1.75 -0.75,0.5 q -2.65,1.95 -4.5,4.4 l -3,4.4 -3.15,4.3 q -2.9,4.35 -4.2,9.55 l -0.6,3.2 q -0.45,3.55 -0.05,7.15 0.4,3.5 2.4,10.3 l 1.55,4.1 q 0.8,1.5 2.8,3.8 l 1.3,1.75 q 0.6,0.55 1.6,1.1 l 0.85,0.5 1.05,0.25 0.55,0.2 q 0.5,0.35 1,0.5"
         fill="#c5a2a2"
         fill-rule="evenodd"
         stroke="none"
         id="path9" />
    </g>
    <g
       id="sprite1"
       transform="translate(17.4,15.85)">
      <use
         ffdec:characterId="31"
         height="57.200001"
         transform="matrix(0.5366,0,0,0.5366,-16.6582,-14.546)"
         width="70.75"
         xlink:href="#sprite2"
         id="use9" />
    </g>
    <g
       id="sprite2"
       transform="translate(-8.65,-10.35)">
      <use
         ffdec:characterId="30"
         height="57.200001"
         transform="translate(8.65,10.35)"
         width="70.75"
         xlink:href="#shape1"
         id="use10" />
    </g>
    <g
       id="shape1"
       transform="translate(-8.65,-10.35)">
      <path
         d="m 14.8,41.7 q 0.65,-1.75 2.65,-2.5 1.8,-0.8 3.7,-0.25 1.15,0.45 2.25,1.2 l 0.9,0.4 q 1.65,0.9 2.85,2.5 L 37.8,30.1 q 2.35,-2.8 3.75,-3.95 1.5,-1.15 4.25,-2.4 18.2,-8.85 27.65,-12.6 2.15,-0.8 3.25,-0.8 h 0.8 l 1.9,2.4 -0.2,0.8 q -0.2,1.1 -1.55,3 -5.85,8.25 -18.85,23.8 -1.85,2.35 -3.35,3.5 -1.4,1.15 -4.75,2.75 l -15.15,7.15 q 1.2,1.6 1.75,3.4 l 0.2,1 0.55,2.5 q 0.1,1.95 -1.1,3.55 -1.2,1.65 -3.05,1.9 l -1.3,0.05 q -1.65,0.2 -3.45,-0.65 -1.85,-0.9 -3,-2.6 L 25,60.95 23.8,62.1 q -2.6,2.85 -4.3,3.95 -2.85,1.8 -5.5,1.45 l -1.65,-0.5 -1.2,-0.7 -0.2,-0.2 q -1,-0.85 -1.6,-1.9 L 9.25,64 9.15,63.8 8.75,62.4 q -0.2,-0.8 -0.05,-1.7 0.25,-2.65 2.7,-5.05 1.5,-1.3 4.9,-3.15 L 17.7,51.55 16.05,50 q -1.35,-1.5 -1.8,-3.6 -0.4,-1.85 0.25,-3.45 l 0.3,-1.25"
         fill="#000000"
         fill-opacity="0.372549"
         fill-rule="evenodd"
         stroke="none"
         id="path10" />
    </g>
  </defs>
</svg>
