<?xml version="1.0" encoding="UTF-8" standalone="no"?>
<svg
   ffdec:objectType="frame"
   height="76.428223"
   width="94.57756"
   version="1.1"
   id="svg6"
   sodipodi:docname="ITEM Rotten Meat Armor.svg"
   xmlns:inkscape="http://www.inkscape.org/namespaces/inkscape"
   xmlns:sodipodi="http://sodipodi.sourceforge.net/DTD/sodipodi-0.dtd"
   xmlns:xlink="http://www.w3.org/1999/xlink"
   xmlns="http://www.w3.org/2000/svg"
   xmlns:svg="http://www.w3.org/2000/svg"
   xmlns:ffdec="https://www.free-decompiler.com/flash">
  <sodipodi:namedview
     id="namedview6"
     pagecolor="#ffffff"
     bordercolor="#000000"
     borderopacity="0.25"
     inkscape:showpageshadow="2"
     inkscape:pageopacity="0.0"
     inkscape:pagecheckerboard="0"
     inkscape:deskcolor="#d1d1d1"
     fit-margin-top="5"
     fit-margin-left="5"
     fit-margin-right="5"
     fit-margin-bottom="5" />
  <g
     transform="translate(45.568182,46.112081)"
     id="g1">
    <use
       ffdec:characterId="17"
       height="119.15"
       id="rarity"
       transform="translate(-58.5,-60.65)"
       width="119.15"
       xlink:href="#sprite0" />
    <use
       ffdec:characterId="744"
       height="76.400002"
       transform="translate(-45.55,-46.1)"
       width="94.550003"
       xlink:href="#shape0"
       id="use1" />
  </g>
  <defs
     id="defs6">
    <g
       id="shape0"
       transform="translate(46.1,46.85)">
      <path
         d="m 24.55,-24.15 -1,-2.55 -0.1,-0.4 q -2.35,-4.3 -2.75,-8.85 -0.05,-0.5 0.6,-0.7 3.4,-0.95 4.7,-4.2 l -0.1,-0.2 -0.15,-0.2 -0.25,-0.45 -0.3,-0.4 -0.45,-0.25 -0.35,-0.2 -0.2,-0.2 -2.9,0.25 q -1.2,0.65 -1.85,1.8 l -0.05,0.85 -0.1,1.3 q -0.25,0.95 -1.1,1.45 l -1.95,-0.15 -1.95,-0.85 q -2.15,-0.3 -4.05,0.6 l -0.3,0.15 -0.55,1.1 q -0.3,0.85 -0.3,1.7 v 1.75 q 4.4,-1.1 9,-0.8 0.9,0.05 1.35,0.95 2.6,5.3 3.5,11.1 v 0.65 l -0.05,0.55 0.55,0.4 q 0.4,-1.8 1.65,-3.35 -0.35,-0.35 -0.55,-0.85 m -48.35,-6.8 q 8.15,-1.05 12.55,5.25 1.4,1.95 2,4.3 l 2.2,7.55 6,-2.25 q 3.8,-1.15 7.65,0.1 3.05,-7.85 11.85,-6.1 l 1.1,0.25 -0.05,-0.05 -0.15,-0.6 v -0.65 l -0.35,-0.7 -0.55,-1.2 q -0.35,-0.7 -0.4,-1.55 l -0.35,-0.65 -0.6,-1.3 -0.55,-1.25 -9.55,0.25 q -1.15,-0.4 -1.4,-1.6 -1.65,-7 4.2,-10.45 1.6,-0.95 3.6,-0.5 l 2.35,-0.1 q 0.55,-1.1 1.35,-2 1.8,-2.15 4.35,-2.65 7.9,-0.3 7.7,6.85 -0.05,1.55 -0.95,2.8 -1.3,1.75 -3.25,2.8 1.1,2.85 2.55,5.5 l 0.8,2.1 q 1.95,-2.1 4.85,-2 8.55,0.9 12.6,8.8 5.1,9.9 0.6,20.05 -0.75,1.75 -2.15,3.15 6.55,8.3 0.8,17 -2.1,3.15 -5.95,4.1 -6.95,1.65 -13,-1.15 -3.75,2.75 -9.7,2.45 -3.3,-0.2 -5,-1.95 Q 8,28.3 1.2,29.3 q -9.8,1.45 -16.7,-5 -6.15,2.25 -12.9,3.8 -4.95,1.2 -9.2,-0.75 -5.25,-2.45 -7.75,-7.55 -1.95,-3.9 1.05,-7.35 -1.2,-2.4 -1.05,-5.15 0.35,-6.1 5.1,-10.3 -2.7,-9.25 2.5,-17.7 5,-8.1 13.95,-10.25 m 38.6,45.65 2.65,-1.35 q 0.55,0 0.7,0.45 l 0.1,0.45 q -1.7,3.45 -4.55,4.9 l 1.65,1 q 0.6,0.55 1.35,0.95 7.75,0.2 12.8,-5.6 l 0.5,0.15 0.3,0.45 0.25,0.65 -1.45,3.05 Q 36.9,22.5 41.95,16.7 42.6,16 42.8,15 L 43.3,13.1 42.95,12 42.4,10.1 42,8.35 q -2.2,-1.6 -2.7,-3.4 -0.4,-1.5 0.3,-3.1 l 0.7,-0.95 1.9,-2.25 q 1,-1.55 1.6,-3.35 L 43.75,-6.45 43.7,-9 v -1.95 l -0.2,-0.45 -0.25,-1.05 -0.05,-1.05 v -0.25 q -0.6,-1.9 -1.65,-3.6 -1.65,-2.85 -4.05,-5.2 -2.65,-2.25 -5.75,-1.65 l -4.25,3.6 q -1.15,1.15 -2,2.6 l -0.1,0.45 q 1.05,2 1,4.8 0,0.8 -0.35,1.5 l -0.3,0.2 -0.8,0.4 -0.45,-0.2 -0.4,-0.15 -0.2,-0.25 -0.15,-0.2 -0.15,-0.2 -0.1,-1.1 -0.75,-2.35 q -0.8,-1.55 -2.35,-2.5 -6,-2.35 -8.85,2.3 l -2.15,3.75 q -0.85,1.7 -2.75,1 -5.55,-2.15 -10.7,1.1 l -0.2,0.25 -0.45,0.6 -0.2,0.25 -0.15,0.2 -0.2,0.6 q -0.8,2 -2.1,2.05 -1.05,0 -2.4,-1.15 l -0.35,-0.3 q -0.6,-0.55 -0.8,-1.45 -1.25,-5.7 -3.45,-11 l -2.25,-4.65 -0.2,-0.3 q -0.55,-0.75 -1.5,-0.9 -8.35,-1.5 -13.35,5.15 l -0.45,0.6 q -2,2.85 -2.95,5.8 -1.9,6 0.8,12.35 0.2,0.55 -0.25,1.1 l -0.15,0.2 q -0.7,0.75 -1.8,1 l -1.4,1.5 q -1.4,1.75 -1.8,3.9 l -0.25,2.5 q 1.05,0.75 1.35,2.05 l 0.1,0.5 q 0.3,1.7 -0.65,3.2 l -0.95,1.1 q -0.7,0.7 -1.05,1.55 l 0.85,1.5 q 1.55,2.1 3.65,3.6 l 1.45,0.8 q 10.5,0.15 20.15,-4.2 1.4,-0.6 2.5,0.5 6.8,7 16.5,2.95 2,-0.85 3.5,-2.25 l -1.75,-0.3 q -4.85,-1 -6.6,-5.5 v -0.4 L -0.75,13.3 -0.9,13.1 -1,12.85 -0.8,11.2 -0.6,10.85 0,10.5 l 0.45,0.15 0.85,1.5 0.2,0.85 1.45,1.7 0.5,0.45 Q 9.3,16.9 14.8,14.7 M 30.3,-4.55 q 2.55,4 1.55,9.5 Q 31.45,6.9 29.9,8.2 24.4,10.85 21.4,5.95 L 21.35,5.7 21.3,5.3 21.25,4.85 21.05,4.65 20.9,4.45 Q 20.55,2.65 20.7,0.9 l 0.05,-0.55 q 0.2,-1.3 0.85,-2.35 l 0.25,-0.15 0.4,-0.15 0.35,-0.05 0.4,0.15 0.25,0.2 Q 23.7,0.4 24.5,2.7 L 25.35,4.4 25.85,5 28.25,4.8 28.5,4.55 28.85,4.15 29,3.95 Q 29.4,0.65 28.05,-2.25 27.4,-3.7 27,-5.3 l 0.05,-0.4 0.3,-0.65 0.15,-0.25 0.3,-0.15 0.55,-0.2 1.95,2.4 M -5.15,-43 l 0.6,0.2 0.4,0.2 0.35,0.4 q 0.4,0.5 0.3,1.1 l -0.15,0.65 q -0.35,0.6 -1.05,0.85 h -0.45 l -0.65,-0.1 -0.55,-0.4 -0.45,-0.65 0.1,-1.1 q 0.25,-0.7 0.9,-1 l 0.25,-0.05 0.4,-0.05 V -43 m -11.95,4.55 0.65,0.15 0.4,0.2 0.6,0.85 0.15,1.05 -0.05,0.25 -0.1,0.2 -0.05,0.2 -0.2,0.2 -0.25,0.25 -0.2,0.15 -0.2,0.05 -0.45,0.1 -0.05,0.05 q -1.1,-0.15 -1.7,-1 l -0.25,-0.45 q -0.2,-0.95 0.45,-1.65 0.55,-0.6 1.25,-0.6 M -2,-28.8 q 5.55,1.7 2.2,6.1 -0.35,0.45 -0.95,0.7 l -3,0.05 q -2.35,-1.65 -1.05,-4.35 0.65,-1.4 1.95,-2.3 l 0.35,-0.1 0.5,-0.1 M -26.9,1.9 q -0.1,-0.95 0.15,-1.95 l 0.5,-1.5 0.05,-0.45 0.05,-0.65 0.55,-1 1.35,-2.2 1,-1.3 0.7,-0.3 0.35,-0.15 0.4,0.15 0.25,0.1 0.4,0.35 0.05,0.2 v 0.2 l -0.1,0.45 q -1.4,1.25 -1.75,3 l -0.15,0.5 -0.4,1 -0.15,1.5 -0.1,0.4 -0.2,0.7 0.05,0.4 v 0.1 l 0.15,0.55 0.9,0.85 0.4,0.45 0.4,0.15 0.45,0.15 0.5,-0.15 0.6,-0.55 0.15,-0.25 0.25,-0.7 0.25,-0.25 0.2,-0.2 0.2,-0.65 0.3,-0.65 q -0.05,-1.5 0.3,-2.9 v -0.1 q 0.25,-1.15 1.35,-1.5 0.75,-0.2 1.45,0.3 l 0.3,0.95 0.05,0.3 q 0.85,3.95 -2,7.5 Q -21.95,9.9 -25.95,4.4 -26.8,3.2 -26.9,1.9"
         fill="#000000"
         fill-rule="evenodd"
         stroke="none"
         id="path1" />
      <path
         d="m 16.2,-15.25 -0.95,0.4 -1.05,1.2 q -0.8,1.2 -0.65,2.65 l 0.15,0.2 0.35,0.45 q 1.35,0.8 2.7,0 l 1.1,-1.35 q 1.25,-1.9 -0.3,-3.4 l -0.6,-0.1 -0.75,-0.05 M 20.7,0.9 19.9,-0.65 q -4.8,2.9 -9.85,0.3 L 8.6,-1 8.2,-0.55 6.6,1.45 5.75,2.1 q 1.2,-0.5 2.55,-0.65 8.35,-0.8 9.1,6.65 0.4,4.45 -2.6,6.6 -5.5,2.2 -11.35,0.45 L 2.95,14.7 1.5,13 1.3,12.15 0.45,10.65 0,10.5 -0.6,10.85 -0.55,9.7 q 0.2,-1.1 1,-1.9 Q 0.55,6.2 1.65,5 L 3,3.7 Q -2.9,6.45 -8.15,1.3 -8.65,0.85 -8.75,0.05 -9,-3.25 -7.35,-5.5 q 1.3,-0.05 2.1,-2.05 l 0.2,-0.6 0.15,-0.2 0.2,-0.25 0.45,-0.6 0.2,-0.25 q 5.15,-3.25 10.7,-1.1 1.9,0.7 2.75,-1 l 2.15,-3.75 q 2.85,-4.65 8.85,-2.3 1.55,0.95 2.35,2.5 l 0.75,2.35 0.1,1.1 0.15,0.2 0.15,0.2 0.2,0.25 0.4,0.15 0.45,0.2 0.8,-0.4 0.3,-0.2 q 0.35,-0.7 0.35,-1.5 0.05,-2.8 -1,-4.8 L 25.5,-18 q 0.85,-1.45 2,-2.6 l 4.25,-3.6 q 3.1,-0.6 5.75,1.65 2.4,2.35 4.05,5.2 1.05,1.7 1.65,3.6 v 0.25 l 0.05,1.05 0.25,1.05 0.2,0.45 V -9 l 0.05,2.55 0.05,1.75 q -0.6,1.8 -1.6,3.35 L 40.3,0.9 39.6,1.85 q -0.7,1.6 -0.3,3.1 -0.55,-0.4 -0.85,-1 -0.85,-1.55 -0.85,-3.3 -0.05,-1 0.2,-1.95 l -0.05,-0.2 -0.05,-0.2 -0.05,-0.25 -0.1,-0.4 -0.5,-0.7 L 33.9,-5.6 33.25,-6 33.1,-6.1 h -0.9 l -0.35,0.25 -0.95,0.8 -0.6,0.5 -1.95,-2.4 -0.55,0.2 -0.3,0.15 -0.15,0.25 -0.3,0.65 -0.05,0.4 q 0.4,1.6 1.05,3.05 1.35,2.9 0.95,6.2 l -0.25,0.2 q -1,0.8 -2.55,0.45 L 25.35,4.4 24.5,2.7 Q 23.7,0.4 23.25,-2 L 23,-2.2 22.6,-2.35 22.25,-2.3 21.85,-2.15 21.6,-2 q -0.65,1.05 -0.85,2.35 L 20.7,0.9 M 5.5,5.35 5,5.55 Q 4.65,5.7 4.4,5.95 4,6.45 4.15,7 L 4.25,7.65 4.45,7.8 5.5,8.2 6.1,8.05 6.45,7.85 6.7,7.4 6.85,7 6.9,6.8 Q 6.9,6.3 6.55,5.95 L 6.1,5.5 5.5,5.35 M -30.9,-13.8 v 0.05 l -0.4,0.05 -0.15,0.05 -0.25,0.15 -0.25,0.2 -0.2,0.2 -0.2,0.85 0.05,0.45 0.15,0.2 0.15,0.2 0.2,0.25 0.95,0.25 q 0.4,0.1 0.75,-0.2 0.45,-0.3 0.6,-0.85 l 0.05,-0.4 -0.05,-0.25 -0.25,-0.6 -0.2,-0.25 -0.35,-0.2 -0.6,-0.15 m 6.65,-8.8 v 0.05 h -0.5 q -1.45,0.45 -2.45,1.45 l -2.1,2.2 -0.05,0.25 -0.1,0.4 V -18 l -0.05,0.2 0.3,0.8 0.85,0.8 q 5.1,1.75 7.7,-3.45 v -0.45 -0.2 -0.2 -0.25 l -0.65,-1.05 q -1.25,-1.1 -2.95,-0.8 m -10.4,22.55 0.15,-0.2 q 0.45,-0.55 0.25,-1.1 -2.7,-6.35 -0.8,-12.35 0.95,-2.95 2.95,-5.8 l 0.45,-0.6 q 5,-6.65 13.35,-5.15 0.95,0.15 1.5,0.9 l 0.2,0.3 2.25,4.65 q 2.2,5.3 3.45,11 0.2,0.9 0.8,1.45 l 0.35,0.3 q -1.5,3.25 -5.95,3.9 l -0.05,-0.3 -0.3,-0.95 q -0.7,-0.5 -1.45,-0.3 -1.1,0.35 -1.35,1.5 v 0.1 q -0.35,1.4 -0.3,2.9 l -0.3,0.65 -0.2,0.65 -0.2,0.2 -0.25,0.25 -0.25,0.7 -0.15,0.25 q -2.35,0.7 -3.4,-1.45 v -0.1 l -0.05,-0.4 0.2,-0.7 0.1,-0.4 0.15,-1.5 0.4,-1 0.15,-0.5 q 0.35,-1.75 1.75,-3 l 0.1,-0.45 v -0.2 l -0.05,-0.2 -0.4,-0.35 -0.25,-0.1 -0.4,-0.15 -0.35,0.15 -0.7,0.3 -1,1.3 -1.35,2.2 -0.55,1 -0.05,0.65 -0.05,0.45 -0.5,1.5 q -0.25,1 -0.15,1.95 l -0.75,0.05 Q -30.7,2.2 -33.3,0.8 l -1.35,-0.85 m -3.8,11.45 0.35,-0.65 q 2.3,-3.65 6.45,-4.6 6.15,-1 8.45,3.95 0.65,1.45 -0.45,2.6 -5.75,5.9 -13.6,3.65 Q -38.5,16 -39.1,14.8 v -0.2 q 0.95,-1.5 0.65,-3.2"
         fill="#979a8f"
         fill-rule="evenodd"
         stroke="none"
         id="path2" />
      <path
         d="m 14.8,14.7 q 3,-2.15 2.6,-6.6 Q 16.65,0.65 8.3,1.45 6.95,1.6 5.75,2.1 l 0.85,-0.65 1.6,-2 0.4,-0.45 1.45,0.65 q 5.05,2.6 9.85,-0.3 l 0.8,1.55 q -0.15,1.75 0.2,3.55 l 0.15,0.2 0.2,0.2 0.05,0.45 0.05,0.4 0.05,0.25 q 3,4.9 8.5,2.25 1.55,-1.3 1.95,-3.25 1,-5.5 -1.55,-9.5 l 0.6,-0.5 0.95,-0.8 0.35,-0.25 h 0.9 l 0.15,0.1 0.65,0.4 3.15,2.55 0.5,0.7 0.1,0.4 0.05,0.25 0.05,0.2 0.05,0.2 q -0.25,0.95 -0.2,1.95 0,1.75 0.85,3.3 0.3,0.6 0.85,1 0.5,1.8 2.7,3.4 l 0.4,1.75 0.55,1.9 0.35,1.1 -0.5,1.9 q -0.2,1 -0.85,1.7 -5.05,5.8 -12.85,3.1 L 30.55,16.75 30.3,16.1 30,15.65 29.5,15.5 q -5.05,5.8 -12.8,5.6 -0.75,-0.4 -1.35,-0.95 l -1.65,-1 q 2.85,-1.45 4.55,-4.9 L 18.15,13.8 Q 18,13.35 17.45,13.35 L 14.8,14.7 M -7.35,-5.5 q -1.65,2.25 -1.4,5.55 0.1,0.8 0.6,1.25 Q -2.9,6.45 3,3.7 L 1.65,5 q -1.1,1.2 -1.2,2.8 -0.8,0.8 -1,1.9 l -0.05,1.15 -0.2,0.35 -0.2,1.65 0.1,0.25 0.15,0.2 -0.1,0.65 v 0.4 q 1.75,4.5 6.6,5.5 l 1.75,0.3 Q 6,21.55 4,22.4 q -9.7,4.05 -16.5,-2.95 -1.1,-1.1 -2.5,-0.5 -9.65,4.35 -20.15,4.2 l -1.45,-0.8 q -2.1,-1.5 -3.65,-3.6 l -0.85,-1.5 q 0.35,-0.85 1.05,-1.55 l 0.95,-1.1 v 0.2 q 0.6,1.2 1.85,1.55 7.85,2.25 13.6,-3.65 1.1,-1.15 0.45,-2.6 -2.3,-4.95 -8.45,-3.95 -4.15,0.95 -6.45,4.6 l -0.35,0.65 -0.1,-0.5 q -0.3,-1.3 -1.35,-2.05 l 0.25,-2.5 q 0.4,-2.15 1.8,-3.9 l 1.4,-1.5 q 1.1,-0.25 1.8,-1 l 1.35,0.85 q 2.6,1.4 5.65,1.15 L -26.9,1.9 q 0.1,1.3 0.95,2.5 4,5.5 8.25,0.35 2.85,-3.55 2,-7.5 4.45,-0.65 5.95,-3.9 1.35,1.15 2.4,1.15"
         fill="#7b7e75"
         fill-rule="evenodd"
         stroke="none"
         id="path3" />
      <path
         d="m 24.55,-24.15 q 0.2,0.5 0.55,0.85 -1.25,1.55 -1.65,3.35 l -0.55,-0.4 0.05,-0.55 v -0.65 q -0.9,-5.8 -3.5,-11.1 -0.45,-0.9 -1.35,-0.95 -4.6,-0.3 -9,0.8 v -1.75 q 0,-0.85 0.3,-1.7 l 0.55,-1.1 0.3,-0.15 q 1.9,-0.9 4.05,-0.6 l 1.95,0.85 1.95,0.15 q 0.85,-0.5 1.1,-1.45 l 0.1,-1.3 0.05,-0.85 q 0.65,-1.15 1.85,-1.8 l 2.9,-0.25 0.2,0.2 0.35,0.2 0.45,0.25 0.3,0.4 0.25,0.45 0.15,0.2 0.1,0.2 q -1.3,3.25 -4.7,4.2 -0.65,0.2 -0.6,0.7 0.4,4.55 2.75,8.85 l 0.1,0.4 1,2.55"
         fill="#adadad"
         fill-rule="evenodd"
         stroke="none"
         id="path4" />
      <path
         d="m 16.2,-15.25 0.75,0.05 0.6,0.1 q 1.55,1.5 0.3,3.4 l -1.1,1.35 q -1.35,0.8 -2.7,0 L 13.7,-10.8 13.55,-11 q -0.15,-1.45 0.65,-2.65 l 1.05,-1.2 0.95,-0.4 M 5.5,5.35 6.1,5.5 6.55,5.95 Q 6.9,6.3 6.9,6.8 L 6.85,7 6.7,7.4 6.45,7.85 6.1,8.05 5.5,8.2 4.45,7.8 4.25,7.65 4.15,7 Q 4,6.45 4.4,5.95 4.65,5.7 5,5.55 L 5.5,5.35 M -24.25,-22.6 q 1.7,-0.3 2.95,0.8 l 0.65,1.05 v 0.25 0.2 0.2 0.45 q -2.6,5.2 -7.7,3.45 l -0.85,-0.8 -0.3,-0.8 0.05,-0.2 v -0.25 l 0.1,-0.4 0.05,-0.25 2.1,-2.2 q 1,-1 2.45,-1.45 h 0.5 v -0.05 m -6.65,8.8 0.6,0.15 0.35,0.2 0.2,0.25 0.25,0.6 0.05,0.25 -0.05,0.4 q -0.15,0.55 -0.6,0.85 -0.35,0.3 -0.75,0.2 l -0.95,-0.25 -0.2,-0.25 -0.15,-0.2 -0.15,-0.2 -0.05,-0.45 0.2,-0.85 0.2,-0.2 0.25,-0.2 0.25,-0.15 0.15,-0.05 0.4,-0.05 v -0.05"
         fill="#ffffff"
         fill-rule="evenodd"
         stroke="none"
         id="path5" />
    </g>
    <g
       id="sprite1"
       transform="translate(17.4,15.85)">
      <use
         ffdec:characterId="31"
         height="57.200001"
         transform="matrix(0.5366,0,0,0.5366,-16.6582,-14.546)"
         width="70.75"
         xlink:href="#sprite2"
         id="use5" />
    </g>
    <g
       id="sprite2"
       transform="translate(-8.65,-10.35)">
      <use
         ffdec:characterId="30"
         height="57.200001"
         transform="translate(8.65,10.35)"
         width="70.75"
         xlink:href="#shape1"
         id="use6" />
    </g>
    <g
       id="shape1"
       transform="translate(-8.65,-10.35)">
      <path
         d="m 14.8,41.7 q 0.65,-1.75 2.65,-2.5 1.8,-0.8 3.7,-0.25 1.15,0.45 2.25,1.2 l 0.9,0.4 q 1.65,0.9 2.85,2.5 L 37.8,30.1 q 2.35,-2.8 3.75,-3.95 1.5,-1.15 4.25,-2.4 18.2,-8.85 27.65,-12.6 2.15,-0.8 3.25,-0.8 h 0.8 l 1.9,2.4 -0.2,0.8 q -0.2,1.1 -1.55,3 -5.85,8.25 -18.85,23.8 -1.85,2.35 -3.35,3.5 -1.4,1.15 -4.75,2.75 l -15.15,7.15 q 1.2,1.6 1.75,3.4 l 0.2,1 0.55,2.5 q 0.1,1.95 -1.1,3.55 -1.2,1.65 -3.05,1.9 l -1.3,0.05 q -1.65,0.2 -3.45,-0.65 -1.85,-0.9 -3,-2.6 L 25,60.95 23.8,62.1 q -2.6,2.85 -4.3,3.95 -2.85,1.8 -5.5,1.45 l -1.65,-0.5 -1.2,-0.7 -0.2,-0.2 q -1,-0.85 -1.6,-1.9 L 9.25,64 9.15,63.8 8.75,62.4 q -0.2,-0.8 -0.05,-1.7 0.25,-2.65 2.7,-5.05 1.5,-1.3 4.9,-3.15 L 17.7,51.55 16.05,50 q -1.35,-1.5 -1.8,-3.6 -0.4,-1.85 0.25,-3.45 l 0.3,-1.25"
         fill="#000000"
         fill-opacity="0.372549"
         fill-rule="evenodd"
         stroke="none"
         id="path6" />
    </g>
  </defs>
</svg>
