<?xml version="1.0" encoding="UTF-8" standalone="no"?>
<svg
   ffdec:objectType="frame"
   height="54.099998"
   width="82.477272"
   version="1.1"
   id="svg4"
   xmlns:xlink="http://www.w3.org/1999/xlink"
   xmlns="http://www.w3.org/2000/svg"
   xmlns:svg="http://www.w3.org/2000/svg"
   xmlns:ffdec="https://www.free-decompiler.com/flash">
  <g
     transform="translate(40.763636,24.05)"
     id="g1">
    <use
       ffdec:characterId="17"
       height="119.15"
       id="rarity"
       transform="translate(-58.5,-60.65)"
       width="119.15"
       xlink:href="#sprite0" />
    <use
       ffdec:characterId="1310"
       height="54.150002"
       transform="translate(-40.75,-24.05)"
       width="82.449997"
       xlink:href="#shape0"
       id="use1" />
  </g>
  <defs
     id="defs4">
    <g
       id="shape0"
       transform="translate(39.45,22.15)">
      <path
         d="m 35.25,-2.5 1.6,-1.8 0.95,-1.9 0.05,-0.1 q -0.65,-1.5 -1.95,-2.8 -2,-2.05 -5.8,-3.6 -3.45,-1.4 -7.75,-2.35 l -1.1,-0.25 -4.95,-0.8 -4.25,-0.6 -8.1,-0.65 H 3.85 3.4 3.05 -0.3 -0.4 l -8.1,0.65 -3.9,0.55 -0.3,0.65 -1.45,3.9 -0.6,1.55 q -0.45,1.15 -1.1,1.75 -0.95,0.85 -1.9,0.5 -0.6,-0.2 -1.4,-1.3 L -20,-10.35 q -1.55,-2.35 -2.1,-3.85 l -4.45,1.5 q -3.8,1.55 -5.8,3.6 l -0.25,0.65 -0.15,0.9 q 0,0.95 1.1,1.9 l 0.55,0.45 0.05,0.05 q 1.5,1.05 3.8,2.15 5.55,2.65 12.5,4.2 l 0.85,-0.3 6.15,-1 5.65,-0.25 h 3.2 l 16.65,1.25 5.95,1.3 0.1,0.05 q 3.9,-1 7.85,-2.7 l 2.85,-1.5 0.75,-0.55 m -32.4,-19.65 15,1.15 4.4,0.75 6.6,1.95 q 6.05,2.25 9.25,4.9 4.6,3.9 4.9,8.95 0.15,2.65 -1.35,6.85 -1.85,4.8 -5.55,11.3 l -6.35,10.95 -1.35,2.25 -1.8,1.8 -3.35,1.2 q -8.5,1.85 -15.4,2.05 l -6.05,-0.1 -6.1,0.1 q -6.9,-0.2 -15.4,-2.05 -2.5,-0.65 -3.35,-1.2 l -1.8,-1.8 -1.35,-2.25 -6.35,-10.95 q -3.7,-6.5 -5.55,-11.3 -1.5,-4.2 -1.35,-6.85 0.15,-2.25 1.15,-4.25 l 0.55,-1 q 0.95,-1.65 2.55,-3.1 l 0.65,-0.6 q 3.2,-2.65 9.25,-4.9 l 0.45,-0.15 1.4,-0.75 0.6,-0.1 q 0.7,-0.45 1.55,0 l 1.2,1.3 1.35,2.8 1.5,2.2 2.45,-6.15 0.65,-1.2 0.65,-0.5 0.05,-0.25 14.15,-1.05 1.15,0.05 1,-0.05 m -35.8,25 1.05,2.3 3.35,6.5 3.6,6.25 1.75,2.95 1.35,2.3 1.25,1.6 1.45,0.5 3.35,0.75 2.35,0.45 1.4,0.25 11.75,0.45 16.9,-0.6 0.4,-0.1 5.2,-1.05 0.5,-0.15 1.45,-0.5 1.15,-1.35 0.1,-0.25 3.4,-5.7 2.1,-3.6 0.15,-0.25 1.05,-1.95 2.8,-5.3 L 35.5,5.1 37.35,0.8 37.4,0.7 37.25,0.8 Q 35.35,2.2 32.55,3.45 25.15,6.7 18.2,7.4 14.3,7.85 7.55,7.6 L 7.25,7.55 2.55,7.35 -14.4,5.55 -17.1,4.95 -23,3.2 q -3.55,-1.2 -6.85,-2.8 -2.7,-1.2 -4.45,-2.65 l -0.5,-0.5 q 0.1,1.05 0.6,2.45 l 1.25,3.15"
         fill="#000000"
         fill-rule="evenodd"
         stroke="none"
         id="path1" />
      <path
         d="m -14.15,-11.6 1.45,-3.9 0.3,-0.65 3.9,-0.55 8.1,-0.65 h 0.1 3.35 0.35 0.45 0.1 l 8.1,0.65 4.25,0.6 4.95,0.8 1.1,0.25 q 4.3,0.95 7.75,2.35 3.8,1.55 5.8,3.6 1.3,1.3 1.95,2.8 l -0.05,0.1 -0.95,1.9 -1.6,1.8 -0.15,-0.45 q -0.85,-2.85 -4.6,-4.9 -2.95,-1.6 -6.9,-2.45 l -7.35,-1.1 -7.4,-0.6 -13.3,-0.55 -9.7,0.95 m -16.9,6.45 -0.05,-0.05 -0.55,-0.45 q -1.1,-0.95 -1.1,-1.9 l 0.15,-0.9 0.25,-0.65 q 2,-2.05 5.8,-3.6 l 4.45,-1.5 q 0.55,1.5 2.1,3.85 l -6.2,1.9 q -3.15,1.2 -4.3,2.55 l -0.55,0.75 M 35.5,5.1 Q 27.95,9.2 16.6,10.95 2.65,13.1 -8.9,10.9 l -8.4,-2.15 q -9.65,-2.8 -15.65,-5.9 L -34.2,-0.3 q -0.5,-1.4 -0.6,-2.45 l 0.5,0.5 q 1.75,1.45 4.45,2.65 3.3,1.6 6.85,2.8 l 5.9,1.75 2.7,0.6 16.95,1.8 4.7,0.2 0.3,0.05 Q 14.3,7.85 18.2,7.4 25.15,6.7 32.55,3.45 35.35,2.2 37.25,0.8 L 37.4,0.7 37.35,0.8 35.5,5.1"
         fill="#58453c"
         fill-rule="evenodd"
         stroke="none"
         id="path2" />
      <path
         d="m -14.15,-11.6 9.7,-0.95 13.3,0.55 7.4,0.6 7.35,1.1 q 3.95,0.85 6.9,2.45 3.75,2.05 4.6,4.9 l 0.15,0.45 -0.75,0.55 -2.85,1.5 Q 27.7,1.25 23.8,2.25 L 23.7,2.2 17.75,0.9 1.1,-0.35 h -3.2 l -5.65,0.25 -6.15,1 -0.85,0.3 q -6.95,-1.55 -12.5,-4.2 -2.3,-1.1 -3.8,-2.15 l 0.55,-0.75 q 1.15,-1.35 4.3,-2.55 l 6.2,-1.9 0.85,1.25 q 0.8,1.1 1.4,1.3 0.95,0.35 1.9,-0.5 0.65,-0.6 1.1,-1.75 l 0.6,-1.55 m 49.65,16.7 -0.6,1.25 -2.8,5.3 -1.05,1.95 -0.15,0.25 -2.1,3.6 -3.4,5.7 -0.1,0.25 -1.15,1.35 -1.45,0.5 -0.5,0.15 -5.2,1.05 -0.4,0.1 -16.9,0.6 -11.75,-0.45 -1.4,-0.25 -2.35,-0.45 -3.35,-0.75 -1.45,-0.5 -1.25,-1.6 -1.35,-2.3 -1.75,-2.95 -3.6,-6.25 -3.35,-6.5 -1.05,-2.3 q 6,3.1 15.65,5.9 l 8.4,2.15 Q 2.65,13.1 16.6,10.95 27.95,9.2 35.5,5.1"
         fill="#4d3c34"
         fill-rule="evenodd"
         stroke="none"
         id="path3" />
    </g>
    <g
       id="sprite1"
       transform="translate(17.4,15.85)">
      <use
         ffdec:characterId="31"
         height="57.200001"
         transform="matrix(0.5366,0,0,0.5366,-16.6582,-14.546)"
         width="70.75"
         xlink:href="#sprite2"
         id="use3" />
    </g>
    <g
       id="sprite2"
       transform="translate(-8.65,-10.35)">
      <use
         ffdec:characterId="30"
         height="57.200001"
         transform="translate(8.65,10.35)"
         width="70.75"
         xlink:href="#shape1"
         id="use4" />
    </g>
    <g
       id="shape1"
       transform="translate(-8.65,-10.35)">
      <path
         d="m 14.8,41.7 q 0.65,-1.75 2.65,-2.5 1.8,-0.8 3.7,-0.25 1.15,0.45 2.25,1.2 l 0.9,0.4 q 1.65,0.9 2.85,2.5 L 37.8,30.1 q 2.35,-2.8 3.75,-3.95 1.5,-1.15 4.25,-2.4 18.2,-8.85 27.65,-12.6 2.15,-0.8 3.25,-0.8 h 0.8 l 1.9,2.4 -0.2,0.8 q -0.2,1.1 -1.55,3 -5.85,8.25 -18.85,23.8 -1.85,2.35 -3.35,3.5 -1.4,1.15 -4.75,2.75 l -15.15,7.15 q 1.2,1.6 1.75,3.4 l 0.2,1 0.55,2.5 q 0.1,1.95 -1.1,3.55 -1.2,1.65 -3.05,1.9 l -1.3,0.05 q -1.65,0.2 -3.45,-0.65 -1.85,-0.9 -3,-2.6 L 25,60.95 23.8,62.1 q -2.6,2.85 -4.3,3.95 -2.85,1.8 -5.5,1.45 l -1.65,-0.5 -1.2,-0.7 -0.2,-0.2 q -1,-0.85 -1.6,-1.9 L 9.25,64 9.15,63.8 8.75,62.4 q -0.2,-0.8 -0.05,-1.7 0.25,-2.65 2.7,-5.05 1.5,-1.3 4.9,-3.15 L 17.7,51.55 16.05,50 q -1.35,-1.5 -1.8,-3.6 -0.4,-1.85 0.25,-3.45 l 0.3,-1.25"
         fill="#000000"
         fill-opacity="0.372549"
         fill-rule="evenodd"
         stroke="none"
         id="path4" />
    </g>
  </defs>
</svg>
