<?xml version="1.0" encoding="UTF-8" standalone="no"?>
<svg
   ffdec:objectType="frame"
   height="73.054024"
   width="70.863136"
   version="1.1"
   id="svg3"
   xmlns:xlink="http://www.w3.org/1999/xlink"
   xmlns="http://www.w3.org/2000/svg"
   xmlns:svg="http://www.w3.org/2000/svg"
   xmlns:ffdec="https://www.free-decompiler.com/flash">
  <g
     transform="translate(36.192683,43.55)"
     id="g1">
    <use
       ffdec:characterId="17"
       height="119.15"
       id="rarity"
       transform="translate(-58.5,-60.65)"
       width="119.15"
       xlink:href="#sprite0" />
    <use
       ffdec:characterId="435"
       height="73.050003"
       transform="translate(-36.2,-43.55)"
       width="70.849998"
       xlink:href="#shape0"
       id="use1" />
  </g>
  <defs
     id="defs3">
    <g
       id="shape0"
       transform="translate(35.8,42.75)">
      <path
         d="m 9.25,-31.4 q 6.6,2.05 12.45,6.2 4.75,3.4 0.65,6.85 l -1.15,0.8 q -2.05,1.25 -4.25,2.3 1.65,3.75 -1.05,6.4 -2,1.9 -4.4,3.4 l -4.4,2.8 Q 1.15,3.5 -4.3,10.2 q -3.15,3.85 -6.7,7.3 -2.4,4.4 -6.75,6.85 -0.95,0.55 -1.7,-0.2 -1.95,-1.85 -1.5,-4.75 0.4,-2.45 1.4,-4.75 3.55,-8.15 8.4,-15.75 5.75,-8.95 10.5,-18.5 2.3,-4.6 5.8,-8.25 0.5,-0.5 1.3,-0.55 -0.1,-0.65 0.2,-1.25 0.6,-1.35 2.05,-1.65 l 0.55,-0.1 m 0.85,6.15 -7.3,11.7 5.7,-1.65 2.4,-0.65 q 0.05,-2.65 3.25,-4.15 1.2,-0.55 2.3,-1.25 -3.15,-2.25 -6.35,-4 m -14.1,22.5 -8.05,12.9 q 7.8,-9.65 17.3,-17.75 3.1,-2.65 6.65,-4.8 l -0.65,-1.45 -4.15,1 q -1.4,0.35 -2.65,1.1 l -1.95,0.5 -1.5,0.9 -0.25,0.1 -4.75,7.5 m 27.2,14.45 1.7,0.2 1,0.55 q 4.55,0.25 8.35,2.5 0.95,0.6 0.8,1.85 -3.5,3.5 -8.8,4.8 -14.65,3.55 -28.85,8.4 -3.45,1.15 -3.7,-2.05 -0.1,-1.65 0.2,-3.25 0.9,-4.5 2.4,-8.65 0.2,-0.55 0.8,-0.75 2.65,-2.9 7.3,-3 l 18.8,-0.6 m -0.6,5.4 -8.85,-0.9 -0.05,0.05 q -3.1,2.25 -5.75,5 L 22.6,17.1 M 8.45,16.1 Q 5.3,16.4 2.4,17.55 1.1,18.05 -0.05,18.8 l -0.45,1.25 -0.25,2.2 q -0.1,0.85 -0.45,1.7 l 5.8,-1.7 Q 6.5,19.65 9,17.4 l 1.35,-1.3 h -1.9 m -33.3,-45.35 -1.15,5.8 -0.5,1.7 -0.7,4.1 -0.45,1.25 q 0.1,1.1 -0.1,2.15 -0.1,0.5 -0.35,0.85 0.1,1 -0.15,1.95 l -0.35,0.65 q 0,2.3 -0.75,4.45 l -0.4,1.55 q 3.05,2.25 2.9,6.25 L -27,2.5 q 1.15,0.85 3.4,0 l 0.35,-4.1 0.35,-1.15 v -1.3 l -1,-18.8 -0.3,-3.1 -0.65,-3.3 m 1.2,-13.5 q 2.05,0.4 2.05,2.5 0.05,0.65 -0.2,1.25 l 0.65,9.1 0.75,7.45 q 0.2,2.15 0.05,4.3 0.45,1.3 0.4,2.75 l -0.05,1.5 q 0.45,5.55 0.35,11.25 1.25,4.9 -0.05,9.5 -0.1,0.45 -0.65,0.6 -5.95,1.65 -11.6,-0.05 -1,-0.3 -0.9,-1.3 0.1,-2.35 0.6,-4.75 V 1.15 L -32.3,0.95 -32.5,0.5 q -4.5,-1.45 -2.85,-5.4 l 0.75,-1.25 q 0.7,-2.35 0.9,-4.75 0.1,-1.35 0.9,-2.55 1.6,-8.35 3.8,-16.7 l 1.55,-5.6 q 0.35,-2.85 1.6,-5.4 0.7,-1.45 2.2,-1.6"
         fill="#000000"
         fill-rule="evenodd"
         stroke="none"
         id="path1" />
      <path
         d="m -4,-2.75 4.75,-7.5 0.25,-0.1 1.5,-0.9 1.95,-0.5 q 1.25,-0.75 2.65,-1.1 l 4.15,-1 0.65,1.45 q -3.55,2.15 -6.65,4.8 -9.5,8.1 -17.3,17.75 L -4,-2.75 m 14.1,-22.5 q 3.2,1.75 6.35,4 -1.1,0.7 -2.3,1.25 -3.2,1.5 -3.25,4.15 l -2.4,0.65 -5.7,1.65 7.3,-11.7 m -34.95,-4 0.65,3.3 0.3,3.1 1,18.8 v 1.3 l -0.35,1.15 -0.35,4.1 q -2.25,0.85 -3.4,0 l 0.15,-1.05 q 0.15,-4 -2.9,-6.25 l 0.4,-1.55 q 0.75,-2.15 0.75,-4.45 l 0.35,-0.65 q 0.25,-0.95 0.15,-1.95 0.25,-0.35 0.35,-0.85 0.2,-1.05 0.1,-2.15 l 0.45,-1.25 0.7,-4.1 0.5,-1.7 1.15,-5.8 M 8.45,16.1 h 1.9 L 9,17.4 q -2.5,2.25 -4.4,4.85 l -5.8,1.7 q 0.35,-0.85 0.45,-1.7 l 0.25,-2.2 0.45,-1.25 Q 1.1,18.05 2.4,17.55 5.3,16.4 8.45,16.1 m 14.15,1 -14.65,4.15 q 2.65,-2.75 5.75,-5 l 0.05,-0.05 8.85,0.9"
         fill="#857f7f"
         fill-rule="evenodd"
         stroke="none"
         id="path2" />
    </g>
    <g
       id="sprite1"
       transform="translate(17.4,15.85)">
      <use
         ffdec:characterId="31"
         height="57.200001"
         transform="matrix(0.5366,0,0,0.5366,-16.6582,-14.546)"
         width="70.75"
         xlink:href="#sprite2"
         id="use2" />
    </g>
    <g
       id="sprite2"
       transform="translate(-8.65,-10.35)">
      <use
         ffdec:characterId="30"
         height="57.200001"
         transform="translate(8.65,10.35)"
         width="70.75"
         xlink:href="#shape1"
         id="use3" />
    </g>
    <g
       id="shape1"
       transform="translate(-8.65,-10.35)">
      <path
         d="m 14.8,41.7 q 0.65,-1.75 2.65,-2.5 1.8,-0.8 3.7,-0.25 1.15,0.45 2.25,1.2 l 0.9,0.4 q 1.65,0.9 2.85,2.5 L 37.8,30.1 q 2.35,-2.8 3.75,-3.95 1.5,-1.15 4.25,-2.4 18.2,-8.85 27.65,-12.6 2.15,-0.8 3.25,-0.8 h 0.8 l 1.9,2.4 -0.2,0.8 q -0.2,1.1 -1.55,3 -5.85,8.25 -18.85,23.8 -1.85,2.35 -3.35,3.5 -1.4,1.15 -4.75,2.75 l -15.15,7.15 q 1.2,1.6 1.75,3.4 l 0.2,1 0.55,2.5 q 0.1,1.95 -1.1,3.55 -1.2,1.65 -3.05,1.9 l -1.3,0.05 q -1.65,0.2 -3.45,-0.65 -1.85,-0.9 -3,-2.6 L 25,60.95 23.8,62.1 q -2.6,2.85 -4.3,3.95 -2.85,1.8 -5.5,1.45 l -1.65,-0.5 -1.2,-0.7 -0.2,-0.2 q -1,-0.85 -1.6,-1.9 L 9.25,64 9.15,63.8 8.75,62.4 q -0.2,-0.8 -0.05,-1.7 0.25,-2.65 2.7,-5.05 1.5,-1.3 4.9,-3.15 L 17.7,51.55 16.05,50 q -1.35,-1.5 -1.8,-3.6 -0.4,-1.85 0.25,-3.45 l 0.3,-1.25"
         fill="#000000"
         fill-opacity="0.372549"
         fill-rule="evenodd"
         stroke="none"
         id="path3" />
    </g>
  </defs>
</svg>
