<?xml version="1.0" encoding="UTF-8" standalone="no"?>
<svg
   ffdec:objectType="frame"
   height="65.721916"
   width="80.954414"
   version="1.1"
   id="svg4"
   sodipodi:docname="ITEM Fatty Hat.svg"
   xmlns:inkscape="http://www.inkscape.org/namespaces/inkscape"
   xmlns:sodipodi="http://sodipodi.sourceforge.net/DTD/sodipodi-0.dtd"
   xmlns:xlink="http://www.w3.org/1999/xlink"
   xmlns="http://www.w3.org/2000/svg"
   xmlns:svg="http://www.w3.org/2000/svg"
   xmlns:ffdec="https://www.free-decompiler.com/flash">
  <sodipodi:namedview
     id="namedview4"
     pagecolor="#ffffff"
     bordercolor="#000000"
     borderopacity="0.25"
     inkscape:showpageshadow="2"
     inkscape:pageopacity="0.0"
     inkscape:pagecheckerboard="0"
     inkscape:deskcolor="#d1d1d1"
     fit-margin-top="5"
     fit-margin-left="5"
     fit-margin-right="5"
     fit-margin-bottom="5" />
  <g
     transform="translate(42.35119,32.171918)"
     id="g1">
    <use
       ffdec:characterId="17"
       height="119.15"
       id="rarity"
       transform="translate(-58.5,-60.65)"
       width="119.15"
       xlink:href="#sprite0" />
    <use
       ffdec:characterId="1240"
       height="65.75"
       transform="translate(-42.35,-32.15)"
       width="80.949997"
       xlink:href="#shape0"
       id="use1" />
  </g>
  <defs
     id="defs4">
    <g
       id="shape0"
       transform="translate(41.05,30.25)">
      <path
         d="m 37.5,7.8 q 1.9,2.2 2.3,5.35 0.4,3 -0.75,5.8 Q 37,24.1 31.15,27.5 25,31.2 15.55,32.2 l -8.8,-0.35 -0.3,-0.1 -1.1,1.2 q -0.8,0.7 -2.75,1.6 L 0.75,35.3 -3,35.45 q -2.25,-0.1 -3.2,-0.6 l -1.85,-1.2 -1,-1.35 H -11 l -1.65,0.25 -1.7,0.4 q -7,1.55 -14.95,-2.1 -3.65,-1.6 -6.05,-3.8 -3.25,-3.05 -4.7,-7.55 -1.45,-4.4 -0.8,-8.85 0.75,-4.4 3.4,-8.25 2.45,-3.8 6.35,-6.3 l 2.1,-0.9 0.3,-2.7 q 1.1,-6.45 4.15,-10.7 1.8,-2.45 4.8,-4.95 4.05,-3.4 8.25,-5.05 6.8,-2.75 18.3,-1.85 6.4,0.55 10.7,1.7 5.65,1.65 9.45,4.7 2.45,2 4.8,5.2 4.4,5.6 5.75,10.15 1.65,5.45 0.1,11 Q 37,4.85 36.05,6.65 36.8,7 37.5,7.8 M 28.85,-14.05 26.8,-16.6 q -2.1,-2.35 -4.3,-3.9 -4,-2.8 -11.7,-3.9 -10.4,-1.6 -17.8,0.3 -4.5,1.15 -8.15,3.55 -3.9,2.65 -6.2,6.35 -1.3,2.1 -2.05,4.65 l -0.9,3.95 q -0.35,2.7 0.2,4.3 l 0.95,2.4 q 0.5,1.6 -0.35,2.45 l -0.2,0.25 q -0.45,0.35 -1.1,0.35 -0.85,0.05 -1.5,-0.4 -1,-0.65 -1.75,-2.45 l -0.3,-0.75 -0.1,-0.3 -0.35,0.25 q -1.9,1.35 -3.3,3.2 -2.15,2.65 -3.1,5.7 -0.65,2 -0.65,4.05 l 0.2,2.4 q 0.55,3.45 2.6,5.95 2.6,3.15 8.55,5.4 4.4,1.65 7.5,1.35 l 3.55,-0.75 3.4,-0.35 0.45,0.15 0.85,-1.5 2.25,-2 1,-0.6 1.1,0.1 0.15,0.1 q 0.65,0.5 0.35,1.45 -0.25,0.7 -1.3,1.75 -0.45,0.8 -0.25,1.75 l 0.05,0.25 q 0.2,0.75 0.9,1.2 L -3.15,30.55 -1,30.6 1,30.05 2.35,29.35 3.1,28.65 4.3,26.6 5.2,26.15 Q 5.55,25.9 5.85,25.9 l 0.7,0.15 0.35,0.1 0.5,0.9 0.4,1.65 q 12.55,-0.7 20.05,-4.6 2.1,-1.05 3.45,-2.2 l 2.1,-2.2 1.1,-1.95 Q 36.2,14.3 34.65,12 l -1.2,-1.4 -0.1,-0.1 -0.6,0.6 -1,0.8 q -1.95,1.65 -5.7,3.45 -5.1,2.45 -9.1,3.35 -1.75,0.25 -1.7,-0.7 0,-0.3 0.6,-0.8 1.55,-1.25 4.1,-2.75 l 4.4,-2.5 q 5.35,-3.3 7.4,-6.85 1.4,-2.45 1.6,-5.6 0.25,-2.95 -0.55,-5.95 -1.05,-3.75 -3.95,-7.6 M -12.7,10.25 -12.95,7.8 q 0.05,-0.95 0.55,-1.5 0.25,-0.35 0.65,-0.45 l 0.8,0.1 q 0.45,0.25 0.8,1.35 0.7,2.65 2.35,4.65 1.85,2.15 4.25,2.95 1.45,0.5 3.45,0.6 l 3.5,0.05 Q 7.8,15.5 10.05,17.15 8.6,18.4 4.85,19.2 L 0.3,19.9 -4.2,19.65 q -2.8,-0.7 -5.05,-2.8 -2.15,-2.05 -3,-4.85 l -0.45,-1.75 m -3.65,-5.45 0.25,1.3 1.75,4.45 0.1,0.55 q 0.3,1.05 -0.6,1.85 -0.9,0.75 -1.95,0.3 -0.65,-0.4 -1.15,-1.55 l -0.4,-1.25 -0.35,-1.45 -0.15,-0.6 0.05,-1.1 -0.05,-0.55 0.1,-1 0.25,-1.5 0.3,-0.75 q 0.2,-0.4 0.8,-0.45 0.55,0 0.85,0.5 0.2,0.25 0.2,1.25"
         fill="#000000"
         fill-rule="evenodd"
         stroke="none"
         id="path1" />
      <path
         d="m -23.4,-9.55 q 0.75,-2.55 2.05,-4.65 2.3,-3.7 6.2,-6.35 3.65,-2.4 8.15,-3.55 7.4,-1.9 17.8,-0.3 7.7,1.1 11.7,3.9 2.2,1.55 4.3,3.9 l 2.05,2.55 0.5,1.1 q 0.9,2.65 0.1,5.7 -0.7,2.8 -2.65,5.15 -2.95,3.45 -9.4,6.65 -3.8,1.8 -5.75,2.6 L 8.15,8.35 4.45,8.8 Q 2.7,8.7 -0.35,7.65 -8.9,4.55 -15.3,0.1 q -4.85,-3.3 -6.85,-6.65 -1,-1.6 -1.25,-3 m 56.15,20.65 0.6,-0.6 0.1,0.1 1.2,1.4 q 1.55,2.3 -0.15,5.75 l -1.1,1.95 -0.2,-0.55 -0.05,-1.5 0.05,-2.35 q 0,-2.15 -0.3,-3.2 l -0.2,-0.8 0.05,-0.2 M -5.4,28.9 -5.45,28.65 q -0.2,-0.95 0.25,-1.75 1.05,-1.05 1.3,-1.75 0.3,-0.95 -0.35,-1.45 l 0.5,-0.3 q 1.35,-0.65 2.45,-0.7 l 2.95,0.05 q 1.45,0.4 1.95,1.9 0.55,1.4 -0.3,2.75 l -1.65,1.55 -1.15,0.7 -0.85,0.4 -1.1,0.3 -1.65,0.05 Q -4.55,30.15 -5.4,28.9 M -35.85,13.45 q 0,-2.05 0.65,-4.05 0.95,-3.05 3.1,-5.7 1.4,-1.85 3.3,-3.2 l 0.45,0.05 0.3,0.75 q 0.75,1.8 1.75,2.45 0.65,0.45 1.5,0.4 0.65,0 1.1,-0.35 l 0.55,0.7 q 0.95,1.35 1,2.65 0.1,1.35 -0.65,2.7 -0.7,1.2 -1.95,2.05 -1.75,1.25 -5.3,2 l -2.9,0.4 q -1.6,0 -2.85,-0.85 h -0.05"
         fill="#c39a9a"
         fill-rule="evenodd"
         stroke="none"
         id="path2" />
      <path
         d="m -23.4,-9.55 q 0.25,1.4 1.25,3 2,3.35 6.85,6.65 6.4,4.45 14.95,7.55 3.05,1.05 4.8,1.15 l 3.7,-0.45 3.5,-1.2 q 1.95,-0.8 5.75,-2.6 6.45,-3.2 9.4,-6.65 1.95,-2.35 2.65,-5.15 0.8,-3.05 -0.1,-5.7 l -0.5,-1.1 q 2.9,3.85 3.95,7.6 0.8,3 0.55,5.95 -0.2,3.15 -1.6,5.6 -2.05,3.55 -7.4,6.85 l -4.4,2.5 q -2.55,1.5 -4.1,2.75 -0.6,0.5 -0.6,0.8 -0.05,0.95 1.7,0.7 4,-0.9 9.1,-3.35 3.75,-1.8 5.7,-3.45 l 1,-0.8 -0.05,0.2 0.2,0.8 q 0.3,1.05 0.3,3.2 l -0.05,2.35 0.05,1.5 0.2,0.55 -2.1,2.2 Q 29.95,23.05 27.85,24.1 20.35,28 7.8,28.7 L 7.4,27.05 6.9,26.15 6.55,26.05 5.85,25.9 q -0.3,0 -0.65,0.25 L 4.3,26.6 3.1,28.65 2.35,29.35 1,30.05 -1,30.6 -3.15,30.55 -4.5,30.1 q -0.7,-0.45 -0.9,-1.2 0.85,1.25 2.3,1.5 l 1.65,-0.05 1.1,-0.3 0.85,-0.4 1.15,-0.7 L 3.3,27.4 Q 4.15,26.05 3.6,24.65 3.1,23.15 1.65,22.75 L -1.3,22.7 q -1.1,0.05 -2.45,0.7 l -0.5,0.3 -0.15,-0.1 -1.1,-0.1 -1,0.6 -2.25,2 -0.85,1.5 -0.45,-0.15 -3.4,0.35 -3.55,0.75 q -3.1,0.3 -7.5,-1.35 -5.95,-2.25 -8.55,-5.4 -2.05,-2.5 -2.6,-5.95 l -0.2,-2.4 h 0.05 q 1.25,0.85 2.85,0.85 l 2.9,-0.4 q 3.55,-0.75 5.3,-2 1.25,-0.85 1.95,-2.05 0.75,-1.35 0.65,-2.7 -0.05,-1.3 -1,-2.65 l -0.55,-0.7 0.2,-0.25 q 0.85,-0.85 0.35,-2.45 l -0.95,-2.4 q -0.55,-1.6 -0.2,-4.3 l 0.9,-3.95 m 7.05,14.35 q 0,-1 -0.2,-1.25 -0.3,-0.5 -0.85,-0.5 -0.6,0.05 -0.8,0.45 l -0.3,0.75 -0.25,1.5 -0.1,1 0.05,0.55 -0.05,1.1 0.15,0.6 0.35,1.45 0.4,1.25 q 0.5,1.15 1.15,1.55 1.05,0.45 1.95,-0.3 0.9,-0.8 0.6,-1.85 l -0.1,-0.55 -1.75,-4.45 -0.25,-1.3 m 3.65,5.45 0.45,1.75 q 0.85,2.8 3,4.85 2.25,2.1 5.05,2.8 L 0.3,19.9 4.85,19.2 Q 8.6,18.4 10.05,17.15 7.8,15.5 3.4,15.55 L -0.1,15.5 q -2,-0.1 -3.45,-0.6 -2.4,-0.8 -4.25,-2.95 -1.65,-2 -2.35,-4.65 -0.35,-1.1 -0.8,-1.35 l -0.8,-0.1 q -0.4,0.1 -0.65,0.45 -0.5,0.55 -0.55,1.5 l 0.25,2.45"
         fill="#a88585"
         fill-rule="evenodd"
         stroke="none"
         id="path3" />
    </g>
    <g
       id="sprite1"
       transform="translate(17.4,15.85)">
      <use
         ffdec:characterId="31"
         height="57.200001"
         transform="matrix(0.5366,0,0,0.5366,-16.6582,-14.546)"
         width="70.75"
         xlink:href="#sprite2"
         id="use3" />
    </g>
    <g
       id="sprite2"
       transform="translate(-8.65,-10.35)">
      <use
         ffdec:characterId="30"
         height="57.200001"
         transform="translate(8.65,10.35)"
         width="70.75"
         xlink:href="#shape1"
         id="use4" />
    </g>
    <g
       id="shape1"
       transform="translate(-8.65,-10.35)">
      <path
         d="m 14.8,41.7 q 0.65,-1.75 2.65,-2.5 1.8,-0.8 3.7,-0.25 1.15,0.45 2.25,1.2 l 0.9,0.4 q 1.65,0.9 2.85,2.5 L 37.8,30.1 q 2.35,-2.8 3.75,-3.95 1.5,-1.15 4.25,-2.4 18.2,-8.85 27.65,-12.6 2.15,-0.8 3.25,-0.8 h 0.8 l 1.9,2.4 -0.2,0.8 q -0.2,1.1 -1.55,3 -5.85,8.25 -18.85,23.8 -1.85,2.35 -3.35,3.5 -1.4,1.15 -4.75,2.75 l -15.15,7.15 q 1.2,1.6 1.75,3.4 l 0.2,1 0.55,2.5 q 0.1,1.95 -1.1,3.55 -1.2,1.65 -3.05,1.9 l -1.3,0.05 q -1.65,0.2 -3.45,-0.65 -1.85,-0.9 -3,-2.6 L 25,60.95 23.8,62.1 q -2.6,2.85 -4.3,3.95 -2.85,1.8 -5.5,1.45 l -1.65,-0.5 -1.2,-0.7 -0.2,-0.2 q -1,-0.85 -1.6,-1.9 L 9.25,64 9.15,63.8 8.75,62.4 q -0.2,-0.8 -0.05,-1.7 0.25,-2.65 2.7,-5.05 1.5,-1.3 4.9,-3.15 L 17.7,51.55 16.05,50 q -1.35,-1.5 -1.8,-3.6 -0.4,-1.85 0.25,-3.45 l 0.3,-1.25"
         fill="#000000"
         fill-opacity="0.372549"
         fill-rule="evenodd"
         stroke="none"
         id="path4" />
    </g>
  </defs>
</svg>
