<?xml version="1.0" encoding="UTF-8" standalone="no"?>
<svg
   ffdec:objectType="frame"
   height="86.595596"
   width="86.104996"
   version="1.1"
   id="svg5"
   xmlns:xlink="http://www.w3.org/1999/xlink"
   xmlns="http://www.w3.org/2000/svg"
   xmlns:svg="http://www.w3.org/2000/svg"
   xmlns:ffdec="https://www.free-decompiler.com/flash">
  <g
     transform="translate(42.452381,44.184483)"
     id="g1">
    <use
       ffdec:characterId="17"
       height="119.15"
       id="rarity"
       transform="translate(-58.5,-60.65)"
       width="119.15"
       xlink:href="#sprite0" />
    <use
       ffdec:characterId="648"
       height="86.599998"
       transform="translate(-42.45,-44.2)"
       width="86.099998"
       xlink:href="#shape0"
       id="use1" />
  </g>
  <defs
     id="defs5">
    <g
       id="shape0"
       transform="translate(42.05,43.4)">
      <path
         d="m 7.2,-22.35 -0.35,0.5 0.2,0.3 1.05,1.05 q -1.4,1.4 -1.75,2.3 -0.3,0.65 -0.3,1.75 0,1 0.15,1.5 0.3,1.15 1.25,1.95 1,0.8 2.15,0.85 1.15,0.05 2.25,-0.65 1.05,-0.65 1.45,-1.75 l 0.35,-2 0.15,-1.5 0.15,-0.45 3.8,-0.2 q 1.05,-0.25 2.25,-0.85 l -0.5,0.75 -0.8,0.7 -0.8,1.2 0.2,-0.4 q -0.6,0.65 -0.9,1.55 l 0.05,-0.05 -0.25,0.2 q -0.7,2.55 -0.85,5.15 l -0.2,2.35 -0.75,0.7 -2.25,1.6 -0.4,0.2 -0.25,0.25 -0.2,0.2 Q 9.2,-2.65 6.15,-0.3 L 5.25,0.35 4.9,-0.7 3.8,-2.3 4,-2.9 4.15,-3.4 4.6,-3.9 5.55,-5.75 q 0.5,-1.3 -0.25,-2.5 -0.8,-1.1 -2.2,-1.2 L 3.05,-9.4 Q 2.2,-9.35 1.45,-8.8 0.7,-8.3 0.4,-7.5 l -0.25,0.95 -0.1,0.8 v 0.9 l -0.2,0.85 -0.25,0.55 -1.85,0.65 0.05,-0.3 2.85,-9.4 3.5,-5.45 2.25,-3.25 0.8,-1.15 m 25.05,-11.7 -0.45,-0.2 -1.35,-0.2 H 29.9 l -0.45,-2.25 -0.1,-0.15 -0.35,-0.6 0.8,0.15 1.3,0.35 0.55,0.2 h 0.1 l 0.1,0.05 0.9,0.35 0.15,0.05 0.1,0.05 0.15,0.05 0.25,0.15 0.3,0.15 -0.1,0.15 -0.25,0.25 -0.8,0.8 -0.3,0.65 m -10.6,16.45 2.35,-3.5 0.6,-0.2 0.2,-0.15 2.65,-3.8 1.55,-2 q 1.05,0.8 2.5,0.55 1.45,-0.3 2.15,-1.6 l 0.35,-1.1 0.2,-1.45 q 0,-1.15 -0.65,-2.1 l 1.65,-1.95 0.85,0.75 -0.25,1.75 q -2.4,7.45 -7.85,13.3 l -2.85,2.95 q -0.75,-1.7 -2.5,-2.25 l -0.35,-0.1 -0.6,0.9 M -8.45,10.45 -8.15,9.9 -7.8,9.4 -7.4,8.9 -7.05,8.65 Q -6.1,7.95 -5,5.75 L -3.85,3.4 Q -3.5,4.8 -2,5.6 h 0.05 L -2.7,6.25 -8,10.2 -8.45,10.45 m -4.65,-3.55 1.35,1.7 q 0.8,0.6 1.85,0.75 l -0.7,1.15 -0.5,0.45 -0.1,0.45 -0.1,0.4 -0.2,0.25 -0.15,0.2 v 0.1 q -3.85,2.1 -8,3.7 l -1.2,-0.2 2.55,-3 0.7,0.5 1.65,0.35 q 0.95,-0.1 1.6,-0.65 0.7,-0.5 0.95,-1.4 0.25,-0.85 0,-1.7 -0.2,-0.8 -0.95,-1.4 l -0.1,-0.1 1.35,-1.55"
         fill="#775b5b"
         fill-rule="evenodd"
         stroke="none"
         id="path1" />
      <path
         d="m 24.6,-43.35 q 9.85,-0.5 16.35,6.25 3.05,3.15 3.1,7.5 0.15,12.1 -8.3,20 0.05,7.9 -0.8,16.55 L 34,13.25 q -0.6,2.85 -1.8,4.05 -1.3,1.3 -3.5,1.55 -2.8,0.25 -4.65,-1.1 -2.2,-1.6 -2.75,-5.35 -0.25,-1.5 -0.15,-3.8 -1.3,0.7 -2.4,0.5 l -1.1,-0.3 -1,-0.15 Q 16.05,8.5 15.25,7.8 14.4,7 13.95,6.05 12.7,6.75 11.4,7.5 q 1.1,2.2 0.3,4.55 l -0.5,1.35 q -1.25,2.55 -2.7,3.45 -1.3,0.8 -3.9,0.8 -2.85,0 -4.35,-0.75 l -1.4,-1 -5.55,4.05 -1.85,1.35 q -2.1,3.4 -5.5,6.1 -7.55,5.95 -14.75,12.35 -2.5,2.3 -5.75,3.15 -5.45,1.4 -7.1,-3.5 -0.65,-1.85 -0.25,-3.75 0.45,-2.1 2.05,-3.6 l 1.95,-3.25 5.05,-7.05 0.95,-1.05 q 5.65,-8.15 12.5,-15.45 6.15,-6.6 11,-14.15 l 5.15,-8.65 q 4.6,-8.3 10.9,-15.15 6,-6.5 14.05,-9.7 l 2.9,-0.95 m 4.4,5.9 h -0.2 l -0.45,-0.1 h -0.1 L 25.4,-37.7 q -3,1.15 -5.7,2.75 l -3.45,2.4 q -4,3.15 -7.15,7.5 l -0.1,0.15 -0.2,0.3 -1.15,1.65 -0.45,0.6 -0.8,1.15 -2.25,3.25 -3.5,5.45 -2.85,9.4 -0.05,0.3 -0.3,1.95 L -2.7,0.55 -2.85,1 -2.9,1.25 -2.95,1.3 l -0.2,0.2 -0.2,0.2 -0.45,1 -0.05,0.15 -0.15,0.2 -0.4,0.85 -2.1,3.6 -0.25,0.4 -0.7,1 h 0.05 l -0.4,0.5 -0.35,0.5 -0.3,0.55 -0.4,0.95 -0.2,0.2 -0.25,0.2 q -1.85,3.6 -4.35,6.85 Q -6.6,12.75 1,7.6 6.9,3.55 13.1,-0.15 l 1.05,-0.6 0.35,-0.65 0.85,-1.5 0.6,-5.2 0.2,-2.35 q 0.15,-2.6 0.85,-5.15 l 0.25,-0.2 0.2,-0.2 0.45,-0.9 0.8,-1.2 0.8,-0.7 0.5,-0.75 q 2.25,-3.35 5.2,-6.15 l 1.9,-2.1 0.05,-0.25 0.1,-0.2 0.35,-0.3 1.15,-1.1 0.65,-0.7 v -0.05 l 2.05,-2.45 0.8,-1.2 0.3,-0.65 0.8,-0.8 0.25,-0.25 0.1,-0.15 -0.3,-0.15 -0.25,-0.15 -0.15,-0.05 -0.1,-0.05 -0.15,-0.05 -0.9,-0.35 -0.1,-0.05 h -0.1 l -0.55,-0.2 -1.3,-0.35 -0.8,-0.15 m 0,10.2 -1.55,2 -2.65,3.8 -0.2,0.15 -0.6,0.2 -2.35,3.5 -0.25,0.45 -0.3,0.45 -0.15,0.25 q -0.65,1.05 -1.05,2.25 l -0.1,2.85 -0.05,0.95 -0.5,6.3 q 7.2,-5.1 13.4,-11.35 l 3.15,-3.35 0.4,-1.05 0.25,-0.65 0.25,-0.45 1,-4.95 q 0.6,-2.9 0.15,-5.8 l -0.15,-0.6 -1.65,-1.85 -0.85,-0.75 -1.65,1.95 -4.55,5.7 m -3.15,25.3 Q 22.05,0.95 18,3.55 18.45,4.1 19.3,4 20.15,3.95 20.8,3.25 l 0.8,-0.9 0.55,-0.4 0.1,-0.2 q 0.55,-0.8 1.65,-0.85 1.15,-0.05 1.8,0.7 0.75,0.9 0.65,3.15 l -0.1,3.1 q 0,3.05 0.4,4.25 0.25,0.8 0.75,1.2 0.7,0.6 1.3,0.2 0.6,-0.3 0.8,-1.4 0.8,-4.05 1.2,-9.3 l 0.45,-8.7 -5.3,3.95 m -19,13.2 0.6,-1.2 -4.2,2.8 h 1.4 l 1.2,-0.35 q 0.5,-0.25 1,-1.25 M -9.9,9.35 -8.8,7.5 -8,6.25 -7.55,5.5 q 0.35,-0.55 0.3,-1.2 l 0.4,-0.4 0.2,-0.25 0.05,-0.2 0.1,-0.2 0.85,-1.1 0.05,-0.2 V 1.5 L -5.65,1.1 -5.45,0.45 -5.3,0 -5.4,-2.45 q -1.65,2.7 -3.8,5.05 l -3.9,4.3 -1.35,1.55 -3.85,4.4 -2.55,3 -5.1,6.2 -6.3,8.45 q -2.55,3.4 -3.8,7.2 5.55,-3.5 10.7,-8.5 l 0.65,-0.6 0.05,-0.1 0.1,-0.05 0.05,-0.05 0.2,-0.3 0.2,-0.1 1.35,-1.25 0.55,-0.8 0.15,-0.2 5.25,-5.35 0.1,-0.45 0.05,-0.2 q 2.25,-2.9 4.15,-6.05 l 0.7,-0.8 0.1,-0.45 0.05,-0.1 v -0.1 l 0.15,-0.2 0.2,-0.25 0.1,-0.4 0.1,-0.45 0.5,-0.45 0.7,-1.15"
         fill="#000000"
         fill-rule="evenodd"
         stroke="none"
         id="path2" />
      <path
         d="m 25.1,-16.15 2.85,-2.95 q 5.45,-5.85 7.85,-13.3 l 0.25,-1.75 1.65,1.85 0.15,0.6 q 0.45,2.9 -0.15,5.8 v -0.05 l -0.6,-0.1 q -1.5,-0.05 -2.75,0.8 l -1.5,1.4 -1.2,1.45 q -0.95,1.55 -0.9,3.25 0,0.8 0.3,1.55 0.25,0.75 1.05,1.65 l 0.55,0.5 q -6.2,6.25 -13.4,11.35 l 0.5,-6.3 2.45,0.15 q 1.95,-0.5 2.8,-2.2 0.9,-1.7 0.15,-3.55 L 25.1,-16.15 M 5.25,0.35 6.15,-0.3 Q 9.2,-2.65 12.1,-5.15 l 0.2,-0.2 0.25,-0.25 0.4,-0.2 2.25,-1.6 0.75,-0.7 -0.6,5.2 -0.85,1.5 -0.35,0.65 -1.05,0.6 Q 6.9,3.55 1,7.6 q -7.6,5.15 -14.65,11.05 2.5,-3.25 4.35,-6.85 l 0.25,-0.2 0.2,-0.2 0.4,-0.95 0.45,-0.25 5.3,-3.95 0.75,-0.65 0.2,0.1 q 1.8,0.8 3.9,0.05 l 0.8,-0.4 1.2,-1.1 0.8,-1.1 Q 5.55,1.8 5.25,0.4 V 0.35 m -16.9,12 -0.05,0.1 -0.1,0.45 -0.7,0.8 q -1.9,3.15 -4.15,6.05 l -0.05,0.2 -0.1,0.45 -5.25,5.35 -0.15,0.2 -0.55,0.8 -1.35,1.25 -0.2,0.1 -0.2,0.3 -0.05,0.05 -0.1,0.05 -0.05,0.1 -0.65,0.6 q -5.15,5 -10.7,8.5 1.25,-3.8 3.8,-7.2 l 6.3,-8.45 5.1,-6.2 1.2,0.2 q 4.15,-1.6 8,-3.7"
         fill="#5f4646"
         fill-rule="evenodd"
         stroke="none"
         id="path3" />
      <path
         d="m 7.2,-22.35 0.45,-0.6 1.15,-1.65 0.2,-0.3 0.1,-0.15 q 3.15,-4.35 7.15,-7.5 l 3.45,-2.4 q 2.7,-1.6 5.7,-2.75 l 2.85,0.15 h 0.1 l 0.45,0.1 H 29 l 0.35,0.6 0.1,0.15 0.45,2.25 h 0.55 l 1.35,0.2 0.45,0.2 -0.8,1.2 -2.05,2.45 v 0.05 l -0.65,0.7 -1.15,1.1 -0.35,0.3 -0.1,0.2 -0.05,0.25 -1.9,2.1 q -2.95,2.8 -5.2,6.15 -1.2,0.6 -2.25,0.85 l -3.8,0.2 -0.15,0.45 -0.15,1.5 -0.35,2 q -0.4,1.1 -1.45,1.75 -1.1,0.7 -2.25,0.65 Q 8.45,-12.2 7.45,-13 6.5,-13.8 6.2,-14.95 q -0.15,-0.5 -0.15,-1.5 0,-1.1 0.3,-1.75 0.35,-0.9 1.75,-2.3 l -1.05,-1.05 -0.2,-0.3 0.35,-0.5 m 14.45,4.75 0.6,-0.9 0.35,0.1 q 1.75,0.55 2.5,2.25 l 0.05,0.15 q 0.75,1.85 -0.15,3.55 -0.85,1.7 -2.8,2.2 l -2.45,-0.15 0.05,-0.95 0.1,-2.85 q 0.4,-1.2 1.05,-2.25 l 0.15,-0.25 0.3,-0.45 0.25,-0.45 m 11.9,-15.35 q 0.65,0.95 0.65,2.1 l -0.2,1.45 -0.35,1.1 q -0.7,1.3 -2.15,1.6 -1.45,0.25 -2.5,-0.55 l 4.55,-5.7 m -0.9,17.5 -0.55,-0.5 q -0.8,-0.9 -1.05,-1.65 -0.3,-0.75 -0.3,-1.55 -0.05,-1.7 0.9,-3.25 l 1.2,-1.45 1.5,-1.4 q 1.25,-0.85 2.75,-0.8 l 0.6,0.1 v 0.05 l -1,4.95 -0.25,0.45 -0.25,0.65 -0.4,1.05 -3.15,3.35 m -15.4,-0.35 -0.05,0.05 q 0.3,-0.9 0.9,-1.55 l -0.2,0.4 -0.45,0.9 -0.2,0.2 m -19.5,13 1.85,-0.65 0.25,-0.55 0.2,-0.85 v -0.9 L 0.15,-6.55 0.4,-7.5 Q 0.7,-8.3 1.45,-8.8 2.2,-9.35 3.05,-9.4 L 3.1,-9.45 q 1.4,0.1 2.2,1.2 0.75,1.2 0.25,2.5 L 4.6,-3.9 4.15,-3.4 4,-2.9 3.8,-2.3 4.9,-0.7 5.25,0.35 V 0.4 q 0.3,1.4 -0.3,2.75 l -0.8,1.1 -1.2,1.1 -0.8,0.4 Q 0.05,6.5 -1.75,5.7 L -1.95,5.6 H -2 Q -3.5,4.8 -3.85,3.4 L -5,5.75 q -1.1,2.2 -2.05,2.9 L -7.4,8.9 h -0.05 l 0.7,-1 L -6.5,7.5 -4.4,3.9 -4,3.05 -3.85,2.85 -3.8,2.7 -3.35,1.7 -3.15,1.5 -2.95,1.3 -2.9,1.25 -2.85,1 -2.7,0.55 l 0.15,-1.4 0.3,-1.95 m 9.1,14.05 q -0.5,1 -1,1.25 l -1.2,0.35 h -1.4 l 4.2,-2.8 -0.6,1.2 m 19,-13.2 5.3,-3.95 -0.45,8.7 q -0.4,5.25 -1.2,9.3 -0.2,1.1 -0.8,1.4 -0.6,0.4 -1.3,-0.2 -0.5,-0.4 -0.75,-1.2 -0.4,-1.2 -0.4,-4.25 l 0.1,-3.1 Q 26.45,2.5 25.7,1.6 25.05,0.85 23.9,0.9 22.8,0.95 22.25,1.75 l -0.1,0.2 -0.55,0.4 -0.8,0.9 Q 20.15,3.95 19.3,4 18.45,4.1 18,3.55 q 4.05,-2.6 7.85,-5.5 M -13.1,6.9 -9.2,2.6 q 2.15,-2.35 3.8,-5.05 L -5.3,0 -5.45,0.45 -5.65,1.1 -5.6,1.5 v 0.45 l -0.05,0.2 -0.85,1.1 -0.1,0.2 -0.05,0.2 -0.2,0.25 -0.4,0.4 q 0.05,0.65 -0.3,1.2 L -8,6.25 -8.8,7.5 -9.9,9.35 Q -10.95,9.2 -11.75,8.6 L -13.1,6.9 m -5.2,5.95 3.85,-4.4 0.1,0.1 q 0.75,0.6 0.95,1.4 0.25,0.85 0,1.7 -0.25,0.9 -0.95,1.4 -0.65,0.55 -1.6,0.65 l -1.65,-0.35 -0.7,-0.5"
         fill="#682828"
         fill-rule="evenodd"
         stroke="none"
         id="path4" />
    </g>
    <g
       id="sprite1"
       transform="translate(17.4,15.85)">
      <use
         ffdec:characterId="31"
         height="57.200001"
         transform="matrix(0.5366,0,0,0.5366,-16.6582,-14.546)"
         width="70.75"
         xlink:href="#sprite2"
         id="use4" />
    </g>
    <g
       id="sprite2"
       transform="translate(-8.65,-10.35)">
      <use
         ffdec:characterId="30"
         height="57.200001"
         transform="translate(8.65,10.35)"
         width="70.75"
         xlink:href="#shape1"
         id="use5" />
    </g>
    <g
       id="shape1"
       transform="translate(-8.65,-10.35)">
      <path
         d="m 14.8,41.7 q 0.65,-1.75 2.65,-2.5 1.8,-0.8 3.7,-0.25 1.15,0.45 2.25,1.2 l 0.9,0.4 q 1.65,0.9 2.85,2.5 L 37.8,30.1 q 2.35,-2.8 3.75,-3.95 1.5,-1.15 4.25,-2.4 18.2,-8.85 27.65,-12.6 2.15,-0.8 3.25,-0.8 h 0.8 l 1.9,2.4 -0.2,0.8 q -0.2,1.1 -1.55,3 -5.85,8.25 -18.85,23.8 -1.85,2.35 -3.35,3.5 -1.4,1.15 -4.75,2.75 l -15.15,7.15 q 1.2,1.6 1.75,3.4 l 0.2,1 0.55,2.5 q 0.1,1.95 -1.1,3.55 -1.2,1.65 -3.05,1.9 l -1.3,0.05 q -1.65,0.2 -3.45,-0.65 -1.85,-0.9 -3,-2.6 L 25,60.95 23.8,62.1 q -2.6,2.85 -4.3,3.95 -2.85,1.8 -5.5,1.45 l -1.65,-0.5 -1.2,-0.7 -0.2,-0.2 q -1,-0.85 -1.6,-1.9 L 9.25,64 9.15,63.8 8.75,62.4 q -0.2,-0.8 -0.05,-1.7 0.25,-2.65 2.7,-5.05 1.5,-1.3 4.9,-3.15 L 17.7,51.55 16.05,50 q -1.35,-1.5 -1.8,-3.6 -0.4,-1.85 0.25,-3.45 l 0.3,-1.25"
         fill="#000000"
         fill-opacity="0.372549"
         fill-rule="evenodd"
         stroke="none"
         id="path5" />
    </g>
  </defs>
</svg>
