<?xml version="1.0" encoding="UTF-8" standalone="no"?>
<svg
   ffdec:objectType="frame"
   height="23.6"
   width="68.742043"
   version="1.1"
   id="svg3"
   sodipodi:docname="ITEM Tank's Tattoo.svg"
   xmlns:inkscape="http://www.inkscape.org/namespaces/inkscape"
   xmlns:sodipodi="http://sodipodi.sourceforge.net/DTD/sodipodi-0.dtd"
   xmlns:xlink="http://www.w3.org/1999/xlink"
   xmlns="http://www.w3.org/2000/svg"
   xmlns:svg="http://www.w3.org/2000/svg"
   xmlns:ffdec="https://www.free-decompiler.com/flash">
  <sodipodi:namedview
     id="namedview3"
     pagecolor="#ffffff"
     bordercolor="#000000"
     borderopacity="0.25"
     inkscape:showpageshadow="2"
     inkscape:pageopacity="0.0"
     inkscape:pagecheckerboard="0"
     inkscape:deskcolor="#d1d1d1"
     fit-margin-top="5"
     fit-margin-left="5"
     fit-margin-right="5"
     fit-margin-bottom="5" />
  <g
     transform="translate(34.5,12.95)"
     id="g1">
    <use
       ffdec:characterId="17"
       height="119.15"
       id="rarity"
       transform="translate(-58.5,-60.65)"
       width="119.15"
       xlink:href="#sprite0" />
    <use
       ffdec:characterId="1017"
       height="23.6"
       transform="translate(-34.5,-12.95)"
       width="68.75"
       xlink:href="#shape0"
       id="use1" />
  </g>
  <defs
     id="defs3">
    <g
       id="shape0"
       transform="translate(81.3,14.3)">
      <path
         d="m -78,-13.5 h 14.75 0.55 l 0.35,0.1 0.4,0.15 0.3,0.15 0.2,0.1 0.2,0.15 0.15,0.15 0.15,0.15 0.15,0.1 0.1,0.15 0.1,0.15 0.1,0.15 0.1,0.1 0.05,0.15 0.1,0.15 0.05,0.15 0.05,0.1 0.05,0.15 v 0.15 0.15 l 0.05,0.1 v 0.15 0.15 0.1 0.15 0.15 0.15 l -0.05,0.1 v 0.15 l -0.05,0.15 -0.05,0.15 -0.05,0.1 -0.05,0.15 -0.1,0.15 -0.05,0.15 -0.1,0.1 -0.1,0.15 -0.1,0.15 -0.15,0.1 -0.15,0.15 -0.15,0.15 -0.15,0.15 -0.25,0.15 -0.25,0.1 -0.35,0.15 -0.3,0.1 -0.2,0.05 -0.05,0.05 h -4.65 v 0.1 0.15 0.15 0.15 0.1 0.15 0.15 0.1 0.15 0.15 0.15 0.15 0.1 0.15 0.15 0.1 0.15 0.15 0.15 0.15 0.1 0.15 0.1 0.15 0.15 0.15 0.15 0.15 0.1 0.15 0.1 0.15 0.15 0.15 0.15 0.15 0.1 0.15 0.1 0.15 0.15 0.15 0.15 0.1 0.15 0.1 0.15 0.15 0.15 0.15 0.15 0.1 0.15 0.1 V 0.2 0.35 0.5 0.65 0.8 0.9 1 1.15 1.3 1.45 1.6 1.75 1.9 2 2.1 2.25 2.4 2.55 2.7 2.85 L -67.35,3 V 3.05 3.2 3.35 3.5 3.65 3.8 3.95 4.05 4.15 4.3 4.45 4.6 4.75 4.9 5.05 l -0.05,0.1 V 5.25 5.4 5.55 5.7 L -67.45,5.85 -67.5,6 V 6.15 L -67.55,6.2 V 6.35 6.5 6.65 l -0.05,0.15 -0.05,0.15 -0.05,0.15 -0.05,0.1 -0.05,0.1 -0.05,0.15 -0.1,0.15 v 0.15 l -0.1,0.15 -0.1,0.15 -0.1,0.15 -0.15,0.1 -0.15,0.1 -0.2,0.15 -0.2,0.15 -0.2,0.15 L -69.4,9 -69.65,9.1 -69.8,9.15 -70,9.2 -70.2,9.25 -70.75,9.3 -71.3,9.25 -71.45,9.2 -71.8,9.1 -72.15,8.95 -72.4,8.8 -72.6,8.65 -72.8,8.5 -72.95,8.35 -73.1,8.25 -73.25,8.15 -73.35,8 -73.45,7.85 -73.55,7.7 -73.6,7.55 -73.65,7.4 -73.7,7.25 -73.75,7.2 -73.8,7.05 -73.85,6.9 -73.9,6.75 V 6.6 6.45 6.3 L -73.95,6.15 V 6.1 L -74,5.95 -74.05,5.8 V 5.65 5.5 5.35 5.2 L -74.1,5.15 V 5 4.85 4.7 4.55 4.4 4.25 4.1 4.05 3.9 3.75 3.6 3.45 3.3 3.15 3.05 2.95 L -74.05,2.8 V 2.65 2.5 2.35 2.2 2.05 1.95 1.85 1.7 1.55 1.4 1.25 1.1 1 0.85 0.75 0.6 0.45 0.3 0.15 0 -0.1 -0.2 -0.35 -0.5 -0.65 -0.8 -0.95 -1.1 -1.2 -1.3 -1.45 -1.6 -1.75 -1.9 -2.05 -2.15 -2.3 -2.4 -2.55 -2.7 -2.85 -3 -3.15 -3.25 -3.4 -3.5 -3.65 -3.8 -3.95 -4.1 -4.2 -4.35 -4.5 -4.6 -4.75 -4.9 -5.05 -5.2 -5.3 -5.45 -5.55 -5.7 -5.85 -6 -6.15 -6.25 -6.4 -6.55 -6.65 -6.8 -6.95 -7.1 -7.25 -7.3 h -4.5 v -0.05 l -0.4,-0.1 -0.35,-0.15 -0.3,-0.1 -0.3,-0.15 -0.15,-0.15 -0.2,-0.15 -0.1,-0.15 -0.15,-0.1 -0.1,-0.15 -0.15,-0.15 -0.1,-0.1 -0.05,-0.15 -0.1,-0.15 -0.05,-0.15 -0.05,-0.1 -0.05,-0.15 -0.05,-0.15 -0.05,-0.15 v -0.1 l -0.05,-0.15 v -0.15 -0.15 -0.1 -0.15 -0.15 l 0.05,-0.15 V -11 l 0.05,-0.15 v -0.15 l 0.05,-0.15 0.05,-0.1 0.1,-0.15 0.05,-0.15 0.1,-0.1 0.1,-0.15 0.1,-0.15 0.1,-0.15 0.15,-0.1 0.15,-0.15 0.1,-0.15 0.2,-0.15 0.25,-0.1 0.25,-0.15 0.35,-0.15 0.3,-0.1 0.25,-0.05 H -78 m 22.8,-0.4 h 0.05 l 0.4,0.05 0.35,0.1 0.4,0.15 0.2,0.15 0.2,0.1 0.15,0.15 0.15,0.15 0.1,0.15 0.1,0.15 0.1,0.15 0.1,0.15 0.05,0.15 0.05,0.1 0.1,0.15 0.1,0.15 0.05,0.15 0.05,0.15 0.1,0.15 0.05,0.15 0.05,0.15 0.05,0.1 0.05,0.15 0.05,0.15 v 0.15 l 0.05,0.15 v 0.15 0.15 0.15 0.1 0.15 0.15 0.15 0.15 0.15 0.15 0.15 0.1 0.15 0.15 0.15 0.15 0.15 0.15 0.1 0.15 0.15 0.15 0.15 0.15 0.15 0.15 0.1 0.05 h 4.25 0.9 0.4 V -6.65 -6.8 -6.95 -7.1 -7.25 -7.4 -7.55 -7.7 -7.8 -7.95 -8.1 -8.25 -8.4 -8.55 -8.7 -8.85 -8.95 -9.1 -9.25 -9.4 -9.55 -9.7 -9.85 -10 v -0.1 -0.15 -0.15 l 0.05,-0.15 0.05,-0.15 v -0.15 l 0.05,-0.15 0.1,-0.1 0.05,-0.15 0.1,-0.15 0.1,-0.15 0.1,-0.15 0.05,-0.15 0.15,-0.15 0.15,-0.15 0.15,-0.1 0.2,-0.15 0.2,-0.15 0.15,-0.15 0.15,-0.15 0.1,-0.15 0.2,-0.15 0.3,-0.15 0.2,-0.05 0.15,-0.05 0.15,-0.05 h 0.45 v -0.05 h 0.1 l 0.45,0.05 0.25,0.1 0.35,0.1 0.2,0.15 0.2,0.15 0.15,0.15 0.1,0.15 0.1,0.15 0.05,0.15 0.1,0.15 0.05,0.1 0.05,0.15 0.05,0.15 v 0.15 l 0.05,0.15 0.1,0.15 0.1,0.15 0.05,0.1 0.05,0.15 0.05,0.15 0.05,0.15 0.05,0.15 0.05,0.15 v 0.15 0.15 0.1 0.15 0.15 0.15 0.15 0.15 0.15 0.15 0.1 0.15 0.15 0.15 0.15 0.15 0.15 0.15 0.1 0.15 0.15 0.15 0.15 0.15 0.15 0.1 0.15 0.15 0.15 0.15 0.15 0.15 0.15 0.1 0.15 0.15 0.15 0.15 0.15 0.15 0.15 0.1 0.15 0.15 0.15 0.15 0.15 0.15 0.15 0.1 0.15 0.15 0.15 0.15 0.15 0.15 0.15 0.1 0.15 0.15 0.15 0.15 0.15 0.15 0.1 0.15 0.15 0.15 0.15 0.15 0.15 V 0 0.1 0.25 0.4 0.55 0.7 0.85 1 1.15 1.25 1.4 1.55 1.7 1.85 2 2.15 2.3 2.4 2.55 2.7 2.85 3 3.15 3.3 3.45 3.55 3.7 3.85 4 4.15 4.3 4.45 4.55 4.7 4.85 5 5.15 5.3 5.45 5.6 5.7 5.85 6 6.15 6.3 6.45 6.6 6.75 l -0.05,0.1 -0.05,0.15 -0.05,0.15 -0.05,0.15 -0.05,0.15 -0.1,0.15 -0.05,0.15 -0.1,0.15 -0.1,0.1 -0.1,0.15 -0.1,0.15 -0.15,0.15 -0.15,0.15 -0.2,0.15 -0.2,0.15 -0.3,0.15 -0.25,0.05 -0.05,0.05 -0.2,0.05 L -43,9.25 -43.55,9.3 -44,9.25 -44.25,9.2 -44.6,9.1 -44.85,9 -45.15,8.85 -45.35,8.7 -45.55,8.55 -45.7,8.4 -45.85,8.25 -45.9,8.1 -46.05,7.95 -46.15,7.85 -46.2,7.7 -46.3,7.55 -46.35,7.4 -46.4,7.25 -46.45,7.1 -46.5,6.95 -46.55,6.8 V 6.7 6.55 6.4 6.25 6.1 5.95 5.8 5.7 5.55 5.4 5.25 5.1 4.95 4.8 4.65 4.55 4.4 4.25 4.1 3.95 3.8 3.65 3.5 3.4 3.25 3.1 2.95 2.8 2.65 2.5 2.35 2.25 2.1 1.95 1.8 1.65 1.5 1.35 1.2 1.1 0.95 0.8 0.65 0.5 0.35 0.2 0.1 -0.05 -0.1 H -52.1 V 0.05 0.15 0.3 0.45 0.6 0.75 0.9 1.05 1.2 1.3 1.45 1.6 1.75 1.9 2.05 2.2 2.35 2.45 2.6 2.75 2.9 3.05 3.2 3.35 3.45 3.6 3.75 3.9 4.05 4.2 4.35 4.5 4.6 4.75 4.9 5.05 5.2 5.35 5.5 5.65 5.75 5.9 6.05 l -0.05,0.15 v 0.15 l -0.05,0.15 -0.05,0.15 -0.05,0.15 -0.05,0.1 -0.1,0.15 -0.05,0.15 -0.1,0.15 -0.05,0.15 -0.1,0.15 -0.15,0.15 -0.15,0.1 -0.15,0.15 -0.25,0.15 -0.2,0.15 -0.25,0.15 -0.2,0.1 -0.15,0.05 -0.2,0.05 -0.25,0.05 V 8.8 h -1 V 8.75 L -55.95,8.7 -56.25,8.6 -56.6,8.45 -56.85,8.3 -57.05,8.15 -57.2,8 -57.35,7.9 -57.5,7.75 -57.65,7.6 -57.75,7.45 -57.85,7.3 -57.95,7.15 -58.05,7 -58.1,6.85 -58.15,6.75 -58.2,6.6 V 6.45 6.3 L -58.25,6.15 V 6 5.85 5.7 5.6 5.45 5.3 5.15 5 4.85 4.7 4.55 4.45 4.3 4.15 4 3.85 3.7 3.55 3.45 3.3 3.15 3 2.85 2.7 2.55 2.4 2.3 2.15 2 1.85 1.7 1.55 1.4 1.25 1.15 1 0.85 0.7 0.55 0.4 0.25 0.1 0 -0.15 -0.3 -0.45 -0.6 -0.75 -0.9 -1.05 -1.15 -1.3 -1.45 -1.6 -1.75 -1.9 -2.05 -2.15 -2.3 -2.45 -2.6 -2.75 -2.9 -3.05 -3.2 -3.3 -3.45 -3.6 -3.75 -3.9 -4.05 -4.2 -4.35 -4.45 -4.6 -4.75 -4.9 -5.05 -5.2 -5.35 -5.5 -5.6 -5.75 -5.9 -6.05 -6.2 -6.35 -6.5 -6.65 -6.75 -6.9 -7.05 -7.2 -7.35 -7.5 -7.65 -7.75 -7.9 -8.05 -8.2 -8.35 -8.5 -8.65 -8.8 -8.9 -9.05 -9.2 -9.35 -9.5 -9.65 -9.8 v -0.15 -0.1 -0.15 -0.15 -0.15 l 0.05,-0.15 v -0.15 -0.15 -0.15 l 0.05,-0.1 0.05,-0.15 0.1,-0.15 0.05,-0.15 0.1,-0.15 0.1,-0.15 0.1,-0.15 0.05,-0.1 0.05,-0.15 0.1,-0.15 0.1,-0.15 0.1,-0.15 0.1,-0.15 0.1,-0.15 0.15,-0.15 0.15,-0.1 0.2,-0.15 0.3,-0.15 0.25,-0.1 0.1,-0.05 0.25,-0.05 h 0.45 v -0.05 m 21.2,-0.4 h 0.1 l 0.4,0.05 0.35,0.1 0.35,0.15 0.15,0.15 0.2,0.15 0.2,0.15 0.1,0.15 0.1,0.1 0.1,0.15 0.1,0.15 0.05,0.15 0.05,0.15 0.1,0.15 v 0.15 0.15 l 0.05,0.1 0.05,0.15 0.05,0.15 0.1,0.15 0.05,0.15 0.1,0.15 0.05,0.15 v 0.15 l 0.05,0.1 0.05,0.15 v 0.15 0.15 l 0.05,0.15 v 0.15 0.15 0.1 0.15 0.15 0.15 0.15 0.15 0.15 0.15 0.1 0.15 0.15 0.15 0.15 0.15 0.15 0.15 0.1 0.15 0.15 0.15 0.15 0.15 0.15 0.15 0.1 0.15 0.15 0.15 0.15 0.15 0.15 0.15 0.1 0.15 0.15 0.15 0.15 0.15 0.15 0.1 0.15 L -31,-4.1 v 0.15 0.15 0.15 0.15 0.15 0.1 0.15 0.15 0.15 0.15 0.15 0.15 0.15 0.1 0.15 0.15 0.15 0.15 0.15 0.15 0.15 0.1 0.15 0.15 0.15 0.15 0.15 0.15 V 0.1 0.2 0.35 0.5 0.65 0.8 0.95 1.1 1.2 1.35 1.5 1.65 1.8 1.95 2.1 2.25 2.35 2.5 2.65 L -31.05,2.8 V 2.95 3.1 3.25 L -31.1,3.4 -31.15,3.5 V 3.65 3.8 3.95 4.1 4.25 4.4 4.55 4.65 4.8 4.95 5.1 5.25 L -31.2,5.4 V 5.55 5.7 5.8 5.95 6.1 6.25 6.4 l -0.05,0.15 V 6.7 l -0.05,0.1 -0.05,0.15 -0.05,0.15 -0.1,0.15 -0.05,0.15 -0.1,0.15 -0.05,0.15 -0.1,0.15 -0.15,0.1 -0.1,0.15 -0.2,0.15 -0.2,0.15 -0.25,0.15 -0.25,0.15 -0.25,0.1 -0.15,0.05 -0.25,0.05 v 0.05 h -1 V 8.9 L -35,8.8 -35.35,8.65 -35.6,8.5 -35.85,8.35 -36.05,8.2 -36.15,8.05 -36.3,7.9 -36.4,7.8 -36.5,7.65 -36.6,7.5 -36.7,7.35 -36.8,7.2 -36.85,7.05 -36.9,6.9 -36.95,6.8 V 6.65 L -37,6.5 V 6.35 6.2 6.05 5.9 5.75 5.65 5.5 L -37.05,5.35 V 5.2 5.05 4.9 4.75 4.6 4.5 4.35 4.2 4.05 3.9 3.75 3.6 L -37.1,3.45 -37.15,3.35 V 3.2 3.05 2.9 L -37.2,2.75 V 2.6 2.45 2.35 2.2 2.05 1.9 1.75 1.6 1.45 1.3 1.2 1.05 0.9 0.75 0.6 0.45 0.3 0.15 0.05 -0.1 -0.25 -0.4 -0.55 -0.7 -0.85 -1 -1.1 -1.25 -1.4 -1.55 -1.7 -1.85 -2 -2.15 -2.25 -2.4 -2.55 -2.7 -2.85 -3 -3.15 -3.25 -3.4 -3.55 -3.7 -3.85 -4 -4.15 l 0.05,-0.15 V -4.4 -4.55 -4.7 -4.85 -5 -5.15 -5.3 -5.45 -5.55 -5.7 -5.85 -6 -6.15 -6.3 -6.45 -6.6 -6.7 -6.85 -7 -7.15 -7.3 -7.45 -7.6 -7.75 -7.85 -8 -8.15 -8.3 -8.45 -8.6 -8.75 -8.85 -9 -9.15 -9.3 -9.45 -9.6 -9.75 -9.9 -10 v -0.15 -0.15 -0.15 -0.15 l 0.05,-0.15 v -0.15 l 0.05,-0.15 v -0.1 l 0.05,-0.15 0.05,-0.15 0.05,-0.15 0.1,-0.15 0.05,-0.15 0.1,-0.15 0.1,-0.15 0.1,-0.1 v -0.15 l 0.05,-0.15 0.1,-0.15 0.05,-0.15 0.1,-0.15 0.05,-0.15 0.15,-0.15 0.15,-0.1 0.15,-0.15 0.15,-0.15 0.2,-0.15 0.3,-0.15 0.2,-0.1 0.15,-0.05 0.2,-0.05 H -34 v -0.05 m 18.2,1.2 q 1.1,0.5 2.05,1.75 0.9,1.1 0.95,2.1 0.1,1.15 -0.85,2.05 -0.55,0.5 -1.3,0.7 l -1.45,-0.1 -1.25,-1 q -0.75,-0.6 -1.4,-0.6 -1,0 -1.65,1.1 -1.1,1.75 -1.2,5.55 0,1.95 0.45,2.8 l 0.95,1.15 1.45,0.45 q 0.6,-1.65 2.2,-2.2 l 1.7,-0.15 q 0.9,0.1 1.5,0.6 1.55,1.25 0.9,3.5 -0.5,1.6 -1.95,2.8 -1.45,1.1 -3.35,1.4 L -21.7,8.6 q -1.8,-0.45 -3.25,-1.55 -2.5,-1.9 -3.25,-4.75 l -0.35,-3.2 q -0.1,-3.95 0.75,-6.45 1.15,-3.5 4.1,-5.25 2.05,-1.2 4.65,-1.2 1.95,0 3.25,0.7"
         fill="#000000"
         fill-rule="evenodd"
         stroke="none"
         id="path1" />
    </g>
    <g
       id="sprite1"
       transform="translate(17.4,15.85)">
      <use
         ffdec:characterId="31"
         height="57.200001"
         transform="matrix(0.5366,0,0,0.5366,-16.6582,-14.546)"
         width="70.75"
         xlink:href="#sprite2"
         id="use2" />
    </g>
    <g
       id="sprite2"
       transform="translate(-8.65,-10.35)">
      <use
         ffdec:characterId="30"
         height="57.200001"
         transform="translate(8.65,10.35)"
         width="70.75"
         xlink:href="#shape1"
         id="use3" />
    </g>
    <g
       id="shape1"
       transform="translate(-8.65,-10.35)">
      <path
         d="m 14.8,41.7 q 0.65,-1.75 2.65,-2.5 1.8,-0.8 3.7,-0.25 1.15,0.45 2.25,1.2 l 0.9,0.4 q 1.65,0.9 2.85,2.5 L 37.8,30.1 q 2.35,-2.8 3.75,-3.95 1.5,-1.15 4.25,-2.4 18.2,-8.85 27.65,-12.6 2.15,-0.8 3.25,-0.8 h 0.8 l 1.9,2.4 -0.2,0.8 q -0.2,1.1 -1.55,3 -5.85,8.25 -18.85,23.8 -1.85,2.35 -3.35,3.5 -1.4,1.15 -4.75,2.75 l -15.15,7.15 q 1.2,1.6 1.75,3.4 l 0.2,1 0.55,2.5 q 0.1,1.95 -1.1,3.55 -1.2,1.65 -3.05,1.9 l -1.3,0.05 q -1.65,0.2 -3.45,-0.65 -1.85,-0.9 -3,-2.6 L 25,60.95 23.8,62.1 q -2.6,2.85 -4.3,3.95 -2.85,1.8 -5.5,1.45 l -1.65,-0.5 -1.2,-0.7 -0.2,-0.2 q -1,-0.85 -1.6,-1.9 L 9.25,64 9.15,63.8 8.75,62.4 q -0.2,-0.8 -0.05,-1.7 0.25,-2.65 2.7,-5.05 1.5,-1.3 4.9,-3.15 L 17.7,51.55 16.05,50 q -1.35,-1.5 -1.8,-3.6 -0.4,-1.85 0.25,-3.45 l 0.3,-1.25"
         fill="#000000"
         fill-opacity="0.372549"
         fill-rule="evenodd"
         stroke="none"
         id="path3" />
    </g>
  </defs>
</svg>
