<?xml version="1.0" encoding="UTF-8" standalone="no"?>
<svg
   ffdec:objectType="frame"
   height="84.903381"
   width="93.69091"
   version="1.1"
   id="svg4"
   sodipodi:docname="ITEM Carapace Necklace.svg"
   xmlns:inkscape="http://www.inkscape.org/namespaces/inkscape"
   xmlns:sodipodi="http://sodipodi.sourceforge.net/DTD/sodipodi-0.dtd"
   xmlns:xlink="http://www.w3.org/1999/xlink"
   xmlns="http://www.w3.org/2000/svg"
   xmlns:svg="http://www.w3.org/2000/svg"
   xmlns:ffdec="https://www.free-decompiler.com/flash">
  <sodipodi:namedview
     id="namedview4"
     pagecolor="#ffffff"
     bordercolor="#000000"
     borderopacity="0.25"
     inkscape:showpageshadow="2"
     inkscape:pageopacity="0.0"
     inkscape:pagecheckerboard="0"
     inkscape:deskcolor="#d1d1d1"
     fit-margin-top="5"
     fit-margin-left="5"
     fit-margin-right="5"
     fit-margin-bottom="5" />
  <g
     transform="translate(47.75,41.55)"
     id="g1">
    <use
       ffdec:characterId="17"
       height="119.15"
       id="rarity"
       transform="translate(-58.5,-60.65)"
       width="119.15"
       xlink:href="#sprite0" />
    <use
       ffdec:characterId="772"
       height="84.900002"
       transform="translate(-47.75,-41.55)"
       width="93.699997"
       xlink:href="#shape0"
       id="use1" />
  </g>
  <defs
     id="defs4">
    <g
       id="shape0"
       transform="translate(48.3,42.3)">
      <path
         d="m -13.05,-29.5 q 5.2,0.7 7.95,5.45 l 1.1,1.85 q 0.9,-0.55 2.4,-0.75 l 8.45,-1.1 5.5,0.3 -0.25,-3.35 -0.2,-0.45 -0.05,-0.4 v -0.4 l 0.05,-0.6 v -0.2 q 3.3,-2.75 8.1,-2.8 l 4.75,0.05 q 1.6,-4.55 3.9,-8.65 0.35,-0.6 1.2,-0.7 l 7.45,-1.05 q 3.65,1.7 4.1,6.05 0.25,2.1 0.85,4.2 1.15,4.15 -3.15,3.25 -0.85,-0.2 -1.25,-1.05 -1.2,-3.1 -1.9,-6.35 -1.8,-0.55 -3.95,0.05 l -1.6,6.3 q 3.85,2.4 7,6.2 l 7.7,8.65 q 0.4,0.4 0.25,1 -1.55,5.5 -4.9,9.75 l 0.05,0.9 q 0.15,1.75 0.65,3.45 1.05,4.1 -1.5,6.75 -0.2,0.3 -0.7,0.3 L 34.3,7.6 q 0.8,4.35 1.1,8.95 v 1.8 q 3.65,1.55 4.45,5.4 l 0.05,1.6 -1.3,10.35 -0.15,0.2 -0.3,0.15 -0.3,0.25 -0.15,0.15 q -5.1,2.05 -5.2,-2.8 0,-1.55 0.55,-3 1.75,-4.75 -1.05,-8.9 -2.35,0.25 -4.9,0 l -2.55,-0.3 q 0.65,2.75 0.3,5.85 -0.2,2.3 -1.05,4.3 -0.7,1.75 -2.8,2.05 -12.35,1.75 -24.35,4.45 -0.6,0.15 -1,-0.4 -0.6,-0.95 -0.4,-2.1 L -6.3,31.95 q -0.3,-1 -0.95,-1.8 l -0.05,-0.4 -10.65,1.2 q -1.9,0.15 -2.35,-1.6 -0.5,-2.05 -1.25,-3.95 -1.15,1.55 -2.65,2.8 l -1.55,1.8 q 0.75,5.2 1.85,10.25 0.15,0.55 -0.35,1 -4.15,3 -6.65,-0.65 l -0.55,-1.45 -0.1,-2.25 q -1.35,-5.65 0.25,-11.05 l 0.85,-1.25 q 2.95,-2.45 6.3,-4.15 l -6.55,-0.7 q -0.85,-0.15 -1.05,-1.05 l 0.15,-1.4 -0.15,-2.5 0.15,-2.4 -0.65,-4.65 0.1,-1 L -40.2,5.7 Q -41.1,5.6 -41.25,4.65 L -41.9,0.8 q -3.5,-6.75 -2.7,-14.2 l 0.55,-0.75 q 7.75,-4.25 15.7,-8.2 l -1,-1.45 -3.75,-6.45 -6.5,2.75 q 0.05,3.7 -0.55,7.25 -0.3,1.75 -2.15,1.6 -0.8,-0.1 -1.4,-0.55 -4.5,0.65 -4.6,-2.85 l 0.15,-1.2 q 1.4,-5.2 3.45,-9.85 l 0.6,-0.6 11.6,-4.35 1.2,0.25 0.7,0.35 4.15,8.25 q 1,1.9 2.7,3.3 l 0.7,1 10,-4.6 m 42.8,5.1 -0.95,-0.9 -2.3,-1.6 -0.2,0.05 -0.4,0.05 -0.6,-0.1 -0.4,-0.35 -4.45,0.15 -1.75,0.15 q -1.85,-0.3 -2.45,0.8 l -0.1,3.8 0.1,0.15 0.05,0.2 0.1,0.25 0.05,0.2 v 0.15 0.2 l -0.05,0.25 -0.1,0.2 -0.05,0.15 -0.15,0.2 -0.1,0.15 -0.25,3.2 q -0.2,3.35 -1.1,6.5 l 0.85,0.15 20.15,3.15 q 0.3,-1.2 1.65,-1.35 l 0.65,0.4 0.65,-1.15 0.85,-1.85 v -0.25 l 0.05,-0.2 0.05,-0.15 0.1,-0.25 0.15,-0.2 0.1,-0.2 0.15,-0.15 0.05,-0.25 v -0.2 l 0.05,-0.2 0.1,-0.25 0.1,-0.15 -3.6,-3.7 q -1.4,-1.45 -2.5,-3 l -4.5,-4.05 m -25.35,7.65 1.5,-0.15 4.7,-0.25 1.5,0.1 0.05,-0.75 v -1.7 l -2.6,0.2 -2.1,-0.05 -1.6,0.2 -7.25,1.1 1.6,2.3 0.15,0.2 1.2,-0.5 2.85,-0.7 m 0,13.85 0.05,1.8 q 0.3,2.55 -0.15,5 L 9.1,3.4 16.55,2.7 h 0.1 L 16.55,2.25 V 1.85 L 16.3,1.25 16.1,0.2 V 0 Q 15.6,-0.95 15.35,-2 L 14.7,-3.65 v -0.4 l 0.05,-0.8 v -0.4 L 15,-5.65 13.65,-6.45 H 13.4 13.15 L 13.05,-6.4 12.7,-6.3 12.25,-6.45 12,-6.6 Q 11.1,-9 11.4,-11.5 l 0.4,-3.1 -9,2.45 q 1.5,2.85 0.65,6.2 0.8,1.2 0.95,3.05 m 16,-1.7 -2.35,-0.25 -0.35,-0.05 1.35,2.75 q 0.4,1 0.4,2.1 Q 20.2,1.4 20.6,3 l 0.7,2.05 1.75,-0.4 q 6.8,-1.5 13.7,-2.45 L 36.35,0.4 Q 36.05,-0.5 36.1,-1.45 L 36.05,-1.7 35.95,-1.9 35.8,-2.05 35.65,-2.8 20.4,-4.6 m -60.45,-4.4 0.7,2.35 1.75,4.65 q 0.55,1.4 0.5,2.95 L -18.35,3.3 Q -12.7,-0.15 -7.3,-3.95 L -1.05,-8.2 -1.1,-9.4 v -1.8 -0.45 q -0.5,-0.35 -0.7,-1 l -0.15,-0.9 -0.05,-0.1 -0.3,-0.65 -3.4,-3.75 -2.9,-3.95 -0.45,-0.8 -1.1,-1.1 -0.25,-0.3 q -0.65,-0.75 -1.6,-0.95 -11.05,5.05 -21.8,10.8 l -6.7,3.5 0.45,1.85 m 14.75,24.8 q 9,0.2 18.15,-1.2 4.3,-4.65 6.2,-10.55 L 0.2,0.95 -0.5,-2.1 q -6.2,3.55 -11.9,7.85 -3.1,2.35 -6.75,2.05 l -8.5,-0.65 -0.1,-0.05 -0.8,-0.05 0.2,1.35 0.1,2.45 q 0.4,1.15 0.4,2.4 l -0.05,2.45 2.6,0.1 m 20.75,2.85 q -1.4,1.4 -3.6,1.25 l -1.4,0.05 -9.55,0.65 v 0.3 l -0.05,0.35 -0.3,0.6 -0.1,0.2 1.2,2.2 1,2.2 L 0,23.6 l 0.1,-0.25 0.05,-0.4 0.2,-0.4 Q 0.5,20.6 0.1,18.7 L -0.15,15.85 -0.6,14.2 q -1.8,2.35 -3.95,4.45 m 9.6,4.5 q 0,3.2 -2.5,4.65 l -1.65,0.55 -4.25,0.75 1.15,2.45 0.8,1.8 Q 9,30.2 19.75,28.45 19.6,24.55 20.1,20.85 L 15.2,20 Q 14.05,19.8 13.85,18.8 L 5.05,21 v 2.15 m 17.6,-12.55 -1.25,0.35 -2,-0.15 q -0.65,2.35 -1,4.9 6.3,1.5 12.85,1.25 L 31.05,8.8 31.1,8.15 Q 26.75,9 22.65,10.6 M 4.75,15.2 4.95,17.45 7,17.1 12.95,16.5 h 0.9 q 0.1,-5.45 1.6,-10.6 L 8.6,7.15 Q 7.15,7.35 5.85,7.95 4.25,8.65 2.7,8.85 L 2.3,9.7 q 2.15,2 2.45,5.5"
         fill="#000000"
         fill-rule="evenodd"
         stroke="none"
         id="path1" />
      <path
         d="m 15.5,-10.4 -0.85,-0.15 q 0.9,-3.15 1.1,-6.5 l 0.25,-3.2 0.1,-0.15 0.15,-0.2 0.05,-0.15 0.1,-0.2 0.05,-0.25 v -0.2 -0.15 l -0.05,-0.2 -0.1,-0.25 -0.05,-0.2 -0.1,-0.15 0.1,-3.8 q 0.6,-1.1 2.45,-0.8 l 1.75,-0.15 4.45,-0.15 0.4,0.35 0.6,0.1 0.4,-0.05 0.2,-0.05 2.3,1.6 0.95,0.9 q -1.65,1 -4.1,0.95 l -7.35,0.1 v 0.1 q -1.05,2.95 -1.25,6.15 l -0.3,1.85 -1.05,4.5 -0.2,0.35 m -5.95,-8.9 q -2.4,1.65 -5.15,2.55 l -2.85,0.7 -0.75,0.1 -0.6,0.2 -1.6,-2.3 7.25,-1.1 1.6,-0.2 2.1,0.05 M 23.05,4.65 21.3,5.05 20.6,3 q -0.4,-1.6 -1.15,-3.05 0,-1.1 -0.4,-2.1 l -1.35,-2.75 0.35,0.05 2.35,0.25 0.9,1.8 0.3,1.7 q 1.35,2.65 1.45,5.75 M -10.4,-24.2 q -4.7,2.9 -9.8,5.25 l -1.85,1.05 q -7.7,4.1 -15.75,7.85 l -2.25,1.05 -0.45,-1.85 6.7,-3.5 q 10.75,-5.75 21.8,-10.8 0.95,0.2 1.6,0.95 M -27.65,7.15 q 2.45,3.2 2.5,7.55 0,0.6 -0.15,1.1 l -2.6,-0.1 0.05,-2.45 q 0,-1.25 -0.4,-2.4 l -0.1,-2.45 -0.2,-1.35 0.8,0.05 0.1,0.05"
         fill="#ffffff"
         fill-rule="evenodd"
         stroke="none"
         id="path2" />
      <path
         d="m 15.5,-10.4 0.2,-0.35 1.05,-4.5 0.3,-1.85 q 0.2,-3.2 1.25,-6.15 v -0.1 l 7.35,-0.1 q 2.45,0.05 4.1,-0.95 l 4.5,4.05 q 1.1,1.55 2.5,3 l 3.6,3.7 -0.1,0.15 -0.1,0.25 -0.05,0.2 v 0.2 l -0.05,0.25 -0.15,0.15 -0.1,0.2 -0.15,0.2 -0.1,0.25 -0.05,0.15 -0.05,0.2 v 0.25 L 38.6,-9.35 37.95,-8.2 37.3,-8.6 q -1.35,0.15 -1.65,1.35 L 15.5,-10.4 m -5.95,-8.9 2.6,-0.2 v 1.7 l -0.05,0.75 -1.5,-0.1 -4.7,0.25 -1.5,0.15 q 2.75,-0.9 5.15,-2.55 M 4.4,-2.9 Q 4.25,-4.75 3.45,-5.95 4.3,-9.3 2.8,-12.15 l 9,-2.45 -0.4,3.1 Q 11.1,-9 12,-6.6 l 0.25,0.15 0.45,0.15 0.35,-0.1 0.1,-0.05 h 0.25 0.25 l 1.35,0.8 -0.25,0.4 v 0.4 l -0.05,0.8 v 0.4 L 15.35,-2 q 0.25,1.05 0.75,2 v 0.2 l 0.2,1.05 0.25,0.6 v 0.4 l 0.1,0.45 h -0.1 L 9.1,3.4 4.3,3.9 q 0.45,-2.45 0.15,-5 L 4.4,-2.9 M 23.05,4.65 Q 22.95,1.55 21.6,-1.1 l -0.3,-1.7 -0.9,-1.8 15.25,1.8 0.15,0.75 0.15,0.15 0.1,0.2 0.05,0.25 q -0.05,0.95 0.25,1.85 l 0.4,1.8 q -6.9,0.95 -13.7,2.45 m -33.45,-28.85 0.25,0.3 1.1,1.1 0.45,0.8 2.9,3.95 3.4,3.75 0.3,0.65 0.05,0.1 0.15,0.9 q 0.2,0.65 0.7,1 v 0.45 1.8 l 0.05,1.2 -6.25,4.25 q -5.4,3.8 -11.05,7.25 L -37.1,0.95 Q -37.05,-0.6 -37.6,-2 l -1.75,-4.65 -0.7,-2.35 2.25,-1.05 q 8.05,-3.75 15.75,-7.85 l 1.85,-1.05 q 5.1,-2.35 9.8,-5.25 m -17.25,31.35 8.5,0.65 q 3.65,0.3 6.75,-2.05 5.7,-4.3 11.9,-7.85 l 0.7,3.05 -1.15,3.1 q -1.9,5.9 -6.2,10.55 -9.15,1.4 -18.15,1.2 0.15,-0.5 0.15,-1.1 -0.05,-4.35 -2.5,-7.55 M 4.75,15.2 Q 4.45,11.7 2.3,9.7 L 2.7,8.85 Q 4.25,8.65 5.85,7.95 7.15,7.35 8.6,7.15 L 15.45,5.9 q -1.5,5.15 -1.6,10.6 h -0.9 L 7,17.1 4.95,17.45 4.75,15.2 m 17.9,-4.6 Q 26.75,9 31.1,8.15 l -0.05,0.65 0.2,8.15 Q 24.7,17.2 18.4,15.7 q 0.35,-2.55 1,-4.9 l 2,0.15 1.25,-0.35 M 5.05,23.15 V 21 l 8.8,-2.2 q 0.2,1 1.35,1.2 l 4.9,0.85 q -0.5,3.7 -0.35,7.6 Q 9,30.2 -1.4,33.35 L -2.2,31.55 -3.35,29.1 0.9,28.35 2.55,27.8 q 2.5,-1.45 2.5,-4.65 m -9.6,-4.5 q 2.15,-2.1 3.95,-4.45 l 0.45,1.65 0.25,2.85 q 0.4,1.9 0.25,3.85 l -0.2,0.4 -0.05,0.4 -0.1,0.25 -17.35,2.85 -1,-2.2 -1.2,-2.2 0.1,-0.2 0.3,-0.6 0.05,-0.35 v -0.3 l 9.55,-0.65 1.4,-0.05 q 2.2,0.15 3.6,-1.25"
         fill="#212121"
         fill-rule="evenodd"
         stroke="none"
         id="path3" />
    </g>
    <g
       id="sprite1"
       transform="translate(17.4,15.85)">
      <use
         ffdec:characterId="31"
         height="57.200001"
         transform="matrix(0.5366,0,0,0.5366,-16.6582,-14.546)"
         width="70.75"
         xlink:href="#sprite2"
         id="use3" />
    </g>
    <g
       id="sprite2"
       transform="translate(-8.65,-10.35)">
      <use
         ffdec:characterId="30"
         height="57.200001"
         transform="translate(8.65,10.35)"
         width="70.75"
         xlink:href="#shape1"
         id="use4" />
    </g>
    <g
       id="shape1"
       transform="translate(-8.65,-10.35)">
      <path
         d="m 14.8,41.7 q 0.65,-1.75 2.65,-2.5 1.8,-0.8 3.7,-0.25 1.15,0.45 2.25,1.2 l 0.9,0.4 q 1.65,0.9 2.85,2.5 L 37.8,30.1 q 2.35,-2.8 3.75,-3.95 1.5,-1.15 4.25,-2.4 18.2,-8.85 27.65,-12.6 2.15,-0.8 3.25,-0.8 h 0.8 l 1.9,2.4 -0.2,0.8 q -0.2,1.1 -1.55,3 -5.85,8.25 -18.85,23.8 -1.85,2.35 -3.35,3.5 -1.4,1.15 -4.75,2.75 l -15.15,7.15 q 1.2,1.6 1.75,3.4 l 0.2,1 0.55,2.5 q 0.1,1.95 -1.1,3.55 -1.2,1.65 -3.05,1.9 l -1.3,0.05 q -1.65,0.2 -3.45,-0.65 -1.85,-0.9 -3,-2.6 L 25,60.95 23.8,62.1 q -2.6,2.85 -4.3,3.95 -2.85,1.8 -5.5,1.45 l -1.65,-0.5 -1.2,-0.7 -0.2,-0.2 q -1,-0.85 -1.6,-1.9 L 9.25,64 9.15,63.8 8.75,62.4 q -0.2,-0.8 -0.05,-1.7 0.25,-2.65 2.7,-5.05 1.5,-1.3 4.9,-3.15 L 17.7,51.55 16.05,50 q -1.35,-1.5 -1.8,-3.6 -0.4,-1.85 0.25,-3.45 l 0.3,-1.25"
         fill="#000000"
         fill-opacity="0.372549"
         fill-rule="evenodd"
         stroke="none"
         id="path4" />
    </g>
  </defs>
</svg>
