<?xml version="1.0" encoding="UTF-8" standalone="no"?>
<svg
   ffdec:objectType="frame"
   height="72.011002"
   width="70.066597"
   version="1.1"
   id="svg5"
   xmlns:xlink="http://www.w3.org/1999/xlink"
   xmlns="http://www.w3.org/2000/svg"
   xmlns:svg="http://www.w3.org/2000/svg"
   xmlns:ffdec="https://www.free-decompiler.com/flash">
  <g
     transform="translate(34.204098,36.161)"
     id="g1">
    <use
       ffdec:characterId="17"
       height="119.15"
       id="rarity"
       transform="translate(-58.5,-60.65)"
       width="119.15"
       xlink:href="#sprite0" />
    <use
       ffdec:characterId="368"
       height="72.099998"
       transform="translate(-34.2,-36.15)"
       width="70.050003"
       xlink:href="#shape0"
       id="use1" />
  </g>
  <defs
     id="defs5">
    <g
       id="shape0"
       transform="translate(33.9,38.65)">
      <path
         d="m 27.6,-24.7 -1,-1.3 q -2.25,-2.6 -5.5,-4.2 -3.1,-1.5 -6.7,-1.95 -2.15,-0.25 -3.6,0.05 -1.9,0.4 -4.75,2.35 -3.55,2.55 -7.5,6.35 l -6.05,6.2 h 0.25 2.1 l 2.4,0.1 0.9,0.15 0.9,0.15 2.6,1 0.9,0.45 1.75,1 q 3.2,2.05 5.8,4.65 l 0.3,0.3 0.2,0.2 q 2,2.2 3.45,4.65 l 0.05,0.15 1.25,2.45 q 1.45,3.5 1.6,7.2 L 25,-5.05 27.75,-8.8 q 1.4,-2.2 1.95,-4.2 1,-3.25 0.1,-6.85 -0.65,-2.65 -2.2,-4.85 m -20.2,-13 q 4.35,-1.55 9.5,-0.6 4.65,0.9 9,3.65 6.85,4.4 9.05,10.5 1.1,3.15 1.2,7.5 0.1,3.25 -0.6,5.45 -0.75,2.6 -3.95,6.75 L 15.05,17.4 9.2,24.65 q -3.5,3.85 -7,6.05 -2.8,1.75 -5.4,2.35 l -5.85,0.3 q -5.6,-0.4 -10.55,-2.65 -5.2,-2.3 -8.75,-6.25 -3.7,-4.15 -5,-9.6 -1.3,-5.65 0.45,-10.7 0.95,-2.75 3,-5.6 l 4.05,-5.05 10.4,-11.55 7.7,-8.15 q 4.45,-4.45 8.4,-7.5 3.75,-2.9 6.75,-4 M 10.8,-0.2 10.35,-1.1 7.3,-5.25 6.75,-5.85 5.05,-7.45 Q 2.65,-9.5 0.3,-10.55 l -3.15,-0.95 -0.1,-0.05 -3.3,-0.2 H -7.5 -8.15 l -2.45,0.3 -0.1,0.05 -1.6,0.55 -1.55,0.5 -8.7,9.9 -0.45,0.6 q -3.05,3.75 -3.9,6.55 -0.9,2.95 -0.2,6.25 l 1.15,3.35 0.35,0.65 1.15,1.8 q 3.7,4.85 10.4,7.1 5.6,2 9.95,0.8 4.55,-1.2 9.65,-7.1 L 11.4,12.3 11.85,11.75 Q 13.45,7 11.6,1.65 L 10.8,-0.2"
         fill="#000000"
         fill-rule="evenodd"
         stroke="none"
         id="path1" />
      <path
         d="M -1.85,-16.95 9.75,-27 9.9,-27.15 q 2.25,-1.85 3.7,-2 1.05,-0.1 2,0.5 l 0.05,0.05 0.55,0.5 q 0.45,0.55 0.4,1.25 -0.05,1 -1.5,2.35 l -10.8,10.15 -1.75,-1 -0.9,-0.45 -2.6,-1 -0.9,-0.15 m 2.15,6.4 -0.5,0.45 q -8.85,8.45 -14.7,15 l -1.95,1.85 Q -18,7.6 -19.15,7.6 l -0.9,-0.15 q -0.8,-0.25 -1.4,-1 L -22.15,5 V 4.95 l -0.05,-0.5 0.05,-0.5 0.25,-0.65 0.5,-0.9 1,-1.2 7,-7.2 5.9,-5.75 h 1.25 l 3.3,0.2 0.1,0.05 3.15,0.95 m -23.55,23.35 -0.25,-0.9 0.05,-0.75 0.45,-0.95 0.9,-0.7 1.3,-0.25 q 0.75,0.05 1.3,0.45 0.6,0.4 0.9,1.1 l 0.15,0.8 -0.05,0.55 -0.05,0.25 q -0.15,0.65 -0.7,1.15 -0.6,0.6 -1.4,0.7 l -1.5,-0.3 -1.1,-1.15"
         fill="#ffffff"
         fill-rule="evenodd"
         stroke="none"
         id="path2" />
      <path
         d="m -1.85,-16.95 -0.9,-0.15 -2.4,-0.1 h -2.1 -0.25 l 6.05,-6.2 q 3.95,-3.8 7.5,-6.35 2.85,-1.95 4.75,-2.35 1.45,-0.3 3.6,-0.05 3.6,0.45 6.7,1.95 3.25,1.6 5.5,4.2 l 1,1.3 -0.05,1.05 q -0.25,2.15 -1.85,4.9 -2.45,4.3 -6.35,8.7 L 14.7,-5.2 14.1,-4.4 14.05,-4.55 Q 12.6,-7 10.6,-9.2 L 10.4,-9.4 10.1,-9.7 Q 7.5,-12.3 4.3,-14.35 L 15.1,-24.5 q 1.45,-1.35 1.5,-2.35 0.05,-0.7 -0.4,-1.25 l -0.55,-0.5 -0.05,-0.05 q -0.95,-0.6 -2,-0.5 -1.45,0.15 -3.7,2 L 9.75,-27 -1.85,-16.95 m 2.15,6.4 q 2.35,1.05 4.75,3.1 l 1.7,1.6 0.55,0.6 3.05,4.15 0.45,0.9 q -6.55,7.75 -14.7,14.15 -3,2.35 -4.9,3.25 -3.35,1.6 -7.4,1.6 -3.75,0 -7.5,-1.35 l -1.9,-0.5 -0.35,-0.65 -1.15,-3.35 q -0.7,-3.3 0.2,-6.25 0.85,-2.8 3.9,-6.55 l 0.45,-0.6 8.7,-9.9 1.55,-0.5 1.6,-0.55 0.1,-0.05 2.45,-0.3 h 0.65 l -5.9,5.75 -7,7.2 -1,1.2 -0.5,0.9 -0.25,0.65 -0.05,0.5 0.05,0.5 V 5 l 0.7,1.45 q 0.6,0.75 1.4,1 l 0.9,0.15 q 1.15,0 2.3,-0.85 L -14.9,4.9 q 5.85,-6.55 14.7,-15 l 0.5,-0.45 m -23.55,23.35 1.1,1.15 1.5,0.3 q 0.8,-0.1 1.4,-0.7 0.55,-0.5 0.7,-1.15 l 0.05,-0.25 0.05,-0.55 -0.15,-0.8 q -0.3,-0.7 -0.9,-1.1 -0.55,-0.4 -1.3,-0.45 l -1.3,0.25 -0.9,0.7 -0.45,0.95 -0.05,0.75 0.25,0.9"
         fill="#b4b4b4"
         fill-rule="evenodd"
         stroke="none"
         id="path3" />
      <path
         d="m 14.1,-4.4 0.6,-0.8 4.65,-4.85 q 3.9,-4.4 6.35,-8.7 1.6,-2.75 1.85,-4.9 l 0.05,-1.05 q 1.55,2.2 2.2,4.85 0.9,3.6 -0.1,6.85 -0.55,2 -1.95,4.2 L 25,-5.05 16.95,5.25 q -0.15,-3.7 -1.6,-7.2 L 14.1,-4.4 m -39.7,21.35 1.9,0.5 q 3.75,1.35 7.5,1.35 4.05,0 7.4,-1.6 1.9,-0.9 4.9,-3.25 8.15,-6.4 14.7,-14.15 l 0.8,1.85 Q 13.45,7 11.85,11.75 L 11.4,12.3 5.55,19.55 q -5.1,5.9 -9.65,7.1 -4.35,1.2 -9.95,-0.8 -6.7,-2.25 -10.4,-7.1 l -1.15,-1.8"
         fill="#7f7f7f"
         fill-rule="evenodd"
         stroke="none"
         id="path4" />
    </g>
    <g
       id="sprite1"
       transform="translate(17.4,15.85)">
      <use
         ffdec:characterId="31"
         height="57.200001"
         transform="matrix(0.5366,0,0,0.5366,-16.6582,-14.546)"
         width="70.75"
         xlink:href="#sprite2"
         id="use4" />
    </g>
    <g
       id="sprite2"
       transform="translate(-8.65,-10.35)">
      <use
         ffdec:characterId="30"
         height="57.200001"
         transform="translate(8.65,10.35)"
         width="70.75"
         xlink:href="#shape1"
         id="use5" />
    </g>
    <g
       id="shape1"
       transform="translate(-8.65,-10.35)">
      <path
         d="m 14.8,41.7 q 0.65,-1.75 2.65,-2.5 1.8,-0.8 3.7,-0.25 1.15,0.45 2.25,1.2 l 0.9,0.4 q 1.65,0.9 2.85,2.5 L 37.8,30.1 q 2.35,-2.8 3.75,-3.95 1.5,-1.15 4.25,-2.4 18.2,-8.85 27.65,-12.6 2.15,-0.8 3.25,-0.8 h 0.8 l 1.9,2.4 -0.2,0.8 q -0.2,1.1 -1.55,3 -5.85,8.25 -18.85,23.8 -1.85,2.35 -3.35,3.5 -1.4,1.15 -4.75,2.75 l -15.15,7.15 q 1.2,1.6 1.75,3.4 l 0.2,1 0.55,2.5 q 0.1,1.95 -1.1,3.55 -1.2,1.65 -3.05,1.9 l -1.3,0.05 q -1.65,0.2 -3.45,-0.65 -1.85,-0.9 -3,-2.6 L 25,60.95 23.8,62.1 q -2.6,2.85 -4.3,3.95 -2.85,1.8 -5.5,1.45 l -1.65,-0.5 -1.2,-0.7 -0.2,-0.2 q -1,-0.85 -1.6,-1.9 L 9.25,64 9.15,63.8 8.75,62.4 q -0.2,-0.8 -0.05,-1.7 0.25,-2.65 2.7,-5.05 1.5,-1.3 4.9,-3.15 L 17.7,51.55 16.05,50 q -1.35,-1.5 -1.8,-3.6 -0.4,-1.85 0.25,-3.45 l 0.3,-1.25"
         fill="#000000"
         fill-opacity="0.372549"
         fill-rule="evenodd"
         stroke="none"
         id="path5" />
    </g>
  </defs>
</svg>
