<?xml version="1.0" encoding="UTF-8" standalone="no"?>
<svg
   ffdec:objectType="frame"
   height="90.722"
   width="83.022057"
   version="1.1"
   id="svg5"
   xmlns:xlink="http://www.w3.org/1999/xlink"
   xmlns="http://www.w3.org/2000/svg"
   xmlns:svg="http://www.w3.org/2000/svg"
   xmlns:ffdec="https://www.free-decompiler.com/flash">
  <g
     transform="translate(40.725,45.95)"
     id="g1">
    <use
       ffdec:characterId="17"
       height="119.15"
       id="rarity"
       transform="translate(-58.5,-60.65)"
       width="119.15"
       xlink:href="#sprite0" />
    <use
       ffdec:characterId="417"
       height="90.699997"
       transform="translate(-40.75,-45.95)"
       width="83.050003"
       xlink:href="#shape0"
       id="use1" />
  </g>
  <defs
     id="defs5">
    <g
       id="shape0"
       transform="translate(40.35,45.15)">
      <path
         d="m 13.65,-17.35 q -2.7,7.7 -10.5,6.05 -0.75,-0.15 -1.3,-0.55 -2.75,4.7 -6.15,9.05 l -3.2,4.5 q -0.6,1.65 -1.65,3.15 -0.65,0.9 -0.75,2 l -0.85,1.9 -0.7,1.3 2.1,-1.15 0.75,-0.45 7.3,-5.8 0.65,-0.6 0.35,-0.2 0.5,-0.25 3.15,-2.7 0.7,-0.5 q 6.35,-5.55 12.1,-11.7 l 2.15,-2.05 2.35,-3.1 1.25,-1.2 0.05,-0.2 0.05,-0.2 0.1,-0.25 4.35,-5.55 0.55,-0.65 -7.8,-5.65 -2.15,2.2 -0.75,0.65 -0.05,0.25 -0.1,0.2 q -1.75,1.65 -3.15,3.7 l -0.2,0.35 q 1.15,3.55 0.85,7.45 M 8.2,-44.9 q 6.85,1.9 12.7,6.2 5.7,4.2 11.2,8.75 l 8.15,7 0.7,0.7 0.3,0.2 0.1,0.4 q 0.65,1.05 0.5,2.1 1.2,6.3 0.7,12.95 -0.2,2.95 -1,5.8 -0.5,4.95 -5.75,6.6 -1.2,0.4 -2.3,1.15 L 0,29.35 -16.1,40.1 q -5.3,3.6 -11.35,5.4 -1.05,0.3 -1.6,-0.65 -1.8,-0.35 -3.15,-1.8 l -1.7,-1.3 -2.7,-2.4 q -3.25,-2.55 -3.7,-6.1 -0.15,-1.25 0.6,-2.4 2.8,-4.5 5.25,-9.2 2.4,-4.7 5.25,-9.2 L -18.15,-5 l 11.3,-17.4 1.4,-2.05 -3.85,-6.9 q -1.75,-3 -2.05,-6.4 -0.5,-5.5 4.4,-7.4 4.8,0.25 8.2,4.05 l 1.75,2 1.05,-2.1 q 1.4,-2.9 4.15,-3.7 m -14.2,4.65 -0.55,1.3 -0.2,0.65 q 3.75,8.8 8.5,17.3 l 2.9,4.8 q 0.75,0.55 1.7,0.3 l 0.95,-0.6 1.35,-2.1 0.3,-0.45 0.2,-1.5 v -0.65 q -0.7,-1 -1.1,-2.15 L 7.85,-24 6.6,-26.15 6.2,-26.8 V -27 L 6.15,-27.45 4.6,-29.6 4.45,-30 Q -0.4,-35.3 -5.6,-40.2 L -6,-40.25 m 15.45,2.3 -2.2,4 3,4.15 1.35,2.2 0.55,-0.6 0.8,-0.65 q 0.5,-1 1.55,-1.5 1.55,-1.45 3.3,-2.75 -4.05,-2.6 -8.35,-4.85 M -4.3,-15.5 q -7.5,10.9 -14.5,22.1 l -0.8,1.3 q -1.2,2.7 -2,5.55 l -1,3.2 -0.9,4.75 -0.6,2.3 v 3.85 q 0,1.05 -0.45,1.95 0.05,1.2 -0.2,2.3 l -0.45,1.35 0.05,0.4 -0.05,0.65 -0.15,0.45 -0.25,0.65 -0.15,2.05 Q -15.2,26.65 -4.2,16.4 7.5,5.5 18.7,-5.9 l 9.2,-8.9 6.2,-5.6 -4.8,-4.2 -8.85,10.95 -3.8,4.25 q -1.85,2.25 -4,4.35 -0.6,0.65 -1.45,1 -6.7,6.5 -14.1,12.3 -0.9,0.7 -1.9,1.2 -3.85,4.2 -9.15,4.8 -2.9,-3.5 -0.3,-7.9 L -12.2,2.6 q 1.05,-2.1 2.7,-3.8 0.7,-1.5 1.8,-2.85 l 1.1,-1.2 q 2.65,-3.8 6.15,-6.95 l 1.1,-1 -2.95,-5.2 -2,2.9 m 28.95,21.4 5.65,-3.55 5.65,-3.6 q 1.4,-6.65 1.4,-13.5 -4.55,3.6 -8.75,7.55 l -0.35,0.6 -0.6,1.05 -0.2,0.2 -0.35,0.25 -1.75,3.6 -0.95,1.75 -0.5,1.6 -0.65,0.95 q -1,3.05 -2.7,5.8 l 4.1,-2.7 M 20,1.4 q -4.55,4.95 -9.6,9.35 L -3.15,22.55 -12.2,30.4 0.65,21.75 16.75,11.1 Q 17,10.35 17.5,9.7 l 0.85,-1.25 q 0.2,-1 0.8,-1.8 L 19.5,5.7 19.75,5.45 19.95,5.25 20,5.05 20.1,4.85 20.55,4.15 21,3.3 q 0.05,-1 0.4,-2 0.25,-0.65 0.85,-1.2 L 22.7,-1.45 20,1.4 m -50.35,25.2 -3.55,6.7 4.7,4.25 0.2,-0.8 0.55,-0.8 V 35.1 l 0.05,-0.9 0.25,-0.4 0.25,-0.45 0.25,-1.5 0.4,-0.85 v -1.5 l 0.3,-1.05 v -0.9 l 0.25,-0.65 q 0.45,-5.4 2.1,-10.65 l -5.75,10.35"
         fill="#000000"
         fill-rule="evenodd"
         stroke="none"
         id="path1" />
      <path
         d="m -6,-40.25 0.4,0.05 q 5.2,4.9 10.05,10.2 l 0.15,0.4 1.55,2.15 0.05,0.45 v 0.2 l 0.4,0.65 1.25,2.15 0.2,0.65 q 0.4,1.15 1.1,2.15 v 0.65 l -0.2,1.5 -0.3,0.45 -1.35,2.1 -0.95,0.6 q -0.95,0.25 -1.7,-0.3 L 1.75,-21 Q -3,-29.5 -6.75,-38.3 l 0.2,-0.65 0.55,-1.3"
         fill="#ffffff"
         fill-rule="evenodd"
         stroke="none"
         id="path2" />
      <path
         d="m 13.65,-17.35 q 0.3,-3.9 -0.85,-7.45 l 0.2,-0.35 q 1.4,-2.05 3.15,-3.7 l 0.1,-0.2 0.05,-0.25 0.75,-0.65 2.15,-2.2 7.8,5.65 -0.55,0.65 -4.35,5.55 -0.1,0.25 -0.05,0.2 -0.05,0.2 -1.25,1.2 -2.35,3.1 -2.15,2.05 Q 10.4,-7.15 4.05,-1.6 l -0.7,0.5 -3.15,2.7 -0.5,0.25 -0.35,0.2 -0.65,0.6 -7.3,5.8 -0.75,0.45 -2.1,1.15 0.7,-1.3 0.85,-1.9 q 0.1,-1.1 0.75,-2 1.05,-1.5 1.65,-3.15 l 3.2,-4.5 q 3.4,-4.35 6.15,-9.05 0.55,0.4 1.3,0.55 7.8,1.65 10.5,-6.05 m -17.95,1.85 2,-2.9 2.95,5.2 -1.1,1 q -3.5,3.15 -6.15,6.95 l -1.1,1.2 q -1.1,1.35 -1.8,2.85 -1.65,1.7 -2.7,3.8 l -2.05,3.75 q -2.6,4.4 0.3,7.9 5.3,-0.6 9.15,-4.8 1,-0.5 1.9,-1.2 7.4,-5.8 14.1,-12.3 0.85,-0.35 1.45,-1 2.15,-2.1 4,-4.35 l 3.8,-4.25 8.85,-10.95 4.8,4.2 -6.2,5.6 -9.2,8.9 Q 7.5,5.5 -4.2,16.4 q -11,10.25 -21.55,20.95 l 0.15,-2.05 0.25,-0.65 0.15,-0.45 0.05,-0.65 -0.05,-0.4 0.45,-1.35 q 0.25,-1.1 0.2,-2.3 0.45,-0.9 0.45,-1.95 V 23.7 l 0.6,-2.3 0.9,-4.75 1,-3.2 q 0.8,-2.85 2,-5.55 l 0.8,-1.3 q 7,-11.2 14.5,-22.1 M 9.45,-37.95 q 4.3,2.25 8.35,4.85 -1.75,1.3 -3.3,2.75 -1.05,0.5 -1.55,1.5 l -0.8,0.65 -0.55,0.6 -1.35,-2.2 -3,-4.15 2.2,-4 m -39.8,64.55 5.75,-10.35 q -1.65,5.25 -2.1,10.65 l -0.25,0.65 v 0.9 l -0.3,1.05 V 31 l -0.4,0.85 -0.25,1.5 -0.25,0.45 -0.25,0.4 -0.05,0.9 v 0.85 l -0.55,0.8 -0.2,0.8 -4.7,-4.25 3.55,-6.7"
         fill="#8e7664"
         fill-rule="evenodd"
         stroke="none"
         id="path3" />
      <path
         d="m 20,1.4 2.7,-2.85 -0.45,1.55 q -0.6,0.55 -0.85,1.2 -0.35,1 -0.4,2 l -0.45,0.85 -0.45,0.7 -0.1,0.2 -0.05,0.2 -0.2,0.2 -0.25,0.25 -0.35,0.95 q -0.6,0.8 -0.8,1.8 L 17.5,9.7 Q 17,10.35 16.75,11.1 L 0.65,21.75 -12.2,30.4 -3.15,22.55 10.4,10.75 Q 15.45,6.35 20,1.4 m 4.65,4.5 -4.1,2.7 q 1.7,-2.75 2.7,-5.8 l 0.65,-0.95 0.5,-1.6 0.95,-1.75 1.75,-3.6 0.35,-0.25 0.2,-0.2 0.6,-1.05 0.35,-0.6 q 4.2,-3.95 8.75,-7.55 0,6.85 -1.4,13.5 L 30.3,2.35 24.65,5.9"
         fill="#735f4f"
         fill-rule="evenodd"
         stroke="none"
         id="path4" />
    </g>
    <g
       id="sprite1"
       transform="translate(17.4,15.85)">
      <use
         ffdec:characterId="31"
         height="57.200001"
         transform="matrix(0.5366,0,0,0.5366,-16.6582,-14.546)"
         width="70.75"
         xlink:href="#sprite2"
         id="use4" />
    </g>
    <g
       id="sprite2"
       transform="translate(-8.65,-10.35)">
      <use
         ffdec:characterId="30"
         height="57.200001"
         transform="translate(8.65,10.35)"
         width="70.75"
         xlink:href="#shape1"
         id="use5" />
    </g>
    <g
       id="shape1"
       transform="translate(-8.65,-10.35)">
      <path
         d="m 14.8,41.7 q 0.65,-1.75 2.65,-2.5 1.8,-0.8 3.7,-0.25 1.15,0.45 2.25,1.2 l 0.9,0.4 q 1.65,0.9 2.85,2.5 L 37.8,30.1 q 2.35,-2.8 3.75,-3.95 1.5,-1.15 4.25,-2.4 18.2,-8.85 27.65,-12.6 2.15,-0.8 3.25,-0.8 h 0.8 l 1.9,2.4 -0.2,0.8 q -0.2,1.1 -1.55,3 -5.85,8.25 -18.85,23.8 -1.85,2.35 -3.35,3.5 -1.4,1.15 -4.75,2.75 l -15.15,7.15 q 1.2,1.6 1.75,3.4 l 0.2,1 0.55,2.5 q 0.1,1.95 -1.1,3.55 -1.2,1.65 -3.05,1.9 l -1.3,0.05 q -1.65,0.2 -3.45,-0.65 -1.85,-0.9 -3,-2.6 L 25,60.95 23.8,62.1 q -2.6,2.85 -4.3,3.95 -2.85,1.8 -5.5,1.45 l -1.65,-0.5 -1.2,-0.7 -0.2,-0.2 q -1,-0.85 -1.6,-1.9 L 9.25,64 9.15,63.8 8.75,62.4 q -0.2,-0.8 -0.05,-1.7 0.25,-2.65 2.7,-5.05 1.5,-1.3 4.9,-3.15 L 17.7,51.55 16.05,50 q -1.35,-1.5 -1.8,-3.6 -0.4,-1.85 0.25,-3.45 l 0.3,-1.25"
         fill="#000000"
         fill-opacity="0.372549"
         fill-rule="evenodd"
         stroke="none"
         id="path5" />
    </g>
  </defs>
</svg>
