<?xml version="1.0" encoding="UTF-8" standalone="no"?>
<svg
   ffdec:objectType="frame"
   height="47.32375"
   width="63.640907"
   version="1.1"
   id="svg3"
   sodipodi:docname="ITEM Cleric's Tears.svg"
   xmlns:inkscape="http://www.inkscape.org/namespaces/inkscape"
   xmlns:sodipodi="http://sodipodi.sourceforge.net/DTD/sodipodi-0.dtd"
   xmlns:xlink="http://www.w3.org/1999/xlink"
   xmlns="http://www.w3.org/2000/svg"
   xmlns:svg="http://www.w3.org/2000/svg"
   xmlns:ffdec="https://www.free-decompiler.com/flash">
  <sodipodi:namedview
     id="namedview3"
     pagecolor="#ffffff"
     bordercolor="#000000"
     borderopacity="0.25"
     inkscape:showpageshadow="2"
     inkscape:pageopacity="0.0"
     inkscape:pagecheckerboard="0"
     inkscape:deskcolor="#d1d1d1"
     fit-margin-top="5"
     fit-margin-left="5"
     fit-margin-right="5"
     fit-margin-bottom="5" />
  <g
     transform="translate(32.040909,23.45102)"
     id="g1">
    <use
       ffdec:characterId="17"
       height="119.15"
       id="rarity"
       transform="translate(-58.5,-60.65)"
       width="119.15"
       xlink:href="#sprite0" />
    <use
       ffdec:characterId="1016"
       height="47.299999"
       transform="translate(-32.05,-23.45)"
       width="63.650002"
       xlink:href="#shape0"
       id="use1" />
  </g>
  <defs
     id="defs3">
    <g
       id="shape0"
       transform="translate(78.85,24.8)">
      <path
         d="m -66.45,16.05 3.15,-0.4 q 2.55,-0.95 3.6,-4.1 0.7,-1.95 0.6,-5.65 -0.3,-6.8 -2.35,-13.35 l -3.2,-9 q -1.45,1.95 -3.2,6 -2.5,5.9 -3.4,8.95 -1.2,4.1 -1.35,8.45 -0.2,2.75 0.4,4.6 0.75,2.55 2.65,3.65 1.15,0.65 3.1,0.85 m -12.1,-3.7 q -0.4,-2.05 -0.25,-4.5 0.15,-4.8 1.4,-9.1 1.5,-5.2 4.8,-11 2.15,-3.8 6.55,-10.2 1.7,-2.4 3.3,-2.35 1.3,0 2.2,1.45 0.45,0.65 1,2.55 l 2.75,8.35 q 1.85,5.2 2.55,8.4 1.05,4.95 1.05,10.85 0,4.4 -0.8,6.95 -1.3,3.95 -5,6.5 -3.7,2.5 -7.85,2.25 -4.15,-0.25 -7.5,-3.15 -3.35,-2.9 -4.2,-7 m 50.1,3.7 3.15,-0.4 q 2.55,-0.95 3.6,-4.1 0.7,-1.95 0.6,-5.65 -0.3,-6.8 -2.35,-13.35 l -3.2,-9 q -1.45,1.95 -3.2,6 -2.5,5.9 -3.4,8.95 -1.2,4.1 -1.35,8.45 -0.2,2.75 0.4,4.6 0.75,2.55 2.65,3.65 1.15,0.65 3.1,0.85 m -12.1,-3.7 q -0.4,-2.05 -0.25,-4.5 0.15,-4.8 1.4,-9.1 1.5,-5.2 4.8,-11 l 6.55,-10.2 q 1.7,-2.4 3.3,-2.35 1.3,0 2.2,1.45 0.45,0.65 1,2.55 l 2.75,8.35 q 1.85,5.2 2.55,8.4 1.05,4.95 1.05,10.85 0,4.4 -0.8,6.95 -1.3,3.95 -5,6.5 -3.7,2.5 -7.85,2.25 -4.15,-0.25 -7.5,-3.15 -3.35,-2.9 -4.2,-7"
         fill="#000000"
         fill-rule="evenodd"
         stroke="none"
         id="path1" />
      <path
         d="m -66.45,16.05 q -1.95,-0.2 -3.1,-0.85 -1.9,-1.1 -2.65,-3.65 -0.6,-1.85 -0.4,-4.6 0.15,-4.35 1.35,-8.45 0.9,-3.05 3.4,-8.95 1.75,-4.05 3.2,-6 l 3.2,9 q 2.05,6.55 2.35,13.35 0.1,3.7 -0.6,5.65 -1.05,3.15 -3.6,4.1 l -3.15,0.4 m 38,0 q -1.95,-0.2 -3.1,-0.85 -1.9,-1.1 -2.65,-3.65 -0.6,-1.85 -0.4,-4.6 0.15,-4.35 1.35,-8.45 0.9,-3.05 3.4,-8.95 1.75,-4.05 3.2,-6 l 3.2,9 q 2.05,6.55 2.35,13.35 0.1,3.7 -0.6,5.65 -1.05,3.15 -3.6,4.1 l -3.15,0.4"
         fill="#87a7ad"
         fill-rule="evenodd"
         stroke="none"
         id="path2" />
    </g>
    <g
       id="sprite1"
       transform="translate(17.4,15.85)">
      <use
         ffdec:characterId="31"
         height="57.200001"
         transform="matrix(0.5366,0,0,0.5366,-16.6582,-14.546)"
         width="70.75"
         xlink:href="#sprite2"
         id="use2" />
    </g>
    <g
       id="sprite2"
       transform="translate(-8.65,-10.35)">
      <use
         ffdec:characterId="30"
         height="57.200001"
         transform="translate(8.65,10.35)"
         width="70.75"
         xlink:href="#shape1"
         id="use3" />
    </g>
    <g
       id="shape1"
       transform="translate(-8.65,-10.35)">
      <path
         d="m 14.8,41.7 q 0.65,-1.75 2.65,-2.5 1.8,-0.8 3.7,-0.25 1.15,0.45 2.25,1.2 l 0.9,0.4 q 1.65,0.9 2.85,2.5 L 37.8,30.1 q 2.35,-2.8 3.75,-3.95 1.5,-1.15 4.25,-2.4 18.2,-8.85 27.65,-12.6 2.15,-0.8 3.25,-0.8 h 0.8 l 1.9,2.4 -0.2,0.8 q -0.2,1.1 -1.55,3 -5.85,8.25 -18.85,23.8 -1.85,2.35 -3.35,3.5 -1.4,1.15 -4.75,2.75 l -15.15,7.15 q 1.2,1.6 1.75,3.4 l 0.2,1 0.55,2.5 q 0.1,1.95 -1.1,3.55 -1.2,1.65 -3.05,1.9 l -1.3,0.05 q -1.65,0.2 -3.45,-0.65 -1.85,-0.9 -3,-2.6 L 25,60.95 23.8,62.1 q -2.6,2.85 -4.3,3.95 -2.85,1.8 -5.5,1.45 l -1.65,-0.5 -1.2,-0.7 -0.2,-0.2 q -1,-0.85 -1.6,-1.9 L 9.25,64 9.15,63.8 8.75,62.4 q -0.2,-0.8 -0.05,-1.7 0.25,-2.65 2.7,-5.05 1.5,-1.3 4.9,-3.15 L 17.7,51.55 16.05,50 q -1.35,-1.5 -1.8,-3.6 -0.4,-1.85 0.25,-3.45 l 0.3,-1.25"
         fill="#000000"
         fill-opacity="0.372549"
         fill-rule="evenodd"
         stroke="none"
         id="path3" />
    </g>
  </defs>
</svg>
