<?xml version="1.0" encoding="UTF-8" standalone="no"?>
<svg
   ffdec:objectType="frame"
   height="74.199471"
   width="91.257103"
   version="1.1"
   id="svg5"
   xmlns:xlink="http://www.w3.org/1999/xlink"
   xmlns="http://www.w3.org/2000/svg"
   xmlns:svg="http://www.w3.org/2000/svg"
   xmlns:ffdec="https://www.free-decompiler.com/flash">
  <g
     transform="translate(47.100649,41.135185)"
     id="g1">
    <use
       ffdec:characterId="17"
       height="119.15"
       id="rarity"
       transform="translate(-58.5,-60.65)"
       width="119.15"
       xlink:href="#sprite0" />
    <use
       ffdec:characterId="70"
       height="74.199997"
       transform="translate(-47.1,-41.15)"
       width="91.25"
       xlink:href="#sprite1"
       id="use1" />
  </g>
  <defs
     id="defs5">
    <g
       id="sprite1">
      <use
         ffdec:characterId="69"
         height="74.199997"
         width="91.25"
         xlink:href="#shape0"
         id="use2" />
    </g>
    <g
       id="shape0">
      <path
         d="m 44.1,60.8 q -6.85,2.9 -13.5,2.45 -0.7,-0.1 -0.8,-0.4 -0.15,-0.4 0.5,-0.85 l 0.65,-0.4 q 1.2,-0.75 2.9,-1.45 L 37.6,58.7 q 6.5,-2.65 12.05,-7.3 l -0.15,0.05 q -8.45,4.3 -15.45,5.75 -8.8,1.9 -16.4,-0.2 l -3,-0.85 -3,-0.1 q -2.9,0.6 -4.3,3.5 L 7.2,59.8 Q 6.4,61.7 7.15,62.75 7.6,63.4 8.9,63.9 21.05,68.85 34.5,67.85 48.05,66.8 59.15,60 70.35,53.15 77.3,41.55 q 7,-11.65 7.65,-24.7 0.2,-3.15 -0.3,-5.6 Q 84.35,9.55 83.7,8.2 82.75,6.2 81.4,6.45 80.2,6.65 79.65,9 75.7,28.05 66.5,38.95 L 64,43.1 59.95,48.35 Q 53.8,55.55 47,59.35 L 44.1,60.8 M 0.75,65.4 q -1.7,-3.15 0.45,-8 1.25,-2.8 3.15,-4.75 2.1,-2.2 4.7,-2.9 2.5,-0.7 6.1,0 l 6.15,1.35 q 5.8,1 12.55,-0.65 5.35,-1.3 12,-4.5 5.5,-2.7 9.15,-5.3 4.7,-3.3 7.65,-7.15 1.6,-2.15 3.15,-5.2 l 2.65,-5.5 q 3.1,-6.85 3.9,-10.6 l 0.9,-4.75 q 0.65,-2.7 1.85,-4.3 1.35,-1.8 3.6,-2.6 2.25,-0.85 4.5,-0.35 2.2,0.55 4.05,2.3 1.7,1.65 2.65,3.95 1.45,3.5 1.35,9.35 -0.35,12.85 -6.1,24.7 -5.75,11.85 -15.65,20.05 -9.9,8.2 -22.65,11.6 -12.75,3.4 -25.4,1.2 Q 17.1,72.6 8.25,70 q -2.8,-0.8 -4.3,-1.6 -2.2,-1.2 -3.2,-3"
         fill="#000000"
         fill-rule="evenodd"
         stroke="none"
         id="path2" />
      <path
         d="m 84.65,11.25 q -0.5,3.2 -1.55,6.75 -1.2,3.95 -3.75,10.15 l -3.2,7.15 q -3.55,6.9 -9,12.65 -5.45,5.7 -12.2,9.75 -4.1,2.35 -7.1,3.15 l -3.3,0.1 L 44.1,60.8 47,59.35 q 6.8,-3.8 12.95,-11 L 64,43.1 66.5,38.95 Q 75.7,28.05 79.65,9 80.2,6.65 81.4,6.45 82.75,6.2 83.7,8.2 q 0.65,1.35 0.95,3.05 m -53.7,50.35 -3.6,0.6 -8.85,0.55 q -4.8,-0.15 -8.6,-1.7 -1.6,-0.7 -2.55,-1.5 1.4,-2.9 4.3,-3.5 l 3,0.1 3,0.85 q 7.6,2.1 16.4,0.2 7,-1.45 15.45,-5.75 L 49.65,51.4 Q 44.1,56.05 37.6,58.7 l -3.75,1.45 q -1.7,0.7 -2.9,1.45"
         fill="#e5e5e5"
         fill-rule="evenodd"
         stroke="none"
         id="path3" />
      <path
         d="m 44.1,60.8 0.45,0.15 3.3,-0.1 q 3,-0.8 7.1,-3.15 6.75,-4.05 12.2,-9.75 5.45,-5.75 9,-12.65 l 3.2,-7.15 Q 81.9,21.95 83.1,18 q 1.05,-3.55 1.55,-6.75 0.5,2.45 0.3,5.6 Q 84.3,29.9 77.3,41.55 70.35,53.15 59.15,60 48.05,66.8 34.5,67.85 21.05,68.85 8.9,63.9 7.6,63.4 7.15,62.75 6.4,61.7 7.2,59.8 l 0.15,-0.25 q 0.95,0.8 2.55,1.5 3.8,1.55 8.6,1.7 l 8.85,-0.55 3.6,-0.6 -0.65,0.4 q -0.65,0.45 -0.5,0.85 0.1,0.3 0.8,0.4 6.65,0.45 13.5,-2.45"
         fill="#c4c4c4"
         fill-rule="evenodd"
         stroke="none"
         id="path4" />
    </g>
    <g
       id="sprite2"
       transform="translate(17.4,15.85)">
      <use
         ffdec:characterId="31"
         height="57.200001"
         transform="matrix(0.5366,0,0,0.5366,-16.6582,-14.546)"
         width="70.75"
         xlink:href="#sprite3"
         id="use4" />
    </g>
    <g
       id="sprite3"
       transform="translate(-8.65,-10.35)">
      <use
         ffdec:characterId="30"
         height="57.200001"
         transform="translate(8.65,10.35)"
         width="70.75"
         xlink:href="#shape1"
         id="use5" />
    </g>
    <g
       id="shape1"
       transform="translate(-8.65,-10.35)">
      <path
         d="m 14.8,41.7 q 0.65,-1.75 2.65,-2.5 1.8,-0.8 3.7,-0.25 1.15,0.45 2.25,1.2 l 0.9,0.4 q 1.65,0.9 2.85,2.5 L 37.8,30.1 q 2.35,-2.8 3.75,-3.95 1.5,-1.15 4.25,-2.4 18.2,-8.85 27.65,-12.6 2.15,-0.8 3.25,-0.8 h 0.8 l 1.9,2.4 -0.2,0.8 q -0.2,1.1 -1.55,3 -5.85,8.25 -18.85,23.8 -1.85,2.35 -3.35,3.5 -1.4,1.15 -4.75,2.75 l -15.15,7.15 q 1.2,1.6 1.75,3.4 l 0.2,1 0.55,2.5 q 0.1,1.95 -1.1,3.55 -1.2,1.65 -3.05,1.9 l -1.3,0.05 q -1.65,0.2 -3.45,-0.65 -1.85,-0.9 -3,-2.6 L 25,60.95 23.8,62.1 q -2.6,2.85 -4.3,3.95 -2.85,1.8 -5.5,1.45 l -1.65,-0.5 -1.2,-0.7 -0.2,-0.2 q -1,-0.85 -1.6,-1.9 L 9.25,64 9.15,63.8 8.75,62.4 q -0.2,-0.8 -0.05,-1.7 0.25,-2.65 2.7,-5.05 1.5,-1.3 4.9,-3.15 L 17.7,51.55 16.05,50 q -1.35,-1.5 -1.8,-3.6 -0.4,-1.85 0.25,-3.45 l 0.3,-1.25"
         fill="#000000"
         fill-opacity="0.372549"
         fill-rule="evenodd"
         stroke="none"
         id="path5" />
    </g>
  </defs>
</svg>
