<?xml version="1.0" encoding="UTF-8" standalone="no"?>
<svg
   ffdec:objectType="frame"
   height="83.01667"
   width="92.862503"
   version="1.1"
   id="svg4"
   sodipodi:docname="ITEM Rat Necklace.svg"
   xmlns:inkscape="http://www.inkscape.org/namespaces/inkscape"
   xmlns:sodipodi="http://sodipodi.sourceforge.net/DTD/sodipodi-0.dtd"
   xmlns:xlink="http://www.w3.org/1999/xlink"
   xmlns="http://www.w3.org/2000/svg"
   xmlns:svg="http://www.w3.org/2000/svg"
   xmlns:ffdec="https://www.free-decompiler.com/flash">
  <sodipodi:namedview
     id="namedview4"
     pagecolor="#ffffff"
     bordercolor="#000000"
     borderopacity="0.25"
     inkscape:showpageshadow="2"
     inkscape:pageopacity="0.0"
     inkscape:pagecheckerboard="0"
     inkscape:deskcolor="#d1d1d1"
     fit-margin-top="5"
     fit-margin-left="5"
     fit-margin-right="5"
     fit-margin-bottom="5" />
  <g
     transform="translate(46.6,41.216667)"
     id="g1">
    <use
       ffdec:characterId="17"
       height="119.15"
       id="rarity"
       transform="translate(-58.5,-60.65)"
       width="119.15"
       xlink:href="#sprite0" />
    <use
       ffdec:characterId="828"
       height="83.050003"
       transform="translate(-46.6,-41.2)"
       width="92.849998"
       xlink:href="#shape0"
       id="use1" />
  </g>
  <defs
     id="defs4">
    <g
       id="shape0"
       transform="translate(47.15,41.95)">
      <path
         d="m -10.75,24.05 -3.25,1.4 q -1.8,0.85 -2.95,1.85 l -2.25,2.4 -2.1,2.5 q -4.4,4.55 -13.45,6.1 l -4.6,-0.2 q -1.15,-0.45 -1.75,-1.55 -0.65,-1.1 -0.25,-2.2 0.35,-0.95 1.55,-1.6 l 2.25,-1 Q -35.9,31.1 -33.1,29 l 3.2,-2.45 2.1,-2.05 -0.75,0.2 -5.5,1.45 q -3.7,1.05 -5.95,1.05 -3.5,-0.1 -5.45,-2.1 -1.25,-1.35 -1.6,-3.35 -0.3,-1.95 0.3,-3.8 0.95,-3.05 4.2,-6.3 2.2,-2.2 5,-4.2 l 1.4,-1.1 q 0.75,-0.7 1,-1.4 Q -34.8,3.9 -35.3,2.1 l -0.6,-2.85 q 0.05,-1.75 1.9,-3.9 1.95,-2.05 3.75,-2.9 1.8,-2.05 4.25,-3.45 1.55,-0.9 3.05,-1.3 l 3.35,-0.4 6.15,0.55 2.05,0.1 q 0.75,-0.25 1.45,-1.05 l 0.85,-1.05 -1.85,-0.5 -1.6,-0.4 q -1,-0.25 -1.6,-0.6 -1.35,-0.7 -3,-3.05 -1.35,-1.85 -1.5,-2.95 -0.3,-1.65 1.1,-4.05 2.05,-3.6 4.95,-5.55 3.45,-2.35 7.05,-1.9 1.55,0.2 3.4,0.95 1.7,0.7 2.6,1.55 l 1.45,1.65 0.55,0.65 -0.05,-0.9 q 0.1,-2.05 1.35,-5.2 1.1,-2.65 2.05,-3.9 1.3,-1.7 2.95,-2.55 2.15,-1.2 4.45,-1.05 2.45,0.1 4.25,1.65 1.45,1.4 2.1,3.5 0.3,1.05 0.4,3.3 l -0.25,3.25 q -0.65,2.95 -3.15,5.55 l -0.5,0.5 q 8.75,1.5 13.35,4.65 3.1,2.15 4.9,5.25 1.95,3.35 1.75,6.8 -0.1,2.4 -1.7,5.95 -0.55,1.3 -0.3,1.9 0.25,0.7 1.6,1.1 l 3.6,0.7 q 2.15,0.4 3.35,1.2 1.7,1.1 2.55,3.15 0.75,1.95 0.5,4.05 -0.5,3.95 -4,7 -2.35,2.05 -7.1,4.15 l -2.95,1.05 0.4,0.8 q 1.15,2.4 1.5,4.95 0.35,2.7 -0.2,4.45 -1.15,3.4 -5.05,5.15 -2.65,1.2 -7.15,1.55 L 13.75,39.95 6.4,40.4 2.45,40.9 -1.5,41.05 Q -3.05,40.95 -3.7,40.2 -4.4,39.25 -3.8,38 -3.35,37.15 -2.25,36.3 3.7,31.85 14.4,32.1 l 4.15,-0.3 1.85,-0.95 q 0.85,-0.75 1.1,-1.75 0.55,-2.3 -2.25,-4.8 L 18.8,23.9 18,24.5 16.7,25.4 Q 14.5,26.8 11.75,26.3 10.8,26.1 10.4,25.65 L 10.1,25.2 q -4.05,2.55 -8.2,1.95 -1.4,-0.3 -2.15,-0.8 l -0.7,0.6 Q -2,27.75 -3.5,28.2 l -1.65,0.35 -2.1,-0.15 q -1.8,-0.45 -2.45,-1.8 -0.35,-0.75 -0.35,-1.8 l 0.05,-1.05 -0.75,0.3 m -3.7,-47.1 -0.05,0.25 -0.1,0.8 0.55,0.65 0.6,0.85 0.6,0.85 q 0.65,0.65 2.25,1.05 l 1.75,0.4 0.3,-1.55 0.35,-1.2 q 0.5,-0.95 1.3,-1.5 l -1.8,-0.2 -1.05,0.3 -0.1,0.05 -0.95,0.15 q -0.45,0 -0.65,-0.25 -0.2,-0.3 -0.05,-0.7 l 0.9,-0.85 1.55,-0.65 2.65,-0.35 1.65,0.2 -0.05,-0.7 0.4,-1.55 0.5,-1.6 -1.25,-0.4 -2.5,-0.1 -0.1,0.05 q -1.35,0.2 -2.7,1.15 -2.5,1.75 -4,4.85 M 1.4,-24 l -1.9,-2 -0.8,-0.85 -1.2,-1 -0.05,0.15 -0.65,2.25 -0.25,1.1 1.25,0.65 1.55,1.2 0.7,0.65 0.6,0.55 0.1,0.1 1.05,1.7 0.4,0.85 0.3,-0.55 0.5,-1.3 q 0.3,-0.8 0.1,-1.35 L 2.9,-22.5 1.85,-23.5 1.4,-24 m -28.15,21 0.6,-0.75 1.45,-1.15 q 1.25,-0.9 2.85,-1.25 l 0.3,-0.05 -0.25,-1.1 -0.1,-1.2 0.05,-0.25 v -0.1 l -0.3,0.1 -0.4,0.1 q -1.4,0.5 -3.3,1.75 l -0.6,0.35 -4.45,3.35 h -0.05 l -0.35,0.25 -0.15,0.2 -0.25,0.35 0.2,0.05 0.1,0.05 0.35,0.15 3.35,0.15 0.35,-0.05 0.6,-0.95 m -2.25,2.55 -2.1,0.05 h -0.55 -0.3 -0.3 l 0.25,1.45 0.3,1.3 0.2,1.25 q 0.1,1.35 -0.25,2.4 -0.45,1.4 -1.85,2.75 l -0.75,0.7 V 9.8 q 0.15,0.6 0.85,1.05 l 0.3,0.15 0.8,-0.5 2.45,-1.5 q 1.45,-1.15 2.2,-2.9 0.75,-1.8 0.5,-3.65 l -0.35,-1.7 -0.1,-0.9 v -0.4 l -1.3,0.1 m 17.7,12.35 3.85,-0.2 q 1.9,0.35 3,1.65 L -4.35,13 q 0.5,-0.8 1.85,-1.2 2.6,-0.8 4.25,0.55 l 0.6,0.7 Q 4.4,11.9 7,12 L 9.6,12.45 10,12 q 0.7,-0.6 1.8,-1.05 l 1.8,-0.5 3.1,0.05 q 2.05,0.3 2.85,1.35 l 0.25,0.35 0.35,-0.25 q 1.9,-1.15 4,-1.75 L 22.2,8.45 Q 21.1,7.1 20.6,5.4 19.65,2.35 20.5,-1.5 q 0.5,-2.4 2.4,-6.55 0.75,-1.65 0.45,-2.4 l -1.25,-1.3 q -2.45,-1.45 -5.3,-1.95 -2.5,-0.45 -4.85,0 l -0.2,0.35 Q 11,-11.85 10.25,-11.1 9.3,-10.2 8,-9.75 5.35,-8.8 2.75,-10 l -0.2,-0.1 q -0.8,1.85 -1.85,3.15 l -1.45,1.4 Q -1.45,-5.1 -1.7,-5 l -1.45,0.2 H -4.1 q -1.95,3.25 -5.7,4.35 -3.95,1.1 -7.45,-0.95 -1.75,-1.05 -2.35,-1.15 -1.55,-0.35 -3.3,0.85 -1.05,0.75 -1.2,1.35 l 0.1,1.6 q 0.55,2.95 -0.6,5.8 -1.15,2.9 -3.55,4.65 -1.25,0.9 -3.6,1.85 l -1.5,0.7 q -0.8,0.6 -0.7,1.4 0.35,0.5 1.25,0.15 l 2.95,-1.2 2.95,-1.3 q 5,-2 10.1,-1.8 2.45,0.15 4,0.9 l 1.4,-0.5 m 9.75,-30.85 -0.25,-0.3 -1.35,-1.25 -0.95,-0.75 -1.55,-0.75 -0.5,0.5 -0.75,1.35 -0.25,0.95 -0.25,1.25 H -7 l 1.45,0.1 q 0.55,0.05 0.95,0.3 l 0.3,0.15 0.6,0.95 0.05,0.35 q 0.1,0.85 -0.4,1.4 l -0.25,0.25 -0.3,0.5 q -0.85,1.35 -1.05,2.65 v 1 0.05 l 0.4,0.6 0.65,0.7 q 0.5,0.35 1.1,0.4 h 0.1 q 0.7,-0.05 1.15,-0.5 l 0.6,-0.8 1.25,-2.05 1.1,-1.45 q 0,-1 -0.55,-2.45 l -0.35,-0.75 -0.9,-1.8 -0.45,-0.6 M -8,-7 -8.05,-7.05 q -0.9,-1.1 -1.05,-1.65 l -0.15,-0.8 v -0.15 l -1.3,0.8 -1.9,0.3 -1.95,-0.3 -5.35,-0.3 -0.2,0.55 v 0.1 q -0.45,1.4 -0.3,2.1 l 1.5,0.1 1.7,0.5 q 1.95,1.2 3.05,1.6 l 3.35,0.15 Q -8.9,-4.55 -7.8,-5.9 L -7.4,-6.4 -8,-7 m 21.25,-19.75 q 2.25,-2 2.85,-4.2 0.35,-1.25 0.25,-3.45 -0.2,-1.8 -0.8,-2.6 -0.6,-0.85 -1.65,-1.2 l -2.05,-0.15 q -1.95,0.4 -3.35,2.4 l -0.4,0.7 -1.3,3.1 v 0.1 l 0.1,0.05 0.55,0.3 1.15,0.75 0.45,0.45 1.25,-2.1 0.05,-0.1 q 0.9,-1.5 1.8,-1.9 l 0.5,-0.05 q 0.35,0.15 0.25,0.85 -0.25,1.05 -1.3,3 -1.05,1.9 -1.3,2.95 l -0.5,3.65 3.45,-2.55 m -5.6,7.1 -0.2,-0.25 Q 7.1,-20.65 6.8,-22.15 v -0.1 l -0.1,-1.25 0.2,-1.45 q 0.35,-1.9 1.1,-3.5 l -0.15,-0.2 -0.4,-0.7 -1.15,-0.8 -0.1,0.4 -0.1,3 -0.5,2.4 -0.4,1.15 -0.15,0.2 0.15,0.45 0.15,0.8 v 1.3 l -0.05,0.1 -0.35,1.3 0.25,-0.1 1.9,-0.45 0.55,-0.05 m 3.9,-0.95 0.1,0.25 0.65,1.15 0.05,0.1 0.25,2 v 0.85 l 1.5,-0.3 2.5,-0.15 q 0.1,-1.6 0.6,-2.65 l 0.05,-0.15 -3.75,-0.9 q -0.8,-0.2 -1.3,-0.5 l -0.35,-0.3 -0.5,0.25 0.2,0.35 m 11.1,2.55 -3.9,-1.15 -0.2,0.75 q -0.2,0.9 -0.15,1.95 l 1.35,0.25 q 2.95,0.7 4.95,2.55 l 0.6,0.6 0.2,-0.25 1.6,-1.45 0.25,-0.25 0.35,-0.3 -2.45,-1.55 q -1.2,-0.65 -2.6,-1.15 m -18.9,4.75 1.4,0.1 q 1.9,-0.2 2.6,-0.85 l 0.1,-0.1 0.5,-0.7 L 9,-16.8 v -0.9 l -0.3,-0.65 -0.05,0.05 -1.1,0.2 -0.3,0.05 -1.3,0.35 -1.6,0.55 H 4 l -0.45,0.45 -0.45,0.5 q 0.3,1.4 0.2,2.65 l 0.45,0.25 m 27.1,1.35 -0.55,-0.8 -1.3,-1.45 -0.45,0.35 -2.35,1.95 q 0.5,0.85 0.6,1.75 0.15,1.15 -0.3,2.55 l -0.05,0.2 -0.9,2.25 -1.1,3.15 -0.5,2.6 0.95,-0.4 1.3,-0.35 0.6,-0.1 H 28 l 0.7,-0.15 q 0.45,0 0.6,0.35 L 29.05,0.5 28.7,0.7 28.45,0.75 26.45,1.4 Q 25.05,2 23.95,2.8 L 23.9,2.85 24.05,3.8 q 0.5,-0.35 1.1,-0.55 L 26,2.95 26.8,2.45 27.15,2.2 Q 28.1,1.75 28.8,1.55 L 29.45,1.4 h 0.8 q -0.55,-1.85 0.4,-4.7 l 0.85,-2.5 q 0.4,-1.4 0.4,-2.45 V -8.4 q -0.05,-1.85 -1.05,-3.55 m -1.4,28.8 -0.35,2.05 q 2.05,0 4.75,-1.15 4.65,-2.05 6.9,-5.25 1.9,-2.8 0.7,-4.85 Q 40.9,6.75 39.6,6.25 L 37.1,5.6 36.65,5.5 Q 34.3,5.05 33.25,4.55 L 31.3,3.15 31.05,3.1 29.4,3.2 Q 28.65,3.35 27.95,3.75 L 27.6,4 l -1.1,0.65 -0.9,0.6 -0.35,0.45 -0.2,0.25 0.8,0.8 1.7,0.95 1.8,0.7 q 1.55,0.65 2.3,1.5 l 0.7,0.15 1.65,0.25 0.9,-0.25 0.4,-0.35 0.55,-0.8 0.1,-0.45 0.1,-0.4 0.1,-0.75 0.6,-0.45 0.75,0.1 0.4,0.5 0.15,0.6 V 8.2 q 0,1.5 -1.1,2.8 l -0.1,0.1 v 0.05 l -1.25,1.2 -1.15,0.55 -2.5,0.3 -0.55,-0.05 0.15,0.65 0.15,1.65 -0.15,1.2 q -0.2,0.75 -0.65,0.7 -0.45,0 -0.45,-0.5 v -0.1 l 0.1,-0.65 q 0.15,-0.9 -0.1,-1.65 l -0.7,-1.35 -1.15,-0.05 0.35,1 0.45,1.9 0.05,0.9 m -6.35,0.7 1.6,0.35 2.75,0.8 0.4,-1.7 q 0.1,-1.35 -0.55,-2.95 l -0.1,-0.2 -0.25,-0.65 -2.4,0.55 -0.3,0.1 q -1.05,0.35 -1.6,0.65 l -0.95,0.7 -0.4,0.25 0.15,1.7 V 17.6 L 23.1,17.55 M 29.55,27 Q 28.95,25.25 27.8,23.65 L 27.5,23.15 26.1,22.8 24.3,22 23.65,21.7 q -1.45,-0.65 -2.5,-0.35 l -0.65,0.2 -0.15,0.25 -0.05,0.15 h 0.05 q 1.9,0.6 3.15,2.3 l 0.8,1.45 q 0.45,1.05 0.5,2.25 0.05,1.15 -0.3,2.25 l -0.05,0.15 q 0.75,-0.1 1.6,0.35 l 0.3,0.2 q 0.8,0.6 1.4,1.7 l 0.15,0.35 0.25,1 q 1.25,-0.9 1.7,-2.1 0.6,-1.45 0.05,-3.5 L 29.55,27 M 9.65,16.9 Q 8.8,16.05 7.25,15.95 l -1.55,0.1 q -1,0.2 -1.65,0.5 l -0.45,0.3 0.05,1.1 v 0.1 L 3.25,20 2.95,21.1 2.05,23.35 H 2.1 l 1.25,0.1 q 2.9,-0.15 5.3,-1.9 1.35,-1 1.65,-2.05 0.45,-1.5 -0.65,-2.6 m 8.15,0.95 Q 17.9,16.6 17.4,15.5 l -0.2,-0.35 -0.75,-0.8 -0.85,-0.2 q -1.05,-0.05 -2.15,0.4 l -0.6,0.35 0.65,1.2 0.4,0.95 0.25,1.35 v 0.85 l -0.45,1.7 -0.95,2 0.8,-0.1 1.5,-0.7 1.85,-1.65 q 0.55,-0.85 0.8,-2.05 l 0.1,-0.6 M 26.35,34.3 26,33.65 Q 25.45,32.8 24.8,32.6 l -1,-0.2 -0.35,-0.2 q -1.05,1.4 -2.6,2.15 l -0.3,0.15 q -1.6,0.7 -3.9,0.8 l -1.15,0.05 h -0.2 -3.05 l -1.4,0.1 q -3.8,0.3 -7.1,1.6 l 11.55,-0.8 0.35,-0.05 1.2,-0.05 1.25,-0.05 h 1.15 0.35 l 3.1,-0.25 q 2.05,-0.25 3.65,-0.9 V 34.3 m -50.5,-15.1 0.3,-0.4 1.9,-1.85 2.45,-1.65 1.2,-0.6 q -3.25,-0.05 -6.6,0.95 l -5.5,2.05 -2.5,0.7 -0.15,0.25 -0.05,0.2 q -0.55,1.4 -0.1,2.6 l 0.2,0.4 0.05,0.15 7.65,-1.85 0.6,-0.15 0.55,-0.8 m 4.95,3.65 q -0.05,-0.8 -0.25,-1.6 V 21.2 l -0.4,-0.9 -0.05,-0.05 -1.3,1.5 -2.4,3.6 q -1.9,2.7 -5.1,5.2 l -4.15,2.9 -1.95,1.2 q 7.5,-1.15 11.25,-5.25 l 2.3,-2.95 2.1,-2.2 -0.05,-1.4 m 9.25,-3.75 1.9,-1.65 Q -7.2,16.6 -7.6,16.1 L -7.65,16 Q -7.9,15.65 -8.6,15.65 -12.25,15.6 -15.65,17.2 l -2.8,1.75 0.35,1.4 0.05,0.2 0.2,1.45 0.05,1.05 1.65,-1.25 2.45,-1.05 2.45,-0.95 1.3,-0.7 m 6.4,-2.1 -0.05,0.4 -0.65,1.85 0.5,0.05 1.55,-0.1 1.05,-0.25 0.3,-0.1 0.65,-0.35 0.1,-0.75 -0.15,-1.65 q -0.2,-1 -0.6,-1.3 -0.5,-0.3 -1.5,0 L -3.6,15 q 0.2,0.9 0.05,2 m -0.65,3.85 -0.85,0.05 h -0.3 L -5.55,21.45 -6,22.4 q -0.45,1.15 -0.4,2 v 0.15 l 0.1,0.2 0.45,0.15 h 0.35 q 2.1,-0.15 3.6,-2.2 l 1,-1.85 0.25,-0.65 -1.15,0.35 -2.4,0.3 M -35.4,12.1 -35.85,11.2 -35.9,10.75 -36.2,11 q -2.95,2.35 -5.15,5.45 -1.15,1.55 -1.5,2.9 -0.35,2 0.95,3 0.75,0.6 2.25,0.65 v -0.15 l 0.65,-2.25 0.2,-0.3 1.2,-1.45 q 0.75,-0.7 1.9,-1.2 l -0.55,-0.8 -0.25,-0.7 -0.05,-1.2 q 0.25,-1.1 1.45,-2.3 l 0.15,-0.1 -0.35,-0.35 -0.1,-0.1 m 0.65,9.9 -0.3,-1.25 0.35,-1.75 0.05,-0.1 0.15,-0.25 -0.6,0.35 -1.4,1.25 -0.7,1.45 -0.2,0.95 v 0.2 l 2.7,-0.5 h 0.05 L -34.75,22"
         fill="#000000"
         fill-rule="evenodd"
         stroke="none"
         id="path1" />
      <path
         d="m 0.65,-21.3 -0.6,-0.55 -0.7,-0.65 -1.55,-1.2 -1.25,-0.65 0.25,-1.1 0.65,-2.25 0.05,-0.15 1.2,1 0.8,0.85 1.9,2 -0.15,0.9 -0.6,1.8 m -15.1,-1.75 q 1.5,-3.1 4,-4.85 1.35,-0.95 2.7,-1.15 l 0.1,-0.05 2.5,0.1 1.25,0.4 -0.5,1.6 -0.4,1.55 0.05,0.7 -1.65,-0.2 -2.65,0.35 -1.55,0.65 -0.9,0.85 q -0.15,0.4 0.05,0.7 0.2,0.25 0.65,0.25 l 0.95,-0.15 0.1,-0.05 1.05,-0.3 1.8,0.2 q -0.8,0.55 -1.3,1.5 l -0.35,1.2 -0.3,1.55 -1.75,-0.4 q -1.6,-0.4 -2.25,-1.05 l -0.6,-0.85 -0.6,-0.85 -0.55,-0.65 0.1,-0.8 0.05,-0.25 M -27.7,-2 l -3.35,-0.15 -0.35,-0.15 -0.1,-0.05 -0.2,-0.05 0.25,-0.35 0.15,-0.2 0.35,-0.25 h 0.05 l 4.45,-3.35 0.6,-0.35 q 1.9,-1.25 3.3,-1.75 l 0.4,-0.1 0.3,-0.1 v 0.1 l -0.05,0.25 0.1,1.2 0.25,1.1 -0.3,0.05 q -1.6,0.35 -2.85,1.25 l -1.45,1.15 -0.6,0.75 -0.95,1 m -4,4.35 -0.3,-1.3 -0.25,-1.45 h 0.3 0.3 0.55 l 2.1,-0.05 -0.45,0.5 -1.75,1.85 -0.1,0.1 -0.4,0.35 m 26.05,-12.6 v -0.05 -1 q 0.2,-1.3 1.05,-2.65 l 0.3,-0.5 0.25,-0.25 q 0.5,-0.55 0.4,-1.4 l -0.05,-0.35 -0.6,-0.95 -0.3,-0.15 Q -5,-17.8 -5.55,-17.85 L -7,-17.95 h -0.4 l 0.25,-1.25 0.25,-0.95 0.75,-1.35 0.5,-0.5 1.55,0.75 0.95,0.75 1.35,1.25 0.25,0.3 -0.8,0.5 v 0.05 l 0.3,0.75 0.4,1.45 0.15,1 -0.2,1.05 -0.3,0.9 -0.3,0.85 q -0.55,1.2 -1.55,1.75 -0.6,0.35 -1.1,0.4 h -0.7 m -13.1,3.95 -1.5,-0.1 q -0.15,-0.7 0.3,-2.1 v -0.1 l 0.2,-0.55 5.35,0.3 1.95,0.3 1.9,-0.3 1.3,-0.8 v 0.15 l 0.15,0.8 q 0.15,0.55 1.05,1.65 L -8,-7 -8.55,-6.75 q -1.95,1 -3.65,1.05 l -3.25,-0.45 -3.3,-0.15 m 24.1,-14.15 v -1.3 L 5.2,-22.55 5.05,-23 l 0.15,-0.2 0.4,-1.15 0.5,-2.4 0.1,-3 0.1,-0.4 1.15,0.8 0.4,0.7 0.15,0.2 q -0.75,1.6 -1.1,3.5 l -0.2,1.45 0.1,1.25 v 0.1 q 0.3,1.5 0.65,2.25 l 0.2,0.25 q -1.1,0 -2.05,-0.6 l -0.25,-0.2 m 7.9,-6.3 -3.45,2.55 0.5,-3.65 q 0.25,-1.05 1.3,-2.95 1.05,-1.95 1.3,-3 0.1,-0.7 -0.25,-0.85 l -0.5,0.05 q -0.9,0.4 -1.8,1.9 L 10.3,-32.6 9.05,-30.5 8.6,-30.95 7.45,-31.7 6.9,-32 6.8,-32.05 v -0.1 l 1.3,-3.1 0.4,-0.7 q 1.4,-2 3.35,-2.4 l 2.05,0.15 q 1.05,0.35 1.65,1.2 0.6,0.8 0.8,2.6 0.1,2.2 -0.25,3.45 -0.6,2.2 -2.85,4.2 m -1.05,5.85 q 0.5,0.3 1.3,0.5 l 3.75,0.9 -0.05,0.15 q -0.5,1.05 -0.6,2.65 l -2.5,0.15 -1.5,0.3 v -0.85 l -0.25,-2 -0.05,-0.1 -0.65,-1.15 -0.1,-0.25 0.65,-0.3 m 10.45,2.85 q 1.4,0.5 2.6,1.15 l 2.45,1.55 -0.35,0.3 -0.25,0.25 -1.6,1.45 -0.2,0.25 -0.6,-0.6 q -2,-1.85 -4.95,-2.55 L 18.4,-16.5 q -0.05,-1.05 0.15,-1.95 l 0.2,-0.75 3.9,1.15 m 3.8,10.65 0.05,-0.2 q 0.45,-1.4 0.3,-2.55 -0.1,-0.9 -0.6,-1.75 l 2.35,-1.95 0.45,-0.35 1.3,1.45 0.55,0.8 v 0.05 q 0.8,1.8 1.05,3.65 0,1.05 -0.4,2.45 l -0.85,2.5 q -0.95,2.85 -0.4,4.7 h -0.8 L 28.8,1.55 Q 28.1,1.75 27.15,2.2 L 26.8,2.45 26.45,1.4 28.45,0.75 28.7,0.7 29.05,0.5 29.3,-0.05 Q 29.15,-0.4 28.7,-0.4 L 28,-0.25 h -1.2 l -0.6,0.1 q -0.1,-1.4 0.15,-3.9 l 0.1,-3.35 M 39.6,6.25 39.4,7.05 38.95,7.6 q 0.5,0.3 0.5,1.05 l -0.35,1.45 -1.9,3.2 -1.65,1.75 Q 34.5,15.9 33.7,16.2 l -1.7,0.4 -0.45,0.05 0.15,-1.2 -0.15,-1.65 -0.15,-0.65 0.55,0.05 2.5,-0.3 1.15,-0.55 1.25,-1.2 V 11.1 l 0.1,-0.1 q 1.1,-1.3 1.1,-2.8 V 8.05 L 37.9,7.45 37.5,6.95 36.75,6.85 36.15,7.3 36.05,8.05 Q 31.65,7.65 29.25,5.7 L 27.6,4 27.95,3.75 q 0.7,-0.4 1.45,-0.55 l 1.65,-0.1 0.25,0.05 1.95,1.4 q 1.05,0.5 3.4,0.95 l 0.45,0.1 2.5,0.65 m -9.15,10.5 -1,0.1 -0.05,-0.9 -0.45,-1.9 -0.35,-1 1.15,0.05 0.7,1.35 q 0.25,0.75 0.1,1.65 l -0.1,0.65 m 4.45,-6.7 0.25,-0.35 0.7,-0.8 -0.55,0.8 -0.4,0.35 m -7.05,6.95 -0.6,0.05 -4.15,0.5 -1.65,0.05 v -0.45 l -0.15,-1.7 0.4,-0.25 0.95,-0.7 q 0.55,-0.3 1.6,-0.65 l 0.3,-0.1 2.4,-0.55 0.25,0.65 0.1,0.2 q 0.65,1.6 0.55,2.95 m -3.55,8.7 -0.8,-1.45 q -1.25,-1.7 -3.15,-2.3 H 20.3 l 0.05,-0.15 0.15,-0.25 0.65,-0.2 q 1.05,-0.3 2.5,0.35 l 0.65,0.3 1.8,0.8 1.4,0.35 0.3,0.5 q 1.15,1.6 1.75,3.35 v 0.3 q 0.2,3.4 -1.65,5.65 L 27.75,32.6 q -0.6,-1.1 -1.4,-1.7 l -0.3,-0.2 Q 25.2,30.25 24.45,30.35 L 24.5,30.2 25,29.25 q 0.25,-0.95 0,-2.2 -0.25,-0.9 -0.7,-1.35 M 2.95,21.1 3.25,20 3.65,18.05 v -0.1 l -0.05,-1.1 0.45,-0.3 q 0.65,-0.3 1.65,-0.5 l 1.55,-0.1 q 1.55,0.1 2.4,0.95 0.6,1.15 -0.05,2.4 -0.5,1.1 -1.75,1.75 -1.6,0.9 -3.15,0.7 -1,-0.15 -1.75,-0.65 m 11.2,-2.7 -0.25,-1.35 -0.4,-0.95 -0.65,-1.2 0.6,-0.35 q 1.1,-0.45 2.15,-0.4 l 0.85,0.2 0.75,0.8 0.2,0.35 q 0.5,1.1 0.4,2.35 L 17.55,18 q -1.05,0.75 -2.9,0.45 L 14.15,18.4 M 19.6,36.1 H 19.25 18.1 l -1.25,0.05 -1.2,0.05 -0.35,0.05 -11.55,0.8 q 3.3,-1.3 7.1,-1.6 l 1.4,-0.1 h 3.05 0.2 l 1.15,-0.05 q 2.3,-0.1 3.9,-0.8 l 0.3,-0.15 q 1.55,-0.75 2.6,-2.15 l 0.35,0.2 1,0.2 q 0.65,0.2 1.2,1.05 l 0.35,0.65 q -1.9,1.15 -5.15,1.6 l -1.6,0.2 M -33,21.85 l -0.2,-0.4 q -0.45,-1.2 0.1,-2.6 l 0.05,-0.2 0.15,-0.25 2.5,-0.7 5.5,-2.05 q 3.35,-1 6.6,-0.95 l -1.2,0.6 -2.45,1.65 -1.9,1.85 -0.3,0.4 -5.25,1.65 -2.25,0.7 -1.35,0.3 m 0.15,11.6 4.15,-2.9 q 3.2,-2.5 5.1,-5.2 l 2.4,-3.6 1.3,-1.5 0.05,0.05 0.4,0.9 v 0.05 q 0.2,0.8 0.25,1.6 l -0.75,0.55 -2.2,1.8 -2.25,2.4 q -1.65,1.8 -3.85,3.5 l -3.3,2.1 -1.3,0.25 m 15,-11.45 -0.2,-1.45 -0.05,-0.2 -0.35,-1.4 2.8,-1.75 q 3.4,-1.6 7.05,-1.55 0.7,0 0.95,0.35 l 0.05,0.1 q 0.4,0.5 -0.45,1.35 l -1.9,1.65 h -0.2 q -3.75,0.55 -7.1,2.5 l -0.6,0.4 m 14.3,-5 Q -3.4,15.9 -3.6,15 l 1.25,-0.2 q 1,-0.3 1.5,0 0.4,0.3 0.6,1.3 l 0.15,1.65 -0.1,0.75 -0.65,0.35 -0.3,0.1 -1.05,0.25 -1.55,0.1 -0.5,-0.05 L -3.6,17.4 -3.55,17 M -0.9,20.85 -1.2,21 q -0.9,0.45 -1.95,0.3 l -1.05,-0.45 2.4,-0.3 1.15,-0.35 -0.25,0.65 m -37.9,-0.55 -0.35,-0.55 q -0.6,-1.1 -0.55,-2.4 0.1,-3 2.5,-4.85 0.75,-0.55 1.35,-0.55 l 0.45,0.15 0.1,0.1 0.35,0.35 -0.15,0.1 q -1.2,1.2 -1.45,2.3 l 0.05,1.2 0.25,0.7 0.55,0.8 q -1.15,0.5 -1.9,1.2 l -1.2,1.45 m 1.6,1.4 0.7,-1.45 1.4,-1.25 0.6,-0.35 -0.15,0.25 -0.05,0.1 -0.35,1.75 0.3,1.25 -2.45,-0.3"
         fill="#d1b3b3"
         fill-rule="evenodd"
         stroke="none"
         id="path2" />
      <path
         d="m 0.65,-21.3 0.6,-1.8 0.15,-0.9 0.45,0.5 1.05,1 0.2,0.65 Q 3.3,-21.3 3,-20.5 l -0.5,1.3 -0.3,0.55 -0.4,-0.85 -1.05,-1.7 -0.1,-0.1 M -27.7,-2 l 0.95,-1 -0.6,0.95 -0.35,0.05 m -3.6,4 0.1,-0.1 1.75,-1.85 0.45,-0.5 1.3,-0.1 v 0.4 l 0.1,0.9 0.35,1.7 Q -27,4.3 -27.75,6.1 -28.5,7.85 -29.95,9 l -2.45,1.5 -0.8,0.5 -0.3,-0.15 Q -34.2,10.4 -34.35,9.8 V 9.45 l 0.75,-0.7 Q -32.2,7.4 -31.75,6 -31.4,4.95 -31.5,3.6 L -31.45,3.35 -31.2,2.05 -31.3,2 m 25.65,-12.25 h 0.7 q 0.5,-0.05 1.1,-0.4 1,-0.55 1.55,-1.75 l 0.3,-0.85 0.3,-0.9 0.2,-1.05 -0.15,-1 -0.4,-1.45 -0.3,-0.75 v -0.05 l 0.8,-0.5 0.45,0.6 0.9,1.8 0.35,0.75 q 0.55,1.45 0.55,2.45 l -1.1,1.45 -1.25,2.05 -0.6,0.8 q -0.45,0.45 -1.15,0.5 h -0.1 q -0.6,-0.05 -1.1,-0.4 l -0.65,-0.7 -0.4,-0.6 m -13.1,3.95 3.3,0.15 3.25,0.45 q 1.7,-0.05 3.65,-1.05 L -8,-7 l 0.6,0.6 -0.4,0.5 q -1.1,1.35 -2.85,1.85 L -14,-4.2 q -1.1,-0.4 -3.05,-1.6 l -1.7,-0.5 m 24.1,-14.15 0.25,0.2 q 0.95,0.6 2.05,0.6 l -0.55,0.05 -1.9,0.45 -0.25,0.1 0.35,-1.3 0.05,-0.1 M 3.75,-13.3 3.3,-13.55 Q 3.4,-14.8 3.1,-16.2 L 3.55,-16.7 4,-17.15 h 0.35 l 1.6,-0.55 1.3,-0.35 0.3,-0.05 1.1,-0.2 0.05,-0.05 0.3,0.65 v 0.9 l -0.65,1.95 -0.5,0.7 -0.1,0.1 q -0.7,0.65 -2.6,0.85 l -1.4,-0.1 m 22.7,5.9 -0.1,3.35 q -0.25,2.5 -0.15,3.9 l -1.3,0.35 -0.95,0.4 0.5,-2.6 1.1,-3.15 0.9,-2.25 m 0,8.8 0.35,1.05 -0.8,0.5 -0.85,0.3 q -0.6,0.2 -1.1,0.55 L 23.9,2.85 23.95,2.8 Q 25.05,2 26.45,1.4 M 39.6,6.25 q 1.3,0.5 1.85,1.4 1.2,2.05 -0.7,4.85 -2.25,3.2 -6.9,5.25 -2.7,1.15 -4.75,1.15 l 0.35,-2.05 1,-0.1 v 0.1 q 0,0.5 0.45,0.5 0.45,0.05 0.65,-0.7 L 32,16.6 33.7,16.2 q 0.8,-0.3 1.85,-1.15 l 1.65,-1.75 1.9,-3.2 0.35,-1.45 q 0,-0.75 -0.5,-1.05 L 39.4,7.05 39.6,6.25 M 27.6,4 29.25,5.7 q 2.4,1.95 6.8,2.35 l -0.1,0.4 -0.1,0.45 -0.7,0.8 L 34.9,10.05 34,10.3 32.35,10.05 31.65,9.9 Q 30.9,9.05 29.35,8.4 L 27.55,7.7 25.85,6.75 25.05,5.95 25.25,5.7 25.6,5.25 26.5,4.65 27.6,4 m -4.5,13.55 4.15,-0.5 0.6,-0.05 -0.4,1.7 -2.75,-0.8 -1.6,-0.35 m 4.8,15.4 Q 29.75,30.7 29.55,27.3 V 27 l 0.35,1.35 q 0.55,2.05 -0.05,3.5 -0.45,1.2 -1.7,2.1 l -0.25,-1 M 2.95,21.1 q 0.75,0.5 1.75,0.65 1.55,0.2 3.15,-0.7 1.25,-0.65 1.75,-1.75 0.65,-1.25 0.05,-2.4 1.1,1.1 0.65,2.6 -0.3,1.05 -1.65,2.05 -2.4,1.75 -5.3,1.9 L 2.1,23.35 H 2.05 l 0.9,-2.25 m 11.2,-2.7 0.5,0.05 q 1.85,0.3 2.9,-0.45 l 0.25,-0.15 -0.1,0.6 q -0.25,1.2 -0.8,2.05 l -1.85,1.65 -1.5,0.7 -0.8,0.1 0.95,-2 0.45,-1.7 V 18.4 m 5.45,17.7 1.6,-0.2 q 3.25,-0.45 5.15,-1.6 v 0.65 q -1.6,0.65 -3.65,0.9 L 19.6,36.1 M -33,21.85 l 1.35,-0.3 2.25,-0.7 5.25,-1.65 -0.55,0.8 -0.6,0.15 L -32.95,22 -33,21.85 m 0.15,11.6 1.3,-0.25 3.3,-2.1 q 2.2,-1.7 3.85,-3.5 l 2.25,-2.4 2.2,-1.8 0.75,-0.55 0.05,1.4 -2.1,2.2 -2.3,2.95 q -3.75,4.1 -11.25,5.25 l 1.95,-1.2 m 15,-11.45 0.6,-0.4 q 3.35,-1.95 7.1,-2.5 h 0.2 l -1.3,0.7 -2.45,0.95 -2.45,1.05 -1.65,1.25 -0.05,-1.05 m 16.95,-1.15 -1,1.85 q -1.5,2.05 -3.6,2.2 H -5.85 L -6.3,24.75 -6.4,24.55 V 24.4 q -0.05,-0.85 0.4,-2 l 0.45,-0.95 0.2,-0.55 h 0.3 l 0.85,-0.05 1.05,0.45 Q -2.1,21.45 -1.2,21 l 0.3,-0.15 m -37.9,-0.55 -0.2,0.3 -0.65,2.25 V 23 q -1.5,-0.05 -2.25,-0.65 -1.3,-1 -0.95,-3 0.35,-1.35 1.5,-2.9 2.2,-3.1 5.15,-5.45 l 0.3,-0.25 0.05,0.45 0.45,0.9 -0.45,-0.15 q -0.6,0 -1.35,0.55 -2.4,1.85 -2.5,4.85 -0.05,1.3 0.55,2.4 l 0.35,0.55 m 1.6,1.4 2.45,0.3 0.1,0.35 h -0.05 l -2.7,0.5 v -0.2 l 0.2,-0.95"
         fill="#b59393"
         fill-rule="evenodd"
         stroke="none"
         id="path3" />
    </g>
    <g
       id="sprite1"
       transform="translate(17.4,15.85)">
      <use
         ffdec:characterId="31"
         height="57.200001"
         transform="matrix(0.5366,0,0,0.5366,-16.6582,-14.546)"
         width="70.75"
         xlink:href="#sprite2"
         id="use3" />
    </g>
    <g
       id="sprite2"
       transform="translate(-8.65,-10.35)">
      <use
         ffdec:characterId="30"
         height="57.200001"
         transform="translate(8.65,10.35)"
         width="70.75"
         xlink:href="#shape1"
         id="use4" />
    </g>
    <g
       id="shape1"
       transform="translate(-8.65,-10.35)">
      <path
         d="m 14.8,41.7 q 0.65,-1.75 2.65,-2.5 1.8,-0.8 3.7,-0.25 1.15,0.45 2.25,1.2 l 0.9,0.4 q 1.65,0.9 2.85,2.5 L 37.8,30.1 q 2.35,-2.8 3.75,-3.95 1.5,-1.15 4.25,-2.4 18.2,-8.85 27.65,-12.6 2.15,-0.8 3.25,-0.8 h 0.8 l 1.9,2.4 -0.2,0.8 q -0.2,1.1 -1.55,3 -5.85,8.25 -18.85,23.8 -1.85,2.35 -3.35,3.5 -1.4,1.15 -4.75,2.75 l -15.15,7.15 q 1.2,1.6 1.75,3.4 l 0.2,1 0.55,2.5 q 0.1,1.95 -1.1,3.55 -1.2,1.65 -3.05,1.9 l -1.3,0.05 q -1.65,0.2 -3.45,-0.65 -1.85,-0.9 -3,-2.6 L 25,60.95 23.8,62.1 q -2.6,2.85 -4.3,3.95 -2.85,1.8 -5.5,1.45 l -1.65,-0.5 -1.2,-0.7 -0.2,-0.2 q -1,-0.85 -1.6,-1.9 L 9.25,64 9.15,63.8 8.75,62.4 q -0.2,-0.8 -0.05,-1.7 0.25,-2.65 2.7,-5.05 1.5,-1.3 4.9,-3.15 L 17.7,51.55 16.05,50 q -1.35,-1.5 -1.8,-3.6 -0.4,-1.85 0.25,-3.45 l 0.3,-1.25"
         fill="#000000"
         fill-opacity="0.372549"
         fill-rule="evenodd"
         stroke="none"
         id="path4" />
    </g>
  </defs>
</svg>
