<?xml version="1.0" encoding="UTF-8" standalone="no"?>
<svg
   ffdec:objectType="frame"
   height="77.709183"
   width="95.394051"
   version="1.1"
   id="svg4"
   sodipodi:docname="ITEM Tank's Pads.svg"
   xmlns:inkscape="http://www.inkscape.org/namespaces/inkscape"
   xmlns:sodipodi="http://sodipodi.sourceforge.net/DTD/sodipodi-0.dtd"
   xmlns:xlink="http://www.w3.org/1999/xlink"
   xmlns="http://www.w3.org/2000/svg"
   xmlns:svg="http://www.w3.org/2000/svg"
   xmlns:ffdec="https://www.free-decompiler.com/flash">
  <sodipodi:namedview
     id="namedview4"
     pagecolor="#ffffff"
     bordercolor="#000000"
     borderopacity="0.25"
     inkscape:showpageshadow="2"
     inkscape:pageopacity="0.0"
     inkscape:pagecheckerboard="0"
     inkscape:deskcolor="#d1d1d1"
     fit-margin-top="5"
     fit-margin-left="5"
     fit-margin-right="5"
     fit-margin-bottom="5" />
  <g
     transform="translate(47.308333,35.459184)"
     id="g1">
    <use
       ffdec:characterId="17"
       height="119.15"
       id="rarity"
       transform="translate(-58.5,-60.65)"
       width="119.15"
       xlink:href="#sprite0" />
    <use
       ffdec:characterId="818"
       height="78.150002"
       transform="translate(-47.3,-35.45)"
       width="95.400002"
       xlink:href="#shape0"
       id="use1" />
  </g>
  <defs
     id="defs4">
    <g
       id="shape0"
       transform="translate(47.85,36.2)">
      <path
         d="m -36.75,-7.2 -0.55,2.75 q -0.7,4.3 1.05,6.1 1.1,1.15 3.75,1.55 l 9.55,-0.25 4.85,-1.05 q 2.15,-0.7 6.55,-2.95 2.7,-1.5 4.1,-2.5 Q 0.2,-9.75 2.7,-14.7 l 0.25,-0.5 0.2,-0.45 q 0.5,-1.45 0.85,-4.1 0.3,-2.2 0.2,-3.55 -0.15,-1.95 -1.1,-3.2 -0.75,-0.95 -2.1,-1.6 l -2.55,-0.95 q -4.3,-1.45 -6.95,-1.55 l -2.55,0.1 -2.65,0.4 q -5.1,1.1 -9.4,3.5 -4.55,2.6 -7.6,6.35 -2.55,3.25 -4.4,7.9 l -1.65,5.15 m 14.2,5.3 v 0.1 q 0.1,1.65 -0.25,2.3 -0.45,0.75 -1.45,0.85 -0.95,0 -1.45,-0.85 -0.4,-0.65 -0.3,-1.75 V -1.3 l 0.25,-2.45 -0.7,0.2 -0.55,0.15 -0.45,-0.05 q -0.65,-0.15 -1.05,-0.65 -0.45,-0.5 -0.5,-1.15 -0.05,-0.65 0.3,-1.2 l 0.95,-0.85 0.85,-0.2 1.7,-0.4 0.15,-2.8 -0.7,0.2 q -1,0.15 -1.8,-0.35 -0.9,-0.6 -0.65,-1.6 0.3,-0.9 1.9,-1.3 l 1.6,-0.3 0.85,-3.95 0.3,-0.75 q 0.35,-0.4 0.75,-0.25 0.4,0.15 0.4,0.6 l -0.05,0.8 -0.05,1.2 0.05,2.25 0.45,-0.05 0.95,0.1 q 0.5,0.15 0.65,0.65 0.1,0.5 -0.35,0.85 -0.3,0.35 -0.85,0.5 -0.35,0.2 -0.75,0.35 v 0.05 l 0.2,2.45 -0.05,0.9 0.95,0.05 1.4,0.3 0.85,0.25 0.45,0.65 q 0.05,0.45 -0.2,0.75 -0.25,0.35 -1.45,0.6 l -1.95,0.6 -0.2,0.1 -0.2,3.15 M 5.35,-32 q 1.75,1.2 2.8,2.95 0.8,-0.05 1.45,0.4 1,0.65 1.65,2.4 l 0.85,3.1 q 0.8,3.65 0.85,7.2 l 0.75,-0.25 12.7,-0.45 q 6.65,1.2 11.6,5.1 5.65,4.5 6.9,10.55 l 0.25,1.55 q 1,0.2 1.7,1 1.2,1.4 0.3,4.25 -1.45,4.55 -5.9,8.4 -2.35,2.05 -7.4,5 1.45,6.6 -0.05,13.25 -0.8,3.7 -2.5,5.85 -1.7,2.25 -4.5,3.2 L 21.75,41.35 Q 19.4,40.2 18.95,37.3 18.8,35.9 19.2,34.7 q 0.3,-0.75 1.1,-1.95 l 1.15,-1.9 q 0.9,-1.85 0.5,-4 L 21.2,24.1 21.1,23.6 17.4,23.9 q -6.1,0.3 -12.3,-1 -4.05,-0.9 -6.55,-2.4 -3.9,-2.35 -6.9,-7.7 l -0.35,-0.7 -3.2,1.1 q -5.65,1.9 -9.75,2.75 l -2.35,0.4 q 0.5,3.35 -0.3,6.65 l -0.55,2.05 q 1.45,0.7 2,1.75 0.65,1.3 0.15,2.9 -0.35,1.15 -1.55,2.6 l -2.3,2.3 q -1.65,1.55 -2.7,1.8 -1.1,0.3 -2.8,0 l -9.8,-1.45 -2.35,-0.55 q -1.25,-0.45 -2.3,-1.5 -1,-0.85 -1.3,-1.9 -0.35,-1.65 1.4,-4.35 l 2,-3 q 0.9,-1.4 1.7,-1.65 l 2.55,0.2 0.2,0.05 1.05,-1.4 q 2.35,-2.6 3.15,-4.6 l 0.1,-0.15 q -2.55,-0.65 -4.5,-1.8 -4.35,-2.55 -5.3,-6.9 -0.55,-2.2 0.2,-4.45 0.65,-1.9 1.95,-3.1 -0.3,-2.6 0.2,-6 1.5,-8.65 6,-15.4 4.8,-7.2 12.3,-10.9 3.6,-1.75 8.5,-2.9 l 5.6,-0.85 q 4.55,-0.15 11.5,2.15 2.9,0.95 4.55,2.05 M -16.8,9.65 -10.4,7.5 -9.3,7.05 Q -5.15,5.5 -2.6,4.1 0.95,2.15 3.15,-0.35 q 2,-2.2 3.4,-5.5 1.8,-4.2 2.05,-8.85 l -1.15,2.85 q -0.75,1.55 -3.4,4.8 -2.7,3.25 -4,4.3 L -3,0.1 -8.15,3.4 -14.8,6.75 -16,7.15 q -2.4,0.8 -7.4,1.5 L -28.55,9.25 -30.4,9.3 -33.7,9 q -2.7,-0.45 -4.85,-1.8 l -2.5,-2.05 q 0.1,1.1 0.8,2.3 l 1.4,1.7 0.8,0.65 2.45,1.2 q 2.35,0.8 5.95,0.8 l 4.05,-0.25 q 3,-0.35 6.3,-1.2 l 2.5,-0.7 m 42.15,-17.5 0.7,-0.05 0.5,0.5 q 0.1,0.4 -0.15,0.7 l -0.95,0.5 -0.7,0.4 -3.65,1.35 q -0.65,0.15 -1.2,0.5 l -1.45,0.9 -1.2,0.25 Q 16.65,-2.85 16.2,-3.35 15.8,-3.8 15.75,-4.4 15.7,-5 16.15,-5.5 l 1,-0.55 1,-0.1 0.65,-0.15 0.8,-0.05 q 0.6,0 2.15,-0.55 l 3.6,-0.95 m 11.95,3 q -3.85,-4.35 -9.85,-5.9 -5.8,-1.5 -12,0 l -2.15,0.4 H 12.5 L 12.25,-9.1 Q 11.5,-5.8 10.15,-2.95 8.45,0.55 5.8,3.35 3.7,5.6 0.85,7.5 l 0.4,0.55 1.05,0.9 1.15,0.65 1.3,0.6 2.55,1.4 q 3.9,1.6 8.1,1.75 8.6,0.3 16.85,-5.6 3.95,-2.9 6.95,-6.55 l 0.6,-1.05 q 0.15,-0.6 -0.25,-1.6 Q 38.95,-2.8 37.6,-4.5 L 37.3,-4.85 M 32.25,-6.3 q 0.4,0.45 0.1,1.15 l -0.75,0.9 -1.1,1 L 28.15,-1 24.4,3.3 23.45,4.2 22.35,4.1 Q 21.75,3.75 21.75,3.15 21.7,2.4 22.6,1.4 l 6.1,-6.15 1.9,-1.55 0.85,-0.25 0.8,0.25 m 7.55,16.75 q 2.95,-2.8 3.75,-6.05 l 0.05,-0.2 -1.4,1.35 -4.45,4.7 q -1.6,1.5 -4.3,3.1 Q 26.6,17.3 20.1,18.2 12.4,19.25 6.15,16.1 L 5.65,15.8 5.15,15.6 4.75,15.4 3.45,14.9 Q 1.6,14.2 0.65,13.7 l -1.6,-1.05 -1.15,-0.9 -0.35,-0.3 -1.1,-1.35 -0.05,-0.1 -1.75,0.75 0.6,0.9 q 2.2,3.6 5.55,5.35 1.65,0.8 3.8,1.4 6.6,1.8 13.5,1.35 l 1.4,-0.1 3.65,-0.4 3.6,-0.7 q 1.2,-0.45 3,-1.5 l 3,-1.75 q 4.75,-2.8 6.65,-4.5 l 0.4,-0.35 m -12.45,12.05 -2,0.5 q 0.6,1.75 0.8,3.45 l 0.5,-0.2 1.25,0.15 q 0.6,0.3 0.85,0.95 0.3,0.65 0.1,1.3 L 28,29.7 l -1.25,0.25 -0.6,-0.2 -0.4,1.95 0.65,0.8 q 0.6,1.25 -0.4,2.3 -1,0.95 -2.15,0.45 L 23.3,36.1 q -0.3,0.75 0.15,1.25 0.35,0.4 1.3,0.3 2.2,-0.45 3.5,-2.6 0.95,-1.45 1.5,-4.2 0.65,-3.25 0.65,-5.25 l -0.1,-3.3 -0.05,-1.05 -2.9,1.25 m -60.95,-0.65 -0.75,1.05 q 2.4,0.8 5.3,0.7 0.65,-1.55 1,-3.8 l 0.45,-3.05 h -3.5 q -0.65,2.8 -2.5,5.1 m 4.9,6.5 -5.2,-0.4 -2.5,-0.6 -1.9,-0.4 -1.6,-0.75 -0.2,0.05 q -0.5,0.25 -1,1.1 l -1.45,2.4 11.1,1.65 0.8,0.05 0.9,-0.6 1.5,-1.4 q 0.3,-0.2 0.25,-0.45 l -0.2,-0.3 -0.3,-0.35 h -0.2"
         fill="#000000"
         fill-rule="evenodd"
         stroke="none"
         id="path1" />
      <path
         d="m -11.05,-30.5 q 1.5,0.45 2.7,1.25 2.05,1.35 2.85,3.35 0.6,1.5 0.5,3.65 -0.35,6.65 -7.1,14.2 -2.2,2.5 -3.95,3.65 -2.35,1.5 -6.5,2.5 l 0.2,-3.15 0.2,-0.1 1.95,-0.6 q 1.2,-0.25 1.45,-0.6 0.25,-0.3 0.2,-0.75 L -19,-7.75 -19.85,-8 l -1.4,-0.3 -0.95,-0.05 0.05,-0.9 -0.2,-2.45 v -0.05 q 0.4,-0.15 0.75,-0.35 0.55,-0.15 0.85,-0.5 0.45,-0.35 0.35,-0.85 -0.15,-0.5 -0.65,-0.65 l -0.95,-0.1 -0.45,0.05 -0.05,-2.25 0.05,-1.2 0.05,-0.8 q 0,-0.45 -0.4,-0.6 -0.4,-0.15 -0.75,0.25 l -0.3,0.75 -0.85,3.95 -1.6,0.3 q -1.6,0.4 -1.9,1.3 -0.25,1 0.65,1.6 0.8,0.5 1.8,0.35 l 0.7,-0.2 -0.15,2.8 -1.7,0.4 -0.85,0.2 -0.95,0.85 q -0.35,0.55 -0.3,1.2 0.05,0.65 0.5,1.15 0.4,0.5 1.05,0.65 l 0.45,0.05 0.55,-0.15 0.7,-0.2 -0.25,2.45 -2.95,0.15 q -3.55,-0.15 -5.65,-2.25 -1.6,-1.55 -2.15,-3.8 l 1.65,-5.15 q 1.85,-4.65 4.4,-7.9 3.05,-3.75 7.6,-6.35 4.3,-2.4 9.4,-3.5 l 2.65,-0.4 M -3,0.1 q -0.35,2.55 -7.95,6.85 L -11.3,7.1 q -2.75,1.55 -5.5,2.55 l -2.5,0.7 q -3.3,0.85 -6.3,1.2 h -2.25 l -7.8,-1.15 -2.4,-0.6 -0.8,-0.65 -1.4,-1.7 q -0.7,-1.2 -0.8,-2.3 l 2.5,2.05 q 2.15,1.35 4.85,1.8 l 3.3,0.3 1.85,-0.05 5.15,-0.6 q 5,-0.7 7.4,-1.5 L -14.8,6.75 -8.15,3.4 -3,0.1 m 13.15,-3.05 q 1.35,-2.85 2.1,-6.15 l 0.25,-1.25 h 0.8 l 2.15,-0.4 q 6.2,-1.5 12,0 6,1.55 9.85,5.9 0.55,1.1 0.55,2.2 -0.05,2 -1.7,3.65 -1.2,1.15 -3.5,2.15 -3.8,1.55 -8,1.6 Q 20.5,4.8 16.6,3.4 14.45,2.6 13.2,1.6 11.4,0.05 10.15,-2.95 m 15.2,-4.9 -3.6,0.95 q -1.55,0.55 -2.15,0.55 l -0.8,0.05 -0.65,0.15 -1,0.1 -1,0.55 q -0.45,0.5 -0.4,1.1 0.05,0.6 0.45,1.05 0.45,0.5 1.05,0.55 l 1.2,-0.25 1.45,-0.9 q 0.55,-0.35 1.2,-0.5 l 3.65,-1.35 0.7,-0.4 0.95,-0.5 q 0.25,-0.3 0.15,-0.7 l -0.5,-0.5 -0.7,0.05 m 6.9,1.55 -0.8,-0.25 -0.85,0.25 -1.9,1.55 -6.1,6.15 q -0.9,1 -0.85,1.75 0,0.6 0.6,0.95 l 1.1,0.1 0.95,-0.9 3.75,-4.3 2.35,-2.25 1.1,-1 0.75,-0.9 q 0.3,-0.7 -0.1,-1.15 M 43.55,4.4 43.5,4.45 q -1.95,3.6 -3.65,5.9 l -0.05,0.1 -0.4,0.35 q -1.9,1.7 -6.65,4.5 l -3,1.75 q -1.8,1.05 -3,1.5 l -3.6,0.7 -3.65,0.4 -8.55,-0.7 Q 6.65,18.35 4.05,17.4 0.4,16.1 -1.7,13.75 q -0.85,-1.1 -0.55,-1.8 l 0.15,-0.2 1.15,0.9 1.6,1.05 q 0.95,0.5 2.8,1.2 l 1.3,0.5 0.4,0.2 0.5,0.2 0.5,0.3 q 6.25,3.15 13.95,2.1 6.5,-0.9 13.35,-4.85 2.7,-1.6 4.3,-3.1 L 42.2,5.55 43.6,4.2 43.55,4.4"
         fill="#9aa49a"
         fill-rule="evenodd"
         stroke="none"
         id="path2" />
      <path
         d="m -11.05,-30.5 2.55,-0.1 q 2.65,0.1 6.95,1.55 L 1,-28.1 q 1.35,0.65 2.1,1.6 0.95,1.25 1.1,3.2 0.1,1.35 -0.2,3.55 -0.35,2.65 -0.85,4.1 l -0.2,0.45 -0.25,0.5 q -2.5,4.95 -10.15,11.15 -1.4,1 -4.1,2.5 -4.4,2.25 -6.55,2.95 l -4.85,1.05 -9.55,0.25 q -2.65,-0.4 -3.75,-1.55 -1.75,-1.8 -1.05,-6.1 l 0.55,-2.75 q 0.55,2.25 2.15,3.8 2.1,2.1 5.65,2.25 L -26,-1.3 v 0.05 q -0.1,1.1 0.3,1.75 0.5,0.85 1.45,0.85 1,-0.1 1.45,-0.85 0.35,-0.65 0.25,-2.3 v -0.1 q 4.15,-1 6.5,-2.5 1.75,-1.15 3.95,-3.65 6.75,-7.55 7.1,-14.2 0.1,-2.15 -0.5,-3.65 -0.8,-2 -2.85,-3.35 -1.2,-0.8 -2.7,-1.25 M -3,0.1 0.05,-2.75 q 1.3,-1.05 4,-4.3 2.65,-3.25 3.4,-4.8 L 8.6,-14.7 q -0.25,4.65 -2.05,8.85 -1.4,3.3 -3.4,5.5 -2.2,2.5 -5.75,4.45 -2.55,1.4 -6.7,2.95 l -1.1,0.45 -6.4,2.15 q 2.75,-1 5.5,-2.55 l 0.35,-0.15 Q -3.35,2.65 -3,0.1 m -22.6,11.45 -4.05,0.25 q -3.6,0 -5.95,-0.8 l -2.45,-1.2 2.4,0.6 7.8,1.15 h 2.25 m 35.75,-14.5 q 1.25,3 3.05,4.55 1.25,1 3.4,1.8 3.9,1.4 8.05,1.35 4.2,-0.05 8,-1.6 2.3,-1 3.5,-2.15 1.65,-1.65 1.7,-3.65 0,-1.1 -0.55,-2.2 l 0.3,0.35 q 1.35,1.7 1.95,3.05 0.4,1 0.25,1.6 L 39.2,1.2 Q 36.2,4.85 32.25,7.75 24,13.65 15.4,13.35 11.2,13.2 7.3,11.6 L 4.75,10.2 3.45,9.6 2.3,8.95 1.25,8.05 0.85,7.5 Q 3.7,5.6 5.8,3.35 q 2.65,-2.8 4.35,-6.3 m 29.65,13.4 0.05,-0.1 q 1.7,-2.3 3.65,-5.9 L 43.55,4.4 q -0.8,3.25 -3.75,6.05 m -41.9,1.3 -0.15,0.2 q -0.3,0.7 0.55,1.8 2.1,2.35 5.75,3.65 2.6,0.95 6.9,1.55 l 8.55,0.7 -1.4,0.1 Q 11.2,20.2 4.6,18.4 2.45,17.8 0.8,17 -2.55,15.25 -4.75,11.65 l -0.6,-0.9 1.75,-0.75 0.05,0.1 1.1,1.35 0.35,0.3 m 29.45,10.75 2.9,-1.25 0.05,1.05 0.1,3.3 q 0,2 -0.65,5.25 -0.55,2.75 -1.5,4.2 -1.3,2.15 -3.5,2.6 -0.95,0.1 -1.3,-0.3 Q 23,36.85 23.3,36.1 l 0.55,-0.85 Q 25,35.75 26,34.8 q 1,-1.05 0.4,-2.3 l -0.65,-0.8 0.4,-1.95 0.6,0.2 L 28,29.7 28.85,28.65 Q 29.05,28 28.75,27.35 28.5,26.7 27.9,26.4 l -1.25,-0.15 -0.5,0.2 q -0.2,-1.7 -0.8,-3.45 l 2,-0.5 M -33.6,21.85 q 1.85,-2.3 2.5,-5.1 h 3.5 l -0.45,3.05 q -0.35,2.25 -1,3.8 -2.9,0.1 -5.3,-0.7 l 0.75,-1.05"
         fill="#787f78"
         fill-rule="evenodd"
         stroke="none"
         id="path3" />
    </g>
    <g
       id="sprite1"
       transform="translate(17.4,15.85)">
      <use
         ffdec:characterId="31"
         height="57.200001"
         transform="matrix(0.5366,0,0,0.5366,-16.6582,-14.546)"
         width="70.75"
         xlink:href="#sprite2"
         id="use3" />
    </g>
    <g
       id="sprite2"
       transform="translate(-8.65,-10.35)">
      <use
         ffdec:characterId="30"
         height="57.200001"
         transform="translate(8.65,10.35)"
         width="70.75"
         xlink:href="#shape1"
         id="use4" />
    </g>
    <g
       id="shape1"
       transform="translate(-8.65,-10.35)">
      <path
         d="m 14.8,41.7 q 0.65,-1.75 2.65,-2.5 1.8,-0.8 3.7,-0.25 1.15,0.45 2.25,1.2 l 0.9,0.4 q 1.65,0.9 2.85,2.5 L 37.8,30.1 q 2.35,-2.8 3.75,-3.95 1.5,-1.15 4.25,-2.4 18.2,-8.85 27.65,-12.6 2.15,-0.8 3.25,-0.8 h 0.8 l 1.9,2.4 -0.2,0.8 q -0.2,1.1 -1.55,3 -5.85,8.25 -18.85,23.8 -1.85,2.35 -3.35,3.5 -1.4,1.15 -4.75,2.75 l -15.15,7.15 q 1.2,1.6 1.75,3.4 l 0.2,1 0.55,2.5 q 0.1,1.95 -1.1,3.55 -1.2,1.65 -3.05,1.9 l -1.3,0.05 q -1.65,0.2 -3.45,-0.65 -1.85,-0.9 -3,-2.6 L 25,60.95 23.8,62.1 q -2.6,2.85 -4.3,3.95 -2.85,1.8 -5.5,1.45 l -1.65,-0.5 -1.2,-0.7 -0.2,-0.2 q -1,-0.85 -1.6,-1.9 L 9.25,64 9.15,63.8 8.75,62.4 q -0.2,-0.8 -0.05,-1.7 0.25,-2.65 2.7,-5.05 1.5,-1.3 4.9,-3.15 L 17.7,51.55 16.05,50 q -1.35,-1.5 -1.8,-3.6 -0.4,-1.85 0.25,-3.45 l 0.3,-1.25"
         fill="#000000"
         fill-opacity="0.372549"
         fill-rule="evenodd"
         stroke="none"
         id="path4" />
    </g>
  </defs>
</svg>
