<?xml version="1.0" encoding="UTF-8" standalone="no"?>
<svg
   ffdec:objectType="frame"
   height="94.677193"
   width="87.78968"
   version="1.1"
   id="svg6"
   xmlns:xlink="http://www.w3.org/1999/xlink"
   xmlns="http://www.w3.org/2000/svg"
   xmlns:svg="http://www.w3.org/2000/svg"
   xmlns:ffdec="https://www.free-decompiler.com/flash">
  <g
     transform="translate(41.478571,47.366667)"
     id="g1">
    <use
       ffdec:characterId="17"
       height="119.15"
       id="rarity"
       transform="translate(-58.5,-60.65)"
       width="119.15"
       xlink:href="#sprite0" />
    <use
       ffdec:characterId="681"
       height="94.650002"
       transform="translate(-41.5,-47.35)"
       width="87.800003"
       xlink:href="#shape0"
       id="use1" />
  </g>
  <defs
     id="defs6">
    <g
       id="shape0"
       transform="translate(41.1,46.55)">
      <path
         d="m -9.6,-10.15 0.75,-0.35 7.4,-9.55 0.3,-0.5 -0.45,-0.8 q -2.6,-2.7 -3.4,-5.4 -0.5,-1.75 -0.4,-4.95 0.2,-3.25 0.75,-5.1 0.95,-3.15 3.3,-5.6 2.4,-2.45 5.5,-3.5 3.1,-1 6.5,-0.5 3.4,0.55 6,2.5 3.05,2.25 4.65,6 l 6.45,-0.65 q 6.8,0.4 9.55,4.25 1.05,1.4 1.8,4.1 0.75,3.15 0.9,6.4 0.3,5.15 -1.25,7.95 -1.15,2.3 -4.25,4.55 -1.4,1.15 -2.8,1.85 -3.25,1.75 -7.35,1.65 -3.8,-0.1 -7.45,-1.75 -2.1,-0.95 -3.25,-2.1 -1.1,-1 -1.95,-2.75 L 10.5,-17.15 7.25,-17.6 6.1,-17.8 5,-17.65 q -0.35,0.2 -1.15,1 L 0,-12.15 h 2.5 q 6.3,0.1 10.5,1.45 2.75,0.95 5.35,2.5 1.95,1.2 2.55,2.25 0.65,1.15 0.45,3.45 -0.2,4.7 -1.1,9.65 2.75,-2.9 6.4,-4.35 3.8,-1.6 7.6,-1.25 3.95,0.35 7.2,2.75 3.35,2.5 4.55,6.1 0.8,2.45 0.7,5.7 0,8.9 -4.55,13.65 l -3.95,3.1 q -2.75,1.65 -4.75,2 Q 31.85,35.2 29,34.9 20.4,34.05 16.75,29.45 15.65,28 15.05,26.15 L 9.75,43.9 q -0.8,2.6 -1.9,3.45 -1.2,0.85 -4.05,0.75 l -5.3,-0.15 -5.3,-0.4 q -6.05,-0.85 -11.45,-3.8 -2.65,-1.45 -3.4,-3.15 -0.7,-1.55 -0.1,-4.9 l 4.95,-24.3 1.1,-5.1 -2.05,2.4 -5.3,6.5 -4.05,4.8 q 0.6,0.7 1.25,2 0.5,0.95 0.65,1.65 0.3,1.05 0.2,2.4 -0.15,2.1 -1.15,3.85 -1,1.9 -2.7,2.9 -2.15,1.2 -4.7,0.9 -2.35,-0.3 -4.45,-1.9 -1.25,-1.05 -1.55,-2.1 -0.3,-0.8 -0.2,-2.2 0,-1.85 0.4,-2.95 l 0.95,-1.75 0.95,-1.15 q 0.8,-0.9 2.5,-1.85 2.05,-1.1 3.75,-1.3 h 0.65 Q -24.2,8.1 -18.05,0.55 l 4.7,-5.55 v -0.1 l 0.8,-2.5 q 0.8,-1.45 2.95,-2.55 M 21.05,-24.35 21,-24.3 q -2.05,4.5 -5.6,6.15 0.75,1.95 2,3.15 1.5,1.4 4.6,2.05 l 3.05,0.45 q 4.4,0.05 8.35,-3.7 1.3,-1.2 1.8,-2.35 l 0.5,-1.95 q 0.55,-3.7 -0.85,-8.85 L 34,-31.45 q -0.75,-1.2 -3.4,-2.55 l -2,-0.75 h -2.2 l -3.95,0.85 0.15,1.55 -0.2,3.4 q -0.4,2.55 -1.35,4.6 m -5.75,-11.5 q -1.55,-2.55 -3.45,-3.45 l -1.9,-0.65 -1.7,-0.3 q -1,0 -2.5,0.8 -2.55,1.3 -3.6,3.25 -1.05,1.85 -0.95,5.05 l 0.2,2.1 q 0.4,1.65 1.7,2.9 1.1,1.1 2.5,1.6 l 2.4,0.6 1.6,0.2 q 0.25,-5.7 3.65,-9.55 l 2.35,-2.1 -0.3,-0.45 m -0.2,9.15 q 0.55,-1 0.8,-2.5 l -0.25,0.4 q -0.7,1.25 -1,2.9 l 0.45,-0.8 m -16.05,23.85 0.6,-0.35 q 0.8,-0.25 1.4,0.35 0.6,0.6 0.45,1.4 l -0.25,0.95 0.1,1 0.15,0.4 Q 1.7,1.1 2.05,1.1 L 3.5,0.65 h 0.05 q 0.25,-1.2 0.95,-1.6 l 1.05,-0.1 0.8,0.55 q 0.5,0.4 0.4,1 L 6.6,1.1 6.45,1.85 6,5.45 5.8,8.5 5.9,10.3 6.15,11 6.55,10.5 q 1.7,-2.3 2.3,-4.9 l 0.4,-2.1 1.2,-4.8 q 0.55,-1.3 1.15,-1.5 0.65,-0.25 1.25,0.25 l 0.5,0.8 0.1,0.35 v 1.05 l -0.1,0.35 -0.4,0.95 -0.1,0.1 -0.15,0.9 -0.45,2.35 -0.85,3.6 -1.25,2.5 -0.9,1.55 -0.8,1.15 Q 7.95,13.6 7,13.95 L 5.6,14.3 4.45,14 4.25,13.85 4.05,13.6 3.6,12.8 2.95,10.9 2.35,9.6 v 0.1 1.6 q -0.2,2.15 -1.1,3.45 l -0.95,1.1 -0.75,0.6 -1.05,0.6 0.15,0.1 Q 0.6,19 1,21.25 l 0.3,1.75 -0.05,1.25 -0.75,2.7 -1.8,2.4 -0.85,0.85 -1.2,0.65 q -1.15,0.6 -2,0.8 l -2.4,-0.1 -2.05,-1.25 -0.4,-0.6 V 29 q 0.35,-0.6 1.4,-0.4 l 2.1,0.3 h 0.1 q 0.7,-0.05 1.7,-0.6 l 1.2,-0.85 0.95,-1.1 0.5,-0.9 0.5,-1.55 v -0.25 l -0.2,-2 L -2.2,21 -2.45,20.6 -3.1,19.65 Q -3.7,18.9 -4.9,18.45 L -6.25,17.65 -6.6,17 l -0.35,-0.45 -0.15,-0.8 0.85,-1 0.75,-0.45 1.3,-0.3 q 0.65,-0.2 1.85,-1 l 0.55,-0.5 0.3,-0.35 0.4,-1.1 Q -0.9,10.1 -1.15,9.5 L -1.6,8.75 -1.75,8.6 -2.35,7.65 -2.45,7.2 V 6.95 l 0.45,-1 q 0.5,-0.5 1.15,-0.5 l 0.3,-0.1 1.4,-0.15 0.2,-0.05 q 1.1,-0.2 2,-0.85 H 3.1 V 4 L 2.2,4.05 0.55,4 Q 0.15,3.9 -0.65,3.4 L -1.4,2.45 -1.8,0.9 l -0.1,-1 0.05,-1.05 0.05,-0.2 0.35,-0.85 0.5,-0.65 M 14.2,-4.05 Q 11.85,-5.3 7.5,-6 -0.65,-7.2 -5.55,-5.45 l -0.25,0.1 -1.4,1.65 -0.35,0.35 -0.05,0.1 -0.05,0.05 -0.2,0.7 -1.4,6.25 -0.9,4.75 -1,5.1 -0.95,4.95 -1.75,9 -0.7,3.65 1,0.75 0.05,0.05 2.2,1.25 0.15,0.05 3.5,1.7 q 2.25,0.9 6.65,1.3 2.65,0.2 4,-0.05 l 2.05,-0.5 0.65,-0.1 h 0.6 l 0.2,-0.6 0.75,-2.6 3.6,-12.1 0.35,-1.25 -0.9,0.45 -0.6,0.2 Q 8.9,20 8.25,20.4 L 7.3,21.05 6.4,22.2 5.65,23.5 5.2,25 5,26.15 4.8,27.9 v 0.5 l 0.4,1.4 0.35,0.8 0.5,1.3 L 6,32.5 5.75,32.95 4.95,33.6 q -1.05,0.5 -2,-0.35 L 2.25,32.3 1.8,31.05 1.35,28.3 Q 1.3,27.15 1.65,25.5 L 2,23.9 2.55,22.75 Q 3.2,21.4 3.85,20.6 l 0.65,-0.7 1,-0.8 0.4,-0.3 q 1.25,-0.9 2.4,-1.15 l 1.9,-0.05 0.9,0.3 0.35,0.4 0.25,-0.8 0.5,-1.75 1.75,-6.4 Q 14.85,5.25 15.6,-1.8 L 15.55,-2.8 14.7,-3.75 14.65,-3.8 14.2,-4.05 m -42.9,1.3 q -3.55,0.15 -6.55,-1.5 -3.95,-2.15 -5.25,-6.1 -0.9,-2.55 -0.4,-5.75 0.45,-3 2.05,-5.55 1.6,-2.65 4.05,-4.35 2.45,-1.75 5.5,-2.3 l 5.9,0.2 q 2.9,0.8 5.25,2.8 2.35,2.05 3.45,4.8 0.75,1.75 0.75,3.3 l -0.4,2.65 q -0.85,3.55 -2.3,5.9 -1.8,2.95 -4.6,4.2 -1,0.45 -3.2,0.95 l -4.25,0.75 m 9.35,-14.9 -0.6,-1.35 -0.75,-1 q -1,-1.1 -2.9,-1.9 l -1.75,-0.6 q -3.2,-0.65 -6.45,1.8 l -1.15,1 -1.25,2.3 q -1.05,2.55 -0.8,4 l 0.65,1.7 0.7,1.15 0.95,0.75 q 2.3,1.5 3.75,1.5 l 2.2,-0.2 1.2,0.1 h 1.25 q 1.55,-0.2 2.95,-2.05 1.55,-2.2 2.05,-5.35 0.2,-1.15 -0.05,-1.85 M -32.75,28 q 0.9,0.1 1.6,-0.55 0.5,-0.5 0.65,-1.15 l 0.05,-1 -0.25,-0.75 -0.6,-0.6 -1.15,0.05 -0.95,0.8 q -0.9,1.2 -1,1.95 l 0.05,0.5 0.55,0.4 1.05,0.35 m 17.2,8.4 q -0.2,0.9 0,1.3 l 1,0.95 q 4.15,2.35 8.8,3.05 l 5.05,0.4 5,0.25 0.8,-2.55 -3.65,0.5 -4.9,-0.4 -3.65,-0.65 -2.4,-1.2 -2.55,-1.45 -3.15,-1.95 -0.35,1.75 m 40.85,-27 -2.2,1.8 q -0.8,0.9 -1.5,2.5 -1.7,3.65 -2,5.95 -0.5,3.55 1.2,6 1.35,1.9 3.85,2.9 1.95,0.75 4.75,1.1 2.15,0.3 3.45,0.05 0.9,-0.2 2.6,-1 2.1,-1.2 3.3,-2.55 2.95,-3.2 3.3,-9.45 L 42,14.25 Q 41.55,10.7 38.75,8.4 35.95,6.15 32.35,6.45 29.5,6.7 25.3,9.4"
         fill="#000000"
         fill-rule="evenodd"
         stroke="none"
         id="path1" />
      <path
         d="M -2.45,6.95 V 7.2 l 0.1,0.45 0.6,0.95 0.15,0.15 0.45,0.75 q 0.25,0.6 0.05,1.55 l -0.4,1.1 -0.3,0.35 -0.55,0.5 q -1.2,0.8 -1.85,1 l -1.3,0.3 -0.75,0.45 -0.85,1 0.15,0.8 0.35,0.45 0.35,0.65 1.35,0.8 q 1.2,0.45 1.8,1.2 l 0.65,0.95 v 0.15 l 0.25,0.25 0.25,0.65 0.2,2 v 0.25 l -0.5,1.55 -0.5,0.9 -0.95,1.1 -1.2,0.85 q -1,0.55 -1.7,0.6 h -0.1 l -2.1,-0.3 q -1.05,-0.2 -1.4,0.4 v 0.7 l -0.95,-0.15 -1.95,-0.95 -0.75,-1.05 1.75,-9 q 0.75,-0.95 2.3,-1.65 l 1.2,-0.35 H -7 -6.95 L -8.75,16 q -1.1,-0.4 -1.7,-1.1 l -0.7,-1.3 1,-5.1 1.1,-1.2 1.3,-0.85 1.95,-0.25 2.25,0.2 q 0.4,0.1 1.1,0.55 m 9.7,25.5 -0.8,0.1 L 6,32.5 6.05,31.9 5.55,30.6 5.2,29.8 4.8,28.4 V 27.9 L 5,26.15 5.2,25 5.65,23.5 6.4,22.2 7.3,21.05 8.25,20.4 Q 8.9,20 9.7,19.75 q 0.6,0.15 1.15,0.6 l -3.6,12.1"
         fill="#96b7c8"
         fill-rule="evenodd"
         stroke="none"
         id="path2" />
      <path
         d="m 13.35,-1.75 q 0.3,-1.55 0.85,-2.3 l 0.45,0.25 0.05,0.05 0.85,0.95 0.05,1 Q 14.85,5.25 13.95,9.35 l -1.75,6.4 -0.5,1.75 -0.6,0.4 -0.9,-0.3 -1.9,0.05 Q 7.15,17.9 5.9,18.8 l -0.4,0.3 -1,0.8 -0.65,0.7 Q 3.2,21.4 2.55,22.75 L 2,23.9 1.65,25.5 q -0.35,1.65 -0.3,2.8 l 0.45,2.75 0.45,1.25 0.7,0.95 q 0.95,0.85 2,0.35 L 5.75,32.95 6,32.5 l 0.45,0.05 0.8,-0.1 -0.75,2.6 -0.8,0.6 -0.65,0.1 L 3,36.25 Q 1.65,36.5 -1,36.3 -5.4,35.9 -7.65,35 l -3.5,-1.7 -0.15,-0.05 -2.2,-1.25 -0.05,-0.05 -1,-0.75 0.7,-3.65 0.75,1.05 1.95,0.95 0.95,0.15 0.4,0.6 2.05,1.25 2.4,0.1 q 0.85,-0.2 2,-0.8 l 1.2,-0.65 0.85,-0.85 1.8,-2.4 0.75,-2.7 L 1.3,23 1,21.25 Q 0.6,19 -1.35,17.15 l -0.15,-0.1 1.05,-0.6 0.75,-0.6 0.95,-1.1 q 0.9,-1.3 1.1,-3.45 V 9.7 9.6 l 0.6,1.3 0.65,1.9 0.45,0.8 0.2,0.25 L 4.45,14 5.6,14.3 7,13.95 Q 7.95,13.6 8.45,13.1 l 0.8,-1.15 0.9,-1.55 1.25,-2.5 0.85,-3.6 0.45,-2.35 0.25,-1 0.4,-0.95 0.1,-0.35 V -1.4 l -0.1,-0.35 M -7,-3.05 l 2.2,-0.6 q 1.65,-0.2 2.5,0 l 1.35,0.8 -0.5,0.65 -0.35,0.85 -0.05,0.2 -0.05,1.05 0.1,1 0.4,1.55 0.75,0.95 Q 0.15,3.9 0.55,4 L 2.2,4.05 3.1,4 V 4.3 H 3.05 q -0.9,0.65 -2,0.85 l -0.2,0.05 -1.4,0.15 -0.3,0.1 q -0.65,0 -1.15,0.5 l -0.45,1 Q -3.15,6.5 -3.55,6.4 l -2.25,-0.2 -1.95,0.25 -1.3,0.85 -1.1,1.2 0.9,-4.75 1.4,-6.25 0.85,-0.55 m -4.15,16.65 0.7,1.3 q 0.6,0.7 1.7,1.1 l 1.8,0.55 H -7 -8.6 l -1.2,0.35 q -1.55,0.7 -2.3,1.65 l 0.95,-4.95"
         fill="#608fa8"
         fill-rule="evenodd"
         stroke="none"
         id="path3" />
      <path
         d="m -15.55,36.4 0.35,-1.75 3.15,1.95 2.55,1.45 2.4,1.2 3.65,0.65 4.9,0.4 3.65,-0.5 -0.8,2.55 -5,-0.25 -5.05,-0.4 q -4.65,-0.7 -8.8,-3.05 l -1,-0.95 q -0.2,-0.4 0,-1.3"
         fill="#6075a8"
         fill-rule="evenodd"
         stroke="none"
         id="path4" />
      <path
         d="m 22.6,-32.35 0.2,-0.15 q 1,-0.55 1.7,-0.6 1.75,-0.1 2.65,1.3 0.9,1.4 0.15,2.9 l -1.25,1.4 -1.5,1.2 -0.85,0.85 q -0.4,0.35 -1,0.5 l -1.65,0.6 q 0.95,-2.05 1.35,-4.6 l 0.2,-3.4 M 5.9,10.3 5.8,8.5 6,5.45 6.45,1.85 6.6,1.1 6.75,0.5 q 0.1,-0.6 -0.4,-1 l -0.8,-0.55 -1.05,0.1 q -0.7,0.4 -0.95,1.6 H 3.5 L 2.05,1.1 Q 1.7,1.1 1.5,0.9 L 1.35,0.5 1.25,-0.5 1.5,-1.45 q 0.15,-0.8 -0.45,-1.4 -0.6,-0.6 -1.4,-0.35 l -0.6,0.35 -1.35,-0.8 q -0.85,-0.2 -2.5,0 l -2.2,0.6 -0.2,-0.65 1.4,-1.65 0.25,-0.1 Q -0.65,-7.2 7.5,-6 q 4.35,0.7 6.7,1.95 -0.55,0.75 -0.85,2.3 l -0.5,-0.8 q -0.6,-0.5 -1.25,-0.25 -0.6,0.2 -1.15,1.5 l -1.2,4.8 -0.4,2.1 q -0.6,2.6 -2.3,4.9 L 5.9,10.3 m 26.45,-28.65 q 0.5,0.95 0.3,1.8 -0.35,1.45 -1.75,1.8 -1.45,0.35 -2.35,-0.75 -1,-1.1 -0.4,-2.45 l 0.9,-1.1 q 0.65,-0.4 1.35,-0.4 1.35,0.1 1.95,1.1 m -65.3,1.6 1.05,-1.4 2.45,-2.2 0.8,-0.5 2.25,-0.1 q 1.05,0.55 1.15,1.9 l -0.05,0.75 -0.65,1.25 q -0.5,0.8 -2.2,1.85 l -0.9,1 q -0.5,0.6 -0.95,0.85 -0.55,0.3 -1.25,0.25 -0.7,-0.1 -1.25,-0.5 l -0.7,-1.05 v -1.3 l 0.25,-0.8 m 10.65,5.35 q 0,0.8 -0.55,1.25 -0.6,0.5 -1.35,0.35 -0.85,-0.25 -1.1,-1.05 -0.25,-0.8 0.35,-1.5 0.65,-0.65 1.45,-0.4 1.1,0.25 1.2,1.35 m 55.35,27.05 -1.9,0.95 -1.6,0.65 -3.3,0.25 q -0.75,-0.35 -1.2,-1.1 -0.45,-0.75 -0.45,-1.65 -0.05,-1.5 1.2,-3.15 1,-1.35 2.55,-2.2 1.5,-0.85 3.15,-0.95 l 1.8,0.2 q 0.9,0.3 1.55,1.15 0.65,0.8 0.8,1.8 l -0.1,1.3 -0.85,1.35 -1.65,1.4 M 31.7,26.2 q 0,-0.65 0.3,-1.2 0.45,-0.75 1.4,-1.05 0.95,-0.35 1.75,0 0.85,0.35 1.25,1.2 0.4,0.9 0.15,1.75 -0.25,0.85 -1.05,1.4 -0.8,0.55 -1.7,0.4 L 32.3,27.85 Q 31.65,27.1 31.7,26.2"
         fill="#ffffff"
         fill-rule="evenodd"
         stroke="none"
         id="path5" />
    </g>
    <g
       id="sprite1"
       transform="translate(17.4,15.85)">
      <use
         ffdec:characterId="31"
         height="57.200001"
         transform="matrix(0.5366,0,0,0.5366,-16.6582,-14.546)"
         width="70.75"
         xlink:href="#sprite2"
         id="use5" />
    </g>
    <g
       id="sprite2"
       transform="translate(-8.65,-10.35)">
      <use
         ffdec:characterId="30"
         height="57.200001"
         transform="translate(8.65,10.35)"
         width="70.75"
         xlink:href="#shape1"
         id="use6" />
    </g>
    <g
       id="shape1"
       transform="translate(-8.65,-10.35)">
      <path
         d="m 14.8,41.7 q 0.65,-1.75 2.65,-2.5 1.8,-0.8 3.7,-0.25 1.15,0.45 2.25,1.2 l 0.9,0.4 q 1.65,0.9 2.85,2.5 L 37.8,30.1 q 2.35,-2.8 3.75,-3.95 1.5,-1.15 4.25,-2.4 18.2,-8.85 27.65,-12.6 2.15,-0.8 3.25,-0.8 h 0.8 l 1.9,2.4 -0.2,0.8 q -0.2,1.1 -1.55,3 -5.85,8.25 -18.85,23.8 -1.85,2.35 -3.35,3.5 -1.4,1.15 -4.75,2.75 l -15.15,7.15 q 1.2,1.6 1.75,3.4 l 0.2,1 0.55,2.5 q 0.1,1.95 -1.1,3.55 -1.2,1.65 -3.05,1.9 l -1.3,0.05 q -1.65,0.2 -3.45,-0.65 -1.85,-0.9 -3,-2.6 L 25,60.95 23.8,62.1 q -2.6,2.85 -4.3,3.95 -2.85,1.8 -5.5,1.45 l -1.65,-0.5 -1.2,-0.7 -0.2,-0.2 q -1,-0.85 -1.6,-1.9 L 9.25,64 9.15,63.8 8.75,62.4 q -0.2,-0.8 -0.05,-1.7 0.25,-2.65 2.7,-5.05 1.5,-1.3 4.9,-3.15 L 17.7,51.55 16.05,50 q -1.35,-1.5 -1.8,-3.6 -0.4,-1.85 0.25,-3.45 l 0.3,-1.25"
         fill="#000000"
         fill-opacity="0.372549"
         fill-rule="evenodd"
         stroke="none"
         id="path6" />
    </g>
  </defs>
</svg>
