<?xml version="1.0" encoding="UTF-8" standalone="no"?>
<svg
   ffdec:objectType="frame"
   height="76.105278"
   width="94.866516"
   version="1.1"
   id="svg5"
   sodipodi:docname="ITEM Ruffle.svg"
   xmlns:inkscape="http://www.inkscape.org/namespaces/inkscape"
   xmlns:sodipodi="http://sodipodi.sourceforge.net/DTD/sodipodi-0.dtd"
   xmlns:xlink="http://www.w3.org/1999/xlink"
   xmlns="http://www.w3.org/2000/svg"
   xmlns:svg="http://www.w3.org/2000/svg"
   xmlns:ffdec="https://www.free-decompiler.com/flash">
  <sodipodi:namedview
     id="namedview5"
     pagecolor="#ffffff"
     bordercolor="#000000"
     borderopacity="0.25"
     inkscape:showpageshadow="2"
     inkscape:pageopacity="0.0"
     inkscape:pagecheckerboard="0"
     inkscape:deskcolor="#d1d1d1"
     fit-margin-top="5"
     fit-margin-left="5"
     fit-margin-right="5"
     fit-margin-bottom="5" />
  <g
     transform="translate(47.918519,38.000971)"
     id="g1">
    <use
       ffdec:characterId="17"
       height="119.15"
       id="rarity"
       transform="translate(-58.5,-60.65)"
       width="119.15"
       xlink:href="#sprite0" />
    <use
       ffdec:characterId="872"
       height="76.099998"
       transform="translate(-47.9,-38)"
       width="94.849998"
       xlink:href="#shape0"
       id="use1" />
  </g>
  <defs
     id="defs5">
    <g
       id="shape0"
       transform="translate(48.45,38.75)">
      <path
         d="M 41.15,3.75 41.25,1.8 41.3,-0.55 Q 41.25,-2.6 39.95,-6.25 39.1,-9 38.1,-10.2 l -1.45,-1.55 q -0.9,-0.95 -1.25,-1.7 -0.4,-0.9 -0.45,-2.15 l 0.1,-2.25 q 0.1,-3 -1.15,-4.2 -0.8,-0.75 -3.6,-1.35 -2.45,-0.5 -3.1,-1.7 -0.25,-0.45 -0.4,-1.3 l -0.35,-1.25 q -0.4,-0.9 -2.15,-2.2 -3.85,-2.5 -6.9,-3.3 -4.1,-1.1 -7.4,0.5 l -2.2,1.35 q -1.3,0.75 -2.35,0.85 l -2.4,-0.3 -2.3,-0.95 q -5.7,-2.45 -12.05,-1.75 -3.65,0.45 -5.4,2.05 l -2.3,2.35 q -0.9,0.7 -3.7,1.45 -4.4,1.15 -8.35,3.7 -2.9,1.95 -3.15,4.05 l 0.05,1.7 v 1.65 q -0.3,1.55 -2.75,3.4 l -2.75,2.6 0.65,0.3 0.65,1.1 0.4,1.4 0.35,3.05 v 1.95 l -0.45,5.55 Q -38.2,3.7 -38.7,4.95 L -39.5,7.3 V 7.45 L -40.2,10 q -0.9,3.4 -0.05,6.95 0.65,2.7 2.15,4.85 l -0.1,-0.25 -0.1,-2.45 0.05,-3.9 0.3,-3.8 q 0.7,-4.5 3.35,-6.75 l 0.2,-0.1 q 0.75,-0.6 1.5,-0.8 l 2.25,0.2 1.25,0.45 1.15,0.7 q 0.6,0.45 1.15,1.55 l 0.8,2 0.5,2.8 0.5,4.65 q 0.2,2.7 -0.25,7.3 l -0.1,1.6 -0.25,1.35 -0.9,1.85 -0.6,0.85 3.15,-0.2 1.85,-0.4 1.4,-0.4 0.95,-0.15 -0.05,-0.2 -0.1,-1.65 0.15,-9.65 0.15,-2.45 0.9,-4.15 0.75,-2.5 1.05,-1.9 q 0.5,-0.8 1.2,-0.65 0.55,0.15 0.65,0.8 l -0.15,1.1 -1.05,6.1 -0.25,2.1 v 0.35 l 0.05,1.95 q 0.15,3 0.05,6.75 l 0.1,2.35 0.55,2.15 1.4,1.2 q 1.05,0.75 3.4,1.55 l -0.35,-0.3 q -1.45,-1.55 -2.1,-4 l -0.45,-2.7 -0.55,-6.3 q 0,-2.4 0.45,-4.75 l 0.8,-3.1 q 0.75,-2.1 2,-3.4 1.3,-1.35 3.1,-1.8 1.9,-0.45 3.5,0.35 1.35,0.75 2.65,2.75 l 0.85,1.45 q 1.05,2 1.5,4.1 0.5,2.45 0.4,6.7 l -0.3,5.05 -0.45,1.95 q -0.65,2.05 -1.9,3.45 l -0.1,0.1 q -1,1.05 -2.15,1.65 l 2.6,-0.5 2.85,-1.5 Q 2.25,29.65 3.2,29.4 L 3.25,15.2 V 9.1 q 0,-1.25 0.3,-1.8 L 4.2,6.75 q 0.45,-0.2 0.85,0 0.7,0.25 0.8,1.75 l 0.35,9.45 0.25,7.45 0.1,3.9 v 0.3 l 0.1,0.05 2.05,0.65 3.05,0.8 -0.25,-0.2 Q 10,29.75 9.55,28.15 L 9.25,26.55 8.6,24.8 Q 8.1,23.6 8,21 8,17.3 8.15,15.45 L 8.4,13.7 Q 8.55,13.05 8.95,12.3 L 9.5,11.2 q 0.7,-1.5 1.45,-2.45 1.6,-1.8 3.5,-1.9 l 2.4,0.35 q 1.3,0.3 1.95,0.8 l 1.35,1.65 1.3,1.55 0.3,0.8 0.3,1.4 0.7,3.05 0.55,3.1 0.15,3.65 q 0.1,2.65 -0.4,4.05 -0.5,1.45 -1.7,2.5 L 20.2,30.6 q 3.6,-1.15 5.2,-3.5 l 0.3,-1.5 -0.1,-2.15 -0.6,-7.1 -0.15,-1.45 -1.1,-5.05 -0.5,-2 q -0.2,-0.6 0.05,-0.9 0.45,-0.5 1.25,0.3 1,0.95 1.9,3.1 l 0.5,1.4 0.5,1.75 0.65,3.75 0.4,2.6 0.3,2.7 q 0.4,-0.2 0.95,-0.45 L 30.6,21.75 Q 29.35,17.9 29.05,15.2 l -0.2,-3.75 q 0,-4.95 0.9,-9.55 l 0.05,-0.3 0.6,-1.9 q 0.5,-0.8 1.5,-1.4 2.15,-1.25 4.2,-0.3 1.3,0.6 2.35,2.3 l 0.9,1.65 0.3,0.8 0.55,2.6 0.55,3.55 0.2,1.65 -0.3,2.75 -0.15,0.75 q 1.2,-2 1.25,-4.25 L 41.5,7 41.15,4.2 V 3.75 M 30.1,-30.5 l 1.2,2.1 q 0.6,0.65 1.7,1.25 0.65,0.3 1.95,0.9 2.6,1.4 3.65,4.4 1.1,3 -0.05,5.65 4.4,2.75 6.7,10.7 1,3.7 0.9,6.15 L 45.85,4 46,5.95 l 0.3,2 Q 46.65,10.9 45.75,13.8 44.9,16.75 43,19 q -1.7,2 -4.55,3.85 l -5.25,3.1 -1.95,1.4 -1.2,1.4 -1.1,1.55 q -3.55,4.55 -9.9,5.6 -5.2,0.95 -11.7,-0.9 L 4.4,34.6 q -0.8,0.1 -2.2,0.85 -4.4,2.35 -9.2,1.8 -4,-0.35 -9.6,-3.15 l -1.05,-0.5 -0.15,-0.05 q -1.15,-0.5 -1.85,-0.45 l -2.65,0.6 q -3.8,1.2 -8.2,-0.15 -4,-1.25 -7.5,-4.25 -2.75,-2.25 -4.55,-5.05 -2.25,-3.4 -2.95,-7.55 -0.7,-4.1 0.3,-8.05 Q -44.8,7.4 -45,6.7 -45.15,6 -46.05,5 q -1.9,-2.4 -2.3,-5.7 -0.4,-3.1 0.55,-6.15 1.6,-5.15 6.9,-9.95 l 1.3,-1.45 0.3,-1.35 0.1,-1.45 q 0.45,-4.45 6.7,-8.05 3.7,-2 7.2,-3.15 2.2,-0.75 2.85,-1.2 l 2.8,-2.35 q 1.85,-1.45 5,-2.25 8,-1.9 16.15,1.35 1.5,0.6 1.75,0.65 l 1.75,0.25 1.85,-0.55 1.7,-0.85 q 3.95,-1.95 9.15,-0.9 4.05,0.95 8.6,3.95 2.75,1.9 3.8,3.65 m -28.5,11 0.1,-0.35 0.3,-0.65 0.1,-1.15 0.1,-1.15 0.2,-0.55 0.05,-1.7 q 0,-1.1 0.55,-1.55 0.4,-0.3 0.9,-0.25 l 0.8,0.45 q 0.3,0.35 0.4,1.45 l 0.05,1.1 v 1.15 L 5,-21.75 v 1.45 l 0.05,0.8 -0.1,2.65 v 0.15 l 2.55,1.25 h 0.05 l 0.4,-0.3 2.1,-1.65 1.15,-0.75 2.45,-1.5 2.4,-1.3 q 2.55,-1.3 5.65,-2.3 l 0.8,-0.3 1.2,-0.25 q 0.85,-0.1 1.35,0.35 0.7,0.6 0.55,1.3 -0.15,0.7 -1.35,1.2 l -1.3,0.5 -2.6,1.05 -2.5,1.2 -3,1.75 q -2,1.3 -3.8,2.95 l 5.4,0.2 0.9,0.05 8.1,0.9 5.35,0.95 q 1.55,0.35 1.95,1.15 0.25,0.5 0,1.1 -0.3,0.6 -0.85,0.65 L 31.1,-8.55 30.3,-8.8 27.9,-8.75 24.75,-9.1 20.9,-9.4 17.15,-9.6 h -0.8 -0.85 l -5.25,0.15 -0.85,0.05 1.1,0.6 1.75,1.3 0.5,0.45 1.65,1.55 1.8,2.25 1.55,1.45 1.4,1.6 1.1,2.25 0.25,0.6 0.1,0.95 q -0.1,1 -0.9,1.1 -0.65,0.15 -1.35,-0.65 L 16.3,1.5 14.3,0.1 13.3,-0.95 12.35,-2.1 9.45,-4.4 7.65,-5.4 6.1,-6.2 4.35,-6.95 4.1,-7 2.65,-7.5 Q 1.75,-8.05 1.6,-9.05 l -0.05,-0.2 q -0.15,-0.85 0.5,-1.55 0.65,-0.7 1.8,-0.8 l 2,0.3 0.3,0.2 -0.05,-0.6 v -0.05 l 0.05,-0.2 -0.35,-0.2 q -0.65,-0.1 -1.7,-0.55 l -1,-0.35 H 3.05 l -0.95,-0.3 -1.45,0.25 -2.45,1 -0.05,0.1 q -0.25,0.95 -1.05,1.25 l -0.15,0.1 v 0.15 q -0.1,0.6 -0.5,1 -0.45,0.45 -1.9,0.85 l -4.15,0.9 -3.85,0.95 q -3.6,0.95 -5.6,1.8 l -6.85,3.6 -6.25,3.55 -0.3,0.2 q -0.95,0.7 -1.6,0.3 Q -34.8,2 -34,0.95 l 1.9,-1.8 q 2.85,-2.15 8.85,-5.85 l 2.5,-1.5 q 1.75,-0.95 4.4,-1.9 l 2.2,-0.75 4.05,-1.2 1.9,-0.5 -1.25,-0.4 -2.5,-0.75 -2.65,-0.25 -0.35,-0.05 -2.4,-0.5 -4.6,-0.45 -4.65,-0.4 h -1.5 -0.4 -1.05 q -0.4,-0.1 -0.6,-0.55 l 0.05,-0.8 0.5,-0.5 0.35,-0.2 0.8,-0.25 2.2,-0.4 2.9,-0.2 7.55,0.2 2.35,0.15 2.8,0.35 1.75,0.35 q 2.15,0.55 4.3,1.65 l 0.15,-0.1 1.7,-0.75 2.35,-0.8 0.1,-0.05 1.25,-0.15 0.15,-0.7 0.5,-1.4 M -12,2.9 -12.6,3 Q -13.1,2.95 -13.4,2.5 -13.7,2 -13.6,1.55 l 0.4,-0.8 2.3,-2.75 1.35,-1.35 0.7,-0.95 0.5,-0.5 0.15,-0.15 0.2,-0.15 1.1,-0.75 0.75,-0.85 1.5,-1.25 1.65,-0.6 0.3,-0.05 1.3,0.7 0.25,0.3 0.15,0.4 v 0.75 l -0.5,0.8 -0.65,0.75 -0.95,0.5 -0.6,0.5 -0.35,0.35 -2.75,2.1 -2.8,2.1 -1.05,0.9 -0.8,1 L -12,2.9 M 34.55,1.25 Q 34,1.3 33.6,2.05 l -0.75,0.7 -0.4,1.15 q -0.3,1.15 -0.65,4.5 l -0.2,3.7 0.55,3.65 0.3,1.85 q 0.3,1.7 0.95,2.35 0.65,0.6 1.6,0.6 0.9,0 1.65,-0.55 1.4,-1.15 1.2,-3.15 L 37.8,16.05 37.85,15.1 38,12.85 37.9,10.6 37.45,7.55 36.95,4.65 Q 36.65,2.7 35.8,2.1 L 34.95,1.75 34.55,1.25 M 11.5,13.1 q -0.8,2.35 -0.8,6.45 -0.1,2.75 0.3,4.75 0.65,3.3 2.5,4.65 1.65,1.25 3.75,0.85 2.05,-0.4 3.15,-2.15 0.6,-1 0.85,-2.4 l 0.1,-4 -0.2,-2.45 -1,-4 q -0.75,-2.55 -1.7,-3.25 -0.7,-0.5 -2,-0.8 l -1.55,-0.3 -1.5,0.2 q -1.25,0.6 -1.9,2.45 M -43.3,-2 q 0.2,2.5 1.6,4.15 l 0.45,0.5 0.05,-0.4 0.4,-4 q -0.05,-1.7 -0.45,-5.05 l -0.8,0.7 -0.65,0.15 q -0.8,1.9 -0.6,3.95 m 35.15,31.7 2.05,0.05 q 1.2,-0.2 1.9,-0.7 L -3.1,27.5 Q -1.55,24.35 -1.85,18.2 -2.05,13.35 -3.1,11.05 -3.65,9.75 -4.6,8.9 -5.7,8 -7.25,8.05 q -1.6,0.1 -2.6,1.1 -1.2,1.2 -1.7,4.25 -1.05,6.45 -0.45,10.45 0.25,2.1 1.05,3.55 1,1.8 2.8,2.3 M -32.1,7.3 q -0.9,0.15 -1.6,1 l -0.85,1.7 q -0.65,2 -0.95,6.15 l -0.1,4.25 q 0.25,2.55 1.15,4.05 1.35,2.4 3.35,2.25 1.3,0 2.35,-1.25 0.6,-0.75 0.8,-1.6 l 0.2,-1.45 q 0.25,-3.6 0.1,-8.1 -0.2,-2.55 -0.6,-3.75 -0.8,-2.15 -2.35,-2.9 -0.75,-0.4 -1.5,-0.35"
         fill="#000000"
         fill-rule="evenodd"
         stroke="none"
         id="path1" />
      <path
         d="m 5.05,-19.5 3.35,0.35 h 0.05 l 2.75,1 -1.15,0.75 -2.1,1.65 -0.4,0.3 H 7.5 L 4.95,-16.7 v -0.15 l 0.1,-2.65 m 9.8,3.05 0.85,0.65 1.3,1.95 0.35,0.6 -0.9,-0.05 -5.4,-0.2 q 1.8,-1.65 3.8,-2.95 m 2.3,6.85 -0.5,0.55 -0.35,0.3 q -0.8,0.5 -2.2,1.15 L 12.75,-7.05 12.25,-7.5 10.5,-8.8 9.4,-9.4 10.25,-9.45 15.5,-9.6 h 0.85 0.8 m -9.5,4.2 -2.25,0.6 -2.5,0.6 -2.6,0.35 q -1.95,0.15 -4,-0.05 l 0.6,-0.5 0.95,-0.5 0.65,-0.75 0.5,-0.8 V -7.2 L -1.15,-7.6 -1.4,-7.9 -2.7,-8.6 -3,-8.55 -4.65,-7.95 -6.15,-6.7 -6.9,-5.85 -8,-5.1 -8.2,-4.95 -8.35,-4.8 -8.5,-4.85 q -2.45,-0.75 -4.95,-1.95 l 3.85,-0.95 4.15,-0.9 q 1.45,-0.4 1.9,-0.85 0.4,-0.4 0.5,-1 v -0.15 l 0.15,-0.1 q 0.8,-0.3 1.05,-1.25 l 0.05,-0.1 2.45,-1 1.45,-0.25 0.95,0.3 H 3.1 l 1,0.35 q 1.05,0.45 1.7,0.55 l 0.35,0.2 -0.05,0.2 v 0.05 l 0.05,0.6 -0.3,-0.2 -2,-0.3 q -1.15,0.1 -1.8,0.8 -0.65,0.7 -0.5,1.55 l 0.05,0.2 q 0.15,1 1.05,1.55 L 4.1,-7 4.35,-6.95 6.1,-6.2 7.65,-5.4 m -24,-4.7 v -0.55 l 0.25,-1.05 0.45,-1.05 1.05,-1.2 2.65,0.25 2.5,0.75 1.25,0.4 -1.9,0.5 -4.05,1.2 -2.2,0.75 m 12.8,-8.5 2.35,-0.65 2.8,-0.25 -0.5,1.4 -0.15,0.7 -1.25,0.15 -0.1,0.05 -2.35,0.8 -1.7,0.75 -0.15,0.1 q -2.15,-1.1 -4.3,-1.65 l 1.25,-0.4 3.3,-0.8 0.8,-0.2 m 38.1,19.85 0.4,0.5 0.85,0.35 q 0.85,0.6 1.15,2.55 l 0.5,2.9 0.45,3.05 0.1,2.25 -0.15,2.25 -0.05,0.95 0.05,0.8 q 0.2,2 -1.2,3.15 -0.75,0.55 -1.65,0.55 -0.95,0 -1.6,-0.6 Q 32.75,19.3 32.45,17.6 L 32.15,15.75 31.6,12.1 31.8,8.4 q 0.35,-3.35 0.65,-4.5 l 0.4,-1.15 0.75,-0.7 Q 34,1.3 34.55,1.25 M 11.5,13.1 q 0.65,-1.85 1.9,-2.45 l 1.5,-0.2 1.55,0.3 q 1.3,0.3 2,0.8 0.95,0.7 1.7,3.25 l 1,4 0.2,2.45 -0.1,4 Q 21,26.65 20.4,27.65 19.3,29.4 17.25,29.8 15.15,30.2 13.5,28.95 11.65,27.6 11,24.3 q -0.4,-2 -0.3,-4.75 0,-4.1 0.8,-6.45 M -43.3,-2 q -0.2,-2.05 0.6,-3.95 l 0.65,-0.15 0.8,-0.7 q 0.4,3.35 0.45,5.05 l -0.4,4 -0.05,0.4 -0.45,-0.5 Q -43.1,0.5 -43.3,-2 m 35.15,31.7 q -1.8,-0.5 -2.8,-2.3 -0.8,-1.45 -1.05,-3.55 -0.6,-4 0.45,-10.45 0.5,-3.05 1.7,-4.25 1,-1 2.6,-1.1 Q -5.7,8 -4.6,8.9 q 0.95,0.85 1.5,2.15 1.05,2.3 1.25,7.15 0.3,6.15 -1.25,9.3 l -1.1,1.55 q -0.7,0.5 -1.9,0.7 L -8.15,29.7 M -32.1,7.3 q 0.75,-0.05 1.5,0.35 1.55,0.75 2.35,2.9 0.4,1.2 0.6,3.75 0.15,4.5 -0.1,8.1 l -0.2,1.45 q -0.2,0.85 -0.8,1.6 -1.05,1.25 -2.35,1.25 -2,0.15 -3.35,-2.25 -0.9,-1.5 -1.15,-4.05 l 0.1,-4.25 Q -35.2,12 -34.55,10 l 0.85,-1.7 q 0.7,-0.85 1.6,-1"
         fill="#b8a89e"
         fill-rule="evenodd"
         stroke="none"
         id="path2" />
      <path
         d="m -39.5,7.45 q 1.3,-2 3,-2.7 l 2.1,-0.2 -0.2,0.1 q -2.65,2.25 -3.35,6.75 l -0.3,3.8 -0.05,3.9 0.1,2.45 0.1,0.25 Q -39.6,19.65 -40.25,16.95 -41.1,13.4 -40.2,10 l 0.7,-2.55 M -29.4,4.4 h 0.45 q 0.95,0.15 1.9,1.05 l 1.55,1.75 1.9,1.95 q 1.5,1.95 2.1,6.45 0.85,7.85 -0.9,12.85 l -1.85,0.4 -3.15,0.2 0.6,-0.85 0.9,-1.85 0.25,-1.35 0.1,-1.6 q 0.45,-4.6 0.25,-7.3 l -0.5,-4.65 -0.5,-2.8 -0.8,-2 Q -27.65,5.55 -28.25,5.1 L -29.4,4.4 m 12.6,10.8 0.55,-1.8 q 0.5,-1.25 1.75,-2.55 l 1.05,-0.85 -0.8,3.1 q -0.45,2.35 -0.45,4.75 l 0.55,6.3 0.45,2.7 q 0.65,2.45 2.1,4 l 0.35,0.3 q -2.35,-0.8 -3.4,-1.55 l -1.4,-1.2 -0.55,-2.15 -0.1,-2.35 q 0.1,-3.75 -0.05,-6.75 L -16.8,15.2 M -1.35,9.35 q 1.05,0.3 2.15,1.5 1.05,1.1 1.55,2.15 l 0.9,2.2 -0.05,14.2 q -0.95,0.25 -2.1,0.95 l -2.85,1.5 -2.6,0.5 q 1.15,-0.6 2.15,-1.65 l 0.1,-0.1 q 0.7,-0.25 1.1,-0.65 0.65,-0.7 0.75,-2.25 l 0.05,-0.55 0.45,-1.95 0.3,-5.05 q 0.1,-4.25 -0.4,-6.7 -0.45,-2.1 -1.5,-4.1 m 7.55,8.6 0.05,-0.8 0.95,-2.7 Q 7.8,13 8.6,12 9,11.5 9.5,11.2 L 8.95,12.3 Q 8.55,13.05 8.4,13.7 L 8.15,15.45 Q 8,17.3 8,21 q 0.1,2.6 0.6,3.8 l 0.65,1.75 0.3,1.6 Q 10,29.75 11.5,30.9 L 11.75,31.1 8.7,30.3 6.65,29.65 6.55,29.3 6.45,25.4 6.2,17.95 M 21.75,12 21.8,12.05 q 1.3,0.9 2.25,2.35 l 0.85,1.75 0.1,0.2 0.6,7.1 0.1,2.15 -0.3,1.5 q -1.6,2.35 -5.2,3.5 l 1.15,-0.85 q 1.2,-1.05 1.7,-2.5 0.5,-1.4 0.4,-4.05 L 23.3,19.55 22.75,16.45 22.05,13.4 21.75,12 m 4.7,-1.65 0.05,-0.45 q 0.75,-3.75 2.65,-7.1 l 0.6,-0.9 q -0.9,4.6 -0.9,9.55 l 0.2,3.75 q 0.3,2.7 1.55,6.55 l -0.85,0.35 q -0.55,0.25 -0.95,0.45 l -0.3,-2.7 -0.4,-2.6 -0.65,-3.75 -0.5,-1.75 -0.5,-1.4 m 12.9,-8.4 0.35,0.3 1.45,1.5 V 4.2 L 41.5,7 41.75,9.8 q -0.05,2.25 -1.25,4.25 l 0.15,-0.75 0.3,-2.75 -0.2,-1.65 -0.55,-3.55 -0.55,-2.6 -0.3,-0.8 m -30.95,-21.1 5.25,-1.95 7.1,-2 0.95,-0.15 q -3.1,1 -5.65,2.3 l -2.4,1.3 -2.45,1.5 -2.75,-1 H 8.4 m 14.55,-1.3 q -0.6,0.5 -1.6,0.85 l -3.5,1.4 2.5,-1.2 2.6,-1.05 m -6.65,11.7 0.9,1.1 0.7,1.7 q 0.35,1.15 0.65,1.65 l 0.75,1.2 0.5,1.3 1.1,1.9 Q 21.55,1.35 21,2.2 L 20.5,2.65 20.25,2.05 19.15,-0.2 17.75,-1.8 16.2,-3.25 14.4,-5.5 12.75,-7.05 14.1,-7.6 q 1.4,-0.65 2.2,-1.15 M 0.3,-3.85 -0.55,-3.3 -3.3,-2 -5.95,-0.5 -8.2,1.45 -9.95,2.7 q -1.25,0.75 -2,0.25 L -12,2.9 l 0.55,-0.35 0.8,-1 1.05,-0.9 2.8,-2.1 2.75,-2.1 0.35,-0.35 q 2.05,0.2 4,0.05 m -8.8,-1 -0.6,0.15 -7.9,2.6 -5.6,2.4 q -2.6,1.05 -7.5,2.5 -1.1,0.4 -1.65,0 l -0.4,-0.65 6.25,-3.55 6.85,-3.6 q 2,-0.85 5.6,-1.8 2.5,1.2 4.95,1.95 m -7.6,-6.85 -0.8,-0.4 -2.7,-0.8 -1.6,-0.6 -1.65,-0.45 -1.15,-0.15 -1.15,-0.15 -1.75,-0.65 -1.2,-0.45 h 1.5 l 4.65,0.4 4.6,0.45 2.4,0.5 0.35,0.05 -1.05,1.2 -0.45,1.05 m -13.5,-5.5 0.15,-0.45 1,-1 q 2.25,-1.7 4.95,-2.3 l 3.5,-0.4 q 4.7,-0.35 7.65,0.1 l 2.9,0.6 2.4,0.7 2.7,1.1 0.8,0.25 -0.8,0.2 -3.3,0.8 -1.25,0.4 -1.75,-0.35 -2.8,-0.35 -2.35,-0.15 -7.55,-0.2 -2.9,0.2 -2.2,0.4 -0.8,0.25 -0.35,0.2"
         fill="#d4c2b8"
         fill-rule="evenodd"
         stroke="none"
         id="path3" />
      <path
         d="M -39.5,7.45 V 7.3 l 0.8,-2.35 q 0.5,-1.25 0.65,-2.1 l 0.45,-5.55 v -1.95 l -0.35,-3.05 -0.4,-1.4 -0.65,-1.1 -0.65,-0.3 2.75,-2.6 q 2.45,-1.85 2.75,-3.4 v -1.65 l -0.05,-1.7 q 0.25,-2.1 3.15,-4.05 3.95,-2.55 8.35,-3.7 2.8,-0.75 3.7,-1.45 l 2.3,-2.35 q 1.75,-1.6 5.4,-2.05 6.35,-0.7 12.05,1.75 l 2.3,0.95 2.4,0.3 q 1.05,-0.1 2.35,-0.85 l 2.2,-1.35 q 3.3,-1.6 7.4,-0.5 3.05,0.8 6.9,3.3 1.75,1.3 2.15,2.2 l 0.35,1.25 q 0.15,0.85 0.4,1.3 0.65,1.2 3.1,1.7 2.8,0.6 3.6,1.35 1.25,1.2 1.15,4.2 l -0.1,2.25 q 0.05,1.25 0.45,2.15 0.35,0.75 1.25,1.7 l 1.45,1.55 q 1,1.2 1.85,3.95 1.3,3.65 1.35,5.7 L 41.25,1.8 41.15,3.75 39.7,2.25 39.35,1.95 38.45,0.3 Q 37.4,-1.4 36.1,-2 q -2.05,-0.95 -4.2,0.3 -1,0.6 -1.5,1.4 l -0.6,1.9 -0.05,0.3 -0.6,0.9 q -1.9,3.35 -2.65,7.1 l -0.05,0.45 q -0.9,-2.15 -1.9,-3.1 -0.8,-0.8 -1.25,-0.3 -0.25,0.3 -0.05,0.9 l 0.5,2 1.1,5.05 0.15,1.45 -0.1,-0.2 -0.85,-1.75 Q 23.1,12.95 21.8,12.05 L 21.75,12 21.45,11.2 20.15,9.65 18.8,8 Q 18.15,7.5 16.85,7.2 l -2.4,-0.35 q -1.9,0.1 -3.5,1.9 Q 10.2,9.7 9.5,11.2 9,11.5 8.6,12 7.8,13 7.2,14.45 L 6.25,17.15 6.2,17.95 5.85,8.5 Q 5.75,7 5.05,6.75 4.65,6.55 4.2,6.75 L 3.55,7.3 q -0.3,0.55 -0.3,1.8 v 6.1 L 2.35,13 Q 1.85,11.95 0.8,10.85 -0.3,9.65 -1.35,9.35 L -2.2,7.9 q -1.3,-2 -2.65,-2.75 -1.6,-0.8 -3.5,-0.35 -1.8,0.45 -3.1,1.8 -1.25,1.3 -2,3.4 l -1.05,0.85 q -1.25,1.3 -1.75,2.55 l -0.55,1.8 v -0.35 l 0.25,-2.1 1.05,-6.1 0.15,-1.1 Q -15.45,4.9 -16,4.75 -16.7,4.6 -17.2,5.4 l -1.05,1.9 -0.75,2.5 -0.9,4.15 -0.15,2.45 -0.15,9.65 0.1,1.65 0.05,0.2 -0.95,0.15 -1.4,0.4 q 1.75,-5 0.9,-12.85 -0.6,-4.5 -2.1,-6.45 L -25.5,7.2 -27.05,5.45 Q -28,4.55 -28.95,4.4 h -0.45 l -1.25,-0.45 -2.25,-0.2 q -0.75,0.2 -1.5,0.8 l -2.1,0.2 q -1.7,0.7 -3,2.7 M 5.05,-19.5 5,-20.3 v -1.45 l 0.15,-0.95 v -1.15 L 5.1,-24.95 Q 5,-26.05 4.7,-26.4 L 3.9,-26.85 Q 3.4,-26.9 3,-26.6 q -0.55,0.45 -0.55,1.55 l -0.05,1.7 -0.2,0.55 -0.1,1.15 -0.1,1.15 -0.3,0.65 -0.1,0.35 -2.8,0.25 -2.35,0.65 -0.8,-0.25 -2.7,-1.1 -2.4,-0.7 -2.9,-0.6 q -2.95,-0.45 -7.65,-0.1 l -3.5,0.4 q -2.7,0.6 -4.95,2.3 l -1,1 -0.15,0.45 -0.5,0.5 -0.05,0.8 q 0.2,0.45 0.6,0.55 h 1.05 0.4 l 1.2,0.45 1.75,0.65 1.15,0.15 1.15,0.15 1.65,0.45 1.6,0.6 2.7,0.8 0.8,0.4 -0.25,1.05 v 0.55 q -2.65,0.95 -4.4,1.9 l -2.5,1.5 q -6,3.7 -8.85,5.85 l -1.9,1.8 q -0.8,1.05 -0.05,1.7 0.65,0.4 1.6,-0.3 l 0.3,-0.2 0.4,0.65 q 0.55,0.4 1.65,0 4.9,-1.45 7.5,-2.5 l 5.6,-2.4 7.9,-2.6 0.6,-0.15 0.15,0.05 -0.5,0.5 -0.7,0.95 -1.35,1.35 -2.3,2.75 -0.4,0.8 q -0.1,0.45 0.2,0.95 0.3,0.45 0.8,0.5 l 0.6,-0.1 0.05,0.05 q 0.75,0.5 2,-0.25 L -8.2,1.45 -5.95,-0.5 -3.3,-2 -0.55,-3.3 0.3,-3.85 2.9,-4.2 l 2.5,-0.6 2.25,-0.6 1.8,1 2.9,2.3 0.95,1.15 1,1.05 2,1.4 2.05,2.55 q 0.7,0.8 1.35,0.65 0.8,-0.1 0.9,-1.1 L 20.5,2.65 21,2.2 Q 21.55,1.35 20.9,0.1 l -1.1,-1.9 -0.5,-1.3 -0.75,-1.2 q -0.3,-0.5 -0.65,-1.65 l -0.7,-1.7 -0.9,-1.1 0.35,-0.3 0.5,-0.55 3.75,0.2 3.85,0.3 3.15,0.35 2.4,-0.05 0.8,0.25 0.8,0.05 q 0.55,-0.05 0.85,-0.65 0.25,-0.6 0,-1.1 -0.4,-0.8 -1.95,-1.15 l -5.35,-0.95 -8.1,-0.9 -0.35,-0.6 -1.3,-1.95 -0.85,-0.65 3,-1.75 3.5,-1.4 q 1,-0.35 1.6,-0.85 l 1.3,-0.5 q 1.2,-0.5 1.35,-1.2 0.15,-0.7 -0.55,-1.3 -0.5,-0.45 -1.35,-0.35 l -1.2,0.25 -0.8,0.3 -0.95,0.15 -7.1,2 -5.25,1.95 -3.35,-0.35"
         fill="#eee3dd"
         fill-rule="evenodd"
         stroke="none"
         id="path4" />
    </g>
    <g
       id="sprite1"
       transform="translate(17.4,15.85)">
      <use
         ffdec:characterId="31"
         height="57.200001"
         transform="matrix(0.5366,0,0,0.5366,-16.6582,-14.546)"
         width="70.75"
         xlink:href="#sprite2"
         id="use4" />
    </g>
    <g
       id="sprite2"
       transform="translate(-8.65,-10.35)">
      <use
         ffdec:characterId="30"
         height="57.200001"
         transform="translate(8.65,10.35)"
         width="70.75"
         xlink:href="#shape1"
         id="use5" />
    </g>
    <g
       id="shape1"
       transform="translate(-8.65,-10.35)">
      <path
         d="m 14.8,41.7 q 0.65,-1.75 2.65,-2.5 1.8,-0.8 3.7,-0.25 1.15,0.45 2.25,1.2 l 0.9,0.4 q 1.65,0.9 2.85,2.5 L 37.8,30.1 q 2.35,-2.8 3.75,-3.95 1.5,-1.15 4.25,-2.4 18.2,-8.85 27.65,-12.6 2.15,-0.8 3.25,-0.8 h 0.8 l 1.9,2.4 -0.2,0.8 q -0.2,1.1 -1.55,3 -5.85,8.25 -18.85,23.8 -1.85,2.35 -3.35,3.5 -1.4,1.15 -4.75,2.75 l -15.15,7.15 q 1.2,1.6 1.75,3.4 l 0.2,1 0.55,2.5 q 0.1,1.95 -1.1,3.55 -1.2,1.65 -3.05,1.9 l -1.3,0.05 q -1.65,0.2 -3.45,-0.65 -1.85,-0.9 -3,-2.6 L 25,60.95 23.8,62.1 q -2.6,2.85 -4.3,3.95 -2.85,1.8 -5.5,1.45 l -1.65,-0.5 -1.2,-0.7 -0.2,-0.2 q -1,-0.85 -1.6,-1.9 L 9.25,64 9.15,63.8 8.75,62.4 q -0.2,-0.8 -0.05,-1.7 0.25,-2.65 2.7,-5.05 1.5,-1.3 4.9,-3.15 L 17.7,51.55 16.05,50 q -1.35,-1.5 -1.8,-3.6 -0.4,-1.85 0.25,-3.45 l 0.3,-1.25"
         fill="#000000"
         fill-opacity="0.372549"
         fill-rule="evenodd"
         stroke="none"
         id="path5" />
    </g>
  </defs>
</svg>
