<?xml version="1.0" encoding="UTF-8" standalone="no"?>
<svg
   ffdec:objectType="frame"
   height="53.167339"
   width="45.442272"
   version="1.1"
   id="svg4"
   xmlns:xlink="http://www.w3.org/1999/xlink"
   xmlns="http://www.w3.org/2000/svg"
   xmlns:svg="http://www.w3.org/2000/svg"
   xmlns:ffdec="https://www.free-decompiler.com/flash">
  <g
     transform="translate(24.11674,28.792453)"
     id="g1">
    <use
       ffdec:characterId="17"
       height="119.15"
       id="rarity"
       transform="translate(-58.5,-60.65)"
       width="119.15"
       xlink:href="#sprite0" />
    <use
       ffdec:characterId="509"
       height="53.150002"
       transform="translate(-24.1,-28.8)"
       width="45.450001"
       xlink:href="#shape0"
       id="use1" />
  </g>
  <defs
     id="defs4">
    <g
       id="shape0"
       transform="translate(23.7,28)">
      <path
         d="M 13.75,-2.2 Q 15.15,0.5 15.1,3.65 14.95,18.3 0.85,23.75 -9.25,27.7 -17.5,20.7 -25.9,13.6 -22.95,2.95 -19.35,-10.1 -6.05,-13 l -1,-0.45 -1.35,-0.9 q -3.3,-2.7 -2.25,-7.25 0.7,-2.95 2.6,-5.2 0.85,-1 2.05,-1.1 6.65,-0.7 10.9,3.9 0.75,0.8 0.7,1.9 -0.05,1.5 -0.55,2.9 11.2,0.6 15.45,11.2 2.4,5.95 0.1,11.5 l -0.25,0.1 -1,-0.1 -0.4,-0.15 -0.2,-0.2 -0.5,-1.1 L 17.9,1.2 17.6,0.8 17.55,0.55 V 0.35 L 17.5,-0.1 17.45,-0.3 17.35,-0.5 Q 16.95,-1.2 16.85,-2 L 16.4,-3.75 16.2,-4.6 14.95,-6.65 Q 12.8,-9.9 9.4,-11.9 l -0.5,-0.35 -0.15,-0.05 -4.15,-0.5 -0.35,0.2 -0.1,1.05 q 6.1,2.55 9.6,9.35 M 4.1,-4.85 q -1.25,-0.8 -2.85,-1.4 -2.2,-0.8 -4.5,-0.9 -7.65,0.85 -11.4,7 L -16.8,3.7 -17,4.4 q -1.4,5.15 1.65,9.25 4.8,6.4 12.5,4.45 Q 7.4,15.5 8.6,5.45 9.45,-1.5 4.1,-4.85"
         fill="#000000"
         fill-rule="evenodd"
         stroke="none"
         id="path1" />
      <path
         d="m -17,4.4 q 0.55,2.8 2.8,4.95 1.2,1.25 2.7,2 3.15,1.6 6.75,0.65 Q 3.25,9.85 5.4,2.25 6,0.05 5.35,-2.1 L 4.1,-4.85 Q 9.45,-1.5 8.6,5.45 7.4,15.5 -2.85,18.1 -10.55,20.05 -15.35,13.65 -18.4,9.55 -17,4.4"
         fill="#455444"
         fill-rule="evenodd"
         stroke="none"
         id="path2" />
      <path
         d="m -17,4.4 0.2,-0.7 2.15,-3.85 q 3.75,-6.15 11.4,-7 2.3,0.1 4.5,0.9 1.6,0.6 2.85,1.4 L 5.35,-2.1 Q 6,0.05 5.4,2.25 3.25,9.85 -4.75,12 -8.35,12.95 -11.5,11.35 -13,10.6 -14.2,9.35 -16.45,7.2 -17,4.4"
         fill="#627362"
         fill-rule="evenodd"
         stroke="none"
         id="path3" />
    </g>
    <g
       id="sprite1"
       transform="translate(17.4,15.85)">
      <use
         ffdec:characterId="31"
         height="57.200001"
         transform="matrix(0.5366,0,0,0.5366,-16.6582,-14.546)"
         width="70.75"
         xlink:href="#sprite2"
         id="use3" />
    </g>
    <g
       id="sprite2"
       transform="translate(-8.65,-10.35)">
      <use
         ffdec:characterId="30"
         height="57.200001"
         transform="translate(8.65,10.35)"
         width="70.75"
         xlink:href="#shape1"
         id="use4" />
    </g>
    <g
       id="shape1"
       transform="translate(-8.65,-10.35)">
      <path
         d="m 14.8,41.7 q 0.65,-1.75 2.65,-2.5 1.8,-0.8 3.7,-0.25 1.15,0.45 2.25,1.2 l 0.9,0.4 q 1.65,0.9 2.85,2.5 L 37.8,30.1 q 2.35,-2.8 3.75,-3.95 1.5,-1.15 4.25,-2.4 18.2,-8.85 27.65,-12.6 2.15,-0.8 3.25,-0.8 h 0.8 l 1.9,2.4 -0.2,0.8 q -0.2,1.1 -1.55,3 -5.85,8.25 -18.85,23.8 -1.85,2.35 -3.35,3.5 -1.4,1.15 -4.75,2.75 l -15.15,7.15 q 1.2,1.6 1.75,3.4 l 0.2,1 0.55,2.5 q 0.1,1.95 -1.1,3.55 -1.2,1.65 -3.05,1.9 l -1.3,0.05 q -1.65,0.2 -3.45,-0.65 -1.85,-0.9 -3,-2.6 L 25,60.95 23.8,62.1 q -2.6,2.85 -4.3,3.95 -2.85,1.8 -5.5,1.45 l -1.65,-0.5 -1.2,-0.7 -0.2,-0.2 q -1,-0.85 -1.6,-1.9 L 9.25,64 9.15,63.8 8.75,62.4 q -0.2,-0.8 -0.05,-1.7 0.25,-2.65 2.7,-5.05 1.5,-1.3 4.9,-3.15 L 17.7,51.55 16.05,50 q -1.35,-1.5 -1.8,-3.6 -0.4,-1.85 0.25,-3.45 l 0.3,-1.25"
         fill="#000000"
         fill-opacity="0.372549"
         fill-rule="evenodd"
         stroke="none"
         id="path4" />
    </g>
  </defs>
</svg>
