<?xml version="1.0" encoding="UTF-8" standalone="no"?>
<svg
   ffdec:objectType="frame"
   height="92.244049"
   width="88.558334"
   version="1.1"
   id="svg11"
   xmlns:xlink="http://www.w3.org/1999/xlink"
   xmlns="http://www.w3.org/2000/svg"
   xmlns:svg="http://www.w3.org/2000/svg"
   xmlns:ffdec="https://www.free-decompiler.com/flash">
  <g
     transform="translate(44.579762,46.75)"
     id="g2">
    <use
       ffdec:characterId="17"
       height="119.15"
       id="rarity"
       transform="translate(-58.5,-60.65)"
       width="119.15"
       xlink:href="#sprite0" />
    <use
       ffdec:characterId="664"
       height="7.9000001"
       transform="translate(9.95,-24.4)"
       width="7.9000001"
       xlink:href="#shape0"
       id="use1" />
    <use
       ffdec:characterId="667"
       height="97.25"
       transform="translate(-47.1,-49.25)"
       width="93.599998"
       xlink:href="#sprite1"
       id="use2" />
  </g>
  <defs
     id="defs11">
    <g
       id="shape0"
       transform="translate(-10.35,23.6)">
      <path
         d="m 16.45,-16.3 q -1.2,0.8 -2.8,0.55 -1.55,-0.25 -2.5,-1.35 -0.9,-1.15 -0.8,-2.7 0.05,-1.6 1.1,-2.65 0.8,-0.8 1.9,-1.05 l 2.2,0.1 q 1.05,0.35 1.8,1.25 0.75,0.9 0.85,2 0.15,1.1 -0.35,2.15 -0.45,1.05 -1.4,1.7"
         fill="#89e764"
         fill-opacity="0.6"
         fill-rule="evenodd"
         stroke="none"
         id="path2" />
    </g>
    <g
       id="sprite1"
       transform="translate(2.5,2.5)">
      <use
         ffdec:characterId="666"
         height="92.25"
         width="88.599998"
         xlink:href="#sprite2"
         id="use3" />
    </g>
    <g
       id="sprite2">
      <use
         ffdec:characterId="665"
         height="92.25"
         width="88.599998"
         xlink:href="#shape1"
         id="use4" />
    </g>
    <g
       id="shape1">
      <path
         d="M 51.7,61.55 50.4,58.8 q 1.75,-2.05 5,-2.25 l 2.6,0.25 2.95,0.8 2.2,0.65 2.2,-0.15 q 0.95,-0.35 1.95,-1.95 l 0.4,-0.75 1.05,-2.15 4.4,-10.5 3.3,-9.45 1.65,-4.9 2.05,-6.1 1.5,-4.45 1.2,-3.7 1.2,-3.55 0.6,-2.5 0.05,-0.05 V 7.2 L 84.05,6.25 Q 83.55,5.6 82.95,5.5 L 82.15,5.55 82.1,5.6 q -0.9,0.1 -2.45,0.7 l -1.5,0.6 -3.25,1.15 -7.75,2.8 -6.9,2.55 -2.4,0.85 -0.7,0.25 -2.05,0.8 q -4.65,1.7 -8.65,3.4 l -1.55,0.7 -5.1,2.3 -2.95,1.45 -1.55,0.8 q -2.2,1.25 -2.65,2.35 -0.4,1 -0.1,2.25 l 0.75,2.2 q 0.7,1.75 1,3.3 l 0.2,1.45 v 0.75 q -0.1,3.25 -2.1,5.05 -1.8,-0.95 -2.8,-1.25 l -1.85,-0.3 0.05,-0.85 q 0.4,-1.95 2.4,-3.6 l 0.7,-0.55 -1.7,-1.2 q -1,-1.05 -1.6,-3.5 -0.55,-2.7 0.1,-4.35 0.4,-1.1 1.75,-2.65 l 1.45,-1.6 q 1.75,-1.4 3.75,-1.55 l 2.7,0.4 0.55,0.3 0.9,-1.2 h -0.25 q -2.95,0.1 -4.9,-1.8 -1.8,-1.7 -1.7,-4.3 0,-1 0.4,-2.1 L 32.85,10.05 33.5,9.15 34.55,8 36,7.05 38.2,6.45 q 2.25,-0.2 4.3,1.25 1.7,1.2 2.2,2.75 l 0.25,1.5 0.05,1.6 q 1.3,-2.4 4.5,-3.5 L 51,9.7 q 2.85,-0.3 5.25,2.25 V 11.9 l 0.9,-1 1.45,-1.45 q 1.3,-1.1 3.05,-1.25 1.8,-0.15 3.25,0.65 l 1.3,0.95 3.05,-1.15 3.7,-1.9 Q 72.4,5.95 72.35,5.05 72.3,4.05 72.85,3.2 73.4,2.3 74.3,1.95 l 2.05,-0.1 q 1.05,0.25 1.7,1.05 l 0.5,0.9 1.9,-0.8 3.95,-0.6 q 2.3,0.25 3.4,1.9 0.8,1.35 0.65,3 l -0.75,3 q -0.6,1.7 -1.6,3.6 l -0.8,1.35 0.7,0.9 q 1.65,2.35 1.25,5.3 -0.2,2.1 -1.75,4.25 l -1.75,1.75 q -1.15,0.75 -3,0.95 -0.8,1.9 -1.5,4.6 0.6,-0.75 1.45,-1.2 l 0.95,-0.4 1.2,-0.35 Q 84.7,30.8 86.7,32.1 l 0.75,0.65 q 0.75,0.8 1,2.15 0.3,1.45 -0.1,2.9 -0.4,1.45 -1.4,2.5 -1,1.05 -2.5,1.45 l -2.85,-0.05 -1.25,-0.65 -1.2,-1.25 -0.5,-1.05 -0.1,-1.25 -0.15,-0.75 -1.4,5.9 -0.4,1.4 q 0.95,0.75 1.5,2 0.75,1.9 0.15,3.65 l -0.4,1 Q 76.6,53 75,54.1 L 73.5,54.85 72.05,55 71.35,54.9 69,58.05 q 0.85,1.7 0.45,3.85 -0.45,1.95 -2,3.5 L 66,66.55 64,67.9 q -2.15,0.95 -4.35,0.35 -2.25,-0.65 -3.5,-2.6 -1.25,-1.9 -0.9,-4.3 0.25,-1.55 1.05,-2.65 l 0.1,-0.05 -1.25,0.05 Q 53.7,59.05 51.7,61.55 M 76.2,55.6 q -0.05,-0.6 0.25,-1.25 0.3,-0.65 0.95,-1.15 0.85,-0.6 2,-0.4 1.15,0.2 1.8,1.05 0.6,0.85 0.45,2 Q 81.5,57 80.7,57.65 79.35,58.75 77.8,58 L 76.65,57.05 Q 76.2,56.35 76.2,55.6 M 58.4,1.85 Q 58.8,1.05 59.65,0.5 60.5,0 61.45,0 63.5,0 64.5,1.85 65.4,3.75 64.25,5.45 63.5,6.5 62.15,6.8 60.75,7.05 59.65,6.4 58.55,5.7 58.2,4.35 57.8,3 58.4,1.85 M 49.15,4.6 q 0.45,-1.15 1.7,-1.55 l 1.8,0.1 q 0.9,0.35 1.35,1.15 0.45,0.8 0.3,1.75 -0.15,1 -0.8,1.6 Q 52.8,8.25 51.8,8.3 50.85,8.35 50.1,7.85 49.35,7.3 49.05,6.4 48.8,5.4 49.15,4.6 m -4.7,13.7 Q 44.1,17.15 44.25,16 l -0.7,0.9 -0.8,0.9 -0.3,0.3 2,0.2 M 24.3,12.05 q -0.15,-0.8 0.15,-1.6 0.35,-0.85 1.15,-1.3 0.8,-0.5 1.7,-0.45 0.9,0.1 1.6,0.75 0.7,0.65 0.85,1.55 0.3,1.5 -0.9,2.6 -1.25,1 -2.7,0.5 -1.5,-0.5 -1.85,-2.05 M 20.5,26.6 q -0.65,-0.7 -0.8,-1.7 -0.2,-1 0.2,-1.9 0.55,-1.1 1.75,-1.65 L 24,21.2 q 1.15,0.4 1.85,1.55 0.65,1.15 0.4,2.35 -0.25,1.15 -1.3,1.95 -1.05,0.75 -2.25,0.65 -1.35,-0.1 -2.2,-1.1 m -1.85,9.65 -0.05,-1.2 q 0.2,-1.1 1.1,-1.95 0.95,-0.8 2.05,-0.85 1.15,-0.05 2.15,0.7 1,0.8 1.2,1.9 0.25,1.15 -0.3,2.2 -0.55,1.1 -1.65,1.55 l -2.25,0.1 q -1.15,-0.35 -1.8,-1.3 -0.4,-0.7 -0.45,-1.15 m 56.5,35.4 q -0.65,0.6 -1.5,0.5 L 72.55,71.7 Q 72,71.25 71.75,70.25 71.45,69.45 71.5,69 q 0.2,-1 1.1,-1.15 l 1.25,0.1 q 1,0.35 1.35,0.65 0.75,0.65 0.65,1.5 0,1 -0.7,1.55 M 58.95,71.3 q -0.05,1.15 -0.95,2 -0.9,0.85 -2.05,1 -1.8,0.25 -3,-0.95 -1.1,-1.15 -0.85,-2.85 0.25,-1.55 1.6,-2.45 1.35,-0.95 2.75,-0.5 1.3,0.35 2.1,1.85 0.45,0.95 0.4,1.9"
         fill="#89e764"
         fill-opacity="0.6"
         fill-rule="evenodd"
         stroke="none"
         id="path4" />
      <path
         d="m 27.75,39.75 1.85,0.3 q 1,0.3 2.8,1.25 2,-1.8 2.1,-5.05 V 35.5 l -0.2,-1.45 q -0.3,-1.55 -1,-3.3 l -0.75,-2.2 q -0.3,-1.25 0.1,-2.25 0.45,-1.1 2.65,-2.35 l 1.55,-0.8 2.95,-1.45 5.1,-2.3 1.55,-0.7 q 4,-1.7 8.65,-3.4 l 2.05,-0.8 0.7,-0.25 2.4,-0.85 6.9,-2.55 7.75,-2.8 3.25,-1.15 1.5,-0.6 Q 81.2,5.7 82.1,5.6 l 0.05,-0.05 0.8,-0.05 q 0.6,0.1 1.1,0.75 L 84.7,7.2 v 0.85 l -0.05,0.05 -0.6,2.5 -1.2,3.55 -1.2,3.7 -1.5,4.45 -2.05,6.1 -1.65,4.9 -3.3,9.45 -4.4,10.5 -1.05,2.15 -0.4,0.75 q -1,1.6 -1.95,1.95 L 63.15,58.25 60.95,57.6 58,56.8 55.4,56.55 q -3.25,0.2 -5,2.25 l 1.3,2.75 q 0.6,1.6 0.3,2.95 -0.25,1.35 -1.35,2.7 l -2.15,2.15 -3.3,3.35 -3.3,3.25 q -2.1,1.9 -3.6,2.4 l -4.2,-0.1 -1.4,-0.5 q -0.65,0 -1.35,0.75 -6.6,6.95 -10.15,10.05 -2.6,2.25 -4.35,2.95 -2.9,1.25 -6.4,0.4 Q 7.8,91.25 5.4,89.6 L 5.35,89.7 4.05,88.5 2.8,87.2 2.85,87.1 Q 1.2,84.85 0.45,82.2 -0.5,78.7 0.65,75.8 1.35,74.05 3.5,71.35 6.5,67.7 13.25,60.9 L 14,59.6 13.4,58.15 q -1.05,-1.8 -0.2,-4.2 0.45,-1.5 2.3,-3.7 l 3.2,-3.3 3.2,-3.4 2.1,-2.25 q 1.35,-1.15 2.65,-1.45 l 1.1,-0.1 m 19.1,8.25 -0.15,0.1 -0.1,0.1 -0.1,0.15 -0.15,0.1 -0.1,0.2 -0.15,0.1 -0.15,0.15 -0.1,0.15 -0.15,0.1 -0.05,0.15 -0.15,0.1 -0.1,0.15 -0.1,0.1 -0.15,0.15 -0.15,0.15 -0.1,0.1 -0.15,0.15 -0.15,0.15 -0.05,0.15 -0.15,0.15 -0.1,0.15 -0.1,0.1 -0.15,0.15 -0.15,0.15 -0.1,0.1 -0.1,0.2 -0.1,0.1 -0.1,0.2 -0.1,0.1 -0.05,0.05 -0.1,0.1 -0.05,0.2 q -0.05,0 -0.15,0.1 l 0.3,0.3 1.8,1.55 0.15,-0.15 q 3.2,-3.2 7.2,-4.2 l 5.2,-0.25 q 2.7,0.35 5,1.6 4,-7.5 8.85,-21.35 l 2.35,-6.75 0.45,-1.15 0.95,-2.65 1.15,-3.05 1.5,-3.75 -3.95,1.65 -4.35,1.75 -0.85,0.35 -0.2,0.1 -6.7,2.6 -0.15,0.05 -1,0.35 -1.5,0.6 q -9.3,3.6 -15.5,6.7 l -1.25,0.6 q -1.55,0.8 -2.85,1.55 l 0.45,0.8 0.1,0.2 0.9,2.35 0.3,1.6 0.2,2.55 -0.3,2.65 q -0.95,4 -4,7.3 l -0.45,0.45 1.9,1.45 0.45,0.35 0.1,-0.05 0.05,-0.1 0.05,-0.05 0.1,-0.05 0.15,-0.15 0.2,-0.15 0.1,-0.1 0.15,-0.15 0.15,-0.05 0.15,-0.15 0.15,-0.15 0.1,-0.1 0.1,-0.15 0.15,-0.15 0.1,-0.05 0.15,-0.15 0.15,-0.15 0.1,-0.1 0.15,-0.15 0.15,-0.15 0.1,-0.1 0.1,-0.15 0.15,-0.1 0.1,-0.15 0.25,-0.05 0.1,-0.15 0.15,-0.15 0.15,-0.1 q 0.05,-0.1 0.15,-0.1 l 0.15,-0.1 0.1,-0.15 0.1,-0.1 0.15,-0.15 0.15,-0.15 0.1,-0.1 0.15,-0.15 0.15,-0.15 0.1,-0.1 0.15,-0.15 0.1,-0.15 0.1,-0.1 0.15,-0.15 0.15,-0.15 0.1,-0.1 0.15,-0.15 0.1,-0.1 0.15,-0.15 0.15,-0.15 0.1,-0.1 0.1,-0.15 0.2,-0.1 0.1,-0.1 0.15,-0.15 0.2,-0.1 0.1,-0.1 0.15,-0.15 0.15,-0.1 0.15,-0.1 0.1,-0.1 0.15,-0.15 0.1,-0.1 0.15,-0.15 0.15,-0.05 0.15,-0.15 0.15,-0.15 0.1,-0.1 0.15,-0.15 0.15,-0.1 q 0.1,-0.1 0.15,-0.1 l 0.1,-0.15 0.15,-0.15 0.1,-0.1 0.15,-0.15 0.15,-0.15 0.1,-0.1 0.15,-0.15 0.1,-0.15 0.15,-0.1 0.1,-0.15 0.25,-0.05 0.1,-0.1 0.15,-0.15 0.1,-0.1 0.15,-0.15 0.15,-0.15 0.1,-0.1 0.15,-0.15 0.1,-0.1 0.1,-0.15 0.15,-0.1 0.15,-0.15 0.1,-0.1 0.15,-0.15 0.15,-0.15 0.1,-0.1 0.15,-0.15 0.1,-0.15 0.1,-0.1 0.15,-0.15 0.1,-0.1 0.15,-0.15 0.2,-0.1 0.1,-0.1 0.15,-0.15 0.15,-0.15 0.1,-0.1 0.1,-0.15 0.15,-0.15 0.1,-0.1 0.15,-0.15 0.15,-0.15 0.1,-0.1 0.15,-0.15 0.15,-0.15 0.15,-0.05 0.1,-0.15 0.15,-0.1 0.1,-0.15 0.15,-0.1 0.1,-0.15 0.15,-0.15 0.15,-0.1 0.1,-0.15 0.15,-0.1 0.15,-0.1 0.1,-0.1 0.15,-0.15 0.15,-0.15 0.1,-0.1 0.15,-0.15 0.15,-0.15 0.15,-0.05 0.15,-0.15 0.1,-0.15 0.1,-0.1 0.2,-0.1 0.1,-0.1 0.15,-0.15 0.15,-0.15 0.1,-0.1 0.15,-0.15 0.15,-0.15 0.1,-0.1 0.1,-0.15 0.15,-0.15 0.1,-0.1 0.15,-0.15 0.15,-0.1 0.1,-0.15 0.15,-0.15 0.15,-0.1 0.1,-0.15 0.15,-0.05 0.15,-0.15 0.1,-0.1 0.15,-0.15 0.1,-0.1 0.15,-0.15 0.15,-0.15 0.15,-0.05 0.15,-0.15 0.1,-0.15 0.15,-0.1 0.1,-0.15 0.15,-0.15 0.1,-0.1 0.15,-0.15 0.15,-0.15 0.1,-0.1 0.15,-0.15 0.1,-0.15 0.15,-0.1 0.1,-0.15 0.1,-0.1 0.15,-0.15 0.15,-0.15 0.1,-0.1 0.15,-0.15 0.15,-0.15 0.1,-0.1 0.15,-0.15 0.1,-0.1 0.1,-0.15 0.15,-0.1 0.15,-0.15 0.1,-0.1 0.15,-0.15 0.15,-0.15 0.1,-0.1 0.15,-0.15 0.1,-0.15 0.1,-0.1 0.15,-0.15 0.1,-0.1 0.15,-0.15 0.2,-0.1 0.1,-0.1 0.2,-0.1 0.2,-0.1 0.1,-0.1 0.25,-0.05 0.15,-0.1 0.2,-0.05 0.3,0.05 0.3,0.1 0.25,0.1 0.1,0.05 0.2,0.2 V 23.9 l 0.15,0.25 v 0.3 l -0.15,0.15 -0.05,0.15 -0.05,0.2 -0.1,0.2 -0.05,0.15 -0.05,0.25 -0.15,0.15 -0.05,0.15 -0.15,0.15 -0.1,0.15 -0.1,0.1 -0.15,0.15 -0.1,0.1 -0.1,0.15 -0.15,0.15 -0.1,0.1 -0.15,0.15 -0.15,0.15 -0.1,0.1 -0.15,0.15 -0.15,0.1 -0.1,0.15 -0.1,0.1 -0.15,0.15 -0.1,0.1 -0.15,0.15 -0.15,0.15 -0.1,0.1 -0.15,0.15 -0.15,0.15 -0.1,0.1 -0.1,0.15 -0.15,0.1 -0.1,0.15 -0.15,0.15 -0.1,0.1 -0.15,0.15 -0.15,0.15 -0.1,0.1 -0.15,0.15 -0.1,0.15 -0.15,0.1 -0.1,0.15 -0.15,0.15 -0.1,0.15 -0.15,0.15 -0.15,0.15 -0.1,0.1 -0.15,0.15 -0.1,0.1 -0.15,0.15 -0.1,0.1 -0.05,0.2 -0.15,0.1 -0.15,0.15 -0.1,0.15 -0.15,0.1 -0.1,0.2 -0.1,0.1 -0.15,0.15 -0.1,0.15 -0.1,0.1 -0.15,0.15 -0.15,0.15 -0.1,0.1 -0.15,0.15 -0.15,0.15 -0.1,0.1 -0.15,0.15 -0.05,0.15 -0.1,0.15 -0.15,0.15 -0.1,0.1 -0.1,0.2 -0.15,0.15 -0.1,0.1 -0.15,0.15 -0.15,0.15 -0.1,0.1 -0.1,0.15 -0.1,0.1 -0.1,0.15 -0.15,0.1 -0.15,0.15 -0.1,0.15 -0.15,0.1 -0.1,0.15 -0.15,0.1 -0.1,0.15 -0.1,0.1 -0.1,0.25 -0.15,0.15 -0.1,0.1 -0.15,0.15 -0.15,0.15 -0.1,0.1 -0.15,0.15 -0.1,0.15 -0.1,0.1 -0.15,0.15 -0.15,0.15 -0.1,0.1 -0.1,0.15 -0.15,0.15 -0.1,0.1 -0.15,0.15 -0.1,0.1 -0.1,0.15 -0.15,0.15 -0.1,0.1 -0.15,0.15 -0.15,0.15 -0.1,0.1 -0.15,0.15 -0.15,0.15 -0.1,0.15 -0.1,0.1 -0.15,0.15 -0.1,0.1 -0.15,0.15 -0.15,0.15 -0.1,0.1 -0.15,0.15 -0.1,0.1 -0.15,0.15 -0.05,0.2 -0.15,0.1 -0.1,0.15 -0.15,0.15 -0.1,0.1 -0.15,0.15 -0.15,0.15 -0.1,0.1 -0.1,0.15 -0.1,0.15 -0.15,0.1 -0.1,0.15 -0.1,0.25 -0.1,0.1 -0.15,0.15 -0.15,0.15 -0.05,0.15 -0.15,0.15 -0.1,0.1 -0.15,0.15 -0.1,0.1 q -0.1,0.1 -0.05,0.15 l -0.15,0.1 -0.15,0.15 -0.1,0.1 -0.15,0.15 -0.1,0.2 -0.1,0.1 -0.15,0.2 -0.1,0.15 -0.1,0.1 -0.15,0.15 -0.15,0.15 -0.1,0.1 -0.15,0.15 -0.1,0.1 -0.15,0.15 -0.15,0.15 -0.1,0.1 v 0.2 L 47.5,47.3 47.4,47.4 47.25,47.55 47.1,47.7 47,47.8 46.85,47.95 V 48 m -18.65,-0.95 -5.6,5.85 1.15,0.35 5.9,2.1 L 30,55.2 q 1.2,-0.75 2.65,-0.5 l 0.1,-0.7 0.15,-1.15 0.25,-1 L 33.5,50.4 31.55,49 29.45,47.7 28.2,47.05 m 15.3,13.55 -0.3,-0.95 -0.2,-0.2 -2.15,-1.8 -0.6,0.2 -3.2,0.85 -0.1,1.45 q -0.15,0.95 -0.75,1.7 l 0.2,0.35 0.3,0.8 q 1,1.75 2.35,3.55 l 1,1.55 4.75,-4.9 -1.3,-2.6 m -9.2,-3.45 q -0.55,-0.6 -1.55,-0.8 l -1.7,0.15 q -0.8,0.45 -1.35,1.25 -0.4,0.8 -0.35,1.65 0.1,0.9 0.65,1.6 0.6,0.7 1.45,1 l 1.9,-0.15 1.4,-1.25 Q 35.2,59.85 35.1,58.85 35,57.9 34.3,57.15 m -5.6,7.8 2.4,2.2 0.1,-1.35 -0.05,-2.35 q -1.8,-0.45 -2.85,-2 l -0.2,-0.3 -1,0.2 -1.2,0.45 -0.6,0.25 3.4,2.9 m -6.5,7.05 0.65,0.5 2.45,2.25 0.75,-0.75 1.45,-1.55 -2.05,-1.95 -1.1,-1.1 -1.15,-1.15 -1.85,-1.9 -1.9,-1.8 -1.5,1.6 -1.45,1.4 0.1,0.05 5.6,4.4 m -3.25,3.25 -5.9,-4.2 -1.95,2.2 0.35,0.35 1.95,1.9 1.4,1.85 0.9,0.9 0.8,0.75 1.6,1.55 0.65,0.8 3.7,-3.6 -3.5,-2.5 M 7.25,80.1 q 0.1,0.85 0.55,1.95 L 7.85,82 l 0.05,0.25 0.3,0.6 0.6,0.8 0.8,0.55 0.55,0.25 0.25,0.05 -0.05,0.05 q 1.65,0.7 2.85,0.5 l 1.3,-0.4 -0.6,-0.6 -2.7,-3.25 -2.85,-3.45 -0.3,-0.3 q -0.75,1.2 -0.85,2.2 l 0.05,0.85"
         fill="#000000"
         fill-rule="evenodd"
         stroke="none"
         id="path5" />
      <path
         d="m 38.75,48.15 -1.9,-1.45 0.45,-0.45 q 3.05,-3.3 4,-7.3 l 0.3,-2.65 -0.2,-2.55 -0.3,-1.6 -0.9,-2.35 -0.1,-0.2 -0.45,-0.8 q 1.3,-0.75 2.85,-1.55 l 1.25,-0.6 q 6.2,-3.1 15.5,-6.7 l 1.5,-0.6 1,-0.35 0.15,-0.05 6.7,-2.6 0.2,-0.1 0.85,-0.35 4.35,-1.75 3.95,-1.65 -1.5,3.75 -1.15,3.05 -0.95,2.65 -0.45,1.15 -2.35,6.75 Q 66.7,43.7 62.7,51.2 q -2.3,-1.25 -5,-1.6 l -5.2,0.25 q -4,1 -7.2,4.2 l -0.15,0.15 -1.8,-1.55 -0.3,-0.3 q 0.1,-0.1 0.15,-0.1 l 0.05,-0.2 0.1,-0.1 0.05,-0.05 0.1,-0.1 0.1,-0.2 0.1,-0.1 0.1,-0.2 0.1,-0.1 0.15,-0.15 0.15,-0.15 0.1,-0.1 0.1,-0.15 0.15,-0.15 0.05,-0.15 0.15,-0.15 0.15,-0.15 0.1,-0.1 0.15,-0.15 0.15,-0.15 0.1,-0.1 0.1,-0.15 0.15,-0.1 0.05,-0.15 0.15,-0.1 0.1,-0.15 0.15,-0.15 0.15,-0.1 0.1,-0.2 0.15,-0.1 0.1,-0.15 0.1,-0.1 0.15,-0.1 q 2.2,-1.35 4.95,-1.9 4.75,-0.9 8.85,1.05 L 61,47.3 61.2,46.8 69.8,20.2 q -11.7,5.05 -22.95,9.1 -0.95,0.45 -1.2,0.8 -0.4,0.6 0.05,2 1.5,5.85 -3.7,12.85 -1.35,1.85 -2.65,2.8 l -0.6,0.4"
         fill="#aad698"
         fill-rule="evenodd"
         stroke="none"
         id="path6" />
      <path
         d="m 39.35,47.75 q 1.3,-0.95 2.65,-2.8 5.2,-7 3.7,-12.85 -0.45,-1.4 -0.05,-2 0.25,-0.35 1.2,-0.8 11.25,-4.05 22.95,-9.1 l -8.6,26.6 -0.45,0.25 -0.1,0.1 Q 56.55,45.2 51.8,46.1 49.05,46.65 46.85,48 V 47.95 L 47,47.8 l 0.1,-0.1 0.15,-0.15 0.15,-0.15 0.1,-0.1 0.15,-0.15 v -0.2 l 0.1,-0.1 0.15,-0.15 0.15,-0.15 0.1,-0.1 0.15,-0.15 0.1,-0.1 0.15,-0.15 0.15,-0.15 0.1,-0.1 0.1,-0.15 0.15,-0.2 0.1,-0.1 0.1,-0.2 0.15,-0.15 0.1,-0.1 0.15,-0.15 0.15,-0.1 Q 49.75,44.6 49.85,44.5 l 0.1,-0.1 0.15,-0.15 0.1,-0.1 0.15,-0.15 0.05,-0.15 0.15,-0.15 0.15,-0.15 0.1,-0.1 0.1,-0.25 0.1,-0.15 0.15,-0.1 0.1,-0.15 0.1,-0.15 0.1,-0.1 0.15,-0.15 0.15,-0.15 0.1,-0.1 L 52,42 l 0.1,-0.15 0.15,-0.1 0.05,-0.2 0.15,-0.15 0.1,-0.1 0.15,-0.15 0.1,-0.1 0.15,-0.15 0.15,-0.15 0.1,-0.1 0.15,-0.15 0.1,-0.1 0.1,-0.15 0.15,-0.15 0.15,-0.15 0.1,-0.1 0.15,-0.15 0.15,-0.15 0.1,-0.1 0.15,-0.15 0.1,-0.15 0.1,-0.1 0.15,-0.15 0.1,-0.1 0.15,-0.15 0.1,-0.15 0.1,-0.1 0.15,-0.15 0.15,-0.15 0.1,-0.1 0.1,-0.15 0.15,-0.15 0.1,-0.1 0.15,-0.15 0.15,-0.15 0.1,-0.1 0.15,-0.15 0.1,-0.25 0.1,-0.1 0.1,-0.15 0.15,-0.1 0.1,-0.15 0.15,-0.1 0.1,-0.15 0.15,-0.15 0.15,-0.1 0.1,-0.15 0.1,-0.1 0.1,-0.15 0.1,-0.1 0.15,-0.15 0.15,-0.15 0.1,-0.1 0.15,-0.15 0.1,-0.2 0.1,-0.1 0.15,-0.15 0.1,-0.15 0.05,-0.15 0.15,-0.15 0.1,-0.1 0.15,-0.15 0.15,-0.15 0.1,-0.1 0.15,-0.15 0.15,-0.15 0.1,-0.1 0.1,-0.15 0.15,-0.15 0.1,-0.1 0.1,-0.2 0.15,-0.1 0.1,-0.15 0.15,-0.15 0.15,-0.1 0.05,-0.2 0.1,-0.1 0.15,-0.15 0.1,-0.1 0.15,-0.15 0.1,-0.1 0.15,-0.15 0.15,-0.15 0.1,-0.15 0.15,-0.15 0.1,-0.15 0.15,-0.1 0.1,-0.15 0.15,-0.15 0.1,-0.1 0.15,-0.15 0.15,-0.15 0.1,-0.1 0.15,-0.15 0.1,-0.15 0.15,-0.1 0.1,-0.15 0.1,-0.1 0.15,-0.15 0.15,-0.15 0.1,-0.1 0.15,-0.15 0.15,-0.15 0.1,-0.1 0.15,-0.15 0.1,-0.1 0.1,-0.15 0.15,-0.1 0.15,-0.15 0.1,-0.1 0.15,-0.15 0.15,-0.15 0.1,-0.1 0.15,-0.15 0.1,-0.15 0.1,-0.1 0.15,-0.15 0.1,-0.1 0.1,-0.15 0.15,-0.15 0.05,-0.15 0.15,-0.15 0.05,-0.25 0.05,-0.15 0.1,-0.2 0.05,-0.2 0.05,-0.15 0.15,-0.15 v -0.3 L 67.3,23.9 v 0.05 l -0.2,-0.2 -0.1,-0.05 -0.25,-0.1 -0.3,-0.1 -0.3,-0.05 -0.2,0.05 -0.15,0.1 -0.25,0.05 -0.1,0.1 -0.2,0.1 -0.2,0.1 -0.1,0.1 -0.2,0.1 -0.15,0.15 -0.1,0.1 -0.15,0.15 -0.1,0.1 -0.1,0.15 -0.15,0.15 -0.1,0.1 -0.15,0.15 -0.15,0.15 -0.1,0.1 -0.15,0.15 -0.15,0.1 -0.1,0.15 -0.1,0.1 -0.15,0.15 -0.1,0.1 -0.15,0.15 -0.15,0.15 -0.1,0.1 -0.15,0.15 -0.15,0.15 -0.1,0.1 -0.1,0.15 -0.15,0.1 -0.1,0.15 -0.15,0.15 -0.1,0.1 -0.15,0.15 -0.15,0.15 -0.1,0.1 -0.15,0.15 -0.1,0.15 -0.15,0.1 -0.1,0.15 -0.15,0.15 -0.15,0.05 -0.15,0.15 -0.15,0.15 -0.1,0.1 -0.15,0.15 -0.1,0.1 -0.15,0.15 -0.15,0.05 -0.1,0.15 -0.15,0.1 -0.15,0.15 -0.1,0.15 -0.15,0.1 -0.15,0.15 -0.1,0.1 -0.15,0.15 -0.1,0.15 -0.1,0.1 -0.15,0.15 -0.15,0.15 -0.1,0.1 -0.15,0.15 -0.15,0.15 -0.1,0.1 -0.2,0.1 -0.1,0.1 -0.1,0.15 -0.15,0.15 -0.15,0.05 -0.15,0.15 -0.15,0.15 -0.1,0.1 -0.15,0.15 -0.15,0.15 -0.1,0.1 -0.15,0.1 -0.15,0.1 -0.1,0.15 -0.15,0.1 -0.15,0.15 -0.1,0.15 -0.15,0.1 -0.1,0.15 -0.15,0.1 -0.1,0.15 -0.15,0.05 -0.15,0.15 -0.15,0.15 -0.1,0.1 -0.15,0.15 -0.15,0.15 -0.1,0.1 -0.15,0.15 -0.1,0.15 -0.1,0.1 -0.15,0.15 -0.15,0.15 -0.1,0.1 -0.2,0.1 -0.15,0.15 -0.1,0.1 -0.15,0.15 -0.1,0.1 -0.1,0.15 -0.15,0.15 -0.1,0.1 -0.15,0.15 -0.15,0.15 -0.1,0.1 -0.15,0.15 -0.15,0.1 -0.1,0.15 -0.1,0.1 -0.15,0.15 -0.1,0.1 -0.15,0.15 -0.15,0.15 -0.1,0.1 -0.15,0.15 -0.1,0.1 -0.25,0.05 -0.1,0.15 -0.15,0.1 -0.1,0.15 -0.15,0.15 -0.1,0.1 -0.15,0.15 -0.15,0.15 -0.1,0.1 -0.15,0.15 -0.1,0.15 q -0.05,0 -0.15,0.1 l -0.15,0.1 -0.15,0.15 -0.1,0.1 -0.15,0.15 -0.15,0.15 -0.15,0.05 -0.15,0.15 -0.1,0.1 -0.15,0.15 -0.1,0.1 -0.15,0.1 -0.15,0.1 -0.15,0.15 -0.1,0.1 -0.2,0.1 -0.15,0.15 -0.1,0.1 -0.2,0.1 -0.1,0.15 -0.1,0.1 -0.15,0.15 -0.15,0.15 -0.1,0.1 -0.15,0.15 -0.1,0.1 -0.15,0.15 -0.15,0.15 -0.1,0.1 -0.1,0.15 -0.15,0.15 -0.1,0.1 -0.15,0.15 -0.15,0.15 -0.1,0.1 -0.15,0.15 -0.15,0.15 -0.1,0.1 -0.1,0.15 -0.15,0.1 q -0.1,0 -0.15,0.1 l -0.15,0.1 -0.15,0.15 -0.1,0.15 -0.25,0.05 -0.1,0.15 -0.15,0.1 -0.1,0.15 -0.1,0.1 -0.15,0.15 -0.15,0.15 -0.1,0.1 -0.15,0.15 -0.15,0.15 -0.1,0.05 -0.15,0.15 -0.1,0.15 -0.1,0.1 -0.15,0.15 -0.15,0.15 -0.15,0.05 -0.15,0.15 -0.1,0.1 -0.2,0.15 -0.15,0.15 -0.1,0.05 -0.05,0.05 V 48.1 47.75"
         fill="#8fb87f"
         fill-rule="evenodd"
         stroke="none"
         id="path7" />
      <path
         d="m 28.2,47.05 1.25,0.65 2.1,1.3 1.95,1.4 -0.35,1.45 -0.25,1 -0.15,1.15 -0.1,0.7 Q 31.2,54.45 30,55.2 l -0.35,0.15 -5.9,-2.1 -1.15,-0.35 5.6,-5.85 m 6.1,10.1 q 0.7,0.75 0.8,1.7 0.1,1 -0.35,1.75 l -1.4,1.25 -1.9,0.15 Q 30.6,61.7 30,61 29.45,60.3 29.35,59.4 29.3,58.55 29.7,57.75 q 0.55,-0.8 1.35,-1.25 l 1.7,-0.15 q 1,0.2 1.55,0.8 m 9.2,3.45 1.3,2.6 -4.75,4.9 -1,-1.55 Q 37.7,64.75 36.7,63 l -0.3,-0.8 -0.2,-0.35 q 0.6,-0.75 0.75,-1.7 l 0.1,-1.45 3.2,-0.85 0.6,-0.2 2.15,1.8 0.2,0.2 0.3,0.95 m -14.8,4.35 -3.4,-2.9 0.6,-0.25 1.2,-0.45 1,-0.2 0.2,0.3 q 1.05,1.55 2.85,2 l 0.05,2.35 -0.1,1.35 -2.4,-2.2"
         fill="#cad37b"
         fill-rule="evenodd"
         stroke="none"
         id="path8" />
      <path
         d="m 22.2,72 2.15,-2.6 1.1,1.1 2.05,1.95 L 26.05,74 25.3,74.75 22.85,72.5 22.2,72 m -3.25,3.25 3.5,2.5 -3.7,3.6 -0.65,-0.8 -1.6,-1.55 -0.8,-0.75 0.15,-0.15 3.1,-2.85 m -7.75,5.55 2.7,3.25 0.6,0.6 -1.3,0.4 q -1.2,0.2 -2.85,-0.5 L 10.4,84.5 10.15,84.45 9.6,84.2 8.8,83.65 8.2,82.85 7.9,82.25 7.85,82 7.8,82.05 Q 7.35,80.95 7.25,80.1 l 0.9,0.4 3.05,0.3"
         fill="#7e6346"
         fill-rule="evenodd"
         stroke="none"
         id="path9" />
      <path
         d="m 24.35,69.4 -2.15,2.6 -5.6,-4.4 -0.1,-0.05 1.45,-1.4 1.5,-1.6 1.9,1.8 1.85,1.9 1.15,1.15 m -8.65,8.85 -0.9,-0.9 -1.4,-1.85 -1.95,-1.9 -0.35,-0.35 1.95,-2.2 5.9,4.2 -3.1,2.85 -0.15,0.15 M 11.2,80.8 8.15,80.5 7.25,80.1 7.2,79.25 q 0.1,-1 0.85,-2.2 l 0.3,0.3 2.85,3.45"
         fill="#a1805d"
         fill-rule="evenodd"
         stroke="none"
         id="path10" />
    </g>
    <g
       id="sprite3"
       transform="translate(17.4,15.85)">
      <use
         ffdec:characterId="31"
         height="57.200001"
         transform="matrix(0.5366,0,0,0.5366,-16.6582,-14.546)"
         width="70.75"
         xlink:href="#sprite4"
         id="use10" />
    </g>
    <g
       id="sprite4"
       transform="translate(-8.65,-10.35)">
      <use
         ffdec:characterId="30"
         height="57.200001"
         transform="translate(8.65,10.35)"
         width="70.75"
         xlink:href="#shape2"
         id="use11" />
    </g>
    <g
       id="shape2"
       transform="translate(-8.65,-10.35)">
      <path
         d="m 14.8,41.7 q 0.65,-1.75 2.65,-2.5 1.8,-0.8 3.7,-0.25 1.15,0.45 2.25,1.2 l 0.9,0.4 q 1.65,0.9 2.85,2.5 L 37.8,30.1 q 2.35,-2.8 3.75,-3.95 1.5,-1.15 4.25,-2.4 18.2,-8.85 27.65,-12.6 2.15,-0.8 3.25,-0.8 h 0.8 l 1.9,2.4 -0.2,0.8 q -0.2,1.1 -1.55,3 -5.85,8.25 -18.85,23.8 -1.85,2.35 -3.35,3.5 -1.4,1.15 -4.75,2.75 l -15.15,7.15 q 1.2,1.6 1.75,3.4 l 0.2,1 0.55,2.5 q 0.1,1.95 -1.1,3.55 -1.2,1.65 -3.05,1.9 l -1.3,0.05 q -1.65,0.2 -3.45,-0.65 -1.85,-0.9 -3,-2.6 L 25,60.95 23.8,62.1 q -2.6,2.85 -4.3,3.95 -2.85,1.8 -5.5,1.45 l -1.65,-0.5 -1.2,-0.7 -0.2,-0.2 q -1,-0.85 -1.6,-1.9 L 9.25,64 9.15,63.8 8.75,62.4 q -0.2,-0.8 -0.05,-1.7 0.25,-2.65 2.7,-5.05 1.5,-1.3 4.9,-3.15 L 17.7,51.55 16.05,50 q -1.35,-1.5 -1.8,-3.6 -0.4,-1.85 0.25,-3.45 l 0.3,-1.25"
         fill="#000000"
         fill-opacity="0.372549"
         fill-rule="evenodd"
         stroke="none"
         id="path11" />
    </g>
  </defs>
</svg>
