<?xml version="1.0" encoding="UTF-8" standalone="no"?>
<svg
   ffdec:objectType="frame"
   height="69.06591"
   width="53.775002"
   version="1.1"
   id="svg5"
   xmlns:xlink="http://www.w3.org/1999/xlink"
   xmlns="http://www.w3.org/2000/svg"
   xmlns:svg="http://www.w3.org/2000/svg"
   xmlns:ffdec="https://www.free-decompiler.com/flash">
  <g
     transform="translate(30.875,26.3375)"
     id="g1">
    <use
       ffdec:characterId="17"
       height="119.15"
       id="rarity"
       transform="translate(-58.5,-60.65)"
       width="119.15"
       xlink:href="#sprite0" />
    <use
       ffdec:characterId="381"
       height="69.099998"
       transform="translate(-30.85,-26.35)"
       width="53.75"
       xlink:href="#shape0"
       id="use1" />
  </g>
  <defs
     id="defs5">
    <g
       id="shape0"
       transform="translate(30.55,28.85)">
      <path
         d="m 13.4,-28.55 q 5.55,-1.15 9.15,2.3 0.6,0.55 0.6,1.45 L 23.2,2 q -0.05,10.85 -3.6,20.7 l -0.9,0.75 Q 11.9,25.1 5.25,24.6 4.75,24.6 4.5,24.05 3,21.25 3,18.1 1.9,21.55 1.45,25.85 1.4,26.75 0.4,26.95 l -10.2,1.9 v 0.05 q 0.8,3.3 0.2,5.8 -0.7,3.25 -3.15,4.7 -2.25,1.35 -4.7,0.5 -2.45,-0.8 -3.4,-3.25 -0.55,-1.4 -0.45,-3.65 l 0.4,-3.8 0.45,-2.9 -0.05,-2.2 q -0.6,-6.6 -2,-12.8 l -0.15,-0.75 Q -25.55,3.2 -28,-4.3 l -1.4,-4.8 q -0.9,-3.3 -1.15,-6.75 -0.35,-4.15 4.2,-5.25 6.05,-1.5 12.05,-3.35 5.85,-1.8 11.45,0.1 1.05,0.35 1.55,1.4 l 1.05,1.5 0.1,-0.15 0.55,-1.3 1.2,-2.15 q 0.35,-2.25 2.8,-2.65 l 9,-0.85 m 4.35,16.15 -0.05,-1.75 -0.1,-6.7 v -1.7 l -1.3,-0.3 -0.75,-0.1 q -1.9,-0.2 -4,0 l -2.8,0.25 -1.15,0.1 -2.05,0.2 q -1.4,5.15 -6.3,6 -1.4,0.25 -2.4,-0.5 l -0.9,-1 -1.1,-2.15 q -6.75,0.35 -13.55,2.55 l -3.35,1.15 -1.3,0.5 -1.2,0.5 -0.05,0.05 -0.5,0.3 0.35,0.95 0.65,2 1.3,4.45 0.2,0.85 0.15,0.55 0.1,0.55 0.15,0.65 1.1,3.65 0.2,0.5 0.3,0.85 0.2,0.45 q 0.95,2.3 1.75,4.75 l 0.15,0.45 0.45,1.65 0.35,0.65 1.5,3.2 0.75,2.2 0.3,1.25 1.35,4.45 1.05,2.25 0.95,2.1 1.05,-0.05 h 0.25 0.2 l 0.4,-0.05 0.1,-0.05 1.1,-0.15 1.55,-0.35 4.25,-0.95 q -0.3,-5 3.3,-8.35 3.65,-3.35 6.55,0.65 1.3,1.8 1.2,4 l 0.25,0.4 0.1,0.25 0.15,0.4 1.5,0.05 4.7,-1 0.9,-0.2 1.1,-6.95 0.55,-6.95 0.25,-7.4 0.1,-5.05 v -4.05 m -15.9,-1.05 q 3.45,0.75 3.85,4.3 l -0.05,1.9 -0.35,1.9 q 2.8,0.3 2.35,3.45 -0.2,1.1 -1.2,1.7 L 5.35,0.45 Q 5.65,2.75 5.6,5.1 L 5.4,7.75 Q 5.35,8.35 4.75,8.65 L 3,9.3 Q -0.5,10.1 -1.2,5.6 L -1.6,2.1 Q -2.8,2 -3.95,1.5 L -4.65,1.15 Q -6.2,0.05 -5,-1.9 q 0.75,-1.2 2,-1.75 v -0.3 l -0.2,-3.2 -0.1,-1.7 q 0.15,-3.5 3.45,-4.8 l 0.5,0.05 0.3,-0.05 0.2,0.1 0.7,0.1 m -15.8,42.95 q -0.85,0.1 -1.6,-0.45 l -0.25,-0.2 -0.15,1.65 -0.05,2.95 q 0.1,0.65 0.4,0.9 l 0.9,0.1 0.75,-0.65 q 0.55,-1.1 0.2,-2.85 l -0.2,-1.45"
         fill="#000000"
         fill-rule="evenodd"
         stroke="none"
         id="path1" />
      <path
         d="m 15.55,-22.95 0.75,0.1 1.3,0.3 v 1.7 l 0.1,6.7 0.05,1.75 -0.2,-0.2 q -1.05,-1 -2.55,-0.7 l 0.15,-4.8 v -0.1 L 5.7,-9.15 q -0.4,-3.55 -3.85,-4.3 6.35,-5.65 13.7,-9.5 m 2.2,14.6 -0.1,5.05 -0.5,-0.1 -2.65,0.3 0.15,-2.6 0.1,-1.85 h 0.05 l 1.9,-0.15 1.05,-0.65 m -0.9,19.4 -1.1,6.95 -0.9,0.2 -0.45,-7.3 1.65,0.2 0.8,-0.05 M -8.7,23.1 l -1.1,0.15 -0.1,0.05 -0.4,0.05 h -0.2 l 0.45,-0.05 0.85,-1.05 0.25,-0.45 0.25,1.3 M -18.65,5.2 Q -19.45,2.75 -20.4,0.45 L -20.6,0 q 1.4,-0.35 2.55,-1.4 l 0.05,-0.05 0.3,-0.25 1.05,0.5 v 0.05 q 0.65,1 1.05,2.15 0.2,0.5 0.15,1.05 l 0.15,0.4 12,-11.3 0.1,1.7 0.2,3.2 v 0.3 q -1.25,0.55 -2,1.75 -1.2,1.95 0.35,3.05 l -0.4,0.4 -1.75,1.7 -3.05,2.8 -0.9,-0.7 q -0.6,-0.35 -1.9,-0.75 -2.7,-0.7 -4.9,0.1 l -1.1,0.5 m -5.45,-17.25 -0.65,-2 -0.35,-0.95 0.5,-0.3 0.05,-0.05 1.2,-0.5 1.3,-0.5 q 0,1 0.4,1.9 l 0.15,0.5 -1.65,0.45 -1.15,0.7 0.2,0.75 m 20.95,-4.85 q 1,0.75 2.4,0.5 4.9,-0.85 6.3,-6 l 2.05,-0.2 1.15,-0.1 v 0.05 0.2 l -0.1,0.2 -0.05,0.2 -0.75,0.65 -0.4,0.25 -5.6,4.3 -1.25,0.85 -0.15,0.2 -0.15,0.2 -4.85,3.2 -0.4,-0.6 q -0.55,-0.8 -1.4,-1.05 l 3.2,-2.85 m -6.8,8.5 -1.65,1.5 -0.45,-0.85 -0.5,-0.65 0.55,-0.45 1.15,-1.1 q 0.2,0.9 0.9,1.55"
         fill="#ffffff"
         fill-rule="evenodd"
         stroke="none"
         id="path2" />
      <path
         d="m 15.55,-22.95 q -7.35,3.85 -13.7,9.5 l -0.7,-0.1 -0.2,-0.1 -0.3,0.05 -0.5,-0.05 q -3.3,1.3 -3.45,4.8 l -12,11.3 -0.15,-0.4 Q -15.4,1.5 -15.6,1 -16,-0.15 -16.65,-1.15 V -1.2 h 0.05 q 1.1,0.35 2.25,0 1.15,-0.35 1.85,-1.25 l 0.5,-0.75 0.35,-0.7 q 0.6,-1.6 0.05,-3 l 1.65,-1.5 q 0.7,0.65 1.65,0.85 l 1.8,-0.1 q 1.25,-0.45 1.85,-1.55 0.45,-0.75 0.45,-1.7 0,-0.8 -0.35,-1.5 l 4.85,-3.2 0.15,-0.2 0.15,-0.2 1.25,-0.85 5.6,-4.3 0.4,-0.25 0.75,-0.65 0.05,-0.2 0.1,-0.2 v -0.2 -0.05 l 2.8,-0.25 q 2.1,-0.2 4,0 m -9.85,13.8 9.45,-9.05 v 0.1 L 15,-13.3 h -0.1 q -0.95,0.25 -1.65,1.05 -0.65,0.8 -0.7,1.8 0,1 0.65,1.85 0.65,0.85 1.55,1.05 l -0.1,1.85 -0.15,2.6 -1.1,0.45 q -1.85,0.95 -2.6,2.8 -0.45,1 -0.55,2.95 L 10.2,4.8 10.4,6.3 10.85,8 q 0.6,1.5 2.1,2.35 l 1.45,0.55 0.45,7.3 -4.7,1 L 8.65,19.15 8.5,18.75 8.4,18.5 8.15,18.1 q 0.1,-2.2 -1.2,-4 -2.9,-4 -6.55,-0.65 -3.6,3.35 -3.3,8.35 l -4.25,0.95 -1.55,0.35 -0.25,-1.3 q 0.75,-1.6 0.2,-3.35 l -0.45,-1 0.6,-0.7 q 0.75,-0.95 1.1,-2.1 l 1.05,0.15 q 1,0 1.8,-0.65 0.75,-0.6 1,-1.6 Q -3.45,11.5 -3.9,10.6 -4.3,9.75 -5.25,9.25 -6.15,8.75 -7.1,8.95 l -0.8,0.3 Q -8.65,7.2 -9.85,6.05 l 3.05,-2.8 1.75,-1.7 0.4,-0.4 0.7,0.35 Q -2.8,2 -1.6,2.1 l 0.4,3.5 q 0.7,4.5 4.2,3.7 0.15,1 0.8,1.75 0.85,0.95 2.15,1.15 1.3,0.25 2.4,-0.35 Q 9.45,11.25 10,10 10.5,8.75 10.15,7.55 9.65,5.95 8.1,5.2 L 5.65,5.05 5.6,5.1 Q 5.65,2.75 5.35,0.45 l 1.1,-0.65 q 1,-0.6 1.2,-1.7 Q 8.1,-5.05 5.3,-5.35 l 0.35,-1.9 0.05,-1.9 m -27.75,-7.2 3.35,-1.15 q 6.8,-2.2 13.55,-2.55 l 1.1,2.15 0.9,1 -3.2,2.85 -0.4,-0.15 -2.2,0.2 q -1.1,0.45 -1.65,1.45 -0.55,0.95 -0.35,2.15 l 0.1,0.45 -1.15,1.1 -0.55,0.45 q -0.85,-0.9 -2.05,-1.15 l -0.6,-1.6 q -0.8,-1.4 -2.4,-2.2 -1.5,-0.75 -3.2,-0.65 l -0.7,0.05 -0.15,-0.5 q -0.4,-0.9 -0.4,-1.9"
         fill="#b9b9b9"
         fill-rule="evenodd"
         stroke="none"
         id="path3" />
      <path
         d="m 15,-13.3 q 1.5,-0.3 2.55,0.7 l 0.2,0.2 v 4.05 l -1.05,0.65 -1.9,0.15 h -0.05 q -0.9,-0.2 -1.55,-1.05 -0.65,-0.85 -0.65,-1.85 0.05,-1 0.7,-1.8 0.7,-0.8 1.65,-1.05 H 15 m 2.65,10 -0.25,7.4 -0.55,6.95 -0.8,0.05 -1.65,-0.2 -1.45,-0.55 Q 11.45,9.5 10.85,8 L 10.4,6.3 10.2,4.8 10.25,3.1 q 0.1,-1.95 0.55,-2.95 0.75,-1.85 2.6,-2.8 l 1.1,-0.45 2.65,-0.3 0.5,0.1 M -10.5,23.35 h -0.25 l -1.05,0.05 -0.95,-2.1 -1.05,-2.25 -1.35,-4.45 -0.3,-1.25 -0.75,-2.2 -1.5,-3.2 -0.35,-0.65 -0.45,-1.65 -0.15,-0.45 1.1,-0.5 q 2.2,-0.8 4.9,-0.1 1.3,0.4 1.9,0.75 l 0.9,0.7 q 1.2,1.15 1.95,3.2 l 0.8,-0.3 q 0.95,-0.2 1.85,0.3 0.95,0.5 1.35,1.35 0.45,0.9 0.25,1.95 -0.25,1 -1,1.6 -0.8,0.65 -1.8,0.65 L -7.5,14.65 q -0.35,1.15 -1.1,2.1 l -0.6,0.7 0.45,1 q 0.55,1.75 -0.2,3.35 l -0.25,0.45 -0.85,1.05 -0.45,0.05 M -20.6,0 l -0.3,-0.85 -0.2,-0.5 -1.1,-3.65 -0.15,-0.65 -0.1,-0.55 -0.15,-0.55 -0.2,-0.85 -1.3,-4.45 -0.2,-0.75 1.15,-0.7 1.65,-0.45 0.7,-0.05 q 1.7,-0.1 3.2,0.65 1.6,0.8 2.4,2.2 l 0.6,1.6 q 1.2,0.25 2.05,1.15 l 0.5,0.65 0.45,0.85 q 0.55,1.4 -0.05,3 l -0.35,0.7 -0.5,0.75 q -0.7,0.9 -1.85,1.25 -1.15,0.35 -2.25,0 h -0.05 l -1.05,-0.5 -0.3,0.25 -0.05,0.05 Q -19.2,-0.35 -20.6,0 m 16.05,-12.4 q 0.35,0.7 0.35,1.5 0,0.95 -0.45,1.7 -0.6,1.1 -1.85,1.55 l -1.8,0.1 q -0.95,-0.2 -1.65,-0.85 -0.7,-0.65 -0.9,-1.55 l -0.1,-0.45 q -0.2,-1.2 0.35,-2.15 0.55,-1 1.65,-1.45 l 2.2,-0.2 0.4,0.15 q 0.85,0.25 1.4,1.05 l 0.4,0.6 M 5.6,5.1 5.65,5.05 8.1,5.2 Q 9.65,5.95 10.15,7.55 10.5,8.75 10,10 9.45,11.25 8.35,11.85 7.25,12.45 5.95,12.2 4.65,12 3.8,11.05 3.15,10.3 3,9.3 L 4.75,8.65 Q 5.35,8.35 5.4,7.75 L 5.6,5.1 m -19.55,24.4 0.2,1.45 q 0.35,1.75 -0.2,2.85 l -0.75,0.65 -0.9,-0.1 q -0.3,-0.25 -0.4,-0.9 l 0.05,-2.95 0.15,-1.65 0.25,0.2 q 0.75,0.55 1.6,0.45"
         fill="#682828"
         fill-rule="evenodd"
         stroke="none"
         id="path4" />
    </g>
    <g
       id="sprite1"
       transform="translate(17.4,15.85)">
      <use
         ffdec:characterId="31"
         height="57.200001"
         transform="matrix(0.5366,0,0,0.5366,-16.6582,-14.546)"
         width="70.75"
         xlink:href="#sprite2"
         id="use4" />
    </g>
    <g
       id="sprite2"
       transform="translate(-8.65,-10.35)">
      <use
         ffdec:characterId="30"
         height="57.200001"
         transform="translate(8.65,10.35)"
         width="70.75"
         xlink:href="#shape1"
         id="use5" />
    </g>
    <g
       id="shape1"
       transform="translate(-8.65,-10.35)">
      <path
         d="m 14.8,41.7 q 0.65,-1.75 2.65,-2.5 1.8,-0.8 3.7,-0.25 1.15,0.45 2.25,1.2 l 0.9,0.4 q 1.65,0.9 2.85,2.5 L 37.8,30.1 q 2.35,-2.8 3.75,-3.95 1.5,-1.15 4.25,-2.4 18.2,-8.85 27.65,-12.6 2.15,-0.8 3.25,-0.8 h 0.8 l 1.9,2.4 -0.2,0.8 q -0.2,1.1 -1.55,3 -5.85,8.25 -18.85,23.8 -1.85,2.35 -3.35,3.5 -1.4,1.15 -4.75,2.75 l -15.15,7.15 q 1.2,1.6 1.75,3.4 l 0.2,1 0.55,2.5 q 0.1,1.95 -1.1,3.55 -1.2,1.65 -3.05,1.9 l -1.3,0.05 q -1.65,0.2 -3.45,-0.65 -1.85,-0.9 -3,-2.6 L 25,60.95 23.8,62.1 q -2.6,2.85 -4.3,3.95 -2.85,1.8 -5.5,1.45 l -1.65,-0.5 -1.2,-0.7 -0.2,-0.2 q -1,-0.85 -1.6,-1.9 L 9.25,64 9.15,63.8 8.75,62.4 q -0.2,-0.8 -0.05,-1.7 0.25,-2.65 2.7,-5.05 1.5,-1.3 4.9,-3.15 L 17.7,51.55 16.05,50 q -1.35,-1.5 -1.8,-3.6 -0.4,-1.85 0.25,-3.45 l 0.3,-1.25"
         fill="#000000"
         fill-opacity="0.372549"
         fill-rule="evenodd"
         stroke="none"
         id="path5" />
    </g>
  </defs>
</svg>
