<?xml version="1.0" encoding="UTF-8" standalone="no"?>
<svg
   ffdec:objectType="frame"
   height="80.034615"
   width="87.811111"
   version="1.1"
   id="svg6"
   xmlns:xlink="http://www.w3.org/1999/xlink"
   xmlns="http://www.w3.org/2000/svg"
   xmlns:svg="http://www.w3.org/2000/svg"
   xmlns:ffdec="https://www.free-decompiler.com/flash">
  <g
     transform="translate(45.45,39.35)"
     id="g1">
    <use
       ffdec:characterId="17"
       height="119.15"
       id="rarity"
       transform="translate(-58.5,-60.65)"
       width="119.15"
       xlink:href="#sprite0" />
    <use
       ffdec:characterId="1277"
       height="80.300003"
       transform="translate(-45.45,-39.6)"
       width="87.800003"
       xlink:href="#shape0"
       id="use1" />
  </g>
  <defs
     id="defs6">
    <g
       id="shape0"
       transform="translate(44.15,37.7)">
      <path
         d="m -37.4,-11.35 q 0.2,-2.35 0.7,-3.85 0.7,-1.4 2.55,-3.5 4.7,-4.45 14.2,-9.6 l 4.4,-2.3 4.55,-1.95 q 3.4,-1.35 4.9,-2.05 l 2.7,-1.2 3.05,-0.9 q 3,-0.25 7.7,1.35 5.2,1.9 13.5,5.9 l 4.35,2.35 q 3.05,1.75 5.6,4.7 l 4,5.45 q 1.1,1.75 1.45,3 l -0.3,3.65 q -0.85,6.05 -1.35,12.15 -0.2,3.2 -0.75,5.25 0.95,0.2 2.35,1.5 1.85,1.85 2.45,3.35 0.8,2.2 -0.25,3.95 l -2,1.5 0.25,0.65 q 0.95,2 3.1,4.8 l 3.2,4.75 q 0.8,1.7 0.7,2.75 -0.2,1.5 -2.4,2.8 l -2.45,1 -3,0.2 -0.45,0.15 -2.95,0.25 -6.2,-0.65 Q 22.75,33.5 20.45,32.25 16.7,30.3 14.7,26.55 13.95,25.05 13.85,24.1 v -0.8 l -1.8,0.45 -5.1,1 -5.15,0.4 Q -3.05,25.05 -9.85,22.3 l -0.1,1.35 -0.65,4.2 q -0.45,2.2 -1.6,5.05 -2.6,6.65 -7.05,8.75 -3.15,1.35 -7.05,0.75 -2.75,-0.55 -6.7,-2.45 -5.75,-2.6 -9.2,-5.95 -1.6,-1.8 -1.95,-3.1 0,-1.05 0.4,-2.15 l 1,-2.05 q 3.7,-6.4 5.8,-13.35 -0.6,-0.8 -0.65,-2.5 -0.85,-11.5 0.2,-22.2 m 67.85,-3.35 -3.35,-4.5 q -2.35,-2.55 -4.85,-4.3 l -5.95,-3.05 -9.1,-3.8 q 4.55,4.15 7.95,9.2 l 1.1,2.5 -0.35,2.65 -0.4,1.8 q -1.25,5.25 -2.2,11.1 l -0.25,0.95 q -0.55,0.65 -1.05,0.3 -0.45,-0.1 -0.45,-0.85 -0.15,-2.95 0.2,-6.5 0,-1.3 0.95,-5.5 l 0.1,-0.5 v -0.1 q 0.35,-1.9 0.2,-2.95 -0.15,-0.95 -1.4,-2.4 -3.9,-4.8 -9.15,-9.15 L -0.2,-31.9 -0.25,-32 q -0.35,0.25 -0.75,0.35 l -1.7,0.85 q -1.7,0.95 -4.7,2.05 l -4.55,1.95 -8.05,4.2 -5.4,3.3 q -1.55,1.3 -4.65,3.85 l -2,2.05 -0.2,0.3 -0.5,2.55 q -0.8,10.15 -0.15,20.85 l 0.95,0.75 q 1.9,1.3 4.45,2.1 2.8,0.6 3.35,0.95 0.6,0.15 1.05,0.45 l 1.1,0.25 1.1,0.15 q 0.55,0 0.8,0.3 0.25,0.25 0.15,0.7 0,0.45 -0.4,0.55 l -0.7,0.05 -1.3,0.25 -2.95,-0.15 -0.7,-0.1 -1.85,-0.3 -2.3,-0.5 -0.15,-0.05 h -0.05 L -33,14.55 q 0.05,0.8 -0.2,1.6 -0.2,1.65 -1.6,4.75 l -3.8,8.9 q 2.95,2.5 6.35,4.25 2.85,1.5 6.05,2.5 l 3.85,0.35 q 2.9,-0.6 5.05,-4.8 2.4,-4.65 2.9,-9.95 l 0.4,-1.95 0.1,-0.1 q -1,-0.9 -1.4,-1.8 -0.3,-1.05 0.25,-1.45 l 1.65,0.15 3.9,1.4 1.45,0.4 q 5.8,1.6 10.35,1.3 L 9.2,18.85 Q 24.7,15.5 33.05,12.9 L 32.3,12.3 Q 31.35,11.45 31,10.6 L 30.75,10.5 28.95,9.95 Q 27.25,9.25 24.45,9.45 20.1,9.2 18.1,9.5 L 9.55,10.55 4.25,11.7 0.9,12.65 -5.45,13.95 -6.3,13.8 q -0.45,-0.4 0.25,-1.15 l 0.6,-0.45 q 0.9,-0.7 2.3,-1.15 2.15,-0.75 3.25,-1 L 5.9,8.2 Q 15.6,4.9 26.1,5.55 l 4.3,0.5 0.2,0.1 -0.1,-2.4 Q 30.35,-2.9 31.55,-9.6 l 0.2,-2.65 q -0.1,-0.8 -1.1,-2.1 l -0.2,-0.35 m -10.95,36.85 -1.3,0.3 0.05,0.1 0.55,1.45 q 0.75,2 3.05,3.6 1.7,1.05 4.55,1.95 l 3.05,0.6 -3.1,-3.55 -1.3,-1.8 -0.75,-1.9 q -0.45,-1 -0.5,-1.8 l -4.3,1.05 m 9.2,-0.6 q 0.55,1.4 2.8,3.8 l 1.3,1.4 q 1.75,1.9 3,2.65 l 0.95,0.35 1.75,-0.4 -4.25,-6.6 q -0.75,-1.3 -1.35,-4.1 l -4.65,1.3 0.45,1.6 m -44.75,-2.4 -0.3,1.4 q -0.15,1.05 -1,3.15 l -1.25,3.6 q -1.15,3 -3.15,5.55 -0.45,0.45 -0.7,0.4 -0.5,-0.15 -0.5,-0.6 l 0.2,-0.8 q 1.8,-3.8 2.9,-8.4 0.75,-2.9 0.75,-4.5 l 0.3,-1.5 q 0.35,-0.75 1.2,-0.8 1,-0.15 1.35,0.75 0.55,0.5 0.2,1.75"
         fill="#000000"
         fill-rule="evenodd"
         stroke="none"
         id="path1" />
      <path
         d="m 15.5,-14.2 0.4,-1.8 0.35,-2.65 -1.1,-2.5 q -3.4,-5.05 -7.95,-9.2 l 9.1,3.8 5.95,3.05 q 2.5,1.75 4.85,4.3 l 3.35,4.5 q -0.6,0.7 -1.6,1.1 l -3.35,0.4 -4.55,-0.45 -4.5,-0.45 -0.95,-0.1 m -20.95,26.4 -0.6,0.45 q -0.7,0.75 -0.25,1.15 l 0.85,0.15 6.35,-1.3 3.35,-0.95 5.3,-1.15 8.55,-1.05 q 2,-0.3 6.35,-0.05 2.8,-0.2 4.5,0.5 l 1.8,0.55 0.25,0.1 q 0.35,0.85 1.3,1.7 l -3.1,0.9 -2.95,0.9 -2.95,0.95 q -2.75,0.85 -7.55,1.5 l -20.9,2.25 h -2.9 l -1.45,-0.4 -1.05,-0.95 q -0.6,-0.85 -0.5,-1.75 0.25,-1.8 3.2,-2.85 l 2.4,-0.65 m -26.8,21.85 q -3.4,-1.75 -6.35,-4.25 l 3.8,-8.9 q 1.4,-3.1 1.6,-4.75 0.25,-0.8 0.2,-1.6 l 2.65,1.15 h 0.05 v 0.05 h 0.15 l 2.3,0.5 1.85,0.3 0.7,0.1 q 1.25,0.9 1.7,2.95 0.3,1.35 -0.1,3.6 -0.5,2.75 -1.85,5.45 -1.3,2.45 -2.8,3.75 -1.85,1.55 -3.9,1.65 m 0.2,-47.45 2,-2.05 q 3.1,-2.55 4.65,-3.85 l 5.4,-3.3 8.05,-4.2 4.55,-1.95 q 3,-1.1 4.7,-2.05 l 1.7,-0.85 q 0.4,-0.1 0.75,-0.35 l 0.05,0.1 2.65,2.1 q 5.25,4.35 9.15,9.15 1.25,1.45 1.4,2.4 0.15,1.05 -0.2,2.95 v 0.1 l -0.1,0.5 -0.55,-0.25 -4.9,1.3 -5.85,1 -14.45,0.8 q -10.7,0.2 -16,-0.4 -2.15,-0.25 -3,-1.15 m 60.75,34.95 -0.45,-1.6 4.65,-1.3 q 0.6,2.8 1.35,4.1 l 4.25,6.6 -1.75,0.4 -0.95,-0.35 q -1.25,-0.75 -3,-2.65 l -1.3,-1.4 q -2.25,-2.4 -2.8,-3.8"
         fill="#ffefa1"
         fill-rule="evenodd"
         stroke="none"
         id="path2" />
      <path
         d="m 15.5,-14.2 0.95,0.1 4.5,0.45 4.55,0.45 3.35,-0.4 q 1,-0.4 1.6,-1.1 l 0.2,0.35 q 1,1.3 1.1,2.1 l -0.2,2.65 q -1.2,6.7 -1.05,13.35 l 0.1,2.4 -0.2,-0.1 -4.3,-0.5 Q 15.6,4.9 5.9,8.2 l -5.8,1.85 q -1.1,0.25 -3.25,1 -1.4,0.45 -2.3,1.15 l -2.4,0.65 q -2.95,1.05 -3.2,2.85 -0.1,0.9 0.5,1.75 l 1.05,0.95 -3.9,-1.4 -1.65,-0.15 q -0.55,0.4 -0.25,1.45 0.4,0.9 1.4,1.8 l -0.1,0.1 -0.4,1.95 q -0.5,5.3 -2.9,9.95 -2.15,4.2 -5.05,4.8 l -3.85,-0.35 q -3.2,-1 -6.05,-2.5 2.05,-0.1 3.9,-1.65 1.5,-1.3 2.8,-3.75 1.35,-2.7 1.85,-5.45 0.4,-2.25 0.1,-3.6 -0.45,-2.05 -1.7,-2.95 l 2.95,0.15 1.3,-0.25 0.7,-0.05 q 0.4,-0.1 0.4,-0.55 0.1,-0.45 -0.15,-0.7 -0.25,-0.3 -0.8,-0.3 L -22,14.8 -23.1,14.55 q -0.45,-0.3 -1.05,-0.45 -0.55,-0.35 -3.35,-0.95 -2.55,-0.8 -4.45,-2.1 L -32.9,10.3 q -0.65,-10.7 0.15,-20.85 l 0.5,-2.55 0.2,-0.3 q 0.85,0.9 3,1.15 5.3,0.6 16,0.4 l 14.45,-0.8 5.85,-1 4.9,-1.3 0.55,0.25 q -0.95,4.2 -0.95,5.5 -0.35,3.55 -0.2,6.5 0,0.75 0.45,0.85 0.5,0.35 1.05,-0.3 L 13.3,-3.1 q 0.95,-5.85 2.2,-11.1 m 16.8,26.5 0.75,0.6 Q 24.7,15.5 9.2,18.85 L 2.3,20.1 q -4.55,0.3 -10.35,-1.3 h 2.9 l 20.9,-2.25 q 4.8,-0.65 7.55,-1.5 l 2.95,-0.95 2.95,-0.9 3.1,-0.9 m -46.35,-14 q 0,0.7 0.55,1.25 0.55,0.55 1.25,0.55 0.9,0.1 1.45,-0.65 0.75,-0.85 0.35,-1.85 -0.4,-1.05 -1.5,-1.2 -1.05,-0.15 -1.75,0.7 -0.4,0.6 -0.35,1.2 m -11.25,4.8 -0.3,1.55 q 0,1.1 0.65,1.8 0.55,0.65 1.6,0.8 1.85,0.35 2.95,-0.7 0.6,-0.6 0.75,-1.35 0.2,-0.85 -0.15,-1.5 l -0.35,-0.75 -0.05,-0.65 0.05,-1.1 -0.05,-1.9 0.15,-0.95 -0.1,-1.2 -0.1,-4.4 -0.2,-1.75 -0.6,-0.65 -0.8,-0.15 -0.8,0.75 -0.25,1.1 -0.55,5.15 -0.45,1.65 -0.25,1.3 -0.4,0.7 -0.75,2.25 m 9.25,16.05 q 0.35,-1.25 -0.2,-1.75 -0.35,-0.9 -1.35,-0.75 -0.85,0.05 -1.2,0.8 l -0.3,1.5 q 0,1.6 -0.75,4.5 -1.1,4.6 -2.9,8.4 l -0.2,0.8 q 0,0.45 0.5,0.6 0.25,0.05 0.7,-0.4 2,-2.55 3.15,-5.55 l 1.25,-3.6 q 0.85,-2.1 1,-3.15 l 0.3,-1.4"
         fill="#cabd80"
         fill-rule="evenodd"
         stroke="none"
         id="path3" />
      <path
         d="m 19.5,22.15 4.3,-1.05 q 0.05,0.8 0.5,1.8 l 0.75,1.9 1.3,1.8 3.1,3.55 -3.05,-0.6 Q 23.55,28.65 21.85,27.6 19.55,26 18.8,24 l -0.55,-1.45 -0.05,-0.1 1.3,-0.3"
         fill="#aca16e"
         fill-rule="evenodd"
         stroke="none"
         id="path4" />
      <path
         d="m 26.65,-31.8 -1.35,1.2 -0.5,0.2 q -0.35,0 -0.45,-0.4 v -0.9 l 0.35,-1.35 0.45,-1.35 0.4,-1 0.6,-0.65 0.95,-0.65 1.45,-0.4 0.65,-0.15 q 1.2,0 1.8,0.85 0.85,1 0.25,2.2 -0.5,1.2 -1.8,1.3 l -1,0.05 -1.2,0.35 -0.6,0.7 M 19,-35 q -0.25,-0.45 -0.2,-0.9 0,-1 0.9,-1.5 l 1.7,-0.05 q 0.95,0.4 1.05,1.55 0.1,1.05 -0.85,1.65 L 20.4,-34 q -1,-0.1 -1.4,-1 m -44.3,38.1 0.75,-2.25 0.4,-0.7 0.25,-1.3 0.45,-1.65 0.55,-5.15 0.25,-1.1 0.8,-0.75 0.8,0.15 0.6,0.65 0.2,1.75 0.1,4.4 0.1,1.2 -0.15,0.95 0.05,1.9 -0.05,1.1 0.05,0.65 0.35,0.75 q 0.35,0.65 0.15,1.5 -0.15,0.75 -0.75,1.35 -1.1,1.05 -2.95,0.7 -1.05,-0.15 -1.6,-0.8 -0.65,-0.7 -0.65,-1.8 l 0.3,-1.55 m 11.25,-4.8 q -0.05,-0.6 0.35,-1.2 0.7,-0.85 1.75,-0.7 1.1,0.15 1.5,1.2 0.4,1 -0.35,1.85 -0.55,0.75 -1.45,0.65 -0.7,0 -1.25,-0.55 -0.55,-0.55 -0.55,-1.25"
         fill="#b6d3d2"
         fill-rule="evenodd"
         stroke="none"
         id="path5" />
    </g>
    <g
       id="sprite1"
       transform="translate(17.4,15.85)">
      <use
         ffdec:characterId="31"
         height="57.200001"
         transform="matrix(0.5366,0,0,0.5366,-16.6582,-14.546)"
         width="70.75"
         xlink:href="#sprite2"
         id="use5" />
    </g>
    <g
       id="sprite2"
       transform="translate(-8.65,-10.35)">
      <use
         ffdec:characterId="30"
         height="57.200001"
         transform="translate(8.65,10.35)"
         width="70.75"
         xlink:href="#shape1"
         id="use6" />
    </g>
    <g
       id="shape1"
       transform="translate(-8.65,-10.35)">
      <path
         d="m 14.8,41.7 q 0.65,-1.75 2.65,-2.5 1.8,-0.8 3.7,-0.25 1.15,0.45 2.25,1.2 l 0.9,0.4 q 1.65,0.9 2.85,2.5 L 37.8,30.1 q 2.35,-2.8 3.75,-3.95 1.5,-1.15 4.25,-2.4 18.2,-8.85 27.65,-12.6 2.15,-0.8 3.25,-0.8 h 0.8 l 1.9,2.4 -0.2,0.8 q -0.2,1.1 -1.55,3 -5.85,8.25 -18.85,23.8 -1.85,2.35 -3.35,3.5 -1.4,1.15 -4.75,2.75 l -15.15,7.15 q 1.2,1.6 1.75,3.4 l 0.2,1 0.55,2.5 q 0.1,1.95 -1.1,3.55 -1.2,1.65 -3.05,1.9 l -1.3,0.05 q -1.65,0.2 -3.45,-0.65 -1.85,-0.9 -3,-2.6 L 25,60.95 23.8,62.1 q -2.6,2.85 -4.3,3.95 -2.85,1.8 -5.5,1.45 l -1.65,-0.5 -1.2,-0.7 -0.2,-0.2 q -1,-0.85 -1.6,-1.9 L 9.25,64 9.15,63.8 8.75,62.4 q -0.2,-0.8 -0.05,-1.7 0.25,-2.65 2.7,-5.05 1.5,-1.3 4.9,-3.15 L 17.7,51.55 16.05,50 q -1.35,-1.5 -1.8,-3.6 -0.4,-1.85 0.25,-3.45 l 0.3,-1.25"
         fill="#000000"
         fill-opacity="0.372549"
         fill-rule="evenodd"
         stroke="none"
         id="path6" />
    </g>
  </defs>
</svg>
