<?xml version="1.0" encoding="UTF-8" standalone="no"?>
<svg
   ffdec:objectType="frame"
   height="90.572731"
   width="66.338936"
   version="1.1"
   id="svg5"
   xmlns:xlink="http://www.w3.org/1999/xlink"
   xmlns="http://www.w3.org/2000/svg"
   xmlns:svg="http://www.w3.org/2000/svg"
   xmlns:ffdec="https://www.free-decompiler.com/flash">
  <g
     transform="translate(33.043939,48.572727)"
     id="g1">
    <use
       ffdec:characterId="17"
       height="119.15"
       id="rarity"
       transform="translate(-58.5,-60.65)"
       width="119.15"
       xlink:href="#sprite0" />
    <use
       ffdec:characterId="227"
       height="90.550003"
       transform="translate(-33.05,-48.55)"
       width="66.349998"
       xlink:href="#shape0"
       id="use1" />
  </g>
  <defs
     id="defs5">
    <g
       id="shape0"
       transform="translate(32.75,51.05)">
      <path
         d="m 20.3,-44.45 q 6.3,4.2 9.5,9.25 2.8,4.45 3.55,9.9 0.7,5.25 -0.6,10.5 -1.4,5.6 -5,10.45 -3.55,4.85 -8.6,8.15 l -2.85,1.7 1.05,0.4 q 1.05,0.65 1.6,1.65 0.5,1.1 0.35,2.25 -0.25,2.35 -2.5,3.6 l 3.45,6.45 1.55,3.3 q 0.65,1.65 0.4,2.85 l -0.95,2.15 -5.1,8.5 -1.35,1.4 Q 13.9,38.4 12.85,37.7 12.35,37.3 11.6,36.15 8.95,32.05 6.9,27.2 6.1,25.3 6.2,24.25 l 0.5,-2.05 1.15,-4 Q 8.55,15.85 9.5,14.45 L 10,13.35 9.6,12.45 8.9,11.65 Q 7.9,10.3 8.85,8.3 L 8.05,8.5 Q 1.95,9.9 -4.15,9.15 -7.9,8.75 -12.6,7.3 l 0.05,0.3 v 2.5 l 0.1,0.05 q 3.1,2.25 4.75,5.6 l 1.1,2.6 Q -5.9,20 -5.7,21 l 0.1,3.55 0.05,2.9 q -0.05,1.75 -0.4,2.95 -0.6,1.75 -1.9,3.15 -2.3,2.5 -6.95,4.6 -3,1.3 -4.8,1.35 -2.05,0 -3.8,-1 -1.85,-1.05 -1.85,-2.45 -0.05,-1 0.95,-2.2 l 1.5,-1.95 0.9,-2.3 q 0.65,-1.45 1.95,-1.45 l 0.9,-0.2 -0.15,-0.45 q -0.3,-0.35 -1.3,-0.85 l -1.25,-0.9 q -0.55,-0.75 -0.3,-1.8 l 0.8,-1.75 q 2.05,-3.95 3.45,-9.65 l 0.7,-1.95 1.1,-1.15 -0.45,-1.5 q -0.1,-1.15 0.5,-1.75 -6.9,-2.5 -10.15,-5.4 -5.35,-4.8 -6.45,-12.6 -0.8,-6.45 1.7,-14.1 3.35,-10.25 10.45,-16.75 3.8,-3.55 8.5,-5.7 4.9,-2.25 9.95,-2.65 5.7,-0.4 11.65,1.4 5.5,1.7 10.6,5.15 m 5.15,12.85 q -2.35,-4.1 -6.55,-7.25 -3.95,-2.95 -8.9,-4.7 l -1.5,-0.5 -0.1,1.15 -0.2,1.35 q -0.35,2.9 1,5.6 1.35,2.75 3.95,4.3 2.65,1.65 6.75,2 2,0.2 6.6,0.1 L 25.45,-31.6 M 2.05,-45.2 q -5.15,-0.25 -10.2,1.8 -4.85,1.95 -8.6,5.6 l -0.15,0.1 1.55,0.55 1.55,0.75 q 2.3,1 4.9,1.05 2.6,0.1 4.9,-0.8 2.35,-0.85 4.2,-2.6 Q 2,-40.5 2.95,-42.7 L 3.5,-44.1 4,-45 2.05,-45.2 m 20.25,19.45 -5.8,-0.2 q -2.9,-0.7 -5.3,-2.3 -2.4,-1.6 -4,-3.95 l -0.65,-0.95 -1.75,5.35 -0.5,1.1 0.65,0.25 q 1.6,0.65 2.2,1.25 l 1,1.15 q 0.45,0.8 0.55,1.75 l 0.75,-0.2 1.3,-0.25 0.35,-1.1 q 0.75,-1.3 2.95,-1.3 l 2.1,0.4 0.85,0.6 0.55,-0.15 2,-0.3 1.05,-0.1 0.75,-0.05 0.95,-1 m -19.7,-8.9 q -1.4,1.35 -2.75,2.15 -3.55,2.05 -9.3,1.8 l 1.15,1.4 2.95,2.9 0.6,0.55 2.15,-0.9 q 2.25,-0.75 3.75,-0.75 l 0.3,-1.3 1,-3.15 1.1,-3.6 -0.95,0.9 m 13.2,18.3 q 1.45,-3.5 3.75,-6.35 l -1.75,0.4 q 0.1,1.15 -0.55,2.25 -0.5,0.85 -1.3,1.25 l -1.75,0.15 -2.1,-0.45 q -1.1,-0.45 -1.4,-1.35 l -1.95,0.6 -0.4,0.2 -0.8,1.75 -0.25,0.5 0.3,0.45 0.75,0.6 0.75,1 2.9,4.25 0.6,0.9 0.4,1 0.8,1.45 0.05,0.05 q 0.2,-4.45 1.95,-8.65 m -17.15,0.25 1.6,0.15 1.55,-0.6 q 1.65,-0.85 2.35,-1.75 l 0.9,-1.9 0.1,-0.2 0.05,-0.3 0.05,-0.9 q -0.1,-0.6 -1,-1.15 -1.8,-1.1 -4.05,-0.8 -2.25,0.3 -3.7,1.8 -1.5,1.75 -1,3.35 0.2,0.85 1,1.4 0.65,0.55 2.15,0.9 m -7.3,8.4 q 4.4,-2.05 8.95,-2.3 5,-0.25 8.95,1.7 l 1.4,0.8 -2.4,-3.5 Q 6.4,-13.65 5.2,-14.6 l -0.25,-0.2 -0.5,0.3 q -0.8,0.45 -2.15,0.95 l -1.8,0.45 -1.65,0.1 -1,0.05 -1.05,0.05 -0.95,-0.15 -0.05,0.1 q -0.1,0.4 -1.05,1.3 -1.45,1.3 -3.4,3.95 M -7.6,3 Q -2.4,4.35 3,3.85 8.45,3.35 13.25,1.05 L 14.7,0.35 13.85,-0.25 10.7,-2.7 Q 8.85,-4 7.3,-4.7 4.85,-5.8 2.05,-5.95 L -3.3,-5.3 q -5.1,1.35 -9,5.5 l -0.9,0.9 q 2.95,1.25 5.6,1.9 m 29,-7.75 q 3.55,-3.7 5.3,-8.2 1.8,-4.55 1.5,-9.45 l -0.35,-2.8 q -1.85,0.8 -4,3.15 -3.5,4 -4.95,9.05 -1.5,5.15 -0.65,10.2 l 0.1,0.75 3.05,-2.7 M 14.85,8.85 13.3,8.8 12.95,8.85 12.6,9.35 h 2.9 Q 15.65,9.1 15.35,8.95 l -0.5,-0.1 M 10.4,22.7 11.15,22.2 q 2.15,-1.3 3.3,-1.05 0.7,0.2 1.35,0.9 l 1.1,1.3 1.55,1.3 -0.05,-0.35 -1,-2.1 -4,-7.2 -0.35,-0.85 -1.05,2.5 -0.6,1.45 -0.55,2.15 -0.4,1.25 -0.1,1.1 v 0.05 0.1 L 10.4,22.7 m 5.8,1.95 -2,-1.85 -0.2,0.1 q -1.65,0.7 -3,1.85 l -0.45,0.35 1,2.45 0.05,0.1 0.65,1.4 1.5,2.9 0.6,0.4 3.7,-6.15 -1.85,-1.55 m -42,-45 -0.45,3.55 1.6,-0.25 q 2.45,-0.5 4.35,-2.25 1.9,-1.65 2.7,-3.95 0.8,-2.2 0.45,-4.7 -0.35,-2.35 -1.65,-4.4 l -1.1,-1.9 q -4.4,5.85 -5.9,13.9 m 13.35,-6.25 q 0.1,3.05 -0.8,5.35 -0.8,2.05 -2.5,4 l -2.15,2 2.35,-0.5 q 4,-0.85 6.05,-1.6 l 0.95,-0.3 -0.3,-1.85 0.4,-1.85 1.15,-2.2 0.1,-0.1 -2.2,-1.45 -3.05,-2.5 v 1 m -9.4,22.95 q 1.3,1.1 3.6,2.35 -0.95,-3.25 -3.2,-6.05 -1.95,-2.45 -4.55,-4.05 0.9,4.7 4.15,7.75 m 7.6,-0.5 0.55,-0.4 q 2.45,-4.75 6.1,-9 l 0.9,-0.8 -0.45,-0.5 -1.7,0.55 -10.05,1.9 -0.75,0.05 q 3.05,3.95 5.4,8.2 m 1.1,19.3 -0.35,-0.2 -0.3,0.2 -0.15,0.3 q -1.15,4.4 -3.5,8.25 l -0.15,0.4 0.35,0.4 1.7,1.4 q 1,1.05 1.25,1.7 0.35,1.2 -0.4,1.95 l -1.4,0.55 -1.4,0.4 q -0.7,0.15 -0.95,0.4 L -19,32.4 q -0.4,1.7 -1.7,2.8 l 1.5,0.25 2.15,-0.15 1.8,-0.35 q 0.5,-0.15 1.4,-0.7 1.85,-1.2 3.25,-3 1.05,-1.5 1.2,-2.6 l 0.1,-1.25 v -3.6 q 0,-1.4 -0.15,-1.9 l -0.5,-1.15 -1,-2 q -1.2,-2.3 -2.15,-3.5 l -0.05,-0.1"
         fill="#000000"
         fill-rule="evenodd"
         stroke="none"
         id="path1" />
      <path
         d="m -13.8,15.15 h 0.65 l 0.05,0.1 q 0.95,1.2 2.15,3.5 l 1,2 0.5,1.15 q 0.15,0.5 0.15,1.9 v 3.6 l -0.1,1.25 q -0.15,1.1 -1.2,2.6 -1.4,1.8 -3.25,3 -0.9,0.55 -1.4,0.7 l -1.8,0.35 -2.15,0.15 -1.5,-0.25 q 1.3,-1.1 1.7,-2.8 l 0.55,-1.5 q 0.25,-0.25 0.95,-0.4 l 1.4,-0.4 1.4,-0.55 q 0.75,-0.75 0.4,-1.95 -0.25,-0.65 -1.25,-1.7 l -1.7,-1.4 -0.35,-0.4 0.15,-0.4 q 2.35,-3.85 3.5,-8.25 l 0.15,-0.3"
         fill="#dedede"
         fill-rule="evenodd"
         stroke="none"
         id="path2" />
      <path
         d="M 10.35,22.65 V 22.6 l 0.1,-1.1 0.4,-1.25 0.55,-2.15 0.6,-1.45 1.05,-2.5 0.35,0.85 4,7.2 1,2.1 0.05,0.35 -1.55,-1.3 -1.1,-1.3 q -0.65,-0.7 -1.35,-0.9 -1.15,-0.25 -3.3,1.05 l -0.75,0.5 -0.05,-0.05 m 3.65,0.25 0.2,-0.1 2,1.85 Q 15.75,24.4 15.25,23.95 L 14,22.9"
         fill="#c2a7a7"
         fill-rule="evenodd"
         stroke="none"
         id="path3" />
      <path
         d="m 14.85,8.85 0.5,0.1 q 0.3,0.15 0.15,0.4 H 12.6 L 12.95,8.85 13.3,8.8 14.85,8.85 M 14,22.9 l 1.25,1.05 q 0.5,0.45 0.95,0.7 l 1.85,1.55 -3.7,6.15 -0.6,-0.4 -1.5,-2.9 -0.65,-1.4 -0.05,-0.1 -1,-2.45 0.45,-0.35 q 1.35,-1.15 3,-1.85"
         fill="#967c7c"
         fill-rule="evenodd"
         stroke="none"
         id="path4" />
    </g>
    <g
       id="sprite1"
       transform="translate(17.4,15.85)">
      <use
         ffdec:characterId="31"
         height="57.200001"
         transform="matrix(0.5366,0,0,0.5366,-16.6582,-14.546)"
         width="70.75"
         xlink:href="#sprite2"
         id="use4" />
    </g>
    <g
       id="sprite2"
       transform="translate(-8.65,-10.35)">
      <use
         ffdec:characterId="30"
         height="57.200001"
         transform="translate(8.65,10.35)"
         width="70.75"
         xlink:href="#shape1"
         id="use5" />
    </g>
    <g
       id="shape1"
       transform="translate(-8.65,-10.35)">
      <path
         d="m 14.8,41.7 q 0.65,-1.75 2.65,-2.5 1.8,-0.8 3.7,-0.25 1.15,0.45 2.25,1.2 l 0.9,0.4 q 1.65,0.9 2.85,2.5 L 37.8,30.1 q 2.35,-2.8 3.75,-3.95 1.5,-1.15 4.25,-2.4 18.2,-8.85 27.65,-12.6 2.15,-0.8 3.25,-0.8 h 0.8 l 1.9,2.4 -0.2,0.8 q -0.2,1.1 -1.55,3 -5.85,8.25 -18.85,23.8 -1.85,2.35 -3.35,3.5 -1.4,1.15 -4.75,2.75 l -15.15,7.15 q 1.2,1.6 1.75,3.4 l 0.2,1 0.55,2.5 q 0.1,1.95 -1.1,3.55 -1.2,1.65 -3.05,1.9 l -1.3,0.05 q -1.65,0.2 -3.45,-0.65 -1.85,-0.9 -3,-2.6 L 25,60.95 23.8,62.1 q -2.6,2.85 -4.3,3.95 -2.85,1.8 -5.5,1.45 l -1.65,-0.5 -1.2,-0.7 -0.2,-0.2 q -1,-0.85 -1.6,-1.9 L 9.25,64 9.15,63.8 8.75,62.4 q -0.2,-0.8 -0.05,-1.7 0.25,-2.65 2.7,-5.05 1.5,-1.3 4.9,-3.15 L 17.7,51.55 16.05,50 q -1.35,-1.5 -1.8,-3.6 -0.4,-1.85 0.25,-3.45 l 0.3,-1.25"
         fill="#000000"
         fill-opacity="0.372549"
         fill-rule="evenodd"
         stroke="none"
         id="path5" />
    </g>
  </defs>
</svg>
