<?xml version="1.0" encoding="UTF-8" standalone="no"?>
<svg
   ffdec:objectType="frame"
   height="87.599998"
   width="59.761112"
   version="1.1"
   id="svg4"
   sodipodi:docname="ITEM Slimy Hat.svg"
   xmlns:inkscape="http://www.inkscape.org/namespaces/inkscape"
   xmlns:sodipodi="http://sodipodi.sourceforge.net/DTD/sodipodi-0.dtd"
   xmlns:xlink="http://www.w3.org/1999/xlink"
   xmlns="http://www.w3.org/2000/svg"
   xmlns:svg="http://www.w3.org/2000/svg"
   xmlns:ffdec="https://www.free-decompiler.com/flash">
  <sodipodi:namedview
     id="namedview4"
     pagecolor="#ffffff"
     bordercolor="#000000"
     borderopacity="0.25"
     inkscape:showpageshadow="2"
     inkscape:pageopacity="0.0"
     inkscape:pagecheckerboard="0"
     inkscape:deskcolor="#d1d1d1"
     fit-margin-top="5"
     fit-margin-left="5"
     fit-margin-right="5"
     fit-margin-bottom="5" />
  <g
     transform="translate(26.244444,42.15)"
     id="g1">
    <use
       ffdec:characterId="17"
       height="119.15"
       id="rarity"
       transform="translate(-58.5,-60.65)"
       width="119.15"
       xlink:href="#sprite0" />
    <use
       ffdec:characterId="1247"
       height="87.800003"
       transform="translate(-26.25,-42.25)"
       width="59.75"
       xlink:href="#shape0"
       id="use1" />
  </g>
  <defs
     id="defs4">
    <g
       id="shape0"
       transform="translate(24.95,40.35)">
      <path
         d="m -7.5,22.85 q 0.35,2.35 1.65,4.3 1.2,-0.25 1.95,-1.75 0.35,-0.75 0.65,-2.55 0.8,-5.1 0.8,-7.65 l 0.25,-1.95 -1,-1 -0.55,-1.5 -0.35,-1.5 q 0,-0.95 0.45,-1.45 l 0.7,-0.35 0.7,0.15 q 0.5,0.35 0.75,1.55 0.3,0.65 1.45,1.35 l 1.9,1.2 1.15,1 q 0.6,0.7 0.35,1.4 L 2.8,14.85 v 0.75 q -0.15,11.6 1.65,23.1 0.4,2.25 1.15,3.05 0.35,0.4 0.8,0.5 L 7.4,42 q 1.45,-0.75 2,-2.8 L 9.65,35.65 9.5,26.8 9.25,22.55 7.65,15.2 q -0.5,-2.05 0,-3.2 l 0.2,-0.35 Q 8.2,11.1 9.1,10.75 L 10.65,10.15 11.85,9.3 13.1,8 13.2,7.75 13.25,7.5 13.35,6.3 Q 13.05,2 11.3,-0.05 l -0.4,-0.7 Q 10.8,-1.3 11.4,-1.5 l 0.95,-0.1 q 1.25,0.3 2.7,2.4 l 0.7,1.05 q 0.6,0.95 1.2,3.05 l 0.2,0.8 1,-1.4 Q 18.7,3.1 18.4,1.9 L 17.5,0 q -0.65,-1.2 -0.75,-1.95 -0.2,-1.6 1.25,-3.3 l 2.55,-2.55 q 2.65,-3.05 2.5,-7.75 -0.15,-3.6 -2.05,-8.05 -1.9,-4.6 -4.45,-7.35 -3.35,-3.55 -7.4,-4.1 l -4.3,0.4 q -2.2,0.75 -3.5,2.4 -1.25,1.55 -1.95,4 l -0.45,1.35 q -0.3,0.8 -0.75,1.2 -0.7,0.65 -1.9,0.8 h -2.2 q -4.3,-0.15 -7.25,1.6 -3.2,2 -5.15,6.7 -1.1,2.55 -1.15,4.9 -0.1,2.7 1.35,4.55 l 1.25,1.35 1.25,1.3 q 0.55,0.75 0.75,1.6 l 0.15,0.2 q 0.4,0.55 0.3,1.1 l -0.7,1.05 -1.1,0.7 q -1.85,1.3 -3.1,4.8 -0.7,2.2 -0.6,3.75 0.1,0.95 0.55,1.55 0.5,0.7 1.7,1.05 3.6,1.2 7.15,0.1 l 1.8,-0.5 1.75,0.15 q 1.5,0.8 1.2,3.05 -0.1,0.7 -0.55,1.65 l -0.6,1.5 -0.1,0.1 q -0.9,2.4 -0.6,5.05 l 0.1,0.45 m -15.9,-28.2 q -1.3,-2.5 -1.5,-5.4 -0.4,-5.25 2.8,-10.75 3.75,-6.25 9.35,-8 l 7.25,-0.9 q 1.5,-4.95 5.3,-7.6 2.5,-1.8 5.8,-2.25 l 6.25,0.5 q 5.9,1.75 10.05,7.3 3.4,4.45 5.35,11.35 1,3.65 1,6.05 0.1,3.3 -1.25,6.45 -1.3,3.1 -3.7,5.4 -0.85,0.75 -0.95,1.3 -0.05,0.5 0.4,1.5 1.5,3.45 0,6.85 -1.55,3.35 -5.2,4.5 L 16,11.2 14.6,12.5 q -1.5,1.35 -2.4,1.85 l 0.9,4.4 0.6,3.15 q 0.3,2.2 0.4,6.6 l 0.05,8.35 q 0.1,2.95 -0.5,4.75 -0.9,2.45 -3.6,4.45 -1.4,1.05 -2.6,1.3 L 4.4,47 Q 2.9,46.4 1.9,45.15 0.25,43.1 -0.4,39.35 L -0.85,34.1 -1,28.6 -2.5,30.3 q -1.1,1 -2.35,1.35 -1.45,0.45 -2.65,0 -1.5,-0.5 -2.75,-2.5 -1.7,-2.7 -2.15,-5.95 -0.4,-3.3 0.55,-6.3 -3.95,0.3 -7.7,-1 -2.05,-0.7 -3.15,-1.8 -1.65,-1.65 -1.85,-5.1 -0.15,-4.6 2.45,-8.45 0.8,-1.25 1.8,-2.1 -1.9,-1.5 -3.1,-3.8 m 19.3,-5.3 -0.55,-1.9 0.05,-1.9 q 0.1,-1.8 0.5,-2.85 l 0.6,-1.75 0.65,-0.5 q 0.65,0 0.75,0.75 l -0.1,1.2 0.25,2.2 0.15,1.7 0.35,0.8 1.25,2.15 0.15,0.1 0.55,0.7 q 1,1.05 2.05,1.4 l 1.3,0.3 1.25,0.15 q 1.6,0.3 2.2,1.25 0.4,0.65 0.25,1.45 -0.15,0.8 -0.8,1.25 l -3,0.2 -2.5,-0.6 -2.1,-1.3 -0.7,1.05 -0.8,0.75 -1.45,0.9 Q -4.5,-2.7 -5.4,-2.4 L -6.55,-2 -8.3,-2.25 q -0.7,-0.3 -1,-0.95 -0.35,-0.7 0.15,-1.3 l 1.1,-0.55 2.95,-1.5 q 1.3,-0.8 1.6,-1.65 l 0.1,-0.7 0.05,-0.15 -0.75,-1.6 m 27,30.7 -0.75,-1.1 Q 21.3,17.3 21.55,14.65 L 21.8,12.9 Q 22.55,9.75 25.25,8.3 28.15,6.7 31,8.05 l 1.7,1.25 1.05,1.65 q 0.95,1.75 1.05,3.1 0.1,1.05 -0.4,3.15 L 33.85,18.75 33,19.9 q -2.3,2.4 -4.95,2.4 l -2.4,-0.4 -1.6,-0.6 -1.15,-1.25 m 2.15,-5.9 q -0.15,1.85 0.35,2.7 0.8,1.4 2.5,1.5 1.65,0 2.65,-1.35 0.65,-0.85 0.75,-2.2 0,-1.25 -0.6,-2.4 l -0.65,-0.85 q -0.55,-0.4 -1.3,-0.4 l -0.7,0.05 q -0.7,0.15 -1.9,0.85 L 25.4,12.6 q -0.25,0.3 -0.35,1.1 v 0.45"
         fill="#000000"
         fill-rule="evenodd"
         stroke="none"
         id="path1" />
      <path
         d="m -6.9,17.25 0.5,-0.1 q 0.55,0 1,0.35 0.45,0.4 0.5,0.9 l -0.05,1.15 -0.2,1.35 -0.35,1.15 q -0.35,0.55 -1,0.75 l -1,0.05 -0.1,-0.45 Q -7.9,19.75 -7,17.35 l 0.1,-0.1 m 16.05,-45 q -0.15,1.4 -1.05,2.6 l -1.05,0.9 -1.4,0.25 q -1.6,-0.1 -2.15,-1.2 -0.3,-0.6 -0.1,-1.6 l 0.45,-1.65 q 0.6,-1.35 2.1,-2 l 2,-0.15 q 0.8,0.35 1.05,1.2 l 0.15,1.65 m -4.1,7.1 Q 5.4,-19.8 4.9,-19.1 L 4,-18.5 2.9,-18.55 q -0.5,-0.2 -0.75,-0.75 -0.3,-0.5 -0.2,-1.05 0.25,-1.2 1.45,-1.3 1.25,-0.1 1.65,1 m -23.1,5.75 0.2,-1.1 0.3,-0.65 0.05,-0.65 0.55,-1.4 0.35,-0.5 0.55,-0.6 q 1.3,-1.5 2.3,-1.65 0.95,-0.2 2.05,0.45 l 1.1,0.9 q 0.4,0.7 0.5,1.7 v 1.3 q -0.15,1.1 -1.2,3.3 l -0.35,0.6 -0.4,0.45 q -1,1 -1.85,1.25 l -1.35,0.05 -1.05,-0.2 -1.05,-0.85 q -0.75,-0.85 -0.75,-1.65 l 0.05,-0.75 m 5.4,5.3 q 0.6,1.3 -0.4,2.3 -0.95,1 -2.3,0.5 -0.65,-0.2 -1,-0.85 -0.4,-0.65 -0.35,-1.35 0.1,-0.65 0.6,-1.2 0.5,-0.55 1.2,-0.65 l 1.35,0.25 q 0.65,0.35 0.9,1 m -4.2,11.75 1.3,-0.55 1.25,-0.4 q 0.95,0 1.35,0.75 0.45,0.8 -0.05,1.55 l -1.5,1.55 q -0.5,0.5 -1.2,0.5 -0.75,-0.05 -1.25,-0.55 -0.5,-0.55 -0.5,-1.5 0.1,-0.9 0.6,-1.35 m 45.6,9 0.35,0.8 q 0.2,0.8 -0.15,1.45 -0.45,0.7 -1.25,1 l -1.55,0.2 q -0.7,-0.1 -1.1,-0.45 V 13.7 q 0.1,-0.8 0.35,-1.1 l 0.75,-0.55 q 1.2,-0.7 1.9,-0.85 l 0.7,-0.05 M 4.95,20.6 q 0.45,0.05 0.7,0.6 l 0.3,0.9 0.25,2.7 Q 6.1,26.3 5.4,27.3 L 5.2,27.45 4.9,27.3 Q 4.55,26.85 4.2,25.3 L 3.85,22.9 q -0.2,-0.9 0,-1.5 0.3,-0.95 1.1,-0.8 m 2.1,11.65 Q 6.8,32.8 6.25,32.95 L 5.85,33 q -0.5,-0.1 -0.75,-0.55 -0.3,-0.4 -0.15,-0.9 0.3,-0.8 1,-0.7 L 6,30.8 6.7,31.05 7.1,31.7 7.05,32.25"
         fill="#ffffff"
         fill-rule="evenodd"
         stroke="none"
         id="path2" />
      <path
         d="m -6.9,17.25 0.6,-1.5 q 0.45,-0.95 0.55,-1.65 0.3,-2.25 -1.2,-3.05 l -1.75,-0.15 -1.8,0.5 q -3.55,1.1 -7.15,-0.1 -1.2,-0.35 -1.7,-1.05 -0.45,-0.6 -0.55,-1.55 -0.1,-1.55 0.6,-3.75 1.25,-3.5 3.1,-4.8 l 1.1,-0.7 0.7,-1.05 q 0.1,-0.55 -0.3,-1.1 l -0.15,-0.2 q -0.2,-0.85 -0.75,-1.6 l -1.25,-1.3 -1.25,-1.35 q -1.45,-1.85 -1.35,-4.55 0.05,-2.35 1.15,-4.9 1.95,-4.7 5.15,-6.7 2.95,-1.75 7.25,-1.6 h 2.2 q 1.2,-0.15 1.9,-0.8 0.45,-0.4 0.75,-1.2 l 0.45,-1.35 q 0.7,-2.45 1.95,-4 1.3,-1.65 3.5,-2.4 l 4.3,-0.4 q 4.05,0.55 7.4,4.1 2.55,2.75 4.45,7.35 1.9,4.45 2.05,8.05 0.15,4.7 -2.5,7.75 L 18,-5.25 q -1.45,1.7 -1.25,3.3 0.1,0.75 0.75,1.95 l 0.9,1.9 q 0.3,1.2 -0.25,2.4 l -1,1.4 -0.2,-0.8 Q 16.35,2.8 15.75,1.85 L 15.05,0.8 q -1.45,-2.1 -2.7,-2.4 l -0.95,0.1 q -0.6,0.2 -0.5,0.75 l 0.4,0.7 Q 13.05,2 13.35,6.3 L 13.25,7.5 13.2,7.75 13.1,8 11.85,9.3 10.65,10.15 9.1,10.75 Q 8.2,11.1 7.85,11.65 L 7.65,12 q -0.5,1.15 0,3.2 l 1.6,7.35 0.25,4.25 0.15,8.85 -0.25,3.55 q -0.55,2.05 -2,2.8 l -1,0.25 Q 5.95,42.15 5.6,41.75 4.85,40.95 4.45,38.7 2.65,27.2 2.8,15.6 V 14.85 L 3.35,14.1 Q 3.6,13.4 3,12.7 l -1.15,-1 -1.9,-1.2 Q -1.2,9.8 -1.5,9.15 -1.75,7.95 -2.25,7.6 L -2.95,7.45 -3.65,7.8 Q -4.1,8.3 -4.1,9.25 l 0.35,1.5 0.55,1.5 1,1 -0.25,1.95 q 0,2.55 -0.8,7.65 -0.3,1.8 -0.65,2.55 -0.75,1.5 -1.95,1.75 -1.3,-1.95 -1.65,-4.3 l 1,-0.05 q 0.65,-0.2 1,-0.75 l 0.35,-1.15 0.2,-1.35 0.05,-1.15 q -0.05,-0.5 -0.5,-0.9 -0.45,-0.35 -1,-0.35 l -0.5,0.1 M 9.15,-27.75 9,-29.4 q -0.25,-0.85 -1.05,-1.2 l -2,0.15 q -1.5,0.65 -2.1,2 L 3.4,-26.8 q -0.2,1 0.1,1.6 0.55,1.1 2.15,1.2 l 1.4,-0.25 1.05,-0.9 q 0.9,-1.2 1.05,-2.6 m -4.1,7.1 q -0.4,-1.1 -1.65,-1 -1.2,0.1 -1.45,1.3 -0.1,0.55 0.2,1.05 0.25,0.55 0.75,0.75 l 1.1,0.05 0.9,-0.6 q 0.5,-0.7 0.15,-1.55 m -9.15,10 0.75,1.6 -0.05,0.15 -0.1,0.7 q -0.3,0.85 -1.6,1.65 l -2.95,1.5 -1.1,0.55 q -0.5,0.6 -0.15,1.3 0.3,0.65 1,0.95 L -6.55,-2 -5.4,-2.4 q 0.9,-0.3 1.6,-0.75 l 1.45,-0.9 0.8,-0.75 0.7,-1.05 2.1,1.3 2.5,0.6 3,-0.2 Q 7.4,-4.6 7.55,-5.4 7.7,-6.2 7.3,-6.85 6.7,-7.8 5.1,-8.1 L 3.85,-8.25 2.55,-8.55 Q 1.5,-8.9 0.5,-9.95 l -0.55,-0.7 -0.15,-0.1 -1.25,-2.15 -0.35,-0.8 -0.15,-1.7 -0.25,-2.2 0.1,-1.2 q -0.1,-0.75 -0.75,-0.75 l -0.65,0.5 -0.6,1.75 q -0.4,1.05 -0.5,2.85 l -0.05,1.9 0.55,1.9 m -12.75,12.8 q -0.5,0.45 -0.6,1.35 0,0.95 0.5,1.5 0.5,0.5 1.25,0.55 0.7,0 1.2,-0.5 L -13,3.5 q 0.5,-0.75 0.05,-1.55 -0.4,-0.75 -1.35,-0.75 l -1.25,0.4 -1.3,0.55 m 4.2,-11.75 q -0.25,-0.65 -0.9,-1 l -1.35,-0.25 q -0.7,0.1 -1.2,0.65 -0.5,0.55 -0.6,1.2 -0.05,0.7 0.35,1.35 0.35,0.65 1,0.85 1.35,0.5 2.3,-0.5 1,-1 0.4,-2.3 m -5.4,-5.3 -0.05,0.75 q 0,0.8 0.75,1.65 l 1.05,0.85 1.05,0.2 1.35,-0.05 q 0.85,-0.25 1.85,-1.25 l 0.4,-0.45 0.35,-0.6 q 1.05,-2.2 1.2,-3.3 v -1.3 q -0.1,-1 -0.5,-1.7 l -1.1,-0.9 q -1.1,-0.65 -2.05,-0.45 -1,0.15 -2.3,1.65 l -0.55,0.6 -0.35,0.5 -0.55,1.4 -0.05,0.65 -0.3,0.65 -0.2,1.1 m 43.1,29.05 q 0.4,0.35 1.1,0.45 l 1.55,-0.2 q 0.8,-0.3 1.25,-1 0.35,-0.65 0.15,-1.45 l -0.35,-0.8 q 0.75,0 1.3,0.4 l 0.65,0.85 q 0.6,1.15 0.6,2.4 -0.1,1.35 -0.75,2.2 -1,1.35 -2.65,1.35 -1.7,-0.1 -2.5,-1.5 Q 24.9,16 25.05,14.15 M 7.05,32.25 7.1,31.7 6.7,31.05 6,30.8 5.95,30.85 q -0.7,-0.1 -1,0.7 -0.15,0.5 0.15,0.9 0.25,0.45 0.75,0.55 l 0.4,-0.05 Q 6.8,32.8 7.05,32.25 M 4.95,20.6 q -0.8,-0.15 -1.1,0.8 -0.2,0.6 0,1.5 l 0.35,2.4 q 0.35,1.55 0.7,2 l 0.3,0.15 0.2,-0.15 q 0.7,-1 0.8,-2.5 L 5.95,22.1 5.65,21.2 Q 5.4,20.65 4.95,20.6"
         fill="#7b8769"
         fill-opacity="0.827451"
         fill-rule="evenodd"
         stroke="none"
         id="path3" />
    </g>
    <g
       id="sprite1"
       transform="translate(17.4,15.85)">
      <use
         ffdec:characterId="31"
         height="57.200001"
         transform="matrix(0.5366,0,0,0.5366,-16.6582,-14.546)"
         width="70.75"
         xlink:href="#sprite2"
         id="use3" />
    </g>
    <g
       id="sprite2"
       transform="translate(-8.65,-10.35)">
      <use
         ffdec:characterId="30"
         height="57.200001"
         transform="translate(8.65,10.35)"
         width="70.75"
         xlink:href="#shape1"
         id="use4" />
    </g>
    <g
       id="shape1"
       transform="translate(-8.65,-10.35)">
      <path
         d="m 14.8,41.7 q 0.65,-1.75 2.65,-2.5 1.8,-0.8 3.7,-0.25 1.15,0.45 2.25,1.2 l 0.9,0.4 q 1.65,0.9 2.85,2.5 L 37.8,30.1 q 2.35,-2.8 3.75,-3.95 1.5,-1.15 4.25,-2.4 18.2,-8.85 27.65,-12.6 2.15,-0.8 3.25,-0.8 h 0.8 l 1.9,2.4 -0.2,0.8 q -0.2,1.1 -1.55,3 -5.85,8.25 -18.85,23.8 -1.85,2.35 -3.35,3.5 -1.4,1.15 -4.75,2.75 l -15.15,7.15 q 1.2,1.6 1.75,3.4 l 0.2,1 0.55,2.5 q 0.1,1.95 -1.1,3.55 -1.2,1.65 -3.05,1.9 l -1.3,0.05 q -1.65,0.2 -3.45,-0.65 -1.85,-0.9 -3,-2.6 L 25,60.95 23.8,62.1 q -2.6,2.85 -4.3,3.95 -2.85,1.8 -5.5,1.45 l -1.65,-0.5 -1.2,-0.7 -0.2,-0.2 q -1,-0.85 -1.6,-1.9 L 9.25,64 9.15,63.8 8.75,62.4 q -0.2,-0.8 -0.05,-1.7 0.25,-2.65 2.7,-5.05 1.5,-1.3 4.9,-3.15 L 17.7,51.55 16.05,50 q -1.35,-1.5 -1.8,-3.6 -0.4,-1.85 0.25,-3.45 l 0.3,-1.25"
         fill="#000000"
         fill-opacity="0.372549"
         fill-rule="evenodd"
         stroke="none"
         id="path4" />
    </g>
  </defs>
</svg>
