<?xml version="1.0" encoding="UTF-8" standalone="no"?>
<svg
   ffdec:objectType="frame"
   height="70.06562"
   width="73.926247"
   version="1.1"
   id="svg5"
   xmlns:xlink="http://www.w3.org/1999/xlink"
   xmlns="http://www.w3.org/2000/svg"
   xmlns:svg="http://www.w3.org/2000/svg"
   xmlns:ffdec="https://www.free-decompiler.com/flash">
  <g
     transform="translate(37.55625,34.403704)"
     id="g1">
    <use
       ffdec:characterId="17"
       height="119.15"
       id="rarity"
       transform="translate(-58.5,-60.65)"
       width="119.15"
       xlink:href="#sprite0" />
    <use
       ffdec:characterId="766"
       height="70.050003"
       transform="translate(-37.55,-34.4)"
       width="73.900002"
       xlink:href="#shape0"
       id="use1" />
  </g>
  <defs
     id="defs5">
    <g
       id="shape0"
       transform="translate(38.1,35.15)">
      <path
         d="m 10.2,-2.2 1.9,-0.15 q 11,-2.45 16.85,-11.4 l 2.25,-3.95 q 1.3,-4.15 -0.55,-8.05 Q 27.4,-32.4 20,-30.35 15.55,-24 9.3,-19.5 q -5.5,3.9 -12.25,3.3 l -7.45,-0.95 -9.05,0.3 q -8.4,1.9 -13,8.8 l -0.05,0.25 -0.25,1.1 -0.25,1.25 q 0,0.8 -0.35,1.5 l 0.05,0.2 0.1,0.2 0.15,0.65 v 0.25 l 0.05,0.2 q 6.05,4.9 13.5,0.55 8.6,-5.05 17.65,-1.7 l 1,0.6 Q 2.9,-3.05 4.65,-1.25 7.05,-2.4 10.2,-2.2 M -7.4,1.05 h 0.05 L -6.9,0.4 -6.3,-0.25 -9.1,-0.3 q -2.45,0.1 -4.6,1.15 -7.3,3.7 -15.45,3.5 -5.7,-0.15 -8.45,-5 l -0.15,-0.65 -0.3,-1.95 q -0.15,-1.3 0.1,-2.55 l 0.15,-0.45 q 2.15,-9.85 12.2,-13.9 8.65,-3.45 17.85,-1.3 l 9.2,0.4 q 5.45,-0.8 9.1,-5 l 5.5,-6.3 q 2,-2.2 4.7,-2.8 11.45,-0.2 14.75,10.4 0.4,1.3 0.3,2.7 -0.9,14.15 -14,20.45 -4.45,2.15 -9,3.95 Q 9,3.85 6.15,2.7 L 6.1,4 Q 5.85,6.9 3.8,8.7 L 0,18.05 q -0.65,10.4 -9.55,15.9 -1.15,0.65 -2.45,0.8 -10.2,1.25 -14.95,-7.15 -0.9,-1.55 -0.85,-3.45 0.05,-2.55 1.2,-4.7 Q -23.25,10.4 -14.75,5 -11.1,2.7 -7.4,1.05 M 2.8,5.3 3.15,4.4 V 4.2 L 3,3.35 Q 2.6,2.2 1.65,1.4 L 1.45,1.25 1.15,1.2 -0.9,1.1 -2.25,2.35 Q 0.5,3.5 2.7,5.65 L 2.8,5.3 m -9.5,1.2 q -5.65,2.55 -9.55,6.6 2.35,0.4 4.65,1.35 l 2.25,1 0.25,0.2 0.2,0.2 0.6,0.65 0.6,1.05 -0.05,1.75 Q -8,21.1 -9.3,22.45 L -10.8,24 q -6.25,4.7 -11.4,-0.7 -0.1,1.35 0.6,2.65 l 1.05,1.55 q 1.9,1 3.95,1.5 l 0.9,0.3 h 3.3 l 0.4,-0.2 0.95,-0.25 q 4.15,-2.95 5.4,-7.95 0.85,-3.4 2.8,-6.15 L -2.4,14.3 -1.65,12.1 -0.8,9.3 -0.5,8.5 Q -2.3,7.45 -4.25,6.8 L -6.7,6.5 m -14.35,13.7 0.25,0.25 0.15,0.2 0.1,0.2 0.05,0.25 0.05,0.2 1.3,0.95 q 1.7,1.15 3.65,0.95 1.25,-0.5 2.35,-1.25 1.45,-1 2.5,-2.4 l 0.15,-0.2 -0.05,-0.2 -0.15,-0.25 -0.15,-0.15 -0.2,-0.25 -1.25,-0.55 -3.2,-1.1 -0.15,-0.05 -3.15,-0.25 h -0.25 q -1.2,1.65 -2.1,3.55 l 0.1,0.1"
         fill="#000000"
         fill-rule="evenodd"
         stroke="none"
         id="path1" />
      <path
         d="M 2.8,5.3 2.7,5.65 Q 0.5,3.5 -2.25,2.35 L -0.9,1.1 1.15,1.2 1.45,1.25 1.65,1.4 Q 2.6,2.2 3,3.35 L 3.15,4.2 V 4.4 L 2.8,5.3"
         fill="#cac7a6"
         fill-rule="evenodd"
         stroke="none"
         id="path2" />
      <path
         d="m -6.7,6.5 2.45,0.3 q 1.95,0.65 3.75,1.7 l -0.3,0.8 -0.85,2.8 -0.75,2.2 -0.45,0.45 q -1.95,2.75 -2.8,6.15 -1.25,5 -5.4,7.95 l -0.95,0.25 -0.4,0.2 h -3.3 L -16.6,29 q -2.05,-0.5 -3.95,-1.5 l -1.05,-1.55 q -0.7,-1.3 -0.6,-2.65 5.15,5.4 11.4,0.7 l 1.5,-1.55 Q -8,21.1 -7.75,19.3 l 0.05,-1.75 -0.6,-1.05 -0.6,-0.65 -0.2,-0.2 -0.25,-0.2 -2.25,-1 q -2.3,-0.95 -4.65,-1.35 3.9,-4.05 9.55,-6.6"
         fill="#caa6a6"
         fill-rule="evenodd"
         stroke="none"
         id="path3" />
      <path
         d="m -21.05,20.2 -0.1,-0.1 q 0.9,-1.9 2.1,-3.55 h 0.25 l 3.15,0.25 0.15,0.05 3.2,1.1 1.25,0.55 0.2,0.25 0.15,0.15 0.15,0.25 0.05,0.2 -0.15,0.2 q -1.05,1.4 -2.5,2.4 -1.1,0.75 -2.35,1.25 -1.95,0.2 -3.65,-0.95 l -1.3,-0.95 -0.05,-0.2 -0.05,-0.25 -0.1,-0.2 -0.15,-0.2 -0.25,-0.25"
         fill="#e9d1d1"
         fill-rule="evenodd"
         stroke="none"
         id="path4" />
    </g>
    <g
       id="sprite1"
       transform="translate(17.4,15.85)">
      <use
         ffdec:characterId="31"
         height="57.200001"
         transform="matrix(0.5366,0,0,0.5366,-16.6582,-14.546)"
         width="70.75"
         xlink:href="#sprite2"
         id="use4" />
    </g>
    <g
       id="sprite2"
       transform="translate(-8.65,-10.35)">
      <use
         ffdec:characterId="30"
         height="57.200001"
         transform="translate(8.65,10.35)"
         width="70.75"
         xlink:href="#shape1"
         id="use5" />
    </g>
    <g
       id="shape1"
       transform="translate(-8.65,-10.35)">
      <path
         d="m 14.8,41.7 q 0.65,-1.75 2.65,-2.5 1.8,-0.8 3.7,-0.25 1.15,0.45 2.25,1.2 l 0.9,0.4 q 1.65,0.9 2.85,2.5 L 37.8,30.1 q 2.35,-2.8 3.75,-3.95 1.5,-1.15 4.25,-2.4 18.2,-8.85 27.65,-12.6 2.15,-0.8 3.25,-0.8 h 0.8 l 1.9,2.4 -0.2,0.8 q -0.2,1.1 -1.55,3 -5.85,8.25 -18.85,23.8 -1.85,2.35 -3.35,3.5 -1.4,1.15 -4.75,2.75 l -15.15,7.15 q 1.2,1.6 1.75,3.4 l 0.2,1 0.55,2.5 q 0.1,1.95 -1.1,3.55 -1.2,1.65 -3.05,1.9 l -1.3,0.05 q -1.65,0.2 -3.45,-0.65 -1.85,-0.9 -3,-2.6 L 25,60.95 23.8,62.1 q -2.6,2.85 -4.3,3.95 -2.85,1.8 -5.5,1.45 l -1.65,-0.5 -1.2,-0.7 -0.2,-0.2 q -1,-0.85 -1.6,-1.9 L 9.25,64 9.15,63.8 8.75,62.4 q -0.2,-0.8 -0.05,-1.7 0.25,-2.65 2.7,-5.05 1.5,-1.3 4.9,-3.15 L 17.7,51.55 16.05,50 q -1.35,-1.5 -1.8,-3.6 -0.4,-1.85 0.25,-3.45 l 0.3,-1.25"
         fill="#000000"
         fill-opacity="0.372549"
         fill-rule="evenodd"
         stroke="none"
         id="path5" />
    </g>
  </defs>
</svg>
