<?xml version="1.0" encoding="UTF-8" standalone="no"?>
<svg
   ffdec:objectType="frame"
   height="88.212769"
   width="58.250626"
   version="1.1"
   id="svg4"
   xmlns:xlink="http://www.w3.org/1999/xlink"
   xmlns="http://www.w3.org/2000/svg"
   xmlns:svg="http://www.w3.org/2000/svg"
   xmlns:ffdec="https://www.free-decompiler.com/flash">
  <g
     transform="translate(33.85,45.4)"
     id="g1">
    <use
       ffdec:characterId="17"
       height="119.15"
       id="rarity"
       transform="translate(-58.5,-60.65)"
       width="119.15"
       xlink:href="#sprite0" />
    <use
       ffdec:characterId="707"
       height="88.25"
       transform="translate(-33.85,-45.45)"
       width="58.25"
       xlink:href="#shape0"
       id="use1" />
  </g>
  <defs
     id="defs4">
    <g
       id="shape0"
       transform="translate(33.45,44.65)">
      <path
         d="m 17.6,-29.05 -0.7,-0.6 -0.3,-0.35 -0.2,-0.1 q -2.3,-1.1 -4.75,-1.85 -0.9,-0.3 -1.6,-0.9 l -0.6,-0.1 -3.2,-0.85 -0.65,-0.05 -1.15,-0.05 -0.5,1.25 -0.35,1.05 -0.15,0.2 -0.3,0.25 -1.7,3.4 L 7.7,-28 q 3.5,0.8 6.55,4 1.65,1.8 2.7,3.9 0.6,1.3 0.5,2.75 l 0.05,0.05 0.9,-1.65 0.95,-2.3 0.2,-0.45 v -0.2 l 0.2,-1.3 q 0.3,-1 0,-2 l -0.2,-0.8 -0.15,-0.2 -0.5,-1.05 -0.75,-1.35 -0.1,-0.2 -0.25,-0.15 -0.2,-0.1 M -10.35,-27 q -4.7,6.05 -6.6,13.4 l 0.5,-0.25 q 0.65,-0.9 1.75,-1.15 l 0.3,-0.4 0.2,-0.25 6.3,-3.35 q 0.8,-2.1 2.15,-4 1.2,-1.65 2.85,-2.75 l 1.5,-0.9 0.7,-0.3 0.2,-0.5 1.35,-3.6 0.6,-1.55 V -33 l 0.05,-0.45 0.2,-0.4 q -3.8,0.35 -6.85,2.2 -2.9,1.7 -5.2,4.65 m 8.5,-12.45 q 13,-1.3 22.75,6.6 3.95,3.15 3.9,8.3 0,7.85 -5.05,12.45 l -1.2,1.15 -3.65,2.65 q -0.85,0.55 -1.45,0.75 -1.2,0.25 -2.3,-0.6 -0.4,-0.25 -1.05,-0.95 l -3,-2.1 -0.75,-0.75 -0.6,-1.05 q -0.25,-0.9 0.35,-1.65 0.7,-0.8 1.55,-0.7 l 1.6,0.5 1.3,0.4 1.2,0.5 0.5,0.25 v -0.9 q 0.1,-1.45 -0.5,-2.8 l -1.35,-2.75 q -0.95,-1 -2.2,-1.45 -4.6,-1.55 -8.65,1.45 l -1.4,1.3 -0.05,0.2 -0.1,0.2 q -0.9,1.3 -0.95,2.8 v 3.45 q 0.05,0.75 -0.05,1.5 l 0.1,0.2 0.05,0.25 0.2,1.5 0.65,2.15 q 0.2,0.4 0.15,0.85 3.5,6.2 10.9,7.55 4.65,0.8 3.95,4.95 l -0.5,4.2 -0.4,7.3 0.05,0.25 v 0.2 0.2 0.65 0.2 q 5.4,4 4.65,10.75 -1.25,11 -12.5,12.9 l -1.55,0.2 q -8.6,0.3 -13.05,-6.45 -1.3,-1.95 -1.5,-4.3 -1,-10.5 8.9,-14.25 v -0.2 -0.2 l 0.3,-1.3 0.2,-1.3 0.2,-1.25 q -8.95,-3.9 -15.95,-10.65 -3.4,-3.3 -4.45,-7.65 l -2,-0.65 -1.25,-0.1 -1.2,0.3 -1.1,1.1 -0.7,1.05 -0.35,1.45 -0.2,1.45 -0.05,1.1 0.3,1.35 q 0.15,1 -0.5,1.6 l -0.8,0.25 -0.75,-0.4 -0.35,-0.85 -0.75,-1.05 q -0.6,-0.9 -0.8,-2.7 l -0.25,-2.05 q -0.2,-1.15 0,-1.95 l 0.6,-1.25 1.25,-1.9 q 0.95,-1.45 1.85,-2.1 1.25,-0.9 3.9,-1.2 l 2.75,0.1 q 0.35,-7 3.4,-13.2 l -0.7,-1.3 -0.9,-1.2 q -0.6,-0.45 -2,-0.45 l -1.1,0.15 -0.65,0.55 -1,1.05 -1.6,2.6 -1.65,2.6 q -0.85,1.05 -1.65,0.8 -0.5,-0.15 -0.7,-0.75 l -0.1,-1.1 q 0.1,-1.25 1,-3.65 l 1.45,-3.2 1.55,-2.35 0.95,-1.05 1.9,-0.65 q 3.7,-0.7 5.7,0.1 l 1.5,0.8 1.5,1.3 q 3.25,-4.45 7.6,-7.1 l -0.4,-0.6 -1.6,-2.25 q -0.8,-1 -1.5,-1.05 l -1.3,0.3 -1.75,-0.05 h -1.3 q -1.1,-0.35 -1.2,-1.55 0,-1.15 0.95,-1.75 l 1.5,-0.55 3.45,-0.65 2.3,0.05 q 1.15,0.3 2.4,1.4 l 2,2 1.25,1.15 0.65,0.95 1.2,-0.4 M 3.7,9.2 3.75,8.9 5.3,6.7 5.4,6.55 Q -1.65,4.7 -5.75,-1.3 -7,-3.1 -7.75,-5.05 -8.7,-7.45 -9,-10.1 q -0.35,-3.1 0.2,-5.95 -1.75,0.8 -3.35,2 l -0.7,0.2 q -0.65,0.9 -1.7,1.15 l -2.95,2.85 q -0.25,6.8 5.35,11.5 4.05,3.35 8.95,5.3 3.3,1.35 5.8,3.5 V 10.4 L 3.45,9.55 3.7,9.2 M 5,10 3.7,12.05 3.75,12.7 q -0.2,5.65 -2.6,10.4 -0.2,0.5 -0.8,0.55 -3.55,0.3 -5.55,3.2 l -0.1,0.2 -0.2,0.65 -0.15,0.4 -0.25,0.45 -0.05,0.25 -0.05,0.55 -0.05,0.3 -0.2,1.05 -0.15,0.65 0.05,0.2 0.4,1.55 0.15,0.4 1.25,2.55 0.2,0.25 q 4.5,2.05 9.5,1.05 3.45,-0.7 5.15,-3.65 v -0.2 l 0.2,-0.65 0.25,-0.4 0.15,-0.25 V 32 l 0.3,-2.35 q 0.25,-1.95 -0.75,-3.5 L 10.25,25.8 Q 8.15,24.4 7.3,22.2 6.7,20.6 7,18.9 V 18.7 L 8.4,10.75 8.35,10.55 Q 8.25,10 8.3,9.45 V 7.95 7.1 H 8.15 L 6.65,8.55 6,9.1 5.85,9.25 5.75,9.3 5.3,9.45 5,10 M 7.7,27.5 Q 8.8,29.25 8.35,32.25 8.1,34 6.55,35 0.8,38.6 -2.1,32.75 l -0.45,-1.3 q -0.2,-1.35 0.5,-2.7 1.2,-2.4 3.7,-3.7 L 2.15,25 q 4.1,0.15 5.55,2.5 M 3.3,29.3 2.65,29.4 2.4,29.65 1.9,30.1 1.75,30.3 v 0.2 l 0.1,0.4 0.1,0.25 0.2,0.2 0.5,0.35 0.3,0.05 0.5,-0.05 0.55,-0.45 0.45,-0.4 v -0.2 L 4.35,30.2 4.15,29.8 4,29.6 Q 3.65,29.4 3.3,29.3"
         fill="#000000"
         fill-rule="evenodd"
         stroke="none"
         id="path1" />
      <path
         d="m 7.7,-28 7.75,-0.6 q 1.3,0 2.15,-0.45 l 0.2,0.1 0.25,0.15 0.1,0.2 0.75,1.35 0.5,1.05 0.15,0.2 0.2,0.8 q 0.3,1 0,2 l -0.2,1.3 v 0.2 l -0.2,0.45 -0.95,2.3 -0.9,1.65 -0.05,-0.05 q 0.1,-1.45 -0.5,-2.75 -1.05,-2.1 -2.7,-3.9 -3.05,-3.2 -6.55,-4 M -7.75,-5.05 -8.1,-4.1 q -0.2,1.05 0.45,1.95 l 0.35,1.5 q 1.1,3.05 4.05,4.7 l 0.2,0.2 L 3.7,9.2 3.45,9.55 2.6,10.4 v 0.05 Q 0.1,8.3 -3.2,6.95 -8.1,5 -12.15,1.65 q -5.6,-4.7 -5.35,-11.5 l 2.95,-2.85 q 1.05,-0.25 1.7,-1.15 l 0.7,-0.2 q 1.6,-1.2 3.35,-2 -0.55,2.85 -0.2,5.95 0.3,2.65 1.25,5.05 m 1.75,34.4 0.05,-0.55 0.05,-0.25 0.25,-0.45 0.15,-0.4 0.2,-0.65 0.1,-0.2 q 2,-2.9 5.55,-3.2 0.6,-0.05 0.8,-0.55 2.4,-4.75 2.6,-10.4 L 3.7,12.05 5,10 l 0.3,0.15 0.2,4.3 q 0.25,2.6 1.5,4.45 -0.3,1.7 0.3,3.3 0.85,2.2 2.95,3.6 l 0.2,0.35 q 1,1.55 0.75,3.5 L 10.9,32 v 0.2 l -0.15,0.25 -0.25,0.4 -0.2,0.65 v 0.2 q -1.7,2.95 -5.15,3.65 -5,1 -9.5,-1.05 l -0.2,-0.25 -1.25,-2.55 -0.15,-0.4 0.25,0.05 0.05,0.05 q 1.75,-0.55 3.1,-1.75 l 0.45,1.3 Q 0.8,38.6 6.55,35 8.1,34 8.35,32.25 8.8,29.25 7.7,27.5 l 0.9,-0.35 0.15,-0.2 0.1,-0.2 L 8.95,26.5 9,26.3 9.05,26.1 9,25.9 8.95,25.45 8.85,25.25 8.75,25 8.65,24.85 8.45,24.6 q -0.6,-0.4 -1.3,-0.5 l -4.7,-0.45 v 0.05 q -3.9,0.3 -6.6,3 -1.2,1.2 -1.85,2.65"
         fill="#503232"
         fill-rule="evenodd"
         stroke="none"
         id="path2" />
      <path
         d="m 7.7,-28 -6.25,0.25 1.7,-3.4 0.3,-0.25 0.15,-0.2 0.35,-1.05 0.5,-1.25 1.15,0.05 0.65,0.05 3.2,0.85 0.6,0.1 q 0.7,0.6 1.6,0.9 2.45,0.75 4.75,1.85 l 0.2,0.1 0.3,0.35 0.7,0.6 q -0.85,0.45 -2.15,0.45 L 7.7,-28 m -18.05,1 q 2.3,-2.95 5.2,-4.65 3.05,-1.85 6.85,-2.2 l -0.2,0.4 -0.05,0.45 v 0.4 l -0.6,1.55 -1.35,3.6 -0.2,0.5 -0.7,0.3 -1.5,0.9 q -1.65,1.1 -2.85,2.75 -1.35,1.9 -2.15,4 l -6.3,3.35 -0.2,0.25 -0.3,0.4 q -1.1,0.25 -1.75,1.15 l -0.5,0.25 q 1.9,-7.35 6.6,-13.4 m 2.6,21.95 q 0.75,1.95 2,3.75 4.1,6 11.15,7.85 L 5.3,6.7 3.75,8.9 3.7,9.2 -3.05,4.25 -3.25,4.05 Q -6.2,2.4 -7.3,-0.65 l -0.35,-1.5 Q -8.3,-3.05 -8.1,-4.1 l 0.35,-0.95 M -6,29.35 q 0.65,-1.45 1.85,-2.65 2.7,-2.7 6.6,-3 v -0.05 l 4.7,0.45 q 0.7,0.1 1.3,0.5 l 0.2,0.25 0.1,0.15 0.1,0.25 0.1,0.2 L 9,25.9 9.05,26.1 9,26.3 8.95,26.5 8.85,26.75 8.75,26.95 8.6,27.15 7.7,27.5 Q 6.25,25.15 2.15,25 l -0.5,0.05 q -2.5,1.3 -3.7,3.7 -0.7,1.35 -0.5,2.7 -1.35,1.2 -3.1,1.75 L -5.7,33.15 -5.95,33.1 -6.35,31.55 -6.4,31.35 -6.25,30.7 -6.05,29.65 -6,29.35 M 7,18.9 Q 5.75,17.05 5.5,14.45 L 5.3,10.15 5,10 5.3,9.45 5.75,9.3 5.85,9.25 6,9.1 6.65,8.55 8.15,7.1 H 8.3 v 0.85 1.5 Q 8.25,10 8.35,10.55 L 8.4,10.75 7,18.7 v 0.2"
         fill="#744d4d"
         fill-rule="evenodd"
         stroke="none"
         id="path3" />
    </g>
    <g
       id="sprite1"
       transform="translate(17.4,15.85)">
      <use
         ffdec:characterId="31"
         height="57.200001"
         transform="matrix(0.5366,0,0,0.5366,-16.6582,-14.546)"
         width="70.75"
         xlink:href="#sprite2"
         id="use3" />
    </g>
    <g
       id="sprite2"
       transform="translate(-8.65,-10.35)">
      <use
         ffdec:characterId="30"
         height="57.200001"
         transform="translate(8.65,10.35)"
         width="70.75"
         xlink:href="#shape1"
         id="use4" />
    </g>
    <g
       id="shape1"
       transform="translate(-8.65,-10.35)">
      <path
         d="m 14.8,41.7 q 0.65,-1.75 2.65,-2.5 1.8,-0.8 3.7,-0.25 1.15,0.45 2.25,1.2 l 0.9,0.4 q 1.65,0.9 2.85,2.5 L 37.8,30.1 q 2.35,-2.8 3.75,-3.95 1.5,-1.15 4.25,-2.4 18.2,-8.85 27.65,-12.6 2.15,-0.8 3.25,-0.8 h 0.8 l 1.9,2.4 -0.2,0.8 q -0.2,1.1 -1.55,3 -5.85,8.25 -18.85,23.8 -1.85,2.35 -3.35,3.5 -1.4,1.15 -4.75,2.75 l -15.15,7.15 q 1.2,1.6 1.75,3.4 l 0.2,1 0.55,2.5 q 0.1,1.95 -1.1,3.55 -1.2,1.65 -3.05,1.9 l -1.3,0.05 q -1.65,0.2 -3.45,-0.65 -1.85,-0.9 -3,-2.6 L 25,60.95 23.8,62.1 q -2.6,2.85 -4.3,3.95 -2.85,1.8 -5.5,1.45 l -1.65,-0.5 -1.2,-0.7 -0.2,-0.2 q -1,-0.85 -1.6,-1.9 L 9.25,64 9.15,63.8 8.75,62.4 q -0.2,-0.8 -0.05,-1.7 0.25,-2.65 2.7,-5.05 1.5,-1.3 4.9,-3.15 L 17.7,51.55 16.05,50 q -1.35,-1.5 -1.8,-3.6 -0.4,-1.85 0.25,-3.45 l 0.3,-1.25"
         fill="#000000"
         fill-opacity="0.372549"
         fill-rule="evenodd"
         stroke="none"
         id="path4" />
    </g>
  </defs>
</svg>
