<?xml version="1.0" encoding="UTF-8" standalone="no"?>
<svg
   ffdec:objectType="frame"
   height="69.533165"
   width="55.203125"
   version="1.1"
   id="svg6"
   xmlns:xlink="http://www.w3.org/1999/xlink"
   xmlns="http://www.w3.org/2000/svg"
   xmlns:svg="http://www.w3.org/2000/svg"
   xmlns:ffdec="https://www.free-decompiler.com/flash">
  <g
     transform="translate(28.553125,37.863717)"
     id="g1">
    <use
       ffdec:characterId="17"
       height="119.15"
       id="rarity"
       transform="translate(-58.5,-60.65)"
       width="119.15"
       xlink:href="#sprite0" />
    <use
       ffdec:characterId="479"
       height="69.5"
       transform="translate(-28.55,-37.85)"
       width="55.200001"
       xlink:href="#shape0"
       id="use1" />
  </g>
  <defs
     id="defs6">
    <g
       id="shape0"
       transform="translate(28.15,37.05)">
      <path
         d="m -14.45,-37 q 6.4,-0.6 9.7,4.45 l 2,2.8 q 8.25,-2.35 13.1,3.95 l 1.25,1.5 q 5,0.1 8.15,3.7 1.75,2 2.35,4.5 l 0.6,1.1 q 0.35,1.65 -0.05,3.35 L 22.2,-9 24.8,2.6 q 2.2,9.65 2.25,19.7 0,2.6 -2.6,3.15 Q 9.4,28.5 -5.3,32.4 -6.35,32.65 -7.2,32 q -9.55,-7.55 -20.25,-13.2 -0.75,-0.4 -0.7,-1.35 l 0.6,-11.8 0.45,-12.9 q 0.05,-5.35 -0.4,-10.7 -0.8,-8.8 5.3,-15 3.3,-3.3 7.75,-4.05 m 4.65,33.15 -0.75,-0.45 -3,-1.85 q -1.25,-0.7 -2.15,-1.8 l -0.45,-0.2 -0.5,-0.15 -0.45,-0.4 -0.2,-0.15 -0.5,-0.15 -0.95,-0.85 -0.45,-0.5 -0.1,-0.6 0.4,-0.3 0.15,-0.05 0.15,-0.05 0.1,-0.05 v -0.05 l 3.85,1.4 9.2,3.2 1.4,0.7 Q -3.45,-6.6 -2.5,-6.9 4.1,-9 10.95,-9.8 l 4.45,-0.85 0.95,0.05 q 0.1,-1.15 0.55,-2.3 l -0.1,-0.25 -0.85,-2.05 q -0.75,-1.4 -2.05,-2.4 -2.05,0.05 -3.6,-0.6 -0.7,1.25 -2,2.1 l -0.9,0.85 q -4.05,2.5 -8.5,0.95 l -1.1,-1.1 -0.2,-0.2 -0.3,-1.05 -0.15,-0.65 0.25,-0.9 0.45,-0.55 q 0.95,0.05 1.45,0.95 l 0.1,0.2 q 5.05,1.45 8,-2.8 l -0.1,-0.15 q -1.5,-1.9 -3.4,-3.25 l -9.75,-0.9 q -0.6,-0.1 -1,-0.7 -1.95,-2.9 -4.6,-4.85 -0.75,-0.55 -1.85,-0.65 l -0.35,-0.05 q -3.55,1.05 -5.8,4.15 l -1.25,2.1 q -0.85,4.3 -0.5,8.6 l 0.05,0.5 0.05,1.1 0.05,1.4 v 0.5 1.25 l -0.05,1.95 v 0.15 q 0.45,3.15 0.6,6.35 v 0.2 0.6 q 1.15,3.05 0.95,6.45 -0.1,1.35 0.7,2.35 0.95,0.5 2,0.5 l 0.2,-0.6 0.45,-0.45 q 0,-2.3 0.5,-4.5 0.2,-1.1 0.9,-1.95 1.45,2.2 1.15,5.3 l -0.15,2.15 -1.05,2.1 -0.7,0.85 -4.75,-0.1 q -1.9,-2.05 -2.05,-4.75 l -0.25,3.95 -0.05,5.6 q 9.45,5 18.3,11.35 Q 8.6,22.35 21.6,19.5 L 21.45,16.95 21.1,13.3 20.75,12.2 Q 20.5,11.5 20.5,10.7 l -0.05,-0.4 -0.8,-2.9 -0.5,-2.65 -0.9,-5.4 q -1,-3.3 -1.75,-6.65 l -0.2,-1.55 -1.25,0.4 -4.65,1.5 -11.15,3.9 -1.45,0.55 q 0.25,1.5 -0.05,3.2 l -0.4,2.95 q 0.7,7.3 -0.15,14.65 -0.35,2.95 -1.25,5.7 L -4.4,24.1 -4.8,24.05 -5,23.9 Q -5.1,14.15 -5.65,4.35 -5.85,0.9 -6.3,-2.5 -8.05,-2.8 -9.8,-3.85"
         fill="#000000"
         fill-rule="evenodd"
         stroke="none"
         id="path1" />
      <path
         d="m -18.95,-7 0.45,-0.3 0.2,-0.05 0.45,-0.05 v -0.05 l 0.9,0.4 0.3,0.15 0.15,0.25 0.15,0.4 0.05,0.45 -0.05,0.4 -0.15,0.7 q -0.2,0.6 -0.8,0.95 l -0.15,0.05 -1,-0.05 q -0.7,-0.45 -0.9,-1.25 l -0.1,-1.3 0.25,-0.4 0.25,-0.3 m 25.7,2.45 1.1,0.45 0.3,0.15 0.15,0.2 0.25,0.4 0.1,0.7 Q 6.4,1.95 1.5,-0.7 1.1,-0.9 1,-1.3 1.85,-4.65 6.25,-4.5 l 0.5,-0.05 m -22.4,-22.15 q 5.55,-0.15 4.5,4.8 -0.4,2 -2.2,3.15 -3.9,2.55 -5.45,-1.55 -0.45,-1.05 -0.1,-2.25 0.6,-2.45 2.45,-4 l 0.3,-0.05 0.5,-0.05 v -0.05"
         fill="#ffffff"
         fill-rule="evenodd"
         stroke="none"
         id="path2" />
      <path
         d="m -21.1,-9.4 0.05,-1.95 v -1.25 -0.5 l -0.05,-1.4 -0.05,-1.1 -0.05,-0.5 q -0.35,-4.3 0.5,-8.6 l 1.25,-2.1 q 2.25,-3.1 5.8,-4.15 l 0.35,0.05 q 1.1,0.1 1.85,0.65 2.65,1.95 4.6,4.85 0.4,0.6 1,0.7 l 9.75,0.9 q 1.9,1.35 3.4,3.25 l 0.1,0.15 q -2.95,4.25 -8,2.8 l -0.1,-0.2 q -0.5,-0.9 -1.45,-0.95 l -0.45,0.55 -0.25,0.9 0.15,0.65 0.3,1.05 0.2,0.2 1.1,1.1 q 4.45,1.55 8.5,-0.95 l 0.9,-0.85 q 1.3,-0.85 2,-2.1 1.55,0.65 3.6,0.6 1.3,1 2.05,2.4 l 0.85,2.05 0.1,0.25 q -0.45,1.15 -0.55,2.3 L 15.4,-10.65 10.95,-9.8 Q 4.1,-9 -2.5,-6.9 q -0.95,0.3 -1.55,0.75 l -1.4,-0.7 -9.2,-3.2 -3.85,-1.4 v 0.05 l -0.1,0.05 -0.15,0.05 -0.15,0.05 -0.4,0.3 0.1,0.6 0.45,0.5 0.95,0.85 0.5,0.15 0.2,0.15 0.45,0.4 0.5,0.15 0.45,0.2 q 0.9,1.1 2.15,1.8 l 3,1.85 0.75,0.45 q -3.3,0.1 -6.55,-1.55 l 0.05,-0.4 -0.05,-0.45 -0.15,-0.4 -0.15,-0.25 -0.3,-0.15 -0.9,-0.4 v 0.05 l -0.45,0.05 -0.2,0.05 -0.45,0.3 q -1.3,-1.05 -2.15,-2.4 m 5.45,-17.3 v 0.05 l -0.5,0.05 -0.3,0.05 q -1.85,1.55 -2.45,4 -0.35,1.2 0.1,2.25 1.55,4.1 5.45,1.55 1.8,-1.15 2.2,-3.15 1.05,-4.95 -4.5,-4.8"
         fill="#875f5f"
         fill-rule="evenodd"
         stroke="none"
         id="path3" />
      <path
         d="m -0.75,-3.05 11.15,-3.9 4.65,-1.5 1.25,-0.4 0.2,1.55 q 0.75,3.35 1.75,6.65 l 0.9,5.4 0.5,2.65 q -0.35,1 -1.1,1.9 L 17.7,9.9 q -6.45,2.3 -13.1,0.5 -7.15,-2 -6.15,-9.45 l 0.8,-4 m 7.5,-1.5 -0.5,0.05 Q 1.85,-4.65 1,-1.3 1.1,-0.9 1.5,-0.7 6.4,1.95 8.65,-2.65 L 8.55,-3.35 8.3,-3.75 8.15,-3.95 7.85,-4.1 6.75,-4.55"
         fill="#6d4949"
         fill-rule="evenodd"
         stroke="none"
         id="path4" />
      <path
         d="m -21.1,-9.4 q 0.85,1.35 2.15,2.4 l -0.25,0.3 -0.25,0.4 0.1,1.3 q 0.2,0.8 0.9,1.25 l 1,0.05 0.15,-0.05 q 0.6,-0.35 0.8,-0.95 l 0.15,-0.7 q 3.25,1.65 6.55,1.55 1.75,1.05 3.5,1.35 0.45,3.4 0.65,6.85 0.55,9.8 0.65,19.55 l 0.2,0.15 0.4,0.05 0.35,-0.1 q 0.9,-2.75 1.25,-5.7 0.85,-7.35 0.15,-14.65 l 0.4,-2.95 q 0.3,-1.7 0.05,-3.2 l 1.45,-0.55 -0.8,4 q -1,7.45 6.15,9.45 6.65,1.8 13.1,-0.5 l 0.85,-0.6 q 0.75,-0.9 1.1,-1.9 l 0.8,2.9 0.05,0.4 q 0,0.8 0.25,1.5 l 0.35,1.1 0.35,3.65 0.15,2.55 Q 8.6,22.35 -4.35,26.15 -13.2,19.8 -22.65,14.8 l 0.05,-5.6 0.25,-3.95 q 0.15,2.7 2.05,4.75 l 4.75,0.1 0.7,-0.85 1.05,-2.1 0.15,-2.15 q 0.3,-3.1 -1.15,-5.3 -0.7,0.85 -0.9,1.95 -0.5,2.2 -0.5,4.5 l -0.45,0.45 -0.2,0.6 q -1.05,0 -2,-0.5 -0.8,-1 -0.7,-2.35 0.2,-3.4 -0.95,-6.45 v -0.6 -0.2 q -0.15,-3.2 -0.6,-6.35 V -9.4"
         fill="#563939"
         fill-rule="evenodd"
         stroke="none"
         id="path5" />
    </g>
    <g
       id="sprite1"
       transform="translate(17.4,15.85)">
      <use
         ffdec:characterId="31"
         height="57.200001"
         transform="matrix(0.5366,0,0,0.5366,-16.6582,-14.546)"
         width="70.75"
         xlink:href="#sprite2"
         id="use5" />
    </g>
    <g
       id="sprite2"
       transform="translate(-8.65,-10.35)">
      <use
         ffdec:characterId="30"
         height="57.200001"
         transform="translate(8.65,10.35)"
         width="70.75"
         xlink:href="#shape1"
         id="use6" />
    </g>
    <g
       id="shape1"
       transform="translate(-8.65,-10.35)">
      <path
         d="m 14.8,41.7 q 0.65,-1.75 2.65,-2.5 1.8,-0.8 3.7,-0.25 1.15,0.45 2.25,1.2 l 0.9,0.4 q 1.65,0.9 2.85,2.5 L 37.8,30.1 q 2.35,-2.8 3.75,-3.95 1.5,-1.15 4.25,-2.4 18.2,-8.85 27.65,-12.6 2.15,-0.8 3.25,-0.8 h 0.8 l 1.9,2.4 -0.2,0.8 q -0.2,1.1 -1.55,3 -5.85,8.25 -18.85,23.8 -1.85,2.35 -3.35,3.5 -1.4,1.15 -4.75,2.75 l -15.15,7.15 q 1.2,1.6 1.75,3.4 l 0.2,1 0.55,2.5 q 0.1,1.95 -1.1,3.55 -1.2,1.65 -3.05,1.9 l -1.3,0.05 q -1.65,0.2 -3.45,-0.65 -1.85,-0.9 -3,-2.6 L 25,60.95 23.8,62.1 q -2.6,2.85 -4.3,3.95 -2.85,1.8 -5.5,1.45 l -1.65,-0.5 -1.2,-0.7 -0.2,-0.2 q -1,-0.85 -1.6,-1.9 L 9.25,64 9.15,63.8 8.75,62.4 q -0.2,-0.8 -0.05,-1.7 0.25,-2.65 2.7,-5.05 1.5,-1.3 4.9,-3.15 L 17.7,51.55 16.05,50 q -1.35,-1.5 -1.8,-3.6 -0.4,-1.85 0.25,-3.45 l 0.3,-1.25"
         fill="#000000"
         fill-opacity="0.372549"
         fill-rule="evenodd"
         stroke="none"
         id="path6" />
    </g>
  </defs>
</svg>
