<?xml version="1.0" encoding="UTF-8" standalone="no"?>
<svg
   ffdec:objectType="frame"
   height="45.505241"
   width="89.500809"
   version="1.1"
   id="svg4"
   sodipodi:docname="ITEM Cool Glasses.svg"
   xmlns:inkscape="http://www.inkscape.org/namespaces/inkscape"
   xmlns:sodipodi="http://sodipodi.sourceforge.net/DTD/sodipodi-0.dtd"
   xmlns:xlink="http://www.w3.org/1999/xlink"
   xmlns="http://www.w3.org/2000/svg"
   xmlns:svg="http://www.w3.org/2000/svg"
   xmlns:ffdec="https://www.free-decompiler.com/flash">
  <sodipodi:namedview
     id="namedview4"
     pagecolor="#ffffff"
     bordercolor="#000000"
     borderopacity="0.25"
     inkscape:showpageshadow="2"
     inkscape:pageopacity="0.0"
     inkscape:pagecheckerboard="0"
     inkscape:deskcolor="#d1d1d1"
     fit-margin-top="5"
     fit-margin-left="5"
     fit-margin-right="5"
     fit-margin-bottom="5" />
  <g
     transform="translate(44.350806,23.004545)"
     id="g1">
    <use
       ffdec:characterId="17"
       height="119.15"
       id="rarity"
       transform="translate(-58.5,-60.65)"
       width="119.15"
       xlink:href="#sprite0" />
    <use
       ffdec:characterId="921"
       height="45.5"
       transform="translate(-44.35,-23)"
       width="89.5"
       xlink:href="#shape0"
       id="use1" />
  </g>
  <defs
     id="defs4">
    <g
       id="shape0">
      <path
         d="M 44.7,32.45 Q 39.25,43.85 26.45,45.3 11.2,47 4.2,34.3 2.9,31.95 3,29.35 -0.05,27.65 0,23.7 0.05,20.35 2.15,18.25 6.95,9.75 14.85,4 15.45,3.55 16.1,3.25 l 0.85,-0.8 q 0.85,-0.65 1.8,-0.7 5.8,0.9 6.05,6.2 0.05,0.8 -0.7,1.35 -2.85,1.95 -5.05,-0.75 -4,2.4 -7.3,5.65 9.65,-2.5 19.75,-2.65 5.25,-1.1 9.3,1.15 l 0.9,0.6 q 3.1,0.8 6.15,1.95 l 4,0.35 2,-0.4 q 2.2,-2.7 4.7,-5.15 L 59.6,9.2 Q 51.2,7.3 42.8,6.4 40.75,11.05 36.6,9.75 35.45,9.4 35.5,8.2 q 0.2,-5.3 5.2,-7.75 1,-0.5 2,-0.45 7.75,0 15.05,2.5 l 2.85,0.75 13.85,3.4 q 4.2,-0.25 8.5,-0.1 3.95,-0.2 5.85,3.05 0.55,1 0.45,2.2 l 0.15,0.2 0.1,0.2 q -0.1,3.15 -1.5,5.95 l -0.55,0.9 q -0.05,5.8 -3.45,10.7 -0.7,0.95 -1.8,1.35 -6.3,2.3 -12.95,3.6 -7.5,1.45 -12.45,-4.25 -2.5,-2.9 -4.3,-6.3 L 51.55,24.3 Q 50,24.75 48.6,25.45 l -1.7,1.4 -0.8,0.85 q -0.25,2.35 -1.4,4.75 M 73.6,13.5 q -6.05,0.45 -11.35,3.15 l -1.95,1.4 -0.05,0.1 -0.15,0.4 -0.25,0.45 q 0.1,2 0.65,3.8 l 0.75,3.3 v 0.2 l -0.05,0.2 0.1,0.1 q 4.95,4.45 10.8,3.15 5.85,-1.35 6.4,-2.2 l 1.4,-1.6 q 1.25,-1 1.4,-2.6 L 81.35,18 80.95,14.8 q -0.95,-1 -2.35,-1.3 -2.45,-0.45 -5,0 m -58.75,7.4 q -2,0.45 -3.8,1.4 -0.9,1.2 -1.1,2.8 -0.2,1.4 -0.25,2.75 l -0.3,3 0.1,0.25 0.1,0.2 0.05,0.2 0.05,0.25 0.05,0.2 v 0.2 q 5.75,8.7 16.8,7 Q 38.6,37.25 40.4,25.6 L 39.3,22.95 39.05,22.45 38.2,21.7 Q 37,20.6 35.4,20.25 28.8,18.8 22.25,19.4 l -7.4,1.5"
         fill="#000000"
         fill-rule="evenodd"
         stroke="none"
         id="path1" />
      <path
         d="m 73.6,13.5 q 2.55,-0.45 5,0 1.4,0.3 2.35,1.3 l 0.4,3.2 -0.05,5.35 q -0.15,1.6 -1.4,2.6 l -1.4,1.6 q -0.55,0.85 -6.4,2.2 -5.85,1.3 -10.8,-3.15 l -0.1,-0.1 0.05,-0.2 V 26.1 L 60.5,22.8 Q 59.95,21 59.85,19 l 0.25,-0.45 0.15,-0.4 0.05,-0.1 1.95,-1.4 q 5.3,-2.7 11.35,-3.15 m -55.85,9.2 v 0.05 l -2.25,0.7 -0.5,0.25 -0.25,0.25 -0.15,0.25 -0.15,0.25 -0.3,1.5 q -0.15,0.6 0,1.25 l 0.1,0.25 q 1.3,1 3.2,1.05 l 2.5,-0.15 0.15,-0.1 2.25,-1.15 0.35,-0.25 0.15,-0.25 0.2,-0.5 0.05,-0.25 0.1,-0.25 -0.05,-0.25 -0.15,-1 -0.25,-0.5 L 22.7,23.6 Q 22.1,23.15 21.4,23.05 L 17.75,22.7 m 13,0.55 -0.45,0.25 -0.45,0.35 q -0.25,0.4 -0.1,0.75 l 0.5,0.75 0.85,0.05 0.15,-0.05 0.45,-0.7 v -0.7 l -0.2,-0.2 -0.75,-0.5 M 69,17 l -0.5,0.15 -0.4,0.15 -0.4,0.2 -0.25,0.3 -0.2,0.2 -0.45,0.25 -1.45,0.75 -0.65,0.35 -0.2,0.25 -0.1,0.25 -0.05,0.25 -0.1,0.25 0.35,1 0.45,0.5 0.3,0.25 2.75,0.3 q 3.65,-0.05 4.6,-3.2 l -0.45,-1 Q 70.95,16.75 69,17 m -54.15,3.9 7.4,-1.5 q 6.55,-0.6 13.15,0.85 1.6,0.35 2.8,1.45 l 0.85,0.75 0.25,0.5 1.1,2.65 q -1.8,11.65 -13.85,13.55 -11.05,1.7 -16.8,-7 v -0.2 L 9.7,31.75 9.65,31.5 9.6,31.3 9.5,31.1 9.4,30.85 l 0.3,-3 q 0.05,-1.35 0.25,-2.75 0.2,-1.6 1.1,-2.8 1.8,-0.95 3.8,-1.4"
         fill="#000000"
         fill-opacity="0.498039"
         fill-rule="evenodd"
         stroke="none"
         id="path2" />
      <path
         d="m 69,17 q 1.95,-0.25 3.25,1.2 l 0.45,1 q -0.95,3.15 -4.6,3.2 l -2.75,-0.3 -0.3,-0.25 -0.45,-0.5 -0.35,-1 0.1,-0.25 0.05,-0.25 0.1,-0.25 0.2,-0.25 L 65.35,19 66.8,18.25 67.25,18 67.45,17.8 67.7,17.5 68.1,17.3 68.5,17.15 69,17 m -38.25,6.25 0.75,0.5 0.2,0.2 v 0.7 l -0.45,0.7 -0.15,0.05 -0.85,-0.05 -0.5,-0.75 q -0.15,-0.35 0.1,-0.75 l 0.45,-0.35 0.45,-0.25 m -13,-0.55 3.65,0.35 q 0.7,0.1 1.3,0.55 l 0.05,0.25 0.25,0.5 0.15,1 0.05,0.25 -0.1,0.25 -0.05,0.25 -0.2,0.5 -0.15,0.25 -0.35,0.25 -2.25,1.15 -0.15,0.1 -2.5,0.15 q -1.9,-0.05 -3.2,-1.05 l -0.1,-0.25 q -0.15,-0.65 0,-1.25 l 0.3,-1.5 0.15,-0.25 0.15,-0.25 0.25,-0.25 0.5,-0.25 2.25,-0.7 V 22.7"
         fill="#ffffff"
         fill-rule="evenodd"
         stroke="none"
         id="path3" />
    </g>
    <g
       id="sprite1"
       transform="translate(17.4,15.85)">
      <use
         ffdec:characterId="31"
         height="57.200001"
         transform="matrix(0.5366,0,0,0.5366,-16.6582,-14.546)"
         width="70.75"
         xlink:href="#sprite2"
         id="use3" />
    </g>
    <g
       id="sprite2"
       transform="translate(-8.65,-10.35)">
      <use
         ffdec:characterId="30"
         height="57.200001"
         transform="translate(8.65,10.35)"
         width="70.75"
         xlink:href="#shape1"
         id="use4" />
    </g>
    <g
       id="shape1"
       transform="translate(-8.65,-10.35)">
      <path
         d="m 14.8,41.7 q 0.65,-1.75 2.65,-2.5 1.8,-0.8 3.7,-0.25 1.15,0.45 2.25,1.2 l 0.9,0.4 q 1.65,0.9 2.85,2.5 L 37.8,30.1 q 2.35,-2.8 3.75,-3.95 1.5,-1.15 4.25,-2.4 18.2,-8.85 27.65,-12.6 2.15,-0.8 3.25,-0.8 h 0.8 l 1.9,2.4 -0.2,0.8 q -0.2,1.1 -1.55,3 -5.85,8.25 -18.85,23.8 -1.85,2.35 -3.35,3.5 -1.4,1.15 -4.75,2.75 l -15.15,7.15 q 1.2,1.6 1.75,3.4 l 0.2,1 0.55,2.5 q 0.1,1.95 -1.1,3.55 -1.2,1.65 -3.05,1.9 l -1.3,0.05 q -1.65,0.2 -3.45,-0.65 -1.85,-0.9 -3,-2.6 L 25,60.95 23.8,62.1 q -2.6,2.85 -4.3,3.95 -2.85,1.8 -5.5,1.45 l -1.65,-0.5 -1.2,-0.7 -0.2,-0.2 q -1,-0.85 -1.6,-1.9 L 9.25,64 9.15,63.8 8.75,62.4 q -0.2,-0.8 -0.05,-1.7 0.25,-2.65 2.7,-5.05 1.5,-1.3 4.9,-3.15 L 17.7,51.55 16.05,50 q -1.35,-1.5 -1.8,-3.6 -0.4,-1.85 0.25,-3.45 l 0.3,-1.25"
         fill="#000000"
         fill-opacity="0.372549"
         fill-rule="evenodd"
         stroke="none"
         id="path4" />
    </g>
  </defs>
</svg>
