<?xml version="1.0" encoding="UTF-8" standalone="no"?>
<svg
   ffdec:objectType="frame"
   height="77.650002"
   width="78.582024"
   version="1.1"
   id="svg5"
   xmlns:xlink="http://www.w3.org/1999/xlink"
   xmlns="http://www.w3.org/2000/svg"
   xmlns:svg="http://www.w3.org/2000/svg"
   xmlns:ffdec="https://www.free-decompiler.com/flash">
  <g
     transform="translate(36.032022,31.3)"
     id="g1">
    <use
       ffdec:characterId="17"
       height="119.15"
       id="rarity"
       transform="translate(-58.5,-60.65)"
       width="119.15"
       xlink:href="#sprite0" />
    <use
       ffdec:characterId="305"
       height="77.800003"
       transform="translate(-36.05,-31.45)"
       width="78.650002"
       xlink:href="#shape0"
       id="use1" />
  </g>
  <defs
     id="defs5">
    <g
       id="shape0"
       transform="translate(35.75,33.95)">
      <path
         d="m 27.5,-20.45 q 3.15,4.3 4.1,6.45 1.2,2.7 1.8,6.35 l 0.1,0.65 2.75,-0.05 2.5,0.15 q 0.85,0.3 2,1.25 l 1.6,1.75 q 0.4,0.7 0.5,2 V 0.65 Q 42.6,3.85 41.25,6 40,8.05 38,9.15 q -2.7,1.5 -5.95,1.25 l -0.8,-0.05 q -1.35,2.25 -3.95,5.1 -5.95,6.6 -11.4,8.7 -3.25,1.25 -9.75,1.95 l -11.05,0.35 -7,-1.1 -6.9,-1.85 -3.6,-1.1 -4.5,1.6 q 0.5,1.35 3,2.35 6.25,2.55 14.65,3.6 L 6,31.1 q 6.1,0.3 9,1.55 1.95,0.85 2.15,2.1 0.25,1.45 -1.8,2.95 -4.4,3.1 -10.9,4.6 l -12,1.55 -1.4,-0.2 q -0.5,-0.35 -0.45,-1.1 0.1,-0.65 0.6,-1.1 0.7,-0.55 2.45,-0.75 L 3.7,39.25 q 6.5,-1.35 9.45,-3.9 L -5.8,34.8 q -11.1,-0.55 -18.45,-3 -3.5,-1.2 -5.25,-2.65 -2.7,-2.1 -3.05,-4.85 -0.25,-1.9 0.55,-3.05 0.8,-1.05 2.95,-1.85 l 0.5,-0.15 -0.65,-0.55 q -2.25,-2.15 -4.45,-7 -1.55,-3.35 -1.9,-5.85 -0.9,-5.5 2.65,-12.6 4.75,-9.45 13.7,-17.1 4,-3.35 7,-4.7 l 1.6,-0.65 q 0.4,-1.3 1.45,-2.45 1.55,-1.7 3.65,-2.15 l 4.2,0.35 q 1.75,0.65 3,1.9 4.7,-0.35 8.65,0.2 8,1.15 13,5.95 l 4.15,4.95 m -15.55,-4.9 -1.8,-0.35 -5.1,-0.25 H 4.8 q 1.45,3.95 2.4,8.1 l 1.1,6.4 1.4,0.2 0.95,0.1 6.9,1.55 q 2.75,-4.65 4.05,-9.65 l -2.25,-2.2 q -2.5,-2.2 -5.1,-3.2 l -2.3,-0.7 m -38.85,20.5 q 7.3,-3.9 15.75,-5.65 6.5,-1.35 13,-1.3 l 1.9,0.05 L 3.7,-12 3.45,-13.6 3,-15.8 1.2,-20.85 -0.65,-25.4 -0.7,-25.6 q -6.05,0.7 -10.1,2.9 -2.95,1.65 -6.65,5.05 -3.75,3.4 -6.1,6.55 -1.95,2.55 -3.6,5.85 l -0.4,0.8 0.65,-0.4 m 36,5.55 q 3.1,-2.9 5.5,-5.95 L 8.75,-6.2 v 4.6 L 8.65,1.15 9.1,0.7 M 4.35,-6.3 4.3,-6.5 H 4.05 L 2.2,-5.8 q -7.95,2.65 -13.1,5.2 l -2.25,1.15 -3.45,2 q -4,2.4 -5.9,3.75 l -5.4,4.25 q 1.3,2.6 3.2,4.25 l 5.35,0.55 h 5.55 l 1.25,-0.6 Q -2.5,9.9 4.4,4.7 4.75,-0.6 4.35,-6.3 m 21.85,-5.95 -2.2,-3.9 -0.75,2.45 q -0.9,2.75 -2.2,5.35 4.05,1.75 7.5,4.65 -0.45,-4.4 -2.35,-8.55 M 11.7,9.05 Q 19.9,5.2 26.7,-0.7 L 26.55,-0.8 21.8,-3.05 18.6,-4.2 Q 15.1,1.05 9.8,5.75 l -1.85,1.6 -0.7,3.6 4.45,-1.9 M 38,-1.65 q -0.55,-0.6 -2.1,-0.6 l -1.85,0.1 Q 34.2,2.65 33,6.45 L 34,6.3 Q 34.95,6.05 36.1,5.15 L 37.6,3.8 38.15,2.6 38.6,0.4 Q 38.7,-1 38,-1.65 M 22.55,12.6 q 3.85,-4.15 5,-6.9 L 28.4,2.55 Q 19.65,10.4 6.35,14.6 l -2.2,6.6 3.4,-0.55 q 5.8,-1.15 8.85,-2.9 2.8,-1.6 6.15,-5.15 m -23.5,0.9 4.4,-1.25 0.3,-1.75 -4.7,3 m 2.9,4.8 0.55,-1.9 0.2,-0.75 -0.85,0.2 -1.65,0.4 -5.55,1 -2.55,0.2 h -0.2 l -0.15,0.05 -2.1,1.05 -2.45,1.1 -1.1,0.45 1.2,0.6 0.2,0.1 2.15,0.85 6.25,0.4 4.9,-0.4 1.15,-3.35 M -17.3,-0.8 q 4,-2.5 8.2,-4.55 l -7.3,1.8 -5.2,1.8 q -3.6,1.5 -6.15,3.4 l -1.65,1.15 -0.55,0.25 q 0,2.15 0.95,4.8 l 0.05,0.2 7,-5.75 4.65,-3.1"
         fill="#000000"
         fill-rule="evenodd"
         stroke="none"
         id="path1" />
      <path
         d="M 2.5,16.4 1.85,15.85 2.7,15.65 2.5,16.4 m -10.4,1.05 -0.35,0.05 0.15,-0.05 h 0.2 m -4.9,2.2 -0.05,0.5 0.15,0.55 -1.2,-0.6 1.1,-0.45"
         fill="#ae8eb1"
         fill-rule="evenodd"
         stroke="none"
         id="path2" />
      <path
         d="m 9.7,-11.25 q 3.95,-4.55 3.8,-8.75 -0.05,-1.65 -0.85,-3.85 l -0.7,-1.5 2.3,0.7 q 2.6,1 5.1,3.2 l 2.25,2.2 q -1.3,5 -4.05,9.65 l -6.9,-1.55 -0.95,-0.1 M 9.1,0.7 8.65,1.15 8.75,-1.6 v -4.6 l 5.85,0.95 Q 12.2,-2.2 9.1,0.7 m -20,-1.3 q 2.9,-0.3 5.85,-1.15 5.15,-1.45 9.4,-4.55 0.4,5.7 0.05,11 -6.9,5.2 -16.95,10.05 l -1.25,0.6 h -5.55 L -24.7,14.8 q -1.9,-1.65 -3.2,-4.25 l 5.4,-4.25 q 1.9,-1.35 5.9,-3.75 l 3.45,-2 2.25,-1.15 m 32.7,-2.45 4.75,2.25 0.15,0.1 Q 19.9,5.2 11.7,9.05 18.4,4 21.05,-1.3 l 0.75,-1.75 m 4.4,-9.2 q 1.9,4.15 2.35,8.55 -3.45,-2.9 -7.5,-4.65 1.3,-2.6 2.2,-5.35 l 0.75,-2.45 2.2,3.9 M 22.55,12.6 q -3.35,3.55 -6.15,5.15 -3.05,1.75 -8.85,2.9 l -3.4,0.55 2.2,-6.6 Q 19.65,10.4 28.4,2.55 L 27.55,5.7 q -1.15,2.75 -5,6.9 m -32.9,9.05 0.55,-0.05 3.25,-0.25 3.2,-0.6 2.45,-0.8 1.8,-0.8 1.05,-0.85 -1.15,3.35 -4.9,0.4 -6.25,-0.4 M -21.6,-1.75 q 2.15,0.65 4.3,0.95 l -4.65,3.1 -7,5.75 -0.05,-0.2 q -0.95,-2.65 -0.95,-4.8 l 0.55,-0.25 1.65,-1.15 q 2.55,-1.9 6.15,-3.4"
         fill="#ac7f7f"
         fill-rule="evenodd"
         stroke="none"
         id="path3" />
      <path
         d="m 9.7,-11.25 -1.4,-0.2 -1.1,-6.4 Q 6.25,-22 4.8,-25.95 h 0.25 l 5.1,0.25 1.8,0.35 0.7,1.5 q 0.8,2.2 0.85,3.85 0.15,4.2 -3.8,8.75 m -36.85,6 q 1.65,-3.3 3.6,-5.85 2.35,-3.15 6.1,-6.55 3.7,-3.4 6.65,-5.05 4.05,-2.2 10.1,-2.9 l 0.05,0.2 1.85,4.55 1.8,5.05 0.45,2.2 0.25,1.6 0.05,0.25 -1.9,-0.05 q -6.5,-0.05 -13,1.3 -8.45,1.75 -15.75,5.65 l -0.25,-0.4 M -10.9,-0.6 Q -5.75,-3.15 2.2,-5.8 L 4.05,-6.5 H 4.3 l 0.05,0.2 Q 0.1,-3.2 -5.05,-1.75 -8,-0.9 -10.9,-0.6 M 21.8,-3.05 21.05,-1.3 Q 18.4,4 11.7,9.05 l -4.45,1.9 0.7,-3.6 1.85,-1.6 q 5.3,-4.7 8.8,-9.95 l 3.2,1.15 M 2.5,16.4 1.95,18.3 0.9,19.15 l -1.8,0.8 -2.45,0.8 -3.2,0.6 -3.25,0.25 -0.55,0.05 -2.15,-0.85 -0.2,-0.1 -0.15,-0.55 0.05,-0.5 2.45,-1.1 2.1,-1.05 0.35,-0.05 2.55,-0.2 5.55,-1 1.65,-0.4 0.65,0.55 m -3.45,-2.9 4.7,-3 -0.3,1.75 -4.4,1.25 m -20.65,-15.25 5.2,-1.8 7.3,-1.8 q -4.2,2.05 -8.2,4.55 -2.15,-0.3 -4.3,-0.95"
         fill="#d4a4a4"
         fill-rule="evenodd"
         stroke="none"
         id="path4" />
    </g>
    <g
       id="sprite1"
       transform="translate(17.4,15.85)">
      <use
         ffdec:characterId="31"
         height="57.200001"
         transform="matrix(0.5366,0,0,0.5366,-16.6582,-14.546)"
         width="70.75"
         xlink:href="#sprite2"
         id="use4" />
    </g>
    <g
       id="sprite2"
       transform="translate(-8.65,-10.35)">
      <use
         ffdec:characterId="30"
         height="57.200001"
         transform="translate(8.65,10.35)"
         width="70.75"
         xlink:href="#shape1"
         id="use5" />
    </g>
    <g
       id="shape1"
       transform="translate(-8.65,-10.35)">
      <path
         d="m 14.8,41.7 q 0.65,-1.75 2.65,-2.5 1.8,-0.8 3.7,-0.25 1.15,0.45 2.25,1.2 l 0.9,0.4 q 1.65,0.9 2.85,2.5 L 37.8,30.1 q 2.35,-2.8 3.75,-3.95 1.5,-1.15 4.25,-2.4 18.2,-8.85 27.65,-12.6 2.15,-0.8 3.25,-0.8 h 0.8 l 1.9,2.4 -0.2,0.8 q -0.2,1.1 -1.55,3 -5.85,8.25 -18.85,23.8 -1.85,2.35 -3.35,3.5 -1.4,1.15 -4.75,2.75 l -15.15,7.15 q 1.2,1.6 1.75,3.4 l 0.2,1 0.55,2.5 q 0.1,1.95 -1.1,3.55 -1.2,1.65 -3.05,1.9 l -1.3,0.05 q -1.65,0.2 -3.45,-0.65 -1.85,-0.9 -3,-2.6 L 25,60.95 23.8,62.1 q -2.6,2.85 -4.3,3.95 -2.85,1.8 -5.5,1.45 l -1.65,-0.5 -1.2,-0.7 -0.2,-0.2 q -1,-0.85 -1.6,-1.9 L 9.25,64 9.15,63.8 8.75,62.4 q -0.2,-0.8 -0.05,-1.7 0.25,-2.65 2.7,-5.05 1.5,-1.3 4.9,-3.15 L 17.7,51.55 16.05,50 q -1.35,-1.5 -1.8,-3.6 -0.4,-1.85 0.25,-3.45 l 0.3,-1.25"
         fill="#000000"
         fill-opacity="0.372549"
         fill-rule="evenodd"
         stroke="none"
         id="path5" />
    </g>
  </defs>
</svg>
