<?xml version="1.0" encoding="UTF-8" standalone="no"?>
<svg
   ffdec:objectType="frame"
   height="83.148605"
   width="80.758553"
   version="1.1"
   id="svg7"
   xmlns:xlink="http://www.w3.org/1999/xlink"
   xmlns="http://www.w3.org/2000/svg"
   xmlns:svg="http://www.w3.org/2000/svg"
   xmlns:ffdec="https://www.free-decompiler.com/flash">
  <g
     transform="translate(42.053435,42.806383)"
     id="g1">
    <use
       ffdec:characterId="17"
       height="119.15"
       id="rarity"
       transform="translate(-58.5,-60.65)"
       width="119.15"
       xlink:href="#sprite0" />
    <use
       ffdec:characterId="441"
       height="83.150002"
       transform="translate(-42.05,-42.8)"
       width="80.75"
       xlink:href="#shape0"
       id="use1" />
  </g>
  <defs
     id="defs7">
    <g
       id="shape0"
       transform="translate(41.65,42)">
      <path
         d="m 26.7,-28.05 q 8.45,0.95 7.4,9.35 -0.5,3.75 -2.4,7.1 l -0.45,1.1 q 7.65,9.15 7.85,21.2 0.15,9.15 -4.1,17 -1.05,1.9 -2.7,3.3 -10.1,8.15 -23.25,9.5 -17.4,1.7 -34.5,-1.1 -5.2,-0.9 -9.95,-3.25 -6.4,-3.25 -6.25,-10.25 v -2.15 q 0.05,-7.65 3.4,-14.4 4.4,-8.9 12.25,-15 -6.5,-5.7 -0.8,-11.8 1.55,-1.65 3.75,-2.4 6.8,-2.2 13.45,0.8 0.95,0.45 2.05,0.55 3.8,0.4 7.6,0.1 0.75,-1.45 2.15,-2.65 2.35,-2.05 4.2,-4.5 v -0.2 l 0.05,-0.2 0.05,-0.2 0.1,-0.25 0.2,-0.4 0.15,-0.25 0.1,-0.6 0.2,-1.3 q 0.1,-0.95 -0.5,-1.75 L 6.45,-31.35 6.4,-31.55 6.2,-31.75 5.8,-32.2 5.5,-32.6 4.8,-33.4 4.75,-33.45 4.3,-33.6 3.9,-33.75 3,-33.9 q -1.55,4 -4.8,6.9 -7.25,6.45 -17.45,4.3 -2.8,-0.6 -4.65,-2.9 -3.05,-3.8 0,-7.75 5.6,-7.2 14.6,-8.55 4.15,-0.5 7.65,1.35 l 2.4,1.15 q 10.1,-0.05 11.4,9.75 0.55,4.65 -2.5,8.15 l -1.3,1.5 0.1,-0.05 11.65,-3.7 q 1.05,-1.65 2.7,-2.6 1.9,-1.15 3.9,-1.7 M 26.1,-7.85 26,-8 q -0.5,-0.6 -0.45,-1.45 0.05,-1.75 0.35,-3.4 0.6,-3.3 2.3,-6.35 l 0.45,-1.4 -0.65,-1.3 q -0.35,-0.5 -0.8,-0.25 -11.4,6.6 -24.4,9.6 l 0.1,0.25 0.5,1.25 q 0.55,1.15 1.9,1.55 l 0.15,0.2 0.15,0.2 0.05,0.25 v 0.2 0.2 L 5.5,-8.05 5.15,-7.6 4.8,-7.35 H 4.45 L 3.85,-7.5 2.25,-7.95 q -2.15,-1.65 -2.85,-4 -6.6,0.7 -12.9,-1.6 -3.5,-1.3 -7,-0.5 -1.9,0.45 -2.7,2.1 3,2.3 5.05,5.55 0.35,0.6 0.15,1.3 -0.65,2.05 -2.65,2.8 l -4.5,3.95 Q -19.4,0.2 -13.6,-0.4 l 2.05,-3.05 0.2,-0.05 0.35,-0.05 V -3.6 l 0.5,0.15 0.35,0.25 0.3,0.4 0.05,0.2 -0.15,2.05 4.15,0.35 0.05,-0.3 0.7,-1.3 0.05,-1.05 q 0.05,-0.65 0.45,-1.1 l 0.3,-0.15 0.7,-0.25 0.55,0.15 q 1.25,1.15 1.05,3 -0.1,0.8 -0.55,1.5 l 0.05,0.3 Q 1.8,1.9 5.5,4.7 L 7.3,6.15 Q 7.65,6.45 7.65,7 l -0.1,1.4 q -0.25,2.8 -1.1,5.45 l -0.05,1.5 -0.45,3.5 0.65,0.1 q 0.85,0.2 1.55,0.65 l 0.25,0.2 0.1,0.15 q 0.15,-3.5 0.9,-7.1 V 12 l 0.15,-0.85 0.1,-0.2 0.15,-0.25 0.7,-2.55 0.15,-0.55 0.45,-1.8 0.2,-0.25 0.25,-0.2 0.1,-0.4 0.1,-0.45 0.15,-0.2 0.4,-0.45 q 1.95,-3.15 4.15,-6.15 0.65,-0.85 1.45,-1.15 0.5,0.15 0.65,0.6 l 0.05,0.4 q -1.55,2.35 -2.8,4.9 l -1.3,3.05 -0.95,3 -0.25,4.55 -0.55,2.55 0.4,7.05 0.4,3.65 q 1.4,3.05 2.15,6.2 l 3.1,-0.8 q 8.6,-2.25 12.25,-9.8 0.9,-1.9 1.3,-4.1 1.1,-6.2 0.2,-12.45 L 32.1,3.4 q -1.85,-6.2 -6,-11.25 M -0.05,27.4 0,27.15 0.1,26.75 0.2,26.1 q -0.05,-0.45 0.05,-0.85 0.1,-0.5 0.4,-0.85 L 0.7,24.15 V 23.3 l 0.25,-0.9 0.2,-0.3 q -1.3,-0.5 -1.05,-2 L 0.2,19.9 0.3,19.65 0.7,19.3 1.3,18.9 1.6,18.85 1.8,18.8 1.9,17.95 2.15,16.45 2.45,15.6 v -0.25 l 0.15,-1.7 0.25,-2.6 Q 2.95,9.6 3.6,8.3 0.4,6.05 -3.15,4.95 l -0.95,1.8 2.75,-0.4 q 5.1,1.85 2.85,7.3 -0.9,2.2 -3.15,3.2 -2.3,1 -4.45,1.2 0.65,0.65 1.2,1.6 3.05,5.05 -1.2,8 l 6.05,-0.25 m -34.65,0.85 q 0.5,1.5 1.95,2.3 5.4,3 11.45,3.75 16.1,2 31.75,-0.75 -2,-6.1 -1.95,-12.4 Q 7.55,23 5.1,22.9 L 4,26.3 v 0.25 0.85 l -0.25,0.8 q -0.3,0.65 -0.25,1.35 v 0.6 L 3.45,30.4 3.3,30.6 3.2,30.8 3.1,31.05 q -6.45,1.5 -13.45,0.95 l -5.6,-0.5 -1.2,1.75 -0.3,0.2 -0.4,0.15 -0.5,-0.15 -1,-2.4 -3.65,-0.55 -3.95,-0.65 q -4.6,-0.8 -8.2,-3.35 l 0.45,1.75 M -8.55,-36.4 q -5.25,1 -9.35,4.4 -1.3,1.1 -2.05,2.7 l 0.35,0.4 0.25,0.25 0.35,0.35 q 7.05,2.25 12.95,-1.3 1.85,-1.15 3.3,-2.85 l 0.05,-0.2 -5.9,1.95 -1.4,0.5 -0.5,0.45 -0.2,0.15 -0.95,0.05 q -0.55,-0.1 -0.7,-0.65 1.25,-1.75 3.1,-2.75 2.2,-1.65 5.1,-2.45 l 0.6,-0.15 Q -4.8,-36.2 -6.3,-36.4 H -8.55 M -11.7,6.3 q -0.25,0.6 -0.95,0.4 l -0.65,-0.25 -0.55,0.9 -1.6,1.9 0.05,0.3 0.05,0.1 q 1.85,0.2 3.15,1.25 l 0.6,-0.5 0.75,-0.95 0.5,-0.8 0.2,-0.2 L -9.9,8.2 -9.85,8 -9.8,7.8 V 7.6 l 0.2,-0.25 0.2,-0.2 V 6.95 6.7 6.3 5.85 L -10,5.6 -11.35,5.5 -11.7,6.3 M -7.55,3.95 H -7.6 V 4 L -7.55,3.95 M -6.95,7.6 -7.1,7.45 -7.2,7.7 -6.95,7.6 m -3.3,6.1 q 0.25,0.65 0.35,1.35 2.95,-1.15 6.5,-1.1 0.6,0 1.15,-0.35 1.1,-0.65 1.25,-1.9 l -0.05,-0.2 -0.1,-0.4 -0.1,-0.65 V 10.2 L -1.4,10 -1.6,9.8 -1.7,9.65 -3.85,9.6 q -4.25,0.4 -6.9,3.1 l 0.5,1 M -16,4.25 -18.65,4.8 q 1.05,0.6 1.8,1.55 l 1.9,-2 L -15,4.1 -16,4.25 m -2.5,5.55 h 0.1 L -18.8,9.1 -19.5,8 -19.65,7.8 -19.95,7.6 -20.85,7 -21,6.95 -22.65,7.1 -23.5,7.3 -24.45,8.1 -25,9.2 v 0.25 0.2 0.45 l 0.1,0.2 0.1,0.2 v 0.2 l 0.9,0.75 0.45,0.3 q 1.85,-1.6 4.95,-1.95 m 0.15,3.3 -1.85,0.55 -0.95,0.3 -0.8,0.85 -0.75,1.05 -0.05,0.25 -0.05,0.4 v 0.25 0.2 l 0.4,0.4 0.7,0.45 q 3.35,0.45 6.7,0 l 0.6,-0.3 0.6,-0.25 0.3,-0.25 0.2,-0.2 0.15,-0.2 0.1,-0.65 0.15,-0.65 0.05,-0.65 -0.25,-0.4 -0.45,-0.45 -0.3,-0.2 q -2.15,-0.9 -4.5,-0.5 m 4.15,7.8 -0.35,0.1 1.6,1.9 2.3,2.05 q 1.4,0.9 2.8,0 l 0.3,-0.25 0.4,-0.6 0.1,-0.2 Q -7,23.2 -7.25,22.6 -7.65,21.55 -8.4,20.65 l -0.1,-0.2 -1.05,-0.85 -1,-1.2 -0.2,-0.05 q -1.1,1.8 -3.45,2.55 m -2.1,3.1 -0.05,-0.1 -0.1,0.1 -0.65,0.75 q 1.6,1.05 1.9,2.7 l 3.35,0.15 h 0.1 l -0.1,-0.05 Q -14.4,26.5 -16.3,24 m -15.35,-13.8 -1.5,3 q 1.4,-1.4 3.3,-2.1 1.2,-0.4 2,-0.9 V 9.35 8.3 l 0.1,-0.65 0.15,-0.2 0.15,-0.2 q -1.55,0.5 -3.1,1.15 l -1.1,1.8 m 5.65,6.1 0.55,-1.7 -0.8,-0.55 -0.35,-0.4 q -2.05,-0.35 -3.85,1 l -0.35,0.45 -0.8,0.85 -0.2,0.2 -0.1,0.2 -0.05,0.25 -0.1,0.4 -0.1,0.25 v 0.2 0.65 0.65 0.2 l 0.1,0.2 0.3,0.4 0.4,0.45 q 2.2,0.7 4.35,-0.55 l 0.4,-0.2 0.85,-0.9 0.2,-0.15 Q -26.2,17.45 -26,16.3 m -9.25,3.7 q -0.35,2.15 -0.25,4.2 l 8.8,1.85 -0.4,-0.7 q -0.4,-1.05 -0.2,-2.2 v -0.2 q -6.8,1.9 -7.6,-4.4 v -0.1 L -35.25,20 m 11.6,1 -0.3,0.45 q 0,0.45 -0.15,0.8 l -0.5,1.05 q -0.2,0.45 0.25,0.7 3.95,0.4 5.9,-2.6 Q -21,21.25 -23.1,20.05 L -23.65,21 m 4.15,5.6 0.05,-0.15 -1.25,0.5 1.15,0.1 0.05,-0.45"
         fill="#000000"
         fill-rule="evenodd"
         stroke="none"
         id="path1" />
      <path
         d="M 7.55,8.4 7.65,7 Q 7.65,6.45 7.3,6.15 L 5.5,4.7 Q 1.8,1.9 -2.45,0.6 L -2.5,0.3 q 0.45,-0.7 0.55,-1.5 0.2,-1.85 -1.05,-3 l -0.55,-0.15 -0.7,0.25 -0.3,0.15 q -0.4,0.45 -0.45,1.1 l -0.05,1.05 -0.7,1.3 -0.05,0.3 -4.15,-0.35 0.15,-2.05 -0.05,-0.2 -0.3,-0.4 -0.35,-0.25 -0.5,-0.15 v 0.05 l -0.35,0.05 -0.2,0.05 -2.05,3.05 q -5.8,0.6 -11.55,2.05 l 4.5,-3.95 q 2,-0.75 2.65,-2.8 0.2,-0.7 -0.15,-1.3 -2.05,-3.25 -5.05,-5.55 0.8,-1.65 2.7,-2.1 3.5,-0.8 7,0.5 6.3,2.3 12.9,1.6 0.7,2.35 2.85,4 l 1.6,0.45 0.6,0.15 H 4.8 L 5.15,-7.6 5.5,-8.05 5.65,-8.45 v -0.2 -0.2 L 5.6,-9.1 5.45,-9.3 5.3,-9.5 Q 3.95,-9.9 3.4,-11.05 L 2.9,-12.3 2.8,-12.55 q 13,-3 24.4,-9.6 0.45,-0.25 0.8,0.25 l 0.65,1.3 -0.45,1.4 q -1.7,3.05 -2.3,6.35 -0.3,1.65 -0.35,3.4 Q 25.5,-8.6 26,-8 l 0.1,0.15 q -0.85,1.3 -2.5,2.45 -1.75,1.2 -3.15,2.7 L 15.8,2.45 q 1.25,-2.55 2.8,-4.9 l -0.05,-0.4 q -0.15,-0.45 -0.65,-0.6 -0.8,0.3 -1.45,1.15 -2.2,3 -4.15,6.15 L 11.9,4.3 11.75,4.5 11.65,4.95 11.55,5.35 11.3,5.55 11.1,5.8 10.65,7.6 10.5,8.15 7.55,8.4 m -7.6,19 -6.05,0.25 q 4.25,-2.95 1.2,-8 -0.55,-0.95 -1.2,-1.6 2.15,-0.2 4.45,-1.2 2.25,-1 3.15,-3.2 2.25,-5.45 -2.85,-7.3 l -2.75,0.4 0.95,-1.8 Q 0.4,6.05 3.6,8.3 2.95,9.6 2.85,11.05 l -0.25,2.6 -0.15,1.7 V 15.6 L 2.15,16.45 1.9,17.95 1.8,18.8 1.6,18.85 1.3,18.9 0.7,19.3 0.3,19.65 0.2,19.9 0.1,20.1 q -0.25,1.5 1.05,2 l -0.2,0.3 -0.25,0.9 v 0.85 L 0.65,24.4 q -0.3,0.35 -0.4,0.85 -0.1,0.4 -0.05,0.85 L 0.1,26.75 0,27.15 -0.05,27.4 M -16,4.25 l 1,-0.15 0.05,0.25 -1.9,2 Q -17.6,5.4 -18.65,4.8 L -16,4.25 M -16.45,24 h 0.15 q 1.9,2.5 4.45,3.55 v 0.05 l -3.35,-0.15 q -0.3,-1.65 -1.9,-2.7 L -16.45,24 m -15.2,-13.8 1.1,-1.8 q 1.55,-0.65 3.1,-1.15 l -0.15,0.2 -0.15,0.2 -0.1,0.65 v 1.05 0.85 q -0.8,0.5 -2,0.9 -1.9,0.7 -3.3,2.1 l 1.5,-3 m -3.6,9.8 0.35,-1.55 v 0.1 q 0.8,6.3 7.6,4.4 v 0.2 q -0.2,1.15 0.2,2.2 l 0.4,0.7 -8.8,-1.85 q -0.1,-2.05 0.25,-4.2 m 15.75,6.6 -0.05,0.45 -1.15,-0.1 1.25,-0.5 -0.05,0.15"
         fill="#8a8581"
         fill-rule="evenodd"
         stroke="none"
         id="path2" />
      <path
         d="M 7.55,8.4 10.5,8.15 9.8,10.7 9.65,10.95 9.55,11.15 9.4,12 v 0.85 q -0.75,3.6 -0.9,7.1 L 8.4,19.8 8.15,19.6 Q 7.45,19.15 6.6,18.95 l -0.65,-0.1 0.45,-3.5 0.05,-1.5 Q 7.3,11.2 7.55,8.4 M 15.8,2.45 20.45,-2.7 q 1.4,-1.5 3.15,-2.7 1.65,-1.15 2.5,-2.45 4.15,5.05 6,11.25 l 0.45,1.95 q 0.9,6.25 -0.2,12.45 -0.4,2.2 -1.3,4.1 -3.65,7.55 -12.25,9.8 l -3.1,0.8 q -0.75,-3.15 -2.15,-6.2 l -0.4,-3.65 -0.4,-7.05 0.55,-2.55 0.25,-4.55 0.95,-3 1.3,-3.05 m -50.5,25.8 -0.45,-1.75 q 3.6,2.55 8.2,3.35 l 3.95,0.65 3.65,0.55 1,2.4 0.5,0.15 0.4,-0.15 0.3,-0.2 1.2,-1.75 5.6,0.5 q 7,0.55 13.45,-0.95 L 3.2,30.8 3.3,30.6 3.45,30.4 3.5,30.15 v -0.6 Q 3.45,28.85 3.75,28.2 L 4,27.4 V 26.55 26.3 l 1.1,-3.4 q 2.45,0.1 3.4,-1.75 -0.05,6.3 1.95,12.4 -15.65,2.75 -31.75,0.75 -6.05,-0.75 -11.45,-3.75 -1.45,-0.8 -1.95,-2.3"
         fill="#6d6864"
         fill-rule="evenodd"
         stroke="none"
         id="path3" />
      <path
         d="m -11.7,6.3 0.35,-0.8 1.35,0.1 0.6,0.25 V 6.3 6.7 6.95 7.15 L -9.6,7.35 -9.8,7.6 V 7.8 L -9.85,8 -9.9,8.2 l -0.25,0.25 -0.2,0.2 -0.5,0.8 -0.75,0.95 -0.6,0.5 q -1.3,-1.05 -3.15,-1.25 l -0.05,-0.1 -0.05,-0.3 1.6,-1.9 0.55,-0.9 0.65,0.25 q 0.7,0.2 0.95,-0.4 m 1.45,7.4 -0.5,-1 Q -8.1,10 -3.85,9.6 l 2.15,0.05 0.1,0.15 0.2,0.2 0.15,0.2 v 0.25 l 0.1,0.65 0.1,0.4 0.05,0.2 q -0.15,1.25 -1.25,1.9 -0.55,0.35 -1.15,0.35 -3.55,-0.05 -6.5,1.1 -0.1,-0.7 -0.35,-1.35 M -18.5,9.8 q -3.1,0.35 -4.95,1.95 l -0.45,-0.3 -0.9,-0.75 V 10.5 L -24.9,10.3 -25,10.1 V 9.65 9.45 9.2 l 0.55,-1.1 0.95,-0.8 0.85,-0.2 1.65,-0.15 0.15,0.05 0.9,0.6 0.3,0.2 0.15,0.2 0.7,1.1 0.4,0.7 h -0.1 m 4.3,11.1 q 2.35,-0.75 3.45,-2.55 l 0.2,0.05 1,1.2 1.05,0.85 0.1,0.2 q 0.75,0.9 1.15,1.95 0.25,0.6 0.2,1.3 l -0.1,0.2 -0.4,0.6 -0.3,0.25 q -1.4,0.9 -2.8,0 l -2.3,-2.05 -1.6,-1.9 0.35,-0.1 M -26,16.3 q -0.2,1.15 0.45,1.9 l -0.2,0.15 -0.85,0.9 -0.4,0.2 q -2.15,1.25 -4.35,0.55 l -0.4,-0.45 -0.3,-0.4 -0.1,-0.2 v -0.2 -0.65 -0.65 -0.2 l 0.1,-0.25 0.1,-0.4 0.05,-0.25 0.1,-0.2 0.2,-0.2 0.8,-0.85 0.35,-0.45 q 1.8,-1.35 3.85,-1 l 0.35,0.4 0.8,0.55 -0.55,1.7 m 2.35,4.7 0.55,-0.95 q 2.1,1.2 4.65,1.35 -1.95,3 -5.9,2.6 -0.45,-0.25 -0.25,-0.7 l 0.5,-1.05 q 0.15,-0.35 0.15,-0.8 l 0.3,-0.45"
         fill="#e5e5e5"
         fill-rule="evenodd"
         stroke="none"
         id="path4" />
      <path
         d="m -8.55,-36.4 h 2.25 q 1.5,0.2 2.75,0.85 l -0.6,0.15 q -2.9,0.8 -5.1,2.45 -1.85,1 -3.1,2.75 0.15,0.55 0.7,0.65 l 0.95,-0.05 0.2,-0.15 0.5,-0.45 1.4,-0.5 5.9,-1.95 -0.05,0.2 q -1.45,1.7 -3.3,2.85 -5.9,3.55 -12.95,1.3 l -0.35,-0.35 -0.25,-0.25 -0.35,-0.4 q 0.75,-1.6 2.05,-2.7 4.1,-3.4 9.35,-4.4"
         fill="#97ba8f"
         fill-rule="evenodd"
         stroke="none"
         id="path5" />
      <path
         d="m -18.35,13.1 q 2.35,-0.4 4.5,0.5 l 0.3,0.2 0.45,0.45 0.25,0.4 -0.05,0.65 -0.15,0.65 -0.1,0.65 -0.15,0.2 -0.2,0.2 -0.3,0.25 -0.6,0.25 -0.6,0.3 q -3.35,0.45 -6.7,0 l -0.7,-0.45 -0.4,-0.4 v -0.2 -0.25 l 0.05,-0.4 0.05,-0.25 0.75,-1.05 0.8,-0.85 0.95,-0.3 1.85,-0.55"
         fill="#d0c89a"
         fill-rule="evenodd"
         stroke="none"
         id="path6" />
    </g>
    <g
       id="sprite1"
       transform="translate(17.4,15.85)">
      <use
         ffdec:characterId="31"
         height="57.200001"
         transform="matrix(0.5366,0,0,0.5366,-16.6582,-14.546)"
         width="70.75"
         xlink:href="#sprite2"
         id="use6" />
    </g>
    <g
       id="sprite2"
       transform="translate(-8.65,-10.35)">
      <use
         ffdec:characterId="30"
         height="57.200001"
         transform="translate(8.65,10.35)"
         width="70.75"
         xlink:href="#shape1"
         id="use7" />
    </g>
    <g
       id="shape1"
       transform="translate(-8.65,-10.35)">
      <path
         d="m 14.8,41.7 q 0.65,-1.75 2.65,-2.5 1.8,-0.8 3.7,-0.25 1.15,0.45 2.25,1.2 l 0.9,0.4 q 1.65,0.9 2.85,2.5 L 37.8,30.1 q 2.35,-2.8 3.75,-3.95 1.5,-1.15 4.25,-2.4 18.2,-8.85 27.65,-12.6 2.15,-0.8 3.25,-0.8 h 0.8 l 1.9,2.4 -0.2,0.8 q -0.2,1.1 -1.55,3 -5.85,8.25 -18.85,23.8 -1.85,2.35 -3.35,3.5 -1.4,1.15 -4.75,2.75 l -15.15,7.15 q 1.2,1.6 1.75,3.4 l 0.2,1 0.55,2.5 q 0.1,1.95 -1.1,3.55 -1.2,1.65 -3.05,1.9 l -1.3,0.05 q -1.65,0.2 -3.45,-0.65 -1.85,-0.9 -3,-2.6 L 25,60.95 23.8,62.1 q -2.6,2.85 -4.3,3.95 -2.85,1.8 -5.5,1.45 l -1.65,-0.5 -1.2,-0.7 -0.2,-0.2 q -1,-0.85 -1.6,-1.9 L 9.25,64 9.15,63.8 8.75,62.4 q -0.2,-0.8 -0.05,-1.7 0.25,-2.65 2.7,-5.05 1.5,-1.3 4.9,-3.15 L 17.7,51.55 16.05,50 q -1.35,-1.5 -1.8,-3.6 -0.4,-1.85 0.25,-3.45 l 0.3,-1.25"
         fill="#000000"
         fill-opacity="0.372549"
         fill-rule="evenodd"
         stroke="none"
         id="path7" />
    </g>
  </defs>
</svg>
