<?xml version="1.0" encoding="UTF-8" standalone="no"?>
<svg
   ffdec:objectType="frame"
   height="64.900002"
   width="50.898754"
   version="1.1"
   id="svg5"
   sodipodi:docname="ITEM Experimental Treatment (head).svg"
   xmlns:inkscape="http://www.inkscape.org/namespaces/inkscape"
   xmlns:sodipodi="http://sodipodi.sourceforge.net/DTD/sodipodi-0.dtd"
   xmlns:xlink="http://www.w3.org/1999/xlink"
   xmlns="http://www.w3.org/2000/svg"
   xmlns:svg="http://www.w3.org/2000/svg"
   xmlns:ffdec="https://www.free-decompiler.com/flash">
  <sodipodi:namedview
     id="namedview5"
     pagecolor="#ffffff"
     bordercolor="#000000"
     borderopacity="0.25"
     inkscape:showpageshadow="2"
     inkscape:pageopacity="0.0"
     inkscape:pagecheckerboard="0"
     inkscape:deskcolor="#d1d1d1"
     fit-margin-top="5"
     fit-margin-left="5"
     fit-margin-right="5"
     fit-margin-bottom="5" />
  <g
     transform="translate(26.151613,37.05)"
     id="g1">
    <use
       ffdec:characterId="17"
       height="119.15"
       id="rarity"
       transform="translate(-58.5,-60.65)"
       width="119.15"
       xlink:href="#sprite0" />
    <use
       ffdec:characterId="1206"
       height="64.900002"
       transform="translate(-26.15,-37.05)"
       width="50.900002"
       xlink:href="#shape0"
       id="use1" />
  </g>
  <defs
     id="defs5">
    <g
       id="shape0"
       transform="translate(24.85,35.15)">
      <path
         d="m 4.05,-18.45 v 0.15 0.35 0.65 l -0.25,1.1 v 6.5 l 0.25,-0.1 2.65,-0.35 h 0.5 l 3.8,-0.4 0.8,0.05 h 0.55 l -0.05,-0.65 -0.05,-3.2 -3,-0.3 q -2.75,-0.35 -2,-2.95 0.45,-1.4 2,-1.5 l 5.15,-0.65 q 1.55,-0.05 2.95,0.5 l 1,0.8 0.7,0.5 0.45,0.65 0.25,0.45 v 0.2 0.15 0.15 0.15 q -1.15,1.35 -2.85,1.8 l -0.15,1.7 -0.45,2.15 6.85,-0.75 q 3.9,0.55 2.55,3.95 -0.45,1.15 -1.7,1.15 h -0.35 l -0.85,0.6 -0.05,2.05 Q 22.4,-1.3 22.4,1 l 0.15,4.4 q 1.1,4.85 -0.5,9.4 -0.2,0.5 -0.75,0.5 l -5,0.35 -0.1,1.55 q -0.35,1.95 -0.05,3.85 0.55,3.4 -0.7,6.4 L 15.2,27.6 14.85,27.7 14.4,27.6 Q 10.95,22.4 10.95,15.95 L 8.6,16.05 7.1,15.75 Q 4.4,14.6 5.2,11.5 L 5.25,10.9 5,-1.7 4.9,-4.3 v -1.2 l -1.25,-0.2 -0.1,2.15 0.3,6.6 0.25,3.75 q 0.3,4.15 -1.75,7.4 -0.3,0.5 -0.95,0.6 l -2.6,0.05 -2.2,0.55 q 0.45,1.25 0.2,3 l -0.1,2.4 -0.05,2.45 q 0.4,1.6 0.55,3.25 0.1,1.35 -0.5,2.65 l -0.65,0.4 -0.7,0.2 q -2.7,-1.7 -3.15,-5.2 l -0.8,-8.5 q -2.7,0.2 -5.35,0.05 -1.75,-0.1 -2.2,-1.75 -1.2,-4.15 -1.9,-8.5 l -1.7,-9.65 q -1.05,-5.65 -0.75,-11.25 l -2.9,-0.7 q -1.5,-0.55 -1.45,-2.05 0.05,-3 3.2,-3.65 l 9.3,-1.15 1.7,-0.05 q -0.65,-1.5 -0.85,-3.15 l -0.45,-2.95 q -2.7,0.5 -4.5,-1.55 -0.95,-1.1 -0.3,-2.4 0.9,-1.9 3.2,-1.8 l 9.15,-0.65 q 3.95,0.65 2.25,4.15 -0.7,1.5 -2.5,1.65 l -1.7,0.5 0.15,1.9 q 0.3,1.25 0,2.5 l 0.25,1.55 9.05,-0.9 q 4.15,-0.25 3.55,3.45 -0.25,1.4 -1.75,1.65 l -0.75,0.15 -0.1,0.1 m 13.85,19.3 -0.2,-5.8 v -0.1 -0.05 h -0.5 q -2.95,0.75 -6.05,0.85 -1.1,0 -1.8,0.4 0.5,2.1 0.5,4.4 V 0.7 Q 9.9,5.05 9.45,9.35 l 0.2,0.5 0.05,0.3 0.05,0.5 v 0.2 l 8.8,-0.45 V 10.25 10.05 9.9 9.75 L 18.05,4.2 17.9,0.85 M -0.25,-4.45 Q 0,-8.8 -0.2,-13.2 v -4 l -0.9,-0.05 -0.1,0.05 -10.9,1.55 q -1.8,0.2 -3.4,0.9 0.45,5.1 1.25,10.1 l 0.2,1.1 q 1.15,7.15 2.8,14.3 h 0.1 L -4.5,10 -1.7,9.55 h 0.15 L -1.5,9.5 -0.65,9.2 Q -0.95,4.1 -0.5,-0.95 l 0.25,-3.5"
         fill="#000000"
         fill-rule="evenodd"
         stroke="none"
         id="path1" />
      <path
         d="M -14.05,-3.55 V -3.6 l 1,-0.6 7.7,-0.9 q 2.55,-0.2 4.95,0.6 l 0.15,0.05 -0.25,3.5 Q -0.95,4.1 -0.65,9.2 L -1.5,9.5 -1.55,9.55 H -1.7 l -2.8,0.45 -6.65,0.75 h -0.1 q -1.65,-7.15 -2.8,-14.3"
         fill="#c8c39e"
         fill-rule="evenodd"
         stroke="none"
         id="path2" />
      <path
         d="m 9.85,0.7 1.1,-0.2 h 0.4 l 6.55,0.35 0.15,3.35 0.5,5.55 v 0.15 0.15 0.2 0.15 l -8.8,0.45 v -0.2 L 9.7,10.15 9.65,9.85 9.45,9.35 Q 9.9,5.05 9.85,0.7"
         fill="#ffffff"
         fill-rule="evenodd"
         stroke="none"
         id="path3" />
      <path
         d="M 9.85,0.7 V 0.55 q 0,-2.3 -0.5,-4.4 0.7,-0.4 1.8,-0.4 3.1,-0.1 6.05,-0.85 h 0.5 v 0.05 0.1 l 0.2,5.8 -6.55,-0.35 h -0.4 l -1.1,0.2 m -23.9,-4.25 -0.2,-1.1 q -0.8,-5 -1.25,-10.1 1.6,-0.7 3.4,-0.9 l 10.9,-1.55 0.1,-0.05 0.9,0.05 v 4 Q 0,-8.8 -0.25,-4.45 L -0.4,-4.5 q -2.4,-0.8 -4.95,-0.6 l -7.7,0.9 -1,0.6 v 0.05"
         fill="#ffffff"
         fill-opacity="0"
         fill-rule="evenodd"
         stroke="none"
         id="path4" />
    </g>
    <g
       id="sprite1"
       transform="translate(17.4,15.85)">
      <use
         ffdec:characterId="31"
         height="57.200001"
         transform="matrix(0.5366,0,0,0.5366,-16.6582,-14.546)"
         width="70.75"
         xlink:href="#sprite2"
         id="use4" />
    </g>
    <g
       id="sprite2"
       transform="translate(-8.65,-10.35)">
      <use
         ffdec:characterId="30"
         height="57.200001"
         transform="translate(8.65,10.35)"
         width="70.75"
         xlink:href="#shape1"
         id="use5" />
    </g>
    <g
       id="shape1"
       transform="translate(-8.65,-10.35)">
      <path
         d="m 14.8,41.7 q 0.65,-1.75 2.65,-2.5 1.8,-0.8 3.7,-0.25 1.15,0.45 2.25,1.2 l 0.9,0.4 q 1.65,0.9 2.85,2.5 L 37.8,30.1 q 2.35,-2.8 3.75,-3.95 1.5,-1.15 4.25,-2.4 18.2,-8.85 27.65,-12.6 2.15,-0.8 3.25,-0.8 h 0.8 l 1.9,2.4 -0.2,0.8 q -0.2,1.1 -1.55,3 -5.85,8.25 -18.85,23.8 -1.85,2.35 -3.35,3.5 -1.4,1.15 -4.75,2.75 l -15.15,7.15 q 1.2,1.6 1.75,3.4 l 0.2,1 0.55,2.5 q 0.1,1.95 -1.1,3.55 -1.2,1.65 -3.05,1.9 l -1.3,0.05 q -1.65,0.2 -3.45,-0.65 -1.85,-0.9 -3,-2.6 L 25,60.95 23.8,62.1 q -2.6,2.85 -4.3,3.95 -2.85,1.8 -5.5,1.45 l -1.65,-0.5 -1.2,-0.7 -0.2,-0.2 q -1,-0.85 -1.6,-1.9 L 9.25,64 9.15,63.8 8.75,62.4 q -0.2,-0.8 -0.05,-1.7 0.25,-2.65 2.7,-5.05 1.5,-1.3 4.9,-3.15 L 17.7,51.55 16.05,50 q -1.35,-1.5 -1.8,-3.6 -0.4,-1.85 0.25,-3.45 l 0.3,-1.25"
         fill="#000000"
         fill-opacity="0.372549"
         fill-rule="evenodd"
         stroke="none"
         id="path5" />
    </g>
  </defs>
</svg>
