<?xml version="1.0" encoding="UTF-8" standalone="no"?>
<svg
   ffdec:objectType="frame"
   height="94.199997"
   width="91.28212"
   version="1.1"
   id="svg4"
   sodipodi:docname="ITEM Witch's Hat.svg"
   xmlns:inkscape="http://www.inkscape.org/namespaces/inkscape"
   xmlns:sodipodi="http://sodipodi.sourceforge.net/DTD/sodipodi-0.dtd"
   xmlns:xlink="http://www.w3.org/1999/xlink"
   xmlns="http://www.w3.org/2000/svg"
   xmlns:svg="http://www.w3.org/2000/svg"
   xmlns:ffdec="https://www.free-decompiler.com/flash">
  <sodipodi:namedview
     id="namedview4"
     pagecolor="#ffffff"
     bordercolor="#000000"
     borderopacity="0.25"
     inkscape:showpageshadow="2"
     inkscape:pageopacity="0.0"
     inkscape:pagecheckerboard="0"
     inkscape:deskcolor="#d1d1d1"
     fit-margin-top="5"
     fit-margin-left="5"
     fit-margin-right="5"
     fit-margin-bottom="5" />
  <g
     transform="translate(46.266327,48.3)"
     id="g1">
    <use
       ffdec:characterId="17"
       height="119.15"
       id="rarity"
       transform="translate(-58.5,-60.65)"
       width="119.15"
       xlink:href="#sprite0" />
    <use
       ffdec:characterId="1270"
       height="94.449997"
       transform="translate(-46.25,-48.5)"
       width="91.25"
       xlink:href="#shape0"
       id="use1" />
  </g>
  <defs
     id="defs4">
    <g
       id="shape0"
       transform="translate(44.95,46.6)">
      <path
         d="M 17.25,-10.9 18.7,-5.45 21.35,4.7 22.15,4.5 27.3,3.35 31.95,2.6 q 2.6,-0.1 4.45,0.75 1.35,0.65 3,2.2 l 2.65,2.65 2.55,2.3 q 1.4,1.4 1.65,2.8 0.25,1.25 -0.45,3.65 l -1.05,3.45 -1.85,5.55 q -2.3,5.45 -6.6,8.95 -2.65,2.2 -8.75,5 -4.4,2 -7.3,3 l -4.75,1.55 -7.75,2 -7,0.7 -8.4,0.5 -6.4,0.15 q -5.35,-0.2 -12.15,-2.35 -4.2,-1.3 -6.5,-2.75 -2.55,-1.55 -6,-5.2 l -3.8,-4.45 q -2.35,-3.2 -2.45,-5.45 -0.2,-2.65 2.05,-5.8 3.2,-4.55 8.95,-7.5 4.7,-2.35 11.15,-3.6 l 2.6,-0.25 q 2.2,-8.3 3.55,-16.8 0.4,-2.65 0.15,-3.95 -0.15,-1.15 -0.85,-3.4 -0.3,-1.9 0.45,-4 0.35,-1 0.25,-1.35 l -0.4,-0.65 -0.55,-0.55 q -0.5,-0.5 -1.05,-1.75 -0.55,-1.3 -1,-1.8 -0.35,-0.45 -1.05,-0.85 l -1.15,-0.75 -3.05,-3 q -1.95,-2.25 -2.45,-3.65 -0.4,-1.15 -0.4,-3.3 l -0.2,-3.35 -0.6,-2 -0.6,-2.05 q -0.15,-1.15 0.2,-2.1 0.4,-1.1 1.3,-1.55 l 2.95,0.25 2.8,1.55 2.7,1.65 q 1.4,0.75 3.45,1.55 l 3.55,1.25 q 3.35,1.2 10.7,4.9 4.5,2.2 6.75,3.9 4.15,3.25 7.45,8.95 1.75,2.95 2.8,5.75 l 1.75,5.75 m -38.6,-22.5 0.3,0.5 q 0.85,1.2 3.2,2.85 2.35,1.7 3.2,2.85 l 1.05,1.7 1,1.65 1.05,1.25 0.1,0.1 1.2,0.05 3,-0.4 1.05,-0.5 1.15,-0.05 q 0.7,0.25 0.7,1.05 0,0.85 -1.05,1.4 l -1.7,0.65 -0.8,0.25 -0.95,0.35 -1.75,1.05 -0.15,0.65 -0.45,3.3 0.25,1.2 0.3,1.2 q 0.2,0.7 0.25,1.65 l 0.3,0.2 2.55,1.85 0.5,0.35 0.7,0.65 0.7,1.25 q 0.4,0.7 0.15,1.15 -0.35,0.55 -1.25,0.3 l -0.5,-0.15 -1.65,-0.6 -0.15,-0.05 -1.25,-0.6 -0.35,-0.15 -0.05,0.5 q -1.7,12.9 -5.55,25.75 -0.45,1.4 -0.3,2.25 l 0.4,1.05 0.35,1.05 q 0.05,0.95 -0.75,1.75 -0.8,0.7 -1.85,0.8 -1.55,0.15 -2.9,-0.75 l -0.2,-0.15 -1.05,-1.1 -0.55,-1.2 v -0.05 l -0.1,-0.5 0.05,-2 0.4,-1.65 0.25,-0.9 0.65,-2.1 -1,0.05 -3.45,1 q -3.65,1.25 -5.55,2.2 -2.95,1.45 -4.85,3.3 -1.25,1.3 -2.1,2.85 -0.55,0.95 -0.5,1.6 l 0.2,0.55 0.8,1.1 1.15,1.6 1.5,1.95 2.95,2.9 3.05,2.35 0.15,0.1 q 1,0.6 2.5,1.2 l 2,0.7 2.15,0.7 5.35,1.3 8.6,0.25 8.6,-0.55 6.25,-0.2 6.1,-1.35 6.8,-2.1 q 2.2,-0.8 5.8,-2.4 3.25,-1.5 5.5,-2.85 l 0.1,-0.05 1.25,-0.85 q 1.95,-1.35 3.35,-2.9 l 1.9,-2.6 q 0.95,-1.75 2.15,-5.5 l 0.05,-0.3 1.25,-4.2 L 40.35,15.6 40.4,14.95 40.35,14.7 39.7,13.75 39.5,13.6 38.95,13.25 38.65,13.05 36.5,11 36.2,10.65 36.05,10.5 34.2,9 33.65,8.75 33.5,8.7 30.4,8.55 23,9.3 22.45,9.35 23,12.1 l 0.25,1.75 0.1,1.15 0.35,0.4 0.5,1 q 0.25,0.8 0.1,1.5 l -0.35,0.75 -0.45,0.65 -1.65,2.25 -0.7,0.55 -1.05,0.2 Q 19.2,22.2 18.9,21.2 18.75,20.55 19,19.85 l 0.1,-0.3 0.4,-1.05 0.15,-0.55 0.3,-0.4 V 16.9 16.25 Q 20,15.8 20.2,15.5 L 19.25,12.95 19.15,12.6 18.05,8.4 Q 16.45,1.8 12.75,-9.05 11.25,-13.7 10.2,-16 8.6,-19.8 6.6,-22.4 l -3.15,-3.35 q -2.85,-2.35 -8,-4.85 -8.5,-4.15 -17.45,-6.9 -0.4,2.25 0.65,4.1 M -6.4,20.05 q 0.35,0.45 0.95,1.6 l 0.95,1.55 q 1.1,1.1 4.2,1.2 l 3.9,0.05 h 2.05 l 2,-0.3 Q 8.9,23.85 10.4,23 l 2.55,-1.55 q 1.5,-0.9 2.55,-0.9 1.25,0.1 1.95,1.1 0.75,1.05 0.3,2.2 -0.35,1.05 -2.25,2.2 l -3.55,2.1 Q 10,29.35 8.7,29.7 L 6.3,29.9 -3.85,29.55 Q -5.8,29.25 -6.9,28.7 -8.5,27.85 -8.75,26.25 L -8.8,25.05 Q -8.75,24.3 -8.85,23.9 l -0.3,-0.85 -0.4,-0.85 q -0.5,-1.3 0.05,-2.6 L -9.1,19.05 -8.05,19 q 1,0.25 1.65,1.05 m -6.05,6.95 -1.2,-0.9 q -0.75,-1.25 -0.45,-2.2 0.25,-0.7 0.95,-0.95 0.75,-0.25 1.35,0.2 0.5,0.35 0.75,1.1 0.35,1.1 0.05,1.85 -0.5,1.05 -1.45,0.9"
         fill="#000000"
         fill-rule="evenodd"
         stroke="none"
         id="path1" />
      <path
         d="m 19,19.85 -0.25,-0.1 q -1,-0.35 -1.5,-2.2 L 11.05,-2.3 q -2.6,-8.35 -4.55,-13.4 -1.15,-3 -2.45,-4.4 l -2.1,-1.85 q -10.7,-7.9 -23.3,-11.45 -1.05,-1.85 -0.65,-4.1 8.95,2.75 17.45,6.9 5.15,2.5 8,4.85 l 3.15,3.35 q 2,2.6 3.6,6.4 1.05,2.3 2.55,6.95 3.7,10.85 5.3,17.45 l 1.1,4.2 0.1,0.35 0.95,2.55 q -0.2,0.3 -0.25,0.75 v 0.65 0.65 l -0.3,0.4 -0.15,0.55 -0.4,1.05 -0.1,0.3 m -26.9,-39.9 q 0.4,0.7 0.25,1.5 l -0.55,1.65 -0.15,1.35 -0.15,2.85 0.45,1.85 0.45,1.85 0.05,0.4 -2.55,-1.85 -0.3,-0.2 q -0.05,-0.95 -0.25,-1.65 l -0.3,-1.2 -0.25,-1.2 0.45,-3.3 0.15,-0.65 1.75,-1.05 0.95,-0.35 m 0.65,15 -0.35,0.95 q -4.5,11.95 -5.85,24.75 l -0.45,2.55 q -0.4,1.4 -1.3,2.1 -0.65,0.5 -1.35,0.6 0.8,-0.8 0.75,-1.75 l -0.35,-1.05 -0.4,-1.05 q -0.15,-0.85 0.3,-2.25 3.85,-12.85 5.55,-25.75 l 0.05,-0.5 0.35,0.15 1.25,0.6 0.15,0.05 1.65,0.6 m -14.25,30.85 -0.5,1.6 -1.15,6.05 q -0.5,3.15 -0.2,4.55 l 0.45,1.8 0.05,0.65 -2.15,-0.7 -2,-0.7 q -1.5,-0.6 -2.5,-1.2 l -0.15,-0.1 -3.05,-2.35 -2.95,-2.9 -1.5,-1.95 -1.15,-1.6 -0.8,-1.1 -0.2,-0.55 q -0.05,-0.65 0.5,-1.6 0.85,-1.55 2.1,-2.85 1.9,-1.85 4.85,-3.3 1.9,-0.95 5.55,-2.2 l 3.45,-1 1,-0.05 -0.65,2.1 -0.25,0.9 -0.4,1.65 -0.05,2 0.1,0.5 v 0.05 l 0.55,1.2 1.05,1.1 m 51.65,6.75 Q 29.5,31.85 29.25,30.7 L 28.85,28 Q 28.6,26.6 27.7,24.7 l -1.2,-2.3 -2.1,-2.2 -0.9,-0.9 0.45,-0.65 0.35,-0.75 q 0.15,-0.7 -0.1,-1.5 L 23.7,15.4 23.35,15 23.25,13.85 23,12.1 22.45,9.35 23,9.3 30.4,8.55 33.5,8.7 33.65,8.75 34.2,9 l 1.85,1.5 0.15,0.15 0.3,0.35 2.15,2.05 0.3,0.2 0.55,0.35 0.2,0.15 0.65,0.95 0.05,0.25 -0.05,0.65 -0.15,0.55 -1.25,4.2 -0.05,0.3 q -1.2,3.75 -2.15,5.5 l -1.9,2.6 q -1.4,1.55 -3.35,2.9 l -1.25,0.85 -0.1,0.05"
         fill="#1a1a1a"
         fill-rule="evenodd"
         stroke="none"
         id="path2" />
      <path
         d="m -21.35,-33.4 q 12.6,3.55 23.3,11.45 l 2.1,1.85 q 1.3,1.4 2.45,4.4 1.95,5.05 4.55,13.4 l 6.2,19.85 q 0.5,1.85 1.5,2.2 l 0.25,0.1 q -0.25,0.7 -0.1,1.35 0.3,1 1.2,1.1 l 1.05,-0.2 0.7,-0.55 1.65,-2.25 0.9,0.9 2.1,2.2 1.2,2.3 q 0.9,1.9 1.15,3.3 l 0.4,2.7 q 0.25,1.15 0.9,1.85 -2.25,1.35 -5.5,2.85 -3.6,1.6 -5.8,2.4 l -6.8,2.1 -6.1,1.35 -6.25,0.2 -8.6,0.55 -8.6,-0.25 -5.35,-1.3 -0.05,-0.65 -0.45,-1.8 q -0.3,-1.4 0.2,-4.55 l 1.15,-6.05 0.5,-1.6 0.2,0.15 q 1.35,0.9 2.9,0.75 1.05,-0.1 1.85,-0.8 0.7,-0.1 1.35,-0.6 0.9,-0.7 1.3,-2.1 l 0.45,-2.55 Q -12.1,7.85 -7.6,-4.1 l 0.35,-0.95 0.5,0.15 q 0.9,0.25 1.25,-0.3 0.25,-0.45 -0.15,-1.15 l -0.7,-1.25 -0.7,-0.65 -0.5,-0.35 -0.05,-0.4 -0.45,-1.85 -0.45,-1.85 0.15,-2.85 0.15,-1.35 0.55,-1.65 q 0.15,-0.8 -0.25,-1.5 l 0.8,-0.25 1.7,-0.65 q 1.05,-0.55 1.05,-1.4 0,-0.8 -0.7,-1.05 l -1.15,0.05 -1.05,0.5 -3,0.4 -1.2,-0.05 -0.1,-0.1 -1.05,-1.25 -1,-1.65 -1.05,-1.7 q -0.85,-1.15 -3.2,-2.85 -2.35,-1.65 -3.2,-2.85 l -0.3,-0.5 M -6.4,20.05 Q -7.05,19.25 -8.05,19 l -1.05,0.05 -0.4,0.55 q -0.55,1.3 -0.05,2.6 l 0.4,0.85 0.3,0.85 q 0.1,0.4 0.05,1.15 l 0.05,1.2 q 0.25,1.6 1.85,2.45 1.1,0.55 3.05,0.85 L 6.3,29.9 8.7,29.7 q 1.3,-0.35 3.25,-1.55 l 3.55,-2.1 q 1.9,-1.15 2.25,-2.2 0.45,-1.15 -0.3,-2.2 -0.7,-1 -1.95,-1.1 -1.05,0 -2.55,0.9 L 10.4,23 q -1.5,0.85 -2.75,1.15 l -2,0.3 H 3.6 L -0.3,24.4 Q -3.4,24.3 -4.5,23.2 L -5.45,21.65 Q -6.05,20.5 -6.4,20.05 M -12.45,27 q 0.95,0.15 1.45,-0.9 0.3,-0.75 -0.05,-1.85 -0.25,-0.75 -0.75,-1.1 -0.6,-0.45 -1.35,-0.2 -0.7,0.25 -0.95,0.95 -0.3,0.95 0.45,2.2 l 1.2,0.9"
         fill="#151515"
         fill-rule="evenodd"
         stroke="none"
         id="path3" />
    </g>
    <g
       id="sprite1"
       transform="translate(17.4,15.85)">
      <use
         ffdec:characterId="31"
         height="57.200001"
         transform="matrix(0.5366,0,0,0.5366,-16.6582,-14.546)"
         width="70.75"
         xlink:href="#sprite2"
         id="use3" />
    </g>
    <g
       id="sprite2"
       transform="translate(-8.65,-10.35)">
      <use
         ffdec:characterId="30"
         height="57.200001"
         transform="translate(8.65,10.35)"
         width="70.75"
         xlink:href="#shape1"
         id="use4" />
    </g>
    <g
       id="shape1"
       transform="translate(-8.65,-10.35)">
      <path
         d="m 14.8,41.7 q 0.65,-1.75 2.65,-2.5 1.8,-0.8 3.7,-0.25 1.15,0.45 2.25,1.2 l 0.9,0.4 q 1.65,0.9 2.85,2.5 L 37.8,30.1 q 2.35,-2.8 3.75,-3.95 1.5,-1.15 4.25,-2.4 18.2,-8.85 27.65,-12.6 2.15,-0.8 3.25,-0.8 h 0.8 l 1.9,2.4 -0.2,0.8 q -0.2,1.1 -1.55,3 -5.85,8.25 -18.85,23.8 -1.85,2.35 -3.35,3.5 -1.4,1.15 -4.75,2.75 l -15.15,7.15 q 1.2,1.6 1.75,3.4 l 0.2,1 0.55,2.5 q 0.1,1.95 -1.1,3.55 -1.2,1.65 -3.05,1.9 l -1.3,0.05 q -1.65,0.2 -3.45,-0.65 -1.85,-0.9 -3,-2.6 L 25,60.95 23.8,62.1 q -2.6,2.85 -4.3,3.95 -2.85,1.8 -5.5,1.45 l -1.65,-0.5 -1.2,-0.7 -0.2,-0.2 q -1,-0.85 -1.6,-1.9 L 9.25,64 9.15,63.8 8.75,62.4 q -0.2,-0.8 -0.05,-1.7 0.25,-2.65 2.7,-5.05 1.5,-1.3 4.9,-3.15 L 17.7,51.55 16.05,50 q -1.35,-1.5 -1.8,-3.6 -0.4,-1.85 0.25,-3.45 l 0.3,-1.25"
         fill="#000000"
         fill-opacity="0.372549"
         fill-rule="evenodd"
         stroke="none"
         id="path4" />
    </g>
  </defs>
</svg>
