<?xml version="1.0" encoding="UTF-8" standalone="no"?>
<svg
   ffdec:objectType="frame"
   height="45.124336"
   width="55.447418"
   version="1.1"
   id="svg5"
   xmlns:xlink="http://www.w3.org/1999/xlink"
   xmlns="http://www.w3.org/2000/svg"
   xmlns:svg="http://www.w3.org/2000/svg"
   xmlns:ffdec="https://www.free-decompiler.com/flash">
  <g
     transform="translate(28.246104,22.963158)"
     id="g1">
    <use
       ffdec:characterId="17"
       height="119.15"
       id="rarity"
       transform="translate(-58.5,-60.65)"
       width="119.15"
       xlink:href="#sprite0" />
    <use
       ffdec:characterId="199"
       height="45.099998"
       transform="translate(-28.25,-22.95)"
       width="55.450001"
       xlink:href="#shape0"
       id="use1" />
  </g>
  <defs
     id="defs5">
    <g
       id="shape0"
       transform="translate(27.95,25.45)">
      <path
         d="m -25.9,-7.25 q 1.25,-3 4.25,-6.45 3.8,-4.35 8.15,-7.2 7.95,-5.1 16.9,-4.5 4.5,0.35 8.55,2.25 4.2,1.95 7.1,5.25 l 3.25,4.35 q 5.15,8.3 5.2,15.4 0.05,4.3 -1.8,8.05 -1.95,3.95 -5.45,5.9 -2.05,1.15 -5.65,1.95 -12.1,2.85 -24.75,1.45 -5.65,-0.6 -9.3,-2.25 -4.95,-2.2 -7,-6.25 -2.4,-4.45 -0.95,-12.5 0.65,-3.5 1.5,-5.45 M 7.7,-16.75 4.65,-17.6 1.7,-17.8 q -3.9,0 -6.4,0.8 -2.15,0.7 -4.5,2.35 l -3.95,3.2 -3.75,3.75 -1.15,2.05 q -1.35,2.9 -1.95,7.5 l -0.15,1.95 q -0.05,1.2 0.25,2 0.6,1.8 2.75,3.15 2.1,1.4 5.1,2.05 l 5.55,0.7 5.2,0.25 h 0.5 l 4.1,-0.15 6.35,-0.95 0.8,-0.15 0.1,-0.05 4.45,-1 Q 16.8,9.25 17.55,8.7 18.35,8.1 19,6.7 20.3,3.9 20.05,1 L 19.7,-1.2 18.75,-4.1 q -2.05,-5.25 -5.3,-8.65 -2.65,-2.75 -5.75,-4 m -21.15,14.1 0.35,-2.6 q 0.5,-1.4 1.85,-3.05 2.9,-3.2 6.5,-4.65 3,-1.25 5.75,-1.05 2.7,0.15 5.1,1.7 0.85,0.55 1.7,1.3 1.45,1.35 1.85,2.5 0.35,1 0.35,2.75 l -0.25,2.9 -0.9,2.4 -1.25,2.5 Q 6.35,4 4.15,5.15 2.05,6.3 -0.4,6.45 l -4.55,-0.2 -3,-0.65 q -1.4,-0.6 -3,-2.3 -1.95,-1.95 -2.35,-3.5 l -0.15,-2 v -0.45"
         fill="#000000"
         fill-rule="evenodd"
         stroke="none"
         id="path1" />
      <path
         d="M 19.7,-1.2 20.05,1 Q 20.3,3.9 19,6.7 18.35,8.1 17.55,8.7 16.8,9.25 15,9.65 l -4.45,1 -0.1,0.05 -0.8,0.15 -6.35,0.95 -4.1,0.15 h -0.5 l -0.15,-1.4 Q -1.35,9.2 -0.55,8.3 0.2,7.45 2.15,6.75 5,5.75 7.05,5.95 l 1.55,0.4 q 0.15,-3 1.3,-5 1.45,-2.55 3.95,-3.15 l 4.45,0.25 1.4,0.35 M -12.05,11 q -3,-0.65 -5.1,-2.05 Q -19.3,7.6 -19.9,5.8 -20.2,5 -20.15,3.8 l 3.6,0.15 q 1.75,0.7 3.35,2.65 1.15,1.55 1.3,2.9 0.1,0.85 -0.15,1.5"
         fill="#956d6d"
         fill-rule="evenodd"
         stroke="none"
         id="path2" />
      <path
         d="m -18.05,-5.65 1.15,-2.05 3.75,-3.75 3.95,-3.2 q 2.35,-1.65 4.5,-2.35 2.5,-0.8 6.4,-0.8 l 2.95,0.2 3.05,0.85 -0.25,1.3 -0.95,2.35 -0.4,0.8 Q 3.7,-13.85 1,-14 q -2.75,-0.2 -5.75,1.05 -3.6,1.45 -6.5,4.65 -1.35,1.65 -1.85,3.05 l -0.35,2.6 q -1.95,-0.15 -3.1,-0.9 -0.85,-0.55 -1.3,-1.5 l -0.2,-0.6"
         fill="#ffffff"
         fill-rule="evenodd"
         stroke="none"
         id="path3" />
      <path
         d="m -18.05,-5.65 0.2,0.6 q 0.45,0.95 1.3,1.5 1.15,0.75 3.1,0.9 v 0.45 l 0.15,2 q 0.4,1.55 2.35,3.5 1.6,1.7 3,2.3 l 3,0.65 4.55,0.2 Q 2.05,6.3 4.15,5.15 6.35,4 7.6,2.05 l 1.25,-2.5 0.9,-2.4 0.25,-2.9 Q 10,-7.5 9.65,-8.5 9.25,-9.65 7.8,-11 6.95,-11.75 6.1,-12.3 l 0.4,-0.8 0.95,-2.35 0.25,-1.3 q 3.1,1.25 5.75,4 3.25,3.4 5.3,8.65 l 0.95,2.9 -1.4,-0.35 -4.45,-0.25 q -2.5,0.6 -3.95,3.15 -1.15,2 -1.3,5 L 7.05,5.95 Q 5,5.75 2.15,6.75 0.2,7.45 -0.55,8.3 q -0.8,0.9 -0.9,2.25 l 0.15,1.4 -5.2,-0.25 -5.55,-0.7 q 0.25,-0.65 0.15,-1.5 -0.15,-1.35 -1.3,-2.9 -1.6,-1.95 -3.35,-2.65 L -20.15,3.8 -20,1.85 q 0.6,-4.6 1.95,-7.5"
         fill="#dddddd"
         fill-rule="evenodd"
         stroke="none"
         id="path4" />
    </g>
    <g
       id="sprite1"
       transform="translate(17.4,15.85)">
      <use
         ffdec:characterId="31"
         height="57.200001"
         transform="matrix(0.5366,0,0,0.5366,-16.6582,-14.546)"
         width="70.75"
         xlink:href="#sprite2"
         id="use4" />
    </g>
    <g
       id="sprite2"
       transform="translate(-8.65,-10.35)">
      <use
         ffdec:characterId="30"
         height="57.200001"
         transform="translate(8.65,10.35)"
         width="70.75"
         xlink:href="#shape1"
         id="use5" />
    </g>
    <g
       id="shape1"
       transform="translate(-8.65,-10.35)">
      <path
         d="m 14.8,41.7 q 0.65,-1.75 2.65,-2.5 1.8,-0.8 3.7,-0.25 1.15,0.45 2.25,1.2 l 0.9,0.4 q 1.65,0.9 2.85,2.5 L 37.8,30.1 q 2.35,-2.8 3.75,-3.95 1.5,-1.15 4.25,-2.4 18.2,-8.85 27.65,-12.6 2.15,-0.8 3.25,-0.8 h 0.8 l 1.9,2.4 -0.2,0.8 q -0.2,1.1 -1.55,3 -5.85,8.25 -18.85,23.8 -1.85,2.35 -3.35,3.5 -1.4,1.15 -4.75,2.75 l -15.15,7.15 q 1.2,1.6 1.75,3.4 l 0.2,1 0.55,2.5 q 0.1,1.95 -1.1,3.55 -1.2,1.65 -3.05,1.9 l -1.3,0.05 q -1.65,0.2 -3.45,-0.65 -1.85,-0.9 -3,-2.6 L 25,60.95 23.8,62.1 q -2.6,2.85 -4.3,3.95 -2.85,1.8 -5.5,1.45 l -1.65,-0.5 -1.2,-0.7 -0.2,-0.2 q -1,-0.85 -1.6,-1.9 L 9.25,64 9.15,63.8 8.75,62.4 q -0.2,-0.8 -0.05,-1.7 0.25,-2.65 2.7,-5.05 1.5,-1.3 4.9,-3.15 L 17.7,51.55 16.05,50 q -1.35,-1.5 -1.8,-3.6 -0.4,-1.85 0.25,-3.45 l 0.3,-1.25"
         fill="#000000"
         fill-opacity="0.372549"
         fill-rule="evenodd"
         stroke="none"
         id="path5" />
    </g>
  </defs>
</svg>
