<?xml version="1.0" encoding="UTF-8" standalone="no"?>
<svg
   ffdec:objectType="frame"
   height="83.541443"
   width="55.130718"
   version="1.1"
   id="svg6"
   xmlns:xlink="http://www.w3.org/1999/xlink"
   xmlns="http://www.w3.org/2000/svg"
   xmlns:svg="http://www.w3.org/2000/svg"
   xmlns:ffdec="https://www.free-decompiler.com/flash">
  <g
     transform="translate(28.793961,42.87944)"
     id="g1">
    <use
       ffdec:characterId="17"
       height="119.15"
       id="rarity"
       transform="translate(-58.5,-60.65)"
       width="119.15"
       xlink:href="#sprite0" />
    <use
       ffdec:characterId="97"
       height="94.550003"
       transform="matrix(0.8219,0,0,0.884,-28.7828,-42.876)"
       width="67.050003"
       xlink:href="#sprite1"
       id="use1" />
  </g>
  <defs
     id="defs6">
    <g
       id="sprite1"
       transform="translate(1.5,1.5)">
      <use
         ffdec:characterId="96"
         height="94.550003"
         transform="translate(-1.5,-1.5)"
         width="67.050003"
         xlink:href="#shape0"
         id="use2" />
    </g>
    <g
       id="shape0"
       transform="translate(1.5,1.5)">
      <path
         d="M 25.45,2.25 Q 26.35,1.5 27.4,1.1 31.05,-0.05 32.15,0 l 4.5,1.1 q 1.05,0.4 1.95,1.15 1.35,1 1.95,2.3 0.45,1.1 0.55,3.2 0.05,1.75 -0.25,2.75 -0.6,1.9 -2.85,3.35 l -0.45,0.25 -0.15,0.65 q -0.2,1.45 0.9,2.45 1.15,1 2.7,0.7 l 1.2,-0.5 q 0.6,-0.25 1.15,-0.55 2.25,-1.05 4.8,-0.35 2.6,0.75 3.85,2.8 0.7,1.25 0.95,2.95 l 0.15,3.15 q 0,3.75 -0.5,5.55 -0.7,2.15 -2.4,4.4 l -3.65,3.75 q 2,1.75 2.2,4.15 0.25,2.65 -1.7,4.4 -1.35,1.2 -3.85,1.75 l -2.4,0.45 v 0.7 q 0,3.45 2,6.75 2.25,3.65 5.9,5.75 l 2.6,1.35 2.6,1.35 q 3,1.7 3.9,4.05 0.35,1.15 0.3,2.4 l 0.95,0.15 q 1.4,0.4 2.45,1.35 1.85,1.75 2.4,4.75 0.35,1.9 -0.05,3.35 -0.55,2.3 -3,4.35 -4.1,3.55 -10.85,4.8 L 38,91.5 32.25,90.95 32,90.9 l -0.25,0.05 -5.7,0.55 -12,-0.55 Q 7.3,89.7 3.2,86.15 0.75,84.1 0.2,81.8 -0.2,80.35 0.15,78.45 q 0.55,-3 2.4,-4.75 1.05,-0.95 2.4,-1.35 l 1,-0.15 Q 5.9,70.95 6.25,69.8 7.1,67.45 10.15,65.75 11,65.2 12.75,64.4 l 2.6,-1.35 q 3.65,-2.1 5.9,-5.75 2,-3.3 2,-6.75 v -0.7 L 20.85,49.4 Q 18.35,48.85 17,47.65 15.05,45.9 15.25,43.25 15.5,40.85 17.5,39.1 l -3.65,-3.75 q -1.7,-2.25 -2.4,-4.4 -0.5,-1.8 -0.5,-5.55 0,-2.05 0.15,-3.15 0.25,-1.7 0.95,-2.95 1.25,-2.05 3.85,-2.8 2.55,-0.7 4.8,0.35 l 1.15,0.55 1.2,0.5 q 1.55,0.3 2.7,-0.7 1.1,-1 0.9,-2.45 L 26.5,14.1 26,13.85 q -2.2,-1.45 -2.8,-3.35 -0.3,-1 -0.25,-2.75 0.1,-2.1 0.55,-3.2 0.6,-1.3 1.95,-2.3 m 21.45,18.1 -1.75,0.05 -1.65,0.65 -2.65,0.5 -0.9,-0.05 q -1.85,-0.15 -3.4,-1.1 -1.3,-0.7 -1.95,-1.95 -0.8,-1.25 -0.7,-3 l -0.8,0.1 -0.75,0.1 H 31.7 l -0.75,-0.1 -0.85,-0.1 q 0.15,1.75 -0.65,3 -0.65,1.25 -2,1.95 -1.5,0.95 -3.35,1.1 l -2.65,-0.15 -0.9,-0.3 -1.7,-0.65 -1.7,-0.05 q -1.5,0.55 -1.75,3 -0.2,2.3 0.25,4.35 0.35,1.7 1.15,3.25 1.95,3.8 5.65,5.45 l 2.45,1.15 1.35,1.2 0.4,0.05 3.65,0.05 h 1.7 1.75 l 3.65,-0.05 0.35,-0.05 1.4,-1.2 2.45,-1.15 q 3.7,-1.65 5.65,-5.45 1.75,-3.4 1.4,-7.6 -0.25,-2.45 -1.75,-3 m -16,25.5 0.8,-0.05 h 0.65 v 0.05 L 37,45.8 q 3.3,-0.2 5.75,-1.1 l 1,-0.55 q 0.45,-0.5 0.3,-0.95 -0.15,-0.6 -1.1,-0.75 l -2.2,-0.05 h -0.4 l -0.6,0.1 -6.9,0.4 L 32,42.85 31.2,42.9 24.3,42.5 23.7,42.4 H 23.55 23.3 l -2.2,0.05 q -0.95,0.15 -1.1,0.75 -0.2,0.45 0.3,0.95 l 1,0.55 1.1,0.35 4.65,0.75 3.85,0.05 M 32.4,3.75 H 32.35 31.7 V 3.7 L 29.8,4 Q 27.95,4.45 27.35,5.95 27,6.65 27.1,7.8 l 0.1,0.9 0.15,0.5 q 0.35,0.65 1.2,1.1 1.3,0.9 2.6,1.1 l 1,0.15 0.75,-0.15 q 1.25,-0.2 2.6,-1.1 L 36.7,9.2 36.95,7.8 Q 37.05,6.65 36.7,5.95 36.1,4.45 34.25,4 L 32.4,3.75 m -8,57.1 -0.15,0.2 q -2.35,3.25 -5.8,5.4 l -2.9,1.6 q -2,1 -2.95,1.6 -1.55,0.9 -1.65,1.85 -0.15,0.8 0.55,1.85 1.4,2.1 3.85,3.2 1.35,0.65 3.95,1.15 l 5.5,0.95 v 0.2 H 37.4 V 78.8 l 7.35,-1.1 3.95,-1.15 q 2.45,-1.1 3.85,-3.2 0.7,-1.05 0.55,-1.85 -0.1,-0.95 -1.7,-1.85 l -2.9,-1.6 -2.9,-1.6 Q 42.15,64.3 39.8,61.05 37.45,57.7 36.65,53.95 36.2,51.9 36.4,50.2 l -4.7,-0.05 -4.05,0.05 q 0.2,1.7 -0.25,3.75 l -0.05,0.4 q -0.85,3.4 -2.95,6.5 M 7.95,76.75 7.15,75.65 H 6.8 q -1.1,0.4 -1.6,2.45 -0.3,1.95 -0.05,2.8 0.4,1.1 1.75,2.15 3.15,2.5 7.9,3.5 l 8.7,0.9 h 2.85 V 87.5 H 38.2 l 2.35,-0.05 8.7,-0.9 q 4.75,-1 7.9,-3.5 Q 58.5,82 58.9,80.9 59.15,80.05 58.8,78.1 58.35,76.05 57.25,75.65 H 56.9 q -0.95,1.5 -2.65,3 -1.65,1.55 -3.2,2.2 l -3.25,0.9 -6.45,1.1 -5.6,0.25 q -1.8,-0.2 -7.35,0 h -0.1 l -5.6,-0.25 -6.5,-1.1 q -2,-0.35 -3.2,-0.9 l -1.15,-0.6 -2.05,-1.6 -1.85,-1.9"
         fill="#000000"
         fill-rule="evenodd"
         stroke="none"
         id="path2" />
      <path
         d="m 46.9,20.35 q 1.5,0.55 1.75,3 0.35,4.2 -1.4,7.6 -1.95,3.8 -5.65,5.45 l -2.45,1.15 -1.4,1.2 -0.35,0.05 -3.65,0.05 H 32 30.3 L 26.65,38.8 26.25,38.75 24.9,37.55 22.45,36.4 Q 18.75,34.75 16.8,30.95 16,29.4 15.65,27.7 l 0.5,0.1 q 2.2,0.4 4.1,-1.2 1.1,-0.9 1.55,-2.3 0.45,-1.45 -0.15,-2.65 l -0.2,-0.3 2.65,0.15 q 1.85,-0.15 3.35,-1.1 1.35,-0.7 2,-1.95 0.8,-1.25 0.65,-3 l 0.85,0.1 0.75,0.1 h 0.65 l 0.75,-0.1 0.8,-0.1 q -0.1,1.75 0.7,3 0.65,1.25 1.95,1.95 1.55,0.95 3.4,1.1 l 0.9,0.05 q -0.15,0.6 0,1.25 0.2,0.75 0.8,1.25 1.25,1.1 2.85,0.35 0.85,-0.45 1.7,-1.8 0.8,-1.3 0.7,-2.25 M 31.2,42.9 32,42.85 l 0.85,0.05 6.9,-0.4 0.6,-0.1 h 0.4 l 2.2,0.05 q 0.95,0.15 1.1,0.75 0.15,0.45 -0.3,0.95 l -1,0.55 Q 40.3,45.6 37,45.8 l -4.65,0.05 V 45.8 H 31.7 l -0.8,0.05 0.1,-0.2 q 0.6,-0.95 0.4,-2.1 L 31.2,42.9 m -8.8,2.15 -1.1,-0.35 -1,-0.55 q -0.5,-0.5 -0.3,-0.95 0.15,-0.6 1.1,-0.75 l 2.2,-0.05 h 0.25 q -0.75,0.7 -1.05,1.75 l -0.1,0.9 M 27.2,8.7 q 0.75,0.75 2.15,0.65 1.15,-0.05 2.1,-0.65 1,-0.6 1.35,-1.6 0.45,-1 0.15,-2.15 L 32.4,3.75 34.25,4 q 1.85,0.45 2.45,1.95 0.35,0.7 0.25,1.85 l -0.25,1.4 -1.2,1.1 q -1.35,0.9 -2.6,1.1 l -0.75,0.15 -1,-0.15 Q 29.85,11.2 28.55,10.3 27.7,9.85 27.35,9.2 L 27.2,8.7 m -2.8,52.15 -0.1,0.7 q -0.2,1.9 0.45,2.85 0.6,0.9 1.9,1.05 1.2,0.1 2.2,-0.5 1.6,-1 2.55,-3.65 l 0.8,-2.7 q 0.45,-1.95 0.35,-2.65 -0.2,-1.65 -1.25,-2.3 -1.2,-0.7 -2.8,0 -0.65,0.25 -1.15,0.7 l 0.05,-0.4 q 0.45,-2.05 0.25,-3.75 l 4.05,-0.05 4.7,0.05 q -0.2,1.7 0.25,3.75 0.8,3.75 3.15,7.1 2.35,3.25 5.8,5.4 l 2.9,1.6 2.9,1.6 q 1.6,0.9 1.7,1.85 0.15,0.8 -0.55,1.85 -1.4,2.1 -3.85,3.2 l -3.95,1.15 -7.35,1.1 v 0.05 H 24.8 v -0.2 L 19.3,77.7 q -2.6,-0.5 -3.95,-1.15 -2.45,-1.1 -3.85,-3.2 -0.7,-1.05 -0.55,-1.85 0.1,-0.95 1.65,-1.85 0.95,-0.6 2.95,-1.6 l 2.9,-1.6 q 3.45,-2.15 5.8,-5.4 l 0.15,-0.2 m 5.8,-40.6 -1.55,0.6 q -1.1,0.5 -1.75,1.6 -0.65,1.1 -0.6,2.3 0,0.8 0.3,1.3 0.55,1.05 1.7,1.05 1.15,0 1.8,-0.95 l 0.4,-0.7 q 0.3,-0.3 1.35,-0.6 2,-0.85 2.05,-2.65 0.05,-0.9 -0.55,-1.65 -0.65,-0.8 -1.5,-0.75 L 30.2,20.25 M 22.15,71.5 q 0.5,-1.45 -0.35,-2.75 -0.8,-1.25 -2.3,-1.5 -1.75,-0.35 -4.2,0.95 -1.45,0.8 -1.9,1.55 -0.45,0.75 -0.4,1.7 0.05,0.9 0.6,1.65 1,1.45 3,1.55 1.65,0.15 3.4,-0.85 1.65,-0.85 2.15,-2.3 m -10.3,8.75 1.15,0.6 q 1.2,0.55 3.2,0.9 l 6.5,1.1 5.6,0.25 h 0.1 q 5.55,-0.2 7.35,0 l 5.6,-0.25 6.45,-1.1 3.25,-0.9 q 1.55,-0.65 3.2,-2.2 1.7,-1.5 2.65,-3 h 0.35 q 1.1,0.4 1.55,2.45 0.35,1.95 0.1,2.8 -0.4,1.1 -1.75,2.15 -3.15,2.5 -7.9,3.5 l -8.7,0.9 -2.35,0.05 H 26.35 V 87.45 H 23.5 l -8.7,-0.9 q -4.75,-1 -7.9,-3.5 Q 5.55,82 5.15,80.9 4.9,80.05 5.2,78.1 5.7,76.05 6.8,75.65 h 0.35 l 0.8,1.1 -0.2,0.15 q -1.55,1.1 -1.5,2.45 0.05,1 1.2,2.05 1,0.85 1.85,0.95 0.8,0.1 1.5,-0.4 0.75,-0.5 0.95,-1.25 l 0.1,-0.45"
         fill="#484848"
         fill-rule="evenodd"
         stroke="none"
         id="path3" />
      <path
         d="m 40.85,21.55 2.65,-0.5 1.65,-0.65 1.75,-0.05 q 0.1,0.95 -0.7,2.25 -0.85,1.35 -1.7,1.8 -1.6,0.75 -2.85,-0.35 -0.6,-0.5 -0.8,-1.25 -0.15,-0.65 0,-1.25 m -25.2,6.15 q -0.45,-2.05 -0.25,-4.35 0.25,-2.45 1.75,-3 l 1.7,0.05 1.7,0.65 0.9,0.3 0.2,0.3 q 0.6,1.2 0.15,2.65 -0.45,1.4 -1.55,2.3 -1.9,1.6 -4.1,1.2 l -0.5,-0.1 m 15.55,15.2 0.2,0.65 q 0.2,1.15 -0.4,2.1 l -0.1,0.2 -3.85,-0.05 -4.65,-0.75 0.1,-0.9 q 0.3,-1.05 1.05,-1.75 h 0.15 l 0.6,0.1 6.9,0.4 M 27.2,8.7 27.1,7.8 Q 27,6.65 27.35,5.95 27.95,4.45 29.8,4 l 1.9,-0.3 v 0.05 h 0.65 0.05 l 0.55,1.2 q 0.3,1.15 -0.15,2.15 -0.35,1 -1.35,1.6 -0.95,0.6 -2.1,0.65 -1.4,0.1 -2.15,-0.65 m 3,11.55 1.65,-0.45 q 0.85,-0.05 1.5,0.75 0.6,0.75 0.55,1.65 -0.05,1.8 -2.05,2.65 -1.05,0.3 -1.35,0.6 l -0.4,0.7 q -0.65,0.95 -1.8,0.95 -1.15,0 -1.7,-1.05 -0.3,-0.5 -0.3,-1.3 -0.05,-1.2 0.6,-2.3 0.65,-1.1 1.75,-1.6 l 1.55,-0.6 m -2.85,34.1 q 0.5,-0.45 1.15,-0.7 1.6,-0.7 2.8,0 1.05,0.65 1.25,2.3 0.1,0.7 -0.35,2.65 l -0.8,2.7 q -0.95,2.65 -2.55,3.65 -1,0.6 -2.2,0.5 -1.3,-0.15 -1.9,-1.05 -0.65,-0.95 -0.45,-2.85 l 0.1,-0.7 q 2.1,-3.1 2.95,-6.5 m -5.2,17.15 q -0.5,1.45 -2.15,2.3 -1.75,1 -3.4,0.85 -2,-0.1 -3,-1.55 -0.55,-0.75 -0.6,-1.65 -0.05,-0.95 0.4,-1.7 0.45,-0.75 1.9,-1.55 2.45,-1.3 4.2,-0.95 1.5,0.25 2.3,1.5 0.85,1.3 0.35,2.75 m -10.3,8.75 -0.1,0.45 q -0.2,0.75 -0.95,1.25 -0.7,0.5 -1.5,0.4 Q 8.45,82.25 7.45,81.4 6.3,80.35 6.25,79.35 6.2,78 7.75,76.9 l 0.2,-0.15 1.85,1.9 2.05,1.6"
         fill="#ffffff"
         fill-rule="evenodd"
         stroke="none"
         id="path4" />
      <path
         d="M 25.45,2.25 Q 26.35,1.5 27.4,1.1 31.05,-0.05 32.15,0 l 4.5,1.1 q 1.05,0.4 1.95,1.15 1.35,1 1.95,2.3 0.45,1.1 0.55,3.2 0.05,1.75 -0.25,2.75 -0.6,1.9 -2.85,3.35 l -0.45,0.25 -0.15,0.65 q -0.2,1.45 0.9,2.45 1.15,1 2.7,0.7 l 1.2,-0.5 q 0.6,-0.25 1.15,-0.55 2.25,-1.05 4.8,-0.35 2.6,0.75 3.85,2.8 0.7,1.25 0.95,2.95 l 0.15,3.15 q 0,3.75 -0.5,5.55 -0.7,2.15 -2.4,4.4 l -3.65,3.75 q 2,1.75 2.2,4.15 0.25,2.65 -1.7,4.4 -1.35,1.2 -3.85,1.75 l -2.4,0.45 v 0.7 q 0,3.45 2,6.75 2.25,3.65 5.9,5.75 l 2.6,1.35 2.6,1.35 q 3,1.7 3.9,4.05 0.35,1.15 0.3,2.4 l 0.95,0.15 q 1.4,0.4 2.45,1.35 1.85,1.75 2.4,4.75 0.35,1.9 -0.05,3.35 -0.55,2.3 -3,4.35 -4.1,3.55 -10.85,4.8 L 38,91.5 32.25,90.95 32,90.9 l -0.25,0.05 -5.7,0.55 -12,-0.55 Q 7.3,89.7 3.2,86.15 0.75,84.1 0.2,81.8 -0.2,80.35 0.15,78.45 q 0.55,-3 2.4,-4.75 1.05,-0.95 2.4,-1.35 l 1,-0.15 Q 5.9,70.95 6.25,69.8 7.1,67.45 10.15,65.75 11,65.2 12.75,64.4 l 2.6,-1.35 q 3.65,-2.1 5.9,-5.75 2,-3.3 2,-6.75 v -0.7 L 20.85,49.4 Q 18.35,48.85 17,47.65 15.05,45.9 15.25,43.25 15.5,40.85 17.5,39.1 l -3.65,-3.75 q -1.7,-2.25 -2.4,-4.4 -0.5,-1.8 -0.5,-5.55 0,-2.05 0.15,-3.15 0.25,-1.7 0.95,-2.95 1.25,-2.05 3.85,-2.8 2.55,-0.7 4.8,0.35 l 1.15,0.55 1.2,0.5 q 1.55,0.3 2.7,-0.7 1.1,-1 0.9,-2.45 L 26.5,14.1 26,13.85 q -2.2,-1.45 -2.8,-3.35 -0.3,-1 -0.25,-2.75 0.1,-2.1 0.55,-3.2 0.6,-1.3 1.95,-2.3 z"
         fill="none"
         stroke="#000000"
         stroke-linecap="round"
         stroke-linejoin="round"
         stroke-width="3"
         id="path5" />
    </g>
    <g
       id="sprite2"
       transform="translate(17.4,15.85)">
      <use
         ffdec:characterId="31"
         height="57.200001"
         transform="matrix(0.5366,0,0,0.5366,-16.6582,-14.546)"
         width="70.75"
         xlink:href="#sprite3"
         id="use5" />
    </g>
    <g
       id="sprite3"
       transform="translate(-8.65,-10.35)">
      <use
         ffdec:characterId="30"
         height="57.200001"
         transform="translate(8.65,10.35)"
         width="70.75"
         xlink:href="#shape1"
         id="use6" />
    </g>
    <g
       id="shape1"
       transform="translate(-8.65,-10.35)">
      <path
         d="m 14.8,41.7 q 0.65,-1.75 2.65,-2.5 1.8,-0.8 3.7,-0.25 1.15,0.45 2.25,1.2 l 0.9,0.4 q 1.65,0.9 2.85,2.5 L 37.8,30.1 q 2.35,-2.8 3.75,-3.95 1.5,-1.15 4.25,-2.4 18.2,-8.85 27.65,-12.6 2.15,-0.8 3.25,-0.8 h 0.8 l 1.9,2.4 -0.2,0.8 q -0.2,1.1 -1.55,3 -5.85,8.25 -18.85,23.8 -1.85,2.35 -3.35,3.5 -1.4,1.15 -4.75,2.75 l -15.15,7.15 q 1.2,1.6 1.75,3.4 l 0.2,1 0.55,2.5 q 0.1,1.95 -1.1,3.55 -1.2,1.65 -3.05,1.9 l -1.3,0.05 q -1.65,0.2 -3.45,-0.65 -1.85,-0.9 -3,-2.6 L 25,60.95 23.8,62.1 q -2.6,2.85 -4.3,3.95 -2.85,1.8 -5.5,1.45 l -1.65,-0.5 -1.2,-0.7 -0.2,-0.2 q -1,-0.85 -1.6,-1.9 L 9.25,64 9.15,63.8 8.75,62.4 q -0.2,-0.8 -0.05,-1.7 0.25,-2.65 2.7,-5.05 1.5,-1.3 4.9,-3.15 L 17.7,51.55 16.05,50 q -1.35,-1.5 -1.8,-3.6 -0.4,-1.85 0.25,-3.45 l 0.3,-1.25"
         fill="#000000"
         fill-opacity="0.372549"
         fill-rule="evenodd"
         stroke="none"
         id="path6" />
    </g>
  </defs>
</svg>
