<?xml version="1.0" encoding="UTF-8" standalone="no"?>
<svg
   ffdec:objectType="frame"
   height="76.287193"
   width="54.152912"
   version="1.1"
   id="svg6"
   xmlns:xlink="http://www.w3.org/1999/xlink"
   xmlns="http://www.w3.org/2000/svg"
   xmlns:svg="http://www.w3.org/2000/svg"
   xmlns:ffdec="https://www.free-decompiler.com/flash">
  <g
     transform="translate(28.3338,37.99264)"
     id="g1">
    <use
       ffdec:characterId="17"
       height="119.15"
       id="rarity"
       transform="translate(-58.5,-60.65)"
       width="119.15"
       xlink:href="#sprite0" />
    <use
       ffdec:characterId="180"
       height="80"
       transform="matrix(0.9558,0,0,0.9558,-28.3338,-38.1838)"
       width="56.650002"
       xlink:href="#sprite1"
       id="use1" />
  </g>
  <defs
     id="defs6">
    <g
       id="sprite1"
       transform="translate(1.5,1.5)">
      <use
         ffdec:characterId="179"
         height="80"
         transform="translate(-1.5,-1.5)"
         width="56.650002"
         xlink:href="#shape0"
         id="use2" />
    </g>
    <g
       id="shape0"
       transform="translate(1.5,1.5)">
      <path
         d="M 4.45,25.9 Q 5.1,25 5.55,23.55 L 6.3,21.05 Q 8,15.35 11.25,11.6 L 9.55,10.45 Q 8.3,9.6 7.95,8.65 7.25,7.35 8.1,6.35 8.55,5.8 9.9,5.4 l 6,-2 q 3.55,-1.1 6.05,-1.65 l 4.35,-0.1 1,0.45 0.6,-0.65 Q 28.95,0.6 30.2,0.2 l 2.55,0.05 Q 34.65,0.9 35.4,3 l 0.4,1.35 0.8,-0.15 q 1.5,-0.05 2.9,0.9 0.95,0.55 2.25,2 l 0.55,0.5 q 2.7,1.95 4.6,4.5 1.45,1.75 3.35,5.2 2.1,3.7 2.75,6.05 0.5,1.9 0.6,4.1 0.5,9.6 -3.35,17.75 -0.7,1.35 -1.5,1.9 l -0.1,1.75 q -0.2,3.4 -0.8,5.3 -1,3.2 -3.75,6.1 1.2,0.25 2.25,0.9 1.2,0.8 1.95,2.05 0.7,1.3 0.65,2.65 1.15,-0.25 2.25,0.4 1.05,0.6 1.65,1.7 1,2.05 0.1,4.65 -0.7,1.7 -1.75,2.4 -0.8,0.5 -2.65,0.8 -8.45,1.35 -19,1.2 L 10.5,75.75 6.95,75.15 Q 4.95,74.65 3.8,73.55 2.85,72.65 2.35,71.35 1.9,70.1 2.05,68.8 2.2,67.5 3,66.35 3.7,65.25 4.85,64.55 L 6.15,63.7 6.7,62.35 Q 7.2,61 8.35,60 l 1.5,-0.75 Q 9.3,58.15 9.05,57.05 L 8.95,56.5 8.9,56.2 Q 8.55,54.15 9.05,52.05 9.6,49.6 11.1,47.6 12.25,46 15.4,43.4 18.55,40.8 19.75,39.15 14.15,41.75 8,41.95 5.2,42.1 3.75,41.3 2.25,40.55 1.2,38.7 0.05,36.6 0,34.15 0,31.6 1.3,29.65 l 1.65,-1.85 1.5,-1.9 m 5.9,-4.05 -0.95,3.35 q -0.6,1.85 -1.45,3 L 5.6,30.8 Q 4.2,32.35 3.9,33.75 3.7,35 4.4,36.2 5.05,37.45 6.25,37.8 L 8.7,38 q 8,-0.6 12,-3.95 1.2,-1.05 1.7,-1.25 l 1.8,-0.2 q 0.8,0.3 1.1,1.35 0.2,0.85 0.05,1.85 -0.4,3.1 -2.3,5.6 l -3.15,3.25 -3.4,2.95 q -3.6,3.25 -3.95,6.45 l -0.15,1.6 q -0.1,0.75 0.45,2.1 0.5,1.25 2.55,2.25 1.95,1 4.15,1.3 L 29,61.95 29.25,61.9 30.7,62 32.1,62.15 33,62 34.8,61.75 q 1.95,-0.45 4.1,-2.05 3.6,-2.6 4.9,-5.45 0.7,-1.6 1,-3.75 l 0.25,-3.95 V 38.2 Q 44.6,33.05 42.3,25.3 41.05,21.1 39.75,18.55 37.9,15.1 35.25,13.3 L 33.45,12 Q 32.5,11.25 32.3,10.4 L 32.2,9.05 32.4,7.75 32.25,5.05 Q 32.1,4.35 31.75,4.15 L 30.6,4.2 Q 29.65,4.7 29.05,6.9 28.5,9.2 27.55,9.8 L 25.9,10.2 24.1,9.95 q -2.35,-0.25 -4.75,0.7 -2.35,0.9 -4.2,2.7 -3.25,3.05 -4.8,8.5 m 11.15,46.35 2.5,0.2 4.15,-0.1 4.1,-0.25 6.35,-0.45 q 3.65,-0.4 6.2,-1.2 -0.25,-0.95 -1.15,-1.55 -0.8,-0.55 -1.9,-0.7 l -3.15,0.2 -2.75,1.15 -5.75,0.3 -8.05,-0.4 H 21.9 l -1,-0.05 -1.3,-0.1 h -0.3 l -2.65,-0.5 -1.6,-0.5 Q 13.3,63.5 12,62.15 q -1.1,0.6 -1.45,1.05 l 0.45,1 q 0.55,0.8 2.3,1.6 l 3,1.2 5.2,1.2 m -4.1,4.1 14.45,0.75 15.75,-0.9 1.65,-0.55 q 0.95,-0.65 0.65,-1.55 -0.3,-0.8 -1.8,-0.9 l -1.95,-0.4 -2.35,0.75 -8.3,0.95 -8.25,0.5 -3.95,0.1 L 17.95,70.2 14.1,69 11.65,68 9.6,66.7 9.15,67 7.9,67.5 q -1.8,0.75 -1.85,1.9 0.05,1.35 2.35,1.9 l 4.05,0.6 3.6,0.3 1.35,0.1"
         fill="#000000"
         fill-rule="evenodd"
         stroke="none"
         id="path2" />
      <path
         d="m 10.35,21.85 q 1.55,-5.45 4.8,-8.5 1.85,-1.8 4.2,-2.7 2.4,-0.95 4.75,-0.7 l 1.8,0.25 1.65,-0.4 q 0.95,-0.6 1.5,-2.9 0.6,-2.2 1.55,-2.7 l 1.15,-0.05 q 0.35,0.2 0.5,0.9 l 0.15,2.7 -0.2,1.3 0.1,1.35 q 0.2,0.85 1.15,1.6 l 1.8,1.3 q 2.65,1.8 4.5,5.25 1.3,2.55 2.55,6.75 2.3,7.75 2.75,12.9 v 8.35 L 44.8,50.5 q -0.3,2.15 -1,3.75 -1.3,2.85 -4.9,5.45 -2.15,1.6 -4.1,2.05 L 33,62 32.1,62.15 30.7,62 29.25,61.9 29,61.95 19.55,61.3 Q 17.35,61 15.4,60 13.35,59 12.85,57.75 12.3,56.4 12.4,55.65 l 0.15,-1.6 q 0.35,-3.2 3.95,-6.45 l 3.4,-2.95 3.15,-3.25 q 1.9,-2.5 2.3,-5.6 0.15,-1 -0.05,-1.85 Q 25,32.9 24.2,32.6 l -1.8,0.2 Q 21.9,33 20.7,34.05 16.7,37.4 8.7,38 L 6.25,37.8 Q 5.05,37.45 4.4,36.2 3.7,35 3.9,33.75 4.2,32.35 5.6,30.8 l 2.35,-2.6 q 0.85,-1.15 1.45,-3 l 0.95,-3.35 M 21.5,68.2 22.25,67.85 q 0.4,-0.4 0.4,-1.05 0.05,-0.65 -0.35,-1.1 l -0.25,-0.3 8.05,0.4 5.75,-0.3 2.75,-1.15 3.15,-0.2 q 1.1,0.15 1.9,0.7 0.9,0.6 1.15,1.55 -2.55,0.8 -6.2,1.2 l -6.35,0.45 -4.1,0.25 -4.15,0.1 -2.5,-0.2 m 1.65,-22.15 q -0.75,-0.5 -1.75,-0.35 -2.2,0.2 -4.6,2.95 -0.95,1.15 -1.3,2.2 -0.45,1.45 0.35,2.45 0.75,0.9 2.15,0.8 1.05,-0.05 2.25,-0.85 1.9,-1.2 3.05,-3.2 0.65,-1 0.7,-2.1 0,-1.35 -0.85,-1.9 m -2.7,-33.25 -1.6,-0.25 q -0.9,0.15 -2.05,1.4 -1.7,1.15 -2.2,2.75 -0.25,0.95 -0.05,2 0.25,1.05 1,1.65 0.85,0.7 2.55,0.9 1.85,0.2 3,-0.45 1,-0.6 1.55,-1.7 1,-1.95 0.4,-3.75 -0.65,-1.8 -2.15,-2.3 L 20.45,12.8 m -3.8,51.95 -0.55,0.65 -0.05,0.65 Q 16.1,66.6 16.3,67 l -3,-1.2 Q 11.55,65 11,64.2 l -0.45,-1 q 0.35,-0.45 1.45,-1.05 1.3,1.35 3.05,2.1 l 1.6,0.5 m 1.3,5.45 5.35,0.85 3.95,-0.1 8.25,-0.5 8.3,-0.95 2.35,-0.75 1.95,0.4 q 1.5,0.1 1.8,0.9 0.3,0.9 -0.65,1.55 L 47.6,72.15 31.85,73.05 17.4,72.3 17.65,71.9 q 0.45,-0.8 0.3,-1.65 V 70.2 M 12.45,71.9 8.4,71.3 Q 6.1,70.75 6.05,69.4 6.1,68.25 7.9,67.5 L 9.15,67 9.6,66.7 11.65,68 q -0.65,0.35 -0.9,1.05 -0.3,0.75 0.05,1.45 l 1,1.05 0.65,0.35"
         fill="#484848"
         fill-rule="evenodd"
         stroke="none"
         id="path3" />
      <path
         d="m 20.45,12.8 0.45,0.25 q 1.5,0.5 2.15,2.3 0.6,1.8 -0.4,3.75 -0.55,1.1 -1.55,1.7 -1.15,0.65 -3,0.45 -1.7,-0.2 -2.55,-0.9 -0.75,-0.6 -1,-1.65 -0.2,-1.05 0.05,-2 0.5,-1.6 2.2,-2.75 1.15,-1.25 2.05,-1.4 l 1.6,0.25 m 2.7,33.25 q 0.85,0.55 0.85,1.9 -0.05,1.1 -0.7,2.1 -1.15,2 -3.05,3.2 -1.2,0.8 -2.25,0.85 -1.4,0.1 -2.15,-0.8 -0.8,-1 -0.35,-2.45 0.35,-1.05 1.3,-2.2 2.4,-2.75 4.6,-2.95 1,-0.15 1.75,0.35 m -1.1,19.35 0.25,0.3 q 0.4,0.45 0.35,1.1 0,0.65 -0.4,1.05 L 21.5,68.2 16.3,67 q -0.2,-0.4 -0.25,-0.95 l 0.05,-0.65 0.55,-0.65 2.65,0.5 h 0.3 l 1.3,0.1 1,0.05 h 0.15 m -4.1,4.8 v 0.05 q 0.15,0.85 -0.3,1.65 l -0.25,0.4 -1.35,-0.1 -3.6,-0.3 -0.65,-0.35 -1,-1.05 Q 10.45,69.8 10.75,69.05 11,68.35 11.65,68 l 2.45,1 3.85,1.2"
         fill="#f7f7f7"
         fill-rule="evenodd"
         stroke="none"
         id="path4" />
      <path
         d="M 4.45,25.9 Q 5.1,25 5.55,23.55 L 6.3,21.05 Q 8,15.35 11.25,11.6 L 9.55,10.45 Q 8.3,9.6 7.95,8.65 7.25,7.35 8.1,6.35 8.55,5.8 9.9,5.4 l 6,-2 q 3.55,-1.1 6.05,-1.65 l 4.35,-0.1 1,0.45 0.6,-0.65 Q 28.95,0.6 30.2,0.2 l 2.55,0.05 Q 34.65,0.9 35.4,3 l 0.4,1.35 0.8,-0.15 q 1.5,-0.05 2.9,0.9 0.95,0.55 2.25,2 l 0.55,0.5 q 2.7,1.95 4.6,4.5 1.45,1.75 3.35,5.2 2.1,3.7 2.75,6.05 0.5,1.9 0.6,4.1 0.5,9.6 -3.35,17.75 -0.7,1.35 -1.5,1.9 l -0.1,1.75 q -0.2,3.4 -0.8,5.3 -1,3.2 -3.75,6.1 1.2,0.25 2.25,0.9 1.2,0.8 1.95,2.05 0.7,1.3 0.65,2.65 1.15,-0.25 2.25,0.4 1.05,0.6 1.65,1.7 1,2.05 0.1,4.65 -0.7,1.7 -1.75,2.4 -0.8,0.5 -2.65,0.8 -8.45,1.35 -19,1.2 L 10.5,75.75 6.95,75.15 Q 4.95,74.65 3.8,73.55 2.85,72.65 2.35,71.35 1.9,70.1 2.05,68.8 2.2,67.5 3,66.35 3.7,65.25 4.85,64.55 L 6.15,63.7 6.7,62.35 Q 7.2,61 8.35,60 l 1.5,-0.75 Q 9.3,58.15 9.05,57.05 L 8.95,56.5 8.9,56.2 Q 8.55,54.15 9.05,52.05 9.6,49.6 11.1,47.6 12.25,46 15.4,43.4 18.55,40.8 19.75,39.15 14.15,41.75 8,41.95 5.2,42.1 3.75,41.3 2.25,40.55 1.2,38.7 0.05,36.6 0,34.15 0,31.6 1.3,29.65 L 2.95,27.8 Z"
         fill="none"
         stroke="#000000"
         stroke-linecap="round"
         stroke-linejoin="round"
         stroke-width="3"
         id="path5" />
    </g>
    <g
       id="sprite2"
       transform="translate(17.4,15.85)">
      <use
         ffdec:characterId="31"
         height="57.200001"
         transform="matrix(0.5366,0,0,0.5366,-16.6582,-14.546)"
         width="70.75"
         xlink:href="#sprite3"
         id="use5" />
    </g>
    <g
       id="sprite3"
       transform="translate(-8.65,-10.35)">
      <use
         ffdec:characterId="30"
         height="57.200001"
         transform="translate(8.65,10.35)"
         width="70.75"
         xlink:href="#shape1"
         id="use6" />
    </g>
    <g
       id="shape1"
       transform="translate(-8.65,-10.35)">
      <path
         d="m 14.8,41.7 q 0.65,-1.75 2.65,-2.5 1.8,-0.8 3.7,-0.25 1.15,0.45 2.25,1.2 l 0.9,0.4 q 1.65,0.9 2.85,2.5 L 37.8,30.1 q 2.35,-2.8 3.75,-3.95 1.5,-1.15 4.25,-2.4 18.2,-8.85 27.65,-12.6 2.15,-0.8 3.25,-0.8 h 0.8 l 1.9,2.4 -0.2,0.8 q -0.2,1.1 -1.55,3 -5.85,8.25 -18.85,23.8 -1.85,2.35 -3.35,3.5 -1.4,1.15 -4.75,2.75 l -15.15,7.15 q 1.2,1.6 1.75,3.4 l 0.2,1 0.55,2.5 q 0.1,1.95 -1.1,3.55 -1.2,1.65 -3.05,1.9 l -1.3,0.05 q -1.65,0.2 -3.45,-0.65 -1.85,-0.9 -3,-2.6 L 25,60.95 23.8,62.1 q -2.6,2.85 -4.3,3.95 -2.85,1.8 -5.5,1.45 l -1.65,-0.5 -1.2,-0.7 -0.2,-0.2 q -1,-0.85 -1.6,-1.9 L 9.25,64 9.15,63.8 8.75,62.4 q -0.2,-0.8 -0.05,-1.7 0.25,-2.65 2.7,-5.05 1.5,-1.3 4.9,-3.15 L 17.7,51.55 16.05,50 q -1.35,-1.5 -1.8,-3.6 -0.4,-1.85 0.25,-3.45 l 0.3,-1.25"
         fill="#000000"
         fill-opacity="0.372549"
         fill-rule="evenodd"
         stroke="none"
         id="path6" />
    </g>
  </defs>
</svg>
