<?xml version="1.0" encoding="UTF-8" standalone="no"?>
<svg
   ffdec:objectType="frame"
   height="99.921051"
   width="95.463333"
   version="1.1"
   id="svg9"
   xmlns:xlink="http://www.w3.org/1999/xlink"
   xmlns="http://www.w3.org/2000/svg"
   xmlns:svg="http://www.w3.org/2000/svg"
   xmlns:ffdec="https://www.free-decompiler.com/flash">
  <g
     transform="translate(48.613333,48.6)"
     id="g1">
    <use
       ffdec:characterId="17"
       height="119.15"
       id="rarity"
       transform="translate(-58.5,-60.65)"
       width="119.15"
       xlink:href="#sprite0" />
    <use
       ffdec:characterId="301"
       height="99.900002"
       transform="translate(-48.6,-48.6)"
       width="95.449997"
       xlink:href="#shape0"
       id="use1" />
  </g>
  <defs
     id="defs9">
    <g
       id="shape0"
       transform="translate(48.3,51.1)">
      <path
         d="m -38.55,-4.1 -1.15,-7.75 -0.5,-3.55 q -0.15,-1.95 0.3,-3.45 0.45,-1.55 2,-3.4 -0.95,-1.3 -1.5,-3.35 -0.75,-2.8 -0.35,-4.95 0.85,-4.4 7.6,-8.3 16.45,-9.65 35.25,-11.6 l 11.6,-0.65 7.4,0.3 q 2.9,0.4 4.1,1.75 1.35,1.4 1.55,4.95 0.15,2.15 -0.05,3.4 l -0.45,1.65 q 2.2,0.8 3.6,2.25 1.95,1.95 2.75,5.3 l 0.05,0.2 0.25,1.55 0.25,2.25 0.1,2.15 0.9,18.95 0.2,5.05 0.1,8.1 -0.15,3.55 -0.45,8.25 q -0.45,7.2 -0.2,11.75 l 0.05,2.25 q -0.15,1.75 -0.65,2.7 -0.65,1.1 -2,1.9 l -2.65,1.15 -11.3,3.55 -9.2,2.1 -8.95,1.2 q -10.65,0.9 -19.85,-1 -5.55,-1.2 -7.7,-3.7 -1.15,-1.3 -1.8,-3.35 l -0.95,-3.75 -0.2,-1.05 -1.1,-5.95 -0.3,-1.65 -0.6,-3.35 -0.25,-1.2 q -1.25,-6.4 -2.45,-11.2 l -0.5,-1.85 q -0.4,-1.65 -1.35,-4.95 l -0.6,-2.4 -0.6,-2.6 -0.25,-1.25 m 47.25,-36 3.6,-0.1 h 6.85 l 0.95,-0.4 q 2.4,-0.85 2.9,-1.2 l -0.55,-3.15 q -7.35,-0.55 -14.6,0.1 L 0.7,-44 l -3.25,0.6 -1.55,0.35 -3.45,0.8 q -9.75,2.5 -18.7,7.1 l -4.6,2.7 q -2.75,1.75 -2.8,3.85 l 0.5,1.9 q 6.1,-4.85 14,-8 4.3,-1.7 9.1,-2.9 l 3.2,-0.7 3.85,-0.65 3.45,-0.5 8.25,-0.65 m 18.7,9.4 -0.75,-1.15 Q 25.1,-33.6 20.85,-33.9 H 20.5 q -1.3,0.75 -2.95,1.55 -13.9,6.5 -23,9.25 -13.25,3.95 -24.45,3.45 l -1.75,-0.25 q -1.1,1.1 -1.55,2.15 -0.8,1.9 -0.2,5.7 l 0.85,4.4 0.1,0.7 1.5,6.8 0.6,2.75 1.2,5.15 0.5,2.05 q 3.45,14.15 4.6,21.85 l 0.05,0.4 q 0.4,2.55 1.25,3.6 l 0.05,0.1 q 1.05,1.2 3.95,2 10,2.5 22.45,0.8 l 0.45,-0.05 10,-2 L 16.1,36 23.15,34.05 21.8,33.5 21.7,33.45 21.45,33.4 19.7,32.9 18.9,32.7 11.3,32.2 2.25,32.65 Q -3,33.25 -7.85,34.8 -8.9,35.1 -9.2,34.6 -9.45,34.25 -9.1,33.85 l 0.75,-0.6 1.2,-0.55 q 4.3,-2 8.9,-3 l 8.7,-1.2 3.55,-0.25 3.6,0.1 2.65,0.3 2.5,0.45 0.25,0.05 2.6,0.8 1.35,0.75 1.25,1.1 0.35,-1.4 V 30.1 Q 29.7,13.4 29.4,-3.35 l -0.15,-6.25 -0.2,-5.5 -0.35,-6.25 -0.25,-3.75 -0.15,-1.55 Q 28.1,-29 27.55,-30.4 l -0.15,-0.3 m -33.15,-1.4 q -11.1,2.45 -19.75,7.8 l 3.35,-0.55 11.15,-2 q 7.95,-1.9 19.6,-7.15 -7.45,0.35 -14.35,1.9"
         fill="#000000"
         fill-rule="evenodd"
         stroke="none"
         id="path1" />
      <path
         d="m -30.1,-9.55 -0.5,-3.75 q -0.2,-2.9 1.35,-3.85 0.75,-0.5 1.75,-0.3 0.9,0.2 1.5,0.9 0.6,0.7 0.85,2 l 0.4,2.25 0.15,0.4 0.4,1.6 0.05,0.45 q 0.1,1.1 -0.35,2.1 -0.55,1.45 -1.95,2 -1.55,0.55 -2.6,-0.55 -0.55,-0.6 -0.85,-2.1 l -0.15,-0.8 -0.05,-0.35 m 4,8.95 0.05,-0.1 0.6,-0.3 0.5,-0.1 0.3,-0.05 q 1.1,-0.1 1.75,0.85 0.65,0.8 0.55,1.95 -0.15,1.25 -1.2,1.9 L -24.7,3.8 h -0.2 l -0.6,-0.15 -0.35,-0.2 q -1.05,-0.6 -1.15,-2 0,-1.25 0.9,-2.05 m 49.2,22.75 q -0.7,-0.3 -1,-1.1 -0.35,-0.95 0.05,-1.8 0.5,-0.95 1.55,-0.95 l 0.15,-0.1 q 0.95,0.2 1.35,0.6 l 0.4,0.55 v 0.05 q 0.5,1.2 -0.3,2.2 h -0.05 q -0.4,0.45 -1,0.6 L 23.1,22.15"
         fill="#ffffff"
         fill-rule="evenodd"
         stroke="none"
         id="path2" />
      <path
         d="m 7.85,-44.85 0.2,0.7 0.25,1.55 0.05,0.15 0.25,1.15 0.1,1.2 -8.25,0.65 -0.2,-1.3 q -0.1,-1.2 0.05,-2.05 l 0.1,-0.45 0.3,-0.75 7.15,-0.85 m -10.85,5.9 -3.85,0.65 -0.3,-0.75 -0.25,-1.35 -0.1,-0.4 -0.1,-1.1 0.05,-0.35 3.45,-0.8 0.3,0.5 0.25,0.5 q 0.45,1.1 0.55,2.4 v 0.7"
         fill="#515151"
         fill-rule="evenodd"
         stroke="none"
         id="path3" />
      <path
         d="m 7.85,-44.85 q 7.25,-0.65 14.6,-0.1 L 23,-41.8 q -0.5,0.35 -2.9,1.2 l -0.95,0.4 H 12.3 l -3.6,0.1 -0.1,-1.2 -0.25,-1.15 -0.05,-0.15 -0.25,-1.55 -0.2,-0.7 m -7.4,5.4 -3.45,0.5 v -0.7 q -0.1,-1.3 -0.55,-2.4 l -0.25,-0.5 -0.3,-0.5 1.55,-0.35 3.25,-0.6 -0.3,0.75 -0.1,0.45 q -0.15,0.85 -0.05,2.05 l 0.2,1.3 m -7.3,1.15 -3.2,0.7 q -4.8,1.2 -9.1,2.9 -7.9,3.15 -14,8 l -0.5,-1.9 q 0.05,-2.1 2.8,-3.85 l 4.6,-2.7 q 8.95,-4.6 18.7,-7.1 l -0.05,0.35 0.1,1.1 0.1,0.4 0.25,1.35 0.3,0.75 m 1.1,6.2 q 6.9,-1.55 14.35,-1.9 -11.65,5.25 -19.6,7.15 l -11.15,2 -3.35,0.55 q 8.65,-5.35 19.75,-7.8"
         fill="#2e2e2e"
         fill-rule="evenodd"
         stroke="none"
         id="path4" />
      <path
         d="M 25.6,29.95 23,29.15 22.75,29.1 20.25,28.65 17.6,28.35 14,28.25 10.45,28.5 1.75,29.7 q -4.6,1 -8.9,3 l -1.2,0.55 -0.75,0.6 q -0.35,0.4 -0.1,0.75 0.3,0.5 1.35,0.2 4.85,-1.55 10.1,-2.15 l 9.05,-0.45 7.6,0.5 0.8,0.2 1.75,0.5 -0.7,0.25 -3.8,1.35 Q 9,37.6 0.8,38.4 L -5,38.75 q -8.25,0.2 -11.35,-3.45 -1.4,-1.7 -2.55,-5.6 L -22.95,15.4 -25.5,3.65 -24.9,3.8 h 0.2 l 1.15,-0.25 q 1.05,-0.65 1.2,-1.9 0.1,-1.15 -0.55,-1.95 -0.65,-0.95 -1.75,-0.85 l -0.3,0.05 -0.5,0.1 -0.6,0.3 -0.05,0.1 q -0.25,-2.45 0.4,-3.9 l 0.1,-0.25 q 1,-2.15 3.55,-3 l 1.2,-0.35 4.6,0.2 1.4,0.35 5.3,1.85 0.45,0.2 1.65,0.55 2.45,0.8 5.1,0.8 Q 3.95,-3.3 9.45,-5.5 l 9.1,-3.6 3.7,-0.55 q 1.55,0.1 2.6,0.9 l 0.35,0.3 q 1.1,1.15 1.45,3.55 0.5,3 0.15,7.55 l -0.5,7.65 q -0.05,2.1 0.25,7.75 0.25,4.9 0,7.75 -0.2,2.5 -0.95,4.15 m -2.5,-7.8 1.15,0.05 q 0.6,-0.15 1,-0.6 h 0.05 q 0.8,-1 0.3,-2.2 V 19.35 L 25.2,18.8 q -0.4,-0.4 -1.35,-0.6 l -0.15,0.1 q -1.05,0 -1.55,0.95 -0.4,0.85 -0.05,1.8 0.3,0.8 1,1.1"
         fill="#c0ff99"
         fill-rule="evenodd"
         stroke="none"
         id="path5" />
      <path
         d="m 23.9,-23.1 q 0.25,1.15 -0.05,2.15 l -0.7,1.65 -1.4,1.25 -0.75,0.35 -3.05,0.3 q -1.7,-0.2 -2.4,-0.95 -0.25,-0.3 -0.55,-1.1 l -0.25,-0.75 -0.35,-2.1 q 0.1,-2.2 1.9,-3.55 1.9,-1.25 3.95,-0.7 l 1.45,0.55 0.9,0.65 q 1,1 1.3,2.25 m -33,17.6 0.5,-0.4 0.15,-0.15 1.85,-1.35 q 9.8,-6.95 19.8,-7.3 4,-0.15 6.75,1 3.6,1.4 4.8,4.65 l 0.1,0.3 q -1.05,-0.8 -2.6,-0.9 l -3.7,0.55 -9.1,3.6 Q 3.95,-3.3 0.1,-3.35 L -5,-4.15 -7.45,-4.95 -9.1,-5.5 m 0.95,-8.6 q 1.35,1.1 1.1,2.85 l -0.15,0.8 q -0.2,0.5 -0.55,0.95 -0.95,1.2 -2.4,1.2 -0.75,0 -1.5,-0.5 -1.2,-0.7 -1.5,-1.95 l -0.1,-0.95 0.55,-1.65 q 0.5,-0.75 1.3,-1.15 l 1.7,-0.25 q 0.9,0.1 1.55,0.65"
         fill="#9cd777"
         fill-rule="evenodd"
         stroke="none"
         id="path6" />
      <path
         d="m 33.65,-31.3 q 1.4,0.4 2.55,1.3 2.35,1.85 3.45,5.4 0.75,2.55 1,6.7 0.45,7.6 0.5,17.25 v 2.1 l 0.3,0.05 q 3.05,0.75 4.3,3.5 0.55,1.35 0.4,2.8 -0.15,1.5 -1,2.65 -0.6,0.85 -1.95,1.7 l -2.1,1.05 -0.05,3.4 -0.2,13.6 -0.2,3.45 q -0.35,1.85 -1.25,3.1 -1.15,1.55 -4.55,3.05 l -6.65,2.9 q -3.75,1.45 -6.9,2.05 l -2.65,0.45 -7.1,1.6 q -8.4,1.65 -13.75,1.95 -9.05,0.45 -17.7,-1.95 -6.2,-1.75 -9.35,-4.75 -2.25,-2.2 -3.75,-5.75 l -1.35,-3.9 q -1.6,-0.3 -3.1,-1.2 -1.45,-0.9 -2,-1.9 -0.55,-1.2 -0.4,-2.75 0.15,-2.7 1.65,-4.3 0.55,-0.65 1.3,-1 l -1,-5.7 q -0.75,-4.6 -0.8,-7.75 l -1,-1 q -0.55,-0.8 -0.95,-2.35 -1,-3.65 -0.15,-6 0.55,-1.5 1.9,-2.35 l 0.35,-0.2 0.25,1.25 0.6,2.6 0.6,2.4 q 0.95,3.3 1.35,4.95 l 0.5,1.85 q 1.2,4.8 2.45,11.2 l 0.25,1.2 0.6,3.35 0.3,1.65 1.1,5.95 0.2,1.05 0.95,3.75 q 0.65,2.05 1.8,3.35 2.15,2.5 7.7,3.7 9.2,1.9 19.85,1 l 8.95,-1.2 9.2,-2.1 11.3,-3.55 2.65,-1.15 q 1.35,-0.8 2,-1.9 0.5,-0.95 0.65,-2.7 L 34.65,30.3 q -0.25,-4.55 0.2,-11.75 l 0.45,-8.25 0.15,-3.55 -0.1,-8.1 -0.2,-5.05 -0.9,-18.95 -0.1,-2.15 -0.25,-2.25 -0.25,-1.55 m -66.2,23.65 1.45,-1 1,-0.9 0.05,0.35 0.15,0.8 q 0.3,1.5 0.85,2.1 1.05,1.1 2.6,0.55 1.4,-0.55 1.95,-2 0.45,-1 0.35,-2.1 l -0.05,-0.45 -0.4,-1.6 0.1,-0.05 7.8,0.3 q 0.25,-2.15 0.95,-3.5 1.1,-2.1 3.1,-2.7 1.2,-0.35 3.2,-0.05 2.25,0.4 3.2,1.3 1.4,1.35 1.15,3.9 l -0.3,1.5 q 0.9,-0.45 2.7,-1.7 8.1,-5.35 14.4,-6.3 l 0.9,-0.1 v -0.05 q -0.25,-0.95 -0.25,-2.3 0,-2.15 0.55,-3.25 0.55,-1.2 2.65,-2.8 l 1.35,-0.9 q 2.45,-1.3 5.85,-0.45 l 0.4,0.15 q 0.8,-1.05 1.8,-1.35 l 1.55,-0.15 h 0.45 l 0.45,-0.3 0.15,0.3 q 0.55,1.4 0.75,3.75 l 0.15,1.55 0.25,3.75 0.35,6.25 0.2,5.5 0.15,6.25 Q 29.7,13.4 28.55,30.1 v 0.3 L 28.2,31.8 26.95,30.7 25.6,29.95 q 0.75,-1.65 0.95,-4.15 0.25,-2.85 0,-7.75 Q 26.25,12.4 26.3,10.3 L 26.8,2.65 Q 27.15,-1.9 26.65,-4.9 26.3,-7.3 25.2,-8.45 l -0.35,-0.3 -0.1,-0.3 q -1.2,-3.25 -4.8,-4.65 -2.75,-1.15 -6.75,-1 -10,0.35 -19.8,7.3 l -1.85,1.35 -0.15,0.15 -0.5,0.4 -0.45,-0.2 -5.3,-1.85 -1.4,-0.35 -4.6,-0.2 -1.2,0.35 q -2.55,0.85 -3.55,3 l -0.1,0.25 q -0.65,1.45 -0.4,3.9 -0.9,0.8 -0.9,2.05 0.1,1.4 1.15,2 l 0.35,0.2 2.55,11.75 4.05,14.3 q 1.15,3.9 2.55,5.6 3.1,3.65 11.35,3.45 L 0.8,38.4 4.15,38.5 3.7,38.55 q -12.45,1.7 -22.45,-0.8 -2.9,-0.8 -3.95,-2 l -1.3,-3.7 -0.05,-0.4 q -1.15,-7.7 -4.6,-21.85 l -0.5,-2.05 -1.2,-5.15 -0.6,-2.75 -1.5,-6.8 -0.1,-0.7 m 54,41.05 0.25,0.05 0.1,0.05 1.35,0.55 -7.05,1.95 -1.95,0.5 0.25,-0.15 q 1.35,-0.6 2.55,-1.35 l 3.8,-1.35 0.7,-0.25 m 2.45,-56.5 q -0.3,-1.25 -1.3,-2.25 L 21.7,-26 20.25,-26.55 q -2.05,-0.55 -3.95,0.7 -1.8,1.35 -1.9,3.55 l 0.35,2.1 0.25,0.75 q 0.3,0.8 0.55,1.1 0.7,0.75 2.4,0.95 l 3.05,-0.3 0.75,-0.35 1.4,-1.25 0.7,-1.65 q 0.3,-1 0.05,-2.15 m 13.4,-8.3 q -0.75,-1 -0.45,-2.15 0.2,-0.65 0.75,-1.15 0.55,-0.5 1.25,-0.55 l 0.3,-0.05 q 0.8,0 1.45,0.55 0.65,0.5 0.85,1.3 0.2,0.8 -0.15,1.55 l -1.1,1.1 -1.55,0.2 q -0.8,-0.15 -1.35,-0.8 m -12.6,15.15 1.1,0.9 -0.1,-0.4 -0.6,-0.45 -0.2,-0.2 -0.2,0.15 m 18.3,6.15 2.7,-0.15 1.05,0.95 q 0.4,0.65 0.4,1.35 0,0.9 -0.6,1.7 -0.6,0.75 -1.5,0.95 Q 44.2,-5.1 43.3,-5.55 42.45,-6 42.05,-6.85 41.7,-7.7 42,-8.6 q 0.25,-1 1,-1.5 m -91.3,4.7 q -0.1,-1 0.55,-1.7 0.65,-0.85 1.6,-0.75 0.35,0 0.25,-0.15 0.8,0.1 1.45,0.6 0.65,0.55 0.85,1.35 0.25,0.8 -0.1,1.6 -0.3,0.8 -1,1.2 -0.7,0.4 -1.55,0.3 -0.85,-0.1 -1.4,-0.7 -0.65,-0.65 -0.65,-1.75 m 40.15,-8.7 q -0.65,-0.55 -1.55,-0.65 l -1.7,0.25 q -0.8,0.4 -1.3,1.15 l -0.55,1.65 0.1,0.95 q 0.3,1.25 1.5,1.95 0.75,0.5 1.5,0.5 1.45,0 2.4,-1.2 0.35,-0.45 0.55,-0.95 l 0.15,-0.8 Q -6.8,-13 -8.15,-14.1 m -32.65,55.9 -1.3,0.65 -1.25,-0.1 q -0.6,-0.25 -1,-0.75 -0.85,-1.1 -0.15,-2.4 0.5,-0.85 1.65,-1.3 l 1.2,-0.35 1.7,0.15 q 0.9,0.5 1.05,1.45 0.15,0.95 -0.5,1.7 -0.4,0.45 -1.4,0.95 m -6.35,-31.2 q 0.3,-0.85 1.1,-1.4 0.75,-0.55 1.65,-0.55 0.95,0.05 1.7,0.6 0.75,0.6 1,1.45 0.25,0.9 -0.05,1.8 -0.35,0.85 -1.15,1.4 -0.75,0.5 -1.7,0.45 -0.95,-0.1 -1.65,-0.65 -0.65,-0.55 -0.9,-1.4 -0.25,-0.85 0,-1.7"
         fill="#fffd9a"
         fill-opacity="0.498039"
         fill-rule="evenodd"
         stroke="none"
         id="path7" />
      <path
         d="m -32.55,-7.65 -0.85,-4.4 q -0.6,-3.8 0.2,-5.7 0.45,-1.05 1.55,-2.15 l 1.75,0.25 q 11.2,0.5 24.45,-3.45 9.1,-2.75 23,-9.25 1.65,-0.8 2.95,-1.55 h 0.35 q 4.25,0.3 5.8,2.05 l 0.75,1.15 -0.45,0.3 H 26.5 l -1.55,0.15 q -1,0.3 -1.8,1.35 l -0.4,-0.15 q -3.4,-0.85 -5.85,0.45 l -1.35,0.9 q -2.1,1.6 -2.65,2.8 -0.55,1.1 -0.55,3.25 0,1.35 0.25,2.3 v 0.05 l -0.9,0.1 q -6.3,0.95 -14.4,6.3 -1.8,1.25 -2.7,1.7 l 0.3,-1.5 q 0.25,-2.55 -1.15,-3.9 -0.95,-0.9 -3.2,-1.3 -2,-0.3 -3.2,0.05 -2,0.6 -3.1,2.7 -0.7,1.35 -0.95,3.5 l -7.8,-0.3 -0.1,0.05 -0.15,-0.4 -0.4,-2.25 q -0.25,-1.3 -0.85,-2 -0.6,-0.7 -1.5,-0.9 -1,-0.2 -1.75,0.3 -1.55,0.95 -1.35,3.85 l 0.5,3.75 -1,0.9 -1.45,1"
         fill="#ffffff"
         fill-opacity="0"
         fill-rule="evenodd"
         stroke="none"
         id="path8" />
    </g>
    <g
       id="sprite1"
       transform="translate(17.4,15.85)">
      <use
         ffdec:characterId="31"
         height="57.200001"
         transform="matrix(0.5366,0,0,0.5366,-16.6582,-14.546)"
         width="70.75"
         xlink:href="#sprite2"
         id="use8" />
    </g>
    <g
       id="sprite2"
       transform="translate(-8.65,-10.35)">
      <use
         ffdec:characterId="30"
         height="57.200001"
         transform="translate(8.65,10.35)"
         width="70.75"
         xlink:href="#shape1"
         id="use9" />
    </g>
    <g
       id="shape1"
       transform="translate(-8.65,-10.35)">
      <path
         d="m 14.8,41.7 q 0.65,-1.75 2.65,-2.5 1.8,-0.8 3.7,-0.25 1.15,0.45 2.25,1.2 l 0.9,0.4 q 1.65,0.9 2.85,2.5 L 37.8,30.1 q 2.35,-2.8 3.75,-3.95 1.5,-1.15 4.25,-2.4 18.2,-8.85 27.65,-12.6 2.15,-0.8 3.25,-0.8 h 0.8 l 1.9,2.4 -0.2,0.8 q -0.2,1.1 -1.55,3 -5.85,8.25 -18.85,23.8 -1.85,2.35 -3.35,3.5 -1.4,1.15 -4.75,2.75 l -15.15,7.15 q 1.2,1.6 1.75,3.4 l 0.2,1 0.55,2.5 q 0.1,1.95 -1.1,3.55 -1.2,1.65 -3.05,1.9 l -1.3,0.05 q -1.65,0.2 -3.45,-0.65 -1.85,-0.9 -3,-2.6 L 25,60.95 23.8,62.1 q -2.6,2.85 -4.3,3.95 -2.85,1.8 -5.5,1.45 l -1.65,-0.5 -1.2,-0.7 -0.2,-0.2 q -1,-0.85 -1.6,-1.9 L 9.25,64 9.15,63.8 8.75,62.4 q -0.2,-0.8 -0.05,-1.7 0.25,-2.65 2.7,-5.05 1.5,-1.3 4.9,-3.15 L 17.7,51.55 16.05,50 q -1.35,-1.5 -1.8,-3.6 -0.4,-1.85 0.25,-3.45 l 0.3,-1.25"
         fill="#000000"
         fill-opacity="0.372549"
         fill-rule="evenodd"
         stroke="none"
         id="path9" />
    </g>
  </defs>
</svg>
