<?xml version="1.0" encoding="UTF-8" standalone="no"?>
<svg
   ffdec:objectType="frame"
   height="60.099998"
   width="60.57563"
   version="1.1"
   id="svg5"
   sodipodi:docname="ITEM Hunter's Monocle.svg"
   xmlns:inkscape="http://www.inkscape.org/namespaces/inkscape"
   xmlns:sodipodi="http://sodipodi.sourceforge.net/DTD/sodipodi-0.dtd"
   xmlns:xlink="http://www.w3.org/1999/xlink"
   xmlns="http://www.w3.org/2000/svg"
   xmlns:svg="http://www.w3.org/2000/svg"
   xmlns:ffdec="https://www.free-decompiler.com/flash">
  <sodipodi:namedview
     id="namedview5"
     pagecolor="#ffffff"
     bordercolor="#000000"
     borderopacity="0.25"
     inkscape:showpageshadow="2"
     inkscape:pageopacity="0.0"
     inkscape:pagecheckerboard="0"
     inkscape:deskcolor="#d1d1d1"
     fit-margin-top="5"
     fit-margin-left="5"
     fit-margin-right="5"
     fit-margin-bottom="5" />
  <g
     transform="translate(27.597059,28.9)"
     id="g1">
    <use
       ffdec:characterId="17"
       height="119.15"
       id="rarity"
       transform="translate(-58.5,-60.65)"
       width="119.15"
       xlink:href="#sprite0" />
    <use
       ffdec:characterId="1018"
       height="60.25"
       transform="translate(-27.6,-28.95)"
       width="60.599998"
       xlink:href="#shape0"
       id="use1" />
  </g>
  <defs
     id="defs5">
    <g
       id="shape0"
       transform="translate(74.4,30.3)">
      <path
         d="m -58.3,-20.8 q 2.9,-2.25 7.2,-3.2 l 0.65,-0.1 -0.5,-1.6 q -0.25,-1.45 0.55,-2.4 0.55,-0.75 1.8,-1.2 l 3.45,-0.8 2.4,-0.15 q 1.4,0.2 2.05,1.1 0.3,0.45 0.5,1.6 l 0.2,2.95 3.75,0.55 q 6.3,1.55 10.75,7.05 2.9,3.6 4.55,8.3 l 0.45,-0.1 2,-0.25 1.4,0.15 q 0.6,0.25 1.25,1 l 1.05,1.4 0.75,1.3 q 0.4,1 0.1,2.6 -0.2,1.3 -0.65,1.9 -0.75,1.15 -3.45,1.75 l -1,0.2 q 0.15,5.8 -2.3,10.5 -1.4,2.75 -4,5.5 -2.65,2.85 -5.6,4.4 0.3,2.7 0.15,4.25 -0.1,0.9 -0.35,1.5 -0.7,1.5 -3,2.15 l -3.5,0.3 q -2,-0.45 -2.8,-2 l -0.45,-1.8 -0.15,-1.8 h -3.7 q -8.45,-0.4 -14.45,-3.7 -3.35,-1.85 -5.9,-4.6 -2.55,-2.85 -3.8,-6.1 L -71.7,9.6 q -1.35,-0.55 -1.95,-1.85 -0.4,-0.9 -0.5,-2.4 l -0.2,-1.55 q -0.2,-2.05 0.45,-2.9 0.55,-0.7 2.05,-1.2 l 2.1,-0.6 1.15,-4.45 q 1,-3.2 2.85,-6.25 1.5,-2.55 3.4,-4.9 2.1,-2.8 4.05,-4.3 m -1.75,11.9 q -1.7,2.8 -2.65,6.5 l 1.2,-0.15 q 0.3,-3.2 1.45,-6.35 m 16,-6.15 -1.3,0.1 q -1.6,0 -2.6,-0.95 l -0.4,-0.5 -0.4,-0.65 -1.8,1.45 -2.85,3.5 q -1.4,2.15 -2.2,4.65 -0.75,2.25 -1.05,4.75 l 1.4,-0.15 q 1.4,0.1 2.45,1.2 0.9,1 1.3,2.4 0.4,1.4 0.15,2.8 -0.25,1.5 -1.2,2.45 -0.85,0.85 -2.35,1.3 l -0.2,0.05 q 1.45,2.9 2.75,4.5 3.35,4.1 8.55,5.2 l 3.1,0.3 0.45,-1 q 0.8,-1.1 2.25,-1.65 l 2.8,-0.4 q 1.35,0.1 2.15,0.65 l 0.4,0.35 2.95,-2.45 Q -26,9 -25.3,3.7 l 0.15,-1.8 h -0.05 l -2.45,-0.45 q -1.45,-0.7 -1.7,-2.35 l -0.05,-1.55 -0.2,-1.4 -0.05,-1.45 q 0.4,-1.35 2.3,-2.2 l 0.3,-0.1 q -1.25,-3.05 -3.1,-5.4 -2.7,-3.4 -6.3,-4.65 l -3.95,-0.75 -0.05,0.25 q -0.1,1.55 -0.7,2.1 -0.45,0.45 -1.4,0.65 l -1.5,0.35 m -16.3,26.35 2.85,2.6 -1.1,-1.8 q -1.05,-1.85 -1.75,-3.85 l -1.85,0.35 1.85,2.7"
         fill="#000000"
         fill-rule="evenodd"
         stroke="none"
         id="path1" />
      <path
         d="m -48.35,-16.4 0.4,0.5 q 1,0.95 2.6,0.95 l 1.3,-0.1 q 0.8,0.8 1.2,2 0.6,1.5 0.5,3.65 -0.15,3.9 -2.5,6.15 -1.15,1.1 -2.75,1.55 l -3.2,0.2 q -1.8,-0.35 -2.95,-1.55 l -1.1,-1.7 q -0.55,-1.15 -0.7,-2.15 l -0.05,-0.55 q 0.8,-2.5 2.2,-4.65 l 2.85,-3.5 2.2,-0.8 m 19.75,21.75 -0.15,2.85 -0.45,1.3 -1.2,2.15 -1.25,1.15 -1.15,0.7 -1.5,0.1 q -1.1,-0.1 -2,-0.8 -0.9,-0.65 -1.2,-1.7 l -0.35,-1.2 -0.45,-1 q -0.35,-0.9 -0.1,-1.95 0.25,-1 0.95,-1.85 l 1.55,-1.8 1.35,-1.2 q 0.7,-0.35 2,-0.35 l 1.6,0.3 q 0.55,0.25 1.3,1.2 1,1.2 1.05,2.1"
         fill="#ffffff"
         fill-rule="evenodd"
         stroke="none"
         id="path2" />
      <path
         d="m -55.6,-7.45 0.05,0.55 q 0.15,1 0.7,2.15 l 1.1,1.7 q 1.15,1.2 2.95,1.55 l 3.2,-0.2 q 1.6,-0.45 2.75,-1.55 2.35,-2.25 2.5,-6.15 0.1,-2.15 -0.5,-3.65 -0.4,-1.2 -1.2,-2 l 1.5,-0.35 q 0.95,-0.2 1.4,-0.65 0.6,-0.55 0.7,-2.1 l 0.05,-0.25 3.95,0.75 q 3.6,1.25 6.3,4.65 1.85,2.35 3.1,5.4 l -0.3,0.1 q -1.9,0.85 -2.3,2.2 l 0.05,1.45 0.2,1.4 0.05,1.55 q 0.25,1.65 1.7,2.35 l 2.45,0.45 h 0.05 L -25.3,3.7 Q -26,9 -29.7,12.85 l -2.95,2.45 -0.4,-0.35 q -0.8,-0.55 -2.15,-0.65 l -2.8,0.4 q -1.45,0.55 -2.25,1.65 l -0.45,1 -3.1,-0.3 q -5.2,-1.1 -8.55,-5.2 -1.3,-1.6 -2.75,-4.5 l 0.2,-0.05 q 1.5,-0.45 2.35,-1.3 0.95,-0.95 1.2,-2.45 0.25,-1.4 -0.15,-2.8 -0.4,-1.4 -1.3,-2.4 -1.05,-1.1 -2.45,-1.2 l -1.4,0.15 q 0.3,-2.5 1.05,-4.75 m 27,12.8 q -0.05,-0.9 -1.05,-2.1 -0.75,-0.95 -1.3,-1.2 l -1.6,-0.3 q -1.3,0 -2,0.35 l -1.35,1.2 -1.55,1.8 q -0.7,0.85 -0.95,1.85 -0.25,1.05 0.1,1.95 l 0.45,1 0.35,1.2 q 0.3,1.05 1.2,1.7 0.9,0.7 2,0.8 l 1.5,-0.1 1.15,-0.7 1.25,-1.15 1.2,-2.15 0.45,-1.3 0.15,-2.85"
         fill="#855e5e"
         fill-opacity="0.498039"
         fill-rule="evenodd"
         stroke="none"
         id="path3" />
      <path
         d="m -60.05,-8.9 q -1.15,3.15 -1.45,6.35 l -1.2,0.15 q 0.95,-3.7 2.65,-6.5 m -0.3,20.2 -1.85,-2.7 1.85,-0.35 q 0.7,2 1.75,3.85 l 1.1,1.8 -2.85,-2.6"
         fill="#636363"
         fill-rule="evenodd"
         stroke="none"
         id="path4" />
    </g>
    <g
       id="sprite1"
       transform="translate(17.4,15.85)">
      <use
         ffdec:characterId="31"
         height="57.200001"
         transform="matrix(0.5366,0,0,0.5366,-16.6582,-14.546)"
         width="70.75"
         xlink:href="#sprite2"
         id="use4" />
    </g>
    <g
       id="sprite2"
       transform="translate(-8.65,-10.35)">
      <use
         ffdec:characterId="30"
         height="57.200001"
         transform="translate(8.65,10.35)"
         width="70.75"
         xlink:href="#shape1"
         id="use5" />
    </g>
    <g
       id="shape1"
       transform="translate(-8.65,-10.35)">
      <path
         d="m 14.8,41.7 q 0.65,-1.75 2.65,-2.5 1.8,-0.8 3.7,-0.25 1.15,0.45 2.25,1.2 l 0.9,0.4 q 1.65,0.9 2.85,2.5 L 37.8,30.1 q 2.35,-2.8 3.75,-3.95 1.5,-1.15 4.25,-2.4 18.2,-8.85 27.65,-12.6 2.15,-0.8 3.25,-0.8 h 0.8 l 1.9,2.4 -0.2,0.8 q -0.2,1.1 -1.55,3 -5.85,8.25 -18.85,23.8 -1.85,2.35 -3.35,3.5 -1.4,1.15 -4.75,2.75 l -15.15,7.15 q 1.2,1.6 1.75,3.4 l 0.2,1 0.55,2.5 q 0.1,1.95 -1.1,3.55 -1.2,1.65 -3.05,1.9 l -1.3,0.05 q -1.65,0.2 -3.45,-0.65 -1.85,-0.9 -3,-2.6 L 25,60.95 23.8,62.1 q -2.6,2.85 -4.3,3.95 -2.85,1.8 -5.5,1.45 l -1.65,-0.5 -1.2,-0.7 -0.2,-0.2 q -1,-0.85 -1.6,-1.9 L 9.25,64 9.15,63.8 8.75,62.4 q -0.2,-0.8 -0.05,-1.7 0.25,-2.65 2.7,-5.05 1.5,-1.3 4.9,-3.15 L 17.7,51.55 16.05,50 q -1.35,-1.5 -1.8,-3.6 -0.4,-1.85 0.25,-3.45 l 0.3,-1.25"
         fill="#000000"
         fill-opacity="0.372549"
         fill-rule="evenodd"
         stroke="none"
         id="path5" />
    </g>
  </defs>
</svg>
