<?xml version="1.0" encoding="UTF-8" standalone="no"?>
<svg
   ffdec:objectType="frame"
   height="68.025002"
   width="80.25425"
   version="1.1"
   id="svg6"
   xmlns:xlink="http://www.w3.org/1999/xlink"
   xmlns="http://www.w3.org/2000/svg"
   xmlns:svg="http://www.w3.org/2000/svg"
   xmlns:ffdec="https://www.free-decompiler.com/flash">
  <g
     transform="translate(41.377778,30.875)"
     id="g1">
    <use
       ffdec:characterId="17"
       height="119.15"
       id="rarity"
       transform="translate(-58.5,-60.65)"
       width="119.15"
       xlink:href="#sprite0" />
    <use
       ffdec:characterId="858"
       height="68.099998"
       transform="translate(-41.4,-30.9)"
       width="80.300003"
       xlink:href="#shape0"
       id="use1" />
  </g>
  <defs
     id="defs6">
    <g
       id="shape0"
       transform="translate(41.95,31.65)">
      <path
         d="m -33.85,-10 -2.5,-5.65 q 7.7,-4.45 18.75,-7.95 5,-1.6 8.5,-2.15 l 5.6,-0.5 13.6,-0.55 q 4.55,0.1 7.1,1.05 3,1.1 7.3,4.9 l 8.1,7.8 0.65,0.95 -0.05,1.25 q -0.4,1.45 -1.4,3.25 l -0.7,1.15 Q 30.15,-6.75 28.9,-7.6 26.85,-9 24.1,-11.45 l -4.65,-4.1 q -3.45,-2.9 -7.1,-5.15 0.25,-1 0.1,-1.65 -0.25,-1.25 -1.75,-2.1 -2.15,-1.25 -6.65,-1.05 -9.8,0.45 -16.35,2.9 -2.25,0.95 -2.75,2.1 -0.5,1.15 0.45,3.15 -0.6,0.4 -1.55,0.8 l -16.55,6.2 -1.15,0.35 m 53.65,12.7 -0.05,0.65 0.4,1.75 0.25,0.75 2.55,6.7 Q 22.25,13.2 20.5,13.3 L 15.1,13 Q 7.9,12.5 -0.55,13.25 l -11.3,1.55 -1.45,0.2 -1.45,-0.1 q -0.75,-0.15 -1.25,-0.65 -0.6,-0.55 -0.65,-1.3 -0.1,-1.15 1.5,-2.55 Q -12,7.75 -7.25,5.55 -4.35,4.2 1.45,2.1 L 5.5,0.8 9.7,0.3 l 3.35,0.5 3.7,0.75 2.7,0.9 0.35,0.25"
         fill="#6c7489"
         fill-rule="evenodd"
         stroke="none"
         id="path1" />
      <path
         d="m 31.1,-6.45 0.7,-1.15 q 1,-1.8 1.4,-3.25 l 0.05,-1.25 -0.65,-0.95 -8.1,-7.8 q -4.3,-3.8 -7.3,-4.9 -2.55,-0.95 -7.1,-1.05 l -13.6,0.55 -5.6,0.5 q -3.5,0.55 -8.5,2.15 -11.05,3.5 -18.75,7.95 l 2.5,5.65 q 1.1,2.65 1.65,4.5 l 0.95,3.5 q 0.55,2 1.25,3.3 h 3.45 l 3.45,-0.15 q 1.6,0 2.2,0.6 0.9,0.75 0.7,3.25 l -0.05,5.5 q 0.15,11 -0.55,20.8 l 13.35,-0.9 13.3,-1.65 9,-1.4 3.65,-0.8 3.7,-0.7 L 24.95,25.5 27.7,25 22.95,12.55 20.4,5.85 20.15,5.1 19.75,3.35 19.8,2.7 Q 20,1.6 20.85,1.1 l 2.55,0.1 q 0.8,0.35 2.3,1.4 l 0.65,0.15 0.5,-0.7 q 1.3,-3.75 3.1,-6.65 l 1.15,-1.85 m -45.7,-10.9 q -0.95,-2 -0.45,-3.15 0.5,-1.15 2.75,-2.1 6.55,-2.45 16.35,-2.9 4.5,-0.2 6.65,1.05 1.5,0.85 1.75,2.1 0.15,0.65 -0.1,1.65 l -0.45,1.3 -1.75,4 Q 5.85,-5.3 3.2,-0.55 2,1.5 0.75,1.55 -0.45,1.6 -1.8,-0.05 l -5.85,-6.7 -2.9,-3.55 q -1.4,-1.9 -3.8,-6.5 l -0.25,-0.55 m 52.35,7.5 -1.85,4.35 -2.2,3.7 q -1.4,2.25 -1.95,3.85 l -0.7,2.3 q -0.4,1.35 -0.95,2.15 -0.75,1.05 -1.95,1.45 -1.3,0.4 -2.2,-0.3 L 32.2,24.2 q 1.05,2.75 0.05,3.95 -0.6,0.75 -2.45,1.15 l -16.7,3.3 -7.25,1.2 -19.25,2.25 -9.1,0.35 q -1.85,-0.1 -2.5,-0.75 -0.8,-0.75 -0.8,-2.9 l 0.4,-13.2 q 0.3,-8.1 0,-13.15 l -2,-0.1 -2,0.2 q -2.55,0.2 -3.8,-0.8 -1,-0.75 -1.8,-3.05 l -2.5,-8 q -1.55,-4.7 -3.15,-7.7 l -1.1,-2.4 q -0.4,-1.35 0.1,-2.4 0.5,-1 2.45,-1.95 6.55,-3.25 11.15,-5.15 l 7.25,-2.75 q 6,-2.1 10,-2.8 l 10.05,-0.9 q 7.1,-0.3 10.75,-0.2 5,0.1 8.1,1.1 4.3,1.4 9.45,6 l 5.65,5.55 3.25,3.25 q 1.65,1.75 1.85,2.9 0.15,1.05 -0.55,2.95 M 10.55,-0.7 Q 9.4,-1.35 9.25,-2.65 9.15,-3.1 9.2,-4.05 L 9,-4.95 Q 8.8,-5.85 8.7,-7.7 L 8.8,-8.65 Q 9,-9.3 10.25,-9.7 l 3.4,-1 5,-0.75 q 1.4,-0.1 1.95,0.5 l 0.45,1.35 0.75,5.95 q 0.2,1.35 -0.25,1.9 -0.35,0.55 -1.2,0.7 L 18.95,-1 13.8,-0.5 10.55,-0.7 M -3.6,-9.2 0,-4.95 0.25,-4.8 q 0.2,0 0.3,-0.25 3.8,-7.85 7.15,-15.8 -9.05,-0.75 -17.75,2.55 l 2.3,4.05 1.05,1.6 1.6,1.75 1.5,1.7 m 16,2.15 q -0.3,0 -0.35,0.2 v 0.25 l 0.4,2.7 6,-0.6 -0.45,-3.6 -5.6,1.05"
         fill="#000000"
         fill-rule="evenodd"
         stroke="none"
         id="path2" />
      <path
         d="m -33.85,-10 1.15,-0.35 16.55,-6.2 q 0.95,-0.4 1.55,-0.8 l 0.25,0.55 q 2.4,4.6 3.8,6.5 l 2.9,3.55 5.85,6.7 Q -0.45,1.6 0.75,1.55 2,1.5 3.2,-0.55 5.85,-5.3 10.15,-15.4 l 1.75,-4 0.45,-1.3 q 3.65,2.25 7.1,5.15 l 4.65,4.1 q 2.75,2.45 4.8,3.85 1.25,0.85 2.2,1.15 l -1.15,1.85 q -1.8,2.9 -3.1,6.65 L 26.35,2.75 25.7,2.6 Q 24.2,1.55 23.4,1.2 L 20.85,1.1 Q 20,1.6 19.8,2.7 L 19.45,2.45 16.75,1.55 13.05,0.8 9.7,0.3 5.5,0.8 1.45,2.1 q -5.8,2.1 -8.7,3.45 -4.75,2.2 -7.9,4.85 -1.6,1.4 -1.5,2.55 0.05,0.75 0.65,1.3 0.5,0.5 1.25,0.65 l 1.45,0.1 1.45,-0.2 11.3,-1.55 Q 7.9,12.5 15.1,13 l 5.4,0.3 q 1.75,-0.1 2.45,-0.75 L 27.7,25 l -2.75,0.5 -2.75,0.35 -3.7,0.7 -3.65,0.8 -9,1.4 -13.3,1.65 -13.35,0.9 q 0.7,-9.8 0.55,-20.8 L -20.2,5 q 0.2,-2.5 -0.7,-3.25 -0.6,-0.6 -2.2,-0.6 L -26.55,1.3 H -30 Q -30.7,0 -31.25,-2 l -0.95,-3.5 q -0.55,-1.85 -1.65,-4.5 m 44.4,9.3 3.25,0.2 5.15,-0.5 1.4,-0.05 Q 21.2,-1.2 21.55,-1.75 22,-2.3 21.8,-3.65 L 21.05,-9.6 20.6,-10.95 q -0.55,-0.6 -1.95,-0.5 l -5,0.75 -3.4,1 Q 9,-9.3 8.8,-8.65 L 8.7,-7.7 q 0.1,1.85 0.3,2.75 l 0.2,0.9 q -0.05,0.95 0.05,1.4 0.15,1.3 1.3,1.95"
         fill="#5d6476"
         fill-rule="evenodd"
         stroke="none"
         id="path3" />
      <path
         d="m -3.6,-9.2 -1.5,-1.7 -1.6,-1.75 -1.05,-1.6 -2.3,-4.05 q 8.7,-3.3 17.75,-2.55 -3.35,7.95 -7.15,15.8 -0.1,0.25 -0.3,0.25 L 0,-4.95 -3.6,-9.2"
         fill="#3f434e"
         fill-rule="evenodd"
         stroke="none"
         id="path4" />
      <path
         d="m 12.4,-7.05 5.6,-1.05 0.45,3.6 -6,0.6 -0.4,-2.7 v -0.25 q 0.05,-0.2 0.35,-0.2"
         fill="#e0e0e0"
         fill-rule="evenodd"
         stroke="none"
         id="path5" />
    </g>
    <g
       id="sprite1"
       transform="translate(17.4,15.85)">
      <use
         ffdec:characterId="31"
         height="57.200001"
         transform="matrix(0.5366,0,0,0.5366,-16.6582,-14.546)"
         width="70.75"
         xlink:href="#sprite2"
         id="use5" />
    </g>
    <g
       id="sprite2"
       transform="translate(-8.65,-10.35)">
      <use
         ffdec:characterId="30"
         height="57.200001"
         transform="translate(8.65,10.35)"
         width="70.75"
         xlink:href="#shape1"
         id="use6" />
    </g>
    <g
       id="shape1"
       transform="translate(-8.65,-10.35)">
      <path
         d="m 14.8,41.7 q 0.65,-1.75 2.65,-2.5 1.8,-0.8 3.7,-0.25 1.15,0.45 2.25,1.2 l 0.9,0.4 q 1.65,0.9 2.85,2.5 L 37.8,30.1 q 2.35,-2.8 3.75,-3.95 1.5,-1.15 4.25,-2.4 18.2,-8.85 27.65,-12.6 2.15,-0.8 3.25,-0.8 h 0.8 l 1.9,2.4 -0.2,0.8 q -0.2,1.1 -1.55,3 -5.85,8.25 -18.85,23.8 -1.85,2.35 -3.35,3.5 -1.4,1.15 -4.75,2.75 l -15.15,7.15 q 1.2,1.6 1.75,3.4 l 0.2,1 0.55,2.5 q 0.1,1.95 -1.1,3.55 -1.2,1.65 -3.05,1.9 l -1.3,0.05 q -1.65,0.2 -3.45,-0.65 -1.85,-0.9 -3,-2.6 L 25,60.95 23.8,62.1 q -2.6,2.85 -4.3,3.95 -2.85,1.8 -5.5,1.45 l -1.65,-0.5 -1.2,-0.7 -0.2,-0.2 q -1,-0.85 -1.6,-1.9 L 9.25,64 9.15,63.8 8.75,62.4 q -0.2,-0.8 -0.05,-1.7 0.25,-2.65 2.7,-5.05 1.5,-1.3 4.9,-3.15 L 17.7,51.55 16.05,50 q -1.35,-1.5 -1.8,-3.6 -0.4,-1.85 0.25,-3.45 l 0.3,-1.25"
         fill="#000000"
         fill-opacity="0.372549"
         fill-rule="evenodd"
         stroke="none"
         id="path6" />
    </g>
  </defs>
</svg>
