<?xml version="1.0" encoding="UTF-8" standalone="no"?>
<svg
   ffdec:objectType="frame"
   height="72.201538"
   width="83.904167"
   version="1.1"
   id="svg7"
   xmlns:xlink="http://www.w3.org/1999/xlink"
   xmlns="http://www.w3.org/2000/svg"
   xmlns:svg="http://www.w3.org/2000/svg"
   xmlns:ffdec="https://www.free-decompiler.com/flash">
  <g
     transform="translate(40.854167,41.751064)"
     id="g1">
    <use
       ffdec:characterId="17"
       height="119.15"
       id="rarity"
       transform="translate(-58.5,-60.65)"
       width="119.15"
       xlink:href="#sprite0" />
    <use
       ffdec:characterId="884"
       height="72.199997"
       transform="translate(-40.85,-41.75)"
       width="83.900002"
       xlink:href="#shape0"
       id="use1" />
  </g>
  <defs
     id="defs7">
    <g
       id="shape0"
       transform="translate(41.4,42.5)">
      <path
         d="m -30.1,-8.15 -1.65,-3.15 0.55,0.1 1.85,0.35 1.8,0.15 q -1.5,2.8 0.95,4.15 L -26.85,-6 q -0.7,1.5 -1,2.9 l -1.7,-3.05 -0.55,-2 m 7.35,-3.3 -0.05,-0.05 0.25,-0.1 -0.2,0.15 M -3.9,-19.2 0.35,-20 q -1.5,1.6 -2.35,3.75 l -0.15,0.45 -1.75,-3.4 m 0.65,9.5 0.2,0.2 -0.15,0.1 -1.8,1.9 -0.4,-0.85 q -1.45,-2.85 -3.25,-4.25 -2.2,-1.6 -5.4,-1.7 -3.2,-0.15 -6.1,1.25 l 0.75,-1 q 0.35,-0.6 0.55,-1.6 l 0.1,-0.35 12.2,-2.65 0.6,1.95 2.7,7 m 6.5,27.9 v -0.15 l 0.25,-5.4 -0.2,-1.9 q -0.2,-0.7 -1,-1.9 L 1.25,7.5 1.8,7.45 Q 5.05,7.2 6.9,5.05 L 8.1,3 8.85,0.8 8.9,-0.95 l 1.8,0.1 1.85,5.5 q 0.5,0.8 0.55,1.75 l -0.15,1.45 -3,7.15 -0.3,0.5 -1.1,2.1 -5.3,0.6 M 31.1,-2.25 Q 31,-2.9 31.05,-3.55 l 2.55,-0.4 v 0.25 l -0.05,0.45 v 0.2 l 0.2,0.45 0.45,0.6 0.05,0.05 -3.15,-0.3 m -41.75,23.55 -0.7,-2 -1.6,-6.65 1.3,-1 Q -9.7,9.8 -9.2,7.6 l 0.05,-0.4 0.95,0.6 q 1.45,0.8 2.55,-0.4 1.2,-1.25 1.45,-2.3 l 1.05,1 0.75,0.55 q -0.9,0.15 -1.8,0.65 -1.4,0.8 -2.15,2.15 -0.5,0.9 -0.7,2.3 l -0.8,1.45 -0.4,2.3 q -0.25,3.1 0.45,4.7 l -2.85,1.1 M -23.5,6.9 l -0.6,-1.7 1.55,0.6 0.25,0.05 -0.05,0.05 -0.4,1.7 0.2,0.95 -0.6,0.1 -0.35,-1.75"
         fill="#b4b4b4"
         fill-rule="evenodd"
         stroke="none"
         id="path1" />
      <path
         d="M 17.3,8.3 17,11.75 q -0.7,5.2 -2.6,10.1 v 0.85 l -0.65,1.5 q -0.65,3.25 -4.55,3.1 -7,-0.2 -13.75,1.15 l -12.1,1.25 q -5.1,0.05 -5.75,-5.2 l -0.25,-1.95 -0.9,-2.4 -0.8,-2.35 q -3.4,3.05 -6.75,1 L -31.95,17.85 -41.2,-1.5 q -0.35,-0.7 -0.1,-1.55 l 1,-2.8 q 0.7,-5 2.75,-9.4 l -0.05,-0.45 0.15,-2.9 q 0.4,-2.45 1.05,-3.55 0.8,-1.25 2.6,-2.5 l 2.4,-1.45 q -1,-2.6 -0.05,-5.45 0.5,-1.55 1.4,-2.65 l -0.05,-0.75 q 0.1,-1.8 0.4,-2.65 l 0.65,-1.25 1.05,-1.4 q 2.25,-2.3 5,-2.25 l 2.05,0.3 1.6,0.5 q 1.15,0.55 2.55,2.35 l 1,1.7 0.2,1.8 0.05,0.9 q 3.25,0.35 6.3,1.9 l 3.05,1.95 1.4,2.2 1,1.7 q 0.7,1.2 1.05,2.5 0.35,-1.8 0.35,-4.75 l 0.05,-2.85 v -1.95 l -0.4,-4.35 0.05,-1.4 q 0.2,-0.65 0.8,-1 l 1.25,-0.25 1.45,1.15 3.1,3.6 q 1.1,1.55 2.1,5.35 l 0.4,1.8 0.4,-0.65 q 1.65,-2.4 2.9,-3.5 2.5,-2.25 6.2,-3.05 l 1.35,-0.1 q 0.8,0.2 0.95,0.85 0.15,0.5 -0.3,1.05 l -0.75,0.8 q -0.75,0.7 -1.75,2.4 l -1.85,3.15 q -1.7,2.6 -2.6,4.75 l 1.75,0.35 q 4.05,1.2 6.25,4.65 l 0.35,0.55 1.4,-1.05 q 2.05,-1.4 3.8,-1.75 l 0.5,-1.15 q 0.85,-1.55 2,-2.4 1.15,-0.75 2.9,-1 l 2.9,0.1 q 1.05,0.35 2.5,1.6 1.85,1.55 1.75,2.95 l -0.05,0.6 0.1,0.55 0.65,0.4 q 1.9,0.8 3.05,1.8 1.4,1.3 1.7,3.05 l -0.25,2.7 -0.65,2.7 q 1.35,6.5 -0.45,12.7 -0.2,0.8 -1.05,0.9 L 27.65,6.25 Q 21.75,7.95 20.2,1.7 19.25,-2.25 18.65,-6.1 l -1.15,1.9 q -0.75,1 -1.9,1.75 1.9,5.2 1.7,10.75 M -7.8,-22.35 -5.55,-23 -5.6,-23.35 v -0.25 l -2.2,-3.25 q -2.8,-3.85 -7.7,-4.4 l -2.35,0.35 v 0.25 l 0.1,0.85 v 0.65 0.85 q -1.35,3.1 -3.5,4.45 1.35,1.5 2,3 l 11.45,-1.5 M -21,-33.75 q 0.7,-0.3 1,-0.55 l 0.75,-0.7 q 0.15,-0.25 0.15,-0.85 -0.05,-1.05 -0.9,-1.8 -0.8,-0.65 -1.9,-0.9 l -1.65,0.1 q -0.9,0.3 -1.5,1.15 -0.6,0.85 -0.75,1.9 v 0.5 l 0.65,0.5 1.05,0.6 1.1,0.4 q 0.95,0.15 2,-0.35 m -6.5,4.9 0.65,1.55 2,0.2 q 1.65,-0.5 2.55,-1.75 l -2.4,-0.25 q -1.55,-0.5 -2.65,-1.75 -0.4,0.85 -0.15,2 m 5.5,9.9 -0.7,-1.35 -0.8,-0.7 -0.9,-0.6 -1.1,-0.8 -1.2,-0.05 -1.15,-0.1 q -1,0.05 -2.2,0.8 l -1.85,1.4 -0.55,0.7 -0.45,2.3 q -0.1,0.95 0.35,1.4 0.2,0.2 1.15,0.45 l 4.6,0.85 1.1,0.05 0.95,-0.2 q 1.3,-0.4 1.9,-0.75 l 0.7,-0.6 0.2,-0.7 0.1,-1.25 -0.15,-0.85 m -7.45,29.9 0.8,1.95 0.5,1.05 Q -25.7,12.2 -23.55,12.5 -24.7,12 -25.5,10.85 L -26.4,9 -26.7,8.3 -26.75,7.9 -26.8,7.05 -27.6,5.1 l -0.35,-1.3 -2.5,-5.3 -0.75,-2.4 -0.7,-0.95 -0.2,-0.4 -0.2,-0.8 -1.25,-2.8 -0.6,-1.75 -0.35,1.5 -0.05,0.3 q -0.2,1.3 -0.55,2.55 l -0.1,0.4 -0.6,2.2 -0.3,1.4 -0.1,0.35 0.65,1.25 0.9,1.55 1.45,2.3 1.05,1.95 Q -31.95,5.6 -32,6 l 0.9,1.75 0.65,0.95 0.4,0.65 0.5,1.25 0.1,0.35 m -0.65,-19.1 0.55,2 1.7,3.05 q 0.3,-1.4 1,-2.9 l 0.25,-0.55 q -2.45,-1.35 -0.95,-4.15 l -1.8,-0.15 -1.85,-0.35 -0.55,-0.1 1.65,3.15 m 7.35,-3.3 0.2,-0.15 -0.25,0.1 0.05,0.05 M -8.75,2 q 0.5,-0.65 0.7,-1.85 0.65,-3.35 -0.65,-6.35 -0.45,-1.15 -1.2,-2.05 -1.8,-1.95 -4.5,-2.05 -2.5,-0.15 -4.8,1.4 -1.75,1.15 -2.9,3.05 -1.1,1.85 -1.3,3.95 -0.1,1.15 0.2,1.8 l 0.95,1.3 0.75,0.95 0.8,0.4 0.9,-0.85 q 0.55,-0.4 1.5,-0.8 l 1.65,-0.5 q 1.15,-0.2 1.45,0.55 0.2,0.55 -0.3,1.15 l -1,0.65 q -1.45,0.75 -1.85,1.85 l -0.3,1.55 -0.1,1.3 q 0.1,0.7 1.15,1.4 l 0.9,0.45 0.95,0.05 1.4,-0.3 0.85,-0.75 q 0.7,-0.8 1.05,-1.8 l 0.7,-1.9 Q -11.3,3.9 -10.7,3.75 L -8.75,2 m 5.5,-11.7 -2.7,-7 -0.6,-1.95 -12.2,2.65 -0.1,0.35 q -0.2,1 -0.55,1.6 l -0.75,1 q 2.9,-1.4 6.1,-1.25 3.2,0.1 5.4,1.7 1.8,1.4 3.25,4.25 l 0.4,0.85 1.8,-1.9 0.15,-0.1 -0.2,-0.2 m -0.65,-9.5 1.75,3.4 0.15,-0.45 Q -1.15,-18.4 0.35,-20 l -4.25,0.8 m 17.25,1.05 q -1.45,-0.95 -2.9,-1.15 -1.95,-0.3 -4.85,1.05 -1.4,0.65 -2.1,1.35 -0.75,0.85 -1.3,2.7 -0.55,1.7 -0.4,2.55 L 2.2,-9.6 Q 2.25,-8.85 1.9,-8.25 1.55,-7.6 0.5,-7.1 l -1.35,0.65 -0.75,1.05 -1,2.1 q -0.4,1.45 -0.25,3.25 0,0.9 0.4,1.5 l 1,0.9 1.15,1 2.15,0.15 Q 3.2,3.3 3.65,2.95 4.25,2.55 4.8,1.15 l 0.35,-1.1 v -1.1 L 4.7,-3.25 Q 4.5,-4.25 4.65,-4.6 5,-5.35 5.9,-5.15 6.45,-5.1 7,-4.6 h 0.1 l 1.55,-0.1 1.55,-0.2 2.1,-0.9 1.85,-1.15 1.05,-1.8 1.15,-3.15 q 0.35,-2 -0.2,-3.3 -0.6,-1.6 -2.8,-2.95 M 2.2,-24.5 l 1.2,0.05 v -0.8 l 0.15,-1.6 -0.25,-1.5 -1.8,-5.6 -0.75,9.7 1.45,-0.25 m 4.6,0.95 1.55,-0.2 0.15,-0.35 0.55,-1.25 q 1.15,-2.7 4,-7 -1.45,0.95 -2.8,2.65 l -2.2,3.2 q -1.15,1.85 -1.45,3 l 0.2,-0.05 M 12.95,7.85 13.1,6.4 Q 13.05,5.45 12.55,4.65 L 10.7,-0.85 8.9,-0.95 8.85,0.8 8.1,3 6.9,5.05 Q 5.05,7.2 1.8,7.45 L 1.25,7.5 2.3,8.85 q 0.8,1.2 1,1.9 l 0.2,1.9 -0.25,5.4 V 18.2 Q 2.95,20.3 2,22.05 l -0.3,0.5 2.85,-0.45 4.4,-0.5 0.6,-0.2 Q 9.6,20.6 9.9,19.85 l 0.2,-1 0.2,-0.7 0.3,-0.4 0.4,-1.45 0.45,-1.3 0.3,-1.1 0.15,-0.65 0.3,-2.8 0.6,-2.1 0.15,-0.5 M 38.4,-14 q -0.35,-0.8 -1.65,-1.25 l -2.05,-0.6 q -1.6,-0.7 -1.85,-2.5 l -0.1,-1.4 q -0.1,-0.75 -0.55,-1.1 l -1.4,-0.3 -1.25,0.25 q -0.5,0.25 -0.85,0.95 l -0.6,1.15 -0.35,0.8 -1.15,0.85 -2.25,1.05 q -1.3,0.7 -1.7,1.8 l -0.2,1.15 0.2,1.75 0.35,0.9 0.4,0.6 q 0.95,1.4 1.9,1.95 1.3,0.7 3.7,0.6 3.4,-0.25 6.45,-1.25 1.35,-0.45 2,-1.15 0.7,-0.8 0.95,-2.35 0.3,-1.2 0,-1.9 M 25.8,1.6 26.3,1.55 28.95,1.15 29.2,1.1 28.7,-0.8 28.55,-1.65 28.35,-3 28.1,-3.35 25.2,-3.6 24.5,-3.8 25.8,1.6 M 34.25,-1.95 34.2,-2 33.75,-2.6 33.55,-3.05 v -0.2 L 33.6,-3.7 v -0.25 l -2.55,0.4 Q 31,-2.9 31.1,-2.25 l 0.1,1.35 0.05,1.65 5.9,-1.15 V -0.6 L 37,-1.5 l -0.65,0.15 -1.65,-0.2 -0.45,-0.4 m -41.3,13.7 q 0.2,-1.4 0.7,-2.3 Q -5.6,8.1 -4.2,7.3 -3.3,6.8 -2.4,6.65 L -3.15,6.1 -4.2,5.1 Q -4.45,6.15 -5.65,7.4 -6.75,8.6 -8.2,7.8 L -9.15,7.2 -9.2,7.6 q -0.5,2.2 -2.45,4.05 l -1.3,1 1.6,6.65 0.7,2 0.5,1.55 0.35,1.05 4.35,-0.45 L -5.8,23.05 -6.45,21.9 -6.8,20.7 -7.1,18.05 -7.2,15.6 q -0.1,-2.25 0.15,-3.85 m 4.6,-1.1 q -0.75,0.2 -0.85,1.4 -0.35,2.25 0.15,6.8 l 0.25,1.05 q 0.25,0.6 0.85,0.65 0.7,0 1.2,-1.05 Q 0.2,17.25 0,13.1 -0.1,11.4 -0.6,10.8 l -0.9,-0.05 -0.95,-0.1 m -14,13.75 1.4,-0.1 0.8,-0.05 0.3,-0.05 -0.2,-0.7 -0.2,-0.65 q -1.15,-3.95 -2.95,-7.6 l -1.1,-2.4 -1.05,-0.5 -3.05,0.4 q 0.95,0.35 1.85,1.15 0.55,0.5 0.75,1.25 0.8,3.1 2,6.1 l 1,2.85 0.05,0.3 h 0.4 m -7.05,-17.5 0.35,1.75 0.6,-0.1 -0.2,-0.95 0.4,-1.7 0.05,-0.05 -0.25,-0.05 -1.55,-0.6 0.6,1.7"
         fill="#000000"
         fill-rule="evenodd"
         stroke="none"
         id="path2" />
      <path
         d="m -36.1,-2.25 0.3,-1.4 0.6,-2.2 0.1,-0.4 q 0.35,-1.25 0.55,-2.55 l 0.05,-0.3 0.35,-1.5 0.6,1.75 1.25,2.8 0.2,0.8 0.2,0.4 0.7,0.95 0.75,2.4 2.5,5.3 0.35,1.3 0.8,1.95 0.05,0.85 0.05,0.4 0.3,0.7 0.9,1.85 q 0.8,1.15 1.95,1.65 -2.15,-0.3 -4.6,1.45 l -0.5,-1.05 -0.8,-1.95 V 10.8 l -0.1,-0.2 -0.5,-1.25 V 9.3 L -30.1,8.9 -30.5,8 -31.1,7.75 -32,6 q 0.05,-0.4 -0.15,-0.85 l -1.05,-1.95 -1.45,-2.3 -0.9,-1.55 -0.55,-1.6 m 39.35,20.45 5.3,-0.6 1.1,-2.1 0.3,-0.5 3,-7.15 -0.15,0.5 -0.6,2.1 -0.3,2.8 -0.15,0.65 -0.3,1.1 -0.45,1.3 -0.4,1.45 -0.3,0.4 -0.2,0.7 -0.2,1 Q 9.6,20.6 9.55,21.4 L 8.95,21.6 4.55,22.1 1.7,22.55 2,22.05 Q 2.95,20.3 3.25,18.2 M 25.8,1.6 l -1.3,-5.4 0.7,0.2 2.9,0.25 0.25,0.35 0.2,1.35 0.15,0.85 0.5,1.9 -0.25,0.05 -2.65,0.4 -0.5,0.05 m 5.3,-3.85 3.15,0.3 0.45,0.4 1.65,0.2 0.65,-0.15 0.15,0.9 v 0.2 L 31.25,0.75 31.2,-0.9 31.1,-2.25 M -10.65,21.3 -7.8,20.2 q -0.7,-1.6 -0.45,-4.7 l 0.4,-2.3 0.8,-1.45 q -0.25,1.6 -0.15,3.85 l 0.1,2.45 0.3,2.65 0.35,1.2 0.65,1.15 0.35,0.4 -4.35,0.45 -0.35,-1.05 -0.5,-1.55 m -6.25,2.8 -1,-2.85 q -1.2,-3 -2,-6.1 -0.2,-0.75 -0.75,-1.25 -0.9,-0.8 -1.85,-1.15 l 3.05,-0.4 1.05,0.5 1.1,2.4 q 1.8,3.65 2.95,7.6 l 0.2,0.65 0.2,0.7 -0.3,0.05 -0.8,0.05 -1.4,0.1 -0.45,-0.3"
         fill="#989898"
         fill-rule="evenodd"
         stroke="none"
         id="path3" />
      <path
         d="m -27.5,-28.85 q -0.25,-1.15 0.15,-2 1.1,1.25 2.65,1.75 l 2.4,0.25 q -0.9,1.25 -2.55,1.75 l -2,-0.2 -0.65,-1.55"
         fill="#e5e3d0"
         fill-rule="evenodd"
         stroke="none"
         id="path4" />
      <path
         d="m -21,-33.75 q -1.05,0.5 -2,0.35 l -1.1,-0.4 -1.05,-0.6 -0.65,-0.5 v -0.5 q 0.15,-1.05 0.75,-1.9 0.6,-0.85 1.5,-1.15 l 1.65,-0.1 q 1.1,0.25 1.9,0.9 0.85,0.75 0.9,1.8 0,0.6 -0.15,0.85 l -0.75,0.7 q -0.3,0.25 -1,0.55 m -1,14.8 0.15,0.85 -0.1,1.25 -0.2,0.7 -0.7,0.6 q -0.6,0.35 -1.9,0.75 l -0.95,0.2 -1.1,-0.05 -4.6,-0.85 q -0.95,-0.25 -1.15,-0.45 -0.45,-0.45 -0.35,-1.4 l 0.45,-2.3 0.55,-0.7 1.85,-1.4 q 1.2,-0.75 2.2,-0.8 l 1.15,0.1 1.2,0.05 1.1,0.8 0.9,0.6 0.8,0.7 0.7,1.35 M -8.75,2 -10.7,3.75 q -0.6,0.15 -1.05,0.85 l -0.7,1.9 q -0.35,1 -1.05,1.8 l -0.85,0.75 -1.4,0.3 -0.95,-0.05 -0.9,-0.45 q -1.05,-0.7 -1.15,-1.4 l 0.1,-1.3 0.3,-1.55 q 0.4,-1.1 1.85,-1.85 l 1,-0.65 Q -15,1.5 -15.2,0.95 -15.5,0.2 -16.65,0.4 l -1.65,0.5 q -0.95,0.4 -1.5,0.8 l -0.9,0.85 -0.8,-0.4 -0.75,-0.95 -0.95,-1.3 q -0.3,-0.65 -0.2,-1.8 0.2,-2.1 1.3,-3.95 1.15,-1.9 2.9,-3.05 2.3,-1.55 4.8,-1.4 2.7,0.1 4.5,2.05 0.75,0.9 1.2,2.05 1.3,3 0.65,6.35 -0.2,1.2 -0.7,1.85 m 22.1,-20.15 q 2.2,1.35 2.8,2.95 0.55,1.3 0.2,3.3 l -1.15,3.15 -1.05,1.8 -1.85,1.15 -2.1,0.9 -1.55,0.2 -1.55,0.1 H 7 Q 6.45,-5.1 5.9,-5.15 5,-5.35 4.65,-4.6 4.5,-4.25 4.7,-3.25 l 0.45,2.2 v 1.1 L 4.8,1.15 Q 4.25,2.55 3.65,2.95 3.2,3.3 1.85,3.5 l -2.15,-0.15 -1.15,-1 -1,-0.9 q -0.4,-0.6 -0.4,-1.5 Q -3,-1.85 -2.6,-3.3 l 1,-2.1 0.75,-1.05 1.35,-0.65 q 1.05,-0.5 1.4,-1.15 0.35,-0.6 0.3,-1.35 l -0.4,-2.05 q -0.15,-0.85 0.4,-2.55 0.55,-1.85 1.3,-2.7 0.7,-0.7 2.1,-1.35 2.9,-1.35 4.85,-1.05 1.45,0.2 2.9,1.15 M 38.4,-14 q 0.3,0.7 0,1.9 -0.25,1.55 -0.95,2.35 -0.65,0.7 -2,1.15 -3.05,1 -6.45,1.25 -2.4,0.1 -3.7,-0.6 -0.95,-0.55 -1.9,-1.95 l -0.4,-0.6 -0.35,-0.9 -0.2,-1.75 0.2,-1.15 q 0.4,-1.1 1.7,-1.8 l 2.25,-1.05 1.15,-0.85 0.35,-0.8 0.6,-1.15 q 0.35,-0.7 0.85,-0.95 l 1.25,-0.25 1.4,0.3 q 0.45,0.35 0.55,1.1 l 0.1,1.4 q 0.25,1.8 1.85,2.5 l 2.05,0.6 q 1.3,0.45 1.65,1.25 m -40.85,24.65 0.95,0.1 0.9,0.05 q 0.5,0.6 0.6,2.3 0.2,4.15 -0.85,6.4 -0.5,1.05 -1.2,1.05 -0.6,-0.05 -0.85,-0.65 l -0.25,-1.05 q -0.5,-4.55 -0.15,-6.8 0.1,-1.2 0.85,-1.4"
         fill="#806161"
         fill-rule="evenodd"
         stroke="none"
         id="path5" />
      <path
         d="m 6.8,-23.55 -0.2,0.05 q 0.3,-1.15 1.45,-3 l 2.2,-3.2 q 1.35,-1.7 2.8,-2.65 -2.85,4.3 -4,7 l -0.55,1.25 -0.15,0.35 -1.55,0.2 m -4.6,-0.95 -1.45,0.25 0.75,-9.7 1.8,5.6 0.25,1.5 -0.15,1.6 v 0.8 L 2.2,-24.5"
         fill="#5c7c5f"
         fill-rule="evenodd"
         stroke="none"
         id="path6" />
    </g>
    <g
       id="sprite1"
       transform="translate(17.4,15.85)">
      <use
         ffdec:characterId="31"
         height="57.200001"
         transform="matrix(0.5366,0,0,0.5366,-16.6582,-14.546)"
         width="70.75"
         xlink:href="#sprite2"
         id="use6" />
    </g>
    <g
       id="sprite2"
       transform="translate(-8.65,-10.35)">
      <use
         ffdec:characterId="30"
         height="57.200001"
         transform="translate(8.65,10.35)"
         width="70.75"
         xlink:href="#shape1"
         id="use7" />
    </g>
    <g
       id="shape1"
       transform="translate(-8.65,-10.35)">
      <path
         d="m 14.8,41.7 q 0.65,-1.75 2.65,-2.5 1.8,-0.8 3.7,-0.25 1.15,0.45 2.25,1.2 l 0.9,0.4 q 1.65,0.9 2.85,2.5 L 37.8,30.1 q 2.35,-2.8 3.75,-3.95 1.5,-1.15 4.25,-2.4 18.2,-8.85 27.65,-12.6 2.15,-0.8 3.25,-0.8 h 0.8 l 1.9,2.4 -0.2,0.8 q -0.2,1.1 -1.55,3 -5.85,8.25 -18.85,23.8 -1.85,2.35 -3.35,3.5 -1.4,1.15 -4.75,2.75 l -15.15,7.15 q 1.2,1.6 1.75,3.4 l 0.2,1 0.55,2.5 q 0.1,1.95 -1.1,3.55 -1.2,1.65 -3.05,1.9 l -1.3,0.05 q -1.65,0.2 -3.45,-0.65 -1.85,-0.9 -3,-2.6 L 25,60.95 23.8,62.1 q -2.6,2.85 -4.3,3.95 -2.85,1.8 -5.5,1.45 l -1.65,-0.5 -1.2,-0.7 -0.2,-0.2 q -1,-0.85 -1.6,-1.9 L 9.25,64 9.15,63.8 8.75,62.4 q -0.2,-0.8 -0.05,-1.7 0.25,-2.65 2.7,-5.05 1.5,-1.3 4.9,-3.15 L 17.7,51.55 16.05,50 q -1.35,-1.5 -1.8,-3.6 -0.4,-1.85 0.25,-3.45 l 0.3,-1.25"
         fill="#000000"
         fill-opacity="0.372549"
         fill-rule="evenodd"
         stroke="none"
         id="path7" />
    </g>
  </defs>
</svg>
