<?xml version="1.0" encoding="UTF-8" standalone="no"?>
<svg
   ffdec:objectType="frame"
   height="64.051613"
   width="72.882362"
   version="1.1"
   id="svg4"
   xmlns:xlink="http://www.w3.org/1999/xlink"
   xmlns="http://www.w3.org/2000/svg"
   xmlns:svg="http://www.w3.org/2000/svg"
   xmlns:ffdec="https://www.free-decompiler.com/flash">
  <g
     transform="translate(36.621111,32.101613)"
     id="g1">
    <use
       ffdec:characterId="17"
       height="119.15"
       id="rarity"
       transform="translate(-58.5,-60.65)"
       width="119.15"
       xlink:href="#sprite0" />
    <use
       ffdec:characterId="1118"
       height="64.099998"
       transform="translate(-36.6,-32.1)"
       width="72.849998"
       xlink:href="#shape0"
       id="use1" />
  </g>
  <defs
     id="defs4">
    <g
       id="shape0"
       transform="translate(83.4,33.45)">
      <path
         d="m -52.5,-16.85 q 1.05,-3.65 2.45,-5.9 1.7,-2.7 4.85,-5.1 7,-5.45 14.95,-5.6 4.15,-0.05 7.95,1.45 3.95,1.6 6.6,4.55 4.1,4.6 4.95,11.75 0.65,5.4 -0.7,12.9 -0.6,3.5 -1.5,5.9 -1.3,3.4 -4.45,7.85 -3.4,4.75 -6.6,7.65 l -1.3,1.75 -2.15,2.25 -1.6,1.35 q -1.1,0.7 -2.15,1.05 -3.6,1.4 -6.95,1.25 -3.3,-0.15 -5.85,-1.65 l -1.4,2.25 q -1.5,1.95 -4,2.9 l -5.05,0.85 -5.1,-0.35 q -1.75,-0.55 -3.6,-1.8 -4.25,-2.95 -6.3,-6.75 -1.05,-0.1 -2.35,-1.1 -5.7,-4.45 -9.6,-14.95 -1.65,-4.35 -1.95,-7.2 -0.4,-4.3 1.45,-8.35 1.85,-4.1 5.35,-6.6 3.55,-2.5 7.45,-2.65 4.3,-0.25 7.4,2.45 2.6,2.3 4.35,7.75 l 1,3.75 0.2,1.2 0.55,-0.05 0.9,0.05 q 0.35,-6.6 2.2,-12.85 m -9.15,10.65 -0.95,-2.1 q -1.5,-3.4 -3.3,-4.4 -1.15,-0.6 -2.65,-0.5 -1.4,0.05 -2.75,0.7 -2.8,1.3 -4.45,4.05 -1.2,1.95 -1.45,4.05 l -0.1,1.85 q 0.1,2.25 1.4,5.45 2,5.5 4.45,9.1 0.15,-4.9 1.65,-8.05 l 1,-1.65 q 1.85,-2.65 4.95,-4.3 l 1.05,-0.45 2.4,-0.9 -1.25,-2.85 m -13.85,1.25 q 0.2,-1.05 1.2,-1.15 l 0.2,-0.05 0.85,0.3 0.5,0.7 q 0.35,1 -0.55,1.6 L -75,-3.6 -75.5,-4.4 v -0.55 m 9.1,-3.35 0.7,0.35 q 0.55,0.55 0.6,1.25 0.05,0.55 -0.3,1.05 l -0.85,0.75 q -1.2,0.45 -2.05,-0.55 -0.35,-0.45 -0.35,-1.05 l 0.25,-1.05 q 0.35,-0.5 0.9,-0.7 l 1.1,-0.05 m 50.15,-3.3 q -0.05,-6.7 -2.65,-10.4 -1.75,-2.5 -4.7,-3.95 -2.9,-1.35 -6.1,-1.4 -6.05,-0.05 -11.45,4.25 -2.15,1.65 -3.5,3.75 -1.1,1.9 -2,4.85 l -0.3,1.25 q -1.25,4.75 -1.55,9.35 l -0.2,2.15 1.25,1.1 q 2.8,2.8 4,5.75 0.8,2 1.1,4.4 0.7,4.9 -0.1,9.65 l 0.95,0.65 q 3.65,1.5 7.3,0.55 l 1.1,-0.7 q 6.05,-3.45 10.75,-10.5 3.85,-5.75 5.15,-11.25 0.55,-2.45 0.8,-6.35 l 0.15,-3.15 m -24.3,-2.15 q -0.3,-0.6 -0.15,-1.3 l 0.7,-1.15 q 0.55,-0.45 1.3,-0.45 0.75,0 1.25,0.45 0.5,0.4 0.65,1.15 0.15,0.7 -0.15,1.35 -0.3,0.6 -1,0.9 l -1.35,0.1 q -0.85,-0.25 -1.25,-1.05 m 17.15,0.1 q 0.65,-1.25 1.85,-1.25 1.35,-0.1 1.95,1.15 0.3,0.6 0.15,1.35 -0.15,0.7 -0.7,1.15 -0.5,0.45 -1.25,0.5 -0.75,0 -1.3,-0.4 -0.55,-0.4 -0.75,-1.15 l 0.05,-1.35 m -12.45,4.8 q -1.1,-0.35 -1.25,-1.5 -0.1,-1.05 0.75,-1.8 0.75,-0.6 2.55,-0.6 l 4.75,0.4 q 2.1,0.3 2.6,1.5 0.2,0.5 0,1.05 -0.2,0.6 -0.65,0.85 l -1.8,0.25 -2.35,-0.25 h -2.35 l -1.15,0.2 -1.1,-0.1 m -29.45,22.05 0.1,1.35 q 0.45,3.3 2.3,5.6 l 2.9,2.75 1.9,1.35 q 1.4,0.6 3.65,0.6 3,0 4.25,-1.05 0.95,-0.75 1.9,-3.05 L -47.65,19 q 0.45,-1.5 0.35,-4.55 l -0.15,-2.9 q -0.35,-3.35 -1.7,-5.4 l -1.4,-1.8 -1.95,-1.8 q -1.2,-0.7 -3.2,-0.6 L -56.1,2 q -3.25,0.25 -6.05,2.4 -1.3,1.05 -1.95,2.35 l -0.6,1.6 q -0.7,2.45 -0.6,4.85 m 5.05,0.7 -1.8,0.1 -0.9,-0.95 -0.15,-1.3 q 0.15,-0.7 0.7,-1.1 0.55,-0.35 0.95,-0.3 0.25,0.15 0.25,-0.1 0.65,0.05 1.15,0.45 0.5,0.45 0.7,1.05 0.15,0.6 -0.1,1.25 -0.25,0.6 -0.8,0.9 m 7.5,-6.65 q 0.75,0 1.35,0.5 0.6,0.55 0.7,1.25 0.1,0.75 -0.3,1.4 l -1.15,0.9 q -1.25,0.4 -2.15,-0.6 -0.85,-0.95 -0.35,-2.25 0.6,-1.2 1.9,-1.2"
         fill="#000000"
         fill-rule="evenodd"
         stroke="none"
         id="path1" />
      <path
         d="m -77.2,-4.4 q 0.25,-2.1 1.45,-4.05 1.65,-2.75 4.45,-4.05 1.35,-0.65 2.75,-0.7 1.5,-0.1 2.65,0.5 1.8,1 3.3,4.4 l 0.95,2.1 -0.45,2.15 -0.7,1.6 -1.05,0.45 q -3.1,1.65 -4.95,4.3 l -1.15,0.05 -2.55,-0.2 q -1.85,-0.45 -3.15,-1.95 -1.3,-1.55 -1.45,-3.4 l -0.1,-1.15 V -4.4 m 30.25,-8.85 0.3,-1.25 q 0.9,-2.95 2,-4.85 1.35,-2.1 3.5,-3.75 5.4,-4.3 11.45,-4.25 3.2,0.05 6.1,1.4 2.95,1.45 4.7,3.95 2.6,3.7 2.65,10.4 l -0.55,1.55 q -1.7,4.2 -5.25,6.6 -2.4,1.6 -5.75,2.4 -5.05,1.25 -9.55,0 -5.15,-1.4 -7.65,-5.55 -1.45,-2.4 -1.9,-5.9 l -0.05,-0.75 m -19.45,4.95 -1.1,0.05 q -0.55,0.2 -0.9,0.7 l -0.25,1.05 q 0,0.6 0.35,1.05 0.85,1 2.05,0.55 l 0.85,-0.75 q 0.35,-0.5 0.3,-1.05 -0.05,-0.7 -0.6,-1.25 l -0.7,-0.35 m -9.1,3.35 v 0.55 l 0.5,0.8 1.7,0.05 q 0.9,-0.6 0.55,-1.6 l -0.5,-0.7 -0.85,-0.3 -0.2,0.05 q -1,0.1 -1.2,1.15 m 39.65,-3.9 1.1,0.1 1.15,-0.2 h 2.35 l 2.35,0.25 1.8,-0.25 q 0.45,-0.25 0.65,-0.85 0.2,-0.55 0,-1.05 -0.5,-1.2 -2.6,-1.5 l -4.75,-0.4 q -1.8,0 -2.55,0.6 -0.85,0.75 -0.75,1.8 0.15,1.15 1.25,1.5 m 12.45,-4.8 -0.05,1.35 q 0.2,0.75 0.75,1.15 0.55,0.4 1.3,0.4 0.75,-0.05 1.25,-0.5 0.55,-0.45 0.7,-1.15 0.15,-0.75 -0.15,-1.35 -0.6,-1.25 -1.95,-1.15 -1.2,0 -1.85,1.25 m -17.15,-0.1 q 0.4,0.8 1.25,1.05 l 1.35,-0.1 q 0.7,-0.3 1,-0.9 0.3,-0.65 0.15,-1.35 -0.15,-0.75 -0.65,-1.15 -0.5,-0.45 -1.25,-0.45 -0.75,0 -1.3,0.45 l -0.7,1.15 q -0.15,0.7 0.15,1.3 M -56.1,2 q 1.1,0.25 2.3,0.95 2.95,1.6 3.5,3.9 l 0.15,1.25 q 0.2,3.3 -0.45,4.75 l -1.05,1.6 q -2.15,2.5 -5.15,2.8 l -2.65,-0.1 -2.35,-0.55 -1.75,-1.35 -1.5,-1.75 -0.25,-0.3 q -0.1,-2.4 0.6,-4.85 l 0.6,-1.6 q 0.65,-1.3 1.95,-2.35 2.8,-2.15 6.05,-2.4 m 3.35,5.25 q -1.3,0 -1.9,1.2 -0.5,1.3 0.35,2.25 0.9,1 2.15,0.6 L -51,10.4 q 0.4,-0.65 0.3,-1.4 -0.1,-0.7 -0.7,-1.25 -0.6,-0.5 -1.35,-0.5 m -7.5,6.65 q 0.55,-0.3 0.8,-0.9 0.25,-0.65 0.1,-1.25 -0.2,-0.6 -0.7,-1.05 -0.5,-0.4 -1.15,-0.45 0,0.25 -0.25,0.1 -0.4,-0.05 -0.95,0.3 -0.55,0.4 -0.7,1.1 l 0.15,1.3 0.9,0.95 1.8,-0.1"
         fill="#eae9c6"
         fill-rule="evenodd"
         stroke="none"
         id="path2" />
      <path
         d="m -77.2,-4.4 v 0.05 l 0.1,1.15 q 0.15,1.85 1.45,3.4 1.3,1.5 3.15,1.95 l 2.55,0.2 1.15,-0.05 -1,1.65 Q -71.3,7.1 -71.45,12 -73.9,8.4 -75.9,2.9 q -1.3,-3.2 -1.4,-5.45 l 0.1,-1.85 m 14.4,1.95 0.7,-1.6 0.45,-2.15 1.25,2.85 -2.4,0.9 m 15.85,-10.8 0.05,0.75 q 0.45,3.5 1.9,5.9 2.5,4.15 7.65,5.55 4.5,1.25 9.55,0 3.35,-0.8 5.75,-2.4 3.55,-2.4 5.25,-6.6 l 0.55,-1.55 -0.15,3.15 q -0.25,3.9 -0.8,6.35 -1.3,5.5 -5.15,11.25 -4.7,7.05 -10.75,10.5 l -1.1,0.7 q -3.65,0.95 -7.3,-0.55 l -0.95,-0.65 q 0.8,-4.75 0.1,-9.65 -0.3,-2.4 -1.1,-4.4 -1.2,-2.95 -4,-5.75 l -1.25,-1.1 0.2,-2.15 q 0.3,-4.6 1.55,-9.35 M -56.1,2 -55.7,1.95 q 2,-0.1 3.2,0.6 l 1.95,1.8 1.4,1.8 q 1.35,2.05 1.7,5.4 l 0.15,2.9 q 0.1,3.05 -0.35,4.55 l -0.65,1.75 q -0.95,2.3 -1.9,3.05 -1.25,1.05 -4.25,1.05 -2.25,0 -3.65,-0.6 L -60,22.9 -62.9,20.15 q -1.85,-2.3 -2.3,-5.6 l -0.1,-1.35 0.25,0.3 1.5,1.75 1.75,1.35 2.35,0.55 2.65,0.1 q 3,-0.3 5.15,-2.8 l 1.05,-1.6 q 0.65,-1.45 0.45,-4.75 L -50.3,6.85 Q -50.85,4.55 -53.8,2.95 -55,2.25 -56.1,2"
         fill="#cccaa2"
         fill-rule="evenodd"
         stroke="none"
         id="path3" />
    </g>
    <g
       id="sprite1"
       transform="translate(17.4,15.85)">
      <use
         ffdec:characterId="31"
         height="57.200001"
         transform="matrix(0.5366,0,0,0.5366,-16.6582,-14.546)"
         width="70.75"
         xlink:href="#sprite2"
         id="use3" />
    </g>
    <g
       id="sprite2"
       transform="translate(-8.65,-10.35)">
      <use
         ffdec:characterId="30"
         height="57.200001"
         transform="translate(8.65,10.35)"
         width="70.75"
         xlink:href="#shape1"
         id="use4" />
    </g>
    <g
       id="shape1"
       transform="translate(-8.65,-10.35)">
      <path
         d="m 14.8,41.7 q 0.65,-1.75 2.65,-2.5 1.8,-0.8 3.7,-0.25 1.15,0.45 2.25,1.2 l 0.9,0.4 q 1.65,0.9 2.85,2.5 L 37.8,30.1 q 2.35,-2.8 3.75,-3.95 1.5,-1.15 4.25,-2.4 18.2,-8.85 27.65,-12.6 2.15,-0.8 3.25,-0.8 h 0.8 l 1.9,2.4 -0.2,0.8 q -0.2,1.1 -1.55,3 -5.85,8.25 -18.85,23.8 -1.85,2.35 -3.35,3.5 -1.4,1.15 -4.75,2.75 l -15.15,7.15 q 1.2,1.6 1.75,3.4 l 0.2,1 0.55,2.5 q 0.1,1.95 -1.1,3.55 -1.2,1.65 -3.05,1.9 l -1.3,0.05 q -1.65,0.2 -3.45,-0.65 -1.85,-0.9 -3,-2.6 L 25,60.95 23.8,62.1 q -2.6,2.85 -4.3,3.95 -2.85,1.8 -5.5,1.45 l -1.65,-0.5 -1.2,-0.7 -0.2,-0.2 q -1,-0.85 -1.6,-1.9 L 9.25,64 9.15,63.8 8.75,62.4 q -0.2,-0.8 -0.05,-1.7 0.25,-2.65 2.7,-5.05 1.5,-1.3 4.9,-3.15 L 17.7,51.55 16.05,50 q -1.35,-1.5 -1.8,-3.6 -0.4,-1.85 0.25,-3.45 l 0.3,-1.25"
         fill="#000000"
         fill-opacity="0.372549"
         fill-rule="evenodd"
         stroke="none"
         id="path4" />
    </g>
  </defs>
</svg>
