<?xml version="1.0" encoding="UTF-8" standalone="no"?>
<svg
   ffdec:objectType="frame"
   height="91.125496"
   width="73.517311"
   version="1.1"
   id="svg6"
   xmlns:xlink="http://www.w3.org/1999/xlink"
   xmlns="http://www.w3.org/2000/svg"
   xmlns:svg="http://www.w3.org/2000/svg"
   xmlns:ffdec="https://www.free-decompiler.com/flash">
  <g
     transform="translate(45.854545,43.713333)"
     id="g1">
    <use
       ffdec:characterId="17"
       height="119.15"
       id="rarity"
       transform="translate(-58.5,-60.65)"
       width="119.15"
       xlink:href="#sprite0" />
    <use
       ffdec:characterId="841"
       height="91.099998"
       transform="translate(-45.85,-43.7)"
       width="73.5"
       xlink:href="#shape0"
       id="use1" />
  </g>
  <defs
     id="defs6">
    <g
       id="shape0"
       transform="translate(46.4,44.45)">
      <path
         d="m -10.2,25 q -4.55,-2.1 -7.25,-4.6 -3.55,-3.1 -4.75,-7.05 -0.65,-2.2 -0.75,-6.2 L -22.8,-3.3 q 0.15,-6.55 -0.15,-10.5 l -0.75,-6.35 -0.7,-6.4 q -0.2,-2.65 0.6,-3.8 0.65,-0.9 2.55,-1.7 5.25,-2.2 13.65,-3.35 h 0.25 q -0.65,-1.95 -0.5,-4.1 l 0.35,-1.6 q 0.5,-1 1.7,-1.7 2.45,-1.55 6.05,-1.65 2.15,-0.1 3.95,0.55 1.1,0.4 1.6,0.9 1.05,0.9 1.3,2.75 l -0.15,3.05 -0.05,0.5 9.85,-0.05 3.9,0.6 1.8,1.45 q 0.5,0.9 0.7,2.35 2.55,13.8 3.35,21.2 1.2,11.85 0.05,21.3 -1.05,8.3 -4.85,11.6 -1.65,1.45 -4.35,2.5 l -5.3,1.75 -1.3,0.35 q 0.6,5.75 0.3,8.65 l -0.4,1.65 q -0.7,1.2 -2.9,1.7 l -0.5,0.1 -0.5,1.25 q -2.05,3.45 -6.9,5.4 -4.3,1.7 -8.8,1.55 -6.35,-0.1 -9.75,-3.75 -1.45,-1.55 -2.1,-3.7 -0.6,-2.15 -0.25,-4.3 0.65,-2.45 0.75,-3.7 0.3,-2.35 -1.05,-3.45 -0.85,-0.7 -2.8,-0.9 l -3.05,-0.35 -3,-0.65 q -2.8,-0.85 -6.3,-3.7 -4.2,-3.4 -5.35,-6.9 -1,-3.1 0.05,-8.6 l 0.25,-0.8 q -1.3,-0.15 -1.8,-0.8 -0.4,-0.45 -0.6,-1.5 L -44.5,0.1 -44.6,-2.05 v -0.9 h -0.05 q -0.75,-0.25 -1.25,-0.85 -0.5,-0.65 -0.5,-1.45 -0.05,-0.8 0.45,-1.5 l 1.15,-0.95 1.35,-0.25 1,-0.2 1.5,-0.35 h 0.35 v -5.95 l 0.05,-1.75 v -4.25 l 0.05,-1.5 q 0.2,-0.85 0.7,-1.25 l 1,-0.25 q 0.6,0.05 0.95,0.45 0.4,0.45 0.5,1.7 l 0.45,4.5 0.15,1.8 0.05,1.8 0.35,2.45 0.15,1.4 h 1.15 0.05 l 2.35,0.3 0.95,1 q 0.35,0.6 0.3,1.3 -0.1,1.55 -1.5,2.15 l -0.35,0.1 v 0.1 l 0.1,1.35 0.35,1.45 0.25,1.3 0.3,2 q 0.1,1.55 -0.05,2.05 -0.3,0.8 -1.05,1.25 l -1.6,0.4 -0.6,0.1 q 0,1.1 -0.45,2.95 -0.7,2.5 -0.55,3.75 0.25,2.1 2.5,4.35 3.05,3.15 6.95,4.25 l 4.25,0.8 q 2.5,0.45 3.95,1.35 2.65,1.65 3.6,5.2 0.6,2.35 0.05,4.85 l -0.6,2.45 q -0.3,1.45 0,2.45 0.45,1.45 2.2,2.55 3.95,2.45 10.05,1.1 3.8,-0.85 5.9,-2.7 L 0.65,38.55 Q -0.1,38.2 -0.55,37.35 L -0.85,35.8 -1.4,28.9 -1.45,27.8 Q -5.4,27.2 -10.2,25 M 2.55,-38.95 q -2.5,-0.8 -4.8,0.5 0.7,1.35 0.9,2.35 l 4.1,-0.35 -0.2,-2.5 m -0.15,60.6 6.1,-1 5.25,-1.5 q 2.8,-0.9 3.95,-1.9 2.1,-1.7 3,-6.5 1.55,-9.1 0.15,-21.5 L 19.3,-21.45 17.5,-32.1 q -13.15,0.35 -26.55,2.9 -6,1.15 -9.3,2.6 2.05,13.65 1.6,27.2 l -0.05,6.95 q 0.25,3.75 1.7,5.9 1,1.6 3.15,3.1 7,5.25 14.35,5.1 M -39.4,0.5 l 0.3,0.05 2.1,-0.2 -0.3,-1.5 -0.2,-1.6 -0.1,-0.75 -1.05,0.25 -1,0.05 0.05,1.35 0.1,2.1 0.1,0.25 M 5.75,27.7 V 27.55 L 2.8,27.9 3,29.35 4.5,29.25 5.8,29.3 H 5.9 L 5.75,27.7 M 3.5,33.15 q 0,0.25 0.15,0.3 L 4,33.4 5.5,33.2 5.95,33.1 6.05,32.7 v -1.35 l -1.4,0.35 -1.1,0.2 -0.2,0.05 0.15,1.2"
         fill="#000000"
         fill-rule="evenodd"
         stroke="none"
         id="path1" />
      <path
         d="M 9.3,17.4 6.15,18.1 2,18.55 q -5.8,0.25 -10.65,-2.85 -1.8,-1.05 -3,-2.4 -1.45,-1.5 -2.35,-3.8 -0.75,-2.15 -0.9,-4.95 -0.3,-5.15 0.85,-10.3 0.9,-3.95 3.05,-4.9 l 3.55,-0.25 3.55,-0.25 q 0.6,-0.25 1.25,-0.9 l 1.1,-1.05 q 1.45,-1.35 3.4,-2 l 3.85,-0.4 q 2,0.25 3.75,1.25 1.75,1.05 2.85,2.65 0.95,1.4 1.55,1.6 l 1.4,0.1 q 3.1,-0.2 4.35,1.55 0.5,0.8 0.7,2.45 0.8,7.1 -0.45,13.2 L 19.15,9.95 18.3,9 Q 17.5,8.45 16.35,8.65 15.5,8.75 15,9.05 q -0.6,0.4 -1,1.2 -0.5,1.2 -0.15,2.3 0.35,1 1.4,1.5 l 0.75,0.25 -2.55,1.6 -1.75,0.75 -0.1,-0.5 -0.55,-0.7 -0.85,-0.2 Q 9.7,15.3 9.4,15.65 9.05,16 9,16.45 l 0.1,0.7 0.2,0.25 m 4.35,-38.8 0.95,0.1 0.9,0.45 0.65,0.55 q 0.9,1 0.9,2.4 0,1.3 -0.9,2.45 l -0.9,0.75 -0.85,0.3 -2.25,-0.2 q -1.65,-0.75 -1.9,-2.6 l 0.05,-1 q 0.1,-0.85 0.35,-1.4 l 0.65,-0.8 1.3,-0.85 1.05,-0.15 M 0.95,12.8 0.2,12.25 l -0.25,-0.2 -0.2,0.05 -0.9,0.4 0.9,0.15 1.2,0.15"
         fill="#bddcdb"
         fill-rule="evenodd"
         stroke="none"
         id="path2" />
      <path
         d="m -11.85,-27.15 3.15,-0.5 1.35,-0.15 1.75,-0.2 q 1.2,0 1.4,0.9 0.3,0.95 -0.75,1.6 l -2.9,1.25 Q -9.8,-23.6 -10.6,-23 l -0.95,0.55 -0.95,0.25 q -1.4,0.1 -2.2,-0.8 -0.85,-0.85 -0.5,-2.2 l 0.25,-0.6 0.6,-0.65 1.2,-0.55 1.3,-0.15 M -15,-20 q 0.4,-0.7 1.25,-0.9 l 1.5,0.15 q 0.7,0.35 1,1.1 0.35,0.75 0.1,1.5 -0.4,1.35 -1.8,1.5 -1.35,0.15 -2.1,-1.05 -0.75,-1.15 0.05,-2.3 m 34.15,29.95 0.25,0.9 q 0.1,1.05 -0.5,2.05 -0.6,0.95 -1.6,1.3 L 16,14.3 15.25,14.05 q -1.05,-0.5 -1.4,-1.5 -0.35,-1.1 0.15,-2.3 0.4,-0.8 1,-1.2 0.5,-0.3 1.35,-0.4 Q 17.5,8.45 18.3,9 l 0.85,0.95 m -7.45,6.7 q 0,0.65 -0.65,1.1 l -0.9,0.15 Q 9.65,17.85 9.35,17.5 L 9.3,17.4 9.1,17.15 9,16.45 Q 9.05,16 9.4,15.65 9.7,15.3 10.2,15.25 l 0.85,0.2 0.55,0.7 0.1,0.5"
         fill="#ffffff"
         fill-rule="evenodd"
         stroke="none"
         id="path3" />
      <path
         d="m -39.4,0.5 -0.1,-0.25 -0.1,-2.1 -0.05,-1.35 1,-0.05 1.05,-0.25 0.1,0.75 0.2,1.6 0.3,1.5 -2.1,0.2 -0.3,-0.05 m 42.9,32.65 -0.15,-1.2 0.2,-0.05 1.1,-0.2 1.4,-0.35 V 32.7 L 5.95,33.1 5.5,33.2 4,33.4 3.65,33.45 Q 3.5,33.4 3.5,33.15 M 5.75,27.7 5.9,29.3 H 5.8 L 4.5,29.25 3,29.35 2.8,27.9 5.75,27.55 v 0.15"
         fill="#d6d6d6"
         fill-rule="evenodd"
         stroke="none"
         id="path4" />
      <path
         d="m -11.85,-27.15 -1.3,0.15 -1.2,0.55 -0.6,0.65 -0.25,0.6 q -0.35,1.35 0.5,2.2 0.8,0.9 2.2,0.8 l 0.95,-0.25 0.95,-0.55 q 0.8,-0.6 2.75,-1.25 l 2.9,-1.25 q 1.05,-0.65 0.75,-1.6 -0.2,-0.9 -1.4,-0.9 l -1.75,0.2 -1.35,0.15 -3.15,0.5 M 2.4,21.65 q -7.35,0.15 -14.35,-5.1 -2.15,-1.5 -3.15,-3.1 -1.45,-2.15 -1.7,-5.9 l 0.05,-6.95 q 0.45,-13.55 -1.6,-27.2 3.3,-1.45 9.3,-2.6 13.4,-2.55 26.55,-2.9 l 1.8,10.65 1.55,10.7 q 1.4,12.4 -0.15,21.5 -0.9,4.8 -3,6.5 -1.15,1 -3.95,1.9 l -5.25,1.5 -6.1,1 m 0.15,-60.6 0.2,2.5 -4.1,0.35 q -0.2,-1 -0.9,-2.35 2.3,-1.3 4.8,-0.5 M -15,-20 q -0.8,1.15 -0.05,2.3 0.75,1.2 2.1,1.05 1.4,-0.15 1.8,-1.5 0.25,-0.75 -0.1,-1.5 -0.3,-0.75 -1,-1.1 l -1.5,-0.15 Q -14.6,-20.7 -15,-20 M 19.15,9.95 19.85,7.3 Q 21.1,1.2 20.3,-5.9 20.1,-7.55 19.6,-8.35 18.35,-10.1 15.25,-9.9 l -1.4,-0.1 q -0.6,-0.2 -1.55,-1.6 -1.1,-1.6 -2.85,-2.65 -1.75,-1 -3.75,-1.25 l -3.85,0.4 q -1.95,0.65 -3.4,2 l -1.1,1.05 q -0.65,0.65 -1.25,0.9 l -3.55,0.25 -3.55,0.25 q -2.15,0.95 -3.05,4.9 -1.15,5.15 -0.85,10.3 0.15,2.8 0.9,4.95 0.9,2.3 2.35,3.8 1.2,1.35 3,2.4 Q -3.8,18.8 2,18.55 L 6.15,18.1 9.3,17.4 9.35,17.5 q 0.3,0.35 0.8,0.4 l 0.9,-0.15 Q 11.7,17.3 11.7,16.65 L 13.45,15.9 16,14.3 17.3,14.2 q 1,-0.35 1.6,-1.3 0.6,-1 0.5,-2.05 l -0.25,-0.9 m -5.5,-31.35 -1.05,0.15 -1.3,0.85 -0.65,0.8 q -0.25,0.55 -0.35,1.4 l -0.05,1 q 0.25,1.85 1.9,2.6 l 2.25,0.2 0.85,-0.3 0.9,-0.75 q 0.9,-1.15 0.9,-2.45 0,-1.4 -0.9,-2.4 l -0.65,-0.55 -0.9,-0.45 -0.95,-0.1"
         fill="#ffffff"
         fill-opacity="0"
         fill-rule="evenodd"
         stroke="none"
         id="path5" />
    </g>
    <g
       id="sprite1"
       transform="translate(17.4,15.85)">
      <use
         ffdec:characterId="31"
         height="57.200001"
         transform="matrix(0.5366,0,0,0.5366,-16.6582,-14.546)"
         width="70.75"
         xlink:href="#sprite2"
         id="use5" />
    </g>
    <g
       id="sprite2"
       transform="translate(-8.65,-10.35)">
      <use
         ffdec:characterId="30"
         height="57.200001"
         transform="translate(8.65,10.35)"
         width="70.75"
         xlink:href="#shape1"
         id="use6" />
    </g>
    <g
       id="shape1"
       transform="translate(-8.65,-10.35)">
      <path
         d="m 14.8,41.7 q 0.65,-1.75 2.65,-2.5 1.8,-0.8 3.7,-0.25 1.15,0.45 2.25,1.2 l 0.9,0.4 q 1.65,0.9 2.85,2.5 L 37.8,30.1 q 2.35,-2.8 3.75,-3.95 1.5,-1.15 4.25,-2.4 18.2,-8.85 27.65,-12.6 2.15,-0.8 3.25,-0.8 h 0.8 l 1.9,2.4 -0.2,0.8 q -0.2,1.1 -1.55,3 -5.85,8.25 -18.85,23.8 -1.85,2.35 -3.35,3.5 -1.4,1.15 -4.75,2.75 l -15.15,7.15 q 1.2,1.6 1.75,3.4 l 0.2,1 0.55,2.5 q 0.1,1.95 -1.1,3.55 -1.2,1.65 -3.05,1.9 l -1.3,0.05 q -1.65,0.2 -3.45,-0.65 -1.85,-0.9 -3,-2.6 L 25,60.95 23.8,62.1 q -2.6,2.85 -4.3,3.95 -2.85,1.8 -5.5,1.45 l -1.65,-0.5 -1.2,-0.7 -0.2,-0.2 q -1,-0.85 -1.6,-1.9 L 9.25,64 9.15,63.8 8.75,62.4 q -0.2,-0.8 -0.05,-1.7 0.25,-2.65 2.7,-5.05 1.5,-1.3 4.9,-3.15 L 17.7,51.55 16.05,50 q -1.35,-1.5 -1.8,-3.6 -0.4,-1.85 0.25,-3.45 l 0.3,-1.25"
         fill="#000000"
         fill-opacity="0.372549"
         fill-rule="evenodd"
         stroke="none"
         id="path6" />
    </g>
  </defs>
</svg>
