<?xml version="1.0" encoding="UTF-8" standalone="no"?>
<svg
   ffdec:objectType="frame"
   height="71.421921"
   width="71.193977"
   version="1.1"
   id="svg4"
   xmlns:xlink="http://www.w3.org/1999/xlink"
   xmlns="http://www.w3.org/2000/svg"
   xmlns:svg="http://www.w3.org/2000/svg"
   xmlns:ffdec="https://www.free-decompiler.com/flash">
  <g
     transform="translate(39.486283,35.85)"
     id="g1">
    <use
       ffdec:characterId="17"
       height="119.15"
       id="rarity"
       transform="translate(-58.5,-60.65)"
       width="119.15"
       xlink:href="#sprite0" />
    <use
       ffdec:characterId="1196"
       height="71.400002"
       transform="translate(-39.5,-35.85)"
       width="71.199997"
       xlink:href="#shape0"
       id="use1" />
  </g>
  <defs
     id="defs4">
    <g
       id="shape0"
       transform="translate(38.2,33.95)">
      <path
         d="m -11,-25.4 q 3.55,1.55 4.1,5.8 l 0.7,2.95 0.25,0.55 q 1.05,-1.15 3.25,-1.65 1.2,-0.3 2.3,-0.75 l 0.7,-0.2 -0.35,-0.95 q -0.8,-3 -0.55,-5.9 0.1,-1.1 1.1,-1.6 l 5.1,-2.6 1,-0.8 q 4.3,-2.75 9.2,-3.4 3,1.3 4.55,4.6 L 22,-25.8 q 0.85,-0.9 2.4,-1.05 4.9,-0.8 5.1,3.55 0.05,1.45 -0.9,2.6 -1.4,1.55 -3.55,2 l -0.25,0.05 q 1.7,4.75 2.9,9.7 l 1.55,5.4 0.85,1.95 0.6,2.5 q 3,6.8 2.1,14 -0.2,1.45 -0.9,2.8 -1.65,3.6 -4.45,6.25 -0.95,1 -2.3,1.35 -4.6,1.2 -8.85,-0.45 Q 15,24.35 14.15,23.2 L 11.3,18.65 q 0.7,4 0.95,8.05 0.1,1.05 -0.3,2.1 -1.65,3.85 -6.1,5.5 -0.95,0.3 -1.65,1.1 -2.45,2.75 -6.25,1.85 l -3.1,-0.3 q -6.1,0.3 -9.6,-4.05 -0.6,-0.8 -0.8,-1.75 -1.05,-2.65 -2.45,-5.25 -0.75,-1.25 -0.95,-2.7 l -0.85,-1.95 -0.55,-2.1 -5.35,-14.3 -2.75,4.3 q 1.45,5.5 -3.9,6.95 -2.2,0.6 -3.85,-0.8 -3.35,-2.7 -1.05,-6.55 1.05,-1.8 3.15,-2 2.9,-4.15 6.25,-7.95 l -1.9,-5.7 q -1.5,-4.45 -0.05,-8.6 0.25,-0.7 0.85,-1.2 8.05,-6.5 17.95,-8.7 m 29.35,13.05 1.9,-0.6 q -1.3,-3.95 -2.45,-7.95 -0.85,-2.6 -2.2,-5.05 L 15,-26.7 14.15,-28.15 q -2.75,-0.05 -5.3,0.95 l -2.9,2.15 -1.15,0.8 q 0.8,1.75 0.9,3.55 l 2.05,-0.7 2.35,-0.7 q 4.4,1.35 1.6,5.05 -2.2,3 -5.65,4.35 l 0.35,0.9 0.4,1.4 1.2,3.2 q 1.2,-1.7 3.9,-2.6 2.6,-0.85 5.15,-2.05 l 1.3,-0.5 M -1.85,-4.4 Q 1.6,-6.05 3.8,-4.75 L 3,-7.6 q -0.3,-1.5 -0.05,-3 L 2.8,-11.55 q -3.25,0.95 -6.6,1.55 l 1.95,5.6 m 20,22.7 1.1,1.6 4.8,-0.8 q 0.6,-1.85 1.7,-3.45 L 27.1,13.1 Q 25.45,3.55 22.5,-5.75 l -0.8,-2.5 -0.9,0.15 Q 14,-7.7 8.85,-3.65 L 9,-2.7 12.1,7.9 V 6.8 Q 12.25,5.3 13.85,4.7 17.35,3.5 20.8,2.4 L 22.1,2.65 22.7,3 22.95,3.35 23,3.55 23.05,3.7 Q 21.2,6.95 17.3,8.4 L 14.8,9.15 Q 13.1,9.4 12.5,8.7 l 2,3.65 q 0.4,-1.5 3,-2.1 l 4.6,-1 1.15,-0.3 1.5,0.05 0.8,0.25 0.1,0.15 0.1,0.25 V 9.8 l 0.1,0.15 -0.1,0.2 -0.05,0.2 -0.1,0.2 q -4.3,3.4 -9.35,4.7 l 1.9,3.05 m 1.5,-22.3 1,0.3 0.6,0.4 0.25,0.35 0.15,0.35 0.05,0.35 q -2,3.45 -6.3,4.6 L 13.1,2.6 Q 11.6,2.5 10.9,1.15 10.5,-2.8 15.1,-3.05 L 16.6,-3.3 19.65,-4 m -41.85,-10.3 -2.6,1.85 0.1,1.1 0.2,0.6 0.35,-0.35 q 1.85,-1.8 4.35,-2.2 l 0.3,0.05 1.05,-0.5 0.5,-0.1 1.5,-1.8 q 1.4,-1.25 2.35,-3 -4.3,1.7 -8.1,4.35 m 11.65,0.55 -0.5,0.6 0.95,0.7 -0.45,-1.3 m -0.7,4.75 -0.05,-0.05 -0.4,-0.55 -2,-0.9 -1.1,0.8 q 0.6,1.35 0.6,3.3 l -0.1,1.45 q -0.7,3.55 -4.85,4 h -1.95 l 0.55,1.7 1.15,0.75 q 3.8,1.15 6.55,-1.2 l 2.05,-2.2 0.05,-0.25 V -2.3 l 0.05,-0.15 v -0.2 l 0.05,-0.2 0.1,-0.2 0.2,-0.15 0.1,-0.15 V -3.6 l 0.05,-0.9 -0.05,-1.6 v -0.95 l -0.1,-0.15 -0.2,-0.2 v -0.2 l -0.1,-0.55 -0.6,-0.85 m 0.9,37.2 0.15,0.35 0.4,1.1 q 4.65,1.7 9.85,1.45 l 2,-1.65 q 0.55,-2 0,-4.15 L 1.65,22.4 Q 1.15,21.2 1.1,19.9 L 0.9,18.45 0.8,18.2 0.65,18.05 0.1,16.05 0,14.75 -0.35,14.2 -0.45,14.05 q -0.25,-1.35 -0.8,-2.6 l -0.3,-0.65 -0.4,-0.55 V 10.2 q -1.9,-3.1 -2.7,-6.65 -1,-4.65 -2.6,-9.05 v 2.2 q 0,0.9 -0.55,1.6 v 0.05 q -3.1,7.7 -11.65,6.15 l 2.5,7.15 q 1.95,5 3.65,10.2 l 1.4,3.05 1.55,3.3 M 6.55,26.6 Q 6.8,23.35 6.05,20.1 L 2.6,6.5 0.95,1.75 0.75,1.4 0.65,1.2 0.6,1.05 l -0.95,0.1 0.9,4.2 1.7,6.25 0.05,0.5 v 0.05 l 0.05,0.9 1.2,4.5 0.1,2.4 q 0.6,1.45 0.6,3.05 l 0.05,1.85 0.1,3.1 2.15,-1.35"
         fill="#000000"
         fill-rule="evenodd"
         stroke="none"
         id="path1" />
      <path
         d="m 7.75,-21.4 -2.05,0.7 q -0.1,-1.8 -0.9,-3.55 l 1.15,-0.8 2.9,-2.15 q 2.55,-1 5.3,-0.95 l 0.85,1.45 0.6,0.75 q 1.35,2.45 2.2,5.05 1.15,4 2.45,7.95 l -1.9,0.6 q -2.1,-5.7 -5,-11.05 -2.8,0.75 -5.6,2 m -22.05,16.45 0.1,-1.45 q 0,-1.95 -0.6,-3.3 l 1.1,-0.8 2,0.9 0.4,0.55 0.05,0.05 q 0.05,2.3 -1.9,3.65 -0.6,0.4 -1.15,0.4 m 3.75,-8.8 0.45,1.3 -0.95,-0.7 0.5,-0.6 M -22.2,-14.3 q 3.8,-2.65 8.1,-4.35 -0.95,1.75 -2.35,3 l -1.5,1.8 -0.5,0.1 -1.05,0.5 -0.3,-0.05 q -2.5,0.4 -4.35,2.2 l -0.35,0.35 -0.2,-0.6 -0.1,-1.1 2.6,-1.85 m 14.4,12.65 q 1.85,1.45 2.3,4.25 l 0.6,2.5 q 3.5,9.25 3.4,19.15 -0.05,3.15 -2.95,4.35 l -2.25,0.45 q -2.05,0 -3.65,-0.85 l -1.55,-3.3 -1.4,-3.05 q -1.7,-5.2 -3.65,-10.2 l -2.5,-7.15 q 8.55,1.55 11.65,-6.15"
         fill="#626262"
         fill-rule="evenodd"
         stroke="none"
         id="path2" />
      <path
         d="m 7.75,-21.4 q 2.8,-1.25 5.6,-2 2.9,5.35 5,11.05 l -1.3,0.5 Q 14.5,-10.65 11.9,-9.8 9.2,-8.9 8,-7.2 l -1.2,-3.2 -0.4,-1.4 -0.35,-0.9 q 3.45,-1.35 5.65,-4.35 2.8,-3.7 -1.6,-5.05 l -2.35,0.7 m 11.9,17.4 -3.05,0.7 -1.5,0.25 q -4.6,0.25 -4.2,4.2 0.7,1.35 2.2,1.45 l 2.3,-0.25 q 4.3,-1.15 6.3,-4.6 L 21.65,-2.6 21.5,-2.95 21.25,-3.3 l -0.6,-0.4 -1,-0.3 m -1.5,22.3 -1.9,-3.05 q 5.05,-1.3 9.35,-4.7 l 0.1,-0.2 0.05,-0.2 0.1,-0.2 -0.1,-0.15 V 9.65 L 25.65,9.4 25.55,9.25 24.75,9 l -1.5,-0.05 -1.15,0.3 -4.6,1 q -2.6,0.6 -3,2.1 l -2,-3.65 q 0.6,0.7 2.3,0.45 L 17.3,8.4 Q 21.2,6.95 23.05,3.7 L 23,3.55 22.95,3.35 22.7,3 22.1,2.65 20.8,2.4 Q 17.35,3.5 13.85,4.7 12.25,5.3 12.1,6.8 V 7.9 L 9,-2.7 8.85,-3.65 Q 14,-7.7 20.8,-8.1 l 0.9,-0.15 0.8,2.5 q 2.95,9.3 4.6,18.85 l -1.35,2.55 q -1.1,1.6 -1.7,3.45 l -4.8,0.8 -1.1,-1.6 M -14.3,-4.95 q 0.55,0 1.15,-0.4 1.95,-1.35 1.9,-3.65 l 0.6,0.85 0.1,0.55 v 0.2 l 0.2,0.2 0.1,0.15 v 0.95 l 0.05,1.6 -0.05,0.9 v 0.25 l -0.1,0.15 -0.2,0.15 -0.1,0.2 -0.05,0.2 v 0.2 l -0.05,0.15 v 0.15 l -0.05,0.25 -2.05,2.2 q -2.75,2.35 -6.55,1.2 l -1.15,-0.75 -0.55,-1.7 h 1.95 q 4.15,-0.45 4.85,-4 m 6.5,3.3 V -1.7 q 0.55,-0.7 0.55,-1.6 v -2.2 q 1.6,4.4 2.6,9.05 0.8,3.55 2.7,6.65 v 0.05 l 0.4,0.55 0.3,0.65 q 0.55,1.25 0.8,2.6 l 0.1,0.15 0.35,0.55 0.1,1.3 0.55,2 0.15,0.15 0.1,0.25 0.2,1.45 q 0.05,1.3 0.55,2.5 l 0.4,2.9 q 0.55,2.15 0,4.15 l -2,1.65 q -5.2,0.25 -9.85,-1.45 l -0.4,-1.1 -0.15,-0.35 q 1.6,0.85 3.65,0.85 l 2.25,-0.45 q 2.9,-1.2 2.95,-4.35 0.1,-9.9 -3.4,-19.15 L -5.5,2.6 Q -5.95,-0.2 -7.8,-1.65 M 6.55,26.6 4.4,27.95 4.3,24.85 4.25,23 q 0,-1.6 -0.6,-3.05 l -0.1,-2.4 -1.2,-4.5 -0.05,-0.9 V 12.1 L 2.25,11.6 0.55,5.35 -0.35,1.15 0.6,1.05 0.65,1.2 0.75,1.4 0.95,1.75 2.6,6.5 6.05,20.1 q 0.75,3.25 0.5,6.5"
         fill="#4b4b4b"
         fill-rule="evenodd"
         stroke="none"
         id="path3" />
    </g>
    <g
       id="sprite1"
       transform="translate(17.4,15.85)">
      <use
         ffdec:characterId="31"
         height="57.200001"
         transform="matrix(0.5366,0,0,0.5366,-16.6582,-14.546)"
         width="70.75"
         xlink:href="#sprite2"
         id="use3" />
    </g>
    <g
       id="sprite2"
       transform="translate(-8.65,-10.35)">
      <use
         ffdec:characterId="30"
         height="57.200001"
         transform="translate(8.65,10.35)"
         width="70.75"
         xlink:href="#shape1"
         id="use4" />
    </g>
    <g
       id="shape1"
       transform="translate(-8.65,-10.35)">
      <path
         d="m 14.8,41.7 q 0.65,-1.75 2.65,-2.5 1.8,-0.8 3.7,-0.25 1.15,0.45 2.25,1.2 l 0.9,0.4 q 1.65,0.9 2.85,2.5 L 37.8,30.1 q 2.35,-2.8 3.75,-3.95 1.5,-1.15 4.25,-2.4 18.2,-8.85 27.65,-12.6 2.15,-0.8 3.25,-0.8 h 0.8 l 1.9,2.4 -0.2,0.8 q -0.2,1.1 -1.55,3 -5.85,8.25 -18.85,23.8 -1.85,2.35 -3.35,3.5 -1.4,1.15 -4.75,2.75 l -15.15,7.15 q 1.2,1.6 1.75,3.4 l 0.2,1 0.55,2.5 q 0.1,1.95 -1.1,3.55 -1.2,1.65 -3.05,1.9 l -1.3,0.05 q -1.65,0.2 -3.45,-0.65 -1.85,-0.9 -3,-2.6 L 25,60.95 23.8,62.1 q -2.6,2.85 -4.3,3.95 -2.85,1.8 -5.5,1.45 l -1.65,-0.5 -1.2,-0.7 -0.2,-0.2 q -1,-0.85 -1.6,-1.9 L 9.25,64 9.15,63.8 8.75,62.4 q -0.2,-0.8 -0.05,-1.7 0.25,-2.65 2.7,-5.05 1.5,-1.3 4.9,-3.15 L 17.7,51.55 16.05,50 q -1.35,-1.5 -1.8,-3.6 -0.4,-1.85 0.25,-3.45 l 0.3,-1.25"
         fill="#000000"
         fill-opacity="0.372549"
         fill-rule="evenodd"
         stroke="none"
         id="path4" />
    </g>
  </defs>
</svg>
