<?xml version="1.0" encoding="UTF-8" standalone="no"?>
<svg
   ffdec:objectType="frame"
   height="47.549999"
   width="56.803654"
   version="1.1"
   id="svg4"
   xmlns:xlink="http://www.w3.org/1999/xlink"
   xmlns="http://www.w3.org/2000/svg"
   xmlns:svg="http://www.w3.org/2000/svg"
   xmlns:ffdec="https://www.free-decompiler.com/flash">
  <g
     transform="translate(29.987805,20.45)"
     id="g1">
    <use
       ffdec:characterId="17"
       height="119.15"
       id="rarity"
       transform="translate(-58.5,-60.65)"
       width="119.15"
       xlink:href="#sprite0" />
    <use
       ffdec:characterId="955"
       height="47.549999"
       transform="translate(-30,-20.45)"
       width="56.799999"
       xlink:href="#shape0"
       id="use1" />
  </g>
  <defs
     id="defs4">
    <g
       id="shape0"
       transform="translate(76.8,21.8)">
      <path
         d="m -45.1,-20.45 q 11.5,-0.55 17.2,9 1.65,2.7 1.9,5.8 v 0.25 0.2 1.05 l -0.05,1.3 v 0.3 q 7.45,1.85 5.75,9.4 -1.05,4.55 -5.3,6.6 h -0.35 l -0.7,-0.3 -0.15,-0.2 v -0.2 l -0.05,-0.2 0.05,-0.25 0.05,-0.2 0.25,-0.2 0.25,-0.25 0.15,-0.2 0.4,-0.85 0.5,-1.05 0.3,-0.65 0.1,-0.45 0.1,-0.4 0.1,-0.45 0.15,-0.4 0.05,-1.1 q 0.2,-0.85 0.05,-1.7 -0.05,-0.45 -0.25,-0.85 l -1.75,-0.5 q -1.4,3.65 -4.2,6.05 1.4,1 2.35,2.7 0.55,1.05 0.75,2.25 -0.15,1.45 -0.6,2.75 -0.8,2.35 -3.05,3.45 h -0.55 -0.6 q -0.6,-0.05 -0.9,-0.55 l -0.05,-0.2 v -0.25 -0.2 l 0.05,-0.2 0.5,-1.15 0.7,-1.7 0.2,-0.8 -0.2,-0.45 -0.05,-0.2 -0.1,-0.45 -0.05,-0.2 q -1.85,-0.5 -2.9,-1.6 -1,1.6 -2.35,2.9 0.6,1.15 0.7,2.85 0.2,5 -4.45,7.1 l -1.95,0.6 -1.7,-0.5 -0.9,-0.65 -0.05,-0.2 -0.1,-0.2 -0.2,-0.45 -0.05,-0.4 0.1,-0.2 0.2,-0.2 0.4,-0.2 0.3,0.1 0.15,0.05 q 2.3,-0.7 3.6,-2.8 0.45,-0.7 0.6,-1.55 l -0.85,-0.7 q -4.1,1.8 -8.75,1.5 -7.8,7.25 -17.1,1.85 -2.5,-1.45 -3.5,-4.15 Q -73.5,10 -68.65,4.3 l -0.1,-1.15 h -0.15 q -1.9,-0.2 -3.2,1.2 l -1.25,1.7 v 0.2 l 0.05,0.2 v 0.2 0.25 l 0.05,0.4 0.05,0.25 -0.05,0.2 -0.05,0.2 -0.1,0.25 -0.15,0.15 -0.25,0.25 q -3.5,0 -2.9,-3.9 0.9,-6.15 7.35,-7.25 l 2.3,-0.15 q 1.4,-2.15 3.15,-3.9 l -0.85,-0.5 -0.65,-0.3 q -4.45,-0.65 -7.65,2.5 l -0.4,0.35 -0.2,0.05 -0.35,0.1 -0.3,0.05 -0.4,-0.15 -0.35,-0.4 -0.15,-0.25 -0.1,-0.2 V -5.75 -6 l -0.05,-0.2 0.05,-0.45 q 3.3,-5.6 9.9,-5.95 l 1.1,-0.1 q 3.55,0.55 5.1,2.45 l 2.35,-1.25 q 0.65,-2.2 2.25,-3.9 l 0.2,-0.2 -0.15,-0.35 q -0.2,-0.5 -0.8,-0.7 -3.25,-1.2 -6.2,1 l -0.45,0.05 -0.65,-0.1 -0.35,-0.25 -0.2,-0.2 -0.2,-0.2 -0.1,-0.2 -0.05,-0.25 -0.05,-0.2 v -0.4 l 0.1,-0.65 q 1.3,-1.7 3.3,-2.7 1.95,-1 4,-1.05 4.35,0.1 6.15,2.95 2.3,-1.2 4.95,-1.6 m 3.95,5.6 q -1.55,-0.3 -3.2,0.05 l -0.6,0.15 q -3.35,0.8 -5.45,3.05 l -0.45,0.55 h 0.35 q 7.55,0.2 12.75,5.75 l 0.9,1.05 q 1.8,2.2 1.95,5 0.6,1 0.6,2.15 l -0.25,2.6 0.45,-0.25 0.95,-1.1 1.05,-1.5 0.45,-0.6 -0.05,-0.65 0.35,-0.9 0.45,-0.85 0.2,-2.15 q 0.2,-2.15 -0.55,-4.2 V -6.75 L -31.3,-7 q -2.65,-5.75 -8.7,-7.6 l -1.15,-0.25 m -10.4,7.2 -1.15,-0.2 -0.15,0.4 v 0.05 q -0.2,0.55 -0.85,0.8 -1.95,0.7 -3.6,1.8 -3.7,2.45 -5.75,6.85 l 0.2,1.35 1.7,-0.95 q 0.55,-0.3 1.1,-0.35 l 3.2,-0.15 1.45,0.4 1.4,0.45 0.35,0.25 0.8,0.55 1.1,0.95 1.15,0.85 q 1.1,1.75 1.55,3.7 0.6,2.55 0.3,5.05 7.4,-0.35 11.4,-6.9 l 0.55,-0.6 0.05,-0.1 v -1.1 q -0.1,-1.4 -0.45,-2.7 l -1.05,-3.95 -2.35,-2.4 q -2.8,-2.3 -6.55,-3.15 l -4.4,-0.9 m 0.2,17.5 q -0.7,-1.25 -1.55,-2.3 -2.65,-3.1 -6.8,-2.45 l -0.45,0.2 q -1.4,0.7 -2.6,1.75 L -63.4,7.9 -63.65,8.1 -64,8.35 -64.15,8.5 -65.35,10 q -1.25,1.45 -0.85,3.35 0.85,4.3 5.5,5 5.15,-0.45 8.6,-4.05 0.25,-0.25 0.7,-0.2 l 0.3,-2.25 0.1,-0.45 -0.05,-0.2 -0.15,-0.45 -0.05,-0.45 -0.1,-0.4 V 9.85"
         fill="#000000"
         fill-rule="evenodd"
         stroke="none"
         id="path1" />
      <path
         d="m -44.95,-14.65 2,-0.15 1.3,-0.05 h 0.5 l 1.15,0.25 q 6.05,1.85 8.7,7.6 l 0.05,0.25 v 0.05 l -0.05,0.05 -0.15,0.25 -0.2,0.2 -0.3,0.3 -5.8,0.6 q -5.2,-5.55 -12.75,-5.75 l -0.05,-0.1 0.15,-0.45 q 2.1,-2.25 5.45,-3.05 m -7.9,7.25 0.95,-0.25 h 0.35 l 4.4,0.9 q 3.75,0.85 6.55,3.15 0.5,0.75 0.65,1.7 3,4 -1.45,5.35 l -4.8,0.85 q -3.6,0.2 -6.65,-0.7 L -53.65,3.05 -54,2.8 -55.4,2.35 -56.85,1.95 -58.7,0.7 -59.3,0.1 q -0.25,-1.65 0.6,-3.05 l 1.4,-1.85 q 1.65,-1.1 3.6,-1.8 0.65,-0.25 0.85,-0.8 m -10.8,15.5 0.25,-0.2 0.65,-0.85 q 1.2,-1.05 2.6,-1.75 l 0.45,-0.2 q 4.15,-0.65 6.8,2.45 0.85,1.05 1.55,2.3 -0.25,1.45 -1.35,2.5 -6.4,2.4 -11,-1.85 -0.3,-1.25 0.05,-2.4"
         fill="#bbbbbb"
         fill-rule="evenodd"
         stroke="none"
         id="path2" />
      <path
         d="m -31.25,-6.7 q 0.75,2.05 0.55,4.2 l -0.2,2.15 -0.45,0.85 -0.35,0.9 0.05,0.65 -0.45,0.6 -1.05,1.5 -0.95,1.1 -0.45,0.25 0.25,-2.6 q 0,-1.15 -0.6,-2.15 -0.15,-2.8 -1.95,-5 l -0.9,-1.05 5.8,-0.6 0.3,-0.3 0.2,-0.2 0.15,-0.25 0.05,-0.05 m -9.35,3.1 2.35,2.4 1.05,3.95 q 0.35,1.3 0.45,2.7 v 1.1 l -0.05,0.1 -0.55,0.6 q -4,6.55 -11.4,6.9 0.3,-2.5 -0.3,-5.05 -0.45,-1.95 -1.55,-3.7 l -1.15,-0.85 -1.1,-0.95 q 3.05,0.9 6.65,0.7 l 4.8,-0.85 q 4.45,-1.35 1.45,-5.35 -0.15,-0.95 -0.65,-1.7 m -16.25,5.55 -3.2,0.15 q -0.55,0.05 -1.1,0.35 l -1.7,0.95 -0.2,-1.35 q 2.05,-4.4 5.75,-6.85 l -1.4,1.85 q -0.85,1.4 -0.6,3.05 l 0.6,0.6 1.85,1.25 m -6.8,6.15 q -0.35,1.15 -0.05,2.4 4.6,4.25 11,1.85 1.1,-1.05 1.35,-2.5 V 9.9 l 0.1,0.4 0.05,0.45 0.15,0.45 0.05,0.2 -0.1,0.45 -0.3,2.25 q -0.45,-0.05 -0.7,0.2 -3.45,3.6 -8.6,4.05 -4.65,-0.7 -5.5,-5 -0.4,-1.9 0.85,-3.35 l 1.2,-1.5 0.15,-0.15 0.35,-0.25"
         fill="#808080"
         fill-rule="evenodd"
         stroke="none"
         id="path3" />
    </g>
    <g
       id="sprite1"
       transform="translate(17.4,15.85)">
      <use
         ffdec:characterId="31"
         height="57.200001"
         transform="matrix(0.5366,0,0,0.5366,-16.6582,-14.546)"
         width="70.75"
         xlink:href="#sprite2"
         id="use3" />
    </g>
    <g
       id="sprite2"
       transform="translate(-8.65,-10.35)">
      <use
         ffdec:characterId="30"
         height="57.200001"
         transform="translate(8.65,10.35)"
         width="70.75"
         xlink:href="#shape1"
         id="use4" />
    </g>
    <g
       id="shape1"
       transform="translate(-8.65,-10.35)">
      <path
         d="m 14.8,41.7 q 0.65,-1.75 2.65,-2.5 1.8,-0.8 3.7,-0.25 1.15,0.45 2.25,1.2 l 0.9,0.4 q 1.65,0.9 2.85,2.5 L 37.8,30.1 q 2.35,-2.8 3.75,-3.95 1.5,-1.15 4.25,-2.4 18.2,-8.85 27.65,-12.6 2.15,-0.8 3.25,-0.8 h 0.8 l 1.9,2.4 -0.2,0.8 q -0.2,1.1 -1.55,3 -5.85,8.25 -18.85,23.8 -1.85,2.35 -3.35,3.5 -1.4,1.15 -4.75,2.75 l -15.15,7.15 q 1.2,1.6 1.75,3.4 l 0.2,1 0.55,2.5 q 0.1,1.95 -1.1,3.55 -1.2,1.65 -3.05,1.9 l -1.3,0.05 q -1.65,0.2 -3.45,-0.65 -1.85,-0.9 -3,-2.6 L 25,60.95 23.8,62.1 q -2.6,2.85 -4.3,3.95 -2.85,1.8 -5.5,1.45 l -1.65,-0.5 -1.2,-0.7 -0.2,-0.2 q -1,-0.85 -1.6,-1.9 L 9.25,64 9.15,63.8 8.75,62.4 q -0.2,-0.8 -0.05,-1.7 0.25,-2.65 2.7,-5.05 1.5,-1.3 4.9,-3.15 L 17.7,51.55 16.05,50 q -1.35,-1.5 -1.8,-3.6 -0.4,-1.85 0.25,-3.45 l 0.3,-1.25"
         fill="#000000"
         fill-opacity="0.372549"
         fill-rule="evenodd"
         stroke="none"
         id="path4" />
    </g>
  </defs>
</svg>
