<?xml version="1.0" encoding="UTF-8" standalone="no"?>
<svg
   ffdec:objectType="frame"
   height="58.192066"
   width="57.189754"
   version="1.1"
   id="svg5"
   xmlns:xlink="http://www.w3.org/1999/xlink"
   xmlns="http://www.w3.org/2000/svg"
   xmlns:svg="http://www.w3.org/2000/svg"
   xmlns:ffdec="https://www.free-decompiler.com/flash">
  <g
     transform="translate(29.388506,28.963333)"
     id="g1">
    <use
       ffdec:characterId="17"
       height="119.15"
       id="rarity"
       transform="translate(-58.5,-60.65)"
       width="119.15"
       xlink:href="#sprite0" />
    <use
       ffdec:characterId="193"
       height="58.200001"
       transform="translate(-29.4,-28.95)"
       width="57.200001"
       xlink:href="#shape0"
       id="use1" />
  </g>
  <defs
     id="defs5">
    <g
       id="shape0"
       transform="translate(29.1,31.45)">
      <path
         d="m -0.85,-28.6 q 1.95,-2 5.25,-2.7 1.9,-0.35 3.6,0.05 1.9,0.45 2.9,1.8 1.6,2.25 0.2,6.5 2.4,0.9 4.75,3.05 l 3.95,4.2 q 4.6,5.35 6.25,9.05 1.5,3.4 1.9,7.65 0.55,5.55 -0.9,10.05 Q 25.3,16.35 20.7,20.3 16.35,24 10.65,25.6 0.6,28.35 -11.8,24.4 -17.95,22.55 -21.95,19.5 -27,15.7 -28.5,10.55 q -1.6,-5.5 1.15,-13.35 1.9,-5.55 4.65,-9 2.2,-2.8 4.95,-4.4 -2,-0.95 -2.8,-2.05 -1.4,-2 -0.55,-4.5 0.85,-2.25 3.05,-3.4 2,-1.1 4.55,-1 2.1,0.1 3.55,0.8 1.8,0.9 2.6,2.5 l 0.4,0.55 h 0.85 l 2.95,-0.25 q 0,-2.85 2.3,-5.05 m 4.6,7.25 q 0.2,-0.75 1.35,-2.3 1.05,-1.35 1.1,-2.3 -2.75,0.3 -3.45,1.55 -0.3,0.5 -0.45,1.5 l -0.2,1 v 0.25 l 0.15,0.8 q 0.1,0.6 0.45,1.15 l 0.55,-0.25 0.3,-0.2 0.2,-0.1 v -1.1 M 6.15,3.05 5,3 4.25,2.5 Q 3.95,2.1 4,1.65 4.15,0.8 5.4,0.5 5.15,0.05 5.15,-0.55 L 5.2,-2.1 5,-3.65 l -0.1,-3.7 0.1,-4.6 0.35,-2.5 0.15,-0.9 q -5.75,2.85 -13,2 -1.8,-0.2 -2.85,-0.65 l -1.2,-0.8 -1.55,0.1 -0.4,-0.05 -1.45,1.05 -2.15,1.8 q -1.45,1.5 -2.65,3.85 l -1.75,4.4 q -1.65,5 -1.9,7.35 -0.45,4.3 1.3,7.35 1.7,2.85 5.85,5.1 Q -8.2,20.6 0.9,20.9 7.15,21.15 12,19.2 L 12.15,19.15 12,19.05 10.9,17.95 10.35,17.1 10.3,17.05 9.75,16 9.2,14 Q 9,13.1 9.15,12.45 q 0.3,-0.9 0.95,-1.15 0.7,-0.3 1.3,0.2 l 0.55,0.75 0.35,0.85 q 0.65,1.6 2,2.5 l 1.25,0.75 0.65,0.6 q 2.75,-2 4.4,-4.85 1.8,-3.1 2.1,-7.05 0.2,-3.7 -0.95,-7.35 -2.1,-6.35 -8.2,-12.3 -2.6,-2.6 -4.9,-3.2 l -0.35,0.5 -1.2,1.05 -0.1,0.7 v 3.45 l 0.55,7.35 0.4,3.1 L 8,-0.25 7.95,0.1 9.8,0.25 10.15,0.95 9.9,1.7 Q 9.65,1.95 8.45,2.2 l -1.7,0.65 -0.6,0.2 M 7,10.25 Q 6.4,10.05 6.05,9.45 5.5,8.65 6,7.75 L 6.6,7.2 Q 7.1,6.85 7.95,6.65 l 1.2,-0.3 1.1,-0.2 q 0.6,0 1,0.4 0.35,0.35 0.3,0.95 L 11.15,8.4 9.5,9.55 q -1.2,0.7 -1.95,0.7 H 7 m -9,-29.95 -1.65,0.35 -0.1,1.2 3.5,-0.55 -0.3,-0.6 -0.2,-0.65 H -0.9 L -2,-19.7 m -6.7,1.5 2.45,0.15 -0.05,-0.75 -2.4,0.6 m -4.1,-3.35 -0.75,-0.05 -1.6,0.35 q 2.05,1.05 3.5,1.15 -0.1,-0.75 -0.4,-1.05 -0.3,-0.3 -0.75,-0.4 m 3.5,20.1 q -1.65,0.35 -2.45,2.8 L -11.9,3 q 0.2,1 1.15,1.75 L -8.85,5.6 -7.7,5.65 -6.8,4.7 Q -6.25,4.1 -5.35,4.05 -4.45,4 -3.85,4.5 -2.9,5.2 -3,6.65 q -0.05,1.2 -1,2.15 -1.35,1.5 -3.6,1.75 0.1,1.1 -0.35,1.8 -0.55,0.95 -1.7,1.1 -1.1,0.15 -1.9,-0.55 -0.85,-0.65 -0.95,-1.7 l 0.35,-1.4 -0.65,-0.3 -2.05,-1.45 -1,-1.45 -0.85,-1.9 q -0.25,-0.85 -0.15,-2.15 0.25,-3.4 1.95,-5.65 1.75,-2.3 4.2,-2.8 l 0.25,-1.55 Q -10,-8.7 -8.65,-9.3 l 1.8,-0.15 q 0.95,0.2 1.45,0.9 0.75,1 0.35,2.7 l -0.2,0.85 1.4,0.95 q 0.65,0.8 0.85,2.3 0.1,1 -0.2,1.55 -0.5,1 -1.3,0.65 L -5.6,-0.6 q -0.45,-0.45 -1.75,-0.75 l -1.95,-0.1"
         fill="#000000"
         fill-rule="evenodd"
         stroke="none"
         id="path1" />
      <path
         d="M 10.35,17.1 9.95,16.8 Q 8.8,15.85 8.1,14.4 7.35,12.9 7,10.25 h 0.55 q 0.75,0 1.95,-0.7 l 1.65,-1.15 0.4,-0.9 q 0.05,-0.6 -0.3,-0.95 -0.4,-0.4 -1,-0.4 l -1.1,0.2 -1.2,0.3 Q 7.1,6.85 6.6,7.2 L 6.2,3.7 6.15,3.05 6.75,2.85 8.45,2.2 Q 9.65,1.95 9.9,1.7 L 10.15,0.95 9.8,0.25 7.95,0.1 8,-0.25 7.95,-1.65 7.55,-4.75 7,-12.1 v -3.45 l 0.1,-0.7 1.2,-1.05 0.35,-0.5 q 2.3,0.6 4.9,3.2 6.1,5.95 8.2,12.3 1.15,3.65 0.95,7.35 -0.3,3.95 -2.1,7.05 -1.65,2.85 -4.4,4.85 L 15.55,16.35 14.3,15.6 q -1.35,-0.9 -2,-2.5 L 11.95,12.25 11.4,11.5 Q 10.8,11 10.1,11.3 9.45,11.55 9.15,12.45 9,13.1 9.2,14 l 0.55,2 0.55,1.05 0.05,0.05"
         fill="#867e76"
         fill-rule="evenodd"
         stroke="none"
         id="path2" />
      <path
         d="m 10.35,17.1 0.55,0.85 1.1,1.1 0.15,0.1 L 12,19.2 Q 7.15,21.15 0.9,20.9 -8.2,20.6 -16.25,16.15 -20.4,13.9 -22.1,11.05 -23.85,8 -23.4,3.7 q 0.25,-2.35 1.9,-7.35 l 1.75,-4.4 q 1.2,-2.35 2.65,-3.85 l 2.15,-1.8 1.45,-1.05 0.4,0.05 1.55,-0.1 1.2,0.8 q 1.05,0.45 2.85,0.65 7.25,0.85 13,-2 l -0.15,0.9 -0.35,2.5 -0.1,4.6 0.1,3.7 0.2,1.55 -0.05,1.55 Q 5.15,0.05 5.4,0.5 4.15,0.8 4,1.65 3.95,2.1 4.25,2.5 L 5,3 6.15,3.05 6.2,3.7 6.6,7.2 6,7.75 q -0.5,0.9 0.05,1.7 0.35,0.6 0.95,0.8 0.35,2.65 1.1,4.15 0.7,1.45 1.85,2.4 l 0.4,0.3 M -9.3,-1.45 l 1.95,0.1 q 1.3,0.3 1.75,0.75 l 1.1,1.05 q 0.8,0.35 1.3,-0.65 0.3,-0.55 0.2,-1.55 -0.2,-1.5 -0.85,-2.3 l -1.4,-0.95 0.2,-0.85 q 0.4,-1.7 -0.35,-2.7 -0.5,-0.7 -1.45,-0.9 l -1.8,0.15 q -1.35,0.6 -1.8,1.85 l -0.25,1.55 q -2.45,0.5 -4.2,2.8 -1.7,2.25 -1.95,5.65 -0.1,1.3 0.15,2.15 l 0.85,1.9 1,1.45 2.05,1.45 0.65,0.3 -0.35,1.4 q 0.1,1.05 0.95,1.7 0.8,0.7 1.9,0.55 1.15,-0.15 1.7,-1.1 0.45,-0.7 0.35,-1.8 Q -5.35,10.3 -4,8.8 -3.05,7.85 -3,6.65 -2.9,5.2 -3.85,4.5 -4.45,4 -5.35,4.05 -6.25,4.1 -6.8,4.7 L -7.7,5.65 -8.85,5.6 -10.75,4.75 Q -11.7,4 -11.9,3 l 0.15,-1.65 q 0.8,-2.45 2.45,-2.8"
         fill="#afa59b"
         fill-rule="evenodd"
         stroke="none"
         id="path3" />
      <path
         d="m 3.75,-21.35 v 1.1 l -0.2,0.1 -0.3,0.2 -0.55,0.25 q -0.35,-0.55 -0.45,-1.15 l -0.15,-0.8 v -0.25 l 0.2,-1 q 0.15,-1 0.45,-1.5 0.7,-1.25 3.45,-1.55 -0.05,0.95 -1.1,2.3 -1.15,1.55 -1.35,2.3 m -16.55,-0.2 q 0.45,0.1 0.75,0.4 0.3,0.3 0.4,1.05 -1.45,-0.1 -3.5,-1.15 l 1.6,-0.35 0.75,0.05 m 4.1,3.35 2.4,-0.6 0.05,0.75 -2.45,-0.15 m 6.7,-1.5 1.1,-0.25 h 0.15 l 0.2,0.65 0.3,0.6 -3.5,0.55 0.1,-1.2 1.65,-0.35"
         fill="#d7d7d7"
         fill-rule="evenodd"
         stroke="none"
         id="path4" />
    </g>
    <g
       id="sprite1"
       transform="translate(17.4,15.85)">
      <use
         ffdec:characterId="31"
         height="57.200001"
         transform="matrix(0.5366,0,0,0.5366,-16.6582,-14.546)"
         width="70.75"
         xlink:href="#sprite2"
         id="use4" />
    </g>
    <g
       id="sprite2"
       transform="translate(-8.65,-10.35)">
      <use
         ffdec:characterId="30"
         height="57.200001"
         transform="translate(8.65,10.35)"
         width="70.75"
         xlink:href="#shape1"
         id="use5" />
    </g>
    <g
       id="shape1"
       transform="translate(-8.65,-10.35)">
      <path
         d="m 14.8,41.7 q 0.65,-1.75 2.65,-2.5 1.8,-0.8 3.7,-0.25 1.15,0.45 2.25,1.2 l 0.9,0.4 q 1.65,0.9 2.85,2.5 L 37.8,30.1 q 2.35,-2.8 3.75,-3.95 1.5,-1.15 4.25,-2.4 18.2,-8.85 27.65,-12.6 2.15,-0.8 3.25,-0.8 h 0.8 l 1.9,2.4 -0.2,0.8 q -0.2,1.1 -1.55,3 -5.85,8.25 -18.85,23.8 -1.85,2.35 -3.35,3.5 -1.4,1.15 -4.75,2.75 l -15.15,7.15 q 1.2,1.6 1.75,3.4 l 0.2,1 0.55,2.5 q 0.1,1.95 -1.1,3.55 -1.2,1.65 -3.05,1.9 l -1.3,0.05 q -1.65,0.2 -3.45,-0.65 -1.85,-0.9 -3,-2.6 L 25,60.95 23.8,62.1 q -2.6,2.85 -4.3,3.95 -2.85,1.8 -5.5,1.45 l -1.65,-0.5 -1.2,-0.7 -0.2,-0.2 q -1,-0.85 -1.6,-1.9 L 9.25,64 9.15,63.8 8.75,62.4 q -0.2,-0.8 -0.05,-1.7 0.25,-2.65 2.7,-5.05 1.5,-1.3 4.9,-3.15 L 17.7,51.55 16.05,50 q -1.35,-1.5 -1.8,-3.6 -0.4,-1.85 0.25,-3.45 l 0.3,-1.25"
         fill="#000000"
         fill-opacity="0.372549"
         fill-rule="evenodd"
         stroke="none"
         id="path5" />
    </g>
  </defs>
</svg>
