<?xml version="1.0" encoding="UTF-8" standalone="no"?>
<svg
   ffdec:objectType="frame"
   height="46.977345"
   width="52.020817"
   version="1.1"
   id="svg5"
   xmlns:xlink="http://www.w3.org/1999/xlink"
   xmlns="http://www.w3.org/2000/svg"
   xmlns:svg="http://www.w3.org/2000/svg"
   xmlns:ffdec="https://www.free-decompiler.com/flash">
  <g
     transform="translate(25.219565,20.812037)"
     id="g1">
    <use
       ffdec:characterId="17"
       height="119.15"
       id="rarity"
       transform="translate(-58.5,-60.65)"
       width="119.15"
       xlink:href="#sprite0" />
    <use
       ffdec:characterId="52"
       height="46.950001"
       transform="translate(-25.2,-20.8)"
       width="52"
       xlink:href="#shape0"
       id="use1" />
  </g>
  <defs
     id="defs5">
    <g
       id="shape0"
       transform="translate(24.9,23.3)">
      <path
         d="m 18.25,1.35 1.35,-2.2 q 0.6,-1.5 0.55,-3.5 -0.15,-3.35 -1.6,-6.1 -1.5,-2.85 -4.1,-4.45 -2.7,-1.65 -6.2,-1.65 -3.5,-0.05 -6.75,1.6 l -2.1,1.1 -2.05,0.2 q -0.8,-0.2 -1.1,-1.05 l -0.15,-0.2 -0.05,-0.05 q -1.05,-0.2 -2.8,-1.1 l -4.3,0.1 q -2.3,0.75 -4.05,2.55 -1.65,1.75 -2.4,4.05 -0.75,2.25 -0.35,4.35 0.2,1.2 1.5,4.15 l 0.4,1 q 1.55,3.6 2.65,7.45 l 1,3.85 0.35,1.65 0.5,-1.45 0.05,-0.1 Q -10.7,9.5 -10.1,8.6 L -9.5,7.7 -7.95,6 -6.3,4.7 Q -4.25,3.45 -0.8,3.9 2.8,4.55 4.4,6.4 L 4.75,6.9 Q 5.6,8.2 5.9,10.3 l 0.05,1.05 -0.15,3.35 -0.05,0.85 0.6,-0.4 q 1.4,-1 3.65,-3.7 l 0.45,-0.55 3.2,-3.85 3.8,-4.65 0.8,-1.05 M -0.7,-21.6 0.35,-20.45 2,-21.15 q 3.45,-1.45 5.85,-1.9 4.1,-0.75 8.1,0.85 3.55,1.35 6.5,4.3 2.4,2.4 3.35,4.7 0.7,1.7 1.15,5.25 0.55,5.6 -0.9,9 -0.9,2.05 -3.7,5.4 l -7.1,8.3 Q 11.1,19.2 7.15,21.95 4.4,24 2.55,23.6 1.35,23.35 0.85,22.05 L 0.7,20.75 0.65,20.45 0.25,17.4 0,14.1 -0.25,12.45 q -0.2,-1 -0.6,-1.4 L -1.65,10.55 -3,10.2 h -0.85 q -0.8,0.2 -1.45,1.7 l -1.75,5.45 q -0.65,1.8 -1.25,2.6 -1.35,1.75 -3.35,1.85 l -0.45,-0.05 q -0.65,0.6 -1.35,0.8 -1.1,0.35 -2.1,-0.65 l -1,-1.95 -2.6,-8.05 q -1.55,-4.85 -3,-7.85 l -1.9,-4.2 q -1,-2.75 -0.85,-5.9 0.15,-3.2 1.45,-6.2 1.35,-3.1 3.85,-5.65 2.55,-2.55 5.65,-3.9 2.6,-1.15 5.45,-1.4 5.2,-0.55 7.8,1.6 M 7.5,-7.25 H 7.25 l -1.6,0.05 q -2.2,0.1 -4.35,1.05 -2.2,0.95 -3.85,2.6 l -0.85,0.75 -0.5,0.45 q -0.65,0.5 -1.25,0.6 l -1.1,0.75 -1.4,0.9 -0.4,0.2 -1.1,0.3 -0.8,-0.2 q -0.65,-0.3 -0.75,-1.05 -0.05,-0.85 0.55,-1.5 l 0.2,-0.15 0.2,-0.15 0.85,-0.65 1.45,-1.2 1,-0.7 0.1,-0.1 -0.2,-0.3 -0.15,-0.65 -0.2,-1.15 q -0.6,-1.6 -2,-2.15 l -0.95,-0.2 -1.5,-0.15 q -0.85,-0.3 -0.9,-0.95 -0.05,-0.8 0.85,-1.35 l 1.55,-0.45 q 4.1,-0.3 6.9,3.2 l 3.05,-1.9 q 3.7,-1.7 7.6,-1.4 1.7,0.1 2.45,0.85 0.75,0.85 0.3,2.25 Q 10,-8.2 8.8,-7.6 8.3,-7.35 7.5,-7.25"
         fill="#000000"
         fill-rule="evenodd"
         stroke="none"
         id="path1" />
      <path
         d="M 3.95,-0.2 Q 3.45,-0.85 3.7,-1.85 3.85,-2.35 4.3,-2.7 4.75,-3.05 5.25,-3 l 0.1,-0.1 q 1.25,0.1 1.6,1.3 0.2,0.55 -0.05,1.1 L 6.25,0.1 Q 5.9,0.4 5.4,0.4 L 4.75,0.25 3.95,-0.2 m 10.4,-2.75 q -1.5,1.05 -2.9,1 Q 9.85,-2.05 9.1,-3.45 8.55,-4.35 8.85,-5.3 9.1,-6.2 10.3,-6.95 l 2.05,-1 2.55,-0.1 q 0.8,0.3 1.2,1.15 0.45,0.85 0.2,1.65 -0.3,1.25 -1.95,2.3 m -29.2,-1.7 Q -15.9,-5.5 -15.6,-7.3 l 0.4,-1.15 1.2,-1 1.6,-0.5 q 1,0 1.55,0.55 0.45,0.55 0.55,1.85 0.2,1.95 -0.8,2.8 -0.45,0.35 -1.3,0.5 -1.55,0.35 -2.45,-0.4"
         fill="#ffffff"
         fill-rule="evenodd"
         stroke="none"
         id="path2" />
      <path
         d="m 18.25,1.35 -0.8,1.05 -3.8,4.65 -3.2,3.85 -0.45,0.55 q -2.25,2.7 -3.65,3.7 L 5.75,15.55 5.8,14.7 5.95,11.35 5.9,10.3 Q 5.6,8.2 4.75,6.9 L 4.4,6.4 Q 2.8,4.55 -0.8,3.9 -4.25,3.45 -6.3,4.7 L -7.95,6 -9.5,7.7 -10.1,8.6 q -0.6,0.9 -1.3,2.95 l -0.05,0.1 -0.5,1.45 -0.35,-1.65 -1,-3.85 q -1.1,-3.85 -2.65,-7.45 0.55,0.3 0.95,1.05 l 1.9,2.75 q 1.1,1.55 2.45,2 l 1.45,0.1 1.45,-1 q 1.25,-0.9 3.3,-1.45 4.15,-1.05 7.1,0.1 0.6,0.2 2.4,1.25 1.45,0.8 2.5,1 1.75,0.35 3.8,-0.4 1.95,-0.7 3.55,-2.2 l 1.8,-1.5 q 0.85,-0.6 1.55,-0.5 m -27.4,-0.95 1.1,-0.3 0.4,-0.2 1.4,-0.9 1.1,-0.75 q 0.6,-0.1 1.25,-0.6 l 0.5,-0.45 0.85,-0.75 Q -0.9,-5.2 1.3,-6.15 3.45,-7.1 5.65,-7.2 l 1.6,-0.05 H 7.5 l -0.3,1.2 q -0.8,1.75 -3.1,3 l -1.9,0.9 -2,0.85 Q -2.55,0.05 -3.95,0.55 -6.5,1.5 -8.2,0.9 L -9.15,0.4 m 0.25,-9.95 q 1.4,0.55 2,2.15 l 0.2,1.15 0.15,0.65 0.2,0.3 -0.1,0.1 -1,0.7 -1.45,1.2 -0.85,0.65 -0.2,0.15 0.15,-0.4 -0.15,-1.9 -0.15,-1.35 0.15,-1.85 q 0.25,-0.85 1.05,-1.55"
         fill="#c2c0ab"
         fill-rule="evenodd"
         stroke="none"
         id="path3" />
      <path
         d="m -15.95,0.15 -0.4,-1 q -1.3,-2.95 -1.5,-4.15 -0.4,-2.1 0.35,-4.35 0.75,-2.3 2.4,-4.05 1.75,-1.8 4.05,-2.55 l 4.3,-0.1 q 1.75,0.9 2.8,1.1 l 0.05,0.05 0.15,0.2 q 0.3,0.85 1.1,1.05 l 2.05,-0.2 2.1,-1.1 q 3.25,-1.65 6.75,-1.6 3.5,0 6.2,1.65 2.6,1.6 4.1,4.45 1.45,2.75 1.6,6.1 0.05,2 -0.55,3.5 l -1.35,2.2 q -0.7,-0.1 -1.55,0.5 l -1.8,1.5 Q 13.3,4.85 11.35,5.55 9.3,6.3 7.55,5.95 6.5,5.75 5.05,4.95 3.25,3.9 2.65,3.7 -0.3,2.55 -4.45,3.6 -6.5,4.15 -7.75,5.05 l -1.45,1 -1.45,-0.1 Q -12,5.5 -13.1,3.95 L -15,1.2 Q -15.4,0.45 -15.95,0.15 M 7.5,-7.25 q 0.8,-0.1 1.3,-0.35 1.2,-0.6 1.65,-2.05 0.45,-1.4 -0.3,-2.25 -0.75,-0.75 -2.45,-0.85 -3.9,-0.3 -7.6,1.4 l -3.05,1.9 q -2.8,-3.5 -6.9,-3.2 l -1.55,0.45 q -0.9,0.55 -0.85,1.35 0.05,0.65 0.9,0.95 l 1.5,0.15 0.95,0.2 q -0.8,0.7 -1.05,1.55 l -0.15,1.85 0.15,1.35 0.15,1.9 -0.15,0.4 -0.2,0.15 q -0.6,0.65 -0.55,1.5 0.1,0.75 0.75,1.05 l 0.8,0.2 0.95,0.5 q 1.7,0.6 4.25,-0.35 1.4,-0.5 4.15,-1.85 l 2,-0.85 1.9,-0.9 q 2.3,-1.25 3.1,-3 l 0.3,-1.2 m -22.35,2.6 q 0.9,0.75 2.45,0.4 0.85,-0.15 1.3,-0.5 1,-0.85 0.8,-2.8 -0.1,-1.3 -0.55,-1.85 -0.55,-0.55 -1.55,-0.55 l -1.6,0.5 -1.2,1 -0.4,1.15 q -0.3,1.8 0.75,2.65 m 29.2,1.7 Q 16,-4 16.3,-5.25 16.55,-6.05 16.1,-6.9 15.7,-7.75 14.9,-8.05 l -2.55,0.1 -2.05,1 q -1.2,0.75 -1.45,1.65 -0.3,0.95 0.25,1.85 0.75,1.4 2.35,1.5 1.4,0.05 2.9,-1 M 3.95,-0.2 4.75,0.25 5.4,0.4 q 0.5,0 0.85,-0.3 L 6.9,-0.7 Q 7.15,-1.25 6.95,-1.8 6.6,-3 5.35,-3.1 L 5.25,-3 q -0.5,-0.05 -0.95,0.3 -0.45,0.35 -0.6,0.85 -0.25,1 0.25,1.65"
         fill="#d4d2b9"
         fill-rule="evenodd"
         stroke="none"
         id="path4" />
    </g>
    <g
       id="sprite1"
       transform="translate(17.4,15.85)">
      <use
         ffdec:characterId="31"
         height="57.200001"
         transform="matrix(0.5366,0,0,0.5366,-16.6582,-14.546)"
         width="70.75"
         xlink:href="#sprite2"
         id="use4" />
    </g>
    <g
       id="sprite2"
       transform="translate(-8.65,-10.35)">
      <use
         ffdec:characterId="30"
         height="57.200001"
         transform="translate(8.65,10.35)"
         width="70.75"
         xlink:href="#shape1"
         id="use5" />
    </g>
    <g
       id="shape1"
       transform="translate(-8.65,-10.35)">
      <path
         d="m 14.8,41.7 q 0.65,-1.75 2.65,-2.5 1.8,-0.8 3.7,-0.25 1.15,0.45 2.25,1.2 l 0.9,0.4 q 1.65,0.9 2.85,2.5 L 37.8,30.1 q 2.35,-2.8 3.75,-3.95 1.5,-1.15 4.25,-2.4 18.2,-8.85 27.65,-12.6 2.15,-0.8 3.25,-0.8 h 0.8 l 1.9,2.4 -0.2,0.8 q -0.2,1.1 -1.55,3 -5.85,8.25 -18.85,23.8 -1.85,2.35 -3.35,3.5 -1.4,1.15 -4.75,2.75 l -15.15,7.15 q 1.2,1.6 1.75,3.4 l 0.2,1 0.55,2.5 q 0.1,1.95 -1.1,3.55 -1.2,1.65 -3.05,1.9 l -1.3,0.05 q -1.65,0.2 -3.45,-0.65 -1.85,-0.9 -3,-2.6 L 25,60.95 23.8,62.1 q -2.6,2.85 -4.3,3.95 -2.85,1.8 -5.5,1.45 l -1.65,-0.5 -1.2,-0.7 -0.2,-0.2 q -1,-0.85 -1.6,-1.9 L 9.25,64 9.15,63.8 8.75,62.4 q -0.2,-0.8 -0.05,-1.7 0.25,-2.65 2.7,-5.05 1.5,-1.3 4.9,-3.15 L 17.7,51.55 16.05,50 q -1.35,-1.5 -1.8,-3.6 -0.4,-1.85 0.25,-3.45 l 0.3,-1.25"
         fill="#000000"
         fill-opacity="0.372549"
         fill-rule="evenodd"
         stroke="none"
         id="path5" />
    </g>
  </defs>
</svg>
