<?xml version="1.0" encoding="UTF-8" standalone="no"?>
<svg
   ffdec:objectType="frame"
   height="51.495049"
   width="66.526665"
   version="1.1"
   id="svg6"
   sodipodi:docname="checkers.svg"
   inkscape:version="1.4.2 (f4327f4, 2025-05-13)"
   xmlns:inkscape="http://www.inkscape.org/namespaces/inkscape"
   xmlns:sodipodi="http://sodipodi.sourceforge.net/DTD/sodipodi-0.dtd"
   xmlns:xlink="http://www.w3.org/1999/xlink"
   xmlns="http://www.w3.org/2000/svg"
   xmlns:svg="http://www.w3.org/2000/svg"
   xmlns:ffdec="https://www.free-decompiler.com/flash">
  <sodipodi:namedview
     id="namedview6"
     pagecolor="#ffffff"
     bordercolor="#000000"
     borderopacity="0.25"
     inkscape:showpageshadow="2"
     inkscape:pageopacity="0.0"
     inkscape:pagecheckerboard="0"
     inkscape:deskcolor="#d1d1d1"
     inkscape:zoom="6.6943175"
     inkscape:cx="35.627231"
     inkscape:cy="26.664406"
     inkscape:window-width="1920"
     inkscape:window-height="1009"
     inkscape:window-x="1912"
     inkscape:window-y="-8"
     inkscape:window-maximized="1"
     inkscape:current-layer="svg6" />
  <g
     transform="translate(34.6,27.013636)"
     id="g1">
    <use
       ffdec:characterId="17"
       height="119.15"
       id="rarity"
       transform="translate(-58.5,-60.65)"
       width="119.15"
       xlink:href="#sprite0" />
    <use
       ffdec:characterId="276"
       height="51.5"
       transform="translate(-34.6,-27)"
       width="66.550003"
       xlink:href="#shape0"
       id="use1" />
  </g>
  <defs
     id="defs6">
    <g
       id="shape0"
       transform="translate(34.3,29.5)">
      <path
         d="m -33.5,-8.35 q 0.65,-3.15 4.25,-7.6 3.55,-4.45 6.35,-6.75 4.6,-3.8 10.7,-5.5 5.8,-1.7 12,-1.2 3.45,0.3 5.55,1.5 l 1.2,0.45 q 1.15,0.6 2.85,2.6 2.8,3.6 3.65,6.35 1.25,3.9 -0.1,7.15 l -0.1,0.2 -0.5,0.9 -0.35,0.6 h 0.25 q 6,0.5 11.55,3.2 3.1,1.6 4.6,3.45 l 1,0.9 q 0.85,0.95 1.7,3.45 1.3,4.35 1.1,7.2 -0.3,4.15 -2.75,6.65 -1.85,1.85 -6.1,3.25 -9.95,3.25 -18.5,3.5 -10.15,0.35 -18.4,-3.2 -1.95,-0.9 -2.85,-1.95 -0.75,-1.15 -0.85,-4 V 7.35 7.05 L -25.8,7.7 q -2.15,-0.1 -3.35,-0.8 -1.1,-0.75 -2.25,-3.4 l -2,-5.05 q -0.9,-2.2 -0.9,-3.35 0,-1.15 0.7,-2.85 l 0.1,-0.6 m 5.1,1.75 0.15,0.9 q 0.55,1 2.35,1.2 2.55,0.3 6.6,-0.75 7.45,-2 12.9,-5.25 Q 0,-14.4 3,-19.75 3.8,-21.1 3.55,-22 3.2,-23.4 0.8,-23.9 l -3.2,-0.4 h -0.45 q -3.75,-0.1 -7.4,1.25 l -6.6,3.05 -2.2,1.2 -2.2,1.85 q -4.55,4.5 -6.55,8.4 l -0.1,0.2 -0.5,1.75 M 5.65,-14.25 3,-11.1 2.9,-11 0.25,-8.6 0,-8.4 -1.3,-7.45 -5.15,-5.1 Q -8.25,-3.45 -12,-2 l -0.7,0.25 -5.45,1.7 -2.4,0.55 -4.45,0.2 -2.1,-0.1 0.2,0.55 0.2,0.55 0.95,1.05 0.15,0.05 1.6,0.1 6.9,-0.95 1.85,-0.35 2.65,-0.75 q 3.15,-1.05 6.4,-2.9 5.7,-3.1 10.95,-7.25 l 0.4,-0.3 0.4,-0.3 0.4,-0.35 q 2.45,-2 2.75,-3.7 Q 9,-15.2 8.2,-17.1 l -0.35,-0.8 -0.6,1.2 -1.6,2.45 M 19.9,-2.5 19.5,-2.65 Q 16.05,-4.1 12.15,-4.2 l -6.6,0.4 q -6.6,4.95 -13,7.75 l -2.9,1.15 -0.6,0.25 q 0.15,1.15 1.75,2 2.25,1.2 6.45,1.75 7.6,0.8 13.9,-0.2 Q 18.55,7.6 23.3,3.75 24.5,2.8 24.6,1.85 24.75,0.4 22.75,-0.9 L 19.9,-2.5 m 3.85,12.3 -3.65,2 -5.3,1.8 -4.45,0.75 Q 4.15,15.1 -3.6,14.3 L -6.05,14 q -1.7,-0.4 -4.25,-1.5 l -1.9,-0.8 v 0.55 0.55 q 0,0.85 0.45,1.35 l 0.15,0.15 q 0.45,0.45 1.45,0.6 7.5,2.15 11.35,2.3 l 7,-0.35 q 6.45,-0.8 12.85,-2.75 l 1.45,-0.45 q 3.05,-1 3.95,-2.4 0.7,-1.05 0.65,-3.15 V 7.2 l -1,0.95 -2.35,1.65"
         fill="#000000"
         fill-rule="evenodd"
         stroke="none"
         id="path1" />
      <path
         d="m -2.4,-24.3 q 0.65,1.3 0.65,2.8 -0.05,2.3 -1.95,5.3 l -1.65,2.35 q -1.8,2.15 -6.15,4.55 -3.1,1.8 -5.25,2.3 l -2.85,0.65 -2,0.7 -1.75,0.15 -3.1,-0.2 q -1.2,-0.25 -1.95,-0.9 l 0.5,-1.75 0.1,-0.2 q 2,-3.9 6.55,-8.4 l 2.2,-1.85 2.2,-1.2 6.6,-3.05 q 3.65,-1.35 7.4,-1.25 h 0.45"
         fill="#945656"
         fill-rule="evenodd"
         stroke="none"
         id="path2" />
      <path
         d="m -2.4,-24.3 3.2,0.4 q 2.4,0.5 2.75,1.9 0.25,0.9 -0.55,2.25 -3,5.35 -9.4,9.25 -5.45,3.25 -12.9,5.25 -4.05,1.05 -6.6,0.75 -1.8,-0.2 -2.35,-1.2 l -0.15,-0.9 q 0.75,0.65 1.95,0.9 l 3.1,0.2 1.75,-0.15 2,-0.7 2.85,-0.65 q 2.15,-0.5 5.25,-2.3 4.35,-2.4 6.15,-4.55 l 1.65,-2.35 q 1.9,-3 1.95,-5.3 0,-1.5 -0.65,-2.8 m 8.05,10.05 1.6,-2.45 0.6,-1.2 0.35,0.8 q 0.8,1.9 0.5,3.15 -0.3,1.7 -2.75,3.7 l -0.4,0.35 -0.4,0.3 -0.4,0.3 q -5.25,4.15 -10.95,7.25 -3.25,1.85 -6.4,2.9 L -15.25,1.6 -17.1,1.95 -24,2.9 -25.6,2.8 -25.75,2.75 -26.7,1.7 -26.9,1.15 -27.1,0.6 l 2.1,0.1 4.45,-0.2 2.4,-0.55 5.45,-1.7 L -12,-2 q 3.75,-1.45 6.85,-3.1 L -1.3,-7.45 0,-8.4 0.25,-8.6 2.9,-11 3,-11.1 5.65,-14.25"
         fill="#763c3c"
         fill-rule="evenodd"
         stroke="none"
         id="path3" />
      <path
         d="m -10.35,5.1 2.9,-1.15 q 6.4,-2.8 13,-7.75 l 6.6,-0.4 q 3.9,0.1 7.35,1.55 l 0.4,0.15 q 0.15,1.45 -0.4,2.85 -0.9,2.15 -3.75,4.25 l -2.4,1.6 Q 10.9,7.55 5.95,8.15 L 0.2,8.35 -2.65,7.9 -4.75,7.85 -6.5,7.35 Q -8.3,6.75 -9.3,6 l -1.05,-0.9"
         fill="#464646"
         fill-rule="evenodd"
         stroke="none"
         id="path4" />
      <path
         d="M -10.35,5.1 -9.3,6 q 1,0.75 2.8,1.35 l 1.75,0.5 2.1,0.05 2.85,0.45 5.75,-0.2 q 4.95,-0.6 7.4,-1.95 l 2.4,-1.6 q 2.85,-2.1 3.75,-4.25 0.55,-1.4 0.4,-2.85 l 2.85,1.6 q 2,1.3 1.85,2.75 -0.1,0.95 -1.3,1.9 -4.75,3.85 -12.15,5.15 -6.3,1 -13.9,0.2 -4.2,-0.55 -6.45,-1.75 -1.6,-0.85 -1.75,-2 l 0.6,-0.25 m 34.1,4.7 2.35,-1.65 1,-0.95 v 0.9 q 0.05,2.1 -0.65,3.15 -0.9,1.4 -3.95,2.4 l -1.45,0.45 q -6.4,1.95 -12.85,2.75 l -7,0.35 q -3.85,-0.15 -11.35,-2.3 -1,-0.15 -1.45,-0.6 l -0.15,-0.15 Q -12.2,13.65 -12.2,12.8 V 12.25 11.7 l 1.9,0.8 q 2.55,1.1 4.25,1.5 l 2.45,0.3 q 7.75,0.8 13.95,0.05 l 4.45,-0.75 5.3,-1.8 3.65,-2"
         fill="#333333"
         fill-rule="evenodd"
         stroke="none"
         id="path5" />
    </g>
    <g
       id="sprite1"
       transform="translate(17.4,15.85)">
      <use
         ffdec:characterId="31"
         height="57.200001"
         transform="matrix(0.5366,0,0,0.5366,-16.6582,-14.546)"
         width="70.75"
         xlink:href="#sprite2"
         id="use5" />
    </g>
    <g
       id="sprite2"
       transform="translate(-8.65,-10.35)">
      <use
         ffdec:characterId="30"
         height="57.200001"
         transform="translate(8.65,10.35)"
         width="70.75"
         xlink:href="#shape1"
         id="use6" />
    </g>
    <g
       id="shape1"
       transform="translate(-8.65,-10.35)">
      <path
         d="m 14.8,41.7 q 0.65,-1.75 2.65,-2.5 1.8,-0.8 3.7,-0.25 1.15,0.45 2.25,1.2 l 0.9,0.4 q 1.65,0.9 2.85,2.5 L 37.8,30.1 q 2.35,-2.8 3.75,-3.95 1.5,-1.15 4.25,-2.4 18.2,-8.85 27.65,-12.6 2.15,-0.8 3.25,-0.8 h 0.8 l 1.9,2.4 -0.2,0.8 q -0.2,1.1 -1.55,3 -5.85,8.25 -18.85,23.8 -1.85,2.35 -3.35,3.5 -1.4,1.15 -4.75,2.75 l -15.15,7.15 q 1.2,1.6 1.75,3.4 l 0.2,1 0.55,2.5 q 0.1,1.95 -1.1,3.55 -1.2,1.65 -3.05,1.9 l -1.3,0.05 q -1.65,0.2 -3.45,-0.65 -1.85,-0.9 -3,-2.6 L 25,60.95 23.8,62.1 q -2.6,2.85 -4.3,3.95 -2.85,1.8 -5.5,1.45 l -1.65,-0.5 -1.2,-0.7 -0.2,-0.2 q -1,-0.85 -1.6,-1.9 L 9.25,64 9.15,63.8 8.75,62.4 q -0.2,-0.8 -0.05,-1.7 0.25,-2.65 2.7,-5.05 1.5,-1.3 4.9,-3.15 L 17.7,51.55 16.05,50 q -1.35,-1.5 -1.8,-3.6 -0.4,-1.85 0.25,-3.45 l 0.3,-1.25"
         fill="#000000"
         fill-opacity="0.372549"
         fill-rule="evenodd"
         stroke="none"
         id="path6" />
    </g>
  </defs>
</svg>
