<?xml version="1.0" encoding="UTF-8" standalone="no"?>
<svg
   ffdec:objectType="frame"
   height="77.877327"
   width="52.863281"
   version="1.1"
   id="svg4"
   xmlns:xlink="http://www.w3.org/1999/xlink"
   xmlns="http://www.w3.org/2000/svg"
   xmlns:svg="http://www.w3.org/2000/svg"
   xmlns:ffdec="https://www.free-decompiler.com/flash">
  <g
     transform="translate(28.2125,37.527326)"
     id="g1">
    <use
       ffdec:characterId="17"
       height="119.15"
       id="rarity"
       transform="translate(-58.5,-60.65)"
       width="119.15"
       xlink:href="#sprite0" />
    <use
       ffdec:characterId="116"
       height="78.199997"
       transform="translate(-28.2,-37.55)"
       width="52.849998"
       xlink:href="#shape0"
       id="use1" />
  </g>
  <defs
     id="defs4">
    <g
       id="shape0"
       transform="translate(27.9,40.05)">
      <path
         d="m 17.35,-9.45 q 2.25,-4.85 1.15,-9.35 -0.6,-2.5 -2.45,-5.3 -2.5,-3.6 -5.95,-6 -3.65,-2.55 -7.75,-3.3 l -8.4,0.4 -1.45,0.45 q -2.7,0.85 -5.15,2.35 l -1.2,0.7 q -3.6,2.4 -5.75,5.6 -2.4,3.65 -2.2,7.4 0.15,3.85 2.95,7.15 1.5,1.85 3.65,3.1 l 1.75,-4.25 h -0.5 q -2.65,0 -3.75,-1.9 -0.7,-1.25 -0.4,-3.9 0.6,-5 2.15,-7.25 l 0.5,-0.6 q 1.65,-2.05 5.6,-4.3 l 2.7,-1.3 q 2.65,-1.15 4.45,-1.3 3.7,-0.35 8.9,2.25 5.8,2.75 7.5,6.45 0.8,1.75 0.95,4.4 v 2.3 l -0.4,3.75 -0.7,2.55 -0.45,1.1 q -1.05,2.3 -3.4,4.75 L 5.35,0.65 Q -0.1,6 -0.15,10.75 v 0.05 l 0.1,2.25 q 0,1.3 -0.4,2.1 -0.35,0.7 -1.15,1.4 l -1.45,1.1 -1.2,1.1 q -2.15,2.05 -2.8,4.55 -0.45,1.75 -0.05,3.5 l 0.05,0.15 q 0.45,1.75 1.7,2.85 1.45,1.35 3.85,1.75 L 3.75,31.4 Q 6.5,30.65 8.15,28.75 9.9,26.7 9.85,23.8 9.75,20.85 7.7,19.25 L 5.95,18.1 Q 4.95,17.4 4.6,16.6 L 4.45,15.55 4.15,15.4 Q 3,14.8 2.45,13.1 1.9,11.3 2.35,9.3 L 2.45,8.9 Q 3,6.85 4.4,5 L 4.6,4.75 Q 5.65,3.45 7.4,1.9 l 3.25,-2.85 q 2.4,-2.15 4.1,-4.25 1.4,-1.85 2.3,-3.65 l 0.3,-0.6 m -25.7,-5.8 q 0.9,0.05 1.5,0.5 0.65,0.55 0.85,1.55 0.15,0.85 -0.15,1.8 -0.25,0.75 -0.8,1.65 l -1,1.6 q -1.5,2.6 -1.75,5.6 L -10,0.2 q -0.35,1.5 -1.4,2.05 -1.45,0.75 -4,-0.85 -5.4,-3.35 -9.6,-8.35 -1.8,-2.3 -2.3,-3.7 -0.7,-1.8 -0.6,-5.7 0.1,-4.2 0.75,-6.5 1.3,-4.55 6.1,-8.8 5.65,-5.1 12.65,-7.2 7.5,-2.25 14.25,-0.2 4.2,1.3 8.25,4.2 4.9,3.6 7.75,8.35 3.15,5.25 3.1,10.7 Q 24.9,-9.45 20.7,-3.35 17.4,1.5 11.4,6.1 L 8.6,8.6 Q 7.25,10.2 7.15,11.85 L 7.2,12.8 7.4,12.75 q 2.45,-0.25 4.85,2.25 1.7,1.8 2.65,4.2 0.95,2.4 0.95,4.9 0,5.25 -3.55,9.1 -2.7,3 -6.9,4.25 l -8.2,0.4 q -4.6,-0.95 -7.3,-3.55 -2,-1.95 -2.95,-4.8 -0.9,-2.75 -0.55,-5.6 0.7,-5.65 5.2,-9.85 1.5,-1.4 1.85,-2.15 Q -6.1,11.05 -6.1,9.15 -6,5.95 -5.35,4.3 -4.6,2.6 -2,-0.1 l 4.7,-4.85 q 3.9,-3.9 5.2,-6.7 0.95,-2.05 1,-4.15 0,-2.3 -1.15,-4 -1.15,-1.75 -4,-3.3 -2.8,-1.6 -4.8,-1.75 -2.85,-0.25 -6.4,1.75 -2.4,1.3 -3.7,2.85 -1.65,2.2 -1.15,4.4 l 3.35,0.4 0.3,0.2 h 0.3 m 5.45,40.2 q -0.3,-0.9 -0.2,-2.4 l 0.45,-2 Q -2.2,19.6 -1.1,19 q 1.35,-0.8 3,-0.7 1.6,0.15 2.85,1.1 1.7,1.35 1.7,3.3 v 0.45 L 5.75,25.45 4.6,27.1 Q 4,27.6 2.65,27.8 L -0.5,27.45 Q -2.15,26.7 -2.8,25.3 l -0.1,-0.35"
         fill="#000000"
         fill-rule="evenodd"
         stroke="none"
         id="path1" />
      <path
         d="m -7.5,-32.55 q 0.8,0.45 0.85,1.3 0.05,0.7 -0.5,1.45 v 0.05 l -2.7,1.3 q -3.95,2.25 -5.6,4.3 1.35,-3.9 2.8,-6.05 2.45,-1.5 5.15,-2.35 m 21.05,23.2 1,-0.4 q 1.55,-0.5 2.45,0 l 0.35,0.3 -0.3,0.6 q -0.9,1.8 -2.3,3.65 Q 12.6,-4 11.6,-3 L 10.5,-1.8 9.1,-0.65 7.85,0.65 5.75,3.2 4.6,4.75 4.4,5 Q 3,6.85 2.45,8.9 L 2.35,9.3 1.5,10.5 Q 1.05,10.85 0.4,10.8 L -0.15,10.75 Q -0.1,6 5.35,0.65 L 9.7,-3.5 q 2.35,-2.45 3.4,-4.75 l 0.45,-1.1 M -7.05,26.95 -7.1,26.8 q -0.4,-1.75 0.05,-3.5 0.65,-2.5 2.8,-4.55 0.3,0.35 0.35,0.85 0.15,0.7 -0.25,1.65 l -0.85,1.6 -0.7,1.9 -0.95,1.7 -0.4,0.5 m 13.5,-3.8 1.5,0.05 Q 9,23.75 9,25.05 q 0,1 -0.6,2.1 l -1.3,1.9 q -0.95,1.2 -2.1,1.6 l -2.9,0.3 q -3.35,-0.2 -4.4,-1.6 -0.65,-0.85 -0.85,-2.3 -0.15,-0.9 0.05,-1.65 l 0.2,-0.45 0.1,0.35 q 0.65,1.4 2.3,2.15 L 2.65,27.8 Q 4,27.6 4.6,27.1 l 1.15,-1.65 0.7,-2.3"
         fill="#ffffff"
         fill-rule="evenodd"
         stroke="none"
         id="path2" />
      <path
         d="m -7.5,-32.55 1.45,-0.45 8.4,-0.4 q 4.1,0.75 7.75,3.3 3.45,2.4 5.95,6 1.85,2.8 2.45,5.3 1.1,4.5 -1.15,9.35 L 17,-9.75 q -0.9,-0.5 -2.45,0 l -1,0.4 0.7,-2.55 0.55,-1.9 q 0.4,-2.1 -0.15,-4.15 -0.15,-2.65 -0.95,-4.4 -1.7,-3.7 -7.5,-6.45 -5.2,-2.6 -8.9,-2.25 -1.8,0.15 -4.45,1.3 v -0.05 q 0.55,-0.75 0.5,-1.45 -0.05,-0.85 -0.85,-1.3 M 14.75,-5.2 q -1.7,2.1 -4.1,4.25 L 7.4,1.9 Q 5.65,3.45 4.6,4.75 L 5.75,3.2 7.85,0.65 9.1,-0.65 10.5,-1.8 11.6,-3 q 1,-1 3.15,-2.2 M 2.35,9.3 q -0.45,2 0.1,3.8 0.55,1.7 1.7,2.3 l 0.3,0.15 0.15,1.05 q 0.35,0.8 1.35,1.5 l 1.75,1.15 q 2.05,1.6 2.15,4.55 0.05,2.9 -1.7,4.95 -1.65,1.9 -4.4,2.65 l -5.25,0.15 q -2.4,-0.4 -3.85,-1.75 -1.25,-1.1 -1.7,-2.85 l 0.4,-0.5 0.95,-1.7 0.7,-1.9 0.85,-1.6 q 0.4,-0.95 0.25,-1.65 -0.05,-0.5 -0.35,-0.85 l 1.2,-1.1 1.45,-1.1 q 0.8,-0.7 1.15,-1.4 0.4,-0.8 0.4,-2.1 L -0.15,10.8 V 10.75 L 0.4,10.8 q 0.65,0.05 1.1,-0.3 L 2.35,9.3 m 4.1,13.85 V 22.7 q 0,-1.95 -1.7,-3.3 -1.25,-0.95 -2.85,-1.1 -1.65,-0.1 -3,0.7 -1.1,0.6 -1.55,1.55 l -0.45,2 q -0.1,1.5 0.2,2.4 l -0.2,0.45 q -0.2,0.75 -0.05,1.65 0.2,1.45 0.85,2.3 1.05,1.4 4.4,1.6 L 5,30.65 q 1.15,-0.4 2.1,-1.6 l 1.3,-1.9 Q 9,26.05 9,25.05 9,23.75 7.95,23.2 l -1.5,-0.05 m -21.9,-47.3 -0.5,0.6 q -1.55,2.25 -2.15,7.25 -0.3,2.65 0.4,3.9 1.1,1.9 3.75,1.9 h 0.5 l -1.75,4.25 q -2.15,-1.25 -3.65,-3.1 -2.8,-3.3 -2.95,-7.15 -0.2,-3.75 2.2,-7.4 2.15,-3.2 5.75,-5.6 l 1.2,-0.7 q -1.45,2.15 -2.8,6.05"
         fill="#bdbdbd"
         fill-rule="evenodd"
         stroke="none"
         id="path3" />
    </g>
    <g
       id="sprite1"
       transform="translate(17.4,15.85)">
      <use
         ffdec:characterId="31"
         height="57.200001"
         transform="matrix(0.5366,0,0,0.5366,-16.6582,-14.546)"
         width="70.75"
         xlink:href="#sprite2"
         id="use3" />
    </g>
    <g
       id="sprite2"
       transform="translate(-8.65,-10.35)">
      <use
         ffdec:characterId="30"
         height="57.200001"
         transform="translate(8.65,10.35)"
         width="70.75"
         xlink:href="#shape1"
         id="use4" />
    </g>
    <g
       id="shape1"
       transform="translate(-8.65,-10.35)">
      <path
         d="m 14.8,41.7 q 0.65,-1.75 2.65,-2.5 1.8,-0.8 3.7,-0.25 1.15,0.45 2.25,1.2 l 0.9,0.4 q 1.65,0.9 2.85,2.5 L 37.8,30.1 q 2.35,-2.8 3.75,-3.95 1.5,-1.15 4.25,-2.4 18.2,-8.85 27.65,-12.6 2.15,-0.8 3.25,-0.8 h 0.8 l 1.9,2.4 -0.2,0.8 q -0.2,1.1 -1.55,3 -5.85,8.25 -18.85,23.8 -1.85,2.35 -3.35,3.5 -1.4,1.15 -4.75,2.75 l -15.15,7.15 q 1.2,1.6 1.75,3.4 l 0.2,1 0.55,2.5 q 0.1,1.95 -1.1,3.55 -1.2,1.65 -3.05,1.9 l -1.3,0.05 q -1.65,0.2 -3.45,-0.65 -1.85,-0.9 -3,-2.6 L 25,60.95 23.8,62.1 q -2.6,2.85 -4.3,3.95 -2.85,1.8 -5.5,1.45 l -1.65,-0.5 -1.2,-0.7 -0.2,-0.2 q -1,-0.85 -1.6,-1.9 L 9.25,64 9.15,63.8 8.75,62.4 q -0.2,-0.8 -0.05,-1.7 0.25,-2.65 2.7,-5.05 1.5,-1.3 4.9,-3.15 L 17.7,51.55 16.05,50 q -1.35,-1.5 -1.8,-3.6 -0.4,-1.85 0.25,-3.45 l 0.3,-1.25"
         fill="#000000"
         fill-opacity="0.372549"
         fill-rule="evenodd"
         stroke="none"
         id="path4" />
    </g>
  </defs>
</svg>
