<?xml version="1.0" encoding="UTF-8" standalone="no"?>
<svg
   ffdec:objectType="frame"
   height="80.949997"
   width="93.026039"
   version="1.1"
   id="svg4"
   sodipodi:docname="ITEM Fly Hat.svg"
   xmlns:inkscape="http://www.inkscape.org/namespaces/inkscape"
   xmlns:sodipodi="http://sodipodi.sourceforge.net/DTD/sodipodi-0.dtd"
   xmlns:xlink="http://www.w3.org/1999/xlink"
   xmlns="http://www.w3.org/2000/svg"
   xmlns:svg="http://www.w3.org/2000/svg"
   xmlns:ffdec="https://www.free-decompiler.com/flash">
  <sodipodi:namedview
     id="namedview4"
     pagecolor="#ffffff"
     bordercolor="#000000"
     borderopacity="0.25"
     inkscape:showpageshadow="2"
     inkscape:pageopacity="0.0"
     inkscape:pagecheckerboard="0"
     inkscape:deskcolor="#d1d1d1"
     fit-margin-top="5"
     fit-margin-left="5"
     fit-margin-right="5"
     fit-margin-bottom="5" />
  <g
     transform="translate(48.25,45.3)"
     id="g1">
    <use
       ffdec:characterId="17"
       height="119.15"
       id="rarity"
       transform="translate(-58.5,-60.65)"
       width="119.15"
       xlink:href="#sprite0" />
    <use
       ffdec:characterId="1199"
       height="81.050003"
       transform="translate(-48.3,-45.3)"
       width="93.099998"
       xlink:href="#shape0"
       id="use1" />
  </g>
  <defs
     id="defs4">
    <g
       id="shape0"
       transform="translate(47,43.4)">
      <path
         d="m 17.3,22.1 q -0.65,-0.5 -1.2,-1.15 l -2.45,-3.2 Q 11.9,19.2 9,19.35 6.3,19.45 3.75,20.1 l -0.5,0.05 -1.35,3.2 q -1,4.15 -5.05,1.85 l -5.7,-3.4 q -1.45,1.05 -3.15,1.5 -1.45,3.6 -4.1,6.35 l -1.1,0.65 q -9.9,3.15 -19.4,7.25 L -37.65,37.4 Q -39.2,36.35 -39.75,34.55 -44.6,28.9 -46.9,22.2 l -0.05,-1.05 q 0.75,-2.7 2.35,-5.1 l 5.55,-9.9 1.2,-1.55 q -0.85,-3.05 -1.3,-6.15 l 0.1,-1.6 q 2.2,-7.7 9.4,-11.4 l 1.95,-0.85 -0.3,-0.9 q -1.5,-3.45 1.05,-5.55 l 0.55,-0.4 -0.2,-0.3 q -1.9,-3.35 -3.4,-6.9 -5.4,3.6 -10.45,7.85 l -0.2,0.15 q 0.05,8.1 -0.4,16.15 0,0.8 -0.75,1.2 -3.1,1.8 -4.3,-1.45 -0.4,-1.2 -0.45,-2.5 -0.3,-7.15 0.25,-14.2 0.3,-3.5 3.7,-5.3 l 0.65,-0.45 q 5.85,-5.1 12.65,-8.2 2.25,-0.15 3.4,1.75 l 0.45,1.35 q 2.25,3.95 3.3,8.2 l 1.3,-0.55 q 2.35,1.05 4.05,3.1 0.5,-0.45 1.2,-0.7 12.5,-4.4 25.65,-6.05 1.85,0.3 3.45,1.25 v -0.1 l 0.7,-1.15 q 0.75,-1.45 2.2,-2.05 l 0.4,-0.1 h 0.6 l 0.1,-0.5 1.05,-3.5 q 0.95,-3.35 2.45,-6.25 0.25,-0.5 0.85,-0.55 l 17.4,-1.35 q 3.5,1.25 4.3,5.15 l 0.6,2.55 q 2.15,7.25 1.9,14.65 0,0.7 -0.6,1.05 -3,1.9 -4.4,-1.25 -0.7,-1.5 -0.85,-3.15 -0.4,-5 -1.65,-9.8 l -0.45,-0.95 -0.7,-1.85 -13.1,0.6 -0.65,1.6 -0.85,2 q -0.45,1.65 -1.25,3.05 l 1.6,2.05 q 0.65,1.15 -0.2,2.2 v 0.2 l -0.05,0.15 V -25 l -0.15,0.35 -0.25,0.45 -0.2,0.85 -0.15,0.8 q 5.95,0.25 7.9,5.85 0.45,1.35 1.25,2.55 2.7,4.25 3.85,8.9 0.25,1 -0.65,1.65 l -1.1,0.75 q 4.35,7.4 7.35,15.5 0.7,1.9 -0.05,3.65 Q 38,22.35 34.55,27.8 34.1,28.45 33.3,28.25 31.25,27.65 29.35,26.6 25,24.2 21.3,21.05 q -1.05,3.1 -4,1.05 m -37.95,-43.5 q -1.6,0.45 -3.15,1.65 l -0.55,0.5 0.1,0.35 0.15,0.5 0.05,0.3 0.25,0.35 0.2,0.35 v 0.15 l 0.05,0.3 0.3,0.35 1.75,0.15 2.7,-3.4 -0.75,-0.75 -0.95,-0.85 -0.15,0.05 m 4.6,7.55 q 1.05,0.95 1.95,2.3 l 1.6,2.65 q 1.75,-1 3.75,-1.45 13.4,-3 27.1,-3.9 -0.15,-1.1 0.25,-2.2 l 0.05,-0.35 -5,-4.5 -3.3,-2.85 q -8.25,1.05 -16.15,3.1 l -10,3 -0.1,0.2 -0.1,0.15 -0.2,0.3 -0.15,0.2 -0.3,1.15 q -0.15,0.7 -0.45,1.3 l 1.05,0.9 m -0.3,21.4 -0.55,1.45 -0.25,0.8 6.9,5.05 q 4,2.65 8.35,4.8 L 1.6,12.5 Q 4,8 8,5.15 L 9.45,5.1 q 2.4,1.5 4,3.85 2.4,3.6 5.25,6.9 1.5,-1.75 2.45,-3.85 l 1.9,-4 q 1.2,-2.55 2.65,-4.95 l -0.6,-1.3 -0.95,-2 L 23.2,-2.2 23,-2.85 22.3,-4.3 21.15,-6.8 q -0.4,-1.05 -1.2,-1.9 -0.3,-0.25 -0.35,-0.65 -0.55,-0.75 -1.75,-0.2 L 6.4,-8.5 l -2.25,0.2 -9.8,2.25 -4.45,1.3 -1.5,2.95 -2.15,3.55 -1.75,3.45 -0.2,0.35 -0.4,1.15 -0.15,0.5 -0.1,0.35 m 33.65,-33.4 -0.3,0.95 2.35,2.35 0.4,-2.7 0.15,-0.5 v -0.2 -0.15 l 0.05,-0.15 V -26.4 L 19.6,-26.75 19.2,-27 19,-27.1 q -0.45,-0.35 -1,-0.3 l -0.05,0.15 -0.05,0.2 -0.05,0.15 -0.15,0.3 -0.35,0.5 -0.05,0.25 m 7.9,10.05 -0.6,-1.4 -1.1,-0.7 -0.45,-0.15 q 0.6,1.5 0.3,3.3 v 0.05 l -0.45,1.4 q 1.35,1.1 2.15,2.9 l 2.2,5.25 0.85,-0.3 q 1.1,-0.25 2,-0.8 l -2.9,-5.5 q -1.15,-2 -2,-4.05 m 4.95,20.35 -0.4,1.15 -0.65,1.35 0.1,0.8 V 8.8 q 1.85,5.35 2.65,10.95 l 0.1,2.1 0.35,0.2 3.1,-5.55 1,-2.3 -0.6,-2.6 Q 35.55,10.8 35.6,9.95 L 34.25,6.8 33.6,5.05 32.2,1.65 31.35,0 31.3,-0.15 v -0.2 l -0.05,-0.15 -0.1,-0.15 -0.1,-0.15 -0.2,-0.75 -1.6,0.6 q 1.25,2.6 0.9,5.5 M 28.8,19.9 28.75,19.95 28.85,20 28.8,19.9 m -68.85,-2.95 -2.3,4.5 q 2.1,4.35 5.2,8.25 l 1.6,2.15 q 8.25,-3.8 16.9,-6.7 l 1.05,-2.35 0.75,-1.4 q 0.4,-2.2 1.6,-3.7 l -6.3,-4.9 q -1.4,-1.2 -0.85,-3.05 l 0.35,-1.15 -7.6,3.75 q -2.9,1.5 -4.85,-0.2 l -0.7,-0.75 -0.7,-1.15 -0.2,-0.5 -0.4,0.6 -3.55,6.6"
         fill="#000000"
         fill-rule="evenodd"
         stroke="none"
         id="path1" />
      <path
         d="m -23.6,-17.4 -0.2,-0.35 -0.25,-0.35 -0.05,-0.3 -0.15,-0.5 -0.1,-0.35 0.55,-0.5 q 1.55,-1.2 3.15,-1.65 v 0.05 0.15 l -2.65,3.5 -0.3,0.3 m 17.8,-3.65 q -1.45,1.65 -3.65,2.8 -3.55,1.85 -6.6,4.4 l -1.05,-0.9 q 0.3,-0.6 0.45,-1.3 l 0.3,-1.15 0.15,-0.2 0.2,-0.3 0.1,-0.15 0.1,-0.2 10,-3 m 0.15,15 Q -5.6,-5.1 -7,-3.9 -12.15,0.55 -15.6,6.25 l -0.25,0.65 -0.5,0.65 0.1,-0.35 0.15,-0.5 0.4,-1.15 0.2,-0.35 1.75,-3.45 2.15,-3.55 1.5,-2.95 4.45,-1.3 M 19.2,-27 q -0.1,0.55 -0.7,1.1 -0.45,0.4 -1.1,0.15 l -0.1,-0.1 0.05,-0.25 0.35,-0.5 0.15,-0.3 0.05,-0.15 0.05,-0.2 0.05,-0.15 q 0.55,-0.05 1,0.3 l 0.2,0.1 m 4.15,12.3 v -0.05 q 0.3,-1.8 -0.3,-3.3 l 0.45,0.15 1.1,0.7 0.6,1.4 -0.1,0.05 -1,0.95 -0.55,0.1 h -0.2 m -57.85,26.85 -3.3,3.75 -1.5,1.2 h -0.25 l -0.35,-0.1 -0.15,-0.05 3.55,-6.6 0.4,-0.6 0.2,0.5 0.7,1.15 0.7,0.75"
         fill="#ffffff"
         fill-rule="evenodd"
         stroke="none"
         id="path2" />
      <path
         d="m -23.6,-17.4 0.3,-0.3 2.65,-3.5 v -0.15 -0.05 l 0.15,-0.05 0.95,0.85 0.75,0.75 -2.7,3.4 -1.75,-0.15 -0.3,-0.35 -0.05,-0.3 v -0.15 m 7.55,3.55 q 3.05,-2.55 6.6,-4.4 2.2,-1.15 3.65,-2.8 7.9,-2.05 16.15,-3.1 l 3.3,2.85 5,4.5 -0.05,0.35 q -0.4,1.1 -0.25,2.2 -13.7,0.9 -27.1,3.9 -2,0.45 -3.75,1.45 l -1.6,-2.65 q -0.9,-1.35 -1.95,-2.3 m -0.3,21.4 0.5,-0.65 0.25,-0.65 q 3.45,-5.7 8.6,-10.15 1.4,-1.2 1.35,-2.15 L 4.15,-8.3 6.4,-8.5 17.85,-9.55 q 1.2,-0.55 1.75,0.2 0.05,0.4 0.35,0.65 0.8,0.85 1.2,1.9 l 1.15,2.5 0.7,1.45 0.2,0.65 0.95,1.95 0.95,2 0.6,1.3 Q 24.25,5.45 23.05,8 l -1.9,4 Q 20.2,14.1 18.7,15.85 15.85,12.55 13.45,8.95 11.85,6.6 9.45,5.1 L 8,5.15 Q 4,8 1.6,12.5 l -3.5,7.15 q -4.35,-2.15 -8.35,-4.8 L -17.15,9.8 -16.9,9 -16.35,7.55 m 33.65,-33.4 0.1,0.1 q 0.65,0.25 1.1,-0.15 0.6,-0.55 0.7,-1.1 l 0.4,0.25 0.35,0.35 v 0.15 l -0.05,0.15 v 0.15 0.2 l -0.15,0.5 -0.4,2.7 -2.35,-2.35 0.3,-0.95 m 6.05,11.15 h 0.2 l 0.55,-0.1 1,-0.95 0.1,-0.05 q 0.85,2.05 2,4.05 l 2.9,5.5 q -0.9,0.55 -2,0.8 l -0.85,0.3 -2.2,-5.25 q -0.8,-1.8 -2.15,-2.9 l 0.45,-1.4 m 6.8,19.25 q 0.35,-2.9 -0.9,-5.5 l 1.6,-0.6 0.2,0.75 0.1,0.15 0.1,0.15 0.05,0.15 v 0.2 l 0.05,0.15 0.85,1.65 1.4,3.4 0.65,1.75 1.35,3.15 q -0.05,0.85 0.2,1.65 l 0.6,2.6 -1,2.3 -3.1,5.55 -0.35,-0.2 -0.1,-2.1 Q 31.05,14.15 29.2,8.8 V 7.85 l -0.1,-0.8 0.65,-1.35 0.4,-1.15 m -64.65,7.6 q 1.95,1.7 4.85,0.2 l 7.6,-3.75 -0.35,1.15 q -0.55,1.85 0.85,3.05 l 6.3,4.9 q -1.2,1.5 -1.6,3.7 l -0.75,1.4 -1.05,2.35 q -8.65,2.9 -16.9,6.7 l -1.6,-2.15 q -3.1,-3.9 -5.2,-8.25 l 2.3,-4.5 0.15,0.05 0.35,0.1 h 0.25 l 1.5,-1.2 3.3,-3.75"
         fill="#212121"
         fill-rule="evenodd"
         stroke="none"
         id="path3" />
    </g>
    <g
       id="sprite1"
       transform="translate(17.4,15.85)">
      <use
         ffdec:characterId="31"
         height="57.200001"
         transform="matrix(0.5366,0,0,0.5366,-16.6582,-14.546)"
         width="70.75"
         xlink:href="#sprite2"
         id="use3" />
    </g>
    <g
       id="sprite2"
       transform="translate(-8.65,-10.35)">
      <use
         ffdec:characterId="30"
         height="57.200001"
         transform="translate(8.65,10.35)"
         width="70.75"
         xlink:href="#shape1"
         id="use4" />
    </g>
    <g
       id="shape1"
       transform="translate(-8.65,-10.35)">
      <path
         d="m 14.8,41.7 q 0.65,-1.75 2.65,-2.5 1.8,-0.8 3.7,-0.25 1.15,0.45 2.25,1.2 l 0.9,0.4 q 1.65,0.9 2.85,2.5 L 37.8,30.1 q 2.35,-2.8 3.75,-3.95 1.5,-1.15 4.25,-2.4 18.2,-8.85 27.65,-12.6 2.15,-0.8 3.25,-0.8 h 0.8 l 1.9,2.4 -0.2,0.8 q -0.2,1.1 -1.55,3 -5.85,8.25 -18.85,23.8 -1.85,2.35 -3.35,3.5 -1.4,1.15 -4.75,2.75 l -15.15,7.15 q 1.2,1.6 1.75,3.4 l 0.2,1 0.55,2.5 q 0.1,1.95 -1.1,3.55 -1.2,1.65 -3.05,1.9 l -1.3,0.05 q -1.65,0.2 -3.45,-0.65 -1.85,-0.9 -3,-2.6 L 25,60.95 23.8,62.1 q -2.6,2.85 -4.3,3.95 -2.85,1.8 -5.5,1.45 l -1.65,-0.5 -1.2,-0.7 -0.2,-0.2 q -1,-0.85 -1.6,-1.9 L 9.25,64 9.15,63.8 8.75,62.4 q -0.2,-0.8 -0.05,-1.7 0.25,-2.65 2.7,-5.05 1.5,-1.3 4.9,-3.15 L 17.7,51.55 16.05,50 q -1.35,-1.5 -1.8,-3.6 -0.4,-1.85 0.25,-3.45 l 0.3,-1.25"
         fill="#000000"
         fill-opacity="0.372549"
         fill-rule="evenodd"
         stroke="none"
         id="path4" />
    </g>
  </defs>
</svg>
