<?xml version="1.0" encoding="UTF-8" standalone="no"?>
<svg
   ffdec:objectType="frame"
   height="84.369453"
   width="75.70208"
   version="1.1"
   id="svg4"
   xmlns:xlink="http://www.w3.org/1999/xlink"
   xmlns="http://www.w3.org/2000/svg"
   xmlns:svg="http://www.w3.org/2000/svg"
   xmlns:ffdec="https://www.free-decompiler.com/flash">
  <g
     transform="translate(37.95,43.711765)"
     id="g1">
    <use
       ffdec:characterId="17"
       height="119.15"
       id="rarity"
       transform="translate(-58.5,-60.65)"
       width="119.15"
       xlink:href="#sprite0" />
    <use
       ffdec:characterId="1127"
       height="84.349998"
       transform="translate(-38,-43.7)"
       width="75.75"
       xlink:href="#shape0"
       id="use1" />
  </g>
  <defs
     id="defs4">
    <g
       id="shape0"
       transform="translate(84.8,45.05)">
      <path
         d="m -16.55,-28.3 q 0.75,1.4 1.45,3.45 2.8,9.05 0,17 l -0.1,0.3 0.55,-0.15 1.85,-0.2 q 0.9,0.15 1.55,0.95 0.6,0.7 0.8,1.65 0.2,1.05 -0.25,3.7 -1,5.5 -0.95,9.95 l 0.75,8.05 0.4,2.3 1.1,3.3 q 0.65,1.95 0.1,3.4 -0.25,0.85 -0.95,1.45 -0.75,0.6 -1.6,0.55 -1.4,-0.05 -2.25,-1.45 -0.5,-0.8 -1,-2.6 l -0.95,-3.95 -0.45,-2.55 -0.3,-2.65 q -0.75,-8.65 1.1,-16.85 -0.85,-0.2 -2.25,0.6 l -0.3,0.2 -1.2,1.45 q -3.05,3.35 -6.95,5 -2.8,1.2 -6.25,1.55 l -0.05,0.5 0.6,0.05 7.1,0.5 2.6,0.45 q 1.4,0.4 2.1,1.55 0.3,0.55 0.5,1.8 l 1.2,6.6 q 0.55,3.25 1.45,5.15 l 0.95,1.7 q 1.4,2.95 0.6,6.2 -0.15,0.75 -0.6,1.25 -0.45,0.55 -1.05,0.5 -0.75,0 -1.15,-0.85 l -0.4,-1.45 q -0.1,-0.85 -0.6,-2.2 l -1.95,-3.7 -1.35,-3.35 -0.55,-2.2 -0.6,-4.3 q -0.1,-1.05 -0.45,-1.4 -0.35,-0.4 -1.45,-0.5 l -6,-0.2 0.1,0.1 2.1,1.9 q 0.45,0.55 1,1.8 l 1,1.8 1.6,1.9 q 1,1.1 1.25,2 0.3,0.85 0.1,2.3 -0.1,0.75 -0.35,1.3 -0.35,0.75 -1.2,1.35 -1.25,0.9 -3.6,1.9 -2.85,1.15 -3.75,1.65 l -2.1,1.2 -2.35,0.3 q -1.4,-0.35 -1.55,-1.6 -0.1,-1.2 1.55,-2.45 3.55,-2.75 7.75,-4.5 l -2.6,-3.9 -1.55,-2.05 -1.5,-1.25 -0.35,-0.25 q -1.6,2.2 -4,3.95 -3.45,2.55 -7.75,3.5 l -8.65,0.45 q 0.8,1.55 2.1,2.75 l 2.4,2 q 1.35,1.35 1.7,2.6 0.5,1.75 -0.65,2.9 -0.55,0.55 -1.4,0.55 -0.9,0 -1.4,-0.6 l -0.6,-1 -1.05,-0.95 -3.8,-3.05 -1.25,-1.7 -1.35,-1.7 q -0.65,-1.1 -0.5,-2.9 l -2.4,-0.7 -3.4,-1.25 -2.3,1.5 -1.3,1.1 q -0.4,0.55 -0.6,2.1 l -0.9,3.65 q -0.6,2.05 -1.3,3.45 l -1.4,2.3 -3,3.65 q -1.15,0.9 -2.15,0.95 -1.45,0.1 -1.95,-1.1 -0.3,-0.85 0.3,-1.8 l 1.2,-1.4 q 2.45,-2.75 4.2,-8.75 0.6,-2.2 0.6,-3.3 v -1.8 q 0.2,-1.25 1.5,-2.3 l 1.65,-1.1 -2.8,-2 -2.4,-2.2 -0.25,3.05 q -0.4,4.85 -1.2,8.45 -0.3,1.5 -0.8,2.25 -0.85,1.2 -2,1.15 -1.25,-0.1 -1.65,-1.25 l 0.15,-2.05 0.4,-3.7 q 0.5,-8.05 0.6,-15.65 l -0.05,-0.15 q -1,-3.05 0.05,-5.05 l -0.1,-4.25 q 0,-2.1 -0.3,-3.5 l -0.55,-2.4 q -0.1,-1.5 0.6,-2.25 1.05,-1.2 3,-0.55 0.9,0.3 2.6,1.8 l 3.6,3.65 3.1,-1.85 q 5.25,-2.85 10.2,-3.6 -0.25,-2.95 0.25,-5.95 0.4,-2.5 1.25,-4.75 -0.45,-4.65 -0.25,-7.05 0.1,-1.7 0.8,-4.9 l 0.6,-2.25 0.95,-3.25 1,-2.1 1.3,-1.65 q 1.1,-0.75 2.55,-0.4 1.15,0.25 1.9,1 l 1.3,1.65 1.1,1.8 q 0.9,1.25 2.7,2.4 l 1.2,0.85 0.45,-0.15 q 5.45,-1.3 12.3,-0.05 L -32,-37.3 q 0.65,-0.9 1.6,-2.85 l 1.15,-2.3 1.1,-1.45 1.3,-0.95 q 1.4,-0.6 2.85,0.5 1,0.75 1.9,2.4 1.25,2.15 3.05,6.85 l 0.45,1.45 0.7,3.05 0.1,0.45 1.25,1.85 m -35.75,-4.95 2.3,-1.5 -3.05,-2.8 -1.55,5.15 -0.25,1.4 2.55,-2.25 m 26.6,3.55 q -1.7,-0.8 -4.45,-1.25 l -8.75,-0.85 -5.35,0.35 q -3.8,0.85 -6.8,4.05 -2.75,2.9 -4.1,6.95 -1.2,3.65 -0.95,7.2 0.3,3.85 2.3,6.7 2.7,3.8 8.65,5.85 4.85,1.7 9.9,1.6 4.2,0 6.95,-1.35 1.7,-0.8 3.9,-2.65 2.3,-2 3.05,-3.1 1,-1.5 1.8,-4.75 1.3,-6.05 0.2,-10.55 -0.7,-2.7 -2.3,-4.8 -1.7,-2.25 -4.05,-3.4 m -5.9,15.45 0.5,1.25 0.45,1.6 0.35,1.75 0.05,1.5 0.25,1.2 q 0,0.45 -0.3,1.15 l -0.5,0.75 -0.75,0.95 q -0.7,0.6 -2.45,0.5 l -0.2,-0.05 -1.65,-0.3 -6.55,-0.05 -1.4,-0.15 q -0.8,-0.15 -1.15,-0.75 -0.3,-0.45 -0.3,-1.7 l 0.2,-1.6 0.45,-1.1 0.65,-2.25 0.6,-1.6 1.35,-1.8 1.6,-1.65 q 1.2,-0.9 2.35,-1.2 l 1.6,-0.15 1.55,0.25 1.1,0.8 0.9,1.1 1.3,1.55 m -28.05,8.95 -0.95,-2.5 q -5.95,1.95 -11,5.35 l 2.25,2.8 q 2.4,2.85 3.45,4.55 1.35,2 1,3.55 -0.25,1.3 -1.55,1.9 l -2.45,0.05 -1.35,-1.2 -1,-1.55 -4.9,-6.6 -1.95,1.8 q 0.95,4.15 4.7,7.35 1.95,1.7 5.1,3.35 l 1.15,-1.2 q 0.8,-0.7 1.6,-0.9 1.25,-0.35 2.25,0.45 1.1,0.75 1,2.05 -0.05,0.8 -0.75,1.9 l 2.2,0.75 2,-5.35 -0.55,-0.75 q -2.05,-2.9 -1.95,-6.4 l 0.25,-2.3 0.95,-2.75 1.55,-2.45 -1.05,-1.9 m 34.3,-33.05 -0.75,1.35 -0.55,1.25 2.65,1.05 -1.35,-3.65 m -7.8,30.3 -0.3,-1.7 -0.35,-1.05 -0.5,-1.35 -0.8,1.35 -0.95,1.95 -0.15,0.8 h 3.05 m -6.65,-3.6 q -0.8,1.45 -1.3,3.6 h 2.3 l -0.3,-2.2 q 0,-0.8 -0.15,-1.2 l -0.35,-0.5 -0.2,0.3 m -0.25,17.7 Q -46.7,5.4 -51.4,2.9 q -2.35,-1.2 -4.1,-2.75 -0.5,1 -0.55,2.8 l 0.15,1.7 0.3,1 0.7,-0.25 q 1.35,-0.35 2.35,0.5 1.05,0.8 0.95,2.2 l -0.55,1.45 1.55,0.85 2.05,0.65 3.05,0.45 2.9,-0.85 2.55,-1.15 q 1.35,-0.9 1.7,-2.1 l 0.2,-1.15 -1.9,-0.2 m -14.5,8.8 -0.1,-0.05 -1.05,2.9 q 2.7,0.35 5.15,0.05 1.8,-0.2 3.4,-0.8 -4.05,-0.15 -7.4,-2.1"
         fill="#000000"
         fill-rule="evenodd"
         stroke="none"
         id="path1" />
      <path
         d="m -40.55,-27 q 0.85,0 1.6,0.55 0.75,0.5 1.05,1.35 0.3,0.8 0.1,1.65 -0.2,0.9 -0.85,1.5 -0.9,0.75 -1.95,0.75 -1.05,0 -1.9,-0.75 -0.85,-0.75 -1,-1.75 -0.15,-1.35 0.7,-2.35 0.85,-0.95 2.25,-0.95 m -3.7,6.95 q 0.85,1.05 1,2.65 0.1,1.6 -0.55,2.7 -0.95,1.65 -2.85,2.05 l -3.55,-0.2 q -1.45,-0.45 -2.05,-1.4 -0.65,-0.9 -0.55,-2.45 0,-1.5 0.4,-2.3 0.5,-1.2 1.75,-1.9 1.15,-0.65 2.55,-0.7 2.45,-0.1 3.85,1.55 m 16.1,-5.35 q 1,0.1 1.8,0.9 0.75,0.8 0.9,1.8 0.1,1.05 -0.5,2 -0.55,0.9 -1.55,1.25 -1,0.35 -2,0 -1.05,-0.35 -1.6,-1.2 -0.55,-0.85 -0.45,-1.95 0.1,-1.15 0.8,-1.85 1.05,-1.1 2.6,-0.95 m 1.35,6.55 2.2,-0.35 q 1.85,0.1 2.65,0.8 0.45,0.4 0.95,1.5 0.45,1.1 0.45,1.8 0,0.75 -0.55,1.75 -0.75,1.35 -1.65,1.75 l -2.4,0.2 q -2.65,-0.45 -3.45,-2.2 -0.4,-0.7 -0.3,-1.85 0.2,-2.5 2.1,-3.4 m -13,7.2 0.2,-0.3 0.35,0.5 q 0.15,0.4 0.15,1.2 l 0.3,2.2 h -2.3 q 0.5,-2.15 1.3,-3.6 m 6.65,3.6 h -3.05 l 0.15,-0.8 0.95,-1.95 0.8,-1.35 0.5,1.35 0.35,1.05 0.3,1.7"
         fill="#dddddd"
         fill-rule="evenodd"
         stroke="none"
         id="path2" />
      <path
         d="m -52.3,-33.25 -2.55,2.25 0.25,-1.4 1.55,-5.15 3.05,2.8 -2.3,1.5 m 11.75,6.25 q -1.4,0 -2.25,0.95 -0.85,1 -0.7,2.35 0.15,1 1,1.75 0.85,0.75 1.9,0.75 1.05,0 1.95,-0.75 0.65,-0.6 0.85,-1.5 0.2,-0.85 -0.1,-1.65 -0.3,-0.85 -1.05,-1.35 -0.75,-0.55 -1.6,-0.55 m 14.85,-2.7 q 2.35,1.15 4.05,3.4 1.6,2.1 2.3,4.8 1.1,4.5 -0.2,10.55 -0.8,3.25 -1.8,4.75 -0.75,1.1 -3.05,3.1 -2.2,1.85 -3.9,2.65 -2.75,1.35 -6.95,1.35 -5.05,0.1 -9.9,-1.6 -5.95,-2.05 -8.65,-5.85 -2,-2.85 -2.3,-6.7 -0.25,-3.55 0.95,-7.2 1.35,-4.05 4.1,-6.95 3,-3.2 6.8,-4.05 l 5.35,-0.35 8.75,0.85 q 2.75,0.45 4.45,1.25 m -18.55,9.65 q -1.4,-1.65 -3.85,-1.55 -1.4,0.05 -2.55,0.7 -1.25,0.7 -1.75,1.9 -0.4,0.8 -0.4,2.3 -0.1,1.55 0.55,2.45 0.6,0.95 2.05,1.4 l 3.55,0.2 q 1.9,-0.4 2.85,-2.05 0.65,-1.1 0.55,-2.7 -0.15,-1.6 -1,-2.65 m 18.9,-18.3 1.35,3.65 -2.65,-1.05 0.55,-1.25 0.75,-1.35 m -34.3,33.05 1.05,1.9 -1.55,2.45 -0.95,2.75 -0.25,2.3 q -0.1,3.5 1.95,6.4 l 0.55,0.75 -2,5.35 -2.2,-0.75 q 0.7,-1.1 0.75,-1.9 0.1,-1.3 -1,-2.05 -1,-0.8 -2.25,-0.45 -0.8,0.2 -1.6,0.9 l -1.15,1.2 Q -71.45,11.9 -73.4,10.2 -77.15,7 -78.1,2.85 l 1.95,-1.8 4.9,6.6 1,1.55 1.35,1.2 2.45,-0.05 q 1.3,-0.6 1.55,-1.9 0.35,-1.55 -1,-3.55 -1.05,-1.7 -3.45,-4.55 l -2.25,-2.8 q 5.05,-3.4 11,-5.35 l 0.95,2.5 m 28.05,-8.95 -1.3,-1.55 -0.9,-1.1 -1.1,-0.8 -1.55,-0.25 -1.6,0.15 q -1.15,0.3 -2.35,1.2 l -1.6,1.65 -1.35,1.8 -0.6,1.6 -0.65,2.25 -0.45,1.1 -0.2,1.6 q 0,1.25 0.3,1.7 0.35,0.6 1.15,0.75 l 1.4,0.15 6.55,0.05 1.65,0.3 0.2,0.05 q 1.75,0.1 2.45,-0.5 l 0.75,-0.95 0.5,-0.75 q 0.3,-0.7 0.3,-1.15 l -0.25,-1.2 -0.05,-1.5 -0.35,-1.75 -0.45,-1.6 -0.5,-1.25 m 4.8,-4.6 q -1.9,0.9 -2.1,3.4 -0.1,1.15 0.3,1.85 0.8,1.75 3.45,2.2 l 2.4,-0.2 q 0.9,-0.4 1.65,-1.75 0.55,-1 0.55,-1.75 0,-0.7 -0.45,-1.8 -0.5,-1.1 -0.95,-1.5 -0.8,-0.7 -2.65,-0.8 l -2.2,0.35 m -1.35,-6.55 q -1.55,-0.15 -2.6,0.95 -0.7,0.7 -0.8,1.85 -0.1,1.1 0.45,1.95 0.55,0.85 1.6,1.2 1,0.35 2,0 1,-0.35 1.55,-1.25 0.6,-0.95 0.5,-2 -0.15,-1 -0.9,-1.8 -0.8,-0.8 -1.8,-0.9 m -26.4,40.25 q 3.35,1.95 7.4,2.1 -1.6,0.6 -3.4,0.8 -2.45,0.3 -5.15,-0.05 l 1.05,-2.9 0.1,0.05 m 14.5,-8.8 1.9,0.2 -0.2,1.15 q -0.35,1.2 -1.7,2.1 l -2.55,1.15 -2.9,0.85 -3.05,-0.45 -2.05,-0.65 -1.55,-0.85 0.55,-1.45 q 0.1,-1.4 -0.95,-2.2 -1,-0.85 -2.35,-0.5 l -0.7,0.25 -0.3,-1 -0.15,-1.7 q 0.05,-1.8 0.55,-2.8 1.75,1.55 4.1,2.75 4.7,2.5 11.35,3.15"
         fill="#1a1a1a"
         fill-rule="evenodd"
         stroke="none"
         id="path3" />
    </g>
    <g
       id="sprite1"
       transform="translate(17.4,15.85)">
      <use
         ffdec:characterId="31"
         height="57.200001"
         transform="matrix(0.5366,0,0,0.5366,-16.6582,-14.546)"
         width="70.75"
         xlink:href="#sprite2"
         id="use3" />
    </g>
    <g
       id="sprite2"
       transform="translate(-8.65,-10.35)">
      <use
         ffdec:characterId="30"
         height="57.200001"
         transform="translate(8.65,10.35)"
         width="70.75"
         xlink:href="#shape1"
         id="use4" />
    </g>
    <g
       id="shape1"
       transform="translate(-8.65,-10.35)">
      <path
         d="m 14.8,41.7 q 0.65,-1.75 2.65,-2.5 1.8,-0.8 3.7,-0.25 1.15,0.45 2.25,1.2 l 0.9,0.4 q 1.65,0.9 2.85,2.5 L 37.8,30.1 q 2.35,-2.8 3.75,-3.95 1.5,-1.15 4.25,-2.4 18.2,-8.85 27.65,-12.6 2.15,-0.8 3.25,-0.8 h 0.8 l 1.9,2.4 -0.2,0.8 q -0.2,1.1 -1.55,3 -5.85,8.25 -18.85,23.8 -1.85,2.35 -3.35,3.5 -1.4,1.15 -4.75,2.75 l -15.15,7.15 q 1.2,1.6 1.75,3.4 l 0.2,1 0.55,2.5 q 0.1,1.95 -1.1,3.55 -1.2,1.65 -3.05,1.9 l -1.3,0.05 q -1.65,0.2 -3.45,-0.65 -1.85,-0.9 -3,-2.6 L 25,60.95 23.8,62.1 q -2.6,2.85 -4.3,3.95 -2.85,1.8 -5.5,1.45 l -1.65,-0.5 -1.2,-0.7 -0.2,-0.2 q -1,-0.85 -1.6,-1.9 L 9.25,64 9.15,63.8 8.75,62.4 q -0.2,-0.8 -0.05,-1.7 0.25,-2.65 2.7,-5.05 1.5,-1.3 4.9,-3.15 L 17.7,51.55 16.05,50 q -1.35,-1.5 -1.8,-3.6 -0.4,-1.85 0.25,-3.45 l 0.3,-1.25"
         fill="#000000"
         fill-opacity="0.372549"
         fill-rule="evenodd"
         stroke="none"
         id="path4" />
    </g>
  </defs>
</svg>
