<?xml version="1.0" encoding="UTF-8" standalone="no"?>
<svg
   ffdec:objectType="frame"
   height="69.44651"
   width="71.459045"
   version="1.1"
   id="svg6"
   xmlns:xlink="http://www.w3.org/1999/xlink"
   xmlns="http://www.w3.org/2000/svg"
   xmlns:svg="http://www.w3.org/2000/svg"
   xmlns:ffdec="https://www.free-decompiler.com/flash">
  <g
     transform="translate(43.656542,36.2)"
     id="g1">
    <use
       ffdec:characterId="17"
       height="119.15"
       id="rarity"
       transform="translate(-58.5,-60.65)"
       width="119.15"
       xlink:href="#sprite0" />
    <use
       ffdec:characterId="170"
       height="69.449997"
       transform="translate(-43.65,-36.2)"
       width="71.449997"
       xlink:href="#shape0"
       id="use1" />
  </g>
  <defs
     id="defs6">
    <g
       id="shape0"
       transform="translate(43.35,38.7)">
      <path
         d="m 21.9,-24.1 q 2.8,3.8 2.75,7.3 -0.05,1.6 -1.5,5.8 -1.25,3.6 -0.85,5.75 0.3,1.5 1.9,4.2 l 2.25,4 q 1.1,2.25 1.45,4.25 0.45,2.35 -0.1,4.55 -0.65,2.35 -2.25,3.75 -1.8,1.55 -4.45,1.75 -2.4,0.15 -4.8,-0.85 l -4.2,-2.45 -3.75,-3.1 q -1.4,-1.05 -2.2,-0.8 -0.8,0.25 -1.3,1.5 l -2.35,5.8 -2.7,5.6 q -3.85,6.45 -9.45,7.6 -3.15,0.65 -6.1,-0.85 -3.05,-1.6 -3.8,-4.5 -0.5,-2.05 0.3,-5.4 1.05,-4.35 1.1,-5.5 -3.35,3.3 -5.45,4.85 -3.25,2.4 -6.4,3.15 l -4.55,-0.15 q -2.5,-0.95 -3.5,-3.85 -0.95,-2.75 -0.1,-5.5 0.75,-2.35 2.65,-4.8 l 3.8,-4.05 -7.05,0.2 q -1.75,-0.6 -3,-1.95 -1.3,-1.45 -1.55,-3.15 -0.55,-3.8 4.25,-8.3 7,-6.6 17.05,-12.3 7.45,-4.25 19.1,-9.2 4.5,-2 7.4,-2.35 l 4.15,0.15 0.1,-0.15 1,-1.2 2.35,-2.55 q 1.1,-1.1 1.75,-1.4 l 2.2,-0.45 q 1.4,0 2.15,0.45 l 1.35,1.15 1.7,1.15 1.5,1.6 1.9,2.3 q 1,1.5 0.85,2.85 -0.05,1.55 -1.6,3 l -0.5,0.4 -1.3,0.95 -0.45,0.45 0.25,0.3 m -4.5,3.95 -1.2,-1.45 q -1.9,-2.05 -4.8,-3.65 l -0.1,-0.05 q -2.8,-1.45 -5,-1.45 -1.85,0 -5.15,1.3 -11.8,4.6 -20.05,9.25 -4.7,2.65 -8.7,5.6 l -2.2,1.7 -0.65,0.5 -0.2,0.15 0.9,0.2 0.65,0.2 0.85,0.4 0.2,0.2 q 0.35,0.4 0.45,1.25 0.1,1.05 -0.2,2.05 l -0.05,0.1 -0.1,0.25 -0.05,0.1 h 0.1 l 2.2,-0.5 2.5,-0.2 0.85,0.15 q 0.8,0.2 1.35,0.7 0.85,0.8 0.9,2.2 v 0.05 q 0.05,1.25 -0.6,2.4 l -0.1,0.25 -1.45,1.7 -1.95,1.6 -0.6,0.55 -0.9,0.75 -1.8,1.75 1.2,0.2 1.5,0.35 1.55,0.35 q 0.9,0.4 1.1,1.55 l 0.4,-0.35 0.7,-0.65 2.1,-1.8 0.55,-0.4 0.1,-0.1 2.8,-1.8 q 2.45,-1.05 3.9,-0.4 0.95,0.4 1.5,1.45 l 0.1,0.2 q 0.45,1.15 0.35,2.4 -0.1,1 -0.6,2.25 l -0.35,0.9 -0.1,0.25 -0.15,0.3 -0.1,0.25 -0.25,0.5 -0.35,0.85 -0.5,1.3 -0.6,1.85 q 0.55,-1.25 1.2,-1.65 l 0.25,-0.1 q 0.7,-0.35 2,-0.35 h 0.55 0.9 l 0.45,0.1 0.55,0.2 q 0.35,0.2 0.65,0.5 l 0.25,0.4 0.1,0.5 0.05,0.85 q 0,2.25 -0.3,3.75 l 1.4,-2.2 Q -2.1,14.65 -0.7,9.9 0.05,7.4 0.7,6.45 L 1.65,5.4 1.75,5.35 2.15,5.05 3.55,4.3 7.1,3.95 Q 9.9,4.3 12.75,6.6 l 0.7,0.6 1.3,1.1 0.4,0.35 1.55,1.35 q 2,1.4 3.75,1.25 1.2,-0.1 1.75,-0.8 Q 22.75,9.8 22.55,8.4 L 22.35,7.55 20.9,8.45 20.1,9.2 19.85,10.25 Q 19.6,10.7 19,10.7 L 18,10.35 Q 17.45,10 17.05,9.35 16.6,8.75 16.35,7.75 L 15.85,6 15.8,5.15 Q 15.9,3.65 17.1,2.5 L 17.95,1.95 18.9,1.7 h 0.05 L 18.9,1.65 18.75,1.35 18.3,0.65 q -1.05,-1.8 -1.5,-3.75 -0.35,-1.3 -0.45,-2.7 -0.3,-3.5 0.9,-6.7 l 0.85,-2 0.45,-2.05 q 0.05,-1.8 -1.15,-3.6 m 2.05,-7.4 0.65,-0.75 q 0.3,-0.85 -0.75,-1.9 l -2.7,-2 -0.5,-0.25 q -0.6,-0.05 -1.2,0.85 l -0.6,0.8 q 2.55,1.4 4.75,3.6 l 0.35,-0.35 M 19.2,8.2 21.65,5.85 20.8,4.4 20.45,3.9 20.4,3.85 18.95,3.65 18.4,4.25 17.9,4.85 17.95,5.3 v 0.55 0.1 Q 17.9,6.25 18,6.4 l 0.35,0.4 0.05,0.05 0.3,0.5 0.05,0.4 -0.05,0.2 0.15,0.3 0.25,0.05 0.1,-0.1 m -49.35,-14.5 -1.65,-0.2 -0.8,-0.1 -1.6,1.4 0.55,0.5 1.15,1.1 0.25,0.7 0.2,0.55 1.25,-0.4 0.65,-0.55 q 0.8,-0.8 1,-1.8 0.1,-0.6 -0.1,-0.85 l -0.9,-0.35 m -5.45,2.45 -0.35,0.35 -0.45,0.45 V -3 l -0.5,0.8 q -0.05,0.35 0.25,0.65 l 0.7,0.3 h 0.55 l 0.9,-0.3 0.85,-0.3 -0.05,-0.4 -0.4,-0.65 -0.3,-0.35 -0.5,-0.45 -0.4,-0.4 -0.3,0.25 m 26.4,25.2 0.1,0.05 0.55,0.1 0.7,0.05 Q -7.4,20.9 -7.5,19.95 L -7.6,18.3 q 0,-0.65 -0.2,-0.8 l -0.5,-0.15 -1.2,-0.05 -0.95,0.2 -0.3,0.55 -0.05,0.1 -0.4,0.45 -0.5,1.05 q -0.3,0.65 -0.8,0.8 l 2.05,0.25 0.8,0.25 0.45,0.4 m -3.3,-0.85 q -0.65,-0.2 -0.75,-0.85 l -0.25,1.05 1,-0.2 m 2.8,2.55 -0.3,-0.15 -0.15,-0.05 q -0.3,-0.15 -0.75,-0.35 l -0.4,-0.15 -0.5,-0.15 -1.05,0.05 -0.85,-0.35 -0.05,0.25 q -0.2,1 0.05,1.6 0.5,1.1 2.1,1.2 l 1,-0.05 q 1.55,-0.3 2.95,-1.5 l -0.65,-0.05 -1.4,-0.3 m -18.85,-12.8 -0.5,0.2 -1.1,0.45 -0.3,0.4 -0.6,0.8 q 1.55,0.65 2.35,1.4 l 0.6,0.6 0.65,0.4 0.3,0.05 2.45,-1.9 0.8,-1.55 0.15,-0.55 -2,-0.45 -0.5,-0.1 -1.25,-0.1 -1.05,0.35 m -3.85,4.45 q -0.3,1.35 0.5,2.1 1.35,-0.3 2.85,-1.05 l -0.15,-0.05 -0.35,-0.25 -0.2,-0.25 -0.5,-0.65 -1.6,-1 -0.1,-0.05 -0.45,1.2"
         fill="#000000"
         fill-rule="evenodd"
         stroke="none"
         id="path1" />
      <path
         d="m -29.8,-8.9 2.2,-1.7 q 4,-2.95 8.7,-5.6 8.25,-4.65 20.05,-9.25 3.3,-1.3 5.15,-1.3 2.2,0 5,1.45 l 0.1,0.05 q 2.9,1.6 4.8,3.65 l 1.2,1.45 0.3,2.3 q 0.1,2.75 -0.9,5.15 l -1.05,2.5 q 0.55,1 0.25,3.05 l -0.25,2 0.5,1.2 0.55,0.85 q 0.45,1.95 1.5,3.75 l 0.45,0.7 0.15,0.3 V 1.7 L 17.95,1.95 17.1,2.5 Q 15.9,3.65 15.8,5.15 L 15.85,6 15.75,6.2 15.15,8.5 V 8.65 L 14.75,8.3 13.45,7.2 12.75,6.6 Q 9.9,4.3 7.1,3.95 L 3.55,4.3 2.15,5.05 1.75,5.35 1.65,5.4 1.4,5.35 1.1,5.3 q -0.9,0 -1.45,1.6 l -0.3,0.7 q -1,2.4 -2.45,4.45 l -1.05,3.15 -0.55,1.2 q -0.45,0.45 -1.05,0.55 l -0.1,-0.5 -0.25,-0.4 q -0.3,-0.3 -0.65,-0.5 l -0.55,-0.2 -0.45,-0.1 h -0.9 -0.55 q -1.3,0 -2,0.35 l -0.25,0.1 q -0.65,0.4 -1.2,1.65 l 0.6,-1.85 0.5,-1.3 0.35,-0.85 0.25,-0.5 0.1,-0.25 0.15,-0.3 0.1,-0.25 0.35,-0.9 Q -9.75,9.9 -9.65,8.9 -9.55,7.65 -10,6.5 L -10.1,6.3 Q -9.2,3.35 -9.55,1.6 L -9.8,0.95 Q -10.15,0.6 -10.9,0.6 -13,0.8 -14.75,2.75 l -2.8,3.55 -0.75,0.75 -0.1,0.1 -0.55,0.4 q -1.1,0.8 -2.25,1 l 0.1,0.35 0.05,0.45 -0.7,0.65 -0.4,0.35 q -0.2,-1.15 -1.1,-1.55 l -1.55,-0.35 -1.5,-0.35 -1.2,-0.2 1.8,-1.75 0.45,0.05 0.45,0.15 V 5.4 l 0.6,-0.55 1.95,-1.6 1.45,-1.7 0.1,-0.25 q 0.65,-1.15 0.6,-2.4 1.25,-2.05 1.85,-4.35 -1.4,0 -4.1,1.4 l -0.85,-0.15 -2.5,0.2 -2.2,0.5 -0.05,-0.1 0.1,-0.25 0.05,-0.1 q 0.3,-1 0.2,-2.05 -0.1,-0.85 -0.45,-1.25 l -0.2,-0.2 -0.85,-0.4 -0.65,-0.2 -0.05,-0.3 V -8.9 m -5.1,5.2 0.5,0.45 0.3,0.35 0.4,0.65 0.05,0.4 -0.85,0.3 -0.9,0.3 h -0.55 l -0.7,-0.3 q -0.3,-0.3 -0.25,-0.65 l 0.5,-0.8 v -0.05 l 0.45,-0.45 0.35,-0.35 0.7,0.15 m 24.3,28.6 -1,0.05 q -1.6,-0.1 -2.1,-1.2 -0.25,-0.6 -0.05,-1.6 l 0.05,-0.25 0.85,0.35 1.05,-0.05 0.5,0.15 0.4,0.15 q 0.45,0.2 0.75,0.35 l 0.15,0.05 0.3,0.15 -0.05,0.75 q -0.15,0.6 -0.85,1.1 M -26.25,10 l 0.5,0.1 2,0.45 -0.15,0.55 -0.95,-0.45 -1.4,-0.65 m -6.15,4.7 0.45,-1.2 0.1,0.05 1.6,1 0.5,0.65 0.2,0.25 0.35,0.25 0.15,0.05 q -1.5,0.75 -2.85,1.05 -0.8,-0.75 -0.5,-2.1"
         fill="#c1b3b3"
         fill-rule="evenodd"
         stroke="none"
         id="path2" />
      <path
         d="m 23.4,-25.8 q -0.15,0.6 -0.7,1.1 -0.4,0.4 -0.8,0.6 l -0.25,-0.3 0.45,-0.45 1.3,-0.95 m -53.2,16.9 v 0.55 l 0.05,0.3 -0.9,-0.2 0.2,-0.15 0.65,-0.5 m 1.85,5.3 0.05,0.1 H -28 l 0.05,-0.1 m 5.6,-0.45 q 2.7,-1.4 4.1,-1.4 -0.6,2.3 -1.85,4.35 v -0.05 q -0.05,-1.4 -0.9,-2.2 -0.55,-0.5 -1.35,-0.7 m 4.05,11.1 0.75,-0.75 2.8,-3.55 Q -13,0.8 -10.9,0.6 q 0.75,0 1.1,0.35 l 0.25,0.65 q 0.35,1.75 -0.55,4.7 -0.55,-1.05 -1.5,-1.45 -1.45,-0.65 -3.9,0.4 l -2.8,1.8 m 12.55,9.9 q 0.6,-0.1 1.05,-0.55 l 0.55,-1.2 1.05,-3.15 Q -1.65,10 -0.65,7.6 L -0.5,7.4 Q 0.5,5.85 1.35,5.35 H 1.4 L 1.65,5.4 0.7,6.45 Q 0.05,7.4 -0.7,9.9 q -1.4,4.75 -3.9,9.45 l -1.4,2.2 q 0.3,-1.5 0.3,-3.75 l -0.05,-0.85 m 20.9,-8.3 V 8.5 l 0.6,-2.3 0.1,-0.2 0.5,1.75 q 0.25,1 0.7,1.6 0.4,0.65 0.95,1 l 1,0.35 q 0.6,0 0.85,-0.45 l 0.25,-1.05 0.8,-0.75 1.45,-0.9 0.2,0.85 q 0.2,1.4 -0.35,2.05 -0.55,0.7 -1.75,0.8 Q 18.7,11.4 16.7,10 L 15.15,8.65 m 1.65,-11.75 -0.55,-0.85 -0.5,-1.2 0.25,-2 q 0.3,-2.05 -0.25,-3.05 l 1.05,-2.5 q 1,-2.4 0.9,-5.15 l -0.3,-2.3 q 1.2,1.8 1.15,3.6 l -0.45,2.05 -0.85,2 q -1.2,3.2 -0.9,6.7 0.1,1.4 0.45,2.7 m 2.65,-24.45 -0.35,0.35 q -2.2,-2.2 -4.75,-3.6 l 0.6,-0.8 q 0.6,-0.9 1.2,-0.85 l 0.5,0.25 2.7,2 q 1.05,1.05 0.75,1.9 l -0.65,0.75 m -1.5,33.5 0.3,0.65 0.1,0.2 L 18,6.4 Q 17.9,6.25 17.95,5.95 m 0.8,1.8 0.3,0.35 0.15,0.1 -0.1,0.1 -0.25,-0.05 -0.15,-0.3 0.05,-0.2 m -31.25,12.75 -1,0.2 0.25,-1.05 q 0.1,0.65 0.75,0.85 m 1.9,4.4 q 0.7,-0.5 0.85,-1.1 l 0.05,-0.75 1.4,0.3 0.65,0.05 q -1.4,1.2 -2.95,1.5"
         fill="#a19595"
         fill-rule="evenodd"
         stroke="none"
         id="path3" />
      <path
         d="m -34.9,-3.7 -0.7,-0.15 0.3,-0.25 0.4,0.4"
         fill="#d7caca"
         fill-rule="evenodd"
         stroke="none"
         id="path4" />
      <path
         d="M 17.95,5.95 V 5.85 5.3 L 17.9,4.85 18.4,4.25 18.95,3.65 20.4,3.85 20.45,3.9 20.8,4.4 21.65,5.85 19.2,8.2 19.05,8.1 18.75,7.75 18.7,7.35 18.4,6.85 18.35,6.8 18.25,6.6 17.95,5.95 m -48.1,-12.25 0.9,0.35 q 0.2,0.25 0.1,0.85 -0.2,1 -1,1.8 l -0.65,0.55 -1.25,0.4 -0.2,-0.55 -0.25,-0.7 -1.15,-1.1 -0.55,-0.5 1.6,-1.4 0.8,0.1 1.65,0.2 m 20.95,27.65 -0.45,-0.4 -0.8,-0.25 -2.05,-0.25 q 0.5,-0.15 0.8,-0.8 l 0.5,-1.05 0.4,-0.45 0.05,-0.1 0.3,-0.55 0.95,-0.2 1.2,0.05 0.5,0.15 q 0.2,0.15 0.2,0.8 l 0.1,1.65 q 0.1,0.95 -0.35,1.6 L -8.55,21.5 -9.1,21.4 -9.2,21.35 m -21.25,-10.05 1.2,-0.55 0.7,-0.5 1.05,-0.35 1.25,0.1 1.4,0.65 0.95,0.45 -0.8,1.55 -2.45,1.9 -0.3,-0.05 -0.65,-0.4 -0.6,-0.6 q -0.8,-0.75 -2.35,-1.4 l 0.6,-0.8"
         fill="#e2e2e2"
         fill-rule="evenodd"
         stroke="none"
         id="path5" />
    </g>
    <g
       id="sprite1"
       transform="translate(17.4,15.85)">
      <use
         ffdec:characterId="31"
         height="57.200001"
         transform="matrix(0.5366,0,0,0.5366,-16.6582,-14.546)"
         width="70.75"
         xlink:href="#sprite2"
         id="use5" />
    </g>
    <g
       id="sprite2"
       transform="translate(-8.65,-10.35)">
      <use
         ffdec:characterId="30"
         height="57.200001"
         transform="translate(8.65,10.35)"
         width="70.75"
         xlink:href="#shape1"
         id="use6" />
    </g>
    <g
       id="shape1"
       transform="translate(-8.65,-10.35)">
      <path
         d="m 14.8,41.7 q 0.65,-1.75 2.65,-2.5 1.8,-0.8 3.7,-0.25 1.15,0.45 2.25,1.2 l 0.9,0.4 q 1.65,0.9 2.85,2.5 L 37.8,30.1 q 2.35,-2.8 3.75,-3.95 1.5,-1.15 4.25,-2.4 18.2,-8.85 27.65,-12.6 2.15,-0.8 3.25,-0.8 h 0.8 l 1.9,2.4 -0.2,0.8 q -0.2,1.1 -1.55,3 -5.85,8.25 -18.85,23.8 -1.85,2.35 -3.35,3.5 -1.4,1.15 -4.75,2.75 l -15.15,7.15 q 1.2,1.6 1.75,3.4 l 0.2,1 0.55,2.5 q 0.1,1.95 -1.1,3.55 -1.2,1.65 -3.05,1.9 l -1.3,0.05 q -1.65,0.2 -3.45,-0.65 -1.85,-0.9 -3,-2.6 L 25,60.95 23.8,62.1 q -2.6,2.85 -4.3,3.95 -2.85,1.8 -5.5,1.45 l -1.65,-0.5 -1.2,-0.7 -0.2,-0.2 q -1,-0.85 -1.6,-1.9 L 9.25,64 9.15,63.8 8.75,62.4 q -0.2,-0.8 -0.05,-1.7 0.25,-2.65 2.7,-5.05 1.5,-1.3 4.9,-3.15 L 17.7,51.55 16.05,50 q -1.35,-1.5 -1.8,-3.6 -0.4,-1.85 0.25,-3.45 l 0.3,-1.25"
         fill="#000000"
         fill-opacity="0.372549"
         fill-rule="evenodd"
         stroke="none"
         id="path6" />
    </g>
  </defs>
</svg>
