<?xml version="1.0" encoding="UTF-8" standalone="no"?>
<svg
   ffdec:objectType="frame"
   height="81.320564"
   width="84.38282"
   version="1.1"
   id="svg4"
   xmlns:xlink="http://www.w3.org/1999/xlink"
   xmlns="http://www.w3.org/2000/svg"
   xmlns:svg="http://www.w3.org/2000/svg"
   xmlns:ffdec="https://www.free-decompiler.com/flash">
  <g
     transform="translate(41.103191,43.53578)"
     id="g1">
    <use
       ffdec:characterId="17"
       height="119.15"
       id="rarity"
       transform="translate(-58.5,-60.65)"
       width="119.15"
       xlink:href="#sprite0" />
    <use
       ffdec:characterId="127"
       height="81.349998"
       transform="translate(-41.1,-43.55)"
       width="84.400002"
       xlink:href="#shape0"
       id="use1" />
  </g>
  <defs
     id="defs4">
    <g
       id="shape0"
       transform="translate(40.8,46.05)">
      <path
         d="m 18.05,-43.1 q 7.55,-4 12.85,-2.55 1.9,0.55 3.35,1.8 1.55,1.3 2.1,3.05 1.15,3.6 -1.9,8.25 -2.5,3.95 -6.05,6.9 7.75,6.1 11.65,16.4 3.25,8.6 3.5,19.95 0.2,4.9 -0.95,7.9 -1.5,3.9 -6.35,7.55 -8.75,6.55 -21.95,8.4 -8.95,1.3 -23.6,0.3 L -21.65,33.3 q -6.7,-1.45 -11.45,-4.45 -4.25,-2.7 -6.05,-6.15 -1.4,-2.8 -1.6,-7.1 -0.5,-9.25 3.7,-17.95 4.15,-8.65 11.7,-14.05 l 1.6,-1.35 q 0.75,-0.85 0.8,-1.75 0.05,-0.95 -0.75,-2.1 l -1.4,-2 q -0.65,-1.2 -0.5,-2.75 0.15,-1.45 0.95,-2.7 1.2,-1.95 4.15,-3.9 9.35,-6.1 20.45,-6.1 l 5.1,0.15 5.15,-0.55 q 1.8,-0.45 4,-1.6 l 3.85,-2.05 M 21,-26 l 5.25,-4.15 q 3.6,-3.35 5.05,-7.05 0.5,-1.3 0.2,-2 -0.5,-1.05 -2.25,-1.25 l -4.55,0.3 -2.9,1 q -2.7,1.15 -6.75,3.95 -2.6,1.8 -4.3,2.3 l -4.85,0.2 q -16.25,-0.85 -24.9,6.75 1.55,2.7 2.1,4.45 0.85,2.55 0.2,4.6 -0.55,1.7 -2.3,3.35 l -3.4,2.7 q -3.5,2.75 -6.05,6.35 -1.6,2.2 -2.8,4.7 -3.25,6.6 -3.2,13.75 0,4.15 1.5,6.45 1.15,1.9 4.1,3.55 3.6,1.95 8.65,2.95 l 9.25,1.15 10.7,0.7 q 5.85,0.2 10.65,-0.25 12.1,-1.2 20.15,-6.6 4.25,-2.8 5.65,-6.1 0.95,-2.1 1,-4.9 L 36.75,5.75 35.8,0.5 q -1.15,-5.5 -3,-9.55 -3.45,-7.85 -9.6,-11.85 -0.75,-0.55 -1.4,-0.5 l -1,0.4 -0.9,0.55 h -0.1 q -0.95,0.4 -1.85,-0.45 l -0.4,-0.4 q -0.45,-0.65 -0.3,-1.4 0.2,-0.95 1.9,-2.1 L 21,-26 m -34.05,5 q -0.3,-2.2 1.15,-4.1 1.8,-2.15 5.1,-2.25 2.5,0 5.45,1.4 l 1.6,0.75 1.7,0.25 Q 3,-25.05 4.4,-26 l 6.3,-3.75 4.15,-1.9 4.1,-2.5 q 2.45,-1.35 4.4,-1.45 1.65,-0.1 2.1,0.85 0.45,0.9 -0.4,1.85 -0.45,0.45 -1.65,1.05 l -4.2,2.65 -4.65,4.05 -9.6,9.4 q -1.45,1.55 -2.65,2.15 -1.4,0.7 -3.2,0.7 -4.6,0.1 -8.6,-2.95 -3.15,-2.35 -3.55,-5.15 m 27.6,3.4 0.25,0.35 q 0.4,0.9 -0.65,2.25 -4,5.7 -6.5,8.05 -4.4,4.05 -9,4.8 L -3.7,-2 -6.5,-2.5 q -2.65,-0.8 -4.3,-2.65 -0.9,-1.05 -1.1,-2.35 -0.2,-1.45 0.75,-2.1 1.25,-0.75 2.95,0.25 l 2.5,1.85 4.65,0.2 q 1.8,-0.6 4.1,-2.35 4.3,-3.2 7.9,-6.9 l 1.85,-1.35 1.15,-0.05 0.6,0.35 M -9.9,3.3 q 0.35,0.65 0.15,1.4 -0.15,0.65 -1.1,1.7 l -1.8,2.3 -2.2,1.65 -0.4,0.4 0.1,2 v 3.5 q 0.35,2.65 0.25,3.35 -0.2,2.1 -1.8,2.65 l -1.7,-0.15 q -0.85,-0.4 -1.35,-1.2 -0.65,-1.05 -0.95,-3.45 l -0.1,-5.3 -0.8,-0.45 q -3.45,-2.3 -5.7,-5.6 -1.6,-2.3 -0.65,-3.75 l 1.15,-0.8 1.45,-0.05 q 1.3,0.35 2.45,1.65 l 2.05,2.1 2.5,1.5 q 2.6,-1.45 3.75,-2.55 l 0.65,-0.65 0.45,-0.5 q 0.7,-0.6 1.35,-0.75 1.05,-0.2 1.9,0.55 L -9.9,3.3 m 35.5,-3.9 1.1,-0.05 0.5,0.15 1.85,-0.25 1.5,0.95 0.45,1.1 0.2,1.15 1.7,11.8 q 0.45,2.75 -0.75,3.65 -0.7,0.5 -1.7,0.3 Q 29.5,17.95 28.85,17.25 28,16.25 27.5,13.8 L 26.35,8.1 25.1,10.25 24.35,11.4 q -0.2,1.05 -1.2,1.55 -1.05,0.5 -2.45,-0.35 L 19.65,11.85 18.6,11 l -0.7,-0.45 0.05,0.4 1,6 0.3,2.3 q -0.1,1.45 -1.2,1.9 -1.6,0.7 -3.2,-1.75 -1.5,-2.35 -1.9,-5.2 L 12.55,11.25 12,9.55 11.3,7.9 q -0.75,-2.15 -0.4,-3.5 0.2,-0.95 0.85,-1.55 0.75,-0.7 1.6,-0.7 l 1,0.2 q 1.3,-0.1 3.05,1 l 4.1,2.95 0.25,-0.55 1.4,-3.5 Q 23.55,0.95 24,0.3 24.65,-0.45 25.6,-0.6 M -6.35,18.5 Q -7.75,15.9 -8.15,12.9 -8.5,9.85 -7.75,6.95 -7.3,5 -6.2,4.05 q 0.65,-0.6 1.5,-0.75 0.9,-0.15 1.6,0.3 1.3,0.85 1,3.05 l -0.35,1.7 -0.35,1.7 q -0.15,1.15 0.3,3 0.8,2.5 1.9,3.5 0.75,0.7 1.75,1 L 3.1,17.45 Q 4.15,15.95 4.05,13.7 4,12.1 3.35,9.6 2.75,7.4 2.9,6.25 3,5.35 3.5,4.65 4,3.85 4.8,3.65 l 1.8,0.2 1.4,1.3 q 0.7,1.15 1,3.6 l 0.45,4.3 q 0.15,2.4 -0.3,4.25 -1,4.1 -4.05,5.4 l -3.6,0.55 q -2.65,-0.1 -4.35,-0.9 -2,-1.15 -3.5,-3.85"
         fill="#000000"
         fill-rule="evenodd"
         stroke="none"
         id="path1" />
      <path
         d="m 24.7,-40.15 0.1,0.1 q 1.25,1.2 1.25,3.65 0,2.8 -1.2,5.1 l -1.8,2.75 -2.05,2.55 -1.85,1.2 q -1.7,1.15 -1.9,2.1 -0.15,0.75 0.3,1.4 l -0.55,0.7 -2.45,3 -0.6,-0.35 -1.15,0.05 -1.85,1.35 q -3.6,3.7 -7.9,6.9 -2.3,1.75 -4.1,2.35 L -5.7,-7.5 -8.2,-9.35 q -1.7,-1 -2.95,-0.25 -0.95,0.65 -0.75,2.1 0.2,1.3 1.1,2.35 1.65,1.85 4.3,2.65 L -3.7,-2 -4.85,-0.75 -5.9,0.8 -7.15,2.2 Q -8.2,3 -9.9,3.3 L -10.25,2.85 Q -11.1,2.1 -12.15,2.3 -12.8,2.45 -13.5,3.05 l -0.45,0.5 -3.5,-0.2 q -7.15,-0.6 -9.7,-3.95 -1.15,-1.55 -1.3,-3.55 V -4.5 q 2.55,-3.6 6.05,-6.35 l 3.4,-2.7 q 1.75,-1.65 2.3,-3.35 0.65,-2.05 -0.2,-4.6 -0.55,-1.75 -2.1,-4.45 8.65,-7.6 24.9,-6.75 l 4.85,-0.2 q 1.7,-0.5 4.3,-2.3 4.05,-2.8 6.75,-3.95 l 2.9,-1 m -4.8,19.7 0.9,-0.55 1,-0.4 q 0.65,-0.05 1.4,0.5 6.15,4 9.6,11.85 1.85,4.05 3,9.55 L 34.55,1.1 31.35,1.35 31,1.3 30.55,0.2 29.05,-0.75 27.2,-0.5 26.7,-0.65 25.6,-0.6 Q 23.2,-2 21.45,-4.1 19.6,-6.4 18.7,-9.25 17.8,-12.05 18,-15 q 0.2,-3.4 1.9,-5.45 M -13.05,-21 q 0.4,2.8 3.55,5.15 4,3.05 8.6,2.95 1.8,0 3.2,-0.7 1.2,-0.6 2.65,-2.15 l 9.6,-9.4 4.65,-4.05 4.2,-2.65 q 1.2,-0.6 1.65,-1.05 0.85,-0.95 0.4,-1.85 -0.45,-0.95 -2.1,-0.85 -1.95,0.1 -4.4,1.45 l -4.1,2.5 -4.15,1.9 -6.3,3.75 q -1.4,0.95 -2.45,1.05 l -1.7,-0.25 -1.6,-0.75 q -2.95,-1.4 -5.45,-1.4 -3.3,0.1 -5.1,2.25 -1.45,1.9 -1.15,4.1"
         fill="#8c8577"
         fill-rule="evenodd"
         stroke="none"
         id="path2" />
      <path
         d="m 24.7,-40.15 4.55,-0.3 q 1.75,0.2 2.25,1.25 0.3,0.7 -0.2,2 -1.45,3.7 -5.05,7.05 L 21,-26 l 2.05,-2.55 1.8,-2.75 q 1.2,-2.3 1.2,-5.1 0,-2.45 -1.25,-3.65 l -0.1,-0.1 m -7.15,18.85 0.4,0.4 q 0.9,0.85 1.85,0.45 h 0.1 q -1.7,2.05 -1.9,5.45 -0.2,2.95 0.7,5.75 0.9,2.85 2.75,5.15 1.75,2.1 4.15,3.5 -0.95,0.15 -1.6,0.9 -0.45,0.65 -0.85,1.95 L 21.75,5.75 21.5,6.3 17.4,3.35 q -1.75,-1.1 -3.05,-1 l -1,-0.2 q -0.85,0 -1.6,0.7 -0.65,0.6 -0.85,1.55 -0.35,1.35 0.4,3.5 l 0.7,1.65 0.55,1.7 0.4,2.95 q 0.4,2.85 1.9,5.2 1.6,2.45 3.2,1.75 1.1,-0.45 1.2,-1.9 l -0.3,-2.3 -1,-6 -0.05,-0.4 0.7,0.45 1.05,0.85 1.05,0.75 q 1.4,0.85 2.45,0.35 1,-0.5 1.2,-1.55 l 0.75,-1.15 1.25,-2.15 1.15,5.7 q 0.5,2.45 1.35,3.45 0.65,0.7 1.6,0.95 1,0.2 1.7,-0.3 1.2,-0.9 0.75,-3.65 L 31.2,2.45 31,1.3 31.35,1.35 34.55,1.1 35.8,0.5 36.75,5.75 37.2,10.9 q -0.05,2.8 -1,4.9 -1.4,3.3 -5.65,6.1 -8.05,5.4 -20.15,6.6 -4.8,0.45 -10.65,0.25 l -10.7,-0.7 -9.25,-1.15 q -5.05,-1 -8.65,-2.95 -2.95,-1.65 -4.1,-3.55 -1.5,-2.3 -1.5,-6.45 -0.05,-7.15 3.2,-13.75 1.2,-2.5 2.8,-4.7 v 0.35 q 0.15,2 1.3,3.55 2.55,3.35 9.7,3.95 l 3.5,0.2 -0.65,0.65 q -1.15,1.1 -3.75,2.55 l -2.5,-1.5 -2.05,-2.1 q -1.15,-1.3 -2.45,-1.65 l -1.45,0.05 -1.15,0.8 q -0.95,1.45 0.65,3.75 2.25,3.3 5.7,5.6 l 0.8,0.45 0.1,5.3 q 0.3,2.4 0.95,3.45 0.5,0.8 1.35,1.2 l 1.7,0.15 q 1.6,-0.55 1.8,-2.65 0.1,-0.7 -0.25,-3.35 v -3.5 l -0.1,-2 0.4,-0.4 2.2,-1.65 1.8,-2.3 Q -9.9,5.35 -9.75,4.7 -9.55,3.95 -9.9,3.3 -8.2,3 -7.15,2.2 L -5.9,0.8 -4.85,-0.75 -3.7,-2 -1.35,-2.15 q 4.6,-0.75 9,-4.8 2.5,-2.35 6.5,-8.05 1.05,-1.35 0.65,-2.25 l -0.25,-0.35 2.45,-3 0.55,-0.7 m -23.9,39.8 q 1.5,2.7 3.5,3.85 1.7,0.8 4.35,0.9 L 5.1,22.7 Q 8.15,21.4 9.15,17.3 9.6,15.45 9.45,13.05 L 9,8.75 Q 8.7,6.3 8,5.15 L 6.6,3.85 4.8,3.65 Q 4,3.85 3.5,4.65 3,5.35 2.9,6.25 2.75,7.4 3.35,9.6 4,12.1 4.05,13.7 4.15,15.95 3.1,17.45 l -1.95,0.1 q -1,-0.3 -1.75,-1 -1.1,-1 -1.9,-3.5 -0.45,-1.85 -0.3,-3 l 0.35,-1.7 0.35,-1.7 Q -1.8,4.45 -3.1,3.6 -3.8,3.15 -4.7,3.3 -5.55,3.45 -6.2,4.05 -7.3,5 -7.75,6.95 q -0.75,2.9 -0.4,5.95 0.4,3 1.8,5.6"
         fill="#777061"
         fill-rule="evenodd"
         stroke="none"
         id="path3" />
    </g>
    <g
       id="sprite1"
       transform="translate(17.4,15.85)">
      <use
         ffdec:characterId="31"
         height="57.200001"
         transform="matrix(0.5366,0,0,0.5366,-16.6582,-14.546)"
         width="70.75"
         xlink:href="#sprite2"
         id="use3" />
    </g>
    <g
       id="sprite2"
       transform="translate(-8.65,-10.35)">
      <use
         ffdec:characterId="30"
         height="57.200001"
         transform="translate(8.65,10.35)"
         width="70.75"
         xlink:href="#shape1"
         id="use4" />
    </g>
    <g
       id="shape1"
       transform="translate(-8.65,-10.35)">
      <path
         d="m 14.8,41.7 q 0.65,-1.75 2.65,-2.5 1.8,-0.8 3.7,-0.25 1.15,0.45 2.25,1.2 l 0.9,0.4 q 1.65,0.9 2.85,2.5 L 37.8,30.1 q 2.35,-2.8 3.75,-3.95 1.5,-1.15 4.25,-2.4 18.2,-8.85 27.65,-12.6 2.15,-0.8 3.25,-0.8 h 0.8 l 1.9,2.4 -0.2,0.8 q -0.2,1.1 -1.55,3 -5.85,8.25 -18.85,23.8 -1.85,2.35 -3.35,3.5 -1.4,1.15 -4.75,2.75 l -15.15,7.15 q 1.2,1.6 1.75,3.4 l 0.2,1 0.55,2.5 q 0.1,1.95 -1.1,3.55 -1.2,1.65 -3.05,1.9 l -1.3,0.05 q -1.65,0.2 -3.45,-0.65 -1.85,-0.9 -3,-2.6 L 25,60.95 23.8,62.1 q -2.6,2.85 -4.3,3.95 -2.85,1.8 -5.5,1.45 l -1.65,-0.5 -1.2,-0.7 -0.2,-0.2 q -1,-0.85 -1.6,-1.9 L 9.25,64 9.15,63.8 8.75,62.4 q -0.2,-0.8 -0.05,-1.7 0.25,-2.65 2.7,-5.05 1.5,-1.3 4.9,-3.15 L 17.7,51.55 16.05,50 q -1.35,-1.5 -1.8,-3.6 -0.4,-1.85 0.25,-3.45 l 0.3,-1.25"
         fill="#000000"
         fill-opacity="0.372549"
         fill-rule="evenodd"
         stroke="none"
         id="path4" />
    </g>
  </defs>
</svg>
