<?xml version="1.0" encoding="UTF-8" standalone="no"?>
<svg
   ffdec:objectType="frame"
   height="86.763634"
   width="61.190365"
   version="1.1"
   id="svg4"
   xmlns:xlink="http://www.w3.org/1999/xlink"
   xmlns="http://www.w3.org/2000/svg"
   xmlns:svg="http://www.w3.org/2000/svg"
   xmlns:ffdec="https://www.free-decompiler.com/flash">
  <g
     transform="translate(31.704255,42.2)"
     id="g1">
    <use
       ffdec:characterId="17"
       height="119.15"
       id="rarity"
       transform="translate(-58.5,-60.65)"
       width="119.15"
       xlink:href="#sprite0" />
    <use
       ffdec:characterId="684"
       height="86.75"
       transform="translate(-31.7,-42.2)"
       width="61.200001"
       xlink:href="#shape0"
       id="use1" />
  </g>
  <defs
     id="defs4">
    <g
       id="shape0"
       transform="translate(31.3,41.4)">
      <path
         d="m 18.35,33.5 -1.45,0.25 q -0.8,0.15 -1,0.65 -0.15,0.45 0.1,1.2 l 1.5,4.7 Q 18.7,43.8 17,45 15.55,46 12.7,44.25 L 6.8,40.3 Q 3.65,37.95 1.7,35.45 1.05,34.6 0.6,34.4 l -2.3,0.2 q -8.6,2.95 -17.5,2.25 -6.95,-0.5 -9.95,-3.95 -2.25,-2.75 -2.15,-6.9 0,-2.85 1.5,-7.25 l 2.05,-5.4 q 1.3,-3.05 3,-3.65 1.9,-0.7 4.8,1.1 l 2.9,2.2 q 0.65,0.55 1.1,0.5 L -15.1,13 q 4.9,-4.8 9.65,-11.9 2.95,-4.45 7.9,-13.25 4.2,-7.35 6.2,-11.25 2.95,-5.7 4.9,-10.65 L 12.8,-35 12.15,-36.25 v -0.3 l -0.1,-0.2 q -0.65,-1.3 -0.1,-2.45 0.5,-1.1 1.8,-1.7 l 2.55,-0.5 q 5.65,0 11.25,5.6 1.8,1.8 2.2,3.2 0.35,1.3 -0.2,4.05 -1.1,5.45 -0.85,9.15 l 0.3,2.95 q 0.15,1.75 -0.05,2.95 -0.25,1.75 -1.85,4.85 l -8.1,16 q -1,1.9 -1.15,3 -0.2,1.05 0.05,2.4 l 0.5,2.35 q 0.5,2.35 0.8,6.45 0.35,4.7 0.65,6.5 0.4,2.1 0.25,3.1 -0.3,1.9 -1.75,2.35 m 4.75,-66.15 -0.65,-0.6 -1.3,-1 -2.3,-1.35 q -0.05,1.55 -0.5,3.35 l -0.6,1.85 -2.3,4.9 -5.1,9.6 -6.55,11.65 -1.7,2.8 Q -2.65,6 -7.5,11.9 l -2.95,3.35 -4.15,4 q -1.25,1 -2.45,1.7 l -2.25,1.15 -2.45,0.7 -1.05,0.15 -0.8,0.05 -1.8,-0.15 h -0.05 l -0.25,1.9 q -0.2,2.5 0.5,4 l 0.85,1.15 q 1.15,1.05 3.95,1.35 8.85,1 17.35,-1.75 l 2.75,-0.75 2.7,0.2 q 1.45,0.6 2.9,2.7 1.6,2.2 2.55,3.05 1.55,1.55 3.25,1.85 -1.15,-1.6 -0.6,-3.7 0.55,-2.15 2.35,-3 1.35,-0.65 1.55,-0.9 0.5,-0.65 0.3,-2.2 l -1.55,-12.7 q -0.4,-3.1 -0.2,-4.7 0.3,-2.1 2.45,-6.1 3.75,-7.1 6.7,-13.8 1.15,-2.55 1.4,-4.1 0.15,-1 -0.1,-4.7 -0.3,-4.5 0.55,-9.05 l 0.2,-1.5 q 0.1,-0.8 -0.15,-1.4 l -0.9,-1.35 M -23.15,17.6 v 0.85 l 0.85,-0.2 q 1.1,-0.15 2.05,-0.85 -0.9,-1.2 -2.2,-1.8 -0.35,0.45 -0.55,1.55 l -0.15,0.45"
         fill="#000000"
         fill-rule="evenodd"
         stroke="none"
         id="path1" />
      <path
         d="m -19.3,22.1 2.25,-1.15 q 1.2,-0.7 2.45,-1.7 l 4.15,-4 2.95,-3.35 Q -2.65,6 2.1,-1.45 l 1.7,-2.8 6.55,-11.65 5.1,-9.6 2.3,-4.9 0.6,-1.85 q 0.45,-1.8 0.5,-3.35 l 2.3,1.35 1.3,1 0.65,0.6 q 0.4,2.6 -1,6.55 -2.6,7.35 -7.45,15.75 -2.9,5.1 -9.3,14.85 L 2.4,8.55 1.25,9.8 l -5,5.6 -1.6,2.15 q -2.15,2.75 -4.1,4 -0.7,0.45 -1.35,0.6 l -1,0.85 q -3.35,2.75 -6.45,4.35 -2.75,1.4 -5,1.55 l -1.95,-0.15 q -0.7,-1.5 -0.5,-4 l 0.25,-1.9 h 0.05 l 1.8,0.15 0.8,-0.05 1.05,-0.15 -0.05,0.6 2.5,-1.3 m -3.85,-4.5 0.15,-0.45 q 0.2,-1.1 0.55,-1.55 1.3,0.6 2.2,1.8 -0.95,0.7 -2.05,0.85 l -0.85,0.2 V 17.6"
         fill="#c5c4af"
         fill-rule="evenodd"
         stroke="none"
         id="path2" />
      <path
         d="m -25.2,28.75 1.95,0.15 q 2.25,-0.15 5,-1.55 3.1,-1.6 6.45,-4.35 l 1,-0.85 q 0.65,-0.15 1.35,-0.6 1.95,-1.25 4.1,-4 l 1.6,-2.15 5,-5.6 L 2.4,8.55 5.35,4.5 q 6.4,-9.75 9.3,-14.85 4.85,-8.4 7.45,-15.75 1.4,-3.95 1,-6.55 l 0.9,1.35 q 0.25,0.6 0.15,1.4 l -0.2,1.5 q -0.85,4.55 -0.55,9.05 0.25,3.7 0.1,4.7 -0.25,1.55 -1.4,4.1 -2.95,6.7 -6.7,13.8 -2.15,4 -2.45,6.1 -0.2,1.6 0.2,4.7 l 1.55,12.7 q 0.2,1.55 -0.3,2.2 -0.2,0.25 -1.55,0.9 -1.8,0.85 -2.35,3 -0.55,2.1 0.6,3.7 Q 9.4,36.25 7.85,34.7 6.9,33.85 5.3,31.65 3.85,29.55 2.4,28.95 l -2.7,-0.2 -2.75,0.75 q -8.5,2.75 -17.35,1.75 -2.8,-0.3 -3.95,-1.35 l -0.85,-1.15"
         fill="#a4a389"
         fill-rule="evenodd"
         stroke="none"
         id="path3" />
    </g>
    <g
       id="sprite1"
       transform="translate(17.4,15.85)">
      <use
         ffdec:characterId="31"
         height="57.200001"
         transform="matrix(0.5366,0,0,0.5366,-16.6582,-14.546)"
         width="70.75"
         xlink:href="#sprite2"
         id="use3" />
    </g>
    <g
       id="sprite2"
       transform="translate(-8.65,-10.35)">
      <use
         ffdec:characterId="30"
         height="57.200001"
         transform="translate(8.65,10.35)"
         width="70.75"
         xlink:href="#shape1"
         id="use4" />
    </g>
    <g
       id="shape1"
       transform="translate(-8.65,-10.35)">
      <path
         d="m 14.8,41.7 q 0.65,-1.75 2.65,-2.5 1.8,-0.8 3.7,-0.25 1.15,0.45 2.25,1.2 l 0.9,0.4 q 1.65,0.9 2.85,2.5 L 37.8,30.1 q 2.35,-2.8 3.75,-3.95 1.5,-1.15 4.25,-2.4 18.2,-8.85 27.65,-12.6 2.15,-0.8 3.25,-0.8 h 0.8 l 1.9,2.4 -0.2,0.8 q -0.2,1.1 -1.55,3 -5.85,8.25 -18.85,23.8 -1.85,2.35 -3.35,3.5 -1.4,1.15 -4.75,2.75 l -15.15,7.15 q 1.2,1.6 1.75,3.4 l 0.2,1 0.55,2.5 q 0.1,1.95 -1.1,3.55 -1.2,1.65 -3.05,1.9 l -1.3,0.05 q -1.65,0.2 -3.45,-0.65 -1.85,-0.9 -3,-2.6 L 25,60.95 23.8,62.1 q -2.6,2.85 -4.3,3.95 -2.85,1.8 -5.5,1.45 l -1.65,-0.5 -1.2,-0.7 -0.2,-0.2 q -1,-0.85 -1.6,-1.9 L 9.25,64 9.15,63.8 8.75,62.4 q -0.2,-0.8 -0.05,-1.7 0.25,-2.65 2.7,-5.05 1.5,-1.3 4.9,-3.15 L 17.7,51.55 16.05,50 q -1.35,-1.5 -1.8,-3.6 -0.4,-1.85 0.25,-3.45 l 0.3,-1.25"
         fill="#000000"
         fill-opacity="0.372549"
         fill-rule="evenodd"
         stroke="none"
         id="path4" />
    </g>
  </defs>
</svg>
