<?xml version="1.0" encoding="UTF-8" standalone="no"?>
<svg
   ffdec:objectType="frame"
   height="77.56282"
   width="88.30838"
   version="1.1"
   id="svg4"
   sodipodi:docname="ITEM Lead Helmet.svg"
   xmlns:inkscape="http://www.inkscape.org/namespaces/inkscape"
   xmlns:sodipodi="http://sodipodi.sourceforge.net/DTD/sodipodi-0.dtd"
   xmlns:xlink="http://www.w3.org/1999/xlink"
   xmlns="http://www.w3.org/2000/svg"
   xmlns:svg="http://www.w3.org/2000/svg"
   xmlns:ffdec="https://www.free-decompiler.com/flash">
  <sodipodi:namedview
     id="namedview4"
     pagecolor="#ffffff"
     bordercolor="#000000"
     borderopacity="0.25"
     inkscape:showpageshadow="2"
     inkscape:pageopacity="0.0"
     inkscape:pagecheckerboard="0"
     inkscape:deskcolor="#d1d1d1"
     fit-margin-top="5"
     fit-margin-left="5"
     fit-margin-right="5"
     fit-margin-bottom="5" />
  <g
     transform="translate(46.506,39.812821)"
     id="g1">
    <use
       ffdec:characterId="17"
       height="119.15"
       id="rarity"
       transform="translate(-58.5,-60.65)"
       width="119.15"
       xlink:href="#sprite0" />
    <use
       ffdec:characterId="1280"
       height="77.550003"
       transform="translate(-46.5,-39.8)"
       width="88.300003"
       xlink:href="#shape0"
       id="use1" />
  </g>
  <defs
     id="defs4">
    <g
       id="shape0"
       transform="translate(45.2,37.9)">
      <path
         d="m -13.3,22.2 -1.7,0.85 -0.2,1.55 q -0.5,2.75 -1.5,4.65 -0.75,1.6 -1.85,2.55 -0.85,0.8 -2.25,1.4 -1.2,0.55 -2.45,0.9 l 0.1,1.95 q 0.1,1.15 -0.3,1.95 l -0.75,0.85 -1,0.55 -1.95,0.2 -1.6,0.05 -1.55,-0.05 q -2,-0.3 -2.55,-1.7 l -0.2,-1.7 0.15,-3.15 -1.9,-1.2 -1.55,-1.5 q -1,-1.35 -1.1,-3.5 -0.05,-1.55 0.55,-3.65 l 0.25,-0.85 -2.35,-2.4 q -3.5,-4.15 -5.05,-9.15 -1.7,-5.25 -0.9,-10.3 0.45,-2.65 1.75,-6.15 5.75,-15.25 16.8,-22.8 2.65,-1.8 7.1,-4 l 6.45,-2.75 q 6.4,-2.3 13.35,-2.65 6.95,-0.35 13.6,1.25 3.35,0.85 6.55,2.1 11.6,4.4 17,12.2 5.35,7.8 5.45,21 0.1,9.9 -4,14.75 0.45,3.15 -1.45,6.45 -1.2,2.25 -2.85,3.3 -1.9,1.2 -4.9,1.1 -1.8,0 -3.4,-0.6 -1.8,-0.75 -2.75,-2.1 L 22.95,20.15 22.5,18.7 v -2.3 l 0.2,-1.25 q -12.05,4.05 -25.8,3.8 l -5.15,-0.6 -0.45,-0.1 q -2.55,2.8 -4.6,3.95 M 37.1,-5.25 36.4,-9.5 35.7,-12.25 q -1,-3.35 -2.45,-5.75 -1,-1.65 -2.4,-3.1 l -1.25,0.65 -2.4,1.1 -0.95,0.65 1.2,1.75 1.05,1.5 q 1.95,2.75 2.45,4.2 l 0.15,1.15 q -0.1,0.45 -0.6,0.65 l -0.9,-0.1 -0.65,-0.8 L 28,-11.5 q -0.85,-0.95 -2.55,-3.25 l -1.8,-2.35 -0.5,0.35 -1.2,0.65 -0.95,0.15 q -0.75,-0.1 -0.9,-0.75 -0.25,-0.7 0.25,-1.2 L 21.2,-18.4 22.05,-19 22,-19.1 21.55,-20.05 20.4,-21.3 q -0.8,-1.15 -0.05,-2.35 l 0.95,-0.75 1.2,-0.1 q 0.85,0.25 1.6,1.35 l 0.85,1.95 3.15,-2.4 -2.15,-1.5 q -3.35,-2.2 -9.25,-4.3 l -4.05,-1.2 -5.6,-0.85 -6.15,-0.2 -5.45,0.85 q -8.6,1.95 -15.2,5.8 l -4.8,3.25 q -3.3,2.6 -5.85,5.7 l -1.45,1.9 -0.8,1.3 -1.85,3 -2.65,5.35 q -1.5,3.5 -1.75,6.2 -0.35,3.9 1,7.8 1.35,3.75 4,6.85 1.85,2.1 3.45,2.7 l 1.8,0.4 1.8,0.2 3.2,0.55 q 1.9,0.05 5.2,-1.35 2.8,-1.35 3.9,-2.25 1.3,-1.05 3.6,-4.1 3.05,-4.2 6,-6.5 3.9,-3.05 11.35,-5.45 6.5,-2.05 10.65,-2.3 l 6.35,0.25 3.5,0.4 q 1.9,0.35 3.3,1.1 3.45,1.8 5.8,7.2 1.55,-5.4 1.25,-10.8 L 37.1,-5.25 m -67,9.3 -0.5,-0.85 -0.75,-1.85 -0.7,-1.25 -0.8,-1.95 -0.75,-2.8 0.1,-1.35 0.7,-0.55 0.1,-0.05 1.05,0.15 q 0.4,0.25 0.65,0.85 l 2.5,4.35 1.1,2 1.3,2.5 q 0.5,1 0.55,1.6 l 0.05,0.9 -0.3,0.7 q -0.55,0.9 -1.7,0.8 -1,-0.1 -1.6,-1 L -29.6,4.7 -29.9,4.05 m 5.3,-4.25 -0.35,-0.85 -0.15,-1.05 -0.1,-3.15 0.3,-5.55 0.4,-3.3 0.25,-0.8 q 0.2,-0.4 0.75,-0.5 l 0.85,0.15 q 0.5,0.4 0.6,1.65 0.15,6.5 0.65,10.1 l 0.1,0.9 q 0.25,1.35 0.05,1.9 l -0.1,0.25 q -0.4,0.9 -1.4,1.05 -1.2,0.15 -1.85,-0.8 m 55.05,12.2 -2.85,1.3 0.3,0.65 0.05,1.65 0.15,1.5 q 0.2,0.8 0.65,1.2 l 0.95,0.3 1.9,-0.15 0.9,-0.9 1.2,-2.2 Q 32,14.5 30.95,11.75 L 30.45,12 m -33.9,0.3 -1.55,1.65 15.75,-1 q 9.3,-1.6 17.75,-5.4 L 29.2,7.25 28,5.95 Q 27.45,5.55 26.6,5.3 l -0.95,-0.25 -2,-0.3 -4.2,-0.3 -4.2,0.1 Q 12.75,4.9 8.95,6.1 5.2,7.25 3.05,8.15 -0.1,9.5 -2.3,11.25 L -3,11.9 -3.45,12.3 m -24,13.15 -4.55,-0.55 -0.05,0.25 0.15,1.1 0.8,0.85 q 1.65,1.05 3.6,1.3 l 3.75,-0.35 q 1.05,-0.35 1.65,-0.95 l 0.65,-1.15 0.5,-1.3 -6.5,0.8"
         fill="#000000"
         fill-rule="evenodd"
         stroke="none"
         id="path1" />
      <path
         d="m -37.15,-4.5 2.65,-5.35 1.85,-3 0.8,-1.3 1.45,-1.9 q 2.55,-3.1 5.85,-5.7 l 4.8,-3.25 q 6.6,-3.85 15.2,-5.8 l 5.45,-0.85 6.15,0.2 5.6,0.85 4.05,1.2 q 5.9,2.1 9.25,4.3 l 2.15,1.5 -3.15,2.4 -0.85,-1.95 q -0.75,-1.1 -1.6,-1.35 l -1.2,0.1 -0.95,0.75 q -0.75,1.2 0.05,2.35 l 1.15,1.25 0.45,0.95 0.05,0.1 -0.85,0.6 -0.85,0.5 q -0.5,0.5 -0.25,1.2 0.15,0.65 0.9,0.75 l 0.95,-0.15 1.2,-0.65 0.5,-0.35 1.8,2.35 q 1.7,2.3 2.55,3.25 l 0.95,1.15 0.65,0.8 0.9,0.1 q 0.5,-0.2 0.6,-0.65 l -0.15,-1.15 q -0.5,-1.45 -2.45,-4.2 l -1.05,-1.5 -1.2,-1.75 0.95,-0.65 2.4,-1.1 1.25,-0.65 q 1.4,1.45 2.4,3.1 1.45,2.4 2.45,5.75 l 0.7,2.75 0.7,4.25 -0.6,0.55 q -2.25,2 -6.2,1.35 l -3.2,-0.8 -3.15,-1 L 19.35,-6 Q 13.55,-6.8 9.4,-6.1 6.75,-5.7 3.15,-4.2 L 1.2,-2.95 q -4.6,3.1 -7.35,4.65 -4.2,2.35 -7.95,3.4 -4.4,1.3 -8.6,1 l -2.6,-0.35 -0.05,-0.9 q -0.05,-0.6 -0.55,-1.6 l -1.3,-2.5 -1.1,-2 -2.5,-4.35 q -0.25,-0.6 -0.65,-0.85 l -1.05,-0.15 -0.1,0.05 -0.7,0.55 -0.1,1.35 0.75,2.8 0.8,1.95 0.7,1.25 0.75,1.85 0.5,0.85 -0.95,-0.55 q -3.55,-2.25 -5.5,-6.05 l -0.8,-1.95 m 12.55,4.3 q 0.65,0.95 1.85,0.8 1,-0.15 1.4,-1.05 l 0.1,-0.25 q 0.2,-0.55 -0.05,-1.9 l -0.1,-0.9 q -0.5,-3.6 -0.65,-10.1 -0.1,-1.25 -0.6,-1.65 l -0.85,-0.15 q -0.55,0.1 -0.75,0.5 l -0.25,0.8 -0.4,3.3 -0.3,5.55 0.1,3.15 0.15,1.05 0.35,0.85 m 51.2,5.5 -1.05,0.6 q -3.15,1.5 -9.3,3.15 l -9.7,2.5 q -5.5,1.2 -9.05,0.9 L -3.45,12.3 -3,11.9 -2.3,11.25 Q -0.1,9.5 3.05,8.15 5.2,7.25 8.95,6.1 q 3.8,-1.2 6.3,-1.55 l 4.2,-0.1 4.2,0.3 2,0.3 0.95,0.25"
         fill="#333333"
         fill-rule="evenodd"
         stroke="none"
         id="path2" />
      <path
         d="m -37.15,-4.5 0.8,1.95 q 1.95,3.8 5.5,6.05 l 0.95,0.55 0.3,0.65 0.7,1.55 q 0.6,0.9 1.6,1 1.15,0.1 1.7,-0.8 l 0.3,-0.7 2.6,0.35 q 4.2,0.3 8.6,-1 3.75,-1.05 7.95,-3.4 Q -3.4,0.15 1.2,-2.95 L 3.15,-4.2 q 3.6,-1.5 6.25,-1.9 4.15,-0.7 9.95,0.1 l 4.6,0.85 3.15,1 3.2,0.8 q 3.95,0.65 6.2,-1.35 l 0.6,-0.55 0.15,1.65 Q 37.55,1.8 36,7.2 33.65,1.8 30.2,0 28.8,-0.75 26.9,-1.1 L 23.4,-1.5 17.05,-1.75 Q 12.9,-1.5 6.4,0.55 -1.05,2.95 -4.95,6 q -2.95,2.3 -6,6.5 -2.3,3.05 -3.6,4.1 -1.1,0.9 -3.9,2.25 -3.3,1.4 -5.2,1.35 l -3.2,-0.55 -1.8,-0.2 -1.8,-0.4 q -1.6,-0.6 -3.45,-2.7 -2.65,-3.1 -4,-6.85 -1.35,-3.9 -1,-7.8 0.25,-2.7 1.75,-6.2 m 67.6,16.5 0.5,-0.25 q 1.05,2.75 2.75,3.6 l -1.2,2.2 -0.9,0.9 -1.9,0.15 -0.95,-0.3 Q 28.3,17.9 28.1,17.1 L 27.95,15.6 27.9,13.95 27.6,13.3 30.45,12 m -33.9,0.3 0.95,0.15 q 3.55,0.3 9.05,-0.9 l 9.7,-2.5 Q 22.4,7.4 25.55,5.9 L 26.6,5.3 q 0.85,0.25 1.4,0.65 l 1.2,1.3 -0.7,0.3 q -8.45,3.8 -17.75,5.4 l -15.75,1 1.55,-1.65 m -24,13.15 6.5,-0.8 -0.5,1.3 -0.65,1.15 q -0.6,0.6 -1.65,0.95 l -3.75,0.35 q -1.95,-0.25 -3.6,-1.3 l -0.8,-0.85 -0.15,-1.1 0.05,-0.25 4.55,0.55"
         fill="#252525"
         fill-rule="evenodd"
         stroke="none"
         id="path3" />
    </g>
    <g
       id="sprite1"
       transform="translate(17.4,15.85)">
      <use
         ffdec:characterId="31"
         height="57.200001"
         transform="matrix(0.5366,0,0,0.5366,-16.6582,-14.546)"
         width="70.75"
         xlink:href="#sprite2"
         id="use3" />
    </g>
    <g
       id="sprite2"
       transform="translate(-8.65,-10.35)">
      <use
         ffdec:characterId="30"
         height="57.200001"
         transform="translate(8.65,10.35)"
         width="70.75"
         xlink:href="#shape1"
         id="use4" />
    </g>
    <g
       id="shape1"
       transform="translate(-8.65,-10.35)">
      <path
         d="m 14.8,41.7 q 0.65,-1.75 2.65,-2.5 1.8,-0.8 3.7,-0.25 1.15,0.45 2.25,1.2 l 0.9,0.4 q 1.65,0.9 2.85,2.5 L 37.8,30.1 q 2.35,-2.8 3.75,-3.95 1.5,-1.15 4.25,-2.4 18.2,-8.85 27.65,-12.6 2.15,-0.8 3.25,-0.8 h 0.8 l 1.9,2.4 -0.2,0.8 q -0.2,1.1 -1.55,3 -5.85,8.25 -18.85,23.8 -1.85,2.35 -3.35,3.5 -1.4,1.15 -4.75,2.75 l -15.15,7.15 q 1.2,1.6 1.75,3.4 l 0.2,1 0.55,2.5 q 0.1,1.95 -1.1,3.55 -1.2,1.65 -3.05,1.9 l -1.3,0.05 q -1.65,0.2 -3.45,-0.65 -1.85,-0.9 -3,-2.6 L 25,60.95 23.8,62.1 q -2.6,2.85 -4.3,3.95 -2.85,1.8 -5.5,1.45 l -1.65,-0.5 -1.2,-0.7 -0.2,-0.2 q -1,-0.85 -1.6,-1.9 L 9.25,64 9.15,63.8 8.75,62.4 q -0.2,-0.8 -0.05,-1.7 0.25,-2.65 2.7,-5.05 1.5,-1.3 4.9,-3.15 L 17.7,51.55 16.05,50 q -1.35,-1.5 -1.8,-3.6 -0.4,-1.85 0.25,-3.45 l 0.3,-1.25"
         fill="#000000"
         fill-opacity="0.372549"
         fill-rule="evenodd"
         stroke="none"
         id="path4" />
    </g>
  </defs>
</svg>
