<?xml version="1.0" encoding="UTF-8" standalone="no"?>
<svg
   ffdec:objectType="frame"
   height="55.650002"
   width="47.752083"
   version="1.1"
   id="svg4"
   xmlns:xlink="http://www.w3.org/1999/xlink"
   xmlns="http://www.w3.org/2000/svg"
   xmlns:svg="http://www.w3.org/2000/svg"
   xmlns:ffdec="https://www.free-decompiler.com/flash">
  <g
     transform="translate(23.9,25.4)"
     id="g1">
    <use
       ffdec:characterId="17"
       height="119.15"
       id="rarity"
       transform="translate(-58.5,-60.65)"
       width="119.15"
       xlink:href="#sprite0" />
    <use
       ffdec:characterId="114"
       height="55.700001"
       transform="translate(-23.9,-25.4)"
       width="47.75"
       xlink:href="#shape0"
       id="use1" />
  </g>
  <defs
     id="defs4">
    <g
       id="shape0"
       transform="translate(23.6,27.9)">
      <path
         d="m -12.85,27.65 -0.7,0.05 -2.5,0.05 q -1.4,-0.15 -2.3,-0.75 -1.35,-0.9 -1.9,-2.9 l -0.45,-3.7 q -0.2,-5.85 -1.6,-19.95 -1.25,-12.75 -1.3,-20 0,-2.3 0.6,-3.2 0.95,-1.4 3.9,-2 l 11.55,-1.9 q 4.55,-0.45 7.15,-0.15 2.45,0.3 3.3,1.65 0.55,0.9 0.45,2.7 l -0.05,2.8 q 0.8,0.1 1.35,-0.6 0.5,-0.7 0.55,-1.55 v -1.65 L 5.5,-25 q 0.8,-1.7 4.35,-2.05 l 10.2,-0.85 2.45,0.35 q 0.95,0.65 1.15,2.75 0.3,2.5 0.4,7.5 0.35,22.55 -0.5,36.7 l -0.5,3.25 q -0.55,1.6 -1.65,2.3 -0.85,0.5 -2.4,0.7 L 17.85,25.75 7.1,26.1 Q 3.4,26.2 2.2,24.7 1.45,23.75 1.45,21.95 l 0.05,-3.1 q -1,-0.15 -1.7,0.85 -0.6,0.9 -0.7,2.05 l -0.1,2.2 q -0.15,1.25 -0.7,1.95 -0.95,1.05 -3.6,1.25 l -5.55,0.4 -2,0.1 M 3.4,-14.4 2.45,-14.5 q -2.6,-0.25 -3.5,-2.1 l -0.4,-1.75 0.05,-1.9 -0.2,-0.9 -1.2,-0.2 -9.75,1.5 -4.95,0.7 q -0.3,5.95 0.3,11.8 l 0.55,4.15 1.1,9 0.4,4.15 q 0.45,5.85 0.75,11.75 l 5,-0.45 2.95,-0.1 q 0.3,-2.9 2.05,-5.45 1,-1.5 2.35,-2.15 0.75,-0.35 1.8,-0.35 l 1.85,0.05 q 2.55,0.2 3.6,0.95 2,1.5 1.9,6.2 l 9.75,-0.6 1,-0.05 Q 19.2,-1.7 18.15,-23.1 H 17.5 l -2.9,0.1 -1.9,0.25 -1,0.15 q -1.15,0.2 -1.55,0.7 -0.2,0.3 -0.2,1.45 v 0.15 q -0.05,1.3 -0.7,2.55 -0.65,1.2 -1.75,2 -1.8,1.35 -4.1,1.35 m -3.95,9.15 q 0.05,-2.1 0.5,-3.15 0.35,-0.95 1.1,-1.6 0.75,-0.65 1.7,-0.7 1,-0.1 1.7,0.55 L 4.9,-9.7 q 0.65,0.8 0.75,2.75 l 0.1,2.35 0.3,0.05 1.7,0.1 q 0.9,0.2 1.35,1.2 0.45,0.9 0.05,1.75 -0.35,0.8 -1.5,1.45 L 5.7,0.6 5.4,3.9 Q 5.2,6.05 4.4,6.95 3.65,7.8 2.4,7.8 1.2,7.85 0.4,7.05 -0.6,6 -0.6,2.95 L -0.55,0.7 -0.8,0.75 -2.5,0.85 Q -3.8,0.65 -4.45,-0.6 l -0.2,-0.5 Q -5,-2.1 -4.6,-3 q 0.5,-1.25 2,-1.85 l 2,-0.35 h 0.05 v -0.05"
         fill="#000000"
         fill-rule="evenodd"
         stroke="none"
         id="path1" />
      <path
         d="m 23.05,22.65 q -0.2,1.3 -0.7,1.95 -0.7,1.1 -2.15,1.2 L 19,25.65 q 1.55,-0.2 2.4,-0.7 1.1,-0.7 1.65,-2.3 m -33.9,4.9 -2,0.1 2,-0.1 m -1.7,-47.4 v 0.1 q 0.55,3.45 0.55,10.05 0,6.9 0.45,10.05 l 0.15,0.75 q 7.7,-8.7 14.8,-15.5 2.3,0 4.1,-1.35 1.1,-0.8 1.75,-2 0.65,-1.25 0.7,-2.55 v -0.15 l 2.75,-2.3 1.9,-0.25 2.9,-0.1 h 0.65 q 1.05,21.4 -0.3,42.85 l -1,0.05 L 16.8,14.6 16.5,7.4 15.95,3.7 15.05,-3.95 Q 14.4,-9.8 14.25,-13 q -0.15,-3.35 0,-6.25 l -9.8,9.1 q -0.7,-0.65 -1.7,-0.55 -0.95,0.05 -1.7,0.7 -0.75,0.65 -1.1,1.6 -0.45,1.05 -0.5,3.15 l -0.05,0.05 -2,0.35 q -1.5,0.6 -2,1.85 -0.4,0.9 -0.05,1.9 l -6.1,6.35 q 0.5,3.95 0.9,9.9 l 0.45,6.1 -5,0.45 q -0.3,-5.9 -0.75,-11.75 l -0.4,-4.15 -1.1,-9 -0.55,-4.15 q -0.6,-5.85 -0.3,-11.8 l 4.95,-0.7"
         fill="#ffffff"
         fill-rule="evenodd"
         stroke="none"
         id="path2" />
      <path
         d="m -12.55,-19.85 9.75,-1.5 1.2,0.2 0.2,0.9 -0.05,1.9 0.4,1.75 q 0.9,1.85 3.5,2.1 l 0.95,0.1 Q -3.7,-7.6 -11.4,1.1 L -11.55,0.35 Q -12,-2.8 -12,-9.7 q 0,-6.6 -0.55,-10.05 v -0.1 M 16.85,19.8 7.1,20.4 Q 7.2,15.7 5.2,14.2 4.15,13.45 1.6,13.25 L -0.25,13.2 q -1.05,0 -1.8,0.35 -1.35,0.65 -2.35,2.15 -1.75,2.55 -2.05,5.45 l -2.95,0.1 -0.45,-6.1 q -0.4,-5.95 -0.9,-9.9 l 6.1,-6.35 0.2,0.5 Q -3.8,0.65 -2.5,0.85 L -0.8,0.75 -0.55,0.7 -0.6,2.95 q 0,3.05 1,4.1 0.8,0.8 2,0.75 1.25,0 2,-0.85 0.8,-0.9 1,-3.05 L 5.7,0.6 7.65,-0.05 Q 8.8,-0.7 9.15,-1.5 9.55,-2.35 9.1,-3.25 8.65,-4.25 7.75,-4.45 L 6.05,-4.55 5.75,-4.6 5.65,-6.95 Q 5.55,-8.9 4.9,-9.7 l -0.45,-0.45 9.8,-9.1 q -0.15,2.9 0,6.25 0.15,3.2 0.8,9.05 l 0.9,7.65 0.55,3.7 0.3,7.2 0.05,5.2"
         fill="#b8b8b8"
         fill-rule="evenodd"
         stroke="none"
         id="path3" />
    </g>
    <g
       id="sprite1"
       transform="translate(17.4,15.85)">
      <use
         ffdec:characterId="31"
         height="57.200001"
         transform="matrix(0.5366,0,0,0.5366,-16.6582,-14.546)"
         width="70.75"
         xlink:href="#sprite2"
         id="use3" />
    </g>
    <g
       id="sprite2"
       transform="translate(-8.65,-10.35)">
      <use
         ffdec:characterId="30"
         height="57.200001"
         transform="translate(8.65,10.35)"
         width="70.75"
         xlink:href="#shape1"
         id="use4" />
    </g>
    <g
       id="shape1"
       transform="translate(-8.65,-10.35)">
      <path
         d="m 14.8,41.7 q 0.65,-1.75 2.65,-2.5 1.8,-0.8 3.7,-0.25 1.15,0.45 2.25,1.2 l 0.9,0.4 q 1.65,0.9 2.85,2.5 L 37.8,30.1 q 2.35,-2.8 3.75,-3.95 1.5,-1.15 4.25,-2.4 18.2,-8.85 27.65,-12.6 2.15,-0.8 3.25,-0.8 h 0.8 l 1.9,2.4 -0.2,0.8 q -0.2,1.1 -1.55,3 -5.85,8.25 -18.85,23.8 -1.85,2.35 -3.35,3.5 -1.4,1.15 -4.75,2.75 l -15.15,7.15 q 1.2,1.6 1.75,3.4 l 0.2,1 0.55,2.5 q 0.1,1.95 -1.1,3.55 -1.2,1.65 -3.05,1.9 l -1.3,0.05 q -1.65,0.2 -3.45,-0.65 -1.85,-0.9 -3,-2.6 L 25,60.95 23.8,62.1 q -2.6,2.85 -4.3,3.95 -2.85,1.8 -5.5,1.45 l -1.65,-0.5 -1.2,-0.7 -0.2,-0.2 q -1,-0.85 -1.6,-1.9 L 9.25,64 9.15,63.8 8.75,62.4 q -0.2,-0.8 -0.05,-1.7 0.25,-2.65 2.7,-5.05 1.5,-1.3 4.9,-3.15 L 17.7,51.55 16.05,50 q -1.35,-1.5 -1.8,-3.6 -0.4,-1.85 0.25,-3.45 l 0.3,-1.25"
         fill="#000000"
         fill-opacity="0.372549"
         fill-rule="evenodd"
         stroke="none"
         id="path4" />
    </g>
  </defs>
</svg>
