<?xml version="1.0" encoding="UTF-8" standalone="no"?>
<svg
   ffdec:objectType="frame"
   height="59.099998"
   width="92.050003"
   version="1.1"
   id="svg7"
   sodipodi:docname="ITEM Radioactive Necklace.svg"
   xmlns:inkscape="http://www.inkscape.org/namespaces/inkscape"
   xmlns:sodipodi="http://sodipodi.sourceforge.net/DTD/sodipodi-0.dtd"
   xmlns:xlink="http://www.w3.org/1999/xlink"
   xmlns="http://www.w3.org/2000/svg"
   xmlns:svg="http://www.w3.org/2000/svg"
   xmlns:ffdec="https://www.free-decompiler.com/flash">
  <sodipodi:namedview
     id="namedview7"
     pagecolor="#ffffff"
     bordercolor="#000000"
     borderopacity="0.25"
     inkscape:showpageshadow="2"
     inkscape:pageopacity="0.0"
     inkscape:pagecheckerboard="0"
     inkscape:deskcolor="#d1d1d1"
     fit-margin-top="5"
     fit-margin-left="5"
     fit-margin-right="5"
     fit-margin-bottom="5" />
  <g
     transform="translate(46.65,33.6)"
     id="g1">
    <use
       ffdec:characterId="17"
       height="119.15"
       id="rarity"
       transform="translate(-58.5,-60.65)"
       width="119.15"
       xlink:href="#sprite0" />
    <use
       ffdec:characterId="785"
       height="59.200001"
       transform="translate(-46.7,-33.6)"
       width="92.099998"
       xlink:href="#shape0"
       id="use1" />
  </g>
  <defs
     id="defs7">
    <g
       id="shape0"
       transform="translate(47.25,34.35)">
      <path
         d="m -14.85,-34.35 q 5.15,1.1 9.95,3.8 l 12.75,7.15 q 0.6,0.35 0.7,1.15 l -2,6.75 q 4.1,0.55 7.95,2 l 0.05,-0.05 7.65,-3.65 2.6,-0.75 q 3.75,1.6 5.9,5.55 l 2.1,3.4 q 5.7,-2.65 11.25,-0.05 0.65,0.3 0.65,1.1 L 44.8,9 l 0.05,3.65 -7.5,7.5 q -2.95,2.95 -6.5,4.45 l -2,0.15 Q 17.25,22.05 5.4,20.3 3.7,20 3.75,18.3 q 0,-1.1 0.45,-2.15 -0.15,-2.9 0,-5.75 -4.05,1.8 -8.45,2.45 -1.4,3 -4.4,4.6 -0.95,0.5 -2.1,0.5 l -21.5,1.7 q -1.65,0.2 -2.55,-1.2 l -0.9,-1.55 -10.9,-1.2 q -0.6,-0.1 -0.6,-0.75 l 0.05,-6 q 0.45,-11.7 2.4,-23.1 0.4,-2.4 2.85,-3.2 4.75,-1.55 9.1,0.35 1.15,0.5 1.45,1.8 l 0.65,2.1 0.15,0.1 0.45,-0.05 0.4,-0.2 q 1.35,-4.95 1,-10.5 -0.55,-7.65 7.1,-8.75 3.55,-0.5 6.75,-1.85 m 15.45,21.9 2.5,-8.1 -1.5,-0.8 -3.7,-1.85 -2.7,-1.35 q -4.65,-2.3 -9.45,-4.4 -1.9,0.85 -3.85,1.4 l -2.2,0.5 -0.55,0.1 -2.15,0.7 q -0.2,7.35 -1.55,14.3 -0.6,2.9 -3.55,4.05 -1.55,0.6 -3.2,0.65 -2.65,0 -3.45,-2.6 l -1.1,-3.25 -1.9,0.4 -1.2,0.25 -1.2,0.45 -0.05,0.5 -0.2,2 -1.2,10.1 -0.35,5.05 v 5.5 q 4.2,-0.6 8.35,0.95 1,0.4 1.8,1.2 l 1.1,1.5 q 10.45,-1.5 21.1,-1.85 4,-8.75 7.45,-17.8 l 0.4,-1 0.6,-1.7 1.75,-4.9 m -6.4,-3.15 1.15,-1 1.1,-0.4 q 1.35,0.45 2.05,1.05 1.65,1.45 -0.45,4 -0.7,0.8 -1.5,0.8 -0.6,-0.05 -1.25,-0.5 L -4.95,-11.8 Q -7.4,-13.75 -5.8,-15.6 M 10,-11 5.95,-11.45 5.3,-11.6 4.55,-9.5 2.05,-2.7 Q 3.6,-3.65 5.4,-4.25 L 5.35,-4.45 5.3,-4.65 5.25,-4.85 q 1.95,-3.4 5,-5.85 L 10.5,-10.95 10,-11 M 40.25,3.15 V -5.5 l -4.1,0.3 q -4.7,4.2 -8.1,-1.4 -1.95,-3.25 -4.25,-5.65 -5.35,2.6 -10.35,5.85 l -3.1,1.7 -0.1,0.65 Q 10.6,-2.5 9.9,-1.45 V -1.3 L 9.5,1.8 9.3,3.65 9.05,6.9 q -0.35,4.35 -0.3,8.75 l 21.3,4.25 5.7,-5.2 4.5,-4.35 v -6 -1.2 M 28.3,5.7 h 0.4 V 5.65 q 2.35,0.5 3.95,2.45 l 0.8,1.35 -0.1,0.6 q -0.6,2.75 -2.7,5 -1.15,1.25 -2.7,2.1 -4.6,-0.1 -6.3,-4.85 l -0.1,-0.35 q -0.2,-0.8 0,-1.6 2.6,-2.35 5.7,-4.15 l 0.6,-0.3 0.35,-0.2 h 0.1 M 14.75,-4 q 4.8,2.15 0.4,4.9 -0.9,0.55 -1.65,-0.2 -0.75,-0.75 -1.05,-1.4 -0.25,-0.55 -0.2,-1.05 0.15,-1.15 2,-2.1 L 14.75,-4 m -33.5,-1.45 0.2,0.4 q 0.55,1.05 0.7,2.2 2.65,4.7 -1.5,7.85 L -20.2,5.6 -21,5.85 -24.35,5.8 -29.85,5.45 q -1.3,-0.1 -1.55,-1.35 -0.1,-0.85 0.35,-1.55 v -3.6 q 0.05,-1.7 0.5,-3.25 2.9,-1.75 6.4,-2.35 l 0.85,-0.85 0.1,-0.1 q 0.6,-0.55 1.3,-0.55 l 0.95,0.2 0.75,0.35 1.45,2.15 m -4.8,1.3 -2.65,1.15 -0.3,0.1 -0.2,0.1 -0.6,0.45 0.05,1.9 -0.25,1.75 5.65,0.05 0.5,-0.65 0.3,-0.4 -1.1,-2.7 q -0.45,-1.3 -1.4,-1.75 M 4.55,5.4 5.05,0.7 q -1.5,0.35 -2.9,0.95 l -2.3,1 L -2.5,8.05 4.4,7.3 4.55,5.4 m -16.4,-0.6 q 4.6,1.5 1.6,5.05 -1.2,1.45 -2.75,0.3 -3.45,-2.45 0.05,-4.95 0.55,-0.4 1.1,-0.4 m 28.7,6.5 q -0.25,0.8 -1.2,1.8 l -2.5,0.1 Q 10.65,11.15 12.8,9.25 L 13.1,9 13.35,8.8 q 0.5,-0.35 1.05,-0.35 1.75,0.6 2.3,1.5 0.35,0.6 0.15,1.35 m 12,-1.5 q -1.2,0.55 -2.35,1.2 -0.5,0.25 -0.7,0.75 l 0.65,0.85 1.4,1 1.1,-1.15 1.1,-1.7 -0.15,-0.4 Q 29.6,9.95 29.1,9.8 h -0.25"
         fill="#000000"
         fill-rule="evenodd"
         stroke="none"
         id="path1" />
      <path
         d="m -2.1,-23.2 0.15,0.15 0.05,0.3 0.05,0.2 0.05,0.3 v 0.2 0.25 q -1.85,3.1 -4.15,5.85 l 0.15,0.35 q -1.6,1.85 0.85,3.8 l 0.25,0.15 q 0.65,0.45 1.25,0.5 v 0.05 l 0.05,0.25 -0.05,0.25 0.1,0.25 0.25,0.5 0.15,0.5 0.1,0.1 0.4,0.25 0.3,0.15 0.05,0.05 0.15,0.3 0.1,0.2 0.25,0.5 -0.15,1.75 v 0.2 l -0.4,1 -1.2,1.1 -0.5,0.4 -3,0.2 -0.6,-0.1 -0.1,-0.05 -0.55,-0.5 -0.95,-1.25 -0.25,-0.5 -1,-1.1 -2.3,-2.65 q -1.85,1.45 -3.8,2.8 -1.15,0.75 -2.35,1.05 l -1.45,-2.15 -0.75,-0.35 -0.95,-0.2 q -0.7,0 -1.3,0.55 l -0.1,0.1 v -0.05 l 0.1,-0.2 0.2,-0.25 0.2,-0.3 0.25,-0.25 q 2.3,-4 5.35,-7.45 l -2.15,-4.05 q -2.2,-1.35 -2.2,-3.75 -0.05,-2.15 1.25,-3.25 l 2.2,-0.5 q 4.85,1.5 8.15,5.05 l 2.1,-1.2 0.15,-0.25 0.2,-0.25 0.2,-0.25 0.35,-0.15 0.15,-0.05 0.4,-0.1 0.05,-0.05 1.55,0.25 2.7,1.35 m -5,1.15 -1.55,1.15 1.4,2.2 0.3,-0.35 q 1.1,-1.2 1.85,-2.65 l -1.45,-0.35 H -7.1 m -5.8,1.7 0.15,-0.1 -3.85,-3.2 q -0.9,-0.6 -1.75,-0.45 l 3.4,5.7 2.05,-1.95 m -3.35,6.7 q -1.25,1.45 -2.05,3.2 l -0.85,1.05 -0.2,0.45 4.65,-3.1 -1.2,-1.8 -0.05,-0.1 -0.3,0.3 m 3.55,-1.7 0.65,1.2 2.5,-2.2 -1.7,-2.4 -2.4,2.3 0.95,1.1 m 5.05,6.95 q 0.8,0.8 1.3,1.8 1.15,0.8 1.8,-0.25 l 0.1,-0.75 v -0.25 l -0.9,-1.5 q -0.3,-0.45 -0.25,-1 l -0.3,-0.4 -2.15,-2.8 -2.15,2.15 2.3,2.75 0.25,0.25"
         fill="#333333"
         fill-rule="evenodd"
         stroke="none"
         id="path2" />
      <path
         d="m -2.1,-23.2 3.7,1.85 1.5,0.8 -2.5,8.1 -2.75,3.6 -0.3,-0.15 -0.4,-0.25 -0.1,-0.1 -0.15,-0.5 -0.25,-0.5 -0.1,-0.25 0.05,-0.25 -0.05,-0.25 v -0.05 q 0.8,0 1.5,-0.8 2.1,-2.55 0.45,-4 -0.7,-0.6 -2.05,-1.05 l -1.1,0.4 -1.15,1 -0.15,-0.35 q 2.3,-2.75 4.15,-5.85 v -0.25 -0.2 l -0.05,-0.3 -0.05,-0.2 -0.05,-0.3 -0.15,-0.15 m -39.85,28.85 0.35,-5.05 1.2,-10.1 0.2,-2 0.05,-0.5 1.2,-0.45 1.2,-0.25 1.9,-0.4 1.1,3.25 q 0.8,2.6 3.45,2.6 1.65,-0.05 3.2,-0.65 2.95,-1.15 3.55,-4.05 1.35,-6.95 1.55,-14.3 l 2.15,-0.7 0.55,-0.1 q -1.3,1.1 -1.25,3.25 0,2.4 2.2,3.75 l 2.15,4.05 q -3.05,3.45 -5.35,7.45 l -0.25,0.25 -0.2,0.3 -0.2,0.25 -0.1,0.2 v 0.05 l -0.85,0.85 q -3.5,0.6 -6.4,2.35 -0.45,1.55 -0.5,3.25 v 3.6 q -0.45,0.7 -0.35,1.55 0.25,1.25 1.55,1.35 l 5.5,0.35 3.35,0.05 0.8,-0.25 0.85,-0.6 q 4.15,-3.15 1.5,-7.85 -0.15,-1.15 -0.7,-2.2 l -0.2,-0.4 q 1.2,-0.3 2.35,-1.05 1.95,-1.35 3.8,-2.8 l 2.3,2.65 1,1.1 0.25,0.5 0.95,1.25 0.55,0.5 0.1,0.05 -0.75,0.6 Q -8.95,-2 -9.85,-1.8 l -1.4,2.3 -0.95,1.2 -3,5.1 q -0.55,1 -1.5,1.65 -5.75,0.85 -11.25,2.35 l -0.25,0.25 -0.25,0.15 -2.05,0.05 -0.6,-0.35 Q -36.6,8.45 -41.95,5.65 m 23.85,-33.2 q 1.95,-0.55 3.85,-1.4 4.8,2.1 9.45,4.4 l -1.55,-0.25 -0.05,0.05 -0.4,0.1 -0.15,0.05 -0.35,0.15 -0.2,0.25 -0.2,0.25 -0.15,0.25 -2.1,1.2 q -3.3,-3.55 -8.15,-5.05 m 28.35,16.85 q -3.05,2.45 -5,5.85 l 0.05,0.2 0.05,0.2 0.05,0.2 q -1.8,0.6 -3.35,1.55 l 2.5,-6.8 0.75,-2.1 0.65,0.15 4.05,0.45 0.1,0.15 0.15,0.15 M 12.9,8.9 12.95,8.8 q 10.05,-5 21,-8.1 l 3.5,-1.25 q 0.85,-0.05 1,0.7 v 0.5 Q 33.6,3.45 28.3,5.7 H 28.2 L 27.85,5.9 24,7.4 16.7,9.95 q -0.55,-0.9 -2.3,-1.5 -0.55,0 -1.05,0.35 L 13.1,9 12.8,9.25 12.9,8.9 m 11.75,-11.25 0.5,0.05 0.55,0.1 0.3,0.3 0.15,0.2 0.15,0.5 v 0.25 l -0.1,0.25 -0.25,0.5 -2.65,0.95 -0.65,0.2 -0.3,0.25 -0.2,0.2 -4.3,1.55 -0.4,0.1 L 16.9,2.85 16.65,2.65 16.4,2.4 16.35,2.15 V 1.9 l 0.1,-0.75 1.2,-1.1 0.55,-0.4 5.95,-1.9 0.5,-0.1 m -37.35,-13 -0.95,-1.1 2.4,-2.3 1.7,2.4 -2.5,2.2 -0.65,-1.2 m -3.55,1.7 0.3,-0.3 0.05,0.1 1.2,1.8 -4.65,3.1 0.2,-0.45 0.85,-1.05 q 0.8,-1.75 2.05,-3.2 m 3.35,-6.7 -2.05,1.95 -3.4,-5.7 q 0.85,-0.15 1.75,0.45 l 3.85,3.2 -0.15,0.1 m 5.8,-1.7 h 0.55 l 1.45,0.35 q -0.75,1.45 -1.85,2.65 l -0.3,0.35 -1.4,-2.2 1.55,-1.15 m -0.55,13.65 -0.25,-0.25 -2.3,-2.75 2.15,-2.15 2.15,2.8 0.3,0.4 q -0.05,0.55 0.25,1 l 0.9,1.5 v 0.25 l -0.1,0.75 q -0.65,1.05 -1.8,0.25 -0.5,-1 -1.3,-1.8"
         fill="#443d3d"
         fill-rule="evenodd"
         stroke="none"
         id="path3" />
      <path
         d="m -2.15,-8.85 2.75,-3.6 -1.75,4.9 -0.6,1.7 v -0.2 L -1.6,-7.8 -1.85,-8.3 -1.95,-8.5 -2.1,-8.8 -2.15,-8.85 m 0,4 Q -5.6,4.2 -9.6,12.95 -20.25,13.3 -30.7,14.8 l -1.1,-1.5 q -0.8,-0.8 -1.8,-1.2 -4.15,-1.55 -8.35,-0.95 v -5.5 q 5.35,2.8 10.85,5.25 l 0.6,0.35 2.05,-0.05 0.25,-0.15 0.25,-0.25 q 5.5,-1.5 11.25,-2.35 0.95,-0.65 1.5,-1.65 l 3,-5.1 0.95,-1.2 1.4,-2.3 q 0.9,-0.2 1.65,-0.85 l 0.75,-0.6 0.6,0.1 3,-0.2 0.5,-0.4 1.2,-1.1 m -9.7,9.65 q -0.55,0 -1.1,0.4 -3.5,2.5 -0.05,4.95 1.55,1.15 2.75,-0.3 3,-3.55 -1.6,-5.05"
         fill="#332d2d"
         fill-rule="evenodd"
         stroke="none"
         id="path4" />
      <path
         d="M 9.05,6.9 9.3,3.65 9.5,1.8 9.9,-1.3 v -0.15 q 0.7,-1.05 0.35,-2.6 l 0.1,-0.65 3.1,-1.7 q 5,-3.25 10.35,-5.85 2.3,2.4 4.25,5.65 3.4,5.6 8.1,1.4 l 4.1,-0.3 v 8.65 q -1.1,2.65 -3.3,4.7 -0.9,0.85 -1.4,1.95 l -2.2,0.25 0.1,-0.6 -0.8,-1.35 Q 31.05,6.15 28.7,5.65 V 5.7 H 28.3 Q 33.6,3.45 38.45,0.65 v -0.5 q -0.15,-0.75 -1,-0.7 L 33.95,0.7 Q 23,3.8 12.95,8.8 L 12.9,8.9 10.1,7.5 9.55,7.05 9.05,6.9 m 5.7,-10.9 -0.5,0.15 q -1.85,0.95 -2,2.1 -0.05,0.5 0.2,1.05 0.3,0.65 1.05,1.4 0.75,0.75 1.65,0.2 4.4,-2.75 -0.4,-4.9 m 9.9,1.65 -0.5,0.1 -5.95,1.9 -0.55,0.4 -1.2,1.1 -0.1,0.75 v 0.25 l 0.05,0.25 0.25,0.25 0.25,0.2 0.55,0.2 0.4,-0.1 4.3,-1.55 0.2,-0.2 0.3,-0.25 0.65,-0.2 2.65,-0.95 0.25,-0.5 0.1,-0.25 V -1.2 L 26.15,-1.7 26,-1.9 25.7,-2.2 25.15,-2.3 24.65,-2.35 m -3.1,14.3 q -2.35,0.2 -4.7,-0.65 0.2,-0.75 -0.15,-1.35 L 24,7.4 27.85,5.9 27.25,6.2 q -3.1,1.8 -5.7,4.15 -0.2,0.8 0,1.6"
         fill="#696262"
         fill-rule="evenodd"
         stroke="none"
         id="path5" />
      <path
         d="m 9.05,6.9 0.5,0.15 0.55,0.45 2.8,1.4 -0.1,0.35 q -2.15,1.9 0.35,3.95 l 2.5,-0.1 q 0.95,-1 1.2,-1.8 2.35,0.85 4.7,0.65 l 0.1,0.35 q 1.7,4.75 6.3,4.85 1.55,-0.85 2.7,-2.1 2.1,-2.25 2.7,-5 l 2.2,-0.25 q 0.5,-1.1 1.4,-1.95 2.2,-2.05 3.3,-4.7 v 1.2 6 l -4.5,4.35 -5.7,5.2 -21.3,-4.25 Q 8.7,11.25 9.05,6.9 M 4.55,5.4 4.4,7.3 l -6.9,0.75 2.35,-5.4 2.3,-1 q 1.4,-0.6 2.9,-0.95 l -0.5,4.7"
         fill="#524c4c"
         fill-rule="evenodd"
         stroke="none"
         id="path6" />
    </g>
    <g
       id="sprite1"
       transform="translate(17.4,15.85)">
      <use
         ffdec:characterId="31"
         height="57.200001"
         transform="matrix(0.5366,0,0,0.5366,-16.6582,-14.546)"
         width="70.75"
         xlink:href="#sprite2"
         id="use6" />
    </g>
    <g
       id="sprite2"
       transform="translate(-8.65,-10.35)">
      <use
         ffdec:characterId="30"
         height="57.200001"
         transform="translate(8.65,10.35)"
         width="70.75"
         xlink:href="#shape1"
         id="use7" />
    </g>
    <g
       id="shape1"
       transform="translate(-8.65,-10.35)">
      <path
         d="m 14.8,41.7 q 0.65,-1.75 2.65,-2.5 1.8,-0.8 3.7,-0.25 1.15,0.45 2.25,1.2 l 0.9,0.4 q 1.65,0.9 2.85,2.5 L 37.8,30.1 q 2.35,-2.8 3.75,-3.95 1.5,-1.15 4.25,-2.4 18.2,-8.85 27.65,-12.6 2.15,-0.8 3.25,-0.8 h 0.8 l 1.9,2.4 -0.2,0.8 q -0.2,1.1 -1.55,3 -5.85,8.25 -18.85,23.8 -1.85,2.35 -3.35,3.5 -1.4,1.15 -4.75,2.75 l -15.15,7.15 q 1.2,1.6 1.75,3.4 l 0.2,1 0.55,2.5 q 0.1,1.95 -1.1,3.55 -1.2,1.65 -3.05,1.9 l -1.3,0.05 q -1.65,0.2 -3.45,-0.65 -1.85,-0.9 -3,-2.6 L 25,60.95 23.8,62.1 q -2.6,2.85 -4.3,3.95 -2.85,1.8 -5.5,1.45 l -1.65,-0.5 -1.2,-0.7 -0.2,-0.2 q -1,-0.85 -1.6,-1.9 L 9.25,64 9.15,63.8 8.75,62.4 q -0.2,-0.8 -0.05,-1.7 0.25,-2.65 2.7,-5.05 1.5,-1.3 4.9,-3.15 L 17.7,51.55 16.05,50 q -1.35,-1.5 -1.8,-3.6 -0.4,-1.85 0.25,-3.45 l 0.3,-1.25"
         fill="#000000"
         fill-opacity="0.372549"
         fill-rule="evenodd"
         stroke="none"
         id="path7" />
    </g>
  </defs>
</svg>
