<?xml version="1.0" encoding="UTF-8" standalone="no"?>
<svg
   ffdec:objectType="frame"
   height="72.896187"
   width="94.657829"
   version="1.1"
   id="svg5"
   xmlns:xlink="http://www.w3.org/1999/xlink"
   xmlns="http://www.w3.org/2000/svg"
   xmlns:svg="http://www.w3.org/2000/svg"
   xmlns:ffdec="https://www.free-decompiler.com/flash">
  <g
     transform="translate(48.054891,37.353333)"
     id="g1">
    <use
       ffdec:characterId="17"
       height="119.15"
       id="rarity"
       transform="translate(-58.5,-60.65)"
       width="119.15"
       xlink:href="#sprite0" />
    <use
       ffdec:characterId="1269"
       height="72.900002"
       transform="translate(-48.05,-37.35)"
       width="94.650002"
       xlink:href="#shape0"
       id="use1" />
  </g>
  <defs
     id="defs5">
    <g
       id="shape0"
       transform="translate(46.75,35.45)">
      <path
         d="m -24.25,-19.7 q 0.65,-3.95 2.15,-5.85 1.95,-2.5 5.75,-3.45 l 6.85,-0.8 4.6,-0.45 q 3.15,-0.45 4.8,-1.6 l 1.9,-1.55 1.9,-1.4 q 1.5,-0.7 3.6,-0.65 l 3.7,0.5 2.8,0.75 q 1.3,0.75 2.65,3.1 3.25,5.55 6.45,12.45 5.85,-1.65 10.35,-1.45 5.8,0.15 10,3 2.4,1.55 3.5,3.65 1.4,2.55 1.1,7.25 -0.2,5.7 -1.6,11.35 -1,3.95 -2.25,6.35 -1.5,2.8 -4.35,5.45 l -5.55,4.5 -6.5,4.9 -5.35,3.9 q -3.05,2.05 -5.8,3.2 -3.7,1.55 -8.7,2.35 l -9,0.9 -5.95,0.4 q -8.6,0.6 -12.85,0.15 -4.85,-0.6 -7,-2.55 -1.25,-1.15 -2.35,-3.5 l -0.35,-0.95 -0.25,-1.15 0.05,-1.45 -0.1,-1.45 q -0.15,-0.65 -0.7,-0.9 -0.35,-0.2 -1.2,0 -1.5,0.45 -3,1.3 l -1.5,0.9 q -0.85,0.5 -1.6,0.55 -2.35,0.2 -4.4,-3.05 -4.45,-6.75 -4.3,-14.9 0.1,-4.55 1.7,-7.8 Q -44,0.2 -41.9,-2 l 3.95,-3.65 3.9,-3 q 2.75,-1.55 8.25,-2.5 l 0.9,-0.1 0.65,-8.45 m 29.15,-7.2 0.9,-0.05 0.65,0.55 q 0.25,0.5 0,1.2 l -0.7,1 -0.8,0.7 -0.8,0.4 Q 3.6,-23 3.3,-23.25 2.8,-23.6 3,-24.3 l 0.55,-1.1 0.55,-0.75 0.8,-0.75 M 18.2,-18 13,-27.85 12,-29.3 11.9,-29.35 Q 11.3,-29.8 9.95,-30.1 l -1.4,-0.2 -2.25,0.15 q -0.75,0.25 -1.6,0.95 l -1.5,1.3 q -3,2.4 -9.05,3.05 l -4.8,0.35 -4.8,0.8 -0.3,0.1 q -0.9,0.25 -1.55,0.7 -0.75,0.65 -1.3,2 l -0.1,0.3 q -0.7,2.15 -0.9,6.7 L -20.2,-1 q -0.05,1.3 -0.25,2.2 l 1.75,0.75 0.6,0.3 3.2,1.35 0.3,0.1 1.35,0.35 L -9.1,4.5 -3.5,4.25 2.3,3.7 Q 7.55,3.1 9.9,2 12.1,0.95 14.55,-1.35 18.9,-5.45 22.1,-10.6 L 22.05,-10.75 18.2,-18 m -25.15,0.25 -1.75,-0.75 -0.65,-0.15 q -0.85,-0.25 -1.1,-0.45 -1.05,-0.6 -0.75,-1.55 0.3,-0.75 1.4,-0.75 l 1.65,0.5 0.45,0.15 2.65,0.5 3.2,0.3 2.8,0.2 q 1,-0.15 2.1,-0.8 2.15,-1.25 3.2,-2.6 L 7.05,-24.3 8,-25.35 q 1,-0.7 1.65,-0.15 0.65,0.45 0.3,1.65 l -0.1,0.3 Q 9.1,-21.8 7.4,-20.2 l -3.35,2.55 q -1,0.7 -1.6,0.95 -1,0.45 -2.45,0.4 l -2.55,-0.3 -4,-1 -0.4,-0.15 m 45.4,28.2 q 1.3,-1.8 1.95,-3.65 l 1.1,-4.35 q 1.15,-6.55 1.25,-9.45 0.1,-2.2 -0.5,-3.5 -0.6,-1.35 -2.45,-2.55 -3.2,-2.05 -7.9,-2.2 l -7.3,0.3 1.2,2.95 0.1,0.25 0.3,0.15 0.25,0.2 0.45,0.95 0.1,1.1 q 0.1,3.7 -1.05,7.15 l -0.5,1.45 -1.15,2.2 -2.6,3 -0.25,0.3 3.15,0.4 q 0.9,0.1 1.2,0.55 0.25,0.35 0.15,1.2 l -0.3,1.5 -1.2,3.15 -0.6,0.9 q -0.4,0.35 -1.6,0.45 l -1.8,0.05 -1.9,-0.2 H 18.4 q -3.65,-0.6 -5.3,-2 l -0.2,-0.2 -0.05,-0.05 -0.1,0.05 -0.2,0.1 v 0.5 l -0.05,4.4 -0.4,2.3 q -0.3,1.85 -0.95,2.5 L 10.1,21.1 Q 9.35,21.6 8.8,21.7 L 7.2,21.85 5.75,22.1 q -1.2,0 -1.7,-0.95 Q 3.8,20.45 4.2,19.1 L 4.95,16.8 5.45,14.45 5.5,13.8 5.6,13.25 5.55,13.3 -0.25,13.95 Q -8.7,14.4 -14.2,12.6 -17.7,11.4 -20.4,9.3 L -20.45,9.25 Q -23.3,6.9 -24.8,3.9 -25.35,2.85 -25.25,2.1 L -25.4,1.65 q -0.3,-1.05 0,-3.2 l 0.35,-4.6 V -6.2 l -2.5,0.7 q -2.55,0.75 -3.9,1.5 -1.5,0.85 -3.7,2.75 l -3.4,3.15 q -1.75,1.9 -2.45,3.8 -0.6,1.6 -0.7,3.65 -0.45,6.65 3.35,12.3 l 0.55,0.6 1.2,-0.2 3.65,-1.5 3.9,0.15 q 2.2,0.9 2.95,3.45 0.55,1.7 0.3,3.75 0.5,0.4 0.9,1.1 l 0.6,1.25 0.75,1.05 1.45,0.65 1.05,0.1 q 5.4,0.35 12.2,-0.05 L 3.3,30.9 q 6.8,-0.7 10.25,-1.95 3.4,-1.2 7.4,-4.05 l 6.8,-5.2 3.7,-2.7 3.6,-2.85 q 2.05,-1.8 3.4,-3.7 m -19.95,-8.3 2.55,-3.1 q 1.4,-2.2 1.85,-4.65 -2.55,3.6 -6.25,7 L 15.8,2.2 16.1,2.55 16.6,4 18.5,2.15 M -10.9,8.85 1.1,9.4 5.8,8.7 6.2,8.6 7.25,8.3 Q 7.05,7.8 7.1,7.1 L 7.15,6.6 6.6,6.7 4.55,7.05 l -13.2,1 -5.95,-0.6 -1.65,-0.6 q 2.35,1.3 5.35,2 m -10.5,9.3 1.05,-0.4 0.9,0.15 1.8,0.05 1.05,0.4 q 2.1,1.05 3,1.95 1.45,1.45 1.25,3.2 l -0.5,2.3 -0.8,1.3 q -0.6,0.8 -1.3,1.2 l -1.55,0.55 -1.55,0.3 -1.35,-0.1 -1.65,-0.35 q -1.05,-0.35 -1.65,-0.8 l -1.1,-1.15 -0.7,-1.05 -0.2,-1.35 0.2,-2.05 0.6,-1.2 q 0.1,-0.7 0.75,-1.5 l 1.1,-1.05 0.65,-0.4 m 5.25,6.55 0.2,-0.8 0.2,-0.9 q 0,-0.3 -0.45,-0.65 -0.7,-0.5 -1.8,-0.8 l -2,-0.4 h -0.4 l -0.25,0.15 -0.15,0.3 -0.45,1.1 -0.15,0.95 q 0.1,0.6 0.9,1.1 1.75,1.05 3.75,0.4 l 0.6,-0.45 M 17.8,7.95 16.25,8.85 16.65,9 20.8,9.75 q 1.1,0.2 1.5,-0.35 L 22.5,9 22.95,7.85 Q 20.4,7.65 19.15,7.8 h -1 -0.1 L 17.8,7.95 M 11.5,6.6 11.7,6.55 13.9,5.55 13.85,5.5 13.5,5.55 11.3,6.25 11.1,6.35 Q 10.9,6.55 11,6.8 V 6.85 L 11.5,6.6 M 8.45,12.7 7.95,15.9 7.3,18.4 8.6,18.15 8.9,17.9 9.1,17.35 9.55,14.9 V 13.55 L 9.5,12 8.55,12.35 8.45,12.7"
         fill="#000000"
         fill-rule="evenodd"
         stroke="none"
         id="path1" />
      <path
         d="M -13.25,4.05 -14.6,3.7 -14.9,3.6 -18.1,2.25 -18.7,1.95 -20.45,1.2 q 0.2,-0.9 0.25,-2.2 l 0.6,-12.9 q 0.2,-4.55 0.9,-6.7 l 0.1,-0.3 q 0.55,-1.35 1.3,-2 0.65,-0.45 1.55,-0.7 l 0.3,-0.1 4.8,-0.8 4.8,-0.35 Q 0.2,-25.5 3.2,-27.9 l 1.5,-1.3 q 0.85,-0.7 1.6,-0.95 l 2.25,-0.15 1.4,0.2 q 1.35,0.3 1.95,0.75 l 0.1,0.05 1,1.45 5.2,9.85 -0.2,-0.2 -2.9,-3 -4.05,-4.05 -1.1,1.4 Q 10.3,-25.05 9.65,-25.5 9,-26.05 8,-25.35 l -0.95,1.05 -0.8,1.15 q -1.05,1.35 -3.2,2.6 -1.1,0.65 -2.1,0.8 l -2.8,-0.2 -3.2,-0.3 -2.65,-0.5 -0.45,-0.15 -1.65,-0.5 q -1.1,0 -1.4,0.75 -0.3,0.95 0.75,1.55 0.25,0.2 1.1,0.45 l 0.65,0.15 1.75,0.75 -3.25,-0.1 -2,2.1 q -1,1.1 -1.2,1.8 l -0.25,2.2 0.6,7.1 0.4,3.6 q 0.15,2 -0.15,3.55 -0.15,0.9 -0.45,1.55 M 4.9,-26.9 4.1,-26.15 3.55,-25.4 3,-24.3 q -0.2,0.7 0.3,1.05 0.3,0.25 0.85,0.15 l 0.8,-0.4 0.8,-0.7 0.7,-1 q 0.25,-0.7 0,-1.2 L 5.8,-26.95 4.9,-26.9 m 22,16.45 -0.45,-0.95 -0.25,-0.2 -0.3,-0.15 -0.1,-0.25 -1.2,-2.95 7.3,-0.3 q 4.7,0.15 7.9,2.2 1.85,1.2 2.45,2.55 0.6,1.3 0.5,3.5 -0.1,2.9 -1.25,9.45 L 40.4,6.8 q -0.65,1.85 -1.95,3.65 L 38.55,9.1 Q 38.65,8.15 37.9,6.15 35.45,-0.5 33.55,-3.65 31.65,-6.7 29.4,-8.7 l -2.5,-1.75 m -49,42.4 -1.45,-0.65 -0.75,-1.05 -0.6,-1.25 q -0.4,-0.7 -0.9,-1.1 0.25,-2.05 -0.3,-3.75 -0.75,-2.55 -2.95,-3.45 l -3.9,-0.15 -3.65,1.5 -1.2,0.2 -0.55,-0.6 Q -42.15,16 -41.7,9.35 -41.6,7.3 -41,5.7 q 0.7,-1.9 2.45,-3.8 l 3.4,-3.15 q 2.2,-1.9 3.7,-2.75 1.35,-0.75 3.9,-1.5 l 2.5,-0.7 v 0.05 l -0.35,4.6 q -0.3,2.15 0,3.2 l 0.15,0.45 q -0.1,0.75 0.45,1.8 1.5,3 4.35,5.35 l 0.05,0.35 q 0.45,2.5 -0.05,4.85 l -0.95,3.7 -0.65,0.4 -1.1,1.05 q -0.65,0.8 -0.75,1.5 l -0.6,1.2 -0.2,2.05 0.2,1.35 0.7,1.05 1.1,1.15 q 0.6,0.45 1.65,0.8 0.15,1.35 -0.35,2.3 l -0.7,0.95"
         fill="#6e5f54"
         fill-rule="evenodd"
         stroke="none"
         id="path2" />
      <path
         d="m -13.25,4.05 q 0.3,-0.65 0.45,-1.55 0.3,-1.55 0.15,-3.55 l -0.4,-3.6 -0.6,-7.1 0.25,-2.2 q 0.2,-0.7 1.2,-1.8 l 2,-2.1 3.25,0.1 0.4,0.15 4,1 2.55,0.3 q 1.45,0.05 2.45,-0.4 0.6,-0.25 1.6,-0.95 L 7.4,-20.2 q 1.7,-1.6 2.45,-3.35 l 0.1,-0.3 1.1,-1.4 4.05,4.05 2.9,3 0.2,0.2 3.85,7.25 0.05,0.15 Q 18.9,-5.45 14.55,-1.35 12.1,0.95 9.9,2 7.55,3.1 2.3,3.7 L -3.5,4.25 -9.1,4.5 -13.25,4.05 m 40.15,-14.5 2.5,1.75 q 2.25,2 4.15,5.05 1.9,3.15 4.35,9.8 0.75,2 0.65,2.95 l -0.1,1.35 q -1.35,1.9 -3.4,3.7 l -3.6,2.85 -3.7,2.7 -6.8,5.2 q -4,2.85 -7.4,4.05 Q 10.1,30.2 3.3,30.9 L -8.85,32 q -6.8,0.4 -12.2,0.05 l -1.05,-0.1 0.7,-0.95 q 0.5,-0.95 0.35,-2.3 l 1.65,0.35 1.35,0.1 1.55,-0.3 1.55,-0.55 q 0.7,-0.4 1.3,-1.2 l 0.8,-1.3 0.5,-2.3 q 0.2,-1.75 -1.25,-3.2 -0.9,-0.9 -3,-1.95 l -1.05,-0.4 -1.8,-0.05 -0.9,-0.15 -1.05,0.4 0.95,-3.7 q 0.5,-2.35 0.05,-4.85 l -0.05,-0.35 0.05,0.05 q 2.7,2.1 6.2,3.3 5.5,1.8 13.95,1.35 L 5.55,13.3 5.6,13.25 5.5,13.8 5.45,14.45 4.95,16.8 4.2,19.1 q -0.4,1.35 -0.15,2.05 0.5,0.95 1.7,0.95 L 7.2,21.85 8.8,21.7 q 0.55,-0.1 1.3,-0.6 l 1.05,-0.75 q 0.65,-0.65 0.95,-2.5 l 0.4,-2.3 0.05,-4.4 v -0.5 l 0.2,-0.1 0.1,-0.05 0.05,0.05 0.2,0.2 q 1.65,1.4 5.3,2 h 0.15 l 1.9,0.2 1.8,-0.05 q 1.2,-0.1 1.6,-0.45 l 0.6,-0.9 1.2,-3.15 0.3,-1.5 Q 26.05,6.05 25.8,5.7 25.5,5.25 24.6,5.15 l -3.15,-0.4 0.25,-0.3 2.6,-3 1.15,-2.2 0.5,-1.45 Q 27.1,-5.65 27,-9.35 l -0.1,-1.1"
         fill="#4f443d"
         fill-rule="evenodd"
         stroke="none"
         id="path3" />
      <path
         d="m -10.9,8.85 q -3,-0.7 -5.35,-2 l 1.65,0.6 5.95,0.6 13.2,-1 L 6.6,6.7 7.15,6.6 7.1,7.1 Q 7.05,7.8 7.25,8.3 L 6.2,8.6 5.8,8.7 1.1,9.4 -10.9,8.85 M 18.5,2.15 16.6,4 16.1,2.55 15.8,2.2 16.65,1.4 q 3.7,-3.4 6.25,-7 -0.45,2.45 -1.85,4.65 L 18.5,2.15 M 8.45,12.7 8.55,12.35 9.5,12 9.55,13.55 V 14.9 L 9.1,17.35 8.9,17.9 8.6,18.15 7.3,18.4 7.95,15.9 8.45,12.7 M 11.5,6.6 11,6.85 V 6.8 Q 10.9,6.55 11.1,6.35 l 0.2,-0.1 2.2,-0.7 0.35,-0.05 0.05,0.05 -2.2,1 -0.2,0.05 m 6.3,1.35 0.25,-0.15 h 0.1 1 q 1.25,-0.15 3.8,0.05 L 22.5,9 22.3,9.4 Q 21.9,9.95 20.8,9.75 L 16.65,9 16.25,8.85 17.8,7.95"
         fill="#292625"
         fill-rule="evenodd"
         stroke="none"
         id="path4" />
    </g>
    <g
       id="sprite1"
       transform="translate(17.4,15.85)">
      <use
         ffdec:characterId="31"
         height="57.200001"
         transform="matrix(0.5366,0,0,0.5366,-16.6582,-14.546)"
         width="70.75"
         xlink:href="#sprite2"
         id="use4" />
    </g>
    <g
       id="sprite2"
       transform="translate(-8.65,-10.35)">
      <use
         ffdec:characterId="30"
         height="57.200001"
         transform="translate(8.65,10.35)"
         width="70.75"
         xlink:href="#shape1"
         id="use5" />
    </g>
    <g
       id="shape1"
       transform="translate(-8.65,-10.35)">
      <path
         d="m 14.8,41.7 q 0.65,-1.75 2.65,-2.5 1.8,-0.8 3.7,-0.25 1.15,0.45 2.25,1.2 l 0.9,0.4 q 1.65,0.9 2.85,2.5 L 37.8,30.1 q 2.35,-2.8 3.75,-3.95 1.5,-1.15 4.25,-2.4 18.2,-8.85 27.65,-12.6 2.15,-0.8 3.25,-0.8 h 0.8 l 1.9,2.4 -0.2,0.8 q -0.2,1.1 -1.55,3 -5.85,8.25 -18.85,23.8 -1.85,2.35 -3.35,3.5 -1.4,1.15 -4.75,2.75 l -15.15,7.15 q 1.2,1.6 1.75,3.4 l 0.2,1 0.55,2.5 q 0.1,1.95 -1.1,3.55 -1.2,1.65 -3.05,1.9 l -1.3,0.05 q -1.65,0.2 -3.45,-0.65 -1.85,-0.9 -3,-2.6 L 25,60.95 23.8,62.1 q -2.6,2.85 -4.3,3.95 -2.85,1.8 -5.5,1.45 l -1.65,-0.5 -1.2,-0.7 -0.2,-0.2 q -1,-0.85 -1.6,-1.9 L 9.25,64 9.15,63.8 8.75,62.4 q -0.2,-0.8 -0.05,-1.7 0.25,-2.65 2.7,-5.05 1.5,-1.3 4.9,-3.15 L 17.7,51.55 16.05,50 q -1.35,-1.5 -1.8,-3.6 -0.4,-1.85 0.25,-3.45 l 0.3,-1.25"
         fill="#000000"
         fill-opacity="0.372549"
         fill-rule="evenodd"
         stroke="none"
         id="path5" />
    </g>
  </defs>
</svg>
