<?xml version="1.0" encoding="UTF-8" standalone="no"?>
<svg
   ffdec:objectType="frame"
   height="86.684998"
   width="48.76149"
   version="1.1"
   id="svg5"
   xmlns:xlink="http://www.w3.org/1999/xlink"
   xmlns="http://www.w3.org/2000/svg"
   xmlns:svg="http://www.w3.org/2000/svg"
   xmlns:ffdec="https://www.free-decompiler.com/flash">
  <g
     transform="translate(27.21125,44.35)"
     id="g1">
    <use
       ffdec:characterId="17"
       height="119.15"
       id="rarity"
       transform="translate(-58.5,-60.65)"
       width="119.15"
       xlink:href="#sprite0" />
    <use
       ffdec:characterId="513"
       height="86.699997"
       transform="translate(-27.2,-44.35)"
       width="48.75"
       xlink:href="#shape0"
       id="use1" />
  </g>
  <defs
     id="defs5">
    <g
       id="shape0"
       transform="translate(26.8,43.55)">
      <path
         d="m 14.8,-37.5 q -10.05,9 -15.95,20.95 l -0.35,0.7 q 3.25,-0.2 5.35,2.25 0.35,-2.5 1.1,-4.85 2.15,-6.55 6.9,-11.8 l 4.4,-5.15 0.15,-0.65 -0.2,-0.85 q -0.25,-0.5 -0.85,-0.65 l -0.55,0.05 m -0.9,-6.05 q 9.15,0.4 7.9,9.15 -0.5,3.4 -3.1,5.9 -7.15,6.85 -8.75,16.3 -0.35,2 -0.25,4.05 l 0.4,7.05 q 2.2,9.8 2.35,20 0.1,6.6 -2.5,12.35 -4.1,8.8 -13.5,11.15 -12.7,3.15 -19.75,-7.2 -5.3,-7.8 -2.6,-17.15 l 0.55,-1.25 q 2.15,-10.55 8,-19.75 l 7.9,-12 1.4,-2.4 q 7.6,-15.65 21.45,-26 l 0.5,-0.2 m -28.3,74.85 -0.05,-0.1 -0.1,-0.25 -0.25,-0.4 V 30.3 30.1 l 0.15,-0.7 0.5,-0.5 0.3,-0.05 0.35,0.15 0.15,0.15 0.15,0.25 q 3.95,1.3 7.75,-0.8 l 1.7,-1.3 0.1,-0.2 0.05,-0.2 0.8,-1.4 0.75,-0.95 0.05,-0.25 0.05,-0.2 0.05,-0.2 0.3,-0.45 1,-1.85 q 0.4,-0.85 0.5,-1.8 l 0.55,-1.25 0.9,-3.3 0.25,-1 L 1.75,14 1.9,13.8 v -0.45 q 0,-0.75 0.15,-1.5 0.2,-0.9 0.55,-1.7 L 2.65,5.2 2.8,-1.45 V -2.1 L 2.75,-2.2 2.7,-2.3 2.6,-2.5 2.55,-3.05 v -0.1 L 2.6,-3.5 Q 2.9,-6.7 1.55,-8.55 L 1.45,-8.95 1.25,-9.15 1.1,-9.35 0.75,-10 0.5,-10.65 -0.2,-10.8 -2.65,-11.25 -3,-10.95 h -0.05 l -0.4,0.1 q -1.9,0.5 -3.55,1.85 -3.2,2.6 -4.95,6.15 l -0.25,0.2 q -1.7,3.05 -3,6.3 l -2.85,7 -0.8,3.4 -0.8,2.8 -0.05,1.1 -0.45,1.3 -0.35,4.1 -0.15,3.4 0.7,1.9 0.45,1.5 2.15,2.85 q 1.3,1.4 2.9,2.3 1.9,1.1 4.2,1.45 l 3.9,0.15 Q 1.6,35.5 4.8,28.35 l 0.75,-1.3 0.3,-1.45 Q 6.8,20.15 6.45,14.55 L 6.3,12.1 6.2,11.05 6.15,11.3 Q 5.65,14.5 4.6,17.5 L 4.55,17.75 4.5,17.95 4.4,18.8 3.95,19.65 q -1.75,7.55 -7.65,12.2 -2,1.55 -4.65,1.45 l -4.65,-0.6 -0.25,-0.25 -0.25,-0.2 -0.7,-0.65 -0.15,-0.2 -0.05,-0.1"
         fill="#000000"
         fill-rule="evenodd"
         stroke="none"
         id="path1" />
      <path
         d="m 14.8,-37.5 0.55,-0.05 q 0.6,0.15 0.85,0.65 l 0.2,0.85 -0.15,0.65 -4.4,5.15 q -4.75,5.25 -6.9,11.8 -0.75,2.35 -1.1,4.85 -2.1,-2.45 -5.35,-2.25 l 0.35,-0.7 Q 4.75,-28.5 14.8,-37.5"
         fill="#5f5f5f"
         fill-rule="evenodd"
         stroke="none"
         id="path2" />
      <path
         d="m -14.45,35.3 q -0.85,-1.05 -0.7,-2.5 l 0.1,-0.35 0.1,-0.3 0.25,-0.6 0.3,-0.25 0.05,0.1 0.15,0.2 0.7,0.65 0.25,0.2 0.25,0.25 4.65,0.6 Q -5.7,33.4 -3.7,31.85 2.2,27.2 3.95,19.65 L 4.4,18.8 4.5,17.95 4.55,17.75 4.6,17.5 q 1.05,-3 1.55,-6.2 l 0.05,-0.25 0.1,1.05 0.15,2.45 q 0.35,5.6 -0.6,11.05 -2.05,3.75 -5.2,6.9 -4.8,4.75 -10.9,4.25 -2.3,-0.35 -4.2,-1.45 m 9.9,-43.55 q 2.15,-0.2 2.9,1.7 0.25,0.6 0.15,1.25 Q -4.1,0.2 -7.35,5.4 -8.35,6.95 -9,8.65 -9.25,9.3 -9.8,9.7 l -0.5,1.55 q -0.45,1.25 -1.2,2.35 l -1.6,5.4 q -0.45,1.9 -1.75,3.4 l -0.45,0.15 -0.55,0.2 -0.65,-0.15 q -2.75,-3.3 -1.35,-7.65 l 1.35,-4.35 q 1.45,-7.9 5.75,-14.8 2.2,-3.45 6.2,-4.05"
         fill="#b8b8b8"
         fill-rule="evenodd"
         stroke="none"
         id="path3" />
      <path
         d="m -14.45,35.3 q -1.6,-0.9 -2.9,-2.3 l -2.15,-2.85 -0.45,-1.5 -0.7,-1.9 0.15,-3.4 0.35,-4.1 0.45,-1.3 0.05,-1.1 0.8,-2.8 0.8,-3.4 2.85,-7 q 1.3,-3.25 3,-6.3 l 0.25,-0.2 Q -10.2,-6.4 -7,-9 q 1.65,-1.35 3.55,-1.85 l 0.4,-0.1 H -3 l 0.35,-0.3 2.45,0.45 0.7,0.15 0.25,0.65 0.35,0.65 0.15,0.2 0.2,0.2 0.1,0.4 Q 2.9,-6.7 2.6,-3.5 l -0.05,0.35 v 0.1 l 0.05,0.55 0.1,0.2 0.05,0.1 0.05,0.1 v 0.65 L 2.65,5.2 2.6,10.15 Q 2.25,10.95 2.05,11.85 1.9,12.6 1.9,13.35 V 13.8 L 1.75,14 1.6,14.25 l -0.25,1 -0.9,3.3 -0.55,1.25 q -0.1,0.95 -0.5,1.8 l -1,1.85 -0.3,0.45 -0.05,0.2 -0.05,0.2 -0.05,0.25 -0.75,0.95 -0.8,1.4 -0.05,0.2 -0.1,0.2 -1.7,1.3 q -3.8,2.1 -7.75,0.8 l -0.15,-0.25 -0.15,-0.15 -0.35,-0.15 -0.3,0.05 -0.5,0.5 -0.15,0.7 v 0.2 0.25 l 0.25,0.4 0.1,0.25 0.05,0.1 -0.3,0.25 -0.25,0.6 -0.1,0.3 -0.1,0.35 q -0.15,1.45 0.7,2.5 m 20.3,-9.7 -0.3,1.45 -0.75,1.3 Q 1.6,35.5 -6.35,36.9 l -3.9,-0.15 q 6.1,0.5 10.9,-4.25 3.15,-3.15 5.2,-6.9 M -4.55,-8.25 q -4,0.6 -6.2,4.05 -4.3,6.9 -5.75,14.8 l -1.35,4.35 q -1.4,4.35 1.35,7.65 l 0.65,0.15 0.55,-0.2 0.45,-0.15 q 1.3,-1.5 1.75,-3.4 l 1.6,-5.4 q 0.75,-1.1 1.2,-2.35 L -9.8,9.7 Q -9.25,9.3 -9,8.65 -8.35,6.95 -7.35,5.4 -4.1,0.2 -1.5,-5.3 q 0.1,-0.65 -0.15,-1.25 -0.75,-1.9 -2.9,-1.7"
         fill="#989898"
         fill-rule="evenodd"
         stroke="none"
         id="path4" />
    </g>
    <g
       id="sprite1"
       transform="translate(17.4,15.85)">
      <use
         ffdec:characterId="31"
         height="57.200001"
         transform="matrix(0.5366,0,0,0.5366,-16.6582,-14.546)"
         width="70.75"
         xlink:href="#sprite2"
         id="use4" />
    </g>
    <g
       id="sprite2"
       transform="translate(-8.65,-10.35)">
      <use
         ffdec:characterId="30"
         height="57.200001"
         transform="translate(8.65,10.35)"
         width="70.75"
         xlink:href="#shape1"
         id="use5" />
    </g>
    <g
       id="shape1"
       transform="translate(-8.65,-10.35)">
      <path
         d="m 14.8,41.7 q 0.65,-1.75 2.65,-2.5 1.8,-0.8 3.7,-0.25 1.15,0.45 2.25,1.2 l 0.9,0.4 q 1.65,0.9 2.85,2.5 L 37.8,30.1 q 2.35,-2.8 3.75,-3.95 1.5,-1.15 4.25,-2.4 18.2,-8.85 27.65,-12.6 2.15,-0.8 3.25,-0.8 h 0.8 l 1.9,2.4 -0.2,0.8 q -0.2,1.1 -1.55,3 -5.85,8.25 -18.85,23.8 -1.85,2.35 -3.35,3.5 -1.4,1.15 -4.75,2.75 l -15.15,7.15 q 1.2,1.6 1.75,3.4 l 0.2,1 0.55,2.5 q 0.1,1.95 -1.1,3.55 -1.2,1.65 -3.05,1.9 l -1.3,0.05 q -1.65,0.2 -3.45,-0.65 -1.85,-0.9 -3,-2.6 L 25,60.95 23.8,62.1 q -2.6,2.85 -4.3,3.95 -2.85,1.8 -5.5,1.45 l -1.65,-0.5 -1.2,-0.7 -0.2,-0.2 q -1,-0.85 -1.6,-1.9 L 9.25,64 9.15,63.8 8.75,62.4 q -0.2,-0.8 -0.05,-1.7 0.25,-2.65 2.7,-5.05 1.5,-1.3 4.9,-3.15 L 17.7,51.55 16.05,50 q -1.35,-1.5 -1.8,-3.6 -0.4,-1.85 0.25,-3.45 l 0.3,-1.25"
         fill="#000000"
         fill-opacity="0.372549"
         fill-rule="evenodd"
         stroke="none"
         id="path5" />
    </g>
  </defs>
</svg>
