<?xml version="1.0" encoding="UTF-8" standalone="no"?>
<svg
   ffdec:objectType="frame"
   height="65.650002"
   width="51.166668"
   version="1.1"
   id="svg5"
   xmlns:xlink="http://www.w3.org/1999/xlink"
   xmlns="http://www.w3.org/2000/svg"
   xmlns:svg="http://www.w3.org/2000/svg"
   xmlns:ffdec="https://www.free-decompiler.com/flash">
  <g
     transform="translate(26.6,32.95)"
     id="g1">
    <use
       ffdec:characterId="17"
       height="119.15"
       id="rarity"
       transform="translate(-58.5,-60.65)"
       width="119.15"
       xlink:href="#sprite0" />
    <use
       ffdec:characterId="137"
       height="65.650002"
       transform="translate(-26.6,-32.95)"
       width="51.150002"
       xlink:href="#shape0"
       id="use1" />
  </g>
  <defs
     id="defs5">
    <g
       id="shape0"
       transform="translate(26.3,35.45)">
      <path
         d="m -2.75,-28.75 -4.15,1 q 1.7,0.55 3.05,1.8 2,1.8 2.65,4.55 0.65,2.8 -0.35,5.3 -1.5,3.9 -5.9,5.7 -3.65,1.45 -8.35,0.6 -2.6,-0.55 -4.2,-1.7 l -0.05,0.6 q -0.1,1.35 0.45,2.3 0.4,0.6 1.6,1.3 3.25,1.9 7.65,2.95 l 6.65,1.2 0.05,-1.05 q 0.25,-2.75 1.35,-4.4 1.05,-1.55 3.1,-3 2.2,-1.4 4.5,-1.8 l 3.95,0.3 q 1.95,0.6 3.5,1.9 3.1,2.65 3.35,7 l 0.05,0.85 1,-0.7 q 0.85,-0.9 1.2,-2.75 l 0.95,-6.4 0.15,-2.55 -0.3,-1.6 -1.1,0.5 q -5.55,2.3 -11.2,0.45 -2.8,-0.9 -4,-2.55 -1.05,-1.5 -1.15,-4.15 -0.1,-2.3 0.6,-4.2 l 0.9,-1.55 q -3.45,-0.25 -5.95,0.1 m 19.75,5.9 q -0.95,-1.3 -3.2,-2.7 -1.7,-1.2 -3.15,-1.85 -1.9,-0.85 -4.95,-1.25 l -0.45,0.5 q -1.9,2.2 -0.45,6.05 0.4,1.15 1,1.7 0.5,0.4 1.75,0.7 4.1,0.95 5.95,0.9 2.95,-0.15 4.7,-1.7 L 17,-22.85 m -36.55,-3.7 q 3.4,-4 8.25,-6.4 4.85,-2.35 10.1,-2.5 l 7.4,0.6 q 3.4,0.5 6.15,1.45 4.75,1.75 8.1,5.85 3.35,4.1 4.15,9.1 0.4,2.6 0.2,5.85 l -0.75,5.8 -0.75,3.75 q -0.6,2 -1.7,3.25 Q 20,2 17.15,2.8 l -5.4,0.7 -6.3,0.2 0.6,2.3 0.75,2.35 0.05,1.3 0.05,1.3 0.55,1.95 0.25,2.65 v 4.65 l -0.2,2.75 q -0.45,2 -2.05,3.7 Q 4,28.2 1.9,29.05 l -2.5,0.85 -2.9,0.3 q -4.6,-0.25 -8.35,-5.6 l -1.35,-2.75 -0.2,-2.4 -0.05,-4.6 0.2,-3.6 1.05,-3.1 1.35,-2.9 1.25,-2.2 0.3,-0.55 q -5.7,-1.15 -10.35,-3.3 -4.75,-2.2 -6,-5.3 -0.65,-1.5 -0.65,-4.45 0,-2.85 0.6,-5 0.65,-2.7 2.95,-6.4 1.55,-2.6 3.2,-4.6 M 13.4,-5.6 Q 12.7,-8.15 10.25,-9.7 7.8,-11.2 5.2,-10.65 2.6,-10.1 1,-7.75 q -1.6,2.4 -1.2,4.95 7.75,0.7 13.5,0.05 0.5,-1.1 0.1,-2.85 m -27.15,-17.75 q -1.4,1.45 -3.2,4.4 l -2.15,4.1 q 2.75,1.8 6.2,2.05 2.2,0.1 4.15,-0.7 2.1,-0.8 3.35,-2.4 1.35,-1.7 1.35,-3.95 -0.05,-2.35 -1.5,-3.8 -1.4,-1.35 -3.7,-1.55 l -2.55,0.15 -1.95,1.7 M 1.5,13.2 1.4,12.8 1.5,11.55 1.6,10.25 1.1,8.5 0.8,6.45 0.65,4.6 V 3.65 l -4.2,-0.3 -0.8,2.1 -1.5,2.7 -1.25,2.8 -0.3,1.15 q -0.55,2.2 -0.45,5.45 0,1.85 0.35,2.7 0.25,0.75 1.25,1.95 1.1,1.4 2,1.7 1,0.4 2.6,0 Q 1.1,23.5 1.8,21.85 L 2.1,20 V 16.9 L 1.95,14.9 1.5,13.2"
         fill="#000000"
         fill-rule="evenodd"
         stroke="none"
         id="path1" />
      <path
         d="m -2.75,-28.75 q 2.5,-0.35 5.95,-0.1 l -0.9,1.55 q -0.7,1.9 -0.6,4.2 0.1,2.65 1.15,4.15 1.2,1.65 4,2.55 5.65,1.85 11.2,-0.45 l 1.1,-0.5 0.3,1.6 -0.15,2.55 -0.95,6.4 q -0.35,1.85 -1.2,2.75 l -1,0.7 -0.05,-0.85 q -0.25,-4.35 -3.35,-7 -1.55,-1.3 -3.5,-1.9 L 5.3,-13.4 q -2.3,0.4 -4.5,1.8 -2.05,1.45 -3.1,3 -1.1,1.65 -1.35,4.4 l -0.05,1.05 -6.65,-1.2 q -4.4,-1.05 -7.65,-2.95 -1.2,-0.7 -1.6,-1.3 -0.55,-0.95 -0.45,-2.3 l 0.05,-0.6 q 1.6,1.15 4.2,1.7 4.7,0.85 8.35,-0.6 4.4,-1.8 5.9,-5.7 1,-2.5 0.35,-5.3 -0.65,-2.75 -2.65,-4.55 -1.35,-1.25 -3.05,-1.8 l 4.15,-1"
         fill="#bd8282"
         fill-rule="evenodd"
         stroke="none"
         id="path2" />
      <path
         d="m 17,-22.85 1.2,2.35 q -1.75,1.55 -4.7,1.7 -1.85,0.05 -5.95,-0.9 -1.25,-0.3 -1.75,-0.7 -0.6,-0.55 -1,-1.7 -1.45,-3.85 0.45,-6.05 l 0.45,-0.5 q 3.05,0.4 4.95,1.25 1.45,0.65 3.15,1.85 2.25,1.4 3.2,2.7 m -30.75,-0.5 1.95,-1.7 2.55,-0.15 q 2.3,0.2 3.7,1.55 1.45,1.45 1.5,3.8 0,2.25 -1.35,3.95 -1.25,1.6 -3.35,2.4 -1.95,0.8 -4.15,0.7 -3.45,-0.25 -6.2,-2.05 l 2.15,-4.1 q 1.8,-2.95 3.2,-4.4 M 13.4,-5.6 q 0.4,1.75 -0.1,2.85 Q 7.55,-2.1 -0.2,-2.8 -0.6,-5.35 1,-7.75 q 1.6,-2.35 4.2,-2.9 2.6,-0.55 5.05,0.95 2.45,1.55 3.15,4.1 m -20.8,17.7 1.9,1.35 q 1.4,0.65 3.6,0.55 2.15,0 3.4,-0.8 l 0.45,1.7 0.15,2 V 20 l -0.3,1.85 q -0.7,1.65 -3.45,2.05 -1.6,0.4 -2.6,0 -0.9,-0.3 -2,-1.7 -1,-1.2 -1.25,-1.95 -0.35,-0.85 -0.35,-2.7 -0.1,-3.25 0.45,-5.45"
         fill="#e0dede"
         fill-rule="evenodd"
         stroke="none"
         id="path3" />
      <path
         d="m -7.4,12.1 0.3,-1.15 1.25,-2.8 1.5,-2.7 0.8,-2.1 4.2,0.3 V 4.6 L 0.8,6.45 1.1,8.5 1.6,10.25 1.5,11.55 1.4,12.8 1.5,13.2 Q 0.25,14 -1.9,14 -4.1,14.1 -5.5,13.45 L -7.4,12.1"
         fill="#a1a1a1"
         fill-rule="evenodd"
         stroke="none"
         id="path4" />
    </g>
    <g
       id="sprite1"
       transform="translate(17.4,15.85)">
      <use
         ffdec:characterId="31"
         height="57.200001"
         transform="matrix(0.5366,0,0,0.5366,-16.6582,-14.546)"
         width="70.75"
         xlink:href="#sprite2"
         id="use4" />
    </g>
    <g
       id="sprite2"
       transform="translate(-8.65,-10.35)">
      <use
         ffdec:characterId="30"
         height="57.200001"
         transform="translate(8.65,10.35)"
         width="70.75"
         xlink:href="#shape1"
         id="use5" />
    </g>
    <g
       id="shape1"
       transform="translate(-8.65,-10.35)">
      <path
         d="m 14.8,41.7 q 0.65,-1.75 2.65,-2.5 1.8,-0.8 3.7,-0.25 1.15,0.45 2.25,1.2 l 0.9,0.4 q 1.65,0.9 2.85,2.5 L 37.8,30.1 q 2.35,-2.8 3.75,-3.95 1.5,-1.15 4.25,-2.4 18.2,-8.85 27.65,-12.6 2.15,-0.8 3.25,-0.8 h 0.8 l 1.9,2.4 -0.2,0.8 q -0.2,1.1 -1.55,3 -5.85,8.25 -18.85,23.8 -1.85,2.35 -3.35,3.5 -1.4,1.15 -4.75,2.75 l -15.15,7.15 q 1.2,1.6 1.75,3.4 l 0.2,1 0.55,2.5 q 0.1,1.95 -1.1,3.55 -1.2,1.65 -3.05,1.9 l -1.3,0.05 q -1.65,0.2 -3.45,-0.65 -1.85,-0.9 -3,-2.6 L 25,60.95 23.8,62.1 q -2.6,2.85 -4.3,3.95 -2.85,1.8 -5.5,1.45 l -1.65,-0.5 -1.2,-0.7 -0.2,-0.2 q -1,-0.85 -1.6,-1.9 L 9.25,64 9.15,63.8 8.75,62.4 q -0.2,-0.8 -0.05,-1.7 0.25,-2.65 2.7,-5.05 1.5,-1.3 4.9,-3.15 L 17.7,51.55 16.05,50 q -1.35,-1.5 -1.8,-3.6 -0.4,-1.85 0.25,-3.45 l 0.3,-1.25"
         fill="#000000"
         fill-opacity="0.372549"
         fill-rule="evenodd"
         stroke="none"
         id="path5" />
    </g>
  </defs>
</svg>
