<?xml version="1.0" encoding="UTF-8" standalone="no"?>
<svg
   ffdec:objectType="frame"
   height="64.030769"
   width="82.690338"
   version="1.1"
   id="svg4"
   sodipodi:docname="ITEM Intestines.svg"
   xmlns:inkscape="http://www.inkscape.org/namespaces/inkscape"
   xmlns:sodipodi="http://sodipodi.sourceforge.net/DTD/sodipodi-0.dtd"
   xmlns:xlink="http://www.w3.org/1999/xlink"
   xmlns="http://www.w3.org/2000/svg"
   xmlns:svg="http://www.w3.org/2000/svg"
   xmlns:ffdec="https://www.free-decompiler.com/flash">
  <sodipodi:namedview
     id="namedview4"
     pagecolor="#ffffff"
     bordercolor="#000000"
     borderopacity="0.25"
     inkscape:showpageshadow="2"
     inkscape:pageopacity="0.0"
     inkscape:pagecheckerboard="0"
     inkscape:deskcolor="#d1d1d1"
     fit-margin-top="5"
     fit-margin-left="5"
     fit-margin-right="5"
     fit-margin-bottom="5" />
  <g
     transform="translate(43.577273,35.4)"
     id="g1">
    <use
       ffdec:characterId="17"
       height="119.15"
       id="rarity"
       transform="translate(-58.5,-60.65)"
       width="119.15"
       xlink:href="#sprite0" />
    <use
       ffdec:characterId="936"
       height="64.050003"
       transform="translate(-43.6,-35.4)"
       width="82.699997"
       xlink:href="#shape0"
       id="use1" />
  </g>
  <defs
     id="defs4">
    <g
       id="shape0"
       transform="translate(90.4,36.75)">
      <path
         d="m -81.9,-10.1 -0.45,0.85 v 0.2 0.4 0.25 0.4 l 0.05,0.45 q 3.45,2.55 2.45,6.55 -0.35,1.55 -1.4,2.8 -2.2,2.6 -3.25,5.9 0.1,0.75 -0.1,1.5 l -0.4,2.75 v 1.95 l 1,1.2 q 1.7,1.15 3.65,1.8 h 2.25 q 2.25,-1.5 4.2,-1.15 l 0.3,-0.35 0.3,-0.1 0.3,-0.05 0.15,-0.05 0.55,0.15 0.35,0.2 0.15,0.15 0.25,0.5 0.5,1.05 q 2.6,3.05 6.35,2.9 l 0.1,-0.75 0.05,-0.2 0.1,-0.2 0.15,-0.25 0.1,-0.2 q 0.95,-3.8 4.75,-5.15 l 2.7,-0.7 v -0.5 l 0.55,-2.15 Q -56.35,8.2 -57.2,6.6 -58.4,4.35 -61,3.45 -66.7,2.8 -71.7,5.55 l -0.25,0.2 -0.15,0.2 -0.2,0.45 -0.15,0.15 -0.15,0.05 h -0.25 L -73.5,6.3 -73.65,5.9 -73.85,5.2 -74,4.8 -74.1,4.6 q 4.6,-6 12.35,-5.9 l 0.2,-0.45 q -1.25,-5.6 -7.65,-4.5 l -2.1,-0.1 q -0.15,0.1 -0.25,0.15 l -0.25,0.15 -0.7,0.05 -0.95,-0.05 -0.4,-0.45 -0.2,-0.4 -0.05,-0.2 -0.05,-0.25 0.05,-0.2 0.05,-0.2 0.1,-0.25 0.15,-0.2 0.25,-0.2 0.35,-0.15 0.25,-0.15 0.15,-0.2 0.2,-0.25 q 3.3,-1.4 6.9,-1.7 l 1.4,-0.05 q 2.2,0.55 3.75,1.5 2.3,-1.5 4.15,1.05 9,4.7 16.25,-0.7 3.25,-7.25 11.4,-10.4 l 3.35,-1.35 0.35,0.15 0.4,0.2 0.25,0.45 0.15,0.65 q -1.9,2.65 -4.55,4.9 l -2.2,1.6 q -2,1.35 -3.35,3.25 -1.4,1.95 -1.85,4.15 -0.45,1.95 -0.1,4.1 l 0.5,0.85 0.35,-0.05 q 6.35,-1 10.95,3.05 l 2.85,2.25 0.55,0.6 0.7,0.9 1,1.7 0.25,0.85 v 0.25 l -0.05,0.2 -0.1,0.2 -0.15,0.2 -0.15,0.15 Q -22.3,9.75 -24.65,7.9 -26.6,6.4 -28.7,5.25 l -2.35,-1.1 Q -32.75,4 -34.4,4.2 -37.35,4.5 -40,5.9 l -3.4,2 -0.35,0.4 -0.7,0.7 -0.95,1.25 -0.3,0.65 0.25,4.25 q 0.2,2.4 -1.6,3.6 -1.3,0.85 -2.6,-0.25 -1.4,-1.15 -3.05,-2.1 -2.8,-0.45 -5.4,0.6 -1.2,0.5 -2.1,1.4 l 0.7,-0.35 q 6.4,-2.65 9.85,3.05 l 0.6,0.8 q 3.9,-0.1 7.8,-1.9 4.45,-2.1 8.65,0.35 2.05,1.25 4.6,0.75 7.1,-2.2 12.95,-6.45 1.2,-0.85 1.7,-2.25 l 0.55,-2.35 Q -13,4.1 -18,0.9 q -3.2,-2.1 -3.15,-5.45 0,-1.6 1.45,-2.5 l 1.25,-0.7 q 2.1,-2.15 2.9,-5 1.1,-3.95 0.05,-7.9 -1.35,-2.8 -3.3,-5.25 l -0.3,-0.35 q -2.95,-3.45 -7.35,-4.6 l -1.85,-0.05 -1.35,0.45 q -0.8,1.7 -1.9,3.05 -2.3,2.75 -5.95,3.7 -1.3,0.35 -2.2,-0.7 -4,-4.45 -9.4,-4.45 l -2.9,0.3 q -5.65,1.05 -8.8,5.15 -1.3,1.65 -2.15,3.8 -0.3,0.75 -1.15,0.7 l -6.4,0.4 q -2.05,0.45 -4.05,1.3 -4.85,2.05 -7.25,6.85 l -0.1,0.25 m 34.25,-12.45 2.25,0.05 q 5.4,0.35 4.1,4.6 -0.55,1.8 -2.3,1.4 l -0.25,-0.1 q -6,-1.75 -11.35,0.3 -2.15,0.8 -4.2,2.25 h -0.3 l -0.4,-0.1 -0.2,-0.2 -0.1,-0.2 q -0.2,-0.55 0.1,-1.05 0.85,-1.5 2.1,-2.6 l 1.05,-0.85 q 4.2,-3.25 9.5,-3.5 m 19,-14.2 q 11.65,1.15 16.95,11.65 4.75,9.35 -0.5,18.35 -0.9,1.6 -2.15,3 8.6,6.9 6.1,17.5 -0.6,2.55 -2.3,4.65 -3.5,4.4 -9,5.95 l -3.95,1.3 q -7.35,2.95 -14.4,-0.95 -5.15,2 -10.55,2.55 -1.85,0.2 -3.35,-0.9 -1.95,-1.45 -3.3,-3.6 -0.2,-0.4 -0.55,-0.7 l -2.9,-0.1 q -1,0.2 -1.8,0.75 l -0.5,0.65 -0.35,0.45 -0.6,0.8 v 0.7 l -0.1,0.4 q -0.05,0.65 -0.6,1.05 l -0.3,0.15 -0.35,0.05 -0.55,-0.1 -0.3,-0.8 -0.1,-0.15 -0.45,-0.7 -0.15,-0.45 -1.25,0.2 q -5.85,0.6 -8,-4.15 -2.75,1.7 -6.55,1.35 -8.35,-0.8 -9.65,-8.3 -0.5,-3.05 0.1,-6 1.2,-5.75 5.1,-10.25 -5.85,-6.15 -0.75,-13.25 7,-9.7 19.2,-9 7.1,-12.1 21.6,-9.5 3.45,0.6 6.25,2.85 l 1.4,1.35 2.75,-3.65 q 2.35,-2.8 5.85,-3.15 m -47.65,33.65 0.65,0.15 0.35,0.2 0.25,0.25 0.25,0.4 0.2,0.4 -1.8,5.9 q -0.45,1.4 -1.25,2.7 L -78,6.95 -78.45,6.9 q -0.85,-1.6 -1.15,-3.45 -0.2,-1.3 0.5,-2.35 0.05,-1.75 1.1,-3.2 0.7,-0.9 1.7,-1 m 26.6,16.15 q -0.65,-4.45 2.35,-7.6 2.8,-2.95 6.3,-4.5 -0.75,-1.6 -0.75,-3.45 -3.75,2.15 -9.05,1.8 -3.5,-0.2 -6.1,-1.65 l -0.25,2.25 q 6.4,3.25 5.8,11.25 l -0.2,1.5 1.9,0.4 m 23.75,-4.5 q 1.35,0.05 2.1,1.1 l 0.5,0.8 q -1.4,5.1 -7.15,6.2 -4.45,0.85 -8.6,-1.1 l -0.5,-0.4 -0.5,-0.7 v -0.2 l 0.05,-0.4 0.2,-0.45 0.3,-0.35 q 6.05,1.05 10.9,-2.8 L -27.3,9 q 0.7,-0.45 1.35,-0.45"
         fill="#000000"
         fill-rule="evenodd"
         stroke="none"
         id="path1" />
      <path
         d="m -73,15.25 q -1.1,-0.5 -2.2,-1.35 -0.3,-1.9 0.4,-3.7 0.7,-1.8 2.4,-2.8 1.3,-1.8 3.55,-2.55 l 1.45,-0.45 1.8,0.5 0.55,0.35 q 5.1,3 1.05,7.55 -3.65,4.1 -7.8,2.9 l -0.15,-0.15 -0.35,-0.2 -0.55,-0.15 -0.15,0.05 m 44.2,-29.7 0.65,-0.2 1.15,0.25 0.85,0.4 q 4.1,6.2 -2.8,10.4 -4.8,3 -7.05,-1.35 l -0.2,-0.5 q 0.45,-2.2 1.85,-4.15 1.35,-1.9 3.35,-3.25 l 2.2,-1.6 m 0.1,19.7 q 0.9,1.15 0.6,3.3 -0.2,1.3 -1.3,2.15 -6.1,4.65 -10.05,-1.45 l -0.35,-0.9 q 0.15,-1.05 0.9,-1.8 1.95,-1.9 4.5,-2.35 1.65,-0.2 3.35,-0.05 l 2.35,1.1 m 9.9,-31.15 -0.1,0.95 q -0.15,1.05 -1.15,1.8 -6.75,4.9 -10.95,-1.4 L -31.15,-25 q -0.7,-1.15 -0.4,-2.4 1.1,-1.35 1.9,-3.05 l 1.35,-0.45 1.85,0.05 q 4.4,1.15 7.35,4.6 l 0.3,0.35 m -30.3,-2.95 0.7,0.3 1.35,0.7 0.45,0.8 q 0.35,0.8 0.35,1.7 l -0.15,1.25 -1.25,1.55 q -5.3,0.25 -9.5,3.5 l -2.65,-0.6 q -1.05,-0.3 -1.1,-1.45 l 0.05,-0.25 0.1,-0.2 q 0.15,-0.4 0.05,-0.8 l -0.1,-1.05 q 3.15,-4.1 8.8,-5.15 l 2.9,-0.3 m 5.5,12.35 q 1.3,1.35 1,4.05 -0.2,1.75 -1.95,2.6 -5.7,2.8 -11,-0.5 -2.45,-1.5 -1.65,-4.15 0.8,-1.1 2,-1.8 5.35,-2.05 11.35,-0.3 l 0.25,0.1 m -26.9,-2 0.5,0.15 0.85,0.45 0.7,0.8 0.55,0.45 q 0.9,2.8 -1.4,4.95 -1.4,1.3 -3.15,1.95 -5.4,3.9 -9.45,-0.35 l 0.1,-0.25 q 2.4,-4.8 7.25,-6.85 2,-0.85 4.05,-1.3"
         fill="#d0c6c6"
         fill-rule="evenodd"
         stroke="none"
         id="path2" />
      <path
         d="m -73,15.25 -0.3,0.05 -0.3,0.1 -0.3,0.35 q -1.95,-0.35 -4.2,1.15 h -2.25 Q -82.3,16.25 -84,15.1 l -1,-1.2 v -1.95 l 0.4,-2.75 q 0.2,-0.75 0.1,-1.5 1.05,-3.3 3.25,-5.9 1.05,-1.25 1.4,-2.8 1,-4 -2.45,-6.55 L -82.35,-8 v -0.4 -0.25 -0.4 -0.2 l 0.45,-0.85 q 4.05,4.25 9.45,0.35 1.75,-0.65 3.15,-1.95 2.3,-2.15 1.4,-4.95 l -0.55,-0.45 -0.7,-0.8 -0.85,-0.45 -0.5,-0.15 6.4,-0.4 q 0.85,0.05 1.15,-0.7 0.85,-2.15 2.15,-3.8 l 0.1,1.05 q 0.1,0.4 -0.05,0.8 l -0.1,0.2 -0.05,0.25 q 0.05,1.15 1.1,1.45 l 2.65,0.6 -1.05,0.85 q -1.25,1.1 -2.1,2.6 -0.3,0.5 -0.1,1.05 l 0.1,0.2 0.2,0.2 0.4,0.1 h 0.3 q 2.05,-1.45 4.2,-2.25 -1.2,0.7 -2,1.8 -0.8,2.65 1.65,4.15 5.3,3.3 11,0.5 1.75,-0.85 1.95,-2.6 0.3,-2.7 -1,-4.05 1.75,0.4 2.3,-1.4 1.3,-4.25 -4.1,-4.6 l -2.25,-0.05 1.25,-1.55 0.15,-1.25 q 0,-0.9 -0.35,-1.7 l -0.45,-0.8 -1.35,-0.7 -0.7,-0.3 q 5.4,0 9.4,4.45 0.9,1.05 2.2,0.7 3.65,-0.95 5.95,-3.7 -0.3,1.25 0.4,2.4 l 0.15,0.45 q 4.2,6.3 10.95,1.4 1,-0.75 1.15,-1.8 l 0.1,-0.95 q 1.95,2.45 3.3,5.25 1.05,3.95 -0.05,7.9 -0.8,2.85 -2.9,5 l -1.25,0.7 q -1.45,0.9 -1.45,2.5 -0.05,3.35 3.15,5.45 5,3.2 5.2,9.15 l -0.55,2.35 q -0.5,1.4 -1.7,2.25 -5.85,4.25 -12.95,6.45 -2.55,0.5 -4.6,-0.75 -4.2,-2.45 -8.65,-0.35 -3.9,1.8 -7.8,1.9 l -0.6,-0.8 q -3.45,-5.7 -9.85,-3.05 l -0.7,0.35 q 0.9,-0.9 2.1,-1.4 2.6,-1.05 5.4,-0.6 1.65,0.95 3.05,2.1 1.3,1.1 2.6,0.25 1.8,-1.2 1.6,-3.6 l -0.25,-4.25 0.3,-0.65 0.95,-1.25 0.7,-0.7 0.35,-0.4 3.4,-2 q 2.65,-1.4 5.6,-1.7 -2.55,0.45 -4.5,2.35 -0.75,0.75 -0.9,1.8 l 0.35,0.9 q 3.95,6.1 10.05,1.45 1.1,-0.85 1.3,-2.15 0.3,-2.15 -0.6,-3.3 2.1,1.15 4.05,2.65 2.35,1.85 5.05,1.9 l 0.15,-0.15 0.15,-0.2 0.1,-0.2 0.05,-0.2 V 8.8 l -0.25,-0.85 -1,-1.7 -0.7,-0.9 -0.55,-0.6 -2.85,-2.25 q -4.6,-4.05 -10.95,-3.05 l -0.35,0.05 -0.5,-0.85 q -0.35,-2.15 0.1,-4.1 l 0.2,0.5 q 2.25,4.35 7.05,1.35 6.9,-4.2 2.8,-10.4 l -0.85,-0.4 -1.15,-0.25 -0.65,0.2 q 2.65,-2.25 4.55,-4.9 l -0.15,-0.65 -0.25,-0.45 -0.4,-0.2 -0.35,-0.15 -3.35,1.35 q -8.15,3.15 -11.4,10.4 -7.25,5.4 -16.25,0.7 -1.85,-2.55 -4.15,-1.05 -1.55,-0.95 -3.75,-1.5 l -1.4,0.05 q -3.6,0.3 -6.9,1.7 l -0.2,0.25 -0.15,0.2 -0.25,0.15 -0.35,0.15 -0.25,0.2 -0.15,0.2 -0.1,0.25 -0.05,0.2 -0.05,0.2 0.05,0.25 0.05,0.2 0.2,0.4 0.4,0.45 0.95,0.05 0.7,-0.05 0.25,-0.15 q 0.1,-0.05 0.25,-0.15 l 2.1,0.1 q 6.4,-1.1 7.65,4.5 l -0.2,0.45 Q -69.5,-1.4 -74.1,4.6 l 0.1,0.2 0.15,0.4 0.2,0.7 0.15,0.4 0.65,0.3 h 0.25 l 0.15,-0.05 0.15,-0.15 0.2,-0.45 0.15,-0.2 0.25,-0.2 q 5,-2.75 10.7,-2.1 2.6,0.9 3.8,3.15 0.85,1.6 1,3.45 l -0.55,2.15 v 0.5 l -2.7,0.7 q -3.8,1.35 -4.75,5.15 l -0.1,0.2 -0.15,0.25 -0.1,0.2 -0.05,0.2 -0.1,0.75 q -3.75,0.15 -6.35,-2.9 l -0.5,-1.05 -0.25,-0.5 q 4.15,1.2 7.8,-2.9 4.05,-4.55 -1.05,-7.55 L -65.6,4.9 -67.4,4.4 -68.85,4.85 q -2.25,0.75 -3.55,2.55 -1.7,1 -2.4,2.8 -0.7,1.8 -0.4,3.7 1.1,0.85 2.2,1.35 M -76.3,-3.1 q -1,0.1 -1.7,1 -1.05,1.45 -1.1,3.2 -0.7,1.05 -0.5,2.35 0.3,1.85 1.15,3.45 L -78,6.95 -77.65,6.9 q 0.8,-1.3 1.25,-2.7 l 1.8,-5.9 -0.2,-0.4 -0.25,-0.4 -0.25,-0.25 -0.35,-0.2 -0.65,-0.15 m 50.35,11.65 q -0.65,0 -1.35,0.45 l -1.35,1.25 q -4.85,3.85 -10.9,2.8 l -0.3,0.35 -0.2,0.45 -0.05,0.4 v 0.2 l 0.5,0.7 0.5,0.4 q 4.15,1.95 8.6,1.1 5.75,-1.1 7.15,-6.2 l -0.5,-0.8 q -0.75,-1.05 -2.1,-1.1"
         fill="#bfafaf"
         fill-rule="evenodd"
         stroke="none"
         id="path3" />
    </g>
    <g
       id="sprite1"
       transform="translate(17.4,15.85)">
      <use
         ffdec:characterId="31"
         height="57.200001"
         transform="matrix(0.5366,0,0,0.5366,-16.6582,-14.546)"
         width="70.75"
         xlink:href="#sprite2"
         id="use3" />
    </g>
    <g
       id="sprite2"
       transform="translate(-8.65,-10.35)">
      <use
         ffdec:characterId="30"
         height="57.200001"
         transform="translate(8.65,10.35)"
         width="70.75"
         xlink:href="#shape1"
         id="use4" />
    </g>
    <g
       id="shape1"
       transform="translate(-8.65,-10.35)">
      <path
         d="m 14.8,41.7 q 0.65,-1.75 2.65,-2.5 1.8,-0.8 3.7,-0.25 1.15,0.45 2.25,1.2 l 0.9,0.4 q 1.65,0.9 2.85,2.5 L 37.8,30.1 q 2.35,-2.8 3.75,-3.95 1.5,-1.15 4.25,-2.4 18.2,-8.85 27.65,-12.6 2.15,-0.8 3.25,-0.8 h 0.8 l 1.9,2.4 -0.2,0.8 q -0.2,1.1 -1.55,3 -5.85,8.25 -18.85,23.8 -1.85,2.35 -3.35,3.5 -1.4,1.15 -4.75,2.75 l -15.15,7.15 q 1.2,1.6 1.75,3.4 l 0.2,1 0.55,2.5 q 0.1,1.95 -1.1,3.55 -1.2,1.65 -3.05,1.9 l -1.3,0.05 q -1.65,0.2 -3.45,-0.65 -1.85,-0.9 -3,-2.6 L 25,60.95 23.8,62.1 q -2.6,2.85 -4.3,3.95 -2.85,1.8 -5.5,1.45 l -1.65,-0.5 -1.2,-0.7 -0.2,-0.2 q -1,-0.85 -1.6,-1.9 L 9.25,64 9.15,63.8 8.75,62.4 q -0.2,-0.8 -0.05,-1.7 0.25,-2.65 2.7,-5.05 1.5,-1.3 4.9,-3.15 L 17.7,51.55 16.05,50 q -1.35,-1.5 -1.8,-3.6 -0.4,-1.85 0.25,-3.45 l 0.3,-1.25"
         fill="#000000"
         fill-opacity="0.372549"
         fill-rule="evenodd"
         stroke="none"
         id="path4" />
    </g>
  </defs>
</svg>
