<?xml version="1.0" encoding="UTF-8" standalone="no"?>
<svg
   ffdec:objectType="frame"
   height="65.194214"
   width="92.338219"
   version="1.1"
   id="svg9"
   xmlns:xlink="http://www.w3.org/1999/xlink"
   xmlns="http://www.w3.org/2000/svg"
   xmlns:svg="http://www.w3.org/2000/svg"
   xmlns:ffdec="https://www.free-decompiler.com/flash">
  <g
     transform="translate(46.638219,33.944212)"
     id="g1">
    <use
       ffdec:characterId="17"
       height="119.15"
       id="rarity"
       transform="translate(-58.5,-60.65)"
       width="119.15"
       xlink:href="#sprite0" />
    <use
       ffdec:characterId="184"
       height="65.25"
       transform="translate(-46.65,-33.95)"
       width="92.400002"
       xlink:href="#shape0"
       id="use1" />
  </g>
  <defs
     id="defs9">
    <g
       id="shape0"
       transform="translate(46.35,36.45)">
      <path
         d="m -27.35,27.2 q -0.8,-0.6 -1.3,-2.25 -1.2,-4.95 -2.2,-7.25 l -1.45,-3.05 -0.9,-3.25 q -0.75,-2.8 -1.6,-5.15 l -5.4,-0.7 -1.75,-0.15 -1.6,0.1 q -1.1,-0.3 -1.35,-1.7 l 0.05,-2.25 q 0.1,-0.95 -0.25,-3.5 L -45.75,-7 q -0.2,-1.35 0.1,-1.9 l 0.8,-0.95 6.75,-6.4 2.6,-1.8 0.9,-0.05 1.85,-1 21.15,-6.6 6.95,-1.95 5.6,-1.35 21.15,-4.95 1.8,0.1 q 0.45,0.35 0.6,1.3 1.7,-1.9 2.75,-2.55 1.9,-1.2 3.6,-0.7 1.55,0.45 2.35,2.1 0.8,1.55 0.55,3.25 -0.2,1.25 -0.8,2.55 l 2.45,0.45 1.05,0.15 1,-0.65 q 1,-0.85 2.45,-1 l 2.75,0.25 q 1.35,0.5 2,1.35 0.6,0.75 0.75,1.95 l 0.1,3.8 -0.3,3.25 -0.45,1.95 -0.25,0.95 q -0.25,1.05 -0.75,1.4 -0.45,0.35 -1.4,0.25 l -3.45,-0.45 q -1.4,-0.4 -1.95,-1.3 -0.25,-0.35 -0.4,-1.05 l -0.15,-0.5 -0.4,0.8 q -1,1.75 -2.15,2.45 l 0.35,0.05 2.4,0.25 q 3.3,0.25 6.3,1.35 0.5,0.15 0.65,0.45 l 0.05,0.4 q 0.9,0.85 0.3,2.95 L 39.35,9.8 q -0.35,1.45 -0.9,2.25 -0.6,0.7 -1.65,1.15 l -1.9,0.65 Q 29.75,15.15 20.75,18.5 11,22.1 6.65,23.35 L 0.4,25 -10.05,27.65 q -0.45,0.5 -1.35,0.6 l -2.4,-0.05 -10.7,-0.5 q -2.05,0.05 -2.85,-0.5 m 48.05,-54.75 1.4,-1.95 0.05,-1.65 -0.1,0.05 -0.2,0.15 -3.4,3.2 2.25,0.2 m -1.15,12.1 q 3.95,-5.1 7.7,-10.75 l -0.25,-0.05 -1.9,-1 -0.25,0.3 v 0.1 l -0.55,0.8 q -4.35,6.6 -6.55,10.85 l -0.7,1.15 1.05,0.4 0.35,0.15 1.1,-1.95 m 9.6,-13.7 q 1.15,-1.8 0.55,-2.8 -1.75,0.85 -3.85,3.65 l 2.15,1.05 1.15,-1.9 m 1.65,4.6 -5.15,7.4 0.25,0.05 2.15,0.3 1.15,0.25 h 0.15 l 1.05,0.2 q 1.6,0.2 2.85,-0.8 l 1.4,-1.75 0.65,-0.65 0.7,-0.7 1.55,-0.05 q 0.75,0.4 1.1,1.95 0.1,0.55 0.35,0.8 0.2,0.2 0.65,0.3 l 2.2,0.2 q 1.05,-3.35 0.65,-6.85 l -0.3,-1.2 q -0.55,-0.85 -1.75,-0.65 -0.85,0.1 -1.7,0.9 l -1.2,0.95 q -0.85,0.4 -2.1,0 l -1,-0.3 -1,-0.2 -2.35,-0.3 -0.1,-0.05 -0.2,0.2 M -31.5,-9 l 2.5,-3.85 1.5,-1.5 2.2,-0.3 6.85,0.05 1.55,0.1 0.95,-0.4 8.9,-2.65 7.65,-1.95 4.1,-0.9 h 0.35 q 0.8,-2.5 2.9,-4 1.3,-0.9 3.95,-1.8 l 3.6,-1 0.1,-0.15 2.85,-2.95 -19,4.65 q -15.95,4.25 -31.7,9.95 l 0.05,7.95 0.7,-1.25 m 45.95,-15 q -2.1,0.7 -3.85,1.65 l -1.4,1.05 3.4,-0.7 2.75,-0.4 q 1.25,0 1.75,0.4 l 2.1,-3.3 -4.75,1.3 m -8.7,10.85 q 1.7,-2.85 3.1,-3.85 2.1,-1.5 4.6,-0.95 l 1.1,0.1 0.75,-0.9 0.25,-0.4 H 15.5 l -4.8,0.75 -2.35,0.5 -1.8,0.35 q -1.1,0 -1.55,-0.7 -0.25,-0.35 -0.2,-0.9 l -1.9,0.4 -7.95,2.2 q -5.3,1.6 -9.4,3.25 l 0.25,0.4 q 0.75,0.45 1.45,1.75 0.65,1.25 1.05,2.65 l 2.3,0.25 5,0.9 3.6,-1.3 3.75,-1.5 1.3,-0.35 1.5,-2.65 m 12.1,8.1 2.4,-3.35 q 0.75,-1 0.45,-1.55 l -0.75,-0.55 -0.9,-0.4 H 19 l -1.5,-0.25 q -2.25,-0.7 -3.35,-1.3 -1.15,-0.5 -1.35,-1.35 l -1,-0.05 q -0.85,0.3 -1.65,1.7 L 3.05,-0.25 2.5,0.9 4.7,0.2 4.75,0.1 7.1,-3.4 8.65,-5.55 9.15,-6.1 9.5,-6.7 10.6,-8 l 0.5,-0.6 0.75,0.05 q 0.25,0.3 -0.15,0.95 l -4.05,6.8 v 0.05 l 3.9,-1.25 0.8,-2.1 q 0.75,-1.85 1.45,-2.9 0.6,-1 1.25,-0.7 0.45,0.2 0.45,0.8 l -0.35,1 -1.3,3.1 3.35,-1.05 q 0.1,-0.55 0.65,-1.2 M -0.4,-6.75 1.65,-6.1 2.6,-7.75 0.35,-7.1 l -1,0.3 0.25,0.05 m 23.7,-7.15 q -0.5,0.55 -0.45,1.05 l 0.3,0.7 0.55,0.6 0.35,0.85 q 0.65,0.3 1.5,1.2 0.9,-0.8 1.2,-2.15 l 0.15,-0.8 V -13 l 0.05,-0.4 -0.05,-0.95 0.05,-0.7 -1,-0.1 -1.6,-0.3 -1.05,1.55 m 3.95,5.95 0.65,0.55 1,-0.3 0.05,-0.2 0.55,-1.75 -1.05,-0.95 -0.3,-0.1 -0.05,0.1 q -0.3,1.05 -1,2.05 l -0.2,0.25 0.35,0.35 m -4.4,0.6 -1.75,2.2 4.25,-1.4 -0.65,-0.5 -1,-0.6 -0.55,-0.1 -0.3,0.4 m 10,-1.9 v 0.3 l 5.3,-1.75 -4.2,-0.45 -1.35,-0.15 q 0.35,0.9 0.25,2.05 m -67.8,3.45 q 0.05,-7.1 -0.2,-9.4 v -0.2 l -3.25,3.15 -3.65,3.85 -0.5,0.8 v 1.05 l 0.55,3.1 q 0.55,3.75 0.35,5.4 l 6.9,0.8 0.45,-0.35 q -0.7,-3.2 -0.65,-8.2 m 5.8,2.1 -1.7,0.3 -1.3,-0.45 V -2 l 0.3,-0.25 1.85,-0.2 2.85,0.55 2.45,0.3 q 1.25,-0.25 2.7,-2.1 -0.45,-0.85 -1.65,-1.05 l -2,0.25 -3.5,0.8 m 28.8,1 0.1,-0.2 L -1,-3 -5.75,-3.75 -7.7,-4 l -0.75,-0.1 -2.1,-0.1 -2,-0.1 q -0.35,-0.1 -0.6,-0.3 L -14,-4.85 q -1.15,-0.55 -1.05,-1.8 l 0.1,-0.4 -0.8,-1.85 q -0.45,-1.4 -0.95,-1.8 l -1.6,-0.25 -6.6,0.05 -0.9,0.2 -0.55,0.5 -1.4,2.4 3.05,-0.45 2.9,0.15 q 1.05,0.35 2.45,1.75 1.2,1.15 1.3,2.05 0.3,1.4 -1.5,3.3 -2.7,2.85 -5,2.95 l -2.3,-0.3 -1.45,-0.3 q 0.25,0.35 0.35,0.8 L -18,3 l 0.7,-1.05 0.55,-0.75 0.1,-0.25 0.35,-1.3 0.5,-1.15 q 0.5,-0.45 1.9,-0.35 l 12.45,1.05 h 0.1 l 1,-1.9 m -2.8,5.35 h -0.1 L -3.3,2.7 -3.15,2.65 m -5.75,16.9 q -0.15,2.2 -0.4,3.2 l -0.35,1.9 0.05,0.25 3.5,-1.25 Q 14.15,17.45 33.8,9.9 34.7,9.5 35,9.15 L 35.55,7.85 39.05,-6.6 -6.35,8.05 -8.05,8.5 -8.9,19.55 m -14.85,3.65 6.3,0.15 2.65,0.35 2.65,0.15 -0.05,-1.2 0.25,-1.3 L -12,19.4 -11.95,14.95 -11.5,7.65 -16.75,7.5 -22.1,7.05 -25.85,7 -30.15,6.4 q 0.6,1.2 1.2,3.5 l 1.1,3.6 1.05,2.15 q 0.55,1.25 1.2,3.5 l 1.05,3.55 0.3,0.45 0.5,0.05 M -31.9,1.4 -32.15,0.75 -32.25,1.9 h 0.4 L -31.9,1.4 m 48.95,6 -0.1,-0.65 -0.6,-0.3 Q 15.8,6 15.65,5.4 15.3,4.5 15.85,3.55 q 0.55,-0.8 1.6,-1.1 l 1.9,0.1 q 1.05,0.5 1.2,1.6 l -0.1,0.85 -0.4,0.8 -0.4,0.5 0.55,0.9 q 0.35,0.9 -0.1,1.75 L 19.6,9.55 18.45,9.8 17.6,9.65 17,9.05 V 8.3 L 17.1,7.6 17.05,7.4"
         fill="#000000"
         fill-rule="evenodd"
         stroke="none"
         id="path1" />
      <path
         d="m -34.95,-5.8 q -0.05,5 0.65,8.2 l -0.45,0.35 -6.9,-0.8 q 0.2,-1.65 -0.35,-5.4 l -0.55,-3.1 V -7.6 l 0.5,-0.8 3.65,-3.85 3.25,-3.15 v 0.2 q 0.25,2.3 0.2,9.4 m 11.2,29 -0.5,-0.05 -0.3,-0.45 -1.05,-3.55 q -0.65,-2.25 -1.2,-3.5 l -1.05,-2.15 -1.1,-3.6 q -0.6,-2.3 -1.2,-3.5 l 4.3,0.6 3.75,0.05 5.35,0.45 5.25,0.15 -0.45,7.3 -0.05,4.45 0.05,1.95 -0.25,1.3 0.05,1.2 -2.65,-0.15 -2.65,-0.35 -6.3,-0.15"
         fill="#a68989"
         fill-rule="evenodd"
         stroke="none"
         id="path2" />
      <path
         d="M -8.9,19.55 -8.05,8.5 -6.35,8.05 39.05,-6.6 35.55,7.85 35,9.15 Q 34.7,9.5 33.8,9.9 14.15,17.45 -6.1,23.65 l -3.5,1.25 -0.05,-0.25 0.35,-1.9 q 0.25,-1 0.4,-3.2 M 17.05,7.4 17.1,7.6 17,8.3 v 0.75 l 0.6,0.6 0.85,0.15 1.15,-0.25 0.5,-0.6 Q 20.55,8.1 20.2,7.2 l -0.55,-0.9 0.4,-0.5 0.4,-0.8 0.1,-0.85 q -0.15,-1.1 -1.2,-1.6 l -1.9,-0.1 q -1.05,0.3 -1.6,1.1 -0.55,0.95 -0.2,1.85 0.15,0.6 0.7,1.05 l 0.6,0.3 0.1,0.65"
         fill="#8d7373"
         fill-rule="evenodd"
         stroke="none"
         id="path3" />
      <path
         d="m 20.7,-27.55 -2.25,-0.2 3.4,-3.2 0.2,-0.15 0.1,-0.05 -0.05,1.65 -1.4,1.95 M -31.5,-9 l -0.7,1.25 -0.05,-7.95 q 15.75,-5.7 31.7,-9.95 l 19,-4.65 -2.85,2.95 -0.1,0.15 -3.6,1 q -2.65,0.9 -3.95,1.8 -2.1,1.5 -2.9,4 H 4.7 l -4.1,0.9 -7.65,1.95 -8.9,2.65 -0.95,0.4 -1.55,-0.1 -6.85,-0.05 -2.2,0.3 -1.5,1.5 -2.5,3.85 m 37.25,-4.15 -1.5,2.65 -1.3,0.35 -3.75,1.5 -3.6,1.3 -5,-0.9 -2.3,-0.25 q -0.4,-1.4 -1.05,-2.65 -0.7,-1.3 -1.45,-1.75 l -0.25,-0.4 q 4.1,-1.65 9.4,-3.25 l 7.95,-2.2 1.9,-0.4 q -0.05,0.55 0.2,0.9 0.45,0.7 1.55,0.7 l 1.8,-0.35 2.35,-0.5 4.8,-0.75 h 0.05 l -0.25,0.4 -0.75,0.9 -1.1,-0.1 q -2.5,-0.55 -4.6,0.95 -1.4,1 -3.1,3.85 m -6.15,6.4 -0.25,-0.05 1,-0.3 L 2.6,-7.75 1.65,-6.1 -0.4,-6.75 m 33.25,-2.5 q 0.1,-1.15 -0.25,-2.05 l 1.35,0.15 4.2,0.45 -5.3,1.75 v -0.3 m -62,5.55 3.5,-0.8 2,-0.25 q 1.2,0.2 1.65,1.05 -1.45,1.85 -2.7,2.1 l -2.45,-0.3 -2.85,-0.55 -1.85,0.2 -0.3,0.25 v -1.85 l 1.3,0.45 1.7,-0.3 m -2.75,5.1 0.05,0.5 h -0.4 l 0.1,-1.15 0.25,0.65"
         fill="#705b5b"
         fill-rule="evenodd"
         stroke="none"
         id="path4" />
      <path
         d="m 17.85,-5.05 q -0.55,0.65 -0.65,1.2 l -3.35,1.05 1.3,-3.1 0.35,-1 q 0,-0.6 -0.45,-0.8 Q 14.4,-8 13.8,-7 q -0.7,1.05 -1.45,2.9 l -0.8,2.1 -3.9,1.25 V -0.8 l 4.05,-6.8 q 0.4,-0.65 0.15,-0.95 L 11.1,-8.6 10.6,-8 9.5,-6.7 9.15,-6.1 8.65,-5.55 7.1,-3.4 4.75,0.1 4.7,0.2 2.5,0.9 l 0.55,-1.15 7.1,-11.9 q 0.8,-1.4 1.65,-1.7 l 1,0.05 q 0.2,0.85 1.35,1.35 1.1,0.6 3.35,1.3 l 1.5,0.25 h 0.05 l 0.9,0.4 0.75,0.55 Q 21,-9.4 20.25,-8.4 l -2.4,3.35"
         fill="#906363"
         fill-rule="evenodd"
         stroke="none"
         id="path5" />
      <path
         d="m 30.8,-24.55 0.2,-0.2 0.1,0.05 2.35,0.3 1,0.2 1,0.3 q 1.25,0.4 2.1,0 l 1.2,-0.95 q 0.85,-0.8 1.7,-0.9 1.2,-0.2 1.75,0.65 l 0.3,1.2 q 0.4,3.5 -0.65,6.85 l -2.2,-0.2 q -0.45,-0.1 -0.65,-0.3 -0.25,-0.25 -0.35,-0.8 -0.35,-1.55 -1.1,-1.95 l -1.55,0.05 -0.7,0.7 -0.65,0.65 -1.4,1.75 q -1.25,1 -2.85,0.8 l -1.05,-0.2 H 29.2 l -1.15,-0.25 -2.15,-0.3 -0.25,-0.05 5.15,-7.4 m -1.65,-4.6 -1.15,1.9 -2.15,-1.05 q 2.1,-2.8 3.85,-3.65 0.6,1 -0.55,2.8 m -9.6,13.7 -1.1,1.95 -0.35,-0.15 -1.05,-0.4 0.7,-1.15 q 2.2,-4.25 6.55,-10.85 l 0.55,-0.8 v -0.1 l 0.25,-0.3 1.9,1 0.25,0.05 q -3.75,5.65 -7.7,10.75 m -5.1,-8.55 4.75,-1.3 -2.1,3.3 q -0.5,-0.4 -1.75,-0.4 l -2.75,0.4 -3.4,0.7 1.4,-1.05 q 1.75,-0.95 3.85,-1.65 m 8.85,10.1 1.05,-1.55 1.6,0.3 1,0.1 -0.05,0.7 0.05,0.95 -0.05,0.4 v 0.55 l -0.15,0.8 q -0.3,1.35 -1.2,2.15 -0.85,-0.9 -1.5,-1.2 l -0.35,-0.85 -0.55,-0.6 -0.3,-0.7 q -0.05,-0.5 0.45,-1.05 m -23.65,11.2 -1,1.9 h -0.1 L -13.9,-1.85 q -1.4,-0.1 -1.9,0.35 l -0.5,1.15 -0.35,1.3 -0.1,0.25 L -17.3,1.95 -18,3 -27.95,2.15 q -0.1,-0.45 -0.35,-0.8 l 1.45,0.3 2.3,0.3 q 2.3,-0.1 5,-2.95 1.8,-1.9 1.5,-3.3 -0.1,-0.9 -1.3,-2.05 -1.4,-1.4 -2.45,-1.75 l -2.9,-0.15 -3.05,0.45 1.4,-2.4 0.55,-0.5 0.9,-0.2 6.6,-0.05 1.6,0.25 q 0.5,0.4 0.95,1.8 l 0.8,1.85 -0.1,0.4 q -0.1,1.25 1.05,1.8 l 0.85,0.25 q 0.25,0.2 0.6,0.3 l 2,0.1 2.1,0.1 0.75,0.1 1.95,0.25 4.75,0.75 0.75,0.1 -0.1,0.2"
         fill="#a0a0a0"
         fill-rule="evenodd"
         stroke="none"
         id="path6" />
      <path
         d="m 22.85,-7.35 0.3,-0.4 0.55,0.1 1,0.6 0.65,0.5 -4.25,1.4 1.75,-2.2 m 4.4,-0.6 -0.35,-0.35 0.2,-0.25 q 0.7,-1 1,-2.05 l 0.05,-0.1 0.3,0.1 1.05,0.95 -0.55,1.75 -0.05,0.2 -1,0.3 -0.65,-0.55"
         fill="#707070"
         fill-rule="evenodd"
         stroke="none"
         id="path7" />
      <path
         d="m -27.35,27.2 q -0.8,-0.6 -1.3,-2.25 -1.2,-4.95 -2.2,-7.25 l -1.45,-3.05 -0.9,-3.25 q -0.75,-2.8 -1.6,-5.15 l -5.4,-0.7 -1.75,-0.15 -1.6,0.1 q -1.1,-0.3 -1.35,-1.7 l 0.05,-2.25 q 0.1,-0.95 -0.25,-3.5 L -45.75,-7 q -0.2,-1.35 0.1,-1.9 l 0.8,-0.95 6.75,-6.4 2.6,-1.8 0.9,-0.05 1.85,-1 21.15,-6.6 6.95,-1.95 5.6,-1.35 21.15,-4.95 1.8,0.1 q 0.45,0.35 0.6,1.3 1.7,-1.9 2.75,-2.55 1.9,-1.2 3.6,-0.7 1.55,0.45 2.35,2.1 0.8,1.55 0.55,3.25 -0.2,1.25 -0.8,2.55 l 2.45,0.45 1.05,0.15 1,-0.65 q 1,-0.85 2.45,-1 l 2.75,0.25 q 1.35,0.5 2,1.35 0.6,0.75 0.75,1.95 l 0.1,3.8 -0.3,3.25 -0.45,1.95 -0.25,0.95 q -0.25,1.05 -0.75,1.4 -0.45,0.35 -1.4,0.25 l -3.45,-0.45 q -1.4,-0.4 -1.95,-1.3 -0.25,-0.35 -0.4,-1.05 l -0.15,-0.5 -0.4,0.8 q -1,1.75 -2.15,2.45 l 0.35,0.05 2.4,0.25 q 3.3,0.25 6.3,1.35 0.5,0.15 0.65,0.45 l 0.05,0.4 q 0.9,0.85 0.3,2.95 L 39.35,9.8 q -0.35,1.45 -0.9,2.25 -0.6,0.7 -1.65,1.15 l -1.9,0.65 Q 29.75,15.15 20.75,18.5 11,22.1 6.65,23.35 L 0.4,25 -10.05,27.65 q -0.45,0.5 -1.35,0.6 l -2.4,-0.05 -10.7,-0.5 q -2.05,0.05 -2.85,-0.5 z"
         fill="none"
         stroke="#000000"
         stroke-linecap="round"
         stroke-linejoin="round"
         stroke-width="1"
         id="path8" />
    </g>
    <g
       id="sprite1"
       transform="translate(17.4,15.85)">
      <use
         ffdec:characterId="31"
         height="57.200001"
         transform="matrix(0.5366,0,0,0.5366,-16.6582,-14.546)"
         width="70.75"
         xlink:href="#sprite2"
         id="use8" />
    </g>
    <g
       id="sprite2"
       transform="translate(-8.65,-10.35)">
      <use
         ffdec:characterId="30"
         height="57.200001"
         transform="translate(8.65,10.35)"
         width="70.75"
         xlink:href="#shape1"
         id="use9" />
    </g>
    <g
       id="shape1"
       transform="translate(-8.65,-10.35)">
      <path
         d="m 14.8,41.7 q 0.65,-1.75 2.65,-2.5 1.8,-0.8 3.7,-0.25 1.15,0.45 2.25,1.2 l 0.9,0.4 q 1.65,0.9 2.85,2.5 L 37.8,30.1 q 2.35,-2.8 3.75,-3.95 1.5,-1.15 4.25,-2.4 18.2,-8.85 27.65,-12.6 2.15,-0.8 3.25,-0.8 h 0.8 l 1.9,2.4 -0.2,0.8 q -0.2,1.1 -1.55,3 -5.85,8.25 -18.85,23.8 -1.85,2.35 -3.35,3.5 -1.4,1.15 -4.75,2.75 l -15.15,7.15 q 1.2,1.6 1.75,3.4 l 0.2,1 0.55,2.5 q 0.1,1.95 -1.1,3.55 -1.2,1.65 -3.05,1.9 l -1.3,0.05 q -1.65,0.2 -3.45,-0.65 -1.85,-0.9 -3,-2.6 L 25,60.95 23.8,62.1 q -2.6,2.85 -4.3,3.95 -2.85,1.8 -5.5,1.45 l -1.65,-0.5 -1.2,-0.7 -0.2,-0.2 q -1,-0.85 -1.6,-1.9 L 9.25,64 9.15,63.8 8.75,62.4 q -0.2,-0.8 -0.05,-1.7 0.25,-2.65 2.7,-5.05 1.5,-1.3 4.9,-3.15 L 17.7,51.55 16.05,50 q -1.35,-1.5 -1.8,-3.6 -0.4,-1.85 0.25,-3.45 l 0.3,-1.25"
         fill="#000000"
         fill-opacity="0.372549"
         fill-rule="evenodd"
         stroke="none"
         id="path9" />
    </g>
  </defs>
</svg>
