<?xml version="1.0" encoding="UTF-8" standalone="no"?>
<svg
   ffdec:objectType="frame"
   height="99.894997"
   width="97.449997"
   version="1.1"
   id="svg15"
   xmlns:xlink="http://www.w3.org/1999/xlink"
   xmlns="http://www.w3.org/2000/svg"
   xmlns:svg="http://www.w3.org/2000/svg"
   xmlns:ffdec="https://www.free-decompiler.com/flash">
  <g
     transform="translate(50.25,48.6)"
     id="g1">
    <use
       ffdec:characterId="17"
       height="119.15"
       id="rarity"
       transform="translate(-58.5,-60.65)"
       width="119.15"
       xlink:href="#sprite0" />
    <use
       ffdec:characterId="318"
       height="99.900002"
       transform="translate(-50.3,-48.6)"
       width="97.5"
       xlink:href="#shape0"
       id="use1" />
  </g>
  <defs
     id="defs15">
    <g
       id="shape0"
       transform="translate(50,51.1)">
      <path
         d="m -38.75,-23.75 -0.65,-1.85 q -0.75,-2.8 -0.35,-4.95 0.85,-4.4 7.6,-8.3 16.45,-9.65 35.25,-11.6 l 11.6,-0.65 7.4,0.3 q 2.9,0.4 4.1,1.75 1.35,1.4 1.55,4.95 v 3.05 l -0.05,0.35 -0.45,1.65 q 2.2,0.8 3.6,2.25 1.95,1.95 2.75,5.3 l 0.4,2.3 0.25,3.85 0.9,18.95 q 0.4,8.7 0.3,13.15 l -0.25,5.3 -0.35,6.5 L 34.7,22 q -0.25,4.9 -0.05,8.3 0.2,3.5 -0.6,4.95 -0.65,1.1 -2,1.9 L 29.4,38.3 q -28.35,10.15 -49.3,5.85 -5.55,-1.2 -7.7,-3.7 -1.15,-1.3 -1.8,-3.35 l -0.95,-3.75 -2.45,-13.2 -1,-4.9 -1.25,-5.55 -0.7,-2.6 q -0.4,-1.65 -1.35,-4.95 l -1.2,-5 -1.05,-6.35 -0.35,-2.65 -0.5,-3.55 0.05,-2.2 0.25,-1.25 q 0.45,-1.55 2,-3.4 l -0.85,-1.5 M 12.9,-40.2 h 6.05 0.2 l 0.95,-0.4 1.85,-0.7 q 0.8,-0.3 1.05,-0.5 l -0.55,-3.15 q -4.9,-0.35 -9.75,-0.2 l -8.25,0.65 -3.7,0.5 -3.3,0.6 -0.15,0.05 q -12.45,2.5 -23.55,8.2 l -4.6,2.7 q -2.75,1.75 -2.8,3.85 l 0.5,1.9 q 9.5,-7.5 23.1,-10.9 l 7.3,-1.4 4.8,-0.6 3.1,-0.3 7.75,-0.3 m 11.55,69.75 q 1.35,0.4 2.35,1 l 1.4,1.25 0.35,-1.7 0.35,-5.65 Q 29.7,9.8 29.4,-4.95 L 29,-15.45 v -0.6 l -0.05,-0.45 -0.3,-5.25 -0.35,-4.9 Q 28,-30.4 26.65,-31.85 25.1,-33.6 20.85,-33.9 H 20.5 q -1.3,0.75 -2.95,1.55 -11.65,5.45 -19.9,8.25 l 2.1,-0.1 4.05,0.4 0.9,0.2 q 2.25,0.55 4.35,1.55 l 2.7,1.55 q 4.6,3.1 7.55,8.05 1.55,2.55 2.6,5.6 3.05,8.8 0.9,17.95 -0.65,2.65 -1.45,4.1 -1.25,2.45 -3.6,4.6 L 16.1,21.15 Q 13.55,23 9.45,25 l -0.4,0.15 q -3.25,1.6 -5.65,2.2 l -5.7,0.55 q -7.15,0 -11.65,-2.5 H -14 q -2.3,-1.25 -4.2,-3.15 l -2.3,-2.75 q -1.8,-2.45 -3.2,-5.7 l -0.6,-1.4 q -1.1,-3.05 -1.4,-5 l -0.1,-3.3 h 0.05 l 1.5,0.2 q 0.8,-0.1 1.3,-0.65 1.15,-1.2 0.55,-2.8 -0.25,-0.7 -0.85,-1.2 -0.65,-0.5 -1.4,-0.5 l -0.6,0.1 0.05,-0.35 q 0.55,-3.2 1.3,-5.45 l 1.5,-3.45 2.25,-3.6 0.3,-0.45 1.85,-2.05 q 2,-2.1 4.5,-3.65 l 0.65,-0.4 3.65,-1.85 0.3,-0.15 q -11.25,2.95 -21,2.5 l -1.75,-0.25 q -1.1,1.1 -1.55,2.15 -0.8,1.9 -0.2,5.7 l 1.25,6.45 3.5,15.4 1.45,6 q 2.25,9.85 3.15,15.85 0.4,2.9 1.3,4 1,1.3 4,2.1 l 0.85,0.2 4.85,0.85 1.8,0.2 q 4.55,0.4 9.55,0.1 l 5.4,-0.55 q 5.35,-0.75 12.2,-2.5 l 0.65,-0.2 6.6,-1.8 L 21.7,33.45 20.5,33.1 18.9,32.7 17.55,32.45 16.9,32.4 11.3,32.2 2.45,32.65 H 2.4 2.25 l -2.5,0.35 -5.1,1.1 -0.95,0.25 h -0.05 l -1.5,0.45 q -1.05,0.3 -1.35,-0.2 -0.25,-0.35 0.1,-0.75 l 0.75,-0.6 q 3.6,-1.8 7.45,-2.85 L 1.75,29.7 10,28.55 10.45,28.5 14,28.25 l 5.45,0.3 0.8,0.1 2.5,0.45 0.25,0.05 0.3,0.05 1.15,0.35 M 11.6,-14.2 10.25,-15.25 10.2,-15.3 Q 7.25,-17.45 5.35,-18.2 2,-19.5 -2.1,-18.75 l -3.65,1.1 -3.55,1.75 -0.35,0.25 -2,1.3 q -3.2,2.35 -5.15,5.45 -2.35,3.85 -3.35,10.3 l -0.2,2.15 v 2.8 l 0.1,0.6 0.15,0.5 1.5,4.2 1.1,2.3 1.45,2.5 0.4,0.5 1.25,1.4 2.3,1.85 q 1.7,1.1 3.85,1.8 l 1.5,0.4 8.45,0.25 2.75,-0.55 Q 11.4,20.45 15.1,16.55 l 1.3,-1.6 1.1,-1.7 Q 19.15,10.15 19.45,6 L 19.5,5.35 19.45,3.25 V 3.2 L 19.35,2.1 19,-0.4 l -0.7,-3 q -1.5,-5.55 -4.15,-8.5 L 11.6,-14.2 M -4.95,7.15 -7.4,7.3 -9,7.1 q -2,-0.4 -3,-1 l -1.55,-1.3 q -1.8,-2.2 -1.5,-5.05 0.15,-1.7 1.05,-3.05 l 1.45,-1.6 q 1.15,-0.9 3.1,-1.6 3.35,-1.1 5.5,0.05 l 1.9,1.55 1.25,1.55 q 0.9,1.35 0.95,3.2 0,1.7 -0.7,3.3 l -0.4,0.9 -1,-0.6 q -1.3,-0.4 -2.4,0.7 -1.3,1.2 -0.75,2.7 l 0.15,0.3 m -0.8,-39.25 q -11.1,2.45 -19.75,7.8 l 3.35,-0.55 11.15,-2 q 7.95,-1.9 19.6,-7.15 -7.45,0.35 -14.35,1.9"
         fill="#000000"
         fill-rule="evenodd"
         stroke="none"
         id="path1" />
      <path
         d="m 12.7,-45.15 q 4.85,-0.15 9.75,0.2 L 23,-41.8 q -0.25,0.2 -1.05,0.5 l -1.85,0.7 -0.95,0.4 h -0.2 -6.05 q 0.2,-0.75 0.2,-2.45 0,-1.6 -0.4,-2.5 m -7.55,5.25 -3.1,0.3 -0.1,-1.25 -0.45,-1.65 -0.75,-1.5 3.7,-0.5 0.05,0.55 0.65,4.05 m -7.9,0.9 -7.3,1.4 q -13.6,3.4 -23.1,10.9 l -0.5,-1.9 q 0.05,-2.1 2.8,-3.85 l 4.6,-2.7 q 11.1,-5.7 23.55,-8.2 -0.35,0.65 -0.35,1.6 l 0.25,2.6 0.05,0.15 m -3,6.9 q 6.9,-1.55 14.35,-1.9 -11.65,5.25 -19.6,7.15 l -11.15,2 -3.35,0.55 q 8.65,-5.35 19.75,-7.8"
         fill="#2e2e2e"
         fill-rule="evenodd"
         stroke="none"
         id="path2" />
      <path
         d="m 12.7,-45.15 q 0.4,0.9 0.4,2.5 0,1.7 -0.2,2.45 l -7.75,0.3 -0.65,-4.05 -0.05,-0.55 8.25,-0.65 m -10.65,5.55 -4.8,0.6 -0.05,-0.15 -0.25,-2.6 q 0,-0.95 0.35,-1.6 l 0.15,-0.05 3.3,-0.6 0.75,1.5 0.45,1.65 0.1,1.25"
         fill="#515151"
         fill-rule="evenodd"
         stroke="none"
         id="path3" />
      <path
         d="m -0.25,-24.2 0.6,-0.15 0.35,-0.1 q 1.7,-0.2 3.3,0.5 l 0.7,0.35 -0.9,-0.2 -4.05,-0.4"
         fill="#c15454"
         fill-rule="evenodd"
         stroke="none"
         id="path4" />
      <path
         d="m 25.35,18.95 0.25,0.45 q 0.35,0.8 0.1,1.5 l -0.45,0.7 q -0.4,0.45 -1,0.6 l -0.4,0.1 h -0.1 l -0.35,-0.05 -0.3,-0.1 q -0.7,-0.3 -1,-1.1 -0.35,-0.95 0.05,-1.8 0.45,-0.85 1.4,-0.95 h 0.15 l 0.15,-0.1 0.15,0.05 h 0.1 q 0.75,0.2 1.1,0.55 l 0.15,0.15 M 4.55,15.5 V 15.3 Q 4.45,14.5 5.1,14.05 5.5,13.7 6.25,13.8 L 6.65,14 7,14.25 q 0.3,0.4 0.3,0.95 v 0.05 L 7.2,15.9 q -0.35,0.75 -1.15,0.85 -0.6,0.1 -1,-0.3 L 4.8,16.15 4.55,15.5 M 8.5,12.25 8.25,11.65 Q 7.9,10.4 8.25,9.1 L 9.15,7.15 Q 10.4,4.9 11.7,4.55 l 1.3,0.15 0.35,0.15 0.95,1 0.1,0.35 Q 14.55,7 14.3,7.9 l -1.25,3.15 -0.35,0.55 q -0.8,1.1 -1.55,1.45 -1.2,0.6 -2,0 L 8.5,12.25 m -23.55,-19.2 q -0.5,-1.1 0.15,-2.15 l 1.5,-1.8 1.7,-1.45 1.1,-1.15 q 0.6,-0.65 1.2,-0.9 l 1.55,-0.15 q 0.8,0.2 1.3,0.85 0.5,0.6 0.5,1.45 0,0.85 -0.5,1.5 l -0.4,0.4 -0.4,0.3 -4.1,3.6 -1,0.6 -1.3,0.05 q -0.7,-0.2 -1.1,-0.75 l -0.2,-0.4 m -13.65,1 -0.35,-0.35 q -0.55,-0.6 -0.85,-2.1 l -0.7,-4.9 v -0.1 q -0.2,-2.8 1.35,-3.75 0.75,-0.5 1.75,-0.3 0.75,0.15 1.3,0.7 l 0.2,0.2 0.2,0.25 q 0.45,0.65 0.65,1.75 l 0.4,2.25 0.3,0.9 0.2,0.75 0.05,0.35 q 0.15,0.95 0,1.8 l -0.3,0.75 -0.35,0.75 -0.3,0.4 -1.3,0.85 -1,0.2 q -0.7,-0.05 -1.25,-0.4 m 2.9,10.05 -0.85,-0.75 -0.45,-0.8 0.05,-1.3 Q -27.1,0.6 -26.8,0.15 l 0.35,-0.4 0.05,-0.05 0.35,-0.4 0.75,-0.35 0.1,-0.05 -0.05,0.35 0.6,-0.1 q 0.75,0 1.4,0.5 0.6,0.5 0.85,1.2 0.6,1.6 -0.55,2.8 -0.5,0.55 -1.3,0.65 l -1.5,-0.2 h -0.05 m 24.85,-0.05 0.1,0.1 Q -0.4,4.75 -0.45,5.4 -0.5,5.95 -1,6.75 L -2.4,8 -3.95,7.95 l -1,-0.8 -0.15,-0.3 q -0.55,-1.5 0.75,-2.7 1.1,-1.1 2.4,-0.7 l 1,0.6"
         fill="#ffffff"
         fill-rule="evenodd"
         stroke="none"
         id="path5" />
      <path
         d="m -6.95,-10.35 3,0.4 q 3.05,0.85 5.25,3.1 1.2,1.2 1.65,2.45 l 0.5,2.3 0.3,2.35 Q 3.85,2.7 2.85,5 1.9,7.35 0.1,8.95 q -2.15,2 -4.8,2.45 L -7.15,11.45 -8.5,11.3 q -2.35,-0.4 -4,-1.35 -1.7,-0.85 -3.45,-2.9 -1.4,-1.55 -1.9,-3.1 l -0.35,-2.6 0.2,-2.8 q 0.55,-3.05 2.8,-5.4 l 0.15,-0.1 0.2,0.4 q 0.4,0.55 1.1,0.75 l 1.3,-0.05 1,-0.6 4.1,-3.6 0.4,-0.3 m 6,14.4 0.4,-0.9 q 0.7,-1.6 0.7,-3.3 Q 0.1,-2 -0.8,-3.35 l -1.25,-1.55 -1.9,-1.55 q -2.15,-1.15 -5.5,-0.05 -1.95,0.7 -3.1,1.6 L -14,-3.3 q -0.9,1.35 -1.05,3.05 -0.3,2.85 1.5,5.05 L -12,6.1 q 1,0.6 3,1 l 1.6,0.2 2.45,-0.15 1,0.8 L -2.4,8 -1,6.75 Q -0.5,5.95 -0.45,5.4 -0.4,4.75 -0.85,4.15 l -0.1,-0.1"
         fill="#8bacaf"
         fill-rule="evenodd"
         stroke="none"
         id="path6" />
      <path
         d="m -14.95,14.1 q 0.9,0.35 1.6,1 l 0.85,1 0.55,1.05 q 0.45,1.05 0.3,1.85 -0.05,0.65 -0.45,1.2 l -2.3,-1.85 -1.25,-1.4 -0.4,-0.5 -1.45,-2.5 1.95,-0.05 0.6,0.2 m 11.15,3.5 q 0.35,-0.8 1.2,-1.1 l 1.55,-0.05 Q -0.2,16.7 0.2,17.3 l 0.1,0.15 q 0.3,0.5 0.25,1.1 L 0.1,19.95 -1,20.9 -2.85,20.8 q -0.9,-0.5 -1.2,-1.4 -0.25,-0.85 0.2,-1.75 L -3.8,17.6 M 14.3,-2 Q 13.95,-2.1 13.6,-2.35 L 13.1,-2.8 q -0.4,-0.5 -0.4,-1.25 -0.05,-0.8 0.55,-1.45 0.35,-0.45 0.85,-0.6 l 0.5,-0.15 h 0.2 q 0.7,0 1.3,0.4 0.7,0.5 0.9,1.3 0.15,0.8 -0.3,1.55 L 15.95,-2.2 15.5,-2 q -0.65,0.2 -1.2,0 m 4.7,1.6 0.35,2.5 0.1,1.1 V 3.25 L 19.5,5.35 19.45,6 q -0.3,4.15 -1.95,7.25 l -1.05,-0.85 -0.7,-1.2 -1.1,0.25 -1.6,-0.4 L 14.3,7.9 Q 14.55,7 14.4,6.2 L 14.3,5.85 h 0.1 L 15,5.9 V 5.8 L 15.9,3.45 16.35,2.7 q 0.3,-1.2 1.05,-2.05 0.6,-0.8 1.4,-1 L 19,-0.4 M 15.1,16.55 Q 11.4,20.45 4.45,22.1 L 1.7,22.65 q -0.25,-0.7 -0.1,-1.5 0.15,-0.85 1,-2.05 1.2,-1.65 2.45,-2.65 0.4,0.4 1,0.3 0.8,-0.1 1.15,-0.85 l 0.1,-0.65 1.1,-0.4 1.65,-0.4 q 1.55,-0.15 3.25,0.7 1.2,0.6 1.8,1.4 M 4,-12.1 q 0,-1.2 0.85,-1.85 l 0.4,-0.3 2.45,0.1 q 1.2,0.85 1.05,2.25 -0.1,0.9 -0.85,1.5 l -0.1,0.1 Q 7.1,-9.75 6.3,-9.8 5.4,-9.85 4.7,-10.5 4.05,-11.2 4,-12.1"
         fill="#915757"
         fill-rule="evenodd"
         stroke="none"
         id="path7" />
      <path
         d="m -20.35,3.55 0.2,-2.15 q 1,-6.45 3.35,-10.3 1.95,-3.1 5.15,-5.45 l 2,-1.3 0.35,-0.25 3.55,-1.75 3.65,-1.1 q 4.1,-0.75 7.45,0.55 1.9,0.75 4.85,2.9 l 0.05,0.05 1.35,1.05 1.45,3.55 0.65,2.3 0.4,2.25 q -0.5,0.15 -0.85,0.6 -0.6,0.65 -0.55,1.45 0,0.75 0.4,1.25 l 0.5,0.45 Q 13.95,-2.1 14.3,-2 14.2,0.15 13.7,2.3 L 13,4.7 11.7,4.55 Q 10.4,4.9 9.15,7.15 L 8.25,9.1 q -0.35,1.3 0,2.55 L 8.5,12.25 6.65,14 6.25,13.8 Q 5.5,13.7 5.1,14.05 4.45,14.5 4.55,15.3 v 0.2 l -1.6,0.9 Q 1.55,17.1 0.3,17.45 L 0.2,17.3 Q -0.2,16.7 -1.05,16.45 L -2.6,16.5 q -0.85,0.3 -1.2,1.1 l -2.1,-0.3 q -3.9,-0.65 -6.5,-1.75 l -0.95,-0.45 q -0.7,-0.65 -1.6,-1 l -0.2,-0.15 q -3,-2.3 -4.45,-6.75 l -0.05,-0.25 -0.7,-3.4 M 4,-12.1 q 0.05,0.9 0.7,1.6 0.7,0.65 1.6,0.7 0.8,0.05 1.5,-0.5 l 0.1,-0.1 Q 8.65,-11 8.75,-11.9 8.9,-13.3 7.7,-14.15 l -2.45,-0.1 -0.4,0.3 Q 4,-13.3 4,-12.1 m -19.05,5.15 -0.15,0.1 q -2.25,2.35 -2.8,5.4 l -0.2,2.8 0.35,2.6 q 0.5,1.55 1.9,3.1 1.75,2.05 3.45,2.9 1.65,0.95 4,1.35 l 1.35,0.15 2.45,-0.05 Q -2.05,10.95 0.1,8.95 1.9,7.35 2.85,5 3.85,2.7 3.75,0.25 L 3.45,-2.1 2.95,-4.4 Q 2.5,-5.65 1.3,-6.85 -0.9,-9.1 -3.95,-9.95 l -3,-0.4 0.4,-0.4 q 0.5,-0.65 0.5,-1.5 0,-0.85 -0.5,-1.45 -0.5,-0.65 -1.3,-0.85 l -1.55,0.15 q -0.6,0.25 -1.2,0.9 l -1.1,1.15 -1.7,1.45 -1.5,1.8 q -0.65,1.05 -0.15,2.15"
         fill="#dcc4c4"
         fill-rule="evenodd"
         stroke="none"
         id="path8" />
      <path
         d="m -19.65,6.95 0.05,0.25 q 1.45,4.45 4.45,6.75 l 0.2,0.15 -0.6,-0.2 -1.95,0.05 -1.1,-2.3 -1.5,-4.2 -0.15,-0.5 h 0.6 m 6.3,8.15 0.95,0.45 q 2.6,1.1 6.5,1.75 l 2.1,0.3 -0.05,0.05 q -0.45,0.9 -0.2,1.75 0.3,0.9 1.2,1.4 L -1,20.9 0.1,19.95 0.55,18.55 Q 0.6,17.95 0.3,17.45 1.55,17.1 2.95,16.4 l 1.6,-0.9 0.25,0.65 0.25,0.3 q -1.25,1 -2.45,2.65 -0.85,1.2 -1,2.05 -0.15,0.8 0.1,1.5 L -6.75,22.4 -8.25,22 q -2.15,-0.7 -3.85,-1.8 0.4,-0.55 0.45,-1.2 0.15,-0.8 -0.3,-1.85 l -0.55,-1.05 -0.85,-1 m 20,-1.1 1.85,-1.75 0.65,0.8 q 0.8,0.6 2,0 0.75,-0.35 1.55,-1.45 l 0.35,-0.55 1.6,0.4 1.1,-0.25 0.7,1.2 1.05,0.85 -1.1,1.7 -1.3,1.6 q -0.6,-0.8 -1.8,-1.4 -1.7,-0.85 -3.25,-0.7 l -1.65,0.4 -1.1,0.4 V 15.2 Q 7.3,14.65 7,14.25 L 6.65,14 M 13,4.7 13.7,2.3 q 0.5,-2.15 0.6,-4.3 0.55,0.2 1.2,0 L 15.95,-2.2 16.7,-3 q 0.45,-0.75 0.3,-1.55 -0.2,-0.8 -0.9,-1.3 -0.6,-0.4 -1.3,-0.4 h -0.2 l -0.5,0.15 -0.4,-2.25 -0.65,-2.3 -1.45,-3.55 2.55,2.3 q 2.65,2.95 4.15,8.5 l 0.7,3 -0.2,0.05 q -0.8,0.2 -1.4,1 Q 16.65,1.5 16.35,2.7 L 15.9,3.45 15,5.8 V 5.9 L 14.4,5.85 H 14.3 L 13.35,4.85 13,4.7"
         fill="#c1a9a9"
         fill-rule="evenodd"
         stroke="none"
         id="path9" />
      <path
         d="m 27.75,-41.05 2,0.2 q 2.7,0.75 4.7,4.6 1.65,3.25 2.45,7.65 l 2.25,1.55 q 1.45,1.6 1.5,3.55 0.05,1.8 -1.05,3.7 -0.85,1.6 -2.05,2.45 l 0.15,7.2 0.6,11 q 0.15,5.5 -0.2,10.5 l -0.05,0.8 q 0.75,0.15 1.25,0.5 1.1,0.7 1.6,2.15 0.4,1.25 0.25,2.7 -0.25,2.55 -1.8,3.95 -0.8,0.75 -1.85,1 l 0.1,2.45 0.5,5.15 q 0.1,2.9 -0.65,4.95 -1.65,4.7 -8.8,7.9 -10.3,4.6 -26.25,5.65 -6.05,0.35 -9.75,0.2 -8.7,-0.35 -17.1,-3.35 -3.35,-1.2 -4.75,-2.8 0.15,0.8 -0.15,1.65 -0.35,1 -1.2,1.5 -0.85,0.5 -1.85,0.4 -1.05,-0.15 -1.75,-0.8 -1.2,-1.1 -0.85,-2.8 0.2,-0.95 1.05,-1.6 0.75,-0.65 1.75,-0.7 0.95,-0.05 1.8,0.55 l 0.25,0.2 -0.45,-1.6 -0.45,-2.85 q -0.4,-3.05 -2.1,-8.8 L -36.2,15.7 -37,15.3 q -1.05,-0.6 -1.4,-1.7 l -0.1,-1.4 q 0.2,-1 1.05,-1.75 l -1.65,-7.15 -1.7,-7.4 -0.9,-4.25 -0.85,-0.05 q -1.3,-0.15 -2.3,-1.05 -1,-0.9 -1.2,-2.15 l 0.2,-2.55 q 0.4,-1.65 1,-2.5 l 1.75,-1.25 q 0.1,-2.1 0.95,-3.3 0.7,-1 2.1,-1.85 l 1.3,-0.7 0.85,1.5 q -1.55,1.85 -2,3.4 l -0.25,1.25 -0.05,2.2 0.5,3.55 0.35,2.65 1.05,6.35 1.2,5 q 0.95,3.3 1.35,4.95 l 0.7,2.6 1.25,5.55 1,4.9 2.45,13.2 0.95,3.75 q 0.65,2.05 1.8,3.35 2.15,2.5 7.7,3.7 20.95,4.3 49.3,-5.85 l 2.65,-1.15 q 1.35,-0.8 2,-1.9 0.8,-1.45 0.6,-4.95 -0.2,-3.4 0.05,-8.3 l 0.15,-3.45 0.35,-6.5 0.25,-5.3 Q 35.55,2.3 35.15,-6.4 L 34.25,-25.35 34,-29.2 33.6,-31.5 q -0.8,-3.35 -2.75,-5.3 -1.4,-1.45 -3.6,-2.25 l 0.45,-1.65 0.05,-0.35 m 14.4,4.9 q -0.65,0.55 -1.65,0.5 -0.95,-0.1 -1.55,-0.75 -0.6,-0.6 -0.7,-1.4 l 0.05,-1.1 0.35,-0.9 q 0.4,-0.65 1.15,-0.95 l 1.5,-0.05 q 1.05,0.35 1.55,1.4 0.4,1 0.05,2.1 l -0.75,1.15 m 3.05,27.2 0.35,1.45 q 0,0.75 -0.4,1.45 -0.45,0.65 -1.1,1 -1.45,0.75 -2.8,-0.25 -0.55,-0.35 -1.05,-1.25 -0.6,-1.2 -0.4,-2.2 0.2,-1.2 1.5,-1.9 l 1.55,-0.25 q 0.85,0.1 1.45,0.6 0.55,0.5 0.9,1.35 m -95.15,9.5 q 0.25,-1.5 1.5,-1.9 l 1.1,-0.05 q 0.9,0.15 1.5,0.75 0.5,0.55 0.5,1.4 0,0.85 -0.5,1.4 l -1.3,0.75 -1.5,-0.15 q -1.15,-0.5 -1.3,-1.6 v -0.6 m 4.35,12.55 q -0.25,-0.95 0.15,-1.9 0.4,-0.95 1.2,-1.4 0.8,-0.4 1.7,-0.25 0.9,0.15 1.5,0.75 0.6,0.6 0.8,1.5 0.2,0.9 -0.15,1.7 -0.4,1 -1.3,1.55 l -2.05,0.2 q -1.5,-0.45 -1.85,-2.15 m 11,15.3 q 1,1.4 0.3,3.15 l -1,1.35 q -0.65,0.5 -1.5,0.55 l -1.55,-0.35 -1.2,-1.25 -0.35,-1.3 0.05,-1 q 0.2,-0.85 0.8,-1.5 0.6,-0.6 1.45,-0.8 l 1.7,0.15 q 0.8,0.3 1.3,1 m 82.1,-5.7 -0.25,1.4 -1.15,1.15 -1.65,0.1 q -0.8,-0.2 -1.3,-1 -0.45,-0.75 -0.35,-1.6 l 0.25,-1 q 0.5,-1.45 1.1,-1.8 l 1.95,-0.1 q 0.65,0.3 0.9,0.65 0.5,0.6 0.5,2.2"
         fill="#f291ff"
         fill-opacity="0.498039"
         fill-rule="evenodd"
         stroke="none"
         id="path10" />
      <path
         d="m 20.4,-25.9 0.95,0.15 q 1.8,0.35 2.65,1.7 l 0.4,0.65 0.05,0.2 q 0.75,1.8 -0.35,4.4 -0.45,1.05 -1.05,1.6 l -0.05,0.05 -0.7,0.4 -0.6,0.15 -1.95,0.15 q -2.8,0 -3.75,-1.15 -0.65,-0.85 -0.65,-2.95 v -0.1 l 0.05,-0.95 0.15,-1.15 q 0.2,-0.85 0.55,-1.35 l 0.35,-0.4 1.6,-1 2.35,-0.4 m -2.65,45.7 0.4,0.15 0.2,0.1 q 0.75,0.5 1.4,1.95 0.65,1.65 0.65,2.75 l -0.25,1.65 -0.35,1.15 -0.35,1 L 14,28.25 10.45,28.5 10,28.55 Q 9.3,27 9.4,25.25 L 9.45,25 q 4.1,-2 6.65,-3.85 L 17.75,19.8 M -24.2,19 -24.9,18.3 q -0.5,-0.7 -0.4,-1.7 l 0.3,-1.2 0.3,-0.55 0.8,-0.9 0.2,-0.15 q 1.4,3.25 3.2,5.7 l -1.75,0.1 -0.55,-0.1 -1.05,-0.35 -0.25,-0.1 -0.1,-0.05 m 6,3.25 q 1.9,1.9 4.2,3.15 h 0.05 l -0.5,0.8 q -1.25,2.35 -0.9,4.8 l 0.05,0.5 0.25,1.15 q 0.1,0.7 -0.15,1.15 l -1.15,0.75 -0.25,0.05 h -0.45 l -0.75,-0.3 -0.95,-1 -0.65,-1.4 -0.5,-2.55 q -0.2,-2.15 0.5,-4.4 l 1.2,-2.7"
         fill="#f699ff"
         fill-rule="evenodd"
         stroke="none"
         id="path11" />
      <path
         d="m 22.3,-16.75 0.7,-0.4 0.05,-0.05 q 0.6,-0.55 1.05,-1.6 1.1,-2.6 0.35,-4.4 L 24.4,-23.4 24,-24.05 q -0.85,-1.35 -2.65,-1.7 l -0.95,-0.15 -0.15,-0.8 -0.15,-0.4 q -0.8,-1.8 -2.75,-2.2 -1.8,-0.45 -2.8,0.7 -0.45,0.5 -0.6,1.35 l -0.1,1.15 0.1,1.3 0.2,0.5 q 0.25,0.6 0.7,1.05 0.3,0.3 0.7,0.5 L 15.4,-21.6 13.1,-22 q -1.85,-0.25 -4.05,-0.05 -2.1,-1 -4.35,-1.55 L 4,-23.95 q -1.6,-0.7 -3.3,-0.5 l -0.35,0.1 -0.6,0.15 -2.1,0.1 q 8.25,-2.8 19.9,-8.25 1.65,-0.8 2.95,-1.55 h 0.35 q 4.25,0.3 5.8,2.05 1.35,1.45 1.65,5.2 l 0.35,4.9 0.3,5.25 0.05,0.45 h -0.1 l 0.1,0.6 0.4,10.5 q 0.3,14.75 -0.5,29.4 l -0.35,5.65 -0.35,1.7 -1.4,-1.25 q -1,-0.6 -2.35,-1 l 0.35,-0.6 q 1.65,-2.8 0.9,-8.05 0.25,-0.7 -0.1,-1.5 L 25.35,18.95 24.6,15.15 25.3,12.5 Q 28.05,1.45 25,-10.2 l -1.35,-4.05 -1.35,-2.5 m -48.5,0 q -0.55,-0.55 -1.3,-0.7 -1,-0.2 -1.75,0.3 -1.55,0.95 -1.35,3.75 v 0.1 l 0.7,4.9 q 0.3,1.5 0.85,2.1 l 0.35,0.35 q 0.75,10.8 3.7,21.35 l -0.3,1.2 q -0.1,1 0.4,1.7 l 0.7,0.7 v 0.05 q 0.05,3.05 0.6,6 1.15,6.05 4.2,10.85 l 1.5,2.05 -0.85,-0.2 q -3,-0.8 -4,-2.1 -0.9,-1.1 -1.3,-4 -0.9,-6 -3.15,-15.85 l -1.45,-6 -3.5,-15.4 -1.25,-6.45 q -0.6,-3.8 0.2,-5.7 0.45,-1.05 1.55,-2.15 l 1.75,0.25 q 9.75,0.45 21,-2.5 l -0.3,0.15 -3.65,1.85 -2.5,0.15 q -1.1,0.4 -1.7,1.2 l -0.65,1.1 -0.05,0.25 -0.15,0.6 -0.1,0.75 -1.85,2.05 -0.3,0.45 q -0.1,-1.1 -0.6,-1.8 l -0.55,-0.6 -0.25,-0.2 -0.2,-0.15 q -0.8,-0.5 -1.95,-0.6 l -2.5,0.2 m 46.7,49.85 1.2,0.35 1.45,0.6 -6.6,1.8 -0.05,-0.15 3.65,-2.35 0.35,-0.25"
         fill="#ff91f4"
         fill-opacity="0.498039"
         fill-rule="evenodd"
         stroke="none"
         id="path12" />
      <path
         d="m 22.3,-16.75 1.35,2.5 1.35,4.05 q 3.05,11.65 0.3,22.7 l -0.7,2.65 Q 24.2,12.45 24.55,10.45 24.75,9.4 25.5,7.2 L 26.4,3.9 Q 26.85,1 25.6,-3 l -1.25,-3.35 -1.9,-3.25 q -1.35,-1.75 -3.05,-2.8 l -0.1,-0.05 q -2.95,-4.95 -7.55,-8.05 l -2.7,-1.55 q 2.2,-0.2 4.05,0.05 l 2.3,0.4 -0.05,0.95 v 0.1 q 0,2.1 0.65,2.95 0.95,1.15 3.75,1.15 l 1.95,-0.15 0.6,-0.15 m -6.75,-6 q -0.4,-0.2 -0.7,-0.5 -0.45,-0.45 -0.7,-1.05 l -0.2,-0.5 -0.1,-1.3 0.1,-1.15 q 0.15,-0.85 0.6,-1.35 1,-1.15 2.8,-0.7 1.95,0.4 2.75,2.2 l 0.15,0.4 0.15,0.8 -2.35,0.4 -1.6,1 -0.35,0.4 q -0.35,0.5 -0.55,1.35 m -41.75,6 2.5,-0.2 q 1.15,0.1 1.95,0.6 l 0.2,0.15 0.25,0.2 0.55,0.6 q 0.5,0.7 0.6,1.8 l -2.25,3.6 -1.85,-0.65 -0.2,-0.75 -0.3,-0.9 -0.4,-2.25 q -0.2,-1.1 -0.65,-1.75 l -0.2,-0.25 -0.2,-0.2 m 8.2,0.65 0.1,-0.75 0.15,-0.6 0.05,-0.25 0.65,-1.1 q 0.6,-0.8 1.7,-1.2 l 2.5,-0.15 -0.65,0.4 q -2.5,1.55 -4.5,3.65 m 0.1,54.05 -1.5,-2.05 q -3.05,-4.8 -4.2,-10.85 -0.55,-2.95 -0.6,-6 V 19 l 0.1,0.05 0.25,0.1 1.6,4.8 0.8,2.05 1.55,3.35 0.5,2.55 0.65,1.4 0.95,1 0.75,0.3 h 0.45 q 2.4,2.9 5.35,4.4 l -1.8,-0.2 -4.85,-0.85 M 16.9,32.4 q -2.85,2.95 -8,4.5 L 6.05,37.7 2.9,38.4 -0.9,38.45 H -1 L -4.05,38.35 -5.5,38.1 q -0.8,-0.45 -1.15,-1.5 l -0.1,-1.4 0.3,-0.75 0.1,-0.1 h 0.05 l 0.95,-0.25 5.1,-1.1 2.5,-0.35 H 2.4 2.45 l 8.85,-0.45 5.6,0.2"
         fill="#c154be"
         fill-rule="evenodd"
         stroke="none"
         id="path13" />
      <path
         d="m 24.6,15.15 0.75,3.8 L 25.2,18.8 Q 24.85,18.45 24.1,18.25 H 24 L 23.85,18.2 23.7,18.3 h -0.15 q -0.95,0.1 -1.4,0.95 -0.4,0.85 -0.05,1.8 0.3,0.8 1,1.1 l 0.3,0.1 0.35,0.05 h 0.1 l 0.4,-0.1 q 0.6,-0.15 1,-0.6 l 0.45,-0.7 q 0.75,5.25 -0.9,8.05 L 24.45,29.55 23.3,29.2 23,29.15 22.75,29.1 l -2.5,-0.45 -0.8,-0.1 0.35,-1 0.35,-1.15 0.25,-1.65 q 0,-1.1 -0.65,-2.75 -0.65,-1.45 -1.4,-1.95 l -0.2,-0.1 -0.4,-0.15 q 2.35,-2.15 3.6,-4.6 0.8,-1.45 1.45,-4.1 2.15,-9.15 -0.9,-17.95 -1.05,-3.05 -2.6,-5.6 l 0.1,0.05 q 1.7,1.05 3.05,2.8 l 1.9,3.25 1.25,3.35 q 1.25,4 0.8,6.9 l -0.9,3.3 q -0.75,2.2 -0.95,3.25 -0.35,2 0.05,4.7 M -25,15.4 q -2.95,-10.55 -3.7,-21.35 0.55,0.35 1.25,0.4 l 1,-0.2 1.3,-0.85 0.3,-0.4 0.35,-0.75 0.3,-0.75 q 0.15,-0.85 0,-1.8 l -0.05,-0.35 1.85,0.65 -1.5,3.45 q -0.75,2.25 -1.3,5.45 l -0.1,0.05 -0.75,0.35 -0.35,0.4 -0.05,0.05 -0.35,0.4 q -0.3,0.45 -0.25,1.1 l -0.05,1.3 0.45,0.8 0.85,0.75 0.1,3.3 q 0.3,1.95 1.4,5 l 0.6,1.4 -0.2,0.15 -0.8,0.9 -0.3,0.55 m 4.5,4.1 2.3,2.75 -1.2,2.7 q -0.7,2.25 -0.5,4.4 l -1.55,-3.35 -0.8,-2.05 -1.6,-4.8 1.05,0.35 0.55,0.1 1.75,-0.1 m 6.55,5.9 q 4.5,2.5 11.65,2.5 l 5.7,-0.55 q 2.4,-0.6 5.65,-2.2 L 9.45,25 9.4,25.25 Q 9.3,27 10,28.55 L 1.75,29.7 -0.9,30.4 q -3.85,1.05 -7.45,2.85 l -0.75,0.6 q -0.35,0.4 -0.1,0.75 0.3,0.5 1.35,0.2 l 1.5,-0.45 -0.1,0.1 -0.3,0.75 0.1,1.4 q 0.35,1.05 1.15,1.5 l 1.45,0.25 3.05,0.1 h 0.1 L 2.9,38.4 6.05,37.7 8.9,36.9 q 5.15,-1.55 8,-4.5 l 0.65,0.05 1.35,0.25 1.6,0.4 -0.35,0.25 -3.65,2.35 -0.6,0.35 Q 9.05,37.8 3.7,38.55 l -5.4,0.55 q -5,0.3 -9.55,-0.1 -2.95,-1.5 -5.35,-4.4 l 0.25,-0.05 1.15,-0.75 q 0.25,-0.45 0.15,-1.15 L -15.3,31.5 -15.35,31 q -0.35,-2.45 0.9,-4.8 l 0.5,-0.8"
         fill="#9a4b87"
         fill-rule="evenodd"
         stroke="none"
         id="path14" />
    </g>
    <g
       id="sprite1"
       transform="translate(17.4,15.85)">
      <use
         ffdec:characterId="31"
         height="57.200001"
         transform="matrix(0.5366,0,0,0.5366,-16.6582,-14.546)"
         width="70.75"
         xlink:href="#sprite2"
         id="use14" />
    </g>
    <g
       id="sprite2"
       transform="translate(-8.65,-10.35)">
      <use
         ffdec:characterId="30"
         height="57.200001"
         transform="translate(8.65,10.35)"
         width="70.75"
         xlink:href="#shape1"
         id="use15" />
    </g>
    <g
       id="shape1"
       transform="translate(-8.65,-10.35)">
      <path
         d="m 14.8,41.7 q 0.65,-1.75 2.65,-2.5 1.8,-0.8 3.7,-0.25 1.15,0.45 2.25,1.2 l 0.9,0.4 q 1.65,0.9 2.85,2.5 L 37.8,30.1 q 2.35,-2.8 3.75,-3.95 1.5,-1.15 4.25,-2.4 18.2,-8.85 27.65,-12.6 2.15,-0.8 3.25,-0.8 h 0.8 l 1.9,2.4 -0.2,0.8 q -0.2,1.1 -1.55,3 -5.85,8.25 -18.85,23.8 -1.85,2.35 -3.35,3.5 -1.4,1.15 -4.75,2.75 l -15.15,7.15 q 1.2,1.6 1.75,3.4 l 0.2,1 0.55,2.5 q 0.1,1.95 -1.1,3.55 -1.2,1.65 -3.05,1.9 l -1.3,0.05 q -1.65,0.2 -3.45,-0.65 -1.85,-0.9 -3,-2.6 L 25,60.95 23.8,62.1 q -2.6,2.85 -4.3,3.95 -2.85,1.8 -5.5,1.45 l -1.65,-0.5 -1.2,-0.7 -0.2,-0.2 q -1,-0.85 -1.6,-1.9 L 9.25,64 9.15,63.8 8.75,62.4 q -0.2,-0.8 -0.05,-1.7 0.25,-2.65 2.7,-5.05 1.5,-1.3 4.9,-3.15 L 17.7,51.55 16.05,50 q -1.35,-1.5 -1.8,-3.6 -0.4,-1.85 0.25,-3.45 l 0.3,-1.25"
         fill="#000000"
         fill-opacity="0.372549"
         fill-rule="evenodd"
         stroke="none"
         id="path15" />
    </g>
  </defs>
</svg>
