<?xml version="1.0" encoding="UTF-8" standalone="no"?>
<svg
   ffdec:objectType="frame"
   height="88.230522"
   width="83.059189"
   version="1.1"
   id="svg4"
   xmlns:xlink="http://www.w3.org/1999/xlink"
   xmlns="http://www.w3.org/2000/svg"
   xmlns:svg="http://www.w3.org/2000/svg"
   xmlns:ffdec="https://www.free-decompiler.com/flash">
  <g
     transform="translate(41.068447,44.469828)"
     id="g1">
    <use
       ffdec:characterId="17"
       height="119.15"
       id="rarity"
       transform="translate(-58.5,-60.65)"
       width="119.15"
       xlink:href="#sprite0" />
    <use
       ffdec:characterId="543"
       height="88.199997"
       transform="translate(-41.05,-44.45)"
       width="83.050003"
       xlink:href="#shape0"
       id="use1" />
  </g>
  <defs
     id="defs4">
    <g
       id="shape0"
       transform="translate(40.65,43.65)">
      <path
         d="m 6.85,-38.9 1.4,-2.7 q 1.3,-2.45 4.45,-2 l 3.3,0.15 3.1,0.45 q 3.85,3 1,7.55 l -1.85,3.6 -4.55,11.25 q -0.25,2.1 -1.15,4 L 10.6,-13 q 0,1.25 -0.6,2.45 -0.8,1.4 -1.25,2.95 l 3.3,-3.1 2.8,-3.05 0.7,-1.05 2.05,-2.1 0.3,-0.55 0.95,-0.95 0.6,-0.35 q 2.6,-2.9 5.7,-5.45 l 3.4,-2.9 q 3.55,-4.1 8.6,-3.7 1.4,0.05 2.35,1 2.35,2.15 2.8,5.1 0.35,1.6 -0.65,3.1 -1.6,2.3 -3.65,4 L 25.1,-3.1 19.55,2.7 16.9,6.15 13.95,9.2 l -0.2,0.35 -0.5,0.7 -0.65,0.6 q 2.2,11.3 -2.2,21.5 L 10.25,32.7 8.7,35.75 7.4,38.4 q -3.25,7.3 -11,5.95 -4.7,-0.85 -5.25,-5.05 -0.2,-1.8 0.15,-3.65 -0.1,-1.6 0.6,-3.4 l 0.45,-0.95 q 1,-3.8 1.05,-7.85 Q -6.55,21.2 -7.05,19 l -0.25,-0.25 -1.25,-0.8 q -8.85,1.3 -16.45,5.95 -3.15,3.6 -8.4,4.55 -4,0.65 -6.15,-2.8 -2.4,-3.9 0.35,-7.75 3.85,-5.5 9.25,-8.65 L -26.6,7 -20.7,3.75 -10.3,-2 q 5.15,-10.95 9.95,-21.95 2.75,-6.4 5.95,-12.6 l 1.25,-2.35 m 12.6,32.9 0.45,-0.55 4.3,-4.4 4,-4.55 4.6,-4.95 3.45,-3.45 q 0.35,-0.7 -0.7,-1.15 l -0.6,-0.15 Q 25.8,-17.8 17.6,-9.5 l -4.8,4.95 q -0.75,1.4 -1.75,2.45 -0.9,1 -1.9,1.65 l -0.9,1.3 0.95,1.5 0.15,0.4 0.5,1.8 0.1,0.75 2.2,-2.6 7.3,-8.7 m -19.95,2.35 1.55,0.15 4.3,-10.75 q 1.3,-3.35 2.95,-6.45 1.3,-4.95 3.25,-9.75 l 1.95,-3.9 q 0.05,-0.85 0.55,-1.65 0.6,-1.05 0.4,-1.6 l -1.2,0.1 H 12.8 l -0.7,0.05 -7.9,17.85 -2.4,5.4 q -2.35,5.55 -5.2,10.85 l 1.85,-0.3 H -0.5 M -8.55,7.5 q 0.7,3.25 3.85,5.1 2.35,1.2 4.75,0.95 L 0.55,13.5 2,13.1 2.7,12.8 3.5,12.55 3.75,12.15 4.05,11.85 4.75,11.3 5.2,10.55 5.95,9.25 6.25,8.7 6.35,7.3 V 6.7 L 6.3,5.6 5.9,3.9 5.8,3.75 5.75,3.65 5.2,2.65 4.7,2.35 4.55,2.25 2.45,1 1.35,0.35 1.15,0.3 Q -1.7,-0.3 -4.3,1.05 L -5.25,1.6 -6.95,2.85 -7.05,2.9 -7.65,4 -8.7,6.1 -8.75,6.3 -8.7,6.45 -8.55,7.5 M 1.55,2.75 Q 5,5.9 2,9.5 L 1.75,9.75 q -0.95,1.2 -2.35,1.2 L -1.9,10.7 Q -5.25,9.65 -5.05,6.6 l 0.1,-0.75 Q -4.25,2.3 -0.45,2 L 1.2,2.4 1.55,2.75 m -2.1,16.35 0.15,1.35 0.3,-0.1 7.6,0.4 Q 7.85,16.9 7.45,13.05 5.55,15.65 2.3,16.5 l -1.6,0.3 -0.65,0.1 -1.3,0.1 q 0.5,0.95 0.7,2.1 m -11.7,-13.25 0.05,-0.3 -0.4,0.2 -4.4,2.5 0.85,1.05 0.55,0.95 q 0.65,1.25 0.9,2.7 l 1.8,-0.6 2.1,-0.45 -0.7,-1.2 Q -11.9,10 -11.75,9.2 L -11.95,8.85 -12.1,8.6 -12.15,8.35 -12.3,7.9 -12.4,7.3 V 7.1 l 0.15,-1.25"
         fill="#000000"
         fill-rule="evenodd"
         stroke="none"
         id="path1" />
      <path
         d="m 5.6,-36.55 0.2,-0.5 1.05,-1.85 -1.25,2.35 m 3.6,38.9 -0.95,-1.5 0.9,-1.3 q 1,-0.65 1.9,-1.65 1,-1.05 1.75,-2.45 l 4.8,-4.95 q 8.2,-8.3 17.35,-15.7 l 0.6,0.15 q 1.05,0.45 0.7,1.15 l -3.45,3.45 -4.6,4.95 -4,4.55 -4.3,4.4 -0.45,0.55 q -3,2.8 -6.3,5.4 L 9.2,2.35 m 4.05,-39.85 -0.75,1.7 q -4.05,7.25 -6.75,15.2 -2.75,8.05 -6,15.75 l -0.25,1.2 h -1.05 l -1.85,0.3 q 2.85,-5.3 5.2,-10.85 l 2.4,-5.4 7.9,-17.85 0.7,-0.05 h 0.45 M 2.45,1 2.25,1.6 1.55,2.75 1.2,2.4 -0.45,2 q -3.8,0.3 -4.5,3.85 L -5.05,6.6 -8.2,6.65 H -8.25 L -8.7,6.45 -8.75,6.3 -8.7,6.1 -7.65,4 -7.05,2.9 -6.95,2.85 -5.25,1.6 -4.3,1.05 Q -1.7,-0.3 1.15,0.3 L 1.35,0.35 2.45,1 m -15.05,4.75 0.3,0.1 h 0.05 L -12.4,7.1 v 0.2 l 0.1,0.6 0.15,0.45 0.05,0.25 -3.5,1.65 -0.55,-0.95 -0.85,-1.05 4.4,-2.5"
         fill="#e1e1e1"
         fill-rule="evenodd"
         stroke="none"
         id="path2" />
      <path
         d="m 9.2,2.35 3.95,-2.95 q 3.3,-2.6 6.3,-5.4 L 12.15,2.7 9.95,5.3 9.85,4.55 9.35,2.75 9.2,2.35 m 4.05,-39.85 1.2,-0.1 q 0.2,0.55 -0.4,1.6 -0.5,0.8 -0.55,1.65 l -1.95,3.9 q -1.95,4.8 -3.25,9.75 -1.65,3.1 -2.95,6.45 l -4.3,10.75 -1.55,-0.15 0.25,-1.2 q 3.25,-7.7 6,-15.75 2.7,-7.95 6.75,-15.2 l 0.75,-1.7 M 4.7,2.35 l 0.5,0.3 0.55,1 0.05,0.1 0.1,0.15 0.4,1.7 0.05,1.1 V 7.3 L 6.25,8.7 5.95,9.25 5.2,10.55 4.75,11.3 4.05,11.85 3.75,12.15 3.5,12.55 2.7,12.8 2,13.1 0.55,13.5 0.05,13.55 Q -2.35,13.8 -4.7,12.6 -7.85,10.75 -8.55,7.5 L -8.2,6.65 -5.05,6.6 q -0.2,3.05 3.15,4.1 l 1.3,0.25 q 1.4,0 2.35,-1.2 L 2,9.5 Q 5,5.9 1.55,2.75 L 2.25,1.6 2.45,1 4.55,2.25 4.65,2.45 4.7,2.35 M -0.55,19.1 q -0.2,-1.15 -0.7,-2.1 l 1.3,-0.1 0.65,-0.1 1.6,-0.3 q 3.25,-0.85 5.15,-3.45 0.4,3.85 0.05,7.7 l -7.6,-0.4 -0.3,0.1 -0.15,-1.35 m -15.05,-8.85 3.5,-1.65 0.15,0.25 0.2,0.35 q -0.15,0.8 0.25,1.5 l 0.7,1.2 -2.1,0.45 -1.8,0.6 q -0.25,-1.45 -0.9,-2.7"
         fill="#9d9d9d"
         fill-rule="evenodd"
         stroke="none"
         id="path3" />
    </g>
    <g
       id="sprite1"
       transform="translate(17.4,15.85)">
      <use
         ffdec:characterId="31"
         height="57.200001"
         transform="matrix(0.5366,0,0,0.5366,-16.6582,-14.546)"
         width="70.75"
         xlink:href="#sprite2"
         id="use3" />
    </g>
    <g
       id="sprite2"
       transform="translate(-8.65,-10.35)">
      <use
         ffdec:characterId="30"
         height="57.200001"
         transform="translate(8.65,10.35)"
         width="70.75"
         xlink:href="#shape1"
         id="use4" />
    </g>
    <g
       id="shape1"
       transform="translate(-8.65,-10.35)">
      <path
         d="m 14.8,41.7 q 0.65,-1.75 2.65,-2.5 1.8,-0.8 3.7,-0.25 1.15,0.45 2.25,1.2 l 0.9,0.4 q 1.65,0.9 2.85,2.5 L 37.8,30.1 q 2.35,-2.8 3.75,-3.95 1.5,-1.15 4.25,-2.4 18.2,-8.85 27.65,-12.6 2.15,-0.8 3.25,-0.8 h 0.8 l 1.9,2.4 -0.2,0.8 q -0.2,1.1 -1.55,3 -5.85,8.25 -18.85,23.8 -1.85,2.35 -3.35,3.5 -1.4,1.15 -4.75,2.75 l -15.15,7.15 q 1.2,1.6 1.75,3.4 l 0.2,1 0.55,2.5 q 0.1,1.95 -1.1,3.55 -1.2,1.65 -3.05,1.9 l -1.3,0.05 q -1.65,0.2 -3.45,-0.65 -1.85,-0.9 -3,-2.6 L 25,60.95 23.8,62.1 q -2.6,2.85 -4.3,3.95 -2.85,1.8 -5.5,1.45 l -1.65,-0.5 -1.2,-0.7 -0.2,-0.2 q -1,-0.85 -1.6,-1.9 L 9.25,64 9.15,63.8 8.75,62.4 q -0.2,-0.8 -0.05,-1.7 0.25,-2.65 2.7,-5.05 1.5,-1.3 4.9,-3.15 L 17.7,51.55 16.05,50 q -1.35,-1.5 -1.8,-3.6 -0.4,-1.85 0.25,-3.45 l 0.3,-1.25"
         fill="#000000"
         fill-opacity="0.372549"
         fill-rule="evenodd"
         stroke="none"
         id="path4" />
    </g>
  </defs>
</svg>
