<?xml version="1.0" encoding="UTF-8" standalone="no"?>
<svg
   ffdec:objectType="frame"
   height="91.644646"
   width="80.29377"
   version="1.1"
   id="svg4"
   xmlns:xlink="http://www.w3.org/1999/xlink"
   xmlns="http://www.w3.org/2000/svg"
   xmlns:svg="http://www.w3.org/2000/svg"
   xmlns:ffdec="https://www.free-decompiler.com/flash">
  <g
     transform="translate(44.196154,46.1)"
     id="g1">
    <use
       ffdec:characterId="17"
       height="119.15"
       id="rarity"
       transform="translate(-58.5,-60.65)"
       width="119.15"
       xlink:href="#sprite0" />
    <use
       ffdec:characterId="483"
       height="91.849998"
       transform="translate(-44.2,-46.3)"
       width="80.300003"
       xlink:href="#shape0"
       id="use1" />
  </g>
  <defs
     id="defs4">
    <g
       id="shape0"
       transform="translate(43.8,45.5)">
      <path
         d="m -30.6,-33.7 15.25,-11.55 1.4,-0.05 q 5.35,3.45 7.85,9.05 0.25,0.55 -0.25,1 -4.3,3.4 -8.25,7.15 0.6,0.65 1.05,1.6 1.5,2.65 3.55,4.85 l 4.9,5.5 q 6,7.3 11.1,15.1 l 9.1,10.9 6.95,-6.6 q 2.1,-2.95 5.35,-3.3 1.3,-0.2 2.2,0.8 2.3,2.5 3.85,5.4 1.8,2.1 -0.2,4.25 -4.9,5.1 -10.7,9.05 1.35,2.4 2,5.15 0.2,0.85 -0.55,1.45 L 22.65,27.2 24,28.5 q 1.6,-0.95 3.3,-1.65 L 28.25,27 q 2.95,1.85 5.2,4.55 4,1.85 2.75,5.45 l -0.6,1.1 Q 32,42.8 26.5,45.7 22.95,47.6 20.7,43.9 18.1,39.75 17.05,35 16.85,34.05 17.6,33.5 L 19.15,32 19.45,31.75 19,31.2 18.5,30.3 16.6,31.6 q -1.55,1.1 -2.7,-0.3 l -2.1,-2.4 -0.75,0.8 q -5.4,5.45 -11.75,9.35 -0.9,0.55 -1.8,0 -4.15,-2.75 -5.55,-7.3 -0.25,-0.7 0.3,-1.25 L -0.9,22.65 3.95,19 -0.9,12.2 Q -4.5,6.7 -8.55,1.4 l -14.3,-19.45 -0.55,-0.9 q -4.9,5.55 -11.05,9.05 -0.55,0.4 -1.2,0 -5.5,-3.55 -8.05,-9.15 -0.25,-0.55 0.15,-1 4.75,-5.7 10.2,-10.95 l 2.75,-2.7 m 3.9,3.85 q -3.85,4.35 -8.05,8.25 l -2.55,2.7 0.5,0.6 0.6,0.75 0.15,0.15 0.4,0.35 0.35,0.25 0.15,0.15 0.15,0.1 0.5,0.35 21.95,-21.05 -0.15,-0.15 -0.85,-0.8 -0.4,-0.4 -0.3,-0.2 -0.4,-0.25 -0.1,-0.15 -11.95,9.35 m 9.6,12.15 q 1.2,1.8 2.6,3.5 l 2.5,-1.65 -1.25,-1.5 -3.1,-3.7 -2.25,-3.15 -2.2,2.4 q 2.1,1.65 3.7,4.1 M 0.85,5.8 q 5.6,7 10.9,14.25 L 15.9,25.9 19,23.3 18.9,23.2 Q 12.6,14.95 5.7,6.9 3,3.8 1,0.45 l -11.3,-14.1 -1.8,2.25 q 7,8.2 12.95,17.2 m -3.75,26.35 0.1,0.15 0.1,0.15 0.15,0.2 0.5,0.55 0.6,0.75 Q 3.4,29.3 8.6,25.2 l -2.3,-3 q -5.45,4.5 -9.2,9.95 M 29,8 28.9,7.75 28.25,6.55 27.1,5.25 Q 22.8,9.5 17.9,13.2 L 19.7,15.4 29,8 m -5.05,26.75 -1,1.1 -0.5,0.4 q 0.25,1.3 0.9,2.5 l 1.55,2.2 5.25,-4.4 q 0.55,-0.45 0.45,-0.9 l -1.65,-1.35 -1.9,-1.75 q -1.6,0.65 -3.1,2.2"
         fill="#000000"
         fill-rule="evenodd"
         stroke="none"
         id="path1" />
      <path
         d="m -26.7,-29.85 11.95,-9.35 0.1,0.15 0.4,0.25 0.3,0.2 0.4,0.4 0.85,0.8 0.15,0.15 -21.95,21.05 -0.5,-0.35 -0.15,-0.1 -0.15,-0.15 -0.35,-0.25 -0.4,-0.35 -0.15,-0.15 -0.6,-0.75 -0.5,-0.6 2.55,-2.7 q 4.2,-3.9 8.05,-8.25 m 50.65,64.6 q 1.5,-1.55 3.1,-2.2 l 1.9,1.75 1.65,1.35 q 0.1,0.45 -0.45,0.9 l -5.25,4.4 -1.55,-2.2 q -0.65,-1.2 -0.9,-2.5 l 0.5,-0.4 1,-1.1"
         fill="#9a7c7c"
         fill-rule="evenodd"
         stroke="none"
         id="path2" />
      <path
         d="m 29,8 -9.3,7.4 -1.8,-2.2 q 4.9,-3.7 9.2,-7.95 l 1.15,1.3 0.65,1.2 L 29,8 M -2.9,32.15 Q 0.85,26.7 6.3,22.2 l 2.3,3 Q 3.4,29.3 -1.45,33.95 L -2.05,33.2 -2.55,32.65 -2.7,32.45 -2.8,32.3 -2.9,32.15 M 0.85,5.8 q -5.95,-9 -12.95,-17.2 l 1.8,-2.25 L 1,0.45 q 2,3.35 4.7,6.45 6.9,8.05 13.2,16.3 l 0.1,0.1 -3.1,2.6 -4.15,-5.85 Q 6.45,12.8 0.85,5.8 M -17.1,-17.7 q -1.6,-2.45 -3.7,-4.1 l 2.2,-2.4 2.25,3.15 3.1,3.7 1.25,1.5 -2.5,1.65 q -1.4,-1.7 -2.6,-3.5"
         fill="#a3a3a3"
         fill-rule="evenodd"
         stroke="none"
         id="path3" />
    </g>
    <g
       id="sprite1"
       transform="translate(17.4,15.85)">
      <use
         ffdec:characterId="31"
         height="57.200001"
         transform="matrix(0.5366,0,0,0.5366,-16.6582,-14.546)"
         width="70.75"
         xlink:href="#sprite2"
         id="use3" />
    </g>
    <g
       id="sprite2"
       transform="translate(-8.65,-10.35)">
      <use
         ffdec:characterId="30"
         height="57.200001"
         transform="translate(8.65,10.35)"
         width="70.75"
         xlink:href="#shape1"
         id="use4" />
    </g>
    <g
       id="shape1"
       transform="translate(-8.65,-10.35)">
      <path
         d="m 14.8,41.7 q 0.65,-1.75 2.65,-2.5 1.8,-0.8 3.7,-0.25 1.15,0.45 2.25,1.2 l 0.9,0.4 q 1.65,0.9 2.85,2.5 L 37.8,30.1 q 2.35,-2.8 3.75,-3.95 1.5,-1.15 4.25,-2.4 18.2,-8.85 27.65,-12.6 2.15,-0.8 3.25,-0.8 h 0.8 l 1.9,2.4 -0.2,0.8 q -0.2,1.1 -1.55,3 -5.85,8.25 -18.85,23.8 -1.85,2.35 -3.35,3.5 -1.4,1.15 -4.75,2.75 l -15.15,7.15 q 1.2,1.6 1.75,3.4 l 0.2,1 0.55,2.5 q 0.1,1.95 -1.1,3.55 -1.2,1.65 -3.05,1.9 l -1.3,0.05 q -1.65,0.2 -3.45,-0.65 -1.85,-0.9 -3,-2.6 L 25,60.95 23.8,62.1 q -2.6,2.85 -4.3,3.95 -2.85,1.8 -5.5,1.45 l -1.65,-0.5 -1.2,-0.7 -0.2,-0.2 q -1,-0.85 -1.6,-1.9 L 9.25,64 9.15,63.8 8.75,62.4 q -0.2,-0.8 -0.05,-1.7 0.25,-2.65 2.7,-5.05 1.5,-1.3 4.9,-3.15 L 17.7,51.55 16.05,50 q -1.35,-1.5 -1.8,-3.6 -0.4,-1.85 0.25,-3.45 l 0.3,-1.25"
         fill="#000000"
         fill-opacity="0.372549"
         fill-rule="evenodd"
         stroke="none"
         id="path4" />
    </g>
  </defs>
</svg>
