<?xml version="1.0" encoding="UTF-8" standalone="no"?>
<svg
   ffdec:objectType="frame"
   height="83.449997"
   width="88.58091"
   version="1.1"
   id="svg7"
   sodipodi:docname="ITEM Energy Transmitter.svg"
   xmlns:inkscape="http://www.inkscape.org/namespaces/inkscape"
   xmlns:sodipodi="http://sodipodi.sourceforge.net/DTD/sodipodi-0.dtd"
   xmlns:xlink="http://www.w3.org/1999/xlink"
   xmlns="http://www.w3.org/2000/svg"
   xmlns:svg="http://www.w3.org/2000/svg"
   xmlns:ffdec="https://www.free-decompiler.com/flash">
  <sodipodi:namedview
     id="namedview7"
     pagecolor="#ffffff"
     bordercolor="#000000"
     borderopacity="0.25"
     inkscape:showpageshadow="2"
     inkscape:pageopacity="0.0"
     inkscape:pagecheckerboard="0"
     inkscape:deskcolor="#d1d1d1"
     fit-margin-top="5"
     fit-margin-left="5"
     fit-margin-right="5"
     fit-margin-bottom="5" />
  <g
     transform="translate(42.268182,41.6)"
     id="g1">
    <use
       ffdec:characterId="17"
       height="119.15"
       id="rarity"
       transform="translate(-58.5,-60.65)"
       width="119.15"
       xlink:href="#sprite0" />
    <use
       ffdec:characterId="1045"
       height="83.5"
       transform="translate(-42.25,-41.6)"
       width="88.550003"
       xlink:href="#shape0"
       id="use1" />
  </g>
  <defs
     id="defs7">
    <g
       id="shape0"
       transform="translate(89.05,42.95)">
      <path
         d="m -43.55,21.85 q -4.2,1.45 -12.7,1.95 l -7.2,0.35 q 0.35,1.15 0.3,2.65 -0.1,2.3 -1.05,3.9 l -0.2,0.35 q 0.75,1.05 0.75,2.5 0,1.4 -0.7,2.65 -1.25,2.2 -4.25,3.35 -2.15,0.75 -6.3,0.95 l -4,-0.15 q -2.25,-0.45 -3.55,-1.75 l -1.15,-1.55 q -0.65,-1.3 -0.7,-2.2 -0.05,-1 0.6,-2.5 1.15,-2.45 3.15,-3.8 1.2,-0.85 3.45,-1.8 l 2.45,-0.75 2.45,-0.25 q 2.25,0.1 3.45,1.1 l 0.7,0.75 q 0.3,-1.05 -0.3,-1.65 -0.3,-0.4 -1.35,-0.6 l -6.2,0.15 -2,0.45 -2.05,0.4 q -2.9,0.4 -5.35,-1.05 -2.55,-1.4 -3.4,-4.2 -0.45,-1.55 -0.35,-3.8 0.1,-2.45 0.5,-3.6 l 1.7,-3.3 2.45,-3.5 q 1.5,-1.8 3.15,-2.7 l 1.8,-0.75 q -0.55,-7.3 0.65,-14.15 0.4,-2.3 1,-3.3 0.95,-1.4 2.8,-2.5 2.3,-1.55 4.9,-2.55 l 4.95,-1.65 10.2,-3.45 q 6,-1.9 10.45,-2.35 l 2.75,0.1 0.7,0.3 0.8,-1.2 q 1.05,-1 2.9,-1.65 l 0.75,-0.25 1.45,0.1 0.2,-2.3 0.6,-1.95 q 0.7,-1.25 3.1,-2.35 5.25,-2.4 12.2,-4.25 l 12.6,-2.85 q 1.8,-0.3 2.6,0 1,0.35 2.05,2.25 1.9,3.35 1.05,5.2 -0.5,1.15 -2.35,2.3 l -5.5,3.05 -5.5,2.9 q -2.3,1.4 -3.45,2.05 -2.05,1.25 -3.55,1.9 -4.3,1.85 -7.8,1.25 l -1.95,-0.6 q -0.25,0.9 -0.9,1.55 l -0.85,0.75 -0.35,0.3 q 1.7,1.7 2.55,2.35 l 1.75,1.35 1.35,1.55 q 0.7,0.8 0.95,1.55 l 0.15,0.8 1.15,-1.2 1.15,-0.55 1.1,-0.35 1.5,-0.35 1.2,0.1 1.5,0.1 q 4.5,0.55 6.6,2.65 1.25,1.35 2.1,3.7 2.75,7.4 1.55,15.1 -0.45,2.65 -1.3,4.15 -1.2,1.95 -3.7,3.5 -6.85,4.5 -18,4.95 l -3.6,-0.35 -0.25,0.15 -1.9,0.65 -1.8,0.55 -1.8,0.4 -0.95,0.05 -1.9,0.9 m -28.6,-23.1 v -6.3 q 0,-2.4 0.8,-3.55 0.85,-1.1 2.9,-1.75 l 4.35,-1.25 q 2.75,-0.7 4.3,-1.3 l 4.3,-1.75 1.35,-0.45 3.05,-0.6 2.05,0.25 q 1.05,0.4 1.45,1.25 0.35,0.75 0.25,2.05 -0.5,13.3 -0.35,27.6 0,2 -0.6,2.75 -0.75,0.9 -3.1,1.1 l -10.95,0.8 -3.85,-0.1 q -2.15,-0.35 -3.25,-1.95 l -0.75,-1.9 q -1.7,-6 -1.95,-14.9 m 17.95,-17.2 -8.45,2.95 -4.25,1.4 -4.05,1.8 q -1.4,0.75 -1.9,1.7 l -0.4,1.85 q -0.35,3.5 -0.25,7.2 0.25,8.55 2.9,18.15 l 0.65,1.3 q 0.45,0.4 1.7,0.4 l 11.3,-0.25 5.45,-0.3 5.05,-1 0.1,-2.8 V 13.1 l 0.1,-5.6 0.25,-1.5 0.5,-0.8 0.65,-0.1 0.25,0.1 0.4,0.8 0.25,2.3 0.2,0.85 0.15,1.45 q 0.15,2.35 0,4.65 l -0.05,0.55 0.05,0.15 h 0.2 q 1.9,-0.75 3.9,-1.15 l 0.8,-0.1 q -1.2,-3.15 -1.35,-8.4 v -6.9 q 0.2,-5.5 2.5,-7.45 2.45,-2.1 7.3,-1.25 l -0.15,-0.8 -0.35,-1 -0.8,-0.75 -4.05,-3.4 -0.55,-0.4 q -2.3,-1.8 -4.5,-4.15 l -0.8,-0.7 q 0,2.6 -0.35,5.3 l -1.1,8.8 q -0.7,4.7 -1.5,6.9 L -44.65,0.9 -44.8,1 -45,0.95 -45.1,0.6 l -0.6,-8.05 -0.15,-3.95 0.15,-2.05 0.05,-4.05 0.05,-3.35 q -3.5,0.6 -7.95,2.15 l -0.65,0.25 m 3.05,31.45 -0.2,-22.45 q -0.1,-2.75 0.15,-4.55 -1.6,-0.15 -4.5,0.85 l -11.25,3.9 -1,0.6 q -0.3,0.35 -0.4,1.5 -0.1,6.3 0.55,11.85 l 0.05,0.3 q 0.3,3.1 0.95,5.5 l 0.75,2.3 0.45,0.7 1.1,0.15 h 3.05 3.05 l 3.65,-0.4 3.55,-0.25 h 0.05 m 46.1,-50.1 v -0.65 q -0.25,-0.65 -1.45,-0.5 l -0.35,0.05 -6.25,1.2 -3.35,0.75 -4.05,1.1 -5.75,1.8 -2.75,0.95 -1,0.55 -0.5,1 -0.15,0.9 v 1 q 0.15,1.1 0.9,1.6 l 1.45,0.65 3.15,0.4 q 1.05,-0.1 2.5,-0.85 1.55,-0.75 4.45,-2.45 l 4.45,-2.45 2.45,-1.15 q 1.05,-0.5 3.15,-1.7 l 2.05,-1.25 0.85,-0.6 0.2,-0.3 v -0.05 m -29.45,33.05 -0.1,0.35 q -0.35,1.65 -0.25,5.05 l 0.05,0.55 0.25,5.15 q 0.3,3.85 1.2,5.7 l 1.05,1.25 1.4,0.1 2.95,-0.3 0.8,-5.65 0.2,-2.1 0.05,-2.2 q -0.05,-2.7 -0.6,-5.25 l -0.5,-1.75 -0.9,-2.55 -0.15,-0.4 -2.7,0.25 -1.95,0.5 -0.1,0.05 -0.7,1.25 m 17.7,-4.85 -1.95,-0.4 -2,-0.25 -0.15,0.1 0.1,0.05 1.1,0.9 1.75,2.1 q 1.55,2.4 2,6.05 v 0.05 q 0.25,1.85 0.25,4.55 l -0.05,4.55 v 1.1 l 0.15,-0.1 q 1.15,-0.75 1.6,-1.45 0.5,-0.75 0.8,-2.55 0.65,-4.65 -0.5,-9.2 l -0.85,-2.7 q -0.55,-1.55 -1.35,-2.3 l -0.9,-0.5 m -4.5,5.35 -0.2,-0.3 -0.7,-1 -0.95,-0.75 Q -23.7,-5.9 -24.6,-6 l 0.7,1.9 0.4,1.6 q 0.6,2.5 0.7,5.5 0.1,2.6 -0.15,5.6 l -0.6,4.45 0.65,-0.15 3.4,-1.05 -0.05,-2.8 -0.25,-6.6 -0.05,-0.5 q -0.3,-3.4 -1.45,-5.5 M -76.8,17.5 Q -78.3,12.4 -79,7.45 l -1.55,2 q -1.7,2.6 -2.4,4.15 -1.1,2.45 -0.95,4.6 0,1.15 0.55,1.9 0.8,1.15 2.75,1.15 l 2.95,-0.65 1.9,-0.35 -1.05,-2.75 m 6,17.05 q -2.2,0.2 -3.1,-0.7 -0.5,-0.55 -0.55,-1.3 -0.05,-0.8 0.35,-1.35 0.55,-0.75 2.15,-1.1 l 1,-0.25 -0.55,-0.1 -2.35,0.2 -1.7,0.6 -1.65,0.7 q -1.35,0.9 -2.2,2.75 l -0.15,0.45 0.15,0.35 0.4,0.5 0.8,0.45 1.75,0.3 4.5,-0.2 1.6,-0.35 q 0.85,-0.25 1.9,-0.95 l 0.5,-0.5 0.15,-0.25 -3,0.75"
         fill="#000000"
         fill-rule="evenodd"
         stroke="none"
         id="path1" />
      <path
         d="m -55.3,-0.7 q 1.05,0.45 1.75,1.5 0.65,1.05 0.75,2.25 0.1,1.3 -0.3,2.15 -0.6,1.1 -1.95,1.5 l -2.45,0.35 -5.45,0.1 -1.5,-0.05 q -0.85,-0.2 -1.35,-1 -0.5,-0.75 -0.5,-1.7 l 0.1,-1.3 q 0.15,-1.2 0,-2.45 l -0.45,-2.4 q -0.15,-1.35 0.4,-2.35 0.55,-1.1 2.1,-1.55 l 2.65,-0.15 1.25,0.35 q 0.45,0.45 0.45,1.75 l 0.35,2.75 0.1,0.3 H -59 q 2.35,-0.6 3.7,-0.05"
         fill="#344031"
         fill-rule="evenodd"
         stroke="none"
         id="path2" />
      <path
         d="m -51.15,13 h -0.05 l -3.55,0.25 -3.65,0.4 h -3.05 -3.05 l -1.1,-0.15 -0.45,-0.7 -0.75,-2.3 Q -67.45,8.1 -67.75,5 L -67.8,4.7 q -0.65,-5.55 -0.55,-11.85 0.1,-1.15 0.4,-1.5 l 1,-0.6 11.25,-3.9 q 2.9,-1 4.5,-0.85 -0.25,1.8 -0.15,4.55 L -51.15,13 M -55.3,-0.7 q -1.35,-0.55 -3.7,0.05 h -0.35 l -0.1,-0.3 -0.35,-2.75 q 0,-1.3 -0.45,-1.75 l -1.25,-0.35 -2.65,0.15 q -1.55,0.45 -2.1,1.55 -0.55,1 -0.4,2.35 l 0.45,2.4 q 0.15,1.25 0,2.45 l -0.1,1.3 q 0,0.95 0.5,1.7 0.5,0.8 1.35,1 l 1.5,0.05 5.45,-0.1 2.45,-0.35 q 1.35,-0.4 1.95,-1.5 0.4,-0.85 0.3,-2.15 -0.1,-1.2 -0.75,-2.25 -0.7,-1.05 -1.75,-1.5"
         fill="#171a16"
         fill-rule="evenodd"
         stroke="none"
         id="path3" />
      <path
         d="m -54.15,-17.6 -1.35,0.45 -4.3,1.75 q -1.55,0.6 -4.3,1.3 l -4.35,1.25 q -2.05,0.65 -2.9,1.75 -0.8,1.15 -0.8,3.55 v 6.3 h -0.15 q -0.65,0 -1.2,-0.3 -0.1,-3.7 0.25,-7.2 l 0.4,-1.85 q 0.5,-0.95 1.9,-1.7 l 4.05,-1.8 4.25,-1.4 8.45,-2.95 0.05,0.85 m 23.5,-12.35 0.15,-0.9 0.5,-1 1,-0.55 2.75,-0.95 5.75,-1.8 4.05,-1.1 3.35,-0.75 6.25,-1.2 0.35,-0.05 q 1.2,-0.15 1.45,0.5 v 0.65 H -5.1 l -0.35,0.2 q -2.45,1.35 -6.5,2.15 l -6.85,1.3 -4.85,1.45 -4.8,1.65 -2.2,0.4 m 3.15,28.55 -4.05,-0.15 Q -33,-1.9 -33.75,-2.6 -34.4,-3.25 -34.5,-4.05 l 0.7,-1.25 0.1,-0.05 1.95,-0.5 2.7,-0.25 0.15,0.4 0.9,2.55 0.5,1.75 m 9.55,-5 -1.75,-2.1 -1.1,-0.9 -0.1,-0.05 0.15,-0.1 2,0.25 1.95,0.4 -0.55,1.5 -0.6,1 m -5.55,3.9 -0.4,-1.6 -0.7,-1.9 q 0.9,0.1 1.45,0.4 l 0.95,0.75 0.7,1 0.2,0.3 -2.2,1.05 m -47.3,37.05 3,-0.75 -0.15,0.25 -0.5,0.5 q -1.05,0.7 -1.9,0.95 l -1.6,0.35 -4.5,0.2 -1.75,-0.3 -0.8,-0.45 -0.4,-0.5 -0.15,-0.35 0.15,-0.45 q 0.85,-1.85 2.2,-2.75 l 1.65,-0.7 1.7,-0.6 2.35,-0.2 0.55,0.1 -1,0.25 q -1.6,0.35 -2.15,1.1 -0.4,0.55 -0.35,1.35 0.05,0.75 0.55,1.3 0.9,0.9 3.1,0.7"
         fill="#ffffff"
         fill-rule="evenodd"
         stroke="none"
         id="path4" />
      <path
         d="m -54.15,-17.6 -0.05,-0.85 0.65,-0.25 q 4.45,-1.55 7.95,-2.15 l -0.05,3.35 -0.05,4.05 -0.15,2.05 0.15,3.95 0.6,8.05 0.1,0.35 0.2,0.05 -0.05,4.1 -0.65,0.1 -0.5,0.8 -0.25,1.5 -0.1,5.6 v 0.85 l -0.1,2.8 -5.05,1 -5.45,0.3 -11.3,0.25 q -1.25,0 -1.7,-0.4 l -0.65,-1.3 q -2.65,-9.6 -2.9,-18.15 0.55,0.3 1.2,0.3 h 0.15 q 0.25,8.9 1.95,14.9 l 0.75,1.9 q 1.1,1.6 3.25,1.95 l 3.85,0.1 10.95,-0.8 q 2.35,-0.2 3.1,-1.1 0.6,-0.75 0.6,-2.75 -0.15,-14.3 0.35,-27.6 0.1,-1.3 -0.25,-2.05 -0.4,-0.85 -1.45,-1.25 l -2.05,-0.25 -3.05,0.6 m 23.5,-12.35 2.2,-0.4 4.8,-1.65 4.85,-1.45 6.85,-1.3 q 4.05,-0.8 6.5,-2.15 l 0.35,-0.2 0.05,0.05 -0.2,0.3 -0.85,0.6 -2.05,1.25 q -2.1,1.2 -3.15,1.7 l -2.45,1.15 -4.45,2.45 q -2.9,1.7 -4.45,2.45 -1.45,0.75 -2.5,0.85 l -3.15,-0.4 -1.45,-0.65 q -0.75,-0.5 -0.9,-1.6 v -1 m -3.85,25.9 q 0.1,0.8 0.75,1.45 0.75,0.7 2.2,1.05 l 4.05,0.15 q 0.55,2.55 0.6,5.25 -4.25,0.3 -7.9,-1.95 l -0.05,-0.55 q -0.1,-3.4 0.25,-5.05 l 0.1,-0.35 m 16.55,-2.35 0.6,-1 0.55,-1.5 0.9,0.5 q 0.8,0.75 1.35,2.3 l 0.85,2.7 -0.15,0.35 q -0.7,1.55 -2.05,2.7 l -0.05,0.05 v -0.05 q -0.45,-3.65 -2,-6.05 m -5.55,3.9 2.2,-1.05 q 1.15,2.1 1.45,5.5 L -21.95,2.7 -22.8,3 q -0.1,-3 -0.7,-5.5"
         fill="#9b9b9b"
         fill-rule="evenodd"
         stroke="none"
         id="path5" />
      <path
         d="m -44.8,1 0.15,-0.1 0.25,-0.4 q 0.8,-2.2 1.5,-6.9 l 1.1,-8.8 q 0.35,-2.7 0.35,-5.3 l 0.8,0.7 q 2.2,2.35 4.5,4.15 l 0.55,0.4 4.05,3.4 0.8,0.75 0.35,1 0.15,0.8 q -4.85,-0.85 -7.3,1.25 -2.3,1.95 -2.5,7.45 v 6.9 q 0.15,5.25 1.35,8.4 l -0.8,0.1 q -2,0.4 -3.9,1.15 h -0.2 l -0.05,-0.15 0.05,-0.55 q 0.15,-2.3 0,-4.65 L -43.75,9.15 -43.95,8.3 -44.2,6 -44.6,5.2 -44.85,5.1 -44.8,1 m 10,0.9 q 3.65,2.25 7.9,1.95 l -0.05,2.2 -0.2,2.1 -0.8,5.65 -2.95,0.3 -1.4,-0.1 -1.05,-1.25 q -0.9,-1.85 -1.2,-5.7 L -34.8,1.9 m 21.1,-5.3 q 1.15,4.55 0.5,9.2 -0.3,1.8 -0.8,2.55 -0.45,0.7 -1.6,1.45 l -0.15,0.1 V 8.8 l 0.05,-4.55 q 0,-2.7 -0.25,-4.55 l 0.05,-0.05 q 1.35,-1.15 2.05,-2.7 l 0.15,-0.35 m -6.15,5.35 0.05,0.5 0.25,6.6 0.05,2.8 -3.4,1.05 -0.65,0.15 0.6,-4.45 q 0.25,-3 0.15,-5.6 l 0.85,-0.3 2.1,-0.75"
         fill="#7d7d7d"
         fill-rule="evenodd"
         stroke="none"
         id="path6" />
    </g>
    <g
       id="sprite1"
       transform="translate(17.4,15.85)">
      <use
         ffdec:characterId="31"
         height="57.200001"
         transform="matrix(0.5366,0,0,0.5366,-16.6582,-14.546)"
         width="70.75"
         xlink:href="#sprite2"
         id="use6" />
    </g>
    <g
       id="sprite2"
       transform="translate(-8.65,-10.35)">
      <use
         ffdec:characterId="30"
         height="57.200001"
         transform="translate(8.65,10.35)"
         width="70.75"
         xlink:href="#shape1"
         id="use7" />
    </g>
    <g
       id="shape1"
       transform="translate(-8.65,-10.35)">
      <path
         d="m 14.8,41.7 q 0.65,-1.75 2.65,-2.5 1.8,-0.8 3.7,-0.25 1.15,0.45 2.25,1.2 l 0.9,0.4 q 1.65,0.9 2.85,2.5 L 37.8,30.1 q 2.35,-2.8 3.75,-3.95 1.5,-1.15 4.25,-2.4 18.2,-8.85 27.65,-12.6 2.15,-0.8 3.25,-0.8 h 0.8 l 1.9,2.4 -0.2,0.8 q -0.2,1.1 -1.55,3 -5.85,8.25 -18.85,23.8 -1.85,2.35 -3.35,3.5 -1.4,1.15 -4.75,2.75 l -15.15,7.15 q 1.2,1.6 1.75,3.4 l 0.2,1 0.55,2.5 q 0.1,1.95 -1.1,3.55 -1.2,1.65 -3.05,1.9 l -1.3,0.05 q -1.65,0.2 -3.45,-0.65 -1.85,-0.9 -3,-2.6 L 25,60.95 23.8,62.1 q -2.6,2.85 -4.3,3.95 -2.85,1.8 -5.5,1.45 l -1.65,-0.5 -1.2,-0.7 -0.2,-0.2 q -1,-0.85 -1.6,-1.9 L 9.25,64 9.15,63.8 8.75,62.4 q -0.2,-0.8 -0.05,-1.7 0.25,-2.65 2.7,-5.05 1.5,-1.3 4.9,-3.15 L 17.7,51.55 16.05,50 q -1.35,-1.5 -1.8,-3.6 -0.4,-1.85 0.25,-3.45 l 0.3,-1.25"
         fill="#000000"
         fill-opacity="0.372549"
         fill-rule="evenodd"
         stroke="none"
         id="path7" />
    </g>
  </defs>
</svg>
