<?xml version="1.0" encoding="UTF-8" standalone="no"?>
<svg
   ffdec:objectType="frame"
   height="84.258003"
   width="81.265381"
   version="1.1"
   id="svg3"
   xmlns:xlink="http://www.w3.org/1999/xlink"
   xmlns="http://www.w3.org/2000/svg"
   xmlns:svg="http://www.w3.org/2000/svg"
   xmlns:ffdec="https://www.free-decompiler.com/flash">
  <g
     transform="translate(40.25,42.9)"
     id="g1">
    <use
       ffdec:characterId="17"
       height="119.15"
       id="rarity"
       transform="translate(-58.5,-60.65)"
       width="119.15"
       xlink:href="#sprite0" />
    <use
       ffdec:characterId="411"
       height="84.25"
       transform="translate(-40.25,-42.9)"
       width="81.25"
       xlink:href="#shape0"
       id="use1" />
  </g>
  <defs
     id="defs3">
    <g
       id="shape0"
       transform="translate(39.95,45.4)">
      <path
         d="m 14.05,-35.85 q -0.85,-0.6 -0.85,-1.75 0.1,-1.1 0.95,-1.65 0.8,-0.5 2.45,-0.4 l 4.5,0.9 q 1.75,0.55 2.55,1.25 1.3,1.1 1.2,2.5 -0.1,0.75 -0.6,1.3 -0.5,0.55 -1.2,0.6 -0.5,0 -1.6,-0.55 -2.6,-1.2 -5.2,-1.55 l -1.15,-0.2 q -0.65,-0.15 -1.05,-0.45 m 15.2,13.6 q -0.6,-0.1 -0.9,-0.7 -0.35,-0.6 -0.25,-1.25 0.2,-0.9 1.25,-2.1 0.95,-0.9 3.15,-2.4 l 1.55,-1.05 -2.6,-0.75 q -1.55,-0.55 -2.1,-1.75 -0.3,-0.65 -0.15,-1.4 0.15,-0.75 0.75,-1.1 l 1.4,-0.2 1.5,0.35 3.15,0.6 q 1.85,0.35 2.95,0.95 l 1.4,1.45 0.2,1.8 -0.1,1.45 v 0.25 l -0.4,6.7 q -0.1,1.7 -0.85,2.1 l -1.2,0.1 q -0.65,-0.2 -1.05,-0.8 -0.55,-0.9 -0.55,-2.55 l -0.2,-3.2 -1.4,0.75 -3.5,2.05 q -1.35,0.9 -2.05,0.7 m -40.65,-17.8 q 1.85,-1.7 3.65,-2.55 L -6,-43.3 q 1.05,-0.5 3.15,-1.7 l 1.45,-0.4 1.35,0.2 7.25,2.45 q 1.5,0.5 2.1,1.15 0.8,0.8 0.55,2 -0.15,1.15 -1.2,1.75 l -1.7,0.4 Q 5.6,-37.5 2.9,-38.75 0.35,-39.9 -1.2,-39.7 q -0.9,0.1 -2.7,1.05 l -4.25,2.35 -1.8,0.7 q -1.35,0.25 -2.25,-0.85 -0.9,-1.1 -0.3,-2.4 l 1.1,-1.2 M 9.8,-15.8 q 0.45,-0.8 2.15,-1.65 2.65,-1.4 4.9,-3 l 1.95,-1.3 q 1.2,-0.6 2.2,-0.55 1.3,0.1 1.95,1.05 0.8,1.05 0.25,2.15 -0.3,0.6 -1.55,1.45 l -6.45,4 q -1.4,0.9 -2.2,1.15 l -2.4,-0.2 q -0.75,-0.45 -1,-1.4 -0.25,-0.95 0.2,-1.7 M 1.85,-3.2 q -0.3,1.6 -0.8,2.25 l -1,0.75 q -0.6,0.2 -1.15,0 -1.05,-0.35 -1.25,-1.95 l 0.2,-2.5 -0.05,-1.5 q -2.05,-0.4 -4.55,-2.3 -2.15,-1.6 -1.75,-3 l 0.9,-1 1.35,-0.3 q 0.95,0.1 2.65,1 1.1,0.6 2,0.75 l 0.05,-0.1 q 0.6,-0.65 2.3,-1.3 l 3.35,-1.2 2.05,-0.1 q 0.45,0.3 0.55,0.9 0.1,0.55 -0.15,1.05 l -0.3,0.5 v 0.9 q -0.3,1.2 -2.05,2.25 -1.3,0.85 -2.45,1.35 0.4,1.4 0.1,3.55 M 36.8,-15.6 q 0.5,-0.55 1.3,-0.65 0.8,-0.05 1.35,0.4 0.8,0.7 0.9,2.9 l 0.05,2.55 q 0,1.7 -0.45,2.35 -0.55,0.95 -1.75,0.95 -1.15,-0.1 -1.7,-1 -0.45,-0.8 -0.35,-2.3 l 0.1,-2.95 q 0,-1.6 0.55,-2.25 M 36.15,2.9 36.2,-0.9 q 0,-1.8 0.55,-2.45 0.5,-0.65 1.35,-0.7 0.9,-0.1 1.45,0.45 0.8,0.75 0.8,2.85 v 3.7 L 40.05,5.3 Q 39.45,6.65 38.3,6.65 37.05,6.65 36.5,5.3 36.15,4.55 36.15,2.9 m -4,16.85 2.15,-1 1.5,-0.45 q 0.55,-0.1 0.7,-0.35 0.2,-0.25 0,-0.75 -0.45,-2.3 -0.4,-4.45 0,-2.3 1.1,-3.2 0.7,-0.55 1.6,-0.45 0.55,0 0.9,0.3 0.65,0.6 0.65,1.7 v 0.95 l 0.15,0.9 0.35,1 q 0.55,1.45 0.45,4.55 l -0.25,1.75 q -0.6,1.55 -2.8,2.35 -2.4,0.75 -3.5,1.35 l -1.7,1.05 -3.1,-0.05 q -0.7,-0.4 -1,-1.2 -0.35,-0.75 -0.15,-1.5 0.25,-0.9 1.35,-1.65 0.75,-0.4 2,-0.85 M 1.5,9.25 Q 1.2,11.2 0.3,11.8 L -0.9,12.15 -2.1,11.7 Q -3,10.9 -2.9,9.2 L -2.45,6.55 -2.4,4.4 q 0.2,-1.45 0.75,-2 0.4,-0.45 0.95,-0.6 l 1.05,0.1 q 0.7,0.4 1,1.8 0.55,2.5 0.15,5.55 m -2.2,4.35 q 0.9,0.1 1.3,1 l 0.35,1.65 0.35,3.35 q 0.2,1.75 -0.3,2.6 -0.7,1.15 -1.9,1 -1.3,-0.1 -1.8,-1.25 -0.25,-0.6 -0.15,-2 l 0.35,-3.6 0.35,-1.8 Q -1.6,13.6 -0.7,13.6 m 26.1,12.45 q 0.4,1.35 -1.45,2.5 -1.35,0.8 -4.25,1.6 -3,0.85 -4.3,1.55 l -1.05,0.55 -1.15,0.3 Q 12.55,32.6 12,32.2 q -0.6,-0.35 -0.85,-0.95 -0.3,-0.8 0.05,-1.7 0.35,-0.85 1.05,-1.4 0.9,-0.75 3.25,-1.35 l 6.3,-1.65 2.05,-0.25 q 1.25,0.1 1.55,1.15 m -30.1,3.4 q 0.1,-2.35 0.95,-3.15 0.65,-0.55 1.55,-0.55 0.9,0 1.45,0.6 0.85,0.85 0.85,3.15 v 3.3 Q 1,32.3 1.75,32.15 L 3.9,32.1 5.75,32.4 q 1.1,0.45 1.45,1.25 0.5,1.1 -0.35,1.95 -0.55,0.65 -2.3,1.05 l -2.7,0.8 q -1.8,0.7 -2.7,0.6 -0.6,0.7 -1.5,0.8 -1.05,0.1 -2.85,-1.05 L -8.75,35.5 -9.9,34.45 q -0.35,-0.6 -0.05,-1.4 0.25,-0.75 0.9,-1.15 l 2.9,-0.1 1.4,0.65 0.05,-3 m -10.85,-62.8 q -0.35,0.95 -2,1.75 l -3.9,1.6 -1.3,0.25 q -1.05,-0.1 -1.55,-1 -0.45,-0.85 -0.05,-1.85 0.4,-0.9 1.65,-1.55 l 3.5,-1.8 2.75,0.15 q 0.6,0.4 0.9,1.1 0.25,0.7 0,1.35 m -23.7,6.5 0.3,-1.15 q 0.25,-0.75 1,-1.15 l 1.6,-0.2 0.1,0.05 2.9,-1.25 q 2.6,-1.1 4,-1.15 l 1.9,0.35 q 0.95,0.45 1.2,1.35 0.4,1.25 -0.7,2.35 -0.75,0.75 -2.25,1.3 l -3.05,0.95 2.8,2.45 1.05,1.25 q 0.55,1.3 -0.35,2.4 -1,1.1 -2.35,0.8 l -1.45,-0.6 -2.75,-2 q -0.3,1.4 0,2.75 l 0.3,1.2 0.15,1.2 q 0,1.15 -0.85,1.85 -0.95,0.8 -2,0.3 -0.75,-0.3 -1.45,-1.75 l -0.7,-1.85 -0.05,-2.05 -0.05,-4.75 0.2,-1.8 0.5,-0.85 m 26.9,11.85 q 0.1,0.75 -0.5,1.35 -0.55,0.55 -1.35,0.65 -1.05,0.15 -2.95,-0.65 l -5.85,-2.5 -1.75,-0.95 q -0.9,-0.8 -0.9,-1.75 0.05,-0.75 0.75,-1.35 0.65,-0.5 1.5,-0.6 1.25,-0.05 3.15,0.9 l 6.1,3.05 q 1.7,0.85 1.8,1.85 m -24.45,3.3 q 0.65,0.05 1,0.7 l 0.4,1.2 0.3,3.75 q 0,1.4 -0.35,2 -0.5,0.95 -1.65,0.85 -1.05,-0.1 -1.5,-1.1 -0.25,-0.6 -0.15,-1.55 l 0.2,-3.25 0.35,-1.75 0.6,-0.65 0.8,-0.2 m -2.05,14.65 q 0.1,-1.6 0.4,-2.15 0.7,-1.25 1.8,-1.05 0.65,0.05 1.1,0.8 l 0.45,1.35 q 0.2,1.35 0.15,2.65 0,0.85 -0.25,1.4 -0.6,1.2 -1.9,1.1 -1.35,-0.15 -1.75,-1.4 L -38.9,4.3 -38.85,2.95 m 7.95,22.2 -2.05,-0.25 -2,-1 -2.6,-1.2 Q -39,21.9 -39.5,20.85 -39.85,20.15 -39.85,19 l 0.05,-1.95 v -3 q 0.2,-1.85 1.25,-2.65 0.6,-0.45 1.45,-0.4 0.8,0 1.25,0.6 0.4,0.5 0.4,1.95 l -0.05,4.8 q 2.35,0.7 4.35,1.95 1.55,1.15 1.8,2.05 0.2,0.85 -0.25,1.7 -0.45,0.85 -1.3,1.1 m 16.65,6.8 q -0.9,0.75 -2.9,0 l -6.5,-2.25 q -2.1,-0.7 -2.85,-1.55 -0.6,-0.65 -0.7,-1.5 -0.1,-0.9 0.45,-1.5 0.55,-0.7 1.8,-0.6 0.7,0 1.9,0.5 l 6.45,2.55 q 1.75,0.75 2.45,1.65 0.45,0.6 0.45,1.4 0,0.85 -0.55,1.3"
         fill="#000000"
         fill-opacity="0.498039"
         fill-rule="evenodd"
         stroke="none"
         id="path1" />
    </g>
    <g
       id="sprite1"
       transform="translate(17.4,15.85)">
      <use
         ffdec:characterId="31"
         height="57.200001"
         transform="matrix(0.5366,0,0,0.5366,-16.6582,-14.546)"
         width="70.75"
         xlink:href="#sprite2"
         id="use2" />
    </g>
    <g
       id="sprite2"
       transform="translate(-8.65,-10.35)">
      <use
         ffdec:characterId="30"
         height="57.200001"
         transform="translate(8.65,10.35)"
         width="70.75"
         xlink:href="#shape1"
         id="use3" />
    </g>
    <g
       id="shape1"
       transform="translate(-8.65,-10.35)">
      <path
         d="m 14.8,41.7 q 0.65,-1.75 2.65,-2.5 1.8,-0.8 3.7,-0.25 1.15,0.45 2.25,1.2 l 0.9,0.4 q 1.65,0.9 2.85,2.5 L 37.8,30.1 q 2.35,-2.8 3.75,-3.95 1.5,-1.15 4.25,-2.4 18.2,-8.85 27.65,-12.6 2.15,-0.8 3.25,-0.8 h 0.8 l 1.9,2.4 -0.2,0.8 q -0.2,1.1 -1.55,3 -5.85,8.25 -18.85,23.8 -1.85,2.35 -3.35,3.5 -1.4,1.15 -4.75,2.75 l -15.15,7.15 q 1.2,1.6 1.75,3.4 l 0.2,1 0.55,2.5 q 0.1,1.95 -1.1,3.55 -1.2,1.65 -3.05,1.9 l -1.3,0.05 q -1.65,0.2 -3.45,-0.65 -1.85,-0.9 -3,-2.6 L 25,60.95 23.8,62.1 q -2.6,2.85 -4.3,3.95 -2.85,1.8 -5.5,1.45 l -1.65,-0.5 -1.2,-0.7 -0.2,-0.2 q -1,-0.85 -1.6,-1.9 L 9.25,64 9.15,63.8 8.75,62.4 q -0.2,-0.8 -0.05,-1.7 0.25,-2.65 2.7,-5.05 1.5,-1.3 4.9,-3.15 L 17.7,51.55 16.05,50 q -1.35,-1.5 -1.8,-3.6 -0.4,-1.85 0.25,-3.45 l 0.3,-1.25"
         fill="#000000"
         fill-opacity="0.372549"
         fill-rule="evenodd"
         stroke="none"
         id="path3" />
    </g>
  </defs>
</svg>
