<?xml version="1.0" encoding="UTF-8" standalone="no"?>
<svg
   ffdec:objectType="frame"
   height="67.485558"
   width="77.022324"
   version="1.1"
   id="svg7"
   xmlns:xlink="http://www.w3.org/1999/xlink"
   xmlns="http://www.w3.org/2000/svg"
   xmlns:svg="http://www.w3.org/2000/svg"
   xmlns:ffdec="https://www.free-decompiler.com/flash">
  <g
     transform="translate(46.05,30.68)"
     id="g1">
    <use
       ffdec:characterId="17"
       height="119.15"
       id="rarity"
       transform="translate(-58.5,-60.65)"
       width="119.15"
       xlink:href="#sprite0" />
    <use
       ffdec:characterId="164"
       height="67.5"
       transform="translate(-46.05,-30.7)"
       width="77"
       xlink:href="#shape0"
       id="use1" />
  </g>
  <defs
     id="defs7">
    <g
       id="shape0"
       transform="translate(45.75,33.2)">
      <path
         d="m -32.7,16.75 q -1.7,-3.35 -1.95,-6.3 -0.2,-2.35 0.6,-6.85 l 0.15,-0.85 h -2.6 L -41.05,2.5 Q -44,1.95 -45,0.1 l -0.4,-1.2 -0.35,-2.1 0.4,-1.65 0.35,-1.45 1.1,-2.05 1.7,-2.15 1.95,-1 q 1.65,-0.75 2.7,-0.9 l 3.1,0.1 2.85,0.1 1.55,0.3 0.35,-0.95 q 3.65,-8.9 9.85,-13.65 3.35,-2.65 8.3,-4.55 l 5.75,-1.65 q 6.35,-1.2 12.9,0.6 5.9,1.6 10.65,5.3 l 1.25,-1.4 1.7,-1.2 q 1.65,-0.7 4.45,0.05 1.35,0.35 2.2,0.85 1.85,1.05 2.95,3.35 1.65,3.4 0.5,8.15 l -0.55,1.8 -1.6,3.5 -0.2,0.4 q 1.2,3.75 1.5,7.75 L 29.9,3.4 q -0.55,10.05 -3.45,16.3 -2.2,4.65 -5.85,8.05 -3.8,3.55 -8.5,5.1 -3.7,1.25 -8.9,1.4 -11.6,0.5 -20.65,-3.5 -4.95,-2.2 -8.85,-5.7 -4.1,-3.7 -6.4,-8.3 M -41.45,-3.4 q 0,0.75 0.35,1.1 0.35,0.25 0.9,0.35 l 3.35,0.35 h 0.45 3.4 l 0.65,-2.9 0.3,-1.2 0.65,-2.25 0.3,-0.9 h -0.1 l -6.5,0.45 q -1,0.25 -1.8,0.8 l -1.15,1.4 -0.25,0.6 -0.55,1.75 v 0.45 m 33.4,-23.9 -2.5,0.85 q -3.85,1.6 -6.9,4.35 -5.2,4.65 -8.15,12.55 -1.1,2.9 -2.05,7 l -0.4,1.7 -0.2,1 0.95,-0.45 0.2,-0.1 6.05,-2.05 1.55,-0.4 2.05,-0.35 2.5,0.3 1.05,0.5 1.55,1.5 0.8,-1.9 -3.2,-0.45 -3.2,-0.7 -1.65,-0.55 q -1.05,-0.35 -1.7,-0.8 l -0.35,-0.3 Q -22.75,-6.5 -23,-8 l 0.1,-2 q 0.25,-2.15 0.9,-3.55 l 1.5,-2.35 2.05,-2.45 q 1.3,-1.2 2.65,-1.5 l 2.15,-0.1 3.55,0.05 2.5,0.4 -0.15,-0.25 q -0.3,-0.65 -0.3,-2.15 L -8,-22.8 q 0,-2.85 0.45,-4.3 l 0.15,-0.4 -0.65,0.2 m 13.5,-0.15 q -4,-1.1 -8.1,-0.85 l -2,0.25 -0.55,1.75 q -0.25,0.9 -0.05,2.3 0.2,1.25 0.75,1.9 0.65,0.65 1.75,0.8 l 1.9,0.05 2.5,0.3 q 1.5,0.2 2.5,0 Q 4.7,-21.9 5.2,-24 l 0.5,-2.25 0.3,-1 v -0.05 l -0.55,-0.15 m -10.6,13.1 0.2,-0.3 -0.7,-0.1 -1.55,-0.15 -1.2,-0.1 -0.6,-0.05 -4.1,-0.25 -1.55,0.25 -1.15,1.1 q -1.8,2.35 -2.2,3.9 -0.2,0.6 0.05,0.9 l 0.45,0.3 q 1.55,0.7 4.15,1.05 l 1.45,0.2 h 0.05 l 0.2,0.05 0.65,0.05 1.75,0.25 3.3,-5.75 0.8,-1.35 m 11.7,-1.35 -1.05,-0.4 -3.3,0.15 q -0.95,0.3 -1.45,0.8 -0.5,0.4 -1,1.4 l -1.3,2.35 -1,1.5 -0.75,1.45 -1.1,1.6 -0.9,1.7 -0.85,1.8 -2.05,4.55 q -0.7,2.05 -0.25,3.2 l 1.1,1.4 0.45,0.35 q 2.25,1.5 4.1,0.9 Q -1.85,6.75 -1,5.8 L 0.35,3.95 3.25,-0.9 4.7,-3.55 4.9,-3.9 7.45,-9.25 q 1.3,-3.15 0.6,-4.8 -0.5,-1.15 -1.5,-1.65 m 19.35,-8.8 -1.15,-0.6 -1.5,-0.5 -0.85,-0.05 -0.95,0.8 -0.45,0.95 2.6,3.15 1.5,2.2 1.4,2.55 0.1,0.25 0.65,-2.85 0.25,-1.8 -0.05,-0.4 -0.15,-0.9 -0.5,-1.25 -0.05,-0.25 -0.6,-1.05 -0.25,-0.25 m -6.75,6.25 -0.15,-0.15 -2.85,-3.05 -3.3,-2.65 -3.35,-1.9 -0.35,1.05 -0.8,3.15 -0.45,1.4 -0.25,0.6 q 1.15,0.45 2.1,1.25 1.4,1.15 2.05,2.75 l 0.45,1.4 0.15,1.1 0.5,0.1 2,0.5 2,0.75 0.85,0.5 1.9,1.9 q 1.1,1.6 1.25,3.45 0.1,1.85 -0.7,4.55 Q 19.5,0.8 18.8,2 17.9,3.5 16.75,4.1 L 13.85,4.55 8.6,3.6 7.2,3.1 5.65,2.45 4.35,4.35 1.9,8.1 -0.05,10.35 q -1.2,0.8 -3.25,0.9 -2.5,0.25 -4.8,-0.5 L -8.45,10.6 q -1.6,-0.65 -2.65,-1.65 -0.35,0.75 -0.85,1.3 l -1.2,1 -0.6,0.35 -0.85,0.35 -3.15,0.8 L -19,13 q -4.6,0.85 -7.35,1.75 l -1.2,0.45 0.9,1.5 1.35,1.8 0.95,1.15 0.5,0.55 q 2,2.1 4.65,3.9 3.65,2.45 7.85,3.9 l 0.9,-5.95 0.45,-2.25 q 0.9,-3.75 2.15,-5.5 l 0.2,-0.2 1.25,-1.1 q 0.75,-0.35 1.85,-0.45 l 4,-0.2 q 1.1,0.1 2.05,0.5 0.9,0.35 1.6,0.95 1.75,1.5 2.1,4.2 0.2,1.8 -0.25,4.8 l -1.3,7.05 5.9,-0.95 q 3.3,-0.75 5.65,-2.1 l 1.4,-0.85 -0.1,-0.1 -3.45,-2.5 Q 12.1,22.6 11.9,22 11.65,21.45 11.75,20.55 L 12,19.1 12.1,17.35 Q 12.2,15.6 13.2,14 14.25,12.5 16.7,10.8 18.6,9.5 19.75,9.35 21.1,9.1 22.8,9.9 l 1.95,1 0.85,-6.5 q 0.55,-5.7 -0.05,-9.4 -0.9,-5.4 -4.6,-10.85 l -0.8,-1.15 -1,-1.25 m -9.8,14.65 -1.45,2.5 2.65,0.7 3.65,0.45 0.7,-0.15 q 0.4,-0.15 0.7,-0.9 l 0.8,-2.4 0.05,-0.15 q 0.6,-2.15 0,-3.25 -0.4,-0.75 -1.55,-1.3 L 12.75,-8.9 11.8,-9.1 10.9,-6.75 9.35,-3.6 M 23.4,13.3 22.6,12.95 Q 21.1,12.3 20.45,12.5 20,12.6 19.3,13.1 q -2.15,1.65 -2.8,2.8 -0.7,1.35 -0.7,3.1 l 0.1,0.8 q 0.3,0.9 1.95,1.8 l 0.25,0.15 1.65,1.15 q 2,-2.5 3.35,-5.95 L 24.15,13.65 23.4,13.3 M -0.25,29.95 h 1.2 L 1,29.15 1.25,27.7 1.3,26.2 1.6,24 1.9,21.75 Q 2.05,20.4 1.8,18.8 L 1.4,17.55 0.85,16.8 Q 0.2,16.25 -1.1,16.25 l -2.15,0.05 q -0.8,0.1 -1.1,0.35 -0.5,0.35 -0.8,1.45 l -1.2,4.75 -0.3,2.8 v 0.15 l -0.05,0.4 -0.2,1.85 -0.15,1.15 0.55,0.1 6.25,0.65 M -14.4,5.15 -14.5,4.5 -14.6,3.85 v -0.1 q -0.45,-1.9 -1.85,-2.6 l -3.95,0.15 -6.15,1.8 -0.15,0.05 -1,0.25 -1.15,0.1 -0.15,0.75 -0.15,0.9 -0.2,1.3 -0.15,2.6 v 0.3 0.45 l 0.2,1.25 1.25,-0.4 1.05,-0.2 2.6,-0.6 6.2,-1.15 1.85,-0.45 0.55,-0.25 0.9,-0.85 q 0.5,-0.8 0.5,-2"
         fill="#000000"
         fill-rule="evenodd"
         stroke="none"
         id="path1" />
      <path
         d="M -29,4.25 -28.85,3.5 -27.7,3.4 -28.75,4 -29,4.25"
         fill="#928286"
         fill-rule="evenodd"
         stroke="none"
         id="path2" />
      <path
         d="m -5.15,-14.35 -0.4,-0.35 -0.1,-0.05 0.7,0.1 -0.2,0.3 m -6.6,6.65 0.1,0.15 -0.2,-0.05 0.1,-0.1 m 5.25,37 -0.55,-0.1 0.15,-1.15 0.05,0.3 0.35,0.95"
         fill="#736368"
         fill-rule="evenodd"
         stroke="none"
         id="path3" />
      <path
         d="m -36.85,-1.6 -3.35,-0.35 q -0.55,-0.1 -0.9,-0.35 -0.35,-0.35 -0.35,-1.1 l 0.45,0.05 1.65,-0.05 2.15,0.2 h 0.05 l 0.25,1.55 0.05,0.05 m 41.55,-6.25 0.85,-2.2 0.5,-2.65 0.5,-2.55 v -0.45 q 1,0.5 1.5,1.65 0.7,1.65 -0.6,4.8 L 4.9,-3.9 4.95,-5.6 4.8,-7.6 4.7,-7.85 M -7.35,5.8 -6.8,5.75 q 0.9,-0.15 2.35,-1.2 2,-1.5 3.75,-3.7 L 1,0.6 Q 2.3,0.2 3.1,-0.75 L 3.25,-0.9 0.35,3.95 -1,5.8 q -0.85,0.95 -1.8,1.25 -1.85,0.6 -4.1,-0.9 L -7.35,5.8 M 25.1,-18.55 q 1.15,-0.25 1.6,-0.65 0.7,-0.65 0.7,-1.7 l 0.05,0.1 0.05,0.4 -0.25,1.8 -0.65,2.85 -0.1,-0.25 -1.4,-2.55 m -7.35,7.1 q 1.15,-1.6 1.45,-3.65 l 0.15,-1.55 -0.2,-1.6 1,1.25 0.8,1.15 q 3.7,5.45 4.6,10.85 0.6,3.7 0.05,9.4 l -0.85,6.5 -1.95,-1 Q 21.1,9.1 19.75,9.35 18.6,9.5 16.7,10.8 q -2.45,1.7 -3.5,3.2 -1,1.6 -1.1,3.35 L 12,19.1 11.75,20.55 q -0.1,0.9 0.15,1.45 0.2,0.6 1.15,1.35 l 3.45,2.5 0.1,0.1 -1.4,0.85 q -2.35,1.35 -5.65,2.1 l -5.9,0.95 1.3,-7.05 Q 5.4,19.8 5.2,18 4.85,15.3 3.1,13.8 2.4,13.2 1.5,12.85 L 2.55,12 Q 4.4,10.45 5.7,8.75 L 7.4,6.1 8.5,3.9 8.6,3.6 13.85,4.55 16.75,4.1 Q 17.9,3.5 18.8,2 19.5,0.8 20.2,-1.55 21,-4.25 20.9,-6.1 20.75,-7.95 19.65,-9.55 l -1.9,-1.9 m -25.4,25.55 -0.2,0.2 Q -9.1,16.05 -10,19.8 l -0.45,2.25 -0.9,5.95 q -4.2,-1.45 -7.85,-3.9 -2.65,-1.8 -4.65,-3.9 l -0.5,-0.55 -0.95,-1.15 1.1,0.05 q 3.4,0 6.3,-0.9 l 0.25,-0.1 q 2.4,-0.8 5.6,-2.7 l 2.1,-1.45 2.3,0.7 m 17,-17.7 0.05,0.1 0.85,0.9 q 0.6,0.35 1.3,0.45 1.95,0.3 3.8,-0.6 L 16.4,-3.4 15.6,-1 q -0.3,0.75 -0.7,0.9 L 14.2,0.05 10.55,-0.4 7.9,-1.1 9.35,-3.6 m 8.75,25.35 1.7,-0.9 2.1,-2.2 0.95,-1.75 0.55,-2.1 v -1.5 l 0.75,0.35 -1.05,3.3 Q 21.75,20.4 19.75,22.9 L 18.1,21.75 M 1.4,17.55 1.8,18.8 q 0.25,1.6 0.1,2.95 L 1.6,24 1.3,26.2 1.25,27.7 1,29.15 0.95,29.95 h -1.2 L 0.5,28.55 Q 1.35,26.25 0.45,24.9 0.05,24.25 -1.2,23.65 l -0.3,-0.1 0.7,-0.5 q 0.4,-0.25 0.65,-0.8 1.55,-2.4 1.55,-4.6 v -0.1 M -22.75,8.4 -20.6,8.2 -18.05,7.15 -15.2,5.65 -15,5.5 -14.4,5.15 q 0,1.2 -0.5,2 l -0.9,0.85 -0.55,0.25 -1.85,0.45 -6.2,1.15 1.2,-0.9 0.45,-0.55 m -4.25,2.05 -1.05,0.2 -1.25,0.4 -0.2,-1.25 V 9.35 l 0.05,-0.2 0.35,0.35 q 0.85,0.75 1.95,0.9 l 0.15,0.05"
         fill="#74565f"
         fill-rule="evenodd"
         stroke="none"
         id="path4" />
      <path
         d="m -37.15,-3.2 h -0.05 l -2.15,-0.2 -1.65,0.05 -0.45,-0.05 v -0.45 l 0.55,-1.75 0.25,-0.6 1.15,-1.4 q 0.8,-0.55 1.8,-0.8 l 6.5,-0.45 h 0.1 l -0.3,0.9 q -0.35,-0.5 -1.05,-0.7 -1.1,-0.2 -2.75,1.2 l -1.35,1.45 -0.3,0.7 -0.3,1.25 v 0.85 m 29.6,-23.9 Q -8,-25.65 -8,-22.8 l -0.05,0.9 q 0,1.5 0.3,2.15 l 0.15,0.25 -2.5,-0.4 -3.55,-0.05 -2.15,0.1 q -1.35,0.3 -2.65,1.5 l -2.05,2.45 -1.5,2.35 q -0.65,1.4 -0.9,3.55 l -0.1,2 q 0.25,1.5 1.35,2.4 l 0.35,0.3 q 0.65,0.45 1.7,0.8 l 1.65,0.55 3.2,0.7 3.2,0.45 -0.8,1.9 -1.55,-1.5 -1.05,-0.5 -2.5,-0.3 -2.05,0.35 -1.55,0.4 -6.05,2.05 -0.2,0.1 -0.95,0.45 0.2,-1 0.4,-1.7 q 0.95,-4.1 2.05,-7 2.95,-7.9 8.15,-12.55 3.05,-2.75 6.9,-4.35 l 2.5,-0.85 0.5,0.2 m 13,-0.35 0.55,0.15 v 0.05 l -0.3,1 -0.5,2.25 q -0.5,2.1 -1.05,3.05 -1,0.2 -2.5,0 l -2.5,-0.3 -1.9,-0.05 q -1.1,-0.15 -1.75,-0.8 -0.55,-0.65 -0.75,-1.9 -0.2,-1.4 0.05,-2.3 l 0.55,-1.75 2,-0.25 q 4.1,-0.25 8.1,0.85 m -14.4,12.6 q -1.15,0.35 -2.15,1.1 -2.05,1.5 -1.9,3.5 0.05,1.2 1,2.3 l 0.2,0.25 h 0.05 l -0.1,0.1 h -0.05 l -1.45,-0.2 q -2.6,-0.35 -4.15,-1.05 l -0.45,-0.3 q -0.25,-0.3 -0.05,-0.9 0.4,-1.55 2.2,-3.9 l 1.15,-1.1 1.55,-0.25 4.1,0.25 0.05,0.2 M 4.7,-7.85 4.15,-8.7 3,-9.85 l -1.35,-0.4 -2.25,0.1 -1,0.7 -1,1.05 -0.45,1.05 -1.1,1.45 q -1.1,1.55 -0.85,3.7 l 0.2,0.9 0.75,0.85 1.6,1.05 1.65,0.25 h 0.1 Q -2.45,3.05 -4.45,4.55 -5.9,5.6 -6.8,5.75 L -7.35,5.8 -8.45,4.4 Q -8.9,3.25 -8.2,1.2 l 2.05,-4.55 0.85,-1.8 0.9,-1.7 1.1,-1.6 0.75,-1.45 1,-1.5 1.3,-2.35 q 0.5,-1 1,-1.4 0.5,-0.5 1.45,-0.8 l 3.3,-0.15 1.05,0.4 v 0.45 l -0.5,2.55 -0.5,2.65 -0.85,2.2 m 20.4,-10.7 -1.5,-2.2 -2.6,-3.15 0.45,-0.95 0.95,-0.8 0.85,0.05 1.5,0.5 1.15,0.6 0.85,1.3 0.05,0.25 0.5,1.25 0.1,0.8 q 0,1.05 -0.7,1.7 -0.45,0.4 -1.6,0.65 m -7.35,7.1 -0.85,-0.5 -2,-0.75 -2,-0.5 -0.5,-0.1 -0.15,-1.1 -0.45,-1.4 q -0.65,-1.6 -2.05,-2.75 -0.95,-0.8 -2.1,-1.25 l 0.25,-0.6 0.45,-1.4 0.8,-3.15 0.35,-1.05 3.35,1.9 3.3,2.65 2.85,3.05 0.15,0.15 0.2,1.6 -0.15,1.55 q -0.3,2.05 -1.45,3.65 M 1.5,12.85 q -0.95,-0.4 -2.05,-0.5 l -4,0.2 q -1.1,0.1 -1.85,0.45 l -1.25,1.1 -2.3,-0.7 -2.1,1.45 q -3.2,1.9 -5.6,2.7 l -0.25,0.1 q -2.9,0.9 -6.3,0.9 l -1.1,-0.05 -1.35,-1.8 -0.9,-1.5 1.2,-0.45 Q -23.6,13.85 -19,13 l 1.25,-0.25 3.15,-0.8 0.85,-0.35 0.6,-0.35 1.2,-1 q 0.5,-0.55 0.85,-1.3 1.05,1 2.65,1.65 l 0.35,0.15 q 2.3,0.75 4.8,0.5 2.05,-0.1 3.25,-0.9 L 1.9,8.1 4.35,4.35 5.65,2.45 7.2,3.1 8.6,3.6 8.5,3.9 7.4,6.1 5.7,8.75 Q 4.4,10.45 2.55,12 L 1.5,12.85 M 16.4,-3.4 15.35,-2.75 q -1.85,0.9 -3.8,0.6 -0.7,-0.1 -1.3,-0.45 L 9.4,-3.5 9.35,-3.6 l 1.55,-3.15 0.9,-2.35 0.95,0.2 2.15,0.8 q 1.15,0.55 1.55,1.3 0.6,1.1 0,3.25 L 16.4,-3.4 M 18.1,21.75 17.85,21.6 Q 16.2,20.7 15.9,19.8 L 15.8,19 q 0,-1.75 0.7,-3.1 0.65,-1.15 2.8,-2.8 0.7,-0.5 1.15,-0.6 0.65,-0.2 2.15,0.45 l 0.8,0.35 v 1.5 l -0.55,2.1 -0.95,1.75 -2.1,2.2 -1.7,0.9 M 1.4,17.55 v 0.1 q 0,2.2 -1.55,4.6 -0.25,0.55 -0.65,0.8 l -0.7,0.5 -1.75,-0.4 q -1.9,0 -3,1.7 l -0.4,0.8 0.3,-2.8 1.2,-4.75 q 0.3,-1.1 0.8,-1.45 0.3,-0.25 1.1,-0.35 l 2.15,-0.05 q 1.3,0 1.95,0.55 L 1.4,17.55 M -26.55,3.1 -20.4,1.3 -16.45,1.15 q 1.4,0.7 1.85,2.6 v 0.1 l 0.1,0.65 0.1,0.65 -0.6,0.35 -0.2,0.15 -2.85,1.5 -2.55,1.05 -2.15,0.2 q 0.7,-0.95 0.85,-1.9 v -1 Q -22.05,4.6 -22.75,3.95 -23.45,3.4 -24.7,3.2 l -1.85,-0.1"
         fill="#916e78"
         fill-rule="evenodd"
         stroke="none"
         id="path5" />
      <path
         d="m -36.85,-1.6 -0.05,-0.05 -0.25,-1.55 v -0.85 l 0.3,-1.25 0.3,-0.7 1.35,-1.45 q 1.65,-1.4 2.75,-1.2 0.7,0.2 1.05,0.7 l -0.65,2.25 -0.3,1.2 -0.65,2.9 h -3.4 -0.45 m 31.2,-13.15 0.1,0.05 0.4,0.35 -0.8,1.35 -3.3,5.75 -1.75,-0.25 -0.65,-0.05 -0.1,-0.15 H -11.8 L -12,-7.95 q -0.95,-1.1 -1,-2.3 -0.15,-2 1.9,-3.5 1,-0.75 2.15,-1.1 l 0.55,-0.15 1.2,0.1 1.55,0.15 M -0.7,0.85 H -0.8 L -2.45,0.6 -4.05,-0.45 -4.8,-1.3 -5,-2.2 q -0.25,-2.15 0.85,-3.7 l 1.1,-1.45 0.45,-1.05 1,-1.05 1,-0.7 2.25,-0.1 1.35,0.4 1.15,1.15 0.55,0.85 0.1,0.25 0.15,2 L 4.9,-3.9 4.7,-3.55 3.25,-0.9 3.1,-0.75 Q 2.3,0.2 1,0.6 l -1.7,0.25 m -0.8,22.7 0.3,0.1 q 1.25,0.6 1.65,1.25 0.9,1.35 0.05,3.65 l -0.75,1.4 -6.25,-0.65 -0.35,-0.95 -0.05,-0.3 0.2,-1.85 0.05,-0.4 v -0.15 l 0.4,-0.8 q 1.1,-1.7 3,-1.7 l 1.75,0.4 M -26.55,3.1 -24.7,3.2 q 1.25,0.2 1.95,0.75 0.7,0.65 0.85,1.55 v 1 q -0.15,0.95 -0.85,1.9 l -0.45,0.55 -1.2,0.9 -2.6,0.6 -0.15,-0.05 q -1.1,-0.15 -1.95,-0.9 l -0.35,-0.35 -0.05,-0.1 0.15,-2.6 0.2,-1.3 0.15,-0.9 0.25,-0.25 1.05,-0.6 1,-0.25 0.15,-0.05"
         fill="#a4808a"
         fill-rule="evenodd"
         stroke="none"
         id="path6" />
    </g>
    <g
       id="sprite1"
       transform="translate(17.4,15.85)">
      <use
         ffdec:characterId="31"
         height="57.200001"
         transform="matrix(0.5366,0,0,0.5366,-16.6582,-14.546)"
         width="70.75"
         xlink:href="#sprite2"
         id="use6" />
    </g>
    <g
       id="sprite2"
       transform="translate(-8.65,-10.35)">
      <use
         ffdec:characterId="30"
         height="57.200001"
         transform="translate(8.65,10.35)"
         width="70.75"
         xlink:href="#shape1"
         id="use7" />
    </g>
    <g
       id="shape1"
       transform="translate(-8.65,-10.35)">
      <path
         d="m 14.8,41.7 q 0.65,-1.75 2.65,-2.5 1.8,-0.8 3.7,-0.25 1.15,0.45 2.25,1.2 l 0.9,0.4 q 1.65,0.9 2.85,2.5 L 37.8,30.1 q 2.35,-2.8 3.75,-3.95 1.5,-1.15 4.25,-2.4 18.2,-8.85 27.65,-12.6 2.15,-0.8 3.25,-0.8 h 0.8 l 1.9,2.4 -0.2,0.8 q -0.2,1.1 -1.55,3 -5.85,8.25 -18.85,23.8 -1.85,2.35 -3.35,3.5 -1.4,1.15 -4.75,2.75 l -15.15,7.15 q 1.2,1.6 1.75,3.4 l 0.2,1 0.55,2.5 q 0.1,1.95 -1.1,3.55 -1.2,1.65 -3.05,1.9 l -1.3,0.05 q -1.65,0.2 -3.45,-0.65 -1.85,-0.9 -3,-2.6 L 25,60.95 23.8,62.1 q -2.6,2.85 -4.3,3.95 -2.85,1.8 -5.5,1.45 l -1.65,-0.5 -1.2,-0.7 -0.2,-0.2 q -1,-0.85 -1.6,-1.9 L 9.25,64 9.15,63.8 8.75,62.4 q -0.2,-0.8 -0.05,-1.7 0.25,-2.65 2.7,-5.05 1.5,-1.3 4.9,-3.15 L 17.7,51.55 16.05,50 q -1.35,-1.5 -1.8,-3.6 -0.4,-1.85 0.25,-3.45 l 0.3,-1.25"
         fill="#000000"
         fill-opacity="0.372549"
         fill-rule="evenodd"
         stroke="none"
         id="path7" />
    </g>
  </defs>
</svg>
