<?xml version="1.0" encoding="UTF-8" standalone="no"?>
<svg
   ffdec:objectType="frame"
   height="80.800003"
   width="29.835417"
   version="1.1"
   id="svg6"
   xmlns:xlink="http://www.w3.org/1999/xlink"
   xmlns="http://www.w3.org/2000/svg"
   xmlns:svg="http://www.w3.org/2000/svg"
   xmlns:ffdec="https://www.free-decompiler.com/flash">
  <g
     transform="translate(15.633333,37.3)"
     id="g1">
    <use
       ffdec:characterId="17"
       height="119.15"
       id="rarity"
       transform="translate(-58.5,-60.65)"
       width="119.15"
       xlink:href="#sprite0" />
    <use
       ffdec:characterId="88"
       height="80.900002"
       transform="translate(-15.65,-37.3)"
       width="29.85"
       xlink:href="#shape0"
       id="use1" />
  </g>
  <defs
     id="defs6">
    <g
       id="shape0"
       transform="translate(15.35,39.8)">
      <path
         d="m -8.45,-16.05 q -3.15,-1.65 -4.15,-3.6 -0.85,-1.6 -0.6,-4.35 0.25,-2.5 2.1,-7.65 1.35,-3.8 2.85,-5.35 2.65,-2.8 8.35,-2.8 7.8,0 11.4,4.5 1.95,2.4 2.75,6.7 1.1,7.5 -2.6,11.4 l -1.35,1.3 -1.2,1.4 Q 8.15,-13 8.25,-9.35 8.4,-1.3 7.25,8.7 6.6,14.7 4.75,26.65 l -1,5.55 q -0.65,3.1 -1.6,5.4 -1.05,2.5 -2.6,3.25 L -3.1,41 -5.85,40.15 -11.2,38.55 q -3.1,-1.25 -3.95,-3.75 -0.55,-1.75 0.55,-5.35 6.35,-20.65 8.3,-41.95 0.1,-1.3 -0.15,-1.85 -0.3,-0.7 -2,-1.7 m 2.25,-13.4 -1.3,4.4 -0.15,2.25 q 0.35,1.4 2.15,2.45 l 2.3,1.2 q 1.25,0.75 1.8,1.7 l 0.35,0.8 0.75,0.3 3.4,-0.15 0.55,-0.1 q 0.25,-1.05 1.6,-2.05 l 2.6,-2 q 2.35,-2.4 1.3,-7.25 -0.55,-2.55 -1.7,-3.75 -1.6,-1.75 -5.5,-2.25 L 0.1,-34.05 q -2.85,-0.05 -4.3,1.2 h -0.05 q -0.95,0.8 -1.6,2.4 l -0.35,1 M 3.3,0.9 3.5,-2.25 3.95,-12 3.9,-14 l -0.1,-0.5 -1.2,0.35 -3.45,0.3 -0.05,0.15 -0.4,4.95 -0.8,7.3 -0.2,1.55 -0.35,2.2 q -1.7,11.55 -4.6,22.85 l -0.6,2.4 -1.45,5 0.8,0.35 5.1,1.65 2.2,0.45 Q 2.05,17.9 3.3,0.9"
         fill="#000000"
         fill-rule="evenodd"
         stroke="none"
         id="path1" />
      <path
         d="m -2.65,2.3 0.35,-2.2 0.2,-1.55 0.8,-7.3 0.4,-4.95 0.05,-0.15 3.45,-0.3 1.2,-0.35 0.1,0.5 0.05,2 L 3.5,-2.25 3.3,0.9 2.25,1.65 1.75,1.8 Q 0.65,2.5 -0.9,2.55 L -2.65,2.3"
         fill="#9a9393"
         fill-rule="evenodd"
         stroke="none"
         id="path2" />
      <path
         d="M -2.65,2.3 -0.9,2.55 Q 0.65,2.5 1.75,1.8 L 2.25,1.65 3.3,0.9 Q 2.05,17.9 -1.2,35 l -2.2,-0.45 -5.1,-1.65 -0.8,-0.35 1.45,-5 0.6,-2.4 q 2.9,-11.3 4.6,-22.85"
         fill="#b1a9a9"
         fill-rule="evenodd"
         stroke="none"
         id="path3" />
      <path
         d="m 0.1,-34.05 1.1,0.7 q 0.75,0.75 1,1.9 0.4,2.05 -1,3.85 -0.85,1.1 -2.15,1.55 L -3.5,-26.1 q -0.85,-0.45 -1.7,-1.55 -0.7,-0.85 -1,-1.8 l 0.35,-1 q 0.65,-1.6 1.6,-2.4 h 0.05 q 1.45,-1.25 4.3,-1.2"
         fill="#d0aaaa"
         fill-rule="evenodd"
         stroke="none"
         id="path4" />
      <path
         d="m 0.1,-34.05 1.85,0.15 q 3.9,0.5 5.5,2.25 1.15,1.2 1.7,3.75 1.05,4.85 -1.3,7.25 l -2.6,2 q -1.35,1 -1.6,2.05 l -0.55,0.1 -3.4,0.15 -0.75,-0.3 -0.35,-0.8 q -0.55,-0.95 -1.8,-1.7 l -2.3,-1.2 q -1.8,-1.05 -2.15,-2.45 l 0.15,-2.25 1.3,-4.4 q 0.3,0.95 1,1.8 0.85,1.1 1.7,1.55 l 2.55,0.05 q 1.3,-0.45 2.15,-1.55 1.4,-1.8 1,-3.85 -0.25,-1.15 -1,-1.9 l -1.1,-0.7"
         fill="#926363"
         fill-rule="evenodd"
         stroke="none"
         id="path5" />
    </g>
    <g
       id="sprite1"
       transform="translate(17.4,15.85)">
      <use
         ffdec:characterId="31"
         height="57.200001"
         transform="matrix(0.5366,0,0,0.5366,-16.6582,-14.546)"
         width="70.75"
         xlink:href="#sprite2"
         id="use5" />
    </g>
    <g
       id="sprite2"
       transform="translate(-8.65,-10.35)">
      <use
         ffdec:characterId="30"
         height="57.200001"
         transform="translate(8.65,10.35)"
         width="70.75"
         xlink:href="#shape1"
         id="use6" />
    </g>
    <g
       id="shape1"
       transform="translate(-8.65,-10.35)">
      <path
         d="m 14.8,41.7 q 0.65,-1.75 2.65,-2.5 1.8,-0.8 3.7,-0.25 1.15,0.45 2.25,1.2 l 0.9,0.4 q 1.65,0.9 2.85,2.5 L 37.8,30.1 q 2.35,-2.8 3.75,-3.95 1.5,-1.15 4.25,-2.4 18.2,-8.85 27.65,-12.6 2.15,-0.8 3.25,-0.8 h 0.8 l 1.9,2.4 -0.2,0.8 q -0.2,1.1 -1.55,3 -5.85,8.25 -18.85,23.8 -1.85,2.35 -3.35,3.5 -1.4,1.15 -4.75,2.75 l -15.15,7.15 q 1.2,1.6 1.75,3.4 l 0.2,1 0.55,2.5 q 0.1,1.95 -1.1,3.55 -1.2,1.65 -3.05,1.9 l -1.3,0.05 q -1.65,0.2 -3.45,-0.65 -1.85,-0.9 -3,-2.6 L 25,60.95 23.8,62.1 q -2.6,2.85 -4.3,3.95 -2.85,1.8 -5.5,1.45 l -1.65,-0.5 -1.2,-0.7 -0.2,-0.2 q -1,-0.85 -1.6,-1.9 L 9.25,64 9.15,63.8 8.75,62.4 q -0.2,-0.8 -0.05,-1.7 0.25,-2.65 2.7,-5.05 1.5,-1.3 4.9,-3.15 L 17.7,51.55 16.05,50 q -1.35,-1.5 -1.8,-3.6 -0.4,-1.85 0.25,-3.45 l 0.3,-1.25"
         fill="#000000"
         fill-opacity="0.372549"
         fill-rule="evenodd"
         stroke="none"
         id="path6" />
    </g>
  </defs>
</svg>
