<?xml version="1.0" encoding="UTF-8" standalone="no"?>
<svg
   ffdec:objectType="frame"
   height="64.354546"
   width="78.372688"
   version="1.1"
   id="svg4"
   xmlns:xlink="http://www.w3.org/1999/xlink"
   xmlns="http://www.w3.org/2000/svg"
   xmlns:svg="http://www.w3.org/2000/svg"
   xmlns:ffdec="https://www.free-decompiler.com/flash">
  <g
     transform="translate(36.628125,31.05)"
     id="g1">
    <use
       ffdec:characterId="17"
       height="119.15"
       id="rarity"
       transform="translate(-58.5,-60.65)"
       width="119.15"
       xlink:href="#sprite0" />
    <use
       ffdec:characterId="565"
       height="64.400002"
       transform="translate(-36.65,-31.1)"
       width="78.400002"
       xlink:href="#shape0"
       id="use1" />
  </g>
  <defs
     id="defs4">
    <g
       id="shape0"
       transform="translate(36.25,30.3)">
      <path
         d="m 27,-26.05 2.95,-2.05 q 3.65,-2.05 5.85,-2 1.65,0.05 3.1,1.05 1.4,0.95 2.2,2.45 1.55,2.8 0.8,6.55 -0.8,3.6 -3.3,5 2.15,3.75 1.45,7.2 -0.3,2 -1.65,3.35 -1.4,1.6 -3.1,1.75 -1.1,0.2 -2.25,0 -2.2,-0.35 -3.5,-1.6 Q 28.3,-5.6 27.5,-8.9 l -2.95,1.05 -2.8,1.15 q -1.7,0.65 -3.1,0.8 L 19,-5.05 q 0.25,0.95 0.1,3.35 L 19.05,-0.8 18.3,1.5 17.6,2.7 15.9,3.95 14.35,4.7 12.5,4.75 13.2,5.6 q 2.2,3.05 2.5,7.1 0.3,4.05 -1.55,7.55 Q 13.3,21.9 12.05,23 10.6,24.25 8.95,24.45 7.4,24.55 5.85,23.7 4.45,22.9 3.4,21.5 l -0.45,-0.75 0.1,1.9 q 0.05,2.7 -0.75,4.7 -0.8,2 -2.3,3.5 -2.7,2.6 -6.35,2.75 -2.15,0.1 -3.65,-0.65 -1.8,-1 -2.5,-2.7 -0.4,-1 -0.4,-2.75 v -2.95 q -0.15,-1.4 -0.8,-3.2 l -0.15,1.95 q -0.5,3.25 -1.85,5.45 -1.7,2.85 -5.05,4.25 -3.1,1.35 -6.6,1.05 -3.45,-0.3 -6.35,-2.15 -2.05,-1.4 -2.45,-3.05 -0.25,-1.2 0.3,-2.7 L -34.4,23.6 Q -30.6,17.45 -30.15,10 -30,7.25 -30.35,3.35 L -31.1,-3.2 q -0.8,-8.1 1.25,-13.1 3.05,-7.6 12.75,-12.1 2.8,-1.3 5.05,-1.7 l 5.25,-0.15 5.35,0.65 6,1.25 6.15,0.95 14.45,1.55 1.5,0.1 L 27,-26 v -0.05 m 10.85,2.45 -0.2,-0.7 -0.5,-0.7 q -0.65,-0.9 -1.7,-0.95 -0.55,-0.05 -1.75,0.6 l -3.6,2.55 q -1.4,1.05 -2.1,1.15 -0.85,0.05 -1.5,-0.55 v -0.05 L 24.15,-22 19.5,-22.2 Q 6.6,-23 -0.7,-24.5 l -0.85,-0.15 -4.05,-0.85 h -0.1 l -3.55,-0.15 -1.45,0.15 q -2.55,0.35 -6.55,2.65 -2.55,1.45 -3.9,2.65 l -2,2.05 -1.8,2.85 q -0.85,1.65 -1.2,3.5 l -0.35,2.5 q -0.1,1.9 0.5,6.5 1.25,8.9 0.5,15.6 -1.05,8.7 -5.35,14.65 1.75,1.05 3.45,1.4 l 2.7,0.1 q 1.7,-0.25 3.1,-1.1 1.5,-0.95 2.3,-2.35 0.9,-1.7 1.35,-6.1 0.3,-2.65 0.95,-4.35 l -1.15,-0.45 -1.35,-1.05 -1.1,-1.6 q -1.1,-1.8 -2,-4.65 -0.9,-2.6 -0.95,-4.05 -0.1,-2.35 0.85,-4.05 l 0.4,-0.65 0.75,-0.15 q 0.45,0 0.65,0.4 0.3,0.35 0.25,0.8 l -0.25,1.75 0.4,1.9 0.6,1.8 q 1,2.85 2.05,4.5 0.8,1.15 1.7,1.55 h 0.05 l 0.9,0.15 0.15,0.05 0.7,-0.25 0.3,-0.25 0.4,-0.7 0.2,-0.95 q 0.35,-2.35 -0.45,-7 -0.6,-3.15 -0.65,-5.3 l -0.05,-1.2 0.1,-0.6 0.4,-1.15 0.15,0.2 q 1.3,1.2 2.15,3.15 l 0.45,0.25 q 0.05,0.1 0.1,0.05 l 0.6,1.05 0.85,1.95 1.25,2.3 1.3,1.65 q 1.5,1.65 2.35,2 h 0.7 q 0.3,-0.05 0.45,-0.7 l 0.3,-0.85 0.1,-0.35 q 0.25,-1.25 0.2,-2.4 -0.1,-1.5 -0.6,-3 l -0.9,-2.05 -0.85,-3.65 -0.3,-0.05 -1,-0.4 -1.6,-0.85 -1.5,-1.15 q -0.75,-0.75 -1.25,-2.2 -0.35,-1.05 -0.15,-1.75 l 0.45,-0.7 0.15,-0.05 0.85,-0.05 q 0.35,0.15 0.85,1.15 0.6,1.25 2.55,2.25 l 0.55,0.15 0.7,0.05 q 0.7,-0.2 0.8,-1.25 l -0.1,-1.8 -0.4,-2.7 -0.05,-2.75 0.55,0.7 0.9,0.8 q 1,0.8 1.95,3.05 l 0.35,0.85 0.1,1 q 0.15,2.05 -0.15,2.75 l -1,1.5 -0.8,0.75 -0.3,0.1 0.25,0.4 2.05,3.2 Q 0.2,-1.25 0.5,0.1 0.85,1.45 0.75,3.35 L 0.7,3.55 Q 0.65,6.25 0.1,7.7 L -0.25,8.25 1,9.6 l 1.95,2.8 1.45,2.65 1.05,2 Q 6.05,18.3 6.6,19 7.55,20.15 8.45,19.85 L 9.5,19 10.75,16.65 11.2,14.9 q 0.3,-2.25 -0.4,-4.25 L 8.85,7.35 Q 7.4,5.25 6.85,3.95 L 6.65,2.75 H 5.9 L 4.8,2.55 3.9,2.05 2.1,0.25 Q 1.1,-0.6 0.95,-1.4 v -1.15 q 0,-0.55 0.25,-0.85 l 0.2,-0.25 0.3,-0.1 0.7,0.25 0.6,0.85 1.3,1.1 1.6,1.2 q 0.65,0.05 1.45,-0.9 l 0.3,-0.35 0.6,-1.3 Q 8.4,-3.65 8.05,-4.65 L 7.4,-6.2 Q 6.7,-7.95 6.3,-9.65 5.9,-11.1 6.25,-11.8 l 0.45,-0.65 0.75,-0.1 1.45,1 q 1.25,1.75 2.55,4.9 l 0.5,1.6 v 1.7 l -0.1,2.2 -0.75,1.2 -0.25,0.25 0.35,0.2 1.35,0.35 1,-0.4 q 1.15,-0.9 1.4,-2.4 0.1,-1.45 -0.7,-2.75 l -1,-1.3 q -0.5,-0.8 -0.65,-1.6 -0.25,-0.8 -0.2,-1.5 0.3,-0.85 0.85,-1.2 0.75,-0.4 1.65,0 L 16,-9.35 16.35,-9 q 2,-0.5 6.15,-2.35 l 5.05,-2.25 q 1.95,-1 3.05,-0.3 0.95,0.65 0.95,2.4 l -0.1,1.4 0.2,1.35 q 0.55,1.45 1.85,1.65 l 1.25,-0.05 q 0.65,-0.2 1,-0.8 0.55,-0.8 0.35,-2 -0.2,-1.95 -1.6,-3.8 l -1,-1.45 q -0.55,-0.8 -0.45,-1.55 0.15,-1.15 1.25,-1.5 L 36,-18.5 q 1.4,-0.5 1.75,-2.45 0.35,-1.5 0.1,-2.65 M -9.5,10.05 q -0.15,1.45 -0.6,2.25 -0.85,1.6 -2.5,2.35 l 0.45,0.95 2.05,3.95 q 1.05,2.3 1.25,4.3 l 0.15,2.3 0.35,2.2 q 1.2,1.15 3.5,0.2 l 0.9,-0.45 1.15,-1 q 1.1,-1.3 1.25,-3.3 0.3,-2.8 -0.7,-5.9 -0.7,-2.4 -2.5,-5.4 L -5.7,10.35 -6.85,9.7 -8.35,8.5 -9.3,7.3 l -0.1,1.95 -0.1,0.8"
         fill="#000000"
         fill-rule="evenodd"
         stroke="none"
         id="path1" />
      <path
         d="M 25.15,-25.85 27,-26.05 V -26 l -0.35,0.25 -1.5,-0.1 m -52.55,54.7 q -1.7,-0.35 -3.45,-1.4 4.3,-5.95 5.35,-14.65 0.75,-6.7 -0.5,-15.6 -0.6,-4.6 -0.5,-6.5 l 0.35,-2.5 q 0.35,-1.85 1.2,-3.5 l 1.8,-2.85 2,-2.05 q 1.35,-1.2 3.9,-2.65 4,-2.3 6.55,-2.65 l 1.45,-0.15 3.55,0.15 h 0.1 l 4.05,0.85 0.85,0.15 q 7.3,1.5 20.2,2.3 l 4.65,0.2 2.35,-0.25 v 0.05 q 0.65,0.6 1.5,0.55 0.7,-0.1 2.1,-1.15 l 3.6,-2.55 q 1.2,-0.65 1.75,-0.6 1.05,0.05 1.7,0.95 l 0.5,0.7 0.2,0.7 q -0.35,0.2 -0.7,0.25 l -0.8,0.15 q -3.3,2.6 -6.2,3.55 l -5.45,0.8 -11,-0.3 -10.95,-1 q -5,-0.45 -7.65,0.05 -3.45,0.8 -6.2,3.2 l -1.25,1.3 v 1.05 q 0,2.75 0.35,4.15 l 0.55,1.15 0.2,0.05 0.7,0.6 0.3,1.25 5.1,7.95 q 1.45,2.55 1.7,4.35 L -3.75,5.8 Q -3.9,6.45 -4.2,6.5 h -0.7 q -0.85,-0.35 -2.35,-2 l -1.3,-1.65 -1.25,-2.3 -0.85,-1.95 -0.6,-1.05 q -0.05,0.05 -0.1,-0.05 l -0.45,-0.25 q -0.85,-1.95 -2.15,-3.15 l -0.15,-0.2 -0.4,1.15 -0.1,0.6 0.05,1.2 q 0.05,2.15 0.65,5.3 0.8,4.65 0.45,7 l -0.2,0.95 -0.4,0.7 -0.3,0.25 -0.7,0.25 -0.15,-0.05 -0.15,-0.15 -0.05,-0.25 -0.55,0.25 h -0.15 -0.05 q -0.9,-0.4 -1.7,-1.55 -1.05,-1.65 -2.05,-4.5 l -0.6,-1.8 -0.4,-1.9 0.25,-1.75 q 0.05,-0.45 -0.25,-0.8 -0.2,-0.4 -0.65,-0.4 l -0.75,0.15 -0.4,0.65 q -0.95,1.7 -0.85,4.05 0.05,1.45 0.95,4.05 0.9,2.85 2,4.65 -0.65,5.05 -1.85,9.2 -0.85,2.9 -1.9,4.5 -0.75,1.25 -3.05,3.2 M 7.65,-1.6 7.35,-1.25 Q 6.55,-0.3 5.9,-0.35 L 4.3,-1.55 3,-2.65 2.4,-3.5 1.7,-3.75 1.4,-3.65 1.2,-4.1 0.3,-5.2 -0.65,-6.35 Q -0.9,-6.9 -0.8,-7.55 l 0.45,-1.05 q 0.85,-0.9 2.1,-0.55 l 1.6,1 1.55,1.55 q 1.25,1.2 2.05,2.7 0.75,1.2 0.7,2.3 M 10.75,16.65 9.5,19 8.45,19.85 Q 7.55,20.15 6.6,19 6.05,18.3 5.45,17.05 L 4.4,15.05 2.95,12.4 1,9.6 -0.25,8.25 0.1,7.7 Q 0.65,6.25 0.7,3.55 l 0.05,-0.2 0.6,0.4 Q 4.2,5.65 5.3,6.7 L 7.15,9 q 1.55,2.35 2.65,4.8 l 0.75,1.65 0.2,1.2 M -5.9,-10.15 -6.45,-10.3 q -1.95,-1 -2.55,-2.25 -0.5,-1 -0.85,-1.15 l -0.85,0.05 -0.15,0.05 q -0.05,-0.75 0.65,-1.75 0.4,-0.85 0.95,-1.1 l 1.5,-0.15 q 0.75,0.15 1.3,0.75 0.55,0.65 1.3,2.5 0.55,1.35 0.35,2.05 -0.3,0.9 -1.1,1.15 M -3.15,2.2 q 0.05,1.15 -0.2,2.4 L -3.7,3.75 Q -3.9,2.8 -3.3,2.25 L -3.15,2.2 m -0.8,25.9 -0.9,0.45 q -2.3,0.95 -3.5,-0.2 l -0.35,-2.2 -0.15,-2.3 q -0.2,-2 -1.25,-4.3 l -2.05,-3.95 -0.45,-0.95 q 1.65,-0.75 2.5,-2.35 0.45,-0.8 0.6,-2.25 l 1.4,2.55 q 2.7,5.6 3.65,8.15 0.85,2.2 0.95,3.9 0.1,1.6 -0.4,3.25 l -0.05,0.2"
         fill="#d0d0d0"
         fill-rule="evenodd"
         stroke="none"
         id="path2" />
      <path
         d="m -27.4,28.85 q 2.3,-1.95 3.05,-3.2 1.05,-1.6 1.9,-4.5 1.2,-4.15 1.85,-9.2 l 1.1,1.6 1.35,1.05 1.15,0.45 q -0.65,1.7 -0.95,4.35 -0.45,4.4 -1.35,6.1 -0.8,1.4 -2.3,2.35 -1.4,0.85 -3.1,1.1 l -2.7,-0.1 M -3.45,4.95 Q -3.7,3.15 -5.15,0.6 l -5.1,-7.95 -0.3,-1.25 -0.7,-0.6 -0.2,-0.05 -0.55,-1.15 q -0.35,-1.4 -0.35,-4.15 v -1.05 l 1.25,-1.3 q 2.75,-2.4 6.2,-3.2 2.65,-0.5 7.65,-0.05 l 10.95,1 11,0.3 5.45,-0.8 q 2.9,-0.95 6.2,-3.55 l 0.8,-0.15 q 0.35,-0.05 0.7,-0.25 0.25,1.15 -0.1,2.65 Q 37.4,-19 36,-18.5 l -1.7,0.25 q -1.1,0.35 -1.25,1.5 -0.1,0.75 0.45,1.55 l 1,1.45 q 1.4,1.85 1.6,3.8 0.2,1.2 -0.35,2 -0.35,0.6 -1,0.8 L 33.5,-7.1 q -1.3,-0.2 -1.85,-1.65 l -0.2,-1.35 0.1,-1.4 q 0,-1.75 -0.95,-2.4 -1.1,-0.7 -3.05,0.3 l -5.05,2.25 Q 18.35,-9.5 16.35,-9 L 16,-9.35 14.9,-10.3 q -0.9,-0.4 -1.65,0 -0.55,0.35 -0.85,1.2 -0.05,0.7 0.2,1.5 0.15,0.8 0.65,1.6 l 1,1.3 q 0.8,1.3 0.7,2.75 -0.25,1.5 -1.4,2.4 l -1,0.4 L 11.2,0.5 10.85,0.3 11.1,0.05 l 0.75,-1.2 0.1,-2.2 v -1.7 l -0.5,-1.6 q -1.3,-3.15 -2.55,-4.9 l -1.45,-1 -0.75,0.1 -0.45,0.65 q -0.35,0.7 0.05,2.15 0.4,1.7 1.1,3.45 l 0.65,1.55 q 0.35,1 0.2,1.75 l -0.6,1.3 Q 7.7,-2.7 6.95,-3.9 6.15,-5.4 4.9,-6.6 l -1.55,-1.55 -1.6,-1 Q 0.5,-9.5 -0.35,-8.6 l -0.45,1.05 q -0.1,0.65 0.15,1.2 L 0.3,-5.2 1.2,-4.1 1.4,-3.65 1.2,-3.4 Q 0.95,-3.1 0.95,-2.55 V -1.4 Q 1.1,-0.6 2.1,0.25 l 1.8,1.8 0.9,0.5 1.1,0.2 h 0.75 l 0.2,1.2 q 0.55,1.3 2,3.4 l 1.95,3.3 q 0.7,2 0.4,4.25 l -0.45,1.75 -0.2,-1.2 L 9.8,13.8 Q 8.7,11.35 7.15,9 L 5.3,6.7 Q 4.2,5.65 1.35,3.75 L 0.75,3.35 Q 0.85,1.45 0.5,0.1 0.2,-1.25 -1.05,-3.5 l -2.05,-3.2 -0.25,-0.4 0.3,-0.1 0.8,-0.75 1,-1.5 q 0.3,-0.7 0.15,-2.75 l -0.1,-1 -0.35,-0.85 Q -2.5,-16.3 -3.5,-17.1 l -0.9,-0.8 -0.55,-0.7 0.05,2.75 0.4,2.7 0.1,1.8 q -0.1,1.05 -0.8,1.25 l -0.7,-0.05 q 0.8,-0.25 1.1,-1.15 0.2,-0.7 -0.35,-2.05 -0.75,-1.85 -1.3,-2.5 -0.55,-0.6 -1.3,-0.75 l -1.5,0.15 q -0.55,0.25 -0.95,1.1 -0.7,1 -0.65,1.75 l -0.45,0.7 q -0.2,0.7 0.15,1.75 0.5,1.45 1.25,2.2 l 1.5,1.15 1.6,0.85 1,0.4 0.3,0.05 0.85,3.65 0.9,2.05 q 0.5,1.5 0.6,3 L -3.3,2.25 q -0.6,0.55 -0.4,1.5 l 0.35,0.85 -0.1,0.35 m -0.5,23.15 0.05,-0.2 q 0.5,-1.65 0.4,-3.25 -0.1,-1.7 -0.95,-3.9 Q -5.4,18.2 -8.1,12.6 l -1.4,-2.55 0.1,-0.8 0.1,-1.95 0.95,1.2 1.5,1.2 1.15,0.65 0.95,2.15 q 1.8,3 2.5,5.4 1,3.1 0.7,5.9 -0.15,2 -1.25,3.3 l -1.15,1"
         fill="#adadad"
         fill-rule="evenodd"
         stroke="none"
         id="path3" />
    </g>
    <g
       id="sprite1"
       transform="translate(17.4,15.85)">
      <use
         ffdec:characterId="31"
         height="57.200001"
         transform="matrix(0.5366,0,0,0.5366,-16.6582,-14.546)"
         width="70.75"
         xlink:href="#sprite2"
         id="use3" />
    </g>
    <g
       id="sprite2"
       transform="translate(-8.65,-10.35)">
      <use
         ffdec:characterId="30"
         height="57.200001"
         transform="translate(8.65,10.35)"
         width="70.75"
         xlink:href="#shape1"
         id="use4" />
    </g>
    <g
       id="shape1"
       transform="translate(-8.65,-10.35)">
      <path
         d="m 14.8,41.7 q 0.65,-1.75 2.65,-2.5 1.8,-0.8 3.7,-0.25 1.15,0.45 2.25,1.2 l 0.9,0.4 q 1.65,0.9 2.85,2.5 L 37.8,30.1 q 2.35,-2.8 3.75,-3.95 1.5,-1.15 4.25,-2.4 18.2,-8.85 27.65,-12.6 2.15,-0.8 3.25,-0.8 h 0.8 l 1.9,2.4 -0.2,0.8 q -0.2,1.1 -1.55,3 -5.85,8.25 -18.85,23.8 -1.85,2.35 -3.35,3.5 -1.4,1.15 -4.75,2.75 l -15.15,7.15 q 1.2,1.6 1.75,3.4 l 0.2,1 0.55,2.5 q 0.1,1.95 -1.1,3.55 -1.2,1.65 -3.05,1.9 l -1.3,0.05 q -1.65,0.2 -3.45,-0.65 -1.85,-0.9 -3,-2.6 L 25,60.95 23.8,62.1 q -2.6,2.85 -4.3,3.95 -2.85,1.8 -5.5,1.45 l -1.65,-0.5 -1.2,-0.7 -0.2,-0.2 q -1,-0.85 -1.6,-1.9 L 9.25,64 9.15,63.8 8.75,62.4 q -0.2,-0.8 -0.05,-1.7 0.25,-2.65 2.7,-5.05 1.5,-1.3 4.9,-3.15 L 17.7,51.55 16.05,50 q -1.35,-1.5 -1.8,-3.6 -0.4,-1.85 0.25,-3.45 l 0.3,-1.25"
         fill="#000000"
         fill-opacity="0.372549"
         fill-rule="evenodd"
         stroke="none"
         id="path4" />
    </g>
  </defs>
</svg>
