<?xml version="1.0" encoding="UTF-8" standalone="no"?>
<svg
   ffdec:objectType="frame"
   height="77.083084"
   width="60.259686"
   version="1.1"
   id="svg4"
   xmlns:xlink="http://www.w3.org/1999/xlink"
   xmlns="http://www.w3.org/2000/svg"
   xmlns:svg="http://www.w3.org/2000/svg"
   xmlns:ffdec="https://www.free-decompiler.com/flash">
  <g
     transform="translate(32.508333,41.201036)"
     id="g1">
    <use
       ffdec:characterId="17"
       height="119.15"
       id="rarity"
       transform="translate(-58.5,-60.65)"
       width="119.15"
       xlink:href="#sprite0" />
    <use
       ffdec:characterId="1162"
       height="77.099998"
       transform="translate(-32.5,-41.2)"
       width="60.25"
       xlink:href="#shape0"
       id="use1" />
  </g>
  <defs
     id="defs4">
    <g
       id="shape0"
       transform="translate(31.2,39.3)">
      <path
         d="M 8.05,-29.7 7.8,-30.2 q -6.95,-6.05 -15.2,-1.2 -3.6,2.1 -5.35,6 l -1.3,3.65 q -0.95,3.3 -0.9,6.8 l 0.05,0.15 0.1,0.2 0.05,0.15 0.05,0.15 0.05,0.2 10.05,-0.75 4.6,-0.7 4.45,-0.45 1.35,-0.1 4.05,-0.2 0.45,-1.75 0.25,-3 0.05,-3.25 q -0.4,-0.5 -0.5,-1.15 -0.25,-1.3 -1,-2.45 l -1.05,-1.8 m -9.8,-9.6 q 11.1,-0.1 15.9,9.45 3,5.9 1.25,12.4 0.05,1.6 -0.3,3.15 -0.75,3.45 -4.2,3.7 l -2.6,0.25 v 0.3 l 0.05,1 0.45,1.3 0.25,1.15 0.1,0.15 0.1,0.15 0.1,0.2 0.05,0.15 0.1,0.15 v 0.15 L 15.25,5.1 q 2.6,5.15 0.4,10.4 l -0.7,1.5 q 3.75,-0.45 7.3,0.6 6.8,2.1 6.8,8.8 0.05,2.15 -1.75,3.55 -3.05,2.45 -7.25,2.05 l -2.85,-0.05 -6.95,0.2 q -3.55,6.4 -11.1,4.35 -3.55,-1 -5.15,-3.7 -3.2,4.15 -8.7,4.9 -2.7,0.4 -5,-1.15 l -1.75,-2.05 -0.1,-0.5 -0.05,-0.95 0.05,-1 v -0.5 q -3.7,0.3 -7.25,-1.35 -2.55,-1.15 -2.4,-3.85 0.05,-0.75 0.45,-1.3 0.55,-3.55 3.95,-5.3 2.55,-1.35 5.3,-1.65 l -1.8,-0.8 q -1.2,-0.65 -1.55,-1.95 -1.75,-6 2.5,-10.7 2.65,-2.9 6.2,-4.5 l 3.3,-1.1 q 8.1,-0.55 12.1,6 1.65,2.75 1.5,5.9 -0.25,4.4 -4.45,5.15 0.35,1.3 0.4,2.8 v 0.15 q 2.55,-1.4 4.6,-3.5 l 0.05,-0.15 0.3,-0.5 0.75,-1.1 0.45,-1 0.1,-0.2 V 12.45 12.3 11.8 11.15 10.35 Q 0.5,5.85 -2.75,1.8 -6.2,-2.55 -7.2,-7.65 L -7.35,-9.1 -17.6,-9.45 -18.35,-9.9 q -2.75,-2.85 -2.5,-6.95 0.6,-11.2 9.2,-18.55 1.95,-1.7 4.45,-2.55 l 5.45,-1.35 M 9.15,24.15 Q 6.7,26 3.6,27.2 L 3.2,27.05 2.95,26.95 2.8,26.75 2.75,26.6 2.7,26.45 2.65,26.3 V 26.1 L 2.7,25.95 2.75,25.8 q 1.6,-1.45 2.75,-3.25 0.65,-1 1.55,-1.85 2.2,-1.95 3.6,-4.55 3.1,-5.35 -0.2,-10.5 L 6.1,-1.5 Q 3.5,-5.9 3.2,-10.7 l -4.85,0.6 -0.25,0.25 -0.55,0.75 v 0.15 0.15 0.2 0.15 0.15 0.15 0.2 l 0.15,0.3 0.45,0.8 0.55,1.15 0.35,0.85 Q 2.75,0.4 6.1,5.9 q 3.55,5.8 -0.25,11.35 -3,4.5 -7.95,6.9 l -1.45,0.35 q -2.9,0.2 -2.8,-2.15 L -6.6,21.55 V 20.4 l -0.05,-0.9 -0.15,-2 -0.3,-0.95 -0.55,-0.6 -2.7,0.5 q 0.45,1.75 0.6,3.6 0.2,2.6 -2,3.5 Q -12.9,24 -13.5,22.9 l -0.3,-0.65 -1.45,0.1 L -19,22.05 -20.55,22 q -2.45,0.2 -4.55,1.5 l -0.3,0.3 -0.6,0.7 -0.35,0.5 -0.1,0.15 -0.05,0.15 -0.05,0.35 -0.1,0.45 v 0.2 l -0.15,0.3 0.15,0.15 0.7,0.35 0.2,0.1 1.55,0.15 0.5,0.05 7.15,-0.2 0.5,0.1 q 0.4,0.1 0.55,0.5 l 0.05,0.2 q 0.4,2 -1.55,2.9 l -0.1,0.2 -0.05,0.15 -0.1,0.15 -0.15,0.35 v 0.15 0.15 0.15 0.5 l 0.4,0.5 q 0.8,0.7 1.9,0.85 h 0.15 q 4.7,-0.9 7.35,-5.05 0.6,-0.9 1.7,-0.5 l 0.15,0.05 q 0.7,0.25 0.95,0.8 v 0.05 l 1.2,1.15 q 4.5,4.2 9.65,0.9 L 6.1,31.3 6.15,31.15 6.25,31 6.35,30.8 6.5,30.65 Q 7.3,27.8 10.25,27.6 h 0.65 q 6.85,0.25 13.45,-1.1 l 0.5,-0.2 0.1,-0.2 0.1,-0.3 L 25.1,25.45 25.05,25 25,24.8 24.9,24.65 24.6,24.3 24.4,24 24.15,23.5 Q 22.6,21.9 20.35,21.75 15.9,21.45 11.6,21.9 L 9.15,24.15 M -20.2,10.2 q -0.6,1.5 -0.6,3.25 2.5,1.75 5.75,0.55 2.2,-0.85 3.35,-0.05 l 2.45,-0.15 0.35,-0.05 1.45,0.15 q 0.65,-1.3 2.7,-1.45 0.95,-0.1 1.65,-0.6 V 11.7 L -3.15,11.35 -3.25,10.7 V 10.05 9.9 L -4.75,7.25 Q -5.2,6.45 -5.8,5.85 -6.9,4.65 -8.6,4.1 l -3.8,-0.25 q -3.25,0.65 -5.6,3 -1.5,1.5 -2.2,3.35 m 6.1,7.75 -2.1,0.55 2.1,0.55 v -1.1"
         fill="#000000"
         fill-rule="evenodd"
         stroke="none"
         id="path1" />
      <path
         d="m -14.05,-21.75 1.3,-3.65 q 1.75,-3.9 5.35,-6 8.25,-4.85 15.2,1.2 l 0.25,0.5 q 1.1,8.05 -6.75,11.75 -8,3.7 -14.1,-2.05 -0.85,-0.8 -1.25,-1.75 m -1.2,44.1 q 0.65,0.6 1.05,1.55 0.3,0.75 -0.25,1.35 l -2.1,1.95 -7.15,0.2 -0.5,-0.05 -1.55,-0.15 -0.2,-0.1 -0.7,-0.35 -0.15,-0.15 0.15,-0.3 v -0.2 l 0.1,-0.45 0.05,-0.35 0.05,-0.15 0.1,-0.15 0.35,-0.5 0.6,-0.7 0.3,-0.3 q 2.1,-1.3 4.55,-1.5 l 1.55,0.05 3.75,0.3 m -0.25,5.45 q 2,-1.4 4.7,-1.7 4.15,-0.55 5.05,2.45 L -5.9,28.5 Q -7,28.1 -7.6,29 q -2.65,4.15 -7.35,5.05 H -15.1 Q -16.2,33.9 -17,33.2 l -0.4,-0.5 V 32.2 32.05 31.9 31.75 l 0.15,-0.35 0.1,-0.15 0.05,-0.15 0.1,-0.2 Q -15.05,30 -15.45,28 L -15.5,27.8 M 10.25,27.6 Q 8.55,26.35 9.15,24.15 L 11.6,21.9 q 4.3,-0.45 8.75,-0.15 2.25,0.15 3.8,1.75 l 0.25,0.5 0.2,0.3 0.3,0.35 0.1,0.15 0.05,0.2 0.05,0.45 -0.05,0.35 -0.1,0.3 -0.1,0.2 -0.5,0.2 q -6.6,1.35 -13.45,1.1 H 10.25 M -5.8,5.85 l 0.05,0.1 q 0.45,1.5 -0.45,2.75 -3.8,5 -10.2,4.15 -2.8,-0.4 -3.8,-2.65 0.7,-1.85 2.2,-3.35 2.35,-2.35 5.6,-3 l 3.8,0.25 q 1.7,0.55 2.8,1.75"
         fill="#646464"
         fill-rule="evenodd"
         stroke="none"
         id="path2" />
      <path
         d="m -14.05,-21.75 q 0.4,0.95 1.25,1.75 6.1,5.75 14.1,2.05 7.85,-3.7 6.75,-11.75 l 1.05,1.8 q 0.75,1.15 1,2.45 0.1,0.65 0.5,1.15 l -0.05,3.25 -0.25,3 -0.45,1.75 -4.05,0.2 -1.35,0.1 -4.45,0.45 -4.6,0.7 -10.05,0.75 -0.05,-0.2 -0.05,-0.15 -0.05,-0.15 -0.1,-0.2 -0.05,-0.15 q -0.05,-3.5 0.9,-6.8 m -1.2,44.1 1.45,-0.1 0.3,0.65 q 0.6,1.1 1.75,0.65 2.2,-0.9 2,-3.5 -0.15,-1.85 -0.6,-3.6 l 2.7,-0.5 0.55,0.6 0.3,0.95 0.15,2 0.05,0.9 v 1.15 l 0.25,0.8 q -0.1,2.35 2.8,2.15 L -2.1,24.15 Q 2.85,21.75 5.85,17.25 9.65,11.7 6.1,5.9 2.75,0.4 -0.95,-4.85 L -1.3,-5.7 -1.85,-6.85 -2.3,-7.65 -2.45,-7.95 V -8.15 -8.3 -8.45 -8.6 -8.8 -8.95 -9.1 l 0.55,-0.75 0.25,-0.25 4.85,-0.6 q 0.3,4.8 2.9,9.2 l 4.35,7.15 q 3.3,5.15 0.2,10.5 -1.4,2.6 -3.6,4.55 -0.9,0.85 -1.55,1.85 -1.15,1.8 -2.75,3.25 L 2.7,25.95 2.65,26.1 v 0.2 l 0.05,0.15 0.05,0.15 0.05,0.15 0.15,0.2 0.25,0.1 0.4,0.15 Q 6.7,26 9.15,24.15 8.55,26.35 10.25,27.6 7.3,27.8 6.5,30.65 L 6.35,30.8 6.25,31 6.15,31.15 6.1,31.3 6.05,31.45 Q 0.9,34.75 -3.6,30.55 L -4.8,29.4 v -0.05 q -0.25,-0.55 -0.95,-0.8 -0.9,-3 -5.05,-2.45 -2.7,0.3 -4.7,1.7 -0.15,-0.4 -0.55,-0.5 l -0.5,-0.1 2.1,-1.95 q 0.55,-0.6 0.25,-1.35 -0.4,-0.95 -1.05,-1.55 M -20.2,10.2 q 1,2.25 3.8,2.65 Q -10,13.7 -6.2,8.7 -5.3,7.45 -5.75,5.95 L -5.8,5.85 q 0.6,0.6 1.05,1.4 l 1.5,2.65 v 0.15 0.65 l 0.1,0.65 0.05,0.35 v 0.15 q -0.7,0.5 -1.65,0.6 -2.05,0.15 -2.7,1.45 l -1.45,-0.15 -0.35,0.05 -2.45,0.15 q -1.15,-0.8 -3.35,0.05 -3.25,1.2 -5.75,-0.55 0,-1.75 0.6,-3.25"
         fill="#4d4d4d"
         fill-rule="evenodd"
         stroke="none"
         id="path3" />
    </g>
    <g
       id="sprite1"
       transform="translate(17.4,15.85)">
      <use
         ffdec:characterId="31"
         height="57.200001"
         transform="matrix(0.5366,0,0,0.5366,-16.6582,-14.546)"
         width="70.75"
         xlink:href="#sprite2"
         id="use3" />
    </g>
    <g
       id="sprite2"
       transform="translate(-8.65,-10.35)">
      <use
         ffdec:characterId="30"
         height="57.200001"
         transform="translate(8.65,10.35)"
         width="70.75"
         xlink:href="#shape1"
         id="use4" />
    </g>
    <g
       id="shape1"
       transform="translate(-8.65,-10.35)">
      <path
         d="m 14.8,41.7 q 0.65,-1.75 2.65,-2.5 1.8,-0.8 3.7,-0.25 1.15,0.45 2.25,1.2 l 0.9,0.4 q 1.65,0.9 2.85,2.5 L 37.8,30.1 q 2.35,-2.8 3.75,-3.95 1.5,-1.15 4.25,-2.4 18.2,-8.85 27.65,-12.6 2.15,-0.8 3.25,-0.8 h 0.8 l 1.9,2.4 -0.2,0.8 q -0.2,1.1 -1.55,3 -5.85,8.25 -18.85,23.8 -1.85,2.35 -3.35,3.5 -1.4,1.15 -4.75,2.75 l -15.15,7.15 q 1.2,1.6 1.75,3.4 l 0.2,1 0.55,2.5 q 0.1,1.95 -1.1,3.55 -1.2,1.65 -3.05,1.9 l -1.3,0.05 q -1.65,0.2 -3.45,-0.65 -1.85,-0.9 -3,-2.6 L 25,60.95 23.8,62.1 q -2.6,2.85 -4.3,3.95 -2.85,1.8 -5.5,1.45 l -1.65,-0.5 -1.2,-0.7 -0.2,-0.2 q -1,-0.85 -1.6,-1.9 L 9.25,64 9.15,63.8 8.75,62.4 q -0.2,-0.8 -0.05,-1.7 0.25,-2.65 2.7,-5.05 1.5,-1.3 4.9,-3.15 L 17.7,51.55 16.05,50 q -1.35,-1.5 -1.8,-3.6 -0.4,-1.85 0.25,-3.45 l 0.3,-1.25"
         fill="#000000"
         fill-opacity="0.372549"
         fill-rule="evenodd"
         stroke="none"
         id="path4" />
    </g>
  </defs>
</svg>
