<?xml version="1.0" encoding="UTF-8" standalone="no"?>
<svg
   ffdec:objectType="frame"
   height="92.779778"
   width="63.197914"
   version="1.1"
   id="svg5"
   sodipodi:docname="ITEM Superhero Cape.svg"
   xmlns:inkscape="http://www.inkscape.org/namespaces/inkscape"
   xmlns:sodipodi="http://sodipodi.sourceforge.net/DTD/sodipodi-0.dtd"
   xmlns:xlink="http://www.w3.org/1999/xlink"
   xmlns="http://www.w3.org/2000/svg"
   xmlns:svg="http://www.w3.org/2000/svg"
   xmlns:ffdec="https://www.free-decompiler.com/flash">
  <sodipodi:namedview
     id="namedview5"
     pagecolor="#ffffff"
     bordercolor="#000000"
     borderopacity="0.25"
     inkscape:showpageshadow="2"
     inkscape:pageopacity="0.0"
     inkscape:pagecheckerboard="0"
     inkscape:deskcolor="#d1d1d1"
     fit-margin-top="5"
     fit-margin-left="5"
     fit-margin-right="5"
     fit-margin-bottom="5" />
  <g
     transform="translate(28.712727,45.38125)"
     id="g1">
    <use
       ffdec:characterId="17"
       height="119.15"
       id="rarity"
       transform="translate(-58.5,-60.65)"
       width="119.15"
       xlink:href="#sprite0" />
    <use
       ffdec:characterId="843"
       height="92.800003"
       transform="translate(-28.7,-45.4)"
       width="63.200001"
       xlink:href="#shape0"
       id="use1" />
  </g>
  <defs
     id="defs5">
    <g
       id="shape0"
       transform="translate(29.25,46.15)">
      <path
         d="m -15.25,-9.15 -1.6,-2.75 -0.7,-1.7 q -0.95,-2.7 -0.7,-5.2 l 0.85,-3.8 q 2.05,-6.45 4.3,-9.55 2.95,-2.95 6.25,-5 3.85,-2.4 8.15,-3.6 L 3,-41.1 5.3,-41.2 q 1.3,0.2 3.95,1.55 l 0.75,0.6 1.85,1.8 q 5.3,5.85 7.3,13.4 l 1.15,6.1 0.35,2.8 -0.2,1.15 -0.45,2.75 -0.2,-0.5 -2.4,-7.65 -2.5,-6.1 -2.15,-4.3 -2.45,-3.35 q -1.6,-1.9 -2.7,-2.5 L 4.65,-36.2 H 3.7 l -1.5,0.45 q -4.3,1.5 -10.1,5.75 l -2.8,2.45 -1.9,2.85 q -4.05,7.6 -2.8,13.4 l 0.25,1.5 -0.1,0.65 m 39.7,30.6 Q 24.4,18.4 23.75,13.7 l -1,-7.8 -0.05,-1 3.2,10.35 q 2.5,7.95 3.2,13.65 l -0.8,-0.5 q -2.1,-1.8 -3.7,-6.55 l -0.15,-0.4 m -44.2,15.65 1.35,-4.05 0.6,-2.7 q 0.45,-2.45 0.55,-5 0.15,-2.2 -0.05,-5.25 Q -17.65,12 -19.45,6.6 L -21.4,1.5 q -1.3,-3.2 -1.8,-5.1 l -0.55,-2.7 q -0.6,-4.15 0.3,-8.25 l 0.8,-2.95 0.25,2.75 q 0.45,2.3 1.65,4.8 l 1,1.85 3.35,4.9 5.05,6.4 q 3,3.8 4.8,6.6 l 1.25,2 0.6,3.85 q 0.55,4.1 0.3,7 -0.3,3.8 -1.95,6.5 -2.5,4.2 -9.65,7.25 -2.35,1 -3.75,0.7"
         fill="#ca6f6f"
         fill-rule="evenodd"
         stroke="none"
         id="path1" />
      <path
         d="m 20,-11.05 0.45,-2.75 0.2,-1.15 -0.35,-2.8 -1.15,-6.1 q -2,-7.55 -7.3,-13.4 L 10,-39.05 9.25,-39.65 Q 6.6,-41 5.3,-41.2 l -2.3,0.1 -1.7,0.35 q -4.3,1.2 -8.15,3.6 -3.3,2.05 -6.25,5 -2.25,3.1 -4.3,9.55 l -0.85,3.8 q -0.25,2.5 0.7,5.2 l 0.7,1.7 1.6,2.75 2.25,3.2 3.1,3.95 1.95,2.45 3.15,4.25 V 3.5 1.25 Q -4.85,-4.3 -5.2,-9.85 l -0.75,-9 q -0.3,-3.05 0.05,-4.3 l 0.4,-0.5 q 0.35,-0.05 0.6,0.65 l 1.1,5.1 0.7,4.25 1.15,9.5 0.1,1.05 0.35,4.65 0.1,3.2 v 1.6 l 0.1,1.15 v 0.15 l 0.1,0.95 0.15,1.95 q 3.35,5.95 4.25,11.3 0.65,3.5 0.45,8.6 l -0.4,5 0.75,-0.2 q 2.45,-0.6 4.5,-1.85 2.35,-1.35 3.1,-3.05 0.6,-1.4 0.4,-4.45 L 10.55,6.85 10.5,5.65 10.3,2.8 q -0.45,-7.25 -0.4,-13.45 0,-5.2 0.3,-9.7 0.15,-2.7 0.85,-4.3 l 0.35,-0.7 q 0.35,-0.7 0.8,-0.45 l 0.25,0.65 q 0.45,18.45 2.7,38.2 l 0.8,7.05 0.45,5.85 2.45,-0.45 1,-0.05 0.1,-1.05 q 0.3,-3.35 -0.2,-8.3 l -0.8,-7.15 -0.1,-1.2 Q 18.3,-0.2 20,-11.05 M -1.45,44.5 q -1.6,1.05 -4.7,1.5 -6.55,1.05 -14.9,0.4 -3.25,-0.3 -5,-1 -1.05,-0.4 -1.7,-1.15 -0.8,-0.8 -0.85,-1.75 0,-0.7 0.4,-1.45 l 0.85,-1.3 q 3.5,-4.95 4.4,-12 0.75,-5.6 -0.3,-12.85 l -0.8,-4.3 q -0.5,-2 -1.85,-5.4 l -2.05,-5.45 q -1.9,-6.3 -1.05,-13.15 0.85,-6.65 4.15,-12.55 3.15,-5.7 8.35,-10.2 5,-4.4 11.25,-7.1 l 1.2,-0.5 1.85,-0.85 q 4.3,-1.75 7.45,-1.5 l 2.05,0.4 2.25,0.7 q 2.7,1.3 5.7,4.55 6.9,7.85 9.05,17.95 l 0.8,4.9 q 0.6,4 0.5,5.95 L 25.35,-8.8 25.2,-6 q 0,1.9 0.9,5.4 l 1.8,6.4 1.95,6 1.85,6.05 0.4,1.5 1.3,4.3 q 0.85,4.05 0.35,9.35 -0.3,2.2 -0.95,3.05 -0.35,0.85 -1.4,1.25 l -2.1,0.3 -6.85,1 q -3,0.65 -4.05,-0.4 -1.15,-1.05 -0.4,-3.9 l 1.2,-4.95 0.1,-0.5 -0.4,0.05 -2.1,0.55 -0.5,0.25 q -0.2,2.25 -1.05,3.6 -0.9,1.45 -2.75,2.75 -4.25,3.1 -8.55,3.7 l -1.8,0.05 q -1.25,3.15 -3.6,4.7 M 29.1,28.9 Q 28.4,23.2 25.9,15.25 L 22.7,4.9 l 0.05,1 1,7.8 q 0.65,4.7 0.7,7.75 0,5.15 -1.6,12.25 2.85,-0.65 5.95,-0.75 L 29.5,33 29.25,30.6 29.1,28.9 M -5.3,11.8 -6.55,9.8 Q -8.35,7 -11.35,3.2 l -5.05,-6.4 -3.35,-4.9 -1,-1.85 q -1.2,-2.5 -1.65,-4.8 l -0.25,-2.75 -0.8,2.95 q -0.9,4.1 -0.3,8.25 l 0.55,2.7 q 0.5,1.9 1.8,5.1 l 1.95,5.1 q 1.8,5.4 2.15,13.5 0.2,3.05 0.05,5.25 -0.1,2.55 -0.55,5 l -0.6,2.7 -1.35,4.05 -2,4.05 q 8,1.05 15.85,-0.2 1.45,-0.2 2.25,-0.7 1,-0.65 1.6,-1.95 1.05,-2.15 1.25,-6.6 0.3,-4.55 0.1,-6.8 -0.55,-6.3 -4.6,-13.1"
         fill="#000000"
         fill-rule="evenodd"
         stroke="none"
         id="path2" />
      <path
         d="m -15.25,-9.15 0.1,-0.65 -0.25,-1.5 q -1.25,-5.8 2.8,-13.4 l 1.9,-2.85 2.8,-2.45 q 5.8,-4.25 10.1,-5.75 l 1.5,-0.45 h 0.95 l 2.95,0.75 q 1.1,0.6 2.7,2.5 l 2.45,3.35 2.15,4.3 2.5,6.1 2.4,7.65 0.2,0.5 Q 18.3,-0.2 18.85,7.75 l 0.1,1.2 -0.9,-3.45 Q 16.4,-1.1 15.85,-5.95 L 15.35,-14 q -0.3,-5.2 -1,-11.15 -0.2,-1.8 -1.15,-2.15 l -1.05,0.15 -0.75,0.75 q -0.3,0.65 -0.35,1.75 -0.7,1.6 -0.85,4.3 -0.3,4.5 -0.3,9.7 l -0.55,3.4 -0.5,4 Q 8.1,1.7 6.45,4.45 L 5.4,5.75 Q 4.55,6.3 3.8,6.1 L 2.75,5.25 Q 1.7,4.05 0.4,1.35 l -2.25,-4.45 -0.1,-1.05 -1.15,-9.5 -0.7,-4.25 -0.6,-5.75 q -0.3,-1.7 -1.15,-2 l -1.1,0.1 -0.8,0.9 q -0.3,0.6 -0.3,2.3 0.05,3 -0.4,7.75 l -0.6,6.3 q -0.3,3.3 -0.75,4.9 l -0.4,1.4 -3.1,-3.95 -2.25,-3.2 m 39.7,30.6 0.15,0.4 q 1.6,4.75 3.7,6.55 l 0.8,0.5 0.15,1.7 0.25,2.4 -0.7,-0.05 q -3.1,0.1 -5.95,0.75 1.6,-7.1 1.6,-12.25 m -44.2,15.65 q 1.4,0.3 3.75,-0.7 7.15,-3.05 9.65,-7.25 1.65,-2.7 1.95,-6.5 0.25,-2.9 -0.3,-7 L -5.3,11.8 q 4.05,6.8 4.6,13.1 0.2,2.25 -0.1,6.8 -0.2,4.45 -1.25,6.6 -0.6,1.3 -1.6,1.95 -0.8,0.5 -2.25,0.7 -7.85,1.25 -15.85,0.2 l 2,-4.05"
         fill="#a85b5b"
         fill-rule="evenodd"
         stroke="none"
         id="path3" />
      <path
         d="m 18.95,8.95 0.8,7.15 q 0.5,4.95 0.2,8.3 l -0.1,1.05 -1,0.05 -2.45,0.45 -0.45,-5.85 -0.8,-7.05 Q 12.9,-6.7 12.45,-25.15 L 12.2,-25.8 q -0.45,-0.25 -0.8,0.45 l -0.35,0.7 q 0.05,-1.1 0.35,-1.75 l 0.75,-0.75 1.05,-0.15 q 0.95,0.35 1.15,2.15 0.7,5.95 1,11.15 l 0.5,8.05 q 0.55,4.85 2.2,11.45 l 0.9,3.45 M 9.9,-10.65 q -0.05,6.2 0.4,13.45 l 0.2,2.85 0.05,1.2 L 12,25.9 q 0.2,3.05 -0.4,4.45 -0.75,1.7 -3.1,3.05 -2.05,1.25 -4.5,1.85 l -0.75,0.2 0.4,-5 Q 3.85,25.35 3.2,21.85 2.3,16.5 -1.05,10.55 L -1.2,8.6 -1.3,7.65 V 7.5 L -1.4,6.35 V 4.75 L -1.5,1.55 -1.85,-3.1 0.4,1.35 q 1.3,2.7 2.35,3.9 L 3.8,6.1 Q 4.55,6.3 5.4,5.75 L 6.45,4.45 Q 8.1,1.7 8.85,-3.25 l 0.5,-4 0.55,-3.4 M -3.8,-17.9 -4.9,-23 q -0.25,-0.7 -0.6,-0.65 l -0.4,0.5 q -0.35,1.25 -0.05,4.3 l 0.75,9 q 0.35,5.55 0.4,11.1 V 3.5 4.7 L -7.95,0.45 -9.9,-2 -9.5,-3.4 q 0.45,-1.6 0.75,-4.9 l 0.6,-6.3 q 0.45,-4.75 0.4,-7.75 0,-1.7 0.3,-2.3 l 0.8,-0.9 1.1,-0.1 q 0.85,0.3 1.15,2 l 0.6,5.75"
         fill="#854545"
         fill-rule="evenodd"
         stroke="none"
         id="path4" />
    </g>
    <g
       id="sprite1"
       transform="translate(17.4,15.85)">
      <use
         ffdec:characterId="31"
         height="57.200001"
         transform="matrix(0.5366,0,0,0.5366,-16.6582,-14.546)"
         width="70.75"
         xlink:href="#sprite2"
         id="use4" />
    </g>
    <g
       id="sprite2"
       transform="translate(-8.65,-10.35)">
      <use
         ffdec:characterId="30"
         height="57.200001"
         transform="translate(8.65,10.35)"
         width="70.75"
         xlink:href="#shape1"
         id="use5" />
    </g>
    <g
       id="shape1"
       transform="translate(-8.65,-10.35)">
      <path
         d="m 14.8,41.7 q 0.65,-1.75 2.65,-2.5 1.8,-0.8 3.7,-0.25 1.15,0.45 2.25,1.2 l 0.9,0.4 q 1.65,0.9 2.85,2.5 L 37.8,30.1 q 2.35,-2.8 3.75,-3.95 1.5,-1.15 4.25,-2.4 18.2,-8.85 27.65,-12.6 2.15,-0.8 3.25,-0.8 h 0.8 l 1.9,2.4 -0.2,0.8 q -0.2,1.1 -1.55,3 -5.85,8.25 -18.85,23.8 -1.85,2.35 -3.35,3.5 -1.4,1.15 -4.75,2.75 l -15.15,7.15 q 1.2,1.6 1.75,3.4 l 0.2,1 0.55,2.5 q 0.1,1.95 -1.1,3.55 -1.2,1.65 -3.05,1.9 l -1.3,0.05 q -1.65,0.2 -3.45,-0.65 -1.85,-0.9 -3,-2.6 L 25,60.95 23.8,62.1 q -2.6,2.85 -4.3,3.95 -2.85,1.8 -5.5,1.45 l -1.65,-0.5 -1.2,-0.7 -0.2,-0.2 q -1,-0.85 -1.6,-1.9 L 9.25,64 9.15,63.8 8.75,62.4 q -0.2,-0.8 -0.05,-1.7 0.25,-2.65 2.7,-5.05 1.5,-1.3 4.9,-3.15 L 17.7,51.55 16.05,50 q -1.35,-1.5 -1.8,-3.6 -0.4,-1.85 0.25,-3.45 l 0.3,-1.25"
         fill="#000000"
         fill-opacity="0.372549"
         fill-rule="evenodd"
         stroke="none"
         id="path5" />
    </g>
  </defs>
</svg>
