<?xml version="1.0" encoding="UTF-8" standalone="no"?>
<svg
   ffdec:objectType="frame"
   height="91.814285"
   width="71.150002"
   version="1.1"
   id="svg6"
   xmlns:xlink="http://www.w3.org/1999/xlink"
   xmlns="http://www.w3.org/2000/svg"
   xmlns:svg="http://www.w3.org/2000/svg"
   xmlns:ffdec="https://www.free-decompiler.com/flash">
  <g
     transform="translate(32.35,49.7)"
     id="g1">
    <use
       ffdec:characterId="17"
       height="119.15"
       id="rarity"
       transform="translate(-58.5,-60.65)"
       width="119.15"
       xlink:href="#sprite0" />
    <use
       ffdec:characterId="287"
       height="91.849998"
       transform="translate(-32.35,-49.75)"
       width="71.150002"
       xlink:href="#shape0"
       id="use1" />
  </g>
  <defs
     id="defs6">
    <g
       id="shape0"
       transform="translate(32.05,52.25)">
      <path
         d="m 18.6,-20.9 q 3.2,-0.2 4.6,0.5 1.8,0.85 3.5,4 3.2,5.9 5.85,13.75 1.65,5 4.2,14.35 l 1.4,5 0.8,3.5 q 0.3,1.95 0,3.45 -0.4,1.7 -1.25,2.45 -0.55,0.5 -1.6,0.8 l -1.85,0.35 q -1.6,0.3 -3.7,1.1 L 26.9,29.75 22.35,31.2 8.1,35.45 q -7.95,2.15 -14.5,3.3 l -6,0.8 q -3.25,0.15 -6.05,-0.05 -6.3,-0.45 -10.05,-2.6 -1.85,-0.95 -2.7,-2.35 -0.75,-1.15 -0.85,-2.9 l 0.2,-3.1 q 1.05,-8.5 3.2,-17.85 1.6,-6.9 4.75,-17.8 l 1.5,-5.25 q 0.5,-1.85 1.35,-2.55 0.7,-0.55 2.55,-0.85 l 2.85,-0.65 1.8,-0.45 0.15,-3.1 q 0.95,-4.85 4,-7.65 1.95,-1.75 6.05,-3.35 L -1,-31.9 -1.05,-32.35 -1.9,-39.3 -4.4,-38.75 -6.15,-38.2 -8,-38.35 q -1.35,-0.7 -1.45,-2.8 0,-1.65 1,-2.5 l 2.2,-0.75 3.55,-0.45 -0.25,-1.35 -0.35,-2.45 q 0,-1.35 0.75,-2.25 0.9,-1 3,-1.3 l 2.2,0.15 q 1.15,0.55 1.4,2.1 v 2.65 L 4,-45.8 6.75,-46 l 2.5,0.2 1.85,0.5 q 1.15,0.65 1.25,2 0.15,1.2 -0.75,2.2 -0.7,0.85 -2.15,1.2 l -2.45,0.25 -2.7,0.05 0.5,4.9 0.2,1.65 h 1.2 q 2.5,0.25 4.75,1.45 2.3,1.25 3.75,3.2 1.5,2.05 1.95,4.6 l 0.05,3.05 1.9,-0.15 m -24.8,3.1 6.55,-0.75 4.6,-1.1 5.4,-0.7 1.65,-0.1 -0.05,-1.55 q -0.2,-1.6 -1.15,-2.95 -1,-1.35 -2.45,-2.05 -3,-1.4 -8.35,0.4 -3.35,1.1 -5.1,2.45 -2.55,1.8 -3.15,4.55 -0.15,1.2 0.05,1.95 l 2,-0.15 m 28.1,3.55 -1.05,-1.2 -1.7,-0.2 -4,0.4 -1.2,2.1 q -1.75,2.45 -5.35,4.4 l -0.85,0.7 -0.2,1.25 0.1,2.7 2.45,-1.75 3.45,-2.05 q 2.3,-1.05 6.35,-1.7 l 4.25,-0.3 -2.25,-4.35 m -12.05,-0.4 -25.3,4.3 q -1.3,0.2 -1.75,0.65 l -0.75,1.55 -2.55,9.45 q 3.8,-2.55 6.7,-2.95 2.25,-0.3 6.65,0.7 l 3,0.6 0.05,-4.75 Q -5.7,-5.35 -7.35,-6.25 L -9,-7.65 q -0.75,-1.2 -0.05,-2.1 0.8,-0.95 2.35,-0.55 l 2.4,0.95 2,0.4 q 1.15,0.3 1.6,0.95 0.5,0.65 0.5,2.25 v 5.5 q 1.95,-0.3 4.4,-1.6 L 3.95,-6.3 q -0.1,-2.25 0.4,-3.15 0.55,-0.9 2.25,-1.7 2.3,-1.25 3.5,-2.2 l 1.65,-1.55 -1.9,0.25 M 27.2,-2.25 26.95,-3 26.05,-5.4 H 25.9 25.8 l -3,-0.15 -2.1,0.2 q -2.7,0.35 -5.2,1.5 -1.95,0.9 -6.25,3.8 L 7.85,0.9 8.05,7.1 Q 8.15,8.65 7.7,9.35 7.2,10.2 5.6,10.7 l -6.05,1.45 H -0.6 L -2.9,11.9 -3.3,11.6 Q -3.8,11.05 -3.9,9.65 L -4.15,4.1 -4.5,4.05 -8.7,2.95 q -2.55,-0.7 -4.25,-0.65 -3.8,0.1 -8.75,3.85 h -0.05 l -0.05,0.05 -1.1,4.45 -1.6,7.5 -0.95,5.25 -0.9,6.3 q -0.1,1.4 0.25,1.9 0.35,0.55 1.45,0.95 5.2,1.9 12,1.5 4.35,-0.2 12.05,-1.95 14.75,-3.35 28.45,-8.3 4.45,-1.5 6.2,-1.85 L 33.05,17.6 29.6,5.15 27.2,-2.25 M -0.2,7.9 Q 2,7.75 4.1,6.9 L 4.25,2.95 2.9,3.45 -0.2,4.15 V 7.9"
         fill="#000000"
         fill-rule="evenodd"
         stroke="none"
         id="path1" />
      <path
         d="m -5.05,-19.95 q -0.85,-0.65 -0.75,-1.7 0,-1.05 0.95,-1.55 l 0.85,-0.4 0.6,-0.55 0.7,-0.35 0.6,-0.2 0.3,-0.4 q 0.25,-0.4 0.85,-0.55 l 1,-0.2 q 1.45,-0.1 2.1,0.4 0.55,0.5 0.65,1.4 0.1,1 -0.55,1.7 l -0.55,0.4 -2.1,1.25 -0.85,0.25 q -0.7,0.45 -1.1,0.6 l -1.1,0.3 H -4.4 l -0.65,-0.4 M 26.8,16.5 q -0.1,-1.1 0.8,-1.75 0.85,-0.65 1.9,-0.35 1.25,0.35 2,2.3 0.55,1.4 0.55,2.35 -0.1,1.4 -1.15,2 -1.15,0.6 -2.1,-0.2 L 28,19.6 27.35,18.35 Q 26.8,17.05 26.8,16.5 M -13.55,-3.45 q -0.8,0.3 -1.65,0 -0.85,-0.3 -1.3,-1 -0.45,-0.65 -0.45,-1.55 0.05,-0.9 0.5,-1.6 l 1.15,-1.1 q 1.75,-1.35 3,-0.85 l 1.1,0.95 q 0.35,0.65 0.3,1.45 -0.05,1.35 -1.2,2.65 -0.7,0.8 -1.45,1.05 m -6.75,12.8 0.85,-0.2 q 0.5,0.05 0.85,0.35 0.65,0.5 0.55,1.35 0,0.65 -0.55,1.05 -0.55,0.45 -1.2,0.3 l -0.6,-0.35 -0.6,-0.8 0.05,-0.9 0.2,-0.35 0.45,-0.45"
         fill="#ffffff"
         fill-rule="evenodd"
         stroke="none"
         id="path2" />
      <path
         d="m -25.45,23.4 0.95,-5.25 1.6,-7.5 1.1,-4.45 0.05,-0.05 h 0.05 q 4.95,-3.75 8.75,-3.85 1.7,-0.05 4.25,0.65 l 4.2,1.1 0.35,0.05 0.25,5.55 q 0.1,1.4 0.6,1.95 l 0.4,0.3 2.3,0.25 h 0.15 L 5.6,10.7 Q 7.2,10.2 7.7,9.35 8.15,8.65 8.05,7.1 l -0.2,-6.2 1.4,-0.95 q 4.3,-2.9 6.25,-3.8 2.5,-1.15 5.2,-1.5 l 2.1,-0.2 3,0.15 h 0.1 0.15 l 0.9,2.4 0.25,0.75 q -0.25,2.4 -1.1,5 -1,3.3 -3.15,7.6 -2,3.85 -3.85,5.3 l -2.85,1.6 Q 13,18.7 10.65,19.05 L 6.5,18.95 3.75,18.9 q -0.7,0.25 -2,1.65 l -3.2,3.15 q -5.15,4 -13.8,3.75 -3.85,-0.1 -6.3,-1.15 -2.1,-0.9 -3.65,-2.6 l -0.25,-0.3 M -0.2,7.9 V 4.15 L 2.9,3.45 4.25,2.95 4.1,6.9 Q 2,7.75 -0.2,7.9 m -20.1,1.45 -0.45,0.45 -0.2,0.35 -0.05,0.9 0.6,0.8 0.6,0.35 q 0.65,0.15 1.2,-0.3 0.55,-0.4 0.55,-1.05 0.1,-0.85 -0.55,-1.35 -0.35,-0.3 -0.85,-0.35 l -0.85,0.2"
         fill="#9aafb1"
         fill-rule="evenodd"
         stroke="none"
         id="path3" />
      <path
         d="m -25.45,23.4 0.25,0.3 q 1.55,1.7 3.65,2.6 2.45,1.05 6.3,1.15 8.65,0.25 13.8,-3.75 l 3.2,-3.15 q 1.3,-1.4 2,-1.65 l 2.75,0.05 4.15,0.1 q 2.35,-0.35 5.6,-1.8 l 2.85,-1.6 q 1.85,-1.45 3.85,-5.3 2.15,-4.3 3.15,-7.6 0.85,-2.6 1.1,-5 l 2.4,7.4 3.45,12.45 1,4.35 q -1.75,0.35 -6.2,1.85 -13.7,4.95 -28.45,8.3 -7.7,1.75 -12.05,1.95 -6.8,0.4 -12,-1.5 -1.1,-0.4 -1.45,-0.95 -0.35,-0.5 -0.25,-1.9 l 0.9,-6.3 M 26.8,16.5 q 0,0.55 0.55,1.85 l 0.65,1.25 0.8,1.25 q 0.95,0.8 2.1,0.2 1.05,-0.6 1.15,-2 0,-0.95 -0.55,-2.35 -0.75,-1.95 -2,-2.3 -1.05,-0.3 -1.9,0.35 -0.9,0.65 -0.8,1.75"
         fill="#8b9ea0"
         fill-rule="evenodd"
         stroke="none"
         id="path4" />
      <path
         d="m -5.05,-19.95 0.65,0.4 h 0.95 l 1.1,-0.3 q 0.4,-0.15 1.1,-0.6 l 0.85,-0.25 2.1,-1.25 0.55,-0.4 q 0.65,-0.7 0.55,-1.7 -0.1,-0.9 -0.65,-1.4 -0.65,-0.5 -2.1,-0.4 l -1,0.2 q -0.6,0.15 -0.85,0.55 l -0.3,0.4 -0.6,0.2 -0.7,0.35 -0.6,0.55 -0.85,0.4 q -0.95,0.5 -0.95,1.55 -0.1,1.05 0.75,1.7 m 14.9,5.3 1.9,-0.25 -1.65,1.55 q -1.2,0.95 -3.5,2.2 -1.7,0.8 -2.25,1.7 -0.5,0.9 -0.4,3.15 l 0.25,4.45 q -2.45,1.3 -4.4,1.6 v -5.5 q 0,-1.6 -0.5,-2.25 -0.45,-0.65 -1.6,-0.95 l -2,-0.4 -2.4,-0.95 q -1.55,-0.4 -2.35,0.55 -0.7,0.9 0.05,2.1 l 1.65,1.4 q 1.65,0.9 3.25,1.15 l -0.05,4.75 -3,-0.6 q -4.4,-1 -6.65,-0.7 -2.9,0.4 -6.7,2.95 l 2.55,-9.45 0.75,-1.55 q 0.45,-0.45 1.75,-0.65 l 25.3,-4.3 m 12.05,0.4 2.25,4.35 -4.25,0.3 q -4.05,0.65 -6.35,1.7 l -3.45,2.05 -2.45,1.75 -0.1,-2.7 0.2,-1.25 0.85,-0.7 q 3.6,-1.95 5.35,-4.4 l 1.2,-2.1 4,-0.4 1.7,0.2 1.05,1.2 m -28.1,-3.55 -2,0.15 q -0.2,-0.75 -0.05,-1.95 0.6,-2.75 3.15,-4.55 1.75,-1.35 5.1,-2.45 5.35,-1.8 8.35,-0.4 1.45,0.7 2.45,2.05 0.95,1.35 1.15,2.95 l 0.05,1.55 -1.65,0.1 -5.4,0.7 -4.6,1.1 -6.55,0.75 m -7.35,14.35 q 0.75,-0.25 1.45,-1.05 1.15,-1.3 1.2,-2.65 0.05,-0.8 -0.3,-1.45 l -1.1,-0.95 q -1.25,-0.5 -3,0.85 l -1.15,1.1 q -0.45,0.7 -0.5,1.6 0,0.9 0.45,1.55 0.45,0.7 1.3,1 0.85,0.3 1.65,0"
         fill="#ffffff"
         fill-opacity="0"
         fill-rule="evenodd"
         stroke="none"
         id="path5" />
    </g>
    <g
       id="sprite1"
       transform="translate(17.4,15.85)">
      <use
         ffdec:characterId="31"
         height="57.200001"
         transform="matrix(0.5366,0,0,0.5366,-16.6582,-14.546)"
         width="70.75"
         xlink:href="#sprite2"
         id="use5" />
    </g>
    <g
       id="sprite2"
       transform="translate(-8.65,-10.35)">
      <use
         ffdec:characterId="30"
         height="57.200001"
         transform="translate(8.65,10.35)"
         width="70.75"
         xlink:href="#shape1"
         id="use6" />
    </g>
    <g
       id="shape1"
       transform="translate(-8.65,-10.35)">
      <path
         d="m 14.8,41.7 q 0.65,-1.75 2.65,-2.5 1.8,-0.8 3.7,-0.25 1.15,0.45 2.25,1.2 l 0.9,0.4 q 1.65,0.9 2.85,2.5 L 37.8,30.1 q 2.35,-2.8 3.75,-3.95 1.5,-1.15 4.25,-2.4 18.2,-8.85 27.65,-12.6 2.15,-0.8 3.25,-0.8 h 0.8 l 1.9,2.4 -0.2,0.8 q -0.2,1.1 -1.55,3 -5.85,8.25 -18.85,23.8 -1.85,2.35 -3.35,3.5 -1.4,1.15 -4.75,2.75 l -15.15,7.15 q 1.2,1.6 1.75,3.4 l 0.2,1 0.55,2.5 q 0.1,1.95 -1.1,3.55 -1.2,1.65 -3.05,1.9 l -1.3,0.05 q -1.65,0.2 -3.45,-0.65 -1.85,-0.9 -3,-2.6 L 25,60.95 23.8,62.1 q -2.6,2.85 -4.3,3.95 -2.85,1.8 -5.5,1.45 l -1.65,-0.5 -1.2,-0.7 -0.2,-0.2 q -1,-0.85 -1.6,-1.9 L 9.25,64 9.15,63.8 8.75,62.4 q -0.2,-0.8 -0.05,-1.7 0.25,-2.65 2.7,-5.05 1.5,-1.3 4.9,-3.15 L 17.7,51.55 16.05,50 q -1.35,-1.5 -1.8,-3.6 -0.4,-1.85 0.25,-3.45 l 0.3,-1.25"
         fill="#000000"
         fill-opacity="0.372549"
         fill-rule="evenodd"
         stroke="none"
         id="path6" />
    </g>
  </defs>
</svg>
