<?xml version="1.0" encoding="UTF-8" standalone="no"?>
<svg
   ffdec:objectType="frame"
   height="80.945221"
   width="88.751617"
   version="1.1"
   id="svg5"
   xmlns:xlink="http://www.w3.org/1999/xlink"
   xmlns="http://www.w3.org/2000/svg"
   xmlns:svg="http://www.w3.org/2000/svg"
   xmlns:ffdec="https://www.free-decompiler.com/flash">
  <g
     transform="translate(42.709247,36.652609)"
     id="g1">
    <use
       ffdec:characterId="17"
       height="119.15"
       id="rarity"
       transform="translate(-58.5,-60.65)"
       width="119.15"
       xlink:href="#sprite0" />
    <use
       ffdec:characterId="977"
       height="80.949997"
       transform="translate(-42.7,-36.65)"
       width="88.75"
       xlink:href="#shape0"
       id="use1" />
  </g>
  <defs
     id="defs5">
    <g
       id="shape0"
       transform="translate(89.5,38)">
      <path
         d="m -36.25,-33.95 q 8.95,-0.8 17.5,1.55 2.65,0.75 4.9,2.4 4.35,0.3 7.25,4 7.45,9.55 5.4,21.85 -2.5,15.1 -17.25,21.2 -16.4,6.75 -34.05,2.5 l -6.3,-1.4 q -2.15,-0.45 -4.05,-1.2 -0.2,1.2 -0.75,2.45 -0.75,1.7 -2.1,2.95 -2.05,2.75 -4.8,4.95 l -0.5,0.6 q 6.65,0.35 13.55,-2.6 3.1,-1.35 3.1,1.9 -0.05,2.95 -1.55,5.6 -6.25,10.8 -19.15,10.1 l -0.9,-0.2 q -8.7,-3.65 -12.2,-12.6 -3.15,-8 1,-15.75 1.45,-2.7 2.5,-5.6 Q -84.6,7.2 -85,5.7 L -85.8,2.5 V 2.3 q -1.75,-2.9 -2.7,-6 -0.65,-2.1 -0.5,-4.3 l 0.4,-1.5 q 1.65,-8.95 8.8,-14.9 7.45,-6.25 16.95,-7.45 h 0.35 l 2,-2.55 q 3.1,-3.15 7.5,-3.55 6.75,-0.55 10.75,4.65 l 6,-0.65 m -42.3,28.25 q -2.85,-2.95 -3.85,-6.35 l -1.05,2.65 q -0.5,5.25 2.25,10.05 0.7,1.1 0.95,2.4 1.9,8.4 -2.6,16 -1.05,1.75 -1.4,3.7 -0.05,0.55 0.5,0.85 l 0.9,0.9 0.4,0.2 q 3.75,1.9 7.65,2.7 l 0.1,-1.55 q 5.15,-4.5 7.05,-10.6 l 0.2,-0.85 Q -71.25,11.65 -73.6,7.25 -75.1,4.4 -75.65,1.2 l -0.6,-4.55 Q -77.7,-4 -78.5,-5.65 l -0.05,-0.05 m 25.6,-27.55 q -4.1,1 -5.9,4.95 l 0.1,0.25 q 5.4,-2.7 11.1,-4.15 -2.3,-1.8 -5.3,-1.05 m -11,6.35 v -0.15 l -0.25,0.05 -1.6,0.4 q -2.15,0.45 -4.1,1.45 -5.4,2.8 -8.9,7.15 v 2.35 1.5 l 0.25,0.65 0.15,0.45 0.2,0.65 0.65,1.4 0.15,0.5 0.25,0.85 0.55,0.7 v -2.55 q 0.1,-2.65 1.75,-4.8 3.3,-4.25 7.9,-7.15 l 1.3,-0.75 0.3,-0.2 1.75,-1 -0.35,-1.5 M -68.9,-8 q 2.35,2.55 5.5,3.85 4.3,-5.2 9.75,-8.45 l 1.4,-2.15 2.55,-4.05 0.2,-0.2 0.25,-0.2 0.4,-0.45 0.15,-0.2 -3.95,0.8 q -1.95,0.5 -3.15,-0.55 l -0.6,-0.7 q 0.4,-4.05 5.7,-3.4 l 3.6,0.15 1.1,-0.1 0.25,-0.3 2.6,-3.2 q -9.25,1.9 -17.45,6.9 -5.25,3.25 -9.3,7.7 l -1.15,1.7 2.15,2.85 m 12.35,5.2 q 3.1,0.1 6.15,-0.05 l 2.55,-2.25 q 0.85,-0.65 1.2,-1.7 l 0.55,-1.7 -0.2,-1.2 -2.1,0.8 q -5.3,2.15 -9.35,6.05 l 1.2,0.05 m 39.25,-9.9 -0.15,-0.1 q -13.25,-1.8 -25.7,2.05 1.5,3.8 -0.7,7.3 14.25,-1.95 27.05,-9.05 l -0.5,-0.2 M -26.6,-1 q -4.6,1.25 -6.85,5.4 l -0.85,1.5 -0.65,1 v 0.2 0.2 0.25 0.2 0.2 l 0.7,1 q 0.85,0.9 1.95,1.6 l 1.6,0.2 1.75,0.5 Q -25.1,10.5 -22.3,7.7 l 1.45,-1.65 V 5.8 l 0.15,-0.4 0.2,-0.45 0.2,-0.4 V 3.9 2.8 2.5 1.3 L -20.4,1.1 -20.75,0.7 -21,0.45 -21.15,0.3 Q -22.25,0.1 -23.2,-0.5 -23.9,-1 -24.9,-1 l -0.1,0.15 -0.1,0.05 -0.3,0.1 -0.35,-0.05 L -26.6,-1 M -6.25,-8.55 -6.3,-9.3 -6.85,-15.15 q -0.05,-0.5 -0.3,-0.35 -3.5,8.7 -12.9,11.7 l -0.45,0.15 q 3.2,1.75 3.75,4.85 0.35,1.85 -0.3,4.25 -1.1,4.15 -4.3,6.6 7,-3.2 12.1,-9.4 0.85,-1.05 1.4,-2.35 l 0.5,-0.85 q 1.3,-3.9 1.1,-8 m -32.4,15.2 0.15,-1.05 q 0.65,-2.85 2.65,-4.9 -7.65,1.65 -15.4,1.7 l -4.7,-0.1 -1.75,-0.1 q -6.9,-0.55 -12.3,-4.45 -0.05,3.15 1,5.65 1.45,3.5 5.05,5.85 6.6,4.2 14.5,4.9 l 4.05,0.55 q 7.1,1.25 14,0.25 -3.8,-0.7 -6.4,-4.8 -1,-1.6 -0.85,-3.5 m -43,24.5 q 2.2,3.55 5.75,5.7 l 2.6,1.3 h 2.3 q 6,-1.4 10.1,-5.9 l 0.35,-0.55 q -10.5,1.75 -21.1,-0.55"
         fill="#000000"
         fill-rule="evenodd"
         stroke="none"
         id="path1" />
      <path
         d="m -26.6,-1 0.85,0.25 0.35,0.05 0.3,-0.1 0.1,-0.05 0.1,-0.15 q 1,0 1.7,0.5 0.95,0.6 2.05,0.8 l 0.15,0.15 0.25,0.25 0.35,0.4 0.1,0.2 v 1.2 0.3 1.1 0.65 l -0.2,0.4 -0.2,0.45 -0.15,0.4 V 6.05 L -22.3,7.7 q -2.8,2.8 -6.65,3.55 l -1.75,-0.5 -1.6,-0.2 q -1.1,-0.7 -1.95,-1.6 l -0.7,-1 V 7.75 7.55 7.3 7.1 6.9 l 0.65,-1 0.85,-1.5 Q -31.2,0.25 -26.6,-1"
         fill="#894949"
         fill-rule="evenodd"
         stroke="none"
         id="path2" />
      <path
         d="m -82.45,24.7 -0.4,-0.2 -0.9,-0.9 q -0.55,-0.3 -0.5,-0.85 0.35,-1.95 1.4,-3.7 4.5,-7.6 2.6,-16 -0.25,-1.3 -0.95,-2.4 -2.75,-4.8 -2.25,-10.05 l 1.05,-2.65 q 1,3.4 3.85,6.35 l 0.1,3.1 q 3.7,8.65 0.8,17.7 -1.65,5.3 -4.8,9.6 m 29.5,-57.95 q 3,-0.75 5.3,1.05 -5.7,1.45 -11.1,4.15 l -0.1,-0.25 q 1.8,-3.95 5.9,-4.95 m -11.25,6.25 0.25,0.1 0.35,1.5 -1.75,1 -0.3,0.2 q -8.95,3.95 -11.9,13.2 l -0.65,-1.4 -0.2,-0.65 -0.15,-0.45 -0.25,-0.65 v -1.5 -2.35 q 3.5,-4.35 8.9,-7.15 1.95,-1 4.1,-1.45 l 1.6,-0.4 m 8.4,7.4 q -3.7,2.15 -7,5.15 -3,2.65 -5.5,5.8 l -0.6,0.65 -2.15,-2.85 1.15,-1.7 q 4.05,-4.45 9.3,-7.7 8.2,-5 17.45,-6.9 l -2.6,3.2 -1.35,0.4 -3.6,-0.15 q -5.3,-0.65 -5.7,3.4 l 0.6,0.7 m 39.05,20.8 q -0.55,-3.1 -3.75,-4.85 l 0.45,-0.15 q 9.4,-3 12.9,-11.7 0.25,-0.15 0.3,0.35 l 0.55,5.85 0.05,0.75 Q -9.7,-2 -16.75,1.2 M -69,3.4 q -1.05,-2.5 -1,-5.65 5.4,3.9 12.3,4.45 l 1.75,0.1 4.7,0.1 q 7.75,-0.05 15.4,-1.7 -2,2.05 -2.65,4.9 l -0.15,1.05 q -15.65,2 -29.95,-3.1 L -69,3.4"
         fill="#3e3e3e"
         fill-rule="evenodd"
         stroke="none"
         id="path3" />
      <path
         d="m -82.45,24.7 q 3.15,-4.3 4.8,-9.6 2.9,-9.05 -0.8,-17.7 l -0.1,-3.1 0.05,0.05 q 0.8,1.65 2.25,2.3 l 0.6,4.55 q 0.55,3.2 2.05,6.05 2.35,4.4 6.15,7.15 l -0.2,0.85 q -1.9,6.1 -7.05,10.6 l -0.1,1.55 q -3.9,-0.8 -7.65,-2.7 m 4.9,-35.7 q 2.95,-9.25 11.9,-13.2 l -1.3,0.75 q -4.6,2.9 -7.9,7.15 -1.65,2.15 -1.75,4.8 v 2.55 l -0.55,-0.7 -0.25,-0.85 -0.15,-0.5 m 8.65,3 0.6,-0.65 q 2.5,-3.15 5.5,-5.8 3.3,-3 7,-5.15 1.2,1.05 3.15,0.55 l 3.95,-0.8 -0.15,0.2 -0.4,0.45 -0.25,0.2 -0.2,0.2 -2.55,4.05 -1.4,2.15 q -5.45,3.25 -9.75,8.45 -3.15,-1.3 -5.5,-3.85 m 12.35,5.2 -1.2,-0.05 q 4.05,-3.9 9.35,-6.05 l 2.1,-0.8 0.2,1.2 -0.55,1.7 q -0.35,1.05 -1.2,1.7 l -2.55,2.25 q -3.05,0.15 -6.15,0.05 m 39.8,4 q 7.05,-3.2 10.5,-9.75 0.2,4.1 -1.1,8 l -0.5,0.85 q -0.55,1.3 -1.4,2.35 -5.1,6.2 -12.1,9.4 3.2,-2.45 4.3,-6.6 0.65,-2.4 0.3,-4.25 M -69,3.4 l 0.4,0.15 q 14.3,5.1 29.95,3.1 -0.15,1.9 0.85,3.5 2.6,4.1 6.4,4.8 -6.9,1 -14,-0.25 l -4.05,-0.55 q -7.9,-0.7 -14.5,-4.9 Q -67.55,6.9 -69,3.4 m -12.65,27.75 q 10.6,2.3 21.1,0.55 l -0.35,0.55 q -4.1,4.5 -10.1,5.9 h -2.3 l -2.6,-1.3 q -3.55,-2.15 -5.75,-5.7"
         fill="#252525"
         fill-rule="evenodd"
         stroke="none"
         id="path4" />
    </g>
    <g
       id="sprite1"
       transform="translate(17.4,15.85)">
      <use
         ffdec:characterId="31"
         height="57.200001"
         transform="matrix(0.5366,0,0,0.5366,-16.6582,-14.546)"
         width="70.75"
         xlink:href="#sprite2"
         id="use4" />
    </g>
    <g
       id="sprite2"
       transform="translate(-8.65,-10.35)">
      <use
         ffdec:characterId="30"
         height="57.200001"
         transform="translate(8.65,10.35)"
         width="70.75"
         xlink:href="#shape1"
         id="use5" />
    </g>
    <g
       id="shape1"
       transform="translate(-8.65,-10.35)">
      <path
         d="m 14.8,41.7 q 0.65,-1.75 2.65,-2.5 1.8,-0.8 3.7,-0.25 1.15,0.45 2.25,1.2 l 0.9,0.4 q 1.65,0.9 2.85,2.5 L 37.8,30.1 q 2.35,-2.8 3.75,-3.95 1.5,-1.15 4.25,-2.4 18.2,-8.85 27.65,-12.6 2.15,-0.8 3.25,-0.8 h 0.8 l 1.9,2.4 -0.2,0.8 q -0.2,1.1 -1.55,3 -5.85,8.25 -18.85,23.8 -1.85,2.35 -3.35,3.5 -1.4,1.15 -4.75,2.75 l -15.15,7.15 q 1.2,1.6 1.75,3.4 l 0.2,1 0.55,2.5 q 0.1,1.95 -1.1,3.55 -1.2,1.65 -3.05,1.9 l -1.3,0.05 q -1.65,0.2 -3.45,-0.65 -1.85,-0.9 -3,-2.6 L 25,60.95 23.8,62.1 q -2.6,2.85 -4.3,3.95 -2.85,1.8 -5.5,1.45 l -1.65,-0.5 -1.2,-0.7 -0.2,-0.2 q -1,-0.85 -1.6,-1.9 L 9.25,64 9.15,63.8 8.75,62.4 q -0.2,-0.8 -0.05,-1.7 0.25,-2.65 2.7,-5.05 1.5,-1.3 4.9,-3.15 L 17.7,51.55 16.05,50 q -1.35,-1.5 -1.8,-3.6 -0.4,-1.85 0.25,-3.45 l 0.3,-1.25"
         fill="#000000"
         fill-opacity="0.372549"
         fill-rule="evenodd"
         stroke="none"
         id="path5" />
    </g>
  </defs>
</svg>
