<?xml version="1.0" encoding="UTF-8" standalone="no"?>
<svg
   ffdec:objectType="frame"
   height="63.412113"
   width="64.151878"
   version="1.1"
   id="svg5"
   xmlns:xlink="http://www.w3.org/1999/xlink"
   xmlns="http://www.w3.org/2000/svg"
   xmlns:svg="http://www.w3.org/2000/svg"
   xmlns:ffdec="https://www.free-decompiler.com/flash">
  <g
     transform="translate(33.957143,31.05)"
     id="g1">
    <use
       ffdec:characterId="17"
       height="119.15"
       id="rarity"
       transform="translate(-58.5,-60.65)"
       width="119.15"
       xlink:href="#sprite0" />
    <use
       ffdec:characterId="1155"
       height="63.400002"
       transform="translate(-33.95,-31.05)"
       width="64.150002"
       xlink:href="#shape0"
       id="use1" />
  </g>
  <defs
     id="defs5">
    <g
       id="shape0"
       transform="translate(32.65,29.15)">
      <path
         d="m 16.15,-29.15 q 3.4,1.4 5.55,4.75 l 2.25,3.5 q 1.65,2.6 2.8,5.5 l 0.65,1.25 0.6,1.85 2.2,6.35 q 0.7,2.35 0.85,4.75 1.3,8 -1.2,15.75 -1.15,3.65 -3.1,6.95 -3.55,5.85 -10.05,8.6 l -3.3,1.3 q -13.85,4.8 -28.3,1.55 -7.1,-1.65 -11.4,-7.4 -4.1,-5.45 -5.25,-12.2 -0.5,-2.75 -0.5,-5.55 -0.1,-4.25 -0.35,-8.35 -0.3,-4.5 -0.25,-9 0.1,-3.25 1.8,-5.85 1.7,-2.7 4.75,-3.45 3.4,-0.85 6.7,-2.1 2.75,-1.05 5.6,-1.45 1.45,-0.2 2.2,1.1 0.5,0.85 0.5,1.7 0.35,1.45 0.05,3.1 -0.25,1.2 -0.65,2.3 l -0.05,0.65 -0.35,1.15 0.05,1.45 q 0,0.85 -0.3,1.65 l -0.15,0.95 q 0.3,2.5 0.95,4.9 l 0.9,2.6 Q -8.5,4.5 -2.95,5.65 2,6.7 4.2,2.35 7.3,-3.7 5.35,-10.35 l -0.5,-1.9 q -2.05,-4.95 -3.8,-9.9 -0.35,-0.95 0.5,-1.55 3.9,-2.75 8.7,-3.85 l 3.95,-1.25 1.95,-0.35 m -7.35,11.8 1.55,4.6 q 4.8,-1.75 9.8,-3.15 l -0.85,-1.5 q -1.8,-3.2 -4.3,-5.55 -1.3,0.55 -2.6,1 l -3.1,0.95 -0.65,0.2 -0.35,0.15 -0.85,0.3 0.3,0.6 0.1,0.2 0.95,2.2 m 3.55,6.4 -1.5,0.3 0.7,5.15 Q 11.8,-2.45 11.2,0.2 10.7,2.4 9.7,4.3 L 8.05,6.7 Q 6.5,8.65 4.2,10.25 L 3,10.95 1.9,11.35 0.5,11.6 Q -5.2,12.15 -9.75,8.9 -11.4,7.7 -12.45,6.1 L -14,3.45 -14.15,3.25 -14.6,2.2 -15.25,0.65 -15.8,-1.1 l -0.3,-1.15 -0.1,-0.5 -0.25,-1.45 -0.1,-0.6 -0.15,0.1 -1.1,0.35 -0.7,0.2 -3.3,0.3 -1.45,0.2 -4.05,1.15 0.1,5 0.6,5.9 0.65,4.55 q 1.8,10.45 11.5,14.35 4.15,1.7 8.7,1.75 7.1,0.05 14,-1.7 8,-2 13.1,-8 l 1.9,-2.6 0.2,-0.8 0.2,-0.8 0.3,-0.65 0.05,-0.35 0.2,-0.65 0.2,-0.3 Q 26.85,6.15 25.45,-1.15 24.45,-6.2 22.6,-11 l -1.25,-2.6 q -4.35,1.65 -9,2.65 m -35.25,-2.45 -2.9,0.85 q -0.6,0.15 -1.05,0.7 l -0.25,3.5 -0.2,4.15 1.3,-0.4 q 4.5,-1.9 9.3,-2.95 l 0.2,-3.45 0.65,-4.75 q -3.55,1.25 -7.05,2.35"
         fill="#000000"
         fill-rule="evenodd"
         stroke="none"
         id="path1" />
      <path
         d="m 12.4,-21.95 -0.1,0.45 -2.95,3.6 -0.55,0.55 -0.95,-2.2 -0.1,-0.2 -0.3,-0.6 0.85,-0.3 0.35,-0.15 0.65,-0.2 3.1,-0.95 M 11.2,0.2 q 0.6,-2.65 0.35,-5.7 l -0.7,-5.15 1.5,-0.3 q 0.7,3.05 0.55,6.45 -0.05,1.5 -0.95,2.75 L 11.2,0.2 m -29.7,-4.35 0.7,-0.2 1.1,-0.35 0.15,-0.1 0.1,0.6 0.25,1.45 0.1,0.5 0.3,1.15 0.55,1.75 0.65,1.55 0.45,1.05 0.15,0.2 1.55,2.65 q 1.05,1.6 2.7,2.8 4.55,3.25 10.25,2.7 L 1.9,11.35 3,10.95 4.2,10.25 Q 6.5,8.65 8.05,6.7 L 9.7,4.3 Q 9.75,6.85 8.15,9.4 l -1.5,1.7 h 0.1 l -0.15,0.15 -0.4,0.5 q -4.15,2.15 -8.65,1.3 l -5.4,-1.3 Q -12.6,10.2 -15.45,5.9 l -2.1,-3.4 Q -18.6,0.3 -18.7,-2.1 l 0.1,-1.95 0.1,-0.1 m -8.6,-4.2 0.25,-3.5 q 0.45,-0.55 1.05,-0.7 l 2.9,-0.85 q -1.45,2.15 -3.3,4.05 l -0.9,1"
         fill="#ffffff"
         fill-rule="evenodd"
         stroke="none"
         id="path2" />
      <path
         d="m 12.4,-21.95 q 1.3,-0.45 2.6,-1 2.5,2.35 4.3,5.55 l 0.85,1.5 q -5,1.4 -9.8,3.15 l -1.55,-4.6 0.55,-0.55 2.95,-3.6 0.1,-0.45 m -39.5,13.6 0.9,-1 q 1.85,-1.9 3.3,-4.05 3.5,-1.1 7.05,-2.35 l -0.65,4.75 -0.2,3.45 q -4.8,1.05 -9.3,2.95 l -1.3,0.4 0.2,-4.15"
         fill="#4a4a4a"
         fill-rule="evenodd"
         stroke="none"
         id="path3" />
      <path
         d="m 11.2,0.2 0.75,-1.95 q 0.9,-1.25 0.95,-2.75 0.15,-3.4 -0.55,-6.45 4.65,-1 9,-2.65 l 1.25,2.6 q 1.85,4.8 2.85,9.85 1.4,7.3 -1.05,14.35 l -0.2,0.3 -0.2,0.65 -0.05,0.35 -0.3,0.65 -0.2,0.8 -0.2,0.8 -1.9,2.6 q -5.1,6 -13.1,8 -6.9,1.75 -14,1.7 -4.55,-0.05 -8.7,-1.75 -9.7,-3.9 -11.5,-14.35 l -0.65,-4.55 -0.6,-5.9 -0.1,-5 4.05,-1.15 1.45,-0.2 3.3,-0.3 -0.1,0.1 -0.1,1.95 q 0.1,2.4 1.15,4.6 l 2.1,3.4 q 2.85,4.3 7.6,5.85 l 5.4,1.3 q 4.5,0.85 8.65,-1.3 l 0.4,-0.5 0.15,-0.15 h -0.1 l 1.5,-1.7 q 1.6,-2.55 1.55,-5.1 1,-1.9 1.5,-4.1"
         fill="#a26969"
         fill-rule="evenodd"
         stroke="none"
         id="path4" />
    </g>
    <g
       id="sprite1"
       transform="translate(17.4,15.85)">
      <use
         ffdec:characterId="31"
         height="57.200001"
         transform="matrix(0.5366,0,0,0.5366,-16.6582,-14.546)"
         width="70.75"
         xlink:href="#sprite2"
         id="use4" />
    </g>
    <g
       id="sprite2"
       transform="translate(-8.65,-10.35)">
      <use
         ffdec:characterId="30"
         height="57.200001"
         transform="translate(8.65,10.35)"
         width="70.75"
         xlink:href="#shape1"
         id="use5" />
    </g>
    <g
       id="shape1"
       transform="translate(-8.65,-10.35)">
      <path
         d="m 14.8,41.7 q 0.65,-1.75 2.65,-2.5 1.8,-0.8 3.7,-0.25 1.15,0.45 2.25,1.2 l 0.9,0.4 q 1.65,0.9 2.85,2.5 L 37.8,30.1 q 2.35,-2.8 3.75,-3.95 1.5,-1.15 4.25,-2.4 18.2,-8.85 27.65,-12.6 2.15,-0.8 3.25,-0.8 h 0.8 l 1.9,2.4 -0.2,0.8 q -0.2,1.1 -1.55,3 -5.85,8.25 -18.85,23.8 -1.85,2.35 -3.35,3.5 -1.4,1.15 -4.75,2.75 l -15.15,7.15 q 1.2,1.6 1.75,3.4 l 0.2,1 0.55,2.5 q 0.1,1.95 -1.1,3.55 -1.2,1.65 -3.05,1.9 l -1.3,0.05 q -1.65,0.2 -3.45,-0.65 -1.85,-0.9 -3,-2.6 L 25,60.95 23.8,62.1 q -2.6,2.85 -4.3,3.95 -2.85,1.8 -5.5,1.45 l -1.65,-0.5 -1.2,-0.7 -0.2,-0.2 q -1,-0.85 -1.6,-1.9 L 9.25,64 9.15,63.8 8.75,62.4 q -0.2,-0.8 -0.05,-1.7 0.25,-2.65 2.7,-5.05 1.5,-1.3 4.9,-3.15 L 17.7,51.55 16.05,50 q -1.35,-1.5 -1.8,-3.6 -0.4,-1.85 0.25,-3.45 l 0.3,-1.25"
         fill="#000000"
         fill-opacity="0.372549"
         fill-rule="evenodd"
         stroke="none"
         id="path5" />
    </g>
  </defs>
</svg>
