<?xml version="1.0" encoding="UTF-8" standalone="no"?>
<svg
   ffdec:objectType="frame"
   height="52.11359"
   width="61.480553"
   version="1.1"
   id="svg4"
   xmlns:xlink="http://www.w3.org/1999/xlink"
   xmlns="http://www.w3.org/2000/svg"
   xmlns:svg="http://www.w3.org/2000/svg"
   xmlns:ffdec="https://www.free-decompiler.com/flash">
  <g
     transform="translate(32.480769,28.95)"
     id="g1">
    <use
       ffdec:characterId="17"
       height="119.15"
       id="rarity"
       transform="translate(-58.5,-60.65)"
       width="119.15"
       xlink:href="#sprite0" />
    <use
       ffdec:characterId="970"
       height="52.099998"
       transform="translate(-32.5,-28.95)"
       width="61.5"
       xlink:href="#shape0"
       id="use1" />
  </g>
  <defs
     id="defs4">
    <g
       id="shape0"
       transform="translate(79.3,30.3)">
      <path
         d="m -22.9,-7.85 q 0.45,-8.05 -5.35,-14.35 -3.5,-3.8 -8.45,-2.3 -6.7,2 -8.75,8.45 0.5,6.75 2.9,13.2 1.4,3.8 0.7,7.8 -1.05,5.75 -6.6,6.1 h -0.75 l -0.4,-0.25 -0.1,-0.2 -0.05,-0.2 0.05,-0.2 V 9.95 l 0.3,-0.35 0.05,-0.1 1.45,-1.8 0.25,-0.3 q 0.95,-1.3 1,-2.85 -5.25,2.8 -11.15,-0.65 -0.95,-0.6 -2.1,-0.8 -9.15,-1.8 -12.85,5.45 l -0.85,1.9 v 0.25 0.2 0.4 l -0.05,0.45 -0.1,0.45 -0.05,0.2 0.05,0.2 v 0.25 l 0.1,0.4 0.1,0.4 0.25,0.65 0.15,0.25 0.3,0.2 0.4,0.15 0.15,0.05 1.25,-0.05 0.5,-0.7 0.65,-0.85 -0.05,-0.05 -0.3,-1.25 -0.1,-0.65 0.05,-0.2 0.1,-0.45 0.05,-0.2 0.1,-0.45 0.05,-0.2 q 4,-5 8.55,-0.1 2.2,2.35 4.8,4.15 11.45,4.8 22.3,-1.5 4.1,-2.35 6.65,-6.35 2,-3.1 3.2,-6.65 l 0.05,-0.45 0.3,-1.05 0.4,-1.3 0.3,-0.65 Q -23,-6 -22.9,-7.85 M -34.95,-30.3 q 10.55,0.25 14.65,10.15 5.35,12.85 -0.75,25.55 -6.05,12.7 -19.9,15.7 -14.75,3.2 -23.85,-7.95 l -0.15,-0.2 q -0.4,2.2 -2,4.25 -3.8,4.8 -9.3,1.3 -2.75,-1.8 -3,-5.25 -0.2,-2.95 0.9,-5.55 0.55,-2.3 1.95,-4.2 4.05,-5.4 10.7,-6.1 5.95,-0.85 10.95,2 1.7,0.95 2.9,2.5 l 0.5,0.2 0.3,0.15 0.4,-0.05 q 0.9,-0.15 1.65,-0.5 l 1.85,-0.75 q -2.75,-7.55 -3.55,-15.5 -0.55,-5.05 2.85,-8.95 5.15,-6 12.9,-6.8 m -1.95,21.55 -2,-4.4 q -2.45,-2.8 -1.05,-5.9 1.4,-3.05 4.85,-3.4 3.4,0.25 5.4,2.35 l 1.3,1.85 q 0.45,0.85 0.75,1.85 0.65,2.1 1,4.3 l 0.05,0.3 q 0.75,1.45 0.45,3 -0.15,0.9 -0.55,1.65 -0.6,1.1 -1.7,1.8 l -0.9,0.45 q -3.6,1.85 -5.75,-0.35 l -0.25,-0.3 -0.85,-1.35 -0.4,-0.85 V -7.8 l -0.3,-0.85 -0.05,-0.1"
         fill="#000000"
         fill-rule="evenodd"
         stroke="none"
         id="path1" />
      <path
         d="m -48.45,11.05 q 5.55,-0.35 6.6,-6.1 0.7,-4 -0.7,-7.8 -2.4,-6.45 -2.9,-13.2 2.05,-6.45 8.75,-8.45 4.95,-1.5 8.45,2.3 5.8,6.3 5.35,14.35 -0.6,2.45 -1.9,4.8 -2.85,5.05 -7.65,8.25 -6.9,4.6 -15.25,6.05 l -0.7,-0.15 -0.05,-0.05 m -24.3,-2.5 q 3.7,-7.25 12.85,-5.45 1.15,0.2 2.1,0.8 5.9,3.45 11.15,0.65 -0.05,1.55 -1,2.85 l -0.25,0.3 -1.45,1.8 -0.05,0.1 q -6.1,2.05 -12,-2.25 -1.5,-1.15 -3.25,-1.95 -3.05,-0.1 -5.5,1.65 L -72.3,8.6 -72.75,8.55 m 35.9,-17.2 0.3,0.85 v 0.05 l 0.4,0.85 0.85,1.35 0.25,0.3 q 2.15,2.2 5.75,0.35 l 0.9,-0.45 q 1.1,-0.7 1.7,-1.8 0.4,-0.75 0.55,-1.65 0.3,-1.55 -0.45,-3 l -0.05,-0.3 q -0.35,-2.2 -1,-4.3 -0.3,-1 -0.75,-1.85 l -1.3,-1.85 q -2,-2.1 -5.4,-2.35 -3.45,0.35 -4.85,3.4 -1.4,3.1 1.05,5.9 l 2,4.4 -0.05,0.55 0.1,-0.45"
         fill="#846f6f"
         fill-rule="evenodd"
         stroke="none"
         id="path2" />
      <path
         d="m -48.45,11.05 0.05,0.05 0.7,0.15 q 8.35,-1.45 15.25,-6.05 4.8,-3.2 7.65,-8.25 1.3,-2.35 1.9,-4.8 Q -23,-6 -23.45,-4 l -0.3,0.65 -0.4,1.3 -0.3,1.05 -0.05,0.45 q -1.2,3.55 -3.2,6.65 -2.55,4 -6.65,6.35 -10.85,6.3 -22.3,1.5 -2.6,-1.8 -4.8,-4.15 Q -66,4.9 -70,9.9 l -0.05,0.2 -0.1,0.45 -0.05,0.2 -0.1,0.45 -0.05,0.2 0.1,0.65 0.3,1.25 0.05,0.05 -0.65,0.85 -0.5,0.7 -1.25,0.05 -0.15,-0.05 -0.4,-0.15 -0.3,-0.2 -0.15,-0.25 -0.25,-0.65 -0.1,-0.4 -0.1,-0.4 V 12.6 l -0.05,-0.2 0.05,-0.2 0.1,-0.45 0.05,-0.45 v -0.4 -0.2 -0.25 l 0.85,-1.9 0.45,0.05 2.15,-1.55 q 2.45,-1.75 5.5,-1.65 1.75,0.8 3.25,1.95 5.9,4.3 12,2.25 l -0.3,0.35 v 0.25 l -0.05,0.2 0.05,0.2 0.1,0.2 0.4,0.25 h 0.75"
         fill="#756262"
         fill-rule="evenodd"
         stroke="none"
         id="path3" />
    </g>
    <g
       id="sprite1"
       transform="translate(17.4,15.85)">
      <use
         ffdec:characterId="31"
         height="57.200001"
         transform="matrix(0.5366,0,0,0.5366,-16.6582,-14.546)"
         width="70.75"
         xlink:href="#sprite2"
         id="use3" />
    </g>
    <g
       id="sprite2"
       transform="translate(-8.65,-10.35)">
      <use
         ffdec:characterId="30"
         height="57.200001"
         transform="translate(8.65,10.35)"
         width="70.75"
         xlink:href="#shape1"
         id="use4" />
    </g>
    <g
       id="shape1"
       transform="translate(-8.65,-10.35)">
      <path
         d="m 14.8,41.7 q 0.65,-1.75 2.65,-2.5 1.8,-0.8 3.7,-0.25 1.15,0.45 2.25,1.2 l 0.9,0.4 q 1.65,0.9 2.85,2.5 L 37.8,30.1 q 2.35,-2.8 3.75,-3.95 1.5,-1.15 4.25,-2.4 18.2,-8.85 27.65,-12.6 2.15,-0.8 3.25,-0.8 h 0.8 l 1.9,2.4 -0.2,0.8 q -0.2,1.1 -1.55,3 -5.85,8.25 -18.85,23.8 -1.85,2.35 -3.35,3.5 -1.4,1.15 -4.75,2.75 l -15.15,7.15 q 1.2,1.6 1.75,3.4 l 0.2,1 0.55,2.5 q 0.1,1.95 -1.1,3.55 -1.2,1.65 -3.05,1.9 l -1.3,0.05 q -1.65,0.2 -3.45,-0.65 -1.85,-0.9 -3,-2.6 L 25,60.95 23.8,62.1 q -2.6,2.85 -4.3,3.95 -2.85,1.8 -5.5,1.45 l -1.65,-0.5 -1.2,-0.7 -0.2,-0.2 q -1,-0.85 -1.6,-1.9 L 9.25,64 9.15,63.8 8.75,62.4 q -0.2,-0.8 -0.05,-1.7 0.25,-2.65 2.7,-5.05 1.5,-1.3 4.9,-3.15 L 17.7,51.55 16.05,50 q -1.35,-1.5 -1.8,-3.6 -0.4,-1.85 0.25,-3.45 l 0.3,-1.25"
         fill="#000000"
         fill-opacity="0.372549"
         fill-rule="evenodd"
         stroke="none"
         id="path4" />
    </g>
  </defs>
</svg>
