<?xml version="1.0" encoding="UTF-8" standalone="no"?>
<svg
   ffdec:objectType="frame"
   height="78.972412"
   width="74.146812"
   version="1.1"
   id="svg5"
   xmlns:xlink="http://www.w3.org/1999/xlink"
   xmlns="http://www.w3.org/2000/svg"
   xmlns:svg="http://www.w3.org/2000/svg"
   xmlns:ffdec="https://www.free-decompiler.com/flash">
  <g
     transform="translate(38.787719,33.5)"
     id="g1">
    <use
       ffdec:characterId="17"
       height="119.15"
       id="rarity"
       transform="translate(-58.5,-60.65)"
       width="119.15"
       xlink:href="#sprite0" />
    <use
       ffdec:characterId="1259"
       height="79"
       transform="translate(-38.8,-33.55)"
       width="74.150002"
       xlink:href="#shape0"
       id="use1" />
  </g>
  <defs
     id="defs5">
    <g
       id="shape0"
       transform="translate(37.5,31.65)">
      <path
         d="m -10.05,-23 q 5.4,-2.8 9.25,-4.2 9.05,-3.4 23.4,-4.4 l 4.35,0.15 q 2.45,0.5 3.6,2.2 l 0.5,0.9 q 0.3,0.55 0.65,0.75 l 1.5,0.85 q 1.7,0.85 2.4,3.7 0.9,2.8 1.05,6.05 0.1,2.55 -0.9,3.55 -0.8,0.85 -2.95,1.15 l -0.15,0.05 -0.9,0.95 -7.6,6.8 Q 16.85,1.7 9.1,7.05 L 9.25,7.4 q 1.1,2.6 0.85,4.4 -0.25,1.65 -1.5,2.95 l -0.35,0.4 0.55,1.4 2.25,5.4 2.25,5.45 0.45,1.9 q 0.1,1.1 -0.6,1.85 l -1.3,0.9 -1.3,1 -2,0.15 q -1.7,-0.3 -4,-1.75 l -2.6,-1.55 0.1,0.9 0.3,3.85 -0.3,4.65 q -0.1,1.25 -0.4,1.8 -0.3,0.65 -1.6,1.7 -1.4,1.15 -2.45,2.5 -1.2,1.7 -1.95,1.9 -1.2,0.5 -2.15,-0.45 L -7.5,45 q -0.35,-1.1 -2.5,-5.2 -2.25,-4.5 -4.35,-10.75 -0.8,-2.8 -0.7,-4.05 0.05,-1.15 0.8,-3.15 l 1.4,-3.8 q -5.95,2 -10.9,3 l -5.1,0.65 q -1.4,0.1 -2.3,-0.4 l -0.45,-0.35 -0.15,-0.05 q -1.3,-0.4 -2.45,-2.2 -2.6,-4.1 -1.8,-8.9 0.2,-1.45 0.05,-2 l -0.8,-1.3 q -1.45,-2.45 -0.05,-5.85 0.65,-1.6 2.5,-4.15 7.6,-10.2 18.75,-16.6 l 5.5,-2.9 m 19.2,6 -0.45,0.1 H 8.55 q -0.5,0 -0.5,-0.45 l 0.25,-0.4 q 1.25,-1.1 2.55,-1.85 1.05,-0.6 3.8,-1.65 7.25,-2.75 12.3,-3.95 L 26.6,-25.75 Q 26,-26.4 24.5,-26.4 h -1.6 l -6.4,0.55 -6.7,1 -2.3,0.5 -4.3,1.15 -2.2,0.85 -4.7,2.15 -4.75,2.5 -6.6,3.75 -2.8,1.9 q -5.9,4.15 -10.45,9.65 l -3.5,4.7 q -0.5,0.6 -0.4,1.1 l 0.4,0.6 2.1,-2.15 2.45,-2.65 3.9,-3.75 4.35,-3.85 0.65,-0.35 0.6,0.05 0.05,0.1 q 0.35,0.45 -0.25,1.05 L -29.8,7.9 l -0.6,2.35 q -0.45,2.4 0.6,4.5 l 0.15,-0.1 q 4.95,-4.2 13.6,-10.2 l 4.05,-2.8 9.8,-6.4 0.25,-0.2 4.85,-2.9 q 2.9,-1.7 5.6,-3 l 2.9,-1.4 q 10.4,-4.7 19.9,-5.35 l -0.05,-0.95 q -0.25,-1.95 -0.9,-3.8 l -1.1,-0.15 -1.5,0.35 -2.45,0.5 q -5.85,1.2 -9.9,2.85 l -0.7,0.25 q -2.2,1 -3.35,1.2 l -1.7,0.2 -0.45,0.1 L 9.15,-17 M 8.8,-4.95 Q 3.4,-2.1 -6.6,4.4 -17.55,11.55 -23.65,16.45 l 8.45,-2.4 Q -7.25,11.55 -1.35,8.3 2.95,5.8 8.3,1.85 16.3,-3.9 24.6,-10.6 l 0.7,-0.5 Q 17.55,-9.5 8.8,-4.95 M 4.25,11.7 Q 5.3,11.6 5.5,11.15 5.75,10.8 5.45,10.05 L 5.25,9.5 2.95,11 v 1.05 q 0.6,-0.3 1.3,-0.35 m 1.55,15.55 0.75,0.45 1.7,0.95 q 1.05,0.4 1.3,-0.2 L 6,20.05 5.05,17.1 4.95,16.75 4.3,16.95 3.35,18.1 l -0.7,0.85 -1.95,1.4 0.65,4.75 0.2,0.05 q 2.15,0.8 3.35,1.45 l 0.9,0.65 m -8.5,-13.1 -4.45,1.9 0.15,0.7 3.4,-0.35 2.55,-0.65 0.75,-0.65 0.45,-2.45 -2.85,1.5 m -4.35,7.5 -1.25,-0.05 -1.5,-0.5 -0.55,1.4 q -0.55,1.45 -0.55,2.3 l 0.45,2.15 Q -8,34.55 -4.3,41 l 1.5,-1.25 h 0.05 l 0.65,-0.85 0.4,-1.45 q 0.35,-3.2 -0.4,-8.8 L -3.05,21.3 H -3.2 l -2.8,0.3 -1.05,0.05"
         fill="#000000"
         fill-rule="evenodd"
         stroke="none"
         id="path1" />
      <path
         d="m 9.65,-17.15 -0.5,0.15 0.05,-0.05 0.45,-0.1 m -4.45,6.5 -1.6,1.2 q -0.95,0.6 -1.75,0.85 l -2.5,0.3 -2.1,-0.25 q -0.5,-0.15 -1.4,-0.75 -1.7,-1.15 -2.05,-2.7 l -0.05,-1.65 q 0.2,-2.5 1.05,-3.75 l 0.8,-1 q 1.65,-1.7 3.85,-2.4 l 4.5,0.2 q 2,0.9 2.9,2.75 0.9,1.95 0.3,3.9 l -0.55,1.3 -1.4,2"
         fill="#864444"
         fill-rule="evenodd"
         stroke="none"
         id="path2" />
      <path
         d="m 9.65,-17.15 1.7,-0.2 q 1.15,-0.2 3.35,-1.2 l 0.7,-0.25 q 4.05,-1.65 9.9,-2.85 l 2.45,-0.5 1.5,-0.35 1.1,0.15 q 0.65,1.85 0.9,3.8 l 0.05,0.95 q -9.5,0.65 -19.9,5.35 l -2.9,1.4 q -2.7,1.3 -5.6,3 l -4.85,2.9 -0.25,0.2 -9.8,6.4 -4.05,2.8 q -8.65,6 -13.6,10.2 l -0.15,0.1 q -1.05,-2.1 -0.6,-4.5 l 0.6,-2.35 11.85,-15.45 q 0.6,-0.6 0.25,-1.05 l -0.05,-0.1 -0.6,-0.05 -0.65,0.35 -4.35,3.85 -3.9,3.75 -2.45,2.65 -2.1,2.15 -0.4,-0.6 q -0.1,-0.5 0.4,-1.1 l 3.5,-4.7 q 4.55,-5.5 10.45,-9.65 l 2.8,-1.9 6.6,-3.75 4.75,-2.5 4.7,-2.15 2.2,-0.85 4.3,-1.15 2.3,-0.5 6.7,-1 6.4,-0.55 h 1.6 q 1.5,0 2.1,0.65 l 0.35,0.55 q -5.05,1.2 -12.3,3.95 -2.75,1.05 -3.8,1.65 -1.3,0.75 -2.55,1.85 l -0.25,0.4 q 0,0.45 0.5,0.45 H 8.7 l 0.45,-0.1 0.5,-0.15 m -4.45,6.5 1.4,-2 0.55,-1.3 q 0.6,-1.95 -0.3,-3.9 -0.9,-1.85 -2.9,-2.75 l -4.5,-0.2 q -2.2,0.7 -3.85,2.4 l -0.8,1 q -0.85,1.25 -1.05,3.75 L -6.2,-12 q 0.35,1.55 2.05,2.7 0.9,0.6 1.4,0.75 l 2.1,0.25 2.5,-0.3 q 0.8,-0.25 1.75,-0.85 l 1.6,-1.2 m -2.55,29.6 0.7,-0.85 0.95,-1.15 0.65,-0.2 0.1,0.35 0.95,2.95 3.55,8.4 q -0.25,0.6 -1.3,0.2 L 6.55,27.7 5.8,27.25 5.05,25.65 Q 3.45,22.1 3,20.55 l -0.35,-1.6 m -5.4,20.8 H -2.8 L -4.3,41 Q -8,34.55 -10.45,26.95 L -10.9,24.8 q 0,-0.85 0.55,-2.3 l 0.55,-1.4 1.5,0.5 1.25,0.05 -0.65,1.9 q -0.2,1.15 0.25,2.8 l 0.8,2.8 0.35,2.2 1.25,3.2 1.35,2.9 0.95,2.3"
         fill="#d8d8d8"
         fill-rule="evenodd"
         stroke="none"
         id="path3" />
      <path
         d="m 4.25,11.7 q -0.7,0.05 -1.3,0.35 V 11 l 2.3,-1.5 0.2,0.55 Q 5.75,10.8 5.5,11.15 5.3,11.6 4.25,11.7 M 8.8,-4.95 q 8.75,-4.55 16.5,-6.15 l -0.7,0.5 Q 16.3,-3.9 8.3,1.85 2.95,5.8 -1.35,8.3 q -5.9,3.25 -13.85,5.75 l -8.45,2.4 Q -17.55,11.55 -6.6,4.4 3.4,-2.1 8.8,-4.95 M 2.65,18.95 3,20.55 q 0.45,1.55 2.05,5.1 L 5.8,27.25 4.9,26.6 Q 3.7,25.95 1.55,25.15 L 1.35,25.1 0.7,20.35 2.65,18.95 m -5.35,-4.8 2.85,-1.5 -0.45,2.45 -0.75,0.65 -2.55,0.65 -3.4,0.35 -0.15,-0.7 4.45,-1.9 m -0.05,25.6 -0.95,-2.3 -1.35,-2.9 -1.25,-3.2 -0.35,-2.2 -0.8,-2.8 Q -7.9,24.7 -7.7,23.55 l 0.65,-1.9 1.05,-0.05 2.8,-0.3 h 0.15 l 0.95,7.35 q 0.75,5.6 0.4,8.8 l -0.4,1.45 -0.65,0.85"
         fill="#b1b1b1"
         fill-rule="evenodd"
         stroke="none"
         id="path4" />
    </g>
    <g
       id="sprite1"
       transform="translate(17.4,15.85)">
      <use
         ffdec:characterId="31"
         height="57.200001"
         transform="matrix(0.5366,0,0,0.5366,-16.6582,-14.546)"
         width="70.75"
         xlink:href="#sprite2"
         id="use4" />
    </g>
    <g
       id="sprite2"
       transform="translate(-8.65,-10.35)">
      <use
         ffdec:characterId="30"
         height="57.200001"
         transform="translate(8.65,10.35)"
         width="70.75"
         xlink:href="#shape1"
         id="use5" />
    </g>
    <g
       id="shape1"
       transform="translate(-8.65,-10.35)">
      <path
         d="m 14.8,41.7 q 0.65,-1.75 2.65,-2.5 1.8,-0.8 3.7,-0.25 1.15,0.45 2.25,1.2 l 0.9,0.4 q 1.65,0.9 2.85,2.5 L 37.8,30.1 q 2.35,-2.8 3.75,-3.95 1.5,-1.15 4.25,-2.4 18.2,-8.85 27.65,-12.6 2.15,-0.8 3.25,-0.8 h 0.8 l 1.9,2.4 -0.2,0.8 q -0.2,1.1 -1.55,3 -5.85,8.25 -18.85,23.8 -1.85,2.35 -3.35,3.5 -1.4,1.15 -4.75,2.75 l -15.15,7.15 q 1.2,1.6 1.75,3.4 l 0.2,1 0.55,2.5 q 0.1,1.95 -1.1,3.55 -1.2,1.65 -3.05,1.9 l -1.3,0.05 q -1.65,0.2 -3.45,-0.65 -1.85,-0.9 -3,-2.6 L 25,60.95 23.8,62.1 q -2.6,2.85 -4.3,3.95 -2.85,1.8 -5.5,1.45 l -1.65,-0.5 -1.2,-0.7 -0.2,-0.2 q -1,-0.85 -1.6,-1.9 L 9.25,64 9.15,63.8 8.75,62.4 q -0.2,-0.8 -0.05,-1.7 0.25,-2.65 2.7,-5.05 1.5,-1.3 4.9,-3.15 L 17.7,51.55 16.05,50 q -1.35,-1.5 -1.8,-3.6 -0.4,-1.85 0.25,-3.45 l 0.3,-1.25"
         fill="#000000"
         fill-opacity="0.372549"
         fill-rule="evenodd"
         stroke="none"
         id="path5" />
    </g>
  </defs>
</svg>
