<?xml version="1.0" encoding="UTF-8" standalone="no"?>
<svg
   ffdec:objectType="frame"
   height="68.099998"
   width="90.477966"
   version="1.1"
   id="svg7"
   xmlns:xlink="http://www.w3.org/1999/xlink"
   xmlns="http://www.w3.org/2000/svg"
   xmlns:svg="http://www.w3.org/2000/svg"
   xmlns:ffdec="https://www.free-decompiler.com/flash">
  <g
     transform="translate(46.405556,37.4)"
     id="g1">
    <use
       ffdec:characterId="17"
       height="119.15"
       id="rarity"
       transform="translate(-58.5,-60.65)"
       width="119.15"
       xlink:href="#sprite0" />
    <use
       ffdec:characterId="1274"
       height="68.099998"
       transform="translate(-46.4,-37.4)"
       width="90.449997"
       xlink:href="#shape0"
       id="use1" />
  </g>
  <defs
     id="defs7">
    <g
       id="shape0"
       transform="translate(45.1,35.5)">
      <path
         d="m 33.85,21.45 q -10,8.4 -26,10.35 L -6.3,32.6 -20.45,32.1 -26.9,31.5 q -3.55,-0.65 -5.75,-2.45 -1.85,-1.45 -3.3,-3.95 L -36.7,23.7 -37.9,22 q -1.5,-2.25 -3.2,-6.1 L -44.15,8.35 Q -45.1,5.7 -45.1,4.3 q -0.1,-2.4 1.6,-3.6 1.25,-0.8 3.35,-0.7 l 0.75,0.05 0.3,-1.05 q 1.05,-2.55 2.75,-4 0.85,-0.8 2.35,-1.65 l 2.3,-0.95 -2.25,-5.25 q -2.6,-7.25 -2.8,-12.35 -0.2,-4.25 1.55,-6.5 1,-1.45 2.75,-1.9 1.85,-0.55 3.25,0.35 1.05,0.75 2.2,3.1 4.95,9.65 12.5,17.3 v -0.05 q 1.05,-6.95 6.1,-11.8 3.35,-3.15 6.45,-3.4 l 3.4,0.15 3.25,0.7 q 2.3,0.8 3.85,2.9 l 0.6,0.9 q 1.95,-1.35 4.55,-1.5 2.85,-0.15 6.15,1.25 l 2.05,1.05 q 1.4,0.95 2.75,2.8 l 0.25,-1.2 0.4,-1.5 -1.65,-0.3 -1.75,-1.25 q -0.95,-0.7 -1.35,-1.25 -0.3,-0.5 -0.5,-1.35 -0.55,-2.55 0.4,-4.75 0.9,-2.3 3.2,-3.5 1.25,-0.55 2.45,-0.55 l 2.05,0.35 1.5,0.55 q 1,0.5 1.9,1.8 L 32.7,-34 q 2.15,-1.65 4.85,-1.05 2.55,0.6 4.2,2.8 0.95,1.25 1.1,2.5 0.1,1.05 -0.5,2.65 -0.8,2.15 -2.75,3.8 -1.85,1.6 -4.15,2.3 -0.55,0.1 -0.75,0.35 l -0.15,0.5 -0.5,4.75 -0.75,3.3 -0.1,0.4 q 0.55,-0.35 1.05,-0.55 l 1.2,-0.45 1.5,-0.05 2.9,0.3 2.3,1.5 q 1.25,1.2 1.7,2.9 0.4,1.6 0,3.05 0.9,0.35 1.35,1.4 0.5,1.4 -0.45,3.8 -4.25,11.55 -8,17.65 L 35.9,19.1 q -0.55,1.15 -2.05,2.35 m -65.25,-43.65 0.1,0.55 q 0.55,2.45 2.2,6.7 1.55,4.05 2.65,6.05 1.75,3.25 3.9,5.15 l 1.2,1.05 0.45,0.45 1.2,-0.8 2.4,-1.4 0.55,-0.2 q 1.7,-0.75 3.7,-0.95 l -0.75,-1.2 -0.6,-0.35 q -0.65,-0.45 -2.7,-2.25 -8.85,-8.1 -14.35,-19.1 -0.65,2.85 0.05,6.3 m 5.3,22.45 -2,-2.15 -0.9,-1.1 -1.3,0.25 -1.85,0.7 -2.2,1.3 -1.45,1.5 2.25,0.6 5.15,1.4 3.85,1 V 3.55 L -24.1,1.7 -24.9,1.2 -26.1,0.25 m 33.2,-18.55 -0.05,-0.05 -1.1,-1.5 q -1,-1.6 -2.3,-2.25 l -2.35,-0.65 -4.1,0.5 -2.4,1.95 q -2.8,3.1 -3.6,6.6 l -0.3,2.2 q -0.1,1.5 0.35,2.45 l 1.05,1.3 1.2,1.05 q 1.15,1.05 1.25,2.05 l -0.1,0.8 q -0.3,0.8 -1.05,1.15 -0.2,0.7 -0.95,1 -0.5,0.3 -1.15,0.3 l -1.25,-0.1 q -3.85,-0.3 -6.95,1.9 l -1.7,1.5 -0.7,0.95 -0.35,0.75 -0.45,1.45 1.65,0.45 3.55,0.9 0.3,0.1 1.35,0.4 L -11,7.7 -10.3,7 -9.15,6 -2.45,0.2 4.7,-6 5.6,-6.8 q 1.55,-1.3 2.65,-1.6 l 0.3,-0.1 q 1.2,-0.3 2.7,0.45 l 2.45,1.6 6.5,4.5 0.35,0.25 L 23,0.15 24.6,1.5 25.65,2.45 26.5,1.9 26.65,1.85 q 2.65,-1.5 6.65,-3.3 l 0.45,-0.2 1.2,-0.5 -0.65,-0.8 -0.55,-0.6 -1.3,-1.05 -0.3,-0.1 -2,-0.65 -1.1,-0.05 q -0.55,0.05 -1.3,0.6 l -1.2,0.8 q -1.45,0.5 -2.5,-0.65 L 23.9,-4.85 23.8,-4.9 23.75,-4.95 q -0.7,-0.65 -0.7,-1.65 l 0.2,-1.8 0.05,-2.45 q -0.25,-2.55 -1.6,-5.1 -1.35,-2.55 -3.15,-3.35 l -1.5,-0.55 -4.8,0.25 -1.05,1.1 -0.8,0.6 -0.45,0.25 -1.5,0.05 Q 7.7,-17.75 7.1,-18.3 m 29,-12.95 q -0.85,0.2 -1.7,1.4 l -0.85,1.15 -0.15,0.15 q -0.6,0.7 -1.25,0.85 l -0.3,0.1 -0.2,0.1 -0.45,0.1 h -0.1 q -0.55,0 -1,-0.35 -0.5,-0.4 -0.95,-1.15 L 29,-29.1 28.55,-29.8 q -0.6,-0.75 -1.55,-0.9 l -1.05,0.15 q -0.75,0.35 -1.1,1.5 -0.25,0.95 0.15,1.55 0.25,0.3 0.85,0.45 l 0.2,0.05 0.65,0.1 h 0.2 l 1.1,0.4 0.45,0.4 0.2,0.3 0.7,0.9 0.05,0.2 0.1,0.85 -0.05,0.15 -0.35,1.15 -0.5,1.95 -0.15,0.9 -0.9,4.75 -0.4,1 0.35,1.95 0.1,2.5 1.95,-0.25 1.15,-9.05 0.1,-0.75 0.1,-1.9 -0.1,-1.35 q 0,-0.5 0.15,-0.9 l 0.15,-0.4 0.5,-0.5 0.8,-0.4 1.25,-0.25 0.45,-0.1 q 1.15,-0.2 2.05,-0.65 1.65,-0.9 2.35,-2.65 l 0.1,-0.85 -0.55,-0.9 -1.1,-0.8 -0.85,-0.05 M 23.55,10.25 24.2,8.4 21.5,6.2 Q 19.5,4.35 15.7,1.9 L 12.6,-0.05 9.6,-2.1 6.95,0.1 Q 1.3,4.8 -4.35,10 l -2.15,2.4 -1.4,1.2 q -1.15,0.85 -1.95,0.85 h -0.25 l -1.9,1.7 -4.35,3.65 -0.35,0.45 0.05,0.85 0.05,0.1 q 0.95,2 1.75,4.15 l 0.2,0.5 2.7,0.1 3.1,0.1 q 6.5,0.2 11.5,-0.2 13,-0.9 22.3,-5.45 l 0.75,-0.35 -0.35,-0.25 -1.1,-1.25 -0.7,-0.95 -0.4,-0.7 -0.3,0.1 q -2.3,0.9 -4.45,2.1 l -1.6,0.7 q -0.95,0.25 -1.6,0 l -0.8,-0.35 -0.3,-0.25 -0.45,-0.3 -0.7,-0.25 -1.1,-0.3 q -1.1,-0.35 -1.6,-0.8 l -0.95,1 -2.25,2.6 L 6.4,21.8 6.2,21.9 5.55,21.8 Q 5,21.35 5.7,20.3 l 3.2,-4.5 q 0.85,-1.35 1.4,-1.55 l 1.9,0.05 2.1,0.85 1.3,0.45 1.15,-0.35 4.85,-2.05 1,-0.65 0.4,-0.75 0.55,-1.55 m 16.7,-14.8 0.1,-0.05 0.05,-0.7 -0.05,-1.4 q -0.2,-0.75 -0.9,-1.3 -0.6,-0.55 -1.4,-0.65 -1.65,-0.3 -2.95,0.95 l -0.05,0.1 1.75,1.9 q 1.1,1.2 1.25,2 l 0.05,0.15 2.15,-1 M 27.6,16 v 0.05 l 0.25,0.5 0.5,0.4 0.55,0.65 0.25,0.3 1.05,-0.95 1.1,-1.05 1.15,-0.75 q 0.75,-2.3 2.4,-5.65 L 36.4,6.25 37.8,2.6 q -3.85,1.45 -7.65,3.75 l -1.7,1 q 0,0.9 -0.55,2.25 l -1.5,4.1 -0.05,0.2 0.55,0.9 0.7,1.2 m -44.75,-0.8 2.55,-2.5 0.1,-0.05 -0.55,-0.35 -1.85,-0.5 -20.8,-4.9 0.7,2.45 1.95,4.75 2.9,5.65 q 1.8,2.85 3.6,4.05 1.6,1 3.95,1.4 l 4.25,0.4 1.9,0.1 -0.55,-1 -1.45,-3 q -0.6,-1.35 -0.45,-2.15 0.1,-0.55 0.9,-1.45 l 2.85,-2.9"
         fill="#000000"
         fill-rule="evenodd"
         stroke="none"
         id="path1" />
      <path
         d="m -16.75,-4.65 -2.3,-1.7 -1.1,-0.95 q 0.6,-0.75 0.35,-1.65 l -0.7,-0.95 q -0.5,-0.4 -1.15,-0.4 l -1.05,0.45 -3.8,-4.75 q -3.15,-4.25 -4.9,-7.6 -0.7,-3.45 -0.05,-6.3 5.5,11 14.35,19.1 2.05,1.8 2.7,2.25 l 0.6,0.35 0.75,1.2 q -2,0.2 -3.7,0.95 M 27.5,-12 l -0.35,-1.95 0.4,-1 0.9,-4.75 0.15,-0.9 0.5,-1.95 0.35,-1.15 0.05,-0.15 -0.1,-0.85 -0.05,-0.2 -0.7,-0.9 -0.2,-0.3 -0.45,-0.4 -1.1,-0.4 h -0.2 l -0.65,-0.1 -0.2,-0.05 q -0.6,-0.15 -0.85,-0.45 -0.4,-0.6 -0.15,-1.55 0.35,-1.15 1.1,-1.5 L 27,-30.7 q 0.95,0.15 1.55,0.9 l 0.45,0.7 0.15,0.2 q 0.45,0.75 0.95,1.15 0.45,0.35 1,0.35 h 0.1 l 0.45,-0.1 0.2,-0.1 0.3,-0.1 q 0.65,-0.15 1.25,-0.85 l 0.15,-0.15 0.85,-1.15 q 0.85,-1.2 1.7,-1.4 0.65,0.6 0.9,1.4 0.35,0.9 0,2.1 -0.25,0.95 -0.85,1.75 -0.9,0.45 -2.05,0.65 l -0.45,0.1 -1.25,0.25 -0.8,0.4 -0.5,0.5 -0.15,0.4 q -0.15,0.4 -0.15,0.9 l 0.1,1.35 -0.1,1.9 -1.65,5.3 -0.8,1.4 -0.85,0.85 m -39.45,37.95 -2.7,-0.1 -0.2,-0.5 q -0.8,-2.15 -1.75,-4.15 l -0.05,-0.1 -0.05,-0.85 0.35,-0.45 4.35,-3.65 1.9,-1.7 h 0.25 q 0.8,0 1.95,-0.85 L -6.5,12.4 -4.35,10 Q 1.3,4.8 6.95,0.1 l 2.65,-2.2 3,2.05 3.1,1.95 q 3.8,2.45 5.8,4.3 l 2.7,2.2 -0.65,1.85 q -1.2,0 -2.55,-0.8 L 18.35,7.5 Q 17.45,6.85 14.95,5.55 L 13.15,4.45 10,2.45 -11.35,20 l -1.45,1.1 0.65,3.35 0.25,1 -0.05,0.5 M 6.2,21.9 l 0.2,-0.1 0.65,-0.65 2.25,-2.6 0.95,-1 q 0.5,0.45 1.6,0.8 l 1.1,0.3 0.7,0.25 0.45,0.3 0.3,0.25 0.8,0.35 q 0.65,0.25 1.6,0 l 1.6,-0.7 q 2.15,-1.2 4.45,-2.1 l 0.3,-0.1 0.4,0.7 0.7,0.95 -6.7,2.75 -1.2,0.4 H 15.8 L 14.3,21.85 11.45,20.45 11.2,20.3 10.8,20.6 8.65,21.7 7.55,22.15 6.65,22.2 6.2,21.9 M 36.4,6.25 q -1.95,1.1 -4.7,2.4 l -1,0.6 -0.55,1.05 -1.45,3.6 -1.1,2.1 -0.7,-1.2 -0.55,-0.9 0.05,-0.2 1.5,-4.1 q 0.55,-1.35 0.55,-2.25 l 1.7,-1 q 3.8,-2.3 7.65,-3.75 l -1.4,3.65 m -73.4,3.1 -0.7,-2.45 20.8,4.9 1.85,0.5 0.55,0.35 -0.1,0.05 -2.55,2.5 -2.15,-0.65 -7.65,-2.4 L -34.85,10 -37,9.35"
         fill="#e2e2e2"
         fill-rule="evenodd"
         stroke="none"
         id="path2" />
      <path
         d="m -28.4,2.75 -5.15,-1.4 -2.25,-0.6 1.45,-1.5 2.2,-1.3 1.85,-0.7 1.3,-0.25 0.9,1.1 2,2.15 -0.25,0.5 -1.4,1.45 -0.65,0.55 M -8.8,-13.7 q 0.8,-3.5 3.6,-6.6 l 2.4,-1.95 4.1,-0.5 2.35,0.65 q 1.3,0.65 2.3,2.25 l 1.1,1.5 0.05,0.05 -0.25,1.6 -0.45,1.4 q 1.15,0.25 1.95,1.05 1.1,1 1.1,2.6 l -0.2,1.15 -1,2.1 Q 7.15,-8.1 5.6,-6.8 L 4.7,-6 2.65,-5.85 1.2,-6.1 Q -0.55,-6.9 -0.95,-8.9 L -1,-9.2 -2.2,-8.95 q -3.2,0.5 -4.8,-1 -0.65,-0.6 -1.2,-1.8 l -0.6,-1.95 m 19.2,-4.2 0.8,-0.6 1.05,-1.1 4.8,-0.25 1.5,0.55 q 1.8,0.8 3.15,3.35 1.35,2.55 1.6,5.1 l -0.05,0.05 q -1.35,1.95 -3.7,2.4 l -2.15,0.2 -2.3,-0.2 q -1.55,-0.35 -2.75,-1.4 -1.25,-1.05 -1.9,-2.5 -1.25,-2.75 -0.05,-5.6 m 13.4,13 0.1,0.05 0.15,0.2 q 1.05,1.15 2.5,0.65 l 1.2,-0.8 q 0.75,-0.55 1.3,-0.6 l 1.1,0.05 2,0.65 0.3,0.1 1.3,1.05 0.55,0.6 -0.5,1.2 -0.05,0.1 -0.45,0.2 q -4,1.8 -6.65,3.3 L 26,1.8 24.6,1.5 23,0.15 22.85,-0.05 q -0.6,-1.05 -0.5,-2.15 l 0.2,-0.9 0.6,-1.15 0.65,-0.65 m -29.05,0.25 0.6,0.25 q 1.95,1 2.25,2.9 0.15,0.8 -0.05,1.7 L -9.15,6 -9.6,6.15 -13.05,6.9 -14.4,6.5 -14.7,6.4 -18.25,5.5 -18.5,5.2 q -0.6,-0.8 -0.6,-1.95 v -0.4 l 0.7,-0.95 1.7,-1.5 q 3.1,-2.2 6.95,-1.9 l 1.25,0.1 q 0.65,0 1.15,-0.3 0.75,-0.3 0.95,-1 0.75,-0.35 1.05,-1.15 l 0.1,-0.8 m 24.45,0.8 q -0.75,-0.6 -0.4,-1.5 0.1,-0.4 0.5,-0.65 0.4,-0.3 0.8,-0.25 1.05,0 1.3,1 0.2,1 -0.6,1.5 l -1.6,-0.1 m 21.05,-0.7 -2.15,1 -0.05,-0.15 q -0.15,-0.8 -1.25,-2 l -1.75,-1.9 0.05,-0.1 q 1.3,-1.25 2.95,-0.95 0.8,0.1 1.4,0.65 0.7,0.55 0.9,1.3 l 0.05,1.4 -0.05,0.7 -0.1,0.05"
         fill="#504848"
         fill-rule="evenodd"
         stroke="none"
         id="path3" />
      <path
         d="m -16.75,-4.65 -0.55,0.2 -2.4,1.4 -1.2,0.8 -0.45,-0.45 -1.2,-1.05 q -2.15,-1.9 -3.9,-5.15 -1.1,-2 -2.65,-6.05 -1.65,-4.25 -2.2,-6.7 l -0.1,-0.55 q 1.75,3.35 4.9,7.6 l 3.8,4.75 h -0.05 l -0.65,1.05 q -0.1,0.6 0.2,1.15 l 0.85,0.85 1.2,0.15 q 0.65,-0.15 1,-0.65 l 1.1,0.95 2.3,1.7 M 27.5,-12 l 0.85,-0.85 0.8,-1.4 1.65,-5.3 -0.1,0.75 -1.15,9.05 -1.95,0.25 -0.1,-2.5 m 8.65,-14 q 0.6,-0.8 0.85,-1.75 0.35,-1.2 0,-2.1 -0.25,-0.8 -0.9,-1.4 l 0.85,0.05 1.1,0.8 0.55,0.9 -0.1,0.85 q -0.7,1.75 -2.35,2.65 m -48.1,51.95 0.05,-0.5 -0.25,-1 L -12.8,21.1 -11.35,20 10,2.45 l 3.15,2 1.8,1.1 q 2.5,1.3 3.4,1.95 L 21,9.45 q 1.35,0.8 2.55,0.8 L 23,11.8 22.6,12.55 21.6,13.2 16.75,15.25 15.6,15.6 14.3,15.15 12.2,14.3 10.3,14.25 Q 9.75,14.45 8.9,15.8 L 5.7,20.3 Q 5,21.35 5.55,21.8 l 0.65,0.1 0.45,0.3 0.9,-0.05 1.1,-0.45 2.15,-1.1 0.4,-0.3 0.25,0.15 2.85,1.4 1.5,-0.15 h 0.55 l 1.2,-0.4 6.7,-2.75 1.1,1.25 0.35,0.25 -0.75,0.35 q -9.3,4.55 -22.3,5.45 -5,0.4 -11.5,0.2 l -3.1,-0.1 M 27.6,16 l 1.1,-2.1 1.45,-3.6 0.55,-1.05 1,-0.6 q 2.75,-1.3 4.7,-2.4 L 34.85,9.5 q -1.65,3.35 -2.4,5.65 l -1.15,0.75 -1.1,1.05 -1.05,0.95 -0.25,-0.3 -0.55,-0.65 -0.5,-0.4 -0.25,-0.5 V 16 M 9.65,8.85 Q 10.55,8.6 10.55,7.75 10.65,6.9 9.8,6.6 L 8.85,6.65 Q 8.5,6.8 8.3,7.2 8.05,7.9 8.5,8.45 q 0.4,0.6 1.15,0.4 m -46.65,0.5 2.15,0.65 7.9,2.15 7.65,2.4 2.15,0.65 -2.85,2.9 q -0.8,0.9 -0.9,1.45 -0.15,0.8 0.45,2.15 l 1.45,3 0.55,1 -1.9,-0.1 -4.25,-0.4 q -2.35,-0.4 -3.95,-1.4 -1.8,-1.2 -3.6,-4.05 L -35.05,14.1 -37,9.35 m 7.7,8.9 0.7,0.6 1.4,0.15 q 0.75,-0.2 1.1,-0.8 0.4,-0.55 0.3,-1.3 -0.05,-0.75 -0.6,-1.2 -0.5,-0.5 -1.3,-0.5 -0.75,0 -1.3,0.5 -0.55,0.45 -0.6,1.2 -0.1,0.75 0.3,1.35 m 19.25,1.9 v 0.95 q 0.35,1.1 1.5,1.2 1.1,0.1 1.7,-0.95 0.5,-1.05 -0.25,-1.9 -0.7,-0.9 -1.8,-0.55 -0.6,0.15 -0.85,0.55 l -0.3,0.7"
         fill="#c8c8c8"
         fill-rule="evenodd"
         stroke="none"
         id="path4" />
      <path
         d="m -28.4,2.75 0.65,-0.55 1.4,-1.45 0.25,-0.5 1.2,0.95 0.8,0.5 -0.45,1.85 v 0.2 l -3.85,-1 m 19.6,-16.45 0.6,1.95 q 0.55,1.2 1.2,1.8 1.6,1.5 4.8,1 l 1.2,-0.25 0.05,0.3 q 0.4,2 2.15,2.8 L 2.65,-5.85 4.7,-6 -2.45,0.2 q 0.2,-0.9 0.05,-1.7 -0.3,-1.9 -2.25,-2.9 l -0.6,-0.25 q -0.1,-1 -1.25,-2.05 l -1.2,-1.05 -1.05,-1.3 Q -9.2,-10 -9.1,-11.5 l 0.3,-2.2 m 17.05,5.3 1,-2.1 0.2,-1.15 q 0,-1.6 -1.1,-2.6 -0.8,-0.8 -1.95,-1.05 l 0.45,-1.4 0.25,-1.6 q 0.6,0.55 1.35,0.7 l 1.5,-0.05 0.45,-0.25 q -1.2,2.85 0.05,5.6 0.65,1.45 1.9,2.5 1.2,1.05 2.75,1.4 l 2.3,0.2 2.15,-0.2 q 2.35,-0.45 3.7,-2.4 l 0.05,-0.05 -0.05,2.45 -0.2,1.8 q 0,1 0.7,1.65 l 0.05,0.05 -0.65,0.65 -0.6,1.15 -0.2,0.9 q -0.1,1.1 0.5,2.15 L 23,0.15 20.55,-1.7 20.2,-1.95 13.7,-6.45 11.25,-8.05 Q 9.75,-8.8 8.55,-8.5 l -0.3,0.1 m 26.05,5.45 0.65,0.8 -1.2,0.5 0.05,-0.1 0.5,-1.2 M 26.65,1.85 26.5,1.9 25.65,2.45 24.6,1.5 26,1.8 26.65,1.85 m -45.75,1 v 0.4 q 0,1.15 0.6,1.95 l 0.25,0.3 -1.65,-0.45 0.45,-1.45 0.35,-0.75 M -13.05,6.9 -9.6,6.15 -9.15,6 -10.3,7 -11,7.7 -13.05,6.9 m 32.25,-10.75 1.6,0.1 q 0.8,-0.5 0.6,-1.5 -0.25,-1 -1.3,-1 -0.4,-0.05 -0.8,0.25 -0.4,0.25 -0.5,0.65 -0.35,0.9 0.4,1.5"
         fill="#332d2d"
         fill-rule="evenodd"
         stroke="none"
         id="path5" />
      <path
         d="m -20.15,-7.3 q -0.35,0.5 -1,0.65 l -1.2,-0.15 -0.85,-0.85 q -0.3,-0.55 -0.2,-1.15 l 0.65,-1.05 h 0.05 l 1.05,-0.45 q 0.65,0 1.15,0.4 l 0.7,0.95 q 0.25,0.9 -0.35,1.65 M 9.65,8.85 Q 8.9,9.05 8.5,8.45 8.05,7.9 8.3,7.2 8.5,6.8 8.85,6.65 L 9.8,6.6 q 0.85,0.3 0.75,1.15 0,0.85 -0.9,1.1 m -19.7,11.3 0.3,-0.7 q 0.25,-0.4 0.85,-0.55 1.1,-0.35 1.8,0.55 0.75,0.85 0.25,1.9 -0.6,1.05 -1.7,0.95 -1.15,-0.1 -1.5,-1.2 v -0.95 m -19.25,-1.9 q -0.4,-0.6 -0.3,-1.35 0.05,-0.75 0.6,-1.2 0.55,-0.5 1.3,-0.5 0.8,0 1.3,0.5 0.55,0.45 0.6,1.2 0.1,0.75 -0.3,1.3 -0.35,0.6 -1.1,0.8 l -1.4,-0.15 -0.7,-0.6"
         fill="#8e8e8e"
         fill-rule="evenodd"
         stroke="none"
         id="path6" />
    </g>
    <g
       id="sprite1"
       transform="translate(17.4,15.85)">
      <use
         ffdec:characterId="31"
         height="57.200001"
         transform="matrix(0.5366,0,0,0.5366,-16.6582,-14.546)"
         width="70.75"
         xlink:href="#sprite2"
         id="use6" />
    </g>
    <g
       id="sprite2"
       transform="translate(-8.65,-10.35)">
      <use
         ffdec:characterId="30"
         height="57.200001"
         transform="translate(8.65,10.35)"
         width="70.75"
         xlink:href="#shape1"
         id="use7" />
    </g>
    <g
       id="shape1"
       transform="translate(-8.65,-10.35)">
      <path
         d="m 14.8,41.7 q 0.65,-1.75 2.65,-2.5 1.8,-0.8 3.7,-0.25 1.15,0.45 2.25,1.2 l 0.9,0.4 q 1.65,0.9 2.85,2.5 L 37.8,30.1 q 2.35,-2.8 3.75,-3.95 1.5,-1.15 4.25,-2.4 18.2,-8.85 27.65,-12.6 2.15,-0.8 3.25,-0.8 h 0.8 l 1.9,2.4 -0.2,0.8 q -0.2,1.1 -1.55,3 -5.85,8.25 -18.85,23.8 -1.85,2.35 -3.35,3.5 -1.4,1.15 -4.75,2.75 l -15.15,7.15 q 1.2,1.6 1.75,3.4 l 0.2,1 0.55,2.5 q 0.1,1.95 -1.1,3.55 -1.2,1.65 -3.05,1.9 l -1.3,0.05 q -1.65,0.2 -3.45,-0.65 -1.85,-0.9 -3,-2.6 L 25,60.95 23.8,62.1 q -2.6,2.85 -4.3,3.95 -2.85,1.8 -5.5,1.45 l -1.65,-0.5 -1.2,-0.7 -0.2,-0.2 q -1,-0.85 -1.6,-1.9 L 9.25,64 9.15,63.8 8.75,62.4 q -0.2,-0.8 -0.05,-1.7 0.25,-2.65 2.7,-5.05 1.5,-1.3 4.9,-3.15 L 17.7,51.55 16.05,50 q -1.35,-1.5 -1.8,-3.6 -0.4,-1.85 0.25,-3.45 l 0.3,-1.25"
         fill="#000000"
         fill-opacity="0.372549"
         fill-rule="evenodd"
         stroke="none"
         id="path7" />
    </g>
  </defs>
</svg>
