<?xml version="1.0" encoding="UTF-8" standalone="no"?>
<svg
   ffdec:objectType="frame"
   height="95.718964"
   width="75.937531"
   version="1.1"
   id="svg5"
   xmlns:xlink="http://www.w3.org/1999/xlink"
   xmlns="http://www.w3.org/2000/svg"
   xmlns:svg="http://www.w3.org/2000/svg"
   xmlns:ffdec="https://www.free-decompiler.com/flash">
  <g
     transform="translate(38.877273,48.558621)"
     id="g1">
    <use
       ffdec:characterId="17"
       height="119.15"
       id="rarity"
       transform="translate(-58.5,-60.65)"
       width="119.15"
       xlink:href="#sprite0" />
    <use
       ffdec:characterId="296"
       height="95.699997"
       transform="translate(-38.9,-48.55)"
       width="75.949997"
       xlink:href="#shape0"
       id="use1" />
  </g>
  <defs
     id="defs5">
    <g
       id="shape0"
       transform="translate(38.6,51.05)">
      <path
         d="m 5.8,-42.15 1.5,-2.15 1.4,-1.65 q 0.9,-0.8 1.9,-0.8 l 1.7,0.45 1.25,0.85 q 1,1.15 1.1,3.3 0.05,2.9 -1.25,5.95 l -1.1,2.1 q 6.35,0.75 12.85,7.35 4.85,4.95 7.3,10.1 l 1.4,3.35 q 3.7,10 3.5,17.7 -0.15,7.9 -3.75,14.65 -3.7,7.1 -9.45,9.4 -2.25,0.9 -5.65,1.15 l -0.65,0.05 -0.4,2.05 -0.6,1.45 -1.15,2.05 q -0.85,1.15 -3.1,2.3 l -1.75,0.7 q -2.9,0.75 -5.3,-0.75 L 5.35,39 5.1,40.2 4.3,41.6 q -1.9,2.5 -4.7,2.95 -2.2,0.4 -4.35,-0.65 -1.5,-0.65 -2.5,-1.85 -1.1,-1.3 -1.25,-2.8 v -1.6 -0.2 l -2.9,0.1 -5.15,-0.3 -4.85,-1.5 Q -32,31.3 -35.95,24.05 -39.35,17.7 -38.35,6.8 l 0.55,-4.15 q 1.45,-8 8.35,-17.75 l 2.55,-3.25 q 1.9,-2.25 4.75,-4.6 l 5.3,-4 2.9,-1.9 -1.7,-1.75 q -1.15,-1.5 -1.4,-2.85 -0.2,-1.6 0.6,-3.25 1.45,-3.1 5,-4.15 3.15,-1.05 6.6,0 -1.55,-3.4 -1.65,-5.05 -0.1,-1.4 0.4,-2.6 0.6,-1.35 1.7,-2 1.45,-0.9 3.65,-0.35 2.6,0.75 4.1,2.7 l 1.5,2.8 0.95,3.25 v -0.05 m 5.2,-0.75 -0.1,-0.1 -0.1,0.1 -1.95,2.8 -0.8,1.6 -0.55,1.65 -0.65,2.3 q -0.3,1.2 -0.2,2.6 l 1.4,-1.9 2.35,-4.2 0.2,-0.55 0.35,-1.45 0.15,-0.8 0.05,-1.05 -0.15,-1 m -10.4,-1.2 -0.55,-0.95 -0.4,-0.55 -0.45,-0.4 -1.15,-0.45 0.2,1.3 0.65,1.65 0.8,1.6 0.3,0.6 0.3,0.45 1.35,3.1 0.2,0.35 -0.15,-2.55 -0.4,-2.1 -0.35,-1.15 -0.35,-0.9 m 27.85,62.35 1.15,-2.15 1.55,-3.6 q 2.05,-5.85 1.15,-12.65 -0.65,-5.7 -3.35,-12.4 l -2.4,-4.9 q -1.65,-2.65 -5.6,-6.5 L 17.2,-27.1 Q 15,-28.65 12.85,-29 l -1.65,-0.2 -1.65,-0.4 -0.65,-0.3 -0.2,0.05 -1.5,-0.1 q -0.65,-0.4 -0.75,-1.25 -0.55,0.95 -1.6,1.05 -1.1,0.15 -1.7,-0.75 -0.6,-0.2 -0.9,-0.7 Q 2.05,-32 2,-32.85 l -0.15,-1.3 q -0.6,1.25 -2.35,0.85 l -2.3,-1.3 q -2.2,-1.5 -4.3,-1.85 -2.65,-0.4 -4.4,1.1 l -0.6,0.85 q -0.05,0.55 0.55,1.15 1.2,1.35 3.7,1.9 l 4.25,0.15 2.6,0.2 q 1.55,0.45 1.75,1.75 0.15,0.65 -0.25,1.3 -0.35,0.65 -1,1 -0.95,0.55 -2.75,0.65 -2.15,0.1 -3.9,-0.05 L -9.2,-26.7 q -1.95,0.85 -4.55,3 l -5.3,4.35 q -2.9,2.5 -4.75,4.9 l -3.1,4.6 q -3.75,6.05 -5,10.4 -0.75,2.5 -1.1,6.3 l -0.1,0.95 q -0.3,4 -0.1,6.7 0.15,2.05 0.65,3.8 l 1,2.55 q 3.15,6.35 12.85,10.35 2.55,1 4.05,1.2 l 3.9,0.15 2.65,0.1 0.6,0.1 q 0.5,-0.6 0.65,-1 l 0.45,-1.2 V 30.5 q 0.25,-0.4 0.8,-0.5 0.55,-0.05 0.95,0.25 0.5,0.5 0.5,1.55 l -0.3,3.55 v 0.7 1.7 l 0.15,0.8 0.9,0.8 q 1.9,1.1 3.2,0.45 0.95,-0.5 1.3,-1.75 L 1.3,37 1.35,35.85 1.4,34.2 q 0,-1.75 0.5,-2.4 0.75,-1.1 2,-0.95 l 0.4,0.1 Q 4.85,30.9 5.2,31.2 l 0.3,0.3 0.55,1.1 Q 6.6,33.45 8.3,33.85 L 9.45,34 10.6,33.6 11.85,32.75 q 0.85,-0.75 1.3,-1.9 l 0.35,-1.4 v -0.2 L 13.45,28.6 13.3,27.55 v -0.4 q 0.1,-1.25 1.2,-1.8 l 1.1,-0.2 0.35,0.05 0.3,0.1 1.3,-0.3 q 5.7,-0.8 8.8,-3.9 l 2.1,-2.85 m -9.2,-38.75 q 0.55,0.4 0.95,1.4 1,2.45 0.95,4.6 -0.15,2.65 -1.7,4.25 -1.85,1.95 -4.3,1.4 -0.55,-0.1 -1.55,-0.6 -0.8,-0.4 -1.35,-0.95 l -0.55,-0.9 -0.85,-1.8 -0.55,-2.15 -0.35,-1.15 q -0.45,-1.3 -0.65,-4 -0.1,-1.15 0.2,-1.6 0.25,-0.3 0.7,-0.4 l 0.05,-0.05 0.9,0.15 0.75,1.2 2.95,6.85 q 0.4,0.95 0.95,1 0.75,0 1.05,-0.95 0.3,-0.9 0.15,-2.6 -0.15,-1.9 0,-2.65 l 0.45,-0.95 q 0.4,-0.5 1.15,-0.4 l 0.65,0.3 m -22.3,10.7 0.4,0.75 q 0.15,0.6 -0.15,1.8 l -0.4,1.3 q -0.55,1.4 -1.9,2.9 -1.3,1.5 -2.4,1.95 l -2.1,0.45 -2.3,-0.05 -0.3,1.2 q -1.4,5.5 -6.1,8.7 l -1.5,0.85 -2.3,0.5 q -1.6,0.1 -2.75,-0.4 -2.3,-0.9 -3.25,-3.65 -0.7,-2 -0.35,-4.95 0.2,-2 0.9,-3.95 0.8,-2.2 2.75,-5.65 l 2,-3 1.3,-0.9 h 0.15 l 0.7,0.05 0.55,0.5 q 0.3,0.65 -0.3,1.6 l -2.9,5.85 q -1.2,3.1 -1.2,6.5 l 0.3,1.9 q 0.45,1.05 1.3,1.35 1.25,0.45 2.9,-0.9 3.35,-2.75 3.85,-6.45 l 0.3,-2.15 q 0.25,-1.25 1.1,-1.8 l 0.5,-0.35 1.35,0.05 0.25,0.25 0.7,0.6 0.5,0.25 h 1.1 l 1.15,-0.2 0.75,-0.6 1.05,-1.25 0.7,-1.75 q 0.4,-1.15 0.95,-1.55 0.85,-0.65 1.8,-0.35 0.55,0.15 0.9,0.6"
         fill="#000000"
         fill-rule="evenodd"
         stroke="none"
         id="path1" />
      <path
         d="M -33,6.85 -32.3,7 q 0.95,0.35 1.9,1.7 l 0.65,1 0.2,0.9 q 0.4,2.7 -0.7,5.3 l -0.55,1 -1.65,1.3 -0.1,0.1 q -0.5,-1.75 -0.65,-3.8 -0.2,-2.7 0.1,-6.7 L -33,6.85 M 13.15,2.3 11.7,1.5 Q 11.1,0.8 11.1,0 q 0,-0.9 0.7,-1.55 0.7,-0.65 1.6,-0.75 0.95,-0.05 1.8,0.6 Q 16,-1 16,0.05 16,1.15 15.1,1.8 14.3,2.45 13.15,2.3 M -24.8,22.2 q -0.55,0.7 -1.45,0.8 -0.85,0.15 -1.55,-0.45 l -0.7,-1 q -0.2,-0.65 0,-1.25 0.15,-0.6 0.65,-1 0.5,-0.4 1.15,-0.5 1.35,-0.15 2.05,1.05 0.7,1.25 -0.15,2.35"
         fill="#966969"
         fill-rule="evenodd"
         stroke="none"
         id="path2" />
      <path
         d="m -33,6.85 q 0.35,-3.8 1.1,-6.3 1.25,-4.35 5,-10.4 l 3.1,-4.6 q 1.85,-2.4 4.75,-4.9 l 5.3,-4.35 q 2.6,-2.15 4.55,-3 l 2.05,0.25 q 1.75,0.15 3.9,0.05 1.8,-0.1 2.75,-0.65 0.65,-0.35 1,-1 0.4,-0.65 0.25,-1.3 -0.2,-1.3 -1.75,-1.75 l -2.6,-0.2 -4.25,-0.15 q -2.5,-0.55 -3.7,-1.9 -0.6,-0.6 -0.55,-1.15 l 0.6,-0.85 q 1.75,-1.5 4.4,-1.1 2.1,0.35 4.3,1.85 l 2.3,1.3 q 1.75,0.4 2.35,-0.85 l 0.15,1.3 q 0.05,0.85 0.25,1.25 0.3,0.5 0.9,0.7 0.6,0.9 1.7,0.75 1.05,-0.1 1.6,-1.05 0.1,0.85 0.75,1.25 l 1.5,0.1 0.2,-0.05 0.65,0.3 1.65,0.4 1.65,0.2 q 2.15,0.35 4.35,1.9 l 3.75,3.15 q 3.95,3.85 5.6,6.5 l 2.4,4.9 q 2.7,6.7 3.35,12.4 0.9,6.8 -1.15,12.65 L 29.6,16.1 28.45,18.25 28,17.65 Q 26.65,16 24.65,15.2 l -4.05,-0.35 -1.8,0.6 q -2,0.95 -3.55,2.45 -0.8,-2.15 -2.2,-4.35 -0.85,-1.3 -1.65,-1.95 l -1,-1.25 Q 8.65,8.55 6.1,7.95 V 6.55 Q 5.85,5.65 4.8,4.8 L 3.85,4.15 2.5,4 1.15,4.15 0.2,4.65 -0.6,5.4 q -0.85,0.8 -1.5,1.9 l -0.55,1.05 -0.2,1.5 v 0.85 q -1.95,2.1 -3.3,5.6 -2.75,6.9 -2.3,14.15 l 0.35,2.2 -2.65,-0.1 -3.9,-0.15 q -1.5,-0.2 -4.05,-1.2 -9.7,-4 -12.85,-10.35 l -1,-2.55 0.1,-0.1 1.65,-1.3 0.55,-1 q 1.1,-2.6 0.7,-5.3 l -0.2,-0.9 -0.65,-1 Q -31.35,7.35 -32.3,7 L -33,6.85 m 33.6,-50.95 0.35,0.9 0.35,1.15 0.4,2.1 0.15,2.55 -0.2,-0.35 -1.35,-3.1 -0.3,-0.45 -0.3,-0.6 -0.8,-1.6 -0.65,-1.65 -0.2,-1.3 1.15,0.45 0.45,0.4 0.4,0.55 0.55,0.95 m 10.4,1.2 0.15,1 -0.05,1.05 -0.15,0.8 -0.35,1.45 -0.2,0.55 -2.35,4.2 -1.4,1.9 q -0.1,-1.4 0.2,-2.6 l 0.65,-2.3 0.55,-1.65 0.8,-1.6 1.95,-2.8 0.1,-0.1 0.1,0.1 m 8.25,22.4 -0.5,-1.75 q -0.95,-2.95 -2.65,-4.7 -1.35,-1.45 -2.8,-1.4 -0.7,0 -1.65,0.65 l -0.95,1.05 -0.3,1.25 q -0.3,1.75 -0.2,3 -0.45,0.1 -0.7,0.4 -0.3,0.45 -0.2,1.6 0.2,2.7 0.65,4 l 0.35,1.15 0.55,2.15 0.85,1.8 0.55,0.9 q 0.55,0.55 1.35,0.95 1,0.5 1.55,0.6 2.45,0.55 4.3,-1.4 1.55,-1.6 1.7,-4.25 0.05,-2.15 -0.95,-4.6 -0.4,-1 -0.95,-1.4 m -22.3,10.7 0.45,-2.6 0.35,-0.05 Q -0.6,-12.65 0.55,-14 1.5,-15.1 2,-16.85 l 0.15,-1.2 Q 2.2,-19 1.75,-19.85 l -1.3,-1.25 -1.05,-0.35 -2.2,-0.35 q -1.65,0 -3,1.25 l -0.05,0.1 -0.45,-0.15 q -2.3,-0.6 -5.7,1.15 -5.55,2.7 -9.35,7.5 h -0.15 l -1.3,0.9 -2,3 q -1.95,3.45 -2.75,5.65 -0.7,1.95 -0.9,3.95 -0.35,2.95 0.35,4.95 0.95,2.75 3.25,3.65 1.15,0.5 2.75,0.4 l 2.3,-0.5 1.5,-0.85 q 4.7,-3.2 6.1,-8.7 l 0.3,-1.2 2.3,0.05 2.1,-0.45 q 1.1,-0.45 2.4,-1.95 1.35,-1.5 1.9,-2.9 l 0.4,-1.3 q 0.3,-1.2 0.15,-1.8 L -3.05,-9.8 M 13.15,2.3 Q 14.3,2.45 15.1,1.8 16,1.15 16,0.05 16,-1 15.2,-1.7 14.35,-2.35 13.4,-2.3 12.5,-2.2 11.8,-1.55 11.1,-0.9 11.1,0 q 0,0.8 0.6,1.5 l 1.45,0.8 m -22.55,15 q 0.65,-1.9 -0.55,-3.45 l -1.4,-1.2 q -0.45,-0.35 -1.05,-0.6 -0.7,-0.3 -1.45,-0.25 -1.1,0.1 -1.9,0.75 -0.7,0.45 -1.5,1.45 l -1.25,2.05 -0.2,0.95 q -0.1,1.3 0.3,2 l 0.55,0.7 q 1.4,1.4 3.55,1.5 2.1,0 3.6,-1.35 l 0.55,-0.65 0.4,-1.15 0.35,-0.75 m -15.4,4.9 q 0.85,-1.1 0.15,-2.35 -0.7,-1.2 -2.05,-1.05 -0.65,0.1 -1.15,0.5 -0.5,0.4 -0.65,1 -0.2,0.6 0,1.25 l 0.7,1 q 0.7,0.6 1.55,0.45 0.9,-0.1 1.45,-0.8"
         fill="#b99b9b"
         fill-rule="evenodd"
         stroke="none"
         id="path3" />
      <path
         d="m -8.1,32.65 -0.35,-2.2 Q -8.9,23.2 -6.15,16.3 -4.8,12.8 -2.85,10.7 V 9.85 L -2.65,8.35 -2.1,7.3 Q -1.45,6.2 -0.6,5.4 L 0.2,4.65 1.15,4.15 2.5,4 3.85,4.15 4.8,4.8 q 1.05,0.85 1.3,1.75 v 1.4 q 2.55,0.6 4.3,2.4 l 1,1.25 q 0.8,0.65 1.65,1.95 1.4,2.2 2.2,4.35 1.55,-1.5 3.55,-2.45 l 1.8,-0.6 4.05,0.35 q 2,0.8 3.35,2.45 l 0.45,0.6 -2.1,2.85 q -3.1,3.1 -8.8,3.9 l -1.3,0.3 -0.3,-0.1 -0.35,-0.05 -1.1,0.2 q -1.1,0.55 -1.2,1.8 v 0.4 l 0.15,1.05 0.05,0.65 v 0.2 l -0.35,1.4 Q 12.7,32 11.85,32.75 L 10.6,33.6 9.45,34 8.3,33.85 Q 6.6,33.45 6.05,32.6 L 5.5,31.5 5.2,31.2 Q 4.85,30.9 4.3,30.95 L 3.9,30.85 Q 2.65,30.7 1.9,31.8 1.4,32.45 1.4,34.2 L 1.35,35.85 1.3,37 1.1,38.05 q -0.35,1.25 -1.3,1.75 -1.3,0.65 -3.2,-0.45 l -0.9,-0.8 -0.15,-0.8 v -1.7 -0.7 l 0.3,-3.55 q 0,-1.05 -0.5,-1.55 -0.4,-0.3 -0.95,-0.25 -0.55,0.1 -0.8,0.5 v 0.05 l -0.45,1.2 q -0.15,0.4 -0.65,1 l -0.6,-0.1 M 10.2,-22.4 q -0.1,-1.25 0.2,-3 l 0.3,-1.25 0.95,-1.05 q 0.95,-0.65 1.65,-0.65 1.45,-0.05 2.8,1.4 1.7,1.75 2.65,4.7 l 0.5,1.75 -0.65,-0.3 q -0.75,-0.1 -1.15,0.4 L 17,-19.45 q -0.15,0.75 0,2.65 0.15,1.7 -0.15,2.6 -0.3,0.95 -1.05,0.95 -0.55,-0.05 -0.95,-1 l -2.95,-6.85 -0.75,-1.2 -0.9,-0.15 -0.05,0.05 m -31.55,10.45 q 3.8,-4.8 9.35,-7.5 3.4,-1.75 5.7,-1.15 l 0.45,0.15 0.05,-0.1 q 1.35,-1.25 3,-1.25 l 2.2,0.35 1.05,0.35 1.3,1.25 q 0.45,0.85 0.4,1.8 L 2,-16.85 q -0.5,1.75 -1.45,2.85 -1.15,1.35 -2.8,1.55 l -0.35,0.05 -0.45,2.6 q -0.35,-0.45 -0.9,-0.6 -0.95,-0.3 -1.8,0.35 -0.55,0.4 -0.95,1.55 l -0.7,1.75 -1.05,1.25 -0.75,0.6 -1.15,0.2 h -1.1 l -0.5,-0.25 -0.7,-0.6 -0.25,-0.25 -1.35,-0.05 -0.5,0.35 q -0.85,0.55 -1.1,1.8 l -0.3,2.15 q -0.5,3.7 -3.85,6.45 -1.65,1.35 -2.9,0.9 -0.85,-0.3 -1.3,-1.35 l -0.3,-1.9 q 0,-3.4 1.2,-6.5 l 2.9,-5.85 q 0.6,-0.95 0.3,-1.6 l -0.55,-0.5 -0.7,-0.05 m 11.95,29.25 -0.35,0.75 -0.4,1.15 -0.55,0.65 q -1.5,1.35 -3.6,1.35 -2.15,-0.1 -3.55,-1.5 L -18.4,19 q -0.4,-0.7 -0.3,-2 l 0.2,-0.95 1.25,-2.05 q 0.8,-1 1.5,-1.45 0.8,-0.65 1.9,-0.75 0.75,-0.05 1.45,0.25 0.6,0.25 1.05,0.6 l 1.4,1.2 q 1.2,1.55 0.55,3.45"
         fill="#774444"
         fill-rule="evenodd"
         stroke="none"
         id="path4" />
    </g>
    <g
       id="sprite1"
       transform="translate(17.4,15.85)">
      <use
         ffdec:characterId="31"
         height="57.200001"
         transform="matrix(0.5366,0,0,0.5366,-16.6582,-14.546)"
         width="70.75"
         xlink:href="#sprite2"
         id="use4" />
    </g>
    <g
       id="sprite2"
       transform="translate(-8.65,-10.35)">
      <use
         ffdec:characterId="30"
         height="57.200001"
         transform="translate(8.65,10.35)"
         width="70.75"
         xlink:href="#shape1"
         id="use5" />
    </g>
    <g
       id="shape1"
       transform="translate(-8.65,-10.35)">
      <path
         d="m 14.8,41.7 q 0.65,-1.75 2.65,-2.5 1.8,-0.8 3.7,-0.25 1.15,0.45 2.25,1.2 l 0.9,0.4 q 1.65,0.9 2.85,2.5 L 37.8,30.1 q 2.35,-2.8 3.75,-3.95 1.5,-1.15 4.25,-2.4 18.2,-8.85 27.65,-12.6 2.15,-0.8 3.25,-0.8 h 0.8 l 1.9,2.4 -0.2,0.8 q -0.2,1.1 -1.55,3 -5.85,8.25 -18.85,23.8 -1.85,2.35 -3.35,3.5 -1.4,1.15 -4.75,2.75 l -15.15,7.15 q 1.2,1.6 1.75,3.4 l 0.2,1 0.55,2.5 q 0.1,1.95 -1.1,3.55 -1.2,1.65 -3.05,1.9 l -1.3,0.05 q -1.65,0.2 -3.45,-0.65 -1.85,-0.9 -3,-2.6 L 25,60.95 23.8,62.1 q -2.6,2.85 -4.3,3.95 -2.85,1.8 -5.5,1.45 l -1.65,-0.5 -1.2,-0.7 -0.2,-0.2 q -1,-0.85 -1.6,-1.9 L 9.25,64 9.15,63.8 8.75,62.4 q -0.2,-0.8 -0.05,-1.7 0.25,-2.65 2.7,-5.05 1.5,-1.3 4.9,-3.15 L 17.7,51.55 16.05,50 q -1.35,-1.5 -1.8,-3.6 -0.4,-1.85 0.25,-3.45 l 0.3,-1.25"
         fill="#000000"
         fill-opacity="0.372549"
         fill-rule="evenodd"
         stroke="none"
         id="path5" />
    </g>
  </defs>
</svg>
