<?xml version="1.0" encoding="UTF-8" standalone="no"?>
<svg
   ffdec:objectType="frame"
   height="74.022293"
   width="84.632149"
   version="1.1"
   id="svg5"
   xmlns:xlink="http://www.w3.org/1999/xlink"
   xmlns="http://www.w3.org/2000/svg"
   xmlns:svg="http://www.w3.org/2000/svg"
   xmlns:ffdec="https://www.free-decompiler.com/flash">
  <g
     transform="translate(43.025676,39.800379)"
     id="g1">
    <use
       ffdec:characterId="17"
       height="119.15"
       id="rarity"
       transform="translate(-58.5,-60.65)"
       width="119.15"
       xlink:href="#sprite0" />
    <use
       ffdec:characterId="523"
       height="74"
       transform="translate(-43.05,-39.8)"
       width="84.650002"
       xlink:href="#shape0"
       id="use1" />
  </g>
  <defs
     id="defs5">
    <g
       id="shape0"
       transform="translate(42.65,39)">
      <path
         d="m -7.2,-19 7.05,-1.2 v -0.05 L 0,-21.55 0.4,-23 0.6,-23.45 q 0.25,-2.85 -0.3,-5.65 -1,-4.85 -5.8,-5.15 -2.4,0.7 -3.8,2.75 -1.45,2.15 -2.05,4.7 l -0.05,8.9 4.2,-1.1 M 3.1,30.85 q -1.5,1.45 -3.6,1.9 -4.85,1.05 -7.8,-1.85 -1.1,1.1 -2.7,1.75 -15.05,6.35 -27.3,-4.3 -1.8,-1.55 -2.95,-3.55 -0.95,-1.6 0.35,-2.95 3.85,-3.9 8.5,-6.75 l -0.5,-1.65 q -0.45,-2.25 0.7,-4.3 L -32,8.9 q -6.95,0.75 -9.75,-5.4 -1.8,-3.9 0.1,-7.85 2.6,-5.65 8.65,-7 h 0.25 l -0.2,-1.1 q -0.75,-0.95 -0.75,-2.15 -0.05,-2.6 0.3,-5.15 l 0.4,-0.85 q 3.05,-9.2 13.1,-8.5 2,0.1 3.45,1.4 1.1,-3.9 3.65,-7.2 2.6,-3.4 6.8,-4.1 7.4,-0.05 9.9,6.5 3.45,-5 9.7,-4.75 5.7,0.25 7.25,5.85 0.4,1.5 0.2,3.1 8,-6.15 15.55,0 0.9,0.75 1.35,1.95 2.05,5.7 -1.65,10.8 -1.5,2.05 -3.45,3.65 9.4,1.7 9.15,10.7 -0.2,6.75 -6.8,8.9 -3.05,1 -6,0.9 2.8,0.9 5.4,2.4 0.55,0.3 0.4,0.95 -2.6,8.8 -10.8,13.5 -3.1,1.8 -6.55,2.55 -6.25,1.4 -12.15,-0.15 -0.9,1.6 -2.4,3 M -16.6,-17.8 q -1,-3.55 -3.6,-6.25 -3.25,-0.85 -5.6,1.5 l -1.5,1.5 -0.05,0.25 -0.4,1.35 -0.7,1.2 -0.05,0.25 v 0.85 1.25 0.25 q 0.5,2.8 2.7,4.4 l 1.65,1.5 q 3.65,-3.9 8.35,-6.3 -0.5,-0.7 -0.8,-1.75 m -12.25,16.55 q 0.5,-2.25 1.6,-4.25 -1.25,-0.35 -2.3,-1.2 -2.65,-0.7 -5.2,0.85 l -0.95,1.05 q -0.9,0.9 -1.3,2.15 -0.3,1 -0.9,1.95 v 0.2 0.2 0.45 0.4 V 1 1.2 l 0.25,0.45 0.65,1.1 1.2,1.05 0.2,0.15 0.3,0.05 0.75,0.15 1,0.3 0.3,0.1 q 2.5,-0.4 4.75,-1.45 h 0.05 q -0.95,-2.05 -0.4,-4.35 m 34.3,-12.7 q -13.7,-0.35 -24.35,7.5 L -21,-4.3 q -1.35,1.95 -2.1,4.15 l 0.1,0.2 0.15,0.25 0.15,0.2 0.25,0.45 0.15,0.2 q 8.5,4.6 18.7,3.5 L 1.1,4.3 q 10.15,-0.55 18.5,-5.7 0.55,-0.35 0.8,-1.05 L 20.95,-3.5 21,-3.95 21.05,-5 20.7,-6.75 20.4,-7.8 v -0.65 q -0.75,-2.45 -3.1,-3.5 -4.3,-2 -9.15,-1.95 l -2.7,-0.05 m -14.8,6.65 q 6.15,2 2.45,6.65 -1.25,1.5 -3.25,1.4 -1.75,-0.1 -2.95,-1.3 -2,-1.95 -0.4,-4.4 1.5,-2.35 4.15,-2.35 m 31.2,-9 q 2,1.25 3.15,3.3 0.75,-0.45 1.85,-0.7 1.5,-0.3 2.75,-1.25 4.1,-2.95 4.9,-7.85 -0.25,-0.4 -0.35,-0.85 l -0.5,-1.3 -0.5,-0.85 -0.4,-0.2 -1.55,-0.6 q -5.05,-0.3 -8.65,3.45 l -0.2,0.4 -0.7,1.1 -0.7,0.6 q -0.45,2.05 -1.5,3.4 l 2.4,1.35 m -5.95,-6.35 q 1.2,-1.65 0.75,-3.85 -0.25,-1.3 -0.2,-2.6 l -0.4,-0.9 -0.6,-1.5 -0.7,-0.85 -5.3,0.25 q -1.5,1.1 -2.55,2.7 -0.95,1.45 -1.6,3.1 l 0.1,1.25 0.35,2.15 v 0.85 l 0.4,0.9 0.15,0.35 q 4.25,0 8.2,1.2 0.3,-1.6 1.4,-3.05 M 7.95,-9.1 q 6.15,0.35 4.35,5.65 -0.45,1.2 -1.65,1.55 -3.5,0.85 -5.55,-1.8 -0.2,-1.2 -0.05,-2.35 0.4,-2.6 2.9,-3.05 m 16.55,11 -0.4,0.6 q 6.2,3.45 12.3,-0.95 l 0.1,-0.2 q 0.1,-0.45 0.45,-0.8 l 0.45,-0.7 0.1,-0.2 v -0.45 -1.05 -1.3 l -0.15,-0.2 -0.5,-0.65 -0.2,-0.45 q -4.7,-3.3 -10.45,-4 1.75,5.5 -1.7,10.35 M 17.35,7.1 23.2,7.3 22.9,7.15 Q 21.25,6.45 20.65,5.6 19.1,6.55 17.35,7.1 M 5.25,9.9 6.05,12 Q 6.55,11.65 7.1,11.5 L 8,10.7 11.7,8.7 5.25,9.9 m -8.4,2.35 -1.05,2.25 -1.25,5.85 -0.7,2.55 0.25,1.9 0.75,1.5 1,0.65 0.6,0.6 q 2.1,0.35 3.95,-0.95 l 0.25,-0.4 0.6,-0.9 Q 1.5,22.4 1.2,19.5 L 1.1,16.75 Q 0.6,15.95 0.6,15 v -1.5 q -0.9,-1.8 -0.7,-3.05 l -2.7,0.1 -0.35,1.7 M 6.95,19.7 7,20 l 3.45,-1.75 0.25,-0.2 0.2,-0.2 2.05,-0.55 3,-1.65 0.95,-0.4 q 0.8,0.05 0.8,0.75 l -0.1,0.45 Q 12.5,19.2 8,22.8 h 0.7 q 12.7,1.25 20,-8.85 -5.85,-2.5 -12.45,-1.45 -2.9,0.45 -5.5,1.8 L 10.5,14.5 7.85,16.25 6.7,17.15 6.95,19.7 M -7.2,10.45 -13.5,9.8 l -0.05,0.25 q 2.9,0.55 5.55,2 l 0.8,-1.6 M -22.7,7.8 q -1.3,-0.35 -2.35,-1 l -1.2,0.85 -1.45,2.5 -1.1,2.35 0.25,0.45 4.45,-1.9 q 1.9,-0.7 3.65,-1.1 l 2.55,-0.2 h 1.4 V 9.3 L -17.55,9.1 -22.7,7.8 m 11.15,7.7 -0.55,-0.05 -7.55,-0.3 q -4,1.25 -7.75,3.15 -4,2.1 -7.35,5.15 10.3,9.9 22.75,2.95 l 0.95,-0.4 -0.05,-0.15 q -2.1,0 -4.3,-0.85 -1.4,-0.55 -2.95,-0.85 -2.3,-0.4 -4.3,-1.4 l -0.3,-0.45 -0.2,-0.4 -0.05,-0.25 0.25,-0.6 0.45,-0.3 0.35,-0.1 V 20.6 q 5.6,0.3 11.05,1.35 0.55,-3 1.45,-5.75 l -1.9,-0.7"
         fill="#000000"
         fill-rule="evenodd"
         stroke="none"
         id="path1" />
      <path
         d="m -9.35,-7.3 q -2.65,0 -4.15,2.35 -1.6,2.45 0.4,4.4 1.2,1.2 2.95,1.3 2,0.1 3.25,-1.4 3.7,-4.65 -2.45,-6.65 m 14.8,-6.65 2.7,0.05 q 4.85,-0.05 9.15,1.95 2.35,1.05 3.1,3.5 V -7.8 L 20.7,-6.75 21.05,-5 21,-3.95 20.95,-3.5 20.4,-2.45 q -0.25,0.7 -0.8,1.05 -8.35,5.15 -18.5,5.7 l -4.7,0.35 q -10.2,1.1 -18.7,-3.5 L -22.45,0.95 -22.7,0.5 -22.85,0.3 -23,0.05 l -0.1,-0.2 q 0.75,-2.2 2.1,-4.15 l 2.1,-2.15 q 10.65,-7.85 24.35,-7.5 m 2.5,4.85 q -2.5,0.45 -2.9,3.05 -0.15,1.15 0.05,2.35 2.05,2.65 5.55,1.8 1.2,-0.35 1.65,-1.55 1.8,-5.3 -4.35,-5.65"
         fill="#d6cba9"
         fill-rule="evenodd"
         stroke="none"
         id="path2" />
      <path
         d="M 6.95,19.7 6.7,17.15 7.85,16.25 10.5,14.5 10.75,14.3 q 2.6,-1.35 5.5,-1.8 6.6,-1.05 12.45,1.45 -7.3,10.1 -20,8.85 H 8 q 4.5,-3.6 9.6,-6.35 L 17.7,16 q 0,-0.7 -0.8,-0.75 l -0.95,0.4 -3,1.65 -2.05,0.55 -0.2,0.2 -0.25,0.2 L 7,20 6.95,19.7 m -10.1,-7.45 0.35,-1.7 2.7,-0.1 Q -0.3,11.7 0.6,13.5 V 15 q 0,0.95 0.5,1.75 l 0.1,2.75 q 0.3,2.9 0.05,5.8 l -0.6,0.9 -0.25,0.4 q -1.85,1.3 -3.95,0.95 l -0.6,-0.6 -1,-0.65 -0.75,-1.5 -0.25,-1.9 0.7,-2.55 1.25,-5.85 1.05,-2.25 m -8.4,3.25 1.9,0.7 q -0.9,2.75 -1.45,5.75 -5.45,-1.05 -11.05,-1.35 v 0.05 l -0.35,0.1 -0.45,0.3 -0.25,0.6 0.05,0.25 0.2,0.4 0.3,0.45 q 2,1 4.3,1.4 1.55,0.3 2.95,0.85 2.2,0.85 4.3,0.85 L -11.05,26 -12,26.4 q -12.45,6.95 -22.75,-2.95 3.35,-3.05 7.35,-5.15 3.75,-1.9 7.75,-3.15 l 7.55,0.3 0.55,0.05"
         fill="#94a295"
         fill-rule="evenodd"
         stroke="none"
         id="path3" />
      <path
         d="m -7.2,-19 -4.2,1.1 0.05,-8.9 q 0.6,-2.55 2.05,-4.7 1.4,-2.05 3.8,-2.75 4.8,0.3 5.8,5.15 0.55,2.8 0.3,5.65 L 0.4,-23 0,-21.55 l -0.15,1.3 v 0.05 L -7.2,-19 m -21.65,17.75 q -0.55,2.3 0.4,4.35 h -0.05 q -2.25,1.05 -4.75,1.45 l -0.3,-0.1 -1,-0.3 L -35.3,4 -35.6,3.95 -35.8,3.8 -37,2.75 -37.65,1.65 -37.9,1.2 V 1 0.55 0.15 -0.3 -0.5 -0.7 q 0.6,-0.95 0.9,-1.95 0.4,-1.25 1.3,-2.15 l 0.95,-1.05 q 2.55,-1.55 5.2,-0.85 1.05,0.85 2.3,1.2 -1.1,2 -1.6,4.25 M -16.6,-17.8 q 0.3,1.05 0.8,1.75 -4.7,2.4 -8.35,6.3 l -1.65,-1.5 q -2.2,-1.6 -2.7,-4.4 V -15.9 -17.15 -18 l 0.05,-0.25 0.7,-1.2 0.4,-1.35 0.05,-0.25 1.5,-1.5 q 2.35,-2.35 5.6,-1.5 2.6,2.7 3.6,6.25 m 32.5,-4.85 q -1.1,1.45 -1.4,3.05 -3.95,-1.2 -8.2,-1.2 l -0.15,-0.35 -0.4,-0.9 V -22.9 L 5.4,-25.05 5.3,-26.3 q 0.65,-1.65 1.6,-3.1 1.05,-1.6 2.55,-2.7 l 5.3,-0.25 0.7,0.85 0.6,1.5 0.4,0.9 q -0.05,1.3 0.2,2.6 0.45,2.2 -0.75,3.85 m 5.95,6.35 -2.4,-1.35 q 1.05,-1.35 1.5,-3.4 l 0.7,-0.6 0.7,-1.1 0.2,-0.4 q 3.6,-3.75 8.65,-3.45 l 1.55,0.6 0.4,0.2 0.5,0.85 0.5,1.3 q 0.1,0.45 0.35,0.85 -0.8,4.9 -4.9,7.85 -1.25,0.95 -2.75,1.25 -1.1,0.25 -1.85,0.7 -1.15,-2.05 -3.15,-3.3 M 5.25,9.9 11.7,8.7 8,10.7 7.1,11.5 Q 6.55,11.65 6.05,12 L 5.25,9.9 m 12.1,-2.8 q 1.75,-0.55 3.3,-1.5 0.6,0.85 2.25,1.55 L 23.2,7.3 17.35,7.1 M 24.5,1.9 q 3.45,-4.85 1.7,-10.35 5.75,0.7 10.45,4 l 0.2,0.45 0.5,0.65 0.15,0.2 v 1.3 1.05 0.45 l -0.1,0.2 -0.45,0.7 Q 36.6,0.9 36.5,1.35 l -0.1,0.2 Q 30.3,5.95 24.1,2.5 l 0.4,-0.6 m -47.2,5.9 5.15,1.3 1.05,0.2 v 0.45 h -1.4 l -2.55,0.2 q -1.75,0.4 -3.65,1.1 l -4.45,1.9 -0.25,-0.45 1.1,-2.35 1.45,-2.5 1.2,-0.85 q 1.05,0.65 2.35,1 m 15.5,2.65 -0.8,1.6 q -2.65,-1.45 -5.55,-2 l 0.05,-0.25 6.3,0.65"
         fill="#d3d3d3"
         fill-rule="evenodd"
         stroke="none"
         id="path4" />
    </g>
    <g
       id="sprite1"
       transform="translate(17.4,15.85)">
      <use
         ffdec:characterId="31"
         height="57.200001"
         transform="matrix(0.5366,0,0,0.5366,-16.6582,-14.546)"
         width="70.75"
         xlink:href="#sprite2"
         id="use4" />
    </g>
    <g
       id="sprite2"
       transform="translate(-8.65,-10.35)">
      <use
         ffdec:characterId="30"
         height="57.200001"
         transform="translate(8.65,10.35)"
         width="70.75"
         xlink:href="#shape1"
         id="use5" />
    </g>
    <g
       id="shape1"
       transform="translate(-8.65,-10.35)">
      <path
         d="m 14.8,41.7 q 0.65,-1.75 2.65,-2.5 1.8,-0.8 3.7,-0.25 1.15,0.45 2.25,1.2 l 0.9,0.4 q 1.65,0.9 2.85,2.5 L 37.8,30.1 q 2.35,-2.8 3.75,-3.95 1.5,-1.15 4.25,-2.4 18.2,-8.85 27.65,-12.6 2.15,-0.8 3.25,-0.8 h 0.8 l 1.9,2.4 -0.2,0.8 q -0.2,1.1 -1.55,3 -5.85,8.25 -18.85,23.8 -1.85,2.35 -3.35,3.5 -1.4,1.15 -4.75,2.75 l -15.15,7.15 q 1.2,1.6 1.75,3.4 l 0.2,1 0.55,2.5 q 0.1,1.95 -1.1,3.55 -1.2,1.65 -3.05,1.9 l -1.3,0.05 q -1.65,0.2 -3.45,-0.65 -1.85,-0.9 -3,-2.6 L 25,60.95 23.8,62.1 q -2.6,2.85 -4.3,3.95 -2.85,1.8 -5.5,1.45 l -1.65,-0.5 -1.2,-0.7 -0.2,-0.2 q -1,-0.85 -1.6,-1.9 L 9.25,64 9.15,63.8 8.75,62.4 q -0.2,-0.8 -0.05,-1.7 0.25,-2.65 2.7,-5.05 1.5,-1.3 4.9,-3.15 L 17.7,51.55 16.05,50 q -1.35,-1.5 -1.8,-3.6 -0.4,-1.85 0.25,-3.45 l 0.3,-1.25"
         fill="#000000"
         fill-opacity="0.372549"
         fill-rule="evenodd"
         stroke="none"
         id="path5" />
    </g>
  </defs>
</svg>
