<?xml version="1.0" encoding="UTF-8" standalone="no"?>
<svg
   ffdec:objectType="frame"
   height="91.511108"
   width="97.228424"
   version="1.1"
   id="svg6"
   xmlns:xlink="http://www.w3.org/1999/xlink"
   xmlns="http://www.w3.org/2000/svg"
   xmlns:svg="http://www.w3.org/2000/svg"
   xmlns:ffdec="https://www.free-decompiler.com/flash">
  <g
     transform="translate(48.57451,48.511111)"
     id="g1">
    <use
       ffdec:characterId="17"
       height="119.15"
       id="rarity"
       transform="translate(-58.5,-60.65)"
       width="119.15"
       xlink:href="#sprite0" />
    <use
       ffdec:characterId="601"
       height="108.15"
       id="part_0"
       transform="translate(-56.6,-55.5)"
       width="112.15"
       xlink:href="#sprite1" />
  </g>
  <defs
     id="defs6">
    <g
       id="sprite1"
       transform="translate(11.3,10.35)">
      <clipPath
         id="clipPath0">
        <path
           d="M 74.22,6.18 73.81,6.19 73.41,6.22 73.02,6.26 72.64,6.32 72.27,6.39 71.91,6.48 71.56,6.59 71.21,6.71 70.88,6.85 70.55,7.01 70.24,7.18 69.93,7.37 69.64,7.58 69.35,7.8 69.07,8.04 68.8,8.3 67.35,9.8 67.14,10 l -0.21,0.18 -0.22,0.16 -0.21,0.14 -0.21,0.11 -0.22,0.09 -0.21,0.07 -0.21,0.05 -0.18,0.02 -0.19,0.01 -0.2,-0.01 L 64.86,10.8 64.64,10.75 64.42,10.7 64.18,10.62 63.95,10.53 63.7,10.42 63.45,10.3 63.03,10.09 62.54,9.81 61.96,9.47 61.3,9.05 60.98,8.87 60.65,8.71 60.32,8.56 59.99,8.42 59.66,8.29 59.33,8.17 58.99,8.06 58.65,7.97 58.31,7.88 57.97,7.81 57.63,7.75 57.28,7.69 56.93,7.65 56.58,7.63 56.23,7.61 55.88,7.6 55.23,7.62 54.58,7.68 53.92,7.77 53.25,7.9 52.71,8.03 52.19,8.19 51.68,8.36 51.2,8.55 50.73,8.76 50.29,8.99 49.86,9.24 49.45,9.51 49.06,9.8 l -0.37,0.31 -0.36,0.32 -0.33,0.35 -0.32,0.36 -0.29,0.39 -0.28,0.4 -0.26,0.42 -0.22,0.4 -0.2,0.41 -0.17,0.42 -0.15,0.42 -0.12,0.43 -0.09,0.43 -0.06,0.44 -0.04,0.45 -0.03,0.47 v 0.46 l 0.03,0.45 0.06,0.45 0.1,0.43 0.13,0.42 0.16,0.42 0.2,0.4 0.12,0.22 0.15,0.22 0.17,0.23 0.19,0.24 0.22,0.25 0.24,0.26 0.26,0.26 0.29,0.27 0.64,0.57 0.73,0.59 0.82,0.63 0.92,0.66 0.42,0.31 0.4,0.3 0.38,0.3 0.35,0.3 0.33,0.29 0.31,0.3 0.29,0.29 0.27,0.28 0.25,0.29 0.22,0.29 0.2,0.28 0.18,0.28 0.16,0.27 0.13,0.28 0.12,0.27 0.09,0.27 0.06,0.24 0.05,0.24 0.04,0.25 0.03,0.26 0.02,0.27 v 0.28 l -0.01,0.29 -0.02,0.3 -0.03,0.3 -0.04,0.31 -0.12,0.65 -0.17,0.69 -0.21,0.72 -0.32,0.99 -0.34,0.98 -0.35,0.97 -0.37,0.96 -0.39,0.96 -0.41,0.94 -0.42,0.94 -0.44,0.92 -0.45,0.92 -0.47,0.91 -0.49,0.9 -0.51,0.89 -0.52,0.88 -0.54,0.87 -0.56,0.87 -0.57,0.85 -0.59,0.85 -0.61,0.84 -0.62,0.82 -0.64,0.81 -0.64,0.79 -0.66,0.78 -0.68,0.77 -0.69,0.75 -0.7,0.74 -0.71,0.73 -0.73,0.71 -0.74,0.7 -0.75,0.69 -0.77,0.67 -0.78,0.66 -0.79,0.64 -0.59,0.46 -0.6,0.46 -0.62,0.46 -0.63,0.45 -0.65,0.45 -0.66,0.45 -1.36,0.9 -1.43,0.88 -1.48,0.87 -1.53,0.87 -1.6,0.85 -1.13,0.57 -1.24,0.6 -1.34,0.64 -1.45,0.68 -1.56,0.71 -1.67,0.75 -1.78,0.78 -1.88,0.82 -1.25,0.57 -1.05,0.5 -0.85,0.45 -0.35,0.2 -0.3,0.18 -0.5,0.3 L 8.68,74.92 8.25,75.24 7.84,75.57 7.46,75.92 7.11,76.27 6.79,76.63 6.5,77 6.33,77.27 6.2,77.53 6.1,77.77 6.04,78 l -0.03,0.22 0.01,0.21 0.05,0.19 0.08,0.18 0.1,0.15 0.11,0.13 0.14,0.11 0.15,0.09 0.16,0.07 0.19,0.05 0.2,0.04 0.22,0.01 0.26,-0.02 0.29,-0.03 0.3,-0.06 0.33,-0.09 2.6,-0.81 2.51,-0.82 2.43,-0.82 2.35,-0.83 2.26,-0.82 2.18,-0.83 2.1,-0.83 2.02,-0.84 1.2,-0.51 1.19,-0.52 1.17,-0.52 1.15,-0.53 1.14,-0.54 1.12,-0.54 1.1,-0.56 1.08,-0.55 1.07,-0.57 1.05,-0.57 1.03,-0.58 1.01,-0.59 1,-0.6 0.98,-0.6 0.96,-0.6 0.95,-0.62 1.12,-0.75 1.1,-0.77 1.08,-0.77 1.06,-0.79 1.03,-0.79 1.01,-0.8 0.98,-0.82 0.97,-0.82 0.94,-0.83 0.92,-0.84 0.89,-0.85 0.87,-0.87 0.85,-0.87 0.83,-0.88 0.81,-0.89 0.78,-0.9 0.76,-0.91 0.73,-0.92 0.72,-0.93 0.69,-0.93 0.66,-0.95 0.65,-0.96 0.62,-0.97 0.6,-0.97 0.58,-0.99 0.55,-1 0.53,-1 0.51,-1.02 0.49,-1.03 0.46,-1.03 0.44,-1.05 0.42,-1.05 0.23,-0.59 0.23,-0.53 0.22,-0.48 0.22,-0.43 0.21,-0.37 0.2,-0.32 0.2,-0.27 0.19,-0.21 0.28,-0.27 0.32,-0.25 0.36,-0.23 0.39,-0.23 0.43,-0.2 0.47,-0.19 0.51,-0.17 0.54,-0.16 3.7,-1.2 0.45,-0.24 0.44,-0.27 0.42,-0.3 0.41,-0.32 0.38,-0.36 0.37,-0.38 0.36,-0.41 0.33,-0.44 0.32,-0.48 0.31,-0.5 0.28,-0.52 0.27,-0.56 0.25,-0.59 0.24,-0.61 0.22,-0.65 0.2,-0.67 0.12,-0.41 0.11,-0.41 0.1,-0.41 0.08,-0.41 0.08,-0.41 0.06,-0.4 0.06,-0.41 0.04,-0.4 0.03,-0.41 0.02,-0.4 0.01,-0.4 v -0.4 L 83.55,16.04 83.53,15.64 83.49,15.24 83.45,14.85 83.38,14.41 83.3,13.98 83.21,13.56 83.1,13.15 82.98,12.75 82.85,12.36 82.71,11.98 82.55,11.61 82.38,11.25 82.2,10.9 82.01,10.56 81.8,10.23 81.58,9.91 81.35,9.59 81.11,9.29 80.85,9 80.55,8.69 80.24,8.4 79.92,8.12 79.59,7.87 79.25,7.63 78.9,7.41 78.54,7.21 78.16,7.03 77.78,6.86 77.39,6.71 76.98,6.58 76.57,6.47 76.14,6.37 75.7,6.3 75.26,6.24 74.8,6.2 Z"
           id="path1" />
      </clipPath>
      <g
         clip-path="url(#clipPath0)"
         id="g2">
        <use
           ffdec:characterId="599"
           height="108.15"
           id="bg"
           transform="translate(-11.3,-10.35)"
           width="112.15"
           xlink:href="#sprite2" />
      </g>
      <use
         ffdec:characterId="600"
         height="91.900002"
         transform="translate(-3.25,-3.35)"
         width="97.199997"
         xlink:href="#shape1"
         id="use2" />
    </g>
    <g
       id="sprite2">
      <use
         ffdec:characterId="589"
         height="108.15"
         width="112.15"
         xlink:href="#shape0"
         id="use3" />
    </g>
    <g
       id="shape0">
      <path
         d="M 0,0 H 112.15 V 108.15 H 0 V 0"
         fill="#111111"
         fill-rule="evenodd"
         stroke="none"
         id="path3" />
    </g>
    <g
       id="shape1"
       transform="translate(3.25,3.35)">
      <path
         d="M 65.65,10.8 Q 64.7,10.95 63.45,10.3 62.7,9.95 61.3,9.05 57.55,6.95 53.25,7.9 q -4.4,1 -6.4,4.45 -0.95,1.6 -1.05,3.4 -0.2,1.9 0.65,3.5 0.9,1.7 4.75,4.4 3.45,2.45 4.1,4.6 0.55,1.85 -0.4,4.8 -2.5,7.95 -7.15,14.75 -4.7,6.85 -11.1,11.95 -4.65,3.7 -11.15,7.1 -4.3,2.2 -12.05,5.55 -2.7,1.2 -3.8,1.9 -2.05,1.2 -3.15,2.7 -0.75,1.1 -0.35,1.8 0.55,1 2.45,0.45 10.55,-3.25 18.45,-6.6 9.7,-4.05 17.2,-9 18.15,-12 24.65,-28.95 0.95,-2.45 1.7,-3.2 1.05,-1.1 3.3,-1.7 l 3.7,-1.2 q 3.7,-1.8 5.25,-7.3 1,-3.3 0.6,-6.45 Q 82.95,11.3 80.85,9 78.5,6.45 74.8,6.2 71.1,6 68.8,8.3 l -1.45,1.5 q -0.85,0.85 -1.7,1 M 86.7,6.9 q 3.65,5.4 2.8,12.9 -0.6,5.4 -3.4,9.45 -3.05,4.5 -7.75,5.75 l -0.35,0.1 -0.25,0.05 -1,0.3 q -0.85,0.3 -1.4,0.7 -0.45,0.4 -1.1,1.75 l -0.3,0.6 -0.4,0.95 Q 66.3,56 48.45,67.95 34.55,77.1 12.1,84.1 9.6,84.95 8,85.05 5.6,85.3 3.85,84.5 1.85,83.5 0.8,81.3 -0.25,79.2 0.05,77 0.5,72.95 4.45,69.95 6.8,68.3 12,66.15 19.25,63.1 24.15,60.45 30.5,56.9 35,52.85 40.1,48.3 43.7,42.4 46.4,37.95 48.05,33.1 L 49,29.75 46.8,28.2 43.45,25.45 q -2.8,-2.7 -3.75,-5.55 -0.85,-2.7 -0.25,-5.85 0.7,-3.9 3.2,-7.05 2.5,-3.15 6.15,-4.65 3.7,-1.5 7.85,-1.1 4.25,0.4 7.8,2.5 2.2,-2.15 5.3,-3.1 3.05,-0.95 6.25,-0.5 3.15,0.45 6,2.25 2.85,1.75 4.7,4.5"
         fill="#000000"
         fill-rule="evenodd"
         stroke="none"
         id="path4" />
      <path
         d="m 61.35,62.55 q -3.8,4 -7.3,6.55 -3.4,2.5 -11,6.3 -9.55,4.75 -15.7,7.25 -8.8,3.6 -16.4,5.25 L 3.1,88.15 Q 1.3,87.6 -0.2,86.4 -1.65,85.1 -2.45,83.4 -3.9,80.2 -2.8,76.35 -1.75,72.8 1,70 3.2,67.75 6.9,65.65 l 6.55,-3.4 Q 24.25,56.7 32,49.45 q 7.55,-7.1 11.7,-15.3 l -0.6,-0.1 Q 40.8,33.7 38.55,32.6 L 35.9,30.95 33.9,29.4 32.75,27.8 Q 31,25 30.3,23.25 28.9,19.6 29.45,15.1 30.25,10.15 33.9,4.35 l 1.25,-1.6 1.25,-1.1 Q 37.1,0.75 37.5,1 37.95,1.35 37.45,2.15 l -2,4.45 q -1.55,3.95 -2.05,6.15 -0.8,3.55 -0.15,6.3 0.65,2.6 2.75,5.6 l 1.45,1.7 q 1.7,1.8 4,2.65 L 38.5,26.45 Q 36,24.05 35.05,22.2 33.35,18.8 34.3,14.25 35,11.15 37.4,6.8 q 2.4,-4.25 4.55,-6.05 3.65,-3.2 9.35,-3.55 4.5,-0.25 10.05,1.45 l 1.8,0.5 1.85,0.1 q 0.75,-0.1 1.6,-0.5 L 68.15,-2 q 3.75,-1.75 8.2,-1.25 4.25,0.55 7.8,2.95 3.4,2.35 5.75,6.1 2.25,3.5 3.25,7.75 2.15,8.75 -1.45,15.4 -3.1,5.75 -10,8.9 l -3.15,1.2 -0.1,4.3 q -0.3,3.2 -1.35,5.7 l -1.7,3 q -4.05,6.9 -7.3,10.3 -3.05,3.15 -9.05,7 -2.05,1.25 -3,0.5 0.45,-0.7 2,-2.25 L 63.8,61.95 66,59.7 q 1.9,-2.2 4.5,-6.95 L 73.25,47 Q 69,54.65 61.35,62.55 M 86.7,6.9 Q 84.85,4.15 82,2.4 79.15,0.6 76,0.15 72.8,-0.3 69.75,0.65 66.65,1.6 64.45,3.75 60.9,1.65 56.65,1.25 52.5,0.85 48.8,2.35 45.15,3.85 42.65,7 q -2.5,3.15 -3.2,7.05 -0.6,3.15 0.25,5.85 0.95,2.85 3.75,5.55 l 3.35,2.75 2.2,1.55 -0.95,3.35 q -1.65,4.85 -4.35,9.3 -3.6,5.9 -8.7,10.45 -4.5,4.05 -10.85,7.6 -4.9,2.65 -12.15,5.7 -5.2,2.15 -7.55,3.8 -3.95,3 -4.4,7.05 -0.3,2.2 0.75,4.3 1.05,2.2 3.05,3.2 Q 5.6,85.3 8,85.05 9.6,84.95 12.1,84.1 34.55,77.1 48.45,67.95 66.3,56 73.55,39.45 l 0.4,-0.95 0.3,-0.6 q 0.65,-1.35 1.1,-1.75 0.55,-0.4 1.4,-0.7 l 1,-0.3 L 78,35.1 78.35,35 q 4.7,-1.25 7.75,-5.75 2.8,-4.05 3.4,-9.45 0.85,-7.5 -2.8,-12.9"
         fill="#111111"
         fill-opacity="0.498039"
         fill-rule="evenodd"
         stroke="none"
         id="path5" />
    </g>
    <g
       id="sprite3"
       transform="translate(17.4,15.85)">
      <use
         ffdec:characterId="31"
         height="57.200001"
         transform="matrix(0.5366,0,0,0.5366,-16.6582,-14.546)"
         width="70.75"
         xlink:href="#sprite4"
         id="use5" />
    </g>
    <g
       id="sprite4"
       transform="translate(-8.65,-10.35)">
      <use
         ffdec:characterId="30"
         height="57.200001"
         transform="translate(8.65,10.35)"
         width="70.75"
         xlink:href="#shape2"
         id="use6" />
    </g>
    <g
       id="shape2"
       transform="translate(-8.65,-10.35)">
      <path
         d="m 14.8,41.7 q 0.65,-1.75 2.65,-2.5 1.8,-0.8 3.7,-0.25 1.15,0.45 2.25,1.2 l 0.9,0.4 q 1.65,0.9 2.85,2.5 L 37.8,30.1 q 2.35,-2.8 3.75,-3.95 1.5,-1.15 4.25,-2.4 18.2,-8.85 27.65,-12.6 2.15,-0.8 3.25,-0.8 h 0.8 l 1.9,2.4 -0.2,0.8 q -0.2,1.1 -1.55,3 -5.85,8.25 -18.85,23.8 -1.85,2.35 -3.35,3.5 -1.4,1.15 -4.75,2.75 l -15.15,7.15 q 1.2,1.6 1.75,3.4 l 0.2,1 0.55,2.5 q 0.1,1.95 -1.1,3.55 -1.2,1.65 -3.05,1.9 l -1.3,0.05 q -1.65,0.2 -3.45,-0.65 -1.85,-0.9 -3,-2.6 L 25,60.95 23.8,62.1 q -2.6,2.85 -4.3,3.95 -2.85,1.8 -5.5,1.45 l -1.65,-0.5 -1.2,-0.7 -0.2,-0.2 q -1,-0.85 -1.6,-1.9 L 9.25,64 9.15,63.8 8.75,62.4 q -0.2,-0.8 -0.05,-1.7 0.25,-2.65 2.7,-5.05 1.5,-1.3 4.9,-3.15 L 17.7,51.55 16.05,50 q -1.35,-1.5 -1.8,-3.6 -0.4,-1.85 0.25,-3.45 l 0.3,-1.25"
         fill="#000000"
         fill-opacity="0.372549"
         fill-rule="evenodd"
         stroke="none"
         id="path6" />
    </g>
  </defs>
</svg>
