<?xml version="1.0" encoding="UTF-8" standalone="no"?>
<svg
   ffdec:objectType="frame"
   height="80.607628"
   width="61.124622"
   version="1.1"
   id="svg4"
   xmlns:xlink="http://www.w3.org/1999/xlink"
   xmlns="http://www.w3.org/2000/svg"
   xmlns:svg="http://www.w3.org/2000/svg"
   xmlns:ffdec="https://www.free-decompiler.com/flash">
  <g
     transform="translate(33.562857,37.407627)"
     id="g1">
    <use
       ffdec:characterId="17"
       height="119.15"
       id="rarity"
       transform="translate(-58.5,-60.65)"
       width="119.15"
       xlink:href="#sprite0" />
    <use
       ffdec:characterId="397"
       height="80.699997"
       transform="translate(-33.55,-37.4)"
       width="61.099998"
       xlink:href="#shape0"
       id="use1" />
  </g>
  <defs
     id="defs4">
    <g
       id="shape0"
       transform="translate(33.25,39.9)">
      <path
         d="M 10.85,3.8 14.9,1.1 q 2.2,-1.75 3.35,-3.65 2.35,-4 1.2,-11.35 -1.05,-6.95 -3.7,-10.5 -1.35,-1.75 -4.05,-3.9 -2.8,-2.15 -4.9,-3.25 -7.1,-3.65 -17,-1.85 l 1.4,1.6 1.1,1.75 0.3,0.95 0.2,1 q 0.85,5.6 -1.9,9.6 l -0.35,0.5 4.35,-0.7 5.9,0.35 q 2.4,0.7 5.05,3 2.2,1.85 3.35,3.9 2.05,3.7 0.95,7.15 -0.6,1.8 -2,3.1 Q 6.65,0.1 4.8,0.3 L 6.25,-3.3 Q 6.8,-5.35 6.35,-6.95 L 5.7,-8.4 Q 5.45,-5.6 3.85,-3.25 3,-1.9 1.4,-0.55 l -2.85,2.3 -5.25,4.4 q -6.85,6.1 -8.85,11.55 -1.35,3.6 -0.75,7.3 0.6,3.95 3.2,6.35 2,1.8 5.2,2.8 6.8,2.1 11,1.8 4.15,-0.3 10.75,-3.8 L 16.9,29.9 Q 20.65,26.05 21.45,18.8 17.55,26.2 13,28.65 8.4,31.15 3.4,31 0.6,30.9 -1.45,30.05 -5.1,28.5 -6.3,25.15 L -6.5,24.5 q -0.65,-2.5 0.3,-5.2 1,-2.9 3.6,-5.65 1.9,-1.95 5.3,-4.4 l 8,-5.35 0.15,-0.1 M -17.1,-37.25 q 7.25,-2.8 14.3,-2.65 7.9,0.15 14,3.8 2.35,1.35 5.3,3.95 4.05,3.45 5.8,6.65 1.3,2.3 2.35,6.95 1.4,6.8 1.05,11.05 -0.4,6.25 -3.9,10.2 l -4.15,3.55 -1.85,1.25 0.35,0.9 0.5,2.75 0.2,2.95 -0.3,2.6 -0.2,1.1 Q 19,14.7 19.9,12.35 L 20.7,9.9 q 0.5,-1.4 1.1,-2.25 0.8,-1.05 2.1,-1.4 1.4,-0.35 2.3,0.5 0.7,0.65 1,2.45 0.75,4.35 0.65,6.9 -0.2,4.8 -3.25,10.5 -2.25,5.1 -5.7,7.65 -1.7,1.3 -5.7,3 -5.95,2.55 -9.3,3.15 l -6.4,0.3 q -5.05,-0.25 -9.05,-1.85 -4.65,-1.85 -7.3,-5.3 -2.1,-2.7 -2.9,-6.35 -0.7,-3.45 -0.1,-7.05 1.2,-6.6 6.25,-12.55 3.6,-4.25 10.5,-9.4 L -2.3,-4 Q -0.75,-5.35 0.05,-6.65 1.1,-8.25 1.3,-10 1.45,-11.35 1.05,-12.45 l -0.9,-0.35 q -4.2,-1.45 -10.1,1.15 l -4.7,2.3 q -2.85,1.45 -4.75,2.1 -6,2 -10.05,-0.65 -2.35,-1.6 -3.35,-4.6 -0.9,-2.8 -0.05,-8.95 0.8,-6.15 7.65,-10.75 1.05,-1.25 1.95,-1.7 l 0.1,-0.05 q 2.35,-1.9 6.05,-3.3 m 18.25,55.6 q -1.25,1.45 -1.55,2.3 -0.6,1.55 0.15,2.7 l 0.95,0.9 0.5,-0.55 q 2.05,-2.15 3.75,-5.55 l 2.1,-4.85 q -3.65,2.65 -5.9,5.05 m 8.75,5.15 1.55,-1 v -0.05 l 0.75,-3.75 0.35,-3 q 0.2,-2.15 -0.25,-3.25 -1.8,6.7 -5.75,12.4 1.65,-0.4 3.35,-1.35 m -28.8,-54.25 -3.2,1.8 -2.6,2.05 q -1,1.15 -2.25,3.55 -1.25,2.4 -1.2,5.4 0.05,2.95 0.8,3.65 0.7,0.65 1.95,1.25 l 2.5,0.35 q 1.45,-0.2 4.6,-1.95 l 3.45,-1.65 1.45,-1.3 q 2.65,-2.35 3.3,-3.95 0.45,-1.15 0.6,-2.3 0.25,-2.15 -0.3,-4 -0.65,-2.1 -2.15,-3.25 -1.4,-1.05 -3.25,-1.1 -2.5,0.7 -3.7,1.45 m -5.95,14.35 q -1,-0.6 -1.25,-1.85 l -0.05,-1.1 0.25,-2 q 0.25,-1.1 1.35,-2.3 l 2.1,-1.75 q 0.95,-0.75 1.8,-1.1 1.65,-0.6 3.25,0 1.6,0.65 2.25,2.25 0.85,2.15 -0.6,4.25 -0.3,0.5 -1.55,1.75 -1.9,1.8 -3,2.15 l -2.35,0.25 q -1.45,-0.1 -2.2,-0.55"
         fill="#000000"
         fill-rule="evenodd"
         stroke="none"
         id="path1" />
      <path
         d="m -7.4,-29.1 -0.3,-0.95 -1.1,-1.75 -1.4,-1.6 q 9.9,-1.8 17,1.85 2.1,1.1 4.9,3.25 2.7,2.15 4.05,3.9 2.65,3.55 3.7,10.5 1.15,7.35 -1.2,11.35 -1.15,1.9 -3.35,3.65 L 10.85,3.8 11.9,2.75 q 3.5,-3.5 4.5,-5.95 0.95,-2.35 0.95,-7.2 0,-3.5 -0.6,-5.35 -1.3,-4.45 -7.6,-8.9 -6.65,-4.65 -11.8,-4.65 l -3.95,0.2 h -0.8 m 0.9,53.6 0.2,0.65 q 1.2,3.35 4.85,4.9 2.05,0.85 4.85,0.95 5,0.15 9.6,-2.35 4.55,-2.45 8.45,-9.85 -0.8,7.25 -4.55,11.1 l -1.2,0.75 Q 12.6,32.5 9.05,33.15 5.5,33.8 2,33.1 -0.25,32.7 -1.85,31.75 -3.3,30.95 -4.65,29.6 L -6,28 -6.45,25.9 -6.5,24.5 m 16.4,-1 q -1.7,0.95 -3.35,1.35 3.95,-5.7 5.75,-12.4 0.45,1.1 0.25,3.25 l -0.35,3 -0.75,3.75 v 0.05 l -1.55,1"
         fill="#211e1e"
         fill-rule="evenodd"
         stroke="none"
         id="path2" />
      <path
         d="m -7.4,-29.1 h 0.8 l 3.95,-0.2 q 5.15,0 11.8,4.65 6.3,4.45 7.6,8.9 0.6,1.85 0.6,5.35 0,4.85 -0.95,7.2 -1,2.45 -4.5,5.95 L 10.85,3.8 10.7,3.9 2.7,9.25 q -3.4,2.45 -5.3,4.4 -2.6,2.75 -3.6,5.65 -0.95,2.7 -0.3,5.2 l 0.05,1.4 0.45,2.1 1.35,1.6 q 1.35,1.35 2.8,2.15 1.6,0.95 3.85,1.35 3.5,0.7 7.05,0.05 3.55,-0.65 6.65,-2.5 l 1.2,-0.75 -3.05,2.25 q -6.6,3.5 -10.75,3.8 -4.2,0.3 -11,-1.8 -3.2,-1 -5.2,-2.8 -2.6,-2.4 -3.2,-6.35 -0.6,-3.7 0.75,-7.3 2,-5.45 8.85,-11.55 l 5.25,-4.4 2.85,-2.3 Q 3,-1.9 3.85,-3.25 5.45,-5.6 5.7,-8.4 l 0.65,1.45 q 0.45,1.6 -0.1,3.65 L 4.8,0.3 q 1.85,-0.2 3.35,-1.5 1.4,-1.3 2,-3.1 1.1,-3.45 -0.95,-7.15 -1.15,-2.05 -3.35,-3.9 -2.65,-2.3 -5.05,-3 l -5.9,-0.35 -4.35,0.7 0.35,-0.5 q 2.75,-4 1.9,-9.6 l -0.2,-1 m -17.45,12.7 q 0.75,0.45 2.2,0.55 l 2.35,-0.25 q 1.1,-0.35 3,-2.15 1.25,-1.25 1.55,-1.75 1.45,-2.1 0.6,-4.25 -0.65,-1.6 -2.25,-2.25 -1.6,-0.6 -3.25,0 -0.85,0.35 -1.8,1.1 l -2.1,1.75 q -1.1,1.2 -1.35,2.3 l -0.25,2 0.05,1.1 q 0.25,1.25 1.25,1.85 m 5.95,-14.35 q 1.2,-0.75 3.7,-1.45 1.85,0.05 3.25,1.1 1.5,1.15 2.15,3.25 0.55,1.85 0.3,4 -0.15,1.15 -0.6,2.3 -0.65,1.6 -3.3,3.95 l -1.45,1.3 -3.45,1.65 q -3.15,1.75 -4.6,1.95 l -2.5,-0.35 q -1.25,-0.6 -1.95,-1.25 -0.75,-0.7 -0.8,-3.65 -0.05,-3 1.2,-5.4 1.25,-2.4 2.25,-3.55 l 2.6,-2.05 3.2,-1.8"
         fill="#1c1616"
         fill-rule="evenodd"
         stroke="none"
         id="path3" />
    </g>
    <g
       id="sprite1"
       transform="translate(17.4,15.85)">
      <use
         ffdec:characterId="31"
         height="57.200001"
         transform="matrix(0.5366,0,0,0.5366,-16.6582,-14.546)"
         width="70.75"
         xlink:href="#sprite2"
         id="use3" />
    </g>
    <g
       id="sprite2"
       transform="translate(-8.65,-10.35)">
      <use
         ffdec:characterId="30"
         height="57.200001"
         transform="translate(8.65,10.35)"
         width="70.75"
         xlink:href="#shape1"
         id="use4" />
    </g>
    <g
       id="shape1"
       transform="translate(-8.65,-10.35)">
      <path
         d="m 14.8,41.7 q 0.65,-1.75 2.65,-2.5 1.8,-0.8 3.7,-0.25 1.15,0.45 2.25,1.2 l 0.9,0.4 q 1.65,0.9 2.85,2.5 L 37.8,30.1 q 2.35,-2.8 3.75,-3.95 1.5,-1.15 4.25,-2.4 18.2,-8.85 27.65,-12.6 2.15,-0.8 3.25,-0.8 h 0.8 l 1.9,2.4 -0.2,0.8 q -0.2,1.1 -1.55,3 -5.85,8.25 -18.85,23.8 -1.85,2.35 -3.35,3.5 -1.4,1.15 -4.75,2.75 l -15.15,7.15 q 1.2,1.6 1.75,3.4 l 0.2,1 0.55,2.5 q 0.1,1.95 -1.1,3.55 -1.2,1.65 -3.05,1.9 l -1.3,0.05 q -1.65,0.2 -3.45,-0.65 -1.85,-0.9 -3,-2.6 L 25,60.95 23.8,62.1 q -2.6,2.85 -4.3,3.95 -2.85,1.8 -5.5,1.45 l -1.65,-0.5 -1.2,-0.7 -0.2,-0.2 q -1,-0.85 -1.6,-1.9 L 9.25,64 9.15,63.8 8.75,62.4 q -0.2,-0.8 -0.05,-1.7 0.25,-2.65 2.7,-5.05 1.5,-1.3 4.9,-3.15 L 17.7,51.55 16.05,50 q -1.35,-1.5 -1.8,-3.6 -0.4,-1.85 0.25,-3.45 l 0.3,-1.25"
         fill="#000000"
         fill-opacity="0.372549"
         fill-rule="evenodd"
         stroke="none"
         id="path4" />
    </g>
  </defs>
</svg>
