<?xml version="1.0" encoding="UTF-8" standalone="no"?>
<svg
   ffdec:objectType="frame"
   height="45.125"
   width="50.11842"
   version="1.1"
   id="svg4"
   xmlns:xlink="http://www.w3.org/1999/xlink"
   xmlns="http://www.w3.org/2000/svg"
   xmlns:svg="http://www.w3.org/2000/svg"
   xmlns:ffdec="https://www.free-decompiler.com/flash">
  <g
     transform="translate(27.2,21.2)"
     id="g1">
    <use
       ffdec:characterId="17"
       height="119.15"
       id="rarity"
       transform="translate(-58.5,-60.65)"
       width="119.15"
       xlink:href="#sprite0" />
    <use
       ffdec:characterId="77"
       height="45.25"
       transform="translate(-27.2,-21.25)"
       width="50.099998"
       xlink:href="#shape0"
       id="use1" />
  </g>
  <defs
     id="defs4">
    <g
       id="shape0"
       transform="translate(26.9,23.75)">
      <path
         d="m -19.45,-1.5 q -0.75,2.4 -0.85,3.9 v 0.15 l 4.25,-2.85 7.25,-4.4 7.1,-4.6 3.75,-2.65 3.7,-1.9 Q 8.2,-15 9.4,-15.8 l 1.4,-0.9 q -2.1,-1.1 -5.65,-1.25 -5.8,-0.25 -9.85,1.35 -2.35,0.95 -4.95,2.9 l -4.35,3.8 -3.45,3.85 q -1.1,1.75 -2,4.55 m -2.5,16.35 q -2.5,-2.35 -3.7,-5 -1.15,-2.7 -1.25,-6.2 0,-6.4 3.25,-11.7 1.95,-3.15 5.25,-6.3 9.05,-8.8 18.65,-9.35 l 4.7,0.15 4.65,0.7 3.8,0.8 q 2,0.65 3.3,1.75 1.25,1.1 2.9,4.3 3,5.65 3.45,9.05 0.4,2.65 -0.15,6.35 -1.65,10.85 -7.8,15.8 -2.7,2.15 -6.7,3.65 -6,2.25 -11.75,2.55 -6.4,0.25 -11.65,-2 -3.95,-1.7 -6.95,-4.55 M -15.9,6.3 q 2,0.75 5.7,1.15 l 6.1,0.15 q 4.35,-0.35 8.25,-2.55 3.9,-2.3 6.25,-5.9 l 2.65,-5.25 q 1.1,-2.6 1.1,-3.9 l -0.15,-1.75 -0.1,-1.35 -1.6,0.6 -5.2,2.3 Q -6.3,-3.5 -19.05,4.45 l 3.15,1.85 m -2.25,2.95 q 1.3,1.65 3.6,3 3.05,1.8 6.25,2.45 5.4,1.15 11.4,-0.5 4.25,-1.1 7.4,-3.35 3.7,-2.65 5.1,-6.3 L 16.65,0.3 Q 17.5,-4.1 16.9,-6.9 V -7 l -1.3,3.25 q -1.9,4.45 -4,6.85 -1.75,2.05 -4.95,4.1 -6.1,3.65 -12.1,3.85 l -5,-0.1 -4.75,-0.4 q -1.1,-0.3 -3,-1.35 l 0.05,0.05"
         fill="#000000"
         fill-rule="evenodd"
         stroke="none"
         id="path1" />
      <path
         d="m -19.45,-1.5 q 0.9,-2.8 2,-4.55 l 3.45,-3.85 4.35,-3.8 q 2.6,-1.95 4.95,-2.9 4.05,-1.6 9.85,-1.35 3.55,0.15 5.65,1.25 l -1.4,0.9 q -1.2,0.8 -3.65,1.95 l -3.7,1.9 -3.75,2.65 -7.1,4.6 -7.25,4.4 -4.25,2.85 V 2.4 q 0.1,-1.5 0.85,-3.9 m 3.55,7.8 -3.15,-1.85 Q -6.3,-3.5 7.1,-10.2 l 5.2,-2.3 1.6,-0.6 0.1,1.35 0.15,1.75 q 0,1.3 -1.1,3.9 L 10.4,-0.85 Q 8.05,2.75 4.15,5.05 0.25,7.25 -4.1,7.6 l -6.1,-0.15 q -3.7,-0.4 -5.7,-1.15"
         fill="#d59b9b"
         fill-rule="evenodd"
         stroke="none"
         id="path2" />
      <path
         d="M -18.15,9.25 -18.2,9.2 q 1.9,1.05 3,1.35 l 4.75,0.4 5,0.1 q 6,-0.2 12.1,-3.85 3.2,-2.05 4.95,-4.1 2.1,-2.4 4,-6.85 L 16.9,-7 v 0.1 q 0.6,2.8 -0.25,7.2 L 15.6,4.55 q -1.4,3.65 -5.1,6.3 -3.15,2.25 -7.4,3.35 -6,1.65 -11.4,0.5 -3.2,-0.65 -6.25,-2.45 -2.3,-1.35 -3.6,-3"
         fill="#c28484"
         fill-rule="evenodd"
         stroke="none"
         id="path3" />
    </g>
    <g
       id="sprite1"
       transform="translate(17.4,15.85)">
      <use
         ffdec:characterId="31"
         height="57.200001"
         transform="matrix(0.5366,0,0,0.5366,-16.6582,-14.546)"
         width="70.75"
         xlink:href="#sprite2"
         id="use3" />
    </g>
    <g
       id="sprite2"
       transform="translate(-8.65,-10.35)">
      <use
         ffdec:characterId="30"
         height="57.200001"
         transform="translate(8.65,10.35)"
         width="70.75"
         xlink:href="#shape1"
         id="use4" />
    </g>
    <g
       id="shape1"
       transform="translate(-8.65,-10.35)">
      <path
         d="m 14.8,41.7 q 0.65,-1.75 2.65,-2.5 1.8,-0.8 3.7,-0.25 1.15,0.45 2.25,1.2 l 0.9,0.4 q 1.65,0.9 2.85,2.5 L 37.8,30.1 q 2.35,-2.8 3.75,-3.95 1.5,-1.15 4.25,-2.4 18.2,-8.85 27.65,-12.6 2.15,-0.8 3.25,-0.8 h 0.8 l 1.9,2.4 -0.2,0.8 q -0.2,1.1 -1.55,3 -5.85,8.25 -18.85,23.8 -1.85,2.35 -3.35,3.5 -1.4,1.15 -4.75,2.75 l -15.15,7.15 q 1.2,1.6 1.75,3.4 l 0.2,1 0.55,2.5 q 0.1,1.95 -1.1,3.55 -1.2,1.65 -3.05,1.9 l -1.3,0.05 q -1.65,0.2 -3.45,-0.65 -1.85,-0.9 -3,-2.6 L 25,60.95 23.8,62.1 q -2.6,2.85 -4.3,3.95 -2.85,1.8 -5.5,1.45 l -1.65,-0.5 -1.2,-0.7 -0.2,-0.2 q -1,-0.85 -1.6,-1.9 L 9.25,64 9.15,63.8 8.75,62.4 q -0.2,-0.8 -0.05,-1.7 0.25,-2.65 2.7,-5.05 1.5,-1.3 4.9,-3.15 L 17.7,51.55 16.05,50 q -1.35,-1.5 -1.8,-3.6 -0.4,-1.85 0.25,-3.45 l 0.3,-1.25"
         fill="#000000"
         fill-opacity="0.372549"
         fill-rule="evenodd"
         stroke="none"
         id="path4" />
    </g>
  </defs>
</svg>
