<?xml version="1.0" encoding="UTF-8" standalone="no"?>
<svg
   ffdec:objectType="frame"
   height="29.78828"
   width="88.47477"
   version="1.1"
   id="svg4"
   sodipodi:docname="ITEM Superhero Mask.svg"
   xmlns:inkscape="http://www.inkscape.org/namespaces/inkscape"
   xmlns:sodipodi="http://sodipodi.sourceforge.net/DTD/sodipodi-0.dtd"
   xmlns:xlink="http://www.w3.org/1999/xlink"
   xmlns="http://www.w3.org/2000/svg"
   xmlns:svg="http://www.w3.org/2000/svg"
   xmlns:ffdec="https://www.free-decompiler.com/flash">
  <sodipodi:namedview
     id="namedview4"
     pagecolor="#ffffff"
     bordercolor="#000000"
     borderopacity="0.25"
     inkscape:showpageshadow="2"
     inkscape:pageopacity="0.0"
     inkscape:pagecheckerboard="0"
     inkscape:deskcolor="#d1d1d1"
     fit-margin-top="5"
     fit-margin-left="5"
     fit-margin-right="5"
     fit-margin-bottom="5" />
  <g
     transform="translate(42.801087,15.3)"
     id="g1">
    <use
       ffdec:characterId="17"
       height="119.15"
       id="rarity"
       transform="translate(-58.5,-60.65)"
       width="119.15"
       xlink:href="#sprite0" />
    <use
       ffdec:characterId="1051"
       height="29.9"
       transform="translate(-42.8,-15.4)"
       width="88.449997"
       xlink:href="#shape0"
       id="use1" />
  </g>
  <defs
     id="defs4">
    <g
       id="shape0"
       transform="translate(89.6,16.75)">
      <path
         d="m -89.6,-3.4 q 0,-1.3 0.5,-2.35 0.55,-1.2 1.6,-1.7 l 2.2,-0.25 2.35,0.45 q 2.75,0.45 6.4,-0.8 1.25,-0.45 3,-1.25 l 2.95,-1.4 q 8.4,-3.75 14.9,-2.6 3.9,0.7 7.15,3.2 3.3,2.45 5.05,6 1.1,2.25 0.95,4 -0.2,1.75 -1.75,3.95 -4.25,5.85 -12.1,8.1 -6.6,1.95 -14.75,0.7 l -4.6,-1.05 q -3.15,-1.1 -6.75,-3.75 -3.25,-2.35 -4.9,-4.8 -2.25,-3.2 -2.2,-6.45 m 40.15,-0.15 q -3.35,-3.35 -7.95,-3.75 -2.85,-0.25 -6.2,0.85 -2.3,0.7 -5.95,2.45 -2.2,1.05 -3.75,1.7 l -0.35,0.2 -1.75,1.35 -0.8,0.95 -0.05,0.35 0.25,1.15 0.2,0.55 0.05,0.2 0.5,1 0.95,1 1.85,1.25 3,0.55 4.5,0.45 q 5.75,0.15 11.3,-2.9 4.1,-2.3 4.85,-5.3 0.1,-0.85 -0.05,-1.2 l -0.45,-0.65 -0.15,-0.2 m 41.6,-9.7 q 0.6,-0.15 2.05,-1 l 2,-0.75 q 0.95,-0.05 1.7,0.6 0.8,0.6 0.95,1.55 0.15,1.05 -0.65,2.75 -2.2,4.75 -3.85,7 -3,4.1 -8.05,6.75 -4.65,2.4 -10.2,3.25 l -4.55,0.2 Q -31.4,6.9 -34.1,5.35 -36.75,3.85 -38.45,1.4 -39.1,0.55 -39.1,-0.1 l 0.4,-1.55 q 2.65,-5.7 5.05,-8.65 3.55,-4.4 8.05,-5.75 l 1.55,-0.3 4.4,-0.3 3.85,0.65 3.8,2.05 q 2.4,1.2 4.15,0.7 m -7.3,4.05 -1.1,-0.65 -2.35,-0.95 q -1.9,-0.55 -4.85,0 -2.5,0.55 -4.05,1.4 -1.7,0.95 -3.9,3.45 l -0.9,1.05 -1.05,1.3 -0.3,1.55 0.25,1.25 q 3.1,2.15 6.5,2.25 l 2.8,-0.2 q 4.6,-0.7 8.1,-2.55 v -0.05 q 1.3,-1.4 1.95,-2.75 0.45,-1 0.45,-1.8 0.05,-1 -0.8,-2.55 l -0.3,-0.5 -0.45,-0.25"
         fill="#000000"
         fill-rule="evenodd"
         stroke="none"
         id="path1" />
      <path
         d="m -73.65,-2.1 0.35,-0.2 q 1.55,-0.65 3.75,-1.7 3.65,-1.75 5.95,-2.45 3.35,-1.1 6.2,-0.85 4.6,0.4 7.95,3.75 0,1.3 -0.9,2.55 -0.85,1.1 -2.2,1.95 -3.4,2.35 -7.55,3.1 L -68.25,3.8 -70.25,3.1 -72,1.6 q -1.4,-1.4 -1.65,-2.65 V -2.1 m 41.35,-2.8 0.9,-1.05 q 2.2,-2.5 3.9,-3.45 1.55,-0.85 4.05,-1.4 2.95,-0.55 4.85,0 l 2.35,0.95 1.1,0.65 0.15,1.1 q 0.05,0.8 -0.4,2.1 l -0.6,1.6 q -0.55,1.1 -2.05,2 -1.75,1.05 -3.55,1.4 l -4.6,0.85 q -1.75,0 -3.7,-1.25 -1.9,-1.15 -2.3,-2.45 l -0.1,-1.05"
         fill="#ffffff"
         fill-rule="evenodd"
         stroke="none"
         id="path2" />
      <path
         d="m -73.65,-2.1 v 1.05 Q -73.4,0.2 -72,1.6 l 1.75,1.5 2,0.7 8.15,0.25 q 4.15,-0.75 7.55,-3.1 1.35,-0.85 2.2,-1.95 0.9,-1.25 0.9,-2.55 l 0.15,0.2 0.45,0.65 q 0.15,0.35 0.05,1.2 -0.75,3 -4.85,5.3 -5.55,3.05 -11.3,2.9 l -4.5,-0.45 -3,-0.55 -1.85,-1.25 -0.95,-1 -0.5,-1 -0.05,-0.2 -0.2,-0.55 -0.25,-1.15 0.05,-0.35 0.8,-0.95 1.75,-1.35 m 41.35,-2.8 0.1,1.05 q 0.4,1.3 2.3,2.45 1.95,1.25 3.7,1.25 L -21.6,-1 q 1.8,-0.35 3.55,-1.4 1.5,-0.9 2.05,-2 l 0.6,-1.6 q 0.45,-1.3 0.4,-2.1 l -0.15,-1.1 0.45,0.25 0.3,0.5 q 0.85,1.55 0.8,2.55 0,0.8 -0.45,1.8 -0.65,1.35 -1.95,2.75 v 0.05 q -3.5,1.85 -8.1,2.55 l -2.8,0.2 q -3.4,-0.1 -6.5,-2.25 l -0.25,-1.25 0.3,-1.55 1.05,-1.3"
         fill="#d6d6d6"
         fill-rule="evenodd"
         stroke="none"
         id="path3" />
    </g>
    <g
       id="sprite1"
       transform="translate(17.4,15.85)">
      <use
         ffdec:characterId="31"
         height="57.200001"
         transform="matrix(0.5366,0,0,0.5366,-16.6582,-14.546)"
         width="70.75"
         xlink:href="#sprite2"
         id="use3" />
    </g>
    <g
       id="sprite2"
       transform="translate(-8.65,-10.35)">
      <use
         ffdec:characterId="30"
         height="57.200001"
         transform="translate(8.65,10.35)"
         width="70.75"
         xlink:href="#shape1"
         id="use4" />
    </g>
    <g
       id="shape1"
       transform="translate(-8.65,-10.35)">
      <path
         d="m 14.8,41.7 q 0.65,-1.75 2.65,-2.5 1.8,-0.8 3.7,-0.25 1.15,0.45 2.25,1.2 l 0.9,0.4 q 1.65,0.9 2.85,2.5 L 37.8,30.1 q 2.35,-2.8 3.75,-3.95 1.5,-1.15 4.25,-2.4 18.2,-8.85 27.65,-12.6 2.15,-0.8 3.25,-0.8 h 0.8 l 1.9,2.4 -0.2,0.8 q -0.2,1.1 -1.55,3 -5.85,8.25 -18.85,23.8 -1.85,2.35 -3.35,3.5 -1.4,1.15 -4.75,2.75 l -15.15,7.15 q 1.2,1.6 1.75,3.4 l 0.2,1 0.55,2.5 q 0.1,1.95 -1.1,3.55 -1.2,1.65 -3.05,1.9 l -1.3,0.05 q -1.65,0.2 -3.45,-0.65 -1.85,-0.9 -3,-2.6 L 25,60.95 23.8,62.1 q -2.6,2.85 -4.3,3.95 -2.85,1.8 -5.5,1.45 l -1.65,-0.5 -1.2,-0.7 -0.2,-0.2 q -1,-0.85 -1.6,-1.9 L 9.25,64 9.15,63.8 8.75,62.4 q -0.2,-0.8 -0.05,-1.7 0.25,-2.65 2.7,-5.05 1.5,-1.3 4.9,-3.15 L 17.7,51.55 16.05,50 q -1.35,-1.5 -1.8,-3.6 -0.4,-1.85 0.25,-3.45 l 0.3,-1.25"
         fill="#000000"
         fill-opacity="0.372549"
         fill-rule="evenodd"
         stroke="none"
         id="path4" />
    </g>
  </defs>
</svg>
