<?xml version="1.0" encoding="UTF-8" standalone="no"?>
<svg
   ffdec:objectType="frame"
   height="80.507088"
   width="59.915878"
   version="1.1"
   id="svg5"
   xmlns:xlink="http://www.w3.org/1999/xlink"
   xmlns="http://www.w3.org/2000/svg"
   xmlns:svg="http://www.w3.org/2000/svg"
   xmlns:ffdec="https://www.free-decompiler.com/flash">
  <g
     transform="translate(30.408128,39.4938)"
     id="g1">
    <use
       ffdec:characterId="17"
       height="119.15"
       id="rarity"
       transform="translate(-58.5,-60.65)"
       width="119.15"
       xlink:href="#sprite0" />
    <use
       ffdec:characterId="404"
       height="94.199997"
       transform="matrix(0.8545,0,0,0.8546,-30.3927,-39.4938)"
       width="70.099998"
       xlink:href="#shape0"
       id="use1" />
  </g>
  <defs
     id="defs5">
    <g
       id="shape0"
       transform="translate(35.1,46.8)">
      <path
         d="m -14.9,-35.65 0.1,-0.75 -0.2,-0.05 q -0.95,-0.05 -2,-0.55 l -0.1,-0.05 -0.55,-0.15 q -1.15,-0.55 -1.5,-1.95 l -0.1,-1.55 -0.05,-0.7 q 0,-2.3 0.75,-3.2 0.85,-1.15 3.65,-1.45 l 13.75,-0.55 1.75,-0.15 5.65,-0.05 2.95,0.1 q 1.65,0.25 2.65,1 1.25,0.95 1.75,2.7 0.55,1.95 -0.25,3.25 -0.75,1.3 -2.4,1.6 0.25,0.95 0.6,1.4 5.4,-0.1 9.3,1.15 5,1.6 7.7,5.15 1.35,1.8 2.8,5.55 1.15,3 1.35,4.85 0.15,1.45 -0.1,3.75 l -0.35,3.7 q -0.1,1.85 0.55,6.3 2.15,15.35 2.2,30.45 0,4.65 -0.4,6.95 -0.6,3.3 -2.05,5.5 -1.7,2.4 -4.95,4 -2.2,1.1 -6.15,2.25 -7.4,2.15 -13,3.2 -7.1,1.3 -13.25,1.35 -12.6,0.15 -24.25,-4.8 -2.5,-1.1 -3.4,-2.2 -1,-1.2 -1.5,-4.15 -1.45,-9.05 -1.1,-21.4 l 1.15,-21.5 q 0.2,-3.95 0.95,-5.8 0.65,-1.65 2.1,-3.4 l 2.8,-2.95 q 7.1,-6.8 11.7,-9.7 1,-0.6 1.3,-1.1 0.25,-0.5 0.15,-1.65 v -4.4 M 26.9,-17 v -2.15 Q 26.85,-21 26,-23.15 25.2,-25.5 23.8,-27.1 20,-31.25 11.65,-30.8 L 8.1,-31.2 q -2,-0.9 -2.85,-5.2 l -13.8,0.45 q -0.5,1.15 -0.2,3.65 0.35,2.5 -0.2,3.6 -0.5,1.15 -2.55,2.45 -6.65,4.4 -12.35,10.45 l -1.7,2 q -1.1,1.4 -1.6,2.7 -0.55,1.45 -0.75,4.6 v 0.15 q -0.85,13.2 -0.95,20.2 -0.15,11.25 0.95,20.25 0.2,1.6 0.7,2.2 0.65,0.85 2.25,1.3 l 8.85,2.65 q 4.95,1.2 9.05,1.4 L 2.3,41.1 11.55,39.3 q 7.4,-1.55 11.4,-3 3.6,-1.35 5,-3.25 1.4,-2 1.5,-6.5 0.25,-15.5 -2.05,-30.2 L 26.75,-8.3 V -8.4 Q 26.4,-11 26.55,-13 L 26.8,-16.05 26.9,-17 M 8.85,-18 q -0.8,-2 -1.05,-3.3 -0.3,-2.1 0.05,-4.05 l 0.6,-1.45 q 0.65,-0.75 1.85,-0.85 l 2.1,0.05 h 2.3 l 1.85,0.5 1.95,0.8 q 1.6,0.8 2.75,2.4 1.1,1.5 1.5,3.35 L 23,-18.6 v 0.8 l 0.15,2.7 0.35,3.6 q -0.2,2.3 -1.75,3 L 19.6,-8.3 17.55,-8.7 16.2,-9.2 15.45,-9.5 15.3,-9.55 q -1.05,-0.4 -1.8,-0.9 -1.1,-0.7 -2.15,-2.2 -0.9,-1.4 -2.05,-4.15 L 9.1,-17.35 8.85,-18 m 5.9,-4.4 -2.05,-0.3 q -0.05,0.8 0.55,2.2 l 1.2,2.8 q 0.7,1.6 1.25,2.25 0.95,0.95 3.35,1.75 0.5,-1.7 0.15,-3.5 -0.3,-1.85 -1.35,-3.25 l -1.25,-1.25 -1.85,-0.7"
         fill="#000000"
         fill-rule="evenodd"
         stroke="none"
         id="path1" />
      <path
         d="m -21.15,-15.35 1,-1 1.85,-1.05 1.15,-0.85 0.7,-0.35 0.9,-0.45 2.05,-0.75 2.1,0.15 1,0.8 0.85,1.05 0.1,0.15 q 0.4,0.75 0.4,1.65 -0.05,0.7 -0.4,1.5 l -0.45,0.8 -0.65,0.95 -0.25,0.3 -2.65,2.9 q -1.55,1.35 -2.25,1.7 l -0.05,0.05 -2.1,0.7 -3.35,0.1 q -0.85,-0.25 -1.5,-0.8 -0.65,-0.65 -0.85,-1.45 l -0.05,-1.1 0.2,-1.9 0.45,-1.25 1.2,-1.25 0.6,-0.6 M -19.2,-3 q 0.05,0.5 -0.05,1.05 -0.15,0.7 -0.7,1.25 -0.6,0.55 -1.35,0.65 l -1.15,-0.05 -1.2,-0.8 q -0.5,-0.6 -0.6,-1.3 -0.1,-1.2 0.6,-1.95 l 0.65,-0.55 2.75,0.1 q 0.9,0.65 1.05,1.6 m 38.25,25.55 q 0.45,-0.65 1.3,-0.85 l 1.6,0.1 q 0.7,0.3 1.1,1.1 0.4,0.75 0.2,1.55 -0.15,0.8 -0.85,1.3 -0.65,0.55 -1.5,0.55 -0.8,-0.05 -1.45,-0.6 -0.65,-0.55 -0.8,-1.35 -0.15,-1 0.4,-1.8"
         fill="#ffffff"
         fill-rule="evenodd"
         stroke="none"
         id="path2" />
      <path
         d="m -25.55,-13.8 q 1.75,-0.9 4.4,-1.55 l -0.6,0.6 -1.2,1.25 -0.45,1.25 -0.2,1.9 0.05,1.1 q 0.2,0.8 0.85,1.45 0.65,0.55 1.5,0.8 l 3.35,-0.1 2.1,-0.7 0.05,-0.05 q 0.7,-0.35 2.25,-1.7 l 2.65,-2.9 0.25,-0.3 0.65,-0.95 0.45,-0.8 q 0.35,-0.8 0.4,-1.5 0,-0.9 -0.4,-1.65 l -0.1,-0.15 -0.85,-1.05 -1,-0.8 -2.1,-0.15 -2.05,0.75 -0.9,0.45 1,-1.35 q 0.8,-0.8 2.9,-1.3 l 3.95,0.1 0.95,0.75 0.8,0.85 q 0.35,0.55 0.4,1.3 l 4.6,-0.6 q 5.3,-0.5 8.3,-0.1 l 2,0.65 0.4,0.3 0.25,0.65 0.2,0.55 q 1.15,2.75 2.05,4.15 1.05,1.5 2.15,2.2 0.75,0.5 1.8,0.9 l -0.45,0.7 1.35,-0.35 1.35,0.5 2.05,0.4 2.15,-0.2 q 1.55,-0.7 1.75,-3 L 23.15,-15.1 23,-17.8 v -0.8 q 1.35,0.05 2.95,1 l 0.95,0.6 -0.1,0.95 -0.25,3.05 q -0.15,2 0.2,4.6 -1.5,1.3 -3.9,2.35 -4.55,1.95 -10.4,2.8 l -10.85,0.8 -8.2,0.2 -9.45,-0.3 L -19.2,-3 q -0.15,-0.95 -1.05,-1.6 l -2.75,-0.1 -0.65,0.55 -1.5,-0.55 Q -26.9,-5.45 -27.9,-6.35 V -6.5 q 0.2,-3.15 0.75,-4.6 0.5,-1.3 1.6,-2.7 M 3.6,-27.05 3.1,-27.75 2.95,-28.6 q 0,-1.05 0.9,-1.55 l 1.3,-0.2 q 0.75,0.15 1.15,0.7 l 0.35,1.25 q -0.05,0.75 -0.55,1.2 -0.5,0.5 -1.25,0.55 -0.7,0 -1.25,-0.4 m -1.65,3.15 q -0.25,1.6 -1.15,2.4 -1.1,1.05 -2.75,1.05 -1.45,0 -2.8,-0.8 -1.3,-0.75 -1.95,-1.8 -0.8,-1.2 -0.5,-2.55 0.25,-1.15 1.45,-2.25 1.4,-1.3 2.9,-1.5 2.2,-0.25 3.7,1.5 1.45,1.65 1.1,3.95"
         fill="#97c0c1"
         fill-rule="evenodd"
         stroke="none"
         id="path3" />
      <path
         d="m 26.75,-8.4 v 0.1 l 0.65,4.65 q 2.3,14.7 2.05,30.2 -0.1,4.5 -1.5,6.5 -1.4,1.9 -5,3.25 -4,1.45 -11.4,3 l -9.25,1.8 -9.35,0.55 q -4.1,-0.2 -9.05,-1.4 l -8.85,-2.65 q -1.6,-0.45 -2.25,-1.3 -0.5,-0.6 -0.7,-2.2 -1.1,-9 -0.95,-20.25 0.1,-7 0.95,-20.2 1,0.9 2.75,1.65 l 1.5,0.55 q -0.7,0.75 -0.6,1.95 0.1,0.7 0.6,1.3 l 1.2,0.8 1.15,0.05 q 0.75,-0.1 1.35,-0.65 0.55,-0.55 0.7,-1.25 0.1,-0.55 0.05,-1.05 l 3.15,0.45 9.45,0.3 8.2,-0.2 10.85,-0.8 q 5.85,-0.85 10.4,-2.8 2.4,-1.05 3.9,-2.35 m -7.7,30.95 q -0.55,0.8 -0.4,1.8 0.15,0.8 0.8,1.35 0.65,0.55 1.45,0.6 0.85,0 1.5,-0.55 0.7,-0.5 0.85,-1.3 0.2,-0.8 -0.2,-1.55 -0.4,-0.8 -1.1,-1.1 l -1.6,-0.1 q -0.85,0.2 -1.3,0.85"
         fill="#799c9d"
         fill-rule="evenodd"
         stroke="none"
         id="path4" />
    </g>
    <g
       id="sprite1"
       transform="translate(17.4,15.85)">
      <use
         ffdec:characterId="31"
         height="57.200001"
         transform="matrix(0.5366,0,0,0.5366,-16.6582,-14.546)"
         width="70.75"
         xlink:href="#sprite2"
         id="use4" />
    </g>
    <g
       id="sprite2"
       transform="translate(-8.65,-10.35)">
      <use
         ffdec:characterId="30"
         height="57.200001"
         transform="translate(8.65,10.35)"
         width="70.75"
         xlink:href="#shape1"
         id="use5" />
    </g>
    <g
       id="shape1"
       transform="translate(-8.65,-10.35)">
      <path
         d="m 14.8,41.7 q 0.65,-1.75 2.65,-2.5 1.8,-0.8 3.7,-0.25 1.15,0.45 2.25,1.2 l 0.9,0.4 q 1.65,0.9 2.85,2.5 L 37.8,30.1 q 2.35,-2.8 3.75,-3.95 1.5,-1.15 4.25,-2.4 18.2,-8.85 27.65,-12.6 2.15,-0.8 3.25,-0.8 h 0.8 l 1.9,2.4 -0.2,0.8 q -0.2,1.1 -1.55,3 -5.85,8.25 -18.85,23.8 -1.85,2.35 -3.35,3.5 -1.4,1.15 -4.75,2.75 l -15.15,7.15 q 1.2,1.6 1.75,3.4 l 0.2,1 0.55,2.5 q 0.1,1.95 -1.1,3.55 -1.2,1.65 -3.05,1.9 l -1.3,0.05 q -1.65,0.2 -3.45,-0.65 -1.85,-0.9 -3,-2.6 L 25,60.95 23.8,62.1 q -2.6,2.85 -4.3,3.95 -2.85,1.8 -5.5,1.45 l -1.65,-0.5 -1.2,-0.7 -0.2,-0.2 q -1,-0.85 -1.6,-1.9 L 9.25,64 9.15,63.8 8.75,62.4 q -0.2,-0.8 -0.05,-1.7 0.25,-2.65 2.7,-5.05 1.5,-1.3 4.9,-3.15 L 17.7,51.55 16.05,50 q -1.35,-1.5 -1.8,-3.6 -0.4,-1.85 0.25,-3.45 l 0.3,-1.25"
         fill="#000000"
         fill-opacity="0.372549"
         fill-rule="evenodd"
         stroke="none"
         id="path5" />
    </g>
  </defs>
</svg>
