<?xml version="1.0" encoding="UTF-8" standalone="no"?>
<svg
   ffdec:objectType="frame"
   height="66.449997"
   width="75.061287"
   version="1.1"
   id="svg6"
   xmlns:xlink="http://www.w3.org/1999/xlink"
   xmlns="http://www.w3.org/2000/svg"
   xmlns:svg="http://www.w3.org/2000/svg"
   xmlns:ffdec="https://www.free-decompiler.com/flash">
  <g
     transform="translate(35.7,36.35)"
     id="g1">
    <use
       ffdec:characterId="17"
       height="119.15"
       id="rarity"
       transform="translate(-58.5,-60.65)"
       width="119.15"
       xlink:href="#sprite0" />
    <use
       ffdec:characterId="226"
       height="66.449997"
       transform="translate(-35.7,-36.35)"
       width="75.050003"
       xlink:href="#shape0"
       id="use1" />
  </g>
  <defs
     id="defs6">
    <g
       id="shape0"
       transform="translate(35.4,38.85)">
      <path
         d="m 24,-22.15 q -0.1,-1.85 1,-3 l 0.65,-0.55 q -0.35,-0.45 -0.55,-1 l -0.3,-1.4 q -0.25,-1.6 -0.05,-2.85 0.35,-1.7 1.65,-3.05 1.2,-1.3 2.95,-1.95 l 1.85,-0.35 q 2,0.15 3.15,2.2 0.75,1.3 1.1,3.8 0.3,2.15 -0.1,3.15 1.3,0.3 2.6,1.9 l 1.05,1.35 0.5,1.9 q 0.5,3.25 -0.55,4.7 -1.1,1.4 -4.35,1.7 -3,0.2 -4.5,-0.65 -0.35,-0.2 -1.4,-1.15 l -0.95,-1.15 -0.25,-0.65 -0.35,-0.05 q -1.7,-0.2 -2.4,-1.05 -0.6,-0.65 -0.75,-1.85 m 4.7,-3.95 1.05,0.45 0.65,-0.55 1,-0.55 0.8,-0.7 q 0.45,-0.75 0.15,-2.3 l -0.55,-2.05 -0.6,-0.8 -1.3,0.05 q -1.75,0.7 -2.25,2.25 -0.25,0.7 -0.15,2.15 0,1.1 0.3,1.7 l 0.15,0.2 0.75,0.15 m -54.6,28.7 -0.55,-7.3 -0.4,-3.95 h -0.2 l -0.4,-1.45 q -0.65,-2.05 -0.5,-2.9 l 1.25,-2.3 10.25,-13.85 1.05,-1.15 0.1,-2.35 0.05,-0.7 -0.05,-0.1 -0.1,-1.4 q 0.25,-0.95 1.05,-1.45 l 1.7,-0.7 4.15,-0.6 4.15,-0.25 5.75,-0.55 5.7,-0.45 q 1.3,0 1.85,0.5 l 0.45,1.1 0.05,1.3 0.3,1.65 0.2,2.45 v 0.8 l 2.4,2.5 10.05,10.65 0.4,0.65 q 0.9,0.75 0.95,2.6 l 0.3,4.55 h 0.05 l 1.15,25.95 q 0.1,1.65 -0.4,2.5 -0.6,1 -2.65,1.6 -7,2.25 -13.4,4.8 -3.25,1.35 -4.8,1.7 l -3.95,0.5 -3.95,0.05 -15.9,-0.9 -1.45,-0.2 -0.65,0.35 q -2.35,1.25 -6.1,1.35 l -2.55,-0.2 -2.8,-1.65 -1.5,-1.5 -0.45,-1.4 -0.1,-1.35 0.45,-1.55 0.65,-1.35 1.2,-1.15 1.25,-1.1 -0.15,-1.2 q -0.05,-1.3 0.6,-2.5 0.65,-1.2 1.75,-1.95 2.2,-1.45 5,-0.85 L -25.9,2.6 m 31.6,-17.45 13.4,-2.75 -1.35,-0.95 -2.2,-2.05 -7.95,-7.55 -1.55,-0.95 -1.5,-0.1 -12.75,1.25 13.9,13.1 m -16.6,-16.9 Q -3,-33.05 4.95,-33 l 1,0.05 -0.5,-1.8 -16.8,1.85 0.1,1.25 0.35,-0.1 m 11.55,18.15 -1.3,-1.55 -12.25,-11.15 -8.8,12.05 -0.65,1.05 5.85,0.05 6,-0.1 3.2,-0.1 3.7,0.1 3.7,0.2 0.8,0.15 -0.25,-0.7 m 9.6,15.3 Q 9.45,2.15 8.8,0.95 8,-0.3 7.7,-2.4 L 7.3,-6 Q 7,-7.25 7.3,-7.95 7.7,-8.7 8.5,-8.8 9.25,-8.9 9.75,-8.3 l 0.8,0.4 1.9,1.25 1.95,-2.65 1.7,-1.3 q 1.25,-0.5 1.95,0.35 0.45,0.55 0.45,1.8 l 0.1,3.75 0.2,0.7 0.05,1.3 v 1.5 q 0,0.75 -0.45,1.35 -0.6,0.7 -1.5,0.55 -0.85,-0.15 -1.2,-1 -0.15,-0.45 -0.15,-1.35 0,-1.8 -0.4,-3.2 L 14.1,-3.5 13.3,-2.95 12.1,-3.1 q -0.7,-0.3 -1.55,-1.15 l -0.15,-0.1 0.3,4.7 q 0,1.1 -0.45,1.35 M 4.95,-11.2 5,-10.1 5.35,7.8 q 0.2,8.65 -0.05,13 l 14.45,-5.25 q 0.65,-0.2 0.8,-0.5 L 20.6,14.4 20.15,-0.8 19.85,-8.65 H 19.7 l -0.9,-5.25 -13.85,2.7 m -25.7,13 1.65,9.45 q 1.1,5.8 1.1,9.5 L 2.45,22 Q 1.5,5.8 1.15,-8.65 l -0.1,-2.8 v -0.6 l -0.9,0.15 -8.35,0.55 -6,0.65 -3.7,0.2 -3.55,0.55 -0.3,0.1 0.4,4.35 0.6,7.3 m 51.65,-23.65 -0.3,0.85 0.1,0.35 0.35,0.9 q 0.6,0.8 1.9,0.9 l 2.2,-0.15 1,-0.3 q 0.35,-0.35 0.15,-1.25 l -0.7,-1.95 q -0.7,-1.05 -1.7,-1.1 l -1.7,0.6 -1.15,0.45 -0.15,0.7 m -47.95,16.15 9.6,-0.85 5.7,0.45 0.9,0.55 q 0.4,0.55 0,0.95 l 0.2,1.5 0.35,5.1 q 0.35,3.5 0.35,5.1 l 0.05,3.2 q 0.2,1.6 -0.3,2.15 -0.45,0.45 -1.8,0.45 l -11.85,0.4 q -2.25,0.2 -3,-0.75 l -0.45,-1.3 -0.95,-4.6 -0.35,-2.4 -0.1,-2.5 -0.35,-1.8 v -2.6 -1.45 q 0.1,-0.8 0.6,-1.15 l 1.4,-0.45 m 8.5,1.5 -6.05,0.85 -0.9,0.3 -0.3,0.95 0.2,1.85 0.3,1.85 0.05,2.15 0.3,2 1,4.1 4.7,-0.3 3.3,-0.05 3.05,0.1 Q -2.8,8.15 -3.1,4.25 L -3.45,0.4 -3.6,-3.95 l 0.25,-0.65 -5.2,0.4 m -14.7,25.6 q 0.05,-3.25 -0.7,-7.9 l -0.6,-0.05 -1.8,0.1 -0.1,0.05 -1.2,1.2 q 0.4,0.55 0.45,1.25 0.1,0.75 -0.3,1.25 l -0.2,0.25 q 0,1.1 -0.65,1.5 l -1.35,0.1 -0.8,0.75 -0.65,0.8 q -0.2,0.6 0,1 l 0.85,0.6 0.9,0.6 0.9,0.2 2.8,-0.05 2.05,-0.8 0.4,-0.15 v -0.7"
         fill="#000000"
         fill-rule="evenodd"
         stroke="none"
         id="path1" />
      <path
         d="m -10.9,-31.75 -0.35,0.1 -0.1,-1.25 16.8,-1.85 0.5,1.8 -1,-0.05 Q -3,-33.05 -10.9,-31.75 m 16.6,16.9 -13.9,-13.1 12.75,-1.25 1.5,0.1 1.55,0.95 7.95,7.55 2.2,2.05 1.35,0.95 -13.4,2.75 m -0.75,3.65 13.85,-2.7 0.9,5.25 h 0.15 l 0.3,7.85 0.45,15.2 -0.05,0.65 q -0.15,0.3 -0.8,0.5 L 5.3,20.8 Q 5.55,16.45 5.35,7.8 L 5,-10.1 4.95,-11.2 m 5.3,12.9 Q 10.7,1.45 10.7,0.35 l -0.3,-4.7 0.15,0.1 q 0.85,0.85 1.55,1.15 l 1.2,0.15 0.8,-0.55 1.05,-1.35 q 0.4,1.4 0.4,3.2 0,0.9 0.15,1.35 0.35,0.85 1.2,1 0.9,0.15 1.5,-0.55 0.45,-0.6 0.45,-1.35 V -2.7 L 18.8,-4 18.6,-4.7 18.5,-8.45 q 0,-1.25 -0.45,-1.8 -0.7,-0.85 -1.95,-0.35 l -1.7,1.3 -1.95,2.65 -1.9,-1.25 -0.8,-0.4 Q 9.25,-8.9 8.5,-8.8 7.7,-8.7 7.3,-7.95 7,-7.25 7.3,-6 l 0.4,3.6 q 0.3,2.1 1.1,3.35 0.65,1.2 1.45,0.75"
         fill="#ececec"
         fill-rule="evenodd"
         stroke="none"
         id="path2" />
      <path
         d="m 0.65,-13.6 0.25,0.7 -0.8,-0.15 -3.7,-0.2 -3.7,-0.1 -3.2,0.1 -6,0.1 -5.85,-0.05 0.65,-1.05 8.8,-12.05 12.25,11.15 1.3,1.55 m -21.4,15.4 -0.6,-7.3 -0.4,-4.35 0.3,-0.1 3.55,-0.55 3.7,-0.2 6,-0.65 8.35,-0.55 0.9,-0.15 v 0.6 l 0.1,2.8 Q 1.5,5.8 2.45,22 L -18,20.75 q 0,-3.7 -1.1,-9.5 L -20.75,1.8 m 3.7,-7.5 -1.4,0.45 q -0.5,0.35 -0.6,1.15 v 1.45 2.6 l 0.35,1.8 0.1,2.5 0.35,2.4 0.95,4.6 0.45,1.3 q 0.75,0.95 3,0.75 L -2,12.9 q 1.35,0 1.8,-0.45 Q 0.3,11.9 0.1,10.3 L 0.05,7.1 Q 0.05,5.5 -0.3,2 l -0.35,-5.1 -0.2,-1.5 q 0.4,-0.4 0,-0.95 l -0.9,-0.55 -5.7,-0.45 -9.6,0.85"
         fill="#b3b3b3"
         fill-rule="evenodd"
         stroke="none"
         id="path3" />
      <path
         d="m -8.55,-4.2 5.2,-0.4 -0.25,0.65 0.15,4.35 0.35,3.85 q 0.3,3.9 0.2,5.35 l -3.05,-0.1 -3.3,0.05 -4.7,0.3 -1,-4.1 -0.3,-2 -0.05,-2.15 -0.3,-1.85 -0.2,-1.85 0.3,-0.95 0.9,-0.3 6.05,-0.85"
         fill="#9e9e9e"
         fill-rule="evenodd"
         stroke="none"
         id="path4" />
      <path
         d="m -23.25,21.4 v 0.7 l -0.4,0.15 -2.05,0.8 -2.8,0.05 -0.9,-0.2 -0.9,-0.6 -0.85,-0.6 q -0.2,-0.4 0,-1 l 0.65,-0.8 0.8,-0.75 1.35,-0.1 q 0.65,-0.4 0.65,-1.5 l 0.2,-0.25 q 0.4,-0.5 0.3,-1.25 -0.05,-0.7 -0.45,-1.25 l 1.2,-1.2 0.1,-0.05 1.8,-0.1 0.6,0.05 q 0.75,4.65 0.7,7.9"
         fill="#ffffff"
         fill-rule="evenodd"
         stroke="none"
         id="path5" />
    </g>
    <g
       id="sprite1"
       transform="translate(17.4,15.85)">
      <use
         ffdec:characterId="31"
         height="57.200001"
         transform="matrix(0.5366,0,0,0.5366,-16.6582,-14.546)"
         width="70.75"
         xlink:href="#sprite2"
         id="use5" />
    </g>
    <g
       id="sprite2"
       transform="translate(-8.65,-10.35)">
      <use
         ffdec:characterId="30"
         height="57.200001"
         transform="translate(8.65,10.35)"
         width="70.75"
         xlink:href="#shape1"
         id="use6" />
    </g>
    <g
       id="shape1"
       transform="translate(-8.65,-10.35)">
      <path
         d="m 14.8,41.7 q 0.65,-1.75 2.65,-2.5 1.8,-0.8 3.7,-0.25 1.15,0.45 2.25,1.2 l 0.9,0.4 q 1.65,0.9 2.85,2.5 L 37.8,30.1 q 2.35,-2.8 3.75,-3.95 1.5,-1.15 4.25,-2.4 18.2,-8.85 27.65,-12.6 2.15,-0.8 3.25,-0.8 h 0.8 l 1.9,2.4 -0.2,0.8 q -0.2,1.1 -1.55,3 -5.85,8.25 -18.85,23.8 -1.85,2.35 -3.35,3.5 -1.4,1.15 -4.75,2.75 l -15.15,7.15 q 1.2,1.6 1.75,3.4 l 0.2,1 0.55,2.5 q 0.1,1.95 -1.1,3.55 -1.2,1.65 -3.05,1.9 l -1.3,0.05 q -1.65,0.2 -3.45,-0.65 -1.85,-0.9 -3,-2.6 L 25,60.95 23.8,62.1 q -2.6,2.85 -4.3,3.95 -2.85,1.8 -5.5,1.45 l -1.65,-0.5 -1.2,-0.7 -0.2,-0.2 q -1,-0.85 -1.6,-1.9 L 9.25,64 9.15,63.8 8.75,62.4 q -0.2,-0.8 -0.05,-1.7 0.25,-2.65 2.7,-5.05 1.5,-1.3 4.9,-3.15 L 17.7,51.55 16.05,50 q -1.35,-1.5 -1.8,-3.6 -0.4,-1.85 0.25,-3.45 l 0.3,-1.25"
         fill="#000000"
         fill-opacity="0.372549"
         fill-rule="evenodd"
         stroke="none"
         id="path6" />
    </g>
  </defs>
</svg>
