<?xml version="1.0" encoding="UTF-8" standalone="no"?>
<svg
   ffdec:objectType="frame"
   height="72.582146"
   width="86.098335"
   version="1.1"
   id="svg5"
   sodipodi:docname="ITEM Cathide Hat.svg"
   xmlns:inkscape="http://www.inkscape.org/namespaces/inkscape"
   xmlns:sodipodi="http://sodipodi.sourceforge.net/DTD/sodipodi-0.dtd"
   xmlns:xlink="http://www.w3.org/1999/xlink"
   xmlns="http://www.w3.org/2000/svg"
   xmlns:svg="http://www.w3.org/2000/svg"
   xmlns:ffdec="https://www.free-decompiler.com/flash">
  <sodipodi:namedview
     id="namedview5"
     pagecolor="#ffffff"
     bordercolor="#000000"
     borderopacity="0.25"
     inkscape:showpageshadow="2"
     inkscape:pageopacity="0.0"
     inkscape:pagecheckerboard="0"
     inkscape:deskcolor="#d1d1d1"
     fit-margin-top="5"
     fit-margin-left="5"
     fit-margin-right="5"
     fit-margin-bottom="5" />
  <g
     transform="translate(45.77963,38.95)"
     id="g1">
    <use
       ffdec:characterId="17"
       height="119.15"
       id="rarity"
       transform="translate(-58.5,-60.65)"
       width="119.15"
       xlink:href="#sprite0" />
    <use
       ffdec:characterId="1137"
       height="72.599998"
       transform="translate(-45.8,-38.95)"
       width="86.099998"
       xlink:href="#shape0"
       id="use1" />
  </g>
  <defs
     id="defs5">
    <g
       id="shape0"
       transform="translate(44.5,37.05)">
      <path
         d="m -6.75,-31.45 q 7.4,0.2 14.35,2.9 2.2,0.9 3.9,2.45 4.35,2.85 7.2,7.05 5.95,-6.8 9.7,-15 0.15,-1.25 1,-2.1 0.85,-0.9 2,-0.9 3.45,1.2 5.05,4.8 l 2.75,6 q 4.1,8.65 1.25,17.55 l -1.2,2.5 Q 35,-0.05 27.7,0.85 q 2.5,6.95 1.2,14.65 -1.7,9.85 -8.05,17.7 -2.3,2.85 -5.4,1.55 -0.95,-0.4 -1,-1.45 L 14.2,30.55 q -0.35,-0.6 -0.4,-1.3 l -0.25,-1.3 Q 7.7,33.4 -0.1,35.5 q -0.6,0.15 -0.95,-0.4 -1.4,-2 -1.3,-4.65 0.05,-3.6 -1.7,-6.8 -1.15,-2 -1.4,-4 l -10,1.2 q -2,0.05 -2.3,-1.55 l -0.4,-0.5 q -2.25,1.25 -4.8,2.1 l -5.55,1.95 q -4.8,1.8 -6.4,-2.5 -8.15,-3.15 -9.55,-11.3 -0.2,-1.2 0.95,-1.75 5.7,-2.55 11.5,-4.8 l -0.55,-0.6 q -0.95,-1.95 -0.05,-3.9 1.05,-4.5 3.75,-8.2 5.65,-7.65 14.85,-10.55 -1.55,-2.55 -2.15,-5.45 -0.75,-3.55 3.15,-4.35 l 6.25,-0.9 m 36.9,25.65 q 6.1,-3.1 5.55,-9.85 l -0.25,-3.45 -0.15,-0.35 -0.1,-0.35 -0.1,-0.45 -1.9,-4.65 -0.95,-1.9 -0.7,1.35 -3.5,9.1 -1.25,3.35 -0.2,0.95 -0.35,1.15 -0.4,3.6 q -0.15,1.2 0.1,2.3 l 0.2,0.3 0.3,0.45 3.7,-1.55 m -6.6,-4.8 q 0.1,-2.05 0.65,-4 l 0.9,-2.3 0.05,-0.15 v -0.15 l 0.05,-0.2 0.1,-0.15 0.1,-0.15 0.15,-0.15 0.05,-0.35 0.3,-0.65 0.1,-0.15 0.3,-1.35 0.1,-0.25 q -2.4,2.75 -5.25,5.05 l -1.85,1.35 q -1.95,1.35 -2.85,-0.65 l -0.2,-0.65 -2.2,-1.85 q -3.8,-3.5 -8.05,-6.3 -4.35,-1.25 -8.75,-2 l -7.6,0.4 3.1,6.75 q 0.25,0.6 -0.2,1.15 -1.6,2 -4.45,1.95 l -3.1,0.65 q -7.2,3.1 -10.75,10 l -0.45,1.2 -0.75,1.9 q 5.2,0.95 8.2,4.95 0.35,0.45 0.05,1 -0.9,1.75 -2.45,3.1 -1.25,1.1 -2.05,2.55 l -0.05,0.15 -0.2,0.7 -0.35,0.8 -0.05,0.2 0.25,-0.05 q 2.65,-0.35 5.1,-1.45 0.7,-0.35 1.35,-0.35 l 0.1,0.05 q 1.55,0.6 2.35,1.95 0.7,1.1 0.85,2.75 l 0.05,0.9 Q -2.95,14.9 6.15,8.95 8.1,7.7 9.4,5.75 10,2.4 12.95,1.6 q 0.8,-0.2 1.5,0.3 l 4.8,3.55 q 2.5,-3.1 2.85,-7.2 0.1,-1.4 1.15,-2.3 l 0.2,-0.05 0.4,-0.05 Q 23.4,-5.9 23.3,-7.75 23.25,-8.9 23.55,-10 v -0.6 M 2,-14.55 l 0.6,0.05 0.4,0.05 0.2,0.2 0.05,0.15 0.1,0.3 v 0.2 l -0.05,0.15 -0.15,0.3 -2.95,0.85 -0.5,0.15 q -4.2,2.05 -7.7,5.1 -1.3,1.1 -2.15,2.6 l -0.05,0.05 0.35,0.15 Q -3.6,-6.5 2.9,-5.7 q 0.9,0.1 1.15,0.95 -1.35,3.5 -5.55,3 -2.45,-0.3 -4.85,0.55 -4.2,1.4 -8.45,0.7 -0.6,-0.1 -0.65,-0.7 -0.3,-2.45 1.35,-4.55 l 0.85,-1 0.45,-0.35 q 4.9,-5.05 11.75,-6.9 l 2.25,-0.45 0.8,-0.1 m 21.15,22.7 q -1,1.55 -2.6,2.35 -1.1,0.65 -2.15,-0.2 Q 16.2,8.5 14,7.25 9.05,15.1 0.05,18.2 2.3,23.45 3.1,29.15 8,26.75 12.2,22.3 q 1.65,-1.75 3.35,0.05 2.05,2.2 2.9,5.05 6.5,-7.9 5.9,-18.2 L 24.2,6.35 23.15,8.15 m -52,4.8 q -0.3,-2.75 1.2,-5.35 l 2.1,-3.25 -1.65,-0.65 q -0.65,0.65 -1.65,1.2 l -10,5.4 q 0.75,1.5 1.8,2.6 1.85,1.85 4.6,2.55 1.5,0.4 2,1.9 l 0.2,0.65 q 2.6,-1.15 5.4,-2 l -2.2,-0.4 h -0.05 l -0.25,-0.05 q -0.9,-0.1 -1.15,-0.95 l -0.35,-1.65"
         fill="#000000"
         fill-rule="evenodd"
         stroke="none"
         id="path1" />
      <path
         d="M -14.7,11.95 Q -15.5,10.6 -17.05,10 l -0.1,-0.05 q -0.65,0 -1.35,0.35 -2.45,1.1 -5.1,1.45 l -0.25,0.05 0.05,-0.2 0.35,-0.8 0.2,-0.7 0.05,-0.15 q 0.8,-1.45 2.05,-2.55 1.55,-1.35 2.45,-3.1 0.3,-0.55 -0.05,-1 -3,-4 -8.2,-4.95 l 0.75,-1.9 0.45,-1.2 q 3.55,-6.9 10.75,-10 l 3.1,-0.65 q 2.85,0.05 4.45,-1.95 0.45,-0.55 0.2,-1.15 l -3.1,-6.75 7.6,-0.4 q 4.4,0.75 8.75,2 4.25,2.8 8.05,6.3 l 2.2,1.85 0.2,0.65 q 0.9,2 2.85,0.65 l 1.85,-1.35 q 2.85,-2.3 5.25,-5.05 l -0.1,0.25 -0.3,1.35 -0.1,0.15 -0.3,0.65 -0.05,0.35 -0.15,0.15 -0.1,0.15 -0.1,0.15 -0.05,0.2 v 0.15 l -0.05,0.15 -0.9,2.3 q -0.55,1.95 -0.65,4 -2.2,3.65 -6.35,5.45 Q 15,-4.2 12.7,-3.8 9.6,5.35 0.4,8.35 -0.3,8.6 -0.7,7.95 -1.45,6.65 -1.3,5.05 -7.35,9.9 -14.7,11.95 M 30.15,-5.8 26.45,-4.25 26.15,-4.7 25.95,-5 q -0.25,-1.1 -0.1,-2.3 l 0.4,-3.6 0.35,-1.15 0.2,-0.95 1.25,-3.35 3.5,-9.1 0.7,-1.35 0.95,1.9 1.9,4.65 0.1,0.45 0.1,0.35 0.15,0.35 0.25,3.45 q 0.55,6.75 -5.55,9.85 M 2,-14.55 1.2,-14.45 -1.05,-14 q -6.85,1.85 -11.75,6.9 l -0.45,0.35 -0.85,1 q -1.65,2.1 -1.35,4.55 0.05,0.6 0.65,0.7 4.25,0.7 8.45,-0.7 2.4,-0.85 4.85,-0.55 4.2,0.5 5.55,-3 Q 3.8,-5.6 2.9,-5.7 -3.6,-6.5 -9.85,-4.25 l -0.35,-0.15 0.05,-0.05 q 0.85,-1.5 2.15,-2.6 3.5,-3.05 7.7,-5.1 l 0.5,-0.15 2.95,-0.85 0.15,-0.3 0.05,-0.15 v -0.2 L 3.25,-14.1 3.2,-14.25 3,-14.45 2.6,-14.5 2,-14.55 M -37.05,12.9 q -1.05,-1.1 -1.8,-2.6 l 10,-5.4 q 1,-0.55 1.65,-1.2 l 1.65,0.65 -2.1,3.25 q -1.5,2.6 -1.2,5.35 -4.05,0.8 -8.2,-0.05"
         fill="#7d6b60"
         fill-rule="evenodd"
         stroke="none"
         id="path2" />
      <path
         d="m -14.7,11.95 q 7.35,-2.05 13.4,-6.9 -0.15,1.6 0.6,2.9 0.4,0.65 1.1,0.4 9.2,-3 12.3,-12.15 2.3,-0.4 4.5,-1.35 4.15,-1.8 6.35,-5.45 v 0.6 q -0.3,1.1 -0.25,2.25 0.1,1.85 0.55,3.6 l -0.4,0.05 -0.2,0.05 q -1.05,0.9 -1.15,2.3 -0.35,4.1 -2.85,7.2 L 14.45,1.9 Q 13.75,1.4 12.95,1.6 10,2.4 9.4,5.75 8.1,7.7 6.15,8.95 -2.95,14.9 -13.8,15.6 l -0.05,-0.9 Q -14,13.05 -14.7,11.95 m -22.35,0.95 q 4.15,0.85 8.2,0.05 l 0.35,1.65 q 0.25,0.85 1.15,0.95 l 0.25,0.05 h 0.05 l 2.2,0.4 q -2.8,0.85 -5.4,2 l -0.2,-0.65 q -0.5,-1.5 -2,-1.9 -2.75,-0.7 -4.6,-2.55"
         fill="#6e5f55"
         fill-rule="evenodd"
         stroke="none"
         id="path3" />
      <path
         d="m 23.15,8.15 1.05,-1.8 0.15,2.85 q 0.6,10.3 -5.9,18.2 Q 17.6,24.55 15.55,22.35 13.85,20.55 12.2,22.3 8,26.75 3.1,29.15 2.3,23.45 0.05,18.2 9.05,15.1 14,7.25 q 2.2,1.25 4.4,3.05 1.05,0.85 2.15,0.2 1.6,-0.8 2.6,-2.35"
         fill="#51423a"
         fill-rule="evenodd"
         stroke="none"
         id="path4" />
    </g>
    <g
       id="sprite1"
       transform="translate(17.4,15.85)">
      <use
         ffdec:characterId="31"
         height="57.200001"
         transform="matrix(0.5366,0,0,0.5366,-16.6582,-14.546)"
         width="70.75"
         xlink:href="#sprite2"
         id="use4" />
    </g>
    <g
       id="sprite2"
       transform="translate(-8.65,-10.35)">
      <use
         ffdec:characterId="30"
         height="57.200001"
         transform="translate(8.65,10.35)"
         width="70.75"
         xlink:href="#shape1"
         id="use5" />
    </g>
    <g
       id="shape1"
       transform="translate(-8.65,-10.35)">
      <path
         d="m 14.8,41.7 q 0.65,-1.75 2.65,-2.5 1.8,-0.8 3.7,-0.25 1.15,0.45 2.25,1.2 l 0.9,0.4 q 1.65,0.9 2.85,2.5 L 37.8,30.1 q 2.35,-2.8 3.75,-3.95 1.5,-1.15 4.25,-2.4 18.2,-8.85 27.65,-12.6 2.15,-0.8 3.25,-0.8 h 0.8 l 1.9,2.4 -0.2,0.8 q -0.2,1.1 -1.55,3 -5.85,8.25 -18.85,23.8 -1.85,2.35 -3.35,3.5 -1.4,1.15 -4.75,2.75 l -15.15,7.15 q 1.2,1.6 1.75,3.4 l 0.2,1 0.55,2.5 q 0.1,1.95 -1.1,3.55 -1.2,1.65 -3.05,1.9 l -1.3,0.05 q -1.65,0.2 -3.45,-0.65 -1.85,-0.9 -3,-2.6 L 25,60.95 23.8,62.1 q -2.6,2.85 -4.3,3.95 -2.85,1.8 -5.5,1.45 l -1.65,-0.5 -1.2,-0.7 -0.2,-0.2 q -1,-0.85 -1.6,-1.9 L 9.25,64 9.15,63.8 8.75,62.4 q -0.2,-0.8 -0.05,-1.7 0.25,-2.65 2.7,-5.05 1.5,-1.3 4.9,-3.15 L 17.7,51.55 16.05,50 q -1.35,-1.5 -1.8,-3.6 -0.4,-1.85 0.25,-3.45 l 0.3,-1.25"
         fill="#000000"
         fill-opacity="0.372549"
         fill-rule="evenodd"
         stroke="none"
         id="path5" />
    </g>
  </defs>
</svg>
