<?xml version="1.0" encoding="UTF-8" standalone="no"?>
<svg
   ffdec:objectType="frame"
   height="63.936363"
   width="52.114975"
   version="1.1"
   id="svg5"
   xmlns:xlink="http://www.w3.org/1999/xlink"
   xmlns="http://www.w3.org/2000/svg"
   xmlns:svg="http://www.w3.org/2000/svg"
   xmlns:ffdec="https://www.free-decompiler.com/flash">
  <g
     transform="translate(27.296226,33.95)"
     id="g1">
    <use
       ffdec:characterId="17"
       height="119.15"
       id="rarity"
       transform="translate(-58.5,-60.65)"
       width="119.15"
       xlink:href="#sprite0" />
    <use
       ffdec:characterId="1261"
       height="64.050003"
       transform="translate(-27.3,-34.05)"
       width="52.099998"
       xlink:href="#shape0"
       id="use1" />
  </g>
  <defs
     id="defs5">
    <g
       id="shape0"
       transform="translate(26,32.15)">
      <path
         d="m 8.75,-25.3 -2.1,-0.65 q -2.75,-0.6 -5.65,0.1 -2,0.35 -4.6,1.55 -3.7,1.6 -6.55,4.35 -3.1,3 -5.15,7.8 l -0.2,0.45 q -1.45,3.5 -2.65,8.6 -1.15,5.25 -1.25,8.85 -0.15,4.85 1.45,8.55 1.85,4.2 6.45,7.5 4.55,3.2 9.35,3.5 L 3.6,24.95 Q 9.9,24 13.05,21.75 18.7,17.9 19.9,10 20.4,7.25 20.3,3.55 20,-7.5 15.65,-17.55 13.8,-21.7 11.7,-23.6 l -2.95,-1.7 m 17.2,35.65 q -0.7,6.4 -4.5,11.65 -3.95,5.4 -9.75,7.6 l -5.25,1.45 -6.35,0.8 q -7.75,0.4 -14.45,-3.6 Q -21,24.15 -24,17.1 q -2.3,-5.45 -1.95,-12.4 0.2,-5.35 2.25,-12.4 3,-10.25 7.7,-15.4 3,-3.35 7.45,-5.85 5.05,-2.75 9.05,-3.1 l 5.95,0.2 q 3.5,0.5 5.4,1.35 4.2,1.9 7.05,6.75 1.7,2.75 3.8,9.05 l 1.85,6.55 q 0.6,2.7 1.1,8.05 0.75,6.7 0.3,10.45"
         fill="#000000"
         fill-rule="evenodd"
         stroke="none"
         id="path1" />
      <path
         d="m 12.1,11.95 1.4,-0.1 q 0.75,0.15 1.25,0.65 0.55,0.5 0.75,1.25 0.2,0.75 -0.05,1.4 -0.3,0.95 -1.35,1.6 l -2.8,0.1 q -0.6,-0.35 -0.95,-1.1 -0.5,-1.2 0.05,-2.3 0.45,-1.15 1.7,-1.5 m -18.8,-22.7 -1.7,-0.15 q -0.8,-0.25 -1.4,-0.85 l -0.95,-1.55 -0.25,-1.45 q 0,-1.4 0.95,-2.85 l 2.1,-2.15 q 2.05,-1.6 3.85,-1.85 l 2.15,0.25 q 1.05,0.4 1.65,1.25 0.75,1.2 0.55,3.3 l -0.35,1.3 -0.7,1.1 -1.3,1.5 -1.35,1.05 -1.5,0.8 -1.75,0.3 M -9.2,-7.7 V -7 l -0.35,0.7 q -0.65,0.9 -1.8,0.55 -1.1,-0.35 -1.2,-1.45 -0.1,-1.15 0.9,-1.65 1.05,-0.5 1.85,0.2 0.45,0.35 0.6,0.95"
         fill="#ffffff"
         fill-rule="evenodd"
         stroke="none"
         id="path2" />
      <path
         d="m -15.5,-11.7 0.2,-0.45 q 2.05,-4.8 5.15,-7.8 2.85,-2.75 6.55,-4.35 2.6,-1.2 4.6,-1.55 2.9,-0.7 5.65,-0.1 l 2.1,0.65 0.9,0.95 q 2.3,2.8 3.35,7.7 0.9,4.4 0.6,8.95 -0.25,3.35 -1,6.1 -0.8,3.3 -2.3,5.85 -2.1,3.5 -5.75,5.65 -3.65,2.15 -7.75,2.3 -4.1,0.1 -7.7,-1.95 -3.75,-2.1 -5.3,-5.7 -1.35,-3.05 -1.1,-7.2 0.2,-4.1 1.8,-9.05 m 6.3,4 q -0.15,-0.6 -0.6,-0.95 -0.8,-0.7 -1.85,-0.2 -1,0.5 -0.9,1.65 0.1,1.1 1.2,1.45 1.15,0.35 1.8,-0.55 L -9.2,-7 v -0.7 m 2.5,-3.05 1.75,-0.3 1.5,-0.8 1.35,-1.05 1.3,-1.5 0.7,-1.1 0.35,-1.3 q 0.2,-2.1 -0.55,-3.3 -0.6,-0.85 -1.65,-1.25 L -4.1,-21.6 q -1.8,0.25 -3.85,1.85 l -2.1,2.15 q -0.95,1.45 -0.95,2.85 l 0.25,1.45 0.95,1.55 q 0.6,0.6 1.4,0.85 l 1.7,0.15 M -8.95,3.05 -9.25,2.6 -9.4,2.35 -9.5,2.1 -9.65,1.9 -9.8,1.4 -9.85,1.2 -9.9,1.25 -9.85,1.35 V 1.6 l 0.2,0.45 0.3,0.7 0.4,0.3"
         fill="#99b9a7"
         fill-rule="evenodd"
         stroke="none"
         id="path3" />
      <path
         d="m -15.5,-11.7 q -1.6,4.95 -1.8,9.05 -0.25,4.15 1.1,7.2 1.55,3.6 5.3,5.7 3.6,2.05 7.7,1.95 Q 0.9,12.05 4.55,9.9 8.2,7.75 10.3,4.25 11.8,1.7 12.6,-1.6 q 0.75,-2.75 1,-6.1 0.3,-4.55 -0.6,-8.95 -1.05,-4.9 -3.35,-7.7 l -0.9,-0.95 2.95,1.7 q 2.1,1.9 3.95,6.05 Q 20,-7.5 20.3,3.55 20.4,7.25 19.9,10 18.7,17.9 13.05,21.75 9.9,24 3.6,24.95 l -5.75,0.35 q -4.8,-0.3 -9.35,-3.5 -4.6,-3.3 -6.45,-7.5 -1.6,-3.7 -1.45,-8.55 0.1,-3.6 1.25,-8.85 1.2,-5.1 2.65,-8.6 m 27.6,23.65 q -1.25,0.35 -1.7,1.5 -0.55,1.1 -0.05,2.3 0.35,0.75 0.95,1.1 l 2.8,-0.1 Q 15.15,16.1 15.45,15.15 15.7,14.5 15.5,13.75 15.3,13 14.75,12.5 14.25,12 13.5,11.85 l -1.4,0.1"
         fill="#5e796a"
         fill-rule="evenodd"
         stroke="none"
         id="path4" />
    </g>
    <g
       id="sprite1"
       transform="translate(17.4,15.85)">
      <use
         ffdec:characterId="31"
         height="57.200001"
         transform="matrix(0.5366,0,0,0.5366,-16.6582,-14.546)"
         width="70.75"
         xlink:href="#sprite2"
         id="use4" />
    </g>
    <g
       id="sprite2"
       transform="translate(-8.65,-10.35)">
      <use
         ffdec:characterId="30"
         height="57.200001"
         transform="translate(8.65,10.35)"
         width="70.75"
         xlink:href="#shape1"
         id="use5" />
    </g>
    <g
       id="shape1"
       transform="translate(-8.65,-10.35)">
      <path
         d="m 14.8,41.7 q 0.65,-1.75 2.65,-2.5 1.8,-0.8 3.7,-0.25 1.15,0.45 2.25,1.2 l 0.9,0.4 q 1.65,0.9 2.85,2.5 L 37.8,30.1 q 2.35,-2.8 3.75,-3.95 1.5,-1.15 4.25,-2.4 18.2,-8.85 27.65,-12.6 2.15,-0.8 3.25,-0.8 h 0.8 l 1.9,2.4 -0.2,0.8 q -0.2,1.1 -1.55,3 -5.85,8.25 -18.85,23.8 -1.85,2.35 -3.35,3.5 -1.4,1.15 -4.75,2.75 l -15.15,7.15 q 1.2,1.6 1.75,3.4 l 0.2,1 0.55,2.5 q 0.1,1.95 -1.1,3.55 -1.2,1.65 -3.05,1.9 l -1.3,0.05 q -1.65,0.2 -3.45,-0.65 -1.85,-0.9 -3,-2.6 L 25,60.95 23.8,62.1 q -2.6,2.85 -4.3,3.95 -2.85,1.8 -5.5,1.45 l -1.65,-0.5 -1.2,-0.7 -0.2,-0.2 q -1,-0.85 -1.6,-1.9 L 9.25,64 9.15,63.8 8.75,62.4 q -0.2,-0.8 -0.05,-1.7 0.25,-2.65 2.7,-5.05 1.5,-1.3 4.9,-3.15 L 17.7,51.55 16.05,50 q -1.35,-1.5 -1.8,-3.6 -0.4,-1.85 0.25,-3.45 l 0.3,-1.25"
         fill="#000000"
         fill-opacity="0.372549"
         fill-rule="evenodd"
         stroke="none"
         id="path5" />
    </g>
  </defs>
</svg>
