<?xml version="1.0" encoding="UTF-8" standalone="no"?>
<svg
   ffdec:objectType="frame"
   height="71.485481"
   width="78.860497"
   version="1.1"
   id="svg6"
   sodipodi:docname="ITEM Debris Hat.svg"
   xmlns:inkscape="http://www.inkscape.org/namespaces/inkscape"
   xmlns:sodipodi="http://sodipodi.sourceforge.net/DTD/sodipodi-0.dtd"
   xmlns:xlink="http://www.w3.org/1999/xlink"
   xmlns="http://www.w3.org/2000/svg"
   xmlns:svg="http://www.w3.org/2000/svg"
   xmlns:ffdec="https://www.free-decompiler.com/flash">
  <sodipodi:namedview
     id="namedview6"
     pagecolor="#ffffff"
     bordercolor="#000000"
     borderopacity="0.25"
     inkscape:showpageshadow="2"
     inkscape:pageopacity="0.0"
     inkscape:pagecheckerboard="0"
     inkscape:deskcolor="#d1d1d1"
     fit-margin-top="5"
     fit-margin-left="5"
     fit-margin-right="5"
     fit-margin-bottom="5" />
  <g
     transform="translate(38.5725,40.35)"
     id="g1">
    <use
       ffdec:characterId="17"
       height="119.15"
       id="rarity"
       transform="translate(-58.5,-60.65)"
       width="119.15"
       xlink:href="#sprite0" />
    <use
       ffdec:characterId="1210"
       height="71.5"
       transform="translate(-38.55,-40.35)"
       width="78.849998"
       xlink:href="#shape0"
       id="use1" />
  </g>
  <defs
     id="defs6">
    <g
       id="shape0"
       transform="translate(37.25,38.45)">
      <path
         d="m 2.75,-20 q 3.75,0.4 4,4.4 l 0.2,3.45 q 3.15,-1.25 6.6,-1.65 l 8,-0.35 q 9,-1.25 16.15,3.6 5.4,3.7 3.3,9.85 l -0.55,1.2 q -3.85,6.3 -11.2,8.35 -9.35,2.6 -18.85,4.6 -7.75,1.6 -15.55,1.2 l -2.65,2.6 q 1.45,1.4 2.45,3.4 l 0.15,0.25 q 1.75,-1.4 3.9,-2.3 5.75,-2.4 9.95,2.1 1.1,1.2 1.05,2.9 5.05,3.25 9.5,-0.35 l 1.4,-1.55 q 2.6,-4.1 6.2,-1.15 l 0.4,0.6 -0.05,0.8 q -0.2,0.6 -0.8,0.9 l -1.5,0.4 -0.65,0.25 q -3.75,7.35 -12.5,6.05 -4.85,-0.8 -6.4,-5 v -0.5 q -1.2,-2 -3.8,-2.05 -2.85,1 -5.1,2.9 l 0.65,1.15 1.7,1.85 0.85,0.2 0.4,0.1 q 4,-0.95 3.8,2.65 -0.1,1.15 -1.2,1.6 -4,1.65 -7.25,-1.35 -1.3,-1.25 -2,-2.85 l -0.4,0.6 q -0.75,1.2 -1.95,1.95 -6.3,3.85 -11.2,-1.7 -0.9,-1 -1,-2.4 -0.2,-2.45 0.65,-4.6 l -1.05,1.25 q -1.8,2.2 -4.6,0.75 -3.6,-1.75 -6.05,-4.65 -0.25,-0.3 -0.05,-0.7 l 2.15,-3.4 -2.5,0.25 q -2.1,0.2 -2.4,-1.45 l -0.4,-1.45 -0.9,-8.55 -0.8,-6.95 q -0.35,-3.55 0.3,-6.85 0.15,-0.9 1.1,-1.3 9.8,-4.4 20.45,-6.35 l 2.8,-0.45 -0.25,-0.3 -7.6,-8.45 q -0.5,-0.6 -0.25,-1.4 0.95,-2.75 3.85,-4.05 1.45,-0.7 2.75,-1.6 4.05,-2.95 8.4,-4.9 4.5,0.7 2.55,4.6 -0.4,0.9 -1.25,1.5 l -8.15,6.65 6,6.95 3.85,-0.6 5.35,-0.65 m 8.35,11.85 -3.95,0.4 0.15,5.2 q 2.95,-1 6.15,-1.4 L 14.85,-4.1 14.4,-4.9 V -5.05 L 14.35,-5.25 14.3,-5.4 V -5.55 L 14.2,-5.7 14.1,-5.9 13.7,-8.5 11.1,-8.15 M 36.35,-4.9 36.3,-5.05 36,-5.55 Q 29.55,-9.85 21.55,-9.1 l -4.2,0.3 0.05,1.45 -0.2,2.75 v 0.2 l 8.1,-0.85 11.1,0.45 -0.05,-0.1 M -8.6,11.5 -3.1,6.2 2.2,0.8 2.15,0.65 V 0.3 0.15 L 2.25,0 l -0.4,-8.95 -0.45,-5.4 -12,1.8 -0.05,0.1 -2.1,2.1 -0.6,0.5 -4.05,5.45 -1.55,2.55 q 1.05,2.5 3.05,4.75 2.75,3.1 0.55,5.85 -1.25,1.6 -2,3.45 l -0.1,0.3 1.75,1.05 2.4,1.55 4,-2.85 0.7,-0.75 M 4.35,5.8 3.1,6.7 -0.4,9.9 1.7,9.6 Q 11.5,8.25 21.1,6.05 26.75,4.75 32.05,2.2 34.35,1.1 35.6,-0.75 l -4.85,-0.3 Q 28.6,0.7 25.8,1.7 15.45,5.45 4.55,5.7 L 4.35,5.8 M 17.6,-0.75 11.55,0 7.7,0.6 7.45,0.7 q 0,1.15 -0.4,2.15 Q 14.4,1.5 21.45,-1 l -3.85,0.25 m -32.8,-10.75 -12.35,3.45 -4.25,1.45 q 0.45,4.15 0.55,8.35 l 0.45,5.05 q 0.6,1.9 0.65,3.7 l 6.5,-1.55 3,1.65 q 1.05,-2.15 2.6,-3.95 -0.55,-1.85 -2,-3.2 l -0.05,0.1 q -3.65,2.05 -7.25,0.7 -0.6,-0.2 -0.5,-0.9 l -0.1,-0.15 -0.1,-0.15 -0.1,-1.3 0.05,-1.3 q -0.45,-1.45 -0.5,-2.95 0,-0.95 0.4,-1.8 3.2,-1.55 6.7,-1.75 l 0.9,0.45 0.4,-0.4 3.65,-3.95 1.55,-1.6 -0.2,0.05 m -8.3,7.6 -0.8,0.25 -0.5,0.1 q -0.2,0.15 -0.45,0.25 l -0.95,0.45 0.15,2.15 0.4,2.75 3.15,-0.3 Q -22,1.7 -21.95,1.3 l -0.35,-1.45 -0.2,-2.65 -0.1,-0.15 -0.1,-0.15 -0.05,-0.15 -0.05,-0.2 V -3.6 l -0.05,-0.15 v -0.1 l -0.45,-0.1 -0.2,0.05 m 15.85,0.6 -2.5,0.5 -0.75,0.3 0.2,1 q 0.3,1.35 0.2,2.75 V 1.4 q 0.2,0.4 0.25,0.85 l 0.4,2.1 0.15,0.35 2.05,-0.5 Q -6.6,3.7 -5.55,3.35 L -5.65,2.85 -5.95,1.55 -6,0.75 -6.15,0.45 -6.3,0.1 -6.55,-0.7 v -0.15 l -0.1,-0.2 -0.1,-0.15 -0.1,-0.15 -0.1,-0.35 -0.15,-0.5 -0.4,-1.1 h -0.15 m 1.65,-2.5 0.8,0.35 0.25,0.1 0.3,0.65 v 1 q 0.95,2.3 1.3,4.7 l 0.3,2.5 0.2,0.45 V 5.1 q -1.8,1.7 -4.6,2.3 l -3.1,0.65 q -0.95,0.15 -1.4,-0.7 l -0.5,-2.8 -0.2,-1.8 -0.65,-4.35 q -0.2,-1.3 0.55,-2.3 2.7,-1.3 5.7,-1.45 0.1,-0.05 0.25,-0.15 L -6.55,-5.65 -6,-5.75 V -5.8 m 4.35,-6.05 q 3.25,1.05 1.1,3.55 -0.95,1.05 -2.1,0.15 -2.05,-1.6 -0.05,-3.3 l 1.05,-0.4 m -9.65,32 q -2.45,1.9 -4.95,-0.15 l -0.15,-0.15 -0.05,0.05 q -2.35,3.9 0.3,7.15 l 0.85,0.55 q 3.8,1.25 6.15,-2.35 l 0.85,-1.2 -1.95,-4.7 -1.05,0.8 m -11.9,-4.6 -1.1,-0.9 -1.8,0.25 -1.25,1.9 -0.7,1.1 q 1.6,1.95 4.15,2.25 l 2.55,-3.35 -1.85,-1.25"
         fill="#000000"
         fill-rule="evenodd"
         stroke="none"
         id="path1" />
      <path
         d="m -8.6,11.5 -0.7,0.75 -4,2.85 -2.4,-1.55 -1.75,-1.05 0.1,-0.3 q 0.75,-1.85 2,-3.45 2.2,-2.75 -0.55,-5.85 -2,-2.25 -3.05,-4.75 l 1.55,-2.55 4.05,-5.45 0.6,-0.5 2.1,-2.1 0.05,-0.1 12,-1.8 0.45,5.4 L 2.25,0 2.15,0.15 V 0.3 0.65 L 2.2,0.8 -3.1,6.2 -8.6,11.5 m -6.6,-23 0.2,-0.05 -1.55,1.6 -3.65,3.95 -0.4,0.4 -0.9,-0.45 q -3.5,0.2 -6.7,1.75 -0.4,0.85 -0.4,1.8 0.05,1.5 0.5,2.95 l -0.05,1.3 0.1,1.3 0.1,0.15 0.1,0.15 q -0.1,0.7 0.5,0.9 3.6,1.35 7.25,-0.7 l 0.05,-0.1 q 1.45,1.35 2,3.2 -1.55,1.8 -2.6,3.95 l -3,-1.65 -6.5,1.55 Q -30.2,8.7 -30.8,6.8 l -0.45,-5.05 q -0.1,-4.2 -0.55,-8.35 l 4.25,-1.45 12.35,-3.45 m 13.55,-0.35 -1.05,0.4 q -2,1.7 0.05,3.3 1.15,0.9 2.1,-0.15 2.15,-2.5 -1.1,-3.55 M -6,-5.8 v 0.05 l -0.55,0.1 -0.25,0.15 q -0.15,0.1 -0.25,0.15 -3,0.15 -5.7,1.45 -0.75,1 -0.55,2.3 l 0.65,4.35 0.2,1.8 0.5,2.8 q 0.45,0.85 1.4,0.7 l 3.1,-0.65 q 2.8,-0.6 4.6,-2.3 V 3.95 L -3.05,3.5 -3.35,1 q -0.35,-2.4 -1.3,-4.7 v -1 L -4.95,-5.35 -5.2,-5.45 -6,-5.8"
         fill="#5f6070"
         fill-rule="evenodd"
         stroke="none"
         id="path2" />
      <path
         d="m -7.65,-3.3 h 0.15 l 0.4,1.1 0.15,0.5 0.1,0.35 0.1,0.15 0.1,0.15 0.1,0.2 v 0.15 l 0.25,0.8 0.15,0.35 0.15,0.3 0.05,0.8 0.3,1.3 0.1,0.5 Q -6.6,3.7 -7.65,4.2 L -9.7,4.7 -9.85,4.35 -10.25,2.25 Q -10.3,1.8 -10.5,1.4 V 1.25 q 0.1,-1.4 -0.2,-2.75 l -0.2,-1 0.75,-0.3 2.5,-0.5 m -15.85,-0.6 0.2,-0.05 0.45,0.1 v 0.1 l 0.05,0.15 v 0.15 l 0.05,0.2 0.05,0.15 0.1,0.15 0.1,0.15 0.2,2.65 0.35,1.45 Q -22,1.7 -22.5,1.75 l -3.15,0.3 -0.4,-2.75 -0.15,-2.15 0.95,-0.45 q 0.25,-0.1 0.45,-0.25 l 0.5,-0.1 0.8,-0.25"
         fill="#494a53"
         fill-rule="evenodd"
         stroke="none"
         id="path3" />
      <path
         d="m 36.35,-4.9 0.05,0.1 -11.1,-0.45 -8.1,0.85 v -0.2 l 0.2,-2.75 -0.05,-1.45 4.2,-0.3 q 8,-0.75 14.45,3.55 l 0.3,0.5 0.05,0.15 m -25.25,-3.25 2.6,-0.35 0.4,2.6 0.1,0.2 0.1,0.15 v 0.15 l 0.05,0.15 0.05,0.2 v 0.15 l 0.45,0.8 -1.4,0.15 q -3.2,0.4 -6.15,1.4 l -0.15,-5.2 3.95,-0.4 m -34.3,23.7 1.85,1.25 -2.55,3.35 q -2.55,-0.3 -4.15,-2.25 l 0.7,-1.1 1.25,-1.9 1.8,-0.25 1.1,0.9"
         fill="#949494"
         fill-rule="evenodd"
         stroke="none"
         id="path4" />
      <path
         d="m 4.35,5.8 0.2,-0.1 q 10.9,-0.25 21.25,-4 2.8,-1 4.95,-2.75 l 4.85,0.3 Q 34.35,1.1 32.05,2.2 26.75,4.75 21.1,6.05 11.5,8.25 1.7,9.6 L -0.4,9.9 3.1,6.7 4.35,5.8"
         fill="#707070"
         fill-rule="evenodd"
         stroke="none"
         id="path5" />
    </g>
    <g
       id="sprite1"
       transform="translate(17.4,15.85)">
      <use
         ffdec:characterId="31"
         height="57.200001"
         transform="matrix(0.5366,0,0,0.5366,-16.6582,-14.546)"
         width="70.75"
         xlink:href="#sprite2"
         id="use5" />
    </g>
    <g
       id="sprite2"
       transform="translate(-8.65,-10.35)">
      <use
         ffdec:characterId="30"
         height="57.200001"
         transform="translate(8.65,10.35)"
         width="70.75"
         xlink:href="#shape1"
         id="use6" />
    </g>
    <g
       id="shape1"
       transform="translate(-8.65,-10.35)">
      <path
         d="m 14.8,41.7 q 0.65,-1.75 2.65,-2.5 1.8,-0.8 3.7,-0.25 1.15,0.45 2.25,1.2 l 0.9,0.4 q 1.65,0.9 2.85,2.5 L 37.8,30.1 q 2.35,-2.8 3.75,-3.95 1.5,-1.15 4.25,-2.4 18.2,-8.85 27.65,-12.6 2.15,-0.8 3.25,-0.8 h 0.8 l 1.9,2.4 -0.2,0.8 q -0.2,1.1 -1.55,3 -5.85,8.25 -18.85,23.8 -1.85,2.35 -3.35,3.5 -1.4,1.15 -4.75,2.75 l -15.15,7.15 q 1.2,1.6 1.75,3.4 l 0.2,1 0.55,2.5 q 0.1,1.95 -1.1,3.55 -1.2,1.65 -3.05,1.9 l -1.3,0.05 q -1.65,0.2 -3.45,-0.65 -1.85,-0.9 -3,-2.6 L 25,60.95 23.8,62.1 q -2.6,2.85 -4.3,3.95 -2.85,1.8 -5.5,1.45 l -1.65,-0.5 -1.2,-0.7 -0.2,-0.2 q -1,-0.85 -1.6,-1.9 L 9.25,64 9.15,63.8 8.75,62.4 q -0.2,-0.8 -0.05,-1.7 0.25,-2.65 2.7,-5.05 1.5,-1.3 4.9,-3.15 L 17.7,51.55 16.05,50 q -1.35,-1.5 -1.8,-3.6 -0.4,-1.85 0.25,-3.45 l 0.3,-1.25"
         fill="#000000"
         fill-opacity="0.372549"
         fill-rule="evenodd"
         stroke="none"
         id="path6" />
    </g>
  </defs>
</svg>
