<?xml version="1.0" encoding="UTF-8" standalone="no"?>
<svg
   ffdec:objectType="frame"
   height="70.03167"
   width="58.246845"
   version="1.1"
   id="svg6"
   xmlns:xlink="http://www.w3.org/1999/xlink"
   xmlns="http://www.w3.org/2000/svg"
   xmlns:svg="http://www.w3.org/2000/svg"
   xmlns:ffdec="https://www.free-decompiler.com/flash">
  <g
     transform="translate(28.562121,37.25)"
     id="g1">
    <use
       ffdec:characterId="17"
       height="119.15"
       id="rarity"
       transform="translate(-58.5,-60.65)"
       width="119.15"
       xlink:href="#sprite0" />
    <use
       ffdec:characterId="210"
       height="70.199997"
       transform="translate(-28.55,-37.4)"
       width="58.25"
       xlink:href="#shape0"
       id="use1" />
  </g>
  <defs
     id="defs6">
    <g
       id="shape0"
       transform="translate(28.25,39.9)">
      <path
         d="m -14.95,-15.55 q -2.15,-1.35 -3.1,-3.85 -1,-2.45 -0.4,-4.95 0.4,-1.5 1.5,-3.2 1.5,-2.5 3.9,-4.65 2.25,-2 6,-4.05 5.3,-3 9.25,-3.5 l 5,0.25 q 2.55,0.65 4.3,2.3 1.9,1.75 2.4,4.3 0.55,2.65 -0.65,4.7 l 1.75,0.5 q 2.35,1 3.2,3.2 l 0.45,1.3 0.3,0.65 0.1,1 q 0,1.35 -0.55,2.75 l -0.05,0.1 q -1.05,4.35 -3.2,7.65 l 3.5,1.3 q 5.1,2.2 7.85,5.7 2.45,3.05 3.15,7.2 0.65,4.05 -0.5,7.95 -2.2,7.45 -9.45,12.5 -6,4.15 -14.75,5.8 -5.8,1.15 -10.8,0.8 -5,-0.35 -9.9,-2.2 -4.4,-1.6 -7.45,-4.1 -3.55,-2.9 -4.65,-6.65 -1.3,-4.45 0.7,-9.95 1.7,-4.8 5.25,-8.65 3.45,-3.9 8.05,-6.1 l 2.05,-0.85 q -1.3,-1.8 -2.35,-4.45 -0.6,-1.55 -0.6,-2.6 l -0.3,-0.2 M 8.15,-29.9 q 0.65,-0.65 0.8,-1.2 0.45,-1.2 -0.75,-2.25 l -0.55,-0.35 -1.8,-0.6 -1.2,-0.1 -0.75,0.7 q -1.4,0.95 -3.15,3.85 l -1.4,2.4 0.85,1.1 0.05,0.1 0.55,1.15 0.3,0.5 q 3.9,-2 7.05,-5.3 m -7.45,-2.15 1,-1.35 0.9,-0.85 -2.25,0.6 q -2,0.65 -4.35,2 l -3.65,2.35 -1.55,1.2 -1.3,1.25 0.75,-0.15 7.2,-1.15 0.25,-0.05 0.5,-0.15 0.45,-0.5 0.45,-0.8 1.6,-2.4 m 11.9,9.95 0.2,-0.65 q -0.05,-0.4 -0.85,-0.65 l -1.8,-0.45 -1.2,-0.05 -0.75,0.55 -2.9,1.85 0.65,0.05 1.25,0.25 1.3,0.35 0.75,0.7 0.5,0.7 0.5,-0.2 q 1.7,-0.7 2.1,-1.7 l 0.25,-0.75 m -18.4,12.6 0.85,0.55 q 1.7,0.95 4.35,1.1 3.25,0.2 6.1,-0.9 l 2.6,-1.6 2.25,-1.95 1.55,-2.5 q -2.35,1.15 -5.75,1.6 l -11.25,0.35 -3.85,-0.65 q 1.35,2.6 3.15,4 m 18.45,3.2 -1.3,-0.3 H 11.3 q -3.45,2.8 -7.55,3.4 l -4.3,0.2 -3.95,-0.45 -2.4,-0.8 -0.6,-0.3 -0.55,-0.35 q -3.4,1.55 -6.3,4.05 -1.9,1.6 -3.4,3.5 l -0.75,0.95 -1.45,2.1 q -3.05,5.1 -2,9.2 l 0.15,-1.85 q 0.45,-2.85 2.05,-5.3 2.85,-4.4 8.7,-7.05 4.3,-1.95 10.95,-3 L 11.65,-2.9 Q 18.25,-2.15 22.3,1.75 23.9,3.2 24.6,5 L 24.9,4.9 Q 24.6,1.95 23,-0.35 21.45,-2.55 18.65,-4.1 l -0.8,-0.4 q -2.1,-1 -5.2,-1.8 m -23,-18.7 -1.5,0.35 -0.25,0.05 -0.7,1.55 -0.2,0.8 v 0.6 q 0.1,0.5 0.8,1.3 l 0.75,0.45 0.75,-0.15 2.15,-0.6 2.2,-0.65 2.8,-1.35 2.6,-1.05 -0.55,-1.15 -0.4,-1.05 -0.1,-0.4 -0.75,0.1 -1.45,0.15 -6.15,1.05 m 5.9,28.65 q -6,1.65 -8.95,4.25 -1.95,1.75 -2.85,4.1 -0.65,1.65 -0.6,3.2 6.3,3.05 13.95,3.3 7.4,0.2 14.65,-2.3 4.85,-1.75 7.05,-4.1 L 21,9.25 V 8.9 Q 21.1,7.35 20.55,6.25 19.95,5.1 18.1,4.05 13.25,1.35 6.9,1.6 2,1.75 -4.45,3.65 m -5.85,17.95 -6.3,-2.05 q 1.8,2.15 3.65,3 l 3.15,1.3 q 4.75,1.2 9.8,0.9 4.2,-0.25 10.9,-2.25 6.65,-2 9.95,-5.9 -6.55,3.3 -11.75,4.45 l -4,0.8 -10.05,0.6 -5.35,-0.85"
         fill="#000000"
         fill-rule="evenodd"
         stroke="none"
         id="path1" />
      <path
         d="m 0.35,-33.65 q 0.35,0.5 0.35,1.35 v 0.25 l -1.6,2.4 -1.3,1.1 -0.35,0.4 -7.2,1.15 0.1,-0.2 1.45,-1.5 0.55,-0.6 3.65,-2.35 q 2.35,-1.35 4.35,-2 m -5.45,20.8 0.3,0.95 q 0.1,0.8 -0.3,1.5 l -0.7,0.9 q -1.8,-1.4 -3.15,-4 l 3.85,0.65 m -2.35,8.7 q 0,0.9 -0.95,1.75 l -1.7,1.15 -1.5,1.2 -1.65,1.1 -1.35,0.7 -0.95,0.75 -0.95,0.55 -0.85,0.55 -0.85,0.05 -0.3,-0.05 0.75,-0.95 q 1.5,-1.9 3.4,-3.5 2.9,-2.5 6.3,-4.05 l 0.55,0.35 0.05,0.35 v 0.05 m 26.1,0.05 -3.6,0.25 q -1.15,-0.1 -1.65,-0.35 -0.95,-0.45 -0.95,-1.3 -0.05,-0.4 0.2,-0.8 3.1,0.8 5.2,1.8 l 0.8,0.4 m -22.85,-21.95 -1.15,1.55 -1.05,1.25 -1.05,0.7 q -1.15,0.5 -2.15,-0.35 -1.05,-0.8 -0.8,-2.05 l 0.05,-0.05 6.15,-1.05 m 9.3,47.9 q -3,1.6 -6.45,1.95 l -5.15,-0.2 -2.8,-0.95 -1,-1.05 5.35,0.85 10.05,-0.6"
         fill="#ffffff"
         fill-rule="evenodd"
         stroke="none"
         id="path2" />
      <path
         d="m 12.6,-22.1 -0.25,0.75 q -0.4,1 -2.1,1.7 l -0.5,0.2 -0.5,-0.7 -0.75,-0.7 -1.3,-0.35 -1.25,-0.25 -0.65,-0.05 2.9,-1.85 0.75,-0.55 1.2,0.05 1.8,0.45 q 0.8,0.25 0.85,0.65 l -0.2,0.65 m -7.5,43.95 4,-0.8 q 5.2,-1.15 11.75,-4.45 -3.3,3.9 -9.95,5.9 -6.7,2 -10.9,2.25 -5.05,0.3 -9.8,-0.9 l -3.15,-1.3 q -1.85,-0.85 -3.65,-3 l 6.3,2.05 1,1.05 2.8,0.95 5.15,0.2 Q 2.1,23.45 5.1,21.85"
         fill="#7b7762"
         fill-rule="evenodd"
         stroke="none"
         id="path3" />
      <path
         d="M -5.1,-12.85 6.15,-13.2 q 3.4,-0.45 5.75,-1.6 l -1.55,2.5 -2.25,1.95 -2.6,1.6 q -2.85,1.1 -6.1,0.9 -2.65,-0.15 -4.35,-1.1 l -0.85,-0.55 0.7,-0.9 q 0.4,-0.7 0.3,-1.5 l -0.3,-0.95 m -1.8,8.6 2.4,0.8 3.95,0.45 4.3,-0.2 q 4.1,-0.6 7.55,-3.4 h 0.05 l 1.3,0.3 q -0.25,0.4 -0.2,0.8 0,0.85 0.95,1.3 0.5,0.25 1.65,0.35 l 3.6,-0.25 q 2.8,1.55 4.35,3.75 1.6,2.3 1.9,5.25 L 24.6,5 Q 23.9,3.2 22.3,1.75 18.25,-2.15 11.65,-2.9 L -0.1,-2.3 q -6.65,1.05 -10.95,3 -5.85,2.65 -8.7,7.05 -1.6,2.45 -2.05,5.3 l -0.15,1.85 q -1.05,-4.1 2,-9.2 l 1.45,-2.1 0.3,0.05 0.85,-0.05 0.85,-0.55 0.95,-0.55 0.95,-0.75 1.35,-0.7 1.65,-1.1 1.5,-1.2 1.7,-1.15 q 0.95,-0.85 0.95,-1.75 l 0.55,-0.1"
         fill="#cbc5a4"
         fill-rule="evenodd"
         stroke="none"
         id="path4" />
      <path
         d="m 0.35,-33.65 2.25,-0.6 -0.9,0.85 -1,1.35 v -0.25 q 0,-0.85 -0.35,-1.35 m 7.8,3.75 Q 5,-26.6 1.1,-24.6 l -0.3,-0.5 -0.55,-1.15 -0.05,-0.1 -0.85,-1.1 1.4,-2.4 q 1.75,-2.9 3.15,-3.85 l 0.75,-0.7 1.2,0.1 1.8,0.6 0.55,0.35 q 1.2,1.05 0.75,2.25 -0.15,0.55 -0.8,1.2 m -9.05,0.25 -0.45,0.8 -0.45,0.5 -0.5,0.15 -0.25,0.05 0.35,-0.4 1.3,-1.1 m -8.85,2.65 -0.75,0.15 1.3,-1.25 1.55,-1.2 -0.55,0.6 -1.45,1.5 -0.1,0.2 m -0.6,2 -0.05,0.05 q -0.25,1.25 0.8,2.05 1,0.85 2.15,0.35 l 1.05,-0.7 1.05,-1.25 1.15,-1.55 1.45,-0.15 0.75,-0.1 0.1,0.4 0.4,1.05 0.55,1.15 -2.6,1.05 -2.8,1.35 -2.2,0.65 -2.15,0.6 -0.75,0.15 -0.75,-0.45 q -0.7,-0.8 -0.8,-1.3 v -0.6 l 0.2,-0.8 0.7,-1.55 0.25,-0.05 1.5,-0.35"
         fill="#b9cfcd"
         fill-rule="evenodd"
         stroke="none"
         id="path5" />
    </g>
    <g
       id="sprite1"
       transform="translate(17.4,15.85)">
      <use
         ffdec:characterId="31"
         height="57.200001"
         transform="matrix(0.5366,0,0,0.5366,-16.6582,-14.546)"
         width="70.75"
         xlink:href="#sprite2"
         id="use5" />
    </g>
    <g
       id="sprite2"
       transform="translate(-8.65,-10.35)">
      <use
         ffdec:characterId="30"
         height="57.200001"
         transform="translate(8.65,10.35)"
         width="70.75"
         xlink:href="#shape1"
         id="use6" />
    </g>
    <g
       id="shape1"
       transform="translate(-8.65,-10.35)">
      <path
         d="m 14.8,41.7 q 0.65,-1.75 2.65,-2.5 1.8,-0.8 3.7,-0.25 1.15,0.45 2.25,1.2 l 0.9,0.4 q 1.65,0.9 2.85,2.5 L 37.8,30.1 q 2.35,-2.8 3.75,-3.95 1.5,-1.15 4.25,-2.4 18.2,-8.85 27.65,-12.6 2.15,-0.8 3.25,-0.8 h 0.8 l 1.9,2.4 -0.2,0.8 q -0.2,1.1 -1.55,3 -5.85,8.25 -18.85,23.8 -1.85,2.35 -3.35,3.5 -1.4,1.15 -4.75,2.75 l -15.15,7.15 q 1.2,1.6 1.75,3.4 l 0.2,1 0.55,2.5 q 0.1,1.95 -1.1,3.55 -1.2,1.65 -3.05,1.9 l -1.3,0.05 q -1.65,0.2 -3.45,-0.65 -1.85,-0.9 -3,-2.6 L 25,60.95 23.8,62.1 q -2.6,2.85 -4.3,3.95 -2.85,1.8 -5.5,1.45 l -1.65,-0.5 -1.2,-0.7 -0.2,-0.2 q -1,-0.85 -1.6,-1.9 L 9.25,64 9.15,63.8 8.75,62.4 q -0.2,-0.8 -0.05,-1.7 0.25,-2.65 2.7,-5.05 1.5,-1.3 4.9,-3.15 L 17.7,51.55 16.05,50 q -1.35,-1.5 -1.8,-3.6 -0.4,-1.85 0.25,-3.45 l 0.3,-1.25"
         fill="#000000"
         fill-opacity="0.372549"
         fill-rule="evenodd"
         stroke="none"
         id="path6" />
    </g>
  </defs>
</svg>
