<?xml version="1.0" encoding="UTF-8" standalone="no"?>
<svg
   ffdec:objectType="frame"
   height="42.808655"
   width="57.500931"
   version="1.1"
   id="svg5"
   xmlns:xlink="http://www.w3.org/1999/xlink"
   xmlns="http://www.w3.org/2000/svg"
   xmlns:svg="http://www.w3.org/2000/svg"
   xmlns:ffdec="https://www.free-decompiler.com/flash">
  <g
     transform="translate(29.922727,26.35)"
     id="g1">
    <use
       ffdec:characterId="17"
       height="119.15"
       id="rarity"
       transform="translate(-58.5,-60.65)"
       width="119.15"
       xlink:href="#sprite0" />
    <use
       ffdec:characterId="91"
       height="42.799999"
       transform="translate(-29.9,-26.35)"
       width="57.5"
       xlink:href="#shape0"
       id="use1" />
  </g>
  <defs
     id="defs5">
    <g
       id="shape0"
       transform="translate(29.6,28.85)">
      <path
         d="m 27.2,5.65 q 1.15,2.75 0.35,4.2 -0.8,1.35 -3.25,1.85 l -5,0.5 -5.05,0.1 -6.5,0.5 -6.5,0.65 q -12.6,1.15 -26,-0.3 -2.4,-0.3 -3.35,-1.05 -0.95,-0.7 -1.3,-1.9 -0.35,-1.15 -0.15,-2.4 0.25,-1.55 1.35,-3.7 9.05,-17.55 23.75,-31.2 1.75,-1.65 3,-1.75 l 1.8,0.4 1.55,1.05 q 8.4,6.4 14.9,14.85 6.45,8.45 10.4,18.2 M 5.05,-17.05 q -3.05,-2.9 -6.3,-5.15 -0.5,0.75 -2.55,2.55 -5.55,4.85 -10.55,12.5 -3.05,4.7 -7.5,13.4 l -0.55,1 L -6.3,7.9 21.15,5.85 Q 14,-8.5 5.05,-17.05 M -12.5,-1.8 q -0.55,-0.1 -1.05,-0.5 l -0.85,-1.25 q -0.4,-1.3 0.2,-2.9 0.9,-2.5 3.35,-3.8 2.35,-1.3 5,-0.7 1.1,0.25 1.75,0.7 l 0.1,0.1 q 1.2,1 1.55,2.8 0.15,0.9 0.05,3.3 -0.2,1.65 -0.55,2.15 l -1.1,1 -1.8,1.3 3.1,0.1 q 0.95,0.3 1.65,1.1 0.75,0.8 0.8,1.8 0.1,1.05 -0.5,1.9 -0.6,0.9 -1.6,1.1 l -1.9,-0.15 -1.95,-0.4 -2.5,0.55 -2.6,0.1 Q -12.5,6.05 -12.8,5 q -0.4,-1.05 0.3,-2.9 1.5,-4.15 3.8,-6.05 l 0.8,-0.75 q 0.35,-0.65 0.1,-1.1 l -1.3,0.35 -0.1,0.05 -0.85,0.95 -0.05,0.1 -0.25,1.15 q -0.15,0.6 -0.7,1 -0.5,0.4 -1.15,0.4 h -0.3 m 25.7,-5.05 0.6,1.4 0.55,1.5 q 0.45,2.05 -0.4,4 l -1,1.85 -2.3,2.1 Q 9.35,4.8 8.65,5 6.9,5.5 4.95,4.95 3.2,4.35 1.7,3.1 -0.2,1.4 -0.6,-0.6 V -2.85 L -0.45,-5.3 -0.2,-6.8 Q 0,-7.5 1,-8.3 q 2.05,-1.85 3.45,-2.05 l 1.65,-0.1 1.05,-0.2 1.1,-0.05 1.35,0.5 1.8,1.45 1.8,1.9 M 5.1,-5.8 4.5,-5.4 q -0.15,0.25 -0.05,1.25 l 0.1,1.7 q 0.2,1 1.75,2 L 7,-0.2 7.7,-0.6 Q 8.9,-1.5 9,-2.05 L 8.85,-2.85 Q 8.4,-3.9 7.45,-4.6 6.3,-5.15 5.85,-5.6 L 5.45,-5.9 5.1,-5.8"
         fill="#000000"
         fill-rule="evenodd"
         stroke="none"
         id="path1" />
      <path
         d="m -9.1,-5.45 -0.3,0.3 -0.65,0.7 0.85,-0.95 0.1,-0.05"
         fill="#cbabab"
         fill-rule="evenodd"
         stroke="none"
         id="path2" />
      <path
         d="m -21.85,6.25 q 4.45,-8.7 7.5,-13.4 5,-7.65 10.55,-12.5 2.05,-1.8 2.55,-2.55 3.25,2.25 6.3,5.15 l -0.25,0.6 -1.5,1.4 -1.8,0.95 q -2.7,1.35 -5.6,3.85 -0.65,-0.45 -1.75,-0.7 -2.65,-0.6 -5,0.7 -2.45,1.3 -3.35,3.8 -0.6,1.6 -0.2,2.9 l 0.85,1.25 q 0.5,0.4 1.05,0.5 l -5.15,5.55 Q -19.5,5.95 -21,6.2 l -0.85,0.05"
         fill="#e2e2e2"
         fill-rule="evenodd"
         stroke="none"
         id="path3" />
      <path
         d="M -21.85,6.25 -21,6.2 q 1.5,-0.25 3.35,-2.45 l 5.15,-5.55 h 0.3 q 0.65,0 1.15,-0.4 0.55,-0.4 0.7,-1 l 0.25,-1.15 0.05,-0.1 0.65,-0.7 0.3,-0.3 1.3,-0.35 q 0.25,0.45 -0.1,1.1 l -0.8,0.75 q -2.3,1.9 -3.8,6.05 -0.7,1.85 -0.3,2.9 0.3,1.05 1.45,1.5 l 2.6,-0.1 2.5,-0.55 1.95,0.4 1.9,0.15 q 1,-0.2 1.6,-1.1 0.6,-0.85 0.5,-1.9 -0.05,-1 -0.8,-1.8 -0.7,-0.8 -1.65,-1.1 l -3.1,-0.1 1.8,-1.3 1.1,-1 q 0.35,-0.5 0.55,-2.15 0.1,-2.4 -0.05,-3.3 -0.35,-1.8 -1.55,-2.8 l -0.1,-0.1 q 2.9,-2.5 5.6,-3.85 l 1.8,-0.95 1.5,-1.4 0.25,-0.6 Q 14,-8.5 21.15,5.85 L -6.3,7.9 -22.4,7.25 l 0.55,-1 M 5.1,-5.8 l 0.35,-0.1 0.4,0.3 q 0.45,0.45 1.6,1 0.95,0.7 1.4,1.75 L 9,-2.05 Q 8.9,-1.5 7.7,-0.6 L 7,-0.2 6.3,-0.45 q -1.55,-1 -1.75,-2 l -0.1,-1.7 q -0.1,-1 0.05,-1.25 l 0.6,-0.4 m 8.1,-1.05 -1.8,-1.9 -1.8,-1.45 -1.35,-0.5 -1.1,0.05 -1.05,0.2 -1.65,0.1 q -1.4,0.2 -3.45,2.05 -1,0.8 -1.2,1.5 l -0.25,1.5 -0.15,2.45 v 2.25 q 0.4,2 2.3,3.7 1.5,1.25 3.25,1.85 1.95,0.55 3.7,0.05 0.7,-0.2 2,-1 l 2.3,-2.1 1,-1.85 q 0.85,-1.95 0.4,-4 l -0.55,-1.5 -0.6,-1.4"
         fill="#b07777"
         fill-rule="evenodd"
         stroke="none"
         id="path4" />
    </g>
    <g
       id="sprite1"
       transform="translate(17.4,15.85)">
      <use
         ffdec:characterId="31"
         height="57.200001"
         transform="matrix(0.5366,0,0,0.5366,-16.6582,-14.546)"
         width="70.75"
         xlink:href="#sprite2"
         id="use4" />
    </g>
    <g
       id="sprite2"
       transform="translate(-8.65,-10.35)">
      <use
         ffdec:characterId="30"
         height="57.200001"
         transform="translate(8.65,10.35)"
         width="70.75"
         xlink:href="#shape1"
         id="use5" />
    </g>
    <g
       id="shape1"
       transform="translate(-8.65,-10.35)">
      <path
         d="m 14.8,41.7 q 0.65,-1.75 2.65,-2.5 1.8,-0.8 3.7,-0.25 1.15,0.45 2.25,1.2 l 0.9,0.4 q 1.65,0.9 2.85,2.5 L 37.8,30.1 q 2.35,-2.8 3.75,-3.95 1.5,-1.15 4.25,-2.4 18.2,-8.85 27.65,-12.6 2.15,-0.8 3.25,-0.8 h 0.8 l 1.9,2.4 -0.2,0.8 q -0.2,1.1 -1.55,3 -5.85,8.25 -18.85,23.8 -1.85,2.35 -3.35,3.5 -1.4,1.15 -4.75,2.75 l -15.15,7.15 q 1.2,1.6 1.75,3.4 l 0.2,1 0.55,2.5 q 0.1,1.95 -1.1,3.55 -1.2,1.65 -3.05,1.9 l -1.3,0.05 q -1.65,0.2 -3.45,-0.65 -1.85,-0.9 -3,-2.6 L 25,60.95 23.8,62.1 q -2.6,2.85 -4.3,3.95 -2.85,1.8 -5.5,1.45 l -1.65,-0.5 -1.2,-0.7 -0.2,-0.2 q -1,-0.85 -1.6,-1.9 L 9.25,64 9.15,63.8 8.75,62.4 q -0.2,-0.8 -0.05,-1.7 0.25,-2.65 2.7,-5.05 1.5,-1.3 4.9,-3.15 L 17.7,51.55 16.05,50 q -1.35,-1.5 -1.8,-3.6 -0.4,-1.85 0.25,-3.45 l 0.3,-1.25"
         fill="#000000"
         fill-opacity="0.372549"
         fill-rule="evenodd"
         stroke="none"
         id="path5" />
    </g>
  </defs>
</svg>
