<?xml version="1.0" encoding="UTF-8" standalone="no"?>
<svg
   ffdec:objectType="frame"
   height="69.16993"
   width="78.467155"
   version="1.1"
   id="svg4"
   xmlns:xlink="http://www.w3.org/1999/xlink"
   xmlns="http://www.w3.org/2000/svg"
   xmlns:svg="http://www.w3.org/2000/svg"
   xmlns:ffdec="https://www.free-decompiler.com/flash">
  <g
     transform="translate(40.042157,37.304545)"
     id="g1">
    <use
       ffdec:characterId="17"
       height="119.15"
       id="rarity"
       transform="translate(-58.5,-60.65)"
       width="119.15"
       xlink:href="#sprite0" />
    <use
       ffdec:characterId="392"
       height="69.150002"
       transform="translate(-40.05,-37.3)"
       width="78.449997"
       xlink:href="#shape0"
       id="use1" />
  </g>
  <defs
     id="defs4">
    <g
       id="shape0"
       transform="translate(39.75,39.8)">
      <path
         d="m 4.5,-33.35 q 3.35,-1.8 7.15,-2.45 l 5.95,-0.2 1.3,-2.3 0.9,-1.05 q 0.55,-0.5 1.3,-0.45 0.6,0 1.1,0.6 l 0.55,1.15 q 0.15,0.8 -0.4,2.55 l -0.05,0.3 3.65,1.3 0.25,-0.35 0.95,-1.85 0.7,-1.25 q 0.85,-0.95 2,-0.75 l 1,0.55 0.6,0.95 q 0.25,0.8 -0.1,2 l -0.95,2.65 3.35,2.45 q 3.55,3.35 4.6,9.05 0.75,4.3 0,10.25 l -0.95,5.55 q -2.4,9.4 -10.35,16.5 -7,6.25 -17.1,9.6 L 9,21.85 9.45,23.1 q 0.45,1.4 0.1,2.25 -0.2,0.65 -0.85,1.1 -0.6,0.45 -1.3,0.5 -1.6,0 -3.15,-2.3 l -3,2.85 q -1.8,1.75 -3.1,1.85 -0.9,0.1 -2,-0.45 l -1.9,-1.1 q -2.35,-1.45 -7.6,-3.35 l -1.5,-0.5 -0.7,0.9 -0.8,1.1 -0.65,1 q -0.6,0.55 -1.3,0.45 l -1.15,-0.75 q -0.4,-0.65 -0.15,-2.2 l 0.35,-1.8 0.15,-0.25 -4.35,-1.45 -1.35,2.65 -0.5,0.8 q -0.45,0.45 -1.05,0.6 -0.6,0.2 -1.2,0 l -0.9,-0.75 q -0.4,-0.6 -0.4,-1.15 l 0.2,-1.05 0.3,-1 0.2,-0.9 0.35,-0.8 -1.95,-0.85 q -2.1,-0.95 -3.55,-2.05 -4.75,-3.8 -6.05,-12.5 -1,-6.95 0.55,-13.2 1.75,-6.9 6.25,-11.35 2.6,-2.6 6.05,-4.2 3.4,-1.6 7.05,-1.9 l 7.35,0.55 q 3.4,0.9 6.35,2.85 3.65,-6.65 10.25,-10.05 m 21.55,9.2 -0.95,-0.05 q -0.85,-0.2 -1.4,-0.8 -0.65,-0.65 -0.75,-1.45 V -27 q 0,-0.55 0.3,-1.2 l 0.15,-0.4 -2.4,-0.75 -0.2,0.7 -0.75,1.8 q -0.45,0.7 -1.3,0.95 -0.8,0.25 -1.6,0 -0.75,-0.25 -1.35,-0.9 -0.45,-0.7 -0.5,-1.55 l 0.15,-1.5 0.15,-0.45 -2.3,0.15 -1.25,0.2 q -2.55,0.6 -5.95,2.5 -3.7,2.1 -5.05,4.25 l -1,1.8 -1,1.8 q -0.8,1.05 -1.7,1.6 -0.8,0.4 -1.7,0.35 l -1,-0.25 -0.55,-0.05 q -0.9,-0.2 -2.35,-0.95 -3.5,-1.7 -7.1,-2.05 l -0.4,-0.05 q -3.7,-0.25 -6.85,0.95 -3.3,1.25 -5.85,4 l -1.9,2.35 q -1.15,1.7 -1.95,3.8 -1.6,4.15 -1.5,9.25 0.05,2.4 0.5,4.95 0.8,4 2.35,6 l 0.25,0.3 q 1.3,1.5 3.55,2.55 l 1.35,0.55 0.6,-0.55 q 0.75,-0.5 1.75,-0.4 0.85,0.1 1.45,0.5 0.65,0.55 0.9,1.45 l 0.1,0.55 3.7,1.3 0.5,0.25 0.55,-1.4 q 1.05,-1.4 2.6,-1.2 0.7,0.1 1.3,0.6 0.65,0.45 0.8,1.2 0.3,0.95 -0.4,2.55 4.4,1.7 8.75,3.7 l 1,0.4 0.2,-0.2 1.15,-0.95 q 2.1,-1.55 5.1,-3.05 l 6.85,-3.1 Q 19.05,11.5 24,6.45 29.4,1 31.45,-5.35 l 0.4,-1.65 0.4,-1.85 0.4,-2.8 0.1,-1.9 Q 33,-17.2 32.5,-19.75 l -0.35,-1.4 -0.6,-1.6 -0.25,-0.4 q -0.5,-1.05 -1.35,-1.9 l -0.4,-0.35 -1.25,-0.95 -0.4,0.9 -0.3,0.4 -0.9,0.65 -0.65,0.25 m -16.5,7.4 0.1,0.35 -0.1,0.85 -1.15,1.3 -7.8,6.9 -4.45,4.4 -1.7,1.6 q -0.8,0.45 -1.7,0.4 h -0.2 q -0.75,-0.1 -1.4,-0.55 -0.65,-0.55 -0.9,-1.4 -0.25,-0.9 0.1,-1.65 l 1.65,-1.7 0.65,-0.5 11.45,-8.5 0.7,-0.45 2.65,-1.55 1.85,0.1 0.25,0.4 M 0.5,3.9 Q -0.4,4.35 -1.2,4.4 -2.4,4.5 -3.2,3.5 -4,2.55 -3.7,1.4 -3.4,0 -1.05,-1.4 l 1.8,-1 1.95,-0.95 2.5,-1.2 2.85,-1.75 2.9,-1.65 q 1.2,-0.6 2.05,-0.35 0.6,0.25 0.85,0.9 0.3,0.65 0,1.25 L 13,-5.15 9.75,-2.5 5.85,0.05 2.05,2.65 0.55,3.85 0.5,3.9"
         fill="#000000"
         fill-rule="evenodd"
         stroke="none"
         id="path1" />
      <path
         d="m 13.3,-30.15 1.15,2.3 q 0.7,2.15 0.55,3.65 l -0.7,2.3 q -1.3,3.2 -3.6,4.6 -0.5,0.3 -1.15,0.55 l -0.25,-0.4 -1.85,-0.1 -2.65,1.55 -3.5,-0.15 q -2.6,-0.55 -3.95,-2.15 0.9,-0.55 1.7,-1.6 l 1,-1.8 1,-1.8 q 1.35,-2.15 5.05,-4.25 3.4,-1.9 5.95,-2.5 l 1.25,-0.2 M -7.45,-0.95 Q -8,0.55 -9.1,1.75 l -2.1,1.75 -2.05,1.3 q -1.05,0.45 -2.65,0.55 -2.85,0 -4.95,-1.25 -2.45,-1.4 -3.4,-3.75 -0.65,-1.65 -0.55,-3.8 0.05,-2.9 1.4,-4.7 l 1.75,-1.55 q 1.3,-1 2.2,-1.45 l 2.35,-0.6 3.75,-0.25 q 1.7,0.25 3.25,1.45 2,1.6 2.75,3.8 l -0.65,0.5 -1.65,1.7 q -0.35,0.75 -0.1,1.65 0.25,0.85 0.9,1.4 0.65,0.45 1.4,0.55 m -8.3,-20.05 -0.8,1.1 q -1.9,2.3 -4.9,4.05 -0.9,0.6 -1.7,0.9 -1.55,0.75 -3.8,1.25 l -2.75,0.1 -0.65,-0.1 1.9,-2.35 q 2.55,-2.75 5.85,-4 3.15,-1.2 6.85,-0.95 M -33.8,-0.65 q 1.15,0.25 1.55,0.5 0.95,0.45 1.75,1.55 l 1,1.35 0.45,0.9 q 0.3,0.8 0.2,2.2 l -0.1,1.4 -0.6,1.2 -1.15,1.7 -0.25,0.15 q -1.55,-2 -2.35,-6 -0.45,-2.55 -0.5,-4.95 m 16.5,17.2 V 16.5 q 0.05,-1.45 0.75,-2.75 l 1.25,-1.6 1.95,-1.75 Q -11,8.8 -8,8.9 q 3.65,0.05 5.85,2.4 l 1.5,1.85 0.75,1.35 q 0.7,1.5 0.35,3.6 -0.3,1.65 -1.3,3.35 v 0.05 l -1.15,0.95 -0.2,0.2 -1,-0.4 q -4.35,-2 -8.75,-3.7 0.7,-1.6 0.4,-2.55 -0.15,-0.75 -0.8,-1.2 -0.6,-0.5 -1.3,-0.6 -1.55,-0.2 -2.6,1.2 l -0.55,1.4 -0.5,-0.25 M 31.45,-5.35 H 31 q -2.35,0.05 -4.55,-1.2 -2.2,-1.2 -3.55,-3.15 -0.9,-1.1 -1.25,-2.25 -0.4,-1.25 -0.35,-3.3 0,-1.65 0.3,-2.6 0.35,-1.55 1.1,-2.8 0.65,-1.15 1.75,-2.15 l 0.3,-0.3 1.3,-1.05 0.65,-0.25 0.9,-0.65 1.95,-0.35 0.4,0.35 q 0.85,0.85 1.35,1.9 l 0.25,0.4 0.6,1.6 0.35,1.4 q 0.5,2.55 0.25,6.2 l -0.1,1.9 -0.4,2.8 -0.4,1.85 -0.4,1.65 M 0.75,-2.4 q 0.55,-1.75 1.6,-3.35 1.95,-2.85 4.85,-3.9 3.15,-1.15 5.95,0.1 l 0.3,0.05 q 2.55,0.4 4.6,1.75 2.15,1.5 3,3.45 l 0.65,1.05 q 1.6,2.95 0.05,7.05 -1.2,3.15 -3.7,5.15 -1.65,1.4 -3.8,2.1 -2.15,0.75 -4.3,0.5 -2.1,-0.15 -4.15,-1.1 -2,-1 -3.45,-2.6 -1.2,-1.3 -1.6,-2.7 L 0.5,3.9 0.55,3.85 l 1.5,-1.2 3.8,-2.6 3.9,-2.55 3.25,-2.65 0.85,-1 q 0.3,-0.6 0,-1.25 Q 13.6,-8.05 13,-8.3 12.15,-8.55 10.95,-7.95 L 8.05,-6.3 5.2,-4.55 2.7,-3.35 0.75,-2.4"
         fill="#cccca1"
         fill-rule="evenodd"
         stroke="none"
         id="path2" />
      <path
         d="m 13.3,-30.15 2.3,-0.15 -0.15,0.45 -0.15,1.5 q 0.05,0.85 0.5,1.55 0.6,0.65 1.35,0.9 0.8,0.25 1.6,0 0.85,-0.25 1.3,-0.95 l 0.75,-1.8 0.2,-0.7 2.4,0.75 -0.15,0.4 q -0.3,0.65 -0.3,1.2 v 0.55 q 0.1,0.8 0.75,1.45 0.55,0.6 1.4,0.8 l 0.95,0.05 -1.3,1.05 -0.3,0.3 q -1.1,1 -1.75,2.15 -0.75,1.25 -1.1,2.8 -0.3,0.95 -0.3,2.6 -0.05,2.05 0.35,3.3 0.35,1.15 1.25,2.25 1.35,1.95 3.55,3.15 2.2,1.25 4.55,1.2 h 0.45 Q 29.4,1 24,6.45 19.05,11.5 11.1,15.35 l -6.85,3.1 q -3,1.5 -5.1,3.05 v -0.05 q 1,-1.7 1.3,-3.35 Q 0.8,16 0.1,14.5 L -0.65,13.15 -2.15,11.3 Q -4.35,8.95 -8,8.9 q -3,-0.1 -5.35,1.5 l -1.95,1.75 -1.25,1.6 q -0.7,1.3 -0.75,2.75 v 0.05 l -3.7,-1.3 -0.1,-0.55 q -0.25,-0.9 -0.9,-1.45 -0.6,-0.4 -1.45,-0.5 -1,-0.1 -1.75,0.4 l -0.6,0.55 -1.35,-0.55 Q -29.4,12.1 -30.7,10.6 l -0.25,-0.3 0.25,-0.15 1.15,-1.7 0.6,-1.2 0.1,-1.4 q 0.1,-1.4 -0.2,-2.2 l -0.45,-0.9 -1,-1.35 q -0.8,-1.1 -1.75,-1.55 -0.4,-0.25 -1.55,-0.5 -0.1,-5.1 1.5,-9.25 0.8,-2.1 1.95,-3.8 l 0.65,0.1 2.75,-0.1 q 2.25,-0.5 3.8,-1.25 0.8,-0.3 1.7,-0.9 3,-1.75 4.9,-4.05 l 0.8,-1.1 0.4,0.05 q 3.6,0.35 7.1,2.05 1.45,0.75 2.35,0.95 l 0.55,0.05 1,0.25 q 0.9,0.05 1.7,-0.35 1.35,1.6 3.95,2.15 l 3.5,0.15 -0.7,0.45 -11.45,8.5 q -0.75,-2.2 -2.75,-3.8 -1.55,-1.2 -3.25,-1.45 l -3.75,0.25 -2.35,0.6 q -0.9,0.45 -2.2,1.45 l -1.75,1.55 q -1.35,1.8 -1.4,4.7 -0.1,2.15 0.55,3.8 0.95,2.35 3.4,3.75 2.1,1.25 4.95,1.25 1.6,-0.1 2.65,-0.55 l 2.05,-1.3 2.1,-1.75 q 1.1,-1.2 1.65,-2.7 h 0.2 q 0.9,0.05 1.7,-0.4 l 1.7,-1.6 4.45,-4.4 7.8,-6.9 1.15,-1.3 0.1,-0.85 -0.1,-0.35 q 0.65,-0.25 1.15,-0.55 2.3,-1.4 3.6,-4.6 l 0.7,-2.3 q 0.15,-1.5 -0.55,-3.65 l -1.15,-2.3 m 14.3,5.1 0.3,-0.4 0.4,-0.9 1.25,0.95 -1.95,0.35 M 0.5,3.9 0.75,5.15 q 0.4,1.4 1.6,2.7 1.45,1.6 3.45,2.6 2.05,0.95 4.15,1.1 2.15,0.25 4.3,-0.5 2.15,-0.7 3.8,-2.1 2.5,-2 3.7,-5.15 1.55,-4.1 -0.05,-7.05 L 21.05,-4.3 Q 20.2,-6.25 18.05,-7.75 16,-9.1 13.45,-9.5 l -0.3,-0.05 q -2.8,-1.25 -5.95,-0.1 -2.9,1.05 -4.85,3.9 -1.05,1.6 -1.6,3.35 l -1.8,1 Q -3.4,0 -3.7,1.4 -4,2.55 -3.2,3.5 q 0.8,1 2,0.9 0.8,-0.05 1.7,-0.5"
         fill="#a48cab"
         fill-rule="evenodd"
         stroke="none"
         id="path3" />
    </g>
    <g
       id="sprite1"
       transform="translate(17.4,15.85)">
      <use
         ffdec:characterId="31"
         height="57.200001"
         transform="matrix(0.5366,0,0,0.5366,-16.6582,-14.546)"
         width="70.75"
         xlink:href="#sprite2"
         id="use3" />
    </g>
    <g
       id="sprite2"
       transform="translate(-8.65,-10.35)">
      <use
         ffdec:characterId="30"
         height="57.200001"
         transform="translate(8.65,10.35)"
         width="70.75"
         xlink:href="#shape1"
         id="use4" />
    </g>
    <g
       id="shape1"
       transform="translate(-8.65,-10.35)">
      <path
         d="m 14.8,41.7 q 0.65,-1.75 2.65,-2.5 1.8,-0.8 3.7,-0.25 1.15,0.45 2.25,1.2 l 0.9,0.4 q 1.65,0.9 2.85,2.5 L 37.8,30.1 q 2.35,-2.8 3.75,-3.95 1.5,-1.15 4.25,-2.4 18.2,-8.85 27.65,-12.6 2.15,-0.8 3.25,-0.8 h 0.8 l 1.9,2.4 -0.2,0.8 q -0.2,1.1 -1.55,3 -5.85,8.25 -18.85,23.8 -1.85,2.35 -3.35,3.5 -1.4,1.15 -4.75,2.75 l -15.15,7.15 q 1.2,1.6 1.75,3.4 l 0.2,1 0.55,2.5 q 0.1,1.95 -1.1,3.55 -1.2,1.65 -3.05,1.9 l -1.3,0.05 q -1.65,0.2 -3.45,-0.65 -1.85,-0.9 -3,-2.6 L 25,60.95 23.8,62.1 q -2.6,2.85 -4.3,3.95 -2.85,1.8 -5.5,1.45 l -1.65,-0.5 -1.2,-0.7 -0.2,-0.2 q -1,-0.85 -1.6,-1.9 L 9.25,64 9.15,63.8 8.75,62.4 q -0.2,-0.8 -0.05,-1.7 0.25,-2.65 2.7,-5.05 1.5,-1.3 4.9,-3.15 L 17.7,51.55 16.05,50 q -1.35,-1.5 -1.8,-3.6 -0.4,-1.85 0.25,-3.45 l 0.3,-1.25"
         fill="#000000"
         fill-opacity="0.372549"
         fill-rule="evenodd"
         stroke="none"
         id="path4" />
    </g>
  </defs>
</svg>
