<?xml version="1.0" encoding="UTF-8" standalone="no"?>
<svg
   ffdec:objectType="frame"
   height="78.236008"
   width="77.08091"
   version="1.1"
   id="svg7"
   xmlns:xlink="http://www.w3.org/1999/xlink"
   xmlns="http://www.w3.org/2000/svg"
   xmlns:svg="http://www.w3.org/2000/svg"
   xmlns:ffdec="https://www.free-decompiler.com/flash">
  <g
     transform="translate(40.09,43.834615)"
     id="g1">
    <use
       ffdec:characterId="17"
       height="119.15"
       id="rarity"
       transform="translate(-58.5,-60.65)"
       width="119.15"
       xlink:href="#sprite0" />
    <use
       ffdec:characterId="1335"
       height="78.25"
       transform="translate(-40.1,-43.85)"
       width="77.099998"
       xlink:href="#shape0"
       id="use1" />
  </g>
  <defs
     id="defs7">
    <g
       id="shape0"
       transform="translate(38.8,41.95)">
      <path
         d="m -21.25,12.75 -0.15,-0.1 -0.35,0.5 -1.45,1.1 -1.45,1.1 -1.65,2 q -1.2,1.25 -2.35,1 -1,-0.15 -1.7,-1.4 l -1.3,-2.15 q -0.45,-0.7 -1.1,-0.85 -0.65,-0.05 -1.55,0.45 -2.5,1.4 -3.55,0.6 -0.8,-0.55 -0.9,-2.05 -0.2,-2.25 0.6,-6.25 4,-19.6 15.75,-35.65 1.5,-1.95 2.8,-2.7 l 1.65,-1.35 1.45,-0.9 0.95,-0.8 q 2.7,-2.2 5.1,-3.6 5,-2.85 11.25,-3.45 5.75,-0.6 11.95,0.75 3.65,0.8 6.05,2.1 1.95,1.1 4.6,3.5 l 3.65,3.3 3.2,-1.6 3.2,-1.15 q 1.25,-0.2 1.95,0.35 0.65,0.5 0.95,2.05 l 0.3,3.2 0.05,5.25 q -0.1,3.4 -1,6.25 l 1.7,6.4 Q 38.1,-8.4 38.25,-6 38.4,-3.8 38,0.35 37.65,5.1 36.6,7.4 q -1.3,2.9 -5.1,5.9 l -0.1,0.9 -0.05,1.95 q -0.05,1.35 -0.65,3.6 l -0.5,2.05 q -0.95,2.95 -4,7.15 -1.85,2.55 -3.3,3.45 -1.95,1.35 -3.35,0.3 -1,-0.75 -1.05,-2.95 l 0.15,-4.75 0.3,-3.4 -0.2,0.15 q -0.35,0.2 -1.05,0.75 l -1.1,0.55 q -0.85,0.1 -2.05,-0.7 -0.9,-0.65 -1.45,-0.7 -0.6,-0.1 -1.3,0.45 Q 11,22.6 9.8,24 8.6,25.25 7.3,24.9 6.5,24.65 5.45,23.15 4,21.3 2,20.05 L 1.25,19.5 q -3.2,1 -6.25,1 l -1.5,5.75 q -1.35,5.25 -2.75,7.65 -1.35,2.4 -3.05,2.4 -1.3,0.05 -2.75,-1.7 l -1.7,-2.4 -1.45,-2.5 q -0.7,-1.4 -1.4,-4.45 -0.85,-3.55 -0.9,-5.35 -0.15,-2.4 0.55,-5.8 v -0.15 l -1.3,-1.2 m 42.1,-35.2 -0.9,1 -0.55,0.6 -0.75,0.6 -1.6,-0.05 -0.3,-0.15 q -0.6,-0.4 -0.75,-1.1 l -0.05,-0.3 q -0.05,-0.5 0.2,-1.1 l 0.95,-1.55 q 2.05,-2.6 5.35,-4.85 L 21.1,-30.6 q -3,-2.65 -4.8,-3.55 -1.55,-0.75 -5.1,-1.55 -4.95,-1 -8.15,-0.85 -6.4,0.1 -12.5,3.95 3.05,2.2 5.75,5.8 l 2.3,3.45 1.35,2.5 0.4,0.95 0.25,1.6 q -0.15,1 -0.95,1.25 l -0.6,0.1 -0.45,-0.1 -0.15,-0.1 -0.3,-0.25 -1.05,-1.25 -0.3,-0.5 q -1.85,-2.95 -4,-5.4 l -0.75,-0.9 q -1.55,-1.8 -3,-2.9 l -0.5,-0.35 0.15,0.65 0.1,0.35 0.75,2.1 0.95,2.05 0.1,0.2 2.3,3.9 0.55,1 0.1,0.15 1.2,1.4 0.1,0.15 0.25,0.6 q 0,0.25 -0.25,0.35 l -0.45,0.15 -0.1,-0.05 -0.9,-0.65 -1,-0.7 -0.85,-0.85 q -1.75,-1.65 -3.1,-4.1 l -2,-4.05 -0.85,3.7 q -0.65,3.3 -0.4,4.8 l 0.4,2.4 q 0,1.55 -0.9,2.15 -0.7,0.5 -1.6,0.25 l -0.85,-0.4 -0.6,-0.6 q -0.8,-1.1 -0.85,-3.2 l -0.05,-3.3 -1.1,3.75 q -1.15,5 -1.4,13.8 l 0.1,4.1 q 0.25,2.3 1.1,3.9 l 0.9,1.3 2,2.2 q 5.35,4.85 10,5.95 4.2,1.05 8.5,-0.45 4.25,-1.45 7.2,-4.75 L 9,8.6 9.4,6.5 9.65,4.4 V 3.7 L 9.8,2.6 Q 10.05,1.5 10.95,1.4 11.8,1.25 12.3,2.15 l 0.5,1.25 v 0.25 q 0.55,2.7 0.25,4.65 l 1.2,1.35 q 0.85,0.9 2.95,1.6 3.2,1.05 6.3,0.8 2.75,-0.25 4.8,-1.55 L 29,10 h 0.05 L 29.25,9.8 29.8,9.35 Q 31.85,7.5 32.75,4.3 33.5,1.85 33.5,-2.3 33.45,-6.9 32.45,-11.4 H 32.4 q -1.15,1.4 -2.15,1.2 l -0.15,-0.05 q -0.45,-0.15 -0.7,-0.7 -0.25,-0.55 -0.2,-1.1 0.05,-0.6 0.85,-1.95 2.35,-4.15 2.75,-8.95 v -3.75 -0.65 l -1.9,3.45 -1.35,1.75 q -1.65,1.95 -2.9,2.85 -1.15,0.8 -3.3,1.55 L 23,-17.6 h -0.1 l -1.7,0.2 -0.75,-0.45 q -0.15,-0.1 -0.2,-0.3 v -0.1 l -0.05,-0.1 -0.05,-0.25 q 0.1,-0.5 0.75,-0.9 l 0.75,-0.35 0.15,-0.1 q 1.75,-0.8 3.2,-2.05 1.9,-1.6 3.35,-3.8 l 0.75,-1.15 1.1,-1.95 0.35,-0.65 v -0.05 q -1.95,0.9 -3.6,2 l -2.1,1.45 q -2.2,1.65 -4,3.7 M -7.95,-3.8 q 1.05,-0.4 1.65,-0.75 l 1.25,-0.4 1.1,0.25 0.4,0.5 v 0.05 q 0.45,0.9 -0.1,1.7 -0.3,0.55 -1.1,0.95 l -1.3,0.85 -1,0.6 0.25,0.4 1.1,1.35 0.85,1.5 q 0.45,1.25 -0.2,2.3 -0.55,1.15 -1.85,1.15 -1.05,0 -1.75,-0.8 L -9.8,4.3 l -1,-1.55 -0.9,0.7 -1.6,0.35 q -0.75,-0.05 -1.3,-0.65 -0.6,-0.55 -0.65,-1.3 -0.05,-1.1 0.85,-2.05 l 1.4,-1.05 -0.95,-2.05 q -0.45,-1.4 -0.1,-2.6 l 0.8,-1.2 1.45,-0.15 q 0.45,0.2 0.95,1.25 l 1.4,2.5 0.2,0.25 1.3,-0.55 M 22.9,-4.6 21.95,-6.1 q -0.6,-1 -0.65,-1.6 -0.05,-0.8 0.6,-1.35 0.65,-0.5 1.35,-0.25 l 0.85,0.45 0.2,0.15 1.3,1.25 0.1,-0.15 1.25,-1.6 1.05,-0.4 q 1.1,0 1.65,0.7 0.45,0.6 0.3,1.7 l -0.8,1.7 -1,1.5 0.05,0.05 1.8,3.5 q 0.25,0.65 0.1,1.35 l -0.7,1.15 q -0.55,0.5 -1.3,0.55 -0.75,0 -1.3,-0.4 l -0.9,-1.25 -0.7,-1.15 -1.85,1.3 -1,0.15 Q 21.4,1.05 21.2,0.1 21,-0.5 21.45,-1.1 l 0.7,-1.05 1.15,-1.75 -0.4,-0.7 m -49.85,-2.05 q 0.25,-6.25 1.1,-10.15 l -2.55,5.65 q -4.3,10.1 -6,20.95 0.8,-0.6 1.95,-0.5 1.05,0.1 1.95,0.65 1.15,0.8 2.6,3.15 l 2.9,-2.7 0.95,-0.55 -0.9,-1.3 Q -26.4,6.05 -26.85,2.45 -27.1,0.2 -27,-4.1 l 0.05,-2.55 m 12.4,33.15 q 0.95,2.5 2.3,4.05 0.95,-2.25 1.85,-6.05 l 0.4,-1.65 -2.9,0.3 -2.3,-0.2 -0.4,-0.2 1.05,3.75 m -1.75,-7.15 v 0.2 l 0.75,0.35 0.95,0.7 1.55,0.15 0.85,0.15 0.8,0.05 1.25,-0.55 0.75,-0.15 0.1,-0.3 q -3.4,-0.85 -6.9,-3.2 l -0.1,2.6 M 26,16.5 22.9,16.95 v 2.25 l 0.8,0.2 1.6,-0.3 q 1,-0.3 1.75,-0.9 H 27.1 L 27.5,15.9 26,16.5 M 22.45,27 q 2.3,-2.45 3.65,-5.75 -1.75,0.65 -3.3,0.5 L 22.45,27 m -6.2,-11 q -3.85,-0.95 -5.3,-2.5 -2.7,2.65 -5.9,4.35 l 0.25,0.2 2.15,2.25 0.4,0.3 0.2,-0.15 1.7,-1.5 q 1.05,-1 1.9,-1.3 2,-0.75 4.1,0.5 l 0.6,0.35 0.7,-0.3 1.8,-0.95 0.45,-0.15 V 16.65 L 16.25,16"
         fill="#000000"
         fill-rule="evenodd"
         stroke="none"
         id="path1" />
      <path
         d="m -11.3,-28.05 -0.15,-0.65 0.5,0.35 -0.35,0.3"
         fill="#8d8074"
         fill-rule="evenodd"
         stroke="none"
         id="path2" />
      <path
         d="m 22.45,27 0.35,-5.25 q 1.55,0.15 3.3,-0.5 -1.35,3.3 -3.65,5.75 M 26,16.5 l 1.5,-0.6 -0.4,2.3 h -0.05 q -0.75,0.6 -1.75,0.9 l -1.6,0.3 -0.8,-0.2 V 16.95 L 26,16.5 m -42.3,2.85 0.1,-2.6 q 3.5,2.35 6.9,3.2 l -0.1,0.3 -0.75,0.15 -1.25,0.55 -0.8,-0.05 -0.85,-0.15 -1.55,-0.15 -0.95,-0.7 -0.75,-0.35 v -0.2 m 1.75,7.15 -1.05,-3.75 0.4,0.2 2.3,0.2 2.9,-0.3 -0.4,1.65 q -0.9,3.8 -1.85,6.05 -1.35,-1.55 -2.3,-4.05"
         fill="#e3e3e3"
         fill-rule="evenodd"
         stroke="none"
         id="path3" />
      <path
         d="m 20.85,-22.45 q 0.55,0.6 1.4,0.7 1.3,0.15 2.25,-0.75 0.75,-0.6 0.85,-1.6 0.2,-1 -0.3,-1.8 l -0.2,-0.25 2.1,-1.45 0.15,0.15 q 0.45,0.45 1.2,0.55 l 0.8,-0.05 -0.75,1.15 q -1.45,2.2 -3.35,3.8 -1.45,1.25 -3.2,2.05 l -0.15,0.1 -0.75,0.35 q -0.65,0.4 -0.75,0.9 l 0.05,0.25 0.05,0.1 v 0.1 q 0.05,0.2 0.2,0.3 l 0.75,0.45 1.7,-0.2 H 23 l 0.35,-0.15 0.35,1 q 1,3.15 0.8,6.25 l -0.2,1.8 -0.2,-0.15 -0.85,-0.45 q -0.7,-0.25 -1.35,0.25 -0.65,0.55 -0.6,1.35 0.05,0.6 0.65,1.6 l 0.95,1.5 h -0.05 q -1.5,2.6 -4.7,5.2 -2.05,1.55 -3.5,2.15 L 12.8,3.4 12.3,2.15 Q 11.8,1.25 10.95,1.4 10.05,1.5 9.8,2.6 L 9.65,3.7 9.5,3.75 4.15,3.25 -0.05,2.45 Q -2.3,1.85 -3.95,0.9 l -2.1,-1.55 1.3,-0.85 q 0.8,-0.4 1.1,-0.95 0.55,-0.8 0.1,-1.7 V -4.2 l -0.4,-0.5 -1.1,-0.25 -1.25,0.4 q -0.6,0.35 -1.65,0.75 -0.6,-1.95 -0.05,-4.45 0.4,-1.85 1.65,-3.95 0.05,-1.5 0.75,-3.45 l 0.45,-0.15 q 0.25,-0.1 0.25,-0.35 l -0.25,-0.6 -0.1,-0.15 0.15,-0.3 -0.7,-0.5 -0.65,-0.6 -0.1,-0.15 -0.55,-1 -2.3,-3.9 -0.1,-0.2 q 0.8,0.05 1.5,-0.35 l 0.8,-0.65 q 2.15,2.45 4,5.4 l 0.3,0.5 1.05,1.25 0.3,0.25 0.15,0.1 v 0.9 l 0.05,0.05 0.05,-0.2 0.35,-0.65 0.6,-0.1 q 0.8,-0.25 0.95,-1.25 l -0.25,-1.6 -0.4,-0.95 q 1.15,0.15 2,-0.7 0.8,-0.65 1.35,-1.95 l 0.25,-0.9 v -1.2 L 3.2,-26.7 2.6,-27.55 q -1.35,-1.4 -2.65,-1.5 l -1.15,0.1 q -1.7,0.5 -2.45,2 l -0.05,0.15 q -2.7,-3.6 -5.75,-5.8 6.1,-3.85 12.5,-3.95 3.2,-0.15 8.15,0.85 3.55,0.8 5.1,1.55 1.8,0.9 4.8,3.55 l 1.35,1.25 q -3.3,2.25 -5.35,4.85 l -0.95,1.55 v -0.85 l -0.25,-1.45 q -0.6,-1.25 -2.5,-2.2 -2.05,-0.9 -3.4,-0.85 -1.1,0.05 -2.1,0.7 -1.05,0.6 -1.6,1.6 l -0.5,1.15 -0.35,1.15 v 1.55 l 0.1,1 0.4,0.75 0.7,1.1 q 0.9,1.25 2.25,1.6 l 2,0.15 q 1.35,-0.1 2.25,-0.55 l 1.3,-1.05 q 1.1,-1.2 1.5,-2.7 l 0.05,0.3 q 0.15,0.7 0.75,1.1 l 0.3,0.15 1.6,0.05 0.75,-0.6 0.55,-0.6 0.9,-1 m -4.7,-5.05 q 0.6,0.7 1.5,0.7 1.35,0.1 2.05,-1.2 0.6,-1.25 -0.25,-2.35 -0.75,-0.9 -1.85,-0.85 -1.1,0.1 -1.7,1.1 -0.35,0.55 -0.3,1.3 0.05,0.75 0.55,1.3 M 4.2,-30.1 q 0.95,-0.15 1.6,-1.1 0.5,-0.85 0.2,-1.85 -0.2,-0.8 -0.95,-1.3 l -2.55,0.1 q -0.65,0.4 -0.85,1.2 -0.25,0.8 0,1.5 0.3,0.75 1,1.2 0.8,0.4 1.55,0.25 M 5.15,-5.6 3.7,-5.4 3.4,-5.25 q -0.5,0.3 -0.7,0.8 -0.25,0.6 -0.15,1.25 V -3 l 0.05,0.25 h 0.1 v 0.05 q 0.15,0.55 0.65,0.9 0.5,0.35 1.2,0.35 0.75,0 1.25,-0.4 L 5.9,-1.9 6.35,-2.4 q 0.4,-0.45 0.4,-1.05 L 6.65,-4.1 6.6,-4.3 6.2,-5.05 Q 5.75,-5.5 5.15,-5.6 m -1.4,-11.1 q -1,-0.2 -1.95,0.4 -1.05,0.6 -1.35,1.6 -0.5,1.65 0.6,2.9 1.2,1.2 2.75,0.9 1.45,-0.25 2.05,-1.75 Q 6.4,-14 5.65,-15.35 4.9,-16.5 3.75,-16.7 m 13.95,7.85 0.4,-0.95 0.05,-0.8 Q 18.1,-11.45 17.7,-12 l -1.4,-1.1 -3.2,-0.25 q -1.65,0.35 -2.5,1.4 -0.7,0.8 -0.75,1.95 0,1.1 0.6,2 0.6,0.9 1.7,1.35 l 1.8,0.35 0.35,-0.1 1.1,-0.25 q 1.45,-0.6 2.3,-2.2 m 12.55,-1.35 q 1,0.2 2.15,-1.2 h 0.05 q 1,4.5 1.05,9.1 0,4.15 -0.75,6.6 -0.9,3.2 -2.95,5.05 -0.35,-0.95 0,-2.8 1.2,-7.2 0.6,-14.25 l -0.15,-2.5 m -62.7,19.5 q -1.15,-0.1 -1.95,0.5 1.7,-10.85 6,-20.95 l 2.55,-5.65 q -0.85,3.9 -1.1,10.15 L -27,-6.6 q -3,8.2 -5.45,15.9 m 12.8,-2.7 -0.9,-1.3 q -0.85,-1.6 -1.1,-3.9 l -0.1,-4.1 q 0.25,-8.8 1.4,-13.8 l 1.1,-3.75 0.05,3.3 q 0.05,2.1 0.85,3.2 l 0.6,0.6 -0.6,3.95 -0.3,2.4 -0.4,3.9 0.05,4.35 -0.15,3.05 q 0,1.2 -0.35,1.9 l -0.15,0.2"
         fill="#eaeaea"
         fill-rule="evenodd"
         stroke="none"
         id="path4" />
      <path
         d="m 24.85,-26.15 0.2,0.25 q 0.5,0.8 0.3,1.8 -0.1,1 -0.85,1.6 -0.95,0.9 -2.25,0.75 -0.85,-0.1 -1.4,-0.7 1.8,-2.05 4,-3.7 m -8.9,4.3 q -0.4,1.5 -1.5,2.7 l -1.3,1.05 q -0.9,0.45 -2.25,0.55 l -2,-0.15 q -1.35,-0.35 -2.25,-1.6 l -0.7,-1.1 -0.4,-0.75 -0.1,-1 V -23.7 L 5.8,-24.85 6.3,-26 q 0.55,-1 1.6,-1.6 1,-0.65 2.1,-0.7 1.35,-0.05 3.4,0.85 1.9,0.95 2.5,2.2 l 0.25,1.45 v 0.85 q -0.25,0.6 -0.2,1.1 m -19.65,-4.95 0.05,-0.15 q 0.75,-1.5 2.45,-2 l 1.15,-0.1 q 1.3,0.1 2.65,1.5 l 0.6,0.85 0.35,1.1 v 1.2 l -0.25,0.9 q -0.55,1.3 -1.35,1.95 -0.85,0.85 -2,0.7 l -1.35,-2.5 -2.3,-3.45 m -3.5,2.25 -0.8,0.65 q -0.7,0.4 -1.5,0.35 l -0.95,-2.05 -0.75,-2.1 -0.1,-0.35 0.35,-0.3 q 1.45,1.1 3,2.9 l 0.75,0.9 m 36.3,-2.4 -0.8,0.05 q -0.75,-0.1 -1.2,-0.55 l -0.15,-0.15 q 1.65,-1.1 3.6,-2 v 0.05 l -0.35,0.65 -1.1,1.95 M 4.2,-30.1 q -0.75,0.15 -1.55,-0.25 -0.7,-0.45 -1,-1.2 -0.25,-0.7 0,-1.5 0.2,-0.8 0.85,-1.2 l 2.55,-0.1 q 0.75,0.5 0.95,1.3 0.3,1 -0.2,1.85 -0.65,0.95 -1.6,1.1 m 11.95,2.6 q -0.5,-0.55 -0.55,-1.3 -0.05,-0.75 0.3,-1.3 0.6,-1 1.7,-1.1 1.1,-0.05 1.85,0.85 0.85,1.1 0.25,2.35 -0.7,1.3 -2.05,1.2 -0.9,0 -1.5,-0.7 m 1.55,18.65 q -0.85,1.6 -2.3,2.2 l -1.1,0.25 -0.35,0.1 -1.8,-0.35 q -1.1,-0.45 -1.7,-1.35 -0.6,-0.9 -0.6,-2 0.05,-1.15 0.75,-1.95 0.85,-1.05 2.5,-1.4 l 3.2,0.25 1.4,1.1 q 0.4,0.55 0.45,1.4 l -0.05,0.8 -0.4,0.95 M 3.75,-16.7 q 1.15,0.2 1.9,1.35 0.75,1.35 0.2,2.7 -0.6,1.5 -2.05,1.75 -1.55,0.3 -2.75,-0.9 -1.1,-1.25 -0.6,-2.9 0.3,-1 1.35,-1.6 0.95,-0.6 1.95,-0.4 m 1.4,11.1 q 0.6,0.1 1.05,0.55 l 0.4,0.75 0.05,0.2 0.1,0.65 q 0,0.6 -0.4,1.05 L 5.9,-1.9 5.8,-1.85 q -0.5,0.4 -1.25,0.4 -0.7,0 -1.2,-0.35 Q 2.85,-2.15 2.7,-2.7 V -2.75 H 2.6 L 2.55,-3 v -0.2 q -0.1,-0.65 0.15,-1.25 0.2,-0.5 0.7,-0.8 L 3.7,-5.4 5.15,-5.6"
         fill="#7d7d7d"
         fill-rule="evenodd"
         stroke="none"
         id="path5" />
      <path
         d="m -5.6,-15.65 q -0.7,1.95 -0.75,3.45 -1.25,2.1 -1.65,3.95 -0.55,2.5 0.05,4.45 l -1.3,0.55 -0.2,-0.25 -1.4,-2.5 q -0.5,-1.05 -0.95,-1.25 l -1.45,0.15 -0.8,1.2 q -0.35,1.2 0.1,2.6 l 0.95,2.05 -1.4,1.05 q -0.9,0.95 -0.85,2.05 0.05,0.75 0.65,1.3 0.55,0.6 1.3,0.65 l 1.6,-0.35 0.9,-0.7 1,1.55 1.15,1.55 q 0.7,0.8 1.75,0.8 1.3,0 1.85,-1.15 0.65,-1.05 0.2,-2.3 L -5.7,1.7 -6.8,0.35 l -0.25,-0.4 1,-0.6 2.1,1.55 q 1.65,0.95 3.9,1.55 L 4.15,3.25 9.5,3.75 9.65,3.7 V 4.4 L 9.4,6.5 9,8.6 8.05,9.55 q -2.95,3.3 -7.2,4.75 -4.3,1.5 -8.5,0.45 -4.65,-1.1 -10,-5.95 l -2,-2.2 0.15,-0.2 q 0.35,-0.7 0.35,-1.9 l 0.15,-3.05 -0.05,-4.35 0.4,-3.9 0.3,-2.4 0.6,-3.95 0.85,0.4 q 0.9,0.25 1.6,-0.25 0.9,-0.6 0.9,-2.15 l -0.4,-2.4 q -0.25,-1.5 0.4,-4.8 l 0.85,-3.7 2,4.05 q 1.35,2.45 3.1,4.1 l 0.85,0.85 1,0.7 0.9,0.65 0.1,0.05 M 12.8,3.4 14.65,2.75 q 1.45,-0.6 3.5,-2.15 3.2,-2.6 4.7,-5.2 h 0.05 l 0.4,0.7 -1.15,1.75 -0.7,1.05 Q 21,-0.5 21.2,0.1 q 0.2,0.95 1.15,1.15 l 1,-0.15 1.85,-1.3 0.7,1.15 0.9,1.25 q 0.55,0.4 1.3,0.4 0.75,-0.05 1.3,-0.55 L 30.1,0.9 Q 30.25,0.2 30,-0.45 l -1.8,-3.5 -0.05,-0.05 1,-1.5 0.8,-1.7 Q 30.1,-8.3 29.65,-8.9 29.1,-9.6 28,-9.6 l -1.05,0.4 -1.25,1.6 -0.1,0.15 -1.3,-1.25 0.2,-1.8 q 0.2,-3.1 -0.8,-6.25 l -0.35,-1 q 2.15,-0.75 3.3,-1.55 1.25,-0.9 2.9,-2.85 l 1.35,-1.75 1.9,-3.45 v 0.65 3.75 q -0.4,4.8 -2.75,8.95 -0.8,1.35 -0.85,1.95 -0.05,0.55 0.2,1.1 0.25,0.55 0.7,0.7 l 0.15,0.05 0.15,2.5 q 0.6,7.05 -0.6,14.25 -0.35,1.85 0,2.8 L 29.25,9.8 29.05,10 H 29 l -0.7,0.5 q -2.05,1.3 -4.8,1.55 -3.1,0.25 -6.3,-0.8 -2.1,-0.7 -2.95,-1.6 L 13.05,8.3 Q 13.35,6.35 12.8,3.65 V 3.4 M -32.45,9.3 Q -30,1.6 -27,-6.6 l 0.05,-0.05 -0.05,2.55 q -0.1,4.3 0.15,6.55 0.45,3.6 1.9,6.1 l 0.9,1.3 -0.95,0.55 -2.9,2.7 Q -29.35,10.75 -30.5,9.95 -31.4,9.4 -32.45,9.3 m 48.7,6.7 3.05,0.65 v 0.45 l -0.45,0.15 -1.8,0.95 -0.7,0.3 -0.6,-0.35 q -2.1,-1.25 -4.1,-0.5 -0.85,0.3 -1.9,1.3 l -1.7,1.5 -0.2,0.15 -0.4,-0.3 -2.15,-2.25 -0.25,-0.2 q 3.2,-1.7 5.9,-4.35 1.45,1.55 5.3,2.5"
         fill="#cccccc"
         fill-rule="evenodd"
         stroke="none"
         id="path6" />
    </g>
    <g
       id="sprite1"
       transform="translate(17.4,15.85)">
      <use
         ffdec:characterId="31"
         height="57.200001"
         transform="matrix(0.5366,0,0,0.5366,-16.6582,-14.546)"
         width="70.75"
         xlink:href="#sprite2"
         id="use6" />
    </g>
    <g
       id="sprite2"
       transform="translate(-8.65,-10.35)">
      <use
         ffdec:characterId="30"
         height="57.200001"
         transform="translate(8.65,10.35)"
         width="70.75"
         xlink:href="#shape1"
         id="use7" />
    </g>
    <g
       id="shape1"
       transform="translate(-8.65,-10.35)">
      <path
         d="m 14.8,41.7 q 0.65,-1.75 2.65,-2.5 1.8,-0.8 3.7,-0.25 1.15,0.45 2.25,1.2 l 0.9,0.4 q 1.65,0.9 2.85,2.5 L 37.8,30.1 q 2.35,-2.8 3.75,-3.95 1.5,-1.15 4.25,-2.4 18.2,-8.85 27.65,-12.6 2.15,-0.8 3.25,-0.8 h 0.8 l 1.9,2.4 -0.2,0.8 q -0.2,1.1 -1.55,3 -5.85,8.25 -18.85,23.8 -1.85,2.35 -3.35,3.5 -1.4,1.15 -4.75,2.75 l -15.15,7.15 q 1.2,1.6 1.75,3.4 l 0.2,1 0.55,2.5 q 0.1,1.95 -1.1,3.55 -1.2,1.65 -3.05,1.9 l -1.3,0.05 q -1.65,0.2 -3.45,-0.65 -1.85,-0.9 -3,-2.6 L 25,60.95 23.8,62.1 q -2.6,2.85 -4.3,3.95 -2.85,1.8 -5.5,1.45 l -1.65,-0.5 -1.2,-0.7 -0.2,-0.2 q -1,-0.85 -1.6,-1.9 L 9.25,64 9.15,63.8 8.75,62.4 q -0.2,-0.8 -0.05,-1.7 0.25,-2.65 2.7,-5.05 1.5,-1.3 4.9,-3.15 L 17.7,51.55 16.05,50 q -1.35,-1.5 -1.8,-3.6 -0.4,-1.85 0.25,-3.45 l 0.3,-1.25"
         fill="#000000"
         fill-opacity="0.372549"
         fill-rule="evenodd"
         stroke="none"
         id="path7" />
    </g>
  </defs>
</svg>
