<?xml version="1.0" encoding="UTF-8" standalone="no"?>
<svg
   ffdec:objectType="frame"
   height="77.205162"
   width="91.948303"
   version="1.1"
   id="svg4"
   sodipodi:docname="ITEM Cathide Armor.svg"
   xmlns:inkscape="http://www.inkscape.org/namespaces/inkscape"
   xmlns:sodipodi="http://sodipodi.sourceforge.net/DTD/sodipodi-0.dtd"
   xmlns:xlink="http://www.w3.org/1999/xlink"
   xmlns="http://www.w3.org/2000/svg"
   xmlns:svg="http://www.w3.org/2000/svg"
   xmlns:ffdec="https://www.free-decompiler.com/flash">
  <sodipodi:namedview
     id="namedview4"
     pagecolor="#ffffff"
     bordercolor="#000000"
     borderopacity="0.25"
     inkscape:showpageshadow="2"
     inkscape:pageopacity="0.0"
     inkscape:pagecheckerboard="0"
     inkscape:deskcolor="#d1d1d1"
     fit-margin-top="5"
     fit-margin-left="5"
     fit-margin-right="5"
     fit-margin-bottom="5" />
  <g
     transform="translate(45.25,38.33871)"
     id="g1">
    <use
       ffdec:characterId="17"
       height="119.15"
       id="rarity"
       transform="translate(-58.5,-60.65)"
       width="119.15"
       xlink:href="#sprite0" />
    <use
       ffdec:characterId="723"
       height="77.199997"
       transform="translate(-45.25,-38.35)"
       width="91.949997"
       xlink:href="#shape0"
       id="use1" />
  </g>
  <defs
     id="defs4">
    <g
       id="shape0"
       transform="translate(45.8,39.1)">
      <path
         d="m 26.85,16.7 0.35,0.9 q 2.2,-0.9 3.95,-2.5 l 1.95,-2.25 q 1.2,-1.7 2,-3.55 L 35.5,8.65 V 8.45 L 35.6,7.8 Q 35.75,7.35 36.05,6.95 V 6.5 L 36.4,5.25 36.65,4.8 36.9,1.8 q 0.15,-1.2 -0.05,-2.35 l -0.1,-0.65 v -0.45 q -0.95,-3 -2.45,-5.8 -1.05,-1.9 0.05,-3.65 1.6,-2.5 4.65,-1.35 l 2.05,0.1 q -1.4,-3.45 -4.3,-5.8 -4.1,-3.2 -9.5,-2.2 l -0.55,-0.2 -0.35,-0.2 q -1.1,-0.85 -1.35,-2.15 -0.15,-0.9 0.25,-1.75 L 25.4,-25 q -1,-3.35 -3.2,-6.1 -2.95,-3.7 -7.8,-3.15 -2.5,1.15 -4.7,3.1 -0.55,0.5 -1.4,0.35 -1.15,-0.2 -2.05,-0.95 -4.15,-1.25 -7.6,0.8 l -2.35,2.55 q -0.75,0.95 -0.65,2.15 l 0.45,1.5 0.15,1.8 q -0.1,2.8 -2.45,5.15 -2.9,2.9 -4.45,6.7 -1.25,3.15 -1.85,6.55 v 0.85 1.7 0.45 q 1.35,4.15 3.65,7.95 2,3.3 4.4,6.2 l 4.7,5.8 Q 1.95,17.15 3.7,16.9 3.5,15.45 3.65,13.9 3.95,11.1 4.8,8.5 5.35,6.8 7.1,5.95 L 10.55,4.15 10.15,2.45 9.65,1.6 V 1.15 0.5 L 9.35,-0.8 Q 9.25,-1.2 9.3,-1.65 L 9.05,-2.05 8.75,-2.5 q 0.1,-1.2 -0.2,-2.4 l -0.3,-1.25 0.3,-1.7 q 0.1,-0.6 0.6,-0.65 0.75,0.2 0.75,1 l 0.05,0.65 0.5,0.85 0.15,0.65 q 1.05,1.8 1.7,3.8 L 12.6,0 q 4.15,6.85 -3.75,9.65 -0.6,0.2 -0.9,0.75 L 8.15,17.95 8.2,18 q 2.1,2.45 3.6,5.25 4.15,-3.55 5.8,-9 0.45,-1.5 1.7,-2.4 2.95,-2.1 5.25,0.9 1.4,1.8 2.3,3.95 m -10,-28.6 -0.15,-0.9 q -0.1,-1.05 0.55,-1.9 l 0.3,-0.2 0.5,-0.2 0.5,0.15 4.8,8.75 1.25,1.7 0.4,-1.9 q 0.5,-3.25 -0.1,-6.5 -0.4,-2.1 1.2,-2.85 l 0.5,0.15 q 2.35,5.8 1.55,12.25 Q 28,-2.2 27.5,-1.2 L 26.25,0.5 26.05,0.6 25.8,0.7 25.25,0.85 Q 20.9,-1.6 18.8,-6.55 L 18.7,-7.2 q -1.4,-2.2 -1.85,-4.7 m -3.9,-27.15 q 10.05,-0.6 14.55,8.1 1.15,2.35 1.6,4.95 12.5,0.45 16.6,12.1 1.15,3.25 -0.65,6.2 -0.7,1.15 -2.1,1.25 L 40.5,-6.3 q 2.9,7.35 0.5,14.8 -3.8,11.75 -15.6,15.15 -1,0.3 -1.75,-0.45 -0.8,-0.85 -0.7,-1.95 l -0.2,-0.45 -0.1,-0.4 -0.25,-0.65 -0.5,-1.1 -0.15,-0.4 Q 18.2,26.15 10.5,29.6 9.8,29.95 9.25,29.3 7.1,26.5 5.45,23.3 l -0.55,-1 q -2.65,1.9 -5.8,2.5 -0.9,0.15 -1.55,-0.6 l -1.8,-2 q -0.55,1.8 -1.8,3.6 -5.35,7.45 -14.2,8.6 -0.9,0.15 -1.15,-0.7 -0.8,-2.4 -2.2,-4.45 -2.45,2.25 -4.3,5.25 l -1.25,1.85 q -2.8,3.7 -5.55,-0.35 -5.3,-7.7 -7.7,-16.5 l -0.4,-2.45 q -0.4,-5.45 1.1,-10.55 0.6,-3 2.25,-5.5 l -1.85,0.1 q -2.45,0.05 -2.25,-2.3 0.4,-4.85 3.15,-8.8 l -2.05,-1.4 q -1.6,-1 -2.9,-2.3 l -0.35,-0.4 -0.05,-0.2 v -0.4 l -0.05,-0.45 0.05,-0.45 0.05,-0.4 q 2.05,-2.25 4.95,-3.5 l 6.2,-2.6 q 0.15,-4.95 4.5,-7.65 4.8,-2.95 10.25,-3.8 6.25,-0.2 10.6,3.6 1.25,-3.6 5.5,-6.05 5.65,-3.25 12,-0.8 l 1.1,-0.7 q 1.25,-0.95 2.8,-1.35 l 0.75,-0.2 m -29.25,25.85 0.55,-1.2 2.35,-4.15 q 1.75,-2.75 4.05,-5.1 l -0.2,-1 -2.3,-1.75 q -4.9,-3.7 -10.8,-1.9 -4.05,1.2 -6.75,4.4 -0.25,2.3 -0.9,4.4 -0.5,1.65 -2.25,2.15 -3.5,1 -6.55,2.7 2.15,0.8 3.2,2.3 0.9,-0.7 1.9,-1 l 0.4,0.15 0.3,0.2 0.1,0.2 0.15,0.45 0.05,0.2 q -0.8,1.5 -2.05,2.75 -0.15,0.9 -0.95,1.65 -1.8,1.7 -2.65,4.05 l 5.95,-1.75 2.8,-0.85 q 2.55,-0.7 3.05,1.25 l 0.1,0.55 q -3.25,3.4 -8.1,4.65 -1.7,2.85 -2.4,6.15 l -0.9,2.95 0.3,6.85 -0.05,3.85 4.8,8.25 1.6,2.9 q 3.1,-3.65 7.05,-6.7 0.7,-0.6 1.6,-0.15 3.4,1.6 4.75,5.1 1.35,-0.35 2.65,-1.1 5.35,-3.95 8.1,-9.8 l -4.15,-5.65 -2.6,2.5 q -0.7,0.55 -1.55,0.65 h -0.05 l -0.65,-0.15 -0.55,-0.45 -0.4,-0.4 q -0.55,-1.75 -1.45,-3.4 l -0.4,-1.15 -3.5,5.1 -1.15,0.75 -1.05,-0.1 -0.8,-0.65 -0.15,-0.2 -0.05,-0.2 -0.05,-0.2 -0.05,-0.25 q -2.25,-4.15 -1.7,-9 L -27.3,2.45 -27.15,2.2 -27,2 V 1.8 l 0.05,-0.2 V 1.35 l 1.35,-1.2 0.5,-0.2 q 0.55,0.1 0.7,0.55 l 0.1,0.45 -0.25,0.6 -0.15,0.3 V 1.9 L -25,2.2 v 0.1 l 0.3,5.75 0.55,2.35 q 1.85,-2.5 4.85,-3.65 l 0.25,-0.05 0.45,-0.2 0.4,0.2 h 0.1 l 0.3,0.15 q 0.85,1.45 1.55,2.95 l 0.8,1.6 1.85,-1.75 -1.3,-2.1 q -6,-10.1 -1.4,-20.75"
         fill="#000000"
         fill-rule="evenodd"
         stroke="none"
         id="path1" />
      <path
         d="m -3.75,-22.95 -0.15,-1.8 -0.45,-1.5 q -0.1,-1.2 0.65,-2.15 l 2.35,-2.55 q 3.45,-2.05 7.6,-0.8 0.9,0.75 2.05,0.95 0.85,0.15 1.4,-0.35 2.2,-1.95 4.7,-3.1 4.85,-0.55 7.8,3.15 2.2,2.75 3.2,6.1 l -0.15,0.35 q -0.4,0.85 -0.25,1.75 0.25,1.3 1.35,2.15 l 0.35,0.2 0.55,0.2 q 5.4,-1 9.5,2.2 2.9,2.35 4.3,5.8 L 39,-12.45 q -3.05,-1.15 -4.65,1.35 -1.1,1.75 -0.05,3.65 1.5,2.8 2.45,5.8 v 0.45 l 0.1,0.65 q 0.2,1.15 0.05,2.35 l -0.25,3 -0.25,0.45 -0.35,1.25 v 0.45 q -0.3,0.4 -0.45,0.85 l -0.1,0.65 v 0.2 L 35.1,9.3 q -0.8,1.85 -2,3.55 l -1.95,2.25 q -1.75,1.6 -3.95,2.5 l -0.35,-0.9 q 0,-0.7 0.35,-1.65 L 27.7,14 v -1.05 q 0,-0.6 0.3,-1.1 L 27.8,8.45 27.75,6.1 26.75,2.9 26.05,0.95 V 0.6 l 0.2,-0.1 1.25,-1.7 q 0.5,-1 0.65,-2.15 0.8,-6.45 -1.55,-12.25 l -0.5,-0.15 q -1.6,0.75 -1.2,2.85 0.6,3.25 0.1,6.5 l -0.4,1.9 -1.25,-1.7 -4.8,-8.75 -0.5,-0.15 -0.5,0.2 -0.3,0.2 q -0.65,0.85 -0.55,1.9 l 0.15,0.9 -1.6,-1.9 Q 7.35,-11 0.7,-15.45 l -1.3,-1.15 q -2.6,-2.95 -3.15,-6.35 m -23.1,17.9 Q -27.35,-7 -29.9,-6.3 l -2.8,0.85 -5.95,1.75 q 0.85,-2.35 2.65,-4.05 0.8,-0.75 0.95,-1.65 1.25,-1.25 2.05,-2.75 l -0.05,-0.2 -0.15,-0.45 -0.1,-0.2 -0.3,-0.2 -0.4,-0.15 q -1,0.3 -1.9,1 -1.05,-1.5 -3.2,-2.3 3.05,-1.7 6.55,-2.7 1.75,-0.5 2.25,-2.15 0.65,-2.1 0.9,-4.4 2.7,-3.2 6.75,-4.4 5.9,-1.8 10.8,1.9 l 2.3,1.75 0.2,1 q -2.3,2.35 -4.05,5.1 l -2.35,4.15 -0.55,1.2 q -2.35,0.85 -4.8,1.1 -1.2,4.65 -5.5,6.9 l -0.25,0.15 m 8.65,11.75 -0.4,-0.2 -0.45,0.2 -0.25,0.05 q -3,1.15 -4.85,3.65 L -24.7,8.05 -25,2.3 -24.7,1.9 V 1.85 l 1.25,-1.5 0.35,-0.1 0.5,-0.05 V 0.15 q 5.95,1.5 4.4,6.55"
         fill="#7d6b60"
         fill-rule="evenodd"
         stroke="none"
         id="path2" />
      <path
         d="m -3.75,-22.95 q 0.55,3.4 3.15,6.35 l 1.3,1.15 q 6.65,4.45 14.55,1.65 l 1.6,1.9 q 0.45,2.5 1.85,4.7 l 0.1,0.65 q 2.1,4.95 6.45,7.4 L 25.8,0.7 26.05,0.6 v 0.35 l 0.7,1.95 1,3.2 0.05,2.35 0.2,3.4 q -0.3,0.5 -0.3,1.1 V 14 l -0.5,1.05 q -0.35,0.95 -0.35,1.65 -0.9,-2.15 -2.3,-3.95 -2.3,-3 -5.25,-0.9 -1.25,0.9 -1.7,2.4 -1.65,5.45 -5.8,9 Q 10.3,20.45 8.2,18 L 8.15,17.95 7.95,10.4 Q 8.25,9.85 8.85,9.65 16.75,6.85 12.6,0 l -0.3,-1.55 q -0.65,-2 -1.7,-3.8 L 10.45,-6 9.95,-6.85 9.9,-7.5 q 0,-0.8 -0.75,-1 -0.5,0.05 -0.6,0.65 l -0.3,1.7 0.3,1.25 q 0.3,1.2 0.2,2.4 l 0.3,0.45 0.25,0.4 Q 9.25,-1.2 9.35,-0.8 l 0.3,1.3 V 1.15 1.6 l 0.5,0.85 0.4,1.7 -3.45,1.8 Q 5.35,6.8 4.8,8.5 3.95,11.1 3.65,13.9 3.5,15.45 3.7,16.9 1.95,17.15 0.25,18.4 l -4.7,-5.8 q -2.4,-2.9 -4.4,-6.2 -2.3,-3.8 -3.65,-7.95 V -2 -3.7 -4.55 q 0.6,-3.4 1.85,-6.55 1.55,-3.8 4.45,-6.7 2.35,-2.35 2.45,-5.15 m -23.1,17.9 0.25,-0.15 q 4.3,-2.25 5.5,-6.9 2.45,-0.25 4.8,-1.1 -4.6,10.65 1.4,20.75 l 1.3,2.1 -1.85,1.75 -0.8,-1.6 Q -16.95,8.3 -17.8,6.85 L -18.1,6.7 h -0.1 q 1.55,-5.05 -4.4,-6.55 V 0.2 l -0.5,0.05 -0.35,0.1 -1.25,1.5 0.15,-0.3 0.25,-0.6 -0.1,-0.45 q -0.15,-0.45 -0.7,-0.55 l -0.5,0.2 -1.35,1.2 V 1.6 L -27,1.8 V 2 l -0.15,0.2 -0.15,0.25 -0.35,3.2 q -0.55,4.85 1.7,9 l 0.05,0.25 0.05,0.2 0.05,0.2 0.15,0.2 0.8,0.65 1.05,0.1 1.15,-0.75 3.5,-5.1 0.4,1.15 q 0.9,1.65 1.45,3.4 l 0.4,0.4 0.55,0.45 0.65,0.15 h 0.05 q 0.85,-0.1 1.55,-0.65 l 2.6,-2.5 4.15,5.65 q -2.75,5.85 -8.1,9.8 -1.3,0.75 -2.65,1.1 -1.35,-3.5 -4.75,-5.1 -0.9,-0.45 -1.6,0.15 -3.95,3.05 -7.05,6.7 l -1.6,-2.9 -4.8,-8.25 0.05,-3.85 -0.3,-6.85 0.9,-2.95 q 0.7,-3.3 2.4,-6.15 4.85,-1.25 8.1,-4.65 l -0.1,-0.55"
         fill="#6e5f55"
         fill-rule="evenodd"
         stroke="none"
         id="path3" />
    </g>
    <g
       id="sprite1"
       transform="translate(17.4,15.85)">
      <use
         ffdec:characterId="31"
         height="57.200001"
         transform="matrix(0.5366,0,0,0.5366,-16.6582,-14.546)"
         width="70.75"
         xlink:href="#sprite2"
         id="use3" />
    </g>
    <g
       id="sprite2"
       transform="translate(-8.65,-10.35)">
      <use
         ffdec:characterId="30"
         height="57.200001"
         transform="translate(8.65,10.35)"
         width="70.75"
         xlink:href="#shape1"
         id="use4" />
    </g>
    <g
       id="shape1"
       transform="translate(-8.65,-10.35)">
      <path
         d="m 14.8,41.7 q 0.65,-1.75 2.65,-2.5 1.8,-0.8 3.7,-0.25 1.15,0.45 2.25,1.2 l 0.9,0.4 q 1.65,0.9 2.85,2.5 L 37.8,30.1 q 2.35,-2.8 3.75,-3.95 1.5,-1.15 4.25,-2.4 18.2,-8.85 27.65,-12.6 2.15,-0.8 3.25,-0.8 h 0.8 l 1.9,2.4 -0.2,0.8 q -0.2,1.1 -1.55,3 -5.85,8.25 -18.85,23.8 -1.85,2.35 -3.35,3.5 -1.4,1.15 -4.75,2.75 l -15.15,7.15 q 1.2,1.6 1.75,3.4 l 0.2,1 0.55,2.5 q 0.1,1.95 -1.1,3.55 -1.2,1.65 -3.05,1.9 l -1.3,0.05 q -1.65,0.2 -3.45,-0.65 -1.85,-0.9 -3,-2.6 L 25,60.95 23.8,62.1 q -2.6,2.85 -4.3,3.95 -2.85,1.8 -5.5,1.45 l -1.65,-0.5 -1.2,-0.7 -0.2,-0.2 q -1,-0.85 -1.6,-1.9 L 9.25,64 9.15,63.8 8.75,62.4 q -0.2,-0.8 -0.05,-1.7 0.25,-2.65 2.7,-5.05 1.5,-1.3 4.9,-3.15 L 17.7,51.55 16.05,50 q -1.35,-1.5 -1.8,-3.6 -0.4,-1.85 0.25,-3.45 l 0.3,-1.25"
         fill="#000000"
         fill-opacity="0.372549"
         fill-rule="evenodd"
         stroke="none"
         id="path4" />
    </g>
  </defs>
</svg>
