<?xml version="1.0" encoding="UTF-8" standalone="no"?>
<svg
   ffdec:objectType="frame"
   height="87.75"
   width="65.369614"
   version="1.1"
   id="svg4"
   sodipodi:docname="ITEM Frozen Necklace.svg"
   xmlns:inkscape="http://www.inkscape.org/namespaces/inkscape"
   xmlns:sodipodi="http://sodipodi.sourceforge.net/DTD/sodipodi-0.dtd"
   xmlns:xlink="http://www.w3.org/1999/xlink"
   xmlns="http://www.w3.org/2000/svg"
   xmlns:svg="http://www.w3.org/2000/svg"
   xmlns:ffdec="https://www.free-decompiler.com/flash">
  <sodipodi:namedview
     id="namedview4"
     pagecolor="#ffffff"
     bordercolor="#000000"
     borderopacity="0.25"
     inkscape:showpageshadow="2"
     inkscape:pageopacity="0.0"
     inkscape:pagecheckerboard="0"
     inkscape:deskcolor="#d1d1d1"
     fit-margin-top="5"
     fit-margin-left="5"
     fit-margin-right="5"
     fit-margin-bottom="5" />
  <g
     transform="translate(32.638095,43.45)"
     id="g1">
    <use
       ffdec:characterId="17"
       height="119.15"
       id="rarity"
       transform="translate(-58.5,-60.65)"
       width="119.15"
       xlink:href="#sprite0" />
    <use
       ffdec:characterId="832"
       height="87.800003"
       transform="translate(-32.65,-43.45)"
       width="65.400002"
       xlink:href="#shape0"
       id="use1" />
  </g>
  <defs
     id="defs4">
    <g
       id="shape0"
       transform="translate(33.2,44.2)">
      <path
         d="m -17.75,-6.8 q -0.4,-1.35 -0.45,-4.25 -0.05,-2.9 -0.45,-4.3 l -1.05,-2.55 -0.95,-2.6 q -0.4,-1.6 -0.1,-4.4 0.6,-7.95 1.7,-13.8 0.7,-3.9 2.6,-5.05 l 1.5,-0.45 q 0.8,0 1.4,0.45 0.65,0.5 1.05,1.9 l 1.9,5.85 q 1,3.2 1.15,4.45 l 0.4,2.4 q 0.35,1.1 1.85,2.9 l 10.6,12.75 2.35,2.6 q 1.4,1.3 2.8,1.95 l 1.5,0.55 1.35,0.8 q 1,0.75 1.75,2.65 Q 14.9,-0.2 16,2.1 l 1.3,2.45 1.2,2.5 q 1.2,3.05 0.55,5.45 l -0.7,1.7 -0.7,1.65 q -0.6,1.85 -0.25,4.3 l 0.45,2.7 q 0.25,1.55 0.1,2.65 -0.15,1.4 -1.05,2.45 -1,1.15 -2.25,1.2 -0.7,1.05 -1.95,1.6 L 10.15,31.1 Q 8.7,30.9 7.15,29.65 L 4.6,27.3 1.9,25.15 0.85,29.45 q -0.5,2.05 -1.15,2.8 -0.75,0.85 -2.65,1.55 L -5.8,34.15 Q -7,33.85 -8.05,32.2 l -0.6,-1.05 -0.6,2.5 Q -9.6,34.8 -10,35.1 l -2.7,0.1 q -1.95,-0.8 -4.1,-2.7 l -3.7,-3.35 -2.45,-2.55 q -0.5,-0.75 -1.05,-2.7 -1.1,-3.8 -2.9,-8.55 L -30.3,6.95 -31.75,3.8 Q -32.5,2.05 -32,1.3 q 0.5,-0.65 1.45,-0.55 0.6,0.1 1.45,0.6 1.65,0.9 4.4,3.25 -1.6,-3.9 -2.45,-5.45 l -1.5,-2.8 -1.4,-2.85 -1.15,-3.35 -1.3,-3.3 q -0.85,-1.45 -0.65,-2.2 0.35,-1.55 3.3,-1.65 2.75,0 3.95,0.55 1.25,0.55 2.7,2.3 3.8,4.7 5.5,10.3 l 1.7,0.3 -0.6,-0.9 -1.15,-2.35 M -3.95,-11 H -3 l 2,0.75 2,0.9 0.9,0.35 -0.3,-0.3 -5.9,-7.05 -3.9,-4.8 -2.05,-2.25 -1.5,-1.65 -1.15,-1.9 -0.3,-2.2 -0.15,-1.25 -0.45,-2.5 -1.65,-5.05 -1.35,12.95 v 0.05 l -0.05,2.75 0.2,0.75 0.45,1.1 0.8,1.8 q 1.3,2.95 1.4,6.3 l 0.15,3.3 0.35,1 0.9,1.85 2.9,5.3 2,-0.15 3.15,0.25 -0.3,-1.15 -0.45,-2 q -0.45,-2.65 0.2,-5.4 l 0.15,-0.55 0.7,-1.05 0.3,-0.15 m 3.55,12.85 1.15,2.2 1.6,2.35 1,1.15 L 3.4,7.6 4.15,9.45 4.3,10.1 q 0.45,2.6 0.4,5.9 l -0.4,5.6 5.9,5 q 0.7,0.7 1.25,0.5 l 0.8,-0.65 1.15,-0.7 q 0.8,-0.4 1,-0.85 0.3,-0.55 0.1,-1.6 -0.45,-2.9 -0.6,-5.95 -0.1,-2.45 0.45,-3.75 l 0.4,-0.75 0.55,-1.5 Q 15.55,10.15 14.55,7.9 L 9.85,-2.6 8.8,-4.3 7.75,-5 6.8,-5.35 6.5,-5.5 H 6.45 L 6.35,-5.35 5,-5.4 Q 1.25,-6.8 -2.3,-8.6 l -0.55,-0.1 -0.25,0.5 -0.2,2.15 Q -3.35,-4 -2.35,-0.3 l 0.6,0.3 q 0.6,0.45 1.15,1.5 l 0.2,0.35 m 31.45,9.3 q -0.15,1.4 0.3,5.15 0.35,3.2 -0.2,5 -0.45,1.45 -1.65,3.25 L 27.9,26.3 Q 27.05,26.85 26.05,26.7 25,26.6 24.35,25.85 23.8,25.2 23.5,23.6 L 21.6,14.05 21.2,10.8 q 0.05,-1.05 0.5,-2.4 l 0.75,-2.35 q 1.7,-5.5 0.7,-11.1 -0.45,-2.3 0.25,-3.15 0.4,-0.45 1,-0.6 l 1.1,0.1 1.3,1.2 q 2.9,3.95 4.05,6.55 1.75,3.85 1.2,7.45 l -0.5,2.35 -0.5,2.3 m -59.2,-22.4 2,4.6 3.15,6.25 2.25,5.2 1.55,3.7 1.05,-0.25 0.25,-0.05 4.05,-0.1 0.35,0.05 q 0.85,0.1 1.2,0.4 l 0.7,0.8 q 0.5,0.85 1.35,3 0.6,1.7 0.65,2.6 l 0.05,1.8 0.4,1.95 q 0.3,1.15 0.1,1.9 l -0.05,0.25 0.2,0.4 4.05,9.2 q 1.25,0.3 2.4,-0.95 0.7,-0.8 1.25,-2.4 L 0.05,23.85 0,23.8 Q -2.85,21.7 -4.2,19.95 -5.35,18.4 -6.85,14.9 l -3.75,-8.7 -0.05,-0.1 -0.7,-1.5 -0.25,-0.5 -1,-2.05 -0.1,-0.15 -0.05,0.05 H -13 L -14.9,1.5 Q -16.45,0.65 -16.75,0.55 L -18.1,0.3 -19.4,-0.05 q -1.2,-0.6 -2.1,-3 -2,-5.45 -4.15,-8.15 -1.6,-1.95 -3.1,-1.85 l 0.6,1.8 M -4,1.65 -8.65,1.1 h -0.1 Q -6.25,6 -4.1,11 L -3.75,5.05 -3.7,3.2 -4,1.65 m 4.2,5.4 -1.1,-1.65 -0.6,-1 v 1 q 0,4.25 0.4,7.65 0.2,2.25 -0.2,3.3 l -0.1,0.25 1,1.4 0.15,0.15 2.65,2.05 q 0.05,-2.4 0.25,-3.7 l 0.1,-1.45 -0.2,-1.7 -0.25,-2.3 V 10.9 L 1.65,8.95 1.6,8.85 0.35,7.25 0.2,7.05 m -18.15,4.5 2.75,6.85 1.85,-0.15 1.75,-0.05 h 0.05 l 0.35,0.15 -0.15,-1.7 -0.05,-1.4 -0.3,-1.05 -0.35,-0.8 q -0.55,-1.5 -1.05,-2.25 -0.15,-0.35 -0.4,-0.45 l -0.5,-0.15 -3.85,-0.1 -0.55,0.05 0.45,1.05 m -3.4,10.6 1,2.55 1.35,1.4 7.35,6.45 1.1,-3.9 0.45,-0.75 -0.35,-0.85 q -1.4,-3.6 -2.4,-5.15 l -2.2,0.15 -2.05,-0.2 Q -18,21.4 -18.75,19.5 l -3.6,-9.1 q -0.7,-0.05 -1.55,-0.8 l -1.9,-1.75 -1.45,-1.3 2.95,7.6 q 2.1,4.9 2.85,7.6 l 0.1,0.4 m -6.3,18.55 -1,-1.65 -1.45,-1.75 q -0.9,-1.2 -1.45,-3.5 -1.1,-4.5 -0.5,-7.4 l 0.5,-1.2 q 0.45,-0.65 1.05,-0.65 0.55,0 1.1,0.55 l 0.8,1 1.9,1.8 q 1.2,1.1 2.75,3.2 l 2.6,3.35 0.8,0.75 1.7,0.65 q 0.95,0.35 2.95,2.15 l 0.6,0.8 q 0.15,0.4 0.05,1 l -0.3,1.05 -0.25,1.25 q -0.45,1.2 -1.9,1.45 l -2.4,-0.2 -2.4,-0.65 -1.1,-0.1 -1.1,-0.2 -1.45,-0.65 -1.5,-1.05 m -1.7,-10.75 0.2,1.1 0.35,1.7 0.4,1.6 0.85,1.6 1.45,1.8 0.35,0.6 1.2,0.8 0.25,-0.2 0.65,-0.45 0.25,-1.2 0.05,-0.2 0.2,-0.9 -2,-2.4 -0.45,-0.65 -0.45,-0.55 -0.6,-0.8 -1.25,-1.6 -1.5,-1.5 0.05,1.15 v 0.1 m 11.65,9.45 0.05,-0.2 q -1.15,-0.9 -2.6,-1.3 l -1.5,-0.4 -0.1,1.45 -0.05,0.25 -0.15,0.55 2.1,0.45 1.9,0.45 0.35,-1.25 m 43.9,-29.6 1.3,2.15 0.05,-0.65 q 0.1,-0.75 0.9,-3.4 0.6,-2.1 0.45,-3.4 L 28.45,2.65 V 2.55 Q 27.4,-1 26.1,-2.55 26.4,-0.6 26.2,1.8 l -0.25,1.9 -1.3,4.95 0.75,0.2 0.7,0.75 0.1,0.2 m -0.45,2.05 -1.05,-1.35 -0.6,0.05 -0.2,0.9 q -0.2,1.35 0.1,3.4 l 0.3,1.65 0.25,1.75 0.2,1.1 0.55,0.9 0.5,1 0.4,1.1 0.25,0.25 0.3,-0.15 q 1.5,-1.9 1.15,-5.45 l -0.25,-2.45 -0.2,-0.2 -1.3,-1.9 -0.4,-0.6"
         fill="#000000"
         fill-rule="evenodd"
         stroke="none"
         id="path1" />
      <path
         d="m -8.2,-21.15 1.95,4.55 2.3,5.6 -0.3,0.15 -0.7,1.05 -0.15,0.55 -3.15,-6.95 -4.8,-10.05 q -0.75,-1.8 -0.35,-2.6 l 0.2,-0.3 0.3,2.2 1.15,1.9 1.5,1.65 2.05,2.25 m -5.3,13.2 -0.35,-1 -0.15,-3.3 q -0.1,-3.35 -1.4,-6.3 l -0.8,-1.8 -0.45,-1.1 -0.1,-2.2 -0.05,-1.3 V -25 l 1.35,-12.95 1.65,5.05 -0.2,1.8 q -0.4,5.6 0.6,16.9 0.25,2.75 0.15,4.3 -0.05,1.05 -0.25,1.95 M 3.35,7.55 4.7,6.4 5,5.55 Q 5.45,3.75 6.2,2.6 7,1.4 9.45,-0.2 L 9.8,-0.35 9.25,-1.6 8.8,-2.2 7.65,-2.25 Q 4.85,-1.75 2.6,-2.9 L 0.8,-4.1 q -1.1,-0.7 -2,-0.85 L -0.4,1.85 -0.6,1.5 Q -1.15,0.45 -1.75,0 l -0.6,-0.3 q -1,-3.7 -0.95,-5.75 l 0.2,-2.15 0.25,-0.5 0.55,0.1 q 3.55,1.8 7.3,3.2 l 1.35,0.05 h 0.1 0.35 l 0.95,0.35 1.05,0.7 1.05,1.7 4.7,10.5 q 1,2.25 0.75,3.45 l -0.55,1.5 -0.6,-1 Q 12.15,7.35 11.4,5 L 10.6,2.25 10.1,2.5 9.25,2.8 8.55,3.3 Q 7.9,3.85 7.6,4.35 7.25,4.85 6.95,6.05 l -0.2,0.8 -0.4,1 L 5.5,8.65 4.15,9.45 3.4,7.6 3.35,7.55 M -17.9,8.2 -17.85,8.15 -17,7.6 l 0.95,-0.45 1.2,-0.8 2.45,-1.7 -0.15,-0.05 q -0.9,-0.2 -2.7,-1.35 -1.65,-1.05 -2.7,-1.15 l -1.7,-0.2 Q -21.05,1.5 -22.1,-1 l -1.75,-4.25 -1.4,-3 q -0.95,-1.55 -2.15,-2.4 l -0.75,-0.6 -0.6,-1.8 q 1.5,-0.1 3.1,1.85 2.15,2.7 4.15,8.15 0.9,2.4 2.1,3 l 1.3,0.35 1.35,0.25 q 0.3,0.1 1.85,0.95 l 1.9,0.45 h 0.25 l 0.15,0.1 1,2.05 0.25,0.5 0.7,1.5 0.05,0.1 -1.05,0.55 -0.55,0.45 -0.6,0.35 -0.65,0.55 -0.05,0.05 -0.35,-0.05 -4.05,0.1 m 17.5,9.8 -1,-1.4 0.1,-0.25 q 0.4,-1.05 0.2,-3.3 -0.4,-3.4 -0.4,-7.65 v -1 l 0.6,1 1.1,1.65 0.1,1.05 0.25,2.75 0.65,-1.2 0.45,-0.7 0.65,1.95 -0.8,0.55 -0.85,0.8 0.15,3.5 -0.2,1.45 Q 0.25,18 -0.4,18 m -11.2,0.2 -0.65,-1.75 -0.5,-2.05 -0.25,-0.8 -1.15,-1 -1.95,-0.65 -1.85,-0.4 -0.45,-1.05 0.55,-0.05 3.85,0.1 0.5,0.15 q 0.25,0.1 0.4,0.45 0.5,0.75 1.05,2.25 l 0.35,0.8 0.3,1.05 0.05,1.4 0.15,1.7 -0.35,-0.15 h -0.05 m -14.2,-10.35 1.45,2.25 0.95,1.35 0.7,2.15 1.6,4.35 1.1,2.2 q 0.45,1.1 0.6,2.45 0.25,1.5 0,2.95 l -1.15,-1.7 -0.8,-1.7 -0.1,-0.4 q -0.75,-2.7 -2.85,-7.6 l -2.95,-7.6 1.45,1.3 m 2.45,29.25 -0.45,-0.45 -1.1,-0.9 -0.4,-0.65 q -0.2,-0.5 -0.35,-0.65 l -0.85,-0.8 -1,-1.5 -1.55,-1.8 -0.3,-0.4 v -0.1 l -0.05,-1.15 1.5,1.5 1.25,1.6 0.6,0.8 0.45,0.55 0.45,0.65 2,2.4 -0.2,0.9 m 1.5,1.85 0.1,-1.45 1.5,0.4 q 1.45,0.4 2.6,1.3 l -0.05,0.2 -0.95,0.1 -2.1,-0.15 -1.1,-0.4 m 50.3,-36.4 -0.9,3 L 26.6,7.95 26.2,9.8 26.1,9.6 25.4,8.85 24.65,8.65 25.95,3.7 26.1,3.1 26.25,2 26.2,1.8 q 0.2,-2.4 -0.1,-4.35 1.3,1.55 2.35,5.1 M 24.3,16.5 24,14.85 q -0.3,-2.05 -0.1,-3.4 l 0.2,-0.9 0.6,-0.05 1.05,1.35 -0.5,1.6 -0.95,3.05"
         fill="#ffffff"
         fill-rule="evenodd"
         stroke="none"
         id="path2" />
      <path
         d="m -8.2,-21.15 3.9,4.8 L 1.6,-9.3 1.9,-9 1,-9.35 -1,-10.25 -3,-11 h -0.95 l -2.3,-5.6 -1.95,-4.55 m 3.1,11.9 q -0.65,2.75 -0.2,5.4 l 0.45,2 0.3,1.15 -3.15,-0.25 -2,0.15 -2.9,-5.3 -0.9,-1.85 q 0.2,-0.9 0.25,-1.95 0.1,-1.55 -0.15,-4.3 -1,-11.3 -0.6,-16.9 l 0.2,-1.8 0.45,2.5 0.15,1.25 -0.2,0.3 q -0.4,0.8 0.35,2.6 l 4.8,10.05 3.15,6.95 m 4.7,11.1 -0.8,-6.8 q 0.9,0.15 2,0.85 l 1.8,1.2 q 2.25,1.15 5.05,0.65 L 8.8,-2.2 9.25,-1.6 9.8,-0.35 9.45,-0.2 Q 7,1.4 6.2,2.6 5.45,3.75 5,5.55 L 4.7,6.4 3.35,7.55 2.35,6.4 0.75,4.05 -0.4,1.85 m 4.55,7.6 1.35,-0.8 0.85,-0.8 0.4,-1 0.2,-0.8 Q 7.25,4.85 7.6,4.35 7.9,3.85 8.55,3.3 L 9.25,2.8 10.1,2.5 10.6,2.25 11.4,5 q 0.75,2.35 2.75,6.85 l 0.6,1 -0.4,0.75 q -0.55,1.3 -0.45,3.75 0.15,3.05 0.6,5.95 0.2,1.05 -0.1,1.6 -0.2,0.45 -1,0.85 l -1.15,0.7 -0.8,0.65 Q 10.9,27.3 10.2,26.6 L 4.3,21.6 4.7,16 Q 4.75,12.7 4.3,10.1 L 4.15,9.45 M -17.9,8.2 -18.15,8.25 -19.2,8.5 -20.75,4.8 -23,-0.4 l -3.15,-6.25 -2,-4.6 0.75,0.6 q 1.2,0.85 2.15,2.4 l 1.4,3 1.75,4.25 q 1.05,2.5 2.45,2.9 l 1.7,0.2 q 1.05,0.1 2.7,1.15 1.8,1.15 2.7,1.35 l 0.15,0.05 -2.45,1.7 -1.2,0.8 L -17,7.6 -17.85,8.15 -17.9,8.2 m 7.3,-2 3.75,8.7 q 1.5,3.5 2.65,5.05 1.35,1.75 4.2,3.85 l 0.05,0.05 -1.25,3.25 q -0.55,1.6 -1.25,2.4 -1.15,1.25 -2.4,0.95 l -4.05,-9.2 -0.2,-0.4 0.05,-0.25 q 0.2,-0.75 -0.1,-1.9 l -0.4,-1.95 -0.05,-1.8 q -0.05,-0.9 -0.65,-2.6 -0.85,-2.15 -1.35,-3 l -0.7,-0.8 q -0.35,-0.3 -1.2,-0.4 L -13.45,8.1 -12.8,7.55 -12.2,7.2 -11.65,6.75 -10.6,6.2 M -4,1.65 -3.7,3.2 -3.75,5.05 -4.1,11 Q -6.25,6 -8.75,1.1 h 0.1 L -4,1.65 M -0.4,18 q 0.65,0 1,-0.8 L 0.8,15.75 0.65,12.25 1.5,11.45 2.3,10.9 v 0.15 l 0.25,2.3 0.2,1.7 -0.1,1.45 Q 2.45,17.8 2.4,20.2 L -0.25,18.15 -0.4,18 m -17.55,-6.45 1.85,0.4 1.95,0.65 1.15,1 0.25,0.8 0.5,2.05 0.65,1.75 -1.75,0.05 -1.85,0.15 -2.75,-6.85 m -3.4,10.6 0.8,1.7 1.15,1.7 q 0.25,-1.45 0,-2.95 -0.15,-1.35 -0.6,-2.45 l -1.1,-2.2 -1.6,-4.35 -0.7,-2.15 -0.95,-1.35 -1.45,-2.25 1.9,1.75 q 0.85,0.75 1.55,0.8 l 3.6,9.1 q 0.75,1.9 1.65,2.35 l 2.05,0.2 2.2,-0.15 q 1,1.55 2.4,5.15 l 0.35,0.85 -0.45,0.75 -1.1,3.9 -7.35,-6.45 -1.35,-1.4 -1,-2.55 m -8,7.8 0.3,0.4 1.55,1.8 1,1.5 0.85,0.8 q 0.15,0.15 0.35,0.65 l 0.4,0.65 1.1,0.9 0.45,0.45 -0.05,0.2 -0.25,1.2 -0.65,0.45 -0.25,0.2 -1.2,-0.8 -0.35,-0.6 -1.45,-1.8 -0.85,-1.6 -0.4,-1.6 -0.35,-1.7 -0.2,-1.1 m 7.5,9 1.1,0.4 2.1,0.15 0.95,-0.1 -0.35,1.25 -1.9,-0.45 -2.1,-0.45 0.15,-0.55 0.05,-0.25 M 26.2,9.8 l 0.4,-1.85 0.95,-2.4 0.9,-3 v 0.1 L 28.9,4.5 q 0.15,1.3 -0.45,3.4 -0.8,2.65 -0.9,3.4 L 27.5,11.95 26.2,9.8 m -1.9,6.7 0.95,-3.05 0.5,-1.6 0.4,0.6 1.3,1.9 0.2,0.2 0.25,2.45 q 0.35,3.55 -1.15,5.45 l -0.3,0.15 -0.25,-0.25 -0.4,-1.1 -0.5,-1 -0.55,-0.9 -0.2,-1.1 -0.25,-1.75"
         fill="#b0c6c7"
         fill-opacity="0.498039"
         fill-rule="evenodd"
         stroke="none"
         id="path3" />
    </g>
    <g
       id="sprite1"
       transform="translate(17.4,15.85)">
      <use
         ffdec:characterId="31"
         height="57.200001"
         transform="matrix(0.5366,0,0,0.5366,-16.6582,-14.546)"
         width="70.75"
         xlink:href="#sprite2"
         id="use3" />
    </g>
    <g
       id="sprite2"
       transform="translate(-8.65,-10.35)">
      <use
         ffdec:characterId="30"
         height="57.200001"
         transform="translate(8.65,10.35)"
         width="70.75"
         xlink:href="#shape1"
         id="use4" />
    </g>
    <g
       id="shape1"
       transform="translate(-8.65,-10.35)">
      <path
         d="m 14.8,41.7 q 0.65,-1.75 2.65,-2.5 1.8,-0.8 3.7,-0.25 1.15,0.45 2.25,1.2 l 0.9,0.4 q 1.65,0.9 2.85,2.5 L 37.8,30.1 q 2.35,-2.8 3.75,-3.95 1.5,-1.15 4.25,-2.4 18.2,-8.85 27.65,-12.6 2.15,-0.8 3.25,-0.8 h 0.8 l 1.9,2.4 -0.2,0.8 q -0.2,1.1 -1.55,3 -5.85,8.25 -18.85,23.8 -1.85,2.35 -3.35,3.5 -1.4,1.15 -4.75,2.75 l -15.15,7.15 q 1.2,1.6 1.75,3.4 l 0.2,1 0.55,2.5 q 0.1,1.95 -1.1,3.55 -1.2,1.65 -3.05,1.9 l -1.3,0.05 q -1.65,0.2 -3.45,-0.65 -1.85,-0.9 -3,-2.6 L 25,60.95 23.8,62.1 q -2.6,2.85 -4.3,3.95 -2.85,1.8 -5.5,1.45 l -1.65,-0.5 -1.2,-0.7 -0.2,-0.2 q -1,-0.85 -1.6,-1.9 L 9.25,64 9.15,63.8 8.75,62.4 q -0.2,-0.8 -0.05,-1.7 0.25,-2.65 2.7,-5.05 1.5,-1.3 4.9,-3.15 L 17.7,51.55 16.05,50 q -1.35,-1.5 -1.8,-3.6 -0.4,-1.85 0.25,-3.45 l 0.3,-1.25"
         fill="#000000"
         fill-opacity="0.372549"
         fill-rule="evenodd"
         stroke="none"
         id="path4" />
    </g>
  </defs>
</svg>
