<?xml version="1.0" encoding="UTF-8" standalone="no"?>
<svg
   ffdec:objectType="frame"
   height="74.458061"
   width="54.446156"
   version="1.1"
   id="svg6"
   xmlns:xlink="http://www.w3.org/1999/xlink"
   xmlns="http://www.w3.org/2000/svg"
   xmlns:svg="http://www.w3.org/2000/svg"
   xmlns:ffdec="https://www.free-decompiler.com/flash">
  <g
     transform="translate(29.096154,38.876064)"
     id="g1">
    <use
       ffdec:characterId="17"
       height="119.15"
       id="rarity"
       transform="translate(-58.5,-60.65)"
       width="119.15"
       xlink:href="#sprite0" />
    <use
       ffdec:characterId="878"
       height="74.5"
       transform="translate(-29.1,-38.9)"
       width="54.450001"
       xlink:href="#shape0"
       id="use1" />
  </g>
  <defs
     id="defs6">
    <g
       id="shape0"
       transform="translate(29.65,39.65)">
      <path
         d="m 17.65,-4.15 0.7,-0.6 0.9,-1 q 0.35,-0.6 0.35,-2.05 v -3.9 l -0.25,-2.35 -1.2,-2.1 -11.5,-16.25 q -1.05,-1.55 -2.1,-1.5 -0.35,0 -1.05,0.4 l -13.7,7.55 -5.15,3.1 -3.3,3 -0.3,0.3 q -1.45,1.75 -1.9,2.95 l -0.1,0.4 -0.55,2.95 q -0.9,7.75 -2.2,14.2 -0.75,3.65 -0.35,5.3 0.35,1.55 2.15,4 6.9,9.7 15.55,18.8 Q 4.15,24 13.4,17.75 l 1,-0.9 0.1,-1.8 q -0.35,-3.2 0.45,-7.85 l 1.4,-7.8 q 0.35,-2.5 1,-3.25 l 0.3,-0.3 m -31.65,-0.3 0.3,-0.4 0.25,-0.55 0.8,-0.8 0.55,-0.6 q 0.5,-0.5 1.25,-0.35 l 0.35,0.1 0.6,0.75 q 0.15,0.4 0.15,0.8 -0.1,0.55 -0.6,1.1 l -0.65,0.7 -1.15,0.8 -0.45,0.5 -3.2,3.3 -0.4,0.5 -0.35,0.55 -0.7,0.75 -0.65,0.8 -0.5,0.6 -0.7,0.05 -0.5,-0.45 q -0.15,-0.4 0.1,-1.05 0.35,-1 1.95,-3 l 3.4,-3.95 0.15,-0.15 M 24.45,-16.2 q 0.4,1.25 0.25,3.25 l -0.2,3.35 0.3,3.7 q 0,2.25 -1.1,3.5 l -1.55,1.45 q -0.5,0.7 -0.8,2.2 l -1.4,7.25 q -0.55,4.05 -0.35,7.4 l 0.1,2.15 q -0.1,1.25 -0.55,2.05 -0.6,1.1 -2.75,2.3 L 6.25,28.35 q -6,3.5 -10.35,5.6 -2.3,1.05 -3.5,0.85 -1.55,-0.3 -3.3,-2.35 -8,-8.95 -14.45,-17.6 -3.4,-4.45 -4.05,-7.55 -0.4,-1.9 -0.15,-4.4 l 0.75,-4.4 q 1.2,-6.25 1.95,-12.5 0.4,-3.6 1.1,-5.25 0.9,-2.1 3.2,-4.45 3.2,-3.1 6.8,-5.25 l 7,-3.75 4.9,-2.9 4.9,-2.9 q 1.9,-1 2.95,-1.1 3.3,-0.35 6.75,4 l 5.4,7.7 q 3.35,5.05 5.55,7.6 l 1.6,1.9 q 0.85,1.15 1.15,2.2 M 5.35,11.6 4.75,13.4 4.2,14.65 3.35,14.5 2.9,13.7 Q 2.65,12.85 2.85,11.6 L 3.35,9.5 3.5,7.2 3.55,6.2 Q 3.7,5 4.9,4.2 L 7.1,3.05 9.75,1.65 11.8,0.5 q 1.3,-0.5 2.3,-0.25 0.65,0.1 0.95,0.6 0.4,0.6 -0.2,1.3 l -1.1,0.9 -5.55,3.1 -1.45,0.8 Q 5.95,7.6 5.8,8.25 l -0.1,1.4 -0.3,0.9 -0.05,1.05"
         fill="#000000"
         fill-rule="evenodd"
         stroke="none"
         id="path1" />
      <path
         d="m -8.25,-6.55 -1.55,-2.8 -1.55,-2.8 -1,-1.5 q -0.5,-0.9 -0.45,-1.65 0.05,-1.05 0.9,-1.75 0.85,-0.75 1.85,-0.6 0.95,0.15 1.8,1.05 l 1.3,1.75 3.35,5.2 1.15,1.7 v -0.1 l 0.1,-1.35 0.2,-1.35 0.95,-1.1 0.1,-0.05 2.6,-0.15 q 1.3,0.6 1.5,2 V -9.9 L 2.9,-7.65 5,-8.9 5.35,-9.1 10.8,-12.55 q 1.2,-0.75 2.05,-0.8 1.45,-0.1 2.3,1.1 0.85,1.15 0.35,2.55 -0.3,0.7 -1.1,1.35 L 12.85,-7.3 6.7,-3.55 q -1.9,1.15 -3.55,2 l -2.45,1.2 -0.05,0.4 -0.2,1.2 -0.2,1.1 -0.9,3.7 -0.7,2.9 -1.5,7.8 q -0.2,1.3 -0.5,1.75 -0.45,0.75 -1.35,1.05 l -1.8,0.05 q -1.15,-0.35 -1.9,-1.4 -0.75,-1.05 -0.7,-2.25 l 0.35,-1.75 q 1.05,-3.45 1.6,-6.5 L -6.7,5.5 -6.2,2.95 q 0.45,-2 1.1,-3.5 l 0.25,-0.6 -0.85,-1.65 q -0.7,-1.35 -2.55,-3.75"
         fill="#ffffff"
         fill-rule="evenodd"
         stroke="none"
         id="path2" />
      <path
         d="m -10.5,-7.05 -2.1,-3.55 -1.4,-1.9 q -0.65,-0.95 -0.9,-1.8 l -0.05,-0.25 q -0.35,-1.2 0.05,-2.55 0.4,-1.3 1.35,-2.2 0.95,-0.9 2.3,-1.2 1.3,-0.35 2.6,0 2.35,0.65 4.7,3.95 l 1.9,2.95 1.05,-0.85 2.15,-0.25 2.25,0.4 q 1.05,0.55 1.6,1.95 l 0.2,0.8 2.75,-1.75 q 3.65,-2.2 5.9,-2 l 1.8,0.55 q 0.8,0.65 1.5,2.2 l 0.7,2.3 q 0.3,1.6 -0.15,2.75 -0.6,1.5 -2.6,2.6 L 11.8,-3.2 9.9,-1.9 7.6,-0.5 3.2,1.75 3.1,1.8 2.4,4.75 -0.65,17.15 q -0.8,3.1 -1.9,4.25 -0.8,0.8 -1.95,1.15 l -2.3,0.05 q -2.4,-0.55 -3.45,-2.9 -0.55,-1.2 -0.55,-2.95 l 0.35,-3.1 L -9.4,7.2 -8.6,2.85 -8.25,1.1 q 0.3,-1.5 0.2,-2.3 l -0.5,-1.55 -1.2,-2.75 q 0,-0.4 -0.15,-0.8 l -0.6,-0.75 m 2.25,0.5 q 1.85,2.4 2.55,3.75 l 0.85,1.65 -0.25,0.6 q -0.65,1.5 -1.1,3.5 L -6.7,5.5 -7.15,7.7 q -0.55,3.05 -1.6,6.5 l -0.35,1.75 q -0.05,1.2 0.7,2.25 0.75,1.05 1.9,1.4 l 1.8,-0.05 q 0.9,-0.3 1.35,-1.05 0.3,-0.45 0.5,-1.75 l 1.5,-7.8 0.7,-2.9 0.9,-3.7 0.2,-1.1 0.2,-1.2 0.05,-0.4 2.45,-1.2 q 1.65,-0.85 3.55,-2 l 6.15,-3.75 1.55,-1.05 q 0.8,-0.65 1.1,-1.35 0.5,-1.4 -0.35,-2.55 -0.85,-1.2 -2.3,-1.1 -0.85,0.05 -2.05,0.8 L 5.35,-9.1 5,-8.9 2.9,-7.65 3,-9.9 v -0.15 q -0.2,-1.4 -1.5,-2 l -2.6,0.15 -0.1,0.05 -0.95,1.1 -0.2,1.35 -0.1,1.35 v 0.1 l -1.15,-1.7 -3.35,-5.2 -1.3,-1.75 q -0.85,-0.9 -1.8,-1.05 -1,-0.15 -1.85,0.6 -0.85,0.7 -0.9,1.75 -0.05,0.75 0.45,1.65 l 1,1.5 1.55,2.8 1.55,2.8"
         fill="#ad8eb9"
         fill-rule="evenodd"
         stroke="none"
         id="path3" />
      <path
         d="m -20.95,-16.2 0.1,-0.4 q 0.45,-1.2 1.9,-2.95 l 0.3,-0.3 3.3,-3 5.15,-3.1 13.7,-7.55 q 0.7,-0.4 1.05,-0.4 1.05,-0.05 2.1,1.5 l 11.5,16.25 1.2,2.1 0.25,2.35 v 3.9 q 0,1.45 -0.35,2.05 l -0.9,1 -0.7,0.6 -1.35,0.9 -1.75,1.45 -1.8,1.5 Q 11.25,0.85 7.2,2.65 L 2.4,4.75 3.1,1.8 3.2,1.75 7.6,-0.5 l 2.3,-1.4 1.9,-1.3 3.3,-1.7 q 2,-1.1 2.6,-2.6 0.45,-1.15 0.15,-2.75 l -0.7,-2.3 q -0.7,-1.55 -1.5,-2.2 l -1.8,-0.55 q -2.25,-0.2 -5.9,2 L 5.2,-11.55 5,-12.35 q -0.55,-1.4 -1.6,-1.95 l -2.25,-0.4 -2.15,0.25 -1.05,0.85 -1.9,-2.95 q -2.35,-3.3 -4.7,-3.95 -1.3,-0.35 -2.6,0 -1.35,0.3 -2.3,1.2 -0.95,0.9 -1.35,2.2 -0.4,1.35 -0.05,2.55 l 0.05,0.25 q 0.25,0.85 0.9,1.8 l 1.4,1.9 2.1,3.55 -0.35,-0.1 Q -11.6,-7.3 -12.1,-6.8 l -0.55,0.6 -0.8,0.8 -0.25,0.55 -0.3,0.4 -4.85,-7.8 -2.1,-3.95 m 8.35,13.8 0.45,-0.5 1.15,-0.8 0.65,-0.7 q 0.5,-0.55 0.6,-1.1 l 1.2,2.75 0.5,1.55 q 0.1,0.8 -0.2,2.3 L -8.6,2.85 -10.85,0 -12.6,-2.4"
         fill="#8e8492"
         fill-rule="evenodd"
         stroke="none"
         id="path4" />
      <path
         d="m -20.95,-16.2 2.1,3.95 4.85,7.8 -0.15,0.15 -3.4,3.95 q -1.6,2 -1.95,3 -0.25,0.65 -0.1,1.05 l 0.5,0.45 0.7,-0.05 0.5,-0.6 0.65,-0.8 0.7,-0.75 0.35,-0.55 0.4,-0.5 3.2,-3.3 1.75,2.4 2.25,2.85 -0.8,4.35 -1.05,6.45 -0.35,3.1 q 0,1.75 0.55,2.95 1.05,2.35 3.45,2.9 l 2.3,-0.05 q 1.15,-0.35 1.95,-1.15 1.1,-1.15 1.9,-4.25 L 2.4,4.75 7.2,2.65 q 4.05,-1.8 5.55,-2.95 l 1.8,-1.5 1.75,-1.45 1.35,-0.9 -0.3,0.3 q -0.65,0.75 -1,3.25 l -1.4,7.8 q -0.8,4.65 -0.45,7.85 l -0.1,1.8 -1,0.9 Q 4.15,24 -6.35,29.05 -15,19.95 -21.9,10.25 q -1.8,-2.45 -2.15,-4 -0.4,-1.65 0.35,-5.3 1.3,-6.45 2.2,-14.2 l 0.55,-2.95 M 5.35,11.6 5.4,10.55 5.7,9.65 5.8,8.25 Q 5.95,7.6 6.75,6.95 l 1.45,-0.8 5.55,-3.1 1.1,-0.9 q 0.6,-0.7 0.2,-1.3 Q 14.75,0.35 14.1,0.25 13.1,0 11.8,0.5 L 9.75,1.65 7.1,3.05 4.9,4.2 Q 3.7,5 3.55,6.2 l -0.05,1 -0.15,2.3 -0.5,2.1 q -0.2,1.25 0.05,2.1 l 0.45,0.8 0.85,0.15 0.55,-1.25 0.6,-1.8"
         fill="#706674"
         fill-rule="evenodd"
         stroke="none"
         id="path5" />
    </g>
    <g
       id="sprite1"
       transform="translate(17.4,15.85)">
      <use
         ffdec:characterId="31"
         height="57.200001"
         transform="matrix(0.5366,0,0,0.5366,-16.6582,-14.546)"
         width="70.75"
         xlink:href="#sprite2"
         id="use5" />
    </g>
    <g
       id="sprite2"
       transform="translate(-8.65,-10.35)">
      <use
         ffdec:characterId="30"
         height="57.200001"
         transform="translate(8.65,10.35)"
         width="70.75"
         xlink:href="#shape1"
         id="use6" />
    </g>
    <g
       id="shape1"
       transform="translate(-8.65,-10.35)">
      <path
         d="m 14.8,41.7 q 0.65,-1.75 2.65,-2.5 1.8,-0.8 3.7,-0.25 1.15,0.45 2.25,1.2 l 0.9,0.4 q 1.65,0.9 2.85,2.5 L 37.8,30.1 q 2.35,-2.8 3.75,-3.95 1.5,-1.15 4.25,-2.4 18.2,-8.85 27.65,-12.6 2.15,-0.8 3.25,-0.8 h 0.8 l 1.9,2.4 -0.2,0.8 q -0.2,1.1 -1.55,3 -5.85,8.25 -18.85,23.8 -1.85,2.35 -3.35,3.5 -1.4,1.15 -4.75,2.75 l -15.15,7.15 q 1.2,1.6 1.75,3.4 l 0.2,1 0.55,2.5 q 0.1,1.95 -1.1,3.55 -1.2,1.65 -3.05,1.9 l -1.3,0.05 q -1.65,0.2 -3.45,-0.65 -1.85,-0.9 -3,-2.6 L 25,60.95 23.8,62.1 q -2.6,2.85 -4.3,3.95 -2.85,1.8 -5.5,1.45 l -1.65,-0.5 -1.2,-0.7 -0.2,-0.2 q -1,-0.85 -1.6,-1.9 L 9.25,64 9.15,63.8 8.75,62.4 q -0.2,-0.8 -0.05,-1.7 0.25,-2.65 2.7,-5.05 1.5,-1.3 4.9,-3.15 L 17.7,51.55 16.05,50 q -1.35,-1.5 -1.8,-3.6 -0.4,-1.85 0.25,-3.45 l 0.3,-1.25"
         fill="#000000"
         fill-opacity="0.372549"
         fill-rule="evenodd"
         stroke="none"
         id="path6" />
    </g>
  </defs>
</svg>
