<?xml version="1.0" encoding="UTF-8" standalone="no"?>
<svg
   ffdec:objectType="frame"
   height="81.282562"
   width="77.194542"
   version="1.1"
   id="svg6"
   sodipodi:docname="ITEM Bionic Skull Plating.svg"
   xmlns:inkscape="http://www.inkscape.org/namespaces/inkscape"
   xmlns:sodipodi="http://sodipodi.sourceforge.net/DTD/sodipodi-0.dtd"
   xmlns:xlink="http://www.w3.org/1999/xlink"
   xmlns="http://www.w3.org/2000/svg"
   xmlns:svg="http://www.w3.org/2000/svg"
   xmlns:ffdec="https://www.free-decompiler.com/flash">
  <sodipodi:namedview
     id="namedview6"
     pagecolor="#ffffff"
     bordercolor="#000000"
     borderopacity="0.25"
     inkscape:showpageshadow="2"
     inkscape:pageopacity="0.0"
     inkscape:pagecheckerboard="0"
     inkscape:deskcolor="#d1d1d1"
     fit-margin-top="5"
     fit-margin-left="5"
     fit-margin-right="5"
     fit-margin-bottom="5" />
  <g
     transform="translate(42.141803,44.736486)"
     id="g1">
    <use
       ffdec:characterId="17"
       height="119.15"
       id="rarity"
       transform="translate(-58.5,-60.65)"
       width="119.15"
       xlink:href="#sprite0" />
    <use
       ffdec:characterId="1151"
       height="81.300003"
       transform="translate(-42.15,-44.75)"
       width="77.199997"
       xlink:href="#shape0"
       id="use1" />
  </g>
  <defs
     id="defs6">
    <g
       id="shape0"
       transform="translate(40.85,42.85)">
      <path
         d="m -10.15,-4.85 q 3.5,7.2 4.9,15 Q 2.65,7.55 11,6.45 L 15.2,5.6 h 0.1 L 15.1,3.6 14.8,2.9 14.65,2.3 V 1.95 L 14,0.55 Q 13.75,-0.3 13.9,-1.15 L 13.7,-1.45 13.45,-1.8 13.4,-2.15 13.35,-2.45 V -2.6 l -0.1,-0.2 -0.15,-0.15 -0.05,-0.15 -1,-2.65 Q 11.55,-6.9 10.7,-7.85 L 10.65,-8 v -0.2 l -0.2,-0.25 Q 5.25,-9.8 -0.5,-9.1 l -11.35,1.7 1.7,2.55 M 30.05,8.95 29.95,8.75 29.4,6.95 29.3,6.8 29.15,6.45 29,6.15 V 6 q -1.4,-2.55 -3.2,-4.8 -3.25,-4 -7.75,-6.6 -2.1,-1.2 -4.25,-2 l 0.6,1.35 1.55,2.75 0.45,2.3 0.65,1.45 0.25,1.65 0.35,1 0.05,1.3 0.5,1.5 v 1.6 l 0.3,1 0.1,1.3 0.45,2.75 L 19,16.5 v 0.3 l 0.6,-0.15 q 3.8,-0.7 7.45,-1.95 L 31,13.15 V 13 L 30.6,10.9 30.05,8.95 M -7.65,-37.3 q -3.65,0.05 -4.9,3.3 -0.35,0.9 -0.3,1.9 l 0.1,0.2 0.15,0.3 0.15,0.35 0.1,0.3 0.15,0.15 0.15,0.2 0.15,0.15 0.1,0.15 0.2,0.15 0.45,0.2 0.25,0.1 0.05,0.05 q 6.7,1.05 7.75,-1.45 1,-2.5 -0.05,-4.25 -1.1,-1.75 -4.5,-1.8 m -20.8,59.8 q -3.25,-0.4 -2.95,-3.65 l 0.75,-5.8 -8.65,-0.3 -0.95,-0.65 q -1.9,-3.6 2.3,-4.25 L -31,7.2 -29.45,7.15 q 0.85,-3.7 2.1,-7.35 1.4,-4.25 4,-7.75 0.8,-1.15 1.9,-1.7 0.45,-1.8 2.95,-2.4 l 9.65,-1.85 0.1,-0.45 q -0.5,-4.7 -0.4,-9.45 l 0.05,-0.55 q -3.9,0.2 -6.9,-2.55 -2.55,-2.35 -2.3,-5.85 0.6,-8.15 8.8,-10 7.6,-0.8 10.55,5.8 2,4.45 -1.1,8.35 -1.55,1.95 -3.85,3 l 0.05,1.8 0.5,5.05 v 1.95 l 0.05,0.2 0.1,0.65 v 1.15 0.2 l 2.7,-0.25 q 10.25,-1.35 19.15,3.1 9.1,4.5 14.25,13.05 3.55,5.95 3.45,12.75 -0.05,3.55 -3.85,4.65 l -5.4,1.6 0.2,0.7 0.3,1.55 q 1.15,2.75 1.3,5.85 0.1,1.55 -0.3,3.15 2.6,-0.5 4.9,1 1.2,0.75 0.85,2.15 -0.95,3.65 -5.2,3.35 l -2.2,0.2 q -4.4,1 -4.5,-3.1 0,-0.8 0.5,-1.45 l 0.15,-0.65 0.4,-1 q 0.75,-4.85 -0.4,-9.6 l -0.15,-0.85 -1.8,0.6 -0.2,4.9 Q 20.9,30.55 17.7,32.4 13.15,35 8,35.6 l -14.75,1.6 q -0.95,0.1 -1.4,-0.7 -1.2,-2 -1,-4.5 l 0.65,-9.45 q -10,1.25 -19.95,-0.05 M -10.7,11.35 V 11.1 l -0.05,-0.15 -0.15,-1.5 0.1,-1.65 q -1.35,-4.9 -3.4,-9.65 -0.75,-1.75 -2.35,-2.9 l -2.6,-0.15 -0.75,0.85 -0.25,0.3 -3,10.5 q 2.95,-0.1 5.45,1.2 1.15,0.6 1.05,1.9 l -0.2,1.15 q -0.6,1.7 -2.85,1.95 l -5.05,0.1 -0.15,0.95 -0.35,1.85 -0.15,1.45 15.9,-0.75 -0.45,-1.6 -0.4,-1.15 -0.1,-0.35 -0.25,-2.1 m 27.1,0.3 v -0.4 L 15.8,8.9 Q 6.5,9.8 -2.55,12 l -2.35,0.5 0.15,1.35 0.25,2.35 0.35,1.4 0.6,2.85 Q -3,23.1 -3.1,25.8 l -0.3,5.4 6.45,-0.7 q 5.3,-0.3 10.1,-2.5 1.2,-0.55 2.25,-1.3 L 15.15,22.3 Q 15,19.95 16.1,18.55 V 18.4 l 0.3,-5.35 v -1.4 M -2.45,16.2 q -0.3,-0.9 0.45,-2.15 0.7,-1.1 1.9,-1.1 2.35,0.65 2.35,2.15 0,0.85 -0.7,1.95 -0.75,1.2 -2.05,0.75 -1.7,-0.55 -1.95,-1.6 M 8.9,13.25 q 0.05,-0.75 0.6,-1.7 0.7,-1.3 2.1,-1.3 1.95,0.55 2.5,1.6 0.55,1.15 -0.55,2.95 -0.85,1.4 -2.4,0.9 Q 8.8,14.95 8.9,13.25"
         fill="#000000"
         fill-rule="evenodd"
         stroke="none"
         id="path1" />
      <path
         d="M 19.05,12.55 18.6,9.8 18.5,8.5 18.2,7.5 V 5.9 L 17.7,4.4 17.65,3.1 17.3,2.1 17.05,0.45 16.4,-1 15.95,-3.3 14.4,-6.05 13.8,-7.4 q 2.15,0.8 4.25,2 4.5,2.6 7.75,6.6 1.8,2.25 3.2,4.8 v 0.15 l 0.15,0.3 0.15,0.35 0.1,0.15 0.55,1.8 0.1,0.2 q -5.15,1.5 -10.3,3.3 l -0.7,0.3 m -29.2,-17.4 -1.7,-2.55 11.35,-1.7 q 5.75,-0.7 10.95,0.65 l 0.2,0.25 V -8 l 0.05,0.15 q 0.85,0.95 1.35,2.1 l 1,2.65 0.05,0.15 0.15,0.15 0.1,0.2 v 0.15 l 0.05,0.3 0.05,0.35 0.25,0.35 0.2,0.3 q -0.15,0.85 0.1,1.7 l 0.65,1.4 V 2.3 l 0.15,0.6 0.3,0.7 0.2,2 H 15.2 L 11,6.45 q -8.35,1.1 -16.25,3.7 -1.4,-7.8 -4.9,-15 m 6,22.45 L -4.5,16.2 -4.75,13.85 -4.9,12.5 -2.55,12 Q 6.5,9.8 15.8,8.9 l 0.6,2.35 v 0.4 l -1.15,-0.1 -1.15,0.3 q -0.55,-1.05 -2.5,-1.6 -1.4,0 -2.1,1.3 -0.55,0.95 -0.6,1.7 L 3,14.9 2.25,15.1 q 0,-1.5 -2.35,-2.15 -1.2,0 -1.9,1.1 -0.75,1.25 -0.45,2.15 -1.1,0.45 -1.7,1.4"
         fill="#b4b4b4"
         fill-rule="evenodd"
         stroke="none"
         id="path2" />
      <path
         d="m 19.05,12.55 0.7,-0.3 q 5.15,-1.8 10.3,-3.3 L 30.6,10.9 31,13 v 0.15 L 27.05,14.7 Q 23.4,15.95 19.6,16.65 L 19,16.8 v -0.3 l 0.05,-3.95 m -35.9,-1.55 6.15,0.35 0.25,2.1 0.1,0.35 0.4,1.15 0.45,1.6 -15.9,0.75 0.15,-1.45 0.35,-1.85 0.15,-0.95 5.05,-0.1 q 2.25,-0.25 2.85,-1.95 m 12.7,6.6 q 0.6,-0.95 1.7,-1.4 0.25,1.05 1.95,1.6 1.3,0.45 2.05,-0.75 0.7,-1.1 0.7,-1.95 L 3,14.9 8.9,13.25 q -0.1,1.7 2.25,2.45 1.55,0.5 2.4,-0.9 1.1,-1.8 0.55,-2.95 l 1.15,-0.3 1.15,0.1 v 1.4 l -0.3,5.35 v 0.15 q -1.1,1.4 -0.95,3.75 l 0.25,4.4 q -1.05,0.75 -2.25,1.3 -4.8,2.2 -10.1,2.5 l -6.45,0.7 0.3,-5.4 Q -3,23.1 -3.55,20.45 l -0.6,-2.85"
         fill="#989898"
         fill-rule="evenodd"
         stroke="none"
         id="path3" />
      <path
         d="m -16.85,11 0.2,-1.15 q 0.1,-1.3 -1.05,-1.9 -2.5,-1.3 -5.45,-1.2 l 3,-10.5 0.25,-0.3 0.75,-0.85 2.6,0.15 q 1.6,1.15 2.35,2.9 2.05,4.75 3.4,9.65 l -0.1,1.65 0.15,1.5 0.05,0.15 v 0.25 L -16.85,11"
         fill="#727272"
         fill-rule="evenodd"
         stroke="none"
         id="path4" />
      <path
         d="m -7.65,-37.3 q 3.4,0.05 4.5,1.8 1.05,1.75 0.05,4.25 -1.05,2.5 -7.75,1.45 l -0.05,-0.05 -0.25,-0.1 -0.45,-0.2 -0.2,-0.15 -0.1,-0.15 -0.15,-0.15 -0.15,-0.2 -0.15,-0.15 -0.1,-0.3 -0.15,-0.35 -0.15,-0.3 -0.1,-0.2 q -0.05,-1 0.3,-1.9 1.25,-3.25 4.9,-3.3"
         fill="#cac492"
         fill-rule="evenodd"
         stroke="none"
         id="path5" />
    </g>
    <g
       id="sprite1"
       transform="translate(17.4,15.85)">
      <use
         ffdec:characterId="31"
         height="57.200001"
         transform="matrix(0.5366,0,0,0.5366,-16.6582,-14.546)"
         width="70.75"
         xlink:href="#sprite2"
         id="use5" />
    </g>
    <g
       id="sprite2"
       transform="translate(-8.65,-10.35)">
      <use
         ffdec:characterId="30"
         height="57.200001"
         transform="translate(8.65,10.35)"
         width="70.75"
         xlink:href="#shape1"
         id="use6" />
    </g>
    <g
       id="shape1"
       transform="translate(-8.65,-10.35)">
      <path
         d="m 14.8,41.7 q 0.65,-1.75 2.65,-2.5 1.8,-0.8 3.7,-0.25 1.15,0.45 2.25,1.2 l 0.9,0.4 q 1.65,0.9 2.85,2.5 L 37.8,30.1 q 2.35,-2.8 3.75,-3.95 1.5,-1.15 4.25,-2.4 18.2,-8.85 27.65,-12.6 2.15,-0.8 3.25,-0.8 h 0.8 l 1.9,2.4 -0.2,0.8 q -0.2,1.1 -1.55,3 -5.85,8.25 -18.85,23.8 -1.85,2.35 -3.35,3.5 -1.4,1.15 -4.75,2.75 l -15.15,7.15 q 1.2,1.6 1.75,3.4 l 0.2,1 0.55,2.5 q 0.1,1.95 -1.1,3.55 -1.2,1.65 -3.05,1.9 l -1.3,0.05 q -1.65,0.2 -3.45,-0.65 -1.85,-0.9 -3,-2.6 L 25,60.95 23.8,62.1 q -2.6,2.85 -4.3,3.95 -2.85,1.8 -5.5,1.45 l -1.65,-0.5 -1.2,-0.7 -0.2,-0.2 q -1,-0.85 -1.6,-1.9 L 9.25,64 9.15,63.8 8.75,62.4 q -0.2,-0.8 -0.05,-1.7 0.25,-2.65 2.7,-5.05 1.5,-1.3 4.9,-3.15 L 17.7,51.55 16.05,50 q -1.35,-1.5 -1.8,-3.6 -0.4,-1.85 0.25,-3.45 l 0.3,-1.25"
         fill="#000000"
         fill-opacity="0.372549"
         fill-rule="evenodd"
         stroke="none"
         id="path6" />
    </g>
  </defs>
</svg>
