<?xml version="1.0" encoding="UTF-8" standalone="no"?>
<svg
   ffdec:objectType="frame"
   height="74.009377"
   width="68.95005"
   version="1.1"
   id="svg5"
   xmlns:xlink="http://www.w3.org/1999/xlink"
   xmlns="http://www.w3.org/2000/svg"
   xmlns:svg="http://www.w3.org/2000/svg"
   xmlns:ffdec="https://www.free-decompiler.com/flash">
  <g
     transform="translate(32.074242,39.309375)"
     id="g1">
    <use
       ffdec:characterId="17"
       height="119.15"
       id="rarity"
       transform="translate(-58.5,-60.65)"
       width="119.15"
       xlink:href="#sprite0" />
    <use
       ffdec:characterId="904"
       height="74.050003"
       transform="translate(-32.05,-39.3)"
       width="68.949997"
       xlink:href="#shape0"
       id="use1" />
  </g>
  <defs
     id="defs5">
    <g
       id="shape0"
       transform="translate(32.6,40.05)">
      <path
         d="m 22,-21.7 -0.3,-1.05 q -1.05,-3.05 -3.15,-5.5 -4.25,-4.85 -10.95,-6.1 l -5.35,-0.2 q -3.8,0.55 -7,3.3 l -0.85,0.7 q -2.95,3.05 -4.55,7.6 l -0.3,1.05 -0.2,0.65 -0.4,2.7 q -0.15,3.7 2.35,7.15 2.2,3.2 5.85,5.1 2.15,1.05 2.85,1.65 1.05,0.75 0.8,1.55 -0.15,0.65 -1.3,1 -2.65,0.75 -5.7,-0.5 -2.65,-1.15 -4.85,-3.45 -2,-2 -3.55,-4.65 l -0.95,-1.9 -0.8,-2.5 q -1.35,0.85 -2.6,2.05 l -1.9,2.1 -0.55,0.7 q -2.65,3.6 -4.15,8.3 l -0.5,1.85 q -0.95,4 -0.7,7.85 0.35,5.2 3,9.05 2.7,3.9 7.9,6.7 3.4,1.75 9.6,3.8 l 3.95,1.05 2.8,-0.05 2.8,-0.4 3.45,-0.45 3.4,-0.55 q 4.6,-1.15 10.6,-5.4 3.85,-2.6 5.95,-5.1 2.4,-2.8 3.5,-6.55 1.2,-3.6 1,-7.35 V 2.25 q -0.25,-3.1 -1.25,-5.9 -1.2,-3.3 -3.45,-6.2 l -0.65,-0.7 -0.45,-0.55 -0.25,-0.4 -0.55,0.85 q -3.15,5.75 -7.7,7 L 14.85,-3.7 q -0.5,-0.15 -0.7,-0.7 -0.3,-0.5 -0.2,-1 0.25,-0.6 1.4,-1.05 2.8,-1.4 4.7,-4.15 1.9,-2.7 2.25,-5.9 0.3,-2.6 -0.3,-5.2 m -24.3,-1.1 0.25,-0.8 0.1,-0.8 0.4,-0.65 0.5,-0.95 0.85,-0.9 0.8,-0.6 q 0.95,-0.7 2.95,-1.2 l 2.7,-0.5 q 1.6,-0.1 2.8,0.45 l 0.4,0.2 0.9,-0.3 1.05,0.1 q 2.65,0.65 3.7,1.35 l 1.35,1.05 1.15,1.2 0.5,0.75 0.3,1.05 0.15,1.6 q -0.1,0.8 -0.8,1.25 -0.85,0.45 -1.45,-0.3 l -0.45,-0.85 -0.85,-1.1 -0.5,-0.7 -0.5,-0.4 -1.45,-0.75 -0.7,-0.05 v 0.05 l 0.45,1.8 -0.05,2.25 -0.35,1.5 -0.45,0.85 -0.6,1.05 Q 10.4,-16.4 9.5,-16 l -1.1,0.15 Q 7.8,-16 7.55,-16.6 q -0.25,-0.7 0,-1.15 L 8.1,-18.5 q 0.65,-0.95 0.55,-2.8 L 8.45,-22.5 7.5,-23.75 7,-24.5 6.4,-24.75 5,-24.8 q -1.8,0.25 -4.25,1.35 l -1.2,0.85 -0.8,1.4 q -0.35,0.55 -0.7,0.4 -0.2,-0.15 -0.2,-0.7 l -0.1,-0.65 -0.05,-0.65 m -13.9,1.3 q 0.85,-4.05 2.3,-6.75 1.65,-3.2 4.6,-6.05 2.4,-2.45 4.65,-3.65 4,-2.25 9.1,-2.1 4.65,0.15 9.3,2.15 3.65,1.55 6.05,3.65 5.4,4.6 6.75,12.15 0.55,2.85 0.25,5.4 l 1.85,1.2 2.3,2.85 q 5.15,7.55 5.35,16 0.2,4.35 -1.15,8.45 -1.3,4.15 -3.95,7.55 -2.35,3 -6.1,5.75 l -7.25,4.5 q -2.8,1.6 -4.25,2 l -2.95,0.7 -3.05,0.35 -5.4,0.95 -5.45,0.35 -4.9,-1.1 q -6.2,-1.95 -10.2,-4.1 Q -23.65,26 -26.9,22.3 -29.85,18.8 -31.35,14.15 -32.8,9.7 -32.6,5 q 0.35,-9.05 6,-17.4 4.65,-6.85 10.2,-7.9 l 0.2,-1.2"
         fill="#000000"
         fill-rule="evenodd"
         stroke="none"
         id="path1" />
      <path
         d="m -4.75,-31.25 0.8,0.1 q 1.5,0.3 1.9,1.65 0.25,0.5 0.15,1.3 l -0.1,1.15 q -0.55,2.7 -1.5,4.35 -1.3,2.25 -3.35,3 -1.75,0.65 -2.85,-0.2 l -0.65,-0.7 -0.3,-0.65 0.2,-0.65 0.3,-1.05 q 1.6,-4.55 4.55,-7.6 l 0.85,-0.7 m -10.85,28 -0.45,2.1 -0.8,1.95 -0.15,0.3 -0.9,1.5 -0.3,0.4 q -1.2,1.35 -2.9,1.6 L -23,4.3 Q -23.95,3.85 -24.3,3 l -0.3,-1.55 q 0,-2.3 0.5,-4.05 l 0.55,-1.45 0.4,-1 1.85,-2.9 0.7,-0.65 q 0.8,-0.55 1.8,-0.6 h 0.65 l 1.15,0.35 0.7,0.65 q 0.5,0.6 0.7,1.6 0.25,1.1 0,2.65 v 0.7 m -6.8,14.1 q -0.3,-0.7 -0.1,-1.6 0.25,-0.9 1.05,-1.35 0.8,-0.55 1.7,-0.45 0.85,0.05 1.55,0.8 0.65,0.75 0.65,1.7 0,0.7 -0.4,1.35 L -19,12.15 q -1.4,0.65 -2.7,-0.3 l -0.25,-0.25 -0.45,-0.75 m 48.6,2 -0.5,0.25 q -0.85,0.4 -1.7,0 -0.85,-0.25 -1.15,-1.2 -0.25,-0.75 0.05,-1.6 0.35,-0.75 1.05,-1.15 0.75,-0.3 1.55,0 0.85,0.25 1.2,0.95 l 0.3,1.1 -0.15,0.9 -0.65,0.75"
         fill="#ffffff"
         fill-rule="evenodd"
         stroke="none"
         id="path2" />
      <path
         d="m -4.75,-31.25 q 3.2,-2.75 7,-3.3 l 5.35,0.2 q 6.7,1.25 10.95,6.1 2.1,2.45 3.15,5.5 l 0.3,1.05 q 0.2,2.5 -0.6,4.9 -1.2,3.25 -4.2,5.6 -1.95,1.55 -4.35,2.3 -2.1,0.65 -4.05,0.75 -4.05,0.3 -7.95,-0.8 -4.05,-1.15 -7.15,-3.65 -2.05,-1.7 -2.95,-3.45 -0.6,-1.15 -1.05,-4.2 l -0.05,-0.35 0.65,0.7 q 1.1,0.85 2.85,0.2 2.05,-0.75 3.35,-3 0.95,-1.65 1.5,-4.35 l 0.1,-1.15 q 0.1,-0.8 -0.15,-1.3 -0.4,-1.35 -1.9,-1.65 l -0.8,-0.1 m 30.6,20.7 0.65,0.7 q 2.25,2.9 3.45,6.2 1,2.8 1.25,5.9 -0.3,2.4 -1.25,4.65 -1,2.4 -3.1,5.2 L 27,11.2 26.7,10.1 q -0.35,-0.7 -1.2,-0.95 -0.8,-0.3 -1.55,0 -0.7,0.4 -1.05,1.15 -0.3,0.85 -0.05,1.6 0.3,0.95 1.15,1.2 0.85,0.4 1.7,0 l 0.5,-0.25 -2.4,2.7 -4.05,3.65 Q 14.7,23 7.3,24.15 L 0.95,24.7 q -4.65,-0.15 -9.1,-1.85 -4.45,-1.65 -8,-4.6 -3.5,-2.85 -5.8,-6.65 l 0.25,0.25 q 1.3,0.95 2.7,0.3 l 1.05,-0.85 q 0.4,-0.65 0.4,-1.35 0,-0.95 -0.65,-1.7 -0.7,-0.75 -1.55,-0.8 -0.9,-0.1 -1.7,0.45 -0.8,0.45 -1.05,1.35 -0.2,0.9 0.1,1.6 -2.35,-4 -3.3,-8.35 l -0.35,-2.6 0.5,-1.85 q 1.5,-4.7 4.15,-8.3 l 0.55,-0.7 1.9,-2.1 q 1.25,-1.2 2.6,-2.05 l 0.8,2.5 q -0.65,2.35 -0.75,4.4 L -17,-8.85 -18.15,-9.2 h -0.65 q -1,0.05 -1.8,0.6 l -0.7,0.65 -1.85,2.9 -0.4,1 -0.55,1.45 q -0.5,1.75 -0.5,4.05 L -24.3,3 q 0.35,0.85 1.3,1.3 l 1.9,0.3 q 1.7,-0.25 2.9,-1.6 l 0.3,-0.4 0.9,-1.5 0.15,-0.3 0.8,-1.95 0.45,-2.1 q 0.85,2.25 2.75,4.2 2,1.95 4.6,3 4.35,1.8 10.95,1.35 6.8,-0.5 13,-3 3.65,-1.4 5.95,-3.25 2.9,-2.5 3.7,-5.5 l 0.3,-1.2 -0.15,-0.8 q -0.1,-1.2 0.3,-2 l 0.05,-0.1 M -2.3,-22.8 l 0.05,0.65 0.1,0.65 q 0,0.55 0.2,0.7 0.35,0.15 0.7,-0.4 l 0.8,-1.4 1.2,-0.85 Q 3.2,-24.55 5,-24.8 l 1.4,0.05 0.6,0.25 0.5,0.75 0.95,1.25 0.2,1.2 q 0.1,1.85 -0.55,2.8 l -0.55,0.75 q -0.25,0.45 0,1.15 0.25,0.6 0.85,0.75 L 9.5,-16 q 0.9,-0.4 1.35,-1.15 l 0.6,-1.05 0.45,-0.85 0.35,-1.5 0.05,-2.25 -0.45,-1.8 v -0.05 l 0.7,0.05 1.45,0.75 0.5,0.4 0.5,0.7 0.85,1.1 0.45,0.85 q 0.6,0.75 1.45,0.3 0.7,-0.45 0.8,-1.25 l -0.15,-1.6 -0.3,-1.05 -0.5,-0.75 -1.15,-1.2 -1.35,-1.05 q -1.05,-0.7 -3.7,-1.35 l -1.05,-0.1 -0.9,0.3 -0.4,-0.2 q -1.2,-0.55 -2.8,-0.45 l -2.7,0.5 q -2,0.5 -2.95,1.2 l -0.8,0.6 -0.85,0.9 -0.5,0.95 -0.4,0.65 -0.1,0.8 -0.25,0.8"
         fill="#a46161"
         fill-rule="evenodd"
         stroke="none"
         id="path3" />
      <path
         d="m -10.35,-20.6 0.05,0.35 q 0.45,3.05 1.05,4.2 0.9,1.75 2.95,3.45 3.1,2.5 7.15,3.65 3.9,1.1 7.95,0.8 1.95,-0.1 4.05,-0.75 2.4,-0.75 4.35,-2.3 3,-2.35 4.2,-5.6 0.8,-2.4 0.6,-4.9 0.6,2.6 0.3,5.2 -0.35,3.2 -2.25,5.9 -1.9,2.75 -4.7,4.15 -1.15,0.45 -1.4,1.05 -0.1,0.5 0.2,1 0.2,0.55 0.7,0.7 l 2.05,0.05 q 4.55,-1.25 7.7,-7 l 0.55,-0.85 0.25,0.4 0.45,0.55 -0.05,0.1 q -0.4,0.8 -0.3,2 l 0.15,0.8 -0.3,1.2 q -0.8,3 -3.7,5.5 -2.3,1.85 -5.95,3.25 -6.2,2.5 -13,3 -6.6,0.45 -10.95,-1.35 -2.6,-1.05 -4.6,-3 -1.9,-1.95 -2.75,-4.2 v -0.7 q 0.25,-1.55 0,-2.65 -0.2,-1 -0.7,-1.6 0.1,-2.05 0.75,-4.4 l 0.95,1.9 q 1.55,2.65 3.55,4.65 2.2,2.3 4.85,3.45 3.05,1.25 5.7,0.5 1.15,-0.35 1.3,-1 0.25,-0.8 -0.8,-1.55 -0.7,-0.6 -2.85,-1.65 -3.65,-1.9 -5.85,-5.1 -2.5,-3.45 -2.35,-7.15 l 0.4,-2.7 0.3,0.65 M 31.2,2.25 V 2.5 q 0.2,3.75 -1,7.35 -1.1,3.75 -3.5,6.55 -2.1,2.5 -5.95,5.1 -6,4.25 -10.6,5.4 L 6.75,27.45 3.3,27.9 0.5,28.3 -2.3,28.35 -6.25,27.3 q -6.2,-2.05 -9.6,-3.8 -5.2,-2.8 -7.9,-6.7 -2.65,-3.85 -3,-9.05 -0.25,-3.85 0.7,-7.85 l 0.35,2.6 q 0.95,4.35 3.3,8.35 l 0.45,0.75 q 2.3,3.8 5.8,6.65 3.55,2.95 8,4.6 4.45,1.7 9.1,1.85 L 7.3,24.15 Q 14.7,23 19.75,19.2 l 4.05,-3.65 2.4,-2.7 0.65,-0.75 q 2.1,-2.8 3.1,-5.2 0.95,-2.25 1.25,-4.65"
         fill="#7f4b4b"
         fill-rule="evenodd"
         stroke="none"
         id="path4" />
    </g>
    <g
       id="sprite1"
       transform="translate(17.4,15.85)">
      <use
         ffdec:characterId="31"
         height="57.200001"
         transform="matrix(0.5366,0,0,0.5366,-16.6582,-14.546)"
         width="70.75"
         xlink:href="#sprite2"
         id="use4" />
    </g>
    <g
       id="sprite2"
       transform="translate(-8.65,-10.35)">
      <use
         ffdec:characterId="30"
         height="57.200001"
         transform="translate(8.65,10.35)"
         width="70.75"
         xlink:href="#shape1"
         id="use5" />
    </g>
    <g
       id="shape1"
       transform="translate(-8.65,-10.35)">
      <path
         d="m 14.8,41.7 q 0.65,-1.75 2.65,-2.5 1.8,-0.8 3.7,-0.25 1.15,0.45 2.25,1.2 l 0.9,0.4 q 1.65,0.9 2.85,2.5 L 37.8,30.1 q 2.35,-2.8 3.75,-3.95 1.5,-1.15 4.25,-2.4 18.2,-8.85 27.65,-12.6 2.15,-0.8 3.25,-0.8 h 0.8 l 1.9,2.4 -0.2,0.8 q -0.2,1.1 -1.55,3 -5.85,8.25 -18.85,23.8 -1.85,2.35 -3.35,3.5 -1.4,1.15 -4.75,2.75 l -15.15,7.15 q 1.2,1.6 1.75,3.4 l 0.2,1 0.55,2.5 q 0.1,1.95 -1.1,3.55 -1.2,1.65 -3.05,1.9 l -1.3,0.05 q -1.65,0.2 -3.45,-0.65 -1.85,-0.9 -3,-2.6 L 25,60.95 23.8,62.1 q -2.6,2.85 -4.3,3.95 -2.85,1.8 -5.5,1.45 l -1.65,-0.5 -1.2,-0.7 -0.2,-0.2 q -1,-0.85 -1.6,-1.9 L 9.25,64 9.15,63.8 8.75,62.4 q -0.2,-0.8 -0.05,-1.7 0.25,-2.65 2.7,-5.05 1.5,-1.3 4.9,-3.15 L 17.7,51.55 16.05,50 q -1.35,-1.5 -1.8,-3.6 -0.4,-1.85 0.25,-3.45 l 0.3,-1.25"
         fill="#000000"
         fill-opacity="0.372549"
         fill-rule="evenodd"
         stroke="none"
         id="path5" />
    </g>
  </defs>
</svg>
