<?xml version="1.0" encoding="UTF-8" standalone="no"?>
<svg
   ffdec:objectType="frame"
   height="95.797012"
   width="85.131027"
   version="1.1"
   id="svg6"
   xmlns:xlink="http://www.w3.org/1999/xlink"
   xmlns="http://www.w3.org/2000/svg"
   xmlns:svg="http://www.w3.org/2000/svg"
   xmlns:ffdec="https://www.free-decompiler.com/flash">
  <g
     transform="translate(44.321469,48.45)"
     id="g1">
    <use
       ffdec:characterId="17"
       height="119.15"
       id="rarity"
       transform="translate(-58.5,-60.65)"
       width="119.15"
       xlink:href="#sprite0" />
    <use
       ffdec:characterId="529"
       height="95.800003"
       transform="translate(-44.3,-48.45)"
       width="85.099998"
       xlink:href="#shape0"
       id="use1" />
  </g>
  <defs
     id="defs6">
    <g
       id="shape0"
       transform="translate(43.9,47.65)">
      <path
         d="M 3.55,19.7 -7.4,22 l 3.55,2 q 0.7,0.35 0.65,1.15 -0.3,3.9 -4.7,3 -5.8,-1.2 -10.65,-4.55 l -0.8,0.6 q -5.6,3.8 -8.9,9.65 -0.15,1.55 -0.6,2.9 l -0.55,2.6 q 0.2,1.6 -0.1,3.25 -0.2,1.2 -1,2.25 -1.8,4.7 -7.15,2.7 Q -45.1,45 -43.7,37.2 q 0.45,-2.45 1.65,-4.65 2.65,-9.35 11.05,-14.75 2,-1.2 4.1,-1.8 -4.65,-6.05 -2.65,-13.8 0.7,-3.1 3.6,-4.75 1.5,-0.9 3.1,-0.85 5.8,1.45 4.25,7.05 6.9,-2.55 14.2,-3.8 1.15,-8.95 3.3,-17.55 0.35,-1.25 1.7,-1.7 10.95,-3.1 21.75,-6.85 l 2.1,-2.7 1.35,-1.7 8.95,-14.4 q 1.4,-2.35 3.9,-2.6 2.95,1.4 2.5,5 l -0.25,1.75 q 1.1,11.85 -2.55,23.25 -0.9,2.75 -2.45,5.25 -0.85,1.3 -2.55,1.5 l -2.6,0.3 0.1,0.45 0.4,1.55 v 0.4 l -0.05,0.6 -0.05,0.2 Q 32.95,-2.1 29.9,2.4 29,3.7 27.35,3.6 25.85,3.45 24.65,2.7 L 24.25,1.8 23.8,1 V 0.4 -0.45 l -0.1,-0.2 -0.1,-0.2 0.05,-0.65 0.2,-0.95 -0.1,-0.2 -0.25,-0.5 Q 23.4,-3.2 23.45,-3.3 V -4.15 L 23.7,-5.1 V -5.55 L 23.65,-6.1 v -0.2 l 0.35,-1 0.25,-0.4 0.55,-0.55 0.8,2.35 q 0.35,0.65 0.3,1.4 l 0.35,1.5 -0.05,1.2 0.15,0.85 q 0,0.55 0.4,0.9 l 0.1,0.05 0.25,-0.1 0.05,-0.05 0.4,-0.35 0.25,-1.4 0.25,-1.3 -0.3,-1.3 0.15,-1.4 -0.25,-0.85 0.1,-0.95 -0.2,-0.85 Q 27.35,-9.1 27.5,-9.75 L 27.35,-10.1 24.2,-9.4 19,-7.8 q -0.95,7.1 -2.7,14 -0.5,2.25 -1.45,4.35 0.75,2.15 1.05,4.55 0.15,1.05 -0.1,2.2 2.4,8.35 -0.1,16.55 -0.55,1.75 -2.4,1.75 -4.85,0.05 -5.5,-4.55 L 7.6,29.3 5.8,30.15 Q 2,29.7 1.25,25.85 q 0,-1.3 0.4,-2.55 0.25,-0.7 0.8,-1.15 L 2.65,22.05 2.9,22 3.15,21.95 Q 3.75,22.1 3.9,22.6 L 4,22.8 3.85,23.2 3.7,23.6 3.65,23.95 3.6,24.55 4.25,25.7 4.5,26.1 5.25,26.55 6.1,26.4 6.45,26.05 6.8,25.65 6.95,25.5 6.85,24.45 q -0.15,-0.5 0,-1 0.2,-0.3 0.6,-0.5 l 0.6,-0.3 0.6,0.1 q 0.3,-0.3 0.65,-0.3 l 0.3,0.2 0.2,0.2 q 0.5,1.6 0.2,3 0.3,1.75 0.25,3.65 0,1.25 0.65,2.3 l 0.1,0.1 q 0.45,0.3 1.05,0.4 l 0.25,-0.05 h 0.05 L 12.65,32.1 13,31.75 q 0.55,-1.9 0.4,-3.95 l 0.1,-2.05 -0.65,-4.8 q -0.2,-1.1 0.2,-2.15 L 12.8,15.5 q -1.5,2.1 -4.2,2.85 L 3.55,19.7 m 31.8,-45.7 0.5,-4.95 0.05,-6.05 q -2.35,4.35 -5.3,8.25 l -4.5,5.3 -1.95,1.9 q -0.65,0.55 -1.4,0.8 l -9.6,3.1 -7,2.25 -0.15,0.05 -3.05,0.95 v 0.05 Q 2.1,-5.6 -0.15,2.7 L -0.5,3.9 Q -0.75,4.8 -1.65,4.85 L -1.8,4.9 -2.5,5 l -7.15,1.35 -3.3,0.9 -6.2,1.95 q 0.5,3.1 3.15,5.75 l 0.85,0.9 3,2.65 3.75,-0.9 5.8,-1.3 2.9,-0.75 2.5,-0.6 L 7.5,13.8 8.2,13.6 8.7,12.45 8.9,12 9.55,10.75 9.65,10.6 11.2,6 l 0.6,-2 0.15,-0.6 1.85,-7.55 1.1,-6 0.2,-1.6 0.5,-0.6 0.9,-0.35 0.75,-0.25 5.8,-1.85 5,-1.1 1.3,-0.2 2.7,-0.35 H 32.1 Q 34.4,-21 35.35,-26 M 9,-8.8 l 0.1,-0.6 0.5,-1.75 0.15,-0.05 0.4,-0.05 v -0.05 l 0.7,1 0.4,1.5 -0.05,1 v 1.15 l 0.25,1.6 q 0.2,2.15 -0.15,4.35 -0.2,1.25 -0.9,2.25 L 10.3,2.05 9.55,3.55 8.4,4.7 7.65,5.25 7.45,5.35 H 6.2 L 5.05,4.95 4.6,4.65 3.95,3.55 3.75,2.9 3.8,2.7 V 2.5 L 3.85,2.35 Q 3.7,-0.9 4.65,-4.05 L 5,-4.8 q 0.4,-0.65 1.2,-0.5 l 0.15,0.05 h 0.1 q 0.1,2.45 -0.3,5 -0.2,1.05 0,2.1 L 6.2,2.05 6.45,1.95 7.5,0.7 Q 7.65,0.15 8.1,-0.25 L 8.75,-3.55 9,-5.15 Q 8.65,-6.95 9,-8.8 m -46.95,49.65 0.15,0.5 1.1,0.95 0.45,0.25 1.4,-0.05 0.05,-0.4 0.25,-0.55 0.2,-0.4 q -0.15,-3.1 0.4,-5.85 l -1.15,-0.1 q -1.05,-0.25 -1.75,-0.85 l -1,3.35 q -0.5,1.55 -0.1,3.15"
         fill="#000000"
         fill-rule="evenodd"
         stroke="none"
         id="path1" />
      <path
         d="m 30.6,-28.75 -0.95,4.4 -0.75,1.9 0.05,0.1 q 0.15,0.8 -0.15,1.6 l -0.4,1.1 0.05,0.6 V -19 l 0.05,0.85 -0.1,0.2 -0.15,0.2 -0.1,0.25 -0.1,1.6 -5,1.1 q 0,-1.5 0.85,-3.05 l 0.95,-2 0.95,-2.75 0.3,-0.85 4.5,-5.3 M 8.9,12 8.7,12.45 8.2,13.6 7.5,13.8 Q 6.8,12.45 6.8,10.95 V 9.2 L 6.7,9 6.45,8.6 6.3,8.35 6.25,7.95 V 7.1 L 6.05,6.65 5.9,6 Q 5.9,5.65 6.15,5.4 L 6.2,5.35 h 1.25 l 0.2,-0.1 Q 8.1,5.7 8.2,6.35 L 8.25,7.2 Q 9,8.5 8.8,10 L 8.75,11.7 8.9,12 M 2.8,14.95 0.3,15.55 -0.3,13.05 -0.6,11.6 -0.85,9.35 V 9 L -0.9,8.9 -1.5,6.85 -1.6,5.35 -1.7,5.15 -1.8,4.9 -1.65,4.85 Q -0.75,4.8 -0.5,3.9 L -0.15,2.7 0.15,2.8 0.5,3 1.4,6.5 2,9.3 l 0.6,4.2 0.05,0.45 0.15,1 m 0.15,-29.3 v -0.05 l 3.05,-0.95 0.05,0.2 0.2,4.7 q 0,1.3 0.4,2.6 L 6.45,-6 6.4,-5.95 6.35,-5.25 6.2,-5.3 Q 5.4,-5.45 5,-4.8 l -0.5,-1.95 -0.35,-2 -0.9,-4 -0.3,-1.6 M -35.1,35.2 q 0.65,1.6 -0.3,3.5 -0.6,1.15 -1.7,1.9 l -0.85,0.25 q -0.4,-1.6 0.1,-3.15 l 1,-3.35 q 0.7,0.6 1.75,0.85"
         fill="#ffffff"
         fill-rule="evenodd"
         stroke="none"
         id="path2" />
      <path
         d="M 24.25,-7.7 24.2,-8.6 v -0.8 l 3.15,-0.7 0.15,0.35 q -0.15,0.65 0.05,1.2 l 0.2,0.85 -0.1,0.95 0.25,0.85 -0.15,1.4 0.3,1.3 -0.25,1.3 -0.25,1.4 -0.4,0.35 -0.05,0.05 -0.35,0.05 q -0.4,-0.35 -0.4,-0.9 L 26.2,-1.8 26.25,-3 25.9,-4.5 q 0.05,-0.75 -0.3,-1.4 L 24.8,-8.25 24.25,-7.7 M 2.9,22 2.95,21.4 Q 3.1,20.5 3.55,19.7 L 8.6,18.35 q 2.7,-0.75 4.2,-2.85 l 0.25,3.3 q -0.4,1.05 -0.2,2.15 l 0.65,4.8 -0.1,2.05 q 0.15,2.05 -0.4,3.95 l -0.35,0.35 -0.3,0.15 H 12.3 L 11,31.9 10.9,31.8 Q 10.25,30.75 10.25,29.5 10.3,27.6 10,25.85 q 0.3,-1.4 -0.2,-3 l -0.2,-0.2 -0.3,-0.2 q -0.35,0 -0.65,0.3 l -0.6,-0.1 -0.6,0.3 q -0.4,0.2 -0.6,0.5 -0.15,0.5 0,1 L 6.95,25.5 6.8,25.65 6.45,26.05 6.1,26.4 5.25,26.55 4.5,26.1 4.25,25.7 3.6,24.55 3.65,23.95 3.7,23.6 3.85,23.2 4,22.8 3.9,22.6 Q 3.75,22.1 3.15,21.95 L 2.9,22 m 26.05,-44.35 q 1.45,-2.7 4.25,-4.1 l 0.5,-0.05 v -0.05 l 1.65,0.55 q -0.95,5 -3.25,9.55 h -0.05 l -2.7,0.35 -1.3,0.2 0.1,-1.6 0.1,-0.25 0.15,-0.2 0.1,-0.2 -0.05,-0.85 v -0.05 l -0.05,-0.6 0.4,-1.1 q 0.3,-0.8 0.15,-1.6 m -5.9,7.55 -5.8,1.85 -0.75,0.25 -0.9,0.35 -0.5,0.6 -0.2,1.6 -1.1,6 L 11.95,3.4 11.8,4 11.2,6 9.65,10.6 9.55,10.75 8.9,12 8.75,11.7 8.8,10 Q 9,8.5 8.25,7.2 L 8.2,6.35 Q 8.1,5.7 7.65,5.25 L 8.4,4.7 9.55,3.55 10.3,2.05 10.4,1.55 q 0.7,-1 0.9,-2.25 0.35,-2.2 0.15,-4.35 L 11.2,-6.65 V -7.8 l 0.05,-1 -0.4,-1.5 0.2,-0.65 q 1,-2.45 3.7,-2.85 l 1.7,0.35 v -0.15 q 1.75,-5.5 7.8,-6.2 l 0.6,-0.05 -0.95,2 q -0.85,1.55 -0.85,3.05 M 7.5,13.8 2.8,14.95 2.65,13.95 2.6,13.5 2,9.3 1.4,6.5 2,6.3 Q 3.25,6.2 4.2,6.85 L 4.85,5.3 5.05,4.95 6.2,5.35 6.15,5.4 Q 5.9,5.65 5.9,6 L 6.05,6.65 6.25,7.1 V 7.95 L 6.3,8.35 6.45,8.6 6.7,9 6.8,9.2 v 1.75 q 0,1.5 0.7,2.85 m -7.2,1.75 -2.9,0.75 -5.8,1.3 -3.75,0.9 -3,-2.65 q 0.05,-2.8 3.05,-4.45 5.5,-3 11.2,-2.5 L -0.85,9 v 0.35 l 0.25,2.25 0.3,1.45 0.6,2.5 M -9.65,6.35 -2.5,5 Q -2.9,8.4 -7.15,7.95 -8.45,7.85 -9.5,7.15 L -9.6,6.9 -9.65,6.5 V 6.35 m 15.8,-21.75 7,-2.25 q 0.3,1.2 -0.6,3.05 -0.5,1.05 -1.6,1.55 -3.9,1.75 -4.85,-2.25 l 0.05,-0.1 m 0.3,9.4 1,-2.65 0.4,-0.2 L 8.45,-9 9,-8.8 q -0.35,1.85 0,3.65 l -0.25,1.6 -0.65,3.3 Q 7.65,0.15 7.5,0.7 L 6.45,1.95 6.15,1.85 q -0.2,-1.05 0,-2.1 0.4,-2.55 0.3,-5 H 6.35 L 6.4,-5.95 6.45,-6"
         fill="#765656"
         fill-rule="evenodd"
         stroke="none"
         id="path3" />
      <path
         d="m 30.6,-28.75 q 2.95,-3.9 5.3,-8.25 l -0.05,6.05 -0.5,4.95 -1.65,-0.55 v 0.05 l -0.5,0.05 q -2.8,1.4 -4.25,4.1 l -0.05,-0.1 0.75,-1.9 0.95,-4.4 M -15.15,15.85 -16,14.95 Q -18.65,12.3 -19.15,9.2 l 6.2,-1.95 3.3,-0.9 V 6.5 l 0.05,0.4 0.1,0.25 q 1.05,0.7 2.35,0.8 Q -2.9,8.4 -2.5,5 l 0.7,-0.1 0.1,0.25 0.1,0.2 0.1,1.5 0.6,2.05 q -5.7,-0.5 -11.2,2.5 -3,1.65 -3.05,4.45 m 15,-13.15 q 2.25,-8.3 3.1,-17.05 l 0.3,1.6 0.9,4 0.35,2 L 5,-4.8 4.65,-4.05 Q 3.7,-0.9 3.85,2.35 L 3.8,2.5 V 2.7 L 3.75,2.9 3.95,3.55 4.6,4.65 5.05,4.95 4.85,5.3 4.2,6.85 Q 3.25,6.2 2,6.3 L 1.4,6.5 0.5,3 0.15,2.8 -0.15,2.7 M 6,-15.35 6.15,-15.4 6.1,-15.3 q 0.95,4 4.85,2.25 1.1,-0.5 1.6,-1.55 0.9,-1.85 0.6,-3.05 l 9.6,-3.1 q 0.75,-0.25 1.4,-0.8 l 1.95,-1.9 -0.3,0.85 -0.95,2.75 -0.6,0.05 q -6.05,0.7 -7.8,6.2 v 0.15 l -1.7,-0.35 q -2.7,0.4 -3.7,2.85 l -0.2,0.65 -0.7,-1 v 0.05 L 9.75,-11.2 9.6,-11.15 9.1,-9.4 9,-8.8 8.45,-9 l -0.6,0.15 -0.4,0.2 -1,2.65 0.2,-1.85 q -0.4,-1.3 -0.4,-2.6 l -0.2,-4.7 -0.05,-0.2"
         fill="#a77a7a"
         fill-rule="evenodd"
         stroke="none"
         id="path4" />
      <path
         d="m -35.1,35.2 1.15,0.1 q -0.55,2.75 -0.4,5.85 l -0.2,0.4 -0.25,0.55 -0.05,0.4 -1.4,0.05 -0.45,-0.25 -1.1,-0.95 -0.15,-0.5 0.85,-0.25 q 1.1,-0.75 1.7,-1.9 0.95,-1.9 0.3,-3.5"
         fill="#848484"
         fill-rule="evenodd"
         stroke="none"
         id="path5" />
    </g>
    <g
       id="sprite1"
       transform="translate(17.4,15.85)">
      <use
         ffdec:characterId="31"
         height="57.200001"
         transform="matrix(0.5366,0,0,0.5366,-16.6582,-14.546)"
         width="70.75"
         xlink:href="#sprite2"
         id="use5" />
    </g>
    <g
       id="sprite2"
       transform="translate(-8.65,-10.35)">
      <use
         ffdec:characterId="30"
         height="57.200001"
         transform="translate(8.65,10.35)"
         width="70.75"
         xlink:href="#shape1"
         id="use6" />
    </g>
    <g
       id="shape1"
       transform="translate(-8.65,-10.35)">
      <path
         d="m 14.8,41.7 q 0.65,-1.75 2.65,-2.5 1.8,-0.8 3.7,-0.25 1.15,0.45 2.25,1.2 l 0.9,0.4 q 1.65,0.9 2.85,2.5 L 37.8,30.1 q 2.35,-2.8 3.75,-3.95 1.5,-1.15 4.25,-2.4 18.2,-8.85 27.65,-12.6 2.15,-0.8 3.25,-0.8 h 0.8 l 1.9,2.4 -0.2,0.8 q -0.2,1.1 -1.55,3 -5.85,8.25 -18.85,23.8 -1.85,2.35 -3.35,3.5 -1.4,1.15 -4.75,2.75 l -15.15,7.15 q 1.2,1.6 1.75,3.4 l 0.2,1 0.55,2.5 q 0.1,1.95 -1.1,3.55 -1.2,1.65 -3.05,1.9 l -1.3,0.05 q -1.65,0.2 -3.45,-0.65 -1.85,-0.9 -3,-2.6 L 25,60.95 23.8,62.1 q -2.6,2.85 -4.3,3.95 -2.85,1.8 -5.5,1.45 l -1.65,-0.5 -1.2,-0.7 -0.2,-0.2 q -1,-0.85 -1.6,-1.9 L 9.25,64 9.15,63.8 8.75,62.4 q -0.2,-0.8 -0.05,-1.7 0.25,-2.65 2.7,-5.05 1.5,-1.3 4.9,-3.15 L 17.7,51.55 16.05,50 q -1.35,-1.5 -1.8,-3.6 -0.4,-1.85 0.25,-3.45 l 0.3,-1.25"
         fill="#000000"
         fill-opacity="0.372549"
         fill-rule="evenodd"
         stroke="none"
         id="path6" />
    </g>
  </defs>
</svg>
