<?xml version="1.0" encoding="UTF-8" standalone="no"?>
<svg
   ffdec:objectType="frame"
   height="52.74065"
   width="49.680405"
   version="1.1"
   id="svg5"
   xmlns:xlink="http://www.w3.org/1999/xlink"
   xmlns="http://www.w3.org/2000/svg"
   xmlns:svg="http://www.w3.org/2000/svg"
   xmlns:ffdec="https://www.free-decompiler.com/flash">
  <g
     transform="translate(22.925926,29.4)"
     id="g1">
    <use
       ffdec:characterId="17"
       height="119.15"
       id="rarity"
       transform="translate(-58.5,-60.65)"
       width="119.15"
       xlink:href="#sprite0" />
    <use
       ffdec:characterId="920"
       height="52.75"
       transform="translate(-22.95,-29.4)"
       width="49.700001"
       xlink:href="#shape0"
       id="use1" />
  </g>
  <defs
     id="defs5">
    <g
       id="shape0"
       transform="translate(69.75,30.75)">
      <path
         d="m -53.65,-20 0.55,-0.65 -1.3,0.25 -5,1.35 q -2.25,0.7 -4.15,1.9 0.9,5.4 1.05,10.95 l 0.5,7.95 0.1,1.2 0.3,4.15 0.05,2.6 3.4,-0.65 0.1,-1.4 0.1,-5.6 0.2,-1.1 0.85,-0.7 0.2,-0.1 q 2.5,-0.9 5,-1 l 4.3,-0.05 q 1.9,-0.1 3.55,0.65 l 0.25,0.25 0.3,0.4 0.1,0.2 0.1,0.2 v 0.25 0.4 l -0.05,0.2 V 1.9 l -0.2,0.65 -0.2,0.4 V 3.6 4.25 l -0.15,2.05 1.35,-0.25 8.5,-0.6 q 1.25,-0.9 2.75,-1.05 -0.35,-2.3 -0.2,-4.55 0.1,-1.45 0.65,-2.75 l 0.3,-2.8 -8.75,1.6 -0.3,0.15 q -1.95,1.1 -3.95,0.45 l -1.15,-3.6 -0.85,-3.85 -0.05,-0.35 q -0.45,-3.1 0.25,-6.05 0.25,-1.05 1.35,-1.45 l 10.25,-2.85 0.15,-0.15 q 0.75,-0.8 1.65,-1.2 l -0.05,-0.15 q -0.45,-1.75 -0.35,-3.4 -6.55,2.3 -13.25,4.1 l -1.3,1.1 -3.1,2.7 -1.2,1.35 q -1.85,2.35 -4.2,4.15 l -0.15,0.25 -0.1,0.2 -0.1,0.2 -0.3,0.2 -0.4,0.15 -0.5,-0.15 -0.25,-0.2 -0.25,-0.45 -0.25,-0.85 q 0.4,-1.8 1.6,-3.2 l 1,-1.5 1.25,-1.5 m 20.1,-10.75 2.4,0.45 q 0.3,-0.35 0.9,-0.35 l 1,0.8 0.85,0.6 0.15,0.45 v 0.05 q 1.1,1.55 1.5,3.8 l 0.1,1.3 q 2.55,-0.25 4.7,1 1.15,0.65 1.4,2.05 1.3,7.05 -0.75,13.65 -0.2,0.55 -0.95,0.6 l -4.05,0.25 v 0.2 q 0.85,3.95 1.1,8.1 0.25,3.15 -1.15,5.9 -0.95,2 -3.25,2.45 l -1.65,0.15 q -1.35,0.85 -3.85,0.75 l -1.7,0.05 -5.8,0.7 -0.05,0.45 q -0.35,3.85 -1.1,7.65 -0.15,0.85 -0.95,1.25 l -1.7,0.25 -7,-0.2 q -4.85,1.55 -5.15,-3.05 l -0.1,-2.65 -1.95,0.6 -3.05,0.55 q -4.7,0.1 -4.25,-4.75 0.4,-4.6 -0.05,-9.2 l -0.95,-12.45 -0.1,-4.7 q -2.8,-7.7 5.2,-10.15 11.65,-3.5 23.7,-5.5 l 6.55,-1.05 m 3.8,11.9 q -4.85,0.8 -9.5,2.45 -1.45,0.5 -2.45,1.35 0.45,1.25 0.55,2.55 l 0.45,2.35 q 0.3,1.05 0.15,2.15 l 10.25,-1.85 0.05,-2.05 q 0.15,-0.95 0.8,-1.65 l 0.35,-0.2 0.6,-0.15 0.55,0.1 q 0.8,1.6 1.25,3.25 l 2.4,-0.45 -0.15,-2.55 q 0,-1.2 -0.15,-2.4 l -0.4,-2.55 -4.75,-0.35 m -21.6,21.65 -2.6,0.5 -0.6,0.25 0.05,1.9 q 0.15,1.5 -0.05,2.9 l 8.35,-1.6 -0.25,-0.45 -0.1,-0.4 V 5.65 L -46.7,3.75 V 3.3 q -1.15,-0.5 -3,-0.5 h -1.65 m -3.7,14.65 v 0.25 l 8.1,-0.45 v -0.4 -0.25 l 0.1,-1.45 0.15,-0.45 -0.05,-1.75 V 12.9 l -8.3,1.9 v 2.65"
         fill="#000000"
         fill-rule="evenodd"
         stroke="none"
         id="path1" />
      <path
         d="m -29.75,-18.85 4.75,0.35 0.4,2.55 q 0.15,1.2 0.15,2.4 l 0.15,2.55 -2.4,0.45 q -0.45,-1.65 -1.25,-3.25 l -0.55,-0.1 -0.6,0.15 -0.35,0.2 q -0.65,0.7 -0.8,1.65 L -30.3,-9.85 -40.55,-8 q 0.15,-1.1 -0.15,-2.15 l -0.45,-2.35 q -0.1,-1.3 -0.55,-2.55 1,-0.85 2.45,-1.35 4.65,-1.65 9.5,-2.45 M -51.35,2.8 h 1.65 q 1.85,0 3,0.5 v 0.45 l 0.15,1.9 V 5.9 l 0.1,0.4 0.25,0.45 -8.35,1.6 q 0.2,-1.4 0.05,-2.9 l -0.05,-1.9 0.6,-0.25 2.6,-0.5 m -3.7,14.65 V 14.8 l 8.3,-1.9 v 0.05 l 0.05,1.75 -0.15,0.45 -0.1,1.45 v 0.25 0.4 l -8.1,0.45 v -0.25"
         fill="#c4c4c4"
         fill-rule="evenodd"
         stroke="none"
         id="path2" />
      <path
         d="M -61.9,2.95 -62,1.75 -62.5,-6.2 q -0.15,-5.55 -1.05,-10.95 1.9,-1.2 4.15,-1.9 l 5,-1.35 1.3,-0.25 -0.55,0.65 -1.5,-0.15 q -3.15,0.45 -5.55,2.9 -3.35,3.45 -1.5,7.4 -0.4,1.4 -0.05,2.75 1,3.65 4.9,3.75 8.1,0.3 9.6,-7.3 1.15,-5.75 -2.05,-8 l 3.1,-2.7 1.3,-1.1 q 6.7,-1.8 13.25,-4.1 -0.1,1.65 0.35,3.4 l 0.05,0.15 q -0.9,0.4 -1.65,1.2 l -0.15,0.15 -10.25,2.85 q -1.1,0.4 -1.35,1.45 -0.7,2.95 -0.25,6.05 -1.9,0.6 -1.6,2.85 0.1,1 1,1.15 l 1.5,0.2 1.15,3.6 q 2,0.65 3.95,-0.45 l 0.3,-0.15 8.75,-1.6 -0.3,2.8 q -0.55,1.3 -0.65,2.75 -0.15,2.25 0.2,4.55 -1.5,0.15 -2.75,1.05 l -8.5,0.6 -1.35,0.25 0.15,-2.05 V 3.6 2.95 l 0.2,-0.4 0.2,-0.65 V 1.65 l 0.05,-0.2 V 1.05 0.8 L -43.2,0.6 -43.3,0.4 -43.6,0 -43.85,-0.25 Q -45.5,-1 -47.4,-0.9 l -4.3,0.05 q -2.5,0.1 -5,1 l -0.2,0.1 -0.15,-0.05 -1.35,-0.3 q -2.1,0.75 -3.35,2.8 l -0.15,0.25 m 0.3,4.15 2.4,0.4 1.15,0.15 -0.1,1.4 -3.4,0.65 -0.05,-2.6"
         fill="#939393"
         fill-rule="evenodd"
         stroke="none"
         id="path3" />
      <path
         d="m -61.9,2.95 0.15,-0.25 q 1.25,-2.05 3.35,-2.8 l 1.35,0.3 0.15,0.05 -0.85,0.7 -0.2,1.1 -0.1,5.6 L -59.2,7.5 -61.6,7.1 -61.9,2.95 M -44.5,-7.1 -46,-7.3 q -0.9,-0.15 -1,-1.15 -0.3,-2.25 1.6,-2.85 l 0.05,0.35 0.85,3.85 m -5.3,-11.55 q 3.2,2.25 2.05,8 -1.5,7.6 -9.6,7.3 -3.9,-0.1 -4.9,-3.75 -0.35,-1.35 0.05,-2.75 -1.85,-3.95 1.5,-7.4 2.4,-2.45 5.55,-2.9 l 1.5,0.15 -1.25,1.5 -1,1.5 q -1.2,1.4 -1.6,3.2 l 0.25,0.85 0.25,0.45 0.25,0.2 0.5,0.15 0.4,-0.15 0.3,-0.2 0.1,-0.2 0.1,-0.2 0.15,-0.25 q 2.35,-1.8 4.2,-4.15 l 1.2,-1.35"
         fill="#7d5959"
         fill-rule="evenodd"
         stroke="none"
         id="path4" />
    </g>
    <g
       id="sprite1"
       transform="translate(17.4,15.85)">
      <use
         ffdec:characterId="31"
         height="57.200001"
         transform="matrix(0.5366,0,0,0.5366,-16.6582,-14.546)"
         width="70.75"
         xlink:href="#sprite2"
         id="use4" />
    </g>
    <g
       id="sprite2"
       transform="translate(-8.65,-10.35)">
      <use
         ffdec:characterId="30"
         height="57.200001"
         transform="translate(8.65,10.35)"
         width="70.75"
         xlink:href="#shape1"
         id="use5" />
    </g>
    <g
       id="shape1"
       transform="translate(-8.65,-10.35)">
      <path
         d="m 14.8,41.7 q 0.65,-1.75 2.65,-2.5 1.8,-0.8 3.7,-0.25 1.15,0.45 2.25,1.2 l 0.9,0.4 q 1.65,0.9 2.85,2.5 L 37.8,30.1 q 2.35,-2.8 3.75,-3.95 1.5,-1.15 4.25,-2.4 18.2,-8.85 27.65,-12.6 2.15,-0.8 3.25,-0.8 h 0.8 l 1.9,2.4 -0.2,0.8 q -0.2,1.1 -1.55,3 -5.85,8.25 -18.85,23.8 -1.85,2.35 -3.35,3.5 -1.4,1.15 -4.75,2.75 l -15.15,7.15 q 1.2,1.6 1.75,3.4 l 0.2,1 0.55,2.5 q 0.1,1.95 -1.1,3.55 -1.2,1.65 -3.05,1.9 l -1.3,0.05 q -1.65,0.2 -3.45,-0.65 -1.85,-0.9 -3,-2.6 L 25,60.95 23.8,62.1 q -2.6,2.85 -4.3,3.95 -2.85,1.8 -5.5,1.45 l -1.65,-0.5 -1.2,-0.7 -0.2,-0.2 q -1,-0.85 -1.6,-1.9 L 9.25,64 9.15,63.8 8.75,62.4 q -0.2,-0.8 -0.05,-1.7 0.25,-2.65 2.7,-5.05 1.5,-1.3 4.9,-3.15 L 17.7,51.55 16.05,50 q -1.35,-1.5 -1.8,-3.6 -0.4,-1.85 0.25,-3.45 l 0.3,-1.25"
         fill="#000000"
         fill-opacity="0.372549"
         fill-rule="evenodd"
         stroke="none"
         id="path5" />
    </g>
  </defs>
</svg>
