<?xml version="1.0" encoding="UTF-8" standalone="no"?>
<svg
   ffdec:objectType="frame"
   height="66.610992"
   width="80.412537"
   version="1.1"
   id="svg4"
   sodipodi:docname="ITEM Leafy Mask.svg"
   xmlns:inkscape="http://www.inkscape.org/namespaces/inkscape"
   xmlns:sodipodi="http://sodipodi.sourceforge.net/DTD/sodipodi-0.dtd"
   xmlns:xlink="http://www.w3.org/1999/xlink"
   xmlns="http://www.w3.org/2000/svg"
   xmlns:svg="http://www.w3.org/2000/svg"
   xmlns:ffdec="https://www.free-decompiler.com/flash">
  <sodipodi:namedview
     id="namedview4"
     pagecolor="#ffffff"
     bordercolor="#000000"
     borderopacity="0.25"
     inkscape:showpageshadow="2"
     inkscape:pageopacity="0.0"
     inkscape:pagecheckerboard="0"
     inkscape:deskcolor="#d1d1d1"
     fit-margin-top="5"
     fit-margin-left="5"
     fit-margin-right="5"
     fit-margin-bottom="5" />
  <g
     transform="translate(39.368421,34.669565)"
     id="g1">
    <use
       ffdec:characterId="17"
       height="119.15"
       id="rarity"
       transform="translate(-58.5,-60.65)"
       width="119.15"
       xlink:href="#sprite0" />
    <use
       ffdec:characterId="981"
       height="66.599998"
       transform="translate(-39.35,-34.65)"
       width="80.400002"
       xlink:href="#shape0"
       id="use1" />
  </g>
  <defs
     id="defs4">
    <g
       id="shape0"
       transform="translate(86.15,36)">
      <path
         d="m -47,-35.95 q 6.85,-0.4 13.3,1.5 2.4,0.75 2.25,3.15 l -0.1,0.2 -0.1,0.25 -0.1,0.2 -0.15,0.2 -0.15,0.25 -0.1,0.2 -0.75,3 -2.55,10.35 q 1.8,-0.85 4.1,-1.15 2,-0.25 3.95,-0.95 6.95,-2.45 13.9,-4.15 3.35,1.7 2.2,6.05 -0.6,2.4 -0.8,4.85 4.5,2.5 6.2,6.85 0.35,0.8 -0.15,1.55 -1.85,2.9 -5.15,4.15 -1,0.4 -1.8,1.15 -0.2,6.25 -1.1,12.35 -0.1,0.8 -0.9,0.8 -7.9,0.35 -15.6,-1.45 l -5.15,-1.45 2.25,12.7 q 0.7,3.3 -1.9,5.35 -1.15,0.95 -2.55,0.25 L -46.4,26 Q -51,28.1 -55.65,30.35 -57,31 -58,29.9 l -2.75,-3.2 q -1.3,-1.6 -1.8,-3.65 L -72.6,24.3 q -0.75,0.05 -1,-0.75 -0.85,-3.3 1.25,-6.5 l 5.3,-8.2 -16.05,3.3 q -0.9,0.2 -1.25,-0.7 -1.25,-3 0.1,-6.3 1.8,-4.55 5.25,-8.2 -4,-1.65 -6.85,-4.55 -0.55,-0.6 -0.15,-1.35 1.35,-2.45 4.1,-3.9 l 5.55,-3 q -2.4,-4.75 -2.8,-9.9 -0.05,-1.05 1,-1.4 L -70,-27.4 q 10.5,2.45 20,7.2 l -0.3,-2.85 q -0.3,-6 1.35,-11.5 0.3,-1 1.4,-1.3 l 0.55,-0.1 m 5.75,5.35 -3.5,0.15 v 0.6 q -0.2,7.05 0.1,14 0.1,1.9 -1,2.5 l -2.1,0.2 q -2.1,-0.35 -4,-1.35 -10.1,-5.2 -20.75,-6.7 l 1.15,2.75 q 1.9,6.2 -4.5,8.6 -1.15,0.45 -2.15,1.1 1.95,1.35 3.95,3.6 3.15,3.5 -1.3,6.3 L -76.6,2.2 q -1.35,1.45 -1.7,3.4 l 19,-3.75 q 0.55,-0.1 0.8,0.4 1.85,3.3 -1.5,6.2 -1.2,1.05 -2.05,2.4 l -4.3,7 q 3.15,-0.35 6.8,0.8 0.7,0.2 1.1,0.95 1.35,2.65 3.1,5.05 l 5.1,-2.8 q 2.2,-1.45 4.55,-1.05 1.75,0.3 3.35,1.25 l 3.05,1.75 -2.15,-14.4 -0.15,-0.9 0.2,-0.8 0.3,-0.85 q 1.2,-2.15 4.75,-1.1 8.9,2.7 18.05,4.25 -0.65,-6.15 1.5,-11.5 l 0.5,-0.55 4.5,-3 q -3.3,-2 -5,-4.9 -0.5,-0.85 0.15,-1.75 l 0.05,-3.45 0.6,-2.35 q -10.95,3.85 -22.25,5.75 l -0.75,-0.7 -0.35,-0.85 -0.05,-0.2 0.1,-0.1 0.3,-0.35 -0.05,-0.1 -0.05,-0.2 v -0.1 l -0.15,-1.2 0.15,-0.65 v -0.2 -0.25 l -0.05,-0.4 -0.1,-0.65 0.15,-1.3 0.35,-1.05 v -0.45 l 0.2,-2.15 0.85,-4.3 0.5,-1.05 0.05,-0.2 v -0.25 l 0.05,-0.4 0.05,-0.2 0.2,-0.45 0.15,-0.35 -0.2,-0.1 -4.35,-0.65 m -12.9,24.45 -0.2,-0.15 q -1.35,-0.9 -1.8,-2.3 l 0.25,-0.65 0.55,-0.4 0.35,-0.1 q 4.4,1.45 8.3,4 l 0.2,0.1 0.4,0.3 0.7,0.7 1.75,-1 1.95,-0.65 1.05,-0.25 4.7,-0.7 2.75,0.2 0.95,0.2 0.15,0.25 0.05,0.2 0.05,0.2 0.05,0.25 -0.05,0.2 v 0.1 l -0.1,0.1 -0.1,0.2 -0.25,0.25 -2.3,0.25 q -3.15,0.5 -6.05,1.85 l -1.7,0.85 q -1.05,0.55 -2.05,0.7 h -0.05 l -0.45,0.05 -0.6,0.9 -1.05,1.25 -0.85,2.5 -0.05,0.15 -0.8,1.45 -0.05,0.4 -0.4,0.85 -0.2,0.25 q -0.15,1.45 -0.8,2.8 l -0.65,1.9 -0.15,0.2 -0.2,0.25 -0.2,0.2 -0.05,0.2 -0.2,0.4 -0.4,0.45 V 13 l -0.05,0.2 v 0.2 l -0.15,0.2 -0.4,0.45 -0.25,0.2 -0.05,0.25 -0.05,0.2 -0.1,0.2 -0.4,0.45 q -0.45,0.6 -1.05,0.25 l -0.2,-0.2 -0.05,-0.2 0.05,-0.2 0.05,-0.25 0.15,-0.2 0.15,-0.2 v -0.2 l -0.05,-0.25 -0.05,-0.2 1.35,-4.1 q 0.45,-1.25 0.6,-2.55 l 0.15,-0.2 0.25,-0.45 0.05,-0.2 0.1,-0.85 0.2,-0.9 0.4,-1.35 0.3,-0.65 0.55,-1 v -0.2 l 0.05,-0.2 0.05,-0.25 0.35,-0.85 0.6,-1.35 -0.1,-0.1 -0.35,-0.35 -0.45,-0.5 q -1.75,-2.2 -4.1,-3.8"
         fill="#000000"
         fill-rule="evenodd"
         stroke="none"
         id="path1" />
      <path
         d="m -44.75,-29.85 q 0.5,-0.6 1.6,-0.65 l 1.9,-0.1 4.35,0.65 0.2,0.1 -0.15,0.35 -0.2,0.45 -0.05,0.2 -0.05,0.4 v 0.25 l -0.05,0.2 -0.5,1.05 -0.85,4.3 -0.2,2.15 v 0.45 l -0.35,1.05 -0.15,1.3 0.1,0.65 0.05,0.4 v 0.25 0.2 l -0.15,0.65 0.15,1.2 -0.2,0.75 -0.1,0.1 0.05,0.2 -1.7,5.5 q 6.85,-1.85 14,-2.15 l 2.35,-0.15 1.6,0.35 0.55,0.35 0.05,0.25 -0.1,0.45 -0.35,0.55 -9.05,2.5 v -0.1 l 0.05,-0.2 -0.05,-0.25 -0.05,-0.2 -0.05,-0.2 -0.15,-0.25 -0.95,-0.2 -2.75,-0.2 -4.7,0.7 -1.05,0.25 -1.95,0.65 -1.75,1 -0.7,-0.7 -0.4,-0.3 -0.2,-0.1 q -3.9,-2.55 -8.3,-4 l -0.35,0.1 -0.55,0.4 -0.25,0.65 q 0.45,1.4 1.8,2.3 l 0.2,0.15 -0.35,-0.2 Q -55.75,-7 -56.7,-7.9 l -4.25,-1.95 -1.75,-0.65 -0.9,-0.75 -0.55,-0.5 -0.15,-0.5 -0.05,-0.25 v -0.25 l 0.05,-0.25 0.45,-0.4 0.45,-0.2 0.1,-0.05 q 8.4,2.15 16.55,5.15 l 0.3,0.15 q 0.05,-0.95 0.5,-1.75 l 0.3,-3.25 q 1.1,-0.6 1,-2.5 -0.3,-6.95 -0.1,-14 m -4.85,28 0.35,0.35 0.1,0.1 -0.6,1.35 -0.35,0.85 -0.05,0.25 -0.05,0.2 v 0.2 l -0.55,1 -0.3,0.65 -0.4,1.35 -0.2,0.9 -0.1,0.85 -0.05,0.2 -0.25,0.45 -0.15,0.2 q -0.15,1.3 -0.6,2.55 l -1.35,4.1 0.05,0.2 0.05,0.25 v 0.2 l -0.15,0.2 -0.15,0.2 -0.05,0.25 -0.05,0.2 0.05,0.2 0.2,0.2 q 0.6,0.35 1.05,-0.25 l 0.4,-0.45 0.1,-0.2 0.05,-0.2 0.05,-0.25 0.25,-0.2 0.4,-0.45 0.15,-0.2 V 13.2 L -51.7,13 v -0.25 l 0.4,-0.45 0.2,-0.4 0.05,-0.2 0.2,-0.2 0.2,-0.25 0.15,-0.2 0.65,-1.9 q 0.65,-1.35 0.8,-2.8 l 0.2,-0.25 0.4,-0.85 0.05,-0.4 0.8,-1.45 0.05,-0.15 0.85,-2.5 1.05,-1.25 0.6,-0.9 0.45,-0.05 h 0.05 v 0.05 l 0.05,0.65 -0.2,1.75 q 0.8,2.55 0.5,5.25 l -0.35,2.75 0.1,0.25 0.05,0.25 0.1,0.25 -0.05,0.5 -0.1,1 v 0.25 l 0.1,0.25 0.05,0.25 0.1,0.25 -0.1,1.75 q 0.05,1.05 -0.85,1.4 L -45.55,15.2 -45.8,15 -45.9,14.75 -46,14 -45.95,12.5 Q -46.9,9.85 -47.1,7 l -0.05,-1.85 -0.3,1 -1,1.7 -0.15,0.75 q -0.15,0.85 -0.8,1.5 l -0.45,2 q -0.15,0.95 -0.8,1.75 -0.75,2.45 -1.85,4.8 l -1.2,2.45 -0.15,0.75 q -0.15,0.9 -0.85,1.4 l -0.35,0.05 q -0.55,0.05 -0.85,-0.4 l -0.15,-0.25 -0.05,-0.45 0.2,-1.05 0.1,-0.25 -0.05,-0.2 v -0.3 l -0.05,-0.25 0.1,-0.25 0.1,-0.25 0.1,-1.45 0.4,-2.05 0.1,-0.2 0.2,-0.3 0.1,-0.25 0.9,-3.5 0.85,-2.25 1.25,-4.2 -2,1.7 -0.1,0.25 -0.1,0.25 -0.15,0.25 q -1.55,1.15 -3,2.5 l -0.65,0.5 -0.1,0.25 -0.2,0.25 -0.2,0.2 -0.1,0.05 -0.3,0.05 -0.4,-0.15 -0.35,-0.45 0.1,-0.5 0.05,-0.75 V 9.6 l 0.1,-0.25 0.15,-0.25 0.5,-0.5 q 0.15,-0.75 0.65,-1.3 l 1.2,-0.95 q 2.55,-3.65 5.6,-6.8 l 1.5,-1.4 M -40.8,-3 q 2.9,-1.35 6.05,-1.85 l -3.3,1.1 -2.75,0.75"
         fill="#535b51"
         fill-rule="evenodd"
         stroke="none"
         id="path2" />
      <path
         d="m -45.65,-13.35 -0.3,3.25 q -0.45,0.8 -0.5,1.75 l -0.3,-0.15 q -8.15,-3 -16.55,-5.15 l -0.1,0.05 -0.45,0.2 -0.45,0.4 -0.05,0.25 v 0.25 l 0.05,0.25 0.15,0.5 0.55,0.5 0.9,0.75 1.75,0.65 4.25,1.95 q 0.95,0.9 2.2,1.55 l 0.35,0.2 q 2.35,1.6 4.1,3.8 l 0.45,0.5 -1.5,1.4 q -3.05,3.15 -5.6,6.8 l -1.2,0.95 q -0.5,0.55 -0.65,1.3 l -0.5,0.5 -0.15,0.25 -0.1,0.25 v 0.25 l -0.05,0.75 -0.1,0.5 0.35,0.45 0.4,0.15 0.3,-0.05 0.1,-0.05 0.2,-0.2 0.2,-0.25 0.1,-0.25 0.65,-0.5 q 1.45,-1.35 3,-2.5 l 0.15,-0.25 0.1,-0.25 0.1,-0.25 2,-1.7 -1.25,4.2 -0.85,2.25 -0.9,3.5 -0.1,0.25 -0.2,0.3 -0.1,0.2 -0.4,2.05 -0.1,1.45 -0.1,0.25 -0.1,0.25 0.05,0.25 v 0.3 l 0.05,0.2 -0.1,0.25 -0.2,1.05 0.05,0.45 0.15,0.25 q 0.3,0.45 0.85,0.4 l 0.35,-0.05 q 0.7,-0.5 0.85,-1.4 l 0.15,-0.75 1.2,-2.45 q 1.1,-2.35 1.85,-4.8 0.65,-0.8 0.8,-1.75 l 0.45,-2 q 0.65,-0.65 0.8,-1.5 l 0.15,-0.75 1,-1.7 0.3,-1 0.05,1.85 q 0.2,2.85 1.15,5.5 L -46,14 l 0.1,0.75 0.1,0.25 0.25,0.2 0.4,0.2 q 0.9,-0.35 0.85,-1.4 l 0.1,-1.75 -0.1,-0.25 -0.05,-0.25 -0.1,-0.25 v -0.25 l 0.1,-1 0.05,-0.5 L -44.4,9.5 -44.45,9.25 -44.55,9 -44.2,6.25 Q -43.9,3.55 -44.7,1 l 0.2,-1.75 -0.05,-0.65 v -0.05 q 1,-0.15 2.05,-0.7 l 1.7,-0.85 2.75,-0.75 3.3,-1.1 2.3,-0.25 0.25,-0.25 0.1,-0.2 0.1,-0.1 9.05,-2.5 0.35,-0.55 0.1,-0.45 -0.05,-0.25 -0.55,-0.35 -1.6,-0.35 -2.35,0.15 q -7.15,0.3 -14,2.15 l 1.7,-5.5 0.35,0.85 0.75,0.7 q 11.3,-1.9 22.25,-5.75 l -0.6,2.35 -0.05,3.45 q -0.65,0.9 -0.15,1.75 1.7,2.9 5,4.9 l -4.5,3 -0.5,0.55 Q -18.95,3.85 -18.3,10 -27.45,8.45 -36.35,5.75 -39.9,4.7 -41.1,6.85 l -0.3,0.85 -0.2,0.8 0.15,0.9 2.15,14.4 -3.05,-1.75 q -1.6,-0.95 -3.35,-1.25 -2.35,-0.4 -4.55,1.05 l -5.1,2.8 q -1.75,-2.4 -3.1,-5.05 -0.4,-0.75 -1.1,-0.95 -3.65,-1.15 -6.8,-0.8 l 4.3,-7 q 0.85,-1.35 2.05,-2.4 3.35,-2.9 1.5,-6.2 -0.25,-0.5 -0.8,-0.4 l -19,3.75 q 0.35,-1.95 1.7,-3.4 l 1.25,-1.05 q 4.45,-2.8 1.3,-6.3 -2,-2.25 -3.95,-3.6 1,-0.65 2.15,-1.1 6.4,-2.4 4.5,-8.6 l -1.15,-2.75 q 10.65,1.5 20.75,6.7 1.9,1 4,1.35 l 2.1,-0.2"
         fill="#727c6f"
         fill-rule="evenodd"
         stroke="none"
         id="path3" />
    </g>
    <g
       id="sprite1"
       transform="translate(17.4,15.85)">
      <use
         ffdec:characterId="31"
         height="57.200001"
         transform="matrix(0.5366,0,0,0.5366,-16.6582,-14.546)"
         width="70.75"
         xlink:href="#sprite2"
         id="use3" />
    </g>
    <g
       id="sprite2"
       transform="translate(-8.65,-10.35)">
      <use
         ffdec:characterId="30"
         height="57.200001"
         transform="translate(8.65,10.35)"
         width="70.75"
         xlink:href="#shape1"
         id="use4" />
    </g>
    <g
       id="shape1"
       transform="translate(-8.65,-10.35)">
      <path
         d="m 14.8,41.7 q 0.65,-1.75 2.65,-2.5 1.8,-0.8 3.7,-0.25 1.15,0.45 2.25,1.2 l 0.9,0.4 q 1.65,0.9 2.85,2.5 L 37.8,30.1 q 2.35,-2.8 3.75,-3.95 1.5,-1.15 4.25,-2.4 18.2,-8.85 27.65,-12.6 2.15,-0.8 3.25,-0.8 h 0.8 l 1.9,2.4 -0.2,0.8 q -0.2,1.1 -1.55,3 -5.85,8.25 -18.85,23.8 -1.85,2.35 -3.35,3.5 -1.4,1.15 -4.75,2.75 l -15.15,7.15 q 1.2,1.6 1.75,3.4 l 0.2,1 0.55,2.5 q 0.1,1.95 -1.1,3.55 -1.2,1.65 -3.05,1.9 l -1.3,0.05 q -1.65,0.2 -3.45,-0.65 -1.85,-0.9 -3,-2.6 L 25,60.95 23.8,62.1 q -2.6,2.85 -4.3,3.95 -2.85,1.8 -5.5,1.45 l -1.65,-0.5 -1.2,-0.7 -0.2,-0.2 q -1,-0.85 -1.6,-1.9 L 9.25,64 9.15,63.8 8.75,62.4 q -0.2,-0.8 -0.05,-1.7 0.25,-2.65 2.7,-5.05 1.5,-1.3 4.9,-3.15 L 17.7,51.55 16.05,50 q -1.35,-1.5 -1.8,-3.6 -0.4,-1.85 0.25,-3.45 l 0.3,-1.25"
         fill="#000000"
         fill-opacity="0.372549"
         fill-rule="evenodd"
         stroke="none"
         id="path4" />
    </g>
  </defs>
</svg>
