<?xml version="1.0" encoding="UTF-8" standalone="no"?>
<svg
   ffdec:objectType="frame"
   height="69.169998"
   width="83.609093"
   version="1.1"
   id="svg4"
   xmlns:xlink="http://www.w3.org/1999/xlink"
   xmlns="http://www.w3.org/2000/svg"
   xmlns:svg="http://www.w3.org/2000/svg"
   xmlns:ffdec="https://www.free-decompiler.com/flash">
  <g
     transform="translate(44.534091,32.47)"
     id="g1">
    <use
       ffdec:characterId="17"
       height="119.15"
       id="rarity"
       transform="translate(-58.5,-60.65)"
       width="119.15"
       xlink:href="#sprite0" />
    <use
       ffdec:characterId="801"
       height="69.349998"
       transform="translate(-44.55,-32.45)"
       width="83.599998"
       xlink:href="#shape0"
       id="use1" />
  </g>
  <defs
     id="defs4">
    <g
       id="shape0"
       transform="translate(45.1,33.2)">
      <path
         d="m 26.5,24.25 q 0,2.8 -1.15,3.95 -0.85,0.85 -3.15,1.15 L 7,32.3 l -15.1,3.55 -3.15,0.1 q -1.4,-0.5 -1.95,-2.25 l -0.45,-3.05 q -0.3,-3.8 -1.1,-9.05 l -0.15,-1.3 q -5.8,2.3 -10.5,2.8 -5.95,0.75 -10.9,-0.9 -2.95,-1 -5.15,-2.9 -2.45,-2.1 -3.25,-4.75 -0.65,-2.2 -0.2,-4.65 0.4,-2.3 1.7,-4.35 2.25,-3.6 6.8,-6.4 3,-1.8 3.9,-2.95 0.95,-1.15 1.5,-2.95 l 0.7,-3.35 0.85,-5.4 q 0.25,-2.25 0.85,-3.6 0.85,-2 3.05,-4.05 3.95,-3.75 8.85,-5.45 5.25,-1.85 10.15,-0.8 2.1,0.4 3.5,1.35 l 2.45,2.25 q 2.05,2.25 2.65,3.6 l 0.2,0.55 0.2,-0.05 q 5.1,-6.4 12.4,-9.95 2.4,-1.25 4.35,-1.5 2.75,-0.35 6.85,1.05 3.8,1.3 6.05,3.2 1.8,1.5 3.15,3.75 2.15,3.35 2.9,7.4 0.75,4 0,7.95 -0.8,3.9 -3,7.35 Q 32.95,1 29.7,3.3 28.1,4.5 26.2,5.2 l -0.65,0.2 q 1.15,10.05 0.95,18.85 m -44.45,-24.9 q -1,-6.75 -1.7,-9.95 L -20,-13 q -0.05,-1.35 0.45,-2.25 0.8,-1.4 3.8,-2.35 l 11.35,-2.7 3,-0.6 q -2.3,-2.55 -4.05,-3.5 -1.85,-0.95 -4.15,-1 -2.15,0 -4.25,0.75 -3.3,1.15 -7.2,4.6 -1.5,1.25 -2.2,2.45 -0.65,1.25 -0.95,3.8 -0.7,5.4 -1.5,8 -1.35,4.45 -4.1,6.9 -1,0.95 -3.8,2.65 -2.5,1.6 -3.6,2.8 -1.6,1.65 -2.2,3.9 -0.45,1.85 0.05,3 0.4,1.1 1.95,2.15 4.4,2.95 10.5,2.55 4.55,-0.25 10.55,-2.75 l 0.7,-0.25 -2.3,-15.8 M 16.7,-13.3 15.45,-18 l -1.85,0.3 -2,0.3 -3.75,0.6 -0.4,0.1 -4.5,0.8 -2.1,0.4 -2.1,0.45 -2.65,0.6 -9.5,2.75 1.15,7.4 3.4,22.35 0.35,2.35 1.2,9.1 Q 6.1,26.1 21.15,23.65 21.1,4.75 16.7,-13.3 m -23.8,1.25 1.45,-0.05 q 1.2,0.15 2.2,1.05 l 0.1,0.05 0.7,0.9 0.25,0.75 Q -2,-7.6 -2.9,-5.9 l -0.85,1.4 1.8,0.15 q 0.65,0.4 0.65,1.3 l -0.1,0.55 -0.45,0.65 -0.1,0.1 q -0.5,0.45 -1.45,0.65 l -1.6,0.3 -1,0.4 -1,0.3 h -0.75 l -0.7,-0.25 -0.05,-0.05 -0.55,-0.55 -0.2,-0.75 0.3,-0.9 Q -9,-3.2 -8.55,-3.8 l 0.5,-0.45 0.25,-0.2 0.25,-0.2 1.3,-1.55 0.35,-0.45 0.5,-0.9 0.15,-0.75 V -8.35 Q -5.4,-8.9 -6.1,-9 l -1.1,0.2 q -0.9,0.55 -0.95,1.3 l 0.05,0.8 v 0.2 q 0,0.85 -0.85,1.2 -0.75,0.35 -1.45,-0.25 L -10.5,-5.7 -10.75,-6.1 -11,-6.95 q -0.25,-2.1 1.15,-3.5 l 0.85,-0.8 0.85,-0.6 1,-0.2 H -7.1 M 0.7,10.2 0.5,10.1 Q -0.3,9.65 -0.7,8.65 -1.05,7.7 -0.75,6.55 l 0.35,-1 0.35,-1 1.5,-3.35 q 0.7,-1.45 0.85,-2.35 l 0.4,-2 0.65,-0.8 Q 3.8,-4.3 4.25,-4.2 l 0.55,0.25 h 0.25 l 0.3,0.15 q 0.5,0.25 0.8,0.7 l 0.75,1.15 v 0.05 l 1.05,1.5 0.3,0.35 L 9,0.7 10.45,1.65 11.05,1.9 12,2.25 12.75,2.9 13.1,3.35 q 0.45,0.75 0.4,1.5 0,1.8 -1.55,2.6 L 10.4,7.8 9.35,7.65 l -1,-0.35 0.2,1 0.05,1.8 q -0.35,1 -1.35,1.25 -1,0.15 -1.7,-0.55 L 5.5,10.75 Q 4.95,10.05 4.95,9.05 L 5,8.05 4.5,9.15 q -0.55,0.8 -1.3,1.1 L 1.75,10.45 0.7,10.2 m 10.8,-33.7 4.95,-0.6 q 2.25,0 3.05,0.85 0.7,0.65 1,2.2 2.85,11.2 4.3,20.8 l 0.35,2.4 0.05,-0.05 q 2.95,-1.75 4.8,-3.75 3.7,-4.05 4.4,-9.3 0.8,-5.35 -1.7,-10.15 -1.3,-2.6 -3.25,-4.25 -1.4,-1.3 -4,-2.45 -2.9,-1.2 -5.05,-1 -2.1,0.2 -4.75,1.7 -2.7,1.55 -5.2,3.8 l 1.05,-0.2 m 3.55,40.6 q 0.1,-0.35 -0.15,-0.45 -0.75,0.5 -1.05,1.25 l -0.5,1 q -0.35,0.35 -0.85,0.3 -0.55,0 -0.9,-0.35 -0.7,-0.7 -0.45,-1.75 0.1,-0.65 0.8,-1.75 1.3,-1.7 2.55,-1.9 l 1.95,0.3 q 0.9,0.4 1.35,1.15 0.3,0.5 0.4,1.65 0,1.55 -0.6,2.8 h 1.2 q 0.5,0.1 0.9,0.45 0.4,0.35 0.45,0.85 l -0.1,1 -0.65,0.7 -0.85,0.3 -2.85,0.8 -1.85,0.1 q -0.55,-0.25 -0.8,-0.8 -0.3,-0.55 -0.1,-1.1 l 0.65,-1.45 0.55,-0.8 q 0.75,-1.05 0.9,-2.3"
         fill="#000000"
         fill-rule="evenodd"
         stroke="none"
         id="path1" />
      <path
         d="m -3.9,-14.45 2.65,-0.6 2.1,-0.45 2.1,-0.4 4.5,-0.8 0.4,-0.1 3.75,-0.6 2,-0.3 1.85,-0.3 1.25,4.7 Q 16.25,-5.35 12.75,2.9 L 12,2.25 11.05,1.9 10.45,1.65 9,0.7 8.25,-0.05 8.55,-0.85 9.3,-3 7.95,-0.4 6.9,-1.9 V -1.95 L 6.15,-3.1 Q 5.85,-3.55 5.35,-3.8 L 5.05,-3.95 H 4.8 L 4.25,-4.2 Q 3.8,-4.3 3.35,-3.95 l -0.65,0.8 -0.4,2 Q 2.15,-0.25 1.45,1.2 l -1.5,3.35 -0.35,1 -0.35,1 q -0.3,1.15 0.05,2.1 0.4,1 1.2,1.45 l 0.2,0.1 -0.5,0.55 -2.25,2.35 q -2.5,2.55 -4.65,3.9 -1.1,0.85 -2.15,1.05 l -3.4,-22.35 0.05,-0.15 1,-1.15 0.45,-0.5 0.25,0.4 0.1,0.15 q 0.7,0.6 1.45,0.25 0.85,-0.35 0.85,-1.2 V -6.7 L -8.15,-7.5 Q -8.1,-8.25 -7.2,-8.8 L -6.1,-9 q 0.7,0.1 0.85,0.65 v 0.05 l -0.15,0.75 -0.5,0.9 -0.35,0.45 -1.3,1.55 -0.25,0.2 -0.25,0.2 -0.5,0.45 q -0.45,0.6 -0.4,1.2 l -0.3,0.9 0.2,0.75 0.55,0.55 0.05,0.05 0.7,0.25 H -7 l 1,-0.3 1,-0.4 1.6,-0.3 q 0.95,-0.2 1.45,-0.65 l 0.1,-0.1 0.45,-0.65 0.1,-0.55 q 0,-0.9 -0.65,-1.3 l -1.8,-0.15 0.85,-1.4 q 0.9,-1.7 0.5,-3.45 l -0.25,-0.75 -0.7,-0.9 -0.1,-0.05 q -1,-0.9 -2.2,-1.05 l -1.45,0.05 3.2,-2.4 M 10.4,7.8 q -4.35,7.9 -10.55,12.05 -1.9,1.35 -2.8,0.3 -0.5,-0.55 -0.2,-1.5 l 0.85,-1.3 1.4,-1.65 4.1,-5.45 q 0.75,-0.3 1.3,-1.1 l 0.5,-1.1 -0.05,1 q 0,1 0.55,1.7 l 0.05,0.05 q 0.7,0.7 1.7,0.55 1,-0.25 1.35,-1.25 l -0.05,-1.8 -0.2,-1 1,0.35 1.05,0.15"
         fill="#ffffff"
         fill-rule="evenodd"
         stroke="none"
         id="path2" />
      <path
         d="m -3.9,-14.45 -3.2,2.4 h -0.05 l -1,0.2 -0.85,0.6 -0.85,0.8 q -1.4,1.4 -1.15,3.5 l 0.25,0.85 -0.45,0.5 -1,1.15 -0.05,0.15 -1.15,-7.4 9.5,-2.75 m -4.95,32.5 q 1.05,-0.2 2.15,-1.05 2.15,-1.35 4.65,-3.9 l 2.25,-2.35 0.5,-0.55 1.05,0.25 1.45,-0.2 -4.1,5.45 -1.4,1.65 -0.85,1.3 q -0.3,0.95 0.2,1.5 0.9,1.05 2.8,-0.3 Q 6.05,15.7 10.4,7.8 L 11.95,7.45 Q 13.5,6.65 13.5,4.85 13.55,4.1 13.1,3.35 L 12.75,2.9 q 3.5,-8.25 3.95,-16.2 4.4,18.05 4.45,36.95 Q 6.1,26.1 -7.3,29.5 L -8.5,20.4 -8.85,18.05 M 7.95,-0.4 9.3,-3 8.55,-0.85 8.25,-0.05 7.95,-0.4 m 7.1,17.5 q -0.15,1.25 -0.9,2.3 l -0.55,0.8 -0.65,1.45 q -0.2,0.55 0.1,1.1 0.25,0.55 0.8,0.8 l 1.85,-0.1 2.85,-0.8 0.85,-0.3 0.65,-0.7 0.1,-1 Q 20.1,20.15 19.7,19.8 19.3,19.45 18.8,19.35 h -1.2 q 0.6,-1.25 0.6,-2.8 -0.1,-1.15 -0.4,-1.65 -0.45,-0.75 -1.35,-1.15 l -1.95,-0.3 q -1.25,0.2 -2.55,1.9 -0.7,1.1 -0.8,1.75 -0.25,1.05 0.45,1.75 0.35,0.35 0.9,0.35 0.5,0.05 0.85,-0.3 l 0.5,-1 q 0.3,-0.75 1.05,-1.25 0.25,0.1 0.15,0.45"
         fill="#dfdfdf"
         fill-rule="evenodd"
         stroke="none"
         id="path3" />
    </g>
    <g
       id="sprite1"
       transform="translate(17.4,15.85)">
      <use
         ffdec:characterId="31"
         height="57.200001"
         transform="matrix(0.5366,0,0,0.5366,-16.6582,-14.546)"
         width="70.75"
         xlink:href="#sprite2"
         id="use3" />
    </g>
    <g
       id="sprite2"
       transform="translate(-8.65,-10.35)">
      <use
         ffdec:characterId="30"
         height="57.200001"
         transform="translate(8.65,10.35)"
         width="70.75"
         xlink:href="#shape1"
         id="use4" />
    </g>
    <g
       id="shape1"
       transform="translate(-8.65,-10.35)">
      <path
         d="m 14.8,41.7 q 0.65,-1.75 2.65,-2.5 1.8,-0.8 3.7,-0.25 1.15,0.45 2.25,1.2 l 0.9,0.4 q 1.65,0.9 2.85,2.5 L 37.8,30.1 q 2.35,-2.8 3.75,-3.95 1.5,-1.15 4.25,-2.4 18.2,-8.85 27.65,-12.6 2.15,-0.8 3.25,-0.8 h 0.8 l 1.9,2.4 -0.2,0.8 q -0.2,1.1 -1.55,3 -5.85,8.25 -18.85,23.8 -1.85,2.35 -3.35,3.5 -1.4,1.15 -4.75,2.75 l -15.15,7.15 q 1.2,1.6 1.75,3.4 l 0.2,1 0.55,2.5 q 0.1,1.95 -1.1,3.55 -1.2,1.65 -3.05,1.9 l -1.3,0.05 q -1.65,0.2 -3.45,-0.65 -1.85,-0.9 -3,-2.6 L 25,60.95 23.8,62.1 q -2.6,2.85 -4.3,3.95 -2.85,1.8 -5.5,1.45 l -1.65,-0.5 -1.2,-0.7 -0.2,-0.2 q -1,-0.85 -1.6,-1.9 L 9.25,64 9.15,63.8 8.75,62.4 q -0.2,-0.8 -0.05,-1.7 0.25,-2.65 2.7,-5.05 1.5,-1.3 4.9,-3.15 L 17.7,51.55 16.05,50 q -1.35,-1.5 -1.8,-3.6 -0.4,-1.85 0.25,-3.45 l 0.3,-1.25"
         fill="#000000"
         fill-opacity="0.372549"
         fill-rule="evenodd"
         stroke="none"
         id="path4" />
    </g>
  </defs>
</svg>
