<?xml version="1.0" encoding="UTF-8" standalone="no"?>
<svg
   ffdec:objectType="frame"
   height="65.505554"
   width="68.349998"
   version="1.1"
   id="svg4"
   sodipodi:docname="ITEM Cactus Hat.svg"
   xmlns:inkscape="http://www.inkscape.org/namespaces/inkscape"
   xmlns:sodipodi="http://sodipodi.sourceforge.net/DTD/sodipodi-0.dtd"
   xmlns:xlink="http://www.w3.org/1999/xlink"
   xmlns="http://www.w3.org/2000/svg"
   xmlns:svg="http://www.w3.org/2000/svg"
   xmlns:ffdec="https://www.free-decompiler.com/flash">
  <sodipodi:namedview
     id="namedview4"
     pagecolor="#ffffff"
     bordercolor="#000000"
     borderopacity="0.25"
     inkscape:showpageshadow="2"
     inkscape:pageopacity="0.0"
     inkscape:pagecheckerboard="0"
     inkscape:deskcolor="#d1d1d1"
     fit-margin-top="5"
     fit-margin-left="5"
     fit-margin-right="5"
     fit-margin-bottom="5" />
  <g
     transform="translate(37.3,42.5)"
     id="g1">
    <use
       ffdec:characterId="17"
       height="119.15"
       id="rarity"
       transform="translate(-58.5,-60.65)"
       width="119.15"
       xlink:href="#sprite0" />
    <use
       ffdec:characterId="1198"
       height="65.5"
       transform="translate(-37.3,-42.5)"
       width="68.349998"
       xlink:href="#shape0"
       id="use1" />
  </g>
  <defs
     id="defs4">
    <g
       id="shape0"
       transform="translate(36,40.6)">
      <path
         d="m -2.15,-38.8 q 10.1,-0.5 19.35,3.35 4.2,1.75 7.3,5.2 l 2.5,3.2 q 1.9,-1.45 4.3,-2.05 h 0.05 l 0.45,0.1 0.45,0.5 0.1,0.35 q -0.55,1.75 -2.2,2.8 l -0.75,0.6 -0.55,0.9 q 2.6,5.15 2.8,11.3 0.35,10.2 -4.9,18.85 l -1.2,2.25 -0.05,0.15 -0.4,1 -0.7,1.2 -0.55,0.85 L 23.2,13 q 0,2.6 -1,5.1 l -0.45,1 Q 20.3,21.7 17,21.35 l -7.9,0.4 q -2.5,0.5 -4.6,-0.7 -1.3,-0.8 -1.95,-2.2 -2.7,3.1 -5.75,5.7 -0.5,0.4 -1.1,0.35 l -16.95,-1.2 q -0.6,-0.05 -0.9,-0.65 L -25.35,16.7 -29.6,7.05 -30.55,4.8 -31.75,5.15 -33.2,5.5 Q -35.65,6.35 -35.5,4 -35.4,2.7 -34.3,1.85 -33.2,1 -32,0.6 q -1.95,-6.15 -2.45,-12.6 -0.15,-2.2 0.5,-4.25 0.1,-2.1 0.9,-4 l -0.05,-0.05 -2.85,-2.75 -0.05,-0.3 v -0.35 -0.15 l 0.35,-0.5 0.6,-0.2 q 2.15,0.05 3.85,0.9 4.85,-7.4 13.15,-11.15 l 5.4,-2.05 -0.1,-2.25 q 0.1,-1.4 1.45,-1.5 l 0.85,0.35 0.25,0.1 q 0.65,0.95 1,2 l 0.1,0.35 6.95,-1 m 19,9.55 q -3,-1.9 -6.4,-2.8 -2.55,-0.7 -5.35,-0.8 L 3.35,-32.9 -1.8,-32.95 q -8.8,0.7 -16.2,5.05 l -2.15,1.35 q -8.7,5.8 -8.15,16.1 l 1.65,7.1 1.45,4.55 q 1.25,3.6 2.9,7.05 l 0.35,1.2 1.45,3.05 1.35,3 0.95,2.65 3.95,0.35 -0.3,-0.9 -1,-2.4 -0.25,-1.7 q -1.65,-4.25 -2.6,-8.6 l -1,-5.85 -0.35,-3.5 q -0.35,-4.9 -0.05,-9.8 l 0.2,-1.5 q 0.35,-0.45 0.4,-0.95 l 0.05,-0.5 2.25,-2.95 1.3,-1.05 0.15,-0.15 0.15,-0.15 0.3,-0.2 0.55,-0.6 0.35,-0.2 q 0.4,0.05 0.45,0.45 v 0.3 q -0.3,0.7 -0.9,1.2 l -0.3,0.3 -0.3,0.15 -0.55,0.5 -0.15,0.15 -0.8,1.65 -0.5,0.8 -0.1,1.6 -0.25,1.2 0.15,2.45 0.05,1.95 q 0.95,4.3 1.5,8.8 l 0.15,1.35 0.55,3.25 0.85,2.35 1.6,4.7 1.1,3.55 q 0.45,0.75 0.75,1.6 0.15,0.45 0.15,0.85 0.75,1.1 1.05,2.15 l 4.35,0.15 Q -2.75,16.2 0.2,13.8 l 1,-0.65 0.2,-0.8 Q -1.7,10.15 -3.5,7 -3.85,6.35 -3.3,5.85 l 2.55,-2.35 4.35,-4.2 0.35,-0.1 0.4,0.1 0.2,0.15 0.1,0.15 0.1,0.35 L 4.8,0 V 0.1 Q 3.45,2.35 1.6,4.3 0.95,5 0.6,5.8 2.5,7.9 4.85,9.5 l 0.45,0.65 q 0.6,2 0.25,3.65 l 0.35,0.3 q 0.95,0.85 1.55,1.95 H 7.5 Q 7.85,12.9 8.95,9.85 l 1.8,-8.05 1.05,-4.35 q 0.05,-1.95 0.5,-3.8 l 0.5,-2.05 0.1,-0.35 q -0.2,-1.9 -0.9,-3.6 -0.45,-1.15 -0.5,-2.3 l -0.4,-1 -0.1,-0.2 -0.65,-0.95 -0.05,-0.15 v -0.15 -0.15 l -0.2,-0.35 -0.15,-0.3 -0.05,-0.2 0.05,-0.3 0.15,-0.3 0.15,-0.2 0.2,-0.1 0.25,-0.05 h 0.25 l 0.35,0.1 0.65,0.6 1.15,1.65 q 0.25,0.65 0.65,1.2 l 1.55,2.65 q 1,2.1 1.25,4.4 l 0.05,2.75 q -0.5,4.95 -1.65,9.8 -0.7,4.75 -1.85,9.35 L 12.65,15.5 17,15.2 17.7,13.75 q 0.35,-0.85 1.05,-1.45 l 1.5,-2.55 q 0,-0.45 0.25,-0.8 L 20.75,8.6 21.7,6.15 22.05,5.5 q 0.3,-0.9 0.75,-1.7 l 0.45,-1.05 q 1.45,-3.05 2.15,-6.4 1.15,-5.45 0.75,-11.2 l -0.4,-1.35 -0.5,-1.6 -0.35,-1 v -0.15 q -1.65,-5.35 -6.1,-8.9 l -1.95,-1.4 m -3.25,0.2 0.85,0.35 0.25,0.1 q 0.7,0.8 0.5,1.8 l -0.75,1.3 q -0.25,1.05 -1.05,1.85 l -0.5,0.4 -0.6,0.15 -0.4,-0.15 -0.5,-0.3 q -0.25,-0.35 -0.15,-0.8 l 0.45,-1.3 q -0.05,-1 0.35,-1.95 l 0.15,-0.45 q 0.45,-0.95 1.4,-1 m 7.35,7.35 0.45,0.1 0.35,0.1 0.4,0.35 0.1,0.15 0.05,0.15 q -0.6,1.9 -2.2,3.3 -0.6,0.55 -1.4,0.3 L 18.3,-17.6 18,-17.9 q -0.15,-1.55 1.25,-2.6 l 0.95,-0.85 0.45,-0.2 0.3,-0.1 v -0.05 m -46.45,7.95 0.55,0.1 0.9,0.05 1,0.05 0.45,0.5 0.1,0.3 q -0.6,1.55 -2.5,2 h -0.15 l -1.5,-0.1 q -0.65,-0.3 -0.8,-1 -0.2,-0.85 0.55,-1.45 l 1.4,-0.45"
         fill="#000000"
         fill-rule="evenodd"
         stroke="none"
         id="path1" />
      <path
         d="m -25.2,1.2 -1.45,-4.55 -1.65,-7.1 q -0.55,-10.3 8.15,-16.1 L -18,-27.9 q 7.4,-4.35 16.2,-5.05 l 5.15,0.05 1.75,0.05 q 2.8,0.1 5.35,0.8 3.4,0.9 6.4,2.8 l 0.05,0.2 q 2.1,7.1 -0.65,14.05 l -0.95,2.15 -1.55,-2.65 q -0.4,-0.55 -0.65,-1.2 l -1.15,-1.65 -0.65,-0.6 -0.35,-0.1 H 10.7 l -0.25,0.05 -0.2,0.1 -0.15,0.2 -0.15,0.3 -0.05,0.3 0.05,0.2 0.15,0.3 0.2,0.35 v 0.15 0.15 l 0.05,0.15 0.65,0.95 0.1,0.2 0.4,1 q 0.05,1.15 0.5,2.3 0.7,1.7 0.9,3.6 L 12.8,-8.4 Q 9.6,-3.65 4.8,0 L 4.75,-0.05 4.65,-0.4 4.55,-0.55 4.35,-0.7 3.95,-0.8 3.6,-0.7 -0.75,3.5 -1.7,4 Q -7.75,7 -14.25,5.95 L -15.1,3.6 -15.65,0.35 -15.8,-1 q -0.55,-4.5 -1.5,-8.8 l -0.05,-1.95 -0.15,-2.45 0.25,-1.2 0.1,-1.6 0.5,-0.8 0.8,-1.65 0.15,-0.15 0.55,-0.5 0.3,-0.15 0.3,-0.3 q 0.6,-0.5 0.9,-1.2 v -0.3 q -0.05,-0.4 -0.45,-0.45 l -0.35,0.2 -0.55,0.6 -0.3,0.2 -0.15,0.15 -0.15,0.15 -1.3,1.05 -2.25,2.95 -0.05,0.5 q -0.05,0.5 -0.4,0.95 l -0.2,1.5 q -0.3,4.9 0.05,9.8 l 0.35,3.5 1,5.85 q -3.75,-1.3 -6.8,-3.7 m 38.8,-30.25 q -0.95,0.05 -1.4,1 l -0.15,0.45 q -0.4,0.95 -0.35,1.95 l -0.45,1.3 q -0.1,0.45 0.15,0.8 l 0.5,0.3 0.4,0.15 0.6,-0.15 0.5,-0.4 q 0.8,-0.8 1.05,-1.85 l 0.75,-1.3 q 0.2,-1 -0.5,-1.8 l -0.25,-0.1 -0.85,-0.35 m -39.1,15.3 -1.4,0.45 q -0.75,0.6 -0.55,1.45 0.15,0.7 0.8,1 l 1.5,0.1 H -25 q 1.9,-0.45 2.5,-2 l -0.1,-0.3 -0.45,-0.5 -1,-0.05 -0.9,-0.05 -0.55,-0.1"
         fill="#707d6d"
         fill-rule="evenodd"
         stroke="none"
         id="path2" />
      <path
         d="m -25.2,1.2 q 3.05,2.4 6.8,3.7 0.95,4.35 2.6,8.6 l 0.25,1.7 1,2.4 0.3,0.9 -3.95,-0.35 -0.95,-2.65 -1.35,-3 -1.45,-3.05 -0.35,-1.2 Q -23.95,4.8 -25.2,1.2 m 10.95,4.75 Q -7.75,7 -1.7,4 L -0.75,3.5 -3.3,5.85 q -0.55,0.5 -0.2,1.15 1.8,3.15 4.9,5.35 l -0.2,0.8 -1,0.65 q -2.95,2.4 -5.45,5.15 L -9.6,18.8 q -0.3,-1.05 -1.05,-2.15 0,-0.4 -0.15,-0.85 -0.3,-0.85 -0.75,-1.6 l -1.1,-3.55 -1.6,-4.7 M 4.8,0 q 4.8,-3.65 8,-8.4 l -0.5,2.05 q -0.45,1.85 -0.5,3.8 L 10.75,1.8 8.95,9.85 Q 7.85,12.9 7.5,16.05 H 7.45 Q 6.85,14.95 5.9,14.1 L 5.55,13.8 Q 5.9,12.15 5.3,10.15 L 4.85,9.5 Q 2.5,7.9 0.6,5.8 0.95,5 1.6,4.3 3.45,2.35 4.8,0.1 V 0 M 15.3,-12.85 16.25,-15 Q 19,-21.95 16.9,-29.05 l -0.05,-0.2 1.95,1.4 q 4.45,3.55 6.1,8.9 v 0.15 l 0.35,1 0.5,1.6 0.4,1.35 q 0.4,5.75 -0.75,11.2 -0.7,3.35 -2.15,6.4 L 22.8,3.8 Q 22.35,4.6 22.05,5.5 L 21.7,6.15 20.75,8.6 20.5,8.95 q -0.25,0.35 -0.25,0.8 l -1.5,2.55 q -0.7,0.6 -1.05,1.45 L 17,15.2 12.65,15.5 13.1,13.45 q 1.15,-4.6 1.85,-9.35 1.15,-4.85 1.65,-9.8 l -0.05,-2.75 q -0.25,-2.3 -1.25,-4.4 m 5.65,-8.85 v 0.05 l -0.3,0.1 -0.45,0.2 -0.95,0.85 q -1.4,1.05 -1.25,2.6 l 0.3,0.3 0.4,0.35 q 0.8,0.25 1.4,-0.3 1.6,-1.4 2.2,-3.3 l -0.05,-0.15 -0.1,-0.15 -0.4,-0.35 -0.35,-0.1 -0.45,-0.1"
         fill="#555f52"
         fill-rule="evenodd"
         stroke="none"
         id="path3" />
    </g>
    <g
       id="sprite1"
       transform="translate(17.4,15.85)">
      <use
         ffdec:characterId="31"
         height="57.200001"
         transform="matrix(0.5366,0,0,0.5366,-16.6582,-14.546)"
         width="70.75"
         xlink:href="#sprite2"
         id="use3" />
    </g>
    <g
       id="sprite2"
       transform="translate(-8.65,-10.35)">
      <use
         ffdec:characterId="30"
         height="57.200001"
         transform="translate(8.65,10.35)"
         width="70.75"
         xlink:href="#shape1"
         id="use4" />
    </g>
    <g
       id="shape1"
       transform="translate(-8.65,-10.35)">
      <path
         d="m 14.8,41.7 q 0.65,-1.75 2.65,-2.5 1.8,-0.8 3.7,-0.25 1.15,0.45 2.25,1.2 l 0.9,0.4 q 1.65,0.9 2.85,2.5 L 37.8,30.1 q 2.35,-2.8 3.75,-3.95 1.5,-1.15 4.25,-2.4 18.2,-8.85 27.65,-12.6 2.15,-0.8 3.25,-0.8 h 0.8 l 1.9,2.4 -0.2,0.8 q -0.2,1.1 -1.55,3 -5.85,8.25 -18.85,23.8 -1.85,2.35 -3.35,3.5 -1.4,1.15 -4.75,2.75 l -15.15,7.15 q 1.2,1.6 1.75,3.4 l 0.2,1 0.55,2.5 q 0.1,1.95 -1.1,3.55 -1.2,1.65 -3.05,1.9 l -1.3,0.05 q -1.65,0.2 -3.45,-0.65 -1.85,-0.9 -3,-2.6 L 25,60.95 23.8,62.1 q -2.6,2.85 -4.3,3.95 -2.85,1.8 -5.5,1.45 l -1.65,-0.5 -1.2,-0.7 -0.2,-0.2 q -1,-0.85 -1.6,-1.9 L 9.25,64 9.15,63.8 8.75,62.4 q -0.2,-0.8 -0.05,-1.7 0.25,-2.65 2.7,-5.05 1.5,-1.3 4.9,-3.15 L 17.7,51.55 16.05,50 q -1.35,-1.5 -1.8,-3.6 -0.4,-1.85 0.25,-3.45 l 0.3,-1.25"
         fill="#000000"
         fill-opacity="0.372549"
         fill-rule="evenodd"
         stroke="none"
         id="path4" />
    </g>
  </defs>
</svg>
