<?xml version="1.0" encoding="UTF-8" standalone="no"?>
<svg
   ffdec:objectType="frame"
   height="93.050003"
   width="67.687859"
   version="1.1"
   id="svg8"
   xmlns:xlink="http://www.w3.org/1999/xlink"
   xmlns="http://www.w3.org/2000/svg"
   xmlns:svg="http://www.w3.org/2000/svg"
   xmlns:ffdec="https://www.free-decompiler.com/flash">
  <g
     transform="translate(34.212857,51.95)"
     id="g1">
    <use
       ffdec:characterId="17"
       height="119.15"
       id="rarity"
       transform="translate(-58.5,-60.65)"
       width="119.15"
       xlink:href="#sprite0" />
    <use
       ffdec:characterId="123"
       height="93.199997"
       transform="translate(-34.2,-52.1)"
       width="67.650002"
       xlink:href="#sprite1"
       id="use1" />
  </g>
  <defs
     id="defs8">
    <g
       id="sprite1">
      <use
         ffdec:characterId="122"
         height="93.199997"
         width="67.650002"
         xlink:href="#shape0"
         id="use2" />
    </g>
    <g
       id="shape0">
      <path
         d="m 35.5,20.1 3.9,-0.25 q 4.4,-0.2 7.2,0.05 3.15,0.2 4.85,1.25 2.45,1.5 3.3,4.6 0.65,2.5 0.05,5.8 -0.65,3.25 -2.35,4.75 -1.35,1.15 -4.45,1.85 l -1.25,0.25 0.3,3.6 q 0.4,2.55 2.4,5.3 l 3.9,4.55 1.1,1.25 q 4.3,5 7.45,10.4 2.7,4.7 4.55,9.7 1.75,4.65 1,7.55 -1,3.6 -5.85,6.45 -4.8,2.8 -11.2,4.25 -5,1.2 -10.55,1.5 -5.55,0.25 -10.3,0 Q 26.1,92.8 30,93.2 L 29.35,93.15 Q 22.4,92.65 17.4,91.45 11,90 6.2,87.2 1.35,84.35 0.35,80.75 q -0.75,-2.9 1,-7.55 1.2,-3.25 2.8,-6.35 1.6,-3.25 3.65,-6.35 l 0.1,-0.15 q 2.85,-4.4 6.55,-8.5 l 3.9,-4.55 q 2,-2.75 2.4,-5.3 l 0.3,-3.6 -1.25,-0.25 q -3.1,-0.7 -4.45,-1.85 -1.7,-1.5 -2.35,-4.75 -0.6,-3.3 0.05,-5.8 0.85,-3.1 3.3,-4.6 1.3,-0.8 3.45,-1.1 l 1.4,-0.15 4.6,-0.1 2.6,0.05 5.35,0.35 1.75,-0.1 m -9.5,11.85 1.7,0.2 h 12.4 l 3.2,-0.4 3.85,-0.65 0.55,-0.15 0.4,-0.75 0.25,-1.6 q 0,-1 -0.65,-1.5 L 46.6,26.7 Q 45.3,26.45 41.55,26.65 H 41.5 l -10.7,0.1 -4.5,-0.1 q -3.5,-0.2 -4.9,0.05 h -0.2 l -1.1,0.4 q -0.65,0.5 -0.65,1.5 l 0.25,1.6 0.4,0.75 0.55,0.15 1.4,0.25 2.45,0.4 1.45,0.2 H 26 M 41.4,48.6 42.05,48.35 41,46.1 l -0.6,-2.85 -0.35,-2.9 -0.2,-1.25 -0.2,0.05 h -1.05 -4.55 -0.3 l -1.6,0.05 H 32 l -2.8,-0.05 -1.25,-0.05 -0.2,1.25 -0.35,2.9 -0.35,2.15 -0.25,0.7 -0.55,1.4 1.8,0.75 2.85,0.65 10.5,-0.3 M 27.35,71.95 q -0.2,1.8 -0.85,2.4 -0.5,0.5 -1.3,0.5 L 24.8,74.8 q -1,0 -1.6,-0.75 -0.6,-0.7 -0.7,-2.2 -0.25,-2.35 0,-5.75 l 0.4,-5.75 q 0.1,-1.25 0.35,-1.85 0.65,-1.25 2.25,-1.35 1.4,-0.05 2.55,0.9 l 1.75,2.15 1.4,2.15 1.1,1.25 1.1,1.35 -0.05,-2.3 Q 33.3,60.7 33.5,58.75 L 33.75,57.7 Q 34,57 34.7,56.55 q 0.65,-0.45 1.4,-0.45 0.75,0 1.4,0.45 0.65,0.45 0.9,1.15 l 0.2,1.65 -0.15,1.7 -0.05,1.6 v 0.8 l 0.1,6.25 q 0,1.85 -0.45,2.65 -0.55,1 -1.5,1.25 l -0.25,0.15 q -1,0.65 -2.1,0 L 33.6,73.3 q -0.8,-0.35 -1.3,-1.15 l -0.15,-0.4 -0.8,-0.8 -1.65,-1.55 -1.1,-1.25 -1.15,-1.7 q 0.15,2.55 -0.1,5.5 m 28.8,-5.35 q -2,-3.45 -5.65,-7.8 l -5.25,-6.1 q -3.95,1.7 -8.6,1.7 -4.5,0 -8.9,-1.65 l -2.15,-1 -1.45,-1.05 -0.6,0.75 -6.25,7.35 -2.1,2.6 q -1.4,1.8 -2.45,3.45 l -1.1,1.75 -0.45,0.8 -1.4,2.8 -0.4,0.9 0.85,0.5 q 4.8,3.4 9.45,4.75 l 6.1,1.2 13.25,0.75 q 7.2,-0.4 12.55,-3.1 l 3.85,-2.25 2.95,-1.9 -2.25,-4.45 m -10,-0.4 0.45,0.7 0.1,0.8 q 0.15,1.65 -0.4,3.3 l -0.35,0.8 -0.3,0.45 1.2,0.25 q 0.6,0.25 0.95,0.8 0.4,0.6 0.25,1.15 -0.25,1.05 -1.85,1.35 l -2.8,0.3 -2.3,-0.05 Q 40.2,75.7 39.95,74.75 39.7,74 40.05,73.4 v -0.05 q 0.15,-0.8 0.8,-1.3 0.45,-0.25 0.85,-0.55 l 1.4,-1.75 0.15,-0.75 -0.9,0.25 -0.3,0.4 -0.65,0.45 -0.8,-0.05 q -0.75,-0.2 -1,-1.1 -0.2,-0.65 0.15,-1.55 0.55,-1.2 1.9,-1.8 1.2,-0.55 2.6,-0.45 l 1.05,0.2 0.85,0.85 m -32.4,16.95 q 3.15,1.2 6.9,1.9 5.25,1 13.1,1.2 h 0.15 0.15 q 7.85,-0.2 13.1,-1.2 6.05,-1.1 10.65,-3.55 l 1.8,-1.05 q 1.25,-0.85 1.45,-1.55 0.2,-0.7 -0.3,-2.05 l -0.3,-0.9 -1.35,0.8 q -9.6,5.6 -18.65,6.4 -2.85,0.25 -6.3,0.05 l -6.3,-0.55 -7.55,-1.1 Q 17.85,80.95 15.65,80 12.7,78.75 10.15,76.9 l -1.45,-1.15 -0.95,-0.8 -0.7,1.9 q -0.5,1.35 -0.3,2.05 0.2,0.65 1.3,1.45 l 0.15,0.1 1.25,0.75 q 1.95,1.1 4.3,1.95"
         fill="#000000"
         fill-rule="evenodd"
         stroke="none"
         id="path2" />
      <path
         d="m 39.65,39.15 -0.15,0.6 q -0.8,2.15 -3,2.55 -2.3,0.4 -3.7,-1.4 -0.55,-0.8 -0.65,-1.7 l 1.6,-0.05 h 0.3 4.55 1.05 m -11.6,9.1 q 0.5,-1 1.55,-1.75 2.25,-1.7 6.35,-1.5 l 2.35,0.45 q 0.75,0.3 1.8,1.15 l 1.05,1.35 0.25,0.65 -10.5,0.3 -2.85,-0.65 M 13.75,83.15 15,81.95 15.65,80 q 2.2,0.95 4.65,1.55 l 7.55,1.1 6.3,0.55 q 3.45,0.2 6.3,-0.05 9.05,-0.8 18.65,-6.4 l 0.1,1.35 q -0.1,1.85 -1.4,3.4 -4.6,2.45 -10.65,3.55 -5.25,1 -13.1,1.2 H 33.9 33.75 q -7.85,-0.2 -13.1,-1.2 -3.75,-0.7 -6.9,-1.9 M 10.15,76.9 Q 9.3,77.5 9,78.5 8.7,79.65 9.45,81.2 L 8.2,80.45 8.05,80.35 7.6,78.9 Q 7.35,77.5 8.1,76.4 l 0.6,-0.65 1.45,1.15"
         fill="#6ea2a0"
         fill-rule="evenodd"
         stroke="none"
         id="path3" />
      <path
         d="M 54.45,53.1 52.8,50.05 50.95,47.25 Q 50,45.55 50,44.15 q 0,-1.05 0.7,-2.95 0.7,-1.6 1.4,-2.1 0.5,-0.4 1.15,-0.45 0.7,-0.05 1.15,0.35 0.65,0.5 0.55,1.55 l -0.3,1.65 q -0.2,0.6 -0.05,1 l 0.65,0.85 q 3.2,3.05 5.1,7.25 1.85,4.1 2.05,8.55 0.1,2.35 -0.5,3.65 -3.15,-5.4 -7.45,-10.4 m -50.3,13.75 -1.4,-1.5 q -1.7,-2 -2.3,-4.15 -0.9,-2.8 -0.05,-7.3 0.45,-2.2 1.05,-3.5 0.7,-1.45 1.85,-2.95 L 5.85,44.5 7.05,43 q 0.45,-0.85 0.4,-1.85 -0.1,-1 -0.7,-1.75 l -0.7,-0.8 q -0.4,-0.5 -0.45,-0.95 -0.1,-0.7 0.45,-1.2 0.55,-0.55 1.3,-0.5 1.25,0 2.45,1.3 1.8,1.95 2.15,4.75 0.35,2.8 -0.9,5.15 l -2,2.95 Q 7.2,52.85 6.8,56.35 6.7,58.1 7.05,59.1 q 0.2,0.7 0.75,1.4 -2.05,3.1 -3.65,6.35 m 3.75,-6.5 q -0.1,-3.9 2.45,-7.95 0.75,-1.15 2.6,-3.4 l 2.55,-3.45 q 1.6,-2.7 1.35,-4.8 Q 16.6,39.1 15,37.1 l -2.7,-3.4 q -1.5,-2.45 -1.35,-5.7 0.15,-3.1 1.7,-5.85 2.5,-4.4 8.75,-8.2 L 23.25,12.7 Q 24.2,11.9 24.5,10.95 24.75,10.15 24.4,8.2 23.7,4.9 22.85,3.55 l -0.9,-1.7 q -0.3,-1.2 0.5,-1.7 l 1.85,0.2 q 2.3,1.3 4.55,5.45 1.45,2.55 1.75,4.4 0.45,2.2 -0.45,4.45 -0.5,1.25 -1.75,2.7 l 3.15,0.5 2.6,1.3 1.35,0.95 -1.75,0.1 -5.35,-0.35 -2.6,-0.05 -4.6,0.1 -1.4,0.15 q -2.15,0.3 -3.45,1.1 -2.45,1.5 -3.3,4.6 -0.65,2.5 -0.05,5.8 0.65,3.25 2.35,4.75 1.35,1.15 4.45,1.85 l 1.25,0.25 -0.3,3.6 q -0.4,2.55 -2.4,5.3 l -3.9,4.55 q -3.7,4.1 -6.55,8.5"
         fill="#ffffff"
         fill-opacity="0.498039"
         fill-rule="evenodd"
         stroke="none"
         id="path4" />
      <path
         d="m 30.8,26.75 0.05,0.5 v 1 q -0.15,1.55 -1.25,2.55 -1.1,1 -2.65,1.1 L 26,31.95 h -0.05 l -1.45,-0.2 -2.45,-0.4 -0.45,-0.9 -0.25,-2 q -0.1,-1.25 0.05,-1.75 1.4,-0.25 4.9,-0.05 l 4.5,0.1 m 1.2,12.45 0.3,1.6 q 0.05,1.35 -0.7,2.8 l -1.35,1.7 q -1.1,0.8 -2.5,0.4 l -0.7,-0.3 0.35,-2.15 0.35,-2.9 0.2,-1.25 1.25,0.05 2.8,0.05 M 15.65,80 15,81.95 13.75,83.15 Q 11.4,82.3 9.45,81.2 8.7,79.65 9,78.5 q 0.3,-1 1.15,-1.6 2.55,1.85 5.5,3.1"
         fill="#ffffff"
         fill-rule="evenodd"
         stroke="none"
         id="path5" />
      <path
         d="m 46.15,66.2 -0.85,-0.85 -1.05,-0.2 q -1.4,-0.1 -2.6,0.45 -1.35,0.6 -1.9,1.8 -0.35,0.9 -0.15,1.55 0.25,0.9 1,1.1 l 0.8,0.05 0.65,-0.45 0.3,-0.4 0.9,-0.25 -0.15,0.75 -1.4,1.75 q -0.4,0.3 -0.85,0.55 -0.65,0.5 -0.8,1.3 v 0.05 q -0.35,0.6 -0.1,1.35 0.25,0.95 1.15,1.3 l 2.3,0.05 2.8,-0.3 Q 47.8,75.5 48.05,74.45 48.2,73.9 47.8,73.3 47.45,72.75 46.85,72.5 l -1.2,-0.25 0.3,-0.45 0.35,-0.8 q 0.55,-1.65 0.4,-3.3 l -0.1,-0.8 -0.45,-0.7 m 10,0.4 2.25,4.45 -2.95,1.9 -3.85,2.25 q -5.35,2.7 -12.55,3.1 L 25.8,77.55 19.7,76.35 Q 15.05,75 10.25,71.6 l -0.85,-0.5 0.4,-0.9 1.4,-2.8 0.45,-0.8 1.1,-1.75 Q 13.8,63.2 15.2,61.4 l 2.1,-2.6 6.25,-7.35 0.6,-0.75 1.45,1.05 2.15,1 q 4.4,1.65 8.9,1.65 4.65,0 8.6,-1.7 l 5.25,6.1 q 3.65,4.35 5.65,7.8 m -28.8,5.35 q 0.25,-2.95 0.1,-5.5 l 1.15,1.7 1.1,1.25 1.65,1.55 0.8,0.8 0.15,0.4 q 0.5,0.8 1.3,1.15 l 0.6,0.45 q 1.1,0.65 2.1,0 l 0.25,-0.15 q 0.95,-0.25 1.5,-1.25 0.45,-0.8 0.45,-2.65 l -0.1,-6.25 v -0.8 l 0.05,-1.6 0.15,-1.7 -0.2,-1.65 Q 38.15,57 37.5,56.55 36.85,56.1 36.1,56.1 35.35,56.1 34.7,56.55 34,57 33.75,57.7 l -0.25,1.05 q -0.2,1.95 -0.15,3.9 L 33.4,64.95 32.3,63.6 31.2,62.35 29.8,60.2 28.05,58.05 Q 26.9,57.1 25.5,57.15 23.9,57.25 23.25,58.5 23,59.1 22.9,60.35 l -0.4,5.75 q -0.25,3.4 0,5.75 0.1,1.5 0.7,2.2 0.6,0.75 1.6,0.75 l 0.4,0.05 q 0.8,0 1.3,-0.5 0.65,-0.6 0.85,-2.4"
         fill="#a8cecc"
         fill-rule="evenodd"
         stroke="none"
         id="path6" />
      <path
         d="m 30.8,26.75 10.7,-0.1 h 0.05 q 3.75,-0.2 5.05,0.05 l 1.1,0.4 q 0.65,0.5 0.65,1.5 l -0.25,1.6 -0.4,0.75 -0.55,0.15 -3.85,0.65 -3.2,0.4 H 27.7 L 26,31.95 26.95,31.9 q 1.55,-0.1 2.65,-1.1 1.1,-1 1.25,-2.55 v -1 l -0.05,-0.5 m -8.75,4.6 -1.4,-0.25 -0.55,-0.15 -0.4,-0.75 -0.25,-1.6 q 0,-1 0.65,-1.5 l 1.1,-0.4 h 0.2 q -0.15,0.5 -0.05,1.75 l 0.25,2 0.45,0.9 m 17.6,7.8 0.2,-0.05 0.2,1.25 0.35,2.9 0.6,2.85 1.05,2.25 L 41.4,48.6 41.15,47.95 40.1,46.6 Q 39.05,45.75 38.3,45.45 L 35.95,45 q -4.1,-0.2 -6.35,1.5 -1.05,0.75 -1.55,1.75 l -1.8,-0.75 0.55,-1.4 0.25,-0.7 0.7,0.3 q 1.4,0.4 2.5,-0.4 l 1.35,-1.7 q 0.75,-1.45 0.7,-2.8 L 32,39.2 h 0.15 q 0.1,0.9 0.65,1.7 1.4,1.8 3.7,1.4 2.2,-0.4 3,-2.55 l 0.15,-0.6 M 57.8,81.5 q 1.3,-1.55 1.4,-3.4 l -0.1,-1.35 1.35,-0.8 0.3,0.9 q 0.5,1.35 0.3,2.05 -0.2,0.7 -1.45,1.55 L 57.8,81.5 M 8.05,80.35 q -1.1,-0.8 -1.3,-1.45 -0.2,-0.7 0.3,-2.05 l 0.7,-1.9 0.95,0.8 -0.6,0.65 q -0.75,1.1 -0.5,2.5 l 0.45,1.45"
         fill="#ffffff"
         fill-opacity="0"
         fill-rule="evenodd"
         stroke="none"
         id="path7" />
    </g>
    <g
       id="sprite2"
       transform="translate(17.4,15.85)">
      <use
         ffdec:characterId="31"
         height="57.200001"
         transform="matrix(0.5366,0,0,0.5366,-16.6582,-14.546)"
         width="70.75"
         xlink:href="#sprite3"
         id="use7" />
    </g>
    <g
       id="sprite3"
       transform="translate(-8.65,-10.35)">
      <use
         ffdec:characterId="30"
         height="57.200001"
         transform="translate(8.65,10.35)"
         width="70.75"
         xlink:href="#shape1"
         id="use8" />
    </g>
    <g
       id="shape1"
       transform="translate(-8.65,-10.35)">
      <path
         d="m 14.8,41.7 q 0.65,-1.75 2.65,-2.5 1.8,-0.8 3.7,-0.25 1.15,0.45 2.25,1.2 l 0.9,0.4 q 1.65,0.9 2.85,2.5 L 37.8,30.1 q 2.35,-2.8 3.75,-3.95 1.5,-1.15 4.25,-2.4 18.2,-8.85 27.65,-12.6 2.15,-0.8 3.25,-0.8 h 0.8 l 1.9,2.4 -0.2,0.8 q -0.2,1.1 -1.55,3 -5.85,8.25 -18.85,23.8 -1.85,2.35 -3.35,3.5 -1.4,1.15 -4.75,2.75 l -15.15,7.15 q 1.2,1.6 1.75,3.4 l 0.2,1 0.55,2.5 q 0.1,1.95 -1.1,3.55 -1.2,1.65 -3.05,1.9 l -1.3,0.05 q -1.65,0.2 -3.45,-0.65 -1.85,-0.9 -3,-2.6 L 25,60.95 23.8,62.1 q -2.6,2.85 -4.3,3.95 -2.85,1.8 -5.5,1.45 l -1.65,-0.5 -1.2,-0.7 -0.2,-0.2 q -1,-0.85 -1.6,-1.9 L 9.25,64 9.15,63.8 8.75,62.4 q -0.2,-0.8 -0.05,-1.7 0.25,-2.65 2.7,-5.05 1.5,-1.3 4.9,-3.15 L 17.7,51.55 16.05,50 q -1.35,-1.5 -1.8,-3.6 -0.4,-1.85 0.25,-3.45 l 0.3,-1.25"
         fill="#000000"
         fill-opacity="0.372549"
         fill-rule="evenodd"
         stroke="none"
         id="path8" />
    </g>
  </defs>
</svg>
