<?xml version="1.0" encoding="UTF-8" standalone="no"?>
<svg
   ffdec:objectType="frame"
   height="92.598778"
   width="72.50367"
   version="1.1"
   id="svg9"
   xmlns:xlink="http://www.w3.org/1999/xlink"
   xmlns="http://www.w3.org/2000/svg"
   xmlns:svg="http://www.w3.org/2000/svg"
   xmlns:ffdec="https://www.free-decompiler.com/flash">
  <g
     transform="translate(28.954651,45.35)"
     id="g1">
    <use
       ffdec:characterId="17"
       height="119.15"
       id="rarity"
       transform="translate(-58.5,-60.65)"
       width="119.15"
       xlink:href="#sprite0" />
    <use
       ffdec:characterId="378"
       height="93.150002"
       transform="translate(-28.95,-45.9)"
       width="72.5"
       xlink:href="#shape0"
       id="use1" />
  </g>
  <defs
     id="defs9">
    <g
       id="shape0"
       transform="translate(28.65,48.4)">
      <path
         d="m 20.15,-14.65 1.8,-3.3 q 1.3,-1.6 2.8,-2.25 2.8,-1.15 5.8,0.7 2.1,1.2 4.35,4.2 2.45,3.3 4,6.4 0.5,-4.45 -0.5,-8.7 -1,-4.45 -3.45,-7.9 -2.6,-3.65 -6.45,-5.7 -4.05,-2.25 -8.35,-2.1 -2.2,0.05 -3.9,0.9 l -1.2,0.85 -0.1,0.25 -0.95,4.75 -0.35,0.95 -0.5,1.15 -0.35,1.25 -0.85,1.75 -0.95,1.45 9.15,5.35 m -27.1,-11.4 q 1.4,-3.2 0.45,-4.7 -0.8,-1.25 -2.6,-1.4 l -3.05,0.55 q -3.75,1.3 -5.45,3.5 l -1.45,1.9 q 0.65,1.9 -0.8,4.5 -0.75,1.35 -1.65,1.95 -1.05,0.65 -2.4,0.55 -1.3,-0.15 -2.4,-0.9 -1.45,-1.2 -1.85,-2.9 -0.4,-1.9 0.55,-3.4 1.25,-1.9 3.85,-2.2 l 0.35,-2.45 q 2.55,-10.25 8.4,-14 2.45,-1.55 6.15,-2.5 l 9.7,-0.3 q 1.9,0.65 4.75,2.55 l 4.3,3.05 q 2.15,1.9 3.25,4.05 0.55,0.9 0.9,1.05 l 1.35,-0.1 q 4.25,-1.35 8.9,-0.6 4.6,0.75 8.4,3.3 3.7,2.4 6.35,6.3 2.6,3.75 3.85,8.25 2.2,8.6 -0.7,17.85 l -0.55,1.5 0.85,0.9 q 0.9,1.4 0.9,2.7 -0.1,1.2 -1.05,2.65 L 41.7,6.4 39.85,7.7 q -1.7,0.7 -3.4,0 Q 34.75,7 34,5.35 L 33.5,3.7 q -0.3,-1.1 -0.2,-1.65 0.1,-0.6 1,-1.9 l 0.8,-1.35 1.35,-0.95 0.2,-0.05 q -2.3,-7.2 -7.8,-12.3 -0.8,-0.85 -1.5,-0.95 -1.05,-0.1 -1.85,1 -0.45,0.5 -0.75,1.45 l -0.5,1.5 -0.35,0.85 0.4,0.4 1.8,2.25 1.2,2.5 q 1.35,2.75 1.5,3.75 l 0.15,2.7 V 2.3 Q 28.8,3.7 27.55,4.15 L 25.85,4.35 23,4.2 Q 21.6,4.15 20.95,3.75 l -0.15,0.2 q -2.35,3.5 -5.6,5.3 -2.55,1.5 -5.4,1.9 l 0.55,2.1 L 9.8,15.4 Q 9.35,16.55 8.5,17.2 7.8,17.7 6.05,18 H 3.7 L 2.85,18.05 Q 2.6,18.15 2.1,18.6 0.4,20.3 -2.05,20 l -0.8,-0.2 -0.25,0.4 -1.5,2.1 -1.6,2.8 q -4.75,9.05 -8.4,13.9 -1.8,2.25 -3.05,3.4 -2.1,1.75 -4.35,2.25 -2.8,0.45 -4.7,-1.15 -2.05,-1.65 -1.95,-5.05 0.1,-2.2 1.6,-5.5 2.45,-5.45 8.95,-15.55 l 3.15,-4.85 0.75,-0.95 v -0.1 q -0.3,-1.5 0.45,-2.8 -1.7,-1.1 -2.6,-2.1 -1.3,-1.4 -1.2,-2.95 0.05,-1.1 0.85,-2.3 1,-1.5 2.35,-2.2 l 0.75,-0.2 q -2.55,-4.65 -2,-9.4 l -2.7,-1.8 -2.8,-2 q -1.6,-1.25 -1.5,-2.6 0.2,-1.25 1.75,-2.25 2.4,-1.7 5.3,-2.7 l 5.85,-1.65 2.2,-0.35 0.55,-2.25 m 16.9,-7.8 Q 8,-37.35 5.1,-39.8 1.95,-42.35 -1.7,-43 l -6.45,0.3 q -2.95,0.85 -5.1,2.7 -2.4,1.95 -3.2,4.7 4.5,-2.4 8.45,-1.85 2.25,0.35 4.1,1.7 1.9,1.4 2.45,3.5 0.55,1.55 0.3,3.7 l -0.9,3.75 q 4.85,0.7 10.2,3.2 l 0.4,-0.9 0.95,-2.25 0.25,-1.05 0.5,-1.05 0.2,-0.95 0.3,-0.95 0.1,-0.9 0.3,-1 0.25,-1.5 -0.2,-0.15 -1.25,-1.85 m 2.5,19.7 -1.7,-0.85 -4.65,-2.05 -1.05,-0.4 -4.7,-1.45 -3.05,-0.75 -1.2,-0.25 -0.35,0.3 -0.5,0.35 q -3.15,2.15 -4.1,3.75 l -0.6,1.55 -0.25,0.8 -0.4,1.5 0.1,0.15 -0.25,1.55 -0.2,1.5 -0.05,0.3 q -0.2,1.85 1.7,4.85 l 0.45,0.75 0.75,0.95 q 1.25,1.55 3.05,2.95 l 1.7,1.2 Q -0.1,4.4 2.6,5.25 5,6.05 7.3,6.05 l 2.5,-0.2 q 1.45,-0.3 2.8,-1 l 2.35,-1.55 1.7,-2 q 0.85,-1.25 1.75,-4.2 0.9,-3.05 0.55,-4.65 l -0.5,-1.7 -0.25,-1.4 -1.8,-1.2 -3.95,-2.3 m -2.55,12.7 0.45,-0.05 1.75,0.2 q 0.55,0.25 0.75,1.1 Q 13,0.45 12.5,1.05 L 11.75,1.8 11.55,1.85 10.45,2.1 9.8,2.15 9.45,2.1 8.45,2 7.3,1.8 Q 6.2,1.5 5.4,0.8 L 5.2,0.65 4.05,1.8 Q 2.95,2.6 1.45,2.55 -0.05,2.4 -1.05,1.5 -2.1,0.55 -2.25,-0.95 v -1.6 q -1.2,-0.3 -2.4,-1.5 l -0.15,-0.15 -0.45,-0.45 -1.1,-1.65 -0.3,-1.15 0.1,-0.8 q 0.4,-0.8 0.95,-1 0.8,-0.2 1.5,0.4 l 1,1.3 1,1.25 3,0.15 1.15,-0.5 q 0.7,-0.3 1.15,-1.05 l 0.5,-0.85 1.25,-0.8 1.55,0.2 q 0.6,0.5 0.7,1.2 0.1,0.75 -0.3,1.3 L 6.85,-5.5 v 1.95 q 0.2,1.05 1.2,1.65 l 0.95,0.35 0.9,0.1 m 1.35,-4.4 q 0.6,-0.8 1.5,-1.1 l 1.8,0.1 1.3,1.2 q 0.5,0.85 0.4,1.8 -0.2,0.9 -0.9,1.55 -0.75,0.65 -1.7,0.7 -0.9,0.05 -1.75,-0.5 -0.75,-0.55 -1.05,-1.45 -0.35,-1.35 0.4,-2.3 m 12.5,2.6 -1,3.3 1.95,0.1 q 0,-1.3 -0.9,-3.45 l -0.05,0.05 M -4,-15.55 q 0.95,-0.15 1.9,0.55 1.05,0.8 1.1,2.1 0.15,1.25 -0.85,2.15 -0.6,0.6 -1.5,0.8 -0.95,0.1 -1.75,-0.35 -0.85,-0.4 -1.2,-1.25 -0.45,-0.9 -0.25,-1.75 0.15,-0.85 0.85,-1.5 0.75,-0.65 1.7,-0.75 m -13.15,-1.15 2.7,1.7 q 0.9,-2.35 1.9,-3.75 l -4.6,2.05 M 4.3,11.05 Q -0.75,10.35 -5.95,6.85 -8.9,4.9 -11,2.6 h -0.9 q -1.15,0.05 -1.35,0.6 -0.2,0.4 0.1,0.85 l 0.75,0.65 1.25,0.35 1.2,0.25 q 1.55,0.55 1.75,1.75 0.15,1.1 -1.25,2.4 l -0.55,1 0.85,1.15 0.75,0.7 0.95,0.35 1,-0.7 q 1.05,-0.9 2.2,-0.8 1.35,0.15 1.8,1.35 0.15,0.2 0.15,1.4 l 0.35,1.3 0.65,0.35 0.65,-0.15 Q -1.1,14.2 -0.3,13.25 0.45,12.3 1.75,12.5 L 3,13 4.2,13.6 5.7,13.65 6.05,13.4 5.9,12.7 4.95,11.2 4.3,11.05 m -10.65,5.8 -0.7,0.05 q -1.65,0.3 -3.3,-0.55 l -1.7,-1.2 -1.7,3.3 -1.95,3.35 q 2.7,0.9 4.95,2.5 l 0.35,-0.75 q 1.5,-2.9 3.65,-5.8 l 0.6,-0.75 -0.2,-0.15 m -17.3,20.85 q -0.5,1.65 0.3,2.2 0.85,0.55 2.25,-0.55 1.7,-1.3 3.35,-3.5 l 0.6,-0.8 -2.4,-0.85 -2.5,-1.05 q -1.15,2.45 -1.6,4.55 m 5,-11 -1.85,3.35 q 3.15,1.15 4.9,2.25 l 0.2,0.2 0.4,-0.7 1.85,-2.9 0.75,-1.5 -0.4,-0.25 Q -14.15,26.4 -15.5,26 l -2.15,-0.7 -0.1,-0.05 -0.9,1.45"
         fill="#000000"
         fill-rule="evenodd"
         stroke="none"
         id="path1" />
      <path
         d="m 9.95,-33.85 1.25,1.85 0.2,0.15 -0.25,1.5 -0.3,1 -0.1,0.9 -0.3,0.95 -0.2,0.95 -0.5,1.05 -0.25,1.05 -0.95,2.25 -0.4,0.9 q -5.35,-2.5 -10.2,-3.2 l 0.9,-3.75 q 0.25,-2.15 -0.3,-3.7 -0.55,-2.1 -2.45,-3.5 -1.85,-1.35 -4.1,-1.7 -3.95,-0.55 -8.45,1.85 0.8,-2.75 3.2,-4.7 2.15,-1.85 5.1,-2.7 L -1.7,-43 q 3.65,0.65 6.8,3.2 2.9,2.45 4.85,5.95"
         fill="#dbade2"
         fill-rule="evenodd"
         stroke="none"
         id="path2" />
      <path
         d="M 20.15,-14.65 11,-20 l 0.95,-1.45 0.85,-1.75 0.35,-1.25 0.5,-1.15 0.35,-0.95 0.95,-4.75 0.1,-0.25 1.2,-0.85 q 1.7,-0.85 3.9,-0.9 4.3,-0.15 8.35,2.1 3.85,2.05 6.45,5.7 2.45,3.45 3.45,7.9 1,4.25 0.5,8.7 -1.55,-3.1 -4,-6.4 -2.25,-3 -4.35,-4.2 -3,-1.85 -5.8,-0.7 -1.5,0.65 -2.8,2.25 l -1.8,3.3"
         fill="#cc7f9f"
         fill-rule="evenodd"
         stroke="none"
         id="path3" />
      <path
         d="M 4.3,11.05 4.95,11.2 5.9,12.7 6.05,13.4 5.7,13.65 4.2,13.6 3,13 1.75,12.5 Q 0.45,12.3 -0.3,13.25 -1.1,14.2 -0.65,15.4 L -1.3,15.55 -1.95,15.2 -2.3,13.9 q 0,-1.2 -0.15,-1.4 -0.45,-1.2 -1.8,-1.35 -1.15,-0.1 -2.2,0.8 l -1,0.7 -0.95,-0.35 -0.75,-0.7 -0.85,-1.15 0.55,-1 Q -8.05,8.15 -8.2,7.05 -8.4,5.85 -9.95,5.3 L -11.15,5.05 -12.4,4.7 -13.15,4.05 q -0.3,-0.45 -0.1,-0.85 0.2,-0.55 1.35,-0.6 h 0.9 q 2.1,2.3 5.05,4.25 5.2,3.5 10.25,4.2"
         fill="#dcc4ce"
         fill-rule="evenodd"
         stroke="none"
         id="path4" />
      <path
         d="m -18.65,26.7 0.9,-1.45 0.1,0.05 2.15,0.7 q 1.35,0.4 2.7,1.15 l 0.4,0.25 -0.75,1.5 -1.85,2.9 -0.4,0.7 -0.2,-0.2 q -1.75,-1.1 -4.9,-2.25 l 1.85,-3.35 m -5,11 q 0.45,-2.1 1.6,-4.55 l 2.5,1.05 2.4,0.85 -0.6,0.8 q -1.65,2.2 -3.35,3.5 -1.4,1.1 -2.25,0.55 -0.8,-0.55 -0.3,-2.2 m 17.3,-20.85 0.2,0.15 -0.6,0.75 q -2.15,2.9 -3.65,5.8 l -0.35,0.75 Q -13,22.7 -15.7,21.8 l 1.95,-3.35 1.7,-3.3 1.7,1.2 q 1.65,0.85 3.3,0.55 l 0.7,-0.05"
         fill="#5f5855"
         fill-rule="evenodd"
         stroke="none"
         id="path5" />
      <path
         d="m 16.4,-11.85 -0.8,1.7 q -0.65,0.95 -1.65,1 -1.05,0 -1.65,-0.75 -0.65,-0.7 -0.55,-1.75 l 0.25,-1.25 0.45,-1.25 3.95,2.3 M 10.75,-15 9.8,-12.25 q -0.65,1.4 -1.5,2.1 l -0.15,0.1 q -1.4,1 -2.6,0.2 -0.65,-0.45 -0.8,-1.35 l -0.1,-0.65 0.15,-1.05 0.6,-1.55 0.55,-1.6 0.15,-1 4.65,2.05 m 1,16.8 1.35,0.4 q 1.25,0.5 1.85,1.1 L 12.6,4.85 q -1.35,0.7 -2.8,1 Q 9.25,5.5 9,4.8 8.7,4.1 8.9,3.4 9.05,2.7 9.6,2.25 l 0.2,-0.1 0.65,-0.05 1.1,-0.25 0.2,-0.05 m -6.7,-19.25 -0.1,0.3 -0.35,1.25 q -0.3,1.15 -0.7,1.6 -0.85,0.95 -2.05,0.6 -1.15,-0.35 -1.6,-1.8 -0.3,-1.05 -0.05,-2.55 l 0.15,-0.85 4.7,1.45 m -15.25,8.9 0.75,-0.15 q 0.7,0 1.9,0.7 l 0.9,0.55 0.3,1.15 1.1,1.65 0.45,0.45 -0.25,0.5 Q -5.8,-2.6 -7.3,-2.8 L -8.55,-3.15 -8.8,-3.3 q -1.9,-3 -1.7,-4.85 l 0.05,-0.3 0.25,-0.1 m 33.95,5.3 0.05,-0.05 q 0.9,2.15 0.9,3.45 l -1.95,-0.1 1,-3.3 m -40.9,-13.45 4.6,-2.05 q -1,1.4 -1.9,3.75 l -2.7,-1.7"
         fill="#ce9e81"
         fill-rule="evenodd"
         stroke="none"
         id="path6" />
      <path
         d="m 8.3,-10.15 1.05,0.85 0.8,1.5 q 0.35,1 0.35,2.2 0.05,1.1 -0.3,2.8 L 9.9,-1.45 9,-1.55 8.05,-1.9 q -1,-0.6 -1.2,-1.65 V -5.5 L 6.9,-6.65 Q 7.3,-7.2 7.2,-7.95 7.1,-8.65 6.5,-9.15 L 4.95,-9.35 3.7,-8.55 3.2,-7.7 q -0.45,0.75 -1.15,1.05 l -1.15,0.5 -3,-0.15 -1,-1.25 1.3,-1.65 q 1.65,-1.7 3.75,-2.4 l 2.7,-0.25 0.1,0.65 q 0.15,0.9 0.8,1.35 1.2,0.8 2.6,-0.2 l 0.15,-0.1 M -4.55,1.35 -4.7,1.05 q -0.45,-1 -0.35,-2.6 l 0.3,-2.15 0.1,-0.35 q 1.2,1.2 2.4,1.5 v 1.6 q 0.15,1.5 1.2,2.45 1,0.9 2.5,1.05 1.5,0.05 2.6,-0.75 L 5.2,0.65 5.4,0.8 q 0.8,0.7 1.9,1 L 8.45,2 7.7,2.9 Q 6.6,3.85 4.8,4.55 L 2.9,5.2 2.6,5.25 Q -0.1,4.4 -2.85,2.55 l -1.7,-1.2"
         fill="#ffffff"
         fill-rule="evenodd"
         stroke="none"
         id="path7" />
      <path
         d="m 12.45,-14.15 -0.45,1.25 -0.25,1.25 q -0.1,1.05 0.55,1.75 0.6,0.75 1.65,0.75 1,-0.05 1.65,-1 l 0.8,-1.7 1.8,1.2 0.25,1.4 0.5,1.7 q 0.35,1.6 -0.55,4.65 -0.9,2.95 -1.75,4.2 l -1.7,2 Q 14.35,2.7 13.1,2.2 L 11.75,1.8 12.5,1.05 Q 13,0.45 12.85,-0.2 12.65,-1.05 12.1,-1.3 L 10.35,-1.5 9.9,-1.45 10.2,-2.8 q 0.35,-1.7 0.3,-2.8 0,-1.2 -0.35,-2.2 L 9.35,-9.3 8.3,-10.15 q 0.85,-0.7 1.5,-2.1 l 0.95,-2.75 1.7,0.85 M 0.35,-18.9 0.2,-18.05 q -0.25,1.5 0.05,2.55 0.45,1.45 1.6,1.8 1.2,0.35 2.05,-0.6 0.4,-0.45 0.7,-1.6 l 0.35,-1.25 0.1,-0.3 1.05,0.4 -0.15,1 -0.55,1.6 -0.6,1.55 -0.15,1.05 -2.7,0.25 q -2.1,0.7 -3.75,2.4 l -1.3,1.65 -1,-1.3 q -0.7,-0.6 -1.5,-0.4 -0.55,0.2 -0.95,1 l -0.1,0.8 -0.9,-0.55 q -1.2,-0.7 -1.9,-0.7 l -0.75,0.15 -0.05,-1.4 0.25,-1.55 -0.1,-0.15 0.4,-1.5 0.25,-0.8 0.6,-1.55 q 0.95,-1.6 4.1,-3.75 l 2.05,-0.4 3.05,0.75 m 10.9,13.05 q -0.75,0.95 -0.4,2.3 0.3,0.9 1.05,1.45 0.85,0.55 1.75,0.5 0.95,-0.05 1.7,-0.7 0.7,-0.65 0.9,-1.55 0.1,-0.95 -0.4,-1.8 l -1.3,-1.2 -1.8,-0.1 q -0.9,0.3 -1.5,1.1 M -4,-15.55 q -0.95,0.1 -1.7,0.75 -0.7,0.65 -0.85,1.5 -0.2,0.85 0.25,1.75 0.35,0.85 1.2,1.25 0.8,0.45 1.75,0.35 0.9,-0.2 1.5,-0.8 1,-0.9 0.85,-2.15 -0.05,-1.3 -1.1,-2.1 -0.95,-0.7 -1.9,-0.55 m -4.55,12.4 1.25,0.35 q 1.5,0.2 2.25,-0.9 l 0.25,-0.5 0.15,0.15 -0.1,0.35 -0.3,2.15 q -0.1,1.6 0.35,2.6 l 0.15,0.3 q -1.8,-1.4 -3.05,-2.95 l -0.95,-1.55 m 17,5.15 1,0.1 0.35,0.05 -0.2,0.1 Q 9.05,2.7 8.9,3.4 8.7,4.1 9,4.8 9.25,5.5 9.8,5.85 L 7.3,6.05 Q 5,6.05 2.6,5.25 L 2.9,5.2 4.8,4.55 Q 6.6,3.85 7.7,2.9 L 8.45,2"
         fill="#d8baa8"
         fill-rule="evenodd"
         stroke="none"
         id="path8" />
    </g>
    <g
       id="sprite1"
       transform="translate(17.4,15.85)">
      <use
         ffdec:characterId="31"
         height="57.200001"
         transform="matrix(0.5366,0,0,0.5366,-16.6582,-14.546)"
         width="70.75"
         xlink:href="#sprite2"
         id="use8" />
    </g>
    <g
       id="sprite2"
       transform="translate(-8.65,-10.35)">
      <use
         ffdec:characterId="30"
         height="57.200001"
         transform="translate(8.65,10.35)"
         width="70.75"
         xlink:href="#shape1"
         id="use9" />
    </g>
    <g
       id="shape1"
       transform="translate(-8.65,-10.35)">
      <path
         d="m 14.8,41.7 q 0.65,-1.75 2.65,-2.5 1.8,-0.8 3.7,-0.25 1.15,0.45 2.25,1.2 l 0.9,0.4 q 1.65,0.9 2.85,2.5 L 37.8,30.1 q 2.35,-2.8 3.75,-3.95 1.5,-1.15 4.25,-2.4 18.2,-8.85 27.65,-12.6 2.15,-0.8 3.25,-0.8 h 0.8 l 1.9,2.4 -0.2,0.8 q -0.2,1.1 -1.55,3 -5.85,8.25 -18.85,23.8 -1.85,2.35 -3.35,3.5 -1.4,1.15 -4.75,2.75 l -15.15,7.15 q 1.2,1.6 1.75,3.4 l 0.2,1 0.55,2.5 q 0.1,1.95 -1.1,3.55 -1.2,1.65 -3.05,1.9 l -1.3,0.05 q -1.65,0.2 -3.45,-0.65 -1.85,-0.9 -3,-2.6 L 25,60.95 23.8,62.1 q -2.6,2.85 -4.3,3.95 -2.85,1.8 -5.5,1.45 l -1.65,-0.5 -1.2,-0.7 -0.2,-0.2 q -1,-0.85 -1.6,-1.9 L 9.25,64 9.15,63.8 8.75,62.4 q -0.2,-0.8 -0.05,-1.7 0.25,-2.65 2.7,-5.05 1.5,-1.3 4.9,-3.15 L 17.7,51.55 16.05,50 q -1.35,-1.5 -1.8,-3.6 -0.4,-1.85 0.25,-3.45 l 0.3,-1.25"
         fill="#000000"
         fill-opacity="0.372549"
         fill-rule="evenodd"
         stroke="none"
         id="path9" />
    </g>
  </defs>
</svg>
