<?xml version="1.0" encoding="UTF-8" standalone="no"?>
<svg
   ffdec:objectType="frame"
   height="60.950001"
   width="65.961868"
   version="1.1"
   id="svg5"
   xmlns:xlink="http://www.w3.org/1999/xlink"
   xmlns="http://www.w3.org/2000/svg"
   xmlns:svg="http://www.w3.org/2000/svg"
   xmlns:ffdec="https://www.free-decompiler.com/flash">
  <g
     transform="translate(34.272581,31)"
     id="g1">
    <use
       ffdec:characterId="17"
       height="119.15"
       id="rarity"
       transform="translate(-58.5,-60.65)"
       width="119.15"
       xlink:href="#sprite0" />
    <use
       ffdec:characterId="128"
       height="61.049999"
       transform="translate(-34.25,-31.1)"
       width="65.949997"
       xlink:href="#shape0"
       id="use1" />
  </g>
  <defs
     id="defs5">
    <g
       id="shape0"
       transform="translate(33.95,33.6)">
      <path
         d="m -33.7,13.35 q -0.65,-1.85 0.25,-5.55 l 2.65,-11 q 1.1,-4.65 2.6,-6.55 1.4,-1.7 3.9,-3 1.45,-0.7 4.7,-1.85 2.9,-1.1 4.6,-2.15 2.35,-1.45 3.4,-3.5 l 1,-2.7 1.15,-2.6 q 0.85,-1.1 2.4,-1.9 l 2.9,-1.2 11.05,-3.8 4,-1.05 3.95,0.35 q 2.05,0.85 3.55,3.3 l 2.15,4.65 q 0.95,2.25 4.35,8.55 2.8,5.3 3.9,8.7 l 1.3,4.8 1.1,4.85 0.7,2.9 q 0.25,1.7 -0.2,2.9 -0.65,1.65 -3.3,3.5 l -8.2,6.25 -7.8,6.65 q -2.65,2.55 -4.3,3.15 l -2.4,0.4 -2.4,-0.05 -8.75,-0.65 -8.7,-1.4 Q -21.5,23.6 -26.7,20.15 -29.25,18.6 -31.65,16.2 -33.3,14.45 -33.7,13.35 m 17.4,4.8 2.3,1.2 2.35,1.1 5,0.75 7.9,0.45 3.6,-0.15 0.9,-0.35 Q 4.8,18.5 4.3,12.8 3.5,5 2.25,-1.65 l -1.2,-4.8 Q 0.5,-7.85 -0.3,-8.5 -0.8,-8.9 -1.95,-9 l -3.3,0.15 -7.75,1.1 -7.75,1.7 -2.15,0.55 -0.55,0.1 q -0.55,0.8 -0.9,2.4 l -2.25,9.65 q -0.8,3.1 -0.3,4.85 0.8,2.85 4.5,4.4 l 3.05,1.1 q 2,0.65 3.05,1.15 m 14,-40.65 -2.05,1.2 -0.95,1.9 q -1.7,4.6 -5.7,7.25 -1.15,0.8 -2.9,1.65 l 10.55,-1.9 q 3.55,-0.65 5.45,0.05 0.3,-5.05 -1.35,-10 l -0.4,-1.15 -2.65,1 M 23.3,7.3 q 1.6,-1.25 2,-2.35 0.4,-1.05 -0.1,-3 -1.35,-6.4 -2.7,-9.9 l -2.3,-4.7 -6.4,-12.55 q -0.85,-1.65 -1.8,-2.05 -1.05,-0.45 -2.85,0.35 l -5.5,2.1 v 0.05 q -0.1,1.7 0.2,3.1 l 0.85,3.15 0.8,3.1 q 0.65,3.45 -0.65,5.5 1.05,1.75 1.55,4.5 L 7.35,1 8.4,10.4 8.9,14.95 Q 9.15,16.9 9.55,18.5 L 23.3,7.3"
         fill="#000000"
         fill-rule="evenodd"
         stroke="none"
         id="path1" />
      <path
         d="m -2.3,-22.5 2.65,-1 0.4,1.15 q 1.65,4.95 1.35,10 -1.9,-0.7 -5.45,-0.05 l -10.55,1.9 q 1.75,-0.85 2.9,-1.65 4,-2.65 5.7,-7.25 l 0.95,-1.9 2.05,-1.2"
         fill="#8c8c8c"
         fill-rule="evenodd"
         stroke="none"
         id="path2" />
      <path
         d="M 23.3,7.3 9.55,18.5 Q 9.15,16.9 8.9,14.95 L 8.4,10.4 7.35,1 6.4,-5.4 q -0.5,-2.75 -1.55,-4.5 1.3,-2.05 0.65,-5.5 l -0.8,-3.1 -0.85,-3.15 q -0.3,-1.4 -0.2,-3.1 v -0.05 l 5.5,-2.1 q 1.8,-0.8 2.85,-0.35 0.95,0.4 1.8,2.05 l 6.4,12.55 2.3,4.7 q 1.35,3.5 2.7,9.9 0.5,1.95 0.1,3 -0.4,1.1 -2,2.35"
         fill="#747474"
         fill-rule="evenodd"
         stroke="none"
         id="path3" />
      <path
         d="m -16.3,18.15 q -1.05,-0.5 -3.05,-1.15 l -3.05,-1.1 q -3.7,-1.55 -4.5,-4.4 -0.5,-1.75 0.3,-4.85 L -24.35,-3 q 0.35,-1.6 0.9,-2.4 l 0.55,-0.1 2.15,-0.55 7.75,-1.7 7.75,-1.1 3.3,-0.15 q 1.15,0.1 1.65,0.5 0.8,0.65 1.35,2.05 l 1.2,4.8 Q 3.5,5 4.3,12.8 q 0.5,5.7 1.45,8.35 l -0.9,0.35 -3.6,0.15 -7.9,-0.45 -5,-0.75 -2.35,-1.1 -2.3,-1.2"
         fill="#646464"
         fill-rule="evenodd"
         stroke="none"
         id="path4" />
    </g>
    <g
       id="sprite1"
       transform="translate(17.4,15.85)">
      <use
         ffdec:characterId="31"
         height="57.200001"
         transform="matrix(0.5366,0,0,0.5366,-16.6582,-14.546)"
         width="70.75"
         xlink:href="#sprite2"
         id="use4" />
    </g>
    <g
       id="sprite2"
       transform="translate(-8.65,-10.35)">
      <use
         ffdec:characterId="30"
         height="57.200001"
         transform="translate(8.65,10.35)"
         width="70.75"
         xlink:href="#shape1"
         id="use5" />
    </g>
    <g
       id="shape1"
       transform="translate(-8.65,-10.35)">
      <path
         d="m 14.8,41.7 q 0.65,-1.75 2.65,-2.5 1.8,-0.8 3.7,-0.25 1.15,0.45 2.25,1.2 l 0.9,0.4 q 1.65,0.9 2.85,2.5 L 37.8,30.1 q 2.35,-2.8 3.75,-3.95 1.5,-1.15 4.25,-2.4 18.2,-8.85 27.65,-12.6 2.15,-0.8 3.25,-0.8 h 0.8 l 1.9,2.4 -0.2,0.8 q -0.2,1.1 -1.55,3 -5.85,8.25 -18.85,23.8 -1.85,2.35 -3.35,3.5 -1.4,1.15 -4.75,2.75 l -15.15,7.15 q 1.2,1.6 1.75,3.4 l 0.2,1 0.55,2.5 q 0.1,1.95 -1.1,3.55 -1.2,1.65 -3.05,1.9 l -1.3,0.05 q -1.65,0.2 -3.45,-0.65 -1.85,-0.9 -3,-2.6 L 25,60.95 23.8,62.1 q -2.6,2.85 -4.3,3.95 -2.85,1.8 -5.5,1.45 l -1.65,-0.5 -1.2,-0.7 -0.2,-0.2 q -1,-0.85 -1.6,-1.9 L 9.25,64 9.15,63.8 8.75,62.4 q -0.2,-0.8 -0.05,-1.7 0.25,-2.65 2.7,-5.05 1.5,-1.3 4.9,-3.15 L 17.7,51.55 16.05,50 q -1.35,-1.5 -1.8,-3.6 -0.4,-1.85 0.25,-3.45 l 0.3,-1.25"
         fill="#000000"
         fill-opacity="0.372549"
         fill-rule="evenodd"
         stroke="none"
         id="path5" />
    </g>
  </defs>
</svg>
