<?xml version="1.0" encoding="UTF-8" standalone="no"?>
<svg
   ffdec:objectType="frame"
   height="94.171051"
   width="85.934784"
   version="1.1"
   id="svg8"
   xmlns:xlink="http://www.w3.org/1999/xlink"
   xmlns="http://www.w3.org/2000/svg"
   xmlns:svg="http://www.w3.org/2000/svg"
   xmlns:ffdec="https://www.free-decompiler.com/flash">
  <g
     transform="translate(46.234783,48.371053)"
     id="g1">
    <use
       ffdec:characterId="17"
       height="119.15"
       id="rarity"
       transform="translate(-58.5,-60.65)"
       width="119.15"
       xlink:href="#sprite0" />
    <use
       ffdec:characterId="1285"
       height="94.349998"
       transform="translate(-46.25,-48.35)"
       width="85.949997"
       xlink:href="#shape0"
       id="use1" />
  </g>
  <defs
     id="defs8">
    <g
       id="shape0"
       transform="translate(44.95,46.45)">
      <path
         d="m -3.05,-32.4 q -0.4,2.3 -0.2,4.3 0.05,0.85 0.45,1.3 0.35,0.35 1.15,0.6 l 2.9,0.85 1.05,0.2 1.35,-0.35 1.85,-0.45 q 1.05,-0.25 1.7,-0.6 2.5,-1.3 2.9,-4.8 l 0.1,-2.05 -0.65,-2.35 -0.6,-1.35 -1.8,-1.75 -1.6,-0.9 -3.2,-0.1 q -0.95,0.3 -2,1 l -0.9,0.6 -1.05,0.95 q -0.65,0.85 -1,2.5 l -0.45,2.4 m 0.75,-12.55 q 3.3,-1.7 6.75,-1.5 2.55,0.2 4.9,1.45 2.35,1.25 4,3.3 3.25,4.05 3.05,9.7 -0.15,4.8 -2.9,8.3 -1.4,1.75 -3.4,2.85 -1.4,0.85 -2.95,1.2 l 0.15,1.25 0.25,5.15 q 0.3,2.95 1.15,5.05 0.7,1.6 1.7,2.7 0.6,0.65 1.4,1.1 l 0.75,-1.85 q 1.05,-2.2 2.75,-3.7 0.75,-0.6 1.6,-1.05 l -0.2,-1.05 q -0.6,-4.65 2,-8.8 1.4,-2.3 3.45,-3.65 2.55,-1.65 5.8,-1.45 3.2,0.15 5.8,1.85 2.5,1.6 4.15,4.4 1.55,2.6 2,5.75 0.75,5.4 -1.85,8.75 -1.8,2.25 -4.95,3.15 -2.9,0.75 -5.95,0.1 -1.9,4.25 -3.4,8.55 2.6,1.05 4.7,2.75 3.65,3.05 4.7,7.2 l 0.4,2.45 2.05,0.3 q 2.65,0.9 4.15,3.7 1.25,2.45 1.25,5.5 0,2.65 -0.9,4.95 -1,2.45 -2.9,4 -1.8,1.35 -4.7,2.05 l -3.85,0.45 q -3.1,-0.1 -6.1,-2.1 l -2.2,-2.05 q -2.4,-3.1 -1.65,-7.95 0.25,-2 0.85,-3.35 0.6,-1.35 2.05,-2.95 1.55,-1.55 2.9,-2.2 1.85,-0.85 3.5,-0.3 l 0.35,0.1 -0.2,-1.1 Q 27.65,16.2 26.4,14.65 24.7,12.8 22.05,11.7 l -1.3,4.65 -1.35,5.3 q -0.7,3.1 -1.6,5.25 l -1.1,2.75 -1.1,2.75 -0.75,2.45 -0.8,2.45 q -0.65,1.45 -1.6,2.05 L 11.2,39.8 q -0.75,0 -1.25,-0.45 -1.2,-0.9 -0.5,-3.4 0.6,-2.55 2.1,-7 l 2.2,-7 1,-4.15 q 0.9,-4 2.05,-7.75 L 16.35,9.85 Q 13.6,8.8 11.95,6.1 10.3,3.5 10.5,0.65 L 8.65,-0.4 Q 6.3,-2.1 4.9,-4.95 l -0.1,3.6 -0.55,9.9 Q 3.15,24.4 1.4,35.6 1.2,36.9 0.65,37.4 0,37.95 -0.9,37.65 L -2.2,36.6 q -0.5,-0.9 -0.35,-3.3 l 1.3,-20 q -2.75,2.45 -6.5,2.45 -3.75,0 -6.6,-2.35 l 0.4,2.95 0.5,4.2 1.5,7.15 1.4,7.2 q 0.4,2.6 -0.9,3.35 -0.5,0.4 -1.25,0.3 L -13.95,38 q -0.85,-0.7 -1.3,-2.25 -0.4,-0.9 -0.6,-2.5 l -0.45,-2.5 -0.8,-2.85 -0.9,-2.85 -1,-5.4 -0.75,-5.4 -0.1,-0.6 -0.65,1.25 q -1.9,3.25 -3.55,4.8 l -1.4,1.15 -1.3,1.25 -1.1,1.65 -1.1,1.55 -0.65,0.7 2,0.5 q 3.2,1.3 4.55,4.8 1.2,2.85 0.65,6.6 -0.6,3.5 -2.35,5.75 -2.1,2.75 -5.7,3.75 l -6.85,0.3 q -2.25,-0.35 -3.55,-1.2 -2.15,-1.25 -3.3,-4.2 -0.95,-2.45 -0.75,-5.1 0.2,-2.75 1.65,-4.85 0.7,-1.1 2.2,-2.4 1.25,-1.05 2.85,-1.65 0.85,-2.95 3.2,-4.75 -3.6,0.3 -6.15,-1.85 -1.25,-1.1 -1.95,-2.6 -0.7,-1.55 -0.55,-3.2 0.2,-2.9 2.75,-5.5 2.4,-2.3 5.2,-2.85 3.65,-0.65 6.4,1.45 2.9,2.1 3.3,5.75 2.45,-3.6 3.1,-5.55 0.8,-2.5 0.6,-7.1 l -1.95,-6.7 q -3.15,0.3 -5.95,-0.7 -3.05,-1.25 -4.55,-3.65 -2.3,-3.65 -0.95,-8.95 0.75,-3.05 2.6,-5.45 1.95,-2.65 4.55,-4 2.8,-1.4 6,-1.25 3.25,0.2 5.6,2.05 1.85,1.55 3.05,4 2.2,4.4 1.1,8.95 -1.15,4.9 -5.05,7.45 l -0.6,0.65 0.05,0.85 1.55,5.3 1.55,3.2 2.4,4.2 q 1.85,2.2 4,2.65 l 2.95,-0.2 Q -4.4,10 -3.5,8.85 l 1.75,-3.2 0.85,-1.5 0.2,-11 q 0.15,-8.45 0.85,-12.2 -2.6,-0.35 -4.1,-0.85 -2.2,-0.75 -3.5,-2.1 -1.7,-1.8 -2.25,-4.65 -0.3,-1.95 0,-5.25 0.45,-4.7 1.95,-7.65 1.85,-3.4 5.45,-5.4 m 21.15,40.6 1.3,-0.5 q -1.1,-1.05 -1.8,-2.25 -1.3,1.2 -2.05,3.5 1.25,-0.2 2.55,-0.75 m 3.85,-9.25 q -0.05,1.4 0.65,2.7 0.7,1.3 1.9,2.25 0.7,0.55 1.25,0.65 l 1.6,0.05 2.1,-0.05 q 1.15,-0.05 2,-0.65 l 0.8,-0.9 0.4,-0.8 0.05,-1.5 -0.15,-1.65 q -0.1,-1.5 -0.55,-2.35 l -1.15,-1.3 -1.2,-1.45 -1.15,-0.7 -1.45,-0.4 -0.5,-0.05 q -1.05,0 -1.85,0.6 l -1.3,1.15 -0.55,0.8 -0.45,1.15 q -0.4,1.3 -0.45,2.35 v 0.1 m 12,38.35 -0.05,-0.05 -1.3,-0.75 -0.4,-0.25 -0.5,1.3 q -0.8,1.8 -1.7,2.35 -1.05,0.6 -2.25,0 -1.3,-0.6 -1.5,-1.85 -0.1,-0.8 0.3,-1.85 l 0.55,-1.15 -0.45,0.1 q -1.05,0.3 -2.05,1.75 -1.45,2.1 -1.75,4.05 v 0.1 q -0.2,2.55 1.25,4.25 1.15,1.4 3.25,1.65 l 3.8,-0.3 q 1.4,-0.4 2.2,-1 2.2,-1.8 1.75,-5.55 -0.15,-1.8 -1.15,-2.8 M 20.05,0.7 15.6,1.5 q 0.25,1.85 1.55,2.85 L 18.4,5 20.05,0.7 m -44.15,-22.9 -0.45,0.1 -0.6,0.25 -0.65,0.3 -1.3,1.35 -1.25,1.2 -0.85,2.25 -0.2,1.05 -0.15,0.6 -0.05,1.5 0.3,0.8 0.7,1 q 0.75,0.7 1.9,0.85 l 2.1,0.25 1.6,0.15 q 0.55,-0.1 1.35,-0.55 1.3,-0.8 2.1,-2.05 0.8,-1.25 0.95,-2.7 0.05,-1.05 -0.25,-2.35 l -0.35,-1.25 q -0.05,-0.3 -0.45,-0.8 l -1.1,-1.3 q -1,-0.85 -2.35,-0.8 l -1,0.15 m -11.55,35.5 -1.35,1 -0.5,0.35 -0.35,0.4 -0.45,0.85 q -0.25,0.5 -0.1,0.9 l 0.1,0.25 0.3,0.55 0.95,0.55 4.2,0.5 h 0.65 l 1.1,-0.2 q 0.15,-1.25 0,-1.8 l -0.95,-2.8 -0.5,-0.55 -0.65,-0.35 h -1.1 -0.8 l -0.55,0.35 m -3.6,25.1 -0.05,0.15 0.25,0.9 0.35,1.05 0.65,0.9 q 0.25,0.25 1,0.5 l 1.55,0.35 3.1,-0.2 1.4,-0.35 q 0.65,-0.25 1.5,-0.9 l 1,-1.15 0.45,-1.45 0.35,-1.35 0.05,-1.65 -0.15,-1.3 -0.3,-0.9 -0.75,-0.8 q -1.15,-0.9 -2.2,-0.9 h -0.65 l -1.25,0.5 -0.05,0.05 0.35,0.85 q 0.4,0.9 0.45,1.45 0.25,1.25 -0.8,2.25 -1.05,1.05 -2.35,0.75 -1.8,-0.3 -2.65,-2.45 l -0.55,0.9 -0.6,0.95 -0.15,1.05 0.05,0.8"
         fill="#000000"
         fill-rule="evenodd"
         stroke="none"
         id="path1" />
      <path
         d="m 0.35,-38.85 2.85,0.2 q 1.1,0.45 1.8,1.2 0.8,1 0.9,2 l -0.05,2.1 -0.25,1.6 q -0.55,1.15 -1.9,1.65 l -2.6,0.3 -2,-0.4 q -1,-0.45 -1.5,-1.1 l -0.65,-1.1 0.45,-2.4 q 0.35,-1.65 1,-2.5 l 1.05,-0.95 0.9,-0.6 M 22.7,-13.6 v -0.1 q 0.05,-1.05 0.45,-2.35 l 0.45,-1.15 0.55,-0.8 1.3,-1.15 q 0.8,-0.6 1.85,-0.6 1.15,0.35 1.75,1.25 l 0.65,1.8 v 0.9 q -0.1,2 -1.95,3.25 -0.5,0.35 -0.9,0.45 l -1.2,0.1 -1.5,-0.3 -1,-0.8 -0.45,-0.5 m -52.1,-2.1 0.2,-1.05 0.85,-2.25 1.25,-1.2 1.3,-1.35 0.65,-0.3 0.6,-0.25 0.45,-0.1 q 1.4,0.5 1.9,1.8 0.4,0.95 0.2,2.75 l -0.1,0.7 q -0.25,0.95 -1.4,1.9 -1.1,0.9 -2.25,1.05 -1.65,0.3 -3.15,-1.1 l -0.5,-0.6"
         fill="#ffffff"
         fill-rule="evenodd"
         stroke="none"
         id="path2" />
      <path
         d="m -29.4,-15.7 0.5,0.6 q 1.5,1.4 3.15,1.1 1.15,-0.15 2.25,-1.05 1.15,-0.95 1.4,-1.9 l 0.1,-0.7 q 0.2,-1.8 -0.2,-2.75 -0.5,-1.3 -1.9,-1.8 l 1,-0.15 q 1.35,-0.05 2.35,0.8 l 1.1,1.3 q 0.4,0.5 0.45,0.8 l 0.35,1.25 q 0.3,1.3 0.25,2.35 -0.15,1.45 -0.95,2.7 -0.8,1.25 -2.1,2.05 -0.8,0.45 -1.35,0.55 l -1.6,-0.15 -2.1,-0.25 q -1.15,-0.15 -1.9,-0.85 l -0.7,-1 -0.3,-0.8 0.05,-1.5 0.15,-0.6"
         fill="#ca5252"
         fill-rule="evenodd"
         stroke="none"
         id="path3" />
      <path
         d="m 0.35,-38.85 q 1.05,-0.7 2,-1 l 3.2,0.1 1.6,0.9 1.8,1.75 0.6,1.35 0.65,2.35 -0.1,2.05 q -0.4,3.5 -2.9,4.8 -0.65,0.35 -1.7,0.6 l -1.85,0.45 -1.35,0.35 -1.05,-0.2 -2.9,-0.85 q -0.8,-0.25 -1.15,-0.6 -0.4,-0.45 -0.45,-1.3 -0.2,-2 0.2,-4.3 l 0.65,1.1 q 0.5,0.65 1.5,1.1 l 2,0.4 2.6,-0.3 q 1.35,-0.5 1.9,-1.65 l 0.25,-1.6 0.05,-2.1 q -0.1,-1 -0.9,-2 -0.7,-0.75 -1.8,-1.2 l -2.85,-0.2"
         fill="#b252ca"
         fill-rule="evenodd"
         stroke="none"
         id="path4" />
      <path
         d="m 27.3,-19.75 0.5,0.05 1.45,0.4 1.15,0.7 1.2,1.45 1.15,1.3 q 0.45,0.85 0.55,2.35 l 0.15,1.65 -0.05,1.5 -0.4,0.8 -0.8,0.9 q -0.85,0.6 -2,0.65 L 28.1,-7.95 26.5,-8 q -0.55,-0.1 -1.25,-0.65 -1.2,-0.95 -1.9,-2.25 -0.7,-1.3 -0.65,-2.7 l 0.45,0.5 1,0.8 1.5,0.3 1.2,-0.1 q 0.4,-0.1 0.9,-0.45 1.85,-1.25 1.95,-3.25 v -0.9 l -0.65,-1.8 q -0.6,-0.9 -1.75,-1.25"
         fill="#52afca"
         fill-rule="evenodd"
         stroke="none"
         id="path5" />
      <path
         d="m 23.6,28.4 q 0.3,-1.95 1.75,-4.05 1,-1.45 2.05,-1.75 l 0.45,-0.1 -0.55,1.15 q -0.4,1.05 -0.3,1.85 0.2,1.25 1.5,1.85 1.2,0.6 2.25,0 0.9,-0.55 1.7,-2.35 l 0.5,-1.3 0.4,0.25 1.3,0.75 0.05,0.05 q 0.4,1.45 -0.25,3 -0.55,1.45 -1.95,2.45 -1.25,0.95 -2.4,1.05 L 28.45,31.2 26.35,30.95 24.65,29.9 23.6,28.4 m -54.65,2.9 q 0.4,0.2 0.9,0.75 0.55,0.7 0.85,2.05 l 0.15,1.35 q -0.05,1.5 -1.8,3.05 l -1,0.7 -1.7,0.65 q -2.35,0.6 -4.7,-0.8 l -0.9,-0.65 -0.05,-0.8 0.15,-1.05 0.6,-0.95 0.55,-0.9 q 0.85,2.15 2.65,2.45 1.3,0.3 2.35,-0.75 1.05,-1 0.8,-2.25 -0.05,-0.55 -0.45,-1.45 l -0.35,-0.85 0.05,-0.05 1.25,-0.5 h 0.65"
         fill="#6e6e6e"
         fill-rule="evenodd"
         stroke="none"
         id="path6" />
      <path
         d="m 23.6,28.4 1.05,1.5 1.7,1.05 2.1,0.25 1.65,0.05 q 1.15,-0.1 2.4,-1.05 1.4,-1 1.95,-2.45 0.65,-1.55 0.25,-3 1,1 1.15,2.8 0.45,3.75 -1.75,5.55 -0.8,0.6 -2.2,1 l -3.8,0.3 Q 26,34.15 24.85,32.75 23.4,31.05 23.6,28.5 v -0.1 m -54.65,2.9 q 1.05,0 2.2,0.9 l 0.75,0.8 0.3,0.9 0.15,1.3 -0.05,1.65 -0.35,1.35 -0.45,1.45 -1,1.15 q -0.85,0.65 -1.5,0.9 l -1.4,0.35 -3.1,0.2 -1.55,-0.35 q -0.75,-0.25 -1,-0.5 l -0.65,-0.9 -0.35,-1.05 -0.25,-0.9 0.05,-0.15 0.9,0.65 q 2.35,1.4 4.7,0.8 l 1.7,-0.65 1,-0.7 q 1.75,-1.55 1.8,-3.05 L -29.3,34.1 q -0.3,-1.35 -0.85,-2.05 -0.5,-0.55 -0.9,-0.75"
         fill="#ababab"
         fill-rule="evenodd"
         stroke="none"
         id="path7" />
    </g>
    <g
       id="sprite1"
       transform="translate(17.4,15.85)">
      <use
         ffdec:characterId="31"
         height="57.200001"
         transform="matrix(0.5366,0,0,0.5366,-16.6582,-14.546)"
         width="70.75"
         xlink:href="#sprite2"
         id="use7" />
    </g>
    <g
       id="sprite2"
       transform="translate(-8.65,-10.35)">
      <use
         ffdec:characterId="30"
         height="57.200001"
         transform="translate(8.65,10.35)"
         width="70.75"
         xlink:href="#shape1"
         id="use8" />
    </g>
    <g
       id="shape1"
       transform="translate(-8.65,-10.35)">
      <path
         d="m 14.8,41.7 q 0.65,-1.75 2.65,-2.5 1.8,-0.8 3.7,-0.25 1.15,0.45 2.25,1.2 l 0.9,0.4 q 1.65,0.9 2.85,2.5 L 37.8,30.1 q 2.35,-2.8 3.75,-3.95 1.5,-1.15 4.25,-2.4 18.2,-8.85 27.65,-12.6 2.15,-0.8 3.25,-0.8 h 0.8 l 1.9,2.4 -0.2,0.8 q -0.2,1.1 -1.55,3 -5.85,8.25 -18.85,23.8 -1.85,2.35 -3.35,3.5 -1.4,1.15 -4.75,2.75 l -15.15,7.15 q 1.2,1.6 1.75,3.4 l 0.2,1 0.55,2.5 q 0.1,1.95 -1.1,3.55 -1.2,1.65 -3.05,1.9 l -1.3,0.05 q -1.65,0.2 -3.45,-0.65 -1.85,-0.9 -3,-2.6 L 25,60.95 23.8,62.1 q -2.6,2.85 -4.3,3.95 -2.85,1.8 -5.5,1.45 l -1.65,-0.5 -1.2,-0.7 -0.2,-0.2 q -1,-0.85 -1.6,-1.9 L 9.25,64 9.15,63.8 8.75,62.4 q -0.2,-0.8 -0.05,-1.7 0.25,-2.65 2.7,-5.05 1.5,-1.3 4.9,-3.15 L 17.7,51.55 16.05,50 q -1.35,-1.5 -1.8,-3.6 -0.4,-1.85 0.25,-3.45 l 0.3,-1.25"
         fill="#000000"
         fill-opacity="0.372549"
         fill-rule="evenodd"
         stroke="none"
         id="path8" />
    </g>
  </defs>
</svg>
