<?xml version="1.0" encoding="UTF-8" standalone="no"?>
<svg
   ffdec:objectType="frame"
   height="79.408699"
   width="37.040833"
   version="1.1"
   id="svg5"
   xmlns:xlink="http://www.w3.org/1999/xlink"
   xmlns="http://www.w3.org/2000/svg"
   xmlns:svg="http://www.w3.org/2000/svg"
   xmlns:ffdec="https://www.free-decompiler.com/flash">
  <g
     transform="translate(18.483333,41.2)"
     id="g1">
    <use
       ffdec:characterId="17"
       height="119.15"
       id="rarity"
       transform="translate(-58.5,-60.65)"
       width="119.15"
       xlink:href="#sprite0" />
    <use
       ffdec:characterId="451"
       height="79.400002"
       transform="translate(-18.5,-41.2)"
       width="37.049999"
       xlink:href="#shape0"
       id="use1" />
  </g>
  <defs
     id="defs5">
    <g
       id="shape0"
       transform="translate(18.1,40.4)">
      <path
         d="m 6.15,-2.4 0.1,2.6 7.35,-0.9 q -0.7,-10.75 -2.55,-21.2 -0.3,-1.55 -1,-2.95 -1.6,-3.1 -3.6,-5.9 l -0.6,-0.45 q -0.7,-0.65 -1,-1.55 l -0.4,-0.3 -0.55,0.65 -0.25,0.2 q -5.35,8.3 -7.4,17.7 l -0.6,3.3 -0.15,1.65 q -0.4,4.35 0.15,8.7 l 5.6,0.9 q 0.2,-4.7 1,-9.3 l 0.05,-1.05 0.3,-1.3 0.15,-0.2 0.45,-0.4 0.25,-0.2 h 0.2 L 4.1,-12.5 5,-12.15 5.25,-12 5.3,-11.95 Q 6,-7.2 6.15,-2.4 m -1.7,-38 q 3,0.6 4.45,3.4 l 1,1.75 q 6.2,6.55 7.8,15.25 0.7,3.8 0.35,7.7 1.65,8.15 0.3,16.25 -0.2,1.1 -1.4,1.3 L 6.1,6.05 Q 5.95,7.4 5,8.35 L -0.75,13.9 -2,15.35 q 1.6,0.95 2.85,2.45 0.45,0.5 0.4,1.3 -0.05,2.35 -1.1,4.5 l -0.1,1.25 -0.25,1.3 -0.8,2.8 q -0.45,6.05 -5.05,9.45 -0.55,0.4 -1.3,0.5 -9.1,1 -10.65,-7.2 -0.25,-1.4 0.25,-2.8 2.75,-7.15 6.5,-13.85 0.45,-0.8 1.35,-1.05 h 0.55 V 13.95 L -7.3,13.9 V 13.8 Q -5.55,8.45 -0.8,5.5 L -8.4,3.75 q -0.8,-0.2 -0.8,-1.1 0.05,-5.3 -0.45,-10.5 -1.65,-12 5.1,-22.15 0.9,-1.35 1.6,-2.85 2.45,-5.35 7.4,-7.55 m -12.15,59.85 -3.85,9.2 -0.95,2.8 0.6,0.9 0.35,0.35 q 0.65,0.3 1.4,0.75 l 2,0.1 q 2.3,-4.65 3.1,-10.05 l 0.8,-3.4 Q -6,19.6 -7.7,19.45"
         fill="#000000"
         fill-rule="evenodd"
         stroke="none"
         id="path1" />
      <path
         d="m 5.85,-31.2 -0.4,0.95 -7.85,16.5 -1.8,3.95 -0.3,0.25 0.15,-1.65 0.6,-3.3 q 2.05,-9.4 7.4,-17.7 l 0.25,-0.2 0.55,-0.65 0.4,0.3 q 0.3,0.9 1,1.55 m -0.6,19.2 0.35,-0.1 0.65,0.2 q 0.15,0.05 0.35,0.15 0.75,0.6 0.85,1.5 0.1,0.7 -0.3,1.3 -0.2,2.9 -0.8,5.8 L 6.15,-2.4 Q 6,-7.2 5.3,-11.95 L 5.25,-12"
         fill="#ffffff"
         fill-rule="evenodd"
         stroke="none"
         id="path2" />
      <path
         d="m 5.85,-31.2 0.6,0.45 q 2,2.8 3.6,5.9 0.7,1.4 1,2.95 1.85,10.45 2.55,21.2 l -7.35,0.9 -0.1,-2.6 0.2,-0.75 q 0.6,-2.9 0.8,-5.8 0.4,-0.6 0.3,-1.3 -0.1,-0.9 -0.85,-1.5 -0.2,-0.1 -0.35,-0.15 L 5.6,-12.1 5.25,-12 5,-12.15 4.1,-12.5 3.65,-12.4 h -0.2 l -0.25,0.2 -0.45,0.4 -0.15,0.2 -0.3,1.3 -0.05,1.05 q -0.8,4.6 -1,9.3 l -5.6,-0.9 Q -4.9,-5.2 -4.5,-9.55 l 0.3,-0.25 1.8,-3.95 7.85,-16.5 0.4,-0.95"
         fill="#c4c4c4"
         fill-rule="evenodd"
         stroke="none"
         id="path3" />
      <path
         d="m -7.7,19.45 q 1.7,0.15 3.45,0.65 l -0.8,3.4 q -0.8,5.4 -3.1,10.05 l -2,-0.1 Q -10.9,33 -11.55,32.7 l -0.35,-0.35 -0.6,-0.9 0.95,-2.8 3.85,-9.2"
         fill="#727272"
         fill-rule="evenodd"
         stroke="none"
         id="path4" />
    </g>
    <g
       id="sprite1"
       transform="translate(17.4,15.85)">
      <use
         ffdec:characterId="31"
         height="57.200001"
         transform="matrix(0.5366,0,0,0.5366,-16.6582,-14.546)"
         width="70.75"
         xlink:href="#sprite2"
         id="use4" />
    </g>
    <g
       id="sprite2"
       transform="translate(-8.65,-10.35)">
      <use
         ffdec:characterId="30"
         height="57.200001"
         transform="translate(8.65,10.35)"
         width="70.75"
         xlink:href="#shape1"
         id="use5" />
    </g>
    <g
       id="shape1"
       transform="translate(-8.65,-10.35)">
      <path
         d="m 14.8,41.7 q 0.65,-1.75 2.65,-2.5 1.8,-0.8 3.7,-0.25 1.15,0.45 2.25,1.2 l 0.9,0.4 q 1.65,0.9 2.85,2.5 L 37.8,30.1 q 2.35,-2.8 3.75,-3.95 1.5,-1.15 4.25,-2.4 18.2,-8.85 27.65,-12.6 2.15,-0.8 3.25,-0.8 h 0.8 l 1.9,2.4 -0.2,0.8 q -0.2,1.1 -1.55,3 -5.85,8.25 -18.85,23.8 -1.85,2.35 -3.35,3.5 -1.4,1.15 -4.75,2.75 l -15.15,7.15 q 1.2,1.6 1.75,3.4 l 0.2,1 0.55,2.5 q 0.1,1.95 -1.1,3.55 -1.2,1.65 -3.05,1.9 l -1.3,0.05 q -1.65,0.2 -3.45,-0.65 -1.85,-0.9 -3,-2.6 L 25,60.95 23.8,62.1 q -2.6,2.85 -4.3,3.95 -2.85,1.8 -5.5,1.45 l -1.65,-0.5 -1.2,-0.7 -0.2,-0.2 q -1,-0.85 -1.6,-1.9 L 9.25,64 9.15,63.8 8.75,62.4 q -0.2,-0.8 -0.05,-1.7 0.25,-2.65 2.7,-5.05 1.5,-1.3 4.9,-3.15 L 17.7,51.55 16.05,50 q -1.35,-1.5 -1.8,-3.6 -0.4,-1.85 0.25,-3.45 l 0.3,-1.25"
         fill="#000000"
         fill-opacity="0.372549"
         fill-rule="evenodd"
         stroke="none"
         id="path5" />
    </g>
  </defs>
</svg>
