<?xml version="1.0" encoding="UTF-8" standalone="no"?>
<svg
   ffdec:objectType="frame"
   height="78.384087"
   width="65.166954"
   version="1.1"
   id="svg6"
   xmlns:xlink="http://www.w3.org/1999/xlink"
   xmlns="http://www.w3.org/2000/svg"
   xmlns:svg="http://www.w3.org/2000/svg"
   xmlns:ffdec="https://www.free-decompiler.com/flash">
  <g
     transform="translate(32.065523,48.093193)"
     id="g1">
    <use
       ffdec:characterId="17"
       height="119.15"
       id="rarity"
       transform="translate(-58.5,-60.65)"
       width="119.15"
       xlink:href="#sprite0" />
    <use
       ffdec:characterId="24"
       height="85.599998"
       transform="matrix(0.9314,0,0,0.9159,-32.05,-48.1)"
       width="69.949997"
       xlink:href="#sprite1"
       id="use1" />
  </g>
  <defs
     id="defs6">
    <g
       id="sprite1">
      <use
         ffdec:characterId="23"
         height="85.599998"
         width="69.949997"
         xlink:href="#shape0"
         id="use2" />
    </g>
    <g
       id="shape0">
      <path
         d="m 57.9,6.55 0.05,0.05 q 2.05,0.85 3.35,3.65 1,2.15 1.75,5.65 l 1,7.15 q -0.2,4.25 -1.3,7.55 -1.65,4.55 -4.75,7.3 -2.4,2.1 -5.05,2.7 l -1.5,-0.45 q -1.3,-0.6 -3.05,-2.35 l -1.6,-1.75 -0.3,-1.6 -0.4,-3.75 -0.85,-5.5 0.3,-5 0.3,-3 0.6,-1.15 0.7,-1.55 0.3,-0.55 1.05,-1.2 3.05,-3.85 q 2,-2.2 4,-2.7 l 0.4,-0.1 q 1,0.05 1.95,0.45 M 5.1,61.5 6.15,62 q 3,1.3 8.1,1.85 l 14.3,0.55 5.95,-0.55 q 7.15,-1 13.45,-3.45 4.95,-1.9 8.4,-4.5 l -0.85,1.3 q -0.8,1.5 -2.8,3.25 -6.05,5.25 -15.75,8.15 -11.05,3.3 -22.9,2.55 l 1.4,-0.3 Q 15.9,70.6 15.9,70.15 15.85,69.6 14.95,69.5 L 10.9,69.4 8.6,69.8 7.1,69.6 H 7 L 6.35,68.65 5.45,67.4 Q 5.2,66.95 5.1,66.2 L 4.9,64.8 4.85,61.7 5.1,61.5"
         fill="#a8a8a8"
         fill-rule="evenodd"
         stroke="none"
         id="path2" />
      <path
         d="m 64.45,45.55 -0.05,0.7 v 0.3 q 1.25,12.45 1.2,19.4 0,5.35 -1.7,7.95 -1.55,2.4 -5.3,4.2 -3.6,1.8 -9.1,3.4 -20.55,6.15 -36,3.05 Q 8.6,83.65 5.8,81.6 4.05,80.35 3,78.55 1.85,76.65 1.9,74.65 v -2.5 L 1.4,70.95 0.8,69.85 Q 0.15,68.4 0.05,65.55 -0.15,59.75 0.25,56.9 0.45,55.6 1,54.75 l 0.1,-0.1 0.05,-0.6 Q 1.6,51.7 3.15,49.85 4.3,48.45 6.3,47.2 L 6.35,47 Q 6.4,46.5 7,44.5 q 0.55,-1.7 0.85,-2.3 0.5,-0.85 1.95,-2.3 1.35,-1.3 3.35,-2.85 1.95,-1.55 3.4,-1.95 l 2.2,-0.3 q 6.45,-0.2 9.8,3.5 l 0.8,1.05 4.9,0.3 0.25,0.1 6.5,-0.3 2.6,0.05 Q 42.7,38 42.15,36.1 41.7,34.35 41.25,29.7 L 40.8,23.65 q -0.4,-5.2 0.35,-7.65 0.6,-2.05 3.05,-5.5 3.55,-5.2 6,-7.8 1.55,-1.6 2.8,-2.2 3.1,-1.35 7.35,1 1.9,1.1 3.3,2.65 1.95,2.25 3.5,7.25 2.8,9.7 2.8,19.8 0,3.45 -0.7,5.5 -0.75,2.05 -2.6,4.15 L 63.8,43.6 q 0.6,0.85 0.65,1.95 m -0.4,-22.5 -1,-7.15 Q 62.3,12.4 61.3,10.25 60,7.45 57.95,6.6 L 57.9,6.55 56.35,6 l -0.4,0.1 -0.4,0.1 q -2,0.5 -4,2.7 l -3.05,3.85 -1.05,1.2 -0.3,0.55 -0.7,1.55 -0.6,1.15 -0.3,3 -0.3,5 0.85,5.5 0.4,3.75 0.3,1.6 1.6,1.75 q 1.75,1.75 3.05,2.35 l 1.5,0.45 3.3,0.2 1.55,-0.1 1.25,0.3 1.35,-1.25 1.65,-1.55 q 2.45,-2.85 2.4,-8.65 l 0.15,-1.45 -0.25,-3 -0.3,-2.05 m -7.1,25.3 0.2,-0.85 -0.1,-0.15 Q 56.7,46.65 54.95,46 53.7,45.65 53.15,45.1 l -10.9,-0.65 0.9,1.45 0.6,1.5 3.35,-0.4 q 2.9,0.15 4.75,1.8 1,0.85 1.5,2.05 l 0.3,1.05 q 2.2,-1.7 3.3,-3.55 M 8.15,57.6 q 3.7,1.3 9.25,1.75 19.25,1.65 32.9,-5.4 l 0.2,-0.1 -0.25,-0.95 q -0.4,-1.1 -1.65,-1.55 l -2.35,-0.05 -1.45,0.5 -1.45,0.2 -0.4,-0.05 -0.3,0.15 q -1.1,0.4 -1.95,-0.75 l -0.5,-1 -0.4,-1.05 q -1,-2.55 -3.5,-4 -2.5,-1.45 -5.15,-1.1 L 28.9,44.5 27.5,44.3 27.15,44.25 Q 26.4,44.2 25.9,43.65 L 24.95,42.2 q -0.8,-1.1 -3.4,-1.7 L 19.1,40.15 q -1.3,0.1 -2.7,1.05 l -2.3,2 q -1,0.9 -1.45,1.75 l -0.7,1.75 q -1.05,3.1 -0.15,4.6 l 1.05,1.3 q 0.6,0.75 0.65,1.4 -1.75,0.95 -3.65,0.5 Q 7.95,54.05 7,52.45 L 6.25,53.2 Q 5.15,54.75 5.9,56.05 6.4,57 8.15,57.6 m 17.2,-0.2 Q 25.2,58 24.6,58.3 l -1.2,0.2 q -1.1,-0.2 -1.85,-1.5 -0.6,-1.05 -0.5,-2.4 0.1,-1.35 0.8,-2.45 1.2,-1.9 3.95,-3.15 1.8,-0.75 3.6,-0.8 1.95,-0.1 3.6,0.6 1.7,0.75 2.75,2.35 1.1,1.65 1,3.45 -0.2,1.55 -1.1,2.15 L 34.5,57.1 q -0.65,-0.05 -1,-0.55 -0.25,-0.4 -0.25,-1.2 l -0.1,-1.25 q -0.3,-1.25 -1.95,-1.65 l -2.7,0.15 q -1.6,0.4 -2.1,0.7 -1.2,0.75 -1.25,1.8 l 0.15,1.15 0.05,1.15 m 31,-1.5 q -3.45,2.6 -8.4,4.5 -6.3,2.45 -13.45,3.45 L 28.55,64.4 14.25,63.85 Q 9.15,63.3 6.15,62 L 5.1,61.5 4.85,61.35 v 0.35 l 0.05,3.1 0.2,1.4 q 0.1,0.75 0.35,1.2 L 6.35,68.65 7,69.6 h 0.1 l 1.5,0.2 2.3,-0.4 4.05,0.1 q 0.9,0.1 0.95,0.65 0,0.45 -0.45,0.7 l -1.4,0.3 -6.9,1.35 -0.2,0.05 q -0.4,1.6 -0.3,2.3 0.2,1.6 1.95,2.7 1.15,0.65 3.2,1.1 11.3,2.5 23.05,1.15 l 6.55,-1.05 0.15,-0.2 1.2,-1.15 q 1.95,-1.75 4.7,-5.65 l 0.25,-0.35 -2.65,-1.7 -0.6,-0.5 q -0.3,-0.45 0.1,-0.75 l 1.45,0.5 1.45,0.8 1.15,0.35 q 2.15,-2.95 3.4,-4.2 0.75,-0.75 1.25,-0.4 0.55,0.4 -0.05,1.35 l -2.3,3.85 q 1.1,0.35 1.7,0.9 0.65,0.55 0.65,1.15 l -0.15,0.65 -0.55,0.4 -0.9,-0.2 -1.95,-1 -3.4,4.55 -0.4,0.55 q 5.75,-1.6 11.25,-4.15 2.45,-1.1 3.25,-2.35 0.85,-1.2 0.95,-4.25 0.1,-7.7 -0.55,-15.65 -1.75,2.5 -4.45,4.6"
         fill="#000000"
         fill-rule="evenodd"
         stroke="none"
         id="path3" />
      <path
         d="M 52.95,40.6 Q 55.6,40 58,37.9 q 3.1,-2.75 4.75,-7.3 1.1,-3.3 1.3,-7.55 l 0.3,2.05 0.25,3 -0.15,1.45 q 0.05,5.8 -2.4,8.65 L 60.4,39.75 59.05,41 57.8,40.7 l -1.55,0.1 -3.3,-0.2 m 4,7.75 q -1.1,1.85 -3.3,3.55 l -0.3,-1.05 Q 52.85,49.65 51.85,48.8 50,47.15 47.1,47 l -3.35,0.4 -0.6,-1.5 -0.9,-1.45 10.9,0.65 q 0.55,0.55 1.8,0.9 1.75,0.65 2.1,1.35 l 0.1,0.15 -0.2,0.85 m -42.9,22.8 q 11.85,0.75 22.9,-2.55 9.7,-2.9 15.75,-8.15 2,-1.75 2.8,-3.25 l 0.85,-1.3 q 2.7,-2.1 4.45,-4.6 0.65,7.95 0.55,15.65 -0.1,3.05 -0.95,4.25 -0.8,1.25 -3.25,2.35 -5.5,2.55 -11.25,4.15 l 0.4,-0.55 3.4,-4.55 1.95,1 0.9,0.2 0.55,-0.4 0.15,-0.65 q 0,-0.6 -0.65,-1.15 -0.6,-0.55 -1.7,-0.9 l 2.3,-3.85 q 0.6,-0.95 0.05,-1.35 -0.5,-0.35 -1.25,0.4 -1.25,1.25 -3.4,4.2 L 47.45,69.75 46,68.95 44.55,68.45 q -0.4,0.3 -0.1,0.75 l 0.6,0.5 2.65,1.7 -0.25,0.35 q -2.75,3.9 -4.7,5.65 l -1.2,1.15 -0.15,0.2 -6.55,1.05 Q 23.1,81.15 11.8,78.65 9.75,78.2 8.6,77.55 q -1.75,-1.1 -1.95,-2.7 -0.1,-0.7 0.3,-2.3 l 0.2,-0.05 6.9,-1.35"
         fill="#8a8a8a"
         fill-rule="evenodd"
         stroke="none"
         id="path4" />
      <path
         d="M 25.35,57.4 25.3,56.25 25.15,55.1 q 0.05,-1.05 1.25,-1.8 0.5,-0.3 2.1,-0.7 l 2.7,-0.15 q 1.65,0.4 1.95,1.65 l 0.1,1.25 q 0,0.8 0.25,1.2 0.35,0.5 1,0.55 l 1.15,-0.35 q 0.9,-0.6 1.1,-2.15 0.1,-1.8 -1,-3.45 -1.05,-1.6 -2.75,-2.35 -1.65,-0.7 -3.6,-0.6 -1.8,0.05 -3.6,0.8 -2.75,1.25 -3.95,3.15 -0.7,1.1 -0.8,2.45 -0.1,1.35 0.5,2.4 0.75,1.3 1.85,1.5 l 1.2,-0.2 Q 25.2,58 25.35,57.4 M 8.15,57.6 Q 6.4,57 5.9,56.05 5.15,54.75 6.25,53.2 L 7,52.45 q 0.95,1.6 2.85,2.05 1.9,0.45 3.65,-0.5 -0.05,-0.65 -0.65,-1.4 L 11.8,51.3 q -0.9,-1.5 0.15,-4.6 l 0.7,-1.75 Q 13.1,44.1 14.1,43.2 l 2.3,-2 q 1.4,-0.95 2.7,-1.05 l 2.45,0.35 q 2.6,0.6 3.4,1.7 l 0.95,1.45 q 0.5,0.55 1.25,0.6 l 0.35,0.05 1.4,0.2 2.25,-0.3 q 2.65,-0.35 5.15,1.1 2.5,1.45 3.5,4 l 0.4,1.05 0.5,1 q 0.85,1.15 1.95,0.75 l 0.3,-0.15 0.4,0.05 1.45,-0.2 1.45,-0.5 2.35,0.05 q 1.25,0.45 1.65,1.55 l 0.25,0.95 -0.2,0.1 Q 36.65,61 17.4,59.35 11.85,58.9 8.15,57.6"
         fill="#8c756e"
         fill-rule="evenodd"
         stroke="none"
         id="path5" />
    </g>
    <g
       id="sprite2"
       transform="translate(17.4,15.85)">
      <use
         ffdec:characterId="31"
         height="57.200001"
         transform="matrix(0.5366,0,0,0.5366,-16.6582,-14.546)"
         width="70.75"
         xlink:href="#sprite3"
         id="use5" />
    </g>
    <g
       id="sprite3"
       transform="translate(-8.65,-10.35)">
      <use
         ffdec:characterId="30"
         height="57.200001"
         transform="translate(8.65,10.35)"
         width="70.75"
         xlink:href="#shape1"
         id="use6" />
    </g>
    <g
       id="shape1"
       transform="translate(-8.65,-10.35)">
      <path
         d="m 14.8,41.7 q 0.65,-1.75 2.65,-2.5 1.8,-0.8 3.7,-0.25 1.15,0.45 2.25,1.2 l 0.9,0.4 q 1.65,0.9 2.85,2.5 L 37.8,30.1 q 2.35,-2.8 3.75,-3.95 1.5,-1.15 4.25,-2.4 18.2,-8.85 27.65,-12.6 2.15,-0.8 3.25,-0.8 h 0.8 l 1.9,2.4 -0.2,0.8 q -0.2,1.1 -1.55,3 -5.85,8.25 -18.85,23.8 -1.85,2.35 -3.35,3.5 -1.4,1.15 -4.75,2.75 l -15.15,7.15 q 1.2,1.6 1.75,3.4 l 0.2,1 0.55,2.5 q 0.1,1.95 -1.1,3.55 -1.2,1.65 -3.05,1.9 l -1.3,0.05 q -1.65,0.2 -3.45,-0.65 -1.85,-0.9 -3,-2.6 L 25,60.95 23.8,62.1 q -2.6,2.85 -4.3,3.95 -2.85,1.8 -5.5,1.45 l -1.65,-0.5 -1.2,-0.7 -0.2,-0.2 q -1,-0.85 -1.6,-1.9 L 9.25,64 9.15,63.8 8.75,62.4 q -0.2,-0.8 -0.05,-1.7 0.25,-2.65 2.7,-5.05 1.5,-1.3 4.9,-3.15 L 17.7,51.55 16.05,50 q -1.35,-1.5 -1.8,-3.6 -0.4,-1.85 0.25,-3.45 l 0.3,-1.25"
         fill="#000000"
         fill-opacity="0.372549"
         fill-rule="evenodd"
         stroke="none"
         id="path6" />
    </g>
  </defs>
</svg>
