<?xml version="1.0" encoding="UTF-8" standalone="no"?>
<svg
   ffdec:objectType="frame"
   height="60"
   width="59.680771"
   version="1.1"
   id="svg5"
   xmlns:xlink="http://www.w3.org/1999/xlink"
   xmlns="http://www.w3.org/2000/svg"
   xmlns:svg="http://www.w3.org/2000/svg"
   xmlns:ffdec="https://www.free-decompiler.com/flash">
  <g
     transform="translate(27.8,30.2)"
     id="g1">
    <use
       ffdec:characterId="17"
       height="119.15"
       id="rarity"
       transform="translate(-58.5,-60.65)"
       width="119.15"
       xlink:href="#sprite0" />
    <use
       ffdec:characterId="640"
       height="60"
       transform="translate(-27.8,-30.2)"
       width="59.700001"
       xlink:href="#shape0"
       id="use1" />
  </g>
  <defs
     id="defs5">
    <g
       id="shape0"
       transform="translate(27.4,29.4)">
      <path
         d="m 12.25,-29.4 q 4.3,0.7 3,5.15 -1.35,4.5 -3.05,8.95 7.25,-0.65 14.45,2 1.65,0.6 2.6,1.9 Q 30.7,-9.45 30,-7 L 27.9,0.4 V 0.6 1.05 L 27.75,1.9 27.7,2.15 q 3.45,6.15 4.55,12.9 0.2,1.25 -0.9,1.85 -8.45,4.5 -15.25,11.05 -1.6,1.55 -3.7,2.35 l -1.5,0.3 -36.4,-2.15 Q -26.3,28.4 -26.45,27.55 -27.3,22.6 -27.4,17.5 l 0.25,-5.1 q 0.45,-3.4 4.2,-4.6 l 1.25,-0.4 q -2.1,-7.45 0.9,-14.4 0.45,-1 1.5,-1.45 6.4,-2.45 12.95,-4.5 -4.05,-2.75 -5.1,-7.4 -0.8,-3.5 2.1,-5.7 3.3,-2.55 7.65,-1.25 4,1.15 5.85,4.9 2,-4.2 6.25,-6.3 l 1.85,-0.7 m 9.95,28.8 1.65,-7.15 q -2.1,-1 -4.55,-1.15 L 9.9,-9.55 H 9.45 l -0.95,1 q -3.35,3.15 -5.3,0 L 2.9,-9.05 Q 2.75,-9.35 2.75,-9.6 2.65,-10.2 3.1,-10.7 l 0.25,-0.25 1.7,-1.15 2.1,-1.05 0.1,-0.75 q 1.7,-3.65 2.85,-7.55 l 0.7,-2.8 -5.5,8.8 -0.6,0.9 q -0.3,0.45 -0.8,0.25 l -0.8,-0.35 q -2.4,-1.2 -3.45,-4.2 -1.5,-4.2 -5.7,-2.75 -0.2,0.7 0.3,1.3 l 0.4,0.6 q 4.2,2.9 6.65,7 l 0.15,0.3 q 0.6,1.05 0.1,1.8 l -0.4,0.45 H 1.1 L 0.7,-9.9 q -2.75,1.5 -5.8,2.55 L -16.45,-3 q -0.15,5.9 0.5,11.8 l 4.3,-0.5 4.1,0.45 q 0.85,0.2 1.35,0.8 l 0.05,0.4 V 10 10.2 l -0.05,0.2 -0.15,0.25 q -7.55,2.25 -15.1,3.7 0.35,2.75 0.25,5.6 v 3.2 l 32.1,1.3 Q 18.2,17.85 26.55,13.05 24.3,7.45 21.85,2 21.6,1.45 21.8,0.8 l 0.4,-1.4"
         fill="#000000"
         fill-rule="evenodd"
         stroke="none"
         id="path1" />
      <path
         d="M -6.15,9.95 -6.1,9.9 q 1.6,-0.45 1.85,-1.75 l -1.3,-2 Q -4.5,5.9 -3.7,4.9 L -3.05,3.55 Q -0.85,5.1 1,7.3 L 2.4,8.15 12.35,2.5 q -0.15,0.35 -0.15,0.75 -0.1,1.1 0.45,2 0.55,0.85 1.55,1.3 l 2,0.2 q 1.1,-0.2 1.85,-1.15 0.75,-0.9 0.8,-2 0,-1.05 -0.6,-1.95 -0.65,-0.9 -1.6,-1.3 l -0.35,-0.1 0.4,-0.15 0.6,0.2 0.4,0.2 0.25,0.2 0.45,0.65 0.05,0.15 3.75,-2.1 -0.4,1.4 q -0.2,0.65 0.05,1.2 2.45,5.45 4.7,11.05 -8.35,4.8 -15.65,11.4 l -32.1,-1.3 v -3.2 q 0.1,-2.85 -0.25,-5.6 7.55,-1.45 15.1,-3.7 L -6.2,10.4 -6.15,10.2 V 10 9.95 m 18.45,4.8 -1.35,0.7 Q 8.4,16.65 6.7,17.05 L 3.15,17.6 1.65,17.65 -2.7,17.1 q -1,-0.3 -1.25,-0.9 0.15,-0.65 0.9,-0.95 l 1.4,-0.2 4.85,-0.55 4.85,-1.4 2.5,-0.75 q 0.7,-0.1 1.35,0.3 0.65,0.4 0.9,1.05 v 0.6 l -0.5,0.45 M 8.35,8.7 5.55,9.95 q -2.15,0.85 -6,0.75 l -4,0.3 q -1.4,0.4 -2.35,1.45 -1.3,1.25 -1.6,3.15 -0.3,1.95 0.7,3.45 1.4,2.2 5.6,2.9 4.1,0.6 8.2,-0.15 4.15,-0.8 7.7,-2.85 1.6,-0.9 2.35,-1.95 1.05,-1.5 0.7,-3.45 Q 16.5,11.85 15.2,10.3 L 13.6,9 q -1,-0.6 -2.85,-0.6 l -2.4,0.3"
         fill="#090909"
         fill-rule="evenodd"
         stroke="none"
         id="path2" />
      <path
         d="M -6.15,9.95 -6.2,9.55 q -0.5,-0.6 -1.35,-0.8 l -4.1,-0.45 -4.3,0.5 Q -16.6,2.9 -16.45,-3 L -5.1,-7.35 Q -2.05,-8.4 0.7,-9.9 l 0.4,-0.25 h 0.05 l 0.4,-0.45 q 0.5,-0.75 -0.1,-1.8 L 1.3,-12.7 q -2.45,-4.1 -6.65,-7 l -0.4,-0.6 q -0.5,-0.6 -0.3,-1.3 4.2,-1.45 5.7,2.75 1.05,3 3.45,4.2 l 0.8,0.35 q 0.5,0.2 0.8,-0.25 l 0.6,-0.9 5.5,-8.8 -0.7,2.8 q -1.15,3.9 -2.85,7.55 l -0.1,0.75 -2.1,1.05 -1.7,1.15 -0.25,0.25 q -0.45,0.5 -0.35,1.1 0,0.25 0.15,0.55 l 0.3,0.5 q 1.95,3.15 5.3,0 l 0.95,-1 H 9.9 l 9.4,0.65 q 2.45,0.15 4.55,1.15 L 22.2,-0.6 18.45,1.5 18.4,1.35 17.95,0.7 17.7,0.5 17.3,0.3 16.7,0.1 16.3,0.25 14.65,0.3 Q 13.55,0.55 12.9,1.35 L 12.35,2.5 2.4,8.15 1,7.3 Q -0.85,5.1 -3.05,3.55 L -3,2.15 Q -3.25,0.65 -4.45,-0.25 -6.1,-1.5 -8.1,-0.65 l -1.45,1.2 q -0.6,0.8 -0.7,1.75 -0.15,2.15 1.55,3.35 1.15,0.85 2.65,0.6 l 0.5,-0.1 1.3,2 Q -4.5,9.45 -6.1,9.9 l -0.05,0.05"
         fill="#0f0f0f"
         fill-rule="evenodd"
         stroke="none"
         id="path3" />
      <path
         d="m -5.55,6.15 -0.5,0.1 q -1.5,0.25 -2.65,-0.6 -1.7,-1.2 -1.55,-3.35 0.1,-0.95 0.7,-1.75 l 1.45,-1.2 q 2,-0.85 3.65,0.4 1.2,0.9 1.45,2.4 L -3.05,3.55 -3.7,4.9 q -0.8,1 -1.85,1.25 M 12.35,2.5 12.9,1.35 q 0.65,-0.8 1.75,-1.05 l 1.65,-0.05 0.35,0.1 q 0.95,0.4 1.6,1.3 0.6,0.9 0.6,1.95 -0.05,1.1 -0.8,2 -0.75,0.95 -1.85,1.15 l -2,-0.2 q -1,-0.45 -1.55,-1.3 -0.55,-0.9 -0.45,-2 0,-0.4 0.15,-0.75 m -4,6.2 2.4,-0.3 q 1.85,0 2.85,0.6 l 1.6,1.3 q 1.3,1.55 1.65,3.25 Q 17.2,15.5 16.15,17 15.4,18.05 13.8,18.95 10.25,21 6.1,21.8 2,22.55 -2.1,21.95 q -4.2,-0.7 -5.6,-2.9 -1,-1.5 -0.7,-3.45 0.3,-1.9 1.6,-3.15 0.95,-1.05 2.35,-1.45 l 4,-0.3 q 3.85,0.1 6,-0.75 L 8.35,8.7 m 3.95,6.05 0.5,-0.45 v -0.6 q -0.25,-0.65 -0.9,-1.05 -0.65,-0.4 -1.35,-0.3 l -2.5,0.75 -4.85,1.4 -4.85,0.55 -1.4,0.2 q -0.75,0.3 -0.9,0.95 0.25,0.6 1.25,0.9 l 4.35,0.55 1.5,-0.05 3.55,-0.55 q 1.7,-0.4 4.25,-1.6 l 1.35,-0.7"
         fill="#ffffff"
         fill-rule="evenodd"
         stroke="none"
         id="path4" />
    </g>
    <g
       id="sprite1"
       transform="translate(17.4,15.85)">
      <use
         ffdec:characterId="31"
         height="57.200001"
         transform="matrix(0.5366,0,0,0.5366,-16.6582,-14.546)"
         width="70.75"
         xlink:href="#sprite2"
         id="use4" />
    </g>
    <g
       id="sprite2"
       transform="translate(-8.65,-10.35)">
      <use
         ffdec:characterId="30"
         height="57.200001"
         transform="translate(8.65,10.35)"
         width="70.75"
         xlink:href="#shape1"
         id="use5" />
    </g>
    <g
       id="shape1"
       transform="translate(-8.65,-10.35)">
      <path
         d="m 14.8,41.7 q 0.65,-1.75 2.65,-2.5 1.8,-0.8 3.7,-0.25 1.15,0.45 2.25,1.2 l 0.9,0.4 q 1.65,0.9 2.85,2.5 L 37.8,30.1 q 2.35,-2.8 3.75,-3.95 1.5,-1.15 4.25,-2.4 18.2,-8.85 27.65,-12.6 2.15,-0.8 3.25,-0.8 h 0.8 l 1.9,2.4 -0.2,0.8 q -0.2,1.1 -1.55,3 -5.85,8.25 -18.85,23.8 -1.85,2.35 -3.35,3.5 -1.4,1.15 -4.75,2.75 l -15.15,7.15 q 1.2,1.6 1.75,3.4 l 0.2,1 0.55,2.5 q 0.1,1.95 -1.1,3.55 -1.2,1.65 -3.05,1.9 l -1.3,0.05 q -1.65,0.2 -3.45,-0.65 -1.85,-0.9 -3,-2.6 L 25,60.95 23.8,62.1 q -2.6,2.85 -4.3,3.95 -2.85,1.8 -5.5,1.45 l -1.65,-0.5 -1.2,-0.7 -0.2,-0.2 q -1,-0.85 -1.6,-1.9 L 9.25,64 9.15,63.8 8.75,62.4 q -0.2,-0.8 -0.05,-1.7 0.25,-2.65 2.7,-5.05 1.5,-1.3 4.9,-3.15 L 17.7,51.55 16.05,50 q -1.35,-1.5 -1.8,-3.6 -0.4,-1.85 0.25,-3.45 l 0.3,-1.25"
         fill="#000000"
         fill-opacity="0.372549"
         fill-rule="evenodd"
         stroke="none"
         id="path5" />
    </g>
  </defs>
</svg>
