<?xml version="1.0" encoding="UTF-8" standalone="no"?>
<svg
   ffdec:objectType="frame"
   height="52.448074"
   width="42.679165"
   version="1.1"
   id="svg5"
   xmlns:xlink="http://www.w3.org/1999/xlink"
   xmlns="http://www.w3.org/2000/svg"
   xmlns:svg="http://www.w3.org/2000/svg"
   xmlns:ffdec="https://www.free-decompiler.com/flash">
  <g
     transform="translate(21.666667,25.296988)"
     id="g1">
    <use
       ffdec:characterId="17"
       height="119.15"
       id="rarity"
       transform="translate(-58.5,-60.65)"
       width="119.15"
       xlink:href="#sprite0" />
    <use
       ffdec:characterId="62"
       height="52.450001"
       transform="translate(-21.65,-25.3)"
       width="42.650002"
       xlink:href="#sprite1"
       id="use1" />
  </g>
  <defs
     id="defs5">
    <g
       id="sprite1">
      <use
         ffdec:characterId="61"
         height="52.450001"
         width="42.650002"
         xlink:href="#shape0"
         id="use2" />
    </g>
    <g
       id="shape0">
      <path
         d="M 0.25,29.9 Q -0.35,22.15 0.4,14.3 0.8,9.65 2.2,7.35 q 1.95,-3.3 7,-5.25 7.7,-2.95 18.55,-1.75 7.05,0.75 11,3.3 2.35,1.55 3.3,3.6 0.7,1.55 0.6,4.45 -0.1,2.95 -0.9,7.8 l -1.2,7.75 -0.4,5.15 -0.5,5.15 q -0.75,5.95 -3.6,9.65 -1.7,2.15 -4,3.3 -2.5,1.25 -5,1 -2.75,-0.25 -4,-2.1 -0.95,-1.25 -0.8,-3 0.15,-1.65 1.15,-3.05 l 0.85,-1.75 q 0.05,-0.65 -0.65,-1.1 -0.65,-0.45 -1.35,-0.3 -1.35,0.3 -1.9,1.95 -0.6,1.6 -0.05,3.35 l 0.8,1.65 0.45,1.7 q 0.1,1.75 -1.6,2.8 -1.25,0.8 -3.25,0.8 Q 13,52.5 9.5,50.25 6.3,48.15 4.2,44.7 1,39.3 0.25,29.9 m 14.1,-18.7 4.5,-0.55 7.7,-0.25 5.4,-0.05 q 1.25,0 1.9,0.35 0.8,0.55 0.95,1.75 l -0.2,2 -0.8,4.1 q -0.85,4.2 -0.8,6.6 0,2.05 -0.55,2.65 -0.75,0.8 -2.8,0.8 h -4.8 -5.15 l -3.75,0.05 -1.9,0.1 Q 11.35,29.1 10.4,28.1 9.85,27.65 9.55,26.35 9.1,24.2 9.05,20.85 L 9,17.7 8.95,15.35 v -1.7 q 0.15,-0.95 0.7,-1.45 0.5,-0.45 1.9,-0.65 l 2.8,-0.35 M 6.6,19.15 6.5,24.9 q 0.1,6.45 1.45,11.45 0.95,3.5 2.45,5.8 2,2.95 4.85,4 0,-3.6 0.45,-5.35 0.8,-3 2.8,-4.45 1.8,-1.4 4.5,-1.4 1.95,0.05 3.55,0.85 0.8,0.4 1.4,0.95 0.7,0.6 1.05,1.45 0.65,1.45 0.35,4.35 -0.3,2.7 -1.55,3.55 l 0.55,0.05 q 1.9,0 3.65,-2.5 1.75,-2.65 2.3,-5.3 l 0.6,-4 2.1,-20.8 Q 37.2,11.1 36.65,10.1 36.15,9.15 34.55,8.25 31.95,7 26.5,6.6 L 21.2,6.35 15.9,6.9 14.1,7.4 Q 12.05,8.1 9.55,9.3 8.1,10 7.6,10.7 7.15,11.35 6.95,13.25 l -0.35,5.9 m 7.1,2.45 0.25,2.45 H 28.7 Q 28.55,23.1 28.8,21.6 l 0.4,-2.45 0.1,-1.45 0.3,-1 0.25,-1.85 -4.05,-0.65 -2.55,-0.05 -9.2,1 q -0.3,0.1 -0.35,0.2 l -0.1,0.35 v 3.45 l 0.1,2.45"
         fill="#000000"
         fill-rule="evenodd"
         stroke="none"
         id="path2" />
      <path
         d="m 24.85,28.6 h 4.8 q 2.05,0 2.8,-0.8 0.55,-0.6 0.55,-2.65 -0.05,-2.4 0.8,-6.6 l 0.8,-4.1 0.2,-2 q -0.15,-1.2 -0.95,-1.75 -0.65,-0.35 -1.9,-0.35 l -5.4,0.05 -7.7,0.25 -4.5,0.55 0.1,-1.45 Q 14.55,8.5 14.3,7.9 L 14.1,7.4 15.9,6.9 21.2,6.35 26.5,6.6 q 5.45,0.4 8.05,1.65 1.6,0.9 2.1,1.85 0.55,1 0.35,3.45 l -2.1,20.8 -0.6,4 q -0.55,2.65 -2.3,5.3 -1.75,2.5 -3.65,2.5 l 1.4,-1.55 q 1.65,-2.4 1.15,-5.55 -0.3,-2.1 -1.7,-2.5 l -1.15,0.15 -0.1,0.05 Q 27.35,36.2 26.55,35.8 24.95,35 23,34.95 q -2.7,0 -4.5,1.4 -2,1.45 -2.8,4.45 -0.45,1.75 -0.45,5.35 Q 12.4,45.1 10.4,42.15 8.9,39.85 7.95,36.35 6.6,31.35 6.5,24.9 L 6.6,19.15 7.8,18.6 8.6,17.9 9,17.7 9.05,20.85 q 0.05,3.35 0.5,5.5 0.3,1.3 0.85,1.75 0.95,1 3.65,0.65 l 1.9,-0.1 q -0.7,0.35 -1.1,0.65 -1.5,1.2 -1.5,2.55 0.05,0.9 0.7,1.6 0.6,0.65 1.5,0.85 1.55,0.4 3.4,-0.55 l 2.85,-2.05 2.55,-2.2 0.5,-0.9"
         fill="#c6c6c6"
         fill-rule="evenodd"
         stroke="none"
         id="path3" />
      <path
         d="m 24.85,28.6 -0.5,0.9 -2.55,2.2 -2.85,2.05 q -1.85,0.95 -3.4,0.55 -0.9,-0.2 -1.5,-0.85 -0.65,-0.7 -0.7,-1.6 0,-1.35 1.5,-2.55 0.4,-0.3 1.1,-0.65 L 19.7,28.6 h 5.15 M 9,17.7 8.6,17.9 7.8,18.6 6.6,19.15 6.95,13.25 Q 7.15,11.35 7.6,10.7 8.1,10 9.55,9.3 12.05,8.1 14.1,7.4 l 0.2,0.5 q 0.25,0.6 0.15,1.85 l -0.1,1.45 -2.8,0.35 q -1.4,0.2 -1.9,0.65 -0.55,0.5 -0.7,1.45 v 1.7 L 9,17.7 m 18.95,19.05 0.1,-0.05 1.15,-0.15 q 1.4,0.4 1.7,2.5 0.5,3.15 -1.15,5.55 l -1.4,1.55 -0.55,-0.05 q 1.25,-0.85 1.55,-3.55 0.3,-2.9 -0.35,-4.35 -0.35,-0.85 -1.05,-1.45"
         fill="#ffffff"
         fill-rule="evenodd"
         stroke="none"
         id="path4" />
    </g>
    <g
       id="sprite2"
       transform="translate(17.4,15.85)">
      <use
         ffdec:characterId="31"
         height="57.200001"
         transform="matrix(0.5366,0,0,0.5366,-16.6582,-14.546)"
         width="70.75"
         xlink:href="#sprite3"
         id="use4" />
    </g>
    <g
       id="sprite3"
       transform="translate(-8.65,-10.35)">
      <use
         ffdec:characterId="30"
         height="57.200001"
         transform="translate(8.65,10.35)"
         width="70.75"
         xlink:href="#shape1"
         id="use5" />
    </g>
    <g
       id="shape1"
       transform="translate(-8.65,-10.35)">
      <path
         d="m 14.8,41.7 q 0.65,-1.75 2.65,-2.5 1.8,-0.8 3.7,-0.25 1.15,0.45 2.25,1.2 l 0.9,0.4 q 1.65,0.9 2.85,2.5 L 37.8,30.1 q 2.35,-2.8 3.75,-3.95 1.5,-1.15 4.25,-2.4 18.2,-8.85 27.65,-12.6 2.15,-0.8 3.25,-0.8 h 0.8 l 1.9,2.4 -0.2,0.8 q -0.2,1.1 -1.55,3 -5.85,8.25 -18.85,23.8 -1.85,2.35 -3.35,3.5 -1.4,1.15 -4.75,2.75 l -15.15,7.15 q 1.2,1.6 1.75,3.4 l 0.2,1 0.55,2.5 q 0.1,1.95 -1.1,3.55 -1.2,1.65 -3.05,1.9 l -1.3,0.05 q -1.65,0.2 -3.45,-0.65 -1.85,-0.9 -3,-2.6 L 25,60.95 23.8,62.1 q -2.6,2.85 -4.3,3.95 -2.85,1.8 -5.5,1.45 l -1.65,-0.5 -1.2,-0.7 -0.2,-0.2 q -1,-0.85 -1.6,-1.9 L 9.25,64 9.15,63.8 8.75,62.4 q -0.2,-0.8 -0.05,-1.7 0.25,-2.65 2.7,-5.05 1.5,-1.3 4.9,-3.15 L 17.7,51.55 16.05,50 q -1.35,-1.5 -1.8,-3.6 -0.4,-1.85 0.25,-3.45 l 0.3,-1.25"
         fill="#000000"
         fill-opacity="0.372549"
         fill-rule="evenodd"
         stroke="none"
         id="path5" />
    </g>
  </defs>
</svg>
