<?xml version="1.0" encoding="UTF-8" standalone="no"?>
<svg
   ffdec:objectType="frame"
   height="86.042824"
   width="83.469643"
   version="1.1"
   id="svg5"
   xmlns:xlink="http://www.w3.org/1999/xlink"
   xmlns="http://www.w3.org/2000/svg"
   xmlns:svg="http://www.w3.org/2000/svg"
   xmlns:ffdec="https://www.free-decompiler.com/flash">
  <g
     transform="translate(44.325,44.982826)"
     id="g1">
    <use
       ffdec:characterId="17"
       height="119.15"
       id="rarity"
       transform="translate(-58.5,-60.65)"
       width="119.15"
       xlink:href="#sprite0" />
    <use
       ffdec:characterId="767"
       height="86.050003"
       transform="translate(-44.35,-45)"
       width="83.5"
       xlink:href="#shape0"
       id="use1" />
  </g>
  <defs
     id="defs5">
    <g
       id="shape0"
       transform="translate(44.9,45.75)">
      <path
         d="m 5.15,-38.5 0.25,0.3 0.25,-0.05 q 8.85,-0.5 15.45,3.5 l 0.15,-0.05 0.45,-0.05 v -0.05 l 0.55,0.2 0.35,0.15 q 0.6,0.55 0.7,1.3 2.9,2.2 5.35,5.4 0.95,1.25 1.05,2.85 l 0.15,2.05 0.05,-0.05 0.45,-0.15 0.55,-0.1 0.55,0.05 -0.05,-0.55 q -3.05,-9.4 -12.15,-14.05 -5,-2.55 -10.6,-2.7 l -3.55,0.1 -0.6,0.1 0.15,0.45 0.15,0.9 0.35,0.45 m 16.3,10.95 -0.05,-0.15 -0.2,-1.55 -0.4,-0.9 -3.4,-1.9 -0.9,-0.35 0.8,2.6 0.75,2.8 0.45,3.4 0.05,0.95 0.1,0.25 0.15,0.8 0.05,1.05 v 0.45 q 0.75,6.75 -1,13.35 l -0.05,0.2 Q 17,-3.6 15.45,-1 L 15,0.2 13.15,3.75 12.1,6.25 11.45,6.6 10.85,6.8 9.9,7.85 q -1.95,1.8 -4.3,3.2 6.2,-2 11.4,-6.95 l 0.35,-0.35 0.7,-1 0.65,-1.55 0.75,-1.05 0.25,-1.05 0.15,-0.25 0.15,-0.2 0.2,-0.2 0.35,-1.1 0.35,-1.25 0.15,-0.25 0.2,-0.2 0.15,-0.85 q 0,-0.75 0.45,-1.3 l 0.05,-0.85 q 0,-0.75 0.45,-1.3 l 0.05,-1.7 q -0.1,-0.8 0.3,-1.5 v -0.95 -4.85 -3.2 l -0.65,-3.4 q -0.15,-1.1 -0.15,-2.2 l -0.45,-1.1 M -1,-36.8 l 5.15,-1.25 -1.1,-1.8 -0.05,-0.1 -1.45,0.4 q -6.15,1.6 -11.35,5.3 l -4.05,3.1 -2.2,2.45 1.25,0.4 1.25,0.45 0.7,0.2 q 2.95,-3.45 6.45,-6.45 1.45,-1.3 3.35,-2 L -1,-36.8 m 5.25,14.3 1.15,-0.75 -0.1,-0.2 -0.35,-0.75 -2.65,-5.2 -1.3,-1.55 -1.15,-1.35 -0.15,-0.2 -0.5,0.25 -0.35,0.15 -1,0.45 -2.1,1.2 q 3.85,4.5 6.1,9.75 l 2.4,-1.8 m 2.15,-11.4 -3.6,0.5 q 6.2,5.3 8.25,13.65 l 1.15,5.8 0.05,0.2 0.15,0.25 0.15,0.2 0.15,0.65 v 0.85 0.45 l 0.9,5 q 1,-4 1.35,-8.15 l 0.15,-4.1 -0.25,-1.05 -0.05,-1.5 -0.25,-1.1 v -1.5 q -1.2,-4.4 -2.8,-8.65 l -0.35,-1.3 -5,-0.2 M 7.95,-16.35 6.25,-21.3 5.2,-20.45 3,-18.9 2.65,-18.65 Q 4.55,-13.4 4.9,-7.4 6.75,-8.55 8.75,-9.55 L 9.35,-9.8 8.95,-12 Q 8.7,-12.4 8.6,-12.85 l -0.15,-1.1 v -0.4 l -0.5,-2 M -6.7,-28.6 l -3.15,2.7 -3.45,4.7 q -3,4.1 -4.7,8.85 v 0.65 l -0.05,0.4 -0.1,0.45 -0.15,0.2 -0.15,0.2 v 0.9 l -0.1,0.6 -0.15,0.65 -0.4,1.3 0.05,3.85 q -0.2,3.6 1.1,6.8 0.45,1.2 0.75,2.45 l 3.3,3.05 Q -11.15,11 -8,12 l 3.4,0.35 q 2.15,-0.75 4.15,-1.7 L -0.1,9.75 0.05,6.25 Q 0.3,4.7 1.1,3.3 1.45,-0.55 1.2,-4.4 1,-7.05 1.15,-9.8 l -0.5,-1.25 Q 0.45,-11.9 0.5,-12.8 -0.95,-19.35 -4.15,-25.05 L -6.2,-29 -6.7,-28.6 M 4.25,7.75 Q 6.7,5.9 8.8,3.5 L 8.9,3.4 Q 8.85,2.3 9.35,0.95 9.9,-0.6 9.9,-2.35 L 9.7,-7.2 5,-5 5.1,-0.05 4.65,2.3 4.6,3.8 4,5.5 3.95,7 v 0.3 l -0.2,0.8 0.5,-0.35 m 18.5,-3.35 0.1,0.05 0.9,0.5 0.9,1 L 25.7,4.3 28,0.5 30.6,-7.25 q 2,-5.95 1.4,-12.2 l -0.1,-1.3 Q 31.65,-21 31.65,-21.35 V -21.6 L 29.9,-21.85 Q 30.2,-13.5 28,-5.5 l -1.75,3.15 -1.75,2.8 -1.6,2.35 -0.85,1.1 0.7,0.5 M 4.5,-45.55 q 14.4,-1.45 24.25,8.6 7.5,7.75 8.2,17.85 1,6 0.7,12 1.15,1.65 0.9,4.35 Q 38.1,2.5 37,7.5 37.05,9.2 36.65,10.8 L 35.9,13.1 Q 32.8,24.4 23.3,32.25 15.7,38.5 6,39.95 -4.2,41.45 -12.85,36.7 l -1.65,-1.35 q -1.45,-0.8 -2.6,-1.95 v -0.15 l 0.1,-0.15 -5.25,-0.15 q -4.05,-0.45 -7.75,-2 -7.4,-3.1 -11.05,-10.45 -5.1,-10.25 -3.4,-21.9 1.4,-9.45 5.7,-17.95 3.05,-6.05 8.2,-10.55 l 1.3,-1.05 q 9.15,-7.8 21,-10.95 l 3.35,-0.85 q 4.4,-2.1 9.4,-2.8 m 27.5,49.2 0.2,0.05 0.05,0.05 0.7,-3.15 -0.4,0.85 -0.5,1.2 -0.45,0.9 0.15,0.05 0.25,0.05 m -3.3,7.2 0.65,0.1 q 1.3,-2.35 2.25,-5 H 31.55 L 31.05,6.1 30.1,6.4 30,6.45 28.1,9.2 28,10.45 l 0.7,0.4 m -6.65,-5.05 -0.9,-0.75 -0.5,0.6 q -3.6,4.45 -8.3,7.25 -3.5,2.05 -7.55,3.15 l 0.1,0.2 0.1,0.4 -0.05,1.9 2.95,-0.8 5.8,-2.35 0.1,-0.1 h 0.05 q 5.9,-2.95 9.9,-8.1 L 22.9,6.5 22.4,6.25 22.05,5.8 m 0.95,11.3 0.3,0.3 0.15,0.1 0.1,0.05 h 1.05 l 2.75,-3.35 v -0.55 l -0.2,-0.2 -0.1,-0.05 -0.2,-0.2 -0.4,-0.2 h -0.1 l -1.3,0.2 -0.8,0.3 -1.2,1.15 -0.05,0.15 -0.4,0.9 -0.15,0.4 0.05,0.2 0.05,0.2 0.05,0.1 0.4,0.5 m -7.1,4.3 -0.1,0.35 -0.1,0.4 q -0.05,0.5 0.2,0.85 l 0.2,0.25 0.65,0.4 h 0.1 q 2.3,-1.35 4.3,-2.9 V 20.7 l 0.05,-0.3 q -0.25,-0.75 -0.85,-1.35 -0.6,-0.6 -1.15,-0.6 L 19.25,19 v 0.05 L 18.6,19.5 17.7,19.65 17.45,19.9 17.3,20 16.4,20.45 15.9,21.4 M -1.15,35.25 q 7.8,0.6 15.95,-2.75 7.45,-5.1 13.3,-12.05 l 1.35,-2.35 1.05,-1.7 0.1,-0.6 Q 23.65,26.3 11.25,30.1 L 10.6,30.3 2.65,30.75 Q -0.8,30.1 -3.8,27.9 l -0.35,-0.25 q -0.7,0.85 -1.85,1.6 -2.15,1.45 -4.5,2.35 l -1.75,0.6 1.25,0.55 1.15,0.5 q 4.3,1.6 8.7,2 M -17.8,16.15 q 10.5,4.65 20.95,2.8 L 3.05,17.8 3.15,16.75 3.4,16.35 3.2,16.4 q -10.15,2.25 -18.85,-2.85 l -1.1,-0.7 -1.8,2.1 -0.35,0.4 1.1,0.8 M 6.45,24.3 v 0.25 0.2 l -0.1,0.2 -0.1,0.25 -0.1,0.2 0.15,0.2 0.15,0.2 0.35,0.35 0.1,0.1 0.25,0.05 0.25,0.1 0.25,0.05 0.3,0.25 0.1,0.1 0.5,0.1 2,-0.45 0.95,-0.3 0.1,-0.1 0.2,-0.15 0.4,-0.85 0.25,-1.3 -0.05,-0.1 q -0.9,-1 -2.2,-1.2 H 10.1 L 6.95,23.4 6.6,23.65 6.5,23.9 6.45,24.1 v 0.2 m 6.65,-3.05 0.05,-0.05 -0.1,0.05 0.05,0.05 v -0.05 m -10.45,5.7 1.8,0.2 0.1,-0.3 L 4.25,26.4 4.2,26.2 4.15,25.8 V 25.55 25.4 L 4.1,25.25 4,25.05 2.75,24.3 l -4.4,0.45 -0.05,0.35 -0.05,0.05 0.05,0.25 0.25,0.3 0.45,0.2 3.65,1.05 m -20.2,-60.4 1.35,-1.3 -1.8,1 -4.15,2.6 -1.4,1.3 -0.9,0.6 -0.85,0.45 -0.35,0.2 q -3.25,3.2 -5.95,6.95 l -2.5,3.85 1.55,0.2 0.9,0.25 1.7,0.7 q 2.85,-6.35 7.55,-11.7 l 2.25,-2.2 2.6,-2.9 m 3.15,7.05 -1.4,-0.2 h -0.25 l -1.35,-0.45 -4.05,5.7 q -3.5,5.6 -5.7,11.85 l -0.1,0.65 h 1.5 l 1.7,-0.05 0.85,-0.05 1.1,-3.95 q 0.8,-2.3 2,-4.45 1.85,-3.25 4.05,-6.2 l 2.1,-2.75 -0.45,-0.1 m -18.15,11 -1,-0.15 -1.55,-0.1 -0.85,2.55 -0.05,0.2 -0.95,2.1 -0.15,0.2 -1.3,5.45 -1.05,6.8 q -0.3,3.2 0,6.25 l 0.55,-0.4 1.7,-0.4 1.45,-0.45 0.4,0.05 Q -35.5,3.4 -34.9,0.05 l 1,-4.7 1.4,-3.75 0.2,-0.9 q 0.35,-2.45 1.25,-4.75 l 0.25,-0.65 -0.2,-0.25 -0.25,-0.2 -1.3,-0.25 m 10.5,28.45 1.75,1.3 q 0.7,-1.55 2,-2.65 -2.4,-2.05 -3.9,-4.9 -1.85,-5.45 -1.55,-11.4 l 0.25,-2.45 -1.05,0.1 -1.8,0.2 -1.3,0.15 -0.3,4.2 0.05,1.75 q 0.3,4.65 2.3,8.85 l 0.75,2.05 q 1.1,1.65 2.7,2.75 l 0.1,0.05 M -22.75,28 q 6.1,0.85 11.6,-1.5 1.75,-0.75 3.35,-1.85 h -0.1 q -8.65,4.3 -16.9,0.7 l -0.95,2 3,0.65 M -36.4,18.4 q 3.15,6.05 8.95,8.4 l 0.45,-1.7 0.35,-0.7 -1.4,-0.85 q -4.55,-2.9 -5.75,-7.8 l -1.05,-3.2 -0.05,-1.55 -0.35,-2.4 -0.8,0.2 -0.9,0.2 -1.4,1 -0.7,0.45 q 0.75,4.1 2.65,7.95 M -29,13 q -1.55,-1.95 -2.25,-4.25 l -0.9,-2.3 0.5,3.7 0.7,3.45 1.5,2.75 q 0.35,0.5 0.35,1.1 l 1.6,1.1 q 5.3,5.5 12.55,4.55 Q -23.05,20.35 -29,13"
         fill="#000000"
         fill-rule="evenodd"
         stroke="none"
         id="path1" />
      <path
         d="m 8.65,-40.5 -3.5,2 -0.35,-0.45 -0.15,-0.9 -0.15,-0.45 0.6,-0.1 3.55,-0.1 m 10.45,30.45 q 1.25,-3.9 1.95,-8 0.55,-2.95 0.65,-6 -0.45,-1.25 -0.25,-2.55 v -0.95 l 0.45,1.1 q 0,1.1 0.15,2.2 l 0.65,3.4 v 3.2 4.85 q -2.45,9.25 -8.4,17 -1.75,2.25 -4.2,3.65 H 9.9 L 10.85,6.8 11.45,6.6 12.1,6.25 13.15,3.75 15,0.2 15.45,-1 Q 17,-3.6 17.8,-6.55 l 0.05,-0.2 1.25,-3.3 m -17.55,-29.5 1.45,-0.4 0.05,0.1 1.1,1.8 -5.15,1.25 q 0.85,-1.65 2.55,-2.75 m -15.1,11.7 -1.25,-0.45 1.2,-1.55 3.55,-3.85 -3.5,5.85 m 14.55,-3.1 1.3,1.55 2.65,5.2 0.35,0.75 0.1,0.2 -1.15,0.75 -1.6,-3.15 Q 1.2,-28.5 -1.4,-30.3 l -0.55,-0.9 -0.2,-0.45 1,-0.45 0.35,-0.15 q 0.9,0.55 1.8,1.3 m 4.2,10.5 1.05,-0.85 1.7,4.95 0.2,2.9 -2.95,-7 M 22.9,2.8 23,3.1 23.1,3.5 22.75,4.4 22.05,3.9 22.9,2.8 M 32.05,2.65 32.55,2 32,3.65 31.75,3.6 31.6,3.55 32.05,2.65 M 31.05,6.1 28.7,10.85 28,10.45 28.1,9.2 30,6.45 30.1,6.4 31.05,6.1 m -18.7,6.8 q 4.7,-2.8 8.3,-7.25 l 0.5,-0.6 0.9,0.75 -0.65,0.7 q -3.05,4.9 -7.55,8.8 H 13.8 l -0.1,0.1 -5.8,2.35 4.45,-4.85 m 14.7,0.5 -0.85,1.2 q -1.4,1.9 -3.2,2.5 l -0.4,-0.5 v -0.15 l 2.45,-3.25 1.3,-0.2 h 0.1 l 0.4,0.2 0.2,0.2 m -8.45,6.1 -2.7,1.9 0.5,-0.95 0.9,-0.45 0.15,-0.1 0.25,-0.25 0.9,-0.15 m -8,10.8 q -5.4,3.55 -11.75,4.95 -4.4,-0.4 -8.7,-2 6.3,-0.9 12.5,-2.5 L 10.6,30.3 M 7.4,26.4 7.15,26.3 6.9,26.25 6.8,26.15 6.45,25.8 6.3,25.6 6.15,25.4 l 0.1,-0.2 0.1,-0.25 0.1,-0.2 v -0.2 -0.25 q 1.75,-1 3.75,-1.85 1.3,0.2 2.2,1.2 -1.55,0.9 -3.15,1.75 l -1.85,1 m 5.65,-5.15 h 0.05 v 0.05 l -0.05,-0.05 m -8.9,4.55 0.05,0.4 0.05,0.2 0.3,0.45 -0.1,0.3 -1.8,-0.2 q 0.7,-0.6 1.5,-1.15 m -35.8,-43.15 -0.9,-0.25 -1.55,-0.2 2.5,-3.85 q 2.7,-3.75 5.95,-6.95 l 0.35,-0.2 0.85,-0.45 0.9,-0.6 q -4.85,5.8 -8.1,12.5 m 15.6,-9.25 h 0.25 l 1.4,0.2 -1.65,2.85 q -2.2,2.95 -4.05,6.2 -1.2,2.15 -2,4.45 l -1.2,2.15 q -0.05,0.6 -0.4,1.1 l -0.3,0.4 -0.05,0.35 -1.7,0.05 v -1.1 l 0.25,-0.4 0.25,-0.45 0.1,-0.45 0.05,-0.4 q 0.45,-0.45 0.6,-1.1 l 0.05,-0.4 q 3.65,-7.1 8.4,-13.45 m -22.35,21.45 1.3,-5.45 0.15,-0.2 0.95,-2.1 0.05,-0.2 0.85,-2.55 1.55,0.1 1,0.15 -1.85,4.7 -1.85,6.1 q -0.2,0.7 -0.7,1.1 l -0.15,0.05 -0.8,-0.15 -0.5,-1.55 m 13.85,-1.8 -0.8,1.7 q -0.45,0.85 -1.3,0.9 l -0.4,-0.45 -0.1,-0.2 0.8,-1.75 1.8,-0.2 m -12,22.55 6.1,6.5 q 1,1 1.7,2.2 -4.85,-1.6 -7.35,-5.95 l -0.95,-2.1 V 15.9 l 0.15,-0.15 0.1,-0.05 0.25,-0.05 V 15.6"
         fill="#ffffff"
         fill-rule="evenodd"
         stroke="none"
         id="path2" />
      <path
         d="m 21.45,-27.55 v 0.95 q -0.2,1.3 0.25,2.55 -0.1,3.05 -0.65,6 -0.7,4.1 -1.95,8 l 0.15,-3.9 -0.4,-6.6 -0.05,-1.05 -0.15,-0.8 -0.15,-1.2 -0.45,-3.4 -0.75,-2.8 -0.05,-1.3 0.15,-0.95 3.4,1.9 0.4,0.9 0.2,1.55 0.05,0.15 M 9.9,7.85 h 0.2 q 2.45,-1.4 4.2,-3.65 5.95,-7.75 8.4,-17 v 0.95 q -0.4,0.7 -0.3,1.5 l -0.05,1.7 q -0.45,0.55 -0.45,1.3 l -0.05,0.85 q -0.45,0.55 -0.45,1.3 l -0.15,0.85 -0.2,0.2 -0.15,0.25 -0.35,1.25 -0.35,1.1 -0.2,0.2 -0.15,0.2 -0.15,0.25 -0.25,1.05 -0.75,1.05 -0.65,1.55 -0.7,1 L 17,4.1 Q 11.8,9.05 5.6,11.05 7.95,9.65 9.9,7.85 m -12.05,-39.5 0.2,0.45 0.55,0.9 q 2.6,1.8 4.05,4.65 l 1.6,3.15 -2.4,1.8 q -2.25,-5.25 -6.1,-9.75 l 2.1,-1.2 m 7.35,11.2 2.95,7 -0.2,-2.9 0.5,2 v 0.4 l 0.15,1.1 q 0.1,0.45 0.35,0.85 l 0.4,2.2 -0.6,0.25 q -2,1 -3.85,2.15 -0.35,-6 -2.25,-11.25 L 3,-18.9 5.2,-20.45 M 3.95,7.3 V 7 L 4,5.5 4.6,3.8 4.65,2.3 5.1,-0.05 5,-5 9.7,-7.2 9.9,-2.35 Q 9.9,-0.6 9.35,0.95 8.85,2.3 8.9,3.4 L 8.8,3.5 Q 6.7,5.9 4.25,7.75 L 3.95,7.3 m 28.1,-4.65 0.5,-1.2 0.4,-0.85 -0.7,3.15 L 32.2,3.7 32,3.65 32.55,2 32.05,2.65 m -1,3.45 0.5,-0.15 h 0.05 q -0.95,2.65 -2.25,5 L 28.7,10.85 31.05,6.1 M 23,17.1 q 1.8,-0.6 3.2,-2.5 l 0.85,-1.2 0.1,0.05 0.2,0.2 V 14.2 L 24.6,17.55 H 23.55 L 23.45,17.5 23.3,17.4 23,17.1 m 2.05,-3.9 -2.45,3.25 v 0.15 l -0.05,-0.1 -0.05,-0.2 -0.05,-0.2 0.15,-0.4 0.4,-0.9 0.05,-0.15 1.2,-1.15 0.8,-0.3 m -6.45,6.3 0.65,-0.45 V 19 L 19.2,18.45 q 0.55,0 1.15,0.6 0.6,0.6 0.85,1.35 l -0.05,0.3 v 0.05 q -2,1.55 -4.3,2.9 h -0.1 L 16.1,23.25 15.9,23 q -0.25,-0.35 -0.2,-0.85 l 0.1,-0.4 0.1,-0.35 2.7,-1.9 m -8,10.8 0.65,-0.2 Q 23.65,26.3 30.6,15.8 l -0.1,0.6 -1.05,1.7 -1.35,2.35 Q 22.25,27.4 14.8,32.5 6.65,35.85 -1.15,35.25 5.2,33.85 10.6,30.3 m -20.45,2.95 -1.15,-0.5 0.5,-1.15 q 2.35,-0.9 4.5,-2.35 1.15,-0.75 1.85,-1.6 l 0.35,0.25 q 3,2.2 6.45,2.85 -6.2,1.6 -12.5,2.5 M 7.4,26.4 l 1.85,-1 q 1.6,-0.85 3.15,-1.75 l 0.05,0.1 -0.25,1.3 -0.4,0.85 -0.2,0.15 -0.1,0.1 -0.95,0.3 -2,0.45 L 8.05,26.8 7.95,26.7 7.65,26.45 7.4,26.4 m 2.8,-3.95 Q 8.2,23.3 6.45,24.3 V 24.1 L 6.5,23.9 6.6,23.65 6.95,23.4 10.1,22.45 h 0.1 M 4.15,25.8 q -0.8,0.55 -1.5,1.15 L -1,25.9 -1.7,25.1 -1.65,24.75 2.75,24.3 4,25.05 l 0.1,0.2 0.05,0.15 v 0.15 0.25 M -18,-33.75 l 0.45,0.3 -2.6,2.9 -2.25,2.2 q -4.7,5.35 -7.55,11.7 l -1.7,-0.7 q 3.25,-6.7 8.1,-12.5 l 1.4,-1.3 4.15,-2.6 m -20.4,28.6 0.5,1.55 0.8,0.15 0.15,-0.05 q 0.5,-0.4 0.7,-1.1 l 1.85,-6.1 1.85,-4.7 1.3,0.25 0.25,0.2 0.2,0.25 -0.25,0.65 q -0.9,2.3 -1.25,4.75 l -0.2,0.9 -1.4,3.75 -1,4.7 q -0.6,3.35 -0.45,6.65 l -0.4,-0.05 -1.45,0.45 -1.7,0.4 -0.55,0.4 q -0.3,-3.05 0,-6.25 l 1.05,-6.8 m 2,23.55 q -1.9,-3.85 -2.65,-7.95 l 0.7,-0.45 1.4,-1 0.9,-0.2 0.8,-0.2 0.35,2.4 0.05,1.55 1.05,3.2 q 1.2,4.9 5.75,7.8 l 1.4,0.85 -0.35,0.7 -0.45,1.7 q -5.8,-2.35 -8.95,-8.4 m 13.65,9.6 -3,-0.65 0.95,-2 q 8.25,3.6 16.9,-0.7 h 0.1 q -1.6,1.1 -3.35,1.85 -5.5,2.35 -11.6,1.5 m -13.8,-12.4 v 0.05 l -0.25,0.05 -0.1,0.05 -0.15,0.15 v 0.35 l 0.95,2.1 q 2.5,4.35 7.35,5.95 -0.7,-1.2 -1.7,-2.2 l -6.1,-6.5"
         fill="#d8d096"
         fill-rule="evenodd"
         stroke="none"
         id="path3" />
      <path
         d="m 8.65,-40.5 q 5.6,0.15 10.6,2.7 9.1,4.65 12.15,14.05 l 0.05,0.55 -0.55,-0.05 -0.55,0.1 L 29.9,-23 29.85,-22.95 29.7,-25 q -0.1,-1.6 -1.05,-2.85 -2.45,-3.2 -5.35,-5.4 -0.1,-0.75 -0.7,-1.3 l -0.35,-0.15 -0.55,-0.2 v 0.05 l -0.45,0.05 -0.15,0.05 q -6.6,-4 -15.45,-3.5 l -0.25,0.05 -0.25,-0.3 3.5,-2 m -7.1,0.95 q -1.7,1.1 -2.55,2.75 l -2.05,0.7 q -1.9,0.7 -3.35,2 -3.5,3 -6.45,6.45 l -0.7,-0.2 3.5,-5.85 -3.55,3.85 -1.2,1.55 -1.25,-0.4 2.2,-2.45 4.05,-3.1 q 5.2,-3.7 11.35,-5.3 M 22.9,2.8 24.5,0.45 26.25,-2.35 28,-5.5 q 2.2,-8 1.9,-16.35 l 1.75,0.25 v 0.25 q 0,0.35 0.25,0.6 l 0.1,1.3 q 0.6,6.25 -1.4,12.2 L 28,0.5 25.7,4.3 24.65,5.95 23.75,4.95 22.85,4.45 22.75,4.4 23.1,3.5 23,3.1 22.9,2.8 M 12.35,12.9 7.9,17.75 4.95,18.55 5,16.65 4.9,16.25 4.8,16.05 q 4.05,-1.1 7.55,-3.15 m 1.5,2.4 q 4.5,-3.9 7.55,-8.8 l 0.65,-0.7 0.35,0.45 0.5,0.25 0.85,0.7 q -4,5.15 -9.9,8.1 m -31.65,0.85 -1.1,-0.8 0.35,-0.4 1.8,-2.1 1.1,0.7 q 8.7,5.1 18.85,2.85 l 0.2,-0.05 -0.25,0.4 -0.1,1.05 0.1,1.15 Q -7.3,20.8 -17.8,16.15 m 1.75,-42.75 q -4.75,6.35 -8.4,13.45 l -0.05,0.4 q -0.15,0.65 -0.6,1.1 l -0.05,0.4 -0.1,0.45 -0.25,0.45 -0.25,0.4 v 1.1 h -1.5 l 0.1,-0.65 q 2.2,-6.25 5.7,-11.85 l 4.05,-5.7 1.35,0.45 m -8,17.7 0.05,-0.35 0.3,-0.4 q 0.35,-0.5 0.4,-1.1 l 1.2,-2.15 -1.1,3.95 -0.85,0.05 m 8,-14.65 1.65,-2.85 0.45,0.1 -2.1,2.75 m -8.5,16.6 1.05,-0.1 -0.25,2.45 q -0.3,5.95 1.55,11.4 1.5,2.85 3.9,4.9 -1.3,1.1 -2,2.65 l -1.75,-1.3 Q -26.35,8.4 -27.5,2.15 l -0.4,-2.8 -0.05,-1.75 0.3,-4.2 1.3,-0.15 -0.8,1.75 0.1,0.2 0.4,0.45 q 0.85,-0.05 1.3,-0.9 l 0.8,-1.7"
         fill="#efe8b7"
         fill-rule="evenodd"
         stroke="none"
         id="path4" />
    </g>
    <g
       id="sprite1"
       transform="translate(17.4,15.85)">
      <use
         ffdec:characterId="31"
         height="57.200001"
         transform="matrix(0.5366,0,0,0.5366,-16.6582,-14.546)"
         width="70.75"
         xlink:href="#sprite2"
         id="use4" />
    </g>
    <g
       id="sprite2"
       transform="translate(-8.65,-10.35)">
      <use
         ffdec:characterId="30"
         height="57.200001"
         transform="translate(8.65,10.35)"
         width="70.75"
         xlink:href="#shape1"
         id="use5" />
    </g>
    <g
       id="shape1"
       transform="translate(-8.65,-10.35)">
      <path
         d="m 14.8,41.7 q 0.65,-1.75 2.65,-2.5 1.8,-0.8 3.7,-0.25 1.15,0.45 2.25,1.2 l 0.9,0.4 q 1.65,0.9 2.85,2.5 L 37.8,30.1 q 2.35,-2.8 3.75,-3.95 1.5,-1.15 4.25,-2.4 18.2,-8.85 27.65,-12.6 2.15,-0.8 3.25,-0.8 h 0.8 l 1.9,2.4 -0.2,0.8 q -0.2,1.1 -1.55,3 -5.85,8.25 -18.85,23.8 -1.85,2.35 -3.35,3.5 -1.4,1.15 -4.75,2.75 l -15.15,7.15 q 1.2,1.6 1.75,3.4 l 0.2,1 0.55,2.5 q 0.1,1.95 -1.1,3.55 -1.2,1.65 -3.05,1.9 l -1.3,0.05 q -1.65,0.2 -3.45,-0.65 -1.85,-0.9 -3,-2.6 L 25,60.95 23.8,62.1 q -2.6,2.85 -4.3,3.95 -2.85,1.8 -5.5,1.45 l -1.65,-0.5 -1.2,-0.7 -0.2,-0.2 q -1,-0.85 -1.6,-1.9 L 9.25,64 9.15,63.8 8.75,62.4 q -0.2,-0.8 -0.05,-1.7 0.25,-2.65 2.7,-5.05 1.5,-1.3 4.9,-3.15 L 17.7,51.55 16.05,50 q -1.35,-1.5 -1.8,-3.6 -0.4,-1.85 0.25,-3.45 l 0.3,-1.25"
         fill="#000000"
         fill-opacity="0.372549"
         fill-rule="evenodd"
         stroke="none"
         id="path5" />
    </g>
  </defs>
</svg>
