<?xml version="1.0" encoding="UTF-8" standalone="no"?>
<svg
   ffdec:objectType="frame"
   height="69.720932"
   width="97.821426"
   version="1.1"
   id="svg4"
   sodipodi:docname="ITEM Feathered Necklace.svg"
   xmlns:inkscape="http://www.inkscape.org/namespaces/inkscape"
   xmlns:sodipodi="http://sodipodi.sourceforge.net/DTD/sodipodi-0.dtd"
   xmlns:xlink="http://www.w3.org/1999/xlink"
   xmlns="http://www.w3.org/2000/svg"
   xmlns:svg="http://www.w3.org/2000/svg"
   xmlns:ffdec="https://www.free-decompiler.com/flash">
  <sodipodi:namedview
     id="namedview4"
     pagecolor="#ffffff"
     bordercolor="#000000"
     borderopacity="0.25"
     inkscape:showpageshadow="2"
     inkscape:pageopacity="0.0"
     inkscape:pagecheckerboard="0"
     inkscape:deskcolor="#d1d1d1"
     fit-margin-top="5"
     fit-margin-left="5"
     fit-margin-right="5"
     fit-margin-bottom="5" />
  <g
     transform="translate(49.671429,31.540667)"
     id="g1">
    <use
       ffdec:characterId="17"
       height="119.15"
       id="rarity"
       transform="translate(-58.5,-60.65)"
       width="119.15"
       xlink:href="#sprite0" />
    <use
       ffdec:characterId="788"
       height="69.75"
       transform="translate(-49.65,-31.55)"
       width="97.800003"
       xlink:href="#shape0"
       id="use1" />
  </g>
  <defs
     id="defs4">
    <g
       id="shape0"
       transform="translate(50.2,32.3)">
      <path
         d="m 37.95,-23.75 3.2,-2.55 q -0.5,-0.7 -1.7,-1.05 l -5.2,-0.6 -7.45,0.35 -3.6,0.45 -4.5,1.05 -0.8,0.3 -0.5,0.75 -0.2,0.5 0.15,-0.05 6.4,-0.35 q 1.9,0 2.5,0.9 l 0.25,0.8 -0.05,0.3 q -0.15,0.6 -0.6,0.9 -0.35,0.3 -1.6,0.4 l -6.35,1.1 1.9,1.6 q 1.45,0.75 4.15,0.45 l 6.75,-1.3 q 1.7,-0.4 2.5,-0.75 l 3.15,-1.95 1.6,-1.25 m -27.1,0.45 1.6,-0.35 0.15,-0.05 0.05,-0.15 0.7,-1.35 0.65,-1.35 0.35,-1.3 q 0.2,-0.8 0.55,-1.2 0.65,-0.75 2.2,-1.15 10.05,-2.8 21.55,-1.85 2.45,0.2 3.5,0.8 l 1.45,1.15 1.45,1.2 1.2,0.7 1,0.9 0.35,1.2 -0.45,1.2 q -0.35,0.5 -1.9,1.25 l -3.75,2.6 -3.65,2.9 q -2.6,1.75 -6.35,2.75 l -5.7,1.05 1.1,0.25 q 4.1,1 7.05,2.85 2.35,1.45 3.25,3.2 0.95,1.75 0.85,4.95 l 1.35,-0.85 q 0.75,-0.65 1.35,-0.7 1.25,-0.15 2.7,2.1 l 1.6,2.45 1.4,2.55 q 1.5,3.1 0.9,5.65 -0.5,1.65 -1.5,2.2 L 43.55,10.5 37.65,9.7 31.7,8.85 28.05,8.2 25.8,7 23.75,5.5 Q 20.55,3.1 17,1.3 14.7,0.15 14,-0.4 q -1.55,-1.2 -1.85,-2.8 -0.3,-1.45 0.7,-3.3 l 1.05,-1.25 -0.25,-0.1 Q 11.9,-8.25 11.1,-8.55 9.85,-9.05 8,-10.5 7.35,-11 7.15,-11.45 q -0.2,-0.5 0.05,-1 0.2,-0.55 0.7,-0.85 l 2.1,-0.25 2.05,0.7 2.7,0.7 0.4,-1 q 0.6,-1.35 1.25,-1.85 l 0.5,-0.2 -1.85,-1.4 q -1.4,-1.2 -1.75,-2 l -0.15,-0.4 -0.4,0.15 -3.2,0.75 L 8,-18.3 q -1.3,-0.6 -1.45,-1.95 -0.15,-1.35 1,-2.2 0.55,-0.45 1.55,-0.6 l 1.75,-0.25 m -20.55,1.25 3.8,-0.9 4.2,-0.75 2.5,-0.35 q 1.55,0 2.25,1.1 0.35,0.6 0.2,1.35 -0.1,0.75 -0.7,1.15 -0.6,0.4 -1.55,0.55 l -7.6,1.6 0.15,0.2 q 0.4,0.75 0.3,1.6 -0.1,1.25 -1.2,2.95 -1.4,2.5 -2.85,4.15 l -0.3,0.35 1.85,-0.3 1.85,0.1 0.25,0.15 4.05,-2.85 q 1.4,-1.1 2.25,-1.3 1.35,-0.3 2.25,0.45 1.1,0.7 0.9,2.05 -0.15,1.25 -2.15,2.45 -1.7,1.05 -4.9,2.75 l 0.4,0.7 Q -3.5,-4.1 -3.8,-2.75 -4.65,1.2 -5.85,4.1 L -4.55,3.45 -3.4,3.3 -3.3,3.4 -1.5,0.2 Q -0.65,-1.2 0,-1.55 1.15,-2.1 2.15,-1.35 3.2,-0.7 3.1,0.55 L 2.55,2.05 0.75,4.9 0.35,5.55 q 0.85,0.3 1.2,1.5 0.25,0.7 0.1,2.55 -0.35,4.4 -1.1,6.9 -0.6,1.9 -1.45,3.55 l -2,3.55 q -5.9,9 -18.85,13.45 -2.45,0.85 -3.4,-0.2 -0.8,-0.9 -0.1,-3.25 l 1.55,-4.3 2.55,-6.75 q 1.55,-3.7 3.25,-6.4 l 0.85,-1.2 -5.1,2.6 q -1.6,0.7 -2.3,0.6 -0.6,-0.1 -1.75,-0.95 l -2.25,-1.75 -0.2,1.4 q -0.3,2.7 -1.4,3.65 -0.9,0.75 -3.15,0.9 l -13.3,0.45 q -2.3,-0.1 -3.15,-1.05 -1,-1.3 -0.25,-2.95 0.35,-0.95 1.8,-2.45 l 6.4,-6.15 Q -32.65,1.2 -26.5,-2.6 L -24,-4 -27.35,-4.45 q -2.1,-0.65 -2.85,-2.45 -1.1,2.1 -3.45,2.7 l -3.5,-0.1 q -3.05,-0.65 -7.4,-3.35 -2.7,-1.75 -3.8,-2.85 -1.7,-1.5 -1.55,-3.05 0,-1.25 1.2,-2.3 l 2.35,-1.3 6.45,-3.1 q 8.15,-3.7 12,-4.85 5.85,-1.75 11.95,-1.9 4.25,-0.15 6.4,1.4 0.65,0.45 0.95,1.05 0.35,0.7 0.05,1.25 -0.3,0.7 -1.35,0.85 l -1.3,-0.05 q -7.5,-0.65 -16.7,2.6 l -7.85,3.3 -7.65,3.6 3.1,1.95 q 2.5,1.25 5.45,1.75 l 2.75,-2.55 q 1.4,-1.1 2.4,-1.15 1.55,0 2.75,1.8 l 0.6,1.05 0.85,0.85 q 0.85,0.5 2.4,0.25 3.65,-0.4 6.15,-1.5 3.2,-1.45 4.65,-4.1 l 0.8,-1.65 0.6,-1.15 -8.1,1.65 -4.7,0.75 -0.95,-0.05 -0.3,-0.25 -0.2,-0.55 0.85,-0.7 7.2,-2.9 7.3,-2.55 h 0.1 M 30.85,-1.2 30.9,-0.85 Q 30.85,-0.35 30.5,0 l -0.85,0.35 q -0.5,0 -1.25,-0.55 l -8.2,-5.15 -0.4,-0.1 Q 19.25,-5.6 18.45,-6.1 l -0.2,-0.1 -0.4,-0.15 -0.45,1.5 -0.15,0.7 q 0.1,0.3 0.55,0.5 4.6,2.35 8.5,5.4 2.35,1.95 3.8,2.4 l 3,0.4 5,0.85 5,0.65 L 42.9,5.6 Q 41.65,2.85 40.05,0.5 l -1.2,0.85 -0.4,0.5 -0.65,0.6 Q 36.35,3.8 35.1,3.2 34.15,2.75 33.8,0.65 V 0.6 l -0.5,-4 Q 33.1,-5.2 32.6,-5.9 32.1,-6.65 30.65,-7.45 28.25,-8.7 25,-9.55 l -3.9,-0.8 0.5,0.3 1.15,1.15 0.15,0.1 4.1,3.25 q 2.6,2.2 3.45,3.5 l 0.4,0.85 M 27.25,20 q 0.3,1.55 0.15,5 -0.3,4.85 -1.05,7 -0.9,2.3 -2.35,2.5 -1.3,0.25 -3.1,-1.75 L 15.3,26 13.8,23.75 12.75,21.25 Q 11.45,17.95 11,16.2 10.25,12.7 10.7,9.4 10.9,8.4 11.25,8.1 L 11.8,7.95 9.95,4.65 9.4,3.05 Q 9.35,2.45 9.75,1.8 10.1,1.2 10.7,0.95 12.1,0.4 13.15,1.45 13.7,1.95 14.2,3.4 l 0.55,1.45 q 0.6,-0.5 1.3,-0.6 1,0 2.2,0.85 1.5,1.2 3.7,3.9 1.5,1.7 2.2,2.95 l 1.1,2.25 1,2.65 1,3.15 m -4.5,7.45 0.25,-3.9 -0.05,-3.05 -0.9,-2.8 Q 21.1,15.2 20.1,13.75 L 18.3,11.4 17,9.95 l 1.3,2.9 2,5.3 0.25,1.2 q -0.15,0.6 -0.5,0.8 L 19.9,20.2 q -0.6,0.15 -1.4,-0.7 l -2.5,-4 -2.4,-4.3 q 1,8.25 8.5,15.9 l 0.1,0.1 0.05,0.05 0.45,0.45 0.05,-0.25 m -48.8,-19.3 -0.8,0.4 L -28,8.5 q -0.15,-0.45 0.5,-0.85 l 5.8,-5.15 5.8,-5.05 2.3,-1.7 -3.15,1.2 q -3.9,1.75 -8.1,4.65 -3,2.2 -7.2,5.95 l -10,9.2 3.05,-0.05 4.4,-0.15 q 0.8,-0.05 1.1,-0.3 0.45,-0.3 0.5,-1.2 l 0.3,-1.85 0.25,-0.65 0.5,-1.1 q 0.55,-0.8 1.6,-1 l 0.2,-0.05 0.5,-0.1 0.65,0.05 q 0.95,0.15 1.9,0.9 l 2.2,1.75 q 0.6,0.45 1.1,0.35 l 0.95,-0.35 5.15,-2.7 q 2.25,-1.1 3.6,-2.2 4.45,-3.45 5.95,-11.35 l 0.05,-0.15 -4.55,2.55 q -1.4,0.9 -7,4.85 -3.7,2.7 -6.4,4.15 M -13.1,22.1 q -0.2,-0.45 0.15,-1.4 l 2.3,-4.95 1.85,-3.2 3.1,-5.25 q -4.75,3.8 -8.2,10.25 -2.4,4.6 -5.5,13.85 l 1.4,-0.6 q 6.25,-3.05 10.15,-7.85 4.9,-5.95 5.2,-13.1 l -7.9,11.45 -1.1,1.15 q -0.95,0.4 -1.45,-0.3 V 22.1"
         fill="#000000"
         fill-rule="evenodd"
         stroke="none"
         id="path1" />
      <path
         d="m 26.5,-23.25 -0.25,-0.8 q -0.6,-0.9 -2.5,-0.9 l -6.4,0.35 -0.15,0.05 0.2,-0.5 0.5,-0.75 0.8,-0.3 4.5,-1.05 3.6,-0.45 7.45,-0.35 5.2,0.6 q 1.2,0.35 1.7,1.05 l -3.2,2.55 h -0.9 l -4.1,0.05 -4.75,0.45 h -1.7 m -36.4,0.8 0.2,0.4 h -0.1 l -7.3,2.55 -7.2,2.9 -0.85,0.7 0.2,0.55 -7.4,2.4 q -4.45,1.35 -7.95,1.9 l -3.1,-1.95 7.65,-3.6 7.85,-3.3 q 9.2,-3.25 16.7,-2.6 l 1.3,0.05 M 42.9,5.6 41.6,5.25 l -1.75,-1.6 -1.1,-1.2 -0.3,-0.6 0.4,-0.5 1.2,-0.85 q 1.6,2.35 2.85,5.1 m -9.1,-4.95 -1.65,-0.8 -1.3,-1.05 -0.4,-0.85 Q 29.6,-3.35 27,-5.55 l -4.1,-3.25 -0.15,-0.1 -1.15,-1.15 -0.5,-0.3 3.9,0.8 q 3.25,0.85 5.65,2.1 1.45,0.8 1.95,1.55 0.5,0.7 0.7,2.5 l 0.5,4 v 0.05 m -13.75,19.5 q 0.35,-0.2 0.5,-0.8 l -0.25,-1.2 -2,-5.3 -1.3,-2.9 1.3,1.45 1.8,2.35 q 1,1.45 1.95,3.95 l 0.9,2.8 0.05,3.05 -0.25,3.9 -0.5,-0.2 -0.05,-0.05 -0.1,-0.1 -0.45,-1 -0.6,-1.95 -1,-4 M -39,16.7 l -3.05,0.05 10,-9.2 q 4.2,-3.75 7.2,-5.95 4.2,-2.9 8.1,-4.65 l 3.15,-1.2 -2.3,1.7 -5.8,5.05 -5.8,5.15 q -0.65,0.4 -0.5,0.85 l 1.15,0.05 0.8,-0.4 -2.1,1.6 -0.85,0.6 -0.65,-0.05 -0.5,0.1 -0.2,0.05 q -1.05,0.2 -1.6,1 l -0.5,1.1 -1.4,0.8 q -3.3,1.95 -5.15,3.35 m 21,14.1 -1.4,0.6 q 3.1,-9.25 5.5,-13.85 3.45,-6.45 8.2,-10.25 l -3.1,5.25 -1.85,3.2 -2.3,4.95 q -0.35,0.95 -0.15,1.4 l -0.8,1.4 -4.1,7.3"
         fill="#ffffff"
         fill-rule="evenodd"
         stroke="none"
         id="path2" />
      <path
         d="m 26.5,-23.25 h 1.7 l 4.75,-0.45 4.1,-0.05 h 0.9 l -1.6,1.25 -3.15,1.95 q -0.8,0.35 -2.5,0.75 l -6.75,1.3 q -2.7,0.3 -4.15,-0.45 l -1.9,-1.6 6.35,-1.1 q 1.25,-0.1 1.6,-0.4 0.45,-0.3 0.6,-0.9 l 0.05,-0.3 m -51.45,7.9 0.3,0.25 0.95,0.05 4.7,-0.75 8.1,-1.65 -0.6,1.15 -0.8,1.65 q -1.45,2.65 -4.65,4.1 -2.5,1.1 -6.15,1.5 -1.55,0.25 -2.4,-0.25 l -0.85,-0.85 -0.6,-1.05 q -1.2,-1.8 -2.75,-1.8 -1,0.05 -2.4,1.15 l -2.75,2.55 q -2.95,-0.5 -5.45,-1.75 3.5,-0.55 7.95,-1.9 l 7.4,-2.4 M 42.9,5.6 l 0.2,0.45 -5,-0.65 -5,-0.85 -3,-0.4 q -1.45,-0.45 -3.8,-2.4 -3.9,-3.05 -8.5,-5.4 -0.45,-0.2 -0.55,-0.5 l 0.15,-0.7 0.45,-1.5 0.4,0.15 0.2,0.1 q 0.8,0.5 1.35,0.65 l 0.4,0.1 8.2,5.15 q 0.75,0.55 1.25,0.55 L 30.5,0 q 0.35,-0.35 0.4,-0.85 l -0.05,-0.35 1.3,1.05 1.65,0.8 q 0.35,2.1 1.3,2.55 1.25,0.6 2.7,-0.75 l 0.65,-0.6 0.3,0.6 1.1,1.2 1.75,1.6 1.3,0.35 m -22.85,14.55 1,4 0.6,1.95 0.45,1 Q 14.6,19.45 13.6,11.2 l 2.4,4.3 2.5,4 q 0.8,0.85 1.4,0.7 l 0.15,-0.05 M -39,16.7 q 1.85,-1.4 5.15,-3.35 l 1.4,-0.8 -0.25,0.65 -0.3,1.85 q -0.05,0.9 -0.5,1.2 -0.3,0.25 -1.1,0.3 L -39,16.7 m 10,-6.35 0.85,-0.6 2.1,-1.6 q 2.7,-1.45 6.4,-4.15 5.6,-3.95 7,-4.85 l 4.55,-2.55 -0.05,0.15 q -1.5,7.9 -5.95,11.35 -1.35,1.1 -3.6,2.2 l -5.15,2.7 -0.95,0.35 q -0.5,0.1 -1.1,-0.35 l -2.2,-1.75 q -0.95,-0.75 -1.9,-0.9 m 11,20.45 4.1,-7.3 0.8,-1.4 v 0.05 q 0.5,0.7 1.45,0.3 l 1.1,-1.15 7.9,-11.45 q -0.3,7.15 -5.2,13.1 -3.9,4.8 -10.15,7.85"
         fill="#d4d4d4"
         fill-rule="evenodd"
         stroke="none"
         id="path3" />
    </g>
    <g
       id="sprite1"
       transform="translate(17.4,15.85)">
      <use
         ffdec:characterId="31"
         height="57.200001"
         transform="matrix(0.5366,0,0,0.5366,-16.6582,-14.546)"
         width="70.75"
         xlink:href="#sprite2"
         id="use3" />
    </g>
    <g
       id="sprite2"
       transform="translate(-8.65,-10.35)">
      <use
         ffdec:characterId="30"
         height="57.200001"
         transform="translate(8.65,10.35)"
         width="70.75"
         xlink:href="#shape1"
         id="use4" />
    </g>
    <g
       id="shape1"
       transform="translate(-8.65,-10.35)">
      <path
         d="m 14.8,41.7 q 0.65,-1.75 2.65,-2.5 1.8,-0.8 3.7,-0.25 1.15,0.45 2.25,1.2 l 0.9,0.4 q 1.65,0.9 2.85,2.5 L 37.8,30.1 q 2.35,-2.8 3.75,-3.95 1.5,-1.15 4.25,-2.4 18.2,-8.85 27.65,-12.6 2.15,-0.8 3.25,-0.8 h 0.8 l 1.9,2.4 -0.2,0.8 q -0.2,1.1 -1.55,3 -5.85,8.25 -18.85,23.8 -1.85,2.35 -3.35,3.5 -1.4,1.15 -4.75,2.75 l -15.15,7.15 q 1.2,1.6 1.75,3.4 l 0.2,1 0.55,2.5 q 0.1,1.95 -1.1,3.55 -1.2,1.65 -3.05,1.9 l -1.3,0.05 q -1.65,0.2 -3.45,-0.65 -1.85,-0.9 -3,-2.6 L 25,60.95 23.8,62.1 q -2.6,2.85 -4.3,3.95 -2.85,1.8 -5.5,1.45 l -1.65,-0.5 -1.2,-0.7 -0.2,-0.2 q -1,-0.85 -1.6,-1.9 L 9.25,64 9.15,63.8 8.75,62.4 q -0.2,-0.8 -0.05,-1.7 0.25,-2.65 2.7,-5.05 1.5,-1.3 4.9,-3.15 L 17.7,51.55 16.05,50 q -1.35,-1.5 -1.8,-3.6 -0.4,-1.85 0.25,-3.45 l 0.3,-1.25"
         fill="#000000"
         fill-opacity="0.372549"
         fill-rule="evenodd"
         stroke="none"
         id="path4" />
    </g>
  </defs>
</svg>
