<?xml version="1.0" encoding="UTF-8" standalone="no"?>
<svg
   ffdec:objectType="frame"
   height="62.864357"
   width="82.279022"
   version="1.1"
   id="svg5"
   sodipodi:docname="ITEM Mother's Hat.svg"
   xmlns:inkscape="http://www.inkscape.org/namespaces/inkscape"
   xmlns:sodipodi="http://sodipodi.sourceforge.net/DTD/sodipodi-0.dtd"
   xmlns:xlink="http://www.w3.org/1999/xlink"
   xmlns="http://www.w3.org/2000/svg"
   xmlns:svg="http://www.w3.org/2000/svg"
   xmlns:ffdec="https://www.free-decompiler.com/flash">
  <sodipodi:namedview
     id="namedview5"
     pagecolor="#ffffff"
     bordercolor="#000000"
     borderopacity="0.25"
     inkscape:showpageshadow="2"
     inkscape:pageopacity="0.0"
     inkscape:pagecheckerboard="0"
     inkscape:deskcolor="#d1d1d1"
     fit-margin-top="5"
     fit-margin-left="5"
     fit-margin-right="5"
     fit-margin-bottom="5" />
  <g
     transform="translate(42.032727,34.201049)"
     id="g1">
    <use
       ffdec:characterId="17"
       height="119.15"
       id="rarity"
       transform="translate(-58.5,-60.65)"
       width="119.15"
       xlink:href="#sprite0" />
    <use
       ffdec:characterId="1214"
       height="62.849998"
       transform="translate(-42.05,-34.2)"
       width="82.300003"
       xlink:href="#shape0"
       id="use1" />
  </g>
  <defs
     id="defs5">
    <g
       id="shape0"
       transform="translate(40.75,32.3)">
      <path
         d="M 34.15,9.65 33.9,9.15 33.75,8.85 24.9,3.55 q -0.5,-0.3 -0.4,-0.9 0.5,-2.75 1.8,-5.4 1.9,-3.95 1.4,-8.3 -0.35,-3.45 -2.25,-6.4 -5.1,-8.05 -14.55,-8.75 L 7,-26.75 q -10.1,1.3 -16.85,8.8 -2.65,2.95 -4,6.7 -1.15,3.1 -1.15,6.5 5.65,-0.5 9.2,3.55 1.2,1.4 0.85,3.25 -1.1,5.9 -7.2,8 l -4.05,1 q -6.45,1.05 -8.65,-4.75 -0.3,-0.75 -0.2,-1.55 l 0.25,-1.5 0.8,-1.1 q -4.25,2.05 -7.25,5.6 l -0.9,1.15 q -2.15,2.9 -3.15,6.4 v 0.15 0.35 0.35 0.15 l 0.1,0.15 0.2,0.5 0.1,0.3 0.05,0.2 0.95,1 1.25,1.15 0.65,0.45 q 3.45,1.3 7.2,0.95 l 0.3,-0.1 0.1,-0.15 0.2,-0.3 0.2,-0.35 v -0.15 l 0.05,-0.15 0.8,-1.15 1.55,-1.85 0.95,-0.6 0.95,-1.1 1.6,-1 0.25,-0.1 0.3,-0.1 0.4,0.1 0.4,0.35 0.05,0.05 0.15,0.4 0.05,0.2 v 0.15 l 0.05,0.3 -0.1,0.15 -1.25,2.1 -0.25,0.45 -0.2,0.3 -1,1.75 -0.7,2.15 0.85,1.4 q 1.15,1.15 2.6,1.75 l 0.5,0.3 q 5,0.3 9,-2.5 l 1.85,-1.55 Q -4.6,21.2 -3.9,21.4 l 0.25,0.05 q 12.6,4.4 25.95,2.65 4.95,-0.7 9.05,-3.5 2.5,-1.75 3.8,-4.4 0,-0.55 0.15,-1 l 0.15,-1 0.1,-1.1 v -0.5 l -0.5,-1 L 34.5,10.3 34.15,9.65 M 16.5,11.25 15,9.8 q -0.35,-0.25 -0.3,-0.75 0.2,-2 2.15,-2.2 6.35,2.4 5.35,9.05 -0.25,1.5 -1.2,2.65 L 20.1,19.4 Q 13.8,24.35 5.9,22.75 3.95,22.35 2.2,21.5 L 0.7,20.65 -0.9,19.5 -0.95,19.35 V 19.2 L -1,19.05 V 19 l 0.05,-0.15 0.05,-0.15 0.1,-0.15 0.15,-0.2 q 5.85,1.05 11.7,0.3 L 13.9,18 q 1.75,-0.65 3.3,-1.75 l 0.45,-0.6 0.4,-1.05 0.1,-0.3 Q 17.6,12.6 16.5,11.25 M 13.7,-6.1 q -0.3,1.9 -2,2.75 l -0.05,-0.05 -0.4,-0.1 -0.2,-0.15 -0.1,-0.15 -0.1,-0.15 -0.05,-0.2 V -4.3 l 0.05,-0.15 0.05,-0.15 0.05,-0.2 -0.3,-1.3 -0.15,-1.95 0.05,-0.8 -0.1,-0.2 -0.15,-0.15 -0.1,-0.15 -0.05,-0.15 -0.1,-0.2 -1.5,-0.45 -0.6,0.2 Q 6.45,-9.7 5.3,-10.8 H 4.85 l -0.4,-0.05 -1,0.5 L 2,-9.5 1.9,-9.35 1.8,-9.2 l -0.1,0.15 0.05,0.2 v 0.15 l 0.1,0.15 0.1,0.15 0.1,0.2 0.05,0.15 v 0.15 0.15 L 2,-7.4 1.9,-7.05 1.65,-6.9 1.45,-6.8 1.15,-6.75 H 1.1 L 0.7,-6.85 0.3,-7.2 0.05,-7.5 -0.5,-8.15 q -1.15,-3.55 2,-5.7 1.85,-1.3 4.05,-1.5 l 1.75,0.3 0.5,-0.65 0.1,-0.45 -0.05,-0.2 V -16.5 L 7.6,-17 7.55,-17.15 7.5,-17.3 7.35,-17.5 7.15,-17.65 5.75,-18.2 5.6,-18.35 5.4,-19 l 0.1,-0.5 0.1,-0.15 q 0.65,-0.55 1.55,-0.6 l 0.5,-0.05 q 3.45,1.1 3.45,4.1 l 1.5,-0.45 q 4.85,0.1 4.7,4.45 -0.05,1.2 -1.05,1.8 H 16 l -0.6,-0.25 -0.1,-0.15 -0.05,-0.15 v -0.3 l 0.05,-0.35 0.1,-0.15 -0.05,-0.15 v -0.2 l -0.05,-0.15 -0.1,-0.15 -0.05,-0.15 -0.15,-0.2 -0.15,-0.15 -0.1,-0.15 -0.35,-0.15 -0.7,-0.3 -0.1,-0.05 -0.8,0.1 q -0.8,0.2 -1.3,0.8 2.85,1.95 2.2,6.55 M 5.75,-32.2 q 10.55,-0.85 18.55,5.45 8.25,6.5 8.75,16.85 0.2,4.1 -1.1,7.8 1.5,-0.8 3.15,-0.85 5.35,0.45 6.4,5.25 0.25,1.15 -0.85,1.75 -2.4,1.25 -4.05,-1 L 36.2,2.5 Q 34.35,1.55 32.25,1.55 l -1.1,0.2 q 3.9,2.1 6.6,5.7 3.25,4.35 1.7,9.55 -1.35,4.7 -5.6,7.5 -7.15,4.75 -15.9,5.2 Q 10.8,30.05 3.8,28.35 l -7.6,-1.9 q -5.6,5.05 -12.9,3.9 -2.45,-0.35 -4.5,-1.8 -1.35,-0.95 -2.3,-2.35 -10.2,1.8 -15.85,-6.1 -1.95,-2.8 -1.15,-6.2 2.75,-11.35 13.4,-16.5 2.65,-1.25 5.45,-2.1 l -2.9,-0.8 -1.35,-0.15 q -2.4,1.6 -5.05,1.9 -0.8,0.15 -1.3,-0.55 -2.1,-3.05 1.3,-5.05 1.95,-1.15 4.05,-1.25 3.6,0.25 6.35,2.55 0.25,-2.45 1.05,-4.85 4.15,-11.8 15.85,-16.8 4.55,-1.95 9.4,-2.5 M 3.4,1.35 Q 9.15,0.7 11,5.55 l 0.3,1.55 q -0.05,4.95 -5,6.45 L 5.2,13.9 Q -0.85,16 -3.6,10.85 -4.75,7.9 -2.9,5.3 -0.55,2.05 3.4,1.35 m 0.45,3.7 q -2,0.4 -3.05,2.1 L 0.25,8.3 q 1.7,3 5.3,1.7 2.5,-0.85 2.2,-3.45 L 7.7,6.4 7.55,6.2 7.45,6.05 7.4,5.9 Q 5.75,4.9 3.85,5.05 m -23.5,-1.8 -0.85,1.55 0.5,0.65 0.4,0.65 0.95,0.45 q 6.1,0 9.6,-4.6 V 1.65 1.5 L -9,1.3 V 1.15 q -1.45,-1.25 -3.25,-1.6 0.9,1.3 -0.35,3.45 -0.6,1 -1.85,1.2 Q -18.1,4.75 -18,1.5 l -1.65,1.75"
         fill="#000000"
         fill-rule="evenodd"
         stroke="none"
         id="path1" />
      <path
         d="m -31.25,7.75 q 0.35,0.7 0.1,1.8 l -0.1,1.1 q 2.25,2.5 5.95,3 l 7.45,0.35 -0.25,0.1 -1.6,1 -0.95,1.1 -0.95,0.6 -1.55,1.85 -0.8,1.15 -0.05,0.15 v 0.15 l -0.2,0.35 -0.2,0.3 -0.1,0.15 -0.3,0.1 q -3.75,0.35 -7.2,-0.95 l -0.65,-0.45 -1.25,-1.15 -0.95,-1 -0.05,-0.2 -0.1,-0.3 -0.2,-0.5 -0.1,-0.15 V 16.15 15.8 15.45 15.3 q 1,-3.5 3.15,-6.4 l 0.9,-1.15 m 14.55,6.65 4.75,2.8 q 2,1.15 4.3,1.35 h 0.05 l -0.5,-0.2 Q -9.8,17.7 -11.3,16.7 l -0.15,-0.15 -0.5,-0.1 -0.7,-0.5 -0.35,-0.15 -0.45,-0.65 -0.25,-0.7 0.05,-0.3 0.1,-0.35 0.05,-0.15 0.2,-0.1 0.3,-0.15 1.2,0.25 q 0.4,0.15 0.75,0.45 l 7.1,1.6 q 1.4,-0.05 2.95,0.55 L 7.55,17.5 Q 11.75,17 15.6,14.9 L 16,14.05 q 0.15,-0.45 0.45,-0.8 L 16.6,12.6 16.65,11.95 16.7,11.8 16.5,11.25 q 1.1,1.35 1.65,3.05 l -0.1,0.3 -0.4,1.05 -0.45,0.6 q -1.55,1.1 -3.3,1.75 l -2.85,0.65 Q 5.2,19.4 -0.65,18.35 L -0.8,18.55 -0.9,18.7 -0.95,18.85 -1,19 v 0.05 l 0.05,0.15 v 0.15 l 0.05,0.15 1.6,1.15 1.5,0.85 q 1.75,0.85 3.7,1.25 7.9,1.6 14.2,-3.35 l 0.9,-0.85 2.9,-0.7 q 4.05,-1.15 6.8,-4.1 l 3.45,-4.1 0.35,0.65 0.55,1.3 0.5,1 v 0.5 l -0.1,1.1 -0.15,1 q -0.15,0.45 -0.15,1 -1.3,2.65 -3.8,4.4 -4.1,2.8 -9.05,3.5 Q 8.95,25.85 -3.65,21.45 L -3.9,21.4 q -0.7,-0.2 -1.25,0.35 L -7,23.3 q -4,2.8 -9,2.5 l -0.5,-0.3 q -1.45,-0.6 -2.6,-1.75 l -0.85,-1.4 0.7,-2.15 1,-1.75 0.2,-0.3 0.25,-0.45 1.25,-2.1 0.1,-0.15 -0.05,-0.3 V 15 l -0.05,-0.2 -0.15,-0.4"
         fill="#221f1f"
         fill-rule="evenodd"
         stroke="none"
         id="path2" />
      <path
         d="m -31.25,7.75 q 3,-3.55 7.25,-5.6 l -0.8,1.1 -0.25,1.5 q -0.1,0.8 0.2,1.55 2.2,5.8 8.65,4.75 l 4.05,-1 q 6.1,-2.1 7.2,-8 Q -4.6,0.2 -5.8,-1.2 -9.35,-5.25 -15,-4.75 q 0,-3.4 1.15,-6.5 1.35,-3.75 4,-6.7 6.75,-7.5 16.85,-8.8 l 3.9,0.55 q 9.45,0.7 14.55,8.75 1.9,2.95 2.25,6.4 0.5,4.35 -1.4,8.3 -1.3,2.65 -1.8,5.4 -0.1,0.6 0.4,0.9 l 8.85,5.3 0.15,0.3 0.25,0.5 -3.45,4.1 q -2.75,2.95 -6.8,4.1 l -2.9,0.7 q 0.95,-1.15 1.2,-2.65 1,-6.65 -5.35,-9.05 -1.95,0.2 -2.15,2.2 -0.05,0.5 0.3,0.75 l 1.5,1.45 0.2,0.55 -0.05,0.15 -0.05,0.65 -0.15,0.65 Q 16.15,13.6 16,14.05 L 15.6,14.9 Q 11.75,17 7.55,17.5 L -1,16.25 q -1.55,-0.6 -2.95,-0.55 l -7.1,-1.6 q -0.35,-0.3 -0.75,-0.45 l -1.2,-0.25 -0.3,0.15 -0.2,0.1 -0.05,0.15 -0.1,0.35 -0.05,0.3 0.25,0.7 0.45,0.65 0.35,0.15 0.7,0.5 0.5,0.1 0.15,0.15 q 1.5,1 3.2,1.65 l 0.5,0.2 h -0.05 q -2.3,-0.2 -4.3,-1.35 l -4.75,-2.8 -0.05,-0.05 -0.4,-0.35 -0.4,-0.1 -0.3,0.1 -7.45,-0.35 q -3.7,-0.5 -5.95,-3 l 0.1,-1.1 q 0.25,-1.1 -0.1,-1.8 M 13.7,-6.1 q 0.65,-4.6 -2.2,-6.55 0.5,-0.6 1.3,-0.8 l 0.8,-0.1 0.1,0.05 0.7,0.3 0.35,0.15 0.1,0.15 0.15,0.15 0.15,0.2 0.05,0.15 0.1,0.15 0.05,0.15 v 0.2 l 0.05,0.15 -0.1,0.15 -0.05,0.35 v 0.3 l 0.05,0.15 0.1,0.15 0.6,0.25 h 0.25 q 1,-0.6 1.05,-1.8 0.15,-4.35 -4.7,-4.45 l -1.5,0.45 q 0,-3 -3.45,-4.1 l -0.5,0.05 q -0.9,0.05 -1.55,0.6 l -0.1,0.15 -0.1,0.5 0.2,0.65 0.15,0.15 1.4,0.55 0.2,0.15 0.15,0.2 0.05,0.15 0.05,0.15 0.25,0.5 v 0.15 l 0.05,0.2 -0.1,0.45 -0.5,0.65 -1.75,-0.3 q -2.2,0.2 -4.05,1.5 -3.15,2.15 -2,5.7 l 0.55,0.65 0.25,0.3 0.4,0.35 0.4,0.1 H 1.15 L 1.45,-6.8 1.65,-6.9 1.9,-7.05 2,-7.4 2.1,-7.75 V -7.9 -8.05 L 2.05,-8.2 1.95,-8.4 1.85,-8.55 1.75,-8.7 V -8.85 L 1.7,-9.05 1.8,-9.2 1.9,-9.35 2,-9.5 l 1.45,-0.85 1,-0.5 0.4,0.05 H 5.3 q 1.15,1.1 2.65,0.85 l 0.6,-0.2 1.5,0.45 0.1,0.2 0.05,0.15 0.1,0.15 0.15,0.15 0.1,0.2 -0.05,0.8 0.15,1.95 0.3,1.3 -0.05,0.2 -0.05,0.15 -0.05,0.15 v 0.15 l 0.05,0.2 0.1,0.15 0.1,0.15 0.2,0.15 0.4,0.1 0.05,0.05 q 1.7,-0.85 2,-2.75 M 3.4,1.35 q -3.95,0.7 -6.3,3.95 -1.85,2.6 -0.7,5.55 2.75,5.15 8.8,3.05 l 1.1,-0.35 q 4.95,-1.5 5,-6.45 L 11,5.55 Q 9.15,0.7 3.4,1.35"
         fill="#322e2e"
         fill-rule="evenodd"
         stroke="none"
         id="path3" />
      <path
         d="M 3.85,5.05 Q 5.75,4.9 7.4,5.9 L 7.45,6.05 7.55,6.2 7.7,6.4 7.75,6.55 Q 8.05,9.15 5.55,10 1.95,11.3 0.25,8.3 L 0.8,7.15 Q 1.85,5.45 3.85,5.05 M -19.65,3.25 -18,1.5 q -0.1,3.25 3.55,2.7 1.25,-0.2 1.85,-1.2 1.25,-2.15 0.35,-3.45 1.8,0.35 3.25,1.6 V 1.3 l -0.05,0.2 v 0.15 0.3 q -3.5,4.6 -9.6,4.6 L -19.6,6.1 -20,5.45 -20.5,4.8 -19.65,3.25"
         fill="#c3c3c3"
         fill-rule="evenodd"
         stroke="none"
         id="path4" />
    </g>
    <g
       id="sprite1"
       transform="translate(17.4,15.85)">
      <use
         ffdec:characterId="31"
         height="57.200001"
         transform="matrix(0.5366,0,0,0.5366,-16.6582,-14.546)"
         width="70.75"
         xlink:href="#sprite2"
         id="use4" />
    </g>
    <g
       id="sprite2"
       transform="translate(-8.65,-10.35)">
      <use
         ffdec:characterId="30"
         height="57.200001"
         transform="translate(8.65,10.35)"
         width="70.75"
         xlink:href="#shape1"
         id="use5" />
    </g>
    <g
       id="shape1"
       transform="translate(-8.65,-10.35)">
      <path
         d="m 14.8,41.7 q 0.65,-1.75 2.65,-2.5 1.8,-0.8 3.7,-0.25 1.15,0.45 2.25,1.2 l 0.9,0.4 q 1.65,0.9 2.85,2.5 L 37.8,30.1 q 2.35,-2.8 3.75,-3.95 1.5,-1.15 4.25,-2.4 18.2,-8.85 27.65,-12.6 2.15,-0.8 3.25,-0.8 h 0.8 l 1.9,2.4 -0.2,0.8 q -0.2,1.1 -1.55,3 -5.85,8.25 -18.85,23.8 -1.85,2.35 -3.35,3.5 -1.4,1.15 -4.75,2.75 l -15.15,7.15 q 1.2,1.6 1.75,3.4 l 0.2,1 0.55,2.5 q 0.1,1.95 -1.1,3.55 -1.2,1.65 -3.05,1.9 l -1.3,0.05 q -1.65,0.2 -3.45,-0.65 -1.85,-0.9 -3,-2.6 L 25,60.95 23.8,62.1 q -2.6,2.85 -4.3,3.95 -2.85,1.8 -5.5,1.45 l -1.65,-0.5 -1.2,-0.7 -0.2,-0.2 q -1,-0.85 -1.6,-1.9 L 9.25,64 9.15,63.8 8.75,62.4 q -0.2,-0.8 -0.05,-1.7 0.25,-2.65 2.7,-5.05 1.5,-1.3 4.9,-3.15 L 17.7,51.55 16.05,50 q -1.35,-1.5 -1.8,-3.6 -0.4,-1.85 0.25,-3.45 l 0.3,-1.25"
         fill="#000000"
         fill-opacity="0.372549"
         fill-rule="evenodd"
         stroke="none"
         id="path5" />
    </g>
  </defs>
</svg>
