<?xml version="1.0" encoding="UTF-8" standalone="no"?>
<svg
   ffdec:objectType="frame"
   height="46.333332"
   width="54.431095"
   version="1.1"
   id="svg4"
   sodipodi:docname="ITEM Rock Hat.svg"
   xmlns:inkscape="http://www.inkscape.org/namespaces/inkscape"
   xmlns:sodipodi="http://sodipodi.sourceforge.net/DTD/sodipodi-0.dtd"
   xmlns:xlink="http://www.w3.org/1999/xlink"
   xmlns="http://www.w3.org/2000/svg"
   xmlns:svg="http://www.w3.org/2000/svg"
   xmlns:ffdec="https://www.free-decompiler.com/flash">
  <sodipodi:namedview
     id="namedview4"
     pagecolor="#ffffff"
     bordercolor="#000000"
     borderopacity="0.25"
     inkscape:showpageshadow="2"
     inkscape:pageopacity="0.0"
     inkscape:pagecheckerboard="0"
     inkscape:deskcolor="#d1d1d1"
     fit-margin-top="5"
     fit-margin-left="5"
     fit-margin-right="5"
     fit-margin-bottom="5" />
  <g
     transform="translate(29.843165,24.933333)"
     id="g1">
    <use
       ffdec:characterId="17"
       height="119.15"
       id="rarity"
       transform="translate(-58.5,-60.65)"
       width="119.15"
       xlink:href="#sprite0" />
    <use
       ffdec:characterId="1172"
       height="46.349998"
       transform="translate(-29.85,-24.95)"
       width="54.450001"
       xlink:href="#shape0"
       id="use1" />
  </g>
  <defs
     id="defs4">
    <g
       id="shape0"
       transform="translate(28.55,23.05)">
      <path
         d="m -2.3,-23 q 6.95,-0.3 13.25,2.1 0.65,0.25 0.85,1 1.25,6.2 2.85,12.25 l 0.05,0.2 0.15,0.3 0.2,0.65 v 0.35 0.15 0.15 l 0.1,0.2 0.15,0.3 0.1,0.5 0.1,0.5 0.05,0.15 5.5,0.75 q 3.05,0.3 4.45,2.8 0.75,1.35 0.05,2.75 0.3,4.45 -1.75,8.05 l -1,1.25 Q 15.15,17.75 6.95,23.1 l -0.9,0.2 q -15.15,-1.65 -30,-4.8 -5.65,-1.2 -4.35,-6.55 l 0.25,-2.05 0.55,-9.95 q 0.25,-3.3 3.55,-5 1.6,-0.8 3.1,-1.8 l 2.9,-1.85 0.15,-0.2 0.05,-0.15 0.05,-0.3 0.1,-0.35 q -0.5,-4.6 0.85,-8.9 0.4,-1.25 1.7,-1.75 6.2,-2.3 12.75,-2.65 M 15.3,1.6 q -2,-0.35 -2.5,-1.9 l -0.2,-1.1 v -0.2 l -0.75,-1.65 -1.1,-3.4 -1.35,-3.9 -0.05,-0.2 -0.15,-0.8 -0.25,-0.95 -0.2,-0.85 -0.2,-1.15 -0.1,-0.15 -0.3,-0.65 -0.15,-0.35 -0.15,-0.8 v -0.15 -0.2 L 3.9,-17.25 1.25,-17.45 -9,-16.4 q -1.55,0.25 -2.95,0.95 0.15,3.4 0,6.85 -0.15,2.45 -1.65,4.1 -0.9,0.9 -2.3,1.55 l -1.6,0.9 -3.55,2.45 -0.9,0.65 v 2.1 l -0.35,5.75 -0.15,4.05 7.85,1.65 -0.55,-1.2 Q -15.7,12 -15.9,10.45 -16.05,9.1 -15.8,7.85 -14.7,5 -13.05,2.35 l 1.6,-2.5 1.8,-2.6 1.55,-2.1 1.45,-1.15 0.2,-0.05 H -6 V -6.1 q 4.5,0.2 8.8,1.55 l 2.5,1.05 0.75,0.3 0.6,0.25 1.2,1 0.05,0.3 L 7.85,-1.5 7.8,-1.3 7.65,-1.15 7.45,-1 7.15,-0.95 6.75,-1 6.6,-1.05 H 6.5 L 6.2,-1 -0.2,-2.25 -4.3,-2.55 q -1.95,1.8 -3.3,4.15 L -9.85,5.85 -11,8.1 l -0.25,0.55 -0.45,0.9 0.05,0.65 0.45,1.45 0.4,1.1 q 0.15,0.35 0.15,0.7 0.45,0.95 0.65,2 l 15.7,1.9 5.05,-3.75 8.7,-6.85 0.1,-0.3 0.15,-1 V 4.65 L 19.8,3.8 19.95,2.5 15.55,1.6 H 15.3"
         fill="#000000"
         fill-rule="evenodd"
         stroke="none"
         id="path1" />
      <path
         d="m -21.05,0.4 3.55,-2.45 1.6,-0.9 q 1.4,-0.65 2.3,-1.55 1.5,-1.65 1.65,-4.1 0.15,-3.45 0,-6.85 1.4,-0.7 2.95,-0.95 l 10.25,-1.05 2.65,0.2 3.95,0.45 v 0.2 0.15 l 0.15,0.8 0.15,0.35 0.3,0.65 0.1,0.15 0.2,1.15 0.2,0.85 0.25,0.95 0.15,0.8 0.05,0.2 1.35,3.9 1.1,3.4 0.75,1.65 v 0.2 l 0.2,1.1 Q 13.3,1.25 15.3,1.6 15.05,2.3 14,3.1 L 5.9,8.85 q -2.7,2.3 -5.75,3.9 H -0.6 L -10,9.1 -11.25,8.65 -11,8.1 -9.85,5.85 -7.6,1.6 q 1.35,-2.35 3.3,-4.15 l 4.1,0.3 L 6.2,-1 6.5,-1.05 H 6.6 L 6.75,-1 7.15,-0.95 7.45,-1 7.65,-1.15 7.8,-1.3 7.85,-1.5 7.9,-1.65 7.85,-1.95 6.65,-2.95 6.05,-3.2 5.3,-3.5 2.8,-4.55 Q -1.5,-5.9 -6,-6.1 v 0.05 h -0.45 l -0.2,0.05 -1.45,1.15 -1.55,2.1 -1.8,2.6 -1.1,-0.45 q -4.05,0 -8.1,0.95 l -0.4,0.05"
         fill="#4a4a4a"
         fill-rule="evenodd"
         stroke="none"
         id="path2" />
      <path
         d="m -21.05,0.4 0.4,-0.05 q 4.05,-0.95 8.1,-0.95 l 1.1,0.45 -1.6,2.5 q -1.65,2.65 -2.75,5.5 -0.25,1.25 -0.1,2.6 0.2,1.55 0.75,2.95 l 0.55,1.2 -7.85,-1.65 0.15,-4.05 0.35,-5.75 v -2.1 l 0.9,-0.65 m 9.8,8.25 1.25,0.45 9.4,3.65 H 0.15 Q 3.2,11.15 5.9,8.85 L 14,3.1 q 1.05,-0.8 1.3,-1.5 h 0.25 l 4.4,0.9 -0.15,1.3 -0.1,0.85 v 0.8 l -0.15,1 -0.1,0.3 -8.7,6.85 -5.05,3.75 -15.7,-1.9 q -0.2,-1.05 -0.65,-2 0,-0.35 -0.15,-0.7 l -0.4,-1.1 -0.45,-1.45 -0.05,-0.65 0.45,-0.9"
         fill="#303030"
         fill-rule="evenodd"
         stroke="none"
         id="path3" />
    </g>
    <g
       id="sprite1"
       transform="translate(17.4,15.85)">
      <use
         ffdec:characterId="31"
         height="57.200001"
         transform="matrix(0.5366,0,0,0.5366,-16.6582,-14.546)"
         width="70.75"
         xlink:href="#sprite2"
         id="use3" />
    </g>
    <g
       id="sprite2"
       transform="translate(-8.65,-10.35)">
      <use
         ffdec:characterId="30"
         height="57.200001"
         transform="translate(8.65,10.35)"
         width="70.75"
         xlink:href="#shape1"
         id="use4" />
    </g>
    <g
       id="shape1"
       transform="translate(-8.65,-10.35)">
      <path
         d="m 14.8,41.7 q 0.65,-1.75 2.65,-2.5 1.8,-0.8 3.7,-0.25 1.15,0.45 2.25,1.2 l 0.9,0.4 q 1.65,0.9 2.85,2.5 L 37.8,30.1 q 2.35,-2.8 3.75,-3.95 1.5,-1.15 4.25,-2.4 18.2,-8.85 27.65,-12.6 2.15,-0.8 3.25,-0.8 h 0.8 l 1.9,2.4 -0.2,0.8 q -0.2,1.1 -1.55,3 -5.85,8.25 -18.85,23.8 -1.85,2.35 -3.35,3.5 -1.4,1.15 -4.75,2.75 l -15.15,7.15 q 1.2,1.6 1.75,3.4 l 0.2,1 0.55,2.5 q 0.1,1.95 -1.1,3.55 -1.2,1.65 -3.05,1.9 l -1.3,0.05 q -1.65,0.2 -3.45,-0.65 -1.85,-0.9 -3,-2.6 L 25,60.95 23.8,62.1 q -2.6,2.85 -4.3,3.95 -2.85,1.8 -5.5,1.45 l -1.65,-0.5 -1.2,-0.7 -0.2,-0.2 q -1,-0.85 -1.6,-1.9 L 9.25,64 9.15,63.8 8.75,62.4 q -0.2,-0.8 -0.05,-1.7 0.25,-2.65 2.7,-5.05 1.5,-1.3 4.9,-3.15 L 17.7,51.55 16.05,50 q -1.35,-1.5 -1.8,-3.6 -0.4,-1.85 0.25,-3.45 l 0.3,-1.25"
         fill="#000000"
         fill-opacity="0.372549"
         fill-rule="evenodd"
         stroke="none"
         id="path4" />
    </g>
  </defs>
</svg>
