<?xml version="1.0" encoding="UTF-8" standalone="no"?>
<svg
   ffdec:objectType="frame"
   height="72.650002"
   width="70.728249"
   version="1.1"
   id="svg6"
   xmlns:xlink="http://www.w3.org/1999/xlink"
   xmlns="http://www.w3.org/2000/svg"
   xmlns:svg="http://www.w3.org/2000/svg"
   xmlns:ffdec="https://www.free-decompiler.com/flash">
  <g
     transform="translate(28.35625,36.35)"
     id="g1">
    <use
       ffdec:characterId="17"
       height="119.15"
       id="rarity"
       transform="translate(-58.5,-60.65)"
       width="119.15"
       xlink:href="#sprite0" />
    <use
       ffdec:characterId="533"
       height="72.650002"
       transform="translate(-28.35,-36.35)"
       width="70.699997"
       xlink:href="#shape0"
       id="use1" />
  </g>
  <defs
     id="defs6">
    <g
       id="shape0"
       transform="translate(27.95,35.55)">
      <path
         d="m 22.2,-27.9 q 2.2,-0.35 4.05,0.8 0.65,0.35 0.8,1.05 l 0.15,0.2 0.65,0.45 0.35,0.2 q 1.85,2.2 3.1,4.7 1.45,2.8 0.9,6.05 l 0.1,0.2 0.1,0.25 0.3,0.4 0.05,0.2 v 0.25 l -0.05,0.4 -0.15,0.45 -0.3,0.4 q -1.05,0.7 -2.3,1 l -3.6,-0.25 q -5.3,-3.25 -7.3,-8.95 -1.05,-2.95 0.05,-5.85 l 0.45,-0.45 q 1.2,-1.05 2.65,-1.45 v -0.05 m -25.45,-7.65 25,0.85 10.6,1.15 q 0.5,-0.85 1.85,-1 2.9,0.9 3,4.2 l -0.15,1.75 q 2.25,9.05 3.5,18.2 l 0.75,7.1 0.65,4.75 0.1,3.2 Q 43,7 42.7,9.6 q -0.2,1.55 -1,3 0.15,1.35 -0.4,2.6 l -1.35,2.1 -5.15,1.6 -0.8,1.4 q -0.55,0.75 -0.8,1.65 l 0.35,1.3 q 0.35,0.7 0.3,1.5 l 0.55,1.25 0.5,0.1 q 1.1,0.4 1.5,1.5 l 0.1,0.2 q 0.1,0.95 -0.35,1.75 -3.1,4.95 -9.5,4.35 -1.6,-0.15 -3.25,0 L 2.8,36.05 -11.75,37.1 -16.1,36.75 q -3.3,-0.7 -3.5,-4.3 -0.4,-8 -2.6,-15.75 l -0.95,-3.95 Q -25.7,-0.1 -27.65,-13 q -0.7,-4.6 0.2,-9.2 0.25,-1.4 1.6,-2.05 2.7,-1.35 5.45,-2.75 3.8,-1.95 7.85,-3.35 l 0.1,-0.4 0.25,-0.65 0.25,-0.45 q 0.6,-1.4 2,-2.05 3.25,-1.55 6.7,-1.65 m 13.35,9.8 q 5.45,0.05 6.2,4.9 l 0.3,2.75 -0.3,0.85 -0.4,0.45 -0.7,0.4 -4.6,0.3 -0.2,0.65 -0.25,0.45 -0.4,0.6 Q 6.45,-12 4.4,-15.35 3.9,-16.1 4.05,-17.1 l 0.1,-0.65 0.15,-0.2 0.15,-0.2 0.15,-0.25 v -0.4 l 0.1,-0.45 0.05,-0.2 0.05,-0.2 0.25,-0.25 0.2,-0.2 q 0.4,-1.4 1.25,-2.6 1.2,-1.75 3.05,-2.9 l 0.15,-0.05 0.4,-0.05 v -0.05 m 0.35,2.95 q -1.8,1.85 -2.65,4.25 l -0.5,1.55 0.8,-0.1 1.05,-1.1 0.4,-0.4 4.4,-0.95 v -0.6 -0.65 l -0.25,-0.45 -0.15,-0.4 -0.45,-0.45 -0.15,-0.2 q -1.2,-0.65 -2.5,-0.5 m -14.65,-4.25 2.55,0.3 1.15,0.5 0.7,1.05 q 0.85,1.6 1.05,3.45 v 0.2 l 0.05,0.25 0.15,0.2 0.05,0.2 v 0.25 l 0.05,0.85 q 0.1,0.8 -0.3,1.5 0,1.45 -0.65,2.75 -1.05,2.2 -2.35,4.1 l -0.1,0.2 -0.05,0.25 -0.1,0.2 -0.15,0.2 -1.15,1.1 -0.7,0.85 q -5.4,2.6 -7.5,-2.85 l -0.1,-0.25 -0.45,-2.5 0.2,-2.35 0.8,-1.65 v -0.2 l 0.1,-0.65 0.65,-1.3 q 0.5,-2.4 2.15,-4.25 1.65,-1.9 3.95,-2.4 m 15.25,18.25 -2.1,0.65 -0.7,0.2 Q 5.6,-5.4 3.35,-2.45 2.25,-1 1.5,0.65 L 1.45,1.05 1.1,1.95 0.95,2.15 0.65,3.85 Q 0.3,5.1 0.4,6.45 l 0.05,0.2 0.4,0.7 0.45,0.8 0.1,0.2 1.95,1.5 Q 4,10.35 4.8,10.15 L 6.25,8.8 7.3,8 Q 11.2,2.2 17.65,1.3 l 0.65,0.15 q 3.6,2.1 5.95,5.7 2,1.15 3.65,-0.2 L 28,6.7 28.05,6.5 28,6.3 24.1,-1.45 21.1,-6.6 Q 16.75,-9.7 11.05,-8.8 m -0.3,-4.65 q 9.6,-1.7 14.45,5.7 4.1,6.2 6,13.2 l 0.3,0.2 0.45,0.45 0.25,0.4 0.15,0.65 Q 31,12.8 24.7,11.7 20.15,10.85 18.4,6.45 L 18.25,6.25 17.75,5.75 17.6,5.6 17.4,5.35 16.9,5.15 16.35,4.95 15.9,5 15.25,5.2 14.6,5.85 11.7,8.65 9.3,10.8 Q 4.6,16.75 -1.2,11.35 -5.45,7.4 -3.7,1.7 q 2.75,-9.2 11.05,-14.15 1.6,-0.95 3.4,-1 M -9.65,21.1 -9.6,21.05 -5.85,18.4 q 4.2,-2.5 9.25,-3.2 l 9.85,-0.75 15.95,0.95 5.8,-0.3 2.05,-0.8 0.5,-0.15 0.1,-0.2 L 37.8,13.5 38,12.85 Q 37.65,11.2 38.05,9.55 L 38.35,7.1 Q 37.3,4.7 37.25,1.95 L 37.15,-1.3 Q 36.3,-3.65 36.1,-6.2 l -0.2,-3.25 q -1.05,-3.5 -1.5,-7.25 -0.25,-1.95 -0.25,-3.9 -0.3,-0.5 -0.45,-1.05 l -0.3,-1.95 -0.15,-0.2 -0.1,-0.25 q -0.7,-3.1 -1,-6.25 -19,-0.35 -37.85,0.8 l -1.45,0.4 -0.25,0.85 q -0.15,0.45 -0.45,0.85 -1.4,1.95 -3.55,3 l -0.75,0.35 q 0.3,1.95 -0.3,4.1 l -0.85,2.7 0.1,4.3 0.15,2.35 q 1.75,3.75 2.9,7.7 0.4,1.35 0.3,2.8 0.55,1.75 0.5,3.65 l -0.15,2.15 0.15,0.7 0.5,1.05 -0.05,0.2 v 0.2 0.25 0.2 l 0.1,0.2 0.25,0.45 v 2.55 q 0,1.05 -0.5,1.85 H -9.3 l -0.6,-0.3 -0.1,-0.2 -0.05,-1.5 q 0,-0.85 -0.15,-1.7 L -10.6,9 -10.75,8.6 -10.8,8.15 v -0.2 l -0.05,-0.15 -0.9,-3.3 -0.3,-2.55 -0.1,-2.8 -0.45,-0.85 -0.3,-1.3 -0.25,-0.25 -0.15,-0.2 -0.15,-0.3 q -1.7,-3.2 -2.25,-6.8 l -0.25,-2.75 q -0.45,-1.65 -0.45,-3.45 l 0.35,-2.15 q -0.15,-2 0.1,-3.95 l -2.55,1.1 -4,2.2 -0.05,0.25 -0.05,0.2 v 0.45 0.2 0.2 0.45 l 0.1,0.85 0.3,1.3 0.1,1.25 v 0.9 l 0.15,0.2 0.05,0.2 0.15,0.65 0.05,0.2 0.1,0.45 q 0.2,0.85 0.15,1.7 l 0.15,1.3 q 0.5,1.45 0.35,3 l 0.5,1.7 q 0.75,4.25 1.2,8.6 l 0.4,2.4 2.65,10.8 q 1.8,6.7 2.15,13.6 l 1.8,0.15 -0.5,-1.5 q -0.3,-1.45 0.25,-2.8 0.05,-3.6 2.85,-6.05 m 32.4,-45.85 q -1.5,0.7 -1.45,2.35 l 0.05,1.1 q 2.45,5.45 8,7 l 0.55,-0.15 -0.05,-1.05 -0.1,-1.3 -0.55,-1.05 -0.35,-1.1 q -1.65,-2.8 -4.1,-4.95 l -0.7,-0.65 -1.15,-0.2 h -0.15 m 7.25,51 -0.4,-1.65 -9.9,0.35 -5.25,-0.3 -5.5,0.45 Q 4.6,25.95 1.3,24.95 13.5,21.9 26.4,21.55 L 29.85,21 30,21.05 l 0.35,-0.9 0.9,-1.5 q -5.55,1.4 -11.7,0.85 -13.7,-1.3 -25.2,5.45 l -1.35,1.3 -0.05,0.2 -0.1,0.65 -0.05,0.2 v 0.25 0.2 l -0.05,0.2 -0.05,0.2 -0.05,0.45 v 0.05 l -0.1,0.4 0.05,0.2 0.6,0.35 q 0.55,0.3 1.05,0.7 L -5.3,30.75 -4.9,31.2 28.75,28.25 30.7,28 V 27.8 L 30,26.25 m -33.65,-50.15 -1.3,1.05 -0.6,0.45 q -1.4,1.65 -1.95,3.6 l -0.65,2.4 v 0.9 q 0,0.55 -0.25,1.05 -0.1,0.7 0.2,1.3 0.35,0.75 1.05,1.2 l 2.3,0.15 q 1.1,-1.25 1.85,-2.8 l 0.85,-1.7 0.1,-0.65 0.3,-0.65 0.15,-0.2 v -1.1 l 0.35,-1.05 -0.35,-0.85 -0.05,-0.85 0.05,-0.25 -0.3,-0.65 -0.25,-0.6 -0.15,-0.25 -0.15,-0.2 -0.2,-0.2 -0.85,-0.1 h -0.15"
         fill="#000000"
         fill-rule="evenodd"
         stroke="none"
         id="path1" />
      <path
         d="m 10.45,-22.8 q 1.3,-0.15 2.5,0.5 l 0.15,0.2 0.45,0.45 0.15,0.4 0.25,0.45 v 0.65 0.6 l -4.4,0.95 -0.4,0.4 -1.05,1.1 -0.8,0.1 0.5,-1.55 q 0.85,-2.4 2.65,-4.25 m 0.6,14 q 5.7,-0.9 10.05,2.2 l 3,5.15 L 28,6.3 28.05,6.5 28,6.7 27.9,6.95 Q 26.25,8.3 24.25,7.15 21.9,3.55 18.3,1.45 L 17.65,1.3 Q 11.2,2.2 7.3,8 L 6.25,8.8 4.8,10.15 Q 4,10.35 3.35,9.85 L 1.4,8.35 1.3,8.15 0.85,7.35 0.45,6.65 0.4,6.45 Q 0.3,5.1 0.65,3.85 L 0.95,2.15 1.1,1.95 1.45,1.05 1.5,0.65 Q 2.25,-1 3.35,-2.45 5.6,-5.4 8.25,-7.95 l 0.7,-0.2 2.1,-0.65 m 11.7,-15.95 h 0.15 l 1.15,0.2 0.7,0.65 q 2.45,2.15 4.1,4.95 l 0.35,1.1 0.55,1.05 0.1,1.3 0.05,1.05 -0.55,0.15 q -5.55,-1.55 -8,-7 l -0.05,-1.1 q -0.05,-1.65 1.45,-2.35 m -26.4,0.85 h 0.15 l 0.85,0.1 0.2,0.2 0.15,0.2 0.15,0.25 0.25,0.6 0.3,0.65 -0.05,0.25 0.05,0.85 0.35,0.85 -0.35,1.05 v 1.1 l -0.15,0.2 -0.3,0.65 -0.1,0.65 -0.85,1.7 q -0.75,1.55 -1.85,2.8 l -2.3,-0.15 q -0.7,-0.45 -1.05,-1.2 -0.3,-0.6 -0.2,-1.3 0.25,-0.5 0.25,-1.05 v -0.9 l 0.65,-2.4 q 0.55,-1.95 1.95,-3.6 l 0.6,-0.45 1.3,-1.05"
         fill="#3b3535"
         fill-rule="evenodd"
         stroke="none"
         id="path2" />
      <path
         d="m 22.2,-27.9 v 0.05 q -1.45,0.4 -2.65,1.45 l -0.45,0.45 q -1.1,2.9 -0.05,5.85 2,5.7 7.3,8.95 l 3.6,0.25 q 1.25,-0.3 2.3,-1 l 0.3,-0.4 0.15,-0.45 0.05,-0.4 v -0.25 l -0.05,-0.2 -0.3,-0.4 -0.1,-0.25 -0.1,-0.2 q 0.55,-3.25 -0.9,-6.05 -1.25,-2.5 -3.1,-4.7 l -0.35,-0.2 -0.65,-0.45 -0.15,-0.2 q -0.15,-0.7 -0.8,-1.05 -1.85,-1.15 -4.05,-0.8 m -12.1,2.15 v 0.05 l -0.4,0.05 -0.15,0.05 q -1.85,1.15 -3.05,2.9 -0.85,1.2 -1.25,2.6 l -0.2,0.2 -0.25,0.25 -0.05,0.2 -0.05,0.2 -0.1,0.45 v 0.4 l -0.15,0.25 -0.15,0.2 -0.15,0.2 -0.1,0.65 q -0.15,1 0.35,1.75 2.05,3.35 5.35,0.95 l 0.4,-0.6 0.25,-0.45 0.2,-0.65 4.6,-0.3 0.7,-0.4 0.4,-0.45 0.3,-0.85 -0.3,-2.75 q -0.75,-4.85 -6.2,-4.9 m -14.3,-1.3 q -2.3,0.5 -3.95,2.4 -1.65,1.85 -2.15,4.25 l -0.65,1.3 -0.1,0.65 v 0.2 l -0.8,1.65 -0.2,2.35 0.45,2.5 0.1,0.25 q 2.1,5.45 7.5,2.85 l 0.7,-0.85 1.15,-1.1 0.15,-0.2 0.1,-0.2 0.05,-0.25 0.1,-0.2 q 1.3,-1.9 2.35,-4.1 0.65,-1.3 0.65,-2.75 0.4,-0.7 0.3,-1.5 L 1.5,-20.65 V -20.9 L 1.45,-21.1 1.3,-21.3 1.25,-21.55 v -0.2 Q 1.05,-23.6 0.2,-25.2 l -0.7,-1.05 -1.15,-0.5 -2.55,-0.3 m -6.55,35.65 0.15,0.4 0.4,0.65 q 0.15,0.85 0.15,1.7 l 0.05,1.5 0.1,0.2 0.6,0.3 h 0.25 q 0.5,-0.8 0.5,-1.85 V 8.95 L -8.8,8.5 -8.9,8.3 V 8.1 7.85 7.65 L -8.85,7.45 -9.35,6.4 -9.5,5.7 -9.35,3.55 q 0.05,-1.9 -0.5,-3.65 0.1,-1.45 -0.3,-2.8 -1.15,-3.95 -2.9,-7.7 l -0.15,-2.35 -0.1,-4.3 0.85,-2.7 q 0.6,-2.15 0.3,-4.1 l 0.75,-0.35 q 2.15,-1.05 3.55,-3 0.3,-0.4 0.45,-0.85 l 0.25,-0.85 1.45,-0.4 q 18.85,-1.15 37.85,-0.8 0.3,3.15 1,6.25 l 0.1,0.25 0.15,0.2 0.3,1.95 q 0.15,0.55 0.45,1.05 0,1.95 0.25,3.9 0.45,3.75 1.5,7.25 l 0.2,3.25 q 0.2,2.55 1.05,4.9 l 0.1,3.25 q 0.05,2.75 1.1,5.15 l -0.3,2.45 q -0.4,1.65 -0.05,3.3 l -0.2,0.65 -0.15,0.45 -0.1,0.2 -0.5,0.15 L 35,15.1 29.2,15.4 13.25,14.45 3.4,15.2 q -5.05,0.7 -9.25,3.2 l -3.75,2.65 -0.05,0.05 -0.5,-1 -0.45,-2 q -0.2,-3.1 0.05,-6.25 l -0.2,-3.25 m 21.5,-22.05 q -1.8,0.05 -3.4,1 -8.3,4.95 -11.05,14.15 -1.75,5.7 2.5,9.65 5.8,5.4 10.5,-0.55 L 11.7,8.65 14.6,5.85 15.25,5.2 15.9,5 l 0.45,-0.05 0.55,0.2 0.5,0.2 0.2,0.25 0.15,0.15 0.5,0.5 0.15,0.2 q 1.75,4.4 6.3,5.25 6.3,1.1 7.65,-4.55 L 32.2,6.5 31.95,6.1 31.5,5.65 31.2,5.45 q -1.9,-7 -6,-13.2 -4.85,-7.4 -14.45,-5.7 m -24.2,9.7 0.15,0.3 0.15,0.2 0.25,0.25 0.3,1.3 0.45,0.85 0.1,2.8 0.3,2.55 -0.6,-1 q -0.35,-3.65 -1.1,-7.25 m 2.6,11.55 0.05,0.15 v 0.2 L -10.85,7.8 m 3.5,20.85 0.75,0.05 Q 4,27.05 14.75,26.15 l 4.2,-0.6 Q 24.8,24.8 30,26.25 l 0.7,1.55 V 28 L 28.75,28.25 -4.9,31.2 -5.3,30.75 -5.75,30.3 q -0.5,-0.4 -1.05,-0.7 l -0.6,-0.35 -0.05,-0.2 0.1,-0.4"
         fill="#615555"
         fill-rule="evenodd"
         stroke="none"
         id="path3" />
      <path
         d="m -10.75,8.6 0.2,3.25 Q -10.8,15 -10.6,18.1 l 0.45,2 0.5,1 q -2.8,2.45 -2.85,6.05 -0.55,1.35 -0.25,2.8 l 0.5,1.5 -1.8,-0.15 Q -14.4,24.4 -16.2,17.7 l -2.65,-10.8 -0.4,-2.4 q -0.45,-4.35 -1.2,-8.6 l -0.5,-1.7 q 0.15,-1.55 -0.35,-3 l -0.15,-1.3 q 0.05,-0.85 -0.15,-1.7 l -0.1,-0.45 -0.05,-0.2 -0.15,-0.65 -0.05,-0.2 -0.15,-0.2 v -0.9 l -0.1,-1.25 -0.3,-1.3 -0.1,-0.85 v -0.45 -0.2 -0.2 -0.45 l 0.05,-0.2 0.05,-0.25 4,-2.2 2.55,-1.1 q -0.25,1.95 -0.1,3.95 l -0.35,2.15 q 0,1.8 0.45,3.45 l 0.25,2.75 q 0.55,3.6 2.25,6.8 0.75,3.6 1.1,7.25 l 0.6,1 0.9,3.3 0.05,0.35 0.05,0.45"
         fill="#464040"
         fill-rule="evenodd"
         stroke="none"
         id="path4" />
      <path
         d="M -7.35,28.65 V 28.6 l 0.05,-0.45 0.05,-0.2 0.05,-0.2 v -0.2 -0.25 l 0.05,-0.2 0.1,-0.65 0.05,-0.2 1.35,-1.3 q 11.5,-6.75 25.2,-5.45 6.15,0.55 11.7,-0.85 l -0.9,1.5 L 30,21.05 29.85,21 26.4,21.55 q -12.9,0.35 -25.1,3.4 3.3,1 7.65,0.15 l 5.5,-0.45 5.25,0.3 9.9,-0.35 0.4,1.65 Q 24.8,24.8 18.95,25.55 l -4.2,0.6 Q 4,27.05 -6.6,28.7 l -0.75,-0.05"
         fill="#837676"
         fill-rule="evenodd"
         stroke="none"
         id="path5" />
    </g>
    <g
       id="sprite1"
       transform="translate(17.4,15.85)">
      <use
         ffdec:characterId="31"
         height="57.200001"
         transform="matrix(0.5366,0,0,0.5366,-16.6582,-14.546)"
         width="70.75"
         xlink:href="#sprite2"
         id="use5" />
    </g>
    <g
       id="sprite2"
       transform="translate(-8.65,-10.35)">
      <use
         ffdec:characterId="30"
         height="57.200001"
         transform="translate(8.65,10.35)"
         width="70.75"
         xlink:href="#shape1"
         id="use6" />
    </g>
    <g
       id="shape1"
       transform="translate(-8.65,-10.35)">
      <path
         d="m 14.8,41.7 q 0.65,-1.75 2.65,-2.5 1.8,-0.8 3.7,-0.25 1.15,0.45 2.25,1.2 l 0.9,0.4 q 1.65,0.9 2.85,2.5 L 37.8,30.1 q 2.35,-2.8 3.75,-3.95 1.5,-1.15 4.25,-2.4 18.2,-8.85 27.65,-12.6 2.15,-0.8 3.25,-0.8 h 0.8 l 1.9,2.4 -0.2,0.8 q -0.2,1.1 -1.55,3 -5.85,8.25 -18.85,23.8 -1.85,2.35 -3.35,3.5 -1.4,1.15 -4.75,2.75 l -15.15,7.15 q 1.2,1.6 1.75,3.4 l 0.2,1 0.55,2.5 q 0.1,1.95 -1.1,3.55 -1.2,1.65 -3.05,1.9 l -1.3,0.05 q -1.65,0.2 -3.45,-0.65 -1.85,-0.9 -3,-2.6 L 25,60.95 23.8,62.1 q -2.6,2.85 -4.3,3.95 -2.85,1.8 -5.5,1.45 l -1.65,-0.5 -1.2,-0.7 -0.2,-0.2 q -1,-0.85 -1.6,-1.9 L 9.25,64 9.15,63.8 8.75,62.4 q -0.2,-0.8 -0.05,-1.7 0.25,-2.65 2.7,-5.05 1.5,-1.3 4.9,-3.15 L 17.7,51.55 16.05,50 q -1.35,-1.5 -1.8,-3.6 -0.4,-1.85 0.25,-3.45 l 0.3,-1.25"
         fill="#000000"
         fill-opacity="0.372549"
         fill-rule="evenodd"
         stroke="none"
         id="path6" />
    </g>
  </defs>
</svg>
