<?xml version="1.0" encoding="UTF-8" standalone="no"?>
<svg
   ffdec:objectType="frame"
   height="85"
   width="74.44677"
   version="1.1"
   id="svg4"
   xmlns:xlink="http://www.w3.org/1999/xlink"
   xmlns="http://www.w3.org/2000/svg"
   xmlns:svg="http://www.w3.org/2000/svg"
   xmlns:ffdec="https://www.free-decompiler.com/flash">
  <g
     transform="translate(36.851316,41.3)"
     id="g1">
    <use
       ffdec:characterId="17"
       height="119.15"
       id="rarity"
       transform="translate(-58.5,-60.65)"
       width="119.15"
       xlink:href="#sprite0" />
    <use
       ffdec:characterId="880"
       height="85.449997"
       transform="translate(-36.85,-41.5)"
       width="74.449997"
       xlink:href="#shape0"
       id="use1" />
  </g>
  <defs
     id="defs4">
    <g
       id="shape0"
       transform="translate(37.4,42.25)">
      <path
         d="m -27.8,-15.35 q -1.15,-3.35 -2.7,-9.3 -0.6,-2.25 -0.2,-3.4 0.3,-0.85 1.3,-1.6 l 1.75,-1.3 2,-1.6 1.95,-1.65 q 3.8,-2.7 8.5,-2.55 0,-2.9 1,-3.9 0.65,-0.65 2.35,-1.05 l 11.25,-0.35 q 1.55,0.2 2.05,0.65 0.85,0.65 0.95,2.45 l 0.45,10.5 v 0.05 l 1.35,-0.25 1.5,0.25 q 1.8,0.5 2.85,1.7 l 1,1.4 q 1.65,-1.15 3.25,-1.15 1.75,0.1 3.05,1.3 l 0.3,0.25 0.4,-0.45 q 1.25,-1.35 2.4,-1.85 l 4.7,-0.2 4.7,0.7 q 2.2,0.3 3.05,0.95 l 1.25,1.8 0.6,2.15 q 0.5,2 1.55,4.65 l 1.8,4.5 q 0.7,1.7 0.3,2.7 -0.3,0.7 -1.7,1.5 l -3.45,1.6 0.9,1.25 0.45,0.8 0.05,0.8 -0.2,1.55 -0.6,1.05 -1.2,0.7 q -0.8,0.15 -1.3,-0.35 l -0.35,-0.6 0.3,-0.95 0.3,-0.55 0.15,-0.55 -0.1,-0.25 -1,-1.15 q -0.3,-0.15 -0.5,-0.25 l -3.15,1.75 -0.05,0.8 -0.05,0.45 0.1,0.3 0.6,0.8 q 0.3,0.25 1.1,0.35 l 1.15,0.55 q 0.7,0.7 0.45,1.75 -0.35,1 -1.4,1.15 l -1.3,-0.2 -0.75,-0.2 q -1,-0.4 -1.9,-1.55 l -0.65,-1.35 -0.15,-0.4 q -0.1,-0.35 -0.05,-0.8 l -4.7,2.15 0.05,0.2 0.25,1.75 q -0.1,2.2 -1.9,3.6 l -1.9,1.1 0.15,0.5 0.15,1 0.05,1.25 -0.45,1.85 0.65,0.25 q 0.5,-0.35 1.3,-0.55 l 2.4,-0.25 q 2.5,0.2 3.2,1.85 l 0.1,1 -0.6,0.65 h -0.7 l -0.75,-0.25 -2.25,0.2 -0.35,0.25 0.05,0.15 q 0.5,1.25 0,2.8 l 0.25,0.1 2.05,0.4 1.25,0.25 q 0.75,0.25 0.8,0.95 0.1,0.6 -0.55,1.05 l -1.35,0.5 -2.6,0.1 -1.25,-0.2 -0.45,-0.2 -0.65,0.45 -0.05,0.05 0.4,1.9 q 0.55,3.75 0.8,9.6 0.1,1.5 -0.4,2.1 -0.55,0.7 -2.15,0.9 L 9.2,36 4.95,35.75 Q 3.75,35.5 3.25,34.9 2.7,34.3 2.7,32.5 L 2.8,29.75 Q 2.95,26.1 3.4,22.4 3.6,21.05 4.1,20.65 L 5.45,20.05 7.05,19.5 6.9,19.3 6.45,18.4 5.8,18.6 3.85,19.2 2.05,18.85 0.75,18.3 0.1,17.65 0.35,20.3 0.65,22.75 1,24.7 q -0.05,0.95 -1.2,2.1 l -2.85,2.05 -2.55,1.5 0.4,1.05 0.05,1.5 -0.05,1.3 -0.4,0.95 -0.45,0.9 0.2,0.6 0.1,1.25 0.05,1.35 L -5.85,41 -6,41.65 -6.55,42.4 q -0.45,0.45 -1,0.45 -0.7,0 -0.95,-0.65 l -0.1,-0.95 v -0.9 -1.05 l -0.1,-1.3 -1.35,0.35 h -0.8 l -0.1,1 0.35,0.8 0.35,0.75 q 0.25,1.25 -0.65,1.9 l -2,0.15 q -0.65,-0.3 -1.1,-1.35 -0.6,-1.45 -0.3,-3.05 l 0.35,-1.15 -1,-0.8 Q -15.6,35.95 -15.85,35 L -16,33.7 q 0,-2.3 1.3,-3.75 l -2.4,-1.7 -1.4,-1.6 -0.3,-1.3 -0.85,-0.45 -1.6,-0.95 -0.9,-1.25 -0.65,-1.35 -0.1,-1.05 v -0.15 l -0.65,0.05 -0.5,0.7 q -0.8,0.8 -2.95,0.8 -5.15,-0.1 -7.95,-1.65 l -1.55,-1.35 -0.45,-1.65 -0.1,-1.8 -0.35,-1.85 q -0.05,-1.55 1.8,-3.7 l 5.5,-6.75 1.5,-1.5 q 1,-0.75 2,-0.45 0.35,0.1 1.25,0.75 l 0.7,0.55 0.75,0.15 q 0.7,0.25 1.8,1.25 l 0.15,0.15 0.5,-0.65 0.55,-0.55 -0.25,-0.2 Q -22.6,1.2 -22.9,0.4 q -0.35,-0.85 -0.05,-2.25 l -0.65,0.4 q -0.85,0.5 -1.6,0.65 l -1.3,0.05 q -1.4,-0.1 -2.15,-0.9 L -29.35,-3 q -0.35,-0.8 -0.3,-1.15 0,-0.5 0.55,-0.8 0.5,-0.25 1,0 l 0.55,0.5 q 0.8,0.55 2,0 1.15,-0.6 1.35,-1.7 0.1,-0.55 -0.15,-1.1 -0.25,-0.6 -0.75,-0.85 l -1.35,-0.15 -0.75,0.25 -0.55,0.55 -0.45,0.7 q -0.85,1.05 -2.15,0.6 -0.55,-0.2 -0.9,-0.7 -0.4,-0.5 -0.35,-1.1 0.1,-0.8 0.95,-1.7 l 0.75,-0.8 q 1.3,-1.15 3.6,-1.2 l -1.5,-3.7 m 49.75,-1.45 -0.35,-1 -0.3,-0.8 -0.2,-0.45 -1.05,-2.9 -0.15,-0.4 -0.1,0.1 -0.05,0.05 -0.05,0.05 -2.05,2.15 -6.25,7.15 -0.95,1.15 -0.3,0.55 0.15,0.8 1.05,2.25 0.4,0.9 0.6,0.9 0.95,0.35 7.15,-5.25 1.2,-1.05 0.8,-1.25 0.2,-0.95 -0.2,-0.9 -0.5,-1.45 M 11.2,-20 l 0.4,0.2 2.45,-2.9 -0.3,-0.2 -0.65,-0.2 -0.65,0.05 q -1.1,0.4 -1.5,1.45 -0.5,1.1 0.25,1.6 m -5.05,-2 0.4,-0.6 -0.05,-1.2 -0.85,-0.9 -1.9,-0.15 -0.85,0.5 v 4.05 l 0.75,-0.15 q 1.4,-0.3 2.5,-1.55 M 9.1,-16.65 8.2,-17.7 H 8.15 l -0.7,0.25 Q 6.15,-17 5.5,-15.8 l -0.05,0.25 0.1,0.25 0.3,0.55 q 0.25,0.3 0.9,0.5 l 0.4,0.05 1.95,-2.45 M 2.35,-9.5 Q 1.5,-7.85 -1,-7.1 l -2.1,0.45 -0.2,0.05 -0.15,0.7 -0.6,1.1 -0.9,1.15 0.9,1.25 0.4,0.8 0.2,-0.4 1.1,-1.35 0.7,-0.4 0.75,-0.7 1.5,-0.2 L 1.8,-4.6 1.75,-5.35 1.9,-6.7 q 0.35,-1.65 2,-2.85 0.9,-0.75 1.8,-1 L 5.6,-10.6 4.2,-11.2 q -0.8,-0.55 -0.9,-0.65 l -0.4,-0.6 q -0.05,1.9 -0.55,2.95 m 5.95,5 -1.35,-3.2 -0.4,0.15 -1.1,1.15 -0.1,1 0.1,0.8 q 0.2,0.35 0.65,0.6 0.5,0.3 0.8,0.3 L 7.45,-3.85 8.3,-4.5 m -9.4,5 0.1,0.9 q 0.35,0.45 1.15,0.55 L 1.3,1.85 Q 2.2,1.5 2.55,0.3 L 2.8,-0.55 2.05,-1.4 1.5,-1.5 -0.2,-1.55 -0.7,-1.4 -0.85,-1.1 -1.1,0.5 M 14.65,0.6 13.2,-0.45 12.7,-0.9 12.5,-0.7 11.6,-0.1 11,0.6 10.85,1.4 11.4,2.3 12.2,2.95 q 0.95,0.45 2,-0.35 0.6,-0.5 0.65,-1 0.1,-0.4 -0.2,-1 m 15.5,-18.35 -1.25,-3.75 -0.3,-0.55 -0.55,-0.2 -5.55,-0.8 -0.6,-0.05 q 1.5,2.4 2.5,4.8 l 0.75,1.9 0.55,2.1 q 0.05,1.9 -1.4,3.65 -0.9,1.15 -3,2.65 l -5.25,3.9 q 2.3,-0.65 5.35,-2.4 l 5.35,-3.05 5.6,-2.4 -2.2,-5.8 M -1.2,-24.4 -1.25,-29.95 q 0,-4.5 -0.35,-7.2 l -0.25,-0.55 -0.45,-0.1 -7.85,0.4 -0.35,0.05 q -1.2,0.55 -1.35,2.1 l -0.05,2.1 0.1,0.8 q 1.05,8.1 3.1,15.1 l 1.1,3.8 0.4,1.8 1.05,0.35 0.9,-0.05 0.95,-0.2 2,-0.35 q 0.95,-0.45 1.3,-1.2 0.45,-0.8 0.35,-2.2 0,-2.5 -0.5,-7.45 L -1.2,-24.4 m -7.05,-1.8 q 0.6,-0.75 1.7,-0.65 0.7,0.2 1,0.55 0.85,0.75 0.6,1.9 -0.25,1.15 -1.3,1.45 l -0.6,0.1 -0.55,-0.1 q -0.6,-0.2 -0.95,-0.65 -0.8,-1.05 -0.2,-2.25 l 0.3,-0.35 m -6.35,-1.35 -0.8,-3.85 -0.05,-0.35 -0.4,-0.05 q -2.25,-0.1 -4.95,1.75 l -2.1,1.7 q -1.35,1.2 -2.1,1.7 l -0.45,0.5 v 0.45 l 0.2,0.95 0.45,-0.2 2.8,-0.95 1.6,-0.35 q 1.1,0.1 1.75,0.85 l 0.3,0.45 0.45,1.05 0.4,0.65 q 0.3,0.45 0.5,1.45 l 1.2,3.9 0.45,1.3 q 0.1,0.8 -0.25,1.35 -0.3,0.5 -1.55,1.05 l -3.95,1.75 1.8,3 q 3.95,-0.6 7.85,-2.05 l 1.15,-0.35 q -2.4,-6.1 -3.75,-12.8 l -0.55,-2.9 m 6.4,-3.15 q -0.65,-0.35 -0.9,-0.95 -0.25,-0.7 0.05,-1.3 0.4,-1 1.55,-1 0.8,0 1.25,0.45 0.5,0.4 0.55,1.1 0.05,0.65 -0.3,1.15 -0.35,0.5 -1,0.65 l -1.2,-0.1 m -10.1,14.05 -0.65,-1.9 -0.4,-1.9 q -0.3,-1.5 -1.15,-2.9 l -4.05,1.3 -0.05,0.05 q 1.05,3.9 2.35,7.05 l 3.95,-1.7 m 2.45,13.2 -0.5,-0.2 -0.7,-0.15 q -1.5,-0.05 -2.25,1.65 l -0.05,0.8 q 0.15,0.6 0.95,0.7 l 1.25,0.3 0.4,0.15 0.35,-0.2 q 0.95,-0.7 1.15,-1.45 v -0.5 L -15.5,-3 -15.85,-3.45 M -10,1.35 -8.4,1.6 Q -7.95,1.55 -7.45,1.05 L -6.9,0.4 -6.8,-0.3 q -0.15,-1.05 -1.2,-1.5 -0.95,-0.4 -1.95,0 -0.45,0.15 -0.75,0.45 l -0.55,1.2 -0.05,0.65 0.25,0.4 0.4,0.4 0.65,0.05 m 2,-7.5 -1.05,-0.55 -1.25,0.15 -1.2,0.4 0.15,0.1 1.2,0.3 2.55,-0.2 L -7.5,-6 -8,-6.15 m 6.6,15.5 0.55,2.9 0.2,-0.5 0.4,-0.75 1.3,-1.3 Q 2.65,8.45 4.55,8.55 L 4.65,7.9 Q 4.8,6.7 5.1,5.8 5.55,4.65 6.25,4 6.7,3.65 7.5,3.4 L 7.3,3 7.2,2 Q 7.25,0.8 7.45,0.15 L 6.5,0.25 5.85,0.1 5.6,1.45 Q 5.25,2.9 3.9,4.15 l -1.6,1 -3.1,0.2 -1.15,-0.25 0.1,1.45 0.45,2.8 M -4.55,2.7 -4,2.75 -4.1,2.15 -4.55,2.7 M -9.6,11.2 Q -9.85,10.15 -9.2,9.35 -8.75,8.8 -8,8.6 l 1.4,0.15 q 0.65,0.35 0.95,1.05 0.35,0.7 0.2,1.35 -0.15,0.7 -0.75,1.2 -0.6,0.45 -1.3,0.5 L -8.85,12.4 q -0.6,-0.5 -0.75,-1.2 m -6.95,-6.6 -1.2,0.2 -1.1,0.3 -0.3,0.2 -0.05,0.4 0.35,1.4 q 0.9,0.8 1.5,0.75 l 0.9,-0.35 0.55,-0.9 0.2,-1.1 q 0,-0.8 -0.85,-0.9 m -0.85,7.1 -1.35,-0.05 0.1,0.4 0.25,1.95 0.95,-0.05 0.5,0.1 0.45,-2.4 -0.9,0.05 m 4.45,4.05 -1.4,7.85 v 1 l 0.75,0.8 1,0.5 1.3,0.9 q 1,0.75 1.85,0.55 L -8.5,27 -3.3,23.85 q 0.7,-0.6 0.85,-1 l -0.05,-0.9 -1,-5.75 -1.85,-9.3 -5.85,-0.2 -1.5,7.85 -0.25,1.2 m -4.65,1.55 0.1,-0.55 -1.05,0.65 -0.6,0.9 -0.35,0.7 q -0.2,0.6 0,1.25 l 0.75,1 0.35,0.25 0.8,-4.2 M -24.5,8.6 V 8.55 L -24.6,7.8 -25.1,6.9 q -0.75,-1.1 -1.75,-1.6 l -3.2,3.75 -2.85,3.9 -0.25,0.5 0.15,0.7 0.15,0.85 v 0.35 l 0.05,0.75 0.5,0.4 q 1.75,0.9 5.45,0.8 l 2.25,-7.1 0.1,-1 V 8.6 m 2.4,6.35 -0.9,2.65 0.5,-0.35 0.2,-0.1 0.7,-1 0.1,-0.35 0.25,-0.75 0.2,-1.15 -0.3,-1.1 -0.1,-0.2 -0.65,2.35 m 12.9,17.1 q -1.1,0.1 -2.65,-0.55 l -0.2,0.3 q -0.75,1.05 -0.4,1.8 l 1,0.8 1.2,0.25 1.1,-0.45 q 0.75,-0.45 0.85,-0.95 l 0.15,-0.6 -0.05,-0.8 -1,0.2 M 10.7,9.85 Q 11.4,9.7 11.5,8.7 11.6,7.55 10.7,6.85 L 10.2,6.55 Q 9.45,6.15 8.5,6.25 l -0.35,2 Q 8.05,9.1 8.5,9.5 l 1.1,0.35 0.5,0.05 0.6,-0.05 m -7.75,5.35 0.8,0.25 0.35,0.3 0.4,0.15 0.75,-0.35 Q 6.2,14.7 6.25,13.85 6.35,13.4 6.1,13 L 5.65,12.4 5.15,11.9 3.7,11.85 Q 3.05,12.1 2.6,12.9 2.2,13.45 2.2,14.15 2.3,15 2.95,15.2 m 11.1,1.45 0.25,-0.7 L 14.15,15.2 13.8,14.6 Q 13.2,13.85 12.05,14.2 11.5,14.4 10.4,15.15 L 10,15.5 9.9,15.95 9.8,16.5 q -0.05,0.3 0.05,0.5 0.05,0.45 0.7,0.7 l 1.3,0.25 h 1.05 l 0.6,-0.4 0.35,-0.5 0.2,-0.4 m -2.55,7.5 -0.25,-1.25 -2.5,0.05 -1.85,-0.05 -0.2,1 v 0.5 l 2.15,0.05 2.45,-0.3 h 0.2 M 6.4,28.1 6.45,31.7 8.6,32 9.2,31.95 9.85,31.8 11,31.65 12.15,31.4 11.7,26.45 V 26.3 l -2.2,0.3 -2,0.1 -0.45,0.2 -0.6,0.1 -0.05,1.1"
         fill="#000000"
         fill-rule="evenodd"
         stroke="none"
         id="path1" />
      <path
         d="m 11.35,-8.1 -1.05,-2.25 -0.15,-0.8 0.3,-0.55 0.95,-1.15 6.25,-7.15 2.05,-2.15 0.05,-0.05 0.05,-0.05 0.1,-0.1 0.15,0.4 1.05,2.9 0.2,0.45 0.3,0.8 0.35,1 -0.55,0.7 -1.25,1.35 -5.4,5.1 q -1.1,1 -2,1.3 l -1.4,0.25 M 24.4,-18.3 q -1,-2.4 -2.5,-4.8 l 0.6,0.05 5.55,0.8 0.55,0.2 0.3,0.55 1.25,3.75 -1.05,0.15 -1.4,-0.25 -1.1,-0.05 -2.2,-0.4 m -34.55,-19.1 7.85,-0.4 0.45,0.1 0.25,0.55 q 0.35,2.7 0.35,7.2 l 0.05,5.55 -0.7,1.35 q -1.15,1.55 -2.75,1.5 -1.25,-0.05 -2.2,-1.3 l 0.6,-0.1 q 1.05,-0.3 1.3,-1.45 0.25,-1.15 -0.6,-1.9 -0.3,-0.35 -1,-0.55 -1.1,-0.1 -1.7,0.65 L -9,-28.75 q -1.45,-5.15 -1.3,-7.65 l 0.15,-1 m -8.5,12 q -0.65,-0.75 -1.75,-0.85 l -1.6,0.35 -2.8,0.95 -0.45,0.2 -0.2,-0.95 v -0.45 l 0.45,-0.5 q 0.75,-0.5 2.1,-1.7 l 2.1,-1.7 q 2.7,-1.85 4.95,-1.75 l 0.4,0.05 0.05,0.35 0.8,3.85 -1.2,0.7 q -1.6,0.9 -2.85,1.45 m 10.45,-5.3 1.2,0.1 q 0.65,-0.15 1,-0.65 0.35,-0.5 0.3,-1.15 -0.05,-0.7 -0.55,-1.1 -0.45,-0.45 -1.25,-0.45 -1.15,0 -1.55,1 -0.3,0.6 -0.05,1.3 0.25,0.6 0.9,0.95 m -1.4,41.9 q 0.15,0.7 0.75,1.2 l 1.35,0.45 q 0.7,-0.05 1.3,-0.5 0.6,-0.5 0.75,-1.2 Q -5.3,10.5 -5.65,9.8 -5.95,9.1 -6.6,8.75 L -8,8.6 q -0.75,0.2 -1.2,0.75 -0.65,0.8 -0.4,1.85 m 6.1,5 q -0.65,1.1 -1.8,1.6 l -2.05,0.3 -1.95,0.1 -1.75,-0.25 q -1,-0.35 -1.45,-1 l -0.45,-1.2 0.25,-1.2 1.5,-7.85 5.85,0.2 1.85,9.3 M -32.85,15 -33,14.15 l -0.15,-0.7 0.25,-0.5 2.85,-3.9 3.2,-3.75 q 1,0.5 1.75,1.6 l 0.5,0.9 0.1,0.75 V 8.6 l -1.4,2.4 q -2,3 -4.75,4.05 L -31.8,15.25 -32.85,15 M 11.5,24.15 H 11.3 L 8.85,24.45 6.7,24.4 v -0.5 l 0.2,-1 1.85,0.05 2.5,-0.05 0.25,1.25"
         fill="#8b8b8b"
         fill-rule="evenodd"
         stroke="none"
         id="path2" />
      <path
         d="m 11.35,-8.1 1.4,-0.25 q 0.9,-0.3 2,-1.3 l 5.4,-5.1 1.25,-1.35 0.55,-0.7 0.5,1.45 0.2,0.9 -0.2,0.95 -0.8,1.25 -1.2,1.05 -7.15,5.25 -0.95,-0.35 -0.6,-0.9 -0.4,-0.9 m 13.05,-10.2 2.2,0.4 1.1,0.05 1.4,0.25 1.05,-0.15 2.2,5.8 -5.6,2.4 -5.35,3.05 q -3.05,1.75 -5.35,2.4 L 21.3,-8 q 2.1,-1.5 3,-2.65 1.45,-1.75 1.4,-3.65 l -0.55,-2.1 -0.75,-1.9 m -34.55,-19.1 -0.15,1 q -0.15,2.5 1.3,7.65 l 0.75,2.55 -0.3,0.35 q -0.6,1.2 0.2,2.25 0.35,0.45 0.95,0.65 l 0.55,0.1 q 0.95,1.25 2.2,1.3 1.6,0.05 2.75,-1.5 l 0.7,-1.35 0.05,1.65 q 0.5,4.95 0.5,7.45 0.1,1.4 -0.35,2.2 -0.35,0.75 -1.3,1.2 l -2,0.35 -0.95,0.2 -0.9,0.05 -1.05,-0.35 -0.4,-1.8 -1.1,-3.8 q -2.05,-7 -3.1,-15.1 l -0.1,-0.8 0.05,-2.1 q 0.15,-1.55 1.35,-2.1 l 0.35,-0.05 m -8.5,12 q 1.25,-0.55 2.85,-1.45 l 1.2,-0.7 0.55,2.9 q 1.35,6.7 3.75,12.8 l -1.15,0.35 q -3.9,1.45 -7.85,2.05 l -1.8,-3 3.95,-1.75 q 1.25,-0.55 1.55,-1.05 0.35,-0.55 0.25,-1.35 l -0.45,-1.3 -1.2,-3.9 q -0.2,-1 -0.5,-1.45 l -0.4,-0.65 -0.45,-1.05 -0.3,-0.45 m 0.35,8.75 -3.95,1.7 q -1.3,-3.15 -2.35,-7.05 l 0.05,-0.05 4.05,-1.3 q 0.85,1.4 1.15,2.9 l 0.4,1.9 0.65,1.9 m 5.35,32.4 0.45,1.2 q 0.45,0.65 1.45,1 l 1.75,0.25 1.95,-0.1 2.05,-0.3 q 1.15,-0.5 1.8,-1.6 l 1,5.75 0.05,0.9 q -0.15,0.4 -0.85,1 L -8.5,27 -9.45,27.35 q -0.85,0.2 -1.85,-0.55 l -1.3,-0.9 -1,-0.5 -0.75,-0.8 v -1 l 1.4,-7.85 m -19.9,-0.75 1.05,0.25 1.15,-0.2 Q -27.9,14 -25.9,11 l 1.4,-2.4 v 0.6 l -0.1,1 -2.25,7.1 q -3.7,0.1 -5.45,-0.8 l -0.5,-0.4 -0.05,-0.75 V 15 M 6.4,28.1 6.45,27 l 0.6,-0.1 0.45,-0.2 2,-0.1 2.2,-0.3 v 0.15 L 12.15,31.4 11,31.65 9.85,31.8 9.2,31.95 8.6,32 6.45,31.7 6.4,28.1"
         fill="#717171"
         fill-rule="evenodd"
         stroke="none"
         id="path3" />
    </g>
    <g
       id="sprite1"
       transform="translate(17.4,15.85)">
      <use
         ffdec:characterId="31"
         height="57.200001"
         transform="matrix(0.5366,0,0,0.5366,-16.6582,-14.546)"
         width="70.75"
         xlink:href="#sprite2"
         id="use3" />
    </g>
    <g
       id="sprite2"
       transform="translate(-8.65,-10.35)">
      <use
         ffdec:characterId="30"
         height="57.200001"
         transform="translate(8.65,10.35)"
         width="70.75"
         xlink:href="#shape1"
         id="use4" />
    </g>
    <g
       id="shape1"
       transform="translate(-8.65,-10.35)">
      <path
         d="m 14.8,41.7 q 0.65,-1.75 2.65,-2.5 1.8,-0.8 3.7,-0.25 1.15,0.45 2.25,1.2 l 0.9,0.4 q 1.65,0.9 2.85,2.5 L 37.8,30.1 q 2.35,-2.8 3.75,-3.95 1.5,-1.15 4.25,-2.4 18.2,-8.85 27.65,-12.6 2.15,-0.8 3.25,-0.8 h 0.8 l 1.9,2.4 -0.2,0.8 q -0.2,1.1 -1.55,3 -5.85,8.25 -18.85,23.8 -1.85,2.35 -3.35,3.5 -1.4,1.15 -4.75,2.75 l -15.15,7.15 q 1.2,1.6 1.75,3.4 l 0.2,1 0.55,2.5 q 0.1,1.95 -1.1,3.55 -1.2,1.65 -3.05,1.9 l -1.3,0.05 q -1.65,0.2 -3.45,-0.65 -1.85,-0.9 -3,-2.6 L 25,60.95 23.8,62.1 q -2.6,2.85 -4.3,3.95 -2.85,1.8 -5.5,1.45 l -1.65,-0.5 -1.2,-0.7 -0.2,-0.2 q -1,-0.85 -1.6,-1.9 L 9.25,64 9.15,63.8 8.75,62.4 q -0.2,-0.8 -0.05,-1.7 0.25,-2.65 2.7,-5.05 1.5,-1.3 4.9,-3.15 L 17.7,51.55 16.05,50 q -1.35,-1.5 -1.8,-3.6 -0.4,-1.85 0.25,-3.45 l 0.3,-1.25"
         fill="#000000"
         fill-opacity="0.372549"
         fill-rule="evenodd"
         stroke="none"
         id="path4" />
    </g>
  </defs>
</svg>
