<?xml version="1.0" encoding="UTF-8" standalone="no"?>
<svg
   ffdec:objectType="frame"
   height="64.173531"
   width="53.239555"
   version="1.1"
   id="svg4"
   xmlns:xlink="http://www.w3.org/1999/xlink"
   xmlns="http://www.w3.org/2000/svg"
   xmlns:svg="http://www.w3.org/2000/svg"
   xmlns:ffdec="https://www.free-decompiler.com/flash">
  <g
     transform="translate(28.8,29.65)"
     id="g1">
    <use
       ffdec:characterId="17"
       height="119.15"
       id="rarity"
       transform="translate(-58.5,-60.65)"
       width="119.15"
       xlink:href="#sprite0" />
    <use
       ffdec:characterId="855"
       height="64.150002"
       transform="translate(-28.8,-29.65)"
       width="53.25"
       xlink:href="#shape0"
       id="use1" />
  </g>
  <defs
     id="defs4">
    <g
       id="shape0"
       transform="translate(29.35,30.4)">
      <path
         d="m -0.3,-4.9 -0.05,-0.3 q -0.5,-3.25 -2.1,-8.7 -1.9,-6.2 -2.4,-8.55 l -1.4,0.25 -17.4,3.5 0.05,7.05 0.05,9.5 q 0.1,3.3 0.65,4.6 l 1.95,3.05 2.5,2.95 1.25,1 1.1,0.1 1.1,-0.1 q 1.9,-0.2 3.7,0.9 1.7,1.05 2.55,2.85 0.8,1.75 0.7,3.75 -0.1,2 -1,3.75 3.5,3.5 7.6,6.1 1,0.6 1.6,0.5 L 1.2,26.75 8.15,21.2 q 3.7,-3.3 5.85,-6.6 3.85,-6 4.4,-14 0.45,-6.65 -1.55,-14.75 l -1.75,-5.65 -1.45,-3.15 -0.8,-1.1 -1.55,-0.25 -4.1,0.25 1,3.2 0.3,2.05 0.4,4 0.45,3.2 0.35,1.7 0.2,0.85 q 0.3,2.9 -0.05,5.55 l -0.3,0.7 Q 9.1,-2.55 8.7,-3.05 8.5,-3.35 8.5,-4 l -0.15,-3.9 -0.1,-0.75 -0.4,-2 -1.7,-7.5 -1.65,-3.95 -0.8,-1.6 -4.4,0.6 q 0.75,3.2 1.6,9.6 l 0.4,3.3 0.6,4.85 0.15,1.65 0.35,7.6 V 9.05 L 2.25,9.7 Q 2.05,10 1.75,9.95 1.35,9.8 1.35,9.25 L -0.3,-4.9 m -14.55,20.45 -0.85,0.1 -0.9,0.4 q -1.45,0.45 -2.9,-0.5 l -2.25,-2.1 -3.65,-4.3 q -2.35,-2.85 -3.05,-4.75 -0.7,-1.8 -0.8,-6.15 l -0.1,-15.9 0.2,-2.8 q 0.3,-1.55 1.15,-2.4 0.75,-0.75 3.1,-1.5 18.2,-5.1 36.2,-6.05 l 2.35,0.05 q 1.35,0.15 2.2,0.75 1,0.6 2.1,2.65 6.85,12.6 5.8,28.55 -0.35,4.85 -1.35,8.15 -2.8,9 -12.95,17.6 l -6.35,5 q -1.9,1.3 -3.05,1.4 -1.6,0.2 -4.05,-1.3 -3.55,-2.25 -10.25,-8.3 -2.25,-2.05 -1.85,-3.65 l 0.7,-1.25 0.95,-1.2 q 0.45,-0.65 0.35,-1.45 -0.05,-0.85 -0.75,-1.05"
         fill="#000000"
         fill-rule="evenodd"
         stroke="none"
         id="path1" />
      <path
         d="m -23.6,-11.65 -0.05,-7.05 17.4,-3.5 1.4,-0.25 q 0.5,2.35 2.4,8.55 1.6,5.45 2.1,8.7 l 0.05,0.3 q -4,0.5 -9.75,-0.8 -7.65,-1.8 -12.15,-4.9 l -1.4,-1.05 m 25.5,6.3 -0.6,-4.85 -0.4,-3.3 q -0.85,-6.4 -1.6,-9.6 l 4.4,-0.6 0.8,1.6 1.65,3.95 1.7,7.5 0.4,2 -1.8,1.25 q -2.3,1.35 -4.55,2.05 m 7.8,-4.55 -0.35,-1.7 -0.45,-3.2 -0.4,-4 -0.3,-2.05 -1,-3.2 4.1,-0.25 1.55,0.25 0.8,1.1 1.45,3.15 q -0.55,3 -2.25,5.9 -1.35,2.2 -3.15,4"
         fill="#6d5b5b"
         fill-rule="evenodd"
         stroke="none"
         id="path2" />
      <path
         d="m -23.6,-11.65 1.4,1.05 q 4.5,3.1 12.15,4.9 5.75,1.3 9.75,0.8 L 1.35,9.25 q 0,0.55 0.4,0.7 Q 2.05,10 2.25,9.7 L 2.4,9.05 V 3.9 L 2.05,-3.7 1.9,-5.35 q 2.25,-0.7 4.55,-2.05 l 1.8,-1.25 0.1,0.75 0.15,3.9 q 0,0.65 0.2,0.95 0.4,0.5 0.85,0.25 l 0.3,-0.7 Q 10.2,-6.15 9.9,-9.05 L 9.7,-9.9 q 1.8,-1.8 3.15,-4 1.7,-2.9 2.25,-5.9 l 1.75,5.65 q 2,8.1 1.55,14.75 -0.55,8 -4.4,14 -2.15,3.3 -5.85,6.6 L 1.2,26.75 0.15,27.3 q -0.6,0.1 -1.6,-0.5 -4.1,-2.6 -7.6,-6.1 0.9,-1.75 1,-3.75 0.1,-2 -0.7,-3.75 -0.85,-1.8 -2.55,-2.85 -1.8,-1.1 -3.7,-0.9 l -1.1,0.1 -1.1,-0.1 -1.25,-1 -2.5,-2.95 -1.95,-3.05 q -0.55,-1.3 -0.65,-4.6 l -0.05,-9.5"
         fill="#514040"
         fill-rule="evenodd"
         stroke="none"
         id="path3" />
    </g>
    <g
       id="sprite1"
       transform="translate(17.4,15.85)">
      <use
         ffdec:characterId="31"
         height="57.200001"
         transform="matrix(0.5366,0,0,0.5366,-16.6582,-14.546)"
         width="70.75"
         xlink:href="#sprite2"
         id="use3" />
    </g>
    <g
       id="sprite2"
       transform="translate(-8.65,-10.35)">
      <use
         ffdec:characterId="30"
         height="57.200001"
         transform="translate(8.65,10.35)"
         width="70.75"
         xlink:href="#shape1"
         id="use4" />
    </g>
    <g
       id="shape1"
       transform="translate(-8.65,-10.35)">
      <path
         d="m 14.8,41.7 q 0.65,-1.75 2.65,-2.5 1.8,-0.8 3.7,-0.25 1.15,0.45 2.25,1.2 l 0.9,0.4 q 1.65,0.9 2.85,2.5 L 37.8,30.1 q 2.35,-2.8 3.75,-3.95 1.5,-1.15 4.25,-2.4 18.2,-8.85 27.65,-12.6 2.15,-0.8 3.25,-0.8 h 0.8 l 1.9,2.4 -0.2,0.8 q -0.2,1.1 -1.55,3 -5.85,8.25 -18.85,23.8 -1.85,2.35 -3.35,3.5 -1.4,1.15 -4.75,2.75 l -15.15,7.15 q 1.2,1.6 1.75,3.4 l 0.2,1 0.55,2.5 q 0.1,1.95 -1.1,3.55 -1.2,1.65 -3.05,1.9 l -1.3,0.05 q -1.65,0.2 -3.45,-0.65 -1.85,-0.9 -3,-2.6 L 25,60.95 23.8,62.1 q -2.6,2.85 -4.3,3.95 -2.85,1.8 -5.5,1.45 l -1.65,-0.5 -1.2,-0.7 -0.2,-0.2 q -1,-0.85 -1.6,-1.9 L 9.25,64 9.15,63.8 8.75,62.4 q -0.2,-0.8 -0.05,-1.7 0.25,-2.65 2.7,-5.05 1.5,-1.3 4.9,-3.15 L 17.7,51.55 16.05,50 q -1.35,-1.5 -1.8,-3.6 -0.4,-1.85 0.25,-3.45 l 0.3,-1.25"
         fill="#000000"
         fill-opacity="0.372549"
         fill-rule="evenodd"
         stroke="none"
         id="path4" />
    </g>
  </defs>
</svg>
