<?xml version="1.0" encoding="UTF-8" standalone="no"?>
<svg
   ffdec:objectType="frame"
   height="44.212765"
   width="43.376404"
   version="1.1"
   id="svg7"
   xmlns:xlink="http://www.w3.org/1999/xlink"
   xmlns="http://www.w3.org/2000/svg"
   xmlns:svg="http://www.w3.org/2000/svg"
   xmlns:ffdec="https://www.free-decompiler.com/flash">
  <g
     transform="translate(25.364865,22.1)"
     id="g1">
    <use
       ffdec:characterId="17"
       height="119.15"
       id="rarity"
       transform="translate(-58.5,-60.65)"
       width="119.15"
       xlink:href="#sprite0" />
    <use
       ffdec:characterId="76"
       height="44.200001"
       transform="translate(-25.35,-22.1)"
       width="43.349998"
       xlink:href="#sprite1"
       id="use1" />
  </g>
  <defs
     id="defs7">
    <g
       id="sprite1">
      <use
         ffdec:characterId="75"
         height="44.200001"
         width="43.349998"
         xlink:href="#shape0"
         id="use2" />
    </g>
    <g
       id="shape0">
      <path
         d="M 38.55,0.75 Q 40.95,1.3 42,2.6 l 0.05,0.05 q 1.1,1.5 1.1,5.05 l 0.15,8.65 q 0.2,15.95 -0.25,23 -0.15,2.1 -0.8,3.05 -0.8,0.85 -3.15,1.3 V 43.65 Q 31.7,44.8 22.15,43.6 L 5.05,40.75 H 5 Q 1.75,40.2 0.7,38.95 -0.45,37.3 0.25,33.45 L 3.7,14.9 Q 5,7.8 6.1,4.75 6.9,2.35 8.15,1.45 8.95,0.95 10.95,0.7 L 30.45,0 38.5,0.75 h 0.05 m -10.3,3.9 Q 26.35,4.6 24.45,4.7 L 13.2,5.7 Q 11.8,5.9 11.3,6.4 11,6.65 10.8,7.25 L 10.5,8.3 10.4,8.8 11.25,8.75 h 1.45 l 3.15,0.1 1.45,-0.1 1.45,-0.05 h 0.4 l 2.05,0.2 6.35,0.05 6.35,0.5 q 1.3,0.3 1.85,0.8 l 0.55,0.85 -0.1,1 q -0.3,0.65 -1.15,0.8 h -1.5 -0.3 L 28.8,12.45 Q 24.25,12.1 18.7,12.2 L 15.65,12.35 14.8,12.4 11,12.75 9.65,12.95 6.8,30 l -0.65,4.2 0.05,0.6 0.6,0.3 2.2,0.45 4.85,0.9 8.5,1.4 q 7.7,1 15.45,0.3 0.85,-10.15 0.25,-20 l -0.2,-4.05 0.2,-4.55 Q 38.15,6.9 37.5,5.1 l -4.65,-0.35 -4.6,-0.1 m -0.5,10.3 0.9,0.6 0.95,0.95 0.05,0.05 0.05,-0.05 2.35,-0.05 q 3.2,0.5 4.35,1.95 0.8,1 1.05,2.7 0.35,2.25 -0.05,5.5 l -0.85,5.5 q -0.2,2.2 -0.8,3.1 L 34.35,36 33.9,36.05 33.45,36.3 31.4,36.5 28.05,36.25 25.3,35.95 23.65,35.65 21.4,35.5 17.65,34.75 15.9,34.65 12.65,33.95 Q 11.15,33.45 10.5,32.8 L 10.25,32.7 10.2,32.65 Q 9.5,32.2 9.2,31.4 L 9,30 9.05,28.25 9.6,24.3 q 0.3,-2.6 1,-3.9 0.9,-1.5 2.8,-2.8 1.4,-1 2.3,-1.1 l 1.45,0.1 1.4,-0.1 1.5,-0.85 0.9,-0.45 1.8,-0.7 q 1.5,-0.55 2.5,-0.5 1.05,0.05 2.5,0.95 M 27.15,18.8 26.7,18.25 Q 25.85,17.2 25.25,17.1 l -0.8,0.05 -2.1,0.4 q -1.05,0.2 -1.3,0.6 L 20.8,19 l -0.1,0.4 -0.05,0.2 -0.35,-0.1 -0.65,0.15 -0.2,-0.05 q -1.35,-0.25 -2.4,0 -1.05,0.3 -1.9,1 -1,0.85 -1.4,1.75 -0.4,0.85 -0.4,2.7 0.05,0.95 0.25,1.6 l 0.15,0.5 -0.4,2.8 v 0.3 q 1.05,0.5 2.85,0.6 l 3.1,0.2 3.9,0.6 h 0.6 l 1.65,0.05 1.35,0.25 0.5,0.05 1.2,-0.05 3.65,0.3 0.8,0.2 0.7,-4.75 Q 34,24.5 33.7,21.95 33.6,21.1 33.3,20.75 32.85,20.25 31.8,20.2 h -0.15 l -2.15,-0.4 -0.85,-0.55 -0.5,0.05 q -0.45,0 -1,-0.5"
         fill="#000000"
         fill-rule="evenodd"
         stroke="none"
         id="path2" />
      <path
         d="m 32.85,4.75 q 0.3,0.9 -0.1,1.75 -0.4,0.85 -1.3,1.2 l -1.8,0.05 -1.1,-0.85 q -0.4,-0.6 -0.45,-1.4 0,-0.45 0.15,-0.85 l 4.6,0.1 M 24.45,4.7 24,6.15 q -0.9,1.65 -3.55,2.3 l -1.3,0.25 h -0.4 L 17.3,8.75 15.85,8.85 12.7,8.75 H 11.25 Q 10.75,8.15 10.8,7.25 11,6.65 11.3,6.4 11.8,5.9 13.2,5.7 l 11.25,-1 m 8.8,8.2 q -2.35,1.45 -5.5,2.05 -1.45,-0.9 -2.5,-0.95 -1,-0.05 -2.5,0.5 l -1.8,0.7 -2.85,-0.3 -2.15,-0.55 Q 14.8,13.7 14.8,12.6 v -0.2 l 0.85,-0.05 3.05,-0.15 q 5.55,-0.1 10.1,0.25 l 4.45,0.45 m -23,19.8 v 0.05 Q 10.1,34.1 9,35.55 L 6.8,35.1 6.2,34.8 6.15,34.2 6.8,30 Q 7.2,29.8 7.65,29.75 L 9,30 9.2,31.4 q 0.3,0.8 1,1.25 l 0.05,0.05"
         fill="#ffffff"
         fill-rule="evenodd"
         stroke="none"
         id="path3" />
      <path
         d="m 20.8,19 0.25,-0.85 q 0.25,-0.4 1.3,-0.6 l 2.1,-0.4 0.8,-0.05 q 0.6,0.1 1.45,1.15 l 0.45,0.55 q -0.2,0.4 -0.25,0.9 -0.05,0.55 0.35,1.3 l 0.65,0.7 q 0.65,0.5 1.5,0.45 0.85,0 1.5,-0.55 l 0.85,-1.3 0.05,-0.1 q 1.05,0.05 1.5,0.55 0.3,0.35 0.4,1.2 0.3,2.55 -0.05,5.75 l -0.7,4.75 -0.8,-0.2 -3.65,-0.3 -1.2,0.05 0.35,-0.15 q 1.6,-0.8 2.1,-3.55 0.3,-2.15 -0.6,-3.1 -0.6,-0.6 -1.95,-0.8 -2.4,-0.35 -3.8,0.7 -1.5,1.15 -1.6,3.4 0,1.15 0.4,1.8 0.5,0.85 1.6,1.35 h -0.6 l -3.9,-0.6 -3.1,-0.2 q -1.8,-0.1 -2.85,-0.6 v -0.3 l 0.4,-2.8 -0.15,-0.5 0.05,0.05 q 1,0.8 2.75,0.8 1.85,0.1 3,-0.55 1,-0.55 2.05,-2.05 1,-1.85 0.9,-3.3 -0.1,-1.85 -1.55,-2.6"
         fill="#b3c2b0"
         fill-rule="evenodd"
         stroke="none"
         id="path4" />
      <path
         d="m 20.8,19 q 1.45,0.75 1.55,2.6 0.1,1.45 -0.9,3.3 -1.05,1.5 -2.05,2.05 -1.15,0.65 -3,0.55 -1.75,0 -2.75,-0.8 L 13.6,26.65 q -0.2,-0.65 -0.25,-1.6 0,-1.85 0.4,-2.7 0.4,-0.9 1.4,-1.75 0.85,-0.7 1.9,-1 1.05,-0.25 2.4,0 l 0.2,0.05 0.65,-0.15 0.35,0.1 0.05,-0.2 0.1,-0.4 m 3,12.65 q -1.1,-0.5 -1.6,-1.35 -0.4,-0.65 -0.4,-1.8 0.1,-2.25 1.6,-3.4 1.4,-1.05 3.8,-0.7 1.35,0.2 1.95,0.8 0.9,0.95 0.6,3.1 -0.5,2.75 -2.1,3.55 L 27.3,32 26.8,31.95 25.45,31.7 23.8,31.65 m 8,-11.45 -0.05,0.1 -0.85,1.3 q -0.65,0.55 -1.5,0.55 -0.85,0.05 -1.5,-0.45 L 27.25,21 q -0.4,-0.75 -0.35,-1.3 0.05,-0.5 0.25,-0.9 0.55,0.5 1,0.5 l 0.5,-0.05 0.85,0.55 2.15,0.4 h 0.15"
         fill="#9fad9d"
         fill-rule="evenodd"
         stroke="none"
         id="path5" />
      <path
         d="m 28.25,4.65 q -0.15,0.4 -0.15,0.85 0.05,0.8 0.45,1.4 l 1.1,0.85 1.8,-0.05 q 0.9,-0.35 1.3,-1.2 0.4,-0.85 0.1,-1.75 L 37.5,5.1 q 0.65,1.8 0.55,4.45 l -0.2,4.55 0.2,4.05 q 0.6,9.85 -0.25,20 -7.75,0.7 -15.45,-0.3 L 13.85,36.45 9,35.55 q 1.1,-1.45 1.25,-2.8 V 32.7 l 0.25,0.1 q 0.65,0.65 2.15,1.15 l 3.25,0.7 1.75,0.1 3.75,0.75 2.25,0.15 1.65,0.3 2.75,0.3 3.35,0.25 2.05,-0.2 0.45,-0.25 0.45,-0.05 1.4,-0.8 q 0.6,-0.9 0.8,-3.1 l 0.85,-5.5 q 0.4,-3.25 0.05,-5.5 -0.25,-1.7 -1.05,-2.7 -1.15,-1.45 -4.35,-1.95 l -2.35,0.05 -0.05,0.05 -0.05,-0.05 -0.95,-0.95 -0.9,-0.6 q 3.15,-0.6 5.5,-2.05 h 0.3 1.5 q 0.85,-0.15 1.15,-0.8 l 0.1,-1 -0.55,-0.85 Q 35.2,9.75 33.9,9.45 L 27.55,8.95 21.2,8.9 19.15,8.7 20.45,8.45 Q 23.1,7.8 24,6.15 L 24.45,4.7 q 1.9,-0.1 3.8,-0.05 M 14.8,12.4 v 0.2 q 0,1.1 1.15,1.75 l 2.15,0.55 2.85,0.3 -0.9,0.45 -1.5,0.85 -1.4,0.1 -1.45,-0.1 q -0.9,0.1 -2.3,1.1 -1.9,1.3 -2.8,2.8 -0.7,1.3 -1,3.9 L 9.05,28.25 9,30 7.65,29.75 Q 7.2,29.8 6.8,30 L 9.65,12.95 11,12.75 14.8,12.4 m -4,-5.15 q -0.05,0.9 0.45,1.5 L 10.4,8.8 10.5,8.3 10.8,7.25"
         fill="#ffffff"
         fill-opacity="0"
         fill-rule="evenodd"
         stroke="none"
         id="path6" />
    </g>
    <g
       id="sprite2"
       transform="translate(17.4,15.85)">
      <use
         ffdec:characterId="31"
         height="57.200001"
         transform="matrix(0.5366,0,0,0.5366,-16.6582,-14.546)"
         width="70.75"
         xlink:href="#sprite3"
         id="use6" />
    </g>
    <g
       id="sprite3"
       transform="translate(-8.65,-10.35)">
      <use
         ffdec:characterId="30"
         height="57.200001"
         transform="translate(8.65,10.35)"
         width="70.75"
         xlink:href="#shape1"
         id="use7" />
    </g>
    <g
       id="shape1"
       transform="translate(-8.65,-10.35)">
      <path
         d="m 14.8,41.7 q 0.65,-1.75 2.65,-2.5 1.8,-0.8 3.7,-0.25 1.15,0.45 2.25,1.2 l 0.9,0.4 q 1.65,0.9 2.85,2.5 L 37.8,30.1 q 2.35,-2.8 3.75,-3.95 1.5,-1.15 4.25,-2.4 18.2,-8.85 27.65,-12.6 2.15,-0.8 3.25,-0.8 h 0.8 l 1.9,2.4 -0.2,0.8 q -0.2,1.1 -1.55,3 -5.85,8.25 -18.85,23.8 -1.85,2.35 -3.35,3.5 -1.4,1.15 -4.75,2.75 l -15.15,7.15 q 1.2,1.6 1.75,3.4 l 0.2,1 0.55,2.5 q 0.1,1.95 -1.1,3.55 -1.2,1.65 -3.05,1.9 l -1.3,0.05 q -1.65,0.2 -3.45,-0.65 -1.85,-0.9 -3,-2.6 L 25,60.95 23.8,62.1 q -2.6,2.85 -4.3,3.95 -2.85,1.8 -5.5,1.45 l -1.65,-0.5 -1.2,-0.7 -0.2,-0.2 q -1,-0.85 -1.6,-1.9 L 9.25,64 9.15,63.8 8.75,62.4 q -0.2,-0.8 -0.05,-1.7 0.25,-2.65 2.7,-5.05 1.5,-1.3 4.9,-3.15 L 17.7,51.55 16.05,50 q -1.35,-1.5 -1.8,-3.6 -0.4,-1.85 0.25,-3.45 l 0.3,-1.25"
         fill="#000000"
         fill-opacity="0.372549"
         fill-rule="evenodd"
         stroke="none"
         id="path7" />
    </g>
  </defs>
</svg>
