<?xml version="1.0" encoding="UTF-8" standalone="no"?>
<svg
   ffdec:objectType="frame"
   height="65.059998"
   width="86.149109"
   version="1.1"
   id="svg7"
   xmlns:xlink="http://www.w3.org/1999/xlink"
   xmlns="http://www.w3.org/2000/svg"
   xmlns:svg="http://www.w3.org/2000/svg"
   xmlns:ffdec="https://www.free-decompiler.com/flash">
  <g
     transform="translate(46.46875,34.31)"
     id="g1">
    <use
       ffdec:characterId="17"
       height="119.15"
       id="rarity"
       transform="translate(-58.5,-60.65)"
       width="119.15"
       xlink:href="#sprite0" />
    <use
       ffdec:characterId="915"
       height="65.050003"
       transform="translate(-46.45,-34.3)"
       width="86.150002"
       xlink:href="#shape0"
       id="use1" />
  </g>
  <defs
     id="defs7">
    <g
       id="shape0"
       transform="translate(93.25,35.65)">
      <path
         d="m -47.85,-29.75 q 14.4,-0.95 21.6,10.65 l 1.55,-0.4 3.25,-0.55 q 7.1,-1.15 11.6,4 1.35,1.55 1.65,3.5 2.75,6.95 -1.5,13.25 -2.4,3.55 -5.4,6.55 L -15.95,8 q 0.1,6 -3.8,10.5 -1.85,2.15 -4.45,3.45 -11.9,6 -25.2,7 l -12,0.45 q -9.15,-0.05 -15.7,-6 -2.05,-1.8 -2.85,-4.45 V 18.9 q -6.55,0.3 -11.4,-3.9 -0.7,-0.6 -1,-1.5 -2.1,-5.8 0.6,-11.55 L -91.7,0.9 q 0.1,-0.65 0.55,-1.1 1.05,-3.95 3.1,-7.6 0.75,-1.25 1.95,-2.05 l 0.4,-0.05 q 6.9,-6.05 16.35,-6.4 l 1.35,0.45 0.9,-1.25 -3.8,-0.05 -5.05,-0.3 q -1.15,3.6 -5.9,3.65 -1.25,0.05 -1.8,-1.05 -1.1,-2.3 -1.1,-5 0,-2.55 0.45,-4.95 -0.85,-3.85 0.6,-7.45 1.2,-3 4.4,-3.4 2.5,-0.15 3.75,1.95 l 0.45,0.8 q 2.35,-1 4.8,-1.4 8.6,-0.95 15.25,4.35 l 1.65,1.6 q 2.6,-0.95 5.55,-1.4 M -83.6,-6.5 q -2.85,3.45 0.9,6.1 l 0.35,0.25 q 2.25,-2.2 5.65,-2.6 l 0.45,-0.05 0.05,-0.05 h 0.35 q 2.3,-4.45 5,-8.7 -7.15,0.75 -12.75,5.05 m 23.05,-21.45 q -6.9,-3.5 -13.45,0.15 l 0.05,0.2 q 0.3,0.95 0.25,1.95 l -0.1,2.15 -0.2,1.3 10.25,0.85 q 2.8,-3.1 6.2,-5.05 l -3,-1.55 m -17.4,-3.4 -0.15,-0.1 -0.65,-0.2 -0.4,0.15 -0.35,0.2 q -0.8,3.7 -0.65,7.5 l 0.05,3 0.25,2.8 0.05,0.05 0.1,-0.15 0.2,-0.4 0.25,-0.45 0.1,-0.6 q 0,-0.95 0.45,-1.65 0.1,-5.15 1,-9.9 l -0.25,-0.25 m 8.65,28.8 -4.15,7.8 q 0,0.8 -0.3,1.55 -0.45,1.1 -0.55,2.3 -0.1,1.3 -0.8,2.35 v 0.65 0.65 l -0.1,1.05 0.05,1.1 q 0.4,0.6 0.55,1.3 0.15,1 0.7,1.95 l 0.55,0.95 0.65,0.95 q 2.4,2.1 5.55,2.5 l 0.35,0.05 q 1.95,0.3 3.75,1 7.8,1.45 15.65,-0.1 8.35,-1.65 16.3,-4.6 2.1,-1.5 4.5,-2.55 1.5,-0.65 2.95,-1.5 2.55,-4.8 1.6,-10.5 -0.85,-4.85 -3.1,-9.25 l -1.25,-3.25 -0.55,-0.9 -1.1,-1.55 q -3.7,-5.45 -8.15,-10.35 l -1.5,-1.25 -1.15,-0.5 q -4.15,-1.5 -8.55,-1 -6.7,1.4 -11.45,5.55 l -0.45,0.45 v 0.1 q -0.1,0.5 -0.7,0.75 l -0.35,0.15 q -1.85,1.85 -3.35,4.25 l -0.6,1 -4.85,8.55 -0.15,0.35 m 37.5,-1.2 q 1.8,6.3 -0.75,12.2 -0.4,0.95 -1.4,1.25 -12.6,4 -25.95,2.85 -2.65,-0.2 -4.05,-2.3 l -0.4,-0.75 q -2.05,-4 -0.35,-8.4 l 1.6,-3.55 q 2.45,-4.7 6.35,-8.35 1.1,-1.05 2.5,-1.7 3.1,-1.5 6.3,-2.2 h 0.3 q 11.05,-1 15.1,8.9 l 0.2,0.5 0.55,1.55 m -18.6,-5.5 -2.2,1.45 q 0.1,1.25 -0.25,2.5 0.3,2.75 0.25,5.6 0,1.9 -0.45,3.65 l 0.05,2.6 -0.15,0.7 3.45,-0.2 -0.2,-1.75 0.8,-14.45 -1.3,-0.1 m 7.45,0.35 -0.45,-0.15 h -1.55 q 0.6,7.9 -0.5,15.55 L -42.4,6 -42.45,4.35 q 0.6,-6.15 0.75,-12.2 l 0.1,-0.6 -1.35,-0.45 m 21.05,-2.7 1.6,2.9 q 2.05,-1.65 3.3,-3.9 l 0.4,-0.55 v -0.4 -0.45 l 0.1,-0.4 0.05,-0.05 -7.35,-0.35 1.9,3.2 m 10.2,4.9 -0.05,-0.65 Q -12,-9.1 -12.6,-10.75 l -0.5,-1.1 q -1.5,3.7 -5.35,5.75 L -19,-5.85 q 1.55,3.7 2.3,7.65 4,-3.45 5,-8.5 M -36.55,4.55 q 0.3,-0.5 0.25,-1.1 V 2.4 1.95 l -1.2,-4.65 q 0.15,3.8 -0.3,7.6 l 1.25,-0.35 M -58.5,0.5 -59.85,4.25 v 1.3 l 0.35,1.25 0.3,0.45 2.05,0.05 -0.25,-1.65 q 0.05,-4.55 0.7,-8.95 -1.1,1.75 -1.8,3.8 m -19.9,1.8 0.3,-0.6 h -1.05 -0.35 l 1.1,0.6 m -1.15,2.65 q -5.1,-0.8 -7.3,-4.35 l -0.95,3.85 -0.65,4.5 0.15,1.1 0.3,1.05 q 3.15,2.35 7.1,3.05 -0.4,-4.65 1.35,-9.2"
         fill="#000000"
         fill-rule="evenodd"
         stroke="none"
         id="path1" />
      <path
         d="m -63.1,-2.45 -0.05,0.05 q -0.8,0.7 -1.9,0.65 L -66.2,-2 q -2.05,0.7 -3.1,-0.55 l 0.15,-0.35 4.85,-8.55 0.6,-1 3.7,-4.4 q 0.6,-0.25 0.7,-0.75 l 0.45,-0.55 q 4.75,-4.15 11.45,-5.55 4.4,-0.5 8.55,1 l 1.15,0.5 0.05,1.1 q -3.95,4.5 -10,6.4 h -0.3 q -3.2,0.7 -6.3,2.2 -1.4,0.65 -2.5,1.7 -3.9,3.65 -6.35,8.35 m -10.25,21.55 0.9,-0.5 0.25,-0.05 0.45,-0.1 0.05,-0.05 q 2.85,-0.2 4.25,2.25 l 0.65,1.5 v 0.25 0.2 l -0.35,-0.05 q -3.15,-0.4 -5.55,-2.5 l -0.65,-0.95 m 46.4,-28.15 q -2.4,2.15 -4.4,4.7 l -0.45,0.6 -0.55,-1.55 -0.2,-0.5 1.95,-2.6 2.55,-2.2 1.1,1.55 m -5.6,17.5 1.85,-0.6 1.3,0.45 0.35,0.2 q 2.25,5.45 -4.2,7.7 l -5.5,1.9 q -13.1,4.55 -24.35,-2.1 -2.2,-1.3 -2.95,-3.65 0.45,-2.25 2.1,-2.1 1.4,2.1 4.05,2.3 13.35,1.15 25.95,-2.85 1,-0.3 1.4,-1.25"
         fill="#8c8c8c"
         fill-rule="evenodd"
         stroke="none"
         id="path2" />
      <path
         d="m -77.95,-31.35 0.25,0.25 q -0.9,4.75 -1,9.9 -0.45,0.7 -0.45,1.65 l -0.1,0.6 -0.25,0.45 -0.2,0.4 -0.1,0.15 -0.05,-0.05 -0.25,-2.8 -0.05,-3 q -0.15,-3.8 0.65,-7.5 l 0.35,-0.2 0.4,-0.15 0.65,0.2 0.15,0.1 m 8.65,28.8 q 1.05,1.25 3.1,0.55 l 1.15,0.25 q 1.1,0.05 1.9,-0.65 l 0.05,-0.05 -1.6,3.55 q -1.7,4.4 0.35,8.4 l 0.4,0.75 q -1.65,-0.15 -2.1,2.1 0.75,2.35 2.95,3.65 11.25,6.65 24.35,2.1 l 5.5,-1.9 q 6.45,-2.25 4.2,-7.7 l -0.35,-0.2 -1.3,-0.45 -1.85,0.6 q 2.55,-5.9 0.75,-12.2 l 0.45,-0.6 q 2,-2.55 4.4,-4.7 l 0.55,0.9 1.25,3.25 q 2.25,4.4 3.1,9.25 0.95,5.7 -1.6,10.5 -1.45,0.85 -2.95,1.5 -2.4,1.05 -4.5,2.55 -7.95,2.95 -16.3,4.6 -7.85,1.55 -15.65,0.1 -1.8,-0.7 -3.75,-1 v -0.2 -0.25 l -0.65,-1.5 q -1.4,-2.45 -4.25,-2.25 l -0.05,0.05 -0.45,0.1 -0.25,0.05 -0.9,0.5 -0.55,-0.95 q -0.55,-0.95 -0.7,-1.95 -0.15,-0.7 -0.55,-1.3 l -0.05,-1.1 0.1,-1.05 V 12.1 11.45 q 0.7,-1.05 0.8,-2.35 0.1,-1.2 0.55,-2.3 0.3,-0.75 0.3,-1.55 l 4.15,-7.8 m 21.65,-12.15 q 6.05,-1.9 10,-6.4 l -0.05,-1.1 1.5,1.25 q 4.45,4.9 8.15,10.35 l -2.55,2.2 -1.95,2.6 q -4.05,-9.9 -15.1,-8.9"
         fill="#6d6d6d"
         fill-rule="evenodd"
         stroke="none"
         id="path3" />
      <path
         d="m -42.95,-8.9 1.35,0.45 -0.1,0.6 q -0.15,6.05 -0.75,12.2 L -42.4,6 -45.45,6.5 q 1.1,-7.65 0.5,-15.55 h 1.55 l 0.45,0.15 m -7.45,-0.35 1.3,0.1 -0.8,14.45 0.2,1.75 -3.45,0.2 0.15,-0.7 -0.05,-2.6 q 0.45,-1.75 0.45,-3.65 0.05,-2.85 -0.25,-5.6 0.35,-1.25 0.25,-2.5 l 2.2,-1.45 m 13.85,13.8 -1.25,0.35 q 0.45,-3.8 0.3,-7.6 l 1.2,4.65 V 2.4 3.45 q 0.05,0.6 -0.25,1.1 M -58.5,0.5 q 0.7,-2.05 1.8,-3.8 -0.65,4.4 -0.7,8.95 L -57.15,7.3 -59.2,7.25 -59.5,6.8 -59.85,5.55 V 4.25 L -58.5,0.5"
         fill="#494949"
         fill-rule="evenodd"
         stroke="none"
         id="path4" />
      <path
         d="m -60.55,-27.95 3,1.55 q -3.4,1.95 -6.2,5.05 L -74,-22.2 l 0.2,-1.3 0.1,-2.15 q 0.05,-1 -0.25,-1.95 L -74,-27.8 q 6.55,-3.65 13.45,-0.15 M -11.7,-6.7 q -1,5.05 -5,8.5 -0.75,-3.95 -2.3,-7.65 l 0.55,-0.25 q 3.85,-2.05 5.35,-5.75 l 0.5,1.1 q 0.6,1.65 0.85,3.4 l 0.05,0.65 M -79.55,4.95 q -1.75,4.55 -1.35,9.2 -3.95,-0.7 -7.1,-3.05 l -0.3,-1.05 -0.15,-1.1 0.65,-4.5 0.95,-3.85 q 2.2,3.55 7.3,4.35"
         fill="#765d5d"
         fill-rule="evenodd"
         stroke="none"
         id="path5" />
      <path
         d="m -83.6,-6.5 q 5.6,-4.3 12.75,-5.05 -2.7,4.25 -5,8.7 h -0.35 l -0.05,0.05 -0.45,0.05 q -3.4,0.4 -5.65,2.6 L -82.7,-0.4 q -3.75,-2.65 -0.9,-6.1 m 61.7,-5.1 -1.9,-3.2 7.35,0.35 -0.05,0.05 -0.1,0.4 v 0.45 0.4 l -0.4,0.55 q -1.25,2.25 -3.3,3.9 l -1.6,-2.9"
         fill="#574545"
         fill-rule="evenodd"
         stroke="none"
         id="path6" />
    </g>
    <g
       id="sprite1"
       transform="translate(17.4,15.85)">
      <use
         ffdec:characterId="31"
         height="57.200001"
         transform="matrix(0.5366,0,0,0.5366,-16.6582,-14.546)"
         width="70.75"
         xlink:href="#sprite2"
         id="use6" />
    </g>
    <g
       id="sprite2"
       transform="translate(-8.65,-10.35)">
      <use
         ffdec:characterId="30"
         height="57.200001"
         transform="translate(8.65,10.35)"
         width="70.75"
         xlink:href="#shape1"
         id="use7" />
    </g>
    <g
       id="shape1"
       transform="translate(-8.65,-10.35)">
      <path
         d="m 14.8,41.7 q 0.65,-1.75 2.65,-2.5 1.8,-0.8 3.7,-0.25 1.15,0.45 2.25,1.2 l 0.9,0.4 q 1.65,0.9 2.85,2.5 L 37.8,30.1 q 2.35,-2.8 3.75,-3.95 1.5,-1.15 4.25,-2.4 18.2,-8.85 27.65,-12.6 2.15,-0.8 3.25,-0.8 h 0.8 l 1.9,2.4 -0.2,0.8 q -0.2,1.1 -1.55,3 -5.85,8.25 -18.85,23.8 -1.85,2.35 -3.35,3.5 -1.4,1.15 -4.75,2.75 l -15.15,7.15 q 1.2,1.6 1.75,3.4 l 0.2,1 0.55,2.5 q 0.1,1.95 -1.1,3.55 -1.2,1.65 -3.05,1.9 l -1.3,0.05 q -1.65,0.2 -3.45,-0.65 -1.85,-0.9 -3,-2.6 L 25,60.95 23.8,62.1 q -2.6,2.85 -4.3,3.95 -2.85,1.8 -5.5,1.45 l -1.65,-0.5 -1.2,-0.7 -0.2,-0.2 q -1,-0.85 -1.6,-1.9 L 9.25,64 9.15,63.8 8.75,62.4 q -0.2,-0.8 -0.05,-1.7 0.25,-2.65 2.7,-5.05 1.5,-1.3 4.9,-3.15 L 17.7,51.55 16.05,50 q -1.35,-1.5 -1.8,-3.6 -0.4,-1.85 0.25,-3.45 l 0.3,-1.25"
         fill="#000000"
         fill-opacity="0.372549"
         fill-rule="evenodd"
         stroke="none"
         id="path7" />
    </g>
  </defs>
</svg>
