<?xml version="1.0" encoding="UTF-8" standalone="no"?>
<svg
   ffdec:objectType="frame"
   height="88.506454"
   width="89.591003"
   version="1.1"
   id="svg6"
   sodipodi:docname="ITEM Cap and Bells.svg"
   xmlns:inkscape="http://www.inkscape.org/namespaces/inkscape"
   xmlns:sodipodi="http://sodipodi.sourceforge.net/DTD/sodipodi-0.dtd"
   xmlns:xlink="http://www.w3.org/1999/xlink"
   xmlns="http://www.w3.org/2000/svg"
   xmlns:svg="http://www.w3.org/2000/svg"
   xmlns:ffdec="https://www.free-decompiler.com/flash">
  <sodipodi:namedview
     id="namedview6"
     pagecolor="#ffffff"
     bordercolor="#000000"
     borderopacity="0.25"
     inkscape:showpageshadow="2"
     inkscape:pageopacity="0.0"
     inkscape:pagecheckerboard="0"
     inkscape:deskcolor="#d1d1d1"
     fit-margin-top="5"
     fit-margin-left="5"
     fit-margin-right="5"
     fit-margin-bottom="5" />
  <g
     transform="translate(46.341,43.6)"
     id="g1">
    <use
       ffdec:characterId="17"
       height="119.15"
       id="rarity"
       transform="translate(-58.5,-60.65)"
       width="119.15"
       xlink:href="#sprite0" />
    <use
       ffdec:characterId="1299"
       height="88.650002"
       transform="translate(-46.35,-43.75)"
       width="89.599998"
       xlink:href="#shape0"
       id="use1" />
  </g>
  <defs
     id="defs6">
    <g
       id="shape0"
       transform="translate(45.05,41.85)">
      <path
         d="m -13.6,26.7 q -1.4,0.5 -2.95,-0.85 l -1.1,-1.15 -1,-1.2 q -0.7,-0.7 -1.25,-0.8 l -1.35,0.2 -2.8,1.05 q -1.65,0.6 -2,1.45 -0.2,0.55 0.15,2.35 l 0.2,2.8 q 0.15,1.3 1.05,3.9 l 1.3,3.55 0.3,-0.3 2.25,-1.7 q 0.6,-0.4 1.2,-0.55 l 1.4,-0.1 1.65,0.05 q 1.8,0.4 2.7,2.35 0.7,1.6 0.45,3.7 l -0.2,1.2 -1,2.1 -1.1,1.2 q -1,0.75 -2.8,0.85 -2.6,0.1 -4.8,-1.35 l -1.05,-0.8 -2.15,-0.6 q -4.05,-1.85 -6.5,-3.3 -3.4,-2.1 -5.6,-4.55 l -1.45,-1.75 -1.65,-1.6 -1.15,-0.9 -1,-1.05 q -0.55,-0.9 -0.75,-2.3 -1.05,-5.75 0.4,-14.25 l 0.85,-3.5 q 0.65,-1.7 2.4,-4.05 3.6,-4.55 8.6,-7.7 5.05,-3.15 10.7,-4.4 2.05,-0.45 2.65,-0.9 l 0.95,-0.75 0.9,-0.85 1.7,-1.6 q 0.65,-0.9 0.85,-2.55 0.5,-3.4 -0.2,-6.95 l -3.85,-0.65 -3.85,-0.55 q -1.65,0.05 -4.75,0.9 l -3.5,0.9 0.15,0.75 q 0.25,2.5 -0.8,4.05 l -0.7,0.75 q -0.8,0.7 -1.55,0.95 l -1.05,0.2 -1.6,-0.05 -1.35,-0.45 -1.1,-0.6 q -1.1,-0.8 -1.4,-2 -0.35,-1.1 -0.05,-2.4 0.3,-1.45 1.4,-2.55 l 1,-0.85 0.75,-0.5 2.2,-0.3 0.15,0.05 0.5,-1 3.5,-5.15 q 4.1,-5.35 11.25,-10.2 2.15,-1.55 3.8,-2.2 1.7,-0.65 5.5,-1.15 l 4.95,-0.65 4.35,-0.1 q 1.8,0.3 3.65,1.55 l 4.35,3.7 q 8.1,8.45 10.25,17.4 l 1.1,6.7 0.35,5 0.65,-0.25 5.85,-0.5 q 1.6,0.4 3.5,1.7 l 3.15,2.35 2,1.3 1.85,1.4 2.8,2.9 1.25,1.2 1.15,1.3 q 0.7,1.15 1.25,4.3 0.45,2.5 1.65,7.5 0.9,4.45 0.45,7.55 -0.3,1.85 -1.5,5.1 -0.9,2.6 -1.85,3.55 L 38.6,33.6 q -3.5,1.55 -10.1,3.3 -7.35,1.95 -10.25,3.05 l -0.95,0.35 -0.5,1.5 -0.45,0.95 -0.85,0.9 -1.75,1 -1.35,0.05 -1.7,-0.45 Q 8.8,43.85 7.9,42.05 7.1,40.55 7.35,38.4 L 7.6,37.45 q 0.4,-0.95 1.8,-1.9 1.25,-0.8 2.15,-1 l 2.8,0.15 0.9,0.4 0.5,0.4 2.6,-3.5 q 1.8,-2.3 3.45,-3.45 l 3.4,-2.35 q 1,-1.05 1.45,-2.8 l 0.45,-3.25 q -4.85,5.55 -11.85,8.15 -2.7,1.05 -3.8,-0.3 -0.65,-0.25 -1,-0.9 -0.35,-0.6 -0.3,-1.35 l -2,-3.15 Q 6.75,20.8 5.1,19.9 3.25,18.95 0.6,18.95 q -3.1,-0.05 -5.85,1.2 -2.95,1.25 -4.65,3.6 -1.15,1.6 -1.8,1.9 l -0.7,0.2 -1.2,0.85 m 29.8,-34.9 -1.45,-8.45 q -1.1,-4.6 -3,-7.85 -1.4,-2.4 -5,-6.5 -3.35,-3.65 -5.1,-4.95 -1.8,-1.25 -3.25,-1.5 l -4.1,0.25 -3.75,0.5 -3.65,0.8 q -2.75,0.85 -6.55,3.7 -4.2,3.3 -7,6.8 l 4.75,-1.45 8.45,-2.1 q 3.75,-0.7 5.55,0.1 l 1.85,1.2 1.65,1.5 1.7,1.3 1.55,1.45 q 2,2.3 2.9,7.6 L 3,-7.25 Q 3.75,-0.75 3.25,3.6 5.65,3.4 6.95,3.55 L 9.3,4.1 11.85,3.15 12.8,2.3 q 1.55,-1.7 2.65,-3.9 L 16,-2.95 16.3,-4.55 16.4,-5 16.45,-5.35 16.55,-5.6 16.2,-8.2 m -37.95,-16.15 3.8,0.5 3.75,0.65 q 1.95,0.3 2.75,1.1 0.75,0.85 0.95,2.5 0.65,4.15 0.05,8.45 -0.4,2.4 -1.05,3.6 -0.5,0.9 -2.1,2.55 l 0.2,1 0.25,1.65 0.7,2 3.35,4.55 0.95,0.85 q 0.85,0.6 2.25,0.85 h 0.05 l 1.9,-0.95 q 1.8,-0.75 5.5,-1.2 0.3,-6.1 -0.75,-12.4 l -1.4,-7.1 -0.5,-2.7 q -0.35,-1.5 -1.05,-2.45 l -1.85,-1.85 -2.1,-1.65 -1.3,-1.15 -1.45,-0.9 -3.8,-0.1 q -4.7,0.8 -9.4,2.2 h 0.3 m -14.75,8.15 0.45,0.25 0.65,0.35 q 0.35,0.15 0.8,0 l 0.6,-0.5 0.25,-0.55 0.15,-0.4 q 0.1,-0.35 -0.3,-0.55 l -0.65,-0.25 -0.55,-0.05 -0.5,0.2 -0.3,0.3 -0.55,0.85 -0.05,0.35 m 19.05,14.3 q -0.85,0.4 -3.5,1.05 -9.05,2.15 -15.45,9 -1.85,2.05 -2.55,3.6 L -40,15.8 q -1.1,6.95 -0.45,10.7 l 0.5,1.55 1.05,1.3 5.25,5.25 q 2.3,2.05 4.5,3.15 l -1.8,-2.55 -2.3,-4.25 q -1.2,-2.2 -1.55,-3.8 -1,-4.4 2.75,-9.6 4.05,-5.5 9.5,-6.85 l 5.2,-0.5 h 3.8 l 1.7,0.25 0.25,0.15 1.2,-1.15 2.05,-1.75 -0.2,-0.1 q -2,-0.75 -4.5,-3.95 L -15.35,0 -15.75,-1.35 -16,-2.8 l -1.45,0.9 m 32.1,8.6 q 2.1,1.35 2.85,2.65 l 0.35,0.9 q 1.2,-0.65 3,-1.4 2.65,-1.2 4.3,-1.35 1.6,-0.15 3.5,0.55 0.65,0.2 1.9,0.75 1.5,0.7 2.15,1.3 1.1,1 1.85,3.35 1.75,5.45 0.65,8.7 l -0.85,1.95 q -2.1,4.4 -3.8,6.15 l -2.5,2.05 -0.85,0.6 7.75,-2.4 q 2,-0.7 2.75,-1.45 0.8,-0.7 1.45,-2.45 0.95,-2.45 1,-5.05 0.05,-2.55 -0.7,-6.1 L 38,9.4 37.15,6.5 Q 36.6,5.45 35.2,4.2 31,0.4 26.35,-2.7 q -1.4,-0.9 -2.2,-1.15 l -3.75,0.3 -1.95,0.35 v 0.7 l -0.1,1.25 -0.3,0.9 -1.1,2.45 -1,1.3 q -1.35,1.65 -2.8,2.45 l 1.5,0.85 m 3.6,6.1 0.1,5.05 q 0,2.1 -0.45,3.3 l -1.1,1.8 Q 21.7,20.6 25,16.2 l 1.45,-1.7 q 0.9,-0.85 1.85,-0.9 1.1,-0.1 2,0.75 0.9,0.8 1.15,2 0.35,1.35 -0.3,4.5 l -0.95,4.4 q -0.7,2.45 -2.05,3.85 l -3.4,2.45 -1.95,1.55 3.3,-2.1 3.05,-2.55 1.9,-2.95 1.15,-2 q 1.05,-2.15 1.15,-3.05 L 33.2,18 q -0.5,-3 -1.15,-4.4 l -0.85,-1.35 -1.7,-1.1 q -1.8,-0.9 -2.8,-1.1 l -3.25,0.1 -3.2,1 q -1.45,0.65 -2.05,1 l 0.05,0.65 m -3.8,1.6 Q 14.25,12.1 13.6,11.25 L 11.9,9.9 Q 9.2,8.4 8.1,8.1 5.8,7.45 1.55,8.15 L -2.15,9 Q -4.7,9.95 -8,13.25 q -1.5,1.5 -2,2.45 -0.7,1.25 -1,3.15 0.8,-0.75 1.55,-1.2 4.15,-2.8 10.1,-2.8 l 3.7,0.45 q 2.9,0.8 5.2,3.25 1.6,1.6 2.65,3.85 l 1.3,-1.5 q 0.8,-1.25 1,-3.1 L 14.45,14.4 M 12.8,38.15 q -0.2,0 -1.25,0.55 l -0.4,0.25 -0.05,0.4 q 0.1,0.7 0.65,1.1 l 0.75,0.3 0.75,0.35 0.6,-0.8 0.3,-0.85 Q 14,39.1 14,38.75 l -0.25,-0.3 q -0.4,-0.4 -0.95,-0.3 m -42.15,-4.6 -0.7,-2.4 0.05,-2.25 q -0.4,-2.55 -0.2,-3.85 0.35,-2.6 3.2,-4.4 1.05,-0.65 2.55,-1.2 l 2.7,-0.9 1.6,-0.45 1.6,-0.05 q 1.25,0.25 3.05,2.15 0.3,-3.75 0.95,-5.4 l 1.15,-2.05 -4.95,-0.4 q -2.75,-0.05 -4.85,0.6 -3,0.9 -5.4,3.4 -2.3,2.3 -3.5,5.45 -0.8,2.15 -0.8,3.85 0.05,1.85 1.15,4.4 1.55,3.8 3.85,7.3 l -1.45,-3.8 m 12,5.55 H -18 l -0.7,0.05 -1.05,0.65 -1.3,1.15 -0.1,0.05 q -0.45,0.35 -0.35,0.65 l 0.35,0.25 q 1.5,0.8 2.4,0.85 l 1,-0.25 0.4,-0.55 q 0.55,-1.2 0.2,-2.35 l -0.2,-0.5"
         fill="#000000"
         fill-rule="evenodd"
         stroke="none"
         id="path1" />
      <path
         d="m 16.2,-8.2 0.35,2.6 -0.1,0.25 L 16.4,-5 16.3,-4.55 16,-2.95 15.45,-1.6 Q 14.35,0.6 12.8,2.3 L 11.85,3.15 9.3,4.1 6.95,3.55 Q 5.65,3.4 3.25,3.6 3.75,-0.75 3,-7.25 L 1.75,-15.8 q -0.9,-5.3 -2.9,-7.6 l -1.55,-1.45 -1.7,-1.3 -1.65,-1.5 -1.85,-1.2 q -1.8,-0.8 -5.55,-0.1 l -8.45,2.1 -4.75,1.45 q 2.8,-3.5 7,-6.8 3.8,-2.85 6.55,-3.7 l 3.65,-0.8 3.75,-0.5 4.1,-0.25 q 1.45,0.25 3.25,1.5 1.75,1.3 5.1,4.95 3.6,4.1 5,6.5 1.9,3.25 3,7.85 l 1.45,8.45 m -33.65,6.3 1.45,-0.9 0.25,1.45 0.4,1.35 2.3,3.65 q 2.5,3.2 4.5,3.95 l 0.2,0.1 -2.05,1.75 -1.2,1.15 -0.25,-0.15 -1.7,-0.25 h -3.8 l -5.2,0.5 q -5.45,1.35 -9.5,6.85 -3.75,5.2 -2.75,9.6 0.35,1.6 1.55,3.8 l 2.3,4.25 1.8,2.55 q -2.2,-1.1 -4.5,-3.15 l -5.25,-5.25 -1.05,-1.3 -0.5,-1.55 Q -41.1,22.75 -40,15.8 l 1.05,-4.05 q 0.7,-1.55 2.55,-3.6 6.4,-6.85 15.45,-9 2.65,-0.65 3.5,-1.05 m 35.7,14.7 -0.05,-0.65 q 0.6,-0.35 2.05,-1 l 3.2,-1 3.25,-0.1 q 1,0.2 2.8,1.1 l 1.7,1.1 0.85,1.35 Q 32.7,15 33.2,18 l 0.15,2.45 q -0.1,0.9 -1.15,3.05 l -1.15,2 -1.9,2.95 -3.05,2.55 -3.3,2.1 1.95,-1.55 3.4,-2.45 q 1.35,-1.4 2.05,-3.85 l 0.95,-4.4 q 0.65,-3.15 0.3,-4.5 -0.25,-1.2 -1.15,-2 -0.9,-0.85 -2,-0.75 -0.95,0.05 -1.85,0.9 L 25,16.2 q -3.3,4.4 -8.2,6.75 l 1.1,-1.8 q 0.45,-1.2 0.45,-3.3 l -0.1,-5.05"
         fill="#647eb5"
         fill-rule="evenodd"
         stroke="none"
         id="path2" />
      <path
         d="m -21.75,-24.35 h -0.3 q 4.7,-1.4 9.4,-2.2 l 3.8,0.1 1.45,0.9 1.3,1.15 2.1,1.65 1.85,1.85 q 0.7,0.95 1.05,2.45 l 0.5,2.7 1.4,7.1 q 1.05,6.3 0.75,12.4 -3.7,0.45 -5.5,1.2 L -5.85,5.9 H -5.9 Q -7.3,5.65 -8.15,5.05 L -9.1,4.2 l -3.35,-4.55 -0.7,-2 -0.25,-1.65 -0.2,-1 q 1.6,-1.65 2.1,-2.55 0.65,-1.2 1.05,-3.6 0.6,-4.3 -0.05,-8.45 -0.2,-1.65 -0.95,-2.5 -0.8,-0.8 -2.75,-1.1 l -3.75,-0.65 -3.8,-0.5 M 14.65,6.7 13.15,5.85 q 1.45,-0.8 2.8,-2.45 l 1,-1.3 1.1,-2.45 0.3,-0.9 0.1,-1.25 v -0.7 l 1.95,-0.35 3.75,-0.3 q 0.8,0.25 2.2,1.15 4.65,3.1 8.85,6.9 1.4,1.25 1.95,2.3 l 0.85,2.9 1.45,6.05 q 0.75,3.55 0.7,6.1 -0.05,2.6 -1,5.05 -0.65,1.75 -1.45,2.45 -0.75,0.75 -2.75,1.45 l -7.75,2.4 0.85,-0.6 2.5,-2.05 q 1.7,-1.75 3.8,-6.15 L 35.2,22.15 Q 36.3,18.9 34.55,13.45 33.8,11.1 32.7,10.1 32.05,9.5 30.55,8.8 29.3,8.25 28.65,8.05 q -1.9,-0.7 -3.5,-0.55 -1.65,0.15 -4.3,1.35 -1.8,0.75 -3,1.4 L 17.5,9.35 Q 16.75,8.05 14.65,6.7 m -44,26.85 1.45,3.8 q -2.3,-3.5 -3.85,-7.3 -1.1,-2.55 -1.15,-4.4 0,-1.7 0.8,-3.85 1.2,-3.15 3.5,-5.45 2.4,-2.5 5.4,-3.4 2.1,-0.65 4.85,-0.6 l 4.95,0.4 -1.15,2.05 q -0.65,1.65 -0.95,5.4 -1.8,-1.9 -3.05,-2.15 l -1.6,0.05 -1.6,0.45 -2.7,0.9 q -1.5,0.55 -2.55,1.2 -2.85,1.8 -3.2,4.4 -0.2,1.3 0.2,3.85 l -0.05,2.25 0.7,2.4"
         fill="#a15050"
         fill-rule="evenodd"
         stroke="none"
         id="path3" />
      <path
         d="m 14.45,14.4 0.05,3.4 q -0.2,1.85 -1,3.1 l -1.3,1.5 Q 11.15,20.15 9.55,18.55 7.25,16.1 4.35,15.3 l -3.7,-0.45 q -5.95,0 -10.1,2.8 -0.75,0.45 -1.55,1.2 0.3,-1.9 1,-3.15 0.5,-0.95 2,-2.45 Q -4.7,9.95 -2.15,9 L 1.55,8.15 Q 5.8,7.45 8.1,8.1 9.2,8.4 11.9,9.9 l 1.7,1.35 q 0.65,0.85 0.85,3.15"
         fill="#623f3f"
         fill-rule="evenodd"
         stroke="none"
         id="path4" />
      <path
         d="m -36.5,-16.2 0.05,-0.35 0.55,-0.85 0.3,-0.3 0.5,-0.2 0.55,0.05 0.65,0.25 q 0.4,0.2 0.3,0.55 l -0.15,0.4 -0.25,0.55 -0.6,0.5 q -0.45,0.15 -0.8,0 l -0.65,-0.35 -0.45,-0.25 m 49.3,54.35 q 0.55,-0.1 0.95,0.3 l 0.25,0.3 q 0,0.35 0.15,0.7 l -0.3,0.85 -0.6,0.8 -0.75,-0.35 -0.75,-0.3 q -0.55,-0.4 -0.65,-1.1 l 0.05,-0.4 0.4,-0.25 q 1.05,-0.55 1.25,-0.55 m -30.15,0.95 0.2,0.5 q 0.35,1.15 -0.2,2.35 l -0.4,0.55 -1,0.25 q -0.9,-0.05 -2.4,-0.85 l -0.35,-0.25 q -0.1,-0.3 0.35,-0.65 l 0.1,-0.05 1.3,-1.15 1.05,-0.65 0.7,-0.05 h 0.65"
         fill="#ab9a85"
         fill-rule="evenodd"
         stroke="none"
         id="path5" />
    </g>
    <g
       id="sprite1"
       transform="translate(17.4,15.85)">
      <use
         ffdec:characterId="31"
         height="57.200001"
         transform="matrix(0.5366,0,0,0.5366,-16.6582,-14.546)"
         width="70.75"
         xlink:href="#sprite2"
         id="use5" />
    </g>
    <g
       id="sprite2"
       transform="translate(-8.65,-10.35)">
      <use
         ffdec:characterId="30"
         height="57.200001"
         transform="translate(8.65,10.35)"
         width="70.75"
         xlink:href="#shape1"
         id="use6" />
    </g>
    <g
       id="shape1"
       transform="translate(-8.65,-10.35)">
      <path
         d="m 14.8,41.7 q 0.65,-1.75 2.65,-2.5 1.8,-0.8 3.7,-0.25 1.15,0.45 2.25,1.2 l 0.9,0.4 q 1.65,0.9 2.85,2.5 L 37.8,30.1 q 2.35,-2.8 3.75,-3.95 1.5,-1.15 4.25,-2.4 18.2,-8.85 27.65,-12.6 2.15,-0.8 3.25,-0.8 h 0.8 l 1.9,2.4 -0.2,0.8 q -0.2,1.1 -1.55,3 -5.85,8.25 -18.85,23.8 -1.85,2.35 -3.35,3.5 -1.4,1.15 -4.75,2.75 l -15.15,7.15 q 1.2,1.6 1.75,3.4 l 0.2,1 0.55,2.5 q 0.1,1.95 -1.1,3.55 -1.2,1.65 -3.05,1.9 l -1.3,0.05 q -1.65,0.2 -3.45,-0.65 -1.85,-0.9 -3,-2.6 L 25,60.95 23.8,62.1 q -2.6,2.85 -4.3,3.95 -2.85,1.8 -5.5,1.45 l -1.65,-0.5 -1.2,-0.7 -0.2,-0.2 q -1,-0.85 -1.6,-1.9 L 9.25,64 9.15,63.8 8.75,62.4 q -0.2,-0.8 -0.05,-1.7 0.25,-2.65 2.7,-5.05 1.5,-1.3 4.9,-3.15 L 17.7,51.55 16.05,50 q -1.35,-1.5 -1.8,-3.6 -0.4,-1.85 0.25,-3.45 l 0.3,-1.25"
         fill="#000000"
         fill-opacity="0.372549"
         fill-rule="evenodd"
         stroke="none"
         id="path6" />
    </g>
  </defs>
</svg>
