<?xml version="1.0" encoding="UTF-8" standalone="no"?>
<svg
   ffdec:objectType="frame"
   height="71.554893"
   width="56.006516"
   version="1.1"
   id="svg4"
   xmlns:xlink="http://www.w3.org/1999/xlink"
   xmlns="http://www.w3.org/2000/svg"
   xmlns:svg="http://www.w3.org/2000/svg"
   xmlns:ffdec="https://www.free-decompiler.com/flash">
  <g
     transform="translate(23.988095,35.75)"
     id="g1">
    <use
       ffdec:characterId="17"
       height="119.15"
       id="rarity"
       transform="translate(-58.5,-60.65)"
       width="119.15"
       xlink:href="#sprite0" />
    <use
       ffdec:characterId="514"
       height="71.550003"
       transform="translate(-24,-35.75)"
       width="56"
       xlink:href="#shape0"
       id="use1" />
  </g>
  <defs
     id="defs4">
    <g
       id="shape0"
       transform="translate(23.6,34.95)">
      <path
         d="m -1.35,-34.95 q 3.55,1.05 6,4.4 1,1.35 2.35,2.45 3.45,2.8 2.55,6.8 v 0.2 l 0.05,0.2 0.2,0.4 0.3,0.45 3.45,0.1 q 5.35,-1.9 8.1,3.55 0.6,1.3 1.4,2.45 5.45,8.2 9.2,17.15 0.4,1 -0.15,1.95 -5.6,10.5 -12.05,20.45 l -0.6,1.3 -1.1,2.35 q 0.2,4.45 -4.4,4.45 -12.9,0.05 -25.5,2.65 -6.65,1.35 -7.5,-4.45 -0.15,-1.1 0.75,-1.85 l 0.1,-0.25 0.15,-0.4 0.5,-0.85 V 28.3 l 0.05,-0.2 0.05,-0.45 v -0.6 l -0.05,-0.25 -0.15,-0.2 -0.15,-0.2 -0.15,-0.25 Q -21,26.2 -22.9,24.1 q -0.85,-0.9 -0.65,-2.15 1.2,-8.75 0.45,-17.6 -0.85,-9.9 -0.2,-19.75 0.05,-4.95 5.15,-7.1 2,-0.8 3.6,-2.3 3.45,-5.95 10.15,-9.1 l 1.9,-0.8 1.15,-0.25 m -0.4,6.05 q -6.8,4.25 -12.35,10 -0.95,1 -2.2,1.75 l -1.75,1.35 4.15,3.7 2.35,2.75 Q -6.6,-4.2 -2,1.5 0.6,4.7 2.75,8.2 l 7.5,9.65 4.7,5.8 Q 18.6,18.1 21.9,12.15 24.35,7.65 27.05,3.3 l -6,-10.7 q -2.3,-3.95 -5.3,-7.35 -5.35,1.55 -9.3,-1.8 -2.65,-2.3 -2.05,-6 -1.25,-2.05 -3,-3.8 l -3.15,-2.55 m 9,14.95 q 8.2,0.1 8.25,8 0,4.3 -3.95,6.45 -3.8,4.5 -8.9,0.95 -5,-3.45 -2.85,-9.65 1.4,-4.1 5.8,-5.35 l 1.65,-0.4 m 0.7,4.6 Q 3.9,-8.85 3.8,-5 L 4,-3.1 4.75,-2.65 5.7,-2 5.9,-1.85 h 0.15 1.4 l 1.3,-0.65 1.3,-0.3 0.2,-0.2 0.35,-0.25 0.2,-0.2 0.25,-0.4 0.4,-0.65 0.3,-0.65 V -5.8 L 11.7,-6.65 11.6,-7.5 10.5,-8.75 Q 9.35,-9.6 7.95,-9.35 m -26.3,0.05 0.95,22.5 q 0.15,3.35 -0.1,6.7 6.6,2.8 5.2,9.8 l -0.1,0.6 Q 0.4,28.6 13.4,27.65 L 4.55,17.55 -0.3,11.5 Q -8.8,0.35 -18.35,-9.3 M -6.4,14.25 q 7.75,0.6 6.65,8.25 -0.45,3 -3.4,4.25 -6.75,2.85 -9.6,-3.4 -0.7,-1.6 -0.15,-3.25 1.45,-4.25 6,-5.8 l 0.5,-0.05 m 0.5,3.7 -0.85,0.45 -0.45,0.2 -0.75,0.9 -0.7,0.8 -0.05,0.65 -0.35,1.05 -0.1,0.25 0.95,1.05 1.15,0.65 L -5.5,23.9 -4.85,23.5 -4,23 q 0.75,-0.6 0.8,-1.5 L -3.15,19.6 -3.65,19 -4.5,18.15 -5.2,18 -5.9,17.95 M 19.05,3.8 Q 23.85,5.4 20.5,9 19.1,10.55 17.45,9.1 14.65,6.65 17.6,4.35 18.3,3.8 19.05,3.8"
         fill="#000000"
         fill-rule="evenodd"
         stroke="none"
         id="path1" />
      <path
         d="m 7.25,-13.95 -1.65,0.4 Q 1.2,-12.3 -0.2,-8.2 -2.35,-2 2.65,1.45 7.75,5 11.55,0.5 q 3.95,-2.15 3.95,-6.45 -0.05,-7.9 -8.25,-8 m -9,-14.95 3.15,2.55 q 1.75,1.75 3,3.8 -0.6,3.7 2.05,6 3.95,3.35 9.3,1.8 3,3.4 5.3,7.35 l 6,10.7 q -2.7,4.35 -5.15,8.85 -3.3,5.95 -6.95,11.5 L 10.25,17.85 2.75,8.2 Q 0.6,4.7 -2,1.5 -6.6,-4.2 -11.55,-9.35 l -2.35,-2.75 -4.15,-3.7 1.75,-1.35 q 1.25,-0.75 2.2,-1.75 5.55,-5.75 12.35,-10 M 19.05,3.8 Q 18.3,3.8 17.6,4.35 14.65,6.65 17.45,9.1 19.1,10.55 20.5,9 23.85,5.4 19.05,3.8"
         fill="#baad8b"
         fill-rule="evenodd"
         stroke="none"
         id="path2" />
      <path
         d="m -5.9,17.95 0.7,0.05 0.7,0.15 0.85,0.85 0.5,0.6 -0.05,1.9 Q -3.25,22.4 -4,23 l -0.85,0.5 -0.65,0.4 -1.55,0.05 -1.15,-0.65 -0.95,-1.05 0.1,-0.25 0.35,-1.05 0.05,-0.65 0.7,-0.8 0.75,-0.9 0.45,-0.2 0.85,-0.45 m -0.5,-3.7 -0.5,0.05 q -4.55,1.55 -6,5.8 -0.55,1.65 0.15,3.25 2.85,6.25 9.6,3.4 2.95,-1.25 3.4,-4.25 1.1,-7.65 -6.65,-8.25 M -18.35,-9.3 Q -8.8,0.35 -0.3,11.5 l 4.85,6.05 8.85,10.1 q -13,0.95 -25.8,2.65 l 0.1,-0.6 q 1.4,-7 -5.2,-9.8 0.25,-3.35 0.1,-6.7 l -0.95,-22.5 m 26.3,-0.05 q 1.4,-0.25 2.55,0.6 l 1.1,1.25 0.1,0.85 0.05,0.85 v 0.65 l -0.3,0.65 -0.4,0.65 -0.25,0.4 -0.2,0.2 -0.35,0.25 -0.2,0.2 -1.3,0.3 -1.3,0.65 H 6.05 5.9 L 5.7,-2 4.75,-2.65 4,-3.1 3.8,-5 q 0.1,-3.85 4.15,-4.35"
         fill="#988e73"
         fill-rule="evenodd"
         stroke="none"
         id="path3" />
    </g>
    <g
       id="sprite1"
       transform="translate(17.4,15.85)">
      <use
         ffdec:characterId="31"
         height="57.200001"
         transform="matrix(0.5366,0,0,0.5366,-16.6582,-14.546)"
         width="70.75"
         xlink:href="#sprite2"
         id="use3" />
    </g>
    <g
       id="sprite2"
       transform="translate(-8.65,-10.35)">
      <use
         ffdec:characterId="30"
         height="57.200001"
         transform="translate(8.65,10.35)"
         width="70.75"
         xlink:href="#shape1"
         id="use4" />
    </g>
    <g
       id="shape1"
       transform="translate(-8.65,-10.35)">
      <path
         d="m 14.8,41.7 q 0.65,-1.75 2.65,-2.5 1.8,-0.8 3.7,-0.25 1.15,0.45 2.25,1.2 l 0.9,0.4 q 1.65,0.9 2.85,2.5 L 37.8,30.1 q 2.35,-2.8 3.75,-3.95 1.5,-1.15 4.25,-2.4 18.2,-8.85 27.65,-12.6 2.15,-0.8 3.25,-0.8 h 0.8 l 1.9,2.4 -0.2,0.8 q -0.2,1.1 -1.55,3 -5.85,8.25 -18.85,23.8 -1.85,2.35 -3.35,3.5 -1.4,1.15 -4.75,2.75 l -15.15,7.15 q 1.2,1.6 1.75,3.4 l 0.2,1 0.55,2.5 q 0.1,1.95 -1.1,3.55 -1.2,1.65 -3.05,1.9 l -1.3,0.05 q -1.65,0.2 -3.45,-0.65 -1.85,-0.9 -3,-2.6 L 25,60.95 23.8,62.1 q -2.6,2.85 -4.3,3.95 -2.85,1.8 -5.5,1.45 l -1.65,-0.5 -1.2,-0.7 -0.2,-0.2 q -1,-0.85 -1.6,-1.9 L 9.25,64 9.15,63.8 8.75,62.4 q -0.2,-0.8 -0.05,-1.7 0.25,-2.65 2.7,-5.05 1.5,-1.3 4.9,-3.15 L 17.7,51.55 16.05,50 q -1.35,-1.5 -1.8,-3.6 -0.4,-1.85 0.25,-3.45 l 0.3,-1.25"
         fill="#000000"
         fill-opacity="0.372549"
         fill-rule="evenodd"
         stroke="none"
         id="path4" />
    </g>
  </defs>
</svg>
