<?xml version="1.0" encoding="UTF-8" standalone="no"?>
<svg
   ffdec:objectType="frame"
   height="67.478569"
   width="64.884735"
   version="1.1"
   id="svg6"
   xmlns:xlink="http://www.w3.org/1999/xlink"
   xmlns="http://www.w3.org/2000/svg"
   xmlns:svg="http://www.w3.org/2000/svg"
   xmlns:ffdec="https://www.free-decompiler.com/flash">
  <g
     transform="translate(32.7,33.1)"
     id="g1">
    <use
       ffdec:characterId="17"
       height="119.15"
       id="rarity"
       transform="translate(-58.5,-60.65)"
       width="119.15"
       xlink:href="#sprite0" />
    <use
       ffdec:characterId="85"
       height="67.5"
       transform="translate(-32.7,-33.1)"
       width="64.900002"
       xlink:href="#sprite1"
       id="use1" />
  </g>
  <defs
     id="defs6">
    <g
       id="sprite1">
      <use
         ffdec:characterId="84"
         height="67.5"
         width="64.900002"
         xlink:href="#shape0"
         id="use2" />
    </g>
    <g
       id="shape0">
      <path
         d="m 46.4,42.7 q 0.55,-1.15 0.2,-2.8 L 46.3,38.95 V 38.9 l -0.2,-0.5 q -1.2,-2.8 -4.2,-6.2 l -0.7,-1.05 q -0.1,-0.55 0.4,-1.5 l 0.4,-0.7 2.15,2.8 5,6.1 q 2.8,3.15 5.35,5.35 l 1.65,1.35 -0.75,0.5 -3.95,2.7 -12.4,8.55 Q 39.3,52.95 40.4,49.85 L 41.1,48 q 0.4,0.4 1.1,0.4 l 1.25,-0.25 0.3,-0.15 q 2.25,-1 2.9,-2.4 l 0.05,-0.1 q 0.6,-1.4 -0.3,-2.8 m -7.05,-17.2 -0.55,0.75 -0.25,0.4 -1.6,-4.1 2.4,2.95 m -7,-8.25 -0.15,0.05 v -0.2 l 0.15,0.15 m 0.1,3.85 1.55,3.4 0.05,0.1 1.7,4.15 q 1,2.5 0.95,3.85 l -0.25,1.3 -0.5,1.35 q -0.65,1.7 -0.7,2.6 -0.05,0.65 0.45,3.05 0.75,3.55 -0.1,9.2 l -0.65,4.65 -0.55,4.65 v 0.15 l -0.1,0.05 q 0.2,-3.5 -0.15,-9.45 L 32.45,21.1 m 9.7,18.45 0.5,1.15 -0.65,0.4 -0.7,0.35 -0.45,0.45 -0.35,0.15 -0.8,-1.45 v -0.15 l 2.1,-0.8 0.35,-0.1 M 39.3,38.3 q -0.05,-1.15 0.6,-2.15 l 1,1.1 q -0.8,0.3 -1.6,1.05 m 4.5,6.4 -0.5,0.35 -0.05,0.05 -0.2,0.05 0.1,-0.1 0.1,-0.05 0.55,-0.3 m -14.3,-25 0.45,3.75 0.25,2.5 0.8,9.45 1.2,20.05 0.05,2.25 v 2.65 L 30.6,59.7 30.15,59.45 q -2.45,-1.5 -5.35,-2.85 0.45,-0.95 0.45,-2.65 l -0.4,-7 -0.6,-4.7 1.2,-0.2 0.75,-0.7 0.05,-1.05 q -0.3,-0.7 -1.55,-1 l -1,-0.2 V 39.05 38.9 q 0.1,-0.6 -0.15,-1.1 l 0.2,-0.7 1.05,-0.85 1,-1.15 0.4,-1.15 0.1,-1 q -0.05,-0.9 -0.55,-1.7 l -0.5,-0.75 -0.3,-0.75 q -0.05,-0.5 0.35,-1.3 l 4.15,-8.65 0.05,-0.1 m -8.8,35.1 -1.4,-0.6 -7.7,-2.7 -1.2,-0.35 -0.2,-0.1 0.05,-0.05 0.55,-0.9 1.15,-1.85 0.4,-0.1 0.55,-0.2 1.3,-0.95 2.85,-2.15 0.9,-0.55 0.45,-0.3 0.05,0.15 q 0.3,0.65 1.1,0.85 l 0.3,0.05 0.3,0.1 0.05,0.35 0.25,2.05 -1.2,-0.35 -0.3,-0.3 -0.25,-0.35 -0.25,-0.45 q -0.25,-0.25 -0.65,-0.15 -0.4,0.1 -0.5,0.45 v 0.85 l 0.35,1.15 q 0.45,1.1 1.05,1.5 0.7,0.5 1.95,0.5 l 0.05,3.5 v 0.9 M 16.75,40.6 16.8,40.55 19,37.1 l 0.1,1.65 -0.2,0.15 -1.8,1.8 h -0.05 l -0.55,0.35 0.25,-0.45"
         fill="#646464"
         fill-rule="evenodd"
         stroke="none"
         id="path2" />
      <path
         d="m 42,28.95 -0.4,0.7 q -0.5,0.95 -0.4,1.5 l 0.7,1.05 q 3,3.4 4.2,6.2 l 0.2,0.5 v 0.05 l 0.3,0.95 q 0.35,1.65 -0.2,2.8 L 46.2,42.45 Q 45.55,41.7 44.55,41.4 l -1.2,-0.15 -0.55,0.05 -1.95,0.6 0.45,-0.45 0.7,-0.35 0.65,-0.4 -0.5,-1.15 0.35,-0.2 q 0.85,-0.45 0.9,-1.1 0.1,-0.85 -0.85,-1.15 l -0.5,-0.1 -1,0.15 -0.15,0.1 -1,-1.1 q -0.65,1 -0.6,2.15 l -0.8,0.8 q -0.55,0.65 -0.65,1.05 l -0.05,0.1 q -0.15,0.6 0.25,1.45 l 0.15,0.3 0.55,1.1 0.35,1.2 q 0.3,0.65 0.8,0.8 l 1.05,-0.2 1.05,-0.6 1.15,-0.15 0.3,0.1 0.35,0.35 v 0.1 l -0.55,0.3 -0.1,0.05 -0.1,0.1 q -1.3,0.4 -1.65,0.65 -1,0.9 -0.55,1.85 L 41.1,48 40.4,49.85 q -1.1,3.1 -1.35,6.45 l -3.2,2.25 -1.4,0.95 -0.05,0.05 V 59.4 l 0.55,-4.65 0.65,-4.65 q 0.85,-5.65 0.1,-9.2 -0.5,-2.4 -0.45,-3.05 0.05,-0.9 0.7,-2.6 l 0.5,-1.35 0.25,-1.3 q 0.05,-1.35 -0.95,-3.85 L 34.05,24.6 34,24.5 32.45,21.1 32.2,17.3 l 0.15,-0.05 0.65,0.7 0.75,0.75 3.2,3.85 1.6,4.1 0.25,-0.4 0.55,-0.75 2.65,3.45 M 29.5,19.7 29.45,19.8 25.3,28.45 q -0.4,0.8 -0.35,1.3 l 0.3,0.75 0.5,0.75 q 0.5,0.8 0.55,1.7 l -0.1,1 -0.4,1.15 -1,1.15 -1.05,0.85 -0.2,0.7 q 0.25,0.5 0.15,1.1 v 0.15 0.05 L 22,38.9 q -1.35,-0.1 -2,0.45 -0.35,0.2 -0.65,0.9 l -0.25,0.5 -0.65,1.8 -0.05,1.45 -0.45,0.3 -0.9,0.55 -2.85,2.15 -1.3,0.95 -0.55,0.2 -0.4,0.1 L 10.8,50.1 10.25,51 10.2,51.05 8.95,50.65 7.85,50.3 9.3,47.65 9.5,47.2 9.85,46.6 10.45,45.5 Q 15,37.25 20,29.5 l 1.65,-2.45 q 1.8,-2.8 3.7,-5.5 l 3.95,-3.8 0.2,1.95 m -5.25,22.55 0.6,4.7 0.4,7 q 0,1.7 -0.45,2.65 l -4.1,-1.8 v -0.9 l -0.05,-3.5 h 0.1 q 2.45,0 3.35,-1.35 L 24.55,47.5 24.5,46 Q 24.4,44.85 24,44.2 23.5,43.3 21.7,42.8 l -0.8,-0.2 -0.2,-0.05 0.6,-1.15 2,0.65 0.95,0.2 m -7.5,-1.65 -0.25,0.45 0.55,-0.35 h 0.05 l 1.8,-1.8 0.2,-0.15 -0.1,-1.65 -2.2,3.45 -0.05,0.05 m 3.7,6.95 -0.25,-2.05 -0.05,-0.35 0.3,0.05 1.05,0.35 q 0.65,1.2 0.1,1.75 l -1.1,0.25 h -0.05"
         fill="#707070"
         fill-rule="evenodd"
         stroke="none"
         id="path3" />
      <path
         d="m 46.4,42.7 q 0.9,1.4 0.3,2.8 l -0.05,0.1 Q 46,47 43.75,48 l -0.3,0.15 -1.25,0.25 q -0.7,0 -1.1,-0.4 L 40.85,47.65 Q 40.4,46.7 41.4,45.8 q 0.35,-0.25 1.65,-0.65 l 0.2,-0.05 0.05,-0.05 0.5,-0.35 V 44.6 L 43.45,44.25 43.15,44.15 42,44.3 40.95,44.9 39.9,45.1 Q 39.4,44.95 39.1,44.3 L 38.75,43.1 38.2,42 38.05,41.7 q -0.4,-0.85 -0.25,-1.45 l 0.05,-0.1 q 0.1,-0.4 0.65,-1.05 l 0.8,-0.8 q 0.8,-0.75 1.6,-1.05 l 0.15,-0.1 1,-0.15 0.5,0.1 q 0.95,0.3 0.85,1.15 -0.05,0.65 -0.9,1.1 l -0.35,0.2 -0.35,0.1 -2.1,0.8 h -0.1 l 0.1,0.15 0.8,1.45 0.35,-0.15 1.95,-0.6 0.55,-0.05 1.2,0.15 q 1,0.3 1.65,1.05 l 0.2,0.25 m -7.35,13.6 12.4,-8.55 3.95,-2.7 0.75,-0.5 L 54.5,43.2 Q 51.95,41 49.15,37.85 l -5,-6.1 L 42,28.95 39.35,25.5 36.95,22.55 33.75,18.7 33,17.95 32.35,17.25 32.2,17.1 v 0.2 l 0.25,3.8 1.7,29.05 q 0.35,5.95 0.15,9.45 l 0.1,-0.05 0.05,-0.05 1.4,-0.95 3.2,-2.25 m 14.8,-2.55 Q 43.6,60.7 37.7,65.05 q -2.9,2.2 -4.8,2.4 -1.8,0.2 -4,-1 L 25.2,64.1 Q 21.8,61.9 13.75,59.35 5.9,56.85 2.4,54.45 0,52.75 0,51.05 0.05,50.2 0.65,49.25 l 1.2,-1.55 q 1.4,-1.7 4.1,-6.45 5.2,-9.1 15.2,-22 l 0.75,-0.85 0.3,-0.5 1.8,-2 1.75,-1.75 q -1.15,-0.6 -2.15,-1.5 l -1,-1.15 Q 22.15,10.75 22,9.8 21.65,8 22.2,6.2 22.7,4.4 23.95,3.1 25.05,2 26.7,1.1 28.05,0.4 29.2,0.15 l 2,-0.15 2.15,0.2 q 1.35,0.4 2.45,1.4 1.45,1.25 2.15,2.95 0.8,1.8 0.5,3.6 -0.25,1.5 -1.35,3 l -0.7,0.8 0.65,0.65 q 2.8,3 11.85,14.7 7.15,9.2 12.7,13.85 3.95,3.15 3.15,5.6 Q 64.4,48 62.9,48.9 l -2.8,1.25 q -2.25,0.9 -6.25,3.6 M 27.1,8.3 27.35,8.75 q 0.15,0.85 0.6,1.4 0.8,1.15 2.65,1.25 l 2.1,-0.5 q 1,-0.55 1.5,-1.45 0.55,-0.95 0.4,-2.1 -0.15,-1.2 -0.95,-1.9 -0.8,-0.65 -2,-0.8 Q 29.6,4.3 28.4,5.3 27.4,6.15 27.3,7.65 27.05,8 27.1,8.3 m -2.3,48.3 q 2.9,1.35 5.35,2.85 l 0.45,0.25 1.65,0.65 V 57.7 L 32.2,55.45 31,35.4 30.2,25.95 29.95,23.45 29.5,19.7 l -0.2,-1.95 -3.95,3.8 q -1.9,2.7 -3.7,5.5 L 20,29.5 q -5,7.75 -9.55,16 l -0.6,1.1 -0.35,0.6 -0.2,0.45 -1.45,2.65 1.1,0.35 1.25,0.4 0.2,0.1 1.2,0.35 7.7,2.7 1.4,0.6 4.1,1.8 m -1.1,-17.5 1,0.2 q 1.25,0.3 1.55,1 l -0.05,1.05 -0.75,0.7 -1.2,0.2 -0.95,-0.2 -2,-0.65 -0.6,1.15 0.2,0.05 0.8,0.2 q 1.8,0.5 2.3,1.4 0.4,0.65 0.5,1.8 l 0.05,1.5 -0.45,1.55 q -0.9,1.35 -3.35,1.35 h -0.1 q -1.25,0 -1.95,-0.5 -0.6,-0.4 -1.05,-1.5 L 17.3,47.25 V 46.4 q 0.1,-0.35 0.5,-0.45 0.4,-0.1 0.65,0.15 l 0.25,0.45 0.25,0.35 0.3,0.3 1.2,0.35 h 0.05 l 1.1,-0.25 q 0.55,-0.55 -0.1,-1.75 l -1.05,-0.35 -0.3,-0.05 -0.3,-0.1 -0.3,-0.05 q -0.8,-0.2 -1.1,-0.85 L 18.4,44 l 0.05,-1.45 0.65,-1.8 0.25,-0.5 q 0.3,-0.7 0.65,-0.9 0.65,-0.55 2,-0.45 l 1.7,0.2"
         fill="#000000"
         fill-rule="evenodd"
         stroke="none"
         id="path4" />
      <path
         d="m 39.7,40.45 v 0.15 l -0.1,-0.15 h 0.1"
         fill="#838383"
         fill-rule="evenodd"
         stroke="none"
         id="path5" />
    </g>
    <g
       id="sprite2"
       transform="translate(17.4,15.85)">
      <use
         ffdec:characterId="31"
         height="57.200001"
         transform="matrix(0.5366,0,0,0.5366,-16.6582,-14.546)"
         width="70.75"
         xlink:href="#sprite3"
         id="use5" />
    </g>
    <g
       id="sprite3"
       transform="translate(-8.65,-10.35)">
      <use
         ffdec:characterId="30"
         height="57.200001"
         transform="translate(8.65,10.35)"
         width="70.75"
         xlink:href="#shape1"
         id="use6" />
    </g>
    <g
       id="shape1"
       transform="translate(-8.65,-10.35)">
      <path
         d="m 14.8,41.7 q 0.65,-1.75 2.65,-2.5 1.8,-0.8 3.7,-0.25 1.15,0.45 2.25,1.2 l 0.9,0.4 q 1.65,0.9 2.85,2.5 L 37.8,30.1 q 2.35,-2.8 3.75,-3.95 1.5,-1.15 4.25,-2.4 18.2,-8.85 27.65,-12.6 2.15,-0.8 3.25,-0.8 h 0.8 l 1.9,2.4 -0.2,0.8 q -0.2,1.1 -1.55,3 -5.85,8.25 -18.85,23.8 -1.85,2.35 -3.35,3.5 -1.4,1.15 -4.75,2.75 l -15.15,7.15 q 1.2,1.6 1.75,3.4 l 0.2,1 0.55,2.5 q 0.1,1.95 -1.1,3.55 -1.2,1.65 -3.05,1.9 l -1.3,0.05 q -1.65,0.2 -3.45,-0.65 -1.85,-0.9 -3,-2.6 L 25,60.95 23.8,62.1 q -2.6,2.85 -4.3,3.95 -2.85,1.8 -5.5,1.45 l -1.65,-0.5 -1.2,-0.7 -0.2,-0.2 q -1,-0.85 -1.6,-1.9 L 9.25,64 9.15,63.8 8.75,62.4 q -0.2,-0.8 -0.05,-1.7 0.25,-2.65 2.7,-5.05 1.5,-1.3 4.9,-3.15 L 17.7,51.55 16.05,50 q -1.35,-1.5 -1.8,-3.6 -0.4,-1.85 0.25,-3.45 l 0.3,-1.25"
         fill="#000000"
         fill-opacity="0.372549"
         fill-rule="evenodd"
         stroke="none"
         id="path6" />
    </g>
  </defs>
</svg>
