<?xml version="1.0" encoding="UTF-8" standalone="no"?>
<svg
   ffdec:objectType="frame"
   height="86.240906"
   width="79.826187"
   version="1.1"
   id="svg5"
   xmlns:xlink="http://www.w3.org/1999/xlink"
   xmlns="http://www.w3.org/2000/svg"
   xmlns:svg="http://www.w3.org/2000/svg"
   xmlns:ffdec="https://www.free-decompiler.com/flash">
  <g
     transform="translate(41.07619,46.390909)"
     id="g1">
    <use
       ffdec:characterId="17"
       height="119.15"
       id="rarity"
       transform="translate(-58.5,-60.65)"
       width="119.15"
       xlink:href="#sprite0" />
    <use
       ffdec:characterId="1338"
       height="86.5"
       transform="translate(-41.1,-46.4)"
       width="79.900002"
       xlink:href="#shape0"
       id="use1" />
  </g>
  <defs
     id="defs5">
    <g
       id="shape0"
       transform="translate(39.8,44.5)">
      <path
         d="m -19.25,-28.8 q 1.3,-7.85 6.65,-12.1 2.8,-2.25 6.45,-3.1 3.55,-0.9 7.1,-0.15 3.45,0.65 6.55,2.7 3.1,2.05 5.15,5 3.25,4.75 3.55,10.4 0.9,0 2.2,0.8 3.6,2.45 5.45,6.45 1.9,4.15 1,8.15 v 1.05 l 0.75,0.7 q 5.45,3 8.95,8.45 1.45,2.35 3.3,6.65 1.95,4.5 2.2,7.2 L 40,16.8 q -0.25,2.9 -1.95,5.75 l -0.45,0.65 0.25,0.6 q 1.55,4.5 0.75,9.25 l -0.55,1.8 -1.2,1.55 Q 35.7,37.6 34.5,38 l -1.95,0.3 q -3.1,0 -4.8,-1.85 L 26.95,35.1 26.6,33.7 26.15,31.35 v -0.2 l -3.7,0.45 -1.7,-0.15 -4.4,0.45 q 0.2,2.3 -0.55,4.3 -0.9,2.2 -2.6,3.5 -1.75,1.35 -4.1,1.35 -2.4,0.05 -4.05,-1.4 -1.1,-0.95 -1.7,-2.6 L 3.15,37.1 1.5,37.35 q -1.25,-0.1 -2.05,-0.65 -1,-0.45 -1.55,-1.5 l -0.25,-1 -0.2,-1.95 -1.55,-0.15 q -0.85,4.95 -3.65,7.6 -1.65,1.5 -3.8,2.05 l -4.2,-0.25 q -2.8,-1.25 -3.95,-4.45 -0.9,-2.4 -0.3,-5.95 l -2.95,-0.85 -1.45,-0.55 -1.75,2.35 q -2.75,3.65 -5.5,4.75 l -3.6,0.45 q -1.95,-0.3 -3.15,-1.6 -1.7,-1.95 -1.3,-4.9 0.2,-2.05 1.75,-4.85 1.3,-2.65 2.85,-4.1 -2.65,-3.5 -2.2,-9.55 0.55,-8.65 5.95,-15.55 l 3.5,-3.75 1.5,-1.15 q -1.5,-2.65 -1.45,-5.55 l 0.25,-2.65 0.5,-1.9 0.85,-1.8 3.05,-4.05 q 1.75,-1.75 3.7,-2.45 l 0.2,-2.2 m 30.8,1.8 Q 11.1,-29.7 9.75,-32.15 8.25,-34.7 6,-36.5 3.55,-38.35 0.8,-39 q -2.9,-0.65 -5.8,0.1 -3,0.8 -5,2.8 -1.8,1.7 -2.8,4.15 -0.8,1.75 -1.2,3.55 l -0.05,0.4 q -0.4,2.3 0.05,4.1 0.85,3.75 4.9,6.1 2.95,1.7 7.65,2.2 1.4,0.15 1.85,0.45 1.05,0.65 0.8,1.55 -0.1,0.75 -1.2,1.2 l -0.5,0.15 q -5,1.5 -8.25,0.45 -1.65,-0.5 -4.05,-2.15 -3.3,-2.25 -4.65,-4.25 -1.15,-1.8 -1.7,-3.9 l -0.5,0.45 -1.5,2 -1.1,1.8 q -1.25,2.4 -0.8,4.75 l 0.3,1.2 q 0.45,1.5 1.6,2.65 1.1,1.1 2.55,1.55 l 1.65,0.4 q 1,0.3 1.4,0.8 0.4,0.55 0.35,1.3 0,0.7 -0.45,1.35 l -1.25,0.9 -1.15,0.15 q -1.25,0.05 -2.7,-0.55 -1.6,-0.7 -2.9,-1.8 l -0.9,0.95 q -6.15,6.15 -7.6,14.75 -0.85,5.2 0.95,8.2 l 1.05,1.7 q 0.3,0.55 0.45,1.05 l 0.05,0.8 -0.6,1.45 -1.05,1.15 q -2.35,2.6 -3.45,5.85 -0.3,1.05 0,1.5 0.35,0.55 1.15,0.45 0.65,-0.05 1.35,-0.55 2,-1.35 3.35,-3.55 l 1.05,-1.9 q 0.7,-1.05 1.55,-1.3 l 0.4,-0.05 1.25,0.2 2.7,0.4 3.6,0.75 1.7,0.15 q 0.5,0.15 0.9,0.4 l 0.45,0.35 q 0.65,0.7 0.6,1.85 l -0.4,2 q -0.6,2.3 -0.2,3.65 0.3,0.9 1,1.55 0.8,0.6 1.65,0.55 0.95,-0.1 1.95,-1.05 2,-2.1 2.2,-5 l 0.1,-1.8 0.4,-1.1 0.3,-0.45 q 0.8,-0.8 3.4,-0.55 3.8,0.45 7.65,0.15 1.85,-0.15 2.8,0.35 l 0.6,0.5 q 0.35,0.5 0.3,1.35 L 6.9,31.05 q -0.15,1.8 0.3,3.6 0.45,1.6 1.5,1.9 1.05,0.3 2.1,-0.6 Q 12.15,35 12.3,33.1 L 12.25,31.8 12.1,30.45 q -0.05,-1.65 0.85,-2.4 l 0.35,-0.25 1.75,-0.4 5.1,-0.55 1.35,-0.05 1.45,-0.3 2.2,-0.2 q 3.15,-0.45 5.8,-2.75 2.5,-2.2 3.7,-5.35 0.85,-2.05 0.8,-3.6 Q 35.4,13.4 34.6,11.25 31.25,1.9 26.45,-2.2 l -2.8,-2.1 -2.9,-2.05 q -0.9,-0.75 -1.3,-1.4 -0.35,-0.55 -0.35,-1 -0.05,-0.7 0.45,-1.65 l 0.85,-1.55 q 0.5,-1.45 -0.15,-3.3 v -0.1 Q 19.3,-18.5 16.8,-20.8 l -0.9,-0.8 q -0.4,2.4 -1.35,4.15 -1.45,2.65 -4.1,3.65 l -2.1,0.1 -0.55,-0.45 -0.2,-0.25 q -0.35,-0.5 -0.15,-1 0.2,-0.5 0.75,-0.8 l 1.1,-0.55 q 1.7,-1 2.2,-4.1 0.55,-3.25 0.05,-6.15 m -15.5,-8.9 0.55,-0.6 0.9,-0.2 q 0.8,0 1.8,0.8 1.9,1.75 2.35,3.85 l 2.9,-0.15 0.65,0.35 q 0.4,0.3 0.3,0.8 l -0.4,0.85 -0.75,0.6 -0.85,0.45 -0.35,0.4 0.2,0.35 0.85,2.05 q 0.75,2.3 0.4,3.7 l -0.3,0.9 -0.45,0.75 q -0.2,0.2 -0.55,0.25 l -0.9,-0.1 q -0.5,-0.2 -0.6,-0.65 v -0.6 q 0.1,-1.35 -1,-2.95 l -0.3,-0.5 -0.2,-0.6 -0.65,-0.9 -0.55,-0.35 -1.5,0.3 q -1.6,0.3 -2.6,1.45 -0.95,1.05 -1.5,1 l -0.35,-0.05 -0.55,-0.55 q -0.7,-1.2 0.3,-2.85 1.1,-2 3.3,-2.95 l 0.4,-0.15 1.2,-0.2 -0.05,-0.6 -1.05,-1.9 -0.1,-0.15 q -0.75,-1.05 -0.65,-1.65 l 0.1,-0.2 M 4.3,-1.85 0.45,-0.6 -2.15,0.6 q -1.6,0.9 -2.6,1.2 L -5.8,2 Q -6.4,1.95 -6.7,1.5 -7,0.9 -6.45,0.2 l 1.55,-1.45 0.4,-0.3 3.9,-2.3 2.7,-1.15 4.6,-1.6 5.45,-0.9 2.5,0.1 1.05,0.75 0.3,0.35 0.15,0.7 q -0.05,0.95 -1.05,1.55 -0.7,0.4 -1.9,0.55 l -2.7,0.25 -0.9,0.1 -1.8,0.25 -2.4,0.7 -1.1,0.35 M -20.65,13.4 q 1,-0.6 2.5,-0.55 1.4,-0.05 2.45,0.65 1,0.7 1.25,2 0.25,1.25 -0.25,2.35 -0.5,1.05 -1.65,1.7 -1.1,0.65 -2.35,0.65 -1.5,-0.05 -2.45,-0.8 -1.2,-0.9 -1.35,-2.3 -0.1,-0.85 0.45,-2.05 0.6,-1.05 1.4,-1.65 M -8,16.95 q 1.65,-3.25 4.95,-5.15 2.5,-1.3 6.35,-1.9 l 11.95,-0.45 2.5,0.5 q 1.2,0.5 2.1,1.3 1.25,1.05 1.9,2.6 0.7,1.5 0.55,3.05 -0.2,1.6 -1.2,2.95 -1.05,1.4 -2.5,1.8 L 16.65,21.95 6.6,22.6 Q 1.05,22.8 -3.4,22.4 -5.6,22.2 -6.65,21.65 -8.5,20.7 -8.55,19 -8.6,18.2 -8,16.95 M 26,15.6 q -0.8,-0.8 -0.9,-2.1 -0.15,-1.25 0.5,-2.25 0.6,-1 1.85,-1.5 L 29.8,9.6 q 1.2,0.3 1.85,1.1 1.1,1.15 0.75,2.8 -0.25,1.6 -1.6,2.55 Q 29.65,16.8 28.3,16.7 26.9,16.55 26,15.6 M 5.55,13.7 q -3.25,0.4 -5.05,1.1 -2.75,1.05 -4.1,3 L 6.2,18.15 6,13.95 6.05,13.7 h -0.5 m 7,-0.1 -2.05,-0.15 -0.05,0.4 -0.4,4.15 6.1,-0.55 1.7,-0.3 Q 18.55,15.9 17.5,14.7 16.7,13.8 15.15,13.65 L 12.55,13.6 M 34.1,27.4 34,27.05 l -0.05,0.05 -0.05,0.05 -2.5,1.9 -0.1,0.1 -1.3,0.65 0.15,0.4 0.65,2 0.45,0.75 0.9,0.35 q 0.9,0.2 1.45,-0.35 0.45,-0.4 0.55,-1.35 0.3,-2.15 -0.05,-4.2"
         fill="#000000"
         fill-rule="evenodd"
         stroke="none"
         id="path1" />
      <path
         d="M -6.85,-24.7 -7,-24.6 q -0.7,0.5 -1.6,0.65 l -1.85,-0.3 q -1.1,-0.5 -1.6,-1.75 -0.45,-1 -0.35,-2.3 0.2,-2.25 1.95,-5.15 l 1.85,-2.45 q 1.4,-1.15 2.85,-1 0.8,0.1 1.5,0.7 l 0.3,0.3 -0.1,0.2 q -0.1,0.6 0.65,1.65 l 0.1,0.15 -0.25,1.8 -0.25,1.05 q -2.2,0.95 -3.3,2.95 -1,1.65 -0.3,2.85 l 0.55,0.55 M 9.6,-3.15 11.1,-3.2 13.6,-3.4 q 1.45,0 2.3,0.7 0.75,0.7 0.85,1.8 0.05,1 -0.5,1.95 -0.8,1.2 -2.7,2 -3.3,1.45 -8.05,1.8 L 2.7,4.7 Q 1.2,4.3 0.65,2.95 0.35,2.15 0.65,1.25 0.9,0.45 1.55,-0.2 2.3,-1 4.3,-1.85 L 5.4,-2.2 7.8,-2.9 9.6,-3.15 m -28.2,-14.6 q 0.85,0.15 1.3,0.85 0.45,0.7 0.3,1.5 -0.1,0.5 -0.5,1.05 -0.5,0.5 -0.85,0.65 l -1.15,-0.05 -0.95,-0.7 q -0.55,-0.8 -0.4,-1.7 0.15,-1 1,-1.4 l 1.25,-0.2 m -1.95,20.4 q 0.1,2.85 -1.8,4.3 -1,0.75 -2.25,0.8 -1.3,0 -2.2,-0.8 -1.05,-0.95 -1.05,-2.6 0.1,-1.45 1.05,-2.65 1.45,-1.95 3.6,-1.95 0.95,0 1.6,0.5 0.95,0.7 1.05,2.4 m 33.1,10.95 2.6,0.05 q 1.55,0.15 2.35,1.05 1.05,1.2 0.35,2.45 l -1.7,0.3 -6.1,0.55 0.4,-4.15 0.05,-0.4 2.05,0.15 m -7,0.1 h 0.5 L 6,13.95 6.2,18.15 -3.6,17.8 q 1.35,-1.95 4.1,-3 1.8,-0.7 5.05,-1.1"
         fill="#ffffff"
         fill-rule="evenodd"
         stroke="none"
         id="path2" />
      <path
         d="m -14.05,-28 0.55,0.25 0.8,1.05 0.45,1.25 q 0.8,2.15 2.6,3.9 1.7,1.7 3.9,2.6 4.25,1.75 9.25,0.6 2.3,-0.5 3.9,-1.6 1.95,-1.3 2.6,-3.3 l 0.45,-1.9 q 0.3,-1.1 0.85,-1.65 l 0.25,-0.2 q 0.5,2.9 -0.05,6.15 -0.5,3.1 -2.2,4.1 l -1.1,0.55 q -0.55,0.3 -0.75,0.8 -0.2,0.5 0.15,1 l 0.2,0.25 q -2.25,1.1 -4.9,1.5 L 0,-12.4 q 1.1,-0.45 1.2,-1.2 0.25,-0.9 -0.8,-1.55 -0.45,-0.3 -1.85,-0.45 -4.7,-0.5 -7.65,-2.2 -4.05,-2.35 -4.9,-6.1 -0.45,-1.8 -0.05,-4.1 m 34.3,12.65 v 0.1 q 0.65,1.85 0.15,3.3 l -0.85,1.55 q -0.5,0.95 -0.45,1.65 0,0.45 0.35,1 Q 18.1,-7 16,-6.3 L 15.7,-6.65 14.65,-7.4 12.15,-7.5 6.7,-6.6 2.1,-5 l -2.7,1.15 -3.9,2.3 -0.4,0.3 -1,0.05 q -5.75,0.35 -11,-1.75 l 1.25,-0.9 q 0.45,-0.65 0.45,-1.35 0.05,-0.75 -0.35,-1.3 -0.4,-0.5 -1.4,-0.8 l -1.65,-0.4 q -1.45,-0.45 -2.55,-1.55 -1.15,-1.15 -1.6,-2.65 l -0.3,-1.2 0.4,0.2 1.5,1.2 q 3.5,3.45 8.55,4.7 l 9.1,0.35 q 3.2,-0.4 9.05,-1.9 l 9.8,-2.45 q 2.15,-0.5 3,-1.35 l 1.1,-1.65 0.8,-1.35 M 13.3,27.8 12.95,28.05 q -0.9,0.75 -0.85,2.4 l 0.15,1.35 0.05,1.3 q -0.15,1.9 -1.5,2.85 -1.05,0.9 -2.1,0.6 -1.05,-0.3 -1.5,-1.9 -0.45,-1.8 -0.3,-3.6 L 7.05,29.6 Q 7.1,28.75 6.75,28.25 l -0.6,-0.5 q 0.3,-0.7 0.75,-1.15 0.75,-0.85 1.7,-1.05 l 2.2,0.2 q 1.85,0.65 2.45,1.9 l 0.05,0.15 m -21.3,0.45 -0.4,1.1 -0.1,1.8 q -0.2,2.9 -2.2,5 -1,0.95 -1.95,1.05 -0.85,0.05 -1.65,-0.55 -0.7,-0.65 -1,-1.55 -0.4,-1.35 0.2,-3.65 l 0.4,-2 q 0.05,-1.15 -0.6,-1.85 l -0.45,-0.35 0.25,-0.5 1.1,-1.4 q 0.65,-0.55 1.85,-0.7 1.75,-0.25 2.75,0.6 l 0.7,0.85 1.1,2.15 m -17.9,-2.9 -0.4,0.05 q -0.85,0.25 -1.55,1.3 l -1.05,1.9 q -1.35,2.2 -3.35,3.55 -0.7,0.5 -1.35,0.55 -0.8,0.1 -1.15,-0.45 -0.3,-0.45 0,-1.5 1.1,-3.25 3.45,-5.85 l 1.05,-1.15 0.6,-1.45 -0.05,-0.8 1.65,0.15 q 1.25,0.5 1.85,1.55 0.35,0.6 0.4,1.15 l -0.1,1 m 59.8,1.8 0.2,0.25 q 0.35,2.05 0.05,4.2 -0.1,0.95 -0.55,1.35 -0.55,0.55 -1.45,0.35 l -0.9,-0.35 -0.45,-0.75 -0.65,-2 -0.15,-0.4 1.3,-0.65 0.1,-0.1 2.5,-1.9"
         fill="#ac8d8d"
         fill-rule="evenodd"
         stroke="none"
         id="path3" />
      <path
         d="m -14.05,-28 0.05,-0.4 q 0.4,-1.8 1.2,-3.55 1,-2.45 2.8,-4.15 2,-2 5,-2.8 2.9,-0.75 5.8,-0.1 2.75,0.65 5.2,2.5 2.25,1.8 3.75,4.35 1.35,2.45 1.8,5.15 l -0.25,0.2 q -0.55,0.55 -0.85,1.65 l -0.45,1.9 q -0.65,2 -2.6,3.3 -1.6,1.1 -3.9,1.6 -5,1.15 -9.25,-0.6 -2.2,-0.9 -3.9,-2.6 -1.8,-1.75 -2.6,-3.9 l -0.45,-1.25 -0.8,-1.05 -0.55,-0.25 m 21.85,13.85 0.55,0.45 2.1,-0.1 q 2.65,-1 4.1,-3.65 0.95,-1.75 1.35,-4.15 l 0.9,0.8 q 2.5,2.3 3.45,5.45 l -0.8,1.35 -1.1,1.65 q -0.85,0.85 -3,1.35 l -9.8,2.45 q -5.85,1.5 -9.05,1.9 L -12.6,-7 q -5.05,-1.25 -8.55,-4.7 l -1.5,-1.2 -0.4,-0.2 q -0.45,-2.35 0.8,-4.75 l 1.1,-1.8 1.5,-2 0.5,-0.45 q 0.55,2.1 1.7,3.9 1.35,2 4.65,4.25 2.4,1.65 4.05,2.15 3.25,1.05 8.25,-0.45 L 0,-12.4 2.9,-12.65 q 2.65,-0.4 4.9,-1.5 m 11.65,6.4 q 0.4,0.65 1.3,1.4 l 2.9,2.05 2.8,2.1 q 4.8,4.1 8.15,13.45 0.8,2.15 0.85,3.35 0.05,1.55 -0.8,3.6 -1.2,3.15 -3.7,5.35 -2.65,2.3 -5.8,2.75 l -2.2,0.2 -1.45,0.3 -1.35,0.05 -5.1,0.55 -1.75,0.4 -0.05,-0.15 Q 12.65,26.4 10.8,25.75 L 8.6,25.55 Q 7.65,25.75 6.9,26.6 6.45,27.05 6.15,27.75 5.2,27.25 3.35,27.4 -0.5,27.7 -4.3,27.25 -6.9,27 -7.7,27.8 L -8,28.25 -9.1,26.1 -9.8,25.25 q -1,-0.85 -2.75,-0.6 -1.2,0.15 -1.85,0.7 l -1.1,1.4 -0.25,0.5 q -0.4,-0.25 -0.9,-0.4 l -1.7,-0.15 -3.6,-0.75 -2.7,-0.4 -1.25,-0.2 0.1,-1 q -0.05,-0.55 -0.4,-1.15 -0.6,-1.05 -1.85,-1.55 L -29.7,21.5 q -0.15,-0.5 -0.45,-1.05 l -1.05,-1.7 q -1.8,-3 -0.95,-8.2 1.45,-8.6 7.6,-14.75 l 0.9,-0.95 q 1.3,1.1 2.9,1.8 1.45,0.6 2.7,0.55 l 1.15,-0.15 q 5.25,2.1 11,1.75 l 1,-0.05 -1.55,1.45 Q -7,0.9 -6.7,1.5 -6.4,1.95 -5.8,2 l 1.05,-0.2 q 1,-0.3 2.6,-1.2 L 0.45,-0.6 4.3,-1.85 Q 2.3,-1 1.55,-0.2 0.9,0.45 0.65,1.25 q -0.3,0.9 0,1.7 Q 1.2,4.3 2.7,4.7 l 2.8,0.15 q 4.75,-0.35 8.05,-1.8 1.9,-0.8 2.7,-2 Q 16.8,0.1 16.75,-0.9 16.65,-2 15.9,-2.7 15.05,-3.4 13.6,-3.4 l -2.5,0.2 -1.5,0.05 0.9,-0.1 2.7,-0.25 q 1.2,-0.15 1.9,-0.55 1,-0.6 1.05,-1.55 L 16,-6.3 q 2.1,-0.7 3.45,-1.45 m -26.3,-16.95 0.35,0.05 q 0.55,0.05 1.5,-1 1,-1.15 2.6,-1.45 l 1.5,-0.3 0.55,0.35 0.65,0.9 0.2,0.6 0.3,0.5 q 1.1,1.6 1,2.95 v 0.6 q 0.1,0.45 0.6,0.65 l 0.9,0.1 Q 3.65,-20.8 3.85,-21 l 0.45,-0.75 0.3,-0.9 q 0.35,-1.4 -0.4,-3.7 l -0.85,-2.05 -0.2,-0.35 0.35,-0.4 0.85,-0.45 0.75,-0.6 0.4,-0.85 q 0.1,-0.5 -0.3,-0.8 l -0.65,-0.35 -2.9,0.15 q -0.45,-2.1 -2.35,-3.85 -1,-0.8 -1.8,-0.8 l -0.9,0.2 -0.55,0.6 -0.3,-0.3 q -0.7,-0.6 -1.5,-0.7 -1.45,-0.15 -2.85,1 l -1.85,2.45 q -1.75,2.9 -1.95,5.15 -0.1,1.3 0.35,2.3 0.5,1.25 1.6,1.75 l 1.85,0.3 q 0.9,-0.15 1.6,-0.65 l 0.15,-0.1 m -11.75,6.95 -1.25,0.2 q -0.85,0.4 -1,1.4 -0.15,0.9 0.4,1.7 l 0.95,0.7 1.15,0.05 q 0.35,-0.15 0.85,-0.65 0.4,-0.55 0.5,-1.05 0.15,-0.8 -0.3,-1.5 -0.45,-0.7 -1.3,-0.85 M -8,16.95 q -0.6,1.25 -0.55,2.05 0.05,1.7 1.9,2.65 1.05,0.55 3.25,0.75 4.45,0.4 10,0.2 l 10.05,-0.65 1.95,-0.3 q 1.45,-0.4 2.5,-1.8 1,-1.35 1.2,-2.95 0.15,-1.55 -0.55,-3.05 -0.65,-1.55 -1.9,-2.6 -0.9,-0.8 -2.1,-1.3 L 15.25,9.45 3.3,9.9 q -3.85,0.6 -6.35,1.9 -3.3,1.9 -4.95,5.15 M -20.65,13.4 q -0.8,0.6 -1.4,1.65 -0.55,1.2 -0.45,2.05 0.15,1.4 1.35,2.3 0.95,0.75 2.45,0.8 1.25,0 2.35,-0.65 1.15,-0.65 1.65,-1.7 0.5,-1.1 0.25,-2.35 -0.25,-1.3 -1.25,-2 -1.05,-0.7 -2.45,-0.65 -1.5,-0.05 -2.5,0.55 m 0.1,-10.75 q -0.1,-1.7 -1.05,-2.4 -0.65,-0.5 -1.6,-0.5 -2.15,0 -3.6,1.95 -0.95,1.2 -1.05,2.65 0,1.65 1.05,2.6 0.9,0.8 2.2,0.8 1.25,-0.05 2.25,-0.8 1.9,-1.45 1.8,-4.3 M 26,15.6 q 0.9,0.95 2.3,1.1 1.35,0.1 2.5,-0.65 1.35,-0.95 1.6,-2.55 0.35,-1.65 -0.75,-2.8 Q 31,9.9 29.8,9.6 l -2.35,0.15 q -1.25,0.5 -1.85,1.5 -0.65,1 -0.5,2.25 0.1,1.3 0.9,2.1"
         fill="#d5bcbc"
         fill-rule="evenodd"
         stroke="none"
         id="path4" />
    </g>
    <g
       id="sprite1"
       transform="translate(17.4,15.85)">
      <use
         ffdec:characterId="31"
         height="57.200001"
         transform="matrix(0.5366,0,0,0.5366,-16.6582,-14.546)"
         width="70.75"
         xlink:href="#sprite2"
         id="use4" />
    </g>
    <g
       id="sprite2"
       transform="translate(-8.65,-10.35)">
      <use
         ffdec:characterId="30"
         height="57.200001"
         transform="translate(8.65,10.35)"
         width="70.75"
         xlink:href="#shape1"
         id="use5" />
    </g>
    <g
       id="shape1"
       transform="translate(-8.65,-10.35)">
      <path
         d="m 14.8,41.7 q 0.65,-1.75 2.65,-2.5 1.8,-0.8 3.7,-0.25 1.15,0.45 2.25,1.2 l 0.9,0.4 q 1.65,0.9 2.85,2.5 L 37.8,30.1 q 2.35,-2.8 3.75,-3.95 1.5,-1.15 4.25,-2.4 18.2,-8.85 27.65,-12.6 2.15,-0.8 3.25,-0.8 h 0.8 l 1.9,2.4 -0.2,0.8 q -0.2,1.1 -1.55,3 -5.85,8.25 -18.85,23.8 -1.85,2.35 -3.35,3.5 -1.4,1.15 -4.75,2.75 l -15.15,7.15 q 1.2,1.6 1.75,3.4 l 0.2,1 0.55,2.5 q 0.1,1.95 -1.1,3.55 -1.2,1.65 -3.05,1.9 l -1.3,0.05 q -1.65,0.2 -3.45,-0.65 -1.85,-0.9 -3,-2.6 L 25,60.95 23.8,62.1 q -2.6,2.85 -4.3,3.95 -2.85,1.8 -5.5,1.45 l -1.65,-0.5 -1.2,-0.7 -0.2,-0.2 q -1,-0.85 -1.6,-1.9 L 9.25,64 9.15,63.8 8.75,62.4 q -0.2,-0.8 -0.05,-1.7 0.25,-2.65 2.7,-5.05 1.5,-1.3 4.9,-3.15 L 17.7,51.55 16.05,50 q -1.35,-1.5 -1.8,-3.6 -0.4,-1.85 0.25,-3.45 l 0.3,-1.25"
         fill="#000000"
         fill-opacity="0.372549"
         fill-rule="evenodd"
         stroke="none"
         id="path5" />
    </g>
  </defs>
</svg>
