<?xml version="1.0" encoding="UTF-8" standalone="no"?>
<svg
   ffdec:objectType="frame"
   height="85.917435"
   width="80.737114"
   version="1.1"
   id="svg5"
   xmlns:xlink="http://www.w3.org/1999/xlink"
   xmlns="http://www.w3.org/2000/svg"
   xmlns:svg="http://www.w3.org/2000/svg"
   xmlns:ffdec="https://www.free-decompiler.com/flash">
  <g
     transform="translate(40.239474,43.059398)"
     id="g1">
    <use
       ffdec:characterId="17"
       height="119.15"
       id="rarity"
       transform="translate(-58.5,-60.65)"
       width="119.15"
       xlink:href="#sprite0" />
    <use
       ffdec:characterId="453"
       height="85.900002"
       transform="translate(-40.25,-43.05)"
       width="80.75"
       xlink:href="#shape0"
       id="use1" />
  </g>
  <defs
     id="defs5">
    <g
       id="shape0"
       transform="translate(39.85,42.25)">
      <path
         d="m 31.65,-38.5 0.4,0.25 1.4,1 0.05,-0.05 0.25,0.35 0.4,0.25 -0.05,0.05 1.15,1.3 0.35,0.35 q 5.8,7.3 5.25,16.35 -0.3,4.25 -3.5,7.4 -4.8,6.9 -10.4,13.45 l -4.5,4.85 q -1.55,2.55 -3.9,4.6 -2.45,2.05 -5.4,3.2 Q 7,17.2 1.05,13.6 0,14.25 -0.85,15.05 l -10.4,11.5 q -2.35,2.8 -4.85,5.15 2.35,6.95 -3.85,11.1 -2.3,1.55 -4.7,0.3 -4.55,-2.25 -8.4,-5.7 -3.4,-3.2 -6,-7.1 -1.5,-2.25 -0.15,-4.7 3.35,-6.65 10.55,-5.1 l 4.5,-5.45 q 5.2,-5.7 10.25,-11.6 0.75,-0.9 1.2,-2.05 -4.25,-5.55 -2.6,-11.85 0.8,-3.15 2.55,-5.8 1.75,-2.55 4.15,-4.4 l 4.25,-5.05 q 5.9,-6.25 12.2,-11.85 2.75,-3.55 6.95,-4.3 8.9,-1.65 16.85,3.35 m -38.3,51.4 q 2.95,-2.7 6.25,-5.05 1,-0.7 1.9,-0.2 5.1,3.05 10.4,1.9 L 13.15,8.3 q 5.25,-4.55 9.6,-10.05 l 3.4,-3.9 q 1.5,-2.2 3.35,-4.3 l 3.3,-4.45 0.8,-1.05 q 2.5,-4.25 0.85,-9.1 -1.25,-3.55 -3.3,-6.55 l -0.25,-0.4 -0.95,-1.05 -1.2,-0.85 -0.45,-0.2 -2.1,-1 q -2.3,-1 -4.8,-1.55 -5,-1.15 -8.95,1.9 l -0.95,0.85 q -2.15,1.75 -4.05,3.85 l -3.85,3.8 -3.55,3.8 q -4.35,4.3 -7.9,9.3 l -0.95,1.35 -1.1,1.45 q -0.5,5.35 3.05,10.1 0.65,0.8 0.1,1.9 L -8.2,4.7 q -3.35,5.55 -7.75,10.3 l -2.55,2.55 q -3.15,3.1 -5.6,6.75 l -0.6,0.75 1.8,1.5 q 1.05,0.75 1.95,1.65 l 0.6,-0.6 q 3.35,-2.85 6.05,-6.35 2.65,-3.45 5.7,-6.5 l 1.95,-1.85 m 35.9,-34.7 0.15,-0.2 q 0.5,-0.4 1.1,-0.45 l 0.3,-0.05 0.45,0.15 0.55,0.3 v -0.05 q 1,1.4 0.75,3.1 -0.05,0.65 -0.5,1.1 l -0.15,0.15 -0.15,0.15 -0.25,0.1 -0.1,0.1 h -0.3 l -0.35,0.05 -0.25,-0.05 -0.45,-0.3 -0.85,-0.75 -0.3,-1.7 0.05,-0.6 0.1,-0.7 0.2,-0.35 M -5.2,-4.85 -5.95,-4.8 Q -7,-4.95 -7.55,-5.9 l -0.1,-0.7 Q -7.8,-7 -7.55,-7.35 l 0.65,-0.4 q 2.25,-1.1 5.2,0.25 l 1.65,0.6 0.4,0.7 0.15,0.6 -0.05,0.2 -0.15,0.15 -0.35,0.3 -3.7,-0.15 -0.75,-0.05 -0.4,0.15 -0.3,0.15 m 6.85,-7.7 0.45,0.65 0.05,0.3 v 0.25 l -0.25,0.4 -0.25,0.3 -0.2,0.15 -1,0.15 H 0.4 -0.35 l -3.6,0.2 -0.6,-0.05 q -0.7,-0.3 -1.05,-0.95 0.25,-3.55 3.3,-3.05 l 1.35,0.4 0.7,0.25 1.9,1 m -31.75,45.6 0.8,0.85 q 3.2,2.4 6.6,4.05 l 0.35,-0.35 q 0.45,-0.35 0.55,-0.9 l 0.5,-0.95 0.05,-0.3 -0.2,-0.75 -0.2,-1.05 V 33.3 l -0.55,-1.85 -2.85,-2.3 -3.35,-2.7 -1.25,-0.25 -0.35,0.05 -1,-0.05 -0.85,-0.15 -0.2,0.1 -0.95,0.55 -0.85,0.7 -0.25,0.35 q 1.75,2.8 4,5.3"
         fill="#000000"
         fill-rule="evenodd"
         stroke="none"
         id="path1" />
      <path
         d="m 19.25,-34.7 2.4,0.5 q 3.3,1.2 2.1,5.25 l -0.05,0.05 q -0.6,1.9 -2.25,3.1 -4.2,3 -8.8,1.3 -0.8,-0.35 -1.6,-0.75 l -0.8,-0.7 -0.15,-0.3 q -0.2,-0.55 0.05,-1.2 0.85,-2.65 2.75,-4.35 1.8,-1.7 4.6,-2.55 l 1.75,-0.35 m -16.6,16.75 1,0.3 0.75,0.35 q 0.5,1.15 0.45,1.9 -0.05,1 -1,1.3 L 1.5,-14.2 q -0.75,-0.2 -0.85,-1 -0.35,-2.4 2,-2.75 m 5.8,21 q 3.75,1.45 0.8,4 -1.15,1 -2.2,-0.2 Q 5.2,4.7 7.65,3.2 L 7.95,3.15 8.45,3.1 V 3.05"
         fill="#ffffff"
         fill-rule="evenodd"
         stroke="none"
         id="path2" />
      <path
         d="m 26.2,-34.6 q 2,1.55 3.4,4.1 0.7,1.3 0.6,2.8 -0.2,3.1 -0.95,5.9 l -0.2,0.35 -0.1,0.7 Q 26,-11.25 16.6,-5.3 8.3,-0.05 -0.95,-2.45 -3.6,-3.1 -5.2,-4.85 l 0.3,-0.15 0.4,-0.15 0.75,0.05 3.7,0.15 L 0.3,-5.25 0.45,-5.4 0.5,-5.6 0.35,-6.2 -0.05,-6.9 -1.7,-7.5 q -2.95,-1.35 -5.2,-0.25 -0.95,-2.55 -0.95,-4.9 3.55,-5 7.9,-9.3 l 3.55,-3.8 3.85,-3.8 q 1.9,-2.1 4.05,-3.85 l 0.95,-0.85 q 3.95,-3.05 8.95,-1.9 2.5,0.55 4.8,1.55 m -34.4,39.3 1.3,-1.2 0.2,-0.2 0.3,-0.2 0.55,-0.15 0.6,0.1 0.45,0.5 q 0.3,0.35 0.25,0.8 L -4.6,4.55 -4.8,5 -4.9,5.2 q 1.05,4.35 -1.75,7.7 l -1.95,1.85 -0.15,0.1 q -2.9,2.25 -6.2,1.1 -0.85,-0.3 -1,-0.95 4.4,-4.75 7.75,-10.3 m 27.45,-39.4 -1.75,0.35 q -2.8,0.85 -4.6,2.55 -1.9,1.7 -2.75,4.35 -0.25,0.65 -0.05,1.2 l 0.15,0.3 0.8,0.7 q 0.8,0.4 1.6,0.75 4.6,1.7 8.8,-1.3 1.65,-1.2 2.25,-3.1 l 0.05,-0.05 q 1.2,-4.05 -2.1,-5.25 l -2.4,-0.5 m -16.6,16.75 q -2.35,0.35 -2,2.75 0.1,0.8 0.85,1 l 2.35,0.1 q 0.95,-0.3 1,-1.3 0.05,-0.75 -0.45,-1.9 l -0.75,-0.35 -1,-0.3 m -1,5.4 -1.9,-1 -0.7,-0.25 -1.35,-0.4 q -3.05,-0.5 -3.3,3.05 0.35,0.65 1.05,0.95 l 0.6,0.05 3.6,-0.2 H 0.4 0.45 l 1,-0.15 0.2,-0.15 0.25,-0.3 0.25,-0.4 V -11.6 L 2.1,-11.9 1.65,-12.55 m -26.7,41.7 0.05,1.1 q 0,2.45 -2.45,2.75 l -2.65,0.05 q -2.25,-2.5 -4,-5.3 l 0.25,-0.35 0.85,-0.7 0.95,-0.55 0.2,-0.1 0.85,0.15 1,0.05 0.35,-0.05 1.25,0.25 3.35,2.7"
         fill="#c2b9b9"
         fill-rule="evenodd"
         stroke="none"
         id="path3" />
      <path
         d="m 26.2,-34.6 2.1,1 0.45,0.2 1.2,0.85 0.95,1.05 0.25,0.4 q 2.05,3 3.3,6.55 1.65,4.85 -0.85,9.1 l -0.8,1.05 -3.3,4.45 q -1.85,2.1 -3.35,4.3 l -3.4,3.9 Q 18.4,3.75 13.15,8.3 L 11.9,9.55 Q 6.6,10.7 1.5,7.65 0.6,7.15 -0.4,7.85 -3.7,10.2 -6.65,12.9 -3.85,9.55 -4.9,5.2 L -4.8,5 -4.6,4.55 -4.55,4.35 Q -4.5,3.9 -4.8,3.55 L -5.25,3.05 -5.85,2.95 -6.4,3.1 -6.7,3.3 -6.9,3.5 -8.2,4.7 -6.75,2.15 Q -6.2,1.05 -6.85,0.25 -10.4,-4.5 -9.9,-9.85 l 1.1,-1.45 0.95,-1.35 q 0,2.35 0.95,4.9 l -0.65,0.4 Q -7.8,-7 -7.65,-6.6 l 0.1,0.7 q 0.55,0.95 1.6,1.1 l 0.75,-0.05 q 1.6,1.75 4.25,2.4 9.25,2.4 17.55,-2.85 9.4,-5.95 12.35,-15.45 l -0.05,0.6 0.3,1.7 0.85,0.75 0.45,0.3 0.25,0.05 0.35,-0.05 h 0.3 l 0.1,-0.1 0.25,-0.1 0.15,-0.15 0.15,-0.15 q 0.45,-0.45 0.5,-1.1 0.25,-1.7 -0.75,-3.1 v 0.05 l -0.55,-0.3 -0.45,-0.15 -0.3,0.05 q -0.6,0.05 -1.1,0.45 l -0.15,0.2 q 0.75,-2.8 0.95,-5.9 0.1,-1.5 -0.6,-2.8 -1.4,-2.55 -3.4,-4.1 M -8.6,14.75 q -3.05,3.05 -5.7,6.5 -2.7,3.5 -6.05,6.35 l -0.6,0.6 q -0.9,-0.9 -1.95,-1.65 l -1.8,-1.5 0.6,-0.75 q 2.45,-3.65 5.6,-6.75 L -15.95,15 q 0.15,0.65 1,0.95 3.3,1.15 6.2,-1.1 l 0.15,-0.1 M 8.45,3.05 V 3.1 L 7.95,3.15 7.65,3.2 q -2.45,1.5 -0.6,3.65 1.05,1.2 2.2,0.2 2.95,-2.55 -0.8,-4 m -38.55,30 2.65,-0.05 Q -25,32.7 -25,30.25 l -0.05,-1.1 2.85,2.3 0.55,1.85 v 0.35 l 0.2,1.05 0.2,0.75 -0.05,0.3 -0.5,0.95 q -0.1,0.55 -0.55,0.9 l -0.35,0.35 q -3.4,-1.65 -6.6,-4.05 l -0.8,-0.85"
         fill="#a89c9c"
         fill-rule="evenodd"
         stroke="none"
         id="path4" />
    </g>
    <g
       id="sprite1"
       transform="translate(17.4,15.85)">
      <use
         ffdec:characterId="31"
         height="57.200001"
         transform="matrix(0.5366,0,0,0.5366,-16.6582,-14.546)"
         width="70.75"
         xlink:href="#sprite2"
         id="use4" />
    </g>
    <g
       id="sprite2"
       transform="translate(-8.65,-10.35)">
      <use
         ffdec:characterId="30"
         height="57.200001"
         transform="translate(8.65,10.35)"
         width="70.75"
         xlink:href="#shape1"
         id="use5" />
    </g>
    <g
       id="shape1"
       transform="translate(-8.65,-10.35)">
      <path
         d="m 14.8,41.7 q 0.65,-1.75 2.65,-2.5 1.8,-0.8 3.7,-0.25 1.15,0.45 2.25,1.2 l 0.9,0.4 q 1.65,0.9 2.85,2.5 L 37.8,30.1 q 2.35,-2.8 3.75,-3.95 1.5,-1.15 4.25,-2.4 18.2,-8.85 27.65,-12.6 2.15,-0.8 3.25,-0.8 h 0.8 l 1.9,2.4 -0.2,0.8 q -0.2,1.1 -1.55,3 -5.85,8.25 -18.85,23.8 -1.85,2.35 -3.35,3.5 -1.4,1.15 -4.75,2.75 l -15.15,7.15 q 1.2,1.6 1.75,3.4 l 0.2,1 0.55,2.5 q 0.1,1.95 -1.1,3.55 -1.2,1.65 -3.05,1.9 l -1.3,0.05 q -1.65,0.2 -3.45,-0.65 -1.85,-0.9 -3,-2.6 L 25,60.95 23.8,62.1 q -2.6,2.85 -4.3,3.95 -2.85,1.8 -5.5,1.45 l -1.65,-0.5 -1.2,-0.7 -0.2,-0.2 q -1,-0.85 -1.6,-1.9 L 9.25,64 9.15,63.8 8.75,62.4 q -0.2,-0.8 -0.05,-1.7 0.25,-2.65 2.7,-5.05 1.5,-1.3 4.9,-3.15 L 17.7,51.55 16.05,50 q -1.35,-1.5 -1.8,-3.6 -0.4,-1.85 0.25,-3.45 l 0.3,-1.25"
         fill="#000000"
         fill-opacity="0.372549"
         fill-rule="evenodd"
         stroke="none"
         id="path5" />
    </g>
  </defs>
</svg>
