<?xml version="1.0" encoding="UTF-8" standalone="no"?>
<svg
   ffdec:objectType="frame"
   height="70.37841"
   width="89.0709"
   version="1.1"
   id="svg4"
   sodipodi:docname="ITEM Bone Necklace.svg"
   xmlns:inkscape="http://www.inkscape.org/namespaces/inkscape"
   xmlns:sodipodi="http://sodipodi.sourceforge.net/DTD/sodipodi-0.dtd"
   xmlns:xlink="http://www.w3.org/1999/xlink"
   xmlns="http://www.w3.org/2000/svg"
   xmlns:svg="http://www.w3.org/2000/svg"
   xmlns:ffdec="https://www.free-decompiler.com/flash">
  <sodipodi:namedview
     id="namedview4"
     pagecolor="#ffffff"
     bordercolor="#000000"
     borderopacity="0.25"
     inkscape:showpageshadow="2"
     inkscape:pageopacity="0.0"
     inkscape:pagecheckerboard="0"
     inkscape:deskcolor="#d1d1d1"
     fit-margin-top="5"
     fit-margin-left="5"
     fit-margin-right="5"
     fit-margin-bottom="5" />
  <g
     transform="translate(41.220899,36.35)"
     id="g1">
    <use
       ffdec:characterId="17"
       height="119.15"
       id="rarity"
       transform="translate(-58.5,-60.65)"
       width="119.15"
       xlink:href="#sprite0" />
    <use
       ffdec:characterId="731"
       height="70.400002"
       transform="translate(-41.2,-36.35)"
       width="89.050003"
       xlink:href="#shape0"
       id="use1" />
  </g>
  <defs
     id="defs4">
    <g
       id="shape0"
       transform="translate(41.75,37.1)">
      <path
         d="m -13.2,10.3 -1,2.6 -1.5,3.65 -0.8,1.7 q 1.65,1.4 2.1,3.4 0.4,1.7 0.2,3.45 -0.1,1.1 -0.35,2.15 -3.65,6.6 -10.4,3 -0.9,-0.45 -1.6,-1.35 -0.95,-1.25 -0.8,-2.8 -3.25,0.6 -5.4,-1.8 -1,-1.15 -0.7,-2.75 1.15,-6 7.85,-6.25 l 0.75,-2.65 0.7,-1.95 -1.2,0.55 Q -31.8,14.7 -36.5,9.3 -37.15,8.55 -37.3,7.6 -43.8,3.35 -40.85,-3.25 l 1.3,-2.1 q 2.3,-2.85 5.25,-5 -1.25,-0.7 -2.05,-1.95 -3.9,-2.95 -2.2,-9.05 l 0.75,-1.6 q 4.65,-6.8 12.05,-3.75 2.1,0.85 4.1,2 l 1.95,1.05 0.2,0.05 h 1.5 q 2.35,-4.8 6.2,-8.4 2.45,-2.25 5.6,-2.25 7.5,0.6 7.9,7.85 l 0.1,3.85 0.1,0.2 0.2,0.25 0.2,0.2 0.15,0.15 h 4.3 q 1.3,-0.55 2.5,-1.25 v -1.45 q 0.55,-8.2 8.75,-11.3 l 2.85,-1.2 0.2,-0.05 0.4,-0.1 1.7,0.1 0.95,0.25 q 0.55,0.4 0.6,1.05 l 0.05,2.8 0.15,0.45 0.3,1.3 0.15,0.85 q 2.1,-0.45 4.1,-2.65 0.7,-0.75 1.65,-0.9 l 0.15,0.05 0.6,0.1 q 1.95,4.3 -0.05,9.1 l -1.15,2.1 3,-0.3 -0.1,-0.85 q -0.1,-0.9 0.2,-1.75 l 0.5,-1.25 1.55,-1.8 q 1.5,-1.35 3.4,-1.5 6.65,0.6 5.95,6.95 -0.2,1.75 -1.25,2.95 4.85,4.3 2,9.55 -0.9,1.7 -2.85,2.3 -1.55,0.25 -2.75,0 l 0.05,0.1 q 3.2,1.85 5.05,5.1 0.9,1.5 1.25,3.35 0.4,0.35 0.5,0.85 L 47.3,1.85 46.9,2.9 Q 46.55,3.4 46,3.6 40.5,3.8 35.65,1.2 H 35 l 0.25,0.9 0.8,3.2 0.35,0.65 0.15,0.85 0.1,0.65 q 4.8,-1 5.75,3.3 1.5,6.9 -4.95,8.7 l -1.4,0.3 q 0.9,3.1 -2.45,5.45 -1.8,1.3 -4.05,0.75 l -2.1,-0.8 -0.2,0.45 q -0.15,5.1 -4.3,7.35 -1.5,0.85 -2.5,-0.5 -1.3,-1.65 -1.9,-3.7 v -0.6 Q 16.75,30.45 12.8,29.6 10.4,29.05 9.1,27.2 5.55,32.5 0.4,29.65 -2.45,28.05 -2.15,24.8 -1.7,19.6 3.8,18.3 L 4.3,16.85 4.4,14 Q 4.35,12.6 4.45,11.25 V 10.8 l -0.8,-0.25 v 0.1 l -0.1,0.2 -0.35,0.85 -0.3,0.9 -1.6,1.9 -3.45,4.5 -0.05,0.25 -0.05,0.2 -0.2,0.2 -0.2,0.25 -0.55,0.85 -0.85,1.05 -0.1,0.25 -0.05,0.2 -0.5,0.85 -0.65,1.05 -0.3,0.25 L -6,24.55 -6.55,24.75 -7.4,24.5 Q -8.55,24 -9.15,22.85 L -10,21.6 l -0.05,-0.2 -0.05,-0.2 -0.4,-1.1 -0.15,-1.5 -0.1,-0.25 -0.1,-0.2 -0.15,-0.2 -0.15,-0.2 -0.15,-7.75 -1.9,0.3 m -0.2,-13.85 q 0.6,0.7 0.85,1.55 5.65,-2.3 8.45,1 3.25,-0.5 5.85,1.2 0.9,-0.6 1.95,-0.95 l 1.45,-0.4 q 2.85,-0.45 5.35,0.7 0.75,0.35 1.3,0.95 1.55,-0.8 2.95,-1.05 0.8,-1.55 2.05,-2.75 l 0.15,-0.1 -0.1,-0.55 q -0.25,-1.5 0.1,-3 L 17.1,-7.6 17.15,-7.65 16,-8.75 q -1.45,-1.5 -1.05,-3.85 0.2,-1.35 0.8,-2.55 -1.85,-0.55 -2.55,-2 -1.3,-0.35 -2.2,-1.3 l -2.25,1 q -3.4,1.1 -7.1,0 -4.55,-1.35 -3.85,-5.9 0.5,-3.6 -1.8,-6.05 -6.1,-1.3 -8.2,4.75 -1.35,3.9 -5,5.25 -2.95,1.1 -5.45,-0.55 -3.3,-2.15 -6.75,-4.1 -2.4,0.3 -4.15,1.9 l -2.05,2.15 -0.05,0.2 -0.1,0.2 -0.15,0.45 -0.05,0.2 v 0.2 0.25 l 0.15,0.65 0.1,0.6 0.05,0.65 q 0.65,1.35 1.95,2.1 l 2.6,1.6 q 2.7,-2 5.95,-3.05 l 1.1,0.2 0.7,0.35 q 0.75,2.05 -0.1,4.2 l -0.9,1.85 q -0.15,0.6 0.5,0.25 1.1,-0.85 1.95,-1.85 l 0.7,-0.7 0.75,-1.35 0.95,-0.6 q 1.45,0.3 2.3,1.05 l 0.1,-0.05 v -0.05 l 0.65,0.15 0.45,0.2 q 1.75,3.45 1.1,7.55 v 0.05 l 1.5,1.15 M -24.85,1.4 q 0.4,-3.45 3.65,-5.3 0.75,-0.45 1.55,-0.7 l 0.15,-0.75 0.35,-0.45 0.05,-1.95 0.3,-1.5 q -1.7,1.95 -4.8,3.65 -1.7,0.95 -3.4,-0.05 -1,-1.4 -0.8,-3.25 l 0.2,-1.7 q -5.05,3.7 -9.15,8.95 l -0.8,1.2 0.65,1.9 0.5,1.35 q 2.8,1.85 4.7,4.55 l 1.1,0.8 2.15,-0.05 4.1,-3.05 Q -25.1,3.4 -24.85,1.4 m 6.65,-2.05 Q -19.5,0 -20.4,1 L -21,1.95 q 3.45,5.75 0.3,11.9 -1.2,2.3 -1.6,4.8 l -0.1,0.2 -0.1,0.25 -0.1,0.2 -0.15,0.2 q -2.55,0.75 -5.45,1.05 -0.7,0.05 -1.1,0.6 l 0.05,0.25 v 0.2 0.2 0.15 l 5.75,-0.2 0.35,0.65 0.15,0.65 0.05,0.2 -0.35,1.3 q -0.25,0.7 -0.05,1.5 l 0.75,0.85 0.65,0.65 1.85,0.05 0.8,-0.6 0.7,-0.7 0.1,-0.2 0.15,-0.2 0.2,-0.25 0.1,-0.4 0.15,-0.45 0.1,-0.4 -0.2,-0.9 -0.35,-1.05 -0.9,-0.85 -0.4,-0.65 v -1.5 q 0.25,-1 1.15,-1.5 l 0.15,-0.65 0.25,-0.65 0.15,-0.2 q 1.35,-5 3.3,-9.5 0.25,-0.5 0.85,-0.55 l 3,-0.45 q 0.75,-2.8 2.75,-4.6 -1.3,-0.25 -2.95,0.8 -3.85,2.75 -5.2,-1.8 l -0.4,-0.9 -1.6,-0.1 m 37.4,-25.1 q 5.05,-0.6 6.25,4.1 l 0.05,0.2 1.45,-0.35 0.15,-0.5 1.5,-2.75 0.2,-1.05 0.95,-2.8 q -0.25,-0.25 -0.8,0.2 -1,0.85 -2.2,1.45 l -3.7,-0.15 q -0.4,-0.15 -0.65,-0.55 l -0.1,-0.45 -0.1,-1.05 v -0.85 l -0.35,-0.65 Q 21.6,-31.9 21.6,-32.9 v -0.45 l -0.1,-0.1 h -0.15 l -0.5,0.1 -0.25,0.25 -0.2,0.15 q -4.95,1.35 -6.25,6.1 l -0.35,1.4 -0.25,0.65 v 0.2 0.45 l -0.05,1.05 -0.05,0.2 0.05,0.2 0.05,0.1 0.15,-0.35 1.25,-1.1 q 1.7,-1.05 3.6,-1.55 l 0.2,-0.05 0.45,-0.05 v -0.05 m 2.9,14.4 2.2,0.45 0.1,-0.1 -0.05,-0.85 q -0.05,-0.65 0.05,-1.3 1.75,-1.65 4.35,-1.55 l 0.8,-0.55 q 1.4,-0.8 2.85,-0.7 l 1.4,0.25 0.8,0.35 q 2,-0.55 3.9,0.35 l 0.95,1.45 0.7,1.55 0.55,0.4 0.35,0.15 q 1.15,-0.1 2.1,-0.7 l 0.15,-0.15 0.1,-0.4 0.3,-0.45 -0.8,-2.4 q -0.3,-0.95 -1,-1.7 L 40,-18 q -0.45,-0.15 -0.6,-0.6 l -0.35,-0.35 q -0.25,-0.3 -0.25,-0.65 v -0.2 q 0,-0.5 0.3,-0.8 1,-1.1 2.3,-1.8 l 0.15,-0.2 0.1,-0.2 0.15,-0.25 0.1,-0.2 0.1,-0.2 -0.05,-0.2 -0.2,-0.45 q -0.2,-0.3 -0.25,-0.65 l -0.2,-0.65 -0.25,-0.2 -0.3,-0.2 -0.75,-0.35 -0.95,0.05 -0.35,0.2 -0.55,0.45 -0.65,0.4 -0.1,0.25 -0.1,0.2 -0.1,0.2 -0.15,0.25 -0.15,0.2 v 0.65 l 0.1,1.25 0.05,1.55 -0.1,0.2 -0.1,0.2 -0.3,0.4 -0.3,0.25 q -6.75,2.2 -13.05,0 l -0.1,-0.25 -0.05,-0.2 0.05,-0.4 v -0.1 l -0.6,-0.95 -0.15,-0.4 -0.25,-0.2 -0.25,-0.2 -0.4,-0.15 -0.85,-0.1 -1.05,0.1 -0.35,0.2 -0.25,0.1 -1.35,0.35 -0.3,0.2 -0.25,0.25 -0.35,0.4 -0.25,0.4 0.05,0.2 0.3,0.2 0.45,0.6 0.15,0.55 0.3,0.1 q 1.55,0.45 2.75,1.35 l 0.15,0.25 0.1,0.2 0.1,0.2 0.1,0.25 v 0.2 0.2 0.2 0.25 l -0.4,0.55 q -1.15,1.1 -1.5,2.7 l -0.1,0.8 0.35,0.35 0.85,0.65 q 0.95,-0.55 2,-0.75 m -1.65,6.2 q 4.55,0.25 6.65,4.4 l 1.25,2.3 q 1.35,3.65 1.15,7.55 -0.15,3.05 -0.65,6 l -0.35,0.85 q -0.2,2.15 -0.25,4.3 v 0.45 l 0.95,1.3 0.9,0.75 q 1.75,0.15 2.75,-1.15 -0.35,-1.4 -0.2,-2.8 0.05,-0.65 0.45,-1.15 l -0.1,-0.5 0.05,-0.2 0.15,-0.2 0.2,-0.25 0.25,-0.2 4.75,-0.7 0.4,-0.65 0.15,-0.65 0.2,-0.45 -0.05,-0.6 V 12.6 L 39,11.75 38.9,11.6 38.2,11.5 q -3.1,2.9 -4.55,-0.45 L 33.4,9.85 33,9.05 Q 32.65,8.3 32.7,7.5 V 7.3 Q 32.25,6.4 31.95,5.4 31.6,4.1 31.55,2.8 l -0.1,-0.2 -0.1,-0.25 -0.15,-0.2 -0.35,-2 Q 30.4,-1.2 30.7,-2.55 l 0.35,-0.45 0.5,-0.45 0.3,-0.2 q 1.6,-2.15 1.8,-4.75 0.1,-1.3 -0.5,-2.5 l -0.3,-0.9 -0.1,-0.1 -0.55,-0.2 -0.2,-0.15 -1.1,0.25 -0.4,0.15 -0.25,0.2 -0.2,0.2 -0.3,0.2 -0.15,0.45 -0.2,0.45 -0.2,0.4 -0.05,1.3 L 29,-6.3 v 0.2 l -0.15,0.25 -0.25,0.2 -0.1,0.15 H 28.15 28 l -2.4,-0.1 q -0.45,-0.3 -0.75,-0.75 l -1.5,-0.75 -2,-0.05 -0.2,0.2 -0.4,0.4 -0.35,0.25 -0.05,0.2 -0.2,0.45 -0.2,0.4 -0.1,0.25 0.6,-0.15 m 16.8,-5.35 0.05,0.5 0.3,0.05 -0.35,-0.55 m -0.7,4.95 -1.6,3.4 q 3.6,0.1 6.85,1.95 l 1,0.35 q -1.6,-3.5 -4.65,-5.9 l -1.15,-1.1 -0.45,1.3 m -15.2,8.6 q 0.45,0.85 0.15,1.9 -0.6,2.05 -1.9,3.5 2.05,5.5 2.15,11.5 0.1,4.25 1,8.3 l 0.2,-0.3 0.35,-0.85 0.4,-1.05 v -0.9 l 0.15,-1.1 0.5,-1.25 Q 24.2,17.45 25.15,12.25 25.9,8 24.9,4.15 24.85,3.2 24.4,2.4 23.5,0.6 22.05,-0.8 20.15,-1.1 18.9,0.1 20.3,1.05 21.35,3.05 M 7.15,2.15 Q 5.55,2 4.25,2.95 L 3.3,3.6 3.35,3.8 3.3,4.45 3.05,5.3 3,5.5 Q 6.05,6.7 7.75,9.3 L 8.35,11 Q 9.1,16.95 6.15,21.6 L 5.4,22.15 q -1.1,0.5 -2.15,0.95 l -0.15,0.2 -0.15,0.2 -0.2,0.25 -0.15,0.2 v 0.2 0.45 0.45 0.4 l 0.1,0.2 0.35,0.45 0.35,0.35 0.2,0.1 q 2.5,-2.6 5.5,-4.35 0.35,-0.2 0.75,0.15 2.2,2 4.75,3.2 l 0.5,-0.15 0.8,-0.35 0.1,-0.25 0.15,-0.85 -0.05,-1.3 q -4,-1.85 -4,-5.75 V 10.45 L 12,10.2 11.8,9.35 11.9,8.3 12.65,7.5 Q 14.05,6.65 15.7,6.3 L 16.2,5.9 Q 17.15,5.35 17.7,4.35 L 17.9,3.95 17.8,3.75 17.15,3.3 16.8,3.15 q -1,-0.1 -1.85,0.5 L 13.15,5.1 12.8,5.2 10.95,4.95 10.7,4.7 Q 10.3,4.35 10.25,3.85 L 10.1,2.8 9.85,2.6 Q 8.55,2.05 7.15,2.15 m 8.8,8.7 v 1.3 2.35 2.15 0.85 L 18.1,19.05 18.25,16.1 18,15 17.7,13.3 V 12.25 L 17.6,12 17.45,11.35 17.35,10.95 17.2,10.3 15.95,10.85 M -0.45,7.5 -0.55,7.3 -0.6,7.1 -0.65,6.2 -0.7,4.7 -0.55,3.65 -0.4,3.45 -0.25,3.2 -0.1,2.25 -3.55,2.05 -4.25,2.35 Q -5.65,2.7 -6.1,4 l -0.45,0.85 q -0.6,2 -0.85,4.1 l -0.2,4.05 0.05,3.25 0.15,0.2 0.15,0.2 0.3,0.85 q 0.1,0.45 0.05,0.9 v 0.2 l 0.05,0.2 0.15,0.25 0.05,0.2 0.1,0.2 0.05,0.15 0.05,-0.1 0.15,-0.2 0.4,-0.85 0.85,-1.05 2.6,-4.15 L 0.45,9.3 0.7,9 -0.45,7.5"
         fill="#000000"
         fill-rule="evenodd"
         stroke="none"
         id="path1" />
      <path
         d="m -24.85,1.4 q -0.25,2 0.5,3.65 l -4.1,3.05 -2.15,0.05 -1.1,-0.8 q -1.9,-2.7 -4.7,-4.55 l -0.5,-1.35 -0.65,-1.9 0.8,-1.2 q 4.1,-5.25 9.15,-8.95 l -0.2,1.7 q -0.2,1.85 0.8,3.25 1.7,1 3.4,0.05 3.1,-1.7 4.8,-3.65 l -0.3,1.5 -0.05,1.95 -0.35,0.45 -0.15,0.75 q -0.8,0.25 -1.55,0.7 -3.25,1.85 -3.65,5.3 M 19.2,-25.75 v 0.05 l -0.45,0.05 -0.2,0.05 q -1.9,0.5 -3.6,1.55 l -1.25,1.1 -0.15,0.35 -0.05,-0.1 -0.05,-0.2 0.05,-0.2 0.05,-1.05 v -0.45 -0.2 l 0.25,-0.65 0.35,-1.4 q 1.3,-4.75 6.25,-6.1 l 0.2,-0.15 0.25,-0.25 0.5,-0.1 h 0.15 l 0.1,0.1 v 0.45 q 0,1 0.25,1.95 l 0.35,0.65 v 0.85 l 0.1,1.05 0.1,0.45 q 0.25,0.4 0.65,0.55 l 3.7,0.15 q 1.2,-0.6 2.2,-1.45 0.55,-0.45 0.8,-0.2 l -0.95,2.8 -0.2,1.05 -1.5,2.75 -0.15,0.5 -1.45,0.35 -0.05,-0.2 q -1.2,-4.7 -6.25,-4.1 m 2.15,28.8 q -1.05,-2 -2.45,-2.95 1.25,-1.2 3.15,-0.9 1.45,1.4 2.35,3.2 0.45,0.8 0.5,1.75 1,3.85 0.25,8.1 -0.95,5.2 -0.8,10.55 l -0.5,1.25 -0.15,1.1 v 0.9 l -0.4,1.05 -0.35,0.85 -0.2,0.3 q -0.9,-4.05 -1,-8.3 -0.1,-6 -2.15,-11.5 Q 20.9,7 21.5,4.95 21.8,3.9 21.35,3.05 m 15.2,-8.6 0.45,-1.3 1.15,1.1 q 3.05,2.4 4.65,5.9 l -1,-0.35 q -3.25,-1.85 -6.85,-1.95 l 1.6,-3.4 M -0.45,7.5 0.7,9 0.45,9.3 l -2.9,3.95 -2.6,4.15 -0.85,1.05 -0.4,0.85 -0.15,0.2 -0.05,0.1 -0.05,-0.15 -0.1,-0.2 -0.05,-0.2 -0.15,-0.25 -0.05,-0.2 v -0.2 q 0.05,-0.45 -0.05,-0.9 L -7.25,16.65 -7.4,16.45 -7.55,16.25 -7.6,13 -7.4,8.95 q 0.25,-2.1 0.85,-4.1 L -6.1,4 q 0.45,-1.3 1.85,-1.65 l 0.7,-0.3 3.45,0.2 -0.15,0.95 -0.15,0.25 -0.15,0.2 -0.15,1.05 0.05,1.5 0.05,0.9 0.05,0.2 0.1,0.2"
         fill="#ffffff"
         fill-rule="evenodd"
         stroke="none"
         id="path2" />
      <path
         d="m -18.2,-0.65 1.6,0.1 0.4,0.9 q 1.35,4.55 5.2,1.8 1.65,-1.05 2.95,-0.8 -2,1.8 -2.75,4.6 l -3,0.45 q -0.6,0.05 -0.85,0.55 -1.95,4.5 -3.3,9.5 l -0.15,0.2 -0.25,0.65 -0.15,0.65 q -0.9,0.5 -1.15,1.5 v 1.5 l 0.4,0.65 0.9,0.85 0.35,1.05 0.2,0.9 -0.1,0.4 -0.15,0.45 -0.1,0.4 -0.2,0.25 -0.15,0.2 -0.1,0.2 -0.7,0.7 -0.8,0.6 -1.85,-0.05 -0.65,-0.65 -0.75,-0.85 q -0.2,-0.8 0.05,-1.5 l 0.35,-1.3 -0.05,-0.2 -0.15,-0.65 -0.35,-0.65 -5.75,0.2 V 21.8 21.6 21.4 l -0.05,-0.25 q 0.4,-0.55 1.1,-0.6 2.9,-0.3 5.45,-1.05 l 0.15,-0.2 0.1,-0.2 0.1,-0.25 0.1,-0.2 q 0.4,-2.5 1.6,-4.8 Q -17.55,7.7 -21,1.95 L -20.4,1 q 0.9,-1 2.2,-1.65 m 38.65,-4.5 -0.6,0.15 0.1,-0.25 0.2,-0.4 0.2,-0.45 0.05,-0.2 0.35,-0.25 0.4,-0.4 0.2,-0.2 2,0.05 1.5,0.75 q 0.3,0.45 0.75,0.75 l 2.4,0.1 h 0.15 0.35 l 0.1,-0.15 0.25,-0.2 L 29,-6.1 v -0.2 l 0.15,-2.35 0.05,-1.3 0.2,-0.4 0.2,-0.45 0.15,-0.45 0.3,-0.2 0.2,-0.2 0.25,-0.2 0.4,-0.15 1.1,-0.25 0.2,0.15 0.55,0.2 0.1,0.1 0.3,0.9 q 0.6,1.2 0.5,2.5 -0.2,2.6 -1.8,4.75 l -0.3,0.2 -0.5,0.45 -0.35,0.45 q -0.3,1.35 0.15,2.7 l 0.35,2 0.15,0.2 0.1,0.25 0.1,0.2 q 0.05,1.3 0.4,2.6 0.3,1 0.75,1.9 V 7.5 Q 32.65,8.3 33,9.05 l 0.4,0.8 0.25,1.2 q 1.45,3.35 4.55,0.45 l 0.7,0.1 0.1,0.15 0.1,0.85 v 0.65 l 0.05,0.6 -0.2,0.45 -0.15,0.65 -0.4,0.65 -4.75,0.7 -0.25,0.2 -0.2,0.25 -0.15,0.2 -0.05,0.2 0.1,0.5 q -0.4,0.5 -0.45,1.15 -0.15,1.4 0.2,2.8 -1,1.3 -2.75,1.15 L 29.2,22 28.25,20.7 v -0.45 q 0.05,-2.15 0.25,-4.3 l 0.35,-0.85 q 0.5,-2.95 0.65,-6 0.2,-3.9 -1.15,-7.55 L 27.1,-0.75 Q 25,-4.9 20.45,-5.15 m 1.65,-6.2 q -1.05,0.2 -2,0.75 l -0.85,-0.65 -0.35,-0.35 0.1,-0.8 q 0.35,-1.6 1.5,-2.7 l 0.4,-0.55 v -0.25 -0.2 -0.2 -0.2 l -0.1,-0.25 -0.1,-0.2 -0.1,-0.2 -0.15,-0.25 q -1.2,-0.9 -2.75,-1.35 l -0.3,-0.1 -0.15,-0.55 -0.45,-0.6 -0.3,-0.2 -0.05,-0.2 0.25,-0.4 0.35,-0.4 0.25,-0.25 0.3,-0.2 1.35,-0.35 0.25,-0.1 0.35,-0.2 1.05,-0.1 0.85,0.1 0.4,0.15 0.25,0.2 0.25,0.2 0.15,0.4 0.6,0.95 v 0.1 l -0.05,0.4 0.05,0.2 0.1,0.25 q 6.3,2.2 13.05,0 l 0.3,-0.25 0.3,-0.4 0.1,-0.2 0.1,-0.2 -0.05,-1.55 -0.1,-1.25 v -0.65 l 0.15,-0.2 0.15,-0.25 0.1,-0.2 0.1,-0.2 0.1,-0.25 0.65,-0.4 0.55,-0.45 0.35,-0.2 0.95,-0.05 0.75,0.35 0.3,0.2 0.25,0.2 0.2,0.65 q 0.05,0.35 0.25,0.65 l 0.2,0.45 0.05,0.2 -0.1,0.2 -0.1,0.2 -0.15,0.25 -0.1,0.2 -0.15,0.2 q -1.3,0.7 -2.3,1.8 -0.3,0.3 -0.3,0.8 v 0.2 q 0,0.35 0.25,0.65 l 0.35,0.35 q 0.15,0.45 0.6,0.6 l 1.9,0.75 q 0.7,0.75 1,1.7 l 0.8,2.4 -0.3,0.45 -0.1,0.4 -0.15,0.15 q -0.95,0.6 -2.1,0.7 L 40.7,-11.6 40.15,-12 39.45,-13.55 38.5,-15 q -1.9,-0.9 -3.9,-0.35 l -0.8,-0.35 -1.4,-0.25 q -1.45,-0.1 -2.85,0.7 l -0.8,0.55 q -2.6,-0.1 -4.35,1.55 -0.1,0.65 -0.05,1.3 l 0.05,0.85 -0.1,0.1 -2.2,-0.45 M 7.15,2.15 q 1.4,-0.1 2.7,0.45 l 0.25,0.2 0.15,1.05 q 0.05,0.5 0.45,0.85 l 0.25,0.25 1.85,0.25 0.35,-0.1 1.8,-1.45 q 0.85,-0.6 1.85,-0.5 l 0.35,0.15 0.65,0.45 0.1,0.2 -0.2,0.4 q -0.55,1 -1.5,1.55 l -0.5,0.4 q -1.65,0.35 -3.05,1.2 l -0.75,0.8 -0.1,1.05 0.2,0.85 0.1,0.25 v 6.45 q 0,3.9 4,5.75 l 0.05,1.3 -0.15,0.85 -0.1,0.25 -0.8,0.35 -0.5,0.15 Q 12.05,24.35 9.85,22.35 9.45,22 9.1,22.2 6.1,23.95 3.6,26.55 L 3.4,26.45 3.05,26.1 2.7,25.65 2.6,25.45 v -0.4 -0.45 -0.45 -0.2 L 2.75,23.75 2.95,23.5 3.1,23.3 3.25,23.1 Q 4.3,22.65 5.4,22.15 L 6.15,21.6 Q 9.1,16.95 8.35,11 L 7.75,9.3 Q 6.05,6.7 3,5.5 L 3.05,5.3 3.3,4.45 3.35,3.8 3.3,3.6 4.25,2.95 Q 5.55,2 7.15,2.15"
         fill="#bdbdbd"
         fill-rule="evenodd"
         stroke="none"
         id="path3" />
    </g>
    <g
       id="sprite1"
       transform="translate(17.4,15.85)">
      <use
         ffdec:characterId="31"
         height="57.200001"
         transform="matrix(0.5366,0,0,0.5366,-16.6582,-14.546)"
         width="70.75"
         xlink:href="#sprite2"
         id="use3" />
    </g>
    <g
       id="sprite2"
       transform="translate(-8.65,-10.35)">
      <use
         ffdec:characterId="30"
         height="57.200001"
         transform="translate(8.65,10.35)"
         width="70.75"
         xlink:href="#shape1"
         id="use4" />
    </g>
    <g
       id="shape1"
       transform="translate(-8.65,-10.35)">
      <path
         d="m 14.8,41.7 q 0.65,-1.75 2.65,-2.5 1.8,-0.8 3.7,-0.25 1.15,0.45 2.25,1.2 l 0.9,0.4 q 1.65,0.9 2.85,2.5 L 37.8,30.1 q 2.35,-2.8 3.75,-3.95 1.5,-1.15 4.25,-2.4 18.2,-8.85 27.65,-12.6 2.15,-0.8 3.25,-0.8 h 0.8 l 1.9,2.4 -0.2,0.8 q -0.2,1.1 -1.55,3 -5.85,8.25 -18.85,23.8 -1.85,2.35 -3.35,3.5 -1.4,1.15 -4.75,2.75 l -15.15,7.15 q 1.2,1.6 1.75,3.4 l 0.2,1 0.55,2.5 q 0.1,1.95 -1.1,3.55 -1.2,1.65 -3.05,1.9 l -1.3,0.05 q -1.65,0.2 -3.45,-0.65 -1.85,-0.9 -3,-2.6 L 25,60.95 23.8,62.1 q -2.6,2.85 -4.3,3.95 -2.85,1.8 -5.5,1.45 l -1.65,-0.5 -1.2,-0.7 -0.2,-0.2 q -1,-0.85 -1.6,-1.9 L 9.25,64 9.15,63.8 8.75,62.4 q -0.2,-0.8 -0.05,-1.7 0.25,-2.65 2.7,-5.05 1.5,-1.3 4.9,-3.15 L 17.7,51.55 16.05,50 q -1.35,-1.5 -1.8,-3.6 -0.4,-1.85 0.25,-3.45 l 0.3,-1.25"
         fill="#000000"
         fill-opacity="0.372549"
         fill-rule="evenodd"
         stroke="none"
         id="path4" />
    </g>
  </defs>
</svg>
