<?xml version="1.0" encoding="UTF-8" standalone="no"?>
<svg
   ffdec:objectType="frame"
   height="79.333138"
   width="79.323708"
   version="1.1"
   id="svg7"
   xmlns:xlink="http://www.w3.org/1999/xlink"
   xmlns="http://www.w3.org/2000/svg"
   xmlns:svg="http://www.w3.org/2000/svg"
   xmlns:ffdec="https://www.free-decompiler.com/flash">
  <g
     transform="translate(39.661459,39.353749)"
     id="g1">
    <use
       ffdec:characterId="17"
       height="119.15"
       id="rarity"
       transform="translate(-58.5,-60.65)"
       width="119.15"
       xlink:href="#sprite0" />
    <use
       ffdec:characterId="68"
       height="98.199997"
       transform="matrix(0.7071,-0.7071,0.7071,0.7071,-44.65,-23.2)"
       width="29.9"
       xlink:href="#sprite1"
       id="use1" />
  </g>
  <defs
     id="defs7">
    <g
       id="sprite1">
      <use
         ffdec:characterId="67"
         height="98.199997"
         width="29.9"
         xlink:href="#shape0"
         id="use2" />
    </g>
    <g
       id="shape0">
      <path
         d="m 25.25,49.45 q 3.8,2.25 4.5,5.9 0.45,2.25 -0.65,4.4 -1.05,2.2 -3.1,3.2 0.55,6.2 0.75,20.65 0.05,4.7 -0.45,6.95 -0.6,2.65 -2,4.35 -2.65,3.2 -10.45,3.3 Q 8.25,98.1 5.6,94.9 4.2,93.2 3.6,90.55 3.1,88.3 3.15,83.6 3.35,69.15 3.9,62.95 1.85,61.95 0.8,59.75 -0.3,57.6 0.15,55.35 0.85,51.7 4.65,49.45 6.3,48.45 8.3,48 L 8.4,20.45 6.25,20.35 Q 5.05,20.25 4.4,19.7 3,18.6 3.3,15.2 l 1,-9.65 Q 4.6,2.1 6.1,1 7.1,0.3 9.25,0.2 l 4,-0.15 V 0 h 1.3 0.85 1.25 v 0.05 l 4,0.15 q 2.15,0.1 3.15,0.8 1.5,1.1 1.8,4.55 l 1,9.65 q 0.3,3.4 -1.1,4.5 -0.65,0.55 -1.85,0.65 L 21.5,20.45 21.6,48 q 2,0.45 3.65,1.45 M 19.8,7.4 19.65,6.35 h -0.2 -3.3 -5.9 L 9.1,14.3 q 1.85,0.05 3,0.55 1.1,0.4 1.55,1.25 v 0.05 q 0.4,0.75 0.25,3 l -0.1,1.95 v 1.35 l 0.1,3.6 0.05,1.15 -0.1,8.45 -0.65,11.85 1.75,0.1 1.75,-0.1 Q 16.1,38.95 16,32.55 V 27.5 26.05 l 0.1,-3.5 V 21.1 L 16,19.15 q -0.15,-2.25 0.25,-3.05 0.9,-1.7 4.55,-1.8 l -1,-6.9 M 8.5,76.05 8.25,83.4 l 0.1,2.5 q 0.2,1.3 1.15,3.15 0.65,1.2 1.2,1.6 0.7,0.5 2.1,0.8 l 1.25,0.15 3.05,-0.15 q 1.4,-0.3 2.1,-0.8 l 1.2,-1.6 q 0.95,-1.85 1.15,-3.15 l 0.1,-2.5 -0.35,-10.9 q -0.2,-6.05 -1,-9 -0.7,-2.55 -0.25,-3.6 0.5,-1.05 2.75,-2.1 l 1.15,-0.9 q 0.2,-0.8 -0.7,-1.6 Q 21.9,54.1 18.8,53.9 L 17.9,53.85 H 16.5 L 15.1,53.9 H 14.95 14.8 L 13.75,53.85 H 12 q -2.6,0.05 -4.1,0.7 -0.75,0.3 -1.25,0.75 -0.9,0.8 -0.7,1.6 0.15,0.45 1.15,0.9 2.25,1.05 2.75,2.1 0.45,1.05 -0.25,3.6 L 9.25,65.25 8.95,67.2 8.7,70.4 v 0.55 L 8.65,71.4 8.6,72.5 8.5,76.05 m 10.05,-11.4 q 0.5,0.25 0.75,1.35 1.2,6.1 1.1,14.15 l -0.4,5.8 q -0.1,0.95 -0.4,1.4 -0.5,0.95 -1.65,0.85 -1.1,-0.1 -1.5,-1.05 l -0.2,-1.45 0.05,-8.7 0.1,-3.25 0.15,-1.9 -0.1,-1.5 v -0.5 q 0,-1.35 0.4,-3.55 l 0.4,-1.2 q 0.5,-0.7 1.1,-0.55 l 0.2,0.1 m -4.4,9.15 -0.05,1.5 -0.05,4.8 q 0,3.5 0.25,4.85 l 0.4,2.45 q 0,1.5 -0.8,2.25 -0.65,0.65 -1.65,0.6 -1,-0.1 -1.55,-0.8 -0.45,-0.55 -0.65,-2 -0.55,-3.5 -0.4,-6.1 l 0.3,-4.85 0.15,-2.2 0.05,-1.05 0.2,-1.9 V 71.1 l 0.1,-1.1 0.3,-2.6 0.05,-0.1 0.8,-4 0.6,-1.5 q 0.5,-0.8 1.3,-0.85 0.65,-0.05 1.15,0.5 l 0.1,0.15 0.45,1.1 -0.05,1.4 -0.25,1.35 q -0.3,1.05 -0.45,3.2 L 14.4,69 l -0.15,2.2 -0.1,2.6"
         fill="#000000"
         fill-rule="evenodd"
         stroke="none"
         id="path2" />
      <path
         d="m 19.45,6.35 0.1,0.2 0.25,0.85 1,6.9 q -3.65,0.1 -4.55,1.8 -0.4,0.8 -0.25,3.05 l 0.1,1.95 -1.1,-0.25 -1.2,0.25 0.1,-1.95 q 0.15,-2.25 -0.25,-3 L 14,15.65 Q 15.3,14 15.45,11.6 L 15.5,10 15.75,8.8 16.15,6.35 h 3.3 m -5.6,29.3 0.1,-0.35 0.65,-0.7 1.4,-2.05 q 0.1,6.4 0.7,14.95 l -1.75,0.1 -1.75,-0.1 0.65,-11.85"
         fill="#a8a8a8"
         fill-rule="evenodd"
         stroke="none"
         id="path3" />
      <path
         d="M 16.15,6.35 15.75,8.8 15.5,10 15.45,11.6 Q 15.3,14 14,15.65 l -0.35,0.5 V 16.1 Q 13.2,15.25 12.1,14.85 10.95,14.35 9.1,14.3 l 1.15,-7.95 h 5.9 M 13.8,21.1 15,20.85 16.1,21.1 v 1.45 l -0.1,3.5 v 1.45 5.05 l -1.4,2.05 -0.65,0.7 -0.1,0.35 0.1,-8.45 -0.05,-1.15 -0.1,-3.6 V 21.1"
         fill="#c4c4c4"
         fill-rule="evenodd"
         stroke="none"
         id="path4" />
      <path
         d="m 18.8,53.9 q 3.1,0.2 4.45,1.4 0.9,0.8 0.7,1.6 l -1.15,0.9 q -2.25,1.05 -2.75,2.1 -0.45,1.05 0.25,3.6 0.8,2.95 1,9 l 0.35,10.9 -0.1,2.5 q -0.2,1.3 -1.15,3.15 l -1.2,1.6 q -0.7,0.5 -2.1,0.8 L 14.05,91.6 12.8,91.45 q -1.4,-0.3 -2.1,-0.8 -0.55,-0.4 -1.2,-1.6 Q 8.55,87.2 8.35,85.9 l -0.1,-2.5 0.25,-7.35 0.95,0.35 0.5,0.1 -0.3,4.85 q -0.15,2.6 0.4,6.1 0.2,1.45 0.65,2 0.55,0.7 1.55,0.8 1,0.05 1.65,-0.6 0.8,-0.75 0.8,-2.25 L 14.3,84.95 Q 14.05,83.6 14.05,80.1 l 0.05,-4.8 0.05,-1.5 2.3,-3.95 v 0.5 l 0.1,1.5 -0.15,1.9 -0.1,3.25 -0.05,8.7 0.2,1.45 q 0.4,0.95 1.5,1.05 1.15,0.1 1.65,-0.85 0.3,-0.45 0.4,-1.4 l 0.4,-5.8 Q 20.5,72.1 19.3,66 q -0.25,-1.1 -0.75,-1.35 0.85,-2.8 1.1,-5.55 l 0.05,-2 q 0.1,-1.6 -0.8,-3.05 L 18.8,53.9"
         fill="#6b5a5a"
         fill-rule="evenodd"
         stroke="none"
         id="path5" />
      <path
         d="m 18.8,53.9 0.1,0.15 q 0.9,1.45 0.8,3.05 l -0.05,2 q -0.25,2.75 -1.1,5.55 l -0.2,-0.1 q -0.6,-0.15 -1.1,0.55 l -0.4,1.2 q -0.4,2.2 -0.4,3.55 l -2.3,3.95 0.1,-2.6 0.15,-2.2 0.05,-0.35 q 0.15,-2.15 0.45,-3.2 l 0.25,-1.35 0.05,-1.4 -0.45,-1.1 -0.1,-0.15 Q 14.15,60.9 13.5,60.95 12.7,61 12.2,61.8 l -0.6,1.5 -0.8,4 -0.05,0.1 -0.3,2.6 -0.1,1.1 v 0.25 l -0.2,1.9 L 10.1,74.3 9.95,76.5 9.45,76.4 8.5,76.05 8.6,72.5 8.65,71.4 8.7,70.95 V 70.4 L 8.95,67.2 9.25,65.25 9.6,63.5 Q 10.3,60.95 9.85,59.9 9.35,58.85 7.1,57.8 6.1,57.35 5.95,56.9 5.75,56.1 6.65,55.3 7.15,54.85 7.9,54.55 9.4,53.9 12,53.85 h 1.75 l 1.05,0.05 h 0.15 0.15 l 1.4,-0.05 h 1.4 l 0.9,0.05"
         fill="#837070"
         fill-rule="evenodd"
         stroke="none"
         id="path6" />
    </g>
    <g
       id="sprite2"
       transform="translate(17.4,15.85)">
      <use
         ffdec:characterId="31"
         height="57.200001"
         transform="matrix(0.5366,0,0,0.5366,-16.6582,-14.546)"
         width="70.75"
         xlink:href="#sprite3"
         id="use6" />
    </g>
    <g
       id="sprite3"
       transform="translate(-8.65,-10.35)">
      <use
         ffdec:characterId="30"
         height="57.200001"
         transform="translate(8.65,10.35)"
         width="70.75"
         xlink:href="#shape1"
         id="use7" />
    </g>
    <g
       id="shape1"
       transform="translate(-8.65,-10.35)">
      <path
         d="m 14.8,41.7 q 0.65,-1.75 2.65,-2.5 1.8,-0.8 3.7,-0.25 1.15,0.45 2.25,1.2 l 0.9,0.4 q 1.65,0.9 2.85,2.5 L 37.8,30.1 q 2.35,-2.8 3.75,-3.95 1.5,-1.15 4.25,-2.4 18.2,-8.85 27.65,-12.6 2.15,-0.8 3.25,-0.8 h 0.8 l 1.9,2.4 -0.2,0.8 q -0.2,1.1 -1.55,3 -5.85,8.25 -18.85,23.8 -1.85,2.35 -3.35,3.5 -1.4,1.15 -4.75,2.75 l -15.15,7.15 q 1.2,1.6 1.75,3.4 l 0.2,1 0.55,2.5 q 0.1,1.95 -1.1,3.55 -1.2,1.65 -3.05,1.9 l -1.3,0.05 q -1.65,0.2 -3.45,-0.65 -1.85,-0.9 -3,-2.6 L 25,60.95 23.8,62.1 q -2.6,2.85 -4.3,3.95 -2.85,1.8 -5.5,1.45 l -1.65,-0.5 -1.2,-0.7 -0.2,-0.2 q -1,-0.85 -1.6,-1.9 L 9.25,64 9.15,63.8 8.75,62.4 q -0.2,-0.8 -0.05,-1.7 0.25,-2.65 2.7,-5.05 1.5,-1.3 4.9,-3.15 L 17.7,51.55 16.05,50 q -1.35,-1.5 -1.8,-3.6 -0.4,-1.85 0.25,-3.45 l 0.3,-1.25"
         fill="#000000"
         fill-opacity="0.372549"
         fill-rule="evenodd"
         stroke="none"
         id="path7" />
    </g>
  </defs>
</svg>
