<?xml version="1.0" encoding="UTF-8" standalone="no"?>
<svg
   ffdec:objectType="frame"
   height="79.252174"
   width="76.715385"
   version="1.1"
   id="svg5"
   sodipodi:docname="ITEM Mage's Scarf.svg"
   xmlns:inkscape="http://www.inkscape.org/namespaces/inkscape"
   xmlns:sodipodi="http://sodipodi.sourceforge.net/DTD/sodipodi-0.dtd"
   xmlns:xlink="http://www.w3.org/1999/xlink"
   xmlns="http://www.w3.org/2000/svg"
   xmlns:svg="http://www.w3.org/2000/svg"
   xmlns:ffdec="https://www.free-decompiler.com/flash">
  <sodipodi:namedview
     id="namedview5"
     pagecolor="#ffffff"
     bordercolor="#000000"
     borderopacity="0.25"
     inkscape:showpageshadow="2"
     inkscape:pageopacity="0.0"
     inkscape:pagecheckerboard="0"
     inkscape:deskcolor="#d1d1d1"
     fit-margin-top="5"
     fit-margin-left="5"
     fit-margin-right="5"
     fit-margin-bottom="5" />
  <g
     transform="translate(39.465385,35.802174)"
     id="g1">
    <use
       ffdec:characterId="17"
       height="119.15"
       id="rarity"
       transform="translate(-58.5,-60.65)"
       width="119.15"
       xlink:href="#sprite0" />
    <use
       ffdec:characterId="814"
       height="79.25"
       transform="translate(-39.45,-35.8)"
       width="76.699997"
       xlink:href="#shape0"
       id="use1" />
  </g>
  <defs
     id="defs5">
    <g
       id="shape0"
       transform="translate(40,36.55)">
      <path
         d="m -15.85,-28.15 h -0.05 q -3.65,1.55 -6.6,3.3 -4.35,2.45 -7.25,5.3 -2.6,2.4 -3.55,4.75 l -0.2,0.55 -0.4,2.05 -0.15,1.15 v 0.1 l -0.05,0.4 v 0.05 l -0.1,1.3 -0.1,2.05 -0.05,3.3 q 0,1.8 0.45,2.6 0.4,0.8 1.55,1.65 6.1,4.85 16.25,9.35 l 2.35,0.95 1.35,0.4 0.55,0.1 1.55,0.25 0.2,-1.2 0.1,-0.6 0.5,-3.5 0.3,-2.9 L -9,0.9 V 0.25 q 0.15,-3.3 0.15,-6.65 l 0.05,-1.15 -3.2,0.3 -2.75,-0.2 -2.45,-0.6 -0.95,-0.1 q -1.9,-0.25 -4.75,-1.65 -3,-1.5 -4.1,-2.9 l -0.95,-1.55 -0.5,-1.5 0.25,-1.4 0.65,-1.8 q 0.45,-1.2 1.15,-1.7 l 0.9,-0.2 q 0.8,0.3 0.4,1.45 l -0.3,0.75 v 1.1 q 0.3,1.25 1.45,2.3 l 0.05,0.05 q 4.05,1.65 8.25,2.35 l 3,0.25 3.8,-0.5 0.3,-0.05 0.95,-0.7 0.75,-1.4 q 1.55,-1.75 4.5,-3.9 l 3.3,-2.15 q 2.45,-1.4 5.7,-2.45 l -4,-1 -0.25,-0.05 -5.45,-0.3 -3.5,0.4 -1.15,0.25 -1.2,0.35 -0.35,0.1 -2.75,0.85 -0.95,0.3 -2.6,0.85 -1.3,0.25 q -0.8,0 -1.05,-0.7 v -0.35 l 0.05,-0.25 0.6,-0.9 1.5,-1.15 q 2.15,-1.55 5.3,-2.8 2.85,-1.2 5.6,-1.75 7.65,-1.55 16.3,1.9 4.1,1.7 6.3,3.95 l 1.3,1.55 q 1.15,1.7 1.4,3.65 v 1.5 l -0.1,0.75 q -0.25,1.5 -1.15,2.85 l -0.2,0.3 q -1.05,1.4 -2.6,2.4 -1.95,1.2 -4.45,1.65 l 2,3.15 q 1.15,2.15 1.95,4.6 1.25,3.65 1.8,8.05 l 0.35,3.7 Q 22.85,8.3 26.3,3.3 L 27.45,1.45 29,-1.6 q 3.4,-7.25 2.1,-12.7 l -0.55,-1.9 -0.6,-1.5 -0.65,-1.45 q -1.1,-2.35 -2,-3.5 l -0.4,-0.45 q -1.05,-1 -3.15,-2 -6.25,-3 -11.7,-4.2 l -4,-0.7 -9.6,-1 q -5.25,-0.1 -9.45,1.05 l -4.85,1.8 m 34.15,48.2 q 0,8.95 -1,13.7 -0.25,1.6 -0.9,2.6 -0.9,1.4 -2.2,1.55 -1.8,0.2 -3.65,-2.4 -0.6,3.05 -1.8,4.15 -1.05,0.95 -3.6,1.35 -9,1.55 -19.6,1.7 -2.65,0 -3.5,-1.05 -0.65,-0.8 -0.5,-2.15 l 0.7,-2.35 2.1,-5.95 2.85,-9.45 1.3,-4.8 -0.25,-0.05 q -2.2,-0.3 -5.6,-1.6 -8.8,-3.5 -16.5,-8.8 -4.65,-3.25 -5.7,-6.35 -0.55,-1.65 -0.45,-4.7 l 0.2,-5.65 q 0.3,-4.7 1.3,-7.05 1.35,-3.3 5.7,-7.1 3.4,-2.95 6.3,-4.7 2.65,-1.7 7.35,-3.7 4.3,-1.95 7.25,-2.75 4.2,-1.1 9.45,-1.05 l 9.6,0.75 7.8,1.35 q 2.6,0.75 5.65,2.05 l 5.9,2.7 q 2.8,1.5 3.95,2.55 2.2,2.05 4.2,7.3 1.85,4.45 2.05,7.15 l -0.35,4.5 q -0.6,3.4 -1.15,5.05 -1.15,3.85 -3.8,7.95 -2.7,4.25 -5.7,6.7 -3.5,2.9 -7.45,3.55 l 0.05,5 M 6.4,-6.95 4.5,-8.15 Q 3.1,-8.8 1.25,-8.95 l -6.7,0.4 -0.15,0.05 q 1.2,6.55 0.85,13.9 L -4.8,6.8 -5.05,9.3 -5.4,12.45 -5.75,14.5 -6.1,16.6 q -1.65,8.5 -5.45,20.3 h 0.85 l 6.65,-0.5 7.7,-1 L 4.6,35.1 5.15,33.85 5.9,30.55 6.25,29.3 Q 6.85,27.4 7.7,26.8 8,26.55 8.4,26.45 l 1.3,-0.1 0.6,0.1 q 1.05,0.3 2.35,1.4 0.45,-9.65 0.2,-14.45 -0.4,-8 -2.55,-14 L 10.25,-0.8 8.7,-4.15 8.55,-4.35 8.2,-4.9 7.25,-6.1 6.4,-6.95 m -4.7,-7.65 3.7,0.7 1.95,-0.1 0.7,-0.15 1.95,-0.1 q 1.5,-0.05 2.85,-0.75 1.5,-0.65 1.95,-1.7 0.45,-1.25 -0.45,-2.6 -0.6,-0.9 -2.05,-1.8 l -1.2,-0.75 -0.55,0.25 q -4.6,1.9 -6.35,3 -1.95,1.25 -4.1,3.1 l -0.8,0.8 2.4,0.1"
         fill="#000000"
         fill-rule="evenodd"
         stroke="none"
         id="path1" />
      <path
         d="m -22.5,-24.85 q 2.95,-1.75 6.6,-3.3 h 0.05 v 0.05 l 0.05,1 -0.1,1 0.15,1 -1.5,1.15 -0.6,0.9 -0.05,0.25 -0.25,-0.05 -0.6,-0.25 -2.2,-0.9 q -1.05,-0.45 -1.55,-0.85 m 49.8,2.2 q 0.9,1.15 2,3.5 l 0.65,1.45 -0.2,0.05 -1.6,-0.25 q -1.2,-0.4 -1.7,-0.75 -0.9,-0.8 -0.6,-1.65 l 0.55,-1 0.8,-1.25 0.1,-0.1 M 27.45,1.45 26.3,3.3 Q 25.6,3.4 24.55,2.7 L 23.55,2.05 23.35,2 23,2.25 Q 22.35,3.3 21.7,3.55 L 20.45,3.5 Q 19.75,3.15 19.6,2.5 19.45,1.9 19.7,1.15 l 0.6,-1.3 0.15,-0.5 L 20,-1.45 19.3,-2 19.05,-2.3 q -0.25,-0.45 -0.2,-0.95 0.05,-0.8 0.6,-1.2 Q 20.1,-5 21.7,-4.9 l 1.05,-2.7 q 0.65,-1.6 1.4,-1.95 0.65,-0.3 1.35,0 l 0.65,0.4 0.25,0.5 0.15,1.2 q 0,0.8 0.15,1.15 l 1.25,-0.35 q 0.9,-0.2 1.5,0.5 0.55,0.75 0.25,1.6 -0.25,0.85 -1.4,1.2 l -0.9,0.65 -0.1,0.65 0.15,2.75 V 1.45 M 19,-13.2 l 0.2,-0.3 q 0.9,-1.35 1.15,-2.85 l 0.1,-0.75 v -1.5 q -0.25,-1.95 -1.4,-3.65 l 1.7,0.05 1.15,0.3 0.75,0.9 q 0.1,0.45 -0.2,1.25 l -0.45,1.35 -0.2,0.6 0.15,0.15 1.05,1.15 q 0.6,0.6 0.8,1.2 0.25,0.9 -0.15,1.4 -0.4,0.55 -1.85,0.65 l -2.25,0.05 H 19 m -22.05,-11.9 -0.1,0.7 -0.3,1.3 -0.3,1.05 -0.2,0.35 q -0.5,0.65 -1.4,0.7 l -0.75,-0.05 q -0.45,-0.15 -0.8,-0.45 l -0.9,-1.2 -1.8,2.65 -0.6,0.65 q -0.6,0.45 -1.35,0.35 -0.75,-0.15 -1.1,-0.65 -0.45,-0.45 -0.35,-1.2 l 0.1,-0.6 -0.05,-1.35 0.95,-0.3 2.75,-0.85 0.35,-0.1 1.2,-0.35 1.15,-0.25 3.5,-0.4 m -30.25,10.3 1.1,0.6 1.05,1.35 0.8,1.2 0.4,0.75 0.05,0.7 -0.1,0.85 q -0.25,0.75 -1.35,0.95 l -0.9,0.4 -0.5,0.15 -0.95,0.45 -0.6,0.25 0.1,-2.05 0.1,-1.3 v -0.05 l 0.05,-0.4 v -0.1 l 0.15,-1.15 0.4,-2.05 0.2,-0.55 m 4.6,10.6 0.55,-0.75 q 0.6,-0.45 1.95,-0.45 0.25,-0.55 0.55,-1.85 0.3,-1.15 1,-1.6 1,-0.6 1.95,0.2 l 0.6,0.95 0.65,1.65 q 1.45,0 2,0.5 0.6,0.55 0.45,1.4 -0.15,0.8 -1,1.2 l -0.65,0.6 0.15,0.6 0.05,0.85 0.2,0.9 0.1,0.45 q 0.1,0.95 -0.3,1.55 -0.5,0.75 -1.35,0.75 L -23.2,2.2 -24.4,1.4 -24.75,1.3 -25.1,1.55 q -0.55,0.65 -1.4,0.55 -0.85,-0.15 -1.15,-0.9 -0.35,-0.7 0.15,-2 l 0.15,-0.6 -0.7,-0.75 q -0.7,-0.6 -0.7,-1.4 l 0.05,-0.65 m 19.5,7.45 -0.3,2.9 -0.5,3.5 -0.1,0.6 -0.2,1.2 -1.55,-0.25 -0.55,-0.1 -0.45,-0.25 -2.05,-1.2 -1,-0.45 q -1.15,-0.65 -1.45,-1.6 l -0.05,-1.1 0.55,-0.9 q 0.5,-0.35 1.7,-0.45 l 1.65,-0.1 0.45,-0.15 0.15,-0.4 0.65,-1.95 0.4,-0.85 0.55,-0.5 1.15,-0.1 q 0.55,0.25 0.85,1.5 l 0.1,0.65 M -3.55,6.2 -2.1,5.95 q 0.7,0.15 1.25,0.8 0.6,0.75 0.45,1.6 -0.2,1 -1.3,1.75 l -1.6,1 -0.2,0.1 0.15,0.3 0.7,1.35 q 0.45,0.95 0.5,1.75 0.1,1.1 -0.6,1.7 -0.4,0.4 -1.1,0.5 h -0.3 L -5.7,16.65 -6.1,16.6 -5.75,14.5 -5.4,12.45 -5.05,9.3 -4.8,6.8 -4,6.35 -3.55,6.2 m -2.25,23.55 0.75,0.6 q 0.45,0.45 0.55,1.05 v 0.1 0.5 l 0.1,0.7 -0.05,1.4 0.35,1.75 0.05,0.55 -6.65,0.5 v -0.05 l 0.1,-0.95 0.8,-2.25 0.95,-2.35 0.35,-0.75 Q -8.1,30 -7.45,29.7 l 1.3,-0.1 0.35,0.15 M 8.4,26.45 Q 7.6,26.25 6.7,25.5 6.5,25.7 5.85,26.85 L 4.8,28 3.05,27.85 Q 2.2,27.25 2.2,26.3 l 0.2,-1.05 0.5,-1.9 Q 1.8,23.6 1.1,22.7 0.45,21.8 0.9,20.75 q 0.4,-1 1.55,-1.1 l 0.95,-0.2 q 0.3,-0.2 0.4,-0.75 v -0.9 q 0.05,-0.6 0.65,-1.6 l 0.7,-0.8 0.8,-0.25 q 0.45,0.05 0.8,0.35 l 0.55,0.9 0.8,1.75 1.1,-0.6 q 0.95,-0.35 1.75,0.2 0.85,0.6 0.75,1.55 -0.05,1.1 -1.45,1.95 l -0.5,0.6 0.05,0.45 0.55,1.5 0.25,1.4 -0.65,0.95 -0.25,0.2 -1.3,0.1 M 10.25,-0.8 10,-0.75 8.85,-0.9 7.85,-1.4 H 7.8 L 7.6,-0.4 7.55,0.4 7.2,1.95 6.8,3 Q 6.3,3.5 5.85,3.5 4.9,3.6 4.4,2.5 4.15,1.9 4.15,0.6 L 4.2,0 4.1,0.05 2.55,0.95 1.7,1.6 0.45,1.8 q -0.7,-0.1 -1.15,-0.55 -0.45,-0.5 -0.5,-1.2 0,-0.7 0.4,-1.2 L 0.05,-1.85 0.65,-2.5 2.5,-3.9 2,-4.25 Q 1.1,-5.05 1.45,-6.2 1.85,-7.35 3,-7.6 4.1,-7.85 5,-7.1 l 0.55,0.5 0.2,0.15 0.65,-0.5 0.85,0.85 0.95,1.2 0.35,0.55 0.15,0.2 1.55,3.35"
         fill="#ffffff"
         fill-rule="evenodd"
         stroke="none"
         id="path2" />
      <path
         d="m -18.15,-22.85 0.25,0.05 v 0.35 q 0.25,0.7 1.05,0.7 l 1.3,-0.25 2.6,-0.85 0.05,1.35 -0.1,0.6 q -0.1,0.75 0.35,1.2 0.35,0.5 1.1,0.65 0.75,0.1 1.35,-0.35 l 0.6,-0.65 1.8,-2.65 0.9,1.2 q 0.35,0.3 0.8,0.45 l 0.75,0.05 q 0.9,-0.05 1.4,-0.7 l 0.2,-0.35 0.3,-1.05 0.3,-1.3 0.1,-0.7 5.45,0.3 0.25,0.05 4,1 q -3.25,1.05 -5.7,2.45 l -3.3,2.15 q -2.95,2.15 -4.5,3.9 l -0.75,1.4 -0.95,0.7 -0.3,0.05 -3.8,0.5 -3,-0.25 q -4.2,-0.7 -8.25,-2.35 l -0.25,-0.7 q -0.35,-1.4 0.75,-2.95 l 2.35,-2.05 2.9,-1.95 m 48.7,6.65 0.55,1.9 Q 32.4,-8.85 29,-1.6 L 27.45,1.45 V 0.7 l -0.15,-2.75 0.1,-0.65 0.9,-0.65 q 1.15,-0.35 1.4,-1.2 0.3,-0.85 -0.25,-1.6 -0.6,-0.7 -1.5,-0.5 L 26.7,-6.3 Q 26.55,-6.65 26.55,-7.45 L 26.4,-8.65 26.15,-9.15 28,-13.3 q 0.6,-1.85 1.35,-2.45 0.5,-0.4 1.2,-0.45 M 26.3,3.3 q -3.45,5 -8.25,7.05 L 17.7,6.65 Q 17.15,2.25 15.9,-1.4 l 0.5,-0.1 2.65,-0.8 0.25,0.3 0.7,0.55 0.45,0.8 -0.15,0.5 -0.6,1.3 q -0.25,0.75 -0.1,1.35 0.15,0.65 0.85,1 L 21.7,3.55 Q 22.35,3.3 23,2.25 L 23.35,2 l 0.2,0.05 1,0.65 Q 25.6,3.4 26.3,3.3 M -32.25,-8 q 0.65,1.2 2.45,2.85 l 1.1,0.95 -0.05,0.65 q 0,0.8 0.7,1.4 l 0.7,0.75 -0.15,0.6 q -0.5,1.3 -0.15,2 0.3,0.75 1.15,0.9 0.85,0.1 1.4,-0.55 l 0.35,-0.25 0.35,0.1 1.2,0.8 1.4,0.55 q 0.85,0 1.35,-0.75 0.4,-0.6 0.3,-1.55 L -20.25,0 q 4.35,1.25 7.7,0.75 l 1.75,-0.2 1.7,0.3 L -9,0.9 -9.2,3.25 -9.3,2.6 Q -9.6,1.35 -10.15,1.1 l -1.15,0.1 -0.55,0.5 -0.4,0.85 -0.65,1.95 -0.15,0.4 -0.45,0.15 -1.65,0.1 q -1.2,0.1 -1.7,0.45 l -0.55,0.9 0.05,1.1 q 0.3,0.95 1.45,1.6 l 1,0.45 2.05,1.2 -0.9,-0.15 -2.35,-0.95 q -10.15,-4.5 -16.25,-9.35 -1.15,-0.85 -1.55,-1.65 -0.45,-0.8 -0.45,-2.6 l 0.05,-3.3 0.6,-0.25 0.95,-0.45 0.5,-0.15 m 27.5,13.4 0.5,0.2 0.7,0.6 L -4,6.35 -4.8,6.8 -4.75,5.4 m 1.45,5.7 -0.05,0.4 -0.15,-0.3 0.2,-0.1 m -0.55,5.7 -0.2,1.85 -0.8,6.55 q -0.35,2.5 -0.95,4.55 l -0.35,-0.15 -1.3,0.1 Q -8.1,30 -8.5,30.55 l -0.35,0.75 -0.95,2.35 -0.8,2.25 -0.1,0.95 v 0.05 h -0.85 q 3.8,-11.8 5.45,-20.3 l 0.4,0.05 1.55,0.15 h 0.3 M -4.5,31.4 4,30.55 h 1.9 l -0.75,3.3 -0.55,1.25 -0.95,0.3 -7.7,1 L -4.1,35.85 -4.45,34.1 -4.4,32.7 -4.5,32 v -0.5 -0.1"
         fill="#666e7d"
         fill-rule="evenodd"
         stroke="none"
         id="path3" />
      <path
         d="m -22.5,-24.85 q 0.5,0.4 1.55,0.85 l 2.2,0.9 0.6,0.25 -2.9,1.95 -2.35,2.05 q -1.1,1.55 -0.75,2.95 l 0.25,0.7 -0.05,-0.05 q -1.15,-1.05 -1.45,-2.3 v -1.1 l 0.3,-0.75 q 0.4,-1.15 -0.4,-1.45 l -0.9,0.2 q -0.7,0.5 -1.15,1.7 l -0.65,1.8 -0.25,1.4 0.5,1.5 0.95,1.55 q 1.1,1.4 4.1,2.9 2.85,1.4 4.75,1.65 l 0.95,0.1 2.45,0.6 2.75,0.2 3.2,-0.3 -0.05,1.15 q 0,3.35 -0.15,6.65 V 0.9 l -0.1,-0.05 -1.7,-0.3 -1.75,0.2 Q -15.9,1.25 -20.25,0 l -0.2,-0.9 -0.05,-0.85 -0.15,-0.6 0.65,-0.6 q 0.85,-0.4 1,-1.2 0.15,-0.85 -0.45,-1.4 -0.55,-0.5 -2,-0.5 l -0.65,-1.65 -0.6,-0.95 q -0.95,-0.8 -1.95,-0.2 -0.7,0.45 -1,1.6 -0.3,1.3 -0.55,1.85 -1.35,0 -1.95,0.45 l -0.55,0.75 -1.1,-0.95 Q -31.6,-6.8 -32.25,-8 l 0.9,-0.4 q 1.1,-0.2 1.35,-0.95 l 0.1,-0.85 -0.05,-0.7 -0.4,-0.75 -0.8,-1.2 -1.05,-1.35 -1.1,-0.6 q 0.95,-2.35 3.55,-4.75 2.9,-2.85 7.25,-5.3 m 6.75,-0.25 -0.15,-1 0.1,-1 -0.05,-1 v -0.05 l 4.85,-1.8 q 4.2,-1.15 9.45,-1.05 l 9.6,1 4,0.7 q 5.45,1.2 11.7,4.2 2.1,1 3.15,2 l 0.4,0.45 -0.1,0.1 -0.8,1.25 -0.55,1 q -0.3,0.85 0.6,1.65 0.5,0.35 1.7,0.75 l 1.6,0.25 0.2,-0.05 0.6,1.5 q -0.7,0.05 -1.2,0.45 -0.75,0.6 -1.35,2.45 l -1.85,4.15 -0.65,-0.4 q -0.7,-0.3 -1.35,0 -0.75,0.35 -1.4,1.95 l -1.05,2.7 q -1.6,-0.1 -2.25,0.45 -0.55,0.4 -0.6,1.2 -0.05,0.5 0.2,0.95 l -2.65,0.8 -0.5,0.1 Q 15.1,-3.85 13.95,-6 l -2,-3.15 q 2.5,-0.45 4.45,-1.65 1.55,-1 2.6,-2.4 h 0.55 l 2.25,-0.05 q 1.45,-0.1 1.85,-0.65 0.4,-0.5 0.15,-1.4 -0.2,-0.6 -0.8,-1.2 l -1.05,-1.15 -0.15,-0.15 0.2,-0.6 0.45,-1.35 q 0.3,-0.8 0.2,-1.25 l -0.75,-0.9 -1.15,-0.3 -1.7,-0.05 -1.3,-1.55 q -2.2,-2.25 -6.3,-3.95 -8.65,-3.45 -16.3,-1.9 -2.75,0.55 -5.6,1.75 -3.15,1.25 -5.3,2.8 m 11,30.5 Q -4.4,-1.95 -5.6,-8.5 l 0.15,-0.05 6.7,-0.4 q 1.85,0.15 3.25,0.8 l 1.9,1.2 -0.65,0.5 L 5.55,-6.6 5,-7.1 Q 4.1,-7.85 3,-7.6 1.85,-7.35 1.45,-6.2 1.1,-5.05 2,-4.25 l 0.5,0.35 -1.85,1.4 -0.6,0.65 -0.85,0.7 q -0.4,0.5 -0.4,1.2 0.05,0.7 0.5,1.2 0.45,0.45 1.15,0.55 L 1.7,1.6 2.55,0.95 4.1,0.05 4.2,0 4.15,0.6 q 0,1.3 0.25,1.9 0.5,1.1 1.45,1 Q 6.3,3.5 6.8,3 L 7.2,1.95 7.55,0.4 7.6,-0.4 l 0.2,-1 h 0.05 l 1,0.5 1.15,0.15 0.25,-0.05 0.05,0.2 q 2.15,6 2.55,14 0.25,4.8 -0.2,14.45 -1.3,-1.1 -2.35,-1.4 L 9.7,26.35 9.95,26.15 10.6,25.2 10.35,23.8 9.8,22.3 9.75,21.85 l 0.5,-0.6 Q 11.65,20.4 11.7,19.3 11.8,18.35 10.95,17.75 10.15,17.2 9.2,17.55 L 8.1,18.15 7.3,16.4 6.75,15.5 Q 6.4,15.2 5.95,15.15 l -0.8,0.25 -0.7,0.8 q -0.6,1 -0.65,1.6 v 0.9 q -0.1,0.55 -0.4,0.75 l -0.95,0.2 q -1.15,0.1 -1.55,1.1 -0.45,1.05 0.2,1.95 0.7,0.9 1.8,0.65 l -0.5,1.9 -0.2,1.05 q 0,0.95 0.85,1.55 L 4.8,28 5.85,26.85 Q 6.5,25.7 6.7,25.5 7.6,26.25 8.4,26.45 8,26.55 7.7,26.8 6.85,27.4 6.25,29.3 L 5.9,30.55 H 4 l -8.5,0.85 q -0.1,-0.6 -0.55,-1.05 l -0.75,-0.6 q 0.6,-2.05 0.95,-4.55 l 0.8,-6.55 0.2,-1.85 q 0.7,-0.1 1.1,-0.5 0.7,-0.6 0.6,-1.7 -0.05,-0.8 -0.5,-1.75 l -0.7,-1.35 0.05,-0.4 1.6,-1 Q -0.6,9.35 -0.4,8.35 -0.25,7.5 -0.85,6.75 -1.4,6.1 -2.1,5.95 L -3.55,6.2 -4.25,5.6 -4.75,5.4"
         fill="#8693aa"
         fill-rule="evenodd"
         stroke="none"
         id="path4" />
    </g>
    <g
       id="sprite1"
       transform="translate(17.4,15.85)">
      <use
         ffdec:characterId="31"
         height="57.200001"
         transform="matrix(0.5366,0,0,0.5366,-16.6582,-14.546)"
         width="70.75"
         xlink:href="#sprite2"
         id="use4" />
    </g>
    <g
       id="sprite2"
       transform="translate(-8.65,-10.35)">
      <use
         ffdec:characterId="30"
         height="57.200001"
         transform="translate(8.65,10.35)"
         width="70.75"
         xlink:href="#shape1"
         id="use5" />
    </g>
    <g
       id="shape1"
       transform="translate(-8.65,-10.35)">
      <path
         d="m 14.8,41.7 q 0.65,-1.75 2.65,-2.5 1.8,-0.8 3.7,-0.25 1.15,0.45 2.25,1.2 l 0.9,0.4 q 1.65,0.9 2.85,2.5 L 37.8,30.1 q 2.35,-2.8 3.75,-3.95 1.5,-1.15 4.25,-2.4 18.2,-8.85 27.65,-12.6 2.15,-0.8 3.25,-0.8 h 0.8 l 1.9,2.4 -0.2,0.8 q -0.2,1.1 -1.55,3 -5.85,8.25 -18.85,23.8 -1.85,2.35 -3.35,3.5 -1.4,1.15 -4.75,2.75 l -15.15,7.15 q 1.2,1.6 1.75,3.4 l 0.2,1 0.55,2.5 q 0.1,1.95 -1.1,3.55 -1.2,1.65 -3.05,1.9 l -1.3,0.05 q -1.65,0.2 -3.45,-0.65 -1.85,-0.9 -3,-2.6 L 25,60.95 23.8,62.1 q -2.6,2.85 -4.3,3.95 -2.85,1.8 -5.5,1.45 l -1.65,-0.5 -1.2,-0.7 -0.2,-0.2 q -1,-0.85 -1.6,-1.9 L 9.25,64 9.15,63.8 8.75,62.4 q -0.2,-0.8 -0.05,-1.7 0.25,-2.65 2.7,-5.05 1.5,-1.3 4.9,-3.15 L 17.7,51.55 16.05,50 q -1.35,-1.5 -1.8,-3.6 -0.4,-1.85 0.25,-3.45 l 0.3,-1.25"
         fill="#000000"
         fill-opacity="0.372549"
         fill-rule="evenodd"
         stroke="none"
         id="path5" />
    </g>
  </defs>
</svg>
