<?xml version="1.0" encoding="UTF-8" standalone="no"?>
<svg
   ffdec:objectType="frame"
   height="97.011536"
   width="45.717247"
   version="1.1"
   id="svg7"
   xmlns:xlink="http://www.w3.org/1999/xlink"
   xmlns="http://www.w3.org/2000/svg"
   xmlns:svg="http://www.w3.org/2000/svg"
   xmlns:ffdec="https://www.free-decompiler.com/flash">
  <g
     transform="translate(23.255882,50.7)"
     id="g1">
    <use
       ffdec:characterId="17"
       height="119.15"
       id="rarity"
       transform="translate(-58.5,-60.65)"
       width="119.15"
       xlink:href="#sprite0" />
    <use
       ffdec:characterId="165"
       height="97.300003"
       transform="translate(-23.25,-51)"
       width="45.700001"
       xlink:href="#shape0"
       id="use1" />
  </g>
  <defs
     id="defs7">
    <g
       id="shape0"
       transform="translate(22.95,53.5)">
      <path
         d="m 20.35,7.15 1.05,7.7 q 1,7.05 1.25,10.65 0.35,5.9 -0.4,10.6 -0.45,3.3 -2.1,4.7 -1.2,0.95 -3.85,1.35 -11.35,1.8 -22.85,1.65 l -8.9,-0.9 q -3.3,-0.8 -4.55,-2.5 -0.9,-1.2 -1.3,-4.3 l -1.3,-12.55 q -0.55,-7 -0.25,-12.55 0.4,-6.85 3.05,-9.9 1.9,-2.1 5.6,-3.5 l 4.8,-1.4 -0.05,-0.85 0.4,-4.15 0.15,-0.95 -0.85,-0.2 q -1.75,-0.55 -2.3,-1.9 -0.3,-0.8 -0.1,-2.6 0.5,-4.25 1.5,-6.35 l 1.1,-1.55 0.15,-0.1 v -0.05 l 0.15,-3.4 -0.3,-3.75 q -0.7,-4.75 -0.45,-9.5 l 0.45,-7.1 0.35,-3.1 0.65,-1.7 q 0.8,-1.4 2.9,-2.05 l 3.85,-0.1 q 1.55,0.55 2.35,1.9 0.65,0.95 1.05,3.25 l 0.15,0.8 0.05,0.3 0.9,6 0.05,3.1 0.35,3.7 0.5,3.7 0.15,3 0.15,3 v 0.1 q 1.05,0.25 1.75,0.8 1.5,1.2 1.85,4 0.4,2.45 0.3,6.6 0,1.25 -0.3,1.8 -0.5,1 -1.8,1.35 l -0.9,0.15 0.05,0.25 v 2.1 l 0.2,2.75 4.55,0.5 q 2.7,0.4 4.25,1 2.3,0.75 3.6,2.15 1.35,1.4 2.05,3.75 l 0.85,4.3 M -1,-27.8 v -4.5 l -0.1,-3.75 -0.05,-0.85 -0.25,-2.5 q -0.3,-2.9 -1.5,-8.6 l -0.3,-0.75 q -0.3,-0.3 -0.7,-0.2 l -0.7,0.4 -0.45,1.5 v 3.6 l 0.4,8.7 0.55,5.8 0.25,4.9 3.2,-0.45 -0.35,-3.3 m -6.75,10.2 -0.4,0.1 0.1,0.3 0.25,1.95 q 5.35,0.15 10.65,0 0.05,-1.95 -0.4,-4.1 l -5.35,0.4 -4.85,1.35 M -0.7,-4.75 H 1.1 Q 0.55,-6.55 0.6,-7.9 l -1.3,0.05 -1.55,0.1 -1.35,0.15 -0.05,0.4 -0.2,1.9 0.1,0.5 v 0.15 h 0.1 0.15 l 0.95,-0.05 h 0.05 l 1.8,-0.05 M 15.3,12.9 14.85,9.65 13.35,9.8 H 11.1 l -6.35,0.65 -9.1,1.3 -1.3,0.4 -0.05,0.05 -0.2,0.25 -0.4,1.4 q -0.9,6.25 0.6,15.95 v 0.15 l 0.15,0.4 0.45,0.15 9.3,0.5 6.2,0.25 6.2,-0.5 L 16.95,30.7 17,29.35 16.9,26.3 16.65,23 16.45,21 16.4,20.55 15.8,16.45 15.3,12.9 m -31.7,-2.9 -0.15,3.2 0.4,7.9 1.2,13.5 q 0,0.95 0.4,1.5 0.5,0.6 1.85,0.8 L 1.05,37.45 14.8,36.1 q 1.1,-0.2 1.4,-0.55 L 16.6,34.8 6.75,35.15 -5.2,34.65 -7.75,34.3 q -1.5,-0.8 -2.1,-3.75 -2.3,-10.65 -0.45,-18.85 0.4,-1.7 1,-2.35 0.8,-0.8 2.85,-1.2 L -0.55,7.5 14.5,7 13.95,4.95 Q 13.35,3.4 12.2,2.8 11.65,2.45 10,2.25 L 3.45,1.65 1.8,1.55 -3.8,1.7 -6.35,2.05 -7.15,2.2 q -2.8,0.6 -6.4,1.9 -1.1,0.4 -1.65,0.9 -0.6,0.65 -0.8,2.15 L -16.4,10"
         fill="#000000"
         fill-rule="evenodd"
         stroke="none"
         id="path1" />
      <path
         d="M 17,29.35 12.05,29.2 6.85,28.85 2.6,28.7 -1.6,28.4 -2.3,28.15 q -0.55,-0.45 0,-1.2 0.35,-0.35 1.15,-0.55 L 1.2,26.15 Q 7.75,25.8 16.9,26.3 L 17,29.35 M 16.65,23 16.45,23.15 14.9,23.4 5.75,23.25 2.95,23.2 1.35,23.35 -1.6,23.5 h -1.05 q -0.6,0 -0.85,-0.3 -0.3,-0.3 -0.05,-0.75 l 0.6,-0.6 q 0.8,-0.4 2.6,-0.7 l 2.7,-0.5 3.45,-0.25 q 4.5,-0.15 9,-0.15 l 1.55,0.25 0.05,0.05 0.05,0.45 0.2,2 M 15.8,16.45 14.05,16.6 7.45,16.45 2.25,16.65 0.3,16.6 -0.9,16.75 Q -1.7,16.65 -1.95,16.2 -2.3,15.55 -1.6,14.8 -1,14.2 0.7,13.9 l 5.45,-0.8 2.8,-0.15 5.3,-0.15 1.05,0.1 0.5,3.55"
         fill="#535353"
         fill-rule="evenodd"
         stroke="none"
         id="path2" />
      <path
         d="m -8.05,-17.2 0.3,-0.4 4.85,-1.35 5.35,-0.4 q 0.45,2.15 0.4,4.1 -5.3,0.15 -10.65,0 L -8.05,-17.2 M 17,29.35 16.95,30.7 16.6,30.75 10.4,31.25 4.2,31 -5.1,30.5 -5.55,30.35 -5.7,29.95 V 29.8 Q -7.2,20.1 -6.3,13.85 l 0.4,-1.4 0.2,-0.25 0.05,-0.05 1.3,-0.4 9.1,-1.3 6.35,-0.65 h 2.25 l 1.5,-0.15 0.45,3.25 -1.05,-0.1 -5.3,0.15 -2.8,0.15 -5.45,0.8 q -1.7,0.3 -2.3,0.9 -0.7,0.75 -0.35,1.4 0.25,0.45 1.05,0.55 l 1.2,-0.15 1.95,0.05 5.2,-0.2 6.6,0.15 1.75,-0.15 0.6,4.1 -0.05,-0.05 -1.55,-0.25 q -4.5,0 -9,0.15 l -3.45,0.25 -2.7,0.5 q -1.8,0.3 -2.6,0.7 l -0.6,0.6 q -0.25,0.45 0.05,0.75 0.25,0.3 0.85,0.3 h 1.05 l 2.95,-0.15 1.6,-0.15 2.8,0.05 9.15,0.15 1.55,-0.25 0.2,-0.15 0.25,3.3 Q 7.75,25.8 1.2,26.15 l -2.35,0.25 q -0.8,0.2 -1.15,0.55 -0.55,0.75 0,1.2 l 0.7,0.25 4.2,0.3 4.25,0.15 5.2,0.35 4.95,0.15"
         fill="#ebebeb"
         fill-rule="evenodd"
         stroke="none"
         id="path3" />
      <path
         d="m -1,-27.8 0.35,3.3 -3.2,0.45 -0.25,-4.9 -0.55,-5.8 -0.4,-8.7 v -3.6 l 0.45,-1.5 0.7,-0.4 q 0.4,-0.1 0.7,0.2 l 0.3,0.75 q 1.2,5.7 1.5,8.6 l 0.25,2.5 0.05,0.85 0.1,3.75 v 4.5"
         fill="#81928b"
         fill-rule="evenodd"
         stroke="none"
         id="path4" />
      <path
         d="m -0.7,-7.85 0.05,0.15 q 0.6,1.25 0.2,2.35 l -0.25,0.6 -1.8,0.05 h -0.05 l -0.95,0.05 h -0.15 l -0.05,-0.1 -0.05,-0.05 -0.1,-0.5 0.2,-1.9 0.05,-0.4 1.35,-0.15 1.55,-0.1 M 3.45,1.65 3.15,2.35 2.1,3.65 0.75,4.2 -1.65,4.4 Q -3.2,3.95 -3.65,2.6 L -3.8,1.7 1.8,1.55 3.45,1.65 M -7.15,2.2 v 0.2 q 0.05,1.1 -1.2,2.85 -1.3,2 -2.35,2.85 -1,0.85 -2.8,1.55 l -2.4,0.4 L -16.4,10 -16,7.15 q 0.2,-1.5 0.8,-2.15 0.55,-0.5 1.65,-0.9 3.6,-1.3 6.4,-1.9"
         fill="#ffffff"
         fill-rule="evenodd"
         stroke="none"
         id="path5" />
      <path
         d="m -0.7,-4.75 0.25,-0.6 q 0.4,-1.1 -0.2,-2.35 L -0.7,-7.85 0.6,-7.9 q -0.05,1.35 0.5,3.15 h -1.8 m 4.15,6.4 6.55,0.6 q 1.65,0.2 2.2,0.55 1.15,0.6 1.75,2.15 L 14.5,7 -0.55,7.5 -6.45,8.15 q -2.05,0.4 -2.85,1.2 -0.6,0.65 -1,2.35 -1.85,8.2 0.45,18.85 0.6,2.95 2.1,3.75 l 2.55,0.35 11.95,0.5 9.85,-0.35 -0.4,0.75 Q 15.9,35.9 14.8,36.1 L 1.05,37.45 -12.7,36.9 q -1.35,-0.2 -1.85,-0.8 -0.4,-0.55 -0.4,-1.5 l -1.2,-13.5 -0.4,-7.9 0.15,-3.2 0.5,0.05 2.4,-0.4 Q -11.7,8.95 -10.7,8.1 -9.65,7.25 -8.35,5.25 -7.1,3.5 -7.15,2.4 V 2.2 l 0.8,-0.15 2.55,-0.35 0.15,0.9 q 0.45,1.35 2,1.8 L 0.75,4.2 2.1,3.65 3.15,2.35 3.45,1.65"
         fill="#6e7b87"
         fill-opacity="0.6"
         fill-rule="evenodd"
         stroke="none"
         id="path6" />
    </g>
    <g
       id="sprite1"
       transform="translate(17.4,15.85)">
      <use
         ffdec:characterId="31"
         height="57.200001"
         transform="matrix(0.5366,0,0,0.5366,-16.6582,-14.546)"
         width="70.75"
         xlink:href="#sprite2"
         id="use6" />
    </g>
    <g
       id="sprite2"
       transform="translate(-8.65,-10.35)">
      <use
         ffdec:characterId="30"
         height="57.200001"
         transform="translate(8.65,10.35)"
         width="70.75"
         xlink:href="#shape1"
         id="use7" />
    </g>
    <g
       id="shape1"
       transform="translate(-8.65,-10.35)">
      <path
         d="m 14.8,41.7 q 0.65,-1.75 2.65,-2.5 1.8,-0.8 3.7,-0.25 1.15,0.45 2.25,1.2 l 0.9,0.4 q 1.65,0.9 2.85,2.5 L 37.8,30.1 q 2.35,-2.8 3.75,-3.95 1.5,-1.15 4.25,-2.4 18.2,-8.85 27.65,-12.6 2.15,-0.8 3.25,-0.8 h 0.8 l 1.9,2.4 -0.2,0.8 q -0.2,1.1 -1.55,3 -5.85,8.25 -18.85,23.8 -1.85,2.35 -3.35,3.5 -1.4,1.15 -4.75,2.75 l -15.15,7.15 q 1.2,1.6 1.75,3.4 l 0.2,1 0.55,2.5 q 0.1,1.95 -1.1,3.55 -1.2,1.65 -3.05,1.9 l -1.3,0.05 q -1.65,0.2 -3.45,-0.65 -1.85,-0.9 -3,-2.6 L 25,60.95 23.8,62.1 q -2.6,2.85 -4.3,3.95 -2.85,1.8 -5.5,1.45 l -1.65,-0.5 -1.2,-0.7 -0.2,-0.2 q -1,-0.85 -1.6,-1.9 L 9.25,64 9.15,63.8 8.75,62.4 q -0.2,-0.8 -0.05,-1.7 0.25,-2.65 2.7,-5.05 1.5,-1.3 4.9,-3.15 L 17.7,51.55 16.05,50 q -1.35,-1.5 -1.8,-3.6 -0.4,-1.85 0.25,-3.45 l 0.3,-1.25"
         fill="#000000"
         fill-opacity="0.372549"
         fill-rule="evenodd"
         stroke="none"
         id="path7" />
    </g>
  </defs>
</svg>
