<?xml version="1.0" encoding="UTF-8" standalone="no"?>
<svg
   ffdec:objectType="frame"
   height="82.439362"
   width="95.549728"
   version="1.1"
   id="svg8"
   xmlns:xlink="http://www.w3.org/1999/xlink"
   xmlns="http://www.w3.org/2000/svg"
   xmlns:svg="http://www.w3.org/2000/svg"
   xmlns:ffdec="https://www.free-decompiler.com/flash">
  <g
     transform="translate(49.566667,41.15)"
     id="g1">
    <use
       ffdec:characterId="17"
       height="119.15"
       id="rarity"
       transform="translate(-58.5,-60.65)"
       width="119.15"
       xlink:href="#sprite0" />
    <use
       ffdec:characterId="906"
       height="82.449997"
       transform="translate(-49.55,-41.15)"
       width="95.550003"
       xlink:href="#shape0"
       id="use1" />
  </g>
  <defs
     id="defs8">
    <g
       id="shape0"
       transform="translate(50.1,41.9)">
      <path
         d="M 16.75,4.1 24.9,3.5 q 6.15,-0.05 10.95,1.45 2.75,0.9 4.3,2.05 1.6,1.15 3.15,3.3 1.5,1.95 1.9,3.45 0.85,3.3 -1.4,6.7 -1.4,2.15 -4.95,4.95 -3.7,2.9 -6.7,4.35 -4.1,1.85 -7.8,1.5 l -3.6,-0.7 -3.6,-0.5 Q 13.4,30.1 8.8,33.95 l -3.6,3 q -2.15,1.7 -3.95,2.5 -3.5,1.6 -7.5,0.85 -4,-0.75 -6.7,-3.5 l -1.55,-1.55 q -0.65,-0.6 -1.25,-0.95 l 0.7,-0.75 0.9,-1.3 0.85,-1.9 1.05,0.45 1.95,1.5 1.85,1.6 q 1.65,1.2 3.8,1.45 2.15,0.25 4,-0.55 1.4,-0.6 3.45,-2.35 l 4.95,-4 q 2.9,-2.15 5.5,-2.95 2.8,-0.9 5.8,-0.6 l 3.7,0.7 3.65,0.35 q 2.1,-0.15 4.45,-1.35 l 4,-2.6 4.05,-3.45 Q 40.25,17 40.3,15.75 40.5,14.25 39.1,12.6 36.65,9.75 31.1,9 23.75,7.85 13.65,9.7 l -0.5,0.1 3.6,-5.7 m -43.45,29.6 -1.15,0.25 -6.25,1.1 -6.2,0.5 q -3.7,-0.35 -6.5,-3.1 -2.8,-2.7 -3.25,-6.35 -0.5,-4.75 2.75,-9.55 1.65,-2.45 6.75,-7.45 -4.1,-2.1 -7.05,-5.8 -1.35,-1.6 -1.45,-2.95 -0.2,-1.55 1.15,-3.75 2.9,-4.9 7.7,-9.2 2.7,-2.4 4.9,-3.65 2.45,-1.4 7.35,-2.95 5.1,-1.75 7.95,-2 l -1.7,4.8 -6.25,2.15 q -4.8,1.95 -7.95,4.45 -2.95,2.35 -6.9,7.75 -0.75,1.05 -0.75,1.6 0,0.8 0.85,1.65 0.8,0.9 2.35,1.9 2.15,1.4 2.55,1.7 1.35,1.05 2,2.3 0.8,1.5 0.5,2.85 -0.25,1.15 -1.9,3 L -40.05,16 q -3.15,3.45 -4.05,5.55 -0.65,1.7 -0.55,3.4 0.1,1.85 1.15,3.15 1.2,1.45 3.4,1.95 1.9,0.35 4.15,-0.05 l 4,-0.95 3.75,-0.55 -0.1,0.9 q 0,1.3 0.65,2.75 l 0.8,1.4 0.15,0.15 m 3.65,-5.65 0.95,-1.1 q 1.9,1.2 4.05,2 l -0.1,0.3 q -0.35,0.8 -1.1,1.25 l -0.8,0.3 q -1.25,0.25 -2.4,-0.5 -0.6,-0.4 -0.85,-1 -0.15,-0.55 0.25,-1.25"
         fill="#262626"
         fill-rule="evenodd"
         stroke="none"
         id="path1" />
      <path
         d="M 5.05,13.5 5,13.55 Q 3.3,16.05 1.75,16.6 L -1.2,16.7 Q -13.3,15.25 -20.65,8 -21.75,7 -22.05,6.05 -22.3,5.1 -21.8,3.25 l 1.25,-4.35 1,0.6 q 2.3,1.55 2.7,3.55 l 0.1,1.35 q 0,1.8 -0.4,2.75 l -0.3,0.75 0.55,-0.05 2.35,0.15 1.25,0.45 1.65,1 1,1.2 0.65,1.15 0.2,-0.2 2.1,-1.35 7.3,-0.3 q 2.65,0.6 3.8,1.5 L 4.75,13 5.05,13.5 M -9.95,7.7 -11,6.55 q -0.35,-0.75 -0.15,-1.5 l 0.6,-1.15 Q -9.9,3.3 -8.95,3.25 -8,3.2 -7.3,3.75 q 0.65,0.5 0.8,1.5 0.15,0.95 -0.35,1.65 -0.5,0.75 -1.4,1 l -1.7,-0.2"
         fill="#7b3737"
         fill-rule="evenodd"
         stroke="none"
         id="path2" />
      <path
         d="m -16.7,-13.5 q 2.4,-7.15 4.8,-12.95 1.35,-3.1 2.4,-4.3 1.15,-1.3 3.55,-2.75 3.1,-1.9 5.2,-2.45 h 0.1 l -1.35,2.9 -2.95,6.8 q -0.45,0.85 -0.5,1.65 0,1.15 0.65,1.6 0.45,0.4 1.1,0.3 0.8,-0.15 1.8,-1.7 l 1.1,-1.65 0.4,-1.25 3.05,-5.75 0.75,-1.3 0.75,-1.35 0.2,-0.5 h 0.4 q 4,0.2 6.4,1.15 1.15,0.5 2.3,1.3 l -0.2,0.3 -1,2.55 -0.95,1.6 -1.4,3.05 -0.75,1.7 -1.9,4.65 q -0.3,0.9 -0.25,1.5 0.1,0.9 0.75,1.2 0.75,0.4 1.35,-0.2 l 0.45,-0.75 1,-1.35 0.95,-1.8 3.6,-6.9 1.35,-2.3 0.2,-0.25 1.5,1.9 q 1.6,2.25 2.05,3.8 0.6,2.05 0.25,4.8 -0.4,4.5 -2.25,9.55 L 16.75,-7.1 16,-6.2 Q 13.15,-2.55 10.95,-1.15 8.6,0.4 4.6,1.2 l -5.5,0.6 q -5.35,0 -9.4,-2.65 -4.55,-2.9 -5.9,-7.7 -0.6,-2.05 -0.5,-4.95"
         fill="#ffffff"
         fill-rule="evenodd"
         stroke="none"
         id="path3" />
      <path
         d="m -20,-21.2 2.9,-7.6 q 1.5,-3.45 2.7,-5.1 2.35,-3.05 7.5,-5.65 2.95,-1.45 5.05,-1.95 l 5.65,-0.4 q 8.7,0.4 13.15,3.75 1.95,1.45 4.1,4.25 3.75,4.7 4.55,8.55 0.45,2.4 0,6.2 -1.3,9.5 -7,20 l -1.85,3.25 -3.6,5.7 -0.1,0.1 -6.15,8.75 q -1.4,2.05 -2.5,2.75 -1.85,1.25 -5.3,1.1 -0.85,2.45 -2,4.4 -0.8,1.45 -1.7,2.2 -2.05,1.85 -6.2,1.45 l -2.45,-0.3 -0.05,0.1 -0.85,1.9 -0.9,1.3 -0.7,0.75 q -1.6,1.4 -3.9,1.65 l -2.4,-0.05 -1.9,-0.4 -1.45,-1 -1.3,-0.8 -0.15,-0.15 -0.8,-1.4 Q -28.3,30.7 -28.3,29.4 l 0.1,-0.9 0.15,-0.5 q 0.65,-2.45 2.35,-3.75 -1.5,-1.4 -2.2,-2.75 -1.45,-2.55 -0.7,-4.95 0.35,-1.15 1.45,-2.7 l 1.75,-2.55 q -2.55,-2.95 -2.6,-5.8 0,-1.55 0.75,-4 l 4.7,-15.3 0.85,-2.6 1.7,-4.8 m 36.75,14.1 1.45,-3.6 q 1.85,-5.05 2.25,-9.55 0.35,-2.75 -0.25,-4.8 -0.45,-1.55 -2.05,-3.8 l -1.5,-1.9 -0.2,0.25 -1.35,2.3 -3.6,6.9 -0.95,1.8 -1,1.35 -0.45,0.75 Q 8.5,-16.8 7.75,-17.2 7.1,-17.5 7,-18.4 6.95,-19 7.25,-19.9 l 1.9,-4.65 0.75,-1.7 1.4,-3.05 0.95,-1.6 1,-2.55 0.2,-0.3 q -1.15,-0.8 -2.3,-1.3 -2.4,-0.95 -6.4,-1.15 h -0.4 l -0.2,0.5 -0.75,1.35 -0.75,1.3 -3.05,5.75 -0.4,1.25 -1.1,1.65 q -1,1.55 -1.8,1.7 -0.65,0.1 -1.1,-0.3 -0.65,-0.45 -0.65,-1.6 0.05,-0.8 0.5,-1.65 l 2.95,-6.8 1.35,-2.9 h -0.1 q -2.1,0.55 -5.2,2.45 -2.4,1.45 -3.55,2.75 -1.05,1.2 -2.4,4.3 -2.4,5.8 -4.8,12.95 l -3.85,12.4 -1.25,4.35 q -0.5,1.85 -0.25,2.8 0.3,0.95 1.4,1.95 7.35,7.25 19.45,8.7 L 1.75,16.6 Q 3.3,16.05 5,13.55 L 5.05,13.5 Q 10.05,6 14.1,-1.75 L 16.75,-7.1 M -15.3,18.7 -17,17.8 q -2.6,-1.45 -4.9,-3.25 l -1.35,2.4 -0.35,1.3 q 0.05,0.6 0.75,1.3 l 0.3,0.3 q 2,2 4.65,3.25 3.5,1.7 8.05,2.1 l 1.8,-0.2 q 0.55,-0.3 1.15,-1.4 l 0.85,-1.8 q -4.95,-1 -9.25,-3.1 m -7.75,9.35 q -0.4,0.7 -0.25,1.25 0.25,0.6 0.85,1 1.15,0.75 2.4,0.5 l 0.8,-0.3 q 0.75,-0.45 1.1,-1.25 l 0.1,-0.3 q -2.15,-0.8 -4.05,-2 l -0.95,1.1"
         fill="#000000"
         fill-rule="evenodd"
         stroke="none"
         id="path4" />
      <path
         d="m -16.7,-13.5 q -0.1,2.9 0.5,4.95 1.35,4.8 5.9,7.7 4.05,2.65 9.4,2.65 L 4.6,1.2 q 4,-0.8 6.35,-2.35 2.2,-1.4 5.05,-5.05 l 0.75,-0.9 -2.65,5.35 Q 10.05,6 5.05,13.5 L 4.75,13 3.4,11.45 q -1.15,-0.9 -3.8,-1.5 l -7.3,0.3 -2.1,1.35 -0.2,0.2 -0.65,-1.15 -1,-1.2 -1.65,-1 -1.25,-0.45 -2.35,-0.15 -0.55,0.05 0.3,-0.75 q 0.4,-0.95 0.4,-2.75 l -0.1,-1.35 q -0.4,-2 -2.7,-3.55 l -1,-0.6 3.85,-12.4 m 6.75,21.2 1.7,0.2 q 0.9,-0.25 1.4,-1 0.5,-0.7 0.35,-1.65 -0.15,-1 -0.8,-1.5 Q -8,3.2 -8.95,3.25 -9.9,3.3 -10.55,3.9 l -0.6,1.15 q -0.2,0.75 0.15,1.5 l 1.05,1.15"
         fill="#d1d1d1"
         fill-rule="evenodd"
         stroke="none"
         id="path5" />
      <path
         d="m -17.9,23.1 q -2.65,-1.25 -4.65,-3.25 l -0.3,-0.3 q -0.7,-0.7 -0.75,-1.3 l 0.35,-1.3 1.35,-2.4 q 2.3,1.8 4.9,3.25 l 1.7,0.9 q 0.5,1.1 0.4,1.8 l -0.3,0.8 -0.45,0.75 q -0.55,0.7 -1.65,0.95 l -0.6,0.1"
         fill="#bcbb9c"
         fill-rule="evenodd"
         stroke="none"
         id="path6" />
      <path
         d="m -17.9,23.1 0.6,-0.1 q 1.1,-0.25 1.65,-0.95 l 0.45,-0.75 0.3,-0.8 q 0.1,-0.7 -0.4,-1.8 4.3,2.1 9.25,3.1 l -0.85,1.8 q -0.6,1.1 -1.15,1.4 l -1.8,0.2 q -4.55,-0.4 -8.05,-2.1"
         fill="#967d59"
         fill-rule="evenodd"
         stroke="none"
         id="path7" />
    </g>
    <g
       id="sprite1"
       transform="translate(17.4,15.85)">
      <use
         ffdec:characterId="31"
         height="57.200001"
         transform="matrix(0.5366,0,0,0.5366,-16.6582,-14.546)"
         width="70.75"
         xlink:href="#sprite2"
         id="use7" />
    </g>
    <g
       id="sprite2"
       transform="translate(-8.65,-10.35)">
      <use
         ffdec:characterId="30"
         height="57.200001"
         transform="translate(8.65,10.35)"
         width="70.75"
         xlink:href="#shape1"
         id="use8" />
    </g>
    <g
       id="shape1"
       transform="translate(-8.65,-10.35)">
      <path
         d="m 14.8,41.7 q 0.65,-1.75 2.65,-2.5 1.8,-0.8 3.7,-0.25 1.15,0.45 2.25,1.2 l 0.9,0.4 q 1.65,0.9 2.85,2.5 L 37.8,30.1 q 2.35,-2.8 3.75,-3.95 1.5,-1.15 4.25,-2.4 18.2,-8.85 27.65,-12.6 2.15,-0.8 3.25,-0.8 h 0.8 l 1.9,2.4 -0.2,0.8 q -0.2,1.1 -1.55,3 -5.85,8.25 -18.85,23.8 -1.85,2.35 -3.35,3.5 -1.4,1.15 -4.75,2.75 l -15.15,7.15 q 1.2,1.6 1.75,3.4 l 0.2,1 0.55,2.5 q 0.1,1.95 -1.1,3.55 -1.2,1.65 -3.05,1.9 l -1.3,0.05 q -1.65,0.2 -3.45,-0.65 -1.85,-0.9 -3,-2.6 L 25,60.95 23.8,62.1 q -2.6,2.85 -4.3,3.95 -2.85,1.8 -5.5,1.45 l -1.65,-0.5 -1.2,-0.7 -0.2,-0.2 q -1,-0.85 -1.6,-1.9 L 9.25,64 9.15,63.8 8.75,62.4 q -0.2,-0.8 -0.05,-1.7 0.25,-2.65 2.7,-5.05 1.5,-1.3 4.9,-3.15 L 17.7,51.55 16.05,50 q -1.35,-1.5 -1.8,-3.6 -0.4,-1.85 0.25,-3.45 l 0.3,-1.25"
         fill="#000000"
         fill-opacity="0.372549"
         fill-rule="evenodd"
         stroke="none"
         id="path8" />
    </g>
  </defs>
</svg>
