<?xml version="1.0" encoding="UTF-8" standalone="no"?>
<svg
   ffdec:objectType="frame"
   height="72.056557"
   width="83.196152"
   version="1.1"
   id="svg9"
   xmlns:xlink="http://www.w3.org/1999/xlink"
   xmlns="http://www.w3.org/2000/svg"
   xmlns:svg="http://www.w3.org/2000/svg"
   xmlns:ffdec="https://www.free-decompiler.com/flash">
  <g
     transform="translate(39.696154,35.91875)"
     id="g1">
    <use
       ffdec:characterId="17"
       height="119.15"
       id="rarity"
       transform="translate(-58.5,-60.65)"
       width="119.15"
       xlink:href="#sprite0" />
    <use
       ffdec:characterId="1089"
       height="72.050003"
       transform="translate(-39.7,-35.9)"
       width="83.199997"
       xlink:href="#shape0"
       id="use1" />
  </g>
  <defs
     id="defs9">
    <g
       id="shape0"
       transform="translate(86.5,37.25)">
      <path
         d="m -49.25,21.7 -0.1,-4.65 -0.75,0.3 q -12.95,4.5 -18,6.55 -2.3,1 -3.6,0.9 l -1.95,-0.6 -1.85,-0.95 q -1.3,-0.65 -5.9,-2.05 -2.5,-0.85 -3.15,-1.95 -0.45,-0.7 -0.65,-2.15 l -1.05,-7.7 q -0.4,-2.75 -0.15,-4.1 0.2,-1.2 1.15,-3.3 1,-2.2 1.2,-3.3 l 0.25,-1.45 0.5,-1.3 q 0.6,-0.85 2.5,-1.55 l 3.85,-1.45 -0.35,-0.5 -0.8,-0.95 -0.4,-0.65 -0.3,-0.95 0.7,-0.7 1.05,0.05 q 1,0.35 2.35,1.6 l 0.95,0.95 3.15,-1.2 q 3.15,-1.15 5.3,-1.6 l 0.05,-0.2 0.2,-2.1 v -0.6 l -0.1,-0.75 q -0.15,-1.15 0.9,-1.85 l 1.6,-0.45 1.7,-0.7 0.45,-0.15 -0.05,-0.1 -0.05,-0.8 0.05,-0.65 q 0.35,-1.15 1.5,-1.25 1.1,-0.15 1.75,0.8 l 0.4,1.15 0.25,1.5 0.5,1.7 0.2,1.3 q -0.15,1.3 -1.35,1.55 -1.1,0.35 -1.9,-0.6 l -0.3,-0.65 -0.4,0.15 -1.6,0.55 -0.35,0.2 -0.25,0.65 -0.05,0.9 2.8,-0.2 q 1.1,-0.15 3.1,-0.85 l 4.15,-1.4 v -0.3 l 0.05,-7.2 -1.2,-1.25 -1.15,-1.05 -1,-0.8 q -0.5,-0.4 -1.3,-0.65 l -3.1,-0.6 H -60 q -3.15,-0.1 -5.7,1.25 0.75,2.45 0.05,4.45 -0.8,2.4 -3.1,3.1 L -71,-16.95 q -1.15,-0.4 -1.8,-1.3 -1.05,-1.65 -0.35,-3.7 0.45,-1.45 1.9,-3.3 -1.75,-0.5 -3.7,0.35 -1.15,0.5 -3.15,2.1 -2.35,2.1 -3.2,3.75 -1.3,2.55 -0.3,4.75 l 0.7,1.5 q 0.15,0.7 -0.25,1.3 -0.4,0.65 -1.1,0.8 -1.1,0.25 -1.95,-0.6 -0.65,-0.6 -1.1,-1.75 -1.4,-3.7 0.8,-7.8 1.7,-3.1 5.55,-5.8 2.6,-1.7 4.7,-2.2 2.9,-0.6 5,0.85 l 0.85,0.5 q 0.65,0.2 1.75,-0.4 3.35,-1.6 7.15,-1.3 3.8,0.3 6.85,2.35 l 0.7,0.5 0.05,-2.2 q 0.1,-1.75 0.5,-2.5 0.55,-1 2.5,-1.95 l 6.5,-3.35 q 2.2,-1.05 3.3,-0.9 1.05,0.15 2.55,1.3 l 3.05,2.55 0.95,0.5 0.7,-0.2 4.5,-1.7 2.05,-0.1 q 0.75,0.3 1.6,1.95 l 5.05,9.7 3.7,6.95 0.05,0.05 0.95,1.2 0.95,1.75 0.15,0.6 0.05,0.05 0.25,1.05 -0.15,1.3 0.65,-0.05 h 1.3 q 0.6,-1.5 1.5,-2.4 1.45,-1.35 3.05,-0.9 1.55,0.4 2.4,2.5 0.4,1.05 0.5,2.25 l -0.05,2.1 -0.35,3.45 q -0.3,1.75 -1,2.45 l -0.65,0.5 -0.85,0.5 -1.45,0.3 -1.45,-0.05 -1.05,-0.75 -1,-1.2 -0.3,-1.35 -0.05,-0.25 h -2.7 q 1.05,4.75 0.9,11.3 -0.05,4.25 -0.55,12.8 l -0.2,2.75 q -0.3,1.5 -1.05,2.45 -0.8,1 -3,2 -4.4,2 -7.95,2.95 -5.35,1.55 -9.7,1.4 -5.4,-0.15 -9.4,-2.6 -2.3,-1.4 -3.2,-3.1 l -0.2,-0.4 -0.25,0.75 q -0.5,1.05 -1.4,1.55 l -1.6,0.6 -2.3,0.85 -1.35,0.35 -0.15,1.25 q -0.05,0.55 -0.5,1.15 -0.7,0.95 -1.85,1.4 -2.4,1.05 -5.05,0.05 l -1.15,-0.65 -1,-1.1 -1.3,-1.45 q -0.4,-0.75 -0.4,-2.5 l 0.25,-2.3 0.7,-1.45 0.6,-0.9 0.95,-0.9 q 1.95,-1.45 3.15,-1.6 1.85,-0.3 3.6,1.2 l 0.5,-0.1 5.2,-0.7 q 1.8,-0.1 2.7,0.6 l -0.05,-0.75 m 13.65,-51.6 -2.1,-2 q -0.95,-0.95 -1.65,-1 -0.6,-0.1 -1.7,0.5 l -5.4,2.75 q -0.85,0.5 -1.1,0.9 l -0.25,1.1 -0.25,9.1 0.05,2.65 v 0.7 l 2.55,-0.8 -0.05,-1.25 0.05,-1.35 -0.05,-5.75 0.05,-1.45 q 0.2,-0.8 0.7,-1.2 l 1.4,-0.45 2.6,-0.1 1.25,0.35 0.2,0.1 q 0.6,0.4 0.9,1.7 l 0.45,2 0.05,0.1 0.95,2.85 0.1,1 0.5,1.9 0.15,0.7 q 0.7,0.6 1.25,1.8 0.7,1.35 1.3,3.4 l 0.15,0.5 1.25,-0.25 v -0.35 l 0.1,-1.55 0.25,-1.3 0.05,-0.9 0.15,-0.9 0.9,-0.85 -0.25,-1.3 -0.2,-1.25 -0.5,-1.75 -2,-6.05 -0.25,-1.1 -1.45,-1.05 -0.15,-0.15 m -33,8.15 0.2,-0.4 -0.15,-0.4 -0.1,-0.1 -0.05,0.05 -0.8,1.05 -0.35,1.25 0.45,-0.05 0.35,-0.2 0.3,-0.55 0.15,-0.65 m -8.15,24.8 -0.3,-0.1 -0.7,-0.35 -0.45,-0.15 -0.55,-0.75 q 0,-0.55 0.4,-0.8 l 0.55,-0.15 1.65,0.15 2.65,0.2 1.95,0.8 0.8,0.45 q 1.55,-0.7 6.25,-2.05 l 7.35,-2.2 1.7,-0.55 q 5.1,-1.65 10.05,-3.6 l 0.7,-0.5 q 3.9,-2.5 8.35,-3.85 l -0.95,-2.05 q -0.45,-1 -0.9,-1.15 l -1.05,0.05 q -7.55,1.95 -14.65,4.95 -1.6,0.7 -2.45,0.9 l -2.45,0.4 -2.5,0.15 -1.45,0.2 -0.1,0.65 -0.3,1.55 -0.4,1.2 q -0.45,0.7 -1.15,0.55 -0.6,-0.1 -0.9,-1.1 l -0.25,-1.65 0.05,-0.55 -1.25,0.35 -3.55,1.25 0.3,0.35 q 0.85,0.95 0.85,1.85 0,1.3 -1.1,1.75 -1.05,0.55 -2.05,-0.2 l -0.75,-0.9 -0.95,-1.4 -3.95,1.5 -0.5,0.25 -0.8,0.55 -0.5,1.45 -0.5,1.6 -0.5,1.2 q -0.75,1.75 -0.9,2.8 -0.2,1.2 0.2,3.6 l 1.05,6.8 8.35,3.25 1.15,0.35 1.5,-0.35 18.1,-6.25 q 1.4,-0.5 2.15,-0.45 l -0.2,-9.6 q -0.1,-2.9 0.35,-4.55 l -1.95,0.45 -3.3,0.8 -2.1,0.65 -2.95,0.65 -0.05,0.05 -4.95,1.8 -4.1,1.45 q -0.55,0.2 -0.8,0.5 l -0.35,0.95 q -0.65,4.8 -0.15,9.7 0.1,1.25 -0.1,1.85 -0.2,0.45 -0.65,0.7 l -0.85,0.1 Q -72.2,18.35 -72.45,17 -73.2,11.15 -73,5.65 L -72.9,4.8 -75.75,3.55 -76.6,3.1 -76.75,3.05 m 37.3,-20.45 0.95,-0.05 -0.3,-0.7 -0.2,-0.95 -0.1,-0.9 -0.4,-1.4 -0.2,-0.4 -0.9,-3.1 -2.15,0.15 0.25,6.4 0.1,1.5 2.95,-0.55 m 12.2,-6.55 q -0.7,-0.25 -1,-0.85 -0.5,-0.95 0.15,-1.85 0.75,-0.9 1.8,-0.5 1,0.4 1,1.55 0.1,0.75 -0.55,1.3 -0.6,0.55 -1.4,0.35 m 2.45,-3.1 -2.15,-3.75 q -1.15,0 -3.4,1.4 -0.8,0.45 -1.45,0.65 l 1.45,3.4 1,2.85 1.35,4 0.15,0.45 q 1.85,-0.3 3.75,0.05 l 1.7,0.55 q 0.85,0.5 1.15,1.3 0.2,0.55 0.1,1.45 -0.1,1.45 -0.55,3.1 2.6,0.4 4,1.4 l 0.15,0.1 0.75,-0.7 q 0.6,-0.4 0.65,-0.7 l -0.25,-0.75 -8.4,-14.8 m 0.3,12.65 -2.85,-0.15 -0.55,0.25 -0.15,0.4 -0.15,2.05 3.15,-0.05 0.55,-2.5 m -19.25,13.1 -1.1,1.3 q -0.45,0.9 0,1.65 2.95,0.65 6.7,0.1 l 1.6,-0.3 L -37.6,1 -38.5,0.3 -38.85,-0.5 q -0.35,-1.3 0.25,-2.15 l 1.2,-0.85 1.8,-0.8 2.35,-0.75 1.75,-0.45 -0.65,-0.95 -0.05,-0.35 q -7.5,1.9 -11.55,5.5 m 23.8,-4.4 q 0.2,-0.6 0,-0.9 -0.15,-0.3 -0.9,-0.5 l -2.5,-0.5 -1.15,1.65 q -0.8,0.8 -1.4,0.6 -0.55,-0.15 -0.7,-0.75 l -0.05,-1.05 0.25,-0.6 -1.8,0.15 q -0.1,1 -0.4,1.5 l -0.25,0.35 1.1,0.55 q 1.05,0.85 0.8,2.05 -0.1,0.5 -0.7,1.3 -0.65,0.9 -1.4,1.45 l 1.1,-0.35 q 2.75,-1 4.6,-1.9 2.8,-1.35 3.4,-3.05 m 4.65,-1.3 0.25,0.65 h 0.7 l 2.85,0.35 0.15,-1.7 -2.65,0.4 -0.9,-0.1 -0.4,0.4 m 8.55,-3.6 -0.2,-0.25 -0.35,0.25 -0.65,1.2 q -0.45,1.2 -0.55,3.75 v 1.9 l 0.3,1 q 0.3,0.3 0.8,0.35 l 0.95,0.1 0.3,-4.05 q 0.2,-2.9 -0.6,-4.25 m -10.7,19.25 -0.05,-3.5 -0.05,-1.2 V 3.55 L -17.7,1.5 -18,-0.95 q -3.3,2.5 -7.95,4.15 l -4.6,1.35 -1.75,0.35 -1.9,0.4 -0.6,0.1 -5.2,0.65 h -0.15 L -41.6,5.95 Q -43.45,5.75 -44.95,5 l 0.15,2.85 0.05,1 0.1,2.55 0.05,2.9 2.1,0.3 4,-0.4 2.4,-0.5 2.75,-0.65 2.75,-0.05 0.5,0.2 q 0.45,0.35 0,1.1 -0.3,0.6 -1.45,1.2 -3.95,2.15 -8.35,2.4 h -0.4 l 0.35,0.15 0.3,0.15 0.65,0.1 h 0.1 0.7 l 1.65,0.15 1.35,0.1 q 0.3,0.15 0.4,0.65 0,0.4 -0.3,0.7 l -0.75,0.3 -4.55,0.35 -1.25,-0.25 -0.75,-0.2 -1,-0.35 -0.85,-0.35 -0.3,-0.15 v 1.8 q 0,1.95 0.35,2.85 l 0.2,0.4 q 0.85,1.45 3.15,2.4 l 3.05,0.9 q 3.6,0.7 7.9,-0.15 4.1,-0.8 10.45,-3.6 l 0.9,-0.6 q 0.25,-0.3 0.35,-1.25 l 0.25,-3.7 0.05,-0.65 0.2,-2.65 v -0.45 l 0.2,-3.15 v -0.25 l 0.05,-2.5 m -45.85,20.15 0.95,1.25 1.25,0.8 1.25,0.2 1.25,0.15 0.05,-2.65 q 0,-1.55 -0.6,-2.55 l -0.9,-0.85 -0.6,-0.25 -0.65,0.2 q -1.35,0.7 -1.9,2.1 -0.3,0.95 -0.1,1.6 m 7.8,-1.85 0.05,0.35 3.25,-1.2 0.75,-0.35 q 0.4,-0.4 0.25,-0.8 h -1 l -1,0.2 -1.35,0.15 -1.15,0.35 0.2,1.3"
         fill="#000000"
         fill-rule="evenodd"
         stroke="none"
         id="path1" />
      <path
         d="M -17.45,8.65 -18.2,8.1 q -0.65,-0.25 -1.5,0 l -0.05,0.05 -1.5,0.55 q -1.8,0.8 -3.85,1.05 l 6.5,-3.9 0.1,-0.05 1,-0.65 0.05,3.5 M -17.7,1.5 -18.95,1.35 q -0.8,0.1 -2.85,1.25 -2.3,1.3 -5.5,2.25 l -1.7,0.5 -4.1,0.95 q -6.95,1.45 -10.25,1.45 L -44.8,7.85 -44.95,5 q 1.5,0.75 3.35,0.95 l 1.45,0.1 H -40 l 5.2,-0.65 0.6,-0.1 1.9,-0.4 1.75,-0.35 4.6,-1.35 Q -21.3,1.55 -18,-0.95 l 0.3,2.45 m -26.95,9.9 q 2.2,0.3 4.9,0.05 l 5.5,-0.9 q -3.8,2.15 -7.7,3.75 l -0.55,0.3 -2.1,-0.3 -0.05,-2.9 m 5,6.8 0.35,-0.15 1.45,-0.25 -1.05,0.5 H -39 l -0.65,-0.1 m -2.75,1.9 -0.6,0.65 q -0.3,0.6 -0.1,1.3 0.2,0.7 0.75,1.05 1.05,0.65 3.5,-0.45 3.1,-1.45 10.65,-3.7 l 3.85,-1.25 -0.5,0.3 q -4.55,2.85 -7.9,3.9 l -4.8,1.05 -4.85,0.8 q -1,0.2 -1.6,0.55 l -0.2,-0.4 q -0.35,-0.9 -0.35,-2.85 v -1.8 l 0.3,0.15 0.85,0.35 1,0.35 m 4.6,7.5 4.75,-1.05 q 6.85,-1.95 12.45,-6.3 l 2.2,-2 0.5,-0.6 -0.05,0.65 -0.25,3.7 q -0.1,0.95 -0.35,1.25 l -0.9,0.6 q -6.35,2.8 -10.45,3.6 -4.3,0.85 -7.9,0.15 m 20.3,-16.2 -0.25,-0.05 0.25,-0.2 v 0.25"
         fill="#929292"
         fill-rule="evenodd"
         stroke="none"
         id="path2" />
      <path
         d="m -17.5,5.15 -1,0.65 -0.1,0.05 -6.5,3.9 q 2.05,-0.25 3.85,-1.05 l 1.5,-0.55 0.05,-0.05 q 0.85,-0.25 1.5,0 l 0.75,0.55 -0.05,2.5 -0.25,0.2 0.25,0.05 -0.2,3.15 V 15 l -0.2,2.65 -0.5,0.6 -2.2,2 q -5.6,4.35 -12.45,6.3 l -4.75,1.05 -3.05,-0.9 q -2.3,-0.95 -3.15,-2.4 0.6,-0.35 1.6,-0.55 l 4.85,-0.8 4.8,-1.05 q 3.35,-1.05 7.9,-3.9 l 0.5,-0.3 -3.85,1.25 q -7.55,2.25 -10.65,3.7 -2.45,1.1 -3.5,0.45 -0.55,-0.35 -0.75,-1.05 -0.2,-0.7 0.1,-1.3 l 0.6,-0.65 0.75,0.2 1.25,0.25 4.55,-0.35 0.75,-0.3 q 0.3,-0.3 0.3,-0.7 -0.1,-0.5 -0.4,-0.65 l -1.35,-0.1 -1.65,-0.15 h -0.7 l 1.05,-0.5 -1.45,0.25 -0.35,0.15 -0.3,-0.15 -0.35,-0.15 h 0.4 q 4.4,-0.25 8.35,-2.4 1.15,-0.6 1.45,-1.2 0.45,-0.75 0,-1.1 l -0.5,-0.2 -2.75,0.05 -2.75,0.65 -2.4,0.5 -4,0.4 0.55,-0.3 q 3.9,-1.6 7.7,-3.75 l -5.5,0.9 q -2.7,0.25 -4.9,-0.05 l -0.1,-2.55 -0.05,-1 1.45,-0.1 q 3.3,0 10.25,-1.45 l 4.1,-0.95 1.7,-0.5 q 3.2,-0.95 5.5,-2.25 2.05,-1.15 2.85,-1.25 l 1.25,0.15 0.15,2.05 v 0.4 l 0.05,1.2"
         fill="#ac5e5e"
         fill-rule="evenodd"
         stroke="none"
         id="path3" />
      <path
         d="m -48.05,-18.55 0.25,-9.1 0.25,-1.1 q 0.25,-0.4 1.1,-0.9 l 5.4,-2.75 q 1.1,-0.6 1.7,-0.5 0.7,0.05 1.65,1 l 2.1,2 -0.6,0.95 q -0.65,0.75 -2.3,1.35 l -1,0.4 -1.25,-0.35 -2.6,0.1 -1.4,0.45 q -0.5,0.4 -0.7,1.2 l -0.05,1.45 0.05,5.75 q -0.5,0.35 -1.15,0.4 -0.8,0.1 -1.45,-0.35 m 18.7,-3.95 -1,-2.85 -1.45,-3.4 q 0.65,-0.2 1.45,-0.65 2.25,-1.4 3.4,-1.4 l 2.15,3.75 v 0.05 1.45 q -0.1,0.75 -0.55,1.3 l -1.2,0.8 -1.15,0.75 -1.65,0.2 m 2.1,-1.45 q 0.8,0.2 1.4,-0.35 0.65,-0.55 0.55,-1.3 0,-1.15 -1,-1.55 -1.05,-0.4 -1.8,0.5 -0.65,0.9 -0.15,1.85 0.3,0.6 1,0.85 m 7.3,18.25 q -0.6,1.7 -3.4,3.05 -1.85,0.9 -4.6,1.9 l -1.1,0.35 q 0.75,-0.55 1.4,-1.45 0.6,-0.8 0.7,-1.3 0.25,-1.2 -0.8,-2.05 l -1.1,-0.55 0.25,-0.35 q 0.3,-0.5 0.4,-1.5 l 1.8,-0.15 -0.25,0.6 0.05,1.05 q 0.15,0.6 0.7,0.75 0.6,0.2 1.4,-0.6 l 1.15,-1.65 2.5,0.5 q 0.75,0.2 0.9,0.5 0.2,0.3 0,0.9 m -23.8,4.4 q 4.05,-3.6 11.55,-5.5 l 0.05,0.35 0.65,0.95 -1.75,0.45 -2.35,0.75 -1.8,0.8 -1.2,0.85 q -0.6,0.85 -0.25,2.15 l 0.35,0.8 0.9,0.7 1.05,0.45 -1.6,0.3 q -3.75,0.55 -6.7,-0.1 -0.45,-0.75 0,-1.65 l 1.1,-1.3"
         fill="#bebebe"
         fill-rule="evenodd"
         stroke="none"
         id="path4" />
      <path
         d="m -48.05,-18.55 q 0.65,0.45 1.45,0.35 0.65,-0.05 1.15,-0.4 l -0.05,1.35 0.05,1.25 -2.55,0.8 v -0.7 l -0.05,-2.65 m 8.55,-8.65 1,-0.4 q 1.65,-0.6 2.3,-1.35 l 0.6,-0.95 0.15,0.15 1.45,1.05 0.25,1.1 2,6.05 0.5,1.75 0.2,1.25 0.25,1.3 -0.9,0.85 -0.15,0.9 -0.05,0.9 -0.25,1.3 -0.1,1.55 v 0.35 l -1.25,0.25 -0.15,-0.5 q -0.6,-2.05 -1.3,-3.4 -0.55,-1.2 -1.25,-1.8 l -0.15,-0.7 -0.5,-1.9 -0.1,-1 -0.95,-2.85 -0.05,-0.1 -0.45,-2 q -0.3,-1.3 -0.9,-1.7 l -0.2,-0.1 m 0.05,9.8 -2.95,0.55 -0.1,-1.5 -0.25,-6.4 2.15,-0.15 0.9,3.1 0.2,0.4 0.4,1.4 0.1,0.9 0.2,0.95 0.3,0.7 -0.95,0.05 m 10.1,-5.1 1.65,-0.2 1.15,-0.75 1.2,-0.8 q 0.45,-0.55 0.55,-1.3 V -27 -27.05 l 8.4,14.8 0.25,0.75 q -0.05,0.3 -0.65,0.7 l -0.75,0.7 -0.15,-0.1 q -1.4,-1 -4,-1.4 0.45,-1.65 0.55,-3.1 0.1,-0.9 -0.1,-1.45 -0.3,-0.8 -1.15,-1.3 L -24.1,-18 q -1.9,-0.35 -3.75,-0.05 l -0.15,-0.45 -1.35,-4 m 4.85,8.1 -0.55,2.5 -3.15,0.05 0.15,-2.05 0.15,-0.4 0.55,-0.25 2.85,0.15"
         fill="#969696"
         fill-rule="evenodd"
         stroke="none"
         id="path5" />
      <path
         d="m -6.75,-10.6 q 0.8,1.35 0.6,4.25 l -0.3,4.05 -0.95,-0.1 q -0.5,-0.05 -0.8,-0.35 l -0.3,-1 v -1.9 q 0.1,-2.55 0.55,-3.75 l 0.65,-1.2 0.35,-0.25 0.2,0.25 m -8.55,3.6 0.4,-0.4 0.9,0.1 2.65,-0.4 -0.15,1.7 -2.85,-0.35 h -0.7 L -15.3,-7 m -40.2,33.95 -0.2,-1.3 1.15,-0.35 1.35,-0.15 1,-0.2 h 1 q 0.15,0.4 -0.25,0.8 l -0.75,0.35 -3.25,1.2 -0.05,-0.35 m -7.8,1.85 q -0.2,-0.65 0.1,-1.6 0.55,-1.4 1.9,-2.1 l 0.65,-0.2 0.6,0.25 0.9,0.85 q 0.6,1 0.6,2.55 l -0.05,2.65 -1.25,-0.15 -1.25,-0.2 -1.25,-0.8 -0.95,-1.25"
         fill="#b2b2b2"
         fill-rule="evenodd"
         stroke="none"
         id="path6" />
      <path
         d="m -80.55,2.1 0.5,-1.6 0.5,-1.45 0.8,-0.55 0.5,-0.25 3.95,-1.5 0.95,1.4 0.75,0.9 q 1,0.75 2.05,0.2 1.1,-0.45 1.1,-1.75 0,-0.9 -0.85,-1.85 l -0.3,-0.35 3.55,-1.25 1.25,-0.35 -0.05,0.55 0.25,1.65 q 0.3,1 0.9,1.1 0.7,0.15 1.15,-0.55 l 0.4,-1.2 0.3,-1.55 0.1,-0.65 1.45,-0.2 2.5,-0.15 2.45,-0.4 q 0.85,-0.2 2.45,-0.9 7.1,-3 14.65,-4.95 l 1.05,-0.05 q 0.45,0.15 0.9,1.15 l 0.95,2.05 q -4.45,1.35 -8.35,3.85 l -0.7,0.5 q -4.95,1.95 -10.05,3.6 l -1.7,0.55 -7.35,2.2 q -4.7,1.35 -6.25,2.05 L -71.55,1.9 -73.5,1.1 -76.15,0.9 -77.8,0.75 -78.35,0.9 q -0.4,0.25 -0.4,0.8 l 0.55,0.75 0.45,0.15 0.7,0.35 0.3,0.1 H -77.3 L -79.5,2.4 -80.55,2.1"
         fill="#6d5c52"
         fill-rule="evenodd"
         stroke="none"
         id="path7" />
      <path
         d="m -80.55,2.1 1.05,0.3 2.2,0.65 h 0.55 l 0.15,0.05 0.85,0.45 2.85,1.25 -0.1,0.85 q -0.2,5.5 0.55,11.35 0.25,1.35 0.85,1.55 l 0.85,-0.1 q 0.45,-0.25 0.65,-0.7 0.2,-0.6 0.1,-1.85 -0.5,-4.9 0.15,-9.7 l 0.35,-0.95 q 0.25,-0.3 0.8,-0.5 l 4.1,-1.45 4.95,-1.8 0.05,-0.05 2.95,-0.65 2.1,-0.65 3.3,-0.8 1.95,-0.45 q -0.45,1.65 -0.35,4.55 l 0.2,9.6 Q -50.2,13 -51.6,13.5 l -18.1,6.25 -1.5,0.35 -1.15,-0.35 -8.35,-3.25 -1.05,-6.8 q -0.4,-2.4 -0.2,-3.6 0.15,-1.05 0.9,-2.8 l 0.5,-1.2"
         fill="#4f443e"
         fill-rule="evenodd"
         stroke="none"
         id="path8" />
    </g>
    <g
       id="sprite1"
       transform="translate(17.4,15.85)">
      <use
         ffdec:characterId="31"
         height="57.200001"
         transform="matrix(0.5366,0,0,0.5366,-16.6582,-14.546)"
         width="70.75"
         xlink:href="#sprite2"
         id="use8" />
    </g>
    <g
       id="sprite2"
       transform="translate(-8.65,-10.35)">
      <use
         ffdec:characterId="30"
         height="57.200001"
         transform="translate(8.65,10.35)"
         width="70.75"
         xlink:href="#shape1"
         id="use9" />
    </g>
    <g
       id="shape1"
       transform="translate(-8.65,-10.35)">
      <path
         d="m 14.8,41.7 q 0.65,-1.75 2.65,-2.5 1.8,-0.8 3.7,-0.25 1.15,0.45 2.25,1.2 l 0.9,0.4 q 1.65,0.9 2.85,2.5 L 37.8,30.1 q 2.35,-2.8 3.75,-3.95 1.5,-1.15 4.25,-2.4 18.2,-8.85 27.65,-12.6 2.15,-0.8 3.25,-0.8 h 0.8 l 1.9,2.4 -0.2,0.8 q -0.2,1.1 -1.55,3 -5.85,8.25 -18.85,23.8 -1.85,2.35 -3.35,3.5 -1.4,1.15 -4.75,2.75 l -15.15,7.15 q 1.2,1.6 1.75,3.4 l 0.2,1 0.55,2.5 q 0.1,1.95 -1.1,3.55 -1.2,1.65 -3.05,1.9 l -1.3,0.05 q -1.65,0.2 -3.45,-0.65 -1.85,-0.9 -3,-2.6 L 25,60.95 23.8,62.1 q -2.6,2.85 -4.3,3.95 -2.85,1.8 -5.5,1.45 l -1.65,-0.5 -1.2,-0.7 -0.2,-0.2 q -1,-0.85 -1.6,-1.9 L 9.25,64 9.15,63.8 8.75,62.4 q -0.2,-0.8 -0.05,-1.7 0.25,-2.65 2.7,-5.05 1.5,-1.3 4.9,-3.15 L 17.7,51.55 16.05,50 q -1.35,-1.5 -1.8,-3.6 -0.4,-1.85 0.25,-3.45 l 0.3,-1.25"
         fill="#000000"
         fill-opacity="0.372549"
         fill-rule="evenodd"
         stroke="none"
         id="path9" />
    </g>
  </defs>
</svg>
