<?xml version="1.0" encoding="UTF-8" standalone="no"?>
<svg
   ffdec:objectType="frame"
   height="61.60862"
   width="44.511112"
   version="1.1"
   id="svg5"
   xmlns:xlink="http://www.w3.org/1999/xlink"
   xmlns="http://www.w3.org/2000/svg"
   xmlns:svg="http://www.w3.org/2000/svg"
   xmlns:ffdec="https://www.free-decompiler.com/flash">
  <g
     transform="translate(24.25,30.758621)"
     id="g1">
    <use
       ffdec:characterId="17"
       height="119.15"
       id="rarity"
       transform="translate(-58.5,-60.65)"
       width="119.15"
       xlink:href="#sprite0" />
    <use
       ffdec:characterId="206"
       height="61.599998"
       transform="translate(-24.25,-30.75)"
       width="44.5"
       xlink:href="#shape0"
       id="use1" />
  </g>
  <defs
     id="defs5">
    <g
       id="shape0"
       transform="translate(23.95,33.25)">
      <path
         d="m 10.05,-32.7 q 0.7,0.55 1.2,2.2 2.25,7.45 2.55,14.25 0.1,1.9 -0.5,2.75 -0.75,1.15 -3.4,1.55 l -1.25,0.2 0.4,0.5 1.35,0.3 h 1.5 q 1.55,0.25 2.7,2.75 5.3,11.1 5.95,26.45 0.1,2.75 -0.7,4.05 -1.1,1.8 -4.9,2.6 l -7.3,1.75 Q 1.75,28.1 -1.8,28.3 l -6.3,0.05 -3.1,-0.05 q -1.75,-0.25 -2.7,-1.25 -0.85,-0.9 -1.45,-3.4 l -2.55,-12.5 q -1.2,-7 -1.3,-12.7 -0.1,-2.6 0.75,-3.8 l 1.75,-1.5 1.05,-0.75 0.05,-0.25 0.05,-0.15 -1.15,0.15 q -2.3,0.4 -3.3,-0.3 -0.85,-0.6 -1.35,-2.45 -0.95,-3.25 -2.45,-11.55 -0.3,-1.45 0,-2.25 0.4,-1.15 2.4,-2.05 5.45,-2.5 13.6,-4.1 l 14.2,-2.5 q 2.55,-0.55 3.65,0.35 M 13.1,2.6 Q 11.85,-1.6 10.05,-5.65 7.6,-5.4 5.5,-7.15 3.6,-8.7 3.25,-10.9 l -14.45,2.2 q 0.25,0.95 0,2 l -0.3,1 q -0.35,0.65 -0.95,1.15 l -1.45,1.4 q -0.3,0.55 -0.1,1.6 1.35,12.3 4.35,24.15 L 2.3,22 14.05,19.45 15.2,18.8 15.35,17.9 Q 15.2,10.1 13.1,2.6 M -3.45,-25.8 h -0.2 l -4.4,0.85 -2.75,0.75 -4.4,0.95 q -2.4,0.4 -3.3,1.15 l 0.9,3.95 0.7,-0.45 1.55,-0.9 q 6.55,-3.8 10,-4.95 1.55,-0.5 2.1,-1.1 l 0.1,-0.05 0.3,-0.3 -0.6,0.1"
         fill="#000000"
         fill-rule="evenodd"
         stroke="none"
         id="path1" />
      <path
         d="m -6.3,-5 q 1.65,-0.05 2.75,0.8 l 0.85,0.95 0.35,0.75 0.05,0.65 q 0,1.05 -0.65,1.95 l -1.45,1.5 -1.45,0.95 -3.3,0.5 -1.25,-0.15 -1.15,-0.75 -0.65,-0.9 -0.15,-1 0.1,-1.45 0.95,-1.55 1.5,-1.1 Q -8.05,-4.8 -6.7,-5 h 0.4 m 18.4,19.45 0.95,0.8 q 0.4,0.6 0.3,1.2 -0.1,0.7 -0.7,1.2 -0.6,0.45 -1.35,0.45 -1,0 -1.6,-0.75 -0.35,-0.5 -0.35,-1.2 0.05,-0.7 0.45,-1.15 0.4,-0.5 1.1,-0.65 l 1.2,0.1 m -15.25,-40.05 -0.1,0.05 q -0.55,0.6 -2.1,1.1 -3.45,1.15 -10,4.95 l -1.55,0.9 -0.7,0.45 -0.9,-3.95 q 0.9,-0.75 3.3,-1.15 l 4.4,-0.95 2.75,-0.75 4.4,-0.85 h 0.2 l 0.3,0.2"
         fill="#fcfcfc"
         fill-rule="evenodd"
         stroke="none"
         id="path2" />
      <path
         d="m -11.5,-5.7 1.4,-0.1 q 1.95,0.05 3.8,0.8 h -0.4 q -1.35,0.2 -3.1,1.15 l -1.5,1.1 -0.95,1.55 -0.1,1.45 0.15,1 0.65,0.9 1.15,0.75 1.25,0.15 3.3,-0.5 L -4.4,1.6 -2.95,0.1 Q -2.3,-0.8 -2.3,-1.85 L -2.35,-2.5 -0.1,-0.3 Q 1.1,0.8 1.65,1 L 3.25,1.25 4.85,1 q 4.7,-0.8 7,0.65 L 13.1,2.6 q 2.1,7.5 2.25,15.3 L 15.2,18.8 14.05,19.45 2.3,22 -9.65,22.6 q -3,-11.85 -4.35,-24.15 -0.2,-1.05 0.1,-1.6 l 1.45,-1.4 q 0.6,-0.5 0.95,-1.15 m 23.6,20.15 -1.2,-0.1 Q 10.2,14.5 9.8,15 q -0.4,0.45 -0.45,1.15 0,0.7 0.35,1.2 0.6,0.75 1.6,0.75 0.75,0 1.35,-0.45 0.6,-0.5 0.7,-1.2 0.1,-0.6 -0.3,-1.2 l -0.95,-0.8"
         fill="#c2bfa3"
         fill-rule="evenodd"
         stroke="none"
         id="path3" />
      <path
         d="m -11.5,-5.7 0.3,-1 q 0.25,-1.05 0,-2 l 14.45,-2.2 q 0.35,2.2 2.25,3.75 2.1,1.75 4.55,1.5 1.8,4.05 3.05,8.25 L 11.85,1.65 Q 9.55,0.2 4.85,1 L 3.25,1.25 1.65,1 Q 1.1,0.8 -0.1,-0.3 L -2.35,-2.5 -2.7,-3.25 -3.55,-4.2 Q -4.65,-5.05 -6.3,-5 -8.15,-5.75 -10.1,-5.8 l -1.4,0.1"
         fill="#ffffff"
         fill-opacity="0"
         fill-rule="evenodd"
         stroke="none"
         id="path4" />
    </g>
    <g
       id="sprite1"
       transform="translate(17.4,15.85)">
      <use
         ffdec:characterId="31"
         height="57.200001"
         transform="matrix(0.5366,0,0,0.5366,-16.6582,-14.546)"
         width="70.75"
         xlink:href="#sprite2"
         id="use4" />
    </g>
    <g
       id="sprite2"
       transform="translate(-8.65,-10.35)">
      <use
         ffdec:characterId="30"
         height="57.200001"
         transform="translate(8.65,10.35)"
         width="70.75"
         xlink:href="#shape1"
         id="use5" />
    </g>
    <g
       id="shape1"
       transform="translate(-8.65,-10.35)">
      <path
         d="m 14.8,41.7 q 0.65,-1.75 2.65,-2.5 1.8,-0.8 3.7,-0.25 1.15,0.45 2.25,1.2 l 0.9,0.4 q 1.65,0.9 2.85,2.5 L 37.8,30.1 q 2.35,-2.8 3.75,-3.95 1.5,-1.15 4.25,-2.4 18.2,-8.85 27.65,-12.6 2.15,-0.8 3.25,-0.8 h 0.8 l 1.9,2.4 -0.2,0.8 q -0.2,1.1 -1.55,3 -5.85,8.25 -18.85,23.8 -1.85,2.35 -3.35,3.5 -1.4,1.15 -4.75,2.75 l -15.15,7.15 q 1.2,1.6 1.75,3.4 l 0.2,1 0.55,2.5 q 0.1,1.95 -1.1,3.55 -1.2,1.65 -3.05,1.9 l -1.3,0.05 q -1.65,0.2 -3.45,-0.65 -1.85,-0.9 -3,-2.6 L 25,60.95 23.8,62.1 q -2.6,2.85 -4.3,3.95 -2.85,1.8 -5.5,1.45 l -1.65,-0.5 -1.2,-0.7 -0.2,-0.2 q -1,-0.85 -1.6,-1.9 L 9.25,64 9.15,63.8 8.75,62.4 q -0.2,-0.8 -0.05,-1.7 0.25,-2.65 2.7,-5.05 1.5,-1.3 4.9,-3.15 L 17.7,51.55 16.05,50 q -1.35,-1.5 -1.8,-3.6 -0.4,-1.85 0.25,-3.45 l 0.3,-1.25"
         fill="#000000"
         fill-opacity="0.372549"
         fill-rule="evenodd"
         stroke="none"
         id="path5" />
    </g>
  </defs>
</svg>
