<?xml version="1.0" encoding="UTF-8" standalone="no"?>
<svg
   ffdec:objectType="frame"
   height="102.46072"
   width="91.144646"
   version="1.1"
   id="svg6"
   sodipodi:docname="ITEM Phoenix Hat.svg"
   xmlns:inkscape="http://www.inkscape.org/namespaces/inkscape"
   xmlns:sodipodi="http://sodipodi.sourceforge.net/DTD/sodipodi-0.dtd"
   xmlns:xlink="http://www.w3.org/1999/xlink"
   xmlns="http://www.w3.org/2000/svg"
   xmlns:svg="http://www.w3.org/2000/svg"
   xmlns:ffdec="https://www.free-decompiler.com/flash">
  <sodipodi:namedview
     id="namedview6"
     pagecolor="#ffffff"
     bordercolor="#000000"
     borderopacity="0.25"
     inkscape:showpageshadow="2"
     inkscape:pageopacity="0.0"
     inkscape:pagecheckerboard="0"
     inkscape:deskcolor="#d1d1d1"
     fit-margin-top="5"
     fit-margin-left="5"
     fit-margin-right="5"
     fit-margin-bottom="5" />
  <g
     transform="translate(48.35,53.160714)"
     id="g1">
    <use
       ffdec:characterId="17"
       height="119.15"
       id="rarity"
       transform="translate(-58.5,-60.65)"
       width="119.15"
       xlink:href="#sprite0" />
    <use
       ffdec:characterId="1254"
       height="102.55"
       transform="translate(-48.4,-53.15)"
       width="91.199997"
       xlink:href="#shape0"
       id="use1" />
  </g>
  <defs
     id="defs6">
    <g
       id="shape0"
       transform="translate(47.1,51.25)">
      <path
         d="m -19.4,43.25 -3.4,4.85 q -1.55,2 -2.9,1.75 -1.15,-0.15 -1.4,-1.3 -0.25,-0.8 0.35,-1.8 l 1.3,-1.45 0.55,-0.55 q -0.7,-0.5 -1,-1.95 l -0.85,-3.75 q -0.8,-3.5 -0.85,-5.3 l 0.1,-2.55 -1,2.3 -2.3,5.05 -0.75,1 0.1,0.85 0.6,4.45 q 0.1,1.2 -0.2,1.7 -0.3,0.7 -1.15,0.8 -0.8,0 -1.25,-0.6 l -0.45,-1.45 -0.35,-3.75 q -0.8,-0.15 -1.7,-1.15 -3.55,-3.8 -4.35,-7.65 l -0.25,-3.8 q 0,-10.1 2.85,-20.8 l 0.7,-1.6 q 0.65,-0.85 1.5,-0.6 0.5,0.2 1.15,1.25 1.85,3.5 3.35,7.15 -0.3,-4.15 0.15,-8.15 0.35,-2.9 0.35,-3.8 l -0.15,-3.5 q -0.6,-6.05 -1.8,-8.8 l -0.2,-0.4 q -2.15,-1.8 -3.35,-3.8 -0.75,-1.3 -1.7,-3.95 -0.95,-2.8 -1.65,-4 l -1.45,-2.25 -1.65,-2.2 -2.95,-5 q -1.3,-2.35 -1.6,-3.9 l -0.05,-2.55 0.05,-2.5 -0.05,-1.85 q 0.15,-1.1 1,-1.5 1.35,-0.55 2.85,1.75 2.2,3.25 6.25,7.45 l 6.75,7 q 2.45,2.75 3.3,4.6 0.6,1.3 1.15,3.55 l 0.95,3.65 1.15,2.75 1.3,2.7 q 3.3,6.9 4.15,14.4 l 2.25,-1.9 0.55,-1.65 1.85,-4.25 q 1.1,-2.6 1.5,-3.95 l 1.65,-5.55 q 0.45,-1.7 0.25,-5.25 l -0.1,-1.3 -0.65,0.35 -3.95,2.3 -2.3,1.85 -0.9,0.95 q -0.55,0.5 -1.05,0.45 -1,0 -1.4,-1.25 l 0.15,-2 q 1.15,-5.5 2.9,-8.4 l 2.05,-3.05 q 2.55,-4.15 2.55,-9 l 0.25,-1.6 q 0.45,-0.9 2.55,-1 6.3,-0.35 10.15,-1.85 l 2.8,-1.1 2.9,-0.5 1.45,0.45 q 0.85,0.55 0.6,1.3 v 0.15 l 0.55,1.85 q 0.8,2.65 0.95,6.35 l -0.1,3.1 q -0.5,2.4 -2.15,2.9 l 1.8,1.15 q 0.35,0.55 0.35,1.95 l 0.05,12.65 0.65,-2.15 1.75,-5.3 q 2,-6.2 3.65,-9.5 1.45,-2.9 6.6,-10.2 4.45,-6.3 5.95,-10.5 0.8,-1.95 1.8,-1.8 1.1,0.25 1,2.3 l -1.15,15.9 q -0.8,8.85 -2.1,15.8 l -2.05,8.75 -0.2,0.65 q -2.75,9.2 -7.15,15.6 L 17.25,8.45 17.2,8.5 17.15,8.8 22,4.15 l 0.05,-0.2 0.5,-1.35 0.7,-3.05 0.9,-2.5 1.05,-2.45 0.3,-0.95 0.15,-0.7 0.05,-0.05 0.25,-0.55 q 0.4,-0.4 1.8,-0.5 l 2,-0.45 0.8,-0.2 q -2.05,-2.3 -2.15,-3.9 -0.1,-1 0.4,-2.4 l 0.8,-2.45 0.25,-1.2 0.35,-1.2 q 0.45,-0.85 1.4,-1.75 l 2.8,-2.45 2.75,-2.5 q 2.2,-2.2 3.65,-4.95 l 1,-1.4 q 0.85,-0.75 1.65,-0.3 0.95,0.5 0.5,2.4 -1.75,7.5 -2.35,11.3 -0.45,2.9 -0.9,9.4 -0.4,6.1 -1,9.35 l -1.6,7 q -2.15,8.25 -4.3,13.8 l 0.75,-0.9 q 0.7,-0.8 1.15,-1.05 0.85,-0.4 1.45,0 0.8,0.55 0.35,2.45 -0.95,3.6 -1.65,7.65 l -0.8,4.3 q -1.15,4.85 -3.8,8.75 -2.85,4.15 -6.9,6.4 -1.2,0.65 -1.85,0.3 l -0.25,-0.2 -1.65,2.05 -1.05,0.85 q -1,0.4 -1.75,-0.35 -0.75,-0.85 -0.25,-1.75 l 0.8,-0.95 3,-3.55 0.05,-0.15 2.15,-2.9 0.75,-0.95 q 1.55,-1.25 2.1,-2.05 0.3,-0.55 0.55,-0.75 l 0.35,-0.25 0.5,0.05 q 0.3,0.2 0.3,0.7 l -0.3,0.75 -2.8,4.85 0.6,-0.45 2.1,-1.85 1.7,-2.6 q 1.7,-3.15 2.65,-6.5 l 0.25,-0.8 q 0.6,-2.55 0.85,-5.1 L 33.2,24.9 32.55,25.8 28.2,31.55 27.6,32.3 26.95,33.25 25.7,35 q -1.3,2.15 -3.05,6.9 -0.6,1.1 -1.2,0.8 Q 21,42.45 21.1,41.6 l 0.25,-1.25 q 0.25,-1.3 0.85,-3 l -1.05,0.85 q -0.75,0.65 -1.2,0.4 l -0.4,-0.45 v -0.6 l -3.3,3.55 Q 11,45.9 4.6,47.1 L 3.6,47.2 1.2,50.05 -0.15,51.2 -1.5,51 q -0.7,-0.45 -0.7,-1.2 0,-0.85 0.95,-1.8 l 2,-2.1 6.65,-6.95 q 5.3,-5.5 8.2,-9.5 0.65,-0.75 1.1,-0.5 0.55,0.3 -0.05,1.25 l -4.55,6.85 -5.7,6.8 q 4.9,-1.85 8.85,-5.8 4,-3.95 5.9,-8.9 l 0.7,-2.1 0.9,-3.95 0.05,-0.25 0.4,-2.25 0.35,-1.55 1.1,-4.85 0.75,-3.45 0.65,-2.85 1.15,-5.2 q -2.8,3.8 -8.9,9.9 -0.85,0.9 -1.6,1.15 L 16.3,16.4 15.25,21 14.9,22.1 q -1.1,3.6 -2.75,6.8 L 12.1,29.1 12.05,29.15 11.3,30.5 Q 8.9,34.75 5.5,38.2 3.15,40.55 0.6,42.35 L 0.3,42.5 0.5,42.65 1.35,43.7 1.6,44.25 1.4,44.85 0.9,45.15 0.25,45.1 0.2,45.05 -0.65,44.7 -1.7,43.65 l -2.05,1 -2.65,1.2 q -1.45,0.85 -2.05,1.9 l -0.9,1.8 q -0.8,1 -1.7,0.75 l -0.7,-0.75 -0.15,-1.05 0.25,-1.05 0.25,-1.05 q -0.55,0.5 -1.3,-0.15 l -0.6,-1.2 -0.45,-1.4 -0.45,0.35 q -1.85,1.25 -3.5,1.1 -0.75,-0.1 -1.15,-0.5 -0.4,-0.55 -0.1,-1.2 l 0.15,-0.3 q 0.3,-0.5 1.25,-1 l 1.4,-0.7 1.1,-0.95 0.35,-0.15 -0.15,-1.45 q 0.1,-1.75 1.75,-4 L -10.6,31 q 0.7,-1.5 0.9,-3.9 l 0.35,-4.05 Q -9,20.75 -7.95,18.2 L -7,16 -4.75,12 -2.6,8.95 -2.55,8.85 -0.85,6.9 0.35,5.95 0.3,4.7 -0.05,2.8 -2.25,-8.75 q -0.45,3.85 -3.3,7.2 -1.9,2.25 -5.5,4.95 l 0.45,2.2 0.85,2.6 0.05,0.15 q 0.45,1.5 0.5,2.6 l 0.1,0.6 0.15,0.3 0.1,0.15 0.7,3 0.05,0.2 v 0.75 q -0.05,0.4 -0.45,0.65 -0.35,0.25 -0.75,0.2 -0.4,-0.1 -0.65,-0.4 l -0.25,-0.7 0.05,-0.3 v -0.35 l 0.05,-0.1 -0.1,-0.55 -0.25,-1.2 -0.8,-3.6 -0.75,-3.15 -0.5,-2 q -2.95,2.05 -4.2,3.5 -1.15,1.35 -2.55,4 -0.9,1.7 -1,2.7 l 0.3,2.7 0.3,1.4 q 0.25,1.45 0.2,2.55 0,0.8 -0.15,1.35 l -0.8,1.85 -0.7,1.15 -0.4,0.65 q -2,3.2 -2.25,5.7 v 1.45 l 0.45,2.75 0.7,2.5 0.45,1.65 0.2,0.95 3.1,-4.85 q 2.2,-3.9 4.75,-10.1 1.1,-2.7 2,-3.8 0.4,-0.6 0.9,-0.55 0.45,0.15 0.55,0.7 l -0.15,0.9 -2.15,6.15 q -2.95,7.8 -6.45,13.5 m -9.65,-62.7 -0.35,-1.35 q -0.55,-1.3 -1.85,-3 l -2.85,-3.15 -9.75,-10.5 q -0.3,1.45 0.35,3.3 l 1.45,3.1 1.65,3.15 1.3,1.8 1.35,1.75 q 0.85,1.3 2.65,5.9 1.4,3.75 3.2,5.4 l 2.05,1.55 0.3,0.2 4.45,2.7 -1.6,-3.05 -1.3,-1 -2.4,-2.65 -1.25,-2.1 -1.3,-2.05 -1.75,-2.3 -0.05,-0.05 -0.95,-1.85 -0.1,-0.45 q 0.1,-0.45 0.5,-0.35 l 0.45,0.35 1,1.25 3.4,4.3 0.85,1.55 0.8,0.8 0.65,0.55 -0.55,-2.2 -0.35,-1.6 m 19.2,-8 0.6,-0.9 4.2,-6.45 1.9,-3 -1,0.2 -5.85,0.65 q -0.4,5.1 -1.55,7.55 -0.45,1.05 -3,4.8 -2,2.85 -2.3,5 6.25,-2.45 13.65,-8.5 l 3.45,-3.15 2.45,-3.1 2.5,-3.45 0.6,-0.6 0.35,-0.05 -0.3,-2.2 -0.2,0.05 -2.4,0.7 -2.35,0.85 -0.3,0.1 -0.9,0.35 -1.65,2.35 -1.8,2.35 -3.4,5.25 -1,1.2 -1.4,1.55 -1.35,1.35 -0.45,0.25 q -0.4,-0.1 -0.3,-0.5 l 0.3,-0.5 1.5,-2.15 m -19.2,19.55 -0.5,-0.3 0.2,0.85 q 0.65,3.5 1,6.4 0.25,2.75 0.2,5 l -0.05,0.9 -0.25,3.1 q -0.2,3 0.1,7.95 l 0.05,0.6 0.2,3.9 q 0,0.85 -0.3,1.05 l 0.9,3.1 q 0.3,0.9 0.45,1.75 v -0.25 l 0.25,-1.35 v -2.45 l 0.3,-2.4 0.2,-1.95 0.4,-1.45 0.1,-1.3 0.25,-1.7 V 13 q 0,-0.3 0.35,-0.4 0.15,0.65 0.05,2.45 l -0.15,2 -0.1,4.35 0.05,4.1 0.3,-0.5 1.1,-1.45 q 0.55,-0.9 0.75,-1.65 0.35,-1.25 -0.25,-3.35 l -0.75,-3.4 q -0.05,-1.7 0.95,-4 L -22.1,8.9 -21.35,7.75 -20.2,6.2 -21.3,-0.15 Q -21.55,-2 -22.1,-3.1 l -0.35,-0.6 -0.3,-0.4 -1.8,-1.3 -4.5,-2.5 m 28.1,-11.7 0.05,-1.5 0.05,-0.2 0.15,-1.4 0.05,-0.65 q 0.1,-0.45 0.45,-0.35 l 0.4,0.75 0.05,1 -0.15,0.85 -0.05,1.3 v 0.1 l -0.3,6 -0.15,0.6 -0.1,1 1.15,4.3 1.45,7.75 0.5,4.2 L 3.15,3.7 4.5,2.65 5.15,2.1 6.25,1.15 Q 6.15,0.6 6.35,-0.2 L 6.6,-4 v -7.35 L 6.55,-20.4 v -4.4 l -1.2,-0.45 h -0.1 q -0.75,-0.2 -1.1,-0.5 l -0.2,-0.2 Q 3.5,-26.5 3.7,-27.3 l 0.2,-0.65 1.7,-1.65 0.95,-0.9 Q 6.9,-31 7,-32.05 7.1,-33.8 6.4,-37.1 q -1.15,3.6 -4.05,7.05 l -2.7,2.8 -3.65,3.15 -0.35,0.3 -1.65,1.3 -0.95,0.65 -1.1,0.75 q 0.15,0.65 0.05,1.85 l 0.05,0.3 0.05,2.95 v 1.35 l -0.3,1.85 -0.1,0.3 -0.45,1.3 -0.4,2.2 v 0.05 l -0.35,2.3 -0.85,2.45 -0.55,1.55 -0.45,1.2 -0.2,0.65 -0.1,0.25 0.1,-0.1 0.1,-0.05 0.9,-0.6 q 1.7,-1.2 2.7,-2.4 2.2,-2.55 2.85,-6.35 0.25,-1.85 0.2,-4 v -0.5 l 0.15,-1.4 0.55,-0.8 q 0.15,-0.15 0.35,-0.25 l 0.45,-0.05 q 0.95,0 1.55,1.35 l 0.15,0.35 0.45,1.25 v -0.05 l 0.05,-0.65 -0.05,-1.85 0.05,-0.45 0.1,-1 0.05,-1.5 m 22.2,-3.05 0.95,-2.85 0.35,-0.35 q 0.3,0.05 0.15,0.5 l -0.5,1.9 -0.35,1.35 -0.3,1.3 -0.9,3.6 0.1,-0.1 1.05,-0.65 1.1,-0.7 1.5,-0.95 0.9,-0.6 0.2,-0.2 0.25,-0.25 0.4,-0.1 q 1.55,-9.9 1.45,-22.1 l -5.25,7.75 q -3.6,5.35 -5.05,8.25 v 0.4 l 0.05,0.9 0.1,0.4 0.1,0.75 0.2,0.45 0.1,0.75 0.05,0.7 0.3,0.65 v 0.05 l 0.1,0.7 0.3,0.8 0.05,0.15 0.5,2.15 0.05,1.45 q -0.05,0.5 -0.3,0.65 l -0.4,0.05 -0.2,-0.1 -0.3,-0.4 -0.1,-0.7 -0.2,-0.95 -0.15,-0.55 -0.1,-0.6 -0.35,-1.15 -0.05,-0.25 -0.35,-1.35 -0.2,-0.6 0.05,-0.8 -0.05,-0.8 -0.1,-0.7 -0.55,1.45 -1.35,3.7 -1.75,5.4 -0.7,2.2 -0.75,2.65 -0.15,0.55 -1.05,3.7 -0.7,1.4 -0.1,0.1 v 1.4 0.35 l 0.9,-1 q 3.3,-3.75 5.75,-8.2 l 1,-1.35 q 0.4,-0.3 0.75,-0.4 l 0.4,-0.1 0.95,-2.9 2.2,-6.7 v -0.1 m -1.05,7.55 -0.35,1.5 -0.6,1.55 q 0.25,0.7 0.1,1.8 l -1,5.4 -0.85,5.4 -0.05,2.1 -0.1,1.85 -0.05,1.3 0.7,-1.2 0.45,-0.8 1.45,-3.05 2.85,-7.2 0.2,-0.65 q 1.55,-4.8 2.55,-10.05 l 0.15,-0.8 0.35,-1.8 -0.4,0.35 -1.45,0.95 -1.15,0.8 -1.5,0.95 -0.65,0.3 -0.35,-0.1 -0.25,1 -0.05,0.4 m 18.1,5.3 v -1.6 l -0.05,-4.9 q 0.1,-1.9 0.75,-4.7 l 1,-4.65 -3.5,3.05 q -2.2,1.8 -3.15,3.3 -1.05,1.65 -1.95,5.2 -0.3,1.25 -0.15,1.85 l 0.7,1.2 1,1 0.45,0.75 0.05,0.6 v 0.3 q 0.15,0.65 -0.55,1.15 L 31.6,-6.75 30,-6.1 29.45,-5.9 27.4,-5.65 27,-4.2 26.5,-2.75 25.45,0.1 28.2,-3.75 q 0.95,-1.45 1.9,-1.35 0.65,0.05 1,0.85 l 0.1,0.3 -0.1,1.7 -1.4,7.55 -0.1,0.35 -1.6,7.4 -0.5,2.15 -0.05,0.2 4.05,-11.35 1,-2.85 0.4,-0.5 0.45,0.35 -0.05,0.6 -0.65,2.4 -1.8,5.55 -2.4,6.9 -2.2,5.8 -0.8,1.75 -0.6,2.4 -0.75,2.5 -0.4,1.1 q -0.9,2.4 -2.15,4.6 l -1.3,1.95 0.15,-0.15 1.45,-1.4 2.25,-2.5 0.15,-0.35 1.6,-2.3 1.5,-1.95 1.55,-2.75 1.05,-2.15 q 2.95,-6.2 5.4,-15.6 l 0.95,-3.75 0.25,-1 q 1.6,-7.2 1.75,-12.5 M 12.95,9.4 13.15,6 13.25,2.25 Q 13.3,0 13.5,-1.5 11.7,1.4 6.95,5.35 l -1.5,1.3 q -3.9,3.35 -5.4,5.3 -1.1,1.55 -2.9,4.85 -1.45,2.75 -1.95,4.35 v 0.15 h -0.05 l -0.35,1.9 -0.45,3.7 -0.3,2.35 q -0.3,1.95 -0.9,3.2 l -1.4,2.3 -1.55,2.2 q -1,1.4 -1,2.4 l 0.55,2.15 q 0.3,0.85 0.3,1.5 L -1.3,28.55 1.6,22.6 1.55,22.5 1.4,21.7 v -0.05 l 0.1,-1.2 0.15,-1.5 V 18.9 l -0.2,-0.45 v -0.5 L 1.3,17.1 V 16.3 L 1,15.4 1.05,14.35 V 14.3 l -0.1,-1.35 v -0.9 l 0.35,-0.3 0.5,0.05 0.45,0.7 0.15,0.3 0.25,1.15 0.05,0.9 v 0.1 l 0.35,1.15 0.05,0.75 0.1,0.5 0.05,0.35 0.2,1.1 1.35,-2.5 1.45,-2.75 Q 6.6,12.75 7.05,13 7.5,13.2 7.15,14 L 6.35,15.85 3.8,21.5 3.55,22.65 3.1,23.1 2,25.5 l -2.25,4.85 -3.85,6.9 -1.75,3.6 2.75,-1.6 1.4,-0.9 2.55,-1.95 Q 5.65,32.3 8.7,26.05 l 0.9,-2 0.85,-2.15 q 1.95,-5.7 2.5,-12.5 m -42.25,20.55 0.25,-1.65 q 0,-0.9 -0.6,-2.6 -3.2,-9.6 -5.7,-14.55 -1.4,5.15 -1.9,11.85 l -0.25,3.95 q -0.1,4.4 0.95,6.8 l 0.3,0.55 1.5,2.1 0.1,0.1 -0.1,-2.05 0.1,-3.2 V 30 q 0.3,-0.85 0.95,-0.7 0.45,0.15 0.6,0.65 0.45,0.85 0.6,2.1 l 0.1,2.25 0.25,2.7 2.3,-5.6 0.55,-1.45"
         fill="#000000"
         fill-rule="evenodd"
         stroke="none"
         id="path1" />
      <path
         d="M 21.35,43.95 21.1,43.6 q -0.55,-0.9 -0.2,-2.25 l 0.45,-1 -0.25,1.25 q -0.1,0.85 0.35,1.1 0.6,0.3 1.2,-0.8 1.75,-4.75 3.05,-6.9 l 1.25,-1.75 0.65,-0.95 0.6,-0.75 q 0.85,-0.5 1.75,-0.5 h 0.65 q 0.7,0.15 1.2,0.55 l 0.15,0.15 0.1,0.1 q -0.95,3.35 -2.65,6.5 l -1.7,2.6 -2.1,1.85 -0.6,0.45 2.8,-4.85 0.3,-0.75 q 0,-0.5 -0.3,-0.7 l -0.5,-0.05 -0.35,0.25 q -0.25,0.2 -0.55,0.75 -0.55,0.8 -2.1,2.05 l -0.75,0.95 -2.15,2.9 -0.05,0.15 M 0.75,45.9 0.3,45.25 0.25,45.1 0.9,45.15 1.4,44.85 1.6,44.25 1.35,43.7 0.5,42.65 0.6,42.35 q 2.55,-1.8 4.9,-4.15 3.4,-3.45 5.8,-7.7 l 0.75,-1.35 0.05,-0.05 v -0.05 l 2.85,-3.6 q 1.7,-2.1 3.2,-3.25 1.3,-1.05 2.5,-0.9 0.8,0.1 1.4,0.7 l 0.05,0.05 0.45,0.6 0.2,0.45 -0.9,3.95 -0.7,2.1 q -1.9,4.95 -5.9,8.9 Q 11.3,42 6.4,43.85 l 5.7,-6.8 4.55,-6.85 q 0.6,-0.95 0.05,-1.25 -0.45,-0.25 -1.1,0.5 -2.9,4 -8.2,9.5 L 0.75,45.9 m -19.7,-2.5 -0.45,-0.15 q 3.5,-5.7 6.45,-13.5 l 2.15,-6.15 0.15,-0.9 q -0.1,-0.55 -0.55,-0.7 -0.5,-0.05 -0.9,0.55 -0.9,1.1 -2,3.8 -2.55,6.2 -4.75,10.1 l -3.1,4.85 -0.2,-0.95 -0.45,-1.65 -0.7,-2.5 -0.45,-2.75 1.1,-2.85 q 0.8,-1.7 2.4,-4.1 l 2.75,-3.9 0.1,-0.15 0.1,-0.1 0.45,-0.6 q 3.2,-4.15 5.55,-5.75 l 0.15,-0.1 1,-0.5 -0.05,0.3 0.25,0.7 q 0.25,0.3 0.65,0.4 0.4,0.05 0.75,-0.2 0.4,-0.25 0.45,-0.65 V 15.2 l 0.15,0.05 Q -7.35,15.5 -7,16 l -0.95,2.2 Q -9,20.75 -9.35,23.05 L -9.7,27.1 q -0.2,2.4 -0.9,3.9 l -2.5,3.85 q -1.65,2.25 -1.75,4 l 0.15,1.45 -0.35,0.15 -1.1,0.95 -1.4,0.7 q -0.95,0.5 -1.25,1 l -0.15,0.3 m -9.4,-27.4 0.1,-0.6 0.6,-6.5 0.4,-4.3 0.3,-2.2 q 0.5,-2.25 1.45,-3.2 l 0.15,-0.1 q 0.6,-0.55 1.4,-0.75 0.95,-0.2 1.65,0.35 1,0.75 1,3.2 l -0.05,5.85 -0.75,1.15 -1.15,2.25 q -1,2.3 -0.95,4 l 0.75,3.4 q 0.6,2.1 0.25,3.35 -0.2,0.75 -0.75,1.65 l -1.1,1.45 -0.3,0.5 -0.05,-4.1 0.1,-4.35 0.15,-2 q 0.1,-1.8 -0.05,-2.45 -0.35,0.1 -0.35,0.4 v 0.55 l -0.25,1.7 -0.1,1.3 -0.4,1.45 -0.2,1.95 -0.3,2.4 v 2.45 l -0.25,1.35 v 0.25 q -0.15,-0.85 -0.45,-1.75 l -0.9,-3.1 q 0.3,-0.2 0.3,-1.05 l -0.2,-3.9 -0.05,-0.6 m 28.4,-35.8 h 0.2 q 1,-0.05 1.7,0.55 0.7,0.6 1.05,1.9 l 0.65,2.75 q 0.95,4.65 1.1,7.55 L 4.8,-2.5 5.15,2.1 4.5,2.65 3.15,3.7 2.6,4.15 2.1,-0.05 0.65,-7.8 l -1.15,-4.3 0.1,-1 0.15,-0.6 0.3,-6 v -0.1 m -10.4,15.6 0.1,-0.25 1.8,-2.6 0.35,-0.6 1.3,-1.55 q 0.75,-0.75 1.3,-0.85 H -5 q -0.65,3.8 -2.85,6.35 -1,1.2 -2.7,2.4 l -0.35,-0.8 v -0.55 l 0.55,-1.55 m 7.05,-12.85 0.1,-0.25 q 0.5,-1.3 1.65,-2 l 0.6,-0.3 -0.05,1.5 -0.1,1 -0.05,0.45 0.05,1.85 -0.05,0.65 v 0.05 l -0.45,-1.25 -0.15,-0.35 q -0.6,-1.35 -1.55,-1.35 m 22.35,1.2 -0.95,2.9 -0.4,0.1 q -0.35,0.1 -0.75,0.4 l -1,1.35 q -2.45,4.45 -5.75,8.2 l -0.9,1 v -0.35 -1.4 l 0.1,-0.1 0.7,-1.4 1.05,-3.7 0.15,-0.55 3.3,-3.85 q 1.25,-1.65 2.25,-2.25 0.7,-0.4 1.45,-0.45 l 0.2,0.1 0.4,-0.05 0.15,0.05 m -1.7,20.35 0.1,-1.85 0.05,-2.1 0.85,-5.4 1,-5.4 q 0.15,-1.1 -0.1,-1.8 l 0.6,-1.55 0.35,-1.5 0.4,0.75 0.15,1.65 q 0.15,6.05 -0.7,12.35 L 19.9,0.75 18.45,3.8 18,4.6 17.35,4.5 m 11.55,20.7 -1.55,2.75 -1.5,1.95 -1.6,2.3 -0.15,0.35 -2.25,2.5 -0.3,-0.4 q 1.25,-2.2 2.15,-4.6 l 0.4,-1.1 0.75,-2.5 0.6,-2.4 0.8,-1.75 2.2,-5.8 2.4,-6.9 1.8,-5.55 L 33,4.2 q 0.8,0.35 1.1,1.1 0.35,0.85 -0.05,2.6 -1.4,5.85 -3.1,10.6 -1.15,3 -1.45,4.3 l -0.6,2.4 M 31.5,4.05 27.45,15.4 27.5,15.2 28,13.05 29.6,5.65 29.7,5.3 q 0.85,-1.05 1.7,-1.25 h 0.1 M 0.85,36.4 l -2.55,1.95 -1.4,0.9 -2.75,1.6 1.75,-3.6 3.85,-6.9 L 2,25.5 3.1,23.1 3.55,22.65 3.8,21.5 6.35,15.85 q 1.35,-0.05 2.15,1 l 0.3,0.55 q 0.45,1.15 -0.3,3.2 L 8.45,20.75 Q 7.1,24.6 3.8,31 L 0.85,36.4 M 4.8,16.3 3.45,18.8 3.25,17.7 3.2,17.35 3.35,17.2 4.8,16.3 m -3.15,2.6 v 0.05 l -0.15,1.5 -0.1,1.2 V 21.7 L 1.55,22.5 1.6,22.6 -1.3,28.55 -9.95,43 q 0,-0.65 -0.3,-1.5 l -0.55,-2.15 q 0,-1 1,-2.4 l 1.55,-2.2 1.4,-2.3 q 0.6,-1.25 0.9,-3.2 l 6,-8.4 1.6,-1.95 m -38.9,4.1 q 0.35,-1.4 0.9,-1.95 0.55,-0.6 1.45,-0.7 0.9,-0.15 1.6,0.3 0.75,0.45 1.3,1.65 l 0.6,2.05 0.4,1.15 0.7,1 q 0.9,1.3 0.95,2.7 l 0.05,0.75 -0.55,1.45 -2.3,5.6 -0.25,-2.7 -0.1,-2.25 q -0.15,-1.25 -0.6,-2.1 -0.15,-0.5 -0.6,-0.65 -0.65,-0.15 -0.95,0.7 v 1.25 l -0.1,3.2 0.1,2.05 -0.1,-0.1 -1.5,-2.1 -0.3,-0.55 q -1.05,-2.4 -0.95,-6.8 L -37.25,23"
         fill="#e1c8a8"
         fill-rule="evenodd"
         stroke="none"
         id="path2" />
      <path
         d="M -23.75,33.45 V 32 q 0.25,-2.5 2.25,-5.7 l 0.4,-0.65 0.7,-1.15 0.8,-1.85 q 0.15,-0.55 0.15,-1.35 l 5.85,-5.45 3.15,-2.65 0.25,1.2 0.1,0.55 -0.05,0.1 v 0.35 l -1,0.5 -0.15,0.1 q -2.35,1.6 -5.55,5.75 l -0.45,0.6 -0.1,0.1 -0.1,0.15 -2.75,3.9 q -1.6,2.4 -2.4,4.1 l -1.1,2.85 M -8.1,15.2 -8.15,15 l -0.7,-3 -0.1,-0.15 1.8,-1.7 q 1.35,-1.35 2.2,-1.6 1.2,-0.35 2.2,0.3 0.05,0 0.15,0.1 L -4.75,12 -7,16 Q -7.35,15.5 -7.95,15.25 L -8.1,15.2 M -28.35,-0.95 q 0.85,-2.05 1.75,-2.7 1.5,-1.1 3.35,-0.45 l 0.8,0.4 0.35,0.6 q 0.55,1.1 0.8,2.95 l 1.1,6.35 -1.15,1.55 0.05,-5.85 q 0,-2.45 -1,-3.2 -0.7,-0.55 -1.65,-0.35 -0.8,0.2 -1.4,0.75 l -0.15,0.1 q -0.95,0.95 -1.45,3.2 l -0.3,2.2 -0.4,4.3 -0.6,6.5 -0.1,0.6 q -0.3,-4.95 -0.1,-7.95 l 0.25,-3.1 0.05,-0.9 q 0.05,-2.25 -0.2,-5 m 28.4,-18.85 0.05,-1.3 0.15,-0.85 -0.05,-1 -0.4,-0.75 q -0.35,-0.1 -0.45,0.35 l -0.05,0.65 -0.15,1.4 -0.05,0.2 -0.05,1.5 -0.6,0.3 q -1.15,0.7 -1.65,2 l -0.1,0.25 -0.45,0.05 q -0.2,0.1 -0.35,0.25 l -0.55,0.8 -0.15,1.4 v 0.5 q 0.05,2.15 -0.2,4 h -0.5 q -0.55,0.1 -1.3,0.85 l -1.3,1.55 -0.35,0.6 -1.8,2.6 -0.1,0.25 0.85,-2.45 0.35,-2.3 V -9 l 0.4,-2.2 0.45,-1.3 0.85,-2.1 q 1.7,-4.2 3.2,-6.5 l 0.8,-1.15 q 1.5,-1.75 2.85,-1.95 1.5,-0.15 2.8,1.05 1,0.95 1.7,2.6 1.55,3.25 2.7,9.2 V -4 L 6.35,-0.2 Q 6.15,0.6 6.25,1.15 L 5.15,2.1 4.8,-2.5 4.75,-7.05 Q 4.6,-9.95 3.65,-14.6 L 3,-17.35 q -0.35,-1.3 -1.05,-1.9 -0.7,-0.6 -1.7,-0.55 H 0.05 M -10.9,-2.65 v 0.55 l 0.35,0.8 -0.9,0.6 -0.1,-0.1 0.2,-0.65 0.45,-1.2 M 21.85,-22.1 q 0.8,0.85 0.95,2.85 l 0.1,0.6 -1.1,0.7 -1.05,0.65 -0.1,0.1 0.9,-3.6 0.3,-1.3 m -3.65,0.25 0.35,-0.35 q 1.25,-0.8 2.35,-0.5 l 0.35,0.15 -2.2,6.7 -0.15,-0.05 q 0.25,-0.15 0.3,-0.65 l -0.05,-1.45 -0.5,-2.15 -0.05,-0.15 -0.3,-0.8 -0.1,-0.7 v -0.05 m -6.9,12.45 0.75,-2.65 0.7,-2.2 3.75,-5.6 0.55,-0.7 0.05,0.25 0.35,1.15 0.1,0.6 0.15,0.55 0.2,0.95 0.1,0.7 0.3,0.4 q -0.75,0.05 -1.45,0.45 -1,0.6 -2.25,2.25 l -3.3,3.85 m 8.6,10.15 0.15,-1.1 q 0.85,-6.3 0.7,-12.35 l -0.15,-1.65 -0.4,-0.75 0.05,-0.4 0.25,-1 0.35,0.1 0.65,-0.3 1.5,-0.95 0.1,1.3 0.2,2.55 -0.15,3.35 -0.3,3.25 -0.1,0.75 -2.85,7.2 m 16.65,1.95 -0.25,1 -0.95,3.75 q -2.45,9.4 -5.4,15.6 l -1.05,2.15 0.6,-2.4 q 0.3,-1.3 1.45,-4.3 1.7,-4.75 3.1,-10.6 Q 34.45,6.15 34.1,5.3 33.8,4.55 33,4.2 L 32.65,4.05 33.3,1.65 33.35,1.05 32.9,0.7 l -0.4,0.5 -1,2.85 h -0.1 q -0.85,0.2 -1.7,1.25 l 1.4,-7.55 0.1,-1.7 -0.1,-0.3 Q 32,-6 32.9,-6.5 l 1.65,-0.2 q 0.95,0.15 1.5,0.85 0.8,0.95 0.7,3.45 l -0.2,5.1 M 25.4,10.75 25.7,9.35 26.05,7.9 25.4,10.75 M 15.25,21 l 3.3,-3.7 0.95,-0.9 q 1.25,-0.75 2.45,0 0.8,0.5 1.2,1.4 l 0.4,1.25 -0.35,1.55 -0.4,2.25 -0.05,0.25 -0.2,-0.45 L 22.1,22.05 22.05,22 q -0.6,-0.6 -1.4,-0.7 -1.2,-0.15 -2.5,0.9 -1.5,1.15 -3.2,3.25 l -2.85,3.6 v 0.05 l 0.05,-0.2 Q 13.8,25.7 14.9,22.1 L 15.25,21 m -4.8,0.9 -0.85,2.15 -0.9,2 Q 5.65,32.3 0.85,36.4 L 3.8,31 Q 7.1,24.6 8.45,20.75 L 8.5,20.6 Q 9.25,18.55 8.8,17.4 L 8.5,16.85 Q 7.7,15.8 6.35,15.85 L 7.15,14 Q 7.5,13.2 7.05,13 6.6,12.75 6.25,13.55 L 4.8,16.3 3.35,17.2 3.2,17.35 3.1,16.85 3.05,16.1 2.7,14.95 v -0.1 L 2.65,13.95 2.4,12.8 5.2,9.85 Q 6.35,8.6 7.4,8.3 l 1.5,0.1 q 0.8,0.35 1.2,1 0.55,0.9 0.55,2.5 0.25,5.75 -0.2,10 m -9.4,-7.6 v 0.05 L 1,15.4 1.3,16.3 v 0.8 l 0.15,0.85 v 0.5 l 0.2,0.45 -1.6,1.95 -6,8.4 0.3,-2.35 0.45,-3.7 0.35,-1.9 h 0.05 l 0.75,-1 5.1,-6 m 31.5,11.5 0.6,0.15 q -0.25,2.55 -0.85,5.1 l -0.25,0.8 -0.1,-0.1 -0.15,-0.15 q -0.5,-0.4 -1.2,-0.55 h -0.65 q -0.9,0 -1.75,0.5 l 4.35,-5.75 m -61.85,4.15 -0.05,-0.75 q -0.05,-1.4 -0.95,-2.7 l -0.7,-1 -0.4,-1.15 -0.6,-2.05 q -0.55,-1.2 -1.3,-1.65 -0.7,-0.45 -1.6,-0.3 -0.9,0.1 -1.45,0.7 -0.55,0.55 -0.9,1.95 0.5,-6.7 1.9,-11.85 2.5,4.95 5.7,14.55 0.6,1.7 0.6,2.6 l -0.25,1.65"
         fill="#c1a185"
         fill-rule="evenodd"
         stroke="none"
         id="path3" />
      <path
         d="m -19.45,21.3 q 0.05,-1.1 -0.2,-2.55 l 1,-1.35 q 3.25,-3.95 7.4,-7.8 l 0.8,3.6 -3.15,2.65 -5.85,5.45 m 10.5,-9.45 -0.15,-0.3 -0.1,-0.6 Q -9.25,9.85 -9.7,8.35 L -9.75,8.2 -5,4.2 q 1.6,-1.3 2.65,-1.3 1.15,0 2.05,1 l 0.6,0.8 0.05,1.25 -1.2,0.95 -1.7,1.95 -0.1,-0.05 -0.1,0.05 q -1,-0.65 -2.2,-0.3 -0.85,0.25 -2.2,1.6 l -1.8,1.7 m -20.9,-23.35 -1.45,-1.6 -2.2,-3.2 q -1.5,-2.55 -1.45,-4.35 l 0.25,-1.1 1.75,2.3 1.3,2.05 1.25,2.1 2.4,2.65 1.3,1 1.6,3.05 -4.45,-2.7 -0.3,-0.2 m -4,-11.35 0.7,-0.3 q 1.05,-0.25 1.8,0.35 l 1,1.2 1.3,2.15 0.35,1.6 0.55,2.2 -0.65,-0.55 -0.8,-0.8 -0.85,-1.55 -3.4,-4.3 m 29.7,-14.75 1,-0.2 -1.9,3 -4.2,6.45 -0.6,0.9 v -0.05 l 0.55,-1.5 1.6,-2.6 3.15,-5.15 0.4,-0.85 m -5.4,11.7 1.4,-1.55 1,-1.2 3.4,-5.25 1.8,-2.35 1.65,-2.35 0.9,-0.35 -0.1,1.1 -0.4,1.55 -0.7,1.35 -2.2,3.6 q -1.4,2.1 -4.55,5.35 l -0.8,0.6 q -0.85,0.25 -1.4,-0.5 m -19.8,18.55 0.2,-0.5 0.1,-0.05 4.5,2.5 1.8,1.3 0.3,0.4 -0.8,-0.4 q -1.85,-0.65 -3.35,0.45 -0.9,0.65 -1.75,2.7 -0.35,-2.9 -1,-6.4 m 35.95,-4 q -1.15,-5.95 -2.7,-9.2 -0.7,-1.65 -1.7,-2.6 -1.3,-1.2 -2.8,-1.05 -1.35,0.2 -2.85,1.95 l -0.8,1.15 q -1.5,2.3 -3.2,6.5 l -0.85,2.1 0.1,-0.3 0.3,-1.85 V -16 l -0.05,-2.95 1.65,-3.15 0.3,-0.4 1.65,-1.3 0.35,-0.3 3.65,-3.15 1.8,-0.5 2.25,0.45 q -0.2,0.8 0.25,1.35 l 0.2,0.2 q 0.35,0.3 1.1,0.5 l 0.3,0.95 1,3.9 0.05,9.05 m 15.25,-10.75 0.35,-1.35 0.5,-1.9 q 0.15,-0.45 -0.15,-0.5 l -0.35,0.35 -0.95,2.85 -0.05,-0.35 -0.3,0.3 q -1.1,-0.3 -2.35,0.5 l -0.35,0.35 -0.3,-0.65 -0.05,-0.7 -0.1,-0.75 -0.2,-0.45 -0.1,-0.75 0.65,-0.8 q 1.7,-1.9 2.85,-2.4 l 1.85,-0.25 q 1,0.2 1.55,0.95 l 0.5,1.7 0.65,5.55 -0.2,0.2 -0.9,0.6 -1.5,0.95 -0.1,-0.6 q -0.15,-2 -0.95,-2.85 m -9.1,7.85 1.75,-5.4 1.35,-3.7 0.65,-0.75 0.05,0.8 -0.05,0.8 0.2,0.6 0.35,1.35 -0.55,0.7 -3.75,5.6 m 10.25,-3.4 1.15,-0.8 1.45,-0.95 0.05,1.45 -0.15,0.8 q -1,5.25 -2.55,10.05 l -0.1,-0.1 0.3,-3.25 0.15,-3.35 -0.2,-2.55 -0.1,-1.3 m 10.4,8.35 0.95,-0.8 1.35,-0.95 1.4,0.15 1.1,0.95 0.1,0.15 q -0.15,5.3 -1.75,12.5 l 0.2,-5.1 q 0.1,-2.5 -0.7,-3.45 -0.55,-0.7 -1.5,-0.85 l -1.65,0.2 q -0.9,0.5 -1.8,2.25 -0.35,-0.8 -1,-0.85 -0.95,-0.1 -1.9,1.35 L 25.45,0.1 26.5,-2.75 27,-4.2 28.35,-5.2 29,-5.45 29.45,-5.9 30,-6.1 l 1.6,-0.65 1.3,-0.5 q 0.7,-0.5 0.55,-1.15 V -8.7 L 33.4,-9.3 m -17.1,25.7 2.95,-2.7 q 1,-0.8 1.6,-1.1 l 1.85,-0.2 q 0.8,0.2 1.45,1.05 l 0.5,0.75 -1.1,4.85 -0.4,-1.25 q -0.4,-0.9 -1.2,-1.4 -1.2,-0.75 -2.45,0 l -0.95,0.9 -3.3,3.7 1.05,-4.6 M 5.45,6.65 6.7,5.65 Q 8,4.7 8.65,4.4 q 1.4,-0.45 2.3,0 1.2,0.65 1.7,3.25 l 0.3,1.75 q -0.55,6.8 -2.5,12.5 0.45,-4.25 0.2,-10 0,-1.6 -0.55,-2.5 Q 9.7,8.75 8.9,8.4 L 7.4,8.3 Q 6.35,8.6 5.2,9.85 L 2.4,12.8 2.25,12.5 1.8,11.8 1.3,11.75 0.95,12.05 v 0.9 l 0.1,1.35 -5.1,6 -0.75,1 v -0.15 q 0.5,-1.6 1.95,-4.35 1.8,-3.3 2.9,-4.85 1.5,-1.95 5.4,-5.3 m 27.1,19.15 0.65,-0.9 -0.05,1.05 -0.6,-0.15"
         fill="#b97e6e"
         fill-rule="evenodd"
         stroke="none"
         id="path4" />
      <path
         d="m -19.65,18.75 -0.3,-1.4 -0.3,-2.7 q 0.1,-1 1,-2.7 1.4,-2.65 2.55,-4 1.25,-1.45 4.2,-3.5 l 0.5,2 0.75,3.15 q -4.15,3.85 -7.4,7.8 l -1,1.35 M -9.75,8.2 -10.6,5.6 -11.05,3.4 q 3.6,-2.7 5.5,-4.95 2.85,-3.35 3.3,-7.2 L -0.05,2.8 0.3,4.7 -0.3,3.9 q -0.9,-1 -2.05,-1 -1.05,0 -2.65,1.3 l -4.75,4 m -20.1,-19.7 -2.05,-1.55 q -1.8,-1.65 -3.2,-5.4 -1.8,-4.6 -2.65,-5.9 l -1.35,-1.75 -1.3,-1.8 -1.65,-3.15 -1.45,-3.1 q -0.65,-1.85 -0.35,-3.3 l 9.75,10.5 2.85,3.15 q 1.3,1.7 1.85,3 l 0.35,1.35 -1.3,-2.15 -1,-1.2 q -0.75,-0.6 -1.8,-0.35 l -0.7,0.3 -1,-1.25 -0.45,-0.35 q -0.4,-0.1 -0.5,0.35 l 0.1,0.45 0.95,1.85 0.05,0.05 -0.25,1.1 q -0.05,1.8 1.45,4.35 l 2.2,3.2 1.45,1.6 m 25.7,-26.1 -0.4,0.85 -3.15,5.15 -1.6,2.6 -0.55,1.5 v 0.05 l -1.5,2.15 -0.3,0.5 q -0.1,0.4 0.3,0.5 l 0.45,-0.25 1.35,-1.35 q 0.55,0.75 1.4,0.5 l 0.8,-0.6 q 3.15,-3.25 4.55,-5.35 l 2.2,-3.6 0.7,-1.35 0.4,-1.55 0.1,-1.1 0.3,-0.1 2.35,-0.85 2.4,-0.7 0.2,-0.05 0.3,2.2 -0.35,0.05 -0.6,0.6 -2.5,3.45 -2.45,3.1 -3.45,3.15 q -7.4,6.05 -13.65,8.5 0.3,-2.15 2.3,-5 2.55,-3.75 3,-4.8 1.15,-2.45 1.55,-7.55 l 5.85,-0.65 m -1.85,15.1 -0.3,0.4 -1.65,3.15 -0.05,-0.3 q 0.1,-1.2 -0.05,-1.85 l 1.1,-0.75 0.95,-0.65 m 31.5,2.1 -0.65,-5.55 -0.5,-1.7 Q 23.8,-28.4 22.8,-28.6 l -1.85,0.25 q -1.15,0.5 -2.85,2.4 l -0.65,0.8 -0.1,-0.4 -0.05,-0.9 v -0.4 q 1.45,-2.9 5.05,-8.25 l 5.25,-7.75 q 0.1,12.2 -1.45,22.1 l -0.4,0.1 -0.25,0.25 m -25.85,-6.85 2.7,-2.8 q 2.9,-3.45 4.05,-7.05 0.7,3.3 0.6,5.05 -0.1,1.05 -0.45,1.55 l -0.95,0.9 -1.7,1.65 -0.2,0.65 -2.25,-0.45 -1.8,0.5 m 5.6,2 h 0.1 l 1.2,0.45 v 4.4 l -1,-3.9 -0.3,-0.95 m 28.15,15.95 -0.45,-0.75 -1,-1 -0.7,-1.2 q -0.15,-0.6 0.15,-1.85 0.9,-3.55 1.95,-5.2 0.95,-1.5 3.15,-3.3 L 40,-25.65 39,-21 q -0.65,2.8 -0.75,4.7 l 0.05,4.9 v 1.6 l -0.1,-0.15 -1.1,-0.95 -1.4,-0.15 -1.35,0.95 -0.95,0.8 m -7.35,17.2 -0.35,1.45 -0.3,1.4 -0.75,3.45 -0.5,-0.75 Q 23.5,12.6 22.7,12.4 l -1.85,0.2 q -0.6,0.3 -1.6,1.1 l -2.95,2.7 0.4,-2.65 Q 17.45,13.5 18.3,12.6 24.4,6.5 27.2,2.7 L 26.05,7.9 M 5.45,6.65 6.95,5.35 Q 11.7,1.4 13.5,-1.5 13.3,0 13.25,2.25 L 13.15,6 12.95,9.4 12.65,7.65 Q 12.15,5.05 10.95,4.4 10.05,3.95 8.65,4.4 8,4.7 6.7,5.65 l -1.25,1"
         fill="#cc6868"
         fill-rule="evenodd"
         stroke="none"
         id="path5" />
    </g>
    <g
       id="sprite1"
       transform="translate(17.4,15.85)">
      <use
         ffdec:characterId="31"
         height="57.200001"
         transform="matrix(0.5366,0,0,0.5366,-16.6582,-14.546)"
         width="70.75"
         xlink:href="#sprite2"
         id="use5" />
    </g>
    <g
       id="sprite2"
       transform="translate(-8.65,-10.35)">
      <use
         ffdec:characterId="30"
         height="57.200001"
         transform="translate(8.65,10.35)"
         width="70.75"
         xlink:href="#shape1"
         id="use6" />
    </g>
    <g
       id="shape1"
       transform="translate(-8.65,-10.35)">
      <path
         d="m 14.8,41.7 q 0.65,-1.75 2.65,-2.5 1.8,-0.8 3.7,-0.25 1.15,0.45 2.25,1.2 l 0.9,0.4 q 1.65,0.9 2.85,2.5 L 37.8,30.1 q 2.35,-2.8 3.75,-3.95 1.5,-1.15 4.25,-2.4 18.2,-8.85 27.65,-12.6 2.15,-0.8 3.25,-0.8 h 0.8 l 1.9,2.4 -0.2,0.8 q -0.2,1.1 -1.55,3 -5.85,8.25 -18.85,23.8 -1.85,2.35 -3.35,3.5 -1.4,1.15 -4.75,2.75 l -15.15,7.15 q 1.2,1.6 1.75,3.4 l 0.2,1 0.55,2.5 q 0.1,1.95 -1.1,3.55 -1.2,1.65 -3.05,1.9 l -1.3,0.05 q -1.65,0.2 -3.45,-0.65 -1.85,-0.9 -3,-2.6 L 25,60.95 23.8,62.1 q -2.6,2.85 -4.3,3.95 -2.85,1.8 -5.5,1.45 l -1.65,-0.5 -1.2,-0.7 -0.2,-0.2 q -1,-0.85 -1.6,-1.9 L 9.25,64 9.15,63.8 8.75,62.4 q -0.2,-0.8 -0.05,-1.7 0.25,-2.65 2.7,-5.05 1.5,-1.3 4.9,-3.15 L 17.7,51.55 16.05,50 q -1.35,-1.5 -1.8,-3.6 -0.4,-1.85 0.25,-3.45 l 0.3,-1.25"
         fill="#000000"
         fill-opacity="0.372549"
         fill-rule="evenodd"
         stroke="none"
         id="path6" />
    </g>
  </defs>
</svg>
