<?xml version="1.0" encoding="UTF-8" standalone="no"?>
<svg
   ffdec:objectType="frame"
   height="69.550003"
   width="83.503426"
   version="1.1"
   id="svg7"
   xmlns:xlink="http://www.w3.org/1999/xlink"
   xmlns="http://www.w3.org/2000/svg"
   xmlns:svg="http://www.w3.org/2000/svg"
   xmlns:ffdec="https://www.free-decompiler.com/flash">
  <g
     transform="translate(46.959524,38.35)"
     id="g1">
    <use
       ffdec:characterId="17"
       height="119.15"
       id="rarity"
       transform="translate(-58.5,-60.65)"
       width="119.15"
       xlink:href="#sprite0" />
    <use
       ffdec:characterId="1325"
       height="69.75"
       transform="translate(-46.95,-38.45)"
       width="83.5"
       xlink:href="#shape0"
       id="use1" />
  </g>
  <defs
     id="defs7">
    <g
       id="shape0"
       transform="translate(45.65,36.55)">
      <path
         d="m 28.1,-32.05 -0.9,0.2 -5.1,1.25 -2.6,0.8 q -2.7,0.9 -8.45,3.35 l -11.25,5.05 0.1,0.25 0.4,1.45 0.6,1.4 0.35,1.3 0.05,0.9 -0.15,1.05 -0.6,1.3 -1.2,0.95 -1.4,0.65 -3.85,1.85 -2.55,1.35 -3.7,2.05 q -1,0.6 -1.6,0.7 h -0.05 q -0.65,0.3 -1.4,0 l -0.65,-0.35 -0.65,-0.5 -3.05,-3.05 Q -30,-2.35 -35.7,7.15 L -33.55,6.5 -31.3,5.75 -28,4.6 -22.6,2.55 q 5.7,-2.3 11.2,-5 6.2,-3.1 12.1,-6.7 Q 5.2,-11.9 9.55,-15 L 16,-19.9 q 4.3,-3.5 8.1,-7.5 l 3.5,-3.95 0.55,-0.65 0.05,-0.1 -0.1,0.05 m 6.55,-2.1 q 0.35,0.75 0.35,1.7 0.75,0.9 1.35,2.55 1.75,4.9 1.45,13.35 -0.2,5.7 -1.3,8.55 -0.7,1.7 -2.65,4.8 -2,3.1 -2.65,4.75 -1.1,2.8 -1.65,10.45 -0.45,6.8 -2.5,10 -2.75,4.25 -9.4,6.5 l -5.6,1.45 -5.65,1.4 -4.65,1.4 -4.7,0.35 L -6,32.2 -8.95,30.85 q -5.3,-2.35 -13.3,-3.6 l -13.8,-1.8 Q -39,24.95 -40.25,24.2 -41.8,23.35 -43,21.45 l -1.8,-3.65 q -0.95,-2.4 -0.85,-3.55 l 0.25,-0.95 q -0.3,-1.6 0.9,-4.1 4.25,-8.25 10.75,-15.15 6.45,-6.9 14.45,-11.7 l 8.5,-4.55 q 11.1,-5.45 18.55,-8.4 10.4,-4.05 19.45,-5.65 l 4.15,-0.2 q 2.4,0.45 3.3,2.3 M 19.6,-9.45 q 0.5,0.65 0.3,1.45 -0.2,0.75 -1.3,1.75 l -3.55,2.8 1.4,1.95 1.2,2 q 1.75,3.4 2.45,7.25 l 0.15,1 0.2,2.8 -0.4,5.65 -0.1,0.75 -0.45,2.65 -0.1,0.35 0.5,-0.3 0.95,-0.85 1.45,-2.05 0.75,-2.15 0.3,-1.45 0.2,-1.35 0.3,-5.15 0.1,-1.05 q 0.2,-3.25 0.85,-5.3 0.65,-2.1 2.35,-5.15 l 2.7,-5.05 q 1.95,-4.35 2.1,-9.2 v -0.25 q 0.15,-3.8 -0.9,-7.4 -3.5,3.8 -8.05,7.95 Q 10.7,-6.9 -6.1,1.65 -20.25,8.85 -38.8,14.9 l -0.95,0.3 0.35,0.85 q 0.5,1.2 1.15,1.8 1.1,1.05 4,1.45 l 4.5,0.55 9.9,1.4 q 8.3,1.35 13.85,3.9 l 2.15,0.9 2.25,0.55 1.4,-0.1 1.75,-0.4 5.9,-1.55 L 7.3,24.2 Q 6.75,22.55 5.7,20.65 L 5.45,20.2 5.2,19.75 5.1,19.6 4.7,19 2.4,15.45 2.1,15 0.25,11.9 0.05,11.55 -1.15,8.8 -2.25,6.05 -5.7,7.65 -12.55,10.5 q -3,1.2 -4.7,1.35 h -0.6 l -0.4,-0.1 q -0.5,-0.25 -0.5,-0.7 l 0.65,-0.8 3.55,-1.75 3.5,-1.8 L 1.1,0.25 8.85,-4.1 q 4.2,-2.55 7.1,-5.15 l 1.65,-1.05 q 1,-0.2 1.75,0.55 l 0.25,0.3 M 14.65,4.6 Q 13.35,1.5 11.2,-0.75 L 11.15,-0.8 8.3,0.85 1.2,4.35 1.25,4.4 q 1.55,2.85 4.5,7.3 l 0.2,0.35 0.45,0.7 2.55,3.8 q 2.45,3.7 3.15,5.4 l 0.4,1.3 2.05,-0.55 0.8,-2.05 Q 16.9,15.2 16,9.45 15.55,6.8 14.65,4.6 m -17.9,-22.45 -0.7,-1.7 q -6.25,3.1 -11.1,6.3 l -1,0.7 0.45,0.8 1.65,1.95 0.3,0.4 10.85,-6.6 0.2,-0.15 -0.65,-1.7"
         fill="#000000"
         fill-rule="evenodd"
         stroke="none"
         id="path1" />
      <path
         d="m 16.45,-1.5 q -0.1,-0.85 0.25,-1.55 0.45,-0.9 1.45,-1.3 l 1.95,-0.1 q 0.95,0.3 1.5,1.2 0.6,0.95 0.4,1.9 -0.05,0.85 -0.75,1.55 -0.7,0.7 -1.8,0.8 -1.05,0.1 -1.8,-0.5 l -1.2,-2 M 20.1,7.75 20.25,8 20.5,8.4 q 0.5,-0.7 1.15,-1.15 1,-0.65 2.1,-0.65 h 0.2 l -0.1,1.05 -0.3,5.15 -0.2,1.35 -0.3,1.45 -0.75,2.15 h -1 l -1.4,2.9 -0.5,0.3 0.1,-0.35 0.45,-2.65 0.1,-0.75 0.4,-5.65 -0.2,-2.8 -0.15,-1 M 0.05,11.55 0.25,11.9 2.1,15 2.4,15.45 4.7,19 4.35,19.35 q -0.9,0.9 -2.05,1.25 -1.3,0.4 -2.4,0 -1.25,-0.45 -2,-1.8 -0.7,-1.25 -0.6,-2.7 0.15,-2.8 2.25,-4.25 l 0.5,-0.3 m 5.05,8.05 0.1,0.15 0.25,0.45 0.25,0.45 q 1.05,1.9 1.6,3.55 l 0.15,0.35 -5.9,1.55 -1.75,0.4 q -0.55,-1.3 -0.15,-2.55 0.45,-1.3 2.3,-2.55 1.9,-1.25 3.4,-1.2 L 5.1,19.6 m 0.65,-7.9 q 0.7,-1.9 2,-3.45 L 6.2,8.45 Q 5.4,8.3 4.8,7.8 3.6,6.85 3.7,5.25 3.7,3.55 4.9,2.65 6.05,1.75 7.6,2.15 9.4,2.6 9.85,4.1 10.15,5.15 9.6,6.45 11.1,5.25 12.8,4.85 L 14.65,4.6 q 0.9,2.2 1.35,4.85 0.9,5.75 -0.65,11.2 l -0.8,2.05 -2.05,0.55 -0.4,-1.3 q -0.7,-1.7 -3.15,-5.4 L 6.4,12.75 5.95,12.05 5.75,11.7"
         fill="#a6a184"
         fill-rule="evenodd"
         stroke="none"
         id="path2" />
      <path
         d="M 1.15,-15.05 1.3,-16.1 1.25,-17 0.9,-18.3 l -0.6,-1.4 -0.4,-1.45 -0.1,-0.25 11.25,-5.05 q 5.75,-2.45 8.45,-3.35 l 2.6,-0.8 5.1,-1.25 0.9,-0.2 0.05,0.05 -0.55,0.65 -3.5,3.95 -1.95,0.7 q -3.05,1.25 -7.8,3.85 l -7.8,4.2 -3.55,2.2 -1.15,0.95 -0.7,0.45 m -17,8.5 -0.85,0.8 -1.3,0.85 -1.4,0.7 -2.8,2.15 -0.9,0.85 q -3.15,3.05 -4.5,5.1 l -0.4,0.7 -3.3,1.15 -2.25,0.75 -2.15,0.65 q 5.7,-9.5 16.15,-17.25 l 3.05,3.05 0.65,0.5 m 32.3,5.05 -1.4,-1.95 3.55,-2.8 q 1.1,-1 1.3,-1.75 0.2,-0.8 -0.3,-1.45 l 8.3,-7.3 q 2.35,-1.95 4.05,-1.6 v 0.25 q -0.15,4.85 -2.1,9.2 l -2.7,5.05 Q 25.45,-0.8 24.8,1.3 24.15,3.35 23.95,6.6 h -0.2 q -1.1,0 -2.1,0.65 Q 21,7.7 20.5,8.4 L 20.25,8 20.1,7.75 Q 19.4,3.9 17.65,0.5 q 0.75,0.6 1.8,0.5 1.1,-0.1 1.8,-0.8 0.7,-0.7 0.75,-1.55 0.2,-0.95 -0.4,-1.9 -0.55,-0.9 -1.5,-1.2 l -1.95,0.1 q -1,0.4 -1.45,1.3 -0.35,0.7 -0.25,1.55 m -34.3,13.35 h 0.6 q 1.7,-0.15 4.7,-1.35 l 6.85,-2.85 3.45,-1.6 1.1,2.75 1.2,2.75 -0.5,0.3 q -2.1,1.45 -2.25,4.25 -0.1,1.45 0.6,2.7 0.75,1.35 2,1.8 1.1,0.4 2.4,0 1.15,-0.35 2.05,-1.25 L 4.7,19 l 0.4,0.6 0.25,0.6 q -1.5,-0.05 -3.4,1.2 -1.85,1.25 -2.3,2.55 -0.4,1.25 0.15,2.55 L -1.6,26.6 -3.85,26.05 -6,25.15 q -5.55,-2.55 -13.85,-3.9 l -9.9,-1.4 q -0.4,-1.2 0.15,-2.15 0.6,-0.95 2.3,-1.6 l 9.45,-4.25 M 5.75,11.7 Q 2.8,7.25 1.25,4.4 L 1.2,4.35 8.3,0.85 11.15,-0.8 11.2,-0.75 Q 13.35,1.5 14.65,4.6 L 12.8,4.85 Q 11.1,5.25 9.6,6.45 10.15,5.15 9.85,4.1 9.4,2.6 7.6,2.15 6.05,1.75 4.9,2.65 3.7,3.55 3.7,5.25 3.6,6.85 4.8,7.8 5.4,8.3 6.2,8.45 l 1.55,-0.2 q -1.3,1.55 -2,3.45 m 15.9,-15.15 0.4,-0.1 h 0.05 l 0.05,-0.05 0.15,-0.4 -0.8,0.45 0.15,0.1 m 0.65,21.2 -1.45,2.05 -0.95,0.85 1.4,-2.9 h 1 M -2.8,-16 q -0.55,-0.85 -0.45,-1.85 l 0.65,1.7 -0.2,0.15"
         fill="#b9b9b9"
         fill-rule="evenodd"
         stroke="none"
         id="path3" />
      <path
         d="m 1.15,-15.05 0.7,-0.45 1.15,-0.95 3.55,-2.2 7.8,-4.2 q 4.75,-2.6 7.8,-3.85 l 1.95,-0.7 q -3.8,4 -8.1,7.5 L 9.55,-15 Q 5.2,-11.9 0.7,-9.15 L 0.35,-9.7 q -1.15,-1.25 -3.9,-0.45 -4.5,1.3 -6.9,4.05 -1.15,1.35 -1.15,2.6 l 0.2,1.05 q -5.5,2.7 -11.2,5 L -28,4.6 -27.6,3.9 q 1.35,-2.05 4.5,-5.1 l 0.9,-0.85 2.8,-2.15 1.4,-0.7 1.3,-0.85 0.85,-0.8 0.65,0.35 q 0.75,0.3 1.4,0 h 0.05 q 0.6,-0.1 1.6,-0.7 l 3.7,-2.05 2.55,-1.35 3.85,-1.85 1.4,-0.65 1.2,-0.95 0.6,-1.3"
         fill="#929292"
         fill-rule="evenodd"
         stroke="none"
         id="path4" />
      <path
         d="m 31.95,-18.35 q -1.7,-0.35 -4.05,1.6 l -8.3,7.3 -0.25,-0.3 Q 18.6,-10.5 17.6,-10.3 l -1.65,1.05 q -2.9,2.6 -7.1,5.15 L 1.1,0.25 -11.05,6.7 l -3.5,1.8 -3.55,1.75 -0.65,0.8 q 0,0.45 0.5,0.7 l 0.4,0.1 -9.45,4.25 q -1.7,0.65 -2.3,1.6 -0.55,0.95 -0.15,2.15 l -4.5,-0.55 q -2.9,-0.4 -4,-1.45 -0.65,-0.6 -1.15,-1.8 l -0.35,-0.85 0.95,-0.3 Q -20.25,8.85 -6.1,1.65 10.7,-6.9 23,-17.8 q 4.55,-4.15 8.05,-7.95 1.05,3.6 0.9,7.4 M -2.8,-16 l -10.85,6.6 -0.3,-0.4 -1.65,-1.95 -0.45,-0.8 1,-0.7 q 4.85,-3.2 11.1,-6.3 l 0.7,1.7 q -0.1,1 0.45,1.85"
         fill="#eaeaea"
         fill-rule="evenodd"
         stroke="none"
         id="path5" />
      <path
         d="m -11.4,-2.45 -0.2,-1.05 q 0,-1.25 1.15,-2.6 2.4,-2.75 6.9,-4.05 2.75,-0.8 3.9,0.45 l 0.35,0.55 q -5.9,3.6 -12.1,6.7"
         fill="#94847c"
         fill-rule="evenodd"
         stroke="none"
         id="path6" />
    </g>
    <g
       id="sprite1"
       transform="translate(17.4,15.85)">
      <use
         ffdec:characterId="31"
         height="57.200001"
         transform="matrix(0.5366,0,0,0.5366,-16.6582,-14.546)"
         width="70.75"
         xlink:href="#sprite2"
         id="use6" />
    </g>
    <g
       id="sprite2"
       transform="translate(-8.65,-10.35)">
      <use
         ffdec:characterId="30"
         height="57.200001"
         transform="translate(8.65,10.35)"
         width="70.75"
         xlink:href="#shape1"
         id="use7" />
    </g>
    <g
       id="shape1"
       transform="translate(-8.65,-10.35)">
      <path
         d="m 14.8,41.7 q 0.65,-1.75 2.65,-2.5 1.8,-0.8 3.7,-0.25 1.15,0.45 2.25,1.2 l 0.9,0.4 q 1.65,0.9 2.85,2.5 L 37.8,30.1 q 2.35,-2.8 3.75,-3.95 1.5,-1.15 4.25,-2.4 18.2,-8.85 27.65,-12.6 2.15,-0.8 3.25,-0.8 h 0.8 l 1.9,2.4 -0.2,0.8 q -0.2,1.1 -1.55,3 -5.85,8.25 -18.85,23.8 -1.85,2.35 -3.35,3.5 -1.4,1.15 -4.75,2.75 l -15.15,7.15 q 1.2,1.6 1.75,3.4 l 0.2,1 0.55,2.5 q 0.1,1.95 -1.1,3.55 -1.2,1.65 -3.05,1.9 l -1.3,0.05 q -1.65,0.2 -3.45,-0.65 -1.85,-0.9 -3,-2.6 L 25,60.95 23.8,62.1 q -2.6,2.85 -4.3,3.95 -2.85,1.8 -5.5,1.45 l -1.65,-0.5 -1.2,-0.7 -0.2,-0.2 q -1,-0.85 -1.6,-1.9 L 9.25,64 9.15,63.8 8.75,62.4 q -0.2,-0.8 -0.05,-1.7 0.25,-2.65 2.7,-5.05 1.5,-1.3 4.9,-3.15 L 17.7,51.55 16.05,50 q -1.35,-1.5 -1.8,-3.6 -0.4,-1.85 0.25,-3.45 l 0.3,-1.25"
         fill="#000000"
         fill-opacity="0.372549"
         fill-rule="evenodd"
         stroke="none"
         id="path7" />
    </g>
  </defs>
</svg>
