<?xml version="1.0" encoding="UTF-8" standalone="no"?>
<svg
   ffdec:objectType="frame"
   height="90.190842"
   width="90.284088"
   version="1.1"
   id="svg5"
   xmlns:xlink="http://www.w3.org/1999/xlink"
   xmlns="http://www.w3.org/2000/svg"
   xmlns:svg="http://www.w3.org/2000/svg"
   xmlns:ffdec="https://www.free-decompiler.com/flash">
  <g
     transform="translate(46.1,44.7)"
     id="g1">
    <use
       ffdec:characterId="17"
       height="119.15"
       id="rarity"
       transform="translate(-58.5,-60.65)"
       width="119.15"
       xlink:href="#sprite0" />
    <use
       ffdec:characterId="1220"
       height="90.199997"
       transform="translate(-46.1,-44.7)"
       width="90.300003"
       xlink:href="#shape0"
       id="use1" />
  </g>
  <defs
     id="defs5">
    <g
       id="shape0"
       transform="translate(44.8,42.8)">
      <path
         d="m 14.95,36.95 q -4.1,6.05 -11.3,8.75 -6.7,2.45 -14.3,1.35 -2.65,-0.45 -4.4,-1.1 -3.3,-1.2 -6,-3.7 -1.9,-1.8 -2.65,-3.7 l -1.85,0.2 Q -28.7,38.8 -32,36.8 q -3.1,-1.95 -5.05,-5.25 -1.9,-3.25 -2.15,-6.95 -0.2,-2.7 0.7,-6.5 l 1.05,-3.7 q 0.25,-0.9 0.15,-1.25 L -38.1,12 q -1.85,-2 -2.55,-4.6 -0.5,-2.05 -0.4,-5.7 l 0.35,-6.9 q 0.4,-3.25 1.35,-5.8 l -1.75,-1.15 q -3.15,-2.65 -3.65,-7.1 -0.35,-4.1 1.75,-7.9 1.6,-2.8 3.9,-3.9 l 3.95,-0.7 q 3.15,-0.1 5.15,1.1 2.8,1.55 4.8,6.7 4.45,-0.7 8.35,1.55 2.65,1.55 4.2,4 l 0.9,-1.8 2.45,-3.35 1.75,-1.7 q -1.65,-2.3 -1.75,-5.4 -0.05,-2.6 1.05,-5.8 0.55,-1.5 1.1,-2.2 l 1.7,-1.95 1.6,-1.35 q 1.4,-0.85 4.25,-0.85 l 3.9,0.4 2.15,1 2,1.35 1.6,2.1 1.35,2.55 q 0.8,2.4 -0.3,6.7 l -0.7,2.55 0.85,0.45 2.75,1.85 1.1,1.05 0.5,-0.75 2.35,-2.85 q 2.45,-2.2 5.45,-2.95 l 1,-0.35 0.6,-0.65 v -0.35 q 0.05,-1.4 1.1,-3.3 1.4,-2.55 3.6,-4.25 2.35,-1.85 5.05,-2.2 2.2,-0.35 4.4,0.45 2.2,0.8 3.8,2.45 1.55,1.6 2.15,3.9 0.65,2.25 0.2,4.45 -0.35,1.85 -1.5,3.85 l -2.45,3.45 q -0.75,1.1 -0.8,1.7 -0.05,0.6 0.55,1.8 2.8,5.65 1.7,11.95 -0.7,3.6 -2.35,5.85 L 39.4,0.65 40.25,1.7 q 3.35,4.75 4.2,7.75 0.7,2.6 0.45,6.15 -0.65,9.3 -6.1,13.75 -2.55,2.05 -7.35,3.5 -5.15,1.55 -8.75,1.65 l -6.1,-0.65 -1.65,3.1 m -36.4,-3.7 q 0.5,0.25 1.3,1.6 1.65,2.8 5.65,4.5 5.2,2.15 10.95,1.25 Q 2.25,39.7 6.5,36.05 8.2,34.7 9,33.2 l 1.05,-2.7 -1.1,-0.45 q -1,-0.7 -0.9,-1.85 0,-0.95 0.5,-1.5 L 9.7,26 15.05,24.1 16.8,23.1 18.25,21.95 20,22 q 0.45,0.45 0.35,1.2 l -0.55,1.2 -1.45,1.65 -0.9,0.65 -0.45,0.45 0.35,0.05 6.15,0.3 5.7,-1.25 3.1,-1 q 1.65,-0.7 2.7,-1.7 1.25,-1.15 2.3,-3.8 1.05,-3 0.95,-6 -0.2,-3.25 -1.8,-5.6 L 35.3,6.6 34.1,5.05 Q 33.25,3.9 33.1,2.8 32.5,2.35 32.35,1.55 32.2,0.6 32.6,-0.25 l 0.95,-1.5 1.15,-1.4 q 1.8,-2.35 2,-5.65 0.15,-3.1 -1.2,-6.05 l -1.55,-3.2 q -0.85,-1.85 -0.7,-3.35 0.15,-1.65 1.95,-4.15 l 1.95,-2.8 q 1.7,-2.5 1.1,-3.9 -0.45,-0.9 -1.55,-1.2 l -2.05,0.1 Q 33.1,-32.6 32,-30.3 l -0.65,1.5 -0.95,1.35 -0.15,0.15 q -0.45,1.5 -1.4,2.4 -0.9,0.9 -3,1.6 -2.45,0.8 -3.2,1.3 -1.2,0.75 -2.95,3.35 l -0.8,1.45 -0.15,0.45 q 1.05,2.6 1.5,5.4 0.95,5.5 -0.5,10.7 Q 19.2,1.6 18.2,2.85 16.95,4.55 15.4,4.2 13.95,3.75 13.75,1.85 13.7,1.2 14.15,-1.1 15.05,-4.9 14.4,-8.85 13.8,-12.8 11.75,-16.2 10.7,-18.05 9.4,-18.9 L 8,-19.6 Q 7.1,-20 6.65,-20.35 5.75,-21 5.4,-22.15 L 5.2,-22.9 q -0.7,-0.95 -0.8,-2 l 0.05,-1.8 0.5,-3.2 q 0.45,-2.05 0.3,-2.95 -0.3,-1.9 -2,-2.85 -1.5,-0.9 -3.45,-0.4 l -0.75,0.35 -0.85,1.3 -0.45,1.65 -0.35,1.6 q 0,0.85 0.75,2.1 l 1.05,2.05 q 0.4,1.5 -0.5,2.75 l -0.45,0.55 -0.25,0.65 q -0.2,0.45 -1.65,2.25 -1.85,2.2 -4.35,7.9 -1,2.15 -1.4,3.7 -0.85,3.35 0.1,7.9 0.45,2.05 0.3,2.85 -0.1,1.35 -1.05,2.2 -0.2,1.15 -1.2,2.15 l -1.65,1.4 -1.1,1.5 -0.6,0.9 -0.1,0.75 q -0.15,0.8 -0.9,1.15 l -1.5,-0.1 Q -17.75,11 -18.15,9.6 l -0.25,-1.05 0.1,-0.95 0.75,-2.45 0.9,-1.55 1,-1.25 -0.2,-0.45 q -0.4,-0.95 -0.6,-3.05 -0.4,-3.2 -0.3,-4.9 0.1,-2.45 1.2,-5.75 l -1.05,-1.45 q -2.55,-4.2 -5.7,-4.45 l -2.25,0.3 -2.25,0.65 q -3,0.7 -4.35,-0.95 -0.6,-0.75 -0.7,-2.35 l -0.3,-2.65 q -0.3,-1.15 -1.25,-1.85 -1,-0.8 -2.05,-0.5 -1.75,0.5 -2.3,3.55 -0.35,1.55 0,2.55 0.35,0.95 2,2.15 1.7,1.25 2.05,2.15 l 0.15,1.15 0.1,0.2 q 0.4,0.8 0.25,2 -0.05,0.55 -0.45,2 -0.75,3.1 -0.75,8.85 -0.05,2.6 0.25,4.15 0.4,2.25 1.6,3.65 1.9,1.6 2.45,2.7 0.65,1.3 -0.05,3.95 l -0.9,3.05 -0.8,3.1 q -0.7,3.7 0.2,6.3 0.6,1.7 1.95,3.05 1.3,1.3 3.05,1.9 l 3.35,0.9 q 0.9,0.35 1.5,0.85 l 0.35,0.1 M 5.4,26.7 Q 4.2,27.35 2.55,27 -0.65,26.45 -3.9,23.65 l -1.7,-2 Q -6.2,20.6 -6.4,18.4 -6.9,9.65 -1.1,1.15 q 1.95,-2.75 3.85,-2.7 0.85,0 2.15,0.8 2,1.25 3.45,3.25 1,1.25 1.85,3.15 l 1.1,2.75 q 1.7,5.35 0.25,9.25 L 9.7,21.05 7.4,24.3 q -1.15,1.9 -2,2.4 M 4.6,21 5,20.5 6.85,17.05 7.5,15.15 v -1.4 L 7.25,12.55 5.6,8.55 Q 4.8,6.8 3.2,5.05 1.95,6.55 0.7,9.85 l -0.5,1.3 q -0.9,2.7 -1,5.45 -0.1,1.75 0.55,2.55 l 0.85,0.7 Q 2.8,21.2 4,21.15 L 4.6,21"
         fill="#000000"
         fill-rule="evenodd"
         stroke="none"
         id="path1" />
      <path
         d="m -21.45,33.25 -0.35,-0.1 q -0.6,-0.5 -1.5,-0.85 l -3.35,-0.9 q -1.75,-0.6 -3.05,-1.9 -1.35,-1.35 -1.95,-3.05 -0.9,-2.6 -0.2,-6.3 l 0.8,-3.1 0.9,-3.05 q 0.7,-2.65 0.05,-3.95 -0.55,-1.1 -2.45,-2.7 -1.2,-1.4 -1.6,-3.65 -0.3,-1.55 -0.25,-4.15 0,-5.75 0.75,-8.85 0.4,-1.45 0.45,-2 0.15,-1.2 -0.25,-2 l -0.1,-0.2 -0.15,-1.15 q -0.35,-0.9 -2.05,-2.15 -1.65,-1.2 -2,-2.15 -0.35,-1 0,-2.55 0.55,-3.05 2.3,-3.55 1.05,-0.3 2.05,0.5 0.95,0.7 1.25,1.85 l 0.3,2.65 q 0.1,1.6 0.7,2.35 1.35,1.65 4.35,0.95 l 2.25,-0.65 2.25,-0.3 q 3.15,0.25 5.7,4.45 l 1.05,1.45 q -1.1,3.3 -1.2,5.75 -0.1,1.7 0.3,4.9 0.2,2.1 0.6,3.05 l 0.2,0.45 -1,1.25 -0.9,1.55 -0.75,2.45 -0.1,0.95 0.25,1.05 q 0.4,1.4 1.05,1.85 l 1.5,0.1 q 0.75,-0.35 0.9,-1.15 l 0.1,-0.75 0.6,-0.9 1.1,-1.5 1.65,-1.4 q 1,-1 1.2,-2.15 0.95,-0.85 1.05,-2.2 0.15,-0.8 -0.3,-2.85 -0.95,-4.55 -0.1,-7.9 0.4,-1.55 1.4,-3.7 2.5,-5.7 4.35,-7.9 1.45,-1.8 1.65,-2.25 l 0.25,-0.65 0.45,-0.55 q 0.9,-1.25 0.5,-2.75 l -1.05,-2.05 q -0.75,-1.25 -0.75,-2.1 l 0.35,-1.6 0.45,-1.65 0.85,-1.3 0.75,-0.35 q 1.95,-0.5 3.45,0.4 1.7,0.95 2,2.85 0.15,0.9 -0.3,2.95 l -0.5,3.2 -0.05,1.8 q 0.1,1.05 0.8,2 l 0.2,0.75 Q 5.75,-21 6.65,-20.35 7.1,-20 8,-19.6 l 1.4,0.7 q 1.3,0.85 2.35,2.7 2.05,3.4 2.65,7.35 0.65,3.95 -0.25,7.75 -0.45,2.3 -0.4,2.95 0.2,1.9 1.65,2.35 1.55,0.35 2.8,-1.35 1,-1.25 1.55,-3.5 1.45,-5.2 0.5,-10.7 -0.45,-2.8 -1.5,-5.4 l 0.15,-0.45 0.8,-1.45 q 1.75,-2.6 2.95,-3.35 0.75,-0.5 3.2,-1.3 2.1,-0.7 3,-1.6 0.95,-0.9 1.4,-2.4 l 0.15,-0.15 0.95,-1.35 0.65,-1.5 q 1.1,-2.3 2.65,-3.05 l 2.05,-0.1 q 1.1,0.3 1.55,1.2 0.6,1.4 -1.1,3.9 l -1.95,2.8 q -1.8,2.5 -1.95,4.15 -0.15,1.5 0.7,3.35 l 1.55,3.2 q 1.35,2.95 1.2,6.05 -0.2,3.3 -2,5.65 l -1.15,1.4 -0.95,1.5 q -0.4,0.85 -0.25,1.8 0.15,0.8 0.75,1.25 0.15,1.1 1,2.25 l 1.2,1.55 1.15,1.55 q 1.6,2.35 1.8,5.6 0.1,3 -0.95,6 -1.05,2.65 -2.3,3.8 -1.05,1 -2.7,1.7 l -3.1,1 -5.7,1.25 -6.15,-0.3 -0.35,-0.05 0.45,-0.45 0.9,-0.65 1.45,-1.65 0.55,-1.2 Q 20.45,22.45 20,22 L 18.25,21.95 16.8,23.1 15.05,24.1 9.7,26 8.55,26.7 q -0.5,0.55 -0.5,1.5 -0.1,1.15 0.9,1.85 L 10.05,30.5 9,33.2 Q 8.2,34.7 6.5,36.05 2.25,39.7 -3.55,40.6 -9.3,41.5 -14.5,39.35 q -4,-1.7 -5.65,-4.5 -0.8,-1.35 -1.3,-1.6 M -5,-0.9 q 1.1,0.4 2.05,-0.45 0.45,-0.5 0.55,-1.2 0.1,-0.7 -0.25,-1.25 Q -3,-4.35 -3.6,-4.6 l -1.3,-0.1 q -0.6,0.15 -1,0.7 l -0.45,1.15 q 0,1.45 1.35,1.95 m -0.65,-11.95 -0.45,1.3 -0.25,1.05 -0.15,1.6 q 0.1,0.75 0.6,1.35 l 1.25,0.9 Q -3,-6.1 -1.7,-7.15 L -0.95,-7.85 -0.5,-8.4 0.05,-9.3 1.4,-12.7 1.6,-13.75 1.55,-15 1.35,-16 0.6,-17.1 q -0.55,-0.45 -1.25,-0.55 -1.3,-0.3 -2.65,0.55 -1.1,0.85 -1.8,2.1 l -0.45,1.25 -0.1,0.9 m -21.55,0.45 q -1.35,-0.45 -2.7,0.55 -0.9,0.75 -1.65,2.3 -0.6,1.55 -0.5,2.4 l 0.55,2.1 0.1,1.75 q 0.2,0.9 1.15,1.45 0.9,0.5 1.9,0.4 1.4,-0.1 2.1,-1 0.45,-0.5 0.75,-1.8 l 0.4,-3.8 q 0,-1.65 -0.4,-2.55 -0.5,-1.35 -1.7,-1.8 M 5.4,26.7 q 0.85,-0.5 2,-2.4 l 2.3,-3.25 1.85,-3.4 Q 13,13.75 11.3,8.4 L 10.2,5.65 Q 9.35,3.75 8.35,2.5 6.9,0.5 4.9,-0.75 3.6,-1.55 2.75,-1.55 0.85,-1.6 -1.1,1.15 q -5.8,8.5 -5.3,17.25 0.2,2.2 0.8,3.25 l 1.7,2 q 3.25,2.8 6.45,3.35 1.65,0.35 2.85,-0.3 m 21.7,-15.4 1.6,0.05 Q 30.1,11.25 30.7,10 31.25,8.7 30.35,7.6 29.7,6.8 28.25,6.5 L 25.8,6.45 24,6.65 q -0.65,0.25 -1.2,1.15 -0.55,0.85 -0.55,1.85 -0.05,1.05 0.65,1.7 1.1,1.2 3.05,0.4 L 27.1,11.3 m 1.05,-28.15 0.9,-0.35 0.4,-0.85 q 0.05,-0.7 -0.7,-1.45 l -1,-0.8 -1.65,-0.3 q -1.9,0.1 -2.85,1.55 -0.4,0.75 -0.3,1.65 0.15,0.95 0.8,1.4 0.65,0.45 1.5,0.35 0.85,-0.05 1.5,-0.6 l 0.7,-0.5 0.7,-0.1 m -48.4,45.15 q -0.4,0.35 -0.6,1.05 l 0.25,1.2 q 0.35,0.6 0.95,0.8 l 1.25,-0.05 q 0.65,-0.25 0.95,-0.8 0.3,-0.55 0.15,-1.2 -0.1,-0.7 -0.6,-1.1 -0.55,-0.4 -1.2,-0.35 -0.65,0 -1.15,0.45 M -21.85,17 q -0.35,-0.85 -1.35,-1.2 l -1.85,-0.2 q -1.25,0.15 -2.3,1.1 -1.5,1.45 -1.8,4.45 -0.15,2 0.4,3.35 0.8,1.85 2.4,2.2 1.25,0.25 2.45,-0.55 1.1,-0.8 1.65,-2.1 0.6,-1.5 0.6,-5.15 L -21.85,17 M -27.4,4 -27.3,3.6 q 0.1,-0.25 -0.1,-0.5 L -27.95,2.5 -28.8,2.4 q -0.65,0.25 -0.9,0.85 v 0.6 l 0.45,0.65 0.5,0.3 q 0.55,0.1 0.9,-0.2 L -27.4,4 m 43.85,10.7 q 0.1,0.55 0.55,1 0.45,0.45 1,0.5 0.55,0.05 1.1,-0.3 L 19.8,15 q 0.15,-0.55 -0.05,-1.15 L 19,13 17.9,12.8 q -0.7,0.1 -1.1,0.65 -0.4,0.6 -0.35,1.25"
         fill="#746a67"
         fill-rule="evenodd"
         stroke="none"
         id="path2" />
      <path
         d="m 3.45,14.2 1.2,-1.85 Q 5.1,11 4.95,10.4 4.5,9.2 3.25,9.2 2.1,9.1 1.35,10.15 0.75,10.9 0.65,12.2 l 0.05,0.9 q 0.25,0.85 1.1,1.25 L 3.45,14.2 M 4.6,21 4,21.15 Q 2.8,21.2 0.6,19.85 l -0.85,-0.7 q -0.65,-0.8 -0.55,-2.55 0.1,-2.75 1,-5.45 l 0.5,-1.3 q 1.25,-3.3 2.5,-4.8 1.6,1.75 2.4,3.5 l 1.65,4 0.25,1.2 v 1.4 L 6.85,17.05 5,20.5 4.6,21"
         fill="#cbc3a5"
         fill-rule="evenodd"
         stroke="none"
         id="path3" />
      <path
         d="m -27.2,-12.4 q 1.2,0.45 1.7,1.8 0.4,0.9 0.4,2.55 l -0.4,3.8 q -0.3,1.3 -0.75,1.8 -0.7,0.9 -2.1,1 -1,0.1 -1.9,-0.4 -0.95,-0.55 -1.15,-1.45 l -0.1,-1.75 -0.55,-2.1 q -0.1,-0.85 0.5,-2.4 0.75,-1.55 1.65,-2.3 1.35,-1 2.7,-0.55 m 21.55,-0.45 0.1,-0.9 0.45,-1.25 q 0.7,-1.25 1.8,-2.1 1.35,-0.85 2.65,-0.55 0.7,0.1 1.25,0.55 l 0.75,1.1 0.2,1 0.05,1.25 -0.2,1.05 -1.35,3.4 -0.55,0.9 -0.45,0.55 -0.75,0.7 q -1.3,1.05 -2.95,0.5 l -1.25,-0.9 q -0.5,-0.6 -0.6,-1.35 l 0.15,-1.6 0.25,-1.05 0.45,-1.3 M -5,-0.9 Q -6.35,-1.4 -6.35,-2.85 L -5.9,-4 q 0.4,-0.55 1,-0.7 l 1.3,0.1 q 0.6,0.25 0.95,0.8 0.35,0.55 0.25,1.25 -0.1,0.7 -0.55,1.2 Q -3.9,-0.5 -5,-0.9 m 33.15,-15.95 -0.7,0.1 -0.7,0.5 q -0.65,0.55 -1.5,0.6 -0.85,0.1 -1.5,-0.35 -0.65,-0.45 -0.8,-1.4 -0.1,-0.9 0.3,-1.65 0.95,-1.45 2.85,-1.55 l 1.65,0.3 1,0.8 q 0.75,0.75 0.7,1.45 l -0.4,0.85 -0.9,0.35 M 27.1,11.3 25.95,11.75 q -1.95,0.8 -3.05,-0.4 -0.7,-0.65 -0.65,-1.7 0,-1 0.55,-1.85 0.55,-0.9 1.2,-1.15 l 1.8,-0.2 2.45,0.05 q 1.45,0.3 2.1,1.1 0.9,1.1 0.35,2.4 -0.6,1.25 -2,1.35 L 27.1,11.3 M 3.45,14.2 1.8,14.35 Q 0.95,13.95 0.7,13.1 L 0.65,12.2 q 0.1,-1.3 0.7,-2.05 0.75,-1.05 1.9,-0.95 1.25,0 1.7,1.2 0.15,0.6 -0.3,1.95 l -1.2,1.85 m 13,0.5 Q 16.4,14.05 16.8,13.45 17.2,12.9 17.9,12.8 l 1.1,0.2 0.75,0.85 q 0.2,0.6 0.05,1.15 l -0.7,0.9 q -0.55,0.35 -1.1,0.3 -0.55,-0.05 -1,-0.5 -0.45,-0.45 -0.55,-1 M -27.4,4 -27.85,4.6 q -0.35,0.3 -0.9,0.2 l -0.5,-0.3 -0.45,-0.65 v -0.6 q 0.25,-0.6 0.9,-0.85 l 0.85,0.1 0.55,0.6 q 0.2,0.25 0.1,0.5 L -27.4,4 m 5.55,13 0.2,1.9 q 0,3.65 -0.6,5.15 -0.55,1.3 -1.65,2.1 -1.2,0.8 -2.45,0.55 -1.6,-0.35 -2.4,-2.2 -0.55,-1.35 -0.4,-3.35 0.3,-3 1.8,-4.45 1.05,-0.95 2.3,-1.1 l 1.85,0.2 q 1,0.35 1.35,1.2 m 1.6,11.3 q 0.5,-0.45 1.15,-0.45 0.65,-0.05 1.2,0.35 0.5,0.4 0.6,1.1 0.15,0.65 -0.15,1.2 -0.3,0.55 -0.95,0.8 l -1.25,0.05 q -0.6,-0.2 -0.95,-0.8 l -0.25,-1.2 q 0.2,-0.7 0.6,-1.05"
         fill="#ffffff"
         fill-rule="evenodd"
         stroke="none"
         id="path4" />
    </g>
    <g
       id="sprite1"
       transform="translate(17.4,15.85)">
      <use
         ffdec:characterId="31"
         height="57.200001"
         transform="matrix(0.5366,0,0,0.5366,-16.6582,-14.546)"
         width="70.75"
         xlink:href="#sprite2"
         id="use4" />
    </g>
    <g
       id="sprite2"
       transform="translate(-8.65,-10.35)">
      <use
         ffdec:characterId="30"
         height="57.200001"
         transform="translate(8.65,10.35)"
         width="70.75"
         xlink:href="#shape1"
         id="use5" />
    </g>
    <g
       id="shape1"
       transform="translate(-8.65,-10.35)">
      <path
         d="m 14.8,41.7 q 0.65,-1.75 2.65,-2.5 1.8,-0.8 3.7,-0.25 1.15,0.45 2.25,1.2 l 0.9,0.4 q 1.65,0.9 2.85,2.5 L 37.8,30.1 q 2.35,-2.8 3.75,-3.95 1.5,-1.15 4.25,-2.4 18.2,-8.85 27.65,-12.6 2.15,-0.8 3.25,-0.8 h 0.8 l 1.9,2.4 -0.2,0.8 q -0.2,1.1 -1.55,3 -5.85,8.25 -18.85,23.8 -1.85,2.35 -3.35,3.5 -1.4,1.15 -4.75,2.75 l -15.15,7.15 q 1.2,1.6 1.75,3.4 l 0.2,1 0.55,2.5 q 0.1,1.95 -1.1,3.55 -1.2,1.65 -3.05,1.9 l -1.3,0.05 q -1.65,0.2 -3.45,-0.65 -1.85,-0.9 -3,-2.6 L 25,60.95 23.8,62.1 q -2.6,2.85 -4.3,3.95 -2.85,1.8 -5.5,1.45 l -1.65,-0.5 -1.2,-0.7 -0.2,-0.2 q -1,-0.85 -1.6,-1.9 L 9.25,64 9.15,63.8 8.75,62.4 q -0.2,-0.8 -0.05,-1.7 0.25,-2.65 2.7,-5.05 1.5,-1.3 4.9,-3.15 L 17.7,51.55 16.05,50 q -1.35,-1.5 -1.8,-3.6 -0.4,-1.85 0.25,-3.45 l 0.3,-1.25"
         fill="#000000"
         fill-opacity="0.372549"
         fill-rule="evenodd"
         stroke="none"
         id="path5" />
    </g>
  </defs>
</svg>
