<?xml version="1.0" encoding="UTF-8" standalone="no"?>
<svg
   ffdec:objectType="frame"
   height="75.255821"
   width="49.520264"
   version="1.1"
   id="svg5"
   xmlns:xlink="http://www.w3.org/1999/xlink"
   xmlns="http://www.w3.org/2000/svg"
   xmlns:svg="http://www.w3.org/2000/svg"
   xmlns:ffdec="https://www.free-decompiler.com/flash">
  <g
     transform="translate(30.018182,39.959524)"
     id="g1">
    <use
       ffdec:characterId="17"
       height="119.15"
       id="rarity"
       transform="translate(-58.5,-60.65)"
       width="119.15"
       xlink:href="#sprite0" />
    <use
       ffdec:characterId="644"
       height="75.25"
       transform="translate(-30,-39.95)"
       width="49.5"
       xlink:href="#shape0"
       id="use1" />
  </g>
  <defs
     id="defs5">
    <g
       id="shape0"
       transform="translate(29.6,39.15)">
      <path
         d="m 17.65,-25.25 q 1.4,4.7 1.9,8.1 0.65,4.45 0.1,8.2 -0.65,4.3 -3,7.7 l -1.1,1.4 q 3.75,9.45 3.9,20.2 0.2,5.95 -1.4,9.8 -0.75,1.75 -1.65,2.65 -1.5,1.5 -4.05,1.75 -2,0.25 -3.25,-0.7 -1.25,-1.05 -1.35,-2.95 -0.1,-1.1 0.3,-3.3 0.4,-3.05 0.4,-5.8 l -0.5,0.35 0.15,0.9 Q 8.5,26.4 7.3,28.1 6.5,29.15 4.95,29.85 3.3,30.65 1.15,30.8 l -0.2,1.7 -0.3,1.15 q -0.3,1 -0.9,1.55 -1.2,1.1 -3.1,0.85 L -4.95,35.7 -6.5,35.2 -8.7,34.5 q -1.2,-0.5 -1.7,-1.45 -0.45,-0.85 -0.35,-1.9 l 0.55,-1.85 0.15,-0.3 q -1.25,-0.6 -2.1,-1.3 l -1.35,-1.75 -0.15,-0.8 q -1.65,1.55 -3.9,2.75 -1.75,0.9 -3.05,1.15 l -4.1,-0.2 q -3.1,-0.6 -4.15,-2.25 -0.75,-1.1 -0.75,-3 -0.1,-1.55 0.35,-2.6 0.7,-1.75 3.1,-3.05 2.75,-1.15 4,-1.9 3.7,-2.2 4.65,-6.15 0.25,-1 0.35,-3.25 0.1,-1.7 -0.1,-2.5 l -0.3,-0.95 -1.1,-0.4 q -1.9,-0.7 -2.95,-1.55 -1.2,-0.95 -2.3,-2.85 -3.9,-6.6 -3.65,-14.5 0.1,-2.5 0.75,-4 0.7,-1.35 1.75,-1.95 l -0.25,-0.45 q -0.6,-1.3 -0.6,-3.6 -0.1,-1.4 0.25,-2.5 0.6,-1.6 2.55,-2.75 3.15,-1.9 5.8,-0.9 l 2.1,1.45 q 1.2,1.2 2,2.9 l 0.35,-0.2 4.9,-2.25 3.8,-1.05 q 1.6,-0.2 4.8,0.1 l 0.55,0.1 -0.1,-1.4 q 0,-1.7 0.3,-2.45 0.75,-1.9 3.7,-3.25 1.9,-0.95 3.15,-0.85 0.9,0 2.4,0.7 l 2.45,1.4 q 0.95,0.75 1.15,1.7 0.15,0.6 -0.2,2.45 -0.3,1.5 -0.25,4.4 l 0.85,-0.2 q 1.2,-0.05 2.05,1.15 l 0.95,2.3 m -10.15,1.6 2.3,-0.1 1.1,-0.85 -0.7,-2.3 -0.25,-2.1 q -0.2,-3.3 -0.1,-4.95 -0.9,-0.6 -1.55,-0.6 l -1.05,0.25 -1,0.5 -0.7,0.5 -0.1,0.55 q 0,1.8 0.75,4.8 l 1,4.2 0.3,0.1 m -19.25,1.55 3.4,-0.3 q 1.7,0.4 3.1,1.65 l 0.85,0.45 0.75,-0.6 1,-1.85 1.25,-1.6 q 1.45,-1.25 3.65,-1 l -0.45,-2.1 -1.4,0.05 q -3.3,-0.1 -6.15,0.95 l -2.15,0.9 -3.05,1.65 -0.95,0.7 0.15,1.15 v -0.05 m 0.4,21.75 q 1,0.6 2.25,1.7 l 2.05,1.95 q 1.55,1.5 3.85,2.8 2.85,1.6 4.4,0.35 0.55,-0.5 0.9,-1.4 L 2.6,3.4 Q 3.55,0.75 5.95,-0.55 l 2.2,-0.9 q 1.45,-0.55 2.15,-1 3.25,-2.05 4,-7.65 0.8,-5.55 -1,-11.25 -1.25,1.3 -3.1,1.9 l -3.65,0.25 -2.4,-0.75 -2.45,-0.5 q -0.9,2.6 -3.25,4.15 -1.8,1.2 -3.5,1.15 -2.1,0 -3.25,-1.5 l -0.9,-0.75 -0.95,0.65 q -2.25,2.7 -5.75,2.95 -3.5,0.25 -6.15,-2.15 -0.25,1.65 0.15,3.65 l 0.95,3.6 q 1.1,3.7 2.55,5 1.1,1.05 3.4,1.85 l 3.65,1.5 M 0.5,-0.2 V 0.85 Q 0.4,1.85 0,2.3 -0.6,2.95 -1.45,2.8 -2.35,2.65 -2.6,1.8 l -0.2,-1.1 -0.35,-1 -0.35,-1.95 q -0.8,-3 -1.2,-6.1 L -4.75,-9.9 q 0.1,-0.85 0.7,-1.4 l 1.3,-0.35 q 1.1,0 1.6,0.8 l 0.4,1.05 0.35,2.85 0.15,1.05 0.3,0.9 -0.1,1.65 0.25,1 v 0.7 Q 0.15,-1.2 0.25,-0.9 l 0.25,0.7 m 12.05,10.05 -0.5,0.55 0.3,1.2 q 0.5,3.35 -0.75,6.2 l 0.2,0.4 q 0.3,0.6 0.4,1.9 0.3,5.3 -0.4,10 0.75,0.15 1.3,-0.5 l 0.65,-1.3 q 1.15,-3.35 1.15,-7.75 0,-2.8 -0.6,-7.9 L 13.7,8.2 12.55,9.85 M 8.15,4.75 Q 7.8,5.15 7.2,6.85 6.8,8.1 6.05,9.15 l 2.3,-1.3 Q 9.25,7.2 9.6,6.35 10,5.5 10,3.9 V 3.8 Q 8.55,4.3 8.15,4.75 m -1.55,9 -3.3,0.65 -5.2,0.15 -4.65,-0.55 -2.7,-0.9 -0.2,0.85 q -0.25,1.45 0.3,2.5 0.55,1.05 2.3,1.85 L -2.7,19.05 1.55,19 4.9,18.55 Q 6.5,17.95 7.5,16.3 8.45,14.7 8.35,12.9 L 6.6,13.75 M 2.25,23.7 -1.7,23.75 -4.25,23.8 -6.7,23.55 Q -7.6,23.35 -9,22.6 v 0.7 l 0.15,0.45 1.65,1.05 q 5.15,1.7 8.35,1.55 2.35,-0.2 2.95,-1.55 l 0.15,-1.3 -2,0.2 m -20.6,-43.65 q 0.95,0.65 1.8,0.65 0.85,0.05 1.85,-0.55 l -1.45,-4.5 q -0.5,-1.5 -0.95,-2.1 -0.75,-1.1 -1.85,-1.25 -1,-0.15 -1.7,0.6 -0.75,0.75 -0.6,1.75 l 0.7,1.55 1.75,3.25 0.25,0.45 0.2,0.15 m 4.9,30.8 -0.1,-0.1 -0.5,2 q -0.4,1.1 -1.55,2.75 -1.4,2 -2.3,2.8 -1.05,1 -2.85,2 l -3.1,1.7 -0.85,0.7 q -0.45,0.55 -0.15,1.05 l 0.6,0.5 q 2.45,1.05 5.3,-0.45 1.65,-0.9 4.1,-3.65 0.8,-1 1.4,-1.35 l -0.5,-2.3 q -0.3,-3.45 0.75,-5.45 l -0.25,-0.2 m 9.75,19.7 -2.4,-0.35 -0.15,0.25 q 1.4,0.3 2.9,0.85 l 0.4,0.05 0.2,-0.3 0.15,-0.4 -1.1,-0.1"
         fill="#000000"
         fill-rule="evenodd"
         stroke="none"
         id="path1" />
      <path
         d="M 0.5,-0.2 0.25,-0.9 Q 0.15,-1.2 0.2,-1.65 v -0.7 l -0.25,-1 0.1,-1.65 -0.3,-0.9 -0.15,-1.05 -0.35,-2.85 -0.4,-1.05 q -0.5,-0.8 -1.6,-0.8 l -1.3,0.35 q -0.6,0.55 -0.7,1.4 l 0.05,1.55 q 0.4,3.1 1.2,6.1 l 0.35,1.95 0.35,1 0.2,1.1 q 0.25,0.85 1.15,1 Q -0.6,2.95 0,2.3 0.4,1.85 0.5,0.85 V -0.2 M -11.35,-0.35 -15,-1.85 q -2.3,-0.8 -3.4,-1.85 -1.45,-1.3 -2.55,-5 l -0.95,-3.6 q -0.4,-2 -0.15,-3.65 2.65,2.4 6.15,2.15 3.5,-0.25 5.75,-2.95 l 0.95,-0.65 0.9,0.75 q 1.15,1.5 3.25,1.5 1.7,0.05 3.5,-1.15 2.35,-1.55 3.25,-4.15 l 2.45,0.5 2.4,0.75 3.65,-0.25 q 1.85,-0.6 3.1,-1.9 1.8,5.7 1,11.25 -0.75,5.6 -4,7.65 -0.7,0.45 -2.15,1 l -2.2,0.9 Q 3.55,0.75 2.6,3.4 L 2.1,5.05 Q 1.75,5.95 1.2,6.45 -0.35,7.7 -3.2,6.1 -5.5,4.8 -7.05,3.3 L -9.1,1.35 q -1.25,-1.1 -2.25,-1.7"
         fill="#bca2a2"
         fill-rule="evenodd"
         stroke="none"
         id="path2" />
      <path
         d="m -11.75,-22.1 v 0.05 l -0.15,-1.15 0.95,-0.7 3.05,-1.65 2.15,-0.9 Q -2.9,-27.5 0.4,-27.4 l 1.4,-0.05 0.45,2.1 q -2.2,-0.25 -3.65,1 l -1.25,1.6 -1,1.85 -0.75,0.6 -0.85,-0.45 q -1.4,-1.25 -3.1,-1.65 l -3.4,0.3 m 14,45.8 2,-0.2 -0.15,1.3 Q 3.5,26.15 1.15,26.35 -2.05,26.5 -7.2,24.8 L -8.85,23.75 -9,23.3 v -0.7 q 1.4,0.75 2.3,0.95 L -4.25,23.8 -1.7,23.75 2.25,23.7 M 6.6,13.75 8.35,12.9 q 0.1,1.8 -0.85,3.4 -1,1.65 -2.6,2.25 L 1.55,19 -2.7,19.05 -6.85,18.3 q -1.75,-0.8 -2.3,-1.85 -0.55,-1.05 -0.3,-2.5 l 0.2,-0.85 2.7,0.9 4.65,0.55 5.2,-0.15 3.3,-0.65 m 1.55,-9 Q 8.55,4.3 10,3.8 V 3.9 Q 10,5.5 9.6,6.35 9.25,7.2 8.35,7.85 l -2.3,1.3 Q 6.8,8.1 7.2,6.85 7.8,5.15 8.15,4.75 m -11.85,25.8 1.1,0.1 -0.15,0.4 -0.2,0.3 -0.4,-0.05 q -1.5,-0.55 -2.9,-0.85 l 0.15,-0.25 2.4,0.35"
         fill="#6d5050"
         fill-rule="evenodd"
         stroke="none"
         id="path3" />
      <path
         d="m 7.5,-23.65 -0.3,-0.1 -1,-4.2 q -0.75,-3 -0.75,-4.8 l 0.1,-0.55 0.7,-0.5 1,-0.5 1.05,-0.25 q 0.65,0 1.55,0.6 -0.1,1.65 0.1,4.95 l 0.25,2.1 0.7,2.3 -1.1,0.85 -2.3,0.1 m 5.05,33.5 1.15,-1.65 0.6,4.45 q 0.6,5.1 0.6,7.9 0,4.4 -1.15,7.75 l -0.65,1.3 q -0.55,0.65 -1.3,0.5 0.7,-4.7 0.4,-10 -0.1,-1.3 -0.4,-1.9 l -0.2,-0.4 q 1.25,-2.85 0.75,-6.2 l -0.3,-1.2 0.5,-0.55 m -26,1 0.25,0.2 q -1.05,2 -0.75,5.45 l 0.5,2.3 q -0.6,0.35 -1.4,1.35 -2.45,2.75 -4.1,3.65 -2.85,1.5 -5.3,0.45 l -0.6,-0.5 q -0.3,-0.5 0.15,-1.05 l 0.85,-0.7 3.1,-1.7 q 1.8,-1 2.85,-2 0.9,-0.8 2.3,-2.8 1.15,-1.65 1.55,-2.75 l 0.5,-2 0.1,0.1 m -4.9,-30.8 -0.2,-0.15 -0.25,-0.45 -1.75,-3.25 -0.7,-1.55 q -0.15,-1 0.6,-1.75 0.7,-0.75 1.7,-0.6 1.1,0.15 1.85,1.25 0.45,0.6 0.95,2.1 l 1.45,4.5 q -1,0.6 -1.85,0.55 -0.85,0 -1.8,-0.65"
         fill="#463030"
         fill-rule="evenodd"
         stroke="none"
         id="path4" />
    </g>
    <g
       id="sprite1"
       transform="translate(17.4,15.85)">
      <use
         ffdec:characterId="31"
         height="57.200001"
         transform="matrix(0.5366,0,0,0.5366,-16.6582,-14.546)"
         width="70.75"
         xlink:href="#sprite2"
         id="use4" />
    </g>
    <g
       id="sprite2"
       transform="translate(-8.65,-10.35)">
      <use
         ffdec:characterId="30"
         height="57.200001"
         transform="translate(8.65,10.35)"
         width="70.75"
         xlink:href="#shape1"
         id="use5" />
    </g>
    <g
       id="shape1"
       transform="translate(-8.65,-10.35)">
      <path
         d="m 14.8,41.7 q 0.65,-1.75 2.65,-2.5 1.8,-0.8 3.7,-0.25 1.15,0.45 2.25,1.2 l 0.9,0.4 q 1.65,0.9 2.85,2.5 L 37.8,30.1 q 2.35,-2.8 3.75,-3.95 1.5,-1.15 4.25,-2.4 18.2,-8.85 27.65,-12.6 2.15,-0.8 3.25,-0.8 h 0.8 l 1.9,2.4 -0.2,0.8 q -0.2,1.1 -1.55,3 -5.85,8.25 -18.85,23.8 -1.85,2.35 -3.35,3.5 -1.4,1.15 -4.75,2.75 l -15.15,7.15 q 1.2,1.6 1.75,3.4 l 0.2,1 0.55,2.5 q 0.1,1.95 -1.1,3.55 -1.2,1.65 -3.05,1.9 l -1.3,0.05 q -1.65,0.2 -3.45,-0.65 -1.85,-0.9 -3,-2.6 L 25,60.95 23.8,62.1 q -2.6,2.85 -4.3,3.95 -2.85,1.8 -5.5,1.45 l -1.65,-0.5 -1.2,-0.7 -0.2,-0.2 q -1,-0.85 -1.6,-1.9 L 9.25,64 9.15,63.8 8.75,62.4 q -0.2,-0.8 -0.05,-1.7 0.25,-2.65 2.7,-5.05 1.5,-1.3 4.9,-3.15 L 17.7,51.55 16.05,50 q -1.35,-1.5 -1.8,-3.6 -0.4,-1.85 0.25,-3.45 l 0.3,-1.25"
         fill="#000000"
         fill-opacity="0.372549"
         fill-rule="evenodd"
         stroke="none"
         id="path5" />
    </g>
  </defs>
</svg>
