<?xml version="1.0" encoding="UTF-8" standalone="no"?>
<svg
   ffdec:objectType="frame"
   height="69.117317"
   width="76.04911"
   version="1.1"
   id="svg4"
   sodipodi:docname="ITEM Lucky Horseshoe.svg"
   xmlns:inkscape="http://www.inkscape.org/namespaces/inkscape"
   xmlns:sodipodi="http://sodipodi.sourceforge.net/DTD/sodipodi-0.dtd"
   xmlns:xlink="http://www.w3.org/1999/xlink"
   xmlns="http://www.w3.org/2000/svg"
   xmlns:svg="http://www.w3.org/2000/svg"
   xmlns:ffdec="https://www.free-decompiler.com/flash">
  <sodipodi:namedview
     id="namedview4"
     pagecolor="#ffffff"
     bordercolor="#000000"
     borderopacity="0.25"
     inkscape:showpageshadow="2"
     inkscape:pageopacity="0.0"
     inkscape:pagecheckerboard="0"
     inkscape:deskcolor="#d1d1d1"
     fit-margin-top="5"
     fit-margin-left="5"
     fit-margin-right="5"
     fit-margin-bottom="5" />
  <g
     transform="translate(42.95625,32)"
     id="g1">
    <use
       ffdec:characterId="17"
       height="119.15"
       id="rarity"
       transform="translate(-58.5,-60.65)"
       width="119.15"
       xlink:href="#sprite0" />
    <use
       ffdec:characterId="745"
       height="69.099998"
       transform="translate(-42.95,-32)"
       width="76.050003"
       xlink:href="#shape0"
       id="use1" />
  </g>
  <defs
     id="defs4">
    <g
       id="shape0"
       transform="translate(43.5,32.75)">
      <path
         d="m -4.2,-0.9 q 1.1,0.45 0.8,1.7 -1.4,6.1 1,11.65 4.8,1.45 6.45,-2.8 L 4.9,6.85 4.75,6.45 4.65,5.8 4.4,4.3 V 3.65 Q 1.9,-1 6.4,-2.15 l 2.95,-0.6 q -1,-3.5 2.75,-6.65 2.35,-2 5.4,-2.4 4.7,-0.6 8.6,-3.3 l 0.55,-0.85 1,-2.4 0.45,-2.1 -0.45,-1.95 q -0.95,-2.25 -2.9,-3.75 l -0.9,-0.9 Q 19,-29 14.6,-25.3 q -1.95,1.65 -4.4,2.55 -7.95,2.75 -15.7,-0.8 -1.55,-0.7 -3.3,-0.9 -9.8,-0.9 -18.15,4.35 l -4.15,4.05 -4.35,5.2 -1,1.95 q -1.15,1.75 -1.35,3.8 -0.1,0.95 -0.45,1.75 v 0.2 1.1 1.05 0.65 l 0.15,0.2 1.05,1.25 0.8,1.35 0.1,0.2 0.1,0.15 1.3,0.75 0.35,0.15 h 1.1 q 8,-3.2 15.7,-7 1.75,-0.9 3.8,-0.55 2.2,0.4 3.3,1.85 3.25,-0.2 6.3,1.1 M 20.05,1.3 Q 20.4,2.7 20.4,4.15 L 20.6,4.6 20.8,5 20.95,5.85 V 6.7 q 3.5,11.7 -3.6,21.45 -1.15,1.5 -2.75,2.6 -14.05,9.7 -29.5,2.65 -3.2,-1.5 -5.4,-4.25 -4.25,-5.45 -4.15,-12.35 0.15,-9.3 6.35,-15.3 -3.3,1 -6.15,3.5 l -2.4,1.65 q -4.85,2.6 -10.1,1.45 -3.55,-0.75 -5,-4.05 l -1,-2.4 q -1.1,-2.8 -0.6,-5.85 1.55,-9.1 8.3,-15.9 12.55,-12.55 29.9,-8.65 l 8.6,1.95 q 2.5,0.6 4.7,-0.6 5.55,-2.85 11.05,-5.35 10.95,0.65 13.15,11.3 0.45,2.1 -0.15,4.2 -2.4,8.15 -11.35,9.65 -3.7,0.6 -7.05,2.25 l -0.3,0.4 q -0.6,0.8 -0.2,1.7 l 0.05,0.05 q 5.45,-0.35 6.7,4.5 M -6.65,14.35 Q -7.5,12.95 -7.8,10.95 L -7.85,9.85 Q -8.35,8.1 -8.3,6.2 V 6.05 3.2 l -6.5,0.5 q -1.55,2.1 -2.5,4.3 -2.65,6 -1,12.8 1.6,6.45 7.9,8.85 l 1.5,0.55 2.05,0.55 3.65,0.6 0.85,0.05 1.15,-0.05 1.45,-0.2 1.2,-0.2 q 8.5,-1.65 13.75,-8.6 1.1,-1.4 1.55,-3.2 0.65,-2.6 0.7,-5.35 -0.6,-2.1 -0.9,-4.25 L 16.25,6.7 16.15,6.45 Q 15.7,5.45 15.6,4.35 L 15.05,2.3 11.75,1.95 H 11.1 L 10.55,2.05 9.7,2.3 9.1,2.5 8.9,2.55 9,3 q 1.9,7.7 -4.2,12.65 -1.7,1.4 -3.95,1.6 -5.4,0.55 -7.5,-2.9 m -5.05,2.15 q 4.6,2.1 0.35,4.75 -1,0.6 -1.75,-0.3 -2.6,-3.2 1.4,-4.45 m 8.15,9.55 q -1.1,-1.95 1.45,-3.45 0.5,-0.3 0.95,-0.35 l 0.5,0.2 q 1.3,0.5 1.85,1.25 0.35,0.5 0.3,1.15 L 0.65,26.6 0.2,27.1 q -0.95,1 -1.95,0.65 L -2.7,27.1 -3.55,26.05 m 14.7,-8.1 q 4.8,2.2 0.4,4.9 -0.9,0.55 -1.65,-0.2 -2.85,-2.75 0.75,-4.55 l 0.5,-0.15"
         fill="#000000"
         fill-rule="evenodd"
         stroke="none"
         id="path1" />
      <path
         d="m -8.3,6.05 q -4.4,1.75 -9,1.95 0.95,-2.2 2.5,-4.3 l 6.5,-0.5 v 2.85 m -0.6,24.15 0.4,-0.45 4.05,-6.45 1.5,-2 q -3.45,-0.65 -5.6,-4 L -8.7,16 q 0.05,-0.85 0.7,-1.5 l 0.3,-0.15 0.15,-0.05 h 0.4 l 0.5,0.05 q 2.1,3.45 7.5,2.9 Q 3.1,17.05 4.8,15.65 10.9,10.7 9,3 L 9.1,2.5 9.7,2.3 10.55,2.05 11.1,1.95 h 0.65 l 3.3,0.35 0.55,2.05 q 0.1,1.1 0.55,2.1 l -0.5,0.7 -1.2,1.65 q 0.05,2.1 -1.7,4.25 L 8.5,18.95 Q 5.15,24.05 2.45,29.4 L 2.3,29.6 2,29.8 l -0.55,1.15 -1.2,0.2 -1.45,0.2 -1.15,0.05 -0.85,-0.05 q -0.25,-1.1 0.5,-2.05 l 0.95,-1.55 q 1,0.35 1.95,-0.65 L 0.65,26.6 1.5,24.85 Q 1.55,24.2 1.2,23.7 l 2.6,-3.3 -2.95,0.85 -0.6,0.1 -0.9,1.1 -0.5,-0.2 Q -1.6,22.3 -2.1,22.6 -4.65,24.1 -3.55,26.05 L -5,28 l -1.35,2.25 -0.5,0.5 -2.05,-0.55"
         fill="#c6c6c6"
         fill-rule="evenodd"
         stroke="none"
         id="path2" />
      <path
         d="M -8.3,6.05 V 6.2 q -0.05,1.9 0.45,3.65 l 0.05,1.1 q 0.3,2 1.15,3.4 l -0.5,-0.05 h -0.4 L -7.7,14.35 -8,14.5 q -0.65,0.65 -0.7,1.5 l 0.15,1.3 q 2.15,3.35 5.6,4 l -1.5,2 -4.05,6.45 -0.4,0.45 -1.5,-0.55 q -6.3,-2.4 -7.9,-8.85 -1.65,-6.8 1,-12.8 4.6,-0.2 9,-1.95 m 24.45,0.4 0.1,0.25 0.3,2.85 q 0.3,2.15 0.9,4.25 -0.05,2.75 -0.7,5.35 -0.45,1.8 -1.55,3.2 -5.25,6.95 -13.75,8.6 L 2,29.8 2.3,29.6 2.45,29.4 Q 5.15,24.05 8.5,18.95 l 4.25,-5.9 Q 14.5,10.9 14.45,8.8 l 1.2,-1.65 0.5,-0.7 m -19.35,24.9 -3.65,-0.6 0.5,-0.5 L -5,28 l 1.45,-1.95 0.85,1.05 0.95,0.65 -0.95,1.55 q -0.75,0.95 -0.5,2.05 M -11.7,16.5 q -4,1.25 -1.4,4.45 0.75,0.9 1.75,0.3 4.25,-2.65 -0.35,-4.75 m 11.05,5.95 0.9,-1.1 0.6,-0.1 L 3.8,20.4 1.2,23.7 Q 0.65,22.95 -0.65,22.45 m 11.8,-4.5 -0.5,0.15 q -3.6,1.8 -0.75,4.55 0.75,0.75 1.65,0.2 4.4,-2.7 -0.4,-4.9"
         fill="#8e8e8e"
         fill-rule="evenodd"
         stroke="none"
         id="path3" />
    </g>
    <g
       id="sprite1"
       transform="translate(17.4,15.85)">
      <use
         ffdec:characterId="31"
         height="57.200001"
         transform="matrix(0.5366,0,0,0.5366,-16.6582,-14.546)"
         width="70.75"
         xlink:href="#sprite2"
         id="use3" />
    </g>
    <g
       id="sprite2"
       transform="translate(-8.65,-10.35)">
      <use
         ffdec:characterId="30"
         height="57.200001"
         transform="translate(8.65,10.35)"
         width="70.75"
         xlink:href="#shape1"
         id="use4" />
    </g>
    <g
       id="shape1"
       transform="translate(-8.65,-10.35)">
      <path
         d="m 14.8,41.7 q 0.65,-1.75 2.65,-2.5 1.8,-0.8 3.7,-0.25 1.15,0.45 2.25,1.2 l 0.9,0.4 q 1.65,0.9 2.85,2.5 L 37.8,30.1 q 2.35,-2.8 3.75,-3.95 1.5,-1.15 4.25,-2.4 18.2,-8.85 27.65,-12.6 2.15,-0.8 3.25,-0.8 h 0.8 l 1.9,2.4 -0.2,0.8 q -0.2,1.1 -1.55,3 -5.85,8.25 -18.85,23.8 -1.85,2.35 -3.35,3.5 -1.4,1.15 -4.75,2.75 l -15.15,7.15 q 1.2,1.6 1.75,3.4 l 0.2,1 0.55,2.5 q 0.1,1.95 -1.1,3.55 -1.2,1.65 -3.05,1.9 l -1.3,0.05 q -1.65,0.2 -3.45,-0.65 -1.85,-0.9 -3,-2.6 L 25,60.95 23.8,62.1 q -2.6,2.85 -4.3,3.95 -2.85,1.8 -5.5,1.45 l -1.65,-0.5 -1.2,-0.7 -0.2,-0.2 q -1,-0.85 -1.6,-1.9 L 9.25,64 9.15,63.8 8.75,62.4 q -0.2,-0.8 -0.05,-1.7 0.25,-2.65 2.7,-5.05 1.5,-1.3 4.9,-3.15 L 17.7,51.55 16.05,50 q -1.35,-1.5 -1.8,-3.6 -0.4,-1.85 0.25,-3.45 l 0.3,-1.25"
         fill="#000000"
         fill-opacity="0.372549"
         fill-rule="evenodd"
         stroke="none"
         id="path4" />
    </g>
  </defs>
</svg>
