<?xml version="1.0" encoding="UTF-8" standalone="no"?>
<svg
   ffdec:objectType="frame"
   height="59.617527"
   width="84.469032"
   version="1.1"
   id="svg5"
   sodipodi:docname="ITEM Lucky Hat.svg"
   xmlns:inkscape="http://www.inkscape.org/namespaces/inkscape"
   xmlns:sodipodi="http://sodipodi.sourceforge.net/DTD/sodipodi-0.dtd"
   xmlns:xlink="http://www.w3.org/1999/xlink"
   xmlns="http://www.w3.org/2000/svg"
   xmlns:svg="http://www.w3.org/2000/svg"
   xmlns:ffdec="https://www.free-decompiler.com/flash">
  <sodipodi:namedview
     id="namedview5"
     pagecolor="#ffffff"
     bordercolor="#000000"
     borderopacity="0.25"
     inkscape:showpageshadow="2"
     inkscape:pageopacity="0.0"
     inkscape:pagecheckerboard="0"
     inkscape:deskcolor="#d1d1d1"
     fit-margin-top="5"
     fit-margin-left="5"
     fit-margin-right="5"
     fit-margin-bottom="5" />
  <g
     transform="translate(43.45,27.491667)"
     id="g1">
    <use
       ffdec:characterId="17"
       height="119.15"
       id="rarity"
       transform="translate(-58.5,-60.65)"
       width="119.15"
       xlink:href="#sprite0" />
    <use
       ffdec:characterId="1153"
       height="59.650002"
       transform="translate(-43.45,-27.5)"
       width="84.449997"
       xlink:href="#shape0"
       id="use1" />
  </g>
  <defs
     id="defs5">
    <g
       id="shape0"
       transform="translate(42.15,25.6)">
      <path
         d="m -11,-12.3 -4.65,-0.95 11.2,-1.05 4.8,-0.7 3.6,-0.9 9.65,-3.65 -1,-0.15 -0.65,-0.05 -19.45,2.1 q -5,0.55 -9.7,2.3 l -2.95,1.25 v 1.45 l -0.25,4.25 q -0.35,6.05 0.25,12.1 l 0.2,2.2 6.1,1.55 4.25,0.7 0.5,-3.05 Q -5.9,2.8 -1.65,2.5 L 4.3,2.35 4.55,2.2 4.8,2.1 5.25,2 V 1.95 L 7.5,2.05 Q 8.05,2.1 8.45,2.45 L 8.5,2.6 8.7,3.1 Q 9.05,3.9 9,4.75 l -0.05,0.15 0.1,0.15 0.05,0.2 0.05,0.2 q 0.8,-0.6 2.05,-0.95 4.05,-1.15 7.5,-3.15 -1.3,-7.45 -2,-15 l -0.3,-3.05 -1.65,0.75 q -5.5,1.85 -11.2,3.05 l -3.3,0.35 q -5.7,1 -11.25,0.25 M 8.1,-25.5 q 6.45,-0.55 11.85,2.2 0.6,0.35 0.7,1.1 l 1.95,19.4 0.8,7.55 q 7.45,0.55 14.8,3.05 5.65,1.9 3.55,7.4 -0.6,1.5 -1.9,2.6 -7.7,6.5 -17.5,9.85 -12.05,4.2 -24.75,5.7 -11.4,1.4 -22.8,-0.1 -6.45,-0.85 -12.55,-3 -3.7,-1.35 -4.3,-5 -0.7,-4.45 3.5,-6.45 l 4.45,-2.2 q 3.75,-1.95 7.65,-3.5 l 1.1,-0.6 V 12.35 L -25.4,12.2 -25.45,12.05 V 11.7 l -0.05,-0.15 v -0.5 Q -26.4,5.9 -26.55,0.6 q -0.2,-9.1 0.9,-18.1 0.1,-0.7 0.8,-1.1 7.85,-4.6 17,-5.3 L 8.1,-25.5 M 8.2,16.15 8.1,16 8,15.85 7.9,15.2 7.75,12.4 7.8,11.75 7.7,11.6 7.65,11.45 7.55,11.1 V 10.6 L 7.45,10.45 7.35,10.3 7.3,10.15 7.25,9.65 V 7.85 7.7 L 7.15,7.5 7.1,7.35 7.05,6.85 7,6.2 6.95,6.05 6.85,5.85 V 5.55 L 6.75,5.05 6.65,4.9 6.5,4.75 Q 0.25,5.2 -6.15,6.75 -6.35,8.2 -6.2,9.7 l 0.15,4.25 q 1,2.8 0.5,5.45 l 1.9,-0.15 Q -4,18.8 -4,18.15 l 0.15,-3.2 -0.1,-2.4 0.1,-1.1 L -3.95,10.6 -3.75,9 -3.7,8.9 -3.65,8.7 -3.6,8.55 -3.55,8.4 Q -2.8,7.65 -1.7,7.5 l 0.45,-0.1 4.4,0.1 0.7,0.2 0.1,0.15 0.9,3.45 0.1,0.9 0.2,1.25 0.25,3.9 2.8,-1.05 v -0.15 m 21.3,-5.3 -5.25,-0.4 -0.8,1.65 q -3.8,5.7 -10.6,7.6 L 8.5,20.85 q -9.7,2.5 -19.55,0.75 -1.35,-0.25 -2.45,-0.95 l -0.15,-0.2 -0.1,-0.1 -0.9,-0.25 q -3.4,-1.1 -6.15,-3.05 l -0.15,0.05 q -5.95,2.4 -11.6,5.45 l -0.25,0.1 -3.45,2 q 2.6,1.9 5.85,2.2 l 7,0.9 q 12.85,2.2 25.55,-0.15 l 11.7,-2.7 Q 25.75,21.6 35.6,14.35 l 1.6,-1.3 q -2.95,-1.55 -6.65,-2.1 l -1.05,-0.1"
         fill="#000000"
         fill-rule="evenodd"
         stroke="none"
         id="path1" />
      <path
         d="m -20.15,-12.65 v -1.45 l 2.95,-1.25 q 4.7,-1.75 9.7,-2.3 l 19.45,-2.1 0.65,0.05 1,0.15 -9.65,3.65 -3.6,0.9 -4.8,0.7 -11.2,1.05 4.65,0.95 -4.95,-0.05 q -2.6,0.9 -4.2,-0.3 m -12.4,35.2 q 5.65,-3.05 11.6,-5.45 l 0.15,-0.05 q 2.75,1.95 6.15,3.05 l 0.9,0.25 0.1,0.1 0.15,0.2 q 1.1,0.7 2.45,0.95 9.85,1.75 19.55,-0.75 l 4.35,-1.15 q 6.8,-1.9 10.6,-7.6 l 0.8,-1.65 5.25,0.4 0.85,1.2 q 0.4,0.75 -0.1,1.45 -4.5,5.8 -11.5,8.6 -8.6,3.45 -17.8,4.5 l -11.7,0.8 q -10,0.2 -19.4,-2.7 -2.05,-0.65 -2.4,-2.15"
         fill="#95b48b"
         fill-rule="evenodd"
         stroke="none"
         id="path2" />
      <path
         d="m -20.15,-12.65 q 1.6,1.2 4.2,0.3 l 4.95,0.05 q 5.55,0.75 11.25,-0.25 l 3.3,-0.35 q 5.7,-1.2 11.2,-3.05 l 1.65,-0.75 0.3,3.05 q 0.7,7.55 2,15 -3.45,2 -7.5,3.15 Q 9.95,4.85 9.15,5.45 L 9.1,5.25 9.05,5.05 8.95,4.9 9,4.75 Q 9.05,3.9 8.7,3.1 L 8.5,2.6 8.45,2.45 Q 8.05,2.1 7.5,2.05 L 5.25,1.95 V 2 L 4.8,2.1 4.55,2.2 4.3,2.35 -1.65,2.5 Q -5.9,2.8 -9.1,5.1 l -0.5,3.05 -4.25,-0.7 -6.1,-1.55 -0.2,-2.2 q -0.6,-6.05 -0.25,-12.1 l 0.25,-4.25 m -12.4,35.2 q 0.35,1.5 2.4,2.15 9.4,2.9 19.4,2.7 l 11.7,-0.8 q 9.2,-1.05 17.8,-4.5 7,-2.8 11.5,-8.6 0.5,-0.7 0.1,-1.45 l -0.85,-1.2 1.05,0.1 q 3.7,0.55 6.65,2.1 l -1.6,1.3 Q 25.75,21.6 13.85,24.9 l -11.7,2.7 q -12.7,2.35 -25.55,0.15 l -7,-0.9 q -3.25,-0.3 -5.85,-2.2 l 3.45,-2 0.25,-0.1"
         fill="#839979"
         fill-rule="evenodd"
         stroke="none"
         id="path3" />
      <path
         d="M 8.2,16.15 V 16.3 L 5.4,17.35 5.15,13.45 4.95,12.2 4.85,11.3 3.95,7.85 3.85,7.7 3.15,7.5 -1.25,7.4 -1.7,7.5 Q -2.8,7.65 -3.55,8.4 L -3.6,8.55 -3.65,8.7 -3.7,8.9 -3.75,9 l -0.2,1.6 0.1,0.85 -0.1,1.1 0.1,2.4 -0.15,3.2 q 0,0.65 0.35,1.1 l -1.9,0.15 q 0.5,-2.65 -0.5,-5.45 L -6.2,9.7 Q -6.35,8.2 -6.15,6.75 0.25,5.2 6.5,4.75 l 0.15,0.15 0.1,0.15 0.1,0.5 v 0.3 L 6.95,6.05 7,6.2 7.05,6.85 7.1,7.35 7.15,7.5 7.25,7.7 v 0.15 1.8 l 0.05,0.5 0.05,0.15 0.1,0.15 0.1,0.15 v 0.5 L 7.65,11.45 7.7,11.6 7.8,11.75 7.75,12.4 7.9,15.2 8,15.85 8.1,16 8.2,16.15"
         fill="#dcd7a3"
         fill-rule="evenodd"
         stroke="none"
         id="path4" />
    </g>
    <g
       id="sprite1"
       transform="translate(17.4,15.85)">
      <use
         ffdec:characterId="31"
         height="57.200001"
         transform="matrix(0.5366,0,0,0.5366,-16.6582,-14.546)"
         width="70.75"
         xlink:href="#sprite2"
         id="use4" />
    </g>
    <g
       id="sprite2"
       transform="translate(-8.65,-10.35)">
      <use
         ffdec:characterId="30"
         height="57.200001"
         transform="translate(8.65,10.35)"
         width="70.75"
         xlink:href="#shape1"
         id="use5" />
    </g>
    <g
       id="shape1"
       transform="translate(-8.65,-10.35)">
      <path
         d="m 14.8,41.7 q 0.65,-1.75 2.65,-2.5 1.8,-0.8 3.7,-0.25 1.15,0.45 2.25,1.2 l 0.9,0.4 q 1.65,0.9 2.85,2.5 L 37.8,30.1 q 2.35,-2.8 3.75,-3.95 1.5,-1.15 4.25,-2.4 18.2,-8.85 27.65,-12.6 2.15,-0.8 3.25,-0.8 h 0.8 l 1.9,2.4 -0.2,0.8 q -0.2,1.1 -1.55,3 -5.85,8.25 -18.85,23.8 -1.85,2.35 -3.35,3.5 -1.4,1.15 -4.75,2.75 l -15.15,7.15 q 1.2,1.6 1.75,3.4 l 0.2,1 0.55,2.5 q 0.1,1.95 -1.1,3.55 -1.2,1.65 -3.05,1.9 l -1.3,0.05 q -1.65,0.2 -3.45,-0.65 -1.85,-0.9 -3,-2.6 L 25,60.95 23.8,62.1 q -2.6,2.85 -4.3,3.95 -2.85,1.8 -5.5,1.45 l -1.65,-0.5 -1.2,-0.7 -0.2,-0.2 q -1,-0.85 -1.6,-1.9 L 9.25,64 9.15,63.8 8.75,62.4 q -0.2,-0.8 -0.05,-1.7 0.25,-2.65 2.7,-5.05 1.5,-1.3 4.9,-3.15 L 17.7,51.55 16.05,50 q -1.35,-1.5 -1.8,-3.6 -0.4,-1.85 0.25,-3.45 l 0.3,-1.25"
         fill="#000000"
         fill-opacity="0.372549"
         fill-rule="evenodd"
         stroke="none"
         id="path5" />
    </g>
  </defs>
</svg>
