<?xml version="1.0" encoding="UTF-8" standalone="no"?>
<svg
   ffdec:objectType="frame"
   height="73.228569"
   width="78.397499"
   version="1.1"
   id="svg5"
   sodipodi:docname="ITEM Rat Hat.svg"
   xmlns:inkscape="http://www.inkscape.org/namespaces/inkscape"
   xmlns:sodipodi="http://sodipodi.sourceforge.net/DTD/sodipodi-0.dtd"
   xmlns:xlink="http://www.w3.org/1999/xlink"
   xmlns="http://www.w3.org/2000/svg"
   xmlns:svg="http://www.w3.org/2000/svg"
   xmlns:ffdec="https://www.free-decompiler.com/flash">
  <sodipodi:namedview
     id="namedview5"
     pagecolor="#ffffff"
     bordercolor="#000000"
     borderopacity="0.25"
     inkscape:showpageshadow="2"
     inkscape:pageopacity="0.0"
     inkscape:pagecheckerboard="0"
     inkscape:deskcolor="#d1d1d1"
     fit-margin-top="5"
     fit-margin-left="5"
     fit-margin-right="5"
     fit-margin-bottom="5" />
  <g
     transform="translate(43.7375,43.9)"
     id="g1">
    <use
       ffdec:characterId="17"
       height="119.15"
       id="rarity"
       transform="translate(-58.5,-60.65)"
       width="119.15"
       xlink:href="#sprite0" />
    <use
       ffdec:characterId="1248"
       height="73.25"
       transform="translate(-43.75,-43.9)"
       width="78.400002"
       xlink:href="#shape0"
       id="use1" />
  </g>
  <defs
     id="defs5">
    <g
       id="shape0"
       transform="translate(42.45,42)">
      <path
         d="M 18.7,6.7 18.5,6.3 q -1.35,-3.5 -1.9,-6.35 -0.35,-1.7 -0.65,-5.1 l -0.3,-3.1 -0.2,-3.5 q -0.05,-1.9 0.25,-5.6 0.5,-5.7 1.25,-8.55 1.3,-4.8 4.05,-7.55 0.3,-0.4 0.6,-0.4 0.65,0.1 0.55,0.85 l -0.55,0.9 q -1.7,2.2 -2.4,5.55 -0.45,2.25 -0.6,6.25 l -0.1,4.25 q 0,11.6 3.55,20.6 l 1.55,-2.15 2,-2.95 q 3.8,-5.95 5.1,-13.05 1.35,-7.1 -0.05,-14.05 -0.7,-3.75 -2.25,-6.05 -2.2,-3.1 -5.3,-3.45 -1.75,-0.2 -3.5,0.6 -1.7,0.8 -2.95,2.25 -2.05,2.35 -3.1,6.6 -1.05,4.55 -0.95,10.15 0.05,4.25 0.85,10.3 0.9,5.95 2,9.1 l 0.45,2.6 v 0.1 q -0.25,1.1 -1.55,1.6 L 12.55,6.2 12.05,5.9 10.65,4.85 8.4,2.3 6.1,-0.3 Q 3.85,-2.7 1.15,-4.35 l 0.7,1.6 1,1.5 Q 4.1,0.8 3.1,2.05 2.45,2.9 0.4,3.1 l -6.05,0.3 q -3.5,0.3 -5.75,1.5 l 4.55,2.15 q 1.3,0.6 1.8,1.25 0.5,0.8 0.1,1.75 L -5.1,10.4 q -0.4,0.65 -1.15,0.75 -0.6,0.1 -2,-0.55 l -0.4,-0.2 q -2.8,-1.5 -5.95,-2.65 -2.55,-0.95 -2.8,-2.25 -0.3,-1.55 1.75,-3 4.3,-3.05 11.6,-3.5 L -4.6,-1.4 q -0.9,-0.65 -2.85,-2.8 -1.75,-1.9 -3.05,-2.65 -1.1,2.35 -2.65,3.7 -1.95,1.7 -4.15,1.7 -0.95,0.1 -1.65,-0.3 l -0.4,-0.3 -0.9,1.1 -1.05,0.75 -0.85,0.4 -1.65,0.3 q -1.4,0 -2.25,-0.6 l -0.9,-1.1 -0.7,-1.95 -0.15,-2 q -0.1,-2.05 0.4,-3.3 -3.85,-1.2 -6,0.05 -1.15,0.7 -2,2.2 l -1.15,2.9 -1.1,4.3 q -0.5,3.65 1.3,7.2 1.7,3.4 4.85,5.5 3.05,2 6.9,2.45 3.75,0.5 7.4,-0.55 2.4,-0.6 3.05,-0.5 l 0.5,0.1 q 1.25,-2 3,-3.25 L -9.6,11.4 h 0.05 q 0.55,-0.05 1.05,0.35 0.45,0.45 0.45,1 0,0.5 -0.4,1.05 l -0.8,0.9 q -1.1,1.2 -2.05,3.45 l -1.1,2.9 3.5,-2.15 q 1,-0.65 1.8,-0.7 1.2,-0.2 1.8,0.55 0.35,0.35 0.65,1.4 0.45,1.4 1.3,2.85 L -2,20.95 q 1.05,-1.05 2.2,-1.05 0.6,0 0.9,0.35 l 0.15,0.6 q 0,0.8 -0.95,2.05 l -1.65,2.8 -0.45,1.4 1.6,-0.05 h 0.05 l 7.3,-0.65 3.65,-0.8 2.85,-0.95 2.65,-1.15 1,-0.5 q 4.65,-2.6 7.45,-6.7 l 0.3,-0.95 -0.3,-0.6 -1.8,-2.35 -0.75,-0.9 -0.85,-1.1 Q 20.65,9.5 20.45,8.8 L 19.6,8.2 18.7,6.7 M 7.9,-22.6 q 0.65,-8.85 4.5,-13.95 2.4,-3.1 5.9,-4.55 3.7,-1.5 7.2,-0.5 4.05,1.2 6.7,5.25 2.05,3.25 3,8.1 Q 37.1,-18.7 34.25,-9 31.4,0.75 24.6,7.7 l -0.15,0.15 0.25,0.25 1.1,1.35 2.55,2.45 q 1.5,1.7 1.55,3.15 0.05,1.55 -1.55,3.85 Q 25.2,23 20.75,25.85 16.3,28.7 11.2,29.9 L 2.85,31 q -5,0.4 -8.4,0.1 -4.55,-0.45 -7.85,-2.25 -1.2,-0.7 -1.7,-1.45 h -0.55 q -0.85,-0.1 -1.3,-0.7 -0.45,-0.65 -0.35,-1.75 0.05,-1.2 0.7,-3.05 l 0.75,-2.05 q -5.9,1.7 -11.4,0.6 -7,-1.45 -11.3,-6.8 -2.1,-2.7 -3.1,-5.95 -1.05,-3.3 -0.7,-6.65 0.25,-2.15 1.25,-5.4 1.1,-3.55 2.55,-5.5 2.65,-3.4 6.8,-3.85 4.1,-0.45 7.5,2.2 1.35,1.15 1.15,2.2 l -0.25,0.55 v 0.05 l -0.5,1.5 q -0.7,1.95 0.05,3.8 l 0.2,0.25 h 0.3 q 0.8,-0.25 1.4,-0.8 0.6,-0.65 0.7,-1.4 l 0.05,-0.75 q 0.15,-0.75 0.85,-1 l 1.3,0.15 0.35,0.35 q 0.6,0.3 1.05,1 l 0.45,0.45 0.7,-0.1 q 1.15,-0.5 2.1,-2 0.65,-0.95 0.55,-1.65 L -14,-9.7 q -0.15,-0.75 0.4,-1.4 0.55,-0.65 1.3,-0.6 0.6,0 1.5,0.5 2.1,1.2 3.9,2.85 l 2.7,2.75 1.3,1.4 -0.95,-1.85 -0.75,-2.1 q -0.15,-1.3 0.7,-2.05 l 2.65,-0.15 2.6,1.45 3.5,2.45 q 2.3,1.8 4.65,4.55 l 0.1,0.15 Q 7.25,-13.55 7.9,-22.6 m -13.85,47.75 -1.65,-3 q -2.35,1 -4,2.75 l 0.6,0.3 q 1.1,0.65 2.6,1.1 l 3.85,0.7 -1.4,-1.85"
         fill="#000000"
         fill-rule="evenodd"
         stroke="none"
         id="path1" />
      <path
         d="m 22.95,12.4 1.8,2.35 0.3,0.6 -0.3,0.95 q -2.8,4.1 -7.45,6.7 l -1,0.5 -2.65,1.15 -2.85,0.95 q -0.3,-0.6 -0.25,-1.3 0,-0.95 0.65,-1.7 0.45,-0.6 1.45,-1.05 L 14,21.25 13.85,20.3 q -0.05,-1.25 0.3,-2.45 l 0.9,-1.8 0.8,-1.1 Q 16.7,14 18.1,13.2 l 0.85,-0.4 q 0.55,-0.3 1.15,-0.45 l 1.9,-0.1 0.5,0.05 0.45,0.1 m -15.8,14 -7.3,0.65 Q 0.05,25.65 1.25,24.7 2.7,23.6 4.7,23.85 5.75,24 6.4,24.65 7.15,25.4 7.15,26.4 M 7.9,17.6 q 1,0.35 1.2,1.25 0.3,0.9 -0.25,1.7 L 7.65,21.3 Q 6.9,21.5 6.3,21.1 5.65,20.75 5.45,20 5.2,19.3 5.5,18.6 5.8,17.95 6.5,17.65 L 7.9,17.6 m -16.3,8.7 q 0.35,-0.7 1.2,-1.05 l 1.25,-0.1 1.4,1.85 -3.85,-0.7"
         fill="#945f5f"
         fill-rule="evenodd"
         stroke="none"
         id="path2" />
      <path
         d="m 15.9,4.55 0.85,0.6 1.95,1.55 0.9,1.5 0.85,0.6 q 0.2,0.7 0.9,1.6 l 0.85,1.1 0.3,0.8 -0.5,-0.05 -1.9,0.1 q -0.6,0.15 -1.15,0.45 l -0.85,0.4 q -1.4,0.8 -2.25,1.75 l -0.8,1.1 -0.9,1.8 q -0.35,1.2 -0.3,2.45 l 0.15,0.95 -1.35,0.3 q -1,0.45 -1.45,1.05 -0.65,0.75 -0.65,1.7 -0.05,0.7 0.25,1.3 l -3.65,0.8 q 0,-1 -0.75,-1.75 Q 5.75,24 4.7,23.85 2.7,23.6 1.25,24.7 q -1.2,0.95 -1.4,2.35 H -0.2 L -1.8,27.1 -1.35,25.7 0.3,22.9 Q 1.25,21.65 1.25,20.85 L 1.1,20.25 Q 0.8,19.9 0.2,19.9 -0.95,19.9 -2,20.95 L -3.35,23 Q -4.2,21.55 -4.65,20.15 -4.95,19.1 -5.3,18.75 -5.9,18 -7.1,18.2 q -0.8,0.05 -1.8,0.7 l -3.5,2.15 1.1,-2.9 q 0.95,-2.25 2.05,-3.45 l 0.8,-0.9 q 0.4,-0.55 0.4,-1.05 0,-0.55 -0.45,-1 Q -9,11.35 -9.55,11.4 H -9.6 l 0.1,-0.15 0.85,-0.85 0.4,0.2 q 1.4,0.65 2,0.55 0.75,-0.1 1.15,-0.75 l 0.15,-0.35 Q -4.55,9.1 -5.05,8.3 -5.55,7.65 -6.85,7.05 L -11.4,4.9 Q -9.15,3.7 -5.65,3.4 L 0.4,3.1 Q 2.45,2.9 3.1,2.05 4.1,0.8 2.85,-1.25 l -1,-1.5 -0.7,-1.6 q 2.7,1.65 4.95,4.05 l 2.3,2.6 2.25,2.55 1.4,1.05 0.5,0.3 1.8,-0.05 q 1.3,-0.5 1.55,-1.6 m -8,13.05 -1.4,0.05 q -0.7,0.3 -1,0.95 -0.3,0.7 -0.05,1.4 0.2,0.75 0.85,1.1 0.6,0.4 1.35,0.2 l 1.2,-0.75 Q 9.4,19.75 9.1,18.85 8.9,17.95 7.9,17.6 m -13.85,7.55 -1.25,0.1 Q -8.05,25.6 -8.4,26.3 -9.9,25.85 -11,25.2 l -0.6,-0.3 q 1.65,-1.75 4,-2.75 l 1.65,3"
         fill="#a4a4a4"
         fill-rule="evenodd"
         stroke="none"
         id="path3" />
      <path
         d="m 15.9,4.55 v -0.1 l -0.45,-2.6 q -1.1,-3.15 -2,-9.1 -0.8,-6.05 -0.85,-10.3 -0.1,-5.6 0.95,-10.15 1.05,-4.25 3.1,-6.6 1.25,-1.45 2.95,-2.25 1.75,-0.8 3.5,-0.6 3.1,0.35 5.3,3.45 1.55,2.3 2.25,6.05 1.4,6.95 0.05,14.05 -1.3,7.1 -5.1,13.05 l -2,2.95 -1.55,2.15 q -3.55,-9 -3.55,-20.6 l 0.1,-4.25 q 0.15,-4 0.6,-6.25 0.7,-3.35 2.4,-5.55 l 0.55,-0.9 q 0.1,-0.75 -0.55,-0.85 -0.3,0 -0.6,0.4 -2.75,2.75 -4.05,7.55 -0.75,2.85 -1.25,8.55 -0.3,3.7 -0.25,5.6 l 0.2,3.5 0.3,3.1 q 0.3,3.4 0.65,5.1 0.55,2.85 1.9,6.35 L 18.7,6.7 16.75,5.15 15.9,4.55 m -25.5,6.85 -1.05,0.55 q -1.75,1.25 -3,3.25 l -0.5,-0.1 q -0.65,-0.1 -3.05,0.5 -3.65,1.05 -7.4,0.55 -3.85,-0.45 -6.9,-2.45 -3.15,-2.1 -4.85,-5.5 -1.8,-3.55 -1.3,-7.2 l 1.1,-4.3 1.15,-2.9 q 0.85,-1.5 2,-2.2 2.15,-1.25 6,-0.05 -0.5,1.25 -0.4,3.3 l 0.15,2 0.7,1.95 0.9,1.1 q 0.85,0.6 2.25,0.6 l 1.65,-0.3 0.85,-0.4 1.05,-0.75 0.9,-1.1 0.4,0.3 q 0.7,0.4 1.65,0.3 2.2,0 4.15,-1.7 1.55,-1.35 2.65,-3.7 1.3,0.75 3.05,2.65 1.95,2.15 2.85,2.8 l 0.55,0.4 q -7.3,0.45 -11.6,3.5 -2.05,1.45 -1.75,3 0.25,1.3 2.8,2.25 3.15,1.15 5.95,2.65 l -0.85,0.85 -0.1,0.15"
         fill="#d1b3b3"
         fill-rule="evenodd"
         stroke="none"
         id="path4" />
    </g>
    <g
       id="sprite1"
       transform="translate(17.4,15.85)">
      <use
         ffdec:characterId="31"
         height="57.200001"
         transform="matrix(0.5366,0,0,0.5366,-16.6582,-14.546)"
         width="70.75"
         xlink:href="#sprite2"
         id="use4" />
    </g>
    <g
       id="sprite2"
       transform="translate(-8.65,-10.35)">
      <use
         ffdec:characterId="30"
         height="57.200001"
         transform="translate(8.65,10.35)"
         width="70.75"
         xlink:href="#shape1"
         id="use5" />
    </g>
    <g
       id="shape1"
       transform="translate(-8.65,-10.35)">
      <path
         d="m 14.8,41.7 q 0.65,-1.75 2.65,-2.5 1.8,-0.8 3.7,-0.25 1.15,0.45 2.25,1.2 l 0.9,0.4 q 1.65,0.9 2.85,2.5 L 37.8,30.1 q 2.35,-2.8 3.75,-3.95 1.5,-1.15 4.25,-2.4 18.2,-8.85 27.65,-12.6 2.15,-0.8 3.25,-0.8 h 0.8 l 1.9,2.4 -0.2,0.8 q -0.2,1.1 -1.55,3 -5.85,8.25 -18.85,23.8 -1.85,2.35 -3.35,3.5 -1.4,1.15 -4.75,2.75 l -15.15,7.15 q 1.2,1.6 1.75,3.4 l 0.2,1 0.55,2.5 q 0.1,1.95 -1.1,3.55 -1.2,1.65 -3.05,1.9 l -1.3,0.05 q -1.65,0.2 -3.45,-0.65 -1.85,-0.9 -3,-2.6 L 25,60.95 23.8,62.1 q -2.6,2.85 -4.3,3.95 -2.85,1.8 -5.5,1.45 l -1.65,-0.5 -1.2,-0.7 -0.2,-0.2 q -1,-0.85 -1.6,-1.9 L 9.25,64 9.15,63.8 8.75,62.4 q -0.2,-0.8 -0.05,-1.7 0.25,-2.65 2.7,-5.05 1.5,-1.3 4.9,-3.15 L 17.7,51.55 16.05,50 q -1.35,-1.5 -1.8,-3.6 -0.4,-1.85 0.25,-3.45 l 0.3,-1.25"
         fill="#000000"
         fill-opacity="0.372549"
         fill-rule="evenodd"
         stroke="none"
         id="path5" />
    </g>
  </defs>
</svg>
