<?xml version="1.0" encoding="UTF-8" standalone="no"?>
<svg
   ffdec:objectType="frame"
   height="62.037998"
   width="85.828575"
   version="1.1"
   id="svg3"
   xmlns:xlink="http://www.w3.org/1999/xlink"
   xmlns="http://www.w3.org/2000/svg"
   xmlns:svg="http://www.w3.org/2000/svg"
   xmlns:ffdec="https://www.free-decompiler.com/flash">
  <g
     transform="translate(38.55,29.838)"
     id="g1">
    <use
       ffdec:characterId="17"
       height="119.15"
       id="rarity"
       transform="translate(-58.5,-60.65)"
       width="119.15"
       xlink:href="#sprite0" />
    <use
       ffdec:characterId="253"
       height="62.049999"
       transform="translate(-38.55,-29.85)"
       width="85.849998"
       xlink:href="#shape0"
       id="use1" />
  </g>
  <defs
     id="defs3">
    <g
       id="shape0"
       transform="translate(38.25,32.35)">
      <path
         d="m -27.95,29.4 -5.1,-1 q -2.8,-1.05 -4.1,-3.1 -0.75,-1.3 -1,-3.15 l -0.1,-3.45 q 0,-3.6 0.8,-5.3 0.85,-1.85 3.95,-4.5 l 1.35,-1.15 1,-0.45 0.6,-0.85 0.4,-0.4 -0.1,-0.25 V 5.6 l 0.1,-0.55 3.9,-18.85 6.7,-3.7 1.9,-0.95 v -0.7 l 0.35,-2 0.8,-1.3 0.3,-0.4 -0.6,-0.45 q -1.05,-1.05 -1.15,-3.2 0,-2.15 0.8,-3.2 l 1.55,-1.3 q 1.65,-0.95 3.65,-0.95 1.6,-0.1 2.6,0.65 1.4,1.05 1.6,3.4 0.15,2.1 -0.7,3.4 l 0.05,0.05 1.45,1.6 0.35,0.75 3.5,-0.55 q 13.85,-2.1 23.1,-1.5 2.05,0.2 2.85,0.75 l 1.05,1.15 1.9,-0.75 2.6,-1 1.15,-0.45 0.15,-0.6 q 0.4,-1 1.45,-2 3.45,-3.3 9.95,-5 2.45,-0.6 3.6,0.05 l 0.6,0.45 0.35,0.2 q 1.15,0.65 1.55,3.1 0.4,2.6 0.3,5.6 v 1.2 l 0.05,0.65 q 0.1,1.1 -0.15,1.75 l -0.65,0.95 q -1.05,1.1 -3.3,2.05 -1.35,0.65 -2.65,1 l -4.2,0.55 q -2.15,0.1 -3,-0.45 l -0.45,-0.35 q -0.5,-0.25 -0.95,-0.7 l -1.2,0.45 -4.65,1.5 0.65,6.55 2.35,-0.1 q 2.85,0.25 4.7,1.5 1.9,1.3 3.2,4.2 1.65,3.55 1.55,7.55 0,2.15 -0.8,5.7 -0.75,3.7 -2.05,6.35 -1.4,2.75 -4.5,6.3 -2.15,2.4 -4,3.35 -1.35,0.7 -4.4,1.25 l -17.95,1.1 -19.8,-0.25 -4.2,-0.1 -1.3,0.2 q -2.8,0.3 -7.75,-0.15 m 17.5,-54.3 0.4,-0.7 -0.85,0.05 q -0.45,-0.1 -1.05,-0.55 -0.5,0.45 -1.25,0.5 l -1.25,-0.25 0.45,1.3 q 0.65,0.8 2.05,0.65 0.5,0 0.9,-0.3 l 0.6,-0.7 m 9.8,15.85 Q 1.2,-8.8 2.75,-8 L 2.7,-8.6 2.55,-9.8 2.5,-10 2.45,-10.6 2.4,-10.95 2.05,-11.5 q -0.65,-1.2 0.2,-2.15 0.65,-0.8 2.3,-1.1 l 5.1,-1 0.7,0.15 0.65,-0.5 1.1,-0.55 4.35,-2.3 -7,0.25 -10.45,1.25 -2.4,0.4 0.45,2.1 0.5,3 q 0.35,1.55 0.4,2.75 l 1.4,0.15 m -13.75,-11.3 0.15,0.45 q 0.65,-0.4 1.55,-0.6 l 3.1,-0.65 h 0.1 q 0.2,-0.7 0.05,-1.15 -0.25,-1.05 -1.5,-1.25 -1,-0.15 -2,0.5 l -1.2,1.15 q -0.45,0.7 -0.25,1.55 m 16.15,18.65 -1.1,-1.45 -2.1,-0.6 q -2.3,-0.2 -3.45,0 -1.45,0.2 -3.85,1.25 l -5.65,2.95 2.8,0.5 3,0.8 q 1.9,0.7 3.55,1.9 0.9,0.75 1.5,0.85 L -2,4.1 Q 1.55,2.7 3.2,2.4 2.7,0.2 1.75,-1.7 m 15.45,-14.75 -2.7,1.55 0.4,-0.2 3.9,-1.15 0.9,-0.3 1.4,-0.85 4.8,-1.95 4.25,-1.25 h 0.9 L 31,-21.05 q -0.1,-0.8 -1.2,-0.95 l -1.65,0.3 q -1.95,0.7 -4.95,2.3 l -4.95,2.5 -1.05,0.45 M 9.7,-2.5 18.4,-3.15 Q 17.8,-5.7 17.45,-10 q -1.35,0.85 -2.5,1.3 l -2.4,0.4 H 12.1 q -0.9,-0.15 -1.75,-0.55 -0.8,-0.4 -1.3,-1.05 l -0.35,-0.6 -0.15,-0.3 -1.45,0.1 -0.45,0.15 -0.2,0.05 0.25,2.8 0.25,2.15 0.15,1.2 0.1,0.35 0.1,1.25 v 0.4 L 9.7,-2.5 m 23.45,-19.55 0.25,0.65 0.7,-0.2 1,-0.05 v -0.75 q 0,-0.6 0.3,-0.95 0.5,-0.6 1.3,-0.35 0.8,0.25 0.95,1 l 0.05,0.85 0.05,0.45 0.35,0.1 1.15,-0.2 q -0.3,-1 -0.2,-2.2 0.1,-2.2 1.7,-3.8 l 1.75,-0.95 -0.1,-0.1 -0.3,0.05 q -4.45,0.9 -8.15,3.6 l -0.8,0.75 q -0.3,1.05 0,2.1 m -10,18.5 0.3,-0.6 -0.05,-0.2 -0.7,-3.55 -0.7,-3.8 -0.15,-0.7 -0.55,0.25 v 0.05 l 0.2,1.6 v 1.75 l 0.3,2.2 0.2,2.85 -0.05,0.25 1.2,-0.1 M 33.4,3.7 Q 33,-1 30.25,-2 L 28.7,-2.3 h -0.8 q 0.9,1 1.3,3.15 l 0.4,2.5 2.9,0.35 0.95,0.25 L 33.4,3.7 M 27.85,19.95 28.2,19.6 27.55,19.1 Q 27,18.35 27.45,17.55 l 1.1,-0.85 1.25,-0.1 0.5,0.15 1.45,-3 -0.15,-0.1 -0.8,-0.6 q -0.5,-0.4 -0.5,-0.85 0.05,-0.5 0.6,-0.7 L 31.8,11.25 32.65,11.2 33.4,7.55 32.85,7.5 30.45,7.35 29.5,7.4 q -0.4,3.2 -1.75,6.3 -2.15,4.8 -6.15,8 2.2,0.1 3.5,0.6 l 2.75,-2.35 M 22.45,1.5 16.75,1.95 8.35,2.8 q 0.3,2.15 0.2,4.35 l 1.6,-0.4 -0.1,-0.45 q 0,-0.65 0.45,-1.25 l 1.1,-0.7 q 1.1,-0.25 1.9,0.7 L 13.95,6 16.9,5.8 V 5.75 q 0.1,-0.6 0.6,-1.1 0.45,-0.45 1.1,-0.5 l 0.15,-0.1 q 1.25,0.1 1.7,1.15 l 0.25,0.6 h 1.15 Q 21.8,5.45 21.9,5.05 q 0.2,-0.8 1.05,-1.1 l 0.7,-0.1 q 1.1,0 1.6,1 0.1,-1.9 -0.2,-3.8 l -2.6,0.45 m -26.6,18.25 2.6,-0.95 1.6,-1.25 -1.25,-0.3 -0.6,-0.6 -0.05,-0.75 q 0.2,-0.5 0.8,-0.75 l 1.3,-0.55 1.7,-0.3 V 14.15 L 2.65,12.25 1.5,12.3 Q 0.25,12.3 -0.1,11.8 -0.6,11.15 0.05,10.4 0.5,10 1.4,9.8 L 2.9,9.65 3.25,9.6 3.55,6.4 Q 0.7,7.25 -2.05,8.45 -3.15,9 -4,9.15 l -0.35,3.15 -0.35,2.55 -1.25,3.7 -0.45,1.35 -0.2,0.35 1.7,-0.4 0.75,-0.1 m -30.2,0.75 0.3,1.65 q 0.5,1 1.5,1.65 1.5,1 3.25,0.65 2.4,-0.5 3.85,-3.4 0.4,-0.9 0.45,-1.65 0,-0.95 -0.7,-1.5 l -0.75,-0.2 h -0.05 q 0.45,0.65 0.45,1.45 -0.05,0.6 -0.55,1.35 -0.6,0.95 -1.25,1.35 -1.1,0.75 -3.6,0.65 -1.45,0 -2,-0.55 -0.6,-0.6 -0.55,-2.2 l 0.15,-1.2 q -0.6,0.6 -0.5,1.95 m 8.25,-5.1 q 0.9,0.6 2.2,0 l 1.6,-0.65 q 0.6,-0.25 0.95,-0.7 0.5,-0.7 0.25,-1.7 -0.15,-0.6 -0.6,-0.95 -0.5,-0.45 -1.05,-0.45 l -0.9,0.4 -1.55,0.85 q -1.2,0.65 -1.5,1.35 l -0.05,1.05 0.65,0.8 M -6.25,10.8 -6.1,10.2 -6.05,9.25 -6.25,8.3 Q -6.4,7.8 -6.9,7.55 -7.2,7.3 -7.55,7.25 q 0.25,1.45 -0.65,3.3 -1.9,3.65 -4.95,3.9 l -2.6,-0.35 q -2.75,-0.75 -3.4,-2.3 l -0.05,-0.15 -0.05,0.05 q -0.25,0.7 0.05,1.85 l 0.65,1.8 q 0.75,1.15 2.3,1.35 l 2.6,0.1 1.55,-0.05 1.25,-0.5 1.15,-0.75 1.4,-0.8 q 0.55,-0.4 1.6,-2.2 l 0.35,-0.95 0.1,-0.75"
         fill="#000000"
         fill-rule="evenodd"
         stroke="none"
         id="path1" />
      <path
         d="m -10.45,-24.9 -0.6,0.7 q -0.4,0.3 -0.9,0.3 -1.4,0.15 -2.05,-0.65 l -0.45,-1.3 1.25,0.25 q 0.75,-0.05 1.25,-0.5 0.6,0.45 1.05,0.55 l 0.85,-0.05 -0.4,0.7 m 9.8,15.85 -1.4,-0.15 q -0.05,-1.2 -0.4,-2.75 l -0.5,-3 -0.45,-2.1 2.4,-0.4 10.45,-1.25 7,-0.25 -4.35,2.3 -1.1,0.55 -0.65,0.5 -0.7,-0.15 -5.1,1 q -1.65,0.3 -2.3,1.1 -0.85,0.95 -0.2,2.15 l 0.35,0.55 0.05,0.35 0.05,0.6 0.05,0.2 0.15,1.2 0.05,0.6 Q 1.2,-8.8 -0.65,-9.05 m -13.75,-11.3 q -0.2,-0.85 0.25,-1.55 l 1.2,-1.15 q 1,-0.65 2,-0.5 1.25,0.2 1.5,1.25 0.15,0.45 -0.05,1.15 h -0.1 l -3.1,0.65 q -0.9,0.2 -1.55,0.6 l -0.15,-0.45 M 1.75,-1.7 Q 2.7,0.2 3.2,2.4 1.55,2.7 -2,4.1 L -3.55,4.5 Q -4.15,4.4 -5.05,3.65 -6.7,2.45 -8.6,1.75 l -3,-0.8 -2.8,-0.5 5.65,-2.95 q 2.4,-1.05 3.85,-1.25 1.15,-0.2 3.45,0 l 2.1,0.6 1.1,1.45 m 15.45,-14.75 1.05,-0.45 4.95,-2.5 q 3,-1.6 4.95,-2.3 L 29.8,-22 q 1.1,0.15 1.2,0.95 l 0.05,0.45 h -0.9 l -4.25,1.25 -4.8,1.95 -1.4,0.85 -0.9,0.3 -3.9,1.15 -0.4,0.2 2.7,-1.55 M 9.7,-2.5 7.3,-2.35 v -0.4 L 7.2,-4 7.1,-4.35 6.95,-5.55 6.7,-7.7 l -0.25,-2.8 0.2,-0.05 0.45,-0.15 1.45,-0.1 0.15,0.3 0.35,0.6 q 0.5,0.65 1.3,1.05 0.85,0.4 1.75,0.55 h 0.45 l 2.4,-0.4 q 1.15,-0.45 2.5,-1.3 0.35,4.3 0.95,6.85 L 9.7,-2.5 m 23.45,-19.55 q -0.3,-1.05 0,-2.1 l 0.8,-0.75 q 3.7,-2.7 8.15,-3.6 l 0.3,-0.05 0.1,0.1 -1.75,0.95 q -1.6,1.6 -1.7,3.8 -0.1,1.2 0.2,2.2 l -1.15,0.2 -0.35,-0.1 -0.05,-0.45 -0.05,-0.85 q -0.15,-0.75 -0.95,-1 -0.8,-0.25 -1.3,0.35 -0.3,0.35 -0.3,0.95 v 0.75 l -1,0.05 -0.7,0.2 -0.25,-0.65 M -6.4,19.9 -5.95,18.55 -4.7,14.85 -4.35,12.3 -4,9.15 Q -3.15,9 -2.05,8.45 0.7,7.25 3.55,6.4 L 3.25,9.6 2.9,9.65 1.4,9.8 q -0.9,0.2 -1.35,0.6 -0.65,0.75 -0.15,1.4 0.35,0.5 1.6,0.5 l 1.15,-0.05 -0.7,1.9 v 0.15 l -1.7,0.3 -1.3,0.55 q -0.6,0.25 -0.8,0.75 l 0.05,0.75 0.6,0.6 1.25,0.3 -1.6,1.25 -2.6,0.95 -0.2,-0.45 q -0.9,0.8 -2.05,0.6 M 22.45,1.5 25.05,1.05 q 0.3,1.9 0.2,3.8 -0.5,-1 -1.6,-1 l -0.7,0.1 Q 22.1,4.25 21.9,5.05 21.8,5.45 21.85,5.8 H 20.7 L 20.45,5.2 Q 20,4.15 18.75,4.05 L 18.6,4.15 Q 17.95,4.2 17.5,4.65 17,5.15 16.9,5.75 V 5.8 L 13.95,6 13.5,5.05 Q 12.7,4.1 11.6,4.35 l -1.1,0.7 q -0.45,0.6 -0.45,1.25 l 0.1,0.45 -1.6,0.4 Q 8.65,4.95 8.35,2.8 l 8.4,-0.85 5.7,-0.45 m 5.4,18.45 -2.75,2.35 q -1.3,-0.5 -3.5,-0.6 4,-3.2 6.15,-8 1.35,-3.1 1.75,-6.3 l 0.95,-0.05 2.4,0.15 0.55,0.05 -0.75,3.65 -0.85,0.05 -0.9,0.25 q -0.55,0.2 -0.6,0.7 0,0.45 0.5,0.85 l 0.8,0.6 0.15,0.1 -1.45,3 -0.5,-0.15 -1.25,0.1 -1.1,0.85 q -0.45,0.8 0.1,1.55 l 0.65,0.5 -0.35,0.35 M 33.4,3.7 33.45,3.95 32.5,3.7 29.6,3.35 29.2,0.85 Q 28.8,-1.3 27.9,-2.3 h 0.8 L 30.25,-2 Q 33,-1 33.4,3.7 m -10.25,-7.25 -1.2,0.1 0.05,-0.25 -0.2,-2.85 -0.3,-2.2 v -1.75 l -0.2,-1.6 v -0.05 l 0.55,-0.25 0.15,0.7 0.7,3.8 0.7,3.55 0.05,0.2 -0.3,0.6 m -29.4,14.35 -0.1,0.75 -0.35,0.95 q -1.05,1.8 -1.6,2.2 l -1.4,0.8 -1.15,0.75 -1.25,0.5 -1.55,0.05 -2.6,-0.1 q -1.55,-0.2 -2.3,-1.35 l -0.65,-1.8 q -0.3,-1.15 -0.05,-1.85 l 0.05,-0.05 0.05,0.15 q 0.65,1.55 3.4,2.3 l 2.6,0.35 q 3.05,-0.25 4.95,-3.9 0.9,-1.85 0.65,-3.3 0.35,0.05 0.65,0.3 0.5,0.25 0.65,0.75 l 0.2,0.95 -0.05,0.95 -0.15,0.6 m -19.85,4.6 -0.65,-0.8 0.05,-1.05 q 0.3,-0.7 1.5,-1.35 l 1.55,-0.85 0.9,-0.4 q 0.55,0 1.05,0.45 0.45,0.35 0.6,0.95 0.25,1 -0.25,1.7 -0.35,0.45 -0.95,0.7 l -1.6,0.65 q -1.3,0.6 -2.2,0 m -8.25,5.1 q -0.1,-1.35 0.5,-1.95 l -0.15,1.2 q -0.05,1.6 0.55,2.2 0.55,0.55 2,0.55 2.5,0.1 3.6,-0.65 0.65,-0.4 1.25,-1.35 0.5,-0.75 0.55,-1.35 0,-0.8 -0.45,-1.45 h 0.05 l 0.75,0.2 q 0.7,0.55 0.7,1.5 -0.05,0.75 -0.45,1.65 -1.45,2.9 -3.85,3.4 -1.75,0.35 -3.25,-0.65 -1,-0.65 -1.5,-1.65 l -0.3,-1.65"
         fill="#ffffff"
         fill-rule="evenodd"
         stroke="none"
         id="path2" />
    </g>
    <g
       id="sprite1"
       transform="translate(17.4,15.85)">
      <use
         ffdec:characterId="31"
         height="57.200001"
         transform="matrix(0.5366,0,0,0.5366,-16.6582,-14.546)"
         width="70.75"
         xlink:href="#sprite2"
         id="use2" />
    </g>
    <g
       id="sprite2"
       transform="translate(-8.65,-10.35)">
      <use
         ffdec:characterId="30"
         height="57.200001"
         transform="translate(8.65,10.35)"
         width="70.75"
         xlink:href="#shape1"
         id="use3" />
    </g>
    <g
       id="shape1"
       transform="translate(-8.65,-10.35)">
      <path
         d="m 14.8,41.7 q 0.65,-1.75 2.65,-2.5 1.8,-0.8 3.7,-0.25 1.15,0.45 2.25,1.2 l 0.9,0.4 q 1.65,0.9 2.85,2.5 L 37.8,30.1 q 2.35,-2.8 3.75,-3.95 1.5,-1.15 4.25,-2.4 18.2,-8.85 27.65,-12.6 2.15,-0.8 3.25,-0.8 h 0.8 l 1.9,2.4 -0.2,0.8 q -0.2,1.1 -1.55,3 -5.85,8.25 -18.85,23.8 -1.85,2.35 -3.35,3.5 -1.4,1.15 -4.75,2.75 l -15.15,7.15 q 1.2,1.6 1.75,3.4 l 0.2,1 0.55,2.5 q 0.1,1.95 -1.1,3.55 -1.2,1.65 -3.05,1.9 l -1.3,0.05 q -1.65,0.2 -3.45,-0.65 -1.85,-0.9 -3,-2.6 L 25,60.95 23.8,62.1 q -2.6,2.85 -4.3,3.95 -2.85,1.8 -5.5,1.45 l -1.65,-0.5 -1.2,-0.7 -0.2,-0.2 q -1,-0.85 -1.6,-1.9 L 9.25,64 9.15,63.8 8.75,62.4 q -0.2,-0.8 -0.05,-1.7 0.25,-2.65 2.7,-5.05 1.5,-1.3 4.9,-3.15 L 17.7,51.55 16.05,50 q -1.35,-1.5 -1.8,-3.6 -0.4,-1.85 0.25,-3.45 l 0.3,-1.25"
         fill="#000000"
         fill-opacity="0.372549"
         fill-rule="evenodd"
         stroke="none"
         id="path3" />
    </g>
  </defs>
</svg>
