<?xml version="1.0" encoding="UTF-8" standalone="no"?>
<svg
   ffdec:objectType="frame"
   height="57.302166"
   width="60.382954"
   version="1.1"
   id="svg5"
   sodipodi:docname="ITEM Brick Hat.svg"
   xmlns:inkscape="http://www.inkscape.org/namespaces/inkscape"
   xmlns:sodipodi="http://sodipodi.sourceforge.net/DTD/sodipodi-0.dtd"
   xmlns:xlink="http://www.w3.org/1999/xlink"
   xmlns="http://www.w3.org/2000/svg"
   xmlns:svg="http://www.w3.org/2000/svg"
   xmlns:ffdec="https://www.free-decompiler.com/flash">
  <sodipodi:namedview
     id="namedview5"
     pagecolor="#ffffff"
     bordercolor="#000000"
     borderopacity="0.25"
     inkscape:showpageshadow="2"
     inkscape:pageopacity="0.0"
     inkscape:pagecheckerboard="0"
     inkscape:deskcolor="#d1d1d1"
     fit-margin-top="5"
     fit-margin-left="5"
     fit-margin-right="5"
     fit-margin-bottom="5" />
  <g
     transform="translate(31.9625,27.637879)"
     id="g1">
    <use
       ffdec:characterId="17"
       height="119.15"
       id="rarity"
       transform="translate(-58.5,-60.65)"
       width="119.15"
       xlink:href="#sprite0" />
    <use
       ffdec:characterId="1246"
       height="57.299999"
       transform="translate(-31.95,-27.65)"
       width="60.349998"
       xlink:href="#shape0"
       id="use1" />
  </g>
  <defs
     id="defs5">
    <g
       id="shape0"
       transform="translate(30.65,25.75)">
      <path
         d="m 21.8,-15.6 6,10.75 q 1.75,3.2 1.9,4.95 0.15,1.7 -0.8,4.6 L 26,12.65 q -1.6,4.65 -1.6,8.15 l -0.05,2 q -0.15,1.1 -0.75,1.7 -0.75,0.8 -2.85,1 L 9.8,26.5 Q 3.45,27.15 -1.05,28.2 L -7.7,30 q -4,1.15 -6.65,1.45 -2.6,0.4 -3.75,-0.6 l -1.05,-1.35 -0.65,-1.6 q -0.6,-1.55 -1.85,-3.75 l -2.1,-3.6 -2.1,-5 q -1.3,-3.15 -2.4,-4.9 l -1.3,-2 -1,-2.15 q -0.3,-1.4 0.2,-4.2 1.85,-9.95 2.95,-19.35 l 0.55,-2.7 q 0.45,-1.45 1.4,-2.2 1.05,-0.8 3.15,-1 l 5.05,-0.15 h 5.05 l 4.6,-0.4 4.5,0.15 3,0.8 q 1.75,0.5 2.95,0.45 1.25,-0.1 3.3,-0.95 l 3.3,-1.1 1.95,-0.15 1.8,-0.45 0.95,-0.55 1,-0.4 q 1.4,-0.25 2.4,1.15 l 1.1,2.55 q 0.75,2.15 3.15,6.4 m -4.35,18.85 0.1,-0.2 1.1,-0.5 L 19.6,2.1 20.95,1.85 22.7,1.2 Q 23.6,0.75 24.15,0.6 L 24.1,0.4 23,-2.35 13.2,-20.25 q -2,0 -5.3,1.55 -3.55,1.7 -5.3,1.85 l -4.05,-0.4 -4.1,-0.7 -2.5,0.1 -2.5,0.35 -8.55,0.25 h -0.95 -0.3 l 0.95,2.65 0.75,2.05 0.4,0.75 q 0.1,0.5 -0.2,0.75 l -0.25,0.1 q -0.35,0 -0.8,-0.4 -1.3,-1.1 -2.1,-2.85 l -0.2,-0.45 q -1,8.3 -2.65,17.4 l -0.1,2 0.5,1.35 8.85,17.75 1.2,1.4 1.6,0.05 h 0.05 l 4.4,-1.2 0.2,-0.05 Q -2.1,22.55 3.7,21.55 L 18.9,20.1 Q 19.15,14.5 22.35,6.55 L 23.1,4.65 23.4,3.95 22.95,4 h -0.5 l -0.4,0.15 -1.6,0.25 -1.6,0.05 -0.7,0.1 Q 17.6,4.55 17.4,4 17.2,3.65 17.45,3.25 m -32.7,-9.15 q 0.55,-0.3 1.25,0.4 l 1.05,1.5 1.05,1.45 1.9,1.45 0.85,0.9 0.6,0.6 2.45,2.1 1.7,1.5 1,-0.1 3.1,-0.45 3.1,-0.15 1.9,0.35 1.8,-0.1 1.75,-0.25 1.9,-0.05 1.95,0.1 h 0.8 l 0.5,0.35 0.05,0.15 Q 13.6,4.5 12.85,4.7 L 11.7,4.75 9,5.2 4.45,5.9 1.8,6.15 0.45,6.5 -1.85,7 -3.65,7.3 -3.7,7.35 -4.05,8.1 -4.25,8.6 q -2.05,4.65 -2.6,7.1 l -0.3,1 -0.4,0.8 -0.95,1.55 q -0.85,0.85 -1.7,0.4 l -0.5,-0.5 -0.15,-0.45 -0.1,-2.3 0.6,-2.6 Q -9.9,11.15 -8.1,6.55 L -8.05,6.4 -8.95,4.75 Q -9.15,4.1 -9.45,3.8 l -0.95,-0.9 -1,-1.45 q -0.6,-1.1 -0.95,-1.5 l -0.75,-0.8 -0.6,-0.9 -1.45,-2.4 -0.6,-1.15 0.5,-0.6"
         fill="#000000"
         fill-rule="evenodd"
         stroke="none"
         id="path1" />
      <path
         d="m 4.95,-13.15 q -0.3,-0.5 -0.25,-1.1 0.1,-0.9 0.9,-1.4 0.85,-0.5 1.65,0 L 8,-14.9 q 0.3,0.45 0.2,1 -0.15,1.25 -1.35,1.5 -1.2,0.25 -1.9,-0.75 m 8.45,16.85 1,-0.1 2.55,-0.35 h 0.5 Q 17.2,3.65 17.4,4 q 0.2,0.55 0.75,0.55 l 0.7,-0.1 1.6,-0.05 1.6,-0.25 0.4,-0.15 h 0.5 l 0.45,-0.05 -0.3,0.7 -0.75,1.9 Q 19.15,14.5 18.9,20.1 L 3.7,21.55 q -5.8,1 -11.45,2.5 l -0.2,0.05 -4.4,1.2 h -0.05 l -0.05,-0.1 q -0.5,-1.2 0.55,-3.65 l 1.2,-2.6 0.5,0.5 q 0.85,0.45 1.7,-0.4 l 0.95,-1.55 0.4,-0.8 0.3,-1 q 0.55,-2.45 2.6,-7.1 L -4.05,8.1 -3.7,7.35 -3.65,7.3 -1.85,7 0.45,6.5 1.8,6.15 4.45,5.9 9,5.2 11.7,4.75 12.85,4.7 Q 13.6,4.5 13.45,3.85 L 13.4,3.7 m 2.4,-9.15 q 0.2,1.3 -0.65,2.2 -0.45,0.55 -1.6,1 Q 12.35,-1.8 11.8,-1.9 11,-2.05 10.1,-3.25 9.35,-4.2 9.25,-4.8 9.1,-6 10.8,-7.5 q 0.95,-0.85 1.6,-0.9 l 1.1,0.15 1.2,0.45 0.7,0.85 0.4,1.5 M -3.5,-2.7 q 0.55,-0.55 1.35,-0.75 l 1.5,0.15 1.2,0.9 Q 1,-1.75 1,-0.95 1.05,-0.2 0.6,0.5 l -1.15,1 Q -2.15,2.15 -3.4,1 -4.2,0.2 -4.2,-0.85 q 0,-1.05 0.7,-1.85 m 15.9,-0.9 0.55,-0.2 0.35,-0.05 0.3,-0.25 0.55,-0.85 -0.05,-0.8 Q 14,-6.4 13.55,-6.55 L 13,-6.7 12.65,-6.85 11.95,-6.5 11.2,-5.8 10.85,-5.4 Q 10.6,-4.75 11,-4.25 l 0.65,0.45 0.75,0.2 M 4.1,16.55 5.15,15.3 Q 5.45,14.45 5.2,13.65 5,12.85 4.25,12.35 3.5,11.9 2.65,11.95 1.8,12.05 1.15,12.65 0.5,13.25 0.4,14.05 0.3,14.7 0.6,15.4 l 0.85,1.05 2.65,0.1 M -13.35,-11.3 v -0.25 l 0.1,-0.15 0.3,-0.25 h 0.3 l 0.05,-0.05 0.5,0.2 0.2,0.55 q 0,0.35 -0.4,0.65 l -0.2,0.05 -0.6,-0.15 -0.2,-0.25 -0.05,-0.35 m -4.5,16.9 0.9,0.2 q 0.45,0.3 0.55,0.75 0.15,0.45 -0.1,0.95 L -17.2,8.1 -18.15,8.05 -18.8,7.4 q -0.2,-0.45 0,-0.95 l 0.55,-0.7 0.4,-0.15"
         fill="#644848"
         fill-rule="evenodd"
         stroke="none"
         id="path2" />
      <path
         d="m 4.95,-13.15 q 0.7,1 1.9,0.75 1.2,-0.25 1.35,-1.5 0.1,-0.55 -0.2,-1 l -0.75,-0.75 q -0.8,-0.5 -1.65,0 -0.8,0.5 -0.9,1.4 -0.05,0.6 0.25,1.1 m -23.65,2.2 0.25,-0.1 q 0.3,-0.25 0.2,-0.75 l -0.4,-0.75 -0.75,-2.05 -0.95,-2.65 h 0.3 0.95 l 8.55,-0.25 2.5,-0.35 2.5,-0.1 4.1,0.7 4.05,0.4 q 1.75,-0.15 5.3,-1.85 3.3,-1.55 5.3,-1.55 l 9.8,17.9 1.1,2.75 0.05,0.2 Q 23.6,0.75 22.7,1.2 l -1.75,0.65 -1.35,0.25 -0.95,0.45 -1.1,0.5 -0.1,0.2 h -0.5 L 14.4,3.6 13.4,3.7 12.9,3.35 H 12.1 L 10.15,3.25 8.25,3.3 6.5,3.55 4.7,3.65 2.8,3.3 -0.3,3.45 -3.4,3.9 -4.4,4 -6.1,2.5 -8.55,0.4 -9.15,-0.2 -10,-1.1 -11.9,-2.55 -12.95,-4 -14,-5.5 q -0.7,-0.7 -1.25,-0.4 l -0.1,-0.1 -1.45,-1.8 -1.25,-2.2 -0.65,-0.95 M 12.4,-3.6 11.65,-3.8 11,-4.25 q -0.4,-0.5 -0.15,-1.15 l 0.35,-0.4 0.75,-0.7 0.7,-0.35 0.35,0.15 0.55,0.15 q 0.45,0.15 0.55,0.8 l 0.05,0.8 -0.55,0.85 -0.3,0.25 -0.35,0.05 -0.55,0.2 m -15.9,0.9 q -0.7,0.8 -0.7,1.85 0,1.05 0.8,1.85 1.25,1.15 2.85,0.5 L 0.6,0.5 Q 1.05,-0.2 1,-0.95 1,-1.75 0.55,-2.4 l -1.2,-0.9 -1.5,-0.15 q -0.8,0.2 -1.35,0.75 M 15.8,-5.45 15.4,-6.95 14.7,-7.8 13.5,-8.25 12.4,-8.4 q -0.65,0.05 -1.6,0.9 -1.7,1.5 -1.55,2.7 0.1,0.6 0.85,1.55 0.9,1.2 1.7,1.35 0.55,0.1 1.75,-0.35 1.15,-0.45 1.6,-1 0.85,-0.9 0.65,-2.2 M 4.1,16.55 1.45,16.45 0.6,15.4 q -0.3,-0.7 -0.2,-1.35 0.1,-0.8 0.75,-1.4 0.65,-0.6 1.5,-0.7 0.85,-0.05 1.6,0.4 0.75,0.5 0.95,1.3 0.25,0.8 -0.05,1.65 L 4.1,16.55 m -17.45,-27.85 0.05,0.35 0.2,0.25 0.6,0.15 0.2,-0.05 q 0.4,-0.3 0.4,-0.65 l -0.2,-0.55 -0.5,-0.2 -0.05,0.05 h -0.3 l -0.3,0.25 -0.1,0.15 v 0.25"
         fill="#a47d7d"
         fill-rule="evenodd"
         stroke="none"
         id="path3" />
      <path
         d="m -18.7,-10.95 0.65,0.95 1.25,2.2 1.45,1.8 0.1,0.1 -0.5,0.6 0.6,1.15 1.45,2.4 0.6,0.9 0.75,0.8 q 0.35,0.4 0.95,1.5 l 1,1.45 0.95,0.9 q 0.3,0.3 0.5,0.95 l 0.9,1.65 -0.05,0.15 q -1.8,4.6 -2.25,7.05 l -0.6,2.6 0.1,2.3 0.15,0.45 -1.2,2.6 q -1.05,2.45 -0.55,3.65 l 0.05,0.1 -1.6,-0.05 -1.2,-1.4 -8.85,-17.75 -0.5,-1.35 0.1,-2 q 1.65,-9.1 2.65,-17.4 l 0.2,0.45 q 0.8,1.75 2.1,2.85 0.45,0.4 0.8,0.4 m 0.85,16.55 -0.4,0.15 -0.55,0.7 q -0.2,0.5 0,0.95 l 0.65,0.65 0.95,0.05 0.7,-0.6 Q -16.25,7 -16.4,6.55 -16.5,6.1 -16.95,5.8 l -0.9,-0.2"
         fill="#8c6868"
         fill-rule="evenodd"
         stroke="none"
         id="path4" />
    </g>
    <g
       id="sprite1"
       transform="translate(17.4,15.85)">
      <use
         ffdec:characterId="31"
         height="57.200001"
         transform="matrix(0.5366,0,0,0.5366,-16.6582,-14.546)"
         width="70.75"
         xlink:href="#sprite2"
         id="use4" />
    </g>
    <g
       id="sprite2"
       transform="translate(-8.65,-10.35)">
      <use
         ffdec:characterId="30"
         height="57.200001"
         transform="translate(8.65,10.35)"
         width="70.75"
         xlink:href="#shape1"
         id="use5" />
    </g>
    <g
       id="shape1"
       transform="translate(-8.65,-10.35)">
      <path
         d="m 14.8,41.7 q 0.65,-1.75 2.65,-2.5 1.8,-0.8 3.7,-0.25 1.15,0.45 2.25,1.2 l 0.9,0.4 q 1.65,0.9 2.85,2.5 L 37.8,30.1 q 2.35,-2.8 3.75,-3.95 1.5,-1.15 4.25,-2.4 18.2,-8.85 27.65,-12.6 2.15,-0.8 3.25,-0.8 h 0.8 l 1.9,2.4 -0.2,0.8 q -0.2,1.1 -1.55,3 -5.85,8.25 -18.85,23.8 -1.85,2.35 -3.35,3.5 -1.4,1.15 -4.75,2.75 l -15.15,7.15 q 1.2,1.6 1.75,3.4 l 0.2,1 0.55,2.5 q 0.1,1.95 -1.1,3.55 -1.2,1.65 -3.05,1.9 l -1.3,0.05 q -1.65,0.2 -3.45,-0.65 -1.85,-0.9 -3,-2.6 L 25,60.95 23.8,62.1 q -2.6,2.85 -4.3,3.95 -2.85,1.8 -5.5,1.45 l -1.65,-0.5 -1.2,-0.7 -0.2,-0.2 q -1,-0.85 -1.6,-1.9 L 9.25,64 9.15,63.8 8.75,62.4 q -0.2,-0.8 -0.05,-1.7 0.25,-2.65 2.7,-5.05 1.5,-1.3 4.9,-3.15 L 17.7,51.55 16.05,50 q -1.35,-1.5 -1.8,-3.6 -0.4,-1.85 0.25,-3.45 l 0.3,-1.25"
         fill="#000000"
         fill-opacity="0.372549"
         fill-rule="evenodd"
         stroke="none"
         id="path5" />
    </g>
  </defs>
</svg>
