<?xml version="1.0" encoding="UTF-8" standalone="no"?>
<svg
   ffdec:objectType="frame"
   height="85.176193"
   width="85.522881"
   version="1.1"
   id="svg7"
   sodipodi:docname="ITEM Sabertooth Hat.svg"
   xmlns:inkscape="http://www.inkscape.org/namespaces/inkscape"
   xmlns:sodipodi="http://sodipodi.sourceforge.net/DTD/sodipodi-0.dtd"
   xmlns:xlink="http://www.w3.org/1999/xlink"
   xmlns="http://www.w3.org/2000/svg"
   xmlns:svg="http://www.w3.org/2000/svg"
   xmlns:ffdec="https://www.free-decompiler.com/flash">
  <sodipodi:namedview
     id="namedview7"
     pagecolor="#ffffff"
     bordercolor="#000000"
     borderopacity="0.25"
     inkscape:showpageshadow="2"
     inkscape:pageopacity="0.0"
     inkscape:pagecheckerboard="0"
     inkscape:deskcolor="#d1d1d1"
     fit-margin-top="5"
     fit-margin-left="5"
     fit-margin-right="5"
     fit-margin-bottom="5" />
  <g
     transform="translate(43.45,38.52619)"
     id="g1">
    <use
       ffdec:characterId="17"
       height="119.15"
       id="rarity"
       transform="translate(-58.5,-60.65)"
       width="119.15"
       xlink:href="#sprite0" />
    <use
       ffdec:characterId="1238"
       height="85.199997"
       transform="translate(-43.5,-38.55)"
       width="85.550003"
       xlink:href="#shape0"
       id="use1" />
  </g>
  <defs
     id="defs7">
    <g
       id="shape0"
       transform="translate(42.2,36.65)">
      <path
         d="m 39.15,-18 q 0.35,-5.65 -0.4,-10.45 l -1.55,3.6 -3,6.25 q 2.45,3.75 4.15,7.85 0.6,-4.05 0.8,-7.25 M 0,-32.1 l 9.5,-0.65 7.2,1.5 q 5.3,1.5 8.2,3.1 l 0.7,-0.35 q 6.1,-2.45 11.25,-6.75 2.05,-1.7 3.3,-1.3 1.3,0.4 1.85,2.95 l 0.8,4.05 q 1.3,8.1 -0.35,17.85 -0.75,4.4 -2.1,7.05 l 0.4,1.85 q 0.8,3.95 0.5,6.6 -0.4,3.7 -2.55,6.05 -1.1,1.25 -2.9,2.2 1.5,10.45 -1.45,22.4 l -1.55,4.9 -2.25,4.35 -1.3,2.35 q -1.05,1.3 -2.3,1.1 Q 25.9,47 25.2,45.9 24.85,45.35 24.45,43.8 L 23.4,39.5 q -1.25,-5.35 -2,-12.05 -0.5,-4.6 -0.95,-12.25 v -0.85 l -0.65,-0.2 -0.55,2.1 q -1.9,5.45 -7.45,9.1 -4.15,2.75 -11.05,4.5 -5.3,1.4 -11.4,2.05 l -1.2,0.05 -4.25,13.85 q -0.6,1.8 -1.35,2.35 l -1.6,0.4 -1.6,-0.65 q -1.05,-0.75 -2.05,-2.7 -3.15,-6.25 -4,-13.6 l -0.25,0.05 -2.35,-0.2 q -5.4,-1.2 -9.05,-5.75 -3.4,-4.3 -3.8,-10 L -42,11.4 q 0.55,-4.8 2.3,-9.15 1.05,-3.55 2.9,-7.05 -2.55,-2.25 -3.65,-6.1 -0.95,-2.95 -1.2,-7.25 -0.35,-6.6 0.65,-13.6 0.2,-1.75 1,-2.4 1.1,-0.9 3.8,0.05 3.8,1.45 7.7,2.4 4.5,1.1 6.25,1.9 1.35,0.65 4.25,2.8 l 1.5,1.3 q 8,-4.7 16.5,-6.4 m 31.05,9.4 1.35,1.7 2.55,-7.2 q -3.35,2.1 -5.9,3.3 l 2,2.2 m -13.15,-2.2 -4.55,-1.25 -4.85,-0.95 -7.7,0.6 -2.3,0.55 q -7.7,1.95 -14.75,6.4 -7.85,4.9 -13.85,12.2 l -3.45,4.85 q -1.3,2.4 -3.15,7.45 -0.85,3.6 -0.95,7.3 v 1.15 q 0,2.55 0.45,4.35 0.6,2.35 2.1,4.3 l 1.2,1.3 q 2.45,2.45 5.65,3.15 l 1.25,0.3 q -0.15,-5.5 1.05,-11.1 l 0.15,-0.6 q -1.25,-0.6 -2.1,-1.3 l -2.55,0.15 q -0.6,0.3 -0.85,0.55 l -0.5,0.7 -0.55,0.8 -0.45,0.9 -0.15,0.7 -0.15,0.6 -0.8,0.5 h -0.3 l -0.55,-0.3 -0.45,-1 q -0.3,-1.85 0.05,-3.6 l 0.45,-1.2 q 0.55,-1.3 2.3,-2.5 L -30.95,9.3 -29.1,9 q 1.8,-0.05 3.45,0.8 0.95,0.45 1.4,1.05 l 4.45,1.2 6.55,0.85 5.15,0.15 q 2.45,-0.25 6.55,-1.7 l 9.4,-3.7 0.35,-0.5 1,-1.2 0.8,-1.3 Q 10.3,3.85 10.2,2.15 10,-0.9 9.5,-2.75 v -0.1 l -0.25,-1 q -0.1,-0.65 0.3,-1.1 0.3,-0.35 0.8,-0.35 l 0.95,0.25 q 0.65,0.45 1.1,1.5 l 0.65,1.6 0.85,3 q 0.6,3.05 0.05,5 l 1.6,0.4 1.05,0.25 1.3,0.75 Q 21.25,9.5 25.35,9.5 29.45,9.45 32.8,7.4 35.05,6 35.6,4.3 35.95,3.25 35.8,1.55 l -0.05,-0.6 q -1.45,-11.05 -8.7,-19.7 l -0.25,-0.3 q -1.9,-2.2 -3.6,-3.4 -1.95,-1.35 -5.3,-2.45 M 29,-10.6 q -0.05,0.5 -0.5,1.1 l -0.95,1.35 -0.55,0.75 1,1.05 0.85,0.85 1.65,2.6 0.5,0.9 q 0.3,0.7 -0.2,1.35 -0.45,0.55 -1.3,0.55 -0.75,-0.1 -1.8,-1.25 L 24.85,-3.9 24.1,-2.95 q -0.65,0.65 -1.25,0.7 -1.2,0.15 -1.7,-0.95 -0.55,-0.95 0.1,-1.95 l 0.95,-1.2 -1.1,-1 -0.8,-0.9 q -0.4,-0.7 -0.25,-1.5 0.15,-0.85 0.75,-1.35 0.6,-0.5 1.45,-0.5 0.8,-0.05 1.4,0.45 l 1.1,1.2 0.5,-0.6 1,-1.1 q 0.6,-0.6 1.35,-0.55 0.65,0 1.05,0.5 0.45,0.5 0.35,1.1 m -2.25,25.65 -2.45,0.05 0.25,2.3 0.1,-0.05 1.75,-0.05 1.8,0.2 1.45,-0.25 2.05,-0.65 -0.25,-2.8 -4.7,1.25 m 0,16.8 q 0.7,4.4 1.45,6.45 3.6,-9.35 3.55,-19.1 l -1,0.35 -1.6,0.35 -0.85,0.1 -3,0.35 -0.3,0.05 1.75,11.45 M 14.4,11.8 12.75,10.7 q -1.15,0.85 -3.5,1.95 -5,2.3 -10.65,4.1 l -5.7,1.3 -2.15,0.15 -0.05,0.6 -0.7,5 -0.8,4.8 4.4,-1.25 5.85,-1.4 L 3,24.8 Q 7.9,23 10.65,20.9 14.5,18 15.55,14.1 l 0.4,-1.5 -1.55,-0.8 m -44.45,-39.25 -2.3,-0.6 -2.05,-0.55 2.45,2.35 4.05,4.15 q 1.2,1.45 2.1,3.2 l 1.8,-1.55 4,-3 q -1.15,-0.95 -2.7,-1.7 -2.15,-1.05 -5.1,-1.8 l -2.25,-0.5 m -2.7,16.2 q 1.85,-2.55 4.05,-4.85 l -0.35,-0.75 q -0.4,-1.05 -1.15,-2.1 l -4.7,-5.55 -0.1,-0.1 -2,-2.5 q -0.35,4.05 -0.15,8.25 0.35,6.65 2.9,9.75 l 1.5,-2.15 m 21.5,5.8 q 0.8,1 0.3,2.2 -0.5,1.2 -1.75,1.45 -1.2,0.25 -2.2,-0.65 l -0.75,-0.75 -0.5,-0.35 -2.6,4.05 -0.95,1.2 q -0.6,0.6 -1.35,0.55 -1.05,-0.1 -1.25,-1.15 l 0.15,-1.25 0.8,-2.65 1.35,-3.15 -2.2,-1.6 -0.9,-1.05 q -0.3,-0.75 0.45,-1.5 0.55,-0.5 1.5,-0.5 l 1.6,0.45 1.45,0.8 0.2,-0.35 2,-2.85 q 0.9,-0.9 1.7,-1.1 1.4,-0.3 2.3,0.85 0.9,1.1 0.3,2.4 l -1.05,1.45 -1.15,1.65 1.85,1.2 0.7,0.65 m -2.9,23.85 0.05,-0.5 q -4.45,-0.45 -7.9,-1.4 l -0.45,3.85 0.15,-0.05 1.85,-0.25 1.8,-0.35 2.3,-0.3 0.15,-0.1 1.15,-0.2 0.9,-0.4 v -0.3 m -5.25,22.1 1.7,-5.45 1.85,-5.45 q 0.95,-3.45 1.45,-8.05 l -0.55,0.7 -1.4,1.35 q -2.25,2.55 -4.9,4.35 l -1.05,0.6 q 0.6,6.05 2.9,11.95 M -22.55,23 v 2.6 l 0.25,-0.25 1.85,-1.75 1.1,-1.05 -3.2,0.45"
         fill="#000000"
         fill-rule="evenodd"
         stroke="none"
         id="path1" />
      <path
         d="m 39.15,-18 q -0.2,3.2 -0.8,7.25 -1.7,-4.1 -4.15,-7.85 l 3,-6.25 1.55,-3.6 q 0.75,4.8 0.4,10.45 m -76.8,30.25 q 0.95,-2.1 2.75,-3.65 2.45,-2.05 5.9,-2.75 3.25,-0.6 6.65,0.05 l 4.95,1.4 5,0.9 q 1.95,0.05 6.25,-1 Q -0.4,5.75 2.65,4.35 5.95,2.75 7.1,0.7 l 1.2,-2.4 q 0.55,-0.85 1.2,-1.15 v 0.1 q 0.5,1.85 0.7,4.9 0.1,1.7 -0.2,2.5 l -0.8,1.3 -1,1.2 -0.35,0.5 -9.4,3.7 q -4.1,1.45 -6.55,1.7 l -5.15,-0.15 -6.55,-0.85 -4.45,-1.2 Q -24.7,10.25 -25.65,9.8 -27.3,8.95 -29.1,9 l -1.85,0.3 -1.45,0.8 q -1.75,1.2 -2.3,2.5 l -0.45,1.2 q -0.35,1.75 -0.05,3.6 l 0.45,1 0.55,0.3 h 0.3 l 0.8,-0.5 0.15,-0.6 0.15,-0.7 0.45,-0.9 0.55,-0.8 0.5,-0.7 q 0.25,-0.25 0.85,-0.55 l 2.55,-0.15 q 0.85,0.7 2.1,1.3 l -0.15,0.6 q -1.2,5.6 -1.05,11.1 l -1.25,-0.3 q -3.2,-0.7 -5.65,-3.15 l -1.2,-1.3 q -1.5,-1.95 -2.1,-4.3 -0.45,-1.8 -0.45,-4.35 v -1.15 m 50.7,-14.2 0.55,0.6 0.95,1.7 q 1.5,2.5 4.75,3.35 l 5.95,0.55 3.7,-0.3 Q 30.85,3.65 32.7,2.7 34,2 34.4,1.85 l 1.4,-0.3 Q 35.95,3.25 35.6,4.3 35.05,6 32.8,7.4 29.45,9.45 25.35,9.5 21.25,9.5 17.9,7.45 L 16.6,6.7 15.55,6.45 13.95,6.05 Q 14.5,4.1 13.9,1.05 l -0.85,-3 m 1.35,13.75 1.55,0.8 -0.4,1.5 Q 14.5,18 10.65,20.9 7.9,23 3,24.8 l -3.55,1.15 -5.85,1.4 -4.4,1.25 0.8,-4.8 0.7,-5 0.05,-0.6 2.15,-0.15 5.7,-1.3 q 5.65,-1.8 10.65,-4.1 2.35,-1.1 3.5,-1.95 l 1.65,1.1 m -49.4,-36.4 0.1,0.1 4.7,5.55 q 0.75,1.05 1.15,2.1 l 0.35,0.75 q -2.2,2.3 -4.05,4.85 l -0.75,-0.6 -0.45,-0.7 -0.25,-1 -0.55,-2.25 -0.4,-1.15 -0.75,-3.2 q -0.45,-1.8 -0.25,-2.8 0.15,-0.75 0.65,-1.3 l 0.5,-0.35"
         fill="#61584f"
         fill-rule="evenodd"
         stroke="none"
         id="path2" />
      <path
         d="m -1.5,-25.95 q 0.6,1.05 0.4,2.4 -0.2,1.65 -1.5,3.1 -1.05,1.2 -2.75,2.2 -2,1.2 -3.5,1.6 l -3.1,0.4 q -2.5,0 -3.65,-1.4 -0.55,-0.65 -0.65,-1.7 v -0.2 Q -9.2,-24 -1.5,-25.95 m 28.3,6.9 -0.25,0.2 -1,0.9 -1.05,0.4 -1.05,0.3 q -1.5,0.2 -3.1,-0.85 -1,-0.7 -2.25,-2.45 l -0.5,-0.9 q -0.55,-1.1 -0.25,-2.3 0.15,-0.65 0.55,-1.15 3.35,1.1 5.3,2.45 1.7,1.2 3.6,3.4 M 5.6,-22.4 q -0.05,0.95 -0.85,1.7 -0.8,0.7 -1.75,0.65 -0.95,-0.05 -1.7,-0.8 -0.75,-0.7 -0.8,-1.7 0,-1.1 0.8,-1.8 1.05,-1.05 2.5,-0.6 l 0.95,0.5 q 0.95,0.8 0.85,2.05 m -7.55,12.7 0.3,-1.35 q 0.65,-1.35 2.3,-1.45 0.8,0 1.5,0.5 l 1,1.25 q 0.25,0.75 0,1.6 -0.25,0.8 -0.9,1.3 -0.65,0.5 -1.5,0.55 -0.8,0.05 -1.5,-0.4 -1.1,-0.7 -1.2,-2 m -20.75,-15.45 -1.4,1.35 q -0.9,0.65 -1.85,0.8 -1.4,0.2 -2.7,-0.85 -1.8,-1.55 -1.45,-3.35 l 0.05,-0.25 2.25,0.5 q 2.95,0.75 5.1,1.8 m -8.1,20.55 1.45,-0.1 q 0.8,0.2 1.25,0.75 0.5,0.55 0.55,1.35 0.05,0.8 -0.35,1.45 -0.4,0.6 -1.15,0.9 l -1.5,0.05 -1.2,-0.85 q -0.45,-0.65 -0.45,-1.4 0,-0.8 0.45,-1.4 l 0.95,-0.75"
         fill="#303030"
         fill-rule="evenodd"
         stroke="none"
         id="path3" />
      <path
         d="m -1.5,-25.95 2.3,-0.55 7.7,-0.6 4.85,0.95 4.55,1.25 q -0.4,0.5 -0.55,1.15 -0.3,1.2 0.25,2.3 l 0.5,0.9 q 1.25,1.75 2.25,2.45 1.6,1.05 3.1,0.85 l 1.05,-0.3 1.05,-0.4 1,-0.9 0.25,-0.2 0.25,0.3 q 7.25,8.65 8.7,19.7 l 0.05,0.6 -1.4,0.3 Q 34,2 32.7,2.7 30.85,3.65 28.95,3.95 L 25.25,4.25 19.3,3.7 Q 16.05,2.85 14.55,0.35 l -0.95,-1.7 -0.55,-0.6 -0.65,-1.6 Q 11.95,-4.6 11.3,-5.05 L 10.35,-5.3 q -0.5,0 -0.8,0.35 -0.4,0.45 -0.3,1.1 l 0.25,1 Q 8.85,-2.55 8.3,-1.7 L 7.1,0.7 q -1.15,2.05 -4.45,3.65 -3.05,1.4 -8.8,2.85 -4.3,1.05 -6.25,1 l -5,-0.9 -4.95,-1.4 q -3.4,-0.65 -6.65,-0.05 -3.45,0.7 -5.9,2.75 -1.8,1.55 -2.75,3.65 0.1,-3.7 0.95,-7.3 1.85,-5.05 3.15,-7.45 l 3.45,-4.85 q 6,-7.3 13.85,-12.2 v 0.2 q 0.1,1.05 0.65,1.7 1.15,1.4 3.65,1.4 l 3.1,-0.4 q 1.5,-0.4 3.5,-1.6 1.7,-1 2.75,-2.2 1.3,-1.45 1.5,-3.1 0.2,-1.35 -0.4,-2.4 m 32.55,3.25 -2,-2.2 q 2.55,-1.2 5.9,-3.3 l -2.55,7.2 -1.35,-1.7 m -33,13 q 0.1,1.3 1.2,2 0.7,0.45 1.5,0.4 0.85,-0.05 1.5,-0.55 0.65,-0.5 0.9,-1.3 0.25,-0.85 0,-1.6 l -1,-1.25 q -0.7,-0.5 -1.5,-0.5 -1.65,0.1 -2.3,1.45 l -0.3,1.35 M 5.6,-22.4 q 0.1,-1.25 -0.85,-2.05 l -0.95,-0.5 q -1.45,-0.45 -2.5,0.6 -0.8,0.7 -0.8,1.8 0.05,1 0.8,1.7 0.75,0.75 1.7,0.8 0.95,0.05 1.75,-0.65 0.8,-0.75 0.85,-1.7 M 29,-10.6 q 0.1,-0.6 -0.35,-1.1 -0.4,-0.5 -1.05,-0.5 -0.75,-0.05 -1.35,0.55 l -1,1.1 -0.5,0.6 -1.1,-1.2 q -0.6,-0.5 -1.4,-0.45 -0.85,0 -1.45,0.5 -0.6,0.5 -0.75,1.35 -0.15,0.8 0.25,1.5 l 0.8,0.9 1.1,1 -0.95,1.2 q -0.65,1 -0.1,1.95 0.5,1.1 1.7,0.95 0.6,-0.05 1.25,-0.7 l 0.75,-0.95 2.85,2.55 q 1.05,1.15 1.8,1.25 0.85,0 1.3,-0.55 Q 31.3,-1.3 31,-2 L 30.5,-2.9 28.85,-5.5 28,-6.35 27,-7.4 27.55,-8.15 28.5,-9.5 q 0.45,-0.6 0.5,-1.1 m -51.7,-14.55 q 1.55,0.75 2.7,1.7 l -4,3 -1.8,1.55 q -0.9,-1.75 -2.1,-3.2 l -4.05,-4.15 -2.45,-2.35 2.05,0.55 2.3,0.6 -0.05,0.25 q -0.35,1.8 1.45,3.35 1.3,1.05 2.7,0.85 0.95,-0.15 1.85,-0.8 l 1.4,-1.35 m -12.3,0.55 -0.5,0.35 q -0.5,0.55 -0.65,1.3 -0.2,1 0.25,2.8 l 0.75,3.2 0.4,1.15 0.55,2.25 0.25,1 0.45,0.7 0.75,0.6 -1.5,2.15 q -2.55,-3.1 -2.9,-9.75 -0.2,-4.2 0.15,-8.25 l 2,2.5 m 4.2,20 -0.95,0.75 q -0.45,0.6 -0.45,1.4 0,0.75 0.45,1.4 l 1.2,0.85 1.5,-0.05 q 0.75,-0.3 1.15,-0.9 0.4,-0.65 0.35,-1.45 -0.05,-0.8 -0.55,-1.35 -0.45,-0.55 -1.25,-0.75 l -1.45,0.1 m 19.55,-0.85 -0.7,-0.65 -1.85,-1.2 1.15,-1.65 1.05,-1.45 q 0.6,-1.3 -0.3,-2.4 -0.9,-1.15 -2.3,-0.85 -0.8,0.2 -1.7,1.1 l -2,2.85 -0.2,0.35 -1.45,-0.8 -1.6,-0.45 q -0.95,0 -1.5,0.5 -0.75,0.75 -0.45,1.5 l 0.9,1.05 2.2,1.6 -1.35,3.15 -0.8,2.65 -0.15,1.25 q 0.2,1.05 1.25,1.15 0.75,0.05 1.35,-0.55 l 0.95,-1.2 2.6,-4.05 0.5,0.35 0.75,0.75 q 1,0.9 2.2,0.65 1.25,-0.25 1.75,-1.45 0.5,-1.2 -0.3,-2.2"
         fill="#8d8074"
         fill-rule="evenodd"
         stroke="none"
         id="path4" />
      <path
         d="M 26.75,31.85 25,20.4 l 0.3,-0.05 3,-0.35 0.85,-0.1 1.6,-0.35 1,-0.35 Q 31.8,28.95 28.2,38.3 27.45,36.25 26.75,31.85 M -19.4,40.5 q -2.3,-5.9 -2.9,-11.95 l 1.05,-0.6 q 2.65,-1.8 4.9,-4.35 l 1.4,-1.35 0.55,-0.7 q -0.5,4.6 -1.45,8.05 l -1.85,5.45 -1.7,5.45"
         fill="#e3e3e3"
         fill-rule="evenodd"
         stroke="none"
         id="path5" />
      <path
         d="m 26.75,15.05 4.7,-1.25 0.25,2.8 -2.05,0.65 -1.45,0.25 -1.8,-0.2 -1.75,0.05 -0.1,0.05 -0.25,-2.3 2.45,-0.05 m -40.9,3.35 v 0.3 l -0.9,0.4 -1.15,0.2 -0.15,0.1 -2.3,0.3 -1.8,0.35 -1.85,0.25 -0.15,0.05 0.45,-3.85 q 3.45,0.95 7.9,1.4 l -0.05,0.5 m -8.4,4.6 3.2,-0.45 -1.1,1.05 -1.85,1.75 -0.25,0.25 V 23"
         fill="#b4b4b4"
         fill-rule="evenodd"
         stroke="none"
         id="path6" />
    </g>
    <g
       id="sprite1"
       transform="translate(17.4,15.85)">
      <use
         ffdec:characterId="31"
         height="57.200001"
         transform="matrix(0.5366,0,0,0.5366,-16.6582,-14.546)"
         width="70.75"
         xlink:href="#sprite2"
         id="use6" />
    </g>
    <g
       id="sprite2"
       transform="translate(-8.65,-10.35)">
      <use
         ffdec:characterId="30"
         height="57.200001"
         transform="translate(8.65,10.35)"
         width="70.75"
         xlink:href="#shape1"
         id="use7" />
    </g>
    <g
       id="shape1"
       transform="translate(-8.65,-10.35)">
      <path
         d="m 14.8,41.7 q 0.65,-1.75 2.65,-2.5 1.8,-0.8 3.7,-0.25 1.15,0.45 2.25,1.2 l 0.9,0.4 q 1.65,0.9 2.85,2.5 L 37.8,30.1 q 2.35,-2.8 3.75,-3.95 1.5,-1.15 4.25,-2.4 18.2,-8.85 27.65,-12.6 2.15,-0.8 3.25,-0.8 h 0.8 l 1.9,2.4 -0.2,0.8 q -0.2,1.1 -1.55,3 -5.85,8.25 -18.85,23.8 -1.85,2.35 -3.35,3.5 -1.4,1.15 -4.75,2.75 l -15.15,7.15 q 1.2,1.6 1.75,3.4 l 0.2,1 0.55,2.5 q 0.1,1.95 -1.1,3.55 -1.2,1.65 -3.05,1.9 l -1.3,0.05 q -1.65,0.2 -3.45,-0.65 -1.85,-0.9 -3,-2.6 L 25,60.95 23.8,62.1 q -2.6,2.85 -4.3,3.95 -2.85,1.8 -5.5,1.45 l -1.65,-0.5 -1.2,-0.7 -0.2,-0.2 q -1,-0.85 -1.6,-1.9 L 9.25,64 9.15,63.8 8.75,62.4 q -0.2,-0.8 -0.05,-1.7 0.25,-2.65 2.7,-5.05 1.5,-1.3 4.9,-3.15 L 17.7,51.55 16.05,50 q -1.35,-1.5 -1.8,-3.6 -0.4,-1.85 0.25,-3.45 l 0.3,-1.25"
         fill="#000000"
         fill-opacity="0.372549"
         fill-rule="evenodd"
         stroke="none"
         id="path7" />
    </g>
  </defs>
</svg>
