<?xml version="1.0" encoding="UTF-8" standalone="no"?>
<svg
   ffdec:objectType="frame"
   height="54.928261"
   width="88.764061"
   version="1.1"
   id="svg4"
   sodipodi:docname="ITEM Big Rock Mask.svg"
   xmlns:inkscape="http://www.inkscape.org/namespaces/inkscape"
   xmlns:sodipodi="http://sodipodi.sourceforge.net/DTD/sodipodi-0.dtd"
   xmlns:xlink="http://www.w3.org/1999/xlink"
   xmlns="http://www.w3.org/2000/svg"
   xmlns:svg="http://www.w3.org/2000/svg"
   xmlns:ffdec="https://www.free-decompiler.com/flash">
  <sodipodi:namedview
     id="namedview4"
     pagecolor="#ffffff"
     bordercolor="#000000"
     borderopacity="0.25"
     inkscape:showpageshadow="2"
     inkscape:pageopacity="0.0"
     inkscape:pagecheckerboard="0"
     inkscape:deskcolor="#d1d1d1"
     fit-margin-top="5"
     fit-margin-left="5"
     fit-margin-right="5"
     fit-margin-bottom="5" />
  <g
     transform="translate(47.55,22.378261)"
     id="g1">
    <use
       ffdec:characterId="17"
       height="119.15"
       id="rarity"
       transform="translate(-58.5,-60.65)"
       width="119.15"
       xlink:href="#sprite0" />
    <use
       ffdec:characterId="1028"
       height="55"
       transform="translate(-47.55,-22.4)"
       width="88.75"
       xlink:href="#shape0"
       id="use1" />
  </g>
  <defs
     id="defs4">
    <g
       id="shape0"
       transform="translate(94.35,23.75)">
      <path
         d="m -41.4,9.1 q 0.55,2.35 0.2,5.3 -0.25,1.9 -1.05,5.3 -0.3,1.2 -0.65,1.65 -0.65,0.75 -2.15,1.05 l -2.75,0.3 -2.75,0.25 -1.9,0.4 -1.9,0.4 -4.2,0.1 -1.85,0.05 q -1.1,-0.1 -1.6,-0.7 l -0.2,-0.25 -2.7,0.55 q -5.15,0.45 -10,-0.8 -2.8,-0.65 -5.45,-1.95 -2.7,-1.3 -3.35,-2.95 -0.45,-1.2 -0.15,-3.4 l 0.65,-5.3 0.3,-1.5 -1.15,-1 -1.35,-1.05 -1.05,-1.3 q -0.4,-1 0,-3.15 l 1.5,-8.05 q 0.4,-1.95 1,-2.7 L -82,-11.3 q 2.3,-1.75 3.4,-4.25 l 0.9,-1.9 q 0.75,-1.15 2.55,-2.25 2.35,-1.4 6.85,-3.4 2,-0.85 3,-0.55 0.95,0.35 1.95,1.85 3.15,4.75 6.55,11.95 l 0.45,1.15 q 1.5,0.05 2.2,0.6 0.7,0.5 1.4,1.9 l 4.65,9 q 0.6,1 0.75,1.85 h 0.3 l 1.95,0.3 1.1,0.7 1.25,0.85 q 0.85,0.75 1.35,2.6 m -26.2,-17.95 -0.3,0.25 -0.6,0.1 -0.4,-0.2 -0.2,-0.45 -0.1,-0.75 0.15,-0.55 0.3,-1 0.15,-1.35 0.1,-0.65 0.25,-0.7 v -1.05 l 0.2,-0.65 0.05,-0.75 0.2,-0.6 q 0.1,-0.35 0.05,-1.05 l -3.35,1.6 -2,1.3 -0.95,1.55 q -1.75,3.3 -4.6,6.1 l 2,-0.35 2.95,-0.2 q 0.3,0 0.35,0.15 0.25,0.4 -0.45,0.6 l -2.85,1.1 -1.65,0.75 -1.4,0.95 -0.1,0.05 q -0.35,0.2 -0.65,0.25 l -0.9,4.2 q -0.3,1.5 -0.05,2.15 l 0.9,1.25 0.9,0.7 0.25,-0.15 Q -75.7,1.9 -73.5,1 l 1,-0.65 q 0.2,-0.25 0.2,-0.95 l -0.15,-2.3 q -0.05,-1.35 0.35,-2.2 l 0.3,-0.45 q 0.7,-1 2.4,-1.7 l 1.3,-0.45 4.5,-0.8 h 0.1 l 3.4,-0.1 -5.2,-8.5 -0.85,2.5 -0.1,0.8 -0.35,1.15 -0.05,0.65 -0.15,0.55 -0.25,0.95 -0.3,1.05 -0.25,0.6 M -54.25,0.4 -55.5,-1.85 Q -56,-2.9 -56.55,-3.2 l -1.4,-0.3 q -4.9,-0.4 -9.5,1.05 0.2,2 0.05,3.2 -0.1,1.05 -0.45,1.9 l 2,0.4 1.45,0.3 1.3,0.15 q 0.95,0.15 1.7,0.75 l 0.15,0.1 q 0.7,-0.55 1.1,-0.6 0.75,-0.1 1.25,0.5 l 0.3,0.45 -0.05,0.8 -0.65,0.95 -0.95,0.8 -0.7,0.55 -0.7,0.35 -0.8,0.7 -1.05,0.65 -2,1.15 -0.2,0.1 -2.3,1.1 -1,0.1 q -0.65,-0.2 -0.5,-0.8 l 0.45,-0.45 0.6,-0.25 0.8,-0.75 0.85,-0.6 q 1.45,-0.95 3.75,-3.05 -2.6,-0.15 -5.8,-0.05 -1.65,0 -2.2,-0.4 l -0.1,-0.1 -0.35,0.15 -4.75,2.25 -1.3,0.85 q -0.4,0.5 -0.6,1.85 v 0.25 l -0.45,3.55 0.05,1.1 q 0.25,0.55 1.3,0.95 l 4.7,1.45 7.15,0.45 2,-0.2 -0.25,-0.75 q -0.6,-1.8 -0.3,-2.95 0.25,-0.95 1.35,-2.2 L -57.85,7 q 1.05,-1.3 1.7,-1.6 l 2.1,-0.45 2.15,-0.35 -2.35,-4.2 M -26.8,-9.05 -27.15,-9 h -1 l -0.95,-0.2 -0.3,-0.5 v -0.4 l 0.1,-0.2 0.7,-0.5 0.9,-0.4 1.05,-0.25 5.25,-1 0.9,-0.3 0.6,-0.1 -0.2,-1.35 q -0.2,-1 -0.5,-1.25 -0.25,-0.25 -1.1,-0.45 l -9.4,-0.65 -1.2,0.05 h -0.6 l 0.1,0.25 q 0.8,2.3 2.35,4.3 l 0.1,0.4 q -0.1,0.2 -0.4,0.1 l -0.35,-0.3 q -0.8,-0.35 -1.2,-0.65 l -0.45,-0.55 -0.4,-0.65 -0.55,-0.5 -0.1,0.7 -0.95,9.7 -0.5,9.5 0.1,1.15 0.1,0.15 0.85,-0.35 3.65,-0.4 1.3,-0.05 h 0.05 q -0.05,-0.8 0.3,-2 l 2.25,-7.6 q 0.35,-1.45 0.85,-2.3 1,-1.85 3.55,-2.8 l 3.4,-0.6 -0.35,-1.15 -1.8,0.3 -3.25,0.45 -0.75,0.2 h -1.05 l -0.75,0.15 m 4.75,32.9 q -1.85,0.4 -3.25,1.5 l -1.8,1.15 -1.65,-0.15 -3.65,-0.2 -3.55,-0.55 -1.25,-0.9 -0.25,-1.55 0.05,-3.45 q 0,-1.55 0.55,-2.15 l 0.2,-0.15 -0.2,-0.3 q -0.45,-0.75 -0.35,-2.05 l 0.45,-2.75 0.2,-0.85 -0.55,-0.2 q -1.95,-0.6 -2.5,-1.6 Q -39.95,9 -39.95,7.8 -40.1,0.75 -38.5,-13.05 l 0.45,-4 q 0.2,-1.75 0.65,-2.5 0.85,-1.15 2.35,-1.45 l 2.8,-0.2 5.95,0.05 5.8,0.8 q 2.3,0.55 3.15,1.8 0.4,0.6 0.7,2.1 l 1.35,6.55 0.1,0.95 4.7,0.35 q 2.1,0.1 2.8,0.8 0.45,0.45 0.8,2.15 1.45,10.6 1.3,21 0,1.9 -0.65,2.7 -0.5,0.65 -2.1,1.2 l -4.7,2 q 0.65,0.3 0.9,0.95 l 0.15,0.6 0.35,0.85 0.5,1.25 0.15,0.4 0.45,0.25 q 0.85,0.4 0.75,1.45 -0.05,0.5 -0.65,1.2 l -2.9,2.35 q -0.9,0.55 -1.35,0.65 l -1.2,-0.1 -1.25,-0.25 -1.05,-0.1 h -1.1 q -0.9,-0.1 -1.65,-0.6 -0.8,-0.55 -1.1,-1.35 -0.35,-0.8 -0.05,-2.25 l 0.45,-2.3 0.05,-0.5 -0.45,0.1 m 11.5,-24.5 -0.3,-2.35 -0.4,-1 -0.7,-0.2 -6.6,-0.3 q -2.1,0 -3.05,0.85 -0.5,0.5 -1.05,2.05 l -1.45,5 h 0.6 0.1 0.2 l 0.55,0.05 h 0.3 l 0.5,0.05 0.25,0.05 1.9,0.15 3.35,0.2 2.35,0.15 0.7,0.2 0.5,0.35 q 0.25,0.35 0,0.7 l -0.15,0.15 -0.9,0.1 -4.7,-0.3 Q -21.3,5.05 -22.7,5.3 l -2,0.4 -0.2,0.7 q 6.65,0.3 10.8,1.7 1.15,0.35 1.5,0.95 l 0.05,0.05 q 0.15,0.35 0.05,1.65 l 0.15,3.85 0.2,1.9 1.6,-0.65 0.75,-0.5 q 0.15,-0.2 0.15,-0.8 -0.05,-7.65 -0.9,-15.2 m -3.3,15.4 -0.5,-1.95 q -0.2,-0.7 -0.5,-0.95 -0.15,-0.15 -0.85,-0.4 -5.75,-1.6 -15.2,-1.4 l -0.25,0.05 -0.95,0.3 -0.4,0.8 -0.35,1.85 -0.2,1.55 q -0.05,1.1 -0.25,1.85 l 1.95,-0.4 0.85,-0.2 4.25,-0.15 q 1.15,0.15 2,0.65 l 0.3,0.2 1.15,0.9 1.15,1 1,0.65 0.55,0.45 1,-0.1 1.95,-0.4 h 0.1 l 1.15,-0.8 2.5,-1.25 -0.45,-2.25 m 0.65,10.2 -0.15,-0.3 -0.65,-0.95 -3.3,0.5 -1.5,0.35 -0.15,1.3 -0.35,1.35 1.5,0.25 1.55,0.05 1.15,0.25 0.9,-0.45 1.15,-0.85 0.25,-0.35 -0.05,-0.3 -0.35,-0.85 m -20.95,-5.1 0.05,2.35 5.5,0.5 1.05,-0.05 0.75,-0.45 1.05,-0.6 1.1,-0.55 0.25,-0.1 0.25,-0.2 -0.15,-0.25 -1.35,-1.05 -1.15,-0.3 -1.05,-0.35 h -0.05 q -0.75,-0.45 -1.2,-0.5 l -0.95,0.05 q -2.25,0.5 -4.1,1.1 v 0.4 m -11.6,-7.25 v -0.15 l -0.2,-1.5 -0.25,-0.8 -0.5,-0.45 Q -47.8,9.05 -48.45,7.85 L -50.6,8 l -2.15,0.4 -0.8,0.25 -0.55,0.65 -1.05,1.3 -0.95,0.75 -3.15,3.6 -0.25,0.45 0.05,0.6 0.25,0.75 0.75,2.35 3.9,-0.1 1.6,-0.35 5.6,-0.65 0.45,-0.1 0.2,-0.45 q 0.95,-3.15 0.95,-4.85 m -39.3,5.4 0.15,0.7 0.05,0.85 0.25,1.15 0.2,1.75 -0.05,1 q -0.25,0.75 -1.2,1.4 l -0.75,0.45 -0.85,0.1 -2.15,-0.05 -3.05,-0.3 -1.05,-0.25 -0.75,-0.75 -0.1,-0.95 0.2,-1.65 0.4,-1.7 0.4,-1.75 0.15,-0.75 q 0.25,-0.55 1.25,-1.15 l 1.65,-0.7 q 1.4,-0.5 2.55,-0.5 1,0.1 1.4,0.45 l 0.7,1 q 0.35,0.65 0.6,1.65 m -2.1,1.85 -0.1,-0.95 -0.05,-0.15 -0.3,-1.1 -2.55,0.65 -0.3,0.2 v 0.05 l -0.2,0.45 -0.35,1.3 -0.45,1.6 3.45,0.2 1.2,-0.3 -0.1,-0.85 -0.25,-0.85 v -0.25"
         fill="#000000"
         fill-rule="evenodd"
         stroke="none"
         id="path1" />
      <path
         d="m -79.7,-4.7 1.4,-0.95 1.65,-0.75 2.85,-1.1 q 0.7,-0.2 0.45,-0.6 -0.05,-0.15 -0.35,-0.15 l -2.95,0.2 -2,0.35 q 2.85,-2.8 4.6,-6.1 l 0.95,-1.55 2,-1.3 3.35,-1.6 q 0.05,0.7 -0.05,1.05 l -0.2,0.6 -0.05,0.75 -0.2,0.65 v 1.05 l -0.25,0.7 -0.1,0.65 -0.15,1.35 -0.3,1 -0.15,0.55 0.1,0.75 0.2,0.45 0.4,0.2 0.6,-0.1 0.3,-0.25 -0.5,1.15 -1.3,0.45 q -1.7,0.7 -2.4,1.7 l -5.35,0.85 -2.05,0.2 -0.5,-0.2 m 12.65,-5.8 0.25,-0.95 0.15,-0.55 0.05,-0.65 0.35,-1.15 0.1,-0.8 0.85,-2.5 5.2,8.5 -3.4,0.1 h -0.1 l -0.25,-0.2 -2.55,-1.5 -0.65,-0.3 m 8.45,15.2 -0.3,-0.45 q -0.5,-0.6 -1.25,-0.5 -0.4,0.05 -1.1,0.6 l -0.15,-0.1 q -0.75,-0.6 -1.7,-0.75 l -1.3,-0.15 -1.45,-0.3 -2,-0.4 q 0.35,-0.85 0.45,-1.9 0.15,-1.2 -0.05,-3.2 4.6,-1.45 9.5,-1.05 l 1.4,0.3 q 0.55,0.3 1.05,1.35 l 1.25,2.25 -0.8,0.95 -1.9,1.65 -1.1,1.2 -0.55,0.5 m -19.55,6.15 V 10.6 q 0.2,-1.35 0.6,-1.85 l 1.3,-0.85 4.75,-2.25 0.35,-0.15 0.1,0.1 q 0.55,0.4 2.2,0.4 3.2,-0.1 5.8,0.05 -2.3,2.1 -3.75,3.05 l -0.85,0.6 -0.8,0.75 -0.6,0.25 -0.45,0.45 q -0.15,0.6 0.5,0.8 l 1,-0.1 2.3,-1.1 0.2,-0.1 -1.65,1.3 q -1,0.75 -2,0.95 l -2.3,-0.05 -4,-0.65 -1.65,-0.4 q -0.7,-0.35 -1.05,-0.95 m 47.6,-4.5 -3.65,0.4 -0.85,0.35 -0.1,-0.15 -0.1,-1.15 0.5,-9.5 0.95,-9.7 0.1,-0.7 0.55,0.5 0.4,0.65 0.45,0.55 q 0.4,0.3 1.2,0.65 l 0.35,0.3 q 0.3,0.1 0.4,-0.1 l -0.1,-0.4 q -1.55,-2 -2.35,-4.3 l -0.1,-0.25 h 0.6 l 1.2,-0.05 9.4,0.65 q 0.85,0.2 1.1,0.45 0.3,0.25 0.5,1.25 l 0.2,1.35 -0.6,0.1 -0.9,0.3 -5.25,1 -1.05,0.25 -0.9,0.4 -0.7,0.5 -0.1,0.2 v 0.4 l 0.3,0.5 0.95,0.2 h 1 l 0.35,-0.05 -0.35,0.15 q -0.95,0.45 -1.7,0.3 l -0.55,-0.2 v 2 q 0.05,2.95 -0.05,4.4 l -1.1,8.5 v 0.25 m 8.95,-2.8 -0.25,-0.05 -0.5,-0.05 h -0.3 L -23.2,3.4 h -0.2 -0.1 -0.6 l 1.45,-5 q 0.55,-1.55 1.05,-2.05 0.95,-0.85 3.05,-0.85 l 6.6,0.3 0.7,0.2 0.4,1 0.3,2.35 -4.55,0.65 -5,0.65 -0.7,0.3 -0.25,0.75 -0.55,1.75 v 0.1 m 9,5.5 Q -12.95,8.45 -14.1,8.1 -18.25,6.7 -24.9,6.4 l 0.2,-0.7 2,-0.4 q 1.4,-0.25 4.15,-0.05 l 4.7,0.3 0.9,-0.1 0.6,0.4 0.75,0.85 q 0.4,0.85 -0.1,1.6 -0.35,0.55 -0.9,0.75 m -18.75,7 -1.95,0.4 q 0.2,-0.75 0.25,-1.85 l 0.2,-1.55 0.35,-1.85 0.4,-0.8 0.95,-0.3 0.25,-0.05 q 9.45,-0.2 15.2,1.4 0.7,0.25 0.85,0.4 0.3,0.25 0.5,0.95 l 0.5,1.95 -0.75,0.35 -1.65,0.2 -6.95,-1 q -4.55,-1 -6.9,-1 h -0.1 l -0.25,0.55 -0.85,1.95 -0.05,0.25 m 12.4,9.8 0.15,-1.3 1.5,-0.35 3.3,-0.5 0.65,0.95 0.15,0.3 -0.5,0.5 q -1.25,1.25 -3.15,1.15 -1.4,0 -2.1,-0.75 m -6.8,-4.25 H -26.1 L -27,21.55 h -2.25 -1.85 l -0.4,-0.05 q -1.5,-0.2 -2.25,-1.05 l -0.4,-0.6 v -0.4 q 1.85,-0.6 4.1,-1.1 l 0.95,-0.05 q 0.45,0.05 1.2,0.5 h 0.05 l 1.05,0.35 1.15,0.3 1.35,1.05 -0.05,0.1 -0.3,0.45 -1.1,0.55 M -59.2,16.75 -59.45,16 l -0.05,-0.6 0.25,-0.45 3.15,-3.6 0.95,-0.75 1.05,-1.3 0.55,-0.65 0.8,-0.25 2.15,-0.4 2.15,-0.15 q 0.65,1.2 1.75,1.85 l 0.5,0.45 0.25,0.8 0.2,1.5 v 0.15 l -1.05,1.1 -1.2,0.45 -6,1.65 -3.2,1.1 -2,-0.15 m -31.8,3.55 0.35,-1.3 0.2,-0.45 V 18.5 l 0.3,-0.2 2.55,-0.65 0.3,1.1 0.05,0.15 0.1,0.95 -0.05,0.05 -0.6,0.55 q -0.6,0.4 -1.45,0.5 -0.85,0 -1.45,-0.4 L -91,20.3"
         fill="#757882"
         fill-rule="evenodd"
         stroke="none"
         id="path2" />
      <path
         d="m -79.7,-4.7 0.5,0.2 2.05,-0.2 5.35,-0.85 -0.3,0.45 q -0.4,0.85 -0.35,2.2 l 0.15,2.3 q 0,0.7 -0.2,0.95 l -1,0.65 q -2.2,0.9 -5.85,2.75 L -79.6,3.9 -80.5,3.2 -81.4,1.95 q -0.25,-0.65 0.05,-2.15 l 0.9,-4.2 q 0.3,-0.05 0.65,-0.25 l 0.1,-0.05 m 11.6,-3 0.5,-1.15 0.25,-0.6 0.3,-1.05 0.65,0.3 2.55,1.5 0.25,0.2 -4.5,0.8 m 9.5,12.4 0.55,-0.5 1.1,-1.2 1.9,-1.65 0.8,-0.95 2.35,4.2 -2.15,0.35 -2.1,0.45 q -0.65,0.3 -1.7,1.6 l -4.75,5.25 q -1.1,1.25 -1.35,2.2 -0.3,1.15 0.3,2.95 l 0.25,0.75 -2,0.2 -7.15,-0.45 -4.7,-1.45 q -1.05,-0.4 -1.3,-0.95 l -0.05,-1.1 0.45,-3.55 q 0.35,0.6 1.05,0.95 l 1.65,0.4 4,0.65 2.3,0.05 q 1,-0.2 2,-0.95 l 1.65,-1.3 2,-1.15 1.05,-0.65 0.8,-0.7 0.7,-0.35 0.7,-0.55 0.95,-0.8 0.65,-0.95 0.05,-0.8 m 28.05,1.65 V 6.1 l 1.1,-8.5 q 0.1,-1.45 0.05,-4.4 v -2 l 0.55,0.2 q 0.75,0.15 1.7,-0.3 l 0.35,-0.15 0.75,-0.15 H -25 l 0.75,-0.2 3.25,-0.45 1.8,-0.3 0.35,1.15 -3.4,0.6 q -2.55,0.95 -3.55,2.8 -0.5,0.85 -0.85,2.3 l -2.25,7.6 q -0.35,1.2 -0.3,2 h -0.05 l -1.3,0.05 m 8.95,-2.8 v -0.1 l 0.55,-1.75 0.25,-0.75 0.7,-0.3 5,-0.65 4.55,-0.65 q 0.85,7.55 0.9,15.2 0,0.6 -0.15,0.8 l -0.75,0.5 -1.6,0.65 -0.2,-1.9 -0.15,-3.85 q 0.1,-1.3 -0.05,-1.65 L -12.6,9.05 q 0.55,-0.2 0.9,-0.75 0.5,-0.75 0.1,-1.6 l -0.75,-0.85 -0.6,-0.4 0.15,-0.15 q 0.25,-0.35 0,-0.7 L -13.3,4.25 -14,4.05 -16.35,3.9 -19.7,3.7 -21.6,3.55 m -9.75,12.5 0.05,-0.25 0.85,-1.95 0.25,-0.55 h 0.1 q 2.35,0 6.9,1 l 6.95,1 1.65,-0.2 0.75,-0.35 0.45,2.25 -2.5,1.25 -1.15,0.8 h -0.1 l -1.95,0.4 -1,0.1 -0.55,-0.45 -1,-0.65 -1.15,-1 -1.15,-0.9 -0.3,-0.2 q -0.85,-0.5 -2,-0.65 l -4.25,0.15 -0.85,0.2 m 12.4,9.8 q 0.7,0.75 2.1,0.75 1.9,0.1 3.15,-1.15 l 0.5,-0.5 0.35,0.85 0.05,0.3 -0.25,0.35 -1.15,0.85 -0.9,0.45 -1.15,-0.25 -1.55,-0.05 -1.5,-0.25 0.35,-1.35 m -6.8,-4.25 -1.05,0.6 -0.75,0.45 -1.05,0.05 -5.5,-0.5 -0.05,-2.35 0.4,0.6 q 0.75,0.85 2.25,1.05 l 0.4,0.05 h 1.85 2.25 l 0.9,0.05 h 0.35 m 1.45,-1.1 0.15,0.25 -0.25,0.2 -0.25,0.1 0.3,-0.45 0.05,-0.1 m -34.9,-3.75 2,0.15 3.2,-1.1 6,-1.65 1.2,-0.45 1.05,-1.1 q 0,1.7 -0.95,4.85 l -0.2,0.45 -0.45,0.1 -5.6,0.65 -1.6,0.35 -3.9,0.1 -0.75,-2.35 m -31.8,3.55 0.3,0.25 q 0.6,0.4 1.45,0.4 0.85,-0.1 1.45,-0.5 l 0.6,-0.55 0.05,-0.05 v 0.25 l 0.25,0.85 0.1,0.85 -1.2,0.3 -3.45,-0.2 0.45,-1.6"
         fill="#646770"
         fill-rule="evenodd"
         stroke="none"
         id="path3" />
    </g>
    <g
       id="sprite1"
       transform="translate(17.4,15.85)">
      <use
         ffdec:characterId="31"
         height="57.200001"
         transform="matrix(0.5366,0,0,0.5366,-16.6582,-14.546)"
         width="70.75"
         xlink:href="#sprite2"
         id="use3" />
    </g>
    <g
       id="sprite2"
       transform="translate(-8.65,-10.35)">
      <use
         ffdec:characterId="30"
         height="57.200001"
         transform="translate(8.65,10.35)"
         width="70.75"
         xlink:href="#shape1"
         id="use4" />
    </g>
    <g
       id="shape1"
       transform="translate(-8.65,-10.35)">
      <path
         d="m 14.8,41.7 q 0.65,-1.75 2.65,-2.5 1.8,-0.8 3.7,-0.25 1.15,0.45 2.25,1.2 l 0.9,0.4 q 1.65,0.9 2.85,2.5 L 37.8,30.1 q 2.35,-2.8 3.75,-3.95 1.5,-1.15 4.25,-2.4 18.2,-8.85 27.65,-12.6 2.15,-0.8 3.25,-0.8 h 0.8 l 1.9,2.4 -0.2,0.8 q -0.2,1.1 -1.55,3 -5.85,8.25 -18.85,23.8 -1.85,2.35 -3.35,3.5 -1.4,1.15 -4.75,2.75 l -15.15,7.15 q 1.2,1.6 1.75,3.4 l 0.2,1 0.55,2.5 q 0.1,1.95 -1.1,3.55 -1.2,1.65 -3.05,1.9 l -1.3,0.05 q -1.65,0.2 -3.45,-0.65 -1.85,-0.9 -3,-2.6 L 25,60.95 23.8,62.1 q -2.6,2.85 -4.3,3.95 -2.85,1.8 -5.5,1.45 l -1.65,-0.5 -1.2,-0.7 -0.2,-0.2 q -1,-0.85 -1.6,-1.9 L 9.25,64 9.15,63.8 8.75,62.4 q -0.2,-0.8 -0.05,-1.7 0.25,-2.65 2.7,-5.05 1.5,-1.3 4.9,-3.15 L 17.7,51.55 16.05,50 q -1.35,-1.5 -1.8,-3.6 -0.4,-1.85 0.25,-3.45 l 0.3,-1.25"
         fill="#000000"
         fill-opacity="0.372549"
         fill-rule="evenodd"
         stroke="none"
         id="path4" />
    </g>
  </defs>
</svg>
