<?xml version="1.0" encoding="UTF-8" standalone="no"?>
<svg
   ffdec:objectType="frame"
   height="83.400002"
   width="75.957146"
   version="1.1"
   id="svg4"
   xmlns:xlink="http://www.w3.org/1999/xlink"
   xmlns="http://www.w3.org/2000/svg"
   xmlns:svg="http://www.w3.org/2000/svg"
   xmlns:ffdec="https://www.free-decompiler.com/flash">
  <g
     transform="translate(37.607143,45.6)"
     id="g1">
    <use
       ffdec:characterId="17"
       height="119.15"
       id="rarity"
       transform="translate(-58.5,-60.65)"
       width="119.15"
       xlink:href="#sprite0" />
    <use
       ffdec:characterId="1324"
       height="83.449997"
       transform="translate(-37.6,-45.6)"
       width="75.949997"
       xlink:href="#shape0"
       id="use1" />
  </g>
  <defs
     id="defs4">
    <g
       id="shape0"
       transform="translate(36.3,43.7)">
      <path
         d="m 7,-35.1 q 1.9,0.5 3.1,1.35 1.95,1.3 3.25,3.85 l 2.4,-2.35 2.9,-2.3 q 3.6,-2.25 7.9,-1.8 4.3,0.45 7.35,3.5 2.95,2.95 4.65,8.7 1.1,3.6 1.1,6.05 0,2.5 -0.85,4.4 -0.5,1.2 -1.8,2.85 l -2,2.7 q -2,3 -3.05,7.95 l -0.4,1.75 q 0.9,0.65 1.6,1.9 2.1,3.8 0.55,9.9 l -0.75,3.75 0.15,2.4 q 0.1,1.5 -0.15,2.4 -0.45,1.45 -2.65,3.35 -8,6.9 -17.65,11.8 -3.1,1.6 -5.35,2.2 L 0.65,39.7 Q -6.25,39.35 -12.7,36.45 -19.15,33.6 -24.05,28.7 -26,26.75 -26.4,25.2 -26.65,24.3 -26.55,23 l 0.25,-2.2 0.25,-4.35 q 0.25,-2.55 1.3,-4 l 0.05,-0.05 q -5.65,-1.95 -8.7,-6.1 -2.05,-2.75 -2.65,-6.5 -0.6,-3.5 0.2,-7.1 1.45,-6.35 6.85,-12.35 3.3,-3.65 6.55,-5.4 2.9,-1.55 5.75,-1.85 -0.4,-2 -0.4,-5.1 -0.1,-1.9 0.3,-3.05 0.55,-1.65 2.8,-3.5 6.25,-5.1 12.2,-5.15 l 2.8,0.45 q 2.1,0.9 3.4,3.5 l 2,4.5 0.6,0.15 m 10.45,8.7 -1.95,1.55 -0.6,0.4 v 0.35 q -0.05,1.25 -0.45,2.45 l 1.4,0.45 1.35,-0.65 q 2.95,-1.1 5.1,-1.05 l 2.45,0.4 2.05,0.75 1.25,1.15 1.2,1.15 0.5,1.45 q 0.5,2.5 0.05,5.15 l -0.55,1.55 -0.7,1.1 -0.55,1.25 -0.7,0.8 0.4,1.15 q 1.15,-3.1 2.8,-5.2 l 1.35,-1.55 1.15,-1.7 q 1,-2.15 0.5,-4.85 -0.35,-1.85 -1.65,-4.65 l -0.7,-1.35 q -1.6,-2.9 -3.55,-3.7 -2.95,-1.3 -6.6,0.95 l -2.8,2.05 -0.75,0.6 m -29.15,-4.65 0.2,1.55 0.5,2.25 0.05,1 1.4,0.4 2.95,0.9 v -0.55 l 0.55,-3.1 q 0.85,-2.95 3.8,-4.95 1.5,-1 3.05,-1.5 l -0.65,-1.15 -0.6,-1 -0.95,-0.95 -1.6,0.1 q -3.65,1 -6.75,3.25 l -1.45,1.4 q -0.6,0.85 -0.5,2.35 m 18.65,2.75 -0.1,-0.1 Q 6.1,-29.05 4.9,-29.2 L 2.3,-29 q -1.3,0.45 -2.15,1.4 l -0.65,1 -0.45,1.35 q -0.25,1.35 0.35,2.5 0.5,1.05 1.6,1.7 1.05,0.6 2.3,0.7 2.45,0.1 4.3,-1.8 0.9,-0.8 1.05,-1.75 0.15,-0.7 -0.4,-2.2 -0.65,-1.6 -1.3,-2.2 m 11.8,16.95 q -2.7,-3.65 -6.45,-4.4 l -2.1,-0.3 q -1.5,1.1 -2.65,1.45 l -1.5,0.35 q 4.15,3.7 6.1,7.6 l 0.85,2.1 q 0.65,1.85 0.75,3.7 L 13.65,1.8 Q 13.15,5.25 11.1,7.55 10.15,8.65 8.45,9.8 6.55,11.1 5.6,11.75 2.1,14.3 1.7,17.25 3.9,18.6 5.15,18 L 6.5,16.6 q 1.25,-1.5 2.7,-2.25 0.8,-0.5 2.1,-0.95 l 2.2,-0.75 q 4.4,-1.7 6.9,-4.55 3,-3.5 2.8,-7.6 l -0.65,-3.25 -0.15,-0.5 q -1.5,-5 -3.35,-7.7 l -0.3,-0.4 M 3.5,-8.4 v 0.15 L 3.6,-8.3 3.5,-8.4 M 7.75,1 Q 7.9,0 7.2,-1.8 l -0.75,-2 h -0.2 l -2.3,0.35 -0.8,0.1 -0.7,1.5 L 0.8,-0.1 Q -0.65,1.05 -1.85,1.25 L -3.1,1.3 -4.35,1.15 -6.9,0.55 Q -7.7,0.2 -8.45,-0.5 q -0.45,0.25 -1,0.4 l -1.95,0.6 -1.3,0.7 0.25,0.2 2,1.4 q 2,1.45 3.45,3.25 0.95,-1.1 2.75,-2.15 2.3,-1.5 4.15,-2.05 L 4.2,1.4 6.55,1.5 7.45,2 7.75,1 M 23,-15.95 l 1.55,2.15 0.2,-0.55 q 0.3,-1.15 0,-1.8 -0.45,-0.95 -1.7,-1.2 H 21.7 l 1.3,1.4 m 4.6,29.35 0.2,-0.75 q 1,-3.45 0.35,-5.3 L 28.1,7.25 Q 27.05,9.7 25.15,12 l -0.4,0.45 q -3.8,4.25 -10.1,6.6 Q 11.9,20 11.05,20.8 L 9.9,22.2 8.7,23.6 Q 6.7,25.4 2.25,24.25 -0.6,23.5 -2,22.6 L -3.25,21.55 Q -4,20.85 -4.35,20 l -1.05,0.9 q -1.05,0.75 -2.5,0.9 -2.2,0.2 -5.1,-1 -3.15,-1.2 -4.7,-2.9 l -1.2,-2 -0.45,-1.3 -0.5,0.3 q -0.6,0.55 -0.6,1.9 l -0.2,3.85 q -0.1,1.6 0.2,2.35 l 1.2,1.75 q 6.1,6.25 17.25,8.5 l 6.8,0.3 q 1.95,-0.4 5.2,-2 9.55,-4.8 16.1,-10.55 l 1,-1.35 Q 27.25,19.2 27,18.05 26.8,16.6 27.6,13.4 m -12.05,7.9 q 0.4,-0.9 1.3,-1.45 0.9,-0.5 1.85,-0.4 1,0.1 1.75,0.85 0.75,0.7 0.9,1.7 0.15,1 -0.35,1.9 -0.5,0.95 -1.4,1.35 l -1.95,0.15 q -1,-0.25 -1.65,-1 -1.1,-1.35 -0.45,-3.1 M -2.7,11.15 Q -1.5,9.3 1.35,7.25 l 2,-1.45 -1.2,0.25 Q 1.2,6.3 0,6.9 q -2,1 -2.8,1.8 l -1.65,2.05 q 0.35,1 0.55,2.05 l 0.15,0.55 1.05,-2.2 m 4.8,18.9 q -0.5,-0.9 -0.35,-1.9 0.2,-1 1,-1.7 0.85,-0.7 1.85,-0.75 1,0 1.85,0.7 0.85,0.7 1,1.7 0.2,1 -0.35,1.95 Q 6.55,31 5.6,31.35 L 3.65,31.3 Q 2.65,30.9 2.1,30.05 M -14.05,-20.8 -15,-20.9 q -3.25,0 -6.3,2.3 -2.3,1.7 -4.6,4.95 -2.8,3.85 -3.65,6.95 l -0.2,0.85 q -0.9,3.8 0.6,6.9 1.65,3.5 5.85,5.15 l 2.65,0.8 q 1.8,0.45 2.65,0.8 3.2,1.2 4.25,3.35 l 0.85,2 q 0.6,1.15 1.85,1.8 l 1.15,0.4 -0.45,-2.1 q -0.5,-1.95 -2.2,-3.8 Q -13.7,8.2 -16,6.5 l -3.5,-2.9 q -1.75,-1.8 -2.4,-3.7 -0.45,-1.25 -0.55,-3.5 0,-2.9 0.85,-4.6 0.65,-1.45 2.45,-3.15 3.1,-3.1 5.9,-3.7 1.55,-0.35 5.3,0 l 5.2,-0.35 0.45,-0.2 -1.55,-1.25 q -1.2,-1.15 -1.9,-2.45 -1.7,0.05 -4.3,-0.65 l -4,-0.85 m -0.35,13.15 q -1.65,1.4 -1.85,3.15 l 0.05,1.3 1,-0.55 q 2.2,-1.05 4.85,-0.95 l 0.55,0.05 Q -9.85,-6.5 -11.05,-7.8 l -1,-1 -0.1,-0.1 q -1.25,0.4 -2.25,1.25 m 9.55,2.8 1.35,0.3 q 0.9,0.1 1.25,-0.45 0.2,-0.25 0.3,-0.95 l 0.2,-2.35 -0.15,-1.55 q -1.8,0.65 -3.85,0.7 0.8,1.7 0.9,4.3 m -7,30.7 q -0.2,-0.95 0.2,-1.8 0.4,-0.8 1.2,-1.3 0.8,-0.5 1.7,-0.45 0.85,0 1.65,0.55 0.7,0.45 1.1,1.2 l 0.05,0.15 q 0.35,0.8 0.15,1.75 -0.15,0.9 -0.75,1.55 -0.75,0.85 -1.9,0.95 -1.2,0.15 -2.1,-0.5 -0.95,-0.6 -1.25,-1.75 l -0.05,-0.35"
         fill="#000000"
         fill-rule="evenodd"
         stroke="none"
         id="path1" />
      <path
         d="m 31.15,-26.3 -0.3,0.25 q -1.3,1 -3.75,1.1 l -2,0.1 -2,0.25 -2.2,0.55 -2.15,-0.15 q -0.95,-0.5 -1.2,-1.7 l -0.1,-0.5 0.75,-0.6 2.8,-2.05 q 3.65,-2.25 6.6,-0.95 1.95,0.8 3.55,3.7 m -31,-9.9 q -0.5,1.3 -2.35,2.45 -1.8,1.2 -5.45,2.75 -1.95,0.85 -3.1,0.5 -0.6,-0.2 -0.95,-0.55 -0.1,-1.5 0.5,-2.35 l 1.45,-1.4 q 3.1,-2.25 6.75,-3.25 l 1.6,-0.1 0.95,0.95 0.6,1 m -0.65,9.6 0.65,-1 Q 1,-28.55 2.3,-29 l 2.6,-0.2 q 1.2,0.15 1.95,0.8 l 0.1,0.1 -0.05,0.05 q -0.25,0.7 -0.9,1.45 l -1.25,1.25 Q 3.5,-24.3 2.7,-24 2,-23.75 1.3,-24 0.55,-24.2 0.1,-24.75 -0.6,-25.6 -0.5,-26.6 m 12.65,19.95 0.05,-1.15 0.05,-1.15 -0.2,-1.35 q -0.15,-1.4 0.95,-2.4 1.15,-0.95 2.55,-0.65 l 1.4,0.65 1.45,1.05 0.35,0.3 0.3,0.4 q 1.85,2.7 3.35,7.7 l 0.15,0.5 -0.05,0.15 q -0.4,1.8 -1,2.55 -0.85,1.15 -2.45,1.4 L 16.2,1 14.4,-0.1 13.75,-0.85 Q 13.65,-2.7 13,-4.55 l -0.85,-2.1 m 13,18.65 q 1.9,-2.3 2.95,-4.75 l 0.05,0.1 q 0.65,1.85 -0.35,5.3 l -0.2,0.75 h -0.1 q -1.25,0.1 -2,-0.85 L 25.15,12 m -42.85,5.9 q 1.55,1.7 4.7,2.9 2.9,1.2 5.1,1 1.45,-0.15 2.5,-0.9 L -4.35,20 q 0.35,0.85 1.1,1.55 L -3.8,22.25 -4.75,23.1 -6,24.05 q -0.4,-0.75 -1.1,-1.2 -0.8,-0.55 -1.65,-0.55 -0.9,-0.05 -1.7,0.45 -0.8,0.5 -1.2,1.3 -0.4,0.85 -0.2,1.8 l -3.9,-0.35 -2.05,-0.8 q -1.1,-0.65 -1.5,-1.65 -0.55,-1.2 0,-2.9 0.55,-1.65 1.6,-2.25 m -12.05,-23.75 0.2,-0.85 q 0.85,-3.1 3.65,-6.95 2.3,-3.25 4.6,-4.95 3.05,-2.3 6.3,-2.3 l 0.95,0.1 q 0.15,0.55 0.05,1.3 -0.2,1.35 -1.55,2.4 l -2.4,1.75 -1.65,1.45 -3,4.1 q -1.75,2.55 -3.4,3.55 -1.2,0.7 -2.25,0.75 -0.85,0 -1.5,-0.35"
         fill="#ffffff"
         fill-rule="evenodd"
         stroke="none"
         id="path2" />
      <path
         d="m 31.15,-26.3 0.7,1.35 q 1.3,2.8 1.65,4.65 0.5,2.7 -0.5,4.85 l -1.15,1.7 -1.35,1.55 q -1.65,2.1 -2.8,5.2 l -0.4,-1.15 0.7,-0.8 0.55,-1.25 0.7,-1.1 0.55,-1.55 Q 30.25,-15.5 29.75,-18 l -0.5,-1.45 -1.2,-1.15 -1.25,-1.15 -2.05,-0.75 -2.45,-0.4 q -2.15,-0.05 -5.1,1.05 l -1.35,0.65 -1.4,-0.45 q 0.4,-1.2 0.45,-2.45 v -0.35 l 0.6,-0.4 1.95,-1.55 0.1,0.5 q 0.25,1.2 1.2,1.7 l 2.15,0.15 2.2,-0.55 2,-0.25 2,-0.1 q 2.45,-0.1 3.75,-1.1 l 0.3,-0.25 m -31,-9.9 0.65,1.15 q -1.55,0.5 -3.05,1.5 -2.95,2 -3.8,4.95 l -0.55,3.1 v 0.55 l -2.95,-0.9 -1.4,-0.4 -0.05,-1 -0.5,-2.25 -0.2,-1.55 q 0.35,0.35 0.95,0.55 1.15,0.35 3.1,-0.5 3.65,-1.55 5.45,-2.75 1.85,-1.15 2.35,-2.45 m -0.65,9.6 q -0.1,1 0.6,1.85 0.45,0.55 1.2,0.75 0.7,0.25 1.4,0 0.8,-0.3 2.05,-1.55 L 6,-26.8 q 0.65,-0.75 0.9,-1.45 l 0.05,-0.05 q 0.65,0.6 1.3,2.2 0.55,1.5 0.4,2.2 -0.15,0.95 -1.05,1.75 -1.85,1.9 -4.3,1.8 -1.25,-0.1 -2.3,-0.7 -1.1,-0.65 -1.6,-1.7 -0.6,-1.15 -0.35,-2.5 l 0.45,-1.35 m 19.25,15.25 -0.35,-0.3 -1.45,-1.05 -1.4,-0.65 q -1.4,-0.3 -2.55,0.65 -1.1,1 -0.95,2.4 l 0.2,1.35 -0.05,1.15 -0.05,1.15 q -1.95,-3.9 -6.1,-7.6 l 1.5,-0.35 q 1.15,-0.35 2.65,-1.45 l 2.1,0.3 q 3.75,0.75 6.45,4.4 m -5,10.5 0.65,0.75 1.8,1.1 2.85,0.35 q 1.6,-0.25 2.45,-1.4 0.6,-0.75 1,-2.55 l 0.05,-0.15 0.65,3.25 q 0.2,4.1 -2.8,7.6 -2.5,2.85 -6.9,4.55 L 11.3,13.4 Q 10,13.85 9.2,14.35 7.75,15.1 6.5,16.6 L 5.15,18 Q 3.9,18.6 1.7,17.25 2.1,14.3 5.6,11.75 6.55,11.1 8.45,9.8 10.15,8.65 11.1,7.55 13.15,5.25 13.65,1.8 l 0.1,-2.65 M 7.75,1 7.45,2 6.55,1.5 4.2,1.4 -0.1,1.85 Q -1.95,2.4 -4.25,3.9 -6.05,4.95 -7,6.05 -8.45,4.25 -10.45,2.8 l -2,-1.4 -0.25,-0.2 1.3,-0.7 1.95,-0.6 q 0.55,-0.15 1,-0.4 0.75,0.7 1.55,1.05 l 2.55,0.6 1.25,0.15 1.25,-0.05 q 1.2,-0.2 2.65,-1.35 l 1.65,-1.75 0.7,-1.5 0.8,-0.1 2.3,-0.35 h 0.2 l 0.75,2 Q 7.9,0 7.75,1 m 17.4,11 0.35,0.55 q 0.75,0.95 2,0.85 h 0.1 q -0.8,3.2 -0.6,4.65 0.25,1.15 0.1,1.6 l -1,1.35 q -6.55,5.75 -16.1,10.55 -3.25,1.6 -5.2,2 L -2,33.25 Q -13.15,31 -19.25,24.75 L -20.45,23 q -0.3,-0.75 -0.2,-2.35 l 0.2,-3.85 q 0,-1.35 0.6,-1.9 l 0.5,-0.3 0.45,1.3 1.2,2 q -1.05,0.6 -1.6,2.25 -0.55,1.7 0,2.9 0.4,1 1.5,1.65 l 2.05,0.8 3.9,0.35 0.05,0.35 q 0.3,1.15 1.25,1.75 0.9,0.65 2.1,0.5 1.15,-0.1 1.9,-0.95 0.6,-0.65 0.75,-1.55 Q -5.6,25 -5.95,24.2 L -6,24.05 -4.75,23.1 -3.8,22.25 -3.25,21.55 -2,22.6 q 1.4,0.9 4.25,1.65 Q 6.7,25.4 8.7,23.6 l 1.2,-1.4 1.15,-1.4 q 0.85,-0.8 3.6,-1.75 6.3,-2.35 10.1,-6.6 L 25.15,12 m -9.6,9.3 q -0.65,1.75 0.45,3.1 0.65,0.75 1.65,1 L 19.6,25.25 Q 20.5,24.85 21,23.9 21.5,23 21.35,22 21.2,21 20.45,20.3 19.7,19.55 18.7,19.45 q -0.95,-0.1 -1.85,0.4 -0.9,0.55 -1.3,1.45 M 2.1,30.05 Q 2.65,30.9 3.65,31.3 L 5.6,31.35 Q 6.55,31 7.1,30.05 7.65,29.1 7.45,28.1 7.3,27.1 6.45,26.4 5.6,25.7 4.6,25.7 q -1,0.05 -1.85,0.75 -0.8,0.7 -1,1.7 -0.15,1 0.35,1.9 m -31.85,-35.9 q 0.65,0.35 1.5,0.35 1.05,-0.05 2.25,-0.75 1.65,-1 3.4,-3.55 l 3,-4.1 1.65,-1.45 2.4,-1.75 q 1.35,-1.05 1.55,-2.4 0.1,-0.75 -0.05,-1.3 l 4,0.85 q 2.6,0.7 4.3,0.65 0.7,1.3 1.9,2.45 l 1.55,1.25 -0.45,0.2 -5.2,0.35 q -3.75,-0.35 -5.3,0 -2.8,0.6 -5.9,3.7 -1.8,1.7 -2.45,3.15 -0.85,1.7 -0.85,4.6 0.1,2.25 0.55,3.5 0.65,1.9 2.4,3.7 l 3.5,2.9 q 2.3,1.7 3.45,2.95 1.7,1.85 2.2,3.8 l 0.45,2.1 -1.15,-0.4 q -1.25,-0.65 -1.85,-1.8 l -0.85,-2 Q -14.8,9 -18,7.8 -18.85,7.45 -20.65,7 L -23.3,6.2 q -4.2,-1.65 -5.85,-5.15 -1.5,-3.1 -0.6,-6.9 m 24.9,1 q -0.1,-2.6 -0.9,-4.3 2.05,-0.05 3.85,-0.7 l 0.15,1.55 -0.2,2.35 q -0.1,0.7 -0.3,0.95 -0.35,0.55 -1.25,0.45 l -1.35,-0.3"
         fill="#bbb57d"
         fill-rule="evenodd"
         stroke="none"
         id="path3" />
    </g>
    <g
       id="sprite1"
       transform="translate(17.4,15.85)">
      <use
         ffdec:characterId="31"
         height="57.200001"
         transform="matrix(0.5366,0,0,0.5366,-16.6582,-14.546)"
         width="70.75"
         xlink:href="#sprite2"
         id="use3" />
    </g>
    <g
       id="sprite2"
       transform="translate(-8.65,-10.35)">
      <use
         ffdec:characterId="30"
         height="57.200001"
         transform="translate(8.65,10.35)"
         width="70.75"
         xlink:href="#shape1"
         id="use4" />
    </g>
    <g
       id="shape1"
       transform="translate(-8.65,-10.35)">
      <path
         d="m 14.8,41.7 q 0.65,-1.75 2.65,-2.5 1.8,-0.8 3.7,-0.25 1.15,0.45 2.25,1.2 l 0.9,0.4 q 1.65,0.9 2.85,2.5 L 37.8,30.1 q 2.35,-2.8 3.75,-3.95 1.5,-1.15 4.25,-2.4 18.2,-8.85 27.65,-12.6 2.15,-0.8 3.25,-0.8 h 0.8 l 1.9,2.4 -0.2,0.8 q -0.2,1.1 -1.55,3 -5.85,8.25 -18.85,23.8 -1.85,2.35 -3.35,3.5 -1.4,1.15 -4.75,2.75 l -15.15,7.15 q 1.2,1.6 1.75,3.4 l 0.2,1 0.55,2.5 q 0.1,1.95 -1.1,3.55 -1.2,1.65 -3.05,1.9 l -1.3,0.05 q -1.65,0.2 -3.45,-0.65 -1.85,-0.9 -3,-2.6 L 25,60.95 23.8,62.1 q -2.6,2.85 -4.3,3.95 -2.85,1.8 -5.5,1.45 l -1.65,-0.5 -1.2,-0.7 -0.2,-0.2 q -1,-0.85 -1.6,-1.9 L 9.25,64 9.15,63.8 8.75,62.4 q -0.2,-0.8 -0.05,-1.7 0.25,-2.65 2.7,-5.05 1.5,-1.3 4.9,-3.15 L 17.7,51.55 16.05,50 q -1.35,-1.5 -1.8,-3.6 -0.4,-1.85 0.25,-3.45 l 0.3,-1.25"
         fill="#000000"
         fill-opacity="0.372549"
         fill-rule="evenodd"
         stroke="none"
         id="path4" />
    </g>
  </defs>
</svg>
