<?xml version="1.0" encoding="UTF-8" standalone="no"?>
<svg
   ffdec:objectType="frame"
   height="81.246208"
   width="82.083275"
   version="1.1"
   id="svg4"
   sodipodi:docname="ITEM Tire.svg"
   xmlns:inkscape="http://www.inkscape.org/namespaces/inkscape"
   xmlns:sodipodi="http://sodipodi.sourceforge.net/DTD/sodipodi-0.dtd"
   xmlns:xlink="http://www.w3.org/1999/xlink"
   xmlns="http://www.w3.org/2000/svg"
   xmlns:svg="http://www.w3.org/2000/svg"
   xmlns:ffdec="https://www.free-decompiler.com/flash">
  <sodipodi:namedview
     id="namedview4"
     pagecolor="#ffffff"
     bordercolor="#000000"
     borderopacity="0.25"
     inkscape:showpageshadow="2"
     inkscape:pageopacity="0.0"
     inkscape:pagecheckerboard="0"
     inkscape:deskcolor="#d1d1d1"
     fit-margin-top="5"
     fit-margin-left="5"
     fit-margin-right="5"
     fit-margin-bottom="5" />
  <g
     transform="translate(41.947561,40.582)"
     id="g1">
    <use
       ffdec:characterId="17"
       height="119.15"
       id="rarity"
       transform="translate(-58.5,-60.65)"
       width="119.15"
       xlink:href="#sprite0" />
    <use
       ffdec:characterId="722"
       height="81.25"
       transform="translate(-41.95,-40.6)"
       width="82.099998"
       xlink:href="#shape0"
       id="use1" />
  </g>
  <defs
     id="defs4">
    <g
       id="shape0"
       transform="translate(42.5,41.35)">
      <path
         d="m -15.15,-5.3 0.4,-2.15 1.25,-4.5 q 2.45,-6.9 7.5,-12.4 3.85,-4.15 8.7,-6.4 4.2,-1.95 9.15,-2.4 l 0.5,-0.1 q 5.1,-0.45 9.55,1.75 l 1.05,0.45 Q 19.1,-33.7 13.9,-34.3 l -8.2,-0.9 -3.1,-0.2 q -0.2,1.2 -1.15,2.25 l -1.25,1.3 q -0.8,1.45 -1.8,2.6 -1.75,1.9 -4.1,2.95 l -0.8,0.3 q -1.05,0.35 -1.95,-0.2 l -0.25,-0.45 -0.1,-0.8 0.05,-0.2 q 4.65,-2.65 7.25,-7.7 l 0.2,-0.3 -2.75,0.2 q -2.65,4.1 -6.85,6.4 l -0.35,0.5 q -1.05,0.6 -2.15,0.2 l -0.6,-0.4 -0.35,-0.6 v -1 l 0.65,-1.05 q 0.35,-1.6 1.6,-2.5 l -3.1,0.95 q 0.2,0.75 -0.25,1.55 l -0.95,1.35 -0.1,0.85 q -0.1,0.65 -0.5,1.2 l -0.3,0.15 -0.4,0.2 -0.5,-0.2 -0.25,-0.15 q -0.55,-0.6 -0.6,-1.4 l -0.05,-1.45 0.35,-0.7 q -0.95,0.45 -1.8,1.1 l -1.35,1.15 q -6.8,6.6 -10.65,15 -1.3,2.7 -2.25,5.7 l -0.95,4.1 q -1.1,4.8 -1.15,9.8 l 0.05,5.7 0.35,1 0.15,0.85 v 0.6 l 0.15,1.05 q 0.25,0.65 0.2,1.45 0.85,3.1 2.5,5.7 l 0.05,-0.2 0.4,-1.85 0.95,-1.75 0.85,-0.9 0.5,-0.1 V 16.8 l 0.75,0.35 0.2,0.2 0.1,0.2 V 18 18.15 l -0.1,0.4 -0.4,0.65 -0.25,1.85 -0.3,1.2 0.75,1.7 0.3,0.95 0.75,1.6 q 2.6,2.15 5.4,3.8 v -0.35 l 0.1,-0.55 0.45,-0.9 0.35,-0.1 0.6,-0.25 0.55,0.15 q 2.75,1.95 3.25,4.5 l 3,0.95 q -0.1,-0.85 -0.35,-1.65 -0.4,-1.35 -1.3,-2.5 -0.05,-0.7 -0.5,-1.2 -0.5,-0.55 -0.3,-1.2 l 0.25,-0.4 0.2,-0.25 0.2,-0.15 0.55,-0.05 V 26.3 l 1.05,0.1 0.3,0.2 q 2.9,2.65 3.65,6.4 l 0.1,1.55 12.95,-0.5 0.2,-0.2 0.15,-0.15 q 4.2,-0.15 8.05,-1.15 -8.55,0.4 -16.1,-4.9 -2.9,-2.05 -5.1,-4.85 -5,-6.5 -4.45,-14.75 -0.55,-2.55 -0.4,-5.3 l 0.95,-8.05 m -18.1,-0.3 0.4,-3.6 q 0.3,-2 1.6,-3.55 l 0.4,-0.2 0.55,-0.2 2,0.2 q 0.5,0 0.8,0.4 l 0.1,0.25 0.05,0.2 v 0.2 l -0.6,0.8 -0.65,0.4 -0.1,0.05 q -0.5,1.1 -0.5,2.4 -0.05,1.2 -0.4,2.3 l -0.05,3.05 q 0,1.35 -0.85,2.25 l -0.2,0.2 -1.85,0.15 q -1,-0.55 -1.15,-1.65 -0.1,-0.75 0.35,-1.45 l 0.1,-2.2 M -21.6,0.25 V -0.1 l 0.1,-0.6 v -0.25 l 0.15,-0.2 0.25,-0.2 0.25,-0.15 0.25,-1.2 0.25,-1.3 -0.1,-1.55 -0.05,-0.7 0.25,-1.6 0.15,-0.25 0.45,-0.4 0.2,-0.1 0.2,-0.05 0.45,-0.05 v -0.05 l 0.45,0.2 0.4,0.15 0.3,0.15 q 0.8,2.75 0.15,5.45 l -0.65,1.7 q -0.6,1.35 -1.95,2.05 L -21.3,0.7 -21.6,0.3 V 0.25 m 55.2,7.6 q 0.6,-4.7 0.8,-9.45 0.55,-11.05 -4.4,-20.6 l -0.15,-0.15 -3.6,-3.65 -0.3,-0.1 -0.5,-0.2 -0.35,-0.25 -5.25,-1.5 q -9.3,-2.3 -17.45,2.95 -5.9,3.75 -9.3,10.1 -2.3,4.45 -3.5,9.4 l -0.05,0.6 -0.3,2.25 -0.15,2.25 q 0.05,0.85 -0.35,1.6 0,6.35 1.05,12.45 l 0.85,2.7 q 2.85,6.5 9.25,9.75 7.45,3.75 15.65,1.45 6.15,-1.65 11.15,-5.65 0.85,-1.4 2.05,-2.5 l 1.65,-1.45 q 2.45,-4.5 3.2,-10 M -1.8,-41.3 q 12.95,-0.4 24.8,4.2 5.4,2.05 8.6,7.05 3.95,6.15 6.2,13.1 0.95,2.55 1.25,5.35 0.75,5.65 0.45,11.4 -0.2,3.95 -1.2,7.6 -0.45,4.15 -1.85,8.1 -4,11.65 -15.1,17.35 Q 11.4,37.95 0.25,39.5 -9.8,40.85 -19.25,37.8 -31.5,33.85 -38.8,23.2 L -40,20.8 q -3.2,-9.4 -2.3,-19.7 0.45,-5.55 2.3,-10.8 l 3.05,-7.95 q 4.5,-11 14.15,-18 5.35,-3.9 12,-4.65 l 9,-1 m 13.6,18.6 q -5.95,1.2 -9.75,5.9 -1.15,1.35 -1.95,3 -1.55,1.3 -2.2,3.2 L -4,-6.25 q 0.05,0.45 -0.05,0.8 l -0.25,0.85 -0.2,0.4 v 0.65 l -0.05,0.35 q 0,0.4 -0.25,0.65 v 0.6 0.2 l -0.15,0.4 -0.05,0.2 0.05,1.45 v 1.25 l -0.2,1 v 1.65 1.65 1.4 q 0.25,4.95 3.15,8.8 2.7,3.55 6.8,5.45 8.6,2.65 16.2,-1.35 l 0.65,-0.2 0.35,-0.25 0.3,-0.4 1.2,-0.85 0.3,-0.35 Q 26.2,16.45 27.75,14 L 29.8,9.95 q 0,-1 0.25,-1.85 L 30.3,6.25 Q 30.25,5.75 30.35,5.2 L 30.5,5 30.65,4.8 V 4.2 L 30.7,3.95 30.8,3.6 30.85,3.4 v -2.9 -3.7 -1 L 30.7,-4.8 30.6,-5 30.35,-5.45 30.3,-5.85 30.25,-6.25 v -0.4 l -0.45,-1.4 v -1.3 -0.8 q -1.55,-9.3 -11,-11.7 l -7,-0.85 m -3.1,14.35 -0.45,0.5 -0.5,1 Q 7.4,-6.4 7.2,-5.8 l -0.6,1 Q 4.75,0.65 7.15,4.65 L 8.45,1.8 8.9,0.55 9.3,-0.7 9.35,-3.2 9.4,-5.6 Q 9.2,-5.9 9.15,-6.25 L 9.2,-7.05 9.25,-7.3 9.1,-7.65 9.05,-8.1 9,-8.6 8.7,-8.35 m -6.85,5.5 q 0.6,-2.75 2.2,-5.45 3.3,-5.6 9.85,-6.5 8.55,0.5 11.5,8.25 l 0.3,0.75 Q 28.35,2.35 23.05,9.1 21,11.75 18.5,13 15.75,14.3 12.45,13.95 L 9.05,13.1 Q 7.2,12.45 5.8,11.25 4.05,9.8 3.05,7.4 L 2,5.35 1.55,3 Q 1.3,1.05 1.5,-0.8 l 0.35,-2.05 m 8.9,11.3 Q 11.3,8.9 12,9.05 l 1.85,-3.3 1.5,-3.75 0.2,-2.7 0.25,-3.65 Q 15.4,-6.5 14.5,-8.65 14.25,-9.5 14.3,-10.1 l -2.5,0.5 q 2.05,2.95 1.6,7.25 L 13,0.7 q -0.65,4.1 -3.2,7 l 0.95,0.75 m 0.5,-33.85 q 5.2,-0.2 10.15,1.45 l 3.1,1.05 0.15,0.2 1.05,0.85 1.25,1 1,0.85 q 1.35,1.4 2.2,3.3 1.6,3.55 2.05,7.5 l 0.25,2.85 q 0.4,0.75 0.4,1.5 l 0.35,4.65 q 0.05,2.45 -0.4,4.75 v 0.2 0.4 l -0.1,0.4 -0.1,0.2 -0.15,0.2 -0.05,1.45 q -0.25,2.45 -1,4.7 -0.75,2.2 -2.2,3.9 l -1.05,1.65 q -2.8,2.8 -6.2,4.7 -0.65,0.4 -1.15,0.95 l -0.25,0.05 -1.25,0.4 q -0.8,0.2 -1.55,0.65 l -0.2,0.1 Q 9.15,26.4 1.7,22.55 0.8,22.1 -0.2,21.8 l -1.05,-1.05 -2.85,-3.2 -2.25,-2.9 Q -6.6,13.25 -7,11.95 -7.85,8.7 -7.95,5.2 q 0,-2.1 0.45,-4.1 0,-7.15 3.4,-13.4 5.15,-9.65 15.35,-13.1 m -34.75,-0.8 1,0.35 h 0.05 l 0.3,0.15 0.1,0.25 0.2,0.4 0.1,0.4 q -1.15,2.9 -2.95,5.55 -0.8,1.15 -1.05,2.4 l 1.3,1 q 0.4,0.2 0.5,0.65 v 0.25 l -0.1,0.35 -0.3,0.35 -0.1,0.05 q -0.1,0.1 -0.2,0.1 l -0.6,0.15 -1.1,-0.3 -0.65,-0.25 -0.3,-0.25 -0.2,-0.15 -0.15,-0.15 h -0.05 l -0.4,-0.15 q -1.05,-0.7 -1,-2.05 0.05,-0.8 0.65,-1.45 l 0.9,-2.5 1.15,-1.35 0.9,-2.1 1.05,-1.4 0.4,-0.1 0.55,-0.15 v -0.05 m 3.45,10.5 -1.5,0.05 q -1.6,-1.1 -1,-3 l 0.9,-1.45 0.25,-0.75 q 0.6,-1.1 0.9,-2.3 l 1.05,-1.05 q 0.55,-0.5 1.25,-0.55 l 0.75,0.1 0.3,-0.15 q 0.75,-0.15 1.35,0.3 l 0.4,0.25 q 0.95,1.2 0.15,2.55 -0.4,0.75 -1.15,1.15 l -0.6,1.05 q -1.15,2.15 -3.05,3.8 m -5.35,4.75 q 3.85,1.35 2.1,5.65 l -0.5,1.45 -0.35,1.05 q -0.8,2.85 -2.5,1.85 l -1.25,-0.1 -0.55,-0.4 -0.4,-0.65 Q -28.7,-4.25 -28,-6.25 V -6.3 l 0.15,-0.7 0.1,-0.4 q -0.15,-1.1 0.25,-2.1 0.4,-0.95 1.4,-1.3 l 0.25,-0.05 0.45,-0.05 v -0.05 m 14.25,-12.6 0.8,0.15 0.4,0.2 0.45,0.6 0.15,0.7 v 0.1 q -2.15,4.4 -5,8.65 -0.95,1.5 -2.15,2.75 l -0.65,0.05 h -0.15 l -0.65,-0.05 -0.85,-0.55 -0.75,-0.5 -0.25,-0.6 0.05,-1.2 0.2,-0.25 0.1,-0.1 0.15,-0.05 0.25,-0.05 0.35,0.1 0.3,0.15 0.2,0.05 0.4,-0.55 q 0.3,-0.4 0.35,-0.85 l 3.9,-6.1 1.45,-2.3 0.95,-0.35 M -20.7,1.9 q 0.65,0 1.2,0.4 l 0.55,0.4 q 0.8,2.3 0.45,4.75 -0.2,1.35 -0.75,2.6 0.15,4.55 -4.25,5.3 -0.95,0.15 -1.45,-0.65 L -25,14.25 V 13.9 l 0.05,-0.45 1.4,-1.05 0.85,-0.4 q 0.6,-2.15 0.55,-4.45 0,-1.45 0.5,-2.7 l -0.2,-0.35 -0.3,-0.7 -0.1,-0.35 0.2,-0.65 q 0.2,-0.45 0.7,-0.75 L -21.15,2 -20.7,1.95 V 1.9 m -7.05,1.4 0.55,0.15 0.4,0.2 0.15,0.25 h 0.1 l 0.8,0.3 q 0.9,1.45 0.85,3.25 -0.05,1.4 -0.7,2.5 L -25.75,10 q -0.4,1.25 -1.15,2.4 -0.5,0.7 -1.2,0.2 -1.6,-1.1 -2,-3.1 -0.45,-1.45 0.1,-3.2 l 0.25,-0.55 0.6,-1.5 0.75,-0.8 0.25,-0.05 0.4,-0.05 V 3.3 M -33,1.55 l 0.4,0.05 0.4,0.15 0.1,0.15 0.15,0.45 0.1,0.4 0.05,2.25 q 0.05,0.8 -0.3,1.45 l -0.05,3.65 -0.05,2.05 q 0.35,0.7 1.1,0.9 l 0.35,0.1 0.65,0.85 0.3,0.65 v 0.2 l -0.2,0.35 -0.2,0.25 -0.25,0.1 -0.45,0.15 -0.35,0.1 q -0.6,-0.05 -1.15,-0.4 l -0.45,-0.25 -0.3,-0.15 -0.15,-0.15 -1.2,-0.8 -0.25,-0.15 Q -35,10.55 -34.9,7.1 l 0.15,-2.85 -0.1,-0.2 -0.1,-0.4 -0.1,-0.4 L -35,3 -34.85,2.65 -34.75,2.2 Q -34,1.5 -33,1.6 V 1.55 m 11.7,14.7 q 5.15,1.55 4.65,6.9 -0.15,1.5 -1.5,2.35 l -0.65,0.1 -0.9,-0.1 -0.55,-0.35 -0.45,-0.85 -0.1,-0.4 0.1,-0.4 0.2,-0.8 0.15,-0.65 q -0.15,-0.95 -0.85,-1.7 l -1.8,-2 0.15,-1 q 0.45,-1.05 1.55,-1.1 m -4.9,0.4 q 3.3,1.65 3.2,5.85 -0.1,2.4 -2.4,2.55 -1.55,0.1 -2.3,-1.35 -2.15,-3.9 0.75,-6.65 0.3,-0.35 0.75,-0.4"
         fill="#000000"
         fill-rule="evenodd"
         stroke="none"
         id="path1" />
      <path
         d="m -32.55,-14.3 q 3.85,-8.4 10.65,-15 l 1.35,-1.15 q 0.85,-0.65 1.8,-1.1 l -0.35,0.7 0.05,1.45 q 0.05,0.8 0.6,1.4 l 0.25,0.15 0.5,0.2 0.4,-0.2 0.3,-0.15 q 0.4,-0.55 0.5,-1.2 l 0.1,-0.85 0.95,-1.35 q 0.45,-0.8 0.25,-1.55 l 3.1,-0.95 q -1.25,0.9 -1.6,2.5 l -0.65,1.05 v 1 l 0.35,0.6 0.6,0.4 q 1.1,0.4 2.15,-0.2 l 0.35,-0.5 q 4.2,-2.3 6.85,-6.4 l 2.75,-0.2 -0.2,0.3 q -2.6,5.05 -7.25,7.7 l -0.05,0.2 0.1,0.8 0.25,0.45 q 0.9,0.55 1.95,0.2 l 0.8,-0.3 q 2.35,-1.05 4.1,-2.95 1,-1.15 1.8,-2.6 l 1.25,-1.3 Q 2.4,-34.2 2.6,-35.4 l 3.1,0.2 8.2,0.9 q 5.2,0.6 9.05,3.25 L 21.9,-31.5 q -4.45,-2.2 -9.55,-1.75 l -0.5,0.1 q -4.95,0.45 -9.15,2.4 -4.85,2.25 -8.7,6.4 -5.05,5.5 -7.5,12.4 l -1.25,4.5 -0.4,2.15 -2.35,2.5 q 0.65,-2.7 -0.15,-5.45 l -0.3,-0.15 -0.4,-0.15 -0.45,-0.2 v 0.05 l -0.45,0.05 -0.2,0.05 -0.2,0.1 -0.45,0.4 -0.15,0.25 -0.25,1.6 0.05,0.7 0.1,1.55 -0.25,1.3 -0.25,1.2 -0.25,0.15 -0.25,0.2 -0.15,0.2 v 0.25 l -0.1,0.6 v 0.35 q -2.05,1.25 -4.55,0.8 -2.65,-0.45 -4.35,-1.7 0.85,-0.9 0.85,-2.25 l 0.05,-3.05 q 0.35,-1.1 0.4,-2.3 0,-1.3 0.5,-2.4 l 0.1,-0.05 0.65,-0.4 0.6,-0.8 v -0.2 l -0.05,-0.2 -0.1,-0.25 q -0.3,-0.4 -0.8,-0.4 l -2,-0.2 -0.55,0.2 -0.4,0.2 q -1.3,1.55 -1.6,3.55 l -0.4,3.6 -0.15,-1.6 q -0.05,-3.7 0.85,-7.1 m 57.95,7.75 q 3.2,2.95 2.7,8.05 -0.4,4.55 -2.15,8.85 -2,5.05 -6.85,7.35 -4.25,1.95 -8.8,0.45 Q 1.6,15.3 0.1,6.6 L 0.05,5.55 q -0.6,-3.05 0.7,-6.4 0.4,-1.1 1.1,-2 L 1.5,-0.8 Q 1.3,1.05 1.55,3 L 2,5.35 3.05,7.4 q 1,2.4 2.75,3.85 1.4,1.2 3.25,1.85 l 3.4,0.85 q 3,0.45 6,-0.9 L 18.5,13 Q 21,11.75 23.05,9.1 28.35,2.35 25.7,-5.8 l -0.3,-0.75 m -45.45,-9.15 q 1.9,-1.65 3.05,-3.8 l 0.6,-1.05 q 0.75,-0.4 1.15,-1.15 0.8,-1.35 -0.15,-2.55 l -0.4,-0.25 q -0.6,-0.45 -1.35,-0.3 l -0.3,0.15 -0.75,-0.1 q -0.7,0.05 -1.25,0.55 l -1.05,1.05 q -0.3,1.2 -0.9,2.3 l -0.25,0.75 -0.9,1.45 q -0.6,1.9 1,3 l 1.5,-0.05 m -3.45,-10.5 v 0.05 l -0.55,0.15 -0.4,0.1 -1.05,1.4 -0.9,2.1 -1.15,1.35 -0.9,2.5 q -0.6,0.65 -0.65,1.45 -0.05,1.35 1,2.05 l 0.4,0.15 h 0.05 l 0.15,0.15 0.2,0.15 0.3,0.25 0.65,0.25 1.1,0.3 0.6,-0.15 q 0.1,0 0.2,-0.1 l 0.1,-0.05 0.3,-0.35 0.1,-0.35 v -0.25 q -0.1,-0.45 -0.5,-0.65 l -1.3,-1 q 0.25,-1.25 1.05,-2.4 1.8,-2.65 2.95,-5.55 l -0.1,-0.4 -0.2,-0.4 -0.1,-0.25 -0.3,-0.15 h -0.05 l -1,-0.35 m 12.35,2.65 -0.95,0.35 -1.45,2.3 -3.9,6.1 q -0.05,0.45 -0.35,0.85 l -0.4,0.55 -0.2,-0.05 -0.3,-0.15 -0.35,-0.1 -0.25,0.05 -0.15,0.05 -0.1,0.1 -0.2,0.25 -0.05,1.2 0.25,0.6 0.75,0.5 0.85,0.55 0.65,0.05 h 0.15 l 0.65,-0.05 q 1.2,-1.25 2.15,-2.75 2.85,-4.25 5,-8.65 v -0.1 l -0.15,-0.7 -0.45,-0.6 -0.4,-0.2 -0.8,-0.15 m -14.25,12.6 v 0.05 l -0.45,0.05 -0.25,0.05 q -1,0.35 -1.4,1.3 -0.4,1 -0.25,2.1 l -0.1,0.4 -0.15,0.7 v 0.05 q -0.7,2 -0.85,4.15 l 0.4,0.65 0.55,0.4 1.25,0.1 q 1.7,1 2.5,-1.85 l 0.35,-1.05 0.5,-1.45 q 1.75,-4.3 -2.1,-5.65"
         fill="#383838"
         fill-rule="evenodd"
         stroke="none"
         id="path2" />
      <path
         d="m -32.55,-14.3 q -0.9,3.4 -0.85,7.1 l 0.15,1.6 -0.1,2.2 q -0.45,0.7 -0.35,1.45 0.15,1.1 1.15,1.65 l 1.85,-0.15 0.2,-0.2 q 1.7,1.25 4.35,1.7 2.5,0.45 4.55,-0.8 V 0.3 l 0.3,0.4 1.2,0.25 q 1.35,-0.7 1.95,-2.05 l 0.65,-1.7 2.35,-2.5 -0.95,8.05 q -0.15,2.75 0.4,5.3 -0.55,8.25 4.45,14.75 2.2,2.8 5.1,4.85 7.55,5.3 16.1,4.9 -3.85,1 -8.05,1.15 l -0.15,0.15 -0.2,0.2 -12.95,0.5 -0.1,-1.55 q -0.75,-3.75 -3.65,-6.4 l -0.3,-0.2 -1.05,-0.1 v 0.05 l -0.55,0.05 -0.2,0.15 -0.2,0.25 -0.25,0.4 q -0.2,0.65 0.3,1.2 0.45,0.5 0.5,1.2 0.9,1.15 1.3,2.5 0.25,0.8 0.35,1.65 l -3,-0.95 q -0.5,-2.55 -3.25,-4.5 l -0.55,-0.15 -0.6,0.25 -0.35,0.1 -0.45,0.9 -0.1,0.55 v 0.35 q -2.8,-1.65 -5.4,-3.8 l -0.75,-1.6 -0.3,-0.95 -0.75,-1.7 0.3,-1.2 0.25,-1.85 0.4,-0.65 0.1,-0.4 V 18 17.55 l -0.1,-0.2 -0.2,-0.2 -0.75,-0.35 v 0.05 l -0.5,0.1 -0.85,0.9 -0.95,1.75 -0.4,1.85 -0.05,0.2 q -1.65,-2.6 -2.5,-5.7 0.05,-0.8 -0.2,-1.45 l -0.15,-1.05 v -0.6 L -36.5,12 -36.85,11 -36.9,5.3 q 0.05,-5 1.15,-9.8 l 0.95,-4.1 q 0.95,-3 2.25,-5.7 M 33.6,7.85 q -0.75,5.5 -3.2,10 l -1.65,1.45 q -1.2,1.1 -2.05,2.5 -5,4 -11.15,5.65 Q 7.35,29.75 -0.1,26 -6.5,22.75 -9.35,16.25 l -0.85,-2.7 q -1.05,-6.1 -1.05,-12.45 0.4,-0.75 0.35,-1.6 l 0.15,-2.25 0.3,-2.25 0.05,-0.6 q 1.2,-4.95 3.5,-9.4 3.4,-6.35 9.3,-10.1 8.15,-5.25 17.45,-2.95 l 5.25,1.5 0.35,0.25 0.5,0.2 0.3,0.1 3.6,3.65 0.15,0.15 q 4.95,9.55 4.4,20.6 -0.2,4.75 -0.8,9.45 m -21.8,-30.55 7,0.85 q 9.45,2.4 11,11.7 v 0.8 1.3 l 0.45,1.4 v 0.4 l 0.05,0.4 0.05,0.4 0.25,0.45 0.1,0.2 0.15,0.6 v 1 3.7 2.9 L 30.8,3.6 30.7,3.95 30.65,4.2 V 4.8 L 30.5,5 30.35,5.2 Q 30.25,5.75 30.3,6.25 L 30.05,8.1 Q 29.8,8.95 29.8,9.95 L 27.75,14 Q 26.2,16.45 23.8,18.1 L 23.5,18.45 22.3,19.3 22,19.7 21.65,19.95 21,20.15 Q 13.4,24.15 4.8,21.5 0.7,19.6 -2,16.05 -4.9,12.2 -5.15,7.25 V 5.85 4.2 2.55 l 0.2,-1 V 0.3 L -5,-1.15 l 0.05,-0.2 0.15,-0.4 v -0.2 -0.6 Q -4.55,-2.8 -4.55,-3.2 L -4.5,-3.55 V -4.2 l 0.2,-0.4 0.25,-0.85 q 0.1,-0.35 0.05,-0.8 l 1.9,-4.35 q 0.65,-1.9 2.2,-3.2 0.8,-1.65 1.95,-3 3.8,-4.7 9.75,-5.9 M 1.85,-2.85 q -0.7,0.9 -1.1,2 -1.3,3.35 -0.7,6.4 L 0.1,6.6 q 1.5,8.7 10.2,11.55 4.55,1.5 8.8,-0.45 4.85,-2.3 6.85,-7.35 1.75,-4.3 2.15,-8.85 0.5,-5.1 -2.7,-8.05 -2.95,-7.75 -11.5,-8.25 -6.55,0.9 -9.85,6.5 -1.6,2.7 -2.2,5.45 m 9.4,-22.55 q -10.2,3.45 -15.35,13.1 -3.4,6.25 -3.4,13.4 -0.45,2 -0.45,4.1 0.1,3.5 0.95,6.75 0.4,1.3 0.65,2.7 l 2.25,2.9 2.85,3.2 1.05,1.05 q 1,0.3 1.9,0.75 7.45,3.85 15.85,1.95 l 0.2,-0.1 q 0.75,-0.45 1.55,-0.65 l 1.25,-0.4 0.25,-0.05 q 0.5,-0.55 1.15,-0.95 3.4,-1.9 6.2,-4.7 L 29.2,16 q 1.45,-1.7 2.2,-3.9 0.75,-2.25 1,-4.7 l 0.05,-1.45 0.15,-0.2 0.1,-0.2 0.1,-0.4 v -0.4 -0.2 q 0.45,-2.3 0.4,-4.75 l -0.35,-4.65 q 0,-0.75 -0.4,-1.5 L 32.2,-9.2 q -0.45,-3.95 -2.05,-7.5 -0.85,-1.9 -2.2,-3.3 l -1,-0.85 -1.25,-1 -1.05,-0.85 -0.15,-0.2 -3.1,-1.05 Q 16.45,-25.6 11.25,-25.4 M 10.75,8.45 9.8,7.7 q 2.55,-2.9 3.2,-7 l 0.4,-3.05 q 0.45,-4.3 -1.6,-7.25 l 2.5,-0.5 q -0.05,0.6 0.2,1.45 0.9,2.15 1.3,4.3 L 15.55,-0.7 15.35,2 13.85,5.75 12,9.05 Q 11.3,8.9 10.75,8.45 m -36.95,8.2 q -0.45,0.05 -0.75,0.4 -2.9,2.75 -0.75,6.65 0.75,1.45 2.3,1.35 2.3,-0.15 2.4,-2.55 0.1,-4.2 -3.2,-5.85 m 4.9,-0.4 q -1.1,0.05 -1.55,1.1 l -0.15,1 1.8,2 q 0.7,0.75 0.85,1.7 l -0.15,0.65 -0.2,0.8 -0.1,0.4 0.1,0.4 0.45,0.85 0.55,0.35 0.9,0.1 0.65,-0.1 q 1.35,-0.85 1.5,-2.35 0.5,-5.35 -4.65,-6.9 M -33,1.55 V 1.6 q -1,-0.1 -1.75,0.6 L -34.85,2.65 -35,3 l -0.05,0.25 0.1,0.4 0.1,0.4 0.1,0.2 -0.15,2.85 q -0.1,3.45 0.15,6.8 l 0.25,0.15 1.2,0.8 0.15,0.15 0.3,0.15 0.45,0.25 q 0.55,0.35 1.15,0.4 l 0.35,-0.1 0.45,-0.15 0.25,-0.1 0.2,-0.25 0.2,-0.35 v -0.2 l -0.3,-0.65 -0.65,-0.85 -0.35,-0.1 q -0.75,-0.2 -1.1,-0.9 l 0.05,-2.05 0.05,-3.65 Q -31.75,5.8 -31.8,5 L -31.85,2.75 -31.95,2.35 -32.1,1.9 -32.2,1.75 -32.6,1.6 -33,1.55 m 5.25,1.75 v 0.05 l -0.4,0.05 -0.25,0.05 -0.75,0.8 -0.6,1.5 L -30,6.3 q -0.55,1.75 -0.1,3.2 0.4,2 2,3.1 0.7,0.5 1.2,-0.2 0.75,-1.15 1.15,-2.4 l 0.15,-0.05 q 0.65,-1.1 0.7,-2.5 0.05,-1.8 -0.85,-3.25 l -0.8,-0.3 h -0.1 L -26.8,3.65 -27.2,3.45 -27.75,3.3 m 7.05,-1.4 v 0.05 l -0.45,0.05 -0.2,0.05 q -0.5,0.3 -0.7,0.75 l -0.2,0.65 0.1,0.35 0.3,0.7 0.2,0.35 q -0.5,1.25 -0.5,2.7 0.05,2.3 -0.55,4.45 l -0.85,0.4 -1.4,1.05 -0.05,0.45 v 0.35 l 0.05,0.45 q 0.5,0.8 1.45,0.65 4.4,-0.75 4.25,-5.3 Q -18.7,8.8 -18.5,7.45 -18.15,5 -18.95,2.7 L -19.5,2.3 q -0.55,-0.4 -1.2,-0.4"
         fill="#252525"
         fill-rule="evenodd"
         stroke="none"
         id="path3" />
    </g>
    <g
       id="sprite1"
       transform="translate(17.4,15.85)">
      <use
         ffdec:characterId="31"
         height="57.200001"
         transform="matrix(0.5366,0,0,0.5366,-16.6582,-14.546)"
         width="70.75"
         xlink:href="#sprite2"
         id="use3" />
    </g>
    <g
       id="sprite2"
       transform="translate(-8.65,-10.35)">
      <use
         ffdec:characterId="30"
         height="57.200001"
         transform="translate(8.65,10.35)"
         width="70.75"
         xlink:href="#shape1"
         id="use4" />
    </g>
    <g
       id="shape1"
       transform="translate(-8.65,-10.35)">
      <path
         d="m 14.8,41.7 q 0.65,-1.75 2.65,-2.5 1.8,-0.8 3.7,-0.25 1.15,0.45 2.25,1.2 l 0.9,0.4 q 1.65,0.9 2.85,2.5 L 37.8,30.1 q 2.35,-2.8 3.75,-3.95 1.5,-1.15 4.25,-2.4 18.2,-8.85 27.65,-12.6 2.15,-0.8 3.25,-0.8 h 0.8 l 1.9,2.4 -0.2,0.8 q -0.2,1.1 -1.55,3 -5.85,8.25 -18.85,23.8 -1.85,2.35 -3.35,3.5 -1.4,1.15 -4.75,2.75 l -15.15,7.15 q 1.2,1.6 1.75,3.4 l 0.2,1 0.55,2.5 q 0.1,1.95 -1.1,3.55 -1.2,1.65 -3.05,1.9 l -1.3,0.05 q -1.65,0.2 -3.45,-0.65 -1.85,-0.9 -3,-2.6 L 25,60.95 23.8,62.1 q -2.6,2.85 -4.3,3.95 -2.85,1.8 -5.5,1.45 l -1.65,-0.5 -1.2,-0.7 -0.2,-0.2 q -1,-0.85 -1.6,-1.9 L 9.25,64 9.15,63.8 8.75,62.4 q -0.2,-0.8 -0.05,-1.7 0.25,-2.65 2.7,-5.05 1.5,-1.3 4.9,-3.15 L 17.7,51.55 16.05,50 q -1.35,-1.5 -1.8,-3.6 -0.4,-1.85 0.25,-3.45 l 0.3,-1.25"
         fill="#000000"
         fill-opacity="0.372549"
         fill-rule="evenodd"
         stroke="none"
         id="path4" />
    </g>
  </defs>
</svg>
