<?xml version="1.0" encoding="UTF-8" standalone="no"?>
<svg
   ffdec:objectType="frame"
   height="71.809456"
   width="90.246719"
   version="1.1"
   id="svg6"
   sodipodi:docname="ITEM Hybrid Mask.svg"
   xmlns:inkscape="http://www.inkscape.org/namespaces/inkscape"
   xmlns:sodipodi="http://sodipodi.sourceforge.net/DTD/sodipodi-0.dtd"
   xmlns:xlink="http://www.w3.org/1999/xlink"
   xmlns="http://www.w3.org/2000/svg"
   xmlns:svg="http://www.w3.org/2000/svg"
   xmlns:ffdec="https://www.free-decompiler.com/flash">
  <sodipodi:namedview
     id="namedview6"
     pagecolor="#ffffff"
     bordercolor="#000000"
     borderopacity="0.25"
     inkscape:showpageshadow="2"
     inkscape:pageopacity="0.0"
     inkscape:pagecheckerboard="0"
     inkscape:deskcolor="#d1d1d1"
     fit-margin-top="5"
     fit-margin-left="5"
     fit-margin-right="5"
     fit-margin-bottom="5" />
  <g
     transform="translate(47.352273,40.009459)"
     id="g1">
    <use
       ffdec:characterId="17"
       height="119.15"
       id="rarity"
       transform="translate(-58.5,-60.65)"
       width="119.15"
       xlink:href="#sprite0" />
    <use
       ffdec:characterId="1040"
       height="71.849998"
       transform="translate(-47.35,-40)"
       width="90.25"
       xlink:href="#shape0"
       id="use1" />
  </g>
  <defs
     id="defs6">
    <g
       id="shape0"
       transform="translate(94.15,41.35)">
      <path
         d="m -73.3,24 q -2.05,-0.1 -3.95,-1.5 -1.8,-1.35 -2.85,-3.3 -1.75,-3.55 -1.05,-8.6 0.6,-3.85 3.15,-9.2 -1.85,2.2 -4.2,3.45 -1.95,1.1 -4.05,1.25 -2.35,0.25 -4.3,-0.5 -1.8,-0.75 -2.6,-1.9 -1.05,-1.45 -1,-4.2 -0.05,-4.7 2.05,-9.4 1.95,-4.4 5.45,-8.05 2.55,-2.6 4.95,-3.8 2.6,-1.45 5.65,-1.7 l 5.8,0.6 q 3.05,0.9 6.85,3.85 3.5,-2.85 7.5,-4.1 7.35,-2.4 17.45,0.3 l 0.3,0.1 0.25,-0.7 q 2.65,-5.15 6.8,-9.3 4.25,-4.1 9.45,-6.7 3.2,-1.5 5.7,-1.85 3.25,-0.45 5.8,0.95 1.35,0.85 2.6,2.3 2.35,2.5 3.2,5.25 1,3.3 -0.25,6 -1.35,2.95 -4.9,4.55 -2.25,1.1 -6.55,1.95 l -4.65,0.95 q -1.9,0.4 -2.75,0.8 -1.3,0.5 -2.05,1.4 2.6,1.6 4.8,3.7 2.75,2.45 4.5,5.25 2.3,3.65 3.8,9.85 1.05,4.55 0.8,7.3 -0.5,5.05 -4.45,9.15 l -0.85,0.85 0.3,0.55 1.55,3.65 q 0.45,0.95 0.4,1.45 -0.1,0.6 -0.7,1.2 l -1.25,0.65 -1.75,0.7 -3.85,0.4 q -1.4,-0.15 -1.8,-0.7 l -0.35,-0.95 -0.55,-1.55 -0.25,-0.5 -0.55,0.3 q -2.6,1.4 -4.75,1.95 l -2,0.4 q -3.55,0.55 -6.4,0.05 l 0.05,0.35 q 0.15,1.65 -0.45,2.4 -0.35,0.5 -1.25,0.75 l -4.35,0.35 -1.8,-0.05 -0.95,-0.65 q -0.85,-0.7 -0.95,-1.25 V 27.8 L -57.2,27.4 -62,25.7 q -0.7,-0.25 -1.05,-0.5 L -64,27.75 q -0.55,1.7 -1.45,2.25 -0.75,0.5 -1.95,0.25 l -1.95,-0.8 -2.15,-1.1 q -1.15,-0.6 -1.7,-1.1 -0.8,-0.9 -0.7,-1.85 l 0.45,-0.9 0.4,-0.5 h -0.25 m 5.4,-38.8 1.65,-1.75 q -3.05,-1.4 -4.95,-1.85 l -5.4,-0.25 q -1.95,0.45 -4.05,1.95 -4.1,2.85 -6.55,7.3 -2.35,4.45 -2.55,9.4 l 0.15,1.1 q 0.3,0.65 1.35,0.95 1.95,0.65 4.25,-0.3 1.8,-0.75 3.45,-2.8 2.25,-2.6 3.4,-6.65 0.9,-2.95 1.45,-7.6 0.25,-1.85 1.35,-1.85 0.75,0.1 1.1,1.25 0.4,1.2 0.35,3.1 l 0.6,-0.05 2.7,0.2 1.7,-2.15 m -5.5,5.4 -1.3,4.45 3.25,-5.1 -1.05,0.15 -0.85,0.25 -0.05,0.25 M -58,5.25 -59.9,5.55 -62.05,5.3 Q -62.7,5.15 -63.75,4 l -0.8,-1 -0.2,-1.1 q -0.2,-1.5 0.2,-2.35 l 0.45,-0.8 q 1.4,-1.8 3.1,-2.5 L -57.1,-4 q 2.2,0.7 2.8,2.65 l 0.2,1.1 q 0.05,1.1 -0.15,1.8 l -0.65,1.3 -0.65,1 -0.95,0.7 -1.5,0.7 m 39.3,-7.9 -0.45,-0.85 q -2.8,-5.2 -8.45,-8.95 -4.15,-2.7 -9.9,-4.5 l -1.6,-0.5 q -9.15,-2.6 -15.2,-0.65 l -0.45,0.15 q -4.35,1.6 -8.15,5.75 -2.3,2.45 -5.95,8.1 -3.25,5.2 -4.7,8.45 L -73.7,4.8 q -2.05,4.65 -2.25,8.7 -0.25,3.75 1.8,5.1 0.4,0.35 1.2,0.6 l 1.3,0.4 q 0.55,0.2 0.95,0.55 l 1.4,-2.1 q 0.85,-1.2 1.55,-1.45 0.6,-0.15 1.8,0 l 2.65,0.45 q 1,0.25 1.6,0.6 0.75,0.5 0.8,1.65 0,0.75 -0.8,2.6 l -0.25,0.5 0.6,0.1 6.6,1.35 5.4,-0.2 0.85,-0.2 0.05,-1 -0.05,-1.4 0.1,-1.7 0.9,-0.75 1.3,-0.2 1.95,-0.1 1.2,-0.1 0.85,-0.4 1.15,0.05 0.9,0.65 q 0.3,0.4 0.4,1.15 l 0.15,1.35 0.2,0.85 0.1,1 1.9,-0.1 q 3.3,0.15 6.6,-0.8 l 2.4,-0.8 1.5,-0.45 0.2,-0.15 3.2,-1.9 q 1.85,-1.2 3,-2.15 3.35,-2.75 4.2,-5.9 0.6,-2.35 -0.15,-6.15 -0.85,-4.1 -2.25,-7.1 m -29.85,11.85 -0.95,0.45 -2,0.8 -1,0.4 -0.8,-0.25 -0.35,-0.75 0.2,-0.55 0.9,-0.9 q 1.15,-0.85 3.7,-2.15 l 3.75,-2.2 1.2,-0.7 -0.1,-0.5 -0.2,-3.25 0.05,-0.85 q 0.2,-0.4 0.75,-0.45 0.5,-0.05 0.85,0.3 l 0.7,1.25 0.55,1.05 0.65,1 q 0.25,0.45 0.35,0.95 h 1.1 l 2.25,0.65 2.35,0.85 2.2,0.6 0.8,0.05 0.4,0.1 0.3,0.15 q 0.3,0.3 0.3,0.75 -0.05,0.45 -0.4,0.7 l -0.85,0.2 -1.4,0.05 -1.55,-0.25 -0.45,-0.1 -1.05,-0.2 -2,-0.2 -2,-0.05 -1.45,0.05 -0.55,-0.05 q -0.4,0.3 -1.1,0.5 -2,1.15 -3.1,1.55 l -2.05,1 m 20.15,-29.7 q 2.75,-2.2 8.15,-3.3 l 4.3,-0.8 q 2.45,-0.55 4.2,-1.3 2.6,-1.05 3.2,-2.8 0.4,-1.25 -0.35,-3.25 -0.7,-1.85 -2.05,-3.1 -1.45,-1.4 -3.3,-1.65 l -3.15,0.5 q -5.45,1.6 -10.2,5.7 -4.25,3.7 -7.4,8.8 l 2.9,1.1 0.15,-0.4 1.25,-1.95 1.8,-2.35 1.25,-1.25 q 3.85,-3.65 7.35,-5.45 1.15,-0.5 1.75,-0.45 l 0.5,0.2 q 0.1,0.35 -0.2,0.55 l -0.65,0.1 q -0.6,0.15 -1.6,0.9 -1.95,1.45 -3.5,3 l -1.25,1.45 -1.45,2.3 q -1.3,2.15 -1.7,3.45 m -2.35,11.2 2.05,0.35 q 0.65,0.2 1.35,0.8 2.05,2 2.15,4.95 v 0.9 q -0.35,1.5 -2.05,2.25 l -3.1,0.45 -2.55,-0.25 q -1.3,-0.3 -2.15,-1.1 -0.8,-0.75 -1.15,-1.9 -0.3,-1.1 0,-2.1 l 0.5,-1.15 q 1,-1.9 2.25,-2.55 1.05,-0.65 2.7,-0.65 m 8.5,32.9 0.3,0.4 h 0.25 l 2.95,-0.55 -0.6,-1.2 -0.6,-1 q -1.3,0.8 -2.8,1.4 l 0.5,0.95 m -20.25,2.75 -0.25,-1.5 q -0.1,-1.95 -0.65,-4 l -1.65,0.15 0.2,5.4 2.35,-0.05 m -22.45,-5.9 -2.45,-0.2 q -1.6,1.95 -2.35,4.4 l -0.05,0.25 0.2,0.1 2.4,1.05 1.05,-2.8 1.2,-2.8"
         fill="#000000"
         fill-rule="evenodd"
         stroke="none"
         id="path1" />
      <path
         d="m -67.9,-14.8 -1.7,2.15 -2.7,-0.2 -0.6,0.05 q 0.05,-1.9 -0.35,-3.1 -0.35,-1.15 -1.1,-1.25 -1.1,0 -1.35,1.85 -0.55,4.65 -1.45,7.6 -1.15,4.05 -3.4,6.65 Q -82.2,1 -84,1.75 -86.3,2.7 -88.25,2.05 -89.3,1.75 -89.6,1.1 L -89.75,0 q 0.2,-4.95 2.55,-9.4 2.45,-4.45 6.55,-7.3 2.1,-1.5 4.05,-1.95 l 5.4,0.25 q 1.9,0.45 4.95,1.85 l -1.65,1.75 m 39.5,-5.7 q 0.4,-1.3 1.7,-3.45 l 1.45,-2.3 1.25,-1.45 q 1.55,-1.55 3.5,-3 1,-0.75 1.6,-0.9 l 0.65,-0.1 q 0.3,-0.2 0.2,-0.55 l -0.5,-0.2 q -0.6,-0.05 -1.75,0.45 -3.5,1.8 -7.35,5.45 l -1.25,1.25 -1.8,2.35 -1.25,1.95 -0.15,0.4 -2.9,-1.1 q 3.15,-5.1 7.4,-8.8 4.75,-4.1 10.2,-5.7 l 3.15,-0.5 q 1.85,0.25 3.3,1.65 1.35,1.25 2.05,3.1 0.75,2 0.35,3.25 -0.6,1.75 -3.2,2.8 -1.75,0.75 -4.2,1.3 l -4.3,0.8 q -5.4,1.1 -8.15,3.3"
         fill="#d8b8b8"
         fill-rule="evenodd"
         stroke="none"
         id="path2" />
      <path
         d="m -73.7,4.8 0.15,-0.45 q 1.45,-3.25 4.7,-8.45 3.65,-5.65 5.95,-8.1 3.8,-4.15 8.15,-5.75 l 0.45,-0.15 q 6.05,-1.95 15.2,0.65 l 1.6,0.5 q 5.75,1.8 9.9,4.5 5.65,3.75 8.45,8.95 l 0.45,0.85 q -0.2,2.25 -1.2,4.3 -2.2,4.6 -7.1,7.45 -3.8,2.25 -9.8,3.65 -8.6,2.1 -17.2,2 -7.35,-0.1 -12.15,-1.9 -5.2,-2.1 -6.85,-5.75 l -0.7,-2.3 m 15.7,0.45 1.5,-0.7 0.95,-0.7 0.65,-1 0.65,-1.3 q 0.2,-0.7 0.15,-1.8 l -0.2,-1.1 Q -54.9,-3.3 -57.1,-4 l -3.9,0.25 q -1.7,0.7 -3.1,2.5 l -0.45,0.8 q -0.4,0.85 -0.2,2.35 l 0.2,1.1 0.8,1 q 1.05,1.15 1.7,1.3 l 2.15,0.25 1.9,-0.3 m 22.75,1.35 0.45,0.1 1.55,0.25 1.4,-0.05 0.85,-0.2 q 0.35,-0.25 0.4,-0.7 0,-0.45 -0.3,-0.75 L -31.2,5.1 -31.6,5 -32.4,4.95 -34.6,4.35 -36.95,3.5 -39.2,2.85 h -1.1 q -0.1,-0.5 -0.35,-0.95 l -0.65,-1 -0.55,-1.05 -0.7,-1.25 q -0.35,-0.35 -0.85,-0.3 -0.55,0.05 -0.75,0.45 l -0.05,0.85 0.2,3.25 0.1,0.5 -1.2,0.7 -3.75,2.2 q -2.55,1.3 -3.7,2.15 l -0.9,0.9 -0.2,0.55 0.35,0.75 0.8,0.25 1,-0.4 2,-0.8 0.95,-0.45 1.2,-0.1 q 6.15,-0.55 12.1,-2.5 m 4.5,-15.9 q -1.65,0 -2.7,0.65 -1.25,0.65 -2.25,2.55 l -0.5,1.15 q -0.3,1 0,2.1 0.35,1.15 1.15,1.9 0.85,0.8 2.15,1.1 l 2.55,0.25 3.1,-0.45 q 1.7,-0.75 2.05,-2.25 v -0.9 q -0.1,-2.95 -2.15,-4.95 -0.7,-0.6 -1.35,-0.8 l -2.05,-0.35"
         fill="#afafaf"
         fill-rule="evenodd"
         stroke="none"
         id="path3" />
      <path
         d="m -73.7,4.8 0.7,2.3 q 1.65,3.65 6.85,5.75 4.8,1.8 12.15,1.9 8.6,0.1 17.2,-2 6,-1.4 9.8,-3.65 4.9,-2.85 7.1,-7.45 1,-2.05 1.2,-4.3 1.4,3 2.25,7.1 0.75,3.8 0.15,6.15 -0.85,3.15 -4.2,5.9 -1.15,0.95 -3,2.15 l -3.2,1.9 -0.2,0.15 -1.5,0.45 -2.4,0.8 q -3.3,0.95 -6.6,0.8 l -1.9,0.1 -0.1,-1 -0.2,-0.85 -0.15,-1.35 q -0.1,-0.75 -0.4,-1.15 l -0.9,-0.65 -1.15,-0.05 -0.85,0.4 -1.2,0.1 -1.95,0.1 -1.3,0.2 -0.9,0.75 -0.1,1.7 0.05,1.4 -0.05,1 -0.85,0.2 -5.4,0.2 -6.6,-1.35 -0.6,-0.1 0.25,-0.5 q 0.8,-1.85 0.8,-2.6 -0.05,-1.15 -0.8,-1.65 -0.6,-0.35 -1.6,-0.6 l -2.65,-0.45 q -1.2,-0.15 -1.8,0 -0.7,0.25 -1.55,1.45 l -1.4,2.1 q -0.4,-0.35 -0.95,-0.55 l -1.3,-0.4 q -0.8,-0.25 -1.2,-0.6 -2.05,-1.35 -1.8,-5.1 0.2,-4.05 2.25,-8.7 m 38.45,1.8 q -5.95,1.95 -12.1,2.5 l -1.2,0.1 2.05,-1 q 1.1,-0.4 3.1,-1.55 0.7,-0.2 1.1,-0.5 l 0.55,0.05 1.45,-0.05 2,0.05 2,0.2 1.05,0.2"
         fill="#8e8e8e"
         fill-rule="evenodd"
         stroke="none"
         id="path4" />
      <path
         d="m -64.95,20.45 -1.2,2.8 -1.05,2.8 -2.4,-1.05 -0.2,-0.1 0.05,-0.25 q 0.75,-2.45 2.35,-4.4 l 2.45,0.2 m 22.45,5.9 -2.35,0.05 -0.2,-5.4 1.65,-0.15 q 0.55,2.05 0.65,4 l 0.25,1.5 m 20.25,-2.75 -0.5,-0.95 q 1.5,-0.6 2.8,-1.4 l 0.6,1 0.6,1.2 -2.95,0.55 h -0.25 l -0.3,-0.4"
         fill="#2f2f2f"
         fill-rule="evenodd"
         stroke="none"
         id="path5" />
    </g>
    <g
       id="sprite1"
       transform="translate(17.4,15.85)">
      <use
         ffdec:characterId="31"
         height="57.200001"
         transform="matrix(0.5366,0,0,0.5366,-16.6582,-14.546)"
         width="70.75"
         xlink:href="#sprite2"
         id="use5" />
    </g>
    <g
       id="sprite2"
       transform="translate(-8.65,-10.35)">
      <use
         ffdec:characterId="30"
         height="57.200001"
         transform="translate(8.65,10.35)"
         width="70.75"
         xlink:href="#shape1"
         id="use6" />
    </g>
    <g
       id="shape1"
       transform="translate(-8.65,-10.35)">
      <path
         d="m 14.8,41.7 q 0.65,-1.75 2.65,-2.5 1.8,-0.8 3.7,-0.25 1.15,0.45 2.25,1.2 l 0.9,0.4 q 1.65,0.9 2.85,2.5 L 37.8,30.1 q 2.35,-2.8 3.75,-3.95 1.5,-1.15 4.25,-2.4 18.2,-8.85 27.65,-12.6 2.15,-0.8 3.25,-0.8 h 0.8 l 1.9,2.4 -0.2,0.8 q -0.2,1.1 -1.55,3 -5.85,8.25 -18.85,23.8 -1.85,2.35 -3.35,3.5 -1.4,1.15 -4.75,2.75 l -15.15,7.15 q 1.2,1.6 1.75,3.4 l 0.2,1 0.55,2.5 q 0.1,1.95 -1.1,3.55 -1.2,1.65 -3.05,1.9 l -1.3,0.05 q -1.65,0.2 -3.45,-0.65 -1.85,-0.9 -3,-2.6 L 25,60.95 23.8,62.1 q -2.6,2.85 -4.3,3.95 -2.85,1.8 -5.5,1.45 l -1.65,-0.5 -1.2,-0.7 -0.2,-0.2 q -1,-0.85 -1.6,-1.9 L 9.25,64 9.15,63.8 8.75,62.4 q -0.2,-0.8 -0.05,-1.7 0.25,-2.65 2.7,-5.05 1.5,-1.3 4.9,-3.15 L 17.7,51.55 16.05,50 q -1.35,-1.5 -1.8,-3.6 -0.4,-1.85 0.25,-3.45 l 0.3,-1.25"
         fill="#000000"
         fill-opacity="0.372549"
         fill-rule="evenodd"
         stroke="none"
         id="path6" />
    </g>
  </defs>
</svg>
