<?xml version="1.0" encoding="UTF-8" standalone="no"?>
<svg
   ffdec:objectType="frame"
   height="95.491737"
   width="94.819893"
   version="1.1"
   id="svg4"
   xmlns:xlink="http://www.w3.org/1999/xlink"
   xmlns="http://www.w3.org/2000/svg"
   xmlns:svg="http://www.w3.org/2000/svg"
   xmlns:ffdec="https://www.free-decompiler.com/flash">
  <g
     transform="translate(47.124,47.6)"
     id="g1">
    <use
       ffdec:characterId="17"
       height="119.15"
       id="rarity"
       transform="translate(-58.5,-60.65)"
       width="119.15"
       xlink:href="#sprite0" />
    <use
       ffdec:characterId="539"
       height="95.5"
       transform="translate(-47.1,-47.6)"
       width="94.800003"
       xlink:href="#shape0"
       id="use1" />
  </g>
  <defs
     id="defs4">
    <g
       id="shape0"
       transform="translate(46.7,46.8)">
      <path
         d="m 13.9,-15.05 3.15,-2.9 0.1,-0.1 3.5,-3.2 q 0.4,-0.4 0.85,-0.6 l 15.4,-14.65 2.8,-2.75 q -3.65,1.55 -7.5,2.5 l -2.8,0.5 q -6,2.4 -12.1,4.55 l -1.35,0.6 q 0.4,4.05 -0.65,7.75 l -0.35,1.05 q -0.3,1.1 -1.45,1.25 L 12.65,-21 3.9,-20.25 q -4.15,5.35 -8.6,10.4 -3.1,3.55 -3.9,8.1 -0.35,1.45 -1.05,2.75 -0.25,3.15 -2.2,5.1 l -1.7,1.25 -2.95,1.45 -4.25,1.55 q -1.4,3.9 -4.95,6.35 l -6.1,3.9 2.6,3.5 15.7,-14.55 2.2,-2.1 L -10.45,6.7 5,-7.2 l 4.4,-3.9 4.5,-3.95 M 27,-10.7 V -13 l 0.15,-1.45 q 0.35,-1.75 1.6,-3.05 1.2,-1.25 2.95,-0.65 l 2.8,0.9 0.6,-3 q 0.2,-1.7 0.75,-3.3 l 0.35,-0.6 q 0.45,-2.65 1.35,-5.1 l 1.75,-5 0.4,-1.05 0.1,-0.95 v -0.1 q -6.15,7 -12.8,13.7 l -7.15,7 -3.3,3.15 -7.2,6.8 Q 1.75,1.4 -5.55,8.85 l -0.1,0.1 -1.9,1.9 -0.85,0.85 q -8.35,8.55 -17.3,16.4 l 3.05,2.9 2.75,2.8 2.45,2.8 q 3.1,-2.25 5.85,-5.05 l 3.55,-3.35 0.85,-2.85 2.05,-6.65 q 0.55,-1.6 1.7,-2.55 1.25,-1.1 3.25,-1.4 l 5.8,-0.2 Q 13.95,11.1 19.8,4 l 3.65,-4.25 Q 25.2,-2.1 26.5,-4.1 l 0.5,-6.6 m 18.4,-36.1 q 4.25,1.6 1.8,5.9 -0.45,0.8 -0.75,1.8 -1.95,6.5 -4.4,12.8 -1.3,7.45 -4.55,14.15 -0.85,1.7 -2.75,1.35 -1.3,-0.35 -2.5,-0.95 0.05,5.65 -1.85,10.7 -0.5,1.7 -1.75,2.95 -7.35,8.4 -16.05,15 -1.6,1.25 -3.6,1.9 -4.35,1.45 -8.9,1.95 -0.4,0 -0.8,0.25 l -0.5,2.95 q -0.25,1.25 -1,2.25 -0.85,6.2 -6.25,9.85 -1.1,0.8 -2,1.85 -3.25,3.85 -7.9,4.95 1.5,3.15 -2.05,5 -4.1,2.2 -6.75,-1.35 L -29.4,44 -31.15,42.35 -31.8,43.1 q -1.6,1.95 -3.85,2.2 -2.2,0.15 -3.5,-1.5 l -6.1,-7.2 q -2.2,-2.6 0.6,-4.35 1.35,-0.85 2.75,-1.55 l -3.8,-4.95 q -1.6,-2.15 -0.7,-4.5 0.75,-2.05 2.65,-3.1 0.9,-0.5 1.8,-0.55 2.45,0.95 4.5,2.65 -0.2,-3.95 4.5,-5.6 4.85,-1.6 6.7,-6 1.45,-3.5 5.65,-4.35 2.4,-0.55 4.65,-1.65 1.9,-8.05 6.3,-14.95 1.45,-2.2 3.3,-4.2 l 6.3,-6.95 q 2.15,-2.3 5.35,-2.05 3,0.2 5.55,-0.75 -0.6,-4.75 1.9,-8.25 1.2,-1.6 3.1,-2.35 11,-4.15 22.25,-7.65 l 6.4,-2.05 0.9,-0.25"
         fill="#000000"
         fill-rule="evenodd"
         stroke="none"
         id="path1" />
      <path
         d="m 12.65,-21 0.85,-0.05 q 1.15,-0.15 1.45,-1.25 l 0.35,-1.05 q 1.05,-3.7 0.65,-7.75 l 1.35,-0.6 q 6.1,-2.15 12.1,-4.55 l 2.8,-0.5 q 3.85,-0.95 7.5,-2.5 l -2.8,2.75 -15.4,14.65 q -0.45,0.2 -0.85,0.6 l -3.5,3.2 -0.1,0.1 -3.15,2.9 q -1.2,-1.4 -1.05,-3.85 l 0.05,-1.7 -0.25,-0.4 m -23.1,27.7 -0.85,0.75 -2.2,2.1 -15.7,14.55 -2.6,-3.5 6.1,-3.9 q 3.55,-2.45 4.95,-6.35 l 4.25,-1.55 2.95,-1.45 1.7,-1.25 0.5,0.15 0.9,0.45 m 27,-19.2 3.3,-3.15 7.15,-7 q 6.65,-6.7 12.8,-13.7 v 0.1 l -0.1,0.95 -0.4,1.05 -1.75,5 q -0.9,2.45 -1.35,5.1 l -0.35,0.6 q -0.55,1.6 -0.75,3.3 l -0.6,3 -2.8,-0.9 q -1.75,-0.6 -2.95,0.65 -1.25,1.3 -1.6,3.05 L 27,-13 v 2.3 q -5.45,0.55 -10.45,-1.8 m -20,28.65 q -1.15,0.95 -1.7,2.55 l -2.05,6.65 -0.85,2.85 -3.55,3.35 q -2.75,2.8 -5.85,5.05 L -19.9,33.8 -22.65,31 -25.7,28.1 q 8.95,-7.85 17.3,-16.4 l 0.85,-0.85 1.9,-1.9 0.1,-0.05 V 8.85 q 3.1,1.75 2.3,6 l -0.2,1.3"
         fill="#525252"
         fill-rule="evenodd"
         stroke="none"
         id="path2" />
      <path
         d="m 12.65,-21 0.25,0.4 -0.05,1.7 q -0.15,2.45 1.05,3.85 L 9.4,-11.1 5,-7.2 -10.45,6.7 -11.35,6.25 -11.85,6.1 q 1.95,-1.95 2.2,-5.1 0.7,-1.3 1.05,-2.75 0.8,-4.55 3.9,-8.1 4.45,-5.05 8.6,-10.4 L 12.65,-21 m 3.9,8.5 q 5,2.35 10.45,1.8 l -0.5,6.6 q -1.3,2 -3.05,3.85 L 19.8,4 Q 13.95,11.1 5.6,14.55 l -5.8,0.2 q -2,0.3 -3.25,1.4 l 0.2,-1.3 q 0.8,-4.25 -2.3,-6 V 8.9 l -0.1,0.05 0.1,-0.1 Q 1.75,1.4 9.35,-5.7 l 7.2,-6.8"
         fill="#d9cea6"
         fill-rule="evenodd"
         stroke="none"
         id="path3" />
    </g>
    <g
       id="sprite1"
       transform="translate(17.4,15.85)">
      <use
         ffdec:characterId="31"
         height="57.200001"
         transform="matrix(0.5366,0,0,0.5366,-16.6582,-14.546)"
         width="70.75"
         xlink:href="#sprite2"
         id="use3" />
    </g>
    <g
       id="sprite2"
       transform="translate(-8.65,-10.35)">
      <use
         ffdec:characterId="30"
         height="57.200001"
         transform="translate(8.65,10.35)"
         width="70.75"
         xlink:href="#shape1"
         id="use4" />
    </g>
    <g
       id="shape1"
       transform="translate(-8.65,-10.35)">
      <path
         d="m 14.8,41.7 q 0.65,-1.75 2.65,-2.5 1.8,-0.8 3.7,-0.25 1.15,0.45 2.25,1.2 l 0.9,0.4 q 1.65,0.9 2.85,2.5 L 37.8,30.1 q 2.35,-2.8 3.75,-3.95 1.5,-1.15 4.25,-2.4 18.2,-8.85 27.65,-12.6 2.15,-0.8 3.25,-0.8 h 0.8 l 1.9,2.4 -0.2,0.8 q -0.2,1.1 -1.55,3 -5.85,8.25 -18.85,23.8 -1.85,2.35 -3.35,3.5 -1.4,1.15 -4.75,2.75 l -15.15,7.15 q 1.2,1.6 1.75,3.4 l 0.2,1 0.55,2.5 q 0.1,1.95 -1.1,3.55 -1.2,1.65 -3.05,1.9 l -1.3,0.05 q -1.65,0.2 -3.45,-0.65 -1.85,-0.9 -3,-2.6 L 25,60.95 23.8,62.1 q -2.6,2.85 -4.3,3.95 -2.85,1.8 -5.5,1.45 l -1.65,-0.5 -1.2,-0.7 -0.2,-0.2 q -1,-0.85 -1.6,-1.9 L 9.25,64 9.15,63.8 8.75,62.4 q -0.2,-0.8 -0.05,-1.7 0.25,-2.65 2.7,-5.05 1.5,-1.3 4.9,-3.15 L 17.7,51.55 16.05,50 q -1.35,-1.5 -1.8,-3.6 -0.4,-1.85 0.25,-3.45 l 0.3,-1.25"
         fill="#000000"
         fill-opacity="0.372549"
         fill-rule="evenodd"
         stroke="none"
         id="path4" />
    </g>
  </defs>
</svg>
