<?xml version="1.0" encoding="UTF-8" standalone="no"?>
<svg
   ffdec:objectType="frame"
   height="91.281998"
   width="85.763336"
   version="1.1"
   id="svg5"
   xmlns:xlink="http://www.w3.org/1999/xlink"
   xmlns="http://www.w3.org/2000/svg"
   xmlns:svg="http://www.w3.org/2000/svg"
   xmlns:ffdec="https://www.free-decompiler.com/flash">
  <g
     transform="translate(47.813333,44.582)"
     id="g1">
    <use
       ffdec:characterId="17"
       height="119.15"
       id="rarity"
       transform="translate(-58.5,-60.65)"
       width="119.15"
       xlink:href="#sprite0" />
    <use
       ffdec:characterId="887"
       height="91.300003"
       transform="translate(-47.8,-44.6)"
       width="85.75"
       xlink:href="#shape0"
       id="use1" />
  </g>
  <defs
     id="defs5">
    <g
       id="shape0"
       transform="translate(48.35,45.35)">
      <path
         d="m -10.7,34.2 q -1.95,2.5 -3.65,2.6 -1.05,0.15 -2.35,-0.55 l -2.15,-1.4 -3.55,-2 q -3.35,-1.8 -7.1,-4.6 l -6.55,-5.4 q -2.45,-2.05 -2.65,-3.65 -0.15,-1.35 1.05,-3.5 l 2.7,-4.7 -5.05,0.15 q -2.25,-0.2 -3.45,-0.75 -2.65,-1.15 -3.9,-4.2 -1,-2.45 -1,-5.8 -0.1,-2.95 0.55,-5.05 0.7,-2.6 2.7,-5.2 1.4,-1.9 4,-4.4 l 3.75,-3.15 4.05,-2.05 q 2.45,-1.25 3.55,-2.65 0.9,-1.2 1.5,-3.3 l 0.95,-3.65 q 1.15,-3.6 4,-6.3 2.9,-2.75 6.55,-3.75 3.95,-1 8.25,0.05 4.1,1 7.6,3.65 l 2.8,2.45 1.1,-2.7 q 1.8,-4 3.55,-5.9 1.75,-1.9 4.2,-2.9 2.5,-1.05 5.1,-0.85 2.35,0.2 4.85,1.25 2.35,0.95 4.05,2.4 2.05,1.8 3.25,4.45 1.65,3.75 0.7,7.05 -0.5,1.9 -2.4,4.45 -3.15,4.2 -7.05,7.25 l -1.35,1.2 9.6,-0.6 q 2.2,0.2 3.1,1 0.95,0.9 1.25,3.5 L 34.75,9 q 1.1,7.9 2.1,11.8 l 0.55,3.15 q 0,1.9 -1.05,2.95 -0.95,0.95 -3.25,1.25 L 22.8,29.9 Q 16.95,31 12.65,32.25 L 12.15,32.4 12.1,34 Q 11.45,38.35 9.35,41.35 6.8,44.9 2.95,45.7 l -3.3,0.25 q -2.85,-0.1 -4.5,-1 -1.1,-0.65 -2.8,-2.55 L -9.5,39.75 q -0.6,-1.3 -0.6,-3.45 l 0.2,-3.1 -0.8,1 M -29.25,2.1 q 6.45,-9.7 8.65,-13.45 1.2,-2.15 2.3,-2.7 1.4,-0.7 4,0 l 2.75,0.95 q 0.15,-3.15 1.5,-5.65 1.55,-3 4.3,-4.35 l 2.9,-0.95 3.25,-0.45 0.2,-2.35 -1.25,-1.45 q -4.45,-5.05 -10.05,-5.75 -3.05,-0.4 -5.85,0.85 -2.9,1.25 -4.35,3.75 l -1.2,3.05 -0.9,3.15 q -1.3,4.3 -4,6.55 -1.2,1.05 -3.6,2.25 l -3.75,2 q -2.2,1.4 -4.85,4.45 l -2.55,3.45 q -2,3.75 -0.8,7.75 0.35,1.35 1.1,1.9 0.65,0.55 1.75,0.7 l 3.7,-0.1 3.75,-0.3 0.75,0.1 2.25,-3.4 m 22.85,-12.45 1.55,1.1 0.8,0.55 -0.25,-1.75 q -0.1,-1.35 0.55,-2.35 0.8,-1.05 2.6,-1.4 l 1,-0.2 0.2,-5 q -2.25,0.2 -3.55,0.9 -1.8,0.9 -2.7,2.9 l -0.6,2 -0.6,2.6 1,0.65 M -3.25,5.4 -3.45,3 -3.5,1.65 l -0.1,-2.5 -0.05,-0.4 -3.7,-2.55 q -2.7,-1.65 -8.15,-4.25 h -0.05 l -0.25,0.25 q -8.95,13.55 -14.4,22.7 l -1.85,3.15 0.8,0.8 q 3.15,2.9 6.6,5.4 l 2.5,1.7 1.75,1.1 5.6,3 Q -9.9,22.6 -5.95,14.7 L -4,9.4 -3.1,7.35 -3.25,5.4 m 16.7,-25.35 4.05,-3.85 3.85,-3.85 q 2.5,-2.85 2.6,-5.15 0.05,-2.15 -1.65,-4.15 -1.35,-1.45 -3.75,-2.5 -2.95,-1.25 -5.2,-0.6 -2.95,0.85 -5.25,5.65 -1.05,2.1 -1.6,3.95 l -0.5,2.65 2.6,4.5 1.65,1.15 1.75,2.15 0.7,1.2 0.75,-1.15 M 5.55,-19.1 5.3,-19.2 5.15,-14.95 5.6,-15.05 7,-15.3 5.55,-19.1 M 29.5,12.35 29.35,11.25 26.1,-12.1 q -4.95,-0.2 -11.85,1.35 l -9.3,2.3 -2.45,0.9 q -0.55,0.75 -0.7,2.25 -0.2,1.6 0,4.85 l 0.1,1.6 0.2,2.6 0.5,5.3 1,7.65 0.1,1.55 1.3,4.6 0.85,4.85 0.05,0.35 Q 18.6,24.1 31.45,22.3 30.4,18.75 29.5,12.35 M 4.4,34.3 Q 2.45,34.5 1.3,33.8 -0.05,32.9 -0.3,30.85 l -0.05,-3.4 Q -0.4,26 -0.9,23.65 l -0.7,-3.75 -0.05,-0.65 -1.85,3.85 0.2,1.1 q 0.05,0.95 -0.3,2.4 -1.2,5.1 -1.3,7.7 -0.1,1.75 0.3,2.9 0.85,2.5 3.5,3.25 2.6,0.75 4.75,-0.8 2.6,-1.75 3.2,-5.6 L 6.9,33.95 4.4,34.3"
         fill="#000000"
         fill-rule="evenodd"
         stroke="none"
         id="path1" />
      <path
         d="M -15.25,-3 Q -16,-3.45 -16.1,-4.3 -16.25,-5.4 -15.3,-6 l 1.85,0.05 q 0.9,0.6 0.75,1.7 -0.1,0.85 -0.95,1.3 L -15.25,-3 m -8.6,22.1 0.05,-0.25 1.05,-2.2 1.8,-2.95 4.55,-7.15 -0.25,-0.15 q -1,-0.45 -1.45,-0.9 -0.65,-0.55 -0.85,-1.45 -0.2,-0.85 0.1,-1.7 0.3,-0.8 1,-1.3 0.75,-0.55 1.6,-0.6 0.9,-0.1 3.1,0.9 l 0.15,0.1 1.65,-2.35 q 1.15,-1.55 2.3,-1.25 0.55,0.2 0.85,0.8 0.3,0.55 0.2,1.2 -0.1,0.7 -1.05,2.2 L -9.5,3 l 0.15,0.05 1.1,0.65 0.35,0.25 q 0.9,0.7 1.15,1.6 l 0.1,0.9 q 0.1,1.6 -0.7,2.4 Q -7.9,9.4 -8.8,9.5 l -1.55,-0.2 -1.9,-0.7 -0.15,-0.05 -0.2,0.35 -4.25,8.15 -1.65,3.2 q -0.7,1.55 -1.45,2 -0.95,0.65 -2.1,0.35 -1.2,-0.35 -1.65,-1.35 -0.45,-1 -0.15,-2.15 M 13.95,13 12.7,5.5 10.8,6 8.05,5.9 6.85,5.05 6,3.8 Q 5.6,2.75 6.2,1.65 6.65,0.7 7.8,0.1 l 1.7,-0.6 1.8,-0.45 0.45,-0.1 -0.25,-2.7 q -0.1,-1.5 0.3,-2.25 0.65,-1.2 1.95,-1.35 1.3,-0.15 2.2,0.85 0.65,0.8 1.05,2.5 l 0.35,1.6 1.95,-0.2 3,0.25 q 1.55,0.65 1.9,2.4 0.25,1.7 -1.1,2.85 -0.75,0.65 -2.15,0.95 l -2.2,0.4 0.75,4.15 0.95,5.35 0.05,0.3 0.45,4.55 q -0.1,1.75 -0.6,2.6 -0.9,1.3 -2.45,1.3 -1.6,0 -2.45,-1.25 Q 14.95,20.5 14.8,19.3 L 14.65,17.2 13.95,13 M 6.9,-5.3 6.85,-4.1 Q 6.6,-3.5 6.05,-3.25 L 4.9,-3.15 Q 4.25,-3.3 3.9,-3.8 3.55,-4.35 3.65,-4.95 3.7,-5.6 4.15,-6 q 0.45,-0.4 1.1,-0.45 0.65,0 1.15,0.35 l 0.5,0.8 m 16.25,-4.85 1.15,0.15 0.85,0.8 q 0.25,0.55 0.1,1.2 -0.15,0.6 -0.65,0.95 L 22.7,-7 q -1,-0.6 -0.85,-1.7 0.15,-1.1 1.3,-1.45 m 6.7,30.1 q -0.15,1.25 -1.4,1.6 -1.25,0.35 -2.05,-0.7 -0.35,-0.5 -0.35,-1.15 0,-0.65 0.35,-1.15 0.4,-0.5 1.05,-0.7 l 1.25,0.1 q 0.55,0.25 0.9,0.8 0.35,0.55 0.25,1.2 M 7.25,24.1 7.35,23.5 7.6,23.05 q 0.45,-0.65 1.35,-0.75 0.9,0 1.4,0.6 0.4,0.45 0.45,1.1 0,0.65 -0.35,1.1 L 9.5,25.8 8.3,25.7 Q 7.25,25.25 7.25,24.1 m -36.4,-5.7 q -0.75,-0.75 -0.35,-1.7 0.45,-0.95 1.45,-0.95 0.5,0 0.9,0.25 0.45,0.4 0.6,0.9 0.15,0.65 -0.15,1.2 -0.3,0.55 -0.95,0.7 -0.95,0.25 -1.5,-0.4 m 15.4,8.5 q -0.15,0.6 -0.65,1 -0.5,0.4 -1.1,0.4 L -16.6,27.95 -17.3,27 q -0.15,-0.6 0.05,-1.2 l 0.75,-0.9 1.1,-0.25 q 0.65,0.05 1.1,0.45 0.85,0.8 0.55,1.8"
         fill="#e1d0ea"
         fill-rule="evenodd"
         stroke="none"
         id="path2" />
      <path
         d="m -15.25,-3 1.6,0.05 q 0.85,-0.45 0.95,-1.3 0.15,-1.1 -0.75,-1.7 L -15.3,-6 q -0.95,0.6 -0.8,1.7 0.1,0.85 0.85,1.3 m -16,21.85 -0.8,-0.8 1.85,-3.15 q 5.45,-9.15 14.4,-22.7 l 0.25,-0.25 h 0.05 q 5.45,2.6 8.15,4.25 l 3.7,2.55 0.05,0.4 0.1,2.5 0.05,1.35 0.2,2.4 q -4.05,5.65 -9.45,9.35 l -2.55,1.6 -1.6,0.7 4.25,-8.15 0.35,-0.3 1.9,0.7 1.55,0.2 q 0.9,-0.1 1.45,-0.65 0.8,-0.8 0.7,-2.4 l -0.1,-0.9 Q -7,4.65 -7.9,3.95 L -8.25,3.7 -9.35,3.05 -9.5,3 -9.05,2.05 q 0.95,-1.5 1.05,-2.2 0.1,-0.65 -0.2,-1.2 -0.3,-0.6 -0.85,-0.8 -1.15,-0.3 -2.3,1.25 L -13,1.45 -13.15,1.35 q -2.2,-1 -3.1,-0.9 -0.85,0.05 -1.6,0.6 -0.7,0.5 -1,1.3 -0.3,0.85 -0.1,1.7 0.2,0.9 0.85,1.45 0.45,0.45 1.45,0.9 l 0.25,0.15 -4.55,7.15 -1.8,2.95 -1.05,2.2 -0.05,0.25 -6.45,-0.15 -0.95,-0.1 M 2.6,9.05 2.1,3.75 1.9,1.15 1.8,-0.45 Q 1.6,-3.7 1.8,-5.3 1.95,-6.8 2.5,-7.55 l 2.45,-0.9 9.3,-2.3 q 6.9,-1.55 11.85,-1.35 l 3.25,23.35 0.15,1.1 -2,0.8 -7.05,0.6 L 19.5,8.4 18.75,4.25 20.95,3.85 Q 22.35,3.55 23.1,2.9 24.45,1.75 24.2,0.05 23.85,-1.7 22.3,-2.35 L 19.3,-2.6 17.35,-2.4 17,-4 q -0.4,-1.7 -1.05,-2.5 -0.9,-1 -2.2,-0.85 -1.3,0.15 -1.95,1.35 -0.4,0.75 -0.3,2.25 l 0.25,2.7 -0.45,0.1 L 9.5,-0.5 7.8,0.1 Q 6.65,0.7 6.2,1.65 5.6,2.75 6,3.8 L 6.85,5.05 8.05,5.9 10.8,6 12.7,5.5 13.95,13 11.85,12.6 Q 6.9,11.6 4.5,10.3 L 2.6,9.05 m 20.55,-19.2 Q 22,-9.8 21.85,-8.7 21.7,-7.6 22.7,-7 l 1.9,-0.05 Q 25.1,-7.4 25.25,-8 25.4,-8.65 25.15,-9.2 L 24.3,-10 23.15,-10.15 M 6.9,-5.3 6.4,-6.1 Q 5.9,-6.45 5.25,-6.45 4.6,-6.4 4.15,-6 q -0.45,0.4 -0.5,1.05 -0.1,0.6 0.25,1.15 0.35,0.5 1,0.65 l 1.15,-0.1 Q 6.6,-3.5 6.85,-4.1 L 6.9,-5.3 m -36.05,23.7 q 0.55,0.65 1.5,0.4 0.65,-0.15 0.95,-0.7 0.3,-0.55 0.15,-1.2 -0.15,-0.5 -0.6,-0.9 -0.4,-0.25 -0.9,-0.25 -1,0 -1.45,0.95 -0.4,0.95 0.35,1.7"
         fill="#7e638c"
         fill-rule="evenodd"
         stroke="none"
         id="path3" />
      <path
         d="m -31.25,18.85 0.95,0.1 6.45,0.15 q -0.3,1.15 0.15,2.15 0.45,1 1.65,1.35 1.15,0.3 2.1,-0.35 0.75,-0.45 1.45,-2 l 1.65,-3.2 1.6,-0.7 2.55,-1.6 q 5.4,-3.7 9.45,-9.35 L -3.1,7.35 -4,9.4 -5.95,14.7 q -3.95,7.9 -8.85,15.35 l -5.6,-3 -1.75,-1.1 -2.5,-1.7 q -3.45,-2.5 -6.6,-5.4 M 2.6,9.05 4.5,10.3 q 2.4,1.3 7.35,2.3 l 2.1,0.4 0.7,4.2 0.15,2.1 q 0.15,1.2 0.65,1.95 0.85,1.25 2.45,1.25 1.55,0 2.45,-1.3 0.5,-0.85 0.6,-2.6 l -0.45,-4.55 -0.05,-0.3 7.05,-0.6 2,-0.8 q 0.9,6.4 1.95,9.95 Q 18.6,24.1 5.9,28.05 L 5.85,27.7 5,22.85 3.7,18.25 3.6,16.7 2.6,9.05 M 7.25,24.1 q 0,1.15 1.05,1.6 l 1.2,0.1 0.95,-0.7 Q 10.8,24.65 10.8,24 10.75,23.35 10.35,22.9 9.85,22.3 8.95,22.3 8.05,22.4 7.6,23.05 l -0.25,0.45 -0.1,0.6 m 22.6,-4.15 q 0.1,-0.65 -0.25,-1.2 -0.35,-0.55 -0.9,-0.8 l -1.25,-0.1 q -0.65,0.2 -1.05,0.7 -0.35,0.5 -0.35,1.15 0,0.65 0.35,1.15 0.8,1.05 2.05,0.7 1.25,-0.35 1.4,-1.6 m -43.6,6.95 q 0.3,-1 -0.55,-1.8 -0.45,-0.4 -1.1,-0.45 l -1.1,0.25 -0.75,0.9 q -0.2,0.6 -0.05,1.2 l 0.7,0.95 1.1,0.35 q 0.6,0 1.1,-0.4 0.5,-0.4 0.65,-1"
         fill="#6d557a"
         fill-rule="evenodd"
         stroke="none"
         id="path4" />
    </g>
    <g
       id="sprite1"
       transform="translate(17.4,15.85)">
      <use
         ffdec:characterId="31"
         height="57.200001"
         transform="matrix(0.5366,0,0,0.5366,-16.6582,-14.546)"
         width="70.75"
         xlink:href="#sprite2"
         id="use4" />
    </g>
    <g
       id="sprite2"
       transform="translate(-8.65,-10.35)">
      <use
         ffdec:characterId="30"
         height="57.200001"
         transform="translate(8.65,10.35)"
         width="70.75"
         xlink:href="#shape1"
         id="use5" />
    </g>
    <g
       id="shape1"
       transform="translate(-8.65,-10.35)">
      <path
         d="m 14.8,41.7 q 0.65,-1.75 2.65,-2.5 1.8,-0.8 3.7,-0.25 1.15,0.45 2.25,1.2 l 0.9,0.4 q 1.65,0.9 2.85,2.5 L 37.8,30.1 q 2.35,-2.8 3.75,-3.95 1.5,-1.15 4.25,-2.4 18.2,-8.85 27.65,-12.6 2.15,-0.8 3.25,-0.8 h 0.8 l 1.9,2.4 -0.2,0.8 q -0.2,1.1 -1.55,3 -5.85,8.25 -18.85,23.8 -1.85,2.35 -3.35,3.5 -1.4,1.15 -4.75,2.75 l -15.15,7.15 q 1.2,1.6 1.75,3.4 l 0.2,1 0.55,2.5 q 0.1,1.95 -1.1,3.55 -1.2,1.65 -3.05,1.9 l -1.3,0.05 q -1.65,0.2 -3.45,-0.65 -1.85,-0.9 -3,-2.6 L 25,60.95 23.8,62.1 q -2.6,2.85 -4.3,3.95 -2.85,1.8 -5.5,1.45 l -1.65,-0.5 -1.2,-0.7 -0.2,-0.2 q -1,-0.85 -1.6,-1.9 L 9.25,64 9.15,63.8 8.75,62.4 q -0.2,-0.8 -0.05,-1.7 0.25,-2.65 2.7,-5.05 1.5,-1.3 4.9,-3.15 L 17.7,51.55 16.05,50 q -1.35,-1.5 -1.8,-3.6 -0.4,-1.85 0.25,-3.45 l 0.3,-1.25"
         fill="#000000"
         fill-opacity="0.372549"
         fill-rule="evenodd"
         stroke="none"
         id="path5" />
    </g>
  </defs>
</svg>
