<?xml version="1.0" encoding="UTF-8" standalone="no"?>
<svg
   ffdec:objectType="frame"
   height="71.779091"
   width="87.891457"
   version="1.1"
   id="svg6"
   sodipodi:docname="ITEM Dirt Clod Necklace.svg"
   xmlns:inkscape="http://www.inkscape.org/namespaces/inkscape"
   xmlns:sodipodi="http://sodipodi.sourceforge.net/DTD/sodipodi-0.dtd"
   xmlns:xlink="http://www.w3.org/1999/xlink"
   xmlns="http://www.w3.org/2000/svg"
   xmlns:svg="http://www.w3.org/2000/svg"
   xmlns:ffdec="https://www.free-decompiler.com/flash">
  <sodipodi:namedview
     id="namedview6"
     pagecolor="#ffffff"
     bordercolor="#000000"
     borderopacity="0.25"
     inkscape:showpageshadow="2"
     inkscape:pageopacity="0.0"
     inkscape:pagecheckerboard="0"
     inkscape:deskcolor="#d1d1d1"
     fit-margin-top="5"
     fit-margin-left="5"
     fit-margin-right="5"
     fit-margin-bottom="5" />
  <g
     transform="translate(43.743407,36.75)"
     id="g1">
    <use
       ffdec:characterId="17"
       height="119.15"
       id="rarity"
       transform="translate(-58.5,-60.65)"
       width="119.15"
       xlink:href="#sprite0" />
    <use
       ffdec:characterId="738"
       height="71.800003"
       transform="translate(-43.75,-36.75)"
       width="87.900002"
       xlink:href="#shape0"
       id="use1" />
  </g>
  <defs
     id="defs6">
    <g
       id="shape0"
       transform="translate(44.3,37.5)">
      <path
         d="m 3.85,-14 1,0.4 q 3.2,-2.25 7.15,-2.3 -1.85,-4.9 -2.45,-10.1 -0.4,-3.25 1.1,-5.95 l 0.6,-0.3 0.35,-0.15 0.25,0.05 0.6,0.1 q 3.6,2.5 5.45,6.55 l 1,2.95 1.15,-3.05 1.2,-3.15 1,-1.45 1.2,-1.15 1.1,-0.1 0.5,0.1 0.45,0.45 0.25,0.4 q -1.15,6.5 -1.15,13.2 v 1 l 0.55,0.05 q 6.15,-1.25 8.9,3.3 0.85,1.45 1.3,3.15 l 0.8,3.05 0.65,1.65 q 0.5,2.85 -0.5,5.6 L 35.8,2 35.85,2.15 36,2.6 v 0.2 l 0.05,0.6 v 0.45 l 0.1,0.2 0.05,0.2 0.1,0.2 v 0.2 q 6.15,3.2 3.5,8.95 -0.65,1.35 -2,2 -4.15,1.95 -8.7,2.3 0.6,1.5 0.45,3.3 -0.15,1.7 -1.5,2.85 -1.75,3.5 -7.15,3.45 l -3.7,0.25 q -2.1,0.2 -3.75,-0.95 -3,3.4 -6.65,5.65 l -1.45,0.6 q -12.75,2.6 -25.3,-0.3 -1.05,-0.25 -1.7,-1.2 l 0.1,-2 q -9.1,1.05 -17.8,-0.8 -2.7,-0.55 -3.4,-3.25 -2.65,-3.55 -0.75,-8.15 l 1.6,-3.2 q -1.55,-3 -0.5,-6.25 l 1,-3.05 Q -44.75,1.2 -43.85,-3.1 l 0.55,-0.8 q 2.95,-2.25 6.5,-3.1 -2,-4.3 -1.65,-9.1 0.1,-2.1 0.95,-3.95 l 0.15,-0.2 0.2,-0.2 0.45,-0.45 q 1.6,-0.75 3.05,0.45 l 2.55,5.15 1,2.4 0.55,-10.4 q 0.25,-2.55 0.85,-4.95 0.05,-3.45 0.8,-6.85 0.5,-1.95 2.3,-2.4 l 1.05,0.3 0.35,0.15 q 0.9,1.95 1.4,4.15 l 0.35,2.25 q 0.8,2.95 1.1,5.95 l 0.35,3.35 q 0.5,4.3 0.5,8.75 l 3.75,0.3 v -2.05 Q -16.8,-16 -16.3,-17.4 l 1,-9.1 q 0.25,-2.45 2.05,-4.15 l 0.35,-0.15 0.6,-0.15 V -31 q 3.05,0.8 3.2,4.15 l 0.05,1.8 q 1.15,4.95 1.1,10 6.1,-0.8 11.8,1.05 m 18.75,-11.15 0.15,-0.7 -0.25,0.7 -0.05,0.1 -0.35,0.8 -0.1,0.2 -0.2,2.1 -0.9,2.2 q 0.05,1.2 -0.25,2.35 l -0.05,0.25 -0.15,0.4 -0.45,0.75 0.4,1.15 0.05,1 v 0.45 l 0.15,1.2 -0.2,1.4 -0.15,0.9 -0.3,0.35 -0.35,0.05 h -0.2 l -0.2,-0.05 q -0.4,-0.95 -0.65,-2 l -0.5,-1.3 -0.15,-0.8 -0.1,-1.05 -0.15,-0.15 -0.35,-0.45 -0.55,-1.95 q -0.2,-0.65 -0.15,-1.35 l -0.8,-3.1 -0.4,-1.9 v -0.05 q -0.9,-2.75 -2.9,-4.75 -0.1,3.55 0.75,6.9 l 0.6,2 0.2,0.55 0.45,1.75 q 0.75,1.3 1.1,2.9 l 0.15,1.9 q 0.5,1.05 0.45,2.1 l -0.05,0.35 -0.5,1.6 -0.15,0.1 h -0.2 l -0.45,-0.1 -0.4,-0.85 -0.15,-0.8 -0.2,-0.2 -0.15,-0.25 -0.3,-1.45 -0.05,-0.7 q -3.05,0.35 -5.85,1.4 0.65,1.05 0.75,2.45 l -0.1,2.4 0.25,0.15 q 2.35,0.1 4.4,1 l 8.85,-0.3 q 4.75,-1.6 9.35,-3.5 l -0.9,-2.5 -1.9,-0.85 q -2.15,-0.45 -4.2,0.05 l -0.45,2.15 -0.35,0.05 -0.5,-0.3 -0.05,-0.1 -0.05,-0.05 -0.2,-1.7 -0.05,-0.7 -0.1,-0.1 -0.2,-0.25 -0.1,-0.1 -0.15,-0.65 Q 22,-14.5 22.1,-14.8 l 0.25,-0.55 -0.15,-2.7 -0.1,-1.6 q -0.1,-2.8 0.5,-5.5 M -33.75,-3.9 q -1.3,0.9 -2.95,0.75 l -2.55,1.35 -0.45,0.4 0.05,0.1 4.1,2.7 1.25,0.75 q 0.8,0.05 1.35,0.65 L -32.7,3 q 5.95,1.65 12.15,0.75 2.25,-0.65 4.4,-1.7 L -15.8,1.8 q 2.8,-1.85 5.7,-0.9 h 0.95 l 0.6,-0.55 0.55,-0.4 2.15,-2.05 0.7,-0.6 7.35,-2.3 0.6,-0.2 0.15,0.05 0.1,-0.25 0.4,-0.8 v -0.25 -0.4 l 0.05,-0.2 0.1,-0.4 0.1,-0.45 q -2,-1.65 -5,-1.45 l -7.1,-0.2 q -0.35,1.7 -0.85,3.25 l -0.05,0.05 -0.1,1 -0.4,1 h -0.75 l -0.05,-0.1 q -0.8,-3.1 -0.85,-6.25 l -0.2,-0.55 q -0.2,-1.4 0.3,-2.25 l 0.2,-2 -0.3,-4.1 q -0.45,-0.95 -0.45,-2.05 l -0.25,-2.2 -0.05,-0.05 v 0.1 q -0.7,6.4 -1,13.75 l -0.4,2.55 q -0.45,1.75 -1.35,3.15 l -0.7,0.1 -0.7,-0.1 q -1.55,-1.3 -1.15,-3.5 l 0.5,-1.8 h -0.25 l -3.35,0.55 -0.1,1.05 q -0.15,3 -1.1,5.75 l -0.4,0.05 q -0.55,0.05 -0.7,-0.5 L -22.95,-4.2 V -4.35 L -23,-4.6 q 0,-0.75 -0.5,-1.25 l -0.15,-1.65 q -0.1,-0.6 -0.5,-1.05 l -0.15,-2.1 0.05,-1.25 0.1,-0.2 0.15,-0.15 v -0.65 l 0.3,-0.6 v -4.6 l -0.35,-3.9 -0.1,-0.65 -0.55,-4.4 -0.35,-1.8 -0.25,-0.35 -0.1,-0.75 q -0.3,0.55 -0.2,1.25 0.2,1.1 -0.25,2.1 l -0.05,1.15 -0.05,0.15 -0.45,8.85 q 0,2.45 -0.55,4.7 l -0.2,2.2 -0.05,1.5 V -8 l -0.05,1.45 q 0,1.1 -0.65,1.8 -0.45,0.4 -1.1,0.65 h -0.45 -0.4 l -0.2,-0.05 -0.3,-0.2 -0.25,-0.2 L -30.95,-5 -31,-5.2 -31.05,-5.6 v -0.6 l -2.45,-5.75 -0.9,-2.75 -0.2,-0.2 -0.1,-0.2 -0.15,-0.35 -0.05,-0.05 v 0.05 q -0.2,4.05 1.35,7.75 0.85,1.85 -0.05,3.65 l -0.15,0.15 m 65.3,3.4 0.5,-1.85 q 0.7,-2 0.05,-4.1 -2.05,1.5 -4.6,2.4 Q 17.85,-0.5 7.85,-4.2 L 7,-0.65 6.85,-0.1 7.25,0.45 7.65,0.75 7.7,0.8 q 2.4,1.7 4.6,3.75 l 1,0.95 0.85,0.9 Q 14.9,5.95 15.65,5.6 L 15.8,5.55 16,5.4 16.45,4.8 q 0.85,-2 2.85,-3.05 l 0.55,-0.25 1.95,0.05 2.4,0.15 0.3,0.2 1.1,0.85 1.25,1.35 0.2,0.3 V 4.6 L 27,4.8 26.8,5.2 26.65,5.4 26.3,5.5 25.5,5.2 23.3,3.7 H 21.8 L 20.3,3.85 20,4.05 19.75,4.3 19.2,5.1 18.75,5.7 18.7,5.9 V 6.1 6.3 L 18.65,6.5 18.5,6.75 18.05,7.25 Q 17,8.2 15.8,8.7 L 15.75,8.75 23.9,9.7 q 0.9,0.1 1.25,1.05 l 1.25,3.55 0.1,0.05 0.6,0.6 8.5,-2.3 1.65,-0.85 0.1,-0.2 0.1,-0.2 0.05,-0.2 0.05,-0.2 V 10.85 L 37.35,10.2 36.8,9.35 36.15,8.7 Q 32.45,6.65 31.6,3.4 31.1,1.65 31.55,-0.5 M 35,19.25 q 3,-0.25 5.7,0.95 1.1,0.5 2.15,1.15 2.4,4.45 -2.9,6.05 L 31.05,27.65 30.8,27.45 30.35,27 30.2,26.8 29.85,26.2 29.8,25.55 l 0.15,-1 q 0,-1.15 0.3,-2.25 l 0.1,-0.45 0.15,-0.2 0.4,-0.4 0.2,-0.15 0.7,-0.35 0.1,-0.2 0.2,-0.2 0.3,-0.15 1.3,-0.6 q 0.7,-0.35 1.3,-0.35 m -72.15,-4.85 -0.2,1.3 q -0.35,1.35 -1.45,2.3 l -0.05,0.2 -0.05,0.25 -0.3,0.4 -0.1,1.25 -0.25,1.6 1,1.3 0.6,1.35 q 8.3,1.6 17.1,1.2 h 0.1 q 0.75,-2.75 2.3,-5.25 0.55,-0.95 1.5,-1.65 2.85,-2.35 6.1,-4.3 l 0.3,-0.1 0.3,-0.05 v -0.05 l 0.1,0.05 0.5,0.15 0.3,0.45 0.2,0.4 -6.4,7.5 -0.45,0.95 q -0.75,2.65 -1,5.4 l 11.7,1 11.55,-1.5 q 2.95,-3.3 6.65,-5.45 1.15,-0.6 2.45,-0.35 2.4,0.55 4.85,0 l 3.95,-0.8 0.4,-1.9 q -0.4,-0.8 -0.5,-1.75 l -0.1,-0.7 -0.15,-0.1 -0.2,-0.25 -0.15,-0.4 -0.05,-0.2 q -0.05,-0.35 0.05,-0.6 L 23.5,15.8 h 0.05 L 22.5,13 19.3,13.3 Q 12.4,14.5 10.4,8.55 L 10.3,8.35 9.85,7.9 9.65,7.7 9.6,7.65 8.95,7.15 Q 7.2,6.7 5.8,5.65 L 5.2,5.15 5,4.9 4.65,4.6 Q 1.75,1.55 2.15,-2.1 l -4.15,1 -0.15,-0.05 -0.6,-0.05 -2.1,1.1 -0.4,0.2 L -6.1,1 q -0.35,0.2 -0.5,0.55 l -1.4,1 -0.55,0.4 q -1.65,0.45 -3.15,-0.3 -4.9,2.05 -10,3.3 l -0.7,0.3 Q -27.95,6.2 -33.2,5 -34.25,4.1 -35.5,3.55 L -36,3.4 q -0.35,-0.6 -1,-0.9 l -0.25,-0.1 q 1.9,2.05 0.25,5 l -0.75,2 -0.05,0.15 v 0.4 0.65 l -0.1,0.4 q 0.85,1.6 0.75,3.4 m 71.15,7.95 -0.85,0.4 -0.4,0.15 -0.1,0.2 -0.05,0.2 -0.05,0.25 -0.1,0.2 v 0.2 0.15 l 0.05,0.25 0.05,0.2 Q 36.4,25.5 40.3,23.6 37.3,22.45 34,22.35 M 3.95,11.7 q 1.7,0.25 2.9,1.45 L 7.7,13.95 8.1,15 8.55,16.25 8.6,16.4 q 2,1.15 4.35,1.7 l 0.45,1 q 0.1,0.8 -0.3,1.5 l -0.15,0.4 -0.1,0.2 -0.2,0.2 L 12.5,21.5 11.65,21.45 11.2,21.25 11,21.05 10.85,20.85 10.8,20.7 Q 5.9,20.05 4.25,15.5 4,14.8 3.25,14.5 2.2,14.05 1.1,13.95 l -5.55,0.3 q 3.95,-1.9 8.4,-2.55"
         fill="#000000"
         fill-rule="evenodd"
         stroke="none"
         id="path1" />
      <path
         d="m 22.9,-10.5 0.05,0.1 0.5,0.3 0.35,-0.05 0.45,-2.15 q 2.05,-0.5 4.2,-0.05 l 1.9,0.85 0.9,2.5 q -4.6,1.9 -9.35,3.5 l -8.85,0.3 Q 11,-6.1 8.65,-6.2 L 8.4,-6.35 8.5,-8.75 q -0.1,-1.4 -0.75,-2.45 2.8,-1.05 5.85,-1.4 l 0.05,0.7 0.3,1.45 0.15,0.25 0.2,0.2 0.15,0.8 0.4,0.85 0.45,0.1 h 0.2 l 0.15,-0.1 0.5,-1.6 0.05,-0.35 q 0.8,1.45 2.7,1.7 l 0.5,-0.9 h 0.2 l 0.35,-0.05 0.3,-0.35 0.45,0.05 h 0.4 l 0.7,-0.45 0.1,-0.15 0.5,0.15 0.4,-0.15 0.1,-0.05 m -33.5,6.15 0.05,0.1 h 0.75 l 0.4,-1 0.1,-1 0.05,-0.05 q 0.5,-1.55 0.85,-3.25 l 7.1,0.2 q 3,-0.2 5,1.45 l -0.1,0.45 -0.1,0.4 -0.05,0.2 v 0.4 0.25 L 3.05,-5.4 2.95,-5.15 2.8,-5.2 2.2,-5 l -7.35,2.3 -0.7,0.6 -2.15,2.05 -0.55,0.4 -0.6,0.55 h -0.95 q -2.9,-0.95 -5.7,0.9 l -0.35,0.25 Q -18.3,3.1 -20.55,3.75 -26.75,4.65 -32.7,3 L -32.95,2.8 Q -33.5,2.2 -34.3,2.15 l -1.25,-0.75 -4.1,-2.7 -0.05,-0.1 0.45,-0.4 2.55,-1.35 q 1.65,0.15 2.95,-0.75 l 0.1,0.75 0.15,0.15 q 1.45,1.75 3.1,0.3 0.4,-0.65 0.55,-1.4 h 0.4 0.45 q 0.65,-0.25 1.1,-0.65 -0.15,2.6 2.7,3.1 0.45,0.05 0.65,-0.2 1.05,-1.2 1.6,-2.5 v 0.15 l 0.05,1.55 q 0.15,0.55 0.7,0.5 l 0.4,-0.05 q 0.95,-2.75 1.1,-5.75 l 0.1,-1.05 3.35,-0.55 H -17 l -0.5,1.8 q -0.4,2.2 1.15,3.5 l 0.7,0.1 0.7,-0.1 q 0.9,-1.4 1.35,-3.15 l 0.9,3.35 q 0.15,0.15 0.35,0.15 l 0.95,0.15 0.8,-0.6"
         fill="#877c7c"
         fill-rule="evenodd"
         stroke="none"
         id="path2" />
      <path
         d="m 31.55,-0.5 q -1.6,0.05 -3.15,1.15 l -0.65,0.1 Q 21.25,-1.75 16.5,2.6 L 15.75,2.45 14.8,2.05 Q 14.1,1.3 13.15,0.8 10.55,-0.5 7.55,-0.75 L 7,-0.65 7.85,-4.2 q 10,3.7 19.65,0.15 2.55,-0.9 4.6,-2.4 0.65,2.1 -0.05,4.1 l -0.5,1.85 M 12.3,4.55 13.45,4.4 q 1,0.6 2.15,1.1 L 15.8,5.55 15.65,5.6 Q 14.9,5.95 14.15,6.4 L 13.3,5.5 12.3,4.55 M 26.85,4.1 30.15,3.85 31.6,3.4 q 0.85,3.25 4.55,5.3 l 0.65,0.65 0.55,0.85 0.2,0.65 V 11 l -0.05,0.2 -0.05,0.2 -0.1,0.2 -0.1,0.2 -1.65,0.85 -8.5,2.3 -0.6,-0.6 -0.1,-0.05 -1.25,-3.55 Q 24.8,9.8 23.9,9.7 L 15.75,8.75 15.8,8.7 Q 17,8.2 18.05,7.25 L 18.5,6.75 18.65,6.5 18.7,6.3 V 6.1 5.9 L 18.75,5.7 19.2,5.1 19.75,4.3 20,4.05 20.3,3.85 21.8,3.7 h 1.5 L 25.5,5.2 26.3,5.5 26.65,5.4 26.8,5.2 27,4.8 27.05,4.6 V 4.4 L 26.85,4.1 M 9.6,7.65 9.65,7.7 l 0.2,0.2 0.45,0.45 0.1,0.2 q 2,5.95 8.9,4.75 l 3.2,-0.3 1.05,2.8 H 23.5 l -0.05,0.25 q -0.1,0.25 -0.05,0.6 l 0.05,0.2 0.15,0.4 0.2,0.25 0.15,0.1 0.1,0.7 q 0.1,0.95 0.5,1.75 l -0.4,1.9 -3.95,0.8 q -2.45,0.55 -4.85,0 -1.3,-0.25 -2.45,0.35 -3.7,2.15 -6.65,5.45 l -11.55,1.5 -11.7,-1 q 0.25,-2.75 1,-5.4 l 0.45,-0.95 6.4,-7.5 -0.2,-0.4 -0.3,-0.45 -0.5,-0.15 -0.1,-0.05 v 0.05 l -0.3,0.05 -0.3,0.1 q -3.25,1.95 -6.1,4.3 -0.95,0.7 -1.5,1.65 -1.55,2.5 -2.3,5.25 h -0.1 q -8.8,0.4 -17.1,-1.2 l -0.6,-1.35 -1,-1.3 0.25,-1.6 0.1,-1.25 0.3,-0.4 0.05,-0.25 0.05,-0.2 q 1.1,-0.95 1.45,-2.3 l 0.2,-1.3 q 4.7,3.85 10.75,1.95 l 1.55,0.2 q 1.55,1.85 4,2.4 2.5,0.6 4.35,-0.9 Q -8.3,11.45 2,9.7 L 3.85,9.2 Q 6.25,9.85 8.9,8.15 L 9.6,7.65 M -37.75,9.4 -37,7.4 q 1.65,-2.95 -0.25,-5 L -37,2.5 q 0.65,0.3 1,0.9 l 0.5,0.15 q 1.25,0.55 2.3,1.45 5.25,1.2 10.8,1.25 l 0.7,-0.3 q 5.1,-1.25 10,-3.3 1.5,0.75 3.15,0.3 l 0.55,-0.4 1.4,-1 Q -6.45,1.2 -6.1,1 l 0.85,-0.9 0.4,-0.2 2.1,-1.1 0.6,0.05 0.15,0.05 4.15,-1 q -0.4,3.65 2.5,6.7 L 3.7,4.35 -0.95,5.5 q -9.95,2.15 -17.45,9.3 -1.65,0.2 -2.95,-0.7 -3.2,-3.85 -7.95,-0.95 l -1.05,-0.25 q -3.8,-0.45 -6.45,-3.2 l -0.35,-0.2 -0.5,-0.1 h -0.1 M 34,22.35 q 3.3,0.1 6.3,1.25 -3.9,1.9 -7.75,0.95 L 32.5,24.35 32.45,24.1 v -0.15 -0.2 l 0.1,-0.2 0.05,-0.25 0.05,-0.2 0.1,-0.2 0.4,-0.15 0.85,-0.4 M 3.95,11.7 q -4.45,0.65 -8.4,2.55 l 5.55,-0.3 q 1.1,0.1 2.15,0.55 0.75,0.3 1,1 1.65,4.55 6.55,5.2 l 0.05,0.15 0.15,0.2 0.2,0.2 0.45,0.2 0.85,0.05 0.15,-0.1 0.2,-0.2 0.1,-0.2 0.15,-0.4 q 0.4,-0.7 0.3,-1.5 l -0.45,-1 Q 10.6,17.55 8.6,16.4 L 8.55,16.25 8.1,15 7.7,13.95 6.85,13.15 q -1.2,-1.2 -2.9,-1.45"
         fill="#746c6c"
         fill-rule="evenodd"
         stroke="none"
         id="path3" />
      <path
         d="m 7,-0.65 0.55,-0.1 q 3,0.25 5.6,1.55 0.95,0.5 1.65,1.25 l 0.95,0.4 0.75,0.15 q 4.75,-4.35 11.25,-1.85 l 0.65,-0.1 q 1.55,-1.1 3.15,-1.15 -0.45,2.15 0.05,3.9 L 30.15,3.85 26.85,4.1 25.6,2.75 24.5,1.9 24.2,1.7 21.8,1.55 19.85,1.5 19.3,1.75 Q 17.3,2.8 16.45,4.8 L 16,5.4 15.8,5.55 15.6,5.5 Q 14.45,5 13.45,4.4 L 12.3,4.55 Q 10.1,2.5 7.7,0.8 H 8.05 L 7.65,0.75 7.25,0.45 6.85,-0.1 7,-0.65 m 2.6,8.3 -0.7,0.5 Q 6.25,9.85 3.85,9.2 L 2,9.7 q -10.3,1.75 -18.5,8.35 -1.85,1.5 -4.35,0.9 -2.45,-0.55 -4,-2.4 l -1.55,-0.2 q -6.05,1.9 -10.75,-1.95 0.1,-1.8 -0.75,-3.4 l 0.1,-0.4 V 9.95 9.55 l 0.05,-0.15 h 0.1 l 0.5,0.1 0.35,0.2 q 2.65,2.75 6.45,3.2 l 1.05,0.25 q 4.75,-2.9 7.95,0.95 1.3,0.9 2.95,0.7 7.5,-7.15 17.45,-9.3 L 3.7,4.35 4.65,4.6 5,4.9 5.2,5.15 5.8,5.65 q 1.4,1.05 3.15,1.5 l 0.65,0.5"
         fill="#6b5d5d"
         fill-rule="evenodd"
         stroke="none"
         id="path4" />
      <path
         d="m 22.5,-25.15 h 0.1 q -0.6,2.7 -0.5,5.5 l 0.1,1.6 0.15,2.7 -0.25,0.55 q -0.1,0.3 -0.05,0.75 l 0.15,0.65 0.1,0.1 0.2,0.25 0.1,0.1 0.05,0.7 0.2,1.7 0.05,0.05 -0.1,0.05 -0.4,0.15 -0.5,-0.15 -0.1,0.15 -0.7,0.45 h -0.4 l -0.45,-0.05 0.15,-0.9 0.2,-1.4 -0.15,-1.2 v -0.45 l -0.05,-1 -0.4,-1.15 0.45,-0.75 0.15,-0.4 0.05,-0.25 q 0.3,-1.15 0.25,-2.35 l 0.9,-2.2 0.2,-2.1 0.1,-0.2 0.35,-0.8 0.05,-0.1 m -6.3,14.85 q 0.05,-1.05 -0.45,-2.1 l -0.15,-1.9 q -0.35,-1.6 -1.1,-2.9 l -0.45,-1.75 -0.35,-1.6 -0.45,-0.95 q -0.85,-3.35 -0.75,-6.9 2,2 2.9,4.75 v 0.05 l 0.4,1.9 0.8,3.1 q -0.05,0.7 0.15,1.35 l 0.55,1.95 0.35,0.45 0.15,0.15 0.1,1.05 0.15,0.8 0.5,1.3 q 0.25,1.05 0.65,2 l 0.2,0.05 -0.5,0.9 Q 17,-8.85 16.2,-10.3 m -26.8,5.95 -0.8,0.6 -0.95,-0.15 q -0.2,0 -0.35,-0.15 l -0.9,-3.35 0.4,-2.55 q 0.3,-7.35 1,-13.75 l 0.05,-0.05 0.25,2.2 q 0,1.1 0.45,2.05 l 0.3,4.1 -0.2,2 q -0.5,0.85 -0.3,2.25 l 0.2,0.55 q 0.05,3.15 0.85,6.25 m -12.35,0 q -0.55,1.3 -1.6,2.5 -0.2,0.25 -0.65,0.2 -2.85,-0.5 -2.7,-3.1 0.65,-0.7 0.65,-1.8 L -27.2,-8 v -0.05 l 0.1,-0.65 -0.05,-0.85 0.2,-2.2 q 0.55,-2.25 0.55,-4.7 l 0.45,-8.85 0.05,-0.15 0.05,-1.15 q 0.45,-1 0.25,-2.1 -0.1,-0.7 0.2,-1.25 l 0.1,0.75 0.25,0.35 0.35,1.8 0.55,4.4 0.1,0.65 0.35,3.9 v 4.6 l -0.3,0.6 v 0.65 l -0.15,0.15 -0.1,0.2 -0.05,1.25 0.15,2.1 q 0.4,0.45 0.5,1.05 l 0.15,1.65 q 0.5,0.5 0.5,1.25 l 0.05,0.25 m -6.9,0.25 q -0.15,0.75 -0.55,1.4 -1.65,1.45 -3.1,-0.3 l -0.15,-0.15 -0.1,-0.75 0.15,-0.15 q 0.9,-1.8 0.05,-3.65 -1.55,-3.7 -1.35,-7.75 h 0.05 l 0.15,0.35 0.1,0.2 0.2,0.2 0.9,2.75 2.45,5.75 v 0.6 l 0.05,0.4 0.05,0.2 0.35,0.45 0.25,0.2 0.3,0.2 0.2,0.05"
         fill="#78926f"
         fill-rule="evenodd"
         stroke="none"
         id="path5" />
    </g>
    <g
       id="sprite1"
       transform="translate(17.4,15.85)">
      <use
         ffdec:characterId="31"
         height="57.200001"
         transform="matrix(0.5366,0,0,0.5366,-16.6582,-14.546)"
         width="70.75"
         xlink:href="#sprite2"
         id="use5" />
    </g>
    <g
       id="sprite2"
       transform="translate(-8.65,-10.35)">
      <use
         ffdec:characterId="30"
         height="57.200001"
         transform="translate(8.65,10.35)"
         width="70.75"
         xlink:href="#shape1"
         id="use6" />
    </g>
    <g
       id="shape1"
       transform="translate(-8.65,-10.35)">
      <path
         d="m 14.8,41.7 q 0.65,-1.75 2.65,-2.5 1.8,-0.8 3.7,-0.25 1.15,0.45 2.25,1.2 l 0.9,0.4 q 1.65,0.9 2.85,2.5 L 37.8,30.1 q 2.35,-2.8 3.75,-3.95 1.5,-1.15 4.25,-2.4 18.2,-8.85 27.65,-12.6 2.15,-0.8 3.25,-0.8 h 0.8 l 1.9,2.4 -0.2,0.8 q -0.2,1.1 -1.55,3 -5.85,8.25 -18.85,23.8 -1.85,2.35 -3.35,3.5 -1.4,1.15 -4.75,2.75 l -15.15,7.15 q 1.2,1.6 1.75,3.4 l 0.2,1 0.55,2.5 q 0.1,1.95 -1.1,3.55 -1.2,1.65 -3.05,1.9 l -1.3,0.05 q -1.65,0.2 -3.45,-0.65 -1.85,-0.9 -3,-2.6 L 25,60.95 23.8,62.1 q -2.6,2.85 -4.3,3.95 -2.85,1.8 -5.5,1.45 l -1.65,-0.5 -1.2,-0.7 -0.2,-0.2 q -1,-0.85 -1.6,-1.9 L 9.25,64 9.15,63.8 8.75,62.4 q -0.2,-0.8 -0.05,-1.7 0.25,-2.65 2.7,-5.05 1.5,-1.3 4.9,-3.15 L 17.7,51.55 16.05,50 q -1.35,-1.5 -1.8,-3.6 -0.4,-1.85 0.25,-3.45 l 0.3,-1.25"
         fill="#000000"
         fill-opacity="0.372549"
         fill-rule="evenodd"
         stroke="none"
         id="path6" />
    </g>
  </defs>
</svg>
