<?xml version="1.0" encoding="UTF-8" standalone="no"?>
<svg
   ffdec:objectType="frame"
   height="75.342857"
   width="63.811138"
   version="1.1"
   id="svg4"
   sodipodi:docname="ITEM Jank Alloy Hat.svg"
   xmlns:inkscape="http://www.inkscape.org/namespaces/inkscape"
   xmlns:sodipodi="http://sodipodi.sourceforge.net/DTD/sodipodi-0.dtd"
   xmlns:xlink="http://www.w3.org/1999/xlink"
   xmlns="http://www.w3.org/2000/svg"
   xmlns:svg="http://www.w3.org/2000/svg"
   xmlns:ffdec="https://www.free-decompiler.com/flash">
  <sodipodi:namedview
     id="namedview4"
     pagecolor="#ffffff"
     bordercolor="#000000"
     borderopacity="0.25"
     inkscape:showpageshadow="2"
     inkscape:pageopacity="0.0"
     inkscape:pagecheckerboard="0"
     inkscape:deskcolor="#d1d1d1"
     fit-margin-top="5"
     fit-margin-left="5"
     fit-margin-right="5"
     fit-margin-bottom="5" />
  <g
     transform="translate(27.490722,38.95)"
     id="g1">
    <use
       ffdec:characterId="17"
       height="119.15"
       id="rarity"
       transform="translate(-58.5,-60.65)"
       width="119.15"
       xlink:href="#sprite0" />
    <use
       ffdec:characterId="752"
       height="75.349998"
       transform="translate(-27.5,-38.95)"
       width="63.799999"
       xlink:href="#shape0"
       id="use1" />
  </g>
  <defs
     id="defs4">
    <g
       id="shape0"
       transform="translate(28.05,39.7)">
      <path
         d="m -3.2,-33.35 -0.15,0.15 -0.15,0.25 -0.75,0.4 -2,2.8 -1.15,1.5 -0.8,2 -0.7,1.2 -0.3,2.2 q -0.15,0.95 -0.7,1.7 l -0.15,2.75 v 1.3 q -0.1,0.65 -0.35,1.3 0.9,7.85 8.95,10.25 11.2,3.4 20.6,-2.8 l 1.8,-1.05 v -0.15 q 0.7,-3.9 0.6,-7.9 l 0.15,-0.85 -0.2,-0.65 -0.1,-0.45 v -0.2 -0.65 l -0.55,-0.95 q -4.8,-8.1 -13.35,-12.05 -2.1,-1 -4.3,-1.35 l -3.45,-0.15 -0.4,0.05 h -0.4 l -0.3,0.1 -1.05,0.55 -0.15,0.2 -0.1,0.15 -0.1,0.1 -0.25,0.1 -0.2,0.1 v 0.05 m 19,22.8 Q 15.25,-12 17.05,-13.1 l 0.25,-0.05 0.5,-0.05 v -0.05 l 0.5,0.2 q 3.05,1.4 0.3,3.8 -1.15,1 -2.15,-0.2 -0.5,-0.55 -0.65,-1.1 m -38.1,5.3 q 0,3.75 0.75,7.4 l 0.05,0.2 0.4,0.85 0.25,0.45 0.4,0.85 0.1,0.2 q 5.85,10.15 17.7,9.25 l 3.7,-0.65 q 12.3,-3.5 18,-15.1 l 0.25,-0.95 q -8.85,4.2 -19.05,2.3 -9.8,-1.85 -12.85,-9.55 -0.9,-2.25 -1.25,-5 -0.2,-1.9 0,-3.8 0.45,-4.55 2.45,-8.7 1.05,-2.2 2.5,-3.85 l 0.35,-0.4 -0.55,0.3 q -6.4,3.9 -9.95,11.35 -1.55,3.15 -2.45,6.6 l -0.75,6 -0.05,2.25 M 25.55,-9.2 v -0.05 l -0.1,-0.2 -0.1,-0.2 v 0.15 l 0.05,0.35 -0.1,1.15 -0.4,1.95 -0.65,1.7 -0.95,3.3 q -1.75,5 -5.25,9.3 -3.45,4.35 -8.3,7 l -1.6,0.85 4.1,-0.3 q 5.25,-1.8 8.65,-5.4 3.05,-3.25 4.65,-7.9 0.8,-2.25 1.1,-4.6 L 26.6,-3.45 Q 26.35,-6.15 25.75,-8.8 L 25.7,-9 25.55,-9.2 M -1.5,-39.7 q 14.25,0.05 23.05,11.3 6.85,8.7 8.2,19.45 l 0.05,0.2 0.05,0.25 0.1,0.2 0.1,0.2 0.05,2.15 q 0.1,2.4 -0.2,4.7 l -0.45,2.4 1.35,1 0.55,0.85 q 5.15,8.1 4.3,18 -0.7,7.95 -8.85,10.25 l -4.8,1.5 q -13.05,4.5 -26.95,2 -6.45,-1.2 -7.7,-7 -0.2,-0.8 0.1,-1.65 l -0.15,-3 q 0.1,-1.8 0.55,-3.45 v -0.6 q -2.05,-0.75 -4,-1.95 -3.45,-2.2 -6.05,-5.25 -3.15,-3.6 -4.5,-8.15 -2.55,-8.65 -0.25,-17.15 v -0.2 l 0.05,-0.65 0.1,-0.65 0.35,-0.85 q 1.45,-6.95 5.9,-12.5 7.5,-9.3 19.05,-11.4 m -0.5,10.6 1.15,0.4 0.3,0.15 q 1.75,3.9 -2.5,3.05 -0.8,-0.15 -0.9,-0.95 -0.3,-2.35 1.95,-2.65 m -2.25,13.7 q 3.95,1.8 0.3,4.1 -0.75,0.5 -1.35,-0.2 -2.5,-2.7 1.05,-3.9 M 1.5,18.9 q -5.35,1.85 -10.25,1.05 v 2.2 q -0.2,2.1 0.25,4.25 l 0.7,0.8 1.3,1.35 q 9.95,2.3 19.15,0.75 -0.8,-3.35 -1,-6.85 L 11.4,19.55 Q 7.65,19.8 3.9,18.05 L 1.5,18.9 m 26.3,-12.65 -0.05,-0.1 -0.1,0.3 q -2.4,5.9 -7.75,9.75 l -0.5,0.35 q -2.45,1.65 -4.9,2.4 -0.2,1.3 0.05,2.65 v 1.95 l 0.65,5.25 q 7.45,-1.7 14.45,-6 0.9,-0.55 1,-1.65 l 0.1,-2.25 Q 30.85,12.2 27.8,6.25 M 23.65,22.2 q -0.15,1.1 -2.1,2.3 -0.85,0.55 -1.65,-0.2 -2.55,-2.45 0.05,-4.15 l 0.7,-0.4 0.55,-0.15 q 2.65,1.2 2.45,2.6"
         fill="#000000"
         fill-rule="evenodd"
         stroke="none"
         id="path1" />
      <path
         d="m -0.65,-34.7 0.4,-0.05 3.45,0.15 q 2.2,0.35 4.3,1.35 8.55,3.95 13.35,12.05 l 0.55,0.95 v 0.65 0.2 l 0.1,0.45 0.2,0.65 -0.15,0.85 q 0.1,4 -0.6,7.9 v 0.15 l -1.8,1.05 q -9.4,6.2 -20.6,2.8 -8.05,-2.4 -8.95,-10.25 0.25,-0.65 0.35,-1.3 v -1.3 l 0.15,-2.75 q 0.55,-0.75 0.7,-1.7 l 0.3,-2.2 0.7,-1.2 0.8,-2 1.15,-1.5 2,-2.8 0.75,-0.4 0.15,-0.25 0.15,-0.15 0.2,-0.15 0.25,-0.1 0.1,-0.1 2,-1 m 16.45,24.15 q 0.15,0.55 0.65,1.1 1,1.2 2.15,0.2 2.75,-2.4 -0.3,-3.8 l -0.5,-0.2 v 0.05 l -0.5,0.05 -0.25,0.05 q -1.8,1.1 -1.25,2.55 m -28.4,0.55 -1.1,3.15 q -0.5,1.25 -1.7,1.85 l -6.45,0.2 -0.45,-0.45 0.05,-2.25 0.75,-6 q 0.9,-3.45 2.45,-6.6 3.55,-7.45 9.95,-11.35 l 0.2,0.1 q -1.45,1.65 -2.5,3.85 -2,4.15 -2.45,8.7 -0.2,1.9 0,3.8 0.35,2.75 1.25,5 m 38,0.85 0.05,-0.05 0.05,-0.05 0.05,0.05 0.15,0.2 0.05,0.2 q 0.6,2.65 0.85,5.35 l 0.05,1.35 q -0.3,2.35 -1.1,4.6 -1.6,4.65 -4.65,7.9 l -0.15,-0.3 q 0,-1.85 0.5,-3.65 0.3,-1.05 0.85,-1.95 0.6,-1.35 0.6,-2.8 0.05,-1 0.55,-1.9 l 0.05,-0.85 0.95,-3.3 0.65,-1.7 0.4,-1.95 0.1,-1.15 M -4.25,-15.4 q -3.55,1.2 -1.05,3.9 0.6,0.7 1.35,0.2 3.65,-2.3 -0.3,-4.1 M -2,-29.1 q -2.25,0.3 -1.95,2.65 0.1,0.8 0.9,0.95 4.25,0.85 2.5,-3.05 L -0.85,-28.7 -2,-29.1 M 27.65,6.45 27.8,6.25 q 3.05,5.95 2.95,12.65 -2.2,3.45 -7.1,3.3 0.2,-1.4 -2.45,-2.6 l -0.55,0.15 -0.7,0.4 -0.3,-0.8 q -0.45,-1.5 -0.25,-2.8 l 0.5,-0.35 q 5.35,-3.85 7.75,-9.75"
         fill="#d9d9d9"
         fill-rule="evenodd"
         stroke="none"
         id="path2" />
      <path
         d="m -12.6,-10 q 3.05,7.7 12.85,9.55 10.2,1.9 19.05,-2.3 l -0.25,0.95 q -5.7,11.6 -18,15.1 l -3.7,0.65 q -11.85,0.9 -17.7,-9.25 l -0.1,-0.2 -0.4,-0.85 -0.25,-0.45 -0.4,-0.85 -0.05,-0.2 q -0.75,-3.65 -0.75,-7.4 l 0.45,0.45 6.45,-0.2 q 1.2,-0.6 1.7,-1.85 l 1.1,-3.15 m 33.5,20.4 q -3.4,3.6 -8.65,5.4 l -4.1,0.3 1.6,-0.85 q 4.85,-2.65 8.3,-7 3.5,-4.3 5.25,-9.3 l -0.05,0.85 q -0.5,0.9 -0.55,1.9 0,1.45 -0.6,2.8 -0.55,0.9 -0.85,1.95 -0.5,1.8 -0.5,3.65 l 0.15,0.3 M 1.5,18.9 3.9,18.05 q 3.75,1.75 7.5,1.5 l 0.25,2.9 q 0.2,3.5 1,6.85 -9.2,1.55 -19.15,-0.75 L -7.8,27.2 -8.5,26.4 q -0.45,-2.15 -0.25,-4.25 v -2.2 q 4.9,0.8 10.25,-1.05 m 29.25,0 -0.1,2.25 q -0.1,1.1 -1,1.65 -7,4.3 -14.45,6 L 14.55,23.55 V 21.6 q -0.25,-1.35 -0.05,-2.65 2.45,-0.75 4.9,-2.4 -0.2,1.3 0.25,2.8 l 0.3,0.8 q -2.6,1.7 -0.05,4.15 0.8,0.75 1.65,0.2 1.95,-1.2 2.1,-2.3 4.9,0.15 7.1,-3.3"
         fill="#afafaf"
         fill-rule="evenodd"
         stroke="none"
         id="path3" />
    </g>
    <g
       id="sprite1"
       transform="translate(17.4,15.85)">
      <use
         ffdec:characterId="31"
         height="57.200001"
         transform="matrix(0.5366,0,0,0.5366,-16.6582,-14.546)"
         width="70.75"
         xlink:href="#sprite2"
         id="use3" />
    </g>
    <g
       id="sprite2"
       transform="translate(-8.65,-10.35)">
      <use
         ffdec:characterId="30"
         height="57.200001"
         transform="translate(8.65,10.35)"
         width="70.75"
         xlink:href="#shape1"
         id="use4" />
    </g>
    <g
       id="shape1"
       transform="translate(-8.65,-10.35)">
      <path
         d="m 14.8,41.7 q 0.65,-1.75 2.65,-2.5 1.8,-0.8 3.7,-0.25 1.15,0.45 2.25,1.2 l 0.9,0.4 q 1.65,0.9 2.85,2.5 L 37.8,30.1 q 2.35,-2.8 3.75,-3.95 1.5,-1.15 4.25,-2.4 18.2,-8.85 27.65,-12.6 2.15,-0.8 3.25,-0.8 h 0.8 l 1.9,2.4 -0.2,0.8 q -0.2,1.1 -1.55,3 -5.85,8.25 -18.85,23.8 -1.85,2.35 -3.35,3.5 -1.4,1.15 -4.75,2.75 l -15.15,7.15 q 1.2,1.6 1.75,3.4 l 0.2,1 0.55,2.5 q 0.1,1.95 -1.1,3.55 -1.2,1.65 -3.05,1.9 l -1.3,0.05 q -1.65,0.2 -3.45,-0.65 -1.85,-0.9 -3,-2.6 L 25,60.95 23.8,62.1 q -2.6,2.85 -4.3,3.95 -2.85,1.8 -5.5,1.45 l -1.65,-0.5 -1.2,-0.7 -0.2,-0.2 q -1,-0.85 -1.6,-1.9 L 9.25,64 9.15,63.8 8.75,62.4 q -0.2,-0.8 -0.05,-1.7 0.25,-2.65 2.7,-5.05 1.5,-1.3 4.9,-3.15 L 17.7,51.55 16.05,50 q -1.35,-1.5 -1.8,-3.6 -0.4,-1.85 0.25,-3.45 l 0.3,-1.25"
         fill="#000000"
         fill-opacity="0.372549"
         fill-rule="evenodd"
         stroke="none"
         id="path4" />
    </g>
  </defs>
</svg>
