<?xml version="1.0" encoding="UTF-8" standalone="no"?>
<svg
   ffdec:objectType="frame"
   height="59.502777"
   width="50.496296"
   version="1.1"
   id="svg7"
   xmlns:xlink="http://www.w3.org/1999/xlink"
   xmlns="http://www.w3.org/2000/svg"
   xmlns:svg="http://www.w3.org/2000/svg"
   xmlns:ffdec="https://www.free-decompiler.com/flash">
  <g
     transform="translate(25.774074,30.752778)"
     id="g1">
    <use
       ffdec:characterId="17"
       height="119.15"
       id="rarity"
       transform="translate(-58.5,-60.65)"
       width="119.15"
       xlink:href="#sprite0" />
    <use
       ffdec:characterId="111"
       height="59.900002"
       transform="translate(-25.75,-30.75)"
       width="50.450001"
       xlink:href="#shape0"
       id="use1" />
  </g>
  <defs
     id="defs7">
    <g
       id="shape0"
       transform="translate(25.45,33.25)">
      <path
         d="m 10.05,-29.8 q 0.5,1.15 0.1,2.45 l 0.2,0.45 0.05,0.15 q 5.1,0.45 10.5,2.85 2.3,1.05 3,2.4 l 0.3,0.9 0.55,1.1 Q 25.1,-18.55 25,-16.85 24.5,2.2 19.3,21 18.7,23.1 18,23.85 16.9,25.1 14,25.6 l -20.65,0.65 q -6.8,-0.6 -11.45,-2.25 -2.75,-0.95 -3.9,-2.4 -1.05,-1.35 -1.55,-4.45 l -0.8,-5 Q -25.8,1.6 -24.8,-13.2 l -0.45,-1.1 q -0.55,-1.9 0.25,-3.95 0.7,-1.95 2.3,-3.3 2.5,-2.2 7.35,-3.3 l 2.1,-0.25 0.05,-1.25 q 0.3,-1.65 1.45,-2.9 1.75,-2 5.55,-3 6.75,-1.9 12.55,-0.2 2.9,0.85 3.7,2.65 m -13.35,4.25 2.25,-0.2 q 3.6,-0.6 5.8,-2.35 l -4.7,-0.65 -1.25,-0.1 -0.95,-0.05 q -1.35,0.05 -3,0.85 l -1.9,0.9 -1.85,0.9 q 0.2,0.6 1.45,0.7 l 1.25,0.05 2.9,-0.05 m -16.65,7.85 H -20 l -0.5,0.8 0.1,0.75 0.1,0.55 1.35,0.95 h 0.05 l 2.65,0.85 5.45,1.15 0.85,0.15 6.65,0.75 4.35,-0.15 9.1,-1.2 q 5.1,-1.3 8.05,-4.25 0.85,-0.95 0.7,-1.6 -0.15,-0.5 -1.15,-1.05 -3.7,-1.55 -7.5,-1.75 l -0.3,1.8 q -0.45,1.7 -1.9,3.1 -1.35,1.2 -3.2,1.9 -2.3,0.8 -6.7,0.9 H -4.7 l -2.75,-0.45 -2.05,-0.85 -0.65,-0.35 -1.6,-1 -0.15,-0.2 -0.6,-1.05 -0.35,-1.25 -0.15,-0.85 -0.15,-1 -3.1,0.9 -2.35,1.25 -0.9,0.75 -0.4,0.35 -0.05,0.1 m 13.95,-1.25 3.95,0.5 q 3.65,0 5.75,-0.8 1.65,-0.6 2.2,-1.55 l 0.4,-1.3 -0.5,-0.25 -0.45,-0.45 q -4.7,2.35 -11.2,2.2 l -0.45,-0.05 -2.3,-0.25 0.05,0.3 0.95,1 q 0.65,0.4 1.6,0.65 m 24.9,13 0.45,-5.4 -0.7,0.45 Q 15.6,-8.8 9.7,-7.6 -2.95,-5.1 -16.5,-8.35 l -0.35,-0.1 q -1.7,-0.4 -3,-0.85 l 0.05,1.7 0.05,1 0.15,7.55 0.05,0.55 q 0.25,6.25 1.5,12.95 l 0.3,1.5 0.55,1.45 q 0.45,0.65 2.05,1.15 12,3.75 26.8,1.45 1.55,-0.3 2.15,-0.8 0.7,-0.65 1.1,-2.45 L 15.35,14.7 Q 17.3,5.55 18.05,0.55 l 0.85,-6.5 m -20.8,5.3 3,6.35 Q 1.95,7.65 1.45,8.55 0.85,9.6 -1.2,9.7 l -2.9,-0.15 3,4.45 q 0.75,1.2 0.7,1.8 0,0.6 -0.4,1.1 -0.4,0.5 -1,0.55 Q -2.5,17.5 -3.7,16.8 -8.35,13.75 -9.95,8.1 -10.35,6.7 -10,5.95 -9.45,4.8 -7.65,4.6 L -5.6,4.8 -4.35,4.55 -6,0.85 l -0.8,-2 q -0.25,-1.25 0.55,-2 0.5,-0.45 1.3,-0.4 0.75,0.05 1.4,0.5 0.8,0.6 1.65,2.4"
         fill="#000000"
         fill-rule="evenodd"
         stroke="none"
         id="path1" />
      <path
         d="m -1.2,-28.85 0.05,0.55 q 0,1.1 -0.7,1.8 l -1.05,0.75 -0.4,0.2 -2.9,0.05 -1.25,-0.05 q -1.25,-0.1 -1.45,-0.7 l 1.85,-0.9 1.9,-0.9 q 1.65,-0.8 3,-0.85 l 0.95,0.05 m -10.7,11.95 -0.25,0.1 q -0.9,0.45 -2.95,0.55 h -0.2 l -1.35,0.4 -1.35,0.1 q -0.75,-0.2 -1.35,-0.9 l -0.55,-0.95 -0.05,-0.1 0.05,-0.1 0.4,-0.35 0.9,-0.75 2.35,-1.25 3.1,-0.9 0.15,1 0.15,0.85 0.35,1.25 0.6,1.05 m 6.05,-3.7 0.1,0.85 q -0.05,0.45 -0.25,0.8 -0.95,-0.25 -1.6,-0.65 l -0.95,-1 -0.05,-0.3 2.3,0.25 0.45,0.05 m -10.65,12.25 0.05,1.25 v 1.65 q -0.15,2.4 -0.6,3.7 -0.8,2.35 -2.5,3.25 l -0.05,-0.55 -0.15,-7.55 -0.05,-1 -0.05,-1.7 q 1.3,0.45 3,0.85 l 0.35,0.1"
         fill="#ffffff"
         fill-rule="evenodd"
         stroke="none"
         id="path2" />
      <path
         d="m -1.2,-28.85 1.25,0.1 4.7,0.65 q -2.2,1.75 -5.8,2.35 l -2.25,0.2 0.4,-0.2 1.05,-0.75 q 0.7,-0.7 0.7,-1.8 l -0.05,-0.55 m -4.65,8.25 q 6.5,0.15 11.2,-2.2 l 0.45,0.45 0.5,0.25 -0.4,1.3 q -0.55,0.95 -2.2,1.55 -2.1,0.8 -5.75,0.8 L -6,-18.95 q 0.2,-0.35 0.25,-0.8 l -0.1,-0.85"
         fill="#b8b8b8"
         fill-rule="evenodd"
         stroke="none"
         id="path3" />
      <path
         d="m -11.9,-16.9 0.15,0.2 1.6,1 0.65,0.35 2.05,0.85 2.75,0.45 h 2.85 q 4.4,-0.1 6.7,-0.9 1.85,-0.7 3.2,-1.9 1.45,-1.4 1.9,-3.1 l 0.3,-1.8 q 3.8,0.2 7.5,1.75 1,0.55 1.15,1.05 0.15,0.65 -0.7,1.6 -2.95,2.95 -8.05,4.25 l -9.1,1.2 -4.35,0.15 -6.65,-0.75 -0.85,-0.15 -5.45,-1.15 -2.65,-0.85 h -0.05 l -1.35,-0.95 -0.1,-0.55 -0.1,-0.75 0.5,-0.8 h 0.05 l 0.05,0.1 0.55,0.95 q 0.6,0.7 1.35,0.9 l 1.35,-0.1 1.35,-0.4 h 0.2 q 2.05,-0.1 2.95,-0.55 l 0.25,-0.1"
         fill="#a1a1a1"
         fill-rule="evenodd"
         stroke="none"
         id="path4" />
      <path
         d="m -16.45,-5.45 4.4,0.9 q 7.95,1.2 13.8,1.1 7.55,-0.05 13.55,-2.1 2.35,-0.8 3.6,-0.4 l -0.85,6.5 q -0.75,5 -2.7,14.15 l -0.9,0.3 -6.6,2.3 -11.5,0.65 q -7.4,-0.35 -11.6,-2.1 l -2.8,-1.4 q -1.25,-6.7 -1.5,-12.95 1.7,-0.9 2.5,-3.25 0.45,-1.3 0.6,-3.7 m 14.55,4.8 q -0.85,-1.8 -1.65,-2.4 -0.65,-0.45 -1.4,-0.5 -0.8,-0.05 -1.3,0.4 -0.8,0.75 -0.55,2 l 0.8,2 1.65,3.7 L -5.6,4.8 -7.65,4.6 q -1.8,0.2 -2.35,1.35 -0.35,0.75 0.05,2.15 1.6,5.65 6.25,8.7 1.2,0.7 1.9,0.65 0.6,-0.05 1,-0.55 0.4,-0.5 0.4,-1.1 0.05,-0.6 -0.7,-1.8 l -3,-4.45 2.9,0.15 Q 0.85,9.6 1.45,8.55 1.95,7.65 1.1,5.7 l -3,-6.35"
         fill="#ad9a9a"
         fill-rule="evenodd"
         stroke="none"
         id="path5" />
      <path
         d="m 18.9,-5.95 q -1.25,-0.4 -3.6,0.4 -6,2.05 -13.55,2.1 -5.85,0.1 -13.8,-1.1 l -4.4,-0.9 V -7.1 l -0.05,-1.25 q 13.55,3.25 26.2,0.75 5.9,-1.2 8.95,-3.3 l 0.7,-0.45 -0.45,5.4 m -36.95,20.4 2.8,1.4 q 4.2,1.75 11.6,2.1 l 11.5,-0.65 6.6,-2.3 0.9,-0.3 -0.45,2.05 q -0.4,1.8 -1.1,2.45 -0.6,0.5 -2.15,0.8 -14.8,2.3 -26.8,-1.45 -1.6,-0.5 -2.05,-1.15 l -0.55,-1.45 -0.3,-1.5"
         fill="#8c8c8c"
         fill-rule="evenodd"
         stroke="none"
         id="path6" />
    </g>
    <g
       id="sprite1"
       transform="translate(17.4,15.85)">
      <use
         ffdec:characterId="31"
         height="57.200001"
         transform="matrix(0.5366,0,0,0.5366,-16.6582,-14.546)"
         width="70.75"
         xlink:href="#sprite2"
         id="use6" />
    </g>
    <g
       id="sprite2"
       transform="translate(-8.65,-10.35)">
      <use
         ffdec:characterId="30"
         height="57.200001"
         transform="translate(8.65,10.35)"
         width="70.75"
         xlink:href="#shape1"
         id="use7" />
    </g>
    <g
       id="shape1"
       transform="translate(-8.65,-10.35)">
      <path
         d="m 14.8,41.7 q 0.65,-1.75 2.65,-2.5 1.8,-0.8 3.7,-0.25 1.15,0.45 2.25,1.2 l 0.9,0.4 q 1.65,0.9 2.85,2.5 L 37.8,30.1 q 2.35,-2.8 3.75,-3.95 1.5,-1.15 4.25,-2.4 18.2,-8.85 27.65,-12.6 2.15,-0.8 3.25,-0.8 h 0.8 l 1.9,2.4 -0.2,0.8 q -0.2,1.1 -1.55,3 -5.85,8.25 -18.85,23.8 -1.85,2.35 -3.35,3.5 -1.4,1.15 -4.75,2.75 l -15.15,7.15 q 1.2,1.6 1.75,3.4 l 0.2,1 0.55,2.5 q 0.1,1.95 -1.1,3.55 -1.2,1.65 -3.05,1.9 l -1.3,0.05 q -1.65,0.2 -3.45,-0.65 -1.85,-0.9 -3,-2.6 L 25,60.95 23.8,62.1 q -2.6,2.85 -4.3,3.95 -2.85,1.8 -5.5,1.45 l -1.65,-0.5 -1.2,-0.7 -0.2,-0.2 q -1,-0.85 -1.6,-1.9 L 9.25,64 9.15,63.8 8.75,62.4 q -0.2,-0.8 -0.05,-1.7 0.25,-2.65 2.7,-5.05 1.5,-1.3 4.9,-3.15 L 17.7,51.55 16.05,50 q -1.35,-1.5 -1.8,-3.6 -0.4,-1.85 0.25,-3.45 l 0.3,-1.25"
         fill="#000000"
         fill-opacity="0.372549"
         fill-rule="evenodd"
         stroke="none"
         id="path7" />
    </g>
  </defs>
</svg>
