<?xml version="1.0" encoding="UTF-8" standalone="no"?>
<svg
   ffdec:objectType="frame"
   height="76.578575"
   width="87.542107"
   version="1.1"
   id="svg5"
   sodipodi:docname="ITEM Big Rock Hat.svg"
   xmlns:inkscape="http://www.inkscape.org/namespaces/inkscape"
   xmlns:sodipodi="http://sodipodi.sourceforge.net/DTD/sodipodi-0.dtd"
   xmlns:xlink="http://www.w3.org/1999/xlink"
   xmlns="http://www.w3.org/2000/svg"
   xmlns:svg="http://www.w3.org/2000/svg"
   xmlns:ffdec="https://www.free-decompiler.com/flash">
  <sodipodi:namedview
     id="namedview5"
     pagecolor="#ffffff"
     bordercolor="#000000"
     borderopacity="0.25"
     inkscape:showpageshadow="2"
     inkscape:pageopacity="0.0"
     inkscape:pagecheckerboard="0"
     inkscape:deskcolor="#d1d1d1"
     fit-margin-top="5"
     fit-margin-left="5"
     fit-margin-right="5"
     fit-margin-bottom="5" />
  <g
     transform="translate(44.85,39.078571)"
     id="g1">
    <use
       ffdec:characterId="17"
       height="119.15"
       id="rarity"
       transform="translate(-58.5,-60.65)"
       width="119.15"
       xlink:href="#sprite0" />
    <use
       ffdec:characterId="1253"
       height="76.599998"
       transform="translate(-44.9,-39.1)"
       width="87.599998"
       xlink:href="#shape0"
       id="use1" />
  </g>
  <defs
     id="defs5">
    <g
       id="shape0"
       transform="translate(43.6,37.2)">
      <path
         d="m 9.95,-30.3 -1.1,0.85 -5.45,5.3 -3.9,3.5 -0.6,0.55 -0.45,0.4 -0.45,0.45 -0.6,-0.05 q -0.2,-0.3 0.1,-0.7 l 0.4,-0.6 q 1.15,-1.7 3.75,-4.15 l 3.1,-3 2.4,-3.35 0.95,-1.3 -9.3,1.65 q -8.4,1.65 -12.25,3 -2.6,0.9 -3.95,1.95 l -2.5,2.5 q -4.8,5.4 -6.85,8.7 -0.85,1.3 -0.95,2.25 l 0.25,1.9 0.15,0.5 1.1,4.25 q 0.45,2.4 -0.1,4.2 -0.35,1.25 -1.5,3 l -0.75,1.2 -1.05,1.75 q -1.15,2.5 -1.15,6.3 l 0.1,2.75 0.25,3.85 0.35,4.1 q 0.45,1.8 2.75,5.4 2.1,3.3 2.4,5.4 l 0.15,1.1 0.55,0.9 1.4,0.3 h 12.45 L 0.45,33.65 2,33.35 Q 3.4,33.2 4.3,32.6 l 1.1,-1 0.4,-0.5 q 2.9,-3.7 5.3,-4.45 l 1.6,-0.1 h 0.05 l 1,0.25 2.7,1.85 0.45,0.3 0.9,0.15 L 20.1,29 20.9,28.95 30.15,9.35 26.7,3.6 Q 25.35,1.3 25.3,0 q 0,-1.35 1.35,-3.85 L 28,-6.7 l 1.5,-4.25 q -3.25,-3.7 -7.15,-6.1 -1.45,-0.9 -2.15,-1.5 l -1.3,0.85 q -2.15,1.35 -5.45,4.35 L 8.1,-8.8 Q 6.15,-7.3 5.75,-6.55 5.5,-6.05 5.4,-5.3 l -0.1,0.65 v 0.6 0.8 Q 5.4,-0.9 4.95,0.1 L 4.5,0.95 4.35,1.3 4.2,1.85 l 0.1,1.1 0.25,0.7 5.25,14.15 0.25,1.1 q -0.1,0.7 -0.7,0.75 -0.5,0.1 -1.05,-0.85 L 7.4,17 Q 5.55,13.25 2.8,6.9 L 2.45,6.05 1.6,4.1 1.5,3.8 Q 1.1,2.8 1.05,2.1 V 1.2 L 1.4,0.35 1.55,0.1 2.15,-1.05 Q 2.6,-2 2.5,-3.9 V -4.1 Q 2.4,-6.35 2.65,-7.25 3.05,-8.7 4.45,-10 l 2.7,-2.15 3.3,-2.75 7.2,-6.55 0.6,-0.55 -3.3,-9.35 -0.8,-1.35 -0.95,-0.25 -0.45,0.7 q -0.5,0.55 -2,1.4 l -0.8,0.55 m -41.2,13.8 q 1.75,-2.9 6.7,-8.6 2.65,-3.05 4.3,-4.25 2.55,-1.85 6.7,-3.05 l 8.35,-2.05 14.15,-2.5 q 3.6,-0.4 5.4,-0.1 1.95,0.25 3.05,1.35 0.85,0.8 1.55,3.05 l 2.7,7.8 q 0.8,2.2 1.6,3.2 0.75,0.85 3.05,2.3 2.4,1.6 6.15,5.2 1.3,1.2 1.55,2.1 0.3,1.05 -0.4,2.7 -1.4,4 -3.15,7.6 -0.75,1.6 -0.65,2.3 0.1,0.7 0.8,1.8 L 32.9,6 q 1.25,1.85 1.25,3.2 0,1.1 -1.25,3.2 -1.45,2.4 -4.5,9.15 -2.6,5.85 -4.8,8.9 l -0.6,0.7 q -0.15,1.5 -1.6,2 l -2.1,0.15 -1.25,-0.05 -1.2,-0.1 Q 15.4,33 14.65,32.15 L 14.1,31.5 13.3,30.85 12.15,29.75 q -2.1,1.8 -3.45,4.35 L 8,35.35 7.15,36.45 q -0.8,0.7 -2.65,1.1 -5.85,1.25 -13.95,1.6 L -23.6,39.4 q -2.55,0 -3.5,-0.6 -1.3,-0.75 -1.85,-2.75 l -0.85,-3.3 -0.65,-1.65 -1.5,0.35 -3.25,0.7 -3.3,0.3 q -1.3,-0.1 -1.9,-0.55 l -1.15,-1.45 -1.05,-1.85 q -0.85,-1.3 -0.95,-2.3 l 0.1,-1.65 1.2,-6.05 q 0.4,-1.5 1.05,-1.95 l 1.2,-0.5 1.6,-1 q 1.15,-0.65 3.1,-0.95 l -0.25,-4.65 q 0.05,-3.6 1.15,-6 l 2.35,-3.95 q 1.4,-2.35 1.35,-4.15 0,-1.25 -1.05,-3.55 -1,-2.35 -1.05,-3.6 -0.1,-2.1 1.55,-4.8 M 17.95,4.2 17.75,3.75 Q 17.6,3.4 17.6,2.75 l 0.55,-2.8 q -0.4,-0.1 -0.85,-0.35 l -0.55,-0.35 -2.5,-1.65 -1.3,-0.95 Q 12.1,-4 11.7,-4.4 l -0.25,-0.5 v -0.25 q 0.15,-0.45 1.1,-0.2 l 4.9,1.7 1.55,0.7 0.1,0.1 0.15,-0.15 2.6,-2 0.7,-0.45 0.75,0.15 q 0.35,0.35 0,1.2 L 22.9,-3.4 20.75,-1.05 20.7,-1 20.5,0 20.1,1.25 19.1,3.95 18.75,4.4 18.1,4.35 17.95,4.2 M 29.6,36.15 q -1.35,0 -1.9,-0.6 -0.5,-0.55 -0.6,-1.7 l -0.55,-3 -0.45,-1.65 q 0,-0.95 0.6,-1.9 0.65,-1.35 2.25,-3.95 l 1,-1.55 q 0.7,-1.25 1.35,-1.65 0.8,-0.55 2.4,-0.65 4.45,-0.1 7.85,2.55 1.3,1 1.85,1.95 0.75,1.35 0.55,2.65 l -0.6,1.65 -1.35,2.5 -1.15,2 -0.65,1.4 q -0.55,0.55 -2.4,0.55 l -4.1,0.75 -4.1,0.65 m 8.9,-6.35 0.7,-1.05 1.1,-2.15 0.2,-0.75 -0.4,-0.6 -0.4,-0.5 -0.55,-0.3 Q 38.2,23.95 38.2,22.8 l -4.05,-0.2 q -0.7,0.1 -1,0.3 l -0.8,1.1 -1.75,2.75 -1,1.9 v 0.95 l 0.1,0.4 0.3,1 0.05,0.75 q 0,0.5 0.15,0.75 l 2.4,-0.45 1.05,-0.35 2.5,-0.45 1.15,-0.15 0.4,-0.1 0.25,-0.3 0.55,-0.9 m -61.65,-28.9 3.8,-1.05 2.75,-0.65 3.75,-0.55 10.4,-0.5 0.35,0.05 0.9,0.35 q 0.5,0.35 0.55,1 l 0.05,0.15 q 0,0.55 -0.35,1 L -1.3,1.05 q -0.55,0.4 -1.35,0.4 L -4.6,1.25 -8.1,0.9 -11.35,0.85 -13.3,1.1 -15.5,1.2 -17.7,1.3 -19.65,1.4 -21.7,1.35 -23.2,1.7 -23.7,1.45 Q -23.75,1.1 -23.15,0.9 m -11.55,21.85 -0.2,-1.25 -0.15,-1.2 -0.1,-3.05 -1.7,0.55 -1.15,1 -0.6,0.4 -0.25,0.75 -0.8,4.75 -0.05,0.8 0.05,0.05 0.1,0.3 0.15,0.4 0.7,1.3 0.75,0.85 0.65,0.05 2.55,-0.45 2.1,-0.5 -1.55,-2.9 -0.5,-1.85"
         fill="#000000"
         fill-rule="evenodd"
         stroke="none"
         id="path1" />
      <path
         d="m -27.45,-10.45 -0.25,-1.9 q 0.1,-0.95 0.95,-2.25 2.05,-3.3 6.85,-8.7 l 2.5,-2.5 q 1.35,-1.05 3.95,-1.95 3.85,-1.35 12.25,-3 l 9.3,-1.65 -0.95,1.3 -2.4,3.35 -3.1,3 q -2.6,2.45 -3.75,4.15 l -0.4,0.6 q -0.3,0.4 -0.1,0.7 l 0.6,0.05 0.45,-0.45 0.45,-0.4 0.6,-0.55 3.9,-3.5 5.45,-5.3 1.1,-0.85 -0.35,0.6 -1.7,1.8 -4.15,4 -4,4.15 -0.4,0.4 q -2,1.9 -3.95,3.3 -2.65,1.85 -5.15,2.75 -1.75,0.6 -5.35,1.3 -8.1,1.5 -12.15,1.55 h -0.2 M 1.4,0.35 1.05,1.2 V 2.1 Q 1.1,2.8 1.5,3.8 l 0.1,0.3 0.85,1.95 -1.4,1.5 -2.5,2.45 -2.25,1.8 -1.25,0.45 -1.55,0.3 -3.95,0.45 -8.5,0.55 q -4.9,0.4 -10.55,0.1 l -1.15,-0.15 -0.1,-2.75 q 0,-3.8 1.15,-6.3 L -28.55,2.7 Q -27,1.8 -24.5,1.2 l 1.35,-0.3 q -0.6,0.2 -0.55,0.55 l 0.5,0.25 1.5,-0.35 2.05,0.05 1.95,-0.1 2.2,-0.1 2.2,-0.1 1.95,-0.25 3.25,0.05 3.5,0.35 1.95,0.2 q 0.8,0 1.35,-0.4 L -0.95,0.7 q 0.35,-0.45 0.35,-1 l 1.7,0.5 0.3,0.15 m 4,-5.65 Q 5.5,-6.05 5.75,-6.55 6.15,-7.3 8.1,-8.8 l 5.35,-4.55 q 3.3,-3 5.45,-4.35 l 1.3,-0.85 q 0.7,0.6 2.15,1.5 3.9,2.4 7.15,6.1 L 28,-6.7 25.75,-5.25 22.9,-3.4 23.3,-4.1 q 0.35,-0.85 0,-1.2 l -0.75,-0.15 -0.7,0.45 -2.6,2 -0.15,0.15 -0.1,-0.1 -1.55,-0.7 -4.9,-1.7 q -0.95,-0.25 -1.1,0.2 v 0.25 l 0.25,0.5 q 0.4,0.4 1.25,1.05 L 12.5,-3.45 Q 10.1,-4.4 8.8,-4.55 L 7.1,-4.6 6.25,-4.75 6.15,-4.8 5.6,-5.1 5.4,-5.3 M 30,31 29.7,30 29.6,29.6 v -0.95 l 1,-1.9 1.75,-2.75 0.8,-1.1 q 0.3,-0.2 1,-0.3 l 4.05,0.2 q 0,1.15 0.95,1.65 l 0.55,0.3 0.4,0.5 0.4,0.6 -0.2,0.75 -1.1,2.15 -0.7,1.05 -0.95,0.3 -3.7,0.8 L 32,31 h -2 m -69.55,-5.15 -0.1,-0.3 -0.05,-0.05 0.05,-0.8 0.8,-4.75 0.25,-0.75 0.6,-0.4 1.15,-1 1.7,-0.55 0.1,3.05 0.15,1.2 0.2,1.25 -1.8,2.05 -0.9,0.65 q -1.05,0.65 -2.15,0.4"
         fill="#757882"
         fill-rule="evenodd"
         stroke="none"
         id="path2" />
      <path
         d="m -27.45,-10.45 h 0.2 q 4.05,-0.05 12.15,-1.55 3.6,-0.7 5.35,-1.3 2.5,-0.9 5.15,-2.75 1.95,-1.4 3.95,-3.3 l 0.2,1.75 0.2,2.15 0.95,3.1 0.75,3.2 q 0.1,1.85 0.3,2.75 l 0.7,2.3 0.05,0.2 Q 2.6,-2 2.15,-1.05 L 1.55,0.1 1.4,0.35 1.1,0.2 -0.6,-0.3 -0.65,-0.45 q -0.05,-0.65 -0.55,-1 l -0.9,-0.35 -0.35,-0.05 -10.4,0.5 -3.75,0.55 -2.75,0.65 -3.8,1.05 -1.35,0.3 q -2.5,0.6 -4.05,1.5 l 0.75,-1.2 q 1.15,-1.75 1.5,-3 0.55,-1.8 0.1,-4.2 l -1.1,-4.25 -0.15,-0.5 M 2.45,6.05 2.8,6.9 2.45,7.25 0.4,9.4 l -0.5,0.65 -0.1,1.1 q 0.35,3.7 1.55,8.25 l 2.45,8.05 1.25,3.4 0.35,0.75 -1.1,1 Q 3.4,33.2 2,33.35 l -1.55,0.3 -10.8,0.9 H -22.8 l -1.4,-0.3 -0.55,-0.9 -0.15,-1.1 q -0.3,-2.1 -2.4,-5.4 -2.3,-3.6 -2.75,-5.4 l -0.35,-4.1 -0.25,-3.85 1.15,0.15 q 5.65,0.3 10.55,-0.1 l 8.5,-0.55 3.95,-0.45 1.55,-0.3 1.25,-0.45 2.25,-1.8 2.5,-2.45 1.4,-1.5 M 7.4,17 8.3,18.8 q 0.55,0.95 1.05,0.85 0.6,-0.05 0.7,-0.75 L 9.8,17.8 4.55,3.65 4.3,2.95 4.2,1.85 4.35,1.3 4.5,0.95 4.95,0.1 q 0.45,-1 0.35,-3.35 v -0.8 -0.6 l 0.3,-0.45 0.55,0.3 0.1,0.05 0.85,0.15 1.7,0.05 q 1.3,0.15 3.7,1.1 l 0.45,0.1 1.3,0.95 2.5,1.65 0.55,0.35 q 0.45,0.25 0.85,0.35 l -0.55,2.8 q 0,0.65 0.15,1 L 17.95,4.2 16.2,8.1 15.9,9 q -1.2,5.35 -2.85,8.8 -1,2.2 -2.4,2.45 Q 9.5,20.4 8.6,19.35 8,18.75 7.5,17.35 L 7.4,17 M 30,31 h 2 l 1.85,-0.1 3.7,-0.8 0.95,-0.3 -0.55,0.9 -0.25,0.3 -0.4,0.1 -1.15,0.15 -2.5,0.45 -1.05,0.35 -2.4,0.45 Q 30.05,32.25 30.05,31.75 L 30,31 m -69.55,-5.15 q 1.1,0.25 2.15,-0.4 l 0.9,-0.65 1.8,-2.05 0.5,1.85 1.55,2.9 -2.1,0.5 -2.55,0.45 -0.65,-0.05 -0.75,-0.85 -0.7,-1.3 -0.15,-0.4"
         fill="#646770"
         fill-rule="evenodd"
         stroke="none"
         id="path3" />
      <path
         d="m -0.65,-19.35 0.4,-0.4 4,-4.15 4.15,-4 1.7,-1.8 0.35,-0.6 0.8,-0.55 q 1.5,-0.85 2,-1.4 l 0.45,-0.7 0.95,0.25 0.8,1.35 3.3,9.35 -0.6,0.55 -7.2,6.55 -3.3,2.75 -2.7,2.15 q -1.4,1.3 -1.8,2.75 -0.25,0.9 -0.15,3.15 v 0.2 L 2.45,-4.1 1.75,-6.4 q -0.2,-0.9 -0.3,-2.75 l -0.75,-3.2 -0.95,-3.1 -0.2,-2.15 -0.2,-1.75 M 2.8,6.9 Q 5.55,13.25 7.4,17 l 0.1,0.35 q 0.5,1.4 1.1,2 0.9,1.05 2.05,0.9 Q 12.05,20 13.05,17.8 14.7,14.35 15.9,9 L 16.2,8.1 17.95,4.2 18.1,4.35 18.75,4.4 19.1,3.95 20.1,1.25 20.5,0 20.7,-1 20.75,-1.05 22.9,-3.4 25.75,-5.25 28,-6.7 26.65,-3.85 Q 25.3,-1.35 25.3,0 q 0.05,1.3 1.4,3.6 l 3.45,5.75 -9.25,19.6 -0.8,0.05 -2.3,0.1 -0.9,-0.15 -0.45,-0.3 -2.7,-1.85 -1,-0.25 H 12.7 l -1.6,0.1 Q 8.7,27.4 5.8,31.1 L 5.4,31.6 5.05,30.85 3.8,27.45 1.35,19.4 Q 0.15,14.85 -0.2,11.15 L -0.1,10.05 0.4,9.4 2.45,7.25 2.8,6.9"
         fill="#53565e"
         fill-rule="evenodd"
         stroke="none"
         id="path4" />
    </g>
    <g
       id="sprite1"
       transform="translate(17.4,15.85)">
      <use
         ffdec:characterId="31"
         height="57.200001"
         transform="matrix(0.5366,0,0,0.5366,-16.6582,-14.546)"
         width="70.75"
         xlink:href="#sprite2"
         id="use4" />
    </g>
    <g
       id="sprite2"
       transform="translate(-8.65,-10.35)">
      <use
         ffdec:characterId="30"
         height="57.200001"
         transform="translate(8.65,10.35)"
         width="70.75"
         xlink:href="#shape1"
         id="use5" />
    </g>
    <g
       id="shape1"
       transform="translate(-8.65,-10.35)">
      <path
         d="m 14.8,41.7 q 0.65,-1.75 2.65,-2.5 1.8,-0.8 3.7,-0.25 1.15,0.45 2.25,1.2 l 0.9,0.4 q 1.65,0.9 2.85,2.5 L 37.8,30.1 q 2.35,-2.8 3.75,-3.95 1.5,-1.15 4.25,-2.4 18.2,-8.85 27.65,-12.6 2.15,-0.8 3.25,-0.8 h 0.8 l 1.9,2.4 -0.2,0.8 q -0.2,1.1 -1.55,3 -5.85,8.25 -18.85,23.8 -1.85,2.35 -3.35,3.5 -1.4,1.15 -4.75,2.75 l -15.15,7.15 q 1.2,1.6 1.75,3.4 l 0.2,1 0.55,2.5 q 0.1,1.95 -1.1,3.55 -1.2,1.65 -3.05,1.9 l -1.3,0.05 q -1.65,0.2 -3.45,-0.65 -1.85,-0.9 -3,-2.6 L 25,60.95 23.8,62.1 q -2.6,2.85 -4.3,3.95 -2.85,1.8 -5.5,1.45 l -1.65,-0.5 -1.2,-0.7 -0.2,-0.2 q -1,-0.85 -1.6,-1.9 L 9.25,64 9.15,63.8 8.75,62.4 q -0.2,-0.8 -0.05,-1.7 0.25,-2.65 2.7,-5.05 1.5,-1.3 4.9,-3.15 L 17.7,51.55 16.05,50 q -1.35,-1.5 -1.8,-3.6 -0.4,-1.85 0.25,-3.45 l 0.3,-1.25"
         fill="#000000"
         fill-opacity="0.372549"
         fill-rule="evenodd"
         stroke="none"
         id="path5" />
    </g>
  </defs>
</svg>
