<?xml version="1.0" encoding="UTF-8" standalone="no"?>
<svg
   ffdec:objectType="frame"
   height="73.783333"
   width="90.355415"
   version="1.1"
   id="svg5"
   sodipodi:docname="ITEM Flesh Shroud.svg"
   xmlns:inkscape="http://www.inkscape.org/namespaces/inkscape"
   xmlns:sodipodi="http://sodipodi.sourceforge.net/DTD/sodipodi-0.dtd"
   xmlns:xlink="http://www.w3.org/1999/xlink"
   xmlns="http://www.w3.org/2000/svg"
   xmlns:svg="http://www.w3.org/2000/svg"
   xmlns:ffdec="https://www.free-decompiler.com/flash">
  <sodipodi:namedview
     id="namedview5"
     pagecolor="#ffffff"
     bordercolor="#000000"
     borderopacity="0.25"
     inkscape:showpageshadow="2"
     inkscape:pageopacity="0.0"
     inkscape:pagecheckerboard="0"
     inkscape:deskcolor="#d1d1d1"
     fit-margin-top="5"
     fit-margin-left="5"
     fit-margin-right="5"
     fit-margin-bottom="5" />
  <g
     transform="translate(44.498276,33.45)"
     id="g1">
    <use
       ffdec:characterId="17"
       height="119.15"
       id="rarity"
       transform="translate(-58.5,-60.65)"
       width="119.15"
       xlink:href="#sprite0" />
    <use
       ffdec:characterId="1235"
       height="73.800003"
       transform="translate(-44.5,-33.45)"
       width="90.349998"
       xlink:href="#shape0"
       id="use1" />
  </g>
  <defs
     id="defs5">
    <g
       id="shape0"
       transform="translate(43.2,31.55)">
      <path
         d="m -10.7,-16.9 q 3.1,-3.3 7.15,-4.45 4.35,-1.2 8.3,0.45 2.45,1.05 5.75,3.95 l 0.15,0.1 q 3.05,-3.15 8.1,-3.8 l 4.6,0.1 v -0.2 l 0.1,-1.6 -0.05,-1.5 0.05,-1.3 -0.1,-1 Q 23.2,-27 23.3,-28 v -2.25 l 0.15,-0.8 q 0.25,-0.4 0.8,-0.5 0.5,0 0.85,0.5 l 0.2,0.95 q 0,0.85 0.3,1.6 l 0.95,2.7 0.2,1.2 0.3,0.85 q 0.45,1.6 0.7,4.3 l 0.95,0.35 0.4,0.15 0.65,-0.75 1.1,-1.1 2.75,-3 1.85,-1.6 0.95,-1.15 q 0.65,-0.65 1.3,-0.65 0.55,0 1,0.45 0.45,0.5 0.35,1.05 l -1,1.7 -0.55,0.95 -0.95,1.2 -3.15,5 q 3.9,2.3 7.05,5.8 2.05,2.25 2.75,4.25 0.5,1.55 0.5,4.8 0,5.3 -0.55,7.9 -0.7,3 -3.6,8.6 1.4,1.7 3.5,2.7 l 1.55,0.65 q 0.85,0.4 1.35,0.9 1.3,1.25 1.2,3.9 -0.3,4.4 -3.85,7.8 -3.1,2.95 -7.85,4.1 -4.95,1.2 -7.85,-0.9 -3.5,2.95 -10.7,1.7 l -2.8,-0.8 q -1.45,1.8 -3.55,2.7 l -4.3,1.05 q -5.85,0.65 -9,-1.4 -1.8,3.15 -5.75,4.5 -2.95,1 -7.4,0.8 -3.1,-0.1 -5.15,-0.9 -2.85,-1.2 -4.5,-3.95 L -26,37.6 q -4.6,2.35 -9,2 -3,-0.25 -4.9,-1.8 -1.85,-1.45 -2.8,-4.2 -0.85,-2.7 -0.25,-5.5 0.65,-2.85 2.55,-4.75 1.05,-1.05 1.15,-1.6 0.05,-0.6 -0.45,-1.6 -2.15,-4.7 -2.35,-8.2 -0.2,-3.55 1.35,-7.85 1.8,-4.85 4.65,-7.7 l 3.15,-2.45 -1.85,-1.25 -0.95,-0.45 -1.7,0.1 -1.4,-0.05 -0.8,0.15 -0.85,-0.05 q -0.7,-0.35 -0.6,-1.1 l 0.7,-1 1,-0.75 1.35,-0.3 1.5,-0.5 2.3,-0.2 q 1.85,0.2 3.9,1.7 l 1.5,1.1 q 4.9,-2.95 8.2,-4.25 4.4,-1.75 8.35,-1.75 l 1.55,-2.25 M 37.75,-3.75 37.4,-4.95 Q 36.7,-6.5 34.95,-8.1 30.6,-12.2 24.85,-14.05 l -4.85,-0.8 -0.6,0.05 -2.85,0.55 q -1.05,0.35 -2,0.9 l 0.4,0.4 1.25,1.4 0.35,0.75 0.05,0.1 q 0.45,1.45 -0.4,2.4 -0.5,0.5 -1.15,0.6 L 13.7,-7.8 Q 12.75,-8.05 11.4,-9.15 L 9,-11 6.8,-12.7 q -2,-1.55 -3.25,-2.15 -1.95,-1 -3.65,-0.95 -1.5,0 -3.2,0.85 l -2.3,1.5 Q -7,-12 -7.8,-8.15 l -0.2,1.8 0.7,1.8 0.75,1.8 0.65,2.7 q 0.35,1.7 -0.05,2.7 Q -6.2,3.35 -6.8,3.75 -7.45,4.2 -8.1,4.1 -9.2,3.95 -10.15,2 L -11,0.2 -12.35,-2.6 q -1.1,-2.2 -1.15,-3.4 -0.1,-1.05 0.35,-2.7 l -2.6,0.55 q -2.75,0.8 -6.75,3 -6.1,3.3 -8.8,6 -4.2,4.2 -4.45,8.85 l -0.05,0.6 q -0.05,2.25 0.9,5.2 l 1.9,5 q 0.9,2.25 0.4,3.65 v 0.05 q -0.35,0.85 -1.35,1.75 l -1.75,1.45 q -1.05,1.1 -1.35,2.6 -0.3,1.6 0.5,2.7 0.7,0.85 1.95,1.15 l 2.35,0.05 2.15,-0.75 2.15,-1 1.95,-0.6 0.45,-0.95 q 0.7,-1.2 1.95,-2.3 l 0.75,-0.6 q 1.1,-0.9 2.1,-1.05 l 1.15,0.15 q 0.6,0.25 0.85,0.75 l 0.05,0.15 q 0.5,1.1 -0.7,2.55 l -0.7,0.9 -0.3,0.25 -0.65,1.25 q -0.2,0.9 0.35,1.8 l 1.35,1.35 q 1.1,0.6 3.7,0.8 5.6,0.2 7.8,-2.1 l 0.9,-1.15 0.8,-1.2 0.75,-0.8 q 0.6,-0.6 1.3,-0.75 l 0.25,-0.1 0.5,-0.05 q 0.85,0.05 1.9,0.6 l 0.7,0.4 0.6,0.35 q 0.35,0.15 0.7,0.4 l 0.3,0.15 5.2,0.25 Q 9.65,32 10.4,29.95 l 0.2,-2 0.2,-2 Q 11.2,25 12,24.6 l 0.95,-1.4 Q 13.5,22.1 13.3,21.25 L 12.8,20 12.65,19.75 q -0.85,-1.6 -1.8,-2.5 L 9.7,16.45 Q 8.1,15.95 7.45,15.5 6.8,15 6.45,14.2 q -0.3,-0.8 -0.1,-1.65 0.2,-0.8 0.85,-1.4 0.7,-0.55 1.5,-0.65 0.9,-0.05 2.35,0.6 l 0.1,0.05 2.15,1.35 0.6,-0.9 0.5,-1.25 0.35,-1.1 0.3,-1.75 0.1,-1.55 q 0,-0.85 0.15,-1.25 0.3,-1.05 1.5,-1.2 1.1,-0.1 1.75,0.8 l 0.55,1.2 0.35,2.65 -0.2,2.75 -0.35,1.7 -0.4,1.1 -0.5,1.05 1.05,0.8 0.25,0.2 q 1,0.9 2.05,2.9 l 0.7,1.4 0.5,1.6 q 0.2,1.3 -0.1,2.6 L 22,25.7 q -0.9,2 -3.6,4.3 l 4.25,-0.3 q 1,-0.4 2.85,-1.55 1.25,-0.6 2.25,-0.6 l 0.85,0.15 1.2,0.6 0.2,0.15 0.95,0.5 3,-0.05 q 5.3,-1.25 6.8,-4.65 L 40.9,23.35 40.3,22.7 37.75,20.8 34.9,18.7 q -1.35,-1.05 -1.95,-1.9 l -0.4,-0.9 q -0.3,-1.2 0.5,-2.65 l 1.65,-2.4 q 2.95,-4.1 3.3,-11.2 0.05,-2 -0.25,-3.4 m -40.1,12.8 -0.8,0.6 -0.75,0.25 q -1.25,0.25 -2.05,-0.8 -0.7,-1.05 -0.3,-2.2 l 1.35,-1.95 0.6,-0.85 0.5,-0.55 0.4,-0.7 0.7,-0.7 1.55,-1 L -0.4,0.9 Q 0.25,0.75 0.8,1.25 1.3,1.75 1.2,2.4 l -0.15,0.65 -1.25,2.8 -0.4,0.65 -0.5,0.55 -0.55,1 -0.35,0.4 -0.35,0.6 m -22.1,2.8 v 1.1 q 0.15,1.1 1.2,2.25 l 1.15,1 1.8,0.55 1.95,0.05 q 0.75,-0.2 1.45,-0.9 2.45,-2.15 3.1,-5.5 l 0.25,-1.25 q 0.15,-0.75 0.5,-1.15 0.5,-0.5 1.1,-0.45 0.5,0.05 0.9,0.65 1,1.45 0.7,4.5 -0.2,2 -0.55,2.9 -0.35,0.9 -1.25,2.05 -2.8,3.65 -5.8,4.15 l -3.3,-0.2 q -2.6,-0.35 -3.95,-1.4 l -1.45,-1.6 -1.25,-1.9 q -1.15,-2.55 0.1,-5.55 l 0.3,-0.65 q 1,-1.95 4.05,-5 1.05,-1.05 1.75,-1.15 l 0.85,0.15 0.15,0.1 q 0.5,0.35 0.45,0.85 -0.05,0.55 -1,1.2 -1.85,1.4 -2.7,3.45 l -0.3,0.85 -0.2,0.9 M 2.25,14.75 1.9,14.8 Q 0.65,14.9 -0.05,13.85 -0.7,12.8 -0.3,11.7 L 0.4,10.4 2.35,7.3 Q 2.8,6.45 3.75,5.6 4.65,4.65 5.4,4.45 6.15,4.3 6.8,4.8 7.4,5.25 7.4,6.1 7.4,6.55 6.8,7.65 L 6.2,8.8 4.65,11.5 4.25,12.55 3.35,14 2.25,14.75 m 26.2,-12.5 q 0.7,-0.75 1.8,-0.9 1.1,-0.15 1.95,0.4 0.85,0.55 1.2,1.6 0.3,1.05 -0.1,2 -0.35,0.95 -1.35,1.45 l -2,0.3 Q 28.95,6.85 28.3,6 27.65,5.1 27.7,4.1 q 0,-1 0.75,-1.85"
         fill="#000000"
         fill-rule="evenodd"
         stroke="none"
         id="path1" />
      <path
         d="m 21.3,-4.75 q 1,-0.75 2.3,-0.35 1,0.4 1.45,1.2 l 0.25,1.05 q 0.1,1.05 -0.65,1.85 -0.7,0.75 -1.8,0.85 -0.7,0.05 -1.4,-0.35 -0.65,-0.4 -1,-1.1 -0.3,-0.7 -0.2,-1.45 0.1,-0.8 0.6,-1.3 l 0.45,-0.4 m 11.75,18 q -0.8,1.45 -0.5,2.65 l 0.4,0.9 -1.4,0.9 q -1,0.35 -1.95,0 -0.85,-0.3 -1.4,-1.1 -0.55,-0.75 -0.55,-1.7 0,-0.9 0.55,-1.7 0.6,-0.8 1.45,-1.1 0.85,-0.25 1.8,0 0.95,0.3 1.5,1 l 0.1,0.15 m 4.7,7.55 2.55,1.9 0.6,0.65 -0.15,0.9 q -1.5,3.4 -6.8,4.65 l -3,0.05 L 30,28.45 29.8,28.3 28.6,27.7 27.75,27.55 q -1,0 -2.25,0.6 -1.85,1.15 -2.85,1.55 L 18.4,30 q 2.7,-2.3 3.6,-4.3 l 0.45,-1.45 q 0.3,-1.3 0.1,-2.6 l -0.5,-1.6 -0.7,-1.4 q -1.05,-2 -2.05,-2.9 L 19.05,15.55 18,14.75 18.5,13.7 18.9,12.6 19.25,10.9 19.45,8.15 19.1,5.5 18.55,4.3 Q 17.9,3.4 16.8,3.5 15.6,3.65 15.3,4.7 15.15,5.1 15.15,5.95 l -0.1,1.55 -0.3,1.75 -0.35,1.1 -0.5,1.25 -0.6,0.9 -2.15,-1.35 -0.1,-0.05 Q 9.6,10.45 8.7,10.5 q -0.8,0.1 -1.5,0.65 -0.65,0.6 -0.85,1.4 -0.2,0.85 0.1,1.65 0.35,0.8 1,1.3 0.65,0.45 2.25,0.95 l 1.15,0.8 q 0.95,0.9 1.8,2.5 l 0.15,0.25 0.5,1.25 q 0.2,0.85 -0.35,1.95 L 12,24.6 q -0.8,0.4 -1.2,1.35 l -0.2,2 -0.2,2 Q 9.65,32 6.05,32.6 L 0.85,32.35 0.55,32.2 Q 0.2,31.95 -0.15,31.8 l -0.6,-0.35 -0.7,-0.4 q -1.05,-0.55 -1.9,-0.6 l -0.5,0.05 -0.25,0.1 q -0.7,0.15 -1.3,0.75 l -0.75,0.8 -0.8,1.2 -0.9,1.15 q -2.2,2.3 -7.8,2.1 -2.6,-0.2 -3.7,-0.8 l -1.35,-1.35 q -0.55,-0.9 -0.35,-1.8 l 0.65,-1.25 0.3,-0.25 0.7,-0.9 q 1.2,-1.45 0.7,-2.55 l -0.05,-0.15 Q -19,27.05 -19.6,26.8 l -1.15,-0.15 q -1,0.15 -2.1,1.05 l -0.75,0.6 q -1.25,1.1 -1.95,2.3 l -0.45,0.95 -1.95,0.6 -2.15,1 -2.15,0.75 -2.35,-0.05 q -1.25,-0.3 -1.95,-1.15 -0.8,-1.1 -0.5,-2.7 0.3,-1.5 1.35,-2.6 l 1.75,-1.45 q 1,-0.9 1.35,-1.75 l 1.75,-0.5 3.35,0.2 1.45,0.8 1.1,0.8 1.85,-1.5 q 1.35,-0.8 2.75,-0.85 l 1.7,0.2 q 1,0.3 1.8,1.1 0.8,0.95 0.85,1.9 l -0.05,0.8 0.3,-0.1 1.1,-0.8 q 2.25,-1.9 4.75,-1.3 1.25,0.3 2.55,1.35 l 1.7,1.5 0.25,-0.65 0.25,-0.35 Q -5.3,25.3 -4,23.9 -3.15,23.05 -1.35,22.1 1.25,20.8 2.6,20.35 4.4,19.7 5.8,19.95 L 5.1,19.5 3.65,18.05 2.8,16.75 q -0.55,-1 -0.55,-2 L 3.35,14 4.25,12.55 4.65,11.5 6.2,8.8 q 1.4,-1 2.6,-1.3 l 1.95,-0.1 0.15,-0.95 0.7,-2 Q 12.8,1.9 14.4,0.75 16.75,-0.8 18.85,0.2 l 1.55,1.15 1.4,1.6 q 1.2,1.75 1,4.7 -0.25,2.35 -1.25,4.2 l -0.5,0.85 q 1.3,0.35 2.45,1.4 1.3,1.25 2.3,3.15 0.75,1.45 0.85,2.5 0.15,0.9 -0.1,1.85 l 1.3,0.35 1.3,0.8 0.1,0.05 0.1,-0.15 q 1.25,-1.5 2.85,-2.05 l 4.25,-0.15 1.1,0.3 0.2,0.05 m -67.8,-9.4 q 0.65,0.95 0.2,2.1 -0.25,0.7 -0.85,1.15 -0.6,0.45 -1.3,0.45 -1.15,0 -1.85,-1.05 -0.75,-1.1 -0.25,-2.25 l 0.45,-0.75 q 0.5,-0.55 1.3,-0.65 1.3,-0.25 2.1,0.75 l 0.2,0.25 m 23.6,8.1 q 1.2,1.1 0.7,2.65 -0.2,0.7 -0.75,1.15 -0.6,0.5 -1.3,0.55 -1.15,0.15 -2.05,-0.75 -0.75,-0.7 -0.85,-1.7 -0.05,-0.75 0.4,-1.4 l 1.1,-1 q 1.5,-0.6 2.75,0.5 m 5.85,0.55 -1.65,0.1 q -0.9,-0.35 -1.15,-1.25 -0.2,-0.65 0.15,-1.35 0.35,-0.7 1,-0.95 l 1.4,0.05 q 0.7,0.25 1,0.9 0.35,0.65 0.1,1.4 -0.25,0.7 -0.85,1.1 M 6.95,20.4 7,20.35 6.7,20.25 6.95,20.4"
         fill="#855757"
         fill-rule="evenodd"
         stroke="none"
         id="path2" />
      <path
         d="m 15.05,-7.7 q 0.65,-0.1 1.15,-0.6 0.85,-0.95 0.4,-2.4 l -0.05,-0.1 -0.35,-0.75 -1.25,-1.4 -0.4,-0.4 q 0.95,-0.55 2,-0.9 l 2.85,-0.55 0.6,-0.05 4.85,0.8 q 5.75,1.85 10.1,5.95 1.75,1.6 2.45,3.15 l 0.35,1.2 -2.35,0.3 -5.35,-0.15 -5,-0.3 Q 24.6,-4.7 23.6,-5.1 22.3,-5.5 21.3,-4.75 L 20.8,-4.9 q -2.1,-0.65 -3.75,-1.5 l -2,-1.3 m -50.8,17.4 q 0.25,-4.65 4.45,-8.85 2.7,-2.7 8.8,-6 4,-2.2 6.75,-3 l 2.6,-0.55 q -0.45,1.65 -0.35,2.7 0.05,1.2 1.15,3.4 l 1.35,2.8 -0.85,1.5 q -1.15,1.7 -3.5,3.5 0.6,0.6 0.9,1.5 l 0.2,1.6 -0.05,1.45 -0.5,1.6 -0.55,1.2 -0.75,0.8 -1.8,1.45 q -1.05,0.55 -2.25,0.4 -1.25,-0.15 -2.15,-0.9 l -1.55,-1.8 -0.6,-0.65 0.2,-0.9 0.3,-0.85 q 0.85,-2.05 2.7,-3.45 0.95,-0.65 1,-1.2 0.05,-0.5 -0.45,-0.85 L -20.85,4.5 -21.7,4.35 q -0.7,0.1 -1.75,1.15 -3.05,3.05 -4.05,5 l -0.3,0.65 -2.25,0.25 -0.2,-0.25 q -0.8,-1 -2.1,-0.75 -0.8,0.1 -1.3,0.65 -1.4,-0.4 -2.1,-1.35 m 29.2,-12.45 -0.75,-1.8 -0.7,-1.8 0.2,-1.8 q 0.8,-3.85 2.2,-5.3 l 2.3,-1.5 q 1.7,-0.85 3.2,-0.85 1.7,-0.05 3.65,0.95 1.25,0.6 3.25,2.15 L 9,-11 8.05,-9.15 7.45,-8.4 7,-7.25 Q 5.95,-4.3 3.25,-2.4 2.2,-1.7 1.3,-1.5 l -1.7,0.1 q -3.7,-0.1 -6.15,-1.35"
         fill="#cfb0b0"
         fill-rule="evenodd"
         stroke="none"
         id="path3" />
      <path
         d="m 15.05,-7.7 2,1.3 q 1.65,0.85 3.75,1.5 l 0.5,0.15 -0.45,0.4 q -0.5,0.5 -0.6,1.3 -0.1,0.75 0.2,1.45 0.35,0.7 1,1.1 0.7,0.4 1.4,0.35 1.1,-0.1 1.8,-0.85 0.75,-0.8 0.65,-1.85 l -0.25,-1.05 5,0.3 5.35,0.15 2.35,-0.3 q 0.3,1.4 0.25,3.4 -0.35,7.1 -3.3,11.2 l -1.65,2.4 -0.1,-0.15 q -0.55,-0.7 -1.5,-1 -0.95,-0.25 -1.8,0 -0.85,0.3 -1.45,1.1 -0.55,0.8 -0.55,1.7 0,0.95 0.55,1.7 0.55,0.8 1.4,1.1 0.95,0.35 1.95,0 l 1.4,-0.9 q 0.6,0.85 1.95,1.9 l 2.85,2.1 -0.2,-0.05 -1.1,-0.3 -4.25,0.15 q -1.6,0.55 -2.85,2.05 l -0.1,0.15 -0.1,-0.05 -1.3,-0.8 -1.3,-0.35 q 0.25,-0.95 0.1,-1.85 -0.1,-1.05 -0.85,-2.5 -1,-1.9 -2.3,-3.15 -1.15,-1.05 -2.45,-1.4 l 0.5,-0.85 Q 22.55,10 22.8,7.65 23,4.7 21.8,2.95 L 20.4,1.35 18.85,0.2 q -2.1,-1 -4.45,0.55 -1.6,1.15 -2.8,3.7 l -0.7,2 L 10.75,7.4 8.8,7.5 Q 7.6,7.8 6.2,8.8 L 6.8,7.65 Q 7.4,6.55 7.4,6.1 7.4,5.25 6.8,4.8 6.15,4.3 5.4,4.45 4.65,4.65 3.75,5.6 2.8,6.45 2.35,7.3 l -1.95,3.1 -0.7,1.3 q -0.4,1.1 0.25,2.15 0.7,1.05 1.95,0.95 l 0.35,-0.05 q 0,1 0.55,2 l 0.85,1.3 1.45,1.45 0.7,0.45 q -1.4,-0.25 -3.2,0.4 -1.35,0.45 -3.95,1.75 -1.8,0.95 -2.65,1.8 -1.3,1.4 -1.15,2.9 l -0.25,0.35 -0.25,0.65 -1.7,-1.5 q -1.3,-1.05 -2.55,-1.35 -2.5,-0.6 -4.75,1.3 l -1.1,0.8 -0.3,0.1 0.05,-0.8 q -0.05,-0.95 -0.85,-1.9 -0.8,-0.8 -1.8,-1.1 l -1.7,-0.2 q -1.4,0.05 -2.75,0.85 l -1.85,1.5 -1.1,-0.8 -1.45,-0.8 -3.35,-0.2 -1.75,0.5 v -0.05 q 0.5,-1.4 -0.4,-3.65 l -1.9,-5 q -0.95,-2.95 -0.9,-5.2 l 0.05,-0.6 q 0.7,0.95 2.1,1.35 l -0.45,0.75 q -0.5,1.15 0.25,2.25 0.7,1.05 1.85,1.05 0.7,0 1.3,-0.45 0.6,-0.45 0.85,-1.15 0.45,-1.15 -0.2,-2.1 l 2.25,-0.25 q -1.25,3 -0.1,5.55 l 1.25,1.9 1.45,1.6 q 1.35,1.05 3.95,1.4 l 3.3,0.2 q 3,-0.5 5.8,-4.15 0.9,-1.15 1.25,-2.05 0.35,-0.9 0.55,-2.9 0.3,-3.05 -0.7,-4.5 -0.4,-0.6 -0.9,-0.65 -0.6,-0.05 -1.1,0.45 -0.35,0.4 -0.5,1.15 l -0.25,1.25 q -0.65,3.35 -3.1,5.5 -0.7,0.7 -1.45,0.9 l -1.95,-0.05 -1.8,-0.55 -1.15,-1 q -1.05,-1.15 -1.2,-2.25 v -1.1 l 0.6,0.65 1.55,1.8 q 0.9,0.75 2.15,0.9 1.2,0.15 2.25,-0.4 l 1.8,-1.45 0.75,-0.8 0.55,-1.2 0.5,-1.6 0.05,-1.45 -0.2,-1.6 q -0.3,-0.9 -0.9,-1.5 2.35,-1.8 3.5,-3.5 L -11,0.2 -10.15,2 q 0.95,1.95 2.05,2.1 0.65,0.1 1.3,-0.35 0.6,-0.4 0.85,-1.1 0.4,-1 0.05,-2.7 l -0.65,-2.7 Q -4.1,-1.5 -0.4,-1.4 L 1.3,-1.5 Q 2.2,-1.7 3.25,-2.4 5.95,-4.3 7,-7.25 L 7.45,-8.4 8.05,-9.15 9,-11 l 2.4,1.85 q 1.35,1.1 2.3,1.35 l 1.35,0.1 M -2.35,9.05 -2,8.45 -1.65,8.05 -1.1,7.05 -0.6,6.5 -0.2,5.85 1.05,3.05 1.2,2.4 Q 1.3,1.75 0.8,1.25 0.25,0.75 -0.4,0.9 l -0.75,0.25 -1.55,1 -0.7,0.7 -0.4,0.7 -0.5,0.55 -0.6,0.85 -1.35,1.95 q -0.4,1.15 0.3,2.2 0.8,1.05 2.05,0.8 l 0.75,-0.25 0.8,-0.6 m 1.75,11 q 0.6,-0.4 0.85,-1.1 0.25,-0.75 -0.1,-1.4 -0.3,-0.65 -1,-0.9 l -1.4,-0.05 q -0.65,0.25 -1,0.95 -0.35,0.7 -0.15,1.35 0.25,0.9 1.15,1.25 l 1.65,-0.1 M -6.45,19.5 Q -7.7,18.4 -9.2,19 l -1.1,1 q -0.45,0.65 -0.4,1.4 0.1,1 0.85,1.7 0.9,0.9 2.05,0.75 0.7,-0.05 1.3,-0.55 0.55,-0.45 0.75,-1.15 0.5,-1.55 -0.7,-2.65 M 28.45,2.25 Q 27.7,3.1 27.7,4.1 q -0.05,1 0.6,1.9 0.65,0.85 1.65,1.1 l 2,-0.3 q 1,-0.5 1.35,-1.45 0.4,-0.95 0.1,-2 -0.35,-1.05 -1.2,-1.6 -0.85,-0.55 -1.95,-0.4 -1.1,0.15 -1.8,0.9"
         fill="#b29797"
         fill-rule="evenodd"
         stroke="none"
         id="path4" />
    </g>
    <g
       id="sprite1"
       transform="translate(17.4,15.85)">
      <use
         ffdec:characterId="31"
         height="57.200001"
         transform="matrix(0.5366,0,0,0.5366,-16.6582,-14.546)"
         width="70.75"
         xlink:href="#sprite2"
         id="use4" />
    </g>
    <g
       id="sprite2"
       transform="translate(-8.65,-10.35)">
      <use
         ffdec:characterId="30"
         height="57.200001"
         transform="translate(8.65,10.35)"
         width="70.75"
         xlink:href="#shape1"
         id="use5" />
    </g>
    <g
       id="shape1"
       transform="translate(-8.65,-10.35)">
      <path
         d="m 14.8,41.7 q 0.65,-1.75 2.65,-2.5 1.8,-0.8 3.7,-0.25 1.15,0.45 2.25,1.2 l 0.9,0.4 q 1.65,0.9 2.85,2.5 L 37.8,30.1 q 2.35,-2.8 3.75,-3.95 1.5,-1.15 4.25,-2.4 18.2,-8.85 27.65,-12.6 2.15,-0.8 3.25,-0.8 h 0.8 l 1.9,2.4 -0.2,0.8 q -0.2,1.1 -1.55,3 -5.85,8.25 -18.85,23.8 -1.85,2.35 -3.35,3.5 -1.4,1.15 -4.75,2.75 l -15.15,7.15 q 1.2,1.6 1.75,3.4 l 0.2,1 0.55,2.5 q 0.1,1.95 -1.1,3.55 -1.2,1.65 -3.05,1.9 l -1.3,0.05 q -1.65,0.2 -3.45,-0.65 -1.85,-0.9 -3,-2.6 L 25,60.95 23.8,62.1 q -2.6,2.85 -4.3,3.95 -2.85,1.8 -5.5,1.45 l -1.65,-0.5 -1.2,-0.7 -0.2,-0.2 q -1,-0.85 -1.6,-1.9 L 9.25,64 9.15,63.8 8.75,62.4 q -0.2,-0.8 -0.05,-1.7 0.25,-2.65 2.7,-5.05 1.5,-1.3 4.9,-3.15 L 17.7,51.55 16.05,50 q -1.35,-1.5 -1.8,-3.6 -0.4,-1.85 0.25,-3.45 l 0.3,-1.25"
         fill="#000000"
         fill-opacity="0.372549"
         fill-rule="evenodd"
         stroke="none"
         id="path5" />
    </g>
  </defs>
</svg>
