<?xml version="1.0" encoding="UTF-8" standalone="no"?>
<svg
   ffdec:objectType="frame"
   height="74.854179"
   width="77.079239"
   version="1.1"
   id="svg5"
   xmlns:xlink="http://www.w3.org/1999/xlink"
   xmlns="http://www.w3.org/2000/svg"
   xmlns:svg="http://www.w3.org/2000/svg"
   xmlns:ffdec="https://www.free-decompiler.com/flash">
  <g
     transform="translate(41.24078,36.911594)"
     id="g1">
    <use
       ffdec:characterId="17"
       height="119.15"
       id="rarity"
       transform="translate(-58.5,-60.65)"
       width="119.15"
       xlink:href="#sprite0" />
    <use
       ffdec:characterId="1144"
       height="74.849998"
       transform="translate(-41.25,-36.9)"
       width="77.099998"
       xlink:href="#shape0"
       id="use1" />
  </g>
  <defs
     id="defs5">
    <g
       id="shape0"
       transform="translate(39.95,35)">
      <path
         d="M 9.25,-6.55 H 9.3 L 9.35,-6.6 9.45,-6.65 10.3,-6.95 10.45,-7 11.6,-7.4 15.55,-7 q 0.9,4.1 3.85,7.15 1.75,1.75 3.9,2.35 l -0.05,1 Q 22.9,6.75 21.4,8.85 19.25,11.8 14.7,12.5 L 13.5,12.65 12.55,12.7 10.8,12.6 9.5,12.4 Q 3.85,11.25 2.5,5.65 2.1,4 2.45,2.3 q 1.3,-6.35 6.8,-8.85 m 13.5,-14.25 -2.15,-1.65 -1.7,-1.15 q -6.5,-4 -14.3,-4.8 -9.2,-1 -17.8,1.85 -11.85,3.95 -16.55,15 l -0.8,2.05 q -1.2,3.4 -1.65,7 l -0.25,2.4 q -0.4,6.45 3.2,11.55 0.6,0.85 0.3,1.8 -0.35,1.1 -1.05,2.05 l -1.35,1.4 -0.4,0.3 -0.45,0.4 q -0.85,0.75 -1.3,1.75 v 0.2 0.15 0.35 0.3 0.3 l -0.05,0.2 -0.1,0.65 -0.05,0.3 v 0.2 l 0.05,0.15 v 0.15 l 0.05,0.05 v 0.1 q 1.9,2.15 4.35,1.6 l 1.25,-0.4 q 2.2,-1 4.45,-1.5 l 1.65,-0.35 0.8,0.1 q 0.25,0.15 0.5,0.4 l 0.4,0.55 1.25,-1.45 1.05,-0.85 q 1.45,-1 3.15,-1.4 l 2.45,0.1 q 0.7,0.05 1.3,0.4 l 0.15,0.15 0.55,0.65 q 0.45,0.5 0.55,1.15 0.85,1 1.25,2.2 1.1,-2.2 3.3,-3.25 H -5 l 0.3,-0.05 v -0.05 q 3.65,0.15 5.35,2.9 V 23.1 L 1.8,21.9 q 1.15,-1.6 3.05,-1.75 l 2.6,0.05 0.9,0.4 0.7,0.55 1.95,1.95 0.8,-0.75 0.6,-0.4 q 0.65,-0.35 1.25,-0.2 0.35,0.1 0.7,0.45 1.9,1.85 4.15,3 l 0.3,0.15 2.7,0.75 1.25,-0.65 0.75,-1.35 0.2,-0.3 V 21.85 21 Q 22.55,18.95 22.4,16.85 L 22.35,15.5 q 0,-0.3 0.15,-0.55 L 23.15,14.2 27.1,12.15 29.35,8.7 29.75,8.3 29.9,7.85 30.35,6.7 30.7,5.05 31,4.25 q -0.15,-1.6 0.05,-3.1 0.85,-5.7 -1.05,-11.1 -1.85,-5.3 -5.55,-9.5 l -1.7,-1.35 m -48.6,21.55 q 7.1,-2.05 10.15,-8.85 3.05,0.5 4.85,2.45 1.5,1.65 2.05,4.25 0.35,1.65 0.25,3.35 -0.4,6.25 -5.6,8.25 l -2.25,0.6 -2.4,0.2 -0.35,-0.05 -2.4,-0.35 Q -24.3,9.9 -25.7,8.3 -27.5,6.25 -27.15,2.75 L -26.8,1 -25.85,0.75 m 18.65,-35.5 q 10,-0.95 19.5,1.55 9.75,2.55 16.6,9.95 6.8,7.45 8.05,17.4 Q 37.3,-2.9 37,0 36.55,4.15 35.1,8.05 l -2.05,4.3 -0.6,0.95 q -1,2.1 -3.15,3.75 l -1.3,0.8 q 2.75,7.65 -3.5,12.4 -2.4,1.85 -5.4,1.1 L 15.95,30.5 Q 14.8,37.75 7.5,39.35 4,40.05 1.2,37.95 -4.65,42.1 -10.1,37.15 l -0.85,-1 q -6,3.1 -12.2,-0.05 -3.9,-2 -3.25,-6.35 l 0.2,-0.95 -8.35,-0.35 q -0.55,-0.15 -1.1,-0.5 -5.5,-3.3 -3.95,-9.75 0.85,-3.5 3.7,-5.85 L -37.25,9.3 q -1.9,-5.35 -1.35,-11.15 0.95,-9.35 5.8,-17.45 6.1,-10.25 17.8,-13.75 3.9,-1.2 7.8,-1.7 M 4.95,33.8 q 0.45,0.5 1.15,0.5 2.8,0.1 4.2,-2.4 L 11.1,28.65 11.15,27.5 11.1,27.45 10.6,26.3 9.6,25.15 8.3,23.85 6.8,22.75 6.65,22.7 4.3,22.95 3.8,23.45 Q 3.1,24.15 2.75,25.1 L 2.2,25.85 v 0.2 L 2,26.7 v 0.1 q 0.45,2.45 -0.1,4.9 1.7,0.65 3.05,2.1 m -26,-5.05 -0.1,1.8 0.05,0.65 q 3.35,2.5 7.1,0.65 l 2.15,-1.65 1.45,-1.15 0.05,-0.2 v -2.6 l 0.05,-1.15 -0.1,-0.15 -0.05,-0.15 -0.05,-0.2 -0.05,-0.3 -0.05,-0.35 -0.1,-0.15 -0.1,-0.15 -0.1,-0.2 -0.3,-0.3 -0.15,-0.15 -0.05,-0.2 -0.2,-0.3 -0.6,-0.7 -0.1,-0.15 q -3.25,-0.95 -5.45,1.6 l -0.85,1.6 -0.15,0.15 -0.15,0.15 -0.1,0.15 -0.25,0.35 v 0.15 l -0.15,0.5 -0.75,1.15 -0.1,0.1 -0.3,0.05 h -0.05 l -0.45,1.15 m 13.65,2.2 0.65,1.45 q 0.85,1.85 3,2.25 Q -1.7,33.8 -0.2,31.7 L 0.15,31.4 -0.1,28 Q -0.3,24.65 -3.35,23 L -3.4,22.95 -4.25,23 -4.5,23.15 -4.8,23.3 q -1.55,1.85 -2.4,4.1 l -0.8,2.4 0.6,1.15"
         fill="#000000"
         fill-rule="evenodd"
         stroke="none"
         id="path1" />
      <path
         d="M 10.45,-7 10.3,-6.95 9.45,-6.65 9.35,-6.6 9.3,-6.55 H 9.25 9.2 q -9.4,3.4 -19.2,1.15 l -0.85,-0.25 q -1.8,-1.95 -4.85,-2.45 -3.05,6.8 -10.15,8.85 L -26.8,0.6 q -1.45,-0.25 -2.8,-0.9 -1.75,-0.85 -2.6,-2.2 0.45,-3.6 1.65,-7 l 0.8,-2.05 q 4.7,-11.05 16.55,-15 8.6,-2.85 17.8,-1.85 7.8,0.8 14.3,4.8 l 1.7,1.15 2.15,1.65 -0.25,0.9 Q 19.35,-10.8 10.45,-7 M -33.6,22.15 -33.65,22.1 V 21.95 L -33.7,21.8 v -0.2 l 0.05,-0.3 0.1,-0.65 0.05,-0.2 v -0.3 -0.3 -0.35 -0.15 -0.2 q 0.45,-1 1.3,-1.75 l 0.45,-0.4 0.4,-0.3 1.35,-1.4 0.9,0.65 q -0.4,1.85 -0.45,3.85 -1.35,1.75 -3.45,2.3 l -0.6,0.05 M 4.95,33.8 Q 3.6,32.35 1.9,31.7 2.45,29.25 2,26.8 v -0.1 l 0.2,-0.65 v -0.2 L 2.75,25.1 Q 3.1,24.15 3.8,23.45 l 0.5,-0.5 2.35,-0.25 0.15,0.05 1.5,1.1 1.3,1.3 1,1.15 0.5,1.15 0.05,0.05 -0.05,1.15 -0.8,3.25 q -1.4,2.5 -4.2,2.4 -0.7,0 -1.15,-0.5 M -7.4,30.95 -8,29.8 -7.2,27.4 q 0.85,-2.25 2.4,-4.1 L -4.5,23.15 -4.25,23 -3.4,22.95 -3.35,23 q 3.05,1.65 3.25,5 l 0.25,3.4 -0.35,0.3 q -1.5,2.1 -3.55,2.95 -2.15,-0.4 -3,-2.25 L -7.4,30.95 m -13.65,-2.2 0.45,-1.15 h 0.05 l 0.3,-0.05 0.1,-0.1 0.75,-1.15 0.15,-0.5 v -0.15 l 0.25,-0.35 0.1,-0.15 0.15,-0.15 0.15,-0.15 0.85,-1.6 q 2.2,-2.55 5.45,-1.6 l 0.1,0.15 0.6,0.7 0.2,0.3 0.05,0.2 0.15,0.15 0.3,0.3 0.1,0.2 0.1,0.15 0.1,0.15 0.05,0.35 0.05,0.3 0.05,0.2 0.05,0.15 0.1,0.15 -0.05,1.15 v 2.6 l -0.05,0.2 -1.45,1.15 -2.15,1.65 q -3.75,1.85 -7.1,-0.65 l -0.05,-0.65 0.1,-1.8"
         fill="#ffffff"
         fill-rule="evenodd"
         stroke="none"
         id="path2" />
      <path
         d="m 10.45,-7 q 8.9,-3.8 12.05,-12.9 l 0.25,-0.9 1.7,1.35 q 3.7,4.2 5.55,9.5 1.9,5.4 1.05,11.1 -0.2,1.5 -0.05,3.1 L 30.7,5.05 30.35,6.7 29.9,7.85 29.75,8.3 29.35,8.7 27.1,12.15 23.15,14.2 22.5,14.95 q 0,-3.2 -1.1,-6.1 1.5,-2.1 1.85,-5.35 l 0.05,-1 Q 21.15,1.9 19.4,0.15 16.45,-2.9 15.55,-7 L 11.6,-7.4 10.45,-7 m -42.65,4.5 q 0.85,1.35 2.6,2.2 1.35,0.65 2.8,0.9 l 0.95,0.15 -0.95,0.25 -0.35,1.75 q -0.35,3.5 1.45,5.55 -2.55,3.55 -3.4,7.65 L -30,15.3 q 0.7,-0.95 1.05,-2.05 0.3,-0.95 -0.3,-1.8 -3.6,-5.1 -3.2,-11.55 l 0.25,-2.4 m 21.35,-3.15 0.85,0.25 q 9.8,2.25 19.2,-1.15 H 9.25 Q 3.75,-4.05 2.45,2.3 2.1,4 2.5,5.65 q 1.35,5.6 7,6.75 l 0.1,0.65 q 0.55,3.15 0.15,6.35 -0.5,0.8 -0.7,1.75 L 8.35,20.6 7.45,20.2 4.85,20.15 Q 2.95,20.3 1.8,21.9 l -1.15,1.2 v 0.05 Q -1.05,20.4 -4.7,20.25 V 20.3 L -5,20.35 h -0.2 q -2.2,1.05 -3.3,3.25 -0.4,-1.2 -1.25,-2.2 -0.1,-0.65 -0.55,-1.15 L -10.85,19.6 -11,19.45 q -0.6,-0.35 -1.3,-0.4 l -2.45,-0.1 q -1.7,0.4 -3.15,1.4 0.8,-5.4 3.75,-10.15 5.2,-2 5.6,-8.25 0.1,-1.7 -0.25,-3.35 -0.55,-2.6 -2.05,-4.25 m 33.25,22.5 q 0.15,2.1 1.3,4.15 v 0.85 1.95 l -0.2,0.3 -0.75,1.35 -1.25,0.65 -2.7,-0.75 q 2.25,-2.4 3.1,-5.85 l 0.5,-2.65 m -51.65,7 q -2.45,0.55 -4.35,-1.6 v -0.1 L -33,22.1 q 2.1,-0.55 3.45,-2.3 l 0.25,3.8 0.05,0.25"
         fill="#dbdbdb"
         fill-rule="evenodd"
         stroke="none"
         id="path3" />
      <path
         d="m 9.5,12.4 1.3,0.2 1.75,0.1 0.95,-0.05 1.2,-0.15 q 4.55,-0.7 6.7,-3.65 1.1,2.9 1.1,6.1 -0.15,0.25 -0.15,0.55 l 0.05,1.35 -0.5,2.65 q -0.85,3.45 -3.1,5.85 L 18.5,25.2 q -2.25,-1.15 -4.15,-3 -0.35,-0.35 -0.7,-0.45 -0.6,-0.15 -1.25,0.2 L 11.8,22.35 11,23.1 9.05,21.15 Q 9.25,20.2 9.75,19.4 10.15,16.2 9.6,13.05 L 9.5,12.4 m -27.4,7.95 -1.05,0.85 -1.25,1.45 -0.4,-0.55 q -0.25,-0.25 -0.5,-0.4 l -0.8,-0.1 -1.65,0.35 q -2.25,0.5 -4.45,1.5 l -1.25,0.4 -0.05,-0.25 -0.25,-3.8 q 0.05,-2 0.45,-3.85 0.85,-4.1 3.4,-7.65 1.4,1.6 4.15,2.3 l 2.4,0.35 0.1,0.35 0.25,-0.3 2.4,-0.2 2.25,-0.6 q -2.95,4.75 -3.75,10.15"
         fill="#849dbc"
         fill-rule="evenodd"
         stroke="none"
         id="path4" />
    </g>
    <g
       id="sprite1"
       transform="translate(17.4,15.85)">
      <use
         ffdec:characterId="31"
         height="57.200001"
         transform="matrix(0.5366,0,0,0.5366,-16.6582,-14.546)"
         width="70.75"
         xlink:href="#sprite2"
         id="use4" />
    </g>
    <g
       id="sprite2"
       transform="translate(-8.65,-10.35)">
      <use
         ffdec:characterId="30"
         height="57.200001"
         transform="translate(8.65,10.35)"
         width="70.75"
         xlink:href="#shape1"
         id="use5" />
    </g>
    <g
       id="shape1"
       transform="translate(-8.65,-10.35)">
      <path
         d="m 14.8,41.7 q 0.65,-1.75 2.65,-2.5 1.8,-0.8 3.7,-0.25 1.15,0.45 2.25,1.2 l 0.9,0.4 q 1.65,0.9 2.85,2.5 L 37.8,30.1 q 2.35,-2.8 3.75,-3.95 1.5,-1.15 4.25,-2.4 18.2,-8.85 27.65,-12.6 2.15,-0.8 3.25,-0.8 h 0.8 l 1.9,2.4 -0.2,0.8 q -0.2,1.1 -1.55,3 -5.85,8.25 -18.85,23.8 -1.85,2.35 -3.35,3.5 -1.4,1.15 -4.75,2.75 l -15.15,7.15 q 1.2,1.6 1.75,3.4 l 0.2,1 0.55,2.5 q 0.1,1.95 -1.1,3.55 -1.2,1.65 -3.05,1.9 l -1.3,0.05 q -1.65,0.2 -3.45,-0.65 -1.85,-0.9 -3,-2.6 L 25,60.95 23.8,62.1 q -2.6,2.85 -4.3,3.95 -2.85,1.8 -5.5,1.45 l -1.65,-0.5 -1.2,-0.7 -0.2,-0.2 q -1,-0.85 -1.6,-1.9 L 9.25,64 9.15,63.8 8.75,62.4 q -0.2,-0.8 -0.05,-1.7 0.25,-2.65 2.7,-5.05 1.5,-1.3 4.9,-3.15 L 17.7,51.55 16.05,50 q -1.35,-1.5 -1.8,-3.6 -0.4,-1.85 0.25,-3.45 l 0.3,-1.25"
         fill="#000000"
         fill-opacity="0.372549"
         fill-rule="evenodd"
         stroke="none"
         id="path5" />
    </g>
  </defs>
</svg>
