<?xml version="1.0" encoding="UTF-8" standalone="no"?>
<svg
   ffdec:objectType="frame"
   height="81.61985"
   width="94.408401"
   version="1.1"
   id="svg4"
   sodipodi:docname="ITEM Demonic Necklace.svg"
   xmlns:inkscape="http://www.inkscape.org/namespaces/inkscape"
   xmlns:sodipodi="http://sodipodi.sourceforge.net/DTD/sodipodi-0.dtd"
   xmlns:xlink="http://www.w3.org/1999/xlink"
   xmlns="http://www.w3.org/2000/svg"
   xmlns:svg="http://www.w3.org/2000/svg"
   xmlns:ffdec="https://www.free-decompiler.com/flash">
  <sodipodi:namedview
     id="namedview4"
     pagecolor="#ffffff"
     bordercolor="#000000"
     borderopacity="0.25"
     inkscape:showpageshadow="2"
     inkscape:pageopacity="0.0"
     inkscape:pagecheckerboard="0"
     inkscape:deskcolor="#d1d1d1"
     fit-margin-top="5"
     fit-margin-left="5"
     fit-margin-right="5"
     fit-margin-bottom="5" />
  <g
     transform="translate(46.514286,39.118182)"
     id="g1">
    <use
       ffdec:characterId="17"
       height="119.15"
       id="rarity"
       transform="translate(-58.5,-60.65)"
       width="119.15"
       xlink:href="#sprite0" />
    <use
       ffdec:characterId="831"
       height="81.599998"
       transform="translate(-46.5,-39.1)"
       width="94.400002"
       xlink:href="#shape0"
       id="use1" />
  </g>
  <defs
     id="defs4">
    <g
       id="shape0"
       transform="translate(47.05,39.85)">
      <path
         d="M 37.85,2.05 36.2,1.85 34.55,1.9 q -0.6,0.15 -1.5,0.95 L 29.65,5.4 Q 27.65,6.6 25.8,6.85 22.55,7.35 18.15,4.8 15,3 13.55,0.8 q -0.85,-1.35 -1.1,-2.85 -0.25,-1.6 0.3,-3 0.8,-1.8 3.3,-3.45 3,-2.05 6.15,-2.6 2.7,-0.55 4.5,0.45 l 0.8,0.4 q 0.5,0.25 0.85,0.25 0.55,0 1.45,-0.5 1.9,-0.95 4.05,-1.25 1.15,-0.1 1.55,-0.45 l 0.65,-1.5 q 0.6,-4.55 -1.75,-8.6 l -1.05,-1.95 q -0.35,-1.3 0.25,-2.15 0.75,-1 3.05,-0.7 l 3.5,0.4 q 2,0.3 2.85,0.9 1.15,0.75 2.05,3.25 1.7,4.8 2.25,9.85 0.35,3 -0.15,5.1 -0.65,2.3 -3.4,5.65 l -2.55,2.7 q -1.6,1.3 -3.25,1.3 m -48.25,-7.85 0.05,0.6 0.4,1.25 0.35,1.25 0.1,0.75 0.2,0.7 v 0.15 h 6.05 L -1.5,-1.35 -0.65,-2 0.15,-2.75 0.9,-3.3 q 0.4,-0.35 0.45,-0.75 l 0.05,-0.1 -0.55,-1.1 -0.7,-0.9 Q -2.1,-8.7 -4.4,-9.55 l -4.3,-0.75 h -0.2 q 0.1,0.5 -0.15,1.15 l -0.6,1.05 -0.75,2 v 0.3 m -18.9,-10.75 q 2.35,-0.85 4.75,-0.55 l 2.5,0.6 2.45,0.7 8.05,0.45 q 5.25,-0.1 7.95,0.75 4.55,1.4 8.05,6.1 2.15,2.95 1.85,5.05 -0.25,1.9 -2.45,4.1 -2.1,1.9 -3.8,2.55 -1.7,0.65 -5.45,0.65 L -15,3.55 q -2.7,-0.1 -3.95,-0.9 l -1.6,-1.4 q -1,-0.95 -1.7,-1.25 -1.6,-0.65 -4.6,0.45 l -4.45,1.6 q -3.45,1.3 -5.4,0.9 -1.45,-0.3 -3.25,-1.7 -5.1,-4.15 -6.6,-11.4 -1.2,-5.9 0.4,-13.3 0.55,-2.65 1.45,-4.3 l 2,-2.55 2.45,-2.2 5.75,-4.75 q 3.5,-2.4 6.9,-2.6 1.4,-0.1 2.3,0.35 1.2,0.6 1.3,1.8 0,1 -1.4,2.4 l -5,4.85 -2.2,2.4 q -1.1,1.4 -1.4,2.8 -0.45,1.85 0.4,4.15 0.55,1.45 2.05,3.8 l 0.9,0.9 1.35,-0.15 m 56.45,14.6 0.1,-0.85 -0.25,-1.45 -0.25,-0.5 -0.15,-0.4 -0.35,-0.15 -1.7,-1.05 -2.2,-0.3 q -3.05,0.15 -5.4,2.2 v 0.65 l 0.2,1 q 0.25,0.8 0.8,1.5 0.55,0.65 1.25,1.1 l 2.4,1.45 q 2.1,1.05 3.15,0.95 l 1.1,-0.25 0.7,-1.05 0.3,-1.2 0.3,-1.65 m 15.65,-10.15 -0.05,-0.15 -0.45,-2.9 q -0.7,-3.5 -2.1,-6.8 l -0.6,-0.05 0.95,4.2 0.3,2.5 v 0.55 l -0.45,2.3 -0.35,1.4 0.5,0.5 0.75,1.7 0.1,2.4 v 0.25 q 0.75,-1 1.1,-1.9 0.55,-1.35 0.3,-4 m -9.55,9.2 -0.1,-1.5 -0.65,-2.1 -0.65,0.2 -1.8,0.8 -0.75,0.25 0.4,1.1 0.15,1.25 -0.05,0.85 -0.1,0.6 -0.15,1.05 0.7,-0.6 1.85,-1.4 q 0.25,-0.2 0.45,-0.25 l 0.4,-0.1 0.3,-0.05 v -0.1 m 6.05,-3.85 q -0.15,-1.2 -0.5,-1.8 l -1.45,1.1 -0.75,0.25 -1.05,0.15 -1.05,0.1 0.15,0.4 0.6,2.65 -0.05,0.95 v 0.15 l 0.6,0.05 2.5,-0.1 1,-0.85 0.05,-2.25 -0.05,-0.8 M 9.1,15.7 q -0.3,-1 0.4,-2.55 0.8,-1.65 2.25,-2.95 1.15,-0.95 2.05,-0.95 0.75,0 1.6,0.6 l 1.45,1.1 2,1.1 1.85,1.3 0.9,1.1 1.1,0.75 1.55,-0.15 q 2.65,-0.65 4.25,0.3 0.85,0.5 1.6,1.55 l 1.2,1.85 1,0.9 q 0.85,0.15 1.4,-0.7 l 0.7,-1.5 q 0.7,-1.8 2.05,-1.75 0.9,0 1.5,0.95 l 0.65,1.7 0.65,2.5 0.55,2.9 q 0.15,1.6 -0.5,2.75 -0.65,1.35 -3,2.6 -1.65,0.95 -3.05,1.35 -1.95,0.45 -3.3,-0.3 -1.1,-0.55 -2.15,-2.1 L 26.1,25.35 25.55,24.9 24.45,25 21.2,25.65 Q 19.25,25.5 16.55,23 l -5.9,-5.25 Q 9.35,16.55 9.1,15.7 M 30,24 30.4,22.95 q -1.05,-0.6 -1.85,-1.75 l -1.1,-1.65 q -0.6,-0.75 -1.2,-0.95 l -0.5,-0.1 -0.75,0.1 -1.15,0.4 -0.4,0.15 0.05,1.1 -0.4,1.6 v 0.1 l 4.05,-0.15 q 0.85,0.5 1.7,1.85 l 0.85,1.2 0.1,-0.2 L 30,24 M 21.7,19.3 V 19.25 L 20.65,18.5 19.2,17.05 18.6,16.3 l -0.55,0.55 -0.35,0.45 -0.55,0.9 -0.1,0.25 0.3,0.25 3.5,2.95 0.2,-0.7 0.4,-1.1 0.25,-0.55 m 14.85,5.35 -0.1,-1.1 -0.1,-0.75 -0.1,-0.7 -0.55,0.55 -1.25,0.7 -1.75,0.25 -0.05,0.25 -0.45,1.3 -0.05,0.15 -1,1.5 v 0.05 l 0.3,0.3 1.1,-0.05 q 1.25,-0.3 2.7,-1.1 l 1.15,-1 0.15,-0.35 M 15.65,16.3 16.4,15.35 q 0.3,-0.3 0.6,-0.45 l -1.05,-0.65 -1.7,-1.3 -0.3,-0.35 -0.45,-0.35 -0.5,0.1 -0.35,0.15 q -0.3,0.15 -0.45,0.45 l 0.05,0.65 0.1,0.4 -0.05,0.3 q 0.8,0.4 1.55,1.15 l 1.5,1.35 0.3,-0.5 m -7.25,3.3 1.35,3.7 0.6,2.1 0.15,2.5 -0.15,2.9 -0.4,1.65 Q 8.9,36.05 5.8,40.05 4.9,41.2 4.1,41.55 2.8,42.1 2,41.15 1.7,40.7 1.7,39.4 L 2.45,27.2 q 0.2,-3.15 0.8,-5.35 L 3.6,20.65 V 20.6 L 3.65,19.8 3.7,19.75 V 19.6 q 0.2,-0.85 0.7,-1.15 0.55,-0.5 1.5,-0.4 l 1.15,0.35 q 0.75,0.15 1.35,1.2 m -16.55,4.5 q 2.4,-3.15 3.65,-4.1 l 1.3,-0.85 1.15,-1 0.9,-0.9 1.05,-0.3 Q 0.5,17 0.95,17.35 1.85,18 2,19.25 l -0.15,2.2 q -0.5,2.3 -2.55,6.85 l -6.4,10.55 q -1.05,1.6 -2.05,1.65 -1.1,0 -1.65,-1.15 -0.35,-0.75 -0.35,-2.1 -0.15,-4.1 0.8,-8.4 l 0.55,-1.95 1.65,-2.8 m 15.7,2.85 v -0.6 L 7.35,25.65 6.9,24.5 6.55,23.7 5.9,21.8 5.75,22.05 q -0.1,0.5 -0.05,1.25 l 0.05,1.2 -0.25,2.6 v 0.1 h 0.4 l 1.6,-0.1 h 0.05 v -0.15 m -49.25,-6 q -0.1,-2.75 1.45,-5.05 0.7,-1.15 1.65,-1.55 1.2,-0.6 2.2,0 l 0.9,1.1 0.75,1.25 q 1.05,1.2 2.7,1.2 1.4,0.05 3,-0.6 1.95,-0.8 5.55,-3.45 3.5,-2.55 5.6,-3.3 l 4.65,-1.15 9.7,-2.65 q 1.6,-0.6 2.55,-0.25 1.35,0.55 1.75,3.4 0.4,2.6 -0.4,3.75 -0.6,0.85 -2.1,1.5 -5.8,2.75 -12,3.95 -2.05,0.45 -2.65,0.9 l -2.05,2.45 q -3.45,4.85 -11.6,6.95 l -5.2,0.3 q -1.6,-0.45 -3.2,-1.9 -3.1,-3 -3.25,-6.85 M 5.45,30.5 Q 5.1,33.25 5.3,35.3 6.3,34.05 6.8,32.45 L 7.55,29.8 v -0.45 l -2,0.4 -0.1,0.75 m -45.85,-48.1 -1.95,1.3 v 1.75 q 0.1,3.3 1.3,6.25 l 0.4,0.9 q 0.8,-1.45 2.2,-3.1 l 0.3,-0.35 0.35,-0.4 1.55,-1.45 1.1,-0.8 0.05,-0.05 -0.95,-1.5 -1.75,-3.8 -1.1,0.5 -0.4,0.2 -1.1,0.55 m 0.7,-9.2 -1,1.4 q -0.6,1.1 -1.1,3.7 l -0.35,2.65 1.55,-0.7 1.6,-0.8 0.1,-0.05 0.45,-0.15 -0.2,-0.9 -0.05,-0.1 q -0.65,-3.25 0.55,-5.7 l 0.7,-1.2 -1.15,0.85 -1.1,1 m 13.55,19.15 -0.1,-2.1 0.35,-1.5 0.35,-0.9 h -1.4 l -2.5,0.7 -2.5,0.3 q -0.8,-0.15 -1.6,-0.75 l -2.1,1.8 -1.1,1.25 -0.3,0.3 -0.55,0.85 -1.2,2.35 -0.15,0.65 1.45,1.55 q 0.75,0.75 1.55,1.05 l 3.1,-0.25 q 4.7,-1.9 7.15,-2.4 h 0.05 l -0.05,-0.5 -0.25,-0.65 -0.15,-1.05 -0.05,-0.7 m 13.65,1.55 v -0.75 l 0.45,-1.5 0.9,-1.7 0.15,-0.25 h -0.8 l -3,-0.05 -6,-0.65 -0.25,-0.05 -1.9,-0.55 -0.3,0.4 -0.45,0.9 -0.1,0.5 -0.25,0.5 v 0.05 l -0.15,0.85 -0.1,0.8 -0.05,0.35 0.1,1 0.2,0.7 v 0.6 q 3.4,-0.3 5.55,1.55 l 1.1,1.05 1.2,0.85 2.3,0.35 2.55,0.05 -0.15,-0.45 -0.55,-1.75 -0.5,-1.4 v -1.15 l 0.05,-0.25 m 9.2,15.55 -6.55,1.8 0.05,0.1 0.5,1.45 0.15,0.4 0.15,0.4 5.15,-2.1 0.6,-0.45 q 0.4,-0.45 0,-1.55 L -3.3,9.45 m -7.9,4.7 -0.15,-0.4 -0.55,-1.25 -0.3,-0.65 -0.6,0.15 -3.25,1.1 q -0.6,0.3 -1.9,1.35 l 0.1,0.1 q 0.45,0.5 0.75,1.1 l 1.2,-0.4 2.15,-0.45 2.05,-0.45 h 0.05 l 0.5,-0.15 -0.05,-0.05 m -9.25,4.3 1.45,-1.6 -0.2,-0.3 -0.55,-0.7 -0.05,0.05 q -2.75,2.25 -5.3,3.85 l -2.35,1.35 0.05,0.1 0.25,0.8 0.2,2 0.2,-0.1 q 2.45,-1.05 3.95,-2.55 l 2.3,-2.85 0.05,-0.05 M -3.2,25.7 -1.25,20.65 Q -1,19.95 -1.2,19.7 l -1.7,1.75 -1.15,1.45 -0.05,0.1 -1.35,1.95 0.55,0.2 1.25,0.9 0.15,0.1 0.1,0.1 0.2,-0.55 m -33.65,-3 1.3,1.75 q 1.1,1 1.9,1.15 l 2.3,-0.2 2.3,-0.65 -0.4,-1.9 -0.3,-0.8 -1.4,0.3 -0.15,0.05 -2.2,-0.05 -0.95,-0.25 q -1.2,-0.35 -2,-1.05 L -37.2,20.3 v 1.3 l 0.35,1.1 m 30.3,4.9 -0.3,1.3 -0.25,1.6 -0.2,1.25 -0.05,1.2 0.9,-1.35 0.75,-1.1 1.4,-2.2 -0.5,-0.5 -0.35,-0.15 -1.35,-0.4 -0.05,0.35"
         fill="#000000"
         fill-rule="evenodd"
         stroke="none"
         id="path1" />
      <path
         d="m 1.4,-4.15 -0.55,0.1 -3.15,-0.3 -8.1,-1.45 v -0.3 l 0.75,-2 0.6,-1.05 Q -8.8,-9.8 -8.9,-10.3 h 0.2 l 4.3,0.75 q 2.3,0.85 4.55,3.4 l 0.7,0.9 0.55,1.1 m 15.75,1.35 -0.2,-1 v -0.65 q 2.35,-2.05 5.4,-2.2 l 2.2,0.3 1.7,1.05 0.35,0.15 0.15,0.4 0.25,0.5 0.25,1.45 -0.1,0.85 H 21.8 l -3.2,-0.3 q -0.85,-0.2 -1.45,-0.55 m 24.15,-6.05 -0.75,-1.7 -0.5,-0.5 0.35,-1.4 0.45,-2.3 v -0.55 l -0.3,-2.5 -0.95,-4.2 0.6,0.05 q 1.4,3.3 2.1,6.8 l 0.45,2.9 0.05,0.15 -1,2.45 -0.5,0.8 m -11.5,6.8 0.05,-0.85 -0.15,-1.25 -0.4,-1.1 0.75,-0.25 1.8,-0.8 0.65,-0.2 0.65,2.1 0.1,1.5 -0.3,0.15 -0.4,0.1 q -0.2,0.05 -0.45,0.25 l -0.7,0.15 -1.6,0.2 m 5.45,-1.85 -0.6,-2.65 -0.15,-0.4 1.05,-0.1 1.05,-0.15 0.75,-0.25 1.45,-1.1 q 0.35,0.6 0.5,1.8 l -2.85,2.1 -1.2,0.75 M 23.5,20.25 23.45,19.15 23.85,19 25,18.6 l 0.75,-0.1 0.5,0.1 q 0.6,0.2 1.2,0.95 l 1.1,1.65 q 0.8,1.15 1.85,1.75 L 30,24 29.55,23.45 28.4,22.25 q -0.75,-0.65 -2.05,-1.1 l -2.3,-0.7 -0.55,-0.2 m -5.8,-2.95 0.35,-0.45 0.55,-0.55 0.6,0.75 1.45,1.45 1.05,0.75 v 0.05 l -4,-2 m 14.45,8 0.05,-0.15 0.45,-1.3 0.05,-0.25 1.75,-0.25 1.25,-0.7 0.55,-0.55 0.1,0.7 0.1,0.75 0.1,1.1 q -0.9,0.55 -2.45,0.7 L 32.15,25.3 M 12.35,14 12.25,13.6 12.2,12.95 q 0.15,-0.3 0.45,-0.45 l 0.35,-0.15 0.5,-0.1 0.45,0.35 0.3,0.35 1.7,1.3 1.05,0.65 q -0.3,0.15 -0.6,0.45 L 15.65,16.3 13.8,15.25 12.35,14 M 7.5,27.1 5.9,27.2 H 5.5 V 27.1 L 5.75,24.5 5.7,23.3 Q 5.65,22.55 5.75,22.05 l 0.15,-0.25 0.65,1.9 0.35,0.8 0.45,1.15 0.2,0.7 v 0.6 L 7.5,27.1 m -45.65,-37.95 -0.15,-0.25 q -1.65,-3.05 -2.1,-6.5 l 1.1,-0.55 0.4,-0.2 1.1,-0.5 1.75,3.8 0.95,1.5 -0.05,0.05 -1.1,0.8 -1.55,1.45 -0.35,0.4 m -2.45,-8.9 q -0.15,-3.65 0.9,-7.05 l 1.1,-1 1.15,-0.85 -0.7,1.2 q -1.2,2.45 -0.55,5.7 l 0.05,0.1 0.2,0.9 -0.45,0.15 -0.1,0.05 -1.6,0.8 m 3.85,10.9 1.1,-1.25 2.1,-1.8 q 0.8,0.6 1.6,0.75 l 2.5,-0.3 2.5,-0.7 h 1.4 l -0.35,0.9 -0.35,1.5 0.1,2.1 -0.7,0.05 -3.25,0.7 -3.25,0.15 q -1.9,-0.4 -3.4,-2.1 m 12.45,1.25 0.1,-0.8 0.15,-0.85 V -9.3 l 0.25,-0.5 0.1,-0.5 0.45,-0.9 0.3,-0.4 1.9,0.55 0.25,0.05 6,0.65 3,0.05 h 0.8 l -0.15,0.25 -0.9,1.7 -0.45,1.5 v 0.75 l -9.55,-1.3 -2.25,-0.2 M -9.15,13.2 -9.3,12.8 -9.8,11.35 -9.85,11.25 -3.3,9.45 V 9.5 q 0.1,0.65 -1,1.3 L -8,12.65 -9.15,13.2 m -2.5,1.15 h -0.05 l -2.05,0.45 -2.15,0.45 -1.2,0.4 q -0.3,-0.6 -0.75,-1.1 l -0.1,-0.1 q 1.3,-1.05 1.9,-1.35 l 3.25,-1.1 0.6,-0.15 0.3,0.65 0.55,1.25 0.15,0.4 -0.45,0.2 m -15.5,7.65 -0.25,-0.8 -0.05,-0.1 2.35,-1.35 q 2.55,-1.6 5.3,-3.85 l 0.05,-0.05 0.55,0.7 0.2,0.3 -1.45,1.6 -1.3,0.8 q -2.6,1.55 -5.4,2.75 m 23.65,4.15 -0.15,-0.1 -1.25,-0.9 -0.55,-0.2 1.35,-1.95 0.05,-0.1 1.15,-1.45 1.7,-1.75 q 0.2,0.25 -0.05,0.95 l -1.95,5.05 -0.3,0.45 m -25.95,-3.3 q -2.35,0.8 -4,0.8 -2,0 -3.4,-0.95 l -0.35,-1.1 v -1.3 l 0.75,0.75 q 0.8,0.7 2,1.05 l 0.95,0.25 2.2,0.05 0.15,-0.05 1.4,-0.3 0.3,0.8 m 24.3,4.8 H -5.2 l -1.35,-0.05 0.05,-0.35 1.35,0.4"
         fill="#393939"
         fill-rule="evenodd"
         stroke="none"
         id="path2" />
      <path
         d="m -10.4,-5.8 8.1,1.45 3.15,0.3 0.55,-0.1 -0.05,0.1 Q 1.3,-3.65 0.9,-3.3 L 0.15,-2.75 -0.65,-2 -1.5,-1.35 -3.25,-1.1 H -9.3 v -0.15 l -0.2,-0.7 -0.1,-0.75 -0.35,-1.25 -0.4,-1.25 -0.05,-0.6 m 27.55,3 q 0.6,0.35 1.45,0.55 l 3.2,0.3 h 5.35 l -0.3,1.65 -0.3,1.2 -0.7,1.05 -1.1,0.25 Q 23.7,2.3 21.6,1.25 L 19.2,-0.2 Q 18.5,-0.65 17.95,-1.3 17.4,-2 17.15,-2.8 m 24.15,-6.05 0.5,-0.8 1,-2.45 q 0.25,2.65 -0.3,4 -0.35,0.9 -1.1,1.9 v -0.25 l -0.1,-2.4 m -11.5,6.8 1.6,-0.2 0.7,-0.15 -1.85,1.4 -0.7,0.6 0.15,-1.05 0.1,-0.6 m 3.15,-0.7 0.3,-0.15 v 0.1 l -0.3,0.05 m 2.3,-1.15 1.2,-0.75 2.85,-2.1 0.05,0.8 -0.05,2.25 -1,0.85 -2.5,0.1 -0.6,-0.05 v -0.15 l 0.05,-0.95 m -11.75,24.15 0.55,0.2 2.3,0.7 q 1.3,0.45 2.05,1.1 l 1.15,1.2 0.45,0.55 -0.2,0.65 -0.1,0.2 -0.85,-1.2 Q 28,22.3 27.15,21.8 l -4.05,0.15 v -0.1 l 0.4,-1.6 m -5.8,-2.95 4,2 -0.25,0.55 -0.4,1.1 -0.2,0.7 -3.5,-2.95 -0.3,-0.25 0.1,-0.25 0.55,-0.9 m 14.45,8 1.95,0.05 q 1.55,-0.15 2.45,-0.7 L 36.4,25 35.25,26 q -1.45,0.8 -2.7,1.1 l -1.1,0.05 -0.3,-0.3 V 26.8 l 1,-1.5 M 12.35,14 l 1.45,1.25 1.85,1.05 -0.3,0.5 -1.5,-1.35 Q 13.1,14.7 12.3,14.3 L 12.35,14 m -50.5,-24.85 -0.3,0.35 q -1.4,1.65 -2.2,3.1 l -0.4,-0.9 q -1.2,-2.95 -1.3,-6.25 v -1.75 l 1.95,-1.3 q 0.45,3.45 2.1,6.5 l 0.15,0.25 m 43.6,41.35 0.1,-0.75 2,-0.4 V 29.8 L 6.8,32.45 Q 6.3,34.05 5.3,35.3 5.1,33.25 5.45,30.5 m -46.05,-50.25 -1.55,0.7 0.35,-2.65 q 0.5,-2.6 1.1,-3.7 l 1,-1.4 q -1.05,3.4 -0.9,7.05 m 3.85,10.9 q 1.5,1.7 3.4,2.1 l 3.25,-0.15 3.25,-0.7 0.7,-0.05 0.05,0.7 0.15,1.05 0.25,0.65 0.05,0.5 h -0.05 q -2.45,0.5 -7.15,2.4 l -3.1,0.25 q -0.8,-0.3 -1.55,-1.05 l -1.45,-1.55 0.15,-0.65 1.2,-2.35 0.55,-0.85 0.3,-0.3 m 12.45,1.25 2.25,0.2 9.55,1.3 -0.05,0.25 v 1.15 l 0.5,1.4 0.55,1.75 0.15,0.45 -2.55,-0.05 -2.3,-0.35 -1.2,-0.85 -1.1,-1.05 q -2.15,-1.85 -5.55,-1.55 v -0.6 l -0.2,-0.7 -0.1,-1 0.05,-0.35 M -9.15,13.2 -8,12.65 -4.3,10.8 q 1.1,-0.65 1,-1.3 h 0.05 q 0.4,1.1 0,1.55 L -3.85,11.5 -9,13.6 -9.15,13.2 m -2.5,1.15 0.45,-0.2 0.05,0.05 -0.5,0.15 M -27.15,22 q 2.8,-1.2 5.4,-2.75 l 1.3,-0.8 -0.05,0.05 -2.3,2.85 q -1.5,1.5 -3.95,2.55 l -0.2,0.1 -0.2,-2 m 23.65,4.15 0.3,-0.45 -0.2,0.55 -0.1,-0.1 m -25.95,-3.3 0.4,1.9 -2.3,0.65 -2.3,0.2 q -0.8,-0.15 -1.9,-1.15 l -1.3,-1.75 q 1.4,0.95 3.4,0.95 1.65,0 4,-0.8 m 24.3,4.8 0.35,0.15 0.5,0.5 -1.4,2.2 -0.75,1.1 -0.9,1.35 0.05,-1.2 0.2,-1.25 0.25,-1.6 0.3,-1.3 1.35,0.05 h 0.05"
         fill="#212121"
         fill-rule="evenodd"
         stroke="none"
         id="path3" />
    </g>
    <g
       id="sprite1"
       transform="translate(17.4,15.85)">
      <use
         ffdec:characterId="31"
         height="57.200001"
         transform="matrix(0.5366,0,0,0.5366,-16.6582,-14.546)"
         width="70.75"
         xlink:href="#sprite2"
         id="use3" />
    </g>
    <g
       id="sprite2"
       transform="translate(-8.65,-10.35)">
      <use
         ffdec:characterId="30"
         height="57.200001"
         transform="translate(8.65,10.35)"
         width="70.75"
         xlink:href="#shape1"
         id="use4" />
    </g>
    <g
       id="shape1"
       transform="translate(-8.65,-10.35)">
      <path
         d="m 14.8,41.7 q 0.65,-1.75 2.65,-2.5 1.8,-0.8 3.7,-0.25 1.15,0.45 2.25,1.2 l 0.9,0.4 q 1.65,0.9 2.85,2.5 L 37.8,30.1 q 2.35,-2.8 3.75,-3.95 1.5,-1.15 4.25,-2.4 18.2,-8.85 27.65,-12.6 2.15,-0.8 3.25,-0.8 h 0.8 l 1.9,2.4 -0.2,0.8 q -0.2,1.1 -1.55,3 -5.85,8.25 -18.85,23.8 -1.85,2.35 -3.35,3.5 -1.4,1.15 -4.75,2.75 l -15.15,7.15 q 1.2,1.6 1.75,3.4 l 0.2,1 0.55,2.5 q 0.1,1.95 -1.1,3.55 -1.2,1.65 -3.05,1.9 l -1.3,0.05 q -1.65,0.2 -3.45,-0.65 -1.85,-0.9 -3,-2.6 L 25,60.95 23.8,62.1 q -2.6,2.85 -4.3,3.95 -2.85,1.8 -5.5,1.45 l -1.65,-0.5 -1.2,-0.7 -0.2,-0.2 q -1,-0.85 -1.6,-1.9 L 9.25,64 9.15,63.8 8.75,62.4 q -0.2,-0.8 -0.05,-1.7 0.25,-2.65 2.7,-5.05 1.5,-1.3 4.9,-3.15 L 17.7,51.55 16.05,50 q -1.35,-1.5 -1.8,-3.6 -0.4,-1.85 0.25,-3.45 l 0.3,-1.25"
         fill="#000000"
         fill-opacity="0.372549"
         fill-rule="evenodd"
         stroke="none"
         id="path4" />
    </g>
  </defs>
</svg>
