<?xml version="1.0" encoding="UTF-8" standalone="no"?>
<svg
   ffdec:objectType="frame"
   height="48.578423"
   width="62.958332"
   version="1.1"
   id="svg7"
   xmlns:xlink="http://www.w3.org/1999/xlink"
   xmlns="http://www.w3.org/2000/svg"
   xmlns:svg="http://www.w3.org/2000/svg"
   xmlns:ffdec="https://www.free-decompiler.com/flash">
  <g
     transform="translate(29.375,27.678421)"
     id="g1">
    <use
       ffdec:characterId="17"
       height="119.15"
       id="rarity"
       transform="translate(-58.5,-60.65)"
       width="119.15"
       xlink:href="#sprite0" />
    <use
       ffdec:characterId="474"
       height="48.599998"
       transform="translate(-29.4,-27.7)"
       width="63"
       xlink:href="#shape0"
       id="use1" />
  </g>
  <defs
     id="defs7">
    <g
       id="shape0"
       transform="translate(29,26.9)">
      <path
         d="m 16,-16.05 2.8,0.1 1.3,0.05 1.3,0.4 0.25,0.2 0.15,0.2 0.1,0.2 0.15,0.25 0.05,0.2 v 0.2 0.25 0.15 q -0.8,1.65 -0.75,3.5 v 0.05 q 0.05,1.1 -0.4,2.1 l -0.1,0.2 v 0.2 0.2 l -0.05,0.2 -0.3,1.55 q -0.1,0.9 -0.55,1.7 v 0.2 0.25 0.2 l -0.45,3.6 -0.15,0.8 0.5,0.35 q 0.6,0.5 1.35,0.3 L 21.4,0.9 V 0.7 l 0.4,-0.85 0.35,-0.4 0.75,-0.7 0.6,-0.4 0.2,-0.65 0.1,-0.45 0.2,-0.85 0.15,-0.4 0.45,-1.3 0.2,-0.65 0.25,-0.65 0.15,-1.25 0.15,-0.5 0.05,-0.35 0.2,-1.55 0.15,-1.05 0.1,-0.45 0.1,-0.4 0.2,-1.3 0.45,-1.3 0.05,-0.65 V -16 l 0.2,-0.7 0.15,-0.4 0.25,-1.3 0.25,-0.65 0.15,-0.65 0.05,-0.2 0.05,-0.2 v -0.2 q -0.05,-1 -1.4,-0.5 l -24.85,1.7 -8.5,0.4 -2.85,0.65 -0.35,0.45 -0.15,0.2 q 0.2,1.8 -0.1,3.5 l 0.9,-0.25 8.9,-1.7 2.6,-0.45 8.85,0.1 h 0.65 l 4.55,0.15 m -6.95,4.3 -0.15,0.15 q -1.25,0.7 -1.75,2.05 L 6.6,-8.5 6.5,-7 l 0.15,1.25 0.1,0.2 0.2,0.25 0.1,0.2 q 4.4,2.25 7.85,-0.9 l 0.05,-0.25 0.1,-0.2 1,-1.25 0.35,-0.65 v -0.45 -0.65 -0.2 l -1.5,-2.6 -0.15,-0.4 -4.4,-0.05 -1.3,0.95 m -0.6,2.4 0.6,0.2 0.5,0.35 0.15,0.65 -0.4,0.65 -0.35,0.15 -0.5,0.1 Q 8.05,-7.4 7.7,-7.65 L 7.55,-7.8 7.35,-8.45 Q 7.4,-8.85 7.75,-9.1 L 7.95,-9.2 8.1,-9.3 8.45,-9.35 M 1.1,-5.95 2.9,-5.9 4.5,-5.75 4.55,-7 4.8,-9.35 l 1,-1.25 0.3,-0.7 0.9,-0.9 0.3,-0.35 -8.6,1.3 q 1.4,1.9 0.85,4.5 L -0.75,-5.5 1.1,-5.95 M 0.25,4.35 0.65,4.3 1.45,4.2 1.85,4.35 2.65,4.7 Q 3.5,4.8 4.3,4.3 L 6,2.6 6.25,2.2 6.3,2 6.25,1.55 V 1.35 1.15 L 6.3,0.95 6.5,0.5 6.6,0.3 V 0.05 L 6.3,-1.05 Q 5.8,-2.05 4.75,-2.7 L 3.8,-3.3 3.75,-3.35 H 2.9 q -5.5,-0.05 -6.75,4.7 -0.2,0.7 0,1.3 0.2,0.65 0.8,1.15 L -2.5,3.95 -1.9,4.3 0.25,4.35 M -2.25,2.05 -2.55,1.7 -2.65,1.5 V 1.3 l 0.05,-0.45 0.1,-0.4 0.5,-0.4 0.65,-0.25 0.6,0.1 0.45,0.5 Q 0,0.75 -0.05,1.2 L -0.15,1.6 -0.9,2.45 H -1.3 -1.35 L -1.9,2.35 -2.2,2.1 -2.25,2.05 m 7,-2.75 0.5,0.1 0.3,0.25 0.3,0.45 0.1,0.2 L 5.9,0.95 5.3,1.7 4.75,1.75 3.9,1.5 3.5,0.85 3.6,0 3.75,-0.2 3.95,-0.4 4.15,-0.6 4.4,-0.65 4.75,-0.7 m 4.1,-1 -0.5,-0.15 0.2,0.7 Q 8.75,0 8.4,1.15 q 3.35,-2.65 6.8,-2.1 l -0.1,-0.4 0.1,-1.1 -0.1,-0.35 Q 12.25,-1 8.85,-1.7 m 9.25,-10.65 -0.2,-0.05 0.55,1.4 0.05,-0.55 0.2,-0.75 -0.6,-0.05 m -4.5,4.05 q 0.8,0.2 0.7,1 l -0.1,0.45 -1,0.05 -0.4,-0.35 Q 12.65,-7.65 13.05,-8 l 0.55,-0.3 m 3.95,4.5 -0.1,-0.85 0.05,-0.2 0.05,-0.15 -1.05,1.1 0.25,0.4 0.35,0.95 0.25,1.2 q 0.1,0.65 0.35,1.25 L 17.9,0 v -0.15 l -0.05,-0.2 -0.05,-0.2 -0.15,-2.15 v -0.05 l -0.1,-1.05 m 8,-22.8 q 5.4,-1.15 8.1,2.45 0.5,0.65 0.25,1.5 l -7,25.2 Q 25.95,5.95 24.2,9 23.25,10.65 21.45,9.9 19.4,9.05 18.2,7.2 l -0.15,-0.05 -1,-0.4 -0.6,-0.4 L 15.2,5.3 14.8,5.15 13.4,5.05 12.35,5.75 9.7,7.9 8.3,9.35 q 2.6,4.05 2.85,8.6 Q 11.2,19.4 9.85,20 5.1,21.95 -0.3,21.45 l -1.25,-0.05 -24.6,0.3 q -0.55,0 -0.9,-0.6 -1.2,-1.9 -0.3,-4 -0.05,-10 -1.6,-19.6 -0.15,-0.8 0.6,-1.25 4.8,-2.85 9.25,-6.1 1.6,-1.15 2.25,-3.1 -0.15,-5.45 2.75,-9.65 0.45,-0.7 1.3,-0.85 10.25,-1.9 20.9,-2.15 l 17.45,-1 m -36.4,42.3 6.35,-0.05 1.65,-0.05 h 0.9 L -0.1,15.55 5.15,15.35 4.5,14.5 3.95,13.5 3.65,12.8 3.15,11.75 2.95,11.1 2.9,10.45 V 10.2 10 9.95 l -2.9,0.9 -2.95,0.4 H -3.4 -5.25 -5.45 L -6.3,11.2 H -7 Q -13,12 -18.15,9.65 l -0.7,-0.5 -1.05,-9.2 -0.1,-1.3 -3,1.15 0.4,1.25 q 0.2,0.55 0.25,1.1 l -0.05,1.7 0.1,0.85 0.05,0.25 0.1,0.4 0.25,1.3 q 0.1,0.75 0.05,1.5 0.3,0.6 0.35,1.3 v 0.85 1.5 0.85 0.65 0.45 1.05 0.85 l 10.65,0.05 m 1,-22.15 0.5,0.15 0.3,0.25 0.35,0.4 0.05,0.2 Q -8.6,-5.1 -8.7,-4.8 -8.85,-4.3 -9.3,-4 h -0.55 l -0.85,-0.2 -0.4,-0.65 0.1,-0.9 0.15,-0.2 0.2,-0.2 0.25,-0.15 0.2,-0.05 0.35,-0.05 V -6.45 M -11,-9.2 l -0.35,0.2 -1.4,1.8 q -0.6,0.8 -0.8,1.85 l 0.25,0.9 0.3,0.65 0.2,0.6 1.4,0.6 4.05,0.1 q 2.55,-0.85 4.1,-3 L -2.4,-6.95 V -7.6 -8.25 -8.65 L -2.65,-9.1 -2.85,-9.5 -3,-9.75 l -1.15,-0.6 -0.25,-0.1 q -2.85,0.75 -5.65,0.65 L -11,-9.2 m -5.8,5.95 -0.1,0.25 -0.1,0.2 q 0.75,3.15 0.85,6.45 l 0.35,3 2.75,0.45 -0.1,-1.35 q -0.6,-2 -0.3,-4.35 l 0.3,-2.1 q -0.95,-0.25 -1.4,-1.2 l -0.6,-1.25 -0.05,-0.2 V -3.6 l 0.05,-0.2 -0.15,-0.2 -0.15,-0.2 v -0.3 l -1.3,1.15 -0.05,0.1 m 12.15,-5.55 0.55,0.2 0.45,0.35 0.1,0.45 q 0.05,0.35 -0.2,0.65 L -4.5,-6.8 Q -5,-6.75 -5.35,-7.15 l -0.2,-0.2 -0.05,-0.45 0.25,-0.65 0.7,-0.3 V -8.8 M -4.25,6.45 -4.65,6.35 -4.9,6.15 -5.15,5.95 -5.9,5.1 -6.25,4.65 q -0.9,-2.65 0,-5 L -11,-0.1 v 2.8 q 0.25,1.6 0.25,3.35 l -0.15,1.25 7.25,-0.25 0.7,-0.1 h -0.3 L -3.55,6.7 -3.7,6.6 -4.05,6.5 -4.25,6.45"
         fill="#000000"
         fill-rule="evenodd"
         stroke="none"
         id="path1" />
      <path
         d="m 11.45,-16.2 -0.05,-0.05 q -0.35,-1.25 0.35,-2.3 0.7,-1 1.85,-1.05 1.9,0.25 2.45,2.05 l 0.15,1.1 -0.2,0.4 -4.55,-0.15 m 7.35,0.25 0.15,-0.4 q 0.9,-1.55 2.6,-1.6 5.65,-0.05 3.9,4.8 -0.5,1.35 -1.85,2.05 -1.25,0.65 -2.25,0.8 v -0.05 q -0.05,-1.85 0.75,-3.5 v -0.15 -0.25 -0.2 l -0.05,-0.2 -0.15,-0.25 -0.1,-0.2 -0.15,-0.2 -0.25,-0.2 -1.3,-0.4 -1.3,-0.05 m 2.15,7.75 0.4,-0.3 1.4,-0.65 0.5,-0.05 0.15,-0.05 1.1,0.3 0.75,0.35 0.1,0.25 -0.15,0.5 -0.15,1.25 -0.25,0.65 -0.2,0.65 -0.45,1.3 -0.15,0.4 -0.2,0.85 -0.1,0.45 -0.2,0.65 -0.6,0.4 -0.75,0.7 -0.35,0.4 -0.4,0.85 v 0.2 l -0.2,0.65 q -0.75,0.2 -1.35,-0.3 L 19.35,0.9 19.5,0.1 19.95,-3.5 v -0.2 -0.25 -0.2 q 0.45,-0.8 0.55,-1.7 l 0.3,-1.55 0.05,-0.2 V -7.8 -8 l 0.1,-0.2 M -3.85,2.65 -3.4,2.35 Q -2.9,2 -2.4,2 l 0.15,0.05 0.05,0.05 0.3,0.25 0.55,0.1 H -1.3 Q 0.2,3.2 0.25,4.35 L -1.9,4.3 -2.5,3.95 -3.05,3.8 q -0.6,-0.5 -0.8,-1.15 m 12.4,-3.8 0.3,-0.55 q 3.4,0.7 6.25,-1.1 l 0.1,0.35 -0.1,1.1 0.1,0.4 Q 11.75,-1.5 8.4,1.15 8.75,0 8.55,-1.15 m 9.95,-10.4 -0.4,-0.8 0.6,0.05 -0.2,0.75 m -1.75,8.05 0.5,0.35 0.3,-0.65 0.1,1.05 v 0.05 l 0.15,2.15 0.05,0.2 0.05,0.2 V 0 L 17.7,-0.1 Q 17.45,-0.7 17.35,-1.35 L 17.1,-2.55 16.75,-3.5 m -22.2,14.75 h 0.2 1.85 0.45 L 0,10.85 2.9,9.95 v 0.05 0.2 0.25 l 0.05,0.65 0.2,0.65 0.5,1.05 0.3,0.7 0.55,1 0.65,0.85 -5.25,0.2 -1.85,0.05 h -0.9 l -1.65,0.05 -6.35,0.05 q 0.7,-2.7 3.75,-3.9 l 1.65,-0.5 v -0.05 m 1.8,-4.2 -0.3,-0.25 -0.3,-0.35 0.2,0.05 0.35,0.1 0.15,0.1 0.3,0.25 h 0.3 l -0.7,0.1 m -10.7,4.15 0.85,0.25 q 0.35,0.1 0.7,0.35 0.6,0.75 0.45,1.7 -0.2,0.95 -1.05,1.45 -1.7,0.5 -2.65,-0.9 l -0.25,-0.4 V 13.2 12.8 l 0.1,-0.45 0.35,-0.45 q 0.3,-0.35 0.8,-0.55 l 0.2,-0.05 0.5,-0.05 V 11.2"
         fill="#6d6d6d"
         fill-rule="evenodd"
         stroke="none"
         id="path2" />
      <path
         d="m 16,-16.05 0.2,-0.4 -0.15,-1.1 q -0.55,-1.8 -2.45,-2.05 -1.15,0.05 -1.85,1.05 -0.7,1.05 -0.35,2.3 l 0.05,0.05 H 10.8 l -8.85,-0.1 -2.6,0.45 -8.9,1.7 -0.9,0.25 q 0.3,-1.7 0.1,-3.5 l 0.15,-0.2 0.35,-0.45 2.85,-0.65 8.5,-0.4 24.85,-1.7 q 1.35,-0.5 1.4,0.5 v 0.2 l -0.05,0.2 -0.05,0.2 -0.15,0.65 -0.25,0.65 -0.25,1.3 -0.15,0.4 -0.2,0.7 v 0.6 l -0.05,0.65 -0.45,1.3 -0.2,1.3 -0.1,0.4 -0.1,0.45 -0.15,1.05 -0.2,1.55 -0.05,0.35 -0.1,-0.25 -0.75,-0.35 -1.1,-0.3 -0.15,0.05 -0.5,0.05 -1.4,0.65 -0.4,0.3 q 0.45,-1 0.4,-2.1 1,-0.15 2.25,-0.8 1.35,-0.7 1.85,-2.05 1.75,-4.85 -3.9,-4.8 -1.7,0.05 -2.6,1.6 l -0.15,0.4 -2.8,-0.1 m -21.45,27.3 v 0.05 l -1.65,0.5 q -3.05,1.2 -3.75,3.9 L -21.5,15.65 V 14.8 13.75 13.3 12.65 11.8 10.3 9.45 q -0.05,-0.7 -0.35,-1.3 0.05,-0.75 -0.05,-1.5 l -0.25,-1.3 -0.1,-0.4 -0.05,-0.25 -0.1,-0.85 0.05,-1.7 Q -22.4,1.6 -22.6,1.05 l -0.4,-1.25 3,-1.15 0.1,1.3 1.05,9.2 0.7,0.5 Q -13,12 -7,11.2 h 0.7 l 0.85,0.05 m -8.9,-0.05 v 0.05 l -0.5,0.05 -0.2,0.05 q -0.5,0.2 -0.8,0.55 l -0.35,0.45 -0.1,0.45 v 0.4 0.45 l 0.25,0.4 q 0.95,1.4 2.65,0.9 0.85,-0.5 1.05,-1.45 0.15,-0.95 -0.45,-1.7 -0.35,-0.25 -0.7,-0.35 l -0.85,-0.25"
         fill="#ffffff"
         fill-rule="evenodd"
         stroke="none"
         id="path3" />
      <path
         d="m 1.1,-5.95 -1.85,0.45 0.3,-1.25 q 0.55,-2.6 -0.85,-4.5 l 8.6,-1.3 -0.3,0.35 -0.9,0.9 -0.3,0.7 -1,1.25 L 4.55,-7 4.5,-5.75 2.9,-5.9 1.1,-5.95 m -17.9,2.7 0.05,-0.1 1.3,-1.15 v 0.3 l 0.15,0.2 0.15,0.2 -0.05,0.2 v 0.25 l 0.05,0.2 0.6,1.25 q 0.45,0.95 1.4,1.2 l -0.3,2.1 q -0.3,2.35 0.3,4.35 l 0.1,1.35 -2.75,-0.45 -0.35,-3 Q -16.25,0.35 -17,-2.8 l 0.1,-0.2 0.1,-0.25"
         fill="#a3bbb9"
         fill-rule="evenodd"
         stroke="none"
         id="path4" />
      <path
         d="m 9.05,-11.75 1.3,-0.95 4.4,0.05 0.15,0.4 1.5,2.6 v 0.2 0.65 0.45 l -0.35,0.65 -1,1.25 -0.1,0.2 L 14.9,-6 q -3.45,3.15 -7.85,0.9 L 6.95,-5.3 6.75,-5.55 6.65,-5.75 6.5,-7 6.6,-8.5 7.15,-9.55 q 0.5,-1.35 1.75,-2.05 l 0.15,-0.15 m -0.6,2.4 -0.35,0.05 -0.15,0.1 -0.2,0.1 q -0.35,0.25 -0.4,0.65 l 0.2,0.65 0.15,0.15 q 0.35,0.25 0.75,0.4 L 8.95,-7.35 9.3,-7.5 9.7,-8.15 9.55,-8.8 9.05,-9.15 8.45,-9.35 m -12.3,12 q -0.2,-0.6 0,-1.3 1.25,-4.75 6.75,-4.7 h 0.85 l 0.05,0.05 0.95,0.6 q 1.05,0.65 1.55,1.65 l 0.3,1.1 V 0.3 L 6.5,0.5 6.3,0.95 6.25,1.15 v 0.2 0.2 L 6.3,2 6.25,2.2 6,2.6 4.3,4.3 Q 3.5,4.8 2.65,4.7 L 1.85,4.35 1.45,4.2 0.65,4.3 0.25,4.35 Q 0.2,3.2 -1.3,2.45 h 0.4 L -0.15,1.6 -0.05,1.2 Q 0,0.75 -0.3,0.4 L -0.75,-0.1 -1.35,-0.2 -2,0.05 -2.5,0.45 -2.6,0.85 -2.65,1.3 v 0.2 l 0.1,0.2 0.3,0.35 L -2.4,2 q -0.5,0 -1,0.35 l -0.45,0.3 M 4.75,-0.7 4.4,-0.65 4.15,-0.6 3.95,-0.4 3.75,-0.2 3.6,0 3.5,0.85 3.9,1.5 4.75,1.75 5.3,1.7 5.9,0.95 5.95,0.3 5.85,0.1 5.55,-0.35 5.25,-0.6 4.75,-0.7 M 13.6,-8.3 13.05,-8 q -0.4,0.35 -0.25,0.85 l 0.4,0.35 1,-0.05 0.1,-0.45 q 0.1,-0.8 -0.7,-1 m -24.6,-0.9 0.95,-0.6 q 2.8,0.1 5.65,-0.65 l 0.25,0.1 1.15,0.6 0.15,0.25 0.2,0.4 0.25,0.45 v 0.4 0.65 0.65 l -0.85,1.45 q -1.55,2.15 -4.1,3 l -4.05,-0.1 -1.4,-0.6 -0.2,-0.6 -0.3,-0.65 -0.25,-0.9 q 0.2,-1.05 0.8,-1.85 l 1.4,-1.8 0.35,-0.2 m 1.15,2.75 v 0.05 l -0.35,0.05 -0.2,0.05 -0.25,0.15 -0.2,0.2 -0.15,0.2 -0.1,0.9 0.4,0.65 0.85,0.2 h 0.55 q 0.45,-0.3 0.6,-0.8 0.1,-0.3 0.05,-0.65 l -0.05,-0.2 -0.35,-0.4 -0.3,-0.25 -0.5,-0.15 m 5.2,-2.35 v 0.05 l -0.7,0.3 -0.25,0.65 0.05,0.45 0.2,0.2 q 0.35,0.4 0.85,0.35 l 0.75,-0.35 q 0.25,-0.3 0.2,-0.65 L -3.65,-8.25 -4.1,-8.6 -4.65,-8.8"
         fill="#ad9e9e"
         fill-rule="evenodd"
         stroke="none"
         id="path5" />
      <path
         d="M -3.65,7.05 -10.9,7.3 -10.75,6.05 Q -10.75,4.3 -11,2.7 v -2.8 l 4.75,-0.25 q -0.9,2.35 0,5 l 0.35,0.45 0.75,0.85 0.25,0.2 0.25,0.2 0.4,0.1 0.3,0.35 0.3,0.25"
         fill="#7f6666"
         fill-rule="evenodd"
         stroke="none"
         id="path6" />
    </g>
    <g
       id="sprite1"
       transform="translate(17.4,15.85)">
      <use
         ffdec:characterId="31"
         height="57.200001"
         transform="matrix(0.5366,0,0,0.5366,-16.6582,-14.546)"
         width="70.75"
         xlink:href="#sprite2"
         id="use6" />
    </g>
    <g
       id="sprite2"
       transform="translate(-8.65,-10.35)">
      <use
         ffdec:characterId="30"
         height="57.200001"
         transform="translate(8.65,10.35)"
         width="70.75"
         xlink:href="#shape1"
         id="use7" />
    </g>
    <g
       id="shape1"
       transform="translate(-8.65,-10.35)">
      <path
         d="m 14.8,41.7 q 0.65,-1.75 2.65,-2.5 1.8,-0.8 3.7,-0.25 1.15,0.45 2.25,1.2 l 0.9,0.4 q 1.65,0.9 2.85,2.5 L 37.8,30.1 q 2.35,-2.8 3.75,-3.95 1.5,-1.15 4.25,-2.4 18.2,-8.85 27.65,-12.6 2.15,-0.8 3.25,-0.8 h 0.8 l 1.9,2.4 -0.2,0.8 q -0.2,1.1 -1.55,3 -5.85,8.25 -18.85,23.8 -1.85,2.35 -3.35,3.5 -1.4,1.15 -4.75,2.75 l -15.15,7.15 q 1.2,1.6 1.75,3.4 l 0.2,1 0.55,2.5 q 0.1,1.95 -1.1,3.55 -1.2,1.65 -3.05,1.9 l -1.3,0.05 q -1.65,0.2 -3.45,-0.65 -1.85,-0.9 -3,-2.6 L 25,60.95 23.8,62.1 q -2.6,2.85 -4.3,3.95 -2.85,1.8 -5.5,1.45 l -1.65,-0.5 -1.2,-0.7 -0.2,-0.2 q -1,-0.85 -1.6,-1.9 L 9.25,64 9.15,63.8 8.75,62.4 q -0.2,-0.8 -0.05,-1.7 0.25,-2.65 2.7,-5.05 1.5,-1.3 4.9,-3.15 L 17.7,51.55 16.05,50 q -1.35,-1.5 -1.8,-3.6 -0.4,-1.85 0.25,-3.45 l 0.3,-1.25"
         fill="#000000"
         fill-opacity="0.372549"
         fill-rule="evenodd"
         stroke="none"
         id="path7" />
    </g>
  </defs>
</svg>
