<?xml version="1.0" encoding="UTF-8" standalone="no"?>
<svg
   ffdec:objectType="frame"
   height="73.477234"
   width="95.619049"
   version="1.1"
   id="svg5"
   xmlns:xlink="http://www.w3.org/1999/xlink"
   xmlns="http://www.w3.org/2000/svg"
   xmlns:svg="http://www.w3.org/2000/svg"
   xmlns:ffdec="https://www.free-decompiler.com/flash">
  <g
     transform="translate(48.616667,37.301429)"
     id="g1">
    <use
       ffdec:characterId="17"
       height="119.15"
       id="rarity"
       transform="translate(-58.5,-60.65)"
       width="119.15"
       xlink:href="#sprite0" />
    <use
       ffdec:characterId="1123"
       height="73.5"
       transform="translate(-48.6,-37.3)"
       width="95.599998"
       xlink:href="#shape0"
       id="use1" />
  </g>
  <defs
     id="defs5">
    <g
       id="shape0"
       transform="translate(95.4,38.65)">
      <path
         d="m -17.05,4.05 q 1.1,1.85 1.25,2.6 0.4,2.1 -1.9,4.9 -6.45,7.6 -16.3,10.5 -9.45,2.8 -19.4,0.3 -3.9,-1.05 -8.05,-2.9 -11.35,-5.1 -14.8,-12.4 -1.25,-2.55 -0.6,-4.35 0.35,-1.05 1.95,-2.65 l 3.65,-3.5 q -3.65,0.65 -8.2,0.15 -6.6,-0.8 -12.25,-3.25 -2.65,-1.05 -3.4,-2.6 -0.95,-2.1 0.95,-5.5 4.9,-8.45 12.85,-13 1.95,-1.15 3.85,-1.7 4.85,-1.45 10.35,0.55 2.45,0.9 4.35,2.25 3,2.2 6.3,7.3 1.7,2.55 1.5,4.2 v 0.15 q 7.45,-3.1 14.45,-2 4.7,0.85 9.55,3.7 l 2.7,1.8 0.5,-0.8 3.5,-4.25 q 2.1,-2.25 4.25,-3.4 3.55,-1.95 7.85,-1.5 3.4,0.4 5.6,2.35 2,1.65 3.55,5.3 1.45,4 2.45,5.9 0.75,1.5 0.75,2.15 0.05,1.3 -0.95,2.4 l -2.1,1.55 -3.05,1.85 q -4.95,2.7 -9.35,2.75 l -2.5,-0.2 0.7,1.35 m -55.85,-28.6 -1.95,0.1 -2.25,0.85 q -7.95,3.8 -12.2,11.55 l -0.15,0.6 0.35,0.55 q 1.2,1.1 2.15,1.45 l 3.25,0.45 5.15,0.6 q 3.15,0.4 5.15,0.1 3.4,-0.55 6.85,-2.9 1.3,-0.85 3,-2.25 l 2.9,-2.4 q -1.4,-3.7 -4.85,-6.15 -3.4,-2.4 -7.4,-2.55 m 24.5,1.9 -3.1,-1.95 q -2.55,-1.5 -3.15,-2.05 -1.65,-1.5 -1.45,-3.25 0.2,-1.4 1.7,-2.8 3.3,-3.2 8,-4.75 4.45,-1.45 9.3,-1.15 l 3.1,0.55 q 1.1,0.4 2.65,1.5 3.9,2.85 5.45,6 0.8,1.65 0.85,3 0,1.75 -1.05,2.85 -0.7,0.75 -2.5,1.45 l -5.15,1.9 q -3.75,1.25 -5.45,1.25 -2.1,0 -5.55,-1.15 l -3.65,-1.4 m 8.85,-10.6 -2.3,0.1 -1.45,0.3 -2,0.65 q -2.45,0.95 -4.8,2.8 0.15,0.6 1.1,1.1 l 1.45,0.8 q 1.15,0.6 3.05,1.1 l 1.85,0.45 4.1,0.45 2.35,-0.65 2.3,-0.75 q 1.85,-0.6 3.35,-1.25 -1,-1.7 -3,-3.35 l -0.9,-0.7 q -1.2,-0.8 -1.85,-0.95 l -1.3,-0.1 h -1.95 m 18.25,39.6 q 0,-0.55 -0.35,-1.15 -4.2,-9.1 -11.9,-13.45 -4,-2.3 -8.6,-2.85 -4.7,-0.6 -8.95,0.85 -2.45,0.8 -5.65,2.75 -7.55,4.65 -13.3,11.15 L -70.7,5 l 0.5,1.1 q 2.5,3.35 6.9,5.85 3.3,1.85 8.5,3.6 4.2,1.4 7.25,1.9 l 7.35,0.2 4.9,-1.3 q 8.6,-2.95 13,-7.9 1.05,-1.15 1,-2.1 m 9.6,-22.2 -3.35,-0.3 q -2.7,0.35 -5.2,2.6 l -4.05,4.3 -0.6,0.65 q 2.05,2 3.6,4.3 l 0.8,0.35 2.35,1.35 q 2.8,1.15 6.55,-0.35 1.2,-0.45 3.05,-1.45 l 2.95,-1.55 -2.3,-5.85 q -0.85,-1.9 -1.45,-2.6 -0.75,-0.9 -2.35,-1.45 m -16.4,39.45 5,-3.5 3,-1.8 q 1.6,-0.65 4.15,-0.65 3.35,0 5.15,1 0.95,0.5 2.75,2.2 l 1.6,1.55 q 1.75,1.65 2.3,2.7 1,1.95 0.2,3.45 -0.5,1.05 -2.6,2.2 l -3.1,1.65 -3.25,1.5 q -2.7,0.95 -6.6,0.85 -3.9,0 -6.15,-1.15 l -2.95,-1.9 -1.3,-0.65 -1.1,-0.8 q -0.65,-0.75 -0.6,-1.85 0,-1.05 0.55,-2 0.7,-1.15 2.95,-2.8 m 10.35,-0.5 -0.6,0.2 -2.45,1.15 -1.9,1 -0.5,0.25 -2.65,1.45 2.9,2 2.05,0.4 0.25,0.05 1.35,0.05 4.5,-0.65 1.45,-0.7 0.95,-0.4 0.8,-0.4 1.6,-1.05 -2.45,-2.25 -0.8,-0.7 q -0.3,-0.2 -0.95,-0.3 l -0.45,-0.05 -1.65,-0.2 -1.15,0.05 -0.3,0.1 m -56.7,-1 -2.55,0.4 -0.6,0.15 -2.65,0.7 -0.35,0.1 q -1.95,0.75 -3.1,1.9 1.1,1.55 3.65,2.8 l 1.2,0.5 0.6,0.15 1.65,0.45 3.7,0.4 h 0.4 q 1.8,-0.25 4.55,-1.6 l 3.05,-1.4 -0.75,-0.85 -0.8,-0.85 q -0.3,-0.25 -1.35,-0.85 l -1.6,-1.05 Q -70.3,22.5 -70.95,22.3 H -71 l -0.15,-0.05 -1.4,-0.25 -1.9,0.1 M -83,32.8 q -5.15,-2.65 -6.45,-7.1 -0.45,-1.5 -0.05,-2.5 0.35,-0.85 1.6,-1.85 5.9,-4.45 14.45,-4.7 2.85,-0.1 4.65,0.65 1.6,0.6 3.75,2.65 l 2.7,2.6 q 1.45,1.35 2.15,2.65 0.7,1.35 0.6,2.95 -0.1,1 -0.5,1.6 -0.45,0.65 -2.05,1.4 l -2.8,1.3 -2.85,1.2 q -3.7,1.35 -7.7,1.15 -4,-0.25 -7.5,-2"
         fill="#000000"
         fill-rule="evenodd"
         stroke="none"
         id="path1" />
      <path
         d="m -81.05,-17.45 v -0.2 q 0.05,-1.05 0.65,-1.8 l 0.45,-0.45 q 1.15,-1.1 3.05,-1 1.1,0 1.85,0.6 1.1,0.95 0.65,2.75 -0.4,1.8 -1.9,2.4 l -2,0.2 q -1.4,-0.15 -2.1,-0.95 -0.6,-0.65 -0.65,-1.55 m 35.75,-14.75 2,-0.65 1.45,-0.3 2.3,-0.1 q 0.25,0.4 0.35,0.95 0.25,1.55 -0.9,2.7 -1.15,1.05 -2.7,0.9 -0.9,-0.1 -1.5,-0.6 l -0.8,-0.95 -0.25,-1 0.05,-0.95 m 13.25,39 v 0.05 q 0.45,0.7 0.4,1.65 -0.1,0.9 -0.7,1.55 l -1.5,0.8 -0.75,0.05 -0.95,-0.3 Q -37,9.9 -37,8.2 q 0,-0.85 0.55,-1.6 l 1.4,-0.95 1.7,0.1 q 0.8,0.35 1.3,1.05 m -23.9,-7.85 -0.05,-0.1 q -0.35,-1.1 -0.2,-1.9 0.15,-1.65 1.55,-2.7 1.1,-1 2.8,-1.4 l 0.65,-0.15 q 2.05,-0.45 3.4,0.5 1.4,0.85 1.55,2.6 0.25,1.6 -0.55,3 -0.7,1.35 -1.95,2.25 -1.35,0.9 -2.85,0.95 -2,0.1 -3.3,-1.2 -0.7,-0.7 -1.05,-1.85 M -20,-11.7 q 0.5,-0.9 1.4,-1.35 l 2.9,-0.05 q 1.55,0.8 1.55,2.4 0.05,1.4 -1.05,2.5 -0.95,0.95 -2.05,1.1 -0.8,0.1 -1.6,-0.35 L -20,-8.55 q -0.9,-1.55 0,-3.15 m -2.7,37.15 1.9,-1 2.45,-1.15 0.6,-0.2 q 0.5,0.5 0.7,1.3 0.4,1.4 -0.65,2.7 -0.95,1.2 -2.4,1.1 -0.75,0 -1.3,-0.35 l -0.95,-1 -0.35,-1.4 m -57.55,-2.1 2.65,-0.7 0.6,-0.15 2.55,-0.4 v 0.05 q 0.3,0.95 -0.1,1.95 -0.4,1.05 -1.3,1.55 -0.85,0.5 -1.95,0.3 l -0.85,-0.25 -0.9,-0.7 q -0.65,-0.75 -0.7,-1.65"
         fill="#ffffff"
         fill-rule="evenodd"
         stroke="none"
         id="path2" />
      <path
         d="m -79.95,-19.9 0.25,-0.45 q 0.75,-1 2.05,-1.7 1.45,-0.85 3,-1.1 2.05,-0.35 4.05,0.55 2,0.9 3.1,2.65 l 0.6,1.4 0.1,1.85 -0.1,1.8 q -0.25,0.9 -1.05,1.95 -1.45,1.9 -2.8,2.5 -1.5,0.7 -3.35,0.45 -1.15,-0.15 -3.35,-0.85 -2.15,-0.7 -3,-1.55 -0.9,-1 -1.05,-2.15 -0.15,-1.05 0.45,-2.9 0.05,0.9 0.65,1.55 0.7,0.8 2.1,0.95 l 2,-0.2 q 1.5,-0.6 1.9,-2.4 0.45,-1.8 -0.65,-2.75 -0.75,-0.6 -1.85,-0.6 -1.9,-0.1 -3.05,1 m 34.85,-10.35 0.8,0.95 q 0.6,0.5 1.5,0.6 1.55,0.15 2.7,-0.9 1.15,-1.15 0.9,-2.7 -0.1,-0.55 -0.35,-0.95 h 1.95 l 1.3,0.1 q 0.65,0.15 1.85,0.95 l 0.9,0.7 0.2,0.55 q 0.3,0.85 0.2,1.85 -0.1,1.2 -0.75,2.2 l -2.3,0.75 -2.35,0.65 -4.1,-0.45 -1.85,-0.45 -0.55,-0.85 -0.2,-1.7 0.15,-1.3 m -6.1,22.95 0.3,-0.25 q 1.4,-1.1 2.65,-1.5 l 2.45,-0.5 3,-0.1 2.7,0.75 3.5,1.45 q 3.05,1.5 4.15,3.75 0.6,1.15 1,3.75 0.25,2.5 0.15,3.35 -0.1,1.7 -0.75,3.4 -0.5,-0.7 -1.3,-1.05 l -1.7,-0.1 -1.4,0.95 Q -37,7.35 -37,8.2 q 0,1.7 1.45,2.4 l 0.95,0.3 -1.05,0.95 -2.85,1.65 q -2.25,1.05 -3.8,1.2 -3.3,0.45 -7.4,-1.6 l -3.35,-2 -2.25,-1.9 q -1.1,-1.3 -1.55,-2.7 -0.95,-3.1 0.6,-6.9 l 0.3,-0.65 q 0.35,1.15 1.05,1.85 1.3,1.3 3.3,1.2 1.5,-0.05 2.85,-0.95 1.25,-0.9 1.95,-2.25 0.8,-1.4 0.55,-3 -0.15,-1.75 -1.55,-2.6 -1.35,-0.95 -3.4,-0.5 m 35.75,-7.9 1.75,0.3 1.95,0.25 q 0.7,0.2 1.6,1.3 l 0.95,1.2 q 1.1,1.6 1.35,2.55 0.35,1.3 -0.15,2.65 -0.5,1.25 -1.55,2.2 -2.05,1.7 -5.1,1.6 -3.75,0 -5.5,-2.45 l -0.55,-1 -0.15,-1.15 0.1,-3.15 q 0.4,-1.95 2.65,-3.4 1.4,-0.95 2.65,-0.9 m -4.55,3.5 q -0.9,1.6 0,3.15 l 1.15,1.1 q 0.8,0.45 1.6,0.35 1.1,-0.15 2.05,-1.1 1.1,-1.1 1.05,-2.5 0,-1.6 -1.55,-2.4 l -2.9,0.05 q -0.9,0.45 -1.4,1.35 m -1.4,39.55 q 0.55,0.35 1.3,0.35 1.45,0.1 2.4,-1.1 1.05,-1.3 0.65,-2.7 -0.2,-0.8 -0.7,-1.3 l 0.3,-0.1 1.15,-0.05 1.65,0.2 0.1,0.05 q 0.65,0.45 1.35,1.85 0.8,1.65 0.8,2.85 l -0.95,0.4 -1.45,0.7 -4.5,0.65 -1.35,-0.05 -0.25,-0.05 -0.1,-0.1 -0.4,-1.6 m -57.25,-2.15 0.85,0.25 q 1.1,0.2 1.95,-0.3 0.9,-0.5 1.3,-1.55 0.4,-1 0.1,-1.95 V 22.1 l 1.9,-0.1 1.4,0.25 0.15,0.05 h 0.05 q 0.8,0.7 1.15,1.7 0.35,1.05 0.1,2.05 -0.3,1.05 -1.1,1.95 l -1.7,1.65 h -0.4 l -3.7,-0.4 -1.65,-0.45 Q -78.8,27.7 -78.7,26 l 0.05,-0.3"
         fill="#777777"
         fill-rule="evenodd"
         stroke="none"
         id="path3" />
      <path
         d="m -81.05,-17.45 q -0.6,1.85 -0.45,2.9 0.15,1.15 1.05,2.15 0.85,0.85 3,1.55 2.2,0.7 3.35,0.85 1.85,0.25 3.35,-0.45 1.35,-0.6 2.8,-2.5 0.8,-1.05 1.05,-1.95 l 0.1,-1.8 -0.1,-1.85 -0.6,-1.4 q -1.1,-1.75 -3.1,-2.65 -2,-0.9 -4.05,-0.55 -1.55,0.25 -3,1.1 -1.3,0.7 -2.05,1.7 l -0.25,0.45 -0.45,0.45 q -0.6,0.75 -0.65,1.8 v 0.2 m 8.15,-7.1 q 4,0.15 7.4,2.55 3.45,2.45 4.85,6.15 l -2.9,2.4 q -1.7,1.4 -3,2.25 -3.45,2.35 -6.85,2.9 -2,0.3 -5.15,-0.1 L -83.7,-9 -86.95,-9.45 Q -87.9,-9.8 -89.1,-10.9 l -0.35,-0.55 0.15,-0.6 q 4.25,-7.75 12.2,-11.55 l 2.25,-0.85 1.95,-0.1 m 27.6,-7.65 -0.05,0.95 0.25,1 -0.15,1.3 0.2,1.7 0.55,0.85 q -1.9,-0.5 -3.05,-1.1 L -49,-28.3 q -0.95,-0.5 -1.1,-1.1 2.35,-1.85 4.8,-2.8 m 11.75,0.7 q 2,1.65 3,3.35 -1.5,0.65 -3.35,1.25 0.65,-1 0.75,-2.2 0.1,-1 -0.2,-1.85 l -0.2,-0.55 m 1.5,38.3 q 0.65,-1.7 0.75,-3.4 0.1,-0.85 -0.15,-3.35 -0.4,-2.6 -1,-3.75 -1.1,-2.25 -4.15,-3.75 l -3.5,-1.45 -2.7,-0.75 -3,0.1 -2.45,0.5 q -1.25,0.4 -2.65,1.5 l -0.3,0.25 -0.65,0.15 q -1.7,0.4 -2.8,1.4 -1.4,1.05 -1.55,2.7 -0.15,0.8 0.2,1.9 l 0.05,0.1 -0.3,0.65 q -1.55,3.8 -0.6,6.9 0.45,1.4 1.55,2.7 l 2.25,1.9 3.35,2 q 4.1,2.05 7.4,1.6 1.55,-0.15 3.8,-1.2 l 2.85,-1.65 1.05,-0.95 0.75,-0.05 1.5,-0.8 q 0.6,-0.65 0.7,-1.55 0.05,-0.95 -0.4,-1.65 V 6.8 M -21.3,6.35 q 0.05,0.95 -1,2.1 -4.4,4.95 -13,7.9 l -4.9,1.3 -7.35,-0.2 q -3.05,-0.5 -7.25,-1.9 -5.2,-1.75 -8.5,-3.6 -4.4,-2.5 -6.9,-5.85 L -70.7,5 -70.05,3.65 q 5.75,-6.5 13.3,-11.15 3.2,-1.95 5.65,-2.75 4.25,-1.45 8.95,-0.85 4.6,0.55 8.6,2.85 7.7,4.35 11.9,13.45 0.35,0.6 0.35,1.15 m 5.85,-21.55 q -1.25,-0.05 -2.65,0.9 -2.25,1.45 -2.65,3.4 l -0.1,3.15 0.15,1.15 0.55,1 q 1.75,2.45 5.5,2.45 3.05,0.1 5.1,-1.6 1.05,-0.95 1.55,-2.2 0.5,-1.35 0.15,-2.65 -0.25,-0.95 -1.35,-2.55 l -0.95,-1.2 q -0.9,-1.1 -1.6,-1.3 l -1.95,-0.25 -1.75,-0.3 m 3.75,-0.65 q 1.6,0.55 2.35,1.45 0.6,0.7 1.45,2.6 l 2.3,5.85 -2.95,1.55 q -1.85,1 -3.05,1.45 -3.75,1.5 -6.55,0.35 l -2.35,-1.35 -0.8,-0.35 q -1.55,-2.3 -3.6,-4.3 l 0.6,-0.65 4.05,-4.3 q 2.5,-2.25 5.2,-2.6 l 3.35,0.3 m -11,41.3 0.35,1.4 0.95,1 0.4,1.6 0.1,0.1 -2.05,-0.4 -2.9,-2 2.65,-1.45 0.5,-0.25 m 8.05,-2.3 0.45,0.05 q 0.65,0.1 0.95,0.3 l 0.8,0.7 2.45,2.25 -1.6,1.05 -0.8,0.4 q 0,-1.2 -0.8,-2.85 -0.7,-1.4 -1.35,-1.85 l -0.1,-0.05 m -65.6,0.2 q 0.05,0.9 0.7,1.65 l 0.9,0.7 -0.05,0.3 q -0.1,1.7 0.45,2.8 l -0.6,-0.15 -1.2,-0.5 q -2.55,-1.25 -3.65,-2.8 1.15,-1.15 3.1,-1.9 l 0.35,-0.1 m 9.3,-1.05 q 0.65,0.2 1.55,0.75 l 1.6,1.05 q 1.05,0.6 1.35,0.85 l 0.8,0.85 0.75,0.85 -3.05,1.4 q -2.75,1.35 -4.55,1.6 L -70.8,28 q 0.8,-0.9 1.1,-1.95 0.25,-1 -0.1,-2.05 -0.35,-1 -1.15,-1.7"
         fill="#dadada"
         fill-rule="evenodd"
         stroke="none"
         id="path4" />
    </g>
    <g
       id="sprite1"
       transform="translate(17.4,15.85)">
      <use
         ffdec:characterId="31"
         height="57.200001"
         transform="matrix(0.5366,0,0,0.5366,-16.6582,-14.546)"
         width="70.75"
         xlink:href="#sprite2"
         id="use4" />
    </g>
    <g
       id="sprite2"
       transform="translate(-8.65,-10.35)">
      <use
         ffdec:characterId="30"
         height="57.200001"
         transform="translate(8.65,10.35)"
         width="70.75"
         xlink:href="#shape1"
         id="use5" />
    </g>
    <g
       id="shape1"
       transform="translate(-8.65,-10.35)">
      <path
         d="m 14.8,41.7 q 0.65,-1.75 2.65,-2.5 1.8,-0.8 3.7,-0.25 1.15,0.45 2.25,1.2 l 0.9,0.4 q 1.65,0.9 2.85,2.5 L 37.8,30.1 q 2.35,-2.8 3.75,-3.95 1.5,-1.15 4.25,-2.4 18.2,-8.85 27.65,-12.6 2.15,-0.8 3.25,-0.8 h 0.8 l 1.9,2.4 -0.2,0.8 q -0.2,1.1 -1.55,3 -5.85,8.25 -18.85,23.8 -1.85,2.35 -3.35,3.5 -1.4,1.15 -4.75,2.75 l -15.15,7.15 q 1.2,1.6 1.75,3.4 l 0.2,1 0.55,2.5 q 0.1,1.95 -1.1,3.55 -1.2,1.65 -3.05,1.9 l -1.3,0.05 q -1.65,0.2 -3.45,-0.65 -1.85,-0.9 -3,-2.6 L 25,60.95 23.8,62.1 q -2.6,2.85 -4.3,3.95 -2.85,1.8 -5.5,1.45 l -1.65,-0.5 -1.2,-0.7 -0.2,-0.2 q -1,-0.85 -1.6,-1.9 L 9.25,64 9.15,63.8 8.75,62.4 q -0.2,-0.8 -0.05,-1.7 0.25,-2.65 2.7,-5.05 1.5,-1.3 4.9,-3.15 L 17.7,51.55 16.05,50 q -1.35,-1.5 -1.8,-3.6 -0.4,-1.85 0.25,-3.45 l 0.3,-1.25"
         fill="#000000"
         fill-opacity="0.372549"
         fill-rule="evenodd"
         stroke="none"
         id="path5" />
    </g>
  </defs>
</svg>
