<?xml version="1.0" encoding="UTF-8" standalone="no"?>
<svg
   ffdec:objectType="frame"
   height="62.48"
   width="80.270882"
   version="1.1"
   id="svg5"
   xmlns:xlink="http://www.w3.org/1999/xlink"
   xmlns="http://www.w3.org/2000/svg"
   xmlns:svg="http://www.w3.org/2000/svg"
   xmlns:ffdec="https://www.free-decompiler.com/flash">
  <g
     transform="translate(49.853571,31.23)"
     id="g1">
    <use
       ffdec:characterId="17"
       height="119.15"
       id="rarity"
       transform="translate(-58.5,-60.65)"
       width="119.15"
       xlink:href="#sprite0" />
    <use
       ffdec:characterId="1101"
       height="62.5"
       transform="translate(-49.85,-31.25)"
       width="80.25"
       xlink:href="#shape0"
       id="use1" />
  </g>
  <defs
     id="defs5">
    <g
       id="shape0"
       transform="translate(96.65,32.6)">
      <path
         d="m -71.15,-23.35 q 6.05,-0.4 7.85,4.15 l 0.4,0.2 q 1.85,2.95 1.45,6.4 -0.2,1.7 -0.85,3.25 l 0.1,0.45 v 0.2 0.45 q 0.3,0.6 0.45,1.3 l 0.7,1.55 q 3.4,-4.4 9.2,-2.3 l 0.25,0.1 1.05,1.2 0.65,1.05 1.35,1.85 0.05,0.1 -0.05,0.25 1.15,0.35 1.55,0.95 1.55,-10.15 q 0.25,-1.8 0.7,-2.9 0.45,-1.15 1.9,-2.95 l 5.55,-6.95 6.05,-6.5 q 1.7,-1.6 2.9,-1.2 1.2,0.45 1.4,3 0.6,10.8 0.65,14.05 0.1,2.5 -0.3,3.95 -0.3,1.1 -1.5,3.25 l 0.05,0.05 0.75,1.65 0.6,2 0.85,0.05 1.45,0.15 q 5,0.95 6.4,6.8 1.35,5.8 -1.2,10.95 -2.6,5.3 -7.7,8.35 -10.75,6.45 -23.45,6.6 h -2.35 q -8.4,-0.05 -14.95,-3.8 l -0.15,0.1 q -0.5,0.4 -1.3,0.65 l -4.7,1.55 -6.35,1.95 -1,0.2 -1,-0.15 q -0.8,-0.4 -0.9,-1.35 l 0.55,-1.5 4.65,-7.65 -1.55,1.55 -3.3,2.25 -5.55,3 q -3.2,1.8 -5.15,3.45 -1.2,1.1 -1.95,1.25 -0.85,0.2 -1.6,-0.4 -0.75,-0.6 -0.85,-1.45 -0.05,-0.8 0.6,-2.1 Q -92.8,19.4 -85,7 l 1.7,-2.85 q -2.9,-1.05 -4.3,-4.45 -0.55,-1.4 -0.1,-2.85 2.35,-7 9.75,-8.7 -0.1,-3.25 1.1,-6.25 1.65,-4.1 5.7,-5.25 m -3.1,16 q -0.85,0.45 -2.15,0.65 -4.25,0.55 -6.45,4.2 l -0.05,0.25 v 0.2 l 0.05,0.2 v 0.25 0.05 0.15 l 0.2,0.2 0.2,0.25 0.15,0.2 7.6,0.45 0.55,0.2 2.6,-0.1 1,-0.4 h 0.25 q 1.85,0.15 2.3,1.85 l 0.05,0.1 q 0.2,0.8 -0.15,2 l -0.35,0.9 -2.4,5.45 -1.2,2.2 1.1,2 q 2.6,-0.85 3.8,-1.15 L -66,12.5 h 0.15 q 0.85,0.1 1.2,0.6 l 0.4,0.75 q 0.55,0.25 0.75,0.4 l 0.3,0.6 -0.15,0.85 -1.1,4 q 8.8,4.65 18.55,2.65 l 4.6,-0.7 q 7.65,-0.7 13.85,-5.4 l 2.7,-2.6 q 2,-2.15 2.8,-4.9 L -21.8,8.1 V 5.95 3.8 L -21.9,3.6 -22,3.2 -22.1,2.9 Q -22.35,2 -23.15,1.45 L -23.5,1.1 -23.65,1.05 -24.25,1 l -0.35,0.05 -0.65,1.3 -0.35,1.4 q 0.35,1.5 0.05,2.95 l -0.5,1.45 -0.95,1.6 q -0.9,2.15 -2.45,3.15 -1,0.65 -2.25,0.95 l -3.7,0.2 -0.8,-0.2 -0.95,-0.25 -1.65,-0.85 -1,0.8 q -2.55,1.65 -5.05,0.85 l -1.35,-0.45 -0.95,-0.6 -1,0.75 -1.1,0.6 -0.5,0.3 -0.8,0.4 q -2,0.4 -3.95,-0.05 l -0.75,-0.6 -0.25,-0.3 -0.3,-0.35 -0.55,-0.65 -0.05,-0.05 -0.35,-1.15 q -1.1,0.7 -2.55,0.8 l -3.85,-0.55 q -1.55,-0.5 -2.45,-1.95 -0.65,-1.1 -0.65,-2.25 0,-0.85 0.4,-1.7 L -65.8,5.5 -65.65,5 -65.5,4.65 q 0.25,-2.05 1.3,-3.7 L -64.65,0.4 q -2.2,-3.3 -2.55,-6.75 -0.3,-2.35 0.35,-4.75 v -0.4 q 0.35,-3.75 -1,-7.2 v -0.05 l -0.65,0.05 -2.05,0.05 -0.25,0.2 -0.2,0.25 -0.3,0.2 -0.4,0.45 -0.35,0.85 -0.85,2.1 -0.1,1.1 v 1.7 q 0.7,2.55 -0.5,3.85 l -0.7,0.55 -0.05,0.05 M -49,1.75 -49.25,1.55 Q -49.9,3.4 -51.4,4.65 L -51.55,4.75 -52.5,4.6 Q -54.85,2.7 -54,-0.5 l 0.85,-2.55 -3,-0.7 -0.5,0.05 q -0.8,0.7 -1.25,1.7 -0.35,0.6 -0.85,1.1 -0.75,2.65 -2.45,2.9 l -0.3,0.6 -0.55,3.45 -0.15,1.7 0.9,1.1 0.4,0.4 1,0.2 q 2.5,-2.25 5.2,-2.2 0.4,0.2 0.55,0.65 l 0.15,0.4 -0.05,0.25 0.05,0.5 -0.2,1.05 v 0.2 l 0.05,0.45 0.05,0.2 0.15,0.2 0.6,0.65 1.95,0.25 0.5,-0.6 0.05,-0.05 2.15,-4.8 0.45,-1 0.3,-1.05 L -48.2,3.75 -48.45,2.8 -48.85,1.9 -49,1.75 m 19.8,-20 -0.15,-3.95 -0.35,-3.7 q -1.7,1.3 -4.6,5.05 l -4.3,5.6 -0.4,0.55 -0.7,1.15 -0.15,0.5 -0.45,2.2 q -0.35,3.25 -1.25,8.4 l -0.55,3.05 -0.8,4.1 -0.55,1.8 -0.15,0.2 -0.4,0.45 -0.3,0.85 -0.95,2.3 1.35,0.15 q 0.8,-0.05 1.8,-0.9 l 0.4,-0.35 1.1,-2 0.15,-0.25 6.95,-12 2.85,-5.4 q 0.85,-1.5 1.1,-2.5 V -13 l 0.25,-1.55 -0.15,0.05 -1.2,0.6 -2.35,1.3 -1.7,0.95 -0.55,2.7 -0.25,0.8 -0.5,1.25 -0.7,1.35 q -0.55,0.75 -0.55,1.25 l -0.05,0.35 q 0,0.25 -0.25,0.25 -0.2,-0.05 -0.2,-0.45 l 0.25,-0.9 V -5.9 l 0.05,-0.7 v -0.05 l 0.35,-2.25 0.45,-2 0.2,-1.2 -0.05,-0.75 0.1,-0.65 0.65,-0.45 q 0.5,-0.2 0.75,-0.35 l 0.85,-0.65 1.2,-0.6 2.8,-1.35 0.85,-0.3 h 0.1 v -1.05 m -0.2,16.9 0.15,-0.55 q 0.4,-1.25 0.35,-1.55 l -0.25,-0.9 -1.8,3.15 -2.7,4.65 -1.85,3.2 -0.05,0.1 -1.1,1.9 0.8,0.55 q 0.65,0.45 1.45,0.55 l 1.05,0.05 q 1.1,-0.1 1.85,-0.7 V 8.6 l 0.4,-1.7 0.1,-0.35 0.1,-0.8 0.05,-1.35 0.4,-2.1 0.1,-0.6 0.25,-1.1 0.7,-1.95 m -48.2,9.55 1.6,-1.5 0.7,-0.6 0.7,-0.95 0.7,-0.7 0.45,-0.5 q -2.8,0.25 -5.3,1.1 L -79,5.1 l -0.75,0.35 -0.45,0.6 -2.3,3.6 -0.35,0.5 -1.35,2.5 -2.15,3.85 -2.95,5.65 5,-2.75 0.05,-0.05 1.35,-0.85 1.25,-1.3 v -0.05 l 2.05,-2.65 3.5,-4.65 -0.15,0.15 -0.75,0.75 -0.95,1 -0.95,0.4 -0.55,0.5 -0.65,0.35 -0.55,-0.25 -0.25,-0.55 q 0.05,-0.35 0.7,-1 l 0.7,-1.1 1,-1.05 0.9,-0.85 m 7.4,8.7 -1.35,0.4 -0.35,0.2 -0.4,0.6 -3.8,6.25 3.15,-0.65 0.4,-0.1 0.7,-0.25 2.05,-0.95 0.3,-0.1 0.95,-0.45 0.75,-1.15 0.15,-0.3 0.7,-1.85 0.45,-0.7 0.35,-0.8 0.2,-0.75 0.15,-0.65 -3.75,1.1 -0.65,0.15"
         fill="#000000"
         fill-rule="evenodd"
         stroke="none"
         id="path1" />
      <path
         d="M -82.85,-1.55 V -1.6 -1.85 l -0.05,-0.2 v -0.2 l 0.05,-0.25 q 2.2,-3.65 6.45,-4.2 1.3,-0.2 2.15,-0.65 l 0.1,0.05 0.05,0.05 -0.1,-0.15 0.7,-0.55 q 1.2,-1.3 0.5,-3.85 v -1.7 l 0.1,-1.1 0.85,-2.1 0.35,-0.85 0.4,-0.45 0.3,-0.2 0.2,-0.25 0.25,-0.2 2.05,-0.05 0.65,-0.05 v 0.05 q 1.35,3.45 1,7.2 v 0.4 q -0.65,2.4 -0.35,4.75 0.35,3.45 2.55,6.75 l 0.45,0.55 q -1.05,1.65 -1.3,3.7 L -65.65,5 h -0.05 l -0.75,-0.15 -1.65,-1.5 q 0.35,-1.2 0.15,-2 L -68,1.25 q -0.45,-1.7 -2.3,-1.85 h -0.25 Q -71.3,-2.45 -72.4,-4.15 V -4.4 l -0.05,-0.25 0.1,-0.5 0.15,-0.25 -0.75,-0.55 -0.05,0.45 -0.05,0.25 -0.25,0.5 q -4.1,4.3 -9.55,3.2 M -48.7,6.6 -48.8,6.1 q -0.35,-1.5 -0.25,-3.9 l 0.05,-0.45 0.15,0.15 0.4,0.9 0.25,0.95 0.25,0.8 -0.3,1.05 -0.45,1 m 8.1,0.6 -1.1,2 -0.4,0.35 q -1,0.85 -1.8,0.9 L -45.25,10.3 -44.3,8 -44,7.15 l 0.4,-0.45 0.15,-0.2 0.2,-0.05 q 1.65,0 2.6,0.7 l 0.05,0.05 m 15.05,-0.5 q 0.3,-1.45 -0.05,-2.95 l 0.35,-1.4 0.65,-1.3 0.35,-0.05 0.6,0.05 0.15,0.05 0.35,0.35 Q -22.35,2 -22.1,2.9 L -22,3.2 -22.05,3.25 -22.5,4 -22.65,4.25 V 4.5 4.75 L -22.7,5 l -0.2,0.25 -0.15,0.25 -0.25,0.25 -0.45,0.2 q -0.8,0.25 -1.45,0.7 l -0.35,0.05 m -37.65,8.15 -0.3,-0.6 q -0.2,-0.15 -0.75,-0.4 l -0.4,-0.75 Q -65,12.6 -65.85,12.5 H -66 l -0.4,-0.6 q -0.5,-1.85 0.15,-3.6 0,1.15 0.65,2.25 0.9,1.45 2.45,1.95 l 3.85,0.55 q 1.45,-0.1 2.55,-0.8 l 0.35,1.15 0.05,0.05 0.55,0.65 0.3,0.35 0.1,0.2 0.15,0.1 0.75,0.6 q 1.95,0.45 3.95,0.05 l 0.8,-0.4 0.5,-0.3 1.1,-0.6 1,-0.75 0.95,0.6 1.35,0.45 q 2.5,0.8 5.05,-0.85 l 1,-0.8 1.65,0.85 0.95,0.25 0.8,0.2 3.7,-0.2 q 1.25,-0.3 2.25,-0.95 1.55,-1 2.45,-3.15 l 0.95,-1.6 v 0.1 q -0.8,7.95 -8.4,9.5 -2.6,0.55 -4.4,-1.35 -2.95,3.3 -8.05,0.7 l -1.15,-0.9 q -1.6,3.95 -6.9,2.95 -3.7,-0.65 -4.4,-4.15 l -3.85,-0.15 m 32.3,-9.1 -0.1,0.8 -0.1,0.35 -0.4,1.7 v 0.5 q -0.75,0.6 -1.85,0.7 L -34.4,9.75 q -0.8,-0.1 -1.45,-0.55 l -0.8,-0.55 1.1,-1.9 0.05,-0.1 0.55,-0.1 1.8,-0.25 0.7,-0.05 0.15,-0.05 q 0.8,-0.4 1.4,-0.45 m -47.85,-0.7 q 2.5,-0.85 5.3,-1.1 l -0.45,0.5 -0.7,0.7 -0.7,0.95 -0.7,0.6 -1.6,1.5 -0.45,-0.6 -0.75,-1.5 0.05,-1.05 m 9.2,11.7 3.75,-1.1 -0.15,0.65 -0.2,0.75 -0.35,0.8 -0.45,0.7 -0.7,1.85 q -0.95,-0.4 -1.5,-1.35 -0.4,-0.8 -0.4,-1.65 v -0.65"
         fill="#bdbdbd"
         fill-rule="evenodd"
         stroke="none"
         id="path2" />
      <path
         d="m -82.85,-1.55 q 5.45,1.1 9.55,-3.2 l 0.25,-0.5 0.05,-0.25 0.05,-0.45 0.75,0.55 -0.15,0.25 -0.1,0.5 0.05,0.25 v 0.25 q 1.1,1.7 1.85,3.55 l -1,0.4 -2.6,0.1 -0.55,-0.2 -7.6,-0.45 -0.15,-0.2 -0.2,-0.25 -0.2,-0.2 v -0.15 m 14.75,4.9 1.65,1.5 0.75,0.15 h 0.05 l -0.15,0.5 -0.05,1.1 q -0.4,0.85 -0.4,1.7 -0.65,1.75 -0.15,3.6 l 0.4,0.6 -1.15,0.25 q -1.2,0.3 -3.8,1.15 l -1.1,-2 1.2,-2.2 2.4,-5.45 0.35,-0.9 m 42.55,3.35 0.35,-0.05 q 0.65,-0.45 1.45,-0.7 L -23.3,5.75 -23.05,5.5 -22.9,5.25 -22.7,5 -22.65,4.75 V 4.5 4.25 L -22.5,4 -22.05,3.25 -22,3.2 l 0.1,0.4 0.1,0.2 V 5.95 8.1 l -0.15,0.65 q -0.8,2.75 -2.8,4.9 l -2.7,2.6 q -6.2,4.7 -13.85,5.4 l -4.6,0.7 q -9.75,2 -18.55,-2.65 l 1.1,-4 0.15,-0.85 3.85,0.15 q 0.7,3.5 4.4,4.15 5.3,1 6.9,-2.95 l 1.15,0.9 q 5.1,2.6 8.05,-0.7 1.8,1.9 4.4,1.35 7.6,-1.55 8.4,-9.5 v -0.1 l 0.5,-1.45"
         fill="#a6a6a6"
         fill-rule="evenodd"
         stroke="none"
         id="path3" />
      <path
         d="m -48.7,6.6 -2.15,4.8 -0.05,0.05 -0.5,0.6 -1.95,-0.25 -0.6,-0.65 -0.15,-0.2 -0.05,-0.2 -0.05,-0.45 V 10.1 L -54,9.05 -54.05,8.55 -54,8.3 -54.15,7.9 Q -54.3,7.45 -54.7,7.25 -57.4,7.2 -59.9,9.45 l -1,-0.2 -0.4,-0.4 -0.9,-1.1 0.15,-1.7 0.55,-3.45 0.3,-0.6 q 1.7,-0.25 2.45,-2.9 0.5,-0.5 0.85,-1.1 0.45,-1 1.25,-1.7 l 0.5,-0.05 3,0.7 -0.85,2.55 q -0.85,3.2 1.5,5.1 l 0.95,0.15 0.15,-0.1 q 1.5,-1.25 2.15,-3.1 l 0.25,0.2 -0.05,0.45 q -0.1,2.4 0.25,3.9 l 0.1,0.5 m 19.35,-28.8 0.15,3.95 -4.85,3.1 -3.7,2 q -1.1,0.7 -1.6,0.5 l -0.5,-0.4 0.15,-0.5 0.7,-1.15 0.15,-0.1 0.55,-0.7 1.05,-0.95 6.8,-5.15 1.1,-0.6 m -8.1,15.6 -0.05,0.7 v 0.85 l -0.25,0.9 q 0,0.4 0.2,0.45 0.25,0 0.25,-0.25 l 0.05,-0.35 q 0,-0.5 0.55,-1.25 l 0.7,-1.35 0.5,-1.25 0.9,-0.75 q 3.5,-2.6 4.5,-3.6 l 0.55,-0.45 q -0.25,1 -1.1,2.5 l -2.85,5.4 -2.7,2.1 -1.9,1.75 q -1.15,1.05 -2.1,1.55 -1.15,0.6 -1.9,0.25 l 0.55,-3.05 1.15,-1.3 1.1,-1.15 1.85,-1.7 m 6.5,5.4 0.05,-0.05 1.5,-0.1 -0.7,1.95 -0.25,1.1 -0.1,0.6 -0.6,0.35 -1.15,0.65 -1.45,0.15 2.7,-4.65 m -50.7,18.4 -1.25,1.3 -1.35,0.85 -0.05,0.05 0.1,-6.75 1.35,-2.5 0.35,-0.5 q 0.2,0.05 0.35,0.25 0.3,0.35 0.4,1.1 l 0.1,6.2 m 9.35,0.9 0.4,-0.6 0.35,-0.2 1.35,-0.4 0.05,0.1 q 0.15,0.4 0.05,1.25 l 0.2,2.8 0.1,1.35 -2.05,0.95 -0.7,0.25 v -0.1 l 0.1,-2.7 0.15,-2.65 V 18.1"
         fill="#ffffff"
         fill-rule="evenodd"
         stroke="none"
         id="path4" />
    </g>
    <g
       id="sprite1"
       transform="translate(17.4,15.85)">
      <use
         ffdec:characterId="31"
         height="57.200001"
         transform="matrix(0.5366,0,0,0.5366,-16.6582,-14.546)"
         width="70.75"
         xlink:href="#sprite2"
         id="use4" />
    </g>
    <g
       id="sprite2"
       transform="translate(-8.65,-10.35)">
      <use
         ffdec:characterId="30"
         height="57.200001"
         transform="translate(8.65,10.35)"
         width="70.75"
         xlink:href="#shape1"
         id="use5" />
    </g>
    <g
       id="shape1"
       transform="translate(-8.65,-10.35)">
      <path
         d="m 14.8,41.7 q 0.65,-1.75 2.65,-2.5 1.8,-0.8 3.7,-0.25 1.15,0.45 2.25,1.2 l 0.9,0.4 q 1.65,0.9 2.85,2.5 L 37.8,30.1 q 2.35,-2.8 3.75,-3.95 1.5,-1.15 4.25,-2.4 18.2,-8.85 27.65,-12.6 2.15,-0.8 3.25,-0.8 h 0.8 l 1.9,2.4 -0.2,0.8 q -0.2,1.1 -1.55,3 -5.85,8.25 -18.85,23.8 -1.85,2.35 -3.35,3.5 -1.4,1.15 -4.75,2.75 l -15.15,7.15 q 1.2,1.6 1.75,3.4 l 0.2,1 0.55,2.5 q 0.1,1.95 -1.1,3.55 -1.2,1.65 -3.05,1.9 l -1.3,0.05 q -1.65,0.2 -3.45,-0.65 -1.85,-0.9 -3,-2.6 L 25,60.95 23.8,62.1 q -2.6,2.85 -4.3,3.95 -2.85,1.8 -5.5,1.45 l -1.65,-0.5 -1.2,-0.7 -0.2,-0.2 q -1,-0.85 -1.6,-1.9 L 9.25,64 9.15,63.8 8.75,62.4 q -0.2,-0.8 -0.05,-1.7 0.25,-2.65 2.7,-5.05 1.5,-1.3 4.9,-3.15 L 17.7,51.55 16.05,50 q -1.35,-1.5 -1.8,-3.6 -0.4,-1.85 0.25,-3.45 l 0.3,-1.25"
         fill="#000000"
         fill-opacity="0.372549"
         fill-rule="evenodd"
         stroke="none"
         id="path5" />
    </g>
  </defs>
</svg>
