<?xml version="1.0" encoding="UTF-8" standalone="no"?>
<svg
   ffdec:objectType="frame"
   height="46.099998"
   width="84.427101"
   version="1.1"
   id="svg6"
   xmlns:xlink="http://www.w3.org/1999/xlink"
   xmlns="http://www.w3.org/2000/svg"
   xmlns:svg="http://www.w3.org/2000/svg"
   xmlns:ffdec="https://www.free-decompiler.com/flash">
  <g
     transform="translate(42.303571,20.15)"
     id="g1">
    <use
       ffdec:characterId="17"
       height="119.15"
       id="rarity"
       transform="translate(-58.5,-60.65)"
       width="119.15"
       xlink:href="#sprite0" />
    <use
       ffdec:characterId="64"
       height="46.200001"
       transform="translate(-42.3,-20.25)"
       width="84.400002"
       xlink:href="#sprite1"
       id="use1" />
  </g>
  <defs
     id="defs6">
    <g
       id="sprite1">
      <use
         ffdec:characterId="63"
         height="46.200001"
         width="84.400002"
         xlink:href="#shape0"
         id="use2" />
    </g>
    <g
       id="shape0">
      <path
         d="m 24.85,34.6 -2.4,0.65 q -1.3,0.2 -2.25,-0.35 l -0.25,-0.15 q -0.95,-0.1 -2.8,-0.9 -5.05,-2 -9.75,-3.2 L 4.35,29.7 Q 2.75,29 1.9,27.9 1,26.75 0.6,24.35 -0.05,20.15 0,15.85 0,13.55 0.75,12.15 1.8,10.35 5.65,9 L 21.35,3.55 Q 25.8,2 28.15,1.4 32,0.35 35.15,0.1 L 45.6,0.7 q 8.5,1.25 16.5,3.5 1.1,0.3 1.65,0.75 2.3,0.95 4.65,2.6 2.8,2 4,3.75 l 0.15,-0.1 q 0.85,-0.55 1.95,-0.8 l 2.1,-0.25 2.45,0.5 1.75,0.55 q 2.05,0.9 3.15,3.8 l 0.4,1.25 Q 84.6,17.6 84,19.8 q -0.65,2.1 -1.8,3.7 -1.45,1.85 -3.35,2.35 -1.45,0.4 -3.35,0 -0.3,3.75 -2,7.35 -2.3,4.85 -6.45,7.95 -4.15,3.1 -9.5,3.9 l -2.4,0.25 -1.6,0.7 -7.25,0.2 Q 40.2,46.05 35.05,44.15 29.9,42.2 27.9,39.85 q -2,-2.4 -2.4,-5.45 l -0.65,0.2 M 68.2,31.15 Q 69.5,28.9 69.95,27.1 70.4,24.95 69.7,20.65 l -0.5,-2.7 -0.05,-0.1 v -0.1 L 68.1,15.25 Q 66.7,12.8 63.4,11.15 58.5,8.75 53.8,9.9 l -2.85,0.85 -3.05,0.85 q -1.45,0.4 -25.7,9.95 0.9,3.05 1.35,6.05 0.1,0.7 0.4,0.85 0.3,0.2 1,0 l 6.9,-1.55 7,-1.05 q 2.35,-0.3 3.25,0.45 0.95,0.8 0.95,2.55 L 42.9,31.7 q 0.2,2.7 2.65,4.65 1.75,1.35 4.8,2.45 4.05,1.4 6.6,1.25 3.55,-0.3 6.65,-3.05 2.25,-1.95 4.6,-5.85 M 78.55,16.8 q -0.2,-0.4 -1.15,-0.6 l -2,0.05 -0.8,0.9 0.65,3.2 0.85,0.05 1.25,-0.05 0.65,-0.75 0.6,-1.75 q 0.2,-0.7 -0.05,-1.05 M 19.9,16.6 46.05,6.5 46.7,6.25 36.25,5.6 q -3,0.25 -6.65,1.25 l -6.5,2.1 -15.9,5.65 1.55,0.5 2.7,0.75 q 1.1,0.3 2.05,0.75 h 6.4 M 6.3,21.95 q 0.2,1.3 0.55,1.85 l 0.1,0.1 0.1,-0.75 q 0.4,-1.45 1.9,-1.85 l 1.55,-0.05 3.15,0.1 2.35,0.4 -0.05,-0.65 -0.2,-0.05 -5.15,-1.45 -1.9,-0.35 -1.95,-0.4 -0.8,-0.2 0.35,3.3 m 31.1,9.85 q -3.85,0.4 -7.65,1.35 -0.7,3.4 2.8,4.65 3.45,1.25 7.5,1.45 -2.8,-3.4 -2.65,-7.45"
         fill="#000000"
         fill-rule="evenodd"
         stroke="none"
         id="path2" />
      <path
         d="M 19.9,16.6 H 13.5 Q 12.55,16.15 11.45,15.85 L 8.75,15.1 7.2,14.6 23.1,8.95 29.6,6.85 q 3.65,-1 6.65,-1.25 L 46.7,6.25 46.05,6.5 19.9,16.6"
         fill="#e7e3cb"
         fill-rule="evenodd"
         stroke="none"
         id="path3" />
      <path
         d="M 68.2,31.15 Q 65.85,35.05 63.6,37 60.5,39.75 56.95,40.05 54.4,40.2 50.35,38.8 47.3,37.7 45.55,36.35 43.1,34.4 42.9,31.7 l 0.15,-2.85 q 0,-1.75 -0.95,-2.55 -0.9,-0.75 -3.25,-0.45 l -7,1.05 -6.9,1.55 q -0.7,0.2 -1,0 Q 23.65,28.3 23.55,27.6 23.1,24.6 22.2,21.55 46.45,12 47.9,11.6 L 50.95,10.75 53.8,9.9 q 4.7,-1.15 9.6,1.25 3.3,1.65 4.7,4.1 l 1.05,2.5 v 0.1 l 0.05,0.1 0.5,2.7 q 0.7,4.3 0.25,6.45 -0.45,1.8 -1.75,4.05"
         fill="#d2ceb9"
         fill-rule="evenodd"
         stroke="none"
         id="path4" />
      <path
         d="m 37.4,31.8 q -0.15,4.05 2.65,7.45 -4.05,-0.2 -7.5,-1.45 -3.5,-1.25 -2.8,-4.65 3.8,-0.95 7.65,-1.35 m -31.1,-9.85 -0.35,-3.3 0.8,0.2 1.95,0.4 1.9,0.35 5.15,1.45 0.2,0.05 0.05,0.65 -2.35,-0.4 -3.15,-0.1 -1.55,0.05 q -1.5,0.4 -1.9,1.85 L 6.95,23.9 6.85,23.8 Q 6.5,23.25 6.3,21.95"
         fill="#c4c0ad"
         fill-rule="evenodd"
         stroke="none"
         id="path5" />
    </g>
    <g
       id="sprite2"
       transform="translate(17.4,15.85)">
      <use
         ffdec:characterId="31"
         height="57.200001"
         transform="matrix(0.5366,0,0,0.5366,-16.6582,-14.546)"
         width="70.75"
         xlink:href="#sprite3"
         id="use5" />
    </g>
    <g
       id="sprite3"
       transform="translate(-8.65,-10.35)">
      <use
         ffdec:characterId="30"
         height="57.200001"
         transform="translate(8.65,10.35)"
         width="70.75"
         xlink:href="#shape1"
         id="use6" />
    </g>
    <g
       id="shape1"
       transform="translate(-8.65,-10.35)">
      <path
         d="m 14.8,41.7 q 0.65,-1.75 2.65,-2.5 1.8,-0.8 3.7,-0.25 1.15,0.45 2.25,1.2 l 0.9,0.4 q 1.65,0.9 2.85,2.5 L 37.8,30.1 q 2.35,-2.8 3.75,-3.95 1.5,-1.15 4.25,-2.4 18.2,-8.85 27.65,-12.6 2.15,-0.8 3.25,-0.8 h 0.8 l 1.9,2.4 -0.2,0.8 q -0.2,1.1 -1.55,3 -5.85,8.25 -18.85,23.8 -1.85,2.35 -3.35,3.5 -1.4,1.15 -4.75,2.75 l -15.15,7.15 q 1.2,1.6 1.75,3.4 l 0.2,1 0.55,2.5 q 0.1,1.95 -1.1,3.55 -1.2,1.65 -3.05,1.9 l -1.3,0.05 q -1.65,0.2 -3.45,-0.65 -1.85,-0.9 -3,-2.6 L 25,60.95 23.8,62.1 q -2.6,2.85 -4.3,3.95 -2.85,1.8 -5.5,1.45 l -1.65,-0.5 -1.2,-0.7 -0.2,-0.2 q -1,-0.85 -1.6,-1.9 L 9.25,64 9.15,63.8 8.75,62.4 q -0.2,-0.8 -0.05,-1.7 0.25,-2.65 2.7,-5.05 1.5,-1.3 4.9,-3.15 L 17.7,51.55 16.05,50 q -1.35,-1.5 -1.8,-3.6 -0.4,-1.85 0.25,-3.45 l 0.3,-1.25"
         fill="#000000"
         fill-opacity="0.372549"
         fill-rule="evenodd"
         stroke="none"
         id="path6" />
    </g>
  </defs>
</svg>
