<?xml version="1.0" encoding="UTF-8" standalone="no"?>
<svg
   ffdec:objectType="frame"
   height="39.984581"
   width="39.685913"
   version="1.1"
   id="svg4"
   xmlns:xlink="http://www.w3.org/1999/xlink"
   xmlns="http://www.w3.org/2000/svg"
   xmlns:svg="http://www.w3.org/2000/svg"
   xmlns:ffdec="https://www.free-decompiler.com/flash">
  <g
     transform="translate(21.541176,18.808824)"
     id="g1">
    <use
       ffdec:characterId="17"
       height="119.15"
       id="rarity"
       transform="translate(-58.5,-60.65)"
       width="119.15"
       xlink:href="#sprite0" />
    <use
       ffdec:characterId="82"
       height="40"
       transform="translate(-21.55,-18.8)"
       width="39.700001"
       xlink:href="#shape0"
       id="use1" />
  </g>
  <defs
     id="defs4">
    <g
       id="shape0"
       transform="translate(21.25,21.3)">
      <path
         d="m -18.75,0.75 q 3.3,-6.65 8.75,-11.85 5.45,-5.25 12.2,-8.3 3.9,-1.75 6.95,-1.9 4.15,-0.15 6.7,2.25 1.5,1.4 2.15,3.6 0.65,2.05 0.35,4.3 l -0.45,2.3 -0.8,3.2 q -1,3.8 -2.4,5.9 L 12.5,3.1 12.15,3.5 q -1.55,2.8 -5,5.95 -5.1,4.7 -9.65,6.85 -5.85,2.8 -11.5,2.3 -2.85,-0.3 -4.4,-1.5 -1.35,-1.05 -2.1,-3 -2.1,-5.5 1.75,-13.35 m 29.75,-6 q 1.1,-2.3 1.85,-5 0.7,-2.5 -0.05,-3.75 -1,-1.6 -3.4,-1.5 -1.7,0.05 -4.05,1.05 -5,2.05 -9.2,5.65 l -0.3,0.3 h 0.2 q 2.75,0.45 4.45,1.2 2.4,1 3.75,2.75 0.9,1.15 1.5,2.9 L 6.6,1.5 6.65,1.7 7.75,0.4 9.05,-1.6 11,-5.25 m -10.7,1.8 -1.65,-0.85 -1.35,-0.2 -3.15,-0.3 2.8,2 2.15,1.5 L 3.6,2 3.4,1.5 2.6,-0.25 1.9,-2.2 0.3,-3.45 m -11.2,2.85 -3,5.65 -1.15,3.2 q -0.4,1.85 0.15,3.2 0.15,0.65 0.7,0.95 l 1.1,0.2 2.05,0.25 Q -9.9,12.9 -8.1,12.25 -1.7,10 3.25,5.4 L -9,-3.3 l -1.9,2.7"
         fill="#000000"
         fill-rule="evenodd"
         stroke="none"
         id="path1" />
      <path
         d="M 11,-5.25 9.05,-1.6 7.75,0.4 6.65,1.7 6.6,1.5 5.75,-1.65 Q 5.15,-3.4 4.25,-4.55 2.9,-6.3 0.5,-7.3 -1.2,-8.05 -3.95,-8.5 h -0.2 l 0.3,-0.3 q 4.2,-3.6 9.2,-5.65 2.35,-1 4.05,-1.05 2.4,-0.1 3.4,1.5 0.75,1.25 0.05,3.75 -0.75,2.7 -1.85,5 M -10.9,-0.6 -9,-3.3 3.25,5.4 Q -1.7,10 -8.1,12.25 q -1.8,0.65 -2.95,0.6 l -2.05,-0.25 -1.1,-0.2 q -0.55,-0.3 -0.7,-0.95 -0.55,-1.35 -0.15,-3.2 l 1.15,-3.2 3,-5.65"
         fill="#fffce0"
         fill-rule="evenodd"
         stroke="none"
         id="path2" />
      <path
         d="m 0.3,-3.45 1.6,1.25 0.7,1.95 0.8,1.75 0.2,0.5 -4.5,-3.3 -2.15,-1.5 -2.8,-2 3.15,0.3 1.35,0.2 1.65,0.85"
         fill="#e9e7d4"
         fill-rule="evenodd"
         stroke="none"
         id="path3" />
    </g>
    <g
       id="sprite1"
       transform="translate(17.4,15.85)">
      <use
         ffdec:characterId="31"
         height="57.200001"
         transform="matrix(0.5366,0,0,0.5366,-16.6582,-14.546)"
         width="70.75"
         xlink:href="#sprite2"
         id="use3" />
    </g>
    <g
       id="sprite2"
       transform="translate(-8.65,-10.35)">
      <use
         ffdec:characterId="30"
         height="57.200001"
         transform="translate(8.65,10.35)"
         width="70.75"
         xlink:href="#shape1"
         id="use4" />
    </g>
    <g
       id="shape1"
       transform="translate(-8.65,-10.35)">
      <path
         d="m 14.8,41.7 q 0.65,-1.75 2.65,-2.5 1.8,-0.8 3.7,-0.25 1.15,0.45 2.25,1.2 l 0.9,0.4 q 1.65,0.9 2.85,2.5 L 37.8,30.1 q 2.35,-2.8 3.75,-3.95 1.5,-1.15 4.25,-2.4 18.2,-8.85 27.65,-12.6 2.15,-0.8 3.25,-0.8 h 0.8 l 1.9,2.4 -0.2,0.8 q -0.2,1.1 -1.55,3 -5.85,8.25 -18.85,23.8 -1.85,2.35 -3.35,3.5 -1.4,1.15 -4.75,2.75 l -15.15,7.15 q 1.2,1.6 1.75,3.4 l 0.2,1 0.55,2.5 q 0.1,1.95 -1.1,3.55 -1.2,1.65 -3.05,1.9 l -1.3,0.05 q -1.65,0.2 -3.45,-0.65 -1.85,-0.9 -3,-2.6 L 25,60.95 23.8,62.1 q -2.6,2.85 -4.3,3.95 -2.85,1.8 -5.5,1.45 l -1.65,-0.5 -1.2,-0.7 -0.2,-0.2 q -1,-0.85 -1.6,-1.9 L 9.25,64 9.15,63.8 8.75,62.4 q -0.2,-0.8 -0.05,-1.7 0.25,-2.65 2.7,-5.05 1.5,-1.3 4.9,-3.15 L 17.7,51.55 16.05,50 q -1.35,-1.5 -1.8,-3.6 -0.4,-1.85 0.25,-3.45 l 0.3,-1.25"
         fill="#000000"
         fill-opacity="0.372549"
         fill-rule="evenodd"
         stroke="none"
         id="path4" />
    </g>
  </defs>
</svg>
