<?xml version="1.0" encoding="UTF-8" standalone="no"?>
<svg
   ffdec:objectType="frame"
   height="67.709999"
   width="64.59417"
   version="1.1"
   id="svg4"
   xmlns:xlink="http://www.w3.org/1999/xlink"
   xmlns="http://www.w3.org/2000/svg"
   xmlns:svg="http://www.w3.org/2000/svg"
   xmlns:ffdec="https://www.free-decompiler.com/flash">
  <g
     transform="translate(32.1625,34.16)"
     id="g1">
    <use
       ffdec:characterId="17"
       height="119.15"
       id="rarity"
       transform="translate(-58.5,-60.65)"
       width="119.15"
       xlink:href="#sprite0" />
    <use
       ffdec:characterId="202"
       height="67.75"
       transform="translate(-32.15,-34.15)"
       width="64.599998"
       xlink:href="#shape0"
       id="use1" />
  </g>
  <defs
     id="defs4">
    <g
       id="shape0"
       transform="translate(31.85,36.65)">
      <path
         d="m -23.9,11.2 -1.1,-5 q -0.75,-3.6 -0.7,-5.75 0.05,-2.3 1.4,-7.1 1.35,-4.4 2.5,-6.25 1.2,-1.8 3.5,-3.85 7.2,-6.25 16.6,-8.35 l 5.85,-0.45 -10.05,15.2 -1.65,2.65 -0.85,-0.05 -1.9,0.05 -1.2,-0.1 -1.1,0.1 -1.1,0.05 -0.95,-0.2 -2.1,-0.05 -1.65,-0.1 -1.6,0.25 q -0.5,0.2 -0.5,0.65 0,0.5 0.85,0.7 l 3,0.7 1.25,0.1 1.05,0.35 1.2,0.15 1.15,0.15 1,0.4 1.5,0.15 -2.1,3.65 H -12 l -1.3,0.05 -2.4,-0.2 -1.45,-0.05 -2.05,0.15 -0.85,0.25 -0.6,0.6 0.05,0.55 0.6,0.45 0.75,0.1 2.6,0.5 2.55,0.6 0.8,0.05 q -2.65,4.9 -5,9.95 l -0.1,0.55 q 0.1,0.4 0.6,0.25 0.4,-0.1 0.7,-0.5 3.05,-3.45 8.7,-11.7 l 14,-20.6 3.2,-4.4 0.55,-0.65 H 9.4 l 2.35,-0.05 1.95,0.85 1.25,0.8 -0.25,0.3 -2.5,3.2 Q 0,-3.85 -5.45,4.3 L -6.7,6.35 q -0.4,0.9 0.05,1.25 L -6.1,7.75 -6.85,9.1 q -0.65,1.55 0.15,2.05 0.65,0.4 1.7,-0.35 l 3.75,-3.1 h 0.3 L 3.2,8.3 6.45,8.55 13.1,8.7 10.8,10.3 Q 6.65,12.95 1.85,14.25 L 0.5,13.05 q -0.9,-0.5 -1.4,-0.6 -1.4,-0.25 -2.15,0.9 -0.35,0.5 -0.3,1.15 l 0.15,0.7 q -7.45,0.85 -14.7,-1.3 -2.9,-0.9 -4.7,-2.05 -0.75,-0.55 -1.3,-0.65 M 17.9,3.95 Q 17,3.6 15.7,3.2 L 12.45,2.2 6.45,0.9 4.85,0.6 7,-2.1 20.45,-0.25 19.4,1.7 17.9,3.95 M 21.2,-2.15 20.85,-2.3 18.9,-2.9 9.2,-5.05 q 5.7,-7.65 9.35,-11.2 l 1.55,-1.75 0.45,-0.75 q 1.65,1.85 2.9,4.4 l -0.45,0.1 q -1.55,0.55 -1.35,3.6 0.4,5.1 -0.25,7.75 l -0.2,0.75"
         fill="#ffffff"
         fill-rule="evenodd"
         stroke="none"
         id="path1" />
      <path
         d="M -6.1,7.75 -6.65,7.6 Q -7.1,7.25 -6.7,6.35 L -5.45,4.3 Q 0,-3.85 12.2,-19.7 l 2.5,-3.2 0.25,-0.3 L 13.7,-24 11.75,-24.85 9.4,-24.8 H 9.35 l -0.55,0.65 -3.2,4.4 -14,20.6 q -5.65,8.25 -8.7,11.7 -0.3,0.4 -0.7,0.5 -0.5,0.15 -0.6,-0.25 l 0.1,-0.55 q 2.35,-5.05 5,-9.95 l -0.8,-0.05 -2.55,-0.6 -2.6,-0.5 -0.75,-0.1 -0.6,-0.45 -0.05,-0.55 0.6,-0.6 0.85,-0.25 2.05,-0.15 1.45,0.05 2.4,0.2 1.3,-0.05 h 0.4 l 2.1,-3.65 -1.5,-0.15 -1,-0.4 -1.15,-0.15 -1.2,-0.15 -1.05,-0.35 -1.25,-0.1 -3,-0.7 q -0.85,-0.2 -0.85,-0.7 0,-0.45 0.5,-0.65 l 1.6,-0.25 1.65,0.1 2.1,0.05 0.95,0.2 1.1,-0.05 1.1,-0.1 1.2,0.1 1.9,-0.05 0.85,0.05 1.65,-2.65 10.05,-15.2 -5.85,0.45 q -9.4,2.1 -16.6,8.35 -2.3,2.05 -3.5,3.85 -1.15,1.85 -2.5,6.25 -1.35,4.8 -1.4,7.1 -0.05,2.15 0.7,5.75 l 1.1,5 v 0.05 q 0.8,2.75 2.05,4.65 1.25,1.9 3.35,3.75 l 4.05,3.05 2.75,1.65 4.6,0.7 q 5.75,0.2 9.5,-0.1 5.2,-0.35 9.3,-1.6 5.4,-1.6 9.35,-4.95 4.3,-3.8 5.55,-8.9 0.85,-3.4 0.15,-9.85 Q 26,-6.95 24.9,-10.6 l -1.45,-3.75 q -1.25,-2.55 -2.9,-4.4 l -0.75,-0.8 -1.8,-1.55 -1.3,1.75 Q 12.75,-15 5.4,-5.85 l 3.8,0.8 9.7,2.15 1.95,0.6 0.35,0.15 1.15,0.75 0.45,0.6 q 0.2,0.45 -0.15,0.7 l -0.8,0.05 -1.4,-0.2 L 7,-2.1 5.4,-2.35 l -1.75,-0.4 -0.5,-0.3 -0.65,0.8 -1.65,2.1 4,0.75 1.6,0.3 6,1.3 3.25,1 Q 17,3.6 17.9,3.95 L 19.85,4.55 20.6,5 q 0.35,0.35 0.1,0.8 L 19.7,6 16.6,5.5 11.2,4.55 2.55,3.5 1.3,3.45 H 0.7 L -1.1,3.35 -1.75,3.2 -4.35,6.25 -5.45,7.3 -6.1,7.75 m 2.9,7.45 -0.15,-0.7 q -0.05,-0.65 0.3,-1.15 0.75,-1.15 2.15,-0.9 0.5,0.1 1.4,0.6 l 1.35,1.2 1.65,1.5 2.25,-1.65 Q 8.35,12.3 10.7,11 11,10.8 11.35,10.7 l 0.7,0.2 q 0.25,0.3 0.05,0.75 l -0.55,0.6 -6.2,5.15 1.35,1.2 1.85,1.9 0.4,0.6 0.55,0.8 -0.25,0.7 -0.3,0.1 -0.2,0.05 -0.8,-0.25 -0.85,-0.6 -1.8,-1 -2.4,-1.45 -2.45,2 -1.4,1.05 q -0.7,0.55 -1.45,0.6 -0.75,0.05 -1.35,-0.55 -0.5,-0.65 -0.35,-1.45 0.25,-0.95 2.15,-1.9 l 1.7,-0.9 0.7,-0.45 Q -0.8,17.05 -1.6,16.6 L -2.95,15.65 -3.2,15.2 m -24.7,-30 q 1.3,-2.65 4.45,-5.55 -1.05,-1.25 -1.05,-3.1 0,-1.5 0.75,-3.2 -0.45,-0.25 -0.7,-0.55 -0.8,-0.8 -0.9,-2.25 l 0.35,-2.45 0.35,-1.2 0.9,-1.25 1.4,-1.35 q 1.7,-1.2 5.05,-0.9 l 1.45,0.3 q 0.6,0.35 0.95,0.7 l 0.85,1.05 2.7,-0.2 2.2,0.15 q 2.2,0.45 3.55,2.65 l 0.35,0.7 q 1.4,-0.6 3.2,-0.8 l 3.8,-0.25 q 7.35,-0.1 11.2,1.45 2.05,0.85 5.75,3.35 3.75,2.6 5.55,4.4 3.75,3.8 5.75,9.95 1.3,4 2.25,11.35 0.85,7 0.2,10.95 -1.2,7.25 -6.8,12.7 -5,4.95 -12.55,7.2 -3.85,1.1 -8.5,1.6 l -11.45,0.4 q -4.65,-0.1 -7.25,-1.05 -2.4,-0.85 -6,-3.7 -3.95,-2.9 -5.65,-4.95 -2.2,-2.7 -3.6,-6.8 -0.9,-2.75 -1.8,-7.6 -0.65,-3.1 -0.7,-5.1 -0.1,-2.75 0.6,-6.05 l 1.6,-5.95 1.75,-4.65 m 19.35,-14.75 1,-0.55 -0.15,-0.15 -0.9,-0.85 -0.9,-0.35 -2.05,-0.2 0.35,0.25 0.7,0.85 q 0.6,0.9 0.7,1.4 l 0.05,0.2 1.2,-0.6 m -11.3,6 -0.15,-2.2 0.05,-0.2 h -0.15 l -0.4,0.05 -0.75,0.75 q -0.65,0.8 -0.7,1.85 l 0.2,1.45 1.95,-1.5 -0.05,-0.2 m 7.4,-4.15 0.3,-0.15 -0.55,-0.5 q -0.4,-0.25 -1.1,-0.35 l -1.3,0.2 -0.75,0.7 -0.4,0.8 -0.2,1.3 v 0.15 l 4,-2.15"
         fill="#000000"
         fill-rule="evenodd"
         stroke="none"
         id="path2" />
      <path
         d="m -23.9,11.2 q 0.55,0.1 1.3,0.65 1.8,1.15 4.7,2.05 7.25,2.15 14.7,1.3 l 0.25,0.45 1.35,0.95 q 0.8,0.45 2.05,1.25 l -0.7,0.45 -1.7,0.9 q -1.9,0.95 -2.15,1.9 -0.15,0.8 0.35,1.45 0.6,0.6 1.35,0.55 0.75,-0.05 1.45,-0.6 l 1.4,-1.05 2.45,-2 2.4,1.45 1.8,1 0.85,0.6 0.8,0.25 0.2,-0.05 0.3,-0.1 L 9.5,21.9 8.95,21.1 8.55,20.5 6.7,18.6 5.35,17.4 l 6.2,-5.15 0.55,-0.6 Q 12.3,11.2 12.05,10.9 l -0.7,-0.2 Q 11,10.8 10.7,11 8.35,12.3 5.75,14.1 L 3.5,15.75 1.85,14.25 q 4.8,-1.3 8.95,-3.95 L 13.1,8.7 6.45,8.55 3.2,8.3 -0.95,7.7 h -0.3 L -5,10.8 q -1.05,0.75 -1.7,0.35 -0.8,-0.5 -0.15,-2.05 L -6.1,7.75 -5.45,7.3 -4.35,6.25 -1.75,3.2 -1.1,3.35 0.7,3.45 H 1.3 L 2.55,3.5 2.4,3.7 h 0.1 l 3,0.45 3.05,0.3 3.85,0.65 3.35,0.8 0.35,0.1 0.5,-0.5 3.1,0.5 1,-0.2 Q 20.95,5.35 20.6,5 L 19.85,4.55 17.9,3.95 19.4,1.7 l 1.05,-1.95 1.4,0.2 0.8,-0.05 Q 23,-0.35 22.8,-0.8 L 22.35,-1.4 21.2,-2.15 21.4,-2.9 q 0.65,-2.65 0.25,-7.75 -0.2,-3.05 1.35,-3.6 l 0.45,-0.1 1.45,3.75 q 1.1,3.65 1.85,10.25 0.7,6.45 -0.15,9.85 -1.25,5.1 -5.55,8.9 -3.95,3.35 -9.35,4.95 -4.1,1.25 -9.3,1.6 -3.75,0.3 -9.5,0.1 l -4.6,-0.7 -2.75,-1.65 -4.05,-3.05 Q -20.6,17.8 -21.85,15.9 -23.1,14 -23.9,11.25 V 11.2 M 4.85,0.6 l -4,-0.75 1.65,-2.1 0.65,-0.8 0.5,0.3 1.75,0.4 L 7,-2.1 4.85,0.6 M 9.2,-5.05 5.4,-5.85 q 7.35,-9.15 11.3,-13.5 l 1.3,-1.75 1.8,1.55 0.75,0.8 -0.45,0.75 -1.55,1.75 Q 14.9,-12.7 9.2,-5.05"
         fill="#dcdcdc"
         fill-rule="evenodd"
         stroke="none"
         id="path3" />
    </g>
    <g
       id="sprite1"
       transform="translate(17.4,15.85)">
      <use
         ffdec:characterId="31"
         height="57.200001"
         transform="matrix(0.5366,0,0,0.5366,-16.6582,-14.546)"
         width="70.75"
         xlink:href="#sprite2"
         id="use3" />
    </g>
    <g
       id="sprite2"
       transform="translate(-8.65,-10.35)">
      <use
         ffdec:characterId="30"
         height="57.200001"
         transform="translate(8.65,10.35)"
         width="70.75"
         xlink:href="#shape1"
         id="use4" />
    </g>
    <g
       id="shape1"
       transform="translate(-8.65,-10.35)">
      <path
         d="m 14.8,41.7 q 0.65,-1.75 2.65,-2.5 1.8,-0.8 3.7,-0.25 1.15,0.45 2.25,1.2 l 0.9,0.4 q 1.65,0.9 2.85,2.5 L 37.8,30.1 q 2.35,-2.8 3.75,-3.95 1.5,-1.15 4.25,-2.4 18.2,-8.85 27.65,-12.6 2.15,-0.8 3.25,-0.8 h 0.8 l 1.9,2.4 -0.2,0.8 q -0.2,1.1 -1.55,3 -5.85,8.25 -18.85,23.8 -1.85,2.35 -3.35,3.5 -1.4,1.15 -4.75,2.75 l -15.15,7.15 q 1.2,1.6 1.75,3.4 l 0.2,1 0.55,2.5 q 0.1,1.95 -1.1,3.55 -1.2,1.65 -3.05,1.9 l -1.3,0.05 q -1.65,0.2 -3.45,-0.65 -1.85,-0.9 -3,-2.6 L 25,60.95 23.8,62.1 q -2.6,2.85 -4.3,3.95 -2.85,1.8 -5.5,1.45 l -1.65,-0.5 -1.2,-0.7 -0.2,-0.2 q -1,-0.85 -1.6,-1.9 L 9.25,64 9.15,63.8 8.75,62.4 q -0.2,-0.8 -0.05,-1.7 0.25,-2.65 2.7,-5.05 1.5,-1.3 4.9,-3.15 L 17.7,51.55 16.05,50 q -1.35,-1.5 -1.8,-3.6 -0.4,-1.85 0.25,-3.45 l 0.3,-1.25"
         fill="#000000"
         fill-opacity="0.372549"
         fill-rule="evenodd"
         stroke="none"
         id="path4" />
    </g>
  </defs>
</svg>
