<?xml version="1.0" encoding="UTF-8" standalone="no"?>
<svg
   ffdec:objectType="frame"
   height="56.700493"
   width="51.848759"
   version="1.1"
   id="svg5"
   xmlns:xlink="http://www.w3.org/1999/xlink"
   xmlns="http://www.w3.org/2000/svg"
   xmlns:svg="http://www.w3.org/2000/svg"
   xmlns:ffdec="https://www.free-decompiler.com/flash">
  <g
     transform="translate(31.235714,27.180769)"
     id="g1">
    <use
       ffdec:characterId="17"
       height="119.15"
       id="rarity"
       transform="translate(-58.5,-60.65)"
       width="119.15"
       xlink:href="#sprite0" />
    <use
       ffdec:characterId="219"
       height="56.700001"
       transform="translate(-31.25,-27.2)"
       width="51.849998"
       xlink:href="#shape0"
       id="use1" />
  </g>
  <defs
     id="defs5">
    <g
       id="shape0"
       transform="translate(30.95,29.7)">
      <path
         d="M 0.35,-24.15 H 0.3 l -1.75,0.6 q -1.8,0.75 -2.4,1.3 -1.25,1.2 -1.65,4.45 l -0.05,0.35 -0.25,2 -0.65,3.25 -0.65,2.3 -0.75,1.85 -0.6,1.05 -0.95,1.4 q -1.55,1.95 -3.75,3.25 -0.3,0.1 -0.55,0.25 l -2.7,1.2 -2.65,1.3 -0.45,0.3 -3.4,3.3 -0.2,0.15 q -1.85,2.15 -2.35,3.65 -0.4,1.35 -0.1,4.15 l 0.45,2.7 0.6,2.8 0.35,1.1 0.2,0.45 q 0.4,1.1 1,1.6 l 0.9,0.55 2.35,0.55 q 8.9,1 13.8,-3.15 Q -3.35,16.4 -1.4,12.1 0,9.25 0.05,7.2 V 7.15 q -0.65,1.7 -1.65,3.5 -2.65,4.6 -5.85,6.7 -4.05,2.8 -8.45,2.15 l -2.85,-0.85 q -1.2,-0.55 -1.6,-0.9 L -20.5,17.6 -20.9,17.05 -21.85,15 -21.9,14.95 -22.05,14.1 q -0.05,-0.45 0.2,-0.65 l 0.2,-0.15 q 0.5,-0.15 0.9,0.3 l 0.6,0.85 0.05,0.05 0.5,0.55 q 0.95,0.8 2.8,1.1 h 0.1 l 1.05,0.1 1.75,-0.05 h 0.05 q 3.2,-0.35 6.3,-3.35 Q -4.5,9.8 -3.1,6 l 0.65,-2.2 0.1,-0.45 Q -2,1.7 -2.1,0.55 L -2.15,0 -2.4,-0.6 q -1.25,-4.2 0.35,-10.95 l 0.5,-1.9 0.2,-0.7 q 0.65,-2.05 1.5,-3.4 1.25,-1.95 3.35,-3.15 1.9,-1.15 4.1,-1.45 l 0.3,-0.05 2.85,0.1 1.75,0.4 q 2.25,0.75 4,2.3 0,-1.3 -1.8,-2.5 l -2,-1.3 -1.2,-0.65 q -2.8,-1.35 -5.45,-1.45 -2.2,-0.05 -5.7,1.15 M -30.4,5.4 q 0.8,-2.25 3.45,-5.3 2.75,-3.15 4.8,-4.35 L -18,-6.1 q 2.65,-1 3.95,-2.15 2.05,-1.8 3.05,-5.35 l 1.25,-6.35 q 0.55,-3.15 1.7,-4.6 1.25,-1.55 4.5,-2.95 7.5,-3.15 12.85,-1.75 2.75,0.75 5.7,2.85 3.4,2.5 4.3,5.2 0.5,1.65 0.2,5.1 0.55,1.05 0.7,2.75 0.2,2.35 -0.4,7.55 -0.55,4.9 -0.25,7.5 0.25,1.8 1.05,5.3 0.6,3.15 0.05,5.25 -0.6,2.3 -2.5,3.9 Q 16.25,17.7 13.9,17.9 11.55,18.15 9.4,16.85 7.3,15.6 6.3,13.45 5.45,11.7 5.45,9.15 5.45,7.1 5.75,5.7 5.95,4.5 6.65,2.2 L 9.7,-7.45 10,-10.5 Q 9.95,-13.75 8.7,-16.75 L 8.35,-18 6.7,-17.5 q -3.2,1.6 -4.35,8 -0.7,4 -0.4,6.05 0.2,1.55 1.3,4.3 L 4.6,5.1 q 0.8,4.3 -1.85,9.75 -3.1,6.4 -8.1,9.45 -6.4,3.85 -16.2,2.25 -3.2,-0.45 -4.85,-1.8 -1.75,-1.4 -2.9,-5.05 -1.25,-4.25 -1.55,-8.35 -0.3,-3.8 0.45,-5.95 m 42.45,7.65 0.3,0.1 q 1.7,0.75 3.2,-0.45 1.4,-1 1.55,-2.85 L 16.85,7.7 16.25,5.6 Q 15.7,3.45 15.7,-1.05 15.8,-6 16,-7.6 l 0.35,-2.55 0.05,-2.6 -0.25,-1.45 -1.25,-1.2 q -1.15,-1.15 -2.5,-1.8 l -0.1,-0.05 0.05,0.05 q 0.8,1.45 1.2,3.15 0.5,2.2 0.35,4.85 l -0.15,1.55 Q 13.35,-4.8 12,0 l -1.05,3.5 q -0.8,3.05 -0.9,4.1 -0.25,1.9 0.2,3.2 l 0.3,0.7 q 0.55,1 1.5,1.55"
         fill="#000000"
         fill-rule="evenodd"
         stroke="none"
         id="path1" />
      <path
         d="m -5.8,-15.45 0.25,-2 0.05,-0.35 q 0.4,-3.25 1.65,-4.45 0.6,-0.55 2.4,-1.3 l 1.75,-0.6 h 0.05 l 0.25,0.8 q 0.15,0.85 -0.4,1.85 l -1.2,1.65 -1.6,2.25 -1.1,1.55 q -0.85,0.75 -1.7,0.7 l -0.4,-0.1 m -1.45,23.2 q 0.65,0.4 0.9,1.25 0.2,0.8 -0.05,1.55 -0.4,1.35 -2,2.4 l -2.25,1.4 -0.65,0.5 -0.65,0.3 h -0.7 L -13,15 l -0.45,-0.35 -0.3,-0.4 q -0.5,-0.95 -0.05,-2.1 0.3,-0.8 1.15,-1.85 1.1,-1.45 2.3,-2.25 1.8,-1.15 3.1,-0.3"
         fill="#ffffff"
         fill-rule="evenodd"
         stroke="none"
         id="path2" />
      <path
         d="m -5.8,-15.45 0.4,0.1 q 0.85,0.05 1.7,-0.7 l 1.1,-1.55 1.6,-2.25 1.2,-1.65 q 0.55,-1 0.4,-1.85 l -0.25,-0.8 q 3.5,-1.2 5.7,-1.15 2.65,0.1 5.45,1.45 l 1.2,0.65 -1.6,0.95 -0.35,0.15 -2.85,-0.1 -0.3,0.05 q -2.2,0.3 -4.1,1.45 -2.1,1.2 -3.35,3.15 -0.85,1.35 -1.5,3.4 l -0.85,0.9 -4.4,4.3 q -0.7,0.65 -1.25,0.9 l 0.75,-1.85 0.65,-2.3 0.65,-3.25 m -16.05,28.9 q -0.25,0.2 -0.2,0.65 l 0.15,0.85 0.05,0.05 0.95,2.05 0.4,0.55 0.15,0.15 q 0.4,0.35 1.6,0.9 l 2.85,0.85 q 4.4,0.65 8.45,-2.15 3.2,-2.1 5.85,-6.7 1,-1.8 1.65,-3.5 V 7.2 Q 0,9.25 -1.4,12.1 q -1.95,4.3 -4.5,6.45 -4.9,4.15 -13.8,3.15 l -2.35,-0.55 -0.6,-0.5 -0.65,-0.75 -0.65,-0.9 -0.2,-0.45 -0.35,-1.1 -0.6,-2.8 -0.45,-2.7 q -0.3,-2.8 0.1,-4.15 0.5,-1.5 2.35,-3.65 l 0.2,-0.15 3.4,-3.3 0.45,-0.3 2.65,-1.3 2.7,-1.2 q 0.25,-0.15 0.55,-0.25 2.2,-1.3 3.75,-3.25 L -9.55,-5 q -0.4,0.95 -1.55,1.85 l -3.45,2.3 -0.7,0.4 -0.35,0.2 q -2.4,1.45 -3.6,2.65 -2.3,2.3 -3,5.45 l -0.25,1.85 q -0.1,1.35 0.15,2.2 l 0.45,1.55 m 35.4,-27.5 0.3,0.2 q 0.55,0.45 0.95,1.5 0.7,1.95 0.7,3.85 0.05,1.55 -0.7,5.25 l -1.35,6.4 Q 13,5.75 13.55,8.5 l 0.25,1.7 q 0,1 -0.55,1.85 l -1.2,1 Q 11.1,12.5 10.55,11.5 l -0.3,-0.7 Q 9.8,9.5 10.05,7.6 10.15,6.55 10.95,3.5 L 12,0 q 1.35,-4.8 1.75,-7.65 L 13.9,-9.2 q 0.15,-2.65 -0.35,-4.85"
         fill="#cacaca"
         fill-rule="evenodd"
         stroke="none"
         id="path3" />
      <path
         d="m 12.7,-23.2 2,1.3 q 1.8,1.2 1.8,2.5 -1.75,-1.55 -4,-2.3 l -1.75,-0.4 0.35,-0.15 1.6,-0.95 m -14.25,9.75 -0.5,1.9 Q -3.65,-4.8 -2.4,-0.6 L -2.15,0 -2.1,0.55 Q -2,1.7 -2.35,3.35 L -2.45,3.8 -3.1,6 q -1.4,3.8 -4.45,6.85 -3.1,3 -6.3,3.35 h -0.05 l -1.75,0.05 -1.05,-0.1 h -0.1 q -1.85,-0.3 -2.8,-1.1 l -0.5,-0.55 -0.05,-0.05 -0.6,-0.85 q -0.4,-0.45 -0.9,-0.3 l -0.2,0.15 -0.45,-1.55 q -0.25,-0.85 -0.15,-2.2 l 0.25,-1.85 q 0.7,-3.15 3,-5.45 1.2,-1.2 3.6,-2.65 l 1.05,-0.6 3.45,-2.3 q 1.15,-0.9 1.55,-1.85 l 0.15,-0.6 0.95,-1.4 0.6,-1.05 q 0.55,-0.25 1.25,-0.9 l 4.4,-4.3 0.65,-0.2 M 12.4,-17.2 q 1.35,0.65 2.5,1.8 l 1.25,1.2 0.25,1.45 -0.05,2.6 L 16,-7.6 q -0.2,1.6 -0.3,6.55 0,4.5 0.55,6.65 l 0.6,2.1 0.25,2.15 q -0.15,1.85 -1.55,2.85 -1.5,1.2 -3.2,0.45 l -0.3,-0.1 1.2,-1 Q 13.8,11.2 13.8,10.2 L 13.55,8.5 Q 13,5.75 13.45,3.15 l 1.35,-6.4 q 0.75,-3.7 0.7,-5.25 0,-1.9 -0.7,-3.85 -0.4,-1.05 -0.95,-1.5 l -0.3,-0.2 q -0.4,-1.7 -1.2,-3.15 H 12.4 M -7.25,7.75 q -1.3,-0.85 -3.1,0.3 -1.2,0.8 -2.3,2.25 -0.85,1.05 -1.15,1.85 -0.45,1.15 0.05,2.1 l 0.3,0.4 0.45,0.35 0.35,0.15 h 0.7 l 0.65,-0.3 0.65,-0.5 2.25,-1.4 q 1.6,-1.05 2,-2.4 Q -6.15,9.8 -6.35,9 -6.6,8.15 -7.25,7.75"
         fill="#9d9d9d"
         fill-rule="evenodd"
         stroke="none"
         id="path4" />
    </g>
    <g
       id="sprite1"
       transform="translate(17.4,15.85)">
      <use
         ffdec:characterId="31"
         height="57.200001"
         transform="matrix(0.5366,0,0,0.5366,-16.6582,-14.546)"
         width="70.75"
         xlink:href="#sprite2"
         id="use4" />
    </g>
    <g
       id="sprite2"
       transform="translate(-8.65,-10.35)">
      <use
         ffdec:characterId="30"
         height="57.200001"
         transform="translate(8.65,10.35)"
         width="70.75"
         xlink:href="#shape1"
         id="use5" />
    </g>
    <g
       id="shape1"
       transform="translate(-8.65,-10.35)">
      <path
         d="m 14.8,41.7 q 0.65,-1.75 2.65,-2.5 1.8,-0.8 3.7,-0.25 1.15,0.45 2.25,1.2 l 0.9,0.4 q 1.65,0.9 2.85,2.5 L 37.8,30.1 q 2.35,-2.8 3.75,-3.95 1.5,-1.15 4.25,-2.4 18.2,-8.85 27.65,-12.6 2.15,-0.8 3.25,-0.8 h 0.8 l 1.9,2.4 -0.2,0.8 q -0.2,1.1 -1.55,3 -5.85,8.25 -18.85,23.8 -1.85,2.35 -3.35,3.5 -1.4,1.15 -4.75,2.75 l -15.15,7.15 q 1.2,1.6 1.75,3.4 l 0.2,1 0.55,2.5 q 0.1,1.95 -1.1,3.55 -1.2,1.65 -3.05,1.9 l -1.3,0.05 q -1.65,0.2 -3.45,-0.65 -1.85,-0.9 -3,-2.6 L 25,60.95 23.8,62.1 q -2.6,2.85 -4.3,3.95 -2.85,1.8 -5.5,1.45 l -1.65,-0.5 -1.2,-0.7 -0.2,-0.2 q -1,-0.85 -1.6,-1.9 L 9.25,64 9.15,63.8 8.75,62.4 q -0.2,-0.8 -0.05,-1.7 0.25,-2.65 2.7,-5.05 1.5,-1.3 4.9,-3.15 L 17.7,51.55 16.05,50 q -1.35,-1.5 -1.8,-3.6 -0.4,-1.85 0.25,-3.45 l 0.3,-1.25"
         fill="#000000"
         fill-opacity="0.372549"
         fill-rule="evenodd"
         stroke="none"
         id="path5" />
    </g>
  </defs>
</svg>
