<?xml version="1.0" encoding="UTF-8" standalone="no"?>
<svg
   ffdec:objectType="frame"
   height="87.38932"
   width="90.173538"
   version="1.1"
   id="svg4"
   xmlns:xlink="http://www.w3.org/1999/xlink"
   xmlns="http://www.w3.org/2000/svg"
   xmlns:svg="http://www.w3.org/2000/svg"
   xmlns:ffdec="https://www.free-decompiler.com/flash">
  <g
     transform="translate(45.845161,43.873529)"
     id="g1">
    <use
       ffdec:characterId="17"
       height="119.15"
       id="rarity"
       transform="translate(-58.5,-60.65)"
       width="119.15"
       xlink:href="#sprite0" />
    <use
       ffdec:characterId="1237"
       height="87.349998"
       transform="translate(-45.85,-43.85)"
       width="90.199997"
       xlink:href="#shape0"
       id="use1" />
  </g>
  <defs
     id="defs4">
    <g
       id="shape0"
       transform="translate(44.55,41.95)">
      <path
         d="m 0.45,11.15 q -1.15,0.95 -2.2,1.5 -0.25,3.65 0,6.25 l 1,6.8 0.5,1.75 0.15,0.7 0.45,0.55 5.4,6.4 q 1.8,2.15 1.1,3.45 l -1.55,1.25 -9.6,4.85 -1.95,0.7 q -1.1,0.25 -1.9,-0.45 -0.55,-0.4 -0.8,-1.65 -2.45,-8.4 -3.3,-14.2 -0.75,-5.1 -0.65,-9.65 l -0.55,0.7 q -3.5,4.85 -6,6.85 -3.95,3.35 -8.35,3.3 -2.05,0 -4.3,-1 -3.85,-1.7 -5.6,-5.1 -0.9,-1.7 -1.05,-3.65 -0.1,-2 0.6,-3.75 -1.45,-0.9 -2.2,-2.6 -0.75,-1.7 -0.5,-3.45 0.2,-1.2 0.8,-2.3 -1.7,-0.7 -2.8,-2.3 -1.1,-1.6 -1.5,-4.15 -0.55,-3.5 0.45,-7 1,-3.5 3.35,-6.15 l 3.45,-3.25 q 2.75,-2.3 4.85,-3.05 3.55,-1.4 9.85,-0.1 7.1,1.6 11.25,4.55 l 0.75,-0.5 q 2.2,-1.1 4.35,-0.85 l 1.1,-0.05 q 0.35,-0.15 0.8,-0.8 1.4,-2.05 3.95,-2.9 l 2.75,-0.4 q 0.5,-1.4 1.7,-3.05 3.65,-5.1 8.05,-10.1 5.7,-6.3 10.3,-8.5 3.15,-1.55 6.45,-1.75 3.6,-0.2 6.45,1.3 2.6,1.4 6.05,5.45 1.35,1.6 1.9,2.85 0.8,2.1 0.25,4.95 -0.55,2.85 -2.1,5.25 l -0.6,0.9 0.4,0.3 1.05,1.05 0.55,1 0.6,1.3 0.4,1.55 q 0.55,3.35 -0.9,5.75 l -0.15,0.2 0.45,0.65 q 0.95,1.3 1.45,3.3 1.2,4.15 0.55,8 -0.75,4.35 -3.75,7.05 -1.3,1.2 -3.3,2.25 -2.1,1.15 -3.8,1.6 l -6.7,0.5 q -3.9,-0.45 -8.25,-2.5 l -1.1,-0.5 1.9,2.95 q 2.75,4.65 4.85,11.05 1.4,4.2 3.25,11.75 0.3,1.05 0.1,1.7 -0.25,0.9 -1.5,1.45 l -2,0.5 -1.6,0.45 -1.45,0.6 -1.9,1.15 -2.05,1.45 Q 16.8,44.05 15.65,43.65 14.5,43.1 14.1,41.75 13.85,40.95 13.85,39.3 13.6,21.3 7.9,9.25 L 6.55,10.1 q -0.9,0.45 -2.2,0.5 L 2,10.45 1.35,10.4 0.45,11.15 M -25.4,-0.25 -25.65,-0.4 -26.9,-0.75 q -0.75,-0.2 -1.05,-0.55 l -0.2,-0.6 0.2,-0.55 q 0.25,-0.3 0.9,-0.2 l 0.85,0.2 1.2,-0.15 2.75,0.1 1.9,0.1 2.1,-0.1 1.15,0.2 q 0.9,-5.3 3.1,-8.15 l -0.45,-0.2 -2.65,-1.05 -4.3,-1.1 -7.75,-0.3 q -2.45,0.65 -4.9,2.65 -2.45,2.15 -3.8,4.8 -1.5,2.9 -1.3,5.8 l 0.2,1.2 q 0.25,1.05 0.8,1.7 l 1,0.95 1.05,0.85 0.1,0.15 0.7,0.15 q 0.3,0.15 0.4,0.65 l 0.05,0.25 -0.1,0.6 -0.05,0.2 -0.05,0.35 q -0.1,0.95 -1.2,1.55 -0.5,0.75 -0.6,1.55 -0.1,1.4 0.8,2.2 l 0.9,0.55 0.9,0.5 q 0.55,0.45 0.7,1.2 0.15,0.7 0,1.65 l -0.35,1.45 -0.25,1.5 q 0,1.9 1.8,3.7 1.6,1.55 3.25,1.95 2.45,0.65 5.2,-0.85 2.05,-1.1 4.05,-3.5 l 2.1,-2.7 4.85,-6.45 0.1,-0.05 -2.2,-1.85 -0.7,-0.9 -0.05,-0.1 -0.8,0.65 -2.85,2.85 -1.45,2.15 -1.6,2 -0.9,0.7 -1.05,-0.05 -0.4,-0.55 0.1,-0.65 0.35,-0.55 0.3,-0.7 2.15,-3.2 1.1,-1.7 0.8,-1.35 0.2,-0.35 0.4,-0.65 0.65,-0.9 0.75,-1.45 0.65,-0.55 -0.15,-2.45 -1,-0.5 -1.85,-0.25 -1.8,-0.2 -1,-0.35 -0.25,-0.05 h -0.15 l -1,-0.3 -0.85,-0.45 M 6.9,-10.35 6.55,-11.25 6.2,-12 Q 5.45,-13.35 4.3,-13.95 L 3.7,-14.2 1.65,-14.25 q -1.1,0.3 -1.7,1.1 l -0.6,1.1 -0.45,1.15 Q -1.75,-9.35 -2.75,-9 L -2.8,-8.95 -4.1,-9 -4.25,-9.05 -5.7,-9.4 Q -7,-9.6 -8.3,-8.95 l -2.05,1.75 q -1.15,1.6 -2,5.05 l -0.45,2.9 -0.05,1.55 q 0.2,2.55 1.45,4.1 1.05,1.25 2.9,1.95 2.2,0.9 4.05,0.55 Q -2.6,8.55 -0.8,6.6 0.25,5.45 1.7,2.9 L 4.45,-1.9 Q 5.1,1.25 4.95,2.9 4.75,4.6 4,6.2 L 3.65,7 5.1,6.55 6.35,5.6 7.85,3.75 8.5,1.45 8.75,-1.05 8.45,-2.65 Q 8.3,-3.55 8.7,-4.2 l 0.85,-0.65 1.15,0.05 0.25,0.15 0.3,0.3 0.35,0.5 0.3,0.8 1.1,-0.55 1.05,-0.55 1.45,-0.65 0.8,-0.3 1.65,-0.45 2.85,-0.65 5.2,-1 3.15,-0.4 q 0.9,0 0.95,0.45 0.1,0.55 -0.7,0.8 L 20.2,-3 16.3,-1.25 q -0.7,0.35 -1.7,1.1 l -1.55,1.2 2.4,1.45 0.3,0.2 q 6.15,4.45 11.55,5.35 4.7,0.8 8.35,-0.95 2,-0.95 3.4,-2.6 1.25,-1.45 1.75,-3.15 l 0.15,-0.6 q 0.3,-1.1 0.2,-2.45 -0.1,-3.75 -1.9,-6.6 l -0.2,-0.35 q -0.85,-1.4 -0.65,-1.95 l 0.05,-0.1 q -0.15,-0.8 0.3,-1.4 l 0.65,-0.85 0.4,-1.3 -0.05,-0.5 -0.6,-1.8 -0.65,-1 -1.25,-0.85 q -2.85,-1.6 -4.4,-1.7 -0.85,-0.1 -1.1,-0.3 -0.4,-0.25 -0.5,-0.8 -0.05,-0.55 0.2,-1 l 0.2,-0.25 1.4,-0.9 0.2,-0.05 1.85,-0.25 1.25,0.3 0.2,0.05 1,-1.3 q 1.05,-1.3 1.45,-3.1 0.4,-1.45 0.15,-2.35 l -0.15,-0.4 -0.85,-1.4 -0.3,-0.4 -2.7,-2.75 q -1.7,-1.35 -3.35,-1.85 -3.05,-0.8 -7.05,1.05 -3.2,1.5 -6.5,4.55 l -5.55,5.8 -6.75,7.8 q 1.35,0.75 2.4,2.1 l 0.2,0.3 q 1.3,1.95 1.4,4.05 v 0.65 L 9.8,-9.5 9.05,-8.75 q -1,0.4 -1.75,-0.7 l -0.4,-0.9 M 23.95,-24.8 q 0.45,0.35 0.2,0.95 l -0.6,0.8 -0.95,0.95 -0.3,0.35 -2.2,2.35 -1.55,1.7 q -2.1,2.6 -3.1,5 -0.45,1.25 -0.95,1.65 -0.55,0.5 -1.25,0.5 -0.8,-0.05 -1.3,-0.5 -0.4,-0.4 -0.55,-0.9 -0.2,-0.55 -0.05,-1.2 0.15,-0.95 0.85,-2.1 l 0.85,-1.1 1.8,-2 4.25,-4 1.65,-1.2 2.35,-1.3 0.85,0.05 m -5,43.95 -2.35,-4.7 -3.35,-5.2 -2.1,-3.4 -0.2,-0.15 v 0.05 l 0.1,0.2 q 3.35,6.65 5.15,14.9 0.9,4.35 1.4,9.15 l 0.5,7.8 0.7,-0.4 q 2.3,-1.3 5,-2 Q 21.95,26 18.95,19.15 m -25.7,-5.7 -1,-0.1 0.2,0.95 Q -7,16.95 -4.4,21.9 L -4.3,22.05 -4.75,19.7 -5,18.3 -5.15,15.9 -5.2,13.5 -6.75,13.45 m 6.25,24.15 1.75,-1 -2.95,-4 -2.25,-2.85 -1.25,-1.3 -0.85,-1.25 Q -8,24.1 -8.75,22.15 l 0.5,5.25 2.75,12.1 0.15,0.35 0.55,-0.2 0.95,-0.5 1.05,-0.4 q 1,-0.3 2.3,-1.15"
         fill="#000000"
         fill-rule="evenodd"
         stroke="none"
         id="path1" />
      <path
         d="m -38.95,1.35 -0.2,-1.2 q -0.2,-2.9 1.3,-5.8 1.35,-2.65 3.8,-4.8 2.45,-2 4.9,-2.65 l 7.75,0.3 4.3,1.1 2.65,1.05 0.45,0.2 q -2.2,2.85 -3.1,8.15 l -1.15,-0.2 -2.1,0.1 -1.9,-0.1 -2.75,-0.1 -1.2,0.15 -0.85,-0.2 q -0.65,-0.1 -0.9,0.2 l -0.2,0.55 0.2,0.6 q 0.3,0.35 1.05,0.55 l 1.25,0.35 0.25,0.15 -0.7,0.05 -7.75,1.4 -3.65,0.45 -1.45,-0.3 m 15.4,-0.85 h 0.15 l 0.25,0.05 1,0.35 1.8,0.2 1.85,0.25 1,0.5 0.15,2.45 -0.65,0.55 -0.75,1.45 -0.65,0.9 -0.4,0.65 q -3.55,2.25 -9.1,5.15 -2.35,1.2 -3.5,1.5 l -1.15,0.25 q -0.15,-0.75 -0.7,-1.2 l -0.9,-0.5 -0.9,-0.55 q -0.9,-0.8 -0.8,-2.2 0.1,-0.8 0.6,-1.55 1.1,-0.6 1.2,-1.55 l 0.05,-0.35 0.05,-0.2 0.1,-0.6 q 1.4,-1.15 3,-2.05 1.45,-0.8 3.9,-1.85 l 3.1,-1.25 1.3,-0.4 m 2.75,9.05 -1.1,1.7 -2.15,3.2 -0.3,0.7 -0.35,0.55 -0.1,0.65 0.4,0.55 1.05,0.05 0.9,-0.7 1.6,-2 1.45,-2.15 2.85,-2.85 0.8,-0.65 0.05,0.1 0.7,0.9 -0.9,1.4 -5.05,7.2 -1.2,2.05 q -0.7,1.25 -1.35,1.9 l -1.45,0.9 q -1.05,0.25 -1.85,-0.5 -0.8,-0.65 -0.8,-1.75 0,-0.85 0.7,-2.15 l 2.35,-4.3 1.15,-1.8 0.95,-1.2 1.65,-1.8 m 8,-8.8 0.45,-2.9 q 0.85,-3.45 2,-5.05 L -8.3,-8.95 Q -7,-9.6 -5.7,-9.4 l 1.45,0.35 0.15,0.05 1.3,0.05 0.05,-0.05 q 1,-0.35 1.65,-1.9 l 0.45,-1.15 0.6,-1.1 q 0.6,-0.8 1.7,-1.1 l 2.05,0.05 0.6,0.25 q 1.15,0.6 1.9,1.95 l 0.35,0.75 0.35,0.9 Q 7,-8.45 6.7,-7.7 l -0.65,1.05 -1.7,1.7 q -1.2,0.8 -3.65,1 L -0.45,-4 -1.1,-2.25 Q -1.7,-1.2 -2.45,-0.3 L -5.1,2.35 q -1.8,1.75 -3.85,1.8 -1.1,0.05 -2.1,-0.5 -1.05,-0.55 -1.45,-1.5 l -0.3,-1.4 M 9.8,-9.5 9.95,-10.55 v -0.65 q -0.1,-2.1 -1.4,-4.05 l -0.2,-0.3 q -1.05,-1.35 -2.4,-2.1 l 6.75,-7.8 5.55,-5.8 q 3.3,-3.05 6.5,-4.55 4,-1.85 7.05,-1.05 1.65,0.5 3.35,1.85 l 2.7,2.75 0.3,0.4 0.85,1.4 0.15,0.4 q 0.25,0.9 -0.15,2.35 -0.4,1.8 -1.45,3.1 l -1,1.3 -0.2,-0.05 -1.25,-0.3 -1.85,0.25 -0.2,0.05 -1.4,0.9 -0.2,0.25 q -0.25,0.45 -0.2,1 0.1,0.55 0.5,0.8 0.25,0.2 1.1,0.3 1.55,0.1 4.4,1.7 l 1.25,0.85 0.65,1 0.6,1.8 0.05,0.5 -1.4,0.55 -4.85,0.65 -4.85,0.5 q -2.35,0.55 -6.2,2.7 -4.45,2.55 -6.55,4.6 L 15.5,-4.8 14.05,-4.15 13,-3.6 q -0.85,-0.05 -1.6,-0.65 l -0.15,-0.1 -0.3,-0.3 q -0.5,-0.5 -0.7,-1.1 L 10.15,-7.85 9.8,-9.5 m 29.45,1.2 q 1.8,2.85 1.9,6.6 0.1,1.35 -0.2,2.45 L 40.8,1.35 Q 36.65,3.1 32.2,2.7 L 26.75,2.3 16.9,2.6 15.75,2.7 15.45,2.5 13.05,1.05 14.6,-0.15 q 1,-0.75 1.7,-1.1 L 20.2,-3 29.4,-6.35 q 0.8,-0.25 0.7,-0.8 -0.05,-0.45 -0.95,-0.45 l -3.15,0.4 -5.2,1 -2.85,0.65 2,-0.75 q 4.15,-1.4 10.6,-2.2 l 5,-0.4 Q 37.8,-9 39.1,-8.4 l 0.15,0.1 m -15.3,-16.5 -0.85,-0.05 -2.35,1.3 -1.65,1.2 -4.25,4 -1.8,2 -0.85,1.1 q -0.7,1.15 -0.85,2.1 -0.15,0.65 0.05,1.2 0.15,0.5 0.55,0.9 0.5,0.45 1.3,0.5 0.7,0 1.25,-0.5 0.5,-0.4 0.95,-1.65 1,-2.4 3.1,-5 l 1.55,-1.7 2.2,-2.35 0.3,-0.35 0.95,-0.95 0.6,-0.8 q 0.25,-0.6 -0.2,-0.95 m -7.75,45.65 0.4,-0.8 q 0.7,-0.95 1.95,-0.95 l 0.4,0.05 q 3,6.85 4.85,16.25 -2.7,0.7 -5,2 L 18.75,36.5 Q 18.65,34.3 17.8,30.85 L 17.6,30 Q 17.1,25.2 16.2,20.85 M -0.5,37.6 q -1.3,0.85 -2.3,1.15 l -1.05,0.4 -0.95,0.5 -0.55,0.2 -0.15,-0.35 -2.75,-12.1 -0.5,-5.25 q 0.75,1.95 2.7,5.05 l 0.85,1.25 1.25,1.3 2.25,2.85 2.95,4 -1.75,1"
         fill="#e4c5e6"
         fill-rule="evenodd"
         stroke="none"
         id="path2" />
      <path
         d="m -38.95,1.35 1.45,0.3 3.65,-0.45 7.75,-1.4 0.7,-0.05 0.85,0.45 1,0.3 -1.3,0.4 -3.1,1.25 q -2.45,1.05 -3.9,1.85 -1.6,0.9 -3,2.05 L -34.9,5.8 Q -35,5.3 -35.3,5.15 L -36,5 -36.1,4.85 -37.15,4 l -1,-0.95 q -0.55,-0.65 -0.8,-1.7 m 19.15,6.5 -0.2,0.35 -0.8,1.35 -1.65,1.8 -0.95,1.2 -1.15,1.8 -2.35,4.3 q -0.7,1.3 -0.7,2.15 0,1.1 0.8,1.75 0.8,0.75 1.85,0.5 l 1.45,-0.9 q 0.65,-0.65 1.35,-1.9 l 1.2,-2.05 5.05,-7.2 0.9,-1.4 2.2,1.85 -0.1,0.05 -4.85,6.45 -2.1,2.7 q -2,2.4 -4.05,3.5 -2.75,1.5 -5.2,0.85 -1.65,-0.4 -3.25,-1.95 -1.8,-1.8 -1.8,-3.7 l 0.25,-1.5 0.35,-1.45 q 0.15,-0.95 0,-1.65 l 1.15,-0.25 q 1.15,-0.3 3.5,-1.5 5.55,-2.9 9.1,-5.15 m 7,-7.1 0.3,1.4 q 0.4,0.95 1.45,1.5 1,0.55 2.1,0.5 Q -6.9,4.1 -5.1,2.35 L -2.45,-0.3 Q -1.7,-1.2 -1.1,-2.25 L -0.45,-4 0.7,-3.95 q 2.45,-0.2 3.65,-1 L 6.05,-6.65 6.7,-7.7 Q 7,-8.45 6.9,-10.35 l 0.4,0.9 q 0.75,1.1 1.75,0.7 l 0.75,-0.75 0.35,1.65 0.1,2.1 q 0.2,0.6 0.7,1.1 L 10.7,-4.8 9.55,-4.85 8.7,-4.2 q -0.4,0.65 -0.25,1.55 l 0.3,1.6 L 8.5,1.45 7.85,3.75 6.35,5.6 5.1,6.55 3.65,7 4,6.2 Q 4.75,4.6 4.95,2.9 5.1,1.25 4.45,-1.9 L 1.7,2.9 Q 0.25,5.45 -0.8,6.6 -2.6,8.55 -4.45,8.9 -6.3,9.25 -8.5,8.35 -10.35,7.65 -11.4,6.4 -12.65,4.85 -12.85,2.3 l 0.05,-1.55 m 52.6,-15 -0.4,1.3 -0.65,0.85 q -0.45,0.6 -0.3,1.4 l -0.05,0.1 q -0.2,0.55 0.65,1.95 l 0.2,0.35 -0.15,-0.1 Q 37.8,-9 35.55,-8.9 l -5,0.4 q -6.45,0.8 -10.6,2.2 l -2,0.75 -1.65,0.45 -0.8,0.3 0.45,-0.45 q 2.1,-2.05 6.55,-4.6 3.85,-2.15 6.2,-2.7 l 4.85,-0.5 4.85,-0.65 1.4,-0.55 m 1,15.6 Q 40.3,3.05 39.05,4.5 37.65,6.15 35.65,7.1 32,8.85 27.3,8.05 21.9,7.15 15.75,2.7 L 16.9,2.6 26.75,2.3 32.2,2.7 q 4.45,0.4 8.6,-1.35 M 16.2,20.85 Q 14.4,12.6 11.05,5.95 l -0.1,-0.2 V 5.7 l 0.2,0.15 2.1,3.4 3.35,5.2 2.35,4.7 -0.4,-0.05 q -1.25,0 -1.95,0.95 l -0.4,0.8 m -22.95,-7.4 1.55,0.05 0.05,2.4 0.15,2.4 0.25,1.4 0.45,2.35 -0.1,-0.15 Q -7,16.95 -7.55,14.3 l -0.2,-0.95 1,0.1"
         fill="#b392b5"
         fill-rule="evenodd"
         stroke="none"
         id="path3" />
    </g>
    <g
       id="sprite1"
       transform="translate(17.4,15.85)">
      <use
         ffdec:characterId="31"
         height="57.200001"
         transform="matrix(0.5366,0,0,0.5366,-16.6582,-14.546)"
         width="70.75"
         xlink:href="#sprite2"
         id="use3" />
    </g>
    <g
       id="sprite2"
       transform="translate(-8.65,-10.35)">
      <use
         ffdec:characterId="30"
         height="57.200001"
         transform="translate(8.65,10.35)"
         width="70.75"
         xlink:href="#shape1"
         id="use4" />
    </g>
    <g
       id="shape1"
       transform="translate(-8.65,-10.35)">
      <path
         d="m 14.8,41.7 q 0.65,-1.75 2.65,-2.5 1.8,-0.8 3.7,-0.25 1.15,0.45 2.25,1.2 l 0.9,0.4 q 1.65,0.9 2.85,2.5 L 37.8,30.1 q 2.35,-2.8 3.75,-3.95 1.5,-1.15 4.25,-2.4 18.2,-8.85 27.65,-12.6 2.15,-0.8 3.25,-0.8 h 0.8 l 1.9,2.4 -0.2,0.8 q -0.2,1.1 -1.55,3 -5.85,8.25 -18.85,23.8 -1.85,2.35 -3.35,3.5 -1.4,1.15 -4.75,2.75 l -15.15,7.15 q 1.2,1.6 1.75,3.4 l 0.2,1 0.55,2.5 q 0.1,1.95 -1.1,3.55 -1.2,1.65 -3.05,1.9 l -1.3,0.05 q -1.65,0.2 -3.45,-0.65 -1.85,-0.9 -3,-2.6 L 25,60.95 23.8,62.1 q -2.6,2.85 -4.3,3.95 -2.85,1.8 -5.5,1.45 l -1.65,-0.5 -1.2,-0.7 -0.2,-0.2 q -1,-0.85 -1.6,-1.9 L 9.25,64 9.15,63.8 8.75,62.4 q -0.2,-0.8 -0.05,-1.7 0.25,-2.65 2.7,-5.05 1.5,-1.3 4.9,-3.15 L 17.7,51.55 16.05,50 q -1.35,-1.5 -1.8,-3.6 -0.4,-1.85 0.25,-3.45 l 0.3,-1.25"
         fill="#000000"
         fill-opacity="0.372549"
         fill-rule="evenodd"
         stroke="none"
         id="path4" />
    </g>
  </defs>
</svg>
