<?xml version="1.0" encoding="UTF-8" standalone="no"?>
<svg
   ffdec:objectType="frame"
   height="74.314003"
   width="55.954842"
   version="1.1"
   id="svg5"
   xmlns:xlink="http://www.w3.org/1999/xlink"
   xmlns="http://www.w3.org/2000/svg"
   xmlns:svg="http://www.w3.org/2000/svg"
   xmlns:ffdec="https://www.free-decompiler.com/flash">
  <g
     transform="translate(33.743878,42.605556)"
     id="g1">
    <use
       ffdec:characterId="17"
       height="119.15"
       id="rarity"
       transform="translate(-58.5,-60.65)"
       width="119.15"
       xlink:href="#sprite0" />
    <use
       ffdec:characterId="87"
       height="74.300003"
       transform="translate(-33.75,-42.6)"
       width="55.950001"
       xlink:href="#sprite1"
       id="use1" />
  </g>
  <defs
     id="defs5">
    <g
       id="sprite1">
      <use
         ffdec:characterId="86"
         height="74.300003"
         width="55.950001"
         xlink:href="#shape0"
         id="use2" />
    </g>
    <g
       id="shape0">
      <path
         d="m 42.7,65.4 q -1.9,1.4 -3.2,1.5 -1.4,0.1 -3.3,-1.05 l -3.15,-1.8 1,3.55 q 0.45,2.25 -0.55,3.6 -0.85,1 -3.1,1.5 Q 16.5,76.15 5.15,72.2 3.45,71.65 2.7,70.9 H 2.4 Q 1.15,71 0.5,70.15 q -1.1,-1.35 0.25,-4.2 4.5,-9.55 10.3,-13.4 3.45,-1.9 5,-3.1 L 20.2,45.5 q 2.5,-2.65 4.3,-3.75 l 2.6,-1.35 q 1.6,-0.8 2.45,-1.6 1.4,-1.25 2.5,-4.05 1.45,-3.5 2.2,-7.8 l 0.55,-3.8 q 0.35,-2.2 1,-3.7 1.05,-2.35 3.4,-4.35 l 1.25,-0.3 q 1.4,-0.65 1.65,-2.25 0.1,-0.8 -0.45,-2.6 L 40.95,7.35 39.8,5.1 38.9,3.05 q -0.1,-0.8 0.25,-1.55 0.35,-0.75 1,-1.15 0.65,-0.4 1.45,-0.35 0.85,0 1.45,0.5 0.75,0.6 1.35,2.3 0.85,2.3 1.9,6.75 l 0.15,0.8 0.35,0.95 1.4,2.5 1.65,2.35 q 5.85,8.6 6.1,19.5 0.25,10.95 -5.2,19.75 -1.25,2.05 -2.4,2.75 -1.8,1.25 -3.5,0.3 0.85,0.6 1,1.75 0.2,1.05 -0.25,2.1 -0.65,1.45 -2.9,3.1 m -4.55,-29.3 0.8,1.8 0.6,0.9 0.35,0.5 0.55,0.65 0.25,-0.65 0.8,-2.7 q 1.05,-3.85 1.35,-8 l 0.05,-5.8 -0.05,-0.65 -0.2,-2.4 -0.2,-1.65 -0.3,0.15 -1,0.95 q -0.5,0.65 -0.85,1.45 l -0.6,1.6 q -0.35,1.15 -0.8,5 -0.35,3.45 -1.4,6.95 0.35,0.4 0.55,1.5 l 0.1,0.4 m 12.2,-8 -0.85,-2.35 Q 48.35,22.9 46.75,20.4 l -0.35,-0.5 0.05,0.3 0.1,4.15 -0.3,4.8 -0.15,1.4 -1,5.65 -1.95,5.85 -0.4,0.8 1.7,0.2 0.55,0.05 h 0.05 l 1.3,0.1 2.85,-0.05 1.9,0.15 0.25,-1.5 q 0.5,-3.4 0.25,-7.05 -0.25,-3.4 -1.25,-6.65 m -10.4,24.25 0.5,1.15 0.55,1.1 q 0.6,-0.6 1.4,-0.7 l 1.6,0.25 1.6,0.1 q 0.95,-0.2 1.85,-1.75 l 1.45,-2.7 1.6,-4.15 v -0.1 H 50.15 45 L 43.65,45.5 43.25,45.45 41.7,45.3 h -0.1 -0.05 l -1.1,1.95 -1.75,2.5 0.7,1.3 0.55,1.3 M 35.5,39.15 q -1.15,2.2 -2.45,3.3 -1.55,1.35 -5.25,3.2 l -0.25,0.2 -2.35,1.9 -1.65,1.5 -4.1,3.75 -3.1,1.95 -3.1,1.95 q -3.5,2.7 -5.8,7.6 l -0.8,1.75 -0.15,0.35 3.25,-1.45 1.8,-0.7 0.15,-0.05 5.7,-2.85 8.05,-4.55 q 3.8,-2.25 6,-4.1 2,-1.65 3.65,-3.6 l 2.85,-4.05 0.65,-1.2 0.1,-0.15 0.95,-2 -0.75,-1 -0.05,-0.05 -0.7,-0.9 -0.85,-1.4 -0.8,-1.6 -1,2.2 m -4.75,18.2 0.45,0.1 q 1.25,0.35 2.55,1.15 l 1.7,1.25 0.95,0.8 0.35,0.3 q 0.8,0.6 1.5,0.8 l 1.7,-0.1 q 0.9,-0.35 1.1,-1.15 -0.85,-2 -0.95,-3.2 l -0.4,-0.65 -1.45,-3 -0.7,-1.4 -0.55,-0.5 -2.05,1.9 -0.75,0.6 -0.3,0.25 -2.55,1.8 -1.55,0.9 0.95,0.15 M 17.3,69.4 h 2.65 l 2.15,-0.15 0.15,-0.9 0.7,-4.2 0.55,-2.55 0.35,-1.1 -0.5,0.25 -0.8,0.4 -3.2,1.7 -6.4,3.2 -0.3,0.25 -1.9,1 -1.05,0.5 -0.15,0.05 -0.7,0.3 q 4.2,1.1 8.45,1.25 m 8,-0.6 3.9,-0.95 -1.75,-6.65 q -0.4,-1.7 -0.05,-2.65 l -0.3,0.2 q 0.05,1.15 -0.7,3.1 -1.15,3 -1.5,5.2 l -0.1,0.6 -0.15,1.25 0.65,-0.1"
         fill="#000000"
         fill-rule="evenodd"
         stroke="none"
         id="path2" />
      <path
         d="m 41.15,19.2 1,-0.95 0.3,-0.15 0.2,1.65 0.2,2.4 0.05,0.65 -0.05,5.8 q -0.3,4.15 -1.35,8 l -0.8,2.7 -0.25,0.65 -0.55,-0.65 -0.35,-0.5 -0.6,-0.9 -0.8,-1.8 0.15,0.1 1,0.9 1.45,-5.35 0.35,-2.2 0.05,-2.25 0.3,-1.7 L 41.3,22.45 41.15,20.2 V 19.25 19.2 m 10.2,22.6 -0.25,1.5 -1.9,-0.15 -2.85,0.05 -1.3,-0.1 H 45 l -0.55,-0.05 -1.7,-0.2 0.4,-0.8 1.95,-5.85 1,-5.65 0.15,-1.4 0.3,-4.8 -0.1,-4.15 -0.05,-0.3 0.35,0.5 q 1.6,2.5 2.75,5.35 l 0.85,2.35 -0.45,4 q -0.75,4.5 -2.4,8.65 l -0.2,0.4 3.05,0.35 1,0.3 m -2.45,8 -2.55,-0.35 -2.5,-0.45 -1.5,-0.1 -0.8,1.55 q -0.7,1.5 -1.55,1.85 l -0.05,0.05 -0.55,-1.3 -0.7,-1.3 1.75,-2.5 1.1,-1.95 h 0.05 0.1 l 1.55,0.15 0.4,0.05 1.35,0.05 h 5.15 0.35 v 0.1 L 48.9,49.8 M 7.45,64.5 8,64.25 11.65,62.7 q 8.75,-3.75 15.9,-9.9 l 4.7,-4.25 q 2.05,-1.8 3.75,-3.1 l 0.05,-0.2 0.45,-1.45 v -0.35 l 0.25,-0.4 0.1,-0.3 -0.1,-0.35 q -0.3,-1.35 -1,-2.7 l -0.25,-0.55 1,-2.2 0.8,1.6 0.85,1.4 0.7,0.9 0.05,0.05 0.75,1 -0.95,2 -0.1,0.15 -0.65,1.2 -2.85,4.05 q -1.65,1.95 -3.65,3.6 -2.2,1.85 -6,4.1 l -8.05,4.55 -5.7,2.85 -0.15,0.05 -1.8,0.7 -3.25,1.45 0.15,-0.35 0.8,-1.75 m 2.25,3.3 1.05,-0.5 1.9,-1 0.3,-0.25 6.4,-3.2 3.2,-1.7 0.8,-0.4 0.5,-0.25 -0.35,1.1 -0.55,2.55 -0.7,4.2 -0.15,0.9 -2.15,0.15 H 17.3 q -0.15,-1.05 0.5,-2.8 l 1.25,-3.1 q -3.65,2.05 -7.6,3.6 L 9.7,67.8 M 30.75,57.35 29.8,57.2 l 1.55,-0.9 2.55,-1.8 0.3,-0.25 0.75,-0.6 2.05,-1.9 0.55,0.5 0.7,1.4 1.45,3 0.4,0.65 q 0.1,1.2 0.95,3.2 -0.2,0.8 -1.1,1.15 l -1.7,0.1 q -0.7,-0.2 -1.5,-0.8 l -0.35,-0.3 -0.95,-0.8 -1.7,-1.25 q -1.3,-0.8 -2.55,-1.15 l -0.45,-0.1 m -5.85,9.7 q 0.35,-2.2 1.5,-5.2 0.75,-1.95 0.7,-3.1 l 0.3,-0.2 q -0.35,0.95 0.05,2.65 l 1.75,6.65 -3.9,0.95 -0.15,-0.45 -0.25,-1.3"
         fill="#bfbfbf"
         fill-rule="evenodd"
         stroke="none"
         id="path3" />
      <path
         d="m 41.15,20.2 0.15,2.25 0.15,3.15 -0.3,1.7 -0.05,2.25 -0.35,2.2 -1.45,5.35 -1,-0.9 -0.15,-0.1 -0.1,-0.4 q -0.2,-1.1 -0.55,-1.5 1.05,-3.5 1.4,-6.95 0.45,-3.85 0.8,-5 l 0.6,-1.6 0.2,-0.15 q 0.35,-0.2 0.65,-0.3 m 10.2,21.6 -1,-0.3 -3.05,-0.35 0.2,-0.4 q 1.65,-4.15 2.4,-8.65 l 0.45,-4 q 1,3.25 1.25,6.65 0.25,3.65 -0.25,7.05 M 39.95,52.35 40,52.3 q 0.85,-0.35 1.55,-1.85 l 0.8,-1.55 1.5,0.1 2.5,0.45 2.55,0.35 -1.45,2.7 q -0.9,1.55 -1.85,1.75 L 44,54.15 42.4,53.9 Q 41.6,54 41,54.6 l -0.55,-1.1 -0.5,-1.15 M 7.45,64.5 q 2.3,-4.9 5.8,-7.6 l 3.1,-1.95 3.1,-1.95 4.1,-3.75 1.65,-1.5 2.35,-1.9 0.25,-0.2 q 3.7,-1.85 5.25,-3.2 1.3,-1.1 2.45,-3.3 l 0.25,0.55 q 0.7,1.35 1,2.7 l 0.1,0.35 -0.1,0.3 -0.25,0.4 v 0.35 l -0.45,1.45 -0.05,0.2 q -1.7,1.3 -3.75,3.1 l -4.7,4.25 q -7.15,6.15 -15.9,9.9 L 8,64.25 7.45,64.5 m 2.25,3.3 1.75,-0.7 q 3.95,-1.55 7.6,-3.6 l -1.25,3.1 q -0.65,1.75 -0.5,2.8 -4.25,-0.15 -8.45,-1.25 l 0.7,-0.3 0.15,-0.05"
         fill="#e7e7e7"
         fill-rule="evenodd"
         stroke="none"
         id="path4" />
    </g>
    <g
       id="sprite2"
       transform="translate(17.4,15.85)">
      <use
         ffdec:characterId="31"
         height="57.200001"
         transform="matrix(0.5366,0,0,0.5366,-16.6582,-14.546)"
         width="70.75"
         xlink:href="#sprite3"
         id="use4" />
    </g>
    <g
       id="sprite3"
       transform="translate(-8.65,-10.35)">
      <use
         ffdec:characterId="30"
         height="57.200001"
         transform="translate(8.65,10.35)"
         width="70.75"
         xlink:href="#shape1"
         id="use5" />
    </g>
    <g
       id="shape1"
       transform="translate(-8.65,-10.35)">
      <path
         d="m 14.8,41.7 q 0.65,-1.75 2.65,-2.5 1.8,-0.8 3.7,-0.25 1.15,0.45 2.25,1.2 l 0.9,0.4 q 1.65,0.9 2.85,2.5 L 37.8,30.1 q 2.35,-2.8 3.75,-3.95 1.5,-1.15 4.25,-2.4 18.2,-8.85 27.65,-12.6 2.15,-0.8 3.25,-0.8 h 0.8 l 1.9,2.4 -0.2,0.8 q -0.2,1.1 -1.55,3 -5.85,8.25 -18.85,23.8 -1.85,2.35 -3.35,3.5 -1.4,1.15 -4.75,2.75 l -15.15,7.15 q 1.2,1.6 1.75,3.4 l 0.2,1 0.55,2.5 q 0.1,1.95 -1.1,3.55 -1.2,1.65 -3.05,1.9 l -1.3,0.05 q -1.65,0.2 -3.45,-0.65 -1.85,-0.9 -3,-2.6 L 25,60.95 23.8,62.1 q -2.6,2.85 -4.3,3.95 -2.85,1.8 -5.5,1.45 l -1.65,-0.5 -1.2,-0.7 -0.2,-0.2 q -1,-0.85 -1.6,-1.9 L 9.25,64 9.15,63.8 8.75,62.4 q -0.2,-0.8 -0.05,-1.7 0.25,-2.65 2.7,-5.05 1.5,-1.3 4.9,-3.15 L 17.7,51.55 16.05,50 q -1.35,-1.5 -1.8,-3.6 -0.4,-1.85 0.25,-3.45 l 0.3,-1.25"
         fill="#000000"
         fill-opacity="0.372549"
         fill-rule="evenodd"
         stroke="none"
         id="path5" />
    </g>
  </defs>
</svg>
