<?xml version="1.0" encoding="UTF-8" standalone="no"?>
<svg
   ffdec:objectType="frame"
   height="70.084785"
   width="83.288605"
   version="1.1"
   id="svg4"
   sodipodi:docname="ITEM Cathide Mask.svg"
   xmlns:inkscape="http://www.inkscape.org/namespaces/inkscape"
   xmlns:sodipodi="http://sodipodi.sourceforge.net/DTD/sodipodi-0.dtd"
   xmlns:xlink="http://www.w3.org/1999/xlink"
   xmlns="http://www.w3.org/2000/svg"
   xmlns:svg="http://www.w3.org/2000/svg"
   xmlns:ffdec="https://www.free-decompiler.com/flash">
  <sodipodi:namedview
     id="namedview4"
     pagecolor="#ffffff"
     bordercolor="#000000"
     borderopacity="0.25"
     inkscape:showpageshadow="2"
     inkscape:pageopacity="0.0"
     inkscape:pagecheckerboard="0"
     inkscape:deskcolor="#d1d1d1"
     fit-margin-top="5"
     fit-margin-left="5"
     fit-margin-right="5"
     fit-margin-bottom="5" />
  <g
     transform="translate(40.487218,33.35)"
     id="g1">
    <use
       ffdec:characterId="17"
       height="119.15"
       id="rarity"
       transform="translate(-58.5,-60.65)"
       width="119.15"
       xlink:href="#sprite0" />
    <use
       ffdec:characterId="926"
       height="70.150002"
       transform="translate(-40.5,-33.4)"
       width="83.300003"
       xlink:href="#shape0"
       id="use1" />
  </g>
  <defs
     id="defs4">
    <g
       id="shape0"
       transform="translate(87.3,34.75)">
      <path
         d="m -29.65,-34.4 11.9,0.65 q 1.45,0.1 2.65,0.7 l 3.65,0.05 h 0.1 l 0.5,-0.05 0.15,0.05 h 0.5 q 0.85,-0.05 1.1,0.9 l 0.1,0.45 q 1.5,1.75 1.05,4.8 -0.3,2.55 0.05,5.1 5.3,10.9 3.4,22.9 -0.65,3.8 -3,6.85 -3.85,4.85 -10.45,5.9 l -5.6,0.55 q 0.2,1.15 0.15,2.4 -0.25,2.65 -1.65,4.75 -0.9,1.45 -2.55,2 -5.45,2 -11.15,3.4 -0.95,1.5 -1.3,3.2 -0.85,3.8 -4.25,4.55 l -4.5,0.6 q -3.2,0.2 -6.05,-0.75 -1.65,-0.5 -1.55,-2.2 l 0.2,-6.6 q 0.05,-4.65 2.45,-8.35 L -52.5,15.9 -43.55,6.15 -43.5,6 -43.55,5.75 -43.6,5.55 -44.15,4.2 -44.25,4 -44.5,3.4 -45.1,2 -45.25,1.85 -45.55,1.9 -48.8,3.1 q -2.4,0.9 -4.95,1.1 -2,0.15 -3.15,-1.55 L -57.25,2.2 q -2.6,1.2 -4.75,3 -4.1,3.5 -8.55,6.4 l -1.6,-0.05 -3.7,-2.85 -7.9,-6.4 q -4.85,-3.9 -3.05,-9.95 0.7,-2.3 0.95,-4.65 1,-8.7 1.3,-17.5 0.15,-3.1 2.9,-4.3 l 2.6,-0.6 H -78 l 23.95,0.8 q 2.55,0.25 4.8,1.35 l 2.45,0.1 q 1.45,1 2.7,2.2 l 1.65,1.65 q 0.7,-0.7 1.25,-1.65 2.5,-4.1 7.75,-4 l 3.8,-0.15 m -19.4,7.9 -1.2,-1.3 -2.5,-0.25 -2.55,-0.4 q -11.5,-0.6 -23,-0.25 v 2 q -0.25,4.6 -1,9 l -0.4,2.95 q -0.45,5.5 -1.5,10.9 l 0.2,0.35 q 0.6,0.95 1.4,1.6 l 3.85,2.75 q 2.8,1.95 5.25,4.2 l 1.35,-1.25 q 3.55,-3.25 7.6,-5.95 V -2.7 q 0.05,-0.55 -0.35,-0.95 l -0.1,-0.8 -7.35,3.05 q -1.25,0.6 -2.45,-0.25 -2.4,-1.65 -4.4,-3.8 -2,-2.1 -1.75,-5.1 l 1.05,-7.95 q 0.6,-3.7 3.3,-5.95 l 0.9,-0.55 1.8,-0.45 q 10.75,-1.45 19.1,4.45 1.8,-1.8 4.5,-2.85 l 1.2,-0.4 -2.95,-2.25 m -20.9,6.4 -0.45,0.15 -0.45,0.15 q -1.05,3.9 -1.65,7.95 l -0.05,2.95 q 1.4,1.5 3.45,2.3 3.75,-1.8 7.7,-3.05 l 2.45,-0.1 4.15,-1.75 0.15,-0.35 0.2,-0.4 0.15,-0.2 q 0,-1.7 -0.25,-3.4 l -0.4,-1.8 q -7,-3.2 -15,-2.45 m 42.3,-9.25 -4.05,0.15 -3.85,0.75 q -2.25,3.85 -5.65,6.45 l -0.5,0.25 q -0.7,0.55 -1.85,0.9 -2.2,0.65 -4.2,1.85 l -2.45,1.65 q 0.15,3.45 -1,6.85 -0.85,2.45 -3.3,3.25 l -4.25,1.55 q 0.1,0.75 0.55,1.4 l 0.1,0.7 2.7,0.35 q 1.2,0.4 2,1.45 l 0.25,0.1 0.55,0.05 6.65,-2.4 q 4.25,-1.5 5.95,2.85 0.95,2.5 1.75,5.05 l 1.4,-2.3 0.75,-0.9 q -2.45,-3.65 -3.7,-7.6 l -0.15,-1.7 q 0.65,-6.1 4,-10.9 l 0.85,-0.85 q 0.5,-0.45 1.25,-0.5 l 0.4,-0.45 0.85,-0.4 0.4,-0.1 q 2.7,-2.45 6.35,-3.6 l 1.1,-0.25 q 3.9,0.9 6.3,4.55 l 3.75,5.85 q 3.15,4.85 1.85,10.45 -0.9,3.95 -3.15,7.45 -1.85,2.85 -5.6,3.3 -2.4,0.3 -4.6,1.35 -4.8,2.1 -7.25,-2.85 l -0.65,-1.1 -2.2,3.65 -1.4,2.55 q -0.15,1.1 0.2,2.2 l 0.45,1.05 0.3,-0.25 0.3,-0.2 0.35,-0.1 0.65,-0.2 0.55,0.2 0.4,0.1 0.2,0.25 0.3,0.35 0.15,0.2 0.05,0.4 0.2,0.8 0.05,0.2 v 0.2 l -0.05,0.2 -0.1,0.2 -2.25,1.55 0.05,0.1 0.25,0.15 q 0.6,1.4 0.85,2.85 l 0.1,0.2 5.5,-2.25 Q -30.5,16 -30.7,13.75 -31,9.65 -27,8.8 l 2.15,0.05 1.5,-0.35 q 4.5,-0.5 8.7,-2.15 3.6,-1.4 4,-5.2 l 0.95,-8.7 -3.45,-14.8 q -0.45,-1.55 -0.35,-3.3 l 0.05,-2.1 -0.8,-0.35 -9.05,-0.7 -1.35,-0.35 -3,-0.2 m 2.85,8.75 q -1.8,0.9 -3.75,1.5 l -1.8,0.05 q -0.95,0.15 -1.6,0.75 l -1.25,1.1 -1,3.55 q -0.8,3 -1.2,6.15 1.25,2.45 2.9,4.6 l 4.15,5.5 7.5,-2.15 1.25,-0.4 q 0.85,-1.25 1.4,-2.7 0.9,-2.25 1.1,-4.8 l 0.1,-0.2 q -0.45,-3.95 -2.8,-7.25 -2.35,-3.3 -5,-5.7 m -24.75,41.4 -0.15,0.2 -0.05,0.2 -0.05,0.2 -0.15,0.35 -0.2,0.4 v 0.2 0.25 0.15 l -0.05,1.6 -0.1,1.2 q -0.05,1.2 -0.25,2.4 l -0.1,1.15 v 0.15 l 2.3,0.2 0.8,0.05 1.7,0.05 0.6,-1.35 q 1.1,-5.1 5.6,-6.55 l 1.45,-0.45 q -0.5,-0.95 -0.4,-2.45 l 0.1,-0.7 -2.85,1.05 -0.95,-0.05 q -0.55,-0.35 -0.7,-1 l 0.05,-1.15 3.2,-2.35 q -0.55,-1.4 -0.7,-2.75 -4.65,4.35 -9.1,9"
         fill="#000000"
         fill-rule="evenodd"
         stroke="none"
         id="path1" />
      <path
         d="m -49.05,-26.5 2.95,2.25 -1.2,0.4 q -2.7,1.05 -4.5,2.85 -8.35,-5.9 -19.1,-4.45 l -1.8,0.45 -0.9,0.55 q -2.7,2.25 -3.3,5.95 l -1.05,7.95 q -0.25,3 1.75,5.1 2,2.15 4.4,3.8 1.2,0.85 2.45,0.25 l 7.35,-3.05 0.1,0.8 q 0.4,0.4 0.35,0.95 v 0.55 q -4.05,2.7 -7.6,5.95 L -70.5,5.05 Q -72.95,2.8 -75.75,0.85 L -79.6,-1.9 q -0.8,-0.65 -1.4,-1.6 l -0.2,-0.35 q 1.05,-5.4 1.5,-10.9 l 0.4,-2.95 q 0.75,-4.4 1,-9 v -2 q 11.5,-0.35 23,0.25 l 2.55,0.4 2.5,0.25 1.2,1.3 m -0.5,47.3 q 4.45,-4.65 9.1,-9 0.15,1.35 0.7,2.75 l -3.2,2.35 -0.05,1.15 q 0.15,0.65 0.7,1 l 0.95,0.05 2.85,-1.05 -0.1,0.7 q -0.1,1.5 0.4,2.45 l -1.45,0.45 q -4.5,1.45 -5.6,6.55 l -0.6,1.35 -1.7,-0.05 -0.8,-0.05 -2.3,-0.2 V 29.1 l 0.1,-1.15 q 0.2,-1.2 0.25,-2.4 l 0.1,-1.2 0.05,-1.6 v -0.15 -0.25 -0.2 l 0.2,-0.4 0.15,-0.35 0.05,-0.2 0.05,-0.2 0.15,-0.2"
         fill="#7d6b60"
         fill-rule="evenodd"
         stroke="none"
         id="path2" />
      <path
         d="m -27.65,-29.35 3,0.2 1.35,0.35 9.05,0.7 0.8,0.35 -0.05,2.1 q -0.1,1.75 0.35,3.3 l 3.45,14.8 -0.95,8.7 q -0.4,3.8 -4,5.2 -4.2,1.65 -8.7,2.15 L -24.85,8.85 -27,8.8 q -4,0.85 -3.7,4.95 0.2,2.25 1.5,3.95 l -5.5,2.25 -0.1,-0.2 q -0.25,-1.45 -0.85,-2.85 l -0.25,-0.15 -0.05,-0.1 2.25,-1.55 0.1,-0.2 0.05,-0.2 v -0.2 l -0.05,-0.2 -0.2,-0.8 -0.05,-0.4 -0.15,-0.2 -0.3,-0.35 -0.2,-0.25 -0.4,-0.1 -0.55,-0.2 -0.65,0.2 -0.35,0.1 -0.3,0.2 -0.3,0.25 -0.45,-1.05 q -0.35,-1.1 -0.2,-2.2 l 1.4,-2.55 2.2,-3.65 0.65,1.1 q 2.45,4.95 7.25,2.85 2.2,-1.05 4.6,-1.35 3.75,-0.45 5.6,-3.3 2.25,-3.5 3.15,-7.45 1.3,-5.6 -1.85,-10.45 l -3.75,-5.85 q -2.4,-3.65 -6.3,-4.55 l -1.1,0.25 q -3.65,1.15 -6.35,3.6 l -0.4,0.1 -0.85,0.4 -0.4,0.45 q -0.75,0.05 -1.25,0.5 l -0.85,0.85 q -3.35,4.8 -4,10.9 l 0.15,1.7 q 1.25,3.95 3.7,7.6 l -0.75,0.9 -1.4,2.3 Q -39.05,1.3 -40,-1.2 q -1.7,-4.35 -5.95,-2.85 l -6.65,2.4 -0.55,-0.05 -0.25,-0.1 q -0.8,-1.05 -2,-1.45 l -2.7,-0.35 -0.1,-0.7 q -0.45,-0.65 -0.55,-1.4 l 4.25,-1.55 q 2.45,-0.8 3.3,-3.25 1.15,-3.4 1,-6.85 l 2.45,-1.65 q 2,-1.2 4.2,-1.85 1.15,-0.35 1.85,-0.9 l 0.5,-0.25 q 3.4,-2.6 5.65,-6.45 l 3.85,-0.75 4.05,-0.15"
         fill="#6e5f55"
         fill-rule="evenodd"
         stroke="none"
         id="path3" />
    </g>
    <g
       id="sprite1"
       transform="translate(17.4,15.85)">
      <use
         ffdec:characterId="31"
         height="57.200001"
         transform="matrix(0.5366,0,0,0.5366,-16.6582,-14.546)"
         width="70.75"
         xlink:href="#sprite2"
         id="use3" />
    </g>
    <g
       id="sprite2"
       transform="translate(-8.65,-10.35)">
      <use
         ffdec:characterId="30"
         height="57.200001"
         transform="translate(8.65,10.35)"
         width="70.75"
         xlink:href="#shape1"
         id="use4" />
    </g>
    <g
       id="shape1"
       transform="translate(-8.65,-10.35)">
      <path
         d="m 14.8,41.7 q 0.65,-1.75 2.65,-2.5 1.8,-0.8 3.7,-0.25 1.15,0.45 2.25,1.2 l 0.9,0.4 q 1.65,0.9 2.85,2.5 L 37.8,30.1 q 2.35,-2.8 3.75,-3.95 1.5,-1.15 4.25,-2.4 18.2,-8.85 27.65,-12.6 2.15,-0.8 3.25,-0.8 h 0.8 l 1.9,2.4 -0.2,0.8 q -0.2,1.1 -1.55,3 -5.85,8.25 -18.85,23.8 -1.85,2.35 -3.35,3.5 -1.4,1.15 -4.75,2.75 l -15.15,7.15 q 1.2,1.6 1.75,3.4 l 0.2,1 0.55,2.5 q 0.1,1.95 -1.1,3.55 -1.2,1.65 -3.05,1.9 l -1.3,0.05 q -1.65,0.2 -3.45,-0.65 -1.85,-0.9 -3,-2.6 L 25,60.95 23.8,62.1 q -2.6,2.85 -4.3,3.95 -2.85,1.8 -5.5,1.45 l -1.65,-0.5 -1.2,-0.7 -0.2,-0.2 q -1,-0.85 -1.6,-1.9 L 9.25,64 9.15,63.8 8.75,62.4 q -0.2,-0.8 -0.05,-1.7 0.25,-2.65 2.7,-5.05 1.5,-1.3 4.9,-3.15 L 17.7,51.55 16.05,50 q -1.35,-1.5 -1.8,-3.6 -0.4,-1.85 0.25,-3.45 l 0.3,-1.25"
         fill="#000000"
         fill-opacity="0.372549"
         fill-rule="evenodd"
         stroke="none"
         id="path4" />
    </g>
  </defs>
</svg>
