<?xml version="1.0" encoding="UTF-8" standalone="no"?>
<svg
   ffdec:objectType="frame"
   height="76.89418"
   width="54.961216"
   version="1.1"
   id="svg5"
   xmlns:xlink="http://www.w3.org/1999/xlink"
   xmlns="http://www.w3.org/2000/svg"
   xmlns:svg="http://www.w3.org/2000/svg"
   xmlns:ffdec="https://www.free-decompiler.com/flash">
  <g
     transform="translate(30.166216,37.884722)"
     id="g1">
    <use
       ffdec:characterId="17"
       height="119.15"
       id="rarity"
       transform="translate(-58.5,-60.65)"
       width="119.15"
       xlink:href="#sprite0" />
    <use
       ffdec:characterId="692"
       height="76.900002"
       transform="translate(-30.15,-37.9)"
       width="54.950001"
       xlink:href="#shape0"
       id="use1" />
  </g>
  <defs
     id="defs5">
    <g
       id="shape0"
       transform="translate(29.75,37.1)">
      <path
         d="m 15.6,-1.8 q 0.1,0.8 -0.3,1.6 l 0.35,0.75 q 0.2,1 -0.1,2 l -0.6,1.8 1.05,-0.2 3.65,-0.5 3,0.2 q 1.75,0.5 2.3,1.85 0.35,0.75 0.2,1.55 -0.25,0.8 -0.8,1.2 L 22.95,9 21.35,9.05 q -1.1,0.2 -2.95,1.05 l -1.2,0.6 1.95,1.3 q 1.1,0.9 1.3,1.9 0.25,0.75 0.05,1.7 l -0.6,1.65 q -1.3,4 -1.75,7.3 l -0.9,5.1 q -0.95,4 -4.2,6.8 -3.25,2.7 -7.3,3.25 -3.45,0.45 -6.4,-0.95 -3.3,-1.65 -4.35,-4.7 -0.45,-1.25 -0.55,-3.6 -0.1,-3.25 0.85,-6.8 L -7.15,23.3 q -3.65,-0.85 -6.3,-3.7 l -2.15,-3.15 -1.1,-2.05 -0.5,-2.35 q -0.4,-2.95 0.2,-5.6 0.85,-3.05 2.75,-4.9 l 0.4,-0.25 -3.1,-2.7 -1.9,-1.65 q -0.9,-1.05 -1,-2.1 l 0.35,-0.9 -2.2,-1.6 q -1.85,-1.85 -1.6,-3.2 0.05,-0.7 1.05,-1.9 l 4.4,-4.25 0.1,-0.05 -0.3,-0.35 -1,0.95 q -1,0.9 -1.85,0.95 -0.9,-0.1 -2.05,-1.05 -3.3,-2.8 -5.6,-6.35 -1.5,-2.35 -1.15,-3.9 0.2,-1.15 1.9,-2.75 4.35,-4.2 8.1,-6.25 l 2,-0.7 q 1.25,-0.1 1.9,0.75 2.25,-1.25 4.25,-1.3 2.55,-0.25 4.2,1.3 0.75,0.7 1.25,1.8 l 0.5,1.5 q 0.35,1.6 -0.05,3.3 -0.65,1.7 -1.9,2.7 l 2.6,2.6 q 1.65,1.55 2.45,2.7 v 0.05 q 1,-0.65 1.6,-0.55 0.95,0.05 1.8,0.9 l 1.3,1.6 2.6,3.5 3.05,3.25 q 3.6,3.85 6.8,8.45 0.95,1.45 0.95,2.15 m -6.65,0.25 0.4,-0.4 Q 4.1,-9.1 -2,-15.6 l -1.05,0.6 -0.65,0.4 -0.7,0.4 3.85,3.7 q 2.6,2.65 3.3,4 1.55,2.8 0.35,5.15 -0.55,1 -1.35,1.25 L -0.2,-0.15 Q -1.15,-0.45 -2.1,-1 l -1,-0.9 q -1.25,-1.35 -1.75,-3 l 1.1,0.05 2.35,1.3 0.6,0.2 q 0.6,0.4 0.85,0.15 0.3,-0.2 0.25,-0.6 0.1,-1.55 -2.15,-3.85 l -5.05,-4.85 -2.65,2 -1.2,0.95 -3.7,3.25 q 2.9,2.25 6.9,6.4 l 6.6,6.6 3.15,-2.35 1.75,-1.4 5,-4.5 M 14.6,16.5 14.9,15.45 V 14.8 L 14.1,14.1 Q 12,12.8 10.8,10.6 L 10.35,9.45 V 9.3 Q 9.8,7.9 9.85,6.35 V 5.55 L 9.65,5.75 9.25,6.05 8.8,6.35 8.05,6.85 7.1,7.35 6.65,7.75 6.15,8.1 Q 5.5,8.55 4.8,9.35 L 4.35,9.65 4,10 4.35,10.6 q 0.55,0.7 0.6,1.45 0.4,0.45 0.4,1.05 0.3,1.25 -0.95,3.25 L 4,17.2 3.85,17.5 3.5,18.15 2.65,19.95 q -2.35,5.15 -2.75,9 -0.35,3.2 1.2,4.5 1.3,1.05 3.5,0.8 Q 7.2,34 9.35,32.15 10.9,30.8 11.7,29.1 l 1.1,-5.05 0.9,-4.3 0.1,-0.05 0.15,-0.65 L 14,18.7 14.05,18.65 14.6,16.5 m -2.5,11.2 -0.15,0.75 0.25,-0.8 -0.1,0.05 m -28.2,-53.75 0.6,-0.35 0.4,-0.25 0.15,-0.1 h 0.05 q 1.2,-0.65 1.7,-1.1 l 0.8,-0.85 0.75,-0.8 1.1,-0.75 0.25,-0.35 0.1,-0.65 -0.1,-0.3 -0.7,-0.4 q -0.8,-0.05 -1.8,0.7 -1.35,1.15 -1.75,1.3 l -1.2,0.1 -0.55,-0.15 q -0.85,-0.3 -1.25,-1.05 l -2.45,1.65 -4.65,3.85 q 1.35,2.4 3.55,4.35 0.75,-0.45 1.55,-1.55 l 1.5,-1.65 0.65,-0.7 1.3,-0.95 m 8,8.95 2.45,-1.75 -1.4,-1.3 -3.1,-3.2 q -0.55,-0.5 -0.9,-0.5 l -0.3,0.05 -0.25,0.05 h -0.2 l -0.7,0.4 -1.65,1.35 -1.5,1.65 -0.3,0.4 2.1,1.9 q 2,1.75 3.05,3.05 l 1.25,-1.05 q 0.15,0 0.25,-0.15 l 1.2,-0.9 m -6.8,5.4 0.8,-0.7 -0.3,-0.35 -0.35,-0.65 -3.25,2.9 1.1,0.95 2,-2.15 m 14.45,25.05 q -0.7,0 -1.5,-0.4 l -0.55,0.55 -0.6,1.25 -0.65,1.1 q -0.65,0.8 -1.75,0.75 -1.55,-0.05 -2.2,-1.8 -0.5,-1.4 0.2,-2.9 0.5,-1.05 1.75,-2.45 l -4.65,-4.7 -0.1,0.2 q -0.7,1.1 -1.05,2.45 -0.35,1.2 -0.15,2.95 l 0.3,2.15 1.5,2.65 1,1.2 1.35,0.95 q 1.9,1.05 3.05,1.05 l 1.75,-0.25 2.4,-4.75 h 0.05 -0.15"
         fill="#000000"
         fill-rule="evenodd"
         stroke="none"
         id="path1" />
      <path
         d="M -3.05,-15 -2,-15.6 q 6.1,6.5 11.35,13.65 l -0.4,0.4 H 8.8 Q 7.45,-1.85 5.95,-3.3 4.45,-4.8 2.2,-8.05 L -1.55,-13 -2.95,-14.75 -3.05,-15 m -7.7,5.45 1.2,-0.95 1.15,0.15 2.05,1.25 q 3.2,2.75 4.4,4.4 l 0.55,1.15 -2.35,-1.3 -1.1,-0.05 q 0.5,1.65 1.75,3 l 1,0.9 -0.2,0.05 -1.45,0.05 Q -4.8,-1.1 -6.2,-2.35 -8.6,-4.55 -10,-6.65 l -0.85,-1.6 q -0.15,-0.7 0.1,-1.3 M 9.85,6.35 Q 9.8,7.9 10.35,9.3 v 0.15 l 0.45,1.15 q 1.2,2.2 3.3,3.5 l 0.8,0.7 v 0.65 L 14.6,16.5 14.5,16.35 Q 13.25,16.1 11.7,15.15 L 9.15,13.5 7.95,12.25 Q 6.4,10.55 6.55,8.8 V 8.05 L 6.65,7.75 7.1,7.35 8.05,6.85 8.8,6.35 9.25,6.05 9.65,6.2 9.85,6.35 M -20,-29.4 l 2.45,-1.65 q 0.4,0.75 1.25,1.05 l 0.55,0.15 1.2,-0.1 q 0.4,-0.15 1.75,-1.3 1,-0.75 1.8,-0.7 l 0.7,0.4 0.1,0.3 -0.1,0.65 -0.25,0.35 -1.1,0.75 -0.75,0.8 -0.8,0.85 q -0.5,0.45 -1.7,1.1 h -0.05 l -0.15,0.1 -0.4,0.25 -0.6,0.35 -2.75,-2.3 -1.15,-1.05 m 7.5,6.05 0.7,-0.4 h 0.2 l 0.25,-0.05 0.3,-0.05 q 0.35,0 0.9,0.5 l 3.1,3.2 1.4,1.3 -2.45,1.75 -0.25,-0.2 -1.9,-2.05 -1.6,-1.85 q -0.75,-1.15 -0.65,-2.15"
         fill="#ffffff"
         fill-rule="evenodd"
         stroke="none"
         id="path2" />
      <path
         d="m 8.95,-1.55 -5,4.5 L 3.7,2.9 Q 3,3.05 2.75,3.35 L 2.3,4.05 2.2,4.35 -0.95,6.7 -7.55,0.1 q -4,-4.15 -6.9,-6.4 l 3.7,-3.25 q -0.25,0.6 -0.1,1.3 l 0.85,1.6 q 1.4,2.1 3.8,4.3 1.4,1.25 2.45,1.45 L -2.3,-0.95 -2.1,-1 q 0.95,0.55 1.9,0.85 L 1.75,-0.1 Q 2.55,-0.35 3.1,-1.35 4.3,-3.7 2.75,-6.5 q -0.7,-1.35 -3.3,-4 l -3.85,-3.7 0.7,-0.4 0.65,-0.4 0.1,0.25 1.4,1.75 3.75,4.95 q 2.25,3.25 3.75,4.75 1.5,1.45 2.85,1.75 h 0.15 m -18.5,-8.95 2.65,-2 5.05,4.85 q 2.25,2.3 2.15,3.85 0.05,0.4 -0.25,0.6 -0.25,0.25 -0.85,-0.15 l -0.6,-0.2 -0.55,-1.15 q -1.2,-1.65 -4.4,-4.4 L -8.4,-10.35 -9.55,-10.5 M 14.6,16.5 14.05,18.65 14,18.7 v -0.05 l -0.3,-0.8 Q 13.15,16.4 11.95,15.4 10.9,14.55 9.7,14.3 L 9.2,14.25 H 8.45 Q 6,14.5 4.05,17.2 H 4 l 0.4,-0.85 q 1.25,-2 0.95,-3.25 0,-0.6 -0.4,-1.05 Q 4.9,11.3 4.35,10.6 L 4,10 4.35,9.65 4.8,9.35 Q 5.5,8.55 6.15,8.1 l 0.5,-0.35 -0.1,0.3 V 8.8 q -0.15,1.75 1.4,3.45 l 1.2,1.25 2.55,1.65 q 1.55,0.95 2.8,1.2 l 0.1,0.15 M 9.25,6.05 l 0.4,-0.3 0.2,-0.2 v 0.8 L 9.65,6.2 9.25,6.05 m -25.35,-32.1 -1.3,0.95 -0.65,0.7 -1.5,1.65 q -0.8,1.1 -1.55,1.55 -2.2,-1.95 -3.55,-4.35 l 4.65,-3.85 1.15,1.05 2.75,2.3 m 8,8.95 -1.2,0.9 q -0.1,0.15 -0.25,0.15 L -10.8,-15 q -1.05,-1.3 -3.05,-3.05 l -2.1,-1.9 0.3,-0.4 1.5,-1.65 1.65,-1.35 q -0.1,1 0.65,2.15 l 1.6,1.85 1.9,2.05 0.25,0.2 m -6.8,5.4 -2,2.15 -1.1,-0.95 3.25,-2.9 0.35,0.65 0.3,0.35 -0.8,0.7"
         fill="#adadad"
         fill-rule="evenodd"
         stroke="none"
         id="path3" />
      <path
         d="m 14,18.7 -0.05,0.35 -0.15,0.65 -0.1,0.05 -0.9,4.3 -1.1,5.05 Q 10.9,30.8 9.35,32.15 7.2,34 4.6,34.25 2.4,34.5 1.1,33.45 q -1.55,-1.3 -1.2,-4.5 0.4,-3.85 2.75,-9 L 3.5,18.15 3.85,17.5 4.05,17.2 Q 6,14.5 8.45,14.25 H 9.2 l 0.5,0.05 q 1.2,0.25 2.25,1.1 1.2,1 1.75,2.45 l 0.3,0.8 v 0.05"
         fill="#633131"
         fill-rule="evenodd"
         stroke="none"
         id="path4" />
    </g>
    <g
       id="sprite1"
       transform="translate(17.4,15.85)">
      <use
         ffdec:characterId="31"
         height="57.200001"
         transform="matrix(0.5366,0,0,0.5366,-16.6582,-14.546)"
         width="70.75"
         xlink:href="#sprite2"
         id="use4" />
    </g>
    <g
       id="sprite2"
       transform="translate(-8.65,-10.35)">
      <use
         ffdec:characterId="30"
         height="57.200001"
         transform="translate(8.65,10.35)"
         width="70.75"
         xlink:href="#shape1"
         id="use5" />
    </g>
    <g
       id="shape1"
       transform="translate(-8.65,-10.35)">
      <path
         d="m 14.8,41.7 q 0.65,-1.75 2.65,-2.5 1.8,-0.8 3.7,-0.25 1.15,0.45 2.25,1.2 l 0.9,0.4 q 1.65,0.9 2.85,2.5 L 37.8,30.1 q 2.35,-2.8 3.75,-3.95 1.5,-1.15 4.25,-2.4 18.2,-8.85 27.65,-12.6 2.15,-0.8 3.25,-0.8 h 0.8 l 1.9,2.4 -0.2,0.8 q -0.2,1.1 -1.55,3 -5.85,8.25 -18.85,23.8 -1.85,2.35 -3.35,3.5 -1.4,1.15 -4.75,2.75 l -15.15,7.15 q 1.2,1.6 1.75,3.4 l 0.2,1 0.55,2.5 q 0.1,1.95 -1.1,3.55 -1.2,1.65 -3.05,1.9 l -1.3,0.05 q -1.65,0.2 -3.45,-0.65 -1.85,-0.9 -3,-2.6 L 25,60.95 23.8,62.1 q -2.6,2.85 -4.3,3.95 -2.85,1.8 -5.5,1.45 l -1.65,-0.5 -1.2,-0.7 -0.2,-0.2 q -1,-0.85 -1.6,-1.9 L 9.25,64 9.15,63.8 8.75,62.4 q -0.2,-0.8 -0.05,-1.7 0.25,-2.65 2.7,-5.05 1.5,-1.3 4.9,-3.15 L 17.7,51.55 16.05,50 q -1.35,-1.5 -1.8,-3.6 -0.4,-1.85 0.25,-3.45 l 0.3,-1.25"
         fill="#000000"
         fill-opacity="0.372549"
         fill-rule="evenodd"
         stroke="none"
         id="path5" />
    </g>
  </defs>
</svg>
