<?xml version="1.0" encoding="UTF-8" standalone="no"?>
<svg
   ffdec:objectType="frame"
   height="70.046425"
   width="81.30452"
   version="1.1"
   id="svg4"
   sodipodi:docname="ITEM Rocky Necklace.svg"
   xmlns:inkscape="http://www.inkscape.org/namespaces/inkscape"
   xmlns:sodipodi="http://sodipodi.sourceforge.net/DTD/sodipodi-0.dtd"
   xmlns:xlink="http://www.w3.org/1999/xlink"
   xmlns="http://www.w3.org/2000/svg"
   xmlns:svg="http://www.w3.org/2000/svg"
   xmlns:ffdec="https://www.free-decompiler.com/flash">
  <sodipodi:namedview
     id="namedview4"
     pagecolor="#ffffff"
     bordercolor="#000000"
     borderopacity="0.25"
     inkscape:showpageshadow="2"
     inkscape:pageopacity="0.0"
     inkscape:pagecheckerboard="0"
     inkscape:deskcolor="#d1d1d1"
     fit-margin-top="5"
     fit-margin-left="5"
     fit-margin-right="5"
     fit-margin-bottom="5" />
  <g
     transform="translate(37.63785,36.5)"
     id="g1">
    <use
       ffdec:characterId="17"
       height="119.15"
       id="rarity"
       transform="translate(-58.5,-60.65)"
       width="119.15"
       xlink:href="#sprite0" />
    <use
       ffdec:characterId="780"
       height="70.050003"
       transform="translate(-37.65,-36.5)"
       width="81.300003"
       xlink:href="#shape0"
       id="use1" />
  </g>
  <defs
     id="defs4">
    <g
       id="shape0"
       transform="translate(38.2,37.25)">
      <path
         d="m 32.65,-27.8 q 7.8,3.65 10.4,11.95 0.2,0.7 -0.2,1.4 -0.8,1.5 -2.15,2.6 -2.05,4.25 -5.7,6.95 -0.65,0.45 -1.5,0.55 l -23.2,2.7 q -2.2,0.3 -3.9,-1 -1.65,-1.2 -0.75,-3 L 5.75,-8 5.7,-11.25 5.65,-11.65 H 5.5 L 5,-11.7 v -0.1 l 0.25,-0.4 0.15,-0.25 0.15,-0.2 0.1,-0.2 0.15,-0.65 -0.05,-0.45 0.15,-0.65 q 0.45,-0.9 1.4,-1.3 l 1.3,-0.7 q 10.3,-8.95 24.05,-11.2 M 9.9,-10.35 v 1.4 1.5 l 18.7,-1.65 -2.5,-2.9 -0.4,-0.45 -2.1,-2.8 0.15,-0.4 0.25,-0.3 0.3,-0.15 0.05,-0.05 9.25,5.85 0.35,0.25 1.8,-2.55 0.2,-0.2 1.85,-2.4 0.7,-1.1 -2.1,-2.55 -0.75,-0.95 -1.2,-1.35 q -0.9,-0.9 -2,-1.6 L 32,-23.05 q -8.95,2.4 -17.1,6.55 -2.55,1.35 -4.85,3.05 -0.25,1.05 -0.2,2.15 l 0.05,0.95 M 32.75,1 Q 36.5,0.05 39.65,1.6 41.9,2.7 41.6,5.45 41.45,6.8 40.9,8 V 8.45 L 40.85,14 q 0,1.35 -0.8,2.4 -7.9,1.35 -16.25,0.45 Q 16,16.1 19.05,9.1 V 8.85 Q 19,8.1 19.1,7.35 L 19.6,5.2 q 0.2,-3.35 4.15,-3.6 l 9,-0.6 m -10,8.45 -0.05,0.4 -0.35,1.75 q 7.55,1.35 14.55,0.7 l 0.05,-2.7 0.1,-2 L 37.2,5.65 25.05,5.2 H 25 L 24.6,4.95 23.95,4.9 23.85,4.95 23.4,5.2 l -0.05,0.15 -0.1,0.5 -0.5,3.6 M 7.55,5.2 Q 11.7,4 14,6.9 q 0.9,1.05 0.75,2.55 -0.65,7.45 -0.55,15 -3.65,3.4 -8.65,5.5 L 2.2,31.5 q -3.3,1.65 -7.25,1.2 L -7.4,32.45 q -3.15,-0.4 -2.7,-3.55 0.4,-2.85 0.2,-5.7 -0.25,-3.8 2.35,-5.8 1.8,-2.4 3.95,-4.45 2.55,-2.4 5.5,-4.35 L 2.15,7.75 Q 2.9,4.6 6.75,5.25 L 7.55,5.2 M -4.8,-6.45 Q -1.25,-5.15 -0.35,-1 0.1,0.95 1.1,2.7 2.05,4.3 2,6.15 -2,10.4 -6.95,14 l -4.7,3.45 q -0.45,0.3 -1.05,0.45 l -15.1,4.15 q -1,0.3 -1.6,-0.5 -4.45,-6.05 -7.05,-12.95 -0.2,-0.55 0.2,-1.1 5.6,-6.8 11.85,-12.7 l 0.7,-0.25 18.9,-1 M 9.55,10.2 7.9,10.25 7.15,10.3 4.4,10.4 3.9,10.45 3.65,10.65 3.5,10.85 Q 2.85,11.6 2,12.15 l -0.35,0.2 -1.7,1.95 -3.5,3.85 -0.15,0.25 -0.1,0.15 -0.75,1.1 -0.3,0.45 -0.1,1.5 v 0.2 l -0.2,3.25 v 1.9 0.1 l 5.3,0.05 q 2.9,-1.9 6.05,-3.4 l 3.25,-1.55 v -3 -2.25 L 9.6,13.8 Q 9.65,13.1 9.95,12.5 V 12.3 12.1 11.25 10.6 10.35 10.25 10.2 h -0.4 m -16.9,-35.3 -0.05,-0.15 -0.1,-1.3 v -1.05 q -5.55,-2.3 -11.5,-3.75 l 0.1,0.95 -0.1,1.7 0.1,0.85 q -0.1,0.8 0.2,1.55 l -0.1,1.75 -0.05,0.15 -0.15,1.75 q 0.25,0.6 0.2,1.25 -0.1,0.9 0.15,1.75 l -0.15,0.15 -0.35,0.1 h -0.15 q -1.25,-2.9 -1.75,-6.1 l -0.2,-1.15 -0.25,-2.05 -0.1,-0.9 v -0.1 l -0.8,-1.1 -0.05,-0.15 -1.65,0.9 q -2.95,1.7 -5.7,3.7 l -2.6,2.3 q -0.25,2.1 -0.05,4.3 0.25,2.95 0.9,5.8 l 0.1,0.45 q 3.15,-0.8 6.75,-1.95 l 1.15,-0.4 1.1,-0.3 2.55,-0.35 4.2,0.55 0.1,0.25 0.05,0.2 9,-0.95 -0.4,-2.8 -0.1,-3.4 v -1.5 l -0.3,-0.95 m -13.1,-12.15 q 9.15,2.1 17.1,6.55 0.6,0.35 0.65,1.15 0.35,8.7 0.25,17.2 0,0.65 -0.75,0.7 l -16.9,0.75 q -4.45,0.1 -8.45,2.45 -4.3,2.5 -7.3,-0.45 -0.75,-0.75 -0.95,-1.9 -0.9,-5.5 -1.35,-11.15 -0.45,-5.4 4.45,-8.25 3.1,-1.75 5.95,-3.85 3.35,-2.5 7.3,-3.2 m 11.55,36 q -4.4,0.2 -8.8,-0.05 -0.5,-0.05 -0.9,-0.4 l -0.7,0.1 -3.2,0.15 -4.75,5.6 -4,4.7 1.55,3.1 1.75,2.7 1.3,1.95 q 5.9,-1.8 12.1,-3.3 l -1.3,-2.5 -0.95,-2.2 -0.95,-1.15 -0.7,-0.75 -1.05,-1.1 -0.1,-0.25 -0.05,-0.2 -0.7,-0.5 -0.1,-0.15 0.05,-0.4 0.05,-0.2 0.2,-0.25 0.7,-0.2 q 2.6,1.35 4.5,3.5 1.4,1.6 2.4,3.65 L -12,11.6 -7.15,7.65 -3.2,4.85 -3.6,3.95 -4,3.1 -5.6,-0.25 -5.85,-0.95 -6.05,-1.5 -8.9,-1.25"
         fill="#000000"
         fill-rule="evenodd"
         stroke="none"
         id="path1" />
      <path
         d="m 25.7,-12.45 -1.4,-1 -0.35,-0.4 q -6.7,2.3 -14,3.5 H 9.9 L 9.85,-11.3 q -0.05,-1.1 0.2,-2.15 2.3,-1.7 4.85,-3.05 8.15,-4.15 17.1,-6.55 l 0.45,0.3 q 1.1,0.7 2,1.6 v 0.05 0.25 l 0.4,0.4 0.9,1.1 0.15,0.25 0.5,0.25 2.1,2.55 -0.7,1.1 -1.85,2.4 H 35.7 l -0.25,0.25 -0.65,0.5 -0.65,0.5 -0.2,0.3 -0.1,0.2 -0.15,0.5 -0.1,0.25 -9.25,-5.85 -0.05,0.05 -0.3,0.15 -0.25,0.3 -0.15,0.4 2.1,2.8 M 36.95,9.6 35.75,10 q -6.85,1.4 -13,-0.55 l 0.5,-3.6 Q 24.1,5.45 25,5.2 h 0.05 l 12.15,0.45 -0.15,1.95 -0.1,2 m -41.9,12.2 v -0.2 l 0.1,-1.5 0.3,-0.45 0.75,-1.1 0.1,-0.15 0.15,-0.25 3.5,-3.85 1.7,-1.95 0.35,-0.2 q 0.85,-0.55 1.5,-1.3 l 0.15,-0.2 0.25,-0.2 0.5,-0.05 2.75,-0.1 0.75,-0.05 1.65,-0.05 0.4,0.4 v 0.65 0.85 0.2 0.2 Q 9.65,13.1 9.6,13.8 L 9.45,16.9 9,17.2 q -6.6,3.7 -13.8,4.6 h -0.15 m -13.85,-46.35 0.1,-1.75 q -0.3,-0.75 -0.2,-1.55 l -0.1,-0.85 0.1,-1.7 -0.1,-0.95 q 5.95,1.45 11.5,3.75 v 1.05 l 0.1,1.3 0.05,0.15 -0.6,0.1 -10.85,0.45 m -1.1,8.05 -2.55,0.35 -1.1,0.3 -1.15,0.4 q -3.6,1.15 -6.75,1.95 l -0.1,-0.45 q -0.65,-2.85 -0.9,-5.8 -0.2,-2.2 0.05,-4.3 l 2.6,-2.3 q 2.75,-2 5.7,-3.7 l 2.3,0.4 0.2,0.05 0.1,0.9 0.25,2.05 0.2,1.15 q 0.5,3.2 1.75,6.1 h 0.15 q -0.1,1.5 -0.75,2.9 m -8.05,31.15 -1.75,-2.7 -1.55,-3.1 4,-4.7 4.75,-5.6 3.2,-0.15 0.7,-0.1 q 0.4,0.35 0.9,0.4 4.4,0.25 8.8,0.05 l 3.3,1 L -4,3.1 -3.6,3.95 -3.7,4 q -1,0.8 -2.4,1.1 l -8.85,1.85 q -1.9,-2.15 -4.5,-3.5 l -0.7,0.2 -0.2,0.25 -0.05,0.2 -0.05,0.4 0.1,0.15 0.7,0.5 0.05,0.2 0.1,0.25 1.05,1.1 0.7,0.75 -2.85,0.45 -0.8,0.7 -0.45,0.55 -3.15,2.9 -2.95,2.6 m 7.4,-11.6 q -0.45,0.5 0.4,-0.2 l -0.4,0.2"
         fill="#c6c6c6"
         fill-rule="evenodd"
         stroke="none"
         id="path2" />
      <path
         d="m 25.7,-12.45 0.4,0.45 2.5,2.9 -18.7,1.65 v -1.5 -1.4 h 0.05 q 7.3,-1.2 14,-3.5 l 0.35,0.4 1.4,1 M 36.95,9.6 36.9,12.3 q -7,0.65 -14.55,-0.7 l 0.35,-1.75 0.05,-0.4 q 6.15,1.95 13,0.55 l 1.2,-0.4 M -4.95,21.8 H -4.8 Q 2.4,20.9 9,17.2 l 0.45,-0.3 v 2.25 3 L 6.2,23.7 q -3.15,1.5 -6.05,3.4 l -5.3,-0.05 v -0.1 -1.9 l 0.2,-3.25 M -18.8,-24.55 -7.95,-25 l 0.6,-0.1 0.3,0.95 v 1.5 l 0.1,3.4 0.4,2.8 -9,0.95 -0.05,-0.2 -0.1,-0.25 -4.2,-0.55 q 0.65,-1.4 0.75,-2.9 l 0.35,-0.1 0.15,-0.15 q -0.25,-0.85 -0.15,-1.75 0.05,-0.65 -0.2,-1.25 l 0.15,-1.75 0.05,-0.15 m -9.15,39.2 2.95,-2.6 3.15,-2.9 0.45,-0.55 0.8,-0.7 2.85,-0.45 0.95,1.15 0.95,2.2 1.3,2.5 q -6.2,1.5 -12.1,3.3 l -1.3,-1.95 m 13,-7.7 L -6.1,5.1 Q -4.7,4.8 -3.7,4 l 0.1,-0.05 0.4,0.9 -3.95,2.8 -4.85,3.95 -0.55,-1 q -1,-2.05 -2.4,-3.65"
         fill="#909090"
         fill-rule="evenodd"
         stroke="none"
         id="path3" />
    </g>
    <g
       id="sprite1"
       transform="translate(17.4,15.85)">
      <use
         ffdec:characterId="31"
         height="57.200001"
         transform="matrix(0.5366,0,0,0.5366,-16.6582,-14.546)"
         width="70.75"
         xlink:href="#sprite2"
         id="use3" />
    </g>
    <g
       id="sprite2"
       transform="translate(-8.65,-10.35)">
      <use
         ffdec:characterId="30"
         height="57.200001"
         transform="translate(8.65,10.35)"
         width="70.75"
         xlink:href="#shape1"
         id="use4" />
    </g>
    <g
       id="shape1"
       transform="translate(-8.65,-10.35)">
      <path
         d="m 14.8,41.7 q 0.65,-1.75 2.65,-2.5 1.8,-0.8 3.7,-0.25 1.15,0.45 2.25,1.2 l 0.9,0.4 q 1.65,0.9 2.85,2.5 L 37.8,30.1 q 2.35,-2.8 3.75,-3.95 1.5,-1.15 4.25,-2.4 18.2,-8.85 27.65,-12.6 2.15,-0.8 3.25,-0.8 h 0.8 l 1.9,2.4 -0.2,0.8 q -0.2,1.1 -1.55,3 -5.85,8.25 -18.85,23.8 -1.85,2.35 -3.35,3.5 -1.4,1.15 -4.75,2.75 l -15.15,7.15 q 1.2,1.6 1.75,3.4 l 0.2,1 0.55,2.5 q 0.1,1.95 -1.1,3.55 -1.2,1.65 -3.05,1.9 l -1.3,0.05 q -1.65,0.2 -3.45,-0.65 -1.85,-0.9 -3,-2.6 L 25,60.95 23.8,62.1 q -2.6,2.85 -4.3,3.95 -2.85,1.8 -5.5,1.45 l -1.65,-0.5 -1.2,-0.7 -0.2,-0.2 q -1,-0.85 -1.6,-1.9 L 9.25,64 9.15,63.8 8.75,62.4 q -0.2,-0.8 -0.05,-1.7 0.25,-2.65 2.7,-5.05 1.5,-1.3 4.9,-3.15 L 17.7,51.55 16.05,50 q -1.35,-1.5 -1.8,-3.6 -0.4,-1.85 0.25,-3.45 l 0.3,-1.25"
         fill="#000000"
         fill-opacity="0.372549"
         fill-rule="evenodd"
         stroke="none"
         id="path4" />
    </g>
  </defs>
</svg>
