<?xml version="1.0" encoding="UTF-8" standalone="no"?>
<svg
   ffdec:objectType="frame"
   height="60.465611"
   width="79.319969"
   version="1.1"
   id="svg5"
   xmlns:xlink="http://www.w3.org/1999/xlink"
   xmlns="http://www.w3.org/2000/svg"
   xmlns:svg="http://www.w3.org/2000/svg"
   xmlns:ffdec="https://www.free-decompiler.com/flash">
  <g
     transform="translate(41.032051,26.783333)"
     id="g1">
    <use
       ffdec:characterId="17"
       height="119.15"
       id="rarity"
       transform="translate(-58.5,-60.65)"
       width="119.15"
       xlink:href="#sprite0" />
    <use
       ffdec:characterId="851"
       height="60.5"
       transform="translate(-41.05,-26.8)"
       width="79.349998"
       xlink:href="#shape0"
       id="use1" />
  </g>
  <defs
     id="defs5">
    <g
       id="shape0"
       transform="translate(41.6,27.55)">
      <path
         d="m -6,-27.2 q 7.85,-1 14.75,1 l 1.3,-0.1 q 14.9,-1.5 23.25,10.15 5.75,8 4.05,17.5 L 37.3,2.2 q -0.6,2.15 -2.25,3.75 l -2.6,1.9 Q 34.65,16 30,23 23.55,32.6 11.8,32.7 l -1.3,0.05 q -10.4,1.2 -18.2,-5.5 -4.2,0.55 -8.25,2.5 -2.55,1.2 -5.4,1.25 -13.65,0.25 -18.75,-11.9 -1.7,-3.95 -1.45,-8.4 0.5,-8.55 4.6,-15.95 2.3,-4.2 5.5,-7.8 Q -21.2,-24.65 -6,-27.2 m 26.3,6.6 -1,-0.35 0.15,0.1 q 3.35,2.45 5.15,6.05 l -0.05,0.2 -0.15,0.25 -0.1,0.2 -0.1,0.15 -0.15,0.05 H 23.2 l -0.5,-0.15 q -1.15,-0.35 -2.2,-0.95 L 20.3,-15.2 17.9,-17 q -2.6,-1.6 -5.3,-2.7 -9.4,-3.8 -19.95,-1.45 l -1.7,0.4 q -5.85,1.55 -11.05,4.8 l -0.4,0.35 -4.4,3.75 -4.2,4.7 -0.15,0.2 q -0.5,0.95 -1.15,1.75 -1.7,2.1 -2.75,4.5 l -1.05,2.6 -0.4,1.05 -0.85,8.35 q -0.7,8.55 7.1,12.5 3.3,1.65 6.95,1.5 4.3,-0.2 8.3,-1.8 l -3.45,-0.15 Q -22.1,23 -24,18.3 l 0.15,-0.85 q 0.15,-0.6 0.75,-0.6 V 16.8 l 0.45,0.15 0.3,0.25 0.2,0.4 q 0.95,0.8 2.2,1.2 l 0.25,0.15 18.35,1.3 4.05,0.5 q 1.9,0.5 3.55,1.3 l -10.1,1.25 1.95,1.5 q 10.55,5.35 21.8,0.5 4.05,-1.75 6.65,-5.45 l 1.3,-1.9 Q 28.75,13.8 27.8,9.6 L 26.9,7 Q 25.75,4.7 23.75,3 22.95,2.35 22.05,1.8 21.4,1.4 21.55,0.6 q 0.7,-3.8 4.25,-1.7 l 1.2,0.8 q 2.05,1.45 3.4,3.5 l 0.3,0.45 0.3,-0.3 q 3.3,-2.8 2.7,-7.2 l -0.55,-1.5 -0.1,-0.4 q -1,-3.35 -2.7,-6.45 -1.55,-2.8 -3.85,-4.95 -2.85,-2.25 -6.2,-3.45"
         fill="#000000"
         fill-rule="evenodd"
         stroke="none"
         id="path1" />
      <path
         d="m 19.45,-20.85 0.85,0.25 q 3.35,1.2 6.2,3.45 2.3,2.15 3.85,4.95 1.7,3.1 2.7,6.45 l 0.1,0.4 0.55,1.5 q 0.6,4.4 -2.7,7.2 L 30.7,3.65 30.4,3.2 Q 29.05,1.15 27,-0.3 l -1.2,-0.8 q -3.55,-2.1 -4.25,1.7 -0.15,0.8 0.5,1.2 0.9,0.55 1.7,1.2 2,1.7 3.15,4 l -1.95,1.3 q -6.2,3.65 -13.3,4.85 Q 1,14.95 -9.4,14.05 L -8.95,13.9 -6.35,12.65 4,7 8.05,4.85 Q 10.45,3.7 11.35,2.45 12,1.65 12.45,0 13.25,-3.4 11.7,-5.15 10.45,-6.5 7.85,-6.7 l -3.4,0.2 q -1.95,0.4 -4.7,1.6 -6,2.6 -10.6,5.05 -4.5,2.55 -6.1,4.95 -1.35,2.05 -1.45,4.65 -0.1,2.05 0.85,3.2 l -3.6,-0.75 -0.35,-0.95 -0.75,-0.4 -0.85,-0.2 q -0.95,0.15 -1.45,0.65 l -1.2,-0.35 q -1.8,-0.5 -3.35,-1.6 -4.3,-3.1 -5.1,-7.45 l 1.05,-2.6 q 1.05,-2.4 2.75,-4.5 0.65,-0.8 1.15,-1.75 l 0.15,-0.2 4.2,-4.7 4.4,-3.75 0.4,-0.35 q 5.2,-3.25 11.05,-4.8 l 1.7,-0.4 q 10.55,-2.35 19.95,1.45 2.7,1.1 5.3,2.7 l 2.4,1.8 0.2,0.15 q 1.05,0.6 2.2,0.95 l 0.5,0.15 h 0.85 l 0.15,-0.05 0.1,-0.15 0.1,-0.2 0.15,-0.25 0.05,-0.2 q -1.8,-3.6 -5.15,-6.05 m -13.35,4.5 q -1.3,-0.8 -2.85,-0.5 -1.6,0.25 -2.55,1.4 -0.95,1.15 -0.95,2.75 0.05,1.65 1.05,2.75 1,1.1 2.6,1.3 1.6,0.2 2.85,-0.65 0.85,-0.55 1.4,-1.55 0.5,-0.95 0.45,-2 0,-1.05 -0.55,-2 Q 7,-15.8 6.1,-16.35 M 22.95,-11 q -1.5,0 -2.4,1.35 -2.5,3.8 1.9,5.25 1.8,0.65 2.85,-1 2.65,-4.2 -2.35,-5.6 M -21.8,2.65 -19.75,2.4 q 1.25,-0.5 2,-1.7 0.75,-1.2 0.65,-2.5 -0.05,-1.35 -1,-2.4 -0.95,-1.1 -2.25,-1.4 l -2.4,0.2 q -1.2,0.45 -1.95,1.45 -0.75,1.1 -0.7,2.5 0,1.45 0.8,2.5 l -0.05,0.15 -0.1,0.45 0.3,0.85 0.7,0.65 0.65,0.15 0.55,-0.2 0.7,-0.4 0.05,-0.05 M -1.2,3.4 Q -2,2.6 -3.65,2.15 q -2.25,0.1 -3,2.4 L -6.9,6.3 -9.05,7.75 q -2.25,1.4 -3.9,1.4 V 8.2 L -12.65,7.3 -12,6.5 Q -10.35,5 -5.7,2.7 l 2.3,-0.9 1.2,-0.35 2.25,-0.9 q 3.2,-1.45 6.7,-1.75 -1.2,1 -3.3,2.1 L 0,2.65 -1.2,3.4"
         fill="#191919"
         fill-rule="evenodd"
         stroke="none"
         id="path2" />
      <path
         d="m 6.1,-16.35 q 0.9,0.55 1.45,1.5 0.55,0.95 0.55,2 0.05,1.05 -0.45,2 -0.55,1 -1.4,1.55 -1.25,0.85 -2.85,0.65 -1.6,-0.2 -2.6,-1.3 -1,-1.1 -1.05,-2.75 0,-1.6 0.95,-2.75 0.95,-1.15 2.55,-1.4 1.55,-0.3 2.85,0.5 m -23.65,29.3 q -0.95,-1.15 -0.85,-3.2 0.1,-2.6 1.45,-4.65 1.6,-2.4 6.1,-4.95 4.6,-2.45 10.6,-5.05 2.75,-1.2 4.7,-1.6 l 3.4,-0.2 q 2.6,0.2 3.85,1.55 Q 13.25,-3.4 12.45,0 12,1.65 11.35,2.45 10.45,3.7 8.05,4.85 L 4,7 l -10.35,5.65 -2.6,1.25 -0.45,0.15 -2.7,0.45 q -3.75,0.3 -5.2,-1.25 l -0.25,-0.3 M -24.6,1.05 q -0.8,-1.05 -0.8,-2.5 -0.05,-1.4 0.7,-2.5 0.75,-1 1.95,-1.45 l 2.4,-0.2 q 1.3,0.3 2.25,1.4 0.95,1.05 1,2.4 0.1,1.3 -0.65,2.5 -0.75,1.2 -2,1.7 L -21.8,2.65 -22.4,2.5 Q -23.75,2.1 -24.6,1.05 M -1.2,3.4 0,2.65 3.45,0.9 q 2.1,-1.1 3.3,-2.1 -3.5,0.3 -6.7,1.75 L -2.2,1.45 -3.4,1.8 -5.7,2.7 Q -10.35,5 -12,6.5 l -0.65,0.8 -0.3,0.9 v 0.95 q 1.65,0 3.9,-1.4 L -6.9,6.3 -5.55,5.55 -3.1,4.5 -1.5,3.6 -1.2,3.4"
         fill="#ffffff"
         fill-rule="evenodd"
         stroke="none"
         id="path3" />
      <path
         d="m 26.9,7 0.9,2.6 q 0.95,4.2 0.05,8.35 l -1.3,1.9 Q 23.95,23.55 19.9,25.3 8.65,30.15 -1.9,24.8 L -3.85,23.3 6.25,22.05 Q 4.6,21.25 2.7,20.75 l -4.05,-0.5 -18.35,-1.3 -0.25,-0.15 q -1.25,-0.4 -2.2,-1.2 l -0.2,-0.4 -0.3,-0.25 -0.45,-0.15 v 0.05 q -0.6,0 -0.75,0.6 L -24,18.3 q 1.9,4.7 7.45,5.05 l 3.45,0.15 q -4,1.6 -8.3,1.8 -3.65,0.15 -6.95,-1.5 -7.8,-3.95 -7.1,-12.5 l 0.85,-8.35 0.4,-1.05 q 0.8,4.35 5.1,7.45 1.55,1.1 3.35,1.6 l 1.2,0.35 q 0.5,-0.5 1.45,-0.65 l 0.85,0.2 0.75,0.4 0.35,0.95 3.6,0.75 0.25,0.3 q 1.45,1.55 5.2,1.25 l 2.7,-0.45 q 10.4,0.9 21.05,-0.9 7.1,-1.2 13.3,-4.85 L 26.9,7 m -3.95,-18 q 5,1.4 2.35,5.6 -1.05,1.65 -2.85,1 -4.4,-1.45 -1.9,-5.25 0.9,-1.35 2.4,-1.35 m -44.75,13.65 -0.05,0.05 -0.7,0.4 -0.55,0.2 -0.65,-0.15 -0.7,-0.65 -0.3,-0.85 0.1,-0.45 0.05,-0.15 q 0.85,1.05 2.2,1.45 l 0.6,0.15 M -6.9,6.3 -6.65,4.55 q 0.75,-2.3 3,-2.4 Q -2,2.6 -1.2,3.4 L -1.5,3.6 -3.1,4.5 -5.55,5.55 -6.9,6.3"
         fill="#151515"
         fill-rule="evenodd"
         stroke="none"
         id="path4" />
    </g>
    <g
       id="sprite1"
       transform="translate(17.4,15.85)">
      <use
         ffdec:characterId="31"
         height="57.200001"
         transform="matrix(0.5366,0,0,0.5366,-16.6582,-14.546)"
         width="70.75"
         xlink:href="#sprite2"
         id="use4" />
    </g>
    <g
       id="sprite2"
       transform="translate(-8.65,-10.35)">
      <use
         ffdec:characterId="30"
         height="57.200001"
         transform="translate(8.65,10.35)"
         width="70.75"
         xlink:href="#shape1"
         id="use5" />
    </g>
    <g
       id="shape1"
       transform="translate(-8.65,-10.35)">
      <path
         d="m 14.8,41.7 q 0.65,-1.75 2.65,-2.5 1.8,-0.8 3.7,-0.25 1.15,0.45 2.25,1.2 l 0.9,0.4 q 1.65,0.9 2.85,2.5 L 37.8,30.1 q 2.35,-2.8 3.75,-3.95 1.5,-1.15 4.25,-2.4 18.2,-8.85 27.65,-12.6 2.15,-0.8 3.25,-0.8 h 0.8 l 1.9,2.4 -0.2,0.8 q -0.2,1.1 -1.55,3 -5.85,8.25 -18.85,23.8 -1.85,2.35 -3.35,3.5 -1.4,1.15 -4.75,2.75 l -15.15,7.15 q 1.2,1.6 1.75,3.4 l 0.2,1 0.55,2.5 q 0.1,1.95 -1.1,3.55 -1.2,1.65 -3.05,1.9 l -1.3,0.05 q -1.65,0.2 -3.45,-0.65 -1.85,-0.9 -3,-2.6 L 25,60.95 23.8,62.1 q -2.6,2.85 -4.3,3.95 -2.85,1.8 -5.5,1.45 l -1.65,-0.5 -1.2,-0.7 -0.2,-0.2 q -1,-0.85 -1.6,-1.9 L 9.25,64 9.15,63.8 8.75,62.4 q -0.2,-0.8 -0.05,-1.7 0.25,-2.65 2.7,-5.05 1.5,-1.3 4.9,-3.15 L 17.7,51.55 16.05,50 q -1.35,-1.5 -1.8,-3.6 -0.4,-1.85 0.25,-3.45 l 0.3,-1.25"
         fill="#000000"
         fill-opacity="0.372549"
         fill-rule="evenodd"
         stroke="none"
         id="path5" />
    </g>
  </defs>
</svg>
