<?xml version="1.0" encoding="UTF-8" standalone="no"?>
<svg
   ffdec:objectType="frame"
   height="54.760227"
   width="43.97411"
   version="1.1"
   id="svg5"
   xmlns:xlink="http://www.w3.org/1999/xlink"
   xmlns="http://www.w3.org/2000/svg"
   xmlns:svg="http://www.w3.org/2000/svg"
   xmlns:ffdec="https://www.free-decompiler.com/flash">
  <g
     transform="translate(23.419565,18.95)"
     id="g1">
    <use
       ffdec:characterId="17"
       height="119.15"
       id="rarity"
       transform="translate(-58.5,-60.65)"
       width="119.15"
       xlink:href="#sprite0" />
    <use
       ffdec:characterId="484"
       height="54.75"
       transform="translate(-23.4,-18.95)"
       width="43.950001"
       xlink:href="#shape0"
       id="use1" />
  </g>
  <defs
     id="defs5">
    <g
       id="shape0"
       transform="translate(23,18.15)">
      <path
         d="m -1.2,-18.15 q 3.85,0.5 6.25,3.8 l 1.5,1.9 q 3.3,-1.1 5.25,1.25 0.45,0.5 0.4,1.2 l 0.5,1.25 0.45,2.35 0.1,1.05 q 7.55,1.75 7.7,8.8 Q 21,4.8 20.5,6.2 18.55,11.7 15.6,16.6 l -1.05,0.75 -2.45,0.6 q 0.35,3.95 -1,7.55 -0.5,1.35 -1.7,2.1 -2.5,0.5 -4.5,-0.8 -2.05,-2.55 -2.1,-5.85 -2.6,0.95 -5.15,2.1 l -0.1,0.05 0.05,0.3 -0.15,0.6 -0.45,0.9 0.05,0.2 v 0.45 l 0.05,0.4 q -0.5,2.25 -2.2,3.7 l -1.05,0.95 q -2.45,0.65 -4.45,-0.55 v 1 q 0,0.6 -0.4,1.05 0,1.7 -1.05,3.1 l -0.8,1 q -7.05,1.9 -8.25,-5 -1.05,-6 0.25,-12.05 l 0.35,-1.75 q -1.25,-1.25 -2.05,-2.85 -0.4,-0.85 -0.45,-1.95 -0.15,-3.05 0.85,-5.8 -0.35,-7.4 2.95,-13.75 0.6,-1.1 1.65,-1.9 7.75,-5.65 16.35,-9.3 m 8,16.7 Q 6.25,0.5 5,2.45 L 4.45,3.25 6.1,3.35 Q 9.45,2.5 12,0.35 L 11.7,-0.1 11.35,-0.65 11.15,-1 10.6,-2.35 Q 9.7,-5 8.95,-7.75 l -1.9,0.55 q 0.3,1.75 0.2,3.45 L 6.8,-1.45 M 0.3,1 0.8,1.15 1.2,1.65 1.35,1.6 H 1.4 L 2.3,1.3 Q 3.9,-2.5 3.1,-6.65 L 2.7,-8.4 Q 1.95,-9 1.35,-9.9 0.4,-11.3 -0.9,-11.9 l -1.25,0.65 -0.35,0.2 q -4.7,2.45 -8.95,5.8 l -3.2,2.25 -0.15,0.05 -0.05,0.25 q -0.75,2.5 -0.75,5.15 0,3.15 -0.7,6.2 l -0.15,0.65 -0.1,0.2 -0.1,1.1 -0.1,0.85 -0.05,0.65 q 4.55,2.85 9.85,4.2 l 2.25,0.55 q 6.85,-2.8 14.05,-4.8 L 11.25,11.6 12.65,9 13.8,6.45 14.05,6 Q 14,5.3 14.35,4.7 L 14.85,3.65 15.05,3 14.1,2.4 Q 12.6,3.95 10.5,5 L 8.9,5.85 7.65,5.95 2.05,5.4 2,6.05 q -1.55,5.9 -7.4,6.7 -3.2,0.5 -5.55,-1.7 l -0.65,-0.7 q -3.2,-3.6 -0.8,-8.5 l 1.05,-1.2 0.35,-0.2 q 0.55,0.05 0.6,0.55 l 0.05,0.45 -0.15,0.4 -0.15,0.65 0.3,2.35 0.1,0.45 0.2,0.65 0.1,0.1 0.5,0.55 0.3,0.4 1.65,0.8 0.1,0.05 0.85,0.3 1.65,0.3 q 2.45,-1.3 3.1,-3.9 l 0.1,-0.4 -0.05,-0.1 q -0.3,-0.7 -0.2,-1.4 L -1.75,1.8 -1.6,1.6 -1.2,1.15 -0.2,0.8 0.3,1 m -18,21.9 -0.25,0.5 0.15,1.65 0.6,4.05 0.2,2.45 0.95,1.05 0.5,0.35 0.2,0.05 0.5,-0.05 q 0.95,-1.45 1.05,-3.2 0.05,-0.8 0.45,-1.5 V 26.5 l 0.35,-1.05 0.6,-0.35 0.55,-0.2 0.55,0.15 q 0.9,0.9 1.1,2.2 l 0.5,0.4 3,-0.05 q 1.2,-1.85 1.85,-3.95 -1.6,0.05 -3.2,-0.6 -3.75,-1.6 -7.65,-2.85 l -1.35,-0.5 -0.05,0.9 q -0.1,1.15 -0.6,2.3 M 5.85,22.1 q -0.1,0.85 0.2,1.7 l 0.4,0.45 0.3,0.4 q 0.85,0.7 1.65,0 L 9.05,23.4 Q 9.1,23.05 9.3,22.75 L 9.8,18.6 q -2,0.55 -3.9,1.25 L 5.85,22.1"
         fill="#000000"
         fill-rule="evenodd"
         stroke="none"
         id="path1" />
      <path
         d="M 11.7,-0.1 10.45,1.35 Q 10.15,1.65 9.6,1.6 8.3,1.5 7.75,0.85 7.2,0.2 7.25,-0.95 l -0.45,-0.5 0.45,-2.3 q 0.1,-1.7 -0.2,-3.45 l 1.9,-0.55 Q 9.7,-5 10.6,-2.35 l 0.55,1.35 0.2,0.35 0.35,0.55 M -2.15,-11.25 q 3.3,0.25 4.45,3.45 0.45,1.25 0.15,2.65 -0.5,2.45 -1.4,4.55 L 0.3,1 -0.2,0.8 l -1,0.35 -0.4,0.45 -0.15,0.2 -0.2,0.85 q -0.1,0.7 0.2,1.4 -2,2.4 -4.8,4.1 L -7.4,7.85 -7.5,7.8 -9.15,7 l -0.3,-0.4 -0.5,-0.55 -0.1,-0.1 -0.2,-0.65 -0.1,-0.45 -0.3,-2.35 0.15,-0.65 0.15,-0.4 L -10.4,1 Q -10.45,0.5 -11,0.45 l -0.35,0.2 -1.05,1.2 q -2.4,4.9 0.8,8.5 -3.3,0.95 -4.7,-1.7 0.7,-3.05 0.7,-6.2 0,-2.65 0.75,-5.15 l 0.2,-0.3 3.2,-2.25 q 4.25,-3.35 8.95,-5.8 l 0.35,-0.2"
         fill="#dbdbdb"
         fill-rule="evenodd"
         stroke="none"
         id="path2" />
      <path
         d="m 6.8,-1.45 0.45,0.5 Q 7.2,0.2 7.75,0.85 8.3,1.5 9.6,1.6 10.15,1.65 10.45,1.35 L 11.7,-0.1 12,0.35 Q 9.45,2.5 6.1,3.35 L 4.45,3.25 5,2.45 Q 6.25,0.5 6.8,-1.45 M 0.3,1 1.05,-0.6 q 0.9,-2.1 1.4,-4.55 0.3,-1.4 -0.15,-2.65 -1.15,-3.2 -4.45,-3.45 l 1.25,-0.65 q 1.3,0.6 2.25,2 0.6,0.9 1.35,1.5 l 0.4,1.75 Q 3.9,-2.5 2.3,1.3 L 1.4,1.6 H 1.35 L 1.2,1.65 0.8,1.15 0.3,1 m -16.6,7.65 q 1.4,2.65 4.7,1.7 l 0.65,0.7 q 2.35,2.2 5.55,1.7 5.85,-0.8 7.4,-6.7 L 2.05,5.4 7.65,5.95 8.9,5.85 10.5,5 Q 12.6,3.95 14.1,2.4 L 15.05,3 14.85,3.65 14.35,4.7 Q 14,5.3 14.05,6 L 13.8,6.45 12.65,9 l -1.4,2.6 -1.9,0.45 q -7.2,2 -14.05,4.8 L -6.95,16.3 q -5.3,-1.35 -9.85,-4.2 l 0.05,-0.65 0.1,-0.85 0.1,-1.1 0.1,-0.2 0.15,-0.65 m 9.75,-0.5 q 2.8,-1.7 4.8,-4.1 l 0.05,0.1 -0.1,0.4 q -0.65,2.6 -3.1,3.9 l -1.65,-0.3"
         fill="#b4b4b4"
         fill-rule="evenodd"
         stroke="none"
         id="path3" />
      <path
         d="m -17.8,25.05 0.1,-1.45 v -0.7 q 0.5,-1.15 0.6,-2.3 l 0.05,-0.9 1.35,0.5 q 3.9,1.25 7.65,2.85 1.6,0.65 3.2,0.6 -0.65,2.1 -1.85,3.95 l -3,0.05 -0.5,-0.4 q -0.2,-1.3 -1.1,-2.2 l -0.55,-0.15 -0.55,0.2 -0.6,0.35 -0.35,1.05 v 1.75 q -0.4,0.7 -0.45,1.5 -0.1,1.75 -1.05,3.2 l -0.5,0.05 -0.2,-0.05 -0.5,-0.35 -0.95,-1.05 -0.2,-2.45 -0.6,-4.05 M 5.85,22.1 5.9,19.85 Q 7.8,19.15 9.8,18.6 L 9.3,22.75 Q 9.1,23.05 9.05,23.4 L 8.4,24.65 q -0.8,0.7 -1.65,0 l -0.3,-0.4 -0.4,-0.45 q -0.3,-0.85 -0.2,-1.7"
         fill="#bbdadc"
         fill-rule="evenodd"
         stroke="none"
         id="path4" />
    </g>
    <g
       id="sprite1"
       transform="translate(17.4,15.85)">
      <use
         ffdec:characterId="31"
         height="57.200001"
         transform="matrix(0.5366,0,0,0.5366,-16.6582,-14.546)"
         width="70.75"
         xlink:href="#sprite2"
         id="use4" />
    </g>
    <g
       id="sprite2"
       transform="translate(-8.65,-10.35)">
      <use
         ffdec:characterId="30"
         height="57.200001"
         transform="translate(8.65,10.35)"
         width="70.75"
         xlink:href="#shape1"
         id="use5" />
    </g>
    <g
       id="shape1"
       transform="translate(-8.65,-10.35)">
      <path
         d="m 14.8,41.7 q 0.65,-1.75 2.65,-2.5 1.8,-0.8 3.7,-0.25 1.15,0.45 2.25,1.2 l 0.9,0.4 q 1.65,0.9 2.85,2.5 L 37.8,30.1 q 2.35,-2.8 3.75,-3.95 1.5,-1.15 4.25,-2.4 18.2,-8.85 27.65,-12.6 2.15,-0.8 3.25,-0.8 h 0.8 l 1.9,2.4 -0.2,0.8 q -0.2,1.1 -1.55,3 -5.85,8.25 -18.85,23.8 -1.85,2.35 -3.35,3.5 -1.4,1.15 -4.75,2.75 l -15.15,7.15 q 1.2,1.6 1.75,3.4 l 0.2,1 0.55,2.5 q 0.1,1.95 -1.1,3.55 -1.2,1.65 -3.05,1.9 l -1.3,0.05 q -1.65,0.2 -3.45,-0.65 -1.85,-0.9 -3,-2.6 L 25,60.95 23.8,62.1 q -2.6,2.85 -4.3,3.95 -2.85,1.8 -5.5,1.45 l -1.65,-0.5 -1.2,-0.7 -0.2,-0.2 q -1,-0.85 -1.6,-1.9 L 9.25,64 9.15,63.8 8.75,62.4 q -0.2,-0.8 -0.05,-1.7 0.25,-2.65 2.7,-5.05 1.5,-1.3 4.9,-3.15 L 17.7,51.55 16.05,50 q -1.35,-1.5 -1.8,-3.6 -0.4,-1.85 0.25,-3.45 l 0.3,-1.25"
         fill="#000000"
         fill-opacity="0.372549"
         fill-rule="evenodd"
         stroke="none"
         id="path5" />
    </g>
  </defs>
</svg>
