<?xml version="1.0" encoding="UTF-8" standalone="no"?>
<svg
   ffdec:objectType="frame"
   height="77.21859"
   width="96.74511"
   version="1.1"
   id="svg4"
   sodipodi:docname="ITEM Dry Bone Necklace.svg"
   xmlns:inkscape="http://www.inkscape.org/namespaces/inkscape"
   xmlns:sodipodi="http://sodipodi.sourceforge.net/DTD/sodipodi-0.dtd"
   xmlns:xlink="http://www.w3.org/1999/xlink"
   xmlns="http://www.w3.org/2000/svg"
   xmlns:svg="http://www.w3.org/2000/svg"
   xmlns:ffdec="https://www.free-decompiler.com/flash">
  <sodipodi:namedview
     id="namedview4"
     pagecolor="#ffffff"
     bordercolor="#000000"
     borderopacity="0.25"
     inkscape:showpageshadow="2"
     inkscape:pageopacity="0.0"
     inkscape:pagecheckerboard="0"
     inkscape:deskcolor="#d1d1d1"
     fit-margin-top="5"
     fit-margin-left="5"
     fit-margin-right="5"
     fit-margin-bottom="5" />
  <g
     transform="translate(48.579661,38.61194)"
     id="g1">
    <use
       ffdec:characterId="17"
       height="119.15"
       id="rarity"
       transform="translate(-58.5,-60.65)"
       width="119.15"
       xlink:href="#sprite0" />
    <use
       ffdec:characterId="784"
       height="77.199997"
       transform="translate(-48.6,-38.6)"
       width="96.75"
       xlink:href="#shape0"
       id="use1" />
  </g>
  <defs
     id="defs4">
    <g
       id="shape0"
       transform="translate(49.15,39.35)">
      <path
         d="m 30.9,-28.05 -0.25,-0.1 q -1.05,-0.55 -1.1,-1.8 v -0.85 l -0.05,-0.25 -0.15,-0.4 -0.2,-0.9 -0.15,-0.6 -0.2,-0.25 -0.2,-0.2 -0.1,-0.2 -0.15,-0.45 -0.1,-0.1 -0.7,-0.1 -1.7,1.5 q -1.05,1.15 -1.6,2.55 v 0.7 l 0.55,2.2 q 1.95,1.4 1.3,3.45 l -0.85,1.6 q -0.55,0.75 -1.35,1.05 l -1.05,1.05 -1.8,1.85 q -1.75,1.5 -3,3.45 l -1.9,1.85 -0.95,0.9 -1.1,1 -2.8,2.4 -0.15,0.1 -1.4,1.15 2,1.5 0.8,-0.95 q 10.05,-7.55 18.85,-16.2 0.75,-0.7 1.75,-0.95 4.4,-1.15 7.55,-4.05 v -0.2 -0.45 -0.85 -0.65 l -0.2,-0.45 -0.2,-0.65 -0.05,-0.15 -0.1,-0.3 -0.4,-0.75 -0.15,-0.15 -0.05,-0.05 H 39.5 l -1.5,0.35 -2.1,1.6 q -0.7,1.8 -1.7,2.6 l -3.3,0.15 M 3.35,10.9 q -1.5,-0.05 -2.9,-0.65 -2.5,3.25 -7.25,3.25 -3.5,0.05 -3.5,-3.25 -0.05,-4.7 3.9,-6.85 L -6.6,3.05 q -6.15,-0.8 -12.5,0.8 l -5.4,0.2 q -8.25,-1.45 -15.1,-6.3 -1.75,-1.25 -2.95,-3 -2.85,-4.1 -0.85,-6.8 -3.6,-1.45 -5.2,-4.8 -1.25,-2.6 0.45,-5.35 2.3,-3.8 6.6,-5.65 -2.15,-3.85 0.75,-7.3 2.25,-2.65 5.65,-3.25 l 2.7,0.05 q 4.95,1.2 6.15,5.95 0.4,1.25 -0.25,2.55 12.25,7.55 24.75,14.8 L 7.3,-9.2 7.45,-9.35 9.2,-11.4 q 2,-2.55 4.35,-4.9 l 7.2,-7.25 q -1.25,-4.05 -0.3,-8.25 1.35,-6.1 7.3,-7.55 3.55,-0.2 4.9,2.95 0.35,0.9 0.85,1.7 5.1,-4.75 9.5,-0.2 1,1.05 1.4,2.5 2,7.9 -5.95,10.4 -1.65,0.5 -3.2,1.35 -4.35,2.4 -7.95,6.25 l -3.65,3.7 q 4.85,-3.35 10.55,-5.25 -0.15,-1.65 0.8,-3 1.95,-2.65 5.05,-3.2 8.5,0.65 7.45,8.95 -0.95,7.3 -8.45,8.85 l -7.15,0.9 -2.5,2.05 Q 28,0.05 27.25,1.95 27.25,9.8 19.35,9.8 17.1,9.8 15.6,8.05 L 14.7,6.65 Q 11.85,7.4 9.1,5.55 9.3,11 3.35,10.9 m -39.6,-21.1 -1.55,0.3 q -0.55,0.15 -0.95,0.6 9.85,11 23.95,7.25 l 7.6,-0.2 q 5.6,1.3 8.15,6.65 L 1.8,5.5 q 1,0.95 2.45,0.75 L 4.5,6.05 4.8,5.8 4.95,5.6 4.9,5.4 4.95,4.45 5,3.85 5.1,3.35 4.95,2.3 4.2,-0.3 Q 3,-3.8 0.2,-5.95 l -1.4,-0.9 -3.15,-0.95 -2.05,0.4 q -8.6,1.55 -17.3,0.95 -3.25,-0.2 -5.9,-1.95 -3.25,-2.2 -6.65,-1.8 M 8.1,-3.75 q 0.75,2.05 1,4.15 1.25,0.15 2.7,1.5 0.65,0.6 1.35,0.85 L 15.05,2.8 15.3,2.35 V 2.2 L 15.25,1.95 15.3,1.7 15.35,1.5 15.5,1.3 15.3,1 14.35,-0.55 14.2,-0.8 Q 12.55,-1.95 10.65,-2.6 L 10.1,-2.8 9.6,-3.25 9.35,-3.5 7.95,-4.25 8.1,-3.75 m 7.85,0.4 0.35,0.4 0.4,0.35 q 0.4,-1.45 1.3,-2.75 l -1.95,1.7 -0.25,0.2 0.15,0.1 m 26.5,-14 -0.05,-0.05 -0.35,-0.2 -0.5,-0.2 -0.35,-0.15 -0.65,0.05 -0.3,0.2 q -0.4,0.25 -0.8,0.4 l -0.55,0.35 -0.25,0.3 v 0.05 q -0.4,5.35 -6.3,6.65 -6.5,1.4 -10.1,6.7 -1.7,2.45 -3.1,5.15 L 19.05,2.1 18.6,3.05 18.55,3.1 18,4.95 17.75,5.15 19,5.95 20.05,6.35 20.6,6.25 21.8,5.85 22.45,5.5 22.6,5.3 22.7,5.1 23.05,4.65 23.2,4.45 q 0.15,-3.6 1.7,-6.35 1.95,-3.55 6.15,-5.6 1.85,-0.9 3.95,-0.9 l 1.35,-0.05 q 6.85,-0.65 7.1,-7.45 l -0.1,-0.2 -0.3,-0.4 -0.3,-0.45 -0.3,-0.4 M 34.9,3.2 Q 42,3 41.7,9.45 q -0.05,1.65 -0.9,3.2 5.4,8.4 -1.55,15.75 -4.45,4.7 -10.85,6.25 -7.2,1.8 -14.5,0.2 -3.3,-0.7 -6.2,-2.45 -1.6,-0.95 -2.3,-2.55 -1.15,-2.65 1.3,-4.2 5.2,-3.35 11.5,-1.6 7.75,2.2 12.75,-3.2 0.55,-0.65 0.7,-1.45 -1.85,-3.6 -4.9,-6.75 -0.7,-0.7 -0.45,-1.85 1.35,-6.75 8.6,-7.6 m 1.45,10.55 Q 35.9,12.2 36.5,10.5 l 0.4,-0.65 0.4,-0.8 0.2,-0.9 -0.45,-0.3 -1.7,-0.2 Q 33,8 31.4,9.55 q -0.6,0.55 -0.9,1.3 0.3,0.75 0.95,1.25 1.15,0.95 2.4,1.75 l 0.5,0.75 q 3.7,5.65 -1.8,10.4 -5.25,4.55 -12.4,3.45 Q 14.7,27.6 9.8,28.9 q 10,4.55 21,0.25 3.25,-1.3 5.65,-3.95 1.45,-1.6 2.4,-3.55 v -0.2 L 38.9,21 l 0.05,-0.2 0.2,-0.4 Q 39.1,17.75 37.4,15.7 36.65,14.75 36.35,13.75 m -73.2,-38.15 -0.35,0.1 q -3.05,0.8 -5.35,3 l -1.1,0.95 -0.05,0.15 -0.05,0.2 -0.1,0.25 -0.05,0.2 -0.1,0.15 -0.05,0.5 0.6,0.85 q 2.1,1.6 4.7,1.85 3.5,-4.05 8.55,-3.55 4.55,0.5 8.35,2.75 l 1.1,0.65 q 0.95,0.45 2,0.8 4.3,1.3 7.9,3.75 l 2,-0.25 1.85,-0.1 h 0.7 l -10.15,-5.65 -1.35,-0.75 q -3.3,-1.75 -6.45,-3.75 -4,-2.6 -7.7,-5.65 -0.65,-0.55 -0.45,-1.35 l 1.25,-2.55 V -32 l -0.1,-0.05 -1,-0.8 -0.15,-0.15 -0.05,-0.1 -1.9,-0.15 -0.8,0.15 -0.25,0.15 -0.5,0.55 -0.55,0.45 -0.6,0.7 q 1.95,2.7 1.2,5.65 -0.2,0.9 -1,1.2 m 30.8,31 -0.65,1.05 V 7.85 8.1 8.3 L -6.8,8.5 -7,8.95 v 0.4 l 0.2,0.2 0.6,0.4 0.85,-0.1 L -2.85,8 -5.1,5.5 -6.05,6.6 M -18,6.6 q 4.3,3.5 0,7.65 -1.75,1.7 -3.95,2.9 -1.75,1.35 -3.3,3 l -1.55,2.1 q 1.2,5.85 7.75,4.65 l 9.3,-0.35 q 5.15,0.65 3.4,5.05 -1.25,3 -4.45,4.2 -13.55,5.05 -25.95,-2.3 -2.75,-1.55 -4.45,-4.35 -0.95,-1.55 -1.55,-3.4 0.35,-3.9 1.8,-7.75 0.95,-2.4 3.3,-3.45 l 0.9,-0.85 1.95,-0.85 Q -34.7,4 -25.6,5 -23.95,5.1 -22.35,5.75 -20,5.7 -18,6.6 m -11.9,3.9 h -0.05 l -0.1,0.15 0.4,1.6 q 0.15,1.9 -1.15,3.45 -1.15,1.3 -2.8,2 -1.5,0.65 -2.75,1.65 -1.6,2.95 -1.3,5.45 0.4,3.4 4.65,5.8 7.8,4.35 16.6,2.4 3.05,-0.7 5.75,-2.15 l -13.4,0.55 q -3.55,-0.3 -5.5,-3.15 -3.35,-5.05 -1.05,-9.15 1.1,-2 3.6,-3.75 L -24.95,14 q 1.7,-1.1 3.55,-2.05 l 0.3,-0.35 0.55,-0.55 0.25,-0.35 0.25,-0.3 -0.5,-0.45 q -0.55,-0.3 -1.1,-0.45 l -2.8,0.1 -2.2,-0.1 -1.55,-0.25 -0.75,0.4 -0.6,0.55 -0.35,0.3"
         fill="#000000"
         fill-rule="evenodd"
         stroke="none"
         id="path1" />
      <path
         d="m 15.2,-12.1 0.95,-0.9 1.9,-1.85 q 1.25,-1.95 3,-3.45 l 1.8,-1.85 1.05,-1.05 q 0.8,-0.3 1.35,-1.05 l 0.85,-1.6 q 0.65,-2.05 -1.3,-3.45 l -0.55,-2.2 v -0.7 q 0.55,-1.4 1.6,-2.55 l 1.7,-1.5 0.7,0.1 0.1,0.1 0.15,0.45 0.1,0.2 0.2,0.2 0.2,0.25 0.15,0.6 0.2,0.9 0.15,0.4 0.05,0.25 v 0.85 q 0.05,1.25 1.1,1.8 l 0.25,0.1 -1.9,2.7 q -3.5,4.5 -8.2,8.25 l -3.05,2.8 -1.95,1.8 -0.6,0.4 m 19,-16.1 q 1,-0.8 1.7,-2.6 l 2.1,-1.6 1.5,-0.35 0.1,0.05 0.15,0.15 0.5,1.05 0.05,0.15 q 0.5,2 -1.6,3.65 -1.25,1 -2.8,0.4 l -0.2,0.1 -0.65,0.05 -0.25,-0.05 q -0.55,-0.1 -0.55,-0.65 L 34.2,-28.2 m -24.45,20.75 1.4,-1.15 -0.6,0.7 q -0.4,0.4 -0.8,0.45 m 1.55,-1.25 2.8,-2.4 -1.7,1.8 q -0.45,0.45 -1.1,0.6 M 4.95,2.3 4.85,2.55 4.65,2.95 4.45,3.05 4.15,3.1 3.65,2.95 3.4,2.7 3.3,2.45 3.2,2.2 1.9,0.9 0.8,-0.3 0.65,-0.55 0.6,-0.75 0.45,-1.3 q -5.25,-3.2 -11.65,-2.2 -4.25,0.7 -8.35,-0.15 l -4.8,-0.6 q -7.3,-0.2 -11.85,-5.55 l -0.05,-0.4 q 3.4,-0.4 6.65,1.8 2.65,1.75 5.9,1.95 8.7,0.6 17.3,-0.95 l 4.55,0.75 q 1.05,0.2 2.05,0.7 2.8,2.15 4,5.65 l 0.75,2.6 m 33.95,-19.25 0.55,-0.35 q 0.4,-0.15 0.8,-0.4 l 0.3,-0.2 0.65,-0.05 0.35,0.15 0.5,0.2 0.35,0.2 0.05,0.05 0.3,0.9 0.05,1.25 q -2.65,4.05 -6.45,6.75 L 35,-8.4 q -2.1,0 -3.95,0.9 -4.2,2.05 -6.15,5.6 -2.3,2.25 -4.35,4.8 l -0.4,0.05 -0.5,-0.05 -0.6,-0.8 0.1,-0.2 q 1.4,-2.7 3.1,-5.15 3.6,-5.3 10.1,-6.7 5.9,-1.3 6.3,-6.65 l 0.25,-0.35 M 34.35,14.6 33.85,13.85 Q 32.6,13.05 31.45,12.1 30.8,11.6 30.5,10.85 30.8,10.1 31.4,9.55 33,8 35.35,7.65 l 1.7,0.2 0.45,0.3 -0.2,0.9 -0.4,0.8 -0.4,0.65 q -0.6,1.7 -0.15,3.25 l -0.85,0.5 -1.15,0.35 m -43.2,-26.65 q -5.5,-1.8 -10.85,-4.35 l -3.4,-1.6 -12.6,-6.05 -1.15,-0.35 q 0.8,-0.3 1,-1.2 0.75,-2.95 -1.2,-5.65 l 0.6,-0.7 0.55,-0.45 0.5,-0.55 0.25,-0.15 0.8,-0.15 1.9,0.15 0.05,0.1 0.15,0.15 1,0.8 0.1,0.05 v 0.15 l -1.25,2.55 q -0.2,0.8 0.45,1.35 3.7,3.05 7.7,5.65 3.15,2 6.45,3.75 l 1.35,0.75 10.15,5.65 H -7 l -1.85,0.1 m -20.8,24.3 0.85,-0.7 -1.1,-1.05 0.35,-0.3 0.6,-0.55 0.75,-0.4 1.55,0.25 2.2,0.1 q 0.7,2.35 -0.5,4.4 L -27,15.35 q -2.5,1.75 -3.6,3.75 l -1.45,1.3 q -2.25,2.1 -5,3.55 l -0.6,0.85 q -0.3,-2.5 1.3,-5.45 1.25,-1 2.75,-1.65 1.65,-0.7 2.8,-2 1.3,-1.55 1.15,-3.45"
         fill="#ffffff"
         fill-rule="evenodd"
         stroke="none"
         id="path2" />
      <path
         d="m 15.2,-12.1 0.6,-0.4 1.95,-1.8 3.05,-2.8 q 4.7,-3.75 8.2,-8.25 l 1.9,-2.7 3.3,-0.15 0.05,0.35 q 0,0.55 0.55,0.65 l 0.25,0.05 0.65,-0.05 0.2,-0.1 q 1.55,0.6 2.8,-0.4 2.1,-1.65 1.6,-3.65 l 0.2,0.65 0.2,0.45 v 0.65 0.85 0.45 0.2 q -3.15,2.9 -7.55,4.05 -1,0.25 -1.75,0.95 -8.8,8.65 -18.85,16.2 l -0.8,0.95 -2,-1.5 q 0.4,-0.05 0.8,-0.45 l 0.6,-0.7 0.15,-0.1 q 0.65,-0.15 1.1,-0.6 l 1.7,-1.8 1.1,-1 m -51.45,1.9 0.05,0.4 q 4.55,5.35 11.85,5.55 l 4.8,0.6 q 4.1,0.85 8.35,0.15 6.4,-1 11.65,2.2 L 0.6,-0.75 0.65,-0.55 0.8,-0.3 1.9,0.9 3.2,2.2 3.3,2.45 3.4,2.7 3.65,2.95 4.15,3.1 4.45,3.05 4.65,2.95 4.85,2.55 4.95,2.3 5.1,3.35 5,3.85 4.95,4.45 4.9,5.4 4.95,5.6 4.8,5.8 4.5,6.05 4.25,6.25 Q 2.8,6.45 1.8,5.5 L 0.95,4.4 Q -1.6,-0.95 -7.2,-2.25 l -7.6,0.2 q -14.1,3.75 -23.95,-7.25 0.4,-0.45 0.95,-0.6 l 1.55,-0.3 m 44.35,6.45 -0.15,-0.5 1.4,0.75 0.25,0.25 0.5,0.45 0.55,0.2 q 1.9,0.65 3.55,1.8 L 14.35,-0.55 15.3,1 15.5,1.3 15.35,1.5 15.3,1.7 15.25,1.95 15.3,2.2 V 2.35 L 15.05,2.8 13.15,2.75 Q 12.45,2.5 11.8,1.9 10.35,0.55 9.1,0.4 8.85,-1.7 8.1,-3.75 m 10.95,5.85 0.6,0.8 0.5,0.05 0.4,-0.05 Q 22.6,0.35 24.9,-1.9 23.35,0.85 23.2,4.45 L 23.05,4.65 22.7,5.1 22.6,5.3 22.45,5.5 21.8,5.85 20.6,6.25 20.05,6.35 19,5.95 17.75,5.15 18,4.95 18.55,3.1 18.6,3.05 19.05,2.1 m 17.3,-10.55 q 3.8,-2.7 6.45,-6.75 l -0.05,-1.25 -0.3,-0.9 0.3,0.4 0.3,0.45 0.3,0.4 0.1,0.2 q -0.25,6.8 -7.1,7.45 m -2,23.05 1.15,-0.35 0.85,-0.5 q 0.3,1 1.05,1.95 1.7,2.05 1.75,4.7 l -0.2,0.4 -0.05,0.2 -0.05,0.45 v 0.2 q -0.95,1.95 -2.4,3.55 -2.4,2.65 -5.65,3.95 -11,4.3 -21,-0.25 4.9,-1.3 10.35,-0.45 7.15,1.1 12.4,-3.45 5.5,-4.75 1.8,-10.4 m -43.2,-26.65 -2,0.25 q -3.6,-2.45 -7.9,-3.75 -1.05,-0.35 -2,-0.8 l -1.1,-0.65 q -3.8,-2.25 -8.35,-2.75 -5.05,-0.5 -8.55,3.55 -2.6,-0.25 -4.7,-1.85 l -0.6,-0.85 0.05,-0.5 0.1,-0.15 0.05,-0.2 0.1,-0.25 0.05,-0.2 0.05,-0.15 1.1,-0.95 q 2.3,-2.2 5.35,-3 l 0.35,-0.1 1.15,0.35 12.6,6.05 3.4,1.6 q 5.35,2.55 10.85,4.35 M -6.05,6.6 -5.1,5.5 -2.85,8 -5.35,9.85 -6.2,9.95 -6.8,9.55 -7,9.35 V 8.95 L -6.8,8.5 -6.7,8.3 V 8.1 7.85 7.65 L -6.05,6.6 M -30.6,19.1 q -2.3,4.1 1.05,9.15 1.95,2.85 5.5,3.15 l 13.4,-0.55 q -2.7,1.45 -5.75,2.15 -8.8,1.95 -16.6,-2.4 -4.25,-2.4 -4.65,-5.8 l 0.6,-0.85 q 2.75,-1.45 5,-3.55 l 1.45,-1.3"
         fill="#d6d6d6"
         fill-rule="evenodd"
         stroke="none"
         id="path3" />
    </g>
    <g
       id="sprite1"
       transform="translate(17.4,15.85)">
      <use
         ffdec:characterId="31"
         height="57.200001"
         transform="matrix(0.5366,0,0,0.5366,-16.6582,-14.546)"
         width="70.75"
         xlink:href="#sprite2"
         id="use3" />
    </g>
    <g
       id="sprite2"
       transform="translate(-8.65,-10.35)">
      <use
         ffdec:characterId="30"
         height="57.200001"
         transform="translate(8.65,10.35)"
         width="70.75"
         xlink:href="#shape1"
         id="use4" />
    </g>
    <g
       id="shape1"
       transform="translate(-8.65,-10.35)">
      <path
         d="m 14.8,41.7 q 0.65,-1.75 2.65,-2.5 1.8,-0.8 3.7,-0.25 1.15,0.45 2.25,1.2 l 0.9,0.4 q 1.65,0.9 2.85,2.5 L 37.8,30.1 q 2.35,-2.8 3.75,-3.95 1.5,-1.15 4.25,-2.4 18.2,-8.85 27.65,-12.6 2.15,-0.8 3.25,-0.8 h 0.8 l 1.9,2.4 -0.2,0.8 q -0.2,1.1 -1.55,3 -5.85,8.25 -18.85,23.8 -1.85,2.35 -3.35,3.5 -1.4,1.15 -4.75,2.75 l -15.15,7.15 q 1.2,1.6 1.75,3.4 l 0.2,1 0.55,2.5 q 0.1,1.95 -1.1,3.55 -1.2,1.65 -3.05,1.9 l -1.3,0.05 q -1.65,0.2 -3.45,-0.65 -1.85,-0.9 -3,-2.6 L 25,60.95 23.8,62.1 q -2.6,2.85 -4.3,3.95 -2.85,1.8 -5.5,1.45 l -1.65,-0.5 -1.2,-0.7 -0.2,-0.2 q -1,-0.85 -1.6,-1.9 L 9.25,64 9.15,63.8 8.75,62.4 q -0.2,-0.8 -0.05,-1.7 0.25,-2.65 2.7,-5.05 1.5,-1.3 4.9,-3.15 L 17.7,51.55 16.05,50 q -1.35,-1.5 -1.8,-3.6 -0.4,-1.85 0.25,-3.45 l 0.3,-1.25"
         fill="#000000"
         fill-opacity="0.372549"
         fill-rule="evenodd"
         stroke="none"
         id="path4" />
    </g>
  </defs>
</svg>
