<?xml version="1.0" encoding="UTF-8" standalone="no"?>
<svg
   ffdec:objectType="frame"
   height="49.753506"
   width="55.860691"
   version="1.1"
   id="svg4"
   xmlns:xlink="http://www.w3.org/1999/xlink"
   xmlns="http://www.w3.org/2000/svg"
   xmlns:svg="http://www.w3.org/2000/svg"
   xmlns:ffdec="https://www.free-decompiler.com/flash">
  <g
     transform="translate(28.740909,25.802239)"
     id="g1">
    <use
       ffdec:characterId="17"
       height="119.15"
       id="rarity"
       transform="translate(-58.5,-60.65)"
       width="119.15"
       xlink:href="#sprite0" />
    <use
       ffdec:characterId="427"
       height="49.75"
       transform="translate(-28.75,-25.8)"
       width="55.849998"
       xlink:href="#shape0"
       id="use1" />
  </g>
  <defs
     id="defs4">
    <g
       id="shape0"
       transform="translate(28.35,25)">
      <path
         d="m 20.7,0.1 0.05,-0.2 0.15,-0.7 0.3,-0.55 q 0.6,-1 0.75,-2.1 l 0.4,-1.25 v -0.25 -0.2 -0.2 -0.25 l -0.45,-1 -0.2,-1.35 -0.1,-1.3 -0.4,-0.85 -0.2,-0.6 q -0.2,-0.95 -0.8,-1.55 l -0.7,-0.55 -0.8,-0.65 Q 14,-13.4 9.4,-11.6 8.1,-11.05 7,-11.9 H 6.95 L 5.8,-12.75 Q 1.25,-16 -3.75,-18.55 -6.5,-19.6 -9.4,-18.6 q -7.3,2.15 -10.45,7.4 -1.15,1.9 -1.75,4.25 l -0.6,3.45 q -0.35,4.1 1,7.95 l 1.15,2.75 q 3.1,6.2 8.65,10.25 1.75,-9.5 11.9,-10.3 4.2,-0.35 6,3.5 1.15,2.5 0.8,5.35 4.25,-2.3 7.15,-6.9 1.2,-1.85 2.6,-3.55 l 1.5,-1.9 Q 18.65,3 19.1,2.55 l 0.75,-1 L 19.95,1.3 20.6,0.35 20.7,0.2 V 0.1 m -30.9,-24.85 q 8.6,-1.3 15.15,4.1 l 4.1,3.25 q 6.4,-3.4 12.85,-0.55 0.95,0.4 1.65,1.25 4.25,4.95 3.95,11.7 -0.25,5.7 -4.05,10.15 -4.6,5.45 -8.15,11.3 -4.15,6.75 -11.8,7.2 -1.1,0.05 -1.55,-1 Q 1,20.2 1.4,17.35 L 1.6,14.15 1.5,13.95 1.25,13.5 1,13.1 0.6,12.65 0.4,12.6 q -1.75,0.2 -3.15,1.25 l -1.95,1.4 q -1.4,4.25 -2.2,8.7 -0.1,0.65 -0.8,0.75 -4.9,0.45 -8.75,-3.05 -10.9,-9.85 -11.85,-24.25 -0.3,-4.65 1.6,-8.85 3.7,-8.4 12.3,-12 2.1,-0.85 4.2,-1.3 m 6.4,16.15 -2.05,-0.2 -0.5,0.05 -0.6,-0.2 -0.45,-0.35 -0.1,-0.2 v -0.25 -0.1 -0.3 l 0.3,-0.45 0.15,-0.2 0.15,-0.2 0.2,-0.25 q 1.75,-0.85 3.8,-0.9 l 1,-0.1 q 4.1,1.65 7.05,4.95 1.9,-2.05 4.95,-2.45 l 2.05,0.25 0.65,0.65 0.05,0.4 -0.05,0.2 -0.2,0.4 h -0.05 l -0.15,0.05 -0.3,0.1 -0.35,0.1 -0.75,0.65 -0.95,0.45 -0.45,0.4 -0.2,0.15 -0.6,0.2 -0.35,0.8 q 1.85,0.15 3.45,1 l 1.75,1.1 q 1.05,0.8 0.95,2.15 v 0.1 l -0.05,0.1 -0.1,0.2 -0.1,0.2 -0.1,0.2 L 14.2,0.15 13.95,0.25 13.6,0.3 13.1,0.2 12.9,0 12.7,-0.25 12.65,-0.45 V -0.6 L 12.6,-0.65 12.2,-0.7 5.9,-1.05 4.6,-0.9 2,-0.25 -0.35,0.6 -1.3,0.55 -1.6,0.3 -2,-0.25 l -0.25,-0.9 0.5,-1.1 q 0.9,-1.6 3,-2.1 -1.9,-2.3 -4.15,-4.15 l -0.9,-0.1"
         fill="#000000"
         fill-rule="evenodd"
         stroke="none"
         id="path1" />
      <path
         d="m 7,-11.9 q 1.1,0.85 2.4,0.3 4.6,-1.8 9.3,-1.85 l 0.8,0.65 0.7,0.55 q 0.6,0.6 0.8,1.55 l 0.2,0.6 0.4,0.85 0.1,1.3 0.2,1.35 0.45,1 v 0.25 0.2 0.2 0.25 l -0.4,1.25 q -0.15,1.1 -0.75,2.1 L 20.9,-0.8 20.75,-0.1 20.7,0.1 H 20.65 L 20.6,0.15 v 0.2 l -0.65,0.95 -0.1,0.25 -0.75,1 Q 18.65,3 18.55,3.65 l -1.5,1.9 q -1.4,1.7 -2.6,3.55 l -3.7,0.55 Q 7.5,9.8 4.9,7.9 1.1,5.2 -3.4,7.05 -12.25,10.8 -19.95,5.5 L -21.2,4.45 q -1.35,-3.85 -1,-7.95 l 0.6,-3.45 q 0.6,-2.35 1.75,-4.25 3.15,-5.25 10.45,-7.4 2.9,-1 5.65,0.05 5,2.55 9.55,5.8 l -0.05,0.25 1,0.7 0.25,-0.1 m 5.6,4.05 0.2,-0.4 0.05,-0.2 L 12.8,-8.85 12.15,-9.5 10.1,-9.75 Q 7.05,-9.35 5.15,-7.3 2.2,-10.6 -1.9,-12.25 l -1,0.1 q -2.05,0.05 -3.8,0.9 l -0.2,0.25 -0.15,0.2 -0.15,0.2 -0.3,0.45 v 0.3 0.1 0.25 l 0.1,0.2 0.45,0.35 0.6,0.2 0.5,-0.05 2.05,0.2 q 2.2,2.4 2.05,6.35 l -0.5,1.1 L -2,-0.25 -2.3,0.5 -2,0.65 -1.9,0.75 -1.65,0.8 -1.3,0.55 -0.35,0.6 2,-0.25 4.6,-0.9 l 1.3,-0.15 6.3,0.35 0.4,0.05 0.05,0.05 v 0.15 l 0.05,0.2 0.2,0.25 0.2,0.2 0.5,0.1 0.35,-0.05 0.25,-0.1 0.05,-0.05 0.1,-0.2 0.1,-0.2 0.1,-0.2 0.05,-0.1 v -0.1 q 0.1,-1.35 -0.95,-2.15 l -1.75,-1.1 q 0.25,-2.25 1.85,-4 l -0.85,0.05 -0.3,0.05 m 3.65,8.45 -0.2,0.05 0.1,0.05 0.1,-0.1 m -31.3,2.05 h 0.1 l -0.25,-0.1 0.15,0.1 m -0.55,-0.3 0.15,0.05 -0.95,-0.55 0.8,0.5"
         fill="#ffffff"
         fill-rule="evenodd"
         stroke="none"
         id="path2" />
      <path
         d="m -21.2,4.45 1.25,1.05 q 7.7,5.3 16.55,1.55 Q 1.1,5.2 4.9,7.9 7.5,9.8 10.75,9.65 L 14.45,9.1 Q 11.55,13.7 7.3,16 7.65,13.15 6.5,10.65 4.7,6.8 0.5,7.15 -9.65,7.95 -11.4,17.45 -16.95,13.4 -20.05,7.2 L -21.2,4.45 m 33.8,-12.3 0.3,-0.05 0.85,-0.05 q -1.6,1.75 -1.85,4 -1.6,-0.85 -3.45,-1 l 0.35,-0.8 0.6,-0.2 0.2,-0.15 0.45,-0.4 0.95,-0.45 0.75,-0.65 0.35,-0.1 0.3,-0.1 0.15,-0.05 h 0.05 m -14.35,5.6 Q -1.6,-6.2 -3.8,-8.6 l 0.9,0.1 q 2.25,1.85 4.15,4.15 -2.1,0.5 -3,2.1"
         fill="#dbdbdb"
         fill-rule="evenodd"
         stroke="none"
         id="path3" />
    </g>
    <g
       id="sprite1"
       transform="translate(17.4,15.85)">
      <use
         ffdec:characterId="31"
         height="57.200001"
         transform="matrix(0.5366,0,0,0.5366,-16.6582,-14.546)"
         width="70.75"
         xlink:href="#sprite2"
         id="use3" />
    </g>
    <g
       id="sprite2"
       transform="translate(-8.65,-10.35)">
      <use
         ffdec:characterId="30"
         height="57.200001"
         transform="translate(8.65,10.35)"
         width="70.75"
         xlink:href="#shape1"
         id="use4" />
    </g>
    <g
       id="shape1"
       transform="translate(-8.65,-10.35)">
      <path
         d="m 14.8,41.7 q 0.65,-1.75 2.65,-2.5 1.8,-0.8 3.7,-0.25 1.15,0.45 2.25,1.2 l 0.9,0.4 q 1.65,0.9 2.85,2.5 L 37.8,30.1 q 2.35,-2.8 3.75,-3.95 1.5,-1.15 4.25,-2.4 18.2,-8.85 27.65,-12.6 2.15,-0.8 3.25,-0.8 h 0.8 l 1.9,2.4 -0.2,0.8 q -0.2,1.1 -1.55,3 -5.85,8.25 -18.85,23.8 -1.85,2.35 -3.35,3.5 -1.4,1.15 -4.75,2.75 l -15.15,7.15 q 1.2,1.6 1.75,3.4 l 0.2,1 0.55,2.5 q 0.1,1.95 -1.1,3.55 -1.2,1.65 -3.05,1.9 l -1.3,0.05 q -1.65,0.2 -3.45,-0.65 -1.85,-0.9 -3,-2.6 L 25,60.95 23.8,62.1 q -2.6,2.85 -4.3,3.95 -2.85,1.8 -5.5,1.45 l -1.65,-0.5 -1.2,-0.7 -0.2,-0.2 q -1,-0.85 -1.6,-1.9 L 9.25,64 9.15,63.8 8.75,62.4 q -0.2,-0.8 -0.05,-1.7 0.25,-2.65 2.7,-5.05 1.5,-1.3 4.9,-3.15 L 17.7,51.55 16.05,50 q -1.35,-1.5 -1.8,-3.6 -0.4,-1.85 0.25,-3.45 l 0.3,-1.25"
         fill="#000000"
         fill-opacity="0.372549"
         fill-rule="evenodd"
         stroke="none"
         id="path4" />
    </g>
  </defs>
</svg>
