<?xml version="1.0" encoding="UTF-8" standalone="no"?>
<svg
   ffdec:objectType="frame"
   height="71.812729"
   width="80.477707"
   version="1.1"
   id="svg4"
   xmlns:xlink="http://www.w3.org/1999/xlink"
   xmlns="http://www.w3.org/2000/svg"
   xmlns:svg="http://www.w3.org/2000/svg"
   xmlns:ffdec="https://www.free-decompiler.com/flash">
  <g
     transform="translate(39.555128,38.15)"
     id="g1">
    <use
       ffdec:characterId="17"
       height="119.15"
       id="rarity"
       transform="translate(-58.5,-60.65)"
       width="119.15"
       xlink:href="#sprite0" />
    <use
       ffdec:characterId="185"
       height="71.900002"
       transform="translate(-39.55,-38.25)"
       width="80.449997"
       xlink:href="#shape0"
       id="use1" />
  </g>
  <defs
     id="defs4">
    <g
       id="shape0"
       transform="translate(39.25,40.75)">
      <path
         d="M 29.75,28.25 Q 21.9,26.3 14.55,22.9 L 9.7,20.65 Q 6.85,19.4 4.65,18.9 L 1.75,18.7 Q 0.7,18.85 -1,19.85 l -11.2,6.4 q -6.55,3.4 -11.9,4.65 -3.8,0.85 -5,-1.05 -0.5,-0.8 -0.4,-1.95 l 0.5,-2.05 7.4,-22.3 q -8.6,-5.25 -15.9,-12.45 -1.85,-1.85 -1.75,-3.2 0.2,-2.2 4.1,-3.2 7.65,-1.8 23.35,-3.2 l 9,-18.65 q 1.45,-3 3.1,-3.5 l 2.25,0.15 1.85,1.35 q 1.1,1.3 1.95,4.2 2.55,7.75 5.8,15.7 0.65,1.4 1.15,1.8 l 1.55,0.55 11.95,1.25 q 7.5,0.55 11.8,1.95 1.9,0.6 2.35,1.55 0.65,1.15 -0.25,2.6 l -1.9,1.9 Q 32.2,-2.3 26.05,3.6 25.45,4.1 25.35,4.55 25.25,4.9 25.6,5.9 l 7.55,17.6 q 1.4,3.25 -0.05,4.5 -0.95,0.8 -3.35,0.25 M -16.55,0.6 q 0.5,0.55 0.7,1.15 0.2,0.55 0.1,1.55 l -0.55,2.05 -5.65,16.25 -1.25,3.75 2.85,-1.15 q 8.2,-3.55 15.65,-8.3 l 2.55,-1.55 q 1.4,-0.8 2.6,-1.05 l 0.2,-0.05 5.3,0.3 0.6,0.15 q 3.35,0.95 10.45,4.5 3.75,1.9 6.6,3 l 3.95,1.2 -0.95,-2.45 Q 23.8,13.2 20.25,6.3 19.25,4.55 19.4,3.4 V 3.35 l 0.1,-0.3 q 0.3,-1 1.75,-2.25 l 12.05,-10.55 -2.8,-0.4 -3.55,-0.3 -12.65,-1.05 q -3.2,-0.2 -4.65,-1.25 l -0.1,-0.1 -0.3,-0.25 Q 8.2,-14.2 7.35,-16.65 L 1.05,-34.3 -6.8,-17.05 q -1.2,2.6 -2.4,3.4 l -0.1,0.05 -0.3,0.2 -2.85,0.55 -15.05,1.65 -3.95,0.65 3.55,3.15 q 4.25,3.5 9,6.25 l 2.35,1.75 m 25.8,-6.75 1.7,0.4 q 0.85,0.5 1.1,1.3 0.25,0.85 -0.05,1.75 -0.35,0.9 -1.15,1.3 L 9.1,-1.15 Q 8.15,-1.35 7.65,-2.05 7.1,-2.75 7.1,-3.7 q 0.05,-0.95 0.65,-1.6 0.5,-0.65 1.5,-0.85 m -14.45,6.9 0.45,-0.9 0.55,-0.35 2.1,-0.4 3.95,-0.4 3.25,0.25 q 0.75,0 1.15,0.35 0.5,0.4 0.5,1.65 v 2.1 L 6.65,4.1 6.3,5 6.15,5.7 5.65,6.6 4.3,7.95 2.95,8.65 1.7,8.75 q -2.65,0 -4.1,-1.15 L -3.5,6.4 -4.25,5.55 -5.15,4.1 -5.35,3.3 Q -5.5,2 -5.2,0.75 M 4.05,0.8 0.7,1 -2.7,1.45 Q -2.95,1.9 -2.75,2.55 L -2.4,3.2 -1,3.05 1.45,2.65 3.85,2.4 4.2,2.45 4.05,0.8 m -14.2,-6.6 2.5,-0.1 q 1.1,0.5 1.55,1.55 0.35,0.75 0.2,1.65 -0.2,0.85 -0.75,1.5 -0.6,0.65 -1.5,0.85 l -1.65,-0.1 q -0.8,-0.25 -1.35,-0.95 -0.5,-0.75 -0.6,-1.6 -0.05,-0.85 0.4,-1.65 l 1.2,-1.15"
         fill="#000000"
         fill-rule="evenodd"
         stroke="none"
         id="path1" />
      <path
         d="M 9.25,-13.1 8.6,-13.4 Q 7.4,-14.25 6.7,-15.45 L 5.3,-18.1 4.7,-19.9 4.15,-21.7 2.85,-23.8 Q 2.4,-24.6 1.9,-26.1 l -0.7,-1.9 -2.1,3.95 q -3.1,5.75 -6.55,10 -0.7,0.8 -1.2,0.9 -0.5,0.1 -0.9,-0.2 l -0.6,0.3 q -1.85,0.85 -4.6,1.75 -3.15,1.05 -9.55,2.9 l 1.35,1.15 q 2.3,1.85 4.45,5.1 l 1.6,1.95 q 0.25,0.4 0.35,0.8 l -2.35,-1.75 q -4.75,-2.75 -9,-6.25 l -3.55,-3.15 3.95,-0.65 15.05,-1.65 2.85,-0.55 0.3,-0.2 0.1,-0.05 q 1.2,-0.8 2.4,-3.4 l 7.85,-17.25 6.3,17.65 q 0.85,2.45 1.9,3.55 m -25,16.4 q 0.35,0.6 0.4,1.45 0.15,1.05 -0.4,3.6 l -0.8,3.15 -2.1,6.85 -0.65,2.05 7.85,-3.4 8.9,-3.7 q 1.3,-0.45 2.15,-0.35 0.5,0.1 0.85,0.35 -1.2,0.25 -2.6,1.05 L -4.7,15.9 q -7.45,4.75 -15.65,8.3 l -2.85,1.15 1.25,-3.75 5.65,-16.25 0.55,-2.05 m 21.7,10.25 q 0.4,-0.3 1.1,-0.45 2.05,-0.4 5.8,1.1 l 9.85,4.1 -1,-2.45 -0.9,-2.45 -1,-3.3 Q 18.85,6.95 18.9,5 18.9,4.1 19.3,3.55 L 19.4,3.4 q -0.15,1.15 0.85,2.9 3.55,6.9 6.35,13.65 L 27.55,22.4 23.6,21.2 Q 20.75,20.1 17,18.2 9.9,14.65 6.55,13.7 L 5.95,13.55 M 19.5,3.05 19.4,2.6 q -0.05,-0.75 0.5,-1.85 1.35,-2.6 5.6,-6.25 l 2.8,-2.5 -5.9,-0.6 -3.85,-0.75 -3.4,-0.75 q -3.05,-0.75 -4.2,-1.4 -1.05,-0.6 -1.3,-1.25 1.45,1.05 4.65,1.25 l 12.65,1.05 3.55,0.3 2.8,0.4 L 21.25,0.8 Q 19.8,2.05 19.5,3.05 M 4.05,0.8 4.2,2.45 3.85,2.4 1.45,2.65 -1,3.05 -2.4,3.2 -2.75,2.55 Q -2.95,1.9 -2.7,1.45 L 0.7,1 4.05,0.8"
         fill="#ffffff"
         fill-rule="evenodd"
         stroke="none"
         id="path2" />
      <path
         d="m -16.55,0.6 q -0.1,-0.4 -0.35,-0.8 l -1.6,-1.95 q -2.15,-3.25 -4.45,-5.1 L -24.3,-8.4 q 6.4,-1.85 9.55,-2.9 2.75,-0.9 4.6,-1.75 l 0.6,-0.3 q 0.4,0.3 0.9,0.2 0.5,-0.1 1.2,-0.9 3.45,-4.25 6.55,-10 l 2.1,-3.95 0.7,1.9 q 0.5,1.5 0.95,2.3 l 1.3,2.1 0.55,1.8 0.6,1.8 1.4,2.65 q 0.7,1.2 1.9,2.05 l 0.65,0.3 0.3,0.25 0.1,0.1 q 0.25,0.65 1.3,1.25 1.15,0.65 4.2,1.4 l 3.4,0.75 3.85,0.75 5.9,0.6 -2.8,2.5 q -4.25,3.65 -5.6,6.25 -0.55,1.1 -0.5,1.85 l 0.1,0.45 -0.1,0.3 V 3.4 L 19.3,3.55 Q 18.9,4.1 18.9,5 q -0.05,1.95 0.9,5.1 l 1,3.3 0.9,2.45 1,2.45 -9.85,-4.1 q -3.75,-1.5 -5.8,-1.1 -0.7,0.15 -1.1,0.45 l -5.3,-0.3 -0.2,0.05 Q 0.1,13.05 -0.4,12.95 -1.25,12.85 -2.55,13.3 l -8.9,3.7 -7.85,3.4 0.65,-2.05 2.1,-6.85 0.8,-3.15 q 0.55,-2.55 0.4,-3.6 -0.05,-0.85 -0.4,-1.45 0.1,-1 -0.1,-1.55 -0.2,-0.6 -0.7,-1.15 M -5.2,0.75 Q -5.5,2 -5.35,3.3 l 0.2,0.8 0.9,1.45 0.75,0.85 1.1,1.2 q 1.45,1.15 4.1,1.15 L 2.95,8.65 4.3,7.95 5.65,6.6 6.15,5.7 6.3,5 6.65,4.1 6.75,3.05 V 0.95 Q 6.75,-0.3 6.25,-0.7 5.85,-1.05 5.1,-1.05 l -3.25,-0.25 -3.95,0.4 -2.1,0.4 -0.55,0.35 -0.45,0.9 m 14.45,-6.9 q -1,0.2 -1.5,0.85 -0.6,0.65 -0.65,1.6 0,0.95 0.55,1.65 0.5,0.7 1.45,0.9 l 1.75,-0.25 q 0.8,-0.4 1.15,-1.3 0.3,-0.9 0.05,-1.75 -0.25,-0.8 -1.1,-1.3 l -1.7,-0.4 m -19.4,0.35 -1.2,1.15 q -0.45,0.8 -0.4,1.65 0.1,0.85 0.6,1.6 0.55,0.7 1.35,0.95 l 1.65,0.1 q 0.9,-0.2 1.5,-0.85 0.55,-0.65 0.75,-1.5 0.15,-0.9 -0.2,-1.65 -0.45,-1.05 -1.55,-1.55 l -2.5,0.1"
         fill="#e0ddbd"
         fill-rule="evenodd"
         stroke="none"
         id="path3" />
    </g>
    <g
       id="sprite1"
       transform="translate(17.4,15.85)">
      <use
         ffdec:characterId="31"
         height="57.200001"
         transform="matrix(0.5366,0,0,0.5366,-16.6582,-14.546)"
         width="70.75"
         xlink:href="#sprite2"
         id="use3" />
    </g>
    <g
       id="sprite2"
       transform="translate(-8.65,-10.35)">
      <use
         ffdec:characterId="30"
         height="57.200001"
         transform="translate(8.65,10.35)"
         width="70.75"
         xlink:href="#shape1"
         id="use4" />
    </g>
    <g
       id="shape1"
       transform="translate(-8.65,-10.35)">
      <path
         d="m 14.8,41.7 q 0.65,-1.75 2.65,-2.5 1.8,-0.8 3.7,-0.25 1.15,0.45 2.25,1.2 l 0.9,0.4 q 1.65,0.9 2.85,2.5 L 37.8,30.1 q 2.35,-2.8 3.75,-3.95 1.5,-1.15 4.25,-2.4 18.2,-8.85 27.65,-12.6 2.15,-0.8 3.25,-0.8 h 0.8 l 1.9,2.4 -0.2,0.8 q -0.2,1.1 -1.55,3 -5.85,8.25 -18.85,23.8 -1.85,2.35 -3.35,3.5 -1.4,1.15 -4.75,2.75 l -15.15,7.15 q 1.2,1.6 1.75,3.4 l 0.2,1 0.55,2.5 q 0.1,1.95 -1.1,3.55 -1.2,1.65 -3.05,1.9 l -1.3,0.05 q -1.65,0.2 -3.45,-0.65 -1.85,-0.9 -3,-2.6 L 25,60.95 23.8,62.1 q -2.6,2.85 -4.3,3.95 -2.85,1.8 -5.5,1.45 l -1.65,-0.5 -1.2,-0.7 -0.2,-0.2 q -1,-0.85 -1.6,-1.9 L 9.25,64 9.15,63.8 8.75,62.4 q -0.2,-0.8 -0.05,-1.7 0.25,-2.65 2.7,-5.05 1.5,-1.3 4.9,-3.15 L 17.7,51.55 16.05,50 q -1.35,-1.5 -1.8,-3.6 -0.4,-1.85 0.25,-3.45 l 0.3,-1.25"
         fill="#000000"
         fill-opacity="0.372549"
         fill-rule="evenodd"
         stroke="none"
         id="path4" />
    </g>
  </defs>
</svg>
