<?xml version="1.0" encoding="UTF-8" standalone="no"?>
<svg
   ffdec:objectType="frame"
   height="81.199997"
   width="76.232124"
   version="1.1"
   id="svg6"
   sodipodi:docname="ITEM Dirt Clod Hat.svg"
   xmlns:inkscape="http://www.inkscape.org/namespaces/inkscape"
   xmlns:sodipodi="http://sodipodi.sourceforge.net/DTD/sodipodi-0.dtd"
   xmlns:xlink="http://www.w3.org/1999/xlink"
   xmlns="http://www.w3.org/2000/svg"
   xmlns:svg="http://www.w3.org/2000/svg"
   xmlns:ffdec="https://www.free-decompiler.com/flash">
  <sodipodi:namedview
     id="namedview6"
     pagecolor="#ffffff"
     bordercolor="#000000"
     borderopacity="0.25"
     inkscape:showpageshadow="2"
     inkscape:pageopacity="0.0"
     inkscape:pagecheckerboard="0"
     inkscape:deskcolor="#d1d1d1"
     fit-margin-top="5"
     fit-margin-left="5"
     fit-margin-right="5"
     fit-margin-bottom="5" />
  <g
     transform="translate(37.893103,45.1)"
     id="g1">
    <use
       ffdec:characterId="17"
       height="119.15"
       id="rarity"
       transform="translate(-58.5,-60.65)"
       width="119.15"
       xlink:href="#sprite0" />
    <use
       ffdec:characterId="1148"
       height="81.650002"
       transform="translate(-37.9,-45.1)"
       width="76.25"
       xlink:href="#shape0"
       id="use1" />
  </g>
  <defs
     id="defs6">
    <g
       id="shape0"
       transform="translate(36.6,43.2)">
      <path
         d="m 27.85,-5.45 3.45,1 q 4.8,1.6 3.2,6.4 -2.15,6.7 -2.4,13.85 2.5,0.6 3.9,3 3.05,5.15 3.6,11.15 0.4,4.05 -3.3,5.2 -4.6,1.45 -9.15,1.75 -0.65,0.05 -1.25,-0.4 l -0.45,-0.3 q -5.8,-0.4 -11.2,1.45 L 5.9,38 Q 3.7,37.45 2.4,35.65 -10.15,35.15 -22.8,36 q -3.95,0.25 -7.95,-0.05 -4.45,-0.35 -4.15,-4.75 0.2,-2.55 -0.1,-5 l -0.6,-3.3 q -1.2,-7.4 -0.95,-15.05 0.1,-2 0.85,-3.8 0.7,-1.65 2.55,-2.25 l 4.35,-1.3 4.15,-1.15 -2.85,-9.55 q -0.9,-2.95 -0.25,-5.75 0.2,-0.75 1,-1 l 1.8,-0.45 q 4.4,0.2 6.65,4.25 l 1.15,1.8 q 2.25,2.75 3.5,5.95 5.95,-1.3 12.1,-0.95 L -1.5,-7.6 q 1.3,-9.5 0.95,-19.25 -0.2,-4.35 1.35,-8.25 0.2,-0.5 0.75,-0.7 l 3.05,-0.7 q 2.05,0.55 2.15,2.75 v 1.35 q 0.6,1.2 0.8,2.55 0.2,0.9 0,1.85 l 0.7,2.8 0.2,1.95 0.65,3.5 q 0.8,-4.1 2.15,-8 l 0.7,-2.05 0.85,-2.15 0.2,-0.8 0.35,-1.3 0.35,-0.85 0.45,-1.1 0.05,-0.5 q 0,-0.55 0.3,-0.95 l 0.15,-0.2 0.2,-1 0.55,-1.3 q 0.1,-2.05 1.95,-2.85 l 1.45,-0.4 q 2.4,1.25 2.35,4.35 l 0.05,1.65 q 0.45,1.1 0.35,2.3 l -0.45,1.75 q -0.45,9.3 -1.75,18.5 L 17.8,-6.9 q 5.1,0.3 10.05,1.45 M 6.6,-6.55 7.15,-10.1 6.7,-12.75 6.35,-16.05 Q 5.8,-17.7 5.6,-19.45 5.5,-20.5 5.55,-21.6 4.8,-24.55 4.2,-27.65 L 4.05,-28.4 3.9,-29.4 3.75,-30.55 3.65,-30.75 3.6,-30.9 3.5,-31.05 3.45,-31.2 v 1.55 1.75 L 3.4,-12.9 3.35,-8 3.1,-6.2 6.6,-6.55 m 10.8,-27.4 0.1,-1.05 -0.3,0.95 -1.95,6.55 -1.05,3.25 q -0.85,2.75 -1.4,5.55 l -0.65,2.8 q -0.9,4.45 -1.65,8.9 l 4.6,-0.05 q -0.5,-2.55 0,-5.25 l 0.55,-2.75 0.2,-0.5 v -0.5 l 0.1,-1.1 0.05,-0.2 1,-12.55 0.4,-4.05 M 27,11.1 27.25,8.5 q 0.5,-3.85 1.5,-7.55 -9.35,-2.3 -20,-1.85 l -12.1,1.05 q 0.2,2.1 -0.35,4.35 -0.4,1.6 -1.45,2.9 -0.65,0.8 -1.65,1.2 -4,1.6 -6.75,-1.15 l -0.15,-0.3 -0.45,-0.7 -0.05,-0.3 0.05,-0.65 0.05,-0.2 0.1,-0.15 0.5,-0.5 0.15,-0.1 h 0.25 l 0.6,0.2 0.1,0.2 0.05,0.15 v 0.15 l 0.05,0.15 0.3,0.35 0.25,0.3 Q -9.35,6.1 -7.2,5.1 -6.8,4.35 -6.8,3.45 -6.8,2.7 -6.4,2 V 1.2 L -6.2,0.1 Q -7.05,-0.1 -7.8,-0.55 L -11,-0.4 q -2.05,4.3 -7.15,4.55 l -3,0.35 q -4.8,0.95 -9.25,2.9 v 5.4 l 0.15,4.15 0.35,2.75 0.2,1.2 q 0.9,4.5 1.1,9.05 4.9,-0.3 10.25,-0.25 l 20.3,0.05 0.35,-4.4 q 0.4,-3 2.35,-5.25 0.5,-0.55 1.3,-0.75 l 7.7,-2 Q 17.1,16.7 20,18.1 q 1.35,0.65 1.4,2.2 l -0.2,1.45 v 0.2 l 0.1,0.6 0.7,1.2 0.1,0.8 q 0.4,2.85 0.3,5.9 v 0.2 h 1.3 1.85 q 1.55,0 2.85,0.85 1.15,0 2.25,-0.6 l 0.45,-0.2 3.1,-0.75 q 0.2,-0.65 -0.1,-1.2 L 33.7,27.5 33.2,24.65 Q 32.85,22.8 31.45,21.45 29.95,21.5 28.9,21 L 26.8,22.75 26.1,23.2 26,23.85 V 25 l 0.15,0.3 0.15,0.35 0.1,0.3 -0.05,0.85 q -0.05,0.65 -0.5,1.05 L 25.55,27.9 25,27.7 24.4,25.35 24.05,23.8 q -1.15,-2.95 1.85,-5 0.35,-0.25 0.7,-0.4 l -0.1,-1.1 0.05,-0.55 Q 26.7,13.9 27,11.1 M 7.3,32.6 q 3.35,0.55 6.95,-0.6 2.7,-0.85 5.6,-1.15 l 0.35,-0.1 q 0.3,-2.5 0.1,-5.05 L 19.95,23.55 Q 19.45,22.6 19.3,21.6 14.1,20.65 8.95,22.6 l -1.65,0.45 -0.15,0.2 q -0.35,0.4 -0.4,0.95 l -0.6,2.45 q 0.5,2 0.4,3.95 0.6,0.85 0.75,2 M -17.15,-5 l -3,-4.05 -1.75,-2.5 -2.05,-2.2 q -0.25,0.65 0.1,1.75 l 1.05,3.7 0.1,0.65 0.1,0.15 0.4,0.8 q 0.25,0.5 0.35,1 v 0.2 l 1.4,3.9 3.1,-0.6 q -0.15,-1.2 0.5,-1.9 L -16.6,-4.35 -17.15,-5"
         fill="#000000"
         fill-rule="evenodd"
         stroke="none"
         id="path1" />
      <path
         d="m -30.25,16.95 q 3.45,-1.7 7.3,-2.65 L -12.3,12 -9.8,12.25 Q -4.3,14.45 1,11.35 4.15,9.5 7.6,9.1 l 15.6,1.1 q 2.05,0.05 3.8,0.9 -0.3,2.8 -0.45,5.65 L 23.2,17 11,15.55 7.85,15.3 q -3,-0.25 -5.85,1.1 -6.75,3.25 -13.55,0.65 -3.35,-1.3 -6.95,-0.1 l -7.15,1.95 -4.25,0.8 -0.35,-2.75"
         fill="#6b5d5d"
         fill-rule="evenodd"
         stroke="none"
         id="path2" />
      <path
         d="M -30.25,16.95 -30.4,12.8 V 7.4 q 4.45,-1.95 9.25,-2.9 l 3,-0.35 Q -13.05,3.9 -11,-0.4 l 3.2,-0.15 q 0.75,0.45 1.6,0.65 L -6.4,1.2 V 2 q -0.4,0.7 -0.4,1.45 0,0.9 -0.4,1.65 -2.15,1 -4.55,0.95 L -12,5.75 -12.3,5.4 -12.35,5.25 V 5.1 l -0.05,-0.15 -0.1,-0.2 -0.6,-0.2 h -0.25 l -0.15,0.1 -0.5,0.5 -0.1,0.15 -0.05,0.2 -0.05,0.65 0.05,0.3 0.45,0.7 0.15,0.3 Q -10.8,10.2 -6.8,8.6 -5.8,8.2 -5.15,7.4 -4.1,6.1 -3.7,4.5 -3.15,2.25 -3.35,0.15 L 8.75,-0.9 q 10.65,-0.45 20,1.85 -1,3.7 -1.5,7.55 L 27,11.1 Q 25.25,10.25 23.2,10.2 L 7.6,9.1 Q 4.15,9.5 1,11.35 q -5.3,3.1 -10.8,0.9 L -12.3,12 -22.95,14.3 q -3.85,0.95 -7.3,2.65 m 56.8,-0.2 -0.05,0.55 0.1,1.1 q -0.35,0.15 -0.7,0.4 -3,2.05 -1.85,5 l 0.35,1.55 0.6,2.35 0.55,0.2 0.3,-0.05 q 0.45,-0.4 0.5,-1.05 L 26.4,25.95 26.3,25.65 26.15,25.3 26,25 V 23.85 L 26.1,23.2 26.8,22.75 28.9,21 q 1.05,0.5 2.55,0.45 1.4,1.35 1.75,3.2 l 0.5,2.85 0.4,1.25 q 0.3,0.55 0.1,1.2 l -3.1,0.75 -0.45,0.2 q -1.1,0.6 -2.25,0.6 -1.3,-0.85 -2.85,-0.85 H 23.7 22.4 v -0.2 q 0.1,-3.05 -0.3,-5.9 l -0.1,-0.8 -0.7,-1.2 -0.1,-0.6 v -0.2 L 21.4,20.3 Q 21.35,18.75 20,18.1 17.1,16.7 13.65,17.35 l -7.7,2 q -0.8,0.2 -1.3,0.75 -1.95,2.25 -2.35,5.25 l -0.35,4.4 -20.3,-0.05 q -5.35,-0.05 -10.25,0.25 -0.2,-4.55 -1.1,-9.05 l -0.2,-1.2 4.25,-0.8 7.15,-1.95 q 3.6,-1.2 6.95,0.1 6.8,2.6 13.55,-0.65 2.85,-1.35 5.85,-1.1 L 11,15.55 23.2,17 26.55,16.75"
         fill="#746c6c"
         fill-rule="evenodd"
         stroke="none"
         id="path3" />
      <path
         d="m 7.3,32.6 q -0.15,-1.15 -0.75,-2 0.1,-1.95 -0.4,-3.95 L 6.75,24.2 Q 6.8,23.65 7.15,23.25 L 7.3,23.05 8.95,22.6 q 5.15,-1.95 10.35,-1 0.15,1 0.65,1.95 l 0.35,2.15 q 0.2,2.55 -0.1,5.05 l -0.35,0.1 q -2.9,0.3 -5.6,1.15 -3.6,1.15 -6.95,0.6"
         fill="#877c7c"
         fill-rule="evenodd"
         stroke="none"
         id="path4" />
      <path
         d="M 6.6,-6.55 3.1,-6.2 3.35,-8 l 0.05,-4.9 0.05,-15 v -1.75 -1.55 l 0.05,0.15 0.1,0.15 0.05,0.15 0.1,0.2 0.15,1.15 0.15,1 0.15,0.75 q 0.6,3.1 1.35,6.05 -0.05,1.1 0.05,2.15 0.2,1.75 0.75,3.4 l 0.35,3.3 0.45,2.65 -0.55,3.55 m 10.6,-27.5 0.2,0.1 -0.4,4.05 -1,12.55 -0.05,0.2 -0.1,1.1 v 0.5 l -0.2,0.5 -0.55,2.75 q -0.5,2.7 0,5.25 L 10.5,-7 q 0.75,-4.45 1.65,-8.9 l 0.65,-2.8 q 0.55,-2.8 1.4,-5.55 l 1.05,-3.25 1.95,-6.55 M -16.85,-4.1 q -0.65,0.7 -0.5,1.9 l -3.1,0.6 -1.4,-3.9 v -0.2 q -0.1,-0.5 -0.35,-1 l -0.4,-0.8 -0.1,-0.15 -0.1,-0.65 -1.05,-3.7 q -0.35,-1.1 -0.1,-1.75 l 2.05,2.2 1.75,2.5 3,4.05 0.3,0.9"
         fill="#799271"
         fill-rule="evenodd"
         stroke="none"
         id="path5" />
    </g>
    <g
       id="sprite1"
       transform="translate(17.4,15.85)">
      <use
         ffdec:characterId="31"
         height="57.200001"
         transform="matrix(0.5366,0,0,0.5366,-16.6582,-14.546)"
         width="70.75"
         xlink:href="#sprite2"
         id="use5" />
    </g>
    <g
       id="sprite2"
       transform="translate(-8.65,-10.35)">
      <use
         ffdec:characterId="30"
         height="57.200001"
         transform="translate(8.65,10.35)"
         width="70.75"
         xlink:href="#shape1"
         id="use6" />
    </g>
    <g
       id="shape1"
       transform="translate(-8.65,-10.35)">
      <path
         d="m 14.8,41.7 q 0.65,-1.75 2.65,-2.5 1.8,-0.8 3.7,-0.25 1.15,0.45 2.25,1.2 l 0.9,0.4 q 1.65,0.9 2.85,2.5 L 37.8,30.1 q 2.35,-2.8 3.75,-3.95 1.5,-1.15 4.25,-2.4 18.2,-8.85 27.65,-12.6 2.15,-0.8 3.25,-0.8 h 0.8 l 1.9,2.4 -0.2,0.8 q -0.2,1.1 -1.55,3 -5.85,8.25 -18.85,23.8 -1.85,2.35 -3.35,3.5 -1.4,1.15 -4.75,2.75 l -15.15,7.15 q 1.2,1.6 1.75,3.4 l 0.2,1 0.55,2.5 q 0.1,1.95 -1.1,3.55 -1.2,1.65 -3.05,1.9 l -1.3,0.05 q -1.65,0.2 -3.45,-0.65 -1.85,-0.9 -3,-2.6 L 25,60.95 23.8,62.1 q -2.6,2.85 -4.3,3.95 -2.85,1.8 -5.5,1.45 l -1.65,-0.5 -1.2,-0.7 -0.2,-0.2 q -1,-0.85 -1.6,-1.9 L 9.25,64 9.15,63.8 8.75,62.4 q -0.2,-0.8 -0.05,-1.7 0.25,-2.65 2.7,-5.05 1.5,-1.3 4.9,-3.15 L 17.7,51.55 16.05,50 q -1.35,-1.5 -1.8,-3.6 -0.4,-1.85 0.25,-3.45 l 0.3,-1.25"
         fill="#000000"
         fill-opacity="0.372549"
         fill-rule="evenodd"
         stroke="none"
         id="path6" />
    </g>
  </defs>
</svg>
