<?xml version="1.0" encoding="UTF-8" standalone="no"?>
<svg
   ffdec:objectType="frame"
   height="99.566544"
   width="91.074455"
   version="1.1"
   id="svg5"
   sodipodi:docname="ITEM Sabertooth Pelt.svg"
   xmlns:inkscape="http://www.inkscape.org/namespaces/inkscape"
   xmlns:sodipodi="http://sodipodi.sourceforge.net/DTD/sodipodi-0.dtd"
   xmlns:xlink="http://www.w3.org/1999/xlink"
   xmlns="http://www.w3.org/2000/svg"
   xmlns:svg="http://www.w3.org/2000/svg"
   xmlns:ffdec="https://www.free-decompiler.com/flash">
  <sodipodi:namedview
     id="namedview5"
     pagecolor="#ffffff"
     bordercolor="#000000"
     borderopacity="0.25"
     inkscape:showpageshadow="2"
     inkscape:pageopacity="0.0"
     inkscape:pagecheckerboard="0"
     inkscape:deskcolor="#d1d1d1"
     fit-margin-top="5"
     fit-margin-left="5"
     fit-margin-right="5"
     fit-margin-bottom="5" />
  <g
     transform="translate(44.438095,49.025806)"
     id="g1">
    <use
       ffdec:characterId="17"
       height="119.15"
       id="rarity"
       transform="translate(-58.5,-60.65)"
       width="119.15"
       xlink:href="#sprite0" />
    <use
       ffdec:characterId="791"
       height="99.599998"
       transform="translate(-44.45,-49.05)"
       width="91.099998"
       xlink:href="#shape0"
       id="use1" />
  </g>
  <defs
     id="defs5">
    <g
       id="shape0"
       transform="translate(45,49.8)">
      <path
         d="m 35.1,2.2 1.5,1.3 0.15,-1.35 0.35,-3.7 q 0,-1.25 0.3,-1.75 l 1,-0.65 h 0.35 l 0.35,-0.1 0.8,-0.15 1.5,-0.3 Q 39,-10.25 35.6,-15.55 L 35,-16.6 34.8,-17.1 q -0.25,-0.7 -0.05,-1.2 v -0.05 q -0.2,-0.45 -0.1,-0.85 0.15,-0.9 1.2,-1.35 l 0.2,-0.05 1.65,-0.35 0.45,-0.25 v -0.6 q -0.65,-1.7 -2.75,-5.05 l -1.9,-2.6 q -3,-3.45 -10.3,-5.2 -2.7,-0.7 -4.55,-0.6 l -1.5,0.05 Q 16.4,-35.25 16,-35.65 14.9,-35.9 14.65,-37.1 l 0.05,-1.2 q 0.35,-2.05 0.35,-4.35 l -2.7,1.6 -2.75,1.8 -1.2,0.85 -1.45,0.3 H 6.85 Q 6,-37.8 4.6,-39 0.25,-42.9 -5,-45.15 l 0.5,4.1 q 0.1,2.05 -0.7,2.9 -0.8,0.85 -3.05,0.85 -11.3,0.35 -19.05,5.95 l -0.65,0.5 1.25,2.4 q 0.9,1.9 0.4,3 -0.3,0.6 -1.1,1.05 l -1.5,0.65 q -1.3,0.6 -3.25,2.15 l -3.65,3.05 -2.2,2.4 q -0.65,1.05 -1.3,3.85 -0.95,5.15 -0.95,7.35 l 3.9,-1.1 2.1,-0.05 1.2,0.75 0.15,0.2 0.35,0.55 1.2,4.9 0.9,-0.4 0.3,-0.15 q 2.25,-0.95 3.75,-0.65 0.9,0.3 1.25,0.7 0.55,0.6 0.3,1.3 l -0.8,0.9 -1.3,0.75 -1.4,0.45 q -0.95,0.35 -2.2,1.25 L -31.4,5 -32.95,5.15 Q -33.75,4.9 -34.15,4.1 L -34.4,3.05 -35.3,-0.6 v -1.45 l -0.5,0.15 q 0.05,0.75 -0.35,2.1 -0.8,2.9 -0.9,9.05 l -0.15,9.25 q -0.1,3.7 0.3,5.9 l 1,3.65 0.25,0.75 0.85,2.85 2.25,-0.05 q 0.2,-0.75 0.15,-3 -0.05,-1.95 0.55,-2.85 l 1.25,-1.2 1.55,-0.95 2.05,-1.7 q 1.1,-0.9 2.1,-1 h 0.15 q 1.35,-0.1 3.1,1.25 l 2.85,2.7 q 1.15,1.35 2,1.5 h 0.6 q 0.65,-0.1 1.6,-0.65 l 3,-1.7 q 2.65,-1.45 4.05,-0.95 0.65,0.25 1.3,0.85 l 1.05,1.15 1,1.2 q 0.5,0.65 0.65,1.3 0.3,1.3 -0.7,3.05 l -1.7,2.7 Q -7,35.45 -6.55,39 l 0.5,2.85 0.35,2.85 q 0.4,-0.45 1.7,-0.95 1.2,-0.45 1.55,-1.05 l 0.4,-1.55 0.55,-5.6 0.45,-2.05 q 0.55,-1.15 1.6,-1.25 l 0.8,0.15 0.2,-0.05 0.7,-0.1 2,0.1 6.1,0.9 0.5,0.05 h 1.35 l 1.25,-0.55 1.1,-0.7 2.3,-1.35 q 1.3,-0.85 1.85,-1.8 0.45,-0.9 0.55,-2.6 l 0.1,-4.7 q -0.2,-2.7 0.9,-3.6 0.75,-0.6 2.8,-0.5 l 2.15,0.15 4.7,0.25 q 0.9,0.1 1.2,-0.3 0.35,-0.35 0.15,-1.15 L 31.1,15.05 31,14.25 Q 30.45,9.2 30.85,4.4 L 30.5,3.8 30.3,2.9 q 0.1,-1.25 1.25,-1.75 0.85,-0.3 1.65,0 0.75,0.2 1.5,0.8 l 0.4,0.25 m -50.95,-18.85 -1.8,0.4 -1.8,0.05 -0.85,-0.3 -0.5,-0.75 0.05,-1.4 0.6,-2.2 1.55,-2.7 q 1.3,-1.95 2.4,-2.7 l 1.3,-0.2 q 0.25,0.15 0.35,0.5 v 0.15 q 0.05,0.45 -0.15,0.8 l -1.05,1.2 -0.6,0.95 q -1.2,2.1 -1.35,3.35 l 3.75,-0.8 1.9,-0.4 1.25,-0.05 q 0.85,0.1 1.2,0.4 0.45,0.3 0.45,0.9 0.05,0.8 -0.85,1.35 -0.5,0.3 -1.6,0.5 l -4.25,0.95 M 0.85,-27.3 3.8,-29.65 4.1,-29.9 3.3,-30.3 q -1.2,-0.55 -2.55,-0.75 l -1.1,-0.25 -0.75,-0.6 -0.1,-0.75 v -0.05 l 0.45,-0.7 1.6,-0.05 3.4,1.15 q 1.4,0.65 2.2,1.5 l 0.45,-0.2 5.35,-1.95 1.7,0.15 q 0.3,0.45 0.1,0.9 l -0.25,0.35 q -0.4,0.4 -1.15,0.65 l -4.1,1.95 -1.25,0.7 -0.5,0.1 -0.35,0.55 q -0.25,0.3 -1.2,0.65 l -2.55,1.2 -2.2,1.45 q -0.7,0.45 -1.35,0.7 l -0.35,0.15 -0.4,0.05 q -0.55,0.1 -0.85,-0.3 -0.35,-0.4 -0.1,-0.9 l 0.65,-0.55 2.75,-2.15 m 26.05,11.6 0.7,0.65 0.85,0.9 0.8,0.65 q 0.45,-1.3 1.75,-2.1 l 0.9,-0.25 q 0.35,0 0.65,0.3 l 0.05,0.05 0.3,0.6 v 0.15 0.05 l -0.3,0.85 -1.35,2.75 -0.5,0.9 q -0.8,0.7 -1.85,0.35 -0.8,-0.2 -1.6,-1.15 l -0.85,-1.15 -1.2,-1.3 -0.5,-0.8 Q 24,-15.3 22.9,-16 q -0.6,-0.4 -0.75,-0.75 -0.2,-0.45 0.05,-0.9 0.4,-0.5 1.1,-0.4 0.4,0 1.1,0.4 l 1.35,0.9 1.15,1.05 m -57.1,-19.6 q 4.75,-3.35 10.35,-5.05 5.65,-1.75 11.4,-1.65 l -0.7,-3.55 q -0.5,-2.05 0.15,-3.05 0.85,-1.35 2.6,-1.15 1.3,0.15 2.85,1 l 3.1,1.7 q 4.75,2.85 7.1,5.65 l 0.2,0.2 5.1,-3.4 1.8,-1 1.6,-0.65 1.3,-0.7 q 1.15,-0.25 1.75,0.7 0.4,0.6 0.3,1.85 l -0.25,2.6 -0.1,1.75 -0.1,1.1 v 0.25 l 0.45,-0.1 q 2.6,-0.3 4.75,-0.05 l 2.8,0.65 4.35,1.45 q 4.3,1.95 7.5,6.35 2.45,3.25 4.6,8.8 0.5,1.45 0.25,2.1 -0.3,0.85 -1.9,1.5 l -2.25,0.7 q 2.05,2.5 3.5,5.25 l 2.75,5.45 1,2.55 q 0.2,1.6 -0.7,2.55 -0.65,0.65 -1.7,0.8 l -1.95,0.25 -1.55,0.3 -0.05,0.8 -0.2,1 0.05,1.25 -0.1,1.2 -0.25,1.65 q -0.2,1.3 -1,1.7 L 37.35,7.6 36.1,7.15 33.85,5.95 q 0.2,3.8 1.2,10.35 0.3,2.85 -0.7,4.1 -0.85,0.95 -2.7,1.25 -1.5,0.25 -4.2,0.05 l -4.2,-0.1 q 0.15,3.35 -0.45,7.45 -0.3,1.85 -0.85,2.75 l -1.5,1.4 -1.85,1.05 -3,1.95 q -1.8,1.1 -3.25,1.25 l -3.5,-0.4 -4.95,-0.5 -1.4,-0.1 -0.05,0.2 -1.15,6.2 q -0.4,2.2 -1.1,3.05 l -1.75,1.25 Q -3,47.9 -3.45,48.3 l -0.85,0.8 -0.9,0.6 Q -6.3,50.05 -7.5,49.05 -8.75,48 -9.35,46 l -0.65,-3.65 -0.65,-6.2 q -0.2,-2 0.15,-2.95 l 0.95,-1.4 1.1,-1.35 q 0.55,-0.8 0.5,-1.65 0,-1 -0.75,-1.4 -0.8,0.3 -3.5,1.9 -2.1,1.2 -3.6,1.45 L -19,30.4 q -1.6,-0.6 -2.65,-1.85 L -23,26.7 q -0.85,-1.05 -1.75,-1.3 l -1.85,1.45 q -1.3,0.8 -1.7,1.5 -0.4,0.8 -0.4,1.95 l 0.05,1.45 q 0.05,0.9 -0.05,1.45 -0.25,1.75 -1.45,2.45 L -32.5,36 -35.55,35.9 q -1.4,0 -2.1,-0.45 -0.6,-0.4 -0.85,-1.35 l -0.35,-1.7 q -0.2,-1.2 -1.35,-4.6 -1,-2.85 -0.95,-4.6 l 0.4,-3 0.2,-4.4 V 7.1 q 0.15,-4.55 1.1,-7.9 l -0.8,0.3 -2,0.85 q -1.25,0.35 -2.05,-0.3 -0.85,-0.75 -0.65,-2.7 0.45,-6.95 1.4,-11.4 0.7,-2.95 1.6,-4.35 l 1.85,-2.2 q 4.15,-4.2 9.05,-7 l -1.25,-2.45 q -0.65,-1.6 -0.15,-2.65 l 0.25,-0.3 q 0.45,-1.15 2,-2.3 m 29.9,31.05 0.2,0.1 Q 0.55,-5.6 1.65,-6 q 0.65,-0.25 1.3,0 0.7,0.2 0.9,0.8 0.35,0.7 -0.2,1.65 l -1,1.45 -0.9,1.4 Q 1.1,0.1 0.35,0.25 -0.5,0.45 -1.45,-0.3 L -3.4,-2.15 q -0.3,-0.3 -0.55,-0.3 l -0.4,0.2 Q -7.75,0.4 -9,1.7 -10.2,2.9 -10.95,3 L -12.2,2.65 -13,1.6 -13.3,0.3 q -0.6,-4.05 -0.55,-7.85 0,-1.1 0.35,-1.45 0.35,-0.35 0.85,-0.35 0.55,0 0.85,0.4 l 0.2,0.3 0.05,0.4 0.1,0.75 0.2,1.05 0.4,1.85 0.7,2.2 2.5,-1.9 2.1,-1.85 q 0.9,-0.8 1.4,-0.9 l 0.95,0.1 1.3,0.95 1.6,1.75 m -28.65,20.7 -0.55,-1.5 v -1.4 l 0.15,-0.95 0.35,-0.9 0.15,-0.4 1,-0.85 2.1,-1.15 1.25,-0.35 q 0.8,0 1.15,0.5 l 0.45,1.1 0.4,1.1 0.4,1.05 v 1.7 l 0.05,0.9 q -0.05,0.45 -0.65,0.95 -1.25,1.2 -2.55,1.25 -0.2,0.4 -0.65,0.6 l -0.9,0.05 q -0.8,-0.2 -1.5,-1 l -0.65,-0.7 m 3.85,-4.4 -1.4,0.85 -0.35,0.4 -0.05,0.4 q 0.1,1.5 1.45,2 l 0.6,-0.65 0.55,-0.65 0.05,-0.5 q 0.05,-0.65 -0.2,-1.6 l -0.25,-0.3 -0.4,0.05 m 30.75,9.55 0.75,-1.5 0.45,-1.05 0.6,-0.8 0.8,-0.6 1.35,-0.1 0.65,0.05 2.35,0.4 q 1.15,0.2 1.9,0.55 1.1,0.55 1.15,1.5 l -0.05,1.05 -0.1,1.2 -1.5,4.65 -0.5,1 -1.45,0.6 -1.5,0.3 -0.3,0.1 -1.3,0.15 -1,-0.05 -1.1,0.05 Q 6.2,29 5.6,28 l -0.2,-0.45 -0.65,-1 -0.5,-0.6 -0.2,-0.8 Q 3.95,24.5 4.1,24 l 0.55,-0.9 1,-1.5 m 7.45,-0.25 q -0.1,-0.2 -0.65,-0.3 l -2.3,-0.4 -0.5,0.05 -0.3,0.4 Q 8.7,23 7.4,24.55 q 0.9,1.05 1.15,2.4 l 2.95,-0.65 0.5,-0.25 0.2,-0.4 q 0.8,-2.2 1,-3.75 l -0.1,-0.55"
         fill="#000000"
         fill-rule="evenodd"
         stroke="none"
         id="path1" />
      <path
         d="m 31,14.25 0.1,0.8 0.15,1.4 q 0.2,0.8 -0.15,1.15 -0.3,0.4 -1.2,0.3 l -4.7,-0.25 q 0.1,-0.85 0.65,-1.7 0.9,-1.2 2.6,-1.7 l 1.8,-0.15 0.75,0.15 m -20.15,19.05 -0.5,-0.05 -6.1,-0.9 -2,-0.1 Q 2.15,31.45 2.4,30.6 2.85,29.1 4.3,28.05 4.6,27.8 5.2,27.6 L 5.4,27.55 5.6,28 q 0.6,1 1.25,1.1 l 1.1,-0.05 1,0.05 1.3,-0.15 0.75,1.1 q 0.25,0.65 0.15,1.8 L 11,32.8 10.85,33.3 M -16.2,26.35 h -0.6 q -0.85,-0.15 -2,-1.5 l -2.85,-2.7 q -1.75,-1.35 -3.1,-1.25 h -0.15 l 0.05,-0.3 0.1,-1.1 0.4,-0.95 q 0.75,-1.3 1.65,-1.8 l 2.1,-0.35 1.85,0.15 q 1.8,0.5 2.7,2 0.95,1.6 0.5,3.35 l -0.2,0.75 0.1,0.65 q 0.15,1.55 -0.35,2.6 l -0.2,0.45 M 18.75,-0.7 q -0.4,0.35 -1.05,0.35 -0.9,0 -1.4,-0.5 -0.8,-0.7 -0.35,-1.9 0.5,-1 1.65,-1 1.3,0 1.7,1.15 l 0.05,1.05 -0.6,0.85 m -34.5,11.4 1.25,-0.9 1.55,0.05 q 0.7,0.3 1.15,1.05 0.4,0.7 0.25,1.5 -0.1,0.8 -0.75,1.35 -0.6,0.55 -1.4,0.6 -0.8,0.05 -1.5,-0.45 -0.7,-0.45 -0.9,-1.25 -0.3,-1.05 0.35,-1.95 m 9.5,10.85 q -1.15,-0.1 -1.85,-0.85 -0.75,-0.9 -0.65,-2 0.1,-0.7 0.55,-1.3 0.5,-0.65 1.2,-0.85 l 1.45,-0.05 q 0.75,0.2 1.25,0.75 0.5,0.55 0.6,1.35 0.15,0.8 -0.15,1.45 -0.3,0.65 -0.95,1.1 l -1.45,0.4 m -15.5,-18.5 q 0.35,0.95 -0.3,1.6 -0.5,0.4 -1.05,0.4 L -24.15,4.6 q -0.65,-0.65 -0.3,-1.55 0.4,-0.8 1.35,-0.9 0.9,0 1.35,0.9 m -9.9,11.1 q -1,0.9 -2.3,0.5 -1.3,-0.45 -1.6,-1.7 -0.2,-0.8 0.15,-1.6 0.4,-0.8 1.2,-1.15 l 1.65,-0.05 q 0.85,0.25 1.3,0.95 0.45,0.7 0.35,1.6 -0.1,0.9 -0.75,1.45 M -2.3,27 l 0.8,-0.65 0.65,-0.1 0.75,0.15 q 0.95,0.5 1.05,1.6 0,1.15 -0.95,1.65 L -1.9,29.5 Q -2.45,29.15 -2.65,28.35 -2.75,27.55 -2.3,27 m 23,-13.45 q -0.95,-0.4 -1.1,-1.45 -0.15,-1 0.6,-1.75 0.7,-0.5 1.4,-0.45 0.85,0.1 1.3,0.7 0.4,0.5 0.45,1.15 0,0.7 -0.4,1.2 l -1,0.65 -1.25,-0.05 M 1.4,5.55 Q 1.55,4.8 2.15,4.2 2.7,3.6 3.5,3.45 l 1.55,0.2 q 0.75,0.4 1.15,1.1 0.4,0.7 0.3,1.5 L 5.85,7.7 Q 5.3,8.25 4.5,8.45 L 2.95,8.35 Q 2.15,8 1.75,7.2 1.3,6.4 1.4,5.55 m 8.2,12 -1.35,0.1 -0.8,0.6 -0.6,0.8 L 6.4,20.1 5.65,21.6 4.9,21.25 Q 3.55,20.5 3.4,18.95 3.15,17.45 4.2,16.3 5.05,15.45 6.3,15.35 7.65,15.2 8.55,16 q 0.8,0.6 1.05,1.55"
         fill="#303030"
         fill-rule="evenodd"
         stroke="none"
         id="path2" />
      <path
         d="m -30.45,-0.1 -0.9,0.4 -1.2,-4.9 -0.35,-0.55 -0.15,-0.2 -1.2,-0.75 -2.1,0.05 -3.9,1.1 q 0,-2.2 0.95,-7.35 0.65,-2.8 1.3,-3.85 l 2.2,-2.4 3.65,-3.05 q 1.95,-1.55 3.25,-2.15 l 1.5,-0.65 q 0.8,-0.45 1.1,-1.05 0.5,-1.1 -0.4,-3 l -1.25,-2.4 0.65,-0.5 q 7.75,-5.6 19.05,-5.95 2.25,0 3.05,-0.85 0.8,-0.85 0.7,-2.9 l -0.5,-4.1 q 5.25,2.25 9.6,6.15 1.4,1.2 2.25,0.9 h 0.1 l 1.45,-0.3 1.2,-0.85 2.75,-1.8 2.7,-1.6 q 0,2.3 -0.35,4.35 l -0.05,1.2 q 0.25,1.2 1.35,1.45 0.4,0.4 1.15,0.45 l 1.5,-0.05 q 1.85,-0.1 4.55,0.6 7.3,1.75 10.3,5.2 l 1.9,2.6 q 2.1,3.35 2.75,5.05 v 0.6 l -0.45,0.25 -1.65,0.35 -0.2,0.05 q -1.05,0.45 -1.2,1.35 -0.1,0.4 0.1,0.85 v 0.05 q -0.2,0.5 0.05,1.2 l 0.2,0.5 0.6,1.05 q 3.4,5.3 5.8,11.05 l -1.5,0.3 -0.8,0.15 -0.35,0.1 H 38.4 l -1,0.65 q -0.3,0.5 -0.3,1.75 L 36.75,2.15 36.6,3.5 35.1,2.2 V 1.25 -3.25 Q 35.05,-4.9 35.15,-6 l 0.25,-2.9 v -0.05 l -1.35,-3.4 -1.15,-2.35 v -0.05 -0.15 l -0.3,-0.6 -0.05,-0.05 q -0.3,-0.3 -0.65,-0.3 L 31,-15.6 q -1.3,0.8 -1.75,2.1 l -0.8,-0.65 -0.85,-0.9 -0.7,-0.65 -0.45,-1 -1.1,-2.9 -0.35,-0.9 -1.25,0.35 -1.55,0.25 -2.85,0.15 q -0.9,-0.3 -1.95,-1.85 l -3.9,-4.65 -0.55,-0.4 -0.5,0.1 -9.85,3.75 -2,0.45 q -1.25,0 -1.7,-0.9 l -0.1,-0.2 0.35,-0.15 q 0.65,-0.25 1.35,-0.7 l 2.2,-1.45 2.55,-1.2 q 0.95,-0.35 1.2,-0.65 l 0.35,-0.55 0.5,-0.1 1.25,-0.7 4.1,-1.95 q 0.75,-0.25 1.15,-0.65 l 0.25,-0.35 q 0.2,-0.45 -0.1,-0.9 l -1.7,-0.15 -5.35,1.95 -0.45,0.2 q -0.8,-0.85 -2.2,-1.5 l -3.4,-1.15 -1.6,0.05 -0.45,0.7 v 0.05 l 0.1,0.75 0.75,0.6 1.1,0.25 q 1.35,0.2 2.55,0.75 l 0.8,0.4 -0.3,0.25 -2.95,2.35 -0.8,-0.15 -1.55,0.35 -4.3,1.1 q -1.75,0.45 -2.75,1.05 l -0.8,0.6 q -0.05,0.6 -0.4,1.2 -0.45,0.7 -2.3,1.7 l -1.9,1.15 -3.75,0.8 q 0.15,-1.25 1.35,-3.35 l 0.6,-0.95 1.05,-1.2 q 0.2,-0.35 0.15,-0.8 v -0.15 q -0.1,-0.35 -0.35,-0.5 l -1.3,0.2 q -1.1,0.75 -2.4,2.7 l -1.55,2.7 -0.6,2.2 -0.05,1.4 0.5,0.75 0.85,0.3 1.8,-0.05 1.8,-0.4 0.1,0.45 q 0.2,1.2 -1,2.75 l -2.65,3.45 -2.6,3.55 -1.05,1.55 q -0.7,0.8 -1.5,1.05 -1.7,0.55 -3.5,-1.25 l -2.2,4.6 -0.2,0.4 M 30.5,3.8 30.85,4.4 Q 30.45,9.2 31,14.25 L 30.25,14.1 Q 30,13.55 29.9,12.7 L 29.75,10.05 30,7.95 30.1,5 q 0.1,-0.8 0.4,-1.2 m -66.15,25 -0.25,-0.75 -1,-3.65 q -0.4,-2.2 -0.3,-5.9 l 0.15,-9.25 q 0.1,-6.15 0.9,-9.05 0.4,-1.35 0.35,-2.1 l 0.5,-0.15 v 1.45 l 0.9,3.65 -1.35,10 -0.35,2.95 -0.05,4.2 0.2,5 0.3,3.6 m 32.45,-35.75 -0.1,-0.4 -0.1,-1.5 0.1,-1.3 0.3,-0.75 0.05,-0.55 0.25,-0.55 0.9,-1.25 q 0.6,-0.6 1.4,-0.45 l 0.5,0.1 0.6,-0.05 0.4,0.5 0.3,0.75 0.05,1.9 -0.5,3.05 L 0.1,-5.1 -0.3,-4.25 -1.9,-6 -3.2,-6.95 m -8.4,-1.7 0.1,-1 q 0.45,-2.75 1.4,-4.35 0.8,-1.3 1.85,-1.85 l 1,-0.35 q 0.6,-0.2 0.95,-0.45 0.3,-0.15 0.85,-0.6 l 1.5,-0.45 q 0.85,0 1.35,0.6 0.5,0.5 0.5,1.45 0,0.7 -0.35,1.55 l -0.5,1 -0.65,0.9 -2.45,4.05 -0.85,1.6 -0.75,2.25 -2.5,1.9 -0.7,-2.2 -0.4,-1.85 -0.2,-1.05 -0.1,-0.75 -0.05,-0.4"
         fill="#8d8074"
         fill-rule="evenodd"
         stroke="none"
         id="path3" />
      <path
         d="m -30.45,-0.1 0.2,-0.4 2.2,-4.6 q 1.8,1.8 3.5,1.25 0.8,-0.25 1.5,-1.05 l 1.05,-1.55 2.6,-3.55 2.65,-3.45 q 1.2,-1.55 1,-2.75 l -0.1,-0.45 4.25,-0.95 q 1.1,-0.2 1.6,-0.5 0.9,-0.55 0.85,-1.35 0,-0.6 -0.45,-0.9 -0.35,-0.3 -1.2,-0.4 l -1.25,0.05 -1.9,0.4 1.9,-1.15 q 1.85,-1 2.3,-1.7 0.35,-0.6 0.4,-1.2 l 0.8,-0.6 q 1,-0.6 2.75,-1.05 l 4.3,-1.1 1.55,-0.35 0.8,0.15 -2.75,2.15 -0.65,0.55 q -0.25,0.5 0.1,0.9 0.3,0.4 0.85,0.3 l 0.4,-0.05 0.1,0.2 q 0.45,0.9 1.7,0.9 l 2,-0.45 9.85,-3.75 0.5,-0.1 0.55,0.4 3.9,4.65 q 1.05,1.55 1.95,1.85 l 2.85,-0.15 1.55,-0.25 1.25,-0.35 0.35,0.9 1.1,2.9 0.45,1 -1.15,-1.05 -1.35,-0.9 q -0.7,-0.4 -1.1,-0.4 -0.7,-0.1 -1.1,0.4 -0.25,0.45 -0.05,0.9 0.15,0.35 0.75,0.75 1.1,0.7 1.85,1.75 l 0.5,0.8 1.2,1.3 0.85,1.15 q 0.8,0.95 1.6,1.15 1.05,0.35 1.85,-0.35 l 0.5,-0.9 1.35,-2.75 0.3,-0.85 1.15,2.35 1.35,3.4 V -8.9 L 35.15,-6 q -0.1,1.1 -0.05,2.75 V 1.25 2.2 L 34.7,1.95 q -0.75,-0.6 -1.5,-0.8 -0.8,-0.3 -1.65,0 -1.15,0.5 -1.25,1.75 l 0.2,0.9 Q 30.2,4.2 30.1,5 l -0.1,2.95 -0.25,2.1 0.15,2.65 q 0.1,0.85 0.35,1.4 l -1.8,0.15 q -1.7,0.5 -2.6,1.7 -0.55,0.85 -0.65,1.7 L 23.05,17.5 Q 21,17.4 20.25,18 q -1.1,0.9 -0.9,3.6 l -0.1,4.7 q -0.1,1.7 -0.55,2.6 -0.55,0.95 -1.85,1.8 l -2.3,1.35 -1.1,0.7 -1.25,0.55 H 10.85 L 11,32.8 11.15,31.85 Q 11.25,30.7 11,30.05 l -0.75,-1.1 0.3,-0.1 1.5,-0.3 1.45,-0.6 0.5,-1 1.5,-4.65 0.1,-1.2 0.05,-1.05 Q 15.6,19.1 14.5,18.55 13.75,18.2 12.6,18 L 10.25,17.6 9.6,17.55 Q 9.35,16.6 8.55,16 7.65,15.2 6.3,15.35 q -1.25,0.1 -2.1,0.95 -1.05,1.15 -0.8,2.65 0.15,1.55 1.5,2.3 l 0.75,0.35 -1,1.5 L 4.1,24 q -0.15,0.5 -0.05,1.15 l 0.2,0.8 0.5,0.6 0.65,1 -0.2,0.05 Q 4.6,27.8 4.3,28.05 2.85,29.1 2.4,30.6 2.15,31.45 2.25,32.25 l -0.7,0.1 -0.2,0.05 -0.8,-0.15 q -1.05,0.1 -1.6,1.25 l -0.45,2.05 -0.55,5.6 -0.4,1.55 Q -2.8,43.3 -4,43.75 -5.3,44.25 -5.7,44.7 L -6.05,41.85 -6.55,39 Q -7,35.45 -5.95,33.3 l 1.7,-2.7 q 1,-1.75 0.7,-3.05 -0.15,-0.65 -0.65,-1.3 l -1,-1.2 -1.05,-1.15 q -0.65,-0.6 -1.3,-0.85 -1.4,-0.5 -4.05,0.95 l -3,1.7 q -0.95,0.55 -1.6,0.65 L -16,25.9 q 0.5,-1.05 0.35,-2.6 l -0.1,-0.65 0.2,-0.75 q 0.45,-1.75 -0.5,-3.35 -0.9,-1.5 -2.7,-2 l -1.85,-0.15 -2.1,0.35 q -0.9,0.5 -1.65,1.8 l -0.4,0.95 -0.1,1.1 -0.05,0.3 q -1,0.1 -2.1,1 l -2.05,1.7 -1.55,0.95 -1.25,1.2 q -0.6,0.9 -0.55,2.85 0.05,2.25 -0.15,3 l -2.25,0.05 -0.85,-2.85 -0.3,-3.6 -0.2,-5 0.05,-4.2 0.35,-2.95 1.35,-10 0.25,1.05 q 0.4,0.8 1.2,1.05 L -31.4,5 -30.55,4.45 q 1.25,-0.9 2.2,-1.25 l 1.4,-0.45 1.3,-0.75 0.8,-0.9 q 0.25,-0.7 -0.3,-1.3 -0.35,-0.4 -1.25,-0.7 -1.5,-0.3 -3.75,0.65 l -0.3,0.15 m 30.15,-4.15 0.4,-0.85 0.85,-2.35 0.5,-3.05 -0.05,-1.9 -0.3,-0.75 -0.4,-0.5 -0.6,0.05 -0.5,-0.1 q -0.8,-0.15 -1.4,0.45 l -0.9,1.25 -0.25,0.55 -0.05,0.55 -0.3,0.75 -0.1,1.3 0.1,1.5 0.1,0.4 -0.95,-0.1 q -0.5,0.1 -1.4,0.9 l -2.1,1.85 0.75,-2.25 0.85,-1.6 2.45,-4.05 0.65,-0.9 0.5,-1 q 0.35,-0.85 0.35,-1.55 0,-0.95 -0.5,-1.45 -0.5,-0.6 -1.35,-0.6 l -1.5,0.45 q -0.55,0.45 -0.85,0.6 -0.35,0.25 -0.95,0.45 l -1,0.35 q -1.05,0.55 -1.85,1.85 -0.95,1.6 -1.4,4.35 l -0.1,1 -0.2,-0.3 q -0.3,-0.4 -0.85,-0.4 -0.5,0 -0.85,0.35 -0.35,0.35 -0.35,1.45 -0.05,3.8 0.55,7.85 l 0.3,1.3 0.8,1.05 1.25,0.35 Q -10.2,2.9 -9,1.7 -7.75,0.4 -4.35,-2.25 l 0.4,-0.2 q 0.25,0 0.55,0.3 l 1.95,1.85 Q -0.5,0.45 0.35,0.25 1.1,0.1 1.75,-0.7 l 0.9,-1.4 1,-1.45 Q 4.2,-4.5 3.85,-5.2 3.65,-5.8 2.95,-6 2.3,-6.25 1.65,-6 0.55,-5.6 -0.1,-4.15 l -0.2,-0.1 m 19.05,3.55 0.6,-0.85 -0.05,-1.05 q -0.4,-1.15 -1.7,-1.15 -1.15,0 -1.65,1 -0.45,1.2 0.35,1.9 0.5,0.5 1.4,0.5 0.65,0 1.05,-0.35 m -40.5,3.75 q -0.45,-0.9 -1.35,-0.9 -0.95,0.1 -1.35,0.9 -0.35,0.9 0.3,1.55 l 1.05,0.45 q 0.55,0 1.05,-0.4 0.65,-0.65 0.3,-1.6 m 15.5,18.5 1.45,-0.4 Q -4.15,20.7 -3.85,20.05 -3.55,19.4 -3.7,18.6 -3.8,17.8 -4.3,17.25 -4.8,16.7 -5.55,16.5 L -7,16.55 q -0.7,0.2 -1.2,0.85 -0.45,0.6 -0.55,1.3 -0.1,1.1 0.65,2 0.7,0.75 1.85,0.85 m -9.5,-10.85 q -0.65,0.9 -0.35,1.95 0.2,0.8 0.9,1.25 0.7,0.5 1.5,0.45 0.8,-0.05 1.4,-0.6 0.65,-0.55 0.75,-1.35 0.15,-0.8 -0.25,-1.5 -0.45,-0.75 -1.15,-1.05 l -1.55,-0.05 -1.25,0.9 m -13.2,5.75 0.65,0.7 q 0.7,0.8 1.5,1 l 0.9,-0.05 q 0.45,-0.2 0.65,-0.6 1.3,-0.05 2.55,-1.25 0.6,-0.5 0.65,-0.95 l -0.05,-0.9 v -1.7 l -0.4,-1.05 -0.4,-1.1 -0.45,-1.1 q -0.35,-0.5 -1.15,-0.5 l -1.25,0.35 -2.1,1.15 -1,0.85 -0.15,0.4 -0.35,0.9 -0.15,0.95 v 1.4 l 0.55,1.5 m -2.7,-2.3 q 0.65,-0.55 0.75,-1.45 0.1,-0.9 -0.35,-1.6 -0.45,-0.7 -1.3,-0.95 l -1.65,0.05 q -0.8,0.35 -1.2,1.15 -0.35,0.8 -0.15,1.6 0.3,1.25 1.6,1.7 1.3,0.4 2.3,-0.5 m 52.35,-0.6 1.25,0.05 1,-0.65 q 0.4,-0.5 0.4,-1.2 Q 23.3,11.1 22.9,10.6 22.45,10 21.6,9.9 q -0.7,-0.05 -1.4,0.45 -0.75,0.75 -0.6,1.75 0.15,1.05 1.1,1.45 M -2.3,27 q -0.45,0.55 -0.35,1.35 0.2,0.8 0.75,1.15 L 0,29.65 Q 0.95,29.15 0.95,28 0.85,26.9 -0.1,26.4 L -0.85,26.25 -1.5,26.35 -2.3,27 M 1.4,5.55 Q 1.3,6.4 1.75,7.2 2.15,8 2.95,8.35 L 4.5,8.45 Q 5.3,8.25 5.85,7.7 L 6.5,6.25 Q 6.6,5.45 6.2,4.75 5.8,4.05 5.05,3.65 L 3.5,3.45 Q 2.7,3.6 2.15,4.2 1.55,4.8 1.4,5.55"
         fill="#61584f"
         fill-rule="evenodd"
         stroke="none"
         id="path4" />
    </g>
    <g
       id="sprite1"
       transform="translate(17.4,15.85)">
      <use
         ffdec:characterId="31"
         height="57.200001"
         transform="matrix(0.5366,0,0,0.5366,-16.6582,-14.546)"
         width="70.75"
         xlink:href="#sprite2"
         id="use4" />
    </g>
    <g
       id="sprite2"
       transform="translate(-8.65,-10.35)">
      <use
         ffdec:characterId="30"
         height="57.200001"
         transform="translate(8.65,10.35)"
         width="70.75"
         xlink:href="#shape1"
         id="use5" />
    </g>
    <g
       id="shape1"
       transform="translate(-8.65,-10.35)">
      <path
         d="m 14.8,41.7 q 0.65,-1.75 2.65,-2.5 1.8,-0.8 3.7,-0.25 1.15,0.45 2.25,1.2 l 0.9,0.4 q 1.65,0.9 2.85,2.5 L 37.8,30.1 q 2.35,-2.8 3.75,-3.95 1.5,-1.15 4.25,-2.4 18.2,-8.85 27.65,-12.6 2.15,-0.8 3.25,-0.8 h 0.8 l 1.9,2.4 -0.2,0.8 q -0.2,1.1 -1.55,3 -5.85,8.25 -18.85,23.8 -1.85,2.35 -3.35,3.5 -1.4,1.15 -4.75,2.75 l -15.15,7.15 q 1.2,1.6 1.75,3.4 l 0.2,1 0.55,2.5 q 0.1,1.95 -1.1,3.55 -1.2,1.65 -3.05,1.9 l -1.3,0.05 q -1.65,0.2 -3.45,-0.65 -1.85,-0.9 -3,-2.6 L 25,60.95 23.8,62.1 q -2.6,2.85 -4.3,3.95 -2.85,1.8 -5.5,1.45 l -1.65,-0.5 -1.2,-0.7 -0.2,-0.2 q -1,-0.85 -1.6,-1.9 L 9.25,64 9.15,63.8 8.75,62.4 q -0.2,-0.8 -0.05,-1.7 0.25,-2.65 2.7,-5.05 1.5,-1.3 4.9,-3.15 L 17.7,51.55 16.05,50 q -1.35,-1.5 -1.8,-3.6 -0.4,-1.85 0.25,-3.45 l 0.3,-1.25"
         fill="#000000"
         fill-opacity="0.372549"
         fill-rule="evenodd"
         stroke="none"
         id="path5" />
    </g>
  </defs>
</svg>
