<?xml version="1.0" encoding="UTF-8" standalone="no"?>
<svg
   ffdec:objectType="frame"
   height="63.541428"
   width="93.535088"
   version="1.1"
   id="svg6"
   xmlns:xlink="http://www.w3.org/1999/xlink"
   xmlns="http://www.w3.org/2000/svg"
   xmlns:svg="http://www.w3.org/2000/svg"
   xmlns:ffdec="https://www.free-decompiler.com/flash">
  <g
     transform="translate(48.416667,32.141429)"
     id="g1">
    <use
       ffdec:characterId="17"
       height="119.15"
       id="rarity"
       transform="translate(-58.5,-60.65)"
       width="119.15"
       xlink:href="#sprite0" />
    <use
       ffdec:characterId="810"
       height="63.549999"
       transform="translate(-48.4,-32.15)"
       width="93.5"
       xlink:href="#shape0"
       id="use1" />
  </g>
  <defs
     id="defs6">
    <g
       id="shape0"
       transform="translate(48.95,32.9)">
      <path
         d="m -31.65,-8.35 1.55,-0.95 -0.35,-1.1 -0.05,-1.9 q 0.2,-0.95 1.05,-2 1.85,-2.35 4.8,-3.55 2.9,-1.15 6,-0.85 2.6,0.25 7.3,2.15 l 0.8,0.35 3.9,-1.15 3.25,-0.35 2.1,0.75 0.25,-0.3 q 1.4,-1.35 2.85,-4.05 l 2.4,-4.4 q 1.85,-2.7 4.8,-4.5 2.8,-1.8 6.15,-2.45 3.7,-0.65 5.9,0.45 2.25,1.15 3.95,4.5 1,1.75 1.1,3.15 0.25,2.9 -2.8,6.15 l 0.95,-0.15 2.3,-0.25 2.25,0.2 q 1.45,0.45 3.5,2.2 2.85,2.5 5.5,5.6 l 2.1,2.45 2.35,2.1 1.25,0.9 0.9,1.15 q 0.4,0.85 -0.15,3 -2.4,8.35 -3.85,16.35 L 40,16.9 39.1,18.35 q -0.75,0.6 -2.25,1 l -5.5,0.7 -5.5,0.55 -2.05,0.3 -1.25,-0.15 -1.15,0.1 -1.5,-0.25 -4.95,-1.05 -2.1,-0.4 -1.95,-0.55 -0.45,1 Q 9.8,20.5 7.75,21 l -8.05,2.1 -6.4,1.3 -4.45,0.1 -0.6,0.4 q -0.65,0.4 -1.8,0.8 l -3.55,1.1 -0.3,0.2 -1.55,0.55 -3.55,0.75 -9.2,1.65 -9.25,0.7 -2.9,-0.25 q -2.75,-0.55 -4.3,-3.05 -0.7,-1.2 -0.8,-2.55 -0.1,-1.45 0.4,-2.65 0.7,-1.7 2.6,-3.15 2.6,-2.15 7.35,-4 2.85,-1.05 4.95,-1.5 l 1.3,-0.2 -0.3,-6.75 q -0.4,-7.3 -0.15,-11.2 0.2,-2.65 1.15,-3.7 M 6,-11.75 6.1,-13.25 Q 6.15,-14.1 6.45,-14.6 7.1,-15.6 9,-16 l 4.8,-0.9 3.65,-0.55 1.75,-1.9 2.35,-3 0.55,-1.55 q 0.05,-0.75 -0.85,-2.3 -1.05,-1.6 -1.95,-1.95 l -2.25,-0.05 q -4.55,0.7 -7.05,3.1 -1.6,1.55 -3.5,5.6 -1.9,4 -3.45,5.55 l 2.95,2.2 m 31.4,14.95 0.8,-3.7 0.05,-1.25 -0.5,-0.85 q -5.5,-6.45 -8.95,-9.35 l -1.35,-0.9 Q 27.15,-13 26.9,-13.1 l -2.1,0.05 -14.65,2.2 -0.4,1.85 0.1,0.1 q 1.7,1.2 2.25,2.25 0.5,1 0.4,3.55 l -0.5,8.15 -0.5,7.7 1.25,0.4 3.95,1.05 0.95,0.25 2.6,0.85 0.9,0.35 0.15,-0.9 L 22.45,9.5 23,6.9 23.1,6.5 23.3,5.15 23.4,4.05 23.8,0 q 0.3,-3.05 1.1,-5 l 0.5,-0.65 0.4,1.25 0.1,0.3 0.35,1.8 -0.1,1.8 0.05,2.45 0.2,2.4 -0.2,3.25 -1,7.7 9.65,-0.95 L 37.4,3.2 M 6.9,-0.75 7.05,-3.65 q 0.1,-1 -0.2,-1.55 Q 6.6,-5.65 5.65,-6.2 1.7,-8.3 -2.2,-10.85 L -2.4,-5.8 -2.8,4.4 q -0.1,3.25 -0.5,4.85 -0.1,0.7 -0.45,1 l -0.35,0.2 H -4.3 L -4.75,10.2 -4.85,9.5 -5,8.4 -5.25,6.05 -5.7,-6.5 -5.85,-11.1 v -0.15 q -10.7,3.5 -20.9,7.3 l -0.05,1.5 -0.05,2.2 0.3,6.65 q 0.55,6.9 0.2,10.35 -0.1,0.8 0.2,1.15 l 0.8,0.25 11.95,0.5 L -5.55,18.3 -3.6,18 0.15,17.1 5.85,15.6 6.9,-0.75 m -31.45,-11.35 -1.05,1.05 -0.1,0.3 7.45,-2.7 -1.6,-0.15 q -2.6,0.1 -4.7,1.5 m -4.35,35.6 q -1.9,-0.5 -2.7,-1.45 -0.95,-1.2 -0.75,-4.35 v -0.2 q -6.55,2.05 -10.45,5.05 -1.35,1.15 -1.25,2.1 0.15,0.95 1.25,1.3 l 1.85,0.15 12.1,-1.2 3.1,-0.7 -3.15,-0.7"
         fill="#000000"
         fill-rule="evenodd"
         stroke="none"
         id="path1" />
      <path
         d="m 29.3,-5.45 0.25,-0.1 1.85,0.25 q 0.9,0.4 1.35,1.25 L 33,-2.5 32.85,-1.75 32.4,-1 q -0.5,0.65 -1.3,0.9 l -1.6,0.05 q -0.9,-0.25 -1.5,-1 -0.65,-0.8 -0.6,-1.75 0,-0.95 0.65,-1.75 0.5,-0.65 1.25,-0.9 M 18.7,0.1 q 0,1.25 -1.1,2.1 -0.7,0.55 -1.7,0.55 -1,0 -1.75,-0.6 -0.7,-0.6 -0.9,-1.55 -0.2,-1 0.25,-1.8 0.4,-0.85 1.3,-1.25 l 1.8,-0.2 q 0.9,0.25 1.5,1 0.6,0.8 0.6,1.75 m 5.85,-7.9 Q 24.5,-7 24,-6.35 q -0.55,0.6 -1.3,0.8 l -1.55,-0.1 q -0.8,-0.35 -1.2,-1.05 -0.4,-0.65 -0.3,-1.5 0.05,-0.85 0.6,-1.45 0.55,-0.55 1.4,-0.7 l 1.55,0.2 q 1.45,0.7 1.35,2.35 m -50.75,7.45 q 0,-1 0.75,-1.75 0.95,-1.1 2.45,-0.85 1,0.15 1.7,1 l 0.15,0.2 q 0.55,0.8 0.45,1.7 -0.05,1 -0.85,1.75 -0.8,0.75 -1.8,0.8 -0.95,0.05 -1.75,-0.55 -0.8,-0.6 -1.05,-1.5 l -0.05,-0.8 m 13.85,-4 0.3,-0.95 q 0.4,-0.7 1.2,-1 l 1.55,-0.15 q 0.8,0.25 1.25,0.8 l 0.5,0.9 q 0.2,0.8 -0.1,1.6 -0.35,0.8 -1.05,1.2 -0.65,0.4 -1.55,0.3 -0.85,-0.15 -1.4,-0.7 -0.55,-0.55 -0.7,-1.4 v -0.6 m 10.8,7.3 Q -1.3,2.1 -0.5,1.5 0.25,0.9 1.15,0.85 2.05,0.8 2.85,1.3 q 0.85,0.55 1.2,1.35 0.4,0.9 0.15,1.9 -0.25,1 -1,1.6 Q 2.45,6.8 1.4,6.85 0.4,6.9 -0.4,6.35 -1.2,5.8 -1.5,4.8 -1.85,3.85 -1.55,2.95 m -10.35,9.3 q 0.1,-0.85 0.6,-1.5 0.55,-0.65 1.35,-0.85 l 1.6,0.1 q 0.8,0.3 1.25,1 0.45,0.65 0.4,1.55 -0.05,0.85 -0.55,1.5 l -1.35,0.85 -1.6,-0.1 q -0.8,-0.3 -1.25,-1 -0.5,-0.7 -0.45,-1.55 m -7.55,-8.5 q 0.05,-0.8 0.7,-1.5 0.7,-0.7 1.75,-0.8 1.05,-0.1 1.85,0.5 0.8,0.55 1,1.6 0.25,1.05 -0.25,1.9 -0.45,0.8 -1.4,1.2 l -1.85,0.05 q -0.85,-0.3 -1.4,-1.15 -0.55,-0.85 -0.4,-1.8 m -5.3,7.15 q 0.9,-0.7 2.15,-0.6 1.2,0.05 2.05,0.9 0.8,0.8 0.85,2.05 0.05,1.25 -0.65,2.15 -0.55,0.7 -1.45,1 l -1.75,0.1 q -0.85,-0.2 -1.5,-0.9 l -0.85,-1.5 q -0.4,-1.95 1.15,-3.2 m 60.15,0.25 q 0.1,0.75 -0.3,1.45 L 34,13.65 32.5,13.9 q -0.8,-0.1 -1.35,-0.65 -0.55,-0.55 -0.75,-1.3 -0.2,-0.8 0.1,-1.5 0.25,-0.7 0.95,-1.15 0.65,-0.5 1.45,-0.45 0.95,0 1.7,0.7 0.75,0.65 0.8,1.6"
         fill="#ffffff"
         fill-rule="evenodd"
         stroke="none"
         id="path2" />
      <path
         d="M 12,5.05 12.5,-3.1 Q 12.6,-5.65 12.1,-6.65 11.55,-7.7 9.85,-8.9 l -0.1,-0.1 0.4,-1.85 14.65,-2.2 2.1,-0.05 q 0.25,0.1 0.55,0.25 l 1.35,0.9 q 3.45,2.9 8.95,9.35 l 0.5,0.85 L 38.2,-0.5 37.4,3.2 36.15,1.9 32.85,-1.75 33,-2.5 32.75,-4.05 Q 32.3,-4.9 31.4,-5.3 l -1.85,-0.25 -0.25,0.1 -2.65,-2.75 q -0.5,1.6 -0.85,3.8 L 25.4,-5.65 24.9,-5 q -0.8,1.95 -1.1,5 l -0.4,4.05 -0.1,1.1 -0.2,1.35 -0.35,0.2 -0.7,0.2 q -0.9,0.2 -3.2,-0.55 L 17.85,6.1 14.95,5.6 12.35,5.2 12,5.05 M -2.4,-5.8 l 0.2,-5.05 q 3.9,2.55 7.85,4.65 0.95,0.55 1.2,1 0.3,0.55 0.2,1.55 L 6.9,-0.75 H 6.45 Q 5.5,-0.8 4,-1.8 l -4.55,-3 -1.85,-1 m -24.45,5.55 0.05,-2.2 0.05,-1.5 q 10.2,-3.8 20.9,-7.3 v 0.15 l 0.15,4.6 -1.45,0.55 -0.9,0.3 Q -8.5,-6.2 -9.3,-6.45 l -1.55,0.15 q -0.8,0.3 -1.2,1 l -0.3,0.95 -8.8,2.6 -0.15,-0.2 q -0.7,-0.85 -1.7,-1 -1.5,-0.25 -2.45,0.85 -0.75,0.75 -0.75,1.75 l -0.65,0.1 m 51.4,-7.55 q 0.1,-1.65 -1.35,-2.35 l -1.55,-0.2 q -0.85,0.15 -1.4,0.7 -0.55,0.6 -0.6,1.45 -0.1,0.85 0.3,1.5 0.4,0.7 1.2,1.05 l 1.55,0.1 Q 23.45,-5.75 24,-6.35 24.5,-7 24.55,-7.8 M 18.7,0.1 q 0,-0.95 -0.6,-1.75 -0.6,-0.75 -1.5,-1 l -1.8,0.2 q -0.9,0.4 -1.3,1.25 -0.45,0.8 -0.25,1.8 0.2,0.95 0.9,1.55 0.75,0.6 1.75,0.6 1,0 1.7,-0.55 1.1,-0.85 1.1,-2.1"
         fill="#b67474"
         fill-rule="evenodd"
         stroke="none"
         id="path3" />
      <path
         d="m 12,5.05 0.35,0.15 2.6,0.4 2.9,0.5 1,0.25 q 2.3,0.75 3.2,0.55 L 22.75,6.7 23.1,6.5 23,6.9 22.45,9.5 21.3,14.75 21.15,15.65 20.25,15.3 17.65,14.45 16.7,14.2 12.75,13.15 11.5,12.75 12,5.05 M -3.6,18 l -1.95,0.3 -7.85,0.35 -11.95,-0.5 -0.8,-0.25 q -0.3,-0.35 -0.2,-1.15 Q -26,13.3 -26.55,6.4 l -0.3,-6.65 0.65,-0.1 0.05,0.8 q 0.25,0.9 1.05,1.5 0.8,0.6 1.75,0.55 1,-0.05 1.8,-0.8 0.8,-0.75 0.85,-1.75 0.1,-0.9 -0.45,-1.7 l 8.8,-2.6 v 0.6 q 0.15,0.85 0.7,1.4 0.55,0.55 1.4,0.7 0.9,0.1 1.55,-0.3 0.7,-0.4 1.05,-1.2 0.3,-0.8 0.1,-1.6 l -0.5,-0.9 0.9,-0.3 1.45,-0.55 0.45,12.55 0.25,2.35 0.15,1.1 0.1,0.7 0.45,0.25 h 0.2 l 0.4,5.9 0.1,1.65 M -19.45,3.75 q -0.15,0.95 0.4,1.8 0.55,0.85 1.4,1.15 l 1.85,-0.05 q 0.95,-0.4 1.4,-1.2 0.5,-0.85 0.25,-1.9 -0.2,-1.05 -1,-1.6 -0.8,-0.6 -1.85,-0.5 -1.05,0.1 -1.75,0.8 -0.65,0.7 -0.7,1.5 m 7.55,8.5 q -0.05,0.85 0.45,1.55 0.45,0.7 1.25,1 l 1.6,0.1 1.35,-0.85 q 0.5,-0.65 0.55,-1.5 0.05,-0.9 -0.4,-1.55 -0.45,-0.7 -1.25,-1 l -1.6,-0.1 q -0.8,0.2 -1.35,0.85 -0.5,0.65 -0.6,1.5 M -24.75,10.9 q -1.55,1.25 -1.15,3.2 l 0.85,1.5 q 0.65,0.7 1.5,0.9 l 1.75,-0.1 q 0.9,-0.3 1.45,-1 0.7,-0.9 0.65,-2.15 -0.05,-1.25 -0.85,-2.05 -0.85,-0.85 -2.05,-0.9 -1.25,-0.1 -2.15,0.6"
         fill="#955f5f"
         fill-rule="evenodd"
         stroke="none"
         id="path4" />
      <path
         d="m 25.8,-4.4 q 0.35,-2.2 0.85,-3.8 l 2.65,2.75 q -0.75,0.25 -1.25,0.9 -0.65,0.8 -0.65,1.75 -0.05,0.95 0.6,1.75 0.6,0.75 1.5,1 l 1.6,-0.05 q 0.8,-0.25 1.3,-0.9 l 0.45,-0.75 3.3,3.65 1.25,1.3 -2.55,11.15 -9.65,0.95 1,-7.7 0.2,-3.25 -0.2,-2.4 -0.05,-2.45 0.1,-1.8 -0.35,-1.8 -0.1,-0.3 m -28.2,-1.4 1.85,1 4.55,3 q 1.5,1 2.45,1.05 H 6.9 L 5.85,15.6 0.15,17.1 -3.6,18 l -0.1,-1.65 -0.4,-5.9 0.35,-0.2 q 0.35,-0.3 0.45,-1 0.4,-1.6 0.5,-4.85 l 0.4,-10.2 m 0.85,8.75 q -0.3,0.9 0.05,1.85 0.3,1 1.1,1.55 0.8,0.55 1.8,0.5 1.05,-0.05 1.8,-0.7 0.75,-0.6 1,-1.6 0.25,-1 -0.15,-1.9 Q 3.7,1.85 2.85,1.3 2.05,0.8 1.15,0.85 0.25,0.9 -0.5,1.5 -1.3,2.1 -1.55,2.95 m 36.95,8.2 Q 35.35,10.2 34.6,9.55 33.85,8.85 32.9,8.85 32.1,8.8 31.45,9.3 q -0.7,0.45 -0.95,1.15 -0.3,0.7 -0.1,1.5 0.2,0.75 0.75,1.3 0.55,0.55 1.35,0.65 L 34,13.65 35.1,12.6 q 0.4,-0.7 0.3,-1.45"
         fill="#7a5353"
         fill-rule="evenodd"
         stroke="none"
         id="path5" />
    </g>
    <g
       id="sprite1"
       transform="translate(17.4,15.85)">
      <use
         ffdec:characterId="31"
         height="57.200001"
         transform="matrix(0.5366,0,0,0.5366,-16.6582,-14.546)"
         width="70.75"
         xlink:href="#sprite2"
         id="use5" />
    </g>
    <g
       id="sprite2"
       transform="translate(-8.65,-10.35)">
      <use
         ffdec:characterId="30"
         height="57.200001"
         transform="translate(8.65,10.35)"
         width="70.75"
         xlink:href="#shape1"
         id="use6" />
    </g>
    <g
       id="shape1"
       transform="translate(-8.65,-10.35)">
      <path
         d="m 14.8,41.7 q 0.65,-1.75 2.65,-2.5 1.8,-0.8 3.7,-0.25 1.15,0.45 2.25,1.2 l 0.9,0.4 q 1.65,0.9 2.85,2.5 L 37.8,30.1 q 2.35,-2.8 3.75,-3.95 1.5,-1.15 4.25,-2.4 18.2,-8.85 27.65,-12.6 2.15,-0.8 3.25,-0.8 h 0.8 l 1.9,2.4 -0.2,0.8 q -0.2,1.1 -1.55,3 -5.85,8.25 -18.85,23.8 -1.85,2.35 -3.35,3.5 -1.4,1.15 -4.75,2.75 l -15.15,7.15 q 1.2,1.6 1.75,3.4 l 0.2,1 0.55,2.5 q 0.1,1.95 -1.1,3.55 -1.2,1.65 -3.05,1.9 l -1.3,0.05 q -1.65,0.2 -3.45,-0.65 -1.85,-0.9 -3,-2.6 L 25,60.95 23.8,62.1 q -2.6,2.85 -4.3,3.95 -2.85,1.8 -5.5,1.45 l -1.65,-0.5 -1.2,-0.7 -0.2,-0.2 q -1,-0.85 -1.6,-1.9 L 9.25,64 9.15,63.8 8.75,62.4 q -0.2,-0.8 -0.05,-1.7 0.25,-2.65 2.7,-5.05 1.5,-1.3 4.9,-3.15 L 17.7,51.55 16.05,50 q -1.35,-1.5 -1.8,-3.6 -0.4,-1.85 0.25,-3.45 l 0.3,-1.25"
         fill="#000000"
         fill-opacity="0.372549"
         fill-rule="evenodd"
         stroke="none"
         id="path6" />
    </g>
  </defs>
</svg>
