<?xml version="1.0" encoding="UTF-8" standalone="no"?>
<svg
   ffdec:objectType="frame"
   height="83.081818"
   width="85.754913"
   version="1.1"
   id="svg5"
   xmlns:xlink="http://www.w3.org/1999/xlink"
   xmlns="http://www.w3.org/2000/svg"
   xmlns:svg="http://www.w3.org/2000/svg"
   xmlns:ffdec="https://www.free-decompiler.com/flash">
  <g
     transform="translate(40.381383,44.25)"
     id="g1">
    <use
       ffdec:characterId="17"
       height="119.15"
       id="rarity"
       transform="translate(-58.5,-60.65)"
       width="119.15"
       xlink:href="#sprite0" />
    <use
       ffdec:characterId="177"
       height="83.099998"
       transform="translate(-40.4,-44.25)"
       width="85.75"
       xlink:href="#shape0"
       id="use1" />
  </g>
  <defs
     id="defs5">
    <g
       id="shape0"
       transform="translate(40.1,46.75)">
      <path
         d="m 17.35,-12.65 q 5,-7.4 8.8,-15.4 1.35,-2.75 2.75,-3.4 l 2.55,-0.25 2.65,0.25 q 1.65,0 3.15,-0.85 1.45,-0.9 2.2,-2.35 0.45,-0.85 0.4,-1.45 -0.1,-0.8 -1.1,-1.5 -1.7,-1.3 -3.8,-1.4 -2.3,0 -3.65,1.5 l -1.8,2.2 q -0.85,0.65 -2.05,0.5 -0.8,-0.15 -1.35,-0.55 l -0.6,-0.5 -1.25,-1.6 -2.3,-2.4 q -0.9,-0.75 -1.7,-0.85 l -1.8,0.3 q -1.3,0.5 -2.65,1.35 -1.05,0.7 -1.35,1.35 l -0.25,0.95 -0.1,1 -0.3,1.15 q -0.15,0.65 0,1.1 l 0.65,0.9 q 0.55,0.45 2.4,1.3 1.55,0.75 2.1,1.55 l 0.4,0.8 0.25,0.55 -0.15,1.05 q -0.35,0.95 -1.1,1.85 l -1.9,2.3 -2.55,3.3 q -0.15,1.1 -1,2.25 l -1.3,1.65 -3.85,4.55 -1.2,1.3 -2.4,1.75 -0.4,0.25 0.8,1.55 0.45,0.6 0.6,0.05 7.5,0.2 0.8,0.2 0.45,-1.7 0.6,-1.2 1.05,-1.7 q 0.35,-1.1 1.35,-2.5 m -38.8,-3.35 1.05,-1.75 q 2.05,-3.7 8.2,-5.9 7.7,-2.55 13.55,-0.9 2.7,0.75 4.55,2.45 1.1,1 1.7,2.2 l 1.05,-1.25 q 2.35,-2.9 4.7,-4.95 -1.85,-0.9 -3.45,-2.5 -1.1,-1.2 -1.5,-2.1 -0.6,-1.25 -0.6,-3 l 0.3,-3.15 q 0.3,-2.25 0.75,-3.3 1.35,-3.15 6.45,-5.4 2.9,-1.2 4.55,-1.2 2.6,0 5,1.75 1.5,1.15 2.75,2.9 1.5,-1.3 3.5,-2 2.3,-0.8 4.65,-0.65 2.4,0.15 4.6,1.3 2.15,1.1 3.65,2.95 1.25,1.6 1.6,3.15 0.25,1.6 -0.35,3.7 -0.55,2.15 -1.65,3.55 -1.05,1.4 -2.95,2.5 -2.5,1.6 -4.9,2 l -2.95,0.15 -1.2,0.05 q -0.6,0.3 -1.1,1.35 -3,6.65 -7.35,12.3 l -0.15,0.3 -1.05,1.7 0.8,0.5 q 2.6,1.75 4.35,4.45 1.75,2.65 2.4,5.75 1.3,6.2 -1.85,12.15 -1.2,2.2 -2.7,3.45 -1.95,1.65 -5.85,2.5 0.15,3.4 -3.1,5.85 -2.1,1.55 -6.3,2.5 L 5.1,27.65 4.3,27.5 q -0.55,3.55 -2.05,5.45 -1.45,1.9 -4.15,2.8 -2.5,0.8 -4.9,0.5 l -1.8,-0.4 Q -9.8,35.4 -11,34.35 -13,32.65 -13.3,31 l -0.05,-0.35 q -7.45,1.85 -13.3,-0.8 -2.6,-1.15 -6.1,-4.1 -3.3,-3.05 -4.65,-5.1 -3.55,-5.6 -2.4,-13.25 1,-5.95 5.3,-12.6 2.8,-4.2 5.6,-6.45 2.35,-1.9 5.3,-3.15 1.6,-0.65 2.15,-1.2 M 9.9,-1.2 H 8.5 l -3.65,0.5 -0.15,0.05 -0.45,0.2 -0.5,0.15 -1.1,0.25 Q 1.75,0.05 1,-0.55 0.25,-1.15 0.05,-2 L -0.1,-3.65 q -0.1,-0.6 -0.75,-1.7 -1.1,-1.9 -1.85,-2.55 l -1.15,-0.75 -1,-0.9 q -1,-1.35 -0.35,-2.85 0.3,-0.65 1,-1.1 l 1.4,-0.45 q 0.95,0 2.25,0.85 l 2.1,1.8 q 0.4,-1 1.5,-2.4 l 1.3,-1.7 -0.4,-0.5 L 2.4,-18 q -0.9,-0.8 -3,-1 -6.35,-0.55 -12.05,2.4 -1.8,0.9 -2.15,2.05 l -0.15,1.45 -0.2,1.45 q -0.35,0.95 -1.6,1.5 l -0.7,0.25 -1.7,0.5 -0.9,0.3 q -5.6,2.05 -9.85,9.6 -2.5,4.35 -3.05,7.8 l -0.2,2 q -0.2,3.45 1.4,6.2 l 2.85,3.45 q 6.05,5.65 11.7,4.75 l 2.25,-0.55 2.25,-0.45 h 0.6 l 0.8,-0.85 q 0.8,-0.5 1.5,-0.3 0.65,0.2 1,0.95 0.3,0.65 0.2,1.4 l -0.05,1 0.3,1.45 0.1,1.5 0.75,1.05 q 0.9,0.7 2.2,0.75 l 2.35,-0.45 q 0.95,-0.5 1.2,-1 l 0.45,-1.1 q 0.4,-1.55 0.45,-3.25 l 0.3,-2.15 q 0.5,-1.2 1.85,-1.55 1.25,-0.2 2.1,0.5 l 1.05,0.55 3.1,0.2 q 2.2,-0.4 4.05,-1.25 2.25,-0.9 2.25,-2.4 l -0.25,-1 -0.4,-1.05 q -0.25,-0.9 0.15,-1.8 0.4,-0.95 1.25,-1.4 0.75,-0.45 2.25,-0.45 l 2.4,-0.15 q 2.95,-0.65 4.3,-4.85 0.95,-3.1 0.2,-6.2 Q 23,-1.45 20.6,-3.3 L 18.65,-4.65 H 18.6 l -0.8,1.2 -0.15,0.15 1.3,1.45 Q 19.8,-0.7 19.9,1 19.9,2.4 19,2.75 18.35,3.1 17.55,2.5 L 16.45,1.35 Q 15.5,0.25 14.3,-0.35 12.7,-1.1 9.9,-1.2 m -24.1,16.8 q -1.4,0.95 -3.1,1.1 -2.25,0.3 -4.15,-0.55 -0.95,-0.45 -1.6,-1.1 -0.8,-0.85 -1.2,-1.95 l -0.25,-1.5 0.05,-1.6 0.25,-1.55 q 0.45,-1.55 2.5,-3.6 1.95,-2.05 3.3,-2.85 l 1.25,-0.75 q 0.4,-0.4 0.8,-0.35 0.35,0.05 0.45,0.6 0,0.4 -0.25,0.8 l -1.1,1.95 -1.25,1.9 q -1.4,2.2 -1.55,4.2 l 0.15,0.85 0.7,0.55 1.6,0.25 q 0.85,-0.1 1.4,-0.7 0.65,-0.7 0.95,-2.65 0.3,-1.85 1.2,-2.55 l 1.95,-0.2 q 1,0.5 1.1,1.6 0.1,0.85 -0.45,2.5 l -0.05,1.1 -0.35,1 -0.2,0.8 -0.05,0.15 -0.3,0.7 -0.45,0.55 -1.35,1.3"
         fill="#000000"
         fill-rule="evenodd"
         stroke="none"
         id="path1" />
      <path
         d="m -33.15,10.3 0.2,-2 q 0.55,-3.45 3.05,-7.8 4.25,-7.55 9.85,-9.6 l 0.9,-0.3 1.7,-0.5 0.7,-0.25 q 1.25,-0.55 1.6,-1.5 l 0.2,-1.45 0.15,-1.45 q 0.35,-1.15 2.15,-2.05 5.7,-2.95 12.05,-2.4 2.1,0.2 3,1 l 1.55,2.1 0.4,0.5 -1.3,1.7 q -1.1,1.4 -1.5,2.4 l -2.1,-1.8 q -1.3,-0.85 -2.25,-0.85 l -1.4,0.45 q -0.7,0.45 -1,1.1 -0.65,1.5 0.35,2.85 l 1,0.9 1.15,0.75 q 0.75,0.65 1.85,2.55 0.65,1.1 0.75,1.7 L 0.05,-2 q 0.2,0.85 0.95,1.45 0.75,0.6 1.65,0.5 L 3.75,-0.3 4.25,-0.45 4.7,-0.65 4.85,-0.7 8.5,-1.2 h 1.4 q 0.4,1.1 0.15,2.7 -0.55,4.25 -3.35,8.05 -2.65,3.55 -6.6,5.8 -6.75,3.9 -17.05,3.9 -6.2,0 -9.95,-1.9 -2.95,-1.5 -4.85,-4.35 l -1.4,-2.7 m 18.95,5.3 1.35,-1.3 0.45,-0.55 0.3,-0.7 0.05,-0.15 0.2,-0.8 0.35,-1 0.05,-1.1 Q -10.9,8.35 -11,7.5 -11.1,6.4 -12.1,5.9 l -1.95,0.2 q -0.9,0.7 -1.2,2.55 -0.3,1.95 -0.95,2.65 -0.55,0.6 -1.4,0.7 l -1.6,-0.25 -0.7,-0.55 -0.15,-0.85 q 0.15,-2 1.55,-4.2 l 1.25,-1.9 1.1,-1.95 q 0.25,-0.4 0.25,-0.8 -0.1,-0.55 -0.45,-0.6 -0.4,-0.05 -0.8,0.35 L -18.4,2 q -1.35,0.8 -3.3,2.85 -2.05,2.05 -2.5,3.6 l -0.25,1.55 -0.05,1.6 0.25,1.5 q 0.4,1.1 1.2,1.95 0.65,0.65 1.6,1.1 1.9,0.85 4.15,0.55 1.7,-0.15 3.1,-1.1"
         fill="#777d73"
         fill-rule="evenodd"
         stroke="none"
         id="path2" />
      <path
         d="m -33.15,10.3 1.4,2.7 q 1.9,2.85 4.85,4.35 3.75,1.9 9.95,1.9 10.3,0 17.05,-3.9 3.95,-2.25 6.6,-5.8 2.8,-3.8 3.35,-8.05 0.25,-1.6 -0.15,-2.7 2.8,0.1 4.4,0.85 1.2,0.6 2.15,1.7 l 1.1,1.15 Q 18.35,3.1 19,2.75 19.9,2.4 19.9,1 19.8,-0.7 18.95,-1.85 l -1.3,-1.45 0.15,-0.15 0.8,-1.2 h 0.05 l 1.95,1.35 q 2.4,1.85 3.15,5.15 0.75,3.1 -0.2,6.2 -1.35,4.2 -4.3,4.85 l -2.4,0.15 q -1.5,0 -2.25,0.45 -0.85,0.45 -1.25,1.4 -0.4,0.9 -0.15,1.8 l 0.4,1.05 0.25,1 q 0,1.5 -2.25,2.4 Q 9.75,22 7.55,22.4 L 4.45,22.2 3.4,21.65 q -0.85,-0.7 -2.1,-0.5 -1.35,0.35 -1.85,1.55 l -0.3,2.15 q -0.05,1.7 -0.45,3.25 l -0.45,1.1 q -0.25,0.5 -1.2,1 L -5.3,30.65 Q -6.6,30.6 -7.5,29.9 l -0.75,-1.05 -0.1,-1.5 -0.3,-1.45 0.05,-1 q 0.1,-0.75 -0.2,-1.4 -0.35,-0.75 -1,-0.95 -0.7,-0.2 -1.5,0.3 l -0.8,0.85 h -0.6 l -2.25,0.45 -2.25,0.55 q -5.65,0.9 -11.7,-4.75 l -2.85,-3.45 q -1.6,-2.75 -1.4,-6.2"
         fill="#5e635b"
         fill-rule="evenodd"
         stroke="none"
         id="path3" />
      <path
         d="m 17.35,-12.65 q -1,1.4 -1.35,2.5 l -1.05,1.7 -0.6,1.2 -0.45,1.7 -0.8,-0.2 L 5.6,-5.95 5,-6 4.55,-6.6 l -0.8,-1.55 0.4,-0.25 2.4,-1.75 1.2,-1.3 3.85,-4.55 1.3,-1.65 q 0.85,-1.15 1,-2.25 l 2.55,-3.3 1.9,-2.3 q 0.75,-0.9 1.1,-1.85 l 0.15,-1.05 -0.25,-0.55 -0.4,-0.8 q -0.55,-0.8 -2.1,-1.55 -1.85,-0.85 -2.4,-1.3 l -0.65,-0.9 q -0.15,-0.45 0,-1.1 l 0.3,-1.15 0.1,-1 0.25,-0.95 q 0.3,-0.65 1.35,-1.35 1.35,-0.85 2.65,-1.35 l 1.8,-0.3 q 0.8,0.1 1.7,0.85 l 2.3,2.4 1.25,1.6 0.6,0.5 q 0.55,0.4 1.35,0.55 1.2,0.15 2.05,-0.5 l 1.8,-2.2 q 1.35,-1.5 3.65,-1.5 2.1,0.1 3.8,1.4 1,0.7 1.1,1.5 0.05,0.6 -0.4,1.45 -0.75,1.45 -2.2,2.35 -1.5,0.85 -3.15,0.85 l -2.65,-0.25 -2.55,0.25 q -1.4,0.65 -2.75,3.4 -3.8,8 -8.8,15.4"
         fill="#b9b9b9"
         fill-rule="evenodd"
         stroke="none"
         id="path4" />
    </g>
    <g
       id="sprite1"
       transform="translate(17.4,15.85)">
      <use
         ffdec:characterId="31"
         height="57.200001"
         transform="matrix(0.5366,0,0,0.5366,-16.6582,-14.546)"
         width="70.75"
         xlink:href="#sprite2"
         id="use4" />
    </g>
    <g
       id="sprite2"
       transform="translate(-8.65,-10.35)">
      <use
         ffdec:characterId="30"
         height="57.200001"
         transform="translate(8.65,10.35)"
         width="70.75"
         xlink:href="#shape1"
         id="use5" />
    </g>
    <g
       id="shape1"
       transform="translate(-8.65,-10.35)">
      <path
         d="m 14.8,41.7 q 0.65,-1.75 2.65,-2.5 1.8,-0.8 3.7,-0.25 1.15,0.45 2.25,1.2 l 0.9,0.4 q 1.65,0.9 2.85,2.5 L 37.8,30.1 q 2.35,-2.8 3.75,-3.95 1.5,-1.15 4.25,-2.4 18.2,-8.85 27.65,-12.6 2.15,-0.8 3.25,-0.8 h 0.8 l 1.9,2.4 -0.2,0.8 q -0.2,1.1 -1.55,3 -5.85,8.25 -18.85,23.8 -1.85,2.35 -3.35,3.5 -1.4,1.15 -4.75,2.75 l -15.15,7.15 q 1.2,1.6 1.75,3.4 l 0.2,1 0.55,2.5 q 0.1,1.95 -1.1,3.55 -1.2,1.65 -3.05,1.9 l -1.3,0.05 q -1.65,0.2 -3.45,-0.65 -1.85,-0.9 -3,-2.6 L 25,60.95 23.8,62.1 q -2.6,2.85 -4.3,3.95 -2.85,1.8 -5.5,1.45 l -1.65,-0.5 -1.2,-0.7 -0.2,-0.2 q -1,-0.85 -1.6,-1.9 L 9.25,64 9.15,63.8 8.75,62.4 q -0.2,-0.8 -0.05,-1.7 0.25,-2.65 2.7,-5.05 1.5,-1.3 4.9,-3.15 L 17.7,51.55 16.05,50 q -1.35,-1.5 -1.8,-3.6 -0.4,-1.85 0.25,-3.45 l 0.3,-1.25"
         fill="#000000"
         fill-opacity="0.372549"
         fill-rule="evenodd"
         stroke="none"
         id="path5" />
    </g>
  </defs>
</svg>
