<?xml version="1.0" encoding="UTF-8" standalone="no"?>
<svg
   ffdec:objectType="frame"
   height="81.939751"
   width="75.643677"
   version="1.1"
   id="svg5"
   sodipodi:docname="ITEM Flower Mask.svg"
   xmlns:inkscape="http://www.inkscape.org/namespaces/inkscape"
   xmlns:sodipodi="http://sodipodi.sourceforge.net/DTD/sodipodi-0.dtd"
   xmlns:xlink="http://www.w3.org/1999/xlink"
   xmlns="http://www.w3.org/2000/svg"
   xmlns:svg="http://www.w3.org/2000/svg"
   xmlns:ffdec="https://www.free-decompiler.com/flash">
  <sodipodi:namedview
     id="namedview5"
     pagecolor="#ffffff"
     bordercolor="#000000"
     borderopacity="0.25"
     inkscape:showpageshadow="2"
     inkscape:pageopacity="0.0"
     inkscape:pagecheckerboard="0"
     inkscape:deskcolor="#d1d1d1"
     fit-margin-top="5"
     fit-margin-left="5"
     fit-margin-right="5"
     fit-margin-bottom="5" />
  <g
     transform="translate(41.605674,36.687578)"
     id="g1">
    <use
       ffdec:characterId="17"
       height="119.15"
       id="rarity"
       transform="translate(-58.5,-60.65)"
       width="119.15"
       xlink:href="#sprite0" />
    <use
       ffdec:characterId="989"
       height="81.949997"
       transform="translate(-41.6,-36.7)"
       width="75.650002"
       xlink:href="#shape0"
       id="use1" />
  </g>
  <defs
     id="defs5">
    <g
       id="shape0"
       transform="translate(88.4,38.05)">
      <path
         d="m -33.25,-37.15 q 7.8,-0.5 10.45,6.95 3.15,8.75 -3.35,15.55 l -5.05,5.7 -0.3,0.35 1.55,-0.3 q 11.35,-0.85 16.85,8.5 0.65,1.05 0.05,2.15 -2.85,5.5 -8.4,7.2 1.25,1.9 1.85,4.45 1.55,6.6 -0.5,12.95 -1.95,10 -9.7,16.5 -2.65,2.2 -5.1,-0.2 l -1.95,-1.5 q -7.4,-4.35 -11.55,-11.65 -3.4,-4.85 -4.05,-10.45 -5.35,5.5 -13.45,3.25 -1.4,-0.35 -2.05,-1.65 -2.75,-5.6 -0.7,-10.75 -7.2,-0.65 -13.1,-5.1 -6.85,-5.2 -6.65,-13.55 0.2,-7.4 1.15,-14.65 0.4,-2.8 1.4,-5.4 0.6,-1.55 2.2,-1.65 9.2,-1.15 17.4,2.75 l 1.8,0.9 q 0.4,-1.95 1.4,-3.9 2.95,-5.7 9.15,-7.3 7.95,-0.55 10.4,6.95 l 0.6,2.2 1.8,-2.95 q 3.05,-4.25 7.85,-5.35 m -33.65,40.9 -5.2,-1.5 q -1.75,-0.7 -3.1,-2.05 -4,-3.95 -1.2,-8.75 1.4,-2.3 3.35,-4.05 -1.9,-1.55 -3.35,-3.6 -1,-1.45 -1.45,-3.15 L -77.6,-20 q 0.3,-0.4 0.75,-0.45 l 0.4,0.2 0.35,0.2 0.15,0.2 0.15,0.2 0.1,0.2 2.95,2.35 0.9,1.1 q 1.05,0.45 1.95,1.1 3.55,-1.95 7.75,-1.25 -2.05,-3.1 -2.5,-6.2 -1.4,0.15 -3.35,-0.7 -6.6,-2.8 -13.5,-2.05 -0.35,4.9 -1.5,9.65 -1.9,7.45 2.3,13.55 3,4.3 8.15,5.65 3.6,0.95 7.3,1.05 l 0.7,-0.7 -2.35,-0.35 m 17.7,-15.9 1.1,-0.75 -0.05,-0.15 v -0.45 l 0.05,-0.85 0.25,-0.65 v -0.2 -0.2 -0.45 l 0.15,-0.65 0.15,-0.2 q 0.4,-2.85 0.65,-5.8 0.4,-5.25 -2.65,-9.45 l -0.3,-0.2 -0.55,-0.25 -0.45,-0.2 h -2.55 q -1.6,0.45 -2.7,1.6 -2.15,2.1 -3.15,4.9 v 0.25 1.05 1.5 0.85 q 3.35,5.9 5.85,12.2 1.85,-1.35 4.2,-1.9 m -9.2,7.3 1.45,-2.05 q -1.25,-0.3 -2.55,-1.35 -2.95,-2.45 -6.8,-1.8 -1.25,0.5 -2.2,1.4 -1.65,1.65 -2.7,3.75 l -0.1,0.2 0.05,0.2 0.35,0.45 0.65,0.85 0.3,0.45 q 5.35,1.4 10.9,1.2 l 0.65,-3.3 m 20.6,-5.5 1.2,-0.15 q 3.1,-2.75 5.65,-6.05 1.95,-2.6 3.6,-5.45 l 0.7,-1.15 v -0.2 -1.3 -2.15 -0.4 l -0.2,-0.45 q -0.3,-1.3 -1,-2.45 l -1.75,-2.05 -0.3,-0.1 -4.2,0.3 q -3,1.95 -4.65,5 -1.75,3.25 -2.85,6.8 v 0.2 q 0.05,0.9 -0.15,1.75 l -0.7,2.8 v 0.2 l -0.05,0.85 -0.15,1.05 -0.05,0.5 q 2,0.7 3.35,2.65 l 1.55,-0.2 M -50.55,3.6 q 8.1,0.4 8.8,-7.1 l -0.65,-1.25 q -0.9,-4.45 -6.15,-4.1 -1.25,0.15 -2.55,0.9 -4.15,2.35 -3.3,6.9 0.45,2.4 1.9,3.45 0.7,0.95 1.95,1.2 m 12.7,-1.1 -1,1.75 2.15,-1.3 0.3,-0.1 q 1.05,0.8 2.45,1.15 l 3.35,0.45 q 3.95,0.95 8.15,-0.4 3.15,-1.05 4.6,-3.8 -7.3,-7.05 -16.85,-2.6 -1.2,0.6 -2.1,0.65 l -0.2,1.65 h -0.05 l -0.1,0.2 -0.2,0.65 -0.05,0.45 0.05,0.05 -0.5,1.2 m -4.35,4.8 q -2.05,1.25 -4.15,1.7 0.45,1.15 0,2.9 -0.45,1.9 0,3.8 1.25,5.2 6.25,4.5 1.45,-0.25 2.25,-1.5 1.55,-2.35 1.8,-5.15 v -0.2 l -0.1,-0.45 -0.1,-0.45 -0.1,-0.65 0.05,-0.2 -0.1,-0.2 -0.4,-1.1 -0.3,-1.5 -0.2,-0.85 q -2.65,-2 -1.75,-3.4 -1.25,1.6 -3.15,2.75 m 10.4,2.8 q 0.85,4.25 -0.35,7.75 l 0.45,0.85 0.6,1.3 0.05,0.2 v 0.2 0.2 q 1.65,4.3 0.4,8.85 -0.55,1.95 -2.25,3.2 l -0.7,0.05 -0.8,-0.2 -0.2,-0.25 -0.05,-0.2 -0.15,-0.4 0.75,-2.15 0.45,-1.75 -0.15,-1.5 v -1.7 L -34,23.9 -34.1,22.85 -34.5,21.9 q -1.4,1.6 -3.35,3 -0.65,0.45 -1.4,0.55 -4.85,0.7 -7.85,-1.6 5.3,9.1 14.75,14.05 l 0.6,0.3 q 4.2,-4.35 5.95,-10.4 l 1.35,-4.05 q 0.6,-3.4 0,-6.85 -0.4,-2.2 -1.15,-4.3 -1,-1.4 -1.35,-2.85 L -31.8,10.1 M -54.1,7.7 q -2.55,-1.25 -3.75,-3.6 l -1.6,1.55 0.05,0.05 -0.25,0.3 -2.8,3.55 -0.7,0.2 q -2.1,3.45 -1.05,7.8 l 0.2,0.2 0.2,0.2 0.15,0.15 0.1,0.05 0.55,0.2 0.6,0.2 1.2,-0.1 q 2.45,-0.25 4.4,-1.8 l 0.4,-0.25 q 3.2,-3.55 5.55,-7.5 L -54.1,7.7"
         fill="#000000"
         fill-rule="evenodd"
         stroke="none"
         id="path1" />
      <path
         d="m -37.8,-10.35 -1.55,0.2 q -1.35,-1.95 -3.35,-2.65 l 0.05,-0.5 0.15,-1.05 0.05,-0.85 v -0.2 l 0.7,-2.8 q 0.2,-0.85 0.15,-1.75 v -0.2 q 1.1,-3.55 2.85,-6.8 1.65,-3.05 4.65,-5 l 4.2,-0.3 0.3,0.1 1.75,2.05 q 0.7,1.15 1,2.45 l 0.2,0.45 v 0.4 2.15 1.3 0.2 l -0.7,1.15 q -1.65,2.85 -3.6,5.45 -2.55,3.3 -5.65,6.05 l -1.2,0.15 m -20.6,5.5 -0.65,3.3 q -5.55,0.2 -10.9,-1.2 l -0.3,-0.45 -0.65,-0.85 -0.35,-0.45 -0.05,-0.2 0.1,-0.2 q 1.05,-2.1 2.7,-3.75 0.95,-0.9 2.2,-1.4 3.85,-0.65 6.8,1.8 1.3,1.05 2.55,1.35 l -1.45,2.05 m 9.2,-7.3 q -2.35,0.55 -4.2,1.9 -2.5,-6.3 -5.85,-12.2 v -0.85 -1.5 -1.05 -0.25 q 1,-2.8 3.15,-4.9 1.1,-1.15 2.7,-1.6 h 2.55 l 0.45,0.2 0.55,0.25 0.3,0.2 q 3.05,4.2 2.65,9.45 -0.25,2.95 -0.65,5.8 l -0.15,0.2 -0.15,0.65 v 0.45 0.2 0.2 l -0.25,0.65 -0.05,0.85 v 0.45 l 0.05,0.15 -1.1,0.75 m 7,19.45 q 1.9,-1.15 3.15,-2.75 -0.9,1.4 1.75,3.4 l 0.2,0.85 0.3,1.5 0.4,1.1 0.1,0.2 -0.05,0.2 0.1,0.65 0.1,0.45 0.1,0.45 v 0.2 q -0.25,2.8 -1.8,5.15 -0.8,1.25 -2.25,1.5 -5,0.7 -6.25,-4.5 -0.45,-1.9 0,-3.8 0.45,-1.75 0,-2.9 2.1,-0.45 4.15,-1.7 m 4.35,-4.8 0.5,-1.2 -0.05,-0.05 0.05,-0.45 0.2,-0.65 0.1,-0.2 H -37 l 0.2,-1.65 q 0.9,-0.05 2.1,-0.65 9.55,-4.45 16.85,2.6 -1.45,2.75 -4.6,3.8 -4.2,1.35 -8.15,0.4 L -33.95,4 q -1.4,-0.35 -2.45,-1.15 l -0.3,0.1 -2.15,1.3 1,-1.75 m -16.25,5.2 3.25,1.2 q -2.35,3.95 -5.55,7.5 l -0.4,0.25 q -1.95,1.55 -4.4,1.8 l -1.2,0.1 -0.6,-0.2 -0.55,-0.2 -0.1,-0.05 -0.15,-0.15 -0.2,-0.2 -0.2,-0.2 q -1.05,-4.35 1.05,-7.8 l 0.7,-0.2 2.8,-3.55 0.25,-0.3 -0.05,-0.05 1.6,-1.55 q 1.2,2.35 3.75,3.6"
         fill="#ffffff"
         fill-rule="evenodd"
         stroke="none"
         id="path2" />
      <path
         d="m -66.9,3.75 2.35,0.35 -0.7,0.7 Q -68.95,4.7 -72.55,3.75 -77.7,2.4 -80.7,-1.9 -84.9,-8 -83,-15.45 q 1.15,-4.75 1.5,-9.65 6.9,-0.75 13.5,2.05 1.95,0.85 3.35,0.7 0.45,3.1 2.5,6.2 -4.2,-0.7 -7.75,1.25 -0.9,-0.65 -1.95,-1.1 l -0.9,-1.1 -2.95,-2.35 -0.1,-0.2 -0.15,-0.2 -0.15,-0.2 -0.35,-0.2 -0.4,-0.2 q -0.45,0.05 -0.75,0.45 l -0.25,0.65 q 0.45,1.7 1.45,3.15 1.45,2.05 3.35,3.6 -1.95,1.75 -3.35,4.05 -2.8,4.8 1.2,8.75 1.35,1.35 3.1,2.05 l 5.2,1.5 m 35.1,6.35 4.85,-0.35 q 0.35,1.45 1.35,2.85 0.75,2.1 1.15,4.3 0.6,3.45 0,6.85 l -1.35,4.05 q -1.75,6.05 -5.95,10.4 l -0.6,-0.3 q -9.45,-4.95 -14.75,-14.05 3,2.3 7.85,1.6 0.75,-0.1 1.4,-0.55 1.95,-1.4 3.35,-3 l 0.4,0.95 0.1,1.05 0.25,0.65 v 1.7 l 0.15,1.5 -0.45,1.75 -0.75,2.15 0.15,0.4 0.05,0.2 0.2,0.25 0.8,0.2 0.7,-0.05 q 1.7,-1.25 2.25,-3.2 1.25,-4.55 -0.4,-8.85 v -0.2 -0.2 l -0.05,-0.2 -0.6,-1.3 -0.45,-0.85 q 1.2,-3.5 0.35,-7.75"
         fill="#97a89b"
         fill-rule="evenodd"
         stroke="none"
         id="path3" />
      <path
         d="m -50.55,3.6 q -1.25,-0.25 -1.95,-1.2 -1.45,-1.05 -1.9,-3.45 -0.85,-4.55 3.3,-6.9 1.3,-0.75 2.55,-0.9 5.25,-0.35 6.15,4.1 l 0.65,1.25 q -0.7,7.5 -8.8,7.1"
         fill="#ece8b7"
         fill-rule="evenodd"
         stroke="none"
         id="path4" />
    </g>
    <g
       id="sprite1"
       transform="translate(17.4,15.85)">
      <use
         ffdec:characterId="31"
         height="57.200001"
         transform="matrix(0.5366,0,0,0.5366,-16.6582,-14.546)"
         width="70.75"
         xlink:href="#sprite2"
         id="use4" />
    </g>
    <g
       id="sprite2"
       transform="translate(-8.65,-10.35)">
      <use
         ffdec:characterId="30"
         height="57.200001"
         transform="translate(8.65,10.35)"
         width="70.75"
         xlink:href="#shape1"
         id="use5" />
    </g>
    <g
       id="shape1"
       transform="translate(-8.65,-10.35)">
      <path
         d="m 14.8,41.7 q 0.65,-1.75 2.65,-2.5 1.8,-0.8 3.7,-0.25 1.15,0.45 2.25,1.2 l 0.9,0.4 q 1.65,0.9 2.85,2.5 L 37.8,30.1 q 2.35,-2.8 3.75,-3.95 1.5,-1.15 4.25,-2.4 18.2,-8.85 27.65,-12.6 2.15,-0.8 3.25,-0.8 h 0.8 l 1.9,2.4 -0.2,0.8 q -0.2,1.1 -1.55,3 -5.85,8.25 -18.85,23.8 -1.85,2.35 -3.35,3.5 -1.4,1.15 -4.75,2.75 l -15.15,7.15 q 1.2,1.6 1.75,3.4 l 0.2,1 0.55,2.5 q 0.1,1.95 -1.1,3.55 -1.2,1.65 -3.05,1.9 l -1.3,0.05 q -1.65,0.2 -3.45,-0.65 -1.85,-0.9 -3,-2.6 L 25,60.95 23.8,62.1 q -2.6,2.85 -4.3,3.95 -2.85,1.8 -5.5,1.45 l -1.65,-0.5 -1.2,-0.7 -0.2,-0.2 q -1,-0.85 -1.6,-1.9 L 9.25,64 9.15,63.8 8.75,62.4 q -0.2,-0.8 -0.05,-1.7 0.25,-2.65 2.7,-5.05 1.5,-1.3 4.9,-3.15 L 17.7,51.55 16.05,50 q -1.35,-1.5 -1.8,-3.6 -0.4,-1.85 0.25,-3.45 l 0.3,-1.25"
         fill="#000000"
         fill-opacity="0.372549"
         fill-rule="evenodd"
         stroke="none"
         id="path5" />
    </g>
  </defs>
</svg>
