<?xml version="1.0" encoding="UTF-8" standalone="no"?>
<svg
   ffdec:objectType="frame"
   height="64.757095"
   width="63.320942"
   version="1.1"
   id="svg6"
   sodipodi:docname="ITEM Heart.svg"
   xmlns:inkscape="http://www.inkscape.org/namespaces/inkscape"
   xmlns:sodipodi="http://sodipodi.sourceforge.net/DTD/sodipodi-0.dtd"
   xmlns:xlink="http://www.w3.org/1999/xlink"
   xmlns="http://www.w3.org/2000/svg"
   xmlns:svg="http://www.w3.org/2000/svg"
   xmlns:ffdec="https://www.free-decompiler.com/flash">
  <sodipodi:namedview
     id="namedview6"
     pagecolor="#ffffff"
     bordercolor="#000000"
     borderopacity="0.25"
     inkscape:showpageshadow="2"
     inkscape:pageopacity="0.0"
     inkscape:pagecheckerboard="0"
     inkscape:deskcolor="#d1d1d1"
     fit-margin-top="5"
     fit-margin-left="5"
     fit-margin-right="5"
     fit-margin-bottom="5" />
  <g
     transform="translate(32.932051,34.582798)"
     id="g1">
    <use
       ffdec:characterId="17"
       height="119.15"
       id="rarity"
       transform="translate(-58.5,-60.65)"
       width="119.15"
       xlink:href="#sprite0" />
    <use
       ffdec:characterId="732"
       height="64.75"
       transform="translate(-32.95,-34.6)"
       width="63.349998"
       xlink:href="#shape0"
       id="use1" />
  </g>
  <defs
     id="defs6">
    <g
       id="shape0"
       transform="translate(33.5,35.35)">
      <path
         d="m 0.65,-22.2 q 0.8,2.7 1.9,5.3 0.9,2.15 1.1,4.5 0.15,1.7 -0.45,2.9 0.95,1.65 1.05,3.55 l 0.1,0.25 0.25,0.4 0.05,0.2 0.1,0.25 q 4.05,0 7.25,1.35 1.2,-2 3.5,-3.35 3.55,-2.05 7.45,-3.25 1.25,-0.35 2.15,-1.05 v -0.2 -0.45 -0.2 q -0.1,-0.45 -0.05,-0.85 v -0.45 l -0.1,-0.2 -0.25,-0.45 -0.05,-0.2 -0.4,-0.9 -0.2,-0.4 -0.15,-0.2 -0.45,-0.25 -0.2,-0.05 h -2.7 q -2.9,2.45 -6.1,4.05 -1.5,2.1 -3.65,3.85 L 10.4,-7.45 9.8,-7 9.45,-6.6 9.25,-6.35 H 8.45 Q 8.1,-6.7 8.05,-7.2 L 7.95,-7.65 8.6,-9.6 8.75,-10.25 q 1.65,-2.1 2.95,-4.4 0,-1.7 1.65,-3.4 l 1,-2.8 0.1,-1.35 v -2.35 l -0.05,-0.6 -0.15,-0.25 -0.25,-0.45 -0.1,-0.2 -0.15,-0.4 -0.2,-0.2 -0.45,-0.45 -0.15,-0.2 -0.2,-0.45 q -3.95,-3.15 -9.05,-2 -1.75,0.35 -2.95,1.4 l -1.25,1.4 q 0.45,2.4 1.15,4.75 m 5.85,-5.9 q 5.8,0.4 3.95,5.4 -0.8,2.1 -3.3,1.65 Q 1.9,-22 4.1,-26.6 4.8,-28.15 6.5,-28.1 M -11.7,-17 q 5.3,-0.2 9.35,2.15 L -2.4,-15.5 q -3.35,-5.65 -3.1,-12 0.15,-3.75 3.55,-5.65 3.15,-1.75 6.55,-2.1 11,-0.95 14.5,9 0.5,1.35 0.6,2.85 l -0.1,2.75 q 4.75,-1 7.75,2.65 2.8,3.3 2.45,7.75 -0.15,1.85 -1.9,2.65 -4.9,2.35 -10,4.15 -1.5,0.5 -2.65,1.6 l -0.1,0.1 q 3.3,2.4 5.45,6.7 4.35,8.65 -1.4,16.55 -4.05,5.55 -10.9,7.1 -9.55,2.1 -18.45,-1.15 -5.8,-2.15 -7.2,-8.15 -9.85,1.9 -14.65,-5.9 -1.7,-2.7 -1.45,-6.05 0.75,-9.7 7.4,-16.85 5.95,-6.4 14.35,-7.5 M -1.5,2.4 -1.55,2.35 -1.7,2.15 V 1.95 L -1.75,1.7 -1.85,1.3 q 0.3,-1.1 1,-2 0.75,-1.05 1,-2.3 l 0.3,-0.65 q -1.05,-3.8 -4.2,-5.75 l -1.5,-0.8 -1.9,-0.7 -4.2,-0.6 q -3.05,0.85 -5.5,2.3 -6.95,4 -9.55,12.4 l -0.15,0.55 q -0.85,2.95 -0.6,6.1 0.6,1.45 1.85,2.25 1.45,0.95 3.1,1.5 l 8.8,-0.25 q 0.85,0.1 1.15,0.95 0.6,1.8 0.55,3.65 0.35,0.5 0.45,1.1 l 0.6,1.05 q 0.25,0.3 0.35,0.65 10.7,5.25 21.75,0 3.15,-1.5 4.55,-4.6 l 1.1,-3 V 12.3 11.85 11.25 11 Q 15.65,4.65 9.9,1.95 L 9.3,1.65 Q 8.2,1.15 7.05,1 L 3.75,1.15 3.5,1.2 3.15,1.25 2.4,1.3 2.25,1.45 1.3,2.35 q -0.7,0.6 -1.55,0.8 L -0.85,2.95 -1.2,2.8 -1.4,2.55 -1.5,2.4 m -2.6,-4.2 q 0.6,1.85 0,4.35 -0.5,2.25 -2.25,3.6 -1,1.45 -2.6,2.3 L -10.3,9 h -0.1 L -11.2,8.6 -11.45,8.45 -11.5,8.2 -11.55,8 -11.5,7.8 V 7.6 l 0.8,-1 1.3,-1.15 q 1,-1.3 1.4,-2.8 L -7.75,0.5 Q -7.8,-1 -8.9,-2.05 L -9,-2.5 -9.05,-3.35 -8.9,-4 l 0.3,-0.4 0.75,-0.6 0.2,-0.05 0.5,-0.05 v -0.05 q 2.3,1.25 3.05,3.35 M 7.05,14.9 Q 6.4,16.25 4.8,15.55 L 3.4,14.7 Q 1.65,13.35 0.3,11.6 0,10.3 0.25,9.1 0.45,7.6 1.5,6.3 2.6,4.9 4.3,4.7 L 6.05,5.05 H 6.1 l 0.65,0.6 v 0.4 L 6.6,6.5 6.45,6.65 5.25,7.05 4.8,7.25 4.45,7.35 4.1,7.95 3.9,8.65 3.8,9.5 q 1.4,1.85 3.25,3.35 l 0.4,0.5 -0.4,1.55 M 1.25,15.7 1.3,16 q 0.4,2 -0.5,3.75 L 0.65,19.8 0.4,19.85 -0.05,19.75 -0.25,19.5 -0.4,19.3 -0.6,18.65 -0.8,17.6 -0.85,16.75 -1.15,16.3 -2.25,15.05 Q -3.2,14.25 -4.4,13.8 L -6.9,13.95 -9,13.5 -9.25,13.3 -9.45,13.1 -9.8,12.45 V 11.6 l 0.1,-0.45 0.15,-0.2 0.15,-0.2 0.2,-0.2 0.55,-0.4 L -8.4,10.1 -7.95,10.05 -7.9,10 -5.45,9.95 q 5.45,0.3 6.7,5.75"
         fill="#000000"
         fill-rule="evenodd"
         stroke="none"
         id="path1" />
      <path
         d="m 0.75,-28.35 0.4,-0.1 1,0.3 0.65,0.35 0.15,0.2 0.1,0.2 0.1,0.25 0.1,0.2 -0.25,1.5 q -0.35,0.9 -1.4,1.15 l -0.4,0.85 -0.55,1.25 q -0.7,-2.35 -1.15,-4.75 l 1.25,-1.4 M 0.25,9.1 -2.45,8.35 q -1,-0.45 -1.2,-1.55 1.9,-3.9 6.8,-3.9 V 2.85 q 1.7,0 2.75,1.2 0.3,0.35 0.25,0.8 L 6.1,5.05 H 6.05 L 4.3,4.7 Q 2.6,4.9 1.5,6.3 0.45,7.6 0.25,9.1 M 4.8,7.25 4.1,7.95 4.45,7.35 4.8,7.25 m -21,-13.45 2.1,0.3 0.75,0.3 q 2.1,5.15 -3.4,8.6 -4.5,2.8 -8.35,-0.05 -0.45,-0.35 -0.25,-0.95 2.4,-6.5 9.15,-8.2 m 9.9,-2.15 0.6,0.15 0.45,0.45 q 0.35,0.35 0.35,0.8 l -0.05,0.2 -0.15,0.45 -0.25,0.45 -0.35,0.15 -0.6,0.2 -0.55,-0.2 -0.35,-0.15 -0.25,-0.2 -0.3,-0.65 -0.05,-0.25 0.05,-0.2 0.3,-0.65 0.25,-0.2 0.35,-0.2 0.55,-0.15"
         fill="#ffffff"
         fill-rule="evenodd"
         stroke="none"
         id="path2" />
      <path
         d="m -16.85,-9.2 q 2.45,-1.45 5.5,-2.3 l 4.2,0.6 -2.05,-0.1 -1.3,0.15 q -3.45,0.4 -6.35,1.65"
         fill="#906f6f"
         fill-rule="evenodd"
         stroke="none"
         id="path3" />
      <path
         d="m -3.75,-9.4 1.05,1.1 v 0.2 0.25 l -0.05,0.2 -0.1,0.2 q 0.05,3.1 -1.25,5.65 -0.75,-2.1 -3.05,-3.35 v 0.05 l -0.5,0.05 -0.2,0.05 -0.75,0.6 -0.3,0.4 -0.15,0.65 0.05,0.85 0.1,0.45 Q -7.8,-1 -7.75,0.5 L -8,2.65 -11.85,5.55 Q -17.4,9.35 -23.6,7.35 -24.65,7 -25.35,6.05 l -1.2,-2.3 0.15,-0.55 q 2.6,-8.4 9.55,-12.4 2.9,-1.25 6.35,-1.65 l 1.3,-0.15 2.05,0.1 1.9,0.7 1.5,0.8 M 9.9,1.95 q 1.6,0.9 2.75,2.6 1.25,1.8 0.55,3.95 -1.5,4.55 -6.15,6.4 l 0.4,-1.55 -0.4,-0.5 Q 5.2,11.35 3.8,9.5 L 3.9,8.65 4.1,7.95 4.8,7.25 5.25,7.05 6.45,6.65 6.6,6.5 6.75,6.05 V 5.65 L 6.1,5.05 6.15,4.85 Q 6.2,4.4 5.9,4.05 4.85,2.85 3.15,2.85 V 2.9 q -4.9,0 -6.8,3.9 0.2,1.1 1.2,1.55 L 0.25,9.1 Q 0,10.3 0.3,11.6 1.65,13.35 3.4,14.7 L 4.8,15.55 1.25,15.7 Q 0,10.25 -5.45,9.95 -6.25,8 -5.3,5.75 q 1,-2.45 3.6,-3.3 l 0.2,-0.05 0.1,0.15 0.2,0.25 0.35,0.15 0.6,0.2 Q 0.6,2.95 1.3,2.35 L 2.25,1.45 3.15,1.25 3.5,1.2 3.75,1.15 7.05,1 Q 8.2,1.15 9.3,1.65 l 0.6,0.3 M -6.3,-8.35 -6.85,-8.2 -7.2,-8 l -0.25,0.2 -0.3,0.65 -0.05,0.2 0.05,0.25 0.3,0.65 0.25,0.2 0.35,0.15 0.55,0.2 0.6,-0.2 0.35,-0.15 0.25,-0.45 0.15,-0.45 0.05,-0.2 q 0,-0.45 -0.35,-0.8 L -5.7,-8.2 -6.3,-8.35 m -9.9,2.15 q -6.75,1.7 -9.15,8.2 -0.2,0.6 0.25,0.95 3.85,2.85 8.35,0.05 5.5,-3.45 3.4,-8.6 l -0.75,-0.3 -2.1,-0.3"
         fill="#b16d6d"
         fill-rule="evenodd"
         stroke="none"
         id="path4" />
      <path
         d="m 0.65,-22.2 0.55,-1.25 0.4,-0.85 q 1.05,-0.25 1.4,-1.15 l 0.25,-1.5 -0.1,-0.2 -0.1,-0.25 -0.1,-0.2 -0.15,-0.2 -0.65,-0.35 -1,-0.3 -0.4,0.1 q 1.2,-1.05 2.95,-1.4 5.1,-1.15 9.05,2 l 0.2,0.45 0.15,0.2 0.45,0.45 0.2,0.2 0.15,0.4 0.1,0.2 0.25,0.45 0.15,0.25 0.05,0.6 v 2.35 l -0.1,1.35 -1,2.8 q -1.65,1.7 -1.65,3.4 -1.3,2.3 -2.95,4.4 L 8.6,-9.6 7.95,-7.65 8.05,-7.2 q 0.05,0.5 0.4,0.85 h 0.8 L 9.45,-6.6 9.8,-7 l 0.6,-0.45 0.4,-0.6 q 2.15,-1.75 3.65,-3.85 3.2,-1.6 6.1,-4.05 h 2.7 l 0.2,0.05 0.45,0.25 0.15,0.2 0.2,0.4 0.4,0.9 0.05,0.2 0.25,0.45 0.1,0.2 v 0.45 Q 25,-12.45 25.1,-12 v 0.2 0.45 0.2 q -0.9,0.7 -2.15,1.05 -3.9,1.2 -7.45,3.25 Q 13.2,-5.5 12,-3.5 8.8,-4.85 4.75,-4.85 L 4.65,-5.1 4.6,-5.3 4.35,-5.7 4.25,-5.95 q -0.1,-1.9 -1.05,-3.55 0.6,-1.2 0.45,-2.9 -0.2,-2.35 -1.1,-4.5 -1.1,-2.6 -1.9,-5.3 m 5.85,-5.9 q -1.7,-0.05 -2.4,1.5 -2.2,4.6 3.05,5.55 2.5,0.45 3.3,-1.65 1.85,-5 -3.95,-5.4 M -3.75,-9.4 q 3.15,1.95 4.2,5.75 L 0.15,-3 q -0.25,1.25 -1,2.3 -0.7,0.9 -1,2 l 0.1,0.4 0.05,0.25 v 0.2 l 0.15,0.2 0.05,0.05 -0.2,0.05 Q -4.3,3.3 -5.3,5.75 -6.25,8 -5.45,9.95 L -7.9,10 l -0.05,0.05 -0.45,0.05 -0.25,0.05 -0.55,0.4 -0.2,0.2 -0.15,0.2 -0.15,0.2 -0.1,0.45 v 0.85 l 0.35,0.65 0.2,0.2 0.25,0.2 2.1,0.45 2.5,-0.15 q 1.2,0.45 2.15,1.25 l 1.1,1.25 0.3,0.45 0.05,0.85 0.2,1.05 0.2,0.65 0.15,0.2 0.2,0.25 0.45,0.1 L 0.65,19.8 0.8,19.75 Q 1.7,18 1.3,16 L 1.25,15.7 4.8,15.55 Q 6.4,16.25 7.05,14.9 11.7,13.05 13.2,8.5 13.9,6.35 12.65,4.55 11.5,2.85 9.9,1.95 15.65,4.65 17.1,11 v 0.25 0.6 0.45 0.85 l -1.1,3 q -1.4,3.1 -4.55,4.6 -11.05,5.25 -21.75,0 -0.1,-0.35 -0.35,-0.65 l -0.6,-1.05 q -0.1,-0.6 -0.45,-1.1 0.05,-1.85 -0.55,-3.65 -0.3,-0.85 -1.15,-0.95 l -8.8,0.25 q -1.65,-0.55 -3.1,-1.5 -1.25,-0.8 -1.85,-2.25 -0.25,-3.15 0.6,-6.1 l 1.2,2.3 q 0.7,0.95 1.75,1.3 6.2,2 11.75,-1.8 L -8,2.65 q -0.4,1.5 -1.4,2.8 l -1.3,1.15 -0.8,1 v 0.2 l -0.05,0.2 0.05,0.2 0.05,0.25 0.25,0.15 0.8,0.4 h 0.1 l 1.35,-0.55 q 1.6,-0.85 2.6,-2.3 1.75,-1.35 2.25,-3.6 0.6,-2.5 0,-4.35 1.3,-2.55 1.25,-5.65 l 0.1,-0.2 0.05,-0.2 V -8.1 -8.3 l -1.05,-1.1"
         fill="#835757"
         fill-rule="evenodd"
         stroke="none"
         id="path5" />
    </g>
    <g
       id="sprite1"
       transform="translate(17.4,15.85)">
      <use
         ffdec:characterId="31"
         height="57.200001"
         transform="matrix(0.5366,0,0,0.5366,-16.6582,-14.546)"
         width="70.75"
         xlink:href="#sprite2"
         id="use5" />
    </g>
    <g
       id="sprite2"
       transform="translate(-8.65,-10.35)">
      <use
         ffdec:characterId="30"
         height="57.200001"
         transform="translate(8.65,10.35)"
         width="70.75"
         xlink:href="#shape1"
         id="use6" />
    </g>
    <g
       id="shape1"
       transform="translate(-8.65,-10.35)">
      <path
         d="m 14.8,41.7 q 0.65,-1.75 2.65,-2.5 1.8,-0.8 3.7,-0.25 1.15,0.45 2.25,1.2 l 0.9,0.4 q 1.65,0.9 2.85,2.5 L 37.8,30.1 q 2.35,-2.8 3.75,-3.95 1.5,-1.15 4.25,-2.4 18.2,-8.85 27.65,-12.6 2.15,-0.8 3.25,-0.8 h 0.8 l 1.9,2.4 -0.2,0.8 q -0.2,1.1 -1.55,3 -5.85,8.25 -18.85,23.8 -1.85,2.35 -3.35,3.5 -1.4,1.15 -4.75,2.75 l -15.15,7.15 q 1.2,1.6 1.75,3.4 l 0.2,1 0.55,2.5 q 0.1,1.95 -1.1,3.55 -1.2,1.65 -3.05,1.9 l -1.3,0.05 q -1.65,0.2 -3.45,-0.65 -1.85,-0.9 -3,-2.6 L 25,60.95 23.8,62.1 q -2.6,2.85 -4.3,3.95 -2.85,1.8 -5.5,1.45 l -1.65,-0.5 -1.2,-0.7 -0.2,-0.2 q -1,-0.85 -1.6,-1.9 L 9.25,64 9.15,63.8 8.75,62.4 q -0.2,-0.8 -0.05,-1.7 0.25,-2.65 2.7,-5.05 1.5,-1.3 4.9,-3.15 L 17.7,51.55 16.05,50 q -1.35,-1.5 -1.8,-3.6 -0.4,-1.85 0.25,-3.45 l 0.3,-1.25"
         fill="#000000"
         fill-opacity="0.372549"
         fill-rule="evenodd"
         stroke="none"
         id="path6" />
    </g>
  </defs>
</svg>
