<?xml version="1.0" encoding="UTF-8" standalone="no"?>
<svg
   ffdec:objectType="frame"
   height="82.001877"
   width="43.386482"
   version="1.1"
   id="svg5"
   xmlns:xlink="http://www.w3.org/1999/xlink"
   xmlns="http://www.w3.org/2000/svg"
   xmlns:svg="http://www.w3.org/2000/svg"
   xmlns:ffdec="https://www.free-decompiler.com/flash">
  <g
     transform="translate(20.234483,39.780446)"
     id="g1">
    <use
       ffdec:characterId="17"
       height="119.15"
       id="rarity"
       transform="translate(-58.5,-60.65)"
       width="119.15"
       xlink:href="#sprite0" />
    <use
       ffdec:characterId="530"
       height="82"
       transform="translate(-20.25,-39.8)"
       width="43.400002"
       xlink:href="#shape0"
       id="use1" />
  </g>
  <defs
     id="defs5">
    <g
       id="shape0"
       transform="translate(19.85,39)">
      <path
         d="m 7.05,-30.1 -1,-0.95 Q 4.75,-32.1 3.15,-32.35 1.8,-32.6 0.6,-33.2 H 0.55 l -0.65,0.05 q -6.2,1.2 -9.55,5.4 l -0.3,0.45 -0.9,1.4 -0.3,0.55 q -1.05,2 -1.6,4.45 -0.6,2.7 -0.3,5.55 l 0.25,0.45 0.2,0.45 0.1,0.6 0.05,0.25 q 2.9,6.05 9.35,7.55 l 2.65,0.4 0.8,0.05 0.95,-0.25 q 2.8,-0.8 4.9,-2.9 l 0.2,-0.4 1.2,-1.45 q 0.75,-0.9 1.15,-1.95 l 0.45,-0.7 v -0.2 l 0.25,-0.9 0.2,-0.6 0.15,-0.85 0.25,-0.45 0.1,-1.1 v -1.7 l -0.1,-3.65 v -0.45 l -0.15,-0.2 -0.1,-0.2 -0.15,-0.2 -0.15,-1.1 q -0.05,-1 -0.55,-1.85 l -1.8,-3.3 -0.1,-0.1 m 7.3,19.9 q 1.7,-1.4 2.5,-3.5 2.7,-7.05 -1.55,-13.15 -1.35,-2.05 -3.3,-3.65 h -0.05 q 1.25,2.35 1.55,5 0.55,1 0.55,2.15 v 5.8 q 0.05,1.6 -0.65,3 -1,4.1 -3.15,7 2.15,-1.05 4.1,-2.65 m -15.1,-28.6 q 12.1,-1.35 19.7,7.4 2.2,2.55 3.25,5.65 2.6,6.65 0.2,13.55 Q 18.85,-2 7.65,-0.1 L 4.6,0.3 q 0.2,1.05 0.05,2.35 2,1.4 3,3.9 0.55,1.4 0.4,2.9 -0.2,1.55 -0.85,2.95 0.15,2 -0.25,3.95 l -1.6,6.8 -1.25,7.1 -1.75,7.9 v 0.25 l 0.05,0.4 v 0.45 0.2 q -2.4,2.9 -6.7,3.4 -4.85,0.6 -9.25,-0.9 -6.75,-2.3 -6.25,-8.85 0.15,-1.8 0.95,-3.55 l 2.65,-5.7 Q -13.5,15.2 -10,6.8 -8.95,4.25 -7.05,2.3 -6.45,1.7 -5.6,1.75 L -4.9,1.8 V 0.9 l 1,-1.25 q -3.2,-0.75 -6.2,-2.3 -7.3,-3.75 -8.4,-11.8 -0.8,-5.6 1.1,-10.75 4.3,-11.7 16.65,-13.6 m -3.55,45.2 -8,21.45 -2.65,6.25 q 0.6,1.25 1.7,2.35 l 0.2,0.2 q 0.95,0.3 1.8,0.75 4.65,0.75 9.1,-0.8 l 0.4,-1.1 0.15,-0.4 q -0.1,-2.05 0.3,-4.1 0.15,-0.8 0.65,-1.5 L -0.1,25.2 Q 0,24.45 0.35,23.8 l 0.2,-0.85 q 0.4,-4.7 1.2,-9.35 0.3,-1.95 0.95,-3.85 V 8.5 L 2.75,7.85 Q -0.5,6.15 -4.3,6.4"
         fill="#000000"
         fill-rule="evenodd"
         stroke="none"
         id="path1" />
      <path
         d="m -3.1,-6.05 q -6.45,-1.5 -9.35,-7.55 l -0.05,-0.25 -0.1,-0.6 -0.2,-0.45 -0.25,-0.45 q -0.3,-2.85 0.3,-5.55 0.55,-2.45 1.6,-4.45 l 0.3,-0.55 0.9,-1.4 0.3,-0.45 q 3.35,-4.2 9.55,-5.4 L 0.55,-33.2 H 0.6 q 1.2,0.6 2.55,0.85 1.6,0.25 2.9,1.3 l 1,0.95 q -7.05,-0.65 -11.5,5.65 -1.5,2.15 -2.05,4.75 l -0.9,3.05 v 0.85 1.3 0.85 0.4 q 0.65,2 1.8,3.7 l 2.5,3.5 m 17.45,-4.15 q -1.95,1.6 -4.1,2.65 2.15,-2.9 3.15,-7 0.7,-1.4 0.65,-3 v -5.8 q 0,-1.15 -0.55,-2.15 -0.3,-2.65 -1.55,-5 H 12 q 1.95,1.6 3.3,3.65 4.25,6.1 1.55,13.15 -0.8,2.1 -2.5,3.5"
         fill="#bbbbbb"
         fill-rule="evenodd"
         stroke="none"
         id="path2" />
      <path
         d="M -4.3,6.4 Q -0.5,6.15 2.75,7.85 L 2.7,8.5 v 1.25 q -0.65,1.9 -0.95,3.85 -0.8,4.65 -1.2,9.35 L 0.35,23.8 Q 0,24.45 -0.1,25.2 l -0.55,4.3 q -0.5,0.7 -0.65,1.5 -0.4,2.05 -0.3,4.1 l -0.15,0.4 -0.4,1.1 q -4.45,1.55 -9.1,0.8 -0.85,-0.45 -1.8,-0.75 l -0.2,-0.2 q -1.1,-1.1 -1.7,-2.35 l 2.65,-6.25 8,-21.45"
         fill="#464646"
         fill-rule="evenodd"
         stroke="none"
         id="path3" />
      <path
         d="m -3.1,-6.05 -2.5,-3.5 q -1.15,-1.7 -1.8,-3.7 v -0.4 -0.85 -1.3 -0.85 l 0.9,-3.05 q 0.55,-2.6 2.05,-4.75 4.45,-6.3 11.5,-5.65 l 0.1,0.1 1.8,3.3 q 0.5,0.85 0.55,1.85 l 0.15,1.1 0.15,0.2 0.1,0.2 0.15,0.2 v 0.45 l 0.1,3.65 v 1.7 l -0.1,1.1 -0.25,0.45 -0.15,0.85 -0.2,0.6 -0.25,0.9 v 0.2 l -0.45,0.7 q -0.4,1.05 -1.15,1.95 l -1.2,1.45 -0.2,0.4 q -2.1,2.1 -4.9,2.9 l -0.95,0.25 -0.8,-0.05 -2.65,-0.4"
         fill="#969696"
         fill-rule="evenodd"
         stroke="none"
         id="path4" />
    </g>
    <g
       id="sprite1"
       transform="translate(17.4,15.85)">
      <use
         ffdec:characterId="31"
         height="57.200001"
         transform="matrix(0.5366,0,0,0.5366,-16.6582,-14.546)"
         width="70.75"
         xlink:href="#sprite2"
         id="use4" />
    </g>
    <g
       id="sprite2"
       transform="translate(-8.65,-10.35)">
      <use
         ffdec:characterId="30"
         height="57.200001"
         transform="translate(8.65,10.35)"
         width="70.75"
         xlink:href="#shape1"
         id="use5" />
    </g>
    <g
       id="shape1"
       transform="translate(-8.65,-10.35)">
      <path
         d="m 14.8,41.7 q 0.65,-1.75 2.65,-2.5 1.8,-0.8 3.7,-0.25 1.15,0.45 2.25,1.2 l 0.9,0.4 q 1.65,0.9 2.85,2.5 L 37.8,30.1 q 2.35,-2.8 3.75,-3.95 1.5,-1.15 4.25,-2.4 18.2,-8.85 27.65,-12.6 2.15,-0.8 3.25,-0.8 h 0.8 l 1.9,2.4 -0.2,0.8 q -0.2,1.1 -1.55,3 -5.85,8.25 -18.85,23.8 -1.85,2.35 -3.35,3.5 -1.4,1.15 -4.75,2.75 l -15.15,7.15 q 1.2,1.6 1.75,3.4 l 0.2,1 0.55,2.5 q 0.1,1.95 -1.1,3.55 -1.2,1.65 -3.05,1.9 l -1.3,0.05 q -1.65,0.2 -3.45,-0.65 -1.85,-0.9 -3,-2.6 L 25,60.95 23.8,62.1 q -2.6,2.85 -4.3,3.95 -2.85,1.8 -5.5,1.45 l -1.65,-0.5 -1.2,-0.7 -0.2,-0.2 q -1,-0.85 -1.6,-1.9 L 9.25,64 9.15,63.8 8.75,62.4 q -0.2,-0.8 -0.05,-1.7 0.25,-2.65 2.7,-5.05 1.5,-1.3 4.9,-3.15 L 17.7,51.55 16.05,50 q -1.35,-1.5 -1.8,-3.6 -0.4,-1.85 0.25,-3.45 l 0.3,-1.25"
         fill="#000000"
         fill-opacity="0.372549"
         fill-rule="evenodd"
         stroke="none"
         id="path5" />
    </g>
  </defs>
</svg>
