<?xml version="1.0" encoding="UTF-8" standalone="no"?>
<svg
   ffdec:objectType="frame"
   height="72.925804"
   width="72.066093"
   version="1.1"
   id="svg5"
   xmlns:xlink="http://www.w3.org/1999/xlink"
   xmlns="http://www.w3.org/2000/svg"
   xmlns:svg="http://www.w3.org/2000/svg"
   xmlns:ffdec="https://www.free-decompiler.com/flash">
  <g
     transform="translate(35.115441,34.05)"
     id="g1">
    <use
       ffdec:characterId="17"
       height="119.15"
       id="rarity"
       transform="translate(-58.5,-60.65)"
       width="119.15"
       xlink:href="#sprite0" />
    <use
       ffdec:characterId="525"
       height="72.949997"
       transform="translate(-35.1,-34.05)"
       width="72.050003"
       xlink:href="#shape0"
       id="use1" />
  </g>
  <defs
     id="defs5">
    <g
       id="shape0"
       transform="translate(34.7,33.25)">
      <path
         d="m 3.5,-33.25 26.1,2 q 3.25,0.4 5.8,2.25 1.15,0.85 1.1,2.35 -0.5,13.4 0.1,26.6 0.6,13.4 0.75,26.8 0.05,3.8 -3.75,3.6 l 0.25,1.5 0.25,0.1 0.3,0.15 0.25,0.45 0.65,1.05 0.05,0.45 v 0.85 0.2 q 0.65,0.85 0.5,1.95 -0.1,1 -0.95,1.5 L 34.65,38.6 H 34.6 l -1.05,0.2 -13.95,0.35 q -12.9,0.05 -25.8,0.5 -6.05,0.2 -11.85,-1.15 -2.25,1.05 -5.9,-1.15 -4.55,-2.75 -4.65,-8.4 l -0.1,-1.5 -0.05,-1.3 -0.3,-0.65 -0.15,-0.6 -0.05,-1.1 q -1.7,-8.2 -2.2,-16.7 L -31.7,4.5 q -1.35,-9.75 -2.85,-19.5 -0.75,-4.75 1.9,-8.15 4.85,-6.25 12.65,-6.75 0.2,-0.6 0.9,-1 3.6,-2.1 8.05,-1.8 l 4.85,0.2 9.7,-0.75 m 26.75,8.7 q -11.3,-2.65 -23.15,-2 -2.3,0.15 -4.45,-0.65 l -12.7,0.8 -3.5,0.6 0.8,3.45 q 1.3,6.65 1.75,13.45 l 0.2,3.7 q 0.85,3.75 1.05,7.65 l 0.05,2.6 q 0,5 0.6,9.9 0.6,4.9 0.75,9.85 l 7.8,0.65 1.5,0.2 q 15.3,-2.4 30.95,-1.55 l 0.1,-1.85 -0.05,-2.6 -0.2,-7.05 q -0.6,-6.8 -0.7,-13.75 l -0.1,-6 -0.2,-17.3 -0.5,-0.1 M 9.5,2.15 9.45,-0.3 9.4,-3.35 8.15,-3.25 Q 4.45,-3.1 0.7,-3.3 q -1.1,-0.05 -1.4,-1.15 -1.35,-4.9 4.45,-4.9 l 5.2,-0.25 0.1,-1 -0.3,-0.85 q -0.1,-0.65 0.05,-1.3 -0.6,-2.45 0.15,-4.95 0.4,-1.4 1.5,-2.35 l 0.4,-0.1 0.4,-0.05 v -0.05 l 0.55,0.2 0.4,0.15 0.05,0.15 q 2.1,0.7 2.15,3.15 l -0.1,1.5 0.45,2.7 0.35,1.75 0.05,0.25 2.45,-0.35 q 2.55,0 3.7,1.15 1,0.95 0.9,2.85 -0.1,1.55 -1.75,1.9 L 16.5,-4.1 15.65,-4 15.7,-3.25 15.8,-1 q 0.25,5.7 0.95,11.35 0.5,3.85 -2.95,5.05 Q 12.1,16 10.95,14.6 9.55,12.9 10.05,10.65 9.6,6.4 9.5,2.15 M 8.9,30.5 -0.75,31 l -6.8,0.2 -2.2,0.35 -1.95,0.05 q -1.1,1.05 -2.75,1.75 -0.65,0.25 -0.85,1 l -0.25,0.9 23.85,-1.05 6.8,-0.15 15.4,-2.25 0.05,-0.35 0.3,-1.4 q -11,-1.1 -21.95,0.45 m -25.2,-28.35 -0.05,-0.5 -1.05,-13.1 q -0.45,-6.95 -1.85,-13.7 -3.35,1.2 -6.45,2.95 -1.6,0.9 -2.7,2.45 l -0.4,0.45 0.1,4.95 0.3,3.2 0.1,2.15 q 1.75,6.25 2.45,12.75 l 0.3,4 q 0.7,12.2 3.55,24 l 0.15,0.2 0.1,0.25 0.1,0.2 0.05,0.2 0.5,0.4 0.4,0.25 0.5,0.2 q 0.85,-4.35 5.2,-6.05 l 0.75,-0.25 q -0.9,-12.45 -2.05,-25"
         fill="#000000"
         fill-rule="evenodd"
         stroke="none"
         id="path1" />
      <path
         d="m -9.75,2.45 q -0.2,-3.9 -1.05,-7.65 L -11,-8.9 q -0.45,-6.8 -1.75,-13.45 l -0.8,-3.45 3.5,-0.6 12.7,-0.8 q 2.15,0.8 4.45,0.65 11.85,-0.65 23.15,2 -0.55,4.2 -3.3,7.85 l -5.65,7.1 q -1.15,-1.15 -3.7,-1.15 l -2.45,0.35 -0.05,-0.25 -0.35,-1.75 -0.45,-2.7 0.1,-1.5 q -0.05,-2.45 -2.15,-3.15 l -0.05,-0.15 -0.4,-0.15 -0.55,-0.2 v 0.05 l -0.4,0.05 -0.4,0.1 q -1.1,0.95 -1.5,2.35 -0.75,2.5 -0.15,4.95 -0.15,0.65 -0.05,1.3 l 0.3,0.85 -0.1,1 -5.2,0.25 q -5.8,0 -4.45,4.9 0.3,1.1 1.4,1.15 3.75,0.2 7.45,0.05 L 9.4,-3.35 9.45,-0.3 9.5,2.15 Q 6.85,3.8 3.8,4.85 L 2.05,5.3 Q -0.1,5.75 -2.15,4.8 -6.75,5.9 -9.75,2.45 M 15.7,-3.25 15.65,-4 16.5,-4.1 15.7,-3.25 m -41.55,7 Q -26.55,-2.75 -28.3,-9 l -0.1,-2.15 -0.3,-3.2 -0.1,-4.95 0.4,-0.45 q 1.1,-1.55 2.7,-2.45 3.1,-1.75 6.45,-2.95 1.4,6.75 1.85,13.7 l 1.05,13.1 0.05,0.5 q -1,5.2 -5.9,4.75 -0.65,-0.05 -1.2,-0.55 l -2.45,-2.6"
         fill="#837466"
         fill-rule="evenodd"
         stroke="none"
         id="path2" />
      <path
         d="m -9.75,2.45 q 3,3.45 7.6,2.35 2.05,0.95 4.2,0.5 L 3.8,4.85 q 3.05,-1.05 5.7,-2.7 0.1,4.25 0.55,8.5 -0.5,2.25 0.9,3.95 1.15,1.4 2.85,0.8 3.45,-1.2 2.95,-5.05 Q 16.05,4.7 15.8,-1 l -0.1,-2.25 0.8,-0.85 3.95,-0.75 q 1.65,-0.35 1.75,-1.9 0.1,-1.9 -0.9,-2.85 l 5.65,-7.1 q 2.75,-3.65 3.3,-7.85 l 0.5,0.1 0.2,17.3 0.1,6 q 0.1,6.95 0.7,13.75 l 0.2,7.05 0.05,2.6 -0.1,1.85 Q 16.25,23.25 0.95,25.65 l -1.5,-0.2 -7.8,-0.65 Q -8.5,19.85 -9.1,14.95 -9.7,10.05 -9.7,5.05 l -0.05,-2.6 m -16.1,1.3 2.45,2.6 q 0.55,0.5 1.2,0.55 4.9,0.45 5.9,-4.75 1.15,12.55 2.05,25 L -15,27.4 q -4.35,1.7 -5.2,6.05 l -0.5,-0.2 -0.4,-0.25 -0.5,-0.4 -0.05,-0.2 -0.1,-0.2 -0.1,-0.25 -0.15,-0.2 q -2.85,-11.8 -3.55,-24 l -0.3,-4"
         fill="#675a4f"
         fill-rule="evenodd"
         stroke="none"
         id="path3" />
      <path
         d="m 8.9,30.5 q 10.95,-1.55 21.95,-0.45 l -0.3,1.4 -0.05,0.35 -15.4,2.25 -6.8,0.15 -23.85,1.05 0.25,-0.9 q 0.2,-0.75 0.85,-1 1.65,-0.7 2.75,-1.75 l 1.95,-0.05 2.2,-0.35 6.8,-0.2 9.65,-0.5"
         fill="#e2e2e2"
         fill-rule="evenodd"
         stroke="none"
         id="path4" />
    </g>
    <g
       id="sprite1"
       transform="translate(17.4,15.85)">
      <use
         ffdec:characterId="31"
         height="57.200001"
         transform="matrix(0.5366,0,0,0.5366,-16.6582,-14.546)"
         width="70.75"
         xlink:href="#sprite2"
         id="use4" />
    </g>
    <g
       id="sprite2"
       transform="translate(-8.65,-10.35)">
      <use
         ffdec:characterId="30"
         height="57.200001"
         transform="translate(8.65,10.35)"
         width="70.75"
         xlink:href="#shape1"
         id="use5" />
    </g>
    <g
       id="shape1"
       transform="translate(-8.65,-10.35)">
      <path
         d="m 14.8,41.7 q 0.65,-1.75 2.65,-2.5 1.8,-0.8 3.7,-0.25 1.15,0.45 2.25,1.2 l 0.9,0.4 q 1.65,0.9 2.85,2.5 L 37.8,30.1 q 2.35,-2.8 3.75,-3.95 1.5,-1.15 4.25,-2.4 18.2,-8.85 27.65,-12.6 2.15,-0.8 3.25,-0.8 h 0.8 l 1.9,2.4 -0.2,0.8 q -0.2,1.1 -1.55,3 -5.85,8.25 -18.85,23.8 -1.85,2.35 -3.35,3.5 -1.4,1.15 -4.75,2.75 l -15.15,7.15 q 1.2,1.6 1.75,3.4 l 0.2,1 0.55,2.5 q 0.1,1.95 -1.1,3.55 -1.2,1.65 -3.05,1.9 l -1.3,0.05 q -1.65,0.2 -3.45,-0.65 -1.85,-0.9 -3,-2.6 L 25,60.95 23.8,62.1 q -2.6,2.85 -4.3,3.95 -2.85,1.8 -5.5,1.45 l -1.65,-0.5 -1.2,-0.7 -0.2,-0.2 q -1,-0.85 -1.6,-1.9 L 9.25,64 9.15,63.8 8.75,62.4 q -0.2,-0.8 -0.05,-1.7 0.25,-2.65 2.7,-5.05 1.5,-1.3 4.9,-3.15 L 17.7,51.55 16.05,50 q -1.35,-1.5 -1.8,-3.6 -0.4,-1.85 0.25,-3.45 l 0.3,-1.25"
         fill="#000000"
         fill-opacity="0.372549"
         fill-rule="evenodd"
         stroke="none"
         id="path5" />
    </g>
  </defs>
</svg>
