<?xml version="1.0" encoding="UTF-8" standalone="no"?>
<svg
   ffdec:objectType="frame"
   height="51.599998"
   width="59.118355"
   version="1.1"
   id="svg6"
   xmlns:xlink="http://www.w3.org/1999/xlink"
   xmlns="http://www.w3.org/2000/svg"
   xmlns:svg="http://www.w3.org/2000/svg"
   xmlns:ffdec="https://www.free-decompiler.com/flash">
  <g
     transform="translate(33.506818,31.45)"
     id="g1">
    <use
       ffdec:characterId="17"
       height="119.15"
       id="rarity"
       transform="translate(-58.5,-60.65)"
       width="119.15"
       xlink:href="#sprite0" />
    <use
       ffdec:characterId="1291"
       height="51.700001"
       transform="translate(-33.5,-31.55)"
       width="59.099998"
       xlink:href="#shape0"
       id="use1" />
  </g>
  <defs
     id="defs6">
    <g
       id="shape0"
       transform="translate(32.2,29.65)">
      <path
         d="m 20.2,-22.3 q 2.85,-2.4 4.6,-1.8 1.7,0.6 2.05,2.7 0.2,1.05 -0.25,3.5 l -2.7,14.45 -1.4,6.9 -1.9,6.7 -1.45,4.75 q -0.9,3.15 -2.3,4.25 -0.85,0.65 -2.2,1 l -2.4,0.4 L 6.6,21.6 -0.25,22.05 -7.1,21.65 -13.4,21 q -2.9,-0.6 -4.1,-1.65 -1.1,-0.95 -2.2,-3.35 l -3.25,-7.25 -1.5,-2.85 -3.7,-8.6 -1.8,-4.6 -1.6,-3.1 q -0.85,-1.9 -0.6,-3.4 0.15,-1.3 1.15,-2.05 1.2,-0.9 3.6,-0.6 l 5.3,1.15 1.1,0.2 0.2,-0.75 0.15,-1.25 0.3,-1.2 q 0.55,-1.75 1.4,-2.75 1.25,-1.4 2.7,-1.4 1.1,-0.05 2.9,0.95 l 2.85,1.5 0.55,0.3 3.6,-5.85 q 1.4,-2.3 2.55,-3.15 0.85,-0.65 1.85,-0.85 l 1.95,0.2 q 1.1,0.5 2.2,2.55 l 3.3,6.3 2.45,-2.3 q 0.8,-0.8 1.45,-1.1 l 2.2,-0.25 q 1.15,0.3 1.8,1.25 l 0.9,1.9 0.55,1.1 0.4,1.25 0.1,0.45 4.85,-4.1 m -11.3,9.1 3.4,-2.55 q -0.6,-2.1 -1.65,-3.95 l -2.8,2.8 -0.4,0.5 1.45,3.2 M 7,-6.4 6.35,-7 l -0.3,-0.5 -1.3,-2.05 -4.25,-8.3 -2.05,-4 q -4.1,5.4 -6.6,11.1 l -0.9,1.85 q -0.6,0.9 -1.35,1.35 -0.95,0.6 -2.35,0.55 l -2.55,-0.45 -1.2,-0.25 -8.5,-1.4 0.6,1.45 0.2,0.45 2.95,6.6 v 0.05 l 0.05,0.05 v 0.05 l 1.5,3.1 2.25,4.55 2.6,5.15 0.05,0.15 1.25,1.65 2.05,0.7 7.75,0.8 q 3.55,0.1 7.1,-0.15 l 6.3,-0.85 1.55,-0.3 1.3,-0.5 0.75,-1.35 Q 16.85,1.15 17.8,-4.9 l 0.65,-4.15 v -0.2 q 0.45,-2.45 1.15,-4.2 -3.25,1.95 -6.25,4.8 l -2.3,2 Q 9.65,-5.7 8.3,-5.85 7.55,-5.95 7,-6.4 M 4.6,-1.1 Q 4.8,0.4 4.3,2.7 L 3.45,6 2.2,9.05 1.8,10.35 q -0.45,1 -1.65,1.35 L -2,11.5 Q -3.05,10.95 -3.85,9.8 -7.25,5.2 -6.2,-1.6 q 0.25,-1.95 0.9,-3.25 0.5,-1.2 1.45,-2.2 l 1.15,-1 q 0.9,-0.5 2,-0.35 1.1,0.15 1.9,0.85 1.05,0.8 2.15,3 L 3.7,-3.8 4.5,-1.75 4.6,-1.1 M 1.65,1.85 1.5,0.8 1.35,0 0.15,-2.4 -1,-4.3 q -1.2,1.8 -1.35,3 l -0.05,0.9 -0.15,0.95 v 0.9 l 0.4,1.75 0.35,1.7 0.25,0.6 0.65,1.2 0.4,0.45 L -0.05,7 0.65,6 1,4.75 1.35,3.8 1.45,3.15 1.7,2.4 1.65,1.85 m -15.25,-15.7 1.45,-2.25 -0.85,-0.45 q -1.9,-1.1 -2.75,-1.3 l -0.55,2.15 -0.25,1.35 2.95,0.5"
         fill="#000000"
         fill-rule="evenodd"
         stroke="none"
         id="path1" />
      <path
         d="m -19.7,2.65 q 0.5,-0.55 1.3,-0.8 1.1,-0.25 2,0.25 0.8,0.4 1.15,1.3 0.4,0.85 0.2,1.7 -0.2,0.85 -0.95,1.45 -0.65,0.55 -1.45,0.65 L -19.7,2.65 m 4.9,9.85 q 0.6,-1.35 1.95,-2.35 l 1.2,-0.6 -0.2,-0.5 -0.35,-1.15 -0.1,-1.15 -0.4,-1.2 -0.75,-1.35 -1,-1.05 q -0.6,-0.65 -0.75,-1.55 -0.2,-0.85 0.1,-1.7 0.65,-1.8 2.55,-2.15 l 1.7,0.2 q 0.85,0.3 1.4,1 1.2,1.55 0.45,3.3 L -9.25,3 -9.2,3.65 -9.35,4.8 -9.2,5.7 q 0.15,0.75 0,1.95 L -9.4,9.4 q 1.65,0.15 3.05,1.05 Q -5.4,11 -5,11.6 l 0.75,1.45 0.5,1.75 v 0.85 l -7.75,-0.8 -2.05,-0.7 -1.25,-1.65 M 3.35,15.5 3.3,14.8 Q 3.4,13.85 4,13.1 4.6,12.3 5.5,12 l 1.85,-0.05 1.55,1 q 0.65,0.75 0.75,1.7 L 3.35,15.5 M 12.5,1.9 Q 13.35,2.1 13.95,2.75 14.6,3.4 14.8,4.2 15,5.05 14.7,5.9 14.4,6.75 13.75,7.3 12.55,8.35 10.85,7.85 9.95,7.55 9.35,6.75 8.7,5.9 8.7,4.95 8.7,4 9.3,3.15 9.9,2.3 10.8,2 l 1.7,-0.1"
         fill="#5a2f2f"
         fill-rule="evenodd"
         stroke="none"
         id="path2" />
      <path
         d="m 0.5,-17.85 -1.4,1.45 -10.75,10.5 -2.75,2.65 q -0.9,0.75 -2.85,2.15 l -1.05,1 q -0.65,0.55 -1.25,0.6 -0.75,0.05 -1.35,-0.55 l -0.3,-0.4 V -0.5 l -0.05,-0.05 V -0.6 l -0.15,-0.75 q 0.1,-0.7 1,-1.8 l 3.9,-4.55 1.2,0.25 2.55,0.45 q 1.4,0.05 2.35,-0.55 0.75,-0.45 1.35,-1.35 l 0.9,-1.85 q 2.5,-5.7 6.6,-11.1 l 2.05,4 m 17.95,8.8 -0.7,0.5 -4.85,3.5 -2,1.35 -2.55,1.35 Q 6.75,-1.3 6.2,-1.15 L 4.6,-1.1 4.5,-1.75 3.7,-3.8 5,-5.1 7,-6.4 q 0.55,0.45 1.3,0.55 1.35,0.15 2.75,-0.8 l 2.3,-2 q 3,-2.85 6.25,-4.8 -0.7,1.75 -1.15,4.2 v 0.2 M -2.15,3.2 -2.55,1.45 V 0.55 L -2.4,-0.4 -2.35,-1.3 Q -2.2,-2.5 -1,-4.3 L 0.15,-2.4 1.35,0 1.5,0.8 1.65,1.85 0.35,3.05 Q -0.6,3.55 -1.5,3.4 L -2.15,3.2"
         fill="#ffffff"
         fill-rule="evenodd"
         stroke="none"
         id="path3" />
      <path
         d="m 0.5,-17.85 4.25,8.3 1.3,2.05 L 6.35,-7 7,-6.4 5,-5.1 3.7,-3.8 3.35,-4.55 q -1.1,-2.2 -2.15,-3 -0.8,-0.7 -1.9,-0.85 -1.1,-0.15 -2,0.35 l -1.15,1 q -0.95,1 -1.45,2.2 -0.65,1.3 -0.9,3.25 -1.05,6.8 2.35,11.4 0.8,1.15 1.85,1.7 l 2.15,0.2 Q 1.35,11.35 1.8,10.35 L 2.2,9.05 3.45,6 4.3,2.7 Q 4.8,0.4 4.6,-1.1 l 1.6,-0.05 q 0.55,-0.15 2.15,-1.2 l 2.55,-1.35 2,-1.35 4.85,-3.5 0.7,-0.5 -0.65,4.15 q -0.95,6.05 -4.55,17.4 l -0.75,1.35 -1.3,0.5 -1.55,0.3 Q 9.55,13.7 8.9,12.95 L 7.35,11.95 5.5,12 Q 4.6,12.3 4,13.1 3.4,13.85 3.3,14.8 l 0.05,0.7 q -3.55,0.25 -7.1,0.15 V 14.8 L -4.25,13.05 -5,11.6 Q -5.4,11 -6.35,10.45 -7.75,9.55 -9.4,9.4 l 0.2,-1.75 q 0.15,-1.2 0,-1.95 L -9.35,4.8 -9.2,3.65 -9.25,3 -9,2.25 q 0.75,-1.75 -0.45,-3.3 -0.55,-0.7 -1.4,-1 l -1.7,-0.2 q -1.9,0.35 -2.55,2.15 -0.3,0.85 -0.1,1.7 0.15,0.9 0.75,1.55 l 1,1.05 0.75,1.35 0.4,1.2 0.1,1.15 0.35,1.15 0.2,0.5 -1.2,0.6 q -1.35,1 -1.95,2.35 l -0.05,-0.15 -2.6,-5.15 q 0.8,-0.1 1.45,-0.65 0.75,-0.6 0.95,-1.45 0.2,-0.85 -0.2,-1.7 -0.35,-0.9 -1.15,-1.3 -0.9,-0.5 -2,-0.25 -0.8,0.25 -1.3,0.8 l -1.5,-3.1 0.3,0.4 q 0.6,0.6 1.35,0.55 0.6,-0.05 1.25,-0.6 l 1.05,-1 q 1.95,-1.4 2.85,-2.15 l 2.75,-2.65 10.75,-10.5 1.4,-1.45 m 8.4,4.65 -1.45,-3.2 0.4,-0.5 2.8,-2.8 q 1.05,1.85 1.65,3.95 L 8.9,-13.2 M 12.5,1.9 10.8,2 Q 9.9,2.3 9.3,3.15 8.7,4 8.7,4.95 q 0,0.95 0.65,1.8 0.6,0.8 1.5,1.1 1.7,0.5 2.9,-0.55 Q 14.4,6.75 14.7,5.9 15,5.05 14.8,4.2 14.6,3.4 13.95,2.75 13.35,2.1 12.5,1.9 m -33.75,-2.5 -2.95,-6.6 -0.2,-0.45 -0.6,-1.45 8.5,1.4 -3.9,4.55 q -0.9,1.1 -1,1.8 l 0.15,0.75 m 7.65,-13.25 -2.95,-0.5 0.25,-1.35 0.55,-2.15 q 0.85,0.2 2.75,1.3 l 0.85,0.45 -1.45,2.25"
         fill="#bbb080"
         fill-rule="evenodd"
         stroke="none"
         id="path4" />
      <path
         d="M -2.15,3.2 -1.5,3.4 Q -0.6,3.55 0.35,3.05 L 1.65,1.85 1.7,2.4 1.45,3.15 1.35,3.8 1,4.75 0.65,6 -0.05,7 -0.5,7.15 -0.9,6.7 -1.55,5.5 -1.8,4.9 -2.15,3.2"
         fill="#ddd4af"
         fill-rule="evenodd"
         stroke="none"
         id="path5" />
    </g>
    <g
       id="sprite1"
       transform="translate(17.4,15.85)">
      <use
         ffdec:characterId="31"
         height="57.200001"
         transform="matrix(0.5366,0,0,0.5366,-16.6582,-14.546)"
         width="70.75"
         xlink:href="#sprite2"
         id="use5" />
    </g>
    <g
       id="sprite2"
       transform="translate(-8.65,-10.35)">
      <use
         ffdec:characterId="30"
         height="57.200001"
         transform="translate(8.65,10.35)"
         width="70.75"
         xlink:href="#shape1"
         id="use6" />
    </g>
    <g
       id="shape1"
       transform="translate(-8.65,-10.35)">
      <path
         d="m 14.8,41.7 q 0.65,-1.75 2.65,-2.5 1.8,-0.8 3.7,-0.25 1.15,0.45 2.25,1.2 l 0.9,0.4 q 1.65,0.9 2.85,2.5 L 37.8,30.1 q 2.35,-2.8 3.75,-3.95 1.5,-1.15 4.25,-2.4 18.2,-8.85 27.65,-12.6 2.15,-0.8 3.25,-0.8 h 0.8 l 1.9,2.4 -0.2,0.8 q -0.2,1.1 -1.55,3 -5.85,8.25 -18.85,23.8 -1.85,2.35 -3.35,3.5 -1.4,1.15 -4.75,2.75 l -15.15,7.15 q 1.2,1.6 1.75,3.4 l 0.2,1 0.55,2.5 q 0.1,1.95 -1.1,3.55 -1.2,1.65 -3.05,1.9 l -1.3,0.05 q -1.65,0.2 -3.45,-0.65 -1.85,-0.9 -3,-2.6 L 25,60.95 23.8,62.1 q -2.6,2.85 -4.3,3.95 -2.85,1.8 -5.5,1.45 l -1.65,-0.5 -1.2,-0.7 -0.2,-0.2 q -1,-0.85 -1.6,-1.9 L 9.25,64 9.15,63.8 8.75,62.4 q -0.2,-0.8 -0.05,-1.7 0.25,-2.65 2.7,-5.05 1.5,-1.3 4.9,-3.15 L 17.7,51.55 16.05,50 q -1.35,-1.5 -1.8,-3.6 -0.4,-1.85 0.25,-3.45 l 0.3,-1.25"
         fill="#000000"
         fill-opacity="0.372549"
         fill-rule="evenodd"
         stroke="none"
         id="path6" />
    </g>
  </defs>
</svg>
