<?xml version="1.0" encoding="UTF-8" standalone="no"?>
<svg
   ffdec:objectType="frame"
   height="75.866394"
   width="88.329407"
   version="1.1"
   id="svg6"
   sodipodi:docname="ITEM Mundane Collar.svg"
   xmlns:inkscape="http://www.inkscape.org/namespaces/inkscape"
   xmlns:sodipodi="http://sodipodi.sourceforge.net/DTD/sodipodi-0.dtd"
   xmlns:xlink="http://www.w3.org/1999/xlink"
   xmlns="http://www.w3.org/2000/svg"
   xmlns:svg="http://www.w3.org/2000/svg"
   xmlns:ffdec="https://www.free-decompiler.com/flash">
  <sodipodi:namedview
     id="namedview6"
     pagecolor="#ffffff"
     bordercolor="#000000"
     borderopacity="0.25"
     inkscape:showpageshadow="2"
     inkscape:pageopacity="0.0"
     inkscape:pagecheckerboard="0"
     inkscape:deskcolor="#d1d1d1"
     fit-margin-top="5"
     fit-margin-left="5"
     fit-margin-right="5"
     fit-margin-bottom="5" />
  <g
     transform="translate(45.178571,34.766393)"
     id="g1">
    <use
       ffdec:characterId="17"
       height="119.15"
       id="rarity"
       transform="translate(-58.5,-60.65)"
       width="119.15"
       xlink:href="#sprite0" />
    <use
       ffdec:characterId="800"
       height="75.849998"
       transform="translate(-45.2,-34.75)"
       width="88.349998"
       xlink:href="#shape0"
       id="use1" />
  </g>
  <defs
     id="defs6">
    <g
       id="shape0"
       transform="translate(45.75,35.5)">
      <path
         d="m 24.7,-26 -0.1,0.35 -0.6,0.85 q -0.4,0.3 -0.95,0.25 -0.6,0 -1,-0.35 L 21.6,-25.5 21.55,-25.9 21.5,-26 q -0.05,-0.6 0.35,-1.1 0.35,-0.5 0.9,-0.6 l 1.1,0.2 0.75,0.85 0.1,0.65 m -7.75,0.4 -0.15,1 -0.8,0.85 -1.1,0.2 q -0.65,-0.1 -1.05,-0.55 -0.45,-0.4 -0.5,-1 v -0.65 q 0.35,-1.25 1.6,-1.4 h 0.2 q 0.6,0 1.1,0.4 l 0.65,0.95 0.05,0.2 m -32.25,13.1 0.9,1.2 q 3.35,-2.35 7.1,-4.3 13.45,-7.05 28.2,-7.55 l 6.4,0.2 0.8,0.15 q 0.6,-1.85 0.7,-3.35 l -0.05,-1.4 -0.15,-1.15 q -3.15,-1.05 -6,-1.1 l -7.2,1.05 Q 3.3,-26 -2,-23.85 q -7.75,3.05 -15.35,8.7 l 2.05,2.65 m 56.85,-12.35 q 1.05,2.8 1.05,5.8 0.05,5.35 -2.9,10.8 -1.95,3.75 -6.6,9.15 -7.75,8.7 -15.9,14.25 l -2.9,1.9 q 1.95,0.5 3.5,1.7 2.05,1.65 3.05,4.35 0.9,2.55 0.75,5.4 -0.1,1.75 -0.55,3.1 l -1.6,2.9 -1.4,1.95 q -0.9,1 -2.65,1.8 Q 11.9,40 8.25,40.3 4.3,40.6 1.1,39.1 -0.75,38.2 -1.6,37 L -2.7,34.95 -3.65,33.4 q -0.3,-0.75 -0.4,-2.4 -0.2,-2.15 0.1,-3.5 0.2,-0.95 0.8,-1.95 l -5.75,2.1 q -7.05,2.3 -14.3,3.25 -5.4,0.7 -9.25,0.2 -5.15,-0.75 -8.4,-3.6 -2.55,-2.2 -3.85,-5.7 -1.2,-3.3 -1,-6.95 0.25,-6.1 4.35,-13.15 8.6,-15 28.15,-26.2 3.85,-2.25 7.1,-3.65 6.1,-2.7 18.45,-5.75 5.5,-1.4 8.35,-1.55 6.05,-0.45 12.25,2.15 3.8,1.55 5.9,3.85 1.75,1.9 2.7,4.6 m -5.35,1.9 -1.75,-2.6 -1.4,-1.1 q -0.2,5.15 -3.15,10.35 -1.15,2 -2.7,4.05 l 0.55,0.1 q 1.8,0.25 2.95,1.1 l 0.65,0.55 q 1.05,1.1 1.35,3 1.7,-2.35 2.65,-4.35 1.75,-3.7 1.7,-7.05 v -0.7 l -0.95,0.15 q -0.45,-0.1 -0.8,-0.4 L 35.1,-20 Q 34.65,-20.45 34.65,-21.05 34.6,-21.6 35,-22.1 l 0.95,-0.65 h 0.2 0.15 l -0.1,-0.2 m -3.85,9.4 -0.5,-0.8 q -0.2,-0.6 0.15,-1.25 0.3,-0.6 0.85,-0.85 l 1.1,-0.1 0.75,0.45 q 0.85,0.75 0.5,1.8 l -0.65,0.9 q -0.5,0.35 -1.05,0.3 -0.55,0 -1.05,-0.35 l -0.1,-0.1 m -11.7,13.15 -1.4,-1.05 -1.35,-1.1 q -10.05,9 -22,15.05 -16.75,8.45 -30.15,6.45 -3.05,-0.45 -5.1,-1.5 0.3,2.45 1.65,4.2 l 0.8,0.95 q 3,2.9 10,2.6 13.4,-0.7 29.3,-8.35 L 2.5,15.8 Q 2.8,13.95 3.75,13.05 5.3,11.55 8.4,12.45 L 9.75,13 q 3.3,-1.8 5.8,-3.55 4.05,-2.85 8.75,-7.5 l -2.15,-1.45 -1.2,-0.7 -0.3,-0.2 m 7.9,-7.8 -0.25,-0.15 -2.7,-0.3 -1.8,0.4 -1.6,1.6 -1.5,1.5 2.3,1.95 1,-0.8 1,-1.15 q 0.6,-0.7 1.3,-0.7 h 0.15 q 0.45,0.05 0.75,0.5 0.4,0.45 0.3,1 l -0.65,1.1 -1.35,1.75 -0.2,0.2 1.2,1 1.4,-1.5 1.5,-1.65 q 0.55,-2.05 0.25,-3.25 -0.05,-0.6 -0.5,-1.1 l -0.6,-0.4 M 12.4,-3.55 q 5.5,-4.55 8.75,-8.25 3.2,-3.55 5.15,-7.15 -8.45,-0.15 -16.55,1.7 -9.15,2.1 -16.95,6.55 -8.05,4.55 -14.3,11.3 -6.3,6.9 -9.9,15.1 10.85,0.35 22.5,-5.05 9.55,-4.5 21.3,-14.2 M 10.3,21.6 h -0.2 l -2.05,0.5 -2.3,0.55 q -0.8,0.35 -1.6,1 -1.8,1.6 -2.8,4.15 L 1.1,28.65 1,28.95 q -0.15,0.85 -0.15,1.7 l 0.1,0.65 0.4,0.65 0.55,1.15 q 0.5,1 1.95,1.6 l 2.35,0.65 1.4,0.1 3.35,-0.6 2.7,-1 1.25,-0.7 0.8,-1 0.8,-1.3 0.45,-1.1 0.25,-0.95 v -1.4 l -0.3,-1.85 -1.1,-1.85 -1,-1.15 q -0.4,-0.25 -1.5,-0.6 l -3,-0.35 m -48.95,-7.75 1.15,0.85 1.7,0.55 0.25,-0.95 q 1.7,-5.25 6,-11 5.6,-7.55 13.1,-13.15 l -1.05,-1.2 -2.05,-2.45 q -12.35,9.75 -17.8,21.45 -1.3,3 -1.8,5.3 l 0.5,0.6"
         fill="#000000"
         fill-rule="evenodd"
         stroke="none"
         id="path1" />
      <path
         d="m 21.55,-25.9 -1.75,0.05 -2.85,0.25 -0.05,-0.2 -0.65,-0.95 q -0.5,-0.4 -1.1,-0.4 h -0.2 q -1.25,0.15 -1.6,1.4 v 0.65 l -1.75,0.4 -5.6,1.9 -9,3.65 q -6.4,2.9 -12.3,6.65 l -2.05,-2.65 q 7.6,-5.65 15.35,-8.7 5.3,-2.15 17.4,-4.9 l 7.2,-1.05 q 2.85,0.05 6,1.1 l 0.15,1.15 0.05,1.4 -0.7,0.05 -3.4,0.1 -0.1,-0.65 -0.75,-0.85 -1.1,-0.2 q -0.55,0.1 -0.9,0.6 -0.4,0.5 -0.35,1.1 l 0.05,0.1 m 9.15,14.85 q -1.15,-0.85 -2.95,-1.1 l -0.55,-0.1 q 1.55,-2.05 2.7,-4.05 2.95,-5.2 3.15,-10.35 l 1.4,1.1 1.75,2.6 -0.05,0.1 v 0.1 h -0.2 L 35,-22.1 q -0.4,0.5 -0.35,1.05 0,0.6 0.45,1.05 l 0.2,0.15 -1.35,3.3 -1.1,0.1 q -0.55,0.25 -0.85,0.85 -0.35,0.65 -0.15,1.25 l 0.5,0.8 -1.65,2.5 m -68.4,32.7 q -1.35,-1.75 -1.65,-4.2 2.05,1.05 5.1,1.5 13.4,2 30.15,-6.45 11.95,-6.05 22,-15.05 l 1.35,1.1 1.4,1.05 -3.95,3.1 -9.05,6.15 -10.6,6.45 q -5.95,3.25 -11.3,5.05 -6.2,2.15 -12.15,2.5 -6.05,0.35 -11.3,-1.2 M 26.45,-5.85 H 26.3 q -0.7,0 -1.3,0.7 l -1,1.15 -1,0.8 -2.3,-1.95 1.5,-1.5 1.6,-1.6 1.8,-0.4 2.7,0.3 0.25,0.15 -2.1,2.35 m -43.95,-5.2 -4.85,3.5 q -5.4,4.15 -8.9,8.4 -3.8,4.7 -7.4,13 l -0.5,-0.6 q 0.5,-2.3 1.8,-5.3 5.45,-11.7 17.8,-21.45 l 2.05,2.45"
         fill="#b1a194"
         fill-rule="evenodd"
         stroke="none"
         id="path2" />
      <path
         d="m 21.55,-25.9 0.05,0.4 0.45,0.6 q 0.4,0.35 1,0.35 0.55,0.05 0.95,-0.25 l 0.6,-0.85 0.1,-0.35 3.4,-0.1 0.7,-0.05 q -0.1,1.5 -0.7,3.35 l -0.8,-0.15 -6.4,-0.2 q -14.75,0.5 -28.2,7.55 -3.75,1.95 -7.1,4.3 l -0.9,-1.2 q 5.9,-3.75 12.3,-6.65 l 9,-3.65 5.6,-1.9 1.75,-0.4 q 0.05,0.6 0.5,1 0.4,0.45 1.05,0.55 l 1.1,-0.2 0.8,-0.85 0.15,-1 2.85,-0.25 1.75,-0.05 m 9.15,14.85 1.65,-2.5 0.1,0.1 q 0.5,0.35 1.05,0.35 0.55,0.05 1.05,-0.3 l 0.65,-0.9 q 0.35,-1.05 -0.5,-1.8 l -0.75,-0.45 1.35,-3.3 q 0.35,0.3 0.8,0.4 l 0.95,-0.15 v 0.7 q 0.05,3.35 -1.7,7.05 -0.95,2 -2.65,4.35 -0.3,-1.9 -1.35,-3 l -0.65,-0.55 m -68.4,32.7 q 5.25,1.55 11.3,1.2 5.95,-0.35 12.15,-2.5 5.35,-1.8 11.3,-5.05 L 7.65,8.85 16.7,2.7 l 3.95,-3.1 0.3,0.2 1.2,0.7 2.15,1.45 Q 19.6,6.6 15.55,9.45 13.05,11.2 9.75,13 L 8.4,12.45 Q 5.3,11.55 3.75,13.05 2.8,13.95 2.5,15.8 l -0.1,1.05 q -15.9,7.65 -29.3,8.35 -7,0.3 -10,-2.6 l -0.8,-0.95 m 64.15,-27.5 2.1,-2.35 0.6,0.4 q 0.45,0.5 0.5,1.1 0.3,1.2 -0.25,3.25 l -1.5,1.65 -1.4,1.5 -1.2,-1 0.2,-0.2 1.35,-1.75 0.65,-1.1 q 0.1,-0.55 -0.3,-1 -0.3,-0.45 -0.75,-0.5 m -43.95,-5.2 1.05,1.2 q -7.5,5.6 -13.1,13.15 -4.3,5.75 -6,11 l -0.25,0.95 -1.7,-0.55 -1.15,-0.85 q 3.6,-8.3 7.4,-13 3.5,-4.25 8.9,-8.4 l 4.85,-3.5"
         fill="#968b82"
         fill-rule="evenodd"
         stroke="none"
         id="path3" />
      <path
         d="M 1.1,28.65 1.35,27.8 q 1,-2.55 2.8,-4.15 0.8,-0.65 1.6,-1 l 2.3,-0.55 2.05,-0.5 h 0.2 q 1.35,0.85 1.75,2.6 0.55,2.25 -0.8,4 l -0.6,0.7 -1.35,1 -2.55,1.3 Q 5.35,31.8 3.7,31.2 1.9,30.6 1.2,29 L 1.1,28.65"
         fill="#ffffff"
         fill-rule="evenodd"
         stroke="none"
         id="path4" />
      <path
         d="M 1.1,28.65 1.2,29 q 0.7,1.6 2.5,2.2 1.65,0.6 3.05,0 l 2.55,-1.3 1.35,-1 0.6,-0.7 q 1.35,-1.75 0.8,-4 -0.4,-1.75 -1.75,-2.6 l 3,0.35 q 1.1,0.35 1.5,0.6 l 1,1.15 1.1,1.85 0.3,1.85 v 1.4 l -0.25,0.95 -0.45,1.1 -0.8,1.3 -0.8,1 -1.25,0.7 -2.7,1 L 7.6,35.45 6.2,35.35 3.85,34.7 Q 2.4,34.1 1.9,33.1 L 1.35,31.95 0.95,31.3 0.85,30.65 q 0,-0.85 0.15,-1.7 l 0.1,-0.3"
         fill="#dfdfdf"
         fill-rule="evenodd"
         stroke="none"
         id="path5" />
    </g>
    <g
       id="sprite1"
       transform="translate(17.4,15.85)">
      <use
         ffdec:characterId="31"
         height="57.200001"
         transform="matrix(0.5366,0,0,0.5366,-16.6582,-14.546)"
         width="70.75"
         xlink:href="#sprite2"
         id="use5" />
    </g>
    <g
       id="sprite2"
       transform="translate(-8.65,-10.35)">
      <use
         ffdec:characterId="30"
         height="57.200001"
         transform="translate(8.65,10.35)"
         width="70.75"
         xlink:href="#shape1"
         id="use6" />
    </g>
    <g
       id="shape1"
       transform="translate(-8.65,-10.35)">
      <path
         d="m 14.8,41.7 q 0.65,-1.75 2.65,-2.5 1.8,-0.8 3.7,-0.25 1.15,0.45 2.25,1.2 l 0.9,0.4 q 1.65,0.9 2.85,2.5 L 37.8,30.1 q 2.35,-2.8 3.75,-3.95 1.5,-1.15 4.25,-2.4 18.2,-8.85 27.65,-12.6 2.15,-0.8 3.25,-0.8 h 0.8 l 1.9,2.4 -0.2,0.8 q -0.2,1.1 -1.55,3 -5.85,8.25 -18.85,23.8 -1.85,2.35 -3.35,3.5 -1.4,1.15 -4.75,2.75 l -15.15,7.15 q 1.2,1.6 1.75,3.4 l 0.2,1 0.55,2.5 q 0.1,1.95 -1.1,3.55 -1.2,1.65 -3.05,1.9 l -1.3,0.05 q -1.65,0.2 -3.45,-0.65 -1.85,-0.9 -3,-2.6 L 25,60.95 23.8,62.1 q -2.6,2.85 -4.3,3.95 -2.85,1.8 -5.5,1.45 l -1.65,-0.5 -1.2,-0.7 -0.2,-0.2 q -1,-0.85 -1.6,-1.9 L 9.25,64 9.15,63.8 8.75,62.4 q -0.2,-0.8 -0.05,-1.7 0.25,-2.65 2.7,-5.05 1.5,-1.3 4.9,-3.15 L 17.7,51.55 16.05,50 q -1.35,-1.5 -1.8,-3.6 -0.4,-1.85 0.25,-3.45 l 0.3,-1.25"
         fill="#000000"
         fill-opacity="0.372549"
         fill-rule="evenodd"
         stroke="none"
         id="path6" />
    </g>
  </defs>
</svg>
