<?xml version="1.0" encoding="UTF-8" standalone="no"?>
<svg
   ffdec:objectType="frame"
   height="49.228573"
   width="78.71814"
   version="1.1"
   id="svg4"
   sodipodi:docname="ITEM Used Glasses.svg"
   xmlns:inkscape="http://www.inkscape.org/namespaces/inkscape"
   xmlns:sodipodi="http://sodipodi.sourceforge.net/DTD/sodipodi-0.dtd"
   xmlns:xlink="http://www.w3.org/1999/xlink"
   xmlns="http://www.w3.org/2000/svg"
   xmlns:svg="http://www.w3.org/2000/svg"
   xmlns:ffdec="https://www.free-decompiler.com/flash">
  <sodipodi:namedview
     id="namedview4"
     pagecolor="#ffffff"
     bordercolor="#000000"
     borderopacity="0.25"
     inkscape:showpageshadow="2"
     inkscape:pageopacity="0.0"
     inkscape:pagecheckerboard="0"
     inkscape:deskcolor="#d1d1d1"
     fit-margin-top="5"
     fit-margin-left="5"
     fit-margin-right="5"
     fit-margin-bottom="5" />
  <g
     transform="translate(42.23481,29.3)"
     id="g1">
    <use
       ffdec:characterId="17"
       height="119.15"
       id="rarity"
       transform="translate(-58.5,-60.65)"
       width="119.15"
       xlink:href="#sprite0" />
    <use
       ffdec:characterId="950"
       height="49.25"
       transform="translate(-42.25,-29.3)"
       width="78.75"
       xlink:href="#shape0"
       id="use1" />
  </g>
  <defs
     id="defs4">
    <g
       id="shape0"
       transform="translate(89.05,30.65)">
      <path
         d="m -32.75,-17.2 4,-0.35 -10.75,-6.7 q -2.4,0.6 -4.7,1.75 l -2.35,1.35 q -2.9,4.2 -5.25,-0.35 -0.6,-1.15 -0.2,-2.35 0.95,-3.2 4.5,-4.5 3.65,-1.35 7.25,-2.3 7.2,1.45 13,6.45 4.45,3.8 9.25,7.2 3.6,0.65 7.1,1.85 0.5,0.2 0.55,0.8 0.1,4.25 -0.1,8.6 L -10.75,3 q 0,2.4 -1.7,3.85 -1.5,1.3 -3.65,1.5 l -8.6,1.35 q -9.25,1.85 -18.45,1.1 -0.9,-0.05 -1.15,-0.95 l -2.75,-11.55 -0.1,-0.2 -0.1,-0.25 -0.05,-0.15 -0.15,0.05 -0.85,0.2 -2.8,0.7 -1.95,0.5 q 0.05,3.5 0.8,7 0.55,2.55 0.4,5.25 -0.2,4.15 -4.85,4.9 l -6.35,0.8 -3.5,0.9 q -8.3,0.9 -16.5,0.4 -0.95,-0.05 -1.3,-1 -2.05,-6.1 -1.8,-12.8 l 0.3,-2.95 -1.2,-0.55 q -2.8,-1.75 -1.65,-5.1 3.9,-11.85 13.3,-20 l 0.7,-0.3 q 6,2.9 6.5,9.6 0.15,1.95 -1.8,2.5 -3.25,0.9 -4.5,-2.25 L -75,-15.6 q -3.4,3.15 -5.6,7.8 -0.95,2.1 -2,4.1 l 0.7,0.15 q 4.75,0.4 4.05,5.15 l -0.25,3.35 -0.1,1.1 0.1,1.45 -0.1,1.3 0.1,0.45 0.25,1.3 0.2,0.2 0.15,0.2 0.05,0.2 0.1,0.25 0.05,0.2 0.1,0.15 q 1.9,0.2 4.05,0 Q -65.3,11 -58,9.45 V 9.25 L -58.1,8.8 -58.8,5.65 q -0.4,-3.4 -0.25,-6.9 l -0.1,-0.25 q -0.2,-0.5 -0.05,-1 1.1,-4.15 5.8,-5.1 l 5.15,-0.95 q 0.15,-0.45 0.15,-0.85 -0.2,-5.35 4.4,-6.8 l 3.05,-0.45 7.9,-0.55 m -0.45,6.25 -6.6,0.55 -1.5,0.2 -0.1,0.2 -0.05,0.65 v 0.2 q -0.35,2.05 -0.15,4.1 v 1.25 l 0.2,0.45 0.1,0.45 0.1,0.4 0.15,0.8 1.65,-1.65 q 1.6,-1.4 3.65,-1.65 1.45,-0.2 2.7,0.65 l 2.2,1.2 4.9,-2.55 -0.25,-5.3 q -3.55,-0.3 -7,0.05 M -33.75,0 l -1.5,-1.15 -0.5,-0.1 h -0.35 l -0.75,0.55 -0.9,1.15 -2.4,1.7 0.35,1.15 0.4,1.5 h 1.45 l 3.05,-0.15 2.25,-0.2 0.25,-1.9 0.05,-0.2 q 0.1,-0.65 0.05,-1.3 L -33.75,0 m 9.85,3.25 7.1,-1.6 0.1,-0.85 -0.05,-2.35 Q -17,-5.8 -16.4,-9.9 q -1.1,-0.25 -2.3,-0.95 h -2.15 q 0.25,1.05 0.25,2.35 v 0.4 q -0.1,3.35 -1.4,6.2 -0.25,0.5 -0.85,0.75 l -2.5,0.95 -4.3,1.4 q 0.25,1.4 -0.15,2.95 l 2,-0.3 2.9,-0.45 1,-0.15"
         fill="#000000"
         fill-rule="evenodd"
         stroke="none"
         id="path1" />
      <path
         d="m -37.95,4.8 0.05,-0.15 2.1,-2.4 0.75,-0.6 1.3,-1.65 1.45,1.05 q 0.05,0.65 -0.05,1.3 l -2.55,2.3 -3.05,0.15 m 17.35,-12.9 1.45,-1.4 0.35,-0.1 0.4,-0.1 v -0.05 l 0.8,0.25 0.65,0.4 0.05,0.25 0.05,0.3 0.05,0.45 -6.4,10.35 -0.7,1 -1,0.15 -2.9,0.45 -0.15,-0.35 V 2.75 l 0.05,-0.25 2.55,-2.7 2.5,-0.95 q 0.6,-0.25 0.85,-0.75 1.3,-2.85 1.4,-6.2"
         fill="#ffffff"
         fill-rule="evenodd"
         stroke="none"
         id="path2" />
      <path
         d="m -37.95,4.8 h -1.45 l -0.4,-1.5 -0.35,-1.15 2.4,-1.7 0.9,-1.15 0.75,-0.55 h 0.35 l 0.5,0.1 1.5,1.15 -1.3,1.65 -0.75,0.6 -2.1,2.4 -0.05,0.15 m 4.75,-15.75 q 3.45,-0.35 7,-0.05 l 0.25,5.3 -4.9,2.55 -2.2,-1.2 q -1.25,-0.85 -2.7,-0.65 -2.05,0.25 -3.65,1.65 l -1.65,1.65 -0.15,-0.8 -0.1,-0.4 -0.1,-0.45 -0.2,-0.45 v -1.25 q -0.2,-2.05 0.15,-4.1 v -0.2 l 0.05,-0.65 0.1,-0.2 1.5,-0.2 6.6,-0.55 m 0.85,13.3 -0.05,0.2 -0.25,1.9 -2.25,0.2 2.55,-2.3 M -20.6,-8.1 v -0.4 q 0,-1.3 -0.25,-2.35 h 2.15 q 1.2,0.7 2.3,0.95 -0.6,4.1 -0.35,8.35 l 0.05,2.35 -0.1,0.85 -7.1,1.6 0.7,-1 6.4,-10.35 -0.05,-0.45 -0.05,-0.3 -0.05,-0.25 -0.65,-0.4 -0.8,-0.25 v 0.05 l -0.4,0.1 -0.35,0.1 -1.45,1.4 m -7.2,11.95 -2,0.3 q 0.4,-1.55 0.15,-2.95 l 4.3,-1.4 -2.55,2.7 -0.05,0.25 V 3.5 l 0.15,0.35"
         fill="#ffffff"
         fill-opacity="0"
         fill-rule="evenodd"
         stroke="none"
         id="path3" />
    </g>
    <g
       id="sprite1"
       transform="translate(17.4,15.85)">
      <use
         ffdec:characterId="31"
         height="57.200001"
         transform="matrix(0.5366,0,0,0.5366,-16.6582,-14.546)"
         width="70.75"
         xlink:href="#sprite2"
         id="use3" />
    </g>
    <g
       id="sprite2"
       transform="translate(-8.65,-10.35)">
      <use
         ffdec:characterId="30"
         height="57.200001"
         transform="translate(8.65,10.35)"
         width="70.75"
         xlink:href="#shape1"
         id="use4" />
    </g>
    <g
       id="shape1"
       transform="translate(-8.65,-10.35)">
      <path
         d="m 14.8,41.7 q 0.65,-1.75 2.65,-2.5 1.8,-0.8 3.7,-0.25 1.15,0.45 2.25,1.2 l 0.9,0.4 q 1.65,0.9 2.85,2.5 L 37.8,30.1 q 2.35,-2.8 3.75,-3.95 1.5,-1.15 4.25,-2.4 18.2,-8.85 27.65,-12.6 2.15,-0.8 3.25,-0.8 h 0.8 l 1.9,2.4 -0.2,0.8 q -0.2,1.1 -1.55,3 -5.85,8.25 -18.85,23.8 -1.85,2.35 -3.35,3.5 -1.4,1.15 -4.75,2.75 l -15.15,7.15 q 1.2,1.6 1.75,3.4 l 0.2,1 0.55,2.5 q 0.1,1.95 -1.1,3.55 -1.2,1.65 -3.05,1.9 l -1.3,0.05 q -1.65,0.2 -3.45,-0.65 -1.85,-0.9 -3,-2.6 L 25,60.95 23.8,62.1 q -2.6,2.85 -4.3,3.95 -2.85,1.8 -5.5,1.45 l -1.65,-0.5 -1.2,-0.7 -0.2,-0.2 q -1,-0.85 -1.6,-1.9 L 9.25,64 9.15,63.8 8.75,62.4 q -0.2,-0.8 -0.05,-1.7 0.25,-2.65 2.7,-5.05 1.5,-1.3 4.9,-3.15 L 17.7,51.55 16.05,50 q -1.35,-1.5 -1.8,-3.6 -0.4,-1.85 0.25,-3.45 l 0.3,-1.25"
         fill="#000000"
         fill-opacity="0.372549"
         fill-rule="evenodd"
         stroke="none"
         id="path4" />
    </g>
  </defs>
</svg>
