<?xml version="1.0" encoding="UTF-8" standalone="no"?>
<svg
   ffdec:objectType="frame"
   height="60.371601"
   width="68.057945"
   version="1.1"
   id="svg5"
   xmlns:xlink="http://www.w3.org/1999/xlink"
   xmlns="http://www.w3.org/2000/svg"
   xmlns:svg="http://www.w3.org/2000/svg"
   xmlns:ffdec="https://www.free-decompiler.com/flash">
  <g
     transform="translate(31.916981,24.981349)"
     id="g1">
    <use
       ffdec:characterId="17"
       height="119.15"
       id="rarity"
       transform="translate(-58.5,-60.65)"
       width="119.15"
       xlink:href="#sprite0" />
    <use
       ffdec:characterId="472"
       height="60.400002"
       transform="translate(-31.9,-25)"
       width="68.050003"
       xlink:href="#shape0"
       id="use1" />
  </g>
  <defs
     id="defs5">
    <g
       id="shape0"
       transform="translate(31.5,24.2)">
      <path
         d="m 3.5,-23.8 q 10.5,-1.55 19.3,3.2 1.9,1 3.3,2.55 4.15,4.55 6.95,10 l 1.1,1.4 q 4.6,3.6 0.35,8 -2.05,2.15 -5,2.9 Q 20.65,6.55 11.65,8 L 12,10.05 q 0.45,6.15 0.15,12.3 -0.5,8.9 -8.55,12.65 -7.45,3.45 -11.7,-3.1 -0.95,-1.45 -1,-3.25 -0.1,-5.6 4.05,-9.65 l 0.25,-1.3 0.9,-2.1 q -0.2,-2.95 0.5,-5.75 -9.05,0.65 -18.25,0.1 l -6.7,-1.05 q -3,-0.75 -3.15,-3.7 -0.3,-7.4 4.7,-13.25 3.25,-3.8 7.75,-5.9 l 8.35,-3.9 11.8,-5.25 q 1.25,-0.55 2.4,-0.7 m -27.6,22.2 -0.55,0.9 -0.35,0.85 -0.45,1.1 -0.65,1.25 v 0.2 0.45 0.4 L -26.15,4 V 4.2 Q -18.4,6 -9.8,5.15 L 4.8,3.35 q 13.35,-1.95 26.25,-5.7 -3.45,-2.4 -5.25,-6.4 -3.65,-8.05 -11.85,-9 l -3.2,-0.15 -6.6,0.1 q -7.95,3.45 -16,6.8 l -2.55,1.1 q -6.1,2.7 -9.7,8.3 M 4.35,9.05 1.6,9.4 1.15,11.45 Q 2,17.8 -1.3,23.1 l -2,3.6 -0.4,1.05 q 1.95,4.5 6.45,1.25 L 4,28.25 q 1.35,-2.35 1.8,-5 0.25,-1.6 0.65,-3.15 0.3,-5.75 -0.9,-11.2 l -1.2,0.15"
         fill="#000000"
         fill-rule="evenodd"
         stroke="none"
         id="path1" />
      <path
         d="m 13.95,-17.75 q 3.3,1.15 6.35,3.05 1,0.65 0.75,1.8 -0.95,4.15 -4.9,6.05 l -7.3,3.4 Q 0.7,0.3 -8.3,0.65 q -5.35,0.2 -10.75,0.05 -3.8,-0.15 -5.05,-2.3 3.6,-5.6 9.7,-8.3 l 2.55,-1.1 q 8.05,-3.35 16,-6.8 l 6.6,-0.1 3.2,0.15"
         fill="#aa7575"
         fill-rule="evenodd"
         stroke="none"
         id="path2" />
      <path
         d="m -24.1,-1.6 q 1.25,2.15 5.05,2.3 5.4,0.15 10.75,-0.05 9,-0.35 17.15,-4.1 l 7.3,-3.4 q 3.95,-1.9 4.9,-6.05 0.25,-1.15 -0.75,-1.8 -3.05,-1.9 -6.35,-3.05 8.2,0.95 11.85,9 1.8,4 5.25,6.4 Q 18.15,1.4 4.8,3.35 L -9.8,5.15 Q -18.4,6 -26.15,4.2 V 4 L -26.1,3.55 V 3.15 2.7 2.5 l 0.65,-1.25 0.45,-1.1 0.35,-0.85 0.55,-0.9"
         fill="#8e6262"
         fill-rule="evenodd"
         stroke="none"
         id="path3" />
      <path
         d="M 4.35,9.05 5.55,8.9 q 1.2,5.45 0.9,11.2 -0.4,1.55 -0.65,3.15 -0.45,2.65 -1.8,5 L 2.75,29 q -4.5,3.25 -6.45,-1.25 l 0.4,-1.05 2,-3.6 Q 2,17.8 1.15,11.45 L 1.6,9.4 4.35,9.05"
         fill="#9f8989"
         fill-rule="evenodd"
         stroke="none"
         id="path4" />
    </g>
    <g
       id="sprite1"
       transform="translate(17.4,15.85)">
      <use
         ffdec:characterId="31"
         height="57.200001"
         transform="matrix(0.5366,0,0,0.5366,-16.6582,-14.546)"
         width="70.75"
         xlink:href="#sprite2"
         id="use4" />
    </g>
    <g
       id="sprite2"
       transform="translate(-8.65,-10.35)">
      <use
         ffdec:characterId="30"
         height="57.200001"
         transform="translate(8.65,10.35)"
         width="70.75"
         xlink:href="#shape1"
         id="use5" />
    </g>
    <g
       id="shape1"
       transform="translate(-8.65,-10.35)">
      <path
         d="m 14.8,41.7 q 0.65,-1.75 2.65,-2.5 1.8,-0.8 3.7,-0.25 1.15,0.45 2.25,1.2 l 0.9,0.4 q 1.65,0.9 2.85,2.5 L 37.8,30.1 q 2.35,-2.8 3.75,-3.95 1.5,-1.15 4.25,-2.4 18.2,-8.85 27.65,-12.6 2.15,-0.8 3.25,-0.8 h 0.8 l 1.9,2.4 -0.2,0.8 q -0.2,1.1 -1.55,3 -5.85,8.25 -18.85,23.8 -1.85,2.35 -3.35,3.5 -1.4,1.15 -4.75,2.75 l -15.15,7.15 q 1.2,1.6 1.75,3.4 l 0.2,1 0.55,2.5 q 0.1,1.95 -1.1,3.55 -1.2,1.65 -3.05,1.9 l -1.3,0.05 q -1.65,0.2 -3.45,-0.65 -1.85,-0.9 -3,-2.6 L 25,60.95 23.8,62.1 q -2.6,2.85 -4.3,3.95 -2.85,1.8 -5.5,1.45 l -1.65,-0.5 -1.2,-0.7 -0.2,-0.2 q -1,-0.85 -1.6,-1.9 L 9.25,64 9.15,63.8 8.75,62.4 q -0.2,-0.8 -0.05,-1.7 0.25,-2.65 2.7,-5.05 1.5,-1.3 4.9,-3.15 L 17.7,51.55 16.05,50 q -1.35,-1.5 -1.8,-3.6 -0.4,-1.85 0.25,-3.45 l 0.3,-1.25"
         fill="#000000"
         fill-opacity="0.372549"
         fill-rule="evenodd"
         stroke="none"
         id="path5" />
    </g>
  </defs>
</svg>
