<?xml version="1.0" encoding="UTF-8" standalone="no"?>
<svg
   ffdec:objectType="frame"
   height="74.650558"
   width="101.00417"
   version="1.1"
   id="svg7"
   sodipodi:docname="ITEM Fighter's Helm.svg"
   xmlns:inkscape="http://www.inkscape.org/namespaces/inkscape"
   xmlns:sodipodi="http://sodipodi.sourceforge.net/DTD/sodipodi-0.dtd"
   xmlns:xlink="http://www.w3.org/1999/xlink"
   xmlns="http://www.w3.org/2000/svg"
   xmlns:svg="http://www.w3.org/2000/svg"
   xmlns:ffdec="https://www.free-decompiler.com/flash">
  <sodipodi:namedview
     id="namedview7"
     pagecolor="#ffffff"
     bordercolor="#000000"
     borderopacity="0.25"
     inkscape:showpageshadow="2"
     inkscape:pageopacity="0.0"
     inkscape:pagecheckerboard="0"
     inkscape:deskcolor="#d1d1d1"
     fit-margin-top="5"
     fit-margin-left="5"
     fit-margin-right="5"
     fit-margin-bottom="5" />
  <g
     transform="translate(51.8,38.125)"
     id="g1">
    <use
       ffdec:characterId="17"
       height="119.15"
       id="rarity"
       transform="translate(-58.5,-60.65)"
       width="119.15"
       xlink:href="#sprite0" />
    <use
       ffdec:characterId="1227"
       height="74.699997"
       transform="translate(-51.8,-38.15)"
       width="101"
       xlink:href="#shape0"
       id="use1" />
  </g>
  <defs
     id="defs7">
    <g
       id="shape0"
       transform="translate(50.5,36.25)">
      <path
         d="m 49,12.1 q 1.9,2.4 1.4,7.65 -0.5,4.15 -1.65,6.25 -2.1,3.8 -7.05,5.25 -3.5,1.05 -9,0.75 -1.8,0 -2.75,-0.6 -1.5,-1 -1.8,-4.4 L 28,25.5 24.35,26.05 h -0.5 v 0.4 q 0.1,3.2 -0.5,4.6 -1.35,3.3 -6.2,4.15 L 13.3,35.45 9.45,35.55 7.8,35.7 6.2,35.65 Q 4.25,35.4 3.45,34.1 2.9,33.2 3,30.9 L 3.1,28.95 2.6,29 q -2.45,-0.1 -3.7,0.05 l -3,0.35 -1.35,0.35 -1.4,0.2 -0.15,0.95 -0.25,2.3 q -0.25,1.25 -0.85,2.05 -0.95,1.25 -3.25,2 -7.1,2.3 -15.9,0.1 -6.05,-1.5 -14.85,-6.1 l -4.8,-3 q -2.45,-2 -3.2,-4.4 -0.6,-1.8 -0.3,-5.6 l 0.65,-5.8 q 0.5,-2.45 1.5,-3.55 0.9,-0.95 3.05,-1.55 Q -44,7 -43.7,6.7 -43.3,6.25 -43.2,5 L -43,0.45 q 0.1,-3.35 0.55,-4.95 0.55,-2.05 2.45,-5.3 3.8,-6.6 7.15,-9.25 2.2,-1.75 5.45,-3.05 l 6,-2.05 5.8,-1.6 q -0.2,-1 0.1,-2.35 0.45,-1.9 1.45,-3.05 1.25,-1.35 4.55,-2.55 l 5.4,-1.9 q 5.85,-1.5 11.45,0.6 4.85,1.8 8.05,5.85 l 3.2,-0.25 q 8.15,0.75 16.75,6.9 l 3.05,2.65 q 1.25,1.35 2.9,4.35 2.95,5.55 4,9.75 1.5,5.65 0.3,10.45 l -1.15,4.2 -0.1,0.6 q 3.15,0.7 4.65,2.6 m -4.05,5.7 Q 45,16.35 44.35,15.7 43.8,15.1 42.45,14.95 l -0.8,-0.1 -0.65,0.2 -0.75,0.35 q -0.85,0.2 -1.6,-0.6 -0.5,-0.65 -0.6,-1.7 Q 37.95,12.55 38,11.5 L 37.95,9.9 37.25,7 35.5,2.35 30.5,2.05 27.65,2.3 q -3.05,0.3 -6.45,0.05 -1.4,0 -2.05,-0.55 -0.55,-0.15 -1,-0.6 -0.7,-0.7 -0.9,-2.1 l -0.1,-0.5 q -0.2,-1.6 0,-3.85 v -0.1 l 0.35,-3.8 q 0.45,-4.75 -1,-7.55 l -1.75,-2.65 -2.6,-4.6 Q 9.75,-27.6 5.4,-29.2 l -2.8,-0.75 0.25,0.65 q 0.2,0.8 -0.1,1.5 -0.3,0.8 -1.1,1.2 -0.8,0.45 -1.65,0.3 -1.25,-0.25 -1.8,-1.35 -0.6,-1.2 0.05,-2.25 l -1.4,0.3 -2.2,0.8 -0.85,0.35 -1.35,0.55 -0.25,0.1 q -1.2,0.45 -1.6,1.05 l -0.05,0.1 0.65,0.15 1.15,0.85 0.2,0.3 q 2.7,1.15 5.1,2.45 l 2.4,1.55 1.8,2.1 3.05,4.4 0.25,0.4 q 0.9,1.45 1.1,2.55 v 2.95 l 0.15,4.2 v 0.9 l -0.05,1 L 5.9,-0.7 5.75,-0.25 6,0.75 Q 5.95,1.45 5.35,1.95 L 5.1,2.2 4.05,2.55 1.2,2.4 H 0.9 l -1.95,0.05 -1,0.15 -2.5,0.45 q -5.5,1.2 -7.9,2.45 -1.5,0.75 -2.05,1.65 l -0.65,2.05 -0.05,0.25 q -0.65,3.65 -0.8,8.15 0,2.05 -0.25,3 -0.5,1.7 -1.7,2.4 l -2.75,0.4 -6.2,-0.7 q -3.3,-0.85 -5.35,-2.75 l -2.35,-2.4 -2.95,-2 -2.9,-2.05 -0.6,-0.75 -0.9,0.2 q -0.85,0.1 -1.25,0.45 -0.35,0.35 -0.6,1.6 l -0.05,0.4 -0.3,3.4 q -0.2,2.1 0.15,3.1 0.65,1.6 3.5,3.1 3.45,1.8 7.4,3.5 4.9,2.15 8.65,3 l 8.95,0.45 q 1.35,-0.2 1.95,-0.85 0.3,-0.35 0.65,-1.7 l 1.45,-8.25 q 0.65,-3.25 1.55,-4.5 1.35,-1.85 4.75,-2.9 3.9,-1.25 8.05,-1.5 3.3,-0.2 4.7,1.15 1.45,1.35 1.45,5.1 l 0.2,11.05 6.45,-0.2 q 1.5,-0.1 2,-0.75 0.45,-0.5 0.35,-1.75 L 17.9,17.3 q -0.1,-2.75 0.75,-4 0.85,-1.3 3.6,-2.2 3.3,-1.1 5.45,-0.95 1.4,0.1 2.65,0.75 1.3,0.7 1.95,1.85 0.6,1 0.8,3.7 l 1.05,9.75 5.05,-0.4 q 2.75,-0.65 4.1,-2.4 1.3,-1.7 1.6,-5.05 L 44.95,17.8 M 1.3,-10.6 1.15,-10.9 0.5,-11.95 -2,-15.35 q -1.55,-1.8 -3.15,-2.85 l -3.05,-1.55 -0.8,-0.35 -2.25,-1.1 -0.3,-0.2 -0.3,-0.2 -7.55,2.55 -1.05,0.4 -4.5,1.8 q -2.25,1.05 -3.6,2.15 l -1.65,1.6 -3.05,4 q -2.2,3.4 -2.9,5.85 l -0.25,0.95 -0.5,3.7 -0.1,4.75 q -0.05,2.6 -0.75,4.1 l 1.3,1.1 q 3.8,3.55 7,5.2 4.4,2.3 8.45,1.8 l 0.45,-6.3 0.45,-4 q 0.4,-1.85 1.15,-3.2 l 0.3,-0.5 q 1.15,-1.85 3.3,-3.05 l 0.55,-0.3 1,-0.45 6,-1.65 5.75,-0.9 4.3,0.15 Q 1.6,-5.65 1.55,-8.5 L 1.5,-9.85 1.4,-10.4 1.3,-10.6 m 37,1.55 -1.4,-2.8 -0.8,-1.35 q -2.2,-3.5 -5.2,-5.55 -1.45,-1 -4.75,-2.5 -3.85,-1.8 -6.15,-2 h -1.1 l 1.05,2 1.7,3.1 q 0.7,1.8 0.8,4.15 v 1.4 l -0.2,2.9 -0.65,7.85 3.55,-0.55 6.45,-0.45 4.45,0.2 q 1.7,0.3 2.55,0.95 0.75,0.55 1.55,2.35 l 0.45,1 0.1,-0.8 q 0.1,-1.2 -0.4,-3.5 -0.85,-3.5 -2,-6.4 M 10.75,-21.9 q 0.35,1.15 -0.2,2.05 -0.45,1 -1.6,1.25 L 7.7,-18.7 q -1.05,-0.3 -1.5,-1.5 -0.25,-0.75 -0.1,-1.55 0.2,-0.8 0.8,-1.3 0.6,-0.55 1.45,-0.6 0.8,-0.05 1.45,0.4 l 0.95,1.35 m -1,15.95 q -0.1,-0.7 0.15,-1.3 0.2,-0.55 0.75,-0.95 0.6,-0.5 1.45,-0.55 0.85,-0.05 1.5,0.45 0.65,0.45 0.9,1.3 0.25,0.8 0,1.55 -0.3,0.75 -1.05,1.2 -0.7,0.45 -1.5,0.35 -0.8,-0.05 -1.45,-0.65 -0.6,-0.6 -0.75,-1.4 m 17.3,22.1 -1.7,0.25 q -1,0.15 -1.4,0.7 -0.35,0.5 -0.35,1.8 l 0.1,3 0.35,-0.15 3.45,-1.1 -0.45,-4.5 m -24,2.45 q -4.05,0 -7.8,1.8 L -6.1,25.8 -4.95,25.45 -3.3,25.15 -1.5,24.6 0.75,24.45 2.85,23.9 3.2,23.85 3.05,18.6"
         fill="#000000"
         fill-rule="evenodd"
         stroke="none"
         id="path1" />
      <path
         d="m -36.4,-2.3 0.25,-0.95 q 0.7,-2.45 2.9,-5.85 l 3.05,-4 1.65,-1.6 q 1.35,-1.1 3.6,-2.15 l 4.5,-1.8 1.05,-0.4 7.55,-2.55 0.3,0.2 0.3,0.2 2.25,1.1 0.8,0.35 3.05,1.55 q 1.6,1.05 3.15,2.85 l 2.5,3.4 0.65,1.05 0.15,0.3 0.2,0.75 0.05,1.35 q 0.05,2.85 0.7,6.65 l -4.3,-0.15 -5.75,0.9 -6,1.65 -1,0.45 -0.55,0.3 q -2.15,1.2 -3.3,3.05 l -0.3,0.5 -2,-0.05 -1.1,0.4 -1.1,0.4 Q -24.3,5.75 -25.2,4.95 -26.05,4.1 -26.15,2.35 v -1.4 q 0.05,-0.9 -0.05,-1.45 l -3.5,2.45 -1.5,1.2 q -0.85,0.55 -1.65,0.6 -0.95,0.05 -1.8,-0.6 l -1.2,-1.5 q -0.55,-1.2 -0.55,-3.8 V -2.3 m 68,-0.55 -6.45,0.45 -3.55,0.55 0.65,-7.85 0.2,-2.9 V -14 q -0.1,-2.35 -0.8,-4.15 l -1.7,-3.1 -1.05,-2 H 20 q 2.3,0.2 6.15,2 3.3,1.5 4.75,2.5 3,2.05 5.2,5.55 l 0.8,1.35 1.4,2.8 -0.8,0.65 -1.6,1.25 -1,1.3 q -0.9,1.05 -2.05,0.9 l -0.9,-0.25 -0.2,-0.05 0.05,0.4 q 0.1,1 -0.2,1.9 v 0.1"
         fill="#8b7c7c"
         fill-rule="evenodd"
         stroke="none"
         id="path2" />
      <path
         d="m -36.4,-2.3 v 0.15 q 0,2.6 0.55,3.8 l 1.2,1.5 q 0.85,0.65 1.8,0.6 0.8,-0.05 1.65,-0.6 l 1.5,-1.2 3.5,-2.45 q 0.1,0.55 0.05,1.45 v 1.4 q 0.1,1.75 0.95,2.6 0.9,0.8 2.05,0.65 l 1.1,-0.4 1.1,-0.4 2,0.05 q -0.75,1.35 -1.15,3.2 l -0.45,4 -0.45,6.3 q -4.05,0.5 -8.45,-1.8 -3.2,-1.65 -7,-5.2 l -1.3,-1.1 q 0.7,-1.5 0.75,-4.1 l 0.1,-4.75 0.5,-3.7 m 68,-0.55 v -0.1 q 0.3,-0.9 0.2,-1.9 l -0.05,-0.4 0.2,0.05 0.9,0.25 Q 34,-4.8 34.9,-5.85 l 1,-1.3 1.6,-1.25 0.8,-0.65 q 1.15,2.9 2,6.4 0.5,2.3 0.4,3.5 l -0.1,0.8 -0.45,-1 q -0.8,-1.8 -1.55,-2.35 -0.85,-0.65 -2.55,-0.95 l -4.45,-0.2"
         fill="#695a5a"
         fill-rule="evenodd"
         stroke="none"
         id="path3" />
      <path
         d="m -7.8,-27.8 0.25,-0.1 1.35,-0.55 0.85,-0.35 2.2,-0.8 1.4,-0.3 q -0.65,1.05 -0.05,2.25 0.55,1.1 1.8,1.35 0.85,0.15 1.65,-0.3 0.8,-0.4 1.1,-1.2 0.3,-0.7 0.1,-1.5 l -0.25,-0.65 2.8,0.75 q 4.35,1.6 6.75,5.25 l 2.6,4.6 1.75,2.65 q 1.45,2.8 1,7.55 l -0.35,3.8 v 0.1 q -0.2,2.25 0,3.85 l 0.1,0.5 q 0.2,1.4 0.9,2.1 0.45,0.45 1,0.6 0.65,0.55 2.05,0.55 3.4,0.25 6.45,-0.05 l 2.85,-0.25 5,0.3 1.75,4.65 0.7,2.9 0.05,1.6 q -0.05,1.05 0.05,1.6 0.1,1.05 0.6,1.7 0.75,0.8 1.6,0.6 l 0.75,-0.35 0.65,-0.2 0.8,0.1 q 1.35,0.15 1.9,0.75 0.65,0.65 0.6,2.1 l -4,0.3 Q 38.5,18 37.25,16.95 36.35,16.15 35.6,14.5 34.5,12.1 34,9.6 33.7,7.7 33.1,7 32.1,5.65 28.8,5.65 L 22.2,5.45 Q 18.5,5 16,3.55 14.3,2.6 13.7,1.35 H 13.45 Q 12.1,1.3 10.9,0.35 L 9.85,-0.75 9.1,-1.9 9.05,-1.15 8.75,0.8 8.65,1.25 8.2,2.5 6.5,4.45 l -0.7,0.6 -0.1,0.1 -2,1.4 -1.95,0.85 -1.8,0.15 -3.8,0.2 -5.7,1.2 -1.4,0.5 -0.55,0.3 -0.5,0.6 -0.15,1.8 q 0.15,2.3 -1.1,7.05 -1,3.75 -2.35,5.15 -1.45,1.5 -3.95,2 l -4.65,0.3 q -4.05,-0.1 -5.95,-0.8 -1.25,-0.5 -3.45,-2 -6.5,-4.3 -9.25,-7.2 l -1,-1.25 0.05,-0.4 q 0.25,-1.25 0.6,-1.6 0.4,-0.35 1.25,-0.45 l 0.9,-0.2 0.6,0.75 2.9,2.05 2.95,2 2.35,2.4 q 2.05,1.9 5.35,2.75 l 6.2,0.7 2.75,-0.4 q 1.2,-0.7 1.7,-2.4 0.25,-0.95 0.25,-3 0.15,-4.5 0.8,-8.15 l 0.05,-0.25 0.65,-2.05 q 0.55,-0.9 2.05,-1.65 2.4,-1.25 7.9,-2.45 l 2.5,-0.45 1,-0.15 L 0.9,2.4 H 1.2 L 4.05,2.55 5.1,2.2 5.35,1.95 Q 5.95,1.45 6,0.75 l -0.25,-1 0.15,-0.45 0.45,-2.15 0.05,-1 v -0.9 l -0.15,-4.2 v -2.95 q -0.2,-1.1 -1.1,-2.55 l 0.55,-0.35 0.5,0.05 q -2.25,-7.1 -7.35,-10.1 -1.55,-0.95 -3.4,-1.35 L -5.8,-26.45 Q -6.5,-26.6 -6.95,-26.9 L -7.8,-27.8 M 9.75,-5.95 q 0.15,0.8 0.75,1.4 0.65,0.6 1.45,0.65 0.8,0.1 1.5,-0.35 0.75,-0.45 1.05,-1.2 0.25,-0.75 0,-1.55 -0.25,-0.85 -0.9,-1.3 -0.65,-0.5 -1.5,-0.45 -0.85,0.05 -1.45,0.55 -0.55,0.4 -0.75,0.95 -0.25,0.6 -0.15,1.3 m 1,-15.95 -0.95,-1.35 q -0.65,-0.45 -1.45,-0.4 -0.85,0.05 -1.45,0.6 -0.6,0.5 -0.8,1.3 -0.15,0.8 0.1,1.55 0.45,1.2 1.5,1.5 l 1.25,0.1 q 1.15,-0.25 1.6,-1.25 0.55,-0.9 0.2,-2.05"
         fill="#c7c7c7"
         fill-rule="evenodd"
         stroke="none"
         id="path4" />
      <path
         d="m -7.8,-27.8 0.85,0.9 q 0.45,0.3 1.15,0.45 l 1.25,0.25 q 1.85,0.4 3.4,1.35 5.1,3 7.35,10.1 l -0.5,-0.05 -0.55,0.35 -0.25,-0.4 -3.05,-4.4 -1.8,-2.1 -2.4,-1.55 q -2.4,-1.3 -5.1,-2.45 l -0.2,-0.3 -1.15,-0.85 -0.65,-0.15 0.05,-0.1 q 0.4,-0.6 1.6,-1.05 m -36.05,43.2 1,1.25 q 2.75,2.9 9.25,7.2 2.2,1.5 3.45,2 1.9,0.7 5.95,0.8 l 4.65,-0.3 q 2.5,-0.5 3.95,-2 1.35,-1.4 2.35,-5.15 1.25,-4.75 1.1,-7.05 l 0.15,-1.8 0.5,-0.6 0.55,-0.3 1.4,-0.5 5.7,-1.2 3.8,-0.2 L 1.75,7.4 3.7,6.55 5.7,5.15 5.8,5.05 6.5,4.45 8.2,2.5 8.65,1.25 8.75,0.8 9.05,-1.15 9.1,-1.9 l 0.75,1.15 1.05,1.1 q 1.2,0.95 2.55,1 h 0.25 q 0.6,1.25 2.3,2.2 2.5,1.45 6.2,1.9 l 6.6,0.2 q 3.3,0 4.3,1.35 0.6,0.7 0.9,2.6 0.5,2.5 1.6,4.9 0.75,1.65 1.65,2.45 1.25,1.05 3.7,1.15 l 4,-0.3 -0.05,0.55 q -0.3,3.35 -1.6,5.05 -1.35,1.75 -4.1,2.4 L 34.15,26.2 33.1,16.45 Q 32.9,13.75 32.3,12.75 31.65,11.6 30.35,10.9 29.1,10.25 27.7,10.15 25.55,10 22.25,11.1 q -2.75,0.9 -3.6,2.2 -0.85,1.25 -0.75,4 l 0.15,9.55 q 0.1,1.25 -0.35,1.75 -0.5,0.65 -2,0.75 L 9.25,29.55 9.05,18.5 q 0,-3.75 -1.45,-5.1 -1.4,-1.35 -4.7,-1.15 -4.15,0.25 -8.05,1.5 -3.4,1.05 -4.75,2.9 -0.9,1.25 -1.55,4.5 l -1.45,8.25 q -0.35,1.35 -0.65,1.7 -0.6,0.65 -1.95,0.85 l -8.95,-0.45 q -3.75,-0.85 -8.65,-3 -3.95,-1.7 -7.4,-3.5 -2.85,-1.5 -3.5,-3.1 -0.35,-1 -0.15,-3.1 l 0.3,-3.4"
         fill="#919191"
         fill-rule="evenodd"
         stroke="none"
         id="path5" />
      <path
         d="m 3.05,18.6 0.15,5.25 -0.35,0.05 -2.1,0.55 -2.25,0.15 -1.8,0.55 -1.65,0.3 -1.15,0.35 1.35,-5.4 Q -1,18.6 3.05,18.6 m 24,-2.45 0.45,4.5 -3.45,1.1 -0.35,0.15 -0.1,-3 q 0,-1.3 0.35,-1.8 0.4,-0.55 1.4,-0.7 l 1.7,-0.25"
         fill="#565656"
         fill-rule="evenodd"
         stroke="none"
         id="path6" />
    </g>
    <g
       id="sprite1"
       transform="translate(17.4,15.85)">
      <use
         ffdec:characterId="31"
         height="57.200001"
         transform="matrix(0.5366,0,0,0.5366,-16.6582,-14.546)"
         width="70.75"
         xlink:href="#sprite2"
         id="use6" />
    </g>
    <g
       id="sprite2"
       transform="translate(-8.65,-10.35)">
      <use
         ffdec:characterId="30"
         height="57.200001"
         transform="translate(8.65,10.35)"
         width="70.75"
         xlink:href="#shape1"
         id="use7" />
    </g>
    <g
       id="shape1"
       transform="translate(-8.65,-10.35)">
      <path
         d="m 14.8,41.7 q 0.65,-1.75 2.65,-2.5 1.8,-0.8 3.7,-0.25 1.15,0.45 2.25,1.2 l 0.9,0.4 q 1.65,0.9 2.85,2.5 L 37.8,30.1 q 2.35,-2.8 3.75,-3.95 1.5,-1.15 4.25,-2.4 18.2,-8.85 27.65,-12.6 2.15,-0.8 3.25,-0.8 h 0.8 l 1.9,2.4 -0.2,0.8 q -0.2,1.1 -1.55,3 -5.85,8.25 -18.85,23.8 -1.85,2.35 -3.35,3.5 -1.4,1.15 -4.75,2.75 l -15.15,7.15 q 1.2,1.6 1.75,3.4 l 0.2,1 0.55,2.5 q 0.1,1.95 -1.1,3.55 -1.2,1.65 -3.05,1.9 l -1.3,0.05 q -1.65,0.2 -3.45,-0.65 -1.85,-0.9 -3,-2.6 L 25,60.95 23.8,62.1 q -2.6,2.85 -4.3,3.95 -2.85,1.8 -5.5,1.45 l -1.65,-0.5 -1.2,-0.7 -0.2,-0.2 q -1,-0.85 -1.6,-1.9 L 9.25,64 9.15,63.8 8.75,62.4 q -0.2,-0.8 -0.05,-1.7 0.25,-2.65 2.7,-5.05 1.5,-1.3 4.9,-3.15 L 17.7,51.55 16.05,50 q -1.35,-1.5 -1.8,-3.6 -0.4,-1.85 0.25,-3.45 l 0.3,-1.25"
         fill="#000000"
         fill-opacity="0.372549"
         fill-rule="evenodd"
         stroke="none"
         id="path7" />
    </g>
  </defs>
</svg>
