<?xml version="1.0" encoding="UTF-8" standalone="no"?>
<svg
   ffdec:objectType="frame"
   height="72.589539"
   width="90.247643"
   version="1.1"
   id="svg7"
   xmlns:xlink="http://www.w3.org/1999/xlink"
   xmlns="http://www.w3.org/2000/svg"
   xmlns:svg="http://www.w3.org/2000/svg"
   xmlns:ffdec="https://www.free-decompiler.com/flash">
  <g
     transform="translate(43.562857,40.2)"
     id="g1">
    <use
       ffdec:characterId="17"
       height="119.15"
       id="rarity"
       transform="translate(-58.5,-60.65)"
       width="119.15"
       xlink:href="#sprite0" />
    <use
       ffdec:characterId="1073"
       height="72.650002"
       transform="translate(-43.55,-40.25)"
       width="90.25"
       xlink:href="#shape0"
       id="use1" />
  </g>
  <defs
     id="defs7">
    <g
       id="shape0"
       transform="translate(90.35,41.6)">
      <path
         d="m -82.9,-19.75 q -1.2,3.4 -1.15,6.6 0.05,1.85 0.8,4.75 2,-3.15 5.35,-5.7 -0.8,-1.55 -1.6,-4.5 l -0.45,-2.2 -0.05,-3.25 0.05,-1.35 q -1.9,2.6 -2.95,5.65 m 41.2,41.1 q -4.7,5.95 -12.5,8.35 -7.65,2.4 -15.2,0.5 -4.3,-1.05 -7.45,-3.3 -4,-2.85 -7.05,-8.25 -1.75,-3.1 -2.45,-5.9 -0.7,-2.7 -0.6,-7.1 L -86.55,1 q -2.7,-6.2 -3.35,-9.65 -0.9,-4.5 -0.05,-9.15 0.75,-4.6 3.05,-8.65 4.6,-8.1 13.4,-12.3 3.55,-1.65 7.05,-2.3 l 6.7,-0.5 17.55,0.65 7.75,1.05 q 11.25,2.25 22.9,10.3 l 2.05,1.8 q 0.9,0.35 1.6,0.85 2.55,1.75 4.45,6.35 l 1.65,4.65 q 0.8,2.8 1.25,5.7 1,6.9 -0.3,14.05 -1.3,7.45 -5.15,10.85 -2.5,2.15 -7.4,3.45 -6.3,1.6 -11.3,0.55 l -3.3,-0.95 -3.35,-1 Q -35.6,15.9 -38.1,17.5 l -1.95,1.8 -1.65,2.05 m -12.55,-56.6 q -4.15,-0.15 -7.2,0.15 v 0.3 l 0.1,1.7 0.05,1.35 4.85,-0.45 11.85,1 0.45,-1.6 0.45,-1.7 -10.55,-0.75 m -19.5,18.45 q 4.75,-2.55 13.5,-4.95 9.15,-2.45 15.15,-3.35 l 4.85,-0.6 -0.3,-0.1 q -3.65,-1 -8.55,-1.4 l -14.15,0.4 q -7.7,1.65 -12.05,6.55 l 0.7,2.1 0.6,1.5 0.25,-0.15 m 0.95,-10.85 1,-0.6 -0.05,-0.9 0.3,-3.3 -0.9,0.45 -0.4,0.3 -0.3,0.3 q 0.4,0.65 0.4,1.95 l -0.15,1.9 0.1,-0.1 m 4.4,-5.75 -0.2,1.4 v 1.6 l -0.05,0.6 4.4,-1.4 v -3.55 l -4.1,1 -0.05,0.35 m 62.05,28.7 -0.3,-3.75 q -0.7,-5.6 -3.1,-10.7 -0.95,-1.95 -1.95,-2.6 -1,-0.6 -3.05,-0.7 l -5,0.1 -4.95,0.5 -9.85,1.9 -18.55,4 -13.65,3.25 1.15,-0.25 -3.6,1.25 q -4.2,2.1 -6.3,4.5 -2.1,2.35 -3.3,5.95 -1.35,3.95 -1.15,8 l 0.2,2.5 q 0.9,5.6 4.35,9.4 3.7,4 9.55,5.2 5.65,1.15 11.05,-0.75 4.45,-1.6 7.1,-4.6 l 1.7,-2.3 1.8,-2.3 q 2.6,-2.8 6.85,-3.7 3.95,-0.8 8.05,0.2 4.35,1.4 6.55,1.8 l 7.5,-0.25 q 3.6,-0.9 5.4,-2.7 2.1,-2.05 2.95,-6.6 0.65,-3.65 0.55,-7.35 m -27.25,-23.9 0.2,-0.75 0.55,-1.6 0.55,-1.15 0.4,-0.5 -1.35,-0.3 -0.45,1.1 -1.35,2.8 1.45,0.5 v -0.1 m -6.35,-5.5 -0.45,-0.05 -0.75,3.6 1.75,0.35 0.8,0.2 1.45,-3.4 0.15,-0.25 -2.95,-0.45"
         fill="#000000"
         fill-rule="evenodd"
         stroke="none"
         id="path1" />
      <path
         d="m -74,14.4 q 0,-1.4 1.2,-2.3 0.65,-0.5 1.5,-0.55 0.9,-0.1 1.65,0.3 0.75,0.4 1.15,1.2 0.45,0.75 0.4,1.6 0,1.55 -1.25,2.45 l -0.2,0.15 q -0.65,0.4 -1.5,0.4 l -1.5,-0.4 q -0.7,-0.4 -1.1,-1.2 L -74,14.45 V 14.4 m 3.6,-13.75 -0.6,1.7 -0.25,1.85 0.3,1.5 q 0.25,2.2 -1.35,3.5 -0.8,0.6 -1.8,0.65 -1.05,0.05 -1.85,-0.45 -1.25,-0.75 -1.6,-2.45 -0.25,-1 -0.15,-3.05 l 0.3,-2.25 q 0.25,-1.2 1.35,-3.15 l 1.35,-2 1.75,-1.7 q 3.55,-3.05 6,-3.8 l 2.7,-0.2 1.1,0.8 q 0.5,0.55 0.45,1.25 -0.05,1 -1.2,1.75 l -2,1 q -2.1,1.05 -3.6,3.4 l -0.9,1.65 m 51.35,-19.45 3.05,0.3 q 0.65,0.35 0.95,1.1 0.25,0.75 -0.05,1.45 -0.5,0.95 -1.7,1.4 l -2.2,0.4 -7.65,1.95 -2.15,0.6 -1.55,0.3 q -1.45,0 -2.2,-1.35 -0.65,-1.3 0,-2.6 0.5,-1.2 1.95,-1.8 l 1.7,-0.35 7.2,-1.35 1.1,-0.25 1.55,0.2"
         fill="#ffffff"
         fill-rule="evenodd"
         stroke="none"
         id="path2" />
      <path
         d="m -79.95,6.75 0.1,0.55 q 0.8,3.25 4.85,6.35 l 1,0.75 v 0.05 l 0.35,1.6 q 0.4,0.8 1.1,1.2 l 1.5,0.4 q 0.85,0 1.5,-0.4 l 0.2,-0.15 q 2.45,1.1 4.9,1.6 3,0.55 5.85,0.05 3.1,-0.5 5.4,-2.15 l 2.35,-1.95 2.2,-2.15 q 4.45,-4.05 10.5,-5.65 l 11.9,-0.4 4.95,1.25 5,0.25 Q -13.95,7.5 -11.9,5.75 -10,4.2 -8.75,1.9 -7.7,-0.05 -6.9,-2.75 l 0.55,-1.95 q 0.1,3.7 -0.55,7.35 -0.85,4.55 -2.95,6.6 -1.8,1.8 -5.4,2.7 l -7.5,0.25 q -2.2,-0.4 -6.55,-1.8 -4.1,-1 -8.05,-0.2 -4.25,0.9 -6.85,3.7 l -1.8,2.3 -1.7,2.3 q -2.65,3 -7.1,4.6 -5.4,1.9 -11.05,0.75 -5.85,-1.2 -9.55,-5.2 -3.45,-3.8 -4.35,-9.4 l -0.2,-2.5"
         fill="#262626"
         fill-rule="evenodd"
         stroke="none"
         id="path3" />
      <path
         d="m -79.95,6.75 q -0.2,-4.05 1.15,-8 1.2,-3.6 3.3,-5.95 2.1,-2.4 6.3,-4.5 l 3.6,-1.25 -1.15,0.25 13.65,-3.25 18.55,-4 9.85,-1.9 4.95,-0.5 5,-0.1 q 2.05,0.1 3.05,0.7 1,0.65 1.95,2.6 2.4,5.1 3.1,10.7 l 0.3,3.75 -0.55,1.95 q -0.8,2.7 -1.85,4.65 -1.25,2.3 -3.15,3.85 -2.05,1.75 -4.4,2.2 l -5,-0.25 -4.95,-1.25 -11.9,0.4 q -6.05,1.6 -10.5,5.65 l -2.2,2.15 -2.35,1.95 q -2.3,1.65 -5.4,2.15 -2.85,0.5 -5.85,-0.05 -2.45,-0.5 -4.9,-1.6 1.25,-0.9 1.25,-2.45 0.05,-0.85 -0.4,-1.6 -0.4,-0.8 -1.15,-1.2 -0.75,-0.4 -1.65,-0.3 -0.85,0.05 -1.5,0.55 -1.2,0.9 -1.2,2.3 l -1,-0.75 q -4.05,-3.1 -4.85,-6.35 l -0.1,-0.55 m 9.55,-6.1 0.9,-1.65 q 1.5,-2.35 3.6,-3.4 l 2,-1 q 1.15,-0.75 1.2,-1.75 0.05,-0.7 -0.45,-1.25 l -1.1,-0.8 -2.7,0.2 q -2.45,0.75 -6,3.8 l -1.75,1.7 -1.35,2 q -1.1,1.95 -1.35,3.15 l -0.3,2.25 q -0.1,2.05 0.15,3.05 0.35,1.7 1.6,2.45 0.8,0.5 1.85,0.45 1,-0.05 1.8,-0.65 1.6,-1.3 1.35,-3.5 l -0.3,-1.5 0.25,-1.85 0.6,-1.7 m 51.35,-19.45 -1.55,-0.2 -1.1,0.25 -7.2,1.35 -1.7,0.35 q -1.45,0.6 -1.95,1.8 -0.65,1.3 0,2.6 0.75,1.35 2.2,1.35 l 1.55,-0.3 2.15,-0.6 7.65,-1.95 2.2,-0.4 q 1.2,-0.45 1.7,-1.4 0.3,-0.7 0.05,-1.45 -0.3,-0.75 -0.95,-1.1 l -3.05,-0.3"
         fill="#3c3c3c"
         fill-rule="evenodd"
         stroke="none"
         id="path4" />
      <path
         d="m -82.9,-19.75 q 1.05,-3.05 2.95,-5.65 l -0.05,1.35 0.05,3.25 0.45,2.2 q 0.8,2.95 1.6,4.5 -3.35,2.55 -5.35,5.7 -0.75,-2.9 -0.8,-4.75 -0.05,-3.2 1.15,-6.6"
         fill="#473939"
         fill-rule="evenodd"
         stroke="none"
         id="path5" />
      <path
         d="m -54.25,-35.25 10.55,0.75 -0.45,1.7 -0.45,1.6 -11.85,-1 -4.85,0.45 -0.05,-1.35 -0.1,-1.7 v -0.3 q 3.05,-0.3 7.2,-0.15 m -14.15,1.85 0.05,-0.35 4.1,-1 v 3.55 l -4.4,1.4 0.05,-0.6 V -32 l 0.2,-1.4 m -4.4,5.75 -0.1,0.1 0.15,-1.9 q 0,-1.3 -0.4,-1.95 l 0.3,-0.3 0.4,-0.3 0.9,-0.45 -0.3,3.3 0.05,0.9 -1,0.6 m 32.85,-6.45 2.95,0.45 -0.15,0.25 -1.45,3.4 -0.8,-0.2 -1.75,-0.35 0.75,-3.6 0.45,0.05 m 6.35,5.5 v 0.1 l -1.45,-0.5 1.35,-2.8 0.45,-1.1 1.35,0.3 -0.4,0.5 -0.55,1.15 -0.55,1.6 -0.2,0.75"
         fill="#332828"
         fill-rule="evenodd"
         stroke="none"
         id="path6" />
    </g>
    <g
       id="sprite1"
       transform="translate(17.4,15.85)">
      <use
         ffdec:characterId="31"
         height="57.200001"
         transform="matrix(0.5366,0,0,0.5366,-16.6582,-14.546)"
         width="70.75"
         xlink:href="#sprite2"
         id="use6" />
    </g>
    <g
       id="sprite2"
       transform="translate(-8.65,-10.35)">
      <use
         ffdec:characterId="30"
         height="57.200001"
         transform="translate(8.65,10.35)"
         width="70.75"
         xlink:href="#shape1"
         id="use7" />
    </g>
    <g
       id="shape1"
       transform="translate(-8.65,-10.35)">
      <path
         d="m 14.8,41.7 q 0.65,-1.75 2.65,-2.5 1.8,-0.8 3.7,-0.25 1.15,0.45 2.25,1.2 l 0.9,0.4 q 1.65,0.9 2.85,2.5 L 37.8,30.1 q 2.35,-2.8 3.75,-3.95 1.5,-1.15 4.25,-2.4 18.2,-8.85 27.65,-12.6 2.15,-0.8 3.25,-0.8 h 0.8 l 1.9,2.4 -0.2,0.8 q -0.2,1.1 -1.55,3 -5.85,8.25 -18.85,23.8 -1.85,2.35 -3.35,3.5 -1.4,1.15 -4.75,2.75 l -15.15,7.15 q 1.2,1.6 1.75,3.4 l 0.2,1 0.55,2.5 q 0.1,1.95 -1.1,3.55 -1.2,1.65 -3.05,1.9 l -1.3,0.05 q -1.65,0.2 -3.45,-0.65 -1.85,-0.9 -3,-2.6 L 25,60.95 23.8,62.1 q -2.6,2.85 -4.3,3.95 -2.85,1.8 -5.5,1.45 l -1.65,-0.5 -1.2,-0.7 -0.2,-0.2 q -1,-0.85 -1.6,-1.9 L 9.25,64 9.15,63.8 8.75,62.4 q -0.2,-0.8 -0.05,-1.7 0.25,-2.65 2.7,-5.05 1.5,-1.3 4.9,-3.15 L 17.7,51.55 16.05,50 q -1.35,-1.5 -1.8,-3.6 -0.4,-1.85 0.25,-3.45 l 0.3,-1.25"
         fill="#000000"
         fill-opacity="0.372549"
         fill-rule="evenodd"
         stroke="none"
         id="path7" />
    </g>
  </defs>
</svg>
