<?xml version="1.0" encoding="UTF-8" standalone="no"?>
<svg
   ffdec:objectType="frame"
   height="85.413078"
   width="89.665154"
   version="1.1"
   id="svg5"
   xmlns:xlink="http://www.w3.org/1999/xlink"
   xmlns="http://www.w3.org/2000/svg"
   xmlns:svg="http://www.w3.org/2000/svg"
   xmlns:ffdec="https://www.free-decompiler.com/flash">
  <g
     transform="translate(45.116667,45.042391)"
     id="g1">
    <use
       ffdec:characterId="17"
       height="119.15"
       id="rarity"
       transform="translate(-58.5,-60.65)"
       width="119.15"
       xlink:href="#sprite0" />
    <use
       ffdec:characterId="895"
       height="85.400002"
       transform="translate(-45.1,-45.05)"
       width="89.650002"
       xlink:href="#shape0"
       id="use1" />
  </g>
  <defs
     id="defs5">
    <g
       id="shape0"
       transform="translate(45.65,45.8)">
      <path
         d="m 38.05,0.8 q 2.4,1.45 3.9,3.95 2.6,4.45 1.9,10.85 -0.25,3.1 -1.35,5.35 -2.15,4.6 -8.6,7.85 -3.45,1.7 -6.65,2.35 L 20.1,31.6 16.75,32 q -0.8,0.35 -2.8,1.9 -2.15,1.6 -5.2,2.65 L 2.95,38.1 -4,39.4 q -7.1,0.8 -16.45,-1.3 -3.1,-0.6 -5.05,-1.6 -2.05,-1.05 -3.1,-2.55 L -31.4,34 q -5.9,-0.95 -10.9,-6.85 -2.35,-2.7 -2.95,-5.05 -0.5,-1.65 -0.4,-4.65 0.2,-5.95 2.15,-9.65 L -42,5.45 q 4.4,-6.2 9.6,-7.9 l 0.45,-0.1 0.05,-2.6 q 0.2,-2.95 0.9,-4.75 0.6,-1.8 2.3,-4 4.45,-5.9 10,-7.35 l 0.25,-1.95 q 1.15,-4.65 5.85,-8.1 l 2.45,-1.75 q 1.35,-1.05 2,-2.1 0.7,-1.15 1.55,-3.7 1.65,-3.65 6.4,-6.15 2.7,-1.35 4.1,-0.4 0.8,0.55 1.1,1.75 l 0.4,2.2 q 0.3,2.1 1.4,3.75 1.15,1.8 2.9,2.65 1.1,0.55 3.3,1 l 3.3,0.85 q 2.05,0.9 4,3.3 2.15,2.6 2.75,5.05 l 0.25,1.65 0.5,0.05 q 3.15,0.5 5.35,2 2.45,1.6 4.85,5.4 1.5,2.4 2.05,4.15 0.7,2.2 0.5,5.6 -0.1,3.2 -0.85,5.35 l -0.1,0.35 q 1.25,0.35 2.45,1.1 M 16,-26.85 15.5,-27.2 Q 14.2,-28 10.4,-29 7,-29.75 5.35,-31 4.1,-31.95 2.7,-33.9 q -2,-2.75 -2.55,-4.65 -1.05,0.7 -1.8,2.45 l -1.2,3 q -1,2.1 -5.1,5.35 -3.85,3.1 -4.75,5.5 l -0.25,1 q -0.25,1 0.05,1.9 0.7,2 4.35,3.05 3.75,1.05 11.65,1.85 -3.05,1.85 -6.55,2.5 l -0.3,0.05 q -3.7,0.65 -7.3,-0.1 -2.85,-0.6 -4.55,-1.9 -1.25,-1 -2,-2.45 -3.9,1.7 -6.8,6.2 -1.15,1.75 -1.5,3.15 l -0.3,2.2 v 0.15 q -0.1,1.85 0.25,2.7 0.4,0.9 2,2.1 1.8,1.25 2.25,1.8 1.05,1.35 0.55,2.6 l -0.05,0.1 q -0.75,1.5 -3.1,1.3 -1.95,-0.2 -3.6,-1.4 -1.65,-1.15 -2.65,-2.7 -4.2,2.4 -6.65,6.2 -1.9,2.8 -2.6,5.85 -0.45,1.8 -0.45,3.7 0,1.8 0.35,2.85 l 1.55,2.7 q 3.55,4.5 8.05,5.6 l 1.7,0.5 0.55,-0.2 q 0.7,-0.05 1.45,0.45 l 1.25,1.05 q 1.9,1.65 6.15,2.6 11.7,2.5 24.1,-1.15 4.05,-1.2 6.15,-2.8 2.2,-1.85 3.5,-2.45 1.6,-0.7 5.15,-0.7 7.45,0 11.75,-2.1 2.85,-1.35 4.8,-3.7 2.05,-2.5 2.35,-5.4 0.2,-1.65 -0.15,-3.65 L 38.4,10.9 Q 37.5,6.5 34.95,5.4 L 32.4,4.75 32.05,4.7 28.8,6.8 q -1.2,0.65 -2.15,0.65 -1,-0.1 -1.5,-0.65 l -0.3,-0.45 q -0.4,-1 0.4,-1.95 L 26.8,3 q 3.1,-2.4 4.15,-5.6 0.55,-1.65 0.55,-3.8 0.1,-1.6 -0.3,-3.2 -0.5,-1.55 -2.1,-3.9 L 28.75,-14 q -1.3,-1.75 -2.4,-2.5 -1.3,-0.8 -3.3,-1.05 l -1.5,-0.25 -0.45,-0.1 -0.15,-0.05 -0.65,0.25 q -0.6,0.2 -1.25,0 -0.7,-0.15 -1.05,-0.65 -0.5,-0.75 -0.3,-2.05 l 0.45,-2.3 q 0.1,-1.3 -0.7,-2.55 L 16,-26.85 M 15.6,8.55 15.55,9 14.7,9.95 q -1,0.65 -2.75,1.2 -7.35,2.4 -15.9,1.5 L -7.4,12.05 -10.35,11 q -3.7,-1.5 -5.1,-3.05 l -0.6,-1.05 -0.1,-0.75 q 0.05,-0.5 0.5,-0.85 l 0.9,-0.1 0.7,0.7 q 0.45,0.45 1.45,0.75 4.55,1.4 13.05,1.5 L 4.3,8.05 8.85,7.15 13.4,6.9 q 1,0.1 1.6,0.55 0.6,0.5 0.6,1.1"
         fill="#000000"
         fill-rule="evenodd"
         stroke="none"
         id="path1" />
      <path
         d="m -12.95,-21.25 0.25,-1 q 0.9,-2.4 4.75,-5.5 4.1,-3.25 5.1,-5.35 l 1.2,-3 q 0.75,-1.75 1.8,-2.45 0.55,1.9 2.55,4.65 1.4,1.95 2.65,2.9 1.65,1.25 5.05,2 3.8,1 5.1,1.8 l 0.5,0.35 q 0.4,1.7 -0.95,3.5 -1,1.25 -3.05,2.4 -4.7,2.75 -9.95,3.55 -5.45,0.85 -10.4,-0.7 -3.25,-0.95 -4.5,-2.95 l -0.1,-0.2 m 34.05,3.35 0.45,0.1 1.5,0.25 q 2,0.25 3.3,1.05 1.1,0.75 2.4,2.5 v 0.1 Q 29.3,-9.95 27,-6.65 24.7,-3.4 18.85,-1.05 10.7,2.2 1.45,2.7 -7.4,3.15 -16.3,1.05 q -4.75,-1.1 -7.3,-2.95 -1.6,-1.15 -2.6,-2.75 V -4.8 l 0.3,-2.2 q 0.35,-1.4 1.5,-3.15 2.9,-4.5 6.8,-6.2 0.75,1.45 2,2.45 1.7,1.3 4.55,1.9 3.6,0.75 7.3,0.1 l 0.3,-0.05 q 7.05,0.8 16.25,-2.45 3.7,-1.35 6.9,-2.9 l 1.4,-0.6 m 4.05,24.7 q 0.5,0.55 1.5,0.65 0.95,0 2.15,-0.65 l 3.25,-2.1 0.35,0.05 2.55,0.65 q 2.55,1.1 3.45,5.5 l 0.05,0.3 q -0.75,1.25 -2.05,2.4 -1.15,1 -4.45,2.9 l -6.6,3.95 q -3.8,2.2 -6.9,3.2 -4.3,1.5 -12.2,2.15 -12.95,1.15 -20.6,0.35 -11.55,-1.2 -19.55,-6.25 -4.4,-2.7 -5.9,-6 0.7,-3.05 2.6,-5.85 2.45,-3.8 6.65,-6.2 1,1.55 2.65,2.7 1.65,1.2 3.6,1.4 2.35,0.2 3.1,-1.3 l 0.05,-0.1 q 2.35,1.35 5.1,2.35 l 0.6,1.05 q 1.4,1.55 5.1,3.05 l 2.95,1.05 3.45,0.6 q 8.55,0.9 15.9,-1.5 1.75,-0.55 2.75,-1.2 L 15.55,9 15.6,8.55 21.95,7.5 25.15,6.8 M -14.7,-2.7 q 1,-0.95 0.5,-2.3 -0.35,-1.15 -1.6,-1.8 -0.9,-0.55 -2.35,-0.75 -2.15,-0.4 -3.1,0.6 -0.9,1 -0.25,2.35 0.5,1.15 1.75,1.8 1.65,0.9 3.4,0.75 1,-0.1 1.65,-0.65 M -3.2,-25 q -0.45,-0.8 -1.35,-1.15 l -1.85,-0.2 q -1.55,0.2 -2.35,1.25 l -0.45,1.3 q -0.05,0.75 0.35,1.25 0.8,1.05 2.75,0.95 2.05,0 2.85,-1.05 0.35,-0.5 0.4,-1.15 0,-0.65 -0.35,-1.2 m -4.2,22.25 q 0,1 1.05,1.35 1,0.25 1.55,-0.65 0.5,-0.9 -0.2,-1.7 -0.8,-0.7 -1.7,-0.2 l -0.5,0.55 -0.2,0.65 M 24.7,12.8 q -0.6,0.1 -1.05,0.5 -0.4,0.45 -0.5,1 l 0.2,0.95 0.8,0.8 q 0.65,0.4 1.2,0.25 0.45,-0.05 0.9,-0.5 0.85,-0.95 0.25,-2.05 L 25.75,13 24.7,12.8 m -49.45,4.75 q 0.8,-0.55 0.9,-1.55 0.1,-1.05 -0.7,-1.65 -0.8,-0.7 -1.85,-0.45 l -1.15,0.9 q -0.4,0.7 -0.3,1.45 0.25,1.05 1.2,1.45 l 1.9,-0.15 M -29.35,16 q 0.4,-0.7 0.3,-1.8 -0.1,-1.25 -0.8,-1.85 -0.45,-0.35 -1.1,-0.4 -0.6,0 -1.15,0.35 -1,0.6 -1.25,1.95 l -0.05,1.05 q 0.1,0.7 0.6,1.2 0.55,0.5 1.2,0.6 l 1.3,-0.2 0.95,-0.9"
         fill="#584c46"
         fill-rule="evenodd"
         stroke="none"
         id="path2" />
      <path
         d="m -12.95,-21.25 0.1,0.2 q 1.25,2 4.5,2.95 4.95,1.55 10.4,0.7 5.25,-0.8 9.95,-3.55 2.05,-1.15 3.05,-2.4 1.35,-1.8 0.95,-3.5 l 1.45,1.6 q 0.8,1.25 0.7,2.55 l -0.45,2.3 q -0.2,1.3 0.3,2.05 0.35,0.5 1.05,0.65 0.65,0.2 1.25,0 l 0.65,-0.25 0.15,0.05 -1.4,0.6 q -3.2,1.55 -6.9,2.9 -9.2,3.25 -16.25,2.45 3.5,-0.65 6.55,-2.5 -7.9,-0.8 -11.65,-1.85 -3.65,-1.05 -4.35,-3.05 -0.3,-0.9 -0.05,-1.9 m 41.7,7.25 0.35,0.5 q 1.6,2.35 2.1,3.9 0.4,1.6 0.3,3.2 0,2.15 -0.55,3.8 Q 29.9,0.6 26.8,3 l -1.55,1.4 q -0.8,0.95 -0.4,1.95 l 0.3,0.45 -3.2,0.7 -6.35,1.05 Q 15.6,7.95 15,7.45 14.4,7 13.4,6.9 L 8.85,7.15 4.3,8.05 0.45,8.15 q -8.5,-0.1 -13.05,-1.5 -1,-0.3 -1.45,-0.75 l -0.7,-0.7 -0.9,0.1 q -0.45,0.35 -0.5,0.85 l 0.1,0.75 q -2.75,-1 -5.1,-2.35 0.5,-1.25 -0.55,-2.6 -0.45,-0.55 -2.25,-1.8 -1.6,-1.2 -2,-2.1 -0.35,-0.85 -0.25,-2.7 1,1.6 2.6,2.75 2.55,1.85 7.3,2.95 8.9,2.1 17.75,1.65 9.25,-0.5 17.4,-3.75 5.85,-2.35 8.15,-5.6 2.3,-3.3 1.75,-7.25 V -14 m 9.7,25.2 q 0.35,2 0.15,3.65 -0.3,2.9 -2.35,5.4 -1.95,2.35 -4.8,3.7 -4.3,2.1 -11.75,2.1 -3.55,0 -5.15,0.7 -1.3,0.6 -3.5,2.45 -2.1,1.6 -6.15,2.8 -12.4,3.65 -24.1,1.15 -4.25,-0.95 -6.15,-2.6 L -26.6,29.5 q -0.75,-0.5 -1.45,-0.45 l -0.55,0.2 -1.7,-0.5 q -4.5,-1.1 -8.05,-5.6 l -1.55,-2.7 q -0.35,-1.05 -0.35,-2.85 0,-1.9 0.45,-3.7 1.5,3.3 5.9,6 8,5.05 19.55,6.25 7.65,0.8 20.6,-0.35 7.9,-0.65 12.2,-2.15 3.1,-1 6.9,-3.2 l 6.6,-3.95 q 3.3,-1.9 4.45,-2.9 1.3,-1.15 2.05,-2.4"
         fill="#3d3632"
         fill-rule="evenodd"
         stroke="none"
         id="path3" />
      <path
         d="m -3.2,-25 q 0.35,0.55 0.35,1.2 -0.05,0.65 -0.4,1.15 -0.8,1.05 -2.85,1.05 -1.95,0.1 -2.75,-0.95 -0.4,-0.5 -0.35,-1.25 l 0.45,-1.3 q 0.8,-1.05 2.35,-1.25 l 1.85,0.2 q 0.9,0.35 1.35,1.15 m -11.5,22.3 q -0.65,0.55 -1.65,0.65 -1.75,0.15 -3.4,-0.75 -1.25,-0.65 -1.75,-1.8 -0.65,-1.35 0.25,-2.35 0.95,-1 3.1,-0.6 1.45,0.2 2.35,0.75 1.25,0.65 1.6,1.8 0.5,1.35 -0.5,2.3 m 7.3,-0.05 0.2,-0.65 0.5,-0.55 q 0.9,-0.5 1.7,0.2 0.7,0.8 0.2,1.7 -0.55,0.9 -1.55,0.65 -1.05,-0.35 -1.05,-1.35 m 32.1,15.55 1.05,0.2 0.75,0.75 q 0.6,1.1 -0.25,2.05 -0.45,0.45 -0.9,0.5 -0.55,0.15 -1.2,-0.25 l -0.8,-0.8 -0.2,-0.95 q 0.1,-0.55 0.5,-1 0.45,-0.4 1.05,-0.5 m -54.05,3.2 -0.95,0.9 -1.3,0.2 q -0.65,-0.1 -1.2,-0.6 -0.5,-0.5 -0.6,-1.2 l 0.05,-1.05 q 0.25,-1.35 1.25,-1.95 0.55,-0.35 1.15,-0.35 0.65,0.05 1.1,0.4 0.7,0.6 0.8,1.85 0.1,1.1 -0.3,1.8 m 4.6,1.55 -1.9,0.15 q -0.95,-0.4 -1.2,-1.45 -0.1,-0.75 0.3,-1.45 l 1.15,-0.9 q 1.05,-0.25 1.85,0.45 0.8,0.6 0.7,1.65 -0.1,1 -0.9,1.55"
         fill="#ffffff"
         fill-rule="evenodd"
         stroke="none"
         id="path4" />
    </g>
    <g
       id="sprite1"
       transform="translate(17.4,15.85)">
      <use
         ffdec:characterId="31"
         height="57.200001"
         transform="matrix(0.5366,0,0,0.5366,-16.6582,-14.546)"
         width="70.75"
         xlink:href="#sprite2"
         id="use4" />
    </g>
    <g
       id="sprite2"
       transform="translate(-8.65,-10.35)">
      <use
         ffdec:characterId="30"
         height="57.200001"
         transform="translate(8.65,10.35)"
         width="70.75"
         xlink:href="#shape1"
         id="use5" />
    </g>
    <g
       id="shape1"
       transform="translate(-8.65,-10.35)">
      <path
         d="m 14.8,41.7 q 0.65,-1.75 2.65,-2.5 1.8,-0.8 3.7,-0.25 1.15,0.45 2.25,1.2 l 0.9,0.4 q 1.65,0.9 2.85,2.5 L 37.8,30.1 q 2.35,-2.8 3.75,-3.95 1.5,-1.15 4.25,-2.4 18.2,-8.85 27.65,-12.6 2.15,-0.8 3.25,-0.8 h 0.8 l 1.9,2.4 -0.2,0.8 q -0.2,1.1 -1.55,3 -5.85,8.25 -18.85,23.8 -1.85,2.35 -3.35,3.5 -1.4,1.15 -4.75,2.75 l -15.15,7.15 q 1.2,1.6 1.75,3.4 l 0.2,1 0.55,2.5 q 0.1,1.95 -1.1,3.55 -1.2,1.65 -3.05,1.9 l -1.3,0.05 q -1.65,0.2 -3.45,-0.65 -1.85,-0.9 -3,-2.6 L 25,60.95 23.8,62.1 q -2.6,2.85 -4.3,3.95 -2.85,1.8 -5.5,1.45 l -1.65,-0.5 -1.2,-0.7 -0.2,-0.2 q -1,-0.85 -1.6,-1.9 L 9.25,64 9.15,63.8 8.75,62.4 q -0.2,-0.8 -0.05,-1.7 0.25,-2.65 2.7,-5.05 1.5,-1.3 4.9,-3.15 L 17.7,51.55 16.05,50 q -1.35,-1.5 -1.8,-3.6 -0.4,-1.85 0.25,-3.45 l 0.3,-1.25"
         fill="#000000"
         fill-opacity="0.372549"
         fill-rule="evenodd"
         stroke="none"
         id="path5" />
    </g>
  </defs>
</svg>
