<?xml version="1.0" encoding="UTF-8" standalone="no"?>
<svg
   ffdec:objectType="frame"
   height="90.339638"
   width="78.431664"
   version="1.1"
   id="svg5"
   xmlns:xlink="http://www.w3.org/1999/xlink"
   xmlns="http://www.w3.org/2000/svg"
   xmlns:svg="http://www.w3.org/2000/svg"
   xmlns:ffdec="https://www.free-decompiler.com/flash">
  <g
     transform="translate(38.666667,44.213855)"
     id="g1">
    <use
       ffdec:characterId="17"
       height="119.15"
       id="rarity"
       transform="translate(-58.5,-60.65)"
       width="119.15"
       xlink:href="#sprite0" />
    <use
       ffdec:characterId="446"
       height="90.349998"
       transform="translate(-38.65,-44.2)"
       width="78.400002"
       xlink:href="#shape0"
       id="use1" />
  </g>
  <defs
     id="defs5">
    <g
       id="shape0"
       transform="translate(38.25,43.4)">
      <path
         d="m -15.65,-7.2 q -3.85,13.35 6.3,22.55 9.1,8.45 18.8,16.45 l 6.4,5.75 q 6.6,-0.95 10.9,-7.05 L 29.9,26 32.45,22.45 q 1.95,-3.2 2.65,-6.8 L 35.25,13.5 Q 28.2,6.65 20.1,1.1 13.3,-3.55 6.8,-8.65 5.4,-9.05 4.3,-10 L 1.65,-11.85 1.1,-12.1 q -6.75,-2.65 -13.05,1.75 l -3.7,3.15 m 15.7,-10.3 q 1.6,0.3 3.1,1.05 5.05,2.6 9.65,6.15 4.5,3.4 8.7,7.1 6.2,3.95 11.75,8.95 l 5.7,5.5 q 1.35,1.45 1.2,3.45 -0.8,7.75 -5.35,14.3 -6.4,9.2 -16.25,13.65 L 16.5,43 Q 12.4,42.85 9.55,39.45 l -2.65,-2.7 -8.15,-7 q 0.65,1.65 1.15,3.5 1.1,4.35 0.85,8.9 -0.25,3.65 -3.7,4.6 -2.9,0.75 -5.05,-1.7 -2.4,-2.8 -0.15,-6.25 l 0.35,-1.25 q 0.05,-2.1 -0.35,-4.05 -1.3,-2.7 -2.9,-5.2 l -0.65,-0.5 -0.6,-0.75 -1.1,-0.65 -1,-0.65 q -2.65,-1.2 -5.4,-2.1 -2.8,-0.95 -5.75,-1.45 -9.5,-1.75 -12.3,-10.95 L -38.2,9.4 Q -38.4,7.2 -38,5.1 l 0.15,-1.2 q 0.2,-1.45 0.75,-2.65 -2.2,-2.8 0.9,-6.35 1.8,-2.2 3.05,-4.6 l -2.2,-2.95 q -0.4,-0.65 -0.3,-1.45 1.45,-14.15 4.6,-27.9 l 0.15,-0.45 q 3.6,-2 7.55,0.15 1.75,0.9 2.95,2.5 1.05,1.25 0.7,2.95 -1,4.8 -1.25,9.55 l 2.05,-2.6 8.45,-10.95 q 3.55,-1.45 6.75,1.8 l 1.7,1.25 q 3.75,2 1.6,5.3 l -0.8,1.05 -13.5,15.95 0.25,0.25 q 6.35,-3.85 14.5,-2.25 m -18.3,-1.75 0.55,0.55 q 5.85,-8 11.95,-15.4 l -0.9,-0.55 -1.3,-0.9 -4.4,5.35 -7.3,8.1 -1.05,1.1 0.4,0.25 1.55,1.1 0.5,0.4 m -7.85,-0.8 q -1.2,-2.05 -0.7,-5.2 0.95,-6.05 1.6,-12.15 -0.25,-0.3 -0.6,-0.3 l -0.9,-0.25 -0.3,-0.1 q -1.3,8.4 -2.85,16.75 -0.2,3.6 -0.65,7.15 l 1.15,1 0.5,-1.1 2.2,-2.65 1.55,-1.9 q -0.6,-0.55 -1,-1.25 m 7.8,7.75 0.7,-0.65 q -0.95,-0.55 -1.9,-1.4 l -0.25,-0.3 -2.5,-1.9 -0.85,-0.7 -0.55,-0.45 -1.2,2 -2.1,3.25 -0.55,0.95 3.05,2.65 2.7,2.8 q 0.45,-2.05 1.4,-4 l 2.05,-2.25 m -11.35,6.15 -0.4,-0.45 q -1.2,2.7 -2.85,5.15 0.7,0.35 1.2,1.4 l 0.5,0.6 0.25,0.25 q 1.45,-2.85 3.85,-4.6 l -2.55,-2.35 m 7.8,11.3 q -0.65,-2.65 -0.7,-5.25 -0.1,0 -0.2,-0.1 -2.9,4.05 -6.9,6.65 l -0.6,0.25 q 0.2,1.2 0.25,2.5 l 0.05,0.2 0.05,0.85 1.65,2.4 q 0.4,0.5 0.65,1.15 4.45,2.2 9.55,2.35 l 1.5,0.15 q -3.8,-4.9 -5.3,-11.15"
         fill="#000000"
         fill-rule="evenodd"
         stroke="none"
         id="path1" />
      <path
         d="M 7.75,-0.5 Q 11.8,1.25 8.15,3.6 7.4,4.05 6.7,3.4 4.05,0.7 7.75,-0.5 M -5.4,-10.65 q 8.2,0.4 7.95,7.75 -0.05,2.25 -2.3,3.05 -5.8,2.05 -10,-2.85 -3.6,-4.2 1.5,-7.1 1.4,-0.8 2.85,-0.85 m -6.95,-19.55 q -1.4,3.1 -3.1,6.05 l -1.85,3.05 -0.95,1.85 -0.5,-0.4 -1.55,-1.1 0.65,-1.35 7.3,-8.1 m -14.3,13.3 -0.2,-0.15 q -0.5,-0.35 -0.6,-1.05 l 0.4,-1 0.95,-0.95 q 0.4,0.7 1,1.25 l -1.55,1.9 m 1.8,1.2 1.2,-2 0.55,0.45 0.85,0.7 2.5,1.9 0.25,0.3 q 0.95,0.85 1.9,1.4 l -0.7,0.65 -0.2,0.05 q -3.3,-1.55 -6.35,-3.45"
         fill="#ffffff"
         fill-rule="evenodd"
         stroke="none"
         id="path2" />
      <path
         d="m -12.35,-30.2 4.4,-5.35 1.3,0.9 0.9,0.55 q -6.1,7.4 -11.95,15.4 l -0.55,-0.55 0.95,-1.85 1.85,-3.05 q 1.7,-2.95 3.1,-6.05 m -14.3,13.3 -2.2,2.65 -0.5,1.1 -1.15,-1 q 0.45,-3.55 0.65,-7.15 1.55,-8.35 2.85,-16.75 l 0.3,0.1 0.9,0.25 q 0.35,0 0.6,0.3 -0.65,6.1 -1.6,12.15 -0.5,3.15 0.7,5.2 l -0.95,0.95 -0.4,1 q 0.1,0.7 0.6,1.05 l 0.2,0.15 m 1.8,1.2 q 3.05,1.9 6.35,3.45 l 0.2,-0.05 -2.05,2.25 q -0.95,1.95 -1.4,4 l -2.7,-2.8 -3.05,-2.65 0.55,-0.95 2.1,-3.25 m -4.8,9.55 2.55,2.35 q -2.4,1.75 -3.85,4.6 l -0.25,-0.25 -0.5,-0.6 q -0.5,-1.05 -1.2,-1.4 1.65,-2.45 2.85,-5.15 l 0.4,0.45"
         fill="#b1b1b1"
         fill-rule="evenodd"
         stroke="none"
         id="path3" />
      <path
         d="m -15.65,-7.2 3.7,-3.15 q 6.3,-4.4 13.05,-1.75 l 0.55,0.25 2.65,1.85 q 1.1,0.95 2.5,1.35 6.5,5.1 13.3,9.75 8.1,5.55 15.15,12.4 l -0.15,2.15 q -0.7,3.6 -2.65,6.8 L 29.9,26 26.75,30.5 q -4.3,6.1 -10.9,7.05 L 9.45,31.8 q -9.7,-8 -18.8,-16.45 -10.15,-9.2 -6.3,-22.55 m 10.25,-3.45 q -1.45,0.05 -2.85,0.85 -5.1,2.9 -1.5,7.1 4.2,4.9 10,2.85 2.25,-0.8 2.3,-3.05 0.25,-7.35 -7.95,-7.75 M 7.75,-0.5 Q 4.05,0.7 6.7,3.4 7.4,4.05 8.15,3.6 11.8,1.25 7.75,-0.5"
         fill="#aa5c5c"
         fill-rule="evenodd"
         stroke="none"
         id="path4" />
    </g>
    <g
       id="sprite1"
       transform="translate(17.4,15.85)">
      <use
         ffdec:characterId="31"
         height="57.200001"
         transform="matrix(0.5366,0,0,0.5366,-16.6582,-14.546)"
         width="70.75"
         xlink:href="#sprite2"
         id="use4" />
    </g>
    <g
       id="sprite2"
       transform="translate(-8.65,-10.35)">
      <use
         ffdec:characterId="30"
         height="57.200001"
         transform="translate(8.65,10.35)"
         width="70.75"
         xlink:href="#shape1"
         id="use5" />
    </g>
    <g
       id="shape1"
       transform="translate(-8.65,-10.35)">
      <path
         d="m 14.8,41.7 q 0.65,-1.75 2.65,-2.5 1.8,-0.8 3.7,-0.25 1.15,0.45 2.25,1.2 l 0.9,0.4 q 1.65,0.9 2.85,2.5 L 37.8,30.1 q 2.35,-2.8 3.75,-3.95 1.5,-1.15 4.25,-2.4 18.2,-8.85 27.65,-12.6 2.15,-0.8 3.25,-0.8 h 0.8 l 1.9,2.4 -0.2,0.8 q -0.2,1.1 -1.55,3 -5.85,8.25 -18.85,23.8 -1.85,2.35 -3.35,3.5 -1.4,1.15 -4.75,2.75 l -15.15,7.15 q 1.2,1.6 1.75,3.4 l 0.2,1 0.55,2.5 q 0.1,1.95 -1.1,3.55 -1.2,1.65 -3.05,1.9 l -1.3,0.05 q -1.65,0.2 -3.45,-0.65 -1.85,-0.9 -3,-2.6 L 25,60.95 23.8,62.1 q -2.6,2.85 -4.3,3.95 -2.85,1.8 -5.5,1.45 l -1.65,-0.5 -1.2,-0.7 -0.2,-0.2 q -1,-0.85 -1.6,-1.9 L 9.25,64 9.15,63.8 8.75,62.4 q -0.2,-0.8 -0.05,-1.7 0.25,-2.65 2.7,-5.05 1.5,-1.3 4.9,-3.15 L 17.7,51.55 16.05,50 q -1.35,-1.5 -1.8,-3.6 -0.4,-1.85 0.25,-3.45 l 0.3,-1.25"
         fill="#000000"
         fill-opacity="0.372549"
         fill-rule="evenodd"
         stroke="none"
         id="path5" />
    </g>
  </defs>
</svg>
