<?xml version="1.0" encoding="UTF-8" standalone="no"?>
<svg
   ffdec:objectType="frame"
   height="84.001251"
   width="81.830956"
   version="1.1"
   id="svg5"
   sodipodi:docname="ITEM The boX 3.svg"
   xmlns:inkscape="http://www.inkscape.org/namespaces/inkscape"
   xmlns:sodipodi="http://sodipodi.sourceforge.net/DTD/sodipodi-0.dtd"
   xmlns:xlink="http://www.w3.org/1999/xlink"
   xmlns="http://www.w3.org/2000/svg"
   xmlns:svg="http://www.w3.org/2000/svg"
   xmlns:ffdec="https://www.free-decompiler.com/flash">
  <sodipodi:namedview
     id="namedview5"
     pagecolor="#ffffff"
     bordercolor="#000000"
     borderopacity="0.25"
     inkscape:showpageshadow="2"
     inkscape:pageopacity="0.0"
     inkscape:pagecheckerboard="0"
     inkscape:deskcolor="#d1d1d1"
     fit-margin-top="5"
     fit-margin-left="5"
     fit-margin-right="5"
     fit-margin-bottom="5" />
  <g
     transform="translate(40.028571,42.65)"
     id="g1">
    <use
       ffdec:characterId="17"
       height="119.15"
       id="rarity"
       transform="translate(-58.5,-60.65)"
       width="119.15"
       xlink:href="#sprite0" />
    <use
       ffdec:characterId="409"
       height="84"
       transform="translate(-40.05,-42.65)"
       width="81.849998"
       xlink:href="#shape0"
       id="use1" />
  </g>
  <defs
     id="defs5">
    <g
       id="shape0"
       transform="translate(39.75,45.15)">
      <path
         d="m -15.6,-32.6 q -2.5,1.05 -5.75,2.35 l -11.3,4.8 q 9.5,5.3 23.45,10.85 l 8.45,3.4 0.15,0.05 q 0.05,0.05 0.1,-0.05 l 2.9,-1.75 q 6.25,-3.75 9.1,-5.1 L 24,-23.9 q 6.65,-2.9 10.9,-5.4 l -3.7,-1.6 -4.65,-1.45 -4.85,-0.9 Q 13,-34.9 4.5,-38.55 l -3.85,-1.15 -2.75,0.65 q -0.35,0.25 -0.85,0.35 -5.65,3.25 -12.65,6.1 m -24.1,52.15 q -0.2,-6.2 1,-15.8 0.35,-16.55 -0.05,-17.65 l -0.65,-10.65 q 0.05,-1.8 0.55,-2.95 0.75,-1.15 3.35,-2.45 l 7.65,-2.7 13.45,-6.5 q 7.15,-3.6 10.5,-4.8 2.7,-1 4.45,-1.2 l 3.15,0.75 3.15,1.3 q 6.9,3.25 20.35,6.3 4.5,1.2 6.35,2 l 2,1.05 q 1.05,0.55 2.05,0.7 l 1.35,0.15 1.35,0.4 q 0.75,0.55 1.05,1.9 l -0.15,2.5 q -0.4,2.8 -0.45,8.4 -0.5,14.5 0,28.8 0.2,5.15 0.95,7.85 0.65,2.4 0.25,3.55 -0.5,1.1 -3,1.95 -2.55,0.8 -21.3,8.95 Q 9.6,35.05 3.5,36.85 l -1,0.8 q -2.25,1.55 -5.1,1.1 L -4.2,38.4 Q -5.45,38.3 -5.9,37.75 L -6.75,37.35 -8,36.5 -10.2,35.3 -10.5,35 q -12.6,-6.9 -25.2,-11.2 -2.35,-0.75 -3.1,-1.5 -0.55,-0.85 -0.9,-2.75 m 5.5,-16.4 q -0.8,10.2 -0.8,14.8 0.1,1.1 0.6,1.75 0.45,0.45 1.5,0.7 14.6,5.5 28.2,12.6 l 0.55,0.3 Q -4.2,28.75 -3.65,22.55 -2.45,12.05 -2.6,11.5 -2.35,8.1 -2.25,2.9 L -2.35,-6 q 0.1,-0.2 0.05,-0.4 L -4.1,-7.35 -10.75,-10 q -3.5,-1.35 -8.75,-4.1 -9.8,-4.95 -15.35,-7.85 0.8,13.05 0.65,25.1 M 37.4,17.7 Q 36.1,8.9 36.35,-8.55 36.4,-17.6 36.6,-26.65 32,-23.7 25.4,-20.15 L 11.9,-12.9 2.2,-7 Q 1.5,-6.55 1,-6.45 L 1.2,-3.6 1.25,11.45 1,17.05 0.65,20.65 0.5,25.6 v 7.55 0.4 q 1.6,-0.7 3.35,-1.2 l 0.9,-0.4 H 4.9 Q 21.65,25.15 37.4,17.7"
         fill="#000000"
         fill-rule="evenodd"
         stroke="none"
         id="path1" />
      <path
         d="m -15.6,-32.6 q 7,-2.85 12.65,-6.1 0.5,-0.1 0.85,-0.35 l 2.75,-0.65 3.85,1.15 q 8.5,3.65 17.2,5.3 l 4.85,0.9 4.65,1.45 3.7,1.6 q -4.25,2.5 -10.9,5.4 l -12.5,5.85 q -2.85,1.35 -9.1,5.1 l -2.9,1.75 q -0.05,0.1 -0.1,0.05 l -0.15,-0.05 -8.45,-3.4 q -13.95,-5.55 -23.45,-10.85 l 11.3,-4.8 q 3.25,-1.3 5.75,-2.35"
         fill="#1d1d1d"
         fill-rule="evenodd"
         stroke="none"
         id="path2" />
      <path
         d="m -34.2,3.15 q 0.15,-12.05 -0.65,-25.1 5.55,2.9 15.35,7.85 5.25,2.75 8.75,4.1 l 6.65,2.65 1.8,0.95 q 0.05,0.2 -0.05,0.4 l 0.1,8.9 q -0.1,5.2 -0.35,8.6 0.15,0.55 -1.05,11.05 -0.55,6.2 -0.5,10.75 L -4.7,33 q -13.6,-7.1 -28.2,-12.6 -1.05,-0.25 -1.5,-0.7 -0.5,-0.65 -0.6,-1.75 0,-4.6 0.8,-14.8"
         fill="#131313"
         fill-rule="evenodd"
         stroke="none"
         id="path3" />
      <path
         d="M 37.4,17.7 Q 21.65,25.15 4.9,31.95 H 4.75 l -0.9,0.4 Q 2.1,32.85 0.5,33.55 V 33.15 25.6 L 0.65,20.65 1,17.05 1.25,11.45 1.2,-3.6 1,-6.45 Q 1.5,-6.55 2.2,-7 l 9.7,-5.9 13.5,-7.25 q 6.6,-3.55 11.2,-6.5 -0.2,9.05 -0.25,18.1 Q 36.1,8.9 37.4,17.7"
         fill="#0c0c0c"
         fill-rule="evenodd"
         stroke="none"
         id="path4" />
    </g>
    <g
       id="sprite1"
       transform="translate(17.4,15.85)">
      <use
         ffdec:characterId="31"
         height="57.200001"
         transform="matrix(0.5366,0,0,0.5366,-16.6582,-14.546)"
         width="70.75"
         xlink:href="#sprite2"
         id="use4" />
    </g>
    <g
       id="sprite2"
       transform="translate(-8.65,-10.35)">
      <use
         ffdec:characterId="30"
         height="57.200001"
         transform="translate(8.65,10.35)"
         width="70.75"
         xlink:href="#shape1"
         id="use5" />
    </g>
    <g
       id="shape1"
       transform="translate(-8.65,-10.35)">
      <path
         d="m 14.8,41.7 q 0.65,-1.75 2.65,-2.5 1.8,-0.8 3.7,-0.25 1.15,0.45 2.25,1.2 l 0.9,0.4 q 1.65,0.9 2.85,2.5 L 37.8,30.1 q 2.35,-2.8 3.75,-3.95 1.5,-1.15 4.25,-2.4 18.2,-8.85 27.65,-12.6 2.15,-0.8 3.25,-0.8 h 0.8 l 1.9,2.4 -0.2,0.8 q -0.2,1.1 -1.55,3 -5.85,8.25 -18.85,23.8 -1.85,2.35 -3.35,3.5 -1.4,1.15 -4.75,2.75 l -15.15,7.15 q 1.2,1.6 1.75,3.4 l 0.2,1 0.55,2.5 q 0.1,1.95 -1.1,3.55 -1.2,1.65 -3.05,1.9 l -1.3,0.05 q -1.65,0.2 -3.45,-0.65 -1.85,-0.9 -3,-2.6 L 25,60.95 23.8,62.1 q -2.6,2.85 -4.3,3.95 -2.85,1.8 -5.5,1.45 l -1.65,-0.5 -1.2,-0.7 -0.2,-0.2 q -1,-0.85 -1.6,-1.9 L 9.25,64 9.15,63.8 8.75,62.4 q -0.2,-0.8 -0.05,-1.7 0.25,-2.65 2.7,-5.05 1.5,-1.3 4.9,-3.15 L 17.7,51.55 16.05,50 q -1.35,-1.5 -1.8,-3.6 -0.4,-1.85 0.25,-3.45 l 0.3,-1.25"
         fill="#000000"
         fill-opacity="0.372549"
         fill-rule="evenodd"
         stroke="none"
         id="path5" />
    </g>
  </defs>
</svg>
