<?xml version="1.0" encoding="UTF-8" standalone="no"?>
<svg
   ffdec:objectType="frame"
   height="94.938789"
   width="91.943214"
   version="1.1"
   id="svg5"
   xmlns:xlink="http://www.w3.org/1999/xlink"
   xmlns="http://www.w3.org/2000/svg"
   xmlns:svg="http://www.w3.org/2000/svg"
   xmlns:ffdec="https://www.free-decompiler.com/flash">
  <g
     transform="translate(46.662712,48.202381)"
     id="g1">
    <use
       ffdec:characterId="17"
       height="119.15"
       id="rarity"
       transform="translate(-58.5,-60.65)"
       width="119.15"
       xlink:href="#sprite0" />
    <use
       ffdec:characterId="545"
       height="94.949997"
       transform="translate(-46.65,-48.2)"
       width="91.949997"
       xlink:href="#shape0"
       id="use1" />
  </g>
  <defs
     id="defs5">
    <g
       id="shape0"
       transform="translate(46.25,47.4)">
      <path
         d="m -5.9,35.65 q -2.6,6.6 -9.25,9.45 -14.8,6.35 -27,-3.85 -2.55,-2.05 -3.35,-5.3 -3,-11.6 5.8,-20.15 4.55,-4.5 10.35,-6.95 0.2,-4.75 5.2,-7.25 5.25,-2.65 11.15,-3.65 0.45,-4.05 2.35,-7.55 0.55,-1 1.6,-1.65 4.3,-2.4 9.15,-3.15 3.65,-7.55 11.95,-10.45 4.95,-1.6 9.3,-4.45 11.1,-7.15 19.8,-17.15 0.9,-1 2.15,-0.95 3.45,2.15 1.9,6.5 l -0.85,2.1 Q 42,-26.7 34.7,-16.35 l -4.65,6.55 q -2.2,3.1 -6.1,4.1 l -4.75,1.45 q 1.9,7.7 -3.7,12.5 -0.95,0.8 -2.2,0.95 L 8.8,9.7 q 0.7,7.95 -6.35,10.55 -2.75,1.1 -5,0.35 V 21 q -0.95,3.55 -4,4.95 2.65,4.5 0.65,9.7 M 3.95,-2.8 3.15,-5.85 1.9,-6.9 1.3,-7.4 Q 0.7,-7.9 0.4,-8.6 l -0.5,0.05 -2.15,0.35 q -2.5,0.55 -4.6,2.1 0.2,1.7 -0.05,3.15 l 0.95,-0.1 V -3.1 l 1.8,0.35 0.25,0.05 2.5,0.75 0.4,0.15 2,0.95 Q 3.45,0.5 5.5,2.65 V 2.15 1.75 L 4.2,-2.1 3.95,-2.8 m 24.5,-14 1.2,-1.95 6,-11.05 0.3,-0.55 1.35,-2.4 1.05,-1.75 0.1,-0.8 0.45,-1.65 q -8.65,9 -19.7,15.45 -2.5,1.45 -5.15,2.75 l -2.15,1.05 q 2.4,1.8 3.85,4.75 l 1.05,3.1 v 0.2 l 1.5,-0.65 1.35,-0.4 q 2.2,-0.35 4.3,-1.15 l 1,-0.35 0.75,-0.3 2.75,-4.3 M 8.2,-12.2 q 3.35,1 6.05,3.45 L 14.2,-9.45 11.15,-14 q -1.05,-1.35 -2.5,-2.15 L 7.9,-15.6 q -1.55,1.15 -2.65,2.8 l 2.95,0.6 m 4.55,6.95 -2.45,-1.8 -0.1,-0.05 q -2,-1.4 -4.35,-2.1 l -1.5,0.1 Q 6,-7.55 6.9,-5.4 7.55,-3.8 7.75,-1.85 L 8.05,0.9 8.2,3.5 8.1,4.45 q 2.65,0.25 5,-0.7 L 13.4,3.6 13.85,3.3 13.9,3.15 14.1,2.5 14.45,1.9 14.5,1.55 14.6,0.5 14.65,-0.1 Q 14.4,-0.35 14.4,-0.75 L 14.45,-1.9 14.5,-2.15 14.2,-3.4 14.05,-4.3 12.75,-5.25 M 4.45,5.65 2.7,4.15 1.75,3.45 Q -0.15,2.2 -2.3,1.55 -3.85,1 -5.55,0.8 q 1.7,0.75 3.15,1.9 2.25,1.75 3.9,4.45 l 2.1,4 L 3.65,11.6 3.8,12.35 4,13 4.1,11.8 Q 4.3,9.15 5.3,6.8 L 5.35,6.6 4.45,5.65 m -16.75,5.1 q 2.45,0.25 4,1.95 l 0.45,0.5 q 0.65,0.8 0.95,1.75 v 0.45 q 2.5,0.1 3.65,1.25 0.4,0.4 0.6,0.95 l 1.8,-0.55 3.65,-1.4 -0.3,-0.6 -1,-2.3 L 0.75,11.05 0.55,10.9 -0.65,9.35 -1.3,8.25 -1.8,7.7 -4.5,5.15 -6.05,3.95 -6.7,3.55 -7.95,2.95 Q -9.1,2.45 -10.4,2.2 q -1.05,0.6 -2.4,1.05 l -3.15,0.9 Q -20.3,5.3 -23.9,8.1 v 0.15 l 1.15,0.4 q 2.45,0.35 4.8,1.3 0.65,0.2 1.2,0.7 l 0.5,0.75 q 1.4,-0.7 3.15,-0.7 l 0.8,0.05 m 0.45,14.2 q 1.1,-1.7 2.3,-1.7 l 0.15,-0.1 q 2.35,-0.85 3.1,-3.1 L -6.35,19.9 -7.1,19.7 q -3.5,3.6 -4.75,-0.6 -0.35,-0.95 0.4,-1.7 l 0.85,-0.7 0.15,-0.65 Q -10.6,15.6 -11,15.5 -11.75,15.15 -12.45,15 l -0.6,0.1 -0.55,0.1 h -0.15 l -0.4,0.2 -0.2,0.1 -0.1,0.25 -0.25,0.15 q -0.1,1.8 -0.9,3.05 -0.65,1 -1.75,1.65 -0.9,0.5 -1.6,-0.25 -0.7,-0.8 -0.9,-1.6 l -0.5,-0.35 -1.9,-0.2 -0.45,0.2 -0.4,0.1 -0.2,0.2 -0.35,0.35 -0.4,0.65 v 0.05 l -0.05,0.15 q 1.9,1.2 1.8,3.45 -0.05,0.65 -0.55,0.85 l -0.5,0.05 q -4.15,-0.2 -4.15,-4.15 -0.05,-1.5 0.9,-2.75 1.65,-2.2 4.35,-2.55 1.45,-0.2 2.65,0.35 l 1,-1.85 q -1.45,-0.75 -3.05,-1 -3.4,0.7 -6.65,2 -1.4,0.45 -2.6,1.35 l -0.15,0.1 q -4.4,3.05 -7.1,7.5 l -1.3,2.3 q -0.75,1.8 -0.9,3.7 -0.15,2 0.4,4.05 1.65,5.95 8.35,7.45 11.05,2.85 18.65,-4.95 1.1,-1.05 1.65,-2.5 1.25,-3.7 -0.8,-7.15 -0.25,-0.5 0.05,-0.95 l 0.2,-0.25 m -19.1,0.25 q 4.8,-0.4 5.6,3.75 l 0.1,0.65 q 0,0.85 -0.3,1.6 l -0.9,1.2 q -2.8,2.75 -6.25,0.8 -1.9,-1.05 -2.45,-2.3 l -0.25,-1.1 0.05,-0.4 q 0.15,-1.3 1.45,-2.75 l 1.1,-0.9 q 0.85,-0.5 1.85,-0.55"
         fill="#000000"
         fill-rule="evenodd"
         stroke="none"
         id="path1" />
      <path
         d="M -2.25,-8.2 -0.1,-8.55 0.4,-8.6 q 0.3,0.7 0.9,1.2 l 0.6,0.5 1.25,1.05 0.8,3.05 Q 3.3,-1.85 2.05,-1.25 L 1,-0.85 -1,-1.8 -1.4,-1.95 -3.9,-2.7 -4.05,-2.95 -4.45,-3.8 q -0.4,-1.05 -0.1,-2.2 l 1.1,-1.35 1.2,-0.85 m 16.3,-10.55 q 2.65,-1.3 5.15,-2.75 11.05,-6.45 19.7,-15.45 l -0.45,1.65 -0.1,0.8 -1.05,1.75 -1.35,2.4 -0.3,0.55 -6,11.05 -1.2,1.95 H 28.4 q -2.1,0.15 -2.85,-1.8 l -0.05,-0.15 -4.1,3.8 q -2.5,2.25 -5.65,0.7 -2.8,-1.4 -1.7,-4.5 m 10.9,6.55 -1,0.35 q -2.1,0.8 -4.3,1.15 l -1.35,0.4 -0.1,-0.5 q -0.2,-1.55 1.35,-2.3 l 2.2,-0.8 1.9,0.3 q 0.4,0.15 0.75,0.35 l 0.3,0.45 0.25,0.6 M 7.9,-15.6 8.65,-16.15 q 1.45,0.8 2.5,2.15 l 3.05,4.55 0.05,0.7 Q 11.55,-11.2 8.2,-12.2 7.75,-13.7 7.9,-15.5 v -0.1 M 13.4,3.6 Q 11,3.5 10.15,2.1 9.45,1 9.65,-0.85 9.75,-1.9 10.1,-2.7 l 0.45,-0.8 q 0.75,-1.15 2.2,-1.75 l 1.3,0.95 0.15,0.9 0.3,1.25 -0.05,0.25 -0.05,1.15 q 0,0.4 0.25,0.65 L 14.6,0.5 14.5,1.55 14.45,1.9 14.1,2.5 13.9,3.15 13.85,3.3 13.4,3.6 M 1.75,3.45 2.7,4.15 4.45,5.65 4.25,6.1 3.4,6.95 H 2.7 L 1.6,6.7 Q 1,6.3 0.85,5.65 0.7,5 0.9,4.35 l 0.3,-0.4 0.55,-0.5"
         fill="#854949"
         fill-rule="evenodd"
         stroke="none"
         id="path2" />
      <path
         d="m -7.95,2.95 q 0.3,0.75 0.25,1.8 -0.15,2.45 -2.05,4.15 -1.25,1.15 -2.55,1.85 l -0.8,-0.05 q -1.75,0 -3.15,0.7 l -0.5,-0.75 q -0.55,-0.5 -1.2,-0.7 Q -20.3,9 -22.75,8.65 L -23.9,8.25 V 8.1 q 3.6,-2.8 7.95,-3.95 l 3.15,-0.9 q 1.35,-0.45 2.4,-1.05 1.3,0.25 2.45,0.75 m -5.65,12.25 0.55,-0.1 0.6,-0.1 q 0.7,0.15 1.45,0.5 0.4,0.1 0.55,0.55 l -0.15,0.65 -0.85,0.7 q -0.75,0.75 -0.4,1.7 1.25,4.2 4.75,0.6 l 0.75,0.2 0.05,0.15 q -0.75,2.25 -3.1,3.1 l -0.15,0.1 q -1.2,0 -2.3,1.7 l -1.9,-0.45 -0.6,-0.35 h -0.85 q -1.15,0.65 -2.45,0.85 v 0.1 q -0.1,7.6 -7.85,10 -9.15,2.9 -14.3,-3.95 l -0.5,-1.25 -0.05,-0.65 q 0.15,-1.9 0.9,-3.7 l 1.3,-2.3 q 2.7,-4.45 7.1,-7.5 l 0.15,-0.1 q 1.2,-0.9 2.6,-1.35 3.25,-1.3 6.65,-2 1.6,0.25 3.05,1 l -1,1.85 q -1.2,-0.55 -2.65,-0.35 -2.7,0.35 -4.35,2.55 -0.95,1.25 -0.9,2.75 0,3.95 4.15,4.15 l 0.5,-0.05 q 0.5,-0.2 0.55,-0.85 0.1,-2.25 -1.8,-3.45 l 0.05,-0.15 V 19.7 l 0.4,-0.65 0.35,-0.35 0.2,-0.2 0.4,-0.1 0.45,-0.2 1.9,0.2 0.5,0.35 q 0.2,0.8 0.9,1.6 0.7,0.75 1.6,0.25 1.1,-0.65 1.75,-1.65 l 0.45,-0.2 0.15,-0.25 0.15,-0.4 0.35,-0.65 q 0.2,-1.2 0.9,-2.25 m -17.35,10 q -1,0.05 -1.85,0.55 l -1.1,0.9 q -1.3,1.45 -1.45,2.75 l -0.05,0.4 0.25,1.1 q 0.55,1.25 2.45,2.3 3.45,1.95 6.25,-0.8 l 0.9,-1.2 q 0.3,-0.75 0.3,-1.6 l -0.1,-0.65 q -0.8,-4.15 -5.6,-3.75"
         fill="#d0d0d0"
         fill-rule="evenodd"
         stroke="none"
         id="path3" />
      <path
         d="m -2.25,-8.2 -1.2,0.85 -1.1,1.35 q -0.3,1.15 0.1,2.2 H -4.5 l 0.35,1.05 -1.8,-0.35 v 0.05 l -0.95,0.1 q 0.25,-1.45 0.05,-3.15 2.1,-1.55 4.6,-2.1 M 1,-0.85 2.05,-1.25 q 1.25,-0.6 1.9,-1.55 l 0.25,0.7 1.3,3.85 v 0.4 0.5 Q 3.45,0.5 1,-0.85 m 13.05,-17.9 q -1.1,3.1 1.7,4.5 3.15,1.55 5.65,-0.7 l 4.1,-3.8 0.05,0.15 q 0.75,1.95 2.85,1.8 h 0.05 l -2.75,4.3 -0.75,0.3 -0.25,-0.6 -0.3,-0.45 q -0.35,-0.2 -0.75,-0.35 l -1.9,-0.3 -2.2,0.8 q -1.55,0.75 -1.35,2.3 l 0.1,0.5 -1.5,0.65 v -0.2 l -1.05,-3.1 Q 14.3,-15.9 11.9,-17.7 l 2.15,-1.05 M 7.9,-15.6 v 0.1 q -0.15,1.8 0.3,3.3 l -2.95,-0.6 q 1.1,-1.65 2.65,-2.8 m 5.5,19.2 -0.3,0.15 q -2.35,0.95 -5,0.7 L 8.2,3.5 8.05,0.9 7.75,-1.85 Q 7.55,-3.8 6.9,-5.4 6,-7.55 4.35,-9.1 l 1.5,-0.1 q 2.35,0.7 4.35,2.1 l 0.1,0.05 2.45,1.8 q -1.45,0.6 -2.2,1.75 L 10.1,-2.7 Q 9.75,-1.9 9.65,-0.85 9.45,1 10.15,2.1 11,3.5 13.4,3.6 M 1.75,3.45 1.2,3.95 0.9,4.35 Q 0.7,5 0.85,5.65 1,6.3 1.6,6.7 L 2.7,6.95 H 3.4 L 4.25,6.1 4.45,5.65 5.35,6.6 5.3,6.8 q -1,2.35 -1.2,5 L 4,13 3.8,12.35 3.65,11.6 3.6,11.15 1.5,7.15 Q -0.15,4.45 -2.4,2.7 -3.85,1.55 -5.55,0.8 -3.85,1 -2.3,1.55 -0.15,2.2 1.75,3.45 m -9.7,-0.5 1.25,0.6 0.65,0.4 1.55,1.2 2.7,2.55 0.5,0.55 0.65,1.1 1.2,1.55 0.2,0.15 0.75,1.7 1,2.3 0.3,0.6 -3.65,1.4 -1.8,0.55 Q -2.85,17.05 -3.25,16.65 -4.4,15.5 -6.9,15.4 V 14.95 Q -7.2,14 -7.85,13.2 L -8.3,12.7 q -1.55,-1.7 -4,-1.95 1.3,-0.7 2.55,-1.85 1.9,-1.7 2.05,-4.15 0.05,-1.05 -0.25,-1.8 m -32.4,26.3 0.05,0.65 0.5,1.25 q 5.15,6.85 14.3,3.95 7.75,-2.4 7.85,-10 V 25 q 1.3,-0.2 2.45,-0.85 h 0.85 l 0.6,0.35 1.9,0.45 -0.2,0.25 q -0.3,0.45 -0.05,0.95 2.05,3.45 0.8,7.15 -0.55,1.45 -1.65,2.5 -7.6,7.8 -18.65,4.95 -6.7,-1.5 -8.35,-7.45 -0.55,-2.05 -0.4,-4.05"
         fill="#828282"
         fill-rule="evenodd"
         stroke="none"
         id="path4" />
    </g>
    <g
       id="sprite1"
       transform="translate(17.4,15.85)">
      <use
         ffdec:characterId="31"
         height="57.200001"
         transform="matrix(0.5366,0,0,0.5366,-16.6582,-14.546)"
         width="70.75"
         xlink:href="#sprite2"
         id="use4" />
    </g>
    <g
       id="sprite2"
       transform="translate(-8.65,-10.35)">
      <use
         ffdec:characterId="30"
         height="57.200001"
         transform="translate(8.65,10.35)"
         width="70.75"
         xlink:href="#shape1"
         id="use5" />
    </g>
    <g
       id="shape1"
       transform="translate(-8.65,-10.35)">
      <path
         d="m 14.8,41.7 q 0.65,-1.75 2.65,-2.5 1.8,-0.8 3.7,-0.25 1.15,0.45 2.25,1.2 l 0.9,0.4 q 1.65,0.9 2.85,2.5 L 37.8,30.1 q 2.35,-2.8 3.75,-3.95 1.5,-1.15 4.25,-2.4 18.2,-8.85 27.65,-12.6 2.15,-0.8 3.25,-0.8 h 0.8 l 1.9,2.4 -0.2,0.8 q -0.2,1.1 -1.55,3 -5.85,8.25 -18.85,23.8 -1.85,2.35 -3.35,3.5 -1.4,1.15 -4.75,2.75 l -15.15,7.15 q 1.2,1.6 1.75,3.4 l 0.2,1 0.55,2.5 q 0.1,1.95 -1.1,3.55 -1.2,1.65 -3.05,1.9 l -1.3,0.05 q -1.65,0.2 -3.45,-0.65 -1.85,-0.9 -3,-2.6 L 25,60.95 23.8,62.1 q -2.6,2.85 -4.3,3.95 -2.85,1.8 -5.5,1.45 l -1.65,-0.5 -1.2,-0.7 -0.2,-0.2 q -1,-0.85 -1.6,-1.9 L 9.25,64 9.15,63.8 8.75,62.4 q -0.2,-0.8 -0.05,-1.7 0.25,-2.65 2.7,-5.05 1.5,-1.3 4.9,-3.15 L 17.7,51.55 16.05,50 q -1.35,-1.5 -1.8,-3.6 -0.4,-1.85 0.25,-3.45 l 0.3,-1.25"
         fill="#000000"
         fill-opacity="0.372549"
         fill-rule="evenodd"
         stroke="none"
         id="path5" />
    </g>
  </defs>
</svg>
