<?xml version="1.0" encoding="UTF-8" standalone="no"?>
<svg
   ffdec:objectType="frame"
   height="71.349998"
   width="84.265198"
   version="1.1"
   id="svg6"
   xmlns:xlink="http://www.w3.org/1999/xlink"
   xmlns="http://www.w3.org/2000/svg"
   xmlns:svg="http://www.w3.org/2000/svg"
   xmlns:ffdec="https://www.free-decompiler.com/flash">
  <g
     transform="translate(42.466667,29.15)"
     id="g1">
    <use
       ffdec:characterId="17"
       height="119.15"
       id="rarity"
       transform="translate(-58.5,-60.65)"
       width="119.15"
       xlink:href="#sprite0" />
    <use
       ffdec:characterId="891"
       height="71.550003"
       transform="translate(-42.45,-29.15)"
       width="84.25"
       xlink:href="#shape0"
       id="use1" />
  </g>
  <defs
     id="defs6">
    <g
       id="shape0"
       transform="translate(43,29.9)">
      <path
         d="m 10.3,-20.05 -0.1,0.3 -0.8,1.15 -0.15,0.2 0.4,0.05 q 7.1,1.2 11.4,3.1 4.25,1.9 7,4.85 l -0.15,-1 q -0.4,-1.75 -1.45,-3.1 -0.85,-1.05 -0.95,-1.4 -0.25,-0.9 0.25,-1.3 l 0.2,-0.15 1.35,0.15 q 1.65,0.8 2.85,2.9 2.5,4.3 0.9,9.5 -1.35,4.5 -5.5,7.95 -4.7,3.9 -13.9,6.2 l -6.35,1.3 -17.45,-0.7 q -6.1,-1 -9.9,-2.55 -5.3,-2.2 -8.15,-6 -2.15,-2.8 -2.2,-5.65 -0.15,-2.7 1.4,-4.9 l 1.2,-1.05 q 0.9,-0.3 1.4,0.35 0.25,0.45 -0.1,1.75 l -0.2,1.45 q -0.1,1.25 0.35,2.6 L -28,-5.2 q 1.4,-3.8 5.15,-6.8 2.95,-2.35 7.5,-4.25 l 7.25,-2.35 4.4,-0.55 v -0.2 l 0.35,-0.85 0.15,-0.65 0.1,-1.7 0.2,-0.85 0.05,-0.5 -6.9,0.85 -7.15,1.65 q -8.75,2.75 -14.25,8.95 l -2.4,3.2 q -1.25,1.9 -2.1,4.05 -1.65,4.1 -1.6,8.25 0,2.35 0.6,4.1 0.55,1.8 2,3.7 3.15,3.95 10.1,6.6 8.1,3.15 16.75,3.85 l 0.25,0.05 h 0.25 q 4.05,0.3 8,0.05 L 1.85,21.3 1.75,19.7 1.9,18.35 2.5,16.9 3.05,15.85 q 0.45,-0.7 1.4,-1.3 L 4.95,14.3 6,13.85 l 1.75,-0.2 1.45,0.05 0.9,0.3 1.15,0.9 q 1.55,1.7 1.8,4 l 0.05,0.25 5.4,-1.65 q 3.8,-1.25 5.4,-2 3.1,-1.6 6.5,-4.55 l 2.4,-2.5 Q 33.6,7.3 34.6,4.7 l 1.55,-4.9 q 0.6,-2.8 0.35,-5.1 -0.35,-2.05 -1.35,-4.6 l -0.4,-1.1 q -1.45,-3.6 -3.1,-5.4 -2.85,-3.3 -9.55,-5.2 -5.8,-1.65 -11.85,-2.2 l 0.05,1.05 0.05,1.4 -0.05,1.3 m -4.75,-0.5 0.35,-0.25 q 0.8,-0.6 0.7,-1.45 l -0.3,-0.85 -0.65,-1 h -5 l 0.1,1.8 -0.1,0.55 0.05,0.85 v 0.15 l 0.05,0.95 -0.05,0.35 1.6,-0.2 2.15,-0.45 1.1,-0.45 M 18.25,2.1 q 4.85,-2.2 7.3,-5.15 1.1,-1.35 1.75,-2.85 L 27.2,-6 q -4.4,-4.6 -14.05,-6.75 -8.7,-2 -15.95,-1.45 -8.8,0.65 -15.15,4.75 -5.3,3.4 -5.7,7.65 l -0.15,2.05 -0.25,0.9 q 2.4,1.45 6.35,2.55 9.3,2.6 18.2,2.35 9.7,-0.3 17.75,-3.95 M 4.7,-29.9 q 7.85,0.25 19.2,3.6 l 4.7,1.7 q 4.95,2.35 8.35,7.35 2.6,3.8 3.65,8.35 1.05,4.55 0.4,9.1 -0.6,4.5 -2.85,8.6 -2.25,4.1 -5.75,7.05 -3.5,2.95 -8.7,5.15 l -3.5,1.3 q 1.35,0.65 2.45,1.6 1.6,1.35 2.4,3.25 0.85,2.05 0.5,4 -0.65,3.4 -4.75,6.2 -3.85,2.6 -8.7,3.65 L 2.6,41.45 Q -1,41 -3.05,39.85 q -3,-1.55 -3.95,-4.2 -0.7,-1.85 -0.25,-4 0.4,-2 1.7,-3.7 l 1,-1.1 -9.9,-0.8 -1.9,-0.35 Q -32,23.05 -39.1,14.6 -41.85,11.4 -42.6,8.2 -43.1,6.25 -43,2.8 l 0.5,-5.3 q 1.05,-5.65 4.65,-10.75 3.35,-4.8 8.35,-8.35 4.45,-3.05 9.3,-4.75 4.75,-1.6 11.75,-2.6 L 4.7,-29.9 M 7.8,20.15 8.45,19.3 8.6,19 V 18.75 L 8.3,17.9 7.35,17.95 q -0.5,0.15 -0.7,0.6 l -0.2,0.55 -0.15,0.85 0.85,0.4 0.3,0.1 0.35,-0.3 m 9.7,13.5 2.6,-2.1 q 0.75,-0.85 0.75,-1.7 0.05,-1.3 -1.35,-2.35 -1.45,-1.2 -4.05,-1.65 L 8.4,25.6 H 8.35 L 8.1,25.65 7.55,25.75 4.4,26.3 q -1.2,0.35 -2.2,0.95 -2.4,1.35 -3.05,2.1 l -1.4,2.2 -0.15,0.35 q -0.45,0.85 -0.3,1.4 l 0.65,1.05 q 1.5,1.5 4.65,1.95 6,0.95 11.6,-1.15 L 17,33.9 17.5,33.65 M 8.7,26.3 9.05,26.2 11.8,26.1 q 1.15,0.2 1.6,1.05 0.25,0.4 0.15,0.95 l -0.6,0.7 -1.15,0.05 -2,0.2 L 9,29.2 q -2.55,0.5 -3.75,1.5 0.5,0.4 1.6,0.45 h 0.2 l 3.8,-0.5 1.75,-0.45 1.55,-0.5 q 0.8,-0.1 1.3,0.4 l 0.1,0.05 q 0.65,0.65 0.4,1.45 -0.2,0.8 -1.45,1.4 l -1.75,0.65 H 12.6 L 6.9,34.5 4.9,34.3 3.2,33.5 2.4,32.95 2,32.45 Q 1.8,32 1.9,31.25 l 0.2,-1.5 q 0.4,-1 1.65,-1.7 1.3,-0.9 3.15,-1.4 L 8.7,26.3"
         fill="#000000"
         fill-rule="evenodd"
         stroke="none"
         id="path1" />
      <path
         d="m 25.75,-17.2 -0.95,-0.25 q -7.25,-1.7 -14.5,-2.6 l 0.05,-1.3 -0.05,-1.4 -0.05,-1.05 q 6.05,0.55 11.85,2.2 6.7,1.9 9.55,5.2 1.65,1.8 3.1,5.4 0.25,4.25 -0.85,8.3 -1.6,5.9 -5.85,9.6 -2.85,2.5 -7.2,4.05 -3.15,1.15 -8.1,2.1 L 9.2,13.7 7.75,13.65 6,13.85 4.95,14.3 0.6,14.55 l -9.55,-0.7 -7.6,-1 q -3.6,-0.45 -5.8,-1.35 -1.7,-0.7 -4.35,-2.65 -3.7,-2.75 -5.4,-4.9 -2.6,-3.1 -2.9,-6.55 -0.25,-3.1 1.45,-6.65 l 2.4,-3.2 q 5.5,-6.2 14.25,-8.95 l 7.15,-1.65 6.9,-0.85 -0.05,0.5 -0.2,0.85 -0.1,1.7 -0.65,0.05 -6.2,1.15 q -6.9,1.75 -11.4,4.65 -5.25,3.5 -7.25,8.35 l 0.2,-1.45 q 0.35,-1.3 0.1,-1.75 -0.5,-0.65 -1.4,-0.35 l -1.2,1.05 q -1.55,2.2 -1.4,4.9 0.05,2.85 2.2,5.65 2.85,3.8 8.15,6 3.8,1.55 9.9,2.55 l 17.45,0.7 6.35,-1.3 q 9.2,-2.3 13.9,-6.2 4.15,-3.45 5.5,-7.95 1.6,-5.2 -0.9,-9.5 -1.2,-2.1 -2.85,-2.9 l -1.35,-0.15 -0.2,0.15 m -25.05,-3.7 -0.05,-0.85 0.1,-0.55 -0.1,-1.8 h 5 l 0.65,1 0.3,0.85 q 0.1,0.85 -0.7,1.45 l -0.35,0.25 -1.8,-0.15 -3.05,-0.2"
         fill="#474747"
         fill-rule="evenodd"
         stroke="none"
         id="path2" />
      <path
         d="m 25.75,-17.2 q -0.5,0.4 -0.25,1.3 0.1,0.35 0.95,1.4 1.05,1.35 1.45,3.1 l 0.15,1 q -2.75,-2.95 -7,-4.85 -4.3,-1.9 -11.4,-3.1 l -0.4,-0.05 0.15,-0.2 0.8,-1.15 0.1,-0.3 q 7.25,0.9 14.5,2.6 l 0.95,0.25 m 9,6.2 0.4,1.1 q 1,2.55 1.35,4.6 0.25,2.3 -0.35,5.1 L 34.6,4.7 q -1,2.6 -1.8,3.75 l -2.4,2.5 q -3.4,2.95 -6.5,4.55 -1.6,0.75 -5.4,2 l -5.4,1.65 -0.05,-0.25 q -0.25,-2.3 -1.8,-4 L 10.1,14 9.2,13.7 12.75,13.05 Q 17.7,12.1 20.85,10.95 25.2,9.4 28.05,6.9 32.3,3.2 33.9,-2.7 35,-6.75 34.75,-11 m -29.8,25.3 -0.5,0.25 q -0.95,0.6 -1.4,1.3 L 2.5,16.9 1.9,18.35 1.75,19.7 1.85,21.3 0.7,21.4 q -3.95,0.25 -8,-0.05 H -7.55 L -7.8,21.3 q -8.65,-0.7 -16.75,-3.85 -6.95,-2.65 -10.1,-6.6 -1.45,-1.9 -2,-3.7 -0.6,-1.75 -0.6,-4.1 -0.05,-4.15 1.6,-8.25 0.85,-2.15 2.1,-4.05 -1.7,3.55 -1.45,6.65 0.3,3.45 2.9,6.55 1.7,2.15 5.4,4.9 2.65,1.95 4.35,2.65 2.2,0.9 5.8,1.35 l 7.6,1 9.55,0.7 4.35,-0.25 m -8.15,-35.15 -0.15,0.65 -0.35,0.85 v 0.2 l -4.4,0.55 -7.25,2.35 q -4.55,1.9 -7.5,4.25 -3.75,3 -5.15,6.8 l -0.35,1.15 q -0.45,-1.35 -0.35,-2.6 2,-4.85 7.25,-8.35 4.5,-2.9 11.4,-4.65 l 6.2,-1.15 0.65,-0.05 m 3.9,-0.05 3.05,0.2 1.8,0.15 -1.1,0.45 -2.15,0.45 -1.6,0.2 0.05,-0.35 -0.05,-0.95 v -0.15 m 7.1,41.05 -0.35,0.3 -0.3,-0.1 -0.85,-0.4 0.15,-0.85 0.2,-0.55 q 0.2,-0.45 0.7,-0.6 L 8.3,17.9 8.6,18.75 V 19 L 8.45,19.3 7.8,20.15"
         fill="#272727"
         fill-rule="evenodd"
         stroke="none"
         id="path3" />
      <path
         d="m 8.1,25.65 0.6,0.65 -1.8,0.35 q -1.85,0.5 -3.15,1.4 -1.25,0.7 -1.65,1.7 l -0.2,1.5 Q 1.8,32 2,32.45 l 0.4,0.5 -0.55,0.05 -2,-0.1 -1.6,-0.45 -0.65,-0.55 0.15,-0.35 1.4,-2.2 q 0.65,-0.75 3.05,-2.1 1,-0.6 2.2,-0.95 l 3.15,-0.55 0.55,-0.1 m 0.9,3.55 -0.7,0.95 -1.45,1 Q 5.75,31.1 5.25,30.7 6.45,29.7 9,29.2 m 6.45,0.9 0.4,0.05 q 0.95,0.3 1.45,1.25 0.5,0.95 0.25,1.95 L 17.5,33.65 17,33.9 14.2,35.15 13.9,35 Q 13.1,34.5 12.75,33.7 V 33.65 L 14.5,33 q 1.25,-0.6 1.45,-1.4 0.25,-0.8 -0.4,-1.45 l -0.1,-0.05"
         fill="#ffffff"
         fill-rule="evenodd"
         stroke="none"
         id="path4" />
      <path
         d="M 8.1,25.65 8.35,25.6 H 8.4 l 7.05,0.25 q 2.6,0.45 4.05,1.65 1.4,1.05 1.35,2.35 0,0.85 -0.75,1.7 l -2.6,2.1 0.05,-0.3 q 0.25,-1 -0.25,-1.95 -0.5,-0.95 -1.45,-1.25 l -0.4,-0.05 q -0.5,-0.5 -1.3,-0.4 l -1.55,0.5 -1.75,0.45 -3.8,0.5 h -0.2 l 1.45,-1 0.7,-0.95 0.8,-0.15 2,-0.2 1.15,-0.05 0.6,-0.7 Q 13.65,27.55 13.4,27.15 12.95,26.3 11.8,26.1 L 9.05,26.2 8.7,26.3 8.1,25.65 m 6.1,9.5 Q 8.6,37.25 2.6,36.3 -0.55,35.85 -2.05,34.35 L -2.7,33.3 q -0.15,-0.55 0.3,-1.4 l 0.65,0.55 1.6,0.45 2,0.1 0.55,-0.05 0.8,0.55 1.7,0.8 2,0.2 5.7,-0.85 h 0.15 v 0.05 q 0.35,0.8 1.15,1.3 l 0.3,0.15"
         fill="#c7c592"
         fill-rule="evenodd"
         stroke="none"
         id="path5" />
    </g>
    <g
       id="sprite1"
       transform="translate(17.4,15.85)">
      <use
         ffdec:characterId="31"
         height="57.200001"
         transform="matrix(0.5366,0,0,0.5366,-16.6582,-14.546)"
         width="70.75"
         xlink:href="#sprite2"
         id="use5" />
    </g>
    <g
       id="sprite2"
       transform="translate(-8.65,-10.35)">
      <use
         ffdec:characterId="30"
         height="57.200001"
         transform="translate(8.65,10.35)"
         width="70.75"
         xlink:href="#shape1"
         id="use6" />
    </g>
    <g
       id="shape1"
       transform="translate(-8.65,-10.35)">
      <path
         d="m 14.8,41.7 q 0.65,-1.75 2.65,-2.5 1.8,-0.8 3.7,-0.25 1.15,0.45 2.25,1.2 l 0.9,0.4 q 1.65,0.9 2.85,2.5 L 37.8,30.1 q 2.35,-2.8 3.75,-3.95 1.5,-1.15 4.25,-2.4 18.2,-8.85 27.65,-12.6 2.15,-0.8 3.25,-0.8 h 0.8 l 1.9,2.4 -0.2,0.8 q -0.2,1.1 -1.55,3 -5.85,8.25 -18.85,23.8 -1.85,2.35 -3.35,3.5 -1.4,1.15 -4.75,2.75 l -15.15,7.15 q 1.2,1.6 1.75,3.4 l 0.2,1 0.55,2.5 q 0.1,1.95 -1.1,3.55 -1.2,1.65 -3.05,1.9 l -1.3,0.05 q -1.65,0.2 -3.45,-0.65 -1.85,-0.9 -3,-2.6 L 25,60.95 23.8,62.1 q -2.6,2.85 -4.3,3.95 -2.85,1.8 -5.5,1.45 l -1.65,-0.5 -1.2,-0.7 -0.2,-0.2 q -1,-0.85 -1.6,-1.9 L 9.25,64 9.15,63.8 8.75,62.4 q -0.2,-0.8 -0.05,-1.7 0.25,-2.65 2.7,-5.05 1.5,-1.3 4.9,-3.15 L 17.7,51.55 16.05,50 q -1.35,-1.5 -1.8,-3.6 -0.4,-1.85 0.25,-3.45 l 0.3,-1.25"
         fill="#000000"
         fill-opacity="0.372549"
         fill-rule="evenodd"
         stroke="none"
         id="path6" />
    </g>
  </defs>
</svg>
