<?xml version="1.0" encoding="UTF-8" standalone="no"?>
<svg
   ffdec:objectType="frame"
   height="81.531197"
   width="70.781906"
   version="1.1"
   id="svg4"
   sodipodi:docname="ITEM Steven.svg"
   xmlns:inkscape="http://www.inkscape.org/namespaces/inkscape"
   xmlns:sodipodi="http://sodipodi.sourceforge.net/DTD/sodipodi-0.dtd"
   xmlns:xlink="http://www.w3.org/1999/xlink"
   xmlns="http://www.w3.org/2000/svg"
   xmlns:svg="http://www.w3.org/2000/svg"
   xmlns:ffdec="https://www.free-decompiler.com/flash">
  <sodipodi:namedview
     id="namedview4"
     pagecolor="#ffffff"
     bordercolor="#000000"
     borderopacity="0.25"
     inkscape:showpageshadow="2"
     inkscape:pageopacity="0.0"
     inkscape:pagecheckerboard="0"
     inkscape:deskcolor="#d1d1d1"
     fit-margin-top="5"
     fit-margin-left="5"
     fit-margin-right="5"
     fit-margin-bottom="5" />
  <g
     transform="translate(32.453333,48.058696)"
     id="g1">
    <use
       ffdec:characterId="17"
       height="119.15"
       id="rarity"
       transform="translate(-58.5,-60.65)"
       width="119.15"
       xlink:href="#sprite0" />
    <use
       ffdec:characterId="1297"
       height="81.5"
       transform="translate(-32.45,-48.05)"
       width="70.800003"
       xlink:href="#shape0"
       id="use1" />
  </g>
  <defs
     id="defs4">
    <g
       id="shape0"
       transform="translate(31.15,46.15)">
      <path
         d="m 18.95,-32.4 q -0.7,-1.15 -0.1,-2.55 0.55,-1.05 1.65,-1.35 l 2.1,0.2 q 0.7,0.4 1.1,1.2 0.4,0.8 0.25,1.6 -0.15,0.85 -0.75,1.45 -0.65,0.65 -1.45,0.8 l -1.6,-0.25 q -0.85,-0.4 -1.2,-1.1 m 11.05,6.8 -1.75,0.25 q -0.95,-0.15 -1.55,-0.8 -0.65,-0.65 -0.75,-1.6 -0.1,-0.95 0.35,-1.75 0.45,-0.75 1.35,-1.1 l 1.75,-0.15 q 0.9,0.25 1.5,1.05 0.55,0.75 0.55,1.65 0,1.6 -1.45,2.45 m -15.15,23.55 0.95,-1.3 1.45,-1.1 2.15,-0.45 q 2.65,-0.1 4,1.2 0.7,0.65 1,1.65 0.35,0.95 0.1,1.9 L 24,1.1 23.1,2.7 Q 22.35,3.6 21.25,4.05 L 19,4.35 Q 17.25,4.1 16.15,2.85 L 15.35,1.75 14.8,0.7 Q 14.65,0.25 14.65,-0.7 l 0.2,-1.35 m -2.15,8.6 q 1.7,-0.5 3.5,-0.45 1.8,0.1 3.2,0.8 1.6,0.8 2.1,2.25 0.45,1.2 -0.05,3.7 -0.75,3.05 -1.95,4.4 l -2.55,2.05 q -8.7,5.15 -19.9,4.4 -4.1,-0.2 -6.5,-1.6 -1.55,-0.9 -2.45,-2.35 -0.95,-1.5 -0.9,-3.15 0.05,-1.3 0.75,-2.65 0.7,-1.4 1.6,-2.1 1.05,-0.8 3.25,-1.1 L 0.3,10.1 Q 4.75,9.7 7.55,8.65 l 2.55,-1.1 q 1.6,-0.7 2.6,-1 M 5.6,17.9 q 4.2,-0.7 6.8,-1.95 2.55,-1.3 4.55,-3.35 l 0.7,-1.25 q -1.8,-0.85 -5,0.5 L 8.4,13.75 Q 5.95,14.8 4,15.1 l -3.65,0.35 -6.85,1.05 -0.35,0.25 q 1.45,0.9 4.6,1.3 l 3.2,0.35 4.65,-0.5 m -21.8,-18.45 2.4,-0.15 1.5,0.35 q 0.75,0.35 1.2,0.95 0.65,0.65 0.9,1.65 l 0.1,1.05 q 0,2.05 -0.6,2.8 l -0.95,0.85 -0.95,0.75 -1.65,0.5 Q -16.2,8.35 -17.6,7.1 -19.15,5.8 -19.05,3.9 l 0.15,-0.9 0.3,-1.2 1.05,-1.45 q 0.6,-0.6 1.35,-0.9"
         fill="#ffffff"
         fill-rule="evenodd"
         stroke="none"
         id="path1" />
      <path
         d="m 30.2,2.5 q 0.55,-8.65 -4.95,-18 -1.55,-2.5 -1.2,-4 0.3,-1 1.45,-1.85 l 2.2,-1.2 q 4.95,-2.5 5.5,-6.55 0.35,-3 -1.8,-5.85 -1.75,-2.35 -4.35,-3.6 -2.75,-1.35 -5.5,-0.95 -2.85,0.4 -4.9,2.7 -2.1,2.3 -1.95,5.05 l 0.2,2.25 q 0,1.3 -0.6,2 -0.75,0.8 -2.25,0.8 L 9.6,-27.2 q -2.85,-0.6 -7.05,0 -6.65,0.9 -12,3.7 -5.95,3.05 -9.4,7.95 -4.35,6.25 -5.35,17.6 l -0.15,5.35 q 0.4,5.5 3.55,10.25 3.15,4.8 8.05,7.25 2.15,1.05 6.95,2.5 4.6,1.35 6.7,1.5 l 6.85,-0.65 q 2.75,-0.7 6.55,-2.3 5,-2.25 7.2,-4.3 1.65,-1.55 3.3,-4.2 Q 29.7,9.8 30.2,2.5 M 15.95,31.95 Q 7,35.65 0.7,35.35 q -3.2,-0.1 -8.8,-1.65 -4.35,-1.25 -7.25,-2.6 -6.75,-3.2 -11.05,-9.7 -4.35,-6.5 -4.7,-13.95 -0.2,-3.05 0.35,-7.4 1,-8.3 3.25,-13.5 2.15,-4.95 6,-9 3.8,-4 8.65,-6.6 9.65,-5.15 21.15,-4.2 -0.2,-4.15 3.55,-8 2.55,-2.7 5.7,-3.95 2.8,-1.05 5.9,-0.95 3.1,0.15 5.9,1.4 5.55,2.5 8.5,8.25 1.3,2.45 1.6,4.6 0.75,4.5 -1.65,8.7 -2.3,3.95 -6.5,6.15 4.45,7.3 4.85,16.15 0.4,8.85 -3.3,16.55 l -3.05,5.3 q -2.2,3.35 -3.85,4.95 -3.4,3.35 -10,6.05"
         fill="#000000"
         fill-rule="evenodd"
         stroke="none"
         id="path2" />
      <path
         d="m 30.2,2.5 q -0.5,7.3 -5.4,14.95 -1.65,2.65 -3.3,4.2 -2.2,2.05 -7.2,4.3 -3.8,1.6 -6.55,2.3 L 0.9,28.9 q -2.1,-0.15 -6.7,-1.5 -4.8,-1.45 -6.95,-2.5 -4.9,-2.45 -8.05,-7.25 -3.15,-4.75 -3.55,-10.25 l 0.15,-5.35 q 1,-11.35 5.35,-17.6 3.45,-4.9 9.4,-7.95 5.35,-2.8 12,-3.7 4.2,-0.6 7.05,0 l 2.45,0.5 q 1.5,0 2.25,-0.8 0.6,-0.7 0.6,-2 l -0.2,-2.25 q -0.15,-2.75 1.95,-5.05 2.05,-2.3 4.9,-2.7 2.75,-0.4 5.5,0.95 2.6,1.25 4.35,3.6 2.15,2.85 1.8,5.85 -0.55,4.05 -5.5,6.55 l -2.2,1.2 q -1.15,0.85 -1.45,1.85 -0.35,1.5 1.2,4 5.5,9.35 4.95,18 m -46.4,-3.05 q -0.75,0.3 -1.35,0.9 L -18.6,1.8 -18.9,3 -19.05,3.9 q -0.1,1.9 1.45,3.2 1.4,1.25 3.35,1.1 l 1.65,-0.5 0.95,-0.75 0.95,-0.85 q 0.6,-0.75 0.6,-2.8 l -0.1,-1.05 q -0.25,-1 -0.9,-1.65 -0.45,-0.6 -1.2,-0.95 l -1.5,-0.35 -2.4,0.15 M 5.6,17.9 0.95,18.4 -2.25,18.05 q -3.15,-0.4 -4.6,-1.3 L -6.5,16.5 0.35,15.45 4,15.1 q 1.95,-0.3 4.4,-1.35 l 4.25,-1.9 q 3.2,-1.35 5,-0.5 l -0.7,1.25 q -2,2.05 -4.55,3.35 Q 9.8,17.2 5.6,17.9 M 12.7,6.55 q -1,0.3 -2.6,1 L 7.55,8.65 Q 4.75,9.7 0.3,10.1 l -7.5,0.65 q -2.2,0.3 -3.25,1.1 -0.9,0.7 -1.6,2.1 -0.7,1.35 -0.75,2.65 -0.05,1.65 0.9,3.15 0.9,1.45 2.45,2.35 2.4,1.4 6.5,1.6 11.2,0.75 19.9,-4.4 l 2.55,-2.05 q 1.2,-1.35 1.95,-4.4 0.5,-2.5 0.05,-3.7 Q 21,7.7 19.4,6.9 18,6.2 16.2,6.1 14.4,6.05 12.7,6.55 m 2.15,-8.6 -0.2,1.35 q 0,0.95 0.15,1.4 l 0.55,1.05 0.8,1.1 q 1.1,1.25 2.85,1.5 l 2.25,-0.3 Q 22.35,3.6 23.1,2.7 L 24,1.1 24.5,-0.15 q 0.25,-0.95 -0.1,-1.9 -0.3,-1 -1,-1.65 -1.35,-1.3 -4,-1.2 l -2.15,0.45 -1.45,1.1 -0.95,1.3 M 30,-25.6 q 1.45,-0.85 1.45,-2.45 0,-0.9 -0.55,-1.65 -0.6,-0.8 -1.5,-1.05 l -1.75,0.15 q -0.9,0.35 -1.35,1.1 -0.45,0.8 -0.35,1.75 0.1,0.95 0.75,1.6 0.6,0.65 1.55,0.8 L 30,-25.6 m -11.05,-6.8 q 0.35,0.7 1.2,1.1 l 1.6,0.25 q 0.8,-0.15 1.45,-0.8 0.6,-0.6 0.75,-1.45 0.15,-0.8 -0.25,-1.6 -0.4,-0.8 -1.1,-1.2 l -2.1,-0.2 q -1.1,0.3 -1.65,1.35 -0.6,1.4 0.1,2.55"
         fill="#090909"
         fill-rule="evenodd"
         stroke="none"
         id="path3" />
    </g>
    <g
       id="sprite1"
       transform="translate(17.4,15.85)">
      <use
         ffdec:characterId="31"
         height="57.200001"
         transform="matrix(0.5366,0,0,0.5366,-16.6582,-14.546)"
         width="70.75"
         xlink:href="#sprite2"
         id="use3" />
    </g>
    <g
       id="sprite2"
       transform="translate(-8.65,-10.35)">
      <use
         ffdec:characterId="30"
         height="57.200001"
         transform="translate(8.65,10.35)"
         width="70.75"
         xlink:href="#shape1"
         id="use4" />
    </g>
    <g
       id="shape1"
       transform="translate(-8.65,-10.35)">
      <path
         d="m 14.8,41.7 q 0.65,-1.75 2.65,-2.5 1.8,-0.8 3.7,-0.25 1.15,0.45 2.25,1.2 l 0.9,0.4 q 1.65,0.9 2.85,2.5 L 37.8,30.1 q 2.35,-2.8 3.75,-3.95 1.5,-1.15 4.25,-2.4 18.2,-8.85 27.65,-12.6 2.15,-0.8 3.25,-0.8 h 0.8 l 1.9,2.4 -0.2,0.8 q -0.2,1.1 -1.55,3 -5.85,8.25 -18.85,23.8 -1.85,2.35 -3.35,3.5 -1.4,1.15 -4.75,2.75 l -15.15,7.15 q 1.2,1.6 1.75,3.4 l 0.2,1 0.55,2.5 q 0.1,1.95 -1.1,3.55 -1.2,1.65 -3.05,1.9 l -1.3,0.05 q -1.65,0.2 -3.45,-0.65 -1.85,-0.9 -3,-2.6 L 25,60.95 23.8,62.1 q -2.6,2.85 -4.3,3.95 -2.85,1.8 -5.5,1.45 l -1.65,-0.5 -1.2,-0.7 -0.2,-0.2 q -1,-0.85 -1.6,-1.9 L 9.25,64 9.15,63.8 8.75,62.4 q -0.2,-0.8 -0.05,-1.7 0.25,-2.65 2.7,-5.05 1.5,-1.3 4.9,-3.15 L 17.7,51.55 16.05,50 q -1.35,-1.5 -1.8,-3.6 -0.4,-1.85 0.25,-3.45 l 0.3,-1.25"
         fill="#000000"
         fill-opacity="0.372549"
         fill-rule="evenodd"
         stroke="none"
         id="path4" />
    </g>
  </defs>
</svg>
