<?xml version="1.0" encoding="UTF-8" standalone="no"?>
<svg
   ffdec:objectType="frame"
   height="54.799999"
   width="96.84153"
   version="1.1"
   id="svg4"
   sodipodi:docname="ITEM Rock Necklace.svg"
   xmlns:inkscape="http://www.inkscape.org/namespaces/inkscape"
   xmlns:sodipodi="http://sodipodi.sourceforge.net/DTD/sodipodi-0.dtd"
   xmlns:xlink="http://www.w3.org/1999/xlink"
   xmlns="http://www.w3.org/2000/svg"
   xmlns:svg="http://www.w3.org/2000/svg"
   xmlns:ffdec="https://www.free-decompiler.com/flash">
  <sodipodi:namedview
     id="namedview4"
     pagecolor="#ffffff"
     bordercolor="#000000"
     borderopacity="0.25"
     inkscape:showpageshadow="2"
     inkscape:pageopacity="0.0"
     inkscape:pagecheckerboard="0"
     inkscape:deskcolor="#d1d1d1"
     fit-margin-top="5"
     fit-margin-left="5"
     fit-margin-right="5"
     fit-margin-bottom="5" />
  <g
     transform="translate(47.841016,31.05)"
     id="g1">
    <use
       ffdec:characterId="17"
       height="119.15"
       id="rarity"
       transform="translate(-58.5,-60.65)"
       width="119.15"
       xlink:href="#sprite0" />
    <use
       ffdec:characterId="757"
       height="54.799999"
       transform="translate(-47.85,-31.05)"
       width="96.849998"
       xlink:href="#shape0"
       id="use1" />
  </g>
  <defs
     id="defs4">
    <g
       id="shape0"
       transform="translate(48.4,31.8)">
      <path
         d="m 42.6,-7.1 1.9,-4.9 q -2.4,-6.45 -7.35,-11.35 -2.4,-2.4 -5.75,-3.4 -1.5,-0.45 -2.7,-1.5 l -0.45,-0.1 -0.5,-0.05 q -3.65,-0.05 -7.1,1.1 l -2.1,0.9 -0.05,0.25 -0.05,0.2 -0.05,0.2 -0.05,0.45 -0.25,0.65 -0.15,0.2 v 0.2 0.2 0.45 l -0.15,0.85 q -0.15,0.5 -0.5,0.85 0.1,1.45 -0.5,2.7 l -0.6,1 -0.4,0.5 q -1.5,1.6 -4.05,2.15 l -2.2,0.7 -0.3,3.2 -0.05,1.9 -0.45,6.9 v 0.4 Q 24.4,-3 40.65,-2.2 l 0.9,-2.55 1.05,-2.35 M 26.15,-15.55 19.75,-16 q -0.55,0.05 -0.85,-0.45 l -0.05,-0.15 -0.05,-0.05 v -0.25 l 0.05,-0.4 0.05,-0.2 2.4,-0.65 q 3.75,-0.95 7.7,-1.1 1.45,0.15 2.6,1.15 l 0.8,0.7 q 0.75,1.4 0.65,3.05 l -0.1,1.15 -0.55,2.05 -0.4,2.6 -1.1,2.95 -0.3,0.2 -0.55,0.15 -0.15,0.05 q -2.1,-2.25 -1.35,-5.6 0.45,-1.85 0.5,-3.8 l -2.9,-0.95 m 6.5,20.95 q 2.65,4.85 1.45,9.65 l -0.75,1 -5.55,3.4 q -2.35,1.05 -5.15,1.3 L 4.6,19.95 q -0.7,-0.15 -0.75,-0.8 -0.3,-2.4 0.3,-4.9 L 4.65,12.5 V 12.3 L 4.7,11.9 4.8,11.25 q 0.1,-0.5 0.35,-0.9 0,-3.65 3.95,-5.1 3.6,-1.35 7.25,-2.3 L 18.45,2.45 7.15,3.1 Q 3.15,3.45 3.6,-0.2 L 3.9,-0.85 V -3 L 3.85,-4.95 q -0.1,-1.1 0.4,-2.15 -0.2,-4.25 0.25,-8.4 0.25,-2.25 2.35,-3.15 l 6.2,-2.6 q -0.1,-5.1 3.45,-8.15 0.5,-0.4 1.25,-0.65 5.4,-1.7 11.1,-1 l 0.85,-0.5 0.9,-0.25 q 6.4,1.35 10.9,5.95 1.35,1.45 2.2,3.2 4.8,5.55 4.75,12.65 0,1.15 -0.45,2.2 -2.3,5.25 -4.8,10.05 -0.35,0.65 -1.3,0.6 L 29.95,2.35 q 1.6,1 2.7,3.05 M 8.9,11.85 8.8,12.55 8.1,15.1 Q 8,15.5 8.05,15.95 l 18.5,-0.15 1.15,-1.1 1.45,-1.2 1.2,-1.15 L 29.9,11.5 29.65,10.85 29.35,9.6 Q 29.1,9.2 29.2,8.7 L 29.05,8.5 28.85,8.3 28.65,7.85 28.55,7.45 28.5,7.2 28.4,7.05 28.15,6.8 27.75,6.35 27.7,6.2 26,5.95 23.35,6 17.15,6.95 15.8,8.2 q -0.45,0.45 -0.6,0.95 v 1.95 l -0.4,1.7 -0.2,0.15 -0.5,0.15 Q 13.35,12.05 13.05,10.8 L 12.9,9 12.55,8.35 Q 12.4,7.7 12.55,7.1 l -1,0.55 Q 10.65,8.25 9.7,8.8 9.25,9.1 9.15,9.5 l -0.1,1.3 -0.15,1.05 m -26.5,-38.1 q 6,-1.4 8.3,3.5 l 1.1,2.85 q 3.75,5.15 6.5,10.7 0.45,0.9 0.6,2 L 1,7.35 q 1.55,5.25 -4.25,6.85 -8.55,2.3 -14.4,8.5 l -0.8,0.3 q -8.2,0 -15.55,-3.45 -2.45,-1.2 -1.45,-3.95 -4.55,1.35 -9.45,0.65 -0.85,-0.15 -1.05,-1.1 -0.45,-2 -0.5,-4.05 L -46.6,10.85 -46.85,10 V 8.5 8.3 q -0.9,-2.6 -1.4,-5.3 -0.95,-5.5 4.5,-7.35 -0.8,-8.05 2.25,-15.3 0.35,-0.85 1.3,-1.1 11.25,-3.25 22.6,-5.5 M -6.25,-8 q -0.75,-1.8 -1.9,-3.3 -3.65,-4.55 -6.15,-9.75 -1.15,-1.1 -3.05,-0.2 -7.95,1.65 -15.8,3.85 l -2.45,0.85 -0.6,0.25 -0.95,0.4 -0.45,0.2 -0.45,0.2 -0.15,1.3 -0.3,3 -0.05,1.1 -0.05,0.4 -0.25,4.8 q 1.65,-0.85 3.75,-0.85 l 2,-0.1 2.3,0.25 q 0.5,0.05 0.8,0.5 l 0.05,0.65 -0.1,0.2 -0.1,0.25 -1.1,0.35 -7.8,2.3 -0.65,0.55 q -1.7,0.8 -3.25,1.8 -0.2,1.45 0.2,3 l 0.5,1.85 0.25,1.6 q 0.35,2.15 0.4,4.3 4.65,-1.25 9.45,-1.75 0.7,-0.1 1,0.6 1.9,-0.45 3.65,-1.45 0,-1.55 -0.3,-3.05 l -0.3,-1.25 q -0.4,-1.3 -0.2,-2.55 l 0.15,-0.2 0.2,-0.25 0.3,-0.15 0.55,-0.2 0.5,0.15 0.55,0.65 q 2.15,2.95 2,6.85 -0.05,1.45 -0.6,2.8 -2.95,1.5 -5.9,2.2 l -0.2,1.5 q 5.5,2.7 11.9,2 4.2,-3 8.85,-5.35 L -2.9,8.8 -5,-3.5 Q -5.4,-5.7 -6.15,-7.8 L -6.25,-8 m -18.2,2.45 2.5,-0.3 1.05,0.15 0.7,0.25 0.05,0.25 0.05,0.35 -0.05,0.05 -0.15,0.45 -3.75,1.35 -1.25,0.5 h -0.45 l -0.55,-0.05 -0.25,-0.25 -0.35,-0.45 -0.1,-0.2 v -0.2 -0.4 l 0.15,-0.45 q 1.1,-0.75 2.4,-1.05"
         fill="#000000"
         fill-rule="evenodd"
         stroke="none"
         id="path1" />
      <path
         d="m 16.2,-18.2 0.6,-1 q 0.6,-1.25 0.5,-2.7 0.35,-0.35 0.5,-0.85 l 0.15,-0.85 v -0.45 -0.2 -0.2 l 0.15,-0.2 0.25,-0.65 0.05,-0.45 0.05,-0.2 0.05,-0.2 0.05,-0.25 2.1,-0.9 q 3.45,-1.15 7.1,-1.1 l 0.5,0.05 0.45,0.1 q 1.2,1.05 2.7,1.5 3.35,1 5.75,3.4 4.95,4.9 7.35,11.35 l -1.9,4.9 q -2.7,1.45 -4.85,-0.8 l -4.8,-5.3 0.1,-1.15 Q 33.15,-16 32.4,-17.4 l -0.8,-0.7 q -1.15,-1 -2.6,-1.15 -3.95,0.15 -7.7,1.1 l -2.4,0.65 -0.05,0.2 -0.05,0.4 v 0.25 l 0.05,0.05 0.05,0.15 q 0.3,0.5 0.85,0.45 l 6.4,0.45 0.85,1.15 q 0.5,0.85 -0.05,1.7 -2.8,4.15 -8.25,4.65 -4.1,0.35 -8,-0.9 -0.95,-0.3 -1.5,-0.8 l 0.05,-1.9 0.3,-3.2 2.2,-0.7 q 2.55,-0.55 4.05,-2.15 l 0.5,-0.1 -0.1,-0.4 M 26,5.95 q 1.3,1.35 0.7,4 -0.3,1.15 -1.4,1.7 Q 17.9,15.5 9.65,12.5 L 8.9,11.85 9.05,10.8 9.15,9.5 Q 9.25,9.1 9.7,8.8 10.65,8.25 11.55,7.65 l 1,-0.55 q -0.15,0.6 0,1.25 L 12.9,9 l 0.15,1.8 q 0.3,1.25 1.05,2.3 l 0.5,-0.15 0.2,-0.15 0.4,-1.7 V 9.15 Q 15.35,8.65 15.8,8.2 L 17.15,6.95 23.35,6 26,5.95 m -64.55,-16.05 0.05,-1.1 0.3,-3 0.15,-1.3 0.45,-0.2 0.45,-0.2 0.95,-0.4 0.6,-0.25 2.45,-0.85 q 7.85,-2.2 15.8,-3.85 1.9,-0.9 3.05,0.2 2.5,5.2 6.15,9.75 1.15,1.5 1.9,3.3 -0.6,4.6 -6.6,4 l -7.25,-0.85 -0.05,-0.35 -0.05,-0.25 -0.7,-0.25 -1.05,-0.15 -2.5,0.3 -9.3,-1.9 q -2.7,-0.65 -3.85,-1.95 l -0.95,-0.7 m 12.5,12.4 -0.55,-0.65 -0.5,-0.15 -0.55,0.2 -0.3,0.15 -0.2,0.25 -0.15,0.2 q -0.2,1.25 0.2,2.55 l 0.3,1.25 -1.3,0.75 -6.15,0.15 q -4.05,1 -7,-1.15 L -42.75,4 q -0.4,-1.55 -0.2,-3 1.55,-1 3.25,-1.8 l 0.65,-0.55 7.8,-2.3 q 1.9,0.3 3.25,1.75 0.7,0.7 0.65,1.75 1,1.3 1.3,2.45"
         fill="#4a4a4a"
         fill-rule="evenodd"
         stroke="none"
         id="path2" />
      <path
         d="m 9.2,-9.75 q 0.55,0.5 1.5,0.8 3.9,1.25 8,0.9 5.45,-0.5 8.25,-4.65 0.55,-0.85 0.05,-1.7 l -0.85,-1.15 2.9,0.95 q -0.05,1.95 -0.5,3.8 -0.75,3.35 1.35,5.6 l 0.15,-0.05 0.55,-0.15 0.3,-0.2 1.1,-2.95 0.4,-2.6 0.55,-2.05 4.8,5.3 q 2.15,2.25 4.85,0.8 l -1.05,2.35 -0.9,2.55 Q 24.4,-3 8.75,-2.45 v -0.4 l 0.45,-6.9 m 16.8,15.7 1.7,0.25 0.05,0.15 0.4,0.45 0.25,0.25 0.1,0.15 0.05,0.25 0.1,0.4 0.2,0.45 0.2,0.2 0.15,0.2 q -0.1,0.5 0.15,0.9 l 0.3,1.25 0.25,0.65 0.45,0.85 -1.2,1.15 -1.45,1.2 -1.15,1.1 -18.5,0.15 Q 8,15.5 8.1,15.1 l 0.7,-2.55 0.1,-0.7 0.75,0.65 q 8.25,3 15.65,-0.85 1.1,-0.55 1.4,-1.7 0.6,-2.65 -0.7,-4 m -64.55,-16.05 0.95,0.7 q 1.15,1.3 3.85,1.95 l 9.3,1.9 q -1.3,0.3 -2.4,1.05 L -27,-4.05 v 0.4 0.2 l 0.1,0.2 0.35,0.45 0.25,0.25 0.55,0.05 h 0.45 l 1.25,-0.5 3.75,-1.35 0.15,-0.45 0.05,-0.05 7.25,0.85 q 6,0.6 6.6,-4 l 0.1,0.2 q 0.75,2.1 1.15,4.3 l 2.1,12.3 -7.1,3.5 q -4.65,2.35 -8.85,5.35 -6.4,0.7 -11.9,-2 l 0.2,-1.5 q 2.95,-0.7 5.9,-2.2 0.55,-1.35 0.6,-2.8 0.15,-3.9 -2,-6.85 -0.3,-1.15 -1.3,-2.45 0.05,-1.05 -0.65,-1.75 -1.35,-1.45 -3.25,-1.75 l 1.1,-0.35 0.1,-0.25 0.1,-0.2 L -30,-5.1 q -0.3,-0.45 -0.8,-0.5 l -2.3,-0.25 -2,0.1 q -2.1,0 -3.75,0.85 l 0.25,-4.8 0.05,-0.4 M -27.8,6.1 q 0.3,1.5 0.3,3.05 -1.75,1 -3.65,1.45 -0.3,-0.7 -1,-0.6 -4.8,0.5 -9.45,1.75 -0.05,-2.15 -0.4,-4.3 l -0.25,-1.6 q 2.95,2.15 7,1.15 l 6.15,-0.15 1.3,-0.75"
         fill="#303030"
         fill-rule="evenodd"
         stroke="none"
         id="path3" />
    </g>
    <g
       id="sprite1"
       transform="translate(17.4,15.85)">
      <use
         ffdec:characterId="31"
         height="57.200001"
         transform="matrix(0.5366,0,0,0.5366,-16.6582,-14.546)"
         width="70.75"
         xlink:href="#sprite2"
         id="use3" />
    </g>
    <g
       id="sprite2"
       transform="translate(-8.65,-10.35)">
      <use
         ffdec:characterId="30"
         height="57.200001"
         transform="translate(8.65,10.35)"
         width="70.75"
         xlink:href="#shape1"
         id="use4" />
    </g>
    <g
       id="shape1"
       transform="translate(-8.65,-10.35)">
      <path
         d="m 14.8,41.7 q 0.65,-1.75 2.65,-2.5 1.8,-0.8 3.7,-0.25 1.15,0.45 2.25,1.2 l 0.9,0.4 q 1.65,0.9 2.85,2.5 L 37.8,30.1 q 2.35,-2.8 3.75,-3.95 1.5,-1.15 4.25,-2.4 18.2,-8.85 27.65,-12.6 2.15,-0.8 3.25,-0.8 h 0.8 l 1.9,2.4 -0.2,0.8 q -0.2,1.1 -1.55,3 -5.85,8.25 -18.85,23.8 -1.85,2.35 -3.35,3.5 -1.4,1.15 -4.75,2.75 l -15.15,7.15 q 1.2,1.6 1.75,3.4 l 0.2,1 0.55,2.5 q 0.1,1.95 -1.1,3.55 -1.2,1.65 -3.05,1.9 l -1.3,0.05 q -1.65,0.2 -3.45,-0.65 -1.85,-0.9 -3,-2.6 L 25,60.95 23.8,62.1 q -2.6,2.85 -4.3,3.95 -2.85,1.8 -5.5,1.45 l -1.65,-0.5 -1.2,-0.7 -0.2,-0.2 q -1,-0.85 -1.6,-1.9 L 9.25,64 9.15,63.8 8.75,62.4 q -0.2,-0.8 -0.05,-1.7 0.25,-2.65 2.7,-5.05 1.5,-1.3 4.9,-3.15 L 17.7,51.55 16.05,50 q -1.35,-1.5 -1.8,-3.6 -0.4,-1.85 0.25,-3.45 l 0.3,-1.25"
         fill="#000000"
         fill-opacity="0.372549"
         fill-rule="evenodd"
         stroke="none"
         id="path4" />
    </g>
  </defs>
</svg>
