<?xml version="1.0" encoding="UTF-8" standalone="no"?>
<svg
   ffdec:objectType="frame"
   height="87.805"
   width="51.278175"
   version="1.1"
   id="svg4"
   xmlns:xlink="http://www.w3.org/1999/xlink"
   xmlns="http://www.w3.org/2000/svg"
   xmlns:svg="http://www.w3.org/2000/svg"
   xmlns:ffdec="https://www.free-decompiler.com/flash">
  <g
     transform="translate(25.459211,46.7)"
     id="g1">
    <use
       ffdec:characterId="17"
       height="119.15"
       id="rarity"
       transform="translate(-58.5,-60.65)"
       width="119.15"
       xlink:href="#sprite0" />
    <use
       ffdec:characterId="506"
       height="87.800003"
       transform="translate(-25.45,-46.7)"
       width="51.25"
       xlink:href="#shape0"
       id="use1" />
  </g>
  <defs
     id="defs4">
    <g
       id="shape0"
       transform="translate(25.05,45.9)">
      <path
         d="M 3.6,-11.85 Q 3.45,-8.8 0.7,-7.65 L 0.85,-6.6 H 2 l 2.1,-0.4 4.25,-0.35 13.1,0.6 q 3.05,0.2 3.1,2.7 2.2,5.7 1.5,12.3 L 25.5,12.4 25.2,16.3 Q 24.85,19.55 23.15,22.5 19.1,33.2 10.1,39.8 L 8.95,41.5 Q 8.65,41.95 8,41.9 l -21.2,-1.7 q -0.75,-0.05 -1.15,-0.75 -1.9,-3.35 -3,-7 L -17.6,32 -17.85,31.35 -17.9,30.95 Q -20.35,25 -22.2,18.85 l -1.3,-4.65 q -1.6,-3.75 -1.45,-7.75 l 0.05,-0.3 q -0.55,-1.85 0.8,-3.45 3.1,-3.45 5.8,-7.2 0.6,-0.8 1.6,-0.9 L -5.95,-6.45 -6,-8.5 v -0.35 q -3.6,-2.15 -0.95,-6.8 0.7,-1.2 1.7,-1.95 -1.65,-2.75 -0.5,-6.65 0.2,-0.8 1,-1.15 l 7.3,-3.45 2,-1.15 q 0.95,-2.1 -0.2,-4.15 -1.65,-2.9 -5.1,-2.75 l -3.8,0.25 -0.25,0.2 -0.6,0.4 -0.85,0.45 -0.2,0.25 -0.1,0.2 -0.1,0.2 -0.1,0.2 -0.15,0.25 q 1.45,6.1 -4.05,6.8 -4.9,0.6 -5.85,-4.05 -0.6,-2.9 0.8,-5.6 3.95,-7.3 12.2,-8.55 12.6,0.55 16.1,12.1 0.4,1.25 0.25,2.65 -1.05,9 -10.15,9.75 -1.45,0.15 -2.65,0.9 l 0.05,0.7 0.45,1.65 q 3.65,1.4 3.35,6.3 m -10.7,11 q -4.05,0.2 -7.95,1.25 l -0.5,0.85 -0.65,0.8 -0.75,1.35 q 14.4,-0.3 29.8,0.5 l 2.25,-2.95 1.15,-1.6 0.7,-1.05 0.25,-0.3 -8.05,-0.1 -8.7,0.85 0.05,0.4 q 0.15,1.3 -0.5,2.4 -3.85,1.8 -4.55,-2.3 v -0.2 l -2.55,0.1 M 17.7,9.9 q -0.25,5.95 -1.25,11.8 l -1.15,5.35 -0.2,1 q 3.4,-5.15 5.4,-11 l 0.25,-2.15 q 0.1,-0.9 0.55,-1.7 l -0.05,-2.8 0.1,-2.15 Q 20.85,6.1 20.85,3.9 19.95,4.8 18.8,5.5 l -0.45,0.05 -0.6,0.7 Q 18.7,7.8 17.7,9.9 m -21.85,6.15 -1.25,0.65 -0.7,0.4 -0.45,0.6 q -0.25,0.55 -0.6,0.9 l -0.15,0.65 q -0.05,0.6 -0.45,1.1 l -0.15,0.2 -0.05,0.65 -0.05,1.05 0.05,0.45 q 1.15,1.2 2.75,1.95 l 0.75,0.4 2.35,0.1 q 2.25,-1.3 3.45,-3.5 l 0.4,-1.45 q -0.6,-3.05 -3.5,-4.15 -1.2,-0.5 -2.4,0 M -18.7,9.65 q 1.4,6.25 3.75,12.25 l 4.9,12.75 16.2,1.15 q 5.1,-11.45 5.5,-24.05 l 0.3,-2.1 Q -3.45,8.95 -18.8,9.2 l 0.1,0.45 M -4.65,12.2 Q 4.5,11.85 5,20.55 q 0.25,3.8 -3,6.15 -1.45,1 -3.1,1.7 -4.55,2 -8.45,-1.1 -4.2,-3.3 -2.15,-8.75 1.9,-5.05 7.05,-6.35"
         fill="#000000"
         fill-rule="evenodd"
         stroke="none"
         id="path1" />
      <path
         d="m -4.15,16.05 q 1.2,-0.5 2.4,0 2.9,1.1 3.5,4.15 l -0.4,1.45 q -1.2,2.2 -3.45,3.5 l -2.35,-0.1 -0.75,-0.4 Q -6.8,23.9 -7.95,22.7 L -8,22.25 l 0.05,-1.05 0.05,-0.65 0.15,-0.2 q 0.4,-0.5 0.45,-1.1 l 0.15,-0.65 q 0.35,-0.35 0.6,-0.9 l 0.45,-0.6 0.7,-0.4 1.25,-0.65"
         fill="#48413f"
         fill-rule="evenodd"
         stroke="none"
         id="path2" />
      <path
         d="m 17.7,9.9 q 1,-2.1 0.05,-3.65 l 0.6,-0.7 0.45,-0.05 q 1.15,-0.7 2.05,-1.6 0,2.2 0.5,4.35 l -0.1,2.15 0.05,2.8 q -0.45,0.8 -0.55,1.7 l -0.25,2.15 q -2,5.85 -5.4,11 l 0.2,-1 1.15,-5.35 q 1,-5.85 1.25,-11.8 m -24.8,-10.75 2.55,-0.1 v 0.2 q 0.7,4.1 4.55,2.3 0.65,-1.1 0.5,-2.4 l -0.05,-0.4 8.7,-0.85 8.05,0.1 -0.25,0.3 -0.7,1.05 -1.15,1.6 -2.25,2.95 Q -2.55,3.1 -16.95,3.4 l 0.75,-1.35 0.65,-0.8 0.5,-0.85 q 3.9,-1.05 7.95,-1.25 m 2.45,13.05 q -5.15,1.3 -7.05,6.35 -2.05,5.45 2.15,8.75 3.9,3.1 8.45,1.1 Q 0.55,27.7 2,26.7 5.25,24.35 5,20.55 4.5,11.85 -4.65,12.2 M -18.7,9.65 -18.8,9.2 Q -3.45,8.95 11.95,9.65 l -0.3,2.1 q -0.4,12.6 -5.5,24.05 l -16.2,-1.15 -4.9,-12.75 q -2.35,-6 -3.75,-12.25"
         fill="#746c69"
         fill-rule="evenodd"
         stroke="none"
         id="path3" />
    </g>
    <g
       id="sprite1"
       transform="translate(17.4,15.85)">
      <use
         ffdec:characterId="31"
         height="57.200001"
         transform="matrix(0.5366,0,0,0.5366,-16.6582,-14.546)"
         width="70.75"
         xlink:href="#sprite2"
         id="use3" />
    </g>
    <g
       id="sprite2"
       transform="translate(-8.65,-10.35)">
      <use
         ffdec:characterId="30"
         height="57.200001"
         transform="translate(8.65,10.35)"
         width="70.75"
         xlink:href="#shape1"
         id="use4" />
    </g>
    <g
       id="shape1"
       transform="translate(-8.65,-10.35)">
      <path
         d="m 14.8,41.7 q 0.65,-1.75 2.65,-2.5 1.8,-0.8 3.7,-0.25 1.15,0.45 2.25,1.2 l 0.9,0.4 q 1.65,0.9 2.85,2.5 L 37.8,30.1 q 2.35,-2.8 3.75,-3.95 1.5,-1.15 4.25,-2.4 18.2,-8.85 27.65,-12.6 2.15,-0.8 3.25,-0.8 h 0.8 l 1.9,2.4 -0.2,0.8 q -0.2,1.1 -1.55,3 -5.85,8.25 -18.85,23.8 -1.85,2.35 -3.35,3.5 -1.4,1.15 -4.75,2.75 l -15.15,7.15 q 1.2,1.6 1.75,3.4 l 0.2,1 0.55,2.5 q 0.1,1.95 -1.1,3.55 -1.2,1.65 -3.05,1.9 l -1.3,0.05 q -1.65,0.2 -3.45,-0.65 -1.85,-0.9 -3,-2.6 L 25,60.95 23.8,62.1 q -2.6,2.85 -4.3,3.95 -2.85,1.8 -5.5,1.45 l -1.65,-0.5 -1.2,-0.7 -0.2,-0.2 q -1,-0.85 -1.6,-1.9 L 9.25,64 9.15,63.8 8.75,62.4 q -0.2,-0.8 -0.05,-1.7 0.25,-2.65 2.7,-5.05 1.5,-1.3 4.9,-3.15 L 17.7,51.55 16.05,50 q -1.35,-1.5 -1.8,-3.6 -0.4,-1.85 0.25,-3.45 l 0.3,-1.25"
         fill="#000000"
         fill-opacity="0.372549"
         fill-rule="evenodd"
         stroke="none"
         id="path4" />
    </g>
  </defs>
</svg>
