<?xml version="1.0" encoding="UTF-8" standalone="no"?>
<svg
   ffdec:objectType="frame"
   height="76.720779"
   width="93.238968"
   version="1.1"
   id="svg7"
   xmlns:xlink="http://www.w3.org/1999/xlink"
   xmlns="http://www.w3.org/2000/svg"
   xmlns:svg="http://www.w3.org/2000/svg"
   xmlns:ffdec="https://www.free-decompiler.com/flash">
  <g
     transform="translate(46.2125,46.6)"
     id="g1">
    <use
       ffdec:characterId="17"
       height="119.15"
       id="rarity"
       transform="translate(-58.5,-60.65)"
       width="119.15"
       xlink:href="#sprite0" />
    <use
       ffdec:characterId="1321"
       height="76.75"
       transform="translate(-46.2,-46.65)"
       width="93.25"
       xlink:href="#shape0"
       id="use1" />
  </g>
  <defs
     id="defs7">
    <g
       id="shape0"
       transform="translate(44.9,44.75)">
      <path
         d="m -22.25,-9.9 q -6.55,5.5 -10.5,13 -3.1,6.15 -4.95,12.65 8.95,-0.6 17.7,2 l 1,0.25 q 9.15,0.65 17.6,-2.95 1.7,-0.7 3.5,-1.3 L 5,12.1 q 3.25,-2 5.55,-5.05 L 13.75,1.95 13.8,1.8 V 1.65 l 0.15,-0.4 q 3.5,-5.8 3.4,-12.65 v -1.8 l -1.55,-0.15 -3.5,1.05 -4.25,1.65 -2,0.65 q 0.3,1.45 0.1,2.2 L 5.5,-6.6 4.7,-6.1 Q 4,-6 3.8,-7 l -0.15,-0.85 -0.4,-0.5 -1,-1.05 -0.2,-0.25 q -1.5,-0.2 -2.75,-0.9 l -1.6,-0.65 -1.35,0.5 q 0.35,1.3 -0.15,4.15 -0.2,1.2 -0.65,1.6 -0.3,0.35 -0.8,0.35 -0.5,0 -0.75,-0.35 L -6.1,-6 q 0.25,-2.65 -1.6,-4.5 l -1.15,-1.15 q -0.35,-0.55 -0.35,-1.3 l 0.05,-0.25 -1.25,-1.1 q -1.2,-0.85 -2.55,-1.05 -5,1.9 -9.3,5.45 m 51.1,-12.15 3.65,-0.15 q 3.4,0.6 4.6,3.75 l 1.15,3.95 0.15,0.15 q 0.95,1.1 1.1,2.65 0.3,2.15 -0.6,4.05 l -0.9,1.6 q -1.6,2.9 -1.3,6.3 2.2,0.2 3.15,0.65 1.8,0.8 2,2.35 L 42.8,3 43.7,2.45 q 1,-0.6 2.2,-0.4 1.2,0.2 1.85,1.15 0.7,0.9 0.55,2.15 -0.15,1.15 -0.9,1.8 -0.3,6.4 -4.9,12.15 -6.3,7.75 -16.6,6.95 L 25.25,26.2 24,27.5 q -5.3,5.9 -13.65,4.1 -3.1,-0.75 -6.3,0.05 -2.6,0.55 -5.25,0 -2.35,-0.5 -4.35,-1.6 L -6.65,29.6 -8,28.95 q -2.7,-1 -5.25,-2.55 -1,-0.6 -1.55,-1.6 l -5.55,-0.15 q -4.6,-0.7 -9.1,-2.1 -3.45,-1.05 -6.8,0 l -6.65,0.3 q -1.05,-0.2 -1.45,-1.25 -0.75,-2.05 -0.5,-4.3 l 0.4,-1.25 q 0.05,-4.05 1.6,-7.9 l 3.85,-8.5 q 6.35,-13.3 19.15,-19.8 l -0.05,-0.05 -1.15,0.25 -1.85,0.4 -1.9,0.2 q -0.85,-0.1 -3.05,-0.85 -1.4,-0.6 -1.95,-1.1 -0.7,-0.7 -1.1,-2.45 l -0.35,-2.2 q -0.05,-0.95 0.45,-2.95 l 0.45,-1.2 0.9,-1.3 1.3,-1.35 2.1,-1.3 1.45,-0.55 1.75,-0.1 2.25,0.1 q 1.45,0.25 2.6,1.1 l 0.2,0.2 v -0.05 l 0.95,-2.25 q 1.25,-2 3.25,-3.5 2.4,-1.65 4.95,-1.6 1.35,0.05 2.5,0.65 1.25,0.65 1.9,1.8 l 0.6,1.25 0.45,1.3 0.1,1.7 -0.1,1.65 -0.1,1.6 -0.9,2.05 -1.2,1.8 -1.45,1.3 q -2.45,1.95 -4.15,2.8 l -0.2,1.15 -0.1,0.4 1.15,0.55 q 2.15,1.25 4.05,4.25 0.6,0.8 0.95,0.85 0.4,0.1 1.2,-0.3 L 0,-16.05 q 1.5,0.8 2.35,1.05 1.4,0.35 4.05,-0.65 l 5.85,-2.4 q 3.35,-1.25 6,-1.3 h 0.3 q 5.2,-1.2 10.3,-2.7 m -16.6,35.4 1.45,0.75 1.7,-0.05 q 7.95,-1.6 12.45,-8.2 1.9,-2.9 3.05,-6.2 Q 33.5,-8.3 30.75,-16 l -9.8,2.3 -1.05,0.3 q 0.3,2.45 0.05,5 -0.15,1.55 -0.75,2.85 -0.45,2.65 -1.5,5.1 L 16.8,1.4 q -2.9,6.7 -7.9,11.05 1.7,0.15 3.35,0.9 m 17.4,0.1 q -3,3.15 -7,5.1 l -0.15,0.1 q 5.1,2.85 11.2,0 5.15,-2.45 7,-8 L 41.15,9.1 39.65,8.65 Q 38.4,8.05 37.75,6.95 L 36.95,5.9 35.85,5.65 H 35.3 q -2.15,4.15 -5.65,7.8 M 7.5,19.05 q -0.85,-0.35 -1.75,0 -6.15,2.5 -12.55,4.15 v 0.15 l 1.9,1.2 q 5.3,2 10.8,0.15 l 3.7,-0.15 5.2,1.3 1.95,-0.15 2.85,-1.45 q -2.2,-1.4 -3.7,-3.75 -4.15,0.25 -8.4,-1.45 m -16.75,-47.6 q 1.9,-1.6 2.3,-2.65 l 0.3,-1.3 q 0.1,-1.85 -0.5,-3.1 -0.4,-0.95 -1.05,-1.15 l -1.15,0.1 q -3.15,0.95 -4.1,3.55 -0.35,1.05 -0.3,2.85 l 0.05,2.55 1.7,1.15 2.75,-2 m -8.9,1.25 h 0.1 l -1.1,-1.6 q -1.3,-1.3 -2.45,-1.5 h -0.95 q -2.25,0.15 -3.4,2.05 -0.6,1 -0.6,2.2 l 0.2,1.05 q 0.5,0.9 1.8,1 l 2.15,-0.3 1.85,-0.25 q 0.65,-1.65 2.4,-2.65"
         fill="#000000"
         fill-rule="evenodd"
         stroke="none"
         id="path1" />
      <path
         d="m -13.7,-11.5 q 4.9,-0.1 3.75,4.1 -0.3,1.15 -1.05,2.1 -3.75,4.85 -9.6,5.35 -1.35,0.15 -2,-1 -1.05,-1.9 -0.6,-3.9 2.9,-4.3 7.75,-6.2 l 1.75,-0.45 m -13,14.25 q 1,0 1.55,0.8 l 0.35,0.65 q -0.6,3.4 -3.3,1 -0.45,-0.4 -0.3,-1.05 0.25,-0.9 1.1,-1.25 L -27.15,2.85 -26.7,2.8 V 2.75"
         fill="#ffffff"
         fill-rule="evenodd"
         stroke="none"
         id="path2" />
      <path
         d="m -18.15,-27.3 q -1.75,1 -2.4,2.65 l -1.85,0.25 -2.15,0.3 q -1.3,-0.1 -1.8,-1 l -0.2,-1.05 q 0,-1.2 0.6,-2.2 1.15,-1.9 3.4,-2.05 h 0.95 q 1.15,0.2 2.45,1.5 l 1.1,1.6 h -0.1 m 8.9,-1.25 -2.75,2 -1.7,-1.15 -0.05,-2.55 q -0.05,-1.8 0.3,-2.85 0.95,-2.6 4.1,-3.55 l 1.15,-0.1 q 0.65,0.2 1.05,1.15 0.6,1.25 0.5,3.1 l -0.3,1.3 q -0.4,1.05 -2.3,2.65"
         fill="#ffffff"
         fill-opacity="0.498039"
         fill-rule="evenodd"
         stroke="none"
         id="path3" />
      <path
         d="m 7.5,19.05 q 4.25,1.7 8.4,1.45 1.5,2.35 3.7,3.75 L 16.75,25.7 14.8,25.85 9.6,24.55 5.9,24.7 Q 0.4,26.55 -4.9,24.55 l -1.9,-1.2 V 23.2 q 6.4,-1.65 12.55,-4.15 0.9,-0.35 1.75,0"
         fill="#476247"
         fill-rule="evenodd"
         stroke="none"
         id="path4" />
      <path
         d="m -22.25,-9.9 q 4.3,-3.55 9.3,-5.45 1.35,0.2 2.55,1.05 l 1.25,1.1 -0.05,0.25 q 0,0.75 0.35,1.3 l 1.15,1.15 q 1.85,1.85 1.6,4.5 l 0.1,1.05 q 0.25,0.35 0.75,0.35 0.5,0 0.8,-0.35 0.45,-0.4 0.65,-1.6 0.5,-2.85 0.15,-4.15 l 1.35,-0.5 1.6,0.65 q 1.25,0.7 2.75,0.9 l 0.2,0.25 1,1.05 0.4,0.5 L 3.8,-7 q 0.2,1 0.9,0.9 l 0.8,-0.5 0.65,-1.2 q 0.2,-0.75 -0.1,-2.2 l 2,-0.65 4.25,-1.65 3.5,-1.05 1.55,0.15 v 1.8 q 0.1,6.85 -3.4,12.65 L 13.8,1.65 V 1.8 l -0.05,0.15 -3.2,5.1 Q 8.25,10.1 5,12.1 l -2.9,1.65 q -1.8,0.6 -3.5,1.3 -8.45,3.6 -17.6,2.95 l -1,-0.25 q -8.75,-2.6 -17.7,-2 1.85,-6.5 4.95,-12.65 3.95,-7.5 10.5,-13 m 34.5,23.25 Q 10.6,12.6 8.9,12.45 13.9,8.1 16.8,1.4 l 0.9,-1.85 q 1.05,-2.45 1.5,-5.1 0.6,-1.3 0.75,-2.85 0.25,-2.55 -0.05,-5 l 1.05,-0.3 9.8,-2.3 q 2.75,7.7 0.15,15.65 -1.15,3.3 -3.05,6.2 -4.5,6.6 -12.45,8.2 l -1.7,0.05 -1.45,-0.75 m 17.4,0.1 q 3.5,-3.65 5.65,-7.8 h 0.55 l 1.1,0.25 0.8,1.05 q 0.65,1.1 1.9,1.7 l 1.5,0.45 -0.45,1.55 q -1.85,5.55 -7,8 -6.1,2.85 -11.2,0 l 0.15,-0.1 q 4,-1.95 7,-5.1 M -26.7,2.75 V 2.8 l -0.45,0.05 -0.15,0.05 q -0.85,0.35 -1.1,1.25 -0.15,0.65 0.3,1.05 2.7,2.4 3.3,-1 l -0.35,-0.65 q -0.55,-0.8 -1.55,-0.8 m 13,-14.25 -1.75,0.45 q -4.85,1.9 -7.75,6.2 -0.45,2 0.6,3.9 0.65,1.15 2,1 5.85,-0.5 9.6,-5.35 0.75,-0.95 1.05,-2.1 1.15,-4.2 -3.75,-4.1"
         fill="#5f7e5f"
         fill-rule="evenodd"
         stroke="none"
         id="path5" />
      <path
         d="m 25.15,-36.85 -0.7,0.85 -0.15,0.3 q -0.05,0.2 0.25,0.5 1.25,1.25 1.7,2.95 0.5,2.05 -0.35,3.55 l -1.1,1.25 -1.15,1 -0.2,0.7 -0.8,1 q -0.55,0.4 -1.2,0.35 -0.8,-0.1 -1.3,-0.6 -0.45,-0.45 -0.55,-1.4 -0.25,-1.75 1.3,-2.95 0.65,-0.55 2.15,-1.05 L 22.6,-32 22,-33.4 l -0.85,-1.45 -0.1,-1.1 0.2,-1.35 0.95,-1.05 q 1.1,-0.85 2.2,-0.85 l 0.9,0.2 0.5,0.65 q 0.15,0.45 -0.05,0.85 l -0.6,0.65 m -17.1,9.6 q -1.7,-1.2 -2.35,-2.5 -0.6,-1.15 -0.45,-2.5 0.1,-1.3 0.8,-2.45 1.3,-2.2 4,-3.25 1.05,-0.45 1.2,-0.85 0.25,-0.45 0.05,-1.2 -0.4,-1.8 -1.4,-3.15 L 9.6,-43.8 q -0.05,-0.6 0.55,-0.85 l 1.1,-0.05 q 1.55,0.35 2.55,1.95 0.75,1.2 0.9,3.1 0.1,1.6 -0.45,2.75 -0.5,1.05 -2.2,2.5 -1.75,1.5 -2.3,2.45 2.35,1.75 2.95,3.25 0.45,1 0.35,2.5 l -0.25,1.25 -1.25,1.6 q -0.7,1 -1.2,1.3 L 8.7,-21.9 Q 7.8,-22.2 7.5,-23 7.1,-24.35 8.2,-25.75 l 0.4,-0.8 -0.55,-0.7 m 33.95,9.5 -1,-1.35 q -0.2,-0.7 -0.05,-1.55 l 0.3,-1.3 q 0.3,-0.65 1.15,-1.35 l 0.9,-0.55 1.05,0.2 q 0.45,0.35 0.25,1.15 l -0.55,1.15 -0.15,0.6 0.25,0.6 1.45,2.1 1.4,2.45 q 0.5,1.4 0.4,4.45 l -0.15,1.45 q -0.3,1.25 -1.4,2.3 l -1,1.1 q -0.3,0.5 -0.55,2.35 -0.2,1.6 -1.1,2.05 L 42,-1.85 41.05,-2.6 q -0.6,-0.8 -0.7,-2.3 -0.1,-3.05 1.45,-4.35 l 0.95,-0.65 0.75,-0.85 0.15,-0.9 q 0.1,-3.9 -1.65,-6.1"
         fill="#5f7e5f"
         fill-opacity="0.498039"
         fill-rule="evenodd"
         stroke="none"
         id="path6" />
    </g>
    <g
       id="sprite1"
       transform="translate(17.4,15.85)">
      <use
         ffdec:characterId="31"
         height="57.200001"
         transform="matrix(0.5366,0,0,0.5366,-16.6582,-14.546)"
         width="70.75"
         xlink:href="#sprite2"
         id="use6" />
    </g>
    <g
       id="sprite2"
       transform="translate(-8.65,-10.35)">
      <use
         ffdec:characterId="30"
         height="57.200001"
         transform="translate(8.65,10.35)"
         width="70.75"
         xlink:href="#shape1"
         id="use7" />
    </g>
    <g
       id="shape1"
       transform="translate(-8.65,-10.35)">
      <path
         d="m 14.8,41.7 q 0.65,-1.75 2.65,-2.5 1.8,-0.8 3.7,-0.25 1.15,0.45 2.25,1.2 l 0.9,0.4 q 1.65,0.9 2.85,2.5 L 37.8,30.1 q 2.35,-2.8 3.75,-3.95 1.5,-1.15 4.25,-2.4 18.2,-8.85 27.65,-12.6 2.15,-0.8 3.25,-0.8 h 0.8 l 1.9,2.4 -0.2,0.8 q -0.2,1.1 -1.55,3 -5.85,8.25 -18.85,23.8 -1.85,2.35 -3.35,3.5 -1.4,1.15 -4.75,2.75 l -15.15,7.15 q 1.2,1.6 1.75,3.4 l 0.2,1 0.55,2.5 q 0.1,1.95 -1.1,3.55 -1.2,1.65 -3.05,1.9 l -1.3,0.05 q -1.65,0.2 -3.45,-0.65 -1.85,-0.9 -3,-2.6 L 25,60.95 23.8,62.1 q -2.6,2.85 -4.3,3.95 -2.85,1.8 -5.5,1.45 l -1.65,-0.5 -1.2,-0.7 -0.2,-0.2 q -1,-0.85 -1.6,-1.9 L 9.25,64 9.15,63.8 8.75,62.4 q -0.2,-0.8 -0.05,-1.7 0.25,-2.65 2.7,-5.05 1.5,-1.3 4.9,-3.15 L 17.7,51.55 16.05,50 q -1.35,-1.5 -1.8,-3.6 -0.4,-1.85 0.25,-3.45 l 0.3,-1.25"
         fill="#000000"
         fill-opacity="0.372549"
         fill-rule="evenodd"
         stroke="none"
         id="path7" />
    </g>
  </defs>
</svg>
