<?xml version="1.0" encoding="UTF-8" standalone="no"?>
<svg
   ffdec:objectType="frame"
   height="29.780611"
   width="32.589764"
   version="1.1"
   id="svg4"
   sodipodi:docname="ITEM Mini Moon.svg"
   xmlns:inkscape="http://www.inkscape.org/namespaces/inkscape"
   xmlns:sodipodi="http://sodipodi.sourceforge.net/DTD/sodipodi-0.dtd"
   xmlns:xlink="http://www.w3.org/1999/xlink"
   xmlns="http://www.w3.org/2000/svg"
   xmlns:svg="http://www.w3.org/2000/svg"
   xmlns:ffdec="https://www.free-decompiler.com/flash">
  <sodipodi:namedview
     id="namedview4"
     pagecolor="#ffffff"
     bordercolor="#000000"
     borderopacity="0.25"
     inkscape:showpageshadow="2"
     inkscape:pageopacity="0.0"
     inkscape:pagecheckerboard="0"
     inkscape:deskcolor="#d1d1d1"
     fit-margin-top="5"
     fit-margin-left="5"
     fit-margin-right="5"
     fit-margin-bottom="5" />
  <g
     transform="translate(19.01875,16.438028)"
     id="g1">
    <use
       ffdec:characterId="17"
       height="119.15"
       id="rarity"
       transform="translate(-58.5,-60.65)"
       width="119.15"
       xlink:href="#sprite0" />
    <use
       ffdec:characterId="1209"
       height="29.799999"
       transform="translate(-19,-16.45)"
       width="32.549999"
       xlink:href="#shape0"
       id="use1" />
  </g>
  <defs
     id="defs4">
    <g
       id="shape0"
       transform="translate(17.7,14.55)">
      <path
         d="m -2.7,-14.4 q 5.85,-0.7 10.65,2.15 l 1.35,0.95 q 6.2,5.2 5.5,13.35 -0.45,5.5 -4.45,9.2 -1.4,1.3 -3.15,2.1 -9.6,4.15 -18.8,-0.8 -5.25,-2.8 -5.95,-8.45 -1.35,-10.85 8.1,-16.25 3.25,-1.8 6.75,-2.25 m -8.75,13.65 q -0.65,2.05 -0.45,4.3 2.5,5.5 8.95,6.2 Q 2.8,10.35 7.5,7.1 8.4,5.45 8.9,3.65 9.65,0.85 9.15,-2.05 L 8.85,-2.7 8.6,-3.5 Q 8.45,-3.9 8.45,-4.35 7.15,-6.65 4.95,-7.8 l -0.8,-0.4 q -2.4,-1 -5.1,-0.65 -7.1,0.6 -9.9,6.45 l -0.6,1.65"
         fill="#000000"
         fill-rule="evenodd"
         stroke="none"
         id="path1" />
      <path
         d="M 4.95,-7.8 Q 6.1,-6.2 6.2,-3.5 6.3,2 1,4.4 L -5.85,4.6 -8.4,3.25 q -2.65,-1.75 -3.05,-4 l 0.6,-1.65 q 2.8,-5.85 9.9,-6.45 2.7,-0.35 5.1,0.65 l 0.8,0.4"
         fill="#a3a3a3"
         fill-rule="evenodd"
         stroke="none"
         id="path2" />
      <path
         d="m 4.95,-7.8 q 2.2,1.15 3.5,3.45 0,0.45 0.15,0.85 l 0.25,0.8 0.3,0.65 Q 9.65,0.85 8.9,3.65 8.4,5.45 7.5,7.1 2.8,10.35 -2.95,9.75 -9.4,9.05 -11.9,3.55 q -0.2,-2.25 0.45,-4.3 0.4,2.25 3.05,4 L -5.85,4.6 1,4.4 Q 6.3,2 6.2,-3.5 6.1,-6.2 4.95,-7.8"
         fill="#797979"
         fill-rule="evenodd"
         stroke="none"
         id="path3" />
    </g>
    <g
       id="sprite1"
       transform="translate(17.4,15.85)">
      <use
         ffdec:characterId="31"
         height="57.200001"
         transform="matrix(0.5366,0,0,0.5366,-16.6582,-14.546)"
         width="70.75"
         xlink:href="#sprite2"
         id="use3" />
    </g>
    <g
       id="sprite2"
       transform="translate(-8.65,-10.35)">
      <use
         ffdec:characterId="30"
         height="57.200001"
         transform="translate(8.65,10.35)"
         width="70.75"
         xlink:href="#shape1"
         id="use4" />
    </g>
    <g
       id="shape1"
       transform="translate(-8.65,-10.35)">
      <path
         d="m 14.8,41.7 q 0.65,-1.75 2.65,-2.5 1.8,-0.8 3.7,-0.25 1.15,0.45 2.25,1.2 l 0.9,0.4 q 1.65,0.9 2.85,2.5 L 37.8,30.1 q 2.35,-2.8 3.75,-3.95 1.5,-1.15 4.25,-2.4 18.2,-8.85 27.65,-12.6 2.15,-0.8 3.25,-0.8 h 0.8 l 1.9,2.4 -0.2,0.8 q -0.2,1.1 -1.55,3 -5.85,8.25 -18.85,23.8 -1.85,2.35 -3.35,3.5 -1.4,1.15 -4.75,2.75 l -15.15,7.15 q 1.2,1.6 1.75,3.4 l 0.2,1 0.55,2.5 q 0.1,1.95 -1.1,3.55 -1.2,1.65 -3.05,1.9 l -1.3,0.05 q -1.65,0.2 -3.45,-0.65 -1.85,-0.9 -3,-2.6 L 25,60.95 23.8,62.1 q -2.6,2.85 -4.3,3.95 -2.85,1.8 -5.5,1.45 l -1.65,-0.5 -1.2,-0.7 -0.2,-0.2 q -1,-0.85 -1.6,-1.9 L 9.25,64 9.15,63.8 8.75,62.4 q -0.2,-0.8 -0.05,-1.7 0.25,-2.65 2.7,-5.05 1.5,-1.3 4.9,-3.15 L 17.7,51.55 16.05,50 q -1.35,-1.5 -1.8,-3.6 -0.4,-1.85 0.25,-3.45 l 0.3,-1.25"
         fill="#000000"
         fill-opacity="0.372549"
         fill-rule="evenodd"
         stroke="none"
         id="path4" />
    </g>
  </defs>
</svg>
