<?xml version="1.0" encoding="UTF-8" standalone="no"?>
<svg
   ffdec:objectType="frame"
   height="83.721428"
   width="81.718124"
   version="1.1"
   id="svg4"
   sodipodi:docname="ITEM Cerebral Chip.svg"
   xmlns:inkscape="http://www.inkscape.org/namespaces/inkscape"
   xmlns:sodipodi="http://sodipodi.sourceforge.net/DTD/sodipodi-0.dtd"
   xmlns:xlink="http://www.w3.org/1999/xlink"
   xmlns="http://www.w3.org/2000/svg"
   xmlns:svg="http://www.w3.org/2000/svg"
   xmlns:ffdec="https://www.free-decompiler.com/flash">
  <sodipodi:namedview
     id="namedview4"
     pagecolor="#ffffff"
     bordercolor="#000000"
     borderopacity="0.25"
     inkscape:showpageshadow="2"
     inkscape:pageopacity="0.0"
     inkscape:pagecheckerboard="0"
     inkscape:deskcolor="#d1d1d1"
     fit-margin-top="5"
     fit-margin-left="5"
     fit-margin-right="5"
     fit-margin-bottom="5" />
  <g
     transform="translate(44.278125,41.921429)"
     id="g1">
    <use
       ffdec:characterId="17"
       height="119.15"
       id="rarity"
       transform="translate(-58.5,-60.65)"
       width="119.15"
       xlink:href="#sprite0" />
    <use
       ffdec:characterId="1026"
       height="83.75"
       transform="translate(-44.3,-41.9)"
       width="81.75"
       xlink:href="#shape0"
       id="use1" />
  </g>
  <defs
     id="defs4">
    <g
       id="shape0"
       transform="translate(91.1,43.25)">
      <path
         d="m -42.75,-29.7 2.7,-0.35 -0.1,-1.1 -0.3,-3 v -3 l -4.05,0.15 -5.15,0.05 q -0.5,1.4 -1.45,2.15 l -1.2,0.65 -1.3,0.4 q -1.95,0.3 -3.55,-1.1 l -0.65,-0.7 q -0.7,-1.15 -0.45,-3.05 0.1,-1.1 0.4,-1.7 l 1.2,-1.5 0.75,-0.7 q 1.35,-0.9 3.15,-0.75 1.75,0.2 2.6,1.3 l 0.5,1 0.25,0.8 3.55,-0.35 6.5,-0.5 1.6,0.15 q 0.95,0.45 1.15,1.75 l -0.05,2.2 0.4,3.85 0.4,2.55 q 12.15,-1.05 22.45,1 2.75,0.6 3.55,1.85 0.7,1 0.4,3.6 l -2.05,16.9 q -1.8,14.25 -3.1,20.35 -0.5,2.3 -1.4,3.1 l -0.9,0.6 q 0.3,1.75 0.3,4.5 0,1.95 -0.15,2.9 -0.55,3.35 -3.1,5.75 -2.35,2.25 -5.8,3.15 l -2.5,0.3 q -1.2,-0.1 -2.85,-0.95 -2.4,-1.15 -3.8,-2.5 -1.8,-1.75 -2.25,-3.9 l -0.15,-2 q 0,-0.5 -0.15,-0.7 l -0.55,-0.5 Q -39.45,22 -39.7,20.15 V 19.7 l -1.5,0.15 -3.4,0.45 q 0.15,0.4 0.15,1.2 0.1,0.75 -0.05,1.3 -0.2,0.9 -1,1.6 -0.5,0.5 -1.3,1 l -0.1,3.3 q -0.1,2.55 -0.45,4.15 l -0.85,2.65 q -0.7,1.7 -1.6,2.75 -1.1,1.25 -2.65,1.8 l -3.2,0.4 q -1.6,-0.2 -3,-1.1 -1.4,-0.95 -2.2,-2.35 -0.85,-1.5 -1.35,-4.3 -0.85,-5 -0.45,-8.95 l -2.8,-0.2 q -1.4,-0.65 -1.95,-2.8 l -10.75,2.85 -3.65,0.8 -0.3,1 -0.75,1.05 q -1,1.05 -2.2,1.5 l -2.65,0.1 -1.15,-0.5 q -1.35,-0.8 -1.85,-1.75 -0.55,-1.05 -0.3,-2.55 0.25,-1.65 1.2,-2.75 1.15,-1.3 2.65,-1.45 l 1.45,0.05 q 1.5,0.1 2.25,0.55 0.55,0.35 1.05,1 l 0.4,0.65 0.8,-0.3 6.8,-2 4.6,-1.5 1.75,-0.9 -1.7,-12 -0.55,0.2 h -1.05 Q -73,4.65 -74.25,3.3 H -74.6 L -78.05,4 -81.4,4.4 -82.2,4.15 Q -82.6,4 -82.6,3.5 l 0.4,-0.7 0.8,-0.65 0.55,-0.2 1.5,-0.75 1.35,-0.6 0.8,-0.45 0.9,-0.2 1,-0.5 0.15,-0.5 0.4,-0.95 0.6,-1 1.65,-1 1.3,-0.3 -0.35,-2.05 q -0.5,-3 0.3,-4.3 0.8,-1.3 3.5,-2.1 l 8.9,-2.85 0.6,-8.55 q 0.2,-2.25 0.95,-3.05 0.9,-1.05 3.9,-1.15 l 5.35,-0.55 5.3,-0.8 M -60.6,17.15 q 15.15,-2.9 30.55,-4.05 l 8.9,-1.15 q 0.95,-0.2 1.3,-0.55 0.4,-0.45 0.5,-1.5 2.15,-14.95 3.85,-29.85 l 0.35,-3.35 -0.05,-0.5 q -0.1,-0.2 -0.55,-0.3 l -18.45,-0.7 -15.6,1.9 -2.9,0.4 -0.45,4.25 v 3 2.15 q -0.1,0.8 -0.45,1.4 l -0.35,0.5 -0.05,0.1 q -0.85,0.8 -3.05,1.3 l -5.6,1.6 -3.1,1.15 0.65,3.75 q 1.85,11.15 3,20.75 l 1.5,-0.3 m 38.7,-33.6 1.35,0.2 q 0.4,0.25 0.5,0.8 0.1,0.5 -0.2,0.85 -0.4,0.5 -1.5,0.6 l -15.85,2 -1.15,0.35 -0.9,0.95 q -0.6,0.65 -1.95,0.85 -1.65,0.15 -3.1,-0.6 -1.5,-0.8 -2.05,-2.2 -0.35,-1.05 -0.1,-2.2 0.25,-1.15 1,-2 1.5,-1.65 4.05,-1.5 2.3,0.2 3.3,1.95 l 6.75,-0.3 q 4.35,-0.35 6.75,-0.05 l 3.1,0.3 m -27.25,7.2 q 0.5,0.4 0.65,1.15 0.35,1.35 -0.55,2.3 -0.55,0.55 -1.3,0.75 l -1.5,-0.1 -1.2,-0.9 q -0.45,-0.65 -0.45,-1.4 l 0.45,-1.4 1.1,-1 1.5,-0.15 q 0.8,0.2 1.3,0.75 m 8.4,1.4 q 1.1,-0.6 2.4,-0.55 1.25,0 2.35,0.6 l 0.8,0.65 0.6,0.95 q 0.4,1.25 0.35,2.3 l -0.45,2.35 q -0.65,1.9 -2.25,2.35 L -38.5,0.95 -40.25,0.9 Q -41.3,0.7 -42.1,-0.05 l -0.6,-0.75 -0.75,0.05 -4.35,0.6 -3.5,0.75 -3.55,0.3 -1.95,-0.05 -1.25,0.2 -1.25,0.05 q -1.1,-0.3 -1.05,-1.1 0.1,-0.6 1.15,-1 l 3.85,-1.15 2.3,-0.35 2.75,-0.85 4.25,-1.05 3.1,-0.55 0.15,-0.5 q 0.55,-1.6 2.05,-2.4 M -33.5,2.7 q -0.3,-0.55 -0.2,-1.25 0.1,-0.95 0.9,-1.6 0.8,-0.6 1.75,-0.55 0.95,0.1 1.65,0.85 0.7,0.75 0.65,1.7 -0.05,0.85 -0.65,1.5 -0.6,0.7 -1.4,0.85 -0.85,0.15 -1.6,-0.3 -0.8,-0.4 -1.1,-1.2 m 5.5,-8.95 0.75,-0.95 q 0.95,-1.05 1.6,-1.35 l 1.7,-0.25 1.35,0.1 q 1.35,0.35 2.2,1.9 0.5,0.95 0.45,1.85 l -0.35,2.05 -0.55,1.15 -0.5,0.65 v 1.6 q -0.25,2.8 -0.85,6.3 -0.1,1.1 -0.5,1.6 -0.55,0.75 -1.8,0.95 h -2.1 l -3.9,0.5 -3.95,0.7 -3.4,0.2 -2.8,0.4 -14.4,0.9 q -1.1,-0.1 -1.25,-0.6 -0.2,-0.5 0.3,-0.9 l 0.95,-0.4 4.7,-0.6 4.7,-0.5 3.8,-0.85 q 8.55,-2.05 15.05,-2.9 0.35,0 0.55,-0.2 l 0.2,-0.75 0.1,-3.8 0.1,-0.65 q -1.25,-0.45 -2.1,-1.55 l -0.4,-0.75 -0.1,-0.8 q -0.1,-2.05 0.45,-3.05 m -2.15,25 h -0.1 q 0.2,2.55 -1.5,3.65 l -0.75,0.55 q -0.3,0.4 -0.2,1.4 l 0.45,1.7 1,1.1 q 2,1.8 3.5,1.9 1.2,0.1 3,-0.75 2.15,-1.15 3.05,-2.65 0.85,-1.3 1.05,-3.55 0.25,-2.2 -0.05,-4.35 l -9.45,1 m -28.7,4.6 q -0.05,3.3 1.5,9.1 l 0.85,2.05 q 0.75,1.15 1.8,1.05 1.55,0 2.35,-2.25 0.75,-2.05 0.75,-6 v -1.35 l -1.15,-0.9 -0.95,-1.4 q -0.35,-0.75 -0.05,-1.8 l -5.05,1.05 -0.05,0.45"
         fill="#000000"
         fill-rule="evenodd"
         stroke="none"
         id="path1" />
      <path
         d="m -15.5,-19.95 -9.15,0.35 -9.4,0.6 -8.95,0.15 -6.75,0.3 -1.4,4.05 -0.8,1.85 q -0.3,0.6 -0.75,1.05 l -0.65,0.4 v 0.9 q -0.2,0.85 -1.25,1.6 -0.8,0.55 -3.4,1.7 l -3.9,1.95 0.1,1.1 0.85,11.75 q 0.4,5.9 0.35,8.85 v 0.5 l -1.5,0.3 q -1.15,-9.6 -3,-20.75 l -0.65,-3.75 3.1,-1.15 5.6,-1.6 q 2.2,-0.5 3.05,-1.3 l 0.05,-0.1 0.35,-0.5 q 0.35,-0.6 0.45,-1.4 v -2.15 -3 l 0.45,-4.25 2.9,-0.4 15.6,-1.9 18.45,0.7 q 0.45,0.1 0.55,0.3 l 0.05,0.5 -0.35,3.35"
         fill="#54634f"
         fill-rule="evenodd"
         stroke="none"
         id="path2" />
      <path
         d="m -60.6,17.15 v -0.5 Q -60.55,13.7 -60.95,7.8 L -61.8,-3.95 -61.9,-5.05 -58,-7 q 2.6,-1.15 3.4,-1.7 1.05,-0.75 1.25,-1.6 v -0.9 l 0.65,-0.4 q 0.45,-0.45 0.75,-1.05 l 0.8,-1.85 1.4,-4.05 6.75,-0.3 8.95,-0.15 9.4,-0.6 9.15,-0.35 q -1.7,14.9 -3.85,29.85 -0.1,1.05 -0.5,1.5 -0.35,0.35 -1.3,0.55 l -8.9,1.15 q -15.4,1.15 -30.55,4.05 M -28,-6.25 q -0.55,1 -0.45,3.05 l 0.1,0.8 0.4,0.75 q 0.85,1.1 2.1,1.55 l -0.1,0.65 -0.1,3.8 -0.2,0.75 q -0.2,0.2 -0.55,0.2 -6.5,0.85 -15.05,2.9 l -3.8,0.85 -4.7,0.5 -4.7,0.6 -0.95,0.4 q -0.5,0.4 -0.3,0.9 0.15,0.5 1.25,0.6 l 14.4,-0.9 2.8,-0.4 3.4,-0.2 3.95,-0.7 3.9,-0.5 h 2.1 q 1.25,-0.2 1.8,-0.95 0.4,-0.5 0.5,-1.6 0.6,-3.5 0.85,-6.3 v -1.6 l 0.5,-0.65 0.55,-1.15 0.35,-2.05 q 0.05,-0.9 -0.45,-1.85 -0.85,-1.55 -2.2,-1.9 l -1.35,-0.1 -1.7,0.25 q -0.65,0.3 -1.6,1.35 L -28,-6.25 m -5.5,8.95 q 0.3,0.8 1.1,1.2 0.75,0.45 1.6,0.3 0.8,-0.15 1.4,-0.85 0.6,-0.65 0.65,-1.5 0.05,-0.95 -0.65,-1.7 -0.7,-0.75 -1.65,-0.85 -0.95,-0.05 -1.75,0.55 -0.8,0.65 -0.9,1.6 -0.1,0.7 0.2,1.25 m -7.25,-10.55 q -1.5,0.8 -2.05,2.4 l -0.15,0.5 -3.1,0.55 -4.25,1.05 -2.75,0.85 -2.3,0.35 -3.85,1.15 q -1.05,0.4 -1.15,1 -0.05,0.8 1.05,1.1 l 1.25,-0.05 1.25,-0.2 1.95,0.05 3.55,-0.3 3.5,-0.75 4.35,-0.6 0.75,-0.05 0.6,0.75 q 0.8,0.75 1.85,0.95 l 1.75,0.05 1.55,-0.15 q 1.6,-0.45 2.25,-2.35 l 0.45,-2.35 q 0.05,-1.05 -0.35,-2.3 L -35.2,-7.15 -36,-7.8 q -1.1,-0.6 -2.35,-0.6 -1.3,-0.05 -2.4,0.55 m -8.4,-1.4 q -0.5,-0.55 -1.3,-0.75 l -1.5,0.15 -1.1,1 -0.45,1.4 q 0,0.75 0.45,1.4 l 1.2,0.9 1.5,0.1 q 0.75,-0.2 1.3,-0.75 0.9,-0.95 0.55,-2.3 -0.15,-0.75 -0.65,-1.15 m 27.25,-7.2 -3.1,-0.3 q -2.4,-0.3 -6.75,0.05 l -6.75,0.3 q -1,-1.75 -3.3,-1.95 -2.55,-0.15 -4.05,1.5 -0.75,0.85 -1,2 -0.25,1.15 0.1,2.2 0.55,1.4 2.05,2.2 1.45,0.75 3.1,0.6 1.35,-0.2 1.95,-0.85 l 0.9,-0.95 1.15,-0.35 15.85,-2 q 1.1,-0.1 1.5,-0.6 0.3,-0.35 0.2,-0.85 -0.1,-0.55 -0.5,-0.8 l -1.35,-0.2"
         fill="#404d3c"
         fill-rule="evenodd"
         stroke="none"
         id="path3" />
    </g>
    <g
       id="sprite1"
       transform="translate(17.4,15.85)">
      <use
         ffdec:characterId="31"
         height="57.200001"
         transform="matrix(0.5366,0,0,0.5366,-16.6582,-14.546)"
         width="70.75"
         xlink:href="#sprite2"
         id="use3" />
    </g>
    <g
       id="sprite2"
       transform="translate(-8.65,-10.35)">
      <use
         ffdec:characterId="30"
         height="57.200001"
         transform="translate(8.65,10.35)"
         width="70.75"
         xlink:href="#shape1"
         id="use4" />
    </g>
    <g
       id="shape1"
       transform="translate(-8.65,-10.35)">
      <path
         d="m 14.8,41.7 q 0.65,-1.75 2.65,-2.5 1.8,-0.8 3.7,-0.25 1.15,0.45 2.25,1.2 l 0.9,0.4 q 1.65,0.9 2.85,2.5 L 37.8,30.1 q 2.35,-2.8 3.75,-3.95 1.5,-1.15 4.25,-2.4 18.2,-8.85 27.65,-12.6 2.15,-0.8 3.25,-0.8 h 0.8 l 1.9,2.4 -0.2,0.8 q -0.2,1.1 -1.55,3 -5.85,8.25 -18.85,23.8 -1.85,2.35 -3.35,3.5 -1.4,1.15 -4.75,2.75 l -15.15,7.15 q 1.2,1.6 1.75,3.4 l 0.2,1 0.55,2.5 q 0.1,1.95 -1.1,3.55 -1.2,1.65 -3.05,1.9 l -1.3,0.05 q -1.65,0.2 -3.45,-0.65 -1.85,-0.9 -3,-2.6 L 25,60.95 23.8,62.1 q -2.6,2.85 -4.3,3.95 -2.85,1.8 -5.5,1.45 l -1.65,-0.5 -1.2,-0.7 -0.2,-0.2 q -1,-0.85 -1.6,-1.9 L 9.25,64 9.15,63.8 8.75,62.4 q -0.2,-0.8 -0.05,-1.7 0.25,-2.65 2.7,-5.05 1.5,-1.3 4.9,-3.15 L 17.7,51.55 16.05,50 q -1.35,-1.5 -1.8,-3.6 -0.4,-1.85 0.25,-3.45 l 0.3,-1.25"
         fill="#000000"
         fill-opacity="0.372549"
         fill-rule="evenodd"
         stroke="none"
         id="path4" />
    </g>
  </defs>
</svg>
