<?xml version="1.0" encoding="UTF-8" standalone="no"?>
<svg
   ffdec:objectType="frame"
   height="92.737503"
   width="94.964996"
   version="1.1"
   id="svg8"
   xmlns:xlink="http://www.w3.org/1999/xlink"
   xmlns="http://www.w3.org/2000/svg"
   xmlns:svg="http://www.w3.org/2000/svg"
   xmlns:ffdec="https://www.free-decompiler.com/flash">
  <g
     transform="translate(47.705,45.35)"
     id="g1">
    <use
       ffdec:characterId="17"
       height="119.15"
       id="rarity"
       transform="translate(-58.5,-60.65)"
       width="119.15"
       xlink:href="#sprite0" />
    <use
       ffdec:characterId="303"
       height="92.800003"
       transform="translate(-47.7,-45.4)"
       width="94.949997"
       xlink:href="#shape0"
       id="use1" />
  </g>
  <defs
     id="defs8">
    <g
       id="shape0"
       transform="translate(47.4,47.9)">
      <path
         d="m -7.3,8.4 h 0.05 l 0.7,0.2 q 0.5,-0.65 1.4,-1.35 10.4,-8 31.9,-22.15 l 11.45,-7.55 -0.25,-1.8 -0.05,-0.3 q -1,-1.95 -1.65,-4.05 l -0.75,-1.95 -0.65,0.35 q -1.75,1.15 -2.7,1.6 l -1.65,0.7 -2,1.1 -0.9,0.4 q -1.3,0.8 -2.05,1 l -1.05,0.2 -0.4,-0.8 -0.15,-0.2 0.1,-0.25 0.45,-0.55 2.1,-2.1 2.55,-1.95 2.45,-2 -17.85,-7.35 q -3.85,-1.55 -5.9,-1.35 -1.7,0.2 -4.7,1.9 -4.4,2.7 -11.95,8.35 -8.05,6.05 -11.85,8.45 l -6.55,4.05 -6.2,4.45 q -3.2,2.7 -5.05,5.7 l 1.5,0.55 2.4,0.5 1.95,0.75 0.5,0.4 q 0.15,0.35 -0.35,0.75 -0.35,0.3 -0.85,0.45 l -2.1,-0.05 -1.45,-0.35 -0.05,-0.05 -1.5,-0.25 -1.45,-0.05 -0.35,0.9 -0.55,2.05 -0.25,1.6 -0.05,1.25 q 2.3,0.55 5.55,1.6 6.45,1.95 17.85,4.65 L -8,8.2 -7.3,8.4 m 8.45,-18.95 0.4,0.55 q 0.3,0.55 -0.2,1.25 l -1,0.95 -2.65,2.7 -2.5,2.8 q -0.65,0.65 -1.2,0.95 l -0.05,0.45 -0.1,0.9 0.2,0.85 Q -5.7,1.7 -5.8,2.5 L -6.1,3.4 Q -6.45,3.75 -6.9,3.75 L -7.15,3.7 -7.65,3.5 -8.05,3.1 -8.6,2.05 -9.15,1.2 -9.25,0.5 -10.7,0.2 l -0.9,-0.25 -4.45,-1.1 -2.3,-0.55 q -1.15,-0.35 -1.5,-0.65 l -0.35,-0.3 q -0.4,-0.5 -0.2,-1.15 l 0.25,-0.4 q 0.5,-0.55 1.7,-0.45 l 2.75,0.2 6.2,0.75 1.1,0.2 0.95,-1.15 4.05,-3.6 2.25,-1.85 q 0.7,-0.55 1.4,-0.6 l 0.9,0.15 m 39.25,-21.35 2.55,7.4 0.1,0.3 0.15,0.3 0.15,1.05 q 0.1,1.1 -0.4,1.75 l 0.45,2.4 4,22.35 q 0.4,2.3 -0.2,3.45 L 47,7.7 q -0.45,0.85 -2.05,1.85 -5.9,3.75 -17.45,12.4 l -20.15,15.1 -5,3.95 -2.45,1.8 -0.65,0.3 q -0.3,0.9 -1.2,1.45 -0.85,0.45 -2.1,0.3 l -2.15,-0.5 -3.05,-0.6 -3.1,-0.45 -19.15,-4.65 q -1.2,-0.3 -1.7,-0.8 -0.45,-0.4 -0.5,-1.1 V 36.4 l -0.7,-1.3 -1.7,-3.6 -2.35,1.8 q -1.6,1.05 -3.15,1.3 -2.3,0.4 -4.05,-0.9 -0.85,-0.65 -1.35,-1.65 -0.45,-1 -0.4,-2.05 l 0.55,-1.85 q 1.85,-4.5 5.05,-8.1 l 0.5,-0.5 q -3.4,-8.65 -5.3,-16.1 -0.65,-2.5 -0.5,-4 l 0.6,-2.35 0.75,-2.35 0.35,-2.25 0.4,-2.25 q 0.5,-1.55 2.4,-3.75 2.5,-3 5.15,-5.15 l 5.45,-4.05 30.55,-21.05 4.3,-2.7 q 2.5,-1.25 4.75,-1.4 l 4.2,0.5 4.05,1.45 q 9.2,3.75 18.35,7.45 2.9,1.15 4.1,2.4 1.05,1.1 2.1,4.15 M 7.9,-5.95 Q 7,-6.55 6.8,-8.7 q -0.1,-1.05 0.05,-1.6 0.35,-1.05 2.4,-2.15 l 3.35,-1.9 4.8,-3.25 q 1,-0.8 1.7,-0.95 l 1.6,0.1 q 0.8,0.25 1.3,0.95 0.45,0.7 0.45,1.55 0,0.85 -0.5,1.5 -0.4,0.6 -1.15,1.1 l -5.2,3.55 -3.1,1.9 -1,0.95 -1.05,0.8 q -1.5,0.9 -2.55,0.2 M 42,4.45 38.8,-18.45 Q 32.35,-13.6 19.5,-4.8 5.25,4.95 -2.2,11.55 q -1.45,1.25 -2.3,1.4 -0.4,0.65 -1.1,1 L -5.65,14 -5.1,19.6 -2.7,37.95 V 37.9 q 2,-1.8 6.3,-4.9 11.3,-8.15 27.8,-19.7 4.4,-3 6.35,-4.25 l 4.7,-2.6 Q 42.15,5.65 42,4.45 M 15.95,2.6 16.7,1.5 l 0.85,-0.9 2,-0.4 2.9,-0.05 3.4,0.35 Q 26.8,0.6 27,1.1 l 0.05,0.65 0.1,0.1 0.15,0.7 0.45,1.2 0.65,1.85 0.5,2.2 0.45,2.15 0.25,1.15 q -0.05,0.75 -1.6,1.75 l -3.3,2.55 -1.7,1.2 -1.55,-0.15 -3.6,-0.3 -2.3,-0.4 Q 15.2,15.5 14.6,14.3 L 13.4,11.75 12.1,9.25 Q 11.55,8.15 11.7,7.6 l 0.55,-0.85 2.1,-2.45 1.6,-1.7 m 2.05,9.95 0.7,0.1 0.75,-0.05 1.65,0.25 q 1,0.2 1.6,0 L 24.05,11.9 25.3,10.75 26.1,10.15 26.25,9.1 25.75,6.75 25.15,5.25 25,5.35 22.9,7.1 q 0.3,0.25 0.3,0.8 l -0.2,0.65 0.05,0.3 q 0,0.85 0.25,1.4 l 0.15,0.45 -0.2,0.35 -0.35,0.05 -0.8,-0.4 Q 21.55,10.45 21.4,9.9 L 21.25,9.1 21.2,8.95 20.2,8.9 19.1,8.55 18.55,8.45 q -0.3,-0.2 -0.25,-0.5 0.15,-0.2 0.45,-0.3 L 21.25,7 21.7,6.9 l 0.05,-0.2 0.9,-1.05 2.2,-3 L 24.9,2.6 21.65,2.9 19.7,3.35 Q 19,3.75 18.35,4.5 L 16.2,6.75 Q 15.55,7.3 15.5,7.85 15.45,8.3 15.85,9.1 l 1.4,2.55 0.75,0.9 m -57.05,-3.65 4.9,12.15 3.45,-3.55 h 0.05 l 0.15,-1.35 0.75,-2 1.15,-1.3 q 1,-0.9 1.85,-1.2 l 2.2,-0.2 3,0.35 q 2.25,0.75 3.15,3 0.85,2.2 -0.1,4.45 l -1,1.65 -0.9,1.05 q -1.2,1.15 -2.95,1.3 -1.6,0.15 -3,-0.7 -1.3,1.6 -4.35,4.25 l -0.7,0.65 2.2,4.95 q 0.5,1.15 0.65,2.05 l 3.2,0.55 20.1,4.2 L -6.1,35 -10.4,13.55 -22.5,9.95 -31.75,7.1 -40.45,4 l 1.4,4.9 m 11.75,6.95 q -0.7,1.5 0.2,3 0.85,1.4 2.6,1.65 1.9,0.15 2.85,-1.25 0.55,-0.9 0.4,-2.2 -0.2,-1.1 -0.7,-1.75 -0.45,-0.65 -1.25,-1 L -24.75,14 q -1.8,0.15 -2.55,1.85 m -11.3,10.1 -0.7,-1.6 -1.9,4 1,-0.5 1.6,-1.9"
         fill="#000000"
         fill-rule="evenodd"
         stroke="none"
         id="path1" />
      <path
         d="m -39.05,8.9 -1.4,-4.9 8.7,3.1 9.25,2.85 12.1,3.6 4.3,21.45 0.85,4.2 -20.1,-4.2 -3.2,-0.55 q -0.15,-0.9 -0.65,-2.05 l -2.2,-4.95 0.7,-0.65 q 3.05,-2.65 4.35,-4.25 1.4,0.85 3,0.7 1.75,-0.15 2.95,-1.3 l 0.9,-1.05 1,-1.65 q 0.95,-2.25 0.1,-4.45 -0.9,-2.25 -3.15,-3 l -3,-0.35 -2.2,0.2 q -0.85,0.3 -1.85,1.2 l -1.15,1.3 -0.75,2 -0.15,1.35 h -0.05 l -3.45,3.55 -4.9,-12.15"
         fill="#835454"
         fill-rule="evenodd"
         stroke="none"
         id="path2" />
      <path
         d="m 15.95,2.6 -1.6,1.7 -2.1,2.45 -0.55,0.85 q -0.15,0.55 0.4,1.65 l 1.3,2.5 1.2,2.55 q 0.6,1.2 0.95,1.45 l 2.3,0.4 3.6,0.3 1.55,0.15 1.7,-1.2 3.3,-2.55 q 1.55,-1 1.6,-1.75 L 29.35,9.95 28.9,7.8 28.4,5.6 27.75,3.75 27.3,2.55 27.15,1.85 27.05,1.75 27,1.1 Q 26.8,0.6 25.85,0.5 l -3.4,-0.35 -2.9,0.05 -2,0.4 -0.85,0.9 -0.75,1.1 M 42,4.45 q 0.15,1.2 0.45,2 l -4.7,2.6 Q 35.8,10.3 31.4,13.3 14.9,24.85 3.6,33 q -4.3,3.1 -6.3,4.9 v 0.05 L -5.1,19.6 -5.65,14 -5.6,13.95 q 0.7,-0.35 1.1,-1 0.85,-0.15 2.3,-1.4 7.45,-6.6 21.7,-16.35 12.85,-8.8 19.3,-13.65 L 42,4.45 m -69.3,11.4 q 0.75,-1.7 2.55,-1.85 l 1.55,0.3 q 0.8,0.35 1.25,1 0.5,0.65 0.7,1.75 0.15,1.3 -0.4,2.2 -0.95,1.4 -2.85,1.25 -1.75,-0.25 -2.6,-1.65 -0.9,-1.5 -0.2,-3"
         fill="#723e3e"
         fill-rule="evenodd"
         stroke="none"
         id="path3" />
      <path
         d="m 24.1,-26 0.4,0.8 1.05,-0.2 q 0.75,-0.2 2.05,-1 l 0.9,-0.4 2,-1.1 1.65,-0.7 q 0.95,-0.45 2.7,-1.6 l 0.65,-0.35 0.75,1.95 q 0.65,2.1 1.65,4.05 l 0.05,0.3 0.25,1.8 -11.45,7.55 Q 5.25,-0.75 -5.15,7.25 -6.05,7.95 -6.55,8.6 L -7.25,8.4 H -7.3 Q -7.8,7.7 -7.9,6.6 l 0.05,-1.6 0.2,-1.5 0.5,0.2 0.25,0.05 q 0.45,0 0.8,-0.35 L -5.8,2.5 Q -5.7,1.7 -5.95,0.85 L -6.15,0 -6.05,-0.9 -6,-1.35 q 0.55,-0.3 1.2,-0.95 l 2.5,-2.8 2.65,-2.7 1,-0.95 q 0.5,-0.7 0.2,-1.25 l -0.4,-0.55 3.9,-2.6 9.35,-5.9 q 2.85,-1.9 8.65,-6.2 L 24.1,-26 M 7.9,-5.95 q 1.05,0.7 2.55,-0.2 l 1.05,-0.8 1,-0.95 3.1,-1.9 5.2,-3.55 q 0.75,-0.5 1.15,-1.1 0.5,-0.65 0.5,-1.5 0,-0.85 -0.45,-1.55 -0.5,-0.7 -1.3,-0.95 l -1.6,-0.1 q -0.7,0.15 -1.7,0.95 l -4.8,3.25 -3.35,1.9 q -2.05,1.1 -2.4,2.15 -0.15,0.55 -0.05,1.6 0.2,2.15 1.1,2.75"
         fill="#c4c4c4"
         fill-rule="evenodd"
         stroke="none"
         id="path4" />
      <path
         d="M -7.65,3.5 -7.85,5 -7.9,6.6 q 0.1,1.1 0.6,1.8 L -8,8.2 -17.65,5.85 Q -29.05,3.15 -35.5,1.2 -38.75,0.15 -41.05,-0.4 l 0.05,-1.25 0.25,-1.6 0.55,-2.05 0.35,-0.9 1.45,0.05 1.5,0.25 0.05,0.05 1.45,0.35 2.1,0.05 q 0.5,-0.15 0.85,-0.45 0.5,-0.4 0.35,-0.75 l 1.75,0.5 3.1,0.6 3.15,0.45 3.95,0.9 -0.25,0.4 q -0.2,0.65 0.2,1.15 l 0.35,0.3 q 0.35,0.3 1.5,0.65 l 2.3,0.55 4.45,1.1 0.9,0.25 1.45,0.3 0.1,0.7 0.55,0.85 0.55,1.05 0.4,0.4"
         fill="#dcdcdc"
         fill-rule="evenodd"
         stroke="none"
         id="path5" />
      <path
         d="m 24.1,-26 -1.05,0.75 q -5.8,4.3 -8.65,6.2 l -9.35,5.9 -3.9,2.6 -0.9,-0.15 q -0.7,0.05 -1.4,0.6 l -2.25,1.85 -4.05,3.6 -0.95,1.15 -1.1,-0.2 -6.2,-0.75 -2.75,-0.2 q -1.2,-0.1 -1.7,0.45 l -3.95,-0.9 -3.15,-0.45 -3.1,-0.6 -1.75,-0.5 -0.5,-0.4 -1.95,-0.75 -2.4,-0.5 -1.5,-0.55 q 1.85,-3 5.05,-5.7 l 6.2,-4.45 6.55,-4.05 q 3.8,-2.4 11.85,-8.45 7.55,-5.65 11.95,-8.35 3,-1.7 4.7,-1.9 2.05,-0.2 5.9,1.35 l 17.85,7.35 -2.45,2 -2.55,1.95 -2.1,2.1 -0.45,0.55 -0.1,0.25 0.15,0.2"
         fill="#ffffff"
         fill-rule="evenodd"
         stroke="none"
         id="path6" />
      <path
         d="M 18,12.55 17.25,11.65 15.85,9.1 Q 15.45,8.3 15.5,7.85 15.55,7.3 16.2,6.75 L 18.35,4.5 Q 19,3.75 19.7,3.35 l 1.95,-0.45 3.25,-0.3 -0.05,0.05 -2.2,3 -0.9,1.05 -0.05,0.2 -0.45,0.1 -2.5,0.65 q -0.3,0.1 -0.45,0.3 -0.05,0.3 0.25,0.5 l 0.55,0.1 1.1,0.35 1,0.05 0.05,0.15 0.15,0.8 q 0.15,0.55 0.7,0.8 l 0.8,0.4 0.35,-0.05 0.2,-0.35 -0.15,-0.45 Q 23.05,9.7 23.05,8.85 L 23,8.55 23.2,7.9 q 0,-0.55 -0.3,-0.8 l 2.1,-1.75 0.15,-0.1 0.6,1.5 0.5,2.35 -0.15,1.05 -0.8,0.6 -1.25,1.15 -1.35,0.95 q -0.6,0.2 -1.6,0 L 19.45,12.6 18.7,12.65 18,12.55"
         fill="#a4c4c4"
         fill-rule="evenodd"
         stroke="none"
         id="path7" />
    </g>
    <g
       id="sprite1"
       transform="translate(17.4,15.85)">
      <use
         ffdec:characterId="31"
         height="57.200001"
         transform="matrix(0.5366,0,0,0.5366,-16.6582,-14.546)"
         width="70.75"
         xlink:href="#sprite2"
         id="use7" />
    </g>
    <g
       id="sprite2"
       transform="translate(-8.65,-10.35)">
      <use
         ffdec:characterId="30"
         height="57.200001"
         transform="translate(8.65,10.35)"
         width="70.75"
         xlink:href="#shape1"
         id="use8" />
    </g>
    <g
       id="shape1"
       transform="translate(-8.65,-10.35)">
      <path
         d="m 14.8,41.7 q 0.65,-1.75 2.65,-2.5 1.8,-0.8 3.7,-0.25 1.15,0.45 2.25,1.2 l 0.9,0.4 q 1.65,0.9 2.85,2.5 L 37.8,30.1 q 2.35,-2.8 3.75,-3.95 1.5,-1.15 4.25,-2.4 18.2,-8.85 27.65,-12.6 2.15,-0.8 3.25,-0.8 h 0.8 l 1.9,2.4 -0.2,0.8 q -0.2,1.1 -1.55,3 -5.85,8.25 -18.85,23.8 -1.85,2.35 -3.35,3.5 -1.4,1.15 -4.75,2.75 l -15.15,7.15 q 1.2,1.6 1.75,3.4 l 0.2,1 0.55,2.5 q 0.1,1.95 -1.1,3.55 -1.2,1.65 -3.05,1.9 l -1.3,0.05 q -1.65,0.2 -3.45,-0.65 -1.85,-0.9 -3,-2.6 L 25,60.95 23.8,62.1 q -2.6,2.85 -4.3,3.95 -2.85,1.8 -5.5,1.45 l -1.65,-0.5 -1.2,-0.7 -0.2,-0.2 q -1,-0.85 -1.6,-1.9 L 9.25,64 9.15,63.8 8.75,62.4 q -0.2,-0.8 -0.05,-1.7 0.25,-2.65 2.7,-5.05 1.5,-1.3 4.9,-3.15 L 17.7,51.55 16.05,50 q -1.35,-1.5 -1.8,-3.6 -0.4,-1.85 0.25,-3.45 l 0.3,-1.25"
         fill="#000000"
         fill-opacity="0.372549"
         fill-rule="evenodd"
         stroke="none"
         id="path8" />
    </g>
  </defs>
</svg>
