<?xml version="1.0" encoding="UTF-8" standalone="no"?>
<svg
   ffdec:objectType="frame"
   height="52.987732"
   width="76.950432"
   version="1.1"
   id="svg5"
   sodipodi:docname="ITEM Cool Hat.svg"
   xmlns:inkscape="http://www.inkscape.org/namespaces/inkscape"
   xmlns:sodipodi="http://sodipodi.sourceforge.net/DTD/sodipodi-0.dtd"
   xmlns:xlink="http://www.w3.org/1999/xlink"
   xmlns="http://www.w3.org/2000/svg"
   xmlns:svg="http://www.w3.org/2000/svg"
   xmlns:ffdec="https://www.free-decompiler.com/flash">
  <sodipodi:namedview
     id="namedview5"
     pagecolor="#ffffff"
     bordercolor="#000000"
     borderopacity="0.25"
     inkscape:showpageshadow="2"
     inkscape:pageopacity="0.0"
     inkscape:pagecheckerboard="0"
     inkscape:deskcolor="#d1d1d1"
     fit-margin-top="5"
     fit-margin-left="5"
     fit-margin-right="5"
     fit-margin-bottom="5" />
  <g
     transform="translate(41.113636,27.806962)"
     id="g1">
    <use
       ffdec:characterId="17"
       height="119.15"
       id="rarity"
       transform="translate(-58.5,-60.65)"
       width="119.15"
       xlink:href="#sprite0" />
    <use
       ffdec:characterId="1165"
       height="53"
       transform="translate(-41.1,-27.8)"
       width="76.949997"
       xlink:href="#shape0"
       id="use1" />
  </g>
  <defs
     id="defs5">
    <g
       id="shape0"
       transform="translate(39.8,25.9)">
      <path
         d="M 13.9,18.5 17,17.3 V 17.15 L 17.1,16.5 17.25,16 v -0.15 l 0.1,-0.65 0.3,-0.65 0.25,-1.35 0.7,-2.45 1,-4.25 Q 19.85,4.95 20.7,3.6 V 3.45 L 21,2.3 l 0.25,-0.65 0.5,-1.3 0.6,-1.5 0.1,-0.15 -0.7,-2.1 -1.15,-2.5 q -1.95,-3.75 -5.05,-6.25 -2.05,-1.65 -4.6,-2.75 l -1.8,-0.7 q -3.25,-1.1 -6.6,-1.5 l -4.6,-0.3 q -3.3,-0.15 -6.5,0.15 l -7.4,1.2 -5.15,1.5 -1.9,0.75 q -4.25,1.9 -7.45,5.05 -2.05,1.95 -3.7,4.45 0.4,1.8 0.55,3.75 l 0.05,0.7 q 0.3,4.75 1.15,9.45 l 0.4,2.2 1.15,5.65 0.05,0.3 q 4.7,2.7 10.05,3.35 l 1.7,0.15 8.6,0.55 L 3.7,21.15 Q 8.85,20.3 13.9,18.5 m -1.35,-38.4 q 9.65,4.1 13.8,13.35 1.55,3.4 1.1,7 4.2,0.15 7.45,3.05 1.1,1 1.6,2.4 2.25,6.7 -3.45,10.75 -1.25,0.9 -2.7,1.35 -6,1.85 -11.85,4.25 l -3.55,1.35 q -5.3,1.75 -10.8,2.55 -15.45,2.2 -30.65,-0.8 -5.7,-1.1 -9.25,-5.3 l -0.5,-1.1 -1.8,-9 -0.85,-4.7 -0.8,-6.2 q -0.25,-1.95 0.05,-3.9 0.45,-3.65 3.15,-6.3 l 3.5,-3.15 q 8.45,-6.8 19.35,-8.15 l 1,-0.1 0.35,-0.75 q 0.45,-0.9 1.35,-1.45 1.55,-0.95 3.25,-1.05 4.55,-0.65 5.9,2.65 7.45,0.3 14.35,3.25 M 22.95,11.95 22.6,13 21.85,15.15 q 4.6,-1.9 9.25,-3.55 l 0.4,-0.2 0.2,-0.5 0.2,-0.35 L 31.85,8.95 31.9,8.3 31.1,6.85 30.75,6.5 29.15,6.15 25,5.8 24.5,7.35 24.4,7.6 22.95,11.95 M 1.4,9.4 q 1.25,1.1 0.9,3.5 L 1.8,16.15 Q 1.2,21.2 -4.25,20.2 l -7.7,-0.45 q -4.75,0.25 -9,-1.1 l -2.2,-0.85 q -0.55,-0.25 -0.75,-0.9 -0.6,-1.85 -0.4,-3.7 l 0.4,-1.8 -0.05,-1.15 q 0.1,-1.35 1.15,-2.15 1.6,-1.2 3.65,-1.4 l 2.45,-0.35 9.15,0.75 2.9,0.4 3.8,1 Q 0.6,8.65 1.4,9.4 m -13.3,1.15 -5.9,0.35 q -1,0.15 -1.75,0.75 L -19.6,11.8 V 12 l -0.1,0.5 -0.15,0.45 -0.15,0.65 -0.05,0.85 17.75,1.45 0.05,-0.5 0.2,-1.3 q 0.35,-1.65 -0.2,-3.25 l -0.1,-0.2 -3.5,0.05 -6.05,-0.15"
         fill="#000000"
         fill-rule="evenodd"
         stroke="none"
         id="path1" />
      <path
         d="m 10.95,-14.9 -0.05,0.25 q -0.25,2.25 -0.05,4.5 0.2,2.3 -2.1,2.5 l -2,-0.3 -0.7,-0.3 Q 2.1,-10 -1.3,-12.25 l -0.65,-0.45 q -0.25,-0.2 -0.15,-0.55 0.65,-2 2.85,-3 l 1.8,-0.85 q 3.35,0.4 6.6,1.5 l 1.8,0.7 M 5.2,-2.3 q 2.8,1.45 5.1,3.6 l 2.4,2.55 q 0.35,0.45 0,0.9 Q 11.3,6.8 8.6,7.4 L 6.1,8 2.35,9.1 1.4,9.4 Q 0.6,8.65 -0.85,8.5 l -3.8,-1 -2.9,-0.4 q 0.25,-1.45 1.4,-2.75 2.5,-2.75 4.45,-5.9 L -1.45,-2 -1.15,-3.1 Q -0.65,-4.2 0.5,-4.25 3,-3.5 5.2,-2.3 m 7.3,16.9 1.15,2.75 0.25,1.15 Q 8.85,20.3 3.7,21.15 l -0.15,-0.2 q -1.8,-2.65 -1,-5.3 0.2,-0.8 0.95,-1.2 1.3,-0.75 2.7,-1.35 1.65,-0.75 3.35,-1.25 1.65,-0.1 2.4,1.2 0.3,0.45 0.25,0.95 l 0.3,0.6 M 29.15,6.15 q 0.1,0.75 -0.2,1.7 -0.45,1.55 -2,2.35 -1.9,1.05 -4,1.75 L 24.4,7.6 24.6,7.45 24.5,7.35 25,5.8 29.15,6.15 m -50,-16.9 4.9,-5.3 7.4,-1.2 q 0.25,0.8 -0.1,2.1 l -3,10.75 q 0.1,3.35 -2.05,5.4 l -0.55,0.1 q -4.1,-1.6 -7.45,-4.65 l -0.4,-0.4 q -1.1,-1.1 -1.65,-2.5 -0.45,-1.25 0.6,-2 l 0.65,-0.4 1.65,-1.9 m -12.7,10.9 1.4,-0.85 0.8,-0.45 0.1,-0.05 q 1.55,-1.8 3.9,-2.3 v -0.05 q 1.45,0.75 2.05,2.1 0.45,1.1 0.4,2.6 l 0.1,1.45 0.35,2.3 q 1.15,3.9 -2.5,4.6 -1.05,0.2 -1.9,0.85 -1.55,1.1 -3.15,1.45 l -0.4,-2.2 q -0.85,-4.7 -1.15,-9.45"
         fill="#f7f0d3"
         fill-rule="evenodd"
         stroke="none"
         id="path2" />
      <path
         d="M 6.05,-8.25 6,-7.2 q -0.15,1.5 -0.8,2.9 v 0.8 1.2 Q 3,-3.5 0.5,-4.25 -0.65,-4.2 -1.15,-3.1 L -1.45,-2 -1.7,-1.55 -3.85,-2 q -3.5,-0.65 -6.05,-2.7 -0.4,-0.35 -0.4,-0.9 l 0.1,-1 q 4.15,-3.3 8.9,-5.65 3.4,2.25 7.35,4 M 10.3,1.3 q 2.45,-0.9 5.05,-1.3 2.8,1.3 2.25,4.95 -0.3,1.75 -0.1,3.5 0.2,2.15 -0.65,3.85 -0.4,0.75 -1.25,1.1 L 12.5,14.6 12.2,14 Q 12.25,13.5 11.95,13.05 11.2,11.75 9.55,11.85 7.85,12.35 6.2,13.1 6,10.55 6.1,8 L 8.6,7.4 q 2.7,-0.6 4.1,-2.65 0.35,-0.45 0,-0.9 L 10.3,1.3 m 11.45,-4.7 -3.9,-0.1 -1.05,-0.3 q -4.4,-0.35 -2.75,-3.7 l 1.3,-2.75 q -0.3,-1.15 0.2,-1.9 3.1,2.5 5.05,6.25 l 1.15,2.5 m -42.7,22.05 0.2,1.1 q 0.15,0.7 0,1.35 -5.35,-0.65 -10.05,-3.35 l -0.05,-0.3 q 0.8,-1.15 2.45,-1.85 l 2.3,-1.45 q 0.85,-0.65 1.8,-0.95 -0.2,1.85 0.4,3.7 0.2,0.65 0.75,0.9 l 2.2,0.85 M -23,-13.8 q 1.35,1.35 2.15,3.05 l -1.65,1.9 -0.65,0.4 q -1.05,0.75 -0.6,2 0.55,1.4 1.65,2.5 l -1.2,0.85 q -0.5,0.6 -1.2,1 l -0.55,0.3 -0.25,0.35 q -0.6,-1.35 -2.05,-2.1 v 0.05 q -2.35,0.5 -3.9,2.3 l -0.1,0.05 q -0.2,-1.8 0.6,-3.65 l 0.25,-3.6 0.05,-0.35 q 3.2,-3.15 7.45,-5.05"
         fill="#f6d3f7"
         fill-rule="evenodd"
         stroke="none"
         id="path3" />
      <path
         d="m 6.05,-8.25 0.7,0.3 2,0.3 q 2.3,-0.2 2.1,-2.5 -0.2,-2.25 0.05,-4.5 l 0.05,-0.25 q 2.55,1.1 4.6,2.75 -0.5,0.75 -0.2,1.9 l -1.3,2.75 q -1.65,3.35 2.75,3.7 l 1.05,0.3 3.9,0.1 0.7,2.1 -0.1,0.15 -0.6,1.5 -0.5,1.3 L 21,2.3 20.7,3.45 V 3.6 q -0.85,1.35 -1.1,2.9 l -1,4.25 -0.7,2.45 -0.25,1.35 -0.3,0.65 -0.1,0.65 V 16 L 17.1,16.5 17,17.15 V 17.3 L 13.9,18.5 13.65,17.35 12.5,14.6 15.6,13.4 Q 16.45,13.05 16.85,12.3 17.7,10.6 17.5,8.45 17.3,6.7 17.6,4.95 18.15,1.3 15.35,0 12.75,0.4 10.3,1.3 8,-0.85 5.2,-2.3 V -3.5 -4.3 Q 5.85,-5.7 6,-7.2 l 0.05,-1.05 m -3.5,-8.85 -1.8,0.85 q -2.2,1 -2.85,3 -0.1,0.35 0.15,0.55 l 0.65,0.45 q -4.75,2.35 -8.9,5.65 l -0.1,1 q 0,0.55 0.4,0.9 2.55,2.05 6.05,2.7 l 2.15,0.45 Q -3.65,1.6 -6.15,4.35 -7.3,5.65 -7.55,7.1 L -16.7,6.35 -19.15,6.7 q -2.05,0.2 -3.65,1.4 -1.05,0.8 -1.15,2.15 l 0.05,1.15 -0.4,1.8 q -0.95,0.3 -1.8,0.95 l -2.3,1.45 q -1.65,0.7 -2.45,1.85 L -32,11.8 q 1.6,-0.35 3.15,-1.45 0.85,-0.65 1.9,-0.85 3.65,-0.7 2.5,-4.6 L -24.8,2.6 -24.9,1.15 q 0.05,-1.5 -0.4,-2.6 l 0.25,-0.35 0.55,-0.3 q 0.7,-0.4 1.2,-1 l 1.2,-0.85 0.4,0.4 q 3.35,3.05 7.45,4.65 L -13.7,1 q 2.15,-2.05 2.05,-5.4 l 3,-10.75 q 0.35,-1.3 0.1,-2.1 3.2,-0.3 6.5,-0.15 l 4.6,0.3 m 26.6,23.25 1.6,0.35 0.35,0.35 0.8,1.45 -0.05,0.65 0.05,1.6 -0.2,0.35 -0.2,0.5 -0.4,0.2 q -4.65,1.65 -9.25,3.55 L 22.6,13 22.95,11.95 q 2.1,-0.7 4,-1.75 1.55,-0.8 2,-2.35 0.3,-0.95 0.2,-1.7 M 6.1,8 q -0.1,2.55 0.1,5.1 -1.4,0.6 -2.7,1.35 -0.75,0.4 -0.95,1.2 -0.8,2.65 1,5.3 l 0.15,0.2 -14.15,0.65 -8.6,-0.55 -1.7,-0.15 q 0.15,-0.65 0,-1.35 l -0.2,-1.1 q 4.25,1.35 9,1.1 l 7.7,0.45 q 5.45,1 6.05,-4.05 L 2.3,12.9 Q 2.65,10.5 1.4,9.4 L 2.35,9.1 6.1,8 m -29.1,-21.8 1.9,-0.75 5.15,-1.5 -4.9,5.3 q -0.8,-1.7 -2.15,-3.05 m -7.45,5.05 -0.05,0.35 -0.25,3.6 q -0.8,1.85 -0.6,3.65 l -0.8,0.45 -1.4,0.85 -0.05,-0.7 q -0.15,-1.95 -0.55,-3.75 1.65,-2.5 3.7,-4.45"
         fill="#c9f7ff"
         fill-rule="evenodd"
         stroke="none"
         id="path4" />
    </g>
    <g
       id="sprite1"
       transform="translate(17.4,15.85)">
      <use
         ffdec:characterId="31"
         height="57.200001"
         transform="matrix(0.5366,0,0,0.5366,-16.6582,-14.546)"
         width="70.75"
         xlink:href="#sprite2"
         id="use4" />
    </g>
    <g
       id="sprite2"
       transform="translate(-8.65,-10.35)">
      <use
         ffdec:characterId="30"
         height="57.200001"
         transform="translate(8.65,10.35)"
         width="70.75"
         xlink:href="#shape1"
         id="use5" />
    </g>
    <g
       id="shape1"
       transform="translate(-8.65,-10.35)">
      <path
         d="m 14.8,41.7 q 0.65,-1.75 2.65,-2.5 1.8,-0.8 3.7,-0.25 1.15,0.45 2.25,1.2 l 0.9,0.4 q 1.65,0.9 2.85,2.5 L 37.8,30.1 q 2.35,-2.8 3.75,-3.95 1.5,-1.15 4.25,-2.4 18.2,-8.85 27.65,-12.6 2.15,-0.8 3.25,-0.8 h 0.8 l 1.9,2.4 -0.2,0.8 q -0.2,1.1 -1.55,3 -5.85,8.25 -18.85,23.8 -1.85,2.35 -3.35,3.5 -1.4,1.15 -4.75,2.75 l -15.15,7.15 q 1.2,1.6 1.75,3.4 l 0.2,1 0.55,2.5 q 0.1,1.95 -1.1,3.55 -1.2,1.65 -3.05,1.9 l -1.3,0.05 q -1.65,0.2 -3.45,-0.65 -1.85,-0.9 -3,-2.6 L 25,60.95 23.8,62.1 q -2.6,2.85 -4.3,3.95 -2.85,1.8 -5.5,1.45 l -1.65,-0.5 -1.2,-0.7 -0.2,-0.2 q -1,-0.85 -1.6,-1.9 L 9.25,64 9.15,63.8 8.75,62.4 q -0.2,-0.8 -0.05,-1.7 0.25,-2.65 2.7,-5.05 1.5,-1.3 4.9,-3.15 L 17.7,51.55 16.05,50 q -1.35,-1.5 -1.8,-3.6 -0.4,-1.85 0.25,-3.45 l 0.3,-1.25"
         fill="#000000"
         fill-opacity="0.372549"
         fill-rule="evenodd"
         stroke="none"
         id="path5" />
    </g>
  </defs>
</svg>
