<?xml version="1.0" encoding="UTF-8" standalone="no"?>
<svg
   ffdec:objectType="frame"
   height="69.661247"
   width="70.047813"
   version="1.1"
   id="svg4"
   xmlns:xlink="http://www.w3.org/1999/xlink"
   xmlns="http://www.w3.org/2000/svg"
   xmlns:svg="http://www.w3.org/2000/svg"
   xmlns:ffdec="https://www.free-decompiler.com/flash">
  <g
     transform="translate(35.596296,36.76125)"
     id="g1">
    <use
       ffdec:characterId="17"
       height="119.15"
       id="rarity"
       transform="translate(-58.5,-60.65)"
       width="119.15"
       xlink:href="#sprite0" />
    <use
       ffdec:characterId="105"
       height="69.650002"
       transform="translate(-35.6,-36.75)"
       width="70.050003"
       xlink:href="#shape0"
       id="use1" />
  </g>
  <defs
     id="defs4">
    <g
       id="shape0"
       transform="translate(35.3,39.25)">
      <path
         d="m 28.15,-7.15 q 4.15,2.35 5.8,6.8 1.15,3.1 0.65,6.75 -0.45,3.45 -2.25,6.6 -3.1,5.25 -9.75,9.85 l -5,2.9 q -2.45,1.1 -7.35,2.1 l -7.5,1.05 q -2.85,0.15 -5.4,-0.1 l -2.05,0.65 -7.9,0.95 -7.45,-0.55 q -3.25,-0.8 -6.2,-2.95 -2.8,-2.05 -4.8,-4.95 -3.7,-5.4 -4.2,-13 -0.25,-4.2 0.85,-6.75 1.7,-3.85 6,-5.95 1.25,-0.6 2.7,-1 l -0.4,-0.6 q -1.35,-2.2 -1.25,-3.4 l 0.7,-2.4 1,-2.95 1.65,-2.45 q 2.8,-3.5 5.8,-5.35 2.45,-1.5 4.95,-1.95 v -0.05 q 0.05,-1.1 0.85,-2.9 l 2.25,-4.5 1.1,-1.35 q 3.15,-3.45 9.3,-5.95 3,-1.15 4.5,-0.3 1.45,0.8 1.45,2.55 l -0.45,1.65 -0.7,1.65 q -0.65,1.75 -0.2,3.7 0.45,1.85 1.7,3.4 l 0.4,0.5 q 2.15,-0.9 5.7,-0.9 l 3.9,0.45 2.9,1.45 2.9,2.1 q 1.8,1.8 2.3,4.9 0.65,4.1 -1.1,8.7 2.4,0.35 4.6,1.6 m -13.05,-12.6 -1.8,-0.2 -1,-0.05 -1.1,0.05 -0.75,0.1 -1.3,0.5 -0.3,0.15 -1,0.3 -1.7,-0.1 q -0.8,-0.35 -1.3,-1 L 4.8,-20.05 Q 4.55,-20.5 4.45,-21 L 3.7,-21.5 3.2,-21.9 q -1.85,-1.55 -2.85,-3.3 -0.75,-1.25 -1,-2.55 L -0.85,-30 v -0.9 l -0.25,-0.65 -1.65,1.3 -2.2,1.95 q -1.25,1.45 -1.6,2.95 l -0.15,1.7 0.15,1.9 q 0,0.85 -0.5,1.55 l -0.15,0.15 -0.75,0.7 -0.55,0.2 -0.35,0.15 -0.25,0.1 -0.2,0.35 -2,3.15 -0.5,1.25 q 0,0.7 0.9,1.6 l 1.55,1.5 2.75,2.4 0.5,0.45 q 0.85,0.8 0.95,1.4 Q -5,-5.85 -6,-4.45 l -1.5,2.2 q -0.6,1 -1.25,1.05 -0.5,0.1 -0.9,-0.3 l -0.5,-0.9 q -0.1,-0.85 0.65,-1.9 0.85,-1.05 0.9,-1.6 0.1,-0.9 -1.15,-2.05 l -0.45,-0.4 -1.8,-1.95 -1.75,-2.25 q -0.6,-0.9 -0.55,-1.4 l 0.45,-1.15 2.25,-3.45 q -1.4,0.25 -2.4,0.85 l -2.45,1.85 h -0.05 l -1.95,1.9 -1.35,1.85 -0.1,0.15 q -0.55,0.95 -0.7,1.85 -0.25,1.05 0.1,1.9 l 0.8,1.05 1.7,1.25 0.85,0.6 q 1.2,0.9 1.45,1.75 0.2,0.7 0,1.4 l -0.35,0.65 -0.4,0.55 q -0.55,0.55 -1.25,0.8 -1.3,0.45 -2.65,0 l -2.1,0.55 q -1.55,0.45 -2.6,0.95 -2.65,1.25 -3.55,3.4 l -0.15,0.4 -0.15,1.2 V 8 q 0.25,4.05 1.65,7.35 0.8,-0.65 1.8,-0.8 l 2,-0.1 2,-0.2 q 0.95,0.15 1.65,1 0.6,0.8 0.85,1.9 0.3,1.35 -0.05,2.8 -0.35,1.4 -1.25,2.45 l -0.35,0.35 1.15,0.5 q 2.2,0.8 5.4,0.9 l 9.35,-0.6 V 23.4 l 0.25,-4.45 q 0.1,-2.05 -0.1,-3.05 L -4.7,15.25 -4.8,14.9 -4.7,13.95 q 0.2,-0.45 1.25,-1 L -1,11.9 Q 3,10.25 5.5,9.6 L 4.65,7.15 q -0.8,-2.2 -1,-3.7 L 3.6,3.05 Q 0.3,3.15 -3.2,2.1 L -3.85,1.9 -4.15,1.8 -5.65,0.95 Q -6.4,0.1 -5.8,-0.65 q 0.45,-0.5 1.65,-0.4 l 2.45,0.25 2.65,0.1 2.5,-0.5 q 2.15,-0.65 5.9,-2.5 l 6.15,-3.15 0.55,-0.65 0.9,-0.55 q 0.9,-1.4 1.5,-3.55 0.6,-2.1 0.55,-3.7 l -0.15,-0.95 Q 18.5,-17.8 17.5,-18.7 16.65,-19.45 15.1,-19.75 M 25.85,-1.2 q -1.05,-0.9 -2.4,-1.15 l -0.4,-0.05 -1.9,0.05 -2.35,0.15 -0.9,-0.05 q -1.15,0.9 -3.05,1.8 L 11.9,0.9 8.5,2.25 5.95,2.85 6.65,5 l 1.3,3.2 0.6,1.95 -0.1,1.05 -0.3,0.6 0.6,0.45 0.95,0.9 0.85,0.4 0.3,0.15 0.35,0.35 q 0.35,0.55 -0.2,1.7 L 9.05,19.5 8.3,20.45 7.2,20.6 Q 6.75,20.3 6.75,19.7 6.7,19.4 6.95,18.7 7.55,17 8.45,15.4 L 7.75,14.7 6.75,14 5.55,13.1 5.5,12.9 q -3.55,0.7 -6.75,2.45 l -0.3,0.15 0.3,7.6 1.9,0.2 6.55,-0.8 Q 11.05,21.9 14,20.8 20.9,18.25 25.35,12.4 28.65,8.1 28.5,4.2 28.45,1.9 27.05,0.05 l -1.2,-1.25 m -46.9,20.15 q 0.3,-1.6 -0.65,-2.9 l -1.8,0.35 -1.8,0.35 -0.85,0.75 q 1.35,2.3 3.3,3.85 1.45,-0.8 1.8,-2.4"
         fill="#000000"
         fill-rule="evenodd"
         stroke="none"
         id="path1" />
      <path
         d="m 3.2,-21.9 0.5,0.4 0.75,0.5 q 0.1,0.5 0.35,0.95 L 4.85,-20 q 0.5,0.65 1.3,1 l 1.7,0.1 1,-0.3 0.3,-0.15 1.3,-0.5 0.75,-0.1 1.1,-0.05 1,0.05 1.8,0.2 0.3,0.25 0.9,1.1 0.4,0.8 q 0.4,1.2 -0.05,2.2 -0.2,0.55 -0.8,1.2 l -1.15,1 q -4.1,2.9 -9.8,4.05 -4.45,0.95 -10.6,0.95 h -0.4 l -0.5,-0.45 -2.75,-2.4 -1.55,-1.5 q -0.9,-0.9 -0.9,-1.6 l 0.5,-1.25 2,-3.15 0.2,-0.35 0.25,-0.1 0.35,-0.15 0.55,-0.2 0.75,-0.7 0.15,-0.15 6.5,-1.1 3.75,-0.6 M -3.85,1.9 -3.2,2.1 q 3.5,1.05 6.8,0.95 l 0.05,0.4 q 0.2,1.5 1,3.7 L 5.5,9.6 Q 3,10.25 -1,11.9 l -2.45,1.05 q -1.05,0.55 -1.25,1 l -0.1,0.95 0.1,0.35 -7.5,-0.6 q -7,-1.05 -12.1,-3.75 -3.8,-2 -4.6,-4.55 l 0.15,-1.2 0.15,-0.4 q 0.9,-2.15 3.55,-3.4 1.05,-0.5 2.6,-0.95 l 2.1,-0.55 q 1.35,0.45 2.65,0 0.7,-0.25 1.25,-0.8 l 0.4,-0.55 0.35,-0.65 h 0.1 q 1.8,0.2 2.65,1 0.55,0.5 0.65,1.25 0.15,0.75 -0.3,1.3 l 8.75,0.5 m -15.95,-14 1.35,-1.85 1.95,-1.9 h 0.05 L -14,-17.7 q 1,-0.6 2.4,-0.85 l -2.25,3.45 -0.45,1.15 q -0.05,0.5 0.55,1.4 l 1.75,2.25 1.8,1.95 -0.85,-0.1 -1.2,-0.2 -1.65,-0.35 -0.6,-0.15 q -2.15,-0.6 -3.8,-1.65 l -1.5,-1.3 M 10.85,13.7 10.55,13.55 9.7,13.15 8.75,12.25 8.15,11.8 8.45,11.2 8.55,10.15 7.95,8.2 6.65,5 5.95,2.85 8.5,2.25 11.9,0.9 14.85,-0.45 q 1.9,-0.9 3.05,-1.8 l 0.9,0.05 2.35,-0.15 1.9,-0.05 0.4,0.05 q 1.35,0.25 2.4,1.15 0.25,2.05 -1.45,4.85 -1.9,3.15 -4.25,5.15 -1.8,1.5 -5.55,3.3 l -3.75,1.6 m -12.1,1.65 Q 1.95,13.6 5.5,12.9 l 0.05,0.2 1.2,0.9 1,0.7 -1.5,0.3 -5.65,0.35 h -1.85 m 0.6,-43.1 -1,1 q -0.95,0.85 -2.1,1.35 l -1.95,0.35 -0.85,-0.3 q 0.35,-1.5 1.6,-2.95 l 2.2,-1.95 1.65,-1.3 0.25,0.65 v 0.9 l 0.2,2.25"
         fill="#a6a6a6"
         fill-rule="evenodd"
         stroke="none"
         id="path2" />
      <path
         d="m 3.2,-21.9 -3.75,0.6 -6.5,1.1 q 0.5,-0.7 0.5,-1.55 l -0.15,-1.9 0.15,-1.7 0.85,0.3 1.95,-0.35 q 1.15,-0.5 2.1,-1.35 l 1,-1 q 0.25,1.3 1,2.55 1,1.75 2.85,3.3 m -9.3,13.7 h 0.4 q 6.15,0 10.6,-0.95 5.7,-1.15 9.8,-4.05 l 1.15,-1 q 0.6,-0.65 0.8,-1.2 0.45,-1 0.05,-2.2 l -0.4,-0.8 -0.9,-1.1 -0.3,-0.25 q 1.55,0.3 2.4,1.05 1,0.9 1.35,2.45 L 19,-15.3 q 0.05,1.6 -0.55,3.7 -0.6,2.15 -1.5,3.55 l -0.9,0.55 -0.55,0.65 -6.15,3.15 q -3.75,1.85 -5.9,2.5 l -2.5,0.5 -2.65,-0.1 -2.45,-0.25 q -1.2,-0.1 -1.65,0.4 -0.6,0.75 0.15,1.6 l 1.5,0.85 0.3,0.1 -8.75,-0.5 q 0.45,-0.55 0.3,-1.3 -0.1,-0.75 -0.65,-1.25 -0.85,-0.8 -2.65,-1 h -0.1 q 0.2,-0.7 0,-1.4 -0.25,-0.85 -1.45,-1.75 L -18,-5.9 -19.7,-7.15 -20.5,-8.2 q -0.35,-0.85 -0.1,-1.9 0.15,-0.9 0.7,-1.85 l 0.1,-0.15 1.5,1.3 q 1.65,1.05 3.8,1.65 l 0.6,0.15 1.65,0.35 1.2,0.2 0.85,0.1 0.45,0.4 q 1.25,1.15 1.15,2.05 -0.05,0.55 -0.9,1.6 -0.75,1.05 -0.65,1.9 l 0.5,0.9 q 0.4,0.4 0.9,0.3 0.65,-0.05 1.25,-1.05 l 1.5,-2.2 q 1,-1.4 0.85,-2.35 -0.1,-0.6 -0.95,-1.4 m 1.4,23.45 0.15,0.65 q 0.2,1 0.1,3.05 L -4.7,23.4 v 0.15 l -9.35,0.6 q -3.2,-0.1 -5.4,-0.9 l -1.15,-0.5 0.35,-0.35 q 0.9,-1.05 1.25,-2.45 0.35,-1.45 0.05,-2.8 -0.25,-1.1 -0.85,-1.9 -0.7,-0.85 -1.65,-1 l -2,0.2 -2,0.1 q -1,0.15 -1.8,0.8 -1.4,-3.3 -1.65,-7.35 V 6.35 q 0.8,2.55 4.6,4.55 5.1,2.7 12.1,3.75 l 7.5,0.6 M 10.85,13.7 14.6,12.1 q 3.75,-1.8 5.55,-3.3 2.35,-2 4.25,-5.15 1.7,-2.8 1.45,-4.85 l 1.2,1.25 q 1.4,1.85 1.45,4.15 0.15,3.9 -3.15,8.2 -4.45,5.85 -11.35,8.4 -2.95,1.1 -6.8,1.7 l -6.55,0.8 -1.9,-0.2 -0.3,-7.6 0.3,-0.15 H 0.6 L 6.25,15 l 1.5,-0.3 0.7,0.7 q -0.9,1.6 -1.5,3.3 -0.25,0.7 -0.2,1 0,0.6 0.45,0.9 L 8.3,20.45 9.05,19.5 11,15.75 q 0.55,-1.15 0.2,-1.7 L 10.85,13.7 m -31.9,5.25 q -0.35,1.6 -1.8,2.4 -1.95,-1.55 -3.3,-3.85 l 0.85,-0.75 1.8,-0.35 1.8,-0.35 q 0.95,1.3 0.65,2.9"
         fill="#838383"
         fill-rule="evenodd"
         stroke="none"
         id="path3" />
    </g>
    <g
       id="sprite1"
       transform="translate(17.4,15.85)">
      <use
         ffdec:characterId="31"
         height="57.200001"
         transform="matrix(0.5366,0,0,0.5366,-16.6582,-14.546)"
         width="70.75"
         xlink:href="#sprite2"
         id="use3" />
    </g>
    <g
       id="sprite2"
       transform="translate(-8.65,-10.35)">
      <use
         ffdec:characterId="30"
         height="57.200001"
         transform="translate(8.65,10.35)"
         width="70.75"
         xlink:href="#shape1"
         id="use4" />
    </g>
    <g
       id="shape1"
       transform="translate(-8.65,-10.35)">
      <path
         d="m 14.8,41.7 q 0.65,-1.75 2.65,-2.5 1.8,-0.8 3.7,-0.25 1.15,0.45 2.25,1.2 l 0.9,0.4 q 1.65,0.9 2.85,2.5 L 37.8,30.1 q 2.35,-2.8 3.75,-3.95 1.5,-1.15 4.25,-2.4 18.2,-8.85 27.65,-12.6 2.15,-0.8 3.25,-0.8 h 0.8 l 1.9,2.4 -0.2,0.8 q -0.2,1.1 -1.55,3 -5.85,8.25 -18.85,23.8 -1.85,2.35 -3.35,3.5 -1.4,1.15 -4.75,2.75 l -15.15,7.15 q 1.2,1.6 1.75,3.4 l 0.2,1 0.55,2.5 q 0.1,1.95 -1.1,3.55 -1.2,1.65 -3.05,1.9 l -1.3,0.05 q -1.65,0.2 -3.45,-0.65 -1.85,-0.9 -3,-2.6 L 25,60.95 23.8,62.1 q -2.6,2.85 -4.3,3.95 -2.85,1.8 -5.5,1.45 l -1.65,-0.5 -1.2,-0.7 -0.2,-0.2 q -1,-0.85 -1.6,-1.9 L 9.25,64 9.15,63.8 8.75,62.4 q -0.2,-0.8 -0.05,-1.7 0.25,-2.65 2.7,-5.05 1.5,-1.3 4.9,-3.15 L 17.7,51.55 16.05,50 q -1.35,-1.5 -1.8,-3.6 -0.4,-1.85 0.25,-3.45 l 0.3,-1.25"
         fill="#000000"
         fill-opacity="0.372549"
         fill-rule="evenodd"
         stroke="none"
         id="path4" />
    </g>
  </defs>
</svg>
