<?xml version="1.0" encoding="UTF-8" standalone="no"?>
<svg
   ffdec:objectType="frame"
   height="58.582001"
   width="72.194618"
   version="1.1"
   id="svg4"
   xmlns:xlink="http://www.w3.org/1999/xlink"
   xmlns="http://www.w3.org/2000/svg"
   xmlns:svg="http://www.w3.org/2000/svg"
   xmlns:ffdec="https://www.free-decompiler.com/flash">
  <g
     transform="translate(37.084615,28.732)"
     id="g1">
    <use
       ffdec:characterId="17"
       height="119.15"
       id="rarity"
       transform="translate(-58.5,-60.65)"
       width="119.15"
       xlink:href="#sprite0" />
    <use
       ffdec:characterId="117"
       height="58.599998"
       transform="translate(-37.1,-28.75)"
       width="72.199997"
       xlink:href="#shape0"
       id="use1" />
  </g>
  <defs
     id="defs4">
    <g
       id="shape0"
       transform="translate(36.8,31.25)">
      <path
         d="m -25,-9.2 -0.5,1.6 q -1.4,6.35 -3.85,11.75 -0.65,1.3 -0.65,2.25 0.1,0.95 1.1,2.35 l 5.6,6.5 2.85,2.95 0.3,0.3 2.1,1.65 0.7,0.3 2.85,0.35 L 1.8,20.75 4.4,20.55 5.45,20.2 5.9,20 v -1.5 l -0.05,-3 -0.1,-1.2 Q 5.1,10.85 5,9.1 L 5.15,4.95 Q 5.25,2.45 4.8,0.9 l -0.05,-0.2 -4.4,-1.5 -3,-1.45 -3.05,-1.35 -2.85,-0.8 -2.85,-0.9 -2.05,-0.9 -1.85,-0.5 -3.65,-1.5 q -2.9,-1.1 -5.9,-1.15 h -0.1 L -25,-9.2 m -8.6,22.75 q -2.8,-3.4 -3.15,-5.85 -0.15,-1.5 0.35,-3.3 l 1.15,-3.2 q 2.4,-5.95 3,-8.95 l 0.6,-3.25 q 0.45,-1.8 1.2,-2.95 1.4,-1.9 5.55,-3.6 9.2,-3.4 13.75,-5.15 8.1,-3.15 13.4,-5.95 L 5.4,-30.2 q 1.85,-0.85 3.35,-1 2.25,-0.2 4.95,0.85 1.7,0.65 4.65,2.4 4.75,2.8 9.45,5.55 l 4.35,2.95 q 2.2,1.9 2.9,4.1 0.6,1.9 0.2,5.4 -0.55,5.25 -2.5,16.3 -0.65,3.35 -1.5,4.75 -0.9,1.4 -2.65,2.6 l -3.25,1.85 Q 18.7,19 12.15,23.7 L 9.9,25.25 Q 8.6,26.1 7.5,26.5 l -5.85,0.7 -16.5,0.15 -3.15,-0.1 -3,-0.75 q -1.55,-0.7 -3.95,-3.1 -5.3,-5.55 -8.65,-9.85 m 25.75,-30.65 -13,5.3 1.1,0.35 3.7,1.35 6.5,2.55 Q -3,-4.95 4.6,-1.65 L 2.75,-5.6 1,-10.85 Q -0.05,-14 -1.2,-15.9 l -0.95,-1.55 q -0.55,-0.9 -0.7,-1.65 v -0.1 l -5,2.1 m 36.9,2.65 q -0.5,-0.9 -2.3,-1.95 l -13.9,-7.55 Q 11.15,-24.8 10.25,-24.9 9,-25 6.6,-23.75 q -2.65,1.4 -5.75,2.85 l 0.85,1.85 5.75,15.75 q 2.5,-0.95 6.55,-3 l 4.7,-2.3 q 6.6,-3.25 10.5,-5.5 l -0.15,-0.35 m -5.5,23.6 q 1.75,-1.05 2.35,-2.1 0.4,-0.7 0.6,-2 L 28.95,-9.35 8.7,0.7 8.65,3.25 v 1.7 q 0,4.3 0.3,8.8 l 0.15,3.9 V 18.1 L 23.55,9.15"
         fill="#000000"
         fill-rule="evenodd"
         stroke="none"
         id="path1" />
      <path
         d="m -24.85,-9.35 q 3,0.05 5.9,1.15 l 3.65,1.5 1.85,0.5 2.05,0.9 2.85,0.9 2.85,0.8 3.05,1.35 3,1.45 4.4,1.5 0.05,0.2 Q 5.25,2.45 5.15,4.95 L 5,9.1 q 0.1,1.75 0.75,5.2 l 0.1,1.2 0.05,3 V 20 l -0.45,0.2 -1.05,0.35 -2.6,0.2 -16.3,0.05 -2.85,-0.35 -0.7,-0.3 -2.1,-1.65 -0.3,-0.3 -2.85,-2.95 -5.6,-6.5 q -1,-1.4 -1.1,-2.35 0,-0.95 0.65,-2.25 2.45,-5.4 3.85,-11.75 l 0.5,-1.6 0.15,-0.15 M 23.55,9.15 9.1,18.1 V 17.65 L 8.95,13.75 Q 8.65,9.25 8.65,4.95 V 3.25 L 8.7,0.7 28.95,-9.35 26.5,5.05 q -0.2,1.3 -0.6,2 -0.6,1.05 -2.35,2.1"
         fill="#626262"
         fill-rule="evenodd"
         stroke="none"
         id="path2" />
      <path
         d="m 29.05,-14.45 0.15,0.35 q -3.9,2.25 -10.5,5.5 L 14,-6.3 q -4.05,2.05 -6.55,3 L 1.7,-19.05 0.85,-20.9 q 3.1,-1.45 5.75,-2.85 2.4,-1.25 3.65,-1.15 0.9,0.1 2.6,0.95 l 13.9,7.55 q 1.8,1.05 2.3,1.95 m -36.9,-2.65 5,-2.1 v 0.1 q 0.15,0.75 0.7,1.65 l 0.95,1.55 q 1.15,1.9 2.2,5.05 L 2.75,-5.6 4.6,-1.65 Q -3,-4.95 -9.55,-7.55 l -6.5,-2.55 -3.7,-1.35 -1.1,-0.35 13,-5.3"
         fill="#8e8e8e"
         fill-rule="evenodd"
         stroke="none"
         id="path3" />
    </g>
    <g
       id="sprite1"
       transform="translate(17.4,15.85)">
      <use
         ffdec:characterId="31"
         height="57.200001"
         transform="matrix(0.5366,0,0,0.5366,-16.6582,-14.546)"
         width="70.75"
         xlink:href="#sprite2"
         id="use3" />
    </g>
    <g
       id="sprite2"
       transform="translate(-8.65,-10.35)">
      <use
         ffdec:characterId="30"
         height="57.200001"
         transform="translate(8.65,10.35)"
         width="70.75"
         xlink:href="#shape1"
         id="use4" />
    </g>
    <g
       id="shape1"
       transform="translate(-8.65,-10.35)">
      <path
         d="m 14.8,41.7 q 0.65,-1.75 2.65,-2.5 1.8,-0.8 3.7,-0.25 1.15,0.45 2.25,1.2 l 0.9,0.4 q 1.65,0.9 2.85,2.5 L 37.8,30.1 q 2.35,-2.8 3.75,-3.95 1.5,-1.15 4.25,-2.4 18.2,-8.85 27.65,-12.6 2.15,-0.8 3.25,-0.8 h 0.8 l 1.9,2.4 -0.2,0.8 q -0.2,1.1 -1.55,3 -5.85,8.25 -18.85,23.8 -1.85,2.35 -3.35,3.5 -1.4,1.15 -4.75,2.75 l -15.15,7.15 q 1.2,1.6 1.75,3.4 l 0.2,1 0.55,2.5 q 0.1,1.95 -1.1,3.55 -1.2,1.65 -3.05,1.9 l -1.3,0.05 q -1.65,0.2 -3.45,-0.65 -1.85,-0.9 -3,-2.6 L 25,60.95 23.8,62.1 q -2.6,2.85 -4.3,3.95 -2.85,1.8 -5.5,1.45 l -1.65,-0.5 -1.2,-0.7 -0.2,-0.2 q -1,-0.85 -1.6,-1.9 L 9.25,64 9.15,63.8 8.75,62.4 q -0.2,-0.8 -0.05,-1.7 0.25,-2.65 2.7,-5.05 1.5,-1.3 4.9,-3.15 L 17.7,51.55 16.05,50 q -1.35,-1.5 -1.8,-3.6 -0.4,-1.85 0.25,-3.45 l 0.3,-1.25"
         fill="#000000"
         fill-opacity="0.372549"
         fill-rule="evenodd"
         stroke="none"
         id="path4" />
    </g>
  </defs>
</svg>
