<?xml version="1.0" encoding="UTF-8" standalone="no"?>
<svg
   ffdec:objectType="frame"
   height="49.004547"
   width="30.261538"
   version="1.1"
   id="svg3"
   sodipodi:docname="ITEM Thief's Tattoo.svg"
   xmlns:inkscape="http://www.inkscape.org/namespaces/inkscape"
   xmlns:sodipodi="http://sodipodi.sourceforge.net/DTD/sodipodi-0.dtd"
   xmlns:xlink="http://www.w3.org/1999/xlink"
   xmlns="http://www.w3.org/2000/svg"
   xmlns:svg="http://www.w3.org/2000/svg"
   xmlns:ffdec="https://www.free-decompiler.com/flash">
  <sodipodi:namedview
     id="namedview3"
     pagecolor="#ffffff"
     bordercolor="#000000"
     borderopacity="0.25"
     inkscape:showpageshadow="2"
     inkscape:pageopacity="0.0"
     inkscape:pagecheckerboard="0"
     inkscape:deskcolor="#d1d1d1"
     fit-margin-top="5"
     fit-margin-left="5"
     fit-margin-right="5"
     fit-margin-bottom="5" />
  <g
     transform="translate(17.4,24.154545)"
     id="g1">
    <use
       ffdec:characterId="17"
       height="119.15"
       id="rarity"
       transform="translate(-58.5,-60.65)"
       width="119.15"
       xlink:href="#sprite0" />
    <use
       ffdec:characterId="1014"
       height="49"
       transform="translate(-17.4,-24.15)"
       width="30.25"
       xlink:href="#shape0"
       id="use1" />
  </g>
  <defs
     id="defs3">
    <g
       id="shape0"
       transform="translate(64.2,25.5)">
      <path
         d="m -47.75,-6.8 q -2.55,1.15 -4.4,3.3 -1.9,2.1 -2.7,4.75 -0.25,0.9 -0.1,1.5 0.2,0.7 1.1,1.25 2.05,1.35 5.3,1.15 1.85,-0.2 2.75,-0.7 l 1.1,-0.75 1.1,-0.85 q 1.55,-1.05 3.5,-1.15 2,-0.1 3.5,0.9 1.6,1 2.2,2.9 0.65,1.95 -0.1,3.6 -1.1,2.55 -5.4,4.2 -2.5,0.95 -4.6,1.4 l 0.2,1.3 0.35,2.2 q 0,1.5 -0.45,2.75 -0.55,1.25 -1.2,1.75 -1.05,0.8 -3.15,0.8 l -1.35,-0.2 -1.3,-0.85 q -1.15,-1.1 -1.55,-2.7 -0.3,-1.3 -0.05,-3.25 l 0.35,-2.1 q -3.8,-0.8 -6.05,-2.15 -3.35,-1.9 -4.6,-4.75 -0.8,-1.95 -0.9,-4.85 0,-3.6 1,-6.2 1.4,-4 5.55,-7.55 l 2.85,-2.15 q 2.3,-1.4 4.7,-2.05 l -0.15,-0.25 q -0.7,-0.95 -0.85,-2.35 v -1.75 l 0.2,-1.75 0.65,-1.7 1.15,-1.65 q 0.9,-0.75 2.1,-0.75 1.05,-0.05 2.15,0.45 0.8,0.3 1.4,0.9 0.65,0.75 0.9,1.8 0.6,2.45 -0.5,4.25 l -0.55,0.85 -0.3,1.1 -0.05,0.25 q 4.3,0.35 7.25,2.95 2.35,2.1 2.7,4.8 0.2,1.4 -0.25,2.8 -0.45,1.4 -1.5,2.3 -1.1,0.95 -2.65,1.2 l -2.95,-0.3 q -2.75,-0.95 -4.4,-3.8 l -1.1,-1.05 -0.9,0.2"
         fill="#000000"
         fill-rule="evenodd"
         stroke="none"
         id="path1" />
    </g>
    <g
       id="sprite1"
       transform="translate(17.4,15.85)">
      <use
         ffdec:characterId="31"
         height="57.200001"
         transform="matrix(0.5366,0,0,0.5366,-16.6582,-14.546)"
         width="70.75"
         xlink:href="#sprite2"
         id="use2" />
    </g>
    <g
       id="sprite2"
       transform="translate(-8.65,-10.35)">
      <use
         ffdec:characterId="30"
         height="57.200001"
         transform="translate(8.65,10.35)"
         width="70.75"
         xlink:href="#shape1"
         id="use3" />
    </g>
    <g
       id="shape1"
       transform="translate(-8.65,-10.35)">
      <path
         d="m 14.8,41.7 q 0.65,-1.75 2.65,-2.5 1.8,-0.8 3.7,-0.25 1.15,0.45 2.25,1.2 l 0.9,0.4 q 1.65,0.9 2.85,2.5 L 37.8,30.1 q 2.35,-2.8 3.75,-3.95 1.5,-1.15 4.25,-2.4 18.2,-8.85 27.65,-12.6 2.15,-0.8 3.25,-0.8 h 0.8 l 1.9,2.4 -0.2,0.8 q -0.2,1.1 -1.55,3 -5.85,8.25 -18.85,23.8 -1.85,2.35 -3.35,3.5 -1.4,1.15 -4.75,2.75 l -15.15,7.15 q 1.2,1.6 1.75,3.4 l 0.2,1 0.55,2.5 q 0.1,1.95 -1.1,3.55 -1.2,1.65 -3.05,1.9 l -1.3,0.05 q -1.65,0.2 -3.45,-0.65 -1.85,-0.9 -3,-2.6 L 25,60.95 23.8,62.1 q -2.6,2.85 -4.3,3.95 -2.85,1.8 -5.5,1.45 l -1.65,-0.5 -1.2,-0.7 -0.2,-0.2 q -1,-0.85 -1.6,-1.9 L 9.25,64 9.15,63.8 8.75,62.4 q -0.2,-0.8 -0.05,-1.7 0.25,-2.65 2.7,-5.05 1.5,-1.3 4.9,-3.15 L 17.7,51.55 16.05,50 q -1.35,-1.5 -1.8,-3.6 -0.4,-1.85 0.25,-3.45 l 0.3,-1.25"
         fill="#000000"
         fill-opacity="0.372549"
         fill-rule="evenodd"
         stroke="none"
         id="path3" />
    </g>
  </defs>
</svg>
