<?xml version="1.0" encoding="UTF-8" standalone="no"?>
<svg
   ffdec:objectType="frame"
   height="63.653332"
   width="86.991364"
   version="1.1"
   id="svg6"
   sodipodi:docname="ITEM Lead Shoulder Pads.svg"
   xmlns:inkscape="http://www.inkscape.org/namespaces/inkscape"
   xmlns:sodipodi="http://sodipodi.sourceforge.net/DTD/sodipodi-0.dtd"
   xmlns:xlink="http://www.w3.org/1999/xlink"
   xmlns="http://www.w3.org/2000/svg"
   xmlns:svg="http://www.w3.org/2000/svg"
   xmlns:ffdec="https://www.free-decompiler.com/flash">
  <sodipodi:namedview
     id="namedview6"
     pagecolor="#ffffff"
     bordercolor="#000000"
     borderopacity="0.25"
     inkscape:showpageshadow="2"
     inkscape:pageopacity="0.0"
     inkscape:pagecheckerboard="0"
     inkscape:deskcolor="#d1d1d1"
     fit-margin-top="5"
     fit-margin-left="5"
     fit-margin-right="5"
     fit-margin-bottom="5" />
  <g
     transform="translate(44.261364,29.503333)"
     id="g1">
    <use
       ffdec:characterId="17"
       height="119.15"
       id="rarity"
       transform="translate(-58.5,-60.65)"
       width="119.15"
       xlink:href="#sprite0" />
    <use
       ffdec:characterId="842"
       height="63.75"
       transform="translate(-44.25,-29.5)"
       width="87"
       xlink:href="#shape0"
       id="use1" />
  </g>
  <defs
     id="defs6">
    <g
       id="shape0"
       transform="translate(44.8,30.25)">
      <path
         d="m -41.25,16.8 q -1.85,-0.5 -2.45,-1.3 -0.5,-0.65 -0.6,-2.35 -0.75,-9.65 -0.4,-15 0.1,-2.2 0.7,-3.55 0.7,-1.5 2.65,-3.15 5.3,-4.35 7.7,-6.85 1.6,-1.8 2.6,-2.4 1.2,-0.75 3.95,-1.15 l 6.1,-0.95 10.55,-1.85 3.4,-0.6 3.25,0.35 q 1.35,0.5 3.45,2.4 l 0.6,0.55 q 1.9,-3.5 3.1,-6.8 l 0.7,-1.35 q 0.7,-0.75 2.65,-0.95 l 7.45,-1.2 10.3,-0.85 q 2,-0.2 3,0.35 l 0.75,0.65 1.55,0.8 5,4.25 4.75,4.6 q 2.05,1.95 2.5,3.3 0.3,1.05 0.1,3.6 -0.4,3.65 -0.4,8.2 0,2.4 -0.75,3.3 -0.7,0.75 -2.15,1.2 l -1,0.3 1.7,4 0.4,1.8 q -0.05,0.95 -1.3,2.4 l -7.2,8.4 Q 30.35,18 29.9,18.1 29.05,18.4 27.65,17.7 L 23.9,15.3 22,13.9 20.25,12.35 19.7,11.45 17.4,10.9 15.25,10.45 13.25,9.5 11.7,9.05 l 0.25,2.9 0.25,1.45 0.6,1.75 q 0.15,1.05 -0.7,1.85 -0.5,0.45 -1.6,0.75 l -3.15,0.55 -3.15,0.4 -3.1,0.65 -1.95,0.2 0.15,1.2 q 0.3,2.15 -0.15,3.1 -0.5,1 -2.3,2 l -11.45,6.6 -1.75,0.85 -1.85,0.1 -2.1,-1.45 -5,-3.75 q -3.3,-2.25 -4.85,-3.9 -1.1,-1.2 -1.2,-2.05 l 0.25,-1.5 0.55,-1.45 0.2,-1.2 q -6.3,-0.1 -10.9,-1.3 m 35.55,-33.6 -1.3,0.15 -18.2,3.15 -2.45,0.65 -0.95,0.7 0.75,-0.2 1.45,0.35 q 0.65,0.4 0.95,1.15 0.3,0.75 0.05,1.45 -0.2,0.75 -0.8,1.25 -0.6,0.5 -1.35,0.55 -0.75,0.05 -1.4,-0.35 -0.65,-0.4 -0.95,-1.1 -0.25,-0.7 -0.1,-1.5 l 0.3,-0.65 -8,7.2 -1.1,1.25 q -0.4,0.7 -0.4,2 v 0.1 q -0.15,4.8 0.2,9.5 l 0.1,1.5 q 0,0.9 0.4,1.35 l 1.2,0.4 7.65,0.45 7.65,-0.25 8.7,-0.45 2.7,-0.25 2.55,-0.95 L 4.1,5.4 Q 5.4,4.8 5.75,4.2 L 6,2.8 6.05,1.05 5.65,-5.7 5.45,-6.75 4.55,-7.95 1,-11.85 q -2.2,-2.45 -3.75,-3.75 l -1.7,-1.1 -1.25,-0.1 m -30.05,16.55 -0.15,-0.5 q 0.05,-0.5 0.65,-0.7 l 0.95,-0.1 1.95,-0.25 1.9,-0.45 3.05,-0.35 3.05,-0.4 1.45,-0.35 3.4,-0.4 3.05,-0.4 1.55,-0.15 0.6,-0.55 1.75,-1.85 6,-7.4 q 0.8,-0.9 1.3,-0.8 l 0.25,0.05 0.45,0.5 q 0.25,0.45 0.1,0.95 -0.15,0.55 -1.15,1.5 l -1.8,2.1 -1.75,2.7 -1.75,2.7 -0.55,0.75 4.8,0.05 2.65,0.25 1.05,-0.1 0.95,0.1 1.55,-0.05 0.75,0.35 0.15,0.75 q -0.2,0.45 -1.15,0.45 l -3.1,0.65 -1.65,0.35 -5.3,0.5 -1.05,0.25 -0.05,0.05 0.9,5.5 0.15,0.7 q 0.1,0.9 -0.05,1.55 -0.4,1.35 -1.45,1.5 -1.1,0.2 -1.85,-1 l -0.3,-0.85 -0.35,-1.3 -1,-6.45 -2.75,0.1 h -3.2 L -24.2,-0.05 -30,0.2 -34.25,0.25 -35.3,0.1 -35.75,-0.25 m 21.2,-11.65 q 0.05,-0.7 0.5,-1.3 0.5,-0.6 1.2,-0.8 l 1.4,0.15 q 0.7,0.3 1.05,0.95 0.35,0.6 0.3,1.35 -0.1,0.75 -0.6,1.3 -0.5,0.55 -1.25,0.65 l -1.4,-0.2 q -1.3,-0.7 -1.2,-2.1 M 37,-12.15 37.05,-12.6 q 0.2,-1 0,-1.6 l -0.95,-1.25 -6.65,-6.8 -1.8,-2.05 -0.7,-0.9 -2.45,0.35 -0.4,0.05 -16.1,1.65 -1.4,0.4 -0.9,1.15 -2.8,4.45 -0.3,0.4 1.45,1.55 0.85,1.1 0.75,0.95 1.7,1.95 1.15,1.1 1,1.2 0.95,2.35 0.1,0.3 0.3,2.2 h 0.95 q 6.15,0.65 11.1,2.3 l 1.7,0.45 1.85,-0.35 9.2,-2.6 q 0.7,-0.2 1,-0.55 l 0.15,-1 -0.05,-1.25 0.25,-5.1 m -13.45,-2.7 0.25,-1.3 0.2,-0.6 0.45,-1 0.25,-1.85 0.2,-0.5 0.1,-0.7 0.25,-0.7 0.1,-0.25 0.15,-0.45 q 0.25,-0.4 0.75,-0.4 0.5,0 0.75,0.4 v 0.05 l 0.1,0.85 -0.05,0.95 -0.1,0.75 -0.2,0.55 -0.05,1.2 -0.15,0.55 0.1,0.3 0.1,1.15 0.1,0.5 v 0.4 l 3.45,0.05 1.55,0.05 1.2,-0.1 h 0.05 l 1.25,0.05 1.1,0.85 v 0.75 l -0.25,0.45 -0.3,0.15 -0.95,0.25 -2.75,0.15 -3.25,-0.05 -0.4,0.05 -0.35,0.2 -0.1,0.5 -0.3,1.25 -0.05,1.75 -0.1,2.85 -0.15,0.9 -0.1,0.75 -0.2,0.55 -0.65,0.45 Q 25.15,-3 24.8,-3.35 24.55,-3.6 24.45,-4.3 l -0.15,-1.1 -0.1,-1.3 -0.05,-1 -0.35,-1.5 -0.05,-1.3 -0.1,-0.85 0.05,-1.05 0.05,-0.2 q -0.35,-0.65 -0.3,-1.45 l 0.1,-0.8 M 35.5,5.2 35.65,4.85 35.6,4.05 34.9,1.1 33.3,1.5 31.05,2.15 31.1,2.75 31.05,4.2 31,6.65 30.95,7.65 30.7,9.1 30.35,9.95 q -0.4,0.5 -0.85,0.35 -0.45,-0.1 -0.6,-0.5 L 28.65,9.05 28.6,8.75 28.1,5.7 V 4.35 L 27.9,3.3 q -2.1,1 -2.95,1 H 24.9 l 0.35,2.35 v 1.9 L 25.4,9.65 25.35,9.8 25.2,10.45 28.7,12.9 35.25,5.55 35.5,5.2 M 12,1.15 11.05,1 l -0.2,3.75 0.9,0.1 1.8,0.45 1,0.15 0.95,0.25 1.2,0.4 1.5,0.15 1.5,0.45 1.45,0.35 L 20.95,4 Q 20.9,3.5 21,3.1 17.3,1.8 12,1.15 m -7.2,9.4 -2.35,1.15 -2.3,1.2 -1.9,0.75 v 0.05 l 0.3,1.85 L -1,15.4 2.95,14.2 Q 5.35,13.5 7,13.55 L 7.6,13.35 7.65,13 7.4,9.85 4.8,10.55 M -5.6,19 l -0.5,-3.45 -0.4,0.2 -1.95,0.95 -3.1,0.5 -0.3,0.8 -0.5,0.65 -0.7,1.9 -0.55,1 -0.4,1.1 -0.3,0.7 -0.35,1.25 -0.2,0.7 -0.45,0.4 -0.6,0.15 q -0.7,0 -0.8,-0.65 l 0.4,-2.8 0.1,-0.75 0.15,-0.85 0.25,-0.8 0.1,-0.8 0.3,-1 -0.05,-0.8 -10.9,0.6 -0.35,1.45 q -0.25,0.8 -0.1,1.1 l 0.2,0.3 0.55,0.5 8.55,6.1 q 0.45,0.35 0.8,0.35 l 0.7,-0.25 9.9,-5.7 0.65,-0.55 Q -5.3,21 -5.4,20.2 L -5.6,19"
         fill="#000000"
         fill-rule="evenodd"
         stroke="none"
         id="path1" />
      <path
         d="m -39.2,-0.75 q 0,-1.3 0.4,-2 l 1.1,-1.25 8,-7.2 -0.3,0.65 q -0.15,0.8 0.1,1.5 0.3,0.7 0.95,1.1 0.65,0.4 1.4,0.35 0.75,-0.05 1.35,-0.55 0.6,-0.5 0.8,-1.25 0.25,-0.7 -0.05,-1.45 -0.3,-0.75 -0.95,-1.15 l -1.45,-0.35 -0.75,0.2 0.95,-0.7 2.45,-0.65 18.2,-3.15 1.3,-0.15 0.6,0.9 q 0.2,0.45 0.1,1.05 l -0.25,-0.05 q -0.5,-0.1 -1.3,0.8 l -6,7.4 -1.75,1.85 -0.6,0.55 -1.55,0.15 -3.05,0.4 -3.4,0.4 -1.45,0.35 -3.05,0.4 -3.05,0.35 -1.9,0.45 -1.95,0.25 -0.95,0.1 q -0.6,0.2 -0.65,0.7 l 0.15,0.5 -0.85,0.1 -1.85,-0.1 -0.75,-0.5 M 4.9,-14.1 4.05,-15.2 2.6,-16.75 l 0.3,-0.4 2.8,-4.45 0.9,-1.15 1.4,-0.4 16.1,-1.65 0.4,-0.05 2.45,-0.35 0.7,0.9 1.8,2.05 6.65,6.8 0.95,1.25 q 0.2,0.6 0,1.6 l -0.05,0.45 -0.55,-0.1 q -0.6,-0.15 -1.25,-0.6 l 0.25,-0.45 v -0.75 l -1.1,-0.85 -1.25,-0.05 h -0.05 q -0.2,-0.15 -0.3,-0.25 l -2,-1.6 -1.9,-1.8 -1.8,-1.75 0.05,-0.95 -0.1,-0.85 v -0.05 q -0.25,-0.4 -0.75,-0.4 -0.5,0 -0.75,0.4 l -0.15,0.45 -0.1,0.25 -0.25,0.7 -0.1,0.7 -0.2,0.5 -0.25,1.85 -0.45,1 -0.2,0.6 -0.25,1.3 -2.85,0.3 h -6.85 l -7.55,0.25 -1.4,0.2 m -19.45,2.2 q -0.1,1.4 1.2,2.1 l 1.4,0.2 q 0.75,-0.1 1.25,-0.65 0.5,-0.55 0.6,-1.3 0.05,-0.75 -0.3,-1.35 -0.35,-0.65 -1.05,-0.95 l -1.4,-0.15 q -0.7,0.2 -1.2,0.8 -0.45,0.6 -0.5,1.3"
         fill="#686868"
         fill-rule="evenodd"
         stroke="none"
         id="path2" />
      <path
         d="m -39.2,-0.75 0.75,0.5 1.85,0.1 0.85,-0.1 0.45,0.35 1.05,0.15 4.25,-0.05 5.8,-0.25 2.45,-0.25 h 3.2 l 2.75,-0.1 1,6.45 0.35,1.3 -0.9,0.15 -4.8,0.05 -7.9,0.55 -7.95,0.55 -3,0.2 q -0.35,-4.7 -0.2,-9.5 v -0.1 M -5,-14.85 q 0.1,-0.6 -0.1,-1.05 l -0.6,-0.9 1.25,0.1 1.7,1.1 q 1.55,1.3 3.75,3.75 l 3.55,3.9 0.9,1.2 0.2,1.05 0.4,6.75 L 4.5,1.1 Q 0.95,1.7 -4,3.55 l -6.8,2.6 -0.15,-0.7 -0.9,-5.5 0.05,-0.05 1.05,-0.25 5.3,-0.5 1.65,-0.35 3.1,-0.65 q 0.95,0 1.15,-0.45 L 0.3,-3.05 -0.45,-3.4 -2,-3.35 -2.95,-3.45 -4,-3.35 -6.65,-3.6 l -4.8,-0.05 0.55,-0.75 1.75,-2.7 1.75,-2.7 1.8,-2.1 q 1,-0.95 1.15,-1.5 0.15,-0.5 -0.1,-0.95 L -5,-14.85 m 9.9,0.75 1.4,-0.2 7.55,-0.25 h 6.85 l 2.85,-0.3 -0.1,0.8 q -0.05,0.8 0.3,1.45 l -0.05,0.2 -0.05,1.05 0.1,0.85 0.05,1.3 0.35,1.5 0.05,1 0.1,1.3 -1.5,0.05 L 19.55,-5.9 17,-6.05 14.5,-6.2 12,-6.5 10.55,-6.25 10.45,-6.55 9.5,-8.9 8.5,-10.1 7.35,-11.2 5.65,-13.15 4.9,-14.1 m 22.15,-6.25 1.8,1.75 1.9,1.8 2,1.6 q 0.1,0.1 0.3,0.25 l -1.2,0.1 -1.55,-0.05 -3.45,-0.05 v -0.4 l -0.1,-0.5 -0.1,-1.15 -0.1,-0.3 0.15,-0.55 0.05,-1.2 0.2,-0.55 0.1,-0.75 m 8.15,7.5 q 0.65,0.45 1.25,0.6 l 0.55,0.1 -0.25,5.1 h -0.5 l -9.3,1.25 -0.3,0.05 0.1,-2.85 0.05,-1.75 0.3,-1.25 0.1,-0.5 0.35,-0.2 0.4,-0.05 3.25,0.05 2.75,-0.15 0.95,-0.25 0.3,-0.15 M 30.95,7.65 34.3,5.9 35.5,5.2 35.25,5.55 28.7,12.9 25.2,10.45 25.35,9.8 25.4,9.65 l 0.4,-0.1 2.8,-0.8 0.05,0.3 0.25,0.75 q 0.15,0.4 0.6,0.5 0.45,0.15 0.85,-0.35 L 30.7,9.1 30.95,7.65 m -44.95,15 0.9,-0.25 q 3.5,-0.9 6.6,-2.8 l 0.9,-0.6 0.2,1.2 q 0.1,0.8 -0.05,1.1 l -0.65,0.55 -9.9,5.7 -0.7,0.25 q -0.35,0 -0.8,-0.35 l -8.55,-6.1 -0.55,-0.5 0.3,0.1 3.7,0.45 3.25,0.3 2.35,0.4 0.7,0.3 -0.4,2.8 q 0.1,0.65 0.8,0.65 l 0.6,-0.15 0.45,-0.4 0.2,-0.7 0.35,-1.25 0.3,-0.7"
         fill="#363636"
         fill-rule="evenodd"
         stroke="none"
         id="path3" />
      <path
         d="M 6.05,1.05 6,2.8 5.75,4.2 Q 5.4,4.8 4.1,5.4 l -12.15,5.25 -2.55,0.95 -2.7,0.25 -8.7,0.45 -7.65,0.25 -7.65,-0.45 -1.2,-0.4 q -0.4,-0.45 -0.4,-1.35 l -0.1,-1.5 3,-0.2 7.95,-0.55 7.9,-0.55 4.8,-0.05 0.9,-0.15 0.3,0.85 q 0.75,1.2 1.85,1 1.05,-0.15 1.45,-1.5 0.15,-0.65 0.05,-1.55 L -4,3.55 Q 0.95,1.7 4.5,1.1 L 6.05,1.05 m 30.7,-8.1 0.05,1.25 -0.15,1 q -0.3,0.35 -1,0.55 l -9.2,2.6 -1.85,0.35 -1.7,-0.45 Q 17.95,-3.4 11.8,-4.05 h -0.95 l -0.3,-2.2 1.45,-0.25 2.5,0.3 2.5,0.15 2.55,0.15 3.25,0.55 1.5,-0.05 0.15,1.1 q 0.1,0.7 0.35,0.95 0.35,0.35 0.75,0.25 l 0.65,-0.45 0.2,-0.55 0.1,-0.75 0.15,-0.9 0.3,-0.05 9.3,-1.25 h 0.5"
         fill="#404040"
         fill-rule="evenodd"
         stroke="none"
         id="path4" />
      <path
         d="M 30.95,7.65 31,6.65 31.05,4.2 31.1,2.75 31.05,2.15 33.3,1.5 34.9,1.1 35.6,4.05 35.65,4.85 35.5,5.2 34.3,5.9 30.95,7.65 m -5.55,2 -0.15,-1.1 V 6.65 L 24.9,4.3 h 0.05 q 0.85,0 2.95,-1 l 0.2,1.05 V 5.7 l 0.5,3.05 -2.8,0.8 -0.4,0.1 M 12,1.15 Q 17.3,1.8 21,3.1 20.9,3.5 20.95,4 L 21.15,7.05 19.7,6.7 18.2,6.25 16.7,6.1 15.5,5.7 14.55,5.45 13.55,5.3 11.75,4.85 10.85,4.75 11.05,1 12,1.15 M 4.8,10.55 7.4,9.85 7.65,13 7.6,13.35 7,13.55 Q 5.35,13.5 2.95,14.2 L -1,15.4 -1.45,15.55 -1.75,13.7 v -0.05 l 1.9,-0.75 2.3,-1.2 2.35,-1.15 m -18.8,12.1 0.4,-1.1 0.55,-1 0.7,-1.9 0.5,-0.65 0.3,-0.8 3.1,-0.5 1.95,-0.95 0.4,-0.2 0.5,3.45 -0.9,0.6 q -3.1,1.9 -6.6,2.8 l -0.9,0.25 m -12.6,-1.8 -0.2,-0.3 q -0.15,-0.3 0.1,-1.1 l 0.35,-1.45 10.9,-0.6 0.05,0.8 -0.3,1 -0.1,0.8 -0.25,0.8 -0.15,0.85 -0.1,0.75 -0.7,-0.3 -2.35,-0.4 -3.25,-0.3 -3.7,-0.45 -0.3,-0.1"
         fill="#222222"
         fill-rule="evenodd"
         stroke="none"
         id="path5" />
    </g>
    <g
       id="sprite1"
       transform="translate(17.4,15.85)">
      <use
         ffdec:characterId="31"
         height="57.200001"
         transform="matrix(0.5366,0,0,0.5366,-16.6582,-14.546)"
         width="70.75"
         xlink:href="#sprite2"
         id="use5" />
    </g>
    <g
       id="sprite2"
       transform="translate(-8.65,-10.35)">
      <use
         ffdec:characterId="30"
         height="57.200001"
         transform="translate(8.65,10.35)"
         width="70.75"
         xlink:href="#shape1"
         id="use6" />
    </g>
    <g
       id="shape1"
       transform="translate(-8.65,-10.35)">
      <path
         d="m 14.8,41.7 q 0.65,-1.75 2.65,-2.5 1.8,-0.8 3.7,-0.25 1.15,0.45 2.25,1.2 l 0.9,0.4 q 1.65,0.9 2.85,2.5 L 37.8,30.1 q 2.35,-2.8 3.75,-3.95 1.5,-1.15 4.25,-2.4 18.2,-8.85 27.65,-12.6 2.15,-0.8 3.25,-0.8 h 0.8 l 1.9,2.4 -0.2,0.8 q -0.2,1.1 -1.55,3 -5.85,8.25 -18.85,23.8 -1.85,2.35 -3.35,3.5 -1.4,1.15 -4.75,2.75 l -15.15,7.15 q 1.2,1.6 1.75,3.4 l 0.2,1 0.55,2.5 q 0.1,1.95 -1.1,3.55 -1.2,1.65 -3.05,1.9 l -1.3,0.05 q -1.65,0.2 -3.45,-0.65 -1.85,-0.9 -3,-2.6 L 25,60.95 23.8,62.1 q -2.6,2.85 -4.3,3.95 -2.85,1.8 -5.5,1.45 l -1.65,-0.5 -1.2,-0.7 -0.2,-0.2 q -1,-0.85 -1.6,-1.9 L 9.25,64 9.15,63.8 8.75,62.4 q -0.2,-0.8 -0.05,-1.7 0.25,-2.65 2.7,-5.05 1.5,-1.3 4.9,-3.15 L 17.7,51.55 16.05,50 q -1.35,-1.5 -1.8,-3.6 -0.4,-1.85 0.25,-3.45 l 0.3,-1.25"
         fill="#000000"
         fill-opacity="0.372549"
         fill-rule="evenodd"
         stroke="none"
         id="path6" />
    </g>
  </defs>
</svg>
