<?xml version="1.0" encoding="UTF-8" standalone="no"?>
<svg
   ffdec:objectType="frame"
   height="55.307896"
   width="83.075989"
   version="1.1"
   id="svg4"
   sodipodi:docname="ITEM Nurse Mask.svg"
   xmlns:inkscape="http://www.inkscape.org/namespaces/inkscape"
   xmlns:sodipodi="http://sodipodi.sourceforge.net/DTD/sodipodi-0.dtd"
   xmlns:xlink="http://www.w3.org/1999/xlink"
   xmlns="http://www.w3.org/2000/svg"
   xmlns:svg="http://www.w3.org/2000/svg"
   xmlns:ffdec="https://www.free-decompiler.com/flash">
  <sodipodi:namedview
     id="namedview4"
     pagecolor="#ffffff"
     bordercolor="#000000"
     borderopacity="0.25"
     inkscape:showpageshadow="2"
     inkscape:pageopacity="0.0"
     inkscape:pagecheckerboard="0"
     inkscape:deskcolor="#d1d1d1"
     fit-margin-top="5"
     fit-margin-left="5"
     fit-margin-right="5"
     fit-margin-bottom="5" />
  <g
     transform="translate(45.53125,29.5)"
     id="g1">
    <use
       ffdec:characterId="17"
       height="119.15"
       id="rarity"
       transform="translate(-58.5,-60.65)"
       width="119.15"
       xlink:href="#sprite0" />
    <use
       ffdec:characterId="1039"
       height="55.299999"
       transform="translate(-45.55,-29.5)"
       width="83.099998"
       xlink:href="#shape0"
       id="use1" />
  </g>
  <defs
     id="defs4">
    <g
       id="shape0"
       transform="translate(92.35,30.85)">
      <path
         d="m -28,-22.05 -1.2,-1.9 q -0.85,-1.15 -1.35,-1.4 l -2.1,-0.2 q -12.65,1.5 -32.5,5 l 2.8,3.55 2.5,4.05 1.5,3 1.15,2.95 q 0.75,2.15 1.2,4.2 0.3,1.35 0.45,2.7 0.3,2.3 0.15,4.4 -0.25,3.55 -2.1,9.5 11.45,-2.8 21.75,-6.85 6.1,-2.35 9.3,-4.75 L -26,1.85 -25.2,0.8 -25,-0.1 q -3.45,1.6 -8.9,3.25 -9.1,2.8 -18.2,5.1 L -53.3,8.3 -53.4,8.25 -53.6,8 l 0.45,-0.5 17.8,-6.45 q 6.7,-2.4 10.45,-4.35 l 0.15,-2.15 0.1,-1.15 0.4,-2.7 -11.4,2.4 -10.05,1.85 -3.2,0.55 -4.15,0.6 q -0.6,0.1 -0.85,-0.15 -0.35,-0.4 0.1,-0.85 l 0.85,-0.4 14.15,-3.55 11.45,-2.7 3.2,-0.7 q -0.2,-2.55 -1.5,-5.45 l -0.45,-0.95 -0.35,0.05 -21.55,3.3 -3.85,0.7 -2.25,0.5 q -1.35,0.2 -2.25,0 h -0.05 q -0.55,-0.1 -0.7,-0.45 -0.15,-0.4 0.25,-0.7 l 0.75,-0.3 11.85,-2.3 3.8,-0.65 4.3,-1 8.05,-2 0.4,-0.05 -0.3,-0.5 m -32.65,30.3 q 0.55,-4.25 0.4,-6.75 -0.35,-5.05 -3.1,-10.55 -2.75,-5.5 -7.2,-9.95 l -1.05,-1.1 q -0.7,0.85 -0.85,2.3 l 0.1,3 q 0.65,6.8 -1.65,13.45 -1.25,3.65 -3.4,4.95 -1.05,0.65 -3.45,1.3 -3.65,1.4 -5.45,4.9 -1.75,3.55 -0.65,7.3 0.7,2.25 2.15,2.5 0.9,0.15 1.85,-0.55 l 1.5,-1.45 q 1.9,-1.95 4.15,-3.2 2,-1.15 3.9,-1.3 2.35,-0.15 3.8,1.2 l 1.4,1.8 q 0.85,1.1 1.6,1.45 l 1.6,0.25 1.7,-0.1 0.65,0.05 q 1.35,-4.9 2,-9.5 m 29.85,-39.1 q 2.15,0 3.2,0.6 0.95,0.5 2.3,2.6 2.8,4.4 4.25,7.5 l 0.4,-0.25 2,0.1 2.7,0.7 q 2.25,0.75 3.9,2.55 1.65,1.8 2.35,4.1 0.65,2.25 0.35,4.7 -0.35,2.4 -1.55,4.5 l -0.95,1.55 -0.7,1.6 q -0.25,1.05 -0.1,2.65 l 0.25,2.65 q 0.1,2.8 -1.55,5.25 -1.7,2.5 -4.3,3.45 l -3.6,0.15 q -1.35,-0.65 -1.95,-2.25 -0.45,-1.2 -0.35,-3 L -24,6.6 q -2.85,1.95 -7.95,4.05 l -6.9,2.65 -6.6,2.15 -15.35,4.85 q -0.4,0.75 -1.7,1.35 -2.45,1.1 -5.2,0.35 -2.75,-0.8 -4.25,-3 l -0.95,-1.05 -1.75,0.1 q -1.5,0.6 -3.55,2.75 -2.15,2.25 -3.4,2.9 -2.35,1.2 -4.75,0.5 -1.75,-0.45 -3.15,-1.8 -1.3,-1.25 -2.05,-3.05 -1.25,-3.15 -0.5,-7.2 0.7,-4.35 3.3,-7.5 2.85,-3.5 6.85,-4.4 l 1.3,-0.3 q 0.7,-0.2 1.15,-0.55 0.6,-0.5 1.05,-1.65 1.75,-3.95 1.9,-8.3 l -0.05,-3.7 0.2,-3.7 q 0.35,-2 1.25,-3.55 1.05,-1.65 2.55,-2.35 l 0.15,-0.2 q 0.65,-0.9 2.7,-1.2 l 25.45,-4.1 13.45,-1.5 m 11.7,21.45 -0.5,2.65 -0.4,2.65 0.05,3.5 q 0.05,2.1 -0.45,3.35 l -0.15,0.35 -0.25,0.85 q -0.7,2.35 -0.45,4.8 0.1,1.55 1,1.75 0.5,0.15 1.4,-0.4 2.1,-1.25 2.85,-2.5 0.9,-1.65 0.5,-5.1 l -0.2,-2.65 q -0.05,-1.5 0.4,-2.55 l 1.35,-2.1 q 2.05,-3.3 1.2,-6.6 -0.4,-1.7 -1.65,-3 -1.25,-1.35 -2.85,-1.75 l -2.5,-0.5 q 1.1,3.8 0.65,7.25"
         fill="#000000"
         fill-rule="evenodd"
         stroke="none"
         id="path1" />
      <path
         d="m -62.35,-17 1,-0.15 32.5,-4.8 0.85,-0.1 0.3,0.5 -0.4,0.05 -8.05,2 -4.3,1 -3.8,0.65 -11.85,2.3 -0.75,0.3 q -0.4,0.3 -0.25,0.7 0.15,0.35 0.7,0.45 l -0.45,0.1 q -1.95,0.45 -2.75,0.85 l -0.25,0.2 -2.5,-4.05 m 35,5.45 -11.45,2.7 -14.15,3.55 -0.85,0.4 q -0.45,0.45 -0.1,0.85 0.25,0.25 0.85,0.15 l 4.15,-0.6 -6.6,1.55 -0.5,0.15 q -0.45,-2.05 -1.2,-4.2 l -1.15,-2.95 3.45,-0.1 15.9,-1.95 10.05,-1.65 q 0.45,1.4 1.6,2.1 m 2.6,6.1 -0.15,2.15 q -3.75,1.95 -10.45,4.35 l -17.8,6.45 -0.45,0.5 0.2,0.25 -0.2,0.15 -0.15,0.35 Q -53.7,9 -53.2,9.1 -49.85,9.55 -43.85,7.95 -32.4,4.9 -26,1.85 l -0.45,0.35 q -3.2,2.4 -9.3,4.75 -10.3,4.05 -21.75,6.85 1.85,-5.95 2.1,-9.5 0.15,-2.1 -0.15,-4.4 l 2.9,-0.2 19.7,-3.15 5.2,-1 q 1.65,-0.45 3,-1"
         fill="#9dbcb7"
         fill-rule="evenodd"
         stroke="none"
         id="path2" />
      <path
         d="m -62.35,-17 -2.8,-3.55 q 19.85,-3.5 32.5,-5 l 2.1,0.2 q 0.5,0.25 1.35,1.4 l 1.2,1.9 -0.85,0.1 -32.5,4.8 -1,0.15 m 5.95,2.9 h 0.05 q 0.9,0.2 2.25,0 l 2.25,-0.5 3.85,-0.7 21.55,-3.3 0.35,-0.05 0.45,0.95 q 1.3,2.9 1.5,5.45 l -3.2,0.7 q -1.15,-0.7 -1.6,-2.1 L -39,-12 l -15.9,1.95 -3.45,0.1 -1.5,-3 0.25,-0.2 q 0.8,-0.4 2.75,-0.85 l 0.45,-0.1 m 7.5,9.6 3.2,-0.55 10.05,-1.85 11.4,-2.4 -0.4,2.7 -0.1,1.15 q -1.35,0.55 -3,1 l -5.2,1 -19.7,3.15 -2.9,0.2 Q -55.7,-1.45 -56,-2.8 l 0.5,-0.15 6.6,-1.55 m -4.5,12.75 0.1,0.05 1.2,-0.05 q 9.1,-2.3 18.2,-5.1 5.45,-1.65 8.9,-3.25 l -0.2,0.9 -0.8,1.05 q -6.4,3.05 -17.85,6.1 -6,1.6 -9.35,1.15 -0.5,-0.1 -0.55,-0.35 l 0.15,-0.35 0.2,-0.15"
         fill="#ceddda"
         fill-rule="evenodd"
         stroke="none"
         id="path3" />
    </g>
    <g
       id="sprite1"
       transform="translate(17.4,15.85)">
      <use
         ffdec:characterId="31"
         height="57.200001"
         transform="matrix(0.5366,0,0,0.5366,-16.6582,-14.546)"
         width="70.75"
         xlink:href="#sprite2"
         id="use3" />
    </g>
    <g
       id="sprite2"
       transform="translate(-8.65,-10.35)">
      <use
         ffdec:characterId="30"
         height="57.200001"
         transform="translate(8.65,10.35)"
         width="70.75"
         xlink:href="#shape1"
         id="use4" />
    </g>
    <g
       id="shape1"
       transform="translate(-8.65,-10.35)">
      <path
         d="m 14.8,41.7 q 0.65,-1.75 2.65,-2.5 1.8,-0.8 3.7,-0.25 1.15,0.45 2.25,1.2 l 0.9,0.4 q 1.65,0.9 2.85,2.5 L 37.8,30.1 q 2.35,-2.8 3.75,-3.95 1.5,-1.15 4.25,-2.4 18.2,-8.85 27.65,-12.6 2.15,-0.8 3.25,-0.8 h 0.8 l 1.9,2.4 -0.2,0.8 q -0.2,1.1 -1.55,3 -5.85,8.25 -18.85,23.8 -1.85,2.35 -3.35,3.5 -1.4,1.15 -4.75,2.75 l -15.15,7.15 q 1.2,1.6 1.75,3.4 l 0.2,1 0.55,2.5 q 0.1,1.95 -1.1,3.55 -1.2,1.65 -3.05,1.9 l -1.3,0.05 q -1.65,0.2 -3.45,-0.65 -1.85,-0.9 -3,-2.6 L 25,60.95 23.8,62.1 q -2.6,2.85 -4.3,3.95 -2.85,1.8 -5.5,1.45 l -1.65,-0.5 -1.2,-0.7 -0.2,-0.2 q -1,-0.85 -1.6,-1.9 L 9.25,64 9.15,63.8 8.75,62.4 q -0.2,-0.8 -0.05,-1.7 0.25,-2.65 2.7,-5.05 1.5,-1.3 4.9,-3.15 L 17.7,51.55 16.05,50 q -1.35,-1.5 -1.8,-3.6 -0.4,-1.85 0.25,-3.45 l 0.3,-1.25"
         fill="#000000"
         fill-opacity="0.372549"
         fill-rule="evenodd"
         stroke="none"
         id="path4" />
    </g>
  </defs>
</svg>
