<?xml version="1.0" encoding="UTF-8" standalone="no"?>
<svg
   ffdec:objectType="frame"
   height="53.396152"
   width="71.890198"
   version="1.1"
   id="svg5"
   xmlns:xlink="http://www.w3.org/1999/xlink"
   xmlns="http://www.w3.org/2000/svg"
   xmlns:svg="http://www.w3.org/2000/svg"
   xmlns:ffdec="https://www.free-decompiler.com/flash">
  <g
     transform="translate(36.466667,27.85)"
     id="g1">
    <use
       ffdec:characterId="17"
       height="119.15"
       id="rarity"
       transform="translate(-58.5,-60.65)"
       width="119.15"
       xlink:href="#sprite0" />
    <use
       ffdec:characterId="380"
       height="53.450001"
       transform="translate(-36.45,-27.9)"
       width="71.849998"
       xlink:href="#shape0"
       id="use1" />
  </g>
  <defs
     id="defs5">
    <g
       id="shape0"
       transform="translate(36.15,30.4)">
      <path
         d="m -32.75,21.45 q -1.15,-1.25 -1.4,-4.35 -1.05,-11.85 -1.9,-27.7 -0.35,-8.2 0.35,-11.95 0.4,-2.5 1.6,-3.5 0.75,-0.7 2.85,-1.1 7.75,-1.5 19.45,-1.9 l 19.55,-0.75 9.8,-0.55 9.65,0.6 q 2.35,0.5 3.6,1.4 1.45,1.15 2.1,3.35 0.4,1.45 0.65,4.1 L 35.3,3 q 0.6,6.85 0.35,10.75 -0.3,3.6 -1.9,4.95 -1.15,1.1 -3.9,1.55 l -19,1.4 q -16.75,0.25 -19.1,0.4 l -9.9,0.75 q -5.9,0.4 -9.95,0.15 -3.3,-0.1 -4.65,-1.5 m 9.4,-32.75 -0.65,-0.65 q -0.7,-0.85 -0.6,-1.95 0.05,-1 0.9,-1.85 0.7,-0.65 1.85,-0.8 l 2,-0.1 1.3,0.15 1.1,0.4 0.85,0.35 2.3,-0.6 1.45,-0.1 q 1.7,0 3.2,0.6 l 1.75,-1 1.95,-0.35 q 1.4,0.1 2.25,0.85 0.65,0.65 0.7,1.35 0.2,0.9 -0.25,2.05 l -0.55,1.45 q -0.75,1.55 -1.45,1.95 0,1.4 -0.55,2.9 L -6.6,-5 q -1.25,1.8 -3.75,2.8 l 0.3,0.6 1.15,3.4 1.55,0.2 q 0.8,0.25 1.35,0.65 1,0.85 1.3,2.1 0.55,2.15 -0.8,4 1.35,1.2 1.2,2.9 l -0.45,1.3 -0.2,0.2 Q -5.5,13.8 -6.3,14 l -1.75,-0.05 -1.95,-0.6 -0.75,-0.5 q -1.95,1.25 -4.15,0.7 h -0.15 l -0.3,0.2 -1.05,0.65 -1.8,0.35 -1.95,-0.3 q -0.95,-0.45 -1.4,-1.3 l -1.35,-0.3 q -1.6,-0.5 -2.35,-1.15 -0.9,-0.75 -1.45,-1.9 l -0.75,-2.25 q -0.4,-1.7 -0.05,-3.45 l 0.4,-1.65 q 0.95,-2.85 3.05,-4.1 l 1.7,-0.55 1.65,0.15 q 1.15,0.3 1.65,0.8 0.65,0.75 0.45,1.65 -0.15,0.95 -1.05,1.35 l -1.3,0.4 q -0.95,0.55 -1.25,2.3 l -0.05,0.4 q 0.65,-1.1 2.3,-2.15 l 0.9,-0.45 1,-0.15 H -18 q 0.45,-1.7 1.3,-3.35 l 0.25,-0.5 q -1.65,-0.55 -2.85,-1.85 -0.8,-0.8 -1.1,-1.55 l -0.55,-2.05 -0.2,-2.05 -0.6,-0.6 -1.4,-1.25 -0.2,-0.2 m 30.15,-6.65 1.1,0.3 0.95,0.5 0.8,0.5 0.3,-0.1 4.35,-0.4 2.3,0.6 0.85,-0.35 1.1,-0.4 1.3,-0.15 2,0.1 0.5,0.1 1.15,0.55 0.2,0.15 q 0.85,0.85 0.9,1.85 0.1,1.1 -0.6,1.95 l -0.85,0.85 -0.4,0.35 -1,0.9 -0.6,0.6 -0.2,2.05 -0.55,2.05 q -0.3,0.75 -1.1,1.55 -1.2,1.3 -2.85,1.85 l 0.25,0.5 Q 17.55,-0.4 18,1.3 h 0.05 l 1,0.15 0.9,0.45 q 1.65,1.05 2.3,2.15 L 22.2,3.65 Q 21.9,1.9 20.95,1.35 l -1.3,-0.4 q -0.9,-0.4 -1.05,-1.35 -0.2,-0.9 0.45,-1.65 0.5,-0.5 1.65,-0.8 l 1.65,-0.15 1.7,0.55 q 2.1,1.25 3.05,4.1 l 0.2,0.8 0.2,0.85 q 0.3,1.5 0.1,3 -0.25,1.35 -0.9,2.7 -0.55,1.15 -1.45,1.9 -0.75,0.65 -2.35,1.15 l -1.35,0.3 q -0.45,0.85 -1.4,1.3 l -1.95,0.3 -1.8,-0.35 -1.05,-0.65 -0.3,-0.2 H 14.9 l -1.4,0.2 Q 12.05,12.9 10.75,12.05 L 10,12.55 8.05,13.15 6.3,13.2 Q 5.5,13 4.95,12.35 L 4.6,11.8 4.3,10.85 Q 4.15,9.15 5.5,7.95 4.15,6.1 4.7,3.95 5,2.7 6,1.85 6.55,1.45 7.35,1.2 L 8.9,1 10.05,-2.4 10.35,-3 Q 7.85,-4 6.6,-5.8 L 5.8,-7.45 q -0.55,-1.5 -0.55,-2.9 -0.7,-0.4 -1.45,-1.95 L 3.25,-13.75 Q 2.8,-14.9 3,-15.8 3.05,-16.5 3.7,-17.15 4.55,-17.9 5.95,-18 l 0.85,0.05 m 22.05,8.6 -0.15,-2.1 -0.8,-10.05 q -0.05,-1.45 -0.6,-2.05 -0.55,-0.6 -1.8,-0.8 l -6.6,-0.25 -27.55,1.2 -0.6,0.05 -18.8,1.5 -1.35,0.5 q -0.55,0.4 -0.85,1.55 -0.4,1.75 -0.2,4.65 l 0.1,2.9 0.15,4.1 0.9,15.85 0.35,4.75 0.3,3.95 0.4,1.15 1.3,0.35 7.35,-0.35 7.4,-0.55 1.55,-0.1 15.35,-0.4 3.45,-0.05 16.7,-1 3.65,-0.55 q 0.8,-0.15 1.1,-0.5 L 29.8,13.35 29.65,5.05 29.5,1.3 28.85,-9.35 m -11.8,2.85 q 0.6,-0.9 0.65,-1.55 l -0.2,-1 q -0.35,-0.9 -1.1,-1.5 -0.8,-0.65 -1.75,-0.8 H 13.1 l -0.55,-0.05 -0.5,-0.5 q 0.4,-0.55 1.25,-0.55 0.65,0.05 1.35,0.5 0.6,0.4 0.95,0.45 0.5,0.1 0.85,-0.25 0.35,-0.3 0.35,-0.85 l -0.35,-0.85 -0.55,-0.7 -0.9,-0.65 q -1.3,-0.7 -2.85,-0.35 -1.45,0.4 -2.4,1.55 -0.5,0.6 -0.65,1.3 -0.15,0.75 0.2,1.4 l 0.55,0.7 1.45,1.4 1.75,0.15 q 1.15,0 1.55,0.65 -0.25,0.3 -0.85,0.4 l -1,0.05 -1.1,0.1 -0.85,-0.35 -1.4,0.15 q -0.65,0.4 -0.5,1.3 l 0.55,0.75 q 0.95,0.85 2.2,0.95 l 1.5,-0.1 2.6,-0.65 q 0.4,-0.15 0.8,-0.45 l 0.5,-0.65 m -29.5,-4.75 1.05,0.15 0.4,0.65 q 0.35,0.45 0.85,0.15 0.35,-0.35 0.4,-0.75 l 0.1,-0.75 q 0,-0.5 -0.5,-1.2 l -0.55,-0.5 -0.95,-0.25 -2,-0.05 q -1.1,0.1 -1.85,0.7 l -0.95,1.1 -0.4,0.7 -0.05,1.05 0.2,0.7 0.45,0.65 1,0.85 0.9,0.4 1.85,0.45 q -0.4,0.45 -1.65,0.45 L -14.8,-6.8 q -0.4,-0.1 -1.05,-0.65 -0.85,-0.45 -1.5,0.3 -0.65,0.75 -0.1,1.55 l 1.15,1.1 q 0.35,0.25 1.2,0.35 l 2.15,0.1 q 1.15,-0.05 2,-0.7 0.8,-0.65 1.1,-1.55 L -9.7,-7 q 0.1,-0.75 -0.05,-1.3 -0.15,-0.7 -0.7,-1.1 l -0.95,-0.35 -1,-0.1 q -1.05,-0.15 -1.95,-0.6 0.3,-0.55 0.9,-0.7 l 1,-0.1"
         fill="#000000"
         fill-rule="evenodd"
         stroke="none"
         id="path1" />
      <path
         d="m -12.45,-11.25 -1,0.1 q -0.6,0.15 -0.9,0.7 0.9,0.45 1.95,0.6 l 1,0.1 0.95,0.35 q 0.55,0.4 0.7,1.1 0.15,0.55 0.05,1.3 l -0.15,0.7 q -0.3,0.9 -1.1,1.55 -0.85,0.65 -2,0.7 l -2.15,-0.1 q -0.85,-0.1 -1.2,-0.35 l -1.15,-1.1 q -0.55,-0.8 0.1,-1.55 0.65,-0.75 1.5,-0.3 0.65,0.55 1.05,0.65 l 0.65,0.05 q 1.25,0 1.65,-0.45 l -1.85,-0.45 -0.9,-0.4 -1,-0.85 -0.45,-0.65 -0.2,-0.7 0.05,-1.05 0.4,-0.7 0.95,-1.1 q 0.75,-0.6 1.85,-0.7 l 2,0.05 0.95,0.25 0.55,0.5 q 0.5,0.7 0.5,1.2 l -0.1,0.75 q -0.05,0.4 -0.4,0.75 -0.5,0.3 -0.85,-0.15 l -0.4,-0.65 -1.05,-0.15 m 29.5,4.75 -0.5,0.65 q -0.4,0.3 -0.8,0.45 l -2.6,0.65 -1.5,0.1 Q 10.4,-4.75 9.45,-5.6 L 8.9,-6.35 q -0.15,-0.9 0.5,-1.3 l 1.4,-0.15 0.85,0.35 1.1,-0.1 1,-0.05 Q 14.35,-7.7 14.6,-8 14.2,-8.65 13.05,-8.65 L 11.3,-8.8 9.85,-10.2 9.3,-10.9 q -0.35,-0.65 -0.2,-1.4 0.15,-0.7 0.65,-1.3 0.95,-1.15 2.4,-1.55 1.55,-0.35 2.85,0.35 l 0.9,0.65 0.55,0.7 0.35,0.85 q 0,0.55 -0.35,0.85 -0.35,0.35 -0.85,0.25 -0.35,-0.05 -0.95,-0.45 -0.7,-0.45 -1.35,-0.5 -0.85,0 -1.25,0.55 l 0.5,0.5 0.55,0.05 h 1.55 q 0.95,0.15 1.75,0.8 0.75,0.6 1.1,1.5 l 0.2,1 q -0.05,0.65 -0.65,1.55"
         fill="#ffffff"
         fill-rule="evenodd"
         stroke="none"
         id="path2" />
      <path
         d="m -12.85,-16.45 -1.45,0.1 -2.3,0.6 -0.85,-0.35 -1.1,-0.4 -1.3,-0.15 -2,0.1 q -1.15,0.15 -1.85,0.8 -0.85,0.85 -0.9,1.85 -0.1,1.1 0.6,1.95 l 0.65,0.65 -5.35,2.6 -1.5,0.55 -0.15,-4.1 -0.1,-2.9 q -0.2,-2.9 0.2,-4.65 0.3,-1.15 0.85,-1.55 l 1.35,-0.5 18.8,-1.5 0.6,-0.05 27.55,-1.2 6.6,0.25 q 1.25,0.2 1.8,0.8 0.55,0.6 0.6,2.05 l 0.8,10.05 0.15,2.1 -1.55,-0.25 q -1.4,-0.4 -3.2,-1.25 l -1.35,-0.7 0.4,-0.35 0.85,-0.85 q 0.7,-0.85 0.6,-1.95 -0.05,-1 -0.9,-1.85 l -0.2,-0.15 -1.15,-0.55 -0.5,-0.1 -2,-0.1 -1.3,0.15 -1.1,0.4 -0.85,0.35 -2.3,-0.6 -4.35,0.4 -1.1,-0.4 -0.95,-0.5 -1.1,-0.3 q -4.6,-1.75 -7.2,-3.1 l -1.6,-0.5 -1.3,0.4 -9.55,4.7 m -14.6,24 0.75,2.25 q 0.55,1.15 1.45,1.9 0.75,0.65 2.35,1.15 l 1.35,0.3 q 0.45,0.85 1.4,1.3 l 1.95,0.3 1.8,-0.35 1.05,-0.65 0.3,-0.2 h 0.15 q 2.2,0.55 4.15,-0.7 l 0.75,0.5 1.95,0.6 1.75,0.05 q 0.8,-0.2 1.35,-0.85 l 0.2,-0.2 L -4,13.1 0.1,13.5 2.2,12.9 4.15,11.95 4.6,11.8 4.95,12.35 Q 5.5,13 6.3,13.2 l 1.75,-0.05 1.95,-0.6 0.75,-0.5 q 1.3,0.85 2.75,0.9 l 1.4,-0.2 h 0.15 l 0.3,0.2 1.05,0.65 1.8,0.35 1.95,-0.3 q 0.95,-0.45 1.4,-1.3 l 1.35,-0.3 q 1.6,-0.5 2.35,-1.15 0.9,-0.75 1.45,-1.9 0.65,-1.35 0.9,-2.7 0.2,-1.5 -0.1,-3 L 27.3,2.45 28.75,1.7 q 0.4,-0.25 0.75,-0.4 l 0.15,3.75 0.15,8.3 -0.2,1.05 q -0.3,0.35 -1.1,0.5 l -3.65,0.55 -16.7,1 -3.45,0.05 -15.35,0.4 -1.55,0.1 -7.4,0.55 -7.35,0.35 -1.3,-0.35 -0.4,-1.15 -0.3,-3.95 -0.35,-4.75 0.6,-0.15 h 1.25"
         fill="#595959"
         fill-rule="evenodd"
         stroke="none"
         id="path3" />
      <path
         d="m -12.85,-16.45 9.55,-4.7 1.3,-0.4 1.6,0.5 q 2.6,1.35 7.2,3.1 L 5.95,-18 q -1.4,0.1 -2.25,0.85 -0.65,0.65 -0.7,1.35 -0.2,0.9 0.25,2.05 l 0.55,1.45 q 0.75,1.55 1.45,1.95 0,1.4 0.55,2.9 L 6.6,-5.8 Q 7.85,-4 10.35,-3 L 10.05,-2.4 8.9,1 7.35,1.2 Q 6.55,1.45 6,1.85 5,2.7 4.7,3.95 4.15,6.1 5.5,7.95 4.15,9.15 4.3,10.85 L 4.6,11.8 4.15,11.95 2.2,12.9 0.1,13.5 -4,13.1 -4.75,12.95 -4.3,11.65 q 0.15,-1.7 -1.2,-2.9 1.35,-1.85 0.8,-4 Q -5,3.5 -6,2.65 -6.55,2.25 -7.35,2 l -1.55,-0.2 -1.15,-3.4 -0.3,-0.6 q 2.5,-1 3.75,-2.8 l 0.8,-1.65 q 0.55,-1.5 0.55,-2.9 0.7,-0.4 1.45,-1.95 l 0.55,-1.45 Q -2.8,-14.1 -3,-15 q -0.05,-0.7 -0.7,-1.35 -0.85,-0.75 -2.25,-0.85 l -1.95,0.35 -1.75,1 q -1.5,-0.6 -3.2,-0.6 m 35.6,4.9 1.35,0.7 q 1.8,0.85 3.2,1.25 L 28.85,-9.35 29.5,1.3 Q 29.15,1.45 28.75,1.7 L 27.3,2.45 27.1,1.65 Q 26.15,-1.2 24.05,-2.45 L 22.35,-3 20.7,-2.85 q -1.15,0.3 -1.65,0.8 -0.65,0.75 -0.45,1.65 0.15,0.95 1.05,1.35 l 1.3,0.4 q 0.95,0.55 1.25,2.3 l 0.05,0.4 Q 21.6,2.95 19.95,1.9 l -0.9,-0.45 -1,-0.15 H 18 q -0.45,-1.7 -1.3,-3.35 l -0.25,-0.5 q 1.65,-0.55 2.85,-1.85 0.8,-0.8 1.1,-1.55 l 0.55,-2.05 0.2,-2.05 0.6,-0.6 1,-0.9 m -52.95,3.4 1.5,-0.55 5.35,-2.6 0.2,0.2 1.4,1.25 0.6,0.6 0.2,2.05 0.55,2.05 q 0.3,0.75 1.1,1.55 1.2,1.3 2.85,1.85 l -0.25,0.5 Q -17.55,0.4 -18,2.1 h -0.05 l -1,0.15 -0.9,0.45 q -1.65,1.05 -2.3,2.15 l 0.05,-0.4 q 0.3,-1.75 1.25,-2.3 l 1.3,-0.4 q 0.9,-0.4 1.05,-1.35 0.2,-0.9 -0.45,-1.65 -0.5,-0.5 -1.65,-0.8 l -1.65,-0.15 -1.7,0.55 q -2.1,1.25 -3.05,4.1 l -0.4,1.65 q -0.35,1.75 0.05,3.45 h -1.25 l -0.6,0.15 -0.9,-15.85"
         fill="#878787"
         fill-rule="evenodd"
         stroke="none"
         id="path4" />
    </g>
    <g
       id="sprite1"
       transform="translate(17.4,15.85)">
      <use
         ffdec:characterId="31"
         height="57.200001"
         transform="matrix(0.5366,0,0,0.5366,-16.6582,-14.546)"
         width="70.75"
         xlink:href="#sprite2"
         id="use4" />
    </g>
    <g
       id="sprite2"
       transform="translate(-8.65,-10.35)">
      <use
         ffdec:characterId="30"
         height="57.200001"
         transform="translate(8.65,10.35)"
         width="70.75"
         xlink:href="#shape1"
         id="use5" />
    </g>
    <g
       id="shape1"
       transform="translate(-8.65,-10.35)">
      <path
         d="m 14.8,41.7 q 0.65,-1.75 2.65,-2.5 1.8,-0.8 3.7,-0.25 1.15,0.45 2.25,1.2 l 0.9,0.4 q 1.65,0.9 2.85,2.5 L 37.8,30.1 q 2.35,-2.8 3.75,-3.95 1.5,-1.15 4.25,-2.4 18.2,-8.85 27.65,-12.6 2.15,-0.8 3.25,-0.8 h 0.8 l 1.9,2.4 -0.2,0.8 q -0.2,1.1 -1.55,3 -5.85,8.25 -18.85,23.8 -1.85,2.35 -3.35,3.5 -1.4,1.15 -4.75,2.75 l -15.15,7.15 q 1.2,1.6 1.75,3.4 l 0.2,1 0.55,2.5 q 0.1,1.95 -1.1,3.55 -1.2,1.65 -3.05,1.9 l -1.3,0.05 q -1.65,0.2 -3.45,-0.65 -1.85,-0.9 -3,-2.6 L 25,60.95 23.8,62.1 q -2.6,2.85 -4.3,3.95 -2.85,1.8 -5.5,1.45 l -1.65,-0.5 -1.2,-0.7 -0.2,-0.2 q -1,-0.85 -1.6,-1.9 L 9.25,64 9.15,63.8 8.75,62.4 q -0.2,-0.8 -0.05,-1.7 0.25,-2.65 2.7,-5.05 1.5,-1.3 4.9,-3.15 L 17.7,51.55 16.05,50 q -1.35,-1.5 -1.8,-3.6 -0.4,-1.85 0.25,-3.45 l 0.3,-1.25"
         fill="#000000"
         fill-opacity="0.372549"
         fill-rule="evenodd"
         stroke="none"
         id="path5" />
    </g>
  </defs>
</svg>
