<?xml version="1.0" encoding="UTF-8" standalone="no"?>
<svg
   ffdec:objectType="frame"
   height="70.33168"
   width="66.517937"
   version="1.1"
   id="svg4"
   xmlns:xlink="http://www.w3.org/1999/xlink"
   xmlns="http://www.w3.org/2000/svg"
   xmlns:svg="http://www.w3.org/2000/svg"
   xmlns:ffdec="https://www.free-decompiler.com/flash">
  <g
     transform="translate(36.827626,38.953543)"
     id="g1">
    <use
       ffdec:characterId="17"
       height="119.15"
       id="rarity"
       transform="translate(-58.5,-60.65)"
       width="119.15"
       xlink:href="#sprite0" />
    <use
       ffdec:characterId="941"
       height="70.349998"
       transform="translate(-36.85,-38.95)"
       width="66.550003"
       xlink:href="#shape0"
       id="use1" />
  </g>
  <defs
     id="defs4">
    <g
       id="shape0"
       transform="translate(83.65,40.3)">
      <path
         d="m -57.15,-40.3 q 7.6,-0.15 11.75,6.05 1.15,1.75 1.65,3.8 6.7,-5.1 15,-2.9 2.25,0.6 3.75,2.4 5.35,6.65 0.95,14.05 -0.8,1.35 -1.75,2.55 5.6,1.35 8,7.5 2.35,6.1 -3.3,10.15 -5.9,4.25 -13.15,1.8 -2.15,-0.75 -3.55,-2.2 -1.5,3.25 -5.1,5.65 1.25,1.5 1.35,3.75 l -0.1,4.55 q -0.7,9.7 -10.6,12.45 -10.4,2.9 -15.6,-5.75 -2.45,-4.1 -0.8,-8.6 0.55,-2.9 1.85,-5.5 -2.45,0.3 -5.05,0 -8.25,-0.95 -10.9,-8.8 -3.1,-9.1 4.75,-15.2 2.3,-1.8 5.15,-2.75 -1.3,-2.55 -1.05,-5.35 0.3,-4.3 2.4,-8.15 l 1.05,-1.3 q 2.1,-3.45 5.55,-5.6 3.65,-2.25 7.75,-2.6 m 5.5,23.05 q 0.9,-4.15 2.8,-7.95 0.1,-7.7 -7.45,-8.7 l -3.15,0.45 q -7.75,3.4 -8.4,11.75 l 0.05,0.65 q 0.2,0.95 0.8,1.7 l 1.8,2.15 0.2,0.15 0.5,0.3 0.3,0.2 0.4,0.4 0.25,0.25 q 3.85,1.15 5,4.05 2.65,-2.95 6.75,-3.75 l 0.15,-1.65 m -10.6,16.8 q -0.35,-3.85 1.15,-7.4 -2.1,-0.15 -3.95,-1.6 -4.95,-3.9 -9.55,0 -2.35,2 -3.35,4.85 0.3,6.7 6.45,8.2 2.9,0.7 5.6,-0.7 1.95,-1 4.05,-1.15 l -0.4,-2.2 m 34.3,-19.95 q 1.2,-2.1 0.7,-4.55 l -0.15,-0.2 -0.1,-0.2 -0.15,-0.2 -0.45,-0.7 -0.4,-1.05 -0.95,-0.85 q -1.95,-1.65 -4.6,-1.1 -3.1,0.95 -5.7,2.9 -2.25,1.75 -4,4 -0.9,3.5 -2.2,6.75 3.95,0.75 6.3,3.75 7.75,-1.6 11.7,-8.55 m -22.6,10.15 -1.2,0.3 -0.8,0.2 q -2.45,1.5 -3.2,4.05 l -1.1,3.45 v 0.4 0.65 1.1 l 1.1,1.6 1.75,2.05 q 7.85,3.85 11.3,-4 0.85,-1.95 0.35,-4 l -0.05,-0.6 -1.2,-2.25 q -0.85,-1.4 -2.3,-2.4 -2.25,-0.8 -4.65,-0.55 m 13.15,3.15 q 0.85,3.3 0.6,6.15 4.3,2.05 9.35,1.5 l 2.55,-0.75 0.25,-0.2 q 1,-0.7 1.8,-1.55 0.9,-0.85 0.85,-2.1 -2.35,-6.05 -9.35,-5.75 -2.85,1.4 -6.3,1.8 l 0.25,0.9 m -16,17.3 q -3.1,-1 -5.1,-2.8 l -1.65,1.7 q -1.2,1.2 -1.95,2.8 l -1.25,2.95 q 0.05,0.95 -0.3,1.85 -0.4,1.05 -0.25,2.2 2.85,7.5 11,4.55 7.3,-2.65 5.5,-10 -0.35,-1.6 -0.1,-2.9 l -5.9,-0.35"
         fill="#000000"
         fill-rule="evenodd"
         stroke="none"
         id="path1" />
      <path
         d="m -50.55,-10.25 q 2.4,-0.25 4.65,0.55 1.45,1 2.3,2.4 l 1.2,2.25 0.05,0.6 q 0.5,2.05 -0.35,4 -3.45,7.85 -11.3,4 l -1.75,-2.05 -1.1,-1.6 v -1.1 -0.65 -0.4 l 1.1,-3.45 q 0.75,-2.55 3.2,-4.05 l 0.8,-0.2 1.2,-0.3"
         fill="#d7d2af"
         fill-rule="evenodd"
         stroke="none"
         id="path2" />
      <path
         d="m -27.95,-20.4 q -3.95,6.95 -11.7,8.55 -2.35,-3 -6.3,-3.75 1.3,-3.25 2.2,-6.75 1.75,-2.25 4,-4 2.6,-1.95 5.7,-2.9 2.65,-0.55 4.6,1.1 l 0.95,0.85 0.4,1.05 0.45,0.7 0.15,0.2 0.1,0.2 0.15,0.2 q 0.5,2.45 -0.7,4.55 m -34.3,19.95 0.4,2.2 q -2.1,0.15 -4.05,1.15 -2.7,1.4 -5.6,0.7 -6.15,-1.5 -6.45,-8.2 1,-2.85 3.35,-4.85 4.6,-3.9 9.55,0 1.85,1.45 3.95,1.6 -1.5,3.55 -1.15,7.4 m 10.6,-16.8 -0.15,1.65 q -4.1,0.8 -6.75,3.75 -1.15,-2.9 -5,-4.05 l -0.25,-0.25 -0.4,-0.4 -0.3,-0.2 -0.5,-0.3 -0.2,-0.15 -1.8,-2.15 q -0.6,-0.75 -0.8,-1.7 l -0.05,-0.65 q 0.65,-8.35 8.4,-11.75 l 3.15,-0.45 q 7.55,1 7.45,8.7 -1.9,3.8 -2.8,7.95 m -1.75,27.45 5.9,0.35 q -0.25,1.3 0.1,2.9 1.8,7.35 -5.5,10 -8.15,2.95 -11,-4.55 -0.15,-1.15 0.25,-2.2 0.35,-0.9 0.3,-1.85 l 1.25,-2.95 q 0.75,-1.6 1.95,-2.8 l 1.65,-1.7 q 2,1.8 5.1,2.8 m 16,-17.3 -0.25,-0.9 q 3.45,-0.4 6.3,-1.8 7,-0.3 9.35,5.75 0.05,1.25 -0.85,2.1 -0.8,0.85 -1.8,1.55 l -0.25,0.2 -2.55,0.75 q -5.05,0.55 -9.35,-1.5 0.25,-2.85 -0.6,-6.15"
         fill="#fafafa"
         fill-rule="evenodd"
         stroke="none"
         id="path3" />
    </g>
    <g
       id="sprite1"
       transform="translate(17.4,15.85)">
      <use
         ffdec:characterId="31"
         height="57.200001"
         transform="matrix(0.5366,0,0,0.5366,-16.6582,-14.546)"
         width="70.75"
         xlink:href="#sprite2"
         id="use3" />
    </g>
    <g
       id="sprite2"
       transform="translate(-8.65,-10.35)">
      <use
         ffdec:characterId="30"
         height="57.200001"
         transform="translate(8.65,10.35)"
         width="70.75"
         xlink:href="#shape1"
         id="use4" />
    </g>
    <g
       id="shape1"
       transform="translate(-8.65,-10.35)">
      <path
         d="m 14.8,41.7 q 0.65,-1.75 2.65,-2.5 1.8,-0.8 3.7,-0.25 1.15,0.45 2.25,1.2 l 0.9,0.4 q 1.65,0.9 2.85,2.5 L 37.8,30.1 q 2.35,-2.8 3.75,-3.95 1.5,-1.15 4.25,-2.4 18.2,-8.85 27.65,-12.6 2.15,-0.8 3.25,-0.8 h 0.8 l 1.9,2.4 -0.2,0.8 q -0.2,1.1 -1.55,3 -5.85,8.25 -18.85,23.8 -1.85,2.35 -3.35,3.5 -1.4,1.15 -4.75,2.75 l -15.15,7.15 q 1.2,1.6 1.75,3.4 l 0.2,1 0.55,2.5 q 0.1,1.95 -1.1,3.55 -1.2,1.65 -3.05,1.9 l -1.3,0.05 q -1.65,0.2 -3.45,-0.65 -1.85,-0.9 -3,-2.6 L 25,60.95 23.8,62.1 q -2.6,2.85 -4.3,3.95 -2.85,1.8 -5.5,1.45 l -1.65,-0.5 -1.2,-0.7 -0.2,-0.2 q -1,-0.85 -1.6,-1.9 L 9.25,64 9.15,63.8 8.75,62.4 q -0.2,-0.8 -0.05,-1.7 0.25,-2.65 2.7,-5.05 1.5,-1.3 4.9,-3.15 L 17.7,51.55 16.05,50 q -1.35,-1.5 -1.8,-3.6 -0.4,-1.85 0.25,-3.45 l 0.3,-1.25"
         fill="#000000"
         fill-opacity="0.372549"
         fill-rule="evenodd"
         stroke="none"
         id="path4" />
    </g>
  </defs>
</svg>
