<?xml version="1.0" encoding="UTF-8" standalone="no"?>
<svg
   ffdec:objectType="frame"
   height="73.183334"
   width="68.666962"
   version="1.1"
   id="svg7"
   sodipodi:docname="ITEM Radioactive Hat.svg"
   xmlns:inkscape="http://www.inkscape.org/namespaces/inkscape"
   xmlns:sodipodi="http://sodipodi.sourceforge.net/DTD/sodipodi-0.dtd"
   xmlns:xlink="http://www.w3.org/1999/xlink"
   xmlns="http://www.w3.org/2000/svg"
   xmlns:svg="http://www.w3.org/2000/svg"
   xmlns:ffdec="https://www.free-decompiler.com/flash">
  <sodipodi:namedview
     id="namedview7"
     pagecolor="#ffffff"
     bordercolor="#000000"
     borderopacity="0.25"
     inkscape:showpageshadow="2"
     inkscape:pageopacity="0.0"
     inkscape:pagecheckerboard="0"
     inkscape:deskcolor="#d1d1d1"
     fit-margin-top="5"
     fit-margin-left="5"
     fit-margin-right="5"
     fit-margin-bottom="5" />
  <g
     transform="translate(40.335714,41.433333)"
     id="g1">
    <use
       ffdec:characterId="17"
       height="119.15"
       id="rarity"
       transform="translate(-58.5,-60.65)"
       width="119.15"
       xlink:href="#sprite0" />
    <use
       ffdec:characterId="1212"
       height="73.400002"
       transform="translate(-40.35,-41.45)"
       width="68.699997"
       xlink:href="#shape0"
       id="use1" />
  </g>
  <defs
     id="defs7">
    <g
       id="shape0"
       transform="translate(39.05,39.55)">
      <path
         d="m -7.3,-33.65 q -4.65,0.3 -8.7,1.9 l -0.25,0.35 -0.65,1.1 v 1 l 0.1,1.3 q 2.9,4.65 8.7,4.3 l 2.45,-0.15 q 6.95,-0.45 8.7,-6.6 0.25,-0.85 0.15,-1.75 l -0.15,-1.05 -6.15,-0.45 -4.2,0.05 m -17.8,7.55 q -2.75,2.45 -4.6,5.7 l -0.75,0.95 q -1.9,4.4 -2.35,9.2 l -0.3,3.9 0.25,0.15 0.15,0.15 0.1,0.15 q 13.25,6 28,3.45 8.4,-1.4 16.6,-3.75 4.5,-1.3 8.7,-3.45 l 2.3,-1.4 v -0.15 l -0.35,-1.8 -0.5,-1.95 -0.05,-0.3 -0.3,-0.5 -0.25,-0.65 -0.15,-0.5 v -0.15 l -0.2,-0.35 -0.05,-0.15 -0.1,-0.3 -0.05,-0.2 q -2.35,-5.1 -6.4,-9.05 -3.7,-3.55 -8.2,-5.2 0.45,3.85 -2.5,7.35 -3.3,3.9 -8.5,4.65 -6.65,0.95 -11.95,-2.35 -1.45,-0.85 -2.3,-2.3 l -0.05,-0.15 v -0.15 -0.2 q -1.15,-2.4 -0.6,-4.7 -3,1.65 -5.6,4.05 m 43,23.9 q 3.85,1.4 1.05,4.2 l -2.1,0.1 Q 14.25,0.05 17,-1.85 l 0.9,-0.35 m -51.3,9.4 q 0.15,7.7 0.8,15.35 1.75,1.75 3.95,3.05 2.45,1.45 5.1,2.6 4.3,-4.2 9.4,-7.45 1.05,-0.7 2.2,-0.25 4.05,1.6 7.85,3.75 l 0.35,-0.05 8,-7.1 -1.65,-1.15 -2.15,-0.5 -0.3,-0.1 -2.65,0.7 -0.4,0.1 -0.7,-0.25 -0.35,-0.25 0.05,-0.35 0.05,-0.15 0.2,-0.2 1.35,-0.8 0.4,-0.3 q 2,-0.9 4,-1.5 V 12.3 Q 6,13 9,15.3 l 4.05,2.15 q 2.6,1.25 4.35,3.4 0.6,0.65 0.8,1.55 l 5.35,-0.5 0.55,-0.25 0.2,-9.15 Q 24.7,3.85 23.8,-4.95 L 23.55,-7.7 q -4.8,3.6 -10.95,5.15 -13.9,3.6 -28.25,3.55 -6.25,0 -12.1,-1.75 -3.1,-0.95 -5.55,-2.7 -0.25,5.3 -0.1,10.65 m 25.7,-46.6 q 10.1,-0.8 19.15,3.2 5.3,2.35 8.95,6.85 6.35,7.85 7.5,17.75 0.7,6.05 0.7,12.25 0.05,4.95 0.35,9.8 l 0.45,10.8 0.15,1.6 q 0.65,4.35 -3.9,4.75 l -5.95,0.45 q -2.5,0.2 -4.75,-0.65 -1.55,-0.65 -1.8,-2.35 l -0.1,-0.8 -0.1,-0.15 -0.75,-0.45 q -1.9,-1.3 -3.9,-2.4 l -0.65,-0.4 q -3,2.3 -5.5,5.2 -2.85,3.4 -6.95,3.55 -0.75,0 -1.4,-0.4 l -0.9,-0.55 -0.15,0.3 -0.95,1.55 q -2.2,3.05 -6.25,1.7 l -3.75,-1.35 -0.35,0.35 q -1.55,1.75 -3.7,2.45 l -2.5,-0.1 Q -32.1,30.6 -37.45,25 q -0.45,-0.5 -0.5,-1.15 -0.8,-9.4 -1.05,-18.95 -0.25,-10 1.25,-19.65 1.15,-7.05 5.7,-12.75 6.25,-7.85 16.15,-10.45 l 8.2,-1.45 M -4.3,2.7 Q -0.5,3.7 -2.35,7 -3.15,8.5 -4.8,8 -7.75,7.15 -6.65,4.4 -6.05,2.75 -4.3,2.7 M -27.85,1.95 q 3.65,1 1.8,4.1 -0.8,1.3 -2.2,0.85 -3.1,-0.95 -1.55,-3.7 0.65,-1.2 1.95,-1.25"
         fill="#000000"
         fill-rule="evenodd"
         stroke="none"
         id="path1" />
      <path
         d="m -7.3,-33.65 4.2,-0.05 6.15,0.45 0.15,1.05 q 0.1,0.9 -0.15,1.75 -1.75,6.15 -8.7,6.6 l -2.45,0.15 q -5.8,0.35 -8.7,-4.3 l -0.1,-1.3 v -1 l 0.65,-1.1 0.25,-0.35 q 4.05,-1.6 8.7,-1.9 M -33.4,7.2 q -0.15,-5.35 0.1,-10.65 2.45,1.75 5.55,2.7 Q -21.9,1 -15.65,1 -1.3,1.05 12.6,-2.55 18.75,-4.1 23.55,-7.7 l 0.25,2.75 q 0.9,8.8 0.5,17.45 l -0.2,9.15 -0.55,0.25 -5.35,0.5 Q 18,21.5 17.4,20.85 15.65,18.7 13.05,17.45 L 9,15.3 Q 6,13 2.1,12.3 v 0.05 q -2,0.6 -4,1.5 l -0.4,0.3 -1.35,0.8 -0.2,0.2 -0.05,0.15 -0.05,0.35 0.35,0.25 0.7,0.25 0.4,-0.1 2.65,-0.7 0.3,0.1 2.15,0.5 1.65,1.15 -8,7.1 -0.35,0.05 q -3.8,-2.15 -7.85,-3.75 -1.15,-0.45 -2.2,0.25 -5.1,3.25 -9.4,7.45 -2.65,-1.15 -5.1,-2.6 -2.2,-1.3 -3.95,-3.05 Q -33.25,14.9 -33.4,7.2 M 17.9,-2.2 17,-1.85 Q 14.25,0.05 16.85,2.1 L 18.95,2 q 2.8,-2.8 -1.05,-4.2 M -4.3,2.7 Q -6.05,2.75 -6.65,4.4 -7.75,7.15 -4.8,8 -3.15,8.5 -2.35,7 -0.5,3.7 -4.3,2.7 m -13.85,10.2 -1.55,1.5 -1.65,-0.55 1.2,-1.55 2,0.6 m 3.7,1.8 -1.6,0.05 0.65,-0.65 0.95,0.6 m 1.85,-8.3 q -0.75,1.45 -2.45,3.3 l -1,1.05 -2.15,-0.9 1.85,-2.15 1.05,-0.5 2.7,-0.8 m 2.25,-3.55 -0.4,0.05 -2.05,0.4 q -3.7,0.5 -6.15,3.3 l -2.05,2.45 -4.45,-0.7 -0.35,0.05 -0.3,0.1 -1.65,1.2 q -0.6,0.5 -0.45,1.2 0.7,2.7 2.55,4.3 l -1.25,1.75 q -1.85,2.75 -1.05,5.55 l 0.75,0.2 1.25,-0.25 q 3.6,-2.2 6.8,-4.9 l 3.95,0.75 5.65,0.15 0.2,-0.35 0.1,-0.15 V 17.8 L -9.2,17.65 -9.25,17.5 v -0.15 l 0.2,-0.15 0.45,-0.4 0.05,-0.2 0.05,-0.15 V 16.3 L -8.55,16.15 -8.6,15.95 -8.7,15.8 -8.9,15.65 -9.2,15.45 -9.55,15.3 q -1.4,-1.45 -3.1,-2.6 l -0.9,-0.55 1.6,-1.85 1.55,-1.6 q 2.85,-2.6 1.6,-5.6 l -0.75,-0.2 -0.8,-0.05 m -17.5,-0.9 q -1.3,0.05 -1.95,1.25 -1.55,2.75 1.55,3.7 1.4,0.45 2.2,-0.85 1.85,-3.1 -1.8,-4.1 m 2.85,17.1 1.7,-2.45 0.85,0.3 -2.55,2.15 m 0,-7.55 1.9,0.2 -0.65,0.85 L -25,11.5 m 37.25,-8 q -0.55,0 -1,0.4 Q 8.85,5.95 6.6,8.15 6.45,8.5 6.45,8.8 l 0.15,0.5 0.2,0.35 0.6,0.5 0.5,0.1 q 0.95,-0.2 1.7,-0.75 2.7,-2.1 4,-4.95 L 13.55,4.4 13.35,4.1 13.05,3.75 12.8,3.6 12.25,3.5 M 21.1,5.55 V 5.6 l -0.6,0.1 -5.95,5.5 q -0.65,0.65 -0.55,1.5 0.5,3.2 3.1,0.75 3.3,-3 5.25,-6.8 L 22.3,6.5 22.25,6.3 22.1,6 21.9,5.8 21.1,5.55"
         fill="#524b4b"
         fill-rule="evenodd"
         stroke="none"
         id="path2" />
      <path
         d="m -25.1,-26.1 q 2.6,-2.4 5.6,-4.05 -0.55,2.3 0.6,4.7 v 0.2 0.15 l 0.05,0.15 q 0.85,1.45 2.3,2.3 5.3,3.3 11.95,2.35 5.2,-0.75 8.5,-4.65 2.95,-3.5 2.5,-7.35 4.5,1.65 8.2,5.2 4.05,3.95 6.4,9.05 l 0.05,0.2 0.1,0.3 0.05,0.15 0.2,0.35 v 0.15 l 0.15,0.5 0.25,0.65 0.3,0.5 0.05,0.3 0.5,1.95 0.35,1.8 v 0.15 l -2.3,1.4 Q 16.5,-7.5 12,-6.2 3.8,-3.85 -4.6,-2.45 -19.35,0.1 -32.6,-5.9 l -0.1,-0.15 -0.15,-0.15 -0.25,-0.15 0.3,-3.9 q 0.45,-4.8 2.35,-9.2 l 0.75,-0.95 q 1.85,-3.25 4.6,-5.7 m 13.4,8.2 -0.45,0.1 -0.3,0.15 q -0.6,1.05 -1.55,1.9 -2.65,2.35 -2,5.6 l 0.3,0.3 0.3,0.15 q 1.2,-0.55 2,-1.55 2,-2.65 2.75,-5.75 l -0.05,-0.15 -0.15,-0.3 -0.15,-0.2 -0.3,-0.15 -0.4,-0.1 m -7.85,-2.6 v 0.05 l -0.35,0.05 -0.2,0.1 -6.5,7.65 q -1.85,2.4 1.3,2.5 l 2.1,-1.9 q 3.05,-3.15 4.75,-7.2 0.05,-0.35 -0.2,-0.65 l -0.2,-0.3 -0.3,-0.15 -0.4,-0.15"
         fill="#696262"
         fill-rule="evenodd"
         stroke="none"
         id="path3" />
      <path
         d="m -10.35,2.85 0.8,0.05 0.75,0.2 q 1.25,3 -1.6,5.6 l -1.55,1.6 -1.6,1.85 0.9,0.55 q 1.7,1.15 3.1,2.6 l 0.35,0.15 0.3,0.2 0.2,0.15 0.1,0.15 0.05,0.2 0.05,0.15 v 0.15 l -0.05,0.15 -0.05,0.2 -0.45,0.4 -0.2,0.15 v 0.15 l 0.05,0.15 -0.05,0.15 v 0.15 l -0.1,0.15 -0.2,0.35 -5.65,-0.15 -3.95,-0.75 q -3.2,2.7 -6.8,4.9 l -1.25,0.25 -0.75,-0.2 q -0.8,-2.8 1.05,-5.55 l 1.25,-1.75 q -1.85,-1.6 -2.55,-4.3 -0.15,-0.7 0.45,-1.2 l 1.65,-1.2 0.3,-0.1 0.35,-0.05 4.45,0.7 2.05,-2.45 q 2.45,-2.8 6.15,-3.3 l 2.05,-0.4 0.4,-0.05 m -2.25,3.55 -2.7,0.8 -1.05,0.5 -1.85,2.15 2.15,0.9 1,-1.05 q 1.7,-1.85 2.45,-3.3 m -1.85,8.3 -0.95,-0.6 -0.65,0.65 1.6,-0.05 m -3.7,-1.8 -2,-0.6 -1.2,1.55 1.65,0.55 1.55,-1.5 m -6.85,-1.4 1.25,1.05 0.65,-0.85 -1.9,-0.2 m 0,7.55 2.55,-2.15 -0.85,-0.3 -1.7,2.45"
         fill="#333333"
         fill-rule="evenodd"
         stroke="none"
         id="path4" />
      <path
         d="m 21.1,5.55 0.8,0.25 0.2,0.2 0.15,0.3 0.05,0.2 0.05,0.15 Q 20.4,10.45 17.1,13.45 14.5,15.9 14,12.7 13.9,11.85 14.55,11.2 L 20.5,5.7 21.1,5.6 V 5.55 m -8.85,-2.05 0.55,0.1 0.25,0.15 0.3,0.35 0.2,0.3 0.05,0.15 Q 12.3,7.4 9.6,9.5 8.85,10.05 7.9,10.25 L 7.4,10.15 6.8,9.65 6.6,9.3 6.45,8.8 q 0,-0.3 0.15,-0.65 2.25,-2.2 4.65,-4.25 0.45,-0.4 1,-0.4"
         fill="#443d3d"
         fill-rule="evenodd"
         stroke="none"
         id="path5" />
      <path
         d="m -19.55,-20.5 0.4,0.15 0.3,0.15 0.2,0.3 q 0.25,0.3 0.2,0.65 -1.7,4.05 -4.75,7.2 l -2.1,1.9 q -3.15,-0.1 -1.3,-2.5 l 6.5,-7.65 0.2,-0.1 0.35,-0.05 v -0.05 m 7.85,2.6 0.4,0.1 0.3,0.15 0.15,0.2 0.15,0.3 0.05,0.15 q -0.75,3.1 -2.75,5.75 -0.8,1 -2,1.55 l -0.3,-0.15 -0.3,-0.3 q -0.65,-3.25 2,-5.6 0.95,-0.85 1.55,-1.9 l 0.3,-0.15 0.45,-0.1"
         fill="#7a7272"
         fill-rule="evenodd"
         stroke="none"
         id="path6" />
    </g>
    <g
       id="sprite1"
       transform="translate(17.4,15.85)">
      <use
         ffdec:characterId="31"
         height="57.200001"
         transform="matrix(0.5366,0,0,0.5366,-16.6582,-14.546)"
         width="70.75"
         xlink:href="#sprite2"
         id="use6" />
    </g>
    <g
       id="sprite2"
       transform="translate(-8.65,-10.35)">
      <use
         ffdec:characterId="30"
         height="57.200001"
         transform="translate(8.65,10.35)"
         width="70.75"
         xlink:href="#shape1"
         id="use7" />
    </g>
    <g
       id="shape1"
       transform="translate(-8.65,-10.35)">
      <path
         d="m 14.8,41.7 q 0.65,-1.75 2.65,-2.5 1.8,-0.8 3.7,-0.25 1.15,0.45 2.25,1.2 l 0.9,0.4 q 1.65,0.9 2.85,2.5 L 37.8,30.1 q 2.35,-2.8 3.75,-3.95 1.5,-1.15 4.25,-2.4 18.2,-8.85 27.65,-12.6 2.15,-0.8 3.25,-0.8 h 0.8 l 1.9,2.4 -0.2,0.8 q -0.2,1.1 -1.55,3 -5.85,8.25 -18.85,23.8 -1.85,2.35 -3.35,3.5 -1.4,1.15 -4.75,2.75 l -15.15,7.15 q 1.2,1.6 1.75,3.4 l 0.2,1 0.55,2.5 q 0.1,1.95 -1.1,3.55 -1.2,1.65 -3.05,1.9 l -1.3,0.05 q -1.65,0.2 -3.45,-0.65 -1.85,-0.9 -3,-2.6 L 25,60.95 23.8,62.1 q -2.6,2.85 -4.3,3.95 -2.85,1.8 -5.5,1.45 l -1.65,-0.5 -1.2,-0.7 -0.2,-0.2 q -1,-0.85 -1.6,-1.9 L 9.25,64 9.15,63.8 8.75,62.4 q -0.2,-0.8 -0.05,-1.7 0.25,-2.65 2.7,-5.05 1.5,-1.3 4.9,-3.15 L 17.7,51.55 16.05,50 q -1.35,-1.5 -1.8,-3.6 -0.4,-1.85 0.25,-3.45 l 0.3,-1.25"
         fill="#000000"
         fill-opacity="0.372549"
         fill-rule="evenodd"
         stroke="none"
         id="path7" />
    </g>
  </defs>
</svg>
