<?xml version="1.0" encoding="UTF-8" standalone="no"?>
<svg
   ffdec:objectType="frame"
   height="77.081589"
   width="66.285004"
   version="1.1"
   id="svg4"
   xmlns:xlink="http://www.w3.org/1999/xlink"
   xmlns="http://www.w3.org/2000/svg"
   xmlns:svg="http://www.w3.org/2000/svg"
   xmlns:ffdec="https://www.free-decompiler.com/flash">
  <g
     transform="translate(35.4,38.069828)"
     id="g1">
    <use
       ffdec:characterId="17"
       height="119.15"
       id="rarity"
       transform="translate(-58.5,-60.65)"
       width="119.15"
       xlink:href="#sprite0" />
    <use
       ffdec:characterId="856"
       height="77.050003"
       transform="translate(-35.4,-38.05)"
       width="66.300003"
       xlink:href="#shape0"
       id="use1" />
  </g>
  <defs
     id="defs4">
    <g
       id="shape0"
       transform="translate(35.95,38.8)">
      <path
         d="m 1.45,-25.4 q -0.45,-0.65 -0.5,-1.4 -0.1,-0.8 0.3,-1.45 0.5,-1 1.75,-1.2 1.1,-0.25 2.2,0.6 l 0.85,1.25 q 0.3,0.65 0.1,1.4 -0.3,1.55 -2,1.9 l -1.5,-0.2 q -0.75,-0.3 -1.2,-0.9 m -1.3,57 q 0.6,0 1.95,-0.75 l 2.25,-1.3 Q 13.95,24.25 23.8,20 20.4,-4.9 9.15,-30.6 8.55,-32 7.9,-32.35 l -2,-0.45 -12.65,1.55 -3.5,0.75 q -1.9,0.55 -3.3,1.3 l -1.1,0.7 -0.2,1.2 q 0,0.9 0.75,2.6 1.55,3.5 2.9,8.75 l 2.2,9 5.4,17.45 1.6,5.3 q 1.8,7 2.25,12.2 L 0.05,28.85 -0.6,28.8 -0.65,28.7 -1.25,27.95 -4.6,18.7 -8.25,8.5 q -3.9,-11.05 -5.6,-16.6 l -2.35,-7.75 q -1.35,-4.5 -2.6,-7.6 l -0.4,-1 q -6.1,5.65 -9.2,9.35 -1.25,1.55 -1.4,2.55 -0.1,1 0.6,2.9 6.6,17.2 14.1,34.05 l 1,1.7 q 0.55,0.55 1.95,1.1 l 10.45,4 1.85,0.4 m 12.4,-68.35 q 1,1 2.25,3.65 11.3,25.5 15.4,52.45 0.45,3.3 -0.6,4.75 -0.5,0.75 -1.55,1.2 L 26.1,26.1 Q 14.5,29.85 4.5,36.9 L 3.05,37.8 1.4,38.25 q -0.9,0.1 -2.8,-0.65 l -12.9,-5.25 q -2.7,-1.05 -3.65,-2.1 -1,-0.95 -2.05,-3.15 l -3.85,-8.8 q -6.6,-15.25 -11.3,-28.05 -1,-2.9 -0.75,-4.35 0.25,-1.1 1.55,-2.9 3.65,-4.9 12.2,-12.9 l 4.3,-3.65 q 3.25,-2.15 9.9,-3.6 5.7,-1.2 11.9,-1.6 6.1,-0.45 8.6,2 M 18.5,19.4 q -1.15,-0.2 -1.75,-1 -0.65,-0.95 -0.45,-2.2 0.15,-1.05 0.9,-1.9 0.75,-0.8 1.75,-0.95 0.95,-0.1 1.85,0.3 l 1.3,1.3 q 0.45,0.85 0.35,1.75 l -0.65,1.65 q -0.55,0.7 -1.5,0.95 l -1.8,0.1 M 8.4,20.2 q -0.1,-0.75 0.3,-1.3 0.3,-0.55 1,-0.75 0.6,-0.25 1.35,0 l 1.1,0.8 0.35,1.3 -0.45,1.15 q -0.45,0.5 -1.2,0.65 L 9.5,21.75 Q 8.55,21.3 8.4,20.2 m -33.15,-26.1 -0.15,-0.45 0.2,-0.8 q 0.5,-0.95 1.75,-0.65 l 0.8,0.6 q 0.3,0.45 0.3,0.9 0,0.55 -0.35,0.95 -0.35,0.45 -0.85,0.45 -0.55,0.05 -1.05,-0.25 l -0.65,-0.75"
         fill="#000000"
         fill-rule="evenodd"
         stroke="none"
         id="path1" />
      <path
         d="M -0.6,28.8 0.05,28.85 0.25,28 Q -0.2,22.8 -2,15.8 L -3.6,10.5 -9,-6.95 l -2.2,-9 q -1.35,-5.25 -2.9,-8.75 -0.75,-1.7 -0.75,-2.6 l 0.2,-1.2 1.1,-0.7 q 1.4,-0.75 3.3,-1.3 l 3.5,-0.75 12.65,-1.55 2,0.45 Q 8.55,-32 9.15,-30.6 20.4,-4.9 23.8,20 13.95,24.25 4.35,29.55 L 2.1,30.85 Q 0.75,31.6 0.15,31.6 L -0.4,29.65 -0.6,28.8 m 2.05,-54.2 q 0.45,0.6 1.2,0.9 l 1.5,0.2 q 1.7,-0.35 2,-1.9 0.2,-0.75 -0.1,-1.4 L 5.2,-28.85 q -1.1,-0.85 -2.2,-0.6 -1.25,0.2 -1.75,1.2 -0.4,0.65 -0.3,1.45 0.05,0.75 0.5,1.4 M 8.4,20.2 q 0.15,1.1 1.1,1.55 l 1.35,0.3 q 0.75,-0.15 1.2,-0.65 l 0.45,-1.15 -0.35,-1.3 -1.1,-0.8 q -0.75,-0.25 -1.35,0 -0.7,0.2 -1,0.75 -0.4,0.55 -0.3,1.3 m 10.1,-0.8 1.8,-0.1 q 0.95,-0.25 1.5,-0.95 l 0.65,-1.65 q 0.1,-0.9 -0.35,-1.75 l -1.3,-1.3 q -0.9,-0.4 -1.85,-0.3 -1,0.15 -1.75,0.95 -0.75,0.85 -0.9,1.9 -0.2,1.25 0.45,2.2 0.6,0.8 1.75,1"
         fill="#606060"
         fill-rule="evenodd"
         stroke="none"
         id="path2" />
      <path
         d="m -0.6,28.8 0.2,0.85 0.55,1.95 -1.85,-0.4 -10.45,-4 q -1.4,-0.55 -1.95,-1.1 l -1,-1.7 q -7.5,-16.85 -14.1,-34.05 -0.7,-1.9 -0.6,-2.9 0.15,-1 1.4,-2.55 3.1,-3.7 9.2,-9.35 l 0.4,1 q 1.25,3.1 2.6,7.6 l 2.35,7.75 q 1.7,5.55 5.6,16.6 l 3.65,10.2 3.35,9.25 0.6,0.75 0.05,0.1 m -24.15,-34.7 0.65,0.75 q 0.5,0.3 1.05,0.25 0.5,0 0.85,-0.45 0.35,-0.4 0.35,-0.95 0,-0.45 -0.3,-0.9 l -0.8,-0.6 q -1.25,-0.3 -1.75,0.65 l -0.2,0.8 0.15,0.45"
         fill="#454545"
         fill-rule="evenodd"
         stroke="none"
         id="path3" />
    </g>
    <g
       id="sprite1"
       transform="translate(17.4,15.85)">
      <use
         ffdec:characterId="31"
         height="57.200001"
         transform="matrix(0.5366,0,0,0.5366,-16.6582,-14.546)"
         width="70.75"
         xlink:href="#sprite2"
         id="use3" />
    </g>
    <g
       id="sprite2"
       transform="translate(-8.65,-10.35)">
      <use
         ffdec:characterId="30"
         height="57.200001"
         transform="translate(8.65,10.35)"
         width="70.75"
         xlink:href="#shape1"
         id="use4" />
    </g>
    <g
       id="shape1"
       transform="translate(-8.65,-10.35)">
      <path
         d="m 14.8,41.7 q 0.65,-1.75 2.65,-2.5 1.8,-0.8 3.7,-0.25 1.15,0.45 2.25,1.2 l 0.9,0.4 q 1.65,0.9 2.85,2.5 L 37.8,30.1 q 2.35,-2.8 3.75,-3.95 1.5,-1.15 4.25,-2.4 18.2,-8.85 27.65,-12.6 2.15,-0.8 3.25,-0.8 h 0.8 l 1.9,2.4 -0.2,0.8 q -0.2,1.1 -1.55,3 -5.85,8.25 -18.85,23.8 -1.85,2.35 -3.35,3.5 -1.4,1.15 -4.75,2.75 l -15.15,7.15 q 1.2,1.6 1.75,3.4 l 0.2,1 0.55,2.5 q 0.1,1.95 -1.1,3.55 -1.2,1.65 -3.05,1.9 l -1.3,0.05 q -1.65,0.2 -3.45,-0.65 -1.85,-0.9 -3,-2.6 L 25,60.95 23.8,62.1 q -2.6,2.85 -4.3,3.95 -2.85,1.8 -5.5,1.45 l -1.65,-0.5 -1.2,-0.7 -0.2,-0.2 q -1,-0.85 -1.6,-1.9 L 9.25,64 9.15,63.8 8.75,62.4 q -0.2,-0.8 -0.05,-1.7 0.25,-2.65 2.7,-5.05 1.5,-1.3 4.9,-3.15 L 17.7,51.55 16.05,50 q -1.35,-1.5 -1.8,-3.6 -0.4,-1.85 0.25,-3.45 l 0.3,-1.25"
         fill="#000000"
         fill-opacity="0.372549"
         fill-rule="evenodd"
         stroke="none"
         id="path4" />
    </g>
  </defs>
</svg>
