<?xml version="1.0" encoding="UTF-8" standalone="no"?>
<svg
   ffdec:objectType="frame"
   height="91.412498"
   width="78.766731"
   version="1.1"
   id="svg5"
   xmlns:xlink="http://www.w3.org/1999/xlink"
   xmlns="http://www.w3.org/2000/svg"
   xmlns:svg="http://www.w3.org/2000/svg"
   xmlns:ffdec="https://www.free-decompiler.com/flash">
  <g
     transform="translate(38.958036,44.85)"
     id="g1">
    <use
       ffdec:characterId="17"
       height="119.15"
       id="rarity"
       transform="translate(-58.5,-60.65)"
       width="119.15"
       xlink:href="#sprite0" />
    <use
       ffdec:characterId="696"
       height="91.5"
       transform="translate(-38.95,-44.95)"
       width="78.75"
       xlink:href="#shape0"
       id="use1" />
  </g>
  <defs
     id="defs5">
    <g
       id="shape0"
       transform="translate(38.55,44.15)">
      <path
         d="m -15.45,-40.15 q 3.1,0.05 5.9,1.25 2.15,0.9 3.75,2.2 0.9,-0.6 2.55,-1.05 8.8,-2.4 17.3,-0.95 5.6,0.95 9.4,3.3 0.95,-0.7 2.55,-1.25 l 5.65,-1.8 q 3.15,-0.9 5.75,-0.65 1.25,0.1 1.85,0.6 1.05,0.8 0.95,3 -0.05,1.9 -0.65,5.05 -0.9,5.3 -1.75,7.75 l -2.2,4.95 -0.55,1.05 q 0.6,2.8 0.75,5.75 0.5,7.05 -1.6,13.7 -2.25,7.2 -6.7,11 l -3.25,2.25 1.3,2.5 q 2.1,4.8 2.5,7.5 l 0.3,2.35 q 0.35,4.3 0.05,6.4 -0.55,3.65 -2.85,5.65 -1.25,1.1 -3.85,2 l -2.75,0.7 q -1.85,0.25 -3.8,0 l -1.7,-0.4 -1,1.2 q -2,2.25 -3.65,2.7 L 5.85,46.55 3.45,45.9 1.85,44.5 q -0.7,0.85 -1.75,1.5 -1.6,1.05 -3.5,1.3 -2.05,0.25 -4.05,-0.5 -2,-0.75 -3.35,-2.3 L -11.15,44 -12.8,44.45 -19,44.6 q -2.6,-0.35 -3.95,-0.95 -3.7,-1.4 -5.7,-5.2 -3.25,-1.45 -5.4,-5.35 -1.3,-2.5 -2.6,-7.35 L -37.7,21.9 q -1.55,-7.2 -0.3,-14.65 0.7,-3.75 2.1,-5.8 1,-1.4 2.25,-1.95 l 3.85,0.15 q 1.7,0.7 2.95,2.1 1.15,1.4 1.65,3.15 0.5,1.9 0.45,5.15 -0.05,2.4 -0.25,4.4 l 0.6,-0.9 q 2.1,-2.85 3.4,-4 l 0.4,-0.3 -1.65,-2.6 q -1.9,-3.55 -1.85,-7.95 0,-3.55 1.25,-7 l -1.6,-0.4 -0.05,0.05 -1.45,1 q -1.3,0.6 -4,1.5 l -1.75,0.7 -1.75,0.5 q -2.15,0.4 -3.45,-0.75 -1.55,-1.35 -1.15,-3.95 l 0.8,-3.05 0.6,-2.65 1.55,-3.05 q 0.65,-1.3 1.3,-1.9 l 0.55,-0.4 q -0.15,-5.65 2.45,-10.25 l -0.15,-0.6 q -0.75,-3.85 -0.6,-8.2 l 0.35,-2.3 q 0.45,-1.25 1.45,-1.8 l 2.5,-0.2 2.8,0.8 2.75,1.3 3.15,1.45 0.7,0.55 2.4,-0.2 m 47.95,15.65 0.4,0.95 0.8,-2.2 1.45,-8.05 q -1.85,0.15 -4,0.95 l -3.15,1.2 q 2.6,2.9 4.5,7.15 m -21.25,17.4 0.3,0.4 q 0.4,0.5 0.45,2.25 l 0.6,2.4 0.65,1.05 1.05,0.5 q 1.7,0.45 2.6,-0.3 l 0.8,-1 q 0.55,-0.75 1.05,-0.9 0.55,-0.1 1.1,0.3 0.5,0.35 0.65,1 0.25,1 -0.65,2.2 L 18.5,2.3 Q 16.35,3.9 13.05,3.3 11.6,3.05 10.6,2.35 9.4,1.5 9.05,-0.05 7.25,1.3 2.9,2.5 L 0.4,2.8 -1.75,1.95 -4.05,0.2 q -0.55,-0.7 -1.05,-2.45 -0.45,-1.3 -0.25,-2.05 0.1,-0.75 0.8,-1.2 0.5,-0.55 1.35,-0.65 l 1.4,0.4 q 0.65,0.45 0.95,1.15 0.25,1.45 0.75,2 0.5,0.55 1.45,0.55 L 3,-2.4 Q 5.15,-3.1 6,-4 6.45,-4.35 7.35,-6 8,-7.05 8.6,-7.45 l 0.45,-0.2 1.45,0.05 q 0.45,0.15 0.75,0.5 m -15.95,-21.35 -0.5,-1.1 q -0.6,-1.45 -1.95,-2.5 -2.25,-2 -5.3,-2.65 l -6,0.15 q -4.45,1.35 -7.15,5.55 -1.25,2 -1.8,4.25 -0.5,2.1 -0.45,4.5 0,1.5 0.7,3.4 0.65,1.9 2.75,3.4 2.05,1.5 8.55,1 l 4.5,-0.5 q 0.45,0.9 0.05,2 -0.6,1.6 -3.6,2.3 l -2.75,0.5 -0.2,0.6 -0.65,1.7 q -0.8,2.55 -0.4,5.4 0.45,2.75 1.9,5.2 2.7,4.4 8.3,7.3 6.05,3.05 13.35,3.15 7,0.15 13.65,-2.35 Q 22.8,11.2 25.15,8.7 27,6.75 28.4,3.2 q 2.5,-6.4 2.2,-13.4 -0.25,-4.6 -1.65,-8.8 -0.75,-2.25 -1.85,-4.35 -2.05,-4.1 -4.75,-6.3 -2.65,-2.2 -7.3,-3.35 -8.6,-2.1 -16.9,0.7 l -0.65,0.25 q 0.5,1.55 0.05,2.75 -0.2,0.65 -0.8,1.05 l -1.15,0.15 -0.3,-0.35 m -8.6,11.3 q -0.4,0.3 -0.95,0.35 l -0.45,-0.05 q -1,-0.2 -1.3,-1.05 -0.3,-0.6 -0.1,-1.95 l 0.25,-1.5 -1,-0.15 q -0.65,-0.15 -1.05,-0.5 l -0.4,-0.95 0.25,-1 q 0.55,-0.9 1.8,-0.8 0.15,0.15 0.15,-0.05 l 0.8,0.1 0.2,-1.4 q 0.3,-1.7 0.85,-2.35 0.45,-0.5 1.1,-0.6 0.7,-0.15 1.15,0.3 0.5,0.5 0.3,2 l -0.3,2.15 -0.45,4.35 -0.05,1.5 q -0.15,0.85 -0.6,1.35 l -0.2,0.25 m -8.35,-0.15 -0.5,0.65 q -0.65,0.5 -1.55,0.55 -0.85,0.05 -1.55,-0.4 -0.6,-0.45 -0.85,-1.3 -0.25,-0.8 0.05,-1.55 l 0.5,-0.75 0.4,-0.35 1.45,-0.4 0.85,0.25 q 0.7,0.25 1.2,1 0.35,0.75 0.2,1.55 l -0.2,0.75 m 45.9,5.5 h 0.45 q 1.35,0.4 1.95,1.55 0.6,1.2 -0.05,2.4 -0.5,0.95 -1.55,1.35 L 23.1,-6.55 Q 22.15,-7 21.65,-7.95 21.2,-8.95 21.5,-9.85 V -9.9 q 0.35,-1 1.3,-1.5 0.75,-0.4 1.45,-0.4 m -45.4,-16.4 q -0.5,-0.6 -0.55,-1.35 -0.1,-0.75 0.3,-1.5 0.4,-0.7 1.15,-1 l 1.55,-0.05 q 0.8,0.2 1.3,0.8 0.5,0.65 0.5,1.45 0,0.8 -0.45,1.45 -0.45,0.6 -1.2,0.85 -0.8,0.25 -1.55,0 l -1.05,-0.65 m -5.5,-10.95 -0.15,1.25 0.2,1.85 2.85,-1.95 -2.9,-1.15 m -3,27.65 q -1.6,-1.5 -2.45,-3.3 l -0.45,1.1 -0.1,1.2 -0.4,1 -0.1,1.25 3.55,-1.2 -0.05,-0.05 m 25.5,-1.5 q 0.8,0.45 1.15,1.15 0.45,0.8 0.3,1.7 -0.05,0.9 -0.65,1.5 -0.6,0.7 -1.5,0.85 L -6.5,-7.9 q -0.85,-0.4 -1.3,-1 -0.5,-0.75 -0.45,-1.8 0.05,-1 0.7,-1.65 0.6,-0.65 1.55,-0.9 l 1.85,0.25 m 24.8,32.6 -0.05,-0.05 -0.85,-1.5 -6.2,1.8 -13.05,0.5 q -8.2,-1 -14.55,-5.25 l -3,-2.25 -0.1,-0.1 -0.15,0.1 -0.05,0.05 -1.25,1.35 -1.3,1.6 -0.85,1.2 q -3.6,5.55 -4.1,12.1 -0.4,5.5 2.3,8.15 1.5,1.45 3.95,1.85 2.1,0.4 4.45,-0.05 l 1.55,-0.3 h 0.1 l -0.05,-0.65 q 0.05,-1.95 1,-5.05 0.5,-1.6 1.3,-1.85 0.45,-0.2 1,0 0.5,0.15 0.85,0.6 0.6,0.8 0.6,2 l -0.15,3.05 q -0.15,1.85 0.3,2.95 0.65,1.8 2.4,2.4 L -3.5,42.3 -2,41.45 Q -1.4,40.9 -0.95,39.3 L -0.1,35.55 0.2,33.4 0.6,32 Q 1.15,31 2.15,30.9 3.2,30.65 4,31.35 q 0.8,0.7 0.9,2 l -0.15,2.15 -0.45,2.4 -0.25,1.5 0.55,1 q 0.4,0.85 0.8,1.1 l 1.3,0.35 1.2,-0.05 0.85,-0.65 1.2,-1.6 Q 11,37.9 11.35,35.1 l 0.15,-1.8 0.05,-1.8 q 0.35,-0.85 1.25,-1.2 l 2.15,-0.05 q 1.1,0.5 1.3,1.65 l -0.05,1.05 -0.15,1 -0.05,1.8 -0.5,1.7 -0.15,0.65 1.6,0.1 q 1.15,0 3.25,-0.75 1.7,-0.5 2.3,-1.2 l 0.75,-1.45 q 0.35,-1.45 0.35,-3.35 0,-2.05 -0.4,-4.05 -0.4,-2.35 -1.7,-5.8 l -0.85,-2 m -50.1,-1.3 -0.1,-3.2 0.2,-4.95 q 0.1,-2.1 -0.25,-3.3 Q -30.05,5 -31.45,4.1 -33.8,7.9 -33.2,14.8 l 0.5,3.9 q 0.6,3.75 1.75,7.4 l 0.65,1.75 0.9,-4.6 0.65,-2.1 -0.45,-1.15 -0.25,-1.7"
         fill="#000000"
         fill-rule="evenodd"
         stroke="none"
         id="path1" />
      <path
         d="M 8.6,-7.45 Q 6.9,-7.8 5.15,-8.55 2,-9.95 -0.65,-12.4 -2.4,-14.1 -3.15,-15.6 L -4,-18.55 -4.65,-21.65 Q -5.3,-24.4 -5.2,-26 l 0.5,-2.45 0.3,0.35 1.15,-0.15 q 0.6,-0.4 0.8,-1.05 0.45,-1.2 -0.05,-2.75 l 0.65,-0.25 q 8.3,-2.8 16.9,-0.7 4.65,1.15 7.3,3.35 2.7,2.2 4.75,6.3 1.1,2.1 1.85,4.35 -0.35,2.1 -1.45,3.8 -1.05,1.7 -3.1,3.25 l -0.15,0.15 q -0.7,0 -1.45,0.4 -0.95,0.5 -1.3,1.5 v 0.05 q -4.65,2.8 -9.65,2.75 h -0.6 Q 10.95,-7.45 10.5,-7.6 L 9.05,-7.65 8.6,-7.45 m -15.75,-24.6 0.45,1.15 q 0.55,1.95 0.45,4.5 0,1.55 -0.4,2.75 -0.45,1.35 -1.65,2.7 -2.3,2.7 -5,3.8 l 0.2,-0.25 q 0.45,-0.5 0.6,-1.35 l 0.05,-1.5 0.45,-4.35 0.3,-2.15 q 0.2,-1.5 -0.3,-2 -0.45,-0.45 -1.15,-0.3 -0.65,0.1 -1.1,0.6 -0.55,0.65 -0.85,2.35 l -0.2,1.4 -0.8,-0.1 q 0,0.2 -0.15,0.05 -1.25,-0.1 -1.8,0.8 l -0.25,1 0.4,0.95 q 0.4,0.35 1.05,0.5 l 1,0.15 -0.25,1.5 q -0.2,1.35 0.1,1.95 0.3,0.85 1.3,1.05 l 0.45,0.05 -2.7,0.4 q -2.25,0.05 -4.7,-0.9 l 0.2,-0.75 q 0.15,-0.8 -0.2,-1.55 -0.5,-0.75 -1.2,-1 l -0.85,-0.25 -1.45,0.4 -0.4,0.35 -0.6,-1.05 -0.95,-2.1 -0.3,-1.5 q 0.55,-2.25 1.8,-4.25 2.7,-4.2 7.15,-5.55 l 6,-0.15 q 3.05,0.65 5.3,2.65 m -14,3.85 1.05,0.65 q 0.75,0.25 1.55,0 0.75,-0.25 1.2,-0.85 0.45,-0.65 0.45,-1.45 0,-0.8 -0.5,-1.45 -0.5,-0.6 -1.3,-0.8 l -1.55,0.05 q -0.75,0.3 -1.15,1 -0.4,0.75 -0.3,1.5 0.05,0.75 0.55,1.35 m -11.55,46.9 -0.5,-3.9 q -0.6,-6.9 1.75,-10.7 1.4,0.9 1.85,2.75 0.35,1.2 0.25,3.3 l -0.2,4.95 0.1,3.2 q -0.4,0.3 -0.9,0.45 -1.1,0.4 -2.15,0 l -0.2,-0.05"
         fill="#e6e6e6"
         fill-rule="evenodd"
         stroke="none"
         id="path2" />
      <path
         d="M 8.6,-7.45 Q 8,-7.05 7.35,-6 6.45,-4.35 6,-4 5.15,-3.1 3,-2.4 l -1.65,0.35 q -0.95,0 -1.45,-0.55 -0.5,-0.55 -0.75,-2 -0.3,-0.7 -0.95,-1.15 l -1.4,-0.4 q -0.85,0.1 -1.35,0.65 -0.7,0.45 -0.8,1.2 -0.2,0.75 0.25,2.05 0.5,1.75 1.05,2.45 L -1.75,1.95 0.4,2.8 2.9,2.5 q 4.35,-1.2 6.15,-2.55 0.35,1.55 1.55,2.4 1,0.7 2.45,0.95 3.3,0.6 5.45,-1 l 1.35,-1.5 q 0.9,-1.2 0.65,-2.2 -0.15,-0.65 -0.65,-1 -0.55,-0.4 -1.1,-0.3 -0.5,0.15 -1.05,0.9 l -0.8,1 Q 16,-0.05 14.3,-0.5 L 13.25,-1 12.6,-2.05 12,-4.45 Q 11.95,-6.2 11.55,-6.7 l -0.3,-0.4 h 0.6 q 5,0.05 9.65,-2.75 -0.3,0.9 0.15,1.9 0.5,0.95 1.45,1.4 l 1.95,0.05 q 1.05,-0.4 1.55,-1.35 0.65,-1.2 0.05,-2.4 -0.6,-1.15 -1.95,-1.55 h -0.45 l 0.15,-0.15 q 2.05,-1.55 3.1,-3.25 1.1,-1.7 1.45,-3.8 1.4,4.2 1.65,8.8 0.3,7 -2.2,13.4 -1.4,3.55 -3.25,5.5 -2.35,2.5 -6.85,4.15 -6.65,2.5 -13.65,2.35 -7.3,-0.1 -13.35,-3.15 -5.6,-2.9 -8.3,-7.3 -1.45,-2.45 -1.9,-5.2 -0.4,-2.85 0.4,-5.4 l 0.65,-1.7 0.2,-0.6 2.75,-0.5 q 3,-0.7 3.6,-2.3 0.4,-1.1 -0.05,-2 l -4.5,0.5 q -6.5,0.5 -8.55,-1 -2.1,-1.5 -2.75,-3.4 -0.7,-1.9 -0.7,-3.4 -0.05,-2.4 0.45,-4.5 l 0.3,1.5 0.95,2.1 0.6,1.05 -0.5,0.75 q -0.3,0.75 -0.05,1.55 0.25,0.85 0.85,1.3 0.7,0.45 1.55,0.4 0.9,-0.05 1.55,-0.55 l 0.5,-0.65 q 2.45,0.95 4.7,0.9 l 2.7,-0.4 q 0.55,-0.05 0.95,-0.35 2.7,-1.1 5,-3.8 1.2,-1.35 1.65,-2.7 0.4,-1.2 0.4,-2.75 0.1,-2.55 -0.45,-4.5 l -0.45,-1.15 q 1.35,1.05 1.95,2.5 l 0.5,1.1 -0.5,2.45 q -0.1,1.6 0.55,4.35 l 0.65,3.1 0.85,2.95 q 0.75,1.5 2.5,3.2 2.65,2.45 5.8,3.85 1.75,0.75 3.45,1.1 M 32.5,-24.5 q -1.9,-4.25 -4.5,-7.15 l 3.15,-1.2 q 2.15,-0.8 4,-0.95 l -1.45,8.05 -0.8,2.2 -0.4,-0.95 m -59.15,-14.65 2.9,1.15 -2.85,1.95 -0.2,-1.85 0.15,-1.25 M -4.15,-13 -6,-13.25 q -0.95,0.25 -1.55,0.9 -0.65,0.65 -0.7,1.65 -0.05,1.05 0.45,1.8 0.45,0.6 1.3,1 l 1.65,0.1 q 0.9,-0.15 1.5,-0.85 0.6,-0.6 0.65,-1.5 0.15,-0.9 -0.3,-1.7 -0.35,-0.7 -1.15,-1.15 m -25.5,1.5 0.05,0.05 -3.55,1.2 0.1,-1.25 0.4,-1 0.1,-1.2 0.45,-1.1 q 0.85,1.8 2.45,3.3 m 9.75,27.35 0.6,1.4 1,1.45 q 0.75,1.75 2.8,3.5 4.35,3.7 11.1,4.8 l 12.2,0.35 q 3.9,-0.2 5.95,-1 2.05,-0.85 4.3,-2.9 2.25,-1.95 2.55,-3.75 l 0.05,-0.1 0.85,2 q 1.3,3.45 1.7,5.8 0.4,2 0.4,4.05 0,1.9 -0.35,3.35 l -0.75,1.45 q -0.6,0.7 -2.3,1.2 -2.1,0.75 -3.25,0.75 l -1.6,-0.1 0.15,-0.65 0.5,-1.7 0.05,-1.8 0.15,-1 0.05,-1.05 q -0.2,-1.15 -1.3,-1.65 L 12.8,30.3 q -0.9,0.35 -1.25,1.2 l -0.05,1.8 -0.15,1.8 Q 11,37.9 9.95,39.55 L 8.75,41.15 7.9,41.8 6.7,41.85 5.4,41.5 Q 5,41.25 4.6,40.4 L 4.05,39.4 4.3,37.9 4.75,35.5 4.9,33.35 Q 4.8,32.05 4,31.35 3.2,30.65 2.15,30.9 1.15,31 0.6,32 l -0.4,1.4 -0.3,2.15 -0.85,3.75 Q -1.4,40.9 -2,41.45 l -1.5,0.85 -1.75,-0.05 q -1.75,-0.6 -2.4,-2.4 -0.45,-1.1 -0.3,-2.95 l 0.15,-3.05 q 0,-1.2 -0.6,-2 -0.35,-0.45 -0.85,-0.6 -0.55,-0.2 -1,0 -0.8,0.25 -1.3,1.85 -0.95,3.1 -1,5.05 l 0.05,0.65 h -0.1 l -1.55,0.3 q -2.35,0.45 -4.45,0.05 -2.45,-0.4 -3.95,-1.85 -2.7,-2.65 -2.3,-8.15 0.5,-6.55 4.1,-12.1 l 0.85,-1.2 m -12.8,2.85 0.2,0.05 q 1.05,0.4 2.15,0 0.5,-0.15 0.9,-0.45 l 0.25,1.7 0.45,1.15 -0.65,2.1 -0.9,4.6 -0.65,-1.75 q -1.15,-3.65 -1.75,-7.4"
         fill="#bebebe"
         fill-rule="evenodd"
         stroke="none"
         id="path3" />
      <path
         d="m -19.9,15.85 1.3,-1.6 1.25,-1.35 0.05,-0.05 0.15,-0.1 0.1,0.1 3,2.25 q 6.35,4.25 14.55,5.25 l 13.05,-0.5 6.2,-1.8 0.85,1.5 0.05,0.05 -0.05,0.1 q -0.3,1.8 -2.55,3.75 -2.25,2.05 -4.3,2.9 -2.05,0.8 -5.95,1 L -4.4,27 q -6.75,-1.1 -11.1,-4.8 -2.05,-1.75 -2.8,-3.5 l -1,-1.45 -0.6,-1.4"
         fill="#9f9f9f"
         fill-rule="evenodd"
         stroke="none"
         id="path4" />
    </g>
    <g
       id="sprite1"
       transform="translate(17.4,15.85)">
      <use
         ffdec:characterId="31"
         height="57.200001"
         transform="matrix(0.5366,0,0,0.5366,-16.6582,-14.546)"
         width="70.75"
         xlink:href="#sprite2"
         id="use4" />
    </g>
    <g
       id="sprite2"
       transform="translate(-8.65,-10.35)">
      <use
         ffdec:characterId="30"
         height="57.200001"
         transform="translate(8.65,10.35)"
         width="70.75"
         xlink:href="#shape1"
         id="use5" />
    </g>
    <g
       id="shape1"
       transform="translate(-8.65,-10.35)">
      <path
         d="m 14.8,41.7 q 0.65,-1.75 2.65,-2.5 1.8,-0.8 3.7,-0.25 1.15,0.45 2.25,1.2 l 0.9,0.4 q 1.65,0.9 2.85,2.5 L 37.8,30.1 q 2.35,-2.8 3.75,-3.95 1.5,-1.15 4.25,-2.4 18.2,-8.85 27.65,-12.6 2.15,-0.8 3.25,-0.8 h 0.8 l 1.9,2.4 -0.2,0.8 q -0.2,1.1 -1.55,3 -5.85,8.25 -18.85,23.8 -1.85,2.35 -3.35,3.5 -1.4,1.15 -4.75,2.75 l -15.15,7.15 q 1.2,1.6 1.75,3.4 l 0.2,1 0.55,2.5 q 0.1,1.95 -1.1,3.55 -1.2,1.65 -3.05,1.9 l -1.3,0.05 q -1.65,0.2 -3.45,-0.65 -1.85,-0.9 -3,-2.6 L 25,60.95 23.8,62.1 q -2.6,2.85 -4.3,3.95 -2.85,1.8 -5.5,1.45 l -1.65,-0.5 -1.2,-0.7 -0.2,-0.2 q -1,-0.85 -1.6,-1.9 L 9.25,64 9.15,63.8 8.75,62.4 q -0.2,-0.8 -0.05,-1.7 0.25,-2.65 2.7,-5.05 1.5,-1.3 4.9,-3.15 L 17.7,51.55 16.05,50 q -1.35,-1.5 -1.8,-3.6 -0.4,-1.85 0.25,-3.45 l 0.3,-1.25"
         fill="#000000"
         fill-opacity="0.372549"
         fill-rule="evenodd"
         stroke="none"
         id="path5" />
    </g>
  </defs>
</svg>
