<?xml version="1.0" encoding="UTF-8" standalone="no"?>
<svg
   ffdec:objectType="frame"
   height="92.816666"
   width="88.770874"
   version="1.1"
   id="svg6"
   xmlns:xlink="http://www.w3.org/1999/xlink"
   xmlns="http://www.w3.org/2000/svg"
   xmlns:svg="http://www.w3.org/2000/svg"
   xmlns:ffdec="https://www.free-decompiler.com/flash">
  <g
     transform="translate(46.47,46.25)"
     id="g1">
    <use
       ffdec:characterId="17"
       height="119.15"
       id="rarity"
       transform="translate(-58.5,-60.65)"
       width="119.15"
       xlink:href="#sprite0" />
    <use
       ffdec:characterId="805"
       height="92.849998"
       transform="translate(-46.45,-46.3)"
       width="88.75"
       xlink:href="#shape0"
       id="use1" />
  </g>
  <defs
     id="defs6">
    <g
       id="shape0"
       transform="translate(47,47.05)">
      <path
         d="m -9.5,-30.5 h -2.35 l -4.75,0.25 0.2,1.3 6.85,-0.8 0.05,-0.75 m -18.55,55.9 q -2.35,-1.3 -3.25,-2.8 -0.95,-1.65 -0.95,-5.25 V 13.4 h -0.05 l -1.25,0.7 q -1.9,1 -3.9,1.15 -2.15,0.2 -3.9,-0.65 l -2.8,-1.95 Q -46.2,10.75 -46.7,9.4 -47.1,8.35 -47,6.8 q 0.15,-2.4 1.25,-4.6 1.1,-2.25 2.95,-3.75 1.85,-1.55 4.25,-2.15 2.45,-0.6 4.75,-0.05 0.85,0.2 1.55,0.6 l 0.3,-14.65 q 0.1,-2.6 0.75,-3.85 0.75,-1.45 3.25,-3.05 2.9,-1.7 6.15,-2.8 l -0.15,-0.8 -0.25,-3.6 q 0.25,-2.15 1.65,-3.1 0.85,-0.55 2.95,-0.75 l 2.8,-0.2 2.4,-0.1 4.1,0.6 1.5,0.35 q 0.85,0.35 1.4,1.15 0.5,0.9 0.3,1.75 l -0.5,1.2 -0.3,1.2 11.75,1.25 v -1.05 l -0.1,-1.6 q 0.1,-1 0.45,-1.55 0.45,-0.65 1.35,-0.9 l 1.6,-0.3 1.4,-0.05 q -0.2,-2 0.55,-4.05 0.85,-2.45 2.75,-4.3 3.25,-3.25 9.1,-4.4 l 4,-0.25 q 1.85,0.2 3.95,1.2 3.2,1.6 5.5,4.45 2.3,2.95 3,6.4 0.7,3.5 -0.3,7.05 -1.05,3.55 -3.6,6.05 l -2.1,2 -0.4,0.55 2.7,0.25 2.45,0.95 1.3,1.25 1.1,1.5 q 1.85,3.2 0.85,6.95 -1,3.45 -4,5.85 -1.65,1.3 -3.25,1.65 l -3,0.2 -2.95,-0.35 Q 27.4,-1.4 26.45,-2.2 24.5,-3.8 23.9,-5.55 23.6,-6.5 23.65,-7.6 L 22.95,3 22.4,7.9 q 4.15,-0.45 6.8,1.35 3.3,2.15 4.5,7.6 1.05,4.6 0.5,9.3 -0.55,4.7 -2.6,8.9 -3.25,6.6 -8.4,7.75 l -4.25,0.15 -3.55,-0.7 -2.85,-0.75 q -1.25,-0.05 -2.8,0.75 l -2.6,1.55 q -3.75,2.2 -8.45,2 -4.55,-0.15 -8.45,-2.45 -2.6,-1.55 -3.6,-3.4 -0.65,-1.1 -0.75,-2.35 l 0.05,-0.9 -5.4,-1 q -2.6,-0.8 -3.15,-2.2 -0.25,-0.7 -0.15,-1.9 l 0.15,-2.9 0.05,-1.05 q -3.1,-0.9 -5.5,-2.25 m 33.8,-44.5 -0.05,-0.4 -0.1,-2.4 -9.6,-1.25 -0.5,-0.05 -4.4,0.05 q -8.15,0.45 -14.5,3.85 l -1.4,1.15 q -0.5,0.7 -0.5,2.4 l -0.15,16.2 -0.15,16.1 v 0.9 q -0.1,0.95 0.25,1.55 l 0.95,0.8 q 1.8,1 3.95,1.65 l 4.3,0.9 6.6,0.95 6.65,0.3 4.25,-0.45 0.1,-0.85 0.2,-1.1 L 2,19.3 2.4,16.95 0.1,16.4 q -0.8,-0.45 -1.2,-1.3 l -0.2,-0.6 -0.1,-1.15 q 0.1,-0.9 0.7,-1.6 Q -0.1,11 0.75,10.8 l 1.7,-0.2 1,-0.05 L 5.1,-2.4 5.35,-4.85 4.8,-4.9 3.65,-5.1 Q 2.7,-5.4 2.05,-6.25 L 1.65,-6.9 Q 1.4,-7.45 1.4,-8.05 q -0.05,-1 0.55,-1.9 0.55,-0.85 1.5,-1.2 l 1.7,-0.25 0.8,0.05 0.1,-3.35 -0.3,-4.4 m -20.95,23.4 1.8,-3.05 0.3,-0.5 -1.1,-0.3 h -1.45 L -17.1,0.6 q -1.85,0.1 -2.75,-0.75 -0.6,-0.6 -0.7,-1.5 -0.1,-0.9 0.4,-1.6 l 1.05,-1.1 0.65,-1 1.8,-2.8 q 2.95,-4.4 5.7,-7.4 l 1.1,-0.85 1.3,0.15 q 0.65,0.5 0.65,1.2 0.05,0.65 -0.8,1.8 -3.1,4.1 -5.5,8.5 l 3.5,0.75 q 1.85,0.4 2.55,1.1 0.65,0.6 0.75,1.4 l 0.05,0.05 0.15,0.35 q 0.3,0.6 0.05,1.35 -0.15,0.65 -0.9,1.55 l -1.05,1.4 -1.25,1.4 -3.05,3.7 -2.35,3.45 -1,1.15 -1.4,0.1 q -0.65,-0.35 -0.55,-1.4 l 0.65,-1.55 0.75,-1.8 1.15,-2.3 0.95,-1.65 m 34.45,-29.45 q 3.6,1.55 4.5,4.2 0.5,1.35 0.3,3.9 L 23.7,-9 q 0.25,-3.25 2,-4.6 l 0.5,-0.5 0.1,-0.4 q -0.5,-4.1 1.95,-7.65 l 3.35,-3.7 q 2.05,-2.2 2.5,-4.05 0.55,-2.25 -0.4,-4.9 -0.85,-2.55 -2.6,-4.35 -1.9,-1.95 -4.25,-2.4 l -4.05,0.1 q -3.85,0.7 -5.95,2.75 -1.7,1.6 -2.1,4.05 l -0.1,0.9 0.3,0.05 2.45,1.15 q 1.6,0.85 1.75,1.8 v 1.25 l -0.2,1.15 -0.6,2.65 -0.05,0.15 0.95,0.4 m -6.9,-2.1 2.35,0.55 0.45,-1.4 v -0.25 l -0.25,-0.2 q -1.9,-0.9 -4.05,-0.5 l -0.05,1.45 1.55,0.35 m 5.7,11.7 0.05,-1.85 q 0.1,-0.7 -0.15,-1.05 -0.15,-0.3 -0.8,-0.5 l -2.45,-0.8 -1.95,-0.5 -3.2,-0.8 0.3,3.8 0.2,5.95 1.4,0.55 0.65,0.6 q 1.25,1.35 1.4,2.2 0.15,0.7 -0.15,1.3 L 12.6,-5.7 11.8,-5.3 9.85,-4.85 9.75,-3.05 9.5,0.05 8.35,10.1 9.3,10.05 q 0.95,0.15 1.7,0.85 l 0.2,0.2 0.35,0.5 0.35,0.95 q 0.2,0.9 -0.2,1.85 -0.35,0.95 -1.15,1.45 L 10.3,16 8.15,16.6 7.45,16.7 7.2,18.55 6.85,21.1 6.7,22.2 10.3,21.45 13.8,20.6 q 2.45,-8.7 3.25,-17.65 l 0.4,-5.95 0.6,-12.55 m 15.5,1.9 q 0.75,0.75 0.8,1.75 0.05,1.05 -0.75,1.95 -0.75,0.85 -1.85,1.05 -2.1,0.4 -3.7,-1.35 l -0.05,0.1 0.15,2.9 0.5,0.7 1.3,1 1.15,0.2 2.25,-0.15 q 0.5,-0.15 1.3,-0.65 1.25,-0.85 2,-2.25 0.75,-1.35 0.8,-2.85 l -0.05,-0.7 -1.1,-1.7 -0.55,-0.65 -1.05,-0.35 -2,-0.15 -0.65,0.2 1.5,0.95 M 19.3,22.85 q -0.5,1.85 -1.2,2.55 -0.85,0.95 -3.25,1.45 l -2.95,0.6 -0.15,2.3 -0.4,2 -0.15,1.35 q -0.3,1 -1.35,1.5 l -2.05,0.55 -8.35,0.3 -1.55,-0.15 -0.3,0.35 q -1.3,1.6 -4.3,1.6 L -8.65,37.2 q 1.35,1.6 4.5,2.5 4.5,1.2 7.4,0.1 l 2.2,-1.25 2.15,-1.3 q 3,-1.6 6.45,-1.05 1.5,0.25 4.45,1.25 2.65,0.7 4.55,0 1.95,-0.75 3.55,-3.5 2.25,-3.8 2.8,-8.3 0.55,-4.55 -0.75,-8.8 -0.9,-2.9 -2.55,-3.6 l -4.2,0.1 -0.4,0.1 q -0.9,4.65 -2.2,9.4 M 1.85,29.3 -0.5,29.7 h -0.05 l -0.1,1.15 H -0.5 L 6.5,30.5 6.9,30.4 7.15,29.75 7.4,28.4 V 28.35 L 1.85,29.3 M -38.75,10 -39.55,7.7 q -0.5,-2.05 -0.05,-3.15 0.35,-0.85 1.1,-1.35 0.8,-0.55 1.7,-0.5 0.85,0.05 1.65,0.6 0.75,0.6 1,1.45 l 0.3,1.65 q 0.1,1 0.7,1.45 L -33,7.95 -32.25,7.3 V 2.95 l -0.3,-0.25 -0.6,-0.95 Q -33.6,1.2 -34.6,1 q -2.65,-0.5 -4.75,1.15 -2.1,1.6 -2.25,4.35 l 0.1,1 0.5,0.85 q 1.15,1.4 2.35,1.8 L -38.75,10 m 31.55,19.95 -3.25,-0.3 -7.3,-0.9 v 2.05 l 4.75,0.9 2.6,0.25 2.3,0.25 2.3,-0.05 0.65,-2.1 -2.05,-0.1"
         fill="#000000"
         fill-rule="evenodd"
         stroke="none"
         id="path1" />
      <path
         d="m -25.45,0.45 0.15,-16.2 q 0,-1.7 0.5,-2.4 l 1.4,-1.15 q 6.35,-3.4 14.5,-3.85 l 4.4,-0.05 0.5,0.05 9.6,1.25 0.1,2.4 0.05,0.4 -1.8,0.35 h -3.1 l -3.8,0.25 q 0.05,8.9 -4.1,16.45 l -0.3,0.6 L -7.4,-1.5 Q -7.5,-2.3 -8.15,-2.9 -8.85,-3.6 -10.7,-4 l -3.5,-0.75 q 2.4,-4.4 5.5,-8.5 0.85,-1.15 0.8,-1.8 0,-0.7 -0.65,-1.2 l -1.3,-0.15 -1.1,0.85 q -2.75,3 -5.7,7.4 l -1.8,2.8 -0.65,1 -1.05,1.1 q -0.5,0.7 -0.4,1.6 0.1,0.9 0.7,1.5 0.9,0.85 2.75,0.75 l 1.45,-0.15 h 1.45 l 1.1,0.3 -0.3,0.5 -1.8,3.05 q -1.9,0.35 -3.85,0.05 -3.25,-0.5 -5.35,-2.65 l -1.05,-1.25 m 27.1,-7.35 0.4,0.65 Q 2.7,-5.4 3.65,-5.1 L 4.8,-4.9 5.35,-4.85 5.1,-2.4 q -1.7,0.35 -3,-0.85 -1.2,-1.1 -0.95,-2.5 0.1,-0.65 0.5,-1.15 m -2.95,21.4 0.2,0.6 q 0.4,0.85 1.2,1.3 L 2.4,16.95 2,19.3 1.1,19.15 q -1.5,-0.4 -2.3,-1.6 -0.85,-1.35 -0.3,-2.7 L -1.3,14.5 M 10.3,21.45 6.7,22.2 6.85,21.1 7.2,18.55 7.45,16.7 8.15,16.6 10.3,16 10.55,15.85 q 0.8,-0.5 1.15,-1.45 0.4,-0.95 0.2,-1.85 L 11.55,11.6 11.2,11.1 11,10.9 Q 10.25,10.2 9.3,10.05 L 8.35,10.1 9.5,0.05 l 0.25,-3.1 0.1,-1.8 1.95,-0.45 0.8,-0.4 0.75,-0.95 q 0.3,-0.6 0.15,-1.3 -0.15,-0.85 -1.4,-2.2 l -0.65,-0.6 -1.4,-0.55 -0.2,-5.95 -0.3,-3.8 3.2,0.8 1.95,0.5 2.45,0.8 q 0.65,0.2 0.8,0.5 0.25,0.35 0.15,1.05 l -0.05,1.85 -2.1,-0.4 -0.9,-0.25 -0.2,0.2 -0.9,1.35 0.3,3.2 q 0,0.55 0.15,1.05 l 0.45,0.9 q 1.05,2 0.4,3.35 -0.2,0.6 -1.3,1.55 l -1.1,0.8 0.05,0.4 -0.8,7.5 -0.4,6.1 -0.1,1.05 0.2,0.1 0.95,0.8 0.4,0.75 0.35,1.15 q 0.25,1.3 -0.55,2.5 -0.65,1 -2,1.75 l -0.1,0.05 v 0.05 l -0.35,2.1 -0.05,0.35 -0.15,0.6"
         fill="#a77b64"
         fill-rule="evenodd"
         stroke="none"
         id="path2" />
      <path
         d="m 1.65,21.2 -0.2,1.1 -0.1,0.85 -4.25,0.45 -6.65,-0.3 -6.6,-0.95 -4.3,-0.9 Q -22.6,20.8 -24.4,19.8 L -25.35,19 q -0.35,-0.6 -0.25,-1.55 v -0.9 l 1.3,0.6 q 1.8,1 5.25,1.75 10.35,2.25 20.7,2.3 m 8.65,0.25 0.15,-0.6 1.7,-0.2 1.65,-0.05 -3.5,0.85 M 1.85,29.3 7.4,28.35 v 0.05 l -0.25,1.35 -0.25,0.65 -0.4,0.1 -7,0.35 h -0.15 l 0.1,-1.15 h 0.05 l 2.35,-0.4 m -9.05,0.65 2.05,0.1 -0.65,2.1 -2.3,0.05 -2.3,-0.25 -2.6,-0.25 -4.75,-0.9 v -2.05 l 7.3,0.9 3.25,0.3"
         fill="#5f483c"
         fill-rule="evenodd"
         stroke="none"
         id="path3" />
      <path
         d="m -25.45,0.45 1.05,1.25 q 2.1,2.15 5.35,2.65 1.95,0.3 3.85,-0.05 l -0.95,1.65 -1.15,2.3 -0.75,1.8 -0.65,1.55 q -0.1,1.05 0.55,1.4 l 1.4,-0.1 1,-1.15 2.35,-3.45 3.05,-3.7 1.25,-1.4 1.05,-1.4 Q -7.3,0.9 -7.15,0.25 -6.9,-0.5 -7.2,-1.1 l -0.15,-0.35 0.3,-0.6 q 4.15,-7.55 4.1,-16.45 l 3.8,-0.25 h 3.1 l 1.8,-0.35 0.3,4.4 -0.1,3.35 -0.8,-0.05 -1.7,0.25 q -0.95,0.35 -1.5,1.2 -0.6,0.9 -0.55,1.9 0,0.6 0.25,1.15 -0.4,0.5 -0.5,1.15 -0.25,1.4 0.95,2.5 1.3,1.2 3,0.85 l -1.65,12.95 -1,0.05 -1.7,0.2 q -0.85,0.2 -1.45,0.95 -0.6,0.7 -0.7,1.6 l 0.1,1.15 -0.2,0.35 q -0.55,1.35 0.3,2.7 0.8,1.2 2.3,1.6 L 2,19.3 1.65,21.2 Q -8.7,21.15 -19.05,18.9 -22.5,18.15 -24.3,17.15 l -1.3,-0.6 0.15,-16.1 m 35.9,20.4 0.05,-0.35 0.35,-2.1 v -0.05 l 0.1,-0.05 q 1.35,-0.75 2,-1.75 0.8,-1.2 0.55,-2.5 l -0.35,-1.15 -0.4,-0.75 -0.95,-0.8 -0.2,-0.1 0.1,-1.05 0.4,-6.1 0.8,-7.5 -0.05,-0.4 1.1,-0.8 q 1.1,-0.95 1.3,-1.55 0.65,-1.35 -0.4,-3.35 l -0.45,-0.9 q -0.15,-0.5 -0.15,-1.05 l -0.3,-3.2 0.9,-1.35 0.2,-0.2 0.9,0.25 2.1,0.4 -0.6,12.55 -0.4,5.95 Q 16.25,11.9 13.8,20.6 l -1.65,0.05 -1.7,0.2"
         fill="#825e4b"
         fill-rule="evenodd"
         stroke="none"
         id="path4" />
      <path
         d="m -9.5,-30.5 -0.05,0.75 -6.85,0.8 -0.2,-1.3 4.75,-0.25 h 2.35 m 21.85,3.25 -1.55,-0.35 0.05,-1.45 q 2.15,-0.4 4.05,0.5 l 0.25,0.2 v 0.25 l -0.45,1.4 -2.35,-0.55 m 21.2,13.6 -1.5,-0.95 0.65,-0.2 2,0.15 1.05,0.35 0.55,0.65 1.1,1.7 0.05,0.7 q -0.05,1.5 -0.8,2.85 -0.75,1.4 -2,2.25 -0.8,0.5 -1.3,0.65 l -2.25,0.15 -1.15,-0.2 -1.3,-1 -0.5,-0.7 -0.15,-2.9 0.05,-0.1 q 1.6,1.75 3.7,1.35 1.1,-0.2 1.85,-1.05 0.8,-0.9 0.75,-1.95 -0.05,-1 -0.8,-1.75 m -72.3,23.65 0.1,0.15 q -1.2,-0.4 -2.35,-1.8 l -0.5,-0.85 -0.1,-1 q 0.15,-2.75 2.25,-4.35 2.1,-1.65 4.75,-1.15 1,0.2 1.45,0.75 l 0.6,0.95 0.3,0.25 V 7.3 L -33,7.95 -33.15,7.85 q -0.6,-0.45 -0.7,-1.45 l -0.3,-1.65 q -0.25,-0.85 -1,-1.45 -0.8,-0.55 -1.65,-0.6 -0.9,-0.05 -1.7,0.5 -0.75,0.5 -1.1,1.35 -0.45,1.1 0.05,3.15 l 0.8,2.3"
         fill="#c8c8c8"
         fill-rule="evenodd"
         stroke="none"
         id="path5" />
    </g>
    <g
       id="sprite1"
       transform="translate(17.4,15.85)">
      <use
         ffdec:characterId="31"
         height="57.200001"
         transform="matrix(0.5366,0,0,0.5366,-16.6582,-14.546)"
         width="70.75"
         xlink:href="#sprite2"
         id="use5" />
    </g>
    <g
       id="sprite2"
       transform="translate(-8.65,-10.35)">
      <use
         ffdec:characterId="30"
         height="57.200001"
         transform="translate(8.65,10.35)"
         width="70.75"
         xlink:href="#shape1"
         id="use6" />
    </g>
    <g
       id="shape1"
       transform="translate(-8.65,-10.35)">
      <path
         d="m 14.8,41.7 q 0.65,-1.75 2.65,-2.5 1.8,-0.8 3.7,-0.25 1.15,0.45 2.25,1.2 l 0.9,0.4 q 1.65,0.9 2.85,2.5 L 37.8,30.1 q 2.35,-2.8 3.75,-3.95 1.5,-1.15 4.25,-2.4 18.2,-8.85 27.65,-12.6 2.15,-0.8 3.25,-0.8 h 0.8 l 1.9,2.4 -0.2,0.8 q -0.2,1.1 -1.55,3 -5.85,8.25 -18.85,23.8 -1.85,2.35 -3.35,3.5 -1.4,1.15 -4.75,2.75 l -15.15,7.15 q 1.2,1.6 1.75,3.4 l 0.2,1 0.55,2.5 q 0.1,1.95 -1.1,3.55 -1.2,1.65 -3.05,1.9 l -1.3,0.05 q -1.65,0.2 -3.45,-0.65 -1.85,-0.9 -3,-2.6 L 25,60.95 23.8,62.1 q -2.6,2.85 -4.3,3.95 -2.85,1.8 -5.5,1.45 l -1.65,-0.5 -1.2,-0.7 -0.2,-0.2 q -1,-0.85 -1.6,-1.9 L 9.25,64 9.15,63.8 8.75,62.4 q -0.2,-0.8 -0.05,-1.7 0.25,-2.65 2.7,-5.05 1.5,-1.3 4.9,-3.15 L 17.7,51.55 16.05,50 q -1.35,-1.5 -1.8,-3.6 -0.4,-1.85 0.25,-3.45 l 0.3,-1.25"
         fill="#000000"
         fill-opacity="0.372549"
         fill-rule="evenodd"
         stroke="none"
         id="path6" />
    </g>
  </defs>
</svg>
