<?xml version="1.0" encoding="UTF-8" standalone="no"?>
<svg
   ffdec:objectType="frame"
   height="44.349998"
   width="79.150002"
   version="1.1"
   id="svg10"
   sodipodi:docname="200.svg"
   xmlns:inkscape="http://www.inkscape.org/namespaces/inkscape"
   xmlns:sodipodi="http://sodipodi.sourceforge.net/DTD/sodipodi-0.dtd"
   xmlns:xlink="http://www.w3.org/1999/xlink"
   xmlns="http://www.w3.org/2000/svg"
   xmlns:svg="http://www.w3.org/2000/svg"
   xmlns:ffdec="https://www.free-decompiler.com/flash">
  <sodipodi:namedview
     id="namedview10"
     pagecolor="#ffffff"
     bordercolor="#000000"
     borderopacity="0.25"
     inkscape:showpageshadow="2"
     inkscape:pageopacity="0.0"
     inkscape:pagecheckerboard="0"
     inkscape:deskcolor="#d1d1d1"
     fit-margin-top="5"
     fit-margin-left="5"
     fit-margin-right="5"
     fit-margin-bottom="5" />
  <g
     transform="translate(2.55,2.05)"
     id="g3">
    <use
       ffdec:characterId="1"
       height="42.700001"
       transform="translate(-1.75,-2)"
       width="76.449997"
       xlink:href="#shape0"
       id="use1" />
    <use
       ffdec:characterId="197"
       height="39.950001"
       transform="translate(-2.55,1.55)"
       width="78.050003"
       xlink:href="#shape1"
       id="use2" />
    <use
       ffdec:characterId="3"
       height="44.349998"
       transform="translate(-2,-2.05)"
       width="78.599998"
       xlink:href="#shape2"
       id="use3" />
  </g>
  <defs
     id="defs10">
    <g
       id="shape0"
       transform="translate(1.75,2)">
      <path
         d="M 2.8,0 V -0.4 H 5.4 V 0 H 9.7 V 19.45 0 H 20.55 L 19.3,19.45 H 9.7 0.25 V 0 H 2.8"
         fill="#ffffff"
         fill-rule="evenodd"
         stroke="none"
         id="path3" />
      <path
         d="M 0.25,19.45 H 9.7 19.3 L 18.7,28.6 16,28.5 10.95,27.95 9.7,27.8 Q 7.45,27.6 5.85,27.75 4.05,27.9 1.5,28.6 0.75,28.8 0.25,29.15 v -9.7 m 9.45,0 v 8.35 -8.35"
         fill="#121212"
         fill-rule="evenodd"
         stroke="none"
         id="path4" />
      <path
         d="m 9.7,27.8 1.25,0.15 5.05,0.55 2.7,0.1 h 1.05 l 3.75,0.15 q 2.45,0.3 3.6,1.25 0.6,0.5 0.6,1.1 0,0.65 -0.8,1 l -1.3,0.2 -7.15,0.15 -5.6,-0.3 L 9.7,31.75 7.95,31.6 3.1,31.95 0.95,32.3 0.25,32.1 -0.35,31.55 -0.5,31.3 V 29.9 L 0.25,29.15 Q 0.75,28.8 1.5,28.6 4.05,27.9 5.85,27.75 7.45,27.6 9.7,27.8 v 3.95 -3.95"
         fill="#999999"
         fill-rule="evenodd"
         stroke="none"
         id="path5" />
      <path
         d="M 2.8,0 H 0.25 M 9.7,0 H 5.4 m 16.15,0 h 10.7 M 20.55,0 H 9.7"
         fill="none"
         stroke="#666666"
         stroke-linecap="round"
         stroke-linejoin="round"
         stroke-width="4"
         id="path6" />
      <path
         d="m 9.7,-0.4 h 65 V 40.5 H 47.05 L 45.5,40.7 27,40.65 25.95,40.5 H 9.7 -0.5 V -0.4 H 9.7 V 40.5 -0.4"
         fill="#ffffff"
         fill-rule="evenodd"
         stroke="none"
         id="path7" />
    </g>
    <g
       id="shape1"
       transform="translate(2.55,-1.55)">
      <path
         d="m 74.9,18.3 0.5,1.3 -0.05,1.35 -0.4,1.35 -0.45,2.35 Q 73.8,30.1 73.8,35.2 l 0.2,1.7 0.5,1.15 q 0.35,0.7 0.3,1.15 -0.05,1 -1.1,1.5 l -1.8,0.5 q -2.15,0.25 -6.4,0.15 -4.3,-0.1 -6.4,0.1 -2.1,0.2 -2.8,-0.35 -0.8,-0.7 -0.7,-1.95 0.05,-0.9 0.6,-2.05 l 3.2,-7.8 q 1.15,-2.7 1.95,-3.8 l 1.5,-1.6 q 1.35,-1.05 4.4,-2.6 l -1.4,-8.2 q -0.2,-1.3 0,-1.9 0.3,-0.85 1.8,-1.7 L 72.8,6.5 74,6 q 0.8,-0.15 1.2,0.4 0.45,0.6 -0.05,1.35 l -1.05,0.95 1.05,0.95 0.35,1.4 -0.3,2.2 0.15,1.4 q 0.15,1.1 -0.3,2.4 L 74.9,18.3 M 46.05,11.5 46.2,10.75 45.9,10.1 Q 44.9,8.6 44,8.1 43.4,7.75 42.55,7.6 l -9.2,0.3 Q 31.55,8.3 31,9.15 l -0.5,1 Q 30,10.75 29.5,10.4 29.1,10.05 29.4,9.3 30.15,7.05 31,6.5 31.5,6.15 32.7,5.85 36.1,5 40,5 l 3.45,0.3 q 1.9,0.5 3.05,1.6 l 1.45,1.8 0.55,0.95 0.1,1.3 -0.2,1.5 -0.2,0.65 0.15,0.1 q 0.75,0.65 0.75,1.35 l -0.4,1.25 q 2.25,0.5 3.35,1.5 1.1,1.1 1.6,2.5 l 0.5,1.95 0.2,2.65 v 1.45 l -0.3,1.2 q -0.8,2.5 -2.3,4.85 l -1.9,2.75 -0.8,0.9 -1.15,0.1 q -0.45,-0.3 -0.35,-0.95 0,-0.45 0.35,-1.05 l 1.95,-2.85 1.75,-3 0.55,-1.55 0.2,-0.75 -0.1,-0.75 L 52.2,21.9 Q 52,20.5 50.9,19.4 l -1.15,-0.85 -0.3,0.1 -0.65,0.1 -0.65,0.05 -1.05,0.25 -0.65,0.25 -0.6,0.1 -0.8,0.15 -0.6,0.2 -0.55,0.3 -1.1,0.7 q -0.95,0.65 -1.5,0.65 l -0.9,-0.3 -0.6,-0.75 q -0.35,-1.15 0.45,-1.85 0.3,-0.3 0.9,-0.65 2.15,-1.3 4.5,-3.95 L 46.15,13.4 46,13.05 q -0.15,-0.5 0.05,-1.55 m -9.85,2.45 -0.55,0.7 -1,2.3 -0.3,0.85 q -0.3,0.45 -0.7,0.4 -0.4,-0.1 -0.5,-0.5 l 0.05,-0.75 q 0.25,-1.55 0.95,-3.45 l 0.25,-0.65 0.1,-1.05 q 0.2,-0.55 1.1,-0.95 l 1.85,-0.4 1.85,-0.3 2.3,-0.7 2.3,0.15 q 1.2,0.7 1.1,2.05 -0.1,1.35 -1.35,1.85 l -1.35,0.25 -5.1,0.05 -1,0.15 m 2.3,13.45 q 0,-0.3 0.25,-0.45 0.3,-0.25 1.05,-0.25 h 2.65 l 0.85,-0.1 0.35,-0.4 1.65,-2.8 1.6,-2.7 0.65,-0.8 q 0.95,-0.8 2.2,-0.3 1.15,0.6 1.15,1.85 -0.05,0.9 -0.9,2.1 l -1.95,2.9 -2,2.15 q -1.3,1.2 -2.4,0.95 l -0.9,-0.45 -1.9,-0.6 -1.9,-0.6 Q 38.5,27.7 38.5,27.4 m -7.95,-3.8 1.2,-0.35 1.7,-0.4 1.15,-0.55 q 1,-0.5 2.55,-1.05 L 38.75,21 q 0.75,0 0.75,0.5 0,0.4 -0.45,0.6 l -1.75,1 -4.25,1.9 q 0.2,0.9 -0.45,1.45 L 31.85,26.8 28.4,27.95 V 28 l -0.05,-0.15 -0.8,0.1 H 27.5 l -1.65,1.35 -0.5,0.65 -0.45,0.75 -0.85,0.5 -4.5,1.6 -0.5,0.15 L 18.2,34 q -1.85,2.15 -4.65,3.2 -3.45,1.3 -5.9,-0.25 -1.1,-0.7 -1.75,-2 -0.6,-1.2 -0.65,-2.6 -0.05,-2.55 1.7,-5 3.05,-4.4 11.2,-6.9 L 21.8,19 Q 23.15,18.15 24.35,16.45 25.9,14.1 25.9,11.5 25.9,8.6 23.95,6.8 22.65,5.65 20.7,5.35 l -3.6,0.3 q 1.2,2.5 -0.55,6.45 -2.25,5 -6.75,8.4 -1.4,1 -2.45,1.25 l -2,-0.15 Q 4.35,21.25 3.85,20.4 3.1,19.1 3.7,16.95 4.9,12.25 9.9,6.5 7.75,6.8 5.95,8.75 q -1.25,1.4 -2.35,4 -1.75,4.15 -2.65,8.5 -0.35,1.8 -1.3,1.9 L -0.8,23.1 -1.75,22.3 q -1,-1.5 -0.75,-3.65 0.15,-1.5 1,-3.7 L -0.8,13.1 Q 0.45,9.85 1.6,8 2.75,6.2 3.95,5.15 5.8,3.5 8.4,2.9 l 5.05,-0.15 1.3,0.15 1.35,-0.25 q 4.55,-1.2 7.9,0.4 2.2,1.05 3.6,3.25 1.35,2.1 1.6,4.6 0.4,4.95 -3.2,9.1 -1.05,1.2 -2.25,2.05 l -2.55,1.2 -2.65,0.9 q -5.5,1.85 -8.15,4.65 -1.6,1.7 -1.75,3.4 0,1 0.45,1.45 0.4,0.4 1.3,0.5 2.2,0.1 5.3,-2.3 l 1.2,-0.9 -0.15,-0.6 q -0.05,-1 1.2,-1.7 l 2.1,-0.8 1,-0.45 1.4,-0.05 1.25,0.25 0.45,0.2 0.35,-0.15 1.65,-1.2 0.35,-0.25 0.05,-0.2 0.3,-0.45 0.25,-0.95 -0.15,-0.25 1.1,-0.35 2.5,-0.4 M 11.35,13.65 13,10.35 q 0.8,-1.8 0.7,-2.9 -3.45,3.1 -5.65,7.4 L 7.5,16.1 q -0.45,1.15 -0.6,2.3 l 1.7,-1.4 1.7,-1.9 1.05,-1.45"
         fill="#767676"
         fill-rule="evenodd"
         stroke="none"
         id="path8" />
      <path
         d="M 39.2,24.45 Q 35,26.35 28.9,29.7 v 0.05 l -0.1,0.1 -0.25,0.25 -0.2,0.15 -1.85,1.05 -0.4,0.2 -0.2,0.55 -0.1,1.05 -0.3,0.95 q -0.35,0.4 -1.2,0.6 l -4,1.45 -1.85,0.25 q -0.75,-0.1 -1.65,-1.2 -2.25,-2.5 -2.95,-4.2 -0.8,-2.15 0.35,-3.55 l 1.6,-1.1 2.2,-1.1 q 1.3,-0.75 2.05,-0.85 l 1.95,0.15 0.55,0.2 0.1,-0.05 3.25,-1.55 -0.05,-0.05 9.4,-4.4 0.25,-0.2 1.4,-0.7 0.25,-0.05 h 0.05 l 0.05,-0.05 0.05,-0.05 2,-2.1 2.75,-2.5 1.2,-1.4 q 0.4,-1 -0.1,-2.8 L 38.25,8.6 33.8,9.3 32.95,9.55 q -0.45,0.35 -0.6,1 -1.45,3.7 -2.05,5.85 l -0.65,1.65 q -0.7,0.9 -1.55,0.5 -0.5,-0.2 -0.7,-1 V 16.3 l 0.25,-5.05 q 0.05,-3.2 0.4,-5.05 0.2,-1.15 0.6,-1.55 0.3,-0.35 1.55,-0.8 6.65,-2 10.3,-2.25 l 2.25,0.05 q 0.85,0.15 2.2,0.75 2.3,1.1 4.85,2.55 0.85,0.5 1.1,0.95 0.6,0.8 0.3,2.55 l -0.95,5.4 3.65,0.85 q 1.75,0.45 2.25,1.3 0.3,0.4 0.4,1.4 l 0.45,5.45 -0.2,2.3 -0.8,2.1 q -1.7,3.25 -6.2,8.6 l -1.3,1.1 -1.7,-0.05 Q 45,36.45 42,35.25 L 37.25,33.5 36.15,33 q -0.65,-0.5 -0.65,-1 0,-1 1.05,-1.25 l 1.8,0.05 6.15,0.45 1.2,-0.15 0.55,-0.7 2.4,-3.85 q 1.8,-2.9 1.75,-4.55 -1.45,-1.2 -2.55,-1.25 l -1.75,0.55 -3.4,1.6 -2.3,0.9 -1.2,0.65 M 30.95,7.7 q 0.45,-0.45 1.7,-0.75 l 3.2,-0.65 4.1,-0.65 4,0.4 q 1.25,0.35 1.7,1.1 L 46.1,8.7 q 0.3,3.2 -0.5,4.5 l -1.65,1.7 -4.75,3.95 0.15,0.1 0.45,0.8 0.85,1.35 4.45,-2.3 q 1.3,-0.7 2.2,-0.8 1.5,-0.25 4.35,1.3 0.9,0.5 1.25,1.05 0.5,0.65 0.35,1.95 -0.2,1.9 -1.25,3.85 l -2.2,3.5 -1.85,2.7 Q 47.2,33.4 46.6,33.6 l -1.05,0.1 -1.05,0.05 2.85,0.75 q 3.25,-3.55 5.7,-7.65 L 53.95,25 54.1,23.4 q 0,-2.75 -0.4,-5.15 l -0.15,-0.55 -0.7,-0.4 -4.5,-0.95 -0.45,-0.1 -0.1,-0.1 -0.5,-0.65 -0.1,-0.75 V 14.7 L 47.45,13 47.5,12.9 48.45,8.4 48.35,7.6 47.9,7.25 q -2.1,-1.3 -4.6,-2.4 l -1.5,-0.5 -2.05,0.1 Q 35,5.05 30.45,6.65 L 30,9.6 30.5,8.65 Q 30.75,8 30.95,7.7 M 38,22.05 39.1,21.65 38.3,20.3 38.1,19.9 37.4,20.25 27.85,24.85 27.5,25 25,26.4 23.85,27.05 23.2,27.35 H 23 l -0.45,0.1 -1,-0.15 -1,-0.15 -0.95,0.3 -2.8,1.5 q 1.55,4.5 2.75,3.85 l 2.9,-0.75 q 0.55,-0.1 0.65,-0.4 l 0.1,-0.6 q 0.05,-0.8 0.45,-1.35 0.3,-0.45 1.1,-0.85 L 26.2,28.1 28.6,26.85 V 26.9 L 38,22.05 m -18.65,7.5 q 0.4,-0.85 1.3,-0.95 0.95,-0.05 1.25,0.8 0.45,0.85 -0.35,1.5 l -0.8,0.35 -0.85,-0.15 q -0.85,-0.5 -0.55,-1.55"
         fill="#000000"
         fill-rule="evenodd"
         stroke="none"
         id="path9" />
    </g>
    <g
       id="shape2"
       transform="translate(2,2.05)">
      <path
         d="M -0.5,-0.4 V -0.55 H 75.1 V -0.4 40.8 H -0.5 Z"
         fill="none"
         stroke="#000000"
         stroke-linecap="round"
         stroke-linejoin="round"
         stroke-width="3"
         id="path10" />
    </g>
  </defs>
</svg>
