<?xml version="1.0" encoding="UTF-8" standalone="no"?>
<svg
   ffdec:objectType="frame"
   height="60.549999"
   width="67.099998"
   version="1.1"
   id="svg6"
   sodipodi:docname="69.svg"
   xmlns:inkscape="http://www.inkscape.org/namespaces/inkscape"
   xmlns:sodipodi="http://sodipodi.sourceforge.net/DTD/sodipodi-0.dtd"
   xmlns:xlink="http://www.w3.org/1999/xlink"
   xmlns="http://www.w3.org/2000/svg"
   xmlns:svg="http://www.w3.org/2000/svg"
   xmlns:ffdec="https://www.free-decompiler.com/flash">
  <sodipodi:namedview
     id="namedview6"
     pagecolor="#ffffff"
     bordercolor="#000000"
     borderopacity="0.25"
     inkscape:showpageshadow="2"
     inkscape:pageopacity="0.0"
     inkscape:pagecheckerboard="0"
     inkscape:deskcolor="#d1d1d1"
     fit-margin-top="5"
     fit-margin-left="5"
     fit-margin-right="5"
     fit-margin-bottom="5" />
  <g
     transform="translate(1.5,1.5)"
     id="g3">
    <use
       ffdec:characterId="516"
       height="57.549999"
       width="64.099998"
       xlink:href="#shape0"
       id="use1" />
    <use
       ffdec:characterId="581"
       height="59.849998"
       transform="translate(-0.1,-1.15)"
       width="65"
       xlink:href="#shape1"
       id="use2" />
    <use
       ffdec:characterId="518"
       height="60.549999"
       transform="translate(-1.5,-1.5)"
       width="67.099998"
       xlink:href="#shape2"
       id="use3" />
  </g>
  <defs
     id="defs6">
    <g
       id="shape0">
      <path
         d="M 53.6,0 H 64.1 V 57.55 H 53.6 28.25 0 V 0 H 28.25 53.6 V 57.55 0 M 28.25,0 V 57.55 0"
         fill="#ffffff"
         fill-rule="evenodd"
         stroke="none"
         id="path3" />
    </g>
    <g
       id="shape1"
       transform="translate(0.1,1.15)">
      <path
         d="M 2.7,7.95 Q 1.55,7.65 1.1,7.05 L 0.9,6.55 0.85,6.5 Q 0.45,6.15 0.25,5.25 0.1,4.25 0.2,2.15 L 0.45,1.1 1.05,0.6 1.5,0.5 V 0.45 0.35 L 1.55,0.25 V 0.1 L 1.6,0 1.65,-0.1 1.7,-0.2 1.8,-0.3 1.9,-0.4 2,-0.5 2.2,-0.6 2.35,-0.65 2.5,-0.7 2.85,-0.75 H 3.2 L 3.45,-0.8 h 0.3 v -0.05 h 1.8 0.6 4.45 1 3.35 l 0.75,0.05 0.4,0.05 h 3.3 l 0.65,-0.15 0.6,0.25 h 0.3 l 0.3,0.1 0.25,0.1 0.15,0.1 0.2,0.1 0.1,0.1 0.05,0.1 0.1,0.1 0.1,0.1 1.35,0.55 0.05,0.05 q 0.3,-0.5 0.95,-0.4 l 1.05,0.4 2.4,1.3 2.05,1.2 2.8,1.85 0.7,0.6 0.25,0.75 -0.35,0.7 L 32.4,7.45 30.85,7.25 28.6,6.8 26.85,6.75 24.8,6.7 q 2.5,1.45 5.7,3.8 l 1.9,1.55 q 1.25,1.25 0.65,2.15 -0.35,0.6 -1.6,0.6 -2.8,0.05 -6.55,-1.1 l -6.35,-2.15 -3.9,-1 L 7.85,8.8 2.7,7.95 M 35,3.4 34.6,3.05 34,2.7 33.6,2.25 33.05,1.9 32.6,1.4 32.2,0.95 q -0.15,-0.3 0,-0.65 0.2,-0.75 0.9,-0.65 l 0.6,0.25 1.45,0.95 0.2,0.15 q 0.1,-0.3 0.45,-0.5 l 0.8,-0.2 1,0.15 q 0,-0.65 0.25,-0.95 0.2,-0.35 0.65,-0.35 l 0.65,0.2 Q 39.5,-0.3 39.5,0.8 l 0.1,1.4 -0.05,1.4 Q 39.45,4.4 39,4.65 L 37.95,4.6 36.95,4.15 36.25,4 35.75,3.75 35,3.4 M 49.55,4.6 48.6,5.05 47.95,4.85 Q 47.65,4.6 47.65,4.2 V 3.9 L 47.5,2.75 47.45,0.7 47.55,0.05 q 0.25,-0.4 0.6,-0.4 0.35,-0.05 0.65,0.3 l 0.2,0.55 0.2,-0.1 1.15,0.1 0.8,0.4 0.4,-0.35 2.1,-1.25 1.3,-0.45 q 0.6,0.1 0.85,0.7 0.2,0.5 -0.15,1.05 L 54.5,1.5 53.95,1.9 53.35,2.1 51.9,2.9 49.55,4.6 m 13.95,4.6 0.6,0.75 -0.15,0.85 q -0.3,0.45 -1.45,0.7 l -3.35,0.6 -1.3,0.05 Q 57.5,12 57.4,11.65 q -0.15,-0.4 0,-0.7 L 57.75,10.5 58.6,9.15 59.15,7.95 62.6,1.8 62.8,1.35 Q 63,1.1 63.3,1.1 l 0.5,0.15 q 0.25,0.4 0,0.95 l -0.55,1.05 -0.2,0.5 q 0.45,0.25 0.55,1 0.05,0.7 -0.3,1.6 L 63,7.95 63.15,8.6 V 9.1 L 63.5,9.2 M 59.9,20.85 58.6,19.2 57.7,18.3 Q 57.4,18 57.4,17.55 57.35,17.1 57.65,16.8 58.1,16.25 59.1,16.25 l 1.65,0.3 0.8,0.3 1.2,0.05 1.2,0.1 0.75,0.65 q 0.3,0.45 0.2,0.95 l -0.5,0.85 -0.85,0.25 -0.2,0.6 0.1,0.45 -0.1,0.9 -0.05,0.75 -0.05,0.1 0.5,0.8 0.25,0.5 q 0,0.45 -0.35,0.6 -0.45,0.2 -0.95,-0.3 l -0.5,-0.55 -0.5,-0.75 -0.8,-0.95 -1,-1 m 1.8,-0.7 v 0.05 -0.05 m -32.5,4.95 1.25,1.35 4.6,3.95 q 0.1,-0.35 0.35,-0.6 0.3,-0.25 1.15,-0.45 l 4.35,-1.6 1.1,-0.1 0.25,0.3 0.5,0.1 0.6,0.7 q 0.1,0.6 -0.5,1.5 Q 40.4,34 37.3,42.05 l -3,7.6 5,-7.95 6.9,-10.65 V 31 q 0,-1.15 0.3,-1.35 l 0.6,-0.05 0.5,0.35 0.1,0.2 0.1,0.4 0.1,0.65 q 0.15,3.55 0.75,7.1 l 0.35,2.5 0.35,5.2 0.05,1.3 0.9,-5.6 0.65,-4.25 0.2,-3.35 0.2,-0.6 v -0.1 q 0,-0.75 0.65,-0.9 0.45,-0.05 0.9,0.4 l 0.45,0.4 0.1,0.3 6.6,8.95 q -1,-3.1 -2.2,-8.4 l -2,-8.45 -0.15,-1.1 q 0,-0.55 0.45,-0.8 l 0.2,-0.2 h 0.15 q 0.45,-0.05 0.9,0.4 l 0.45,0.85 3.45,3.15 0.55,0.6 0.95,0.65 0.65,1.05 0.55,0.6 q 0.5,0.65 0.05,1.4 -0.35,0.45 -0.8,0.5 v 0.1 0.1 0.1 0.1 l -0.05,0.1 0.05,0.1 v 0.1 0.1 0.1 0.1 0.1 0.1 0.15 0.1 0.1 0.1 0.1 0.1 0.1 0.1 0.1 0.1 0.1 0.1 l -0.05,0.1 v 0.1 l 0.05,0.1 v 0.15 0.1 0.1 0.1 l 0.05,0.1 v 0.1 l 0.05,0.1 v 0.1 0.1 0.1 0.1 0.1 0.1 0.1 0.1 0.1 0.15 0.1 0.1 0.1 0.1 0.1 0.1 0.1 0.1 0.1 0.1 0.1 0.1 0.1 0.1 l 0.05,0.15 v 0.1 0.1 l 0.05,0.1 v 0.1 0.1 0.1 0.1 0.1 0.1 0.1 0.1 0.1 0.1 0.1 0.15 0.1 0.1 0.1 l 0.05,0.1 v 0.1 0.1 0.1 0.1 0.1 0.1 0.1 0.1 0.1 0.1 0.1 0.15 0.1 0.1 0.1 0.1 0.1 0.1 0.1 0.1 0.1 0.1 0.1 l 0.05,0.1 v 0.1 0.1 0.15 0.1 0.1 0.1 0.1 0.1 0.1 0.1 0.1 0.1 0.1 0.1 0.1 0.1 0.1 0.1 0.15 l 0.05,0.1 v 0.1 0.1 0.1 0.1 l 0.75,2.95 q 0.3,0.9 0.05,1.45 -0.2,0.5 -0.8,0.65 h -0.05 v 0.1 0.1 0.1 0.1 0.1 0.1 L 63.5,51.6 v 0.1 0.1 0.1 0.1 0.1 0.1 0.1 0.1 0.1 0.1 0.1 0.1 0.1 0.1 0.1 0.15 0.1 0.1 0.1 0.1 0.1 0.1 0.1 0.1 0.1 l -0.05,0.1 v 0.1 0.1 l 0.05,0.1 0.1,0.1 0.05,0.1 0.05,0.1 0.05,0.1 0.05,0.1 v 0.1 l 0.05,0.1 v 0.1 0.1 0.1 0.1 0.1 L 63.8,55.9 V 56 l -0.05,0.1 -0.05,0.1 v 0.1 l -0.1,0.1 -0.05,0.1 -0.1,0.1 -0.1,0.1 -0.1,0.1 -0.15,0.1 -0.2,0.1 -0.2,0.1 h -0.1 l -0.35,0.05 h -1.7 -0.8 -0.6 -1.05 L 49.25,57.2 H 44.05 43.4 41.9 41.2 38.7 L 36.65,57.15 34.3,57.1 h -1.2 q -0.45,0.45 -0.95,0.5 L 31.2,57.4 30.9,57.1 h -0.2 l -1.05,0.2 -2,-0.25 L 27.3,57 H 26.5 L 25.3,56.95 24.75,57 23.35,57.1 22.3,56.9 21.8,56.85 21.5,56.8 q -0.35,1.4 -0.85,1.75 L 19.6,58.6 q -0.55,-0.2 -0.7,-0.75 l 0.15,-1.1 h -0.2 L 18.65,56.7 18.4,56.65 h -1.2 l -7,0.6 Q 5.85,57.8 3.25,57.35 1.6,57.05 1.05,56.3 0.55,55.65 0.45,54.5 l -0.4,-4.4 -0.1,-3.7 Q 0.1,44.7 0.6,42.55 0.75,41.65 1.05,41.1 L 0.95,41 Q 0.65,40.7 0.75,40 L 0.95,38.95 1,38.75 0.75,38.7 0.55,38.6 0.4,38.5 0.3,38.4 0.2,38.3 0.1,38.2 V 38.1 L 0.05,38 0,37.9 v -0.1 -0.15 -0.1 l -0.05,-0.1 v -0.1 -0.1 -0.1 -0.1 -0.1 -0.1 -0.1 -0.1 -0.1 -0.1 -0.1 L 0,36.25 -0.05,36.1 V 36 35.9 35.8 L 0,35.7 v -0.1 l -0.05,-0.1 v -0.1 -0.1 -0.1 -0.1 -0.1 -0.1 -0.1 -0.1 -0.15 -0.1 -0.1 -0.1 -0.1 -0.1 -0.1 -0.1 -0.1 -0.1 -0.1 -0.1 -0.1 -0.1 -0.1 -0.1 L 0,32.9 V 32.8 32.7 32.6 32.5 32.4 L 0.05,32.3 V 32.2 32.1 L 0.1,32 V 31.9 31.8 31.7 L 0.15,31.6 0.2,31.5 0.25,31.45 0,31.25 Q -0.2,31 0.1,30.6 0.55,30.05 1.85,29.55 l 3.3,-1.1 Q 22.6,22.4 33.5,19.05 l 0.65,-0.15 0.15,-0.1 q 0.4,-0.2 0.85,0.15 0.4,0.3 0.35,0.75 0,0.4 -0.55,1.05 l -3.3,3.6 -0.75,0.6 q -0.6,0.2 -0.85,-0.2 L 30,24.25 28.7,24.8 q 0.25,0.1 0.5,0.3 M 5,9.55 l 4.25,0.95 3.7,1.2 q 8.4,2.7 16.6,4.15 l 1.35,0.45 q 0.75,0.45 0.6,1.2 -0.1,0.6 -1.3,1.15 L 16.1,24 Q 8.25,26.8 1.7,28.3 H 1.15 Q 0.9,28.1 1,27.75 L 0.8,27.6 0.65,27.5 0.55,27.4 0.5,27.3 0.45,27.2 0.4,27.1 0.35,27 V 26.9 26.8 L 0.3,26.7 v -0.1 -0.1 -0.1 -0.1 -0.1 -0.15 -0.1 -0.1 -0.1 -0.1 -0.1 -0.1 -0.1 l 0.05,-0.1 v -0.1 -0.1 -0.1 -0.1 -0.1 -0.1 -0.1 V 24.4 24.3 24.2 24.1 24 23.9 L 0.3,23.8 v -0.1 -0.1 -0.1 -0.1 -0.1 -0.1 l 0.05,-0.1 v -0.1 -0.15 -0.1 -0.1 -0.1 -0.1 -0.1 -0.1 -0.1 -0.1 -0.1 -0.1 -0.1 L 0.3,21.65 V 21.55 21.45 21.3 21.2 21.1 21 20.9 20.8 20.7 20.6 20.5 20.4 20.3 20.2 20.1 20 v -0.1 -0.1 -0.15 -0.1 -0.1 -0.1 -0.1 -0.1 -0.1 -0.1 -0.1 -0.1 -0.1 -0.1 -0.1 -0.1 -0.1 V 18.1 18 17.9 17.8 17.7 17.6 17.5 17.4 17.3 17.2 17.1 17 v -0.1 -0.1 -0.1 -0.1 -0.15 -0.1 -0.1 -0.1 -0.1 -0.1 -0.1 -0.1 l -0.05,-0.1 v -0.1 -0.1 -0.1 -0.1 L 0.2,15.15 v -0.1 -0.15 -0.1 -0.1 -0.1 -0.1 -0.1 -0.1 -0.1 -0.1 -0.1 -0.1 -0.1 -0.1 -0.1 -0.1 -0.15 -0.1 -0.1 -0.1 -0.1 -0.1 -0.1 -0.1 -0.1 -0.1 -0.1 -0.1 -0.1 -0.1 -0.1 -0.1 V 11.7 11.6 11.5 11.4 11.3 11.2 11.1 11 L 0.25,10.9 V 10.8 L 0.3,10.7 V 10.6 Q -0.15,10.1 0.1,9.55 0.4,8.65 2.1,9 L 5,9.55 M 2.95,38.5 2.45,38.7 Q 2.3,38.85 2.4,39.4 l 1.65,-0.6 4.35,-1.65 4.35,-1.95 -0.85,0.25 -0.8,0.35 -1.05,0.25 -0.9,0.35 -2,0.65 -3.1,1.1 -1.1,0.35 m 10.5,-3.6 -0.45,0.2 0.5,-0.15 0.45,-0.15 -0.5,0.1 m 7.7,-3.85 -0.1,0.4 -0.45,0.15 -0.85,0.7 -0.05,0.05 1.6,-1.6 -0.15,0.3 m 11.6,2.7 -0.7,-0.3 h 0.05 q 1.2,0.2 1.9,-0.4 0.95,-0.75 0.7,-1.8 -0.1,-0.6 -0.85,-1.25 l -1.2,-0.9 -1.3,-1.3 -1.65,-1.55 -1.1,-0.9 q -0.7,-0.3 -1.35,0 -0.65,0.3 -0.9,1.05 L 26.3,26.65 26.25,26 q -1.5,0.9 -2.85,2 L 20.75,30.1 18.4,31.25 16.65,32 h 0.85 q 0.9,0.2 0.95,0.75 L 18,33.4 17.15,33.65 q -0.7,0.15 -1.65,0.6 1.1,0 1.35,0.45 0.35,0.5 -0.15,1.1 l 1.05,0.2 q 0.2,-0.95 0.95,-2.2 -0.15,0.65 0.1,1.3 l 0.4,0.8 0.65,1.55 0.8,1.55 1.65,1.5 1.9,1.05 1.45,0.15 1.25,-0.35 q 0.7,-0.5 0.75,-1.3 1.2,0.35 2.15,-0.4 0.9,-0.8 0.8,-1.8 L 33.2,34 33.3,33.85 32.75,33.75 M 2,31.5 2.05,31.55 2.3,31.45 2,31.5 m 17.7,7.5 -0.25,-0.05 0.05,0.1 h 0.25 L 19.7,39 m 5,-8.3 q 0.35,0.55 0.25,1.15 Q 25.7,32 27,32.9 l 1.5,1.05 0.9,0.85 0.3,1.1 0.1,0.5 -0.65,-0.45 q -1.25,-0.6 -1.8,-1 L 25.8,33.35 25,32.1 24.3,30.55 23.75,30.05 q 0.55,0.1 0.95,0.65 m 3.55,10.35 -1.35,0.8 -2.45,0.4 Q 23.1,42.2 22.15,41.5 l -0.25,0.8 -0.65,2.1 v 0.4 l 0.15,-0.4 q 0.3,-0.95 0.95,-1.15 l 0.75,0.1 0.1,0.1 0.2,-0.05 0.75,0.15 0.75,0.15 1.05,-0.3 0.3,0.05 0.25,-0.55 0.5,-0.65 q 0.45,-0.35 0.7,0.1 l 0.1,0.15 0.05,-0.15 q 0.35,-0.9 1.05,-2 l -0.65,0.7 m -5.7,6.55 -0.4,2.15 -0.4,1.3 q -0.2,0.7 -0.1,1.25 L 25,45.85 23.7,45.8 23.1,45.65 q -0.35,0.75 -0.55,1.95"
         fill="#999999"
         fill-rule="evenodd"
         stroke="none"
         id="path4" />
      <path
         d="M 35.4,9 Q 35.85,8.35 37.2,8.15 L 45.35,7.4 53.4,6.25 q 1.4,-0.5 2.25,-0.45 l 1.1,0.3 0.65,0.9 q 0.15,0.5 -0.1,1.2 l -0.6,1.15 -0.85,2.3 -0.7,2.95 -0.8,4.9 -0.9,4.9 -0.6,1.5 q -0.5,0.85 -1.3,0.9 -1.05,0.1 -1.65,-0.95 L 49.25,24 48.9,22.35 l -0.1,1.8 -0.3,2.7 -0.35,0.75 q -0.25,0.35 -0.75,0.35 -0.5,0 -0.75,-0.35 l -0.3,-0.65 -0.5,-1.75 -0.15,-1.4 -0.2,-3.5 -9.1,8.75 0.95,1.1 0.4,0.25 0.2,0.35 q 0.4,0.8 0.05,1.9 l -0.9,1.7 -0.95,1.5 -0.95,1.05 -1.55,0.25 q -0.1,1.3 -2,2.9 l -5.15,4.3 -1.4,0.85 Q 24.3,45.35 23,44.65 l -0.35,0.2 q -1.9,1.3 -5.95,4.9 -1.5,1.3 -2.45,1.25 -0.65,-0.05 -1.4,-0.6 L 11.65,49.35 10.35,48.3 8.65,46 8.05,44.65 q -0.2,-0.9 0.4,-1.95 l 1.3,-1.55 q 2.75,-2.7 5.6,-4.5 -0.6,-0.9 -0.65,-1.6 -0.1,-1.35 1.2,-2.95 l 2.25,-2 2.35,-1.9 1.45,-1.2 0.95,-0.4 -0.1,-0.55 q 0.1,-1.2 1.4,-1.85 0.75,-0.4 2.3,-0.95 l 1.35,-0.6 q 0.8,-0.2 1.4,0 1.1,0.25 2.65,1.9 L 32.25,24.9 41.8,17.05 38,16.1 36.65,15.6 Q 35.9,15.2 35.75,14.5 35.5,13.65 36.2,13.2 l 1.1,-0.2 1.05,0.05 -1.4,-0.65 Q 35.9,11.85 35.4,11 34.75,9.9 35.4,9 M 18.95,41.5 17.8,40 17.35,39.4 16.8,39.8 q -2.55,1.8 -4.45,3.95 l -0.2,0.4 0.2,0.4 2,1.75 4,-3.35 1.15,-0.9 -0.55,-0.55 m 14.2,-9.9 -0.4,-0.45 -1.1,-1.05 -1.1,-1.15 -1.05,-0.85 -0.9,-1.05 -0.3,0.15 1.15,1.7 1.4,1.6 q 1.2,1.65 1.95,1.9 l 0.35,-0.8 m -13.95,3.2 2.6,3.55 q 0.9,0.95 2.55,2.05 l 0.15,0.05 0.3,-0.15 3.5,-3 L 27.6,36.35 27,35.7 25.95,34.1 q -1.1,-1.7 -2.55,-2.95 l -2.1,1.75 q -1.6,1.1 -2.1,1.9"
         fill="#000000"
         fill-rule="evenodd"
         stroke="none"
         id="path5" />
    </g>
    <g
       id="shape2"
       transform="translate(1.5,1.5)">
      <path
         d="M 0,23.8 V 0 H 64.1 V 23.8 57.55 H 0 Z"
         fill="none"
         stroke="#000000"
         stroke-linecap="round"
         stroke-linejoin="round"
         stroke-width="3"
         id="path6" />
    </g>
  </defs>
</svg>
